<svg width="338" height="375" viewBox="0 0 338 375" fill="none" xmlns="http://www.w3.org/2000/svg">
<rect width="338" height="375" fill="#D3D3D3"/>
<rect x="9" y="50" width="320" height="265" rx="16" fill="white"/>
<g filter="url(#filter0_d_1124_4113)">
<path d="M9 66C9 57.1634 16.1634 50 25 50H313C321.837 50 329 57.1634 329 66V98H9V66Z" fill="#FF1934" shape-rendering="crispEdges"/>
<g clip-path="url(#clip0_1124_4113)">
<path fill-rule="evenodd" clip-rule="evenodd" d="M27 78C27 72.49 31.49 68 37 68C42.51 68 47 72.49 47 78C47 83.51 42.51 88 37 88C31.49 88 27 83.51 27 78ZM28.6 78C28.6 82.63 32.37 86.4 37 86.4C41.63 86.4 45.4 82.63 45.4 78C45.4 73.37 41.63 69.6 37 69.6C32.37 69.6 28.6 73.37 28.6 78ZM32.2 78C32.2 77.56 32.56 77.2 33 77.2H41C41.44 77.2 41.8 77.56 41.8 78C41.8 78.44 41.44 78.8 41 78.8H33C32.56 78.8 32.2 78.44 32.2 78Z" fill="white"/>
</g>
<path d="M60.668 78.332H62.936L62.838 77.996C62.5673 77.0813 62.3433 76.302 62.166 75.658C61.998 75.014 61.8953 74.5987 61.858 74.412L61.802 74.132C61.7273 74.6453 61.382 75.9333 60.766 77.996L60.668 78.332ZM64.028 82L63.454 80.068H60.15L59.576 82H57.322L60.472 72.564H63.188L66.338 82H64.028ZM69.55 74.902V76.106C69.7273 75.714 69.998 75.406 70.362 75.182C70.7353 74.9487 71.1787 74.832 71.692 74.832C72.42 74.832 72.9893 75.0513 73.4 75.49C73.8107 75.9193 74.016 76.554 74.016 77.394V82H71.972V77.772C71.972 77.352 71.874 77.0347 71.678 76.82C71.482 76.596 71.2067 76.484 70.852 76.484C70.4787 76.484 70.166 76.6333 69.914 76.932C69.6713 77.2213 69.55 77.66 69.55 78.248V82H67.506V74.902H69.55ZM78.8891 80.376C79.3558 80.376 79.7338 80.194 80.0231 79.83C80.3124 79.466 80.4571 78.9807 80.4571 78.374C80.4571 77.786 80.2984 77.3287 79.9811 77.002C79.6731 76.6753 79.3044 76.512 78.8751 76.512C78.4458 76.512 78.0818 76.6847 77.7831 77.03C77.4938 77.3753 77.3491 77.856 77.3491 78.472C77.3491 79.0413 77.4984 79.5033 77.7971 79.858C78.0958 80.2033 78.4598 80.376 78.8891 80.376ZM80.4571 72.102H82.5011V82H80.4571V80.894C79.9811 81.6873 79.2718 82.084 78.3291 82.084C77.4051 82.084 76.6631 81.7247 76.1031 81.006C75.5524 80.2873 75.2771 79.4287 75.2771 78.43C75.2771 77.31 75.5664 76.428 76.1451 75.784C76.7238 75.14 77.4564 74.818 78.3431 74.818C79.2671 74.818 79.9718 75.21 80.4571 75.994V72.102ZM87.6997 79.088H87.0417C86.6964 79.088 86.4304 79.1627 86.2437 79.312C86.057 79.4613 85.9637 79.6527 85.9637 79.886C85.9637 80.362 86.239 80.6 86.7897 80.6C87.079 80.6 87.303 80.5113 87.4617 80.334C87.6204 80.1567 87.6997 79.914 87.6997 79.606V79.088ZM84.3817 77.086V75.252C84.9417 74.9347 85.749 74.776 86.8037 74.776C87.8117 74.776 88.563 74.9953 89.0577 75.434C89.5524 75.8633 89.7997 76.5353 89.7997 77.45V82H87.7977V81.132C87.499 81.7387 86.911 82.042 86.0337 82.042C85.343 82.042 84.8017 81.846 84.4097 81.454C84.027 81.062 83.8357 80.572 83.8357 79.984C83.8357 79.3027 84.083 78.7753 84.5777 78.402C85.0817 78.0193 85.8237 77.828 86.8037 77.828H87.6997V77.338C87.6997 76.7407 87.303 76.442 86.5097 76.442C85.7444 76.442 85.035 76.6567 84.3817 77.086ZM96.9485 74.902V76.008C97.3405 75.224 98.0078 74.832 98.9505 74.832C99.9491 74.832 100.612 75.28 100.938 76.176C101.097 75.756 101.363 75.4293 101.736 75.196C102.11 74.9533 102.548 74.832 103.052 74.832C103.752 74.832 104.303 75.056 104.704 75.504C105.115 75.9427 105.32 76.5913 105.32 77.45V82H103.276V77.786C103.276 77.3847 103.197 77.0673 103.038 76.834C102.88 76.6007 102.651 76.484 102.352 76.484C102.035 76.484 101.75 76.6147 101.498 76.876C101.256 77.128 101.134 77.5853 101.134 78.248V82H99.0905V77.786C99.0905 77.3847 99.0111 77.0673 98.8525 76.834C98.6938 76.6007 98.4651 76.484 98.1665 76.484C97.8491 76.484 97.5645 76.6147 97.3125 76.876C97.0698 77.128 96.9485 77.5853 96.9485 78.248V82H94.9045V74.902H96.9485ZM111.038 77.8V77.632C110.972 76.8013 110.608 76.386 109.946 76.386C109.619 76.386 109.33 76.5073 109.078 76.75C108.826 76.9833 108.658 77.3333 108.574 77.8H111.038ZM112.508 79.886V81.594C112.022 81.9113 111.28 82.07 110.282 82.07C109.115 82.07 108.205 81.734 107.552 81.062C106.908 80.3807 106.586 79.508 106.586 78.444C106.586 77.3147 106.898 76.4327 107.524 75.798C108.158 75.154 108.938 74.832 109.862 74.832C110.814 74.832 111.565 75.112 112.116 75.672C112.666 76.2227 112.942 77.0487 112.942 78.15C112.942 78.3647 112.904 78.7333 112.83 79.256H108.658C108.798 79.648 109.04 79.9513 109.386 80.166C109.731 80.3807 110.146 80.488 110.632 80.488C111.35 80.488 111.976 80.2873 112.508 79.886ZM116.445 74.902V76.106C116.622 75.714 116.893 75.406 117.257 75.182C117.63 74.9487 118.073 74.832 118.587 74.832C119.315 74.832 119.884 75.0513 120.295 75.49C120.705 75.9193 120.911 76.554 120.911 77.394V82H118.867V77.772C118.867 77.352 118.769 77.0347 118.573 76.82C118.377 76.596 118.101 76.484 117.747 76.484C117.373 76.484 117.061 76.6333 116.809 76.932C116.566 77.2213 116.445 77.66 116.445 78.248V82H114.401V74.902H116.445ZM125.672 80.138C126.11 80.138 126.451 79.9747 126.694 79.648C126.946 79.312 127.072 78.9107 127.072 78.444C127.072 77.1747 126.61 76.54 125.686 76.54C125.275 76.54 124.953 76.6987 124.72 77.016C124.486 77.3333 124.37 77.772 124.37 78.332C124.37 78.92 124.482 79.368 124.706 79.676C124.93 79.984 125.252 80.138 125.672 80.138ZM127.072 74.902H129.102V81.314C129.102 82.4527 128.761 83.3067 128.08 83.876C127.398 84.4547 126.544 84.744 125.518 84.744C124.519 84.744 123.646 84.5667 122.9 84.212V82.126C123.553 82.6487 124.356 82.91 125.308 82.91C125.924 82.91 126.372 82.7793 126.652 82.518C126.932 82.2567 127.072 81.846 127.072 81.286V80.81C126.661 81.4447 126.008 81.762 125.112 81.762C124.328 81.762 123.651 81.4727 123.082 80.894C122.522 80.3153 122.242 79.4567 122.242 78.318C122.242 77.31 122.512 76.4793 123.054 75.826C123.604 75.1633 124.323 74.832 125.21 74.832C126.05 74.832 126.67 75.168 127.072 75.84V74.902ZM134.225 79.088H133.567C133.222 79.088 132.956 79.1627 132.769 79.312C132.582 79.4613 132.489 79.6527 132.489 79.886C132.489 80.362 132.764 80.6 133.315 80.6C133.604 80.6 133.828 80.5113 133.987 80.334C134.146 80.1567 134.225 79.914 134.225 79.606V79.088ZM130.907 77.086V75.252C131.467 74.9347 132.274 74.776 133.329 74.776C134.337 74.776 135.088 74.9953 135.583 75.434C136.078 75.8633 136.325 76.5353 136.325 77.45V82H134.323V81.132C134.024 81.7387 133.436 82.042 132.559 82.042C131.868 82.042 131.327 81.846 130.935 81.454C130.552 81.062 130.361 80.572 130.361 79.984C130.361 79.3027 130.608 78.7753 131.103 78.402C131.607 78.0193 132.349 77.828 133.329 77.828H134.225V77.338C134.225 76.7407 133.828 76.442 133.035 76.442C132.27 76.442 131.56 76.6567 130.907 77.086ZM138 82V72.102H140.044V82H138ZM145.313 79.088H144.655C144.31 79.088 144.044 79.1627 143.857 79.312C143.67 79.4613 143.577 79.6527 143.577 79.886C143.577 80.362 143.852 80.6 144.403 80.6C144.692 80.6 144.916 80.5113 145.075 80.334C145.234 80.1567 145.313 79.914 145.313 79.606V79.088ZM141.995 77.086V75.252C142.555 74.9347 143.362 74.776 144.417 74.776C145.425 74.776 146.176 74.9953 146.671 75.434C147.166 75.8633 147.413 76.5353 147.413 77.45V82H145.411V81.132C145.112 81.7387 144.524 82.042 143.647 82.042C142.956 82.042 142.415 81.846 142.023 81.454C141.64 81.062 141.449 80.572 141.449 79.984C141.449 79.3027 141.696 78.7753 142.191 78.402C142.695 78.0193 143.437 77.828 144.417 77.828H145.313V77.338C145.313 76.7407 144.916 76.442 144.123 76.442C143.358 76.442 142.648 76.6567 141.995 77.086ZM151.062 74.902V76.008C151.454 75.224 152.121 74.832 153.064 74.832C154.062 74.832 154.725 75.28 155.052 76.176C155.21 75.756 155.476 75.4293 155.85 75.196C156.223 74.9533 156.662 74.832 157.166 74.832C157.866 74.832 158.416 75.056 158.818 75.504C159.228 75.9427 159.434 76.5913 159.434 77.45V82H157.39V77.786C157.39 77.3847 157.31 77.0673 157.152 76.834C156.993 76.6007 156.764 76.484 156.466 76.484C156.148 76.484 155.864 76.6147 155.612 76.876C155.369 77.128 155.248 77.5853 155.248 78.248V82H153.204V77.786C153.204 77.3847 153.124 77.0673 152.966 76.834C152.807 76.6007 152.578 76.484 152.28 76.484C151.962 76.484 151.678 76.6147 151.426 76.876C151.183 77.128 151.062 77.5853 151.062 78.248V82H149.018V74.902H151.062ZM161.119 82V74.902H163.163V82H161.119ZM161.301 73.684C161.068 73.4507 160.951 73.1707 160.951 72.844C160.951 72.5173 161.068 72.2373 161.301 72.004C161.534 71.7707 161.814 71.654 162.141 71.654C162.468 71.654 162.748 71.7707 162.981 72.004C163.214 72.2373 163.331 72.5173 163.331 72.844C163.331 73.1707 163.214 73.4507 162.981 73.684C162.748 73.9173 162.468 74.034 162.141 74.034C161.814 74.034 161.534 73.9173 161.301 73.684ZM172.898 75.112V76.862C172.403 76.5727 171.825 76.428 171.162 76.428C170.919 76.428 170.733 76.4793 170.602 76.582C170.471 76.6753 170.406 76.7967 170.406 76.946C170.406 77.03 170.429 77.1093 170.476 77.184C170.523 77.2587 170.597 77.3287 170.7 77.394C170.812 77.4593 170.915 77.52 171.008 77.576C171.111 77.6227 171.246 77.6833 171.414 77.758C171.591 77.8327 171.731 77.898 171.834 77.954C172.263 78.178 172.609 78.4393 172.87 78.738C173.131 79.0273 173.262 79.4007 173.262 79.858C173.262 80.558 173.01 81.0993 172.506 81.482C172.002 81.8647 171.335 82.056 170.504 82.056C169.645 82.056 168.927 81.9113 168.348 81.622V79.802C168.992 80.25 169.673 80.474 170.392 80.474C170.905 80.474 171.162 80.3107 171.162 79.984C171.162 79.9 171.139 79.8207 171.092 79.746C171.045 79.6713 170.966 79.6013 170.854 79.536C170.742 79.4707 170.639 79.4193 170.546 79.382C170.453 79.3353 170.317 79.2747 170.14 79.2C169.963 79.1253 169.827 79.0647 169.734 79.018C168.791 78.57 168.32 77.898 168.32 77.002C168.32 76.3113 168.581 75.7747 169.104 75.392C169.636 75.0093 170.294 74.818 171.078 74.818C171.806 74.818 172.413 74.916 172.898 75.112ZM176.882 76.4V79.662C176.882 79.914 176.952 80.1053 177.092 80.236C177.241 80.3667 177.432 80.432 177.666 80.432C178.039 80.432 178.37 80.3387 178.66 80.152V81.846C178.314 81.9953 177.848 82.07 177.26 82.07C175.645 82.07 174.838 81.2627 174.838 79.648V76.4H173.816V74.902H174.838V73.222H176.882V74.902H178.534V76.4H176.882ZM181.946 74.902V76.218C182.077 75.8073 182.292 75.4807 182.59 75.238C182.898 74.986 183.253 74.86 183.654 74.86C183.878 74.86 184.056 74.8787 184.186 74.916V76.848C183.962 76.7453 183.706 76.694 183.416 76.694C182.978 76.694 182.623 76.8573 182.352 77.184C182.082 77.5013 181.946 77.926 181.946 78.458V82H179.902L179.916 74.902H181.946ZM188.234 82.112C187.123 82.112 186.264 81.7807 185.658 81.118C185.051 80.446 184.748 79.5873 184.748 78.542C184.748 77.45 185.065 76.554 185.7 75.854C186.334 75.1447 187.179 74.79 188.234 74.79C189.335 74.79 190.189 75.1307 190.796 75.812C191.402 76.4933 191.706 77.3613 191.706 78.416C191.706 79.4893 191.398 80.376 190.782 81.076C190.175 81.7667 189.326 82.112 188.234 82.112ZM188.22 76.4C187.772 76.4 187.436 76.5913 187.212 76.974C186.988 77.3567 186.876 77.8513 186.876 78.458C186.876 79.0647 186.988 79.564 187.212 79.956C187.445 80.3387 187.79 80.53 188.248 80.53C188.696 80.53 189.027 80.3433 189.242 79.97C189.466 79.5873 189.578 79.0927 189.578 78.486C189.578 77.0953 189.125 76.4 188.22 76.4ZM199.719 82H197.353L195.085 78.514V82H193.041V72.34H195.085V78.08L197.325 74.902H199.677L197.213 78.304L199.719 82ZM204.813 77.8V77.632C204.748 76.8013 204.384 76.386 203.721 76.386C203.394 76.386 203.105 76.5073 202.853 76.75C202.601 76.9833 202.433 77.3333 202.349 77.8H204.813ZM206.283 79.886V81.594C205.798 81.9113 205.056 82.07 204.057 82.07C202.89 82.07 201.98 81.734 201.327 81.062C200.683 80.3807 200.361 79.508 200.361 78.444C200.361 77.3147 200.674 76.4327 201.299 75.798C201.934 75.154 202.713 74.832 203.637 74.832C204.589 74.832 205.34 75.112 205.891 75.672C206.442 76.2227 206.717 77.0487 206.717 78.15C206.717 78.3647 206.68 78.7333 206.605 79.256H202.433C202.573 79.648 202.816 79.9513 203.161 80.166C203.506 80.3807 203.922 80.488 204.407 80.488C205.126 80.488 205.751 80.2873 206.283 79.886Z" fill="white"/>
</g>
<g clip-path="url(#clip1_1124_4113)">
<path d="M94.3744 127.996L87.9756 131.519L92.5404 133.516L74.1396 144.071L85.5956 132.282L81.4564 131.657L87.4574 123.275L86.8481 116.608L69.7441 118.17L70.6641 128.247L60.5879 129.167L62.1499 146.271L72.118 145.172V155.29H89.2934V145.172H99.4118V127.996H94.3744Z" fill="#FF1934"/>
<path d="M95.3076 160.078L88.4933 160.505L93.3546 160.748L73.7591 162.03L85.959 160.599L81.5512 160.522L87.9418 159.505L87.2931 158.695L69.0786 158.885L70.0585 160.108L59.3281 160.22L60.9914 162.297L71.6069 162.163V163.392H89.8968V162.163H100.672V160.078H95.3076Z" fill="#CCCCCC"/>
</g>
<path d="M123.76 134.15H125.08C125.927 134.15 126.35 133.8 126.35 133.1C126.35 132.76 126.233 132.497 126 132.31C125.773 132.117 125.433 132.02 124.98 132.02H123.76V134.15ZM123.76 129.11V131.18H124.69C125.19 131.18 125.56 131.08 125.8 130.88C126.047 130.673 126.17 130.407 126.17 130.08C126.17 129.793 126.06 129.56 125.84 129.38C125.627 129.2 125.3 129.11 124.86 129.11H123.76ZM122.73 128.26H124.94C125.647 128.26 126.203 128.427 126.61 128.76C127.017 129.087 127.22 129.52 127.22 130.06C127.22 130.433 127.113 130.76 126.9 131.04C126.693 131.32 126.427 131.5 126.1 131.58C126.467 131.647 126.773 131.817 127.02 132.09C127.273 132.363 127.4 132.73 127.4 133.19C127.4 133.723 127.217 134.16 126.85 134.5C126.49 134.833 125.98 135 125.32 135H122.73V128.26ZM128.541 135V129.93H129.531V135H128.541ZM128.591 128.82C128.477 128.7 128.421 128.553 128.421 128.38C128.421 128.207 128.477 128.06 128.591 127.94C128.711 127.82 128.857 127.76 129.031 127.76C129.204 127.76 129.351 127.82 129.471 127.94C129.591 128.06 129.651 128.207 129.651 128.38C129.651 128.547 129.591 128.69 129.471 128.81C129.351 128.93 129.204 128.99 129.031 128.99C128.857 128.99 128.711 128.933 128.591 128.82ZM133.622 132.74H132.862C132.488 132.74 132.205 132.813 132.012 132.96C131.825 133.107 131.732 133.293 131.732 133.52C131.732 133.753 131.805 133.937 131.952 134.07C132.098 134.203 132.312 134.27 132.592 134.27C132.912 134.27 133.162 134.183 133.342 134.01C133.528 133.83 133.622 133.597 133.622 133.31V132.74ZM131.072 131.14V130.19C131.465 129.963 131.985 129.85 132.632 129.85C133.958 129.85 134.622 130.493 134.622 131.78V135H133.652V134.4C133.392 134.827 132.935 135.04 132.282 135.04C131.802 135.04 131.415 134.903 131.122 134.63C130.835 134.35 130.692 133.997 130.692 133.57C130.692 133.083 130.875 132.707 131.242 132.44C131.608 132.167 132.122 132.03 132.782 132.03H133.622V131.74C133.622 131.393 133.538 131.133 133.372 130.96C133.205 130.78 132.928 130.69 132.542 130.69C132.002 130.69 131.512 130.84 131.072 131.14ZM137.342 134.89L135.322 129.93H136.412L137.042 131.58L137.832 133.72C137.892 133.52 138.132 132.807 138.552 131.58L139.122 129.93H140.162L138.332 134.86C137.845 136.16 137.102 136.81 136.102 136.81C135.922 136.81 135.769 136.793 135.642 136.76V135.92C135.749 135.947 135.862 135.96 135.982 135.96C136.629 135.96 137.082 135.603 137.342 134.89ZM143.651 132.74H142.891C142.518 132.74 142.234 132.813 142.041 132.96C141.854 133.107 141.761 133.293 141.761 133.52C141.761 133.753 141.834 133.937 141.981 134.07C142.128 134.203 142.341 134.27 142.621 134.27C142.941 134.27 143.191 134.183 143.371 134.01C143.558 133.83 143.651 133.597 143.651 133.31V132.74ZM141.101 131.14V130.19C141.494 129.963 142.014 129.85 142.661 129.85C143.988 129.85 144.651 130.493 144.651 131.78V135H143.681V134.4C143.421 134.827 142.964 135.04 142.311 135.04C141.831 135.04 141.444 134.903 141.151 134.63C140.864 134.35 140.721 133.997 140.721 133.57C140.721 133.083 140.904 132.707 141.271 132.44C141.638 132.167 142.151 132.03 142.811 132.03H143.651V131.74C143.651 131.393 143.568 131.133 143.401 130.96C143.234 130.78 142.958 130.69 142.571 130.69C142.031 130.69 141.541 130.84 141.101 131.14ZM150.772 134.21C151.166 134.21 151.489 134.057 151.742 133.75C151.996 133.437 152.122 133 152.122 132.44C152.122 131.913 151.999 131.497 151.752 131.19C151.506 130.877 151.192 130.72 150.812 130.72C150.432 130.72 150.102 130.86 149.822 131.14C149.549 131.413 149.412 131.85 149.412 132.45C149.412 133.037 149.549 133.477 149.822 133.77C150.102 134.063 150.419 134.21 150.772 134.21ZM149.412 129.93V130.71C149.759 130.143 150.279 129.86 150.972 129.86C151.639 129.86 152.166 130.103 152.552 130.59C152.939 131.07 153.132 131.683 153.132 132.43C153.132 133.197 152.932 133.83 152.532 134.33C152.139 134.823 151.612 135.07 150.952 135.07C150.279 135.07 149.766 134.79 149.412 134.23V136.94H148.432V129.93H149.412ZM157.383 132.1V131.92C157.37 131.54 157.266 131.24 157.073 131.02C156.88 130.793 156.603 130.68 156.243 130.68C155.91 130.68 155.623 130.803 155.383 131.05C155.143 131.29 154.993 131.64 154.933 132.1H157.383ZM158.013 133.85V134.73C157.64 134.943 157.146 135.05 156.533 135.05C155.746 135.05 155.12 134.813 154.653 134.34C154.186 133.867 153.953 133.247 153.953 132.48C153.953 131.667 154.166 131.03 154.593 130.57C155.02 130.103 155.563 129.87 156.223 129.87C156.87 129.87 157.383 130.073 157.763 130.48C158.143 130.88 158.333 131.46 158.333 132.22C158.333 132.427 158.313 132.643 158.273 132.87H154.943C155.01 133.31 155.196 133.647 155.503 133.88C155.81 134.113 156.196 134.23 156.663 134.23C157.203 134.23 157.653 134.103 158.013 133.85ZM160.467 129.93V130.74C160.754 130.153 161.23 129.86 161.897 129.86C162.657 129.86 163.144 130.187 163.357 130.84C163.497 130.527 163.7 130.287 163.967 130.12C164.234 129.947 164.534 129.86 164.867 129.86C165.387 129.86 165.78 130.013 166.047 130.32C166.32 130.627 166.457 131.05 166.457 131.59V135H165.477V131.8C165.477 131.073 165.184 130.71 164.597 130.71C164.304 130.71 164.04 130.84 163.807 131.1C163.58 131.36 163.467 131.743 163.467 132.25V135H162.487V131.8C162.487 131.073 162.19 130.71 161.597 130.71C161.31 130.71 161.05 130.84 160.817 131.1C160.584 131.36 160.467 131.743 160.467 132.25V135H159.487V129.93H160.467ZM170.938 132.1V131.92C170.924 131.54 170.821 131.24 170.628 131.02C170.434 130.793 170.158 130.68 169.798 130.68C169.464 130.68 169.178 130.803 168.938 131.05C168.698 131.29 168.548 131.64 168.488 132.1H170.938ZM171.568 133.85V134.73C171.194 134.943 170.701 135.05 170.088 135.05C169.301 135.05 168.674 134.813 168.208 134.34C167.741 133.867 167.508 133.247 167.508 132.48C167.508 131.667 167.721 131.03 168.148 130.57C168.574 130.103 169.118 129.87 169.778 129.87C170.424 129.87 170.938 130.073 171.318 130.48C171.698 130.88 171.888 131.46 171.888 132.22C171.888 132.427 171.868 132.643 171.828 132.87H168.498C168.564 133.31 168.751 133.647 169.058 133.88C169.364 134.113 169.751 134.23 170.218 134.23C170.758 134.23 171.208 134.103 171.568 133.85ZM174.022 129.93V130.82C174.268 130.193 174.712 129.88 175.352 129.88C175.445 129.88 175.548 129.89 175.662 129.91V130.87C175.522 130.81 175.365 130.78 175.192 130.78C174.852 130.78 174.572 130.93 174.352 131.23C174.132 131.53 174.022 131.887 174.022 132.3V135H173.042V129.93H174.022ZM176.47 135V129.93H177.46V135H176.47ZM176.52 128.82C176.407 128.7 176.35 128.553 176.35 128.38C176.35 128.207 176.407 128.06 176.52 127.94C176.64 127.82 176.787 127.76 176.96 127.76C177.134 127.76 177.28 127.82 177.4 127.94C177.52 128.06 177.58 128.207 177.58 128.38C177.58 128.547 177.52 128.69 177.4 128.81C177.28 128.93 177.134 128.99 176.96 128.99C176.787 128.99 176.64 128.933 176.52 128.82ZM178.881 135V128H179.861V135H178.881ZM181.031 132.35L183.021 135H181.851L179.901 132.35L181.811 129.93H182.961L181.031 132.35ZM186.771 130.1V130.99C186.445 130.797 186.025 130.7 185.511 130.7C185.278 130.7 185.091 130.753 184.951 130.86C184.818 130.967 184.751 131.107 184.751 131.28C184.751 131.327 184.755 131.373 184.761 131.42C184.775 131.46 184.795 131.503 184.821 131.55C184.848 131.59 184.871 131.627 184.891 131.66C184.918 131.687 184.958 131.717 185.011 131.75C185.065 131.783 185.105 131.813 185.131 131.84C185.165 131.86 185.215 131.887 185.281 131.92C185.355 131.953 185.408 131.98 185.441 132C185.475 132.013 185.531 132.04 185.611 132.08C185.698 132.113 185.758 132.137 185.791 132.15C186.185 132.323 186.491 132.52 186.711 132.74C186.938 132.953 187.051 133.24 187.051 133.6C187.051 134.053 186.891 134.41 186.571 134.67C186.251 134.923 185.818 135.05 185.271 135.05C184.671 135.05 184.171 134.95 183.771 134.75V133.82C184.238 134.107 184.721 134.25 185.221 134.25C185.481 134.25 185.681 134.197 185.821 134.09C185.968 133.983 186.041 133.843 186.041 133.67C186.041 133.523 185.985 133.393 185.871 133.28C185.758 133.16 185.641 133.073 185.521 133.02C185.408 132.96 185.211 132.87 184.931 132.75C184.138 132.423 183.741 131.943 183.741 131.31C183.741 130.863 183.908 130.513 184.241 130.26C184.575 130.007 184.991 129.88 185.491 129.88C186.038 129.88 186.465 129.953 186.771 130.1ZM190.741 132.74H189.981C189.608 132.74 189.324 132.813 189.131 132.96C188.944 133.107 188.851 133.293 188.851 133.52C188.851 133.753 188.924 133.937 189.071 134.07C189.218 134.203 189.431 134.27 189.711 134.27C190.031 134.27 190.281 134.183 190.461 134.01C190.648 133.83 190.741 133.597 190.741 133.31V132.74ZM188.191 131.14V130.19C188.584 129.963 189.104 129.85 189.751 129.85C191.078 129.85 191.741 130.493 191.741 131.78V135H190.771V134.4C190.511 134.827 190.054 135.04 189.401 135.04C188.921 135.04 188.534 134.903 188.241 134.63C187.954 134.35 187.811 133.997 187.811 133.57C187.811 133.083 187.994 132.707 188.361 132.44C188.728 132.167 189.241 132.03 189.901 132.03H190.741V131.74C190.741 131.393 190.658 131.133 190.491 130.96C190.324 130.78 190.048 130.69 189.661 130.69C189.121 130.69 188.631 130.84 188.191 131.14ZM195.731 132.74H194.971C194.598 132.74 194.314 132.813 194.121 132.96C193.934 133.107 193.841 133.293 193.841 133.52C193.841 133.753 193.914 133.937 194.061 134.07C194.208 134.203 194.421 134.27 194.701 134.27C195.021 134.27 195.271 134.183 195.451 134.01C195.638 133.83 195.731 133.597 195.731 133.31V132.74ZM193.181 131.14V130.19C193.574 129.963 194.094 129.85 194.741 129.85C196.068 129.85 196.731 130.493 196.731 131.78V135H195.761V134.4C195.501 134.827 195.044 135.04 194.391 135.04C193.911 135.04 193.524 134.903 193.231 134.63C192.944 134.35 192.801 133.997 192.801 133.57C192.801 133.083 192.984 132.707 193.351 132.44C193.718 132.167 194.231 132.03 194.891 132.03H195.731V131.74C195.731 131.393 195.648 131.133 195.481 130.96C195.314 130.78 195.038 130.69 194.651 130.69C194.111 130.69 193.621 130.84 193.181 131.14ZM199.031 129.93V130.8C199.331 130.173 199.858 129.86 200.611 129.86C201.111 129.86 201.508 130.013 201.801 130.32C202.095 130.627 202.241 131.043 202.241 131.57V135H201.261V131.8C201.261 131.447 201.171 131.177 200.991 130.99C200.818 130.803 200.585 130.71 200.291 130.71C199.945 130.71 199.648 130.847 199.401 131.12C199.155 131.387 199.031 131.763 199.031 132.25V135H198.051V129.93H199.031ZM207.42 134.89L205.4 129.93H206.49L207.12 131.58L207.91 133.72C207.97 133.52 208.21 132.807 208.63 131.58L209.2 129.93H210.24L208.41 134.86C207.923 136.16 207.18 136.81 206.18 136.81C206 136.81 205.847 136.793 205.72 136.76V135.92C205.827 135.947 205.94 135.96 206.06 135.96C206.707 135.96 207.16 135.603 207.42 134.89ZM213.729 132.74H212.969C212.596 132.74 212.312 132.813 212.119 132.96C211.932 133.107 211.839 133.293 211.839 133.52C211.839 133.753 211.912 133.937 212.059 134.07C212.206 134.203 212.419 134.27 212.699 134.27C213.019 134.27 213.269 134.183 213.449 134.01C213.636 133.83 213.729 133.597 213.729 133.31V132.74ZM211.179 131.14V130.19C211.572 129.963 212.092 129.85 212.739 129.85C214.066 129.85 214.729 130.493 214.729 131.78V135H213.759V134.4C213.499 134.827 213.042 135.04 212.389 135.04C211.909 135.04 211.522 134.903 211.229 134.63C210.942 134.35 210.799 133.997 210.799 133.57C210.799 133.083 210.982 132.707 211.349 132.44C211.716 132.167 212.229 132.03 212.889 132.03H213.729V131.74C213.729 131.393 213.646 131.133 213.479 130.96C213.312 130.78 213.036 130.69 212.649 130.69C212.109 130.69 211.619 130.84 211.179 131.14ZM217.029 129.93V130.8C217.329 130.173 217.856 129.86 218.609 129.86C219.109 129.86 219.506 130.013 219.799 130.32C220.093 130.627 220.239 131.043 220.239 131.57V135H219.259V131.8C219.259 131.447 219.169 131.177 218.989 130.99C218.816 130.803 218.583 130.71 218.289 130.71C217.943 130.71 217.646 130.847 217.399 131.12C217.153 131.387 217.029 131.763 217.029 132.25V135H216.049V129.93H217.029ZM223.557 134.02C223.904 134.02 224.204 133.887 224.457 133.62C224.717 133.347 224.847 132.967 224.847 132.48C224.847 131.88 224.724 131.437 224.477 131.15C224.237 130.863 223.944 130.72 223.597 130.72C223.204 130.72 222.894 130.877 222.667 131.19C222.441 131.497 222.327 131.903 222.327 132.41C222.327 132.937 222.447 133.337 222.687 133.61C222.934 133.883 223.224 134.02 223.557 134.02ZM224.847 129.93H225.827V134.57C225.827 135.35 225.604 135.937 225.157 136.33C224.717 136.73 224.151 136.93 223.457 136.93C222.804 136.93 222.254 136.82 221.807 136.6V135.61C222.234 135.89 222.751 136.03 223.357 136.03C224.351 136.03 224.847 135.54 224.847 134.56V134.04C224.521 134.587 224.031 134.86 223.377 134.86C222.804 134.86 222.314 134.65 221.907 134.23C221.501 133.803 221.297 133.203 221.297 132.43C221.297 131.683 221.487 131.07 221.867 130.59C222.247 130.103 222.751 129.86 223.377 129.86C224.051 129.86 224.541 130.147 224.847 130.72V129.93ZM230.584 127.93V130.8C230.871 130.173 231.394 129.86 232.154 129.86C232.647 129.86 233.044 130.013 233.344 130.32C233.644 130.627 233.794 131.053 233.794 131.6V135H232.814V131.8C232.814 131.453 232.724 131.187 232.544 131C232.371 130.807 232.141 130.71 231.854 130.71C231.521 130.71 231.224 130.837 230.964 131.09C230.711 131.343 230.584 131.73 230.584 132.25V135H229.604V127.93H230.584ZM237.782 132.74H237.022C236.649 132.74 236.365 132.813 236.172 132.96C235.985 133.107 235.892 133.293 235.892 133.52C235.892 133.753 235.965 133.937 236.112 134.07C236.259 134.203 236.472 134.27 236.752 134.27C237.072 134.27 237.322 134.183 237.502 134.01C237.689 133.83 237.782 133.597 237.782 133.31V132.74ZM235.232 131.14V130.19C235.625 129.963 236.145 129.85 236.792 129.85C238.119 129.85 238.782 130.493 238.782 131.78V135H237.812V134.4C237.552 134.827 237.095 135.04 236.442 135.04C235.962 135.04 235.575 134.903 235.282 134.63C234.995 134.35 234.852 133.997 234.852 133.57C234.852 133.083 235.035 132.707 235.402 132.44C235.769 132.167 236.282 132.03 236.942 132.03H237.782V131.74C237.782 131.393 237.699 131.133 237.532 130.96C237.365 130.78 237.089 130.69 236.702 130.69C236.162 130.69 235.672 130.84 235.232 131.14ZM241.082 129.93V130.82C241.329 130.193 241.772 129.88 242.412 129.88C242.505 129.88 242.609 129.89 242.722 129.91V130.87C242.582 130.81 242.425 130.78 242.252 130.78C241.912 130.78 241.632 130.93 241.412 131.23C241.192 131.53 241.082 131.887 241.082 132.3V135H240.102V129.93H241.082ZM246.641 129.93H247.621V135H246.641V134.13C246.374 134.75 245.847 135.06 245.061 135.06C244.561 135.06 244.164 134.913 243.871 134.62C243.577 134.32 243.431 133.91 243.431 133.39V129.93H244.421V133.15C244.421 133.497 244.504 133.763 244.671 133.95C244.844 134.13 245.081 134.22 245.381 134.22C245.761 134.22 246.064 134.087 246.291 133.82C246.524 133.553 246.641 133.177 246.641 132.69V129.93ZM251.889 130.1V130.99C251.562 130.797 251.142 130.7 250.629 130.7C250.395 130.7 250.209 130.753 250.069 130.86C249.935 130.967 249.869 131.107 249.869 131.28C249.869 131.327 249.872 131.373 249.879 131.42C249.892 131.46 249.912 131.503 249.939 131.55C249.965 131.59 249.989 131.627 250.009 131.66C250.035 131.687 250.075 131.717 250.129 131.75C250.182 131.783 250.222 131.813 250.249 131.84C250.282 131.86 250.332 131.887 250.399 131.92C250.472 131.953 250.525 131.98 250.559 132C250.592 132.013 250.649 132.04 250.729 132.08C250.815 132.113 250.875 132.137 250.909 132.15C251.302 132.323 251.609 132.52 251.829 132.74C252.055 132.953 252.169 133.24 252.169 133.6C252.169 134.053 252.009 134.41 251.689 134.67C251.369 134.923 250.935 135.05 250.389 135.05C249.789 135.05 249.289 134.95 248.889 134.75V133.82C249.355 134.107 249.839 134.25 250.339 134.25C250.599 134.25 250.799 134.197 250.939 134.09C251.085 133.983 251.159 133.843 251.159 133.67C251.159 133.523 251.102 133.393 250.989 133.28C250.875 133.16 250.759 133.073 250.639 133.02C250.525 132.96 250.329 132.87 250.049 132.75C249.255 132.423 248.859 131.943 248.859 131.31C248.859 130.863 249.025 130.513 249.359 130.26C249.692 130.007 250.109 129.88 250.609 129.88C251.155 129.88 251.582 129.953 251.889 130.1ZM124.74 150.21C125.127 150.21 125.453 150.063 125.72 149.77C125.987 149.477 126.12 149.03 126.12 148.43C126.12 147.85 125.98 147.42 125.7 147.14C125.427 146.86 125.117 146.72 124.77 146.72C124.377 146.72 124.053 146.877 123.8 147.19C123.547 147.497 123.42 147.937 123.42 148.51C123.42 149.017 123.543 149.427 123.79 149.74C124.043 150.053 124.36 150.21 124.74 150.21ZM126.12 143.93H127.11V151H126.12V150.23C125.767 150.79 125.25 151.07 124.57 151.07C123.903 151.07 123.377 150.82 122.99 150.32C122.603 149.813 122.41 149.203 122.41 148.49C122.41 147.697 122.613 147.06 123.02 146.58C123.427 146.1 123.95 145.86 124.59 145.86C125.25 145.86 125.76 146.14 126.12 146.7V143.93ZM128.531 151V145.93H129.521V151H128.531ZM128.581 144.82C128.467 144.7 128.411 144.553 128.411 144.38C128.411 144.207 128.467 144.06 128.581 143.94C128.701 143.82 128.847 143.76 129.021 143.76C129.194 143.76 129.341 143.82 129.461 143.94C129.581 144.06 129.641 144.207 129.641 144.38C129.641 144.547 129.581 144.69 129.461 144.81C129.341 144.93 129.194 144.99 129.021 144.99C128.847 144.99 128.701 144.933 128.581 144.82ZM133.332 150.21C133.705 150.21 134.019 150.053 134.272 149.74C134.525 149.42 134.652 149.01 134.652 148.51C134.652 147.937 134.525 147.497 134.272 147.19C134.019 146.877 133.695 146.72 133.302 146.72C132.955 146.72 132.642 146.86 132.362 147.14C132.089 147.42 131.952 147.85 131.952 148.43C131.952 149.03 132.085 149.477 132.352 149.77C132.619 150.063 132.945 150.21 133.332 150.21ZM131.952 143.93V146.7C132.312 146.14 132.822 145.86 133.482 145.86C134.122 145.86 134.645 146.1 135.052 146.58C135.459 147.06 135.662 147.697 135.662 148.49C135.662 149.203 135.469 149.813 135.082 150.32C134.695 150.82 134.165 151.07 133.492 151.07C132.819 151.07 132.305 150.79 131.952 150.23V151H130.962V143.93H131.952ZM139.432 148.74H138.672C138.299 148.74 138.016 148.813 137.822 148.96C137.636 149.107 137.542 149.293 137.542 149.52C137.542 149.753 137.616 149.937 137.762 150.07C137.909 150.203 138.122 150.27 138.402 150.27C138.722 150.27 138.972 150.183 139.152 150.01C139.339 149.83 139.432 149.597 139.432 149.31V148.74ZM136.882 147.14V146.19C137.276 145.963 137.796 145.85 138.442 145.85C139.769 145.85 140.432 146.493 140.432 147.78V151H139.462V150.4C139.202 150.827 138.746 151.04 138.092 151.04C137.612 151.04 137.226 150.903 136.932 150.63C136.646 150.35 136.502 149.997 136.502 149.57C136.502 149.083 136.686 148.707 137.052 148.44C137.419 148.167 137.932 148.03 138.592 148.03H139.432V147.74C139.432 147.393 139.349 147.133 139.182 146.96C139.016 146.78 138.739 146.69 138.352 146.69C137.812 146.69 137.322 146.84 136.882 147.14ZM143.153 150.89L141.133 145.93H142.223L142.853 147.58L143.643 149.72C143.703 149.52 143.943 148.807 144.363 147.58L144.933 145.93H145.973L144.143 150.86C143.656 152.16 142.913 152.81 141.913 152.81C141.733 152.81 141.579 152.793 141.453 152.76V151.92C141.559 151.947 141.673 151.96 141.793 151.96C142.439 151.96 142.893 151.603 143.153 150.89ZM149.462 148.74H148.702C148.328 148.74 148.045 148.813 147.852 148.96C147.665 149.107 147.572 149.293 147.572 149.52C147.572 149.753 147.645 149.937 147.792 150.07C147.938 150.203 148.152 150.27 148.432 150.27C148.752 150.27 149.002 150.183 149.182 150.01C149.368 149.83 149.462 149.597 149.462 149.31V148.74ZM146.912 147.14V146.19C147.305 145.963 147.825 145.85 148.472 145.85C149.798 145.85 150.462 146.493 150.462 147.78V151H149.492V150.4C149.232 150.827 148.775 151.04 148.122 151.04C147.642 151.04 147.255 150.903 146.962 150.63C146.675 150.35 146.532 149.997 146.532 149.57C146.532 149.083 146.715 148.707 147.082 148.44C147.448 148.167 147.962 148.03 148.622 148.03H149.462V147.74C149.462 147.393 149.378 147.133 149.212 146.96C149.045 146.78 148.768 146.69 148.382 146.69C147.842 146.69 147.352 146.84 146.912 147.14ZM152.762 145.93V146.82C153.008 146.193 153.452 145.88 154.092 145.88C154.185 145.88 154.288 145.89 154.402 145.91V146.87C154.262 146.81 154.105 146.78 153.932 146.78C153.592 146.78 153.312 146.93 153.092 147.23C152.872 147.53 152.762 147.887 152.762 148.3V151H151.782V145.93H152.762ZM155.17 151V144H156.15V151H155.17ZM157.32 148.35L159.31 151H158.14L156.19 148.35L158.1 145.93H159.25L157.32 148.35ZM162.84 148.74H162.08C161.707 148.74 161.424 148.813 161.23 148.96C161.044 149.107 160.95 149.293 160.95 149.52C160.95 149.753 161.024 149.937 161.17 150.07C161.317 150.203 161.53 150.27 161.81 150.27C162.13 150.27 162.38 150.183 162.56 150.01C162.747 149.83 162.84 149.597 162.84 149.31V148.74ZM160.29 147.14V146.19C160.684 145.963 161.204 145.85 161.85 145.85C163.177 145.85 163.84 146.493 163.84 147.78V151H162.87V150.4C162.61 150.827 162.154 151.04 161.5 151.04C161.02 151.04 160.634 150.903 160.34 150.63C160.054 150.35 159.91 149.997 159.91 149.57C159.91 149.083 160.094 148.707 160.46 148.44C160.827 148.167 161.34 148.03 162 148.03H162.84V147.74C162.84 147.393 162.757 147.133 162.59 146.96C162.424 146.78 162.147 146.69 161.76 146.69C161.22 146.69 160.73 146.84 160.29 147.14ZM166.141 145.93V146.8C166.441 146.173 166.967 145.86 167.721 145.86C168.221 145.86 168.617 146.013 168.911 146.32C169.204 146.627 169.351 147.043 169.351 147.57V151H168.371V147.8C168.371 147.447 168.281 147.177 168.101 146.99C167.927 146.803 167.694 146.71 167.401 146.71C167.054 146.71 166.757 146.847 166.511 147.12C166.264 147.387 166.141 147.763 166.141 148.25V151H165.161V145.93H166.141ZM176.019 146.1V146.99C175.693 146.797 175.273 146.7 174.759 146.7C174.526 146.7 174.339 146.753 174.199 146.86C174.066 146.967 173.999 147.107 173.999 147.28C173.999 147.327 174.003 147.373 174.009 147.42C174.023 147.46 174.043 147.503 174.069 147.55C174.096 147.59 174.119 147.627 174.139 147.66C174.166 147.687 174.206 147.717 174.259 147.75C174.313 147.783 174.353 147.813 174.379 147.84C174.413 147.86 174.463 147.887 174.529 147.92C174.603 147.953 174.656 147.98 174.689 148C174.723 148.013 174.779 148.04 174.859 148.08C174.946 148.113 175.006 148.137 175.039 148.15C175.433 148.323 175.739 148.52 175.959 148.74C176.186 148.953 176.299 149.24 176.299 149.6C176.299 150.053 176.139 150.41 175.819 150.67C175.499 150.923 175.066 151.05 174.519 151.05C173.919 151.05 173.419 150.95 173.019 150.75V149.82C173.486 150.107 173.969 150.25 174.469 150.25C174.729 150.25 174.929 150.197 175.069 150.09C175.216 149.983 175.289 149.843 175.289 149.67C175.289 149.523 175.233 149.393 175.119 149.28C175.006 149.16 174.889 149.073 174.769 149.02C174.656 148.96 174.459 148.87 174.179 148.75C173.386 148.423 172.989 147.943 172.989 147.31C172.989 146.863 173.156 146.513 173.489 146.26C173.823 146.007 174.239 145.88 174.739 145.88C175.286 145.88 175.713 145.953 176.019 146.1ZM180.469 148.1V147.92C180.456 147.54 180.352 147.24 180.159 147.02C179.966 146.793 179.689 146.68 179.329 146.68C178.996 146.68 178.709 146.803 178.469 147.05C178.229 147.29 178.079 147.64 178.019 148.1H180.469ZM181.099 149.85V150.73C180.726 150.943 180.232 151.05 179.619 151.05C178.832 151.05 178.206 150.813 177.739 150.34C177.272 149.867 177.039 149.247 177.039 148.48C177.039 147.667 177.252 147.03 177.679 146.57C178.106 146.103 178.649 145.87 179.309 145.87C179.956 145.87 180.469 146.073 180.849 146.48C181.229 146.88 181.419 147.46 181.419 148.22C181.419 148.427 181.399 148.643 181.359 148.87H178.029C178.096 149.31 178.282 149.647 178.589 149.88C178.896 150.113 179.282 150.23 179.749 150.23C180.289 150.23 180.739 150.103 181.099 149.85ZM184.963 150.21C185.336 150.21 185.649 150.053 185.903 149.74C186.156 149.42 186.283 149.01 186.283 148.51C186.283 147.937 186.156 147.497 185.903 147.19C185.649 146.877 185.326 146.72 184.933 146.72C184.586 146.72 184.273 146.86 183.993 147.14C183.719 147.42 183.583 147.85 183.583 148.43C183.583 149.03 183.716 149.477 183.983 149.77C184.249 150.063 184.576 150.21 184.963 150.21ZM183.583 143.93V146.7C183.943 146.14 184.453 145.86 185.113 145.86C185.753 145.86 186.276 146.1 186.683 146.58C187.089 147.06 187.293 147.697 187.293 148.49C187.293 149.203 187.099 149.813 186.713 150.32C186.326 150.82 185.796 151.07 185.123 151.07C184.449 151.07 183.936 150.79 183.583 150.23V151H182.593V143.93H183.583ZM191.543 148.1V147.92C191.53 147.54 191.426 147.24 191.233 147.02C191.04 146.793 190.763 146.68 190.403 146.68C190.07 146.68 189.783 146.803 189.543 147.05C189.303 147.29 189.153 147.64 189.093 148.1H191.543ZM192.173 149.85V150.73C191.8 150.943 191.306 151.05 190.693 151.05C189.906 151.05 189.28 150.813 188.813 150.34C188.346 149.867 188.113 149.247 188.113 148.48C188.113 147.667 188.326 147.03 188.753 146.57C189.18 146.103 189.723 145.87 190.383 145.87C191.03 145.87 191.543 146.073 191.923 146.48C192.303 146.88 192.493 147.46 192.493 148.22C192.493 148.427 192.473 148.643 192.433 148.87H189.103C189.17 149.31 189.356 149.647 189.663 149.88C189.97 150.113 190.356 150.23 190.823 150.23C191.363 150.23 191.813 150.103 192.173 149.85ZM196.537 146.1V146.99C196.21 146.797 195.79 146.7 195.277 146.7C195.044 146.7 194.857 146.753 194.717 146.86C194.584 146.967 194.517 147.107 194.517 147.28C194.517 147.327 194.52 147.373 194.527 147.42C194.54 147.46 194.56 147.503 194.587 147.55C194.614 147.59 194.637 147.627 194.657 147.66C194.684 147.687 194.724 147.717 194.777 147.75C194.83 147.783 194.87 147.813 194.897 147.84C194.93 147.86 194.98 147.887 195.047 147.92C195.12 147.953 195.174 147.98 195.207 148C195.24 148.013 195.297 148.04 195.377 148.08C195.464 148.113 195.524 148.137 195.557 148.15C195.95 148.323 196.257 148.52 196.477 148.74C196.704 148.953 196.817 149.24 196.817 149.6C196.817 150.053 196.657 150.41 196.337 150.67C196.017 150.923 195.584 151.05 195.037 151.05C194.437 151.05 193.937 150.95 193.537 150.75V149.82C194.004 150.107 194.487 150.25 194.987 150.25C195.247 150.25 195.447 150.197 195.587 150.09C195.734 149.983 195.807 149.843 195.807 149.67C195.807 149.523 195.75 149.393 195.637 149.28C195.524 149.16 195.407 149.073 195.287 149.02C195.174 148.96 194.977 148.87 194.697 148.75C193.904 148.423 193.507 147.943 193.507 147.31C193.507 146.863 193.674 146.513 194.007 146.26C194.34 146.007 194.757 145.88 195.257 145.88C195.804 145.88 196.23 145.953 196.537 146.1ZM200.506 148.74H199.746C199.373 148.74 199.09 148.813 198.896 148.96C198.71 149.107 198.616 149.293 198.616 149.52C198.616 149.753 198.69 149.937 198.836 150.07C198.983 150.203 199.196 150.27 199.476 150.27C199.796 150.27 200.046 150.183 200.226 150.01C200.413 149.83 200.506 149.597 200.506 149.31V148.74ZM197.956 147.14V146.19C198.35 145.963 198.87 145.85 199.516 145.85C200.843 145.85 201.506 146.493 201.506 147.78V151H200.536V150.4C200.276 150.827 199.82 151.04 199.166 151.04C198.686 151.04 198.3 150.903 198.006 150.63C197.72 150.35 197.576 149.997 197.576 149.57C197.576 149.083 197.76 148.707 198.126 148.44C198.493 148.167 199.006 148.03 199.666 148.03H200.506V147.74C200.506 147.393 200.423 147.133 200.256 146.96C200.09 146.78 199.813 146.69 199.426 146.69C198.886 146.69 198.396 146.84 197.956 147.14ZM203.807 145.93V146.82C204.053 146.193 204.497 145.88 205.137 145.88C205.23 145.88 205.333 145.89 205.447 145.91V146.87C205.307 146.81 205.15 146.78 204.977 146.78C204.637 146.78 204.357 146.93 204.137 147.23C203.917 147.53 203.807 147.887 203.807 148.3V151H202.827V145.93H203.807Z" fill="#2B2B2B"/>
<path d="M209.946 145.3V147.5H210.786C211.173 147.5 211.463 147.403 211.656 147.21C211.85 147.01 211.946 146.733 211.946 146.38C211.946 146.033 211.843 145.767 211.636 145.58C211.436 145.393 211.146 145.3 210.766 145.3H209.946ZM212.166 151L210.636 148.54H209.946V151H208.686V144.26H210.766C211.533 144.26 212.133 144.453 212.566 144.84C213.006 145.227 213.226 145.743 213.226 146.39C213.22 146.87 213.103 147.277 212.876 147.61C212.65 147.937 212.34 148.18 211.946 148.34L213.676 151H212.166ZM216.985 150.04C217.345 150.04 217.638 149.903 217.865 149.63C218.092 149.35 218.205 148.96 218.205 148.46C218.205 147.96 218.092 147.573 217.865 147.3C217.638 147.02 217.352 146.88 217.005 146.88C216.658 146.88 216.358 147.01 216.105 147.27C215.852 147.53 215.725 147.917 215.725 148.43C215.725 148.943 215.848 149.34 216.095 149.62C216.342 149.9 216.638 150.04 216.985 150.04ZM215.725 145.93V146.71C216.085 146.143 216.602 145.86 217.275 145.86C217.935 145.86 218.458 146.097 218.845 146.57C219.238 147.043 219.435 147.667 219.435 148.44C219.435 149.2 219.238 149.83 218.845 150.33C218.458 150.823 217.932 151.07 217.265 151.07C216.585 151.07 216.072 150.793 215.725 150.24V152.91H214.525V145.93H215.725ZM222.863 145.88V144.75C223.316 144.503 223.793 144.38 224.293 144.38C224.98 144.38 225.516 144.547 225.903 144.88C226.296 145.213 226.493 145.64 226.493 146.16C226.493 146.913 226.15 147.427 225.463 147.7C225.836 147.793 226.126 147.97 226.333 148.23C226.54 148.483 226.643 148.807 226.643 149.2C226.643 149.747 226.44 150.193 226.033 150.54C225.633 150.88 225.07 151.05 224.343 151.05C223.67 151.05 223.096 150.94 222.623 150.72V149.55C223.143 149.83 223.69 149.97 224.263 149.97C224.623 149.97 224.903 149.887 225.103 149.72C225.31 149.547 225.413 149.327 225.413 149.06C225.413 148.48 224.943 148.19 224.003 148.19H223.623V147.18H224.003C224.356 147.18 224.653 147.103 224.893 146.95C225.133 146.797 225.253 146.58 225.253 146.3C225.253 145.74 224.91 145.46 224.223 145.46C223.77 145.46 223.316 145.6 222.863 145.88ZM226.979 152.26L227.959 149.79H229.349L228.019 152.26H226.979ZM230.105 147.7C230.105 146.667 230.308 145.85 230.715 145.25C231.121 144.643 231.698 144.34 232.445 144.34C233.198 144.34 233.778 144.643 234.185 145.25C234.598 145.85 234.805 146.667 234.805 147.7C234.805 148.727 234.601 149.547 234.195 150.16C233.795 150.773 233.211 151.08 232.445 151.08C231.698 151.08 231.121 150.773 230.715 150.16C230.308 149.547 230.105 148.727 230.105 147.7ZM231.635 146.02C231.435 146.407 231.335 146.967 231.335 147.7C231.335 148.433 231.431 149 231.625 149.4C231.825 149.793 232.098 149.99 232.445 149.99C232.805 149.99 233.081 149.793 233.275 149.4C233.475 149.007 233.575 148.44 233.575 147.7C233.575 146.96 233.471 146.397 233.265 146.01C233.065 145.623 232.791 145.43 232.445 145.43C232.105 145.43 231.835 145.627 231.635 146.02ZM235.564 147.7C235.564 146.667 235.767 145.85 236.174 145.25C236.58 144.643 237.157 144.34 237.904 144.34C238.657 144.34 239.237 144.643 239.644 145.25C240.057 145.85 240.264 146.667 240.264 147.7C240.264 148.727 240.06 149.547 239.654 150.16C239.254 150.773 238.67 151.08 237.904 151.08C237.157 151.08 236.58 150.773 236.174 150.16C235.767 149.547 235.564 148.727 235.564 147.7ZM237.094 146.02C236.894 146.407 236.794 146.967 236.794 147.7C236.794 148.433 236.89 149 237.084 149.4C237.284 149.793 237.557 149.99 237.904 149.99C238.264 149.99 238.54 149.793 238.734 149.4C238.934 149.007 239.034 148.44 239.034 147.7C239.034 146.96 238.93 146.397 238.724 146.01C238.524 145.623 238.25 145.43 237.904 145.43C237.564 145.43 237.294 145.627 237.094 146.02ZM241.023 147.7C241.023 146.667 241.226 145.85 241.633 145.25C242.039 144.643 242.616 144.34 243.363 144.34C244.116 144.34 244.696 144.643 245.103 145.25C245.516 145.85 245.723 146.667 245.723 147.7C245.723 148.727 245.519 149.547 245.113 150.16C244.713 150.773 244.129 151.08 243.363 151.08C242.616 151.08 242.039 150.773 241.633 150.16C241.226 149.547 241.023 148.727 241.023 147.7ZM242.553 146.02C242.353 146.407 242.253 146.967 242.253 147.7C242.253 148.433 242.349 149 242.543 149.4C242.743 149.793 243.016 149.99 243.363 149.99C243.723 149.99 243.999 149.793 244.193 149.4C244.393 149.007 244.493 148.44 244.493 147.7C244.493 146.96 244.389 146.397 244.183 146.01C243.983 145.623 243.709 145.43 243.363 145.43C243.023 145.43 242.753 145.627 242.553 146.02ZM246.032 152.26L247.012 149.79H248.402L247.072 152.26H246.032ZM249.157 147.7C249.157 146.667 249.361 145.85 249.767 145.25C250.174 144.643 250.751 144.34 251.497 144.34C252.251 144.34 252.831 144.643 253.237 145.25C253.651 145.85 253.857 146.667 253.857 147.7C253.857 148.727 253.654 149.547 253.247 150.16C252.847 150.773 252.264 151.08 251.497 151.08C250.751 151.08 250.174 150.773 249.767 150.16C249.361 149.547 249.157 148.727 249.157 147.7ZM250.687 146.02C250.487 146.407 250.387 146.967 250.387 147.7C250.387 148.433 250.484 149 250.677 149.4C250.877 149.793 251.151 149.99 251.497 149.99C251.857 149.99 252.134 149.793 252.327 149.4C252.527 149.007 252.627 148.44 252.627 147.7C252.627 146.96 252.524 146.397 252.317 146.01C252.117 145.623 251.844 145.43 251.497 145.43C251.157 145.43 250.887 145.627 250.687 146.02ZM254.616 147.7C254.616 146.667 254.82 145.85 255.226 145.25C255.633 144.643 256.21 144.34 256.956 144.34C257.71 144.34 258.29 144.643 258.696 145.25C259.11 145.85 259.316 146.667 259.316 147.7C259.316 148.727 259.113 149.547 258.706 150.16C258.306 150.773 257.723 151.08 256.956 151.08C256.21 151.08 255.633 150.773 255.226 150.16C254.82 149.547 254.616 148.727 254.616 147.7ZM256.146 146.02C255.946 146.407 255.846 146.967 255.846 147.7C255.846 148.433 255.943 149 256.136 149.4C256.336 149.793 256.61 149.99 256.956 149.99C257.316 149.99 257.593 149.793 257.786 149.4C257.986 149.007 258.086 148.44 258.086 147.7C258.086 146.96 257.983 146.397 257.776 146.01C257.576 145.623 257.303 145.43 256.956 145.43C256.616 145.43 256.346 145.627 256.146 146.02ZM260.075 147.7C260.075 146.667 260.279 145.85 260.685 145.25C261.092 144.643 261.669 144.34 262.415 144.34C263.169 144.34 263.749 144.643 264.155 145.25C264.569 145.85 264.775 146.667 264.775 147.7C264.775 148.727 264.572 149.547 264.165 150.16C263.765 150.773 263.182 151.08 262.415 151.08C261.669 151.08 261.092 150.773 260.685 150.16C260.279 149.547 260.075 148.727 260.075 147.7ZM261.605 146.02C261.405 146.407 261.305 146.967 261.305 147.7C261.305 148.433 261.402 149 261.595 149.4C261.795 149.793 262.069 149.99 262.415 149.99C262.775 149.99 263.052 149.793 263.245 149.4C263.445 149.007 263.545 148.44 263.545 147.7C263.545 146.96 263.442 146.397 263.235 146.01C263.035 145.623 262.762 145.43 262.415 145.43C262.075 145.43 261.805 145.627 261.605 146.02Z" fill="#FF1934"/>
<path opacity="0.64" d="M60.904 213.468V210.108H61.552V213.452C61.552 214.145 61.376 214.671 61.024 215.028C60.6773 215.385 60.192 215.564 59.568 215.564C58.9547 215.564 58.4747 215.391 58.128 215.044C57.7813 214.692 57.608 214.183 57.608 213.516V210.108H58.256V213.508C58.256 214.004 58.3733 214.369 58.608 214.604C58.848 214.839 59.168 214.956 59.568 214.956C60.4587 214.956 60.904 214.46 60.904 213.468ZM64.9243 213.628H64.2203C63.8789 213.628 63.6229 213.695 63.4523 213.828C63.2816 213.961 63.1963 214.129 63.1963 214.332C63.1963 214.535 63.2629 214.7 63.3963 214.828C63.5296 214.951 63.7243 215.012 63.9803 215.012C64.2683 215.012 64.4976 214.932 64.6683 214.772C64.8389 214.607 64.9243 214.399 64.9243 214.148V213.628ZM62.8283 212.292V211.66C63.1323 211.473 63.5323 211.38 64.0283 211.38C65.0469 211.38 65.5563 211.897 65.5563 212.932V215.5H64.9323V215.02C64.7243 215.367 64.3456 215.54 63.7963 215.54C63.4176 215.54 63.1109 215.428 62.8763 215.204C62.6469 214.98 62.5323 214.697 62.5323 214.356C62.5323 213.967 62.6789 213.665 62.9723 213.452C63.2709 213.233 63.6763 213.124 64.1883 213.124H64.9243V212.916C64.9243 212.596 64.8523 212.356 64.7083 212.196C64.5643 212.031 64.3216 211.948 63.9803 211.948C63.5483 211.948 63.1643 212.063 62.8283 212.292ZM67.3018 211.444V212.148C67.5418 211.641 67.9684 211.388 68.5818 211.388C68.9764 211.388 69.2911 211.508 69.5258 211.748C69.7604 211.988 69.8778 212.308 69.8778 212.708V215.5H69.2458V212.876C69.2458 212.577 69.1684 212.351 69.0138 212.196C68.8644 212.036 68.6671 211.956 68.4218 211.956C68.1178 211.956 67.8538 212.073 67.6298 212.308C67.4111 212.543 67.3018 212.868 67.3018 213.284V215.5H66.6778V211.444H67.3018ZM72.5181 214.836C72.8114 214.836 73.0701 214.724 73.2941 214.5C73.5234 214.271 73.6381 213.932 73.6381 213.484C73.6381 212.967 73.5287 212.583 73.3101 212.332C73.0914 212.081 72.8381 211.956 72.5501 211.956C72.2034 211.956 71.9287 212.095 71.7261 212.372C71.5234 212.644 71.4221 213.001 71.4221 213.444C71.4221 213.897 71.5341 214.244 71.7581 214.484C71.9821 214.719 72.2354 214.836 72.5181 214.836ZM73.6381 211.444H74.2701V215.172C74.2701 215.791 74.0994 216.255 73.7581 216.564C73.4167 216.879 72.9767 217.036 72.4381 217.036C71.9474 217.036 71.5287 216.953 71.1821 216.788V216.156C71.5234 216.353 71.9234 216.452 72.3821 216.452C72.7714 216.452 73.0781 216.348 73.3021 216.14C73.5261 215.932 73.6381 215.607 73.6381 215.164V214.708C73.3714 215.167 72.9741 215.396 72.4461 215.396C71.9821 215.396 71.5847 215.225 71.2541 214.884C70.9287 214.543 70.7661 214.068 70.7661 213.46C70.7661 212.857 70.9181 212.361 71.2221 211.972C71.5261 211.583 71.9234 211.388 72.4141 211.388C72.9687 211.388 73.3767 211.631 73.6381 212.116V211.444ZM80.4618 210.108V210.676H79.0058V215.5H78.3578V210.676H76.9018V210.108H80.4618ZM83.7212 211.444H84.3532V215.5H83.7212V214.796C83.5079 215.297 83.0839 215.548 82.4492 215.548C82.0492 215.548 81.7319 215.431 81.4972 215.196C81.2679 214.956 81.1532 214.636 81.1532 214.236V211.444H81.7852V214.076C81.7852 214.369 81.8599 214.593 82.0092 214.748C82.1585 214.903 82.3612 214.98 82.6172 214.98C82.9532 214.98 83.2199 214.863 83.4172 214.628C83.6199 214.393 83.7212 214.076 83.7212 213.676V211.444ZM86.1455 211.444V212.148C86.3855 211.641 86.8122 211.388 87.4255 211.388C87.8202 211.388 88.1348 211.508 88.3695 211.748C88.6042 211.988 88.7215 212.308 88.7215 212.708V215.5H88.0895V212.876C88.0895 212.577 88.0122 212.351 87.8575 212.196C87.7082 212.036 87.5108 211.956 87.2655 211.956C86.9615 211.956 86.6975 212.073 86.4735 212.308C86.2548 212.543 86.1455 212.868 86.1455 213.284V215.5H85.5215V211.444H86.1455ZM92.0258 213.628H91.3218C90.9805 213.628 90.7245 213.695 90.5538 213.828C90.3831 213.961 90.2978 214.129 90.2978 214.332C90.2978 214.535 90.3645 214.7 90.4978 214.828C90.6311 214.951 90.8258 215.012 91.0818 215.012C91.3698 215.012 91.5991 214.932 91.7698 214.772C91.9405 214.607 92.0258 214.399 92.0258 214.148V213.628ZM89.9298 212.292V211.66C90.2338 211.473 90.6338 211.38 91.1298 211.38C92.1485 211.38 92.6578 211.897 92.6578 212.932V215.5H92.0338V215.02C91.8258 215.367 91.4471 215.54 90.8978 215.54C90.5191 215.54 90.2125 215.428 89.9778 215.204C89.7485 214.98 89.6338 214.697 89.6338 214.356C89.6338 213.967 89.7805 213.665 90.0738 213.452C90.3725 213.233 90.7778 213.124 91.2898 213.124H92.0258V212.916C92.0258 212.596 91.9538 212.356 91.8098 212.196C91.6658 212.031 91.4231 211.948 91.0818 211.948C90.6498 211.948 90.2658 212.063 89.9298 212.292ZM93.8113 215.5V211.444H94.4433V215.5H93.8113ZM93.8273 210.468C93.7526 210.388 93.7153 210.289 93.7153 210.172C93.7153 210.055 93.7526 209.956 93.8273 209.876C93.9073 209.796 94.006 209.756 94.1233 209.756C94.2406 209.756 94.3393 209.796 94.4193 209.876C94.4993 209.956 94.5393 210.055 94.5393 210.172C94.5393 210.289 94.4993 210.388 94.4193 210.468C94.3393 210.543 94.2406 210.58 94.1233 210.58C94.006 210.58 93.9073 210.543 93.8273 210.468Z" fill="#2B2B2B"/>
<path d="M245.248 210.668V212.82H246.064C246.432 212.82 246.712 212.721 246.904 212.524C247.102 212.321 247.2 212.063 247.2 211.748C247.2 211.028 246.798 210.668 245.992 210.668H245.248ZM248.184 215.5H247.408L246.088 213.372H246.024H245.248V215.5H244.6V210.108H245.952C246.576 210.108 247.048 210.255 247.368 210.548C247.694 210.841 247.856 211.247 247.856 211.764C247.846 212.137 247.747 212.455 247.56 212.716C247.374 212.977 247.11 213.161 246.768 213.268L248.184 215.5ZM250.735 214.988C251.077 214.988 251.357 214.855 251.575 214.588C251.794 214.316 251.903 213.932 251.903 213.436C251.903 212.993 251.797 212.636 251.583 212.364C251.37 212.092 251.101 211.956 250.775 211.956C250.45 211.956 250.167 212.076 249.927 212.316C249.693 212.551 249.575 212.937 249.575 213.476C249.575 213.993 249.695 214.375 249.935 214.62C250.175 214.865 250.442 214.988 250.735 214.988ZM249.575 211.444V212.06C249.858 211.607 250.277 211.38 250.831 211.38C251.37 211.38 251.791 211.577 252.095 211.972C252.405 212.361 252.559 212.849 252.559 213.436C252.559 214.06 252.397 214.572 252.071 214.972C251.751 215.367 251.333 215.564 250.815 215.564C250.282 215.564 249.869 215.337 249.575 214.884V217.076H248.951V211.444H249.575ZM255.003 211.7V211.02L256.243 210.268H256.835V215.5H256.211V210.956L255.003 211.7ZM257.789 212.868C257.789 212.047 257.955 211.399 258.285 210.924C258.621 210.444 259.061 210.204 259.605 210.204C260.171 210.204 260.619 210.444 260.949 210.924C261.285 211.399 261.453 212.047 261.453 212.868C261.453 213.684 261.293 214.337 260.973 214.828C260.653 215.319 260.197 215.564 259.605 215.564C259.056 215.564 258.616 215.319 258.285 214.828C257.955 214.337 257.789 213.684 257.789 212.868ZM258.781 211.348C258.552 211.705 258.437 212.212 258.437 212.868C258.437 213.524 258.549 214.039 258.773 214.412C258.997 214.78 259.275 214.964 259.605 214.964C259.973 214.964 260.264 214.783 260.477 214.42C260.696 214.057 260.805 213.54 260.805 212.868C260.805 212.201 260.691 211.692 260.461 211.34C260.237 210.983 259.952 210.804 259.605 210.804C259.285 210.804 259.011 210.985 258.781 211.348ZM262.141 212.868C262.141 212.047 262.306 211.399 262.637 210.924C262.973 210.444 263.413 210.204 263.957 210.204C264.522 210.204 264.97 210.444 265.301 210.924C265.637 211.399 265.805 212.047 265.805 212.868C265.805 213.684 265.645 214.337 265.325 214.828C265.005 215.319 264.549 215.564 263.957 215.564C263.408 215.564 262.968 215.319 262.637 214.828C262.306 214.337 262.141 213.684 262.141 212.868ZM263.133 211.348C262.904 211.705 262.789 212.212 262.789 212.868C262.789 213.524 262.901 214.039 263.125 214.412C263.349 214.78 263.626 214.964 263.957 214.964C264.325 214.964 264.616 214.783 264.829 214.42C265.048 214.057 265.157 213.54 265.157 212.868C265.157 212.201 265.042 211.692 264.813 211.34C264.589 210.983 264.304 210.804 263.957 210.804C263.637 210.804 263.362 210.985 263.133 211.348ZM266.084 216.484L266.828 214.692H267.668L266.636 216.484H266.084ZM268.289 212.868C268.289 212.047 268.455 211.399 268.785 210.924C269.121 210.444 269.561 210.204 270.105 210.204C270.671 210.204 271.119 210.444 271.449 210.924C271.785 211.399 271.953 212.047 271.953 212.868C271.953 213.684 271.793 214.337 271.473 214.828C271.153 215.319 270.697 215.564 270.105 215.564C269.556 215.564 269.116 215.319 268.785 214.828C268.455 214.337 268.289 213.684 268.289 212.868ZM269.281 211.348C269.052 211.705 268.937 212.212 268.937 212.868C268.937 213.524 269.049 214.039 269.273 214.412C269.497 214.78 269.775 214.964 270.105 214.964C270.473 214.964 270.764 214.783 270.977 214.42C271.196 214.057 271.305 213.54 271.305 212.868C271.305 212.201 271.191 211.692 270.961 211.34C270.737 210.983 270.452 210.804 270.105 210.804C269.785 210.804 269.511 210.985 269.281 211.348ZM272.641 212.868C272.641 212.047 272.806 211.399 273.137 210.924C273.473 210.444 273.913 210.204 274.457 210.204C275.022 210.204 275.47 210.444 275.801 210.924C276.137 211.399 276.305 212.047 276.305 212.868C276.305 213.684 276.145 214.337 275.825 214.828C275.505 215.319 275.049 215.564 274.457 215.564C273.908 215.564 273.468 215.319 273.137 214.828C272.806 214.337 272.641 213.684 272.641 212.868ZM273.633 211.348C273.404 211.705 273.289 212.212 273.289 212.868C273.289 213.524 273.401 214.039 273.625 214.412C273.849 214.78 274.126 214.964 274.457 214.964C274.825 214.964 275.116 214.783 275.329 214.42C275.548 214.057 275.657 213.54 275.657 212.868C275.657 212.201 275.542 211.692 275.313 211.34C275.089 210.983 274.804 210.804 274.457 210.804C274.137 210.804 273.862 210.985 273.633 211.348ZM276.992 212.868C276.992 212.047 277.158 211.399 277.488 210.924C277.824 210.444 278.264 210.204 278.808 210.204C279.374 210.204 279.822 210.444 280.152 210.924C280.488 211.399 280.656 212.047 280.656 212.868C280.656 213.684 280.496 214.337 280.176 214.828C279.856 215.319 279.4 215.564 278.808 215.564C278.259 215.564 277.819 215.319 277.488 214.828C277.158 214.337 276.992 213.684 276.992 212.868ZM277.984 211.348C277.755 211.705 277.64 212.212 277.64 212.868C277.64 213.524 277.752 214.039 277.976 214.412C278.2 214.78 278.478 214.964 278.808 214.964C279.176 214.964 279.467 214.783 279.68 214.42C279.899 214.057 280.008 213.54 280.008 212.868C280.008 212.201 279.894 211.692 279.664 211.34C279.44 210.983 279.155 210.804 278.808 210.804C278.488 210.804 278.214 210.985 277.984 211.348Z" fill="#2B2B2B"/>
<mask id="path-10-inside-1_1124_4113" fill="white">
<path d="M57 224.5H281V246.5H57V224.5Z"/>
</mask>
<path d="M281 245.5H57V247.5H281V245.5Z" fill="#CCCCCC" mask="url(#path-10-inside-1_1124_4113)"/>
<path opacity="0.64" d="M60.704 232.108V232.676H59.248V237.5H58.6V232.676H57.144V232.108H60.704ZM63.6274 235.628H62.9234C62.582 235.628 62.326 235.695 62.1554 235.828C61.9847 235.961 61.8994 236.129 61.8994 236.332C61.8994 236.535 61.966 236.7 62.0994 236.828C62.2327 236.951 62.4274 237.012 62.6834 237.012C62.9714 237.012 63.2007 236.932 63.3714 236.772C63.542 236.607 63.6274 236.399 63.6274 236.148V235.628ZM61.5314 234.292V233.66C61.8354 233.473 62.2354 233.38 62.7314 233.38C63.75 233.38 64.2594 233.897 64.2594 234.932V237.5H63.6354V237.02C63.4274 237.367 63.0487 237.54 62.4994 237.54C62.1207 237.54 61.814 237.428 61.5794 237.204C61.35 236.98 61.2354 236.697 61.2354 236.356C61.2354 235.967 61.382 235.665 61.6754 235.452C61.974 235.233 62.3794 235.124 62.8914 235.124H63.6274V234.916C63.6274 234.596 63.5554 234.356 63.4114 234.196C63.2674 234.031 63.0247 233.948 62.6834 233.948C62.2514 233.948 61.8674 234.063 61.5314 234.292ZM67.2289 236.988C67.5542 236.988 67.8235 236.852 68.0369 236.58C68.2502 236.308 68.3569 235.953 68.3569 235.516C68.3569 235.015 68.2449 234.631 68.0209 234.364C67.8022 234.092 67.5249 233.956 67.1889 233.956C66.9009 233.956 66.6369 234.076 66.3969 234.316C66.1569 234.556 66.0369 234.932 66.0369 235.444C66.0369 235.983 66.1515 236.375 66.3809 236.62C66.6155 236.865 66.8982 236.988 67.2289 236.988ZM66.0369 231.844V234.052C66.3302 233.604 66.7409 233.38 67.2689 233.38C67.7809 233.38 68.1995 233.577 68.5249 233.972C68.8502 234.361 69.0129 234.873 69.0129 235.508C69.0129 236.079 68.8582 236.564 68.5489 236.964C68.2449 237.364 67.8235 237.564 67.2849 237.564C66.7409 237.564 66.3249 237.343 66.0369 236.9V237.5H65.4049V231.844H66.0369ZM72.4634 233.444H73.0954V237.5H72.4634V236.796C72.25 237.297 71.826 237.548 71.1914 237.548C70.7914 237.548 70.474 237.431 70.2394 237.196C70.01 236.956 69.8954 236.636 69.8954 236.236V233.444H70.5274V236.076C70.5274 236.369 70.602 236.593 70.7514 236.748C70.9007 236.903 71.1034 236.98 71.3594 236.98C71.6954 236.98 71.962 236.863 72.1594 236.628C72.362 236.393 72.4634 236.076 72.4634 235.676V233.444ZM74.8877 233.444V234.148C75.1277 233.641 75.5544 233.388 76.1677 233.388C76.5624 233.388 76.877 233.508 77.1117 233.748C77.3464 233.988 77.4637 234.308 77.4637 234.708V237.5H76.8317V234.876C76.8317 234.577 76.7544 234.351 76.5997 234.196C76.4504 234.036 76.253 233.956 76.0077 233.956C75.7037 233.956 75.4397 234.073 75.2157 234.308C74.997 234.543 74.8877 234.868 74.8877 235.284V237.5H74.2637V233.444H74.8877ZM80.104 236.836C80.3973 236.836 80.656 236.724 80.88 236.5C81.1093 236.271 81.224 235.932 81.224 235.484C81.224 234.967 81.1147 234.583 80.896 234.332C80.6773 234.081 80.424 233.956 80.136 233.956C79.7893 233.956 79.5147 234.095 79.312 234.372C79.1093 234.644 79.008 235.001 79.008 235.444C79.008 235.897 79.12 236.244 79.344 236.484C79.568 236.719 79.8213 236.836 80.104 236.836ZM81.224 233.444H81.856V237.172C81.856 237.791 81.6853 238.255 81.344 238.564C81.0027 238.879 80.5627 239.036 80.024 239.036C79.5333 239.036 79.1147 238.953 78.768 238.788V238.156C79.1093 238.353 79.5093 238.452 79.968 238.452C80.3573 238.452 80.664 238.348 80.888 238.14C81.112 237.932 81.224 237.607 81.224 237.164V236.708C80.9573 237.167 80.56 237.396 80.032 237.396C79.568 237.396 79.1707 237.225 78.84 236.884C78.5147 236.543 78.352 236.068 78.352 235.46C78.352 234.857 78.504 234.361 78.808 233.972C79.112 233.583 79.5093 233.388 80 233.388C80.5547 233.388 80.9627 233.631 81.224 234.116V233.444ZM85.1586 235.628H84.4546C84.1133 235.628 83.8573 235.695 83.6866 235.828C83.516 235.961 83.4306 236.129 83.4306 236.332C83.4306 236.535 83.4973 236.7 83.6306 236.828C83.764 236.951 83.9586 237.012 84.2146 237.012C84.5026 237.012 84.732 236.932 84.9026 236.772C85.0733 236.607 85.1586 236.399 85.1586 236.148V235.628ZM83.0626 234.292V233.66C83.3666 233.473 83.7666 233.38 84.2626 233.38C85.2813 233.38 85.7906 233.897 85.7906 234.932V237.5H85.1666V237.02C84.9586 237.367 84.58 237.54 84.0306 237.54C83.652 237.54 83.3453 237.428 83.1106 237.204C82.8813 236.98 82.7666 236.697 82.7666 236.356C82.7666 235.967 82.9133 235.665 83.2066 235.452C83.5053 235.233 83.9106 235.124 84.4226 235.124H85.1586V234.916C85.1586 234.596 85.0866 234.356 84.9426 234.196C84.7986 234.031 84.556 233.948 84.2146 233.948C83.7826 233.948 83.3986 234.063 83.0626 234.292ZM87.5361 233.444V234.148C87.7761 233.641 88.2028 233.388 88.8161 233.388C89.2108 233.388 89.5255 233.508 89.7601 233.748C89.9948 233.988 90.1121 234.308 90.1121 234.708V237.5H89.4801V234.876C89.4801 234.577 89.4028 234.351 89.2481 234.196C89.0988 234.036 88.9015 233.956 88.6561 233.956C88.3521 233.956 88.0881 234.073 87.8641 234.308C87.6455 234.543 87.5361 234.868 87.5361 235.284V237.5H86.9121V233.444H87.5361Z" fill="#2B2B2B"/>
<path d="M244.108 232.668V234.82H244.924C245.292 234.82 245.572 234.721 245.764 234.524C245.961 234.321 246.06 234.063 246.06 233.748C246.06 233.028 245.657 232.668 244.852 232.668H244.108ZM247.044 237.5H246.268L244.948 235.372H244.884H244.108V237.5H243.46V232.108H244.812C245.436 232.108 245.908 232.255 246.228 232.548C246.553 232.841 246.716 233.247 246.716 233.764C246.705 234.137 246.606 234.455 246.42 234.716C246.233 234.977 245.969 235.161 245.628 235.268L247.044 237.5ZM249.595 236.988C249.936 236.988 250.216 236.855 250.435 236.588C250.653 236.316 250.763 235.932 250.763 235.436C250.763 234.993 250.656 234.636 250.443 234.364C250.229 234.092 249.96 233.956 249.635 233.956C249.309 233.956 249.027 234.076 248.787 234.316C248.552 234.551 248.435 234.937 248.435 235.476C248.435 235.993 248.555 236.375 248.795 236.62C249.035 236.865 249.301 236.988 249.595 236.988ZM248.435 233.444V234.06C248.717 233.607 249.136 233.38 249.691 233.38C250.229 233.38 250.651 233.577 250.955 233.972C251.264 234.361 251.419 234.849 251.419 235.436C251.419 236.06 251.256 236.572 250.931 236.972C250.611 237.367 250.192 237.564 249.675 237.564C249.141 237.564 248.728 237.337 248.435 236.884V239.076H247.811V233.444H248.435ZM254.183 233.124V232.508C254.492 232.311 254.849 232.212 255.255 232.212C255.772 232.212 256.172 232.345 256.455 232.612C256.743 232.873 256.887 233.199 256.887 233.588C256.887 233.871 256.815 234.124 256.671 234.348C256.532 234.572 256.324 234.74 256.047 234.852C256.351 234.921 256.591 235.063 256.767 235.276C256.948 235.484 257.039 235.745 257.039 236.06C257.039 236.487 256.889 236.841 256.591 237.124C256.292 237.407 255.871 237.548 255.327 237.548C254.825 237.548 254.391 237.46 254.023 237.284V236.652C254.417 236.86 254.847 236.964 255.311 236.964C255.652 236.964 255.916 236.876 256.103 236.7C256.295 236.524 256.391 236.295 256.391 236.012C256.391 235.729 256.284 235.513 256.071 235.364C255.863 235.209 255.561 235.132 255.167 235.132H254.831V234.58H255.167C255.465 234.58 255.716 234.497 255.919 234.332C256.127 234.161 256.231 233.935 256.231 233.652C256.231 233.369 256.143 233.156 255.967 233.012C255.791 232.868 255.548 232.796 255.239 232.796C254.871 232.796 254.519 232.905 254.183 233.124ZM257.789 234.868C257.789 234.047 257.955 233.399 258.285 232.924C258.621 232.444 259.061 232.204 259.605 232.204C260.171 232.204 260.619 232.444 260.949 232.924C261.285 233.399 261.453 234.047 261.453 234.868C261.453 235.684 261.293 236.337 260.973 236.828C260.653 237.319 260.197 237.564 259.605 237.564C259.056 237.564 258.616 237.319 258.285 236.828C257.955 236.337 257.789 235.684 257.789 234.868ZM258.781 233.348C258.552 233.705 258.437 234.212 258.437 234.868C258.437 235.524 258.549 236.039 258.773 236.412C258.997 236.78 259.275 236.964 259.605 236.964C259.973 236.964 260.264 236.783 260.477 236.42C260.696 236.057 260.805 235.54 260.805 234.868C260.805 234.201 260.691 233.692 260.461 233.34C260.237 232.983 259.952 232.804 259.605 232.804C259.285 232.804 259.011 232.985 258.781 233.348ZM262.141 234.868C262.141 234.047 262.306 233.399 262.637 232.924C262.973 232.444 263.413 232.204 263.957 232.204C264.522 232.204 264.97 232.444 265.301 232.924C265.637 233.399 265.805 234.047 265.805 234.868C265.805 235.684 265.645 236.337 265.325 236.828C265.005 237.319 264.549 237.564 263.957 237.564C263.408 237.564 262.968 237.319 262.637 236.828C262.306 236.337 262.141 235.684 262.141 234.868ZM263.133 233.348C262.904 233.705 262.789 234.212 262.789 234.868C262.789 235.524 262.901 236.039 263.125 236.412C263.349 236.78 263.626 236.964 263.957 236.964C264.325 236.964 264.616 236.783 264.829 236.42C265.048 236.057 265.157 235.54 265.157 234.868C265.157 234.201 265.042 233.692 264.813 233.34C264.589 232.983 264.304 232.804 263.957 232.804C263.637 232.804 263.362 232.985 263.133 233.348ZM266.084 238.484L266.828 236.692H267.668L266.636 238.484H266.084ZM268.289 234.868C268.289 234.047 268.455 233.399 268.785 232.924C269.121 232.444 269.561 232.204 270.105 232.204C270.671 232.204 271.119 232.444 271.449 232.924C271.785 233.399 271.953 234.047 271.953 234.868C271.953 235.684 271.793 236.337 271.473 236.828C271.153 237.319 270.697 237.564 270.105 237.564C269.556 237.564 269.116 237.319 268.785 236.828C268.455 236.337 268.289 235.684 268.289 234.868ZM269.281 233.348C269.052 233.705 268.937 234.212 268.937 234.868C268.937 235.524 269.049 236.039 269.273 236.412C269.497 236.78 269.775 236.964 270.105 236.964C270.473 236.964 270.764 236.783 270.977 236.42C271.196 236.057 271.305 235.54 271.305 234.868C271.305 234.201 271.191 233.692 270.961 233.34C270.737 232.983 270.452 232.804 270.105 232.804C269.785 232.804 269.511 232.985 269.281 233.348ZM272.641 234.868C272.641 234.047 272.806 233.399 273.137 232.924C273.473 232.444 273.913 232.204 274.457 232.204C275.022 232.204 275.47 232.444 275.801 232.924C276.137 233.399 276.305 234.047 276.305 234.868C276.305 235.684 276.145 236.337 275.825 236.828C275.505 237.319 275.049 237.564 274.457 237.564C273.908 237.564 273.468 237.319 273.137 236.828C272.806 236.337 272.641 235.684 272.641 234.868ZM273.633 233.348C273.404 233.705 273.289 234.212 273.289 234.868C273.289 235.524 273.401 236.039 273.625 236.412C273.849 236.78 274.126 236.964 274.457 236.964C274.825 236.964 275.116 236.783 275.329 236.42C275.548 236.057 275.657 235.54 275.657 234.868C275.657 234.201 275.542 233.692 275.313 233.34C275.089 232.983 274.804 232.804 274.457 232.804C274.137 232.804 273.862 232.985 273.633 233.348ZM276.992 234.868C276.992 234.047 277.158 233.399 277.488 232.924C277.824 232.444 278.264 232.204 278.808 232.204C279.374 232.204 279.822 232.444 280.152 232.924C280.488 233.399 280.656 234.047 280.656 234.868C280.656 235.684 280.496 236.337 280.176 236.828C279.856 237.319 279.4 237.564 278.808 237.564C278.259 237.564 277.819 237.319 277.488 236.828C277.158 236.337 276.992 235.684 276.992 234.868ZM277.984 233.348C277.755 233.705 277.64 234.212 277.64 234.868C277.64 235.524 277.752 236.039 277.976 236.412C278.2 236.78 278.478 236.964 278.808 236.964C279.176 236.964 279.467 236.783 279.68 236.42C279.899 236.057 280.008 235.54 280.008 234.868C280.008 234.201 279.894 233.692 279.664 233.34C279.44 232.983 279.155 232.804 278.808 232.804C278.488 232.804 278.214 232.985 277.984 233.348Z" fill="#2B2B2B"/>
<rect x="109" y="275" width="120" height="24" rx="8" fill="#FF1934"/>
<path d="M157.959 288.176L158.823 288.176C159.468 288.176 159.791 287.931 159.791 287.44C159.791 286.939 159.455 286.688 158.783 286.688L157.959 286.688L157.959 288.176ZM157.959 284.432L157.959 285.88L158.567 285.88C158.929 285.88 159.201 285.808 159.383 285.664C159.564 285.52 159.655 285.336 159.655 285.112C159.655 284.904 159.577 284.739 159.423 284.616C159.273 284.493 159.044 284.432 158.735 284.432L157.959 284.432ZM156.951 283.608L158.863 283.608C159.439 283.608 159.887 283.744 160.207 284.016C160.527 284.288 160.687 284.64 160.687 285.072C160.687 285.365 160.607 285.621 160.447 285.84C160.287 286.053 160.081 286.195 159.831 286.264C160.119 286.333 160.356 286.475 160.543 286.688C160.729 286.896 160.823 287.181 160.823 287.544C160.823 287.971 160.673 288.32 160.375 288.592C160.076 288.864 159.663 289 159.135 289L156.951 289L156.951 283.608ZM163.053 286.952L164.573 286.952L164.501 286.712C164.32 286.136 164.17 285.653 164.053 285.264C163.941 284.869 163.872 284.621 163.845 284.52L163.813 284.36C163.765 284.627 163.536 285.413 163.125 286.72L163.053 286.952ZM165.213 289L164.829 287.776L162.789 287.776L162.405 289L161.349 289L163.173 283.608L164.477 283.608L166.301 289L165.213 289ZM171.364 283.608L169.508 287L169.508 289L168.5 289L168.5 287.032L166.66 283.608L167.836 283.608L168.196 284.392C168.404 284.845 168.574 285.227 168.708 285.536C168.841 285.84 168.921 286.029 168.948 286.104L168.996 286.224C169.044 286.027 169.318 285.416 169.82 284.392L170.188 283.608L171.364 283.608ZM173.436 286.952L174.956 286.952L174.884 286.712C174.702 286.136 174.553 285.653 174.436 285.264C174.324 284.869 174.254 284.621 174.228 284.52L174.196 284.36C174.148 284.627 173.918 285.413 173.508 286.72L173.436 286.952ZM175.596 289L175.212 287.776L173.172 287.776L172.788 289L171.732 289L173.556 283.608L174.86 283.608L176.684 289L175.596 289ZM178.466 284.44L178.466 286.2L179.138 286.2C179.448 286.2 179.68 286.123 179.834 285.968C179.989 285.808 180.066 285.587 180.066 285.304C180.066 285.027 179.984 284.813 179.818 284.664C179.658 284.515 179.426 284.44 179.122 284.44L178.466 284.44ZM180.242 289L179.018 287.032L178.466 287.032L178.466 289L177.458 289L177.458 283.608L179.122 283.608C179.736 283.608 180.216 283.763 180.562 284.072C180.914 284.381 181.09 284.795 181.09 285.312C181.085 285.696 180.992 286.021 180.81 286.288C180.629 286.549 180.381 286.744 180.066 286.872L181.45 289L180.242 289Z" fill="white"/>
<path d="M9 341.5H329C333.694 341.5 337.5 345.306 337.5 350C337.5 354.694 333.694 358.5 329 358.5H9C4.30558 358.5 0.5 354.694 0.5 350C0.500002 345.306 4.30558 341.5 9 341.5Z" fill="white"/>
<path d="M9 341.5H329C333.694 341.5 337.5 345.306 337.5 350C337.5 354.694 333.694 358.5 329 358.5H9C4.30558 358.5 0.5 354.694 0.5 350C0.500002 345.306 4.30558 341.5 9 341.5Z" stroke="#CCCCCC"/>
<path d="M7.86805e-07 350C3.52265e-07 345.029 4.02944 341 9 341L39 341C43.9706 341 48 345.029 48 350C48 354.971 43.9706 359 39 359L9 359C4.02944 359 1.22135e-06 354.971 7.86805e-07 350Z" fill="#FF1934"/>
<path d="M15.448 346.688H16.264L16.816 348.6L17.456 350.92C17.5893 350.179 17.7547 349.403 17.952 348.592L18.44 346.608H19.464L18.088 352H16.92L16.432 350.296C16.2987 349.843 16.184 349.443 16.088 349.096C15.9973 348.749 15.936 348.517 15.904 348.4L15.864 348.216C15.7893 348.589 15.6027 349.283 15.304 350.296L14.8 352H13.64L12.2 346.608H13.264L13.768 348.6C13.8533 348.957 13.9387 349.328 14.024 349.712C14.1093 350.096 14.1733 350.389 14.216 350.592L14.28 350.904C14.4507 350.232 14.6587 349.464 14.904 348.6L15.448 346.688ZM22.2561 350.256H21.7601C21.5094 350.256 21.3174 350.309 21.1841 350.416C21.0507 350.517 20.9841 350.648 20.9841 350.808C20.9841 351.149 21.1814 351.32 21.5761 351.32C21.7894 351.32 21.9547 351.259 22.0721 351.136C22.1947 351.008 22.2561 350.843 22.2561 350.64V350.256ZM20.2881 349.04V348.152C20.5921 347.965 21.0294 347.872 21.6001 347.872C22.6987 347.872 23.2481 348.384 23.2481 349.408V352H22.2961V351.512C22.1094 351.859 21.7574 352.032 21.2401 352.032C20.8561 352.032 20.5494 351.92 20.3201 351.696C20.0961 351.472 19.9841 351.189 19.9841 350.848C19.9841 350.464 20.1281 350.163 20.4161 349.944C20.7041 349.725 21.1201 349.616 21.6641 349.616H22.2561V349.368C22.2561 349.144 22.1974 348.973 22.0801 348.856C21.9627 348.739 21.7627 348.68 21.4801 348.68C21.0481 348.68 20.6507 348.8 20.2881 349.04ZM27.7828 352H26.6548L25.1988 349.904V352H24.2388V346.44H25.1988V349.848L26.6308 347.944H27.7508L26.2628 349.88L27.7828 352ZM29.5864 348.664V350.728C29.5864 350.899 29.6318 351.029 29.7224 351.12C29.8131 351.205 29.9384 351.248 30.0984 351.248C30.3011 351.248 30.4878 351.192 30.6584 351.08V351.904C30.4718 351.995 30.2318 352.04 29.9384 352.04C29.0638 352.04 28.6264 351.597 28.6264 350.712V348.664H28.0184V347.944H28.6264V346.968H29.5864V347.944H30.5944V348.664H29.5864ZM33.9617 347.944H34.9297V352H33.9617V351.336C33.7484 351.805 33.3324 352.04 32.7137 352.04C32.303 352.04 31.983 351.923 31.7537 351.688C31.5244 351.453 31.4097 351.12 31.4097 350.688V347.944H32.3697V350.464C32.3697 350.72 32.431 350.915 32.5537 351.048C32.6817 351.181 32.855 351.248 33.0737 351.248C33.351 351.248 33.567 351.155 33.7217 350.968C33.8817 350.781 33.9617 350.499 33.9617 350.12V347.944Z" fill="white"/>
<rect x="56" y="348" width="274" height="4" rx="2" fill="#CCCCCC"/>
<mask id="mask0_1124_4113" style="mask-type:alpha" maskUnits="userSpaceOnUse" x="56" y="348" width="274" height="4">
<rect x="56" y="348" width="274" height="4" rx="2" fill="#CCCCCC"/>
</mask>
<g mask="url(#mask0_1124_4113)">
<rect x="56" y="348" width="274" height="4" rx="2" fill="#FF1934"/>
</g>
<defs>
<filter id="filter0_d_1124_4113" x="5" y="48" width="328" height="56" filterUnits="userSpaceOnUse" color-interpolation-filters="sRGB">
<feFlood flood-opacity="0" result="BackgroundImageFix"/>
<feColorMatrix in="SourceAlpha" type="matrix" values="0 0 0 0 0 0 0 0 0 0 0 0 0 0 0 0 0 0 127 0" result="hardAlpha"/>
<feOffset dy="2"/>
<feGaussianBlur stdDeviation="2"/>
<feComposite in2="hardAlpha" operator="out"/>
<feColorMatrix type="matrix" values="0 0 0 0 0.168627 0 0 0 0 0.168627 0 0 0 0 0.168627 0 0 0 0.24 0"/>
<feBlend mode="normal" in2="BackgroundImageFix" result="effect1_dropShadow_1124_4113"/>
<feBlend mode="normal" in="SourceGraphic" in2="effect1_dropShadow_1124_4113" result="shape"/>
</filter>
<clipPath id="clip0_1124_4113">
<rect width="24" height="24" fill="white" transform="translate(25 66)"/>
</clipPath>
<clipPath id="clip1_1124_4113">
<rect width="68" height="68" fill="white" transform="translate(46 106)"/>
</clipPath>
</defs>
</svg>
