<svg width="338" height="375" viewBox="0 0 338 375" fill="none" xmlns="http://www.w3.org/2000/svg">
<rect width="338" height="375" fill="#D3D3D3"/>
<rect x="9" y="50" width="320" height="265" rx="16" fill="white"/>
<g filter="url(#filter0_d_1124_4113)">
<path d="M9 66C9 57.1634 16.1634 50 25 50H313C321.837 50 329 57.1634 329 66V98H9V66Z" fill="#FF1934" shape-rendering="crispEdges"/>
<g clip-path="url(#clip0_1124_4113)">
<path fill-rule="evenodd" clip-rule="evenodd" d="M27 78C27 72.49 31.49 68 37 68C42.51 68 47 72.49 47 78C47 83.51 42.51 88 37 88C31.49 88 27 83.51 27 78ZM28.6 78C28.6 82.63 32.37 86.4 37 86.4C41.63 86.4 45.4 82.63 45.4 78C45.4 73.37 41.63 69.6 37 69.6C32.37 69.6 28.6 73.37 28.6 78ZM32.2 78C32.2 77.56 32.56 77.2 33 77.2H41C41.44 77.2 41.8 77.56 41.8 78C41.8 78.44 41.44 78.8 41 78.8H33C32.56 78.8 32.2 78.44 32.2 78Z" fill="white"/>
</g>
<path d="M60.668 78.332H62.936L62.838 77.996C62.5673 77.0813 62.3433 76.302 62.166 75.658C61.998 75.014 61.8953 74.5987 61.858 74.412L61.802 74.132C61.7273 74.6453 61.382 75.9333 60.766 77.996L60.668 78.332ZM64.028 82L63.454 80.068H60.15L59.576 82H57.322L60.472 72.564H63.188L66.338 82H64.028ZM69.55 74.902V76.106C69.7273 75.714 69.998 75.406 70.362 75.182C70.7353 74.9487 71.1787 74.832 71.692 74.832C72.42 74.832 72.9893 75.0513 73.4 75.49C73.8107 75.9193 74.016 76.554 74.016 77.394V82H71.972V77.772C71.972 77.352 71.874 77.0347 71.678 76.82C71.482 76.596 71.2067 76.484 70.852 76.484C70.4787 76.484 70.166 76.6333 69.914 76.932C69.6713 77.2213 69.55 77.66 69.55 78.248V82H67.506V74.902H69.55ZM78.8891 80.376C79.3558 80.376 79.7338 80.194 80.0231 79.83C80.3124 79.466 80.4571 78.9807 80.4571 78.374C80.4571 77.786 80.2984 77.3287 79.9811 77.002C79.6731 76.6753 79.3044 76.512 78.8751 76.512C78.4458 76.512 78.0818 76.6847 77.7831 77.03C77.4938 77.3753 77.3491 77.856 77.3491 78.472C77.3491 79.0413 77.4984 79.5033 77.7971 79.858C78.0958 80.2033 78.4598 80.376 78.8891 80.376ZM80.4571 72.102H82.5011V82H80.4571V80.894C79.9811 81.6873 79.2718 82.084 78.3291 82.084C77.4051 82.084 76.6631 81.7247 76.1031 81.006C75.5524 80.2873 75.2771 79.4287 75.2771 78.43C75.2771 77.31 75.5664 76.428 76.1451 75.784C76.7238 75.14 77.4564 74.818 78.3431 74.818C79.2671 74.818 79.9718 75.21 80.4571 75.994V72.102ZM87.6997 79.088H87.0417C86.6964 79.088 86.4304 79.1627 86.2437 79.312C86.057 79.4613 85.9637 79.6527 85.9637 79.886C85.9637 80.362 86.239 80.6 86.7897 80.6C87.079 80.6 87.303 80.5113 87.4617 80.334C87.6204 80.1567 87.6997 79.914 87.6997 79.606V79.088ZM84.3817 77.086V75.252C84.9417 74.9347 85.749 74.776 86.8037 74.776C87.8117 74.776 88.563 74.9953 89.0577 75.434C89.5524 75.8633 89.7997 76.5353 89.7997 77.45V82H87.7977V81.132C87.499 81.7387 86.911 82.042 86.0337 82.042C85.343 82.042 84.8017 81.846 84.4097 81.454C84.027 81.062 83.8357 80.572 83.8357 79.984C83.8357 79.3027 84.083 78.7753 84.5777 78.402C85.0817 78.0193 85.8237 77.828 86.8037 77.828H87.6997V77.338C87.6997 76.7407 87.303 76.442 86.5097 76.442C85.7444 76.442 85.035 76.6567 84.3817 77.086ZM96.9485 74.902V76.008C97.3405 75.224 98.0078 74.832 98.9505 74.832C99.9491 74.832 100.612 75.28 100.938 76.176C101.097 75.756 101.363 75.4293 101.736 75.196C102.11 74.9533 102.548 74.832 103.052 74.832C103.752 74.832 104.303 75.056 104.704 75.504C105.115 75.9427 105.32 76.5913 105.32 77.45V82H103.276V77.786C103.276 77.3847 103.197 77.0673 103.038 76.834C102.88 76.6007 102.651 76.484 102.352 76.484C102.035 76.484 101.75 76.6147 101.498 76.876C101.256 77.128 101.134 77.5853 101.134 78.248V82H99.0905V77.786C99.0905 77.3847 99.0111 77.0673 98.8525 76.834C98.6938 76.6007 98.4651 76.484 98.1665 76.484C97.8491 76.484 97.5645 76.6147 97.3125 76.876C97.0698 77.128 96.9485 77.5853 96.9485 78.248V82H94.9045V74.902H96.9485ZM111.038 77.8V77.632C110.972 76.8013 110.608 76.386 109.946 76.386C109.619 76.386 109.33 76.5073 109.078 76.75C108.826 76.9833 108.658 77.3333 108.574 77.8H111.038ZM112.508 79.886V81.594C112.022 81.9113 111.28 82.07 110.282 82.07C109.115 82.07 108.205 81.734 107.552 81.062C106.908 80.3807 106.586 79.508 106.586 78.444C106.586 77.3147 106.898 76.4327 107.524 75.798C108.158 75.154 108.938 74.832 109.862 74.832C110.814 74.832 111.565 75.112 112.116 75.672C112.666 76.2227 112.942 77.0487 112.942 78.15C112.942 78.3647 112.904 78.7333 112.83 79.256H108.658C108.798 79.648 109.04 79.9513 109.386 80.166C109.731 80.3807 110.146 80.488 110.632 80.488C111.35 80.488 111.976 80.2873 112.508 79.886ZM116.445 74.902V76.106C116.622 75.714 116.893 75.406 117.257 75.182C117.63 74.9487 118.073 74.832 118.587 74.832C119.315 74.832 119.884 75.0513 120.295 75.49C120.705 75.9193 120.911 76.554 120.911 77.394V82H118.867V77.772C118.867 77.352 118.769 77.0347 118.573 76.82C118.377 76.596 118.101 76.484 117.747 76.484C117.373 76.484 117.061 76.6333 116.809 76.932C116.566 77.2213 116.445 77.66 116.445 78.248V82H114.401V74.902H116.445ZM125.672 80.138C126.11 80.138 126.451 79.9747 126.694 79.648C126.946 79.312 127.072 78.9107 127.072 78.444C127.072 77.1747 126.61 76.54 125.686 76.54C125.275 76.54 124.953 76.6987 124.72 77.016C124.486 77.3333 124.37 77.772 124.37 78.332C124.37 78.92 124.482 79.368 124.706 79.676C124.93 79.984 125.252 80.138 125.672 80.138ZM127.072 74.902H129.102V81.314C129.102 82.4527 128.761 83.3067 128.08 83.876C127.398 84.4547 126.544 84.744 125.518 84.744C124.519 84.744 123.646 84.5667 122.9 84.212V82.126C123.553 82.6487 124.356 82.91 125.308 82.91C125.924 82.91 126.372 82.7793 126.652 82.518C126.932 82.2567 127.072 81.846 127.072 81.286V80.81C126.661 81.4447 126.008 81.762 125.112 81.762C124.328 81.762 123.651 81.4727 123.082 80.894C122.522 80.3153 122.242 79.4567 122.242 78.318C122.242 77.31 122.512 76.4793 123.054 75.826C123.604 75.1633 124.323 74.832 125.21 74.832C126.05 74.832 126.67 75.168 127.072 75.84V74.902ZM134.225 79.088H133.567C133.222 79.088 132.956 79.1627 132.769 79.312C132.582 79.4613 132.489 79.6527 132.489 79.886C132.489 80.362 132.764 80.6 133.315 80.6C133.604 80.6 133.828 80.5113 133.987 80.334C134.146 80.1567 134.225 79.914 134.225 79.606V79.088ZM130.907 77.086V75.252C131.467 74.9347 132.274 74.776 133.329 74.776C134.337 74.776 135.088 74.9953 135.583 75.434C136.078 75.8633 136.325 76.5353 136.325 77.45V82H134.323V81.132C134.024 81.7387 133.436 82.042 132.559 82.042C131.868 82.042 131.327 81.846 130.935 81.454C130.552 81.062 130.361 80.572 130.361 79.984C130.361 79.3027 130.608 78.7753 131.103 78.402C131.607 78.0193 132.349 77.828 133.329 77.828H134.225V77.338C134.225 76.7407 133.828 76.442 133.035 76.442C132.27 76.442 131.56 76.6567 130.907 77.086ZM138 82V72.102H140.044V82H138ZM145.313 79.088H144.655C144.31 79.088 144.044 79.1627 143.857 79.312C143.67 79.4613 143.577 79.6527 143.577 79.886C143.577 80.362 143.852 80.6 144.403 80.6C144.692 80.6 144.916 80.5113 145.075 80.334C145.234 80.1567 145.313 79.914 145.313 79.606V79.088ZM141.995 77.086V75.252C142.555 74.9347 143.362 74.776 144.417 74.776C145.425 74.776 146.176 74.9953 146.671 75.434C147.166 75.8633 147.413 76.5353 147.413 77.45V82H145.411V81.132C145.112 81.7387 144.524 82.042 143.647 82.042C142.956 82.042 142.415 81.846 142.023 81.454C141.64 81.062 141.449 80.572 141.449 79.984C141.449 79.3027 141.696 78.7753 142.191 78.402C142.695 78.0193 143.437 77.828 144.417 77.828H145.313V77.338C145.313 76.7407 144.916 76.442 144.123 76.442C143.358 76.442 142.648 76.6567 141.995 77.086ZM151.062 74.902V76.008C151.454 75.224 152.121 74.832 153.064 74.832C154.062 74.832 154.725 75.28 155.052 76.176C155.21 75.756 155.476 75.4293 155.85 75.196C156.223 74.9533 156.662 74.832 157.166 74.832C157.866 74.832 158.416 75.056 158.818 75.504C159.228 75.9427 159.434 76.5913 159.434 77.45V82H157.39V77.786C157.39 77.3847 157.31 77.0673 157.152 76.834C156.993 76.6007 156.764 76.484 156.466 76.484C156.148 76.484 155.864 76.6147 155.612 76.876C155.369 77.128 155.248 77.5853 155.248 78.248V82H153.204V77.786C153.204 77.3847 153.124 77.0673 152.966 76.834C152.807 76.6007 152.578 76.484 152.28 76.484C151.962 76.484 151.678 76.6147 151.426 76.876C151.183 77.128 151.062 77.5853 151.062 78.248V82H149.018V74.902H151.062ZM161.119 82V74.902H163.163V82H161.119ZM161.301 73.684C161.068 73.4507 160.951 73.1707 160.951 72.844C160.951 72.5173 161.068 72.2373 161.301 72.004C161.534 71.7707 161.814 71.654 162.141 71.654C162.468 71.654 162.748 71.7707 162.981 72.004C163.214 72.2373 163.331 72.5173 163.331 72.844C163.331 73.1707 163.214 73.4507 162.981 73.684C162.748 73.9173 162.468 74.034 162.141 74.034C161.814 74.034 161.534 73.9173 161.301 73.684ZM171.568 80.138C172.007 80.138 172.347 79.9747 172.59 79.648C172.842 79.312 172.968 78.9107 172.968 78.444C172.968 77.1747 172.506 76.54 171.582 76.54C171.171 76.54 170.849 76.6987 170.616 77.016C170.383 77.3333 170.266 77.772 170.266 78.332C170.266 78.92 170.378 79.368 170.602 79.676C170.826 79.984 171.148 80.138 171.568 80.138ZM172.968 74.902H174.998V81.314C174.998 82.4527 174.657 83.3067 173.976 83.876C173.295 84.4547 172.441 84.744 171.414 84.744C170.415 84.744 169.543 84.5667 168.796 84.212V82.126C169.449 82.6487 170.252 82.91 171.204 82.91C171.82 82.91 172.268 82.7793 172.548 82.518C172.828 82.2567 172.968 81.846 172.968 81.286V80.81C172.557 81.4447 171.904 81.762 171.008 81.762C170.224 81.762 169.547 81.4727 168.978 80.894C168.418 80.3153 168.138 79.4567 168.138 78.318C168.138 77.31 168.409 76.4793 168.95 75.826C169.501 75.1633 170.219 74.832 171.106 74.832C171.946 74.832 172.567 75.168 172.968 75.84V74.902ZM180.122 79.088H179.464C179.118 79.088 178.852 79.1627 178.666 79.312C178.479 79.4613 178.386 79.6527 178.386 79.886C178.386 80.362 178.661 80.6 179.212 80.6C179.501 80.6 179.725 80.5113 179.884 80.334C180.042 80.1567 180.122 79.914 180.122 79.606V79.088ZM176.804 77.086V75.252C177.364 74.9347 178.171 74.776 179.226 74.776C180.234 74.776 180.985 74.9953 181.48 75.434C181.974 75.8633 182.222 76.5353 182.222 77.45V82H180.22V81.132C179.921 81.7387 179.333 82.042 178.456 82.042C177.765 82.042 177.224 81.846 176.832 81.454C176.449 81.062 176.258 80.572 176.258 79.984C176.258 79.3027 176.505 78.7753 177 78.402C177.504 78.0193 178.246 77.828 179.226 77.828H180.122V77.338C180.122 76.7407 179.725 76.442 178.932 76.442C178.166 76.442 177.457 76.6567 176.804 77.086ZM186.976 80.138C187.415 80.138 187.756 79.9747 187.998 79.648C188.25 79.312 188.376 78.9107 188.376 78.444C188.376 77.1747 187.914 76.54 186.99 76.54C186.58 76.54 186.258 76.6987 186.024 77.016C185.791 77.3333 185.674 77.772 185.674 78.332C185.674 78.92 185.786 79.368 186.01 79.676C186.234 79.984 186.556 80.138 186.976 80.138ZM188.376 74.902H190.406V81.314C190.406 82.4527 190.066 83.3067 189.384 83.876C188.703 84.4547 187.849 84.744 186.822 84.744C185.824 84.744 184.951 84.5667 184.204 84.212V82.126C184.858 82.6487 185.66 82.91 186.612 82.91C187.228 82.91 187.676 82.7793 187.956 82.518C188.236 82.2567 188.376 81.846 188.376 81.286V80.81C187.966 81.4447 187.312 81.762 186.416 81.762C185.632 81.762 184.956 81.4727 184.386 80.894C183.826 80.3153 183.546 79.4567 183.546 78.318C183.546 77.31 183.817 76.4793 184.358 75.826C184.909 75.1633 185.628 74.832 186.514 74.832C187.354 74.832 187.975 75.168 188.376 75.84V74.902ZM195.53 79.088H194.872C194.526 79.088 194.26 79.1627 194.074 79.312C193.887 79.4613 193.794 79.6527 193.794 79.886C193.794 80.362 194.069 80.6 194.62 80.6C194.909 80.6 195.133 80.5113 195.292 80.334C195.45 80.1567 195.53 79.914 195.53 79.606V79.088ZM192.212 77.086V75.252C192.772 74.9347 193.579 74.776 194.634 74.776C195.642 74.776 196.393 74.9953 196.888 75.434C197.382 75.8633 197.63 76.5353 197.63 77.45V82H195.628V81.132C195.329 81.7387 194.741 82.042 193.864 82.042C193.173 82.042 192.632 81.846 192.24 81.454C191.857 81.062 191.666 80.572 191.666 79.984C191.666 79.3027 191.913 78.7753 192.408 78.402C192.912 78.0193 193.654 77.828 194.634 77.828H195.53V77.338C195.53 76.7407 195.133 76.442 194.34 76.442C193.574 76.442 192.865 76.6567 192.212 77.086ZM199.305 82V72.102H201.349V82H199.305ZM209.754 80.138C210.192 80.138 210.533 79.9747 210.776 79.648C211.028 79.312 211.154 78.9107 211.154 78.444C211.154 77.1747 210.692 76.54 209.768 76.54C209.357 76.54 209.035 76.6987 208.802 77.016C208.568 77.3333 208.452 77.772 208.452 78.332C208.452 78.92 208.564 79.368 208.788 79.676C209.012 79.984 209.334 80.138 209.754 80.138ZM211.154 74.902H213.184V81.314C213.184 82.4527 212.843 83.3067 212.162 83.876C211.48 84.4547 210.626 84.744 209.6 84.744C208.601 84.744 207.728 84.5667 206.982 84.212V82.126C207.635 82.6487 208.438 82.91 209.39 82.91C210.006 82.91 210.454 82.7793 210.734 82.518C211.014 82.2567 211.154 81.846 211.154 81.286V80.81C210.743 81.4447 210.09 81.762 209.194 81.762C208.41 81.762 207.733 81.4727 207.164 80.894C206.604 80.3153 206.324 79.4567 206.324 78.318C206.324 77.31 206.594 76.4793 207.136 75.826C207.686 75.1633 208.405 74.832 209.292 74.832C210.132 74.832 210.752 75.168 211.154 75.84V74.902ZM214.863 82V74.902H216.907V82H214.863ZM215.045 73.684C214.812 73.4507 214.695 73.1707 214.695 72.844C214.695 72.5173 214.812 72.2373 215.045 72.004C215.278 71.7707 215.558 71.654 215.885 71.654C216.212 71.654 216.492 71.7707 216.725 72.004C216.958 72.2373 217.075 72.5173 217.075 72.844C217.075 73.1707 216.958 73.4507 216.725 73.684C216.492 73.9173 216.212 74.034 215.885 74.034C215.558 74.034 215.278 73.9173 215.045 73.684ZM220.706 74.902V76.106C220.884 75.714 221.154 75.406 221.518 75.182C221.892 74.9487 222.335 74.832 222.848 74.832C223.576 74.832 224.146 75.0513 224.556 75.49C224.967 75.9193 225.172 76.554 225.172 77.394V82H223.128V77.772C223.128 77.352 223.03 77.0347 222.834 76.82C222.638 76.596 222.363 76.484 222.008 76.484C221.635 76.484 221.322 76.6333 221.07 76.932C220.828 77.2213 220.706 77.66 220.706 78.248V82H218.662V74.902H220.706ZM225.383 84.548V82.994C225.691 83.134 225.957 83.204 226.181 83.204C226.667 83.204 226.909 82.8913 226.909 82.266V74.902H228.939V82.294C228.939 83.0407 228.729 83.638 228.309 84.086C227.889 84.5433 227.283 84.772 226.489 84.772C226.163 84.772 225.794 84.6973 225.383 84.548ZM227.077 73.684C226.844 73.4507 226.727 73.1707 226.727 72.844C226.727 72.5173 226.844 72.2373 227.077 72.004C227.311 71.7707 227.591 71.654 227.917 71.654C228.244 71.654 228.524 71.7707 228.757 72.004C228.991 72.2373 229.107 72.5173 229.107 72.844C229.107 73.1707 228.991 73.4507 228.757 73.684C228.524 73.9173 228.244 74.034 227.917 74.034C227.591 74.034 227.311 73.9173 227.077 73.684ZM234.139 79.088H233.481C233.136 79.088 232.87 79.1627 232.683 79.312C232.496 79.4613 232.403 79.6527 232.403 79.886C232.403 80.362 232.678 80.6 233.229 80.6C233.518 80.6 233.742 80.5113 233.901 80.334C234.06 80.1567 234.139 79.914 234.139 79.606V79.088ZM230.821 77.086V75.252C231.381 74.9347 232.188 74.776 233.243 74.776C234.251 74.776 235.002 74.9953 235.497 75.434C235.992 75.8633 236.239 76.5353 236.239 77.45V82H234.237V81.132C233.938 81.7387 233.35 82.042 232.473 82.042C231.782 82.042 231.241 81.846 230.849 81.454C230.466 81.062 230.275 80.572 230.275 79.984C230.275 79.3027 230.522 78.7753 231.017 78.402C231.521 78.0193 232.263 77.828 233.243 77.828H234.139V77.338C234.139 76.7407 233.742 76.442 232.949 76.442C232.184 76.442 231.474 76.6567 230.821 77.086ZM237.914 82V72.102H239.958V82H237.914Z" fill="white"/>
</g>
<g clip-path="url(#clip1_1124_4113)">
<path d="M183.374 151.996L176.976 155.519L181.54 157.516L163.14 168.071L174.596 156.282L170.456 155.657L176.457 147.275L175.848 140.608L158.744 142.17L159.664 152.247L149.588 153.167L151.15 170.271L161.118 169.172V179.29H178.293V169.172H188.412V151.996H183.374Z" fill="#FF1934"/>
<path d="M184.308 184.078L177.493 184.505L182.355 184.748L162.759 186.03L174.959 184.599L170.551 184.522L176.942 183.505L176.293 182.695L158.079 182.885L159.059 184.108L148.328 184.22L149.991 186.297L160.607 186.163V187.392H178.897V186.163H189.672V184.078H184.308Z" fill="#CCCCCC"/>
</g>
<path d="M35.4388 214.49H37.5988L37.4888 214.15C37.2354 213.363 37.0288 212.713 36.8688 212.2C36.7088 211.68 36.6121 211.357 36.5788 211.23L36.5288 211.04C36.4554 211.353 36.1288 212.39 35.5488 214.15L35.4388 214.49ZM38.4088 217L37.8788 215.35H35.1588L34.6188 217H33.5288L35.8587 210.26H37.2088L39.5088 217H38.4088ZM40.5103 217V210H41.4903V217H40.5103ZM42.6603 214.35L44.6503 217H43.4803L41.5303 214.35L43.4403 211.93H44.5903L42.6603 214.35ZM45.5503 217V211.93H46.5403V217H45.5503ZM45.6003 210.82C45.487 210.7 45.4303 210.553 45.4303 210.38C45.4303 210.207 45.487 210.06 45.6003 209.94C45.7203 209.82 45.867 209.76 46.0403 209.76C46.2136 209.76 46.3603 209.82 46.4803 209.94C46.6003 210.06 46.6603 210.207 46.6603 210.38C46.6603 210.547 46.6003 210.69 46.4803 210.81C46.3603 210.93 46.2136 210.99 46.0403 210.99C45.867 210.99 45.7203 210.933 45.6003 210.82ZM50.3515 216.21C50.7248 216.21 51.0382 216.053 51.2915 215.74C51.5448 215.42 51.6715 215.01 51.6715 214.51C51.6715 213.937 51.5448 213.497 51.2915 213.19C51.0382 212.877 50.7148 212.72 50.3215 212.72C49.9748 212.72 49.6615 212.86 49.3815 213.14C49.1082 213.42 48.9715 213.85 48.9715 214.43C48.9715 215.03 49.1048 215.477 49.3715 215.77C49.6382 216.063 49.9648 216.21 50.3515 216.21ZM48.9715 209.93V212.7C49.3315 212.14 49.8415 211.86 50.5015 211.86C51.1415 211.86 51.6648 212.1 52.0715 212.58C52.4782 213.06 52.6815 213.697 52.6815 214.49C52.6815 215.203 52.4882 215.813 52.1015 216.32C51.7148 216.82 51.1848 217.07 50.5115 217.07C49.8382 217.07 49.3248 216.79 48.9715 216.23V217H47.9815V209.93H48.9715ZM56.4518 214.74H55.6918C55.3185 214.74 55.0351 214.813 54.8418 214.96C54.6551 215.107 54.5618 215.293 54.5618 215.52C54.5618 215.753 54.6351 215.937 54.7818 216.07C54.9285 216.203 55.1418 216.27 55.4218 216.27C55.7418 216.27 55.9918 216.183 56.1718 216.01C56.3585 215.83 56.4518 215.597 56.4518 215.31V214.74ZM53.9018 213.14V212.19C54.2951 211.963 54.8151 211.85 55.4618 211.85C56.7885 211.85 57.4518 212.493 57.4518 213.78V217H56.4818V216.4C56.2218 216.827 55.7651 217.04 55.1118 217.04C54.6318 217.04 54.2451 216.903 53.9518 216.63C53.6651 216.35 53.5218 215.997 53.5218 215.57C53.5218 215.083 53.7051 214.707 54.0718 214.44C54.4385 214.167 54.9518 214.03 55.6118 214.03H56.4518V213.74C56.4518 213.393 56.3685 213.133 56.2018 212.96C56.0351 212.78 55.7585 212.69 55.3718 212.69C54.8318 212.69 54.3418 212.84 53.9018 213.14ZM60.042 212.69V215.48C60.042 215.967 60.2754 216.21 60.742 216.21C61.0154 216.21 61.2454 216.137 61.432 215.99V216.87C61.212 216.99 60.942 217.05 60.622 217.05C59.5754 217.05 59.052 216.52 59.052 215.46V212.69H58.262V211.93H59.052V210.69H60.042V211.93H61.372V212.69H60.042ZM64.9732 217V210H65.9532V217H64.9732ZM67.1232 214.35L69.1132 217H67.9432L65.9932 214.35L67.9032 211.93H69.0532L67.1232 214.35ZM73.1232 214.1V213.92C73.1099 213.54 73.0065 213.24 72.8132 213.02C72.6199 212.793 72.3432 212.68 71.9832 212.68C71.6499 212.68 71.3632 212.803 71.1232 213.05C70.8832 213.29 70.7332 213.64 70.6732 214.1H73.1232ZM73.7532 215.85V216.73C73.3799 216.943 72.8865 217.05 72.2732 217.05C71.4865 217.05 70.8599 216.813 70.3932 216.34C69.9265 215.867 69.6932 215.247 69.6932 214.48C69.6932 213.667 69.9065 213.03 70.3332 212.57C70.7599 212.103 71.3032 211.87 71.9632 211.87C72.6099 211.87 73.1232 212.073 73.5032 212.48C73.8832 212.88 74.0732 213.46 74.0732 214.22C74.0732 214.427 74.0532 214.643 74.0132 214.87H70.6832C70.7499 215.31 70.9365 215.647 71.2432 215.88C71.5499 216.113 71.9365 216.23 72.4032 216.23C72.9432 216.23 73.3932 216.103 73.7532 215.85ZM77.6171 216.21C77.9904 216.21 78.3038 216.053 78.5571 215.74C78.8104 215.42 78.9371 215.01 78.9371 214.51C78.9371 213.937 78.8104 213.497 78.5571 213.19C78.3038 212.877 77.9804 212.72 77.5871 212.72C77.2404 212.72 76.9271 212.86 76.6471 213.14C76.3738 213.42 76.2371 213.85 76.2371 214.43C76.2371 215.03 76.3704 215.477 76.6371 215.77C76.9038 216.063 77.2304 216.21 77.6171 216.21ZM76.2371 209.93V212.7C76.5971 212.14 77.1071 211.86 77.7671 211.86C78.4071 211.86 78.9304 212.1 79.3371 212.58C79.7438 213.06 79.9471 213.697 79.9471 214.49C79.9471 215.203 79.7538 215.813 79.3671 216.32C78.9804 216.82 78.4504 217.07 77.7771 217.07C77.1038 217.07 76.5904 216.79 76.2371 216.23V217H75.2471V209.93H76.2371ZM81.0874 217V211.93H82.0774V217H81.0874ZM81.1374 210.82C81.0241 210.7 80.9674 210.553 80.9674 210.38C80.9674 210.207 81.0241 210.06 81.1374 209.94C81.2574 209.82 81.4041 209.76 81.5774 209.76C81.7508 209.76 81.8974 209.82 82.0174 209.94C82.1374 210.06 82.1974 210.207 82.1974 210.38C82.1974 210.547 82.1374 210.69 82.0174 210.81C81.8974 210.93 81.7508 210.99 81.5774 210.99C81.4041 210.99 81.2574 210.933 81.1374 210.82ZM86.1686 214.74H85.4086C85.0353 214.74 84.7519 214.813 84.5586 214.96C84.3719 215.107 84.2786 215.293 84.2786 215.52C84.2786 215.753 84.3519 215.937 84.4986 216.07C84.6453 216.203 84.8586 216.27 85.1386 216.27C85.4586 216.27 85.7086 216.183 85.8886 216.01C86.0753 215.83 86.1686 215.597 86.1686 215.31V214.74ZM83.6186 213.14V212.19C84.0119 211.963 84.5319 211.85 85.1786 211.85C86.5053 211.85 87.1686 212.493 87.1686 213.78V217H86.1986V216.4C85.9386 216.827 85.4819 217.04 84.8286 217.04C84.3486 217.04 83.9619 216.903 83.6686 216.63C83.3819 216.35 83.2386 215.997 83.2386 215.57C83.2386 215.083 83.4219 214.707 83.7886 214.44C84.1553 214.167 84.6686 214.03 85.3286 214.03H86.1686V213.74C86.1686 213.393 86.0853 213.133 85.9186 212.96C85.7519 212.78 85.4753 212.69 85.0886 212.69C84.5486 212.69 84.0586 212.84 83.6186 213.14ZM91.3788 212.1V212.99C91.0522 212.797 90.6322 212.7 90.1188 212.7C89.8855 212.7 89.6988 212.753 89.5588 212.86C89.4255 212.967 89.3588 213.107 89.3588 213.28C89.3588 213.327 89.3622 213.373 89.3688 213.42C89.3822 213.46 89.4022 213.503 89.4288 213.55C89.4555 213.59 89.4788 213.627 89.4988 213.66C89.5255 213.687 89.5655 213.717 89.6188 213.75C89.6722 213.783 89.7122 213.813 89.7388 213.84C89.7722 213.86 89.8222 213.887 89.8888 213.92C89.9622 213.953 90.0155 213.98 90.0488 214C90.0822 214.013 90.1388 214.04 90.2188 214.08C90.3055 214.113 90.3655 214.137 90.3988 214.15C90.7922 214.323 91.0988 214.52 91.3188 214.74C91.5455 214.953 91.6588 215.24 91.6588 215.6C91.6588 216.053 91.4988 216.41 91.1788 216.67C90.8588 216.923 90.4255 217.05 89.8788 217.05C89.2788 217.05 88.7788 216.95 88.3788 216.75V215.82C88.8455 216.107 89.3288 216.25 89.8288 216.25C90.0888 216.25 90.2888 216.197 90.4288 216.09C90.5755 215.983 90.6488 215.843 90.6488 215.67C90.6488 215.523 90.5922 215.393 90.4788 215.28C90.3655 215.16 90.2488 215.073 90.1288 215.02C90.0155 214.96 89.8188 214.87 89.5388 214.75C88.7455 214.423 88.3488 213.943 88.3488 213.31C88.3488 212.863 88.5155 212.513 88.8488 212.26C89.1822 212.007 89.5988 211.88 90.0988 211.88C90.6455 211.88 91.0722 211.953 91.3788 212.1ZM95.3483 214.74H94.5883C94.2149 214.74 93.9316 214.813 93.7383 214.96C93.5516 215.107 93.4583 215.293 93.4583 215.52C93.4583 215.753 93.5316 215.937 93.6783 216.07C93.8249 216.203 94.0383 216.27 94.3183 216.27C94.6383 216.27 94.8883 216.183 95.0683 216.01C95.2549 215.83 95.3483 215.597 95.3483 215.31V214.74ZM92.7983 213.14V212.19C93.1916 211.963 93.7116 211.85 94.3583 211.85C95.6849 211.85 96.3483 212.493 96.3483 213.78V217H95.3783V216.4C95.1183 216.827 94.6616 217.04 94.0083 217.04C93.5283 217.04 93.1416 216.903 92.8483 216.63C92.5616 216.35 92.4183 215.997 92.4183 215.57C92.4183 215.083 92.6016 214.707 92.9683 214.44C93.3349 214.167 93.8483 214.03 94.5083 214.03H95.3483V213.74C95.3483 213.393 95.2649 213.133 95.0983 212.96C94.9316 212.78 94.6549 212.69 94.2683 212.69C93.7283 212.69 93.2383 212.84 92.7983 213.14ZM100.339 214.74H99.5785C99.2052 214.74 98.9218 214.813 98.7285 214.96C98.5418 215.107 98.4485 215.293 98.4485 215.52C98.4485 215.753 98.5218 215.937 98.6685 216.07C98.8152 216.203 99.0285 216.27 99.3085 216.27C99.6285 216.27 99.8785 216.183 100.059 216.01C100.245 215.83 100.339 215.597 100.339 215.31V214.74ZM97.7885 213.14V212.19C98.1818 211.963 98.7018 211.85 99.3485 211.85C100.675 211.85 101.339 212.493 101.339 213.78V217H100.369V216.4C100.109 216.827 99.6518 217.04 98.9985 217.04C98.5185 217.04 98.1318 216.903 97.8385 216.63C97.5518 216.35 97.4085 215.997 97.4085 215.57C97.4085 215.083 97.5918 214.707 97.9585 214.44C98.3252 214.167 98.8385 214.03 99.4985 214.03H100.339V213.74C100.339 213.393 100.255 213.133 100.089 212.96C99.9218 212.78 99.6452 212.69 99.2585 212.69C98.7185 212.69 98.2285 212.84 97.7885 213.14ZM103.639 211.93V212.8C103.939 212.173 104.465 211.86 105.219 211.86C105.719 211.86 106.115 212.013 106.409 212.32C106.702 212.627 106.849 213.043 106.849 213.57V217H105.869V213.8C105.869 213.447 105.779 213.177 105.599 212.99C105.425 212.803 105.192 212.71 104.899 212.71C104.552 212.71 104.255 212.847 104.009 213.12C103.762 213.387 103.639 213.763 103.639 214.25V217H102.659V211.93H103.639ZM113.298 214.74H112.538C112.164 214.74 111.881 214.813 111.688 214.96C111.501 215.107 111.407 215.293 111.407 215.52C111.407 215.753 111.481 215.937 111.628 216.07C111.774 216.203 111.988 216.27 112.268 216.27C112.588 216.27 112.838 216.183 113.018 216.01C113.204 215.83 113.298 215.597 113.298 215.31V214.74ZM110.748 213.14V212.19C111.141 211.963 111.661 211.85 112.308 211.85C113.634 211.85 114.298 212.493 114.298 213.78V217H113.328V216.4C113.068 216.827 112.611 217.04 111.958 217.04C111.478 217.04 111.091 216.903 110.798 216.63C110.511 216.35 110.368 215.997 110.368 215.57C110.368 215.083 110.551 214.707 110.918 214.44C111.284 214.167 111.798 214.03 112.458 214.03H113.298V213.74C113.298 213.393 113.214 213.133 113.048 212.96C112.881 212.78 112.604 212.69 112.218 212.69C111.678 212.69 111.188 212.84 110.748 213.14ZM116.598 211.93V212.8C116.898 212.173 117.424 211.86 118.178 211.86C118.678 211.86 119.074 212.013 119.368 212.32C119.661 212.627 119.808 213.043 119.808 213.57V217H118.828V213.8C118.828 213.447 118.738 213.177 118.558 212.99C118.384 212.803 118.151 212.71 117.858 212.71C117.511 212.71 117.214 212.847 116.968 213.12C116.721 213.387 116.598 213.763 116.598 214.25V217H115.618V211.93H116.598ZM123.176 216.21C123.562 216.21 123.889 216.063 124.156 215.77C124.422 215.477 124.556 215.03 124.556 214.43C124.556 213.85 124.416 213.42 124.136 213.14C123.862 212.86 123.552 212.72 123.206 212.72C122.812 212.72 122.489 212.877 122.236 213.19C121.982 213.497 121.856 213.937 121.856 214.51C121.856 215.017 121.979 215.427 122.226 215.74C122.479 216.053 122.796 216.21 123.176 216.21ZM124.556 209.93H125.546V217H124.556V216.23C124.202 216.79 123.686 217.07 123.006 217.07C122.339 217.07 121.812 216.82 121.426 216.32C121.039 215.813 120.846 215.203 120.846 214.49C120.846 213.697 121.049 213.06 121.456 212.58C121.862 212.1 122.386 211.86 123.026 211.86C123.686 211.86 124.196 212.14 124.556 212.7V209.93ZM129.596 214.74H128.836C128.463 214.74 128.18 214.813 127.986 214.96C127.8 215.107 127.706 215.293 127.706 215.52C127.706 215.753 127.78 215.937 127.926 216.07C128.073 216.203 128.286 216.27 128.566 216.27C128.886 216.27 129.136 216.183 129.316 216.01C129.503 215.83 129.596 215.597 129.596 215.31V214.74ZM127.046 213.14V212.19C127.44 211.963 127.96 211.85 128.606 211.85C129.933 211.85 130.596 212.493 130.596 213.78V217H129.626V216.4C129.366 216.827 128.91 217.04 128.256 217.04C127.776 217.04 127.39 216.903 127.096 216.63C126.81 216.35 126.666 215.997 126.666 215.57C126.666 215.083 126.85 214.707 127.216 214.44C127.583 214.167 128.096 214.03 128.756 214.03H129.596V213.74C129.596 213.393 129.513 213.133 129.346 212.96C129.18 212.78 128.903 212.69 128.516 212.69C127.976 212.69 127.486 212.84 127.046 213.14ZM134.378 217V210H135.358V217H134.378ZM136.528 214.35L138.518 217H137.348L135.398 214.35L137.308 211.93H138.458L136.528 214.35ZM142.528 211.93H143.508V217H142.528V216.13C142.261 216.75 141.734 217.06 140.948 217.06C140.448 217.06 140.051 216.913 139.758 216.62C139.464 216.32 139.318 215.91 139.318 215.39V211.93H140.308V215.15C140.308 215.497 140.391 215.763 140.558 215.95C140.731 216.13 140.968 216.22 141.268 216.22C141.648 216.22 141.951 216.087 142.178 215.82C142.411 215.553 142.528 215.177 142.528 214.69V211.93ZM145.865 211.93V212.82C146.112 212.193 146.555 211.88 147.195 211.88C147.289 211.88 147.392 211.89 147.505 211.91V212.87C147.365 212.81 147.209 212.78 147.035 212.78C146.695 212.78 146.415 212.93 146.195 213.23C145.975 213.53 145.865 213.887 145.865 214.3V217H144.885V211.93H145.865ZM150.944 214.74H150.184C149.811 214.74 149.527 214.813 149.334 214.96C149.147 215.107 149.054 215.293 149.054 215.52C149.054 215.753 149.127 215.937 149.274 216.07C149.421 216.203 149.634 216.27 149.914 216.27C150.234 216.27 150.484 216.183 150.664 216.01C150.851 215.83 150.944 215.597 150.944 215.31V214.74ZM148.394 213.14V212.19C148.787 211.963 149.307 211.85 149.954 211.85C151.281 211.85 151.944 212.493 151.944 213.78V217H150.974V216.4C150.714 216.827 150.257 217.04 149.604 217.04C149.124 217.04 148.737 216.903 148.444 216.63C148.157 216.35 148.014 215.997 148.014 215.57C148.014 215.083 148.197 214.707 148.564 214.44C148.931 214.167 149.444 214.03 150.104 214.03H150.944V213.74C150.944 213.393 150.861 213.133 150.694 212.96C150.527 212.78 150.251 212.69 149.864 212.69C149.324 212.69 148.834 212.84 148.394 213.14ZM154.244 211.93V212.8C154.544 212.173 155.071 211.86 155.824 211.86C156.324 211.86 156.721 212.013 157.014 212.32C157.308 212.627 157.454 213.043 157.454 213.57V217H156.474V213.8C156.474 213.447 156.384 213.177 156.204 212.99C156.031 212.803 155.798 212.71 155.504 212.71C155.158 212.71 154.861 212.847 154.614 213.12C154.368 213.387 154.244 213.763 154.244 214.25V217H153.264V211.93H154.244ZM160.772 216.02C161.119 216.02 161.419 215.887 161.672 215.62C161.932 215.347 162.062 214.967 162.062 214.48C162.062 213.88 161.939 213.437 161.692 213.15C161.452 212.863 161.159 212.72 160.812 212.72C160.419 212.72 160.109 212.877 159.882 213.19C159.655 213.497 159.542 213.903 159.542 214.41C159.542 214.937 159.662 215.337 159.902 215.61C160.149 215.883 160.439 216.02 160.772 216.02ZM162.062 211.93H163.042V216.57C163.042 217.35 162.819 217.937 162.372 218.33C161.932 218.73 161.365 218.93 160.672 218.93C160.019 218.93 159.469 218.82 159.022 218.6V217.61C159.449 217.89 159.965 218.03 160.572 218.03C161.565 218.03 162.062 217.54 162.062 216.56V216.04C161.735 216.587 161.245 216.86 160.592 216.86C160.019 216.86 159.529 216.65 159.122 216.23C158.715 215.803 158.512 215.203 158.512 214.43C158.512 213.683 158.702 213.07 159.082 212.59C159.462 212.103 159.965 211.86 160.592 211.86C161.265 211.86 161.755 212.147 162.062 212.72V211.93ZM167.799 211.93V212.74C168.086 212.153 168.562 211.86 169.229 211.86C169.989 211.86 170.476 212.187 170.689 212.84C170.829 212.527 171.032 212.287 171.299 212.12C171.566 211.947 171.866 211.86 172.199 211.86C172.719 211.86 173.112 212.013 173.379 212.32C173.652 212.627 173.789 213.05 173.789 213.59V217H172.809V213.8C172.809 213.073 172.516 212.71 171.929 212.71C171.636 212.71 171.372 212.84 171.139 213.1C170.912 213.36 170.799 213.743 170.799 214.25V217H169.819V213.8C169.819 213.073 169.522 212.71 168.929 212.71C168.642 212.71 168.382 212.84 168.149 213.1C167.916 213.36 167.799 213.743 167.799 214.25V217H166.819V211.93H167.799ZM175.16 217V211.93H176.15V217H175.16ZM175.21 210.82C175.096 210.7 175.04 210.553 175.04 210.38C175.04 210.207 175.096 210.06 175.21 209.94C175.33 209.82 175.476 209.76 175.65 209.76C175.823 209.76 175.97 209.82 176.09 209.94C176.21 210.06 176.27 210.207 176.27 210.38C176.27 210.547 176.21 210.69 176.09 210.81C175.97 210.93 175.823 210.99 175.65 210.99C175.476 210.99 175.33 210.933 175.21 210.82ZM178.551 211.93V212.8C178.851 212.173 179.378 211.86 180.131 211.86C180.631 211.86 181.028 212.013 181.321 212.32C181.614 212.627 181.761 213.043 181.761 213.57V217H180.781V213.8C180.781 213.447 180.691 213.177 180.511 212.99C180.338 212.803 180.104 212.71 179.811 212.71C179.464 212.71 179.168 212.847 178.921 213.12C178.674 213.387 178.551 213.763 178.551 214.25V217H177.571V211.93H178.551ZM186.229 211.93H187.209V217H186.229V216.13C185.962 216.75 185.435 217.06 184.649 217.06C184.149 217.06 183.752 216.913 183.459 216.62C183.165 216.32 183.019 215.91 183.019 215.39V211.93H184.009V215.15C184.009 215.497 184.092 215.763 184.259 215.95C184.432 216.13 184.669 216.22 184.969 216.22C185.349 216.22 185.652 216.087 185.879 215.82C186.112 215.553 186.229 215.177 186.229 214.69V211.93ZM189.566 211.93V212.74C189.853 212.153 190.33 211.86 190.996 211.86C191.756 211.86 192.243 212.187 192.456 212.84C192.596 212.527 192.8 212.287 193.066 212.12C193.333 211.947 193.633 211.86 193.966 211.86C194.486 211.86 194.88 212.013 195.146 212.32C195.42 212.627 195.556 213.05 195.556 213.59V217H194.576V213.8C194.576 213.073 194.283 212.71 193.696 212.71C193.403 212.71 193.14 212.84 192.906 213.1C192.68 213.36 192.566 213.743 192.566 214.25V217H191.586V213.8C191.586 213.073 191.29 212.71 190.696 212.71C190.41 212.71 190.15 212.84 189.916 213.1C189.683 213.36 189.566 213.743 189.566 214.25V217H188.586V211.93H189.566ZM202.018 214.74H201.258C200.885 214.74 200.602 214.813 200.408 214.96C200.222 215.107 200.128 215.293 200.128 215.52C200.128 215.753 200.202 215.937 200.348 216.07C200.495 216.203 200.708 216.27 200.988 216.27C201.308 216.27 201.558 216.183 201.738 216.01C201.925 215.83 202.018 215.597 202.018 215.31V214.74ZM199.468 213.14V212.19C199.862 211.963 200.382 211.85 201.028 211.85C202.355 211.85 203.018 212.493 203.018 213.78V217H202.048V216.4C201.788 216.827 201.332 217.04 200.678 217.04C200.198 217.04 199.812 216.903 199.518 216.63C199.232 216.35 199.088 215.997 199.088 215.57C199.088 215.083 199.272 214.707 199.638 214.44C200.005 214.167 200.518 214.03 201.178 214.03H202.018V213.74C202.018 213.393 201.935 213.133 201.768 212.96C201.602 212.78 201.325 212.69 200.938 212.69C200.398 212.69 199.908 212.84 199.468 213.14ZM204.378 217V211.93H205.368V217H204.378ZM204.428 210.82C204.315 210.7 204.258 210.553 204.258 210.38C204.258 210.207 204.315 210.06 204.428 209.94C204.548 209.82 204.695 209.76 204.868 209.76C205.042 209.76 205.188 209.82 205.308 209.94C205.428 210.06 205.488 210.207 205.488 210.38C205.488 210.547 205.428 210.69 205.308 210.81C205.188 210.93 205.042 210.99 204.868 210.99C204.695 210.99 204.548 210.933 204.428 210.82ZM207.77 211.93V212.82C208.016 212.193 208.46 211.88 209.1 211.88C209.193 211.88 209.296 211.89 209.41 211.91V212.87C209.27 212.81 209.113 212.78 208.94 212.78C208.6 212.78 208.32 212.93 208.1 213.23C207.88 213.53 207.77 213.887 207.77 214.3V217H206.79V211.93H207.77ZM214.979 216.21C215.373 216.21 215.696 216.057 215.949 215.75C216.203 215.437 216.329 215 216.329 214.44C216.329 213.913 216.206 213.497 215.959 213.19C215.713 212.877 215.399 212.72 215.019 212.72C214.639 212.72 214.309 212.86 214.029 213.14C213.756 213.413 213.619 213.85 213.619 214.45C213.619 215.037 213.756 215.477 214.029 215.77C214.309 216.063 214.626 216.21 214.979 216.21ZM213.619 211.93V212.71C213.966 212.143 214.486 211.86 215.179 211.86C215.846 211.86 216.373 212.103 216.759 212.59C217.146 213.07 217.339 213.683 217.339 214.43C217.339 215.197 217.139 215.83 216.739 216.33C216.346 216.823 215.819 217.07 215.159 217.07C214.486 217.07 213.973 216.79 213.619 216.23V218.94H212.639V211.93H213.619ZM221.59 211.93H222.57V217H221.59V216.13C221.323 216.75 220.797 217.06 220.01 217.06C219.51 217.06 219.113 216.913 218.82 216.62C218.527 216.32 218.38 215.91 218.38 215.39V211.93H219.37V215.15C219.37 215.497 219.453 215.763 219.62 215.95C219.793 216.13 220.03 216.22 220.33 216.22C220.71 216.22 221.013 216.087 221.24 215.82C221.473 215.553 221.59 215.177 221.59 214.69V211.93ZM225.218 212.69V215.48C225.218 215.967 225.451 216.21 225.918 216.21C226.191 216.21 226.421 216.137 226.608 215.99V216.87C226.388 216.99 226.118 217.05 225.798 217.05C224.751 217.05 224.228 216.52 224.228 215.46V212.69H223.438V211.93H224.228V210.69H225.218V211.93H226.548V212.69H225.218ZM227.728 217V211.93H228.718V217H227.728ZM227.778 210.82C227.665 210.7 227.608 210.553 227.608 210.38C227.608 210.207 227.665 210.06 227.778 209.94C227.898 209.82 228.045 209.76 228.218 209.76C228.391 209.76 228.538 209.82 228.658 209.94C228.778 210.06 228.838 210.207 228.838 210.38C228.838 210.547 228.778 210.69 228.658 210.81C228.538 210.93 228.391 210.99 228.218 210.99C228.045 210.99 227.898 210.933 227.778 210.82ZM231.119 209.93V212.8C231.406 212.173 231.929 211.86 232.689 211.86C233.183 211.86 233.579 212.013 233.879 212.32C234.179 212.627 234.329 213.053 234.329 213.6V217H233.349V213.8C233.349 213.453 233.259 213.187 233.079 213C232.906 212.807 232.676 212.71 232.389 212.71C232.056 212.71 231.759 212.837 231.499 213.09C231.246 213.343 231.119 213.73 231.119 214.25V217H230.139V209.93H231.119ZM234.877 218.24L235.837 215.9H237.047L235.737 218.24H234.877ZM242.609 216.21C242.996 216.21 243.322 216.063 243.589 215.77C243.856 215.477 243.989 215.03 243.989 214.43C243.989 213.85 243.849 213.42 243.569 213.14C243.296 212.86 242.986 212.72 242.639 212.72C242.246 212.72 241.922 212.877 241.669 213.19C241.416 213.497 241.289 213.937 241.289 214.51C241.289 215.017 241.412 215.427 241.659 215.74C241.912 216.053 242.229 216.21 242.609 216.21ZM243.989 209.93H244.979V217H243.989V216.23C243.636 216.79 243.119 217.07 242.439 217.07C241.772 217.07 241.246 216.82 240.859 216.32C240.472 215.813 240.279 215.203 240.279 214.49C240.279 213.697 240.482 213.06 240.889 212.58C241.296 212.1 241.819 211.86 242.459 211.86C243.119 211.86 243.629 212.14 243.989 212.7V209.93ZM249.03 214.74H248.27C247.897 214.74 247.613 214.813 247.42 214.96C247.233 215.107 247.14 215.293 247.14 215.52C247.14 215.753 247.213 215.937 247.36 216.07C247.507 216.203 247.72 216.27 248 216.27C248.32 216.27 248.57 216.183 248.75 216.01C248.937 215.83 249.03 215.597 249.03 215.31V214.74ZM246.48 213.14V212.19C246.873 211.963 247.393 211.85 248.04 211.85C249.367 211.85 250.03 212.493 250.03 213.78V217H249.06V216.4C248.8 216.827 248.343 217.04 247.69 217.04C247.21 217.04 246.823 216.903 246.53 216.63C246.243 216.35 246.1 215.997 246.1 215.57C246.1 215.083 246.283 214.707 246.65 214.44C247.017 214.167 247.53 214.03 248.19 214.03H249.03V213.74C249.03 213.393 248.947 213.133 248.78 212.96C248.613 212.78 248.337 212.69 247.95 212.69C247.41 212.69 246.92 212.84 246.48 213.14ZM252.33 211.93V212.8C252.63 212.173 253.157 211.86 253.91 211.86C254.41 211.86 254.807 212.013 255.1 212.32C255.393 212.627 255.54 213.043 255.54 213.57V217H254.56V213.8C254.56 213.447 254.47 213.177 254.29 212.99C254.117 212.803 253.883 212.71 253.59 212.71C253.243 212.71 252.947 212.847 252.7 213.12C252.453 213.387 252.33 213.763 252.33 214.25V217H251.35V211.93H252.33ZM261.369 216.21C261.756 216.21 262.082 216.063 262.349 215.77C262.616 215.477 262.749 215.03 262.749 214.43C262.749 213.85 262.609 213.42 262.329 213.14C262.056 212.86 261.746 212.72 261.399 212.72C261.006 212.72 260.682 212.877 260.429 213.19C260.176 213.497 260.049 213.937 260.049 214.51C260.049 215.017 260.172 215.427 260.419 215.74C260.672 216.053 260.989 216.21 261.369 216.21ZM262.749 209.93H263.739V217H262.749V216.23C262.396 216.79 261.879 217.07 261.199 217.07C260.532 217.07 260.006 216.82 259.619 216.32C259.232 215.813 259.039 215.203 259.039 214.49C259.039 213.697 259.242 213.06 259.649 212.58C260.056 212.1 260.579 211.86 261.219 211.86C261.879 211.86 262.389 212.14 262.749 212.7V209.93ZM265.16 217V211.93H266.15V217H265.16ZM265.21 210.82C265.096 210.7 265.04 210.553 265.04 210.38C265.04 210.207 265.096 210.06 265.21 209.94C265.33 209.82 265.476 209.76 265.65 209.76C265.823 209.76 265.97 209.82 266.09 209.94C266.21 210.06 266.27 210.207 266.27 210.38C266.27 210.547 266.21 210.69 266.09 210.81C265.97 210.93 265.823 210.99 265.65 210.99C265.476 210.99 265.33 210.933 265.21 210.82ZM269.911 216.21C270.304 216.21 270.628 216.057 270.881 215.75C271.134 215.437 271.261 215 271.261 214.44C271.261 213.913 271.138 213.497 270.891 213.19C270.644 212.877 270.331 212.72 269.951 212.72C269.571 212.72 269.241 212.86 268.961 213.14C268.688 213.413 268.551 213.85 268.551 214.45C268.551 215.037 268.688 215.477 268.961 215.77C269.241 216.063 269.558 216.21 269.911 216.21ZM268.551 211.93V212.71C268.898 212.143 269.418 211.86 270.111 211.86C270.778 211.86 271.304 212.103 271.691 212.59C272.078 213.07 272.271 213.683 272.271 214.43C272.271 215.197 272.071 215.83 271.671 216.33C271.278 216.823 270.751 217.07 270.091 217.07C269.418 217.07 268.904 216.79 268.551 216.23V218.94H267.571V211.93H268.551ZM276.522 214.1V213.92C276.508 213.54 276.405 213.24 276.212 213.02C276.018 212.793 275.742 212.68 275.382 212.68C275.048 212.68 274.762 212.803 274.522 213.05C274.282 213.29 274.132 213.64 274.072 214.1H276.522ZM277.152 215.85V216.73C276.778 216.943 276.285 217.05 275.672 217.05C274.885 217.05 274.258 216.813 273.792 216.34C273.325 215.867 273.092 215.247 273.092 214.48C273.092 213.667 273.305 213.03 273.732 212.57C274.158 212.103 274.702 211.87 275.362 211.87C276.008 211.87 276.522 212.073 276.902 212.48C277.282 212.88 277.472 213.46 277.472 214.22C277.472 214.427 277.452 214.643 277.412 214.87H274.082C274.148 215.31 274.335 215.647 274.642 215.88C274.948 216.113 275.335 216.23 275.802 216.23C276.342 216.23 276.792 216.103 277.152 215.85ZM279.606 211.93V212.82C279.852 212.193 280.296 211.88 280.936 211.88C281.029 211.88 281.132 211.89 281.246 211.91V212.87C281.106 212.81 280.949 212.78 280.776 212.78C280.436 212.78 280.156 212.93 279.936 213.23C279.716 213.53 279.606 213.887 279.606 214.3V217H278.626V211.93H279.606ZM282.054 217V209.93H283.044V217H282.054ZM287.615 211.93H288.595V217H287.615V216.13C287.349 216.75 286.822 217.06 286.035 217.06C285.535 217.06 285.139 216.913 284.845 216.62C284.552 216.32 284.405 215.91 284.405 215.39V211.93H285.395V215.15C285.395 215.497 285.479 215.763 285.645 215.95C285.819 216.13 286.055 216.22 286.355 216.22C286.735 216.22 287.039 216.087 287.265 215.82C287.499 215.553 287.615 215.177 287.615 214.69V211.93ZM289.973 217V210H290.953V217H289.973ZM292.123 214.35L294.113 217H292.943L290.993 214.35L292.903 211.93H294.053L292.123 214.35ZM297.643 214.74H296.883C296.51 214.74 296.227 214.813 296.033 214.96C295.847 215.107 295.753 215.293 295.753 215.52C295.753 215.753 295.827 215.937 295.973 216.07C296.12 216.203 296.333 216.27 296.613 216.27C296.933 216.27 297.183 216.183 297.363 216.01C297.55 215.83 297.643 215.597 297.643 215.31V214.74ZM295.093 213.14V212.19C295.487 211.963 296.007 211.85 296.653 211.85C297.98 211.85 298.643 212.493 298.643 213.78V217H297.673V216.4C297.413 216.827 296.957 217.04 296.303 217.04C295.823 217.04 295.437 216.903 295.143 216.63C294.857 216.35 294.713 215.997 294.713 215.57C294.713 215.083 294.897 214.707 295.263 214.44C295.63 214.167 296.143 214.03 296.803 214.03H297.643V213.74C297.643 213.393 297.56 213.133 297.393 212.96C297.227 212.78 296.95 212.69 296.563 212.69C296.023 212.69 295.533 212.84 295.093 213.14ZM300.943 211.93V212.8C301.243 212.173 301.77 211.86 302.523 211.86C303.023 211.86 303.42 212.013 303.713 212.32C304.007 212.627 304.153 213.043 304.153 213.57V217H303.173V213.8C303.173 213.447 303.083 213.177 302.903 212.99C302.73 212.803 302.497 212.71 302.203 212.71C301.857 212.71 301.56 212.847 301.313 213.12C301.067 213.387 300.943 213.763 300.943 214.25V217H299.963V211.93H300.943ZM88.919 228.69V231.48C88.919 231.967 89.1523 232.21 89.619 232.21C89.8923 232.21 90.1223 232.137 90.309 231.99V232.87C90.089 232.99 89.819 233.05 89.499 233.05C88.4523 233.05 87.929 232.52 87.929 231.46V228.69H87.139V227.93H87.929V226.69H88.919V227.93H90.249V228.69H88.919ZM91.4292 233V227.93H92.4192V233H91.4292ZM91.4792 226.82C91.3659 226.7 91.3092 226.553 91.3092 226.38C91.3092 226.207 91.3659 226.06 91.4792 225.94C91.5992 225.82 91.7459 225.76 91.9192 225.76C92.0926 225.76 92.2392 225.82 92.3592 225.94C92.4792 226.06 92.5392 226.207 92.5392 226.38C92.5392 226.547 92.4792 226.69 92.3592 226.81C92.2392 226.93 92.0926 226.99 91.9192 226.99C91.7459 226.99 91.5992 226.933 91.4792 226.82ZM94.8204 227.93V228.8C95.1204 228.173 95.6471 227.86 96.4004 227.86C96.9004 227.86 97.2971 228.013 97.5904 228.32C97.8837 228.627 98.0304 229.043 98.0304 229.57V233H97.0504V229.8C97.0504 229.447 96.9604 229.177 96.7804 228.99C96.6071 228.803 96.3737 228.71 96.0804 228.71C95.7337 228.71 95.4371 228.847 95.1904 229.12C94.9437 229.387 94.8204 229.763 94.8204 230.25V233H93.8404V227.93H94.8204ZM101.398 232.21C101.785 232.21 102.112 232.063 102.378 231.77C102.645 231.477 102.778 231.03 102.778 230.43C102.778 229.85 102.638 229.42 102.358 229.14C102.085 228.86 101.775 228.72 101.428 228.72C101.035 228.72 100.712 228.877 100.458 229.19C100.205 229.497 100.078 229.937 100.078 230.51C100.078 231.017 100.202 231.427 100.448 231.74C100.702 232.053 101.018 232.21 101.398 232.21ZM102.778 225.93H103.768V233H102.778V232.23C102.425 232.79 101.908 233.07 101.228 233.07C100.562 233.07 100.035 232.82 99.6482 232.32C99.2615 231.813 99.0682 231.203 99.0682 230.49C99.0682 229.697 99.2715 229.06 99.6782 228.58C100.085 228.1 100.608 227.86 101.248 227.86C101.908 227.86 102.418 228.14 102.778 228.7V225.93ZM107.819 230.74H107.059C106.686 230.74 106.402 230.813 106.209 230.96C106.022 231.107 105.929 231.293 105.929 231.52C105.929 231.753 106.002 231.937 106.149 232.07C106.296 232.203 106.509 232.27 106.789 232.27C107.109 232.27 107.359 232.183 107.539 232.01C107.726 231.83 107.819 231.597 107.819 231.31V230.74ZM105.269 229.14V228.19C105.662 227.963 106.182 227.85 106.829 227.85C108.156 227.85 108.819 228.493 108.819 229.78V233H107.849V232.4C107.589 232.827 107.132 233.04 106.479 233.04C105.999 233.04 105.612 232.903 105.319 232.63C105.032 232.35 104.889 231.997 104.889 231.57C104.889 231.083 105.072 230.707 105.439 230.44C105.806 230.167 106.319 230.03 106.979 230.03H107.819V229.74C107.819 229.393 107.736 229.133 107.569 228.96C107.402 228.78 107.126 228.69 106.739 228.69C106.199 228.69 105.709 228.84 105.269 229.14ZM110.139 233V226H111.119V233H110.139ZM112.289 230.35L114.279 233H113.109L111.159 230.35L113.069 227.93H114.219L112.289 230.35ZM117.809 230.74H117.049C116.676 230.74 116.393 230.813 116.199 230.96C116.013 231.107 115.919 231.293 115.919 231.52C115.919 231.753 115.993 231.937 116.139 232.07C116.286 232.203 116.499 232.27 116.779 232.27C117.099 232.27 117.349 232.183 117.529 232.01C117.716 231.83 117.809 231.597 117.809 231.31V230.74ZM115.259 229.14V228.19C115.653 227.963 116.173 227.85 116.819 227.85C118.146 227.85 118.809 228.493 118.809 229.78V233H117.839V232.4C117.579 232.827 117.123 233.04 116.469 233.04C115.989 233.04 115.603 232.903 115.309 232.63C115.023 232.35 114.879 231.997 114.879 231.57C114.879 231.083 115.063 230.707 115.429 230.44C115.796 230.167 116.309 230.03 116.969 230.03H117.809V229.74C117.809 229.393 117.726 229.133 117.559 228.96C117.393 228.78 117.116 228.69 116.729 228.69C116.189 228.69 115.699 228.84 115.259 229.14ZM121.109 227.93V228.8C121.409 228.173 121.936 227.86 122.689 227.86C123.189 227.86 123.586 228.013 123.879 228.32C124.173 228.627 124.319 229.043 124.319 229.57V233H123.339V229.8C123.339 229.447 123.249 229.177 123.069 228.99C122.896 228.803 122.663 228.71 122.369 228.71C122.023 228.71 121.726 228.847 121.479 229.12C121.233 229.387 121.109 229.763 121.109 230.25V233H120.129V227.93H121.109ZM131.248 227.93H132.228V233H131.248V232.13C130.982 232.75 130.455 233.06 129.668 233.06C129.168 233.06 128.772 232.913 128.478 232.62C128.185 232.32 128.038 231.91 128.038 231.39V227.93H129.028V231.15C129.028 231.497 129.112 231.763 129.278 231.95C129.452 232.13 129.688 232.22 129.988 232.22C130.368 232.22 130.672 232.087 130.898 231.82C131.132 231.553 131.248 231.177 131.248 230.69V227.93ZM134.586 227.93V228.8C134.886 228.173 135.413 227.86 136.166 227.86C136.666 227.86 137.063 228.013 137.356 228.32C137.649 228.627 137.796 229.043 137.796 229.57V233H136.816V229.8C136.816 229.447 136.726 229.177 136.546 228.99C136.373 228.803 136.139 228.71 135.846 228.71C135.499 228.71 135.203 228.847 134.956 229.12C134.709 229.387 134.586 229.763 134.586 230.25V233H133.606V227.93H134.586ZM140.384 228.69V231.48C140.384 231.967 140.617 232.21 141.084 232.21C141.357 232.21 141.587 232.137 141.774 231.99V232.87C141.554 232.99 141.284 233.05 140.964 233.05C139.917 233.05 139.394 232.52 139.394 231.46V228.69H138.604V227.93H139.394V226.69H140.384V227.93H141.714V228.69H140.384ZM146.004 227.93H146.984V233H146.004V232.13C145.737 232.75 145.211 233.06 144.424 233.06C143.924 233.06 143.527 232.913 143.234 232.62C142.941 232.32 142.794 231.91 142.794 231.39V227.93H143.784V231.15C143.784 231.497 143.867 231.763 144.034 231.95C144.207 232.13 144.444 232.22 144.744 232.22C145.124 232.22 145.427 232.087 145.654 231.82C145.887 231.553 146.004 231.177 146.004 230.69V227.93ZM148.362 233V226H149.342V233H148.362ZM150.512 230.35L152.502 233H151.332L149.382 230.35L151.292 227.93H152.442L150.512 230.35ZM156.803 227.93V228.74C157.089 228.153 157.566 227.86 158.233 227.86C158.993 227.86 159.479 228.187 159.693 228.84C159.833 228.527 160.036 228.287 160.303 228.12C160.569 227.947 160.869 227.86 161.203 227.86C161.723 227.86 162.116 228.013 162.383 228.32C162.656 228.627 162.793 229.05 162.793 229.59V233H161.813V229.8C161.813 229.073 161.519 228.71 160.933 228.71C160.639 228.71 160.376 228.84 160.143 229.1C159.916 229.36 159.803 229.743 159.803 230.25V233H158.823V229.8C158.823 229.073 158.526 228.71 157.933 228.71C157.646 228.71 157.386 228.84 157.153 229.1C156.919 229.36 156.803 229.743 156.803 230.25V233H155.823V227.93H156.803ZM167.274 230.1V229.92C167.26 229.54 167.157 229.24 166.964 229.02C166.77 228.793 166.494 228.68 166.134 228.68C165.8 228.68 165.514 228.803 165.274 229.05C165.034 229.29 164.884 229.64 164.824 230.1H167.274ZM167.904 231.85V232.73C167.53 232.943 167.037 233.05 166.424 233.05C165.637 233.05 165.01 232.813 164.544 232.34C164.077 231.867 163.844 231.247 163.844 230.48C163.844 229.667 164.057 229.03 164.484 228.57C164.91 228.103 165.454 227.87 166.114 227.87C166.76 227.87 167.274 228.073 167.654 228.48C168.034 228.88 168.224 229.46 168.224 230.22C168.224 230.427 168.204 230.643 168.164 230.87H164.834C164.9 231.31 165.087 231.647 165.394 231.88C165.7 232.113 166.087 232.23 166.554 232.23C167.094 232.23 167.544 232.103 167.904 231.85ZM169.418 233V225.93H170.408V233H169.418ZM174.499 230.74H173.739C173.365 230.74 173.082 230.813 172.889 230.96C172.702 231.107 172.609 231.293 172.609 231.52C172.609 231.753 172.682 231.937 172.829 232.07C172.975 232.203 173.189 232.27 173.469 232.27C173.789 232.27 174.039 232.183 174.219 232.01C174.405 231.83 174.499 231.597 174.499 231.31V230.74ZM171.949 229.14V228.19C172.342 227.963 172.862 227.85 173.509 227.85C174.835 227.85 175.499 228.493 175.499 229.78V233H174.529V232.4C174.269 232.827 173.812 233.04 173.159 233.04C172.679 233.04 172.292 232.903 171.999 232.63C171.712 232.35 171.569 231.997 171.569 231.57C171.569 231.083 171.752 230.707 172.119 230.44C172.485 230.167 172.999 230.03 173.659 230.03H174.499V229.74C174.499 229.393 174.415 229.133 174.249 228.96C174.082 228.78 173.805 228.69 173.419 228.69C172.879 228.69 172.389 228.84 171.949 229.14ZM176.819 233V226H177.799V233H176.819ZM178.969 230.35L180.959 233H179.789L177.839 230.35L179.749 227.93H180.899L178.969 230.35ZM184.969 227.93H185.949V233H184.969V232.13C184.702 232.75 184.176 233.06 183.389 233.06C182.889 233.06 182.492 232.913 182.199 232.62C181.906 232.32 181.759 231.91 181.759 231.39V227.93H182.749V231.15C182.749 231.497 182.832 231.763 182.999 231.95C183.172 232.13 183.409 232.22 183.709 232.22C184.089 232.22 184.392 232.087 184.619 231.82C184.852 231.553 184.969 231.177 184.969 230.69V227.93ZM187.327 233V226H188.307V233H187.327ZM189.477 230.35L191.467 233H190.297L188.347 230.35L190.257 227.93H191.407L189.477 230.35ZM194.997 230.74H194.237C193.863 230.74 193.58 230.813 193.387 230.96C193.2 231.107 193.107 231.293 193.107 231.52C193.107 231.753 193.18 231.937 193.327 232.07C193.473 232.203 193.687 232.27 193.967 232.27C194.287 232.27 194.537 232.183 194.717 232.01C194.903 231.83 194.997 231.597 194.997 231.31V230.74ZM192.447 229.14V228.19C192.84 227.963 193.36 227.85 194.007 227.85C195.333 227.85 195.997 228.493 195.997 229.78V233H195.027V232.4C194.767 232.827 194.31 233.04 193.657 233.04C193.177 233.04 192.79 232.903 192.497 232.63C192.21 232.35 192.067 231.997 192.067 231.57C192.067 231.083 192.25 230.707 192.617 230.44C192.983 230.167 193.497 230.03 194.157 230.03H194.997V229.74C194.997 229.393 194.913 229.133 194.747 228.96C194.58 228.78 194.303 228.69 193.917 228.69C193.377 228.69 192.887 228.84 192.447 229.14ZM198.297 227.93V228.8C198.597 228.173 199.124 227.86 199.877 227.86C200.377 227.86 200.774 228.013 201.067 228.32C201.36 228.627 201.507 229.043 201.507 229.57V233H200.527V229.8C200.527 229.447 200.437 229.177 200.257 228.99C200.084 228.803 199.85 228.71 199.557 228.71C199.21 228.71 198.914 228.847 198.667 229.12C198.42 229.387 198.297 229.763 198.297 230.25V233H197.317V227.93H198.297ZM206.016 230.49C206.029 231.003 206.186 231.427 206.486 231.76C206.786 232.087 207.206 232.25 207.746 232.25C208.146 232.25 208.519 232.14 208.866 231.92V232.8C208.539 233 208.122 233.1 207.616 233.1C206.822 233.1 206.189 232.85 205.716 232.35C205.242 231.85 205.006 231.227 205.006 230.48C205.006 229.753 205.242 229.133 205.716 228.62C206.196 228.1 206.842 227.84 207.656 227.84C208.096 227.84 208.499 227.933 208.866 228.12V229.02C208.539 228.813 208.169 228.71 207.756 228.71C207.229 228.71 206.806 228.877 206.486 229.21C206.172 229.543 206.016 229.97 206.016 230.49ZM213.143 227.93H214.123V233H213.143V232.13C212.876 232.75 212.349 233.06 211.563 233.06C211.063 233.06 210.666 232.913 210.373 232.62C210.079 232.32 209.933 231.91 209.933 231.39V227.93H210.923V231.15C210.923 231.497 211.006 231.763 211.173 231.95C211.346 232.13 211.583 232.22 211.883 232.22C212.263 232.22 212.566 232.087 212.793 231.82C213.026 231.553 213.143 231.177 213.143 230.69V227.93ZM216.231 230.49C216.244 231.003 216.401 231.427 216.701 231.76C217.001 232.087 217.421 232.25 217.961 232.25C218.361 232.25 218.734 232.14 219.081 231.92V232.8C218.754 233 218.337 233.1 217.831 233.1C217.037 233.1 216.404 232.85 215.931 232.35C215.457 231.85 215.221 231.227 215.221 230.48C215.221 229.753 215.457 229.133 215.931 228.62C216.411 228.1 217.057 227.84 217.871 227.84C218.311 227.84 218.714 227.933 219.081 228.12V229.02C218.754 228.813 218.384 228.71 217.971 228.71C217.444 228.71 217.021 228.877 216.701 229.21C216.387 229.543 216.231 229.97 216.231 230.49ZM220.248 233V227.93H221.238V233H220.248ZM220.298 226.82C220.184 226.7 220.128 226.553 220.128 226.38C220.128 226.207 220.184 226.06 220.298 225.94C220.418 225.82 220.564 225.76 220.738 225.76C220.911 225.76 221.058 225.82 221.178 225.94C221.298 226.06 221.358 226.207 221.358 226.38C221.358 226.547 221.298 226.69 221.178 226.81C221.058 226.93 220.911 226.99 220.738 226.99C220.564 226.99 220.418 226.933 220.298 226.82ZM227.17 232.21C227.556 232.21 227.883 232.063 228.15 231.77C228.416 231.477 228.55 231.03 228.55 230.43C228.55 229.85 228.41 229.42 228.13 229.14C227.856 228.86 227.546 228.72 227.2 228.72C226.806 228.72 226.483 228.877 226.23 229.19C225.976 229.497 225.85 229.937 225.85 230.51C225.85 231.017 225.973 231.427 226.22 231.74C226.473 232.053 226.79 232.21 227.17 232.21ZM228.55 225.93H229.54V233H228.55V232.23C228.196 232.79 227.68 233.07 227 233.07C226.333 233.07 225.806 232.82 225.42 232.32C225.033 231.813 224.84 231.203 224.84 230.49C224.84 229.697 225.043 229.06 225.45 228.58C225.856 228.1 226.38 227.86 227.02 227.86C227.68 227.86 228.19 228.14 228.55 228.7V225.93ZM233.59 230.74H232.83C232.457 230.74 232.174 230.813 231.98 230.96C231.794 231.107 231.7 231.293 231.7 231.52C231.7 231.753 231.774 231.937 231.92 232.07C232.067 232.203 232.28 232.27 232.56 232.27C232.88 232.27 233.13 232.183 233.31 232.01C233.497 231.83 233.59 231.597 233.59 231.31V230.74ZM231.04 229.14V228.19C231.434 227.963 231.954 227.85 232.6 227.85C233.927 227.85 234.59 228.493 234.59 229.78V233H233.62V232.4C233.36 232.827 232.904 233.04 232.25 233.04C231.77 233.04 231.384 232.903 231.09 232.63C230.804 232.35 230.66 231.997 230.66 231.57C230.66 231.083 230.844 230.707 231.21 230.44C231.577 230.167 232.09 230.03 232.75 230.03H233.59V229.74C233.59 229.393 233.507 229.133 233.34 228.96C233.174 228.78 232.897 228.69 232.51 228.69C231.97 228.69 231.48 228.84 231.04 229.14ZM236.891 227.93V228.82C237.137 228.193 237.581 227.88 238.221 227.88C238.314 227.88 238.417 227.89 238.531 227.91V228.87C238.391 228.81 238.234 228.78 238.061 228.78C237.721 228.78 237.441 228.93 237.221 229.23C237.001 229.53 236.891 229.887 236.891 230.3V233H235.911V227.93H236.891ZM241.969 230.74H241.209C240.836 230.74 240.553 230.813 240.359 230.96C240.173 231.107 240.079 231.293 240.079 231.52C240.079 231.753 240.153 231.937 240.299 232.07C240.446 232.203 240.659 232.27 240.939 232.27C241.259 232.27 241.509 232.183 241.689 232.01C241.876 231.83 241.969 231.597 241.969 231.31V230.74ZM239.419 229.14V228.19C239.813 227.963 240.333 227.85 240.979 227.85C242.306 227.85 242.969 228.493 242.969 229.78V233H241.999V232.4C241.739 232.827 241.283 233.04 240.629 233.04C240.149 233.04 239.763 232.903 239.469 232.63C239.183 232.35 239.039 231.997 239.039 231.57C239.039 231.083 239.223 230.707 239.589 230.44C239.956 230.167 240.469 230.03 241.129 230.03H241.969V229.74C241.969 229.393 241.886 229.133 241.719 228.96C241.553 228.78 241.276 228.69 240.889 228.69C240.349 228.69 239.859 228.84 239.419 229.14ZM245.27 225.93V228.8C245.556 228.173 246.08 227.86 246.84 227.86C247.333 227.86 247.73 228.013 248.03 228.32C248.33 228.627 248.48 229.053 248.48 229.6V233H247.5V229.8C247.5 229.453 247.41 229.187 247.23 229C247.056 228.807 246.826 228.71 246.54 228.71C246.206 228.71 245.91 228.837 245.65 229.09C245.396 229.343 245.27 229.73 245.27 230.25V233H244.29V225.93H245.27ZM249.587 232.88C249.461 232.747 249.397 232.587 249.397 232.4C249.397 232.213 249.461 232.057 249.587 231.93C249.721 231.797 249.884 231.73 250.077 231.73C250.264 231.73 250.421 231.797 250.547 231.93C250.681 232.057 250.747 232.213 250.747 232.4C250.747 232.587 250.681 232.747 250.547 232.88C250.421 233.013 250.264 233.08 250.077 233.08C249.884 233.08 249.721 233.013 249.587 232.88ZM37.8987 248.15H39.2187C40.0653 248.15 40.4887 247.8 40.4887 247.1C40.4887 246.76 40.372 246.497 40.1387 246.31C39.912 246.117 39.572 246.02 39.1187 246.02H37.8987V248.15ZM37.8987 243.11V245.18H38.8287C39.3287 245.18 39.6987 245.08 39.9387 244.88C40.1853 244.673 40.3087 244.407 40.3087 244.08C40.3087 243.793 40.1987 243.56 39.9787 243.38C39.7653 243.2 39.4387 243.11 38.9987 243.11H37.8987ZM36.8687 242.26H39.0787C39.7853 242.26 40.342 242.427 40.7487 242.76C41.1553 243.087 41.3587 243.52 41.3587 244.06C41.3587 244.433 41.252 244.76 41.0387 245.04C40.832 245.32 40.5653 245.5 40.2387 245.58C40.6053 245.647 40.912 245.817 41.1587 246.09C41.412 246.363 41.5387 246.73 41.5387 247.19C41.5387 247.723 41.3553 248.16 40.9887 248.5C40.6287 248.833 40.1187 249 39.4587 249H36.8687V242.26ZM42.6792 249V243.93H43.6692V249H42.6792ZM42.7292 242.82C42.6159 242.7 42.5592 242.553 42.5592 242.38C42.5592 242.207 42.6159 242.06 42.7292 241.94C42.8492 241.82 42.9959 241.76 43.1692 241.76C43.3426 241.76 43.4892 241.82 43.6092 241.94C43.7292 242.06 43.7892 242.207 43.7892 242.38C43.7892 242.547 43.7292 242.69 43.6092 242.81C43.4892 242.93 43.3426 242.99 43.1692 242.99C42.9959 242.99 42.8492 242.933 42.7292 242.82ZM47.7604 246.74H47.0004C46.6271 246.74 46.3437 246.813 46.1504 246.96C45.9637 247.107 45.8704 247.293 45.8704 247.52C45.8704 247.753 45.9437 247.937 46.0904 248.07C46.2371 248.203 46.4504 248.27 46.7304 248.27C47.0504 248.27 47.3004 248.183 47.4804 248.01C47.6671 247.83 47.7604 247.597 47.7604 247.31V246.74ZM45.2104 245.14V244.19C45.6037 243.963 46.1237 243.85 46.7704 243.85C48.0971 243.85 48.7604 244.493 48.7604 245.78V249H47.7904V248.4C47.5304 248.827 47.0737 249.04 46.4204 249.04C45.9404 249.04 45.5537 248.903 45.2604 248.63C44.9737 248.35 44.8304 247.997 44.8304 247.57C44.8304 247.083 45.0137 246.707 45.3804 246.44C45.7471 246.167 46.2604 246.03 46.9204 246.03H47.7604V245.74C47.7604 245.393 47.6771 245.133 47.5104 244.96C47.3437 244.78 47.0671 244.69 46.6804 244.69C46.1404 244.69 45.6504 244.84 45.2104 245.14ZM51.4806 248.89L49.4606 243.93H50.5506L51.1806 245.58L51.9706 247.72C52.0306 247.52 52.2706 246.807 52.6906 245.58L53.2606 243.93H54.3006L52.4706 248.86C51.984 250.16 51.2406 250.81 50.2406 250.81C50.0606 250.81 49.9073 250.793 49.7806 250.76V249.92C49.8873 249.947 50.0006 249.96 50.1206 249.96C50.7673 249.96 51.2206 249.603 51.4806 248.89ZM57.7897 246.74H57.0297C56.6564 246.74 56.373 246.813 56.1797 246.96C55.993 247.107 55.8997 247.293 55.8997 247.52C55.8997 247.753 55.973 247.937 56.1197 248.07C56.2664 248.203 56.4797 248.27 56.7597 248.27C57.0797 248.27 57.3297 248.183 57.5097 248.01C57.6964 247.83 57.7897 247.597 57.7897 247.31V246.74ZM55.2397 245.14V244.19C55.633 243.963 56.153 243.85 56.7997 243.85C58.1264 243.85 58.7897 244.493 58.7897 245.78V249H57.8197V248.4C57.5597 248.827 57.103 249.04 56.4497 249.04C55.9697 249.04 55.583 248.903 55.2897 248.63C55.003 248.35 54.8597 247.997 54.8597 247.57C54.8597 247.083 55.043 246.707 55.4097 246.44C55.7764 246.167 56.2897 246.03 56.9497 246.03H57.7897V245.74C57.7897 245.393 57.7064 245.133 57.5397 244.96C57.373 244.78 57.0964 244.69 56.7097 244.69C56.1697 244.69 55.6797 244.84 55.2397 245.14ZM63.3009 246.49C63.3142 247.003 63.4709 247.427 63.7709 247.76C64.0709 248.087 64.4909 248.25 65.0309 248.25C65.4309 248.25 65.8042 248.14 66.1509 247.92V248.8C65.8242 249 65.4075 249.1 64.9009 249.1C64.1075 249.1 63.4742 248.85 63.0009 248.35C62.5275 247.85 62.2909 247.227 62.2909 246.48C62.2909 245.753 62.5275 245.133 63.0009 244.62C63.4809 244.1 64.1275 243.84 64.9409 243.84C65.3809 243.84 65.7842 243.933 66.1509 244.12V245.02C65.8242 244.813 65.4542 244.71 65.0409 244.71C64.5142 244.71 64.0909 244.877 63.7709 245.21C63.4575 245.543 63.3009 245.97 63.3009 246.49ZM70.4279 243.93H71.4079V249H70.4279V248.13C70.1612 248.75 69.6346 249.06 68.8479 249.06C68.3479 249.06 67.9512 248.913 67.6579 248.62C67.3646 248.32 67.2179 247.91 67.2179 247.39V243.93H68.2079V247.15C68.2079 247.497 68.2912 247.763 68.4579 247.95C68.6312 248.13 68.8679 248.22 69.1679 248.22C69.5479 248.22 69.8512 248.087 70.0779 247.82C70.3112 247.553 70.4279 247.177 70.4279 246.69V243.93ZM73.5157 246.49C73.529 247.003 73.6857 247.427 73.9857 247.76C74.2857 248.087 74.7057 248.25 75.2457 248.25C75.6457 248.25 76.019 248.14 76.3657 247.92V248.8C76.039 249 75.6224 249.1 75.1157 249.1C74.3224 249.1 73.689 248.85 73.2157 248.35C72.7424 247.85 72.5057 247.227 72.5057 246.48C72.5057 245.753 72.7424 245.133 73.2157 244.62C73.6957 244.1 74.3424 243.84 75.1557 243.84C75.5957 243.84 75.999 243.933 76.3657 244.12V245.02C76.039 244.813 75.669 244.71 75.2557 244.71C74.729 244.71 74.3057 244.877 73.9857 245.21C73.6724 245.543 73.5157 245.97 73.5157 246.49ZM77.5327 249V243.93H78.5227V249H77.5327ZM77.5827 242.82C77.4694 242.7 77.4127 242.553 77.4127 242.38C77.4127 242.207 77.4694 242.06 77.5827 241.94C77.7027 241.82 77.8494 241.76 78.0227 241.76C78.1961 241.76 78.3427 241.82 78.4627 241.94C78.5827 242.06 78.6427 242.207 78.6427 242.38C78.6427 242.547 78.5827 242.69 78.4627 242.81C78.3427 242.93 78.1961 242.99 78.0227 242.99C77.8494 242.99 77.7027 242.933 77.5827 242.82ZM84.4548 248.21C84.8415 248.21 85.1682 248.063 85.4348 247.77C85.7015 247.477 85.8348 247.03 85.8348 246.43C85.8348 245.85 85.6948 245.42 85.4148 245.14C85.1415 244.86 84.8315 244.72 84.4848 244.72C84.0915 244.72 83.7682 244.877 83.5148 245.19C83.2615 245.497 83.1348 245.937 83.1348 246.51C83.1348 247.017 83.2582 247.427 83.5048 247.74C83.7582 248.053 84.0748 248.21 84.4548 248.21ZM85.8348 241.93H86.8248V249H85.8348V248.23C85.4815 248.79 84.9648 249.07 84.2848 249.07C83.6182 249.07 83.0915 248.82 82.7048 248.32C82.3182 247.813 82.1248 247.203 82.1248 246.49C82.1248 245.697 82.3282 245.06 82.7348 244.58C83.1415 244.1 83.6648 243.86 84.3048 243.86C84.9648 243.86 85.4748 244.14 85.8348 244.7V241.93ZM90.8756 246.74H90.1156C89.7423 246.74 89.459 246.813 89.2656 246.96C89.079 247.107 88.9856 247.293 88.9856 247.52C88.9856 247.753 89.059 247.937 89.2056 248.07C89.3523 248.203 89.5656 248.27 89.8456 248.27C90.1656 248.27 90.4156 248.183 90.5956 248.01C90.7823 247.83 90.8756 247.597 90.8756 247.31V246.74ZM88.3256 245.14V244.19C88.719 243.963 89.239 243.85 89.8856 243.85C91.2123 243.85 91.8756 244.493 91.8756 245.78V249H90.9056V248.4C90.6456 248.827 90.189 249.04 89.5356 249.04C89.0556 249.04 88.669 248.903 88.3756 248.63C88.089 248.35 87.9456 247.997 87.9456 247.57C87.9456 247.083 88.129 246.707 88.4956 246.44C88.8623 246.167 89.3756 246.03 90.0356 246.03H90.8756V245.74C90.8756 245.393 90.7923 245.133 90.6256 244.96C90.459 244.78 90.1823 244.69 89.7956 244.69C89.2556 244.69 88.7656 244.84 88.3256 245.14ZM94.1759 243.93V244.82C94.4225 244.193 94.8659 243.88 95.5059 243.88C95.5992 243.88 95.7025 243.89 95.8159 243.91V244.87C95.6759 244.81 95.5192 244.78 95.3459 244.78C95.0059 244.78 94.7259 244.93 94.5059 245.23C94.2859 245.53 94.1759 245.887 94.1759 246.3V249H93.1959V243.93H94.1759ZM99.2545 246.74H98.4945C98.1212 246.74 97.8379 246.813 97.6445 246.96C97.4579 247.107 97.3645 247.293 97.3645 247.52C97.3645 247.753 97.4379 247.937 97.5845 248.07C97.7312 248.203 97.9445 248.27 98.2245 248.27C98.5445 248.27 98.7945 248.183 98.9745 248.01C99.1612 247.83 99.2545 247.597 99.2545 247.31V246.74ZM96.7045 245.14V244.19C97.0979 243.963 97.6179 243.85 98.2645 243.85C99.5912 243.85 100.255 244.493 100.255 245.78V249H99.2845V248.4C99.0245 248.827 98.5679 249.04 97.9145 249.04C97.4345 249.04 97.0479 248.903 96.7545 248.63C96.4679 248.35 96.3245 247.997 96.3245 247.57C96.3245 247.083 96.5079 246.707 96.8745 246.44C97.2412 246.167 97.7545 246.03 98.4145 246.03H99.2545V245.74C99.2545 245.393 99.1712 245.133 99.0045 244.96C98.8379 244.78 98.5612 244.69 98.1745 244.69C97.6345 244.69 97.1445 244.84 96.7045 245.14ZM102.555 241.93V244.8C102.841 244.173 103.365 243.86 104.125 243.86C104.618 243.86 105.015 244.013 105.315 244.32C105.615 244.627 105.765 245.053 105.765 245.6V249H104.785V245.8C104.785 245.453 104.695 245.187 104.515 245C104.341 244.807 104.111 244.71 103.825 244.71C103.491 244.71 103.195 244.837 102.935 245.09C102.681 245.343 102.555 245.73 102.555 246.25V249H101.575V241.93H102.555ZM110.944 248.89L108.924 243.93H110.014L110.644 245.58L111.434 247.72C111.494 247.52 111.734 246.807 112.154 245.58L112.724 243.93H113.764L111.934 248.86C111.447 250.16 110.704 250.81 109.704 250.81C109.524 250.81 109.37 250.793 109.244 250.76V249.92C109.35 249.947 109.464 249.96 109.584 249.96C110.23 249.96 110.684 249.603 110.944 248.89ZM117.253 246.74H116.493C116.119 246.74 115.836 246.813 115.643 246.96C115.456 247.107 115.363 247.293 115.363 247.52C115.363 247.753 115.436 247.937 115.583 248.07C115.729 248.203 115.943 248.27 116.223 248.27C116.543 248.27 116.793 248.183 116.973 248.01C117.159 247.83 117.253 247.597 117.253 247.31V246.74ZM114.703 245.14V244.19C115.096 243.963 115.616 243.85 116.263 243.85C117.589 243.85 118.253 244.493 118.253 245.78V249H117.283V248.4C117.023 248.827 116.566 249.04 115.913 249.04C115.433 249.04 115.046 248.903 114.753 248.63C114.466 248.35 114.323 247.997 114.323 247.57C114.323 247.083 114.506 246.707 114.873 246.44C115.239 246.167 115.753 246.03 116.413 246.03H117.253V245.74C117.253 245.393 117.169 245.133 117.003 244.96C116.836 244.78 116.559 244.69 116.173 244.69C115.633 244.69 115.143 244.84 114.703 245.14ZM120.553 243.93V244.8C120.853 244.173 121.379 243.86 122.133 243.86C122.633 243.86 123.029 244.013 123.323 244.32C123.616 244.627 123.763 245.043 123.763 245.57V249H122.783V245.8C122.783 245.447 122.693 245.177 122.513 244.99C122.339 244.803 122.106 244.71 121.813 244.71C121.466 244.71 121.169 244.847 120.923 245.12C120.676 245.387 120.553 245.763 120.553 246.25V249H119.573V243.93H120.553ZM127.081 248.02C127.427 248.02 127.727 247.887 127.981 247.62C128.241 247.347 128.371 246.967 128.371 246.48C128.371 245.88 128.247 245.437 128.001 245.15C127.761 244.863 127.467 244.72 127.121 244.72C126.727 244.72 126.417 244.877 126.191 245.19C125.964 245.497 125.851 245.903 125.851 246.41C125.851 246.937 125.971 247.337 126.211 247.61C126.457 247.883 126.747 248.02 127.081 248.02ZM128.371 243.93H129.351V248.57C129.351 249.35 129.127 249.937 128.681 250.33C128.241 250.73 127.674 250.93 126.981 250.93C126.327 250.93 125.777 250.82 125.331 250.6V249.61C125.757 249.89 126.274 250.03 126.881 250.03C127.874 250.03 128.371 249.54 128.371 248.56V248.04C128.044 248.587 127.554 248.86 126.901 248.86C126.327 248.86 125.837 248.65 125.431 248.23C125.024 247.803 124.821 247.203 124.821 246.43C124.821 245.683 125.011 245.07 125.391 244.59C125.771 244.103 126.274 243.86 126.901 243.86C127.574 243.86 128.064 244.147 128.371 244.72V243.93ZM134.108 241.93V244.8C134.394 244.173 134.918 243.86 135.678 243.86C136.171 243.86 136.568 244.013 136.868 244.32C137.168 244.627 137.318 245.053 137.318 245.6V249H136.338V245.8C136.338 245.453 136.248 245.187 136.068 245C135.894 244.807 135.664 244.71 135.377 244.71C135.044 244.71 134.748 244.837 134.488 245.09C134.234 245.343 134.108 245.73 134.108 246.25V249H133.128V241.93H134.108ZM141.305 246.74H140.545C140.172 246.74 139.889 246.813 139.695 246.96C139.509 247.107 139.415 247.293 139.415 247.52C139.415 247.753 139.489 247.937 139.635 248.07C139.782 248.203 139.995 248.27 140.275 248.27C140.595 248.27 140.845 248.183 141.025 248.01C141.212 247.83 141.305 247.597 141.305 247.31V246.74ZM138.755 245.14V244.19C139.149 243.963 139.669 243.85 140.315 243.85C141.642 243.85 142.305 244.493 142.305 245.78V249H141.335V248.4C141.075 248.827 140.619 249.04 139.965 249.04C139.485 249.04 139.099 248.903 138.805 248.63C138.519 248.35 138.375 247.997 138.375 247.57C138.375 247.083 138.559 246.707 138.925 246.44C139.292 246.167 139.805 246.03 140.465 246.03H141.305V245.74C141.305 245.393 141.222 245.133 141.055 244.96C140.889 244.78 140.612 244.69 140.225 244.69C139.685 244.69 139.195 244.84 138.755 245.14ZM144.606 243.93V244.82C144.852 244.193 145.296 243.88 145.936 243.88C146.029 243.88 146.132 243.89 146.246 243.91V244.87C146.106 244.81 145.949 244.78 145.776 244.78C145.436 244.78 145.156 244.93 144.936 245.23C144.716 245.53 144.606 245.887 144.606 246.3V249H143.626V243.93H144.606ZM150.164 243.93H151.144V249H150.164V248.13C149.898 248.75 149.371 249.06 148.584 249.06C148.084 249.06 147.688 248.913 147.394 248.62C147.101 248.32 146.954 247.91 146.954 247.39V243.93H147.944V247.15C147.944 247.497 148.028 247.763 148.194 247.95C148.368 248.13 148.604 248.22 148.904 248.22C149.284 248.22 149.588 248.087 149.814 247.82C150.048 247.553 150.164 247.177 150.164 246.69V243.93ZM155.412 244.1V244.99C155.085 244.797 154.665 244.7 154.152 244.7C153.919 244.7 153.732 244.753 153.592 244.86C153.459 244.967 153.392 245.107 153.392 245.28C153.392 245.327 153.395 245.373 153.402 245.42C153.415 245.46 153.435 245.503 153.462 245.55C153.489 245.59 153.512 245.627 153.532 245.66C153.559 245.687 153.599 245.717 153.652 245.75C153.705 245.783 153.745 245.813 153.772 245.84C153.805 245.86 153.855 245.887 153.922 245.92C153.995 245.953 154.049 245.98 154.082 246C154.115 246.013 154.172 246.04 154.252 246.08C154.339 246.113 154.399 246.137 154.432 246.15C154.825 246.323 155.132 246.52 155.352 246.74C155.579 246.953 155.692 247.24 155.692 247.6C155.692 248.053 155.532 248.41 155.212 248.67C154.892 248.923 154.459 249.05 153.912 249.05C153.312 249.05 152.812 248.95 152.412 248.75V247.82C152.879 248.107 153.362 248.25 153.862 248.25C154.122 248.25 154.322 248.197 154.462 248.09C154.609 247.983 154.682 247.843 154.682 247.67C154.682 247.523 154.625 247.393 154.512 247.28C154.399 247.16 154.282 247.073 154.162 247.02C154.049 246.96 153.852 246.87 153.572 246.75C152.779 246.423 152.382 245.943 152.382 245.31C152.382 244.863 152.549 244.513 152.882 244.26C153.215 244.007 153.632 243.88 154.132 243.88C154.679 243.88 155.105 243.953 155.412 244.1ZM161.222 248.21C161.609 248.21 161.936 248.063 162.202 247.77C162.469 247.477 162.602 247.03 162.602 246.43C162.602 245.85 162.462 245.42 162.182 245.14C161.909 244.86 161.599 244.72 161.252 244.72C160.859 244.72 160.536 244.877 160.282 245.19C160.029 245.497 159.902 245.937 159.902 246.51C159.902 247.017 160.026 247.427 160.272 247.74C160.526 248.053 160.842 248.21 161.222 248.21ZM162.602 241.93H163.592V249H162.602V248.23C162.249 248.79 161.732 249.07 161.052 249.07C160.386 249.07 159.859 248.82 159.472 248.32C159.086 247.813 158.892 247.203 158.892 246.49C158.892 245.697 159.096 245.06 159.502 244.58C159.909 244.1 160.432 243.86 161.072 243.86C161.732 243.86 162.242 244.14 162.602 244.7V241.93ZM165.013 249V243.93H166.003V249H165.013ZM165.063 242.82C164.95 242.7 164.893 242.553 164.893 242.38C164.893 242.207 164.95 242.06 165.063 241.94C165.183 241.82 165.33 241.76 165.503 241.76C165.677 241.76 165.823 241.82 165.943 241.94C166.063 242.06 166.123 242.207 166.123 242.38C166.123 242.547 166.063 242.69 165.943 242.81C165.823 242.93 165.677 242.99 165.503 242.99C165.33 242.99 165.183 242.933 165.063 242.82ZM169.814 248.21C170.188 248.21 170.501 248.053 170.754 247.74C171.008 247.42 171.134 247.01 171.134 246.51C171.134 245.937 171.008 245.497 170.754 245.19C170.501 244.877 170.178 244.72 169.784 244.72C169.438 244.72 169.124 244.86 168.844 245.14C168.571 245.42 168.434 245.85 168.434 246.43C168.434 247.03 168.568 247.477 168.834 247.77C169.101 248.063 169.428 248.21 169.814 248.21ZM168.434 241.93V244.7C168.794 244.14 169.304 243.86 169.964 243.86C170.604 243.86 171.128 244.1 171.534 244.58C171.941 245.06 172.144 245.697 172.144 246.49C172.144 247.203 171.951 247.813 171.564 248.32C171.178 248.82 170.648 249.07 169.974 249.07C169.301 249.07 168.788 248.79 168.434 248.23V249H167.444V241.93H168.434ZM175.915 246.74H175.155C174.781 246.74 174.498 246.813 174.305 246.96C174.118 247.107 174.025 247.293 174.025 247.52C174.025 247.753 174.098 247.937 174.245 248.07C174.391 248.203 174.605 248.27 174.885 248.27C175.205 248.27 175.455 248.183 175.635 248.01C175.821 247.83 175.915 247.597 175.915 247.31V246.74ZM173.365 245.14V244.19C173.758 243.963 174.278 243.85 174.925 243.85C176.251 243.85 176.915 244.493 176.915 245.78V249H175.945V248.4C175.685 248.827 175.228 249.04 174.575 249.04C174.095 249.04 173.708 248.903 173.415 248.63C173.128 248.35 172.985 247.997 172.985 247.57C172.985 247.083 173.168 246.707 173.535 246.44C173.901 246.167 174.415 246.03 175.075 246.03H175.915V245.74C175.915 245.393 175.831 245.133 175.665 244.96C175.498 244.78 175.221 244.69 174.835 244.69C174.295 244.69 173.805 244.84 173.365 245.14ZM179.635 248.89L177.615 243.93H178.705L179.335 245.58L180.125 247.72C180.185 247.52 180.425 246.807 180.845 245.58L181.415 243.93H182.455L180.625 248.86C180.138 250.16 179.395 250.81 178.395 250.81C178.215 250.81 178.062 250.793 177.935 250.76V249.92C178.042 249.947 178.155 249.96 178.275 249.96C178.922 249.96 179.375 249.603 179.635 248.89ZM185.944 246.74H185.184C184.811 246.74 184.527 246.813 184.334 246.96C184.147 247.107 184.054 247.293 184.054 247.52C184.054 247.753 184.127 247.937 184.274 248.07C184.421 248.203 184.634 248.27 184.914 248.27C185.234 248.27 185.484 248.183 185.664 248.01C185.851 247.83 185.944 247.597 185.944 247.31V246.74ZM183.394 245.14V244.19C183.787 243.963 184.307 243.85 184.954 243.85C186.281 243.85 186.944 244.493 186.944 245.78V249H185.974V248.4C185.714 248.827 185.257 249.04 184.604 249.04C184.124 249.04 183.737 248.903 183.444 248.63C183.157 248.35 183.014 247.997 183.014 247.57C183.014 247.083 183.197 246.707 183.564 246.44C183.931 246.167 184.444 246.03 185.104 246.03H185.944V245.74C185.944 245.393 185.861 245.133 185.694 244.96C185.527 244.78 185.251 244.69 184.864 244.69C184.324 244.69 183.834 244.84 183.394 245.14ZM189.244 243.93V244.82C189.491 244.193 189.934 243.88 190.574 243.88C190.668 243.88 190.771 243.89 190.884 243.91V244.87C190.744 244.81 190.588 244.78 190.414 244.78C190.074 244.78 189.794 244.93 189.574 245.23C189.354 245.53 189.244 245.887 189.244 246.3V249H188.264V243.93H189.244ZM191.653 249V242H192.633V249H191.653ZM193.803 246.35L195.793 249H194.623L192.673 246.35L194.583 243.93H195.733L193.803 246.35ZM199.323 246.74H198.563C198.19 246.74 197.906 246.813 197.713 246.96C197.526 247.107 197.433 247.293 197.433 247.52C197.433 247.753 197.506 247.937 197.653 248.07C197.8 248.203 198.013 248.27 198.293 248.27C198.613 248.27 198.863 248.183 199.043 248.01C199.23 247.83 199.323 247.597 199.323 247.31V246.74ZM196.773 245.14V244.19C197.166 243.963 197.686 243.85 198.333 243.85C199.66 243.85 200.323 244.493 200.323 245.78V249H199.353V248.4C199.093 248.827 198.636 249.04 197.983 249.04C197.503 249.04 197.116 248.903 196.823 248.63C196.536 248.35 196.393 247.997 196.393 247.57C196.393 247.083 196.576 246.707 196.943 246.44C197.31 246.167 197.823 246.03 198.483 246.03H199.323V245.74C199.323 245.393 199.24 245.133 199.073 244.96C198.906 244.78 198.63 244.69 198.243 244.69C197.703 244.69 197.213 244.84 196.773 245.14ZM202.623 243.93V244.8C202.923 244.173 203.45 243.86 204.203 243.86C204.703 243.86 205.1 244.013 205.393 244.32C205.686 244.627 205.833 245.043 205.833 245.57V249H204.853V245.8C204.853 245.447 204.763 245.177 204.583 244.99C204.41 244.803 204.176 244.71 203.883 244.71C203.536 244.71 203.24 244.847 202.993 245.12C202.746 245.387 202.623 245.763 202.623 246.25V249H201.643V243.93H202.623ZM212.502 244.1V244.99C212.175 244.797 211.755 244.7 211.242 244.7C211.009 244.7 210.822 244.753 210.682 244.86C210.549 244.967 210.482 245.107 210.482 245.28C210.482 245.327 210.485 245.373 210.492 245.42C210.505 245.46 210.525 245.503 210.552 245.55C210.579 245.59 210.602 245.627 210.622 245.66C210.649 245.687 210.689 245.717 210.742 245.75C210.795 245.783 210.835 245.813 210.862 245.84C210.895 245.86 210.945 245.887 211.012 245.92C211.085 245.953 211.139 245.98 211.172 246C211.205 246.013 211.262 246.04 211.342 246.08C211.429 246.113 211.489 246.137 211.522 246.15C211.915 246.323 212.222 246.52 212.442 246.74C212.669 246.953 212.782 247.24 212.782 247.6C212.782 248.053 212.622 248.41 212.302 248.67C211.982 248.923 211.549 249.05 211.002 249.05C210.402 249.05 209.902 248.95 209.502 248.75V247.82C209.969 248.107 210.452 248.25 210.952 248.25C211.212 248.25 211.412 248.197 211.552 248.09C211.699 247.983 211.772 247.843 211.772 247.67C211.772 247.523 211.715 247.393 211.602 247.28C211.489 247.16 211.372 247.073 211.252 247.02C211.139 246.96 210.942 246.87 210.662 246.75C209.869 246.423 209.472 245.943 209.472 245.31C209.472 244.863 209.639 244.513 209.972 244.26C210.305 244.007 210.722 243.88 211.222 243.88C211.769 243.88 212.195 243.953 212.502 244.1ZM216.951 246.1V245.92C216.938 245.54 216.835 245.24 216.641 245.02C216.448 244.793 216.171 244.68 215.811 244.68C215.478 244.68 215.191 244.803 214.951 245.05C214.711 245.29 214.561 245.64 214.501 246.1H216.951ZM217.581 247.85V248.73C217.208 248.943 216.715 249.05 216.101 249.05C215.315 249.05 214.688 248.813 214.221 248.34C213.755 247.867 213.521 247.247 213.521 246.48C213.521 245.667 213.735 245.03 214.161 244.57C214.588 244.103 215.131 243.87 215.791 243.87C216.438 243.87 216.951 244.073 217.331 244.48C217.711 244.88 217.901 245.46 217.901 246.22C217.901 246.427 217.881 246.643 217.841 246.87H214.511C214.578 247.31 214.765 247.647 215.071 247.88C215.378 248.113 215.765 248.23 216.231 248.23C216.771 248.23 217.221 248.103 217.581 247.85ZM221.445 248.21C221.819 248.21 222.132 248.053 222.385 247.74C222.639 247.42 222.765 247.01 222.765 246.51C222.765 245.937 222.639 245.497 222.385 245.19C222.132 244.877 221.809 244.72 221.415 244.72C221.069 244.72 220.755 244.86 220.475 245.14C220.202 245.42 220.065 245.85 220.065 246.43C220.065 247.03 220.199 247.477 220.465 247.77C220.732 248.063 221.059 248.21 221.445 248.21ZM220.065 241.93V244.7C220.425 244.14 220.935 243.86 221.595 243.86C222.235 243.86 222.759 244.1 223.165 244.58C223.572 245.06 223.775 245.697 223.775 246.49C223.775 247.203 223.582 247.813 223.195 248.32C222.809 248.82 222.279 249.07 221.605 249.07C220.932 249.07 220.419 248.79 220.065 248.23V249H219.075V241.93H220.065ZM228.026 246.1V245.92C228.012 245.54 227.909 245.24 227.716 245.02C227.522 244.793 227.246 244.68 226.886 244.68C226.552 244.68 226.266 244.803 226.026 245.05C225.786 245.29 225.636 245.64 225.576 246.1H228.026ZM228.656 247.85V248.73C228.282 248.943 227.789 249.05 227.176 249.05C226.389 249.05 225.762 248.813 225.296 248.34C224.829 247.867 224.596 247.247 224.596 246.48C224.596 245.667 224.809 245.03 225.236 244.57C225.662 244.103 226.206 243.87 226.866 243.87C227.512 243.87 228.026 244.073 228.406 244.48C228.786 244.88 228.976 245.46 228.976 246.22C228.976 246.427 228.956 246.643 228.916 246.87H225.586C225.652 247.31 225.839 247.647 226.146 247.88C226.452 248.113 226.839 248.23 227.306 248.23C227.846 248.23 228.296 248.103 228.656 247.85ZM233.019 244.1V244.99C232.693 244.797 232.273 244.7 231.759 244.7C231.526 244.7 231.339 244.753 231.199 244.86C231.066 244.967 230.999 245.107 230.999 245.28C230.999 245.327 231.003 245.373 231.009 245.42C231.023 245.46 231.043 245.503 231.069 245.55C231.096 245.59 231.119 245.627 231.139 245.66C231.166 245.687 231.206 245.717 231.259 245.75C231.313 245.783 231.353 245.813 231.379 245.84C231.413 245.86 231.463 245.887 231.529 245.92C231.603 245.953 231.656 245.98 231.689 246C231.723 246.013 231.779 246.04 231.859 246.08C231.946 246.113 232.006 246.137 232.039 246.15C232.433 246.323 232.739 246.52 232.959 246.74C233.186 246.953 233.299 247.24 233.299 247.6C233.299 248.053 233.139 248.41 232.819 248.67C232.499 248.923 232.066 249.05 231.519 249.05C230.919 249.05 230.419 248.95 230.019 248.75V247.82C230.486 248.107 230.969 248.25 231.469 248.25C231.729 248.25 231.929 248.197 232.069 248.09C232.216 247.983 232.289 247.843 232.289 247.67C232.289 247.523 232.233 247.393 232.119 247.28C232.006 247.16 231.889 247.073 231.769 247.02C231.656 246.96 231.459 246.87 231.179 246.75C230.386 246.423 229.989 245.943 229.989 245.31C229.989 244.863 230.156 244.513 230.489 244.26C230.823 244.007 231.239 243.88 231.739 243.88C232.286 243.88 232.713 243.953 233.019 244.1ZM236.989 246.74H236.229C235.856 246.74 235.572 246.813 235.379 246.96C235.192 247.107 235.099 247.293 235.099 247.52C235.099 247.753 235.172 247.937 235.319 248.07C235.466 248.203 235.679 248.27 235.959 248.27C236.279 248.27 236.529 248.183 236.709 248.01C236.896 247.83 236.989 247.597 236.989 247.31V246.74ZM234.439 245.14V244.19C234.832 243.963 235.352 243.85 235.999 243.85C237.326 243.85 237.989 244.493 237.989 245.78V249H237.019V248.4C236.759 248.827 236.302 249.04 235.649 249.04C235.169 249.04 234.782 248.903 234.489 248.63C234.202 248.35 234.059 247.997 234.059 247.57C234.059 247.083 234.242 246.707 234.609 246.44C234.976 246.167 235.489 246.03 236.149 246.03H236.989V245.74C236.989 245.393 236.906 245.133 236.739 244.96C236.572 244.78 236.296 244.69 235.909 244.69C235.369 244.69 234.879 244.84 234.439 245.14ZM240.289 243.93V244.82C240.536 244.193 240.979 243.88 241.619 243.88C241.712 243.88 241.816 243.89 241.929 243.91V244.87C241.789 244.81 241.632 244.78 241.459 244.78C241.119 244.78 240.839 244.93 240.619 245.23C240.399 245.53 240.289 245.887 240.289 246.3V249H239.309V243.93H240.289Z" fill="#2B2B2B"/>
<path d="M246.429 243.3V245.5H247.269C247.655 245.5 247.945 245.403 248.139 245.21C248.332 245.01 248.429 244.733 248.429 244.38C248.429 244.033 248.325 243.767 248.119 243.58C247.919 243.393 247.629 243.3 247.249 243.3H246.429ZM248.649 249L247.119 246.54H246.429V249H245.169V242.26H247.249C248.015 242.26 248.615 242.453 249.049 242.84C249.489 243.227 249.709 243.743 249.709 244.39C249.702 244.87 249.585 245.277 249.359 245.61C249.132 245.937 248.822 246.18 248.429 246.34L250.159 249H248.649ZM253.467 248.04C253.827 248.04 254.121 247.903 254.347 247.63C254.574 247.35 254.687 246.96 254.687 246.46C254.687 245.96 254.574 245.573 254.347 245.3C254.121 245.02 253.834 244.88 253.487 244.88C253.141 244.88 252.841 245.01 252.587 245.27C252.334 245.53 252.207 245.917 252.207 246.43C252.207 246.943 252.331 247.34 252.577 247.62C252.824 247.9 253.121 248.04 253.467 248.04ZM252.207 243.93V244.71C252.567 244.143 253.084 243.86 253.757 243.86C254.417 243.86 254.941 244.097 255.327 244.57C255.721 245.043 255.917 245.667 255.917 246.44C255.917 247.2 255.721 247.83 255.327 248.33C254.941 248.823 254.414 249.07 253.747 249.07C253.067 249.07 252.554 248.793 252.207 248.24V250.91H251.007V243.93H252.207ZM260.765 247.97H263.375V249H259.105V248.04C259.885 247.487 260.559 246.897 261.125 246.27C261.692 245.637 261.975 245.067 261.975 244.56C261.975 244.227 261.879 243.967 261.685 243.78C261.492 243.593 261.212 243.5 260.845 243.5C260.292 243.5 259.762 243.707 259.255 244.12V242.95C259.475 242.783 259.749 242.647 260.075 242.54C260.402 242.433 260.729 242.38 261.055 242.38C261.695 242.38 262.215 242.557 262.615 242.91C263.022 243.257 263.225 243.747 263.225 244.38C263.225 245.567 262.405 246.763 260.765 247.97ZM263.686 250.26L264.666 247.79H266.056L264.726 250.26H263.686ZM266.812 245.7C266.812 244.667 267.015 243.85 267.422 243.25C267.828 242.643 268.405 242.34 269.152 242.34C269.905 242.34 270.485 242.643 270.892 243.25C271.305 243.85 271.512 244.667 271.512 245.7C271.512 246.727 271.308 247.547 270.902 248.16C270.502 248.773 269.918 249.08 269.152 249.08C268.405 249.08 267.828 248.773 267.422 248.16C267.015 247.547 266.812 246.727 266.812 245.7ZM268.342 244.02C268.142 244.407 268.042 244.967 268.042 245.7C268.042 246.433 268.138 247 268.332 247.4C268.532 247.793 268.805 247.99 269.152 247.99C269.512 247.99 269.788 247.793 269.982 247.4C270.182 247.007 270.282 246.44 270.282 245.7C270.282 244.96 270.178 244.397 269.972 244.01C269.772 243.623 269.498 243.43 269.152 243.43C268.812 243.43 268.542 243.627 268.342 244.02ZM272.271 245.7C272.271 244.667 272.474 243.85 272.881 243.25C273.287 242.643 273.864 242.34 274.611 242.34C275.364 242.34 275.944 242.643 276.351 243.25C276.764 243.85 276.971 244.667 276.971 245.7C276.971 246.727 276.767 247.547 276.361 248.16C275.961 248.773 275.377 249.08 274.611 249.08C273.864 249.08 273.287 248.773 272.881 248.16C272.474 247.547 272.271 246.727 272.271 245.7ZM273.801 244.02C273.601 244.407 273.501 244.967 273.501 245.7C273.501 246.433 273.597 247 273.791 247.4C273.991 247.793 274.264 247.99 274.611 247.99C274.971 247.99 275.247 247.793 275.441 247.4C275.641 247.007 275.741 246.44 275.741 245.7C275.741 244.96 275.637 244.397 275.431 244.01C275.231 243.623 274.957 243.43 274.611 243.43C274.271 243.43 274.001 243.627 273.801 244.02ZM277.73 245.7C277.73 244.667 277.933 243.85 278.34 243.25C278.746 242.643 279.323 242.34 280.07 242.34C280.823 242.34 281.403 242.643 281.81 243.25C282.223 243.85 282.43 244.667 282.43 245.7C282.43 246.727 282.226 247.547 281.82 248.16C281.42 248.773 280.836 249.08 280.07 249.08C279.323 249.08 278.746 248.773 278.34 248.16C277.933 247.547 277.73 246.727 277.73 245.7ZM279.26 244.02C279.06 244.407 278.96 244.967 278.96 245.7C278.96 246.433 279.056 247 279.25 247.4C279.45 247.793 279.723 247.99 280.07 247.99C280.43 247.99 280.706 247.793 280.9 247.4C281.1 247.007 281.2 246.44 281.2 245.7C281.2 244.96 281.096 244.397 280.89 244.01C280.69 243.623 280.416 243.43 280.07 243.43C279.73 243.43 279.46 243.627 279.26 244.02ZM282.739 250.26L283.719 247.79H285.109L283.779 250.26H282.739ZM285.864 245.7C285.864 244.667 286.068 243.85 286.474 243.25C286.881 242.643 287.458 242.34 288.204 242.34C288.958 242.34 289.538 242.643 289.944 243.25C290.358 243.85 290.564 244.667 290.564 245.7C290.564 246.727 290.361 247.547 289.954 248.16C289.554 248.773 288.971 249.08 288.204 249.08C287.458 249.08 286.881 248.773 286.474 248.16C286.068 247.547 285.864 246.727 285.864 245.7ZM287.394 244.02C287.194 244.407 287.094 244.967 287.094 245.7C287.094 246.433 287.191 247 287.384 247.4C287.584 247.793 287.858 247.99 288.204 247.99C288.564 247.99 288.841 247.793 289.034 247.4C289.234 247.007 289.334 246.44 289.334 245.7C289.334 244.96 289.231 244.397 289.024 244.01C288.824 243.623 288.551 243.43 288.204 243.43C287.864 243.43 287.594 243.627 287.394 244.02ZM291.323 245.7C291.323 244.667 291.527 243.85 291.933 243.25C292.34 242.643 292.917 242.34 293.663 242.34C294.417 242.34 294.997 242.643 295.403 243.25C295.817 243.85 296.023 244.667 296.023 245.7C296.023 246.727 295.82 247.547 295.413 248.16C295.013 248.773 294.43 249.08 293.663 249.08C292.917 249.08 292.34 248.773 291.933 248.16C291.527 247.547 291.323 246.727 291.323 245.7ZM292.853 244.02C292.653 244.407 292.553 244.967 292.553 245.7C292.553 246.433 292.65 247 292.843 247.4C293.043 247.793 293.317 247.99 293.663 247.99C294.023 247.99 294.3 247.793 294.493 247.4C294.693 247.007 294.793 246.44 294.793 245.7C294.793 244.96 294.69 244.397 294.483 244.01C294.283 243.623 294.01 243.43 293.663 243.43C293.323 243.43 293.053 243.627 292.853 244.02ZM296.782 245.7C296.782 244.667 296.986 243.85 297.392 243.25C297.799 242.643 298.376 242.34 299.122 242.34C299.876 242.34 300.456 242.643 300.862 243.25C301.276 243.85 301.482 244.667 301.482 245.7C301.482 246.727 301.279 247.547 300.872 248.16C300.472 248.773 299.889 249.08 299.122 249.08C298.376 249.08 297.799 248.773 297.392 248.16C296.986 247.547 296.782 246.727 296.782 245.7ZM298.312 244.02C298.112 244.407 298.012 244.967 298.012 245.7C298.012 246.433 298.109 247 298.302 247.4C298.502 247.793 298.776 247.99 299.122 247.99C299.482 247.99 299.759 247.793 299.952 247.4C300.152 247.007 300.252 246.44 300.252 245.7C300.252 244.96 300.149 244.397 299.942 244.01C299.742 243.623 299.469 243.43 299.122 243.43C298.782 243.43 298.512 243.627 298.312 244.02Z" fill="#FF1934"/>
<rect x="109" y="275" width="120" height="24" rx="8" fill="#FF1934"/>
<path d="M157.959 288.176L158.823 288.176C159.468 288.176 159.791 287.931 159.791 287.44C159.791 286.939 159.455 286.688 158.783 286.688L157.959 286.688L157.959 288.176ZM157.959 284.432L157.959 285.88L158.567 285.88C158.929 285.88 159.201 285.808 159.383 285.664C159.564 285.52 159.655 285.336 159.655 285.112C159.655 284.904 159.577 284.739 159.423 284.616C159.273 284.493 159.044 284.432 158.735 284.432L157.959 284.432ZM156.951 283.608L158.863 283.608C159.439 283.608 159.887 283.744 160.207 284.016C160.527 284.288 160.687 284.64 160.687 285.072C160.687 285.365 160.607 285.621 160.447 285.84C160.287 286.053 160.081 286.195 159.831 286.264C160.119 286.333 160.356 286.475 160.543 286.688C160.729 286.896 160.823 287.181 160.823 287.544C160.823 287.971 160.673 288.32 160.375 288.592C160.076 288.864 159.663 289 159.135 289L156.951 289L156.951 283.608ZM163.053 286.952L164.573 286.952L164.501 286.712C164.32 286.136 164.17 285.653 164.053 285.264C163.941 284.869 163.872 284.621 163.845 284.52L163.813 284.36C163.765 284.627 163.536 285.413 163.125 286.72L163.053 286.952ZM165.213 289L164.829 287.776L162.789 287.776L162.405 289L161.349 289L163.173 283.608L164.477 283.608L166.301 289L165.213 289ZM171.364 283.608L169.508 287L169.508 289L168.5 289L168.5 287.032L166.66 283.608L167.836 283.608L168.196 284.392C168.404 284.845 168.574 285.227 168.708 285.536C168.841 285.84 168.921 286.029 168.948 286.104L168.996 286.224C169.044 286.027 169.318 285.416 169.82 284.392L170.188 283.608L171.364 283.608ZM173.436 286.952L174.956 286.952L174.884 286.712C174.702 286.136 174.553 285.653 174.436 285.264C174.324 284.869 174.254 284.621 174.228 284.52L174.196 284.36C174.148 284.627 173.918 285.413 173.508 286.72L173.436 286.952ZM175.596 289L175.212 287.776L173.172 287.776L172.788 289L171.732 289L173.556 283.608L174.86 283.608L176.684 289L175.596 289ZM178.466 284.44L178.466 286.2L179.138 286.2C179.448 286.2 179.68 286.123 179.834 285.968C179.989 285.808 180.066 285.587 180.066 285.304C180.066 285.027 179.984 284.813 179.818 284.664C179.658 284.515 179.426 284.44 179.122 284.44L178.466 284.44ZM180.242 289L179.018 287.032L178.466 287.032L178.466 289L177.458 289L177.458 283.608L179.122 283.608C179.736 283.608 180.216 283.763 180.562 284.072C180.914 284.381 181.09 284.795 181.09 285.312C181.085 285.696 180.992 286.021 180.81 286.288C180.629 286.549 180.381 286.744 180.066 286.872L181.45 289L180.242 289Z" fill="white"/>
<path d="M9 341.5H329C333.694 341.5 337.5 345.306 337.5 350C337.5 354.694 333.694 358.5 329 358.5H9C4.30558 358.5 0.5 354.694 0.5 350C0.500002 345.306 4.30558 341.5 9 341.5Z" fill="white"/>
<path d="M9 341.5H329C333.694 341.5 337.5 345.306 337.5 350C337.5 354.694 333.694 358.5 329 358.5H9C4.30558 358.5 0.5 354.694 0.5 350C0.500002 345.306 4.30558 341.5 9 341.5Z" stroke="#CCCCCC"/>
<path d="M7.86805e-07 350C3.52265e-07 345.029 4.02944 341 9 341L39 341C43.9706 341 48 345.029 48 350C48 354.971 43.9706 359 39 359L9 359C4.02944 359 1.22135e-06 354.971 7.86805e-07 350Z" fill="#FF1934"/>
<path d="M15.448 346.688H16.264L16.816 348.6L17.456 350.92C17.5893 350.179 17.7547 349.403 17.952 348.592L18.44 346.608H19.464L18.088 352H16.92L16.432 350.296C16.2987 349.843 16.184 349.443 16.088 349.096C15.9973 348.749 15.936 348.517 15.904 348.4L15.864 348.216C15.7893 348.589 15.6027 349.283 15.304 350.296L14.8 352H13.64L12.2 346.608H13.264L13.768 348.6C13.8533 348.957 13.9387 349.328 14.024 349.712C14.1093 350.096 14.1733 350.389 14.216 350.592L14.28 350.904C14.4507 350.232 14.6587 349.464 14.904 348.6L15.448 346.688ZM22.2561 350.256H21.7601C21.5094 350.256 21.3174 350.309 21.1841 350.416C21.0507 350.517 20.9841 350.648 20.9841 350.808C20.9841 351.149 21.1814 351.32 21.5761 351.32C21.7894 351.32 21.9547 351.259 22.0721 351.136C22.1947 351.008 22.2561 350.843 22.2561 350.64V350.256ZM20.2881 349.04V348.152C20.5921 347.965 21.0294 347.872 21.6001 347.872C22.6987 347.872 23.2481 348.384 23.2481 349.408V352H22.2961V351.512C22.1094 351.859 21.7574 352.032 21.2401 352.032C20.8561 352.032 20.5494 351.92 20.3201 351.696C20.0961 351.472 19.9841 351.189 19.9841 350.848C19.9841 350.464 20.1281 350.163 20.4161 349.944C20.7041 349.725 21.1201 349.616 21.6641 349.616H22.2561V349.368C22.2561 349.144 22.1974 348.973 22.0801 348.856C21.9627 348.739 21.7627 348.68 21.4801 348.68C21.0481 348.68 20.6507 348.8 20.2881 349.04ZM27.7828 352H26.6548L25.1988 349.904V352H24.2388V346.44H25.1988V349.848L26.6308 347.944H27.7508L26.2628 349.88L27.7828 352ZM29.5864 348.664V350.728C29.5864 350.899 29.6318 351.029 29.7224 351.12C29.8131 351.205 29.9384 351.248 30.0984 351.248C30.3011 351.248 30.4878 351.192 30.6584 351.08V351.904C30.4718 351.995 30.2318 352.04 29.9384 352.04C29.0638 352.04 28.6264 351.597 28.6264 350.712V348.664H28.0184V347.944H28.6264V346.968H29.5864V347.944H30.5944V348.664H29.5864ZM33.9617 347.944H34.9297V352H33.9617V351.336C33.7484 351.805 33.3324 352.04 32.7137 352.04C32.303 352.04 31.983 351.923 31.7537 351.688C31.5244 351.453 31.4097 351.12 31.4097 350.688V347.944H32.3697V350.464C32.3697 350.72 32.431 350.915 32.5537 351.048C32.6817 351.181 32.855 351.248 33.0737 351.248C33.351 351.248 33.567 351.155 33.7217 350.968C33.8817 350.781 33.9617 350.499 33.9617 350.12V347.944Z" fill="white"/>
<rect x="56" y="348" width="274" height="4" rx="2" fill="#CCCCCC"/>
<mask id="mask0_1124_4113" style="mask-type:alpha" maskUnits="userSpaceOnUse" x="56" y="348" width="274" height="4">
<rect x="56" y="348" width="274" height="4" rx="2" fill="#CCCCCC"/>
</mask>
<g mask="url(#mask0_1124_4113)">
<rect x="56" y="348" width="274" height="4" rx="2" fill="#FF1934"/>
</g>
<defs>
<filter id="filter0_d_1124_4113" x="5" y="48" width="328" height="56" filterUnits="userSpaceOnUse" color-interpolation-filters="sRGB">
<feFlood flood-opacity="0" result="BackgroundImageFix"/>
<feColorMatrix in="SourceAlpha" type="matrix" values="0 0 0 0 0 0 0 0 0 0 0 0 0 0 0 0 0 0 127 0" result="hardAlpha"/>
<feOffset dy="2"/>
<feGaussianBlur stdDeviation="2"/>
<feComposite in2="hardAlpha" operator="out"/>
<feColorMatrix type="matrix" values="0 0 0 0 0.168627 0 0 0 0 0.168627 0 0 0 0 0.168627 0 0 0 0.24 0"/>
<feBlend mode="normal" in2="BackgroundImageFix" result="effect1_dropShadow_1124_4113"/>
<feBlend mode="normal" in="SourceGraphic" in2="effect1_dropShadow_1124_4113" result="shape"/>
</filter>
<clipPath id="clip0_1124_4113">
<rect width="24" height="24" fill="white" transform="translate(25 66)"/>
</clipPath>
<clipPath id="clip1_1124_4113">
<rect width="68" height="68" fill="white" transform="translate(135 130)"/>
</clipPath>
</defs>
</svg>
