<svg width="147" height="102" viewBox="0 0 147 102" fill="none" xmlns="http://www.w3.org/2000/svg">
<rect width="147" height="102" fill="#D3D3D3"/>
<path d="M36.032 25.72V35.192C32.832 33.2293 29.2693 32.248 25.344 32.248C21.888 32.248 18.9867 33.464 16.64 35.896C14.2933 38.2853 13.12 41.5067 13.12 45.56C13.12 49.528 14.2933 52.6853 16.64 55.032C18.9867 57.336 22.016 58.488 25.728 58.488C29.7387 58.488 33.1733 57.464 36.032 55.416V65.08C33.4293 66.7013 29.6747 67.512 24.768 67.512C18.4533 67.512 13.1627 65.4853 8.896 61.432C4.672 57.336 2.56 52.0453 2.56 45.56C2.56 38.9893 4.608 33.6347 8.704 29.496C12.8427 25.3573 18.2187 23.288 24.832 23.288C29.696 23.288 33.4293 24.0987 36.032 25.72ZM57.81 53.688H54.802C53.2233 53.688 52.0073 54.0293 51.154 54.712C50.3007 55.3947 49.874 56.2693 49.874 57.336C49.874 59.512 51.1327 60.6 53.65 60.6C54.9727 60.6 55.9967 60.1947 56.722 59.384C57.4473 58.5733 57.81 57.464 57.81 56.056V53.688ZM42.642 44.536V36.152C45.202 34.7013 48.8927 33.976 53.714 33.976C58.322 33.976 61.7567 34.9787 64.018 36.984C66.2793 38.9467 67.41 42.0187 67.41 46.2V67H58.258V63.032C56.8927 65.8053 54.2047 67.192 50.194 67.192C47.0367 67.192 44.562 66.296 42.77 64.504C41.0207 62.712 40.146 60.472 40.146 57.784C40.146 54.6693 41.2767 52.2587 43.538 50.552C45.842 48.8027 49.234 47.928 53.714 47.928H57.81V45.688C57.81 42.9573 55.9967 41.592 52.37 41.592C48.8713 41.592 45.6287 42.5733 42.642 44.536ZM82.682 34.552V40.568C83.2793 38.6907 84.2607 37.1973 85.626 36.088C87.034 34.936 88.6553 34.36 90.49 34.36C91.514 34.36 92.3247 34.4453 92.922 34.616V43.448C91.898 42.9787 90.7247 42.744 89.402 42.744C87.3967 42.744 85.7753 43.4907 84.538 44.984C83.3007 46.4347 82.682 48.376 82.682 50.808V67H73.338L73.402 34.552H82.682ZM110.658 59.576C112.791 59.576 114.519 58.744 115.842 57.08C117.164 55.416 117.826 53.1973 117.826 50.424C117.826 47.736 117.1 45.6453 115.65 44.152C114.242 42.6587 112.556 41.912 110.594 41.912C108.631 41.912 106.967 42.7013 105.602 44.28C104.279 45.8587 103.618 48.056 103.618 50.872C103.618 53.4747 104.3 55.5867 105.666 57.208C107.031 58.7867 108.695 59.576 110.658 59.576ZM117.826 21.752H127.17V67H117.826V61.944C115.65 65.5707 112.407 67.384 108.098 67.384C103.874 67.384 100.482 65.7413 97.9215 62.456C95.4042 59.1707 94.1455 55.2453 94.1455 50.68C94.1455 45.56 95.4682 41.528 98.1135 38.584C100.759 35.64 104.108 34.168 108.162 34.168C112.386 34.168 115.607 35.96 117.826 39.544V21.752Z" fill="black"/>
</svg>
