<svg width="316" height="250" viewBox="0 0 316 250" fill="none" xmlns="http://www.w3.org/2000/svg">
<rect width="316" height="250" fill="#D3D3D3"/>
<rect width="316" height="250" rx="16" fill="white"/>
<g filter="url(#filter0_d_1124_4113)">
<path d="M0 16C0 7.16344 7.16344 0 16 0H300C308.837 0 316 7.16344 316 16V48H0V16Z" fill="#FF1934" shape-rendering="crispEdges"/>
<g clip-path="url(#clip0_1124_4113)">
<path d="M36.97 26.6C35.02 19.22 28.08 19 27.98 19C27.91 19 20.97 19.23 19.02 26.6C18.94 26.9 19.05 27.22 19.29 27.42C19.53 27.62 19.87 27.66 20.15 27.52C20.17 27.51 22.53 26.37 24.09 27.46C24.37 27.65 24.74 27.64 25.02 27.45C25.02 27.45 25.81 26.9 27.19 26.74V33.11C27.19 34.37 26.16 35.4 24.9 35.4C24.46 35.4 24.1 35.76 24.1 36.2C24.1 36.64 24.46 37 24.9 37C27.04 37 28.79 35.26 28.79 33.11V26.74C30.17 26.91 30.96 27.44 30.96 27.45C31.24 27.65 31.61 27.66 31.89 27.47C33.46 26.39 35.81 27.52 35.83 27.53C35.94 27.59 36.07 27.61 36.19 27.61C36.37 27.61 36.55 27.55 36.7 27.43C36.94 27.23 37.05 26.91 36.97 26.61V26.6ZM31.44 25.87C30.83 25.55 29.65 25.08 28 25.08C26.35 25.08 25.17 25.55 24.56 25.87C23.38 25.26 22.08 25.33 21.08 25.54C23.13 20.78 27.8 20.6 27.99 20.59C28.21 20.59 32.88 20.78 34.93 25.54C33.93 25.33 32.63 25.26 31.45 25.87H31.44Z" fill="white"/>
</g>
<path d="M49.05 32V22.564H51.206V32H49.05ZM55.136 24.902V26.106C55.3133 25.714 55.584 25.406 55.948 25.182C56.3213 24.9487 56.7646 24.832 57.278 24.832C58.006 24.832 58.5753 25.0513 58.986 25.49C59.3966 25.9193 59.602 26.554 59.602 27.394V32H57.558V27.772C57.558 27.352 57.46 27.0347 57.264 26.82C57.068 26.596 56.7926 26.484 56.438 26.484C56.0646 26.484 55.752 26.6333 55.5 26.932C55.2573 27.2213 55.136 27.66 55.136 28.248V32H53.092V24.902H55.136ZM65.693 25.112V26.862C65.1984 26.5727 64.6197 26.428 63.957 26.428C63.7144 26.428 63.5277 26.4793 63.397 26.582C63.2664 26.6753 63.201 26.7967 63.201 26.946C63.201 27.03 63.2244 27.1093 63.271 27.184C63.3177 27.2587 63.3924 27.3287 63.495 27.394C63.607 27.4593 63.7097 27.52 63.803 27.576C63.9057 27.6227 64.041 27.6833 64.209 27.758C64.3864 27.8327 64.5264 27.898 64.629 27.954C65.0584 28.178 65.4037 28.4393 65.665 28.738C65.9264 29.0273 66.057 29.4007 66.057 29.858C66.057 30.558 65.805 31.0993 65.301 31.482C64.797 31.8647 64.1297 32.056 63.299 32.056C62.4404 32.056 61.7217 31.9113 61.143 31.622V29.802C61.787 30.25 62.4684 30.474 63.187 30.474C63.7004 30.474 63.957 30.3107 63.957 29.984C63.957 29.9 63.9337 29.8207 63.887 29.746C63.8404 29.6713 63.761 29.6013 63.649 29.536C63.537 29.4707 63.4344 29.4193 63.341 29.382C63.2477 29.3353 63.1124 29.2747 62.935 29.2C62.7577 29.1253 62.6224 29.0647 62.529 29.018C61.5864 28.57 61.115 27.898 61.115 27.002C61.115 26.3113 61.3764 25.7747 61.899 25.392C62.431 25.0093 63.089 24.818 63.873 24.818C64.601 24.818 65.2077 24.916 65.693 25.112ZM71.7067 24.902H73.7507V32H71.7067V30.866C71.3334 31.6593 70.6147 32.056 69.5507 32.056C68.8227 32.056 68.2534 31.8553 67.8427 31.454C67.4414 31.0433 67.2407 30.4413 67.2407 29.648V24.902H69.2847V29.186C69.2847 30.0167 69.6487 30.432 70.3767 30.432C71.2634 30.432 71.7067 29.8393 71.7067 28.654V24.902ZM77.4618 24.902V26.218C77.5925 25.8073 77.8071 25.4807 78.1058 25.238C78.4138 24.986 78.7685 24.86 79.1698 24.86C79.3938 24.86 79.5711 24.8787 79.7018 24.916V26.848C79.4778 26.7453 79.2211 26.694 78.9318 26.694C78.4931 26.694 78.1385 26.8573 77.8678 27.184C77.5971 27.5013 77.4618 27.926 77.4618 28.458V32H75.4178L75.4318 24.902H77.4618ZM84.1274 29.088H83.4694C83.1241 29.088 82.8581 29.1627 82.6714 29.312C82.4848 29.4613 82.3914 29.6527 82.3914 29.886C82.3914 30.362 82.6668 30.6 83.2174 30.6C83.5068 30.6 83.7308 30.5113 83.8894 30.334C84.0481 30.1567 84.1274 29.914 84.1274 29.606V29.088ZM80.8094 27.086V25.252C81.3694 24.9347 82.1768 24.776 83.2314 24.776C84.2394 24.776 84.9908 24.9953 85.4854 25.434C85.9801 25.8633 86.2274 26.5353 86.2274 27.45V32H84.2254V31.132C83.9268 31.7387 83.3388 32.042 82.4614 32.042C81.7708 32.042 81.2294 31.846 80.8374 31.454C80.4548 31.062 80.2634 30.572 80.2634 29.984C80.2634 29.3027 80.5108 28.7753 81.0054 28.402C81.5094 28.0193 82.2514 27.828 83.2314 27.828H84.1274V27.338C84.1274 26.7407 83.7308 26.442 82.9374 26.442C82.1721 26.442 81.4628 26.6567 80.8094 27.086ZM89.8762 24.902V26.106C90.0535 25.714 90.3242 25.406 90.6882 25.182C91.0615 24.9487 91.5049 24.832 92.0182 24.832C92.7462 24.832 93.3155 25.0513 93.7262 25.49C94.1369 25.9193 94.3422 26.554 94.3422 27.394V32H92.2982V27.772C92.2982 27.352 92.2002 27.0347 92.0042 26.82C91.8082 26.596 91.5329 26.484 91.1782 26.484C90.8049 26.484 90.4922 26.6333 90.2402 26.932C89.9975 27.2213 89.8762 27.66 89.8762 28.248V32H87.8322V24.902H89.8762ZM97.6753 28.472C97.7126 29.0973 97.8993 29.5827 98.2353 29.928C98.5713 30.2733 99.0146 30.446 99.5653 30.446C100.153 30.446 100.718 30.2827 101.259 29.956V31.664C100.709 31.9627 100.046 32.112 99.2713 32.112C98.2073 32.112 97.3299 31.776 96.6393 31.104C95.9486 30.4227 95.6033 29.5453 95.6033 28.472C95.6219 27.408 95.9673 26.5307 96.6393 25.84C97.3113 25.14 98.2306 24.79 99.3973 24.79C100.116 24.79 100.737 24.9253 101.259 25.196V26.946C100.765 26.638 100.214 26.484 99.6073 26.484C99.0379 26.484 98.5759 26.6567 98.2213 27.002C97.8666 27.338 97.6846 27.828 97.6753 28.472ZM106.618 27.8V27.632C106.552 26.8013 106.188 26.386 105.526 26.386C105.199 26.386 104.91 26.5073 104.658 26.75C104.406 26.9833 104.238 27.3333 104.154 27.8H106.618ZM108.088 29.886V31.594C107.602 31.9113 106.86 32.07 105.862 32.07C104.695 32.07 103.785 31.734 103.132 31.062C102.488 30.3807 102.166 29.508 102.166 28.444C102.166 27.3147 102.478 26.4327 103.104 25.798C103.738 25.154 104.518 24.832 105.442 24.832C106.394 24.832 107.145 25.112 107.696 25.672C108.246 26.2227 108.522 27.0487 108.522 28.15C108.522 28.3647 108.484 28.7333 108.41 29.256H104.238C104.378 29.648 104.62 29.9513 104.966 30.166C105.311 30.3807 105.726 30.488 106.212 30.488C106.93 30.488 107.556 30.2873 108.088 29.886Z" fill="white"/>
<path d="M288 14C288 6.26801 294.268 -5.47967e-07 302 -1.22392e-06C309.732 -1.89987e-06 316 6.26801 316 14C316 21.732 309.732 28 302 28C294.268 28 288 21.732 288 14Z" fill="#FF1934"/>
<g clip-path="url(#clip1_1124_4113)">
<path d="M306.21 9.40998C305.88 9.10998 305.38 9.12998 305.08 9.45998L302 12.82L298.92 9.45998C298.62 9.12998 298.11 9.10998 297.79 9.40998C297.46 9.70998 297.44 10.21 297.74 10.54L300.91 14L297.74 17.46C297.44 17.79 297.46 18.29 297.79 18.59C297.94 18.73 298.14 18.8 298.33 18.8C298.55 18.8 298.76 18.71 298.92 18.54L302 15.18L305.08 18.54C305.24 18.71 305.45 18.8 305.67 18.8C305.86 18.8 306.06 18.73 306.21 18.59C306.54 18.29 306.56 17.79 306.26 17.46L303.09 14L306.26 10.54C306.56 10.21 306.54 9.70998 306.21 9.40998Z" fill="white"/>
<path d="M302 4C296.49 4 292 8.49 292 14C292 19.51 296.49 24 302 24C307.51 24 312 19.51 312 14C312 8.49 307.51 4 302 4ZM302 22.4C297.37 22.4 293.6 18.63 293.6 14C293.6 9.37 297.37 5.6 302 5.6C306.63 5.6 310.4 9.37 310.4 14C310.4 18.63 306.63 22.4 302 22.4Z" fill="white"/>
</g>
</g>
<rect width="284" height="164" transform="translate(16 68)" fill="white"/>
<rect x="16" y="68" width="88" height="46" rx="4" fill="#FF1934"/>
<path d="M28.7 83V76.26H29.96V83H28.7ZM31.56 79.64L34.07 83H32.48L30.06 79.66L32.39 76.26H33.9L31.56 79.64ZM37.9793 80.05V79.9C37.966 79.5733 37.876 79.3133 37.7093 79.12C37.5493 78.92 37.3126 78.82 36.9993 78.82C36.7126 78.82 36.4626 78.9267 36.2493 79.14C36.0426 79.3467 35.9093 79.65 35.8493 80.05H37.9793ZM38.7993 81.68V82.72C38.446 82.94 37.936 83.05 37.2693 83.05C36.4626 83.05 35.826 82.81 35.3593 82.33C34.8926 81.85 34.6593 81.23 34.6593 80.47C34.6593 79.6633 34.8793 79.03 35.3193 78.57C35.7593 78.11 36.3093 77.88 36.9693 77.88C37.6293 77.88 38.1526 78.08 38.5393 78.48C38.926 78.88 39.1193 79.4633 39.1193 80.23C39.1193 80.4167 39.096 80.6567 39.0493 80.95H35.8693C35.956 81.3167 36.136 81.5967 36.4093 81.79C36.6893 81.9833 37.036 82.08 37.4493 82.08C37.9826 82.08 38.4326 81.9467 38.7993 81.68ZM43.2523 78.09V79.15C42.9189 78.95 42.5023 78.85 42.0023 78.85C41.7956 78.85 41.6323 78.8967 41.5123 78.99C41.3989 79.0767 41.3423 79.19 41.3423 79.33C41.3423 79.3833 41.3489 79.4333 41.3623 79.48C41.3823 79.5267 41.4123 79.5733 41.4523 79.62C41.4989 79.66 41.5423 79.6967 41.5823 79.73C41.6223 79.7633 41.6789 79.8 41.7523 79.84C41.8256 79.8733 41.8889 79.9033 41.9423 79.93C41.9956 79.9567 42.0689 79.99 42.1623 80.03C42.2556 80.07 42.3289 80.1033 42.3823 80.13C42.7356 80.3033 43.0156 80.4967 43.2223 80.71C43.4289 80.9233 43.5323 81.2 43.5323 81.54C43.5323 82.0133 43.3623 82.3833 43.0223 82.65C42.6823 82.9167 42.2289 83.05 41.6623 83.05C41.0356 83.05 40.5289 82.9467 40.1423 82.74V81.64C40.5889 81.94 41.0723 82.09 41.5923 82.09C41.8123 82.09 41.9823 82.05 42.1023 81.97C42.2289 81.8833 42.2923 81.7667 42.2923 81.62C42.2923 81.5333 42.2723 81.4567 42.2323 81.39C42.1923 81.3167 42.1156 81.2467 42.0023 81.18C41.8889 81.1133 41.7989 81.0667 41.7323 81.04C41.6723 81.0067 41.5489 80.95 41.3623 80.87C41.3423 80.8633 41.3256 80.8567 41.3123 80.85C41.3056 80.8433 41.2923 80.8367 41.2723 80.83C41.2523 80.8233 41.2356 80.8167 41.2223 80.81C40.4823 80.4767 40.1123 79.9967 40.1123 79.37C40.1123 78.9033 40.2889 78.5367 40.6423 78.27C40.9956 78.0033 41.4389 77.87 41.9723 77.87C42.4856 77.87 42.9123 77.9433 43.2523 78.09ZM47.5398 80.05V79.9C47.5265 79.5733 47.4365 79.3133 47.2698 79.12C47.1098 78.92 46.8732 78.82 46.5598 78.82C46.2732 78.82 46.0232 78.9267 45.8098 79.14C45.6032 79.3467 45.4698 79.65 45.4098 80.05H47.5398ZM48.3598 81.68V82.72C48.0065 82.94 47.4965 83.05 46.8298 83.05C46.0232 83.05 45.3865 82.81 44.9198 82.33C44.4532 81.85 44.2198 81.23 44.2198 80.47C44.2198 79.6633 44.4398 79.03 44.8798 78.57C45.3198 78.11 45.8698 77.88 46.5298 77.88C47.1898 77.88 47.7132 78.08 48.0998 78.48C48.4865 78.88 48.6798 79.4633 48.6798 80.23C48.6798 80.4167 48.6565 80.6567 48.6098 80.95H45.4298C45.5165 81.3167 45.6965 81.5967 45.9698 81.79C46.2498 81.9833 46.5965 82.08 47.0098 82.08C47.5432 82.08 47.9932 81.9467 48.3598 81.68ZM50.9828 75.93V78.79C51.2561 78.1767 51.7728 77.87 52.5328 77.87C53.0261 77.87 53.4228 78.0267 53.7228 78.34C54.0295 78.6467 54.1828 79.0933 54.1828 79.68V83H52.9828V79.89C52.9828 79.57 52.8995 79.32 52.7328 79.14C52.5728 78.96 52.3628 78.87 52.1028 78.87C51.8161 78.87 51.5561 78.98 51.3228 79.2C51.0961 79.42 50.9828 79.78 50.9828 80.28V83H49.7828V75.93H50.9828ZM58.0271 80.82H57.4071C57.0938 80.82 56.8538 80.8867 56.6871 81.02C56.5204 81.1467 56.4371 81.31 56.4371 81.51C56.4371 81.9367 56.6838 82.15 57.1771 82.15C57.4438 82.15 57.6504 82.0733 57.7971 81.92C57.9504 81.76 58.0271 81.5533 58.0271 81.3V80.82ZM55.5671 79.3V78.19C55.9471 77.9567 56.4938 77.84 57.2071 77.84C58.5804 77.84 59.2671 78.48 59.2671 79.76V83H58.0771V82.39C57.8438 82.8233 57.4038 83.04 56.7571 83.04C56.2771 83.04 55.8938 82.9 55.6071 82.62C55.3271 82.34 55.1871 81.9867 55.1871 81.56C55.1871 81.08 55.3671 80.7033 55.7271 80.43C56.0871 80.1567 56.6071 80.02 57.2871 80.02H58.0271V79.71C58.0271 79.43 57.9538 79.2167 57.8071 79.07C57.6604 78.9233 57.4104 78.85 57.0571 78.85C56.5171 78.85 56.0204 79 55.5671 79.3ZM61.9655 78.83V81.41C61.9655 81.6233 62.0221 81.7867 62.1355 81.9C62.2488 82.0067 62.4055 82.06 62.6055 82.06C62.8588 82.06 63.0921 81.99 63.3055 81.85V82.88C63.0721 82.9933 62.7721 83.05 62.4055 83.05C61.3121 83.05 60.7655 82.4967 60.7655 81.39V78.83H60.0055V77.93H60.7655V76.71H61.9655V77.93H63.2255V78.83H61.9655ZM66.8845 80.82H66.2645C65.9512 80.82 65.7112 80.8867 65.5445 81.02C65.3779 81.1467 65.2945 81.31 65.2945 81.51C65.2945 81.9367 65.5412 82.15 66.0345 82.15C66.3012 82.15 66.5079 82.0733 66.6545 81.92C66.8079 81.76 66.8845 81.5533 66.8845 81.3V80.82ZM64.4245 79.3V78.19C64.8045 77.9567 65.3512 77.84 66.0645 77.84C67.4379 77.84 68.1245 78.48 68.1245 79.76V83H66.9345V82.39C66.7012 82.8233 66.2612 83.04 65.6145 83.04C65.1345 83.04 64.7512 82.9 64.4645 82.62C64.1845 82.34 64.0445 81.9867 64.0445 81.56C64.0445 81.08 64.2245 80.7033 64.5845 80.43C64.9445 80.1567 65.4645 80.02 66.1445 80.02H66.8845V79.71C66.8845 79.43 66.8112 79.2167 66.6645 79.07C66.5179 78.9233 66.2679 78.85 65.9145 78.85C65.3745 78.85 64.8779 79 64.4245 79.3ZM70.5629 77.93V78.8C70.8496 78.18 71.3696 77.87 72.1229 77.87C72.6296 77.87 73.0296 78.0233 73.3229 78.33C73.6162 78.6367 73.7629 79.07 73.7629 79.63V83H72.5629V79.88C72.5629 79.5467 72.4829 79.2967 72.3229 79.13C72.1629 78.9567 71.9462 78.87 71.6729 78.87C71.3596 78.87 71.0962 78.9933 70.8829 79.24C70.6696 79.48 70.5629 79.8267 70.5629 80.28V83H69.3629V77.93H70.5629Z" fill="white"/>
<line x1="28" y1="91.75" x2="92" y2="91.75" stroke="#CCCCCC" stroke-width="0.5"/>
<path d="M31.44 99.808V100.488C31.1147 100.275 30.7253 100.168 30.272 100.168C29.9467 100.168 29.688 100.245 29.496 100.4C29.304 100.549 29.208 100.747 29.208 100.992C29.208 101.12 29.232 101.235 29.28 101.336C29.3333 101.437 29.424 101.533 29.552 101.624C29.68 101.709 29.7893 101.776 29.88 101.824C29.9707 101.867 30.112 101.931 30.304 102.016C30.4853 102.096 30.624 102.16 30.72 102.208C30.816 102.251 30.9387 102.323 31.088 102.424C31.2427 102.52 31.3573 102.616 31.432 102.712C31.512 102.803 31.5813 102.925 31.64 103.08C31.704 103.229 31.736 103.392 31.736 103.568C31.736 104.043 31.5733 104.411 31.248 104.672C30.9227 104.928 30.504 105.056 29.992 105.056C29.4267 105.056 28.9467 104.941 28.552 104.712V104.016C28.9413 104.309 29.416 104.456 29.976 104.456C30.312 104.456 30.576 104.381 30.768 104.232C30.96 104.083 31.056 103.867 31.056 103.584C31.056 103.467 31.032 103.363 30.984 103.272C30.9413 103.176 30.8667 103.091 30.76 103.016C30.6587 102.936 30.56 102.872 30.464 102.824C30.3733 102.771 30.248 102.707 30.088 102.632C30.056 102.616 30.008 102.595 29.944 102.568C29.7147 102.467 29.5387 102.384 29.416 102.32C29.2987 102.256 29.1573 102.163 28.992 102.04C28.832 101.912 28.7147 101.765 28.64 101.6C28.5653 101.435 28.528 101.243 28.528 101.024C28.528 100.565 28.6907 100.208 29.016 99.952C29.3467 99.6907 29.76 99.56 30.256 99.56C30.72 99.56 31.1147 99.6427 31.44 99.808ZM32.8113 105V100.944H33.4433V105H32.8113ZM32.8273 99.968C32.7526 99.888 32.7153 99.7893 32.7153 99.672C32.7153 99.5547 32.7526 99.456 32.8273 99.376C32.9073 99.296 33.006 99.256 33.1233 99.256C33.2406 99.256 33.3393 99.296 33.4193 99.376C33.4993 99.456 33.5393 99.5547 33.5393 99.672C33.5393 99.7893 33.4993 99.888 33.4193 99.968C33.3393 100.043 33.2406 100.08 33.1233 100.08C33.006 100.08 32.9073 100.043 32.8273 99.968ZM34.6785 105V99.344H35.3105V105H34.6785ZM37.5457 105L36.1297 100.944H36.7857L37.3457 102.656L37.9377 104.504C37.9857 104.275 38.1857 103.659 38.5377 102.656L39.1137 100.944H39.7697L38.3217 105H37.5457ZM43.1368 102.712V102.552C43.1368 102.216 43.0461 101.949 42.8648 101.752C42.6834 101.549 42.4328 101.448 42.1128 101.448C41.8088 101.448 41.5501 101.557 41.3368 101.776C41.1234 101.995 40.9981 102.307 40.9608 102.712H43.1368ZM43.5128 104.2V104.792C43.1981 104.957 42.8141 105.04 42.3608 105.04C41.7474 105.04 41.2514 104.853 40.8728 104.48C40.4994 104.101 40.3128 103.603 40.3128 102.984C40.3128 102.339 40.4808 101.829 40.8168 101.456C41.1528 101.083 41.5848 100.896 42.1128 100.896C42.6194 100.896 43.0221 101.059 43.3208 101.384C43.6194 101.709 43.7688 102.171 43.7688 102.768C43.7688 102.939 43.7554 103.096 43.7288 103.24H40.9608C41.0088 103.64 41.1608 103.947 41.4168 104.16C41.6728 104.373 42.0088 104.48 42.4248 104.48C42.8781 104.48 43.2408 104.387 43.5128 104.2ZM45.3564 100.944V101.656C45.5698 101.155 45.9378 100.904 46.4604 100.904C46.5564 100.904 46.6311 100.909 46.6844 100.92V101.544C46.5724 101.507 46.4578 101.488 46.3404 101.488C46.0578 101.488 45.8231 101.619 45.6364 101.88C45.4498 102.141 45.3564 102.443 45.3564 102.784V105H44.7244L44.7324 100.944H45.3564Z" fill="white"/>
<rect x="16.5" y="126.5" width="87" height="45" rx="3.5" fill="white"/>
<rect x="16.5" y="126.5" width="87" height="45" rx="3.5" stroke="#CCCCCC"/>
<path d="M28.7 141V134.26H29.96V141H28.7ZM31.56 137.64L34.07 141H32.48L30.06 137.66L32.39 134.26H33.9L31.56 137.64ZM37.9793 138.05V137.9C37.966 137.573 37.876 137.313 37.7093 137.12C37.5493 136.92 37.3126 136.82 36.9993 136.82C36.7126 136.82 36.4626 136.927 36.2493 137.14C36.0426 137.347 35.9093 137.65 35.8493 138.05H37.9793ZM38.7993 139.68V140.72C38.446 140.94 37.936 141.05 37.2693 141.05C36.4626 141.05 35.826 140.81 35.3593 140.33C34.8926 139.85 34.6593 139.23 34.6593 138.47C34.6593 137.663 34.8793 137.03 35.3193 136.57C35.7593 136.11 36.3093 135.88 36.9693 135.88C37.6293 135.88 38.1526 136.08 38.5393 136.48C38.926 136.88 39.1193 137.463 39.1193 138.23C39.1193 138.417 39.096 138.657 39.0493 138.95H35.8693C35.956 139.317 36.136 139.597 36.4093 139.79C36.6893 139.983 37.036 140.08 37.4493 140.08C37.9826 140.08 38.4326 139.947 38.7993 139.68ZM41.4223 135.93V136.8C41.7089 136.18 42.2289 135.87 42.9823 135.87C43.4889 135.87 43.8889 136.023 44.1823 136.33C44.4756 136.637 44.6223 137.07 44.6223 137.63V141H43.4223V137.88C43.4223 137.547 43.3423 137.297 43.1823 137.13C43.0223 136.957 42.8056 136.87 42.5323 136.87C42.2189 136.87 41.9556 136.993 41.7423 137.24C41.5289 137.48 41.4223 137.827 41.4223 138.28V141H40.2223V135.93H41.4223ZM48.0566 140.04C48.4166 140.04 48.7166 139.903 48.9566 139.63C49.1966 139.35 49.3166 138.947 49.3166 138.42C49.3166 137.907 49.1899 137.523 48.9366 137.27C48.6832 137.01 48.3932 136.88 48.0666 136.88C47.7199 136.88 47.4266 137.023 47.1866 137.31C46.9532 137.59 46.8366 137.983 46.8366 138.49C46.8366 138.95 46.9532 139.323 47.1866 139.61C47.4199 139.897 47.7099 140.04 48.0566 140.04ZM49.3166 133.93H50.5166V141H49.3166V140.21C48.9699 140.783 48.4566 141.07 47.7766 141.07C47.1099 141.07 46.5799 140.817 46.1866 140.31C45.7999 139.803 45.6066 139.19 45.6066 138.47C45.6066 137.67 45.8099 137.037 46.2166 136.57C46.6299 136.097 47.1566 135.86 47.7966 135.86C48.4566 135.86 48.9632 136.143 49.3166 136.71V133.93ZM54.4041 138.82H53.7841C53.4707 138.82 53.2307 138.887 53.0641 139.02C52.8974 139.147 52.8141 139.31 52.8141 139.51C52.8141 139.937 53.0607 140.15 53.5541 140.15C53.8207 140.15 54.0274 140.073 54.1741 139.92C54.3274 139.76 54.4041 139.553 54.4041 139.3V138.82ZM51.9441 137.3V136.19C52.3241 135.957 52.8707 135.84 53.5841 135.84C54.9574 135.84 55.6441 136.48 55.6441 137.76V141H54.4541V140.39C54.2207 140.823 53.7807 141.04 53.1341 141.04C52.6541 141.04 52.2707 140.9 51.9841 140.62C51.7041 140.34 51.5641 139.987 51.5641 139.56C51.5641 139.08 51.7441 138.703 52.1041 138.43C52.4641 138.157 52.9841 138.02 53.6641 138.02H54.4041V137.71C54.4041 137.43 54.3307 137.217 54.1841 137.07C54.0374 136.923 53.7874 136.85 53.4341 136.85C52.8941 136.85 52.3974 137 51.9441 137.3ZM58.0824 135.93V136.83C58.3158 136.203 58.7424 135.89 59.3624 135.89C59.5024 135.89 59.6158 135.9 59.7024 135.92V137.08C59.5491 137.013 59.3791 136.98 59.1924 136.98C58.8658 136.98 58.5991 137.113 58.3924 137.38C58.1858 137.647 58.0824 137.98 58.0824 138.38V141H56.8724L56.8824 135.93H58.0824ZM62.9978 138.82H62.3778C62.0645 138.82 61.8245 138.887 61.6578 139.02C61.4912 139.147 61.4078 139.31 61.4078 139.51C61.4078 139.937 61.6545 140.15 62.1478 140.15C62.4145 140.15 62.6212 140.073 62.7678 139.92C62.9212 139.76 62.9978 139.553 62.9978 139.3V138.82ZM60.5378 137.3V136.19C60.9178 135.957 61.4645 135.84 62.1778 135.84C63.5512 135.84 64.2378 136.48 64.2378 137.76V141H63.0478V140.39C62.8145 140.823 62.3745 141.04 61.7278 141.04C61.2478 141.04 60.8645 140.9 60.5778 140.62C60.2978 140.34 60.1578 139.987 60.1578 139.56C60.1578 139.08 60.3378 138.703 60.6978 138.43C61.0578 138.157 61.5778 138.02 62.2578 138.02H62.9978V137.71C62.9978 137.43 62.9245 137.217 62.7778 137.07C62.6312 136.923 62.3812 136.85 62.0278 136.85C61.4878 136.85 60.9912 137 60.5378 137.3ZM68.0662 138.82H67.4462C67.1329 138.82 66.8929 138.887 66.7262 139.02C66.5595 139.147 66.4762 139.31 66.4762 139.51C66.4762 139.937 66.7229 140.15 67.2162 140.15C67.4829 140.15 67.6895 140.073 67.8362 139.92C67.9895 139.76 68.0662 139.553 68.0662 139.3V138.82ZM65.6062 137.3V136.19C65.9862 135.957 66.5329 135.84 67.2462 135.84C68.6195 135.84 69.3062 136.48 69.3062 137.76V141H68.1162V140.39C67.8829 140.823 67.4429 141.04 66.7962 141.04C66.3162 141.04 65.9329 140.9 65.6462 140.62C65.3662 140.34 65.2262 139.987 65.2262 139.56C65.2262 139.08 65.4062 138.703 65.7662 138.43C66.1262 138.157 66.6462 138.02 67.3262 138.02H68.0662V137.71C68.0662 137.43 67.9929 137.217 67.8462 137.07C67.6995 136.923 67.4495 136.85 67.0962 136.85C66.5562 136.85 66.0595 137 65.6062 137.3ZM71.7445 135.93V136.8C72.0312 136.18 72.5512 135.87 73.3045 135.87C73.8112 135.87 74.2112 136.023 74.5045 136.33C74.7979 136.637 74.9445 137.07 74.9445 137.63V141H73.7445V137.88C73.7445 137.547 73.6645 137.297 73.5045 137.13C73.3445 136.957 73.1279 136.87 72.8545 136.87C72.5412 136.87 72.2779 136.993 72.0645 137.24C71.8512 137.48 71.7445 137.827 71.7445 138.28V141H70.5445V135.93H71.7445Z" fill="#2B2B2B"/>
<line x1="28" y1="149.75" x2="92" y2="149.75" stroke="#CCCCCC" stroke-width="0.5"/>
<path d="M31.44 157.808V158.488C31.1147 158.275 30.7253 158.168 30.272 158.168C29.9467 158.168 29.688 158.245 29.496 158.4C29.304 158.549 29.208 158.747 29.208 158.992C29.208 159.12 29.232 159.235 29.28 159.336C29.3333 159.437 29.424 159.533 29.552 159.624C29.68 159.709 29.7893 159.776 29.88 159.824C29.9707 159.867 30.112 159.931 30.304 160.016C30.4853 160.096 30.624 160.16 30.72 160.208C30.816 160.251 30.9387 160.323 31.088 160.424C31.2427 160.52 31.3573 160.616 31.432 160.712C31.512 160.803 31.5813 160.925 31.64 161.08C31.704 161.229 31.736 161.392 31.736 161.568C31.736 162.043 31.5733 162.411 31.248 162.672C30.9227 162.928 30.504 163.056 29.992 163.056C29.4267 163.056 28.9467 162.941 28.552 162.712V162.016C28.9413 162.309 29.416 162.456 29.976 162.456C30.312 162.456 30.576 162.381 30.768 162.232C30.96 162.083 31.056 161.867 31.056 161.584C31.056 161.467 31.032 161.363 30.984 161.272C30.9413 161.176 30.8667 161.091 30.76 161.016C30.6587 160.936 30.56 160.872 30.464 160.824C30.3733 160.771 30.248 160.707 30.088 160.632C30.056 160.616 30.008 160.595 29.944 160.568C29.7147 160.467 29.5387 160.384 29.416 160.32C29.2987 160.256 29.1573 160.163 28.992 160.04C28.832 159.912 28.7147 159.765 28.64 159.6C28.5653 159.435 28.528 159.243 28.528 159.024C28.528 158.565 28.6907 158.208 29.016 157.952C29.3467 157.691 29.76 157.56 30.256 157.56C30.72 157.56 31.1147 157.643 31.44 157.808ZM32.8113 163V158.944H33.4433V163H32.8113ZM32.8273 157.968C32.7527 157.888 32.7153 157.789 32.7153 157.672C32.7153 157.555 32.7527 157.456 32.8273 157.376C32.9073 157.296 33.006 157.256 33.1233 157.256C33.2407 157.256 33.3393 157.296 33.4193 157.376C33.4993 157.456 33.5393 157.555 33.5393 157.672C33.5393 157.789 33.4993 157.888 33.4193 157.968C33.3393 158.043 33.2407 158.08 33.1233 158.08C33.006 158.08 32.9073 158.043 32.8273 157.968ZM34.6785 163V157.344H35.3105V163H34.6785ZM37.5457 163L36.1297 158.944H36.7857L37.3457 160.656L37.9377 162.504C37.9857 162.275 38.1857 161.659 38.5377 160.656L39.1137 158.944H39.7697L38.3217 163H37.5457ZM43.1368 160.712V160.552C43.1368 160.216 43.0461 159.949 42.8648 159.752C42.6834 159.549 42.4328 159.448 42.1128 159.448C41.8088 159.448 41.5501 159.557 41.3368 159.776C41.1234 159.995 40.9981 160.307 40.9608 160.712H43.1368ZM43.5128 162.2V162.792C43.1981 162.957 42.8141 163.04 42.3608 163.04C41.7474 163.04 41.2514 162.853 40.8728 162.48C40.4994 162.101 40.3128 161.603 40.3128 160.984C40.3128 160.339 40.4808 159.829 40.8168 159.456C41.1528 159.083 41.5848 158.896 42.1128 158.896C42.6194 158.896 43.0221 159.059 43.3208 159.384C43.6194 159.709 43.7688 160.171 43.7688 160.768C43.7688 160.939 43.7554 161.096 43.7288 161.24H40.9608C41.0088 161.64 41.1608 161.947 41.4168 162.16C41.6728 162.373 42.0088 162.48 42.4248 162.48C42.8781 162.48 43.2408 162.387 43.5128 162.2ZM45.3565 158.944V159.656C45.5698 159.155 45.9378 158.904 46.4605 158.904C46.5565 158.904 46.6311 158.909 46.6845 158.92V159.544C46.5725 159.507 46.4578 159.488 46.3405 159.488C46.0578 159.488 45.8231 159.619 45.6365 159.88C45.4498 160.141 45.3565 160.443 45.3565 160.784V163H44.7245L44.7325 158.944H45.3565Z" fill="#2B2B2B"/>
<rect x="16.5" y="184.5" width="87" height="45" rx="3.5" fill="white"/>
<rect x="16.5" y="184.5" width="87" height="45" rx="3.5" stroke="#CCCCCC"/>
<path d="M28.7 199V192.26H29.96V199H28.7ZM31.56 195.64L34.07 199H32.48L30.06 195.66L32.39 192.26H33.9L31.56 195.64ZM37.9793 196.05V195.9C37.966 195.573 37.876 195.313 37.7093 195.12C37.5493 194.92 37.3126 194.82 36.9993 194.82C36.7126 194.82 36.4626 194.927 36.2493 195.14C36.0426 195.347 35.9093 195.65 35.8493 196.05H37.9793ZM38.7993 197.68V198.72C38.446 198.94 37.936 199.05 37.2693 199.05C36.4626 199.05 35.826 198.81 35.3593 198.33C34.8926 197.85 34.6593 197.23 34.6593 196.47C34.6593 195.663 34.8793 195.03 35.3193 194.57C35.7593 194.11 36.3093 193.88 36.9693 193.88C37.6293 193.88 38.1526 194.08 38.5393 194.48C38.926 194.88 39.1193 195.463 39.1193 196.23C39.1193 196.417 39.096 196.657 39.0493 196.95H35.8693C35.956 197.317 36.136 197.597 36.4093 197.79C36.6893 197.983 37.036 198.08 37.4493 198.08C37.9826 198.08 38.4326 197.947 38.7993 197.68ZM41.4223 193.93V194.8C41.7089 194.18 42.2289 193.87 42.9823 193.87C43.4889 193.87 43.8889 194.023 44.1823 194.33C44.4756 194.637 44.6223 195.07 44.6223 195.63V199H43.4223V195.88C43.4223 195.547 43.3423 195.297 43.1823 195.13C43.0223 194.957 42.8056 194.87 42.5323 194.87C42.2189 194.87 41.9556 194.993 41.7423 195.24C41.5289 195.48 41.4223 195.827 41.4223 196.28V199H40.2223V193.93H41.4223ZM48.0566 198.04C48.4166 198.04 48.7166 197.903 48.9566 197.63C49.1966 197.35 49.3166 196.947 49.3166 196.42C49.3166 195.907 49.1899 195.523 48.9366 195.27C48.6832 195.01 48.3932 194.88 48.0666 194.88C47.7199 194.88 47.4266 195.023 47.1866 195.31C46.9532 195.59 46.8366 195.983 46.8366 196.49C46.8366 196.95 46.9532 197.323 47.1866 197.61C47.4199 197.897 47.7099 198.04 48.0566 198.04ZM49.3166 191.93H50.5166V199H49.3166V198.21C48.9699 198.783 48.4566 199.07 47.7766 199.07C47.1099 199.07 46.5799 198.817 46.1866 198.31C45.7999 197.803 45.6066 197.19 45.6066 196.47C45.6066 195.67 45.8099 195.037 46.2166 194.57C46.6299 194.097 47.1566 193.86 47.7966 193.86C48.4566 193.86 48.9632 194.143 49.3166 194.71V191.93ZM54.4041 196.82H53.7841C53.4707 196.82 53.2307 196.887 53.0641 197.02C52.8974 197.147 52.8141 197.31 52.8141 197.51C52.8141 197.937 53.0607 198.15 53.5541 198.15C53.8207 198.15 54.0274 198.073 54.1741 197.92C54.3274 197.76 54.4041 197.553 54.4041 197.3V196.82ZM51.9441 195.3V194.19C52.3241 193.957 52.8707 193.84 53.5841 193.84C54.9574 193.84 55.6441 194.48 55.6441 195.76V199H54.4541V198.39C54.2207 198.823 53.7807 199.04 53.1341 199.04C52.6541 199.04 52.2707 198.9 51.9841 198.62C51.7041 198.34 51.5641 197.987 51.5641 197.56C51.5641 197.08 51.7441 196.703 52.1041 196.43C52.4641 196.157 52.9841 196.02 53.6641 196.02H54.4041V195.71C54.4041 195.43 54.3307 195.217 54.1841 195.07C54.0374 194.923 53.7874 194.85 53.4341 194.85C52.8941 194.85 52.3974 195 51.9441 195.3ZM58.0824 193.93V194.83C58.3158 194.203 58.7424 193.89 59.3624 193.89C59.5024 193.89 59.6158 193.9 59.7024 193.92V195.08C59.5491 195.013 59.3791 194.98 59.1924 194.98C58.8658 194.98 58.5991 195.113 58.3924 195.38C58.1858 195.647 58.0824 195.98 58.0824 196.38V199H56.8724L56.8824 193.93H58.0824ZM62.9978 196.82H62.3778C62.0645 196.82 61.8245 196.887 61.6578 197.02C61.4912 197.147 61.4078 197.31 61.4078 197.51C61.4078 197.937 61.6545 198.15 62.1478 198.15C62.4145 198.15 62.6212 198.073 62.7678 197.92C62.9212 197.76 62.9978 197.553 62.9978 197.3V196.82ZM60.5378 195.3V194.19C60.9178 193.957 61.4645 193.84 62.1778 193.84C63.5512 193.84 64.2378 194.48 64.2378 195.76V199H63.0478V198.39C62.8145 198.823 62.3745 199.04 61.7278 199.04C61.2478 199.04 60.8645 198.9 60.5778 198.62C60.2978 198.34 60.1578 197.987 60.1578 197.56C60.1578 197.08 60.3378 196.703 60.6978 196.43C61.0578 196.157 61.5778 196.02 62.2578 196.02H62.9978V195.71C62.9978 195.43 62.9245 195.217 62.7778 195.07C62.6312 194.923 62.3812 194.85 62.0278 194.85C61.4878 194.85 60.9912 195 60.5378 195.3ZM68.0662 196.82H67.4462C67.1329 196.82 66.8929 196.887 66.7262 197.02C66.5595 197.147 66.4762 197.31 66.4762 197.51C66.4762 197.937 66.7229 198.15 67.2162 198.15C67.4829 198.15 67.6895 198.073 67.8362 197.92C67.9895 197.76 68.0662 197.553 68.0662 197.3V196.82ZM65.6062 195.3V194.19C65.9862 193.957 66.5329 193.84 67.2462 193.84C68.6195 193.84 69.3062 194.48 69.3062 195.76V199H68.1162V198.39C67.8829 198.823 67.4429 199.04 66.7962 199.04C66.3162 199.04 65.9329 198.9 65.6462 198.62C65.3662 198.34 65.2262 197.987 65.2262 197.56C65.2262 197.08 65.4062 196.703 65.7662 196.43C66.1262 196.157 66.6462 196.02 67.3262 196.02H68.0662V195.71C68.0662 195.43 67.9929 195.217 67.8462 195.07C67.6995 194.923 67.4495 194.85 67.0962 194.85C66.5562 194.85 66.0595 195 65.6062 195.3ZM71.7445 193.93V194.8C72.0312 194.18 72.5512 193.87 73.3045 193.87C73.8112 193.87 74.2112 194.023 74.5045 194.33C74.7979 194.637 74.9445 195.07 74.9445 195.63V199H73.7445V195.88C73.7445 195.547 73.6645 195.297 73.5045 195.13C73.3445 194.957 73.1279 194.87 72.8545 194.87C72.5412 194.87 72.2779 194.993 72.0645 195.24C71.8512 195.48 71.7445 195.827 71.7445 196.28V199H70.5445V193.93H71.7445Z" fill="#2B2B2B"/>
<line x1="28" y1="207.75" x2="92" y2="207.75" stroke="#CCCCCC" stroke-width="0.5"/>
<path d="M32.824 217.976V220.552H32.816L32.824 220.576C32.392 220.901 31.8347 221.064 31.152 221.064C30.32 221.064 29.6507 220.819 29.144 220.328C28.6373 219.832 28.384 219.155 28.384 218.296C28.384 217.48 28.6347 216.813 29.136 216.296C29.6427 215.773 30.28 215.512 31.048 215.512C31.6827 215.512 32.208 215.635 32.624 215.88V216.576C32.1867 216.288 31.68 216.144 31.104 216.144C30.5013 216.144 30.0107 216.341 29.632 216.736C29.2533 217.125 29.064 217.645 29.064 218.296C29.064 218.963 29.2507 219.488 29.624 219.872C29.9973 220.251 30.512 220.44 31.168 220.44C31.5307 220.44 31.8667 220.368 32.176 220.224V218.544H30.992V217.976H32.824ZM35.5914 221.072C35.0101 221.072 34.5487 220.877 34.2074 220.488C33.8714 220.093 33.7034 219.597 33.7034 219C33.7034 218.397 33.8767 217.896 34.2234 217.496C34.5754 217.091 35.0314 216.888 35.5914 216.888C36.2047 216.888 36.6767 217.085 37.0074 217.48C37.3434 217.875 37.5114 218.376 37.5114 218.984C37.5114 219.587 37.3407 220.085 36.9994 220.48C36.6581 220.875 36.1887 221.072 35.5914 221.072ZM35.5914 217.448C35.2074 217.448 34.9061 217.597 34.6874 217.896C34.4687 218.195 34.3594 218.56 34.3594 218.992C34.3594 219.413 34.4714 219.773 34.6954 220.072C34.9194 220.365 35.2181 220.512 35.5914 220.512C35.9967 220.512 36.3087 220.368 36.5274 220.08C36.7461 219.787 36.8554 219.424 36.8554 218.992C36.8554 218.544 36.7514 218.176 36.5434 217.888C36.3354 217.595 36.0181 217.448 35.5914 217.448ZM38.4676 221V215.344H39.0996V221H38.4676ZM41.8468 220.488C42.1774 220.488 42.4574 220.365 42.6868 220.12C42.9214 219.875 43.0388 219.483 43.0388 218.944C43.0388 218.432 42.9188 218.056 42.6788 217.816C42.4388 217.576 42.1748 217.456 41.8868 217.456C41.5508 217.456 41.2708 217.592 41.0468 217.864C40.8281 218.131 40.7188 218.515 40.7188 219.016C40.7188 219.453 40.8254 219.808 41.0388 220.08C41.2521 220.352 41.5214 220.488 41.8468 220.488ZM43.0388 215.344H43.6708V221H43.0388V220.4C42.7508 220.843 42.3348 221.064 41.7908 221.064C41.2521 221.064 40.8281 220.864 40.5188 220.464C40.2148 220.064 40.0628 219.579 40.0628 219.008C40.0628 218.373 40.2254 217.861 40.5508 217.472C40.8761 217.077 41.2948 216.88 41.8068 216.88C42.3348 216.88 42.7454 217.107 43.0388 217.56V215.344Z" fill="#2B2B2B"/>
<line x1="120.25" y1="68" x2="120.25" y2="232" stroke="#DA011C" stroke-width="0.5"/>
<rect x="136.5" y="68.5" width="163" height="31" rx="7.5" stroke="#FF1934"/>
<path d="M210.422 80.53V81.55C209.975 81.27 209.468 81.13 208.902 81.13C208.535 81.13 208.245 81.2133 208.032 81.38C207.825 81.54 207.722 81.7533 207.722 82.02C207.722 82.2867 207.825 82.5 208.032 82.66C208.238 82.82 208.555 82.9933 208.982 83.18C209.262 83.3 209.478 83.4033 209.632 83.49C209.792 83.5767 209.972 83.7 210.172 83.86C210.378 84.0133 210.528 84.2 210.622 84.42C210.722 84.6333 210.772 84.88 210.772 85.16C210.772 85.7533 210.562 86.22 210.142 86.56C209.722 86.9 209.178 87.07 208.512 87.07C207.772 87.07 207.158 86.9267 206.672 86.64V85.57C207.198 85.9633 207.808 86.16 208.502 86.16C208.868 86.16 209.158 86.0767 209.372 85.91C209.585 85.7367 209.692 85.5 209.692 85.2C209.692 85.02 209.628 84.8567 209.502 84.71C209.375 84.5567 209.238 84.4433 209.092 84.37C208.945 84.29 208.725 84.1833 208.432 84.05C208.258 83.97 208.135 83.9133 208.062 83.88C207.995 83.8467 207.882 83.7867 207.722 83.7C207.562 83.6133 207.442 83.54 207.362 83.48C207.288 83.42 207.195 83.3367 207.082 83.23C206.968 83.1233 206.885 83.0167 206.832 82.91C206.785 82.8033 206.738 82.68 206.692 82.54C206.652 82.3933 206.632 82.2367 206.632 82.07C206.632 81.4967 206.838 81.0433 207.252 80.71C207.672 80.3767 208.212 80.21 208.872 80.21C209.478 80.21 209.995 80.3167 210.422 80.53ZM211.997 87V81.93H212.987V87H211.997ZM212.047 80.82C211.933 80.7 211.877 80.5533 211.877 80.38C211.877 80.2067 211.933 80.06 212.047 79.94C212.167 79.82 212.313 79.76 212.487 79.76C212.66 79.76 212.807 79.82 212.927 79.94C213.047 80.06 213.107 80.2067 213.107 80.38C213.107 80.5467 213.047 80.69 212.927 80.81C212.807 80.93 212.66 80.99 212.487 80.99C212.313 80.99 212.167 80.9333 212.047 80.82ZM214.448 87V79.93H215.438V87H214.448ZM218.159 87L216.359 81.93H217.389L218.079 84.07C218.239 84.5633 218.372 84.99 218.479 85.35C218.592 85.71 218.662 85.9467 218.689 86.06L218.729 86.23C218.789 85.9033 219.009 85.1833 219.389 84.07L220.099 81.93H221.119L219.279 87H218.159ZM225.146 84.1V83.92C225.132 83.54 225.029 83.24 224.836 83.02C224.642 82.7933 224.366 82.68 224.006 82.68C223.672 82.68 223.386 82.8033 223.146 83.05C222.906 83.29 222.756 83.64 222.696 84.1H225.146ZM225.776 85.85V86.73C225.402 86.9433 224.909 87.05 224.296 87.05C223.509 87.05 222.882 86.8133 222.416 86.34C221.949 85.8667 221.716 85.2467 221.716 84.48C221.716 83.6667 221.929 83.03 222.356 82.57C222.782 82.1033 223.326 81.87 223.986 81.87C224.632 81.87 225.146 82.0733 225.526 82.48C225.906 82.88 226.096 83.46 226.096 84.22C226.096 84.4267 226.076 84.6433 226.036 84.87H222.706C222.772 85.31 222.959 85.6467 223.266 85.88C223.572 86.1133 223.959 86.23 224.426 86.23C224.966 86.23 225.416 86.1033 225.776 85.85ZM228.23 81.93V82.82C228.476 82.1933 228.92 81.88 229.56 81.88C229.653 81.88 229.756 81.89 229.87 81.91V82.87C229.73 82.81 229.573 82.78 229.4 82.78C229.06 82.78 228.78 82.93 228.56 83.23C228.34 83.53 228.23 83.8867 228.23 84.3V87H227.25V81.93H228.23Z" fill="#2B2B2B"/>
<rect x="158" y="61" width="119" height="13" rx="6.5" fill="#FF1934"/>
<path d="M168.181 64.608V65.176H166.725V70H166.077V65.176H164.621V64.608H168.181ZM168.952 70V65.944H169.584V70H168.952ZM168.968 64.968C168.893 64.888 168.856 64.7893 168.856 64.672C168.856 64.5547 168.893 64.456 168.968 64.376C169.048 64.296 169.147 64.256 169.264 64.256C169.381 64.256 169.48 64.296 169.56 64.376C169.64 64.456 169.68 64.5547 169.68 64.672C169.68 64.7893 169.64 64.888 169.56 64.968C169.48 65.0427 169.381 65.08 169.264 65.08C169.147 65.08 169.048 65.0427 168.968 64.968ZM172.571 69.488C172.912 69.488 173.192 69.3547 173.411 69.088C173.63 68.816 173.739 68.432 173.739 67.936C173.739 67.4933 173.632 67.136 173.419 66.864C173.206 66.592 172.936 66.456 172.611 66.456C172.286 66.456 172.003 66.576 171.763 66.816C171.528 67.0507 171.411 67.4373 171.411 67.976C171.411 68.4933 171.531 68.8747 171.771 69.12C172.011 69.3653 172.278 69.488 172.571 69.488ZM171.411 65.944V66.56C171.694 66.1067 172.112 65.88 172.667 65.88C173.206 65.88 173.627 66.0773 173.931 66.472C174.24 66.8613 174.395 67.3493 174.395 67.936C174.395 68.56 174.232 69.072 173.907 69.472C173.587 69.8667 173.168 70.064 172.651 70.064C172.118 70.064 171.704 69.8373 171.411 69.384V71.576H170.787V65.944H171.411ZM177.91 67.712V67.552C177.91 67.216 177.82 66.9493 177.638 66.752C177.457 66.5493 177.206 66.448 176.886 66.448C176.582 66.448 176.324 66.5573 176.11 66.776C175.897 66.9947 175.772 67.3067 175.734 67.712H177.91ZM178.286 69.2V69.792C177.972 69.9573 177.588 70.04 177.134 70.04C176.521 70.04 176.025 69.8533 175.646 69.48C175.273 69.1013 175.086 68.6027 175.086 67.984C175.086 67.3387 175.254 66.8293 175.59 66.456C175.926 66.0827 176.358 65.896 176.886 65.896C177.393 65.896 177.796 66.0587 178.094 66.384C178.393 66.7093 178.542 67.1707 178.542 67.768C178.542 67.9387 178.529 68.096 178.502 68.24H175.734C175.782 68.64 175.934 68.9467 176.19 69.16C176.446 69.3733 176.782 69.48 177.198 69.48C177.652 69.48 178.014 69.3867 178.286 69.2ZM182.515 68.032H184.427L184.323 67.72L183.483 65.128C183.419 65.3573 183.131 66.224 182.619 67.728L182.515 68.032ZM185.083 70L184.611 68.584H182.331L181.851 70H181.155L183.035 64.608H183.931L185.779 70H185.083ZM188.855 66.08V66.68C188.609 66.5307 188.273 66.456 187.847 66.456C187.633 66.456 187.463 66.5067 187.335 66.608C187.212 66.704 187.151 66.8293 187.151 66.984C187.151 67.08 187.169 67.1653 187.207 67.24C187.244 67.3093 187.316 67.3787 187.423 67.448C187.535 67.5173 187.615 67.5653 187.663 67.592C187.716 67.6133 187.828 67.6613 187.999 67.736C188.34 67.8747 188.607 68.032 188.799 68.208C188.991 68.384 189.087 68.6213 189.087 68.92C189.087 69.2667 188.964 69.5413 188.719 69.744C188.479 69.9467 188.148 70.048 187.727 70.048C187.236 70.048 186.839 69.9653 186.535 69.8V69.184C186.892 69.3973 187.276 69.504 187.687 69.504C187.932 69.504 188.119 69.456 188.247 69.36C188.375 69.264 188.439 69.1333 188.439 68.968C188.439 68.776 188.367 68.6267 188.223 68.52C188.084 68.4133 187.849 68.2933 187.519 68.16C187.215 68.0427 186.969 67.896 186.783 67.72C186.601 67.544 186.511 67.3067 186.511 67.008C186.511 66.672 186.636 66.4053 186.887 66.208C187.143 66.0053 187.46 65.904 187.839 65.904C188.26 65.904 188.599 65.9627 188.855 66.08ZM192.463 65.944H193.095V70H192.463V69.296C192.25 69.7973 191.826 70.048 191.191 70.048C190.791 70.048 190.474 69.9307 190.239 69.696C190.01 69.456 189.895 69.136 189.895 68.736V65.944H190.527V68.576C190.527 68.8693 190.602 69.0933 190.751 69.248C190.901 69.4027 191.103 69.48 191.359 69.48C191.695 69.48 191.962 69.3627 192.159 69.128C192.362 68.8933 192.463 68.576 192.463 68.176V65.944ZM194.888 65.944V66.656C195.101 66.1547 195.469 65.904 195.992 65.904C196.088 65.904 196.162 65.9093 196.216 65.92V66.544C196.104 66.5067 195.989 66.488 195.872 66.488C195.589 66.488 195.354 66.6187 195.168 66.88C194.981 67.1413 194.888 67.4427 194.888 67.784V70H194.256L194.264 65.944H194.888ZM199.057 68.128H198.353C198.012 68.128 197.756 68.1947 197.585 68.328C197.414 68.4613 197.329 68.6293 197.329 68.832C197.329 69.0347 197.396 69.2 197.529 69.328C197.662 69.4507 197.857 69.512 198.113 69.512C198.401 69.512 198.63 69.432 198.801 69.272C198.972 69.1067 199.057 68.8987 199.057 68.648V68.128ZM196.961 66.792V66.16C197.265 65.9733 197.665 65.88 198.161 65.88C199.18 65.88 199.689 66.3973 199.689 67.432V70H199.065V69.52C198.857 69.8667 198.478 70.04 197.929 70.04C197.55 70.04 197.244 69.928 197.009 69.704C196.78 69.48 196.665 69.1973 196.665 68.856C196.665 68.4667 196.812 68.1653 197.105 67.952C197.404 67.7333 197.809 67.624 198.321 67.624H199.057V67.416C199.057 67.096 198.985 66.856 198.841 66.696C198.697 66.5307 198.454 66.448 198.113 66.448C197.681 66.448 197.297 66.5627 196.961 66.792ZM201.435 65.944V66.648C201.675 66.1413 202.101 65.888 202.715 65.888C203.109 65.888 203.424 66.008 203.659 66.248C203.893 66.488 204.011 66.808 204.011 67.208V70H203.379V67.376C203.379 67.0773 203.301 66.8507 203.147 66.696C202.997 66.536 202.8 66.456 202.555 66.456C202.251 66.456 201.987 66.5733 201.763 66.808C201.544 67.0427 201.435 67.368 201.435 67.784V70H200.811V65.944H201.435ZM207.339 66.08V66.68C207.094 66.5307 206.758 66.456 206.331 66.456C206.118 66.456 205.947 66.5067 205.819 66.608C205.696 66.704 205.635 66.8293 205.635 66.984C205.635 67.08 205.654 67.1653 205.691 67.24C205.728 67.3093 205.8 67.3787 205.907 67.448C206.019 67.5173 206.099 67.5653 206.147 67.592C206.2 67.6133 206.312 67.6613 206.483 67.736C206.824 67.8747 207.091 68.032 207.283 68.208C207.475 68.384 207.571 68.6213 207.571 68.92C207.571 69.2667 207.448 69.5413 207.203 69.744C206.963 69.9467 206.632 70.048 206.211 70.048C205.72 70.048 205.323 69.9653 205.019 69.8V69.184C205.376 69.3973 205.76 69.504 206.171 69.504C206.416 69.504 206.603 69.456 206.731 69.36C206.859 69.264 206.923 69.1333 206.923 68.968C206.923 68.776 206.851 68.6267 206.707 68.52C206.568 68.4133 206.334 68.2933 206.003 68.16C205.699 68.0427 205.454 67.896 205.267 67.72C205.086 67.544 204.995 67.3067 204.995 67.008C204.995 66.672 205.12 66.4053 205.371 66.208C205.627 66.0053 205.944 65.904 206.323 65.904C206.744 65.904 207.083 65.9627 207.339 66.08ZM208.46 70V65.944H209.092V70H208.46ZM208.476 64.968C208.401 64.888 208.364 64.7893 208.364 64.672C208.364 64.5547 208.401 64.456 208.476 64.376C208.556 64.296 208.654 64.256 208.772 64.256C208.889 64.256 208.988 64.296 209.068 64.376C209.148 64.456 209.188 64.5547 209.188 64.672C209.188 64.7893 209.148 64.888 209.068 64.968C208.988 65.0427 208.889 65.08 208.772 65.08C208.654 65.08 208.556 65.0427 208.476 64.968ZM216.2 64.608L214.352 67.992V70H213.704V68L211.872 64.608H212.624L213.032 65.4C213.309 65.9333 213.531 66.368 213.696 66.704C213.861 67.04 213.957 67.2427 213.984 67.312L214.024 67.408C214.072 67.2747 214.411 66.6053 215.04 65.4L215.448 64.608H216.2ZM219.174 68.128H218.47C218.129 68.128 217.873 68.1947 217.702 68.328C217.532 68.4613 217.446 68.6293 217.446 68.832C217.446 69.0347 217.513 69.2 217.646 69.328C217.78 69.4507 217.974 69.512 218.23 69.512C218.518 69.512 218.748 69.432 218.918 69.272C219.089 69.1067 219.174 68.8987 219.174 68.648V68.128ZM217.078 66.792V66.16C217.382 65.9733 217.782 65.88 218.278 65.88C219.297 65.88 219.806 66.3973 219.806 67.432V70H219.182V69.52C218.974 69.8667 218.596 70.04 218.046 70.04C217.668 70.04 217.361 69.928 217.126 69.704C216.897 69.48 216.782 69.1973 216.782 68.856C216.782 68.4667 216.929 68.1653 217.222 67.952C217.521 67.7333 217.926 67.624 218.438 67.624H219.174V67.416C219.174 67.096 219.102 66.856 218.958 66.696C218.814 66.5307 218.572 66.448 218.23 66.448C217.798 66.448 217.414 66.5627 217.078 66.792ZM221.552 65.944V66.648C221.792 66.1413 222.218 65.888 222.832 65.888C223.226 65.888 223.541 66.008 223.776 66.248C224.01 66.488 224.128 66.808 224.128 67.208V70H223.496V67.376C223.496 67.0773 223.418 66.8507 223.264 66.696C223.114 66.536 222.917 66.456 222.672 66.456C222.368 66.456 222.104 66.5733 221.88 66.808C221.661 67.0427 221.552 67.368 221.552 67.784V70H220.928V65.944H221.552ZM226.768 69.336C227.061 69.336 227.32 69.224 227.544 69C227.773 68.7707 227.888 68.432 227.888 67.984C227.888 67.4667 227.779 67.0827 227.56 66.832C227.341 66.5813 227.088 66.456 226.8 66.456C226.453 66.456 226.179 66.5947 225.976 66.872C225.773 67.144 225.672 67.5013 225.672 67.944C225.672 68.3973 225.784 68.744 226.008 68.984C226.232 69.2187 226.485 69.336 226.768 69.336ZM227.888 65.944H228.52V69.672C228.52 70.2907 228.349 70.7547 228.008 71.064C227.667 71.3787 227.227 71.536 226.688 71.536C226.197 71.536 225.779 71.4533 225.432 71.288V70.656C225.773 70.8533 226.173 70.952 226.632 70.952C227.021 70.952 227.328 70.848 227.552 70.64C227.776 70.432 227.888 70.1067 227.888 69.664V69.208C227.621 69.6667 227.224 69.896 226.696 69.896C226.232 69.896 225.835 69.7253 225.504 69.384C225.179 69.0427 225.016 68.568 225.016 67.96C225.016 67.3573 225.168 66.8613 225.472 66.472C225.776 66.0827 226.173 65.888 226.664 65.888C227.219 65.888 227.627 66.1307 227.888 66.616V65.944ZM231.624 70V64.608H232.272V70H231.624ZM233.2 67.336L235.368 70H234.528L232.4 67.336L234.456 64.608H235.256L233.2 67.336ZM238.362 68.128H237.658C237.316 68.128 237.06 68.1947 236.89 68.328C236.719 68.4613 236.634 68.6293 236.634 68.832C236.634 69.0347 236.7 69.2 236.834 69.328C236.967 69.4507 237.162 69.512 237.418 69.512C237.706 69.512 237.935 69.432 238.106 69.272C238.276 69.1067 238.362 68.8987 238.362 68.648V68.128ZM236.266 66.792V66.16C236.57 65.9733 236.97 65.88 237.466 65.88C238.484 65.88 238.994 66.3973 238.994 67.432V70H238.37V69.52C238.162 69.8667 237.783 70.04 237.234 70.04C236.855 70.04 236.548 69.928 236.314 69.704C236.084 69.48 235.97 69.1973 235.97 68.856C235.97 68.4667 236.116 68.1653 236.41 67.952C236.708 67.7333 237.114 67.624 237.626 67.624H238.362V67.416C238.362 67.096 238.29 66.856 238.146 66.696C238.002 66.5307 237.759 66.448 237.418 66.448C236.986 66.448 236.602 66.5627 236.266 66.792ZM240.739 65.944V66.6C240.963 66.1253 241.345 65.888 241.883 65.888C242.507 65.888 242.902 66.152 243.067 66.68C243.185 66.424 243.347 66.2293 243.555 66.096C243.769 65.9573 244.006 65.888 244.267 65.888C244.689 65.888 245.006 66.008 245.219 66.248C245.433 66.488 245.539 66.8107 245.539 67.216V70H244.907V67.376C244.907 66.7627 244.649 66.456 244.131 66.456C243.875 66.456 243.646 66.5733 243.443 66.808C243.241 67.0373 243.139 67.3627 243.139 67.784V70H242.507V67.376C242.507 66.7627 242.249 66.456 241.731 66.456C241.475 66.456 241.246 66.5733 241.043 66.808C240.841 67.0373 240.739 67.3627 240.739 67.784V70H240.115V65.944H240.739ZM249.182 65.944H249.814V70H249.182V69.296C248.969 69.7973 248.545 70.048 247.91 70.048C247.51 70.048 247.193 69.9307 246.958 69.696C246.729 69.456 246.614 69.136 246.614 68.736V65.944H247.246V68.576C247.246 68.8693 247.321 69.0933 247.47 69.248C247.619 69.4027 247.822 69.48 248.078 69.48C248.414 69.48 248.681 69.3627 248.878 69.128C249.081 68.8933 249.182 68.576 249.182 68.176V65.944ZM252.912 70L253.304 64.608H254.128L254.84 66.576L255.704 69.088C256.013 68.2133 256.317 67.376 256.616 66.576L257.36 64.608H258.184L258.656 70H258.008L257.824 67.872L257.632 65.48C257.349 66.2693 257.058 67.0667 256.76 67.872L256.008 69.88H255.392L254.68 67.872L253.864 65.528C253.864 65.736 253.813 66.5173 253.712 67.872L253.56 70H252.912ZM259.827 70V65.944H260.459V70H259.827ZM259.843 64.968C259.768 64.888 259.731 64.7893 259.731 64.672C259.731 64.5547 259.768 64.456 259.843 64.376C259.923 64.296 260.022 64.256 260.139 64.256C260.256 64.256 260.355 64.296 260.435 64.376C260.515 64.456 260.555 64.5547 260.555 64.672C260.555 64.7893 260.515 64.888 260.435 64.968C260.355 65.0427 260.256 65.08 260.139 65.08C260.022 65.08 259.923 65.0427 259.843 64.968ZM261.694 70V64.344H262.326V70H261.694ZM263.561 70V65.944H264.193V70H263.561ZM263.577 64.968C263.503 64.888 263.465 64.7893 263.465 64.672C263.465 64.5547 263.503 64.456 263.577 64.376C263.657 64.296 263.756 64.256 263.873 64.256C263.991 64.256 264.089 64.296 264.169 64.376C264.249 64.456 264.289 64.5547 264.289 64.672C264.289 64.7893 264.249 64.888 264.169 64.968C264.089 65.0427 263.991 65.08 263.873 65.08C263.756 65.08 263.657 65.0427 263.577 64.968ZM265.397 70V64.376H266.021V70H265.397ZM266.845 67.872L268.493 70H267.733L266.101 67.872L267.693 65.944H268.445L266.845 67.872ZM269.272 70V65.944H269.904V70H269.272ZM269.288 64.968C269.214 64.888 269.176 64.7893 269.176 64.672C269.176 64.5547 269.214 64.456 269.288 64.376C269.368 64.296 269.467 64.256 269.584 64.256C269.702 64.256 269.8 64.296 269.88 64.376C269.96 64.456 270 64.5547 270 64.672C270 64.7893 269.96 64.888 269.88 64.968C269.8 65.0427 269.702 65.08 269.584 65.08C269.467 65.08 269.368 65.0427 269.288 64.968Z" fill="white"/>
<path d="M137.264 118.464H138.096C138.501 118.464 138.819 118.36 139.048 118.152C139.277 117.939 139.392 117.669 139.392 117.344C139.392 116.981 139.275 116.693 139.04 116.48C138.805 116.267 138.472 116.16 138.04 116.16H137.264V118.464ZM136.616 115.608H138.032C138.656 115.608 139.147 115.771 139.504 116.096C139.867 116.416 140.048 116.832 140.048 117.344C140.048 117.824 139.869 118.224 139.512 118.544C139.155 118.859 138.683 119.016 138.096 119.016H137.264V121H136.616V115.608ZM143.527 118.712V118.552C143.527 118.216 143.437 117.949 143.255 117.752C143.074 117.549 142.823 117.448 142.503 117.448C142.199 117.448 141.941 117.557 141.727 117.776C141.514 117.995 141.389 118.307 141.351 118.712H143.527ZM143.903 120.2V120.792C143.589 120.957 143.205 121.04 142.751 121.04C142.138 121.04 141.642 120.853 141.263 120.48C140.89 120.101 140.703 119.603 140.703 118.984C140.703 118.339 140.871 117.829 141.207 117.456C141.543 117.083 141.975 116.896 142.503 116.896C143.01 116.896 143.413 117.059 143.711 117.384C144.01 117.709 144.159 118.171 144.159 118.768C144.159 118.939 144.146 119.096 144.119 119.24H141.351C141.399 119.64 141.551 119.947 141.807 120.16C142.063 120.373 142.399 120.48 142.815 120.48C143.269 120.48 143.631 120.387 143.903 120.2ZM147.331 117.08V117.68C147.086 117.531 146.75 117.456 146.323 117.456C146.11 117.456 145.939 117.507 145.811 117.608C145.688 117.704 145.627 117.829 145.627 117.984C145.627 118.08 145.646 118.165 145.683 118.24C145.72 118.309 145.792 118.379 145.899 118.448C146.011 118.517 146.091 118.565 146.139 118.592C146.192 118.613 146.304 118.661 146.475 118.736C146.816 118.875 147.083 119.032 147.275 119.208C147.467 119.384 147.563 119.621 147.563 119.92C147.563 120.267 147.44 120.541 147.195 120.744C146.955 120.947 146.624 121.048 146.203 121.048C145.712 121.048 145.315 120.965 145.011 120.8V120.184C145.368 120.397 145.752 120.504 146.163 120.504C146.408 120.504 146.595 120.456 146.723 120.36C146.851 120.264 146.915 120.133 146.915 119.968C146.915 119.776 146.843 119.627 146.699 119.52C146.56 119.413 146.326 119.293 145.995 119.16C145.691 119.043 145.446 118.896 145.259 118.72C145.078 118.544 144.987 118.307 144.987 118.008C144.987 117.672 145.112 117.405 145.363 117.208C145.619 117.005 145.936 116.904 146.315 116.904C146.736 116.904 147.075 116.963 147.331 117.08ZM151.004 118.712V118.552C151.004 118.216 150.913 117.949 150.732 117.752C150.551 117.549 150.3 117.448 149.98 117.448C149.676 117.448 149.417 117.557 149.204 117.776C148.991 117.995 148.865 118.307 148.828 118.712H151.004ZM151.38 120.2V120.792C151.065 120.957 150.681 121.04 150.228 121.04C149.615 121.04 149.119 120.853 148.74 120.48C148.367 120.101 148.18 119.603 148.18 118.984C148.18 118.339 148.348 117.829 148.684 117.456C149.02 117.083 149.452 116.896 149.98 116.896C150.487 116.896 150.889 117.059 151.188 117.384C151.487 117.709 151.636 118.171 151.636 118.768C151.636 118.939 151.623 119.096 151.596 119.24H148.828C148.876 119.64 149.028 119.947 149.284 120.16C149.54 120.373 149.876 120.48 150.292 120.48C150.745 120.48 151.108 120.387 151.38 120.2ZM153.224 116.944V117.656C153.437 117.155 153.805 116.904 154.328 116.904C154.424 116.904 154.498 116.909 154.552 116.92V117.544C154.44 117.507 154.325 117.488 154.208 117.488C153.925 117.488 153.69 117.619 153.504 117.88C153.317 118.141 153.224 118.443 153.224 118.784V121H152.592L152.6 116.944H153.224ZM156.081 117.456V119.832C156.081 120.264 156.284 120.48 156.689 120.48C156.897 120.48 157.081 120.419 157.241 120.296V120.896C157.065 120.992 156.868 121.04 156.649 121.04C155.849 121.04 155.449 120.632 155.449 119.816V117.456H154.801V116.944H155.449V115.936H156.081V116.944H157.201V117.456H156.081ZM160.346 119.128H159.642C159.301 119.128 159.045 119.195 158.874 119.328C158.703 119.461 158.618 119.629 158.618 119.832C158.618 120.035 158.685 120.2 158.818 120.328C158.951 120.451 159.146 120.512 159.402 120.512C159.69 120.512 159.919 120.432 160.09 120.272C160.261 120.107 160.346 119.899 160.346 119.648V119.128ZM158.25 117.792V117.16C158.554 116.973 158.954 116.88 159.45 116.88C160.469 116.88 160.978 117.397 160.978 118.432V121H160.354V120.52C160.146 120.867 159.767 121.04 159.218 121.04C158.839 121.04 158.533 120.928 158.298 120.704C158.069 120.48 157.954 120.197 157.954 119.856C157.954 119.467 158.101 119.165 158.394 118.952C158.693 118.733 159.098 118.624 159.61 118.624H160.346V118.416C160.346 118.096 160.274 117.856 160.13 117.696C159.986 117.531 159.743 117.448 159.402 117.448C158.97 117.448 158.586 117.563 158.25 117.792ZM163.941 117.96C163.941 117.832 163.983 117.723 164.069 117.632C164.159 117.541 164.271 117.496 164.405 117.496C164.538 117.496 164.65 117.541 164.741 117.632C164.831 117.723 164.877 117.832 164.877 117.96C164.877 118.093 164.831 118.205 164.741 118.296C164.65 118.381 164.538 118.424 164.405 118.424C164.271 118.424 164.159 118.381 164.069 118.296C163.983 118.205 163.941 118.093 163.941 117.96ZM164.069 120.88C163.983 120.789 163.941 120.677 163.941 120.544C163.941 120.411 163.983 120.299 164.069 120.208C164.159 120.117 164.271 120.072 164.405 120.072C164.538 120.072 164.65 120.117 164.741 120.208C164.831 120.299 164.877 120.411 164.877 120.544C164.877 120.677 164.831 120.789 164.741 120.88C164.65 120.965 164.538 121.008 164.405 121.008C164.271 121.008 164.159 120.965 164.069 120.88ZM139.576 130.176H137.264V132.088H139.296V132.656H137.264V135H136.616V129.608H139.576V130.176ZM142.682 133.128H141.978C141.637 133.128 141.381 133.195 141.21 133.328C141.039 133.461 140.954 133.629 140.954 133.832C140.954 134.035 141.021 134.2 141.154 134.328C141.287 134.451 141.482 134.512 141.738 134.512C142.026 134.512 142.255 134.432 142.426 134.272C142.597 134.107 142.682 133.899 142.682 133.648V133.128ZM140.586 131.792V131.16C140.89 130.973 141.29 130.88 141.786 130.88C142.805 130.88 143.314 131.397 143.314 132.432V135H142.69V134.52C142.482 134.867 142.103 135.04 141.554 135.04C141.175 135.04 140.869 134.928 140.634 134.704C140.405 134.48 140.29 134.197 140.29 133.856C140.29 133.467 140.437 133.165 140.73 132.952C141.029 132.733 141.434 132.624 141.946 132.624H142.682V132.416C142.682 132.096 142.61 131.856 142.466 131.696C142.322 131.531 142.079 131.448 141.738 131.448C141.306 131.448 140.922 131.563 140.586 131.792ZM146.644 131.08V131.68C146.398 131.531 146.062 131.456 145.636 131.456C145.422 131.456 145.252 131.507 145.124 131.608C145.001 131.704 144.94 131.829 144.94 131.984C144.94 132.08 144.958 132.165 144.996 132.24C145.033 132.309 145.105 132.379 145.212 132.448C145.324 132.517 145.404 132.565 145.452 132.592C145.505 132.613 145.617 132.661 145.788 132.736C146.129 132.875 146.396 133.032 146.588 133.208C146.78 133.384 146.876 133.621 146.876 133.92C146.876 134.267 146.753 134.541 146.508 134.744C146.268 134.947 145.937 135.048 145.516 135.048C145.025 135.048 144.628 134.965 144.324 134.8V134.184C144.681 134.397 145.065 134.504 145.476 134.504C145.721 134.504 145.908 134.456 146.036 134.36C146.164 134.264 146.228 134.133 146.228 133.968C146.228 133.776 146.156 133.627 146.012 133.52C145.873 133.413 145.638 133.293 145.308 133.16C145.004 133.043 144.758 132.896 144.572 132.72C144.39 132.544 144.3 132.307 144.3 132.008C144.3 131.672 144.425 131.405 144.676 131.208C144.932 131.005 145.249 130.904 145.628 130.904C146.049 130.904 146.388 130.963 146.644 131.08ZM147.764 135V130.944H148.396V135H147.764ZM147.78 129.968C147.706 129.888 147.668 129.789 147.668 129.672C147.668 129.555 147.706 129.456 147.78 129.376C147.86 129.296 147.959 129.256 148.076 129.256C148.194 129.256 148.292 129.296 148.372 129.376C148.452 129.456 148.492 129.555 148.492 129.672C148.492 129.789 148.452 129.888 148.372 129.968C148.292 130.043 148.194 130.08 148.076 130.08C147.959 130.08 147.86 130.043 147.78 129.968ZM149.632 135V129.344H150.264V135H149.632ZM151.499 135V130.944H152.131V135H151.499ZM151.515 129.968C151.44 129.888 151.403 129.789 151.403 129.672C151.403 129.555 151.44 129.456 151.515 129.376C151.595 129.296 151.694 129.256 151.811 129.256C151.928 129.256 152.027 129.296 152.107 129.376C152.187 129.456 152.227 129.555 152.227 129.672C152.227 129.789 152.187 129.888 152.107 129.968C152.027 130.043 151.928 130.08 151.811 130.08C151.694 130.08 151.595 130.043 151.515 129.968ZM154.206 131.456V133.832C154.206 134.264 154.409 134.48 154.814 134.48C155.022 134.48 155.206 134.419 155.366 134.296V134.896C155.19 134.992 154.993 135.04 154.774 135.04C153.974 135.04 153.574 134.632 153.574 133.816V131.456H152.926V130.944H153.574V129.936H154.206V130.944H155.326V131.456H154.206ZM158.471 133.128H157.767C157.426 133.128 157.17 133.195 156.999 133.328C156.828 133.461 156.743 133.629 156.743 133.832C156.743 134.035 156.81 134.2 156.943 134.328C157.076 134.451 157.271 134.512 157.527 134.512C157.815 134.512 158.044 134.432 158.215 134.272C158.386 134.107 158.471 133.899 158.471 133.648V133.128ZM156.375 131.792V131.16C156.679 130.973 157.079 130.88 157.575 130.88C158.594 130.88 159.103 131.397 159.103 132.432V135H158.479V134.52C158.271 134.867 157.892 135.04 157.343 135.04C156.964 135.04 156.658 134.928 156.423 134.704C156.194 134.48 156.079 134.197 156.079 133.856C156.079 133.467 156.226 133.165 156.519 132.952C156.818 132.733 157.223 132.624 157.735 132.624H158.471V132.416C158.471 132.096 158.399 131.856 158.255 131.696C158.111 131.531 157.868 131.448 157.527 131.448C157.095 131.448 156.711 131.563 156.375 131.792ZM162.433 131.08V131.68C162.187 131.531 161.851 131.456 161.425 131.456C161.211 131.456 161.041 131.507 160.913 131.608C160.79 131.704 160.729 131.829 160.729 131.984C160.729 132.08 160.747 132.165 160.785 132.24C160.822 132.309 160.894 132.379 161.001 132.448C161.113 132.517 161.193 132.565 161.241 132.592C161.294 132.613 161.406 132.661 161.577 132.736C161.918 132.875 162.185 133.032 162.377 133.208C162.569 133.384 162.665 133.621 162.665 133.92C162.665 134.267 162.542 134.541 162.297 134.744C162.057 134.947 161.726 135.048 161.305 135.048C160.814 135.048 160.417 134.965 160.113 134.8V134.184C160.47 134.397 160.854 134.504 161.265 134.504C161.51 134.504 161.697 134.456 161.825 134.36C161.953 134.264 162.017 134.133 162.017 133.968C162.017 133.776 161.945 133.627 161.801 133.52C161.662 133.413 161.427 133.293 161.097 133.16C160.793 133.043 160.547 132.896 160.361 132.72C160.179 132.544 160.089 132.307 160.089 132.008C160.089 131.672 160.214 131.405 160.465 131.208C160.721 131.005 161.038 130.904 161.417 130.904C161.838 130.904 162.177 130.963 162.433 131.08ZM141.243 146.912C141.04 146.709 140.939 146.456 140.939 146.152C140.939 145.848 141.038 145.595 141.235 145.392C141.438 145.189 141.691 145.088 141.995 145.088C142.294 145.088 142.544 145.192 142.747 145.4C142.955 145.603 143.059 145.853 143.059 146.152C143.059 146.451 142.958 146.704 142.755 146.912C142.552 147.115 142.302 147.216 142.003 147.216C141.699 147.216 141.446 147.115 141.243 146.912ZM149.264 144.168V146.32H150.08C150.448 146.32 150.728 146.221 150.92 146.024C151.117 145.821 151.216 145.563 151.216 145.248C151.216 144.528 150.813 144.168 150.008 144.168H149.264ZM152.2 149H151.424L150.104 146.872H150.04H149.264V149H148.616V143.608H149.968C150.592 143.608 151.064 143.755 151.384 144.048C151.709 144.341 151.872 144.747 151.872 145.264C151.861 145.637 151.763 145.955 151.576 146.216C151.389 146.477 151.125 146.661 150.784 146.768L152.2 149ZM155.151 147.128H154.447C154.106 147.128 153.85 147.195 153.679 147.328C153.508 147.461 153.423 147.629 153.423 147.832C153.423 148.035 153.49 148.2 153.623 148.328C153.756 148.451 153.951 148.512 154.207 148.512C154.495 148.512 154.724 148.432 154.895 148.272C155.066 148.107 155.151 147.899 155.151 147.648V147.128ZM153.055 145.792V145.16C153.359 144.973 153.759 144.88 154.255 144.88C155.274 144.88 155.783 145.397 155.783 146.432V149H155.159V148.52C154.951 148.867 154.572 149.04 154.023 149.04C153.644 149.04 153.338 148.928 153.103 148.704C152.874 148.48 152.759 148.197 152.759 147.856C152.759 147.467 152.906 147.165 153.199 146.952C153.498 146.733 153.903 146.624 154.415 146.624H155.151V146.416C155.151 146.096 155.079 145.856 154.935 145.696C154.791 145.531 154.548 145.448 154.207 145.448C153.775 145.448 153.391 145.563 153.055 145.792ZM157.768 149L156.52 144.944H157.192L157.584 146.288C157.723 146.757 157.838 147.168 157.928 147.52C158.024 147.867 158.086 148.099 158.112 148.216L158.152 148.384C158.232 148.043 158.427 147.341 158.736 146.28L159.12 144.944H159.792L160.184 146.28L160.784 148.392C160.859 148.077 161.064 147.373 161.4 146.28L161.808 144.944H162.456L161.176 149H160.4L160.016 147.672L159.456 145.648C159.376 145.989 159.195 146.664 158.912 147.672L158.544 149H157.768ZM165.424 147.128H164.72C164.379 147.128 164.123 147.195 163.952 147.328C163.782 147.461 163.696 147.629 163.696 147.832C163.696 148.035 163.763 148.2 163.896 148.328C164.03 148.451 164.224 148.512 164.48 148.512C164.768 148.512 164.998 148.432 165.168 148.272C165.339 148.107 165.424 147.899 165.424 147.648V147.128ZM163.328 145.792V145.16C163.632 144.973 164.032 144.88 164.528 144.88C165.547 144.88 166.056 145.397 166.056 146.432V149H165.432V148.52C165.224 148.867 164.846 149.04 164.296 149.04C163.918 149.04 163.611 148.928 163.376 148.704C163.147 148.48 163.032 148.197 163.032 147.856C163.032 147.467 163.179 147.165 163.472 146.952C163.771 146.733 164.176 146.624 164.688 146.624H165.424V146.416C165.424 146.096 165.352 145.856 165.208 145.696C165.064 145.531 164.822 145.448 164.48 145.448C164.048 145.448 163.664 145.563 163.328 145.792ZM168.05 145.456V147.832C168.05 148.264 168.252 148.48 168.658 148.48C168.866 148.48 169.05 148.419 169.21 148.296V148.896C169.034 148.992 168.836 149.04 168.618 149.04C167.818 149.04 167.418 148.632 167.418 147.816V145.456H166.77V144.944H167.418V143.936H168.05V144.944H169.17V145.456H168.05ZM172.164 149V143.608H172.812V149H172.164ZM174.685 144.944V145.648C174.925 145.141 175.351 144.888 175.965 144.888C176.359 144.888 176.674 145.008 176.909 145.248C177.143 145.488 177.261 145.808 177.261 146.208V149H176.629V146.376C176.629 146.077 176.551 145.851 176.397 145.696C176.247 145.536 176.05 145.456 175.805 145.456C175.501 145.456 175.237 145.573 175.013 145.808C174.794 146.043 174.685 146.368 174.685 146.784V149H174.061V144.944H174.685ZM180.565 147.128H179.861C179.52 147.128 179.264 147.195 179.093 147.328C178.922 147.461 178.837 147.629 178.837 147.832C178.837 148.035 178.904 148.2 179.037 148.328C179.17 148.451 179.365 148.512 179.621 148.512C179.909 148.512 180.138 148.432 180.309 148.272C180.48 148.107 180.565 147.899 180.565 147.648V147.128ZM178.469 145.792V145.16C178.773 144.973 179.173 144.88 179.669 144.88C180.688 144.88 181.197 145.397 181.197 146.432V149H180.573V148.52C180.365 148.867 179.986 149.04 179.437 149.04C179.058 149.04 178.752 148.928 178.517 148.704C178.288 148.48 178.173 148.197 178.173 147.856C178.173 147.467 178.32 147.165 178.613 146.952C178.912 146.733 179.317 146.624 179.829 146.624H180.565V146.416C180.565 146.096 180.493 145.856 180.349 145.696C180.205 145.531 179.962 145.448 179.621 145.448C179.189 145.448 178.805 145.563 178.469 145.792ZM184.102 148.488C184.444 148.488 184.724 148.355 184.942 148.088C185.161 147.816 185.27 147.432 185.27 146.936C185.27 146.493 185.164 146.136 184.95 145.864C184.737 145.592 184.468 145.456 184.142 145.456C183.817 145.456 183.534 145.576 183.294 145.816C183.06 146.051 182.942 146.437 182.942 146.976C182.942 147.493 183.062 147.875 183.302 148.12C183.542 148.365 183.809 148.488 184.102 148.488ZM182.942 144.944V145.56C183.225 145.107 183.644 144.88 184.198 144.88C184.737 144.88 185.158 145.077 185.462 145.472C185.772 145.861 185.926 146.349 185.926 146.936C185.926 147.56 185.764 148.072 185.438 148.472C185.118 148.867 184.7 149.064 184.182 149.064C183.649 149.064 183.236 148.837 182.942 148.384V150.576H182.318V144.944H182.942ZM141.243 160.912C141.04 160.709 140.939 160.456 140.939 160.152C140.939 159.848 141.038 159.595 141.235 159.392C141.438 159.189 141.691 159.088 141.995 159.088C142.294 159.088 142.544 159.192 142.747 159.4C142.955 159.603 143.059 159.853 143.059 160.152C143.059 160.451 142.958 160.704 142.755 160.912C142.552 161.115 142.302 161.216 142.003 161.216C141.699 161.216 141.446 161.115 141.243 160.912ZM148.56 163L148.952 157.608H149.776L150.488 159.576L151.352 162.088C151.661 161.213 151.965 160.376 152.264 159.576L153.008 157.608H153.832L154.304 163H153.656L153.472 160.872L153.28 158.48C152.997 159.269 152.707 160.067 152.408 160.872L151.656 162.88H151.04L150.328 160.872L149.512 158.528C149.512 158.736 149.461 159.517 149.36 160.872L149.208 163H148.56ZM157.627 161.128H156.923C156.582 161.128 156.326 161.195 156.155 161.328C155.985 161.461 155.899 161.629 155.899 161.832C155.899 162.035 155.966 162.2 156.099 162.328C156.233 162.451 156.427 162.512 156.683 162.512C156.971 162.512 157.201 162.432 157.371 162.272C157.542 162.107 157.627 161.899 157.627 161.648V161.128ZM155.531 159.792V159.16C155.835 158.973 156.235 158.88 156.731 158.88C157.75 158.88 158.259 159.397 158.259 160.432V163H157.635V162.52C157.427 162.867 157.049 163.04 156.499 163.04C156.121 163.04 155.814 162.928 155.579 162.704C155.35 162.48 155.235 162.197 155.235 161.856C155.235 161.467 155.382 161.165 155.675 160.952C155.974 160.733 156.379 160.624 156.891 160.624H157.627V160.416C157.627 160.096 157.555 159.856 157.411 159.696C157.267 159.531 157.025 159.448 156.683 159.448C156.251 159.448 155.867 159.563 155.531 159.792ZM159.413 163V157.344H160.045V163H159.413ZM163.432 161.128H162.728C162.387 161.128 162.131 161.195 161.96 161.328C161.789 161.461 161.704 161.629 161.704 161.832C161.704 162.035 161.771 162.2 161.904 162.328C162.037 162.451 162.232 162.512 162.488 162.512C162.776 162.512 163.005 162.432 163.176 162.272C163.347 162.107 163.432 161.899 163.432 161.648V161.128ZM161.336 159.792V159.16C161.64 158.973 162.04 158.88 162.536 158.88C163.555 158.88 164.064 159.397 164.064 160.432V163H163.44V162.52C163.232 162.867 162.853 163.04 162.304 163.04C161.925 163.04 161.619 162.928 161.384 162.704C161.155 162.48 161.04 162.197 161.04 161.856C161.04 161.467 161.187 161.165 161.48 160.952C161.779 160.733 162.184 160.624 162.696 160.624H163.432V160.416C163.432 160.096 163.36 159.856 163.216 159.696C163.072 159.531 162.829 159.448 162.488 159.448C162.056 159.448 161.672 159.563 161.336 159.792ZM165.81 158.944V159.656C166.023 159.155 166.391 158.904 166.914 158.904C167.01 158.904 167.084 158.909 167.138 158.92V159.544C167.026 159.507 166.911 159.488 166.794 159.488C166.511 159.488 166.276 159.619 166.09 159.88C165.903 160.141 165.81 160.443 165.81 160.784V163H165.178L165.186 158.944H165.81ZM167.827 163V158.944H168.459V163H167.827ZM167.843 157.968C167.768 157.888 167.731 157.789 167.731 157.672C167.731 157.555 167.768 157.456 167.843 157.376C167.923 157.296 168.022 157.256 168.139 157.256C168.256 157.256 168.355 157.296 168.435 157.376C168.515 157.456 168.555 157.555 168.555 157.672C168.555 157.789 168.515 157.888 168.435 157.968C168.355 158.043 168.256 158.08 168.139 158.08C168.022 158.08 167.923 158.043 167.843 157.968ZM171.846 161.128H171.142C170.801 161.128 170.545 161.195 170.374 161.328C170.203 161.461 170.118 161.629 170.118 161.832C170.118 162.035 170.185 162.2 170.318 162.328C170.451 162.451 170.646 162.512 170.902 162.512C171.19 162.512 171.419 162.432 171.59 162.272C171.761 162.107 171.846 161.899 171.846 161.648V161.128ZM169.75 159.792V159.16C170.054 158.973 170.454 158.88 170.95 158.88C171.969 158.88 172.478 159.397 172.478 160.432V163H171.854V162.52C171.646 162.867 171.267 163.04 170.718 163.04C170.339 163.04 170.033 162.928 169.798 162.704C169.569 162.48 169.454 162.197 169.454 161.856C169.454 161.467 169.601 161.165 169.894 160.952C170.193 160.733 170.598 160.624 171.11 160.624H171.846V160.416C171.846 160.096 171.774 159.856 171.63 159.696C171.486 159.531 171.243 159.448 170.902 159.448C170.47 159.448 170.086 159.563 169.75 159.792ZM172.952 163.984L173.696 162.192H174.536L173.504 163.984H172.952ZM180.206 157.808V158.488C179.88 158.275 179.491 158.168 179.038 158.168C178.712 158.168 178.454 158.245 178.262 158.4C178.07 158.549 177.974 158.747 177.974 158.992C177.974 159.12 177.998 159.235 178.046 159.336C178.099 159.437 178.19 159.533 178.318 159.624C178.446 159.709 178.555 159.776 178.646 159.824C178.736 159.867 178.878 159.931 179.07 160.016C179.251 160.096 179.39 160.16 179.486 160.208C179.582 160.251 179.704 160.323 179.854 160.424C180.008 160.52 180.123 160.616 180.198 160.712C180.278 160.803 180.347 160.925 180.406 161.08C180.47 161.229 180.502 161.392 180.502 161.568C180.502 162.043 180.339 162.411 180.014 162.672C179.688 162.928 179.27 163.056 178.758 163.056C178.192 163.056 177.712 162.941 177.318 162.712V162.016C177.707 162.309 178.182 162.456 178.742 162.456C179.078 162.456 179.342 162.381 179.534 162.232C179.726 162.083 179.822 161.867 179.822 161.584C179.822 161.467 179.798 161.363 179.75 161.272C179.707 161.176 179.632 161.091 179.526 161.016C179.424 160.936 179.326 160.872 179.23 160.824C179.139 160.771 179.014 160.707 178.854 160.632C178.822 160.616 178.774 160.595 178.71 160.568C178.48 160.467 178.304 160.384 178.182 160.32C178.064 160.256 177.923 160.163 177.758 160.04C177.598 159.912 177.48 159.765 177.406 159.6C177.331 159.435 177.294 159.243 177.294 159.024C177.294 158.565 177.456 158.208 177.782 157.952C178.112 157.691 178.526 157.56 179.022 157.56C179.486 157.56 179.88 157.643 180.206 157.808ZM182.417 159.456V161.832C182.417 162.264 182.62 162.48 183.025 162.48C183.233 162.48 183.417 162.419 183.577 162.296V162.896C183.401 162.992 183.204 163.04 182.985 163.04C182.185 163.04 181.785 162.632 181.785 161.816V159.456H181.137V158.944H181.785V157.936H182.417V158.944H183.537V159.456H182.417ZM185.122 158.944V159.656C185.335 159.155 185.703 158.904 186.226 158.904C186.322 158.904 186.397 158.909 186.45 158.92V159.544C186.338 159.507 186.223 159.488 186.106 159.488C185.823 159.488 185.589 159.619 185.402 159.88C185.215 160.141 185.122 160.443 185.122 160.784V163H184.49L184.498 158.944H185.122ZM188.755 163.072C188.174 163.072 187.713 162.877 187.371 162.488C187.035 162.093 186.867 161.597 186.867 161C186.867 160.397 187.041 159.896 187.387 159.496C187.739 159.091 188.195 158.888 188.755 158.888C189.369 158.888 189.841 159.085 190.171 159.48C190.507 159.875 190.675 160.376 190.675 160.984C190.675 161.587 190.505 162.085 190.163 162.48C189.822 162.875 189.353 163.072 188.755 163.072ZM188.755 159.448C188.371 159.448 188.07 159.597 187.851 159.896C187.633 160.195 187.523 160.56 187.523 160.992C187.523 161.413 187.635 161.773 187.859 162.072C188.083 162.365 188.382 162.512 188.755 162.512C189.161 162.512 189.473 162.368 189.691 162.08C189.91 161.787 190.019 161.424 190.019 160.992C190.019 160.544 189.915 160.176 189.707 159.888C189.499 159.595 189.182 159.448 188.755 159.448ZM191.6 163V157.376H192.224V163H191.6ZM193.048 160.872L194.696 163H193.936L192.304 160.872L193.896 158.944H194.648L193.048 160.872ZM198.027 160.712V160.552C198.027 160.216 197.937 159.949 197.755 159.752C197.574 159.549 197.323 159.448 197.003 159.448C196.699 159.448 196.441 159.557 196.227 159.776C196.014 159.995 195.889 160.307 195.851 160.712H198.027ZM198.403 162.2V162.792C198.089 162.957 197.705 163.04 197.251 163.04C196.638 163.04 196.142 162.853 195.763 162.48C195.39 162.101 195.203 161.603 195.203 160.984C195.203 160.339 195.371 159.829 195.707 159.456C196.043 159.083 196.475 158.896 197.003 158.896C197.51 158.896 197.913 159.059 198.211 159.384C198.51 159.709 198.659 160.171 198.659 160.768C198.659 160.939 198.646 161.096 198.619 161.24H195.851C195.899 161.64 196.051 161.947 196.307 162.16C196.563 162.373 196.899 162.48 197.315 162.48C197.769 162.48 198.131 162.387 198.403 162.2ZM198.975 163.984L199.719 162.192H200.559L199.527 163.984H198.975ZM206.493 157.608V158.176H205.037V163H204.389V158.176H202.933V157.608H206.493ZM207.912 162.448H209.136C209.478 162.448 209.739 162.371 209.92 162.216C210.107 162.056 210.2 161.824 210.2 161.52C210.2 161.216 210.096 160.979 209.888 160.808C209.686 160.637 209.395 160.552 209.016 160.552H207.912V162.448ZM207.912 158.16V160H208.776C209.208 160 209.528 159.909 209.736 159.728C209.944 159.547 210.048 159.312 210.048 159.024C210.048 158.773 209.95 158.568 209.752 158.408C209.56 158.243 209.272 158.16 208.888 158.16H207.912ZM207.264 157.608H208.888C209.443 157.608 209.886 157.736 210.216 157.992C210.552 158.248 210.72 158.592 210.72 159.024C210.72 159.333 210.632 159.603 210.456 159.832C210.286 160.056 210.064 160.197 209.792 160.256C210.091 160.304 210.344 160.44 210.552 160.664C210.766 160.883 210.872 161.181 210.872 161.56C210.872 161.992 210.728 162.341 210.44 162.608C210.158 162.869 209.755 163 209.232 163H207.264V157.608ZM215.683 157.824V158.488C215.448 158.365 215.237 158.277 215.051 158.224C214.864 158.171 214.619 158.144 214.315 158.144C213.733 158.144 213.248 158.341 212.859 158.736C212.475 159.131 212.283 159.645 212.283 160.28C212.283 160.941 212.475 161.469 212.859 161.864C213.243 162.259 213.752 162.456 214.387 162.456C214.899 162.456 215.336 162.32 215.699 162.048V162.728C215.368 162.952 214.915 163.064 214.339 163.064C213.528 163.064 212.869 162.816 212.363 162.32C211.856 161.819 211.603 161.139 211.603 160.28C211.603 159.469 211.859 158.811 212.371 158.304C212.888 157.792 213.536 157.536 214.315 157.536C214.875 157.536 215.331 157.632 215.683 157.824Z" fill="#2B2B2B"/>
<path d="M167.969 121V115.608H168.617V121H167.969ZM170.489 116.944V117.648C170.729 117.141 171.156 116.888 171.769 116.888C172.164 116.888 172.479 117.008 172.713 117.248C172.948 117.488 173.065 117.808 173.065 118.208V121H172.433V118.376C172.433 118.077 172.356 117.851 172.201 117.696C172.052 117.536 171.855 117.456 171.609 117.456C171.305 117.456 171.041 117.573 170.817 117.808C170.599 118.043 170.489 118.368 170.489 118.784V121H169.865V116.944H170.489ZM175.73 120.488C176.06 120.488 176.34 120.365 176.57 120.12C176.804 119.875 176.922 119.483 176.922 118.944C176.922 118.432 176.802 118.056 176.562 117.816C176.322 117.576 176.058 117.456 175.77 117.456C175.434 117.456 175.154 117.592 174.93 117.864C174.711 118.131 174.602 118.515 174.602 119.016C174.602 119.453 174.708 119.808 174.922 120.08C175.135 120.352 175.404 120.488 175.73 120.488ZM176.922 115.344H177.554V121H176.922V120.4C176.634 120.843 176.218 121.064 175.674 121.064C175.135 121.064 174.711 120.864 174.402 120.464C174.098 120.064 173.946 119.579 173.946 119.008C173.946 118.373 174.108 117.861 174.434 117.472C174.759 117.077 175.178 116.88 175.69 116.88C176.218 116.88 176.628 117.107 176.922 117.56V115.344ZM178.757 121V116.944H179.389V121H178.757ZM178.773 115.968C178.698 115.888 178.661 115.789 178.661 115.672C178.661 115.555 178.698 115.456 178.773 115.376C178.853 115.296 178.951 115.256 179.069 115.256C179.186 115.256 179.285 115.296 179.365 115.376C179.445 115.456 179.485 115.555 179.485 115.672C179.485 115.789 179.445 115.888 179.365 115.968C179.285 116.043 179.186 116.08 179.069 116.08C178.951 116.08 178.853 116.043 178.773 115.968ZM181.624 121L180.208 116.944H180.864L181.424 118.656L182.016 120.504C182.064 120.275 182.264 119.659 182.616 118.656L183.192 116.944H183.848L182.4 121H181.624ZM184.663 121V116.944H185.295V121H184.663ZM184.679 115.968C184.604 115.888 184.567 115.789 184.567 115.672C184.567 115.555 184.604 115.456 184.679 115.376C184.759 115.296 184.858 115.256 184.975 115.256C185.092 115.256 185.191 115.296 185.271 115.376C185.351 115.456 185.391 115.555 185.391 115.672C185.391 115.789 185.351 115.888 185.271 115.968C185.191 116.043 185.092 116.08 184.975 116.08C184.858 116.08 184.759 116.043 184.679 115.968ZM188.042 120.488C188.373 120.488 188.653 120.365 188.882 120.12C189.117 119.875 189.234 119.483 189.234 118.944C189.234 118.432 189.114 118.056 188.874 117.816C188.634 117.576 188.37 117.456 188.082 117.456C187.746 117.456 187.466 117.592 187.242 117.864C187.023 118.131 186.914 118.515 186.914 119.016C186.914 119.453 187.021 119.808 187.234 120.08C187.447 120.352 187.717 120.488 188.042 120.488ZM189.234 115.344H189.866V121H189.234V120.4C188.946 120.843 188.53 121.064 187.986 121.064C187.447 121.064 187.023 120.864 186.714 120.464C186.41 120.064 186.258 119.579 186.258 119.008C186.258 118.373 186.421 117.861 186.746 117.472C187.071 117.077 187.49 116.88 188.002 116.88C188.53 116.88 188.941 117.107 189.234 117.56V115.344ZM193.557 116.944H194.189V121H193.557V120.296C193.344 120.797 192.92 121.048 192.285 121.048C191.885 121.048 191.568 120.931 191.333 120.696C191.104 120.456 190.989 120.136 190.989 119.736V116.944H191.621V119.576C191.621 119.869 191.696 120.093 191.845 120.248C191.994 120.403 192.197 120.48 192.453 120.48C192.789 120.48 193.056 120.363 193.253 120.128C193.456 119.893 193.557 119.576 193.557 119.176V116.944Z" fill="#008C1E"/>
<path d="M137.264 186.464H138.096C138.501 186.464 138.819 186.36 139.048 186.152C139.277 185.939 139.392 185.669 139.392 185.344C139.392 184.981 139.275 184.693 139.04 184.48C138.805 184.267 138.472 184.16 138.04 184.16H137.264V186.464ZM136.616 183.608H138.032C138.656 183.608 139.147 183.771 139.504 184.096C139.867 184.416 140.048 184.832 140.048 185.344C140.048 185.824 139.869 186.224 139.512 186.544C139.155 186.859 138.683 187.016 138.096 187.016H137.264V189H136.616V183.608ZM141.567 184.944V185.656C141.781 185.155 142.149 184.904 142.671 184.904C142.767 184.904 142.842 184.909 142.895 184.92V185.544C142.783 185.507 142.669 185.488 142.551 185.488C142.269 185.488 142.034 185.619 141.847 185.88C141.661 186.141 141.567 186.443 141.567 186.784V189H140.935L140.943 184.944H141.567ZM146.137 186.712V186.552C146.137 186.216 146.046 185.949 145.865 185.752C145.683 185.549 145.433 185.448 145.113 185.448C144.809 185.448 144.55 185.557 144.337 185.776C144.123 185.995 143.998 186.307 143.961 186.712H146.137ZM146.513 188.2V188.792C146.198 188.957 145.814 189.04 145.361 189.04C144.747 189.04 144.251 188.853 143.873 188.48C143.499 188.101 143.313 187.603 143.313 186.984C143.313 186.339 143.481 185.829 143.817 185.456C144.153 185.083 144.585 184.896 145.113 184.896C145.619 184.896 146.022 185.059 146.321 185.384C146.619 185.709 146.769 186.171 146.769 186.768C146.769 186.939 146.755 187.096 146.729 187.24H143.961C144.009 187.64 144.161 187.947 144.417 188.16C144.673 188.373 145.009 188.48 145.425 188.48C145.878 188.48 146.241 188.387 146.513 188.2ZM148.356 184.944V185.6C148.58 185.125 148.962 184.888 149.5 184.888C150.124 184.888 150.519 185.152 150.684 185.68C150.802 185.424 150.964 185.229 151.172 185.096C151.386 184.957 151.623 184.888 151.884 184.888C152.306 184.888 152.623 185.008 152.836 185.248C153.05 185.488 153.156 185.811 153.156 186.216V189H152.524V186.376C152.524 185.763 152.266 185.456 151.748 185.456C151.492 185.456 151.263 185.573 151.06 185.808C150.858 186.037 150.756 186.363 150.756 186.784V189H150.124V186.376C150.124 185.763 149.866 185.456 149.348 185.456C149.092 185.456 148.863 185.573 148.66 185.808C148.458 186.037 148.356 186.363 148.356 186.784V189H147.732V184.944H148.356ZM154.311 189V184.944H154.943V189H154.311ZM154.327 183.968C154.253 183.888 154.215 183.789 154.215 183.672C154.215 183.555 154.253 183.456 154.327 183.376C154.407 183.296 154.506 183.256 154.623 183.256C154.741 183.256 154.839 183.296 154.919 183.376C154.999 183.456 155.039 183.555 155.039 183.672C155.039 183.789 154.999 183.888 154.919 183.968C154.839 184.043 154.741 184.08 154.623 184.08C154.506 184.08 154.407 184.043 154.327 183.968Z" fill="#2B2B2B"/>
<rect x="160" y="176" width="44" height="22" rx="4" fill="#F1F1F1"/>
<path d="M165.568 184.44V186.2H166.24C166.549 186.2 166.781 186.123 166.936 185.968C167.091 185.808 167.168 185.587 167.168 185.304C167.168 185.027 167.085 184.813 166.92 184.664C166.76 184.515 166.528 184.44 166.224 184.44H165.568ZM167.344 189L166.12 187.032H165.568V189H164.56V183.608H166.224C166.837 183.608 167.317 183.763 167.664 184.072C168.016 184.381 168.192 184.795 168.192 185.312C168.187 185.696 168.093 186.021 167.912 186.288C167.731 186.549 167.483 186.744 167.168 186.872L168.552 189H167.344ZM171.199 188.232C171.487 188.232 171.722 188.123 171.903 187.904C172.084 187.68 172.175 187.368 172.175 186.968C172.175 186.568 172.084 186.259 171.903 186.04C171.722 185.816 171.492 185.704 171.215 185.704C170.938 185.704 170.698 185.808 170.495 186.016C170.292 186.224 170.191 186.533 170.191 186.944C170.191 187.355 170.29 187.672 170.487 187.896C170.684 188.12 170.922 188.232 171.199 188.232ZM170.191 184.944V185.568C170.479 185.115 170.892 184.888 171.431 184.888C171.959 184.888 172.378 185.077 172.687 185.456C173.002 185.835 173.159 186.333 173.159 186.952C173.159 187.56 173.002 188.064 172.687 188.464C172.378 188.859 171.956 189.056 171.423 189.056C170.879 189.056 170.468 188.835 170.191 188.392V190.528H169.231V184.944H170.191ZM177.597 188.288C177.885 188.288 178.104 188.216 178.253 188.072C178.403 187.928 178.477 187.755 178.477 187.552C178.477 187.339 178.4 187.16 178.245 187.016C178.096 186.872 177.88 186.8 177.597 186.8C177.315 186.805 177.101 186.885 176.957 187.04C176.813 187.189 176.741 187.371 176.741 187.584C176.741 187.781 176.813 187.949 176.957 188.088C177.101 188.221 177.315 188.288 177.597 188.288ZM177.589 184.472C177.344 184.472 177.155 184.544 177.021 184.688C176.893 184.827 176.829 184.997 176.829 185.2C176.829 185.44 176.904 185.624 177.053 185.752C177.203 185.88 177.389 185.944 177.613 185.944C177.832 185.944 178.013 185.88 178.157 185.752C178.307 185.624 178.381 185.44 178.381 185.2C178.381 184.987 178.32 184.813 178.197 184.68C178.075 184.541 177.872 184.472 177.589 184.472ZM178.629 186.352C179.173 186.565 179.445 186.973 179.445 187.576C179.445 188.024 179.272 188.387 178.925 188.664C178.579 188.936 178.133 189.072 177.589 189.072C177.045 189.072 176.605 188.941 176.269 188.68C175.939 188.419 175.773 188.064 175.773 187.616C175.773 187.029 176.048 186.616 176.597 186.376C176.101 186.125 175.853 185.739 175.853 185.216C175.853 184.736 176.019 184.363 176.349 184.096C176.685 183.824 177.099 183.688 177.589 183.688C178.101 183.688 178.523 183.816 178.853 184.072C179.184 184.328 179.349 184.709 179.349 185.216C179.349 185.723 179.109 186.101 178.629 186.352ZM180.077 186.36C180.077 185.533 180.24 184.88 180.565 184.4C180.891 183.915 181.352 183.672 181.949 183.672C182.552 183.672 183.016 183.915 183.341 184.4C183.672 184.88 183.837 185.533 183.837 186.36C183.837 187.181 183.675 187.837 183.349 188.328C183.029 188.819 182.563 189.064 181.949 189.064C181.352 189.064 180.891 188.819 180.565 188.328C180.24 187.837 180.077 187.181 180.077 186.36ZM181.301 185.016C181.141 185.325 181.061 185.773 181.061 186.36C181.061 186.947 181.139 187.4 181.293 187.72C181.453 188.035 181.672 188.192 181.949 188.192C182.237 188.192 182.459 188.035 182.613 187.72C182.773 187.405 182.853 186.952 182.853 186.36C182.853 185.768 182.771 185.317 182.605 185.008C182.445 184.699 182.227 184.544 181.949 184.544C181.677 184.544 181.461 184.701 181.301 185.016ZM184.597 188.88C184.474 188.757 184.413 188.611 184.413 188.44C184.413 188.269 184.474 188.125 184.597 188.008C184.719 187.885 184.866 187.824 185.037 187.824C185.207 187.824 185.351 187.885 185.469 188.008C185.591 188.125 185.653 188.269 185.653 188.44C185.653 188.611 185.591 188.757 185.469 188.88C185.351 189.003 185.207 189.064 185.037 189.064C184.866 189.064 184.719 189.003 184.597 188.88ZM186.226 186.36C186.226 185.533 186.389 184.88 186.714 184.4C187.039 183.915 187.501 183.672 188.098 183.672C188.701 183.672 189.165 183.915 189.49 184.4C189.821 184.88 189.986 185.533 189.986 186.36C189.986 187.181 189.823 187.837 189.498 188.328C189.178 188.819 188.711 189.064 188.098 189.064C187.501 189.064 187.039 188.819 186.714 188.328C186.389 187.837 186.226 187.181 186.226 186.36ZM187.45 185.016C187.29 185.325 187.21 185.773 187.21 186.36C187.21 186.947 187.287 187.4 187.442 187.72C187.602 188.035 187.821 188.192 188.098 188.192C188.386 188.192 188.607 188.035 188.762 187.72C188.922 187.405 189.002 186.952 189.002 186.36C189.002 185.768 188.919 185.317 188.754 185.008C188.594 184.699 188.375 184.544 188.098 184.544C187.826 184.544 187.61 184.701 187.45 185.016ZM190.593 186.36C190.593 185.533 190.756 184.88 191.081 184.4C191.406 183.915 191.868 183.672 192.465 183.672C193.068 183.672 193.532 183.915 193.857 184.4C194.188 184.88 194.353 185.533 194.353 186.36C194.353 187.181 194.19 187.837 193.865 188.328C193.545 188.819 193.078 189.064 192.465 189.064C191.868 189.064 191.406 188.819 191.081 188.328C190.756 187.837 190.593 187.181 190.593 186.36ZM191.817 185.016C191.657 185.325 191.577 185.773 191.577 186.36C191.577 186.947 191.654 187.4 191.809 187.72C191.969 188.035 192.188 188.192 192.465 188.192C192.753 188.192 192.974 188.035 193.129 187.72C193.289 187.405 193.369 186.952 193.369 186.36C193.369 185.768 193.286 185.317 193.121 185.008C192.961 184.699 192.742 184.544 192.465 184.544C192.193 184.544 191.977 184.701 191.817 185.016ZM194.96 186.36C194.96 185.533 195.123 184.88 195.448 184.4C195.774 183.915 196.235 183.672 196.832 183.672C197.435 183.672 197.899 183.915 198.224 184.4C198.555 184.88 198.72 185.533 198.72 186.36C198.72 187.181 198.558 187.837 198.232 188.328C197.912 188.819 197.446 189.064 196.832 189.064C196.235 189.064 195.774 188.819 195.448 188.328C195.123 187.837 194.96 187.181 194.96 186.36ZM196.184 185.016C196.024 185.325 195.944 185.773 195.944 186.36C195.944 186.947 196.022 187.4 196.176 187.72C196.336 188.035 196.555 188.192 196.832 188.192C197.12 188.192 197.342 188.035 197.496 187.72C197.656 187.405 197.736 186.952 197.736 186.36C197.736 185.768 197.654 185.317 197.488 185.008C197.328 184.699 197.11 184.544 196.832 184.544C196.56 184.544 196.344 184.701 196.184 185.016Z" fill="#2B2B2B"/>
<g filter="url(#filter1_d_1124_4113)">
<rect x="232" y="210" width="68" height="22" rx="8" fill="#FF1934" shape-rendering="crispEdges"/>
<path d="M255.337 219.856L255.337 222.448L255.329 222.448L255.337 222.536C254.846 222.888 254.233 223.064 253.497 223.064C252.644 223.064 251.953 222.816 251.425 222.32C250.902 221.824 250.641 221.149 250.641 220.296C250.641 219.464 250.91 218.792 251.449 218.28C251.993 217.768 252.678 217.512 253.505 217.512C254.118 217.512 254.644 217.627 255.081 217.856L255.081 218.888C254.59 218.595 254.07 218.448 253.521 218.448C252.982 218.448 252.548 218.616 252.217 218.952C251.886 219.288 251.721 219.736 251.721 220.296C251.721 220.867 251.881 221.317 252.201 221.648C252.526 221.973 252.972 222.136 253.537 222.136C253.814 222.136 254.084 222.088 254.345 221.992L254.345 220.72L253.353 220.72L253.353 219.856L255.337 219.856ZM258.876 218.944L259.844 218.944L259.844 223L258.876 223L258.876 222.336C258.662 222.805 258.246 223.04 257.628 223.04C257.217 223.04 256.897 222.923 256.668 222.688C256.438 222.453 256.324 222.12 256.324 221.688L256.324 218.944L257.284 218.944L257.284 221.464C257.284 221.72 257.345 221.915 257.468 222.048C257.596 222.181 257.769 222.248 257.988 222.248C258.265 222.248 258.481 222.155 258.636 221.968C258.796 221.781 258.876 221.499 258.876 221.12L258.876 218.944ZM261.847 218.944L261.847 219.64C262.077 219.144 262.493 218.896 263.095 218.896C263.501 218.896 263.821 219.019 264.055 219.264C264.29 219.509 264.407 219.856 264.407 220.304L264.407 223L263.447 223L263.447 220.504C263.447 220.237 263.383 220.037 263.255 219.904C263.127 219.765 262.954 219.696 262.735 219.696C262.485 219.696 262.274 219.795 262.103 219.992C261.933 220.184 261.847 220.461 261.847 220.824L261.847 223L260.887 223L260.887 218.944L261.847 218.944ZM267.483 221.256L266.987 221.256C266.736 221.256 266.544 221.309 266.411 221.416C266.277 221.517 266.211 221.648 266.211 221.808C266.211 222.149 266.408 222.32 266.803 222.32C267.016 222.32 267.181 222.259 267.299 222.136C267.421 222.008 267.483 221.843 267.483 221.64L267.483 221.256ZM265.515 220.04L265.515 219.152C265.819 218.965 266.256 218.872 266.827 218.872C267.925 218.872 268.475 219.384 268.475 220.408L268.475 223L267.523 223L267.523 222.512C267.336 222.859 266.984 223.032 266.467 223.032C266.083 223.032 265.776 222.92 265.547 222.696C265.323 222.472 265.211 222.189 265.211 221.848C265.211 221.464 265.355 221.163 265.643 220.944C265.931 220.725 266.347 220.616 266.891 220.616L267.483 220.616L267.483 220.368C267.483 220.144 267.424 219.973 267.307 219.856C267.189 219.739 266.989 219.68 266.707 219.68C266.275 219.68 265.877 219.8 265.515 220.04ZM273.009 223L271.881 223L270.425 220.904L270.425 223L269.465 223L269.465 217.44L270.425 217.44L270.425 220.848L271.857 218.944L272.977 218.944L271.489 220.88L273.009 223ZM275.717 221.256L275.221 221.256C274.97 221.256 274.778 221.309 274.645 221.416C274.512 221.517 274.445 221.648 274.445 221.808C274.445 222.149 274.642 222.32 275.037 222.32C275.25 222.32 275.416 222.259 275.533 222.136C275.656 222.008 275.717 221.843 275.717 221.64L275.717 221.256ZM273.749 220.04L273.749 219.152C274.053 218.965 274.49 218.872 275.061 218.872C276.16 218.872 276.709 219.384 276.709 220.408L276.709 223L275.757 223L275.757 222.512C275.57 222.859 275.218 223.032 274.701 223.032C274.317 223.032 274.01 222.92 273.781 222.696C273.557 222.472 273.445 222.189 273.445 221.848C273.445 221.464 273.589 221.163 273.877 220.944C274.165 220.725 274.581 220.616 275.125 220.616L275.717 220.616L275.717 220.368C275.717 220.144 275.658 219.973 275.541 219.856C275.424 219.739 275.224 219.68 274.941 219.68C274.509 219.68 274.112 219.8 273.749 220.04ZM278.66 218.944L278.66 219.64C278.889 219.144 279.305 218.896 279.908 218.896C280.313 218.896 280.633 219.019 280.868 219.264C281.102 219.509 281.22 219.856 281.22 220.304L281.22 223L280.26 223L280.26 220.504C280.26 220.237 280.196 220.037 280.068 219.904C279.94 219.765 279.766 219.696 279.548 219.696C279.297 219.696 279.086 219.795 278.916 219.992C278.745 220.184 278.66 220.461 278.66 220.824L278.66 223L277.7 223L277.7 218.944L278.66 218.944Z" fill="white"/>
</g>
<defs>
<filter id="filter0_d_1124_4113" x="-4" y="-2" width="324" height="56" filterUnits="userSpaceOnUse" color-interpolation-filters="sRGB">
<feFlood flood-opacity="0" result="BackgroundImageFix"/>
<feColorMatrix in="SourceAlpha" type="matrix" values="0 0 0 0 0 0 0 0 0 0 0 0 0 0 0 0 0 0 127 0" result="hardAlpha"/>
<feOffset dy="2"/>
<feGaussianBlur stdDeviation="2"/>
<feComposite in2="hardAlpha" operator="out"/>
<feColorMatrix type="matrix" values="0 0 0 0 0.168627 0 0 0 0 0.168627 0 0 0 0 0.168627 0 0 0 0.24 0"/>
<feBlend mode="normal" in2="BackgroundImageFix" result="effect1_dropShadow_1124_4113"/>
<feBlend mode="normal" in="SourceGraphic" in2="effect1_dropShadow_1124_4113" result="shape"/>
</filter>
<filter id="filter1_d_1124_4113" x="226" y="204" width="84" height="38" filterUnits="userSpaceOnUse" color-interpolation-filters="sRGB">
<feFlood flood-opacity="0" result="BackgroundImageFix"/>
<feColorMatrix in="SourceAlpha" type="matrix" values="0 0 0 0 0 0 0 0 0 0 0 0 0 0 0 0 0 0 127 0" result="hardAlpha"/>
<feOffset dx="2" dy="2"/>
<feGaussianBlur stdDeviation="4"/>
<feComposite in2="hardAlpha" operator="out"/>
<feColorMatrix type="matrix" values="0 0 0 0 0 0 0 0 0 0 0 0 0 0 0 0 0 0 0.12 0"/>
<feBlend mode="normal" in2="BackgroundImageFix" result="effect1_dropShadow_1124_4113"/>
<feBlend mode="normal" in="SourceGraphic" in2="effect1_dropShadow_1124_4113" result="shape"/>
</filter>
<clipPath id="clip0_1124_4113">
<rect width="24" height="24" fill="white" transform="translate(16 16)"/>
</clipPath>
<clipPath id="clip1_1124_4113">
<rect width="24" height="24" fill="white" transform="translate(290 2)"/>
</clipPath>
</defs>
</svg>
