<svg width="338" height="375" viewBox="0 0 338 375" fill="none" xmlns="http://www.w3.org/2000/svg">
<rect width="338" height="375" fill="#D3D3D3"/>
<rect x="26.5" y="50" width="285" height="265" rx="16" fill="white"/>
<g filter="url(#filter0_d_1124_4113)">
<path d="M26.5 66C26.5 57.1634 33.6634 50 42.5 50H295.5C304.337 50 311.5 57.1634 311.5 66V98H26.5V66Z" fill="#FF1934" shape-rendering="crispEdges"/>
<g clip-path="url(#clip0_1124_4113)">
<path fill-rule="evenodd" clip-rule="evenodd" d="M44.5 78C44.5 72.49 48.99 68 54.5 68C60.01 68 64.5 72.49 64.5 78C64.5 83.51 60.01 88 54.5 88C48.99 88 44.5 83.51 44.5 78ZM46.1 78C46.1 82.63 49.87 86.4 54.5 86.4C59.13 86.4 62.9 82.63 62.9 78C62.9 73.37 59.13 69.6 54.5 69.6C49.87 69.6 46.1 73.37 46.1 78ZM49.7 78C49.7 77.56 50.06 77.2 50.5 77.2H58.5C58.94 77.2 59.3 77.56 59.3 78C59.3 78.44 58.94 78.8 58.5 78.8H50.5C50.06 78.8 49.7 78.44 49.7 78Z" fill="white"/>
</g>
<path d="M77.622 80.236H78.602C79.47 80.236 80.1373 79.9653 80.604 79.424C81.08 78.8827 81.318 78.1173 81.318 77.128C81.318 76.288 81.08 75.616 80.604 75.112C80.128 74.5987 79.456 74.342 78.588 74.342H77.622V80.236ZM75.41 72.564H78.658C80.0767 72.564 81.2387 73.0027 82.144 73.88C83.0493 74.748 83.502 75.8307 83.502 77.128C83.502 78.64 83.054 79.83 82.158 80.698C81.2713 81.566 80.0953 82 78.63 82H75.41V72.564ZM88.0326 82.112C86.922 82.112 86.0633 81.7807 85.4566 81.118C84.85 80.446 84.5466 79.5873 84.5466 78.542C84.5466 77.45 84.864 76.554 85.4986 75.854C86.1333 75.1447 86.978 74.79 88.0326 74.79C89.134 74.79 89.988 75.1307 90.5946 75.812C91.2013 76.4933 91.5046 77.3613 91.5046 78.416C91.5046 79.4893 91.1966 80.376 90.5806 81.076C89.974 81.7667 89.1246 82.112 88.0326 82.112ZM88.0186 76.4C87.5706 76.4 87.2346 76.5913 87.0106 76.974C86.7866 77.3567 86.6746 77.8513 86.6746 78.458C86.6746 79.0647 86.7866 79.564 87.0106 79.956C87.244 80.3387 87.5893 80.53 88.0466 80.53C88.4946 80.53 88.826 80.3433 89.0406 79.97C89.2646 79.5873 89.3766 79.0927 89.3766 78.486C89.3766 77.0953 88.924 76.4 88.0186 76.4ZM94.884 74.902V76.106C95.0613 75.714 95.332 75.406 95.696 75.182C96.0693 74.9487 96.5127 74.832 97.026 74.832C97.754 74.832 98.3233 75.0513 98.734 75.49C99.1447 75.9193 99.35 76.554 99.35 77.394V82H97.306V77.772C97.306 77.352 97.208 77.0347 97.012 76.82C96.816 76.596 96.5407 76.484 96.186 76.484C95.8127 76.484 95.5 76.6333 95.248 76.932C95.0053 77.2213 94.884 77.66 94.884 78.248V82H92.84V74.902H94.884ZM104.475 79.088H103.817C103.472 79.088 103.206 79.1627 103.019 79.312C102.832 79.4613 102.739 79.6527 102.739 79.886C102.739 80.362 103.014 80.6 103.565 80.6C103.854 80.6 104.078 80.5113 104.237 80.334C104.396 80.1567 104.475 79.914 104.475 79.606V79.088ZM101.157 77.086V75.252C101.717 74.9347 102.524 74.776 103.579 74.776C104.587 74.776 105.338 74.9953 105.833 75.434C106.328 75.8633 106.575 76.5353 106.575 77.45V82H104.573V81.132C104.274 81.7387 103.686 82.042 102.809 82.042C102.118 82.042 101.577 81.846 101.185 81.454C100.802 81.062 100.611 80.572 100.611 79.984C100.611 79.3027 100.858 78.7753 101.353 78.402C101.857 78.0193 102.599 77.828 103.579 77.828H104.475V77.338C104.475 76.7407 104.078 76.442 103.285 76.442C102.52 76.442 101.81 76.6567 101.157 77.086ZM112.66 75.112V76.862C112.165 76.5727 111.587 76.428 110.924 76.428C110.681 76.428 110.495 76.4793 110.364 76.582C110.233 76.6753 110.168 76.7967 110.168 76.946C110.168 77.03 110.191 77.1093 110.238 77.184C110.285 77.2587 110.359 77.3287 110.462 77.394C110.574 77.4593 110.677 77.52 110.77 77.576C110.873 77.6227 111.008 77.6833 111.176 77.758C111.353 77.8327 111.493 77.898 111.596 77.954C112.025 78.178 112.371 78.4393 112.632 78.738C112.893 79.0273 113.024 79.4007 113.024 79.858C113.024 80.558 112.772 81.0993 112.268 81.482C111.764 81.8647 111.097 82.056 110.266 82.056C109.407 82.056 108.689 81.9113 108.11 81.622V79.802C108.754 80.25 109.435 80.474 110.154 80.474C110.667 80.474 110.924 80.3107 110.924 79.984C110.924 79.9 110.901 79.8207 110.854 79.746C110.807 79.6713 110.728 79.6013 110.616 79.536C110.504 79.4707 110.401 79.4193 110.308 79.382C110.215 79.3353 110.079 79.2747 109.902 79.2C109.725 79.1253 109.589 79.0647 109.496 79.018C108.553 78.57 108.082 77.898 108.082 77.002C108.082 76.3113 108.343 75.7747 108.866 75.392C109.398 75.0093 110.056 74.818 110.84 74.818C111.568 74.818 112.175 74.916 112.66 75.112ZM114.348 82V74.902H116.392V82H114.348ZM114.53 73.684C114.296 73.4507 114.18 73.1707 114.18 72.844C114.18 72.5173 114.296 72.2373 114.53 72.004C114.763 71.7707 115.043 71.654 115.37 71.654C115.696 71.654 115.976 71.7707 116.21 72.004C116.443 72.2373 116.56 72.5173 116.56 72.844C116.56 73.1707 116.443 73.4507 116.21 73.684C115.976 73.9173 115.696 74.034 115.37 74.034C115.043 74.034 114.763 73.9173 114.53 73.684ZM126.043 74.902H128.087V82H126.043V80.866C125.669 81.6593 124.951 82.056 123.887 82.056C123.159 82.056 122.589 81.8553 122.179 81.454C121.777 81.0433 121.577 80.4413 121.577 79.648V74.902H123.621V79.186C123.621 80.0167 123.985 80.432 124.713 80.432C125.599 80.432 126.043 79.8393 126.043 78.654V74.902ZM131.812 74.902V76.106C131.989 75.714 132.26 75.406 132.624 75.182C132.997 74.9487 133.44 74.832 133.954 74.832C134.682 74.832 135.251 75.0513 135.662 75.49C136.072 75.9193 136.278 76.554 136.278 77.394V82H134.234V77.772C134.234 77.352 134.136 77.0347 133.94 76.82C133.744 76.596 133.468 76.484 133.114 76.484C132.74 76.484 132.428 76.6333 132.176 76.932C131.933 77.2213 131.812 77.66 131.812 78.248V82H129.768V74.902H131.812ZM140.255 76.4V79.662C140.255 79.914 140.325 80.1053 140.465 80.236C140.614 80.3667 140.805 80.432 141.039 80.432C141.412 80.432 141.743 80.3387 142.033 80.152V81.846C141.687 81.9953 141.221 82.07 140.633 82.07C139.018 82.07 138.211 81.2627 138.211 79.648V76.4H137.189V74.902H138.211V73.222H140.255V74.902H141.907V76.4H140.255ZM147.685 74.902H149.729V82H147.685V80.866C147.312 81.6593 146.593 82.056 145.529 82.056C144.801 82.056 144.232 81.8553 143.821 81.454C143.42 81.0433 143.219 80.4413 143.219 79.648V74.902H145.263V79.186C145.263 80.0167 145.627 80.432 146.355 80.432C147.242 80.432 147.685 79.8393 147.685 78.654V74.902ZM158.088 82H155.722L153.454 78.514V82H151.41V72.34H153.454V78.08L155.694 74.902H158.046L155.582 78.304L158.088 82ZM165.408 78.332H167.676L167.578 77.996C167.308 77.0813 167.084 76.302 166.906 75.658C166.738 75.014 166.636 74.5987 166.598 74.412L166.542 74.132C166.468 74.6453 166.122 75.9333 165.506 77.996L165.408 78.332ZM168.768 82L168.194 80.068H164.89L164.316 82H162.062L165.212 72.564H167.928L171.078 82H168.768ZM174.29 74.902V76.008C174.682 75.224 175.35 74.832 176.292 74.832C177.291 74.832 177.954 75.28 178.28 76.176C178.439 75.756 178.705 75.4293 179.078 75.196C179.452 74.9533 179.89 74.832 180.394 74.832C181.094 74.832 181.645 75.056 182.046 75.504C182.457 75.9427 182.662 76.5913 182.662 77.45V82H180.618V77.786C180.618 77.3847 180.539 77.0673 180.38 76.834C180.222 76.6007 179.993 76.484 179.694 76.484C179.377 76.484 179.092 76.6147 178.84 76.876C178.598 77.128 178.476 77.5853 178.476 78.248V82H176.432V77.786C176.432 77.3847 176.353 77.0673 176.194 76.834C176.036 76.6007 175.807 76.484 175.508 76.484C175.191 76.484 174.906 76.6147 174.654 76.876C174.412 77.128 174.29 77.5853 174.29 78.248V82H172.246V74.902H174.29ZM187.792 79.088H187.133C186.788 79.088 186.522 79.1627 186.336 79.312C186.149 79.4613 186.056 79.6527 186.056 79.886C186.056 80.362 186.331 80.6 186.882 80.6C187.171 80.6 187.395 80.5113 187.553 80.334C187.712 80.1567 187.792 79.914 187.792 79.606V79.088ZM184.474 77.086V75.252C185.034 74.9347 185.841 74.776 186.896 74.776C187.904 74.776 188.655 74.9953 189.15 75.434C189.644 75.8633 189.892 76.5353 189.892 77.45V82H187.89V81.132C187.591 81.7387 187.003 82.042 186.126 82.042C185.435 82.042 184.894 81.846 184.502 81.454C184.119 81.062 183.928 80.572 183.928 79.984C183.928 79.3027 184.175 78.7753 184.67 78.402C185.174 78.0193 185.916 77.828 186.896 77.828H187.792V77.338C187.792 76.7407 187.395 76.442 186.602 76.442C185.836 76.442 185.127 76.6567 184.474 77.086ZM191.566 82V72.102H193.61V82H191.566Z" fill="white"/>
</g>
<g clip-path="url(#clip1_1124_4113)">
<path d="M96.5177 157.667L83.0995 157.631H83.1007L93.1027 157.456L94.8908 157.251L91.4239 157.034L82.5343 157.507L78.5708 156.64L71.9423 156.788L71.7395 157.061L80.3359 157.624L67.0137 157.589L64.7327 158.493H65.8047L62.647 160.016H88.8422L93.3631 158.493H94.4351L96.5177 157.667Z" fill="#CCCCCC"/>
<path d="M66.5265 129.974L64.6846 152.331L90.6852 155.516L94.2935 133.375L66.5265 129.974Z" fill="#FF1934"/>
<path d="M66.273 124.936L65.0327 135.066L94.5143 138.677L95.6471 129.43L66.273 124.936Z" fill="#FF1934"/>
<path d="M78.0772 126.742L76.8804 136.517L78.3543 136.698L76.9021 153.827L81.6266 154.406L84.3901 137.437L85.3354 137.553L86.5015 128.031L78.0772 126.742Z" fill="#D9AA16"/>
<g opacity="0.72" style="mix-blend-mode:multiply">
<path d="M93.2361 139.862L93.4505 138.547L66.0963 135.196L65.9868 136.524L93.2361 139.862Z" fill="#DA011C"/>
</g>
<path d="M82.2897 127.386L76.5175 116.698L70.1284 117.404L70.2788 120.173L79.5441 126.981L82.2897 127.386Z" fill="#D9AA16"/>
<path d="M79.5459 126.967L89.8755 121.53L93.5625 124.448L92.0195 126.588L82.2896 127.386L79.5459 126.967Z" fill="#D9AA16"/>
</g>
<path d="M121.78 132.13H122.84C123.607 132.13 124.19 131.89 124.59 131.41C124.99 130.93 125.19 130.313 125.19 129.56C125.19 128.867 124.973 128.29 124.54 127.83C124.107 127.37 123.53 127.14 122.81 127.14H121.78V132.13ZM120.73 126.26H122.83C123.83 126.26 124.65 126.57 125.29 127.19C125.93 127.81 126.25 128.6 126.25 129.56C126.25 130.56 125.947 131.383 125.34 132.03C124.74 132.677 123.91 133 122.85 133H120.73V126.26ZM129.48 133.09C128.733 133.09 128.147 132.847 127.72 132.36C127.293 131.873 127.08 131.257 127.08 130.51C127.08 129.75 127.3 129.12 127.74 128.62C128.18 128.113 128.76 127.86 129.48 127.86C130.253 127.86 130.85 128.107 131.27 128.6C131.69 129.087 131.9 129.71 131.9 130.47C131.9 131.23 131.683 131.857 131.25 132.35C130.823 132.843 130.233 133.09 129.48 133.09ZM129.47 128.69C129.037 128.69 128.7 128.863 128.46 129.21C128.22 129.55 128.1 129.973 128.1 130.48C128.1 130.98 128.223 131.403 128.47 131.75C128.717 132.09 129.053 132.26 129.48 132.26C129.933 132.26 130.277 132.093 130.51 131.76C130.75 131.427 130.87 131.003 130.87 130.49C130.87 129.963 130.757 129.533 130.53 129.2C130.303 128.86 129.95 128.69 129.47 128.69ZM133.984 127.93V128.8C134.284 128.173 134.811 127.86 135.564 127.86C136.064 127.86 136.461 128.013 136.754 128.32C137.048 128.627 137.194 129.043 137.194 129.57V133H136.214V129.8C136.214 129.447 136.124 129.177 135.944 128.99C135.771 128.803 135.538 128.71 135.244 128.71C134.898 128.71 134.601 128.847 134.354 129.12C134.108 129.387 133.984 129.763 133.984 130.25V133H133.004V127.93H133.984ZM141.182 130.74H140.422C140.049 130.74 139.766 130.813 139.572 130.96C139.386 131.107 139.292 131.293 139.292 131.52C139.292 131.753 139.366 131.937 139.512 132.07C139.659 132.203 139.872 132.27 140.152 132.27C140.472 132.27 140.722 132.183 140.902 132.01C141.089 131.83 141.182 131.597 141.182 131.31V130.74ZM138.632 129.14V128.19C139.026 127.963 139.546 127.85 140.192 127.85C141.519 127.85 142.182 128.493 142.182 129.78V133H141.212V132.4C140.952 132.827 140.496 133.04 139.842 133.04C139.362 133.04 138.976 132.903 138.682 132.63C138.396 132.35 138.252 131.997 138.252 131.57C138.252 131.083 138.436 130.707 138.802 130.44C139.169 130.167 139.682 130.03 140.342 130.03H141.182V129.74C141.182 129.393 141.099 129.133 140.932 128.96C140.766 128.78 140.489 128.69 140.102 128.69C139.562 128.69 139.072 128.84 138.632 129.14ZM146.393 128.1V128.99C146.066 128.797 145.646 128.7 145.133 128.7C144.899 128.7 144.713 128.753 144.573 128.86C144.439 128.967 144.373 129.107 144.373 129.28C144.373 129.327 144.376 129.373 144.383 129.42C144.396 129.46 144.416 129.503 144.443 129.55C144.469 129.59 144.493 129.627 144.513 129.66C144.539 129.687 144.579 129.717 144.633 129.75C144.686 129.783 144.726 129.813 144.753 129.84C144.786 129.86 144.836 129.887 144.903 129.92C144.976 129.953 145.029 129.98 145.063 130C145.096 130.013 145.153 130.04 145.233 130.08C145.319 130.113 145.379 130.137 145.413 130.15C145.806 130.323 146.113 130.52 146.333 130.74C146.559 130.953 146.673 131.24 146.673 131.6C146.673 132.053 146.513 132.41 146.193 132.67C145.873 132.923 145.439 133.05 144.893 133.05C144.293 133.05 143.793 132.95 143.393 132.75V131.82C143.859 132.107 144.343 132.25 144.843 132.25C145.103 132.25 145.303 132.197 145.443 132.09C145.589 131.983 145.663 131.843 145.663 131.67C145.663 131.523 145.606 131.393 145.493 131.28C145.379 131.16 145.263 131.073 145.143 131.02C145.029 130.96 144.833 130.87 144.553 130.75C143.759 130.423 143.363 129.943 143.363 129.31C143.363 128.863 143.529 128.513 143.863 128.26C144.196 128.007 144.613 127.88 145.113 127.88C145.659 127.88 146.086 127.953 146.393 128.1ZM147.732 133V127.93H148.722V133H147.732ZM147.782 126.82C147.669 126.7 147.612 126.553 147.612 126.38C147.612 126.207 147.669 126.06 147.782 125.94C147.902 125.82 148.049 125.76 148.222 125.76C148.395 125.76 148.542 125.82 148.662 125.94C148.782 126.06 148.842 126.207 148.842 126.38C148.842 126.547 148.782 126.69 148.662 126.81C148.542 126.93 148.395 126.99 148.222 126.99C148.049 126.99 147.902 126.933 147.782 126.82ZM155.754 127.93H156.734V133H155.754V132.13C155.487 132.75 154.961 133.06 154.174 133.06C153.674 133.06 153.277 132.913 152.984 132.62C152.691 132.32 152.544 131.91 152.544 131.39V127.93H153.534V131.15C153.534 131.497 153.617 131.763 153.784 131.95C153.957 132.13 154.194 132.22 154.494 132.22C154.874 132.22 155.177 132.087 155.404 131.82C155.637 131.553 155.754 131.177 155.754 130.69V127.93ZM159.092 127.93V128.8C159.392 128.173 159.919 127.86 160.672 127.86C161.172 127.86 161.569 128.013 161.862 128.32C162.155 128.627 162.302 129.043 162.302 129.57V133H161.322V129.8C161.322 129.447 161.232 129.177 161.052 128.99C160.879 128.803 160.645 128.71 160.352 128.71C160.005 128.71 159.709 128.847 159.462 129.12C159.215 129.387 159.092 129.763 159.092 130.25V133H158.112V127.93H159.092ZM164.89 128.69V131.48C164.89 131.967 165.123 132.21 165.59 132.21C165.863 132.21 166.093 132.137 166.28 131.99V132.87C166.06 132.99 165.79 133.05 165.47 133.05C164.423 133.05 163.9 132.52 163.9 131.46V128.69H163.11V127.93H163.9V126.69H164.89V127.93H166.22V128.69H164.89ZM170.51 127.93H171.49V133H170.51V132.13C170.243 132.75 169.717 133.06 168.93 133.06C168.43 133.06 168.033 132.913 167.74 132.62C167.447 132.32 167.3 131.91 167.3 131.39V127.93H168.29V131.15C168.29 131.497 168.373 131.763 168.54 131.95C168.713 132.13 168.95 132.22 169.25 132.22C169.63 132.22 169.933 132.087 170.16 131.82C170.393 131.553 170.51 131.177 170.51 130.69V127.93ZM172.868 133V126H173.848V133H172.868ZM175.018 130.35L177.008 133H175.838L173.888 130.35L175.798 127.93H176.948L175.018 130.35ZM182.999 130.74H182.239C181.865 130.74 181.582 130.813 181.389 130.96C181.202 131.107 181.109 131.293 181.109 131.52C181.109 131.753 181.182 131.937 181.329 132.07C181.475 132.203 181.689 132.27 181.969 132.27C182.289 132.27 182.539 132.183 182.719 132.01C182.905 131.83 182.999 131.597 182.999 131.31V130.74ZM180.449 129.14V128.19C180.842 127.963 181.362 127.85 182.009 127.85C183.335 127.85 183.999 128.493 183.999 129.78V133H183.029V132.4C182.769 132.827 182.312 133.04 181.659 133.04C181.179 133.04 180.792 132.903 180.499 132.63C180.212 132.35 180.069 131.997 180.069 131.57C180.069 131.083 180.252 130.707 180.619 130.44C180.985 130.167 181.499 130.03 182.159 130.03H182.999V129.74C182.999 129.393 182.915 129.133 182.749 128.96C182.582 128.78 182.305 128.69 181.919 128.69C181.379 128.69 180.889 128.84 180.449 129.14ZM186.299 127.93V128.74C186.586 128.153 187.062 127.86 187.729 127.86C188.489 127.86 188.976 128.187 189.189 128.84C189.329 128.527 189.532 128.287 189.799 128.12C190.066 127.947 190.366 127.86 190.699 127.86C191.219 127.86 191.612 128.013 191.879 128.32C192.152 128.627 192.289 129.05 192.289 129.59V133H191.309V129.8C191.309 129.073 191.016 128.71 190.429 128.71C190.136 128.71 189.872 128.84 189.639 129.1C189.412 129.36 189.299 129.743 189.299 130.25V133H188.319V129.8C188.319 129.073 188.022 128.71 187.429 128.71C187.142 128.71 186.882 128.84 186.649 129.1C186.416 129.36 186.299 129.743 186.299 130.25V133H185.319V127.93H186.299ZM196.29 130.74H195.53C195.156 130.74 194.873 130.813 194.68 130.96C194.493 131.107 194.4 131.293 194.4 131.52C194.4 131.753 194.473 131.937 194.62 132.07C194.766 132.203 194.98 132.27 195.26 132.27C195.58 132.27 195.83 132.183 196.01 132.01C196.196 131.83 196.29 131.597 196.29 131.31V130.74ZM193.74 129.14V128.19C194.133 127.963 194.653 127.85 195.3 127.85C196.626 127.85 197.29 128.493 197.29 129.78V133H196.32V132.4C196.06 132.827 195.603 133.04 194.95 133.04C194.47 133.04 194.083 132.903 193.79 132.63C193.503 132.35 193.36 131.997 193.36 131.57C193.36 131.083 193.543 130.707 193.91 130.44C194.276 130.167 194.79 130.03 195.45 130.03H196.29V129.74C196.29 129.393 196.206 129.133 196.04 128.96C195.873 128.78 195.596 128.69 195.21 128.69C194.67 128.69 194.18 128.84 193.74 129.14ZM198.65 133V125.93H199.64V133H198.65ZM206.412 128.1V128.99C206.085 128.797 205.665 128.7 205.152 128.7C204.919 128.7 204.732 128.753 204.592 128.86C204.459 128.967 204.392 129.107 204.392 129.28C204.392 129.327 204.395 129.373 204.402 129.42C204.415 129.46 204.435 129.503 204.462 129.55C204.489 129.59 204.512 129.627 204.532 129.66C204.559 129.687 204.599 129.717 204.652 129.75C204.705 129.783 204.745 129.813 204.772 129.84C204.805 129.86 204.855 129.887 204.922 129.92C204.995 129.953 205.049 129.98 205.082 130C205.115 130.013 205.172 130.04 205.252 130.08C205.339 130.113 205.399 130.137 205.432 130.15C205.825 130.323 206.132 130.52 206.352 130.74C206.579 130.953 206.692 131.24 206.692 131.6C206.692 132.053 206.532 132.41 206.212 132.67C205.892 132.923 205.459 133.05 204.912 133.05C204.312 133.05 203.812 132.95 203.412 132.75V131.82C203.879 132.107 204.362 132.25 204.862 132.25C205.122 132.25 205.322 132.197 205.462 132.09C205.609 131.983 205.682 131.843 205.682 131.67C205.682 131.523 205.625 131.393 205.512 131.28C205.399 131.16 205.282 131.073 205.162 131.02C205.049 130.96 204.852 130.87 204.572 130.75C203.779 130.423 203.382 129.943 203.382 129.31C203.382 128.863 203.549 128.513 203.882 128.26C204.215 128.007 204.632 127.88 205.132 127.88C205.679 127.88 206.105 127.953 206.412 128.1ZM210.861 130.1V129.92C210.848 129.54 210.745 129.24 210.551 129.02C210.358 128.793 210.081 128.68 209.721 128.68C209.388 128.68 209.101 128.803 208.861 129.05C208.621 129.29 208.471 129.64 208.411 130.1H210.861ZM211.491 131.85V132.73C211.118 132.943 210.625 133.05 210.011 133.05C209.225 133.05 208.598 132.813 208.131 132.34C207.665 131.867 207.431 131.247 207.431 130.48C207.431 129.667 207.645 129.03 208.071 128.57C208.498 128.103 209.041 127.87 209.701 127.87C210.348 127.87 210.861 128.073 211.241 128.48C211.621 128.88 211.811 129.46 211.811 130.22C211.811 130.427 211.791 130.643 211.751 130.87H208.421C208.488 131.31 208.675 131.647 208.981 131.88C209.288 132.113 209.675 132.23 210.141 132.23C210.681 132.23 211.131 132.103 211.491 131.85ZM215.355 132.21C215.729 132.21 216.042 132.053 216.295 131.74C216.549 131.42 216.675 131.01 216.675 130.51C216.675 129.937 216.549 129.497 216.295 129.19C216.042 128.877 215.719 128.72 215.325 128.72C214.979 128.72 214.665 128.86 214.385 129.14C214.112 129.42 213.975 129.85 213.975 130.43C213.975 131.03 214.109 131.477 214.375 131.77C214.642 132.063 214.969 132.21 215.355 132.21ZM213.975 125.93V128.7C214.335 128.14 214.845 127.86 215.505 127.86C216.145 127.86 216.669 128.1 217.075 128.58C217.482 129.06 217.685 129.697 217.685 130.49C217.685 131.203 217.492 131.813 217.105 132.32C216.719 132.82 216.189 133.07 215.515 133.07C214.842 133.07 214.329 132.79 213.975 132.23V133H212.985V125.93H213.975ZM221.936 130.1V129.92C221.922 129.54 221.819 129.24 221.626 129.02C221.432 128.793 221.156 128.68 220.796 128.68C220.462 128.68 220.176 128.803 219.936 129.05C219.696 129.29 219.546 129.64 219.486 130.1H221.936ZM222.566 131.85V132.73C222.192 132.943 221.699 133.05 221.086 133.05C220.299 133.05 219.672 132.813 219.206 132.34C218.739 131.867 218.506 131.247 218.506 130.48C218.506 129.667 218.719 129.03 219.146 128.57C219.572 128.103 220.116 127.87 220.776 127.87C221.422 127.87 221.936 128.073 222.316 128.48C222.696 128.88 222.886 129.46 222.886 130.22C222.886 130.427 222.866 130.643 222.826 130.87H219.496C219.562 131.31 219.749 131.647 220.056 131.88C220.362 132.113 220.749 132.23 221.216 132.23C221.756 132.23 222.206 132.103 222.566 131.85ZM226.93 128.1V128.99C226.603 128.797 226.183 128.7 225.67 128.7C225.436 128.7 225.25 128.753 225.11 128.86C224.976 128.967 224.91 129.107 224.91 129.28C224.91 129.327 224.913 129.373 224.92 129.42C224.933 129.46 224.953 129.503 224.98 129.55C225.006 129.59 225.03 129.627 225.05 129.66C225.076 129.687 225.116 129.717 225.17 129.75C225.223 129.783 225.263 129.813 225.29 129.84C225.323 129.86 225.373 129.887 225.44 129.92C225.513 129.953 225.566 129.98 225.6 130C225.633 130.013 225.69 130.04 225.77 130.08C225.856 130.113 225.916 130.137 225.95 130.15C226.343 130.323 226.65 130.52 226.87 130.74C227.096 130.953 227.21 131.24 227.21 131.6C227.21 132.053 227.05 132.41 226.73 132.67C226.41 132.923 225.976 133.05 225.43 133.05C224.83 133.05 224.33 132.95 223.93 132.75V131.82C224.396 132.107 224.88 132.25 225.38 132.25C225.64 132.25 225.84 132.197 225.98 132.09C226.126 131.983 226.2 131.843 226.2 131.67C226.2 131.523 226.143 131.393 226.03 131.28C225.916 131.16 225.8 131.073 225.68 131.02C225.566 130.96 225.37 130.87 225.09 130.75C224.296 130.423 223.9 129.943 223.9 129.31C223.9 128.863 224.066 128.513 224.4 128.26C224.733 128.007 225.15 127.88 225.65 127.88C226.196 127.88 226.623 127.953 226.93 128.1ZM230.899 130.74H230.139C229.766 130.74 229.482 130.813 229.289 130.96C229.102 131.107 229.009 131.293 229.009 131.52C229.009 131.753 229.082 131.937 229.229 132.07C229.376 132.203 229.589 132.27 229.869 132.27C230.189 132.27 230.439 132.183 230.619 132.01C230.806 131.83 230.899 131.597 230.899 131.31V130.74ZM228.349 129.14V128.19C228.742 127.963 229.262 127.85 229.909 127.85C231.236 127.85 231.899 128.493 231.899 129.78V133H230.929V132.4C230.669 132.827 230.212 133.04 229.559 133.04C229.079 133.04 228.692 132.903 228.399 132.63C228.112 132.35 227.969 131.997 227.969 131.57C227.969 131.083 228.152 130.707 228.519 130.44C228.886 130.167 229.399 130.03 230.059 130.03H230.899V129.74C230.899 129.393 230.816 129.133 230.649 128.96C230.482 128.78 230.206 128.69 229.819 128.69C229.279 128.69 228.789 128.84 228.349 129.14ZM234.199 127.93V128.82C234.446 128.193 234.889 127.88 235.529 127.88C235.623 127.88 235.726 127.89 235.839 127.91V128.87C235.699 128.81 235.543 128.78 235.369 128.78C235.029 128.78 234.749 128.93 234.529 129.23C234.309 129.53 234.199 129.887 234.199 130.3V133H233.219V127.93H234.199Z" fill="#2B2B2B"/>
<path d="M121.96 143.3V145.5H122.8C123.187 145.5 123.477 145.403 123.67 145.21C123.863 145.01 123.96 144.733 123.96 144.38C123.96 144.033 123.857 143.767 123.65 143.58C123.45 143.393 123.16 143.3 122.78 143.3H121.96ZM124.18 149L122.65 146.54H121.96V149H120.7V142.26H122.78C123.547 142.26 124.147 142.453 124.58 142.84C125.02 143.227 125.24 143.743 125.24 144.39C125.233 144.87 125.117 145.277 124.89 145.61C124.663 145.937 124.353 146.18 123.96 146.34L125.69 149H124.18ZM128.999 148.04C129.359 148.04 129.652 147.903 129.879 147.63C130.105 147.35 130.219 146.96 130.219 146.46C130.219 145.96 130.105 145.573 129.879 145.3C129.652 145.02 129.365 144.88 129.019 144.88C128.672 144.88 128.372 145.01 128.119 145.27C127.865 145.53 127.739 145.917 127.739 146.43C127.739 146.943 127.862 147.34 128.109 147.62C128.355 147.9 128.652 148.04 128.999 148.04ZM127.739 143.93V144.71C128.099 144.143 128.615 143.86 129.289 143.86C129.949 143.86 130.472 144.097 130.859 144.57C131.252 145.043 131.449 145.667 131.449 146.44C131.449 147.2 131.252 147.83 130.859 148.33C130.472 148.823 129.945 149.07 129.279 149.07C128.599 149.07 128.085 148.793 127.739 148.24V150.91H126.539V143.93H127.739ZM134.877 143.88V142.75C135.33 142.503 135.807 142.38 136.307 142.38C136.993 142.38 137.53 142.547 137.917 142.88C138.31 143.213 138.507 143.64 138.507 144.16C138.507 144.913 138.163 145.427 137.477 145.7C137.85 145.793 138.14 145.97 138.347 146.23C138.553 146.483 138.657 146.807 138.657 147.2C138.657 147.747 138.453 148.193 138.047 148.54C137.647 148.88 137.083 149.05 136.357 149.05C135.683 149.05 135.11 148.94 134.637 148.72V147.55C135.157 147.83 135.703 147.97 136.277 147.97C136.637 147.97 136.917 147.887 137.117 147.72C137.323 147.547 137.427 147.327 137.427 147.06C137.427 146.48 136.957 146.19 136.017 146.19H135.637V145.18H136.017C136.37 145.18 136.667 145.103 136.907 144.95C137.147 144.797 137.267 144.58 137.267 144.3C137.267 143.74 136.923 143.46 136.237 143.46C135.783 143.46 135.33 143.6 134.877 143.88ZM139.443 145.7C139.443 144.667 139.646 143.85 140.053 143.25C140.459 142.643 141.036 142.34 141.783 142.34C142.536 142.34 143.116 142.643 143.523 143.25C143.936 143.85 144.143 144.667 144.143 145.7C144.143 146.727 143.939 147.547 143.533 148.16C143.133 148.773 142.549 149.08 141.783 149.08C141.036 149.08 140.459 148.773 140.053 148.16C139.646 147.547 139.443 146.727 139.443 145.7ZM140.973 144.02C140.773 144.407 140.673 144.967 140.673 145.7C140.673 146.433 140.769 147 140.963 147.4C141.163 147.793 141.436 147.99 141.783 147.99C142.143 147.99 142.419 147.793 142.613 147.4C142.813 147.007 142.913 146.44 142.913 145.7C142.913 144.96 142.809 144.397 142.603 144.01C142.403 143.623 142.129 143.43 141.783 143.43C141.443 143.43 141.173 143.627 140.973 144.02ZM144.901 145.7C144.901 144.667 145.105 143.85 145.511 143.25C145.918 142.643 146.495 142.34 147.241 142.34C147.995 142.34 148.575 142.643 148.981 143.25C149.395 143.85 149.601 144.667 149.601 145.7C149.601 146.727 149.398 147.547 148.991 148.16C148.591 148.773 148.008 149.08 147.241 149.08C146.495 149.08 145.918 148.773 145.511 148.16C145.105 147.547 144.901 146.727 144.901 145.7ZM146.431 144.02C146.231 144.407 146.131 144.967 146.131 145.7C146.131 146.433 146.228 147 146.421 147.4C146.621 147.793 146.895 147.99 147.241 147.99C147.601 147.99 147.878 147.793 148.071 147.4C148.271 147.007 148.371 146.44 148.371 145.7C148.371 144.96 148.268 144.397 148.061 144.01C147.861 143.623 147.588 143.43 147.241 143.43C146.901 143.43 146.631 143.627 146.431 144.02ZM149.91 150.26L150.89 147.79H152.28L150.95 150.26H149.91ZM153.036 145.7C153.036 144.667 153.24 143.85 153.646 143.25C154.053 142.643 154.63 142.34 155.376 142.34C156.13 142.34 156.71 142.643 157.116 143.25C157.53 143.85 157.736 144.667 157.736 145.7C157.736 146.727 157.533 147.547 157.126 148.16C156.726 148.773 156.143 149.08 155.376 149.08C154.63 149.08 154.053 148.773 153.646 148.16C153.24 147.547 153.036 146.727 153.036 145.7ZM154.566 144.02C154.366 144.407 154.266 144.967 154.266 145.7C154.266 146.433 154.363 147 154.556 147.4C154.756 147.793 155.03 147.99 155.376 147.99C155.736 147.99 156.013 147.793 156.206 147.4C156.406 147.007 156.506 146.44 156.506 145.7C156.506 144.96 156.403 144.397 156.196 144.01C155.996 143.623 155.723 143.43 155.376 143.43C155.036 143.43 154.766 143.627 154.566 144.02ZM158.495 145.7C158.495 144.667 158.699 143.85 159.105 143.25C159.512 142.643 160.089 142.34 160.835 142.34C161.589 142.34 162.169 142.643 162.575 143.25C162.989 143.85 163.195 144.667 163.195 145.7C163.195 146.727 162.992 147.547 162.585 148.16C162.185 148.773 161.602 149.08 160.835 149.08C160.089 149.08 159.512 148.773 159.105 148.16C158.699 147.547 158.495 146.727 158.495 145.7ZM160.025 144.02C159.825 144.407 159.725 144.967 159.725 145.7C159.725 146.433 159.822 147 160.015 147.4C160.215 147.793 160.489 147.99 160.835 147.99C161.195 147.99 161.472 147.793 161.665 147.4C161.865 147.007 161.965 146.44 161.965 145.7C161.965 144.96 161.862 144.397 161.655 144.01C161.455 143.623 161.182 143.43 160.835 143.43C160.495 143.43 160.225 143.627 160.025 144.02ZM163.954 145.7C163.954 144.667 164.158 143.85 164.564 143.25C164.971 142.643 165.548 142.34 166.294 142.34C167.048 142.34 167.628 142.643 168.034 143.25C168.448 143.85 168.654 144.667 168.654 145.7C168.654 146.727 168.451 147.547 168.044 148.16C167.644 148.773 167.061 149.08 166.294 149.08C165.548 149.08 164.971 148.773 164.564 148.16C164.158 147.547 163.954 146.727 163.954 145.7ZM165.484 144.02C165.284 144.407 165.184 144.967 165.184 145.7C165.184 146.433 165.281 147 165.474 147.4C165.674 147.793 165.948 147.99 166.294 147.99C166.654 147.99 166.931 147.793 167.124 147.4C167.324 147.007 167.424 146.44 167.424 145.7C167.424 144.96 167.321 144.397 167.114 144.01C166.914 143.623 166.641 143.43 166.294 143.43C165.954 143.43 165.684 143.627 165.484 144.02Z" fill="#FF1934"/>
<path opacity="0.64" d="M60.904 211.468V208.108H61.552V211.452C61.552 212.145 61.376 212.671 61.024 213.028C60.6773 213.385 60.192 213.564 59.568 213.564C58.9547 213.564 58.4747 213.391 58.128 213.044C57.7813 212.692 57.608 212.183 57.608 211.516V208.108H58.256V211.508C58.256 212.004 58.3733 212.369 58.608 212.604C58.848 212.839 59.168 212.956 59.568 212.956C60.4587 212.956 60.904 212.46 60.904 211.468ZM64.9243 211.628H64.2203C63.8789 211.628 63.6229 211.695 63.4523 211.828C63.2816 211.961 63.1963 212.129 63.1963 212.332C63.1963 212.535 63.2629 212.7 63.3963 212.828C63.5296 212.951 63.7243 213.012 63.9803 213.012C64.2683 213.012 64.4976 212.932 64.6683 212.772C64.8389 212.607 64.9243 212.399 64.9243 212.148V211.628ZM62.8283 210.292V209.66C63.1323 209.473 63.5323 209.38 64.0283 209.38C65.0469 209.38 65.5563 209.897 65.5563 210.932V213.5H64.9323V213.02C64.7243 213.367 64.3456 213.54 63.7963 213.54C63.4176 213.54 63.1109 213.428 62.8763 213.204C62.6469 212.98 62.5323 212.697 62.5323 212.356C62.5323 211.967 62.6789 211.665 62.9723 211.452C63.2709 211.233 63.6763 211.124 64.1883 211.124H64.9243V210.916C64.9243 210.596 64.8523 210.356 64.7083 210.196C64.5643 210.031 64.3216 209.948 63.9803 209.948C63.5483 209.948 63.1643 210.063 62.8283 210.292ZM67.3018 209.444V210.148C67.5418 209.641 67.9684 209.388 68.5818 209.388C68.9764 209.388 69.2911 209.508 69.5258 209.748C69.7604 209.988 69.8778 210.308 69.8778 210.708V213.5H69.2458V210.876C69.2458 210.577 69.1684 210.351 69.0138 210.196C68.8644 210.036 68.6671 209.956 68.4218 209.956C68.1178 209.956 67.8538 210.073 67.6298 210.308C67.4111 210.543 67.3018 210.868 67.3018 211.284V213.5H66.6778V209.444H67.3018ZM72.5181 212.836C72.8114 212.836 73.0701 212.724 73.2941 212.5C73.5234 212.271 73.6381 211.932 73.6381 211.484C73.6381 210.967 73.5287 210.583 73.3101 210.332C73.0914 210.081 72.8381 209.956 72.5501 209.956C72.2034 209.956 71.9287 210.095 71.7261 210.372C71.5234 210.644 71.4221 211.001 71.4221 211.444C71.4221 211.897 71.5341 212.244 71.7581 212.484C71.9821 212.719 72.2354 212.836 72.5181 212.836ZM73.6381 209.444H74.2701V213.172C74.2701 213.791 74.0994 214.255 73.7581 214.564C73.4167 214.879 72.9767 215.036 72.4381 215.036C71.9474 215.036 71.5287 214.953 71.1821 214.788V214.156C71.5234 214.353 71.9234 214.452 72.3821 214.452C72.7714 214.452 73.0781 214.348 73.3021 214.14C73.5261 213.932 73.6381 213.607 73.6381 213.164V212.708C73.3714 213.167 72.9741 213.396 72.4461 213.396C71.9821 213.396 71.5847 213.225 71.2541 212.884C70.9287 212.543 70.7661 212.068 70.7661 211.46C70.7661 210.857 70.9181 210.361 71.2221 209.972C71.5261 209.583 71.9234 209.388 72.4141 209.388C72.9687 209.388 73.3767 209.631 73.6381 210.116V209.444ZM80.4618 208.108V208.676H79.0058V213.5H78.3578V208.676H76.9018V208.108H80.4618ZM83.7212 209.444H84.3532V213.5H83.7212V212.796C83.5079 213.297 83.0839 213.548 82.4492 213.548C82.0492 213.548 81.7319 213.431 81.4972 213.196C81.2679 212.956 81.1532 212.636 81.1532 212.236V209.444H81.7852V212.076C81.7852 212.369 81.8599 212.593 82.0092 212.748C82.1585 212.903 82.3612 212.98 82.6172 212.98C82.9532 212.98 83.2199 212.863 83.4172 212.628C83.6199 212.393 83.7212 212.076 83.7212 211.676V209.444ZM86.1455 209.444V210.148C86.3855 209.641 86.8122 209.388 87.4255 209.388C87.8202 209.388 88.1348 209.508 88.3695 209.748C88.6042 209.988 88.7215 210.308 88.7215 210.708V213.5H88.0895V210.876C88.0895 210.577 88.0122 210.351 87.8575 210.196C87.7082 210.036 87.5108 209.956 87.2655 209.956C86.9615 209.956 86.6975 210.073 86.4735 210.308C86.2548 210.543 86.1455 210.868 86.1455 211.284V213.5H85.5215V209.444H86.1455ZM92.0258 211.628H91.3218C90.9805 211.628 90.7245 211.695 90.5538 211.828C90.3831 211.961 90.2978 212.129 90.2978 212.332C90.2978 212.535 90.3645 212.7 90.4978 212.828C90.6311 212.951 90.8258 213.012 91.0818 213.012C91.3698 213.012 91.5991 212.932 91.7698 212.772C91.9405 212.607 92.0258 212.399 92.0258 212.148V211.628ZM89.9298 210.292V209.66C90.2338 209.473 90.6338 209.38 91.1298 209.38C92.1485 209.38 92.6578 209.897 92.6578 210.932V213.5H92.0338V213.02C91.8258 213.367 91.4471 213.54 90.8978 213.54C90.5191 213.54 90.2125 213.428 89.9778 213.204C89.7485 212.98 89.6338 212.697 89.6338 212.356C89.6338 211.967 89.7805 211.665 90.0738 211.452C90.3725 211.233 90.7778 211.124 91.2898 211.124H92.0258V210.916C92.0258 210.596 91.9538 210.356 91.8098 210.196C91.6658 210.031 91.4231 209.948 91.0818 209.948C90.6498 209.948 90.2658 210.063 89.9298 210.292ZM93.8113 213.5V209.444H94.4433V213.5H93.8113ZM93.8273 208.468C93.7526 208.388 93.7153 208.289 93.7153 208.172C93.7153 208.055 93.7526 207.956 93.8273 207.876C93.9073 207.796 94.006 207.756 94.1233 207.756C94.2406 207.756 94.3393 207.796 94.4193 207.876C94.4993 207.956 94.5393 208.055 94.5393 208.172C94.5393 208.289 94.4993 208.388 94.4193 208.468C94.3393 208.543 94.2406 208.58 94.1233 208.58C94.006 208.58 93.9073 208.543 93.8273 208.468Z" fill="#2B2B2B"/>
<path d="M245.248 208.668V210.82H246.064C246.432 210.82 246.712 210.721 246.904 210.524C247.102 210.321 247.2 210.063 247.2 209.748C247.2 209.028 246.798 208.668 245.992 208.668H245.248ZM248.184 213.5H247.408L246.088 211.372H246.024H245.248V213.5H244.6V208.108H245.952C246.576 208.108 247.048 208.255 247.368 208.548C247.694 208.841 247.856 209.247 247.856 209.764C247.846 210.137 247.747 210.455 247.56 210.716C247.374 210.977 247.11 211.161 246.768 211.268L248.184 213.5ZM250.735 212.988C251.077 212.988 251.357 212.855 251.575 212.588C251.794 212.316 251.903 211.932 251.903 211.436C251.903 210.993 251.797 210.636 251.583 210.364C251.37 210.092 251.101 209.956 250.775 209.956C250.45 209.956 250.167 210.076 249.927 210.316C249.693 210.551 249.575 210.937 249.575 211.476C249.575 211.993 249.695 212.375 249.935 212.62C250.175 212.865 250.442 212.988 250.735 212.988ZM249.575 209.444V210.06C249.858 209.607 250.277 209.38 250.831 209.38C251.37 209.38 251.791 209.577 252.095 209.972C252.405 210.361 252.559 210.849 252.559 211.436C252.559 212.06 252.397 212.572 252.071 212.972C251.751 213.367 251.333 213.564 250.815 213.564C250.282 213.564 249.869 213.337 249.575 212.884V215.076H248.951V209.444H249.575ZM255.003 209.7V209.02L256.243 208.268H256.835V213.5H256.211V208.956L255.003 209.7ZM257.789 210.868C257.789 210.047 257.955 209.399 258.285 208.924C258.621 208.444 259.061 208.204 259.605 208.204C260.171 208.204 260.619 208.444 260.949 208.924C261.285 209.399 261.453 210.047 261.453 210.868C261.453 211.684 261.293 212.337 260.973 212.828C260.653 213.319 260.197 213.564 259.605 213.564C259.056 213.564 258.616 213.319 258.285 212.828C257.955 212.337 257.789 211.684 257.789 210.868ZM258.781 209.348C258.552 209.705 258.437 210.212 258.437 210.868C258.437 211.524 258.549 212.039 258.773 212.412C258.997 212.78 259.275 212.964 259.605 212.964C259.973 212.964 260.264 212.783 260.477 212.42C260.696 212.057 260.805 211.54 260.805 210.868C260.805 210.201 260.691 209.692 260.461 209.34C260.237 208.983 259.952 208.804 259.605 208.804C259.285 208.804 259.011 208.985 258.781 209.348ZM262.141 210.868C262.141 210.047 262.306 209.399 262.637 208.924C262.973 208.444 263.413 208.204 263.957 208.204C264.522 208.204 264.97 208.444 265.301 208.924C265.637 209.399 265.805 210.047 265.805 210.868C265.805 211.684 265.645 212.337 265.325 212.828C265.005 213.319 264.549 213.564 263.957 213.564C263.408 213.564 262.968 213.319 262.637 212.828C262.306 212.337 262.141 211.684 262.141 210.868ZM263.133 209.348C262.904 209.705 262.789 210.212 262.789 210.868C262.789 211.524 262.901 212.039 263.125 212.412C263.349 212.78 263.626 212.964 263.957 212.964C264.325 212.964 264.616 212.783 264.829 212.42C265.048 212.057 265.157 211.54 265.157 210.868C265.157 210.201 265.042 209.692 264.813 209.34C264.589 208.983 264.304 208.804 263.957 208.804C263.637 208.804 263.362 208.985 263.133 209.348ZM266.084 214.484L266.828 212.692H267.668L266.636 214.484H266.084ZM268.289 210.868C268.289 210.047 268.455 209.399 268.785 208.924C269.121 208.444 269.561 208.204 270.105 208.204C270.671 208.204 271.119 208.444 271.449 208.924C271.785 209.399 271.953 210.047 271.953 210.868C271.953 211.684 271.793 212.337 271.473 212.828C271.153 213.319 270.697 213.564 270.105 213.564C269.556 213.564 269.116 213.319 268.785 212.828C268.455 212.337 268.289 211.684 268.289 210.868ZM269.281 209.348C269.052 209.705 268.937 210.212 268.937 210.868C268.937 211.524 269.049 212.039 269.273 212.412C269.497 212.78 269.775 212.964 270.105 212.964C270.473 212.964 270.764 212.783 270.977 212.42C271.196 212.057 271.305 211.54 271.305 210.868C271.305 210.201 271.191 209.692 270.961 209.34C270.737 208.983 270.452 208.804 270.105 208.804C269.785 208.804 269.511 208.985 269.281 209.348ZM272.641 210.868C272.641 210.047 272.806 209.399 273.137 208.924C273.473 208.444 273.913 208.204 274.457 208.204C275.022 208.204 275.47 208.444 275.801 208.924C276.137 209.399 276.305 210.047 276.305 210.868C276.305 211.684 276.145 212.337 275.825 212.828C275.505 213.319 275.049 213.564 274.457 213.564C273.908 213.564 273.468 213.319 273.137 212.828C272.806 212.337 272.641 211.684 272.641 210.868ZM273.633 209.348C273.404 209.705 273.289 210.212 273.289 210.868C273.289 211.524 273.401 212.039 273.625 212.412C273.849 212.78 274.126 212.964 274.457 212.964C274.825 212.964 275.116 212.783 275.329 212.42C275.548 212.057 275.657 211.54 275.657 210.868C275.657 210.201 275.542 209.692 275.313 209.34C275.089 208.983 274.804 208.804 274.457 208.804C274.137 208.804 273.862 208.985 273.633 209.348ZM276.992 210.868C276.992 210.047 277.158 209.399 277.488 208.924C277.824 208.444 278.264 208.204 278.808 208.204C279.374 208.204 279.822 208.444 280.152 208.924C280.488 209.399 280.656 210.047 280.656 210.868C280.656 211.684 280.496 212.337 280.176 212.828C279.856 213.319 279.4 213.564 278.808 213.564C278.259 213.564 277.819 213.319 277.488 212.828C277.158 212.337 276.992 211.684 276.992 210.868ZM277.984 209.348C277.755 209.705 277.64 210.212 277.64 210.868C277.64 211.524 277.752 212.039 277.976 212.412C278.2 212.78 278.478 212.964 278.808 212.964C279.176 212.964 279.467 212.783 279.68 212.42C279.899 212.057 280.008 211.54 280.008 210.868C280.008 210.201 279.894 209.692 279.664 209.34C279.44 208.983 279.155 208.804 278.808 208.804C278.488 208.804 278.214 208.985 277.984 209.348Z" fill="#2B2B2B"/>
<mask id="path-15-inside-1_1124_4113" fill="white">
<path d="M57 222.5H281V244.5H57V222.5Z"/>
</mask>
<path d="M281 243.5H57V245.5H281V243.5Z" fill="#CCCCCC" mask="url(#path-15-inside-1_1124_4113)"/>
<path opacity="0.64" d="M60.704 230.108V230.676H59.248V235.5H58.6V230.676H57.144V230.108H60.704ZM63.6274 233.628H62.9234C62.582 233.628 62.326 233.695 62.1554 233.828C61.9847 233.961 61.8994 234.129 61.8994 234.332C61.8994 234.535 61.966 234.7 62.0994 234.828C62.2327 234.951 62.4274 235.012 62.6834 235.012C62.9714 235.012 63.2007 234.932 63.3714 234.772C63.542 234.607 63.6274 234.399 63.6274 234.148V233.628ZM61.5314 232.292V231.66C61.8354 231.473 62.2354 231.38 62.7314 231.38C63.75 231.38 64.2594 231.897 64.2594 232.932V235.5H63.6354V235.02C63.4274 235.367 63.0487 235.54 62.4994 235.54C62.1207 235.54 61.814 235.428 61.5794 235.204C61.35 234.98 61.2354 234.697 61.2354 234.356C61.2354 233.967 61.382 233.665 61.6754 233.452C61.974 233.233 62.3794 233.124 62.8914 233.124H63.6274V232.916C63.6274 232.596 63.5554 232.356 63.4114 232.196C63.2674 232.031 63.0247 231.948 62.6834 231.948C62.2514 231.948 61.8674 232.063 61.5314 232.292ZM67.2289 234.988C67.5542 234.988 67.8235 234.852 68.0369 234.58C68.2502 234.308 68.3569 233.953 68.3569 233.516C68.3569 233.015 68.2449 232.631 68.0209 232.364C67.8022 232.092 67.5249 231.956 67.1889 231.956C66.9009 231.956 66.6369 232.076 66.3969 232.316C66.1569 232.556 66.0369 232.932 66.0369 233.444C66.0369 233.983 66.1515 234.375 66.3809 234.62C66.6155 234.865 66.8982 234.988 67.2289 234.988ZM66.0369 229.844V232.052C66.3302 231.604 66.7409 231.38 67.2689 231.38C67.7809 231.38 68.1995 231.577 68.5249 231.972C68.8502 232.361 69.0129 232.873 69.0129 233.508C69.0129 234.079 68.8582 234.564 68.5489 234.964C68.2449 235.364 67.8235 235.564 67.2849 235.564C66.7409 235.564 66.3249 235.343 66.0369 234.9V235.5H65.4049V229.844H66.0369ZM72.4634 231.444H73.0954V235.5H72.4634V234.796C72.25 235.297 71.826 235.548 71.1914 235.548C70.7914 235.548 70.474 235.431 70.2394 235.196C70.01 234.956 69.8954 234.636 69.8954 234.236V231.444H70.5274V234.076C70.5274 234.369 70.602 234.593 70.7514 234.748C70.9007 234.903 71.1034 234.98 71.3594 234.98C71.6954 234.98 71.962 234.863 72.1594 234.628C72.362 234.393 72.4634 234.076 72.4634 233.676V231.444ZM74.8877 231.444V232.148C75.1277 231.641 75.5544 231.388 76.1677 231.388C76.5624 231.388 76.877 231.508 77.1117 231.748C77.3464 231.988 77.4637 232.308 77.4637 232.708V235.5H76.8317V232.876C76.8317 232.577 76.7544 232.351 76.5997 232.196C76.4504 232.036 76.253 231.956 76.0077 231.956C75.7037 231.956 75.4397 232.073 75.2157 232.308C74.997 232.543 74.8877 232.868 74.8877 233.284V235.5H74.2637V231.444H74.8877ZM80.104 234.836C80.3973 234.836 80.656 234.724 80.88 234.5C81.1093 234.271 81.224 233.932 81.224 233.484C81.224 232.967 81.1147 232.583 80.896 232.332C80.6773 232.081 80.424 231.956 80.136 231.956C79.7893 231.956 79.5147 232.095 79.312 232.372C79.1093 232.644 79.008 233.001 79.008 233.444C79.008 233.897 79.12 234.244 79.344 234.484C79.568 234.719 79.8213 234.836 80.104 234.836ZM81.224 231.444H81.856V235.172C81.856 235.791 81.6853 236.255 81.344 236.564C81.0027 236.879 80.5627 237.036 80.024 237.036C79.5333 237.036 79.1147 236.953 78.768 236.788V236.156C79.1093 236.353 79.5093 236.452 79.968 236.452C80.3573 236.452 80.664 236.348 80.888 236.14C81.112 235.932 81.224 235.607 81.224 235.164V234.708C80.9573 235.167 80.56 235.396 80.032 235.396C79.568 235.396 79.1707 235.225 78.84 234.884C78.5147 234.543 78.352 234.068 78.352 233.46C78.352 232.857 78.504 232.361 78.808 231.972C79.112 231.583 79.5093 231.388 80 231.388C80.5547 231.388 80.9627 231.631 81.224 232.116V231.444ZM85.1586 233.628H84.4546C84.1133 233.628 83.8573 233.695 83.6866 233.828C83.516 233.961 83.4306 234.129 83.4306 234.332C83.4306 234.535 83.4973 234.7 83.6306 234.828C83.764 234.951 83.9586 235.012 84.2146 235.012C84.5026 235.012 84.732 234.932 84.9026 234.772C85.0733 234.607 85.1586 234.399 85.1586 234.148V233.628ZM83.0626 232.292V231.66C83.3666 231.473 83.7666 231.38 84.2626 231.38C85.2813 231.38 85.7906 231.897 85.7906 232.932V235.5H85.1666V235.02C84.9586 235.367 84.58 235.54 84.0306 235.54C83.652 235.54 83.3453 235.428 83.1106 235.204C82.8813 234.98 82.7666 234.697 82.7666 234.356C82.7666 233.967 82.9133 233.665 83.2066 233.452C83.5053 233.233 83.9106 233.124 84.4226 233.124H85.1586V232.916C85.1586 232.596 85.0866 232.356 84.9426 232.196C84.7986 232.031 84.556 231.948 84.2146 231.948C83.7826 231.948 83.3986 232.063 83.0626 232.292ZM87.5361 231.444V232.148C87.7761 231.641 88.2028 231.388 88.8161 231.388C89.2108 231.388 89.5255 231.508 89.7601 231.748C89.9948 231.988 90.1121 232.308 90.1121 232.708V235.5H89.4801V232.876C89.4801 232.577 89.4028 232.351 89.2481 232.196C89.0988 232.036 88.9015 231.956 88.6561 231.956C88.3521 231.956 88.0881 232.073 87.8641 232.308C87.6455 232.543 87.5361 232.868 87.5361 233.284V235.5H86.9121V231.444H87.5361Z" fill="#2B2B2B"/>
<path d="M243.881 230.668V232.82H244.697C245.065 232.82 245.345 232.721 245.537 232.524C245.735 232.321 245.833 232.063 245.833 231.748C245.833 231.028 245.431 230.668 244.625 230.668H243.881ZM246.817 235.5H246.041L244.721 233.372H244.657H243.881V235.5H243.233V230.108H244.585C245.209 230.108 245.681 230.255 246.001 230.548C246.327 230.841 246.489 231.247 246.489 231.764C246.479 232.137 246.38 232.455 246.193 232.716C246.007 232.977 245.743 233.161 245.401 233.268L246.817 235.5ZM249.368 234.988C249.709 234.988 249.989 234.855 250.208 234.588C250.427 234.316 250.536 233.932 250.536 233.436C250.536 232.993 250.429 232.636 250.216 232.364C250.003 232.092 249.733 231.956 249.408 231.956C249.083 231.956 248.8 232.076 248.56 232.316C248.325 232.551 248.208 232.937 248.208 233.476C248.208 233.993 248.328 234.375 248.568 234.62C248.808 234.865 249.075 234.988 249.368 234.988ZM248.208 231.444V232.06C248.491 231.607 248.909 231.38 249.464 231.38C250.003 231.38 250.424 231.577 250.728 231.972C251.037 232.361 251.192 232.849 251.192 233.436C251.192 234.06 251.029 234.572 250.704 234.972C250.384 235.367 249.965 235.564 249.448 235.564C248.915 235.564 248.501 235.337 248.208 234.884V237.076H247.584V231.444H248.208ZM254.668 234.948H257.1V235.5H253.796V234.964C255.45 233.716 256.276 232.676 256.276 231.844C256.276 231.513 256.18 231.26 255.988 231.084C255.796 230.903 255.538 230.812 255.212 230.812C254.791 230.812 254.375 230.969 253.964 231.284V230.652C254.343 230.359 254.778 230.212 255.268 230.212C255.738 230.212 256.132 230.348 256.452 230.62C256.772 230.892 256.932 231.279 256.932 231.78C256.932 232.724 256.178 233.78 254.668 234.948ZM257.789 232.868C257.789 232.047 257.955 231.399 258.285 230.924C258.621 230.444 259.061 230.204 259.605 230.204C260.171 230.204 260.619 230.444 260.949 230.924C261.285 231.399 261.453 232.047 261.453 232.868C261.453 233.684 261.293 234.337 260.973 234.828C260.653 235.319 260.197 235.564 259.605 235.564C259.056 235.564 258.616 235.319 258.285 234.828C257.955 234.337 257.789 233.684 257.789 232.868ZM258.781 231.348C258.552 231.705 258.437 232.212 258.437 232.868C258.437 233.524 258.549 234.039 258.773 234.412C258.997 234.78 259.275 234.964 259.605 234.964C259.973 234.964 260.264 234.783 260.477 234.42C260.696 234.057 260.805 233.54 260.805 232.868C260.805 232.201 260.691 231.692 260.461 231.34C260.237 230.983 259.952 230.804 259.605 230.804C259.285 230.804 259.011 230.985 258.781 231.348ZM262.141 232.868C262.141 232.047 262.306 231.399 262.637 230.924C262.973 230.444 263.413 230.204 263.957 230.204C264.522 230.204 264.97 230.444 265.301 230.924C265.637 231.399 265.805 232.047 265.805 232.868C265.805 233.684 265.645 234.337 265.325 234.828C265.005 235.319 264.549 235.564 263.957 235.564C263.408 235.564 262.968 235.319 262.637 234.828C262.306 234.337 262.141 233.684 262.141 232.868ZM263.133 231.348C262.904 231.705 262.789 232.212 262.789 232.868C262.789 233.524 262.901 234.039 263.125 234.412C263.349 234.78 263.626 234.964 263.957 234.964C264.325 234.964 264.616 234.783 264.829 234.42C265.048 234.057 265.157 233.54 265.157 232.868C265.157 232.201 265.042 231.692 264.813 231.34C264.589 230.983 264.304 230.804 263.957 230.804C263.637 230.804 263.362 230.985 263.133 231.348ZM266.084 236.484L266.828 234.692H267.668L266.636 236.484H266.084ZM268.289 232.868C268.289 232.047 268.455 231.399 268.785 230.924C269.121 230.444 269.561 230.204 270.105 230.204C270.671 230.204 271.119 230.444 271.449 230.924C271.785 231.399 271.953 232.047 271.953 232.868C271.953 233.684 271.793 234.337 271.473 234.828C271.153 235.319 270.697 235.564 270.105 235.564C269.556 235.564 269.116 235.319 268.785 234.828C268.455 234.337 268.289 233.684 268.289 232.868ZM269.281 231.348C269.052 231.705 268.937 232.212 268.937 232.868C268.937 233.524 269.049 234.039 269.273 234.412C269.497 234.78 269.775 234.964 270.105 234.964C270.473 234.964 270.764 234.783 270.977 234.42C271.196 234.057 271.305 233.54 271.305 232.868C271.305 232.201 271.191 231.692 270.961 231.34C270.737 230.983 270.452 230.804 270.105 230.804C269.785 230.804 269.511 230.985 269.281 231.348ZM272.641 232.868C272.641 232.047 272.806 231.399 273.137 230.924C273.473 230.444 273.913 230.204 274.457 230.204C275.022 230.204 275.47 230.444 275.801 230.924C276.137 231.399 276.305 232.047 276.305 232.868C276.305 233.684 276.145 234.337 275.825 234.828C275.505 235.319 275.049 235.564 274.457 235.564C273.908 235.564 273.468 235.319 273.137 234.828C272.806 234.337 272.641 233.684 272.641 232.868ZM273.633 231.348C273.404 231.705 273.289 232.212 273.289 232.868C273.289 233.524 273.401 234.039 273.625 234.412C273.849 234.78 274.126 234.964 274.457 234.964C274.825 234.964 275.116 234.783 275.329 234.42C275.548 234.057 275.657 233.54 275.657 232.868C275.657 232.201 275.542 231.692 275.313 231.34C275.089 230.983 274.804 230.804 274.457 230.804C274.137 230.804 273.862 230.985 273.633 231.348ZM276.992 232.868C276.992 232.047 277.158 231.399 277.488 230.924C277.824 230.444 278.264 230.204 278.808 230.204C279.374 230.204 279.822 230.444 280.152 230.924C280.488 231.399 280.656 232.047 280.656 232.868C280.656 233.684 280.496 234.337 280.176 234.828C279.856 235.319 279.4 235.564 278.808 235.564C278.259 235.564 277.819 235.319 277.488 234.828C277.158 234.337 276.992 233.684 276.992 232.868ZM277.984 231.348C277.755 231.705 277.64 232.212 277.64 232.868C277.64 233.524 277.752 234.039 277.976 234.412C278.2 234.78 278.478 234.964 278.808 234.964C279.176 234.964 279.467 234.783 279.68 234.42C279.899 234.057 280.008 233.54 280.008 232.868C280.008 232.201 279.894 231.692 279.664 231.34C279.44 230.983 279.155 230.804 278.808 230.804C278.488 230.804 278.214 230.985 277.984 231.348Z" fill="#2B2B2B"/>
<rect x="109" y="275" width="120" height="24" rx="8" fill="#FF1934"/>
<path d="M157.959 288.176L158.823 288.176C159.468 288.176 159.791 287.931 159.791 287.44C159.791 286.939 159.455 286.688 158.783 286.688L157.959 286.688L157.959 288.176ZM157.959 284.432L157.959 285.88L158.567 285.88C158.929 285.88 159.201 285.808 159.383 285.664C159.564 285.52 159.655 285.336 159.655 285.112C159.655 284.904 159.577 284.739 159.423 284.616C159.273 284.493 159.044 284.432 158.735 284.432L157.959 284.432ZM156.951 283.608L158.863 283.608C159.439 283.608 159.887 283.744 160.207 284.016C160.527 284.288 160.687 284.64 160.687 285.072C160.687 285.365 160.607 285.621 160.447 285.84C160.287 286.053 160.081 286.195 159.831 286.264C160.119 286.333 160.356 286.475 160.543 286.688C160.729 286.896 160.823 287.181 160.823 287.544C160.823 287.971 160.673 288.32 160.375 288.592C160.076 288.864 159.663 289 159.135 289L156.951 289L156.951 283.608ZM163.053 286.952L164.573 286.952L164.501 286.712C164.32 286.136 164.17 285.653 164.053 285.264C163.941 284.869 163.872 284.621 163.845 284.52L163.813 284.36C163.765 284.627 163.536 285.413 163.125 286.72L163.053 286.952ZM165.213 289L164.829 287.776L162.789 287.776L162.405 289L161.349 289L163.173 283.608L164.477 283.608L166.301 289L165.213 289ZM171.364 283.608L169.508 287L169.508 289L168.5 289L168.5 287.032L166.66 283.608L167.836 283.608L168.196 284.392C168.404 284.845 168.574 285.227 168.708 285.536C168.841 285.84 168.921 286.029 168.948 286.104L168.996 286.224C169.044 286.027 169.318 285.416 169.82 284.392L170.188 283.608L171.364 283.608ZM173.436 286.952L174.956 286.952L174.884 286.712C174.702 286.136 174.553 285.653 174.436 285.264C174.324 284.869 174.254 284.621 174.228 284.52L174.196 284.36C174.148 284.627 173.918 285.413 173.508 286.72L173.436 286.952ZM175.596 289L175.212 287.776L173.172 287.776L172.788 289L171.732 289L173.556 283.608L174.86 283.608L176.684 289L175.596 289ZM178.466 284.44L178.466 286.2L179.138 286.2C179.448 286.2 179.68 286.123 179.834 285.968C179.989 285.808 180.066 285.587 180.066 285.304C180.066 285.027 179.984 284.813 179.818 284.664C179.658 284.515 179.426 284.44 179.122 284.44L178.466 284.44ZM180.242 289L179.018 287.032L178.466 287.032L178.466 289L177.458 289L177.458 283.608L179.122 283.608C179.736 283.608 180.216 283.763 180.562 284.072C180.914 284.381 181.09 284.795 181.09 285.312C181.085 285.696 180.992 286.021 180.81 286.288C180.629 286.549 180.381 286.744 180.066 286.872L181.45 289L180.242 289Z" fill="white"/>
<path d="M9 341.5H329C333.694 341.5 337.5 345.306 337.5 350C337.5 354.694 333.694 358.5 329 358.5H9C4.30558 358.5 0.5 354.694 0.5 350C0.500002 345.306 4.30558 341.5 9 341.5Z" fill="white"/>
<path d="M9 341.5H329C333.694 341.5 337.5 345.306 337.5 350C337.5 354.694 333.694 358.5 329 358.5H9C4.30558 358.5 0.5 354.694 0.5 350C0.500002 345.306 4.30558 341.5 9 341.5Z" stroke="#CCCCCC"/>
<path d="M7.86805e-07 350C3.52265e-07 345.029 4.02944 341 9 341L39 341C43.9706 341 48 345.029 48 350C48 354.971 43.9706 359 39 359L9 359C4.02944 359 1.22135e-06 354.971 7.86805e-07 350Z" fill="#FF1934"/>
<path d="M15.448 346.688H16.264L16.816 348.6L17.456 350.92C17.5893 350.179 17.7547 349.403 17.952 348.592L18.44 346.608H19.464L18.088 352H16.92L16.432 350.296C16.2987 349.843 16.184 349.443 16.088 349.096C15.9973 348.749 15.936 348.517 15.904 348.4L15.864 348.216C15.7893 348.589 15.6027 349.283 15.304 350.296L14.8 352H13.64L12.2 346.608H13.264L13.768 348.6C13.8533 348.957 13.9387 349.328 14.024 349.712C14.1093 350.096 14.1733 350.389 14.216 350.592L14.28 350.904C14.4507 350.232 14.6587 349.464 14.904 348.6L15.448 346.688ZM22.2561 350.256H21.7601C21.5094 350.256 21.3174 350.309 21.1841 350.416C21.0507 350.517 20.9841 350.648 20.9841 350.808C20.9841 351.149 21.1814 351.32 21.5761 351.32C21.7894 351.32 21.9547 351.259 22.0721 351.136C22.1947 351.008 22.2561 350.843 22.2561 350.64V350.256ZM20.2881 349.04V348.152C20.5921 347.965 21.0294 347.872 21.6001 347.872C22.6987 347.872 23.2481 348.384 23.2481 349.408V352H22.2961V351.512C22.1094 351.859 21.7574 352.032 21.2401 352.032C20.8561 352.032 20.5494 351.92 20.3201 351.696C20.0961 351.472 19.9841 351.189 19.9841 350.848C19.9841 350.464 20.1281 350.163 20.4161 349.944C20.7041 349.725 21.1201 349.616 21.6641 349.616H22.2561V349.368C22.2561 349.144 22.1974 348.973 22.0801 348.856C21.9627 348.739 21.7627 348.68 21.4801 348.68C21.0481 348.68 20.6507 348.8 20.2881 349.04ZM27.7828 352H26.6548L25.1988 349.904V352H24.2388V346.44H25.1988V349.848L26.6308 347.944H27.7508L26.2628 349.88L27.7828 352ZM29.5864 348.664V350.728C29.5864 350.899 29.6318 351.029 29.7224 351.12C29.8131 351.205 29.9384 351.248 30.0984 351.248C30.3011 351.248 30.4878 351.192 30.6584 351.08V351.904C30.4718 351.995 30.2318 352.04 29.9384 352.04C29.0638 352.04 28.6264 351.597 28.6264 350.712V348.664H28.0184V347.944H28.6264V346.968H29.5864V347.944H30.5944V348.664H29.5864ZM33.9617 347.944H34.9297V352H33.9617V351.336C33.7484 351.805 33.3324 352.04 32.7137 352.04C32.303 352.04 31.983 351.923 31.7537 351.688C31.5244 351.453 31.4097 351.12 31.4097 350.688V347.944H32.3697V350.464C32.3697 350.72 32.431 350.915 32.5537 351.048C32.6817 351.181 32.855 351.248 33.0737 351.248C33.351 351.248 33.567 351.155 33.7217 350.968C33.8817 350.781 33.9617 350.499 33.9617 350.12V347.944Z" fill="white"/>
<rect x="56" y="348" width="274" height="4" rx="2" fill="#CCCCCC"/>
<mask id="mask0_1124_4113" style="mask-type:alpha" maskUnits="userSpaceOnUse" x="56" y="348" width="274" height="4">
<rect x="56" y="348" width="274" height="4" rx="2" fill="#CCCCCC"/>
</mask>
<g mask="url(#mask0_1124_4113)">
<rect x="56" y="348" width="274" height="4" rx="2" fill="#FF1934"/>
</g>
<defs>
<filter id="filter0_d_1124_4113" x="22.5" y="48" width="293" height="56" filterUnits="userSpaceOnUse" color-interpolation-filters="sRGB">
<feFlood flood-opacity="0" result="BackgroundImageFix"/>
<feColorMatrix in="SourceAlpha" type="matrix" values="0 0 0 0 0 0 0 0 0 0 0 0 0 0 0 0 0 0 127 0" result="hardAlpha"/>
<feOffset dy="2"/>
<feGaussianBlur stdDeviation="2"/>
<feComposite in2="hardAlpha" operator="out"/>
<feColorMatrix type="matrix" values="0 0 0 0 0.168627 0 0 0 0 0.168627 0 0 0 0 0.168627 0 0 0 0.24 0"/>
<feBlend mode="normal" in2="BackgroundImageFix" result="effect1_dropShadow_1124_4113"/>
<feBlend mode="normal" in="SourceGraphic" in2="effect1_dropShadow_1124_4113" result="shape"/>
</filter>
<clipPath id="clip0_1124_4113">
<rect width="24" height="24" fill="white" transform="translate(42.5 66)"/>
</clipPath>
<clipPath id="clip1_1124_4113">
<rect width="64" height="64" fill="white" transform="translate(48 106)"/>
</clipPath>
</defs>
</svg>
