<svg width="338" height="375" viewBox="0 0 338 375" fill="none" xmlns="http://www.w3.org/2000/svg">
<rect width="338" height="375" fill="#D3D3D3"/>
<rect x="26.5" y="50" width="285" height="265" rx="16" fill="white"/>
<g filter="url(#filter0_d_1124_4113)">
<path d="M26.5 66C26.5 57.1634 33.6634 50 42.5 50H295.5C304.337 50 311.5 57.1634 311.5 66V98H26.5V66Z" fill="#FF1934" shape-rendering="crispEdges"/>
<g clip-path="url(#clip0_1124_4113)">
<path fill-rule="evenodd" clip-rule="evenodd" d="M44.5 78C44.5 72.49 48.99 68 54.5 68C60.01 68 64.5 72.49 64.5 78C64.5 83.51 60.01 88 54.5 88C48.99 88 44.5 83.51 44.5 78ZM46.1 78C46.1 82.63 49.87 86.4 54.5 86.4C59.13 86.4 62.9 82.63 62.9 78C62.9 73.37 59.13 69.6 54.5 69.6C49.87 69.6 46.1 73.37 46.1 78ZM49.7 78C49.7 77.56 50.06 77.2 50.5 77.2H58.5C58.94 77.2 59.3 77.56 59.3 78C59.3 78.44 58.94 78.8 58.5 78.8H50.5C50.06 78.8 49.7 78.44 49.7 78Z" fill="white"/>
</g>
<path d="M77.622 80.236H78.602C79.47 80.236 80.1373 79.9653 80.604 79.424C81.08 78.8827 81.318 78.1173 81.318 77.128C81.318 76.288 81.08 75.616 80.604 75.112C80.128 74.5987 79.456 74.342 78.588 74.342H77.622V80.236ZM75.41 72.564H78.658C80.0767 72.564 81.2387 73.0027 82.144 73.88C83.0493 74.748 83.502 75.8307 83.502 77.128C83.502 78.64 83.054 79.83 82.158 80.698C81.2713 81.566 80.0953 82 78.63 82H75.41V72.564ZM88.0326 82.112C86.922 82.112 86.0633 81.7807 85.4566 81.118C84.85 80.446 84.5466 79.5873 84.5466 78.542C84.5466 77.45 84.864 76.554 85.4986 75.854C86.1333 75.1447 86.978 74.79 88.0326 74.79C89.134 74.79 89.988 75.1307 90.5946 75.812C91.2013 76.4933 91.5046 77.3613 91.5046 78.416C91.5046 79.4893 91.1966 80.376 90.5806 81.076C89.974 81.7667 89.1246 82.112 88.0326 82.112ZM88.0186 76.4C87.5706 76.4 87.2346 76.5913 87.0106 76.974C86.7866 77.3567 86.6746 77.8513 86.6746 78.458C86.6746 79.0647 86.7866 79.564 87.0106 79.956C87.244 80.3387 87.5893 80.53 88.0466 80.53C88.4946 80.53 88.826 80.3433 89.0406 79.97C89.2646 79.5873 89.3766 79.0927 89.3766 78.486C89.3766 77.0953 88.924 76.4 88.0186 76.4ZM94.884 74.902V76.106C95.0613 75.714 95.332 75.406 95.696 75.182C96.0693 74.9487 96.5127 74.832 97.026 74.832C97.754 74.832 98.3233 75.0513 98.734 75.49C99.1447 75.9193 99.35 76.554 99.35 77.394V82H97.306V77.772C97.306 77.352 97.208 77.0347 97.012 76.82C96.816 76.596 96.5407 76.484 96.186 76.484C95.8127 76.484 95.5 76.6333 95.248 76.932C95.0053 77.2213 94.884 77.66 94.884 78.248V82H92.84V74.902H94.884ZM104.475 79.088H103.817C103.472 79.088 103.206 79.1627 103.019 79.312C102.832 79.4613 102.739 79.6527 102.739 79.886C102.739 80.362 103.014 80.6 103.565 80.6C103.854 80.6 104.078 80.5113 104.237 80.334C104.396 80.1567 104.475 79.914 104.475 79.606V79.088ZM101.157 77.086V75.252C101.717 74.9347 102.524 74.776 103.579 74.776C104.587 74.776 105.338 74.9953 105.833 75.434C106.328 75.8633 106.575 76.5353 106.575 77.45V82H104.573V81.132C104.274 81.7387 103.686 82.042 102.809 82.042C102.118 82.042 101.577 81.846 101.185 81.454C100.802 81.062 100.611 80.572 100.611 79.984C100.611 79.3027 100.858 78.7753 101.353 78.402C101.857 78.0193 102.599 77.828 103.579 77.828H104.475V77.338C104.475 76.7407 104.078 76.442 103.285 76.442C102.52 76.442 101.81 76.6567 101.157 77.086ZM112.66 75.112V76.862C112.165 76.5727 111.587 76.428 110.924 76.428C110.681 76.428 110.495 76.4793 110.364 76.582C110.233 76.6753 110.168 76.7967 110.168 76.946C110.168 77.03 110.191 77.1093 110.238 77.184C110.285 77.2587 110.359 77.3287 110.462 77.394C110.574 77.4593 110.677 77.52 110.77 77.576C110.873 77.6227 111.008 77.6833 111.176 77.758C111.353 77.8327 111.493 77.898 111.596 77.954C112.025 78.178 112.371 78.4393 112.632 78.738C112.893 79.0273 113.024 79.4007 113.024 79.858C113.024 80.558 112.772 81.0993 112.268 81.482C111.764 81.8647 111.097 82.056 110.266 82.056C109.407 82.056 108.689 81.9113 108.11 81.622V79.802C108.754 80.25 109.435 80.474 110.154 80.474C110.667 80.474 110.924 80.3107 110.924 79.984C110.924 79.9 110.901 79.8207 110.854 79.746C110.807 79.6713 110.728 79.6013 110.616 79.536C110.504 79.4707 110.401 79.4193 110.308 79.382C110.215 79.3353 110.079 79.2747 109.902 79.2C109.725 79.1253 109.589 79.0647 109.496 79.018C108.553 78.57 108.082 77.898 108.082 77.002C108.082 76.3113 108.343 75.7747 108.866 75.392C109.398 75.0093 110.056 74.818 110.84 74.818C111.568 74.818 112.175 74.916 112.66 75.112ZM114.348 82V74.902H116.392V82H114.348ZM114.53 73.684C114.296 73.4507 114.18 73.1707 114.18 72.844C114.18 72.5173 114.296 72.2373 114.53 72.004C114.763 71.7707 115.043 71.654 115.37 71.654C115.696 71.654 115.976 71.7707 116.21 72.004C116.443 72.2373 116.56 72.5173 116.56 72.844C116.56 73.1707 116.443 73.4507 116.21 73.684C115.976 73.9173 115.696 74.034 115.37 74.034C115.043 74.034 114.763 73.9173 114.53 73.684ZM126.043 74.902H128.087V82H126.043V80.866C125.669 81.6593 124.951 82.056 123.887 82.056C123.159 82.056 122.589 81.8553 122.179 81.454C121.777 81.0433 121.577 80.4413 121.577 79.648V74.902H123.621V79.186C123.621 80.0167 123.985 80.432 124.713 80.432C125.599 80.432 126.043 79.8393 126.043 78.654V74.902ZM131.812 74.902V76.106C131.989 75.714 132.26 75.406 132.624 75.182C132.997 74.9487 133.44 74.832 133.954 74.832C134.682 74.832 135.251 75.0513 135.662 75.49C136.072 75.9193 136.278 76.554 136.278 77.394V82H134.234V77.772C134.234 77.352 134.136 77.0347 133.94 76.82C133.744 76.596 133.468 76.484 133.114 76.484C132.74 76.484 132.428 76.6333 132.176 76.932C131.933 77.2213 131.812 77.66 131.812 78.248V82H129.768V74.902H131.812ZM140.255 76.4V79.662C140.255 79.914 140.325 80.1053 140.465 80.236C140.614 80.3667 140.805 80.432 141.039 80.432C141.412 80.432 141.743 80.3387 142.033 80.152V81.846C141.687 81.9953 141.221 82.07 140.633 82.07C139.018 82.07 138.211 81.2627 138.211 79.648V76.4H137.189V74.902H138.211V73.222H140.255V74.902H141.907V76.4H140.255ZM147.685 74.902H149.729V82H147.685V80.866C147.312 81.6593 146.593 82.056 145.529 82.056C144.801 82.056 144.232 81.8553 143.821 81.454C143.42 81.0433 143.219 80.4413 143.219 79.648V74.902H145.263V79.186C145.263 80.0167 145.627 80.432 146.355 80.432C147.242 80.432 147.685 79.8393 147.685 78.654V74.902ZM158.088 82H155.722L153.454 78.514V82H151.41V72.34H153.454V78.08L155.694 74.902H158.046L155.582 78.304L158.088 82ZM165.408 78.332H167.676L167.578 77.996C167.308 77.0813 167.084 76.302 166.906 75.658C166.738 75.014 166.636 74.5987 166.598 74.412L166.542 74.132C166.468 74.6453 166.122 75.9333 165.506 77.996L165.408 78.332ZM168.768 82L168.194 80.068H164.89L164.316 82H162.062L165.212 72.564H167.928L171.078 82H168.768ZM174.29 74.902V76.008C174.682 75.224 175.35 74.832 176.292 74.832C177.291 74.832 177.954 75.28 178.28 76.176C178.439 75.756 178.705 75.4293 179.078 75.196C179.452 74.9533 179.89 74.832 180.394 74.832C181.094 74.832 181.645 75.056 182.046 75.504C182.457 75.9427 182.662 76.5913 182.662 77.45V82H180.618V77.786C180.618 77.3847 180.539 77.0673 180.38 76.834C180.222 76.6007 179.993 76.484 179.694 76.484C179.377 76.484 179.092 76.6147 178.84 76.876C178.598 77.128 178.476 77.5853 178.476 78.248V82H176.432V77.786C176.432 77.3847 176.353 77.0673 176.194 76.834C176.036 76.6007 175.807 76.484 175.508 76.484C175.191 76.484 174.906 76.6147 174.654 76.876C174.412 77.128 174.29 77.5853 174.29 78.248V82H172.246V74.902H174.29ZM187.792 79.088H187.133C186.788 79.088 186.522 79.1627 186.336 79.312C186.149 79.4613 186.056 79.6527 186.056 79.886C186.056 80.362 186.331 80.6 186.882 80.6C187.171 80.6 187.395 80.5113 187.553 80.334C187.712 80.1567 187.792 79.914 187.792 79.606V79.088ZM184.474 77.086V75.252C185.034 74.9347 185.841 74.776 186.896 74.776C187.904 74.776 188.655 74.9953 189.15 75.434C189.644 75.8633 189.892 76.5353 189.892 77.45V82H187.89V81.132C187.591 81.7387 187.003 82.042 186.126 82.042C185.435 82.042 184.894 81.846 184.502 81.454C184.119 81.062 183.928 80.572 183.928 79.984C183.928 79.3027 184.175 78.7753 184.67 78.402C185.174 78.0193 185.916 77.828 186.896 77.828H187.792V77.338C187.792 76.7407 187.395 76.442 186.602 76.442C185.836 76.442 185.127 76.6567 184.474 77.086ZM191.566 82V72.102H193.61V82H191.566Z" fill="white"/>
</g>
<g clip-path="url(#clip1_1124_4113)">
<path d="M185.518 181.667L172.099 181.631H172.101L182.103 181.456L183.891 181.251L180.424 181.034L171.534 181.507L167.571 180.64L160.942 180.788L160.739 181.061L169.336 181.624L156.014 181.589L153.733 182.493H154.805L151.647 184.016H177.842L182.363 182.493H183.435L185.518 181.667Z" fill="#CCCCCC"/>
<path d="M155.526 153.974L153.685 176.331L179.685 179.516L183.294 157.375L155.526 153.974Z" fill="#FF1934"/>
<path d="M155.273 148.936L154.033 159.066L183.514 162.677L184.647 153.43L155.273 148.936Z" fill="#FF1934"/>
<path d="M167.077 150.742L165.88 160.517L167.354 160.698L165.902 177.827L170.627 178.406L173.39 161.437L174.335 161.553L175.501 152.031L167.077 150.742Z" fill="#D9AA16"/>
<g opacity="0.72" style="mix-blend-mode:multiply">
<path d="M182.236 163.862L182.45 162.547L155.096 159.196L154.987 160.524L182.236 163.862Z" fill="#DA011C"/>
</g>
<path d="M171.29 151.386L165.518 140.698L159.128 141.404L159.279 144.173L168.544 150.981L171.29 151.386Z" fill="#D9AA16"/>
<path d="M168.546 150.967L178.875 145.53L182.563 148.448L181.019 150.588L171.29 151.386L168.546 150.967Z" fill="#D9AA16"/>
</g>
<path d="M111.591 212.13H112.651C113.417 212.13 114.001 211.89 114.401 211.41C114.801 210.93 115.001 210.313 115.001 209.56C115.001 208.867 114.784 208.29 114.351 207.83C113.917 207.37 113.341 207.14 112.621 207.14H111.591V212.13ZM110.541 206.26H112.641C113.641 206.26 114.461 206.57 115.101 207.19C115.741 207.81 116.061 208.6 116.061 209.56C116.061 210.56 115.757 211.383 115.151 212.03C114.551 212.677 113.721 213 112.661 213H110.541V206.26ZM119.29 213.09C118.544 213.09 117.957 212.847 117.53 212.36C117.104 211.873 116.89 211.257 116.89 210.51C116.89 209.75 117.11 209.12 117.55 208.62C117.99 208.113 118.57 207.86 119.29 207.86C120.064 207.86 120.66 208.107 121.08 208.6C121.5 209.087 121.71 209.71 121.71 210.47C121.71 211.23 121.494 211.857 121.06 212.35C120.634 212.843 120.044 213.09 119.29 213.09ZM119.28 208.69C118.847 208.69 118.51 208.863 118.27 209.21C118.03 209.55 117.91 209.973 117.91 210.48C117.91 210.98 118.034 211.403 118.28 211.75C118.527 212.09 118.864 212.26 119.29 212.26C119.744 212.26 120.087 212.093 120.32 211.76C120.56 211.427 120.68 211.003 120.68 210.49C120.68 209.963 120.567 209.533 120.34 209.2C120.114 208.86 119.76 208.69 119.28 208.69ZM123.795 207.93V208.8C124.095 208.173 124.622 207.86 125.375 207.86C125.875 207.86 126.272 208.013 126.565 208.32C126.858 208.627 127.005 209.043 127.005 209.57V213H126.025V209.8C126.025 209.447 125.935 209.177 125.755 208.99C125.582 208.803 125.348 208.71 125.055 208.71C124.708 208.71 124.412 208.847 124.165 209.12C123.918 209.387 123.795 209.763 123.795 210.25V213H122.815V207.93H123.795ZM130.993 210.74H130.233C129.859 210.74 129.576 210.813 129.383 210.96C129.196 211.107 129.103 211.293 129.103 211.52C129.103 211.753 129.176 211.937 129.323 212.07C129.469 212.203 129.683 212.27 129.963 212.27C130.283 212.27 130.533 212.183 130.713 212.01C130.899 211.83 130.993 211.597 130.993 211.31V210.74ZM128.443 209.14V208.19C128.836 207.963 129.356 207.85 130.003 207.85C131.329 207.85 131.993 208.493 131.993 209.78V213H131.023V212.4C130.763 212.827 130.306 213.04 129.653 213.04C129.173 213.04 128.786 212.903 128.493 212.63C128.206 212.35 128.063 211.997 128.063 211.57C128.063 211.083 128.246 210.707 128.613 210.44C128.979 210.167 129.493 210.03 130.153 210.03H130.993V209.74C130.993 209.393 130.909 209.133 130.743 208.96C130.576 208.78 130.299 208.69 129.913 208.69C129.373 208.69 128.883 208.84 128.443 209.14ZM136.203 208.1V208.99C135.876 208.797 135.456 208.7 134.943 208.7C134.71 208.7 134.523 208.753 134.383 208.86C134.25 208.967 134.183 209.107 134.183 209.28C134.183 209.327 134.186 209.373 134.193 209.42C134.206 209.46 134.226 209.503 134.253 209.55C134.28 209.59 134.303 209.627 134.323 209.66C134.35 209.687 134.39 209.717 134.443 209.75C134.496 209.783 134.536 209.813 134.563 209.84C134.596 209.86 134.646 209.887 134.713 209.92C134.786 209.953 134.84 209.98 134.873 210C134.906 210.013 134.963 210.04 135.043 210.08C135.13 210.113 135.19 210.137 135.223 210.15C135.616 210.323 135.923 210.52 136.143 210.74C136.37 210.953 136.483 211.24 136.483 211.6C136.483 212.053 136.323 212.41 136.003 212.67C135.683 212.923 135.25 213.05 134.703 213.05C134.103 213.05 133.603 212.95 133.203 212.75V211.82C133.67 212.107 134.153 212.25 134.653 212.25C134.913 212.25 135.113 212.197 135.253 212.09C135.4 211.983 135.473 211.843 135.473 211.67C135.473 211.523 135.416 211.393 135.303 211.28C135.19 211.16 135.073 211.073 134.953 211.02C134.84 210.96 134.643 210.87 134.363 210.75C133.57 210.423 133.173 209.943 133.173 209.31C133.173 208.863 133.34 208.513 133.673 208.26C134.006 208.007 134.423 207.88 134.923 207.88C135.47 207.88 135.896 207.953 136.203 208.1ZM137.543 213V207.93H138.533V213H137.543ZM137.593 206.82C137.479 206.7 137.423 206.553 137.423 206.38C137.423 206.207 137.479 206.06 137.593 205.94C137.713 205.82 137.859 205.76 138.033 205.76C138.206 205.76 138.353 205.82 138.473 205.94C138.593 206.06 138.653 206.207 138.653 206.38C138.653 206.547 138.593 206.69 138.473 206.81C138.353 206.93 138.206 206.99 138.033 206.99C137.859 206.99 137.713 206.933 137.593 206.82ZM145.565 207.93H146.545V213H145.565V212.13C145.298 212.75 144.771 213.06 143.985 213.06C143.485 213.06 143.088 212.913 142.795 212.62C142.501 212.32 142.355 211.91 142.355 211.39V207.93H143.345V211.15C143.345 211.497 143.428 211.763 143.595 211.95C143.768 212.13 144.005 212.22 144.305 212.22C144.685 212.22 144.988 212.087 145.215 211.82C145.448 211.553 145.565 211.177 145.565 210.69V207.93ZM148.902 207.93V208.8C149.202 208.173 149.729 207.86 150.482 207.86C150.982 207.86 151.379 208.013 151.672 208.32C151.966 208.627 152.112 209.043 152.112 209.57V213H151.132V209.8C151.132 209.447 151.042 209.177 150.862 208.99C150.689 208.803 150.456 208.71 150.162 208.71C149.816 208.71 149.519 208.847 149.272 209.12C149.026 209.387 148.902 209.763 148.902 210.25V213H147.922V207.93H148.902ZM154.7 208.69V211.48C154.7 211.967 154.934 212.21 155.4 212.21C155.674 212.21 155.904 212.137 156.09 211.99V212.87C155.87 212.99 155.6 213.05 155.28 213.05C154.234 213.05 153.71 212.52 153.71 211.46V208.69H152.92V207.93H153.71V206.69H154.7V207.93H156.03V208.69H154.7ZM160.32 207.93H161.3V213H160.32V212.13C160.054 212.75 159.527 213.06 158.74 213.06C158.24 213.06 157.844 212.913 157.55 212.62C157.257 212.32 157.11 211.91 157.11 211.39V207.93H158.1V211.15C158.1 211.497 158.184 211.763 158.35 211.95C158.524 212.13 158.76 212.22 159.06 212.22C159.44 212.22 159.744 212.087 159.97 211.82C160.204 211.553 160.32 211.177 160.32 210.69V207.93ZM162.678 213V206H163.658V213H162.678ZM164.828 210.35L166.818 213H165.648L163.698 210.35L165.608 207.93H166.758L164.828 210.35ZM172.809 210.74H172.049C171.676 210.74 171.393 210.813 171.199 210.96C171.013 211.107 170.919 211.293 170.919 211.52C170.919 211.753 170.993 211.937 171.139 212.07C171.286 212.203 171.499 212.27 171.779 212.27C172.099 212.27 172.349 212.183 172.529 212.01C172.716 211.83 172.809 211.597 172.809 211.31V210.74ZM170.259 209.14V208.19C170.653 207.963 171.173 207.85 171.819 207.85C173.146 207.85 173.809 208.493 173.809 209.78V213H172.839V212.4C172.579 212.827 172.123 213.04 171.469 213.04C170.989 213.04 170.603 212.903 170.309 212.63C170.023 212.35 169.879 211.997 169.879 211.57C169.879 211.083 170.063 210.707 170.429 210.44C170.796 210.167 171.309 210.03 171.969 210.03H172.809V209.74C172.809 209.393 172.726 209.133 172.559 208.96C172.393 208.78 172.116 208.69 171.729 208.69C171.189 208.69 170.699 208.84 170.259 209.14ZM176.109 207.93V208.74C176.396 208.153 176.873 207.86 177.539 207.86C178.299 207.86 178.786 208.187 178.999 208.84C179.139 208.527 179.343 208.287 179.609 208.12C179.876 207.947 180.176 207.86 180.509 207.86C181.029 207.86 181.423 208.013 181.689 208.32C181.963 208.627 182.099 209.05 182.099 209.59V213H181.119V209.8C181.119 209.073 180.826 208.71 180.239 208.71C179.946 208.71 179.683 208.84 179.449 209.1C179.223 209.36 179.109 209.743 179.109 210.25V213H178.129V209.8C178.129 209.073 177.833 208.71 177.239 208.71C176.953 208.71 176.693 208.84 176.459 209.1C176.226 209.36 176.109 209.743 176.109 210.25V213H175.129V207.93H176.109ZM186.1 210.74H185.34C184.967 210.74 184.684 210.813 184.49 210.96C184.304 211.107 184.21 211.293 184.21 211.52C184.21 211.753 184.284 211.937 184.43 212.07C184.577 212.203 184.79 212.27 185.07 212.27C185.39 212.27 185.64 212.183 185.82 212.01C186.007 211.83 186.1 211.597 186.1 211.31V210.74ZM183.55 209.14V208.19C183.944 207.963 184.464 207.85 185.11 207.85C186.437 207.85 187.1 208.493 187.1 209.78V213H186.13V212.4C185.87 212.827 185.414 213.04 184.76 213.04C184.28 213.04 183.894 212.903 183.6 212.63C183.314 212.35 183.17 211.997 183.17 211.57C183.17 211.083 183.354 210.707 183.72 210.44C184.087 210.167 184.6 210.03 185.26 210.03H186.1V209.74C186.1 209.393 186.017 209.133 185.85 208.96C185.684 208.78 185.407 208.69 185.02 208.69C184.48 208.69 183.99 208.84 183.55 209.14ZM188.46 213V205.93H189.45V213H188.46ZM196.223 208.1V208.99C195.896 208.797 195.476 208.7 194.963 208.7C194.729 208.7 194.543 208.753 194.403 208.86C194.269 208.967 194.203 209.107 194.203 209.28C194.203 209.327 194.206 209.373 194.213 209.42C194.226 209.46 194.246 209.503 194.273 209.55C194.299 209.59 194.323 209.627 194.343 209.66C194.369 209.687 194.409 209.717 194.463 209.75C194.516 209.783 194.556 209.813 194.583 209.84C194.616 209.86 194.666 209.887 194.733 209.92C194.806 209.953 194.859 209.98 194.893 210C194.926 210.013 194.983 210.04 195.063 210.08C195.149 210.113 195.209 210.137 195.243 210.15C195.636 210.323 195.943 210.52 196.163 210.74C196.389 210.953 196.503 211.24 196.503 211.6C196.503 212.053 196.343 212.41 196.023 212.67C195.703 212.923 195.269 213.05 194.723 213.05C194.123 213.05 193.623 212.95 193.223 212.75V211.82C193.689 212.107 194.173 212.25 194.673 212.25C194.933 212.25 195.133 212.197 195.273 212.09C195.419 211.983 195.493 211.843 195.493 211.67C195.493 211.523 195.436 211.393 195.323 211.28C195.209 211.16 195.093 211.073 194.973 211.02C194.859 210.96 194.663 210.87 194.383 210.75C193.589 210.423 193.193 209.943 193.193 209.31C193.193 208.863 193.359 208.513 193.693 208.26C194.026 208.007 194.443 207.88 194.943 207.88C195.489 207.88 195.916 207.953 196.223 208.1ZM200.672 210.1V209.92C200.659 209.54 200.555 209.24 200.362 209.02C200.169 208.793 199.892 208.68 199.532 208.68C199.199 208.68 198.912 208.803 198.672 209.05C198.432 209.29 198.282 209.64 198.222 210.1H200.672ZM201.302 211.85V212.73C200.929 212.943 200.435 213.05 199.822 213.05C199.035 213.05 198.409 212.813 197.942 212.34C197.475 211.867 197.242 211.247 197.242 210.48C197.242 209.667 197.455 209.03 197.882 208.57C198.309 208.103 198.852 207.87 199.512 207.87C200.159 207.87 200.672 208.073 201.052 208.48C201.432 208.88 201.622 209.46 201.622 210.22C201.622 210.427 201.602 210.643 201.562 210.87H198.232C198.299 211.31 198.485 211.647 198.792 211.88C199.099 212.113 199.485 212.23 199.952 212.23C200.492 212.23 200.942 212.103 201.302 211.85ZM205.166 212.21C205.539 212.21 205.853 212.053 206.106 211.74C206.359 211.42 206.486 211.01 206.486 210.51C206.486 209.937 206.359 209.497 206.106 209.19C205.853 208.877 205.529 208.72 205.136 208.72C204.789 208.72 204.476 208.86 204.196 209.14C203.923 209.42 203.786 209.85 203.786 210.43C203.786 211.03 203.919 211.477 204.186 211.77C204.453 212.063 204.779 212.21 205.166 212.21ZM203.786 205.93V208.7C204.146 208.14 204.656 207.86 205.316 207.86C205.956 207.86 206.479 208.1 206.886 208.58C207.293 209.06 207.496 209.697 207.496 210.49C207.496 211.203 207.303 211.813 206.916 212.32C206.529 212.82 205.999 213.07 205.326 213.07C204.653 213.07 204.139 212.79 203.786 212.23V213H202.796V205.93H203.786ZM211.746 210.1V209.92C211.733 209.54 211.63 209.24 211.436 209.02C211.243 208.793 210.966 208.68 210.606 208.68C210.273 208.68 209.986 208.803 209.746 209.05C209.506 209.29 209.356 209.64 209.296 210.1H211.746ZM212.376 211.85V212.73C212.003 212.943 211.51 213.05 210.896 213.05C210.11 213.05 209.483 212.813 209.016 212.34C208.55 211.867 208.316 211.247 208.316 210.48C208.316 209.667 208.53 209.03 208.956 208.57C209.383 208.103 209.926 207.87 210.586 207.87C211.233 207.87 211.746 208.073 212.126 208.48C212.506 208.88 212.696 209.46 212.696 210.22C212.696 210.427 212.676 210.643 212.636 210.87H209.306C209.373 211.31 209.56 211.647 209.866 211.88C210.173 212.113 210.56 212.23 211.026 212.23C211.566 212.23 212.016 212.103 212.376 211.85ZM216.74 208.1V208.99C216.413 208.797 215.993 208.7 215.48 208.7C215.247 208.7 215.06 208.753 214.92 208.86C214.787 208.967 214.72 209.107 214.72 209.28C214.72 209.327 214.723 209.373 214.73 209.42C214.743 209.46 214.763 209.503 214.79 209.55C214.817 209.59 214.84 209.627 214.86 209.66C214.887 209.687 214.927 209.717 214.98 209.75C215.033 209.783 215.073 209.813 215.1 209.84C215.133 209.86 215.183 209.887 215.25 209.92C215.323 209.953 215.377 209.98 215.41 210C215.443 210.013 215.5 210.04 215.58 210.08C215.667 210.113 215.727 210.137 215.76 210.15C216.153 210.323 216.46 210.52 216.68 210.74C216.907 210.953 217.02 211.24 217.02 211.6C217.02 212.053 216.86 212.41 216.54 212.67C216.22 212.923 215.787 213.05 215.24 213.05C214.64 213.05 214.14 212.95 213.74 212.75V211.82C214.207 212.107 214.69 212.25 215.19 212.25C215.45 212.25 215.65 212.197 215.79 212.09C215.937 211.983 216.01 211.843 216.01 211.67C216.01 211.523 215.953 211.393 215.84 211.28C215.727 211.16 215.61 211.073 215.49 211.02C215.377 210.96 215.18 210.87 214.9 210.75C214.107 210.423 213.71 209.943 213.71 209.31C213.71 208.863 213.877 208.513 214.21 208.26C214.543 208.007 214.96 207.88 215.46 207.88C216.007 207.88 216.433 207.953 216.74 208.1ZM220.71 210.74H219.95C219.576 210.74 219.293 210.813 219.1 210.96C218.913 211.107 218.82 211.293 218.82 211.52C218.82 211.753 218.893 211.937 219.04 212.07C219.186 212.203 219.4 212.27 219.68 212.27C220 212.27 220.25 212.183 220.43 212.01C220.616 211.83 220.71 211.597 220.71 211.31V210.74ZM218.16 209.14V208.19C218.553 207.963 219.073 207.85 219.72 207.85C221.046 207.85 221.71 208.493 221.71 209.78V213H220.74V212.4C220.48 212.827 220.023 213.04 219.37 213.04C218.89 213.04 218.503 212.903 218.21 212.63C217.923 212.35 217.78 211.997 217.78 211.57C217.78 211.083 217.963 210.707 218.33 210.44C218.696 210.167 219.21 210.03 219.87 210.03H220.71V209.74C220.71 209.393 220.626 209.133 220.46 208.96C220.293 208.78 220.016 208.69 219.63 208.69C219.09 208.69 218.6 208.84 218.16 209.14ZM224.01 207.93V208.82C224.257 208.193 224.7 207.88 225.34 207.88C225.433 207.88 225.537 207.89 225.65 207.91V208.87C225.51 208.81 225.353 208.78 225.18 208.78C224.84 208.78 224.56 208.93 224.34 209.23C224.12 209.53 224.01 209.887 224.01 210.3V213H223.03V207.93H224.01Z" fill="#2B2B2B"/>
<path d="M146.443 223.3V225.5H147.283C147.67 225.5 147.96 225.403 148.153 225.21C148.347 225.01 148.443 224.733 148.443 224.38C148.443 224.033 148.34 223.767 148.133 223.58C147.933 223.393 147.643 223.3 147.263 223.3H146.443ZM148.663 229L147.133 226.54H146.443V229H145.183V222.26H147.263C148.03 222.26 148.63 222.453 149.063 222.84C149.503 223.227 149.723 223.743 149.723 224.39C149.717 224.87 149.6 225.277 149.373 225.61C149.147 225.937 148.837 226.18 148.443 226.34L150.173 229H148.663ZM153.482 228.04C153.842 228.04 154.135 227.903 154.362 227.63C154.589 227.35 154.702 226.96 154.702 226.46C154.702 225.96 154.589 225.573 154.362 225.3C154.135 225.02 153.849 224.88 153.502 224.88C153.155 224.88 152.855 225.01 152.602 225.27C152.349 225.53 152.222 225.917 152.222 226.43C152.222 226.943 152.345 227.34 152.592 227.62C152.839 227.9 153.135 228.04 153.482 228.04ZM152.222 223.93V224.71C152.582 224.143 153.099 223.86 153.772 223.86C154.432 223.86 154.955 224.097 155.342 224.57C155.735 225.043 155.932 225.667 155.932 226.44C155.932 227.2 155.735 227.83 155.342 228.33C154.955 228.823 154.429 229.07 153.762 229.07C153.082 229.07 152.569 228.793 152.222 228.24V230.91H151.022V223.93H152.222ZM159.36 223.88V222.75C159.813 222.503 160.29 222.38 160.79 222.38C161.477 222.38 162.013 222.547 162.4 222.88C162.793 223.213 162.99 223.64 162.99 224.16C162.99 224.913 162.647 225.427 161.96 225.7C162.333 225.793 162.623 225.97 162.83 226.23C163.037 226.483 163.14 226.807 163.14 227.2C163.14 227.747 162.937 228.193 162.53 228.54C162.13 228.88 161.567 229.05 160.84 229.05C160.167 229.05 159.593 228.94 159.12 228.72V227.55C159.64 227.83 160.187 227.97 160.76 227.97C161.12 227.97 161.4 227.887 161.6 227.72C161.807 227.547 161.91 227.327 161.91 227.06C161.91 226.48 161.44 226.19 160.5 226.19H160.12V225.18H160.5C160.853 225.18 161.15 225.103 161.39 224.95C161.63 224.797 161.75 224.58 161.75 224.3C161.75 223.74 161.407 223.46 160.72 223.46C160.267 223.46 159.813 223.6 159.36 223.88ZM163.926 225.7C163.926 224.667 164.129 223.85 164.536 223.25C164.943 222.643 165.519 222.34 166.266 222.34C167.019 222.34 167.599 222.643 168.006 223.25C168.419 223.85 168.626 224.667 168.626 225.7C168.626 226.727 168.423 227.547 168.016 228.16C167.616 228.773 167.033 229.08 166.266 229.08C165.519 229.08 164.943 228.773 164.536 228.16C164.129 227.547 163.926 226.727 163.926 225.7ZM165.456 224.02C165.256 224.407 165.156 224.967 165.156 225.7C165.156 226.433 165.253 227 165.446 227.4C165.646 227.793 165.919 227.99 166.266 227.99C166.626 227.99 166.903 227.793 167.096 227.4C167.296 227.007 167.396 226.44 167.396 225.7C167.396 224.96 167.293 224.397 167.086 224.01C166.886 223.623 166.613 223.43 166.266 223.43C165.926 223.43 165.656 223.627 165.456 224.02ZM169.385 225.7C169.385 224.667 169.588 223.85 169.995 223.25C170.402 222.643 170.978 222.34 171.725 222.34C172.478 222.34 173.058 222.643 173.465 223.25C173.878 223.85 174.085 224.667 174.085 225.7C174.085 226.727 173.882 227.547 173.475 228.16C173.075 228.773 172.492 229.08 171.725 229.08C170.978 229.08 170.402 228.773 169.995 228.16C169.588 227.547 169.385 226.727 169.385 225.7ZM170.915 224.02C170.715 224.407 170.615 224.967 170.615 225.7C170.615 226.433 170.712 227 170.905 227.4C171.105 227.793 171.378 227.99 171.725 227.99C172.085 227.99 172.362 227.793 172.555 227.4C172.755 227.007 172.855 226.44 172.855 225.7C172.855 224.96 172.752 224.397 172.545 224.01C172.345 223.623 172.072 223.43 171.725 223.43C171.385 223.43 171.115 223.627 170.915 224.02ZM174.394 230.26L175.374 227.79H176.764L175.434 230.26H174.394ZM177.52 225.7C177.52 224.667 177.723 223.85 178.13 223.25C178.536 222.643 179.113 222.34 179.86 222.34C180.613 222.34 181.193 222.643 181.6 223.25C182.013 223.85 182.22 224.667 182.22 225.7C182.22 226.727 182.016 227.547 181.61 228.16C181.21 228.773 180.626 229.08 179.86 229.08C179.113 229.08 178.536 228.773 178.13 228.16C177.723 227.547 177.52 226.727 177.52 225.7ZM179.05 224.02C178.85 224.407 178.75 224.967 178.75 225.7C178.75 226.433 178.846 227 179.04 227.4C179.24 227.793 179.513 227.99 179.86 227.99C180.22 227.99 180.496 227.793 180.69 227.4C180.89 227.007 180.99 226.44 180.99 225.7C180.99 224.96 180.886 224.397 180.68 224.01C180.48 223.623 180.206 223.43 179.86 223.43C179.52 223.43 179.25 223.627 179.05 224.02ZM182.979 225.7C182.979 224.667 183.182 223.85 183.589 223.25C183.995 222.643 184.572 222.34 185.319 222.34C186.072 222.34 186.652 222.643 187.059 223.25C187.472 223.85 187.679 224.667 187.679 225.7C187.679 226.727 187.475 227.547 187.069 228.16C186.669 228.773 186.085 229.08 185.319 229.08C184.572 229.08 183.995 228.773 183.589 228.16C183.182 227.547 182.979 226.727 182.979 225.7ZM184.509 224.02C184.309 224.407 184.209 224.967 184.209 225.7C184.209 226.433 184.305 227 184.499 227.4C184.699 227.793 184.972 227.99 185.319 227.99C185.679 227.99 185.955 227.793 186.149 227.4C186.349 227.007 186.449 226.44 186.449 225.7C186.449 224.96 186.345 224.397 186.139 224.01C185.939 223.623 185.665 223.43 185.319 223.43C184.979 223.43 184.709 223.627 184.509 224.02ZM188.438 225.7C188.438 224.667 188.641 223.85 189.048 223.25C189.454 222.643 190.031 222.34 190.778 222.34C191.531 222.34 192.111 222.643 192.518 223.25C192.931 223.85 193.138 224.667 193.138 225.7C193.138 226.727 192.934 227.547 192.528 228.16C192.128 228.773 191.544 229.08 190.778 229.08C190.031 229.08 189.454 228.773 189.048 228.16C188.641 227.547 188.438 226.727 188.438 225.7ZM189.968 224.02C189.768 224.407 189.668 224.967 189.668 225.7C189.668 226.433 189.764 227 189.958 227.4C190.158 227.793 190.431 227.99 190.778 227.99C191.138 227.99 191.414 227.793 191.608 227.4C191.808 227.007 191.908 226.44 191.908 225.7C191.908 224.96 191.804 224.397 191.598 224.01C191.398 223.623 191.124 223.43 190.778 223.43C190.438 223.43 190.168 223.627 189.968 224.02Z" fill="#FF1934"/>
<rect x="109" y="275" width="120" height="24" rx="8" fill="#FF1934"/>
<path d="M157.959 288.176L158.823 288.176C159.468 288.176 159.791 287.931 159.791 287.44C159.791 286.939 159.455 286.688 158.783 286.688L157.959 286.688L157.959 288.176ZM157.959 284.432L157.959 285.88L158.567 285.88C158.929 285.88 159.201 285.808 159.383 285.664C159.564 285.52 159.655 285.336 159.655 285.112C159.655 284.904 159.577 284.739 159.423 284.616C159.273 284.493 159.044 284.432 158.735 284.432L157.959 284.432ZM156.951 283.608L158.863 283.608C159.439 283.608 159.887 283.744 160.207 284.016C160.527 284.288 160.687 284.64 160.687 285.072C160.687 285.365 160.607 285.621 160.447 285.84C160.287 286.053 160.081 286.195 159.831 286.264C160.119 286.333 160.356 286.475 160.543 286.688C160.729 286.896 160.823 287.181 160.823 287.544C160.823 287.971 160.673 288.32 160.375 288.592C160.076 288.864 159.663 289 159.135 289L156.951 289L156.951 283.608ZM163.053 286.952L164.573 286.952L164.501 286.712C164.32 286.136 164.17 285.653 164.053 285.264C163.941 284.869 163.872 284.621 163.845 284.52L163.813 284.36C163.765 284.627 163.536 285.413 163.125 286.72L163.053 286.952ZM165.213 289L164.829 287.776L162.789 287.776L162.405 289L161.349 289L163.173 283.608L164.477 283.608L166.301 289L165.213 289ZM171.364 283.608L169.508 287L169.508 289L168.5 289L168.5 287.032L166.66 283.608L167.836 283.608L168.196 284.392C168.404 284.845 168.574 285.227 168.708 285.536C168.841 285.84 168.921 286.029 168.948 286.104L168.996 286.224C169.044 286.027 169.318 285.416 169.82 284.392L170.188 283.608L171.364 283.608ZM173.436 286.952L174.956 286.952L174.884 286.712C174.702 286.136 174.553 285.653 174.436 285.264C174.324 284.869 174.254 284.621 174.228 284.52L174.196 284.36C174.148 284.627 173.918 285.413 173.508 286.72L173.436 286.952ZM175.596 289L175.212 287.776L173.172 287.776L172.788 289L171.732 289L173.556 283.608L174.86 283.608L176.684 289L175.596 289ZM178.466 284.44L178.466 286.2L179.138 286.2C179.448 286.2 179.68 286.123 179.834 285.968C179.989 285.808 180.066 285.587 180.066 285.304C180.066 285.027 179.984 284.813 179.818 284.664C179.658 284.515 179.426 284.44 179.122 284.44L178.466 284.44ZM180.242 289L179.018 287.032L178.466 287.032L178.466 289L177.458 289L177.458 283.608L179.122 283.608C179.736 283.608 180.216 283.763 180.562 284.072C180.914 284.381 181.09 284.795 181.09 285.312C181.085 285.696 180.992 286.021 180.81 286.288C180.629 286.549 180.381 286.744 180.066 286.872L181.45 289L180.242 289Z" fill="white"/>
<path d="M9 341.5H329C333.694 341.5 337.5 345.306 337.5 350C337.5 354.694 333.694 358.5 329 358.5H9C4.30558 358.5 0.5 354.694 0.5 350C0.500002 345.306 4.30558 341.5 9 341.5Z" fill="white"/>
<path d="M9 341.5H329C333.694 341.5 337.5 345.306 337.5 350C337.5 354.694 333.694 358.5 329 358.5H9C4.30558 358.5 0.5 354.694 0.5 350C0.500002 345.306 4.30558 341.5 9 341.5Z" stroke="#CCCCCC"/>
<path d="M7.86805e-07 350C3.52265e-07 345.029 4.02944 341 9 341L39 341C43.9706 341 48 345.029 48 350C48 354.971 43.9706 359 39 359L9 359C4.02944 359 1.22135e-06 354.971 7.86805e-07 350Z" fill="#FF1934"/>
<path d="M15.448 346.688H16.264L16.816 348.6L17.456 350.92C17.5893 350.179 17.7547 349.403 17.952 348.592L18.44 346.608H19.464L18.088 352H16.92L16.432 350.296C16.2987 349.843 16.184 349.443 16.088 349.096C15.9973 348.749 15.936 348.517 15.904 348.4L15.864 348.216C15.7893 348.589 15.6027 349.283 15.304 350.296L14.8 352H13.64L12.2 346.608H13.264L13.768 348.6C13.8533 348.957 13.9387 349.328 14.024 349.712C14.1093 350.096 14.1733 350.389 14.216 350.592L14.28 350.904C14.4507 350.232 14.6587 349.464 14.904 348.6L15.448 346.688ZM22.2561 350.256H21.7601C21.5094 350.256 21.3174 350.309 21.1841 350.416C21.0507 350.517 20.9841 350.648 20.9841 350.808C20.9841 351.149 21.1814 351.32 21.5761 351.32C21.7894 351.32 21.9547 351.259 22.0721 351.136C22.1947 351.008 22.2561 350.843 22.2561 350.64V350.256ZM20.2881 349.04V348.152C20.5921 347.965 21.0294 347.872 21.6001 347.872C22.6987 347.872 23.2481 348.384 23.2481 349.408V352H22.2961V351.512C22.1094 351.859 21.7574 352.032 21.2401 352.032C20.8561 352.032 20.5494 351.92 20.3201 351.696C20.0961 351.472 19.9841 351.189 19.9841 350.848C19.9841 350.464 20.1281 350.163 20.4161 349.944C20.7041 349.725 21.1201 349.616 21.6641 349.616H22.2561V349.368C22.2561 349.144 22.1974 348.973 22.0801 348.856C21.9627 348.739 21.7627 348.68 21.4801 348.68C21.0481 348.68 20.6507 348.8 20.2881 349.04ZM27.7828 352H26.6548L25.1988 349.904V352H24.2388V346.44H25.1988V349.848L26.6308 347.944H27.7508L26.2628 349.88L27.7828 352ZM29.5864 348.664V350.728C29.5864 350.899 29.6318 351.029 29.7224 351.12C29.8131 351.205 29.9384 351.248 30.0984 351.248C30.3011 351.248 30.4878 351.192 30.6584 351.08V351.904C30.4718 351.995 30.2318 352.04 29.9384 352.04C29.0638 352.04 28.6264 351.597 28.6264 350.712V348.664H28.0184V347.944H28.6264V346.968H29.5864V347.944H30.5944V348.664H29.5864ZM33.9617 347.944H34.9297V352H33.9617V351.336C33.7484 351.805 33.3324 352.04 32.7137 352.04C32.303 352.04 31.983 351.923 31.7537 351.688C31.5244 351.453 31.4097 351.12 31.4097 350.688V347.944H32.3697V350.464C32.3697 350.72 32.431 350.915 32.5537 351.048C32.6817 351.181 32.855 351.248 33.0737 351.248C33.351 351.248 33.567 351.155 33.7217 350.968C33.8817 350.781 33.9617 350.499 33.9617 350.12V347.944Z" fill="white"/>
<rect x="56" y="348" width="274" height="4" rx="2" fill="#CCCCCC"/>
<mask id="mask0_1124_4113" style="mask-type:alpha" maskUnits="userSpaceOnUse" x="56" y="348" width="274" height="4">
<rect x="56" y="348" width="274" height="4" rx="2" fill="#CCCCCC"/>
</mask>
<g mask="url(#mask0_1124_4113)">
<rect x="56" y="348" width="274" height="4" rx="2" fill="#FF1934"/>
</g>
<defs>
<filter id="filter0_d_1124_4113" x="22.5" y="48" width="293" height="56" filterUnits="userSpaceOnUse" color-interpolation-filters="sRGB">
<feFlood flood-opacity="0" result="BackgroundImageFix"/>
<feColorMatrix in="SourceAlpha" type="matrix" values="0 0 0 0 0 0 0 0 0 0 0 0 0 0 0 0 0 0 127 0" result="hardAlpha"/>
<feOffset dy="2"/>
<feGaussianBlur stdDeviation="2"/>
<feComposite in2="hardAlpha" operator="out"/>
<feColorMatrix type="matrix" values="0 0 0 0 0.168627 0 0 0 0 0.168627 0 0 0 0 0.168627 0 0 0 0.24 0"/>
<feBlend mode="normal" in2="BackgroundImageFix" result="effect1_dropShadow_1124_4113"/>
<feBlend mode="normal" in="SourceGraphic" in2="effect1_dropShadow_1124_4113" result="shape"/>
</filter>
<clipPath id="clip0_1124_4113">
<rect width="24" height="24" fill="white" transform="translate(42.5 66)"/>
</clipPath>
<clipPath id="clip1_1124_4113">
<rect width="64" height="64" fill="white" transform="translate(137 130)"/>
</clipPath>
</defs>
</svg>
