<svg width="285" height="256" viewBox="0 0 285 256" fill="none" xmlns="http://www.w3.org/2000/svg">
<rect width="285" height="256" fill="#D3D3D3"/>
<rect width="285" height="256" rx="16" fill="white"/>
<g filter="url(#filter0_d_1124_4113)">
<path d="M0 16C0 7.16344 7.16344 0 16 0H269C277.837 0 285 7.16344 285 16V48H0V16Z" fill="#FF1934" shape-rendering="crispEdges"/>
<g clip-path="url(#clip0_1124_4113)">
<path d="M37.69 31.57C37.13 31.13 36.52 30.77 35.88 30.5C35.73 30.43 35.67 30.31 35.65 30.21C35.61 30.06 35.65 29.89 35.75 29.77C36.63 28.72 37.15 27.33 37.15 26.06C37.15 23.54 35.1 21.49 32.58 21.49C32.35 21.49 32.11 21.52 31.87 21.56C30.86 20.59 29.5 20 28 20C26.5 20 25.14 20.6 24.13 21.56C23.88 21.52 23.65 21.49 23.42 21.49C20.9 21.49 18.85 23.54 18.85 26.06C18.85 27.33 19.37 28.72 20.25 29.77C20.35 29.89 20.39 30.06 20.35 30.21C20.33 30.3 20.27 30.43 20.12 30.49C19.48 30.76 18.88 31.12 18.31 31.56C17.96 31.83 17.9 32.33 18.17 32.68C18.33 32.88 18.56 32.99 18.8 32.99C18.97 32.99 19.14 32.94 19.29 32.82C19.75 32.47 20.24 32.17 20.75 31.95C21.33 31.7 21.75 31.19 21.9 30.57C22.05 29.93 21.9 29.24 21.47 28.73C20.84 27.97 20.44 26.94 20.44 26.05C20.44 24.56 21.54 23.34 22.98 23.12C22.61 23.86 22.4 24.7 22.4 25.58C22.4 27.15 23.05 28.86 24.13 30.16C24.3 30.37 24.37 30.65 24.31 30.91C24.28 31.05 24.18 31.3 23.89 31.42C22.25 32.13 20.8 33.26 19.71 34.69C19.44 35.04 19.51 35.54 19.86 35.81C20.01 35.92 20.18 35.97 20.34 35.97C20.58 35.97 20.82 35.86 20.98 35.65C21.9 34.44 23.12 33.48 24.52 32.88C25.2 32.59 25.69 32 25.86 31.27C26.04 30.52 25.86 29.72 25.36 29.12C24.52 28.11 24 26.75 24 25.56C24 24.54 24.4 23.62 25.03 22.91C25.03 22.91 25.04 22.9 25.05 22.89C25.78 22.08 26.83 21.56 28 21.56C29.17 21.56 30.22 22.08 30.95 22.88C30.95 22.88 30.96 22.9 30.97 22.91C31.6 23.62 32 24.54 32 25.56C32 26.75 31.48 28.11 30.64 29.12C29.86 30.05 28.93 30.56 28 30.56C27.56 30.56 27.2 30.92 27.2 31.36C27.2 31.8 27.56 32.16 28 32.16C28.77 32.16 29.53 31.94 30.23 31.53C30.45 32.13 30.88 32.62 31.48 32.87C32.87 33.47 34.09 34.43 35.02 35.64C35.18 35.85 35.42 35.96 35.66 35.96C35.83 35.96 36 35.91 36.14 35.8C36.49 35.53 36.56 35.03 36.29 34.68C35.2 33.25 33.76 32.12 32.12 31.41C31.83 31.29 31.73 31.03 31.7 30.9C31.64 30.64 31.7 30.36 31.88 30.15C32.96 28.85 33.61 27.14 33.61 25.57C33.61 24.68 33.4 23.85 33.03 23.11C34.46 23.32 35.57 24.55 35.57 26.04C35.57 26.94 35.18 27.96 34.54 28.72C34.12 29.23 33.96 29.91 34.11 30.56C34.26 31.19 34.68 31.69 35.27 31.94C35.78 32.16 36.27 32.45 36.73 32.81C36.88 32.92 37.05 32.98 37.22 32.98C37.46 32.98 37.7 32.87 37.85 32.67C38.12 32.32 38.06 31.82 37.71 31.55L37.69 31.57Z" fill="white"/>
</g>
<path d="M51.668 28.332H53.936L53.838 27.996C53.5673 27.0813 53.3433 26.302 53.166 25.658C52.998 25.014 52.8953 24.5987 52.858 24.412L52.802 24.132C52.7273 24.6453 52.382 25.9333 51.766 27.996L51.668 28.332ZM55.028 32L54.454 30.068H51.15L50.576 32H48.322L51.472 22.564H54.188L57.338 32H55.028ZM60.55 24.902V26.106C60.7273 25.714 60.998 25.406 61.362 25.182C61.7353 24.9487 62.1787 24.832 62.692 24.832C63.42 24.832 63.9893 25.0513 64.4 25.49C64.8107 25.9193 65.016 26.554 65.016 27.394V32H62.972V27.772C62.972 27.352 62.874 27.0347 62.678 26.82C62.482 26.596 62.2067 26.484 61.852 26.484C61.4787 26.484 61.166 26.6333 60.914 26.932C60.6713 27.2213 60.55 27.66 60.55 28.248V32H58.506V24.902H60.55ZM69.8891 30.376C70.3558 30.376 70.7338 30.194 71.0231 29.83C71.3124 29.466 71.4571 28.9807 71.4571 28.374C71.4571 27.786 71.2984 27.3287 70.9811 27.002C70.6731 26.6753 70.3044 26.512 69.8751 26.512C69.4458 26.512 69.0818 26.6847 68.7831 27.03C68.4938 27.3753 68.3491 27.856 68.3491 28.472C68.3491 29.0413 68.4984 29.5033 68.7971 29.858C69.0958 30.2033 69.4598 30.376 69.8891 30.376ZM71.4571 22.102H73.5011V32H71.4571V30.894C70.9811 31.6873 70.2718 32.084 69.3291 32.084C68.4051 32.084 67.6631 31.7247 67.1031 31.006C66.5524 30.2873 66.2771 29.4287 66.2771 28.43C66.2771 27.31 66.5664 26.428 67.1451 25.784C67.7238 25.14 68.4564 24.818 69.3431 24.818C70.2671 24.818 70.9718 25.21 71.4571 25.994V22.102ZM78.6997 29.088H78.0417C77.6964 29.088 77.4304 29.1627 77.2437 29.312C77.057 29.4613 76.9637 29.6527 76.9637 29.886C76.9637 30.362 77.239 30.6 77.7897 30.6C78.079 30.6 78.303 30.5113 78.4617 30.334C78.6204 30.1567 78.6997 29.914 78.6997 29.606V29.088ZM75.3817 27.086V25.252C75.9417 24.9347 76.749 24.776 77.8037 24.776C78.8117 24.776 79.563 24.9953 80.0577 25.434C80.5524 25.8633 80.7997 26.5353 80.7997 27.45V32H78.7977V31.132C78.499 31.7387 77.911 32.042 77.0337 32.042C76.343 32.042 75.8017 31.846 75.4097 31.454C75.027 31.062 74.8357 30.572 74.8357 29.984C74.8357 29.3027 75.083 28.7753 75.5777 28.402C76.0817 28.0193 76.8237 27.828 77.8037 27.828H78.6997V27.338C78.6997 26.7407 78.303 26.442 77.5097 26.442C76.7444 26.442 76.035 26.6567 75.3817 27.086ZM89.5165 30.376C89.9458 30.376 90.3098 30.2033 90.6085 29.858C90.9071 29.5033 91.0565 29.0413 91.0565 28.472C91.0565 27.856 90.9071 27.3753 90.6085 27.03C90.3191 26.6847 89.9598 26.512 89.5305 26.512C89.1011 26.512 88.7278 26.6753 88.4105 27.002C88.1025 27.3287 87.9485 27.786 87.9485 28.374C87.9485 28.9807 88.0931 29.466 88.3825 29.83C88.6718 30.194 89.0498 30.376 89.5165 30.376ZM87.9485 22.102V25.994C88.4338 25.21 89.1385 24.818 90.0625 24.818C90.9491 24.818 91.6818 25.14 92.2605 25.784C92.8391 26.428 93.1285 27.31 93.1285 28.43C93.1285 29.4287 92.8485 30.2873 92.2885 31.006C91.7378 31.7247 91.0005 32.084 90.0765 32.084C89.1338 32.084 88.4245 31.6873 87.9485 30.894V32H85.9045V22.102H87.9485ZM98.565 27.8V27.632C98.4997 26.8013 98.1357 26.386 97.473 26.386C97.1464 26.386 96.857 26.5073 96.605 26.75C96.353 26.9833 96.185 27.3333 96.101 27.8H98.565ZM100.035 29.886V31.594C99.5497 31.9113 98.8077 32.07 97.809 32.07C96.6424 32.07 95.7324 31.734 95.079 31.062C94.435 30.3807 94.113 29.508 94.113 28.444C94.113 27.3147 94.4257 26.4327 95.051 25.798C95.6857 25.154 96.465 24.832 97.389 24.832C98.341 24.832 99.0924 25.112 99.643 25.672C100.194 26.2227 100.469 27.0487 100.469 28.15C100.469 28.3647 100.432 28.7333 100.357 29.256H96.185C96.325 29.648 96.5677 29.9513 96.913 30.166C97.2584 30.3807 97.6737 30.488 98.159 30.488C98.8777 30.488 99.503 30.2873 100.035 29.886ZM103.958 24.902V26.218C104.089 25.8073 104.303 25.4807 104.602 25.238C104.91 24.986 105.265 24.86 105.666 24.86C105.89 24.86 106.067 24.8787 106.198 24.916V26.848C105.974 26.7453 105.717 26.694 105.428 26.694C104.989 26.694 104.635 26.8573 104.364 27.184C104.093 27.5013 103.958 27.926 103.958 28.458V32H101.914L101.928 24.902H103.958ZM110.624 29.088H109.966C109.62 29.088 109.354 29.1627 109.168 29.312C108.981 29.4613 108.888 29.6527 108.888 29.886C108.888 30.362 109.163 30.6 109.714 30.6C110.003 30.6 110.227 30.5113 110.386 30.334C110.544 30.1567 110.624 29.914 110.624 29.606V29.088ZM107.306 27.086V25.252C107.866 24.9347 108.673 24.776 109.728 24.776C110.736 24.776 111.487 24.9953 111.982 25.434C112.476 25.8633 112.724 26.5353 112.724 27.45V32H110.722V31.132C110.423 31.7387 109.835 32.042 108.958 32.042C108.267 32.042 107.726 31.846 107.334 31.454C106.951 31.062 106.76 30.572 106.76 29.984C106.76 29.3027 107.007 28.7753 107.502 28.402C108.006 28.0193 108.748 27.828 109.728 27.828H110.624V27.338C110.624 26.7407 110.227 26.442 109.434 26.442C108.668 26.442 107.959 26.6567 107.306 27.086ZM117.59 30.376C118.057 30.376 118.435 30.194 118.724 29.83C119.014 29.466 119.158 28.9807 119.158 28.374C119.158 27.786 119 27.3287 118.682 27.002C118.374 26.6753 118.006 26.512 117.576 26.512C117.147 26.512 116.783 26.6847 116.484 27.03C116.195 27.3753 116.05 27.856 116.05 28.472C116.05 29.0413 116.2 29.5033 116.498 29.858C116.797 30.2033 117.161 30.376 117.59 30.376ZM119.158 22.102H121.202V32H119.158V30.894C118.682 31.6873 117.973 32.084 117.03 32.084C116.106 32.084 115.364 31.7247 114.804 31.006C114.254 30.2873 113.978 29.4287 113.978 28.43C113.978 27.31 114.268 26.428 114.846 25.784C115.425 25.14 116.158 24.818 117.044 24.818C117.968 24.818 118.673 25.21 119.158 25.994V22.102ZM126.401 29.088H125.743C125.398 29.088 125.132 29.1627 124.945 29.312C124.758 29.4613 124.665 29.6527 124.665 29.886C124.665 30.362 124.94 30.6 125.491 30.6C125.78 30.6 126.004 30.5113 126.163 30.334C126.322 30.1567 126.401 29.914 126.401 29.606V29.088ZM123.083 27.086V25.252C123.643 24.9347 124.45 24.776 125.505 24.776C126.513 24.776 127.264 24.9953 127.759 25.434C128.254 25.8633 128.501 26.5353 128.501 27.45V32H126.499V31.132C126.2 31.7387 125.612 32.042 124.735 32.042C124.044 32.042 123.503 31.846 123.111 31.454C122.728 31.062 122.537 30.572 122.537 29.984C122.537 29.3027 122.784 28.7753 123.279 28.402C123.783 28.0193 124.525 27.828 125.505 27.828H126.401V27.338C126.401 26.7407 126.004 26.442 125.211 26.442C124.446 26.442 123.736 26.6567 123.083 27.086ZM136.868 30.376C137.334 30.376 137.712 30.194 138.002 29.83C138.291 29.466 138.436 28.9807 138.436 28.374C138.436 27.786 138.277 27.3287 137.96 27.002C137.652 26.6753 137.283 26.512 136.854 26.512C136.424 26.512 136.06 26.6847 135.762 27.03C135.472 27.3753 135.328 27.856 135.328 28.472C135.328 29.0413 135.477 29.5033 135.776 29.858C136.074 30.2033 136.438 30.376 136.868 30.376ZM138.436 22.102H140.48V32H138.436V30.894C137.96 31.6873 137.25 32.084 136.308 32.084C135.384 32.084 134.642 31.7247 134.082 31.006C133.531 30.2873 133.256 29.4287 133.256 28.43C133.256 27.31 133.545 26.428 134.124 25.784C134.702 25.14 135.435 24.818 136.322 24.818C137.246 24.818 137.95 25.21 138.436 25.994V22.102ZM142.234 32V24.902H144.278V32H142.234ZM142.416 23.684C142.183 23.4507 142.066 23.1707 142.066 22.844C142.066 22.5173 142.183 22.2373 142.416 22.004C142.65 21.7707 142.93 21.654 143.256 21.654C143.583 21.654 143.863 21.7707 144.096 22.004C144.33 22.2373 144.446 22.5173 144.446 22.844C144.446 23.1707 144.33 23.4507 144.096 23.684C143.863 23.9173 143.583 24.034 143.256 24.034C142.93 24.034 142.65 23.9173 142.416 23.684ZM151.759 27.24H152.473C153.612 27.24 154.181 26.722 154.181 25.686C154.181 24.7527 153.654 24.286 152.599 24.286H151.759V27.24ZM149.603 22.564H152.851C153.897 22.564 154.741 22.858 155.385 23.446C156.039 24.034 156.365 24.7807 156.365 25.686C156.365 26.722 156.025 27.5247 155.343 28.094C154.671 28.6633 153.841 28.948 152.851 28.948H151.759V32H149.603V22.564ZM160.936 29.088H160.278C159.933 29.088 159.667 29.1627 159.48 29.312C159.293 29.4613 159.2 29.6527 159.2 29.886C159.2 30.362 159.475 30.6 160.026 30.6C160.315 30.6 160.539 30.5113 160.698 30.334C160.857 30.1567 160.936 29.914 160.936 29.606V29.088ZM157.618 27.086V25.252C158.178 24.9347 158.985 24.776 160.04 24.776C161.048 24.776 161.799 24.9953 162.294 25.434C162.789 25.8633 163.036 26.5353 163.036 27.45V32H161.034V31.132C160.735 31.7387 160.147 32.042 159.27 32.042C158.579 32.042 158.038 31.846 157.646 31.454C157.263 31.062 157.072 30.572 157.072 29.984C157.072 29.3027 157.319 28.7753 157.814 28.402C158.318 28.0193 159.06 27.828 160.04 27.828H160.936V27.338C160.936 26.7407 160.539 26.442 159.746 26.442C158.981 26.442 158.271 26.6567 157.618 27.086ZM168.281 30.376C168.729 30.376 169.093 30.208 169.373 29.872C169.653 29.5267 169.793 29.06 169.793 28.472C169.793 27.828 169.648 27.3427 169.359 27.016C169.079 26.68 168.719 26.512 168.281 26.512C167.851 26.512 167.478 26.6753 167.161 27.002C166.843 27.3287 166.685 27.786 166.685 28.374C166.685 28.9807 166.834 29.466 167.133 29.83C167.431 30.194 167.814 30.376 168.281 30.376ZM166.685 24.902V25.994C167.179 25.21 167.893 24.818 168.827 24.818C169.741 24.818 170.474 25.1447 171.025 25.798C171.585 26.442 171.865 27.3193 171.865 28.43C171.865 29.4847 171.594 30.3573 171.053 31.048C170.521 31.7387 169.779 32.084 168.827 32.084C167.865 32.084 167.151 31.706 166.685 30.95V34.618H164.641V24.902H166.685ZM176.713 29.088H176.055C175.71 29.088 175.444 29.1627 175.257 29.312C175.071 29.4613 174.977 29.6527 174.977 29.886C174.977 30.362 175.253 30.6 175.803 30.6C176.093 30.6 176.317 30.5113 176.475 30.334C176.634 30.1567 176.713 29.914 176.713 29.606V29.088ZM173.395 27.086V25.252C173.955 24.9347 174.763 24.776 175.817 24.776C176.825 24.776 177.577 24.9953 178.071 25.434C178.566 25.8633 178.813 26.5353 178.813 27.45V32H176.811V31.132C176.513 31.7387 175.925 32.042 175.047 32.042C174.357 32.042 173.815 31.846 173.423 31.454C173.041 31.062 172.849 30.572 172.849 29.984C172.849 29.3027 173.097 28.7753 173.591 28.402C174.095 28.0193 174.837 27.828 175.817 27.828H176.713V27.338C176.713 26.7407 176.317 26.442 175.523 26.442C174.758 26.442 174.049 26.6567 173.395 27.086ZM182.462 24.902V26.106C182.639 25.714 182.91 25.406 183.274 25.182C183.647 24.9487 184.091 24.832 184.604 24.832C185.332 24.832 185.901 25.0513 186.312 25.49C186.723 25.9193 186.928 26.554 186.928 27.394V32H184.884V27.772C184.884 27.352 184.786 27.0347 184.59 26.82C184.394 26.596 184.119 26.484 183.764 26.484C183.391 26.484 183.078 26.6333 182.826 26.932C182.583 27.2213 182.462 27.66 182.462 28.248V32H180.418V24.902H182.462ZM194.265 27.24H194.979C196.118 27.24 196.687 26.722 196.687 25.686C196.687 24.7527 196.16 24.286 195.105 24.286H194.265V27.24ZM192.109 22.564H195.357C196.403 22.564 197.247 22.858 197.891 23.446C198.545 24.034 198.871 24.7807 198.871 25.686C198.871 26.722 198.531 27.5247 197.849 28.094C197.177 28.6633 196.347 28.948 195.357 28.948H194.265V32H192.109V22.564ZM204.03 27.8V27.632C203.965 26.8013 203.601 26.386 202.938 26.386C202.611 26.386 202.322 26.5073 202.07 26.75C201.818 26.9833 201.65 27.3333 201.566 27.8H204.03ZM205.5 29.886V31.594C205.015 31.9113 204.273 32.07 203.274 32.07C202.107 32.07 201.197 31.734 200.544 31.062C199.9 30.3807 199.578 29.508 199.578 28.444C199.578 27.3147 199.891 26.4327 200.516 25.798C201.151 25.154 201.93 24.832 202.854 24.832C203.806 24.832 204.557 25.112 205.108 25.672C205.659 26.2227 205.934 27.0487 205.934 28.15C205.934 28.3647 205.897 28.7333 205.822 29.256H201.65C201.79 29.648 202.033 29.9513 202.378 30.166C202.723 30.3807 203.139 30.488 203.624 30.488C204.343 30.488 204.968 30.2873 205.5 29.886ZM214.071 32H211.705L209.437 28.514V32H207.393V22.34H209.437V28.08L211.677 24.902H214.029L211.565 28.304L214.071 32ZM219.165 27.8V27.632C219.099 26.8013 218.735 26.386 218.073 26.386C217.746 26.386 217.457 26.5073 217.205 26.75C216.953 26.9833 216.785 27.3333 216.701 27.8H219.165ZM220.635 29.886V31.594C220.149 31.9113 219.407 32.07 218.409 32.07C217.242 32.07 216.332 31.734 215.679 31.062C215.035 30.3807 214.713 29.508 214.713 28.444C214.713 27.3147 215.025 26.4327 215.651 25.798C216.285 25.154 217.065 24.832 217.989 24.832C218.941 24.832 219.692 25.112 220.243 25.672C220.793 26.2227 221.069 27.0487 221.069 28.15C221.069 28.3647 221.031 28.7333 220.957 29.256H216.785C216.925 29.648 217.167 29.9513 217.513 30.166C217.858 30.3807 218.273 30.488 218.759 30.488C219.477 30.488 220.103 30.2873 220.635 29.886ZM224.558 24.902V26.218C224.688 25.8073 224.903 25.4807 225.202 25.238C225.51 24.986 225.864 24.86 226.266 24.86C226.49 24.86 226.667 24.8787 226.798 24.916V26.848C226.574 26.7453 226.317 26.694 226.028 26.694C225.589 26.694 225.234 26.8573 224.964 27.184C224.693 27.5013 224.558 27.926 224.558 28.458V32H222.514L222.528 24.902H224.558ZM226.309 34.548V32.994C226.617 33.134 226.883 33.204 227.107 33.204C227.592 33.204 227.835 32.8913 227.835 32.266V24.902H229.865V32.294C229.865 33.0407 229.655 33.638 229.235 34.086C228.815 34.5433 228.208 34.772 227.415 34.772C227.088 34.772 226.72 34.6973 226.309 34.548ZM228.003 23.684C227.77 23.4507 227.653 23.1707 227.653 22.844C227.653 22.5173 227.77 22.2373 228.003 22.004C228.236 21.7707 228.516 21.654 228.843 21.654C229.17 21.654 229.45 21.7707 229.683 22.004C229.916 22.2373 230.033 22.5173 230.033 22.844C230.033 23.1707 229.916 23.4507 229.683 23.684C229.45 23.9173 229.17 24.034 228.843 24.034C228.516 24.034 228.236 23.9173 228.003 23.684ZM235.065 29.088H234.407C234.062 29.088 233.796 29.1627 233.609 29.312C233.422 29.4613 233.329 29.6527 233.329 29.886C233.329 30.362 233.604 30.6 234.155 30.6C234.444 30.6 234.668 30.5113 234.827 30.334C234.986 30.1567 235.065 29.914 235.065 29.606V29.088ZM231.747 27.086V25.252C232.307 24.9347 233.114 24.776 234.169 24.776C235.177 24.776 235.928 24.9953 236.423 25.434C236.918 25.8633 237.165 26.5353 237.165 27.45V32H235.163V31.132C234.864 31.7387 234.276 32.042 233.399 32.042C232.708 32.042 232.167 31.846 231.775 31.454C231.392 31.062 231.201 30.572 231.201 29.984C231.201 29.3027 231.448 28.7753 231.943 28.402C232.447 28.0193 233.189 27.828 234.169 27.828H235.065V27.338C235.065 26.7407 234.668 26.442 233.875 26.442C233.11 26.442 232.4 26.6567 231.747 27.086ZM242.284 29.088H241.626C241.28 29.088 241.014 29.1627 240.828 29.312C240.641 29.4613 240.548 29.6527 240.548 29.886C240.548 30.362 240.823 30.6 241.374 30.6C241.663 30.6 241.887 30.5113 242.046 30.334C242.204 30.1567 242.284 29.914 242.284 29.606V29.088ZM238.966 27.086V25.252C239.526 24.9347 240.333 24.776 241.388 24.776C242.396 24.776 243.147 24.9953 243.642 25.434C244.136 25.8633 244.384 26.5353 244.384 27.45V32H242.382V31.132C242.083 31.7387 241.495 32.042 240.618 32.042C239.927 32.042 239.386 31.846 238.994 31.454C238.611 31.062 238.42 30.572 238.42 29.984C238.42 29.3027 238.667 28.7753 239.162 28.402C239.666 28.0193 240.408 27.828 241.388 27.828H242.284V27.338C242.284 26.7407 241.887 26.442 241.094 26.442C240.328 26.442 239.619 26.6567 238.966 27.086ZM248.032 24.902V26.106C248.21 25.714 248.48 25.406 248.844 25.182C249.218 24.9487 249.661 24.832 250.174 24.832C250.902 24.832 251.472 25.0513 251.882 25.49C252.293 25.9193 252.498 26.554 252.498 27.394V32H250.454V27.772C250.454 27.352 250.356 27.0347 250.16 26.82C249.964 26.596 249.689 26.484 249.334 26.484C248.961 26.484 248.648 26.6333 248.396 26.932C248.154 27.2213 248.032 27.66 248.032 28.248V32H245.988V24.902H248.032Z" fill="white"/>
</g>
<g clip-path="url(#clip1_1124_4113)">
<path d="M134.742 88.4738L123.133 118.089C122.735 119.105 123.738 120.108 124.754 119.71L154.369 108.101L134.742 88.4731L134.742 88.4738Z" fill="#FF6678"/>
<path d="M146.477 104.43C148.682 105.148 150.687 105.674 152.319 106.05L149.261 102.992C148.572 102.793 147.853 102.574 147.114 102.333C142.806 100.927 136.993 98.5017 132.322 94.6489L131.483 96.7891C133.242 98.1792 135.234 99.4688 137.44 100.643C140.152 102.086 143.193 103.361 146.477 104.429V104.43Z" fill="#F1F1F1"/>
<path d="M138.987 111.92C140.115 112.287 141.19 112.604 142.19 112.876L145.721 111.491C144.061 111.12 141.945 110.579 139.624 109.822C136.358 108.756 132.228 107.104 128.386 104.689L127.57 106.769C128.333 107.239 129.127 107.694 129.95 108.132C132.663 109.576 135.703 110.85 138.987 111.919V111.92Z" fill="#F1F1F1"/>
<path d="M131.453 117.085C129.386 116.383 127.024 115.457 124.632 114.267L123.827 116.32C125.261 117.026 126.776 117.686 128.362 118.296L131.453 117.084V117.085Z" fill="#F1F1F1"/>
<path d="M154.37 108.101C155.653 106.817 152.3 101.383 146.881 95.9633C141.461 90.5434 136.026 87.1904 134.743 88.4741C133.459 89.7577 136.812 95.192 142.232 100.612C147.652 106.032 153.086 109.385 154.37 108.101Z" fill="#8C0010"/>
<path d="M154.337 85.1228C155.457 84.1698 156.739 83.2565 158.179 83.2437C159.619 83.2309 161.138 84.5321 160.889 86.0258C160.686 87.2533 159.495 87.9714 158.433 88.5199C156.49 89.5221 154.547 90.5244 152.604 91.5266C151.621 92.0335 148.344 94.4181 147.366 93.8492C147.72 92.2165 149.382 90.3753 150.407 89.1196C151.593 87.6649 152.915 86.3209 154.337 85.1228Z" fill="#8C0010"/>
<path d="M160.271 95.7795C160.923 95.7596 161.744 95.912 161.913 96.5756C162.036 97.0614 161.716 97.5472 161.361 97.8838C160.276 98.9136 158.806 99.2579 157.386 99.3417C156.645 99.3852 153.626 99.6585 153.226 98.9936C151.955 96.8816 159.402 95.8057 160.271 95.7795Z" fill="#8C0010"/>
<path d="M143.596 84.6461C143.845 84.3056 144.124 83.9728 144.486 83.7751C144.849 83.5773 145.316 83.5408 145.654 83.7821C146.207 84.177 146.16 85.0525 145.94 85.7168C145.616 86.6935 145.057 87.5543 144.394 88.3095C144.012 88.7447 142.753 90.2935 142.144 90.1284C140.529 89.6893 143.113 85.3047 143.596 84.6461Z" fill="#8C0010"/>
<path d="M146.881 120.674C141.46 119.442 136.026 118.68 134.742 118.971C134.578 119.008 134.49 119.061 134.472 119.128L123.133 125.702C122.735 125.933 123.738 126.161 124.754 126.071L153.681 123.493C153.973 123.49 154.205 123.469 154.37 123.432C155.654 123.14 152.3 121.905 146.881 120.674Z" fill="#CCCCCC"/>
<path d="M152.603 119.666C154.547 119.438 156.49 119.21 158.433 118.982C159.496 118.857 160.685 118.694 160.889 118.415C161.137 118.076 159.618 117.78 158.179 117.783C156.739 117.786 155.457 117.993 154.337 118.21C152.915 118.482 151.593 118.788 150.406 119.118C149.382 119.403 147.72 119.822 147.366 120.193C148.344 120.322 151.62 119.78 152.603 119.665V119.666Z" fill="#CCCCCC"/>
<path d="M161.913 120.813C161.744 120.662 160.923 120.628 160.271 120.632C159.402 120.638 151.956 120.882 153.226 121.362C153.626 121.513 156.646 121.451 157.387 121.442C158.806 121.423 160.277 121.345 161.362 121.11C161.716 121.033 162.037 120.923 161.913 120.813V120.813Z" fill="#CCCCCC"/>
<path d="M142.144 119.348C142.753 119.385 144.012 119.033 144.394 118.934C145.057 118.763 145.615 118.567 145.94 118.345C146.16 118.194 146.207 117.995 145.654 117.905C145.316 117.85 144.849 117.858 144.486 117.904C144.124 117.949 143.845 118.024 143.596 118.102C143.113 118.251 140.529 119.248 142.144 119.348Z" fill="#CCCCCC"/>
</g>
<path d="M98.3544 148.53V149.55C97.9077 149.27 97.401 149.13 96.8344 149.13C96.4677 149.13 96.1777 149.213 95.9644 149.38C95.7577 149.54 95.6544 149.753 95.6544 150.02C95.6544 150.287 95.7577 150.5 95.9644 150.66C96.171 150.82 96.4877 150.993 96.9144 151.18C97.1944 151.3 97.411 151.403 97.5644 151.49C97.7244 151.577 97.9044 151.7 98.1044 151.86C98.311 152.013 98.461 152.2 98.5544 152.42C98.6544 152.633 98.7044 152.88 98.7044 153.16C98.7044 153.753 98.4944 154.22 98.0744 154.56C97.6544 154.9 97.111 155.07 96.4444 155.07C95.7044 155.07 95.091 154.927 94.6044 154.64V153.57C95.131 153.963 95.741 154.16 96.4344 154.16C96.801 154.16 97.091 154.077 97.3044 153.91C97.5177 153.737 97.6244 153.5 97.6244 153.2C97.6244 153.02 97.561 152.857 97.4344 152.71C97.3077 152.557 97.171 152.443 97.0244 152.37C96.8777 152.29 96.6577 152.183 96.3644 152.05C96.191 151.97 96.0677 151.913 95.9944 151.88C95.9277 151.847 95.8144 151.787 95.6544 151.7C95.4944 151.613 95.3744 151.54 95.2944 151.48C95.221 151.42 95.1277 151.337 95.0144 151.23C94.901 151.123 94.8177 151.017 94.7644 150.91C94.7177 150.803 94.671 150.68 94.6244 150.54C94.5844 150.393 94.5644 150.237 94.5644 150.07C94.5644 149.497 94.771 149.043 95.1844 148.71C95.6044 148.377 96.1444 148.21 96.8044 148.21C97.411 148.21 97.9277 148.317 98.3544 148.53ZM103.039 152.1V151.92C103.026 151.54 102.923 151.24 102.729 151.02C102.536 150.793 102.259 150.68 101.899 150.68C101.566 150.68 101.279 150.803 101.039 151.05C100.799 151.29 100.649 151.64 100.589 152.1H103.039ZM103.669 153.85V154.73C103.296 154.943 102.803 155.05 102.189 155.05C101.403 155.05 100.776 154.813 100.309 154.34C99.8426 153.867 99.6092 153.247 99.6092 152.48C99.6092 151.667 99.8226 151.03 100.249 150.57C100.676 150.103 101.219 149.87 101.879 149.87C102.526 149.87 103.039 150.073 103.419 150.48C103.799 150.88 103.989 151.46 103.989 152.22C103.989 152.427 103.969 152.643 103.929 152.87H100.599C100.666 153.31 100.853 153.647 101.159 153.88C101.466 154.113 101.853 154.23 102.319 154.23C102.859 154.23 103.309 154.103 103.669 153.85ZM105.183 155V147.93H106.173V155H105.183ZM110.264 152.74H109.504C109.131 152.74 108.848 152.813 108.654 152.96C108.468 153.107 108.374 153.293 108.374 153.52C108.374 153.753 108.448 153.937 108.594 154.07C108.741 154.203 108.954 154.27 109.234 154.27C109.554 154.27 109.804 154.183 109.984 154.01C110.171 153.83 110.264 153.597 110.264 153.31V152.74ZM107.714 151.14V150.19C108.108 149.963 108.628 149.85 109.274 149.85C110.601 149.85 111.264 150.493 111.264 151.78V155H110.294V154.4C110.034 154.827 109.578 155.04 108.924 155.04C108.444 155.04 108.058 154.903 107.764 154.63C107.478 154.35 107.334 153.997 107.334 153.57C107.334 153.083 107.518 152.707 107.884 152.44C108.251 152.167 108.764 152.03 109.424 152.03H110.264V151.74C110.264 151.393 110.181 151.133 110.014 150.96C109.848 150.78 109.571 150.69 109.184 150.69C108.644 150.69 108.154 150.84 107.714 151.14ZM113.565 149.93V150.74C113.851 150.153 114.328 149.86 114.995 149.86C115.755 149.86 116.241 150.187 116.455 150.84C116.595 150.527 116.798 150.287 117.065 150.12C117.331 149.947 117.631 149.86 117.965 149.86C118.485 149.86 118.878 150.013 119.145 150.32C119.418 150.627 119.555 151.05 119.555 151.59V155H118.575V151.8C118.575 151.073 118.281 150.71 117.695 150.71C117.401 150.71 117.138 150.84 116.905 151.1C116.678 151.36 116.565 151.743 116.565 152.25V155H115.585V151.8C115.585 151.073 115.288 150.71 114.695 150.71C114.408 150.71 114.148 150.84 113.915 151.1C113.681 151.36 113.565 151.743 113.565 152.25V155H112.585V149.93H113.565ZM123.555 152.74H122.795C122.422 152.74 122.139 152.813 121.945 152.96C121.759 153.107 121.665 153.293 121.665 153.52C121.665 153.753 121.739 153.937 121.885 154.07C122.032 154.203 122.245 154.27 122.525 154.27C122.845 154.27 123.095 154.183 123.275 154.01C123.462 153.83 123.555 153.597 123.555 153.31V152.74ZM121.005 151.14V150.19C121.399 149.963 121.919 149.85 122.565 149.85C123.892 149.85 124.555 150.493 124.555 151.78V155H123.585V154.4C123.325 154.827 122.869 155.04 122.215 155.04C121.735 155.04 121.349 154.903 121.055 154.63C120.769 154.35 120.625 153.997 120.625 153.57C120.625 153.083 120.809 152.707 121.175 152.44C121.542 152.167 122.055 152.03 122.715 152.03H123.555V151.74C123.555 151.393 123.472 151.133 123.305 150.96C123.139 150.78 122.862 150.69 122.475 150.69C121.935 150.69 121.445 150.84 121.005 151.14ZM127.146 150.69V153.48C127.146 153.967 127.379 154.21 127.846 154.21C128.119 154.21 128.349 154.137 128.536 153.99V154.87C128.316 154.99 128.046 155.05 127.726 155.05C126.679 155.05 126.156 154.52 126.156 153.46V150.69H125.366V149.93H126.156V148.69H127.146V149.93H128.476V150.69H127.146ZM133.607 152.49H135.767L135.657 152.15C135.403 151.363 135.197 150.713 135.037 150.2C134.877 149.68 134.78 149.357 134.747 149.23L134.697 149.04C134.623 149.353 134.297 150.39 133.717 152.15L133.607 152.49ZM136.577 155L136.047 153.35H133.327L132.787 155H131.697L134.027 148.26H135.377L137.677 155H136.577ZM139.658 149.93V150.8C139.958 150.173 140.485 149.86 141.238 149.86C141.738 149.86 142.135 150.013 142.428 150.32C142.722 150.627 142.868 151.043 142.868 151.57V155H141.888V151.8C141.888 151.447 141.798 151.177 141.618 150.99C141.445 150.803 141.212 150.71 140.918 150.71C140.572 150.71 140.275 150.847 140.028 151.12C139.782 151.387 139.658 151.763 139.658 152.25V155H138.678V149.93H139.658ZM146.236 154.21C146.623 154.21 146.949 154.063 147.216 153.77C147.483 153.477 147.616 153.03 147.616 152.43C147.616 151.85 147.476 151.42 147.196 151.14C146.923 150.86 146.613 150.72 146.266 150.72C145.873 150.72 145.549 150.877 145.296 151.19C145.043 151.497 144.916 151.937 144.916 152.51C144.916 153.017 145.039 153.427 145.286 153.74C145.539 154.053 145.856 154.21 146.236 154.21ZM147.616 147.93H148.606V155H147.616V154.23C147.263 154.79 146.746 155.07 146.066 155.07C145.399 155.07 144.873 154.82 144.486 154.32C144.099 153.813 143.906 153.203 143.906 152.49C143.906 151.697 144.109 151.06 144.516 150.58C144.923 150.1 145.446 149.86 146.086 149.86C146.746 149.86 147.256 150.14 147.616 150.7V147.93ZM152.657 152.74H151.897C151.524 152.74 151.24 152.813 151.047 152.96C150.86 153.107 150.767 153.293 150.767 153.52C150.767 153.753 150.84 153.937 150.987 154.07C151.134 154.203 151.347 154.27 151.627 154.27C151.947 154.27 152.197 154.183 152.377 154.01C152.564 153.83 152.657 153.597 152.657 153.31V152.74ZM150.107 151.14V150.19C150.5 149.963 151.02 149.85 151.667 149.85C152.994 149.85 153.657 150.493 153.657 151.78V155H152.687V154.4C152.427 154.827 151.97 155.04 151.317 155.04C150.837 155.04 150.45 154.903 150.157 154.63C149.87 154.35 149.727 153.997 149.727 153.57C149.727 153.083 149.91 152.707 150.277 152.44C150.644 152.167 151.157 152.03 151.817 152.03H152.657V151.74C152.657 151.393 152.574 151.133 152.407 150.96C152.24 150.78 151.964 150.69 151.577 150.69C151.037 150.69 150.547 150.84 150.107 151.14ZM157.438 155V148H158.418V155H157.438ZM159.588 152.35L161.578 155H160.408L158.458 152.35L160.368 149.93H161.518L159.588 152.35ZM165.588 152.1V151.92C165.575 151.54 165.471 151.24 165.278 151.02C165.085 150.793 164.808 150.68 164.448 150.68C164.115 150.68 163.828 150.803 163.588 151.05C163.348 151.29 163.198 151.64 163.138 152.1H165.588ZM166.218 153.85V154.73C165.845 154.943 165.351 155.05 164.738 155.05C163.951 155.05 163.325 154.813 162.858 154.34C162.391 153.867 162.158 153.247 162.158 152.48C162.158 151.667 162.371 151.03 162.798 150.57C163.225 150.103 163.768 149.87 164.428 149.87C165.075 149.87 165.588 150.073 165.968 150.48C166.348 150.88 166.538 151.46 166.538 152.22C166.538 152.427 166.518 152.643 166.478 152.87H163.148C163.215 153.31 163.401 153.647 163.708 153.88C164.015 154.113 164.401 154.23 164.868 154.23C165.408 154.23 165.858 154.103 166.218 153.85ZM168.672 149.93V150.74C168.959 150.153 169.435 149.86 170.102 149.86C170.862 149.86 171.349 150.187 171.562 150.84C171.702 150.527 171.905 150.287 172.172 150.12C172.439 149.947 172.739 149.86 173.072 149.86C173.592 149.86 173.985 150.013 174.252 150.32C174.525 150.627 174.662 151.05 174.662 151.59V155H173.682V151.8C173.682 151.073 173.389 150.71 172.802 150.71C172.509 150.71 172.245 150.84 172.012 151.1C171.785 151.36 171.672 151.743 171.672 152.25V155H170.692V151.8C170.692 151.073 170.395 150.71 169.802 150.71C169.515 150.71 169.255 150.84 169.022 151.1C168.789 151.36 168.672 151.743 168.672 152.25V155H167.692V149.93H168.672ZM178.383 154.21C178.756 154.21 179.069 154.053 179.323 153.74C179.576 153.42 179.703 153.01 179.703 152.51C179.703 151.937 179.576 151.497 179.323 151.19C179.069 150.877 178.746 150.72 178.353 150.72C178.006 150.72 177.693 150.86 177.413 151.14C177.139 151.42 177.003 151.85 177.003 152.43C177.003 153.03 177.136 153.477 177.403 153.77C177.669 154.063 177.996 154.21 178.383 154.21ZM177.003 147.93V150.7C177.363 150.14 177.873 149.86 178.533 149.86C179.173 149.86 179.696 150.1 180.103 150.58C180.509 151.06 180.713 151.697 180.713 152.49C180.713 153.203 180.519 153.813 180.133 154.32C179.746 154.82 179.216 155.07 178.543 155.07C177.869 155.07 177.356 154.79 177.003 154.23V155H176.013V147.93H177.003ZM184.483 152.74H183.723C183.35 152.74 183.066 152.813 182.873 152.96C182.686 153.107 182.593 153.293 182.593 153.52C182.593 153.753 182.666 153.937 182.813 154.07C182.96 154.203 183.173 154.27 183.453 154.27C183.773 154.27 184.023 154.183 184.203 154.01C184.39 153.83 184.483 153.597 184.483 153.31V152.74ZM181.933 151.14V150.19C182.326 149.963 182.846 149.85 183.493 149.85C184.82 149.85 185.483 150.493 185.483 151.78V155H184.513V154.4C184.253 154.827 183.796 155.04 183.143 155.04C182.663 155.04 182.276 154.903 181.983 154.63C181.696 154.35 181.553 153.997 181.553 153.57C181.553 153.083 181.736 152.707 182.103 152.44C182.47 152.167 182.983 152.03 183.643 152.03H184.483V151.74C184.483 151.393 184.4 151.133 184.233 150.96C184.066 150.78 183.79 150.69 183.403 150.69C182.863 150.69 182.373 150.84 181.933 151.14ZM186.843 155V147.93H187.833V155H186.843ZM189.294 155V149.93H190.284V155H189.294ZM189.344 148.82C189.231 148.7 189.174 148.553 189.174 148.38C189.174 148.207 189.231 148.06 189.344 147.94C189.464 147.82 189.611 147.76 189.784 147.76C189.958 147.76 190.104 147.82 190.224 147.94C190.344 148.06 190.404 148.207 190.404 148.38C190.404 148.547 190.344 148.69 190.224 148.81C190.104 148.93 189.958 148.99 189.784 148.99C189.611 148.99 189.464 148.933 189.344 148.82ZM91.3721 165.93V166.74C91.6588 166.153 92.1355 165.86 92.8021 165.86C93.5621 165.86 94.0488 166.187 94.2621 166.84C94.4021 166.527 94.6055 166.287 94.8721 166.12C95.1388 165.947 95.4388 165.86 95.7721 165.86C96.2921 165.86 96.6855 166.013 96.9521 166.32C97.2255 166.627 97.3621 167.05 97.3621 167.59V171H96.3821V167.8C96.3821 167.073 96.0888 166.71 95.5021 166.71C95.2088 166.71 94.9455 166.84 94.7121 167.1C94.4855 167.36 94.3721 167.743 94.3721 168.25V171H93.3921V167.8C93.3921 167.073 93.0955 166.71 92.5021 166.71C92.2155 166.71 91.9555 166.84 91.7221 167.1C91.4888 167.36 91.3721 167.743 91.3721 168.25V171H90.3921V165.93H91.3721ZM101.843 168.1V167.92C101.83 167.54 101.726 167.24 101.533 167.02C101.34 166.793 101.063 166.68 100.703 166.68C100.37 166.68 100.083 166.803 99.8429 167.05C99.6029 167.29 99.4529 167.64 99.3929 168.1H101.843ZM102.473 169.85V170.73C102.1 170.943 101.606 171.05 100.993 171.05C100.206 171.05 99.5796 170.813 99.1129 170.34C98.6463 169.867 98.4129 169.247 98.4129 168.48C98.4129 167.667 98.6263 167.03 99.0529 166.57C99.4796 166.103 100.023 165.87 100.683 165.87C101.33 165.87 101.843 166.073 102.223 166.48C102.603 166.88 102.793 167.46 102.793 168.22C102.793 168.427 102.773 168.643 102.733 168.87H99.4029C99.4696 169.31 99.6563 169.647 99.9629 169.88C100.27 170.113 100.656 170.23 101.123 170.23C101.663 170.23 102.113 170.103 102.473 169.85ZM104.927 165.93V166.8C105.227 166.173 105.754 165.86 106.507 165.86C107.007 165.86 107.404 166.013 107.697 166.32C107.99 166.627 108.137 167.043 108.137 167.57V171H107.157V167.8C107.157 167.447 107.067 167.177 106.887 166.99C106.714 166.803 106.48 166.71 106.187 166.71C105.84 166.71 105.544 166.847 105.297 167.12C105.05 167.387 104.927 167.763 104.927 168.25V171H103.947V165.93H104.927ZM111.505 170.21C111.891 170.21 112.218 170.063 112.485 169.77C112.751 169.477 112.885 169.03 112.885 168.43C112.885 167.85 112.745 167.42 112.465 167.14C112.191 166.86 111.881 166.72 111.535 166.72C111.141 166.72 110.818 166.877 110.565 167.19C110.311 167.497 110.185 167.937 110.185 168.51C110.185 169.017 110.308 169.427 110.555 169.74C110.808 170.053 111.125 170.21 111.505 170.21ZM112.885 163.93H113.875V171H112.885V170.23C112.531 170.79 112.015 171.07 111.335 171.07C110.668 171.07 110.141 170.82 109.755 170.32C109.368 169.813 109.175 169.203 109.175 168.49C109.175 167.697 109.378 167.06 109.785 166.58C110.191 166.1 110.715 165.86 111.355 165.86C112.015 165.86 112.525 166.14 112.885 166.7V163.93ZM117.925 168.74H117.165C116.792 168.74 116.509 168.813 116.315 168.96C116.129 169.107 116.035 169.293 116.035 169.52C116.035 169.753 116.109 169.937 116.255 170.07C116.402 170.203 116.615 170.27 116.895 170.27C117.215 170.27 117.465 170.183 117.645 170.01C117.832 169.83 117.925 169.597 117.925 169.31V168.74ZM115.375 167.14V166.19C115.769 165.963 116.289 165.85 116.935 165.85C118.262 165.85 118.925 166.493 118.925 167.78V171H117.955V170.4C117.695 170.827 117.239 171.04 116.585 171.04C116.105 171.04 115.719 170.903 115.425 170.63C115.139 170.35 114.995 169.997 114.995 169.57C114.995 169.083 115.179 168.707 115.545 168.44C115.912 168.167 116.425 168.03 117.085 168.03H117.925V167.74C117.925 167.393 117.842 167.133 117.675 166.96C117.509 166.78 117.232 166.69 116.845 166.69C116.305 166.69 115.815 166.84 115.375 167.14ZM122.586 170.21C122.979 170.21 123.302 170.057 123.556 169.75C123.809 169.437 123.936 169 123.936 168.44C123.936 167.913 123.812 167.497 123.566 167.19C123.319 166.877 123.006 166.72 122.626 166.72C122.246 166.72 121.916 166.86 121.636 167.14C121.362 167.413 121.226 167.85 121.226 168.45C121.226 169.037 121.362 169.477 121.636 169.77C121.916 170.063 122.232 170.21 122.586 170.21ZM121.226 165.93V166.71C121.572 166.143 122.092 165.86 122.786 165.86C123.452 165.86 123.979 166.103 124.366 166.59C124.752 167.07 124.946 167.683 124.946 168.43C124.946 169.197 124.746 169.83 124.346 170.33C123.952 170.823 123.426 171.07 122.766 171.07C122.092 171.07 121.579 170.79 121.226 170.23V172.94H120.246V165.93H121.226ZM128.716 168.74H127.956C127.583 168.74 127.3 168.813 127.106 168.96C126.92 169.107 126.826 169.293 126.826 169.52C126.826 169.753 126.9 169.937 127.046 170.07C127.193 170.203 127.406 170.27 127.686 170.27C128.006 170.27 128.256 170.183 128.436 170.01C128.623 169.83 128.716 169.597 128.716 169.31V168.74ZM126.166 167.14V166.19C126.56 165.963 127.08 165.85 127.726 165.85C129.053 165.85 129.716 166.493 129.716 167.78V171H128.746V170.4C128.486 170.827 128.03 171.04 127.376 171.04C126.896 171.04 126.51 170.903 126.216 170.63C125.93 170.35 125.786 169.997 125.786 169.57C125.786 169.083 125.97 168.707 126.336 168.44C126.703 168.167 127.216 168.03 127.876 168.03H128.716V167.74C128.716 167.393 128.633 167.133 128.466 166.96C128.3 166.78 128.023 166.69 127.636 166.69C127.096 166.69 126.606 166.84 126.166 167.14ZM132.307 166.69V169.48C132.307 169.967 132.54 170.21 133.007 170.21C133.28 170.21 133.51 170.137 133.697 169.99V170.87C133.477 170.99 133.207 171.05 132.887 171.05C131.84 171.05 131.317 170.52 131.317 169.46V166.69H130.527V165.93H131.317V164.69H132.307V165.93H133.637V166.69H132.307ZM134.777 171V164H135.757V171H134.777ZM136.927 168.35L138.917 171H137.747L135.797 168.35L137.707 165.93H138.857L136.927 168.35ZM142.447 168.74H141.687C141.314 168.74 141.03 168.813 140.837 168.96C140.65 169.107 140.557 169.293 140.557 169.52C140.557 169.753 140.63 169.937 140.777 170.07C140.924 170.203 141.137 170.27 141.417 170.27C141.737 170.27 141.987 170.183 142.167 170.01C142.354 169.83 142.447 169.597 142.447 169.31V168.74ZM139.897 167.14V166.19C140.29 165.963 140.81 165.85 141.457 165.85C142.784 165.85 143.447 166.493 143.447 167.78V171H142.477V170.4C142.217 170.827 141.76 171.04 141.107 171.04C140.627 171.04 140.24 170.903 139.947 170.63C139.66 170.35 139.517 169.997 139.517 169.57C139.517 169.083 139.7 168.707 140.067 168.44C140.434 168.167 140.947 168.03 141.607 168.03H142.447V167.74C142.447 167.393 142.364 167.133 142.197 166.96C142.03 166.78 141.754 166.69 141.367 166.69C140.827 166.69 140.337 166.84 139.897 167.14ZM145.747 165.93V166.8C146.047 166.173 146.574 165.86 147.327 165.86C147.827 165.86 148.224 166.013 148.517 166.32C148.81 166.627 148.957 167.043 148.957 167.57V171H147.977V167.8C147.977 167.447 147.887 167.177 147.707 166.99C147.534 166.803 147.3 166.71 147.007 166.71C146.66 166.71 146.364 166.847 146.117 167.12C145.87 167.387 145.747 167.763 145.747 168.25V171H144.767V165.93H145.747Z" fill="#2B2B2B"/>
<path d="M154.006 167.69H154.716C155.176 167.69 155.519 167.58 155.746 167.36C155.973 167.14 156.086 166.843 156.086 166.47C156.086 166.103 155.973 165.817 155.746 165.61C155.519 165.397 155.186 165.29 154.746 165.29H154.006V167.69ZM152.746 164.26H154.856C155.616 164.26 156.223 164.467 156.676 164.88C157.136 165.293 157.366 165.823 157.366 166.47C157.366 167.157 157.129 167.703 156.656 168.11C156.189 168.51 155.599 168.71 154.886 168.71H154.006V171H152.746V164.26ZM161.303 168.05V167.9C161.289 167.573 161.199 167.313 161.033 167.12C160.873 166.92 160.636 166.82 160.323 166.82C160.036 166.82 159.786 166.927 159.573 167.14C159.366 167.347 159.233 167.65 159.173 168.05H161.303ZM162.123 169.68V170.72C161.769 170.94 161.259 171.05 160.593 171.05C159.786 171.05 159.149 170.81 158.683 170.33C158.216 169.85 157.983 169.23 157.983 168.47C157.983 167.663 158.203 167.03 158.643 166.57C159.083 166.11 159.633 165.88 160.293 165.88C160.953 165.88 161.476 166.08 161.863 166.48C162.249 166.88 162.443 167.463 162.443 168.23C162.443 168.417 162.419 168.657 162.373 168.95H159.193C159.279 169.317 159.459 169.597 159.733 169.79C160.013 169.983 160.359 170.08 160.773 170.08C161.306 170.08 161.756 169.947 162.123 169.68ZM167.976 171H166.566L164.746 168.38V171H163.546V164.05H164.746V168.31L166.536 165.93H167.936L166.076 168.35L167.976 171ZM171.82 168.05V167.9C171.807 167.573 171.717 167.313 171.55 167.12C171.39 166.92 171.153 166.82 170.84 166.82C170.553 166.82 170.303 166.927 170.09 167.14C169.883 167.347 169.75 167.65 169.69 168.05H171.82ZM172.64 169.68V170.72C172.287 170.94 171.777 171.05 171.11 171.05C170.303 171.05 169.667 170.81 169.2 170.33C168.733 169.85 168.5 169.23 168.5 168.47C168.5 167.663 168.72 167.03 169.16 166.57C169.6 166.11 170.15 165.88 170.81 165.88C171.47 165.88 171.993 166.08 172.38 166.48C172.767 166.88 172.96 167.463 172.96 168.23C172.96 168.417 172.937 168.657 172.89 168.95H169.71C169.797 169.317 169.977 169.597 170.25 169.79C170.53 169.983 170.877 170.08 171.29 170.08C171.823 170.08 172.273 169.947 172.64 169.68ZM175.263 165.93V166.83C175.496 166.203 175.923 165.89 176.543 165.89C176.683 165.89 176.796 165.9 176.883 165.92V167.08C176.73 167.013 176.56 166.98 176.373 166.98C176.046 166.98 175.78 167.113 175.573 167.38C175.366 167.647 175.263 167.98 175.263 168.38V171H174.053L174.063 165.93H175.263ZM176.518 172.81V171.86C176.752 171.96 176.955 172.01 177.128 172.01C177.482 172.01 177.658 171.78 177.658 171.32V165.93H178.858V171.34C178.858 171.84 178.722 172.237 178.448 172.53C178.175 172.823 177.785 172.97 177.278 172.97C177.038 172.97 176.785 172.917 176.518 172.81ZM177.528 164.41C177.528 164.21 177.598 164.04 177.738 163.9C177.878 163.76 178.048 163.69 178.248 163.69C178.455 163.69 178.628 163.76 178.768 163.9C178.908 164.04 178.978 164.21 178.978 164.41C178.978 164.617 178.908 164.79 178.768 164.93C178.628 165.07 178.455 165.14 178.248 165.14C178.048 165.14 177.878 165.07 177.738 164.93C177.598 164.79 177.528 164.617 177.528 164.41ZM182.747 168.82H182.127C181.814 168.82 181.574 168.887 181.407 169.02C181.24 169.147 181.157 169.31 181.157 169.51C181.157 169.937 181.404 170.15 181.897 170.15C182.164 170.15 182.37 170.073 182.517 169.92C182.67 169.76 182.747 169.553 182.747 169.3V168.82ZM180.287 167.3V166.19C180.667 165.957 181.214 165.84 181.927 165.84C183.3 165.84 183.987 166.48 183.987 167.76V171H182.797V170.39C182.564 170.823 182.124 171.04 181.477 171.04C180.997 171.04 180.614 170.9 180.327 170.62C180.047 170.34 179.907 169.987 179.907 169.56C179.907 169.08 180.087 168.703 180.447 168.43C180.807 168.157 181.327 168.02 182.007 168.02H182.747V167.71C182.747 167.43 182.674 167.217 182.527 167.07C182.38 166.923 182.13 166.85 181.777 166.85C181.237 166.85 180.74 167 180.287 167.3ZM187.815 168.82H187.195C186.882 168.82 186.642 168.887 186.475 169.02C186.309 169.147 186.225 169.31 186.225 169.51C186.225 169.937 186.472 170.15 186.965 170.15C187.232 170.15 187.439 170.073 187.585 169.92C187.739 169.76 187.815 169.553 187.815 169.3V168.82ZM185.355 167.3V166.19C185.735 165.957 186.282 165.84 186.995 165.84C188.369 165.84 189.055 166.48 189.055 167.76V171H187.865V170.39C187.632 170.823 187.192 171.04 186.545 171.04C186.065 171.04 185.682 170.9 185.395 170.62C185.115 170.34 184.975 169.987 184.975 169.56C184.975 169.08 185.155 168.703 185.515 168.43C185.875 168.157 186.395 168.02 187.075 168.02H187.815V167.71C187.815 167.43 187.742 167.217 187.595 167.07C187.449 166.923 187.199 166.85 186.845 166.85C186.305 166.85 185.809 167 185.355 167.3ZM191.494 165.93V166.8C191.78 166.18 192.3 165.87 193.054 165.87C193.56 165.87 193.96 166.023 194.254 166.33C194.547 166.637 194.694 167.07 194.694 167.63V171H193.494V167.88C193.494 167.547 193.414 167.297 193.254 167.13C193.094 166.957 192.877 166.87 192.604 166.87C192.29 166.87 192.027 166.993 191.814 167.24C191.6 167.48 191.494 167.827 191.494 168.28V171H190.294V165.93H191.494Z" fill="#008C1E"/>
<rect x="82.5" y="200" width="120" height="24" rx="8" fill="#FF1934"/>
<path d="M122.49 213.104L124.594 213.104L124.594 214L121.482 214L121.482 208.608L122.49 208.608L122.49 213.104ZM126.725 211.952L128.245 211.952L128.173 211.712C127.992 211.136 127.842 210.653 127.725 210.264C127.613 209.869 127.544 209.621 127.517 209.52L127.485 209.36C127.437 209.627 127.208 210.413 126.797 211.72L126.725 211.952ZM128.885 214L128.501 212.776L126.461 212.776L126.077 214L125.021 214L126.845 208.608L128.149 208.608L129.973 214L128.885 214ZM130.748 214L130.748 208.608L131.892 208.608L133.188 210.856C133.401 211.224 133.59 211.568 133.756 211.888C133.926 212.203 134.041 212.427 134.1 212.56L134.188 212.76C134.145 212.317 134.124 211.683 134.124 210.856L134.124 208.608L135.14 208.608L135.14 214L133.988 214L132.676 211.76C132.468 211.408 132.278 211.072 132.108 210.752C131.942 210.427 131.828 210.192 131.764 210.048L131.668 209.824C131.726 210.331 131.756 210.973 131.756 211.752L131.756 214L130.748 214ZM135.935 213.84L135.935 212.928C136.138 213.056 136.351 213.12 136.575 213.12C136.986 213.12 137.191 212.901 137.191 212.464L137.191 208.616L138.199 208.616L138.199 212.464C138.199 212.971 138.071 213.355 137.815 213.616C137.559 213.877 137.207 214.008 136.759 214.008C136.423 214.008 136.149 213.952 135.935 213.84ZM142.463 211.936L142.463 208.608L143.471 208.608L143.471 211.928C143.471 212.627 143.281 213.16 142.903 213.528C142.529 213.891 142.015 214.072 141.359 214.072C140.719 214.072 140.207 213.893 139.823 213.536C139.444 213.173 139.255 212.656 139.255 211.984L139.255 208.608L140.263 208.608L140.263 211.976C140.263 212.387 140.364 212.685 140.567 212.872C140.769 213.053 141.033 213.144 141.359 213.144C142.095 213.144 142.463 212.741 142.463 211.936ZM147.96 208.608L147.96 209.44L146.592 209.44L146.592 214L145.576 214L145.576 209.44L144.208 209.44L144.208 208.608L147.96 208.608ZM148.716 214L148.716 208.608L149.724 208.608L149.724 214L148.716 214ZM151.004 211.312L153.012 214L151.74 214L149.804 211.328L151.668 208.608L152.876 208.608L151.004 211.312ZM155.108 211.952L156.628 211.952L156.556 211.712C156.374 211.136 156.225 210.653 156.108 210.264C155.996 209.869 155.926 209.621 155.9 209.52L155.868 209.36C155.82 209.627 155.59 210.413 155.18 211.72L155.108 211.952ZM157.268 214L156.884 212.776L154.844 212.776L154.46 214L153.404 214L155.228 208.608L156.532 208.608L158.356 214L157.268 214ZM159.13 214L159.13 208.608L160.274 208.608L161.57 210.856C161.784 211.224 161.973 211.568 162.138 211.888C162.309 212.203 162.424 212.427 162.482 212.56L162.57 212.76C162.528 212.317 162.506 211.683 162.506 210.856L162.506 208.608L163.522 208.608L163.522 214L162.37 214L161.058 211.76C160.85 211.408 160.661 211.072 160.49 210.752C160.325 210.427 160.21 210.192 160.146 210.048L160.05 209.824C160.109 210.331 160.138 210.973 160.138 211.752L160.138 214L159.13 214Z" fill="white"/>
<defs>
<filter id="filter0_d_1124_4113" x="-4" y="-2" width="293" height="56" filterUnits="userSpaceOnUse" color-interpolation-filters="sRGB">
<feFlood flood-opacity="0" result="BackgroundImageFix"/>
<feColorMatrix in="SourceAlpha" type="matrix" values="0 0 0 0 0 0 0 0 0 0 0 0 0 0 0 0 0 0 127 0" result="hardAlpha"/>
<feOffset dy="2"/>
<feGaussianBlur stdDeviation="2"/>
<feComposite in2="hardAlpha" operator="out"/>
<feColorMatrix type="matrix" values="0 0 0 0 0.168627 0 0 0 0 0.168627 0 0 0 0 0.168627 0 0 0 0.24 0"/>
<feBlend mode="normal" in2="BackgroundImageFix" result="effect1_dropShadow_1124_4113"/>
<feBlend mode="normal" in="SourceGraphic" in2="effect1_dropShadow_1124_4113" result="shape"/>
</filter>
<clipPath id="clip0_1124_4113">
<rect width="24" height="24" fill="white" transform="translate(16 16)"/>
</clipPath>
<clipPath id="clip1_1124_4113">
<rect width="64" height="64" fill="white" transform="translate(110.5 72)"/>
</clipPath>
</defs>
</svg>
