<svg width="285" height="256" viewBox="0 0 285 256" fill="none" xmlns="http://www.w3.org/2000/svg">
<rect width="285" height="256" fill="#D3D3D3"/>
<rect width="285" height="256" rx="16" fill="white"/>
<g filter="url(#filter0_d_1124_4113)">
<path d="M0 16C0 7.16344 7.16344 0 16 0H269C277.837 0 285 7.16344 285 16V48H0V16Z" fill="#FF1934" shape-rendering="crispEdges"/>
<g clip-path="url(#clip0_1124_4113)">
<path d="M37.69 31.57C37.13 31.13 36.52 30.77 35.88 30.5C35.73 30.43 35.67 30.31 35.65 30.21C35.61 30.06 35.65 29.89 35.75 29.77C36.63 28.72 37.15 27.33 37.15 26.06C37.15 23.54 35.1 21.49 32.58 21.49C32.35 21.49 32.11 21.52 31.87 21.56C30.86 20.59 29.5 20 28 20C26.5 20 25.14 20.6 24.13 21.56C23.88 21.52 23.65 21.49 23.42 21.49C20.9 21.49 18.85 23.54 18.85 26.06C18.85 27.33 19.37 28.72 20.25 29.77C20.35 29.89 20.39 30.06 20.35 30.21C20.33 30.3 20.27 30.43 20.12 30.49C19.48 30.76 18.88 31.12 18.31 31.56C17.96 31.83 17.9 32.33 18.17 32.68C18.33 32.88 18.56 32.99 18.8 32.99C18.97 32.99 19.14 32.94 19.29 32.82C19.75 32.47 20.24 32.17 20.75 31.95C21.33 31.7 21.75 31.19 21.9 30.57C22.05 29.93 21.9 29.24 21.47 28.73C20.84 27.97 20.44 26.94 20.44 26.05C20.44 24.56 21.54 23.34 22.98 23.12C22.61 23.86 22.4 24.7 22.4 25.58C22.4 27.15 23.05 28.86 24.13 30.16C24.3 30.37 24.37 30.65 24.31 30.91C24.28 31.05 24.18 31.3 23.89 31.42C22.25 32.13 20.8 33.26 19.71 34.69C19.44 35.04 19.51 35.54 19.86 35.81C20.01 35.92 20.18 35.97 20.34 35.97C20.58 35.97 20.82 35.86 20.98 35.65C21.9 34.44 23.12 33.48 24.52 32.88C25.2 32.59 25.69 32 25.86 31.27C26.04 30.52 25.86 29.72 25.36 29.12C24.52 28.11 24 26.75 24 25.56C24 24.54 24.4 23.62 25.03 22.91C25.03 22.91 25.04 22.9 25.05 22.89C25.78 22.08 26.83 21.56 28 21.56C29.17 21.56 30.22 22.08 30.95 22.88C30.95 22.88 30.96 22.9 30.97 22.91C31.6 23.62 32 24.54 32 25.56C32 26.75 31.48 28.11 30.64 29.12C29.86 30.05 28.93 30.56 28 30.56C27.56 30.56 27.2 30.92 27.2 31.36C27.2 31.8 27.56 32.16 28 32.16C28.77 32.16 29.53 31.94 30.23 31.53C30.45 32.13 30.88 32.62 31.48 32.87C32.87 33.47 34.09 34.43 35.02 35.64C35.18 35.85 35.42 35.96 35.66 35.96C35.83 35.96 36 35.91 36.14 35.8C36.49 35.53 36.56 35.03 36.29 34.68C35.2 33.25 33.76 32.12 32.12 31.41C31.83 31.29 31.73 31.03 31.7 30.9C31.64 30.64 31.7 30.36 31.88 30.15C32.96 28.85 33.61 27.14 33.61 25.57C33.61 24.68 33.4 23.85 33.03 23.11C34.46 23.32 35.57 24.55 35.57 26.04C35.57 26.94 35.18 27.96 34.54 28.72C34.12 29.23 33.96 29.91 34.11 30.56C34.26 31.19 34.68 31.69 35.27 31.94C35.78 32.16 36.27 32.45 36.73 32.81C36.88 32.92 37.05 32.98 37.22 32.98C37.46 32.98 37.7 32.87 37.85 32.67C38.12 32.32 38.06 31.82 37.71 31.55L37.69 31.57Z" fill="white"/>
</g>
<path d="M51.668 28.332H53.936L53.838 27.996C53.5673 27.0813 53.3433 26.302 53.166 25.658C52.998 25.014 52.8953 24.5987 52.858 24.412L52.802 24.132C52.7273 24.6453 52.382 25.9333 51.766 27.996L51.668 28.332ZM55.028 32L54.454 30.068H51.15L50.576 32H48.322L51.472 22.564H54.188L57.338 32H55.028ZM60.55 24.902V26.106C60.7273 25.714 60.998 25.406 61.362 25.182C61.7353 24.9487 62.1787 24.832 62.692 24.832C63.42 24.832 63.9893 25.0513 64.4 25.49C64.8107 25.9193 65.016 26.554 65.016 27.394V32H62.972V27.772C62.972 27.352 62.874 27.0347 62.678 26.82C62.482 26.596 62.2067 26.484 61.852 26.484C61.4787 26.484 61.166 26.6333 60.914 26.932C60.6713 27.2213 60.55 27.66 60.55 28.248V32H58.506V24.902H60.55ZM69.8891 30.376C70.3558 30.376 70.7338 30.194 71.0231 29.83C71.3124 29.466 71.4571 28.9807 71.4571 28.374C71.4571 27.786 71.2984 27.3287 70.9811 27.002C70.6731 26.6753 70.3044 26.512 69.8751 26.512C69.4458 26.512 69.0818 26.6847 68.7831 27.03C68.4938 27.3753 68.3491 27.856 68.3491 28.472C68.3491 29.0413 68.4984 29.5033 68.7971 29.858C69.0958 30.2033 69.4598 30.376 69.8891 30.376ZM71.4571 22.102H73.5011V32H71.4571V30.894C70.9811 31.6873 70.2718 32.084 69.3291 32.084C68.4051 32.084 67.6631 31.7247 67.1031 31.006C66.5524 30.2873 66.2771 29.4287 66.2771 28.43C66.2771 27.31 66.5664 26.428 67.1451 25.784C67.7238 25.14 68.4564 24.818 69.3431 24.818C70.2671 24.818 70.9718 25.21 71.4571 25.994V22.102ZM78.6997 29.088H78.0417C77.6964 29.088 77.4304 29.1627 77.2437 29.312C77.057 29.4613 76.9637 29.6527 76.9637 29.886C76.9637 30.362 77.239 30.6 77.7897 30.6C78.079 30.6 78.303 30.5113 78.4617 30.334C78.6204 30.1567 78.6997 29.914 78.6997 29.606V29.088ZM75.3817 27.086V25.252C75.9417 24.9347 76.749 24.776 77.8037 24.776C78.8117 24.776 79.563 24.9953 80.0577 25.434C80.5524 25.8633 80.7997 26.5353 80.7997 27.45V32H78.7977V31.132C78.499 31.7387 77.911 32.042 77.0337 32.042C76.343 32.042 75.8017 31.846 75.4097 31.454C75.027 31.062 74.8357 30.572 74.8357 29.984C74.8357 29.3027 75.083 28.7753 75.5777 28.402C76.0817 28.0193 76.8237 27.828 77.8037 27.828H78.6997V27.338C78.6997 26.7407 78.303 26.442 77.5097 26.442C76.7444 26.442 76.035 26.6567 75.3817 27.086ZM89.5165 30.376C89.9458 30.376 90.3098 30.2033 90.6085 29.858C90.9071 29.5033 91.0565 29.0413 91.0565 28.472C91.0565 27.856 90.9071 27.3753 90.6085 27.03C90.3191 26.6847 89.9598 26.512 89.5305 26.512C89.1011 26.512 88.7278 26.6753 88.4105 27.002C88.1025 27.3287 87.9485 27.786 87.9485 28.374C87.9485 28.9807 88.0931 29.466 88.3825 29.83C88.6718 30.194 89.0498 30.376 89.5165 30.376ZM87.9485 22.102V25.994C88.4338 25.21 89.1385 24.818 90.0625 24.818C90.9491 24.818 91.6818 25.14 92.2605 25.784C92.8391 26.428 93.1285 27.31 93.1285 28.43C93.1285 29.4287 92.8485 30.2873 92.2885 31.006C91.7378 31.7247 91.0005 32.084 90.0765 32.084C89.1338 32.084 88.4245 31.6873 87.9485 30.894V32H85.9045V22.102H87.9485ZM98.565 27.8V27.632C98.4997 26.8013 98.1357 26.386 97.473 26.386C97.1464 26.386 96.857 26.5073 96.605 26.75C96.353 26.9833 96.185 27.3333 96.101 27.8H98.565ZM100.035 29.886V31.594C99.5497 31.9113 98.8077 32.07 97.809 32.07C96.6424 32.07 95.7324 31.734 95.079 31.062C94.435 30.3807 94.113 29.508 94.113 28.444C94.113 27.3147 94.4257 26.4327 95.051 25.798C95.6857 25.154 96.465 24.832 97.389 24.832C98.341 24.832 99.0924 25.112 99.643 25.672C100.194 26.2227 100.469 27.0487 100.469 28.15C100.469 28.3647 100.432 28.7333 100.357 29.256H96.185C96.325 29.648 96.5677 29.9513 96.913 30.166C97.2584 30.3807 97.6737 30.488 98.159 30.488C98.8777 30.488 99.503 30.2873 100.035 29.886ZM103.958 24.902V26.218C104.089 25.8073 104.303 25.4807 104.602 25.238C104.91 24.986 105.265 24.86 105.666 24.86C105.89 24.86 106.067 24.8787 106.198 24.916V26.848C105.974 26.7453 105.717 26.694 105.428 26.694C104.989 26.694 104.635 26.8573 104.364 27.184C104.093 27.5013 103.958 27.926 103.958 28.458V32H101.914L101.928 24.902H103.958ZM110.624 29.088H109.966C109.62 29.088 109.354 29.1627 109.168 29.312C108.981 29.4613 108.888 29.6527 108.888 29.886C108.888 30.362 109.163 30.6 109.714 30.6C110.003 30.6 110.227 30.5113 110.386 30.334C110.544 30.1567 110.624 29.914 110.624 29.606V29.088ZM107.306 27.086V25.252C107.866 24.9347 108.673 24.776 109.728 24.776C110.736 24.776 111.487 24.9953 111.982 25.434C112.476 25.8633 112.724 26.5353 112.724 27.45V32H110.722V31.132C110.423 31.7387 109.835 32.042 108.958 32.042C108.267 32.042 107.726 31.846 107.334 31.454C106.951 31.062 106.76 30.572 106.76 29.984C106.76 29.3027 107.007 28.7753 107.502 28.402C108.006 28.0193 108.748 27.828 109.728 27.828H110.624V27.338C110.624 26.7407 110.227 26.442 109.434 26.442C108.668 26.442 107.959 26.6567 107.306 27.086ZM117.59 30.376C118.057 30.376 118.435 30.194 118.724 29.83C119.014 29.466 119.158 28.9807 119.158 28.374C119.158 27.786 119 27.3287 118.682 27.002C118.374 26.6753 118.006 26.512 117.576 26.512C117.147 26.512 116.783 26.6847 116.484 27.03C116.195 27.3753 116.05 27.856 116.05 28.472C116.05 29.0413 116.2 29.5033 116.498 29.858C116.797 30.2033 117.161 30.376 117.59 30.376ZM119.158 22.102H121.202V32H119.158V30.894C118.682 31.6873 117.973 32.084 117.03 32.084C116.106 32.084 115.364 31.7247 114.804 31.006C114.254 30.2873 113.978 29.4287 113.978 28.43C113.978 27.31 114.268 26.428 114.846 25.784C115.425 25.14 116.158 24.818 117.044 24.818C117.968 24.818 118.673 25.21 119.158 25.994V22.102ZM126.401 29.088H125.743C125.398 29.088 125.132 29.1627 124.945 29.312C124.758 29.4613 124.665 29.6527 124.665 29.886C124.665 30.362 124.94 30.6 125.491 30.6C125.78 30.6 126.004 30.5113 126.163 30.334C126.322 30.1567 126.401 29.914 126.401 29.606V29.088ZM123.083 27.086V25.252C123.643 24.9347 124.45 24.776 125.505 24.776C126.513 24.776 127.264 24.9953 127.759 25.434C128.254 25.8633 128.501 26.5353 128.501 27.45V32H126.499V31.132C126.2 31.7387 125.612 32.042 124.735 32.042C124.044 32.042 123.503 31.846 123.111 31.454C122.728 31.062 122.537 30.572 122.537 29.984C122.537 29.3027 122.784 28.7753 123.279 28.402C123.783 28.0193 124.525 27.828 125.505 27.828H126.401V27.338C126.401 26.7407 126.004 26.442 125.211 26.442C124.446 26.442 123.736 26.6567 123.083 27.086ZM136.868 30.376C137.334 30.376 137.712 30.194 138.002 29.83C138.291 29.466 138.436 28.9807 138.436 28.374C138.436 27.786 138.277 27.3287 137.96 27.002C137.652 26.6753 137.283 26.512 136.854 26.512C136.424 26.512 136.06 26.6847 135.762 27.03C135.472 27.3753 135.328 27.856 135.328 28.472C135.328 29.0413 135.477 29.5033 135.776 29.858C136.074 30.2033 136.438 30.376 136.868 30.376ZM138.436 22.102H140.48V32H138.436V30.894C137.96 31.6873 137.25 32.084 136.308 32.084C135.384 32.084 134.642 31.7247 134.082 31.006C133.531 30.2873 133.256 29.4287 133.256 28.43C133.256 27.31 133.545 26.428 134.124 25.784C134.702 25.14 135.435 24.818 136.322 24.818C137.246 24.818 137.95 25.21 138.436 25.994V22.102ZM142.234 32V24.902H144.278V32H142.234ZM142.416 23.684C142.183 23.4507 142.066 23.1707 142.066 22.844C142.066 22.5173 142.183 22.2373 142.416 22.004C142.65 21.7707 142.93 21.654 143.256 21.654C143.583 21.654 143.863 21.7707 144.096 22.004C144.33 22.2373 144.446 22.5173 144.446 22.844C144.446 23.1707 144.33 23.4507 144.096 23.684C143.863 23.9173 143.583 24.034 143.256 24.034C142.93 24.034 142.65 23.9173 142.416 23.684ZM151.759 27.24H152.473C153.612 27.24 154.181 26.722 154.181 25.686C154.181 24.7527 153.654 24.286 152.599 24.286H151.759V27.24ZM149.603 22.564H152.851C153.897 22.564 154.741 22.858 155.385 23.446C156.039 24.034 156.365 24.7807 156.365 25.686C156.365 26.722 156.025 27.5247 155.343 28.094C154.671 28.6633 153.841 28.948 152.851 28.948H151.759V32H149.603V22.564ZM160.936 29.088H160.278C159.933 29.088 159.667 29.1627 159.48 29.312C159.293 29.4613 159.2 29.6527 159.2 29.886C159.2 30.362 159.475 30.6 160.026 30.6C160.315 30.6 160.539 30.5113 160.698 30.334C160.857 30.1567 160.936 29.914 160.936 29.606V29.088ZM157.618 27.086V25.252C158.178 24.9347 158.985 24.776 160.04 24.776C161.048 24.776 161.799 24.9953 162.294 25.434C162.789 25.8633 163.036 26.5353 163.036 27.45V32H161.034V31.132C160.735 31.7387 160.147 32.042 159.27 32.042C158.579 32.042 158.038 31.846 157.646 31.454C157.263 31.062 157.072 30.572 157.072 29.984C157.072 29.3027 157.319 28.7753 157.814 28.402C158.318 28.0193 159.06 27.828 160.04 27.828H160.936V27.338C160.936 26.7407 160.539 26.442 159.746 26.442C158.981 26.442 158.271 26.6567 157.618 27.086ZM168.281 30.376C168.729 30.376 169.093 30.208 169.373 29.872C169.653 29.5267 169.793 29.06 169.793 28.472C169.793 27.828 169.648 27.3427 169.359 27.016C169.079 26.68 168.719 26.512 168.281 26.512C167.851 26.512 167.478 26.6753 167.161 27.002C166.843 27.3287 166.685 27.786 166.685 28.374C166.685 28.9807 166.834 29.466 167.133 29.83C167.431 30.194 167.814 30.376 168.281 30.376ZM166.685 24.902V25.994C167.179 25.21 167.893 24.818 168.827 24.818C169.741 24.818 170.474 25.1447 171.025 25.798C171.585 26.442 171.865 27.3193 171.865 28.43C171.865 29.4847 171.594 30.3573 171.053 31.048C170.521 31.7387 169.779 32.084 168.827 32.084C167.865 32.084 167.151 31.706 166.685 30.95V34.618H164.641V24.902H166.685ZM176.713 29.088H176.055C175.71 29.088 175.444 29.1627 175.257 29.312C175.071 29.4613 174.977 29.6527 174.977 29.886C174.977 30.362 175.253 30.6 175.803 30.6C176.093 30.6 176.317 30.5113 176.475 30.334C176.634 30.1567 176.713 29.914 176.713 29.606V29.088ZM173.395 27.086V25.252C173.955 24.9347 174.763 24.776 175.817 24.776C176.825 24.776 177.577 24.9953 178.071 25.434C178.566 25.8633 178.813 26.5353 178.813 27.45V32H176.811V31.132C176.513 31.7387 175.925 32.042 175.047 32.042C174.357 32.042 173.815 31.846 173.423 31.454C173.041 31.062 172.849 30.572 172.849 29.984C172.849 29.3027 173.097 28.7753 173.591 28.402C174.095 28.0193 174.837 27.828 175.817 27.828H176.713V27.338C176.713 26.7407 176.317 26.442 175.523 26.442C174.758 26.442 174.049 26.6567 173.395 27.086ZM182.462 24.902V26.106C182.639 25.714 182.91 25.406 183.274 25.182C183.647 24.9487 184.091 24.832 184.604 24.832C185.332 24.832 185.901 25.0513 186.312 25.49C186.723 25.9193 186.928 26.554 186.928 27.394V32H184.884V27.772C184.884 27.352 184.786 27.0347 184.59 26.82C184.394 26.596 184.119 26.484 183.764 26.484C183.391 26.484 183.078 26.6333 182.826 26.932C182.583 27.2213 182.462 27.66 182.462 28.248V32H180.418V24.902H182.462ZM194.265 27.24H194.979C196.118 27.24 196.687 26.722 196.687 25.686C196.687 24.7527 196.16 24.286 195.105 24.286H194.265V27.24ZM192.109 22.564H195.357C196.403 22.564 197.247 22.858 197.891 23.446C198.545 24.034 198.871 24.7807 198.871 25.686C198.871 26.722 198.531 27.5247 197.849 28.094C197.177 28.6633 196.347 28.948 195.357 28.948H194.265V32H192.109V22.564ZM204.03 27.8V27.632C203.965 26.8013 203.601 26.386 202.938 26.386C202.611 26.386 202.322 26.5073 202.07 26.75C201.818 26.9833 201.65 27.3333 201.566 27.8H204.03ZM205.5 29.886V31.594C205.015 31.9113 204.273 32.07 203.274 32.07C202.107 32.07 201.197 31.734 200.544 31.062C199.9 30.3807 199.578 29.508 199.578 28.444C199.578 27.3147 199.891 26.4327 200.516 25.798C201.151 25.154 201.93 24.832 202.854 24.832C203.806 24.832 204.557 25.112 205.108 25.672C205.659 26.2227 205.934 27.0487 205.934 28.15C205.934 28.3647 205.897 28.7333 205.822 29.256H201.65C201.79 29.648 202.033 29.9513 202.378 30.166C202.723 30.3807 203.139 30.488 203.624 30.488C204.343 30.488 204.968 30.2873 205.5 29.886ZM214.071 32H211.705L209.437 28.514V32H207.393V22.34H209.437V28.08L211.677 24.902H214.029L211.565 28.304L214.071 32ZM219.165 27.8V27.632C219.099 26.8013 218.735 26.386 218.073 26.386C217.746 26.386 217.457 26.5073 217.205 26.75C216.953 26.9833 216.785 27.3333 216.701 27.8H219.165ZM220.635 29.886V31.594C220.149 31.9113 219.407 32.07 218.409 32.07C217.242 32.07 216.332 31.734 215.679 31.062C215.035 30.3807 214.713 29.508 214.713 28.444C214.713 27.3147 215.025 26.4327 215.651 25.798C216.285 25.154 217.065 24.832 217.989 24.832C218.941 24.832 219.692 25.112 220.243 25.672C220.793 26.2227 221.069 27.0487 221.069 28.15C221.069 28.3647 221.031 28.7333 220.957 29.256H216.785C216.925 29.648 217.167 29.9513 217.513 30.166C217.858 30.3807 218.273 30.488 218.759 30.488C219.477 30.488 220.103 30.2873 220.635 29.886ZM224.558 24.902V26.218C224.688 25.8073 224.903 25.4807 225.202 25.238C225.51 24.986 225.864 24.86 226.266 24.86C226.49 24.86 226.667 24.8787 226.798 24.916V26.848C226.574 26.7453 226.317 26.694 226.028 26.694C225.589 26.694 225.234 26.8573 224.964 27.184C224.693 27.5013 224.558 27.926 224.558 28.458V32H222.514L222.528 24.902H224.558ZM226.309 34.548V32.994C226.617 33.134 226.883 33.204 227.107 33.204C227.592 33.204 227.835 32.8913 227.835 32.266V24.902H229.865V32.294C229.865 33.0407 229.655 33.638 229.235 34.086C228.815 34.5433 228.208 34.772 227.415 34.772C227.088 34.772 226.72 34.6973 226.309 34.548ZM228.003 23.684C227.77 23.4507 227.653 23.1707 227.653 22.844C227.653 22.5173 227.77 22.2373 228.003 22.004C228.236 21.7707 228.516 21.654 228.843 21.654C229.17 21.654 229.45 21.7707 229.683 22.004C229.916 22.2373 230.033 22.5173 230.033 22.844C230.033 23.1707 229.916 23.4507 229.683 23.684C229.45 23.9173 229.17 24.034 228.843 24.034C228.516 24.034 228.236 23.9173 228.003 23.684ZM235.065 29.088H234.407C234.062 29.088 233.796 29.1627 233.609 29.312C233.422 29.4613 233.329 29.6527 233.329 29.886C233.329 30.362 233.604 30.6 234.155 30.6C234.444 30.6 234.668 30.5113 234.827 30.334C234.986 30.1567 235.065 29.914 235.065 29.606V29.088ZM231.747 27.086V25.252C232.307 24.9347 233.114 24.776 234.169 24.776C235.177 24.776 235.928 24.9953 236.423 25.434C236.918 25.8633 237.165 26.5353 237.165 27.45V32H235.163V31.132C234.864 31.7387 234.276 32.042 233.399 32.042C232.708 32.042 232.167 31.846 231.775 31.454C231.392 31.062 231.201 30.572 231.201 29.984C231.201 29.3027 231.448 28.7753 231.943 28.402C232.447 28.0193 233.189 27.828 234.169 27.828H235.065V27.338C235.065 26.7407 234.668 26.442 233.875 26.442C233.11 26.442 232.4 26.6567 231.747 27.086ZM242.284 29.088H241.626C241.28 29.088 241.014 29.1627 240.828 29.312C240.641 29.4613 240.548 29.6527 240.548 29.886C240.548 30.362 240.823 30.6 241.374 30.6C241.663 30.6 241.887 30.5113 242.046 30.334C242.204 30.1567 242.284 29.914 242.284 29.606V29.088ZM238.966 27.086V25.252C239.526 24.9347 240.333 24.776 241.388 24.776C242.396 24.776 243.147 24.9953 243.642 25.434C244.136 25.8633 244.384 26.5353 244.384 27.45V32H242.382V31.132C242.083 31.7387 241.495 32.042 240.618 32.042C239.927 32.042 239.386 31.846 238.994 31.454C238.611 31.062 238.42 30.572 238.42 29.984C238.42 29.3027 238.667 28.7753 239.162 28.402C239.666 28.0193 240.408 27.828 241.388 27.828H242.284V27.338C242.284 26.7407 241.887 26.442 241.094 26.442C240.328 26.442 239.619 26.6567 238.966 27.086ZM248.032 24.902V26.106C248.21 25.714 248.48 25.406 248.844 25.182C249.218 24.9487 249.661 24.832 250.174 24.832C250.902 24.832 251.472 25.0513 251.882 25.49C252.293 25.9193 252.498 26.554 252.498 27.394V32H250.454V27.772C250.454 27.352 250.356 27.0347 250.16 26.82C249.964 26.596 249.689 26.484 249.334 26.484C248.961 26.484 248.648 26.6333 248.396 26.932C248.154 27.2213 248.032 27.66 248.032 28.248V32H245.988V24.902H248.032Z" fill="white"/>
</g>
<g clip-path="url(#clip1_1124_4113)">
<path d="M142.5 126.07C131.772 126.07 123.044 124.347 123.044 122.23C123.044 120.113 131.772 118.39 142.5 118.39C153.228 118.39 161.956 120.113 161.956 122.23C161.956 124.347 153.228 126.07 142.5 126.07Z" fill="#CCCCCC"/>
<path d="M135.83 111.067C134.139 111.067 132.447 110.449 131.098 109.213L121.678 100.58C120.184 99.2121 120.082 96.8901 121.452 95.3964C122.82 93.9007 125.142 93.8021 126.636 95.1705L136.056 103.803L158.365 82.9465C159.861 81.5807 162.182 81.6793 163.549 83.1724C164.918 84.6661 164.816 86.9881 163.323 88.3564L140.563 109.213C139.214 110.449 137.522 111.067 135.831 111.067H135.83Z" fill="#008C1E"/>
<path d="M139.256 123.014C138.433 123.014 137.611 122.954 136.954 122.833L132.371 121.991C131.645 121.857 131.595 121.63 132.261 121.485C132.927 121.339 134.057 121.329 134.783 121.463L139.365 122.305L150.217 120.269C150.944 120.136 152.073 120.146 152.738 120.291C153.404 120.437 153.355 120.663 152.628 120.797L141.557 122.833C140.901 122.953 140.078 123.014 139.256 123.014Z" fill="#F1F1F1"/>
</g>
<path d="M89.4677 148.53V149.55C89.021 149.27 88.5143 149.13 87.9477 149.13C87.581 149.13 87.291 149.213 87.0777 149.38C86.871 149.54 86.7677 149.753 86.7677 150.02C86.7677 150.287 86.871 150.5 87.0777 150.66C87.2843 150.82 87.601 150.993 88.0277 151.18C88.3077 151.3 88.5243 151.403 88.6777 151.49C88.8377 151.577 89.0177 151.7 89.2177 151.86C89.4243 152.013 89.5743 152.2 89.6677 152.42C89.7677 152.633 89.8177 152.88 89.8177 153.16C89.8177 153.753 89.6077 154.22 89.1877 154.56C88.7677 154.9 88.2243 155.07 87.5577 155.07C86.8177 155.07 86.2043 154.927 85.7177 154.64V153.57C86.2443 153.963 86.8543 154.16 87.5477 154.16C87.9143 154.16 88.2043 154.077 88.4177 153.91C88.631 153.737 88.7377 153.5 88.7377 153.2C88.7377 153.02 88.6743 152.857 88.5477 152.71C88.421 152.557 88.2843 152.443 88.1377 152.37C87.991 152.29 87.771 152.183 87.4777 152.05C87.3043 151.97 87.181 151.913 87.1077 151.88C87.041 151.847 86.9277 151.787 86.7677 151.7C86.6077 151.613 86.4877 151.54 86.4077 151.48C86.3343 151.42 86.241 151.337 86.1277 151.23C86.0143 151.123 85.931 151.017 85.8777 150.91C85.831 150.803 85.7843 150.68 85.7377 150.54C85.6977 150.393 85.6777 150.237 85.6777 150.07C85.6777 149.497 85.8843 149.043 86.2977 148.71C86.7177 148.377 87.2577 148.21 87.9177 148.21C88.5243 148.21 89.041 148.317 89.4677 148.53ZM94.1525 152.1V151.92C94.1392 151.54 94.0358 151.24 93.8425 151.02C93.6492 150.793 93.3725 150.68 93.0125 150.68C92.6792 150.68 92.3925 150.803 92.1525 151.05C91.9125 151.29 91.7625 151.64 91.7025 152.1H94.1525ZM94.7825 153.85V154.73C94.4092 154.943 93.9158 155.05 93.3025 155.05C92.5158 155.05 91.8892 154.813 91.4225 154.34C90.9558 153.867 90.7225 153.247 90.7225 152.48C90.7225 151.667 90.9358 151.03 91.3625 150.57C91.7892 150.103 92.3325 149.87 92.9925 149.87C93.6392 149.87 94.1525 150.073 94.5325 150.48C94.9125 150.88 95.1025 151.46 95.1025 152.22C95.1025 152.427 95.0825 152.643 95.0425 152.87H91.7125C91.7792 153.31 91.9658 153.647 92.2725 153.88C92.5792 154.113 92.9658 154.23 93.4325 154.23C93.9725 154.23 94.4225 154.103 94.7825 153.85ZM95.1264 156.81V155.98C95.3397 156.087 95.5531 156.14 95.7664 156.14C96.1331 156.14 96.3164 155.903 96.3164 155.43V149.93H97.2964V155.45C97.2964 155.923 97.1697 156.293 96.9164 156.56C96.6697 156.827 96.3164 156.96 95.8564 156.96C95.6431 156.96 95.3997 156.91 95.1264 156.81ZM96.3664 148.82C96.2464 148.7 96.1864 148.553 96.1864 148.38C96.1864 148.207 96.2431 148.06 96.3564 147.94C96.4764 147.82 96.6231 147.76 96.7964 147.76C96.9697 147.76 97.1164 147.82 97.2364 147.94C97.3564 148.06 97.4164 148.207 97.4164 148.38C97.4164 148.547 97.3564 148.69 97.2364 148.81C97.1164 148.93 96.9697 148.99 96.7964 148.99C96.6297 148.99 96.4864 148.933 96.3664 148.82ZM101.348 152.74H100.588C100.215 152.74 99.9316 152.813 99.7383 152.96C99.5516 153.107 99.4583 153.293 99.4583 153.52C99.4583 153.753 99.5316 153.937 99.6783 154.07C99.8249 154.203 100.038 154.27 100.318 154.27C100.638 154.27 100.888 154.183 101.068 154.01C101.255 153.83 101.348 153.597 101.348 153.31V152.74ZM98.7983 151.14V150.19C99.1916 149.963 99.7116 149.85 100.358 149.85C101.685 149.85 102.348 150.493 102.348 151.78V155H101.378V154.4C101.118 154.827 100.662 155.04 100.008 155.04C99.5283 155.04 99.1416 154.903 98.8483 154.63C98.5616 154.35 98.4183 153.997 98.4183 153.57C98.4183 153.083 98.6016 152.707 98.9683 152.44C99.3349 152.167 99.8483 152.03 100.508 152.03H101.348V151.74C101.348 151.393 101.265 151.133 101.098 150.96C100.932 150.78 100.655 150.69 100.268 150.69C99.7283 150.69 99.2383 150.84 98.7983 151.14ZM106.819 149.93H107.799V155H106.819V154.13C106.552 154.75 106.025 155.06 105.239 155.06C104.739 155.06 104.342 154.913 104.049 154.62C103.755 154.32 103.609 153.91 103.609 153.39V149.93H104.599V153.15C104.599 153.497 104.682 153.763 104.849 153.95C105.022 154.13 105.259 154.22 105.559 154.22C105.939 154.22 106.242 154.087 106.469 153.82C106.702 153.553 106.819 153.177 106.819 152.69V149.93ZM110.156 147.93V150.8C110.443 150.173 110.966 149.86 111.726 149.86C112.22 149.86 112.616 150.013 112.916 150.32C113.216 150.627 113.366 151.053 113.366 151.6V155H112.386V151.8C112.386 151.453 112.296 151.187 112.116 151C111.943 150.807 111.713 150.71 111.426 150.71C111.093 150.71 110.796 150.837 110.536 151.09C110.283 151.343 110.156 151.73 110.156 152.25V155H109.176V147.93H110.156ZM117.185 155V149.93H118.175V155H117.185ZM117.235 148.82C117.122 148.7 117.065 148.553 117.065 148.38C117.065 148.207 117.122 148.06 117.235 147.94C117.355 147.82 117.502 147.76 117.675 147.76C117.848 147.76 117.995 147.82 118.115 147.94C118.235 148.06 118.295 148.207 118.295 148.38C118.295 148.547 118.235 148.69 118.115 148.81C117.995 148.93 117.848 148.99 117.675 148.99C117.502 148.99 117.355 148.933 117.235 148.82ZM120.576 149.93V150.8C120.876 150.173 121.403 149.86 122.156 149.86C122.656 149.86 123.053 150.013 123.346 150.32C123.64 150.627 123.786 151.043 123.786 151.57V155H122.806V151.8C122.806 151.447 122.716 151.177 122.536 150.99C122.363 150.803 122.13 150.71 121.836 150.71C121.49 150.71 121.193 150.847 120.946 151.12C120.7 151.387 120.576 151.763 120.576 152.25V155H119.596V149.93H120.576ZM125.144 155V149.93H126.134V155H125.144ZM125.194 148.82C125.081 148.7 125.024 148.553 125.024 148.38C125.024 148.207 125.081 148.06 125.194 147.94C125.314 147.82 125.461 147.76 125.634 147.76C125.807 147.76 125.954 147.82 126.074 147.94C126.194 148.06 126.254 148.207 126.254 148.38C126.254 148.547 126.194 148.69 126.074 148.81C125.954 148.93 125.807 148.99 125.634 148.99C125.461 148.99 125.314 148.933 125.194 148.82ZM155.003 152.49H157.163L157.053 152.15C156.8 151.363 156.593 150.713 156.433 150.2C156.273 149.68 156.177 149.357 156.143 149.23L156.093 149.04C156.02 149.353 155.693 150.39 155.113 152.15L155.003 152.49ZM157.973 155L157.443 153.35H154.723L154.183 155H153.093L155.423 148.26H156.773L159.073 155H157.973ZM161.055 149.93V150.8C161.355 150.173 161.881 149.86 162.635 149.86C163.135 149.86 163.531 150.013 163.825 150.32C164.118 150.627 164.265 151.043 164.265 151.57V155H163.285V151.8C163.285 151.447 163.195 151.177 163.015 150.99C162.841 150.803 162.608 150.71 162.315 150.71C161.968 150.71 161.671 150.847 161.425 151.12C161.178 151.387 161.055 151.763 161.055 152.25V155H160.075V149.93H161.055ZM167.633 154.21C168.019 154.21 168.346 154.063 168.613 153.77C168.879 153.477 169.013 153.03 169.013 152.43C169.013 151.85 168.873 151.42 168.593 151.14C168.319 150.86 168.009 150.72 167.663 150.72C167.269 150.72 166.946 150.877 166.693 151.19C166.439 151.497 166.313 151.937 166.313 152.51C166.313 153.017 166.436 153.427 166.683 153.74C166.936 154.053 167.253 154.21 167.633 154.21ZM169.013 147.93H170.003V155H169.013V154.23C168.659 154.79 168.143 155.07 167.463 155.07C166.796 155.07 166.269 154.82 165.883 154.32C165.496 153.813 165.303 153.203 165.303 152.49C165.303 151.697 165.506 151.06 165.913 150.58C166.319 150.1 166.843 149.86 167.483 149.86C168.143 149.86 168.653 150.14 169.013 150.7V147.93ZM174.053 152.74H173.293C172.92 152.74 172.637 152.813 172.443 152.96C172.257 153.107 172.163 153.293 172.163 153.52C172.163 153.753 172.237 153.937 172.383 154.07C172.53 154.203 172.743 154.27 173.023 154.27C173.343 154.27 173.593 154.183 173.773 154.01C173.96 153.83 174.053 153.597 174.053 153.31V152.74ZM171.503 151.14V150.19C171.897 149.963 172.417 149.85 173.063 149.85C174.39 149.85 175.053 150.493 175.053 151.78V155H174.083V154.4C173.823 154.827 173.367 155.04 172.713 155.04C172.233 155.04 171.847 154.903 171.553 154.63C171.267 154.35 171.123 153.997 171.123 153.57C171.123 153.083 171.307 152.707 171.673 152.44C172.04 152.167 172.553 152.03 173.213 152.03H174.053V151.74C174.053 151.393 173.97 151.133 173.803 150.96C173.637 150.78 173.36 150.69 172.973 150.69C172.433 150.69 171.943 150.84 171.503 151.14ZM181.225 154.21C181.598 154.21 181.911 154.053 182.165 153.74C182.418 153.42 182.545 153.01 182.545 152.51C182.545 151.937 182.418 151.497 182.165 151.19C181.911 150.877 181.588 150.72 181.195 150.72C180.848 150.72 180.535 150.86 180.255 151.14C179.981 151.42 179.845 151.85 179.845 152.43C179.845 153.03 179.978 153.477 180.245 153.77C180.511 154.063 180.838 154.21 181.225 154.21ZM179.845 147.93V150.7C180.205 150.14 180.715 149.86 181.375 149.86C182.015 149.86 182.538 150.1 182.945 150.58C183.351 151.06 183.555 151.697 183.555 152.49C183.555 153.203 183.361 153.813 182.975 154.32C182.588 154.82 182.058 155.07 181.385 155.07C180.711 155.07 180.198 154.79 179.845 154.23V155H178.855V147.93H179.845ZM187.325 152.74H186.565C186.192 152.74 185.908 152.813 185.715 152.96C185.528 153.107 185.435 153.293 185.435 153.52C185.435 153.753 185.508 153.937 185.655 154.07C185.802 154.203 186.015 154.27 186.295 154.27C186.615 154.27 186.865 154.183 187.045 154.01C187.232 153.83 187.325 153.597 187.325 153.31V152.74ZM184.775 151.14V150.19C185.168 149.963 185.688 149.85 186.335 149.85C187.662 149.85 188.325 150.493 188.325 151.78V155H187.355V154.4C187.095 154.827 186.638 155.04 185.985 155.04C185.505 155.04 185.118 154.903 184.825 154.63C184.538 154.35 184.395 153.997 184.395 153.57C184.395 153.083 184.578 152.707 184.945 152.44C185.312 152.167 185.825 152.03 186.485 152.03H187.325V151.74C187.325 151.393 187.242 151.133 187.075 150.96C186.908 150.78 186.632 150.69 186.245 150.69C185.705 150.69 185.215 150.84 184.775 151.14ZM189.685 155V149.93H190.675V155H189.685ZM189.735 148.82C189.622 148.7 189.565 148.553 189.565 148.38C189.565 148.207 189.622 148.06 189.735 147.94C189.855 147.82 190.002 147.76 190.175 147.76C190.348 147.76 190.495 147.82 190.615 147.94C190.735 148.06 190.795 148.207 190.795 148.38C190.795 148.547 190.735 148.69 190.615 148.81C190.495 148.93 190.348 148.99 190.175 148.99C190.002 148.99 189.855 148.933 189.735 148.82ZM192.096 155V148H193.076V155H192.096ZM194.246 152.35L196.236 155H195.066L193.116 152.35L195.026 149.93H196.176L194.246 152.35ZM196.936 152.75V151.91H199.376V152.75H196.936ZM125.956 170.21C126.329 170.21 126.643 170.053 126.896 169.74C127.149 169.42 127.276 169.01 127.276 168.51C127.276 167.937 127.149 167.497 126.896 167.19C126.643 166.877 126.319 166.72 125.926 166.72C125.579 166.72 125.266 166.86 124.986 167.14C124.713 167.42 124.576 167.85 124.576 168.43C124.576 169.03 124.709 169.477 124.976 169.77C125.243 170.063 125.569 170.21 125.956 170.21ZM124.576 163.93V166.7C124.936 166.14 125.446 165.86 126.106 165.86C126.746 165.86 127.269 166.1 127.676 166.58C128.083 167.06 128.286 167.697 128.286 168.49C128.286 169.203 128.093 169.813 127.706 170.32C127.319 170.82 126.789 171.07 126.116 171.07C125.443 171.07 124.929 170.79 124.576 170.23V171H123.586V163.93H124.576ZM132.056 168.74H131.296C130.923 168.74 130.64 168.813 130.446 168.96C130.26 169.107 130.166 169.293 130.166 169.52C130.166 169.753 130.24 169.937 130.386 170.07C130.533 170.203 130.746 170.27 131.026 170.27C131.346 170.27 131.596 170.183 131.776 170.01C131.963 169.83 132.056 169.597 132.056 169.31V168.74ZM129.506 167.14V166.19C129.9 165.963 130.42 165.85 131.066 165.85C132.393 165.85 133.056 166.493 133.056 167.78V171H132.086V170.4C131.826 170.827 131.37 171.04 130.716 171.04C130.236 171.04 129.85 170.903 129.556 170.63C129.27 170.35 129.126 169.997 129.126 169.57C129.126 169.083 129.31 168.707 129.676 168.44C130.043 168.167 130.556 168.03 131.216 168.03H132.056V167.74C132.056 167.393 131.973 167.133 131.806 166.96C131.64 166.78 131.363 166.69 130.976 166.69C130.436 166.69 129.946 166.84 129.506 167.14ZM134.417 171V165.93H135.407V171H134.417ZM134.467 164.82C134.353 164.7 134.297 164.553 134.297 164.38C134.297 164.207 134.353 164.06 134.467 163.94C134.587 163.82 134.733 163.76 134.907 163.76C135.08 163.76 135.227 163.82 135.347 163.94C135.467 164.06 135.527 164.207 135.527 164.38C135.527 164.547 135.467 164.69 135.347 164.81C135.227 164.93 135.08 164.99 134.907 164.99C134.733 164.99 134.587 164.933 134.467 164.82ZM136.828 171V164H137.808V171H136.828ZM138.978 168.35L140.968 171H139.798L137.848 168.35L139.758 165.93H140.908L138.978 168.35ZM147.179 166.1V166.99C146.852 166.797 146.432 166.7 145.919 166.7C145.685 166.7 145.499 166.753 145.359 166.86C145.225 166.967 145.159 167.107 145.159 167.28C145.159 167.327 145.162 167.373 145.169 167.42C145.182 167.46 145.202 167.503 145.229 167.55C145.255 167.59 145.279 167.627 145.299 167.66C145.325 167.687 145.365 167.717 145.419 167.75C145.472 167.783 145.512 167.813 145.539 167.84C145.572 167.86 145.622 167.887 145.689 167.92C145.762 167.953 145.815 167.98 145.849 168C145.882 168.013 145.939 168.04 146.019 168.08C146.105 168.113 146.165 168.137 146.199 168.15C146.592 168.323 146.899 168.52 147.119 168.74C147.345 168.953 147.459 169.24 147.459 169.6C147.459 170.053 147.299 170.41 146.979 170.67C146.659 170.923 146.225 171.05 145.679 171.05C145.079 171.05 144.579 170.95 144.179 170.75V169.82C144.645 170.107 145.129 170.25 145.629 170.25C145.889 170.25 146.089 170.197 146.229 170.09C146.375 169.983 146.449 169.843 146.449 169.67C146.449 169.523 146.392 169.393 146.279 169.28C146.165 169.16 146.049 169.073 145.929 169.02C145.815 168.96 145.619 168.87 145.339 168.75C144.545 168.423 144.149 167.943 144.149 167.31C144.149 166.863 144.315 166.513 144.649 166.26C144.982 166.007 145.399 165.88 145.899 165.88C146.445 165.88 146.872 165.953 147.179 166.1ZM151.148 168.74H150.388C150.015 168.74 149.731 168.813 149.538 168.96C149.351 169.107 149.258 169.293 149.258 169.52C149.258 169.753 149.331 169.937 149.478 170.07C149.625 170.203 149.838 170.27 150.118 170.27C150.438 170.27 150.688 170.183 150.868 170.01C151.055 169.83 151.148 169.597 151.148 169.31V168.74ZM148.598 167.14V166.19C148.991 165.963 149.511 165.85 150.158 165.85C151.485 165.85 152.148 166.493 152.148 167.78V171H151.178V170.4C150.918 170.827 150.461 171.04 149.808 171.04C149.328 171.04 148.941 170.903 148.648 170.63C148.361 170.35 148.218 169.997 148.218 169.57C148.218 169.083 148.401 168.707 148.768 168.44C149.135 168.167 149.648 168.03 150.308 168.03H151.148V167.74C151.148 167.393 151.065 167.133 150.898 166.96C150.731 166.78 150.455 166.69 150.068 166.69C149.528 166.69 149.038 166.84 148.598 167.14ZM152.338 172.81V171.98C152.552 172.087 152.765 172.14 152.978 172.14C153.345 172.14 153.528 171.903 153.528 171.43V165.93H154.508V171.45C154.508 171.923 154.382 172.293 154.128 172.56C153.882 172.827 153.528 172.96 153.068 172.96C152.855 172.96 152.612 172.91 152.338 172.81ZM153.578 164.82C153.458 164.7 153.398 164.553 153.398 164.38C153.398 164.207 153.455 164.06 153.568 163.94C153.688 163.82 153.835 163.76 154.008 163.76C154.182 163.76 154.328 163.82 154.448 163.94C154.568 164.06 154.628 164.207 154.628 164.38C154.628 164.547 154.568 164.69 154.448 164.81C154.328 164.93 154.182 164.99 154.008 164.99C153.842 164.99 153.698 164.933 153.578 164.82ZM158.56 168.74H157.8C157.427 168.74 157.144 168.813 156.95 168.96C156.764 169.107 156.67 169.293 156.67 169.52C156.67 169.753 156.744 169.937 156.89 170.07C157.037 170.203 157.25 170.27 157.53 170.27C157.85 170.27 158.1 170.183 158.28 170.01C158.467 169.83 158.56 169.597 158.56 169.31V168.74ZM156.01 167.14V166.19C156.404 165.963 156.924 165.85 157.57 165.85C158.897 165.85 159.56 166.493 159.56 167.78V171H158.59V170.4C158.33 170.827 157.874 171.04 157.22 171.04C156.74 171.04 156.354 170.903 156.06 170.63C155.774 170.35 155.63 169.997 155.63 169.57C155.63 169.083 155.814 168.707 156.18 168.44C156.547 168.167 157.06 168.03 157.72 168.03H158.56V167.74C158.56 167.393 158.477 167.133 158.31 166.96C158.144 166.78 157.867 166.69 157.48 166.69C156.94 166.69 156.45 166.84 156.01 167.14ZM160.67 170.88C160.544 170.747 160.48 170.587 160.48 170.4C160.48 170.213 160.544 170.057 160.67 169.93C160.804 169.797 160.967 169.73 161.16 169.73C161.347 169.73 161.504 169.797 161.63 169.93C161.764 170.057 161.83 170.213 161.83 170.4C161.83 170.587 161.764 170.747 161.63 170.88C161.504 171.013 161.347 171.08 161.16 171.08C160.967 171.08 160.804 171.013 160.67 170.88Z" fill="#2B2B2B"/>
<path d="M130.026 155V148.26H131.286V155H130.026ZM132.886 151.64L135.396 155H133.806L131.386 151.66L133.716 148.26H135.226L132.886 151.64ZM138.845 152.82H138.225C137.912 152.82 137.672 152.887 137.505 153.02C137.339 153.147 137.255 153.31 137.255 153.51C137.255 153.937 137.502 154.15 137.995 154.15C138.262 154.15 138.469 154.073 138.615 153.92C138.769 153.76 138.845 153.553 138.845 153.3V152.82ZM136.385 151.3V150.19C136.765 149.957 137.312 149.84 138.025 149.84C139.399 149.84 140.085 150.48 140.085 151.76V155H138.895V154.39C138.662 154.823 138.222 155.04 137.575 155.04C137.095 155.04 136.712 154.9 136.425 154.62C136.145 154.34 136.005 153.987 136.005 153.56C136.005 153.08 136.185 152.703 136.545 152.43C136.905 152.157 137.425 152.02 138.105 152.02H138.845V151.71C138.845 151.43 138.772 151.217 138.625 151.07C138.479 150.923 138.229 150.85 137.875 150.85C137.335 150.85 136.839 151 136.385 151.3ZM142.524 149.93V150.83C142.757 150.203 143.184 149.89 143.804 149.89C143.944 149.89 144.057 149.9 144.144 149.92V151.08C143.99 151.013 143.82 150.98 143.634 150.98C143.307 150.98 143.04 151.113 142.834 151.38C142.627 151.647 142.524 151.98 142.524 152.38V155H141.314L141.324 149.93H142.524ZM144.899 155V149.93H146.099V155H144.899ZM144.779 148.41C144.779 148.21 144.849 148.04 144.989 147.9C145.129 147.76 145.299 147.69 145.499 147.69C145.699 147.69 145.869 147.76 146.009 147.9C146.149 148.04 146.219 148.21 146.219 148.41C146.219 148.617 146.149 148.79 146.009 148.93C145.869 149.07 145.699 149.14 145.499 149.14C145.299 149.14 145.129 149.07 144.989 148.93C144.849 148.79 144.779 148.617 144.779 148.41ZM148.647 149.93V150.83C148.88 150.203 149.307 149.89 149.927 149.89C150.067 149.89 150.18 149.9 150.267 149.92V151.08C150.114 151.013 149.944 150.98 149.757 150.98C149.43 150.98 149.164 151.113 148.957 151.38C148.75 151.647 148.647 151.98 148.647 152.38V155H147.437L147.447 149.93H148.647Z" fill="#008C1E"/>
<rect x="82.5" y="200" width="120" height="24" rx="8" fill="#FF1934"/>
<path d="M122.49 213.104L124.594 213.104L124.594 214L121.482 214L121.482 208.608L122.49 208.608L122.49 213.104ZM126.725 211.952L128.245 211.952L128.173 211.712C127.992 211.136 127.842 210.653 127.725 210.264C127.613 209.869 127.544 209.621 127.517 209.52L127.485 209.36C127.437 209.627 127.208 210.413 126.797 211.72L126.725 211.952ZM128.885 214L128.501 212.776L126.461 212.776L126.077 214L125.021 214L126.845 208.608L128.149 208.608L129.973 214L128.885 214ZM130.748 214L130.748 208.608L131.892 208.608L133.188 210.856C133.401 211.224 133.59 211.568 133.756 211.888C133.926 212.203 134.041 212.427 134.1 212.56L134.188 212.76C134.145 212.317 134.124 211.683 134.124 210.856L134.124 208.608L135.14 208.608L135.14 214L133.988 214L132.676 211.76C132.468 211.408 132.278 211.072 132.108 210.752C131.942 210.427 131.828 210.192 131.764 210.048L131.668 209.824C131.726 210.331 131.756 210.973 131.756 211.752L131.756 214L130.748 214ZM135.935 213.84L135.935 212.928C136.138 213.056 136.351 213.12 136.575 213.12C136.986 213.12 137.191 212.901 137.191 212.464L137.191 208.616L138.199 208.616L138.199 212.464C138.199 212.971 138.071 213.355 137.815 213.616C137.559 213.877 137.207 214.008 136.759 214.008C136.423 214.008 136.149 213.952 135.935 213.84ZM142.463 211.936L142.463 208.608L143.471 208.608L143.471 211.928C143.471 212.627 143.281 213.16 142.903 213.528C142.529 213.891 142.015 214.072 141.359 214.072C140.719 214.072 140.207 213.893 139.823 213.536C139.444 213.173 139.255 212.656 139.255 211.984L139.255 208.608L140.263 208.608L140.263 211.976C140.263 212.387 140.364 212.685 140.567 212.872C140.769 213.053 141.033 213.144 141.359 213.144C142.095 213.144 142.463 212.741 142.463 211.936ZM147.96 208.608L147.96 209.44L146.592 209.44L146.592 214L145.576 214L145.576 209.44L144.208 209.44L144.208 208.608L147.96 208.608ZM148.716 214L148.716 208.608L149.724 208.608L149.724 214L148.716 214ZM151.004 211.312L153.012 214L151.74 214L149.804 211.328L151.668 208.608L152.876 208.608L151.004 211.312ZM155.108 211.952L156.628 211.952L156.556 211.712C156.374 211.136 156.225 210.653 156.108 210.264C155.996 209.869 155.926 209.621 155.9 209.52L155.868 209.36C155.82 209.627 155.59 210.413 155.18 211.72L155.108 211.952ZM157.268 214L156.884 212.776L154.844 212.776L154.46 214L153.404 214L155.228 208.608L156.532 208.608L158.356 214L157.268 214ZM159.13 214L159.13 208.608L160.274 208.608L161.57 210.856C161.784 211.224 161.973 211.568 162.138 211.888C162.309 212.203 162.424 212.427 162.482 212.56L162.57 212.76C162.528 212.317 162.506 211.683 162.506 210.856L162.506 208.608L163.522 208.608L163.522 214L162.37 214L161.058 211.76C160.85 211.408 160.661 211.072 160.49 210.752C160.325 210.427 160.21 210.192 160.146 210.048L160.05 209.824C160.109 210.331 160.138 210.973 160.138 211.752L160.138 214L159.13 214Z" fill="white"/>
<defs>
<filter id="filter0_d_1124_4113" x="-4" y="-2" width="293" height="56" filterUnits="userSpaceOnUse" color-interpolation-filters="sRGB">
<feFlood flood-opacity="0" result="BackgroundImageFix"/>
<feColorMatrix in="SourceAlpha" type="matrix" values="0 0 0 0 0 0 0 0 0 0 0 0 0 0 0 0 0 0 127 0" result="hardAlpha"/>
<feOffset dy="2"/>
<feGaussianBlur stdDeviation="2"/>
<feComposite in2="hardAlpha" operator="out"/>
<feColorMatrix type="matrix" values="0 0 0 0 0.168627 0 0 0 0 0.168627 0 0 0 0 0.168627 0 0 0 0.24 0"/>
<feBlend mode="normal" in2="BackgroundImageFix" result="effect1_dropShadow_1124_4113"/>
<feBlend mode="normal" in="SourceGraphic" in2="effect1_dropShadow_1124_4113" result="shape"/>
</filter>
<clipPath id="clip0_1124_4113">
<rect width="24" height="24" fill="white" transform="translate(16 16)"/>
</clipPath>
<clipPath id="clip1_1124_4113">
<rect width="64" height="64" fill="white" transform="translate(110.5 72)"/>
</clipPath>
</defs>
</svg>
