<svg width="285" height="256" viewBox="0 0 285 256" fill="none" xmlns="http://www.w3.org/2000/svg">
<rect width="285" height="256" fill="#D3D3D3"/>
<rect width="285" height="256" rx="16" fill="white"/>
<g filter="url(#filter0_d_1124_4113)">
<path d="M0 16C0 7.16344 7.16344 0 16 0H269C277.837 0 285 7.16344 285 16V48H0V16Z" fill="#FF1934" shape-rendering="crispEdges"/>
<g clip-path="url(#clip0_1124_4113)">
<path d="M37.69 31.57C37.13 31.13 36.52 30.77 35.88 30.5C35.73 30.43 35.67 30.31 35.65 30.21C35.61 30.06 35.65 29.89 35.75 29.77C36.63 28.72 37.15 27.33 37.15 26.06C37.15 23.54 35.1 21.49 32.58 21.49C32.35 21.49 32.11 21.52 31.87 21.56C30.86 20.59 29.5 20 28 20C26.5 20 25.14 20.6 24.13 21.56C23.88 21.52 23.65 21.49 23.42 21.49C20.9 21.49 18.85 23.54 18.85 26.06C18.85 27.33 19.37 28.72 20.25 29.77C20.35 29.89 20.39 30.06 20.35 30.21C20.33 30.3 20.27 30.43 20.12 30.49C19.48 30.76 18.88 31.12 18.31 31.56C17.96 31.83 17.9 32.33 18.17 32.68C18.33 32.88 18.56 32.99 18.8 32.99C18.97 32.99 19.14 32.94 19.29 32.82C19.75 32.47 20.24 32.17 20.75 31.95C21.33 31.7 21.75 31.19 21.9 30.57C22.05 29.93 21.9 29.24 21.47 28.73C20.84 27.97 20.44 26.94 20.44 26.05C20.44 24.56 21.54 23.34 22.98 23.12C22.61 23.86 22.4 24.7 22.4 25.58C22.4 27.15 23.05 28.86 24.13 30.16C24.3 30.37 24.37 30.65 24.31 30.91C24.28 31.05 24.18 31.3 23.89 31.42C22.25 32.13 20.8 33.26 19.71 34.69C19.44 35.04 19.51 35.54 19.86 35.81C20.01 35.92 20.18 35.97 20.34 35.97C20.58 35.97 20.82 35.86 20.98 35.65C21.9 34.44 23.12 33.48 24.52 32.88C25.2 32.59 25.69 32 25.86 31.27C26.04 30.52 25.86 29.72 25.36 29.12C24.52 28.11 24 26.75 24 25.56C24 24.54 24.4 23.62 25.03 22.91C25.03 22.91 25.04 22.9 25.05 22.89C25.78 22.08 26.83 21.56 28 21.56C29.17 21.56 30.22 22.08 30.95 22.88C30.95 22.88 30.96 22.9 30.97 22.91C31.6 23.62 32 24.54 32 25.56C32 26.75 31.48 28.11 30.64 29.12C29.86 30.05 28.93 30.56 28 30.56C27.56 30.56 27.2 30.92 27.2 31.36C27.2 31.8 27.56 32.16 28 32.16C28.77 32.16 29.53 31.94 30.23 31.53C30.45 32.13 30.88 32.62 31.48 32.87C32.87 33.47 34.09 34.43 35.02 35.64C35.18 35.85 35.42 35.96 35.66 35.96C35.83 35.96 36 35.91 36.14 35.8C36.49 35.53 36.56 35.03 36.29 34.68C35.2 33.25 33.76 32.12 32.12 31.41C31.83 31.29 31.73 31.03 31.7 30.9C31.64 30.64 31.7 30.36 31.88 30.15C32.96 28.85 33.61 27.14 33.61 25.57C33.61 24.68 33.4 23.85 33.03 23.11C34.46 23.32 35.57 24.55 35.57 26.04C35.57 26.94 35.18 27.96 34.54 28.72C34.12 29.23 33.96 29.91 34.11 30.56C34.26 31.19 34.68 31.69 35.27 31.94C35.78 32.16 36.27 32.45 36.73 32.81C36.88 32.92 37.05 32.98 37.22 32.98C37.46 32.98 37.7 32.87 37.85 32.67C38.12 32.32 38.06 31.82 37.71 31.55L37.69 31.57Z" fill="white"/>
</g>
<path d="M51.668 28.332H53.936L53.838 27.996C53.5673 27.0813 53.3433 26.302 53.166 25.658C52.998 25.014 52.8953 24.5987 52.858 24.412L52.802 24.132C52.7273 24.6453 52.382 25.9333 51.766 27.996L51.668 28.332ZM55.028 32L54.454 30.068H51.15L50.576 32H48.322L51.472 22.564H54.188L57.338 32H55.028ZM60.55 24.902V26.106C60.7273 25.714 60.998 25.406 61.362 25.182C61.7353 24.9487 62.1787 24.832 62.692 24.832C63.42 24.832 63.9893 25.0513 64.4 25.49C64.8107 25.9193 65.016 26.554 65.016 27.394V32H62.972V27.772C62.972 27.352 62.874 27.0347 62.678 26.82C62.482 26.596 62.2067 26.484 61.852 26.484C61.4787 26.484 61.166 26.6333 60.914 26.932C60.6713 27.2213 60.55 27.66 60.55 28.248V32H58.506V24.902H60.55ZM69.8891 30.376C70.3558 30.376 70.7338 30.194 71.0231 29.83C71.3124 29.466 71.4571 28.9807 71.4571 28.374C71.4571 27.786 71.2984 27.3287 70.9811 27.002C70.6731 26.6753 70.3044 26.512 69.8751 26.512C69.4458 26.512 69.0818 26.6847 68.7831 27.03C68.4938 27.3753 68.3491 27.856 68.3491 28.472C68.3491 29.0413 68.4984 29.5033 68.7971 29.858C69.0958 30.2033 69.4598 30.376 69.8891 30.376ZM71.4571 22.102H73.5011V32H71.4571V30.894C70.9811 31.6873 70.2718 32.084 69.3291 32.084C68.4051 32.084 67.6631 31.7247 67.1031 31.006C66.5524 30.2873 66.2771 29.4287 66.2771 28.43C66.2771 27.31 66.5664 26.428 67.1451 25.784C67.7238 25.14 68.4564 24.818 69.3431 24.818C70.2671 24.818 70.9718 25.21 71.4571 25.994V22.102ZM78.6997 29.088H78.0417C77.6964 29.088 77.4304 29.1627 77.2437 29.312C77.057 29.4613 76.9637 29.6527 76.9637 29.886C76.9637 30.362 77.239 30.6 77.7897 30.6C78.079 30.6 78.303 30.5113 78.4617 30.334C78.6204 30.1567 78.6997 29.914 78.6997 29.606V29.088ZM75.3817 27.086V25.252C75.9417 24.9347 76.749 24.776 77.8037 24.776C78.8117 24.776 79.563 24.9953 80.0577 25.434C80.5524 25.8633 80.7997 26.5353 80.7997 27.45V32H78.7977V31.132C78.499 31.7387 77.911 32.042 77.0337 32.042C76.343 32.042 75.8017 31.846 75.4097 31.454C75.027 31.062 74.8357 30.572 74.8357 29.984C74.8357 29.3027 75.083 28.7753 75.5777 28.402C76.0817 28.0193 76.8237 27.828 77.8037 27.828H78.6997V27.338C78.6997 26.7407 78.303 26.442 77.5097 26.442C76.7444 26.442 76.035 26.6567 75.3817 27.086ZM89.5165 30.376C89.9458 30.376 90.3098 30.2033 90.6085 29.858C90.9071 29.5033 91.0565 29.0413 91.0565 28.472C91.0565 27.856 90.9071 27.3753 90.6085 27.03C90.3191 26.6847 89.9598 26.512 89.5305 26.512C89.1011 26.512 88.7278 26.6753 88.4105 27.002C88.1025 27.3287 87.9485 27.786 87.9485 28.374C87.9485 28.9807 88.0931 29.466 88.3825 29.83C88.6718 30.194 89.0498 30.376 89.5165 30.376ZM87.9485 22.102V25.994C88.4338 25.21 89.1385 24.818 90.0625 24.818C90.9491 24.818 91.6818 25.14 92.2605 25.784C92.8391 26.428 93.1285 27.31 93.1285 28.43C93.1285 29.4287 92.8485 30.2873 92.2885 31.006C91.7378 31.7247 91.0005 32.084 90.0765 32.084C89.1338 32.084 88.4245 31.6873 87.9485 30.894V32H85.9045V22.102H87.9485ZM98.565 27.8V27.632C98.4997 26.8013 98.1357 26.386 97.473 26.386C97.1464 26.386 96.857 26.5073 96.605 26.75C96.353 26.9833 96.185 27.3333 96.101 27.8H98.565ZM100.035 29.886V31.594C99.5497 31.9113 98.8077 32.07 97.809 32.07C96.6424 32.07 95.7324 31.734 95.079 31.062C94.435 30.3807 94.113 29.508 94.113 28.444C94.113 27.3147 94.4257 26.4327 95.051 25.798C95.6857 25.154 96.465 24.832 97.389 24.832C98.341 24.832 99.0924 25.112 99.643 25.672C100.194 26.2227 100.469 27.0487 100.469 28.15C100.469 28.3647 100.432 28.7333 100.357 29.256H96.185C96.325 29.648 96.5677 29.9513 96.913 30.166C97.2584 30.3807 97.6737 30.488 98.159 30.488C98.8777 30.488 99.503 30.2873 100.035 29.886ZM103.958 24.902V26.218C104.089 25.8073 104.303 25.4807 104.602 25.238C104.91 24.986 105.265 24.86 105.666 24.86C105.89 24.86 106.067 24.8787 106.198 24.916V26.848C105.974 26.7453 105.717 26.694 105.428 26.694C104.989 26.694 104.635 26.8573 104.364 27.184C104.093 27.5013 103.958 27.926 103.958 28.458V32H101.914L101.928 24.902H103.958ZM110.624 29.088H109.966C109.62 29.088 109.354 29.1627 109.168 29.312C108.981 29.4613 108.888 29.6527 108.888 29.886C108.888 30.362 109.163 30.6 109.714 30.6C110.003 30.6 110.227 30.5113 110.386 30.334C110.544 30.1567 110.624 29.914 110.624 29.606V29.088ZM107.306 27.086V25.252C107.866 24.9347 108.673 24.776 109.728 24.776C110.736 24.776 111.487 24.9953 111.982 25.434C112.476 25.8633 112.724 26.5353 112.724 27.45V32H110.722V31.132C110.423 31.7387 109.835 32.042 108.958 32.042C108.267 32.042 107.726 31.846 107.334 31.454C106.951 31.062 106.76 30.572 106.76 29.984C106.76 29.3027 107.007 28.7753 107.502 28.402C108.006 28.0193 108.748 27.828 109.728 27.828H110.624V27.338C110.624 26.7407 110.227 26.442 109.434 26.442C108.668 26.442 107.959 26.6567 107.306 27.086ZM117.59 30.376C118.057 30.376 118.435 30.194 118.724 29.83C119.014 29.466 119.158 28.9807 119.158 28.374C119.158 27.786 119 27.3287 118.682 27.002C118.374 26.6753 118.006 26.512 117.576 26.512C117.147 26.512 116.783 26.6847 116.484 27.03C116.195 27.3753 116.05 27.856 116.05 28.472C116.05 29.0413 116.2 29.5033 116.498 29.858C116.797 30.2033 117.161 30.376 117.59 30.376ZM119.158 22.102H121.202V32H119.158V30.894C118.682 31.6873 117.973 32.084 117.03 32.084C116.106 32.084 115.364 31.7247 114.804 31.006C114.254 30.2873 113.978 29.4287 113.978 28.43C113.978 27.31 114.268 26.428 114.846 25.784C115.425 25.14 116.158 24.818 117.044 24.818C117.968 24.818 118.673 25.21 119.158 25.994V22.102ZM126.401 29.088H125.743C125.398 29.088 125.132 29.1627 124.945 29.312C124.758 29.4613 124.665 29.6527 124.665 29.886C124.665 30.362 124.94 30.6 125.491 30.6C125.78 30.6 126.004 30.5113 126.163 30.334C126.322 30.1567 126.401 29.914 126.401 29.606V29.088ZM123.083 27.086V25.252C123.643 24.9347 124.45 24.776 125.505 24.776C126.513 24.776 127.264 24.9953 127.759 25.434C128.254 25.8633 128.501 26.5353 128.501 27.45V32H126.499V31.132C126.2 31.7387 125.612 32.042 124.735 32.042C124.044 32.042 123.503 31.846 123.111 31.454C122.728 31.062 122.537 30.572 122.537 29.984C122.537 29.3027 122.784 28.7753 123.279 28.402C123.783 28.0193 124.525 27.828 125.505 27.828H126.401V27.338C126.401 26.7407 126.004 26.442 125.211 26.442C124.446 26.442 123.736 26.6567 123.083 27.086ZM136.868 30.376C137.334 30.376 137.712 30.194 138.002 29.83C138.291 29.466 138.436 28.9807 138.436 28.374C138.436 27.786 138.277 27.3287 137.96 27.002C137.652 26.6753 137.283 26.512 136.854 26.512C136.424 26.512 136.06 26.6847 135.762 27.03C135.472 27.3753 135.328 27.856 135.328 28.472C135.328 29.0413 135.477 29.5033 135.776 29.858C136.074 30.2033 136.438 30.376 136.868 30.376ZM138.436 22.102H140.48V32H138.436V30.894C137.96 31.6873 137.25 32.084 136.308 32.084C135.384 32.084 134.642 31.7247 134.082 31.006C133.531 30.2873 133.256 29.4287 133.256 28.43C133.256 27.31 133.545 26.428 134.124 25.784C134.702 25.14 135.435 24.818 136.322 24.818C137.246 24.818 137.95 25.21 138.436 25.994V22.102ZM142.234 32V24.902H144.278V32H142.234ZM142.416 23.684C142.183 23.4507 142.066 23.1707 142.066 22.844C142.066 22.5173 142.183 22.2373 142.416 22.004C142.65 21.7707 142.93 21.654 143.256 21.654C143.583 21.654 143.863 21.7707 144.096 22.004C144.33 22.2373 144.446 22.5173 144.446 22.844C144.446 23.1707 144.33 23.4507 144.096 23.684C143.863 23.9173 143.583 24.034 143.256 24.034C142.93 24.034 142.65 23.9173 142.416 23.684ZM151.759 27.24H152.473C153.612 27.24 154.181 26.722 154.181 25.686C154.181 24.7527 153.654 24.286 152.599 24.286H151.759V27.24ZM149.603 22.564H152.851C153.897 22.564 154.741 22.858 155.385 23.446C156.039 24.034 156.365 24.7807 156.365 25.686C156.365 26.722 156.025 27.5247 155.343 28.094C154.671 28.6633 153.841 28.948 152.851 28.948H151.759V32H149.603V22.564ZM160.936 29.088H160.278C159.933 29.088 159.667 29.1627 159.48 29.312C159.293 29.4613 159.2 29.6527 159.2 29.886C159.2 30.362 159.475 30.6 160.026 30.6C160.315 30.6 160.539 30.5113 160.698 30.334C160.857 30.1567 160.936 29.914 160.936 29.606V29.088ZM157.618 27.086V25.252C158.178 24.9347 158.985 24.776 160.04 24.776C161.048 24.776 161.799 24.9953 162.294 25.434C162.789 25.8633 163.036 26.5353 163.036 27.45V32H161.034V31.132C160.735 31.7387 160.147 32.042 159.27 32.042C158.579 32.042 158.038 31.846 157.646 31.454C157.263 31.062 157.072 30.572 157.072 29.984C157.072 29.3027 157.319 28.7753 157.814 28.402C158.318 28.0193 159.06 27.828 160.04 27.828H160.936V27.338C160.936 26.7407 160.539 26.442 159.746 26.442C158.981 26.442 158.271 26.6567 157.618 27.086ZM168.281 30.376C168.729 30.376 169.093 30.208 169.373 29.872C169.653 29.5267 169.793 29.06 169.793 28.472C169.793 27.828 169.648 27.3427 169.359 27.016C169.079 26.68 168.719 26.512 168.281 26.512C167.851 26.512 167.478 26.6753 167.161 27.002C166.843 27.3287 166.685 27.786 166.685 28.374C166.685 28.9807 166.834 29.466 167.133 29.83C167.431 30.194 167.814 30.376 168.281 30.376ZM166.685 24.902V25.994C167.179 25.21 167.893 24.818 168.827 24.818C169.741 24.818 170.474 25.1447 171.025 25.798C171.585 26.442 171.865 27.3193 171.865 28.43C171.865 29.4847 171.594 30.3573 171.053 31.048C170.521 31.7387 169.779 32.084 168.827 32.084C167.865 32.084 167.151 31.706 166.685 30.95V34.618H164.641V24.902H166.685ZM176.713 29.088H176.055C175.71 29.088 175.444 29.1627 175.257 29.312C175.071 29.4613 174.977 29.6527 174.977 29.886C174.977 30.362 175.253 30.6 175.803 30.6C176.093 30.6 176.317 30.5113 176.475 30.334C176.634 30.1567 176.713 29.914 176.713 29.606V29.088ZM173.395 27.086V25.252C173.955 24.9347 174.763 24.776 175.817 24.776C176.825 24.776 177.577 24.9953 178.071 25.434C178.566 25.8633 178.813 26.5353 178.813 27.45V32H176.811V31.132C176.513 31.7387 175.925 32.042 175.047 32.042C174.357 32.042 173.815 31.846 173.423 31.454C173.041 31.062 172.849 30.572 172.849 29.984C172.849 29.3027 173.097 28.7753 173.591 28.402C174.095 28.0193 174.837 27.828 175.817 27.828H176.713V27.338C176.713 26.7407 176.317 26.442 175.523 26.442C174.758 26.442 174.049 26.6567 173.395 27.086ZM182.462 24.902V26.106C182.639 25.714 182.91 25.406 183.274 25.182C183.647 24.9487 184.091 24.832 184.604 24.832C185.332 24.832 185.901 25.0513 186.312 25.49C186.723 25.9193 186.928 26.554 186.928 27.394V32H184.884V27.772C184.884 27.352 184.786 27.0347 184.59 26.82C184.394 26.596 184.119 26.484 183.764 26.484C183.391 26.484 183.078 26.6333 182.826 26.932C182.583 27.2213 182.462 27.66 182.462 28.248V32H180.418V24.902H182.462ZM194.265 27.24H194.979C196.118 27.24 196.687 26.722 196.687 25.686C196.687 24.7527 196.16 24.286 195.105 24.286H194.265V27.24ZM192.109 22.564H195.357C196.403 22.564 197.247 22.858 197.891 23.446C198.545 24.034 198.871 24.7807 198.871 25.686C198.871 26.722 198.531 27.5247 197.849 28.094C197.177 28.6633 196.347 28.948 195.357 28.948H194.265V32H192.109V22.564ZM204.03 27.8V27.632C203.965 26.8013 203.601 26.386 202.938 26.386C202.611 26.386 202.322 26.5073 202.07 26.75C201.818 26.9833 201.65 27.3333 201.566 27.8H204.03ZM205.5 29.886V31.594C205.015 31.9113 204.273 32.07 203.274 32.07C202.107 32.07 201.197 31.734 200.544 31.062C199.9 30.3807 199.578 29.508 199.578 28.444C199.578 27.3147 199.891 26.4327 200.516 25.798C201.151 25.154 201.93 24.832 202.854 24.832C203.806 24.832 204.557 25.112 205.108 25.672C205.659 26.2227 205.934 27.0487 205.934 28.15C205.934 28.3647 205.897 28.7333 205.822 29.256H201.65C201.79 29.648 202.033 29.9513 202.378 30.166C202.723 30.3807 203.139 30.488 203.624 30.488C204.343 30.488 204.968 30.2873 205.5 29.886ZM214.071 32H211.705L209.437 28.514V32H207.393V22.34H209.437V28.08L211.677 24.902H214.029L211.565 28.304L214.071 32ZM219.165 27.8V27.632C219.099 26.8013 218.735 26.386 218.073 26.386C217.746 26.386 217.457 26.5073 217.205 26.75C216.953 26.9833 216.785 27.3333 216.701 27.8H219.165ZM220.635 29.886V31.594C220.149 31.9113 219.407 32.07 218.409 32.07C217.242 32.07 216.332 31.734 215.679 31.062C215.035 30.3807 214.713 29.508 214.713 28.444C214.713 27.3147 215.025 26.4327 215.651 25.798C216.285 25.154 217.065 24.832 217.989 24.832C218.941 24.832 219.692 25.112 220.243 25.672C220.793 26.2227 221.069 27.0487 221.069 28.15C221.069 28.3647 221.031 28.7333 220.957 29.256H216.785C216.925 29.648 217.167 29.9513 217.513 30.166C217.858 30.3807 218.273 30.488 218.759 30.488C219.477 30.488 220.103 30.2873 220.635 29.886ZM224.558 24.902V26.218C224.688 25.8073 224.903 25.4807 225.202 25.238C225.51 24.986 225.864 24.86 226.266 24.86C226.49 24.86 226.667 24.8787 226.798 24.916V26.848C226.574 26.7453 226.317 26.694 226.028 26.694C225.589 26.694 225.234 26.8573 224.964 27.184C224.693 27.5013 224.558 27.926 224.558 28.458V32H222.514L222.528 24.902H224.558ZM226.309 34.548V32.994C226.617 33.134 226.883 33.204 227.107 33.204C227.592 33.204 227.835 32.8913 227.835 32.266V24.902H229.865V32.294C229.865 33.0407 229.655 33.638 229.235 34.086C228.815 34.5433 228.208 34.772 227.415 34.772C227.088 34.772 226.72 34.6973 226.309 34.548ZM228.003 23.684C227.77 23.4507 227.653 23.1707 227.653 22.844C227.653 22.5173 227.77 22.2373 228.003 22.004C228.236 21.7707 228.516 21.654 228.843 21.654C229.17 21.654 229.45 21.7707 229.683 22.004C229.916 22.2373 230.033 22.5173 230.033 22.844C230.033 23.1707 229.916 23.4507 229.683 23.684C229.45 23.9173 229.17 24.034 228.843 24.034C228.516 24.034 228.236 23.9173 228.003 23.684ZM235.065 29.088H234.407C234.062 29.088 233.796 29.1627 233.609 29.312C233.422 29.4613 233.329 29.6527 233.329 29.886C233.329 30.362 233.604 30.6 234.155 30.6C234.444 30.6 234.668 30.5113 234.827 30.334C234.986 30.1567 235.065 29.914 235.065 29.606V29.088ZM231.747 27.086V25.252C232.307 24.9347 233.114 24.776 234.169 24.776C235.177 24.776 235.928 24.9953 236.423 25.434C236.918 25.8633 237.165 26.5353 237.165 27.45V32H235.163V31.132C234.864 31.7387 234.276 32.042 233.399 32.042C232.708 32.042 232.167 31.846 231.775 31.454C231.392 31.062 231.201 30.572 231.201 29.984C231.201 29.3027 231.448 28.7753 231.943 28.402C232.447 28.0193 233.189 27.828 234.169 27.828H235.065V27.338C235.065 26.7407 234.668 26.442 233.875 26.442C233.11 26.442 232.4 26.6567 231.747 27.086ZM242.284 29.088H241.626C241.28 29.088 241.014 29.1627 240.828 29.312C240.641 29.4613 240.548 29.6527 240.548 29.886C240.548 30.362 240.823 30.6 241.374 30.6C241.663 30.6 241.887 30.5113 242.046 30.334C242.204 30.1567 242.284 29.914 242.284 29.606V29.088ZM238.966 27.086V25.252C239.526 24.9347 240.333 24.776 241.388 24.776C242.396 24.776 243.147 24.9953 243.642 25.434C244.136 25.8633 244.384 26.5353 244.384 27.45V32H242.382V31.132C242.083 31.7387 241.495 32.042 240.618 32.042C239.927 32.042 239.386 31.846 238.994 31.454C238.611 31.062 238.42 30.572 238.42 29.984C238.42 29.3027 238.667 28.7753 239.162 28.402C239.666 28.0193 240.408 27.828 241.388 27.828H242.284V27.338C242.284 26.7407 241.887 26.442 241.094 26.442C240.328 26.442 239.619 26.6567 238.966 27.086ZM248.032 24.902V26.106C248.21 25.714 248.48 25.406 248.844 25.182C249.218 24.9487 249.661 24.832 250.174 24.832C250.902 24.832 251.472 25.0513 251.882 25.49C252.293 25.9193 252.498 26.554 252.498 27.394V32H250.454V27.772C250.454 27.352 250.356 27.0347 250.16 26.82C249.964 26.596 249.689 26.484 249.334 26.484C248.961 26.484 248.648 26.6333 248.396 26.932C248.154 27.2213 248.032 27.66 248.032 28.248V32H245.988V24.902H248.032Z" fill="white"/>
</g>
<g clip-path="url(#clip1_1124_4113)">
<path d="M161.926 123.798L158.762 118.823C158.58 118.537 157.616 118.347 156.612 118.399L124.565 120.05C123.561 120.102 122.892 120.376 123.074 120.662L126.238 125.637C126.42 125.923 127.384 126.113 128.388 126.061L160.435 124.41C161.439 124.358 162.108 124.084 161.926 123.798Z" fill="#CCCCCC"/>
<path d="M165.155 108.701L124.675 116.029C123.406 116.258 122.188 115.413 121.959 114.145L117.962 92.0651C117.732 90.7966 118.578 89.578 119.845 89.3489L160.326 82.0215C161.594 81.7918 162.813 82.6372 163.042 83.9051L167.038 105.985C167.268 107.254 166.423 108.472 165.155 108.701ZM120.012 90.2686C119.251 90.4062 118.744 91.1377 118.882 91.8987L122.878 113.979C123.016 114.74 123.748 115.247 124.509 115.109L164.989 107.782C165.75 107.644 166.256 106.912 166.119 106.151L162.122 84.0715C161.984 83.3105 161.253 82.8036 160.492 82.9412L120.012 90.2686Z" fill="#2B2B2B"/>
<path d="M129.694 98.8784L130.034 100.758L132.571 100.299L132.812 101.629L130.275 102.088L130.798 104.976L129.066 105.29L127.723 97.8672L132.501 97.002L132.741 98.3268L129.694 98.8784H129.694Z" fill="#DA011C"/>
<path d="M136.57 103.931L134.838 104.245L133.495 96.8219L135.226 96.5083L136.57 103.931Z" fill="#DA011C"/>
<path d="M144.079 102.572L142.52 102.854C142.232 102.907 142.004 102.835 141.84 102.64L140.217 100.709C140.143 100.628 140.066 100.573 139.987 100.542C139.908 100.513 139.802 100.51 139.67 100.534L139.231 100.614L139.729 103.359L138.007 103.671L136.664 96.2481L139.078 95.8109C139.615 95.7137 140.082 95.6861 140.481 95.7277C140.88 95.7693 141.217 95.8673 141.492 96.0209C141.767 96.1745 141.983 96.3754 142.14 96.6244C142.297 96.8733 142.404 97.1549 142.462 97.4711C142.505 97.7124 142.514 97.9453 142.489 98.1713C142.463 98.3972 142.404 98.6122 142.311 98.8164C142.218 99.0205 142.092 99.2113 141.933 99.3873C141.773 99.5633 141.581 99.7194 141.357 99.8545C141.479 99.8922 141.597 99.9453 141.712 100.014C141.826 100.082 141.933 100.169 142.033 100.274L144.079 102.571V102.572ZM139.709 99.3009C139.944 99.2586 140.137 99.1927 140.292 99.1031C140.446 99.0141 140.566 98.9073 140.652 98.7825C140.738 98.6583 140.792 98.5213 140.815 98.3716C140.836 98.2218 140.833 98.0657 140.804 97.9025C140.745 97.5767 140.593 97.3412 140.347 97.1959C140.101 97.0506 139.756 97.0186 139.311 97.0993L138.618 97.2247L139.016 99.4257L139.709 99.3002V99.3009Z" fill="#DA011C"/>
<path d="M145.334 96.0469L145.647 97.7787L147.981 97.3563L148.211 98.6299L145.878 99.0523L146.198 100.82L149.244 100.268L149.484 101.593L144.706 102.458L143.362 95.0357L148.141 94.1704L148.381 95.4952L145.334 96.0469H145.334Z" fill="#DA011C"/>
<path d="M156.606 96.4688C156.703 97.0057 156.7 97.5171 156.597 98.0041C156.494 98.4912 156.304 98.9302 156.028 99.3225C155.751 99.7148 155.393 100.046 154.953 100.317C154.513 100.588 154.004 100.776 153.427 100.88L150.544 101.403L149.2 93.9798L152.083 93.4576C152.661 93.3532 153.203 93.3513 153.711 93.4524C154.218 93.5536 154.67 93.7385 155.066 94.0067C155.461 94.2748 155.793 94.6192 156.06 95.0396C156.327 95.4595 156.51 95.9363 156.606 96.4694V96.4688ZM154.843 96.7881C154.777 96.4214 154.669 96.0988 154.521 95.8204C154.372 95.542 154.19 95.3168 153.975 95.1433C153.759 94.9699 153.513 94.8515 153.234 94.7881C152.956 94.7248 152.652 94.7222 152.323 94.7824L151.171 94.991L152.035 99.7648L153.187 99.5561C153.516 99.4966 153.8 99.3878 154.038 99.231C154.276 99.0742 154.465 98.8764 154.607 98.639C154.748 98.4016 154.839 98.1264 154.881 97.8134C154.922 97.5004 154.91 97.1593 154.842 96.7894L154.843 96.7881Z" fill="#DA011C"/>
</g>
<path d="M98.3123 155L98.8023 148.26H99.8323L100.722 150.72L101.802 153.86C102.189 152.767 102.569 151.72 102.942 150.72L103.872 148.26H104.902L105.492 155H104.682L104.452 152.34L104.212 149.35C103.859 150.337 103.496 151.333 103.122 152.34L102.182 154.85H101.412L100.522 152.34L99.5023 149.41C99.5023 149.67 99.439 150.647 99.3123 152.34L99.1223 155H98.3123ZM109.647 152.66H108.767C108.34 152.66 108.02 152.743 107.807 152.91C107.593 153.077 107.487 153.287 107.487 153.54C107.487 153.793 107.57 154 107.737 154.16C107.903 154.313 108.147 154.39 108.467 154.39C108.827 154.39 109.113 154.29 109.327 154.09C109.54 153.883 109.647 153.623 109.647 153.31V152.66ZM107.027 150.99V150.2C107.407 149.967 107.907 149.85 108.527 149.85C109.8 149.85 110.437 150.497 110.437 151.79V155H109.657V154.4C109.397 154.833 108.923 155.05 108.237 155.05C107.763 155.05 107.38 154.91 107.087 154.63C106.8 154.35 106.657 153.997 106.657 153.57C106.657 153.083 106.84 152.707 107.207 152.44C107.58 152.167 108.087 152.03 108.727 152.03H109.647V151.77C109.647 151.37 109.557 151.07 109.377 150.87C109.197 150.663 108.893 150.56 108.467 150.56C107.927 150.56 107.447 150.703 107.027 150.99ZM114.568 152.66H113.688C113.262 152.66 112.942 152.743 112.728 152.91C112.515 153.077 112.408 153.287 112.408 153.54C112.408 153.793 112.492 154 112.658 154.16C112.825 154.313 113.068 154.39 113.388 154.39C113.748 154.39 114.035 154.29 114.248 154.09C114.462 153.883 114.568 153.623 114.568 153.31V152.66ZM111.948 150.99V150.2C112.328 149.967 112.828 149.85 113.448 149.85C114.722 149.85 115.358 150.497 115.358 151.79V155H114.578V154.4C114.318 154.833 113.845 155.05 113.158 155.05C112.685 155.05 112.302 154.91 112.008 154.63C111.722 154.35 111.578 153.997 111.578 153.57C111.578 153.083 111.762 152.707 112.128 152.44C112.502 152.167 113.008 152.03 113.648 152.03H114.568V151.77C114.568 151.37 114.478 151.07 114.298 150.87C114.118 150.663 113.815 150.56 113.388 150.56C112.848 150.56 112.368 150.703 111.948 150.99ZM119.18 147.93V148.65C119.02 148.597 118.867 148.57 118.72 148.57C118.507 148.57 118.33 148.643 118.19 148.79C118.057 148.937 117.99 149.163 117.99 149.47V149.93H119.11V150.57H117.99V155H117.2V150.57H116.33V149.93H117.2V149.46C117.2 148.967 117.33 148.577 117.59 148.29C117.857 148.003 118.224 147.86 118.69 147.86C118.85 147.86 119.014 147.883 119.18 147.93ZM119.241 156.23L120.171 153.99H121.221L119.931 156.23H119.241ZM126.059 152.54H128.449L128.319 152.15L127.269 148.91C127.189 149.197 126.829 150.28 126.189 152.16L126.059 152.54ZM129.269 155L128.679 153.23H125.829L125.229 155H124.359L126.709 148.26H127.829L130.139 155H129.269ZM132.003 149.93V150.81C132.303 150.177 132.836 149.86 133.603 149.86C134.096 149.86 134.49 150.01 134.783 150.31C135.076 150.61 135.223 151.01 135.223 151.51V155H134.433V151.72C134.433 151.347 134.336 151.063 134.143 150.87C133.956 150.67 133.71 150.57 133.403 150.57C133.023 150.57 132.693 150.717 132.413 151.01C132.14 151.303 132.003 151.71 132.003 152.23V155H131.223V149.93H132.003ZM138.554 154.36C138.967 154.36 139.317 154.207 139.604 153.9C139.897 153.593 140.044 153.103 140.044 152.43C140.044 151.79 139.894 151.32 139.594 151.02C139.294 150.72 138.964 150.57 138.604 150.57C138.184 150.57 137.834 150.74 137.554 151.08C137.28 151.413 137.144 151.893 137.144 152.52C137.144 153.067 137.277 153.51 137.544 153.85C137.81 154.19 138.147 154.36 138.554 154.36ZM140.044 147.93H140.834V155H140.044V154.25C139.684 154.803 139.164 155.08 138.484 155.08C137.81 155.08 137.28 154.83 136.894 154.33C136.514 153.83 136.324 153.223 136.324 152.51C136.324 151.717 136.527 151.077 136.934 150.59C137.34 150.097 137.864 149.85 138.504 149.85C139.164 149.85 139.677 150.133 140.044 150.7V147.93ZM145.027 152.66H144.147C143.721 152.66 143.401 152.743 143.187 152.91C142.974 153.077 142.867 153.287 142.867 153.54C142.867 153.793 142.951 154 143.117 154.16C143.284 154.313 143.527 154.39 143.847 154.39C144.207 154.39 144.494 154.29 144.707 154.09C144.921 153.883 145.027 153.623 145.027 153.31V152.66ZM142.407 150.99V150.2C142.787 149.967 143.287 149.85 143.907 149.85C145.181 149.85 145.817 150.497 145.817 151.79V155H145.037V154.4C144.777 154.833 144.304 155.05 143.617 155.05C143.144 155.05 142.761 154.91 142.467 154.63C142.181 154.35 142.037 153.997 142.037 153.57C142.037 153.083 142.221 152.707 142.587 152.44C142.961 152.167 143.467 152.03 144.107 152.03H145.027V151.77C145.027 151.37 144.937 151.07 144.757 150.87C144.577 150.663 144.274 150.56 143.847 150.56C143.307 150.56 142.827 150.703 142.407 150.99ZM150.94 153.95H151.83C152.537 153.95 153.074 153.733 153.44 153.3C153.807 152.86 153.99 152.273 153.99 151.54C153.99 150.893 153.794 150.363 153.4 149.95C153.014 149.53 152.484 149.32 151.81 149.32H150.94V153.95ZM149.65 148.26H151.85C152.857 148.26 153.68 148.57 154.32 149.19C154.96 149.81 155.28 150.593 155.28 151.54C155.28 152.573 154.97 153.41 154.35 154.05C153.73 154.683 152.897 155 151.85 155H149.65V148.26ZM156.478 155V148.26H157.738V155H156.478ZM160.481 151.69H161.191C161.651 151.69 161.994 151.58 162.221 151.36C162.447 151.14 162.561 150.843 162.561 150.47C162.561 150.103 162.447 149.817 162.221 149.61C161.994 149.397 161.661 149.29 161.221 149.29H160.481V151.69ZM159.221 148.26H161.331C162.091 148.26 162.697 148.467 163.151 148.88C163.611 149.293 163.841 149.823 163.841 150.47C163.841 151.157 163.604 151.703 163.131 152.11C162.664 152.51 162.074 152.71 161.361 152.71H160.481V155H159.221V148.26ZM166.047 153.97H168.797V155H164.777V148.26H168.757V149.29H166.047V151.12H168.457V152.14H166.047V153.97ZM174.97 148.54V149.77C174.464 149.477 173.904 149.33 173.29 149.33C172.677 149.33 172.164 149.54 171.75 149.96C171.344 150.373 171.14 150.93 171.14 151.63C171.14 152.33 171.344 152.887 171.75 153.3C172.164 153.713 172.7 153.92 173.36 153.92C173.994 153.92 174.534 153.753 174.98 153.42V154.68C174.567 154.947 173.987 155.08 173.24 155.08C172.24 155.08 171.414 154.767 170.76 154.14C170.114 153.507 169.79 152.67 169.79 151.63C169.79 150.61 170.11 149.78 170.75 149.14C171.397 148.493 172.227 148.17 173.24 148.17C173.98 148.17 174.557 148.293 174.97 148.54ZM177.864 152.44H179.764L179.674 152.14C179.447 151.42 179.261 150.817 179.114 150.33C178.974 149.837 178.887 149.527 178.854 149.4L178.814 149.2C178.754 149.533 178.467 150.517 177.954 152.15L177.864 152.44ZM180.564 155L180.084 153.47H177.534L177.054 155H175.734L178.014 148.26H179.644L181.924 155H180.564ZM187.142 148.26V149.3H185.432V155H184.162V149.3H182.452V148.26H187.142ZM68.2658 168.54H70.6558L70.5258 168.15L69.4758 164.91C69.3958 165.197 69.0358 166.28 68.3958 168.16L68.2658 168.54ZM71.4758 171L70.8858 169.23H68.0358L67.4358 171H66.5658L68.9158 164.26H70.0358L72.3458 171H71.4758ZM74.2102 165.93V166.81C74.5102 166.177 75.0435 165.86 75.8102 165.86C76.3035 165.86 76.6969 166.01 76.9902 166.31C77.2835 166.61 77.4302 167.01 77.4302 167.51V171H76.6402V167.72C76.6402 167.347 76.5435 167.063 76.3502 166.87C76.1635 166.67 75.9169 166.57 75.6102 166.57C75.2302 166.57 74.9002 166.717 74.6202 167.01C74.3469 167.303 74.2102 167.71 74.2102 168.23V171H73.4302V165.93H74.2102ZM80.7606 170.36C81.1739 170.36 81.5239 170.207 81.8106 169.9C82.1039 169.593 82.2506 169.103 82.2506 168.43C82.2506 167.79 82.1006 167.32 81.8006 167.02C81.5006 166.72 81.1706 166.57 80.8106 166.57C80.3906 166.57 80.0406 166.74 79.7606 167.08C79.4873 167.413 79.3506 167.893 79.3506 168.52C79.3506 169.067 79.4839 169.51 79.7506 169.85C80.0173 170.19 80.3539 170.36 80.7606 170.36ZM82.2506 163.93H83.0406V171H82.2506V170.25C81.8906 170.803 81.3706 171.08 80.6906 171.08C80.0173 171.08 79.4873 170.83 79.1006 170.33C78.7206 169.83 78.5306 169.223 78.5306 168.51C78.5306 167.717 78.7339 167.077 79.1406 166.59C79.5473 166.097 80.0706 165.85 80.7106 165.85C81.3706 165.85 81.8839 166.133 82.2506 166.7V163.93ZM87.2344 168.66H86.3544C85.9277 168.66 85.6077 168.743 85.3944 168.91C85.1811 169.077 85.0744 169.287 85.0744 169.54C85.0744 169.793 85.1577 170 85.3244 170.16C85.4911 170.313 85.7344 170.39 86.0544 170.39C86.4144 170.39 86.7011 170.29 86.9144 170.09C87.1277 169.883 87.2344 169.623 87.2344 169.31V168.66ZM84.6144 166.99V166.2C84.9944 165.967 85.4944 165.85 86.1144 165.85C87.3877 165.85 88.0244 166.497 88.0244 167.79V171H87.2444V170.4C86.9844 170.833 86.5111 171.05 85.8244 171.05C85.3511 171.05 84.9677 170.91 84.6744 170.63C84.3877 170.35 84.2444 169.997 84.2444 169.57C84.2444 169.083 84.4277 168.707 84.7944 168.44C85.1677 168.167 85.6744 168.03 86.3144 168.03H87.2344V167.77C87.2344 167.37 87.1444 167.07 86.9644 166.87C86.7844 166.663 86.4811 166.56 86.0544 166.56C85.5144 166.56 85.0344 166.703 84.6144 166.99ZM93.7977 170.36C94.211 170.36 94.561 170.207 94.8477 169.9C95.141 169.593 95.2877 169.103 95.2877 168.43C95.2877 167.79 95.1377 167.32 94.8377 167.02C94.5377 166.72 94.2077 166.57 93.8477 166.57C93.4277 166.57 93.0777 166.74 92.7977 167.08C92.5244 167.413 92.3877 167.893 92.3877 168.52C92.3877 169.067 92.521 169.51 92.7877 169.85C93.0544 170.19 93.391 170.36 93.7977 170.36ZM95.2877 163.93H96.0777V171H95.2877V170.25C94.9277 170.803 94.4077 171.08 93.7277 171.08C93.0544 171.08 92.5244 170.83 92.1377 170.33C91.7577 169.83 91.5677 169.223 91.5677 168.51C91.5677 167.717 91.771 167.077 92.1777 166.59C92.5844 166.097 93.1077 165.85 93.7477 165.85C94.4077 165.85 94.921 166.133 95.2877 166.7V163.93ZM100.272 168.66H99.3915C98.9649 168.66 98.6449 168.743 98.4315 168.91C98.2182 169.077 98.1115 169.287 98.1115 169.54C98.1115 169.793 98.1949 170 98.3615 170.16C98.5282 170.313 98.7715 170.39 99.0915 170.39C99.4515 170.39 99.7382 170.29 99.9515 170.09C100.165 169.883 100.272 169.623 100.272 169.31V168.66ZM97.6515 166.99V166.2C98.0315 165.967 98.5315 165.85 99.1515 165.85C100.425 165.85 101.062 166.497 101.062 167.79V171H100.282V170.4C100.022 170.833 99.5482 171.05 98.8615 171.05C98.3882 171.05 98.0049 170.91 97.7115 170.63C97.4249 170.35 97.2815 169.997 97.2815 169.57C97.2815 169.083 97.4649 168.707 97.8315 168.44C98.2049 168.167 98.7115 168.03 99.3515 168.03H100.272V167.77C100.272 167.37 100.182 167.07 100.002 166.87C99.8215 166.663 99.5182 166.56 99.0915 166.56C98.5515 166.56 98.0715 166.703 97.6515 166.99ZM104.693 170.36C105.12 170.36 105.47 170.193 105.743 169.86C106.017 169.52 106.153 169.04 106.153 168.42C106.153 167.867 106.02 167.42 105.753 167.08C105.487 166.74 105.15 166.57 104.743 166.57C104.337 166.57 103.983 166.72 103.683 167.02C103.39 167.313 103.243 167.797 103.243 168.47C103.243 169.117 103.393 169.593 103.693 169.9C103.993 170.207 104.327 170.36 104.693 170.36ZM103.243 165.93V166.7C103.597 166.133 104.12 165.85 104.813 165.85C105.487 165.85 106.013 166.097 106.393 166.59C106.78 167.077 106.973 167.687 106.973 168.42C106.973 169.2 106.77 169.84 106.363 170.34C105.963 170.833 105.44 171.08 104.793 171.08C104.127 171.08 103.61 170.797 103.243 170.23V172.97H102.463V165.93H103.243ZM110.867 168.66H109.987C109.561 168.66 109.241 168.743 109.027 168.91C108.814 169.077 108.707 169.287 108.707 169.54C108.707 169.793 108.791 170 108.957 170.16C109.124 170.313 109.367 170.39 109.687 170.39C110.047 170.39 110.334 170.29 110.547 170.09C110.761 169.883 110.867 169.623 110.867 169.31V168.66ZM108.247 166.99V166.2C108.627 165.967 109.127 165.85 109.747 165.85C111.021 165.85 111.657 166.497 111.657 167.79V171H110.877V170.4C110.617 170.833 110.144 171.05 109.457 171.05C108.984 171.05 108.601 170.91 108.307 170.63C108.021 170.35 107.877 169.997 107.877 169.57C107.877 169.083 108.061 168.707 108.427 168.44C108.801 168.167 109.307 168.03 109.947 168.03H110.867V167.77C110.867 167.37 110.777 167.07 110.597 166.87C110.417 166.663 110.114 166.56 109.687 166.56C109.147 166.56 108.667 166.703 108.247 166.99ZM114.149 166.57V169.54C114.149 170.08 114.402 170.35 114.909 170.35C115.169 170.35 115.399 170.273 115.599 170.12V170.87C115.379 170.99 115.132 171.05 114.859 171.05C113.859 171.05 113.359 170.54 113.359 169.52V166.57H112.549V165.93H113.359V164.67H114.149V165.93H115.549V166.57H114.149ZM119.972 165.93V166.75C120.252 166.157 120.729 165.86 121.402 165.86C122.182 165.86 122.675 166.19 122.882 166.85C123.029 166.53 123.232 166.287 123.492 166.12C123.759 165.947 124.055 165.86 124.382 165.86C124.909 165.86 125.305 166.01 125.572 166.31C125.839 166.61 125.972 167.013 125.972 167.52V171H125.182V167.72C125.182 166.953 124.859 166.57 124.212 166.57C123.892 166.57 123.605 166.717 123.352 167.01C123.099 167.297 122.972 167.703 122.972 168.23V171H122.182V167.72C122.182 166.953 121.859 166.57 121.212 166.57C120.892 166.57 120.605 166.717 120.352 167.01C120.099 167.297 119.972 167.703 119.972 168.23V171H119.192V165.93H119.972ZM130.606 168.14V167.94C130.606 167.52 130.492 167.187 130.266 166.94C130.039 166.687 129.726 166.56 129.326 166.56C128.946 166.56 128.622 166.697 128.356 166.97C128.089 167.243 127.932 167.633 127.886 168.14H130.606ZM131.076 170V170.74C130.682 170.947 130.202 171.05 129.636 171.05C128.869 171.05 128.249 170.817 127.776 170.35C127.309 169.877 127.076 169.253 127.076 168.48C127.076 167.673 127.286 167.037 127.706 166.57C128.126 166.103 128.666 165.87 129.326 165.87C129.959 165.87 130.462 166.073 130.836 166.48C131.209 166.887 131.396 167.463 131.396 168.21C131.396 168.423 131.379 168.62 131.346 168.8H127.886C127.946 169.3 128.136 169.683 128.456 169.95C128.776 170.217 129.196 170.35 129.716 170.35C130.282 170.35 130.736 170.233 131.076 170ZM132.64 171V163.93H133.43V171H132.64ZM137.664 168.66H136.784C136.357 168.66 136.037 168.743 135.824 168.91C135.611 169.077 135.504 169.287 135.504 169.54C135.504 169.793 135.587 170 135.754 170.16C135.921 170.313 136.164 170.39 136.484 170.39C136.844 170.39 137.131 170.29 137.344 170.09C137.557 169.883 137.664 169.623 137.664 169.31V168.66ZM135.044 166.99V166.2C135.424 165.967 135.924 165.85 136.544 165.85C137.817 165.85 138.454 166.497 138.454 167.79V171H137.674V170.4C137.414 170.833 136.941 171.05 136.254 171.05C135.781 171.05 135.397 170.91 135.104 170.63C134.817 170.35 134.674 169.997 134.674 169.57C134.674 169.083 134.857 168.707 135.224 168.44C135.597 168.167 136.104 168.03 136.744 168.03H137.664V167.77C137.664 167.37 137.574 167.07 137.394 166.87C137.214 166.663 136.911 166.56 136.484 166.56C135.944 166.56 135.464 166.703 135.044 166.99ZM140.636 165.93V166.81C140.936 166.177 141.469 165.86 142.236 165.86C142.729 165.86 143.123 166.01 143.416 166.31C143.709 166.61 143.856 167.01 143.856 167.51V171H143.066V167.72C143.066 167.347 142.969 167.063 142.776 166.87C142.589 166.67 142.343 166.57 142.036 166.57C141.656 166.57 141.326 166.717 141.046 167.01C140.773 167.303 140.636 167.71 140.636 168.23V171H139.856V165.93H140.636ZM144.066 172.8V172.1C144.32 172.207 144.546 172.26 144.746 172.26C145.12 172.26 145.306 172.017 145.306 171.53V165.93H146.086V171.55C146.086 171.99 145.97 172.333 145.736 172.58C145.51 172.827 145.193 172.95 144.786 172.95C144.566 172.95 144.326 172.9 144.066 172.8ZM145.316 164.71C145.223 164.61 145.176 164.487 145.176 164.34C145.176 164.193 145.223 164.07 145.316 163.97C145.416 163.87 145.54 163.82 145.686 163.82C145.833 163.82 145.956 163.87 146.056 163.97C146.156 164.07 146.206 164.193 146.206 164.34C146.206 164.487 146.156 164.61 146.056 164.71C145.956 164.803 145.833 164.85 145.686 164.85C145.54 164.85 145.416 164.803 145.316 164.71ZM150.682 165.93H151.472V171H150.682V170.12C150.415 170.747 149.885 171.06 149.092 171.06C148.592 171.06 148.195 170.913 147.902 170.62C147.615 170.32 147.472 169.92 147.472 169.42V165.93H148.262V169.22C148.262 169.587 148.355 169.867 148.542 170.06C148.728 170.253 148.982 170.35 149.302 170.35C149.722 170.35 150.055 170.203 150.302 169.91C150.555 169.617 150.682 169.22 150.682 168.72V165.93ZM154.022 166.57V169.54C154.022 170.08 154.275 170.35 154.782 170.35C155.042 170.35 155.272 170.273 155.472 170.12V170.87C155.252 170.99 155.005 171.05 154.732 171.05C153.732 171.05 153.232 170.54 153.232 169.52V166.57H152.422V165.93H153.232V164.67H154.022V165.93H155.422V166.57H154.022ZM156.624 171V163.97H157.404V171H156.624ZM158.434 168.34L160.494 171H159.544L157.504 168.34L159.494 165.93H160.434L158.434 168.34ZM164.158 168.66H163.278C162.852 168.66 162.532 168.743 162.318 168.91C162.105 169.077 161.998 169.287 161.998 169.54C161.998 169.793 162.082 170 162.248 170.16C162.415 170.313 162.658 170.39 162.978 170.39C163.338 170.39 163.625 170.29 163.838 170.09C164.052 169.883 164.158 169.623 164.158 169.31V168.66ZM161.538 166.99V166.2C161.918 165.967 162.418 165.85 163.038 165.85C164.312 165.85 164.948 166.497 164.948 167.79V171H164.168V170.4C163.908 170.833 163.435 171.05 162.748 171.05C162.275 171.05 161.892 170.91 161.598 170.63C161.312 170.35 161.168 169.997 161.168 169.57C161.168 169.083 161.352 168.707 161.718 168.44C162.092 168.167 162.598 168.03 163.238 168.03H164.158V167.77C164.158 167.37 164.068 167.07 163.888 166.87C163.708 166.663 163.405 166.56 162.978 166.56C162.438 166.56 161.958 166.703 161.538 166.99ZM167.13 165.93V166.81C167.43 166.177 167.963 165.86 168.73 165.86C169.223 165.86 169.617 166.01 169.91 166.31C170.203 166.61 170.35 167.01 170.35 167.51V171H169.56V167.72C169.56 167.347 169.463 167.063 169.27 166.87C169.083 166.67 168.837 166.57 168.53 166.57C168.15 166.57 167.82 166.717 167.54 167.01C167.267 167.303 167.13 167.71 167.13 168.23V171H166.35V165.93H167.13ZM176.422 170.36C176.849 170.36 177.199 170.193 177.472 169.86C177.745 169.52 177.882 169.04 177.882 168.42C177.882 167.867 177.749 167.42 177.482 167.08C177.215 166.74 176.879 166.57 176.472 166.57C176.065 166.57 175.712 166.72 175.412 167.02C175.119 167.313 174.972 167.797 174.972 168.47C174.972 169.117 175.122 169.593 175.422 169.9C175.722 170.207 176.055 170.36 176.422 170.36ZM174.972 165.93V166.7C175.325 166.133 175.849 165.85 176.542 165.85C177.215 165.85 177.742 166.097 178.122 166.59C178.509 167.077 178.702 167.687 178.702 168.42C178.702 169.2 178.499 169.84 178.092 170.34C177.692 170.833 177.169 171.08 176.522 171.08C175.855 171.08 175.339 170.797 174.972 170.23V172.97H174.192V165.93H174.972ZM183.096 168.14V167.94C183.096 167.52 182.982 167.187 182.756 166.94C182.529 166.687 182.216 166.56 181.816 166.56C181.436 166.56 181.112 166.697 180.846 166.97C180.579 167.243 180.422 167.633 180.376 168.14H183.096ZM183.566 170V170.74C183.172 170.947 182.692 171.05 182.126 171.05C181.359 171.05 180.739 170.817 180.266 170.35C179.799 169.877 179.566 169.253 179.566 168.48C179.566 167.673 179.776 167.037 180.196 166.57C180.616 166.103 181.156 165.87 181.816 165.87C182.449 165.87 182.952 166.073 183.326 166.48C183.699 166.887 183.886 167.463 183.886 168.21C183.886 168.423 183.869 168.62 183.836 168.8H180.376C180.436 169.3 180.626 169.683 180.946 169.95C181.266 170.217 181.686 170.35 182.206 170.35C182.772 170.35 183.226 170.233 183.566 170ZM185.87 165.93V166.82C186.137 166.193 186.597 165.88 187.25 165.88C187.37 165.88 187.464 165.887 187.53 165.9V166.68C187.39 166.633 187.247 166.61 187.1 166.61C186.747 166.61 186.454 166.773 186.22 167.1C185.987 167.427 185.87 167.803 185.87 168.23V171H185.08L185.09 165.93H185.87ZM189.132 165.93V166.75C189.412 166.157 189.889 165.86 190.562 165.86C191.342 165.86 191.835 166.19 192.042 166.85C192.189 166.53 192.392 166.287 192.652 166.12C192.919 165.947 193.215 165.86 193.542 165.86C194.069 165.86 194.465 166.01 194.732 166.31C194.999 166.61 195.132 167.013 195.132 167.52V171H194.342V167.72C194.342 166.953 194.019 166.57 193.372 166.57C193.052 166.57 192.765 166.717 192.512 167.01C192.259 167.297 192.132 167.703 192.132 168.23V171H191.342V167.72C191.342 166.953 191.019 166.57 190.372 166.57C190.052 166.57 189.765 166.717 189.512 167.01C189.259 167.297 189.132 167.703 189.132 168.23V171H188.352V165.93H189.132ZM199.266 168.66H198.386C197.959 168.66 197.639 168.743 197.426 168.91C197.212 169.077 197.106 169.287 197.106 169.54C197.106 169.793 197.189 170 197.356 170.16C197.522 170.313 197.766 170.39 198.086 170.39C198.446 170.39 198.732 170.29 198.946 170.09C199.159 169.883 199.266 169.623 199.266 169.31V168.66ZM196.646 166.99V166.2C197.026 165.967 197.526 165.85 198.146 165.85C199.419 165.85 200.056 166.497 200.056 167.79V171H199.276V170.4C199.016 170.833 198.542 171.05 197.856 171.05C197.382 171.05 196.999 170.91 196.706 170.63C196.419 170.35 196.276 169.997 196.276 169.57C196.276 169.083 196.459 168.707 196.826 168.44C197.199 168.167 197.706 168.03 198.346 168.03H199.266V167.77C199.266 167.37 199.176 167.07 198.996 166.87C198.816 166.663 198.512 166.56 198.086 166.56C197.546 166.56 197.066 166.703 196.646 166.99ZM201.498 171V165.93H202.288V171H201.498ZM201.518 164.71C201.424 164.61 201.378 164.487 201.378 164.34C201.378 164.193 201.424 164.07 201.518 163.97C201.618 163.87 201.741 163.82 201.888 163.82C202.034 163.82 202.158 163.87 202.258 163.97C202.358 164.07 202.408 164.193 202.408 164.34C202.408 164.487 202.358 164.61 202.258 164.71C202.158 164.803 202.034 164.85 201.888 164.85C201.741 164.85 201.618 164.803 201.518 164.71ZM204.572 165.93V166.81C204.872 166.177 205.405 165.86 206.172 165.86C206.665 165.86 207.058 166.01 207.352 166.31C207.645 166.61 207.792 167.01 207.792 167.51V171H207.002V167.72C207.002 167.347 206.905 167.063 206.712 166.87C206.525 166.67 206.278 166.57 205.972 166.57C205.592 166.57 205.262 166.717 204.982 167.01C204.708 167.303 204.572 167.71 204.572 168.23V171H203.792V165.93H204.572ZM211.922 168.66H211.042C210.615 168.66 210.295 168.743 210.082 168.91C209.869 169.077 209.762 169.287 209.762 169.54C209.762 169.793 209.845 170 210.012 170.16C210.179 170.313 210.422 170.39 210.742 170.39C211.102 170.39 211.389 170.29 211.602 170.09C211.815 169.883 211.922 169.623 211.922 169.31V168.66ZM209.302 166.99V166.2C209.682 165.967 210.182 165.85 210.802 165.85C212.075 165.85 212.712 166.497 212.712 167.79V171H211.932V170.4C211.672 170.833 211.199 171.05 210.512 171.05C210.039 171.05 209.655 170.91 209.362 170.63C209.075 170.35 208.932 169.997 208.932 169.57C208.932 169.083 209.115 168.707 209.482 168.44C209.855 168.167 210.362 168.03 211.002 168.03H211.922V167.77C211.922 167.37 211.832 167.07 211.652 166.87C211.472 166.663 211.169 166.56 210.742 166.56C210.202 166.56 209.722 166.703 209.302 166.99ZM214.894 165.93V166.81C215.194 166.177 215.727 165.86 216.494 165.86C216.987 165.86 217.38 166.01 217.674 166.31C217.967 166.61 218.114 167.01 218.114 167.51V171H217.324V167.72C217.324 167.347 217.227 167.063 217.034 166.87C216.847 166.67 216.6 166.57 216.294 166.57C215.914 166.57 215.584 166.717 215.304 167.01C215.03 167.303 214.894 167.71 214.894 168.23V171H214.114V165.93H214.894ZM97.3767 182.1V182.85C97.0701 182.663 96.6501 182.57 96.1167 182.57C95.8501 182.57 95.6367 182.633 95.4767 182.76C95.3234 182.88 95.2467 183.037 95.2467 183.23C95.2467 183.35 95.2701 183.457 95.3167 183.55C95.3634 183.637 95.4534 183.723 95.5867 183.81C95.7267 183.897 95.8267 183.957 95.8867 183.99C95.9534 184.017 96.0934 184.077 96.3067 184.17C96.7334 184.343 97.0667 184.54 97.3067 184.76C97.5467 184.98 97.6667 185.277 97.6667 185.65C97.6667 186.083 97.5134 186.427 97.2067 186.68C96.9067 186.933 96.4934 187.06 95.9667 187.06C95.3534 187.06 94.8567 186.957 94.4767 186.75V185.98C94.9234 186.247 95.4034 186.38 95.9167 186.38C96.2234 186.38 96.4567 186.32 96.6167 186.2C96.7767 186.08 96.8567 185.917 96.8567 185.71C96.8567 185.47 96.7667 185.283 96.5867 185.15C96.4134 185.017 96.1201 184.867 95.7067 184.7C95.3267 184.553 95.0201 184.37 94.7867 184.15C94.5601 183.93 94.4467 183.633 94.4467 183.26C94.4467 182.84 94.6034 182.507 94.9167 182.26C95.2367 182.007 95.6334 181.88 96.1067 181.88C96.6334 181.88 97.0567 181.953 97.3767 182.1ZM101.968 184.14V183.94C101.968 183.52 101.854 183.187 101.628 182.94C101.401 182.687 101.088 182.56 100.688 182.56C100.308 182.56 99.9845 182.697 99.7178 182.97C99.4511 183.243 99.2945 183.633 99.2478 184.14H101.968ZM102.438 186V186.74C102.044 186.947 101.564 187.05 100.998 187.05C100.231 187.05 99.6111 186.817 99.1378 186.35C98.6711 185.877 98.4378 185.253 98.4378 184.48C98.4378 183.673 98.6478 183.037 99.0678 182.57C99.4878 182.103 100.028 181.87 100.688 181.87C101.321 181.87 101.824 182.073 102.198 182.48C102.571 182.887 102.758 183.463 102.758 184.21C102.758 184.423 102.741 184.62 102.708 184.8H99.2478C99.3078 185.3 99.4978 185.683 99.8178 185.95C100.138 186.217 100.558 186.35 101.078 186.35C101.644 186.35 102.098 186.233 102.438 186ZM106.272 186.36C106.679 186.36 107.016 186.19 107.282 185.85C107.549 185.51 107.682 185.067 107.682 184.52C107.682 183.893 107.542 183.413 107.262 183.08C106.989 182.74 106.642 182.57 106.222 182.57C105.862 182.57 105.532 182.72 105.232 183.02C104.932 183.32 104.782 183.79 104.782 184.43C104.782 185.103 104.926 185.593 105.212 185.9C105.506 186.207 105.859 186.36 106.272 186.36ZM104.782 179.93V182.69C105.149 182.13 105.662 181.85 106.322 181.85C106.962 181.85 107.486 182.097 107.892 182.59C108.299 183.077 108.502 183.717 108.502 184.51C108.502 185.223 108.309 185.83 107.922 186.33C107.542 186.83 107.016 187.08 106.342 187.08C105.662 187.08 105.142 186.803 104.782 186.25V187H103.992V179.93H104.782ZM112.396 184.66H111.516C111.089 184.66 110.769 184.743 110.556 184.91C110.342 185.077 110.236 185.287 110.236 185.54C110.236 185.793 110.319 186 110.486 186.16C110.652 186.313 110.896 186.39 111.216 186.39C111.576 186.39 111.862 186.29 112.076 186.09C112.289 185.883 112.396 185.623 112.396 185.31V184.66ZM109.776 182.99V182.2C110.156 181.967 110.656 181.85 111.276 181.85C112.549 181.85 113.186 182.497 113.186 183.79V187H112.406V186.4C112.146 186.833 111.672 187.05 110.986 187.05C110.512 187.05 110.129 186.91 109.836 186.63C109.549 186.35 109.406 185.997 109.406 185.57C109.406 185.083 109.589 184.707 109.956 184.44C110.329 184.167 110.836 184.03 111.476 184.03H112.396V183.77C112.396 183.37 112.306 183.07 112.126 182.87C111.946 182.663 111.642 182.56 111.216 182.56C110.676 182.56 110.196 182.703 109.776 182.99ZM116.487 186.17C116.854 186.17 117.177 186.03 117.457 185.75C117.744 185.463 117.887 185.04 117.887 184.48C117.887 183.833 117.751 183.353 117.477 183.04C117.204 182.727 116.887 182.57 116.527 182.57C116.094 182.57 115.751 182.743 115.497 183.09C115.244 183.43 115.117 183.877 115.117 184.43C115.117 184.997 115.257 185.43 115.537 185.73C115.817 186.023 116.134 186.17 116.487 186.17ZM117.887 181.93H118.677V186.59C118.677 187.363 118.464 187.943 118.037 188.33C117.611 188.723 117.061 188.92 116.387 188.92C115.774 188.92 115.251 188.817 114.817 188.61V187.82C115.244 188.067 115.744 188.19 116.317 188.19C116.804 188.19 117.187 188.06 117.467 187.8C117.747 187.54 117.887 187.133 117.887 186.58V186.01C117.554 186.583 117.057 186.87 116.397 186.87C115.817 186.87 115.321 186.657 114.907 186.23C114.501 185.803 114.297 185.21 114.297 184.45C114.297 183.697 114.487 183.077 114.867 182.59C115.247 182.103 115.744 181.86 116.357 181.86C117.051 181.86 117.561 182.163 117.887 182.77V181.93ZM122.806 184.66H121.926C121.499 184.66 121.179 184.743 120.966 184.91C120.752 185.077 120.646 185.287 120.646 185.54C120.646 185.793 120.729 186 120.896 186.16C121.062 186.313 121.306 186.39 121.626 186.39C121.986 186.39 122.272 186.29 122.486 186.09C122.699 185.883 122.806 185.623 122.806 185.31V184.66ZM120.186 182.99V182.2C120.566 181.967 121.066 181.85 121.686 181.85C122.959 181.85 123.596 182.497 123.596 183.79V187H122.816V186.4C122.556 186.833 122.082 187.05 121.396 187.05C120.922 187.05 120.539 186.91 120.246 186.63C119.959 186.35 119.816 185.997 119.816 185.57C119.816 185.083 119.999 184.707 120.366 184.44C120.739 184.167 121.246 184.03 121.886 184.03H122.806V183.77C122.806 183.37 122.716 183.07 122.536 182.87C122.356 182.663 122.052 182.56 121.626 182.56C121.086 182.56 120.606 182.703 120.186 182.99ZM125.038 187V181.93H125.828V187H125.038ZM125.058 180.71C124.964 180.61 124.918 180.487 124.918 180.34C124.918 180.193 124.964 180.07 125.058 179.97C125.158 179.87 125.281 179.82 125.428 179.82C125.574 179.82 125.698 179.87 125.798 179.97C125.898 180.07 125.948 180.193 125.948 180.34C125.948 180.487 125.898 180.61 125.798 180.71C125.698 180.803 125.574 180.85 125.428 180.85C125.281 180.85 125.158 180.803 125.058 180.71Z" fill="#2B2B2B"/>
<path d="M132.003 186.36C132.43 186.36 132.78 186.193 133.053 185.86C133.326 185.52 133.463 185.04 133.463 184.42C133.463 183.867 133.33 183.42 133.063 183.08C132.796 182.74 132.46 182.57 132.053 182.57C131.646 182.57 131.293 182.72 130.993 183.02C130.7 183.313 130.553 183.797 130.553 184.47C130.553 185.117 130.703 185.593 131.003 185.9C131.303 186.207 131.636 186.36 132.003 186.36ZM130.553 181.93V182.7C130.906 182.133 131.43 181.85 132.123 181.85C132.796 181.85 133.323 182.097 133.703 182.59C134.09 183.077 134.283 183.687 134.283 184.42C134.283 185.2 134.08 185.84 133.673 186.34C133.273 186.833 132.75 187.08 132.103 187.08C131.436 187.08 130.92 186.797 130.553 186.23V188.97H129.773V181.93H130.553ZM138.677 184.14V183.94C138.677 183.52 138.563 183.187 138.337 182.94C138.11 182.687 137.797 182.56 137.397 182.56C137.017 182.56 136.693 182.697 136.427 182.97C136.16 183.243 136.003 183.633 135.957 184.14H138.677ZM139.147 186V186.74C138.753 186.947 138.273 187.05 137.707 187.05C136.94 187.05 136.32 186.817 135.847 186.35C135.38 185.877 135.147 185.253 135.147 184.48C135.147 183.673 135.357 183.037 135.777 182.57C136.197 182.103 136.737 181.87 137.397 181.87C138.03 181.87 138.533 182.073 138.907 182.48C139.28 182.887 139.467 183.463 139.467 184.21C139.467 184.423 139.45 184.62 139.417 184.8H135.957C136.017 185.3 136.207 185.683 136.527 185.95C136.847 186.217 137.267 186.35 137.787 186.35C138.353 186.35 138.807 186.233 139.147 186ZM141.451 181.93V182.81C141.751 182.177 142.285 181.86 143.051 181.86C143.545 181.86 143.938 182.01 144.231 182.31C144.525 182.61 144.671 183.01 144.671 183.51V187H143.881V183.72C143.881 183.347 143.785 183.063 143.591 182.87C143.405 182.67 143.158 182.57 142.851 182.57C142.471 182.57 142.141 182.717 141.861 183.01C141.588 183.303 141.451 183.71 141.451 184.23V187H140.671V181.93H141.451ZM147.972 186.17C148.338 186.17 148.662 186.03 148.942 185.75C149.228 185.463 149.372 185.04 149.372 184.48C149.372 183.833 149.235 183.353 148.962 183.04C148.688 182.727 148.372 182.57 148.012 182.57C147.578 182.57 147.235 182.743 146.982 183.09C146.728 183.43 146.602 183.877 146.602 184.43C146.602 184.997 146.742 185.43 147.022 185.73C147.302 186.023 147.618 186.17 147.972 186.17ZM149.372 181.93H150.162V186.59C150.162 187.363 149.948 187.943 149.522 188.33C149.095 188.723 148.545 188.92 147.872 188.92C147.258 188.92 146.735 188.817 146.302 188.61V187.82C146.728 188.067 147.228 188.19 147.802 188.19C148.288 188.19 148.672 188.06 148.952 187.8C149.232 187.54 149.372 187.133 149.372 186.58V186.01C149.038 186.583 148.542 186.87 147.882 186.87C147.302 186.87 146.805 186.657 146.392 186.23C145.985 185.803 145.782 185.21 145.782 184.45C145.782 183.697 145.972 183.077 146.352 182.59C146.732 182.103 147.228 181.86 147.842 181.86C148.535 181.86 149.045 182.163 149.372 182.77V181.93ZM154.29 184.66H153.41C152.983 184.66 152.663 184.743 152.45 184.91C152.237 185.077 152.13 185.287 152.13 185.54C152.13 185.793 152.213 186 152.38 186.16C152.547 186.313 152.79 186.39 153.11 186.39C153.47 186.39 153.757 186.29 153.97 186.09C154.183 185.883 154.29 185.623 154.29 185.31V184.66ZM151.67 182.99V182.2C152.05 181.967 152.55 181.85 153.17 181.85C154.443 181.85 155.08 182.497 155.08 183.79V187H154.3V186.4C154.04 186.833 153.567 187.05 152.88 187.05C152.407 187.05 152.023 186.91 151.73 186.63C151.443 186.35 151.3 185.997 151.3 185.57C151.3 185.083 151.483 184.707 151.85 184.44C152.223 184.167 152.73 184.03 153.37 184.03H154.29V183.77C154.29 183.37 154.2 183.07 154.02 182.87C153.84 182.663 153.537 182.56 153.11 182.56C152.57 182.56 152.09 182.703 151.67 182.99ZM157.262 181.93V182.81C157.562 182.177 158.095 181.86 158.862 181.86C159.355 181.86 159.749 182.01 160.042 182.31C160.335 182.61 160.482 183.01 160.482 183.51V187H159.692V183.72C159.692 183.347 159.595 183.063 159.402 182.87C159.215 182.67 158.969 182.57 158.662 182.57C158.282 182.57 157.952 182.717 157.672 183.01C157.399 183.303 157.262 183.71 157.262 184.23V187H156.482V181.93H157.262ZM163.782 186.17C164.149 186.17 164.472 186.03 164.752 185.75C165.039 185.463 165.182 185.04 165.182 184.48C165.182 183.833 165.046 183.353 164.772 183.04C164.499 182.727 164.182 182.57 163.822 182.57C163.389 182.57 163.046 182.743 162.792 183.09C162.539 183.43 162.412 183.877 162.412 184.43C162.412 184.997 162.552 185.43 162.832 185.73C163.112 186.023 163.429 186.17 163.782 186.17ZM165.182 181.93H165.972V186.59C165.972 187.363 165.759 187.943 165.332 188.33C164.906 188.723 164.356 188.92 163.682 188.92C163.069 188.92 162.546 188.817 162.112 188.61V187.82C162.539 188.067 163.039 188.19 163.612 188.19C164.099 188.19 164.482 188.06 164.762 187.8C165.042 187.54 165.182 187.133 165.182 186.58V186.01C164.849 186.583 164.352 186.87 163.692 186.87C163.112 186.87 162.616 186.657 162.202 186.23C161.796 185.803 161.592 185.21 161.592 184.45C161.592 183.697 161.782 183.077 162.162 182.59C162.542 182.103 163.039 181.86 163.652 181.86C164.346 181.86 164.856 182.163 165.182 182.77V181.93ZM169.271 186.17C169.637 186.17 169.961 186.03 170.241 185.75C170.527 185.463 170.671 185.04 170.671 184.48C170.671 183.833 170.534 183.353 170.261 183.04C169.987 182.727 169.671 182.57 169.311 182.57C168.877 182.57 168.534 182.743 168.281 183.09C168.027 183.43 167.901 183.877 167.901 184.43C167.901 184.997 168.041 185.43 168.321 185.73C168.601 186.023 168.917 186.17 169.271 186.17ZM170.671 181.93H171.461V186.59C171.461 187.363 171.247 187.943 170.821 188.33C170.394 188.723 169.844 188.92 169.171 188.92C168.557 188.92 168.034 188.817 167.601 188.61V187.82C168.027 188.067 168.527 188.19 169.101 188.19C169.587 188.19 169.971 188.06 170.251 187.8C170.531 187.54 170.671 187.133 170.671 186.58V186.01C170.337 186.583 169.841 186.87 169.181 186.87C168.601 186.87 168.104 186.657 167.691 186.23C167.284 185.803 167.081 185.21 167.081 184.45C167.081 183.697 167.271 183.077 167.651 182.59C168.031 182.103 168.527 181.86 169.141 181.86C169.834 181.86 170.344 182.163 170.671 182.77V181.93ZM176.009 181.93H176.799V187H176.009V186.12C175.742 186.747 175.212 187.06 174.419 187.06C173.919 187.06 173.522 186.913 173.229 186.62C172.942 186.32 172.799 185.92 172.799 185.42V181.93H173.589V185.22C173.589 185.587 173.682 185.867 173.869 186.06C174.056 186.253 174.309 186.35 174.629 186.35C175.049 186.35 175.382 186.203 175.629 185.91C175.882 185.617 176.009 185.22 176.009 184.72V181.93ZM179.039 181.93V182.82C179.306 182.193 179.766 181.88 180.419 181.88C180.539 181.88 180.633 181.887 180.699 181.9V182.68C180.559 182.633 180.416 182.61 180.269 182.61C179.916 182.61 179.623 182.773 179.389 183.1C179.156 183.427 179.039 183.803 179.039 184.23V187H178.249L178.259 181.93H179.039ZM184.251 184.66H183.371C182.944 184.66 182.624 184.743 182.411 184.91C182.198 185.077 182.091 185.287 182.091 185.54C182.091 185.793 182.174 186 182.341 186.16C182.508 186.313 182.751 186.39 183.071 186.39C183.431 186.39 183.718 186.29 183.931 186.09C184.144 185.883 184.251 185.623 184.251 185.31V184.66ZM181.631 182.99V182.2C182.011 181.967 182.511 181.85 183.131 181.85C184.404 181.85 185.041 182.497 185.041 183.79V187H184.261V186.4C184.001 186.833 183.528 187.05 182.841 187.05C182.368 187.05 181.984 186.91 181.691 186.63C181.404 186.35 181.261 185.997 181.261 185.57C181.261 185.083 181.444 184.707 181.811 184.44C182.184 184.167 182.691 184.03 183.331 184.03H184.251V183.77C184.251 183.37 184.161 183.07 183.981 182.87C183.801 182.663 183.498 182.56 183.071 182.56C182.531 182.56 182.051 182.703 181.631 182.99ZM187.223 181.93V182.81C187.523 182.177 188.056 181.86 188.823 181.86C189.316 181.86 189.71 182.01 190.003 182.31C190.296 182.61 190.443 183.01 190.443 183.51V187H189.653V183.72C189.653 183.347 189.556 183.063 189.363 182.87C189.176 182.67 188.93 182.57 188.623 182.57C188.243 182.57 187.913 182.717 187.633 183.01C187.36 183.303 187.223 183.71 187.223 184.23V187H186.443V181.93H187.223Z" fill="#FF1934"/>
<rect x="82.5" y="200" width="120" height="24" rx="8" fill="#FF1934"/>
<path d="M122.49 213.104L124.594 213.104L124.594 214L121.482 214L121.482 208.608L122.49 208.608L122.49 213.104ZM126.725 211.952L128.245 211.952L128.173 211.712C127.992 211.136 127.842 210.653 127.725 210.264C127.613 209.869 127.544 209.621 127.517 209.52L127.485 209.36C127.437 209.627 127.208 210.413 126.797 211.72L126.725 211.952ZM128.885 214L128.501 212.776L126.461 212.776L126.077 214L125.021 214L126.845 208.608L128.149 208.608L129.973 214L128.885 214ZM130.748 214L130.748 208.608L131.892 208.608L133.188 210.856C133.401 211.224 133.59 211.568 133.756 211.888C133.926 212.203 134.041 212.427 134.1 212.56L134.188 212.76C134.145 212.317 134.124 211.683 134.124 210.856L134.124 208.608L135.14 208.608L135.14 214L133.988 214L132.676 211.76C132.468 211.408 132.278 211.072 132.108 210.752C131.942 210.427 131.828 210.192 131.764 210.048L131.668 209.824C131.726 210.331 131.756 210.973 131.756 211.752L131.756 214L130.748 214ZM135.935 213.84L135.935 212.928C136.138 213.056 136.351 213.12 136.575 213.12C136.986 213.12 137.191 212.901 137.191 212.464L137.191 208.616L138.199 208.616L138.199 212.464C138.199 212.971 138.071 213.355 137.815 213.616C137.559 213.877 137.207 214.008 136.759 214.008C136.423 214.008 136.149 213.952 135.935 213.84ZM142.463 211.936L142.463 208.608L143.471 208.608L143.471 211.928C143.471 212.627 143.281 213.16 142.903 213.528C142.529 213.891 142.015 214.072 141.359 214.072C140.719 214.072 140.207 213.893 139.823 213.536C139.444 213.173 139.255 212.656 139.255 211.984L139.255 208.608L140.263 208.608L140.263 211.976C140.263 212.387 140.364 212.685 140.567 212.872C140.769 213.053 141.033 213.144 141.359 213.144C142.095 213.144 142.463 212.741 142.463 211.936ZM147.96 208.608L147.96 209.44L146.592 209.44L146.592 214L145.576 214L145.576 209.44L144.208 209.44L144.208 208.608L147.96 208.608ZM148.716 214L148.716 208.608L149.724 208.608L149.724 214L148.716 214ZM151.004 211.312L153.012 214L151.74 214L149.804 211.328L151.668 208.608L152.876 208.608L151.004 211.312ZM155.108 211.952L156.628 211.952L156.556 211.712C156.374 211.136 156.225 210.653 156.108 210.264C155.996 209.869 155.926 209.621 155.9 209.52L155.868 209.36C155.82 209.627 155.59 210.413 155.18 211.72L155.108 211.952ZM157.268 214L156.884 212.776L154.844 212.776L154.46 214L153.404 214L155.228 208.608L156.532 208.608L158.356 214L157.268 214ZM159.13 214L159.13 208.608L160.274 208.608L161.57 210.856C161.784 211.224 161.973 211.568 162.138 211.888C162.309 212.203 162.424 212.427 162.482 212.56L162.57 212.76C162.528 212.317 162.506 211.683 162.506 210.856L162.506 208.608L163.522 208.608L163.522 214L162.37 214L161.058 211.76C160.85 211.408 160.661 211.072 160.49 210.752C160.325 210.427 160.21 210.192 160.146 210.048L160.05 209.824C160.109 210.331 160.138 210.973 160.138 211.752L160.138 214L159.13 214Z" fill="white"/>
<defs>
<filter id="filter0_d_1124_4113" x="-4" y="-2" width="293" height="56" filterUnits="userSpaceOnUse" color-interpolation-filters="sRGB">
<feFlood flood-opacity="0" result="BackgroundImageFix"/>
<feColorMatrix in="SourceAlpha" type="matrix" values="0 0 0 0 0 0 0 0 0 0 0 0 0 0 0 0 0 0 127 0" result="hardAlpha"/>
<feOffset dy="2"/>
<feGaussianBlur stdDeviation="2"/>
<feComposite in2="hardAlpha" operator="out"/>
<feColorMatrix type="matrix" values="0 0 0 0 0.168627 0 0 0 0 0.168627 0 0 0 0 0.168627 0 0 0 0.24 0"/>
<feBlend mode="normal" in2="BackgroundImageFix" result="effect1_dropShadow_1124_4113"/>
<feBlend mode="normal" in="SourceGraphic" in2="effect1_dropShadow_1124_4113" result="shape"/>
</filter>
<clipPath id="clip0_1124_4113">
<rect width="24" height="24" fill="white" transform="translate(16 16)"/>
</clipPath>
<clipPath id="clip1_1124_4113">
<rect width="64" height="64" fill="white" transform="translate(110.5 72)"/>
</clipPath>
</defs>
</svg>
