<svg width="338" height="375" viewBox="0 0 338 375" fill="none" xmlns="http://www.w3.org/2000/svg">
<rect width="338" height="375" fill="#D3D3D3"/>
<rect x="26.5" y="59" width="285" height="256" rx="16" fill="white"/>
<g filter="url(#filter0_d_1124_4113)">
<path d="M26.5 75C26.5 66.1634 33.6634 59 42.5 59H295.5C304.337 59 311.5 66.1634 311.5 75V107H26.5V75Z" fill="#FF1934" shape-rendering="crispEdges"/>
<g clip-path="url(#clip0_1124_4113)">
<path d="M64.19 90.57C63.63 90.13 63.02 89.77 62.38 89.5C62.23 89.43 62.17 89.31 62.15 89.21C62.11 89.06 62.15 88.89 62.25 88.77C63.13 87.72 63.65 86.33 63.65 85.06C63.65 82.54 61.6 80.49 59.08 80.49C58.85 80.49 58.61 80.52 58.37 80.56C57.36 79.59 56 79 54.5 79C53 79 51.64 79.6 50.63 80.56C50.38 80.52 50.15 80.49 49.92 80.49C47.4 80.49 45.35 82.54 45.35 85.06C45.35 86.33 45.87 87.72 46.75 88.77C46.85 88.89 46.89 89.06 46.85 89.21C46.83 89.3 46.77 89.43 46.62 89.49C45.98 89.76 45.38 90.12 44.81 90.56C44.46 90.83 44.4 91.33 44.67 91.68C44.83 91.88 45.06 91.99 45.3 91.99C45.47 91.99 45.64 91.94 45.79 91.82C46.25 91.47 46.74 91.17 47.25 90.95C47.83 90.7 48.25 90.19 48.4 89.57C48.55 88.93 48.4 88.24 47.97 87.73C47.34 86.97 46.94 85.94 46.94 85.05C46.94 83.56 48.04 82.34 49.48 82.12C49.11 82.86 48.9 83.7 48.9 84.58C48.9 86.15 49.55 87.86 50.63 89.16C50.8 89.37 50.87 89.65 50.81 89.91C50.78 90.05 50.68 90.3 50.39 90.42C48.75 91.13 47.3 92.26 46.21 93.69C45.94 94.04 46.01 94.54 46.36 94.81C46.51 94.92 46.68 94.97 46.84 94.97C47.08 94.97 47.32 94.86 47.48 94.65C48.4 93.44 49.62 92.48 51.02 91.88C51.7 91.59 52.19 91 52.36 90.27C52.54 89.52 52.36 88.72 51.86 88.12C51.02 87.11 50.5 85.75 50.5 84.56C50.5 83.54 50.9 82.62 51.53 81.91C51.53 81.91 51.54 81.9 51.55 81.89C52.28 81.08 53.33 80.56 54.5 80.56C55.67 80.56 56.72 81.08 57.45 81.88C57.45 81.88 57.46 81.9 57.47 81.91C58.1 82.62 58.5 83.54 58.5 84.56C58.5 85.75 57.98 87.11 57.14 88.12C56.36 89.05 55.43 89.56 54.5 89.56C54.06 89.56 53.7 89.92 53.7 90.36C53.7 90.8 54.06 91.16 54.5 91.16C55.27 91.16 56.03 90.94 56.73 90.53C56.95 91.13 57.38 91.62 57.98 91.87C59.37 92.47 60.59 93.43 61.52 94.64C61.68 94.85 61.92 94.96 62.16 94.96C62.33 94.96 62.5 94.91 62.64 94.8C62.99 94.53 63.06 94.03 62.79 93.68C61.7 92.25 60.26 91.12 58.62 90.41C58.33 90.29 58.23 90.03 58.2 89.9C58.14 89.64 58.2 89.36 58.38 89.15C59.46 87.85 60.11 86.14 60.11 84.57C60.11 83.68 59.9 82.85 59.53 82.11C60.96 82.32 62.07 83.55 62.07 85.04C62.07 85.94 61.68 86.96 61.04 87.72C60.62 88.23 60.46 88.91 60.61 89.56C60.76 90.19 61.18 90.69 61.77 90.94C62.28 91.16 62.77 91.45 63.23 91.81C63.38 91.92 63.55 91.98 63.72 91.98C63.96 91.98 64.2 91.87 64.35 91.67C64.62 91.32 64.56 90.82 64.21 90.55L64.19 90.57Z" fill="white"/>
</g>
<path d="M78.168 87.332H80.436L80.338 86.996C80.0673 86.0813 79.8433 85.302 79.666 84.658C79.498 84.014 79.3953 83.5987 79.358 83.412L79.302 83.132C79.2273 83.6453 78.882 84.9333 78.266 86.996L78.168 87.332ZM81.528 91L80.954 89.068H77.65L77.076 91H74.822L77.972 81.564H80.688L83.838 91H81.528ZM87.05 83.902V85.106C87.2273 84.714 87.498 84.406 87.862 84.182C88.2353 83.9487 88.6787 83.832 89.192 83.832C89.92 83.832 90.4893 84.0513 90.9 84.49C91.3107 84.9193 91.516 85.554 91.516 86.394V91H89.472V86.772C89.472 86.352 89.374 86.0347 89.178 85.82C88.982 85.596 88.7067 85.484 88.352 85.484C87.9787 85.484 87.666 85.6333 87.414 85.932C87.1713 86.2213 87.05 86.66 87.05 87.248V91H85.006V83.902H87.05ZM96.3891 89.376C96.8558 89.376 97.2338 89.194 97.5231 88.83C97.8124 88.466 97.9571 87.9807 97.9571 87.374C97.9571 86.786 97.7984 86.3287 97.4811 86.002C97.1731 85.6753 96.8044 85.512 96.3751 85.512C95.9458 85.512 95.5818 85.6847 95.2831 86.03C94.9938 86.3753 94.8491 86.856 94.8491 87.472C94.8491 88.0413 94.9984 88.5033 95.2971 88.858C95.5958 89.2033 95.9598 89.376 96.3891 89.376ZM97.9571 81.102H100.001V91H97.9571V89.894C97.4811 90.6873 96.7718 91.084 95.8291 91.084C94.9051 91.084 94.1631 90.7247 93.6031 90.006C93.0524 89.2873 92.7771 88.4287 92.7771 87.43C92.7771 86.31 93.0664 85.428 93.6451 84.784C94.2238 84.14 94.9564 83.818 95.8431 83.818C96.7671 83.818 97.4718 84.21 97.9571 84.994V81.102ZM105.2 88.088H104.542C104.196 88.088 103.93 88.1627 103.744 88.312C103.557 88.4613 103.464 88.6527 103.464 88.886C103.464 89.362 103.739 89.6 104.29 89.6C104.579 89.6 104.803 89.5113 104.962 89.334C105.12 89.1567 105.2 88.914 105.2 88.606V88.088ZM101.882 86.086V84.252C102.442 83.9347 103.249 83.776 104.304 83.776C105.312 83.776 106.063 83.9953 106.558 84.434C107.052 84.8633 107.3 85.5353 107.3 86.45V91H105.298V90.132C104.999 90.7387 104.411 91.042 103.534 91.042C102.843 91.042 102.302 90.846 101.91 90.454C101.527 90.062 101.336 89.572 101.336 88.984C101.336 88.3027 101.583 87.7753 102.078 87.402C102.582 87.0193 103.324 86.828 104.304 86.828H105.2V86.338C105.2 85.7407 104.803 85.442 104.01 85.442C103.244 85.442 102.535 85.6567 101.882 86.086ZM116.016 89.376C116.446 89.376 116.81 89.2033 117.108 88.858C117.407 88.5033 117.556 88.0413 117.556 87.472C117.556 86.856 117.407 86.3753 117.108 86.03C116.819 85.6847 116.46 85.512 116.03 85.512C115.601 85.512 115.228 85.6753 114.91 86.002C114.602 86.3287 114.448 86.786 114.448 87.374C114.448 87.9807 114.593 88.466 114.882 88.83C115.172 89.194 115.55 89.376 116.016 89.376ZM114.448 81.102V84.994C114.934 84.21 115.638 83.818 116.562 83.818C117.449 83.818 118.182 84.14 118.76 84.784C119.339 85.428 119.628 86.31 119.628 87.43C119.628 88.4287 119.348 89.2873 118.788 90.006C118.238 90.7247 117.5 91.084 116.576 91.084C115.634 91.084 114.924 90.6873 114.448 89.894V91H112.404V81.102H114.448ZM125.065 86.8V86.632C125 85.8013 124.636 85.386 123.973 85.386C123.646 85.386 123.357 85.5073 123.105 85.75C122.853 85.9833 122.685 86.3333 122.601 86.8H125.065ZM126.535 88.886V90.594C126.05 90.9113 125.308 91.07 124.309 91.07C123.142 91.07 122.232 90.734 121.579 90.062C120.935 89.3807 120.613 88.508 120.613 87.444C120.613 86.3147 120.926 85.4327 121.551 84.798C122.186 84.154 122.965 83.832 123.889 83.832C124.841 83.832 125.592 84.112 126.143 84.672C126.694 85.2227 126.969 86.0487 126.969 87.15C126.969 87.3647 126.932 87.7333 126.857 88.256H122.685C122.825 88.648 123.068 88.9513 123.413 89.166C123.758 89.3807 124.174 89.488 124.659 89.488C125.378 89.488 126.003 89.2873 126.535 88.886ZM130.458 83.902V85.218C130.589 84.8073 130.803 84.4807 131.102 84.238C131.41 83.986 131.765 83.86 132.166 83.86C132.39 83.86 132.567 83.8787 132.698 83.916V85.848C132.474 85.7453 132.217 85.694 131.928 85.694C131.489 85.694 131.135 85.8573 130.864 86.184C130.593 86.5013 130.458 86.926 130.458 87.458V91H128.414L128.428 83.902H130.458ZM137.124 88.088H136.466C136.12 88.088 135.854 88.1627 135.668 88.312C135.481 88.4613 135.388 88.6527 135.388 88.886C135.388 89.362 135.663 89.6 136.214 89.6C136.503 89.6 136.727 89.5113 136.886 89.334C137.044 89.1567 137.124 88.914 137.124 88.606V88.088ZM133.806 86.086V84.252C134.366 83.9347 135.173 83.776 136.228 83.776C137.236 83.776 137.987 83.9953 138.482 84.434C138.976 84.8633 139.224 85.5353 139.224 86.45V91H137.222V90.132C136.923 90.7387 136.335 91.042 135.458 91.042C134.767 91.042 134.226 90.846 133.834 90.454C133.451 90.062 133.26 89.572 133.26 88.984C133.26 88.3027 133.507 87.7753 134.002 87.402C134.506 87.0193 135.248 86.828 136.228 86.828H137.124V86.338C137.124 85.7407 136.727 85.442 135.934 85.442C135.168 85.442 134.459 85.6567 133.806 86.086ZM144.09 89.376C144.557 89.376 144.935 89.194 145.224 88.83C145.514 88.466 145.658 87.9807 145.658 87.374C145.658 86.786 145.5 86.3287 145.182 86.002C144.874 85.6753 144.506 85.512 144.076 85.512C143.647 85.512 143.283 85.6847 142.984 86.03C142.695 86.3753 142.55 86.856 142.55 87.472C142.55 88.0413 142.7 88.5033 142.998 88.858C143.297 89.2033 143.661 89.376 144.09 89.376ZM145.658 81.102H147.702V91H145.658V89.894C145.182 90.6873 144.473 91.084 143.53 91.084C142.606 91.084 141.864 90.7247 141.304 90.006C140.754 89.2873 140.478 88.4287 140.478 87.43C140.478 86.31 140.768 85.428 141.346 84.784C141.925 84.14 142.658 83.818 143.544 83.818C144.468 83.818 145.173 84.21 145.658 84.994V81.102ZM152.901 88.088H152.243C151.898 88.088 151.632 88.1627 151.445 88.312C151.258 88.4613 151.165 88.6527 151.165 88.886C151.165 89.362 151.44 89.6 151.991 89.6C152.28 89.6 152.504 89.5113 152.663 89.334C152.822 89.1567 152.901 88.914 152.901 88.606V88.088ZM149.583 86.086V84.252C150.143 83.9347 150.95 83.776 152.005 83.776C153.013 83.776 153.764 83.9953 154.259 84.434C154.754 84.8633 155.001 85.5353 155.001 86.45V91H152.999V90.132C152.7 90.7387 152.112 91.042 151.235 91.042C150.544 91.042 150.003 90.846 149.611 90.454C149.228 90.062 149.037 89.572 149.037 88.984C149.037 88.3027 149.284 87.7753 149.779 87.402C150.283 87.0193 151.025 86.828 152.005 86.828H152.901V86.338C152.901 85.7407 152.504 85.442 151.711 85.442C150.946 85.442 150.236 85.6567 149.583 86.086ZM163.368 89.376C163.834 89.376 164.212 89.194 164.502 88.83C164.791 88.466 164.936 87.9807 164.936 87.374C164.936 86.786 164.777 86.3287 164.46 86.002C164.152 85.6753 163.783 85.512 163.354 85.512C162.924 85.512 162.56 85.6847 162.262 86.03C161.972 86.3753 161.828 86.856 161.828 87.472C161.828 88.0413 161.977 88.5033 162.276 88.858C162.574 89.2033 162.938 89.376 163.368 89.376ZM164.936 81.102H166.98V91H164.936V89.894C164.46 90.6873 163.75 91.084 162.808 91.084C161.884 91.084 161.142 90.7247 160.582 90.006C160.031 89.2873 159.756 88.4287 159.756 87.43C159.756 86.31 160.045 85.428 160.624 84.784C161.202 84.14 161.935 83.818 162.822 83.818C163.746 83.818 164.45 84.21 164.936 84.994V81.102ZM168.734 91V83.902H170.778V91H168.734ZM168.916 82.684C168.683 82.4507 168.566 82.1707 168.566 81.844C168.566 81.5173 168.683 81.2373 168.916 81.004C169.15 80.7707 169.43 80.654 169.756 80.654C170.083 80.654 170.363 80.7707 170.596 81.004C170.83 81.2373 170.946 81.5173 170.946 81.844C170.946 82.1707 170.83 82.4507 170.596 82.684C170.363 82.9173 170.083 83.034 169.756 83.034C169.43 83.034 169.15 82.9173 168.916 82.684ZM178.259 86.24H178.973C180.112 86.24 180.681 85.722 180.681 84.686C180.681 83.7527 180.154 83.286 179.099 83.286H178.259V86.24ZM176.103 81.564H179.351C180.397 81.564 181.241 81.858 181.885 82.446C182.539 83.034 182.865 83.7807 182.865 84.686C182.865 85.722 182.525 86.5247 181.843 87.094C181.171 87.6633 180.341 87.948 179.351 87.948H178.259V91H176.103V81.564ZM187.436 88.088H186.778C186.433 88.088 186.167 88.1627 185.98 88.312C185.793 88.4613 185.7 88.6527 185.7 88.886C185.7 89.362 185.975 89.6 186.526 89.6C186.815 89.6 187.039 89.5113 187.198 89.334C187.357 89.1567 187.436 88.914 187.436 88.606V88.088ZM184.118 86.086V84.252C184.678 83.9347 185.485 83.776 186.54 83.776C187.548 83.776 188.299 83.9953 188.794 84.434C189.289 84.8633 189.536 85.5353 189.536 86.45V91H187.534V90.132C187.235 90.7387 186.647 91.042 185.77 91.042C185.079 91.042 184.538 90.846 184.146 90.454C183.763 90.062 183.572 89.572 183.572 88.984C183.572 88.3027 183.819 87.7753 184.314 87.402C184.818 87.0193 185.56 86.828 186.54 86.828H187.436V86.338C187.436 85.7407 187.039 85.442 186.246 85.442C185.481 85.442 184.771 85.6567 184.118 86.086ZM194.781 89.376C195.229 89.376 195.593 89.208 195.873 88.872C196.153 88.5267 196.293 88.06 196.293 87.472C196.293 86.828 196.148 86.3427 195.859 86.016C195.579 85.68 195.219 85.512 194.781 85.512C194.351 85.512 193.978 85.6753 193.661 86.002C193.343 86.3287 193.185 86.786 193.185 87.374C193.185 87.9807 193.334 88.466 193.633 88.83C193.931 89.194 194.314 89.376 194.781 89.376ZM193.185 83.902V84.994C193.679 84.21 194.393 83.818 195.327 83.818C196.241 83.818 196.974 84.1447 197.525 84.798C198.085 85.442 198.365 86.3193 198.365 87.43C198.365 88.4847 198.094 89.3573 197.553 90.048C197.021 90.7387 196.279 91.084 195.327 91.084C194.365 91.084 193.651 90.706 193.185 89.95V93.618H191.141V83.902H193.185ZM203.213 88.088H202.555C202.21 88.088 201.944 88.1627 201.757 88.312C201.571 88.4613 201.477 88.6527 201.477 88.886C201.477 89.362 201.753 89.6 202.303 89.6C202.593 89.6 202.817 89.5113 202.975 89.334C203.134 89.1567 203.213 88.914 203.213 88.606V88.088ZM199.895 86.086V84.252C200.455 83.9347 201.263 83.776 202.317 83.776C203.325 83.776 204.077 83.9953 204.571 84.434C205.066 84.8633 205.313 85.5353 205.313 86.45V91H203.311V90.132C203.013 90.7387 202.425 91.042 201.547 91.042C200.857 91.042 200.315 90.846 199.923 90.454C199.541 90.062 199.349 89.572 199.349 88.984C199.349 88.3027 199.597 87.7753 200.091 87.402C200.595 87.0193 201.337 86.828 202.317 86.828H203.213V86.338C203.213 85.7407 202.817 85.442 202.023 85.442C201.258 85.442 200.549 85.6567 199.895 86.086ZM208.962 83.902V85.106C209.139 84.714 209.41 84.406 209.774 84.182C210.147 83.9487 210.591 83.832 211.104 83.832C211.832 83.832 212.401 84.0513 212.812 84.49C213.223 84.9193 213.428 85.554 213.428 86.394V91H211.384V86.772C211.384 86.352 211.286 86.0347 211.09 85.82C210.894 85.596 210.619 85.484 210.264 85.484C209.891 85.484 209.578 85.6333 209.326 85.932C209.083 86.2213 208.962 86.66 208.962 87.248V91H206.918V83.902H208.962ZM220.765 86.24H221.479C222.618 86.24 223.187 85.722 223.187 84.686C223.187 83.7527 222.66 83.286 221.605 83.286H220.765V86.24ZM218.609 81.564H221.857C222.903 81.564 223.747 81.858 224.391 82.446C225.045 83.034 225.371 83.7807 225.371 84.686C225.371 85.722 225.031 86.5247 224.349 87.094C223.677 87.6633 222.847 87.948 221.857 87.948H220.765V91H218.609V81.564ZM230.53 86.8V86.632C230.465 85.8013 230.101 85.386 229.438 85.386C229.111 85.386 228.822 85.5073 228.57 85.75C228.318 85.9833 228.15 86.3333 228.066 86.8H230.53ZM232 88.886V90.594C231.515 90.9113 230.773 91.07 229.774 91.07C228.607 91.07 227.697 90.734 227.044 90.062C226.4 89.3807 226.078 88.508 226.078 87.444C226.078 86.3147 226.391 85.4327 227.016 84.798C227.651 84.154 228.43 83.832 229.354 83.832C230.306 83.832 231.057 84.112 231.608 84.672C232.159 85.2227 232.434 86.0487 232.434 87.15C232.434 87.3647 232.397 87.7333 232.322 88.256H228.15C228.29 88.648 228.533 88.9513 228.878 89.166C229.223 89.3807 229.639 89.488 230.124 89.488C230.843 89.488 231.468 89.2873 232 88.886ZM240.571 91H238.205L235.937 87.514V91H233.893V81.34H235.937V87.08L238.177 83.902H240.529L238.065 87.304L240.571 91ZM245.665 86.8V86.632C245.599 85.8013 245.235 85.386 244.573 85.386C244.246 85.386 243.957 85.5073 243.705 85.75C243.453 85.9833 243.285 86.3333 243.201 86.8H245.665ZM247.135 88.886V90.594C246.649 90.9113 245.907 91.07 244.909 91.07C243.742 91.07 242.832 90.734 242.179 90.062C241.535 89.3807 241.213 88.508 241.213 87.444C241.213 86.3147 241.525 85.4327 242.151 84.798C242.785 84.154 243.565 83.832 244.489 83.832C245.441 83.832 246.192 84.112 246.743 84.672C247.293 85.2227 247.569 86.0487 247.569 87.15C247.569 87.3647 247.531 87.7333 247.457 88.256H243.285C243.425 88.648 243.667 88.9513 244.013 89.166C244.358 89.3807 244.773 89.488 245.259 89.488C245.977 89.488 246.603 89.2873 247.135 88.886ZM251.058 83.902V85.218C251.188 84.8073 251.403 84.4807 251.702 84.238C252.01 83.986 252.364 83.86 252.766 83.86C252.99 83.86 253.167 83.8787 253.298 83.916V85.848C253.074 85.7453 252.817 85.694 252.528 85.694C252.089 85.694 251.734 85.8573 251.464 86.184C251.193 86.5013 251.058 86.926 251.058 87.458V91H249.014L249.028 83.902H251.058ZM252.809 93.548V91.994C253.117 92.134 253.383 92.204 253.607 92.204C254.092 92.204 254.335 91.8913 254.335 91.266V83.902H256.365V91.294C256.365 92.0407 256.155 92.638 255.735 93.086C255.315 93.5433 254.708 93.772 253.915 93.772C253.588 93.772 253.22 93.6973 252.809 93.548ZM254.503 82.684C254.27 82.4507 254.153 82.1707 254.153 81.844C254.153 81.5173 254.27 81.2373 254.503 81.004C254.736 80.7707 255.016 80.654 255.343 80.654C255.67 80.654 255.95 80.7707 256.183 81.004C256.416 81.2373 256.533 81.5173 256.533 81.844C256.533 82.1707 256.416 82.4507 256.183 82.684C255.95 82.9173 255.67 83.034 255.343 83.034C255.016 83.034 254.736 82.9173 254.503 82.684ZM261.565 88.088H260.907C260.562 88.088 260.296 88.1627 260.109 88.312C259.922 88.4613 259.829 88.6527 259.829 88.886C259.829 89.362 260.104 89.6 260.655 89.6C260.944 89.6 261.168 89.5113 261.327 89.334C261.486 89.1567 261.565 88.914 261.565 88.606V88.088ZM258.247 86.086V84.252C258.807 83.9347 259.614 83.776 260.669 83.776C261.677 83.776 262.428 83.9953 262.923 84.434C263.418 84.8633 263.665 85.5353 263.665 86.45V91H261.663V90.132C261.364 90.7387 260.776 91.042 259.899 91.042C259.208 91.042 258.667 90.846 258.275 90.454C257.892 90.062 257.701 89.572 257.701 88.984C257.701 88.3027 257.948 87.7753 258.443 87.402C258.947 87.0193 259.689 86.828 260.669 86.828H261.565V86.338C261.565 85.7407 261.168 85.442 260.375 85.442C259.61 85.442 258.9 85.6567 258.247 86.086ZM268.784 88.088H268.126C267.78 88.088 267.514 88.1627 267.328 88.312C267.141 88.4613 267.048 88.6527 267.048 88.886C267.048 89.362 267.323 89.6 267.874 89.6C268.163 89.6 268.387 89.5113 268.546 89.334C268.704 89.1567 268.784 88.914 268.784 88.606V88.088ZM265.466 86.086V84.252C266.026 83.9347 266.833 83.776 267.888 83.776C268.896 83.776 269.647 83.9953 270.142 84.434C270.636 84.8633 270.884 85.5353 270.884 86.45V91H268.882V90.132C268.583 90.7387 267.995 91.042 267.118 91.042C266.427 91.042 265.886 90.846 265.494 90.454C265.111 90.062 264.92 89.572 264.92 88.984C264.92 88.3027 265.167 87.7753 265.662 87.402C266.166 87.0193 266.908 86.828 267.888 86.828H268.784V86.338C268.784 85.7407 268.387 85.442 267.594 85.442C266.828 85.442 266.119 85.6567 265.466 86.086ZM274.532 83.902V85.106C274.71 84.714 274.98 84.406 275.344 84.182C275.718 83.9487 276.161 83.832 276.674 83.832C277.402 83.832 277.972 84.0513 278.382 84.49C278.793 84.9193 278.998 85.554 278.998 86.394V91H276.954V86.772C276.954 86.352 276.856 86.0347 276.66 85.82C276.464 85.596 276.189 85.484 275.834 85.484C275.461 85.484 275.148 85.6333 274.896 85.932C274.654 86.2213 274.532 86.66 274.532 87.248V91H272.488V83.902H274.532Z" fill="white"/>
</g>
<path d="M46.87 175.53V176.55C46.4233 176.27 45.9167 176.13 45.35 176.13C44.9833 176.13 44.6933 176.213 44.48 176.38C44.2733 176.54 44.17 176.753 44.17 177.02C44.17 177.287 44.2733 177.5 44.48 177.66C44.6867 177.82 45.0033 177.993 45.43 178.18C45.71 178.3 45.9267 178.403 46.08 178.49C46.24 178.577 46.42 178.7 46.62 178.86C46.8267 179.013 46.9767 179.2 47.07 179.42C47.17 179.633 47.22 179.88 47.22 180.16C47.22 180.753 47.01 181.22 46.59 181.56C46.17 181.9 45.6267 182.07 44.96 182.07C44.22 182.07 43.6067 181.927 43.12 181.64V180.57C43.6467 180.963 44.2567 181.16 44.95 181.16C45.3167 181.16 45.6067 181.077 45.82 180.91C46.0333 180.737 46.14 180.5 46.14 180.2C46.14 180.02 46.0767 179.857 45.95 179.71C45.8233 179.557 45.6867 179.443 45.54 179.37C45.3933 179.29 45.1733 179.183 44.88 179.05C44.7067 178.97 44.5833 178.913 44.51 178.88C44.4433 178.847 44.33 178.787 44.17 178.7C44.01 178.613 43.89 178.54 43.81 178.48C43.7367 178.42 43.6433 178.337 43.53 178.23C43.4167 178.123 43.3333 178.017 43.28 177.91C43.2333 177.803 43.1867 177.68 43.14 177.54C43.1 177.393 43.08 177.237 43.08 177.07C43.08 176.497 43.2867 176.043 43.7 175.71C44.12 175.377 44.66 175.21 45.32 175.21C45.9267 175.21 46.4433 175.317 46.87 175.53ZM48.4448 182V176.93H49.4348V182H48.4448ZM48.4948 175.82C48.3815 175.7 48.3248 175.553 48.3248 175.38C48.3248 175.207 48.3815 175.06 48.4948 174.94C48.6148 174.82 48.7615 174.76 48.9348 174.76C49.1082 174.76 49.2548 174.82 49.3748 174.94C49.4948 175.06 49.5548 175.207 49.5548 175.38C49.5548 175.547 49.4948 175.69 49.3748 175.81C49.2548 175.93 49.1082 175.99 48.9348 175.99C48.7615 175.99 48.6148 175.933 48.4948 175.82ZM50.896 182V174.93H51.886V182H50.896ZM55.9772 179.74H55.2172C54.8439 179.74 54.5605 179.813 54.3672 179.96C54.1805 180.107 54.0872 180.293 54.0872 180.52C54.0872 180.753 54.1605 180.937 54.3072 181.07C54.4539 181.203 54.6672 181.27 54.9472 181.27C55.2672 181.27 55.5172 181.183 55.6972 181.01C55.8839 180.83 55.9772 180.597 55.9772 180.31V179.74ZM53.4272 178.14V177.19C53.8205 176.963 54.3405 176.85 54.9872 176.85C56.3139 176.85 56.9772 177.493 56.9772 178.78V182H56.0072V181.4C55.7472 181.827 55.2905 182.04 54.6372 182.04C54.1572 182.04 53.7705 181.903 53.4772 181.63C53.1905 181.35 53.0472 180.997 53.0472 180.57C53.0472 180.083 53.2305 179.707 53.5972 179.44C53.9639 179.167 54.4772 179.03 55.1372 179.03H55.9772V178.74C55.9772 178.393 55.8939 178.133 55.7272 177.96C55.5605 177.78 55.2839 177.69 54.8972 177.69C54.3572 177.69 53.8672 177.84 53.4272 178.14ZM58.2974 182V175H59.2774V182H58.2974ZM60.4474 179.35L62.4374 182H61.2674L59.3174 179.35L61.2274 176.93H62.3774L60.4474 179.35ZM65.9674 179.74H65.2074C64.8341 179.74 64.5508 179.813 64.3574 179.96C64.1708 180.107 64.0774 180.293 64.0774 180.52C64.0774 180.753 64.1508 180.937 64.2974 181.07C64.4441 181.203 64.6574 181.27 64.9374 181.27C65.2574 181.27 65.5074 181.183 65.6874 181.01C65.8741 180.83 65.9674 180.597 65.9674 180.31V179.74ZM63.4174 178.14V177.19C63.8108 176.963 64.3308 176.85 64.9774 176.85C66.3041 176.85 66.9674 177.493 66.9674 178.78V182H65.9974V181.4C65.7374 181.827 65.2808 182.04 64.6274 182.04C64.1474 182.04 63.7608 181.903 63.4674 181.63C63.1808 181.35 63.0374 180.997 63.0374 180.57C63.0374 180.083 63.2208 179.707 63.5874 179.44C63.9541 179.167 64.4674 179.03 65.1274 179.03H65.9674V178.74C65.9674 178.393 65.8841 178.133 65.7174 177.96C65.5508 177.78 65.2741 177.69 64.8874 177.69C64.3474 177.69 63.8574 177.84 63.4174 178.14ZM69.2677 176.93V177.8C69.5677 177.173 70.0943 176.86 70.8477 176.86C71.3477 176.86 71.7443 177.013 72.0377 177.32C72.331 177.627 72.4777 178.043 72.4777 178.57V182H71.4977V178.8C71.4977 178.447 71.4077 178.177 71.2277 177.99C71.0543 177.803 70.821 177.71 70.5277 177.71C70.181 177.71 69.8843 177.847 69.6377 178.12C69.391 178.387 69.2677 178.763 69.2677 179.25V182H68.2877V176.93H69.2677ZM78.5964 181.21C78.9897 181.21 79.3131 181.057 79.5664 180.75C79.8197 180.437 79.9464 180 79.9464 179.44C79.9464 178.913 79.8231 178.497 79.5764 178.19C79.3297 177.877 79.0164 177.72 78.6364 177.72C78.2564 177.72 77.9264 177.86 77.6464 178.14C77.3731 178.413 77.2364 178.85 77.2364 179.45C77.2364 180.037 77.3731 180.477 77.6464 180.77C77.9264 181.063 78.2431 181.21 78.5964 181.21ZM77.2364 176.93V177.71C77.5831 177.143 78.1031 176.86 78.7964 176.86C79.4631 176.86 79.9897 177.103 80.3764 177.59C80.7631 178.07 80.9564 178.683 80.9564 179.43C80.9564 180.197 80.7564 180.83 80.3564 181.33C79.9631 181.823 79.4364 182.07 78.7764 182.07C78.1031 182.07 77.5897 181.79 77.2364 181.23V183.94H76.2564V176.93H77.2364ZM85.2072 176.93H86.1872V182H85.2072V181.13C84.9405 181.75 84.4139 182.06 83.6272 182.06C83.1272 182.06 82.7305 181.913 82.4372 181.62C82.1439 181.32 81.9972 180.91 81.9972 180.39V176.93H82.9872V180.15C82.9872 180.497 83.0705 180.763 83.2372 180.95C83.4105 181.13 83.6472 181.22 83.9472 181.22C84.3272 181.22 84.6305 181.087 84.8572 180.82C85.0905 180.553 85.2072 180.177 85.2072 179.69V176.93ZM88.835 177.69V180.48C88.835 180.967 89.0683 181.21 89.535 181.21C89.8083 181.21 90.0383 181.137 90.225 180.99V181.87C90.005 181.99 89.735 182.05 89.415 182.05C88.3683 182.05 87.845 181.52 87.845 180.46V177.69H87.055V176.93H87.845V175.69H88.835V176.93H90.165V177.69H88.835ZM93.9752 179.74H93.2152C92.8419 179.74 92.5586 179.813 92.3652 179.96C92.1786 180.107 92.0852 180.293 92.0852 180.52C92.0852 180.753 92.1586 180.937 92.3052 181.07C92.4519 181.203 92.6652 181.27 92.9452 181.27C93.2652 181.27 93.5152 181.183 93.6952 181.01C93.8819 180.83 93.9752 180.597 93.9752 180.31V179.74ZM91.4252 178.14V177.19C91.8186 176.963 92.3386 176.85 92.9852 176.85C94.3119 176.85 94.9752 177.493 94.9752 178.78V182H94.0052V181.4C93.7452 181.827 93.2886 182.04 92.6352 182.04C92.1552 182.04 91.7686 181.903 91.4752 181.63C91.1886 181.35 91.0452 180.997 91.0452 180.57C91.0452 180.083 91.2286 179.707 91.5952 179.44C91.9619 179.167 92.4752 179.03 93.1352 179.03H93.9752V178.74C93.9752 178.393 93.8919 178.133 93.7252 177.96C93.5586 177.78 93.2819 177.69 92.8952 177.69C92.3552 177.69 91.8652 177.84 91.4252 178.14ZM97.2755 176.93V177.82C97.5221 177.193 97.9655 176.88 98.6055 176.88C98.6988 176.88 98.8021 176.89 98.9155 176.91V177.87C98.7755 177.81 98.6188 177.78 98.4455 177.78C98.1055 177.78 97.8255 177.93 97.6055 178.23C97.3855 178.53 97.2755 178.887 97.2755 179.3V182H96.2955V176.93H97.2755ZM105.295 176.93H106.275V182H105.295V181.13C105.028 181.75 104.502 182.06 103.715 182.06C103.215 182.06 102.818 181.913 102.525 181.62C102.232 181.32 102.085 180.91 102.085 180.39V176.93H103.075V180.15C103.075 180.497 103.158 180.763 103.325 180.95C103.498 181.13 103.735 181.22 104.035 181.22C104.415 181.22 104.718 181.087 104.945 180.82C105.178 180.553 105.295 180.177 105.295 179.69V176.93ZM108.633 176.93V177.8C108.933 177.173 109.46 176.86 110.213 176.86C110.713 176.86 111.11 177.013 111.403 177.32C111.696 177.627 111.843 178.043 111.843 178.57V182H110.863V178.8C110.863 178.447 110.773 178.177 110.593 177.99C110.42 177.803 110.186 177.71 109.893 177.71C109.546 177.71 109.25 177.847 109.003 178.12C108.756 178.387 108.633 178.763 108.633 179.25V182H107.653V176.93H108.633ZM114.431 177.69V180.48C114.431 180.967 114.664 181.21 115.131 181.21C115.404 181.21 115.634 181.137 115.821 180.99V181.87C115.601 181.99 115.331 182.05 115.011 182.05C113.964 182.05 113.441 181.52 113.441 180.46V177.69H112.651V176.93H113.441V175.69H114.431V176.93H115.761V177.69H114.431ZM120.051 176.93H121.031V182H120.051V181.13C119.784 181.75 119.258 182.06 118.471 182.06C117.971 182.06 117.574 181.913 117.281 181.62C116.988 181.32 116.841 180.91 116.841 180.39V176.93H117.831V180.15C117.831 180.497 117.914 180.763 118.081 180.95C118.254 181.13 118.491 181.22 118.791 181.22C119.171 181.22 119.474 181.087 119.701 180.82C119.934 180.553 120.051 180.177 120.051 179.69V176.93ZM122.409 182V175H123.389V182H122.409ZM124.559 179.35L126.549 182H125.379L123.429 179.35L125.339 176.93H126.489L124.559 179.35ZM130.85 176.93V177.74C131.136 177.153 131.613 176.86 132.28 176.86C133.04 176.86 133.526 177.187 133.74 177.84C133.88 177.527 134.083 177.287 134.35 177.12C134.616 176.947 134.916 176.86 135.25 176.86C135.77 176.86 136.163 177.013 136.43 177.32C136.703 177.627 136.84 178.05 136.84 178.59V182H135.86V178.8C135.86 178.073 135.566 177.71 134.98 177.71C134.686 177.71 134.423 177.84 134.19 178.1C133.963 178.36 133.85 178.743 133.85 179.25V182H132.87V178.8C132.87 178.073 132.573 177.71 131.98 177.71C131.693 177.71 131.433 177.84 131.2 178.1C130.966 178.36 130.85 178.743 130.85 179.25V182H129.87V176.93H130.85ZM141.32 179.1V178.92C141.307 178.54 141.204 178.24 141.01 178.02C140.817 177.793 140.54 177.68 140.18 177.68C139.847 177.68 139.56 177.803 139.32 178.05C139.08 178.29 138.93 178.64 138.87 179.1H141.32ZM141.95 180.85V181.73C141.577 181.943 141.084 182.05 140.47 182.05C139.684 182.05 139.057 181.813 138.59 181.34C138.124 180.867 137.89 180.247 137.89 179.48C137.89 178.667 138.104 178.03 138.53 177.57C138.957 177.103 139.5 176.87 140.16 176.87C140.807 176.87 141.32 177.073 141.7 177.48C142.08 177.88 142.27 178.46 142.27 179.22C142.27 179.427 142.25 179.643 142.21 179.87H138.88C138.947 180.31 139.134 180.647 139.44 180.88C139.747 181.113 140.134 181.23 140.6 181.23C141.14 181.23 141.59 181.103 141.95 180.85ZM143.464 182V174.93H144.454V182H143.464ZM145.916 182V176.93H146.906V182H145.916ZM145.966 175.82C145.852 175.7 145.796 175.553 145.796 175.38C145.796 175.207 145.852 175.06 145.966 174.94C146.086 174.82 146.232 174.76 146.406 174.76C146.579 174.76 146.726 174.82 146.846 174.94C146.966 175.06 147.026 175.207 147.026 175.38C147.026 175.547 146.966 175.69 146.846 175.81C146.726 175.93 146.579 175.99 146.406 175.99C146.232 175.99 146.086 175.933 145.966 175.82ZM149.307 174.93V177.8C149.593 177.173 150.117 176.86 150.877 176.86C151.37 176.86 151.767 177.013 152.067 177.32C152.367 177.627 152.517 178.053 152.517 178.6V182H151.537V178.8C151.537 178.453 151.447 178.187 151.267 178C151.093 177.807 150.863 177.71 150.577 177.71C150.243 177.71 149.947 177.837 149.687 178.09C149.433 178.343 149.307 178.73 149.307 179.25V182H148.327V174.93H149.307ZM156.505 179.74H155.745C155.371 179.74 155.088 179.813 154.895 179.96C154.708 180.107 154.615 180.293 154.615 180.52C154.615 180.753 154.688 180.937 154.835 181.07C154.981 181.203 155.195 181.27 155.475 181.27C155.795 181.27 156.045 181.183 156.225 181.01C156.411 180.83 156.505 180.597 156.505 180.31V179.74ZM153.955 178.14V177.19C154.348 176.963 154.868 176.85 155.515 176.85C156.841 176.85 157.505 177.493 157.505 178.78V182H156.535V181.4C156.275 181.827 155.818 182.04 155.165 182.04C154.685 182.04 154.298 181.903 154.005 181.63C153.718 181.35 153.575 180.997 153.575 180.57C153.575 180.083 153.758 179.707 154.125 179.44C154.491 179.167 155.005 179.03 155.665 179.03H156.505V178.74C156.505 178.393 156.421 178.133 156.255 177.96C156.088 177.78 155.811 177.69 155.425 177.69C154.885 177.69 154.395 177.84 153.955 178.14ZM160.095 177.69V180.48C160.095 180.967 160.328 181.21 160.795 181.21C161.068 181.21 161.298 181.137 161.485 180.99V181.87C161.265 181.99 160.995 182.05 160.675 182.05C159.628 182.05 159.105 181.52 159.105 180.46V177.69H158.315V176.93H159.105V175.69H160.095V176.93H161.425V177.69H160.095ZM43.19 198V191H44.17V198H43.19ZM45.34 195.35L47.33 198H46.16L44.21 195.35L46.12 192.93H47.27L45.34 195.35ZM51.34 195.1V194.92C51.3267 194.54 51.2233 194.24 51.03 194.02C50.8367 193.793 50.56 193.68 50.2 193.68C49.8667 193.68 49.58 193.803 49.34 194.05C49.1 194.29 48.95 194.64 48.89 195.1H51.34ZM51.97 196.85V197.73C51.5967 197.943 51.1033 198.05 50.49 198.05C49.7033 198.05 49.0767 197.813 48.61 197.34C48.1433 196.867 47.91 196.247 47.91 195.48C47.91 194.667 48.1233 194.03 48.55 193.57C48.9767 193.103 49.52 192.87 50.18 192.87C50.8267 192.87 51.34 193.073 51.72 193.48C52.1 193.88 52.29 194.46 52.29 195.22C52.29 195.427 52.27 195.643 52.23 195.87H48.9C48.9667 196.31 49.1533 196.647 49.46 196.88C49.7667 197.113 50.1533 197.23 50.62 197.23C51.16 197.23 51.61 197.103 51.97 196.85ZM56.1139 195.74H55.3539C54.9806 195.74 54.6972 195.813 54.5039 195.96C54.3172 196.107 54.2239 196.293 54.2239 196.52C54.2239 196.753 54.2972 196.937 54.4439 197.07C54.5906 197.203 54.8039 197.27 55.0839 197.27C55.4039 197.27 55.6539 197.183 55.8339 197.01C56.0206 196.83 56.1139 196.597 56.1139 196.31V195.74ZM53.5639 194.14V193.19C53.9572 192.963 54.4772 192.85 55.1239 192.85C56.4506 192.85 57.1139 193.493 57.1139 194.78V198H56.1439V197.4C55.8839 197.827 55.4272 198.04 54.7739 198.04C54.2939 198.04 53.9072 197.903 53.6139 197.63C53.3272 197.35 53.1839 196.997 53.1839 196.57C53.1839 196.083 53.3672 195.707 53.7339 195.44C54.1006 195.167 54.6139 195.03 55.2739 195.03H56.1139V194.74C56.1139 194.393 56.0306 194.133 55.8639 193.96C55.6972 193.78 55.4206 193.69 55.0339 193.69C54.4939 193.69 54.0039 193.84 53.5639 194.14ZM60.4841 197.21C60.8708 197.21 61.1975 197.063 61.4641 196.77C61.7308 196.477 61.8641 196.03 61.8641 195.43C61.8641 194.85 61.7241 194.42 61.4441 194.14C61.1708 193.86 60.8608 193.72 60.5141 193.72C60.1208 193.72 59.7975 193.877 59.5441 194.19C59.2908 194.497 59.1641 194.937 59.1641 195.51C59.1641 196.017 59.2875 196.427 59.5341 196.74C59.7875 197.053 60.1041 197.21 60.4841 197.21ZM61.8641 190.93H62.8541V198H61.8641V197.23C61.5108 197.79 60.9941 198.07 60.3141 198.07C59.6475 198.07 59.1208 197.82 58.7341 197.32C58.3475 196.813 58.1541 196.203 58.1541 195.49C58.1541 194.697 58.3575 194.06 58.7641 193.58C59.1708 193.1 59.6941 192.86 60.3341 192.86C60.9941 192.86 61.5041 193.14 61.8641 193.7V190.93ZM66.9049 195.74H66.1449C65.7716 195.74 65.4883 195.813 65.2949 195.96C65.1083 196.107 65.0149 196.293 65.0149 196.52C65.0149 196.753 65.0883 196.937 65.2349 197.07C65.3816 197.203 65.5949 197.27 65.8749 197.27C66.1949 197.27 66.4449 197.183 66.6249 197.01C66.8116 196.83 66.9049 196.597 66.9049 196.31V195.74ZM64.3549 194.14V193.19C64.7483 192.963 65.2683 192.85 65.9149 192.85C67.2416 192.85 67.9049 193.493 67.9049 194.78V198H66.9349V197.4C66.6749 197.827 66.2183 198.04 65.5649 198.04C65.0849 198.04 64.6983 197.903 64.4049 197.63C64.1183 197.35 63.9749 196.997 63.9749 196.57C63.9749 196.083 64.1583 195.707 64.5249 195.44C64.8916 195.167 65.4049 195.03 66.0649 195.03H66.9049V194.74C66.9049 194.393 66.8216 194.133 66.6549 193.96C66.4883 193.78 66.2116 193.69 65.8249 193.69C65.2849 193.69 64.7949 193.84 64.3549 194.14ZM71.8952 195.74H71.1352C70.7618 195.74 70.4785 195.813 70.2852 195.96C70.0985 196.107 70.0052 196.293 70.0052 196.52C70.0052 196.753 70.0785 196.937 70.2252 197.07C70.3718 197.203 70.5852 197.27 70.8652 197.27C71.1852 197.27 71.4352 197.183 71.6152 197.01C71.8018 196.83 71.8952 196.597 71.8952 196.31V195.74ZM69.3452 194.14V193.19C69.7385 192.963 70.2585 192.85 70.9052 192.85C72.2318 192.85 72.8952 193.493 72.8952 194.78V198H71.9252V197.4C71.6652 197.827 71.2085 198.04 70.5552 198.04C70.0752 198.04 69.6885 197.903 69.3952 197.63C69.1085 197.35 68.9652 196.997 68.9652 196.57C68.9652 196.083 69.1485 195.707 69.5152 195.44C69.8818 195.167 70.3952 195.03 71.0552 195.03H71.8952V194.74C71.8952 194.393 71.8118 194.133 71.6452 193.96C71.4785 193.78 71.2018 193.69 70.8152 193.69C70.2752 193.69 69.7852 193.84 69.3452 194.14ZM75.1954 192.93V193.8C75.4954 193.173 76.0221 192.86 76.7754 192.86C77.2754 192.86 77.6721 193.013 77.9654 193.32C78.2587 193.627 78.4054 194.043 78.4054 194.57V198H77.4254V194.8C77.4254 194.447 77.3354 194.177 77.1554 193.99C76.9821 193.803 76.7487 193.71 76.4554 193.71C76.1087 193.71 75.8121 193.847 75.5654 194.12C75.3187 194.387 75.1954 194.763 75.1954 195.25V198H74.2154V192.93H75.1954ZM82.1841 198V191H83.1641V198H82.1841ZM84.3341 195.35L86.3241 198H85.1541L83.2041 195.35L85.1141 192.93H86.2641L84.3341 195.35ZM89.8541 195.74H89.0941C88.7208 195.74 88.4375 195.813 88.2441 195.96C88.0575 196.107 87.9641 196.293 87.9641 196.52C87.9641 196.753 88.0375 196.937 88.1841 197.07C88.3308 197.203 88.5441 197.27 88.8241 197.27C89.1441 197.27 89.3941 197.183 89.5741 197.01C89.7608 196.83 89.8541 196.597 89.8541 196.31V195.74ZM87.3041 194.14V193.19C87.6975 192.963 88.2175 192.85 88.8641 192.85C90.1908 192.85 90.8541 193.493 90.8541 194.78V198H89.8841V197.4C89.6241 197.827 89.1675 198.04 88.5141 198.04C88.0341 198.04 87.6475 197.903 87.3541 197.63C87.0675 197.35 86.9241 196.997 86.9241 196.57C86.9241 196.083 87.1075 195.707 87.4741 195.44C87.8408 195.167 88.3541 195.03 89.0141 195.03H89.8541V194.74C89.8541 194.393 89.7708 194.133 89.6041 193.96C89.4375 193.78 89.1608 193.69 88.7741 193.69C88.2341 193.69 87.7441 193.84 87.3041 194.14ZM93.1544 192.93V193.82C93.401 193.193 93.8444 192.88 94.4844 192.88C94.5777 192.88 94.681 192.89 94.7944 192.91V193.87C94.6544 193.81 94.4977 193.78 94.3244 193.78C93.9844 193.78 93.7044 193.93 93.4844 194.23C93.2644 194.53 93.1544 194.887 93.1544 195.3V198H92.1744V192.93H93.1544ZM95.603 198V192.93H96.593V198H95.603ZM95.653 191.82C95.5397 191.7 95.483 191.553 95.483 191.38C95.483 191.207 95.5397 191.06 95.653 190.94C95.773 190.82 95.9197 190.76 96.093 190.76C96.2664 190.76 96.413 190.82 96.533 190.94C96.653 191.06 96.713 191.207 96.713 191.38C96.713 191.547 96.653 191.69 96.533 191.81C96.413 191.93 96.2664 191.99 96.093 191.99C95.9197 191.99 95.773 191.933 95.653 191.82ZM101.164 195.1V194.92C101.151 194.54 101.048 194.24 100.854 194.02C100.661 193.793 100.384 193.68 100.024 193.68C99.6909 193.68 99.4042 193.803 99.1642 194.05C98.9242 194.29 98.7742 194.64 98.7142 195.1H101.164ZM101.794 196.85V197.73C101.421 197.943 100.928 198.05 100.314 198.05C99.5276 198.05 98.9009 197.813 98.4342 197.34C97.9676 196.867 97.7342 196.247 97.7342 195.48C97.7342 194.667 97.9476 194.03 98.3742 193.57C98.8009 193.103 99.3442 192.87 100.004 192.87C100.651 192.87 101.164 193.073 101.544 193.48C101.924 193.88 102.114 194.46 102.114 195.22C102.114 195.427 102.094 195.643 102.054 195.87H98.7242C98.7909 196.31 98.9776 196.647 99.2842 196.88C99.5909 197.113 99.9776 197.23 100.444 197.23C100.984 197.23 101.434 197.103 101.794 196.85ZM104.248 192.93V193.82C104.495 193.193 104.938 192.88 105.578 192.88C105.671 192.88 105.775 192.89 105.888 192.91V193.87C105.748 193.81 105.591 193.78 105.418 193.78C105.078 193.78 104.798 193.93 104.578 194.23C104.358 194.53 104.248 194.887 104.248 195.3V198H103.268V192.93H104.248ZM110.648 195.49H112.808L112.698 195.15C112.444 194.363 112.238 193.713 112.078 193.2C111.918 192.68 111.821 192.357 111.788 192.23L111.738 192.04C111.664 192.353 111.338 193.39 110.758 195.15L110.648 195.49ZM113.618 198L113.088 196.35H110.368L109.828 198H108.738L111.068 191.26H112.418L114.718 198H113.618ZM116.699 192.93V193.8C116.999 193.173 117.526 192.86 118.279 192.86C118.779 192.86 119.176 193.013 119.469 193.32C119.763 193.627 119.909 194.043 119.909 194.57V198H118.929V194.8C118.929 194.447 118.839 194.177 118.659 193.99C118.486 193.803 118.253 193.71 117.959 193.71C117.613 193.71 117.316 193.847 117.069 194.12C116.823 194.387 116.699 194.763 116.699 195.25V198H115.719V192.93H116.699ZM123.277 197.21C123.664 197.21 123.99 197.063 124.257 196.77C124.524 196.477 124.657 196.03 124.657 195.43C124.657 194.85 124.517 194.42 124.237 194.14C123.964 193.86 123.654 193.72 123.307 193.72C122.914 193.72 122.59 193.877 122.337 194.19C122.084 194.497 121.957 194.937 121.957 195.51C121.957 196.017 122.08 196.427 122.327 196.74C122.58 197.053 122.897 197.21 123.277 197.21ZM124.657 190.93H125.647V198H124.657V197.23C124.304 197.79 123.787 198.07 123.107 198.07C122.44 198.07 121.914 197.82 121.527 197.32C121.14 196.813 120.947 196.203 120.947 195.49C120.947 194.697 121.15 194.06 121.557 193.58C121.964 193.1 122.487 192.86 123.127 192.86C123.787 192.86 124.297 193.14 124.657 193.7V190.93ZM129.698 195.74H128.938C128.565 195.74 128.281 195.813 128.088 195.96C127.901 196.107 127.808 196.293 127.808 196.52C127.808 196.753 127.881 196.937 128.028 197.07C128.175 197.203 128.388 197.27 128.668 197.27C128.988 197.27 129.238 197.183 129.418 197.01C129.605 196.83 129.698 196.597 129.698 196.31V195.74ZM127.148 194.14V193.19C127.541 192.963 128.061 192.85 128.708 192.85C130.035 192.85 130.698 193.493 130.698 194.78V198H129.728V197.4C129.468 197.827 129.011 198.04 128.358 198.04C127.878 198.04 127.491 197.903 127.198 197.63C126.911 197.35 126.768 196.997 126.768 196.57C126.768 196.083 126.951 195.707 127.318 195.44C127.685 195.167 128.198 195.03 128.858 195.03H129.698V194.74C129.698 194.393 129.615 194.133 129.448 193.96C129.281 193.78 129.005 193.69 128.618 193.69C128.078 193.69 127.588 193.84 127.148 194.14Z" fill="#2B2B2B"/>
<rect x="43" y="219" width="120" height="24" rx="8" fill="#FF1934"/>
<path d="M88.0692 227.608L89.0852 227.608L89.0852 233L88.0692 233L88.0692 230.736L85.8532 230.736L85.8532 233L84.8452 233L84.8452 227.608L85.8532 227.608L85.8532 229.864L88.0692 229.864L88.0692 227.608ZM91.2205 232.176L93.4205 232.176L93.4205 233L90.2045 233L90.2045 227.608L93.3885 227.608L93.3885 228.432L91.2205 228.432L91.2205 229.896L93.1485 229.896L93.1485 230.712L91.2205 230.712L91.2205 232.176ZM94.4311 233L94.4311 227.608L95.5751 227.608L96.8711 229.856C97.0844 230.224 97.2738 230.568 97.4391 230.888C97.6098 231.203 97.7244 231.427 97.7831 231.56L97.8711 231.76C97.8284 231.317 97.8071 230.683 97.8071 229.856L97.8071 227.608L98.8231 227.608L98.8231 233L97.6711 233L96.3591 230.76C96.1511 230.408 95.9618 230.072 95.7911 229.752C95.6258 229.427 95.5111 229.192 95.4471 229.048L95.3511 228.824C95.4098 229.331 95.4391 229.973 95.4391 230.752L95.4391 233L94.4311 233ZM103.339 227.608L103.339 228.44L101.971 228.44L101.971 233L100.955 233L100.955 228.44L99.5869 228.44L99.5869 227.608L103.339 227.608ZM104.159 233L104.159 227.608L105.167 227.608L105.167 233L104.159 233ZM106.353 233L106.353 227.608L107.361 227.608L107.361 233L106.353 233ZM108.641 230.312L110.649 233L109.377 233L107.441 230.328L109.305 227.608L110.513 227.608L108.641 230.312ZM112.744 230.952L114.264 230.952L114.192 230.712C114.011 230.136 113.862 229.653 113.744 229.264C113.632 228.869 113.563 228.621 113.536 228.52L113.504 228.36C113.456 228.627 113.227 229.413 112.816 230.72L112.744 230.952ZM114.904 233L114.52 231.776L112.48 231.776L112.096 233L111.04 233L112.864 227.608L114.168 227.608L115.992 233L114.904 233ZM116.767 233L116.767 227.608L117.911 227.608L119.207 229.856C119.42 230.224 119.61 230.568 119.775 230.888C119.946 231.203 120.06 231.427 120.119 231.56L120.207 231.76C120.164 231.317 120.143 230.683 120.143 229.856L120.143 227.608L121.159 227.608L121.159 233L120.007 233L118.695 230.76C118.487 230.408 118.298 230.072 118.127 229.752C117.962 229.427 117.847 229.192 117.783 229.048L117.687 228.824C117.746 229.331 117.775 229.973 117.775 230.752L117.775 233L116.767 233Z" fill="white"/>
<g clip-path="url(#clip1_1124_4113)">
<path d="M371.633 207.133C371.633 165.159 337.547 131.133 295.5 131.133C253.453 131.133 219.367 165.159 219.367 207.133C219.367 249.106 253.453 283.133 295.5 283.133C337.547 283.133 371.633 249.106 371.633 207.133Z" fill="white"/>
<path d="M337.889 265.338C349.808 256.698 359.202 244.351 364.096 229.288C368.99 214.225 368.647 198.715 364.084 184.719L295.5 207L337.889 265.338Z" fill="#008C1E"/>
<path d="M364.082 184.712C359.547 170.707 350.708 157.957 337.895 148.648C325.082 139.339 310.224 134.872 295.503 134.887L295.5 206.999L364.082 184.712Z" fill="#008C1E"/>
<path d="M295.497 134.888C280.776 134.873 265.919 139.34 253.106 148.649C240.293 157.959 231.453 170.708 226.918 184.714L295.5 207.001L295.497 134.888Z" fill="#008C1E"/>
<path d="M227.25 184.385C222.686 198.381 222.343 213.891 227.238 228.954C232.132 244.017 241.526 256.364 253.445 265.004L295.834 206.666L227.25 184.385Z" fill="#FF1934"/>
<path d="M253.116 265.342C265.017 274.007 279.662 279.126 295.5 279.126C311.338 279.126 325.983 274.007 337.884 265.342L295.5 207L253.116 265.342Z" fill="#1699D9"/>
<path d="M363.94 184.24L296.001 206.319V134.884C295.831 134.884 295.67 134.874 295.5 134.874C295.33 134.874 295.17 134.884 294.999 134.884V206.309L227.06 184.24C226.95 184.561 226.84 184.871 226.74 185.192L294.689 207.27L252.705 265.061C252.976 265.262 253.246 265.452 253.517 265.642L295.5 207.861L337.484 265.642C337.754 265.452 338.035 265.262 338.295 265.061L296.312 207.27L364.26 185.192C364.16 184.871 364.04 184.561 363.94 184.24Z" fill="white"/>
<g opacity="0.32" style="mix-blend-mode:multiply">
<path d="M295.374 134.873C255.614 134.873 223.374 167.113 223.374 206.873C223.374 246.633 255.614 278.873 295.374 278.873C335.134 278.873 367.374 246.633 367.374 206.873C367.374 167.113 335.134 134.873 295.374 134.873ZM295.374 274.873C257.814 274.873 227.374 244.433 227.374 206.873C227.374 169.313 257.814 138.873 295.374 138.873C332.934 138.873 363.374 169.313 363.374 206.873C363.374 244.433 332.934 274.873 295.374 274.873Z" fill="#2B2B2B"/>
</g>
<path d="M295.486 214.985C299.904 214.985 303.486 211.404 303.486 206.985C303.486 202.567 299.904 198.985 295.486 198.985C291.068 198.985 287.486 202.567 287.486 206.985C287.486 211.404 291.068 214.985 295.486 214.985Z" fill="white"/>
<path d="M265.554 157.252L269.916 154.082L270.509 154.898L266.146 158.067L265.554 157.252ZM269.073 157.523L268.079 160.727L267.331 159.698L268.355 156.561L271.651 156.471L272.361 157.448L269.073 157.523ZM271.827 161.87L271.924 161.8C272.129 161.638 272.255 161.457 272.301 161.258C272.356 161.061 272.309 160.86 272.162 160.658C272.027 160.472 271.84 160.361 271.602 160.323C271.371 160.286 271.112 160.343 270.825 160.492L271.827 161.87ZM271.157 163.168L270.484 163.657C270.176 163.531 269.864 163.253 269.551 162.821C269.172 162.299 269.028 161.774 269.119 161.247C269.21 160.719 269.502 160.276 269.994 159.919C270.516 159.54 271.029 159.384 271.534 159.453C272.038 159.521 272.446 159.769 272.756 160.196C273.066 160.623 273.183 161.056 273.106 161.495C273.029 161.933 272.742 162.332 272.246 162.693C272.125 162.781 271.959 162.878 271.747 162.986L270.252 160.928C270.055 161.156 269.959 161.405 269.962 161.672C269.969 161.945 270.069 162.214 270.263 162.482C270.514 162.827 270.812 163.056 271.157 163.168ZM274.818 163.102L274.255 163.511C274.791 163.405 275.236 163.596 275.59 164.083C275.828 164.411 275.917 164.742 275.857 165.076C275.796 165.41 275.584 165.709 275.222 165.972L273.041 167.557L272.477 166.78L274.496 165.313C274.712 165.156 274.836 164.987 274.869 164.805C274.905 164.62 274.86 164.439 274.731 164.262C274.584 164.059 274.38 163.947 274.12 163.925C273.865 163.9 273.59 163.994 273.297 164.207L271.536 165.486L270.972 164.709L274.253 162.325L274.818 163.102ZM276.26 169.02L275.968 168.619C275.821 168.416 275.665 168.292 275.5 168.247C275.34 168.198 275.195 168.221 275.065 168.315C274.789 168.516 274.767 168.776 274.999 169.095C275.124 169.268 275.271 169.365 275.439 169.388C275.615 169.412 275.785 169.365 275.949 169.246L276.26 169.02ZM276.087 166.713L276.805 166.191C277.135 166.327 277.467 166.626 277.803 167.088C278.448 167.977 278.357 168.722 277.529 169.324L275.432 170.848L274.872 170.077L275.267 169.791C274.877 169.843 274.53 169.66 274.226 169.242C274 168.931 273.91 168.617 273.957 168.3C274.006 167.987 274.169 167.73 274.445 167.53C274.756 167.304 275.084 167.243 275.43 167.348C275.777 167.452 276.11 167.725 276.429 168.165L276.777 168.644L276.978 168.498C277.159 168.366 277.263 168.219 277.289 168.055C277.315 167.891 277.245 167.694 277.078 167.466C276.825 167.116 276.494 166.865 276.087 166.713ZM276.038 171.681L279.319 169.297L279.883 170.074L276.602 172.458L276.038 171.681ZM280.246 168.505C280.376 168.411 280.519 168.376 280.675 168.401C280.832 168.426 280.957 168.503 281.051 168.632C281.145 168.762 281.179 168.905 281.155 169.061C281.13 169.218 281.053 169.343 280.923 169.437C280.79 169.534 280.645 169.57 280.488 169.546C280.332 169.521 280.206 169.444 280.112 169.314C280.018 169.185 279.984 169.042 280.008 168.885C280.033 168.729 280.112 168.602 280.246 168.505ZM279.319 176.197L278.656 175.285L279.495 172.875L277.8 174.107L277.236 173.33L281.734 170.062L282.298 170.839L279.541 172.842L281.923 172.881L282.581 173.787L280.14 173.722L279.319 176.197ZM282.321 177.363L282.03 176.962C281.882 176.759 281.726 176.635 281.562 176.59C281.401 176.541 281.256 176.564 281.127 176.658C280.851 176.859 280.829 177.119 281.061 177.438C281.186 177.611 281.333 177.708 281.501 177.731C281.677 177.755 281.846 177.708 282.01 177.589L282.321 177.363ZM282.148 175.056L282.867 174.534C283.196 174.67 283.529 174.969 283.864 175.431C284.51 176.32 284.419 177.065 283.59 177.667L281.493 179.191L280.934 178.42L281.328 178.134C280.938 178.186 280.591 178.003 280.287 177.585C280.061 177.274 279.972 176.96 280.018 176.643C280.068 176.33 280.231 176.073 280.507 175.873C280.817 175.647 281.146 175.586 281.492 175.691C281.838 175.795 282.171 176.068 282.491 176.508L282.839 176.987L283.04 176.841C283.221 176.709 283.324 176.562 283.35 176.398C283.376 176.234 283.306 176.037 283.14 175.809C282.886 175.459 282.555 175.208 282.148 175.056ZM285.921 178.385L285.358 178.794C285.894 178.688 286.339 178.878 286.694 179.366C286.932 179.694 287.021 180.025 286.96 180.359C286.9 180.693 286.688 180.992 286.326 181.255L284.145 182.84L283.58 182.063L285.6 180.596C285.815 180.439 285.94 180.27 285.972 180.088C286.009 179.903 285.963 179.722 285.835 179.545C285.687 179.342 285.484 179.23 285.224 179.208C284.968 179.183 284.694 179.276 284.4 179.49L282.64 180.769L282.076 179.992L285.357 177.608L285.921 178.385ZM260.086 168.196L257.989 169.719L257.985 169.713L257.918 169.771C257.345 169.581 256.842 169.188 256.41 168.593C255.908 167.902 255.703 167.198 255.794 166.479C255.888 165.765 256.28 165.157 256.97 164.655C257.643 164.166 258.345 163.989 259.076 164.124C259.81 164.263 260.42 164.667 260.906 165.336C261.266 165.832 261.482 166.325 261.554 166.813L260.719 167.42C260.668 166.85 260.481 166.343 260.158 165.899C259.841 165.463 259.45 165.21 258.984 165.14C258.518 165.07 258.058 165.2 257.605 165.529C257.143 165.864 256.873 166.259 256.793 166.712C256.721 167.166 256.851 167.622 257.184 168.08C257.347 168.304 257.544 168.494 257.775 168.649L258.804 167.901L258.221 167.099L258.92 166.591L260.086 168.196ZM260.775 171.526L260.484 171.124C260.336 170.922 260.18 170.798 260.016 170.753C259.855 170.704 259.71 170.727 259.581 170.821C259.305 171.022 259.283 171.282 259.515 171.601C259.64 171.774 259.787 171.871 259.955 171.894C260.131 171.918 260.301 171.871 260.465 171.751L260.775 171.526ZM260.602 169.219L261.321 168.697C261.65 168.833 261.983 169.132 262.318 169.594C262.964 170.483 262.873 171.228 262.044 171.83L259.947 173.353L259.388 172.583L259.783 172.296C259.392 172.349 259.045 172.166 258.741 171.748C258.515 171.437 258.426 171.123 258.472 170.806C258.522 170.493 258.685 170.236 258.961 170.036C259.271 169.81 259.6 169.749 259.946 169.854C260.292 169.958 260.625 170.231 260.945 170.671L261.293 171.15L261.494 171.004C261.675 170.872 261.778 170.724 261.804 170.56C261.83 170.397 261.76 170.2 261.594 169.972C261.34 169.622 261.01 169.371 260.602 169.219ZM258.855 174.313L259.47 173.867C259.515 174.065 259.578 174.22 259.66 174.332C259.826 174.561 260.058 174.567 260.355 174.351L263.844 171.816L264.408 172.593L260.907 175.137C260.583 175.372 260.262 175.47 259.944 175.431C259.625 175.392 259.347 175.208 259.109 174.881C258.996 174.725 258.911 174.536 258.855 174.313ZM264.767 171.017C264.896 170.923 265.039 170.889 265.195 170.913C265.352 170.938 265.477 171.015 265.571 171.145C265.668 171.278 265.705 171.424 265.68 171.58C265.655 171.736 265.578 171.862 265.448 171.956C265.315 172.053 265.17 172.089 265.013 172.064C264.857 172.04 264.73 171.96 264.633 171.826C264.539 171.697 264.504 171.554 264.529 171.398C264.554 171.241 264.633 171.114 264.767 171.017ZM261.761 175.85L265.042 173.465L265.607 174.242L262.325 176.626L261.761 175.85ZM265.97 172.673C266.099 172.579 266.242 172.544 266.398 172.569C266.555 172.594 266.68 172.671 266.774 172.8C266.868 172.93 266.903 173.073 266.878 173.229C266.853 173.386 266.776 173.511 266.647 173.605C266.513 173.702 266.368 173.738 266.211 173.714C266.055 173.689 265.93 173.612 265.836 173.482C265.742 173.353 265.707 173.21 265.732 173.053C265.757 172.897 265.836 172.77 265.97 172.673ZM266.644 176.759L267.453 176.172L268.927 176.812L269.425 177.498L265.193 180.573L264.633 179.803L268.025 177.339L266.644 176.759ZM267.819 179.697C268.488 179.211 269.112 178.959 269.692 178.94C270.276 178.918 270.743 179.148 271.094 179.631C271.449 180.119 271.525 180.637 271.324 181.185C271.13 181.735 270.698 182.253 270.029 182.739C269.365 183.222 268.739 183.476 268.15 183.501C267.565 183.53 267.093 183.297 266.732 182.801C266.381 182.317 266.308 181.8 266.514 181.248C266.72 180.697 267.155 180.18 267.819 179.697ZM269.626 179.897C269.282 179.95 268.872 180.148 268.398 180.493C267.923 180.838 267.602 181.167 267.434 181.48C267.273 181.794 267.275 182.064 267.438 182.288C267.607 182.521 267.864 182.608 268.21 182.548C268.558 182.492 268.972 182.291 269.451 181.943C269.93 181.595 270.246 181.263 270.399 180.947C270.555 180.636 270.552 180.368 270.389 180.144C270.229 179.924 269.975 179.842 269.626 179.897ZM269.095 185.958L275.318 185.105L275.84 185.824L269.612 186.67L269.095 185.958ZM271.06 188.05C271.122 187.663 271.312 187.353 271.631 187.121C271.951 186.889 272.304 186.804 272.691 186.865C273.079 186.927 273.389 187.117 273.62 187.436C273.849 187.751 273.933 188.103 273.872 188.49C273.813 188.882 273.625 189.193 273.305 189.425C272.986 189.657 272.631 189.741 272.241 189.675C271.853 189.614 271.545 189.425 271.316 189.11C271.084 188.791 270.999 188.438 271.06 188.05ZM271.12 183.3C271.181 182.913 271.371 182.603 271.691 182.371C272.01 182.139 272.363 182.054 272.751 182.115C273.138 182.177 273.448 182.367 273.68 182.686C273.912 183.006 273.997 183.359 273.936 183.746C273.874 184.134 273.684 184.443 273.365 184.675C273.05 184.904 272.695 184.987 272.3 184.925C271.913 184.863 271.605 184.675 271.376 184.36C271.144 184.041 271.058 183.688 271.12 183.3ZM272.152 183.006C272.014 183.106 271.929 183.243 271.897 183.418C271.873 183.593 271.913 183.752 272.016 183.895C272.117 184.033 272.253 184.116 272.424 184.143C272.603 184.171 272.761 184.135 272.899 184.035C273.042 183.931 273.125 183.792 273.149 183.616C273.18 183.442 273.146 183.285 273.046 183.147C272.942 183.005 272.801 182.919 272.622 182.891C272.451 182.864 272.294 182.902 272.152 183.006ZM272.097 187.762C271.959 187.862 271.874 188 271.843 188.174C271.816 188.346 271.854 188.502 271.957 188.645C272.057 188.783 272.193 188.866 272.365 188.893C272.543 188.921 272.702 188.885 272.84 188.785C272.982 188.681 273.066 188.542 273.09 188.366C273.121 188.192 273.087 188.035 272.986 187.897C272.883 187.755 272.743 187.672 272.568 187.648C272.396 187.62 272.239 187.659 272.097 187.762Z" fill="white"/>
<path d="M244.967 224.399L245.644 224.179C246.182 224.004 246.537 223.707 246.709 223.286C246.879 222.861 246.873 222.369 246.692 221.811C246.532 221.319 246.252 220.965 245.85 220.747C245.452 220.523 244.997 220.495 244.485 220.661L243.823 220.876L244.967 224.399ZM242.579 220.389L244.253 219.845C245.019 219.596 245.722 219.628 246.362 219.942C247.002 220.255 247.44 220.772 247.674 221.492C247.929 222.279 247.9 222.992 247.586 223.632C247.271 224.267 246.716 224.714 245.919 224.973L244.245 225.517L242.579 220.389ZM249.44 223.829L247.774 218.701L248.733 218.389L250.399 223.517L249.44 223.829ZM251.667 220.321L252.207 220.145C252.557 220.032 252.791 219.863 252.91 219.64C253.028 219.416 253.041 219.162 252.948 218.878C252.858 218.599 252.7 218.409 252.477 218.308C252.252 218.202 251.972 218.203 251.637 218.312L251.074 218.495L251.667 220.321ZM249.861 218.023L251.466 217.501C252.044 217.313 252.557 217.32 253.004 217.523C253.456 217.724 253.762 218.07 253.922 218.562C254.092 219.084 254.047 219.559 253.787 219.985C253.531 220.405 253.132 220.703 252.589 220.879L251.919 221.097L252.486 222.839L251.527 223.151L249.861 218.023ZM256.466 220.679L258.559 220L258.813 220.783L255.755 221.777L254.088 216.649L257.117 215.665L257.371 216.449L255.309 217.119L255.762 218.511L257.595 217.915L257.848 218.691L256.014 219.287L256.466 220.679ZM261.913 214.342L262.217 215.278C261.759 215.18 261.297 215.207 260.83 215.358C260.364 215.51 260.025 215.797 259.814 216.219C259.607 216.634 259.59 217.107 259.763 217.64C259.936 218.173 260.228 218.546 260.64 218.76C261.057 218.972 261.516 218.997 262.018 218.833C262.5 218.677 262.87 218.417 263.127 218.053L263.439 219.011C263.19 219.316 262.782 219.561 262.214 219.746C261.453 219.993 260.746 219.959 260.094 219.644C259.446 219.322 258.993 218.765 258.736 217.974C258.484 217.198 258.522 216.487 258.851 215.842C259.183 215.19 259.734 214.739 260.505 214.488C261.068 214.305 261.538 214.257 261.913 214.342ZM265.079 216.594L266.525 216.124L266.382 215.918C266.031 215.427 265.74 215.014 265.508 214.68C265.28 214.339 265.137 214.124 265.081 214.036L265.001 213.894C265.037 214.162 265.062 214.982 265.076 216.351L265.079 216.594ZM267.766 217.874L267.023 216.829L265.082 217.459L265.095 218.742L264.091 219.068L264.16 213.377L265.4 212.974L268.801 217.538L267.766 217.874ZM271.105 211.12L271.362 211.911L270.061 212.334L271.47 216.671L270.504 216.985L269.095 212.648L267.794 213.071L267.537 212.279L271.105 211.12Z" fill="white"/>
<path d="M295.438 258.809L295.438 257.289L295.198 257.361C294.622 257.543 294.139 257.692 293.75 257.809C293.355 257.921 293.107 257.991 293.006 258.017L292.846 258.049C293.113 258.097 293.899 258.327 295.206 258.737L295.438 258.809ZM297.486 256.649L296.262 257.033L296.262 259.073L297.486 259.457L297.486 260.513L292.094 258.689L292.094 257.385L297.486 255.561L297.486 256.649ZM297.486 254.883L292.094 254.451L292.094 253.299L294.054 252.563C294.385 252.435 294.715 252.315 295.046 252.203C295.371 252.091 295.614 252.011 295.774 251.963L296.022 251.891C295.467 251.725 294.811 251.496 294.054 251.203L292.094 250.451L292.094 249.299L297.486 248.771L297.486 249.779L295.382 249.971L293.494 250.115C294.043 250.307 294.673 250.536 295.382 250.803L297.406 251.555L297.406 252.243L295.382 252.979L293.518 253.611C293.779 253.611 294.401 253.645 295.382 253.715L297.486 253.875L297.486 254.883ZM295.438 246.38L295.438 244.86L295.198 244.932C294.622 245.113 294.139 245.262 293.75 245.38C293.355 245.492 293.107 245.561 293.006 245.588L292.846 245.62C293.113 245.668 293.899 245.897 295.206 246.308L295.438 246.38ZM297.486 244.22L296.262 244.604L296.262 246.644L297.486 247.028L297.486 248.084L292.094 246.26L292.094 244.956L297.486 243.132L297.486 244.22ZM297.486 242.357L292.094 242.357L292.094 241.213L294.342 239.917C294.71 239.704 295.054 239.514 295.374 239.349C295.689 239.178 295.913 239.064 296.046 239.005L296.246 238.917C295.803 238.96 295.169 238.981 294.342 238.981L292.094 238.981L292.094 237.965L297.486 237.965L297.486 239.117L295.246 240.429C294.894 240.637 294.558 240.826 294.238 240.997C293.913 241.162 293.678 241.277 293.534 241.341L293.31 241.437C293.817 241.378 294.459 241.349 295.238 241.349L297.486 241.349L297.486 242.357Z" fill="white"/>
</g>
<g clip-path="url(#clip2_1124_4113)">
<path d="M214.81 218.01L214.81 216.56L230 207.16L214.81 197.77L214.81 196.32L212.12 195.58C211.16 195.32 210.13 195.67 209.55 196.48C207.3 199.59 206 203.24 206 207.16C206 211.08 207.3 214.73 209.55 217.84C210.13 218.65 211.16 219 212.12 218.74L214.81 218L214.81 218.01Z" fill="#D9AA16"/>
<path d="M214.81 196.32L212.7 195.74C212.17 195.6 212.04 196.06 212.53 196.36L214.82 197.77L214.82 196.32L214.81 196.32Z" fill="#B76F09"/>
<path d="M214.81 218.01L212.7 218.59C212.17 218.73 212.04 218.27 212.53 217.97L214.82 216.56L214.82 218.01L214.81 218.01Z" fill="#B76F09"/>
<path d="M208 207.16C208 203.84 209.05 200.63 211.06 197.8L226.2 207.16L211.06 216.52C209.05 213.69 208 210.48 208 207.16Z" fill="white"/>
</g>
<path d="M9 341.5H329C333.694 341.5 337.5 345.306 337.5 350C337.5 354.694 333.694 358.5 329 358.5H9C4.30558 358.5 0.5 354.694 0.5 350C0.500002 345.306 4.30558 341.5 9 341.5Z" fill="white"/>
<path d="M9 341.5H329C333.694 341.5 337.5 345.306 337.5 350C337.5 354.694 333.694 358.5 329 358.5H9C4.30558 358.5 0.5 354.694 0.5 350C0.500002 345.306 4.30558 341.5 9 341.5Z" stroke="#CCCCCC"/>
<path d="M7.86805e-07 350C3.52265e-07 345.029 4.02944 341 9 341L39 341C43.9706 341 48 345.029 48 350C48 354.971 43.9706 359 39 359L9 359C4.02944 359 1.22135e-06 354.971 7.86805e-07 350Z" fill="#FF1934"/>
<path d="M15.448 346.688H16.264L16.816 348.6L17.456 350.92C17.5893 350.179 17.7547 349.403 17.952 348.592L18.44 346.608H19.464L18.088 352H16.92L16.432 350.296C16.2987 349.843 16.184 349.443 16.088 349.096C15.9973 348.749 15.936 348.517 15.904 348.4L15.864 348.216C15.7893 348.589 15.6027 349.283 15.304 350.296L14.8 352H13.64L12.2 346.608H13.264L13.768 348.6C13.8533 348.957 13.9387 349.328 14.024 349.712C14.1093 350.096 14.1733 350.389 14.216 350.592L14.28 350.904C14.4507 350.232 14.6587 349.464 14.904 348.6L15.448 346.688ZM22.2561 350.256H21.7601C21.5094 350.256 21.3174 350.309 21.1841 350.416C21.0507 350.517 20.9841 350.648 20.9841 350.808C20.9841 351.149 21.1814 351.32 21.5761 351.32C21.7894 351.32 21.9547 351.259 22.0721 351.136C22.1947 351.008 22.2561 350.843 22.2561 350.64V350.256ZM20.2881 349.04V348.152C20.5921 347.965 21.0294 347.872 21.6001 347.872C22.6987 347.872 23.2481 348.384 23.2481 349.408V352H22.2961V351.512C22.1094 351.859 21.7574 352.032 21.2401 352.032C20.8561 352.032 20.5494 351.92 20.3201 351.696C20.0961 351.472 19.9841 351.189 19.9841 350.848C19.9841 350.464 20.1281 350.163 20.4161 349.944C20.7041 349.725 21.1201 349.616 21.6641 349.616H22.2561V349.368C22.2561 349.144 22.1974 348.973 22.0801 348.856C21.9627 348.739 21.7627 348.68 21.4801 348.68C21.0481 348.68 20.6507 348.8 20.2881 349.04ZM27.7828 352H26.6548L25.1988 349.904V352H24.2388V346.44H25.1988V349.848L26.6308 347.944H27.7508L26.2628 349.88L27.7828 352ZM29.5864 348.664V350.728C29.5864 350.899 29.6318 351.029 29.7224 351.12C29.8131 351.205 29.9384 351.248 30.0984 351.248C30.3011 351.248 30.4878 351.192 30.6584 351.08V351.904C30.4718 351.995 30.2318 352.04 29.9384 352.04C29.0638 352.04 28.6264 351.597 28.6264 350.712V348.664H28.0184V347.944H28.6264V346.968H29.5864V347.944H30.5944V348.664H29.5864ZM33.9617 347.944H34.9297V352H33.9617V351.336C33.7484 351.805 33.3324 352.04 32.7137 352.04C32.303 352.04 31.983 351.923 31.7537 351.688C31.5244 351.453 31.4097 351.12 31.4097 350.688V347.944H32.3697V350.464C32.3697 350.72 32.431 350.915 32.5537 351.048C32.6817 351.181 32.855 351.248 33.0737 351.248C33.351 351.248 33.567 351.155 33.7217 350.968C33.8817 350.781 33.9617 350.499 33.9617 350.12V347.944Z" fill="white"/>
<rect x="56" y="348" width="274" height="4" rx="2" fill="#CCCCCC"/>
<mask id="mask0_1124_4113" style="mask-type:alpha" maskUnits="userSpaceOnUse" x="56" y="348" width="274" height="4">
<rect x="56" y="348" width="274" height="4" rx="2" fill="#CCCCCC"/>
</mask>
<g mask="url(#mask0_1124_4113)">
<rect x="56" y="348" width="274" height="4" rx="2" fill="#FF1934"/>
</g>
<defs>
<filter id="filter0_d_1124_4113" x="22.5" y="57" width="293" height="56" filterUnits="userSpaceOnUse" color-interpolation-filters="sRGB">
<feFlood flood-opacity="0" result="BackgroundImageFix"/>
<feColorMatrix in="SourceAlpha" type="matrix" values="0 0 0 0 0 0 0 0 0 0 0 0 0 0 0 0 0 0 127 0" result="hardAlpha"/>
<feOffset dy="2"/>
<feGaussianBlur stdDeviation="2"/>
<feComposite in2="hardAlpha" operator="out"/>
<feColorMatrix type="matrix" values="0 0 0 0 0.168627 0 0 0 0 0.168627 0 0 0 0 0.168627 0 0 0 0.24 0"/>
<feBlend mode="normal" in2="BackgroundImageFix" result="effect1_dropShadow_1124_4113"/>
<feBlend mode="normal" in="SourceGraphic" in2="effect1_dropShadow_1124_4113" result="shape"/>
</filter>
<clipPath id="clip0_1124_4113">
<rect width="24" height="24" fill="white" transform="translate(42.5 75)"/>
</clipPath>
<clipPath id="clip1_1124_4113">
<rect width="104" height="152" fill="white" transform="translate(191.5 131)"/>
</clipPath>
<clipPath id="clip2_1124_4113">
<rect width="23.33" height="24" fill="white" transform="translate(230 195.5) rotate(90)"/>
</clipPath>
</defs>
</svg>
