<svg width="338" height="375" viewBox="0 0 338 375" fill="none" xmlns="http://www.w3.org/2000/svg">
<rect width="338" height="375" fill="#D3D3D3"/>
<rect x="26.5" y="59" width="285" height="256" rx="16" fill="white"/>
<g filter="url(#filter0_d_1124_4113)">
<path d="M26.5 75C26.5 66.1634 33.6634 59 42.5 59H295.5C304.337 59 311.5 66.1634 311.5 75V107H26.5V75Z" fill="#FF1934" shape-rendering="crispEdges"/>
<g clip-path="url(#clip0_1124_4113)">
<path d="M64.19 90.57C63.63 90.13 63.02 89.77 62.38 89.5C62.23 89.43 62.17 89.31 62.15 89.21C62.11 89.06 62.15 88.89 62.25 88.77C63.13 87.72 63.65 86.33 63.65 85.06C63.65 82.54 61.6 80.49 59.08 80.49C58.85 80.49 58.61 80.52 58.37 80.56C57.36 79.59 56 79 54.5 79C53 79 51.64 79.6 50.63 80.56C50.38 80.52 50.15 80.49 49.92 80.49C47.4 80.49 45.35 82.54 45.35 85.06C45.35 86.33 45.87 87.72 46.75 88.77C46.85 88.89 46.89 89.06 46.85 89.21C46.83 89.3 46.77 89.43 46.62 89.49C45.98 89.76 45.38 90.12 44.81 90.56C44.46 90.83 44.4 91.33 44.67 91.68C44.83 91.88 45.06 91.99 45.3 91.99C45.47 91.99 45.64 91.94 45.79 91.82C46.25 91.47 46.74 91.17 47.25 90.95C47.83 90.7 48.25 90.19 48.4 89.57C48.55 88.93 48.4 88.24 47.97 87.73C47.34 86.97 46.94 85.94 46.94 85.05C46.94 83.56 48.04 82.34 49.48 82.12C49.11 82.86 48.9 83.7 48.9 84.58C48.9 86.15 49.55 87.86 50.63 89.16C50.8 89.37 50.87 89.65 50.81 89.91C50.78 90.05 50.68 90.3 50.39 90.42C48.75 91.13 47.3 92.26 46.21 93.69C45.94 94.04 46.01 94.54 46.36 94.81C46.51 94.92 46.68 94.97 46.84 94.97C47.08 94.97 47.32 94.86 47.48 94.65C48.4 93.44 49.62 92.48 51.02 91.88C51.7 91.59 52.19 91 52.36 90.27C52.54 89.52 52.36 88.72 51.86 88.12C51.02 87.11 50.5 85.75 50.5 84.56C50.5 83.54 50.9 82.62 51.53 81.91C51.53 81.91 51.54 81.9 51.55 81.89C52.28 81.08 53.33 80.56 54.5 80.56C55.67 80.56 56.72 81.08 57.45 81.88C57.45 81.88 57.46 81.9 57.47 81.91C58.1 82.62 58.5 83.54 58.5 84.56C58.5 85.75 57.98 87.11 57.14 88.12C56.36 89.05 55.43 89.56 54.5 89.56C54.06 89.56 53.7 89.92 53.7 90.36C53.7 90.8 54.06 91.16 54.5 91.16C55.27 91.16 56.03 90.94 56.73 90.53C56.95 91.13 57.38 91.62 57.98 91.87C59.37 92.47 60.59 93.43 61.52 94.64C61.68 94.85 61.92 94.96 62.16 94.96C62.33 94.96 62.5 94.91 62.64 94.8C62.99 94.53 63.06 94.03 62.79 93.68C61.7 92.25 60.26 91.12 58.62 90.41C58.33 90.29 58.23 90.03 58.2 89.9C58.14 89.64 58.2 89.36 58.38 89.15C59.46 87.85 60.11 86.14 60.11 84.57C60.11 83.68 59.9 82.85 59.53 82.11C60.96 82.32 62.07 83.55 62.07 85.04C62.07 85.94 61.68 86.96 61.04 87.72C60.62 88.23 60.46 88.91 60.61 89.56C60.76 90.19 61.18 90.69 61.77 90.94C62.28 91.16 62.77 91.45 63.23 91.81C63.38 91.92 63.55 91.98 63.72 91.98C63.96 91.98 64.2 91.87 64.35 91.67C64.62 91.32 64.56 90.82 64.21 90.55L64.19 90.57Z" fill="white"/>
</g>
<path d="M78.168 87.332H80.436L80.338 86.996C80.0673 86.0813 79.8433 85.302 79.666 84.658C79.498 84.014 79.3953 83.5987 79.358 83.412L79.302 83.132C79.2273 83.6453 78.882 84.9333 78.266 86.996L78.168 87.332ZM81.528 91L80.954 89.068H77.65L77.076 91H74.822L77.972 81.564H80.688L83.838 91H81.528ZM87.05 83.902V85.106C87.2273 84.714 87.498 84.406 87.862 84.182C88.2353 83.9487 88.6787 83.832 89.192 83.832C89.92 83.832 90.4893 84.0513 90.9 84.49C91.3107 84.9193 91.516 85.554 91.516 86.394V91H89.472V86.772C89.472 86.352 89.374 86.0347 89.178 85.82C88.982 85.596 88.7067 85.484 88.352 85.484C87.9787 85.484 87.666 85.6333 87.414 85.932C87.1713 86.2213 87.05 86.66 87.05 87.248V91H85.006V83.902H87.05ZM96.3891 89.376C96.8558 89.376 97.2338 89.194 97.5231 88.83C97.8124 88.466 97.9571 87.9807 97.9571 87.374C97.9571 86.786 97.7984 86.3287 97.4811 86.002C97.1731 85.6753 96.8044 85.512 96.3751 85.512C95.9458 85.512 95.5818 85.6847 95.2831 86.03C94.9938 86.3753 94.8491 86.856 94.8491 87.472C94.8491 88.0413 94.9984 88.5033 95.2971 88.858C95.5958 89.2033 95.9598 89.376 96.3891 89.376ZM97.9571 81.102H100.001V91H97.9571V89.894C97.4811 90.6873 96.7718 91.084 95.8291 91.084C94.9051 91.084 94.1631 90.7247 93.6031 90.006C93.0524 89.2873 92.7771 88.4287 92.7771 87.43C92.7771 86.31 93.0664 85.428 93.6451 84.784C94.2238 84.14 94.9564 83.818 95.8431 83.818C96.7671 83.818 97.4718 84.21 97.9571 84.994V81.102ZM105.2 88.088H104.542C104.196 88.088 103.93 88.1627 103.744 88.312C103.557 88.4613 103.464 88.6527 103.464 88.886C103.464 89.362 103.739 89.6 104.29 89.6C104.579 89.6 104.803 89.5113 104.962 89.334C105.12 89.1567 105.2 88.914 105.2 88.606V88.088ZM101.882 86.086V84.252C102.442 83.9347 103.249 83.776 104.304 83.776C105.312 83.776 106.063 83.9953 106.558 84.434C107.052 84.8633 107.3 85.5353 107.3 86.45V91H105.298V90.132C104.999 90.7387 104.411 91.042 103.534 91.042C102.843 91.042 102.302 90.846 101.91 90.454C101.527 90.062 101.336 89.572 101.336 88.984C101.336 88.3027 101.583 87.7753 102.078 87.402C102.582 87.0193 103.324 86.828 104.304 86.828H105.2V86.338C105.2 85.7407 104.803 85.442 104.01 85.442C103.244 85.442 102.535 85.6567 101.882 86.086ZM116.016 89.376C116.446 89.376 116.81 89.2033 117.108 88.858C117.407 88.5033 117.556 88.0413 117.556 87.472C117.556 86.856 117.407 86.3753 117.108 86.03C116.819 85.6847 116.46 85.512 116.03 85.512C115.601 85.512 115.228 85.6753 114.91 86.002C114.602 86.3287 114.448 86.786 114.448 87.374C114.448 87.9807 114.593 88.466 114.882 88.83C115.172 89.194 115.55 89.376 116.016 89.376ZM114.448 81.102V84.994C114.934 84.21 115.638 83.818 116.562 83.818C117.449 83.818 118.182 84.14 118.76 84.784C119.339 85.428 119.628 86.31 119.628 87.43C119.628 88.4287 119.348 89.2873 118.788 90.006C118.238 90.7247 117.5 91.084 116.576 91.084C115.634 91.084 114.924 90.6873 114.448 89.894V91H112.404V81.102H114.448ZM125.065 86.8V86.632C125 85.8013 124.636 85.386 123.973 85.386C123.646 85.386 123.357 85.5073 123.105 85.75C122.853 85.9833 122.685 86.3333 122.601 86.8H125.065ZM126.535 88.886V90.594C126.05 90.9113 125.308 91.07 124.309 91.07C123.142 91.07 122.232 90.734 121.579 90.062C120.935 89.3807 120.613 88.508 120.613 87.444C120.613 86.3147 120.926 85.4327 121.551 84.798C122.186 84.154 122.965 83.832 123.889 83.832C124.841 83.832 125.592 84.112 126.143 84.672C126.694 85.2227 126.969 86.0487 126.969 87.15C126.969 87.3647 126.932 87.7333 126.857 88.256H122.685C122.825 88.648 123.068 88.9513 123.413 89.166C123.758 89.3807 124.174 89.488 124.659 89.488C125.378 89.488 126.003 89.2873 126.535 88.886ZM130.458 83.902V85.218C130.589 84.8073 130.803 84.4807 131.102 84.238C131.41 83.986 131.765 83.86 132.166 83.86C132.39 83.86 132.567 83.8787 132.698 83.916V85.848C132.474 85.7453 132.217 85.694 131.928 85.694C131.489 85.694 131.135 85.8573 130.864 86.184C130.593 86.5013 130.458 86.926 130.458 87.458V91H128.414L128.428 83.902H130.458ZM137.124 88.088H136.466C136.12 88.088 135.854 88.1627 135.668 88.312C135.481 88.4613 135.388 88.6527 135.388 88.886C135.388 89.362 135.663 89.6 136.214 89.6C136.503 89.6 136.727 89.5113 136.886 89.334C137.044 89.1567 137.124 88.914 137.124 88.606V88.088ZM133.806 86.086V84.252C134.366 83.9347 135.173 83.776 136.228 83.776C137.236 83.776 137.987 83.9953 138.482 84.434C138.976 84.8633 139.224 85.5353 139.224 86.45V91H137.222V90.132C136.923 90.7387 136.335 91.042 135.458 91.042C134.767 91.042 134.226 90.846 133.834 90.454C133.451 90.062 133.26 89.572 133.26 88.984C133.26 88.3027 133.507 87.7753 134.002 87.402C134.506 87.0193 135.248 86.828 136.228 86.828H137.124V86.338C137.124 85.7407 136.727 85.442 135.934 85.442C135.168 85.442 134.459 85.6567 133.806 86.086ZM144.09 89.376C144.557 89.376 144.935 89.194 145.224 88.83C145.514 88.466 145.658 87.9807 145.658 87.374C145.658 86.786 145.5 86.3287 145.182 86.002C144.874 85.6753 144.506 85.512 144.076 85.512C143.647 85.512 143.283 85.6847 142.984 86.03C142.695 86.3753 142.55 86.856 142.55 87.472C142.55 88.0413 142.7 88.5033 142.998 88.858C143.297 89.2033 143.661 89.376 144.09 89.376ZM145.658 81.102H147.702V91H145.658V89.894C145.182 90.6873 144.473 91.084 143.53 91.084C142.606 91.084 141.864 90.7247 141.304 90.006C140.754 89.2873 140.478 88.4287 140.478 87.43C140.478 86.31 140.768 85.428 141.346 84.784C141.925 84.14 142.658 83.818 143.544 83.818C144.468 83.818 145.173 84.21 145.658 84.994V81.102ZM152.901 88.088H152.243C151.898 88.088 151.632 88.1627 151.445 88.312C151.258 88.4613 151.165 88.6527 151.165 88.886C151.165 89.362 151.44 89.6 151.991 89.6C152.28 89.6 152.504 89.5113 152.663 89.334C152.822 89.1567 152.901 88.914 152.901 88.606V88.088ZM149.583 86.086V84.252C150.143 83.9347 150.95 83.776 152.005 83.776C153.013 83.776 153.764 83.9953 154.259 84.434C154.754 84.8633 155.001 85.5353 155.001 86.45V91H152.999V90.132C152.7 90.7387 152.112 91.042 151.235 91.042C150.544 91.042 150.003 90.846 149.611 90.454C149.228 90.062 149.037 89.572 149.037 88.984C149.037 88.3027 149.284 87.7753 149.779 87.402C150.283 87.0193 151.025 86.828 152.005 86.828H152.901V86.338C152.901 85.7407 152.504 85.442 151.711 85.442C150.946 85.442 150.236 85.6567 149.583 86.086ZM163.368 89.376C163.834 89.376 164.212 89.194 164.502 88.83C164.791 88.466 164.936 87.9807 164.936 87.374C164.936 86.786 164.777 86.3287 164.46 86.002C164.152 85.6753 163.783 85.512 163.354 85.512C162.924 85.512 162.56 85.6847 162.262 86.03C161.972 86.3753 161.828 86.856 161.828 87.472C161.828 88.0413 161.977 88.5033 162.276 88.858C162.574 89.2033 162.938 89.376 163.368 89.376ZM164.936 81.102H166.98V91H164.936V89.894C164.46 90.6873 163.75 91.084 162.808 91.084C161.884 91.084 161.142 90.7247 160.582 90.006C160.031 89.2873 159.756 88.4287 159.756 87.43C159.756 86.31 160.045 85.428 160.624 84.784C161.202 84.14 161.935 83.818 162.822 83.818C163.746 83.818 164.45 84.21 164.936 84.994V81.102ZM168.734 91V83.902H170.778V91H168.734ZM168.916 82.684C168.683 82.4507 168.566 82.1707 168.566 81.844C168.566 81.5173 168.683 81.2373 168.916 81.004C169.15 80.7707 169.43 80.654 169.756 80.654C170.083 80.654 170.363 80.7707 170.596 81.004C170.83 81.2373 170.946 81.5173 170.946 81.844C170.946 82.1707 170.83 82.4507 170.596 82.684C170.363 82.9173 170.083 83.034 169.756 83.034C169.43 83.034 169.15 82.9173 168.916 82.684ZM178.259 86.24H178.973C180.112 86.24 180.681 85.722 180.681 84.686C180.681 83.7527 180.154 83.286 179.099 83.286H178.259V86.24ZM176.103 81.564H179.351C180.397 81.564 181.241 81.858 181.885 82.446C182.539 83.034 182.865 83.7807 182.865 84.686C182.865 85.722 182.525 86.5247 181.843 87.094C181.171 87.6633 180.341 87.948 179.351 87.948H178.259V91H176.103V81.564ZM187.436 88.088H186.778C186.433 88.088 186.167 88.1627 185.98 88.312C185.793 88.4613 185.7 88.6527 185.7 88.886C185.7 89.362 185.975 89.6 186.526 89.6C186.815 89.6 187.039 89.5113 187.198 89.334C187.357 89.1567 187.436 88.914 187.436 88.606V88.088ZM184.118 86.086V84.252C184.678 83.9347 185.485 83.776 186.54 83.776C187.548 83.776 188.299 83.9953 188.794 84.434C189.289 84.8633 189.536 85.5353 189.536 86.45V91H187.534V90.132C187.235 90.7387 186.647 91.042 185.77 91.042C185.079 91.042 184.538 90.846 184.146 90.454C183.763 90.062 183.572 89.572 183.572 88.984C183.572 88.3027 183.819 87.7753 184.314 87.402C184.818 87.0193 185.56 86.828 186.54 86.828H187.436V86.338C187.436 85.7407 187.039 85.442 186.246 85.442C185.481 85.442 184.771 85.6567 184.118 86.086ZM194.781 89.376C195.229 89.376 195.593 89.208 195.873 88.872C196.153 88.5267 196.293 88.06 196.293 87.472C196.293 86.828 196.148 86.3427 195.859 86.016C195.579 85.68 195.219 85.512 194.781 85.512C194.351 85.512 193.978 85.6753 193.661 86.002C193.343 86.3287 193.185 86.786 193.185 87.374C193.185 87.9807 193.334 88.466 193.633 88.83C193.931 89.194 194.314 89.376 194.781 89.376ZM193.185 83.902V84.994C193.679 84.21 194.393 83.818 195.327 83.818C196.241 83.818 196.974 84.1447 197.525 84.798C198.085 85.442 198.365 86.3193 198.365 87.43C198.365 88.4847 198.094 89.3573 197.553 90.048C197.021 90.7387 196.279 91.084 195.327 91.084C194.365 91.084 193.651 90.706 193.185 89.95V93.618H191.141V83.902H193.185ZM203.213 88.088H202.555C202.21 88.088 201.944 88.1627 201.757 88.312C201.571 88.4613 201.477 88.6527 201.477 88.886C201.477 89.362 201.753 89.6 202.303 89.6C202.593 89.6 202.817 89.5113 202.975 89.334C203.134 89.1567 203.213 88.914 203.213 88.606V88.088ZM199.895 86.086V84.252C200.455 83.9347 201.263 83.776 202.317 83.776C203.325 83.776 204.077 83.9953 204.571 84.434C205.066 84.8633 205.313 85.5353 205.313 86.45V91H203.311V90.132C203.013 90.7387 202.425 91.042 201.547 91.042C200.857 91.042 200.315 90.846 199.923 90.454C199.541 90.062 199.349 89.572 199.349 88.984C199.349 88.3027 199.597 87.7753 200.091 87.402C200.595 87.0193 201.337 86.828 202.317 86.828H203.213V86.338C203.213 85.7407 202.817 85.442 202.023 85.442C201.258 85.442 200.549 85.6567 199.895 86.086ZM208.962 83.902V85.106C209.139 84.714 209.41 84.406 209.774 84.182C210.147 83.9487 210.591 83.832 211.104 83.832C211.832 83.832 212.401 84.0513 212.812 84.49C213.223 84.9193 213.428 85.554 213.428 86.394V91H211.384V86.772C211.384 86.352 211.286 86.0347 211.09 85.82C210.894 85.596 210.619 85.484 210.264 85.484C209.891 85.484 209.578 85.6333 209.326 85.932C209.083 86.2213 208.962 86.66 208.962 87.248V91H206.918V83.902H208.962ZM220.765 86.24H221.479C222.618 86.24 223.187 85.722 223.187 84.686C223.187 83.7527 222.66 83.286 221.605 83.286H220.765V86.24ZM218.609 81.564H221.857C222.903 81.564 223.747 81.858 224.391 82.446C225.045 83.034 225.371 83.7807 225.371 84.686C225.371 85.722 225.031 86.5247 224.349 87.094C223.677 87.6633 222.847 87.948 221.857 87.948H220.765V91H218.609V81.564ZM230.53 86.8V86.632C230.465 85.8013 230.101 85.386 229.438 85.386C229.111 85.386 228.822 85.5073 228.57 85.75C228.318 85.9833 228.15 86.3333 228.066 86.8H230.53ZM232 88.886V90.594C231.515 90.9113 230.773 91.07 229.774 91.07C228.607 91.07 227.697 90.734 227.044 90.062C226.4 89.3807 226.078 88.508 226.078 87.444C226.078 86.3147 226.391 85.4327 227.016 84.798C227.651 84.154 228.43 83.832 229.354 83.832C230.306 83.832 231.057 84.112 231.608 84.672C232.159 85.2227 232.434 86.0487 232.434 87.15C232.434 87.3647 232.397 87.7333 232.322 88.256H228.15C228.29 88.648 228.533 88.9513 228.878 89.166C229.223 89.3807 229.639 89.488 230.124 89.488C230.843 89.488 231.468 89.2873 232 88.886ZM240.571 91H238.205L235.937 87.514V91H233.893V81.34H235.937V87.08L238.177 83.902H240.529L238.065 87.304L240.571 91ZM245.665 86.8V86.632C245.599 85.8013 245.235 85.386 244.573 85.386C244.246 85.386 243.957 85.5073 243.705 85.75C243.453 85.9833 243.285 86.3333 243.201 86.8H245.665ZM247.135 88.886V90.594C246.649 90.9113 245.907 91.07 244.909 91.07C243.742 91.07 242.832 90.734 242.179 90.062C241.535 89.3807 241.213 88.508 241.213 87.444C241.213 86.3147 241.525 85.4327 242.151 84.798C242.785 84.154 243.565 83.832 244.489 83.832C245.441 83.832 246.192 84.112 246.743 84.672C247.293 85.2227 247.569 86.0487 247.569 87.15C247.569 87.3647 247.531 87.7333 247.457 88.256H243.285C243.425 88.648 243.667 88.9513 244.013 89.166C244.358 89.3807 244.773 89.488 245.259 89.488C245.977 89.488 246.603 89.2873 247.135 88.886ZM251.058 83.902V85.218C251.188 84.8073 251.403 84.4807 251.702 84.238C252.01 83.986 252.364 83.86 252.766 83.86C252.99 83.86 253.167 83.8787 253.298 83.916V85.848C253.074 85.7453 252.817 85.694 252.528 85.694C252.089 85.694 251.734 85.8573 251.464 86.184C251.193 86.5013 251.058 86.926 251.058 87.458V91H249.014L249.028 83.902H251.058ZM252.809 93.548V91.994C253.117 92.134 253.383 92.204 253.607 92.204C254.092 92.204 254.335 91.8913 254.335 91.266V83.902H256.365V91.294C256.365 92.0407 256.155 92.638 255.735 93.086C255.315 93.5433 254.708 93.772 253.915 93.772C253.588 93.772 253.22 93.6973 252.809 93.548ZM254.503 82.684C254.27 82.4507 254.153 82.1707 254.153 81.844C254.153 81.5173 254.27 81.2373 254.503 81.004C254.736 80.7707 255.016 80.654 255.343 80.654C255.67 80.654 255.95 80.7707 256.183 81.004C256.416 81.2373 256.533 81.5173 256.533 81.844C256.533 82.1707 256.416 82.4507 256.183 82.684C255.95 82.9173 255.67 83.034 255.343 83.034C255.016 83.034 254.736 82.9173 254.503 82.684ZM261.565 88.088H260.907C260.562 88.088 260.296 88.1627 260.109 88.312C259.922 88.4613 259.829 88.6527 259.829 88.886C259.829 89.362 260.104 89.6 260.655 89.6C260.944 89.6 261.168 89.5113 261.327 89.334C261.486 89.1567 261.565 88.914 261.565 88.606V88.088ZM258.247 86.086V84.252C258.807 83.9347 259.614 83.776 260.669 83.776C261.677 83.776 262.428 83.9953 262.923 84.434C263.418 84.8633 263.665 85.5353 263.665 86.45V91H261.663V90.132C261.364 90.7387 260.776 91.042 259.899 91.042C259.208 91.042 258.667 90.846 258.275 90.454C257.892 90.062 257.701 89.572 257.701 88.984C257.701 88.3027 257.948 87.7753 258.443 87.402C258.947 87.0193 259.689 86.828 260.669 86.828H261.565V86.338C261.565 85.7407 261.168 85.442 260.375 85.442C259.61 85.442 258.9 85.6567 258.247 86.086ZM268.784 88.088H268.126C267.78 88.088 267.514 88.1627 267.328 88.312C267.141 88.4613 267.048 88.6527 267.048 88.886C267.048 89.362 267.323 89.6 267.874 89.6C268.163 89.6 268.387 89.5113 268.546 89.334C268.704 89.1567 268.784 88.914 268.784 88.606V88.088ZM265.466 86.086V84.252C266.026 83.9347 266.833 83.776 267.888 83.776C268.896 83.776 269.647 83.9953 270.142 84.434C270.636 84.8633 270.884 85.5353 270.884 86.45V91H268.882V90.132C268.583 90.7387 267.995 91.042 267.118 91.042C266.427 91.042 265.886 90.846 265.494 90.454C265.111 90.062 264.92 89.572 264.92 88.984C264.92 88.3027 265.167 87.7753 265.662 87.402C266.166 87.0193 266.908 86.828 267.888 86.828H268.784V86.338C268.784 85.7407 268.387 85.442 267.594 85.442C266.828 85.442 266.119 85.6567 265.466 86.086ZM274.532 83.902V85.106C274.71 84.714 274.98 84.406 275.344 84.182C275.718 83.9487 276.161 83.832 276.674 83.832C277.402 83.832 277.972 84.0513 278.382 84.49C278.793 84.9193 278.998 85.554 278.998 86.394V91H276.954V86.772C276.954 86.352 276.856 86.0347 276.66 85.82C276.464 85.596 276.189 85.484 275.834 85.484C275.461 85.484 275.148 85.6333 274.896 85.932C274.654 86.2213 274.532 86.66 274.532 87.248V91H272.488V83.902H274.532Z" fill="white"/>
</g>
<path d="M46.87 175.53V176.55C46.4233 176.27 45.9167 176.13 45.35 176.13C44.9833 176.13 44.6933 176.213 44.48 176.38C44.2733 176.54 44.17 176.753 44.17 177.02C44.17 177.287 44.2733 177.5 44.48 177.66C44.6867 177.82 45.0033 177.993 45.43 178.18C45.71 178.3 45.9267 178.403 46.08 178.49C46.24 178.577 46.42 178.7 46.62 178.86C46.8267 179.013 46.9767 179.2 47.07 179.42C47.17 179.633 47.22 179.88 47.22 180.16C47.22 180.753 47.01 181.22 46.59 181.56C46.17 181.9 45.6267 182.07 44.96 182.07C44.22 182.07 43.6067 181.927 43.12 181.64V180.57C43.6467 180.963 44.2567 181.16 44.95 181.16C45.3167 181.16 45.6067 181.077 45.82 180.91C46.0333 180.737 46.14 180.5 46.14 180.2C46.14 180.02 46.0767 179.857 45.95 179.71C45.8233 179.557 45.6867 179.443 45.54 179.37C45.3933 179.29 45.1733 179.183 44.88 179.05C44.7067 178.97 44.5833 178.913 44.51 178.88C44.4433 178.847 44.33 178.787 44.17 178.7C44.01 178.613 43.89 178.54 43.81 178.48C43.7367 178.42 43.6433 178.337 43.53 178.23C43.4167 178.123 43.3333 178.017 43.28 177.91C43.2333 177.803 43.1867 177.68 43.14 177.54C43.1 177.393 43.08 177.237 43.08 177.07C43.08 176.497 43.2867 176.043 43.7 175.71C44.12 175.377 44.66 175.21 45.32 175.21C45.9267 175.21 46.4433 175.317 46.87 175.53ZM48.4448 182V176.93H49.4348V182H48.4448ZM48.4948 175.82C48.3815 175.7 48.3248 175.553 48.3248 175.38C48.3248 175.207 48.3815 175.06 48.4948 174.94C48.6148 174.82 48.7615 174.76 48.9348 174.76C49.1082 174.76 49.2548 174.82 49.3748 174.94C49.4948 175.06 49.5548 175.207 49.5548 175.38C49.5548 175.547 49.4948 175.69 49.3748 175.81C49.2548 175.93 49.1082 175.99 48.9348 175.99C48.7615 175.99 48.6148 175.933 48.4948 175.82ZM50.896 182V174.93H51.886V182H50.896ZM55.9772 179.74H55.2172C54.8439 179.74 54.5605 179.813 54.3672 179.96C54.1805 180.107 54.0872 180.293 54.0872 180.52C54.0872 180.753 54.1605 180.937 54.3072 181.07C54.4539 181.203 54.6672 181.27 54.9472 181.27C55.2672 181.27 55.5172 181.183 55.6972 181.01C55.8839 180.83 55.9772 180.597 55.9772 180.31V179.74ZM53.4272 178.14V177.19C53.8205 176.963 54.3405 176.85 54.9872 176.85C56.3139 176.85 56.9772 177.493 56.9772 178.78V182H56.0072V181.4C55.7472 181.827 55.2905 182.04 54.6372 182.04C54.1572 182.04 53.7705 181.903 53.4772 181.63C53.1905 181.35 53.0472 180.997 53.0472 180.57C53.0472 180.083 53.2305 179.707 53.5972 179.44C53.9639 179.167 54.4772 179.03 55.1372 179.03H55.9772V178.74C55.9772 178.393 55.8939 178.133 55.7272 177.96C55.5605 177.78 55.2839 177.69 54.8972 177.69C54.3572 177.69 53.8672 177.84 53.4272 178.14ZM58.2974 182V175H59.2774V182H58.2974ZM60.4474 179.35L62.4374 182H61.2674L59.3174 179.35L61.2274 176.93H62.3774L60.4474 179.35ZM65.9674 179.74H65.2074C64.8341 179.74 64.5508 179.813 64.3574 179.96C64.1708 180.107 64.0774 180.293 64.0774 180.52C64.0774 180.753 64.1508 180.937 64.2974 181.07C64.4441 181.203 64.6574 181.27 64.9374 181.27C65.2574 181.27 65.5074 181.183 65.6874 181.01C65.8741 180.83 65.9674 180.597 65.9674 180.31V179.74ZM63.4174 178.14V177.19C63.8108 176.963 64.3308 176.85 64.9774 176.85C66.3041 176.85 66.9674 177.493 66.9674 178.78V182H65.9974V181.4C65.7374 181.827 65.2808 182.04 64.6274 182.04C64.1474 182.04 63.7608 181.903 63.4674 181.63C63.1808 181.35 63.0374 180.997 63.0374 180.57C63.0374 180.083 63.2208 179.707 63.5874 179.44C63.9541 179.167 64.4674 179.03 65.1274 179.03H65.9674V178.74C65.9674 178.393 65.8841 178.133 65.7174 177.96C65.5508 177.78 65.2741 177.69 64.8874 177.69C64.3474 177.69 63.8574 177.84 63.4174 178.14ZM69.2677 176.93V177.8C69.5677 177.173 70.0943 176.86 70.8477 176.86C71.3477 176.86 71.7443 177.013 72.0377 177.32C72.331 177.627 72.4777 178.043 72.4777 178.57V182H71.4977V178.8C71.4977 178.447 71.4077 178.177 71.2277 177.99C71.0543 177.803 70.821 177.71 70.5277 177.71C70.181 177.71 69.8843 177.847 69.6377 178.12C69.391 178.387 69.2677 178.763 69.2677 179.25V182H68.2877V176.93H69.2677ZM78.5964 181.21C78.9897 181.21 79.3131 181.057 79.5664 180.75C79.8197 180.437 79.9464 180 79.9464 179.44C79.9464 178.913 79.8231 178.497 79.5764 178.19C79.3297 177.877 79.0164 177.72 78.6364 177.72C78.2564 177.72 77.9264 177.86 77.6464 178.14C77.3731 178.413 77.2364 178.85 77.2364 179.45C77.2364 180.037 77.3731 180.477 77.6464 180.77C77.9264 181.063 78.2431 181.21 78.5964 181.21ZM77.2364 176.93V177.71C77.5831 177.143 78.1031 176.86 78.7964 176.86C79.4631 176.86 79.9897 177.103 80.3764 177.59C80.7631 178.07 80.9564 178.683 80.9564 179.43C80.9564 180.197 80.7564 180.83 80.3564 181.33C79.9631 181.823 79.4364 182.07 78.7764 182.07C78.1031 182.07 77.5897 181.79 77.2364 181.23V183.94H76.2564V176.93H77.2364ZM85.2072 176.93H86.1872V182H85.2072V181.13C84.9405 181.75 84.4139 182.06 83.6272 182.06C83.1272 182.06 82.7305 181.913 82.4372 181.62C82.1439 181.32 81.9972 180.91 81.9972 180.39V176.93H82.9872V180.15C82.9872 180.497 83.0705 180.763 83.2372 180.95C83.4105 181.13 83.6472 181.22 83.9472 181.22C84.3272 181.22 84.6305 181.087 84.8572 180.82C85.0905 180.553 85.2072 180.177 85.2072 179.69V176.93ZM88.835 177.69V180.48C88.835 180.967 89.0683 181.21 89.535 181.21C89.8083 181.21 90.0383 181.137 90.225 180.99V181.87C90.005 181.99 89.735 182.05 89.415 182.05C88.3683 182.05 87.845 181.52 87.845 180.46V177.69H87.055V176.93H87.845V175.69H88.835V176.93H90.165V177.69H88.835ZM93.9752 179.74H93.2152C92.8419 179.74 92.5586 179.813 92.3652 179.96C92.1786 180.107 92.0852 180.293 92.0852 180.52C92.0852 180.753 92.1586 180.937 92.3052 181.07C92.4519 181.203 92.6652 181.27 92.9452 181.27C93.2652 181.27 93.5152 181.183 93.6952 181.01C93.8819 180.83 93.9752 180.597 93.9752 180.31V179.74ZM91.4252 178.14V177.19C91.8186 176.963 92.3386 176.85 92.9852 176.85C94.3119 176.85 94.9752 177.493 94.9752 178.78V182H94.0052V181.4C93.7452 181.827 93.2886 182.04 92.6352 182.04C92.1552 182.04 91.7686 181.903 91.4752 181.63C91.1886 181.35 91.0452 180.997 91.0452 180.57C91.0452 180.083 91.2286 179.707 91.5952 179.44C91.9619 179.167 92.4752 179.03 93.1352 179.03H93.9752V178.74C93.9752 178.393 93.8919 178.133 93.7252 177.96C93.5586 177.78 93.2819 177.69 92.8952 177.69C92.3552 177.69 91.8652 177.84 91.4252 178.14ZM97.2755 176.93V177.82C97.5221 177.193 97.9655 176.88 98.6055 176.88C98.6988 176.88 98.8021 176.89 98.9155 176.91V177.87C98.7755 177.81 98.6188 177.78 98.4455 177.78C98.1055 177.78 97.8255 177.93 97.6055 178.23C97.3855 178.53 97.2755 178.887 97.2755 179.3V182H96.2955V176.93H97.2755ZM105.295 176.93H106.275V182H105.295V181.13C105.028 181.75 104.502 182.06 103.715 182.06C103.215 182.06 102.818 181.913 102.525 181.62C102.232 181.32 102.085 180.91 102.085 180.39V176.93H103.075V180.15C103.075 180.497 103.158 180.763 103.325 180.95C103.498 181.13 103.735 181.22 104.035 181.22C104.415 181.22 104.718 181.087 104.945 180.82C105.178 180.553 105.295 180.177 105.295 179.69V176.93ZM108.633 176.93V177.8C108.933 177.173 109.46 176.86 110.213 176.86C110.713 176.86 111.11 177.013 111.403 177.32C111.696 177.627 111.843 178.043 111.843 178.57V182H110.863V178.8C110.863 178.447 110.773 178.177 110.593 177.99C110.42 177.803 110.186 177.71 109.893 177.71C109.546 177.71 109.25 177.847 109.003 178.12C108.756 178.387 108.633 178.763 108.633 179.25V182H107.653V176.93H108.633ZM114.431 177.69V180.48C114.431 180.967 114.664 181.21 115.131 181.21C115.404 181.21 115.634 181.137 115.821 180.99V181.87C115.601 181.99 115.331 182.05 115.011 182.05C113.964 182.05 113.441 181.52 113.441 180.46V177.69H112.651V176.93H113.441V175.69H114.431V176.93H115.761V177.69H114.431ZM120.051 176.93H121.031V182H120.051V181.13C119.784 181.75 119.258 182.06 118.471 182.06C117.971 182.06 117.574 181.913 117.281 181.62C116.988 181.32 116.841 180.91 116.841 180.39V176.93H117.831V180.15C117.831 180.497 117.914 180.763 118.081 180.95C118.254 181.13 118.491 181.22 118.791 181.22C119.171 181.22 119.474 181.087 119.701 180.82C119.934 180.553 120.051 180.177 120.051 179.69V176.93ZM122.409 182V175H123.389V182H122.409ZM124.559 179.35L126.549 182H125.379L123.429 179.35L125.339 176.93H126.489L124.559 179.35ZM130.85 176.93V177.74C131.136 177.153 131.613 176.86 132.28 176.86C133.04 176.86 133.526 177.187 133.74 177.84C133.88 177.527 134.083 177.287 134.35 177.12C134.616 176.947 134.916 176.86 135.25 176.86C135.77 176.86 136.163 177.013 136.43 177.32C136.703 177.627 136.84 178.05 136.84 178.59V182H135.86V178.8C135.86 178.073 135.566 177.71 134.98 177.71C134.686 177.71 134.423 177.84 134.19 178.1C133.963 178.36 133.85 178.743 133.85 179.25V182H132.87V178.8C132.87 178.073 132.573 177.71 131.98 177.71C131.693 177.71 131.433 177.84 131.2 178.1C130.966 178.36 130.85 178.743 130.85 179.25V182H129.87V176.93H130.85ZM141.32 179.1V178.92C141.307 178.54 141.204 178.24 141.01 178.02C140.817 177.793 140.54 177.68 140.18 177.68C139.847 177.68 139.56 177.803 139.32 178.05C139.08 178.29 138.93 178.64 138.87 179.1H141.32ZM141.95 180.85V181.73C141.577 181.943 141.084 182.05 140.47 182.05C139.684 182.05 139.057 181.813 138.59 181.34C138.124 180.867 137.89 180.247 137.89 179.48C137.89 178.667 138.104 178.03 138.53 177.57C138.957 177.103 139.5 176.87 140.16 176.87C140.807 176.87 141.32 177.073 141.7 177.48C142.08 177.88 142.27 178.46 142.27 179.22C142.27 179.427 142.25 179.643 142.21 179.87H138.88C138.947 180.31 139.134 180.647 139.44 180.88C139.747 181.113 140.134 181.23 140.6 181.23C141.14 181.23 141.59 181.103 141.95 180.85ZM143.464 182V174.93H144.454V182H143.464ZM145.916 182V176.93H146.906V182H145.916ZM145.966 175.82C145.852 175.7 145.796 175.553 145.796 175.38C145.796 175.207 145.852 175.06 145.966 174.94C146.086 174.82 146.232 174.76 146.406 174.76C146.579 174.76 146.726 174.82 146.846 174.94C146.966 175.06 147.026 175.207 147.026 175.38C147.026 175.547 146.966 175.69 146.846 175.81C146.726 175.93 146.579 175.99 146.406 175.99C146.232 175.99 146.086 175.933 145.966 175.82ZM149.307 174.93V177.8C149.593 177.173 150.117 176.86 150.877 176.86C151.37 176.86 151.767 177.013 152.067 177.32C152.367 177.627 152.517 178.053 152.517 178.6V182H151.537V178.8C151.537 178.453 151.447 178.187 151.267 178C151.093 177.807 150.863 177.71 150.577 177.71C150.243 177.71 149.947 177.837 149.687 178.09C149.433 178.343 149.307 178.73 149.307 179.25V182H148.327V174.93H149.307ZM156.505 179.74H155.745C155.371 179.74 155.088 179.813 154.895 179.96C154.708 180.107 154.615 180.293 154.615 180.52C154.615 180.753 154.688 180.937 154.835 181.07C154.981 181.203 155.195 181.27 155.475 181.27C155.795 181.27 156.045 181.183 156.225 181.01C156.411 180.83 156.505 180.597 156.505 180.31V179.74ZM153.955 178.14V177.19C154.348 176.963 154.868 176.85 155.515 176.85C156.841 176.85 157.505 177.493 157.505 178.78V182H156.535V181.4C156.275 181.827 155.818 182.04 155.165 182.04C154.685 182.04 154.298 181.903 154.005 181.63C153.718 181.35 153.575 180.997 153.575 180.57C153.575 180.083 153.758 179.707 154.125 179.44C154.491 179.167 155.005 179.03 155.665 179.03H156.505V178.74C156.505 178.393 156.421 178.133 156.255 177.96C156.088 177.78 155.811 177.69 155.425 177.69C154.885 177.69 154.395 177.84 153.955 178.14ZM160.095 177.69V180.48C160.095 180.967 160.328 181.21 160.795 181.21C161.068 181.21 161.298 181.137 161.485 180.99V181.87C161.265 181.99 160.995 182.05 160.675 182.05C159.628 182.05 159.105 181.52 159.105 180.46V177.69H158.315V176.93H159.105V175.69H160.095V176.93H161.425V177.69H160.095ZM43.19 198V191H44.17V198H43.19ZM45.34 195.35L47.33 198H46.16L44.21 195.35L46.12 192.93H47.27L45.34 195.35ZM51.34 195.1V194.92C51.3267 194.54 51.2233 194.24 51.03 194.02C50.8367 193.793 50.56 193.68 50.2 193.68C49.8667 193.68 49.58 193.803 49.34 194.05C49.1 194.29 48.95 194.64 48.89 195.1H51.34ZM51.97 196.85V197.73C51.5967 197.943 51.1033 198.05 50.49 198.05C49.7033 198.05 49.0767 197.813 48.61 197.34C48.1433 196.867 47.91 196.247 47.91 195.48C47.91 194.667 48.1233 194.03 48.55 193.57C48.9767 193.103 49.52 192.87 50.18 192.87C50.8267 192.87 51.34 193.073 51.72 193.48C52.1 193.88 52.29 194.46 52.29 195.22C52.29 195.427 52.27 195.643 52.23 195.87H48.9C48.9667 196.31 49.1533 196.647 49.46 196.88C49.7667 197.113 50.1533 197.23 50.62 197.23C51.16 197.23 51.61 197.103 51.97 196.85ZM56.1139 195.74H55.3539C54.9806 195.74 54.6972 195.813 54.5039 195.96C54.3172 196.107 54.2239 196.293 54.2239 196.52C54.2239 196.753 54.2972 196.937 54.4439 197.07C54.5906 197.203 54.8039 197.27 55.0839 197.27C55.4039 197.27 55.6539 197.183 55.8339 197.01C56.0206 196.83 56.1139 196.597 56.1139 196.31V195.74ZM53.5639 194.14V193.19C53.9572 192.963 54.4772 192.85 55.1239 192.85C56.4506 192.85 57.1139 193.493 57.1139 194.78V198H56.1439V197.4C55.8839 197.827 55.4272 198.04 54.7739 198.04C54.2939 198.04 53.9072 197.903 53.6139 197.63C53.3272 197.35 53.1839 196.997 53.1839 196.57C53.1839 196.083 53.3672 195.707 53.7339 195.44C54.1006 195.167 54.6139 195.03 55.2739 195.03H56.1139V194.74C56.1139 194.393 56.0306 194.133 55.8639 193.96C55.6972 193.78 55.4206 193.69 55.0339 193.69C54.4939 193.69 54.0039 193.84 53.5639 194.14ZM60.4841 197.21C60.8708 197.21 61.1975 197.063 61.4641 196.77C61.7308 196.477 61.8641 196.03 61.8641 195.43C61.8641 194.85 61.7241 194.42 61.4441 194.14C61.1708 193.86 60.8608 193.72 60.5141 193.72C60.1208 193.72 59.7975 193.877 59.5441 194.19C59.2908 194.497 59.1641 194.937 59.1641 195.51C59.1641 196.017 59.2875 196.427 59.5341 196.74C59.7875 197.053 60.1041 197.21 60.4841 197.21ZM61.8641 190.93H62.8541V198H61.8641V197.23C61.5108 197.79 60.9941 198.07 60.3141 198.07C59.6475 198.07 59.1208 197.82 58.7341 197.32C58.3475 196.813 58.1541 196.203 58.1541 195.49C58.1541 194.697 58.3575 194.06 58.7641 193.58C59.1708 193.1 59.6941 192.86 60.3341 192.86C60.9941 192.86 61.5041 193.14 61.8641 193.7V190.93ZM66.9049 195.74H66.1449C65.7716 195.74 65.4883 195.813 65.2949 195.96C65.1083 196.107 65.0149 196.293 65.0149 196.52C65.0149 196.753 65.0883 196.937 65.2349 197.07C65.3816 197.203 65.5949 197.27 65.8749 197.27C66.1949 197.27 66.4449 197.183 66.6249 197.01C66.8116 196.83 66.9049 196.597 66.9049 196.31V195.74ZM64.3549 194.14V193.19C64.7483 192.963 65.2683 192.85 65.9149 192.85C67.2416 192.85 67.9049 193.493 67.9049 194.78V198H66.9349V197.4C66.6749 197.827 66.2183 198.04 65.5649 198.04C65.0849 198.04 64.6983 197.903 64.4049 197.63C64.1183 197.35 63.9749 196.997 63.9749 196.57C63.9749 196.083 64.1583 195.707 64.5249 195.44C64.8916 195.167 65.4049 195.03 66.0649 195.03H66.9049V194.74C66.9049 194.393 66.8216 194.133 66.6549 193.96C66.4883 193.78 66.2116 193.69 65.8249 193.69C65.2849 193.69 64.7949 193.84 64.3549 194.14ZM71.8952 195.74H71.1352C70.7618 195.74 70.4785 195.813 70.2852 195.96C70.0985 196.107 70.0052 196.293 70.0052 196.52C70.0052 196.753 70.0785 196.937 70.2252 197.07C70.3718 197.203 70.5852 197.27 70.8652 197.27C71.1852 197.27 71.4352 197.183 71.6152 197.01C71.8018 196.83 71.8952 196.597 71.8952 196.31V195.74ZM69.3452 194.14V193.19C69.7385 192.963 70.2585 192.85 70.9052 192.85C72.2318 192.85 72.8952 193.493 72.8952 194.78V198H71.9252V197.4C71.6652 197.827 71.2085 198.04 70.5552 198.04C70.0752 198.04 69.6885 197.903 69.3952 197.63C69.1085 197.35 68.9652 196.997 68.9652 196.57C68.9652 196.083 69.1485 195.707 69.5152 195.44C69.8818 195.167 70.3952 195.03 71.0552 195.03H71.8952V194.74C71.8952 194.393 71.8118 194.133 71.6452 193.96C71.4785 193.78 71.2018 193.69 70.8152 193.69C70.2752 193.69 69.7852 193.84 69.3452 194.14ZM75.1954 192.93V193.8C75.4954 193.173 76.0221 192.86 76.7754 192.86C77.2754 192.86 77.6721 193.013 77.9654 193.32C78.2587 193.627 78.4054 194.043 78.4054 194.57V198H77.4254V194.8C77.4254 194.447 77.3354 194.177 77.1554 193.99C76.9821 193.803 76.7487 193.71 76.4554 193.71C76.1087 193.71 75.8121 193.847 75.5654 194.12C75.3187 194.387 75.1954 194.763 75.1954 195.25V198H74.2154V192.93H75.1954ZM82.1841 198V191H83.1641V198H82.1841ZM84.3341 195.35L86.3241 198H85.1541L83.2041 195.35L85.1141 192.93H86.2641L84.3341 195.35ZM89.8541 195.74H89.0941C88.7208 195.74 88.4375 195.813 88.2441 195.96C88.0575 196.107 87.9641 196.293 87.9641 196.52C87.9641 196.753 88.0375 196.937 88.1841 197.07C88.3308 197.203 88.5441 197.27 88.8241 197.27C89.1441 197.27 89.3941 197.183 89.5741 197.01C89.7608 196.83 89.8541 196.597 89.8541 196.31V195.74ZM87.3041 194.14V193.19C87.6975 192.963 88.2175 192.85 88.8641 192.85C90.1908 192.85 90.8541 193.493 90.8541 194.78V198H89.8841V197.4C89.6241 197.827 89.1675 198.04 88.5141 198.04C88.0341 198.04 87.6475 197.903 87.3541 197.63C87.0675 197.35 86.9241 196.997 86.9241 196.57C86.9241 196.083 87.1075 195.707 87.4741 195.44C87.8408 195.167 88.3541 195.03 89.0141 195.03H89.8541V194.74C89.8541 194.393 89.7708 194.133 89.6041 193.96C89.4375 193.78 89.1608 193.69 88.7741 193.69C88.2341 193.69 87.7441 193.84 87.3041 194.14ZM93.1544 192.93V193.82C93.401 193.193 93.8444 192.88 94.4844 192.88C94.5777 192.88 94.681 192.89 94.7944 192.91V193.87C94.6544 193.81 94.4977 193.78 94.3244 193.78C93.9844 193.78 93.7044 193.93 93.4844 194.23C93.2644 194.53 93.1544 194.887 93.1544 195.3V198H92.1744V192.93H93.1544ZM95.603 198V192.93H96.593V198H95.603ZM95.653 191.82C95.5397 191.7 95.483 191.553 95.483 191.38C95.483 191.207 95.5397 191.06 95.653 190.94C95.773 190.82 95.9197 190.76 96.093 190.76C96.2664 190.76 96.413 190.82 96.533 190.94C96.653 191.06 96.713 191.207 96.713 191.38C96.713 191.547 96.653 191.69 96.533 191.81C96.413 191.93 96.2664 191.99 96.093 191.99C95.9197 191.99 95.773 191.933 95.653 191.82ZM101.164 195.1V194.92C101.151 194.54 101.048 194.24 100.854 194.02C100.661 193.793 100.384 193.68 100.024 193.68C99.6909 193.68 99.4042 193.803 99.1642 194.05C98.9242 194.29 98.7742 194.64 98.7142 195.1H101.164ZM101.794 196.85V197.73C101.421 197.943 100.928 198.05 100.314 198.05C99.5276 198.05 98.9009 197.813 98.4342 197.34C97.9676 196.867 97.7342 196.247 97.7342 195.48C97.7342 194.667 97.9476 194.03 98.3742 193.57C98.8009 193.103 99.3442 192.87 100.004 192.87C100.651 192.87 101.164 193.073 101.544 193.48C101.924 193.88 102.114 194.46 102.114 195.22C102.114 195.427 102.094 195.643 102.054 195.87H98.7242C98.7909 196.31 98.9776 196.647 99.2842 196.88C99.5909 197.113 99.9776 197.23 100.444 197.23C100.984 197.23 101.434 197.103 101.794 196.85ZM104.248 192.93V193.82C104.495 193.193 104.938 192.88 105.578 192.88C105.671 192.88 105.775 192.89 105.888 192.91V193.87C105.748 193.81 105.591 193.78 105.418 193.78C105.078 193.78 104.798 193.93 104.578 194.23C104.358 194.53 104.248 194.887 104.248 195.3V198H103.268V192.93H104.248ZM110.648 195.49H112.808L112.698 195.15C112.444 194.363 112.238 193.713 112.078 193.2C111.918 192.68 111.821 192.357 111.788 192.23L111.738 192.04C111.664 192.353 111.338 193.39 110.758 195.15L110.648 195.49ZM113.618 198L113.088 196.35H110.368L109.828 198H108.738L111.068 191.26H112.418L114.718 198H113.618ZM116.699 192.93V193.8C116.999 193.173 117.526 192.86 118.279 192.86C118.779 192.86 119.176 193.013 119.469 193.32C119.763 193.627 119.909 194.043 119.909 194.57V198H118.929V194.8C118.929 194.447 118.839 194.177 118.659 193.99C118.486 193.803 118.253 193.71 117.959 193.71C117.613 193.71 117.316 193.847 117.069 194.12C116.823 194.387 116.699 194.763 116.699 195.25V198H115.719V192.93H116.699ZM123.277 197.21C123.664 197.21 123.99 197.063 124.257 196.77C124.524 196.477 124.657 196.03 124.657 195.43C124.657 194.85 124.517 194.42 124.237 194.14C123.964 193.86 123.654 193.72 123.307 193.72C122.914 193.72 122.59 193.877 122.337 194.19C122.084 194.497 121.957 194.937 121.957 195.51C121.957 196.017 122.08 196.427 122.327 196.74C122.58 197.053 122.897 197.21 123.277 197.21ZM124.657 190.93H125.647V198H124.657V197.23C124.304 197.79 123.787 198.07 123.107 198.07C122.44 198.07 121.914 197.82 121.527 197.32C121.14 196.813 120.947 196.203 120.947 195.49C120.947 194.697 121.15 194.06 121.557 193.58C121.964 193.1 122.487 192.86 123.127 192.86C123.787 192.86 124.297 193.14 124.657 193.7V190.93ZM129.698 195.74H128.938C128.565 195.74 128.281 195.813 128.088 195.96C127.901 196.107 127.808 196.293 127.808 196.52C127.808 196.753 127.881 196.937 128.028 197.07C128.175 197.203 128.388 197.27 128.668 197.27C128.988 197.27 129.238 197.183 129.418 197.01C129.605 196.83 129.698 196.597 129.698 196.31V195.74ZM127.148 194.14V193.19C127.541 192.963 128.061 192.85 128.708 192.85C130.035 192.85 130.698 193.493 130.698 194.78V198H129.728V197.4C129.468 197.827 129.011 198.04 128.358 198.04C127.878 198.04 127.491 197.903 127.198 197.63C126.911 197.35 126.768 196.997 126.768 196.57C126.768 196.083 126.951 195.707 127.318 195.44C127.685 195.167 128.198 195.03 128.858 195.03H129.698V194.74C129.698 194.393 129.615 194.133 129.448 193.96C129.281 193.78 129.005 193.69 128.618 193.69C128.078 193.69 127.588 193.84 127.148 194.14Z" fill="#2B2B2B"/>
<rect x="43" y="219" width="120" height="24" rx="8" fill="#FF1934"/>
<path d="M92.5797 230.352L93.1477 230.352C93.5157 230.352 93.7904 230.264 93.9717 230.088C94.1531 229.912 94.2437 229.675 94.2437 229.376C94.2437 229.083 94.1531 228.853 93.9717 228.688C93.7904 228.517 93.5237 228.432 93.1717 228.432L92.5797 228.432L92.5797 230.352ZM91.5717 227.608L93.2597 227.608C93.8677 227.608 94.3531 227.773 94.7157 228.104C95.0837 228.435 95.2677 228.859 95.2677 229.376C95.2677 229.925 95.0784 230.363 94.6997 230.688C94.3264 231.008 93.8544 231.168 93.2837 231.168L92.5797 231.168L92.5797 233L91.5717 233L91.5717 227.608ZM99.193 230.936L99.193 227.608L100.201 227.608L100.201 230.928C100.201 231.627 100.012 232.16 99.633 232.528C99.2597 232.891 98.745 233.072 98.089 233.072C97.449 233.072 96.937 232.893 96.553 232.536C96.1744 232.173 95.985 231.656 95.985 230.984L95.985 227.608L96.993 227.608L96.993 230.976C96.993 231.387 97.0944 231.685 97.297 231.872C97.4997 232.053 97.7637 232.144 98.089 232.144C98.825 232.144 99.193 231.741 99.193 230.936ZM104.69 227.608L104.69 228.44L103.322 228.44L103.322 233L102.306 233L102.306 228.44L100.938 228.44L100.938 227.608L104.69 227.608ZM106.815 230.952L108.335 230.952L108.263 230.712C108.081 230.136 107.932 229.653 107.815 229.264C107.703 228.869 107.633 228.621 107.607 228.52L107.575 228.36C107.527 228.627 107.297 229.413 106.887 230.72L106.815 230.952ZM108.975 233L108.591 231.776L106.551 231.776L106.167 233L105.111 233L106.935 227.608L108.239 227.608L110.063 233L108.975 233ZM111.845 228.44L111.845 230.2L112.517 230.2C112.827 230.2 113.059 230.123 113.213 229.968C113.368 229.808 113.445 229.587 113.445 229.304C113.445 229.027 113.363 228.813 113.197 228.664C113.037 228.515 112.805 228.44 112.501 228.44L111.845 228.44ZM113.621 233L112.397 231.032L111.845 231.032L111.845 233L110.837 233L110.837 227.608L112.501 227.608C113.115 227.608 113.595 227.763 113.941 228.072C114.293 228.381 114.469 228.795 114.469 229.312C114.464 229.696 114.371 230.021 114.189 230.288C114.008 230.549 113.76 230.744 113.445 230.872L114.829 233L113.621 233Z" fill="white"/>
<g clip-path="url(#clip1_1124_4113)">
<path d="M295.367 283.133C337.341 283.133 371.367 249.047 371.367 207C371.367 164.953 337.341 130.867 295.367 130.867C253.394 130.867 219.367 164.953 219.367 207C219.367 249.047 253.394 283.133 295.367 283.133Z" fill="white"/>
<path d="M237.162 249.389C245.802 261.308 258.149 270.702 273.212 275.596C288.275 280.49 303.785 280.147 317.781 275.584L295.5 207L237.162 249.389Z" fill="#008C1E"/>
<path d="M317.788 275.582C331.793 271.047 344.543 262.208 353.852 249.395C363.161 236.582 367.628 221.724 367.613 207.003L295.501 207L317.788 275.582Z" fill="#008C1E"/>
<path d="M367.612 206.997C367.627 192.276 363.16 177.419 353.851 164.606C344.541 151.793 331.792 142.953 317.786 138.418L295.499 207L367.612 206.997Z" fill="#008C1E"/>
<path d="M318.115 138.75C304.119 134.186 288.609 133.843 273.546 138.738C258.483 143.632 246.136 153.026 237.496 164.945L295.834 207.334L318.115 138.75Z" fill="#FF1934"/>
<path d="M237.158 164.616C228.493 176.517 223.374 191.162 223.374 207C223.374 222.838 228.493 237.483 237.158 249.384L295.5 207L237.158 164.616Z" fill="#1699D9"/>
<path d="M318.26 275.44L296.181 207.501L367.616 207.501C367.616 207.331 367.626 207.17 367.626 207C367.626 206.83 367.616 206.67 367.616 206.499L296.191 206.499L318.26 138.56C317.939 138.45 317.629 138.34 317.308 138.24L295.23 206.189L237.439 164.205C237.238 164.476 237.048 164.746 236.858 165.017L294.639 207L236.858 248.984C237.048 249.254 237.238 249.535 237.439 249.795L295.23 207.812L317.308 275.76C317.629 275.66 317.939 275.54 318.26 275.44Z" fill="white"/>
<g opacity="0.32" style="mix-blend-mode:multiply">
<path d="M367.627 206.874C367.627 167.114 335.387 134.874 295.627 134.874C255.867 134.874 223.627 167.114 223.627 206.874C223.627 246.634 255.867 278.874 295.627 278.874C335.387 278.874 367.627 246.634 367.627 206.874ZM227.627 206.874C227.627 169.314 258.067 138.874 295.627 138.874C333.187 138.874 363.627 169.314 363.627 206.874C363.627 244.434 333.187 274.874 295.627 274.874C258.067 274.874 227.627 244.434 227.627 206.874Z" fill="#2B2B2B"/>
</g>
<path d="M287.515 206.986C287.515 211.404 291.096 214.986 295.515 214.986C299.933 214.986 303.515 211.404 303.515 206.986C303.515 202.568 299.933 198.986 295.515 198.986C291.096 198.986 287.515 202.568 287.515 206.986Z" fill="white"/>
<path d="M272.855 260.468L267.727 258.802L268.039 257.844L273.167 259.51L272.855 260.468ZM271.006 257.462L274.183 256.383L273.79 257.592L270.65 258.608L268.639 255.995L269.013 254.846L271.006 257.462ZM272.905 252.679L272.791 252.642C272.539 252.571 272.319 252.576 272.13 252.655C271.939 252.727 271.804 252.882 271.727 253.121C271.656 253.339 271.675 253.555 271.785 253.77C271.891 253.979 272.089 254.155 272.378 254.3L272.905 252.679ZM274.348 252.458L275.139 252.715C275.219 253.038 275.177 253.454 275.012 253.961C274.812 254.575 274.472 255 273.992 255.236C273.511 255.473 272.982 255.497 272.404 255.309C271.79 255.11 271.362 254.786 271.121 254.337C270.88 253.889 270.841 253.413 271.004 252.911C271.167 252.409 271.449 252.06 271.849 251.865C272.249 251.67 272.74 251.667 273.324 251.856C273.466 251.902 273.642 251.979 273.854 252.087L273.068 254.507C273.368 254.532 273.626 254.464 273.841 254.304C274.057 254.139 274.216 253.899 274.318 253.584C274.45 253.178 274.46 252.803 274.348 252.458ZM272.143 249.535L272.805 249.751C272.404 249.379 272.297 248.907 272.483 248.334C272.608 247.948 272.824 247.682 273.13 247.534C273.435 247.387 273.801 247.383 274.227 247.521L276.792 248.354L276.495 249.267L274.121 248.496C273.867 248.413 273.657 248.412 273.491 248.493C273.32 248.572 273.2 248.715 273.133 248.923C273.055 249.162 273.084 249.393 273.219 249.616C273.349 249.837 273.586 250.004 273.931 250.116L276 250.789L275.704 251.702L271.846 250.448L272.143 249.535ZM276.083 244.89L275.93 245.362C275.853 245.6 275.844 245.799 275.904 245.959C275.959 246.117 276.063 246.221 276.215 246.271C276.54 246.376 276.763 246.241 276.885 245.866C276.951 245.663 276.944 245.487 276.863 245.337C276.779 245.181 276.641 245.072 276.448 245.009L276.083 244.89ZM274.319 246.386L273.474 246.112C273.39 245.765 273.437 245.32 273.613 244.777C273.953 243.733 274.609 243.368 275.583 243.685L278.048 244.486L277.754 245.391L277.29 245.24C277.562 245.525 277.618 245.913 277.458 246.405C277.34 246.771 277.138 247.028 276.855 247.176C276.572 247.32 276.269 247.339 275.944 247.234C275.579 247.115 275.337 246.885 275.218 246.544C275.099 246.202 275.124 245.773 275.292 245.256L275.475 244.692L275.239 244.616C275.026 244.547 274.845 244.55 274.697 244.625C274.55 244.7 274.432 244.872 274.345 245.141C274.211 245.552 274.202 245.967 274.319 246.386ZM278.367 243.505L274.509 242.252L274.806 241.339L278.664 242.592L278.367 243.505ZM273.323 241.968C273.171 241.918 273.059 241.823 272.987 241.682C272.915 241.541 272.904 241.394 272.953 241.242C273.003 241.09 273.098 240.978 273.239 240.906C273.38 240.834 273.527 240.823 273.679 240.872C273.837 240.923 273.951 241.019 274.023 241.16C274.095 241.301 274.106 241.448 274.057 241.6C274.007 241.752 273.912 241.865 273.771 241.936C273.63 242.008 273.481 242.019 273.323 241.968ZM280.092 238.197L279.743 239.269L277.3 240.006L279.293 240.654L278.997 241.567L273.709 239.849L274.006 238.936L277.247 239.989L275.878 238.039L276.225 236.974L277.606 238.987L280.092 238.197ZM279.27 235.082L279.117 235.554C279.039 235.793 279.031 235.992 279.091 236.151C279.146 236.31 279.25 236.413 279.402 236.463C279.727 236.568 279.95 236.433 280.072 236.058C280.138 235.855 280.13 235.679 280.05 235.529C279.966 235.373 279.828 235.264 279.635 235.201L279.27 235.082ZM277.505 236.578L276.661 236.304C276.577 235.957 276.624 235.512 276.8 234.97C277.139 233.925 277.796 233.561 278.77 233.877L281.235 234.678L280.941 235.583L280.477 235.433C280.749 235.717 280.805 236.106 280.645 236.598C280.526 236.963 280.325 237.22 280.041 237.369C279.759 237.513 279.456 237.532 279.131 237.426C278.766 237.308 278.524 237.077 278.405 236.736C278.286 236.395 278.31 235.965 278.478 235.448L278.661 234.885L278.425 234.808C278.212 234.739 278.032 234.742 277.884 234.817C277.736 234.893 277.619 235.065 277.531 235.333C277.398 235.744 277.389 236.159 277.505 236.578ZM277.98 231.569L278.642 231.784C278.242 231.413 278.134 230.941 278.32 230.368C278.446 229.982 278.661 229.716 278.967 229.568C279.273 229.421 279.639 229.416 280.065 229.555L282.629 230.388L282.332 231.301L279.959 230.53C279.705 230.447 279.495 230.446 279.329 230.527C279.157 230.606 279.038 230.749 278.97 230.957C278.893 231.196 278.921 231.426 279.056 231.65C279.186 231.871 279.424 232.038 279.768 232.15L281.838 232.823L281.541 233.736L277.684 232.482L277.98 231.569ZM284.778 258.905L287.243 259.706L287.241 259.713L287.327 259.733C287.51 260.308 287.488 260.946 287.26 261.646C286.997 262.458 286.547 263.038 285.913 263.387C285.279 263.731 284.557 263.771 283.745 263.507C282.954 263.25 282.398 262.786 282.078 262.116C281.759 261.44 281.727 260.709 281.983 259.923C282.172 259.34 282.444 258.875 282.797 258.53L283.778 258.849C283.348 259.225 283.048 259.674 282.878 260.197C282.711 260.709 282.737 261.175 282.954 261.593C283.172 262.011 283.547 262.307 284.079 262.48C284.622 262.656 285.1 262.643 285.513 262.441C285.923 262.232 286.216 261.859 286.39 261.321C286.476 261.058 286.514 260.787 286.503 260.508L285.293 260.115L284.987 261.059L284.165 260.792L284.778 258.905ZM287.067 256.39L286.914 256.862C286.836 257.1 286.828 257.299 286.888 257.459C286.943 257.617 287.047 257.721 287.199 257.771C287.524 257.876 287.747 257.741 287.869 257.366C287.935 257.163 287.928 256.987 287.847 256.837C287.763 256.681 287.625 256.572 287.432 256.509L287.067 256.39ZM285.303 257.886L284.458 257.612C284.374 257.265 284.421 256.82 284.597 256.277C284.937 255.233 285.593 254.868 286.567 255.185L289.032 255.986L288.738 256.891L288.274 256.74C288.546 257.025 288.602 257.413 288.442 257.905C288.324 258.271 288.122 258.528 287.838 258.677C287.556 258.82 287.253 258.84 286.928 258.734C286.563 258.615 286.321 258.385 286.202 258.044C286.083 257.702 286.107 257.273 286.276 256.756L286.458 256.193L286.223 256.116C286.01 256.047 285.829 256.05 285.681 256.125C285.533 256.2 285.416 256.372 285.328 256.641C285.195 257.052 285.186 257.467 285.303 257.886ZM290.451 256.305L289.728 256.07C289.862 255.917 289.95 255.775 289.993 255.643C290.081 255.374 289.949 255.183 289.599 255.069L285.498 253.737L285.795 252.824L289.911 254.161C290.292 254.285 290.56 254.487 290.715 254.767C290.871 255.048 290.886 255.381 290.761 255.766C290.701 255.949 290.598 256.129 290.451 256.305ZM284.31 253.46C284.157 253.411 284.045 253.315 283.974 253.174C283.902 253.033 283.89 252.886 283.94 252.734C283.991 252.577 284.087 252.462 284.228 252.391C284.369 252.319 284.516 252.307 284.668 252.357C284.825 252.408 284.94 252.504 285.012 252.645C285.084 252.786 285.094 252.935 285.043 253.093C284.994 253.245 284.898 253.357 284.757 253.429C284.616 253.501 284.467 253.511 284.31 253.46ZM289.986 253.051L286.128 251.798L286.425 250.885L290.282 252.138L289.986 253.051ZM284.942 251.514C284.79 251.464 284.678 251.369 284.606 251.228C284.534 251.087 284.523 250.94 284.572 250.788C284.622 250.636 284.717 250.524 284.858 250.452C284.999 250.38 285.146 250.369 285.298 250.418C285.455 250.469 285.57 250.565 285.642 250.706C285.714 250.847 285.725 250.994 285.676 251.146C285.626 251.298 285.531 251.41 285.39 251.482C285.249 251.554 285.099 251.565 284.942 251.514ZM287.313 248.021L286.454 247.742C286.378 247.336 286.402 246.943 286.526 246.562C286.695 246.04 286.955 245.673 287.304 245.461C287.655 245.244 288.028 245.2 288.424 245.328C288.997 245.514 289.303 245.903 289.341 246.493C289.504 246.232 289.71 246.055 289.959 245.962C290.203 245.867 290.475 245.868 290.774 245.966C291.19 246.101 291.479 246.366 291.643 246.761C291.802 247.149 291.793 247.62 291.613 248.173C291.446 248.685 291.221 249.094 290.937 249.4L290.046 249.111C290.388 248.784 290.63 248.403 290.771 247.967C290.86 247.693 290.866 247.459 290.789 247.266C290.708 247.066 290.566 246.933 290.363 246.867C289.922 246.724 289.585 247.009 289.353 247.725L289.259 248.014L288.49 247.764L288.584 247.475C288.672 247.206 288.687 246.961 288.629 246.741C288.572 246.52 288.437 246.376 288.224 246.306C287.798 246.168 287.5 246.36 287.33 246.882C287.218 247.227 287.213 247.607 287.313 248.021ZM289.827 244.997C289.041 244.741 288.47 244.385 288.114 243.927C287.753 243.468 287.664 242.954 287.849 242.386C288.035 241.813 288.409 241.446 288.972 241.287C289.53 241.121 290.203 241.165 290.989 241.421C291.77 241.675 292.344 242.032 292.71 242.493C293.078 242.949 293.167 243.469 292.977 244.052C292.793 244.62 292.417 244.983 291.849 245.141C291.282 245.299 290.608 245.251 289.827 244.997ZM288.927 243.418C289.172 243.665 289.573 243.88 290.131 244.061C290.689 244.242 291.144 244.309 291.496 244.261C291.845 244.206 292.062 244.046 292.148 243.783C292.237 243.509 292.156 243.25 291.904 243.005C291.654 242.756 291.248 242.54 290.685 242.357C290.122 242.174 289.668 242.113 289.322 242.175C288.979 242.231 288.764 242.392 288.678 242.655C288.594 242.914 288.677 243.168 288.927 243.418ZM294.142 240.285L289.794 235.751L290.069 234.907L294.414 239.448L294.142 240.285ZM294.68 237.465C294.331 237.643 293.968 237.671 293.593 237.549C293.217 237.427 292.941 237.191 292.763 236.842C292.585 236.492 292.557 236.13 292.679 235.755C292.799 235.384 293.034 235.11 293.383 234.932C293.734 234.749 294.098 234.718 294.473 234.84C294.848 234.962 295.124 235.201 295.301 235.555C295.479 235.905 295.507 236.264 295.387 236.635C295.265 237.01 295.03 237.287 294.68 237.465ZM290.802 240.209C290.453 240.387 290.09 240.415 289.715 240.293C289.34 240.171 289.063 239.935 288.885 239.586C288.707 239.236 288.679 238.874 288.801 238.499C288.923 238.123 289.158 237.847 289.508 237.668C289.857 237.49 290.22 237.462 290.595 237.584C290.965 237.705 291.241 237.943 291.423 238.299C291.601 238.649 291.63 239.008 291.509 239.379C291.387 239.754 291.152 240.031 290.802 240.209ZM289.957 239.547C290.12 239.6 290.281 239.588 290.44 239.511C290.597 239.427 290.702 239.301 290.756 239.134C290.809 238.972 290.796 238.813 290.717 238.659C290.635 238.497 290.513 238.39 290.35 238.338C290.183 238.283 290.021 238.298 289.865 238.382C289.705 238.459 289.599 238.579 289.546 238.741C289.492 238.908 289.506 239.073 289.588 239.234C289.667 239.388 289.79 239.493 289.957 239.547ZM293.838 236.796C294 236.848 294.161 236.836 294.32 236.759C294.475 236.68 294.58 236.557 294.634 236.39C294.687 236.228 294.674 236.069 294.595 235.915C294.513 235.753 294.39 235.646 294.228 235.594C294.061 235.539 293.899 235.554 293.743 235.638C293.583 235.715 293.477 235.835 293.424 235.997C293.37 236.164 293.385 236.326 293.468 236.482C293.547 236.637 293.67 236.741 293.838 236.796Z" fill="white"/>
<path d="M278.101 156.467L278.321 157.144C278.496 157.682 278.793 158.037 279.214 158.209C279.639 158.379 280.131 158.373 280.689 158.192C281.181 158.032 281.535 157.752 281.753 157.35C281.977 156.952 282.005 156.497 281.839 155.985L281.624 155.323L278.101 156.467ZM282.111 154.079L282.655 155.753C282.904 156.519 282.872 157.222 282.558 157.862C282.245 158.502 281.728 158.94 281.008 159.174C280.221 159.429 279.508 159.4 278.868 159.086C278.233 158.771 277.786 158.216 277.527 157.419L276.983 155.745L282.111 154.079ZM278.671 160.94L283.799 159.274L284.111 160.233L278.983 161.899L278.671 160.94ZM282.179 163.167L282.355 163.707C282.468 164.057 282.637 164.291 282.86 164.41C283.084 164.528 283.338 164.541 283.622 164.448C283.901 164.358 284.091 164.2 284.192 163.977C284.298 163.752 284.297 163.472 284.188 163.137L284.005 162.574L282.179 163.167ZM284.477 161.361L284.999 162.966C285.187 163.544 285.18 164.057 284.977 164.504C284.776 164.956 284.43 165.262 283.938 165.422C283.416 165.592 282.941 165.547 282.515 165.287C282.095 165.031 281.797 164.632 281.621 164.089L281.403 163.419L279.661 163.986L279.349 163.027L284.477 161.361ZM281.821 167.966L282.5 170.059L281.717 170.313L280.723 167.255L285.851 165.588L286.835 168.617L286.051 168.871L285.381 166.809L283.989 167.262L284.585 169.095L283.809 169.348L283.213 167.514L281.821 167.966ZM288.158 173.413L287.222 173.717C287.32 173.259 287.293 172.797 287.142 172.33C286.99 171.864 286.703 171.525 286.281 171.314C285.866 171.107 285.393 171.09 284.86 171.263C284.327 171.436 283.954 171.728 283.74 172.14C283.528 172.557 283.503 173.016 283.667 173.518C283.823 174 284.083 174.37 284.447 174.627L283.489 174.939C283.184 174.69 282.939 174.282 282.754 173.714C282.507 172.953 282.541 172.246 282.856 171.594C283.178 170.946 283.735 170.493 284.526 170.236C285.302 169.984 286.013 170.022 286.658 170.351C287.31 170.683 287.761 171.234 288.012 172.005C288.195 172.568 288.243 173.038 288.158 173.413ZM285.906 176.579L286.376 178.025L286.582 177.882C287.073 177.531 287.486 177.24 287.82 177.008C288.161 176.78 288.376 176.637 288.464 176.581L288.606 176.501C288.338 176.537 287.518 176.562 286.149 176.576L285.906 176.579ZM284.626 179.266L285.671 178.523L285.041 176.582L283.758 176.595L283.432 175.591L289.123 175.66L289.526 176.9L284.962 180.301L284.626 179.266ZM291.38 182.605L290.589 182.862L290.166 181.561L285.829 182.97L285.515 182.004L289.852 180.595L289.429 179.294L290.221 179.037L291.38 182.605Z" fill="white"/>
<path d="M243.691 206.938H245.211L245.139 206.698C244.957 206.122 244.808 205.639 244.691 205.25C244.579 204.855 244.509 204.607 244.483 204.506L244.451 204.346C244.403 204.613 244.173 205.399 243.763 206.706L243.691 206.938ZM245.851 208.986L245.467 207.762H243.427L243.043 208.986H241.987L243.811 203.594H245.115L246.939 208.986H245.851ZM247.617 208.986L248.049 203.594H249.201L249.937 205.554C250.065 205.885 250.185 206.215 250.297 206.546C250.409 206.871 250.489 207.114 250.537 207.274L250.609 207.522C250.775 206.967 251.004 206.311 251.297 205.554L252.049 203.594H253.201L253.729 208.986H252.721L252.529 206.882L252.385 204.994C252.193 205.543 251.964 206.173 251.697 206.882L250.945 208.906H250.257L249.521 206.882L248.889 205.018C248.889 205.279 248.855 205.901 248.785 206.882L248.625 208.986H247.617ZM256.12 206.938H257.64L257.568 206.698C257.387 206.122 257.238 205.639 257.12 205.25C257.008 204.855 256.939 204.607 256.912 204.506L256.88 204.346C256.832 204.613 256.603 205.399 256.192 206.706L256.12 206.938ZM258.28 208.986L257.896 207.762H255.856L255.472 208.986H254.416L256.24 203.594H257.544L259.368 208.986H258.28ZM260.143 208.986V203.594H261.287L262.583 205.842C262.796 206.21 262.986 206.554 263.151 206.874C263.322 207.189 263.436 207.413 263.495 207.546L263.583 207.746C263.54 207.303 263.519 206.669 263.519 205.842V203.594H264.535V208.986H263.383L262.071 206.746C261.863 206.394 261.674 206.058 261.503 205.738C261.338 205.413 261.223 205.178 261.159 205.034L261.063 204.81C261.122 205.317 261.151 205.959 261.151 206.738V208.986H260.143Z" fill="white"/>
</g>
<g clip-path="url(#clip2_1124_4113)">
<path d="M214.81 218.01L214.81 216.56L230 207.16L214.81 197.77L214.81 196.32L212.12 195.58C211.16 195.32 210.13 195.67 209.55 196.48C207.3 199.59 206 203.24 206 207.16C206 211.08 207.3 214.73 209.55 217.84C210.13 218.65 211.16 219 212.12 218.74L214.81 218L214.81 218.01Z" fill="#D9AA16"/>
<path d="M214.81 196.32L212.7 195.74C212.17 195.6 212.04 196.06 212.53 196.36L214.82 197.77L214.82 196.32L214.81 196.32Z" fill="#B76F09"/>
<path d="M214.81 218.01L212.7 218.59C212.17 218.73 212.04 218.27 212.53 217.97L214.82 216.56L214.82 218.01L214.81 218.01Z" fill="#B76F09"/>
<path d="M208 207.16C208 203.84 209.05 200.63 211.06 197.8L226.2 207.16L211.06 216.52C209.05 213.69 208 210.48 208 207.16Z" fill="white"/>
</g>
<path d="M9 341.5H329C333.694 341.5 337.5 345.306 337.5 350C337.5 354.694 333.694 358.5 329 358.5H9C4.30558 358.5 0.5 354.694 0.5 350C0.500002 345.306 4.30558 341.5 9 341.5Z" fill="white"/>
<path d="M9 341.5H329C333.694 341.5 337.5 345.306 337.5 350C337.5 354.694 333.694 358.5 329 358.5H9C4.30558 358.5 0.5 354.694 0.5 350C0.500002 345.306 4.30558 341.5 9 341.5Z" stroke="#CCCCCC"/>
<path d="M7.86805e-07 350C3.52265e-07 345.029 4.02944 341 9 341L39 341C43.9706 341 48 345.029 48 350C48 354.971 43.9706 359 39 359L9 359C4.02944 359 1.22135e-06 354.971 7.86805e-07 350Z" fill="#FF1934"/>
<path d="M15.448 346.688H16.264L16.816 348.6L17.456 350.92C17.5893 350.179 17.7547 349.403 17.952 348.592L18.44 346.608H19.464L18.088 352H16.92L16.432 350.296C16.2987 349.843 16.184 349.443 16.088 349.096C15.9973 348.749 15.936 348.517 15.904 348.4L15.864 348.216C15.7893 348.589 15.6027 349.283 15.304 350.296L14.8 352H13.64L12.2 346.608H13.264L13.768 348.6C13.8533 348.957 13.9387 349.328 14.024 349.712C14.1093 350.096 14.1733 350.389 14.216 350.592L14.28 350.904C14.4507 350.232 14.6587 349.464 14.904 348.6L15.448 346.688ZM22.2561 350.256H21.7601C21.5094 350.256 21.3174 350.309 21.1841 350.416C21.0507 350.517 20.9841 350.648 20.9841 350.808C20.9841 351.149 21.1814 351.32 21.5761 351.32C21.7894 351.32 21.9547 351.259 22.0721 351.136C22.1947 351.008 22.2561 350.843 22.2561 350.64V350.256ZM20.2881 349.04V348.152C20.5921 347.965 21.0294 347.872 21.6001 347.872C22.6987 347.872 23.2481 348.384 23.2481 349.408V352H22.2961V351.512C22.1094 351.859 21.7574 352.032 21.2401 352.032C20.8561 352.032 20.5494 351.92 20.3201 351.696C20.0961 351.472 19.9841 351.189 19.9841 350.848C19.9841 350.464 20.1281 350.163 20.4161 349.944C20.7041 349.725 21.1201 349.616 21.6641 349.616H22.2561V349.368C22.2561 349.144 22.1974 348.973 22.0801 348.856C21.9627 348.739 21.7627 348.68 21.4801 348.68C21.0481 348.68 20.6507 348.8 20.2881 349.04ZM27.7828 352H26.6548L25.1988 349.904V352H24.2388V346.44H25.1988V349.848L26.6308 347.944H27.7508L26.2628 349.88L27.7828 352ZM29.5864 348.664V350.728C29.5864 350.899 29.6318 351.029 29.7224 351.12C29.8131 351.205 29.9384 351.248 30.0984 351.248C30.3011 351.248 30.4878 351.192 30.6584 351.08V351.904C30.4718 351.995 30.2318 352.04 29.9384 352.04C29.0638 352.04 28.6264 351.597 28.6264 350.712V348.664H28.0184V347.944H28.6264V346.968H29.5864V347.944H30.5944V348.664H29.5864ZM33.9617 347.944H34.9297V352H33.9617V351.336C33.7484 351.805 33.3324 352.04 32.7137 352.04C32.303 352.04 31.983 351.923 31.7537 351.688C31.5244 351.453 31.4097 351.12 31.4097 350.688V347.944H32.3697V350.464C32.3697 350.72 32.431 350.915 32.5537 351.048C32.6817 351.181 32.855 351.248 33.0737 351.248C33.351 351.248 33.567 351.155 33.7217 350.968C33.8817 350.781 33.9617 350.499 33.9617 350.12V347.944Z" fill="white"/>
<rect x="56" y="348" width="274" height="4" rx="2" fill="#CCCCCC"/>
<mask id="mask0_1124_4113" style="mask-type:alpha" maskUnits="userSpaceOnUse" x="56" y="348" width="274" height="4">
<rect x="56" y="348" width="274" height="4" rx="2" fill="#CCCCCC"/>
</mask>
<g mask="url(#mask0_1124_4113)">
<rect x="56" y="348" width="274" height="4" rx="2" fill="#FF1934"/>
</g>
<defs>
<filter id="filter0_d_1124_4113" x="22.5" y="57" width="293" height="56" filterUnits="userSpaceOnUse" color-interpolation-filters="sRGB">
<feFlood flood-opacity="0" result="BackgroundImageFix"/>
<feColorMatrix in="SourceAlpha" type="matrix" values="0 0 0 0 0 0 0 0 0 0 0 0 0 0 0 0 0 0 127 0" result="hardAlpha"/>
<feOffset dy="2"/>
<feGaussianBlur stdDeviation="2"/>
<feComposite in2="hardAlpha" operator="out"/>
<feColorMatrix type="matrix" values="0 0 0 0 0.168627 0 0 0 0 0.168627 0 0 0 0 0.168627 0 0 0 0.24 0"/>
<feBlend mode="normal" in2="BackgroundImageFix" result="effect1_dropShadow_1124_4113"/>
<feBlend mode="normal" in="SourceGraphic" in2="effect1_dropShadow_1124_4113" result="shape"/>
</filter>
<clipPath id="clip0_1124_4113">
<rect width="24" height="24" fill="white" transform="translate(42.5 75)"/>
</clipPath>
<clipPath id="clip1_1124_4113">
<rect width="104" height="152" fill="white" transform="translate(191.5 131)"/>
</clipPath>
<clipPath id="clip2_1124_4113">
<rect width="23.33" height="24" fill="white" transform="translate(230 195.5) rotate(90)"/>
</clipPath>
</defs>
</svg>
