<svg width="285" height="256" viewBox="0 0 285 256" fill="none" xmlns="http://www.w3.org/2000/svg">
<rect width="285" height="256" fill="#D3D3D3"/>
<rect width="285" height="256" rx="16" fill="white"/>
<g filter="url(#filter0_d_1124_4113)">
<path d="M0 16C0 7.16344 7.16344 0 16 0H269C277.837 0 285 7.16344 285 16V48H0V16Z" fill="#FF1934" shape-rendering="crispEdges"/>
<g clip-path="url(#clip0_1124_4113)">
<path d="M37.6905 31.57C37.1305 31.13 36.5205 30.77 35.8805 30.5C35.7305 30.43 35.6705 30.31 35.6505 30.21C35.6105 30.06 35.6505 29.89 35.7505 29.77C36.6305 28.72 37.1505 27.33 37.1505 26.06C37.1505 23.54 35.1005 21.49 32.5805 21.49C32.3505 21.49 32.1105 21.52 31.8705 21.56C30.8605 20.59 29.5005 20 28.0005 20C26.5005 20 25.1405 20.6 24.1305 21.56C23.8805 21.52 23.6505 21.49 23.4205 21.49C20.9005 21.49 18.8505 23.54 18.8505 26.06C18.8505 27.33 19.3705 28.72 20.2505 29.77C20.3505 29.89 20.3905 30.06 20.3505 30.21C20.3305 30.3 20.2705 30.43 20.1205 30.49C19.4805 30.76 18.8805 31.12 18.3105 31.56C17.9605 31.83 17.9005 32.33 18.1705 32.68C18.3305 32.88 18.5605 32.99 18.8005 32.99C18.9705 32.99 19.1405 32.94 19.2905 32.82C19.7505 32.47 20.2405 32.17 20.7505 31.95C21.3305 31.7 21.7505 31.19 21.9005 30.57C22.0505 29.93 21.9005 29.24 21.4705 28.73C20.8405 27.97 20.4405 26.94 20.4405 26.05C20.4405 24.56 21.5405 23.34 22.9805 23.12C22.6105 23.86 22.4005 24.7 22.4005 25.58C22.4005 27.15 23.0505 28.86 24.1305 30.16C24.3005 30.37 24.3705 30.65 24.3105 30.91C24.2805 31.05 24.1805 31.3 23.8905 31.42C22.2505 32.13 20.8005 33.26 19.7105 34.69C19.4405 35.04 19.5105 35.54 19.8605 35.81C20.0105 35.92 20.1805 35.97 20.3405 35.97C20.5805 35.97 20.8205 35.86 20.9805 35.65C21.9005 34.44 23.1205 33.48 24.5205 32.88C25.2005 32.59 25.6905 32 25.8605 31.27C26.0405 30.52 25.8605 29.72 25.3605 29.12C24.5205 28.11 24.0005 26.75 24.0005 25.56C24.0005 24.54 24.4005 23.62 25.0305 22.91C25.0305 22.91 25.0405 22.9 25.0505 22.89C25.7805 22.08 26.8305 21.56 28.0005 21.56C29.1705 21.56 30.2205 22.08 30.9505 22.88C30.9505 22.88 30.9605 22.9 30.9705 22.91C31.6005 23.62 32.0005 24.54 32.0005 25.56C32.0005 26.75 31.4805 28.11 30.6405 29.12C29.8605 30.05 28.9305 30.56 28.0005 30.56C27.5605 30.56 27.2005 30.92 27.2005 31.36C27.2005 31.8 27.5605 32.16 28.0005 32.16C28.7705 32.16 29.5305 31.94 30.2305 31.53C30.4505 32.13 30.8805 32.62 31.4805 32.87C32.8705 33.47 34.0905 34.43 35.0205 35.64C35.1805 35.85 35.4205 35.96 35.6605 35.96C35.8305 35.96 36.0005 35.91 36.1405 35.8C36.4905 35.53 36.5605 35.03 36.2905 34.68C35.2005 33.25 33.7605 32.12 32.1205 31.41C31.8305 31.29 31.7305 31.03 31.7005 30.9C31.6405 30.64 31.7005 30.36 31.8805 30.15C32.9605 28.85 33.6105 27.14 33.6105 25.57C33.6105 24.68 33.4005 23.85 33.0305 23.11C34.4605 23.32 35.5705 24.55 35.5705 26.04C35.5705 26.94 35.1805 27.96 34.5405 28.72C34.1205 29.23 33.9605 29.91 34.1105 30.56C34.2605 31.19 34.6805 31.69 35.2705 31.94C35.7805 32.16 36.2705 32.45 36.7305 32.81C36.8805 32.92 37.0505 32.98 37.2205 32.98C37.4605 32.98 37.7005 32.87 37.8505 32.67C38.1205 32.32 38.0605 31.82 37.7105 31.55L37.6905 31.57Z" fill="white"/>
</g>
<path d="M51.668 28.332H53.936L53.838 27.996C53.5673 27.0813 53.3433 26.302 53.166 25.658C52.998 25.014 52.8953 24.5987 52.858 24.412L52.802 24.132C52.7273 24.6453 52.382 25.9333 51.766 27.996L51.668 28.332ZM55.028 32L54.454 30.068H51.15L50.576 32H48.322L51.472 22.564H54.188L57.338 32H55.028ZM60.55 24.902V26.106C60.7273 25.714 60.998 25.406 61.362 25.182C61.7353 24.9487 62.1787 24.832 62.692 24.832C63.42 24.832 63.9893 25.0513 64.4 25.49C64.8107 25.9193 65.016 26.554 65.016 27.394V32H62.972V27.772C62.972 27.352 62.874 27.0347 62.678 26.82C62.482 26.596 62.2067 26.484 61.852 26.484C61.4787 26.484 61.166 26.6333 60.914 26.932C60.6713 27.2213 60.55 27.66 60.55 28.248V32H58.506V24.902H60.55ZM69.8891 30.376C70.3558 30.376 70.7338 30.194 71.0231 29.83C71.3124 29.466 71.4571 28.9807 71.4571 28.374C71.4571 27.786 71.2984 27.3287 70.9811 27.002C70.6731 26.6753 70.3044 26.512 69.8751 26.512C69.4458 26.512 69.0818 26.6847 68.7831 27.03C68.4938 27.3753 68.3491 27.856 68.3491 28.472C68.3491 29.0413 68.4984 29.5033 68.7971 29.858C69.0958 30.2033 69.4598 30.376 69.8891 30.376ZM71.4571 22.102H73.5011V32H71.4571V30.894C70.9811 31.6873 70.2718 32.084 69.3291 32.084C68.4051 32.084 67.6631 31.7247 67.1031 31.006C66.5524 30.2873 66.2771 29.4287 66.2771 28.43C66.2771 27.31 66.5664 26.428 67.1451 25.784C67.7238 25.14 68.4564 24.818 69.3431 24.818C70.2671 24.818 70.9718 25.21 71.4571 25.994V22.102ZM78.6997 29.088H78.0417C77.6964 29.088 77.4304 29.1627 77.2437 29.312C77.057 29.4613 76.9637 29.6527 76.9637 29.886C76.9637 30.362 77.239 30.6 77.7897 30.6C78.079 30.6 78.303 30.5113 78.4617 30.334C78.6204 30.1567 78.6997 29.914 78.6997 29.606V29.088ZM75.3817 27.086V25.252C75.9417 24.9347 76.749 24.776 77.8037 24.776C78.8117 24.776 79.563 24.9953 80.0577 25.434C80.5524 25.8633 80.7997 26.5353 80.7997 27.45V32H78.7977V31.132C78.499 31.7387 77.911 32.042 77.0337 32.042C76.343 32.042 75.8017 31.846 75.4097 31.454C75.027 31.062 74.8357 30.572 74.8357 29.984C74.8357 29.3027 75.083 28.7753 75.5777 28.402C76.0817 28.0193 76.8237 27.828 77.8037 27.828H78.6997V27.338C78.6997 26.7407 78.303 26.442 77.5097 26.442C76.7444 26.442 76.035 26.6567 75.3817 27.086ZM89.5165 30.376C89.9458 30.376 90.3098 30.2033 90.6085 29.858C90.9071 29.5033 91.0565 29.0413 91.0565 28.472C91.0565 27.856 90.9071 27.3753 90.6085 27.03C90.3191 26.6847 89.9598 26.512 89.5305 26.512C89.1011 26.512 88.7278 26.6753 88.4105 27.002C88.1025 27.3287 87.9485 27.786 87.9485 28.374C87.9485 28.9807 88.0931 29.466 88.3825 29.83C88.6718 30.194 89.0498 30.376 89.5165 30.376ZM87.9485 22.102V25.994C88.4338 25.21 89.1385 24.818 90.0625 24.818C90.9491 24.818 91.6818 25.14 92.2605 25.784C92.8391 26.428 93.1285 27.31 93.1285 28.43C93.1285 29.4287 92.8485 30.2873 92.2885 31.006C91.7378 31.7247 91.0005 32.084 90.0765 32.084C89.1338 32.084 88.4245 31.6873 87.9485 30.894V32H85.9045V22.102H87.9485ZM98.565 27.8V27.632C98.4997 26.8013 98.1357 26.386 97.473 26.386C97.1464 26.386 96.857 26.5073 96.605 26.75C96.353 26.9833 96.185 27.3333 96.101 27.8H98.565ZM100.035 29.886V31.594C99.5497 31.9113 98.8077 32.07 97.809 32.07C96.6424 32.07 95.7324 31.734 95.079 31.062C94.435 30.3807 94.113 29.508 94.113 28.444C94.113 27.3147 94.4257 26.4327 95.051 25.798C95.6857 25.154 96.465 24.832 97.389 24.832C98.341 24.832 99.0924 25.112 99.643 25.672C100.194 26.2227 100.469 27.0487 100.469 28.15C100.469 28.3647 100.432 28.7333 100.357 29.256H96.185C96.325 29.648 96.5677 29.9513 96.913 30.166C97.2584 30.3807 97.6737 30.488 98.159 30.488C98.8777 30.488 99.503 30.2873 100.035 29.886ZM103.958 24.902V26.218C104.089 25.8073 104.303 25.4807 104.602 25.238C104.91 24.986 105.265 24.86 105.666 24.86C105.89 24.86 106.067 24.8787 106.198 24.916V26.848C105.974 26.7453 105.717 26.694 105.428 26.694C104.989 26.694 104.635 26.8573 104.364 27.184C104.093 27.5013 103.958 27.926 103.958 28.458V32H101.914L101.928 24.902H103.958ZM110.624 29.088H109.966C109.62 29.088 109.354 29.1627 109.168 29.312C108.981 29.4613 108.888 29.6527 108.888 29.886C108.888 30.362 109.163 30.6 109.714 30.6C110.003 30.6 110.227 30.5113 110.386 30.334C110.544 30.1567 110.624 29.914 110.624 29.606V29.088ZM107.306 27.086V25.252C107.866 24.9347 108.673 24.776 109.728 24.776C110.736 24.776 111.487 24.9953 111.982 25.434C112.476 25.8633 112.724 26.5353 112.724 27.45V32H110.722V31.132C110.423 31.7387 109.835 32.042 108.958 32.042C108.267 32.042 107.726 31.846 107.334 31.454C106.951 31.062 106.76 30.572 106.76 29.984C106.76 29.3027 107.007 28.7753 107.502 28.402C108.006 28.0193 108.748 27.828 109.728 27.828H110.624V27.338C110.624 26.7407 110.227 26.442 109.434 26.442C108.668 26.442 107.959 26.6567 107.306 27.086ZM117.59 30.376C118.057 30.376 118.435 30.194 118.724 29.83C119.014 29.466 119.158 28.9807 119.158 28.374C119.158 27.786 119 27.3287 118.682 27.002C118.374 26.6753 118.006 26.512 117.576 26.512C117.147 26.512 116.783 26.6847 116.484 27.03C116.195 27.3753 116.05 27.856 116.05 28.472C116.05 29.0413 116.2 29.5033 116.498 29.858C116.797 30.2033 117.161 30.376 117.59 30.376ZM119.158 22.102H121.202V32H119.158V30.894C118.682 31.6873 117.973 32.084 117.03 32.084C116.106 32.084 115.364 31.7247 114.804 31.006C114.254 30.2873 113.978 29.4287 113.978 28.43C113.978 27.31 114.268 26.428 114.846 25.784C115.425 25.14 116.158 24.818 117.044 24.818C117.968 24.818 118.673 25.21 119.158 25.994V22.102ZM126.401 29.088H125.743C125.398 29.088 125.132 29.1627 124.945 29.312C124.758 29.4613 124.665 29.6527 124.665 29.886C124.665 30.362 124.94 30.6 125.491 30.6C125.78 30.6 126.004 30.5113 126.163 30.334C126.322 30.1567 126.401 29.914 126.401 29.606V29.088ZM123.083 27.086V25.252C123.643 24.9347 124.45 24.776 125.505 24.776C126.513 24.776 127.264 24.9953 127.759 25.434C128.254 25.8633 128.501 26.5353 128.501 27.45V32H126.499V31.132C126.2 31.7387 125.612 32.042 124.735 32.042C124.044 32.042 123.503 31.846 123.111 31.454C122.728 31.062 122.537 30.572 122.537 29.984C122.537 29.3027 122.784 28.7753 123.279 28.402C123.783 28.0193 124.525 27.828 125.505 27.828H126.401V27.338C126.401 26.7407 126.004 26.442 125.211 26.442C124.446 26.442 123.736 26.6567 123.083 27.086ZM136.868 30.376C137.334 30.376 137.712 30.194 138.002 29.83C138.291 29.466 138.436 28.9807 138.436 28.374C138.436 27.786 138.277 27.3287 137.96 27.002C137.652 26.6753 137.283 26.512 136.854 26.512C136.424 26.512 136.06 26.6847 135.762 27.03C135.472 27.3753 135.328 27.856 135.328 28.472C135.328 29.0413 135.477 29.5033 135.776 29.858C136.074 30.2033 136.438 30.376 136.868 30.376ZM138.436 22.102H140.48V32H138.436V30.894C137.96 31.6873 137.25 32.084 136.308 32.084C135.384 32.084 134.642 31.7247 134.082 31.006C133.531 30.2873 133.256 29.4287 133.256 28.43C133.256 27.31 133.545 26.428 134.124 25.784C134.702 25.14 135.435 24.818 136.322 24.818C137.246 24.818 137.95 25.21 138.436 25.994V22.102ZM142.234 32V24.902H144.278V32H142.234ZM142.416 23.684C142.183 23.4507 142.066 23.1707 142.066 22.844C142.066 22.5173 142.183 22.2373 142.416 22.004C142.65 21.7707 142.93 21.654 143.256 21.654C143.583 21.654 143.863 21.7707 144.096 22.004C144.33 22.2373 144.446 22.5173 144.446 22.844C144.446 23.1707 144.33 23.4507 144.096 23.684C143.863 23.9173 143.583 24.034 143.256 24.034C142.93 24.034 142.65 23.9173 142.416 23.684ZM151.759 27.24H152.473C153.612 27.24 154.181 26.722 154.181 25.686C154.181 24.7527 153.654 24.286 152.599 24.286H151.759V27.24ZM149.603 22.564H152.851C153.897 22.564 154.741 22.858 155.385 23.446C156.039 24.034 156.365 24.7807 156.365 25.686C156.365 26.722 156.025 27.5247 155.343 28.094C154.671 28.6633 153.841 28.948 152.851 28.948H151.759V32H149.603V22.564ZM160.936 29.088H160.278C159.933 29.088 159.667 29.1627 159.48 29.312C159.293 29.4613 159.2 29.6527 159.2 29.886C159.2 30.362 159.475 30.6 160.026 30.6C160.315 30.6 160.539 30.5113 160.698 30.334C160.857 30.1567 160.936 29.914 160.936 29.606V29.088ZM157.618 27.086V25.252C158.178 24.9347 158.985 24.776 160.04 24.776C161.048 24.776 161.799 24.9953 162.294 25.434C162.789 25.8633 163.036 26.5353 163.036 27.45V32H161.034V31.132C160.735 31.7387 160.147 32.042 159.27 32.042C158.579 32.042 158.038 31.846 157.646 31.454C157.263 31.062 157.072 30.572 157.072 29.984C157.072 29.3027 157.319 28.7753 157.814 28.402C158.318 28.0193 159.06 27.828 160.04 27.828H160.936V27.338C160.936 26.7407 160.539 26.442 159.746 26.442C158.981 26.442 158.271 26.6567 157.618 27.086ZM168.281 30.376C168.729 30.376 169.093 30.208 169.373 29.872C169.653 29.5267 169.793 29.06 169.793 28.472C169.793 27.828 169.648 27.3427 169.359 27.016C169.079 26.68 168.719 26.512 168.281 26.512C167.851 26.512 167.478 26.6753 167.161 27.002C166.843 27.3287 166.685 27.786 166.685 28.374C166.685 28.9807 166.834 29.466 167.133 29.83C167.431 30.194 167.814 30.376 168.281 30.376ZM166.685 24.902V25.994C167.179 25.21 167.893 24.818 168.827 24.818C169.741 24.818 170.474 25.1447 171.025 25.798C171.585 26.442 171.865 27.3193 171.865 28.43C171.865 29.4847 171.594 30.3573 171.053 31.048C170.521 31.7387 169.779 32.084 168.827 32.084C167.865 32.084 167.151 31.706 166.685 30.95V34.618H164.641V24.902H166.685ZM176.713 29.088H176.055C175.71 29.088 175.444 29.1627 175.257 29.312C175.071 29.4613 174.977 29.6527 174.977 29.886C174.977 30.362 175.253 30.6 175.803 30.6C176.093 30.6 176.317 30.5113 176.475 30.334C176.634 30.1567 176.713 29.914 176.713 29.606V29.088ZM173.395 27.086V25.252C173.955 24.9347 174.763 24.776 175.817 24.776C176.825 24.776 177.577 24.9953 178.071 25.434C178.566 25.8633 178.813 26.5353 178.813 27.45V32H176.811V31.132C176.513 31.7387 175.925 32.042 175.047 32.042C174.357 32.042 173.815 31.846 173.423 31.454C173.041 31.062 172.849 30.572 172.849 29.984C172.849 29.3027 173.097 28.7753 173.591 28.402C174.095 28.0193 174.837 27.828 175.817 27.828H176.713V27.338C176.713 26.7407 176.317 26.442 175.523 26.442C174.758 26.442 174.049 26.6567 173.395 27.086ZM182.462 24.902V26.106C182.639 25.714 182.91 25.406 183.274 25.182C183.647 24.9487 184.091 24.832 184.604 24.832C185.332 24.832 185.901 25.0513 186.312 25.49C186.723 25.9193 186.928 26.554 186.928 27.394V32H184.884V27.772C184.884 27.352 184.786 27.0347 184.59 26.82C184.394 26.596 184.119 26.484 183.764 26.484C183.391 26.484 183.078 26.6333 182.826 26.932C182.583 27.2213 182.462 27.66 182.462 28.248V32H180.418V24.902H182.462ZM194.265 27.24H194.979C196.118 27.24 196.687 26.722 196.687 25.686C196.687 24.7527 196.16 24.286 195.105 24.286H194.265V27.24ZM192.109 22.564H195.357C196.403 22.564 197.247 22.858 197.891 23.446C198.545 24.034 198.871 24.7807 198.871 25.686C198.871 26.722 198.531 27.5247 197.849 28.094C197.177 28.6633 196.347 28.948 195.357 28.948H194.265V32H192.109V22.564ZM204.03 27.8V27.632C203.965 26.8013 203.601 26.386 202.938 26.386C202.611 26.386 202.322 26.5073 202.07 26.75C201.818 26.9833 201.65 27.3333 201.566 27.8H204.03ZM205.5 29.886V31.594C205.015 31.9113 204.273 32.07 203.274 32.07C202.107 32.07 201.197 31.734 200.544 31.062C199.9 30.3807 199.578 29.508 199.578 28.444C199.578 27.3147 199.891 26.4327 200.516 25.798C201.151 25.154 201.93 24.832 202.854 24.832C203.806 24.832 204.557 25.112 205.108 25.672C205.659 26.2227 205.934 27.0487 205.934 28.15C205.934 28.3647 205.897 28.7333 205.822 29.256H201.65C201.79 29.648 202.033 29.9513 202.378 30.166C202.723 30.3807 203.139 30.488 203.624 30.488C204.343 30.488 204.968 30.2873 205.5 29.886ZM214.071 32H211.705L209.437 28.514V32H207.393V22.34H209.437V28.08L211.677 24.902H214.029L211.565 28.304L214.071 32ZM219.165 27.8V27.632C219.099 26.8013 218.735 26.386 218.073 26.386C217.746 26.386 217.457 26.5073 217.205 26.75C216.953 26.9833 216.785 27.3333 216.701 27.8H219.165ZM220.635 29.886V31.594C220.149 31.9113 219.407 32.07 218.409 32.07C217.242 32.07 216.332 31.734 215.679 31.062C215.035 30.3807 214.713 29.508 214.713 28.444C214.713 27.3147 215.025 26.4327 215.651 25.798C216.285 25.154 217.065 24.832 217.989 24.832C218.941 24.832 219.692 25.112 220.243 25.672C220.793 26.2227 221.069 27.0487 221.069 28.15C221.069 28.3647 221.031 28.7333 220.957 29.256H216.785C216.925 29.648 217.167 29.9513 217.513 30.166C217.858 30.3807 218.273 30.488 218.759 30.488C219.477 30.488 220.103 30.2873 220.635 29.886ZM224.558 24.902V26.218C224.688 25.8073 224.903 25.4807 225.202 25.238C225.51 24.986 225.864 24.86 226.266 24.86C226.49 24.86 226.667 24.8787 226.798 24.916V26.848C226.574 26.7453 226.317 26.694 226.028 26.694C225.589 26.694 225.234 26.8573 224.964 27.184C224.693 27.5013 224.558 27.926 224.558 28.458V32H222.514L222.528 24.902H224.558ZM226.309 34.548V32.994C226.617 33.134 226.883 33.204 227.107 33.204C227.592 33.204 227.835 32.8913 227.835 32.266V24.902H229.865V32.294C229.865 33.0407 229.655 33.638 229.235 34.086C228.815 34.5433 228.208 34.772 227.415 34.772C227.088 34.772 226.72 34.6973 226.309 34.548ZM228.003 23.684C227.77 23.4507 227.653 23.1707 227.653 22.844C227.653 22.5173 227.77 22.2373 228.003 22.004C228.236 21.7707 228.516 21.654 228.843 21.654C229.17 21.654 229.45 21.7707 229.683 22.004C229.916 22.2373 230.033 22.5173 230.033 22.844C230.033 23.1707 229.916 23.4507 229.683 23.684C229.45 23.9173 229.17 24.034 228.843 24.034C228.516 24.034 228.236 23.9173 228.003 23.684ZM235.065 29.088H234.407C234.062 29.088 233.796 29.1627 233.609 29.312C233.422 29.4613 233.329 29.6527 233.329 29.886C233.329 30.362 233.604 30.6 234.155 30.6C234.444 30.6 234.668 30.5113 234.827 30.334C234.986 30.1567 235.065 29.914 235.065 29.606V29.088ZM231.747 27.086V25.252C232.307 24.9347 233.114 24.776 234.169 24.776C235.177 24.776 235.928 24.9953 236.423 25.434C236.918 25.8633 237.165 26.5353 237.165 27.45V32H235.163V31.132C234.864 31.7387 234.276 32.042 233.399 32.042C232.708 32.042 232.167 31.846 231.775 31.454C231.392 31.062 231.201 30.572 231.201 29.984C231.201 29.3027 231.448 28.7753 231.943 28.402C232.447 28.0193 233.189 27.828 234.169 27.828H235.065V27.338C235.065 26.7407 234.668 26.442 233.875 26.442C233.11 26.442 232.4 26.6567 231.747 27.086ZM242.284 29.088H241.626C241.28 29.088 241.014 29.1627 240.828 29.312C240.641 29.4613 240.548 29.6527 240.548 29.886C240.548 30.362 240.823 30.6 241.374 30.6C241.663 30.6 241.887 30.5113 242.046 30.334C242.204 30.1567 242.284 29.914 242.284 29.606V29.088ZM238.966 27.086V25.252C239.526 24.9347 240.333 24.776 241.388 24.776C242.396 24.776 243.147 24.9953 243.642 25.434C244.136 25.8633 244.384 26.5353 244.384 27.45V32H242.382V31.132C242.083 31.7387 241.495 32.042 240.618 32.042C239.927 32.042 239.386 31.846 238.994 31.454C238.611 31.062 238.42 30.572 238.42 29.984C238.42 29.3027 238.667 28.7753 239.162 28.402C239.666 28.0193 240.408 27.828 241.388 27.828H242.284V27.338C242.284 26.7407 241.887 26.442 241.094 26.442C240.328 26.442 239.619 26.6567 238.966 27.086ZM248.032 24.902V26.106C248.21 25.714 248.48 25.406 248.844 25.182C249.218 24.9487 249.661 24.832 250.174 24.832C250.902 24.832 251.472 25.0513 251.882 25.49C252.293 25.9193 252.498 26.554 252.498 27.394V32H250.454V27.772C250.454 27.352 250.356 27.0347 250.16 26.82C249.964 26.596 249.689 26.484 249.334 26.484C248.961 26.484 248.648 26.6333 248.396 26.932C248.154 27.2213 248.032 27.66 248.032 28.248V32H245.988V24.902H248.032Z" fill="white"/>
</g>
<g clip-path="url(#clip1_1124_4113)">
<path d="M134.743 88.4738L123.133 118.089C122.735 119.105 123.738 120.108 124.754 119.71L154.37 108.101L134.742 88.4731L134.743 88.4738Z" fill="#FF6678"/>
<path d="M146.477 104.43C148.682 105.148 150.688 105.674 152.319 106.05L149.261 102.992C148.572 102.793 147.854 102.574 147.114 102.333C142.806 100.927 136.993 98.5017 132.322 94.6489L131.483 96.7891C133.242 98.1792 135.234 99.4688 137.441 100.643C140.153 102.086 143.193 103.361 146.477 104.429V104.43Z" fill="#F1F1F1"/>
<path d="M138.988 111.92C140.116 112.287 141.191 112.604 142.191 112.876L145.722 111.491C144.062 111.12 141.946 110.579 139.625 109.822C136.359 108.756 132.229 107.104 128.387 104.689L127.571 106.769C128.334 107.239 129.128 107.694 129.951 108.132C132.664 109.576 135.704 110.85 138.988 111.919V111.92Z" fill="#F1F1F1"/>
<path d="M131.454 117.085C129.387 116.383 127.025 115.457 124.633 114.267L123.828 116.32C125.262 117.026 126.777 117.686 128.363 118.296L131.454 117.084V117.085Z" fill="#F1F1F1"/>
<path d="M154.37 108.101C155.654 106.817 152.301 101.383 146.881 95.9633C141.461 90.5434 136.027 87.1904 134.743 88.4741C133.46 89.7577 136.813 95.192 142.232 100.612C147.652 106.032 153.087 109.385 154.37 108.101Z" fill="#8C0010"/>
<path d="M154.338 85.1228C155.458 84.1698 156.74 83.2565 158.18 83.2437C159.62 83.2309 161.139 84.5321 160.89 86.0258C160.687 87.2533 159.496 87.9714 158.434 88.5199C156.491 89.5221 154.548 90.5244 152.605 91.5266C151.622 92.0335 148.345 94.4181 147.367 93.8492C147.721 92.2165 149.383 90.3753 150.408 89.1196C151.594 87.6649 152.916 86.3209 154.338 85.1228Z" fill="#8C0010"/>
<path d="M160.272 95.7795C160.924 95.7596 161.745 95.912 161.914 96.5756C162.037 97.0614 161.717 97.5472 161.362 97.8838C160.277 98.9136 158.807 99.2579 157.387 99.3417C156.646 99.3852 153.626 99.6585 153.226 98.9936C151.956 96.8816 159.402 95.8057 160.272 95.7795Z" fill="#8C0010"/>
<path d="M143.596 84.6461C143.845 84.3056 144.124 83.9728 144.486 83.7751C144.849 83.5773 145.316 83.5408 145.654 83.7821C146.207 84.177 146.16 85.0525 145.94 85.7168C145.616 86.6935 145.057 87.5543 144.394 88.3095C144.012 88.7447 142.753 90.2935 142.144 90.1284C140.529 89.6893 143.113 85.3047 143.596 84.6461Z" fill="#8C0010"/>
<path d="M146.881 120.674C141.461 119.442 136.027 118.68 134.743 118.971C134.578 119.008 134.491 119.061 134.473 119.128L123.133 125.702C122.735 125.933 123.738 126.161 124.754 126.071L153.682 123.493C153.974 123.49 154.206 123.469 154.37 123.432C155.654 123.14 152.301 121.905 146.881 120.674Z" fill="#CCCCCC"/>
<path d="M152.604 119.666C154.547 119.438 156.49 119.21 158.433 118.982C159.496 118.857 160.686 118.694 160.889 118.415C161.137 118.076 159.618 117.78 158.179 117.783C156.739 117.786 155.457 117.993 154.337 118.21C152.915 118.482 151.593 118.788 150.407 119.118C149.383 119.403 147.72 119.822 147.366 120.193C148.344 120.322 151.621 119.78 152.604 119.665V119.666Z" fill="#CCCCCC"/>
<path d="M161.914 120.813C161.745 120.662 160.924 120.628 160.272 120.632C159.402 120.638 151.956 120.882 153.226 121.362C153.626 121.513 156.646 121.451 157.387 121.442C158.807 121.423 160.277 121.345 161.362 121.11C161.717 121.033 162.037 120.923 161.914 120.813V120.813Z" fill="#CCCCCC"/>
<path d="M142.144 119.348C142.753 119.385 144.012 119.033 144.394 118.934C145.057 118.763 145.615 118.567 145.94 118.345C146.16 118.194 146.207 117.995 145.654 117.905C145.316 117.85 144.849 117.858 144.486 117.904C144.124 117.949 143.845 118.024 143.596 118.102C143.113 118.251 140.529 119.248 142.144 119.348Z" fill="#CCCCCC"/>
</g>
<path d="M64.9657 148.53V149.55C64.519 149.27 64.0124 149.13 63.4457 149.13C63.079 149.13 62.789 149.213 62.5757 149.38C62.369 149.54 62.2657 149.753 62.2657 150.02C62.2657 150.287 62.369 150.5 62.5757 150.66C62.7824 150.82 63.099 150.993 63.5257 151.18C63.8057 151.3 64.0224 151.403 64.1757 151.49C64.3357 151.577 64.5157 151.7 64.7157 151.86C64.9224 152.013 65.0724 152.2 65.1657 152.42C65.2657 152.633 65.3157 152.88 65.3157 153.16C65.3157 153.753 65.1057 154.22 64.6857 154.56C64.2657 154.9 63.7224 155.07 63.0557 155.07C62.3157 155.07 61.7024 154.927 61.2157 154.64V153.57C61.7424 153.963 62.3524 154.16 63.0457 154.16C63.4124 154.16 63.7024 154.077 63.9157 153.91C64.129 153.737 64.2357 153.5 64.2357 153.2C64.2357 153.02 64.1724 152.857 64.0457 152.71C63.919 152.557 63.7824 152.443 63.6357 152.37C63.489 152.29 63.269 152.183 62.9757 152.05C62.8024 151.97 62.679 151.913 62.6057 151.88C62.539 151.847 62.4257 151.787 62.2657 151.7C62.1057 151.613 61.9857 151.54 61.9057 151.48C61.8324 151.42 61.739 151.337 61.6257 151.23C61.5124 151.123 61.429 151.017 61.3757 150.91C61.329 150.803 61.2824 150.68 61.2357 150.54C61.1957 150.393 61.1757 150.237 61.1757 150.07C61.1757 149.497 61.3824 149.043 61.7957 148.71C62.2157 148.377 62.7557 148.21 63.4157 148.21C64.0224 148.21 64.539 148.317 64.9657 148.53ZM69.6505 152.1V151.92C69.6372 151.54 69.5339 151.24 69.3405 151.02C69.1472 150.793 68.8705 150.68 68.5105 150.68C68.1772 150.68 67.8905 150.803 67.6505 151.05C67.4105 151.29 67.2605 151.64 67.2005 152.1H69.6505ZM70.2805 153.85V154.73C69.9072 154.943 69.4139 155.05 68.8005 155.05C68.0139 155.05 67.3872 154.813 66.9205 154.34C66.4539 153.867 66.2205 153.247 66.2205 152.48C66.2205 151.667 66.4339 151.03 66.8605 150.57C67.2872 150.103 67.8305 149.87 68.4905 149.87C69.1372 149.87 69.6505 150.073 70.0305 150.48C70.4105 150.88 70.6005 151.46 70.6005 152.22C70.6005 152.427 70.5805 152.643 70.5405 152.87H67.2105C67.2772 153.31 67.4639 153.647 67.7705 153.88C68.0772 154.113 68.4639 154.23 68.9305 154.23C69.4705 154.23 69.9205 154.103 70.2805 153.85ZM71.7945 155V147.93H72.7845V155H71.7945ZM76.8756 152.74H76.1156C75.7423 152.74 75.459 152.813 75.2656 152.96C75.079 153.107 74.9856 153.293 74.9856 153.52C74.9856 153.753 75.059 153.937 75.2056 154.07C75.3523 154.203 75.5656 154.27 75.8456 154.27C76.1656 154.27 76.4156 154.183 76.5956 154.01C76.7823 153.83 76.8756 153.597 76.8756 153.31V152.74ZM74.3256 151.14V150.19C74.719 149.963 75.239 149.85 75.8856 149.85C77.2123 149.85 77.8756 150.493 77.8756 151.78V155H76.9056V154.4C76.6456 154.827 76.189 155.04 75.5356 155.04C75.0556 155.04 74.669 154.903 74.3756 154.63C74.089 154.35 73.9456 153.997 73.9456 153.57C73.9456 153.083 74.129 152.707 74.4956 152.44C74.8623 152.167 75.3756 152.03 76.0356 152.03H76.8756V151.74C76.8756 151.393 76.7923 151.133 76.6256 150.96C76.459 150.78 76.1823 150.69 75.7956 150.69C75.2556 150.69 74.7656 150.84 74.3256 151.14ZM80.1759 149.93V150.74C80.4625 150.153 80.9392 149.86 81.6059 149.86C82.3659 149.86 82.8525 150.187 83.0659 150.84C83.2059 150.527 83.4092 150.287 83.6759 150.12C83.9425 149.947 84.2425 149.86 84.5759 149.86C85.0959 149.86 85.4892 150.013 85.7559 150.32C86.0292 150.627 86.1659 151.05 86.1659 151.59V155H85.1859V151.8C85.1859 151.073 84.8925 150.71 84.3059 150.71C84.0125 150.71 83.7492 150.84 83.5159 151.1C83.2892 151.36 83.1759 151.743 83.1759 152.25V155H82.1959V151.8C82.1959 151.073 81.8992 150.71 81.3059 150.71C81.0192 150.71 80.7592 150.84 80.5259 151.1C80.2925 151.36 80.1759 151.743 80.1759 152.25V155H79.1959V149.93H80.1759ZM90.1666 152.74H89.4066C89.0333 152.74 88.75 152.813 88.5566 152.96C88.37 153.107 88.2766 153.293 88.2766 153.52C88.2766 153.753 88.35 153.937 88.4966 154.07C88.6433 154.203 88.8566 154.27 89.1366 154.27C89.4566 154.27 89.7066 154.183 89.8866 154.01C90.0733 153.83 90.1666 153.597 90.1666 153.31V152.74ZM87.6166 151.14V150.19C88.01 149.963 88.53 149.85 89.1766 149.85C90.5033 149.85 91.1666 150.493 91.1666 151.78V155H90.1966V154.4C89.9366 154.827 89.48 155.04 88.8266 155.04C88.3466 155.04 87.96 154.903 87.6666 154.63C87.38 154.35 87.2366 153.997 87.2366 153.57C87.2366 153.083 87.42 152.707 87.7866 152.44C88.1533 152.167 88.6666 152.03 89.3266 152.03H90.1666V151.74C90.1666 151.393 90.0833 151.133 89.9166 150.96C89.75 150.78 89.4733 150.69 89.0866 150.69C88.5466 150.69 88.0566 150.84 87.6166 151.14ZM93.7569 150.69V153.48C93.7569 153.967 93.9902 154.21 94.4569 154.21C94.7302 154.21 94.9602 154.137 95.1469 153.99V154.87C94.9269 154.99 94.6569 155.05 94.3369 155.05C93.2902 155.05 92.7669 154.52 92.7669 153.46V150.69H91.9769V149.93H92.7669V148.69H93.7569V149.93H95.0869V150.69H93.7569ZM100.218 152.49H102.378L102.268 152.15C102.015 151.363 101.808 150.713 101.648 150.2C101.488 149.68 101.391 149.357 101.358 149.23L101.308 149.04C101.235 149.353 100.908 150.39 100.328 152.15L100.218 152.49ZM103.188 155L102.658 153.35H99.938L99.398 155H98.308L100.638 148.26H101.988L104.288 155H103.188ZM106.27 149.93V150.8C106.57 150.173 107.096 149.86 107.85 149.86C108.35 149.86 108.746 150.013 109.04 150.32C109.333 150.627 109.48 151.043 109.48 151.57V155H108.5V151.8C108.5 151.447 108.41 151.177 108.23 150.99C108.056 150.803 107.823 150.71 107.53 150.71C107.183 150.71 106.886 150.847 106.64 151.12C106.393 151.387 106.27 151.763 106.27 152.25V155H105.29V149.93H106.27ZM112.847 154.21C113.234 154.21 113.561 154.063 113.827 153.77C114.094 153.477 114.227 153.03 114.227 152.43C114.227 151.85 114.087 151.42 113.807 151.14C113.534 150.86 113.224 150.72 112.877 150.72C112.484 150.72 112.161 150.877 111.907 151.19C111.654 151.497 111.527 151.937 111.527 152.51C111.527 153.017 111.651 153.427 111.897 153.74C112.151 154.053 112.467 154.21 112.847 154.21ZM114.227 147.93H115.217V155H114.227V154.23C113.874 154.79 113.357 155.07 112.677 155.07C112.011 155.07 111.484 154.82 111.097 154.32C110.711 153.813 110.517 153.203 110.517 152.49C110.517 151.697 110.721 151.06 111.127 150.58C111.534 150.1 112.057 149.86 112.697 149.86C113.357 149.86 113.867 150.14 114.227 150.7V147.93ZM119.268 152.74H118.508C118.135 152.74 117.852 152.813 117.658 152.96C117.472 153.107 117.378 153.293 117.378 153.52C117.378 153.753 117.452 153.937 117.598 154.07C117.745 154.203 117.958 154.27 118.238 154.27C118.558 154.27 118.808 154.183 118.988 154.01C119.175 153.83 119.268 153.597 119.268 153.31V152.74ZM116.718 151.14V150.19C117.112 149.963 117.632 149.85 118.278 149.85C119.605 149.85 120.268 150.493 120.268 151.78V155H119.298V154.4C119.038 154.827 118.582 155.04 117.928 155.04C117.448 155.04 117.062 154.903 116.768 154.63C116.482 154.35 116.338 153.997 116.338 153.57C116.338 153.083 116.522 152.707 116.888 152.44C117.255 152.167 117.768 152.03 118.428 152.03H119.268V151.74C119.268 151.393 119.185 151.133 119.018 150.96C118.852 150.78 118.575 150.69 118.188 150.69C117.648 150.69 117.158 150.84 116.718 151.14ZM125.029 149.93V150.74C125.316 150.153 125.793 149.86 126.459 149.86C127.219 149.86 127.706 150.187 127.919 150.84C128.059 150.527 128.263 150.287 128.529 150.12C128.796 149.947 129.096 149.86 129.429 149.86C129.949 149.86 130.343 150.013 130.609 150.32C130.883 150.627 131.019 151.05 131.019 151.59V155H130.039V151.8C130.039 151.073 129.746 150.71 129.159 150.71C128.866 150.71 128.603 150.84 128.369 151.1C128.143 151.36 128.029 151.743 128.029 152.25V155H127.049V151.8C127.049 151.073 126.753 150.71 126.159 150.71C125.873 150.71 125.613 150.84 125.379 151.1C125.146 151.36 125.029 151.743 125.029 152.25V155H124.049V149.93H125.029ZM135.5 152.1V151.92C135.487 151.54 135.383 151.24 135.19 151.02C134.997 150.793 134.72 150.68 134.36 150.68C134.027 150.68 133.74 150.803 133.5 151.05C133.26 151.29 133.11 151.64 133.05 152.1H135.5ZM136.13 153.85V154.73C135.757 154.943 135.263 155.05 134.65 155.05C133.863 155.05 133.237 154.813 132.77 154.34C132.303 153.867 132.07 153.247 132.07 152.48C132.07 151.667 132.283 151.03 132.71 150.57C133.137 150.103 133.68 149.87 134.34 149.87C134.987 149.87 135.5 150.073 135.88 150.48C136.26 150.88 136.45 151.46 136.45 152.22C136.45 152.427 136.43 152.643 136.39 152.87H133.06C133.127 153.31 133.313 153.647 133.62 153.88C133.927 154.113 134.313 154.23 134.78 154.23C135.32 154.23 135.77 154.103 136.13 153.85ZM138.584 149.93V150.8C138.884 150.173 139.411 149.86 140.164 149.86C140.664 149.86 141.061 150.013 141.354 150.32C141.647 150.627 141.794 151.043 141.794 151.57V155H140.814V151.8C140.814 151.447 140.724 151.177 140.544 150.99C140.371 150.803 140.137 150.71 139.844 150.71C139.497 150.71 139.201 150.847 138.954 151.12C138.707 151.387 138.584 151.763 138.584 152.25V155H137.604V149.93H138.584ZM145.162 154.21C145.549 154.21 145.875 154.063 146.142 153.77C146.409 153.477 146.542 153.03 146.542 152.43C146.542 151.85 146.402 151.42 146.122 151.14C145.849 150.86 145.539 150.72 145.192 150.72C144.799 150.72 144.475 150.877 144.222 151.19C143.969 151.497 143.842 151.937 143.842 152.51C143.842 153.017 143.965 153.427 144.212 153.74C144.465 154.053 144.782 154.21 145.162 154.21ZM146.542 147.93H147.532V155H146.542V154.23C146.189 154.79 145.672 155.07 144.992 155.07C144.325 155.07 143.799 154.82 143.412 154.32C143.025 153.813 142.832 153.203 142.832 152.49C142.832 151.697 143.035 151.06 143.442 150.58C143.849 150.1 144.372 149.86 145.012 149.86C145.672 149.86 146.182 150.14 146.542 150.7V147.93ZM151.583 152.74H150.823C150.449 152.74 150.166 152.813 149.973 152.96C149.786 153.107 149.693 153.293 149.693 153.52C149.693 153.753 149.766 153.937 149.913 154.07C150.059 154.203 150.273 154.27 150.553 154.27C150.873 154.27 151.123 154.183 151.303 154.01C151.489 153.83 151.583 153.597 151.583 153.31V152.74ZM149.033 151.14V150.19C149.426 149.963 149.946 149.85 150.593 149.85C151.919 149.85 152.583 150.493 152.583 151.78V155H151.613V154.4C151.353 154.827 150.896 155.04 150.243 155.04C149.763 155.04 149.376 154.903 149.083 154.63C148.796 154.35 148.653 153.997 148.653 153.57C148.653 153.083 148.836 152.707 149.203 152.44C149.569 152.167 150.083 152.03 150.743 152.03H151.583V151.74C151.583 151.393 151.499 151.133 151.333 150.96C151.166 150.78 150.889 150.69 150.503 150.69C149.963 150.69 149.473 150.84 149.033 151.14ZM156.243 154.21C156.636 154.21 156.96 154.057 157.213 153.75C157.466 153.437 157.593 153 157.593 152.44C157.593 151.913 157.47 151.497 157.223 151.19C156.976 150.877 156.663 150.72 156.283 150.72C155.903 150.72 155.573 150.86 155.293 151.14C155.02 151.413 154.883 151.85 154.883 152.45C154.883 153.037 155.02 153.477 155.293 153.77C155.573 154.063 155.89 154.21 156.243 154.21ZM154.883 149.93V150.71C155.23 150.143 155.75 149.86 156.443 149.86C157.11 149.86 157.636 150.103 158.023 150.59C158.41 151.07 158.603 151.683 158.603 152.43C158.603 153.197 158.403 153.83 158.003 154.33C157.61 154.823 157.083 155.07 156.423 155.07C155.75 155.07 155.236 154.79 154.883 154.23V156.94H153.903V149.93H154.883ZM162.374 152.74H161.614C161.24 152.74 160.957 152.813 160.764 152.96C160.577 153.107 160.484 153.293 160.484 153.52C160.484 153.753 160.557 153.937 160.704 154.07C160.85 154.203 161.064 154.27 161.344 154.27C161.664 154.27 161.914 154.183 162.094 154.01C162.28 153.83 162.374 153.597 162.374 153.31V152.74ZM159.824 151.14V150.19C160.217 149.963 160.737 149.85 161.384 149.85C162.71 149.85 163.374 150.493 163.374 151.78V155H162.404V154.4C162.144 154.827 161.687 155.04 161.034 155.04C160.554 155.04 160.167 154.903 159.874 154.63C159.587 154.35 159.444 153.997 159.444 153.57C159.444 153.083 159.627 152.707 159.994 152.44C160.36 152.167 160.874 152.03 161.534 152.03H162.374V151.74C162.374 151.393 162.29 151.133 162.124 150.96C161.957 150.78 161.68 150.69 161.294 150.69C160.754 150.69 160.264 150.84 159.824 151.14ZM165.964 150.69V153.48C165.964 153.967 166.197 154.21 166.664 154.21C166.937 154.21 167.167 154.137 167.354 153.99V154.87C167.134 154.99 166.864 155.05 166.544 155.05C165.497 155.05 164.974 154.52 164.974 153.46V150.69H164.184V149.93H164.974V148.69H165.964V149.93H167.294V150.69H165.964ZM168.434 155V148H169.414V155H168.434ZM170.584 152.35L172.574 155H171.404L169.454 152.35L171.364 149.93H172.514L170.584 152.35ZM176.104 152.74H175.344C174.971 152.74 174.687 152.813 174.494 152.96C174.307 153.107 174.214 153.293 174.214 153.52C174.214 153.753 174.287 153.937 174.434 154.07C174.581 154.203 174.794 154.27 175.074 154.27C175.394 154.27 175.644 154.183 175.824 154.01C176.011 153.83 176.104 153.597 176.104 153.31V152.74ZM173.554 151.14V150.19C173.947 149.963 174.467 149.85 175.114 149.85C176.441 149.85 177.104 150.493 177.104 151.78V155H176.134V154.4C175.874 154.827 175.417 155.04 174.764 155.04C174.284 155.04 173.897 154.903 173.604 154.63C173.317 154.35 173.174 153.997 173.174 153.57C173.174 153.083 173.357 152.707 173.724 152.44C174.091 152.167 174.604 152.03 175.264 152.03H176.104V151.74C176.104 151.393 176.021 151.133 175.854 150.96C175.687 150.78 175.411 150.69 175.024 150.69C174.484 150.69 173.994 150.84 173.554 151.14ZM179.404 149.93V150.8C179.704 150.173 180.231 149.86 180.984 149.86C181.484 149.86 181.881 150.013 182.174 150.32C182.468 150.627 182.614 151.043 182.614 151.57V155H181.634V151.8C181.634 151.447 181.544 151.177 181.364 150.99C181.191 150.803 180.958 150.71 180.664 150.71C180.318 150.71 180.021 150.847 179.774 151.12C179.528 151.387 179.404 151.763 179.404 152.25V155H178.424V149.93H179.404ZM186.393 155V148H187.373V155H186.393ZM188.543 152.35L190.533 155H189.363L187.413 152.35L189.323 149.93H190.473L188.543 152.35ZM194.543 152.1V151.92C194.53 151.54 194.426 151.24 194.233 151.02C194.04 150.793 193.763 150.68 193.403 150.68C193.07 150.68 192.783 150.803 192.543 151.05C192.303 151.29 192.153 151.64 192.093 152.1H194.543ZM195.173 153.85V154.73C194.8 154.943 194.306 155.05 193.693 155.05C192.906 155.05 192.28 154.813 191.813 154.34C191.346 153.867 191.113 153.247 191.113 152.48C191.113 151.667 191.326 151.03 191.753 150.57C192.18 150.103 192.723 149.87 193.383 149.87C194.03 149.87 194.543 150.073 194.923 150.48C195.303 150.88 195.493 151.46 195.493 152.22C195.493 152.427 195.473 152.643 195.433 152.87H192.103C192.17 153.31 192.356 153.647 192.663 153.88C192.97 154.113 193.356 154.23 193.823 154.23C194.363 154.23 194.813 154.103 195.173 153.85ZM197.627 149.93V150.8C197.927 150.173 198.454 149.86 199.207 149.86C199.707 149.86 200.104 150.013 200.397 150.32C200.69 150.627 200.837 151.043 200.837 151.57V155H199.857V151.8C199.857 151.447 199.767 151.177 199.587 150.99C199.414 150.803 199.18 150.71 198.887 150.71C198.54 150.71 198.244 150.847 197.997 151.12C197.75 151.387 197.627 151.763 197.627 152.25V155H196.647V149.93H197.627ZM204.825 152.74H204.065C203.692 152.74 203.408 152.813 203.215 152.96C203.028 153.107 202.935 153.293 202.935 153.52C202.935 153.753 203.008 153.937 203.155 154.07C203.302 154.203 203.515 154.27 203.795 154.27C204.115 154.27 204.365 154.183 204.545 154.01C204.732 153.83 204.825 153.597 204.825 153.31V152.74ZM202.275 151.14V150.19C202.668 149.963 203.188 149.85 203.835 149.85C205.162 149.85 205.825 150.493 205.825 151.78V155H204.855V154.4C204.595 154.827 204.138 155.04 203.485 155.04C203.005 155.04 202.618 154.903 202.325 154.63C202.038 154.35 201.895 153.997 201.895 153.57C201.895 153.083 202.078 152.707 202.445 152.44C202.812 152.167 203.325 152.03 203.985 152.03H204.825V151.74C204.825 151.393 204.742 151.133 204.575 150.96C204.408 150.78 204.132 150.69 203.745 150.69C203.205 150.69 202.715 150.84 202.275 151.14ZM207.185 155V149.93H208.175V155H207.185ZM207.235 148.82C207.122 148.7 207.065 148.553 207.065 148.38C207.065 148.207 207.122 148.06 207.235 147.94C207.355 147.82 207.502 147.76 207.675 147.76C207.848 147.76 207.995 147.82 208.115 147.94C208.235 148.06 208.295 148.207 208.295 148.38C208.295 148.547 208.235 148.69 208.115 148.81C207.995 148.93 207.848 148.99 207.675 148.99C207.502 148.99 207.355 148.933 207.235 148.82ZM209.596 155V148H210.576V155H209.596ZM211.746 152.35L213.736 155H212.566L210.616 152.35L212.526 149.93H213.676L211.746 152.35ZM217.266 152.74H216.506C216.133 152.74 215.85 152.813 215.656 152.96C215.47 153.107 215.376 153.293 215.376 153.52C215.376 153.753 215.45 153.937 215.596 154.07C215.743 154.203 215.956 154.27 216.236 154.27C216.556 154.27 216.806 154.183 216.986 154.01C217.173 153.83 217.266 153.597 217.266 153.31V152.74ZM214.716 151.14V150.19C215.11 149.963 215.63 149.85 216.276 149.85C217.603 149.85 218.266 150.493 218.266 151.78V155H217.296V154.4C217.036 154.827 216.58 155.04 215.926 155.04C215.446 155.04 215.06 154.903 214.766 154.63C214.48 154.35 214.336 153.997 214.336 153.57C214.336 153.083 214.52 152.707 214.886 152.44C215.253 152.167 215.766 152.03 216.426 152.03H217.266V151.74C217.266 151.393 217.183 151.133 217.016 150.96C216.85 150.78 216.573 150.69 216.186 150.69C215.646 150.69 215.156 150.84 214.716 151.14ZM220.566 149.93V150.8C220.866 150.173 221.393 149.86 222.146 149.86C222.646 149.86 223.043 150.013 223.336 150.32C223.63 150.627 223.776 151.043 223.776 151.57V155H222.796V151.8C222.796 151.447 222.706 151.177 222.526 150.99C222.353 150.803 222.12 150.71 221.826 150.71C221.48 150.71 221.183 150.847 220.936 151.12C220.69 151.387 220.566 151.763 220.566 152.25V155H219.586V149.93H220.566ZM110.62 170.02C110.966 170.02 111.266 169.887 111.52 169.62C111.78 169.347 111.91 168.967 111.91 168.48C111.91 167.88 111.786 167.437 111.54 167.15C111.3 166.863 111.006 166.72 110.66 166.72C110.266 166.72 109.956 166.877 109.73 167.19C109.503 167.497 109.39 167.903 109.39 168.41C109.39 168.937 109.51 169.337 109.75 169.61C109.996 169.883 110.286 170.02 110.62 170.02ZM111.91 165.93H112.89V170.57C112.89 171.35 112.666 171.937 112.22 172.33C111.78 172.73 111.213 172.93 110.52 172.93C109.866 172.93 109.316 172.82 108.87 172.6V171.61C109.296 171.89 109.813 172.03 110.42 172.03C111.413 172.03 111.91 171.54 111.91 170.56V170.04C111.583 170.587 111.093 170.86 110.44 170.86C109.866 170.86 109.376 170.65 108.97 170.23C108.563 169.803 108.36 169.203 108.36 168.43C108.36 167.683 108.55 167.07 108.93 166.59C109.31 166.103 109.813 165.86 110.44 165.86C111.113 165.86 111.603 166.147 111.91 166.72V165.93ZM116.876 168.74H116.116C115.742 168.74 115.459 168.813 115.266 168.96C115.079 169.107 114.986 169.293 114.986 169.52C114.986 169.753 115.059 169.937 115.206 170.07C115.352 170.203 115.566 170.27 115.846 170.27C116.166 170.27 116.416 170.183 116.596 170.01C116.782 169.83 116.876 169.597 116.876 169.31V168.74ZM114.326 167.14V166.19C114.719 165.963 115.239 165.85 115.886 165.85C117.212 165.85 117.876 166.493 117.876 167.78V171H116.906V170.4C116.646 170.827 116.189 171.04 115.536 171.04C115.056 171.04 114.669 170.903 114.376 170.63C114.089 170.35 113.946 169.997 113.946 169.57C113.946 169.083 114.129 168.707 114.496 168.44C114.862 168.167 115.376 168.03 116.036 168.03H116.876V167.74C116.876 167.393 116.792 167.133 116.626 166.96C116.459 166.78 116.182 166.69 115.796 166.69C115.256 166.69 114.766 166.84 114.326 167.14ZM118.066 172.81V171.98C118.279 172.087 118.493 172.14 118.706 172.14C119.073 172.14 119.256 171.903 119.256 171.43V165.93H120.236V171.45C120.236 171.923 120.109 172.293 119.856 172.56C119.609 172.827 119.256 172.96 118.796 172.96C118.583 172.96 118.339 172.91 118.066 172.81ZM119.306 164.82C119.186 164.7 119.126 164.553 119.126 164.38C119.126 164.207 119.183 164.06 119.296 163.94C119.416 163.82 119.563 163.76 119.736 163.76C119.909 163.76 120.056 163.82 120.176 163.94C120.296 164.06 120.356 164.207 120.356 164.38C120.356 164.547 120.296 164.69 120.176 164.81C120.056 164.93 119.909 164.99 119.736 164.99C119.569 164.99 119.426 164.933 119.306 164.82ZM121.658 171V165.93H122.648V171H121.658ZM121.708 164.82C121.594 164.7 121.538 164.553 121.538 164.38C121.538 164.207 121.594 164.06 121.708 163.94C121.828 163.82 121.974 163.76 122.148 163.76C122.321 163.76 122.468 163.82 122.588 163.94C122.708 164.06 122.768 164.207 122.768 164.38C122.768 164.547 122.708 164.69 122.588 164.81C122.468 164.93 122.321 164.99 122.148 164.99C121.974 164.99 121.828 164.933 121.708 164.82ZM129.42 166.1V166.99C129.093 166.797 128.673 166.7 128.16 166.7C127.927 166.7 127.74 166.753 127.6 166.86C127.467 166.967 127.4 167.107 127.4 167.28C127.4 167.327 127.403 167.373 127.41 167.42C127.423 167.46 127.443 167.503 127.47 167.55C127.497 167.59 127.52 167.627 127.54 167.66C127.567 167.687 127.607 167.717 127.66 167.75C127.713 167.783 127.753 167.813 127.78 167.84C127.813 167.86 127.863 167.887 127.93 167.92C128.003 167.953 128.057 167.98 128.09 168C128.123 168.013 128.18 168.04 128.26 168.08C128.347 168.113 128.407 168.137 128.44 168.15C128.833 168.323 129.14 168.52 129.36 168.74C129.587 168.953 129.7 169.24 129.7 169.6C129.7 170.053 129.54 170.41 129.22 170.67C128.9 170.923 128.467 171.05 127.92 171.05C127.32 171.05 126.82 170.95 126.42 170.75V169.82C126.887 170.107 127.37 170.25 127.87 170.25C128.13 170.25 128.33 170.197 128.47 170.09C128.617 169.983 128.69 169.843 128.69 169.67C128.69 169.523 128.633 169.393 128.52 169.28C128.407 169.16 128.29 169.073 128.17 169.02C128.057 168.96 127.86 168.87 127.58 168.75C126.787 168.423 126.39 167.943 126.39 167.31C126.39 166.863 126.557 166.513 126.89 166.26C127.223 166.007 127.64 165.88 128.14 165.88C128.687 165.88 129.113 165.953 129.42 166.1ZM133.869 168.1V167.92C133.856 167.54 133.753 167.24 133.559 167.02C133.366 166.793 133.089 166.68 132.729 166.68C132.396 166.68 132.109 166.803 131.869 167.05C131.629 167.29 131.479 167.64 131.419 168.1H133.869ZM134.499 169.85V170.73C134.126 170.943 133.633 171.05 133.019 171.05C132.233 171.05 131.606 170.813 131.139 170.34C130.673 169.867 130.439 169.247 130.439 168.48C130.439 167.667 130.653 167.03 131.079 166.57C131.506 166.103 132.049 165.87 132.709 165.87C133.356 165.87 133.869 166.073 134.249 166.48C134.629 166.88 134.819 167.46 134.819 168.22C134.819 168.427 134.799 168.643 134.759 168.87H131.429C131.496 169.31 131.683 169.647 131.989 169.88C132.296 170.113 132.683 170.23 133.149 170.23C133.689 170.23 134.139 170.103 134.499 169.85ZM138.363 170.21C138.737 170.21 139.05 170.053 139.303 169.74C139.557 169.42 139.683 169.01 139.683 168.51C139.683 167.937 139.557 167.497 139.303 167.19C139.05 166.877 138.727 166.72 138.333 166.72C137.987 166.72 137.673 166.86 137.393 167.14C137.12 167.42 136.983 167.85 136.983 168.43C136.983 169.03 137.117 169.477 137.383 169.77C137.65 170.063 137.977 170.21 138.363 170.21ZM136.983 163.93V166.7C137.343 166.14 137.853 165.86 138.513 165.86C139.153 165.86 139.677 166.1 140.083 166.58C140.49 167.06 140.693 167.697 140.693 168.49C140.693 169.203 140.5 169.813 140.113 170.32C139.727 170.82 139.197 171.07 138.523 171.07C137.85 171.07 137.337 170.79 136.983 170.23V171H135.993V163.93H136.983ZM144.944 168.1V167.92C144.93 167.54 144.827 167.24 144.634 167.02C144.44 166.793 144.164 166.68 143.804 166.68C143.47 166.68 143.184 166.803 142.944 167.05C142.704 167.29 142.554 167.64 142.494 168.1H144.944ZM145.574 169.85V170.73C145.2 170.943 144.707 171.05 144.094 171.05C143.307 171.05 142.68 170.813 142.214 170.34C141.747 169.867 141.514 169.247 141.514 168.48C141.514 167.667 141.727 167.03 142.154 166.57C142.58 166.103 143.124 165.87 143.784 165.87C144.43 165.87 144.944 166.073 145.324 166.48C145.704 166.88 145.894 167.46 145.894 168.22C145.894 168.427 145.874 168.643 145.834 168.87H142.504C142.57 169.31 142.757 169.647 143.064 169.88C143.37 170.113 143.757 170.23 144.224 170.23C144.764 170.23 145.214 170.103 145.574 169.85ZM149.937 166.1V166.99C149.611 166.797 149.191 166.7 148.677 166.7C148.444 166.7 148.257 166.753 148.117 166.86C147.984 166.967 147.917 167.107 147.917 167.28C147.917 167.327 147.921 167.373 147.927 167.42C147.941 167.46 147.961 167.503 147.987 167.55C148.014 167.59 148.037 167.627 148.057 167.66C148.084 167.687 148.124 167.717 148.177 167.75C148.231 167.783 148.271 167.813 148.297 167.84C148.331 167.86 148.381 167.887 148.447 167.92C148.521 167.953 148.574 167.98 148.607 168C148.641 168.013 148.697 168.04 148.777 168.08C148.864 168.113 148.924 168.137 148.957 168.15C149.351 168.323 149.657 168.52 149.877 168.74C150.104 168.953 150.217 169.24 150.217 169.6C150.217 170.053 150.057 170.41 149.737 170.67C149.417 170.923 148.984 171.05 148.437 171.05C147.837 171.05 147.337 170.95 146.937 170.75V169.82C147.404 170.107 147.887 170.25 148.387 170.25C148.647 170.25 148.847 170.197 148.987 170.09C149.134 169.983 149.207 169.843 149.207 169.67C149.207 169.523 149.151 169.393 149.037 169.28C148.924 169.16 148.807 169.073 148.687 169.02C148.574 168.96 148.377 168.87 148.097 168.75C147.304 168.423 146.907 167.943 146.907 167.31C146.907 166.863 147.074 166.513 147.407 166.26C147.741 166.007 148.157 165.88 148.657 165.88C149.204 165.88 149.631 165.953 149.937 166.1ZM153.907 168.74H153.147C152.774 168.74 152.49 168.813 152.297 168.96C152.11 169.107 152.017 169.293 152.017 169.52C152.017 169.753 152.09 169.937 152.237 170.07C152.384 170.203 152.597 170.27 152.877 170.27C153.197 170.27 153.447 170.183 153.627 170.01C153.814 169.83 153.907 169.597 153.907 169.31V168.74ZM151.357 167.14V166.19C151.75 165.963 152.27 165.85 152.917 165.85C154.244 165.85 154.907 166.493 154.907 167.78V171H153.937V170.4C153.677 170.827 153.22 171.04 152.567 171.04C152.087 171.04 151.7 170.903 151.407 170.63C151.12 170.35 150.977 169.997 150.977 169.57C150.977 169.083 151.16 168.707 151.527 168.44C151.894 168.167 152.407 168.03 153.067 168.03H153.907V167.74C153.907 167.393 153.824 167.133 153.657 166.96C153.49 166.78 153.214 166.69 152.827 166.69C152.287 166.69 151.797 166.84 151.357 167.14ZM157.207 165.93V166.82C157.454 166.193 157.897 165.88 158.537 165.88C158.63 165.88 158.734 165.89 158.847 165.91V166.87C158.707 166.81 158.55 166.78 158.377 166.78C158.037 166.78 157.757 166.93 157.537 167.23C157.317 167.53 157.207 167.887 157.207 168.3V171H156.227V165.93H157.207Z" fill="#2B2B2B"/>
<path d="M163.847 167.59L161.807 164.26H163.277L164.567 166.47C164.66 166.29 164.88 165.897 165.227 165.29C165.58 164.677 165.777 164.333 165.817 164.26H167.347L165.307 167.59L167.517 171H166.017L164.587 168.67C164.487 168.863 164.247 169.273 163.867 169.9C163.493 170.52 163.277 170.887 163.217 171H161.707L163.847 167.59ZM170.012 171.01L173.722 164.09H174.832L171.112 171.01H170.012ZM173.572 170.56C173.226 170.213 173.052 169.793 173.052 169.3C173.052 168.807 173.226 168.387 173.572 168.04C173.919 167.693 174.339 167.52 174.832 167.52C175.319 167.52 175.736 167.693 176.082 168.04C176.436 168.387 176.612 168.807 176.612 169.3C176.612 169.793 176.436 170.213 176.082 170.56C175.736 170.907 175.319 171.08 174.832 171.08C174.339 171.08 173.919 170.907 173.572 170.56ZM168.812 167.01C168.466 166.663 168.292 166.243 168.292 165.75C168.292 165.257 168.466 164.837 168.812 164.49C169.159 164.143 169.579 163.97 170.072 163.97C170.566 163.97 170.986 164.143 171.332 164.49C171.679 164.837 171.852 165.257 171.852 165.75C171.852 166.237 171.676 166.657 171.322 167.01C170.976 167.357 170.559 167.53 170.072 167.53C169.579 167.53 169.159 167.357 168.812 167.01ZM169.272 165.75C169.272 165.963 169.349 166.15 169.502 166.31C169.662 166.463 169.852 166.54 170.072 166.54C170.286 166.54 170.469 166.463 170.622 166.31C170.782 166.15 170.862 165.963 170.862 165.75C170.862 165.53 170.782 165.343 170.622 165.19C170.469 165.03 170.286 164.95 170.072 164.95C169.852 164.95 169.662 165.03 169.502 165.19C169.349 165.343 169.272 165.53 169.272 165.75ZM174.042 169.3C174.042 169.513 174.119 169.7 174.272 169.86C174.426 170.013 174.612 170.09 174.832 170.09C175.046 170.09 175.229 170.013 175.382 169.86C175.542 169.7 175.622 169.513 175.622 169.3C175.622 169.08 175.542 168.893 175.382 168.74C175.229 168.58 175.046 168.5 174.832 168.5C174.612 168.5 174.426 168.58 174.272 168.74C174.119 168.893 174.042 169.08 174.042 169.3Z" fill="#D9AA16"/>
<rect x="82.5" y="200" width="120" height="24" rx="8" fill="#FF1934"/>
<path d="M122.49 213.104L124.594 213.104L124.594 214L121.482 214L121.482 208.608L122.49 208.608L122.49 213.104ZM126.725 211.952L128.245 211.952L128.173 211.712C127.992 211.136 127.842 210.653 127.725 210.264C127.613 209.869 127.544 209.621 127.517 209.52L127.485 209.36C127.437 209.627 127.208 210.413 126.797 211.72L126.725 211.952ZM128.885 214L128.501 212.776L126.461 212.776L126.077 214L125.021 214L126.845 208.608L128.149 208.608L129.973 214L128.885 214ZM130.748 214L130.748 208.608L131.892 208.608L133.188 210.856C133.401 211.224 133.59 211.568 133.756 211.888C133.926 212.203 134.041 212.427 134.1 212.56L134.188 212.76C134.145 212.317 134.124 211.683 134.124 210.856L134.124 208.608L135.14 208.608L135.14 214L133.988 214L132.676 211.76C132.468 211.408 132.278 211.072 132.108 210.752C131.942 210.427 131.828 210.192 131.764 210.048L131.668 209.824C131.726 210.331 131.756 210.973 131.756 211.752L131.756 214L130.748 214ZM135.935 213.84L135.935 212.928C136.138 213.056 136.351 213.12 136.575 213.12C136.986 213.12 137.191 212.901 137.191 212.464L137.191 208.616L138.199 208.616L138.199 212.464C138.199 212.971 138.071 213.355 137.815 213.616C137.559 213.877 137.207 214.008 136.759 214.008C136.423 214.008 136.149 213.952 135.935 213.84ZM142.463 211.936L142.463 208.608L143.471 208.608L143.471 211.928C143.471 212.627 143.281 213.16 142.903 213.528C142.529 213.891 142.015 214.072 141.359 214.072C140.719 214.072 140.207 213.893 139.823 213.536C139.444 213.173 139.255 212.656 139.255 211.984L139.255 208.608L140.263 208.608L140.263 211.976C140.263 212.387 140.364 212.685 140.567 212.872C140.769 213.053 141.033 213.144 141.359 213.144C142.095 213.144 142.463 212.741 142.463 211.936ZM147.96 208.608L147.96 209.44L146.592 209.44L146.592 214L145.576 214L145.576 209.44L144.208 209.44L144.208 208.608L147.96 208.608ZM148.716 214L148.716 208.608L149.724 208.608L149.724 214L148.716 214ZM151.004 211.312L153.012 214L151.74 214L149.804 211.328L151.668 208.608L152.876 208.608L151.004 211.312ZM155.108 211.952L156.628 211.952L156.556 211.712C156.374 211.136 156.225 210.653 156.108 210.264C155.996 209.869 155.926 209.621 155.9 209.52L155.868 209.36C155.82 209.627 155.59 210.413 155.18 211.72L155.108 211.952ZM157.268 214L156.884 212.776L154.844 212.776L154.46 214L153.404 214L155.228 208.608L156.532 208.608L158.356 214L157.268 214ZM159.13 214L159.13 208.608L160.274 208.608L161.57 210.856C161.784 211.224 161.973 211.568 162.138 211.888C162.309 212.203 162.424 212.427 162.482 212.56L162.57 212.76C162.528 212.317 162.506 211.683 162.506 210.856L162.506 208.608L163.522 208.608L163.522 214L162.37 214L161.058 211.76C160.85 211.408 160.661 211.072 160.49 210.752C160.325 210.427 160.21 210.192 160.146 210.048L160.05 209.824C160.109 210.331 160.138 210.973 160.138 211.752L160.138 214L159.13 214Z" fill="white"/>
<defs>
<filter id="filter0_d_1124_4113" x="-4" y="-2" width="293" height="56" filterUnits="userSpaceOnUse" color-interpolation-filters="sRGB">
<feFlood flood-opacity="0" result="BackgroundImageFix"/>
<feColorMatrix in="SourceAlpha" type="matrix" values="0 0 0 0 0 0 0 0 0 0 0 0 0 0 0 0 0 0 127 0" result="hardAlpha"/>
<feOffset dy="2"/>
<feGaussianBlur stdDeviation="2"/>
<feComposite in2="hardAlpha" operator="out"/>
<feColorMatrix type="matrix" values="0 0 0 0 0.168627 0 0 0 0 0.168627 0 0 0 0 0.168627 0 0 0 0.24 0"/>
<feBlend mode="normal" in2="BackgroundImageFix" result="effect1_dropShadow_1124_4113"/>
<feBlend mode="normal" in="SourceGraphic" in2="effect1_dropShadow_1124_4113" result="shape"/>
</filter>
<clipPath id="clip0_1124_4113">
<rect width="24" height="24" fill="white" transform="translate(16 16)"/>
</clipPath>
<clipPath id="clip1_1124_4113">
<rect width="64" height="64" fill="white" transform="translate(110.5 72)"/>
</clipPath>
</defs>
</svg>
