<svg width="290" height="86" viewBox="0 0 290 86" fill="none" xmlns="http://www.w3.org/2000/svg">
<rect width="290" height="86" fill="#D3D3D3"/>
<rect x="0.5" y="0.5" width="289" height="85" rx="4.5" stroke="#9747FF" stroke-dasharray="10 5"/>
<g clip-path="url(#clip0_1124_4113)">
<rect x="20" y="23.5" width="224" height="6" rx="3" fill="#F1F1F1"/>
<rect x="-195" y="23.5" width="224" height="6" rx="3" fill="#FF6678"/>
</g>
<circle cx="26" cy="26.5" r="5.5" fill="#FF1934" stroke="white"/>
<g clip-path="url(#clip1_1124_4113)">
<path d="M249.41 25.71C249.41 24.6833 249.613 23.87 250.02 23.27C250.433 22.6633 250.997 22.36 251.71 22.36C252.437 22.36 253.007 22.66 253.42 23.26C253.833 23.86 254.04 24.6767 254.04 25.71C254.04 26.73 253.837 27.5467 253.43 28.16C253.03 28.7733 252.457 29.08 251.71 29.08C250.997 29.08 250.433 28.7733 250.02 28.16C249.613 27.5467 249.41 26.73 249.41 25.71ZM250.78 23.91C250.533 24.33 250.41 24.93 250.41 25.71C250.41 26.49 250.53 27.0967 250.77 27.53C251.017 27.9567 251.33 28.17 251.71 28.17C252.123 28.17 252.447 27.9567 252.68 27.53C252.913 27.1033 253.03 26.4967 253.03 25.71C253.03 24.9167 252.907 24.3133 252.66 23.9C252.42 23.48 252.103 23.27 251.71 23.27C251.337 23.27 251.027 23.4833 250.78 23.91ZM259.03 29.01L262.67 22.23H263.6L259.95 29.01H259.03ZM261.92 27.4C261.92 26.94 262.083 26.5467 262.41 26.22C262.737 25.8867 263.133 25.72 263.6 25.72C264.06 25.72 264.453 25.8867 264.78 26.22C265.107 26.5467 265.27 26.94 265.27 27.4C265.27 27.8667 265.107 28.2633 264.78 28.59C264.453 28.91 264.06 29.07 263.6 29.07C263.133 29.07 262.737 28.91 262.41 28.59C262.083 28.2633 261.92 27.8667 261.92 27.4ZM257.39 23.8C257.39 23.34 257.553 22.9467 257.88 22.62C258.207 22.2933 258.6 22.13 259.06 22.13C259.527 22.13 259.923 22.2933 260.25 22.62C260.577 22.9467 260.74 23.34 260.74 23.8C260.74 24.2667 260.577 24.6633 260.25 24.99C259.923 25.3167 259.527 25.48 259.06 25.48C258.6 25.48 258.207 25.3167 257.88 24.99C257.553 24.6633 257.39 24.2667 257.39 23.8ZM258.22 23.8C258.22 24.0333 258.3 24.2333 258.46 24.4C258.627 24.5667 258.827 24.65 259.06 24.65C259.293 24.65 259.493 24.5667 259.66 24.4C259.827 24.2333 259.91 24.0333 259.91 23.8C259.91 23.5667 259.827 23.37 259.66 23.21C259.493 23.0433 259.293 22.96 259.06 22.96C258.827 22.96 258.627 23.0433 258.46 23.21C258.3 23.3767 258.22 23.5733 258.22 23.8ZM263 26.8C262.833 26.9667 262.75 27.1667 262.75 27.4C262.75 27.6333 262.833 27.8333 263 28C263.167 28.1667 263.367 28.25 263.6 28.25C263.833 28.25 264.03 28.1667 264.19 28C264.357 27.8333 264.44 27.6333 264.44 27.4C264.44 27.1667 264.357 26.9667 264.19 26.8C264.03 26.6333 263.833 26.55 263.6 26.55C263.367 26.55 263.167 26.6333 263 26.8ZM249.16 40.48V39.43L250.79 38.46H251.68V45H250.71V39.53L249.16 40.48ZM252.808 41.71C252.808 40.6833 253.012 39.87 253.418 39.27C253.832 38.6633 254.395 38.36 255.108 38.36C255.835 38.36 256.405 38.66 256.818 39.26C257.232 39.86 257.438 40.6767 257.438 41.71C257.438 42.73 257.235 43.5467 256.828 44.16C256.428 44.7733 255.855 45.08 255.108 45.08C254.395 45.08 253.832 44.7733 253.418 44.16C253.012 43.5467 252.808 42.73 252.808 41.71ZM254.178 39.91C253.932 40.33 253.808 40.93 253.808 41.71C253.808 42.49 253.928 43.0967 254.168 43.53C254.415 43.9567 254.728 44.17 255.108 44.17C255.522 44.17 255.845 43.9567 256.078 43.53C256.312 43.1033 256.428 42.4967 256.428 41.71C256.428 40.9167 256.305 40.3133 256.058 39.9C255.818 39.48 255.502 39.27 255.108 39.27C254.735 39.27 254.425 39.4833 254.178 39.91ZM262.429 45.01L266.069 38.23H266.999L263.349 45.01H262.429ZM265.319 43.4C265.319 42.94 265.482 42.5467 265.809 42.22C266.135 41.8867 266.532 41.72 266.999 41.72C267.459 41.72 267.852 41.8867 268.179 42.22C268.505 42.5467 268.669 42.94 268.669 43.4C268.669 43.8667 268.505 44.2633 268.179 44.59C267.852 44.91 267.459 45.07 266.999 45.07C266.532 45.07 266.135 44.91 265.809 44.59C265.482 44.2633 265.319 43.8667 265.319 43.4ZM260.789 39.8C260.789 39.34 260.952 38.9467 261.279 38.62C261.605 38.2933 261.999 38.13 262.459 38.13C262.925 38.13 263.322 38.2933 263.649 38.62C263.975 38.9467 264.139 39.34 264.139 39.8C264.139 40.2667 263.975 40.6633 263.649 40.99C263.322 41.3167 262.925 41.48 262.459 41.48C261.999 41.48 261.605 41.3167 261.279 40.99C260.952 40.6633 260.789 40.2667 260.789 39.8ZM261.619 39.8C261.619 40.0333 261.699 40.2333 261.859 40.4C262.025 40.5667 262.225 40.65 262.459 40.65C262.692 40.65 262.892 40.5667 263.059 40.4C263.225 40.2333 263.309 40.0333 263.309 39.8C263.309 39.5667 263.225 39.37 263.059 39.21C262.892 39.0433 262.692 38.96 262.459 38.96C262.225 38.96 262.025 39.0433 261.859 39.21C261.699 39.3767 261.619 39.5733 261.619 39.8ZM266.399 42.8C266.232 42.9667 266.149 43.1667 266.149 43.4C266.149 43.6333 266.232 43.8333 266.399 44C266.565 44.1667 266.765 44.25 266.999 44.25C267.232 44.25 267.429 44.1667 267.589 44C267.755 43.8333 267.839 43.6333 267.839 43.4C267.839 43.1667 267.755 42.9667 267.589 42.8C267.429 42.6333 267.232 42.55 266.999 42.55C266.765 42.55 266.565 42.6333 266.399 42.8ZM250.71 60.15H253.55V61H249.36V60.19C250.2 59.5767 250.907 58.9433 251.48 58.29C252.06 57.63 252.35 57.03 252.35 56.49C252.35 56.11 252.24 55.82 252.02 55.62C251.8 55.4133 251.497 55.31 251.11 55.31C250.577 55.31 250.053 55.51 249.54 55.91V54.94C250.02 54.5733 250.59 54.39 251.25 54.39C251.863 54.39 252.37 54.5633 252.77 54.91C253.17 55.25 253.37 55.7367 253.37 56.37C253.37 57.5433 252.483 58.8033 250.71 60.15ZM254.371 57.71C254.371 56.6833 254.574 55.87 254.981 55.27C255.394 54.6633 255.958 54.36 256.671 54.36C257.398 54.36 257.968 54.66 258.381 55.26C258.794 55.86 259.001 56.6767 259.001 57.71C259.001 58.73 258.798 59.5467 258.391 60.16C257.991 60.7733 257.418 61.08 256.671 61.08C255.958 61.08 255.394 60.7733 254.981 60.16C254.574 59.5467 254.371 58.73 254.371 57.71ZM255.741 55.91C255.494 56.33 255.371 56.93 255.371 57.71C255.371 58.49 255.491 59.0967 255.731 59.53C255.978 59.9567 256.291 60.17 256.671 60.17C257.084 60.17 257.408 59.9567 257.641 59.53C257.874 59.1033 257.991 58.4967 257.991 57.71C257.991 56.9167 257.868 56.3133 257.621 55.9C257.381 55.48 257.064 55.27 256.671 55.27C256.298 55.27 255.988 55.4833 255.741 55.91ZM263.991 61.01L267.631 54.23H268.561L264.911 61.01H263.991ZM266.881 59.4C266.881 58.94 267.044 58.5467 267.371 58.22C267.698 57.8867 268.094 57.72 268.561 57.72C269.021 57.72 269.414 57.8867 269.741 58.22C270.068 58.5467 270.231 58.94 270.231 59.4C270.231 59.8667 270.068 60.2633 269.741 60.59C269.414 60.91 269.021 61.07 268.561 61.07C268.094 61.07 267.698 60.91 267.371 60.59C267.044 60.2633 266.881 59.8667 266.881 59.4ZM262.351 55.8C262.351 55.34 262.514 54.9467 262.841 54.62C263.168 54.2933 263.561 54.13 264.021 54.13C264.488 54.13 264.884 54.2933 265.211 54.62C265.538 54.9467 265.701 55.34 265.701 55.8C265.701 56.2667 265.538 56.6633 265.211 56.99C264.884 57.3167 264.488 57.48 264.021 57.48C263.561 57.48 263.168 57.3167 262.841 56.99C262.514 56.6633 262.351 56.2667 262.351 55.8ZM263.181 55.8C263.181 56.0333 263.261 56.2333 263.421 56.4C263.588 56.5667 263.788 56.65 264.021 56.65C264.254 56.65 264.454 56.5667 264.621 56.4C264.788 56.2333 264.871 56.0333 264.871 55.8C264.871 55.5667 264.788 55.37 264.621 55.21C264.454 55.0433 264.254 54.96 264.021 54.96C263.788 54.96 263.588 55.0433 263.421 55.21C263.261 55.3767 263.181 55.5733 263.181 55.8ZM267.961 58.8C267.794 58.9667 267.711 59.1667 267.711 59.4C267.711 59.6333 267.794 59.8333 267.961 60C268.128 60.1667 268.328 60.25 268.561 60.25C268.794 60.25 268.991 60.1667 269.151 60C269.318 59.8333 269.401 59.6333 269.401 59.4C269.401 59.1667 269.318 58.9667 269.151 58.8C268.991 58.6333 268.794 58.55 268.561 58.55C268.328 58.55 268.128 58.6333 267.961 58.8ZM249.57 71.7V70.75C249.983 70.51 250.443 70.39 250.95 70.39C251.617 70.39 252.137 70.5567 252.51 70.89C252.89 71.2167 253.08 71.63 253.08 72.13C253.08 72.49 252.99 72.8067 252.81 73.08C252.637 73.3467 252.377 73.55 252.03 73.69C252.41 73.7833 252.707 73.96 252.92 74.22C253.133 74.48 253.24 74.8067 253.24 75.2C253.24 75.74 253.047 76.1867 252.66 76.54C252.273 76.8867 251.73 77.06 251.03 77.06C250.37 77.06 249.813 76.9467 249.36 76.72V75.76C249.853 76.0267 250.393 76.16 250.98 76.16C251.373 76.16 251.68 76.0633 251.9 75.87C252.127 75.67 252.24 75.4167 252.24 75.11C252.24 74.79 252.117 74.5433 251.87 74.37C251.623 74.1967 251.253 74.11 250.76 74.11H250.36V73.27H250.76C251.127 73.27 251.433 73.18 251.68 73C251.933 72.8133 252.06 72.56 252.06 72.24C252.06 71.92 251.957 71.68 251.75 71.52C251.55 71.36 251.273 71.28 250.92 71.28C250.467 71.28 250.017 71.42 249.57 71.7ZM254.117 73.71C254.117 72.6833 254.32 71.87 254.727 71.27C255.14 70.6633 255.704 70.36 256.417 70.36C257.144 70.36 257.714 70.66 258.127 71.26C258.54 71.86 258.747 72.6767 258.747 73.71C258.747 74.73 258.544 75.5467 258.137 76.16C257.737 76.7733 257.164 77.08 256.417 77.08C255.704 77.08 255.14 76.7733 254.727 76.16C254.32 75.5467 254.117 74.73 254.117 73.71ZM255.487 71.91C255.24 72.33 255.117 72.93 255.117 73.71C255.117 74.49 255.237 75.0967 255.477 75.53C255.724 75.9567 256.037 76.17 256.417 76.17C256.83 76.17 257.154 75.9567 257.387 75.53C257.62 75.1033 257.737 74.4967 257.737 73.71C257.737 72.9167 257.614 72.3133 257.367 71.9C257.127 71.48 256.81 71.27 256.417 71.27C256.044 71.27 255.734 71.4833 255.487 71.91ZM263.737 77.01L267.377 70.23H268.307L264.657 77.01H263.737ZM266.627 75.4C266.627 74.94 266.791 74.5467 267.117 74.22C267.444 73.8867 267.841 73.72 268.307 73.72C268.767 73.72 269.161 73.8867 269.487 74.22C269.814 74.5467 269.977 74.94 269.977 75.4C269.977 75.8667 269.814 76.2633 269.487 76.59C269.161 76.91 268.767 77.07 268.307 77.07C267.841 77.07 267.444 76.91 267.117 76.59C266.791 76.2633 266.627 75.8667 266.627 75.4ZM262.097 71.8C262.097 71.34 262.261 70.9467 262.587 70.62C262.914 70.2933 263.307 70.13 263.767 70.13C264.234 70.13 264.631 70.2933 264.957 70.62C265.284 70.9467 265.447 71.34 265.447 71.8C265.447 72.2667 265.284 72.6633 264.957 72.99C264.631 73.3167 264.234 73.48 263.767 73.48C263.307 73.48 262.914 73.3167 262.587 72.99C262.261 72.6633 262.097 72.2667 262.097 71.8ZM262.927 71.8C262.927 72.0333 263.007 72.2333 263.167 72.4C263.334 72.5667 263.534 72.65 263.767 72.65C264.001 72.65 264.201 72.5667 264.367 72.4C264.534 72.2333 264.617 72.0333 264.617 71.8C264.617 71.5667 264.534 71.37 264.367 71.21C264.201 71.0433 264.001 70.96 263.767 70.96C263.534 70.96 263.334 71.0433 263.167 71.21C263.007 71.3767 262.927 71.5733 262.927 71.8ZM267.707 74.8C267.541 74.9667 267.457 75.1667 267.457 75.4C267.457 75.6333 267.541 75.8333 267.707 76C267.874 76.1667 268.074 76.25 268.307 76.25C268.541 76.25 268.737 76.1667 268.897 76C269.064 75.8333 269.147 75.6333 269.147 75.4C269.147 75.1667 269.064 74.9667 268.897 74.8C268.737 74.6333 268.541 74.55 268.307 74.55C268.074 74.55 267.874 74.6333 267.707 74.8ZM250.37 90.62H252.34V87.05L250.37 90.62ZM254.24 90.62V91.47H253.32V93H252.34V91.47H249.38V90.62L251.73 86.45H253.32V90.62H254.24ZM254.869 89.71C254.869 88.6833 255.072 87.87 255.479 87.27C255.892 86.6633 256.456 86.36 257.169 86.36C257.896 86.36 258.466 86.66 258.879 87.26C259.292 87.86 259.499 88.6767 259.499 89.71C259.499 90.73 259.296 91.5467 258.889 92.16C258.489 92.7733 257.916 93.08 257.169 93.08C256.456 93.08 255.892 92.7733 255.479 92.16C255.072 91.5467 254.869 90.73 254.869 89.71ZM256.239 87.91C255.992 88.33 255.869 88.93 255.869 89.71C255.869 90.49 255.989 91.0967 256.229 91.53C256.476 91.9567 256.789 92.17 257.169 92.17C257.582 92.17 257.906 91.9567 258.139 91.53C258.372 91.1033 258.489 90.4967 258.489 89.71C258.489 88.9167 258.366 88.3133 258.119 87.9C257.879 87.48 257.562 87.27 257.169 87.27C256.796 87.27 256.486 87.4833 256.239 87.91ZM264.489 93.01L268.129 86.23H269.059L265.409 93.01H264.489ZM267.379 91.4C267.379 90.94 267.542 90.5467 267.869 90.22C268.196 89.8867 268.592 89.72 269.059 89.72C269.519 89.72 269.912 89.8867 270.239 90.22C270.566 90.5467 270.729 90.94 270.729 91.4C270.729 91.8667 270.566 92.2633 270.239 92.59C269.912 92.91 269.519 93.07 269.059 93.07C268.592 93.07 268.196 92.91 267.869 92.59C267.542 92.2633 267.379 91.8667 267.379 91.4ZM262.849 87.8C262.849 87.34 263.012 86.9467 263.339 86.62C263.666 86.2933 264.059 86.13 264.519 86.13C264.986 86.13 265.382 86.2933 265.709 86.62C266.036 86.9467 266.199 87.34 266.199 87.8C266.199 88.2667 266.036 88.6633 265.709 88.99C265.382 89.3167 264.986 89.48 264.519 89.48C264.059 89.48 263.666 89.3167 263.339 88.99C263.012 88.6633 262.849 88.2667 262.849 87.8ZM263.679 87.8C263.679 88.0333 263.759 88.2333 263.919 88.4C264.086 88.5667 264.286 88.65 264.519 88.65C264.752 88.65 264.952 88.5667 265.119 88.4C265.286 88.2333 265.369 88.0333 265.369 87.8C265.369 87.5667 265.286 87.37 265.119 87.21C264.952 87.0433 264.752 86.96 264.519 86.96C264.286 86.96 264.086 87.0433 263.919 87.21C263.759 87.3767 263.679 87.5733 263.679 87.8ZM268.459 90.8C268.292 90.9667 268.209 91.1667 268.209 91.4C268.209 91.6333 268.292 91.8333 268.459 92C268.626 92.1667 268.826 92.25 269.059 92.25C269.292 92.25 269.489 92.1667 269.649 92C269.816 91.8333 269.899 91.6333 269.899 91.4C269.899 91.1667 269.816 90.9667 269.649 90.8C269.489 90.6333 269.292 90.55 269.059 90.55C268.826 90.55 268.626 90.6333 268.459 90.8ZM250.8 103.3V105.02C251.047 104.967 251.273 104.94 251.48 104.94C252.16 104.94 252.693 105.12 253.08 105.48C253.467 105.833 253.66 106.313 253.66 106.92C253.66 107.573 253.443 108.097 253.01 108.49C252.583 108.877 251.987 109.07 251.22 109.07C250.533 109.07 249.967 108.957 249.52 108.73V107.78C249.947 108.04 250.46 108.17 251.06 108.17C252.113 108.17 252.64 107.743 252.64 106.89C252.64 106.55 252.52 106.287 252.28 106.1C252.047 105.907 251.73 105.81 251.33 105.81C250.823 105.81 250.323 105.927 249.83 106.16V102.45H253.22V103.3H250.8ZM254.478 105.71C254.478 104.683 254.682 103.87 255.088 103.27C255.502 102.663 256.065 102.36 256.778 102.36C257.505 102.36 258.075 102.66 258.488 103.26C258.902 103.86 259.108 104.677 259.108 105.71C259.108 106.73 258.905 107.547 258.498 108.16C258.098 108.773 257.525 109.08 256.778 109.08C256.065 109.08 255.502 108.773 255.088 108.16C254.682 107.547 254.478 106.73 254.478 105.71ZM255.848 103.91C255.602 104.33 255.478 104.93 255.478 105.71C255.478 106.49 255.598 107.097 255.838 107.53C256.085 107.957 256.398 108.17 256.778 108.17C257.192 108.17 257.515 107.957 257.748 107.53C257.982 107.103 258.098 106.497 258.098 105.71C258.098 104.917 257.975 104.313 257.728 103.9C257.488 103.48 257.172 103.27 256.778 103.27C256.405 103.27 256.095 103.483 255.848 103.91ZM264.099 109.01L267.739 102.23H268.669L265.019 109.01H264.099ZM266.989 107.4C266.989 106.94 267.152 106.547 267.479 106.22C267.805 105.887 268.202 105.72 268.669 105.72C269.129 105.72 269.522 105.887 269.849 106.22C270.175 106.547 270.339 106.94 270.339 107.4C270.339 107.867 270.175 108.263 269.849 108.59C269.522 108.91 269.129 109.07 268.669 109.07C268.202 109.07 267.805 108.91 267.479 108.59C267.152 108.263 266.989 107.867 266.989 107.4ZM262.459 103.8C262.459 103.34 262.622 102.947 262.949 102.62C263.275 102.293 263.669 102.13 264.129 102.13C264.595 102.13 264.992 102.293 265.319 102.62C265.645 102.947 265.809 103.34 265.809 103.8C265.809 104.267 265.645 104.663 265.319 104.99C264.992 105.317 264.595 105.48 264.129 105.48C263.669 105.48 263.275 105.317 262.949 104.99C262.622 104.663 262.459 104.267 262.459 103.8ZM263.289 103.8C263.289 104.033 263.369 104.233 263.529 104.4C263.695 104.567 263.895 104.65 264.129 104.65C264.362 104.65 264.562 104.567 264.729 104.4C264.895 104.233 264.979 104.033 264.979 103.8C264.979 103.567 264.895 103.37 264.729 103.21C264.562 103.043 264.362 102.96 264.129 102.96C263.895 102.96 263.695 103.043 263.529 103.21C263.369 103.377 263.289 103.573 263.289 103.8ZM268.069 106.8C267.902 106.967 267.819 107.167 267.819 107.4C267.819 107.633 267.902 107.833 268.069 108C268.235 108.167 268.435 108.25 268.669 108.25C268.902 108.25 269.099 108.167 269.259 108C269.425 107.833 269.509 107.633 269.509 107.4C269.509 107.167 269.425 106.967 269.259 106.8C269.099 106.633 268.902 106.55 268.669 106.55C268.435 106.55 268.235 106.633 268.069 106.8ZM251.83 124.24C252.177 124.24 252.45 124.117 252.65 123.87C252.85 123.617 252.95 123.287 252.95 122.88C252.95 122.5 252.85 122.2 252.65 121.98C252.45 121.76 252.183 121.65 251.85 121.65C251.33 121.65 250.87 121.867 250.47 122.3C250.497 122.947 250.633 123.433 250.88 123.76C251.133 124.08 251.45 124.24 251.83 124.24ZM253.49 118.44V119.39C253.23 119.257 252.927 119.19 252.58 119.19C251.993 119.19 251.523 119.4 251.17 119.82C250.817 120.233 250.593 120.767 250.5 121.42C250.933 121 251.447 120.79 252.04 120.79C252.633 120.79 253.1 120.98 253.44 121.36C253.787 121.74 253.96 122.243 253.96 122.87C253.96 123.537 253.767 124.08 253.38 124.5C252.993 124.92 252.473 125.13 251.82 125.13C251.06 125.13 250.477 124.847 250.07 124.28C249.67 123.713 249.47 122.963 249.47 122.03C249.47 120.937 249.747 120.04 250.3 119.34C250.86 118.64 251.607 118.29 252.54 118.29C252.873 118.29 253.19 118.34 253.49 118.44ZM254.703 121.71C254.703 120.683 254.906 119.87 255.313 119.27C255.726 118.663 256.29 118.36 257.003 118.36C257.73 118.36 258.3 118.66 258.713 119.26C259.126 119.86 259.333 120.677 259.333 121.71C259.333 122.73 259.13 123.547 258.723 124.16C258.323 124.773 257.75 125.08 257.003 125.08C256.29 125.08 255.726 124.773 255.313 124.16C254.906 123.547 254.703 122.73 254.703 121.71ZM256.073 119.91C255.826 120.33 255.703 120.93 255.703 121.71C255.703 122.49 255.823 123.097 256.063 123.53C256.31 123.957 256.623 124.17 257.003 124.17C257.416 124.17 257.74 123.957 257.973 123.53C258.206 123.103 258.323 122.497 258.323 121.71C258.323 120.917 258.2 120.313 257.953 119.9C257.713 119.48 257.396 119.27 257.003 119.27C256.63 119.27 256.32 119.483 256.073 119.91ZM264.323 125.01L267.963 118.23H268.893L265.243 125.01H264.323ZM267.213 123.4C267.213 122.94 267.376 122.547 267.703 122.22C268.03 121.887 268.426 121.72 268.893 121.72C269.353 121.72 269.746 121.887 270.073 122.22C270.4 122.547 270.563 122.94 270.563 123.4C270.563 123.867 270.4 124.263 270.073 124.59C269.746 124.91 269.353 125.07 268.893 125.07C268.426 125.07 268.03 124.91 267.703 124.59C267.376 124.263 267.213 123.867 267.213 123.4ZM262.683 119.8C262.683 119.34 262.846 118.947 263.173 118.62C263.5 118.293 263.893 118.13 264.353 118.13C264.82 118.13 265.216 118.293 265.543 118.62C265.87 118.947 266.033 119.34 266.033 119.8C266.033 120.267 265.87 120.663 265.543 120.99C265.216 121.317 264.82 121.48 264.353 121.48C263.893 121.48 263.5 121.317 263.173 120.99C262.846 120.663 262.683 120.267 262.683 119.8ZM263.513 119.8C263.513 120.033 263.593 120.233 263.753 120.4C263.92 120.567 264.12 120.65 264.353 120.65C264.586 120.65 264.786 120.567 264.953 120.4C265.12 120.233 265.203 120.033 265.203 119.8C265.203 119.567 265.12 119.37 264.953 119.21C264.786 119.043 264.586 118.96 264.353 118.96C264.12 118.96 263.92 119.043 263.753 119.21C263.593 119.377 263.513 119.573 263.513 119.8ZM268.293 122.8C268.126 122.967 268.043 123.167 268.043 123.4C268.043 123.633 268.126 123.833 268.293 124C268.46 124.167 268.66 124.25 268.893 124.25C269.126 124.25 269.323 124.167 269.483 124C269.65 123.833 269.733 123.633 269.733 123.4C269.733 123.167 269.65 122.967 269.483 122.8C269.323 122.633 269.126 122.55 268.893 122.55C268.66 122.55 268.46 122.633 268.293 122.8ZM249.14 134.46H253.45V135.31L250.79 141H249.74L252.41 135.31H249.14V134.46ZM254 137.71C254 136.683 254.203 135.87 254.61 135.27C255.023 134.663 255.587 134.36 256.3 134.36C257.027 134.36 257.597 134.66 258.01 135.26C258.423 135.86 258.63 136.677 258.63 137.71C258.63 138.73 258.427 139.547 258.02 140.16C257.62 140.773 257.047 141.08 256.3 141.08C255.587 141.08 255.023 140.773 254.61 140.16C254.203 139.547 254 138.73 254 137.71ZM255.37 135.91C255.123 136.33 255 136.93 255 137.71C255 138.49 255.12 139.097 255.36 139.53C255.607 139.957 255.92 140.17 256.3 140.17C256.713 140.17 257.037 139.957 257.27 139.53C257.503 139.103 257.62 138.497 257.62 137.71C257.62 136.917 257.497 136.313 257.25 135.9C257.01 135.48 256.693 135.27 256.3 135.27C255.927 135.27 255.617 135.483 255.37 135.91ZM263.62 141.01L267.26 134.23H268.19L264.54 141.01H263.62ZM266.51 139.4C266.51 138.94 266.673 138.547 267 138.22C267.327 137.887 267.723 137.72 268.19 137.72C268.65 137.72 269.043 137.887 269.37 138.22C269.697 138.547 269.86 138.94 269.86 139.4C269.86 139.867 269.697 140.263 269.37 140.59C269.043 140.91 268.65 141.07 268.19 141.07C267.723 141.07 267.327 140.91 267 140.59C266.673 140.263 266.51 139.867 266.51 139.4ZM261.98 135.8C261.98 135.34 262.143 134.947 262.47 134.62C262.797 134.293 263.19 134.13 263.65 134.13C264.117 134.13 264.513 134.293 264.84 134.62C265.167 134.947 265.33 135.34 265.33 135.8C265.33 136.267 265.167 136.663 264.84 136.99C264.513 137.317 264.117 137.48 263.65 137.48C263.19 137.48 262.797 137.317 262.47 136.99C262.143 136.663 261.98 136.267 261.98 135.8ZM262.81 135.8C262.81 136.033 262.89 136.233 263.05 136.4C263.217 136.567 263.417 136.65 263.65 136.65C263.883 136.65 264.083 136.567 264.25 136.4C264.417 136.233 264.5 136.033 264.5 135.8C264.5 135.567 264.417 135.37 264.25 135.21C264.083 135.043 263.883 134.96 263.65 134.96C263.417 134.96 263.217 135.043 263.05 135.21C262.89 135.377 262.81 135.573 262.81 135.8ZM267.59 138.8C267.423 138.967 267.34 139.167 267.34 139.4C267.34 139.633 267.423 139.833 267.59 140C267.757 140.167 267.957 140.25 268.19 140.25C268.423 140.25 268.62 140.167 268.78 140C268.947 139.833 269.03 139.633 269.03 139.4C269.03 139.167 268.947 138.967 268.78 138.8C268.62 138.633 268.423 138.55 268.19 138.55C267.957 138.55 267.757 138.633 267.59 138.8ZM251.67 156.25C252.077 156.25 252.387 156.15 252.6 155.95C252.82 155.75 252.93 155.503 252.93 155.21C252.93 154.917 252.823 154.67 252.61 154.47C252.397 154.27 252.083 154.17 251.67 154.17C251.27 154.177 250.967 154.287 250.76 154.5C250.56 154.707 250.46 154.963 250.46 155.27C250.46 155.55 250.563 155.783 250.77 155.97C250.977 156.157 251.277 156.25 251.67 156.25ZM251.66 151.21C251.32 151.21 251.053 151.31 250.86 151.51C250.667 151.71 250.57 151.953 250.57 152.24C250.57 152.58 250.673 152.84 250.88 153.02C251.093 153.193 251.367 153.28 251.7 153.28C252.013 153.28 252.27 153.19 252.47 153.01C252.677 152.823 252.78 152.563 252.78 152.23C252.78 151.937 252.687 151.693 252.5 151.5C252.32 151.307 252.04 151.21 251.66 151.21ZM252.8 153.71C253.547 153.963 253.92 154.48 253.92 155.26C253.92 155.813 253.707 156.257 253.28 156.59C252.853 156.923 252.313 157.09 251.66 157.09C251.02 157.09 250.493 156.93 250.08 156.61C249.667 156.283 249.46 155.85 249.46 155.31C249.46 154.537 249.83 154.007 250.57 153.72C250.257 153.587 250.01 153.393 249.83 153.14C249.657 152.887 249.57 152.59 249.57 152.25C249.57 151.663 249.773 151.203 250.18 150.87C250.587 150.537 251.08 150.37 251.66 150.37C252.26 150.37 252.763 150.533 253.17 150.86C253.577 151.18 253.78 151.647 253.78 152.26C253.78 152.92 253.453 153.403 252.8 153.71ZM254.791 153.71C254.791 152.683 254.994 151.87 255.401 151.27C255.814 150.663 256.378 150.36 257.091 150.36C257.818 150.36 258.388 150.66 258.801 151.26C259.214 151.86 259.421 152.677 259.421 153.71C259.421 154.73 259.218 155.547 258.811 156.16C258.411 156.773 257.838 157.08 257.091 157.08C256.378 157.08 255.814 156.773 255.401 156.16C254.994 155.547 254.791 154.73 254.791 153.71ZM256.161 151.91C255.914 152.33 255.791 152.93 255.791 153.71C255.791 154.49 255.911 155.097 256.151 155.53C256.398 155.957 256.711 156.17 257.091 156.17C257.504 156.17 257.828 155.957 258.061 155.53C258.294 155.103 258.411 154.497 258.411 153.71C258.411 152.917 258.288 152.313 258.041 151.9C257.801 151.48 257.484 151.27 257.091 151.27C256.718 151.27 256.408 151.483 256.161 151.91ZM264.411 157.01L268.051 150.23H268.981L265.331 157.01H264.411ZM267.301 155.4C267.301 154.94 267.464 154.547 267.791 154.22C268.118 153.887 268.514 153.72 268.981 153.72C269.441 153.72 269.834 153.887 270.161 154.22C270.488 154.547 270.651 154.94 270.651 155.4C270.651 155.867 270.488 156.263 270.161 156.59C269.834 156.91 269.441 157.07 268.981 157.07C268.514 157.07 268.118 156.91 267.791 156.59C267.464 156.263 267.301 155.867 267.301 155.4ZM262.771 151.8C262.771 151.34 262.934 150.947 263.261 150.62C263.588 150.293 263.981 150.13 264.441 150.13C264.908 150.13 265.304 150.293 265.631 150.62C265.958 150.947 266.121 151.34 266.121 151.8C266.121 152.267 265.958 152.663 265.631 152.99C265.304 153.317 264.908 153.48 264.441 153.48C263.981 153.48 263.588 153.317 263.261 152.99C262.934 152.663 262.771 152.267 262.771 151.8ZM263.601 151.8C263.601 152.033 263.681 152.233 263.841 152.4C264.008 152.567 264.208 152.65 264.441 152.65C264.674 152.65 264.874 152.567 265.041 152.4C265.208 152.233 265.291 152.033 265.291 151.8C265.291 151.567 265.208 151.37 265.041 151.21C264.874 151.043 264.674 150.96 264.441 150.96C264.208 150.96 264.008 151.043 263.841 151.21C263.681 151.377 263.601 151.573 263.601 151.8ZM268.381 154.8C268.214 154.967 268.131 155.167 268.131 155.4C268.131 155.633 268.214 155.833 268.381 156C268.548 156.167 268.748 156.25 268.981 156.25C269.214 156.25 269.411 156.167 269.571 156C269.738 155.833 269.821 155.633 269.821 155.4C269.821 155.167 269.738 154.967 269.571 154.8C269.411 154.633 269.214 154.55 268.981 154.55C268.748 154.55 268.548 154.633 268.381 154.8ZM251.52 169.84C252.027 169.84 252.437 169.643 252.75 169.25C252.737 168.643 252.623 168.163 252.41 167.81C252.203 167.45 251.89 167.27 251.47 167.27C251.123 167.27 250.847 167.387 250.64 167.62C250.433 167.847 250.33 168.157 250.33 168.55C250.33 168.95 250.437 169.267 250.65 169.5C250.87 169.727 251.16 169.84 251.52 169.84ZM249.65 172.89V171.94C249.99 172.093 250.35 172.17 250.73 172.17C251.877 172.17 252.537 171.49 252.71 170.13C252.39 170.497 251.913 170.68 251.28 170.68C250.733 170.68 250.267 170.487 249.88 170.1C249.5 169.713 249.31 169.203 249.31 168.57C249.31 167.937 249.5 167.413 249.88 167C250.26 166.587 250.777 166.38 251.43 166.38C252.177 166.38 252.743 166.657 253.13 167.21C253.523 167.757 253.72 168.467 253.72 169.34C253.72 170.527 253.467 171.447 252.96 172.1C252.46 172.753 251.74 173.08 250.8 173.08C250.373 173.08 249.99 173.017 249.65 172.89ZM254.527 169.71C254.527 168.683 254.731 167.87 255.137 167.27C255.551 166.663 256.114 166.36 256.827 166.36C257.554 166.36 258.124 166.66 258.537 167.26C258.951 167.86 259.157 168.677 259.157 169.71C259.157 170.73 258.954 171.547 258.547 172.16C258.147 172.773 257.574 173.08 256.827 173.08C256.114 173.08 255.551 172.773 255.137 172.16C254.731 171.547 254.527 170.73 254.527 169.71ZM255.897 167.91C255.651 168.33 255.527 168.93 255.527 169.71C255.527 170.49 255.647 171.097 255.887 171.53C256.134 171.957 256.447 172.17 256.827 172.17C257.241 172.17 257.564 171.957 257.797 171.53C258.031 171.103 258.147 170.497 258.147 169.71C258.147 168.917 258.024 168.313 257.777 167.9C257.537 167.48 257.221 167.27 256.827 167.27C256.454 167.27 256.144 167.483 255.897 167.91ZM264.147 173.01L267.787 166.23H268.717L265.067 173.01H264.147ZM267.037 171.4C267.037 170.94 267.201 170.547 267.527 170.22C267.854 169.887 268.251 169.72 268.717 169.72C269.177 169.72 269.571 169.887 269.897 170.22C270.224 170.547 270.387 170.94 270.387 171.4C270.387 171.867 270.224 172.263 269.897 172.59C269.571 172.91 269.177 173.07 268.717 173.07C268.251 173.07 267.854 172.91 267.527 172.59C267.201 172.263 267.037 171.867 267.037 171.4ZM262.507 167.8C262.507 167.34 262.671 166.947 262.997 166.62C263.324 166.293 263.717 166.13 264.177 166.13C264.644 166.13 265.041 166.293 265.367 166.62C265.694 166.947 265.857 167.34 265.857 167.8C265.857 168.267 265.694 168.663 265.367 168.99C265.041 169.317 264.644 169.48 264.177 169.48C263.717 169.48 263.324 169.317 262.997 168.99C262.671 168.663 262.507 168.267 262.507 167.8ZM263.337 167.8C263.337 168.033 263.417 168.233 263.577 168.4C263.744 168.567 263.944 168.65 264.177 168.65C264.411 168.65 264.611 168.567 264.777 168.4C264.944 168.233 265.027 168.033 265.027 167.8C265.027 167.567 264.944 167.37 264.777 167.21C264.611 167.043 264.411 166.96 264.177 166.96C263.944 166.96 263.744 167.043 263.577 167.21C263.417 167.377 263.337 167.573 263.337 167.8ZM268.117 170.8C267.951 170.967 267.867 171.167 267.867 171.4C267.867 171.633 267.951 171.833 268.117 172C268.284 172.167 268.484 172.25 268.717 172.25C268.951 172.25 269.147 172.167 269.307 172C269.474 171.833 269.557 171.633 269.557 171.4C269.557 171.167 269.474 170.967 269.307 170.8C269.147 170.633 268.951 170.55 268.717 170.55C268.484 170.55 268.284 170.633 268.117 170.8ZM249.16 184.48V183.43L250.79 182.46H251.68V189H250.71V183.53L249.16 184.48ZM252.808 185.71C252.808 184.683 253.012 183.87 253.418 183.27C253.832 182.663 254.395 182.36 255.108 182.36C255.835 182.36 256.405 182.66 256.818 183.26C257.232 183.86 257.438 184.677 257.438 185.71C257.438 186.73 257.235 187.547 256.828 188.16C256.428 188.773 255.855 189.08 255.108 189.08C254.395 189.08 253.832 188.773 253.418 188.16C253.012 187.547 252.808 186.73 252.808 185.71ZM254.178 183.91C253.932 184.33 253.808 184.93 253.808 185.71C253.808 186.49 253.928 187.097 254.168 187.53C254.415 187.957 254.728 188.17 255.108 188.17C255.522 188.17 255.845 187.957 256.078 187.53C256.312 187.103 256.428 186.497 256.428 185.71C256.428 184.917 256.305 184.313 256.058 183.9C255.818 183.48 255.502 183.27 255.108 183.27C254.735 183.27 254.425 183.483 254.178 183.91ZM258.258 185.71C258.258 184.683 258.461 183.87 258.868 183.27C259.281 182.663 259.844 182.36 260.558 182.36C261.284 182.36 261.854 182.66 262.268 183.26C262.681 183.86 262.888 184.677 262.888 185.71C262.888 186.73 262.684 187.547 262.278 188.16C261.878 188.773 261.304 189.08 260.558 189.08C259.844 189.08 259.281 188.773 258.868 188.16C258.461 187.547 258.258 186.73 258.258 185.71ZM259.628 183.91C259.381 184.33 259.258 184.93 259.258 185.71C259.258 186.49 259.378 187.097 259.618 187.53C259.864 187.957 260.178 188.17 260.558 188.17C260.971 188.17 261.294 187.957 261.528 187.53C261.761 187.103 261.878 186.497 261.878 185.71C261.878 184.917 261.754 184.313 261.508 183.9C261.268 183.48 260.951 183.27 260.558 183.27C260.184 183.27 259.874 183.483 259.628 183.91ZM267.878 189.01L271.518 182.23H272.448L268.798 189.01H267.878ZM270.768 187.4C270.768 186.94 270.931 186.547 271.258 186.22C271.584 185.887 271.981 185.72 272.448 185.72C272.908 185.72 273.301 185.887 273.628 186.22C273.954 186.547 274.118 186.94 274.118 187.4C274.118 187.867 273.954 188.263 273.628 188.59C273.301 188.91 272.908 189.07 272.448 189.07C271.981 189.07 271.584 188.91 271.258 188.59C270.931 188.263 270.768 187.867 270.768 187.4ZM266.238 183.8C266.238 183.34 266.401 182.947 266.728 182.62C267.054 182.293 267.448 182.13 267.908 182.13C268.374 182.13 268.771 182.293 269.098 182.62C269.424 182.947 269.588 183.34 269.588 183.8C269.588 184.267 269.424 184.663 269.098 184.99C268.771 185.317 268.374 185.48 267.908 185.48C267.448 185.48 267.054 185.317 266.728 184.99C266.401 184.663 266.238 184.267 266.238 183.8ZM267.068 183.8C267.068 184.033 267.148 184.233 267.308 184.4C267.474 184.567 267.674 184.65 267.908 184.65C268.141 184.65 268.341 184.567 268.508 184.4C268.674 184.233 268.758 184.033 268.758 183.8C268.758 183.567 268.674 183.37 268.508 183.21C268.341 183.043 268.141 182.96 267.908 182.96C267.674 182.96 267.474 183.043 267.308 183.21C267.148 183.377 267.068 183.573 267.068 183.8ZM271.848 186.8C271.681 186.967 271.598 187.167 271.598 187.4C271.598 187.633 271.681 187.833 271.848 188C272.014 188.167 272.214 188.25 272.448 188.25C272.681 188.25 272.878 188.167 273.038 188C273.204 187.833 273.288 187.633 273.288 187.4C273.288 187.167 273.204 186.967 273.038 186.8C272.878 186.633 272.681 186.55 272.448 186.55C272.214 186.55 272.014 186.633 271.848 186.8Z" fill="#FF1934"/>
</g>
<g clip-path="url(#clip2_1124_4113)">
<rect x="20" y="56.5" width="224" height="6" rx="3" fill="#F1F1F1"/>
<rect x="20" y="56.5" width="224" height="6" rx="3" fill="#FF6678"/>
</g>
<circle cx="238" cy="59.5" r="5.5" fill="#FF1934" stroke="white"/>
<g clip-path="url(#clip3_1124_4113)">
<path d="M249.41 -101.29C249.41 -102.317 249.613 -103.13 250.02 -103.73C250.433 -104.337 250.997 -104.64 251.71 -104.64C252.437 -104.64 253.007 -104.34 253.42 -103.74C253.833 -103.14 254.04 -102.323 254.04 -101.29C254.04 -100.27 253.837 -99.4533 253.43 -98.84C253.03 -98.2267 252.457 -97.92 251.71 -97.92C250.997 -97.92 250.433 -98.2267 250.02 -98.84C249.613 -99.4533 249.41 -100.27 249.41 -101.29ZM250.78 -103.09C250.533 -102.67 250.41 -102.07 250.41 -101.29C250.41 -100.51 250.53 -99.9033 250.77 -99.47C251.017 -99.0433 251.33 -98.83 251.71 -98.83C252.123 -98.83 252.447 -99.0433 252.68 -99.47C252.913 -99.8967 253.03 -100.503 253.03 -101.29C253.03 -102.083 252.907 -102.687 252.66 -103.1C252.42 -103.52 252.103 -103.73 251.71 -103.73C251.337 -103.73 251.027 -103.517 250.78 -103.09ZM259.03 -97.99L262.67 -104.77H263.6L259.95 -97.99H259.03ZM261.92 -99.6C261.92 -100.06 262.083 -100.453 262.41 -100.78C262.737 -101.113 263.133 -101.28 263.6 -101.28C264.06 -101.28 264.453 -101.113 264.78 -100.78C265.107 -100.453 265.27 -100.06 265.27 -99.6C265.27 -99.1333 265.107 -98.7367 264.78 -98.41C264.453 -98.09 264.06 -97.93 263.6 -97.93C263.133 -97.93 262.737 -98.09 262.41 -98.41C262.083 -98.7367 261.92 -99.1333 261.92 -99.6ZM257.39 -103.2C257.39 -103.66 257.553 -104.053 257.88 -104.38C258.207 -104.707 258.6 -104.87 259.06 -104.87C259.527 -104.87 259.923 -104.707 260.25 -104.38C260.577 -104.053 260.74 -103.66 260.74 -103.2C260.74 -102.733 260.577 -102.337 260.25 -102.01C259.923 -101.683 259.527 -101.52 259.06 -101.52C258.6 -101.52 258.207 -101.683 257.88 -102.01C257.553 -102.337 257.39 -102.733 257.39 -103.2ZM258.22 -103.2C258.22 -102.967 258.3 -102.767 258.46 -102.6C258.627 -102.433 258.827 -102.35 259.06 -102.35C259.293 -102.35 259.493 -102.433 259.66 -102.6C259.827 -102.767 259.91 -102.967 259.91 -103.2C259.91 -103.433 259.827 -103.63 259.66 -103.79C259.493 -103.957 259.293 -104.04 259.06 -104.04C258.827 -104.04 258.627 -103.957 258.46 -103.79C258.3 -103.623 258.22 -103.427 258.22 -103.2ZM263 -100.2C262.833 -100.033 262.75 -99.8333 262.75 -99.6C262.75 -99.3667 262.833 -99.1667 263 -99C263.167 -98.8333 263.367 -98.75 263.6 -98.75C263.833 -98.75 264.03 -98.8333 264.19 -99C264.357 -99.1667 264.44 -99.3667 264.44 -99.6C264.44 -99.8333 264.357 -100.033 264.19 -100.2C264.03 -100.367 263.833 -100.45 263.6 -100.45C263.367 -100.45 263.167 -100.367 263 -100.2ZM249.16 -86.52V-87.57L250.79 -88.54H251.68V-82H250.71V-87.47L249.16 -86.52ZM252.808 -85.29C252.808 -86.3167 253.012 -87.13 253.418 -87.73C253.832 -88.3367 254.395 -88.64 255.108 -88.64C255.835 -88.64 256.405 -88.34 256.818 -87.74C257.232 -87.14 257.438 -86.3233 257.438 -85.29C257.438 -84.27 257.235 -83.4533 256.828 -82.84C256.428 -82.2267 255.855 -81.92 255.108 -81.92C254.395 -81.92 253.832 -82.2267 253.418 -82.84C253.012 -83.4533 252.808 -84.27 252.808 -85.29ZM254.178 -87.09C253.932 -86.67 253.808 -86.07 253.808 -85.29C253.808 -84.51 253.928 -83.9033 254.168 -83.47C254.415 -83.0433 254.728 -82.83 255.108 -82.83C255.522 -82.83 255.845 -83.0433 256.078 -83.47C256.312 -83.8967 256.428 -84.5033 256.428 -85.29C256.428 -86.0833 256.305 -86.6867 256.058 -87.1C255.818 -87.52 255.502 -87.73 255.108 -87.73C254.735 -87.73 254.425 -87.5167 254.178 -87.09ZM262.429 -81.99L266.069 -88.77H266.999L263.349 -81.99H262.429ZM265.319 -83.6C265.319 -84.06 265.482 -84.4533 265.809 -84.78C266.135 -85.1133 266.532 -85.28 266.999 -85.28C267.459 -85.28 267.852 -85.1133 268.179 -84.78C268.505 -84.4533 268.669 -84.06 268.669 -83.6C268.669 -83.1333 268.505 -82.7367 268.179 -82.41C267.852 -82.09 267.459 -81.93 266.999 -81.93C266.532 -81.93 266.135 -82.09 265.809 -82.41C265.482 -82.7367 265.319 -83.1333 265.319 -83.6ZM260.789 -87.2C260.789 -87.66 260.952 -88.0533 261.279 -88.38C261.605 -88.7067 261.999 -88.87 262.459 -88.87C262.925 -88.87 263.322 -88.7067 263.649 -88.38C263.975 -88.0533 264.139 -87.66 264.139 -87.2C264.139 -86.7333 263.975 -86.3367 263.649 -86.01C263.322 -85.6833 262.925 -85.52 262.459 -85.52C261.999 -85.52 261.605 -85.6833 261.279 -86.01C260.952 -86.3367 260.789 -86.7333 260.789 -87.2ZM261.619 -87.2C261.619 -86.9667 261.699 -86.7667 261.859 -86.6C262.025 -86.4333 262.225 -86.35 262.459 -86.35C262.692 -86.35 262.892 -86.4333 263.059 -86.6C263.225 -86.7667 263.309 -86.9667 263.309 -87.2C263.309 -87.4333 263.225 -87.63 263.059 -87.79C262.892 -87.9567 262.692 -88.04 262.459 -88.04C262.225 -88.04 262.025 -87.9567 261.859 -87.79C261.699 -87.6233 261.619 -87.4267 261.619 -87.2ZM266.399 -84.2C266.232 -84.0333 266.149 -83.8333 266.149 -83.6C266.149 -83.3667 266.232 -83.1667 266.399 -83C266.565 -82.8333 266.765 -82.75 266.999 -82.75C267.232 -82.75 267.429 -82.8333 267.589 -83C267.755 -83.1667 267.839 -83.3667 267.839 -83.6C267.839 -83.8333 267.755 -84.0333 267.589 -84.2C267.429 -84.3667 267.232 -84.45 266.999 -84.45C266.765 -84.45 266.565 -84.3667 266.399 -84.2ZM250.71 -66.85H253.55V-66H249.36V-66.81C250.2 -67.4233 250.907 -68.0567 251.48 -68.71C252.06 -69.37 252.35 -69.97 252.35 -70.51C252.35 -70.89 252.24 -71.18 252.02 -71.38C251.8 -71.5867 251.497 -71.69 251.11 -71.69C250.577 -71.69 250.053 -71.49 249.54 -71.09V-72.06C250.02 -72.4267 250.59 -72.61 251.25 -72.61C251.863 -72.61 252.37 -72.4367 252.77 -72.09C253.17 -71.75 253.37 -71.2633 253.37 -70.63C253.37 -69.4567 252.483 -68.1967 250.71 -66.85ZM254.371 -69.29C254.371 -70.3167 254.574 -71.13 254.981 -71.73C255.394 -72.3367 255.958 -72.64 256.671 -72.64C257.398 -72.64 257.968 -72.34 258.381 -71.74C258.794 -71.14 259.001 -70.3233 259.001 -69.29C259.001 -68.27 258.798 -67.4533 258.391 -66.84C257.991 -66.2267 257.418 -65.92 256.671 -65.92C255.958 -65.92 255.394 -66.2267 254.981 -66.84C254.574 -67.4533 254.371 -68.27 254.371 -69.29ZM255.741 -71.09C255.494 -70.67 255.371 -70.07 255.371 -69.29C255.371 -68.51 255.491 -67.9033 255.731 -67.47C255.978 -67.0433 256.291 -66.83 256.671 -66.83C257.084 -66.83 257.408 -67.0433 257.641 -67.47C257.874 -67.8967 257.991 -68.5033 257.991 -69.29C257.991 -70.0833 257.868 -70.6867 257.621 -71.1C257.381 -71.52 257.064 -71.73 256.671 -71.73C256.298 -71.73 255.988 -71.5167 255.741 -71.09ZM263.991 -65.99L267.631 -72.77H268.561L264.911 -65.99H263.991ZM266.881 -67.6C266.881 -68.06 267.044 -68.4533 267.371 -68.78C267.698 -69.1133 268.094 -69.28 268.561 -69.28C269.021 -69.28 269.414 -69.1133 269.741 -68.78C270.068 -68.4533 270.231 -68.06 270.231 -67.6C270.231 -67.1333 270.068 -66.7367 269.741 -66.41C269.414 -66.09 269.021 -65.93 268.561 -65.93C268.094 -65.93 267.698 -66.09 267.371 -66.41C267.044 -66.7367 266.881 -67.1333 266.881 -67.6ZM262.351 -71.2C262.351 -71.66 262.514 -72.0533 262.841 -72.38C263.168 -72.7067 263.561 -72.87 264.021 -72.87C264.488 -72.87 264.884 -72.7067 265.211 -72.38C265.538 -72.0533 265.701 -71.66 265.701 -71.2C265.701 -70.7333 265.538 -70.3367 265.211 -70.01C264.884 -69.6833 264.488 -69.52 264.021 -69.52C263.561 -69.52 263.168 -69.6833 262.841 -70.01C262.514 -70.3367 262.351 -70.7333 262.351 -71.2ZM263.181 -71.2C263.181 -70.9667 263.261 -70.7667 263.421 -70.6C263.588 -70.4333 263.788 -70.35 264.021 -70.35C264.254 -70.35 264.454 -70.4333 264.621 -70.6C264.788 -70.7667 264.871 -70.9667 264.871 -71.2C264.871 -71.4333 264.788 -71.63 264.621 -71.79C264.454 -71.9567 264.254 -72.04 264.021 -72.04C263.788 -72.04 263.588 -71.9567 263.421 -71.79C263.261 -71.6233 263.181 -71.4267 263.181 -71.2ZM267.961 -68.2C267.794 -68.0333 267.711 -67.8333 267.711 -67.6C267.711 -67.3667 267.794 -67.1667 267.961 -67C268.128 -66.8333 268.328 -66.75 268.561 -66.75C268.794 -66.75 268.991 -66.8333 269.151 -67C269.318 -67.1667 269.401 -67.3667 269.401 -67.6C269.401 -67.8333 269.318 -68.0333 269.151 -68.2C268.991 -68.3667 268.794 -68.45 268.561 -68.45C268.328 -68.45 268.128 -68.3667 267.961 -68.2ZM249.57 -55.3V-56.25C249.983 -56.49 250.443 -56.61 250.95 -56.61C251.617 -56.61 252.137 -56.4433 252.51 -56.11C252.89 -55.7833 253.08 -55.37 253.08 -54.87C253.08 -54.51 252.99 -54.1933 252.81 -53.92C252.637 -53.6533 252.377 -53.45 252.03 -53.31C252.41 -53.2167 252.707 -53.04 252.92 -52.78C253.133 -52.52 253.24 -52.1933 253.24 -51.8C253.24 -51.26 253.047 -50.8133 252.66 -50.46C252.273 -50.1133 251.73 -49.94 251.03 -49.94C250.37 -49.94 249.813 -50.0533 249.36 -50.28V-51.24C249.853 -50.9733 250.393 -50.84 250.98 -50.84C251.373 -50.84 251.68 -50.9367 251.9 -51.13C252.127 -51.33 252.24 -51.5833 252.24 -51.89C252.24 -52.21 252.117 -52.4567 251.87 -52.63C251.623 -52.8033 251.253 -52.89 250.76 -52.89H250.36V-53.73H250.76C251.127 -53.73 251.433 -53.82 251.68 -54C251.933 -54.1867 252.06 -54.44 252.06 -54.76C252.06 -55.08 251.957 -55.32 251.75 -55.48C251.55 -55.64 251.273 -55.72 250.92 -55.72C250.467 -55.72 250.017 -55.58 249.57 -55.3ZM254.117 -53.29C254.117 -54.3167 254.32 -55.13 254.727 -55.73C255.14 -56.3367 255.704 -56.64 256.417 -56.64C257.144 -56.64 257.714 -56.34 258.127 -55.74C258.54 -55.14 258.747 -54.3233 258.747 -53.29C258.747 -52.27 258.544 -51.4533 258.137 -50.84C257.737 -50.2267 257.164 -49.92 256.417 -49.92C255.704 -49.92 255.14 -50.2267 254.727 -50.84C254.32 -51.4533 254.117 -52.27 254.117 -53.29ZM255.487 -55.09C255.24 -54.67 255.117 -54.07 255.117 -53.29C255.117 -52.51 255.237 -51.9033 255.477 -51.47C255.724 -51.0433 256.037 -50.83 256.417 -50.83C256.83 -50.83 257.154 -51.0433 257.387 -51.47C257.62 -51.8967 257.737 -52.5033 257.737 -53.29C257.737 -54.0833 257.614 -54.6867 257.367 -55.1C257.127 -55.52 256.81 -55.73 256.417 -55.73C256.044 -55.73 255.734 -55.5167 255.487 -55.09ZM263.737 -49.99L267.377 -56.77H268.307L264.657 -49.99H263.737ZM266.627 -51.6C266.627 -52.06 266.791 -52.4533 267.117 -52.78C267.444 -53.1133 267.841 -53.28 268.307 -53.28C268.767 -53.28 269.161 -53.1133 269.487 -52.78C269.814 -52.4533 269.977 -52.06 269.977 -51.6C269.977 -51.1333 269.814 -50.7367 269.487 -50.41C269.161 -50.09 268.767 -49.93 268.307 -49.93C267.841 -49.93 267.444 -50.09 267.117 -50.41C266.791 -50.7367 266.627 -51.1333 266.627 -51.6ZM262.097 -55.2C262.097 -55.66 262.261 -56.0533 262.587 -56.38C262.914 -56.7067 263.307 -56.87 263.767 -56.87C264.234 -56.87 264.631 -56.7067 264.957 -56.38C265.284 -56.0533 265.447 -55.66 265.447 -55.2C265.447 -54.7333 265.284 -54.3367 264.957 -54.01C264.631 -53.6833 264.234 -53.52 263.767 -53.52C263.307 -53.52 262.914 -53.6833 262.587 -54.01C262.261 -54.3367 262.097 -54.7333 262.097 -55.2ZM262.927 -55.2C262.927 -54.9667 263.007 -54.7667 263.167 -54.6C263.334 -54.4333 263.534 -54.35 263.767 -54.35C264.001 -54.35 264.201 -54.4333 264.367 -54.6C264.534 -54.7667 264.617 -54.9667 264.617 -55.2C264.617 -55.4333 264.534 -55.63 264.367 -55.79C264.201 -55.9567 264.001 -56.04 263.767 -56.04C263.534 -56.04 263.334 -55.9567 263.167 -55.79C263.007 -55.6233 262.927 -55.4267 262.927 -55.2ZM267.707 -52.2C267.541 -52.0333 267.457 -51.8333 267.457 -51.6C267.457 -51.3667 267.541 -51.1667 267.707 -51C267.874 -50.8333 268.074 -50.75 268.307 -50.75C268.541 -50.75 268.737 -50.8333 268.897 -51C269.064 -51.1667 269.147 -51.3667 269.147 -51.6C269.147 -51.8333 269.064 -52.0333 268.897 -52.2C268.737 -52.3667 268.541 -52.45 268.307 -52.45C268.074 -52.45 267.874 -52.3667 267.707 -52.2ZM250.37 -36.38H252.34V-39.95L250.37 -36.38ZM254.24 -36.38V-35.53H253.32V-34H252.34V-35.53H249.38V-36.38L251.73 -40.55H253.32V-36.38H254.24ZM254.869 -37.29C254.869 -38.3167 255.072 -39.13 255.479 -39.73C255.892 -40.3367 256.456 -40.64 257.169 -40.64C257.896 -40.64 258.466 -40.34 258.879 -39.74C259.292 -39.14 259.499 -38.3233 259.499 -37.29C259.499 -36.27 259.296 -35.4533 258.889 -34.84C258.489 -34.2267 257.916 -33.92 257.169 -33.92C256.456 -33.92 255.892 -34.2267 255.479 -34.84C255.072 -35.4533 254.869 -36.27 254.869 -37.29ZM256.239 -39.09C255.992 -38.67 255.869 -38.07 255.869 -37.29C255.869 -36.51 255.989 -35.9033 256.229 -35.47C256.476 -35.0433 256.789 -34.83 257.169 -34.83C257.582 -34.83 257.906 -35.0433 258.139 -35.47C258.372 -35.8967 258.489 -36.5033 258.489 -37.29C258.489 -38.0833 258.366 -38.6867 258.119 -39.1C257.879 -39.52 257.562 -39.73 257.169 -39.73C256.796 -39.73 256.486 -39.5167 256.239 -39.09ZM264.489 -33.99L268.129 -40.77H269.059L265.409 -33.99H264.489ZM267.379 -35.6C267.379 -36.06 267.542 -36.4533 267.869 -36.78C268.196 -37.1133 268.592 -37.28 269.059 -37.28C269.519 -37.28 269.912 -37.1133 270.239 -36.78C270.566 -36.4533 270.729 -36.06 270.729 -35.6C270.729 -35.1333 270.566 -34.7367 270.239 -34.41C269.912 -34.09 269.519 -33.93 269.059 -33.93C268.592 -33.93 268.196 -34.09 267.869 -34.41C267.542 -34.7367 267.379 -35.1333 267.379 -35.6ZM262.849 -39.2C262.849 -39.66 263.012 -40.0533 263.339 -40.38C263.666 -40.7067 264.059 -40.87 264.519 -40.87C264.986 -40.87 265.382 -40.7067 265.709 -40.38C266.036 -40.0533 266.199 -39.66 266.199 -39.2C266.199 -38.7333 266.036 -38.3367 265.709 -38.01C265.382 -37.6833 264.986 -37.52 264.519 -37.52C264.059 -37.52 263.666 -37.6833 263.339 -38.01C263.012 -38.3367 262.849 -38.7333 262.849 -39.2ZM263.679 -39.2C263.679 -38.9667 263.759 -38.7667 263.919 -38.6C264.086 -38.4333 264.286 -38.35 264.519 -38.35C264.752 -38.35 264.952 -38.4333 265.119 -38.6C265.286 -38.7667 265.369 -38.9667 265.369 -39.2C265.369 -39.4333 265.286 -39.63 265.119 -39.79C264.952 -39.9567 264.752 -40.04 264.519 -40.04C264.286 -40.04 264.086 -39.9567 263.919 -39.79C263.759 -39.6233 263.679 -39.4267 263.679 -39.2ZM268.459 -36.2C268.292 -36.0333 268.209 -35.8333 268.209 -35.6C268.209 -35.3667 268.292 -35.1667 268.459 -35C268.626 -34.8333 268.826 -34.75 269.059 -34.75C269.292 -34.75 269.489 -34.8333 269.649 -35C269.816 -35.1667 269.899 -35.3667 269.899 -35.6C269.899 -35.8333 269.816 -36.0333 269.649 -36.2C269.489 -36.3667 269.292 -36.45 269.059 -36.45C268.826 -36.45 268.626 -36.3667 268.459 -36.2ZM250.8 -23.7V-21.98C251.047 -22.0333 251.273 -22.06 251.48 -22.06C252.16 -22.06 252.693 -21.88 253.08 -21.52C253.467 -21.1667 253.66 -20.6867 253.66 -20.08C253.66 -19.4267 253.443 -18.9033 253.01 -18.51C252.583 -18.1233 251.987 -17.93 251.22 -17.93C250.533 -17.93 249.967 -18.0433 249.52 -18.27V-19.22C249.947 -18.96 250.46 -18.83 251.06 -18.83C252.113 -18.83 252.64 -19.2567 252.64 -20.11C252.64 -20.45 252.52 -20.7133 252.28 -20.9C252.047 -21.0933 251.73 -21.19 251.33 -21.19C250.823 -21.19 250.323 -21.0733 249.83 -20.84V-24.55H253.22V-23.7H250.8ZM254.478 -21.29C254.478 -22.3167 254.682 -23.13 255.088 -23.73C255.502 -24.3367 256.065 -24.64 256.778 -24.64C257.505 -24.64 258.075 -24.34 258.488 -23.74C258.902 -23.14 259.108 -22.3233 259.108 -21.29C259.108 -20.27 258.905 -19.4533 258.498 -18.84C258.098 -18.2267 257.525 -17.92 256.778 -17.92C256.065 -17.92 255.502 -18.2267 255.088 -18.84C254.682 -19.4533 254.478 -20.27 254.478 -21.29ZM255.848 -23.09C255.602 -22.67 255.478 -22.07 255.478 -21.29C255.478 -20.51 255.598 -19.9033 255.838 -19.47C256.085 -19.0433 256.398 -18.83 256.778 -18.83C257.192 -18.83 257.515 -19.0433 257.748 -19.47C257.982 -19.8967 258.098 -20.5033 258.098 -21.29C258.098 -22.0833 257.975 -22.6867 257.728 -23.1C257.488 -23.52 257.172 -23.73 256.778 -23.73C256.405 -23.73 256.095 -23.5167 255.848 -23.09ZM264.099 -17.99L267.739 -24.77H268.669L265.019 -17.99H264.099ZM266.989 -19.6C266.989 -20.06 267.152 -20.4533 267.479 -20.78C267.805 -21.1133 268.202 -21.28 268.669 -21.28C269.129 -21.28 269.522 -21.1133 269.849 -20.78C270.175 -20.4533 270.339 -20.06 270.339 -19.6C270.339 -19.1333 270.175 -18.7367 269.849 -18.41C269.522 -18.09 269.129 -17.93 268.669 -17.93C268.202 -17.93 267.805 -18.09 267.479 -18.41C267.152 -18.7367 266.989 -19.1333 266.989 -19.6ZM262.459 -23.2C262.459 -23.66 262.622 -24.0533 262.949 -24.38C263.275 -24.7067 263.669 -24.87 264.129 -24.87C264.595 -24.87 264.992 -24.7067 265.319 -24.38C265.645 -24.0533 265.809 -23.66 265.809 -23.2C265.809 -22.7333 265.645 -22.3367 265.319 -22.01C264.992 -21.6833 264.595 -21.52 264.129 -21.52C263.669 -21.52 263.275 -21.6833 262.949 -22.01C262.622 -22.3367 262.459 -22.7333 262.459 -23.2ZM263.289 -23.2C263.289 -22.9667 263.369 -22.7667 263.529 -22.6C263.695 -22.4333 263.895 -22.35 264.129 -22.35C264.362 -22.35 264.562 -22.4333 264.729 -22.6C264.895 -22.7667 264.979 -22.9667 264.979 -23.2C264.979 -23.4333 264.895 -23.63 264.729 -23.79C264.562 -23.9567 264.362 -24.04 264.129 -24.04C263.895 -24.04 263.695 -23.9567 263.529 -23.79C263.369 -23.6233 263.289 -23.4267 263.289 -23.2ZM268.069 -20.2C267.902 -20.0333 267.819 -19.8333 267.819 -19.6C267.819 -19.3667 267.902 -19.1667 268.069 -19C268.235 -18.8333 268.435 -18.75 268.669 -18.75C268.902 -18.75 269.099 -18.8333 269.259 -19C269.425 -19.1667 269.509 -19.3667 269.509 -19.6C269.509 -19.8333 269.425 -20.0333 269.259 -20.2C269.099 -20.3667 268.902 -20.45 268.669 -20.45C268.435 -20.45 268.235 -20.3667 268.069 -20.2ZM251.83 -2.76C252.177 -2.76 252.45 -2.88333 252.65 -3.13C252.85 -3.38333 252.95 -3.71333 252.95 -4.12C252.95 -4.5 252.85 -4.8 252.65 -5.02C252.45 -5.24 252.183 -5.35 251.85 -5.35C251.33 -5.35 250.87 -5.13333 250.47 -4.7C250.497 -4.05333 250.633 -3.56667 250.88 -3.24C251.133 -2.92 251.45 -2.76 251.83 -2.76ZM253.49 -8.56V-7.61C253.23 -7.74333 252.927 -7.81 252.58 -7.81C251.993 -7.81 251.523 -7.6 251.17 -7.18C250.817 -6.76667 250.593 -6.23333 250.5 -5.58C250.933 -6 251.447 -6.21 252.04 -6.21C252.633 -6.21 253.1 -6.02 253.44 -5.64C253.787 -5.26 253.96 -4.75667 253.96 -4.13C253.96 -3.46333 253.767 -2.92 253.38 -2.5C252.993 -2.08 252.473 -1.87 251.82 -1.87C251.06 -1.87 250.477 -2.15333 250.07 -2.72C249.67 -3.28667 249.47 -4.03667 249.47 -4.97C249.47 -6.06333 249.747 -6.96 250.3 -7.66C250.86 -8.36 251.607 -8.71 252.54 -8.71C252.873 -8.71 253.19 -8.66 253.49 -8.56ZM254.703 -5.29C254.703 -6.31667 254.906 -7.13 255.313 -7.73C255.726 -8.33667 256.29 -8.64 257.003 -8.64C257.73 -8.64 258.3 -8.34 258.713 -7.74C259.126 -7.14 259.333 -6.32333 259.333 -5.29C259.333 -4.27 259.13 -3.45333 258.723 -2.84C258.323 -2.22667 257.75 -1.92 257.003 -1.92C256.29 -1.92 255.726 -2.22667 255.313 -2.84C254.906 -3.45333 254.703 -4.27 254.703 -5.29ZM256.073 -7.09C255.826 -6.67 255.703 -6.07 255.703 -5.29C255.703 -4.51 255.823 -3.90333 256.063 -3.47C256.31 -3.04333 256.623 -2.83 257.003 -2.83C257.416 -2.83 257.74 -3.04333 257.973 -3.47C258.206 -3.89667 258.323 -4.50333 258.323 -5.29C258.323 -6.08333 258.2 -6.68667 257.953 -7.1C257.713 -7.52 257.396 -7.73 257.003 -7.73C256.63 -7.73 256.32 -7.51667 256.073 -7.09ZM264.323 -1.99L267.963 -8.77H268.893L265.243 -1.99H264.323ZM267.213 -3.6C267.213 -4.06 267.376 -4.45333 267.703 -4.78C268.03 -5.11333 268.426 -5.28 268.893 -5.28C269.353 -5.28 269.746 -5.11333 270.073 -4.78C270.4 -4.45333 270.563 -4.06 270.563 -3.6C270.563 -3.13333 270.4 -2.73667 270.073 -2.41C269.746 -2.09 269.353 -1.93 268.893 -1.93C268.426 -1.93 268.03 -2.09 267.703 -2.41C267.376 -2.73667 267.213 -3.13333 267.213 -3.6ZM262.683 -7.2C262.683 -7.66 262.846 -8.05333 263.173 -8.38C263.5 -8.70667 263.893 -8.87 264.353 -8.87C264.82 -8.87 265.216 -8.70667 265.543 -8.38C265.87 -8.05333 266.033 -7.66 266.033 -7.2C266.033 -6.73333 265.87 -6.33667 265.543 -6.01C265.216 -5.68333 264.82 -5.52 264.353 -5.52C263.893 -5.52 263.5 -5.68333 263.173 -6.01C262.846 -6.33667 262.683 -6.73333 262.683 -7.2ZM263.513 -7.2C263.513 -6.96667 263.593 -6.76667 263.753 -6.6C263.92 -6.43333 264.12 -6.35 264.353 -6.35C264.586 -6.35 264.786 -6.43333 264.953 -6.6C265.12 -6.76667 265.203 -6.96667 265.203 -7.2C265.203 -7.43333 265.12 -7.63 264.953 -7.79C264.786 -7.95667 264.586 -8.04 264.353 -8.04C264.12 -8.04 263.92 -7.95667 263.753 -7.79C263.593 -7.62333 263.513 -7.42667 263.513 -7.2ZM268.293 -4.2C268.126 -4.03333 268.043 -3.83333 268.043 -3.6C268.043 -3.36667 268.126 -3.16667 268.293 -3C268.46 -2.83333 268.66 -2.75 268.893 -2.75C269.126 -2.75 269.323 -2.83333 269.483 -3C269.65 -3.16667 269.733 -3.36667 269.733 -3.6C269.733 -3.83333 269.65 -4.03333 269.483 -4.2C269.323 -4.36667 269.126 -4.45 268.893 -4.45C268.66 -4.45 268.46 -4.36667 268.293 -4.2ZM249.14 7.46H253.45V8.31L250.79 14H249.74L252.41 8.31H249.14V7.46ZM254 10.71C254 9.68333 254.203 8.87 254.61 8.27C255.023 7.66333 255.587 7.36 256.3 7.36C257.027 7.36 257.597 7.66 258.01 8.26C258.423 8.86 258.63 9.67667 258.63 10.71C258.63 11.73 258.427 12.5467 258.02 13.16C257.62 13.7733 257.047 14.08 256.3 14.08C255.587 14.08 255.023 13.7733 254.61 13.16C254.203 12.5467 254 11.73 254 10.71ZM255.37 8.91C255.123 9.33 255 9.93 255 10.71C255 11.49 255.12 12.0967 255.36 12.53C255.607 12.9567 255.92 13.17 256.3 13.17C256.713 13.17 257.037 12.9567 257.27 12.53C257.503 12.1033 257.62 11.4967 257.62 10.71C257.62 9.91667 257.497 9.31333 257.25 8.9C257.01 8.48 256.693 8.27 256.3 8.27C255.927 8.27 255.617 8.48333 255.37 8.91ZM263.62 14.01L267.26 7.23H268.19L264.54 14.01H263.62ZM266.51 12.4C266.51 11.94 266.673 11.5467 267 11.22C267.327 10.8867 267.723 10.72 268.19 10.72C268.65 10.72 269.043 10.8867 269.37 11.22C269.697 11.5467 269.86 11.94 269.86 12.4C269.86 12.8667 269.697 13.2633 269.37 13.59C269.043 13.91 268.65 14.07 268.19 14.07C267.723 14.07 267.327 13.91 267 13.59C266.673 13.2633 266.51 12.8667 266.51 12.4ZM261.98 8.8C261.98 8.34 262.143 7.94667 262.47 7.62C262.797 7.29333 263.19 7.13 263.65 7.13C264.117 7.13 264.513 7.29333 264.84 7.62C265.167 7.94667 265.33 8.34 265.33 8.8C265.33 9.26667 265.167 9.66333 264.84 9.99C264.513 10.3167 264.117 10.48 263.65 10.48C263.19 10.48 262.797 10.3167 262.47 9.99C262.143 9.66333 261.98 9.26667 261.98 8.8ZM262.81 8.8C262.81 9.03333 262.89 9.23333 263.05 9.4C263.217 9.56667 263.417 9.65 263.65 9.65C263.883 9.65 264.083 9.56667 264.25 9.4C264.417 9.23333 264.5 9.03333 264.5 8.8C264.5 8.56667 264.417 8.37 264.25 8.21C264.083 8.04333 263.883 7.96 263.65 7.96C263.417 7.96 263.217 8.04333 263.05 8.21C262.89 8.37667 262.81 8.57333 262.81 8.8ZM267.59 11.8C267.423 11.9667 267.34 12.1667 267.34 12.4C267.34 12.6333 267.423 12.8333 267.59 13C267.757 13.1667 267.957 13.25 268.19 13.25C268.423 13.25 268.62 13.1667 268.78 13C268.947 12.8333 269.03 12.6333 269.03 12.4C269.03 12.1667 268.947 11.9667 268.78 11.8C268.62 11.6333 268.423 11.55 268.19 11.55C267.957 11.55 267.757 11.6333 267.59 11.8ZM251.67 29.25C252.077 29.25 252.387 29.15 252.6 28.95C252.82 28.75 252.93 28.5033 252.93 28.21C252.93 27.9167 252.823 27.67 252.61 27.47C252.397 27.27 252.083 27.17 251.67 27.17C251.27 27.1767 250.967 27.2867 250.76 27.5C250.56 27.7067 250.46 27.9633 250.46 28.27C250.46 28.55 250.563 28.7833 250.77 28.97C250.977 29.1567 251.277 29.25 251.67 29.25ZM251.66 24.21C251.32 24.21 251.053 24.31 250.86 24.51C250.667 24.71 250.57 24.9533 250.57 25.24C250.57 25.58 250.673 25.84 250.88 26.02C251.093 26.1933 251.367 26.28 251.7 26.28C252.013 26.28 252.27 26.19 252.47 26.01C252.677 25.8233 252.78 25.5633 252.78 25.23C252.78 24.9367 252.687 24.6933 252.5 24.5C252.32 24.3067 252.04 24.21 251.66 24.21ZM252.8 26.71C253.547 26.9633 253.92 27.48 253.92 28.26C253.92 28.8133 253.707 29.2567 253.28 29.59C252.853 29.9233 252.313 30.09 251.66 30.09C251.02 30.09 250.493 29.93 250.08 29.61C249.667 29.2833 249.46 28.85 249.46 28.31C249.46 27.5367 249.83 27.0067 250.57 26.72C250.257 26.5867 250.01 26.3933 249.83 26.14C249.657 25.8867 249.57 25.59 249.57 25.25C249.57 24.6633 249.773 24.2033 250.18 23.87C250.587 23.5367 251.08 23.37 251.66 23.37C252.26 23.37 252.763 23.5333 253.17 23.86C253.577 24.18 253.78 24.6467 253.78 25.26C253.78 25.92 253.453 26.4033 252.8 26.71ZM254.791 26.71C254.791 25.6833 254.994 24.87 255.401 24.27C255.814 23.6633 256.378 23.36 257.091 23.36C257.818 23.36 258.388 23.66 258.801 24.26C259.214 24.86 259.421 25.6767 259.421 26.71C259.421 27.73 259.218 28.5467 258.811 29.16C258.411 29.7733 257.838 30.08 257.091 30.08C256.378 30.08 255.814 29.7733 255.401 29.16C254.994 28.5467 254.791 27.73 254.791 26.71ZM256.161 24.91C255.914 25.33 255.791 25.93 255.791 26.71C255.791 27.49 255.911 28.0967 256.151 28.53C256.398 28.9567 256.711 29.17 257.091 29.17C257.504 29.17 257.828 28.9567 258.061 28.53C258.294 28.1033 258.411 27.4967 258.411 26.71C258.411 25.9167 258.288 25.3133 258.041 24.9C257.801 24.48 257.484 24.27 257.091 24.27C256.718 24.27 256.408 24.4833 256.161 24.91ZM264.411 30.01L268.051 23.23H268.981L265.331 30.01H264.411ZM267.301 28.4C267.301 27.94 267.464 27.5467 267.791 27.22C268.118 26.8867 268.514 26.72 268.981 26.72C269.441 26.72 269.834 26.8867 270.161 27.22C270.488 27.5467 270.651 27.94 270.651 28.4C270.651 28.8667 270.488 29.2633 270.161 29.59C269.834 29.91 269.441 30.07 268.981 30.07C268.514 30.07 268.118 29.91 267.791 29.59C267.464 29.2633 267.301 28.8667 267.301 28.4ZM262.771 24.8C262.771 24.34 262.934 23.9467 263.261 23.62C263.588 23.2933 263.981 23.13 264.441 23.13C264.908 23.13 265.304 23.2933 265.631 23.62C265.958 23.9467 266.121 24.34 266.121 24.8C266.121 25.2667 265.958 25.6633 265.631 25.99C265.304 26.3167 264.908 26.48 264.441 26.48C263.981 26.48 263.588 26.3167 263.261 25.99C262.934 25.6633 262.771 25.2667 262.771 24.8ZM263.601 24.8C263.601 25.0333 263.681 25.2333 263.841 25.4C264.008 25.5667 264.208 25.65 264.441 25.65C264.674 25.65 264.874 25.5667 265.041 25.4C265.208 25.2333 265.291 25.0333 265.291 24.8C265.291 24.5667 265.208 24.37 265.041 24.21C264.874 24.0433 264.674 23.96 264.441 23.96C264.208 23.96 264.008 24.0433 263.841 24.21C263.681 24.3767 263.601 24.5733 263.601 24.8ZM268.381 27.8C268.214 27.9667 268.131 28.1667 268.131 28.4C268.131 28.6333 268.214 28.8333 268.381 29C268.548 29.1667 268.748 29.25 268.981 29.25C269.214 29.25 269.411 29.1667 269.571 29C269.738 28.8333 269.821 28.6333 269.821 28.4C269.821 28.1667 269.738 27.9667 269.571 27.8C269.411 27.6333 269.214 27.55 268.981 27.55C268.748 27.55 268.548 27.6333 268.381 27.8ZM251.52 42.84C252.027 42.84 252.437 42.6433 252.75 42.25C252.737 41.6433 252.623 41.1633 252.41 40.81C252.203 40.45 251.89 40.27 251.47 40.27C251.123 40.27 250.847 40.3867 250.64 40.62C250.433 40.8467 250.33 41.1567 250.33 41.55C250.33 41.95 250.437 42.2667 250.65 42.5C250.87 42.7267 251.16 42.84 251.52 42.84ZM249.65 45.89V44.94C249.99 45.0933 250.35 45.17 250.73 45.17C251.877 45.17 252.537 44.49 252.71 43.13C252.39 43.4967 251.913 43.68 251.28 43.68C250.733 43.68 250.267 43.4867 249.88 43.1C249.5 42.7133 249.31 42.2033 249.31 41.57C249.31 40.9367 249.5 40.4133 249.88 40C250.26 39.5867 250.777 39.38 251.43 39.38C252.177 39.38 252.743 39.6567 253.13 40.21C253.523 40.7567 253.72 41.4667 253.72 42.34C253.72 43.5267 253.467 44.4467 252.96 45.1C252.46 45.7533 251.74 46.08 250.8 46.08C250.373 46.08 249.99 46.0167 249.65 45.89ZM254.527 42.71C254.527 41.6833 254.731 40.87 255.137 40.27C255.551 39.6633 256.114 39.36 256.827 39.36C257.554 39.36 258.124 39.66 258.537 40.26C258.951 40.86 259.157 41.6767 259.157 42.71C259.157 43.73 258.954 44.5467 258.547 45.16C258.147 45.7733 257.574 46.08 256.827 46.08C256.114 46.08 255.551 45.7733 255.137 45.16C254.731 44.5467 254.527 43.73 254.527 42.71ZM255.897 40.91C255.651 41.33 255.527 41.93 255.527 42.71C255.527 43.49 255.647 44.0967 255.887 44.53C256.134 44.9567 256.447 45.17 256.827 45.17C257.241 45.17 257.564 44.9567 257.797 44.53C258.031 44.1033 258.147 43.4967 258.147 42.71C258.147 41.9167 258.024 41.3133 257.777 40.9C257.537 40.48 257.221 40.27 256.827 40.27C256.454 40.27 256.144 40.4833 255.897 40.91ZM264.147 46.01L267.787 39.23H268.717L265.067 46.01H264.147ZM267.037 44.4C267.037 43.94 267.201 43.5467 267.527 43.22C267.854 42.8867 268.251 42.72 268.717 42.72C269.177 42.72 269.571 42.8867 269.897 43.22C270.224 43.5467 270.387 43.94 270.387 44.4C270.387 44.8667 270.224 45.2633 269.897 45.59C269.571 45.91 269.177 46.07 268.717 46.07C268.251 46.07 267.854 45.91 267.527 45.59C267.201 45.2633 267.037 44.8667 267.037 44.4ZM262.507 40.8C262.507 40.34 262.671 39.9467 262.997 39.62C263.324 39.2933 263.717 39.13 264.177 39.13C264.644 39.13 265.041 39.2933 265.367 39.62C265.694 39.9467 265.857 40.34 265.857 40.8C265.857 41.2667 265.694 41.6633 265.367 41.99C265.041 42.3167 264.644 42.48 264.177 42.48C263.717 42.48 263.324 42.3167 262.997 41.99C262.671 41.6633 262.507 41.2667 262.507 40.8ZM263.337 40.8C263.337 41.0333 263.417 41.2333 263.577 41.4C263.744 41.5667 263.944 41.65 264.177 41.65C264.411 41.65 264.611 41.5667 264.777 41.4C264.944 41.2333 265.027 41.0333 265.027 40.8C265.027 40.5667 264.944 40.37 264.777 40.21C264.611 40.0433 264.411 39.96 264.177 39.96C263.944 39.96 263.744 40.0433 263.577 40.21C263.417 40.3767 263.337 40.5733 263.337 40.8ZM268.117 43.8C267.951 43.9667 267.867 44.1667 267.867 44.4C267.867 44.6333 267.951 44.8333 268.117 45C268.284 45.1667 268.484 45.25 268.717 45.25C268.951 45.25 269.147 45.1667 269.307 45C269.474 44.8333 269.557 44.6333 269.557 44.4C269.557 44.1667 269.474 43.9667 269.307 43.8C269.147 43.6333 268.951 43.55 268.717 43.55C268.484 43.55 268.284 43.6333 268.117 43.8ZM249.16 57.48V56.43L250.79 55.46H251.68V62H250.71V56.53L249.16 57.48ZM252.808 58.71C252.808 57.6833 253.012 56.87 253.418 56.27C253.832 55.6633 254.395 55.36 255.108 55.36C255.835 55.36 256.405 55.66 256.818 56.26C257.232 56.86 257.438 57.6767 257.438 58.71C257.438 59.73 257.235 60.5467 256.828 61.16C256.428 61.7733 255.855 62.08 255.108 62.08C254.395 62.08 253.832 61.7733 253.418 61.16C253.012 60.5467 252.808 59.73 252.808 58.71ZM254.178 56.91C253.932 57.33 253.808 57.93 253.808 58.71C253.808 59.49 253.928 60.0967 254.168 60.53C254.415 60.9567 254.728 61.17 255.108 61.17C255.522 61.17 255.845 60.9567 256.078 60.53C256.312 60.1033 256.428 59.4967 256.428 58.71C256.428 57.9167 256.305 57.3133 256.058 56.9C255.818 56.48 255.502 56.27 255.108 56.27C254.735 56.27 254.425 56.4833 254.178 56.91ZM258.258 58.71C258.258 57.6833 258.461 56.87 258.868 56.27C259.281 55.6633 259.844 55.36 260.558 55.36C261.284 55.36 261.854 55.66 262.268 56.26C262.681 56.86 262.888 57.6767 262.888 58.71C262.888 59.73 262.684 60.5467 262.278 61.16C261.878 61.7733 261.304 62.08 260.558 62.08C259.844 62.08 259.281 61.7733 258.868 61.16C258.461 60.5467 258.258 59.73 258.258 58.71ZM259.628 56.91C259.381 57.33 259.258 57.93 259.258 58.71C259.258 59.49 259.378 60.0967 259.618 60.53C259.864 60.9567 260.178 61.17 260.558 61.17C260.971 61.17 261.294 60.9567 261.528 60.53C261.761 60.1033 261.878 59.4967 261.878 58.71C261.878 57.9167 261.754 57.3133 261.508 56.9C261.268 56.48 260.951 56.27 260.558 56.27C260.184 56.27 259.874 56.4833 259.628 56.91ZM267.878 62.01L271.518 55.23H272.448L268.798 62.01H267.878ZM270.768 60.4C270.768 59.94 270.931 59.5467 271.258 59.22C271.584 58.8867 271.981 58.72 272.448 58.72C272.908 58.72 273.301 58.8867 273.628 59.22C273.954 59.5467 274.118 59.94 274.118 60.4C274.118 60.8667 273.954 61.2633 273.628 61.59C273.301 61.91 272.908 62.07 272.448 62.07C271.981 62.07 271.584 61.91 271.258 61.59C270.931 61.2633 270.768 60.8667 270.768 60.4ZM266.238 56.8C266.238 56.34 266.401 55.9467 266.728 55.62C267.054 55.2933 267.448 55.13 267.908 55.13C268.374 55.13 268.771 55.2933 269.098 55.62C269.424 55.9467 269.588 56.34 269.588 56.8C269.588 57.2667 269.424 57.6633 269.098 57.99C268.771 58.3167 268.374 58.48 267.908 58.48C267.448 58.48 267.054 58.3167 266.728 57.99C266.401 57.6633 266.238 57.2667 266.238 56.8ZM267.068 56.8C267.068 57.0333 267.148 57.2333 267.308 57.4C267.474 57.5667 267.674 57.65 267.908 57.65C268.141 57.65 268.341 57.5667 268.508 57.4C268.674 57.2333 268.758 57.0333 268.758 56.8C268.758 56.5667 268.674 56.37 268.508 56.21C268.341 56.0433 268.141 55.96 267.908 55.96C267.674 55.96 267.474 56.0433 267.308 56.21C267.148 56.3767 267.068 56.5733 267.068 56.8ZM271.848 59.8C271.681 59.9667 271.598 60.1667 271.598 60.4C271.598 60.6333 271.681 60.8333 271.848 61C272.014 61.1667 272.214 61.25 272.448 61.25C272.681 61.25 272.878 61.1667 273.038 61C273.204 60.8333 273.288 60.6333 273.288 60.4C273.288 60.1667 273.204 59.9667 273.038 59.8C272.878 59.6333 272.681 59.55 272.448 59.55C272.214 59.55 272.014 59.6333 271.848 59.8Z" fill="#FF1934"/>
</g>
<defs>
<clipPath id="clip0_1124_4113">
<rect x="20" y="23.5" width="224" height="6" rx="3" fill="white"/>
</clipPath>
<clipPath id="clip1_1124_4113">
<rect width="32" height="13" fill="white" transform="translate(249 20)"/>
</clipPath>
<clipPath id="clip2_1124_4113">
<rect x="20" y="56.5" width="224" height="6" rx="3" fill="white"/>
</clipPath>
<clipPath id="clip3_1124_4113">
<rect width="32" height="13" fill="white" transform="translate(249 53)"/>
</clipPath>
</defs>
</svg>
