<svg width="195" height="256" viewBox="0 0 195 256" fill="none" xmlns="http://www.w3.org/2000/svg">
<rect width="195" height="256" fill="#D3D3D3"/>
<rect width="195" height="256" rx="16" fill="white"/>
<g filter="url(#filter0_d_1124_4113)">
<path d="M0 16C0 7.16344 7.16344 0 16 0H179C187.837 0 195 7.16344 195 16V48H0V16Z" fill="#FF1934" shape-rendering="crispEdges"/>
<g clip-path="url(#clip0_1124_4113)">
<path d="M37.6905 31.57C37.1305 31.13 36.5205 30.77 35.8805 30.5C35.7305 30.43 35.6705 30.31 35.6505 30.21C35.6105 30.06 35.6505 29.89 35.7505 29.77C36.6305 28.72 37.1505 27.33 37.1505 26.06C37.1505 23.54 35.1005 21.49 32.5805 21.49C32.3505 21.49 32.1105 21.52 31.8705 21.56C30.8605 20.59 29.5005 20 28.0005 20C26.5005 20 25.1405 20.6 24.1305 21.56C23.8805 21.52 23.6505 21.49 23.4205 21.49C20.9005 21.49 18.8505 23.54 18.8505 26.06C18.8505 27.33 19.3705 28.72 20.2505 29.77C20.3505 29.89 20.3905 30.06 20.3505 30.21C20.3305 30.3 20.2705 30.43 20.1205 30.49C19.4805 30.76 18.8805 31.12 18.3105 31.56C17.9605 31.83 17.9005 32.33 18.1705 32.68C18.3305 32.88 18.5605 32.99 18.8005 32.99C18.9705 32.99 19.1405 32.94 19.2905 32.82C19.7505 32.47 20.2405 32.17 20.7505 31.95C21.3305 31.7 21.7505 31.19 21.9005 30.57C22.0505 29.93 21.9005 29.24 21.4705 28.73C20.8405 27.97 20.4405 26.94 20.4405 26.05C20.4405 24.56 21.5405 23.34 22.9805 23.12C22.6105 23.86 22.4005 24.7 22.4005 25.58C22.4005 27.15 23.0505 28.86 24.1305 30.16C24.3005 30.37 24.3705 30.65 24.3105 30.91C24.2805 31.05 24.1805 31.3 23.8905 31.42C22.2505 32.13 20.8005 33.26 19.7105 34.69C19.4405 35.04 19.5105 35.54 19.8605 35.81C20.0105 35.92 20.1805 35.97 20.3405 35.97C20.5805 35.97 20.8205 35.86 20.9805 35.65C21.9005 34.44 23.1205 33.48 24.5205 32.88C25.2005 32.59 25.6905 32 25.8605 31.27C26.0405 30.52 25.8605 29.72 25.3605 29.12C24.5205 28.11 24.0005 26.75 24.0005 25.56C24.0005 24.54 24.4005 23.62 25.0305 22.91C25.0305 22.91 25.0405 22.9 25.0505 22.89C25.7805 22.08 26.8305 21.56 28.0005 21.56C29.1705 21.56 30.2205 22.08 30.9505 22.88C30.9505 22.88 30.9605 22.9 30.9705 22.91C31.6005 23.62 32.0005 24.54 32.0005 25.56C32.0005 26.75 31.4805 28.11 30.6405 29.12C29.8605 30.05 28.9305 30.56 28.0005 30.56C27.5605 30.56 27.2005 30.92 27.2005 31.36C27.2005 31.8 27.5605 32.16 28.0005 32.16C28.7705 32.16 29.5305 31.94 30.2305 31.53C30.4505 32.13 30.8805 32.62 31.4805 32.87C32.8705 33.47 34.0905 34.43 35.0205 35.64C35.1805 35.85 35.4205 35.96 35.6605 35.96C35.8305 35.96 36.0005 35.91 36.1405 35.8C36.4905 35.53 36.5605 35.03 36.2905 34.68C35.2005 33.25 33.7605 32.12 32.1205 31.41C31.8305 31.29 31.7305 31.03 31.7005 30.9C31.6405 30.64 31.7005 30.36 31.8805 30.15C32.9605 28.85 33.6105 27.14 33.6105 25.57C33.6105 24.68 33.4005 23.85 33.0305 23.11C34.4605 23.32 35.5705 24.55 35.5705 26.04C35.5705 26.94 35.1805 27.96 34.5405 28.72C34.1205 29.23 33.9605 29.91 34.1105 30.56C34.2605 31.19 34.6805 31.69 35.2705 31.94C35.7805 32.16 36.2705 32.45 36.7305 32.81C36.8805 32.92 37.0505 32.98 37.2205 32.98C37.4605 32.98 37.7005 32.87 37.8505 32.67C38.1205 32.32 38.0605 31.82 37.7105 31.55L37.6905 31.57Z" fill="white"/>
</g>
<path d="M55.196 22.564V24.3H52.9V32H50.73V24.3H48.42V22.564H55.196ZM60.5572 27.8V27.632C60.4919 26.8013 60.1279 26.386 59.4652 26.386C59.1386 26.386 58.8492 26.5073 58.5972 26.75C58.3452 26.9833 58.1772 27.3333 58.0932 27.8H60.5572ZM62.0272 29.886V31.594C61.5419 31.9113 60.7999 32.07 59.8012 32.07C58.6346 32.07 57.7246 31.734 57.0712 31.062C56.4272 30.3807 56.1052 29.508 56.1052 28.444C56.1052 27.3147 56.4179 26.4327 57.0432 25.798C57.6779 25.154 58.4572 24.832 59.3812 24.832C60.3332 24.832 61.0846 25.112 61.6352 25.672C62.1859 26.2227 62.4612 27.0487 62.4612 28.15C62.4612 28.3647 62.4239 28.7333 62.3492 29.256H58.1772C58.3172 29.648 58.5599 29.9513 58.9052 30.166C59.2506 30.3807 59.6659 30.488 60.1512 30.488C60.8699 30.488 61.4952 30.2873 62.0272 29.886ZM65.9641 24.902V26.008C66.3561 25.224 67.0234 24.832 67.9661 24.832C68.9647 24.832 69.6274 25.28 69.9541 26.176C70.1127 25.756 70.3787 25.4293 70.7521 25.196C71.1254 24.9533 71.5641 24.832 72.0681 24.832C72.7681 24.832 73.3187 25.056 73.7201 25.504C74.1307 25.9427 74.3361 26.5913 74.3361 27.45V32H72.2921V27.786C72.2921 27.3847 72.2127 27.0673 72.0541 26.834C71.8954 26.6007 71.6667 26.484 71.3681 26.484C71.0507 26.484 70.7661 26.6147 70.5141 26.876C70.2714 27.128 70.1501 27.5853 70.1501 28.248V32H68.1061V27.786C68.1061 27.3847 68.0267 27.0673 67.8681 26.834C67.7094 26.6007 67.4807 26.484 67.1821 26.484C66.8647 26.484 66.5801 26.6147 66.3281 26.876C66.0854 27.128 65.9641 27.5853 65.9641 28.248V32H63.9201V24.902H65.9641ZM79.4653 29.088H78.8073C78.462 29.088 78.196 29.1627 78.0093 29.312C77.8227 29.4613 77.7293 29.6527 77.7293 29.886C77.7293 30.362 78.0047 30.6 78.5553 30.6C78.8447 30.6 79.0687 30.5113 79.2273 30.334C79.386 30.1567 79.4653 29.914 79.4653 29.606V29.088ZM76.1473 27.086V25.252C76.7073 24.9347 77.5147 24.776 78.5693 24.776C79.5773 24.776 80.3287 24.9953 80.8233 25.434C81.318 25.8633 81.5653 26.5353 81.5653 27.45V32H79.5633V31.132C79.2647 31.7387 78.6767 32.042 77.7993 32.042C77.1087 32.042 76.5673 31.846 76.1753 31.454C75.7927 31.062 75.6013 30.572 75.6013 29.984C75.6013 29.3027 75.8487 28.7753 76.3433 28.402C76.8473 28.0193 77.5893 27.828 78.5693 27.828H79.4653V27.338C79.4653 26.7407 79.0687 26.442 78.2753 26.442C77.51 26.442 76.8007 26.6567 76.1473 27.086ZM85.2141 24.902V26.106C85.3914 25.714 85.6621 25.406 86.0261 25.182C86.3994 24.9487 86.8427 24.832 87.3561 24.832C88.0841 24.832 88.6534 25.0513 89.0641 25.49C89.4747 25.9193 89.6801 26.554 89.6801 27.394V32H87.6361V27.772C87.6361 27.352 87.5381 27.0347 87.3421 26.82C87.1461 26.596 86.8707 26.484 86.5161 26.484C86.1427 26.484 85.8301 26.6333 85.5781 26.932C85.3354 27.2213 85.2141 27.66 85.2141 28.248V32H83.1701V24.902H85.2141Z" fill="white"/>
<path d="M167 14C167 6.26801 173.268 -5.47967e-07 181 -1.22392e-06C188.732 -1.89987e-06 195 6.26801 195 14C195 21.732 188.732 28 181 28C173.268 28 167 21.732 167 14Z" fill="#FF1934"/>
<g clip-path="url(#clip1_1124_4113)">
<path d="M185.21 9.40998C184.88 9.10998 184.38 9.12998 184.08 9.45998L181 12.82L177.92 9.45998C177.62 9.12998 177.11 9.10998 176.79 9.40998C176.46 9.70998 176.44 10.21 176.74 10.54L179.91 14L176.74 17.46C176.44 17.79 176.46 18.29 176.79 18.59C176.94 18.73 177.14 18.8 177.33 18.8C177.55 18.8 177.76 18.71 177.92 18.54L181 15.18L184.08 18.54C184.24 18.71 184.45 18.8 184.67 18.8C184.86 18.8 185.06 18.73 185.21 18.59C185.54 18.29 185.56 17.79 185.26 17.46L182.09 14L185.26 10.54C185.56 10.21 185.54 9.70998 185.21 9.40998Z" fill="white"/>
<path d="M181 4C175.49 4 171 8.49 171 14C171 19.51 175.49 24 181 24C186.51 24 191 19.51 191 14C191 8.49 186.51 4 181 4ZM181 22.4C176.37 22.4 172.6 18.63 172.6 14C172.6 9.37 176.37 5.6 181 5.6C185.63 5.6 189.4 9.37 189.4 14C189.4 18.63 185.63 22.4 181 22.4Z" fill="white"/>
</g>
</g>
<path d="M16 64C16 61.7909 17.7909 60 20 60H175C177.209 60 179 61.7909 179 64V78H16V64Z" fill="#FF1934"/>
<path d="M28.56 71V65.608H29.704L31 67.856C31.2133 68.224 31.4027 68.568 31.568 68.888C31.7387 69.2027 31.8533 69.4267 31.912 69.56L32 69.76C31.9573 69.3173 31.936 68.6827 31.936 67.856V65.608H32.952V71H31.8L30.488 68.76C30.28 68.408 30.0907 68.072 29.92 67.752C29.7547 67.4267 29.64 67.192 29.576 67.048L29.48 66.824C29.5387 67.3307 29.568 67.9733 29.568 68.752V71H28.56ZM36.0998 69.256H35.6038C35.3531 69.256 35.1611 69.3093 35.0278 69.416C34.8945 69.5173 34.8278 69.648 34.8278 69.808C34.8278 70.1493 35.0251 70.32 35.4198 70.32C35.6331 70.32 35.7985 70.2587 35.9158 70.136C36.0385 70.008 36.0998 69.8427 36.0998 69.64V69.256ZM34.1318 68.04V67.152C34.4358 66.9653 34.8731 66.872 35.4438 66.872C36.5425 66.872 37.0918 67.384 37.0918 68.408V71H36.1398V70.512C35.9531 70.8587 35.6011 71.032 35.0838 71.032C34.6998 71.032 34.3931 70.92 34.1638 70.696C33.9398 70.472 33.8278 70.1893 33.8278 69.848C33.8278 69.464 33.9718 69.1627 34.2598 68.944C34.5478 68.7253 34.9638 68.616 35.5078 68.616H36.0998V68.368C36.0998 68.144 36.0411 67.9733 35.9238 67.856C35.8065 67.7387 35.6065 67.68 35.3238 67.68C34.8918 67.68 34.4945 67.8 34.1318 68.04ZM39.0425 66.944V67.584C39.2718 67.1253 39.6532 66.896 40.1865 66.896C40.7785 66.896 41.1625 67.152 41.3385 67.664C41.4452 67.4187 41.6052 67.2293 41.8185 67.096C42.0318 66.9627 42.2745 66.896 42.5465 66.896C42.9572 66.896 43.2745 67.0213 43.4985 67.272C43.7225 67.5173 43.8345 67.8693 43.8345 68.328V71H42.8665V68.512C42.8665 67.968 42.6585 67.696 42.2425 67.696C42.0345 67.696 41.8478 67.7867 41.6825 67.968C41.5225 68.1493 41.4425 68.4347 41.4425 68.824V71H40.4745V68.512C40.4745 67.968 40.2665 67.696 39.8505 67.696C39.6425 67.696 39.4558 67.7867 39.2905 67.968C39.1252 68.1493 39.0425 68.4347 39.0425 68.824V71H38.0825V66.944H39.0425ZM46.8967 69.256H46.4007C46.15 69.256 45.958 69.3093 45.8247 69.416C45.6914 69.5173 45.6247 69.648 45.6247 69.808C45.6247 70.1493 45.822 70.32 46.2167 70.32C46.43 70.32 46.5954 70.2587 46.7127 70.136C46.8354 70.008 46.8967 69.8427 46.8967 69.64V69.256ZM44.9287 68.04V67.152C45.2327 66.9653 45.67 66.872 46.2407 66.872C47.3394 66.872 47.8887 67.384 47.8887 68.408V71H46.9367V70.512C46.75 70.8587 46.398 71.032 45.8807 71.032C45.4967 71.032 45.19 70.92 44.9607 70.696C44.7367 70.472 44.6247 70.1893 44.6247 69.848C44.6247 69.464 44.7687 69.1627 45.0567 68.944C45.3447 68.7253 45.7607 68.616 46.3047 68.616H46.8967V68.368C46.8967 68.144 46.838 67.9733 46.7207 67.856C46.6034 67.7387 46.4034 67.68 46.1207 67.68C45.6887 67.68 45.2914 67.8 44.9287 68.04Z" fill="white"/>
<path d="M147.56 65.832V66.808C147.16 66.568 146.733 66.448 146.28 66.448C146.029 66.448 145.832 66.504 145.688 66.616C145.549 66.728 145.48 66.872 145.48 67.048C145.48 67.224 145.555 67.3707 145.704 67.488C145.859 67.6 146.088 67.7253 146.392 67.864C146.605 67.96 146.779 68.0453 146.912 68.12C147.045 68.1893 147.189 68.288 147.344 68.416C147.504 68.544 147.621 68.6987 147.696 68.88C147.776 69.056 147.816 69.2587 147.816 69.488C147.816 69.968 147.643 70.352 147.296 70.64C146.955 70.9227 146.504 71.064 145.944 71.064C145.336 71.064 144.832 70.9493 144.432 70.72V69.688C144.891 70.0187 145.392 70.184 145.936 70.184C146.181 70.184 146.379 70.1253 146.528 70.008C146.677 69.8853 146.752 69.7227 146.752 69.52C146.752 69.424 146.733 69.3387 146.696 69.264C146.659 69.1893 146.581 69.1147 146.464 69.04C146.352 68.9653 146.264 68.912 146.2 68.88C146.141 68.848 146.016 68.7893 145.824 68.704C145.771 68.6773 145.731 68.6587 145.704 68.648C145.507 68.5573 145.347 68.4773 145.224 68.408C145.101 68.3333 144.968 68.2347 144.824 68.112C144.68 67.9893 144.571 67.8427 144.496 67.672C144.427 67.5013 144.392 67.3067 144.392 67.088C144.392 66.6293 144.56 66.2613 144.896 65.984C145.237 65.7067 145.688 65.568 146.248 65.568C146.755 65.568 147.192 65.656 147.56 65.832ZM149.829 67.664V69.728C149.829 69.8987 149.874 70.0293 149.965 70.12C150.055 70.2053 150.181 70.248 150.341 70.248C150.543 70.248 150.73 70.192 150.901 70.08V70.904C150.714 70.9947 150.474 71.04 150.181 71.04C149.306 71.04 148.869 70.5973 148.869 69.712V67.664H148.261V66.944H148.869V65.968H149.829V66.944H150.837V67.664H149.829ZM153.764 69.256H153.268C153.017 69.256 152.825 69.3093 152.692 69.416C152.559 69.5173 152.492 69.648 152.492 69.808C152.492 70.1493 152.689 70.32 153.084 70.32C153.297 70.32 153.463 70.2587 153.58 70.136C153.703 70.008 153.764 69.8427 153.764 69.64V69.256ZM151.796 68.04V67.152C152.1 66.9653 152.537 66.872 153.108 66.872C154.207 66.872 154.756 67.384 154.756 68.408V71H153.804V70.512C153.617 70.8587 153.265 71.032 152.748 71.032C152.364 71.032 152.057 70.92 151.828 70.696C151.604 70.472 151.492 70.1893 151.492 69.848C151.492 69.464 151.636 69.1627 151.924 68.944C152.212 68.7253 152.628 68.616 153.172 68.616H153.764V68.368C153.764 68.144 153.705 67.9733 153.588 67.856C153.471 67.7387 153.271 67.68 152.988 67.68C152.556 67.68 152.159 67.8 151.796 68.04ZM156.915 67.664V69.728C156.915 69.8987 156.96 70.0293 157.051 70.12C157.141 70.2053 157.267 70.248 157.427 70.248C157.629 70.248 157.816 70.192 157.987 70.08V70.904C157.8 70.9947 157.56 71.04 157.267 71.04C156.392 71.04 155.955 70.5973 155.955 69.712V67.664H155.347V66.944H155.955V65.968H156.915V66.944H157.923V67.664H156.915ZM161.29 66.944H162.258V71H161.29V70.336C161.076 70.8053 160.66 71.04 160.042 71.04C159.631 71.04 159.311 70.9227 159.082 70.688C158.852 70.4533 158.738 70.12 158.738 69.688V66.944H159.698V69.464C159.698 69.72 159.759 69.9147 159.882 70.048C160.01 70.1813 160.183 70.248 160.402 70.248C160.679 70.248 160.895 70.1547 161.05 69.968C161.21 69.7813 161.29 69.4987 161.29 69.12V66.944ZM165.725 67.072V67.92C165.459 67.76 165.125 67.68 164.725 67.68C164.56 67.68 164.429 67.7173 164.333 67.792C164.243 67.8613 164.197 67.952 164.197 68.064C164.197 68.1067 164.203 68.1467 164.213 68.184C164.229 68.2213 164.253 68.2587 164.285 68.296C164.323 68.328 164.357 68.3573 164.389 68.384C164.421 68.4107 164.467 68.44 164.525 68.472C164.584 68.4987 164.635 68.5227 164.677 68.544C164.72 68.5653 164.779 68.592 164.853 68.624C164.928 68.656 164.987 68.6827 165.029 68.704C165.312 68.8427 165.536 68.9973 165.701 69.168C165.867 69.3387 165.949 69.56 165.949 69.832C165.949 70.2107 165.813 70.5067 165.541 70.72C165.269 70.9333 164.907 71.04 164.453 71.04C163.952 71.04 163.547 70.9573 163.237 70.792V69.912C163.595 70.152 163.981 70.272 164.397 70.272C164.573 70.272 164.709 70.24 164.805 70.176C164.907 70.1067 164.957 70.0133 164.957 69.896C164.957 69.8267 164.941 69.7653 164.909 69.712C164.877 69.6533 164.816 69.5973 164.725 69.544C164.635 69.4907 164.563 69.4533 164.509 69.432C164.461 69.4053 164.363 69.36 164.213 69.296C164.197 69.2907 164.184 69.2853 164.173 69.28C164.168 69.2747 164.157 69.2693 164.141 69.264C164.125 69.2587 164.112 69.2533 164.101 69.248C163.509 68.9813 163.213 68.5973 163.213 68.096C163.213 67.7227 163.355 67.4293 163.637 67.216C163.92 67.0027 164.275 66.896 164.701 66.896C165.112 66.896 165.453 66.9547 165.725 67.072Z" fill="white"/>
<path opacity="0.64" d="M60.807 112.448H62.031C62.3723 112.448 62.6336 112.371 62.815 112.216C63.0016 112.056 63.095 111.824 63.095 111.52C63.095 111.216 62.991 110.979 62.783 110.808C62.5803 110.637 62.2896 110.552 61.911 110.552H60.807V112.448ZM60.807 108.16V110H61.671C62.103 110 62.423 109.909 62.631 109.728C62.839 109.547 62.943 109.312 62.943 109.024C62.943 108.773 62.8443 108.568 62.647 108.408C62.455 108.243 62.167 108.16 61.783 108.16H60.807ZM60.159 107.608H61.783C62.3376 107.608 62.7803 107.736 63.111 107.992C63.447 108.248 63.615 108.592 63.615 109.024C63.615 109.333 63.527 109.603 63.351 109.832C63.1803 110.056 62.959 110.197 62.687 110.256C62.9856 110.304 63.239 110.44 63.447 110.664C63.6603 110.883 63.767 111.181 63.767 111.56C63.767 111.992 63.623 112.341 63.335 112.608C63.0523 112.869 62.6496 113 62.127 113H60.159V107.608ZM67.2813 110.712V110.552C67.2813 110.216 67.1906 109.949 67.0093 109.752C66.8279 109.549 66.5773 109.448 66.2573 109.448C65.9533 109.448 65.6946 109.557 65.4813 109.776C65.2679 109.995 65.1426 110.307 65.1053 110.712H67.2813ZM67.6573 112.2V112.792C67.3426 112.957 66.9586 113.04 66.5053 113.04C65.8919 113.04 65.3959 112.853 65.0173 112.48C64.6439 112.101 64.4573 111.603 64.4573 110.984C64.4573 110.339 64.6253 109.829 64.9613 109.456C65.2973 109.083 65.7293 108.896 66.2573 108.896C66.7639 108.896 67.1666 109.059 67.4653 109.384C67.7639 109.709 67.9133 110.171 67.9133 110.768C67.9133 110.939 67.8999 111.096 67.8733 111.24H65.1053C65.1533 111.64 65.3053 111.947 65.5613 112.16C65.8173 112.373 66.1533 112.48 66.5693 112.48C67.0226 112.48 67.3853 112.387 67.6573 112.2ZM68.909 113V107.344H69.541V113H68.909ZM73.2642 108.944H73.8962V113H73.2642V112.296C73.0508 112.797 72.6268 113.048 71.9922 113.048C71.5922 113.048 71.2748 112.931 71.0402 112.696C70.8108 112.456 70.6962 112.136 70.6962 111.736V108.944H71.3282V111.576C71.3282 111.869 71.4028 112.093 71.5522 112.248C71.7015 112.403 71.9042 112.48 72.1602 112.48C72.4962 112.48 72.7628 112.363 72.9602 112.128C73.1628 111.893 73.2642 111.576 73.2642 111.176V108.944ZM75.6885 108.944V109.6C75.9125 109.125 76.2938 108.888 76.8325 108.888C77.4565 108.888 77.8511 109.152 78.0165 109.68C78.1338 109.424 78.2965 109.229 78.5045 109.096C78.7178 108.957 78.9551 108.888 79.2165 108.888C79.6378 108.888 79.9551 109.008 80.1685 109.248C80.3818 109.488 80.4885 109.811 80.4885 110.216V113H79.8565V110.376C79.8565 109.763 79.5978 109.456 79.0805 109.456C78.8245 109.456 78.5951 109.573 78.3925 109.808C78.1898 110.037 78.0885 110.363 78.0885 110.784V113H77.4565V110.376C77.4565 109.763 77.1978 109.456 76.6805 109.456C76.4245 109.456 76.1951 109.573 75.9925 109.808C75.7898 110.037 75.6885 110.363 75.6885 110.784V113H75.0645V108.944H75.6885ZM84.1885 108.944V109.6C84.4125 109.125 84.7938 108.888 85.3325 108.888C85.9565 108.888 86.3511 109.152 86.5165 109.68C86.6338 109.424 86.7965 109.229 87.0045 109.096C87.2178 108.957 87.4551 108.888 87.7165 108.888C88.1378 108.888 88.4551 109.008 88.6685 109.248C88.8818 109.488 88.9885 109.811 88.9885 110.216V113H88.3565V110.376C88.3565 109.763 88.0978 109.456 87.5805 109.456C87.3245 109.456 87.0951 109.573 86.8925 109.808C86.6898 110.037 86.5885 110.363 86.5885 110.784V113H85.9565V110.376C85.9565 109.763 85.6978 109.456 85.1805 109.456C84.9245 109.456 84.6951 109.573 84.4925 109.808C84.2898 110.037 84.1885 110.363 84.1885 110.784V113H83.5645V108.944H84.1885ZM92.6953 110.712V110.552C92.6953 110.216 92.6047 109.949 92.4233 109.752C92.242 109.549 91.9913 109.448 91.6713 109.448C91.3673 109.448 91.1087 109.557 90.8953 109.776C90.682 109.995 90.5567 110.307 90.5193 110.712H92.6953ZM93.0713 112.2V112.792C92.7567 112.957 92.3727 113.04 91.9193 113.04C91.306 113.04 90.81 112.853 90.4313 112.48C90.058 112.101 89.8713 111.603 89.8713 110.984C89.8713 110.339 90.0393 109.829 90.3753 109.456C90.7113 109.083 91.1433 108.896 91.6713 108.896C92.178 108.896 92.5807 109.059 92.8793 109.384C93.178 109.709 93.3273 110.171 93.3273 110.768C93.3273 110.939 93.314 111.096 93.2873 111.24H90.5193C90.5673 111.64 90.7193 111.947 90.9753 112.16C91.2313 112.373 91.5673 112.48 91.9833 112.48C92.4367 112.48 92.7993 112.387 93.0713 112.2ZM94.915 108.944V109.6C95.139 109.125 95.5204 108.888 96.059 108.888C96.683 108.888 97.0777 109.152 97.243 109.68C97.3604 109.424 97.523 109.229 97.731 109.096C97.9444 108.957 98.1817 108.888 98.443 108.888C98.8644 108.888 99.1817 109.008 99.395 109.248C99.6084 109.488 99.715 109.811 99.715 110.216V113H99.083V110.376C99.083 109.763 98.8244 109.456 98.307 109.456C98.051 109.456 97.8217 109.573 97.619 109.808C97.4164 110.037 97.315 110.363 97.315 110.784V113H96.683V110.376C96.683 109.763 96.4244 109.456 95.907 109.456C95.651 109.456 95.4217 109.573 95.219 109.808C95.0164 110.037 94.915 110.363 94.915 110.784V113H94.291V108.944H94.915ZM100.87 113V108.944H101.502V113H100.87ZM100.886 107.968C100.811 107.888 100.774 107.789 100.774 107.672C100.774 107.555 100.811 107.456 100.886 107.376C100.966 107.296 101.065 107.256 101.182 107.256C101.299 107.256 101.398 107.296 101.478 107.376C101.558 107.456 101.598 107.555 101.598 107.672C101.598 107.789 101.558 107.888 101.478 107.968C101.398 108.043 101.299 108.08 101.182 108.08C101.065 108.08 100.966 108.043 100.886 107.968ZM102.737 113V107.344H103.369V113H102.737ZM104.604 113V108.944H105.236V113H104.604ZM104.62 107.968C104.546 107.888 104.508 107.789 104.508 107.672C104.508 107.555 104.546 107.456 104.62 107.376C104.7 107.296 104.799 107.256 104.916 107.256C105.034 107.256 105.132 107.296 105.212 107.376C105.292 107.456 105.332 107.555 105.332 107.672C105.332 107.789 105.292 107.888 105.212 107.968C105.132 108.043 105.034 108.08 104.916 108.08C104.799 108.08 104.7 108.043 104.62 107.968ZM106.439 113V107.376H107.063V113H106.439ZM107.887 110.872L109.535 113H108.775L107.143 110.872L108.735 108.944H109.487L107.887 110.872ZM110.315 113V108.944H110.947V113H110.315ZM110.331 107.968C110.257 107.888 110.219 107.789 110.219 107.672C110.219 107.555 110.257 107.456 110.331 107.376C110.411 107.296 110.51 107.256 110.627 107.256C110.745 107.256 110.843 107.296 110.923 107.376C111.003 107.456 111.043 107.555 111.043 107.672C111.043 107.789 111.003 107.888 110.923 107.968C110.843 108.043 110.745 108.08 110.627 108.08C110.51 108.08 110.411 108.043 110.331 107.968ZM114.976 109.456V111.832C114.976 112.264 115.178 112.48 115.584 112.48C115.792 112.48 115.976 112.419 116.136 112.296V112.896C115.96 112.992 115.762 113.04 115.544 113.04C114.744 113.04 114.344 112.632 114.344 111.816V109.456H113.696V108.944H114.344V107.936H114.976V108.944H116.096V109.456H114.976ZM119.641 110.712V110.552C119.641 110.216 119.55 109.949 119.369 109.752C119.187 109.549 118.937 109.448 118.617 109.448C118.313 109.448 118.054 109.557 117.841 109.776C117.627 109.995 117.502 110.307 117.465 110.712H119.641ZM120.017 112.2V112.792C119.702 112.957 119.318 113.04 118.865 113.04C118.251 113.04 117.755 112.853 117.377 112.48C117.003 112.101 116.817 111.603 116.817 110.984C116.817 110.339 116.985 109.829 117.321 109.456C117.657 109.083 118.089 108.896 118.617 108.896C119.123 108.896 119.526 109.059 119.825 109.384C120.123 109.709 120.273 110.171 120.273 110.768C120.273 110.939 120.259 111.096 120.233 111.24H117.465C117.513 111.64 117.665 111.947 117.921 112.16C118.177 112.373 118.513 112.48 118.929 112.48C119.382 112.48 119.745 112.387 120.017 112.2ZM121.86 108.944V109.6C122.084 109.125 122.466 108.888 123.004 108.888C123.628 108.888 124.023 109.152 124.188 109.68C124.306 109.424 124.468 109.229 124.676 109.096C124.89 108.957 125.127 108.888 125.388 108.888C125.81 108.888 126.127 109.008 126.34 109.248C126.554 109.488 126.66 109.811 126.66 110.216V113H126.028V110.376C126.028 109.763 125.77 109.456 125.252 109.456C124.996 109.456 124.767 109.573 124.564 109.808C124.362 110.037 124.26 110.363 124.26 110.784V113H123.628V110.376C123.628 109.763 123.37 109.456 122.852 109.456C122.596 109.456 122.367 109.573 122.164 109.808C121.962 110.037 121.86 110.363 121.86 110.784V113H121.236V108.944H121.86ZM129.967 111.128H129.263C128.922 111.128 128.666 111.195 128.495 111.328C128.325 111.461 128.239 111.629 128.239 111.832C128.239 112.035 128.306 112.2 128.439 112.328C128.573 112.451 128.767 112.512 129.023 112.512C129.311 112.512 129.541 112.432 129.711 112.272C129.882 112.107 129.967 111.899 129.967 111.648V111.128ZM127.871 109.792V109.16C128.175 108.973 128.575 108.88 129.071 108.88C130.09 108.88 130.599 109.397 130.599 110.432V113H129.975V112.52C129.767 112.867 129.389 113.04 128.839 113.04C128.461 113.04 128.154 112.928 127.919 112.704C127.69 112.48 127.575 112.197 127.575 111.856C127.575 111.467 127.722 111.165 128.015 110.952C128.314 110.733 128.719 110.624 129.231 110.624H129.967V110.416C129.967 110.096 129.895 109.856 129.751 109.696C129.607 109.531 129.365 109.448 129.023 109.448C128.591 109.448 128.207 109.563 127.871 109.792ZM132.345 108.944V109.648C132.585 109.141 133.011 108.888 133.625 108.888C134.019 108.888 134.334 109.008 134.569 109.248C134.803 109.488 134.921 109.808 134.921 110.208V113H134.289V110.376C134.289 110.077 134.211 109.851 134.057 109.696C133.907 109.536 133.71 109.456 133.465 109.456C133.161 109.456 132.897 109.573 132.673 109.808C132.454 110.043 132.345 110.368 132.345 110.784V113H131.721V108.944H132.345Z" fill="#2B2B2B"/>
<g clip-path="url(#clip2_1124_4113)">
<path d="M73.1914 188.855V162.513L94.981 172.681L125.488 165.127V187.486L94.981 199.024L73.1914 188.855Z" fill="#FF6678"/>
<path d="M73.1914 162.513V188.855L94.981 199.024V172.681L73.1914 162.513Z" fill="#FF5769"/>
<path d="M73.1915 162.513C73.1915 162.513 66.6059 167.259 64.4766 173.845L86.5581 185.08C86.5581 185.08 91.3041 176.365 94.9833 172.683L73.1937 162.515L73.1915 162.513Z" fill="#FF7587"/>
<path d="M125.488 165.127L94.9814 172.681C99.3389 178.878 99.3389 186.434 99.3389 186.434L130.522 176.944C129.94 171.715 125.486 165.13 125.486 165.13L125.488 165.127Z" fill="#FF7587"/>
<path d="M73.1914 162.513L97.7908 157.381L125.488 165.127L94.981 172.681L73.1914 162.513Z" fill="#CC5260"/>
<path d="M93.1411 154.281L86.1691 140.337L83.2627 147.309L93.1411 154.281Z" fill="#FF7587"/>
<path d="M97.209 150.988V132.976L101.858 138.399L97.209 150.988Z" fill="#FF7587"/>
<path d="M100.695 154.281L106.895 143.63L108.249 150.02L100.695 154.281Z" fill="#FF7587"/>
<path d="M97.7908 157.381L73.1914 162.513L94.981 172.681L97.7908 171.988V157.381Z" fill="#C54956"/>
<path d="M119.913 149.707L119.612 149.468C119.73 149.32 119.844 149.168 119.949 149.016L120.265 149.234C120.153 149.393 120.035 149.552 119.913 149.707Z" fill="#FF6678"/>
<path d="M98.0698 168.646L97.765 168.412C97.9861 168.124 98.1664 167.806 98.3038 167.471L98.6601 167.617C98.5098 167.985 98.3124 168.332 98.0719 168.646H98.0698ZM98.9542 166.467L98.5721 166.424C98.5871 166.284 98.5957 166.145 98.5957 166.005C98.5957 165.939 98.5957 165.87 98.5893 165.804C98.5807 165.651 98.5614 165.499 98.5335 165.346L98.9112 165.276C98.9413 165.443 98.9628 165.613 98.9714 165.782C98.9756 165.857 98.9778 165.93 98.9778 166.005C98.9778 166.158 98.9692 166.312 98.952 166.467H98.9542ZM98.1922 164.32C98.0312 163.996 97.8272 163.694 97.5847 163.421L97.8723 163.166C98.1363 163.464 98.3596 163.794 98.5356 164.149L98.1922 164.32ZM96.7647 162.715C96.5629 162.584 96.3483 162.474 96.1293 162.386C96.0177 162.341 95.8996 162.3 95.7816 162.266L95.8911 161.899C96.0198 161.938 96.1465 161.981 96.271 162.03C96.5136 162.127 96.7497 162.249 96.9729 162.393L96.7647 162.715ZM90.1705 162.32C89.7433 162.311 89.3634 162.27 89.0049 162.195L89.0844 161.82C89.4192 161.89 89.7755 161.929 90.1791 161.938L90.1705 162.322V162.32ZM91.3275 162.279L91.2974 161.897C91.6087 161.873 91.9307 161.839 92.2398 161.807L92.4265 161.787L92.4652 162.17L92.2784 162.189C91.9672 162.221 91.643 162.255 91.3275 162.279ZM94.704 162.077C94.3692 162.051 94.015 162.051 93.59 162.075L93.5685 161.691C94.0107 161.667 94.3799 161.667 94.7319 161.695L94.704 162.077ZM87.8866 161.807C87.5367 161.629 87.2104 161.397 86.9163 161.12L87.1804 160.841C87.4487 161.094 87.7449 161.304 88.0605 161.465L87.8844 161.807H87.8866ZM86.1672 160.203C85.9611 159.877 85.7873 159.521 85.652 159.143L86.0127 159.012C86.1393 159.364 86.3003 159.695 86.4913 159.997L86.1672 160.203ZM85.3644 158.005C85.3193 157.709 85.2979 157.408 85.2979 157.11C85.2979 157.018 85.3 156.926 85.3043 156.833L85.6885 156.85C85.6842 156.936 85.6821 157.024 85.6821 157.11C85.6821 157.389 85.7035 157.67 85.7443 157.947L85.3644 158.003V158.005ZM85.8495 155.766L85.4782 155.67C85.5039 155.571 85.5318 155.474 85.5619 155.378C85.6499 155.105 85.7572 154.833 85.8817 154.569L86.2295 154.732C86.1114 154.981 86.0105 155.238 85.9289 155.496C85.901 155.584 85.8753 155.674 85.8517 155.766H85.8495ZM86.7811 153.774L86.4634 153.558C86.6781 153.244 86.9228 152.939 87.189 152.647L87.4723 152.907C87.2169 153.186 86.9829 153.478 86.779 153.774H86.7811ZM112.149 153.437C112.018 153.437 111.887 153.435 111.76 153.429L111.778 153.045C112.143 153.06 112.52 153.053 112.892 153.023L112.924 153.405C112.666 153.427 112.407 153.437 112.151 153.437H112.149ZM110.606 153.309C110.239 153.248 109.859 153.167 109.474 153.064L109.573 152.693C109.944 152.791 110.314 152.871 110.666 152.929L110.603 153.309H110.606ZM114.07 153.242L113.995 152.866C114.358 152.793 114.721 152.697 115.075 152.583L115.193 152.948C114.826 153.068 114.448 153.167 114.07 153.244V153.242ZM108.373 152.72C108.034 152.6 107.684 152.465 107.302 152.308L107.448 151.954C107.824 152.109 108.167 152.242 108.5 152.36L108.373 152.723V152.72ZM116.27 152.525L116.112 152.175C116.449 152.021 116.781 151.847 117.099 151.656L117.296 151.984C116.966 152.182 116.62 152.364 116.27 152.525ZM88.2751 152.132L88.0261 151.84C88.3137 151.596 88.6229 151.36 88.9491 151.138L89.1659 151.456C88.8525 151.669 88.552 151.896 88.2773 152.132H88.2751ZM106.25 151.849C105.905 151.692 105.559 151.531 105.216 151.37L105.379 151.022C105.722 151.183 106.066 151.342 106.411 151.499L106.252 151.849H106.25ZM118.254 151.332L118.02 151.027C118.316 150.799 118.599 150.552 118.861 150.295L119.13 150.57C118.855 150.838 118.561 151.093 118.254 151.332ZM104.183 150.894C103.79 150.716 103.462 150.57 103.146 150.439L103.294 150.084C103.612 150.218 103.947 150.364 104.342 150.544L104.183 150.894ZM90.119 150.872L89.9344 150.535C90.2263 150.374 90.5333 150.224 90.8424 150.084C90.8853 150.065 90.9282 150.046 90.9712 150.027L91.1257 150.379C91.0828 150.398 91.042 150.415 90.9991 150.434C90.6986 150.57 90.4023 150.716 90.119 150.872ZM102.095 150.029C101.871 149.949 101.648 149.874 101.436 149.808C101.3 149.765 101.161 149.724 101.023 149.685L101.126 149.316C101.266 149.355 101.41 149.398 101.549 149.44C101.768 149.509 101.996 149.584 102.223 149.668L102.095 150.029ZM92.1732 149.971L92.0466 149.608C92.4072 149.483 92.7786 149.37 93.1499 149.271L93.2487 149.642C92.8859 149.737 92.5253 149.848 92.1732 149.971ZM99.9309 149.428C99.5659 149.357 99.1924 149.297 98.8211 149.254L98.8662 148.872C99.2461 148.917 99.6303 148.977 100.006 149.05L99.9309 149.428ZM94.3434 149.398L94.2747 149.02C94.6504 148.951 95.0346 148.895 95.4145 148.854L95.4553 149.237C95.084 149.277 94.7105 149.331 94.3434 149.398ZM97.7006 149.164C97.4924 149.155 97.2799 149.151 97.0695 149.151C96.9085 149.153 96.7389 149.153 96.5758 149.159L96.5629 148.775C96.7304 148.769 96.9042 148.766 97.0695 148.766C97.2842 148.766 97.501 148.771 97.7156 148.779L97.6984 149.164H97.7006Z" fill="#FF6678"/>
<path d="M96.7086 169.813L96.5283 169.474C96.6872 169.391 96.8417 169.292 96.9898 169.18L97.2195 169.489C97.0564 169.609 96.8846 169.719 96.7086 169.813Z" fill="#FF6678"/>
<path d="M120.999 147.68C121.21 147.833 121.259 148.127 121.107 148.337C120.954 148.547 120.54 148.762 120.33 148.612C120.119 148.462 120.19 147.998 120.342 147.788C120.495 147.577 120.789 147.528 120.999 147.68Z" fill="#FF6678"/>
<path d="M121.34 147.206C121.551 147.358 121.572 147.691 121.386 147.951C121.199 148.21 120.729 148.502 120.518 148.35C120.308 148.198 120.435 147.661 120.621 147.401C120.808 147.141 121.13 147.056 121.34 147.206Z" fill="#FF6678"/>
<path d="M120.965 147.73C120.965 147.73 121.015 146.753 120.083 147.094C119.151 147.436 119.055 148.378 120.624 148.206L120.967 147.73H120.965Z" fill="#FF6678"/>
<path d="M120.966 147.73C120.966 147.73 121.876 147.371 121.848 148.365C121.82 149.359 120.957 149.75 120.622 148.206L120.966 147.73Z" fill="#FF6678"/>
</g>
<defs>
<filter id="filter0_d_1124_4113" x="-4" y="-2" width="203" height="56" filterUnits="userSpaceOnUse" color-interpolation-filters="sRGB">
<feFlood flood-opacity="0" result="BackgroundImageFix"/>
<feColorMatrix in="SourceAlpha" type="matrix" values="0 0 0 0 0 0 0 0 0 0 0 0 0 0 0 0 0 0 127 0" result="hardAlpha"/>
<feOffset dy="2"/>
<feGaussianBlur stdDeviation="2"/>
<feComposite in2="hardAlpha" operator="out"/>
<feColorMatrix type="matrix" values="0 0 0 0 0.168627 0 0 0 0 0.168627 0 0 0 0 0.168627 0 0 0 0.24 0"/>
<feBlend mode="normal" in2="BackgroundImageFix" result="effect1_dropShadow_1124_4113"/>
<feBlend mode="normal" in="SourceGraphic" in2="effect1_dropShadow_1124_4113" result="shape"/>
</filter>
<clipPath id="clip0_1124_4113">
<rect width="24" height="24" fill="white" transform="translate(16 16)"/>
</clipPath>
<clipPath id="clip1_1124_4113">
<rect width="24" height="24" fill="white" transform="translate(169 2)"/>
</clipPath>
<clipPath id="clip2_1124_4113">
<rect width="96" height="96" fill="white" transform="translate(49.5 118)"/>
</clipPath>
</defs>
</svg>
