<svg width="208" height="256" viewBox="0 0 208 256" fill="none" xmlns="http://www.w3.org/2000/svg">
<rect width="208" height="256" fill="#D3D3D3"/>
<rect width="208" height="256" rx="16" fill="white"/>
<g filter="url(#filter0_d_1124_4113)">
<path d="M0 16C0 7.16344 7.16344 0 16 0H192C200.837 0 208 7.16344 208 16V48H0V16Z" fill="#FF1934" shape-rendering="crispEdges"/>
<g clip-path="url(#clip0_1124_4113)">
<path d="M37.6905 31.57C37.1305 31.13 36.5205 30.77 35.8805 30.5C35.7305 30.43 35.6705 30.31 35.6505 30.21C35.6105 30.06 35.6505 29.89 35.7505 29.77C36.6305 28.72 37.1505 27.33 37.1505 26.06C37.1505 23.54 35.1005 21.49 32.5805 21.49C32.3505 21.49 32.1105 21.52 31.8705 21.56C30.8605 20.59 29.5005 20 28.0005 20C26.5005 20 25.1405 20.6 24.1305 21.56C23.8805 21.52 23.6505 21.49 23.4205 21.49C20.9005 21.49 18.8505 23.54 18.8505 26.06C18.8505 27.33 19.3705 28.72 20.2505 29.77C20.3505 29.89 20.3905 30.06 20.3505 30.21C20.3305 30.3 20.2705 30.43 20.1205 30.49C19.4805 30.76 18.8805 31.12 18.3105 31.56C17.9605 31.83 17.9005 32.33 18.1705 32.68C18.3305 32.88 18.5605 32.99 18.8005 32.99C18.9705 32.99 19.1405 32.94 19.2905 32.82C19.7505 32.47 20.2405 32.17 20.7505 31.95C21.3305 31.7 21.7505 31.19 21.9005 30.57C22.0505 29.93 21.9005 29.24 21.4705 28.73C20.8405 27.97 20.4405 26.94 20.4405 26.05C20.4405 24.56 21.5405 23.34 22.9805 23.12C22.6105 23.86 22.4005 24.7 22.4005 25.58C22.4005 27.15 23.0505 28.86 24.1305 30.16C24.3005 30.37 24.3705 30.65 24.3105 30.91C24.2805 31.05 24.1805 31.3 23.8905 31.42C22.2505 32.13 20.8005 33.26 19.7105 34.69C19.4405 35.04 19.5105 35.54 19.8605 35.81C20.0105 35.92 20.1805 35.97 20.3405 35.97C20.5805 35.97 20.8205 35.86 20.9805 35.65C21.9005 34.44 23.1205 33.48 24.5205 32.88C25.2005 32.59 25.6905 32 25.8605 31.27C26.0405 30.52 25.8605 29.72 25.3605 29.12C24.5205 28.11 24.0005 26.75 24.0005 25.56C24.0005 24.54 24.4005 23.62 25.0305 22.91C25.0305 22.91 25.0405 22.9 25.0505 22.89C25.7805 22.08 26.8305 21.56 28.0005 21.56C29.1705 21.56 30.2205 22.08 30.9505 22.88C30.9505 22.88 30.9605 22.9 30.9705 22.91C31.6005 23.62 32.0005 24.54 32.0005 25.56C32.0005 26.75 31.4805 28.11 30.6405 29.12C29.8605 30.05 28.9305 30.56 28.0005 30.56C27.5605 30.56 27.2005 30.92 27.2005 31.36C27.2005 31.8 27.5605 32.16 28.0005 32.16C28.7705 32.16 29.5305 31.94 30.2305 31.53C30.4505 32.13 30.8805 32.62 31.4805 32.87C32.8705 33.47 34.0905 34.43 35.0205 35.64C35.1805 35.85 35.4205 35.96 35.6605 35.96C35.8305 35.96 36.0005 35.91 36.1405 35.8C36.4905 35.53 36.5605 35.03 36.2905 34.68C35.2005 33.25 33.7605 32.12 32.1205 31.41C31.8305 31.29 31.7305 31.03 31.7005 30.9C31.6405 30.64 31.7005 30.36 31.8805 30.15C32.9605 28.85 33.6105 27.14 33.6105 25.57C33.6105 24.68 33.4005 23.85 33.0305 23.11C34.4605 23.32 35.5705 24.55 35.5705 26.04C35.5705 26.94 35.1805 27.96 34.5405 28.72C34.1205 29.23 33.9605 29.91 34.1105 30.56C34.2605 31.19 34.6805 31.69 35.2705 31.94C35.7805 32.16 36.2705 32.45 36.7305 32.81C36.8805 32.92 37.0505 32.98 37.2205 32.98C37.4605 32.98 37.7005 32.87 37.8505 32.67C38.1205 32.32 38.0605 31.82 37.7105 31.55L37.6905 31.57Z" fill="white"/>
</g>
<path d="M55.196 22.564V24.3H52.9V32H50.73V24.3H48.42V22.564H55.196ZM60.5572 27.8V27.632C60.4919 26.8013 60.1279 26.386 59.4652 26.386C59.1386 26.386 58.8492 26.5073 58.5972 26.75C58.3452 26.9833 58.1772 27.3333 58.0932 27.8H60.5572ZM62.0272 29.886V31.594C61.5419 31.9113 60.7999 32.07 59.8012 32.07C58.6346 32.07 57.7246 31.734 57.0712 31.062C56.4272 30.3807 56.1052 29.508 56.1052 28.444C56.1052 27.3147 56.4179 26.4327 57.0432 25.798C57.6779 25.154 58.4572 24.832 59.3812 24.832C60.3332 24.832 61.0846 25.112 61.6352 25.672C62.1859 26.2227 62.4612 27.0487 62.4612 28.15C62.4612 28.3647 62.4239 28.7333 62.3492 29.256H58.1772C58.3172 29.648 58.5599 29.9513 58.9052 30.166C59.2506 30.3807 59.6659 30.488 60.1512 30.488C60.8699 30.488 61.4952 30.2873 62.0272 29.886ZM65.9641 24.902V26.008C66.3561 25.224 67.0234 24.832 67.9661 24.832C68.9647 24.832 69.6274 25.28 69.9541 26.176C70.1127 25.756 70.3787 25.4293 70.7521 25.196C71.1254 24.9533 71.5641 24.832 72.0681 24.832C72.7681 24.832 73.3187 25.056 73.7201 25.504C74.1307 25.9427 74.3361 26.5913 74.3361 27.45V32H72.2921V27.786C72.2921 27.3847 72.2127 27.0673 72.0541 26.834C71.8954 26.6007 71.6667 26.484 71.3681 26.484C71.0507 26.484 70.7661 26.6147 70.5141 26.876C70.2714 27.128 70.1501 27.5853 70.1501 28.248V32H68.1061V27.786C68.1061 27.3847 68.0267 27.0673 67.8681 26.834C67.7094 26.6007 67.4807 26.484 67.1821 26.484C66.8647 26.484 66.5801 26.6147 66.3281 26.876C66.0854 27.128 65.9641 27.5853 65.9641 28.248V32H63.9201V24.902H65.9641ZM79.4653 29.088H78.8073C78.462 29.088 78.196 29.1627 78.0093 29.312C77.8227 29.4613 77.7293 29.6527 77.7293 29.886C77.7293 30.362 78.0047 30.6 78.5553 30.6C78.8447 30.6 79.0687 30.5113 79.2273 30.334C79.386 30.1567 79.4653 29.914 79.4653 29.606V29.088ZM76.1473 27.086V25.252C76.7073 24.9347 77.5147 24.776 78.5693 24.776C79.5773 24.776 80.3287 24.9953 80.8233 25.434C81.318 25.8633 81.5653 26.5353 81.5653 27.45V32H79.5633V31.132C79.2647 31.7387 78.6767 32.042 77.7993 32.042C77.1087 32.042 76.5673 31.846 76.1753 31.454C75.7927 31.062 75.6013 30.572 75.6013 29.984C75.6013 29.3027 75.8487 28.7753 76.3433 28.402C76.8473 28.0193 77.5893 27.828 78.5693 27.828H79.4653V27.338C79.4653 26.7407 79.0687 26.442 78.2753 26.442C77.51 26.442 76.8007 26.6567 76.1473 27.086ZM85.2141 24.902V26.106C85.3914 25.714 85.6621 25.406 86.0261 25.182C86.3994 24.9487 86.8427 24.832 87.3561 24.832C88.0841 24.832 88.6534 25.0513 89.0641 25.49C89.4747 25.9193 89.6801 26.554 89.6801 27.394V32H87.6361V27.772C87.6361 27.352 87.5381 27.0347 87.3421 26.82C87.1461 26.596 86.8707 26.484 86.5161 26.484C86.1427 26.484 85.8301 26.6333 85.5781 26.932C85.3354 27.2213 85.2141 27.66 85.2141 28.248V32H83.1701V24.902H85.2141Z" fill="white"/>
<path d="M180 14C180 6.26801 186.268 -5.47967e-07 194 -1.22392e-06C201.732 -1.89987e-06 208 6.26801 208 14C208 21.732 201.732 28 194 28C186.268 28 180 21.732 180 14Z" fill="#FF1934"/>
<g clip-path="url(#clip1_1124_4113)">
<path d="M198.21 9.40998C197.88 9.10998 197.38 9.12998 197.08 9.45998L194 12.82L190.92 9.45998C190.62 9.12998 190.11 9.10998 189.79 9.40998C189.46 9.70998 189.44 10.21 189.74 10.54L192.91 14L189.74 17.46C189.44 17.79 189.46 18.29 189.79 18.59C189.94 18.73 190.14 18.8 190.33 18.8C190.55 18.8 190.76 18.71 190.92 18.54L194 15.18L197.08 18.54C197.24 18.71 197.45 18.8 197.67 18.8C197.86 18.8 198.06 18.73 198.21 18.59C198.54 18.29 198.56 17.79 198.26 17.46L195.09 14L198.26 10.54C198.56 10.21 198.54 9.70998 198.21 9.40998Z" fill="white"/>
<path d="M194 4C188.49 4 184 8.49 184 14C184 19.51 188.49 24 194 24C199.51 24 204 19.51 204 14C204 8.49 199.51 4 194 4ZM194 22.4C189.37 22.4 185.6 18.63 185.6 14C185.6 9.37 189.37 5.6 194 5.6C198.63 5.6 202.4 9.37 202.4 14C202.4 18.63 198.63 22.4 194 22.4Z" fill="white"/>
</g>
</g>
<mask id="path-8-inside-1_1124_4113" fill="white">
<path d="M0 60H208V244H0V60Z"/>
</mask>
<path d="M208 243H0V245H208V243Z" fill="#F1F1F1" mask="url(#path-8-inside-1_1124_4113)"/>
<path d="M16 64C16 61.7909 17.7909 60 20 60H188C190.209 60 192 61.7909 192 64V78H16V64Z" fill="#FF1934"/>
<path d="M28.56 71V65.608H29.704L31 67.856C31.2133 68.224 31.4027 68.568 31.568 68.888C31.7387 69.2027 31.8533 69.4267 31.912 69.56L32 69.76C31.9573 69.3173 31.936 68.6827 31.936 67.856V65.608H32.952V71H31.8L30.488 68.76C30.28 68.408 30.0907 68.072 29.92 67.752C29.7547 67.4267 29.64 67.192 29.576 67.048L29.48 66.824C29.5387 67.3307 29.568 67.9733 29.568 68.752V71H28.56ZM36.0998 69.256H35.6038C35.3531 69.256 35.1611 69.3093 35.0278 69.416C34.8945 69.5173 34.8278 69.648 34.8278 69.808C34.8278 70.1493 35.0251 70.32 35.4198 70.32C35.6331 70.32 35.7985 70.2587 35.9158 70.136C36.0385 70.008 36.0998 69.8427 36.0998 69.64V69.256ZM34.1318 68.04V67.152C34.4358 66.9653 34.8731 66.872 35.4438 66.872C36.5425 66.872 37.0918 67.384 37.0918 68.408V71H36.1398V70.512C35.9531 70.8587 35.6011 71.032 35.0838 71.032C34.6998 71.032 34.3931 70.92 34.1638 70.696C33.9398 70.472 33.8278 70.1893 33.8278 69.848C33.8278 69.464 33.9718 69.1627 34.2598 68.944C34.5478 68.7253 34.9638 68.616 35.5078 68.616H36.0998V68.368C36.0998 68.144 36.0411 67.9733 35.9238 67.856C35.8065 67.7387 35.6065 67.68 35.3238 67.68C34.8918 67.68 34.4945 67.8 34.1318 68.04ZM39.0425 66.944V67.584C39.2718 67.1253 39.6532 66.896 40.1865 66.896C40.7785 66.896 41.1625 67.152 41.3385 67.664C41.4452 67.4187 41.6052 67.2293 41.8185 67.096C42.0318 66.9627 42.2745 66.896 42.5465 66.896C42.9572 66.896 43.2745 67.0213 43.4985 67.272C43.7225 67.5173 43.8345 67.8693 43.8345 68.328V71H42.8665V68.512C42.8665 67.968 42.6585 67.696 42.2425 67.696C42.0345 67.696 41.8478 67.7867 41.6825 67.968C41.5225 68.1493 41.4425 68.4347 41.4425 68.824V71H40.4745V68.512C40.4745 67.968 40.2665 67.696 39.8505 67.696C39.6425 67.696 39.4558 67.7867 39.2905 67.968C39.1252 68.1493 39.0425 68.4347 39.0425 68.824V71H38.0825V66.944H39.0425ZM46.8967 69.256H46.4007C46.15 69.256 45.958 69.3093 45.8247 69.416C45.6914 69.5173 45.6247 69.648 45.6247 69.808C45.6247 70.1493 45.822 70.32 46.2167 70.32C46.43 70.32 46.5954 70.2587 46.7127 70.136C46.8354 70.008 46.8967 69.8427 46.8967 69.64V69.256ZM44.9287 68.04V67.152C45.2327 66.9653 45.67 66.872 46.2407 66.872C47.3394 66.872 47.8887 67.384 47.8887 68.408V71H46.9367V70.512C46.75 70.8587 46.398 71.032 45.8807 71.032C45.4967 71.032 45.19 70.92 44.9607 70.696C44.7367 70.472 44.6247 70.1893 44.6247 69.848C44.6247 69.464 44.7687 69.1627 45.0567 68.944C45.3447 68.7253 45.7607 68.616 46.3047 68.616H46.8967V68.368C46.8967 68.144 46.838 67.9733 46.7207 67.856C46.6034 67.7387 46.4034 67.68 46.1207 67.68C45.6887 67.68 45.2914 67.8 44.9287 68.04Z" fill="white"/>
<path d="M147.56 65.832V66.808C147.16 66.568 146.733 66.448 146.28 66.448C146.029 66.448 145.832 66.504 145.688 66.616C145.549 66.728 145.48 66.872 145.48 67.048C145.48 67.224 145.555 67.3707 145.704 67.488C145.859 67.6 146.088 67.7253 146.392 67.864C146.605 67.96 146.779 68.0453 146.912 68.12C147.045 68.1893 147.189 68.288 147.344 68.416C147.504 68.544 147.621 68.6987 147.696 68.88C147.776 69.056 147.816 69.2587 147.816 69.488C147.816 69.968 147.643 70.352 147.296 70.64C146.955 70.9227 146.504 71.064 145.944 71.064C145.336 71.064 144.832 70.9493 144.432 70.72V69.688C144.891 70.0187 145.392 70.184 145.936 70.184C146.181 70.184 146.379 70.1253 146.528 70.008C146.677 69.8853 146.752 69.7227 146.752 69.52C146.752 69.424 146.733 69.3387 146.696 69.264C146.659 69.1893 146.581 69.1147 146.464 69.04C146.352 68.9653 146.264 68.912 146.2 68.88C146.141 68.848 146.016 68.7893 145.824 68.704C145.771 68.6773 145.731 68.6587 145.704 68.648C145.507 68.5573 145.347 68.4773 145.224 68.408C145.101 68.3333 144.968 68.2347 144.824 68.112C144.68 67.9893 144.571 67.8427 144.496 67.672C144.427 67.5013 144.392 67.3067 144.392 67.088C144.392 66.6293 144.56 66.2613 144.896 65.984C145.237 65.7067 145.688 65.568 146.248 65.568C146.755 65.568 147.192 65.656 147.56 65.832ZM149.829 67.664V69.728C149.829 69.8987 149.874 70.0293 149.965 70.12C150.055 70.2053 150.181 70.248 150.341 70.248C150.543 70.248 150.73 70.192 150.901 70.08V70.904C150.714 70.9947 150.474 71.04 150.181 71.04C149.306 71.04 148.869 70.5973 148.869 69.712V67.664H148.261V66.944H148.869V65.968H149.829V66.944H150.837V67.664H149.829ZM153.764 69.256H153.268C153.017 69.256 152.825 69.3093 152.692 69.416C152.559 69.5173 152.492 69.648 152.492 69.808C152.492 70.1493 152.689 70.32 153.084 70.32C153.297 70.32 153.463 70.2587 153.58 70.136C153.703 70.008 153.764 69.8427 153.764 69.64V69.256ZM151.796 68.04V67.152C152.1 66.9653 152.537 66.872 153.108 66.872C154.207 66.872 154.756 67.384 154.756 68.408V71H153.804V70.512C153.617 70.8587 153.265 71.032 152.748 71.032C152.364 71.032 152.057 70.92 151.828 70.696C151.604 70.472 151.492 70.1893 151.492 69.848C151.492 69.464 151.636 69.1627 151.924 68.944C152.212 68.7253 152.628 68.616 153.172 68.616H153.764V68.368C153.764 68.144 153.705 67.9733 153.588 67.856C153.471 67.7387 153.271 67.68 152.988 67.68C152.556 67.68 152.159 67.8 151.796 68.04ZM156.915 67.664V69.728C156.915 69.8987 156.96 70.0293 157.051 70.12C157.141 70.2053 157.267 70.248 157.427 70.248C157.629 70.248 157.816 70.192 157.987 70.08V70.904C157.8 70.9947 157.56 71.04 157.267 71.04C156.392 71.04 155.955 70.5973 155.955 69.712V67.664H155.347V66.944H155.955V65.968H156.915V66.944H157.923V67.664H156.915ZM161.29 66.944H162.258V71H161.29V70.336C161.076 70.8053 160.66 71.04 160.042 71.04C159.631 71.04 159.311 70.9227 159.082 70.688C158.852 70.4533 158.738 70.12 158.738 69.688V66.944H159.698V69.464C159.698 69.72 159.759 69.9147 159.882 70.048C160.01 70.1813 160.183 70.248 160.402 70.248C160.679 70.248 160.895 70.1547 161.05 69.968C161.21 69.7813 161.29 69.4987 161.29 69.12V66.944ZM165.725 67.072V67.92C165.459 67.76 165.125 67.68 164.725 67.68C164.56 67.68 164.429 67.7173 164.333 67.792C164.243 67.8613 164.197 67.952 164.197 68.064C164.197 68.1067 164.203 68.1467 164.213 68.184C164.229 68.2213 164.253 68.2587 164.285 68.296C164.323 68.328 164.357 68.3573 164.389 68.384C164.421 68.4107 164.467 68.44 164.525 68.472C164.584 68.4987 164.635 68.5227 164.677 68.544C164.72 68.5653 164.779 68.592 164.853 68.624C164.928 68.656 164.987 68.6827 165.029 68.704C165.312 68.8427 165.536 68.9973 165.701 69.168C165.867 69.3387 165.949 69.56 165.949 69.832C165.949 70.2107 165.813 70.5067 165.541 70.72C165.269 70.9333 164.907 71.04 164.453 71.04C163.952 71.04 163.547 70.9573 163.237 70.792V69.912C163.595 70.152 163.981 70.272 164.397 70.272C164.573 70.272 164.709 70.24 164.805 70.176C164.907 70.1067 164.957 70.0133 164.957 69.896C164.957 69.8267 164.941 69.7653 164.909 69.712C164.877 69.6533 164.816 69.5973 164.725 69.544C164.635 69.4907 164.563 69.4533 164.509 69.432C164.461 69.4053 164.363 69.36 164.213 69.296C164.197 69.2907 164.184 69.2853 164.173 69.28C164.168 69.2747 164.157 69.2693 164.141 69.264C164.125 69.2587 164.112 69.2533 164.101 69.248C163.509 68.9813 163.213 68.5973 163.213 68.096C163.213 67.7227 163.355 67.4293 163.637 67.216C163.92 67.0027 164.275 66.896 164.701 66.896C165.112 66.896 165.453 66.9547 165.725 67.072Z" fill="white"/>
<g clip-path="url(#clip2_1124_4113)">
<mask id="path-13-inside-2_1124_4113" fill="white">
<path d="M16 80H192V244H16V80Z"/>
</mask>
<mask id="path-15-inside-3_1124_4113" fill="white">
<path d="M16 80H192V104H16V80Z"/>
</mask>
<path d="M192 103H16V105H192V103Z" fill="#CCCCCC" mask="url(#path-15-inside-3_1124_4113)"/>
<g clip-path="url(#clip3_1124_4113)">
<path d="M41.5266 96.48C40.8 95.5267 39.84 94.7733 38.7466 94.3C38.5533 94.22 38.4866 94.0467 38.4666 93.96C38.4266 93.7867 38.4666 93.6 38.5866 93.46C39.3066 92.5933 39.74 91.4533 39.74 90.4067C39.74 88.3467 38.0666 86.6733 36.0066 86.6733C33.9466 86.6733 32.2733 88.3467 32.2733 90.4067C32.2733 91.4533 32.7066 92.5933 33.4266 93.46C33.54 93.6 33.5866 93.7867 33.5466 93.96C33.5266 94.0533 33.46 94.22 33.2666 94.3C32.1733 94.7733 31.2066 95.5267 30.48 96.48C30.3 96.7133 30.3466 97.0467 30.58 97.2267C30.68 97.3 30.7933 97.3333 30.9 97.3333C31.06 97.3333 31.22 97.26 31.3266 97.12C31.94 96.3133 32.7533 95.6733 33.6866 95.2733C34.14 95.08 34.4666 94.6867 34.58 94.2C34.7 93.7 34.58 93.1667 34.2466 92.7667C33.6866 92.0933 33.34 91.1867 33.34 90.3933C33.34 88.92 34.5333 87.7267 36.0066 87.7267C37.48 87.7267 38.6733 88.92 38.6733 90.3933C38.6733 91.1867 38.3266 92.0933 37.7666 92.7667C37.2466 93.3867 36.6266 93.7267 36.0066 93.7267C35.7133 93.7267 35.4733 93.9667 35.4733 94.26C35.4733 94.5533 35.7133 94.7933 36.0066 94.7933C36.52 94.7933 37.0266 94.6467 37.4933 94.3733C37.64 94.7733 37.9266 95.1 38.3266 95.2667C39.2533 95.6667 40.0666 96.3067 40.6866 97.1133C40.7933 97.2533 40.9533 97.3267 41.1133 97.3267C41.2266 97.3267 41.34 97.2933 41.4333 97.22C41.6666 97.04 41.7133 96.7067 41.5333 96.4733L41.5266 96.48Z" fill="#2B2B2B"/>
</g>
<path d="M51.264 93.448H52.488C52.8293 93.448 53.0907 93.3707 53.272 93.216C53.4587 93.056 53.552 92.824 53.552 92.52C53.552 92.216 53.448 91.9787 53.24 91.808C53.0373 91.6373 52.7467 91.552 52.368 91.552H51.264V93.448ZM51.264 89.16V91H52.128C52.56 91 52.88 90.9093 53.088 90.728C53.296 90.5467 53.4 90.312 53.4 90.024C53.4 89.7733 53.3013 89.568 53.104 89.408C52.912 89.2427 52.624 89.16 52.24 89.16H51.264ZM50.616 88.608H52.24C52.7947 88.608 53.2373 88.736 53.568 88.992C53.904 89.248 54.072 89.592 54.072 90.024C54.072 90.3333 53.984 90.6027 53.808 90.832C53.6373 91.056 53.416 91.1973 53.144 91.256C53.4427 91.304 53.696 91.44 53.904 91.664C54.1173 91.8827 54.224 92.1813 54.224 92.56C54.224 92.992 54.08 93.3413 53.792 93.608C53.5093 93.8693 53.1067 94 52.584 94H50.616V88.608ZM57.7383 91.712V91.552C57.7383 91.216 57.6476 90.9493 57.4663 90.752C57.285 90.5493 57.0343 90.448 56.7143 90.448C56.4103 90.448 56.1516 90.5573 55.9383 90.776C55.725 90.9947 55.5996 91.3067 55.5623 91.712H57.7383ZM58.1143 93.2V93.792C57.7996 93.9573 57.4156 94.04 56.9623 94.04C56.349 94.04 55.853 93.8533 55.4743 93.48C55.101 93.1013 54.9143 92.6027 54.9143 91.984C54.9143 91.3387 55.0823 90.8293 55.4183 90.456C55.7543 90.0827 56.1863 89.896 56.7143 89.896C57.221 89.896 57.6236 90.0587 57.9223 90.384C58.221 90.7093 58.3703 91.1707 58.3703 91.768C58.3703 91.9387 58.357 92.096 58.3303 92.24H55.5623C55.6103 92.64 55.7623 92.9467 56.0183 93.16C56.2743 93.3733 56.6103 93.48 57.0263 93.48C57.4796 93.48 57.8423 93.3867 58.1143 93.2ZM59.958 89.944V90.648C60.198 90.1413 60.6247 89.888 61.238 89.888C61.6327 89.888 61.9473 90.008 62.182 90.248C62.4167 90.488 62.534 90.808 62.534 91.208V94H61.902V91.376C61.902 91.0773 61.8247 90.8507 61.67 90.696C61.5207 90.536 61.3233 90.456 61.078 90.456C60.774 90.456 60.51 90.5733 60.286 90.808C60.0673 91.0427 59.958 91.368 59.958 91.784V94H59.334V89.944H59.958ZM62.7023 95.44V94.88C62.905 94.9653 63.0863 95.008 63.2463 95.008C63.545 95.008 63.6943 94.8133 63.6943 94.424V89.944H64.3183V94.44C64.3183 94.792 64.225 95.0667 64.0383 95.264C63.857 95.4613 63.6036 95.56 63.2783 95.56C63.1023 95.56 62.9103 95.52 62.7023 95.44ZM63.7023 88.968C63.6276 88.888 63.5903 88.7893 63.5903 88.672C63.5903 88.5547 63.6276 88.456 63.7023 88.376C63.7823 88.296 63.881 88.256 63.9983 88.256C64.1156 88.256 64.2143 88.296 64.2943 88.376C64.3743 88.456 64.4143 88.5547 64.4143 88.672C64.4143 88.7893 64.3743 88.888 64.2943 88.968C64.2143 89.0427 64.1156 89.08 63.9983 89.08C63.881 89.08 63.7823 89.0427 63.7023 88.968ZM67.6586 92.128H66.9546C66.6133 92.128 66.3573 92.1947 66.1866 92.328C66.016 92.4613 65.9306 92.6293 65.9306 92.832C65.9306 93.0347 65.9973 93.2 66.1306 93.328C66.264 93.4507 66.4586 93.512 66.7146 93.512C67.0026 93.512 67.232 93.432 67.4026 93.272C67.5733 93.1067 67.6586 92.8987 67.6586 92.648V92.128ZM65.5626 90.792V90.16C65.8666 89.9733 66.2666 89.88 66.7626 89.88C67.7813 89.88 68.2906 90.3973 68.2906 91.432V94H67.6666V93.52C67.4586 93.8667 67.08 94.04 66.5306 94.04C66.152 94.04 65.8453 93.928 65.6106 93.704C65.3813 93.48 65.2666 93.1973 65.2666 92.856C65.2666 92.4667 65.4133 92.1653 65.7066 91.952C66.0053 91.7333 66.4106 91.624 66.9226 91.624H67.6586V91.416C67.6586 91.096 67.5866 90.856 67.4426 90.696C67.2986 90.5307 67.056 90.448 66.7146 90.448C66.2826 90.448 65.8986 90.5627 65.5626 90.792ZM70.0361 89.944V90.6C70.2601 90.1253 70.6415 89.888 71.1801 89.888C71.8041 89.888 72.1988 90.152 72.3641 90.68C72.4815 90.424 72.6441 90.2293 72.8521 90.096C73.0655 89.9573 73.3028 89.888 73.5641 89.888C73.9855 89.888 74.3028 90.008 74.5161 90.248C74.7295 90.488 74.8361 90.8107 74.8361 91.216V94H74.2041V91.376C74.2041 90.7627 73.9455 90.456 73.4281 90.456C73.1721 90.456 72.9428 90.5733 72.7401 90.808C72.5375 91.0373 72.4361 91.3627 72.4361 91.784V94H71.8041V91.376C71.8041 90.7627 71.5455 90.456 71.0281 90.456C70.7721 90.456 70.5428 90.5733 70.3401 90.808C70.1375 91.0373 70.0361 91.3627 70.0361 91.784V94H69.4121V89.944H70.0361ZM75.991 94V89.944H76.623V94H75.991ZM76.007 88.968C75.9323 88.888 75.895 88.7893 75.895 88.672C75.895 88.5547 75.9323 88.456 76.007 88.376C76.087 88.296 76.1857 88.256 76.303 88.256C76.4203 88.256 76.519 88.296 76.599 88.376C76.679 88.456 76.719 88.5547 76.719 88.672C76.719 88.7893 76.679 88.888 76.599 88.968C76.519 89.0427 76.4203 89.08 76.303 89.08C76.1857 89.08 76.087 89.0427 76.007 88.968ZM78.4502 89.944V90.648C78.6902 90.1413 79.1169 89.888 79.7302 89.888C80.1249 89.888 80.4395 90.008 80.6742 90.248C80.9089 90.488 81.0262 90.808 81.0262 91.208V94H80.3942V91.376C80.3942 91.0773 80.3169 90.8507 80.1622 90.696C80.0129 90.536 79.8155 90.456 79.5702 90.456C79.2662 90.456 79.0022 90.5733 78.7782 90.808C78.5595 91.0427 78.4502 91.368 78.4502 91.784V94H77.8262V89.944H78.4502ZM87.3956 88.608H88.0436V94H87.3956V91.56H84.7796V94H84.1316V88.608H84.7796V90.976H87.3956V88.608ZM91.4243 92.128H90.7203C90.3789 92.128 90.1229 92.1947 89.9523 92.328C89.7816 92.4613 89.6963 92.6293 89.6963 92.832C89.6963 93.0347 89.7629 93.2 89.8963 93.328C90.0296 93.4507 90.2243 93.512 90.4803 93.512C90.7683 93.512 90.9976 93.432 91.1683 93.272C91.3389 93.1067 91.4243 92.8987 91.4243 92.648V92.128ZM89.3283 90.792V90.16C89.6323 89.9733 90.0323 89.88 90.5283 89.88C91.5469 89.88 92.0563 90.3973 92.0563 91.432V94H91.4323V93.52C91.2243 93.8667 90.8456 94.04 90.2963 94.04C89.9176 94.04 89.6109 93.928 89.3763 93.704C89.1469 93.48 89.0323 93.1973 89.0323 92.856C89.0323 92.4667 89.1789 92.1653 89.4723 91.952C89.7709 91.7333 90.1763 91.624 90.6883 91.624H91.4243V91.416C91.4243 91.096 91.3523 90.856 91.2083 90.696C91.0643 90.5307 90.8216 90.448 90.4803 90.448C90.0483 90.448 89.6643 90.5627 89.3283 90.792ZM94.2978 93.896L92.6578 89.944H93.3698L93.8978 91.28L94.6098 93.12C94.6524 92.9813 94.8658 92.368 95.2498 91.28L95.7218 89.944H96.4018L94.9378 93.896C94.7298 94.4453 94.4818 94.832 94.1938 95.056C93.9111 95.28 93.5858 95.392 93.2178 95.392C93.0791 95.392 92.9671 95.3787 92.8818 95.352V94.784C92.9618 94.8053 93.0524 94.816 93.1538 94.816C93.6924 94.816 94.0738 94.5093 94.2978 93.896ZM99.7071 91.712V91.552C99.7071 91.216 99.6164 90.9493 99.4351 90.752C99.2537 90.5493 99.0031 90.448 98.6831 90.448C98.3791 90.448 98.1204 90.5573 97.9071 90.776C97.6937 90.9947 97.5684 91.3067 97.5311 91.712H99.7071ZM100.083 93.2V93.792C99.7684 93.9573 99.3844 94.04 98.9311 94.04C98.3177 94.04 97.8217 93.8533 97.4431 93.48C97.0697 93.1013 96.8831 92.6027 96.8831 91.984C96.8831 91.3387 97.0511 90.8293 97.3871 90.456C97.7231 90.0827 98.1551 89.896 98.6831 89.896C99.1897 89.896 99.5924 90.0587 99.8911 90.384C100.19 90.7093 100.339 91.1707 100.339 91.768C100.339 91.9387 100.326 92.096 100.299 92.24H97.5311C97.5791 92.64 97.7311 92.9467 97.9871 93.16C98.2431 93.3733 98.5791 93.48 98.9951 93.48C99.4484 93.48 99.8111 93.3867 100.083 93.2ZM103.511 90.08V90.68C103.265 90.5307 102.929 90.456 102.503 90.456C102.289 90.456 102.119 90.5067 101.991 90.608C101.868 90.704 101.807 90.8293 101.807 90.984C101.807 91.08 101.825 91.1653 101.863 91.24C101.9 91.3093 101.972 91.3787 102.079 91.448C102.191 91.5173 102.271 91.5653 102.319 91.592C102.372 91.6133 102.484 91.6613 102.655 91.736C102.996 91.8747 103.263 92.032 103.455 92.208C103.647 92.384 103.743 92.6213 103.743 92.92C103.743 93.2667 103.62 93.5413 103.375 93.744C103.135 93.9467 102.804 94.048 102.383 94.048C101.892 94.048 101.495 93.9653 101.191 93.8V93.184C101.548 93.3973 101.932 93.504 102.343 93.504C102.588 93.504 102.775 93.456 102.903 93.36C103.031 93.264 103.095 93.1333 103.095 92.968C103.095 92.776 103.023 92.6267 102.879 92.52C102.74 92.4133 102.505 92.2933 102.175 92.16C101.871 92.0427 101.625 91.896 101.439 91.72C101.257 91.544 101.167 91.3067 101.167 91.008C101.167 90.672 101.292 90.4053 101.543 90.208C101.799 90.0053 102.116 89.904 102.495 89.904C102.916 89.904 103.255 89.9627 103.511 90.08Z" fill="#2B2B2B"/>
<path d="M145.306 91.28C145.306 90.432 145.522 89.7573 145.954 89.256C146.391 88.7547 146.981 88.504 147.722 88.504C148.479 88.504 149.071 88.7547 149.498 89.256C149.93 89.752 150.146 90.4267 150.146 91.28C150.146 92.128 149.927 92.8053 149.49 93.312C149.058 93.8133 148.471 94.064 147.73 94.064C146.999 94.064 146.413 93.8107 145.97 93.304C145.527 92.7973 145.306 92.1227 145.306 91.28ZM145.986 91.28C145.986 91.9467 146.143 92.4747 146.458 92.864C146.778 93.2533 147.202 93.448 147.73 93.448C148.279 93.448 148.703 93.256 149.002 92.872C149.306 92.488 149.458 91.9573 149.458 91.28C149.458 90.6027 149.306 90.072 149.002 89.688C148.698 89.304 148.271 89.112 147.722 89.112C147.178 89.112 146.751 89.3067 146.442 89.696C146.138 90.08 145.986 90.608 145.986 91.28ZM151.731 89.944V90.648C151.971 90.1413 152.398 89.888 153.011 89.888C153.406 89.888 153.721 90.008 153.955 90.248C154.19 90.488 154.307 90.808 154.307 91.208V94H153.675V91.376C153.675 91.0773 153.598 90.8507 153.443 90.696C153.294 90.536 153.097 90.456 152.851 90.456C152.547 90.456 152.283 90.5733 152.059 90.808C151.841 91.0427 151.731 91.368 151.731 91.784V94H151.107V89.944H151.731ZM155.46 94V88.344H156.092V94H155.46ZM157.327 94V89.944H157.959V94H157.327ZM157.343 88.968C157.268 88.888 157.231 88.7893 157.231 88.672C157.231 88.5547 157.268 88.456 157.343 88.376C157.423 88.296 157.522 88.256 157.639 88.256C157.756 88.256 157.855 88.296 157.935 88.376C158.015 88.456 158.055 88.5547 158.055 88.672C158.055 88.7893 158.015 88.888 157.935 88.968C157.855 89.0427 157.756 89.08 157.639 89.08C157.522 89.08 157.423 89.0427 157.343 88.968ZM159.786 89.944V90.648C160.026 90.1413 160.453 89.888 161.066 89.888C161.461 89.888 161.775 90.008 162.01 90.248C162.245 90.488 162.362 90.808 162.362 91.208V94H161.73V91.376C161.73 91.0773 161.653 90.8507 161.498 90.696C161.349 90.536 161.151 90.456 160.906 90.456C160.602 90.456 160.338 90.5733 160.114 90.808C159.895 91.0427 159.786 91.368 159.786 91.784V94H159.162V89.944H159.786ZM166.066 91.712V91.552C166.066 91.216 165.976 90.9493 165.794 90.752C165.613 90.5493 165.362 90.448 165.042 90.448C164.738 90.448 164.48 90.5573 164.266 90.776C164.053 90.9947 163.928 91.3067 163.89 91.712H166.066ZM166.442 93.2V93.792C166.128 93.9573 165.744 94.04 165.29 94.04C164.677 94.04 164.181 93.8533 163.802 93.48C163.429 93.1013 163.242 92.6027 163.242 91.984C163.242 91.3387 163.41 90.8293 163.746 90.456C164.082 90.0827 164.514 89.896 165.042 89.896C165.549 89.896 165.952 90.0587 166.25 90.384C166.549 90.7093 166.698 91.1707 166.698 91.768C166.698 91.9387 166.685 92.096 166.658 92.24H163.89C163.938 92.64 164.09 92.9467 164.346 93.16C164.602 93.3733 164.938 93.48 165.354 93.48C165.808 93.48 166.17 93.3867 166.442 93.2Z" fill="#2B2B2B"/>
<circle cx="177" cy="92" r="3" fill="#008C1E"/>
<mask id="path-21-inside-4_1124_4113" fill="white">
<path d="M16 106H192V130H16V106Z"/>
</mask>
<path d="M192 129H16V131H192V129Z" fill="#CCCCCC" mask="url(#path-21-inside-4_1124_4113)"/>
<g clip-path="url(#clip4_1124_4113)">
<path d="M41.5266 122.48C40.8 121.527 39.84 120.773 38.7466 120.3C38.5533 120.22 38.4866 120.047 38.4666 119.96C38.4266 119.787 38.4666 119.6 38.5866 119.46C39.3066 118.593 39.74 117.453 39.74 116.407C39.74 114.347 38.0666 112.673 36.0066 112.673C33.9466 112.673 32.2733 114.347 32.2733 116.407C32.2733 117.453 32.7066 118.593 33.4266 119.46C33.54 119.6 33.5866 119.787 33.5466 119.96C33.5266 120.053 33.46 120.22 33.2666 120.3C32.1733 120.773 31.2066 121.527 30.48 122.48C30.3 122.713 30.3466 123.047 30.58 123.227C30.68 123.3 30.7933 123.333 30.9 123.333C31.06 123.333 31.22 123.26 31.3266 123.12C31.94 122.313 32.7533 121.673 33.6866 121.273C34.14 121.08 34.4666 120.687 34.58 120.2C34.7 119.7 34.58 119.167 34.2466 118.767C33.6866 118.093 33.34 117.187 33.34 116.393C33.34 114.92 34.5333 113.727 36.0066 113.727C37.48 113.727 38.6733 114.92 38.6733 116.393C38.6733 117.187 38.3266 118.093 37.7666 118.767C37.2466 119.387 36.6266 119.727 36.0066 119.727C35.7133 119.727 35.4733 119.967 35.4733 120.26C35.4733 120.553 35.7133 120.793 36.0066 120.793C36.52 120.793 37.0266 120.647 37.4933 120.373C37.64 120.773 37.9266 121.1 38.3266 121.267C39.2533 121.667 40.0666 122.307 40.6866 123.113C40.7933 123.253 40.9533 123.327 41.1133 123.327C41.2266 123.327 41.34 123.293 41.4333 123.22C41.6666 123.04 41.7133 122.707 41.5333 122.473L41.5266 122.48Z" fill="#2B2B2B"/>
</g>
<path d="M51.264 119.432H53.624V120H50.616V114.608H53.584V115.176H51.264V117.024H53.312V117.592H51.264V119.432ZM55.4638 116.456V118.832C55.4638 119.264 55.6665 119.48 56.0718 119.48C56.2798 119.48 56.4638 119.419 56.6238 119.296V119.896C56.4478 119.992 56.2505 120.04 56.0318 120.04C55.2318 120.04 54.8318 119.632 54.8318 118.816V116.456H54.1838V115.944H54.8318V114.936H55.4638V115.944H56.5838V116.456H55.4638ZM58.1689 114.344V116.648C58.4089 116.141 58.8356 115.888 59.4489 115.888C59.8383 115.888 60.1503 116.008 60.3849 116.248C60.6249 116.488 60.7449 116.813 60.7449 117.224V120H60.1129V117.376C60.1129 117.083 60.0356 116.856 59.8809 116.696C59.7316 116.536 59.5343 116.456 59.2889 116.456C58.9903 116.456 58.7289 116.571 58.5049 116.8C58.2809 117.029 58.1689 117.357 58.1689 117.784V120H57.5449V114.344H58.1689ZM64.0493 118.128H63.3453C63.0039 118.128 62.7479 118.195 62.5773 118.328C62.4066 118.461 62.3213 118.629 62.3213 118.832C62.3213 119.035 62.3879 119.2 62.5213 119.328C62.6546 119.451 62.8493 119.512 63.1053 119.512C63.3933 119.512 63.6226 119.432 63.7933 119.272C63.9639 119.107 64.0493 118.899 64.0493 118.648V118.128ZM61.9533 116.792V116.16C62.2573 115.973 62.6573 115.88 63.1533 115.88C64.1719 115.88 64.6813 116.397 64.6813 117.432V120H64.0573V119.52C63.8493 119.867 63.4706 120.04 62.9213 120.04C62.5426 120.04 62.2359 119.928 62.0013 119.704C61.7719 119.48 61.6573 119.197 61.6573 118.856C61.6573 118.467 61.8039 118.165 62.0973 117.952C62.3959 117.733 62.8013 117.624 63.3133 117.624H64.0493V117.416C64.0493 117.096 63.9773 116.856 63.8333 116.696C63.6893 116.531 63.4466 116.448 63.1053 116.448C62.6733 116.448 62.2893 116.563 61.9533 116.792ZM66.4268 115.944V116.648C66.6668 116.141 67.0934 115.888 67.7068 115.888C68.1014 115.888 68.4161 116.008 68.6508 116.248C68.8854 116.488 69.0028 116.808 69.0028 117.208V120H68.3708V117.376C68.3708 117.077 68.2934 116.851 68.1388 116.696C67.9894 116.536 67.7921 116.456 67.5468 116.456C67.2428 116.456 66.9788 116.573 66.7548 116.808C66.5361 117.043 66.4268 117.368 66.4268 117.784V120H65.8028V115.944H66.4268ZM74.9322 114.808V115.488C74.6069 115.275 74.2175 115.168 73.7642 115.168C73.4389 115.168 73.1802 115.245 72.9882 115.4C72.7962 115.549 72.7002 115.747 72.7002 115.992C72.7002 116.12 72.7242 116.235 72.7722 116.336C72.8255 116.437 72.9162 116.533 73.0442 116.624C73.1722 116.709 73.2815 116.776 73.3722 116.824C73.4629 116.867 73.6042 116.931 73.7962 117.016C73.9775 117.096 74.1162 117.16 74.2122 117.208C74.3082 117.251 74.4309 117.323 74.5802 117.424C74.7349 117.52 74.8495 117.616 74.9242 117.712C75.0042 117.803 75.0735 117.925 75.1322 118.08C75.1962 118.229 75.2282 118.392 75.2282 118.568C75.2282 119.043 75.0655 119.411 74.7402 119.672C74.4149 119.928 73.9962 120.056 73.4842 120.056C72.9189 120.056 72.4389 119.941 72.0442 119.712V119.016C72.4335 119.309 72.9082 119.456 73.4682 119.456C73.8042 119.456 74.0682 119.381 74.2602 119.232C74.4522 119.083 74.5482 118.867 74.5482 118.584C74.5482 118.467 74.5242 118.363 74.4762 118.272C74.4335 118.176 74.3589 118.091 74.2522 118.016C74.1509 117.936 74.0522 117.872 73.9562 117.824C73.8655 117.771 73.7402 117.707 73.5802 117.632C73.5482 117.616 73.5002 117.595 73.4362 117.568C73.2069 117.467 73.0309 117.384 72.9082 117.32C72.7909 117.256 72.6495 117.163 72.4842 117.04C72.3242 116.912 72.2069 116.765 72.1322 116.6C72.0575 116.435 72.0202 116.243 72.0202 116.024C72.0202 115.565 72.1829 115.208 72.5082 114.952C72.8389 114.691 73.2522 114.56 73.7482 114.56C74.2122 114.56 74.6069 114.643 74.9322 114.808ZM78.7915 115.944H79.4235V120H78.7915V119.296C78.5782 119.797 78.1542 120.048 77.5195 120.048C77.1195 120.048 76.8022 119.931 76.5675 119.696C76.3382 119.456 76.2235 119.136 76.2235 118.736V115.944H76.8555V118.576C76.8555 118.869 76.9302 119.093 77.0795 119.248C77.2288 119.403 77.4315 119.48 77.6875 119.48C78.0235 119.48 78.2902 119.363 78.4875 119.128C78.6902 118.893 78.7915 118.576 78.7915 118.176V115.944ZM80.6238 120V114.344H81.2558V120H80.6238ZM82.491 120V114.344H83.123V120H82.491ZM84.3582 120V115.944H84.9902V120H84.3582ZM84.3742 114.968C84.2995 114.888 84.2622 114.789 84.2622 114.672C84.2622 114.555 84.2995 114.456 84.3742 114.376C84.4542 114.296 84.5529 114.256 84.6702 114.256C84.7875 114.256 84.8862 114.296 84.9662 114.376C85.0462 114.456 85.0862 114.555 85.0862 114.672C85.0862 114.789 85.0462 114.888 84.9662 114.968C84.8862 115.043 84.7875 115.08 84.6702 115.08C84.5529 115.08 84.4542 115.043 84.3742 114.968ZM87.2254 120L85.8094 115.944H86.4654L87.0254 117.656L87.6174 119.504C87.6654 119.275 87.8654 118.659 88.2174 117.656L88.7934 115.944H89.4494L88.0014 120H87.2254ZM92.4164 118.128H91.7124C91.3711 118.128 91.1151 118.195 90.9444 118.328C90.7738 118.461 90.6884 118.629 90.6884 118.832C90.6884 119.035 90.7551 119.2 90.8884 119.328C91.0218 119.451 91.2164 119.512 91.4724 119.512C91.7604 119.512 91.9898 119.432 92.1604 119.272C92.3311 119.107 92.4164 118.899 92.4164 118.648V118.128ZM90.3204 116.792V116.16C90.6244 115.973 91.0244 115.88 91.5204 115.88C92.5391 115.88 93.0484 116.397 93.0484 117.432V120H92.4244V119.52C92.2164 119.867 91.8378 120.04 91.2884 120.04C90.9098 120.04 90.6031 119.928 90.3684 119.704C90.1391 119.48 90.0244 119.197 90.0244 118.856C90.0244 118.467 90.1711 118.165 90.4644 117.952C90.7631 117.733 91.1684 117.624 91.6804 117.624H92.4164V117.416C92.4164 117.096 92.3444 116.856 92.2004 116.696C92.0564 116.531 91.8138 116.448 91.4724 116.448C91.0404 116.448 90.6564 116.563 90.3204 116.792ZM94.7939 115.944V116.648C95.0339 116.141 95.4606 115.888 96.0739 115.888C96.4686 115.888 96.7833 116.008 97.0179 116.248C97.2526 116.488 97.3699 116.808 97.3699 117.208V120H96.7379V117.376C96.7379 117.077 96.6606 116.851 96.5059 116.696C96.3566 116.536 96.1593 116.456 95.9139 116.456C95.6099 116.456 95.3459 116.573 95.1219 116.808C94.9033 117.043 94.7939 117.368 94.7939 117.784V120H94.1699V115.944H94.7939Z" fill="#2B2B2B"/>
<path d="M145.306 117.28C145.306 116.432 145.522 115.757 145.954 115.256C146.391 114.755 146.981 114.504 147.722 114.504C148.479 114.504 149.071 114.755 149.498 115.256C149.93 115.752 150.146 116.427 150.146 117.28C150.146 118.128 149.927 118.805 149.49 119.312C149.058 119.813 148.471 120.064 147.73 120.064C146.999 120.064 146.413 119.811 145.97 119.304C145.527 118.797 145.306 118.123 145.306 117.28ZM145.986 117.28C145.986 117.947 146.143 118.475 146.458 118.864C146.778 119.253 147.202 119.448 147.73 119.448C148.279 119.448 148.703 119.256 149.002 118.872C149.306 118.488 149.458 117.957 149.458 117.28C149.458 116.603 149.306 116.072 149.002 115.688C148.698 115.304 148.271 115.112 147.722 115.112C147.178 115.112 146.751 115.307 146.442 115.696C146.138 116.08 145.986 116.608 145.986 117.28ZM151.731 115.944V116.648C151.971 116.141 152.398 115.888 153.011 115.888C153.406 115.888 153.721 116.008 153.955 116.248C154.19 116.488 154.307 116.808 154.307 117.208V120H153.675V117.376C153.675 117.077 153.598 116.851 153.443 116.696C153.294 116.536 153.097 116.456 152.851 116.456C152.547 116.456 152.283 116.573 152.059 116.808C151.841 117.043 151.731 117.368 151.731 117.784V120H151.107V115.944H151.731ZM155.46 120V114.344H156.092V120H155.46ZM157.327 120V115.944H157.959V120H157.327ZM157.343 114.968C157.268 114.888 157.231 114.789 157.231 114.672C157.231 114.555 157.268 114.456 157.343 114.376C157.423 114.296 157.522 114.256 157.639 114.256C157.756 114.256 157.855 114.296 157.935 114.376C158.015 114.456 158.055 114.555 158.055 114.672C158.055 114.789 158.015 114.888 157.935 114.968C157.855 115.043 157.756 115.08 157.639 115.08C157.522 115.08 157.423 115.043 157.343 114.968ZM159.786 115.944V116.648C160.026 116.141 160.453 115.888 161.066 115.888C161.461 115.888 161.775 116.008 162.01 116.248C162.245 116.488 162.362 116.808 162.362 117.208V120H161.73V117.376C161.73 117.077 161.653 116.851 161.498 116.696C161.349 116.536 161.151 116.456 160.906 116.456C160.602 116.456 160.338 116.573 160.114 116.808C159.895 117.043 159.786 117.368 159.786 117.784V120H159.162V115.944H159.786ZM166.066 117.712V117.552C166.066 117.216 165.976 116.949 165.794 116.752C165.613 116.549 165.362 116.448 165.042 116.448C164.738 116.448 164.48 116.557 164.266 116.776C164.053 116.995 163.928 117.307 163.89 117.712H166.066ZM166.442 119.2V119.792C166.128 119.957 165.744 120.04 165.29 120.04C164.677 120.04 164.181 119.853 163.802 119.48C163.429 119.101 163.242 118.603 163.242 117.984C163.242 117.339 163.41 116.829 163.746 116.456C164.082 116.083 164.514 115.896 165.042 115.896C165.549 115.896 165.952 116.059 166.25 116.384C166.549 116.709 166.698 117.171 166.698 117.768C166.698 117.939 166.685 118.096 166.658 118.24H163.89C163.938 118.64 164.09 118.947 164.346 119.16C164.602 119.373 164.938 119.48 165.354 119.48C165.808 119.48 166.17 119.387 166.442 119.2Z" fill="#2B2B2B"/>
<circle cx="177" cy="118" r="3" fill="#008C1E"/>
<mask id="path-27-inside-5_1124_4113" fill="white">
<path d="M16 132H192V156H16V132Z"/>
</mask>
<path d="M192 155H16V157H192V155Z" fill="#CCCCCC" mask="url(#path-27-inside-5_1124_4113)"/>
<g clip-path="url(#clip5_1124_4113)">
<path d="M41.5266 148.48C40.8 147.527 39.84 146.773 38.7466 146.3C38.5533 146.22 38.4866 146.047 38.4666 145.96C38.4266 145.787 38.4666 145.6 38.5866 145.46C39.3066 144.593 39.74 143.453 39.74 142.407C39.74 140.347 38.0666 138.673 36.0066 138.673C33.9466 138.673 32.2733 140.347 32.2733 142.407C32.2733 143.453 32.7066 144.593 33.4266 145.46C33.54 145.6 33.5866 145.787 33.5466 145.96C33.5266 146.053 33.46 146.22 33.2666 146.3C32.1733 146.773 31.2066 147.527 30.48 148.48C30.3 148.713 30.3466 149.047 30.58 149.227C30.68 149.3 30.7933 149.333 30.9 149.333C31.06 149.333 31.22 149.26 31.3266 149.12C31.94 148.313 32.7533 147.673 33.6866 147.273C34.14 147.08 34.4666 146.687 34.58 146.2C34.7 145.7 34.58 145.167 34.2466 144.767C33.6866 144.093 33.34 143.187 33.34 142.393C33.34 140.92 34.5333 139.727 36.0066 139.727C37.48 139.727 38.6733 140.92 38.6733 142.393C38.6733 143.187 38.3266 144.093 37.7666 144.767C37.2466 145.387 36.6266 145.727 36.0066 145.727C35.7133 145.727 35.4733 145.967 35.4733 146.26C35.4733 146.553 35.7133 146.793 36.0066 146.793C36.52 146.793 37.0266 146.647 37.4933 146.373C37.64 146.773 37.9266 147.1 38.3266 147.267C39.2533 147.667 40.0666 148.307 40.6866 149.113C40.7933 149.253 40.9533 149.327 41.1133 149.327C41.2266 149.327 41.34 149.293 41.4333 149.22C41.6666 149.04 41.7133 148.707 41.5333 148.473L41.5266 148.48Z" fill="#2B2B2B"/>
</g>
<path d="M50.384 143.28C50.384 142.432 50.6 141.757 51.032 141.256C51.4693 140.755 52.0587 140.504 52.8 140.504C53.5573 140.504 54.1493 140.755 54.576 141.256C55.008 141.752 55.224 142.427 55.224 143.28C55.224 144.128 55.0053 144.805 54.568 145.312C54.136 145.813 53.5493 146.064 52.808 146.064C52.0773 146.064 51.4907 145.811 51.048 145.304C50.6053 144.797 50.384 144.123 50.384 143.28ZM51.064 143.28C51.064 143.947 51.2213 144.475 51.536 144.864C51.856 145.253 52.28 145.448 52.808 145.448C53.3573 145.448 53.7813 145.256 54.08 144.872C54.384 144.488 54.536 143.957 54.536 143.28C54.536 142.603 54.384 142.072 54.08 141.688C53.776 141.304 53.3493 141.112 52.8 141.112C52.256 141.112 51.8293 141.307 51.52 141.696C51.216 142.08 51.064 142.608 51.064 143.28ZM56.2176 146V140.344H56.8496V146H56.2176ZM58.0848 146V141.944H58.7168V146H58.0848ZM58.1008 140.968C58.0261 140.888 57.9888 140.789 57.9888 140.672C57.9888 140.555 58.0261 140.456 58.1008 140.376C58.1808 140.296 58.2794 140.256 58.3968 140.256C58.5141 140.256 58.6128 140.296 58.6928 140.376C58.7728 140.456 58.8128 140.555 58.8128 140.672C58.8128 140.789 58.7728 140.888 58.6928 140.968C58.6128 141.043 58.5141 141.08 58.3968 141.08C58.2794 141.08 58.1808 141.043 58.1008 140.968ZM60.9519 146L59.5359 141.944H60.1919L60.7519 143.656L61.3439 145.504C61.3919 145.275 61.5919 144.659 61.9439 143.656L62.5199 141.944H63.1759L61.7279 146H60.9519ZM63.991 146V141.944H64.623V146H63.991ZM64.007 140.968C63.9323 140.888 63.895 140.789 63.895 140.672C63.895 140.555 63.9323 140.456 64.007 140.376C64.087 140.296 64.1857 140.256 64.303 140.256C64.4203 140.256 64.519 140.296 64.599 140.376C64.679 140.456 64.719 140.555 64.719 140.672C64.719 140.789 64.679 140.888 64.599 140.968C64.519 141.043 64.4203 141.08 64.303 141.08C64.1857 141.08 64.087 141.043 64.007 140.968ZM68.0102 144.128H67.3062C66.9649 144.128 66.7089 144.195 66.5382 144.328C66.3675 144.461 66.2822 144.629 66.2822 144.832C66.2822 145.035 66.3489 145.2 66.4822 145.328C66.6155 145.451 66.8102 145.512 67.0662 145.512C67.3542 145.512 67.5835 145.432 67.7542 145.272C67.9249 145.107 68.0102 144.899 68.0102 144.648V144.128ZM65.9142 142.792V142.16C66.2182 141.973 66.6182 141.88 67.1142 141.88C68.1329 141.88 68.6422 142.397 68.6422 143.432V146H68.0182V145.52C67.8102 145.867 67.4315 146.04 66.8822 146.04C66.5035 146.04 66.1969 145.928 65.9622 145.704C65.7329 145.48 65.6182 145.197 65.6182 144.856C65.6182 144.467 65.7649 144.165 66.0582 143.952C66.3569 143.733 66.7622 143.624 67.2742 143.624H68.0102V143.416C68.0102 143.096 67.9382 142.856 67.7942 142.696C67.6502 142.531 67.4075 142.448 67.0662 142.448C66.6342 142.448 66.2502 142.563 65.9142 142.792ZM74.7088 141.176H72.3968V143.088H74.4288V143.656H72.3968V146H71.7488V140.608H74.7088V141.176ZM77.2789 146.072C76.6975 146.072 76.2362 145.877 75.8949 145.488C75.5589 145.093 75.3909 144.597 75.3909 144C75.3909 143.397 75.5642 142.896 75.9109 142.496C76.2629 142.091 76.7189 141.888 77.2789 141.888C77.8922 141.888 78.3642 142.085 78.6949 142.48C79.0309 142.875 79.1989 143.376 79.1989 143.984C79.1989 144.587 79.0282 145.085 78.6869 145.48C78.3455 145.875 77.8762 146.072 77.2789 146.072ZM77.2789 142.448C76.8949 142.448 76.5935 142.597 76.3749 142.896C76.1562 143.195 76.0469 143.56 76.0469 143.992C76.0469 144.413 76.1589 144.773 76.3829 145.072C76.6069 145.365 76.9055 145.512 77.2789 145.512C77.6842 145.512 77.9962 145.368 78.2149 145.08C78.4335 144.787 78.5429 144.424 78.5429 143.992C78.5429 143.544 78.4389 143.176 78.2309 142.888C78.0229 142.595 77.7055 142.448 77.2789 142.448ZM82.3311 142.08V142.68C82.0857 142.531 81.7497 142.456 81.3231 142.456C81.1097 142.456 80.9391 142.507 80.8111 142.608C80.6884 142.704 80.6271 142.829 80.6271 142.984C80.6271 143.08 80.6457 143.165 80.6831 143.24C80.7204 143.309 80.7924 143.379 80.8991 143.448C81.0111 143.517 81.0911 143.565 81.1391 143.592C81.1924 143.613 81.3044 143.661 81.4751 143.736C81.8164 143.875 82.0831 144.032 82.2751 144.208C82.4671 144.384 82.5631 144.621 82.5631 144.92C82.5631 145.267 82.4404 145.541 82.1951 145.744C81.9551 145.947 81.6244 146.048 81.2031 146.048C80.7124 146.048 80.3151 145.965 80.0111 145.8V145.184C80.3684 145.397 80.7524 145.504 81.1631 145.504C81.4084 145.504 81.5951 145.456 81.7231 145.36C81.8511 145.264 81.9151 145.133 81.9151 144.968C81.9151 144.776 81.8431 144.627 81.6991 144.52C81.5604 144.413 81.3257 144.293 80.9951 144.16C80.6911 144.043 80.4457 143.896 80.2591 143.72C80.0777 143.544 79.9871 143.307 79.9871 143.008C79.9871 142.672 80.1124 142.405 80.3631 142.208C80.6191 142.005 80.9364 141.904 81.3151 141.904C81.7364 141.904 82.0751 141.963 82.3311 142.08ZM84.2919 142.456V144.832C84.2919 145.264 84.4946 145.48 84.8999 145.48C85.1079 145.48 85.2919 145.419 85.4519 145.296V145.896C85.2759 145.992 85.0786 146.04 84.8599 146.04C84.0599 146.04 83.6599 145.632 83.6599 144.816V142.456H83.0119V141.944H83.6599V140.936H84.2919V141.944H85.4119V142.456H84.2919ZM88.9571 143.712V143.552C88.9571 143.216 88.8664 142.949 88.6851 142.752C88.5037 142.549 88.2531 142.448 87.9331 142.448C87.6291 142.448 87.3704 142.557 87.1571 142.776C86.9437 142.995 86.8184 143.307 86.7811 143.712H88.9571ZM89.3331 145.2V145.792C89.0184 145.957 88.6344 146.04 88.1811 146.04C87.5677 146.04 87.0717 145.853 86.6931 145.48C86.3197 145.101 86.1331 144.603 86.1331 143.984C86.1331 143.339 86.3011 142.829 86.6371 142.456C86.9731 142.083 87.4051 141.896 87.9331 141.896C88.4397 141.896 88.8424 142.059 89.1411 142.384C89.4397 142.709 89.5891 143.171 89.5891 143.768C89.5891 143.939 89.5757 144.096 89.5491 144.24H86.7811C86.8291 144.64 86.9811 144.947 87.2371 145.16C87.4931 145.373 87.8291 145.48 88.2451 145.48C88.6984 145.48 89.0611 145.387 89.3331 145.2ZM91.1768 141.944V142.656C91.3901 142.155 91.7581 141.904 92.2808 141.904C92.3768 141.904 92.4514 141.909 92.5048 141.92V142.544C92.3928 142.507 92.2781 142.488 92.1608 142.488C91.8781 142.488 91.6434 142.619 91.4568 142.88C91.2701 143.141 91.1768 143.443 91.1768 143.784V146H90.5448L90.5528 141.944H91.1768Z" fill="#2B2B2B"/>
<path d="M145.306 143.28C145.306 142.432 145.522 141.757 145.954 141.256C146.391 140.755 146.981 140.504 147.722 140.504C148.479 140.504 149.071 140.755 149.498 141.256C149.93 141.752 150.146 142.427 150.146 143.28C150.146 144.128 149.927 144.805 149.49 145.312C149.058 145.813 148.471 146.064 147.73 146.064C146.999 146.064 146.413 145.811 145.97 145.304C145.527 144.797 145.306 144.123 145.306 143.28ZM145.986 143.28C145.986 143.947 146.143 144.475 146.458 144.864C146.778 145.253 147.202 145.448 147.73 145.448C148.279 145.448 148.703 145.256 149.002 144.872C149.306 144.488 149.458 143.957 149.458 143.28C149.458 142.603 149.306 142.072 149.002 141.688C148.698 141.304 148.271 141.112 147.722 141.112C147.178 141.112 146.751 141.307 146.442 141.696C146.138 142.08 145.986 142.608 145.986 143.28ZM151.731 141.944V142.648C151.971 142.141 152.398 141.888 153.011 141.888C153.406 141.888 153.721 142.008 153.955 142.248C154.19 142.488 154.307 142.808 154.307 143.208V146H153.675V143.376C153.675 143.077 153.598 142.851 153.443 142.696C153.294 142.536 153.097 142.456 152.851 142.456C152.547 142.456 152.283 142.573 152.059 142.808C151.841 143.043 151.731 143.368 151.731 143.784V146H151.107V141.944H151.731ZM155.46 146V140.344H156.092V146H155.46ZM157.327 146V141.944H157.959V146H157.327ZM157.343 140.968C157.268 140.888 157.231 140.789 157.231 140.672C157.231 140.555 157.268 140.456 157.343 140.376C157.423 140.296 157.522 140.256 157.639 140.256C157.756 140.256 157.855 140.296 157.935 140.376C158.015 140.456 158.055 140.555 158.055 140.672C158.055 140.789 158.015 140.888 157.935 140.968C157.855 141.043 157.756 141.08 157.639 141.08C157.522 141.08 157.423 141.043 157.343 140.968ZM159.786 141.944V142.648C160.026 142.141 160.453 141.888 161.066 141.888C161.461 141.888 161.775 142.008 162.01 142.248C162.245 142.488 162.362 142.808 162.362 143.208V146H161.73V143.376C161.73 143.077 161.653 142.851 161.498 142.696C161.349 142.536 161.151 142.456 160.906 142.456C160.602 142.456 160.338 142.573 160.114 142.808C159.895 143.043 159.786 143.368 159.786 143.784V146H159.162V141.944H159.786ZM166.066 143.712V143.552C166.066 143.216 165.976 142.949 165.794 142.752C165.613 142.549 165.362 142.448 165.042 142.448C164.738 142.448 164.48 142.557 164.266 142.776C164.053 142.995 163.928 143.307 163.89 143.712H166.066ZM166.442 145.2V145.792C166.128 145.957 165.744 146.04 165.29 146.04C164.677 146.04 164.181 145.853 163.802 145.48C163.429 145.101 163.242 144.603 163.242 143.984C163.242 143.339 163.41 142.829 163.746 142.456C164.082 142.083 164.514 141.896 165.042 141.896C165.549 141.896 165.952 142.059 166.25 142.384C166.549 142.709 166.698 143.171 166.698 143.768C166.698 143.939 166.685 144.096 166.658 144.24H163.89C163.938 144.64 164.09 144.947 164.346 145.16C164.602 145.373 164.938 145.48 165.354 145.48C165.808 145.48 166.17 145.387 166.442 145.2Z" fill="#2B2B2B"/>
<circle cx="177" cy="144" r="3" fill="#008C1E"/>
<mask id="path-33-inside-6_1124_4113" fill="white">
<path d="M16 158H192V182H16V158Z"/>
</mask>
<path d="M192 181H16V183H192V181Z" fill="#CCCCCC" mask="url(#path-33-inside-6_1124_4113)"/>
<g clip-path="url(#clip6_1124_4113)">
<path d="M41.5266 174.48C40.8 173.527 39.84 172.773 38.7466 172.3C38.5533 172.22 38.4866 172.047 38.4666 171.96C38.4266 171.787 38.4666 171.6 38.5866 171.46C39.3066 170.593 39.74 169.453 39.74 168.407C39.74 166.347 38.0666 164.673 36.0066 164.673C33.9466 164.673 32.2733 166.347 32.2733 168.407C32.2733 169.453 32.7066 170.593 33.4266 171.46C33.54 171.6 33.5866 171.787 33.5466 171.96C33.5266 172.053 33.46 172.22 33.2666 172.3C32.1733 172.773 31.2066 173.527 30.48 174.48C30.3 174.713 30.3466 175.047 30.58 175.227C30.68 175.3 30.7933 175.333 30.9 175.333C31.06 175.333 31.22 175.26 31.3266 175.12C31.94 174.313 32.7533 173.673 33.6866 173.273C34.14 173.08 34.4666 172.687 34.58 172.2C34.7 171.7 34.58 171.167 34.2466 170.767C33.6866 170.093 33.34 169.187 33.34 168.393C33.34 166.92 34.5333 165.727 36.0066 165.727C37.48 165.727 38.6733 166.92 38.6733 168.393C38.6733 169.187 38.3266 170.093 37.7666 170.767C37.2466 171.387 36.6266 171.727 36.0066 171.727C35.7133 171.727 35.4733 171.967 35.4733 172.26C35.4733 172.553 35.7133 172.793 36.0066 172.793C36.52 172.793 37.0266 172.647 37.4933 172.373C37.64 172.773 37.9266 173.1 38.3266 173.267C39.2533 173.667 40.0666 174.307 40.6866 175.113C40.7933 175.253 40.9533 175.327 41.1133 175.327C41.2266 175.327 41.34 175.293 41.4333 175.22C41.6666 175.04 41.7133 174.707 41.5333 174.473L41.5266 174.48Z" fill="#2B2B2B"/>
</g>
<path d="M51.64 170.032H53.552L53.448 169.72L52.608 167.128C52.544 167.357 52.256 168.224 51.744 169.728L51.64 170.032ZM54.208 172L53.736 170.584H51.456L50.976 172H50.28L52.16 166.608H53.056L54.904 172H54.208ZM56.3955 167.944V168.6C56.6195 168.125 57.0008 167.888 57.5395 167.888C58.1635 167.888 58.5582 168.152 58.7235 168.68C58.8408 168.424 59.0035 168.229 59.2115 168.096C59.4248 167.957 59.6622 167.888 59.9235 167.888C60.3448 167.888 60.6622 168.008 60.8755 168.248C61.0888 168.488 61.1955 168.811 61.1955 169.216V172H60.5635V169.376C60.5635 168.763 60.3048 168.456 59.7875 168.456C59.5315 168.456 59.3022 168.573 59.0995 168.808C58.8968 169.037 58.7955 169.363 58.7955 169.784V172H58.1635V169.376C58.1635 168.763 57.9048 168.456 57.3875 168.456C57.1315 168.456 56.9022 168.573 56.6995 168.808C56.4968 169.037 56.3955 169.363 56.3955 169.784V172H55.7715V167.944H56.3955ZM64.9024 169.712V169.552C64.9024 169.216 64.8117 168.949 64.6304 168.752C64.449 168.549 64.1984 168.448 63.8784 168.448C63.5744 168.448 63.3157 168.557 63.1024 168.776C62.889 168.995 62.7637 169.307 62.7264 169.712H64.9024ZM65.2784 171.2V171.792C64.9637 171.957 64.5797 172.04 64.1264 172.04C63.513 172.04 63.017 171.853 62.6384 171.48C62.265 171.101 62.0784 170.603 62.0784 169.984C62.0784 169.339 62.2464 168.829 62.5824 168.456C62.9184 168.083 63.3504 167.896 63.8784 167.896C64.385 167.896 64.7877 168.059 65.0864 168.384C65.385 168.709 65.5344 169.171 65.5344 169.768C65.5344 169.939 65.521 170.096 65.4944 170.24H62.7264C62.7744 170.64 62.9264 170.947 63.1824 171.16C63.4384 171.373 63.7744 171.48 64.1904 171.48C64.6437 171.48 65.0064 171.387 65.2784 171.2ZM66.5301 172V166.344H67.1621V172H66.5301ZM68.3973 172V167.944H69.0293V172H68.3973ZM68.4133 166.968C68.3386 166.888 68.3013 166.789 68.3013 166.672C68.3013 166.555 68.3386 166.456 68.4133 166.376C68.4933 166.296 68.5919 166.256 68.7093 166.256C68.8266 166.256 68.9253 166.296 69.0053 166.376C69.0853 166.456 69.1253 166.555 69.1253 166.672C69.1253 166.789 69.0853 166.888 69.0053 166.968C68.9253 167.043 68.8266 167.08 68.7093 167.08C68.5919 167.08 68.4933 167.043 68.4133 166.968ZM72.4164 170.128H71.7124C71.3711 170.128 71.1151 170.195 70.9444 170.328C70.7738 170.461 70.6884 170.629 70.6884 170.832C70.6884 171.035 70.7551 171.2 70.8884 171.328C71.0218 171.451 71.2164 171.512 71.4724 171.512C71.7604 171.512 71.9898 171.432 72.1604 171.272C72.3311 171.107 72.4164 170.899 72.4164 170.648V170.128ZM70.3204 168.792V168.16C70.6244 167.973 71.0244 167.88 71.5204 167.88C72.5391 167.88 73.0484 168.397 73.0484 169.432V172H72.4244V171.52C72.2164 171.867 71.8378 172.04 71.2884 172.04C70.9098 172.04 70.6031 171.928 70.3684 171.704C70.1391 171.48 70.0244 171.197 70.0244 170.856C70.0244 170.467 70.1711 170.165 70.4644 169.952C70.7631 169.733 71.1684 169.624 71.6804 169.624H72.4164V169.416C72.4164 169.096 72.3444 168.856 72.2004 168.696C72.0564 168.531 71.8138 168.448 71.4724 168.448C71.0404 168.448 70.6564 168.563 70.3204 168.792ZM76.8031 167.168V169.32H77.6191C77.9871 169.32 78.2671 169.221 78.4591 169.024C78.6564 168.821 78.7551 168.563 78.7551 168.248C78.7551 167.528 78.3524 167.168 77.5471 167.168H76.8031ZM79.7391 172H78.9631L77.6431 169.872H77.5791H76.8031V172H76.1551V166.608H77.5071C78.1311 166.608 78.6031 166.755 78.9231 167.048C79.2484 167.341 79.4111 167.747 79.4111 168.264C79.4004 168.637 79.3017 168.955 79.1151 169.216C78.9284 169.477 78.6644 169.661 78.3231 169.768L79.7391 172ZM82.1539 172.072C81.5725 172.072 81.1112 171.877 80.7699 171.488C80.4339 171.093 80.2659 170.597 80.2659 170C80.2659 169.397 80.4392 168.896 80.7859 168.496C81.1379 168.091 81.5939 167.888 82.1539 167.888C82.7672 167.888 83.2392 168.085 83.5699 168.48C83.9059 168.875 84.0739 169.376 84.0739 169.984C84.0739 170.587 83.9032 171.085 83.5619 171.48C83.2205 171.875 82.7512 172.072 82.1539 172.072ZM82.1539 168.448C81.7699 168.448 81.4685 168.597 81.2499 168.896C81.0312 169.195 80.9219 169.56 80.9219 169.992C80.9219 170.413 81.0339 170.773 81.2579 171.072C81.4819 171.365 81.7805 171.512 82.1539 171.512C82.5592 171.512 82.8712 171.368 83.0899 171.08C83.3085 170.787 83.4179 170.424 83.4179 169.992C83.4179 169.544 83.3139 169.176 83.1059 168.888C82.8979 168.595 82.5805 168.448 82.1539 168.448ZM86.5421 171.488C86.8727 171.488 87.1527 171.365 87.3821 171.12C87.6167 170.875 87.7341 170.483 87.7341 169.944C87.7341 169.432 87.6141 169.056 87.3741 168.816C87.1341 168.576 86.8701 168.456 86.5821 168.456C86.2461 168.456 85.9661 168.592 85.7421 168.864C85.5234 169.131 85.4141 169.515 85.4141 170.016C85.4141 170.453 85.5207 170.808 85.7341 171.08C85.9474 171.352 86.2167 171.488 86.5421 171.488ZM87.7341 166.344H88.3661V172H87.7341V171.4C87.4461 171.843 87.0301 172.064 86.4861 172.064C85.9474 172.064 85.5234 171.864 85.2141 171.464C84.9101 171.064 84.7581 170.579 84.7581 170.008C84.7581 169.373 84.9207 168.861 85.2461 168.472C85.5714 168.077 85.9901 167.88 86.5021 167.88C87.0301 167.88 87.4407 168.107 87.7341 168.56V166.344ZM90.1611 167.944V168.656C90.3745 168.155 90.7425 167.904 91.2651 167.904C91.3611 167.904 91.4358 167.909 91.4891 167.92V168.544C91.3771 168.507 91.2625 168.488 91.1451 168.488C90.8625 168.488 90.6278 168.619 90.4411 168.88C90.2545 169.141 90.1611 169.443 90.1611 169.784V172H89.5291L89.5371 167.944H90.1611ZM92.1785 172V167.944H92.8105V172H92.1785ZM92.1945 166.968C92.1198 166.888 92.0825 166.789 92.0825 166.672C92.0825 166.555 92.1198 166.456 92.1945 166.376C92.2745 166.296 92.3732 166.256 92.4905 166.256C92.6078 166.256 92.7065 166.296 92.7865 166.376C92.8665 166.456 92.9065 166.555 92.9065 166.672C92.9065 166.789 92.8665 166.888 92.7865 166.968C92.7065 167.043 92.6078 167.08 92.4905 167.08C92.3732 167.08 92.2745 167.043 92.1945 166.968ZM95.5337 171.336C95.827 171.336 96.0857 171.224 96.3097 171C96.539 170.771 96.6537 170.432 96.6537 169.984C96.6537 169.467 96.5444 169.083 96.3257 168.832C96.107 168.581 95.8537 168.456 95.5657 168.456C95.219 168.456 94.9444 168.595 94.7417 168.872C94.539 169.144 94.4377 169.501 94.4377 169.944C94.4377 170.397 94.5497 170.744 94.7737 170.984C94.9977 171.219 95.251 171.336 95.5337 171.336ZM96.6537 167.944H97.2857V171.672C97.2857 172.291 97.115 172.755 96.7737 173.064C96.4324 173.379 95.9924 173.536 95.4537 173.536C94.963 173.536 94.5444 173.453 94.1977 173.288V172.656C94.539 172.853 94.939 172.952 95.3977 172.952C95.787 172.952 96.0937 172.848 96.3177 172.64C96.5417 172.432 96.6537 172.107 96.6537 171.664V171.208C96.387 171.667 95.9897 171.896 95.4617 171.896C94.9977 171.896 94.6004 171.725 94.2697 171.384C93.9444 171.043 93.7817 170.568 93.7817 169.96C93.7817 169.357 93.9337 168.861 94.2377 168.472C94.5417 168.083 94.939 167.888 95.4297 167.888C95.9844 167.888 96.3924 168.131 96.6537 168.616V167.944ZM100.924 167.944H101.556V172H100.924V171.296C100.711 171.797 100.287 172.048 99.6523 172.048C99.2523 172.048 98.935 171.931 98.7003 171.696C98.471 171.456 98.3563 171.136 98.3563 170.736V167.944H98.9883V170.576C98.9883 170.869 99.063 171.093 99.2123 171.248C99.3616 171.403 99.5643 171.48 99.8203 171.48C100.156 171.48 100.423 171.363 100.62 171.128C100.823 170.893 100.924 170.576 100.924 170.176V167.944ZM105.309 169.712V169.552C105.309 169.216 105.218 168.949 105.037 168.752C104.855 168.549 104.605 168.448 104.285 168.448C103.981 168.448 103.722 168.557 103.509 168.776C103.295 168.995 103.17 169.307 103.133 169.712H105.309ZM105.685 171.2V171.792C105.37 171.957 104.986 172.04 104.533 172.04C103.919 172.04 103.423 171.853 103.045 171.48C102.671 171.101 102.485 170.603 102.485 169.984C102.485 169.339 102.653 168.829 102.989 168.456C103.325 168.083 103.757 167.896 104.285 167.896C104.791 167.896 105.194 168.059 105.493 168.384C105.791 168.709 105.941 169.171 105.941 169.768C105.941 169.939 105.927 170.096 105.901 170.24H103.133C103.181 170.64 103.333 170.947 103.589 171.16C103.845 171.373 104.181 171.48 104.597 171.48C105.05 171.48 105.413 171.387 105.685 171.2ZM109.48 167.944V168.408L107.4 171.432H109.592V172H106.672V171.504L108.728 168.504H106.752V167.944H109.48Z" fill="#2B2B2B"/>
<path d="M145.361 169.28C145.361 168.432 145.577 167.757 146.009 167.256C146.446 166.755 147.035 166.504 147.777 166.504C148.534 166.504 149.126 166.755 149.553 167.256C149.985 167.752 150.201 168.427 150.201 169.28C150.201 170.128 149.982 170.805 149.545 171.312C149.113 171.813 148.526 172.064 147.785 172.064C147.054 172.064 146.467 171.811 146.025 171.304C145.582 170.797 145.361 170.123 145.361 169.28ZM146.041 169.28C146.041 169.947 146.198 170.475 146.513 170.864C146.833 171.253 147.257 171.448 147.785 171.448C148.334 171.448 148.758 171.256 149.057 170.872C149.361 170.488 149.513 169.957 149.513 169.28C149.513 168.603 149.361 168.072 149.057 167.688C148.753 167.304 148.326 167.112 147.777 167.112C147.233 167.112 146.806 167.307 146.497 167.696C146.193 168.08 146.041 168.608 146.041 169.28ZM153.514 167.944V167.568C153.514 167.365 153.541 167.187 153.594 167.032C153.333 166.915 153.066 166.856 152.794 166.856C152.362 166.856 152.146 167.096 152.146 167.576V167.944H153.514ZM151.514 167.944V167.568C151.514 167.173 151.621 166.861 151.834 166.632C152.053 166.403 152.365 166.288 152.77 166.288C153.143 166.288 153.517 166.381 153.89 166.568C154.109 166.381 154.389 166.288 154.73 166.288C155.173 166.288 155.621 166.419 156.074 166.68V172H155.442V166.984C155.218 166.899 155.005 166.856 154.802 166.856C154.365 166.856 154.146 167.096 154.146 167.576V167.944H155.034V168.456H154.146V172H153.514V168.456H152.146V172H151.514V168.456H150.818V167.944H151.514ZM157.272 172V167.944H157.904V172H157.272ZM157.288 166.968C157.214 166.888 157.176 166.789 157.176 166.672C157.176 166.555 157.214 166.456 157.288 166.376C157.368 166.296 157.467 166.256 157.584 166.256C157.702 166.256 157.8 166.296 157.88 166.376C157.96 166.456 158 166.555 158 166.672C158 166.789 157.96 166.888 157.88 166.968C157.8 167.043 157.702 167.08 157.584 167.08C157.467 167.08 157.368 167.043 157.288 166.968ZM159.731 167.944V168.648C159.971 168.141 160.398 167.888 161.011 167.888C161.406 167.888 161.721 168.008 161.955 168.248C162.19 168.488 162.307 168.808 162.307 169.208V172H161.675V169.376C161.675 169.077 161.598 168.851 161.443 168.696C161.294 168.536 161.097 168.456 160.851 168.456C160.547 168.456 160.283 168.573 160.059 168.808C159.841 169.043 159.731 169.368 159.731 169.784V172H159.107V167.944H159.731ZM166.012 169.712V169.552C166.012 169.216 165.921 168.949 165.74 168.752C165.558 168.549 165.308 168.448 164.988 168.448C164.684 168.448 164.425 168.557 164.212 168.776C163.998 168.995 163.873 169.307 163.836 169.712H166.012ZM166.388 171.2V171.792C166.073 171.957 165.689 172.04 165.236 172.04C164.622 172.04 164.126 171.853 163.748 171.48C163.374 171.101 163.188 170.603 163.188 169.984C163.188 169.339 163.356 168.829 163.692 168.456C164.028 168.083 164.46 167.896 164.988 167.896C165.494 167.896 165.897 168.059 166.196 168.384C166.494 168.709 166.644 169.171 166.644 169.768C166.644 169.939 166.63 170.096 166.604 170.24H163.836C163.884 170.64 164.036 170.947 164.292 171.16C164.548 171.373 164.884 171.48 165.3 171.48C165.753 171.48 166.116 171.387 166.388 171.2Z" fill="#2B2B2B"/>
<circle cx="177" cy="170" r="3" fill="#CCCCCC"/>
<mask id="path-39-inside-7_1124_4113" fill="white">
<path d="M16 184H192V208H16V184Z"/>
</mask>
<path d="M192 207H16V209H192V207Z" fill="#CCCCCC" mask="url(#path-39-inside-7_1124_4113)"/>
<g clip-path="url(#clip7_1124_4113)">
<path d="M41.5266 200.48C40.8 199.527 39.84 198.773 38.7466 198.3C38.5533 198.22 38.4866 198.047 38.4666 197.96C38.4266 197.787 38.4666 197.6 38.5866 197.46C39.3066 196.593 39.74 195.453 39.74 194.407C39.74 192.347 38.0666 190.673 36.0066 190.673C33.9466 190.673 32.2733 192.347 32.2733 194.407C32.2733 195.453 32.7066 196.593 33.4266 197.46C33.54 197.6 33.5866 197.787 33.5466 197.96C33.5266 198.053 33.46 198.22 33.2666 198.3C32.1733 198.773 31.2066 199.527 30.48 200.48C30.3 200.713 30.3466 201.047 30.58 201.227C30.68 201.3 30.7933 201.333 30.9 201.333C31.06 201.333 31.22 201.26 31.3266 201.12C31.94 200.313 32.7533 199.673 33.6866 199.273C34.14 199.08 34.4666 198.687 34.58 198.2C34.7 197.7 34.58 197.167 34.2466 196.767C33.6866 196.093 33.34 195.187 33.34 194.393C33.34 192.92 34.5333 191.727 36.0066 191.727C37.48 191.727 38.6733 192.92 38.6733 194.393C38.6733 195.187 38.3266 196.093 37.7666 196.767C37.2466 197.387 36.6266 197.727 36.0066 197.727C35.7133 197.727 35.4733 197.967 35.4733 198.26C35.4733 198.553 35.7133 198.793 36.0066 198.793C36.52 198.793 37.0266 198.647 37.4933 198.373C37.64 198.773 37.9266 199.1 38.3266 199.267C39.2533 199.667 40.0666 200.307 40.6866 201.113C40.7933 201.253 40.9533 201.327 41.1133 201.327C41.2266 201.327 41.34 201.293 41.4333 201.22C41.6666 201.04 41.7133 200.707 41.5333 200.473L41.5266 200.48Z" fill="#2B2B2B"/>
</g>
<path d="M53.88 192.608H54.528V198H53.88V195.56H51.264V198H50.616V192.608H51.264V194.976H53.88V192.608ZM57.9086 196.128H57.2046C56.8633 196.128 56.6073 196.195 56.4366 196.328C56.266 196.461 56.1806 196.629 56.1806 196.832C56.1806 197.035 56.2473 197.2 56.3806 197.328C56.514 197.451 56.7086 197.512 56.9646 197.512C57.2526 197.512 57.482 197.432 57.6526 197.272C57.8233 197.107 57.9086 196.899 57.9086 196.648V196.128ZM55.8126 194.792V194.16C56.1166 193.973 56.5166 193.88 57.0126 193.88C58.0313 193.88 58.5406 194.397 58.5406 195.432V198H57.9166V197.52C57.7086 197.867 57.33 198.04 56.7806 198.04C56.402 198.04 56.0953 197.928 55.8606 197.704C55.6313 197.48 55.5166 197.197 55.5166 196.856C55.5166 196.467 55.6633 196.165 55.9566 195.952C56.2553 195.733 56.6606 195.624 57.1726 195.624H57.9086V195.416C57.9086 195.096 57.8366 194.856 57.6926 194.696C57.5486 194.531 57.306 194.448 56.9646 194.448C56.5326 194.448 56.1486 194.563 55.8126 194.792ZM60.7821 197.896L59.1421 193.944H59.8541L60.3821 195.28L61.0941 197.12C61.1368 196.981 61.3501 196.368 61.7341 195.28L62.2061 193.944H62.8861L61.4221 197.896C61.2141 198.445 60.9661 198.832 60.6781 199.056C60.3955 199.28 60.0701 199.392 59.7021 199.392C59.5635 199.392 59.4515 199.379 59.3661 199.352V198.784C59.4461 198.805 59.5368 198.816 59.6381 198.816C60.1768 198.816 60.5581 198.509 60.7821 197.896ZM66.1914 195.712V195.552C66.1914 195.216 66.1008 194.949 65.9194 194.752C65.7381 194.549 65.4874 194.448 65.1674 194.448C64.8634 194.448 64.6048 194.557 64.3914 194.776C64.1781 194.995 64.0528 195.307 64.0154 195.712H66.1914ZM66.5674 197.2V197.792C66.2528 197.957 65.8688 198.04 65.4154 198.04C64.8021 198.04 64.3061 197.853 63.9274 197.48C63.5541 197.101 63.3674 196.603 63.3674 195.984C63.3674 195.339 63.5354 194.829 63.8714 194.456C64.2074 194.083 64.6394 193.896 65.1674 193.896C65.6741 193.896 66.0768 194.059 66.3754 194.384C66.6741 194.709 66.8234 195.171 66.8234 195.768C66.8234 195.939 66.8101 196.096 66.7834 196.24H64.0154C64.0634 196.64 64.2154 196.947 64.4714 197.16C64.7274 197.373 65.0634 197.48 65.4794 197.48C65.9328 197.48 66.2954 197.387 66.5674 197.2ZM69.9951 194.08V194.68C69.7498 194.531 69.4138 194.456 68.9871 194.456C68.7738 194.456 68.6031 194.507 68.4751 194.608C68.3525 194.704 68.2911 194.829 68.2911 194.984C68.2911 195.08 68.3098 195.165 68.3471 195.24C68.3845 195.309 68.4565 195.379 68.5631 195.448C68.6751 195.517 68.7551 195.565 68.8031 195.592C68.8565 195.613 68.9685 195.661 69.1391 195.736C69.4805 195.875 69.7471 196.032 69.9391 196.208C70.1311 196.384 70.2271 196.621 70.2271 196.92C70.2271 197.267 70.1045 197.541 69.8591 197.744C69.6191 197.947 69.2885 198.048 68.8671 198.048C68.3765 198.048 67.9791 197.965 67.6751 197.8V197.184C68.0325 197.397 68.4165 197.504 68.8271 197.504C69.0725 197.504 69.2591 197.456 69.3871 197.36C69.5151 197.264 69.5791 197.133 69.5791 196.968C69.5791 196.776 69.5071 196.627 69.3631 196.52C69.2245 196.413 68.9898 196.293 68.6591 196.16C68.3551 196.043 68.1098 195.896 67.9231 195.72C67.7418 195.544 67.6511 195.307 67.6511 195.008C67.6511 194.672 67.7765 194.405 68.0271 194.208C68.2831 194.005 68.6005 193.904 68.9791 193.904C69.4005 193.904 69.7391 193.963 69.9951 194.08ZM73.7171 197.448H74.9411C75.2825 197.448 75.5438 197.371 75.7251 197.216C75.9118 197.056 76.0051 196.824 76.0051 196.52C76.0051 196.216 75.9011 195.979 75.6931 195.808C75.4905 195.637 75.1998 195.552 74.8211 195.552H73.7171V197.448ZM73.7171 193.16V195H74.5811C75.0131 195 75.3331 194.909 75.5411 194.728C75.7491 194.547 75.8531 194.312 75.8531 194.024C75.8531 193.773 75.7545 193.568 75.5571 193.408C75.3651 193.243 75.0771 193.16 74.6931 193.16H73.7171ZM73.0691 192.608H74.6931C75.2478 192.608 75.6905 192.736 76.0211 192.992C76.3571 193.248 76.5251 193.592 76.5251 194.024C76.5251 194.333 76.4371 194.603 76.2611 194.832C76.0905 195.056 75.8691 195.197 75.5971 195.256C75.8958 195.304 76.1491 195.44 76.3571 195.664C76.5705 195.883 76.6771 196.181 76.6771 196.56C76.6771 196.992 76.5331 197.341 76.2451 197.608C75.9625 197.869 75.5598 198 75.0371 198H73.0691V192.608ZM80.1914 195.712V195.552C80.1914 195.216 80.1008 194.949 79.9194 194.752C79.7381 194.549 79.4874 194.448 79.1674 194.448C78.8634 194.448 78.6048 194.557 78.3914 194.776C78.1781 194.995 78.0528 195.307 78.0154 195.712H80.1914ZM80.5674 197.2V197.792C80.2528 197.957 79.8688 198.04 79.4154 198.04C78.8021 198.04 78.3061 197.853 77.9274 197.48C77.5541 197.101 77.3674 196.603 77.3674 195.984C77.3674 195.339 77.5354 194.829 77.8714 194.456C78.2074 194.083 78.6394 193.896 79.1674 193.896C79.6741 193.896 80.0768 194.059 80.3754 194.384C80.6741 194.709 80.8234 195.171 80.8234 195.768C80.8234 195.939 80.8101 196.096 80.7834 196.24H78.0154C78.0634 196.64 78.2154 196.947 78.4714 197.16C78.7274 197.373 79.0634 197.48 79.4794 197.48C79.9328 197.48 80.2954 197.387 80.5674 197.2ZM82.4111 193.944V194.648C82.6511 194.141 83.0778 193.888 83.6911 193.888C84.0858 193.888 84.4005 194.008 84.6351 194.248C84.8698 194.488 84.9871 194.808 84.9871 195.208V198H84.3551V195.376C84.3551 195.077 84.2778 194.851 84.1231 194.696C83.9738 194.536 83.7765 194.456 83.5311 194.456C83.2271 194.456 82.9631 194.573 82.7391 194.808C82.5205 195.043 82.4111 195.368 82.4111 195.784V198H81.7871V193.944H82.4111ZM85.1554 199.44V198.88C85.3581 198.965 85.5394 199.008 85.6994 199.008C85.9981 199.008 86.1474 198.813 86.1474 198.424V193.944H86.7714V198.44C86.7714 198.792 86.6781 199.067 86.4914 199.264C86.3101 199.461 86.0568 199.56 85.7314 199.56C85.5554 199.56 85.3634 199.52 85.1554 199.44ZM86.1554 192.968C86.0808 192.888 86.0434 192.789 86.0434 192.672C86.0434 192.555 86.0808 192.456 86.1554 192.376C86.2354 192.296 86.3341 192.256 86.4514 192.256C86.5688 192.256 86.6674 192.296 86.7474 192.376C86.8274 192.456 86.8674 192.555 86.8674 192.672C86.8674 192.789 86.8274 192.888 86.7474 192.968C86.6674 193.043 86.5688 193.08 86.4514 193.08C86.3341 193.08 86.2354 193.043 86.1554 192.968ZM90.1118 196.128H89.4078C89.0664 196.128 88.8104 196.195 88.6398 196.328C88.4691 196.461 88.3838 196.629 88.3838 196.832C88.3838 197.035 88.4504 197.2 88.5838 197.328C88.7171 197.451 88.9118 197.512 89.1678 197.512C89.4558 197.512 89.6851 197.432 89.8558 197.272C90.0264 197.107 90.1118 196.899 90.1118 196.648V196.128ZM88.0158 194.792V194.16C88.3198 193.973 88.7198 193.88 89.2158 193.88C90.2344 193.88 90.7438 194.397 90.7438 195.432V198H90.1198V197.52C89.9118 197.867 89.5331 198.04 88.9838 198.04C88.6051 198.04 88.2984 197.928 88.0638 197.704C87.8344 197.48 87.7198 197.197 87.7198 196.856C87.7198 196.467 87.8664 196.165 88.1598 195.952C88.4584 195.733 88.8638 195.624 89.3758 195.624H90.1118V195.416C90.1118 195.096 90.0398 194.856 89.8958 194.696C89.7518 194.531 89.5091 194.448 89.1678 194.448C88.7358 194.448 88.3518 194.563 88.0158 194.792ZM92.4893 193.944V194.6C92.7133 194.125 93.0946 193.888 93.6332 193.888C94.2573 193.888 94.6519 194.152 94.8173 194.68C94.9346 194.424 95.0973 194.229 95.3053 194.096C95.5186 193.957 95.7559 193.888 96.0173 193.888C96.4386 193.888 96.7559 194.008 96.9693 194.248C97.1826 194.488 97.2893 194.811 97.2893 195.216V198H96.6573V195.376C96.6573 194.763 96.3986 194.456 95.8813 194.456C95.6253 194.456 95.3959 194.573 95.1933 194.808C94.9906 195.037 94.8893 195.363 94.8893 195.784V198H94.2573V195.376C94.2573 194.763 93.9986 194.456 93.4813 194.456C93.2253 194.456 92.9959 194.573 92.7933 194.808C92.5906 195.037 92.4893 195.363 92.4893 195.784V198H91.8653V193.944H92.4893ZM98.4441 198V193.944H99.0761V198H98.4441ZM98.4601 192.968C98.3855 192.888 98.3481 192.789 98.3481 192.672C98.3481 192.555 98.3855 192.456 98.4601 192.376C98.5401 192.296 98.6388 192.256 98.7561 192.256C98.8735 192.256 98.9721 192.296 99.0521 192.376C99.1321 192.456 99.1721 192.555 99.1721 192.672C99.1721 192.789 99.1321 192.888 99.0521 192.968C98.9721 193.043 98.8735 193.08 98.7561 193.08C98.6388 193.08 98.5401 193.043 98.4601 192.968ZM100.903 193.944V194.648C101.143 194.141 101.57 193.888 102.183 193.888C102.578 193.888 102.893 194.008 103.127 194.248C103.362 194.488 103.479 194.808 103.479 195.208V198H102.847V195.376C102.847 195.077 102.77 194.851 102.615 194.696C102.466 194.536 102.269 194.456 102.023 194.456C101.719 194.456 101.455 194.573 101.231 194.808C101.013 195.043 100.903 195.368 100.903 195.784V198H100.279V193.944H100.903Z" fill="#2B2B2B"/>
<path d="M145.361 195.28C145.361 194.432 145.577 193.757 146.009 193.256C146.446 192.755 147.035 192.504 147.777 192.504C148.534 192.504 149.126 192.755 149.553 193.256C149.985 193.752 150.201 194.427 150.201 195.28C150.201 196.128 149.982 196.805 149.545 197.312C149.113 197.813 148.526 198.064 147.785 198.064C147.054 198.064 146.467 197.811 146.025 197.304C145.582 196.797 145.361 196.123 145.361 195.28ZM146.041 195.28C146.041 195.947 146.198 196.475 146.513 196.864C146.833 197.253 147.257 197.448 147.785 197.448C148.334 197.448 148.758 197.256 149.057 196.872C149.361 196.488 149.513 195.957 149.513 195.28C149.513 194.603 149.361 194.072 149.057 193.688C148.753 193.304 148.326 193.112 147.777 193.112C147.233 193.112 146.806 193.307 146.497 193.696C146.193 194.08 146.041 194.608 146.041 195.28ZM153.514 193.944V193.568C153.514 193.365 153.541 193.187 153.594 193.032C153.333 192.915 153.066 192.856 152.794 192.856C152.362 192.856 152.146 193.096 152.146 193.576V193.944H153.514ZM151.514 193.944V193.568C151.514 193.173 151.621 192.861 151.834 192.632C152.053 192.403 152.365 192.288 152.77 192.288C153.143 192.288 153.517 192.381 153.89 192.568C154.109 192.381 154.389 192.288 154.73 192.288C155.173 192.288 155.621 192.419 156.074 192.68V198H155.442V192.984C155.218 192.899 155.005 192.856 154.802 192.856C154.365 192.856 154.146 193.096 154.146 193.576V193.944H155.034V194.456H154.146V198H153.514V194.456H152.146V198H151.514V194.456H150.818V193.944H151.514ZM157.272 198V193.944H157.904V198H157.272ZM157.288 192.968C157.214 192.888 157.176 192.789 157.176 192.672C157.176 192.555 157.214 192.456 157.288 192.376C157.368 192.296 157.467 192.256 157.584 192.256C157.702 192.256 157.8 192.296 157.88 192.376C157.96 192.456 158 192.555 158 192.672C158 192.789 157.96 192.888 157.88 192.968C157.8 193.043 157.702 193.08 157.584 193.08C157.467 193.08 157.368 193.043 157.288 192.968ZM159.731 193.944V194.648C159.971 194.141 160.398 193.888 161.011 193.888C161.406 193.888 161.721 194.008 161.955 194.248C162.19 194.488 162.307 194.808 162.307 195.208V198H161.675V195.376C161.675 195.077 161.598 194.851 161.443 194.696C161.294 194.536 161.097 194.456 160.851 194.456C160.547 194.456 160.283 194.573 160.059 194.808C159.841 195.043 159.731 195.368 159.731 195.784V198H159.107V193.944H159.731ZM166.012 195.712V195.552C166.012 195.216 165.921 194.949 165.74 194.752C165.558 194.549 165.308 194.448 164.988 194.448C164.684 194.448 164.425 194.557 164.212 194.776C163.998 194.995 163.873 195.307 163.836 195.712H166.012ZM166.388 197.2V197.792C166.073 197.957 165.689 198.04 165.236 198.04C164.622 198.04 164.126 197.853 163.748 197.48C163.374 197.101 163.188 196.603 163.188 195.984C163.188 195.339 163.356 194.829 163.692 194.456C164.028 194.083 164.46 193.896 164.988 193.896C165.494 193.896 165.897 194.059 166.196 194.384C166.494 194.709 166.644 195.171 166.644 195.768C166.644 195.939 166.63 196.096 166.604 196.24H163.836C163.884 196.64 164.036 196.947 164.292 197.16C164.548 197.373 164.884 197.48 165.3 197.48C165.753 197.48 166.116 197.387 166.388 197.2Z" fill="#2B2B2B"/>
<circle cx="177" cy="196" r="3" fill="#CCCCCC"/>
<mask id="path-45-inside-8_1124_4113" fill="white">
<path d="M16 210H192V234H16V210Z"/>
</mask>
<path d="M192 233H16V235H192V233Z" fill="#CCCCCC" mask="url(#path-45-inside-8_1124_4113)"/>
<g clip-path="url(#clip8_1124_4113)">
<path d="M41.5266 226.48C40.8 225.527 39.84 224.773 38.7466 224.3C38.5533 224.22 38.4866 224.047 38.4666 223.96C38.4266 223.787 38.4666 223.6 38.5866 223.46C39.3066 222.593 39.74 221.453 39.74 220.407C39.74 218.347 38.0666 216.673 36.0066 216.673C33.9466 216.673 32.2733 218.347 32.2733 220.407C32.2733 221.453 32.7066 222.593 33.4266 223.46C33.54 223.6 33.5866 223.787 33.5466 223.96C33.5266 224.053 33.46 224.22 33.2666 224.3C32.1733 224.773 31.2066 225.527 30.48 226.48C30.3 226.713 30.3466 227.047 30.58 227.227C30.68 227.3 30.7933 227.333 30.9 227.333C31.06 227.333 31.22 227.26 31.3266 227.12C31.94 226.313 32.7533 225.673 33.6866 225.273C34.14 225.08 34.4666 224.687 34.58 224.2C34.7 223.7 34.58 223.167 34.2466 222.767C33.6866 222.093 33.34 221.187 33.34 220.393C33.34 218.92 34.5333 217.727 36.0066 217.727C37.48 217.727 38.6733 218.92 38.6733 220.393C38.6733 221.187 38.3266 222.093 37.7666 222.767C37.2466 223.387 36.6266 223.727 36.0066 223.727C35.7133 223.727 35.4733 223.967 35.4733 224.26C35.4733 224.553 35.7133 224.793 36.0066 224.793C36.52 224.793 37.0266 224.647 37.4933 224.373C37.64 224.773 37.9266 225.1 38.3266 225.267C39.2533 225.667 40.0666 226.307 40.6866 227.113C40.7933 227.253 40.9533 227.327 41.1133 227.327C41.2266 227.327 41.34 227.293 41.4333 227.22C41.6666 227.04 41.7133 226.707 41.5333 226.473L41.5266 226.48Z" fill="#2B2B2B"/>
</g>
<path d="M53.576 219.176H51.264V221.088H53.296V221.656H51.264V224H50.616V218.608H53.576V219.176ZM56.1461 224.072C55.5647 224.072 55.1034 223.877 54.7621 223.488C54.4261 223.093 54.2581 222.597 54.2581 222C54.2581 221.397 54.4314 220.896 54.7781 220.496C55.1301 220.091 55.5861 219.888 56.1461 219.888C56.7594 219.888 57.2314 220.085 57.5621 220.48C57.8981 220.875 58.0661 221.376 58.0661 221.984C58.0661 222.587 57.8954 223.085 57.5541 223.48C57.2127 223.875 56.7434 224.072 56.1461 224.072ZM56.1461 220.448C55.7621 220.448 55.4607 220.597 55.2421 220.896C55.0234 221.195 54.9141 221.56 54.9141 221.992C54.9141 222.413 55.0261 222.773 55.2501 223.072C55.4741 223.365 55.7727 223.512 56.1461 223.512C56.5514 223.512 56.8634 223.368 57.0821 223.08C57.3007 222.787 57.4101 222.424 57.4101 221.992C57.4101 221.544 57.3061 221.176 57.0981 220.888C56.8901 220.595 56.5727 220.448 56.1461 220.448ZM61.1983 220.08V220.68C60.9529 220.531 60.6169 220.456 60.1903 220.456C59.9769 220.456 59.8063 220.507 59.6783 220.608C59.5556 220.704 59.4943 220.829 59.4943 220.984C59.4943 221.08 59.5129 221.165 59.5503 221.24C59.5876 221.309 59.6596 221.379 59.7663 221.448C59.8783 221.517 59.9583 221.565 60.0063 221.592C60.0596 221.613 60.1716 221.661 60.3423 221.736C60.6836 221.875 60.9503 222.032 61.1423 222.208C61.3343 222.384 61.4303 222.621 61.4303 222.92C61.4303 223.267 61.3076 223.541 61.0623 223.744C60.8223 223.947 60.4916 224.048 60.0703 224.048C59.5796 224.048 59.1823 223.965 58.8783 223.8V223.184C59.2356 223.397 59.6196 223.504 60.0303 223.504C60.2756 223.504 60.4623 223.456 60.5903 223.36C60.7183 223.264 60.7823 223.133 60.7823 222.968C60.7823 222.776 60.7103 222.627 60.5663 222.52C60.4276 222.413 60.1929 222.293 59.8623 222.16C59.5583 222.043 59.3129 221.896 59.1263 221.72C58.9449 221.544 58.8543 221.307 58.8543 221.008C58.8543 220.672 58.9796 220.405 59.2303 220.208C59.4863 220.005 59.8036 219.904 60.1823 219.904C60.6036 219.904 60.9423 219.963 61.1983 220.08ZM63.1591 220.456V222.832C63.1591 223.264 63.3618 223.48 63.7671 223.48C63.9751 223.48 64.1591 223.419 64.3191 223.296V223.896C64.1431 223.992 63.9458 224.04 63.7271 224.04C62.9271 224.04 62.5271 223.632 62.5271 222.816V220.456H61.8791V219.944H62.5271V218.936H63.1591V219.944H64.2791V220.456H63.1591ZM67.8243 221.712V221.552C67.8243 221.216 67.7336 220.949 67.5523 220.752C67.3709 220.549 67.1203 220.448 66.8003 220.448C66.4963 220.448 66.2376 220.557 66.0243 220.776C65.8109 220.995 65.6856 221.307 65.6483 221.712H67.8243ZM68.2003 223.2V223.792C67.8856 223.957 67.5016 224.04 67.0483 224.04C66.4349 224.04 65.9389 223.853 65.5603 223.48C65.1869 223.101 65.0003 222.603 65.0003 221.984C65.0003 221.339 65.1683 220.829 65.5043 220.456C65.8403 220.083 66.2723 219.896 66.8003 219.896C67.3069 219.896 67.7096 220.059 68.0083 220.384C68.3069 220.709 68.4563 221.171 68.4563 221.768C68.4563 221.939 68.4429 222.096 68.4163 222.24H65.6483C65.6963 222.64 65.8483 222.947 66.1043 223.16C66.3603 223.373 66.6963 223.48 67.1123 223.48C67.5656 223.48 67.9283 223.387 68.2003 223.2ZM70.0439 219.944V220.656C70.2573 220.155 70.6253 219.904 71.1479 219.904C71.2439 219.904 71.3186 219.909 71.3719 219.92V220.544C71.2599 220.507 71.1453 220.488 71.0279 220.488C70.7453 220.488 70.5106 220.619 70.3239 220.88C70.1373 221.141 70.0439 221.443 70.0439 221.784V224H69.4119L69.4199 219.944H70.0439ZM73.7824 221.28C73.7824 220.432 73.9984 219.757 74.4304 219.256C74.8678 218.755 75.4571 218.504 76.1984 218.504C76.9558 218.504 77.5478 218.755 77.9744 219.256C78.4064 219.752 78.6224 220.427 78.6224 221.28C78.6224 222.128 78.4038 222.805 77.9664 223.312C77.5344 223.813 76.9478 224.064 76.2064 224.064C75.4758 224.064 74.8891 223.811 74.4464 223.304C74.0038 222.797 73.7824 222.123 73.7824 221.28ZM74.4624 221.28C74.4624 221.947 74.6198 222.475 74.9344 222.864C75.2544 223.253 75.6784 223.448 76.2064 223.448C76.7558 223.448 77.1798 223.256 77.4784 222.872C77.7824 222.488 77.9344 221.957 77.9344 221.28C77.9344 220.603 77.7824 220.072 77.4784 219.688C77.1744 219.304 76.7478 219.112 76.1984 219.112C75.6544 219.112 75.2278 219.307 74.9184 219.696C74.6144 220.08 74.4624 220.608 74.4624 221.28ZM79.616 224V218.344H80.248V224H79.616ZM81.4832 224V219.944H82.1152V224H81.4832ZM81.4992 218.968C81.4245 218.888 81.3872 218.789 81.3872 218.672C81.3872 218.555 81.4245 218.456 81.4992 218.376C81.5792 218.296 81.6779 218.256 81.7952 218.256C81.9125 218.256 82.0112 218.296 82.0912 218.376C82.1712 218.456 82.2112 218.555 82.2112 218.672C82.2112 218.789 82.1712 218.888 82.0912 218.968C82.0112 219.043 81.9125 219.08 81.7952 219.08C81.6779 219.08 81.5792 219.043 81.4992 218.968ZM84.3504 224L82.9344 219.944H83.5904L84.1504 221.656L84.7424 223.504C84.7904 223.275 84.9904 222.659 85.3424 221.656L85.9184 219.944H86.5744L85.1264 224H84.3504ZM87.3894 224V219.944H88.0214V224H87.3894ZM87.4054 218.968C87.3308 218.888 87.2934 218.789 87.2934 218.672C87.2934 218.555 87.3308 218.456 87.4054 218.376C87.4854 218.296 87.5841 218.256 87.7014 218.256C87.8188 218.256 87.9174 218.296 87.9974 218.376C88.0774 218.456 88.1174 218.555 88.1174 218.672C88.1174 218.789 88.0774 218.888 87.9974 218.968C87.9174 219.043 87.8188 219.08 87.7014 219.08C87.5841 219.08 87.4854 219.043 87.4054 218.968ZM91.4086 222.128H90.7046C90.3633 222.128 90.1073 222.195 89.9366 222.328C89.766 222.461 89.6806 222.629 89.6806 222.832C89.6806 223.035 89.7473 223.2 89.8806 223.328C90.014 223.451 90.2086 223.512 90.4646 223.512C90.7526 223.512 90.982 223.432 91.1526 223.272C91.3233 223.107 91.4086 222.899 91.4086 222.648V222.128ZM89.3126 220.792V220.16C89.6166 219.973 90.0166 219.88 90.5126 219.88C91.5313 219.88 92.0406 220.397 92.0406 221.432V224H91.4166V223.52C91.2086 223.867 90.83 224.04 90.2806 224.04C89.902 224.04 89.5953 223.928 89.3606 223.704C89.1313 223.48 89.0166 223.197 89.0166 222.856C89.0166 222.467 89.1633 222.165 89.4566 221.952C89.7553 221.733 90.1606 221.624 90.6726 221.624H91.4086V221.416C91.4086 221.096 91.3366 220.856 91.1926 220.696C91.0486 220.531 90.806 220.448 90.4646 220.448C90.0326 220.448 89.6486 220.563 89.3126 220.792Z" fill="#2B2B2B"/>
<path d="M145.361 221.28C145.361 220.432 145.577 219.757 146.009 219.256C146.446 218.755 147.035 218.504 147.777 218.504C148.534 218.504 149.126 218.755 149.553 219.256C149.985 219.752 150.201 220.427 150.201 221.28C150.201 222.128 149.982 222.805 149.545 223.312C149.113 223.813 148.526 224.064 147.785 224.064C147.054 224.064 146.467 223.811 146.025 223.304C145.582 222.797 145.361 222.123 145.361 221.28ZM146.041 221.28C146.041 221.947 146.198 222.475 146.513 222.864C146.833 223.253 147.257 223.448 147.785 223.448C148.334 223.448 148.758 223.256 149.057 222.872C149.361 222.488 149.513 221.957 149.513 221.28C149.513 220.603 149.361 220.072 149.057 219.688C148.753 219.304 148.326 219.112 147.777 219.112C147.233 219.112 146.806 219.307 146.497 219.696C146.193 220.08 146.041 220.608 146.041 221.28ZM153.514 219.944V219.568C153.514 219.365 153.541 219.187 153.594 219.032C153.333 218.915 153.066 218.856 152.794 218.856C152.362 218.856 152.146 219.096 152.146 219.576V219.944H153.514ZM151.514 219.944V219.568C151.514 219.173 151.621 218.861 151.834 218.632C152.053 218.403 152.365 218.288 152.77 218.288C153.143 218.288 153.517 218.381 153.89 218.568C154.109 218.381 154.389 218.288 154.73 218.288C155.173 218.288 155.621 218.419 156.074 218.68V224H155.442V218.984C155.218 218.899 155.005 218.856 154.802 218.856C154.365 218.856 154.146 219.096 154.146 219.576V219.944H155.034V220.456H154.146V224H153.514V220.456H152.146V224H151.514V220.456H150.818V219.944H151.514ZM157.272 224V219.944H157.904V224H157.272ZM157.288 218.968C157.214 218.888 157.176 218.789 157.176 218.672C157.176 218.555 157.214 218.456 157.288 218.376C157.368 218.296 157.467 218.256 157.584 218.256C157.702 218.256 157.8 218.296 157.88 218.376C157.96 218.456 158 218.555 158 218.672C158 218.789 157.96 218.888 157.88 218.968C157.8 219.043 157.702 219.08 157.584 219.08C157.467 219.08 157.368 219.043 157.288 218.968ZM159.731 219.944V220.648C159.971 220.141 160.398 219.888 161.011 219.888C161.406 219.888 161.721 220.008 161.955 220.248C162.19 220.488 162.307 220.808 162.307 221.208V224H161.675V221.376C161.675 221.077 161.598 220.851 161.443 220.696C161.294 220.536 161.097 220.456 160.851 220.456C160.547 220.456 160.283 220.573 160.059 220.808C159.841 221.043 159.731 221.368 159.731 221.784V224H159.107V219.944H159.731ZM166.012 221.712V221.552C166.012 221.216 165.921 220.949 165.74 220.752C165.558 220.549 165.308 220.448 164.988 220.448C164.684 220.448 164.425 220.557 164.212 220.776C163.998 220.995 163.873 221.307 163.836 221.712H166.012ZM166.388 223.2V223.792C166.073 223.957 165.689 224.04 165.236 224.04C164.622 224.04 164.126 223.853 163.748 223.48C163.374 223.101 163.188 222.603 163.188 221.984C163.188 221.339 163.356 220.829 163.692 220.456C164.028 220.083 164.46 219.896 164.988 219.896C165.494 219.896 165.897 220.059 166.196 220.384C166.494 220.709 166.644 221.171 166.644 221.768C166.644 221.939 166.63 222.096 166.604 222.24H163.836C163.884 222.64 164.036 222.947 164.292 223.16C164.548 223.373 164.884 223.48 165.3 223.48C165.753 223.48 166.116 223.387 166.388 223.2Z" fill="#2B2B2B"/>
<circle cx="177" cy="222" r="3" fill="#CCCCCC"/>
<mask id="path-51-inside-9_1124_4113" fill="white">
<path d="M16 236H192V260H16V236Z"/>
</mask>
<path d="M192 259H16V261H192V259Z" fill="#CCCCCC" mask="url(#path-51-inside-9_1124_4113)"/>
<g clip-path="url(#clip9_1124_4113)">
<path d="M41.5266 252.48C40.8 251.527 39.84 250.773 38.7466 250.3C38.5533 250.22 38.4866 250.047 38.4666 249.96C38.4266 249.787 38.4666 249.6 38.5866 249.46C39.3066 248.593 39.74 247.453 39.74 246.407C39.74 244.347 38.0666 242.673 36.0066 242.673C33.9466 242.673 32.2733 244.347 32.2733 246.407C32.2733 247.453 32.7066 248.593 33.4266 249.46C33.54 249.6 33.5866 249.787 33.5466 249.96C33.5266 250.053 33.46 250.22 33.2666 250.3C32.1733 250.773 31.2066 251.527 30.48 252.48C30.3 252.713 30.3466 253.047 30.58 253.227C30.68 253.3 30.7933 253.333 30.9 253.333C31.06 253.333 31.22 253.26 31.3266 253.12C31.94 252.313 32.7533 251.673 33.6866 251.273C34.14 251.08 34.4666 250.687 34.58 250.2C34.7 249.7 34.58 249.167 34.2466 248.767C33.6866 248.093 33.34 247.187 33.34 246.393C33.34 244.92 34.5333 243.727 36.0066 243.727C37.48 243.727 38.6733 244.92 38.6733 246.393C38.6733 247.187 38.3266 248.093 37.7666 248.767C37.2466 249.387 36.6266 249.727 36.0066 249.727C35.7133 249.727 35.4733 249.967 35.4733 250.26C35.4733 250.553 35.7133 250.793 36.0066 250.793C36.52 250.793 37.0266 250.647 37.4933 250.373C37.64 250.773 37.9266 251.1 38.3266 251.267C39.2533 251.667 40.0666 252.307 40.6866 253.113C40.7933 253.253 40.9533 253.327 41.1133 253.327C41.2266 253.327 41.34 253.293 41.4333 253.22C41.6666 253.04 41.7133 252.707 41.5333 252.473L41.5266 252.48Z" fill="#2B2B2B"/>
</g>
</g>
<path d="M192 243H16V245H192V243Z" fill="#CCCCCC" mask="url(#path-13-inside-2_1124_4113)"/>
<defs>
<filter id="filter0_d_1124_4113" x="-4" y="-2" width="216" height="56" filterUnits="userSpaceOnUse" color-interpolation-filters="sRGB">
<feFlood flood-opacity="0" result="BackgroundImageFix"/>
<feColorMatrix in="SourceAlpha" type="matrix" values="0 0 0 0 0 0 0 0 0 0 0 0 0 0 0 0 0 0 127 0" result="hardAlpha"/>
<feOffset dy="2"/>
<feGaussianBlur stdDeviation="2"/>
<feComposite in2="hardAlpha" operator="out"/>
<feColorMatrix type="matrix" values="0 0 0 0 0.168627 0 0 0 0 0.168627 0 0 0 0 0.168627 0 0 0 0.24 0"/>
<feBlend mode="normal" in2="BackgroundImageFix" result="effect1_dropShadow_1124_4113"/>
<feBlend mode="normal" in="SourceGraphic" in2="effect1_dropShadow_1124_4113" result="shape"/>
</filter>
<clipPath id="clip0_1124_4113">
<rect width="24" height="24" fill="white" transform="translate(16 16)"/>
</clipPath>
<clipPath id="clip1_1124_4113">
<rect width="24" height="24" fill="white" transform="translate(182 2)"/>
</clipPath>
<clipPath id="clip2_1124_4113">
<path d="M16 80H192V244H16V80Z" fill="white"/>
</clipPath>
<clipPath id="clip3_1124_4113">
<rect width="16" height="16" fill="white" transform="translate(28 84)"/>
</clipPath>
<clipPath id="clip4_1124_4113">
<rect width="16" height="16" fill="white" transform="translate(28 110)"/>
</clipPath>
<clipPath id="clip5_1124_4113">
<rect width="16" height="16" fill="white" transform="translate(28 136)"/>
</clipPath>
<clipPath id="clip6_1124_4113">
<rect width="16" height="16" fill="white" transform="translate(28 162)"/>
</clipPath>
<clipPath id="clip7_1124_4113">
<rect width="16" height="16" fill="white" transform="translate(28 188)"/>
</clipPath>
<clipPath id="clip8_1124_4113">
<rect width="16" height="16" fill="white" transform="translate(28 214)"/>
</clipPath>
<clipPath id="clip9_1124_4113">
<rect width="16" height="16" fill="white" transform="translate(28 240)"/>
</clipPath>
</defs>
</svg>
