<svg width="2233" height="124" viewBox="0 0 2233 124" fill="none" xmlns="http://www.w3.org/2000/svg">
<rect width="2233" height="124" fill="#D3D3D3"/>
<rect width="2233" height="124" fill="#1699D9"/>
<path d="M83.1068 70.128H88.2908C93.1548 70.128 95.5868 68.464 95.5868 65.136C95.5868 61.808 93.1762 60.144 88.3548 60.144H83.1068V70.128ZM83.1068 42.736V52.4H86.7548C89.3148 52.4 91.2348 51.9307 92.5148 50.992C93.8375 50.0533 94.4988 48.816 94.4988 47.28C94.4988 44.2507 92.4508 42.736 88.3548 42.736H83.1068ZM73.2508 34.864H90.0188C94.7548 34.864 98.3602 35.9947 100.835 38.256C103.309 40.4747 104.547 43.312 104.547 46.768C104.547 49.0293 103.949 51.0133 102.755 52.72C101.56 54.4267 100.003 55.5787 98.0828 56.176C103.075 57.6693 105.571 61.04 105.571 66.288C105.571 69.7013 104.333 72.5173 101.859 74.736C99.4268 76.912 96.0988 78 91.8748 78H73.2508V34.864ZM126.017 78.512C120.939 78.512 117.014 76.9973 114.241 73.968C111.467 70.896 110.081 66.9707 110.081 62.192C110.081 57.2 111.531 53.104 114.433 49.904C117.334 46.6613 121.195 45.04 126.017 45.04C131.051 45.04 134.955 46.5973 137.729 49.712C140.502 52.8267 141.889 56.7947 141.889 61.616C141.889 66.5227 140.481 70.576 137.665 73.776C134.891 76.9333 131.009 78.512 126.017 78.512ZM125.953 52.4C123.905 52.4 122.369 53.2747 121.345 55.024C120.321 56.7733 119.809 59.0347 119.809 61.808C119.809 64.5813 120.321 66.864 121.345 68.656C122.411 70.4053 123.99 71.28 126.081 71.28C128.129 71.28 129.643 70.4267 130.625 68.72C131.649 66.9707 132.161 64.7093 132.161 61.936C132.161 55.5787 130.091 52.4 125.953 52.4ZM164.057 64.688H161.049C159.471 64.688 158.255 65.0293 157.401 65.712C156.548 66.3947 156.121 67.2693 156.121 68.336C156.121 70.512 157.38 71.6 159.897 71.6C161.22 71.6 162.244 71.1947 162.969 70.384C163.695 69.5733 164.057 68.464 164.057 67.056V64.688ZM148.889 55.536V47.152C151.449 45.7013 155.14 44.976 159.961 44.976C164.569 44.976 168.004 45.9787 170.265 47.984C172.527 49.9467 173.657 53.0187 173.657 57.2V78H164.505V74.032C163.14 76.8053 160.452 78.192 156.441 78.192C153.284 78.192 150.809 77.296 149.017 75.504C147.268 73.712 146.393 71.472 146.393 68.784C146.393 65.6693 147.524 63.2587 149.785 61.552C152.089 59.8027 155.481 58.928 159.961 58.928H164.057V56.688C164.057 53.9573 162.244 52.592 158.617 52.592C155.119 52.592 151.876 53.5733 148.889 55.536ZM190.273 45.552V51.568C190.871 49.6907 191.852 48.1973 193.217 47.088C194.625 45.936 196.247 45.36 198.081 45.36C199.105 45.36 199.916 45.4453 200.513 45.616V54.448C199.489 53.9787 198.316 53.744 196.993 53.744C194.988 53.744 193.367 54.4907 192.129 55.984C190.892 57.4347 190.273 59.376 190.273 61.808V78H180.929L180.993 45.552H190.273ZM219.593 70.576C221.726 70.576 223.454 69.744 224.777 68.08C226.099 66.416 226.761 64.1973 226.761 61.424C226.761 58.736 226.035 56.6453 224.585 55.152C223.177 53.6587 221.491 52.912 219.529 52.912C217.566 52.912 215.902 53.7013 214.537 55.28C213.214 56.8587 212.553 59.056 212.553 61.872C212.553 64.4747 213.235 66.5867 214.601 68.208C215.966 69.7867 217.63 70.576 219.593 70.576ZM226.761 32.752H236.105V78H226.761V72.944C224.585 76.5707 221.342 78.384 217.033 78.384C212.809 78.384 209.417 76.7413 206.857 73.456C204.339 70.1707 203.081 66.2453 203.081 61.68C203.081 56.56 204.403 52.528 207.049 49.584C209.694 46.64 213.043 45.168 217.097 45.168C221.321 45.168 224.542 46.96 226.761 50.544V32.752Z" fill="white"/>
</svg>
