<svg width="2233" height="124" viewBox="0 0 2233 124" fill="none" xmlns="http://www.w3.org/2000/svg">
<rect width="2233" height="124" fill="#D3D3D3"/>
<rect width="2233" height="124" fill="#FF1934"/>
<path d="M109.32 34.864L94.408 62.128V78H84.552V62.192L69.832 34.864H81.352L83.976 41.136C85.3413 44.3787 86.472 47.152 87.368 49.456C88.264 51.76 88.84 53.2533 89.096 53.936L89.416 54.96C89.8427 53.04 91.72 48.432 95.048 41.136L97.864 34.864H109.32ZM132.717 58.8V58.032C132.418 54.2347 130.754 52.336 127.725 52.336C126.232 52.336 124.909 52.8907 123.757 54C122.605 55.0667 121.837 56.6667 121.453 58.8H132.717ZM139.437 68.336V76.144C137.218 77.5947 133.826 78.32 129.261 78.32C123.928 78.32 119.768 76.784 116.781 73.712C113.837 70.5973 112.365 66.608 112.365 61.744C112.365 56.5813 113.794 52.5493 116.653 49.648C119.554 46.704 123.117 45.232 127.341 45.232C131.693 45.232 135.128 46.512 137.645 49.072C140.162 51.5893 141.421 55.3653 141.421 60.4C141.421 61.3813 141.25 63.0667 140.909 65.456H121.837C122.477 67.248 123.586 68.6347 125.165 69.616C126.744 70.5973 128.642 71.088 130.861 71.088C134.146 71.088 137.005 70.1707 139.437 68.336ZM164.154 64.688H161.146C159.567 64.688 158.351 65.0293 157.498 65.712C156.645 66.3947 156.218 67.2693 156.218 68.336C156.218 70.512 157.477 71.6 159.994 71.6C161.317 71.6 162.341 71.1947 163.066 70.384C163.791 69.5733 164.154 68.464 164.154 67.056V64.688ZM148.986 55.536V47.152C151.546 45.7013 155.237 44.976 160.058 44.976C164.666 44.976 168.101 45.9787 170.362 47.984C172.623 49.9467 173.754 53.0187 173.754 57.2V78H164.602V74.032C163.237 76.8053 160.549 78.192 156.538 78.192C153.381 78.192 150.906 77.296 149.114 75.504C147.365 73.712 146.49 71.472 146.49 68.784C146.49 65.6693 147.621 63.2587 149.882 61.552C152.186 59.8027 155.578 58.928 160.058 58.928H164.154V56.688C164.154 53.9573 162.341 52.592 158.714 52.592C155.215 52.592 151.973 53.5733 148.986 55.536ZM190.37 45.552V51.568C190.967 49.6907 191.949 48.1973 193.314 47.088C194.722 45.936 196.343 45.36 198.178 45.36C199.202 45.36 200.013 45.4453 200.61 45.616V54.448C199.586 53.9787 198.413 53.744 197.09 53.744C195.085 53.744 193.463 54.4907 192.226 55.984C190.989 57.4347 190.37 59.376 190.37 61.808V78H181.026L181.09 45.552H190.37ZM231.018 70.128H247.914V78H221.098V34.864H247.658V42.736H231.018V52.528H245.866V60.336H231.018V70.128ZM264.934 45.552V51.056C265.745 49.264 266.982 47.856 268.646 46.832C270.353 45.7653 272.379 45.232 274.726 45.232C278.054 45.232 280.657 46.2347 282.534 48.24C284.411 50.2027 285.35 53.104 285.35 56.944V78H276.006V58.672C276.006 56.752 275.558 55.3013 274.662 54.32C273.766 53.296 272.507 52.784 270.886 52.784C269.179 52.784 267.75 53.4667 266.598 54.832C265.489 56.1547 264.934 58.16 264.934 60.848V78H255.59V45.552H264.934ZM307.627 70.576C309.76 70.576 311.488 69.744 312.811 68.08C314.134 66.416 314.795 64.1973 314.795 61.424C314.795 58.736 314.07 56.6453 312.619 55.152C311.211 53.6587 309.526 52.912 307.563 52.912C305.6 52.912 303.936 53.7013 302.571 55.28C301.248 56.8587 300.587 59.056 300.587 61.872C300.587 64.4747 301.27 66.5867 302.635 68.208C304 69.7867 305.664 70.576 307.627 70.576ZM314.795 32.752H324.139V78H314.795V72.944C312.619 76.5707 309.376 78.384 305.067 78.384C300.843 78.384 297.451 76.7413 294.891 73.456C292.374 70.1707 291.115 66.2453 291.115 61.68C291.115 56.56 292.438 52.528 295.083 49.584C297.728 46.64 301.078 45.168 305.131 45.168C309.355 45.168 312.576 46.96 314.795 50.544V32.752ZM358.016 70.128H363.2C368.064 70.128 370.496 68.464 370.496 65.136C370.496 61.808 368.085 60.144 363.264 60.144H358.016V70.128ZM358.016 42.736V52.4H361.664C364.224 52.4 366.144 51.9307 367.424 50.992C368.747 50.0533 369.408 48.816 369.408 47.28C369.408 44.2507 367.36 42.736 363.264 42.736H358.016ZM348.16 34.864H364.928C369.664 34.864 373.269 35.9947 375.744 38.256C378.219 40.4747 379.456 43.312 379.456 46.768C379.456 49.0293 378.859 51.0133 377.664 52.72C376.469 54.4267 374.912 55.5787 372.992 56.176C377.984 57.6693 380.48 61.04 380.48 66.288C380.48 69.7013 379.243 72.5173 376.768 74.736C374.336 76.912 371.008 78 366.784 78H348.16V34.864ZM400.926 78.512C395.849 78.512 391.923 76.9973 389.15 73.968C386.377 70.896 384.99 66.9707 384.99 62.192C384.99 57.2 386.441 53.104 389.342 49.904C392.243 46.6613 396.105 45.04 400.926 45.04C405.961 45.04 409.865 46.5973 412.638 49.712C415.411 52.8267 416.798 56.7947 416.798 61.616C416.798 66.5227 415.39 70.576 412.574 73.776C409.801 76.9333 405.918 78.512 400.926 78.512ZM400.862 52.4C398.814 52.4 397.278 53.2747 396.254 55.024C395.23 56.7733 394.718 59.0347 394.718 61.808C394.718 64.5813 395.23 66.864 396.254 68.656C397.321 70.4053 398.899 71.28 400.99 71.28C403.038 71.28 404.553 70.4267 405.534 68.72C406.558 66.9707 407.07 64.7093 407.07 61.936C407.07 55.5787 405.001 52.4 400.862 52.4ZM432.247 45.552V51.056C433.057 49.264 434.295 47.856 435.958 46.832C437.665 45.7653 439.692 45.232 442.039 45.232C445.367 45.232 447.969 46.2347 449.847 48.24C451.724 50.2027 452.663 53.104 452.663 56.944V78H443.319V58.672C443.319 56.752 442.871 55.3013 441.975 54.32C441.079 53.296 439.82 52.784 438.199 52.784C436.492 52.784 435.063 53.4667 433.911 54.832C432.801 56.1547 432.247 58.16 432.247 60.848V78H422.903V45.552H432.247ZM480.124 45.552H489.468V78H480.124V72.816C478.417 76.4427 475.132 78.256 470.268 78.256C466.94 78.256 464.337 77.3387 462.46 75.504C460.625 73.6267 459.708 70.8747 459.708 67.248V45.552H469.052V65.136C469.052 68.9333 470.716 70.832 474.044 70.832C478.097 70.832 480.124 68.1227 480.124 62.704V45.552ZM517.633 46.512V54.512C515.371 53.1893 512.726 52.528 509.697 52.528C508.587 52.528 507.734 52.7627 507.137 53.232C506.539 53.6587 506.241 54.2133 506.241 54.896C506.241 55.28 506.347 55.6427 506.561 55.984C506.774 56.3253 507.115 56.6453 507.585 56.944C508.097 57.2427 508.566 57.52 508.993 57.776C509.462 57.9893 510.081 58.2667 510.849 58.608C511.659 58.9493 512.299 59.248 512.769 59.504C514.731 60.528 516.31 61.7227 517.505 63.088C518.699 64.4107 519.297 66.1173 519.297 68.208C519.297 71.408 518.145 73.8827 515.841 75.632C513.537 77.3813 510.486 78.256 506.689 78.256C502.763 78.256 499.478 77.5947 496.833 76.272V67.952C499.777 70 502.891 71.024 506.177 71.024C508.523 71.024 509.697 70.2773 509.697 68.784C509.697 68.4 509.59 68.0373 509.377 67.696C509.163 67.3547 508.801 67.0347 508.289 66.736C507.777 66.4373 507.307 66.2027 506.881 66.032C506.454 65.8187 505.835 65.5413 505.025 65.2C504.214 64.8587 503.595 64.5813 503.169 64.368C498.859 62.32 496.705 59.248 496.705 55.152C496.705 51.9947 497.899 49.5413 500.289 47.792C502.721 46.0427 505.729 45.168 509.312 45.168C512.641 45.168 515.414 45.616 517.633 46.512Z" fill="white"/>
</svg>
