<svg width="1350" height="124" viewBox="0 0 1350 124" fill="none" xmlns="http://www.w3.org/2000/svg">
<rect width="1350" height="124" fill="#D3D3D3"/>
<rect width="1350" height="124" fill="#1699D9"/>
<path d="M159.235 70.128H164.419C169.283 70.128 171.715 68.464 171.715 65.136C171.715 61.808 169.304 60.144 164.483 60.144H159.235V70.128ZM159.235 42.736V52.4H162.883C165.443 52.4 167.363 51.9307 168.643 50.992C169.965 50.0533 170.627 48.816 170.627 47.28C170.627 44.2507 168.579 42.736 164.483 42.736H159.235ZM149.379 34.864H166.147C170.883 34.864 174.488 35.9947 176.963 38.256C179.437 40.4747 180.675 43.312 180.675 46.768C180.675 49.0293 180.077 51.0133 178.883 52.72C177.688 54.4267 176.131 55.5787 174.211 56.176C179.203 57.6693 181.699 61.04 181.699 66.288C181.699 69.7013 180.461 72.5173 177.987 74.736C175.555 76.912 172.227 78 168.003 78H149.379V34.864ZM207.905 45.552H217.249V78H207.905V72.816C206.198 76.4427 202.913 78.256 198.049 78.256C194.721 78.256 192.118 77.3387 190.241 75.504C188.406 73.6267 187.489 70.8747 187.489 67.248V45.552H196.833V65.136C196.833 68.9333 198.497 70.832 201.825 70.832C205.878 70.832 207.905 68.1227 207.905 62.704V45.552ZM245.414 46.512V54.512C243.152 53.1893 240.507 52.528 237.478 52.528C236.368 52.528 235.515 52.7627 234.918 53.232C234.32 53.6587 234.022 54.2133 234.022 54.896C234.022 55.28 234.128 55.6427 234.342 55.984C234.555 56.3253 234.896 56.6453 235.366 56.944C235.878 57.2427 236.347 57.52 236.774 57.776C237.243 57.9893 237.862 58.2667 238.63 58.608C239.44 58.9493 240.08 59.248 240.55 59.504C242.512 60.528 244.091 61.7227 245.286 63.088C246.48 64.4107 247.078 66.1173 247.078 68.208C247.078 71.408 245.926 73.8827 243.622 75.632C241.318 77.3813 238.267 78.256 234.47 78.256C230.544 78.256 227.259 77.5947 224.614 76.272V67.952C227.558 70 230.672 71.024 233.958 71.024C236.304 71.024 237.478 70.2773 237.478 68.784C237.478 68.4 237.371 68.0373 237.158 67.696C236.944 67.3547 236.582 67.0347 236.07 66.736C235.558 66.4373 235.088 66.2027 234.662 66.032C234.235 65.8187 233.616 65.5413 232.806 65.2C231.995 64.8587 231.376 64.5813 230.95 64.368C226.64 62.32 224.486 59.248 224.486 55.152C224.486 51.9947 225.68 49.5413 228.07 47.792C230.502 46.0427 233.51 45.168 237.094 45.168C240.422 45.168 243.195 45.616 245.414 46.512ZM253.129 78V45.552H262.473V78H253.129ZM253.961 39.984C252.894 38.9173 252.361 37.6373 252.361 36.144C252.361 34.6507 252.894 33.3707 253.961 32.304C255.027 31.2373 256.307 30.704 257.801 30.704C259.294 30.704 260.574 31.2373 261.641 32.304C262.707 33.3707 263.241 34.6507 263.241 36.144C263.241 37.6373 262.707 38.9173 261.641 39.984C260.574 41.0507 259.294 41.584 257.801 41.584C256.307 41.584 255.027 41.0507 253.961 39.984ZM279.84 45.552V51.056C280.651 49.264 281.888 47.856 283.552 46.832C285.259 45.7653 287.286 45.232 289.632 45.232C292.96 45.232 295.563 46.2347 297.44 48.24C299.318 50.2027 300.256 53.104 300.256 56.944V78H290.912V58.672C290.912 56.752 290.464 55.3013 289.568 54.32C288.672 53.296 287.414 52.784 285.792 52.784C284.086 52.784 282.656 53.4667 281.504 54.832C280.395 56.1547 279.84 58.16 279.84 60.848V78H270.496V45.552H279.84ZM326.373 58.8V58.032C326.075 54.2347 324.411 52.336 321.381 52.336C319.888 52.336 318.565 52.8907 317.413 54C316.261 55.0667 315.493 56.6667 315.109 58.8H326.373ZM333.093 68.336V76.144C330.875 77.5947 327.483 78.32 322.917 78.32C317.584 78.32 313.424 76.784 310.437 73.712C307.493 70.5973 306.021 66.608 306.021 61.744C306.021 56.5813 307.451 52.5493 310.309 49.648C313.211 46.704 316.773 45.232 320.997 45.232C325.349 45.232 328.784 46.512 331.301 49.072C333.819 51.5893 335.077 55.3653 335.077 60.4C335.077 61.3813 334.907 63.0667 334.565 65.456H315.493C316.133 67.248 317.243 68.6347 318.821 69.616C320.4 70.5973 322.299 71.088 324.517 71.088C327.803 71.088 330.661 70.1707 333.093 68.336ZM362.226 46.512V54.512C359.965 53.1893 357.32 52.528 354.29 52.528C353.181 52.528 352.328 52.7627 351.73 53.232C351.133 53.6587 350.834 54.2133 350.834 54.896C350.834 55.28 350.941 55.6427 351.154 55.984C351.368 56.3253 351.709 56.6453 352.178 56.944C352.69 57.2427 353.16 57.52 353.586 57.776C354.056 57.9893 354.674 58.2667 355.442 58.608C356.253 58.9493 356.893 59.248 357.362 59.504C359.325 60.528 360.904 61.7227 362.098 63.088C363.293 64.4107 363.89 66.1173 363.89 68.208C363.89 71.408 362.738 73.8827 360.434 75.632C358.13 77.3813 355.08 78.256 351.282 78.256C347.357 78.256 344.072 77.5947 341.426 76.272V67.952C344.37 70 347.485 71.024 350.77 71.024C353.117 71.024 354.29 70.2773 354.29 68.784C354.29 68.4 354.184 68.0373 353.97 67.696C353.757 67.3547 353.394 67.0347 352.882 66.736C352.37 66.4373 351.901 66.2027 351.474 66.032C351.048 65.8187 350.429 65.5413 349.618 65.2C348.808 64.8587 348.189 64.5813 347.762 64.368C343.453 62.32 341.298 59.248 341.298 55.152C341.298 51.9947 342.493 49.5413 344.882 47.792C347.314 46.0427 350.322 45.168 353.906 45.168C357.234 45.168 360.008 45.616 362.226 46.512ZM390.101 46.512V54.512C387.84 53.1893 385.195 52.528 382.165 52.528C381.056 52.528 380.203 52.7627 379.605 53.232C379.008 53.6587 378.709 54.2133 378.709 54.896C378.709 55.28 378.816 55.6427 379.029 55.984C379.243 56.3253 379.584 56.6453 380.053 56.944C380.565 57.2427 381.035 57.52 381.461 57.776C381.931 57.9893 382.549 58.2667 383.317 58.608C384.128 58.9493 384.768 59.248 385.237 59.504C387.2 60.528 388.779 61.7227 389.973 63.088C391.168 64.4107 391.765 66.1173 391.765 68.208C391.765 71.408 390.613 73.8827 388.309 75.632C386.005 77.3813 382.955 78.256 379.157 78.256C375.232 78.256 371.947 77.5947 369.301 76.272V67.952C372.245 70 375.36 71.024 378.645 71.024C380.992 71.024 382.165 70.2773 382.165 68.784C382.165 68.4 382.059 68.0373 381.845 67.696C381.632 67.3547 381.269 67.0347 380.757 66.736C380.245 66.4373 379.776 66.2027 379.349 66.032C378.923 65.8187 378.304 65.5413 377.493 65.2C376.683 64.8587 376.064 64.5813 375.637 64.368C371.328 62.32 369.173 59.248 369.173 55.152C369.173 51.9947 370.368 49.5413 372.757 47.792C375.189 46.0427 378.197 45.168 381.781 45.168C385.109 45.168 387.883 45.616 390.101 46.512ZM445.688 36.72V46.192C442.488 44.2293 438.926 43.248 435 43.248C431.544 43.248 428.643 44.464 426.296 46.896C423.95 49.2853 422.776 52.5067 422.776 56.56C422.776 60.528 423.95 63.6853 426.296 66.032C428.643 68.336 431.672 69.488 435.384 69.488C439.395 69.488 442.83 68.464 445.688 66.416V76.08C443.086 77.7013 439.331 78.512 434.424 78.512C428.11 78.512 422.819 76.4853 418.552 72.432C414.328 68.336 412.216 63.0453 412.216 56.56C412.216 49.9893 414.264 44.6347 418.36 40.496C422.499 36.3573 427.875 34.288 434.488 34.288C439.352 34.288 443.086 35.0987 445.688 36.72ZM461.77 77.488L449.226 45.552H459.402L462.922 55.664C463.818 58.2667 464.544 60.5067 465.098 62.384C465.696 64.2613 466.058 65.4987 466.186 66.096L466.378 66.992C466.848 65.2853 468 61.5093 469.834 55.664L473.034 45.552H482.634L470.922 77.04C467.552 86.128 462.41 90.672 455.498 90.672C454.176 90.672 452.981 90.5653 451.914 90.352V82.928C452.597 83.0987 453.322 83.184 454.09 83.184C457.632 83.184 460.192 81.2853 461.77 77.488ZM494.681 61.872C494.851 64.7307 495.705 66.9493 497.241 68.528C498.777 70.1067 500.803 70.896 503.321 70.896C506.009 70.896 508.59 70.1493 511.065 68.656V76.464C508.547 77.8293 505.518 78.512 501.977 78.512C497.113 78.512 493.102 76.976 489.945 73.904C486.787 70.7893 485.209 66.7787 485.209 61.872C485.294 57.008 486.873 52.9973 489.945 49.84C493.017 46.64 497.219 45.04 502.553 45.04C505.838 45.04 508.675 45.6587 511.065 46.896V54.896C508.803 53.488 506.286 52.784 503.513 52.784C500.91 52.784 498.798 53.5733 497.177 55.152C495.555 56.688 494.723 58.928 494.681 61.872ZM517.129 78V32.752H526.473V78H517.129ZM553.248 58.8V58.032C552.95 54.2347 551.286 52.336 548.256 52.336C546.763 52.336 545.44 52.8907 544.288 54C543.136 55.0667 542.368 56.6667 541.984 58.8H553.248ZM559.968 68.336V76.144C557.75 77.5947 554.358 78.32 549.792 78.32C544.459 78.32 540.299 76.784 537.312 73.712C534.368 70.5973 532.896 66.608 532.896 61.744C532.896 56.5813 534.326 52.5493 537.184 49.648C540.086 46.704 543.648 45.232 547.872 45.232C552.224 45.232 555.659 46.512 558.176 49.072C560.694 51.5893 561.952 55.3653 561.952 60.4C561.952 61.3813 561.782 63.0667 561.44 65.456H542.368C543.008 67.248 544.118 68.6347 545.696 69.616C547.275 70.5973 549.174 71.088 551.392 71.088C554.678 71.088 557.536 70.1707 559.968 68.336Z" fill="white"/>
</svg>
