<svg width="2233" height="124" viewBox="0 0 2233 124" fill="none" xmlns="http://www.w3.org/2000/svg">
<rect width="2233" height="124" fill="#D3D3D3"/>
<rect width="2233" height="124" fill="#FF1934"/>
<path d="M99.464 42.736H83.08V53.872H97.352V61.744H83.08V78H73.16V34.864H99.464V42.736ZM105.535 78V45.552H114.879V78H105.535ZM106.367 39.984C105.3 38.9173 104.767 37.6373 104.767 36.144C104.767 34.6507 105.3 33.3707 106.367 32.304C107.434 31.2373 108.714 30.704 110.207 30.704C111.7 30.704 112.98 31.2373 114.047 32.304C115.114 33.3707 115.647 34.6507 115.647 36.144C115.647 37.6373 115.114 38.9173 114.047 39.984C112.98 41.0507 111.7 41.584 110.207 41.584C108.714 41.584 107.434 41.0507 106.367 39.984ZM132.247 45.552V51.056C133.057 49.264 134.295 47.856 135.958 46.832C137.665 45.7653 139.692 45.232 142.039 45.232C145.367 45.232 147.969 46.2347 149.847 48.24C151.724 50.2027 152.663 53.104 152.663 56.944V78H143.319V58.672C143.319 56.752 142.871 55.3013 141.975 54.32C141.079 53.296 139.82 52.784 138.199 52.784C136.492 52.784 135.063 53.4667 133.911 54.832C132.801 56.1547 132.247 58.16 132.247 60.848V78H122.903V45.552H132.247ZM176.092 64.688H173.083C171.505 64.688 170.289 65.0293 169.436 65.712C168.582 66.3947 168.156 67.2693 168.156 68.336C168.156 70.512 169.414 71.6 171.932 71.6C173.254 71.6 174.278 71.1947 175.003 70.384C175.729 69.5733 176.092 68.464 176.092 67.056V64.688ZM160.924 55.536V47.152C163.484 45.7013 167.174 44.976 171.996 44.976C176.604 44.976 180.038 45.9787 182.3 47.984C184.561 49.9467 185.692 53.0187 185.692 57.2V78H176.54V74.032C175.174 76.8053 172.486 78.192 168.476 78.192C165.318 78.192 162.844 77.296 161.052 75.504C159.302 73.712 158.428 71.472 158.428 68.784C158.428 65.6693 159.558 63.2587 161.82 61.552C164.124 59.8027 167.516 58.928 171.996 58.928H176.092V56.688C176.092 53.9573 174.278 52.592 170.652 52.592C167.153 52.592 163.91 53.5733 160.924 55.536ZM202.372 45.552V51.056C203.182 49.264 204.42 47.856 206.083 46.832C207.79 45.7653 209.817 45.232 212.164 45.232C215.492 45.232 218.094 46.2347 219.972 48.24C221.849 50.2027 222.788 53.104 222.788 56.944V78H213.444V58.672C213.444 56.752 212.996 55.3013 212.1 54.32C211.204 53.296 209.945 52.784 208.324 52.784C206.617 52.784 205.188 53.4667 204.036 54.832C202.926 56.1547 202.372 58.16 202.372 60.848V78H193.028V45.552H202.372ZM238.025 61.872C238.195 64.7307 239.049 66.9493 240.585 68.528C242.121 70.1067 244.147 70.896 246.665 70.896C249.353 70.896 251.934 70.1493 254.409 68.656V76.464C251.891 77.8293 248.862 78.512 245.321 78.512C240.457 78.512 236.446 76.976 233.289 73.904C230.131 70.7893 228.553 66.7787 228.553 61.872C228.638 57.008 230.217 52.9973 233.289 49.84C236.361 46.64 240.563 45.04 245.897 45.04C249.182 45.04 252.019 45.6587 254.409 46.896V54.896C252.147 53.488 249.63 52.784 246.857 52.784C244.254 52.784 242.142 53.5733 240.521 55.152C238.899 56.688 238.067 58.928 238.025 61.872ZM260.473 78V45.552H269.817V78H260.473ZM261.305 39.984C260.238 38.9173 259.705 37.6373 259.705 36.144C259.705 34.6507 260.238 33.3707 261.305 32.304C262.371 31.2373 263.651 30.704 265.145 30.704C266.638 30.704 267.918 31.2373 268.985 32.304C270.051 33.3707 270.585 34.6507 270.585 36.144C270.585 37.6373 270.051 38.9173 268.985 39.984C267.918 41.0507 266.638 41.584 265.145 41.584C263.651 41.584 262.371 41.0507 261.305 39.984ZM293.904 64.688H290.896C289.317 64.688 288.101 65.0293 287.248 65.712C286.395 66.3947 285.968 67.2693 285.968 68.336C285.968 70.512 287.227 71.6 289.744 71.6C291.067 71.6 292.091 71.1947 292.816 70.384C293.541 69.5733 293.904 68.464 293.904 67.056V64.688ZM278.736 55.536V47.152C281.296 45.7013 284.987 44.976 289.808 44.976C294.416 44.976 297.851 45.9787 300.112 47.984C302.373 49.9467 303.504 53.0187 303.504 57.2V78H294.352V74.032C292.987 76.8053 290.299 78.192 286.288 78.192C283.131 78.192 280.656 77.296 278.864 75.504C277.115 73.712 276.24 71.472 276.24 68.784C276.24 65.6693 277.371 63.2587 279.632 61.552C281.936 59.8027 285.328 58.928 289.808 58.928H293.904V56.688C293.904 53.9573 292.091 52.592 288.464 52.592C284.965 52.592 281.723 53.5733 278.736 55.536ZM311.16 78V32.752H320.504V78H311.16ZM343.888 78L347.6 34.864H358.416L364.432 50.48C365.456 53.0827 366.33 55.472 367.056 57.648C367.781 59.824 368.25 61.36 368.464 62.256L368.784 63.536C369.466 60.72 370.96 56.368 373.264 50.48L379.344 34.864H390.16L394.64 78H384.784L383.184 61.296L382.352 48.688C381.242 51.888 379.706 56.0907 377.744 61.296L371.664 77.552H365.84L359.824 61.296C358.842 58.6507 358.01 56.2827 357.328 54.192C356.645 52.1013 356.197 50.6507 355.984 49.84L355.664 48.688C355.664 51.7173 355.472 55.92 355.088 61.296L353.744 78H343.888ZM417.717 64.688H414.708C413.13 64.688 411.914 65.0293 411.061 65.712C410.207 66.3947 409.781 67.2693 409.781 68.336C409.781 70.512 411.039 71.6 413.557 71.6C414.879 71.6 415.903 71.1947 416.628 70.384C417.354 69.5733 417.717 68.464 417.717 67.056V64.688ZM402.549 55.536V47.152C405.109 45.7013 408.799 44.976 413.621 44.976C418.229 44.976 421.663 45.9787 423.925 47.984C426.186 49.9467 427.317 53.0187 427.317 57.2V78H418.165V74.032C416.799 76.8053 414.111 78.192 410.101 78.192C406.943 78.192 404.469 77.296 402.677 75.504C400.927 73.712 400.053 71.472 400.053 68.784C400.053 65.6693 401.183 63.2587 403.445 61.552C405.749 59.8027 409.141 58.928 413.621 58.928H417.717V56.688C417.717 53.9573 415.903 52.592 412.277 52.592C408.778 52.592 405.535 53.5733 402.549 55.536ZM443.933 45.552V51.568C444.53 49.6907 445.511 48.1973 446.877 47.088C448.285 45.936 449.906 45.36 451.741 45.36C452.765 45.36 453.575 45.4453 454.173 45.616V54.448C453.149 53.9787 451.975 53.744 450.653 53.744C448.647 53.744 447.026 54.4907 445.789 55.984C444.551 57.4347 443.933 59.376 443.933 61.808V78H434.589L434.653 45.552H443.933ZM488.868 78H478.052L467.684 62.064V78H458.34V33.84H467.684V60.08L477.924 45.552H488.676L477.412 61.104L488.868 78ZM512.155 58.8V58.032C511.856 54.2347 510.192 52.336 507.163 52.336C505.669 52.336 504.347 52.8907 503.195 54C502.043 55.0667 501.275 56.6667 500.891 58.8H512.155ZM518.875 68.336V76.144C516.656 77.5947 513.264 78.32 508.699 78.32C503.365 78.32 499.205 76.784 496.219 73.712C493.275 70.5973 491.803 66.608 491.803 61.744C491.803 56.5813 493.232 52.5493 496.091 49.648C498.992 46.704 502.555 45.232 506.779 45.232C511.131 45.232 514.565 46.512 517.083 49.072C519.6 51.5893 520.859 55.3653 520.859 60.4C520.859 61.3813 520.688 63.0667 520.347 65.456H501.275C501.915 67.248 503.024 68.6347 504.603 69.616C506.181 70.5973 508.08 71.088 510.299 71.088C513.584 71.088 516.443 70.1707 518.875 68.336ZM538.344 52.4V67.312C538.344 68.464 538.664 69.3387 539.304 69.936C539.986 70.5333 540.861 70.832 541.928 70.832C543.634 70.832 545.149 70.4053 546.472 69.552V77.296C544.893 77.9787 542.76 78.32 540.072 78.32C532.69 78.32 529 74.6293 529 67.248V52.4H524.328V45.552H529V37.872H538.344V45.552H545.896V52.4H538.344Z" fill="white"/>
</svg>
