<svg width="2233" height="124" viewBox="0 0 2233 124" fill="none" xmlns="http://www.w3.org/2000/svg">
<rect width="2233" height="124" fill="#D3D3D3"/>
<rect width="2233" height="124" fill="#FF1934"/>
<path d="M83.016 69.36H98.952V78H73.16V34.864H83.016V69.36ZM124.186 45.552H133.53V78H124.186V72.816C122.479 76.4427 119.194 78.256 114.33 78.256C111.002 78.256 108.399 77.3387 106.522 75.504C104.687 73.6267 103.77 70.8747 103.77 67.248V45.552H113.114V65.136C113.114 68.9333 114.778 70.832 118.106 70.832C122.159 70.832 124.186 68.1227 124.186 62.704V45.552ZM149.087 61.872C149.258 64.7307 150.111 66.9493 151.647 68.528C153.183 70.1067 155.21 70.896 157.727 70.896C160.415 70.896 162.996 70.1493 165.471 68.656V76.464C162.954 77.8293 159.924 78.512 156.383 78.512C151.519 78.512 147.508 76.976 144.351 73.904C141.194 70.7893 139.615 66.7787 139.615 61.872C139.7 57.008 141.279 52.9973 144.351 49.84C147.423 46.64 151.626 45.04 156.959 45.04C160.244 45.04 163.082 45.6587 165.471 46.896V54.896C163.21 53.488 160.692 52.784 157.919 52.784C155.316 52.784 153.204 53.5733 151.583 55.152C149.962 56.688 149.13 58.928 149.087 61.872ZM201.743 78H190.927L180.559 62.064V78H171.215V33.84H180.559V60.08L190.799 45.552H201.551L190.287 61.104L201.743 78ZM215.302 77.488L202.758 45.552H212.934L216.454 55.664C217.35 58.2667 218.075 60.5067 218.63 62.384C219.227 64.2613 219.59 65.4987 219.718 66.096L219.91 66.992C220.379 65.2853 221.531 61.5093 223.366 55.664L226.566 45.552H236.166L224.454 77.04C221.083 86.128 215.942 90.672 209.03 90.672C207.707 90.672 206.512 90.5653 205.446 90.352V82.928C206.128 83.0987 206.854 83.184 207.622 83.184C211.163 83.184 213.723 81.2853 215.302 77.488ZM266.772 69.936H271.252C275.22 69.936 278.271 68.6987 280.404 66.224C282.58 63.7493 283.668 60.2507 283.668 55.728C283.668 51.888 282.58 48.816 280.404 46.512C278.228 44.1653 275.156 42.992 271.188 42.992H266.772V69.936ZM256.66 34.864H271.508C277.993 34.864 283.305 36.8693 287.444 40.88C291.583 44.848 293.652 49.7973 293.652 55.728C293.652 62.64 291.604 68.08 287.508 72.048C283.455 76.016 278.079 78 271.38 78H256.66V34.864ZM309.308 45.552V51.568C309.905 49.6907 310.886 48.1973 312.252 47.088C313.66 45.936 315.281 45.36 317.116 45.36C318.14 45.36 318.95 45.4453 319.548 45.616V54.448C318.524 53.9787 317.35 53.744 316.028 53.744C314.022 53.744 312.401 54.4907 311.164 55.984C309.926 57.4347 309.308 59.376 309.308 61.808V78H299.964L300.028 45.552H309.308ZM339.779 64.688H336.771C335.192 64.688 333.976 65.0293 333.123 65.712C332.27 66.3947 331.843 67.2693 331.843 68.336C331.843 70.512 333.102 71.6 335.619 71.6C336.942 71.6 337.966 71.1947 338.691 70.384C339.416 69.5733 339.779 68.464 339.779 67.056V64.688ZM324.611 55.536V47.152C327.171 45.7013 330.862 44.976 335.683 44.976C340.291 44.976 343.726 45.9787 345.987 47.984C348.248 49.9467 349.379 53.0187 349.379 57.2V78H340.227V74.032C338.862 76.8053 336.174 78.192 332.163 78.192C329.006 78.192 326.531 77.296 324.739 75.504C322.99 73.712 322.115 71.472 322.115 68.784C322.115 65.6693 323.246 63.2587 325.507 61.552C327.811 59.8027 331.203 58.928 335.683 58.928H339.779V56.688C339.779 53.9573 337.966 52.592 334.339 52.592C330.84 52.592 327.598 53.5733 324.611 55.536ZM363.627 78L353.195 45.552H362.859L365.675 56.24C366.358 58.928 366.934 61.36 367.403 63.536C367.872 65.6693 368.15 67.1413 368.235 67.952L368.427 69.168C368.726 66.608 369.771 62.2987 371.563 56.24L374.699 45.552H382.763L385.835 56.24C386.603 58.9707 387.243 61.424 387.755 63.6C388.267 65.7333 388.587 67.2053 388.715 68.016L388.907 69.168C389.206 66.6507 390.208 62.3413 391.915 56.24L394.923 45.552H404.139L393.771 78H384.171L381.355 67.376C380.758 65.072 380.224 62.9173 379.755 60.912C379.328 58.9067 379.051 57.4773 378.923 56.624L378.731 55.344C378.304 58.2027 377.408 62.2133 376.043 67.376L373.227 78H363.627Z" fill="white"/>
</svg>
