<svg width="2918" height="124" viewBox="0 0 2918 124" fill="none" xmlns="http://www.w3.org/2000/svg">
<rect width="2918" height="124" fill="#D3D3D3"/>
<rect width="2918" height="124" fill="#1699D9"/>
<path d="M209.389 69.36H225.325V78H199.533V34.864H209.389V69.36ZM230.783 78V45.552H240.127V78H230.783ZM231.615 39.984C230.548 38.9173 230.015 37.6373 230.015 36.144C230.015 34.6507 230.548 33.3707 231.615 32.304C232.682 31.2373 233.962 30.704 235.455 30.704C236.948 30.704 238.228 31.2373 239.295 32.304C240.362 33.3707 240.895 34.6507 240.895 36.144C240.895 37.6373 240.362 38.9173 239.295 39.984C238.228 41.0507 236.948 41.584 235.455 41.584C233.962 41.584 232.682 41.0507 231.615 39.984ZM257.495 45.552V51.056C258.305 49.264 259.543 47.856 261.207 46.832C262.913 45.7653 264.94 45.232 267.287 45.232C270.615 45.232 273.217 46.2347 275.095 48.24C276.972 50.2027 277.911 53.104 277.911 56.944V78H268.567V58.672C268.567 56.752 268.119 55.3013 267.223 54.32C266.327 53.296 265.068 52.784 263.447 52.784C261.74 52.784 260.311 53.4667 259.159 54.832C258.049 56.1547 257.495 58.16 257.495 60.848V78H248.151V45.552H257.495ZM285.596 78V45.552H294.94V78H285.596ZM286.428 39.984C285.361 38.9173 284.828 37.6373 284.828 36.144C284.828 34.6507 285.361 33.3707 286.428 32.304C287.494 31.2373 288.774 30.704 290.268 30.704C291.761 30.704 293.041 31.2373 294.108 32.304C295.174 33.3707 295.708 34.6507 295.708 36.144C295.708 37.6373 295.174 38.9173 294.108 39.984C293.041 41.0507 291.761 41.584 290.268 41.584C288.774 41.584 287.494 41.0507 286.428 39.984ZM318.323 78L322.035 34.864H332.851L338.867 50.48C339.891 53.0827 340.766 55.472 341.491 57.648C342.216 59.824 342.686 61.36 342.899 62.256L343.219 63.536C343.902 60.72 345.395 56.368 347.699 50.48L353.779 34.864H364.595L369.075 78H359.219L357.619 61.296L356.787 48.688C355.678 51.888 354.142 56.0907 352.179 61.296L346.099 77.552H340.275L334.259 61.296C333.278 58.6507 332.446 56.2827 331.763 54.192C331.08 52.1013 330.632 50.6507 330.419 49.84L330.099 48.688C330.099 51.7173 329.907 55.92 329.523 61.296L328.179 78H318.323ZM392.152 64.688H389.144C387.565 64.688 386.349 65.0293 385.496 65.712C384.643 66.3947 384.216 67.2693 384.216 68.336C384.216 70.512 385.475 71.6 387.992 71.6C389.315 71.6 390.339 71.1947 391.064 70.384C391.789 69.5733 392.152 68.464 392.152 67.056V64.688ZM376.984 55.536V47.152C379.544 45.7013 383.235 44.976 388.056 44.976C392.664 44.976 396.099 45.9787 398.36 47.984C400.621 49.9467 401.752 53.0187 401.752 57.2V78H392.6V74.032C391.235 76.8053 388.547 78.192 384.536 78.192C381.379 78.192 378.904 77.296 377.112 75.504C375.363 73.712 374.488 71.472 374.488 68.784C374.488 65.6693 375.619 63.2587 377.88 61.552C380.184 59.8027 383.576 58.928 388.056 58.928H392.152V56.688C392.152 53.9573 390.339 52.592 386.712 52.592C383.213 52.592 379.971 53.5733 376.984 55.536ZM429.568 46.512V54.512C427.307 53.1893 424.661 52.528 421.632 52.528C420.523 52.528 419.669 52.7627 419.072 53.232C418.475 53.6587 418.176 54.2133 418.176 54.896C418.176 55.28 418.283 55.6427 418.496 55.984C418.709 56.3253 419.051 56.6453 419.52 56.944C420.032 57.2427 420.501 57.52 420.928 57.776C421.397 57.9893 422.016 58.2667 422.784 58.608C423.595 58.9493 424.235 59.248 424.704 59.504C426.667 60.528 428.245 61.7227 429.44 63.088C430.635 64.4107 431.232 66.1173 431.232 68.208C431.232 71.408 430.08 73.8827 427.776 75.632C425.472 77.3813 422.421 78.256 418.624 78.256C414.699 78.256 411.413 77.5947 408.768 76.272V67.952C411.712 70 414.827 71.024 418.112 71.024C420.459 71.024 421.632 70.2773 421.632 68.784C421.632 68.4 421.525 68.0373 421.312 67.696C421.099 67.3547 420.736 67.0347 420.224 66.736C419.712 66.4373 419.243 66.2027 418.816 66.032C418.389 65.8187 417.771 65.5413 416.96 65.2C416.149 64.8587 415.531 64.5813 415.104 64.368C410.795 62.32 408.64 59.248 408.64 55.152C408.64 51.9947 409.835 49.5413 412.224 47.792C414.656 46.0427 417.664 45.168 421.248 45.168C424.576 45.168 427.349 45.616 429.568 46.512ZM453.027 64.688H450.019C448.44 64.688 447.224 65.0293 446.371 65.712C445.518 66.3947 445.091 67.2693 445.091 68.336C445.091 70.512 446.35 71.6 448.867 71.6C450.19 71.6 451.214 71.1947 451.939 70.384C452.664 69.5733 453.027 68.464 453.027 67.056V64.688ZM437.859 55.536V47.152C440.419 45.7013 444.11 44.976 448.931 44.976C453.539 44.976 456.974 45.9787 459.235 47.984C461.496 49.9467 462.627 53.0187 462.627 57.2V78H453.475V74.032C452.11 76.8053 449.422 78.192 445.411 78.192C442.254 78.192 439.779 77.296 437.987 75.504C436.238 73.712 435.363 71.472 435.363 68.784C435.363 65.6693 436.494 63.2587 438.755 61.552C441.059 59.8027 444.451 58.928 448.931 58.928H453.027V56.688C453.027 53.9573 451.214 52.592 447.587 52.592C444.088 52.592 440.846 53.5733 437.859 55.536Z" fill="white"/>
</svg>
