<svg width="2233" height="124" viewBox="0 0 2233 124" fill="none" xmlns="http://www.w3.org/2000/svg">
<rect width="2233" height="124" fill="#D3D3D3"/>
<rect width="2233" height="124" fill="#FF1934"/>
<path d="M109.32 34.864L94.408 62.128V78H84.552V62.192L69.832 34.864H81.352L83.976 41.136C85.3413 44.3787 86.472 47.152 87.368 49.456C88.264 51.76 88.84 53.2533 89.096 53.936L89.416 54.96C89.8427 53.04 91.72 48.432 95.048 41.136L97.864 34.864H109.32ZM128.301 78.512C123.224 78.512 119.298 76.9973 116.525 73.968C113.752 70.896 112.365 66.9707 112.365 62.192C112.365 57.2 113.816 53.104 116.717 49.904C119.618 46.6613 123.48 45.04 128.301 45.04C133.336 45.04 137.24 46.5973 140.013 49.712C142.786 52.8267 144.173 56.7947 144.173 61.616C144.173 66.5227 142.765 70.576 139.949 73.776C137.176 76.9333 133.293 78.512 128.301 78.512ZM128.237 52.4C126.189 52.4 124.653 53.2747 123.629 55.024C122.605 56.7733 122.093 59.0347 122.093 61.808C122.093 64.5813 122.605 66.864 123.629 68.656C124.696 70.4053 126.274 71.28 128.365 71.28C130.413 71.28 131.928 70.4267 132.909 68.72C133.933 66.9707 134.445 64.7093 134.445 61.936C134.445 55.5787 132.376 52.4 128.237 52.4ZM170.374 45.552H179.718V78H170.374V72.816C168.667 76.4427 165.382 78.256 160.518 78.256C157.19 78.256 154.587 77.3387 152.71 75.504C150.875 73.6267 149.958 70.8747 149.958 67.248V45.552H159.302V65.136C159.302 68.9333 160.966 70.832 164.294 70.832C168.347 70.832 170.374 68.1227 170.374 62.704V45.552ZM196.683 45.552V51.568C197.28 49.6907 198.261 48.1973 199.627 47.088C201.035 45.936 202.656 45.36 204.491 45.36C205.515 45.36 206.325 45.4453 206.923 45.616V54.448C205.899 53.9787 204.725 53.744 203.403 53.744C201.397 53.744 199.776 54.4907 198.539 55.984C197.301 57.4347 196.683 59.376 196.683 61.808V78H187.339L187.403 45.552H196.683ZM243.73 70.576C245.778 70.576 247.442 69.808 248.722 68.272C250.002 66.6933 250.642 64.56 250.642 61.872C250.642 58.928 249.981 56.7093 248.658 55.216C247.378 53.68 245.735 52.912 243.73 52.912C241.767 52.912 240.061 53.6587 238.61 55.152C237.159 56.6453 236.434 58.736 236.434 61.424C236.434 64.1973 237.117 66.416 238.482 68.08C239.847 69.744 241.597 70.576 243.73 70.576ZM236.434 45.552V50.544C238.695 46.96 241.959 45.168 246.226 45.168C250.407 45.168 253.757 46.6613 256.274 49.648C258.834 52.592 260.114 56.6027 260.114 61.68C260.114 66.5013 258.877 70.4907 256.402 73.648C253.97 76.8053 250.578 78.384 246.226 78.384C241.831 78.384 238.567 76.656 236.434 73.2V89.968H227.09V45.552H236.434ZM282.279 64.688H279.271C277.692 64.688 276.476 65.0293 275.623 65.712C274.77 66.3947 274.343 67.2693 274.343 68.336C274.343 70.512 275.602 71.6 278.119 71.6C279.442 71.6 280.466 71.1947 281.191 70.384C281.916 69.5733 282.279 68.464 282.279 67.056V64.688ZM267.111 55.536V47.152C269.671 45.7013 273.362 44.976 278.183 44.976C282.791 44.976 286.226 45.9787 288.487 47.984C290.748 49.9467 291.879 53.0187 291.879 57.2V78H282.727V74.032C281.362 76.8053 278.674 78.192 274.663 78.192C271.506 78.192 269.031 77.296 267.239 75.504C265.49 73.712 264.615 71.472 264.615 68.784C264.615 65.6693 265.746 63.2587 268.007 61.552C270.311 59.8027 273.703 58.928 278.183 58.928H282.279V56.688C282.279 53.9573 280.466 52.592 276.839 52.592C273.34 52.592 270.098 53.5733 267.111 55.536ZM308.495 45.552V51.568C309.092 49.6907 310.074 48.1973 311.439 47.088C312.847 45.936 314.468 45.36 316.303 45.36C317.327 45.36 318.138 45.4453 318.735 45.616V54.448C317.711 53.9787 316.538 53.744 315.215 53.744C313.21 53.744 311.588 54.4907 310.351 55.984C309.114 57.4347 308.495 59.376 308.495 61.808V78H299.151L299.215 45.552H308.495ZM341.655 58.8V58.032C341.356 54.2347 339.692 52.336 336.663 52.336C335.169 52.336 333.847 52.8907 332.695 54C331.543 55.0667 330.775 56.6667 330.391 58.8H341.655ZM348.375 68.336V76.144C346.156 77.5947 342.764 78.32 338.199 78.32C332.865 78.32 328.705 76.784 325.719 73.712C322.775 70.5973 321.303 66.608 321.303 61.744C321.303 56.5813 322.732 52.5493 325.591 49.648C328.492 46.704 332.055 45.232 336.279 45.232C340.631 45.232 344.065 46.512 346.583 49.072C349.1 51.5893 350.359 55.3653 350.359 60.4C350.359 61.3813 350.188 63.0667 349.847 65.456H330.775C331.415 67.248 332.524 68.6347 334.103 69.616C335.681 70.5973 337.58 71.088 339.799 71.088C343.084 71.088 345.943 70.1707 348.375 68.336ZM366.372 45.552V51.056C367.182 49.264 368.42 47.856 370.083 46.832C371.79 45.7653 373.817 45.232 376.164 45.232C379.492 45.232 382.094 46.2347 383.972 48.24C385.849 50.2027 386.788 53.104 386.788 56.944V78H377.444V58.672C377.444 56.752 376.996 55.3013 376.1 54.32C375.204 53.296 373.945 52.784 372.324 52.784C370.617 52.784 369.188 53.4667 368.036 54.832C366.926 56.1547 366.372 58.16 366.372 60.848V78H357.028V45.552H366.372ZM404.969 52.4V67.312C404.969 68.464 405.289 69.3387 405.929 69.936C406.611 70.5333 407.486 70.832 408.553 70.832C410.259 70.832 411.774 70.4053 413.097 69.552V77.296C411.518 77.9787 409.385 78.32 406.697 78.32C399.315 78.32 395.625 74.6293 395.625 67.248V52.4H390.953V45.552H395.625V37.872H404.969V45.552H412.521V52.4H404.969ZM441.752 78L431.32 45.552H440.984L443.8 56.24C444.483 58.928 445.059 61.36 445.528 63.536C445.997 65.6693 446.275 67.1413 446.36 67.952L446.552 69.168C446.851 66.608 447.896 62.2987 449.688 56.24L452.824 45.552H460.888L463.96 56.24C464.728 58.9707 465.368 61.424 465.88 63.6C466.392 65.7333 466.712 67.2053 466.84 68.016L467.032 69.168C467.331 66.6507 468.333 62.3413 470.04 56.24L473.048 45.552H482.264L471.896 78H462.296L459.48 67.376C458.883 65.072 458.349 62.9173 457.88 60.912C457.453 58.9067 457.176 57.4773 457.048 56.624L456.856 55.344C456.429 58.2027 455.533 62.2133 454.168 67.376L451.352 78H441.752ZM502.467 64.688H499.458C497.88 64.688 496.664 65.0293 495.811 65.712C494.957 66.3947 494.531 67.2693 494.531 68.336C494.531 70.512 495.789 71.6 498.307 71.6C499.629 71.6 500.653 71.1947 501.378 70.384C502.104 69.5733 502.467 68.464 502.467 67.056V64.688ZM487.299 55.536V47.152C489.859 45.7013 493.549 44.976 498.371 44.976C502.979 44.976 506.413 45.9787 508.675 47.984C510.936 49.9467 512.067 53.0187 512.067 57.2V78H502.915V74.032C501.549 76.8053 498.861 78.192 494.851 78.192C491.693 78.192 489.219 77.296 487.427 75.504C485.677 73.712 484.803 71.472 484.803 68.784C484.803 65.6693 485.933 63.2587 488.195 61.552C490.499 59.8027 493.891 58.928 498.371 58.928H502.467V56.688C502.467 53.9573 500.653 52.592 497.027 52.592C493.528 52.592 490.285 53.5733 487.299 55.536ZM539.883 46.512V54.512C537.621 53.1893 534.976 52.528 531.947 52.528C530.837 52.528 529.984 52.7627 529.387 53.232C528.789 53.6587 528.491 54.2133 528.491 54.896C528.491 55.28 528.597 55.6427 528.811 55.984C529.024 56.3253 529.365 56.6453 529.835 56.944C530.347 57.2427 530.816 57.52 531.243 57.776C531.712 57.9893 532.331 58.2667 533.099 58.608C533.909 58.9493 534.549 59.248 535.019 59.504C536.981 60.528 538.56 61.7227 539.755 63.088C540.949 64.4107 541.547 66.1173 541.547 68.208C541.547 71.408 540.395 73.8827 538.091 75.632C535.787 77.3813 532.736 78.256 528.939 78.256C525.013 78.256 521.728 77.5947 519.083 76.272V67.952C522.027 70 525.141 71.024 528.427 71.024C530.773 71.024 531.947 70.2773 531.947 68.784C531.947 68.4 531.84 68.0373 531.627 67.696C531.413 67.3547 531.051 67.0347 530.539 66.736C530.027 66.4373 529.557 66.2027 529.131 66.032C528.704 65.8187 528.085 65.5413 527.275 65.2C526.464 64.8587 525.845 64.5813 525.419 64.368C521.109 62.32 518.955 59.248 518.955 55.152C518.955 51.9947 520.149 49.5413 522.539 47.792C524.971 46.0427 527.979 45.168 531.562 45.168C534.891 45.168 537.664 45.616 539.883 46.512ZM572.622 32.752V51.056C574.286 47.1733 577.528 45.232 582.35 45.232C585.507 45.232 588.067 46.2347 590.03 48.24C592.035 50.2453 593.038 53.2747 593.038 57.328V78H583.694V58.8C583.694 56.9227 583.224 55.4507 582.286 54.384C581.347 53.3173 580.131 52.784 578.638 52.784C577.998 52.784 577.379 52.8907 576.782 53.104C576.227 53.2747 575.608 53.616 574.926 54.128C574.243 54.5973 573.688 55.4293 573.262 56.624C572.835 57.776 572.622 59.184 572.622 60.848V78H563.278V32.752H572.622ZM614.739 78.512C609.661 78.512 605.736 76.9973 602.963 73.968C600.189 70.896 598.803 66.9707 598.803 62.192C598.803 57.2 600.253 53.104 603.155 49.904C606.056 46.6613 609.917 45.04 614.739 45.04C619.773 45.04 623.677 46.5973 626.451 49.712C629.224 52.8267 630.611 56.7947 630.611 61.616C630.611 66.5227 629.203 70.576 626.387 73.776C623.613 76.9333 619.731 78.512 614.739 78.512ZM614.675 52.4C612.627 52.4 611.091 53.2747 610.067 55.024C609.043 56.7733 608.531 59.0347 608.531 61.808C608.531 64.5813 609.043 66.864 610.067 68.656C611.133 70.4053 612.712 71.28 614.803 71.28C616.851 71.28 618.365 70.4267 619.347 68.72C620.371 66.9707 620.883 64.7093 620.883 61.936C620.883 55.5787 618.813 52.4 614.675 52.4ZM657.195 46.512V54.512C654.934 53.1893 652.288 52.528 649.259 52.528C648.15 52.528 647.296 52.7627 646.699 53.232C646.102 53.6587 645.803 54.2133 645.803 54.896C645.803 55.28 645.91 55.6427 646.123 55.984C646.336 56.3253 646.678 56.6453 647.147 56.944C647.659 57.2427 648.128 57.52 648.555 57.776C649.024 57.9893 649.643 58.2667 650.411 58.608C651.222 58.9493 651.862 59.248 652.331 59.504C654.294 60.528 655.872 61.7227 657.067 63.088C658.262 64.4107 658.859 66.1173 658.859 68.208C658.859 71.408 657.707 73.8827 655.403 75.632C653.099 77.3813 650.048 78.256 646.251 78.256C642.326 78.256 639.04 77.5947 636.395 76.272V67.952C639.339 70 642.454 71.024 645.739 71.024C648.086 71.024 649.259 70.2773 649.259 68.784C649.259 68.4 649.152 68.0373 648.939 67.696C648.726 67.3547 648.363 67.0347 647.851 66.736C647.339 66.4373 646.87 66.2027 646.443 66.032C646.016 65.8187 645.398 65.5413 644.587 65.2C643.776 64.8587 643.158 64.5813 642.731 64.368C638.422 62.32 636.267 59.248 636.267 55.152C636.267 51.9947 637.462 49.5413 639.851 47.792C642.283 46.0427 645.291 45.168 648.875 45.168C652.203 45.168 654.976 45.616 657.195 46.512ZM681.23 70.576C683.278 70.576 684.942 69.808 686.222 68.272C687.502 66.6933 688.142 64.56 688.142 61.872C688.142 58.928 687.481 56.7093 686.158 55.216C684.878 53.68 683.235 52.912 681.23 52.912C679.267 52.912 677.561 53.6587 676.11 55.152C674.659 56.6453 673.934 58.736 673.934 61.424C673.934 64.1973 674.617 66.416 675.982 68.08C677.347 69.744 679.097 70.576 681.23 70.576ZM673.934 45.552V50.544C676.195 46.96 679.459 45.168 683.726 45.168C687.907 45.168 691.257 46.6613 693.774 49.648C696.334 52.592 697.614 56.6027 697.614 61.68C697.614 66.5013 696.377 70.4907 693.902 73.648C691.47 76.8053 688.078 78.384 683.726 78.384C679.331 78.384 676.067 76.656 673.934 73.2V89.968H664.59V45.552H673.934ZM704.035 78V45.552H713.379V78H704.035ZM704.867 39.984C703.8 38.9173 703.267 37.6373 703.267 36.144C703.267 34.6507 703.8 33.3707 704.867 32.304C705.934 31.2373 707.214 30.704 708.707 30.704C710.2 30.704 711.48 31.2373 712.547 32.304C713.614 33.3707 714.147 34.6507 714.147 36.144C714.147 37.6373 713.614 38.9173 712.547 39.984C711.48 41.0507 710.2 41.584 708.707 41.584C707.214 41.584 705.934 41.0507 704.867 39.984ZM732.219 52.4V67.312C732.219 68.464 732.539 69.3387 733.179 69.936C733.861 70.5333 734.736 70.832 735.803 70.832C737.509 70.832 739.024 70.4053 740.347 69.552V77.296C738.768 77.9787 736.635 78.32 733.947 78.32C726.565 78.32 722.875 74.6293 722.875 67.248V52.4H718.203V45.552H722.875V37.872H732.219V45.552H739.771V52.4H732.219ZM762.154 64.688H759.146C757.567 64.688 756.351 65.0293 755.498 65.712C754.645 66.3947 754.218 67.2693 754.218 68.336C754.218 70.512 755.477 71.6 757.994 71.6C759.317 71.6 760.341 71.1947 761.066 70.384C761.791 69.5733 762.154 68.464 762.154 67.056V64.688ZM746.986 55.536V47.152C749.546 45.7013 753.237 44.976 758.058 44.976C762.666 44.976 766.101 45.9787 768.362 47.984C770.623 49.9467 771.754 53.0187 771.754 57.2V78H762.602V74.032C761.237 76.8053 758.549 78.192 754.538 78.192C751.381 78.192 748.906 77.296 747.114 75.504C745.365 73.712 744.49 71.472 744.49 68.784C744.49 65.6693 745.621 63.2587 747.882 61.552C750.186 59.8027 753.578 58.928 758.058 58.928H762.154V56.688C762.154 53.9573 760.341 52.592 756.714 52.592C753.215 52.592 749.973 53.5733 746.986 55.536ZM779.41 78V32.752H788.754V78H779.41ZM797.098 78V45.552H806.442V78H797.098ZM797.93 39.984C796.863 38.9173 796.33 37.6373 796.33 36.144C796.33 34.6507 796.863 33.3707 797.93 32.304C798.996 31.2373 800.276 30.704 801.77 30.704C803.263 30.704 804.543 31.2373 805.61 32.304C806.676 33.3707 807.21 34.6507 807.21 36.144C807.21 37.6373 806.676 38.9173 805.61 39.984C804.543 41.0507 803.263 41.584 801.77 41.584C800.276 41.584 798.996 41.0507 797.93 39.984ZM837.953 45.552V52.016L823.745 70.768H838.721V78H813.185V71.28L827.393 52.72H813.761V45.552H837.953ZM863.842 58.8V58.032C863.543 54.2347 861.879 52.336 858.85 52.336C857.357 52.336 856.034 52.8907 854.882 54C853.73 55.0667 852.962 56.6667 852.578 58.8H863.842ZM870.562 68.336V76.144C868.343 77.5947 864.951 78.32 860.386 78.32C855.053 78.32 850.893 76.784 847.906 73.712C844.962 70.5973 843.49 66.608 843.49 61.744C843.49 56.5813 844.919 52.5493 847.778 49.648C850.679 46.704 854.242 45.232 858.466 45.232C862.818 45.232 866.253 46.512 868.77 49.072C871.287 51.5893 872.546 55.3653 872.546 60.4C872.546 61.3813 872.375 63.0667 872.034 65.456H852.962C853.602 67.248 854.711 68.6347 856.29 69.616C857.869 70.5973 859.767 71.088 861.986 71.088C865.271 71.088 868.13 70.1707 870.562 68.336ZM894.127 70.576C896.26 70.576 897.988 69.744 899.311 68.08C900.634 66.416 901.295 64.1973 901.295 61.424C901.295 58.736 900.57 56.6453 899.119 55.152C897.711 53.6587 896.026 52.912 894.063 52.912C892.1 52.912 890.436 53.7013 889.071 55.28C887.748 56.8587 887.087 59.056 887.087 61.872C887.087 64.4747 887.77 66.5867 889.135 68.208C890.5 69.7867 892.164 70.576 894.127 70.576ZM901.295 32.752H910.639V78H901.295V72.944C899.119 76.5707 895.876 78.384 891.567 78.384C887.343 78.384 883.951 76.7413 881.391 73.456C878.874 70.1707 877.615 66.2453 877.615 61.68C877.615 56.56 878.938 52.528 881.583 49.584C884.228 46.64 887.578 45.168 891.631 45.168C895.855 45.168 899.076 46.96 901.295 50.544V32.752Z" fill="white"/>
</svg>
