<svg width="2233" height="124" viewBox="0 0 2233 124" fill="none" xmlns="http://www.w3.org/2000/svg">
<rect width="2233" height="124" fill="#D3D3D3"/>
<rect width="2233" height="124" fill="#1699D9"/>
<path d="M171.294 78L175.006 34.864H185.822L191.838 50.48C192.862 53.0827 193.736 55.472 194.462 57.648C195.187 59.824 195.656 61.36 195.87 62.256L196.19 63.536C196.872 60.72 198.366 56.368 200.67 50.48L206.75 34.864H217.566L222.046 78H212.19L210.59 61.296L209.758 48.688C208.648 51.888 207.112 56.0907 205.15 61.296L199.07 77.552H193.246L187.23 61.296C186.248 58.6507 185.416 56.2827 184.734 54.192C184.051 52.1013 183.603 50.6507 183.39 49.84L183.07 48.688C183.07 51.7173 182.878 55.92 182.494 61.296L181.15 78H171.294ZM245.123 64.688H242.115C240.536 64.688 239.32 65.0293 238.467 65.712C237.613 66.3947 237.187 67.2693 237.187 68.336C237.187 70.512 238.445 71.6 240.963 71.6C242.285 71.6 243.309 71.1947 244.035 70.384C244.76 69.5733 245.123 68.464 245.123 67.056V64.688ZM229.955 55.536V47.152C232.515 45.7013 236.205 44.976 241.027 44.976C245.635 44.976 249.069 45.9787 251.331 47.984C253.592 49.9467 254.723 53.0187 254.723 57.2V78H245.571V74.032C244.205 76.8053 241.517 78.192 237.507 78.192C234.349 78.192 231.875 77.296 230.083 75.504C228.333 73.712 227.459 71.472 227.459 68.784C227.459 65.6693 228.589 63.2587 230.851 61.552C233.155 59.8027 236.547 58.928 241.027 58.928H245.123V56.688C245.123 53.9573 243.309 52.592 239.683 52.592C236.184 52.592 232.941 53.5733 229.955 55.536ZM262.379 78V45.552H271.723V78H262.379ZM263.211 39.984C262.144 38.9173 261.611 37.6373 261.611 36.144C261.611 34.6507 262.144 33.3707 263.211 32.304C264.277 31.2373 265.557 30.704 267.051 30.704C268.544 30.704 269.824 31.2373 270.891 32.304C271.957 33.3707 272.491 34.6507 272.491 36.144C272.491 37.6373 271.957 38.9173 270.891 39.984C269.824 41.0507 268.544 41.584 267.051 41.584C265.557 41.584 264.277 41.0507 263.211 39.984ZM289.09 45.552V51.056C289.901 49.264 291.138 47.856 292.802 46.832C294.509 45.7653 296.536 45.232 298.882 45.232C302.21 45.232 304.813 46.2347 306.69 48.24C308.568 50.2027 309.506 53.104 309.506 56.944V78H300.162V58.672C300.162 56.752 299.714 55.3013 298.818 54.32C297.922 53.296 296.664 52.784 295.042 52.784C293.336 52.784 291.906 53.4667 290.754 54.832C289.645 56.1547 289.09 58.16 289.09 60.848V78H279.746V45.552H289.09ZM343.047 70.128H348.231C353.095 70.128 355.527 68.464 355.527 65.136C355.527 61.808 353.117 60.144 348.295 60.144H343.047V70.128ZM343.047 42.736V52.4H346.695C349.255 52.4 351.175 51.9307 352.455 50.992C353.778 50.0533 354.439 48.816 354.439 47.28C354.439 44.2507 352.391 42.736 348.295 42.736H343.047ZM333.191 34.864H349.959C354.695 34.864 358.301 35.9947 360.775 38.256C363.25 40.4747 364.487 43.312 364.487 46.768C364.487 49.0293 363.89 51.0133 362.695 52.72C361.501 54.4267 359.943 55.5787 358.023 56.176C363.015 57.6693 365.511 61.04 365.511 66.288C365.511 69.7013 364.274 72.5173 361.799 74.736C359.367 76.912 356.039 78 351.815 78H333.191V34.864ZM385.957 78.512C380.88 78.512 376.955 76.9973 374.181 73.968C371.408 70.896 370.021 66.9707 370.021 62.192C370.021 57.2 371.472 53.104 374.373 49.904C377.275 46.6613 381.136 45.04 385.957 45.04C390.992 45.04 394.896 46.5973 397.669 49.712C400.443 52.8267 401.829 56.7947 401.829 61.616C401.829 66.5227 400.421 70.576 397.605 73.776C394.832 76.9333 390.949 78.512 385.957 78.512ZM385.893 52.4C383.845 52.4 382.309 53.2747 381.285 55.024C380.261 56.7733 379.749 59.0347 379.749 61.808C379.749 64.5813 380.261 66.864 381.285 68.656C382.352 70.4053 383.931 71.28 386.021 71.28C388.069 71.28 389.584 70.4267 390.565 68.72C391.589 66.9707 392.101 64.7093 392.101 61.936C392.101 55.5787 390.032 52.4 385.893 52.4ZM423.998 64.688H420.99C419.411 64.688 418.195 65.0293 417.342 65.712C416.488 66.3947 416.062 67.2693 416.062 68.336C416.062 70.512 417.32 71.6 419.838 71.6C421.16 71.6 422.184 71.1947 422.91 70.384C423.635 69.5733 423.998 68.464 423.998 67.056V64.688ZM408.83 55.536V47.152C411.39 45.7013 415.08 44.976 419.902 44.976C424.51 44.976 427.944 45.9787 430.206 47.984C432.467 49.9467 433.598 53.0187 433.598 57.2V78H424.446V74.032C423.08 76.8053 420.392 78.192 416.382 78.192C413.224 78.192 410.75 77.296 408.958 75.504C407.208 73.712 406.334 71.472 406.334 68.784C406.334 65.6693 407.464 63.2587 409.726 61.552C412.03 59.8027 415.422 58.928 419.902 58.928H423.998V56.688C423.998 53.9573 422.184 52.592 418.558 52.592C415.059 52.592 411.816 53.5733 408.83 55.536ZM450.214 45.552V51.568C450.811 49.6907 451.792 48.1973 453.158 47.088C454.566 45.936 456.187 45.36 458.022 45.36C459.046 45.36 459.856 45.4453 460.454 45.616V54.448C459.43 53.9787 458.256 53.744 456.934 53.744C454.928 53.744 453.307 54.4907 452.07 55.984C450.832 57.4347 450.214 59.376 450.214 61.808V78H440.87L440.934 45.552H450.214ZM479.533 70.576C481.667 70.576 483.395 69.744 484.717 68.08C486.04 66.416 486.701 64.1973 486.701 61.424C486.701 58.736 485.976 56.6453 484.525 55.152C483.117 53.6587 481.432 52.912 479.469 52.912C477.507 52.912 475.843 53.7013 474.477 55.28C473.155 56.8587 472.493 59.056 472.493 61.872C472.493 64.4747 473.176 66.5867 474.541 68.208C475.907 69.7867 477.571 70.576 479.533 70.576ZM486.701 32.752H496.045V78H486.701V72.944C484.525 76.5707 481.283 78.384 476.973 78.384C472.749 78.384 469.357 76.7413 466.797 73.456C464.28 70.1707 463.021 66.2453 463.021 61.68C463.021 56.56 464.344 52.528 466.989 49.584C469.635 46.64 472.984 45.168 477.037 45.168C481.261 45.168 484.483 46.96 486.701 50.544V32.752Z" fill="white"/>
</svg>
