<svg width="1350" height="124" viewBox="0 0 1350 124" fill="none" xmlns="http://www.w3.org/2000/svg">
<rect width="1350" height="124" fill="#D3D3D3"/>
<rect width="1350" height="124" fill="#1699D9"/>
<path d="M164.893 61.232H175.261L174.813 59.696C173.576 55.5147 172.552 51.952 171.741 49.008C170.973 46.064 170.504 44.1653 170.333 43.312L170.077 42.032C169.736 44.3787 168.157 50.2667 165.341 59.696L164.893 61.232ZM180.253 78L177.629 69.168H162.525L159.901 78H149.597L163.997 34.864H176.413L190.813 78H180.253ZM216.633 46.512V54.512C214.371 53.1893 211.726 52.528 208.697 52.528C207.587 52.528 206.734 52.7627 206.137 53.232C205.539 53.6587 205.241 54.2133 205.241 54.896C205.241 55.28 205.347 55.6427 205.561 55.984C205.774 56.3253 206.115 56.6453 206.585 56.944C207.097 57.2427 207.566 57.52 207.993 57.776C208.462 57.9893 209.081 58.2667 209.849 58.608C210.659 58.9493 211.299 59.248 211.769 59.504C213.731 60.528 215.31 61.7227 216.505 63.088C217.699 64.4107 218.297 66.1173 218.297 68.208C218.297 71.408 217.145 73.8827 214.841 75.632C212.537 77.3813 209.486 78.256 205.689 78.256C201.763 78.256 198.478 77.5947 195.833 76.272V67.952C198.777 70 201.891 71.024 205.177 71.024C207.523 71.024 208.697 70.2773 208.697 68.784C208.697 68.4 208.59 68.0373 208.377 67.696C208.163 67.3547 207.801 67.0347 207.289 66.736C206.777 66.4373 206.307 66.2027 205.881 66.032C205.454 65.8187 204.835 65.5413 204.025 65.2C203.214 64.8587 202.595 64.5813 202.169 64.368C197.859 62.32 195.705 59.248 195.705 55.152C195.705 51.9947 196.899 49.5413 199.289 47.792C201.721 46.0427 204.729 45.168 208.312 45.168C211.641 45.168 214.414 45.616 216.633 46.512ZM244.508 46.512V54.512C242.246 53.1893 239.601 52.528 236.572 52.528C235.462 52.528 234.609 52.7627 234.012 53.232C233.414 53.6587 233.116 54.2133 233.116 54.896C233.116 55.28 233.222 55.6427 233.436 55.984C233.649 56.3253 233.99 56.6453 234.46 56.944C234.972 57.2427 235.441 57.52 235.868 57.776C236.337 57.9893 236.956 58.2667 237.724 58.608C238.534 58.9493 239.174 59.248 239.644 59.504C241.606 60.528 243.185 61.7227 244.38 63.088C245.574 64.4107 246.172 66.1173 246.172 68.208C246.172 71.408 245.02 73.8827 242.716 75.632C240.412 77.3813 237.361 78.256 233.564 78.256C229.638 78.256 226.353 77.5947 223.708 76.272V67.952C226.652 70 229.766 71.024 233.052 71.024C235.398 71.024 236.572 70.2773 236.572 68.784C236.572 68.4 236.465 68.0373 236.252 67.696C236.038 67.3547 235.676 67.0347 235.164 66.736C234.652 66.4373 234.182 66.2027 233.756 66.032C233.329 65.8187 232.71 65.5413 231.9 65.2C231.089 64.8587 230.47 64.5813 230.044 64.368C225.734 62.32 223.58 59.248 223.58 55.152C223.58 51.9947 224.774 49.5413 227.164 47.792C229.596 46.0427 232.604 45.168 236.188 45.168C239.516 45.168 242.289 45.616 244.508 46.512ZM270.655 58.8V58.032C270.356 54.2347 268.692 52.336 265.663 52.336C264.169 52.336 262.847 52.8907 261.695 54C260.543 55.0667 259.775 56.6667 259.391 58.8H270.655ZM277.375 68.336V76.144C275.156 77.5947 271.764 78.32 267.199 78.32C261.865 78.32 257.705 76.784 254.719 73.712C251.775 70.5973 250.303 66.608 250.303 61.744C250.303 56.5813 251.732 52.5493 254.591 49.648C257.492 46.704 261.055 45.232 265.279 45.232C269.631 45.232 273.065 46.512 275.583 49.072C278.1 51.5893 279.359 55.3653 279.359 60.4C279.359 61.3813 279.188 63.0667 278.847 65.456H259.775C260.415 67.248 261.524 68.6347 263.103 69.616C264.681 70.5973 266.58 71.088 268.799 71.088C272.084 71.088 274.943 70.1707 277.375 68.336ZM296.844 52.4V67.312C296.844 68.464 297.164 69.3387 297.804 69.936C298.486 70.5333 299.361 70.832 300.428 70.832C302.134 70.832 303.649 70.4053 304.972 69.552V77.296C303.393 77.9787 301.26 78.32 298.572 78.32C291.19 78.32 287.5 74.6293 287.5 67.248V52.4H282.828V45.552H287.5V37.872H296.844V45.552H304.396V52.4H296.844Z" fill="white"/>
</svg>
