<svg width="2233" height="124" viewBox="0 0 2233 124" fill="none" xmlns="http://www.w3.org/2000/svg">
<rect width="2233" height="124" fill="#D3D3D3"/>
<rect width="2233" height="124" fill="#FF1934"/>
<path d="M99.464 42.736H83.08V53.872H97.352V61.744H83.08V78H73.16V34.864H99.464V42.736ZM119.551 78.512C114.474 78.512 110.548 76.9973 107.775 73.968C105.002 70.896 103.615 66.9707 103.615 62.192C103.615 57.2 105.066 53.104 107.967 49.904C110.868 46.6613 114.73 45.04 119.551 45.04C124.586 45.04 128.49 46.5973 131.263 49.712C134.036 52.8267 135.423 56.7947 135.423 61.616C135.423 66.5227 134.015 70.576 131.199 73.776C128.426 76.9333 124.543 78.512 119.551 78.512ZM119.487 52.4C117.439 52.4 115.903 53.2747 114.879 55.024C113.855 56.7733 113.343 59.0347 113.343 61.808C113.343 64.5813 113.855 66.864 114.879 68.656C115.946 70.4053 117.524 71.28 119.615 71.28C121.663 71.28 123.178 70.4267 124.159 68.72C125.183 66.9707 125.695 64.7093 125.695 61.936C125.695 55.5787 123.626 52.4 119.487 52.4ZM150.808 45.552V51.568C151.405 49.6907 152.386 48.1973 153.752 47.088C155.16 45.936 156.781 45.36 158.616 45.36C159.64 45.36 160.45 45.4453 161.048 45.616V54.448C160.024 53.9787 158.85 53.744 157.528 53.744C155.522 53.744 153.901 54.4907 152.664 55.984C151.426 57.4347 150.808 59.376 150.808 61.808V78H141.464L141.528 45.552H150.808ZM191.455 70.128H208.351V78H181.535V34.864H208.095V42.736H191.455V52.528H206.303V60.336H191.455V70.128ZM225.372 45.552V50.608C227.164 47.024 230.214 45.232 234.524 45.232C239.089 45.232 242.118 47.28 243.612 51.376C244.337 49.456 245.553 47.9627 247.26 46.896C248.966 45.7867 250.972 45.232 253.276 45.232C256.476 45.232 258.993 46.256 260.828 48.304C262.705 50.3093 263.644 53.2747 263.644 57.2V78H254.3V58.736C254.3 56.9013 253.937 55.4507 253.212 54.384C252.486 53.3173 251.441 52.784 250.076 52.784C248.625 52.784 247.324 53.3813 246.172 54.576C245.062 55.728 244.507 57.8187 244.507 60.848V78H235.164V58.736C235.164 56.9013 234.801 55.4507 234.076 54.384C233.35 53.3173 232.305 52.784 230.94 52.784C229.489 52.784 228.188 53.3813 227.036 54.576C225.926 55.728 225.372 57.8187 225.372 60.848V78H216.028V45.552H225.372ZM287.668 70.576C289.716 70.576 291.38 69.808 292.66 68.272C293.94 66.6933 294.58 64.56 294.58 61.872C294.58 58.928 293.918 56.7093 292.596 55.216C291.316 53.68 289.673 52.912 287.668 52.912C285.705 52.912 283.998 53.6587 282.548 55.152C281.097 56.6453 280.372 58.736 280.372 61.424C280.372 64.1973 281.054 66.416 282.42 68.08C283.785 69.744 285.534 70.576 287.668 70.576ZM280.372 45.552V50.544C282.633 46.96 285.897 45.168 290.164 45.168C294.345 45.168 297.694 46.6613 300.212 49.648C302.772 52.592 304.052 56.6027 304.052 61.68C304.052 66.5013 302.814 70.4907 300.34 73.648C297.908 76.8053 294.516 78.384 290.164 78.384C285.769 78.384 282.505 76.656 280.372 73.2V89.968H271.028V45.552H280.372ZM310.473 78V32.752H319.817V78H310.473ZM342.176 78.512C337.099 78.512 333.173 76.9973 330.4 73.968C327.627 70.896 326.24 66.9707 326.24 62.192C326.24 57.2 327.691 53.104 330.592 49.904C333.493 46.6613 337.355 45.04 342.176 45.04C347.211 45.04 351.115 46.5973 353.888 49.712C356.661 52.8267 358.048 56.7947 358.048 61.616C358.048 66.5227 356.64 70.576 353.824 73.776C351.051 76.9333 347.168 78.512 342.176 78.512ZM342.112 52.4C340.064 52.4 338.528 53.2747 337.504 55.024C336.48 56.7733 335.968 59.0347 335.968 61.808C335.968 64.5813 336.48 66.864 337.504 68.656C338.571 70.4053 340.149 71.28 342.24 71.28C344.288 71.28 345.803 70.4267 346.784 68.72C347.808 66.9707 348.32 64.7093 348.32 61.936C348.32 55.5787 346.251 52.4 342.112 52.4ZM373.177 77.488L360.633 45.552H370.809L374.329 55.664C375.225 58.2667 375.95 60.5067 376.505 62.384C377.102 64.2613 377.465 65.4987 377.593 66.096L377.785 66.992C378.254 65.2853 379.406 61.5093 381.241 55.664L384.441 45.552H394.041L382.329 77.04C378.958 86.128 373.817 90.672 366.905 90.672C365.582 90.672 364.387 90.5653 363.321 90.352V82.928C364.003 83.0987 364.729 83.184 365.497 83.184C369.038 83.184 371.598 81.2853 373.177 77.488ZM407.559 45.552V50.608C409.351 47.024 412.402 45.232 416.711 45.232C421.276 45.232 424.306 47.28 425.799 51.376C426.524 49.456 427.74 47.9627 429.447 46.896C431.154 45.7867 433.159 45.232 435.463 45.232C438.663 45.232 441.18 46.256 443.015 48.304C444.892 50.3093 445.831 53.2747 445.831 57.2V78H436.487V58.736C436.487 56.9013 436.124 55.4507 435.399 54.384C434.674 53.3173 433.628 52.784 432.263 52.784C430.812 52.784 429.511 53.3813 428.359 54.576C427.25 55.728 426.695 57.8187 426.695 60.848V78H417.351V58.736C417.351 56.9013 416.988 55.4507 416.263 54.384C415.538 53.3173 414.492 52.784 413.127 52.784C411.676 52.784 410.375 53.3813 409.223 54.576C408.114 55.728 407.559 57.8187 407.559 60.848V78H398.215V45.552H407.559ZM471.967 58.8V58.032C471.668 54.2347 470.004 52.336 466.975 52.336C465.482 52.336 464.159 52.8907 463.007 54C461.855 55.0667 461.087 56.6667 460.703 58.8H471.967ZM478.687 68.336V76.144C476.468 77.5947 473.076 78.32 468.511 78.32C463.178 78.32 459.018 76.784 456.031 73.712C453.087 70.5973 451.615 66.608 451.615 61.744C451.615 56.5813 453.044 52.5493 455.903 49.648C458.804 46.704 462.367 45.232 466.591 45.232C470.943 45.232 474.378 46.512 476.895 49.072C479.412 51.5893 480.671 55.3653 480.671 60.4C480.671 61.3813 480.5 63.0667 480.159 65.456H461.087C461.727 67.248 462.836 68.6347 464.415 69.616C465.994 70.5973 467.892 71.088 470.111 71.088C473.396 71.088 476.255 70.1707 478.687 68.336ZM496.684 45.552V51.056C497.495 49.264 498.732 47.856 500.396 46.832C502.103 45.7653 504.129 45.232 506.476 45.232C509.804 45.232 512.407 46.2347 514.284 48.24C516.161 50.2027 517.1 53.104 517.1 56.944V78H507.756V58.672C507.756 56.752 507.308 55.3013 506.412 54.32C505.516 53.296 504.257 52.784 502.636 52.784C500.929 52.784 499.5 53.4667 498.348 54.832C497.239 56.1547 496.684 58.16 496.684 60.848V78H487.34V45.552H496.684ZM535.281 52.4V67.312C535.281 68.464 535.601 69.3387 536.241 69.936C536.924 70.5333 537.798 70.832 538.865 70.832C540.572 70.832 542.086 70.4053 543.409 69.552V77.296C541.83 77.9787 539.697 78.32 537.009 78.32C529.628 78.32 525.937 74.6293 525.937 67.248V52.4H521.265V45.552H525.937V37.872H535.281V45.552H542.833V52.4H535.281Z" fill="white"/>
</svg>
