<svg width="2233" height="124" viewBox="0 0 2233 124" fill="none" xmlns="http://www.w3.org/2000/svg">
<rect width="2233" height="124" fill="#D3D3D3"/>
<rect width="2233" height="124" fill="#FF1934"/>
<path d="M73.8 78V34.864H83.656V78H73.8ZM101.622 45.552V51.056C102.432 49.264 103.67 47.856 105.333 46.832C107.04 45.7653 109.067 45.232 111.414 45.232C114.742 45.232 117.344 46.2347 119.222 48.24C121.099 50.2027 122.038 53.104 122.038 56.944V78H112.694V58.672C112.694 56.752 112.246 55.3013 111.35 54.32C110.454 53.296 109.195 52.784 107.574 52.784C105.867 52.784 104.438 53.4667 103.286 54.832C102.176 56.1547 101.622 58.16 101.622 60.848V78H92.2775V45.552H101.622ZM137.275 61.872C137.445 64.7307 138.299 66.9493 139.835 68.528C141.371 70.1067 143.397 70.896 145.915 70.896C148.603 70.896 151.184 70.1493 153.659 68.656V76.464C151.141 77.8293 148.112 78.512 144.571 78.512C139.707 78.512 135.696 76.976 132.539 73.904C129.381 70.7893 127.803 66.7787 127.803 61.872C127.888 57.008 129.467 52.9973 132.539 49.84C135.611 46.64 139.813 45.04 145.147 45.04C148.432 45.04 151.269 45.6587 153.659 46.896V54.896C151.397 53.488 148.88 52.784 146.107 52.784C143.504 52.784 141.392 53.5733 139.771 55.152C138.149 56.688 137.317 58.928 137.275 61.872ZM173.739 78.512C168.661 78.512 164.736 76.9973 161.963 73.968C159.189 70.896 157.803 66.9707 157.803 62.192C157.803 57.2 159.253 53.104 162.155 49.904C165.056 46.6613 168.917 45.04 173.739 45.04C178.773 45.04 182.677 46.5973 185.451 49.712C188.224 52.8267 189.611 56.7947 189.611 61.616C189.611 66.5227 188.203 70.576 185.387 73.776C182.613 76.9333 178.731 78.512 173.739 78.512ZM173.675 52.4C171.627 52.4 170.091 53.2747 169.067 55.024C168.043 56.7733 167.531 59.0347 167.531 61.808C167.531 64.5813 168.043 66.864 169.067 68.656C170.133 70.4053 171.712 71.28 173.803 71.28C175.851 71.28 177.365 70.4267 178.347 68.72C179.371 66.9707 179.883 64.7093 179.883 61.936C179.883 55.5787 177.813 52.4 173.675 52.4ZM205.059 45.552V50.608C206.851 47.024 209.902 45.232 214.211 45.232C218.776 45.232 221.806 47.28 223.299 51.376C224.024 49.456 225.24 47.9627 226.947 46.896C228.654 45.7867 230.659 45.232 232.963 45.232C236.163 45.232 238.68 46.256 240.515 48.304C242.392 50.3093 243.331 53.2747 243.331 57.2V78H233.987V58.736C233.987 56.9013 233.624 55.4507 232.899 54.384C232.174 53.3173 231.128 52.784 229.763 52.784C228.312 52.784 227.011 53.3813 225.859 54.576C224.75 55.728 224.195 57.8187 224.195 60.848V78H214.851V58.736C214.851 56.9013 214.488 55.4507 213.763 54.384C213.038 53.3173 211.992 52.784 210.627 52.784C209.176 52.784 207.875 53.3813 206.723 54.576C205.614 55.728 205.059 57.8187 205.059 60.848V78H195.715V45.552H205.059ZM269.467 58.8V58.032C269.168 54.2347 267.504 52.336 264.475 52.336C262.982 52.336 261.659 52.8907 260.507 54C259.355 55.0667 258.587 56.6667 258.203 58.8H269.467ZM276.187 68.336V76.144C273.968 77.5947 270.576 78.32 266.011 78.32C260.678 78.32 256.518 76.784 253.531 73.712C250.587 70.5973 249.115 66.608 249.115 61.744C249.115 56.5813 250.544 52.5493 253.403 49.648C256.304 46.704 259.867 45.232 264.091 45.232C268.443 45.232 271.878 46.512 274.395 49.072C276.912 51.5893 278.171 55.3653 278.171 60.4C278.171 61.3813 278 63.0667 277.659 65.456H258.587C259.227 67.248 260.336 68.6347 261.915 69.616C263.494 70.5973 265.392 71.088 267.611 71.088C270.896 71.088 273.755 70.1707 276.187 68.336ZM329.896 34.864V42.8H319.4V78H309.48V42.8H298.92V34.864H329.896ZM351.717 64.688H348.708C347.13 64.688 345.914 65.0293 345.061 65.712C344.207 66.3947 343.781 67.2693 343.781 68.336C343.781 70.512 345.039 71.6 347.557 71.6C348.879 71.6 349.903 71.1947 350.628 70.384C351.354 69.5733 351.717 68.464 351.717 67.056V64.688ZM336.549 55.536V47.152C339.109 45.7013 342.799 44.976 347.621 44.976C352.229 44.976 355.663 45.9787 357.925 47.984C360.186 49.9467 361.317 53.0187 361.317 57.2V78H352.165V74.032C350.799 76.8053 348.111 78.192 344.101 78.192C340.943 78.192 338.469 77.296 336.677 75.504C334.927 73.712 334.053 71.472 334.053 68.784C334.053 65.6693 335.183 63.2587 337.445 61.552C339.749 59.8027 343.141 58.928 347.621 58.928H351.717V56.688C351.717 53.9573 349.903 52.592 346.277 52.592C342.778 52.592 339.535 53.5733 336.549 55.536ZM386.573 61.808L397.389 78H387.213L381.773 68.272L375.949 78H365.837L377.421 61.744L366.541 45.552H376.909L382.157 55.216L387.981 45.552H398.221L386.573 61.808Z" fill="white"/>
</svg>
