<svg width="6348" height="124" viewBox="0 0 6348 124" fill="none" xmlns="http://www.w3.org/2000/svg">
<rect width="6348" height="124" fill="#D3D3D3"/>
<rect width="6348" height="124" fill="#1699D9"/>
<path d="M287.87 42.736H271.486V53.872H285.758V61.744H271.486V78H261.566V34.864H287.87V42.736ZM302.901 45.552V51.568C303.499 49.6907 304.48 48.1973 305.845 47.088C307.253 45.936 308.875 45.36 310.709 45.36C311.733 45.36 312.544 45.4453 313.141 45.616V54.448C312.117 53.9787 310.944 53.744 309.621 53.744C307.616 53.744 305.995 54.4907 304.757 55.984C303.52 57.4347 302.901 59.376 302.901 61.808V78H293.557L293.621 45.552H302.901ZM331.645 78.512C326.567 78.512 322.642 76.9973 319.869 73.968C317.095 70.896 315.709 66.9707 315.709 62.192C315.709 57.2 317.159 53.104 320.061 49.904C322.962 46.6613 326.823 45.04 331.645 45.04C336.679 45.04 340.583 46.5973 343.357 49.712C346.13 52.8267 347.517 56.7947 347.517 61.616C347.517 66.5227 346.109 70.576 343.293 73.776C340.519 76.9333 336.637 78.512 331.645 78.512ZM331.581 52.4C329.533 52.4 327.997 53.2747 326.973 55.024C325.949 56.7733 325.437 59.0347 325.437 61.808C325.437 64.5813 325.949 66.864 326.973 68.656C328.039 70.4053 329.618 71.28 331.709 71.28C333.757 71.28 335.271 70.4267 336.253 68.72C337.277 66.9707 337.789 64.7093 337.789 61.936C337.789 55.5787 335.719 52.4 331.581 52.4ZM362.965 45.552V51.056C363.776 49.264 365.013 47.856 366.677 46.832C368.384 45.7653 370.411 45.232 372.757 45.232C376.085 45.232 378.688 46.2347 380.565 48.24C382.443 50.2027 383.381 53.104 383.381 56.944V78H374.037V58.672C374.037 56.752 373.589 55.3013 372.693 54.32C371.797 53.296 370.539 52.784 368.917 52.784C367.211 52.784 365.781 53.4667 364.629 54.832C363.52 56.1547 362.965 58.16 362.965 60.848V78H353.621V45.552H362.965ZM401.562 52.4V67.312C401.562 68.464 401.882 69.3387 402.522 69.936C403.205 70.5333 404.08 70.832 405.146 70.832C406.853 70.832 408.368 70.4053 409.69 69.552V77.296C408.112 77.9787 405.978 78.32 403.29 78.32C395.909 78.32 392.218 74.6293 392.218 67.248V52.4H387.546V45.552H392.218V37.872H401.562V45.552H409.114V52.4H401.562Z" fill="white"/>
</svg>
