<svg width="2233" height="124" viewBox="0 0 2233 124" fill="none" xmlns="http://www.w3.org/2000/svg">
<rect width="2233" height="124" fill="#D3D3D3"/>
<rect width="2233" height="124" fill="#FF1934"/>
<path d="M83.016 56.24H86.28C91.4853 56.24 94.088 53.872 94.088 49.136C94.088 44.8693 91.6773 42.736 86.856 42.736H83.016V56.24ZM73.16 34.864H88.008C92.7867 34.864 96.648 36.208 99.592 38.896C102.579 41.584 104.072 44.9973 104.072 49.136C104.072 53.872 102.515 57.5413 99.4 60.144C96.328 62.7467 92.5307 64.048 88.008 64.048H83.016V78H73.16V34.864ZM124.967 64.688H121.958C120.38 64.688 119.164 65.0293 118.311 65.712C117.457 66.3947 117.031 67.2693 117.031 68.336C117.031 70.512 118.289 71.6 120.807 71.6C122.129 71.6 123.153 71.1947 123.878 70.384C124.604 69.5733 124.967 68.464 124.967 67.056V64.688ZM109.799 55.536V47.152C112.359 45.7013 116.049 44.976 120.871 44.976C125.479 44.976 128.913 45.9787 131.175 47.984C133.436 49.9467 134.567 53.0187 134.567 57.2V78H125.415V74.032C124.049 76.8053 121.361 78.192 117.351 78.192C114.193 78.192 111.719 77.296 109.927 75.504C108.177 73.712 107.303 71.472 107.303 68.784C107.303 65.6693 108.433 63.2587 110.695 61.552C112.999 59.8027 116.391 58.928 120.871 58.928H124.967V56.688C124.967 53.9573 123.153 52.592 119.527 52.592C116.028 52.592 112.785 53.5733 109.799 55.536ZM150.927 77.488L138.383 45.552H148.559L152.079 55.664C152.975 58.2667 153.7 60.5067 154.255 62.384C154.852 64.2613 155.215 65.4987 155.343 66.096L155.535 66.992C156.004 65.2853 157.156 61.5093 158.991 55.664L162.191 45.552H171.791L160.079 77.04C156.708 86.128 151.567 90.672 144.655 90.672C143.332 90.672 142.137 90.5653 141.071 90.352V82.928C141.753 83.0987 142.479 83.184 143.247 83.184C146.788 83.184 149.348 81.2853 150.927 77.488ZM196.445 46.512V54.512C194.184 53.1893 191.538 52.528 188.509 52.528C187.4 52.528 186.546 52.7627 185.949 53.232C185.352 53.6587 185.053 54.2133 185.053 54.896C185.053 55.28 185.16 55.6427 185.373 55.984C185.586 56.3253 185.928 56.6453 186.397 56.944C186.909 57.2427 187.378 57.52 187.805 57.776C188.274 57.9893 188.893 58.2667 189.661 58.608C190.472 58.9493 191.112 59.248 191.581 59.504C193.544 60.528 195.122 61.7227 196.317 63.088C197.512 64.4107 198.109 66.1173 198.109 68.208C198.109 71.408 196.957 73.8827 194.653 75.632C192.349 77.3813 189.298 78.256 185.501 78.256C181.576 78.256 178.29 77.5947 175.645 76.272V67.952C178.589 70 181.704 71.024 184.989 71.024C187.336 71.024 188.509 70.2773 188.509 68.784C188.509 68.4 188.402 68.0373 188.189 67.696C187.976 67.3547 187.613 67.0347 187.101 66.736C186.589 66.4373 186.12 66.2027 185.693 66.032C185.266 65.8187 184.648 65.5413 183.837 65.2C183.026 64.8587 182.408 64.5813 181.981 64.368C177.672 62.32 175.517 59.248 175.517 55.152C175.517 51.9947 176.712 49.5413 179.101 47.792C181.533 46.0427 184.541 45.168 188.125 45.168C191.453 45.168 194.226 45.616 196.445 46.512ZM204.16 78V32.752H213.504V78H204.16ZM221.848 78V45.552H231.192V78H221.848ZM222.68 39.984C221.613 38.9173 221.08 37.6373 221.08 36.144C221.08 34.6507 221.613 33.3707 222.68 32.304C223.746 31.2373 225.026 30.704 226.52 30.704C228.013 30.704 229.293 31.2373 230.36 32.304C231.426 33.3707 231.96 34.6507 231.96 36.144C231.96 37.6373 231.426 38.9173 230.36 39.984C229.293 41.0507 228.013 41.584 226.52 41.584C225.026 41.584 223.746 41.0507 222.68 39.984ZM255.855 70.576C257.903 70.576 259.567 69.808 260.847 68.272C262.127 66.6933 262.767 64.56 262.767 61.872C262.767 58.928 262.106 56.7093 260.783 55.216C259.503 53.68 257.86 52.912 255.855 52.912C253.892 52.912 252.186 53.6587 250.735 55.152C249.284 56.6453 248.559 58.736 248.559 61.424C248.559 64.1973 249.242 66.416 250.607 68.08C251.972 69.744 253.722 70.576 255.855 70.576ZM248.559 45.552V50.544C250.82 46.96 254.084 45.168 258.351 45.168C262.532 45.168 265.882 46.6613 268.399 49.648C270.959 52.592 272.239 56.6027 272.239 61.68C272.239 66.5013 271.002 70.4907 268.527 73.648C266.095 76.8053 262.703 78.384 258.351 78.384C253.956 78.384 250.692 76.656 248.559 73.2V89.968H239.215V45.552H248.559Z" fill="white"/>
</svg>
