<svg width="2233" height="124" viewBox="0 0 2233 124" fill="none" xmlns="http://www.w3.org/2000/svg">
<rect width="2233" height="124" fill="#D3D3D3"/>
<rect width="2233" height="124" fill="#FF1934"/>
<path d="M109.32 34.864L94.408 62.128V78H84.552V62.192L69.832 34.864H81.352L83.976 41.136C85.3413 44.3787 86.472 47.152 87.368 49.456C88.264 51.76 88.84 53.2533 89.096 53.936L89.416 54.96C89.8427 53.04 91.72 48.432 95.048 41.136L97.864 34.864H109.32ZM128.301 78.512C123.224 78.512 119.298 76.9973 116.525 73.968C113.752 70.896 112.365 66.9707 112.365 62.192C112.365 57.2 113.816 53.104 116.717 49.904C119.618 46.6613 123.48 45.04 128.301 45.04C133.336 45.04 137.24 46.5973 140.013 49.712C142.786 52.8267 144.173 56.7947 144.173 61.616C144.173 66.5227 142.765 70.576 139.949 73.776C137.176 76.9333 133.293 78.512 128.301 78.512ZM128.237 52.4C126.189 52.4 124.653 53.2747 123.629 55.024C122.605 56.7733 122.093 59.0347 122.093 61.808C122.093 64.5813 122.605 66.864 123.629 68.656C124.696 70.4053 126.274 71.28 128.365 71.28C130.413 71.28 131.928 70.4267 132.909 68.72C133.933 66.9707 134.445 64.7093 134.445 61.936C134.445 55.5787 132.376 52.4 128.237 52.4ZM170.374 45.552H179.718V78H170.374V72.816C168.667 76.4427 165.382 78.256 160.518 78.256C157.19 78.256 154.587 77.3387 152.71 75.504C150.875 73.6267 149.958 70.8747 149.958 67.248V45.552H159.302V65.136C159.302 68.9333 160.966 70.832 164.294 70.832C168.347 70.832 170.374 68.1227 170.374 62.704V45.552ZM185.355 50.288L191.819 33.584H202.123L193.419 50.288H185.355ZM213.745 45.552V51.568C214.342 49.6907 215.324 48.1973 216.689 47.088C218.097 45.936 219.718 45.36 221.553 45.36C222.577 45.36 223.388 45.4453 223.985 45.616V54.448C222.961 53.9787 221.788 53.744 220.465 53.744C218.46 53.744 216.838 54.4907 215.601 55.984C214.364 57.4347 213.745 59.376 213.745 61.808V78H204.401L204.465 45.552H213.745ZM246.905 58.8V58.032C246.606 54.2347 244.942 52.336 241.913 52.336C240.419 52.336 239.097 52.8907 237.945 54C236.793 55.0667 236.025 56.6667 235.641 58.8H246.905ZM253.625 68.336V76.144C251.406 77.5947 248.014 78.32 243.449 78.32C238.115 78.32 233.955 76.784 230.969 73.712C228.025 70.5973 226.553 66.608 226.553 61.744C226.553 56.5813 227.982 52.5493 230.841 49.648C233.742 46.704 237.305 45.232 241.529 45.232C245.881 45.232 249.315 46.512 251.833 49.072C254.35 51.5893 255.609 55.3653 255.609 60.4C255.609 61.3813 255.438 63.0667 255.097 65.456H236.025C236.665 67.248 237.774 68.6347 239.353 69.616C240.931 70.5973 242.83 71.088 245.049 71.088C248.334 71.088 251.193 70.1707 253.625 68.336ZM288.454 70.128H293.638C298.502 70.128 300.934 68.464 300.934 65.136C300.934 61.808 298.523 60.144 293.702 60.144H288.454V70.128ZM288.454 42.736V52.4H292.102C294.662 52.4 296.582 51.9307 297.862 50.992C299.184 50.0533 299.846 48.816 299.846 47.28C299.846 44.2507 297.798 42.736 293.702 42.736H288.454ZM278.598 34.864H295.366C300.102 34.864 303.707 35.9947 306.182 38.256C308.656 40.4747 309.894 43.312 309.894 46.768C309.894 49.0293 309.296 51.0133 308.102 52.72C306.907 54.4267 305.35 55.5787 303.43 56.176C308.422 57.6693 310.918 61.04 310.918 66.288C310.918 69.7013 309.68 72.5173 307.206 74.736C304.774 76.912 301.446 78 297.222 78H278.598V34.864ZM335.78 58.8V58.032C335.481 54.2347 333.817 52.336 330.788 52.336C329.294 52.336 327.972 52.8907 326.82 54C325.668 55.0667 324.9 56.6667 324.516 58.8H335.78ZM342.5 68.336V76.144C340.281 77.5947 336.889 78.32 332.324 78.32C326.99 78.32 322.83 76.784 319.844 73.712C316.9 70.5973 315.428 66.608 315.428 61.744C315.428 56.5813 316.857 52.5493 319.716 49.648C322.617 46.704 326.18 45.232 330.404 45.232C334.756 45.232 338.19 46.512 340.708 49.072C343.225 51.5893 344.484 55.3653 344.484 60.4C344.484 61.3813 344.313 63.0667 343.972 65.456H324.9C325.54 67.248 326.649 68.6347 328.228 69.616C329.806 70.5973 331.705 71.088 333.924 71.088C337.209 71.088 340.068 70.1707 342.5 68.336ZM351.473 78V45.552H360.817V78H351.473ZM352.305 39.984C351.238 38.9173 350.705 37.6373 350.705 36.144C350.705 34.6507 351.238 33.3707 352.305 32.304C353.371 31.2373 354.651 30.704 356.145 30.704C357.638 30.704 358.918 31.2373 359.985 32.304C361.051 33.3707 361.585 34.6507 361.585 36.144C361.585 37.6373 361.051 38.9173 359.985 39.984C358.918 41.0507 357.638 41.584 356.145 41.584C354.651 41.584 353.371 41.0507 352.305 39.984ZM378.184 45.552V51.056C378.995 49.264 380.232 47.856 381.896 46.832C383.603 45.7653 385.629 45.232 387.976 45.232C391.304 45.232 393.907 46.2347 395.784 48.24C397.661 50.2027 398.6 53.104 398.6 56.944V78H389.256V58.672C389.256 56.752 388.808 55.3013 387.912 54.32C387.016 53.296 385.757 52.784 384.136 52.784C382.429 52.784 381 53.4667 379.848 54.832C378.739 56.1547 378.184 58.16 378.184 60.848V78H368.84V45.552H378.184ZM420.365 69.488C422.37 69.488 423.928 68.7413 425.037 67.248C426.189 65.712 426.765 63.8773 426.765 61.744C426.765 55.9413 424.653 53.04 420.429 53.04C418.552 53.04 417.08 53.7653 416.013 55.216C414.946 56.6667 414.413 58.672 414.413 61.232C414.413 63.92 414.925 65.968 415.949 67.376C416.973 68.784 418.445 69.488 420.365 69.488ZM426.765 45.552H436.045V74.864C436.045 80.0693 434.488 83.9733 431.373 86.576C428.258 89.2213 424.354 90.544 419.661 90.544C415.096 90.544 411.106 89.7333 407.693 88.112V78.576C410.68 80.9653 414.349 82.16 418.701 82.16C421.517 82.16 423.565 81.5627 424.845 80.368C426.125 79.1733 426.765 77.296 426.765 74.736V72.56C424.888 75.4613 421.901 76.912 417.805 76.912C414.221 76.912 411.128 75.5893 408.525 72.944C405.965 70.2987 404.685 66.3733 404.685 61.168C404.685 56.56 405.922 52.7627 408.397 49.776C410.914 46.7467 414.2 45.232 418.253 45.232C422.093 45.232 424.93 46.768 426.765 49.84V45.552ZM484.619 36.784V46C481.163 43.9947 477.579 42.992 473.867 42.992C472.203 42.992 470.923 43.3333 470.027 44.016C469.173 44.6987 468.747 45.5733 468.747 46.64C468.747 47.7067 469.28 48.6667 470.347 49.52C471.413 50.3307 473.013 51.2053 475.147 52.144C476.469 52.7413 477.557 53.2747 478.411 53.744C479.307 54.1707 480.309 54.7893 481.419 55.6C482.571 56.368 483.467 57.2 484.107 58.096C484.789 58.9493 485.365 60.016 485.835 61.296C486.304 62.576 486.539 63.9627 486.539 65.456C486.539 69.3387 485.109 72.496 482.251 74.928C479.392 77.3173 475.595 78.512 470.859 78.512C465.781 78.512 461.643 77.616 458.443 75.824V65.904C462.325 68.72 466.464 70.128 470.859 70.128C472.352 70.128 473.589 69.744 474.571 68.976C475.552 68.1653 476.043 67.12 476.043 65.84C476.043 65.4133 475.979 65.008 475.851 64.624C475.723 64.24 475.488 63.8773 475.147 63.536C474.805 63.1947 474.464 62.9173 474.123 62.704C473.824 62.448 473.355 62.1707 472.715 61.872C472.117 61.5307 471.605 61.2533 471.179 61.04C470.752 60.8267 470.112 60.528 469.259 60.144C468.448 59.76 467.787 59.4613 467.275 59.248C464.501 57.968 462.261 56.3893 460.555 54.512C458.891 52.6347 458.059 50.1387 458.059 47.024C458.059 43.312 459.424 40.3253 462.155 38.064C464.885 35.76 468.661 34.608 473.483 34.608C477.792 34.608 481.504 35.3333 484.619 36.784ZM500.15 61.872C500.32 64.7307 501.174 66.9493 502.71 68.528C504.246 70.1067 506.272 70.896 508.79 70.896C511.478 70.896 514.059 70.1493 516.534 68.656V76.464C514.016 77.8293 510.987 78.512 507.446 78.512C502.582 78.512 498.571 76.976 495.414 73.904C492.256 70.7893 490.678 66.7787 490.678 61.872C490.763 57.008 492.342 52.9973 495.414 49.84C498.486 46.64 502.688 45.04 508.022 45.04C511.307 45.04 514.144 45.6587 516.534 46.896V54.896C514.272 53.488 511.755 52.784 508.982 52.784C506.379 52.784 504.267 53.5733 502.646 55.152C501.024 56.688 500.192 58.928 500.15 61.872ZM538.342 64.688H535.333C533.755 64.688 532.539 65.0293 531.686 65.712C530.832 66.3947 530.406 67.2693 530.406 68.336C530.406 70.512 531.664 71.6 534.182 71.6C535.504 71.6 536.528 71.1947 537.253 70.384C537.979 69.5733 538.342 68.464 538.342 67.056V64.688ZM523.174 55.536V47.152C525.734 45.7013 529.424 44.976 534.246 44.976C538.854 44.976 542.288 45.9787 544.55 47.984C546.811 49.9467 547.942 53.0187 547.942 57.2V78H538.79V74.032C537.424 76.8053 534.736 78.192 530.726 78.192C527.568 78.192 525.094 77.296 523.302 75.504C521.552 73.712 520.678 71.472 520.678 68.784C520.678 65.6693 521.808 63.2587 524.07 61.552C526.374 59.8027 529.766 58.928 534.246 58.928H538.342V56.688C538.342 53.9573 536.528 52.592 532.902 52.592C529.403 52.592 526.16 53.5733 523.174 55.536ZM564.622 45.552V50.608C566.414 47.024 569.464 45.232 573.774 45.232C578.339 45.232 581.368 47.28 582.862 51.376C583.587 49.456 584.803 47.9627 586.51 46.896C588.216 45.7867 590.222 45.232 592.526 45.232C595.726 45.232 598.243 46.256 600.078 48.304C601.955 50.3093 602.894 53.2747 602.894 57.2V78H593.55V58.736C593.55 56.9013 593.187 55.4507 592.462 54.384C591.736 53.3173 590.691 52.784 589.326 52.784C587.875 52.784 586.574 53.3813 585.422 54.576C584.312 55.728 583.757 57.8187 583.757 60.848V78H574.414V58.736C574.414 56.9013 574.051 55.4507 573.326 54.384C572.6 53.3173 571.555 52.784 570.19 52.784C568.739 52.784 567.438 53.3813 566.286 54.576C565.176 55.728 564.622 57.8187 564.622 60.848V78H555.278V45.552H564.622ZM619.622 45.552V50.608C621.414 47.024 624.464 45.232 628.774 45.232C633.339 45.232 636.368 47.28 637.862 51.376C638.587 49.456 639.803 47.9627 641.51 46.896C643.216 45.7867 645.222 45.232 647.526 45.232C650.726 45.232 653.243 46.256 655.078 48.304C656.955 50.3093 657.894 53.2747 657.894 57.2V78H648.55V58.736C648.55 56.9013 648.187 55.4507 647.462 54.384C646.736 53.3173 645.691 52.784 644.326 52.784C642.875 52.784 641.574 53.3813 640.422 54.576C639.312 55.728 638.757 57.8187 638.757 60.848V78H629.414V58.736C629.414 56.9013 629.051 55.4507 628.326 54.384C627.6 53.3173 626.555 52.784 625.19 52.784C623.739 52.784 622.438 53.3813 621.286 54.576C620.176 55.728 619.622 57.8187 619.622 60.848V78H610.278V45.552H619.622ZM684.03 58.8V58.032C683.731 54.2347 682.067 52.336 679.038 52.336C677.544 52.336 676.222 52.8907 675.07 54C673.918 55.0667 673.15 56.6667 672.766 58.8H684.03ZM690.75 68.336V76.144C688.531 77.5947 685.139 78.32 680.574 78.32C675.24 78.32 671.08 76.784 668.094 73.712C665.15 70.5973 663.678 66.608 663.678 61.744C663.678 56.5813 665.107 52.5493 667.966 49.648C670.867 46.704 674.43 45.232 678.654 45.232C683.006 45.232 686.44 46.512 688.958 49.072C691.475 51.5893 692.734 55.3653 692.734 60.4C692.734 61.3813 692.563 63.0667 692.222 65.456H673.15C673.79 67.248 674.899 68.6347 676.478 69.616C678.056 70.5973 679.955 71.088 682.174 71.088C685.459 71.088 688.318 70.1707 690.75 68.336ZM714.315 70.576C716.448 70.576 718.176 69.744 719.499 68.08C720.821 66.416 721.483 64.1973 721.483 61.424C721.483 58.736 720.757 56.6453 719.307 55.152C717.899 53.6587 716.213 52.912 714.251 52.912C712.288 52.912 710.624 53.7013 709.259 55.28C707.936 56.8587 707.275 59.056 707.275 61.872C707.275 64.4747 707.957 66.5867 709.323 68.208C710.688 69.7867 712.352 70.576 714.315 70.576ZM721.483 32.752H730.826V78H721.483V72.944C719.307 76.5707 716.064 78.384 711.755 78.384C707.531 78.384 704.139 76.7413 701.579 73.456C699.061 70.1707 697.803 66.2453 697.803 61.68C697.803 56.56 699.125 52.528 701.771 49.584C704.416 46.64 707.765 45.168 711.819 45.168C716.043 45.168 719.264 46.96 721.483 50.544V32.752Z" fill="white"/>
</svg>
