<svg width="338" height="375" viewBox="0 0 338 375" fill="none" xmlns="http://www.w3.org/2000/svg">
<rect width="338" height="375" fill="#D3D3D3"/>
<rect x="9" y="50" width="320" height="265" rx="16" fill="white"/>
<g filter="url(#filter0_d_1124_4113)">
<path d="M9 66C9 57.1634 16.1634 50 25 50H313C321.837 50 329 57.1634 329 66V98H9V66Z" fill="#FF1934" shape-rendering="crispEdges"/>
<g clip-path="url(#clip0_1124_4113)">
<path d="M36.7601 73.4602C36.4601 73.1302 35.9601 73.1102 35.6301 73.4102C35.3001 73.7102 35.2801 74.2102 35.5801 74.5402L38.6301 77.8602C38.7001 77.9402 38.7001 78.0602 38.6301 78.1302L35.5801 81.4502C35.2801 81.7802 35.3001 82.2802 35.6301 82.5802C35.7801 82.7202 35.9801 82.7902 36.1701 82.7902C36.3901 82.7902 36.6001 82.7002 36.7601 82.5302L39.8101 79.2002C40.4401 78.5102 40.4401 77.4602 39.8101 76.7702L36.7601 73.4502V73.4602Z" fill="white"/>
<path d="M37 68C31.49 68 27 72.49 27 78C27 83.51 31.49 88 37 88C42.51 88 47 83.51 47 78C47 72.49 42.51 68 37 68ZM37 86.4C32.37 86.4 28.6 82.63 28.6 78C28.6 73.37 32.37 69.6 37 69.6C41.63 69.6 45.4 73.37 45.4 78C45.4 82.63 41.63 86.4 37 86.4Z" fill="white"/>
</g>
<path d="M60.066 77.24H60.78C61.9187 77.24 62.488 76.722 62.488 75.686C62.488 74.7527 61.9607 74.286 60.906 74.286H60.066V77.24ZM57.91 72.564H61.158C62.2033 72.564 63.048 72.858 63.692 73.446C64.3453 74.034 64.672 74.7807 64.672 75.686C64.672 76.722 64.3313 77.5247 63.65 78.094C62.978 78.6633 62.1473 78.948 61.158 78.948H60.066V82H57.91V72.564ZM69.2427 79.088H68.5847C68.2393 79.088 67.9733 79.1627 67.7867 79.312C67.6 79.4613 67.5067 79.6527 67.5067 79.886C67.5067 80.362 67.782 80.6 68.3327 80.6C68.622 80.6 68.846 80.5113 69.0047 80.334C69.1633 80.1567 69.2427 79.914 69.2427 79.606V79.088ZM65.9247 77.086V75.252C66.4847 74.9347 67.292 74.776 68.3467 74.776C69.3547 74.776 70.106 74.9953 70.6007 75.434C71.0953 75.8633 71.3427 76.5353 71.3427 77.45V82H69.3407V81.132C69.042 81.7387 68.454 82.042 67.5767 82.042C66.886 82.042 66.3447 81.846 65.9527 81.454C65.57 81.062 65.3787 80.572 65.3787 79.984C65.3787 79.3027 65.626 78.7753 66.1207 78.402C66.6247 78.0193 67.3667 77.828 68.3467 77.828H69.2427V77.338C69.2427 76.7407 68.846 76.442 68.0527 76.442C67.2873 76.442 66.578 76.6567 65.9247 77.086ZM71.5474 84.548V82.994C71.8554 83.134 72.1214 83.204 72.3454 83.204C72.8308 83.204 73.0734 82.8913 73.0734 82.266V74.902H75.1034V82.294C75.1034 83.0407 74.8934 83.638 74.4734 84.086C74.0534 84.5433 73.4468 84.772 72.6534 84.772C72.3268 84.772 71.9581 84.6973 71.5474 84.548ZM73.2414 73.684C73.0081 73.4507 72.8914 73.1707 72.8914 72.844C72.8914 72.5173 73.0081 72.2373 73.2414 72.004C73.4748 71.7707 73.7548 71.654 74.0814 71.654C74.4081 71.654 74.6881 71.7707 74.9214 72.004C75.1548 72.2373 75.2714 72.5173 75.2714 72.844C75.2714 73.1707 75.1548 73.4507 74.9214 73.684C74.6881 73.9173 74.4081 74.034 74.0814 74.034C73.7548 74.034 73.4748 73.9173 73.2414 73.684ZM80.3032 79.088H79.6452C79.2999 79.088 79.0339 79.1627 78.8472 79.312C78.6606 79.4613 78.5672 79.6527 78.5672 79.886C78.5672 80.362 78.8426 80.6 79.3932 80.6C79.6826 80.6 79.9066 80.5113 80.0652 80.334C80.2239 80.1567 80.3032 79.914 80.3032 79.606V79.088ZM76.9852 77.086V75.252C77.5452 74.9347 78.3526 74.776 79.4072 74.776C80.4152 74.776 81.1666 74.9953 81.6612 75.434C82.1559 75.8633 82.4032 76.5353 82.4032 77.45V82H80.4012V81.132C80.1026 81.7387 79.5146 82.042 78.6372 82.042C77.9466 82.042 77.4052 81.846 77.0132 81.454C76.6306 81.062 76.4392 80.572 76.4392 79.984C76.4392 79.3027 76.6866 78.7753 77.1812 78.402C77.6852 78.0193 78.4272 77.828 79.4072 77.828H80.3032V77.338C80.3032 76.7407 79.9066 76.442 79.1132 76.442C78.3479 76.442 77.6386 76.6567 76.9852 77.086ZM90.686 82H88.32L86.052 78.514V82H84.008V72.34H86.052V78.08L88.292 74.902H90.644L88.18 78.304L90.686 82ZM97.4039 77.24H98.1179C99.2566 77.24 99.8259 76.722 99.8259 75.686C99.8259 74.7527 99.2986 74.286 98.2439 74.286H97.4039V77.24ZM95.2479 72.564H98.4959C99.5412 72.564 100.386 72.858 101.03 73.446C101.683 74.034 102.01 74.7807 102.01 75.686C102.01 76.722 101.669 77.5247 100.988 78.094C100.316 78.6633 99.4852 78.948 98.4959 78.948H97.4039V82H95.2479V72.564ZM107.169 77.8V77.632C107.103 76.8013 106.739 76.386 106.077 76.386C105.75 76.386 105.461 76.5073 105.209 76.75C104.957 76.9833 104.789 77.3333 104.705 77.8H107.169ZM108.639 79.886V81.594C108.153 81.9113 107.411 82.07 106.413 82.07C105.246 82.07 104.336 81.734 103.683 81.062C103.039 80.3807 102.717 79.508 102.717 78.444C102.717 77.3147 103.029 76.4327 103.655 75.798C104.289 75.154 105.069 74.832 105.993 74.832C106.945 74.832 107.696 75.112 108.247 75.672C108.797 76.2227 109.073 77.0487 109.073 78.15C109.073 78.3647 109.035 78.7333 108.961 79.256H104.789C104.929 79.648 105.171 79.9513 105.517 80.166C105.862 80.3807 106.277 80.488 106.763 80.488C107.481 80.488 108.107 80.2873 108.639 79.886ZM112.575 74.902V76.106C112.753 75.714 113.023 75.406 113.387 75.182C113.761 74.9487 114.204 74.832 114.717 74.832C115.445 74.832 116.015 75.0513 116.425 75.49C116.836 75.9193 117.041 76.554 117.041 77.394V82H114.997V77.772C114.997 77.352 114.899 77.0347 114.703 76.82C114.507 76.596 114.232 76.484 113.877 76.484C113.504 76.484 113.191 76.6333 112.939 76.932C112.697 77.2213 112.575 77.66 112.575 78.248V82H110.531V74.902H112.575ZM121.803 80.138C122.241 80.138 122.582 79.9747 122.825 79.648C123.077 79.312 123.203 78.9107 123.203 78.444C123.203 77.1747 122.741 76.54 121.817 76.54C121.406 76.54 121.084 76.6987 120.851 77.016C120.617 77.3333 120.501 77.772 120.501 78.332C120.501 78.92 120.613 79.368 120.837 79.676C121.061 79.984 121.383 80.138 121.803 80.138ZM123.203 74.902H125.233V81.314C125.233 82.4527 124.892 83.3067 124.211 83.876C123.529 84.4547 122.675 84.744 121.649 84.744C120.65 84.744 119.777 84.5667 119.031 84.212V82.126C119.684 82.6487 120.487 82.91 121.439 82.91C122.055 82.91 122.503 82.7793 122.783 82.518C123.063 82.2567 123.203 81.846 123.203 81.286V80.81C122.792 81.4447 122.139 81.762 121.243 81.762C120.459 81.762 119.782 81.4727 119.213 80.894C118.653 80.3153 118.373 79.4567 118.373 78.318C118.373 77.31 118.643 76.4793 119.185 75.826C119.735 75.1633 120.454 74.832 121.341 74.832C122.181 74.832 122.801 75.168 123.203 75.84V74.902ZM128.886 72.102V76.106C129.25 75.2567 129.959 74.832 131.014 74.832C131.705 74.832 132.265 75.0513 132.694 75.49C133.133 75.9287 133.352 76.5913 133.352 77.478V82H131.308V77.8C131.308 77.3893 131.205 77.0673 131 76.834C130.795 76.6007 130.529 76.484 130.202 76.484C130.062 76.484 129.927 76.5073 129.796 76.554C129.675 76.5913 129.539 76.666 129.39 76.778C129.241 76.8807 129.119 77.0627 129.026 77.324C128.933 77.576 128.886 77.884 128.886 78.248V82H126.842V72.102H128.886ZM138.477 79.088H137.819C137.474 79.088 137.208 79.1627 137.021 79.312C136.834 79.4613 136.741 79.6527 136.741 79.886C136.741 80.362 137.016 80.6 137.567 80.6C137.856 80.6 138.08 80.5113 138.239 80.334C138.398 80.1567 138.477 79.914 138.477 79.606V79.088ZM135.159 77.086V75.252C135.719 74.9347 136.526 74.776 137.581 74.776C138.589 74.776 139.34 74.9953 139.835 75.434C140.33 75.8633 140.577 76.5353 140.577 77.45V82H138.575V81.132C138.276 81.7387 137.688 82.042 136.811 82.042C136.12 82.042 135.579 81.846 135.187 81.454C134.804 81.062 134.613 80.572 134.613 79.984C134.613 79.3027 134.86 78.7753 135.355 78.402C135.859 78.0193 136.601 77.828 137.581 77.828H138.477V77.338C138.477 76.7407 138.08 76.442 137.287 76.442C136.522 76.442 135.812 76.6567 135.159 77.086ZM146.662 75.112V76.862C146.167 76.5727 145.588 76.428 144.926 76.428C144.683 76.428 144.496 76.4793 144.366 76.582C144.235 76.6753 144.17 76.7967 144.17 76.946C144.17 77.03 144.193 77.1093 144.24 77.184C144.286 77.2587 144.361 77.3287 144.464 77.394C144.576 77.4593 144.678 77.52 144.772 77.576C144.874 77.6227 145.01 77.6833 145.178 77.758C145.355 77.8327 145.495 77.898 145.598 77.954C146.027 78.178 146.372 78.4393 146.634 78.738C146.895 79.0273 147.026 79.4007 147.026 79.858C147.026 80.558 146.774 81.0993 146.27 81.482C145.766 81.8647 145.098 82.056 144.268 82.056C143.409 82.056 142.69 81.9113 142.112 81.622V79.802C142.756 80.25 143.437 80.474 144.156 80.474C144.669 80.474 144.926 80.3107 144.926 79.984C144.926 79.9 144.902 79.8207 144.856 79.746C144.809 79.6713 144.73 79.6013 144.618 79.536C144.506 79.4707 144.403 79.4193 144.31 79.382C144.216 79.3353 144.081 79.2747 143.904 79.2C143.726 79.1253 143.591 79.0647 143.498 79.018C142.555 78.57 142.084 77.898 142.084 77.002C142.084 76.3113 142.345 75.7747 142.868 75.392C143.4 75.0093 144.058 74.818 144.842 74.818C145.57 74.818 146.176 74.916 146.662 75.112ZM148.349 82V74.902H150.393V82H148.349ZM148.531 73.684C148.298 73.4507 148.181 73.1707 148.181 72.844C148.181 72.5173 148.298 72.2373 148.531 72.004C148.765 71.7707 149.045 71.654 149.371 71.654C149.698 71.654 149.978 71.7707 150.211 72.004C150.445 72.2373 150.561 72.5173 150.561 72.844C150.561 73.1707 150.445 73.4507 150.211 73.684C149.978 73.9173 149.698 74.034 149.371 74.034C149.045 74.034 148.765 73.9173 148.531 73.684ZM152.219 82V72.102H154.263V82H152.219ZM159.532 79.088H158.874C158.528 79.088 158.262 79.1627 158.076 79.312C157.889 79.4613 157.796 79.6527 157.796 79.886C157.796 80.362 158.071 80.6 158.622 80.6C158.911 80.6 159.135 80.5113 159.294 80.334C159.452 80.1567 159.532 79.914 159.532 79.606V79.088ZM156.214 77.086V75.252C156.774 74.9347 157.581 74.776 158.636 74.776C159.644 74.776 160.395 74.9953 160.89 75.434C161.384 75.8633 161.632 76.5353 161.632 77.45V82H159.63V81.132C159.331 81.7387 158.743 82.042 157.866 82.042C157.175 82.042 156.634 81.846 156.242 81.454C155.859 81.062 155.668 80.572 155.668 79.984C155.668 79.3027 155.915 78.7753 156.41 78.402C156.914 78.0193 157.656 77.828 158.636 77.828H159.532V77.338C159.532 76.7407 159.135 76.442 158.342 76.442C157.576 76.442 156.867 76.6567 156.214 77.086ZM165.28 74.902V76.106C165.458 75.714 165.728 75.406 166.092 75.182C166.466 74.9487 166.909 74.832 167.422 74.832C168.15 74.832 168.72 75.0513 169.13 75.49C169.541 75.9193 169.746 76.554 169.746 77.394V82H167.702V77.772C167.702 77.352 167.604 77.0347 167.408 76.82C167.212 76.596 166.937 76.484 166.582 76.484C166.209 76.484 165.896 76.6333 165.644 76.932C165.402 77.2213 165.28 77.66 165.28 78.248V82H163.236V74.902H165.28Z" fill="white"/>
</g>
<g clip-path="url(#clip1_1124_4113)">
<path d="M189.023 146.73L185.47 145.319L187.057 141.259L147.264 161.903L150.725 163.368L148.974 167.563L152.464 169.055L150.707 173.302L191.016 152.276L187.432 150.84L189.023 146.73Z" fill="#8C0010"/>
<path d="M188.349 145.383L184.762 144.099L186.249 139.984L146.984 162.03L150.48 163.372L148.833 167.627L152.357 168.995L150.707 173.302L190.478 150.857L186.86 149.548L188.349 145.383Z" fill="#FF1934"/>
<path d="M153.239 162.093L154.966 161.122C155.522 160.81 156.026 160.715 156.479 160.836C156.932 160.959 157.243 161.263 157.41 161.752C157.602 162.31 157.57 162.845 157.315 163.356C157.06 163.867 156.668 164.272 156.14 164.569L155.557 164.897L156.12 166.557L154.967 167.207L153.239 162.093ZM155.243 163.972L155.623 163.757C156.231 163.416 156.438 162.964 156.247 162.406C156.076 161.902 155.709 161.809 155.148 162.125L154.701 162.376L155.243 163.972Z" fill="white"/>
<path d="M162.448 162.991L161.777 162.118L160.016 163.111L160.072 164.33L158.868 165.009L158.789 158.972L160.23 158.162L163.68 162.296L162.448 162.99V162.991ZM159.967 162.016L161.175 161.337L161.06 161.185C160.744 160.774 160.481 160.42 160.268 160.125C160.056 159.831 159.923 159.639 159.869 159.55L159.787 159.417C159.843 159.715 159.899 160.51 159.956 161.806L159.967 162.016Z" fill="white"/>
<path d="M166.741 154.502L166.148 158.663L166.812 160.532L165.664 161.179L165.005 159.315L162.167 157.073L163.503 156.323L164.066 156.884C164.358 157.175 164.604 157.425 164.804 157.637C165.003 157.849 165.132 157.985 165.19 158.049L165.27 158.149C165.239 157.896 165.266 157.233 165.349 156.163L165.415 155.248L166.741 154.503V154.502Z" fill="white"/>
<path d="M172.488 151.27L172.825 152.19L171.612 152.872L173.11 156.982L171.957 157.631L170.465 153.517L169.243 154.205L168.91 153.282L172.488 151.27V151.27Z" fill="white"/>
<path d="M178.278 154.069L177.591 153.21L175.842 154.195L175.918 155.399L174.723 156.073L174.541 150.116L175.972 149.312L179.502 153.379L178.279 154.069L178.278 154.069ZM175.774 153.116L176.973 152.441L176.855 152.291C176.532 151.887 176.261 151.539 176.043 151.248C175.826 150.959 175.689 150.77 175.632 150.682L175.548 150.551C175.609 150.844 175.68 151.63 175.759 152.908L175.774 153.116V153.116Z" fill="white"/>
<path d="M180.493 149.741L178.073 148.131L179.392 147.389L180.765 148.376C180.795 148.14 180.838 147.804 180.894 147.37C180.95 146.937 180.987 146.641 181.004 146.483L182.387 145.705L181.817 149.004L184.383 150.629L183.028 151.393L181.535 150.341C181.503 150.605 181.453 150.977 181.382 151.457C181.312 151.939 181.269 152.251 181.251 152.394L179.873 153.171L180.493 149.741H180.493Z" fill="white"/>
<path d="M190.876 180.224L187.292 179.965L188.883 179.224L185.329 178.969L186.917 178.236L147.124 181.96L150.585 182.225L148.833 182.981L152.323 183.251L150.567 184.017L190.876 180.224Z" fill="#CCCCCC"/>
<path d="M188.173 180.891C189.931 179.063 191.016 176.582 191.016 173.852C191.016 168.247 186.456 163.688 180.851 163.688C178.128 163.688 175.652 164.767 173.826 166.518C173.769 166.563 173.715 166.611 173.662 166.663C173.61 166.715 173.561 166.77 173.516 166.827C171.765 168.653 170.687 171.128 170.687 173.852C170.687 179.456 175.247 184.016 180.851 184.016C183.584 184.016 186.066 182.93 187.895 181.17C187.945 181.129 187.993 181.086 188.04 181.04C188.087 180.992 188.132 180.943 188.174 180.891H188.173ZM186.951 173.852C186.951 174.792 186.737 175.683 186.355 176.479L178.224 168.348C179.02 167.966 179.911 167.752 180.851 167.752C184.214 167.752 186.951 170.489 186.951 173.852ZM174.752 173.852C174.752 172.912 174.966 172.021 175.347 171.225L183.479 179.356C182.683 179.738 181.792 179.952 180.851 179.952C177.489 179.952 174.752 177.215 174.752 173.852Z" fill="#FF1934"/>
</g>
<path d="M104.228 210.49H106.388L106.278 210.15C106.024 209.363 105.818 208.713 105.658 208.2C105.498 207.68 105.401 207.357 105.368 207.23L105.318 207.04C105.244 207.353 104.918 208.39 104.338 210.15L104.228 210.49ZM107.198 213L106.668 211.35H103.948L103.408 213H102.318L104.648 206.26H105.998L108.298 213H107.198ZM110.279 207.93V208.8C110.579 208.173 111.106 207.86 111.859 207.86C112.359 207.86 112.756 208.013 113.049 208.32C113.343 208.627 113.489 209.043 113.489 209.57V213H112.509V209.8C112.509 209.447 112.419 209.177 112.239 208.99C112.066 208.803 111.833 208.71 111.539 208.71C111.193 208.71 110.896 208.847 110.649 209.12C110.403 209.387 110.279 209.763 110.279 210.25V213H109.299V207.93H110.279ZM116.857 212.21C117.244 212.21 117.571 212.063 117.837 211.77C118.104 211.477 118.237 211.03 118.237 210.43C118.237 209.85 118.097 209.42 117.817 209.14C117.544 208.86 117.234 208.72 116.887 208.72C116.494 208.72 116.171 208.877 115.917 209.19C115.664 209.497 115.537 209.937 115.537 210.51C115.537 211.017 115.661 211.427 115.907 211.74C116.161 212.053 116.477 212.21 116.857 212.21ZM118.237 205.93H119.227V213H118.237V212.23C117.884 212.79 117.367 213.07 116.687 213.07C116.021 213.07 115.494 212.82 115.107 212.32C114.721 211.813 114.527 211.203 114.527 210.49C114.527 209.697 114.731 209.06 115.137 208.58C115.544 208.1 116.067 207.86 116.707 207.86C117.367 207.86 117.877 208.14 118.237 208.7V205.93ZM123.278 210.74H122.518C122.145 210.74 121.861 210.813 121.668 210.96C121.481 211.107 121.388 211.293 121.388 211.52C121.388 211.753 121.461 211.937 121.608 212.07C121.755 212.203 121.968 212.27 122.248 212.27C122.568 212.27 122.818 212.183 122.998 212.01C123.185 211.83 123.278 211.597 123.278 211.31V210.74ZM120.728 209.14V208.19C121.121 207.963 121.641 207.85 122.288 207.85C123.615 207.85 124.278 208.493 124.278 209.78V213H123.308V212.4C123.048 212.827 122.591 213.04 121.938 213.04C121.458 213.04 121.071 212.903 120.778 212.63C120.491 212.35 120.348 211.997 120.348 211.57C120.348 211.083 120.531 210.707 120.898 210.44C121.265 210.167 121.778 210.03 122.438 210.03H123.278V209.74C123.278 209.393 123.195 209.133 123.028 208.96C122.861 208.78 122.585 208.69 122.198 208.69C121.658 208.69 121.168 208.84 120.728 209.14ZM129.329 208.69V211.48C129.329 211.967 129.562 212.21 130.029 212.21C130.302 212.21 130.532 212.137 130.719 211.99V212.87C130.499 212.99 130.229 213.05 129.909 213.05C128.862 213.05 128.339 212.52 128.339 211.46V208.69H127.549V207.93H128.339V206.69H129.329V207.93H130.659V208.69H129.329ZM131.839 213V207.93H132.829V213H131.839ZM131.889 206.82C131.776 206.7 131.719 206.553 131.719 206.38C131.719 206.207 131.776 206.06 131.889 205.94C132.009 205.82 132.156 205.76 132.329 205.76C132.503 205.76 132.649 205.82 132.769 205.94C132.889 206.06 132.949 206.207 132.949 206.38C132.949 206.547 132.889 206.69 132.769 206.81C132.649 206.93 132.503 206.99 132.329 206.99C132.156 206.99 132.009 206.933 131.889 206.82ZM136.301 212.21C136.687 212.21 137.014 212.063 137.281 211.77C137.547 211.477 137.681 211.03 137.681 210.43C137.681 209.85 137.541 209.42 137.261 209.14C136.987 208.86 136.677 208.72 136.331 208.72C135.937 208.72 135.614 208.877 135.361 209.19C135.107 209.497 134.981 209.937 134.981 210.51C134.981 211.017 135.104 211.427 135.351 211.74C135.604 212.053 135.921 212.21 136.301 212.21ZM137.681 205.93H138.671V213H137.681V212.23C137.327 212.79 136.811 213.07 136.131 213.07C135.464 213.07 134.937 212.82 134.551 212.32C134.164 211.813 133.971 211.203 133.971 210.49C133.971 209.697 134.174 209.06 134.581 208.58C134.987 208.1 135.511 207.86 136.151 207.86C136.811 207.86 137.321 208.14 137.681 208.7V205.93ZM142.721 210.74H141.961C141.588 210.74 141.305 210.813 141.111 210.96C140.925 211.107 140.831 211.293 140.831 211.52C140.831 211.753 140.905 211.937 141.051 212.07C141.198 212.203 141.411 212.27 141.691 212.27C142.011 212.27 142.261 212.183 142.441 212.01C142.628 211.83 142.721 211.597 142.721 211.31V210.74ZM140.171 209.14V208.19C140.565 207.963 141.085 207.85 141.731 207.85C143.058 207.85 143.721 208.493 143.721 209.78V213H142.751V212.4C142.491 212.827 142.035 213.04 141.381 213.04C140.901 213.04 140.515 212.903 140.221 212.63C139.935 212.35 139.791 211.997 139.791 211.57C139.791 211.083 139.975 210.707 140.341 210.44C140.708 210.167 141.221 210.03 141.881 210.03H142.721V209.74C142.721 209.393 142.638 209.133 142.471 208.96C142.305 208.78 142.028 208.69 141.641 208.69C141.101 208.69 140.611 208.84 140.171 209.14ZM145.042 213V206H146.022V213H145.042ZM147.192 210.35L149.182 213H148.012L146.062 210.35L147.972 207.93H149.122L147.192 210.35ZM153.483 207.93V208.74C153.769 208.153 154.246 207.86 154.913 207.86C155.673 207.86 156.159 208.187 156.373 208.84C156.513 208.527 156.716 208.287 156.983 208.12C157.249 207.947 157.549 207.86 157.883 207.86C158.403 207.86 158.796 208.013 159.063 208.32C159.336 208.627 159.473 209.05 159.473 209.59V213H158.493V209.8C158.493 209.073 158.199 208.71 157.613 208.71C157.319 208.71 157.056 208.84 156.823 209.1C156.596 209.36 156.483 209.743 156.483 210.25V213H155.503V209.8C155.503 209.073 155.206 208.71 154.613 208.71C154.326 208.71 154.066 208.84 153.833 209.1C153.599 209.36 153.483 209.743 153.483 210.25V213H152.503V207.93H153.483ZM163.953 210.1V209.92C163.94 209.54 163.837 209.24 163.643 209.02C163.45 208.793 163.173 208.68 162.813 208.68C162.48 208.68 162.193 208.803 161.953 209.05C161.713 209.29 161.563 209.64 161.503 210.1H163.953ZM164.583 211.85V212.73C164.21 212.943 163.717 213.05 163.103 213.05C162.317 213.05 161.69 212.813 161.223 212.34C160.757 211.867 160.523 211.247 160.523 210.48C160.523 209.667 160.737 209.03 161.163 208.57C161.59 208.103 162.133 207.87 162.793 207.87C163.44 207.87 163.953 208.073 164.333 208.48C164.713 208.88 164.903 209.46 164.903 210.22C164.903 210.427 164.883 210.643 164.843 210.87H161.513C161.58 211.31 161.767 211.647 162.073 211.88C162.38 212.113 162.767 212.23 163.233 212.23C163.773 212.23 164.223 212.103 164.583 211.85ZM167.037 207.93V208.74C167.324 208.153 167.801 207.86 168.467 207.86C169.227 207.86 169.714 208.187 169.927 208.84C170.067 208.527 170.271 208.287 170.537 208.12C170.804 207.947 171.104 207.86 171.437 207.86C171.957 207.86 172.351 208.013 172.617 208.32C172.891 208.627 173.027 209.05 173.027 209.59V213H172.047V209.8C172.047 209.073 171.754 208.71 171.167 208.71C170.874 208.71 170.611 208.84 170.377 209.1C170.151 209.36 170.037 209.743 170.037 210.25V213H169.057V209.8C169.057 209.073 168.761 208.71 168.167 208.71C167.881 208.71 167.621 208.84 167.387 209.1C167.154 209.36 167.037 209.743 167.037 210.25V213H166.057V207.93H167.037ZM174.398 213V207.93H175.388V213H174.398ZM174.448 206.82C174.335 206.7 174.278 206.553 174.278 206.38C174.278 206.207 174.335 206.06 174.448 205.94C174.568 205.82 174.715 205.76 174.888 205.76C175.061 205.76 175.208 205.82 175.328 205.94C175.448 206.06 175.508 206.207 175.508 206.38C175.508 206.547 175.448 206.69 175.328 206.81C175.208 206.93 175.061 206.99 174.888 206.99C174.715 206.99 174.568 206.933 174.448 206.82ZM176.849 213V205.93H177.839V213H176.849ZM179.3 213V207.93H180.29V213H179.3ZM179.35 206.82C179.237 206.7 179.18 206.553 179.18 206.38C179.18 206.207 179.237 206.06 179.35 205.94C179.47 205.82 179.617 205.76 179.79 205.76C179.964 205.76 180.11 205.82 180.23 205.94C180.35 206.06 180.41 206.207 180.41 206.38C180.41 206.547 180.35 206.69 180.23 206.81C180.11 206.93 179.964 206.99 179.79 206.99C179.617 206.99 179.47 206.933 179.35 206.82ZM181.711 213V206H182.691V213H181.711ZM183.861 210.35L185.851 213H184.681L182.731 210.35L184.641 207.93H185.791L183.861 210.35ZM186.751 213V207.93H187.741V213H186.751ZM186.801 206.82C186.688 206.7 186.631 206.553 186.631 206.38C186.631 206.207 186.688 206.06 186.801 205.94C186.921 205.82 187.068 205.76 187.241 205.76C187.415 205.76 187.561 205.82 187.681 205.94C187.801 206.06 187.861 206.207 187.861 206.38C187.861 206.547 187.801 206.69 187.681 206.81C187.561 206.93 187.415 206.99 187.241 206.99C187.068 206.99 186.921 206.933 186.801 206.82ZM193.964 212.21C194.357 212.21 194.68 212.057 194.934 211.75C195.187 211.437 195.314 211 195.314 210.44C195.314 209.913 195.19 209.497 194.944 209.19C194.697 208.877 194.384 208.72 194.004 208.72C193.624 208.72 193.294 208.86 193.014 209.14C192.74 209.413 192.604 209.85 192.604 210.45C192.604 211.037 192.74 211.477 193.014 211.77C193.294 212.063 193.61 212.21 193.964 212.21ZM192.604 207.93V208.71C192.95 208.143 193.47 207.86 194.164 207.86C194.83 207.86 195.357 208.103 195.744 208.59C196.13 209.07 196.324 209.683 196.324 210.43C196.324 211.197 196.124 211.83 195.724 212.33C195.33 212.823 194.804 213.07 194.144 213.07C193.47 213.07 192.957 212.79 192.604 212.23V214.94H191.624V207.93H192.604ZM200.574 210.1V209.92C200.561 209.54 200.458 209.24 200.264 209.02C200.071 208.793 199.794 208.68 199.434 208.68C199.101 208.68 198.814 208.803 198.574 209.05C198.334 209.29 198.184 209.64 198.124 210.1H200.574ZM201.204 211.85V212.73C200.831 212.943 200.338 213.05 199.724 213.05C198.938 213.05 198.311 212.813 197.844 212.34C197.378 211.867 197.144 211.247 197.144 210.48C197.144 209.667 197.358 209.03 197.784 208.57C198.211 208.103 198.754 207.87 199.414 207.87C200.061 207.87 200.574 208.073 200.954 208.48C201.334 208.88 201.524 209.46 201.524 210.22C201.524 210.427 201.504 210.643 201.464 210.87H198.134C198.201 211.31 198.388 211.647 198.694 211.88C199.001 212.113 199.388 212.23 199.854 212.23C200.394 212.23 200.844 212.103 201.204 211.85ZM202.678 213V206H203.658V213H202.678ZM204.828 210.35L206.818 213H205.648L203.698 210.35L205.608 207.93H206.758L204.828 210.35ZM210.828 210.1V209.92C210.815 209.54 210.712 209.24 210.518 209.02C210.325 208.793 210.048 208.68 209.688 208.68C209.355 208.68 209.068 208.803 208.828 209.05C208.588 209.29 208.438 209.64 208.378 210.1H210.828ZM211.458 211.85V212.73C211.085 212.943 210.592 213.05 209.978 213.05C209.192 213.05 208.565 212.813 208.098 212.34C207.632 211.867 207.398 211.247 207.398 210.48C207.398 209.667 207.612 209.03 208.038 208.57C208.465 208.103 209.008 207.87 209.668 207.87C210.315 207.87 210.828 208.073 211.208 208.48C211.588 208.88 211.778 209.46 211.778 210.22C211.778 210.427 211.758 210.643 211.718 210.87H208.388C208.455 211.31 208.642 211.647 208.948 211.88C209.255 212.113 209.642 212.23 210.108 212.23C210.648 212.23 211.098 212.103 211.458 211.85ZM213.912 207.93V208.82C214.159 208.193 214.602 207.88 215.242 207.88C215.336 207.88 215.439 207.89 215.552 207.91V208.87C215.412 208.81 215.256 208.78 215.082 208.78C214.742 208.78 214.462 208.93 214.242 209.23C214.022 209.53 213.912 209.887 213.912 210.3V213H212.932V207.93H213.912ZM215.191 214.81V213.98C215.404 214.087 215.618 214.14 215.831 214.14C216.198 214.14 216.381 213.903 216.381 213.43V207.93H217.361V213.45C217.361 213.923 217.234 214.293 216.981 214.56C216.734 214.827 216.381 214.96 215.921 214.96C215.708 214.96 215.464 214.91 215.191 214.81ZM216.431 206.82C216.311 206.7 216.251 206.553 216.251 206.38C216.251 206.207 216.308 206.06 216.421 205.94C216.541 205.82 216.688 205.76 216.861 205.76C217.034 205.76 217.181 205.82 217.301 205.94C217.421 206.06 217.481 206.207 217.481 206.38C217.481 206.547 217.421 206.69 217.301 206.81C217.181 206.93 217.034 206.99 216.861 206.99C216.694 206.99 216.551 206.933 216.431 206.82ZM221.413 210.74H220.653C220.279 210.74 219.996 210.813 219.803 210.96C219.616 211.107 219.523 211.293 219.523 211.52C219.523 211.753 219.596 211.937 219.743 212.07C219.889 212.203 220.103 212.27 220.383 212.27C220.703 212.27 220.953 212.183 221.133 212.01C221.319 211.83 221.413 211.597 221.413 211.31V210.74ZM218.863 209.14V208.19C219.256 207.963 219.776 207.85 220.423 207.85C221.749 207.85 222.413 208.493 222.413 209.78V213H221.443V212.4C221.183 212.827 220.726 213.04 220.073 213.04C219.593 213.04 219.206 212.903 218.913 212.63C218.626 212.35 218.483 211.997 218.483 211.57C218.483 211.083 218.666 210.707 219.033 210.44C219.399 210.167 219.913 210.03 220.573 210.03H221.413V209.74C221.413 209.393 221.329 209.133 221.163 208.96C220.996 208.78 220.719 208.69 220.333 208.69C219.793 208.69 219.303 208.84 218.863 209.14ZM226.403 210.74H225.643C225.27 210.74 224.986 210.813 224.793 210.96C224.606 211.107 224.513 211.293 224.513 211.52C224.513 211.753 224.586 211.937 224.733 212.07C224.88 212.203 225.093 212.27 225.373 212.27C225.693 212.27 225.943 212.183 226.123 212.01C226.31 211.83 226.403 211.597 226.403 211.31V210.74ZM223.853 209.14V208.19C224.246 207.963 224.766 207.85 225.413 207.85C226.74 207.85 227.403 208.493 227.403 209.78V213H226.433V212.4C226.173 212.827 225.716 213.04 225.063 213.04C224.583 213.04 224.196 212.903 223.903 212.63C223.616 212.35 223.473 211.997 223.473 211.57C223.473 211.083 223.656 210.707 224.023 210.44C224.39 210.167 224.903 210.03 225.563 210.03H226.403V209.74C226.403 209.393 226.32 209.133 226.153 208.96C225.986 208.78 225.71 208.69 225.323 208.69C224.783 208.69 224.293 208.84 223.853 209.14ZM229.703 207.93V208.8C230.003 208.173 230.53 207.86 231.283 207.86C231.783 207.86 232.18 208.013 232.473 208.32C232.767 208.627 232.913 209.043 232.913 209.57V213H231.933V209.8C231.933 209.447 231.843 209.177 231.663 208.99C231.49 208.803 231.257 208.71 230.963 208.71C230.617 208.71 230.32 208.847 230.073 209.12C229.827 209.387 229.703 209.763 229.703 210.25V213H228.723V207.93H229.703ZM233.461 214.24L234.421 211.9H235.631L234.321 214.24H233.461ZM91.4374 224.1V224.99C91.1108 224.797 90.6908 224.7 90.1774 224.7C89.9441 224.7 89.7574 224.753 89.6174 224.86C89.4841 224.967 89.4174 225.107 89.4174 225.28C89.4174 225.327 89.4208 225.373 89.4274 225.42C89.4408 225.46 89.4608 225.503 89.4874 225.55C89.5141 225.59 89.5374 225.627 89.5574 225.66C89.5841 225.687 89.6241 225.717 89.6774 225.75C89.7308 225.783 89.7708 225.813 89.7974 225.84C89.8308 225.86 89.8808 225.887 89.9474 225.92C90.0208 225.953 90.0741 225.98 90.1074 226C90.1408 226.013 90.1974 226.04 90.2774 226.08C90.3641 226.113 90.4241 226.137 90.4574 226.15C90.8508 226.323 91.1574 226.52 91.3774 226.74C91.6041 226.953 91.7174 227.24 91.7174 227.6C91.7174 228.053 91.5574 228.41 91.2374 228.67C90.9174 228.923 90.4841 229.05 89.9374 229.05C89.3374 229.05 88.8374 228.95 88.4374 228.75V227.82C88.9041 228.107 89.3874 228.25 89.8874 228.25C90.1474 228.25 90.3474 228.197 90.4874 228.09C90.6341 227.983 90.7074 227.843 90.7074 227.67C90.7074 227.523 90.6508 227.393 90.5374 227.28C90.4241 227.16 90.3074 227.073 90.1874 227.02C90.0741 226.96 89.8774 226.87 89.5974 226.75C88.8041 226.423 88.4074 225.943 88.4074 225.31C88.4074 224.863 88.5741 224.513 88.9074 224.26C89.2408 224.007 89.6574 223.88 90.1574 223.88C90.7041 223.88 91.1308 223.953 91.4374 224.1ZM95.8869 226.1V225.92C95.8735 225.54 95.7702 225.24 95.5769 225.02C95.3835 224.793 95.1069 224.68 94.7469 224.68C94.4135 224.68 94.1269 224.803 93.8869 225.05C93.6469 225.29 93.4969 225.64 93.4369 226.1H95.8869ZM96.5169 227.85V228.73C96.1435 228.943 95.6502 229.05 95.0369 229.05C94.2502 229.05 93.6235 228.813 93.1569 228.34C92.6902 227.867 92.4569 227.247 92.4569 226.48C92.4569 225.667 92.6702 225.03 93.0969 224.57C93.5235 224.103 94.0669 223.87 94.7269 223.87C95.3735 223.87 95.8869 224.073 96.2669 224.48C96.6469 224.88 96.8369 225.46 96.8369 226.22C96.8369 226.427 96.8169 226.643 96.7769 226.87H93.4469C93.5135 227.31 93.7002 227.647 94.0069 227.88C94.3135 228.113 94.7002 228.23 95.1669 228.23C95.7069 228.23 96.1569 228.103 96.5169 227.85ZM98.9708 221.93V224.8C99.2574 224.173 99.7808 223.86 100.541 223.86C101.034 223.86 101.431 224.013 101.731 224.32C102.031 224.627 102.181 225.053 102.181 225.6V229H101.201V225.8C101.201 225.453 101.111 225.187 100.931 225C100.757 224.807 100.527 224.71 100.241 224.71C99.9074 224.71 99.6108 224.837 99.3508 225.09C99.0974 225.343 98.9708 225.73 98.9708 226.25V229H97.9908V221.93H98.9708ZM103.539 229V223.93H104.529V229H103.539ZM103.589 222.82C103.475 222.7 103.419 222.553 103.419 222.38C103.419 222.207 103.475 222.06 103.589 221.94C103.709 221.82 103.855 221.76 104.029 221.76C104.202 221.76 104.349 221.82 104.469 221.94C104.589 222.06 104.649 222.207 104.649 222.38C104.649 222.547 104.589 222.69 104.469 222.81C104.349 222.93 104.202 222.99 104.029 222.99C103.855 222.99 103.709 222.933 103.589 222.82ZM106.93 223.93V224.8C107.23 224.173 107.756 223.86 108.51 223.86C109.01 223.86 109.406 224.013 109.7 224.32C109.993 224.627 110.14 225.043 110.14 225.57V229H109.16V225.8C109.16 225.447 109.07 225.177 108.89 224.99C108.716 224.803 108.483 224.71 108.19 224.71C107.843 224.71 107.546 224.847 107.3 225.12C107.053 225.387 106.93 225.763 106.93 226.25V229H105.95V223.93H106.93ZM113.458 228.02C113.804 228.02 114.104 227.887 114.358 227.62C114.618 227.347 114.748 226.967 114.748 226.48C114.748 225.88 114.624 225.437 114.378 225.15C114.138 224.863 113.844 224.72 113.498 224.72C113.104 224.72 112.794 224.877 112.568 225.19C112.341 225.497 112.228 225.903 112.228 226.41C112.228 226.937 112.348 227.337 112.588 227.61C112.834 227.883 113.124 228.02 113.458 228.02ZM114.748 223.93H115.728V228.57C115.728 229.35 115.504 229.937 115.058 230.33C114.618 230.73 114.051 230.93 113.358 230.93C112.704 230.93 112.154 230.82 111.708 230.6V229.61C112.134 229.89 112.651 230.03 113.258 230.03C114.251 230.03 114.748 229.54 114.748 228.56V228.04C114.421 228.587 113.931 228.86 113.278 228.86C112.704 228.86 112.214 228.65 111.808 228.23C111.401 227.803 111.198 227.203 111.198 226.43C111.198 225.683 111.388 225.07 111.768 224.59C112.148 224.103 112.651 223.86 113.278 223.86C113.951 223.86 114.441 224.147 114.748 224.72V223.93ZM119.044 228.02C119.39 228.02 119.69 227.887 119.944 227.62C120.204 227.347 120.334 226.967 120.334 226.48C120.334 225.88 120.21 225.437 119.964 225.15C119.724 224.863 119.43 224.72 119.084 224.72C118.69 224.72 118.38 224.877 118.154 225.19C117.927 225.497 117.814 225.903 117.814 226.41C117.814 226.937 117.934 227.337 118.174 227.61C118.42 227.883 118.71 228.02 119.044 228.02ZM120.334 223.93H121.314V228.57C121.314 229.35 121.09 229.937 120.644 230.33C120.204 230.73 119.637 230.93 118.944 230.93C118.29 230.93 117.74 230.82 117.294 230.6V229.61C117.72 229.89 118.237 230.03 118.844 230.03C119.837 230.03 120.334 229.54 120.334 228.56V228.04C120.007 228.587 119.517 228.86 118.864 228.86C118.29 228.86 117.8 228.65 117.394 228.23C116.987 227.803 116.784 227.203 116.784 226.43C116.784 225.683 116.974 225.07 117.354 224.59C117.734 224.103 118.237 223.86 118.864 223.86C119.537 223.86 120.027 224.147 120.334 224.72V223.93ZM125.299 226.74H124.539C124.166 226.74 123.883 226.813 123.689 226.96C123.503 227.107 123.409 227.293 123.409 227.52C123.409 227.753 123.483 227.937 123.629 228.07C123.776 228.203 123.989 228.27 124.269 228.27C124.589 228.27 124.839 228.183 125.019 228.01C125.206 227.83 125.299 227.597 125.299 227.31V226.74ZM122.749 225.14V224.19C123.143 223.963 123.663 223.85 124.309 223.85C125.636 223.85 126.299 224.493 126.299 225.78V229H125.329V228.4C125.069 228.827 124.613 229.04 123.959 229.04C123.479 229.04 123.093 228.903 122.799 228.63C122.513 228.35 122.369 227.997 122.369 227.57C122.369 227.083 122.553 226.707 122.919 226.44C123.286 226.167 123.799 226.03 124.459 226.03H125.299V225.74C125.299 225.393 125.216 225.133 125.049 224.96C124.883 224.78 124.606 224.69 124.219 224.69C123.679 224.69 123.189 224.84 122.749 225.14ZM131.611 226.49H133.771L133.661 226.15C133.407 225.363 133.201 224.713 133.041 224.2C132.881 223.68 132.784 223.357 132.751 223.23L132.701 223.04C132.627 223.353 132.301 224.39 131.721 226.15L131.611 226.49ZM134.581 229L134.051 227.35H131.331L130.791 229H129.701L132.031 222.26H133.381L135.681 229H134.581ZM137.662 223.93V224.8C137.962 224.173 138.489 223.86 139.242 223.86C139.742 223.86 140.139 224.013 140.432 224.32C140.726 224.627 140.872 225.043 140.872 225.57V229H139.892V225.8C139.892 225.447 139.802 225.177 139.622 224.99C139.449 224.803 139.216 224.71 138.922 224.71C138.576 224.71 138.279 224.847 138.032 225.12C137.786 225.387 137.662 225.763 137.662 226.25V229H136.682V223.93H137.662ZM144.24 228.21C144.627 228.21 144.953 228.063 145.22 227.77C145.487 227.477 145.62 227.03 145.62 226.43C145.62 225.85 145.48 225.42 145.2 225.14C144.927 224.86 144.617 224.72 144.27 224.72C143.877 224.72 143.553 224.877 143.3 225.19C143.047 225.497 142.92 225.937 142.92 226.51C142.92 227.017 143.043 227.427 143.29 227.74C143.543 228.053 143.86 228.21 144.24 228.21ZM145.62 221.93H146.61V229H145.62V228.23C145.267 228.79 144.75 229.07 144.07 229.07C143.403 229.07 142.877 228.82 142.49 228.32C142.103 227.813 141.91 227.203 141.91 226.49C141.91 225.697 142.113 225.06 142.52 224.58C142.927 224.1 143.45 223.86 144.09 223.86C144.75 223.86 145.26 224.14 145.62 224.7V221.93ZM150.661 226.74H149.901C149.527 226.74 149.244 226.813 149.051 226.96C148.864 227.107 148.771 227.293 148.771 227.52C148.771 227.753 148.844 227.937 148.991 228.07C149.137 228.203 149.351 228.27 149.631 228.27C149.951 228.27 150.201 228.183 150.381 228.01C150.567 227.83 150.661 227.597 150.661 227.31V226.74ZM148.111 225.14V224.19C148.504 223.963 149.024 223.85 149.671 223.85C150.997 223.85 151.661 224.493 151.661 225.78V229H150.691V228.4C150.431 228.827 149.974 229.04 149.321 229.04C148.841 229.04 148.454 228.903 148.161 228.63C147.874 228.35 147.731 227.997 147.731 227.57C147.731 227.083 147.914 226.707 148.281 226.44C148.647 226.167 149.161 226.03 149.821 226.03H150.661V225.74C150.661 225.393 150.577 225.133 150.411 224.96C150.244 224.78 149.967 224.69 149.581 224.69C149.041 224.69 148.551 224.84 148.111 225.14ZM132.113 241.76H132.993C133.479 241.76 133.849 241.64 134.103 241.4C134.363 241.16 134.493 240.843 134.493 240.45C134.493 240.037 134.363 239.71 134.103 239.47C133.843 239.23 133.466 239.11 132.973 239.11H132.113V241.76ZM131.083 238.26H133.013C133.786 238.26 134.399 238.467 134.853 238.88C135.306 239.287 135.533 239.81 135.533 240.45C135.533 241.09 135.303 241.61 134.843 242.01C134.389 242.41 133.799 242.61 133.073 242.61H132.113V245H131.083V238.26ZM139.211 242.74H138.451C138.077 242.74 137.794 242.813 137.601 242.96C137.414 243.107 137.321 243.293 137.321 243.52C137.321 243.753 137.394 243.937 137.541 244.07C137.687 244.203 137.901 244.27 138.181 244.27C138.501 244.27 138.751 244.183 138.931 244.01C139.117 243.83 139.211 243.597 139.211 243.31V242.74ZM136.661 241.14V240.19C137.054 239.963 137.574 239.85 138.221 239.85C139.547 239.85 140.211 240.493 140.211 241.78V245H139.241V244.4C138.981 244.827 138.524 245.04 137.871 245.04C137.391 245.04 137.004 244.903 136.711 244.63C136.424 244.35 136.281 243.997 136.281 243.57C136.281 243.083 136.464 242.707 136.831 242.44C137.197 242.167 137.711 242.03 138.371 242.03H139.211V241.74C139.211 241.393 139.127 241.133 138.961 240.96C138.794 240.78 138.517 240.69 138.131 240.69C137.591 240.69 137.101 240.84 136.661 241.14ZM140.401 246.81V245.98C140.614 246.087 140.827 246.14 141.041 246.14C141.407 246.14 141.591 245.903 141.591 245.43V239.93H142.571V245.45C142.571 245.923 142.444 246.293 142.191 246.56C141.944 246.827 141.591 246.96 141.131 246.96C140.917 246.96 140.674 246.91 140.401 246.81ZM141.641 238.82C141.521 238.7 141.461 238.553 141.461 238.38C141.461 238.207 141.517 238.06 141.631 237.94C141.751 237.82 141.897 237.76 142.071 237.76C142.244 237.76 142.391 237.82 142.511 237.94C142.631 238.06 142.691 238.207 142.691 238.38C142.691 238.547 142.631 238.69 142.511 238.81C142.391 238.93 142.244 238.99 142.071 238.99C141.904 238.99 141.761 238.933 141.641 238.82ZM146.623 242.74H145.863C145.489 242.74 145.206 242.813 145.013 242.96C144.826 243.107 144.733 243.293 144.733 243.52C144.733 243.753 144.806 243.937 144.953 244.07C145.099 244.203 145.313 244.27 145.593 244.27C145.913 244.27 146.163 244.183 146.343 244.01C146.529 243.83 146.623 243.597 146.623 243.31V242.74ZM144.073 241.14V240.19C144.466 239.963 144.986 239.85 145.633 239.85C146.959 239.85 147.623 240.493 147.623 241.78V245H146.653V244.4C146.393 244.827 145.936 245.04 145.283 245.04C144.803 245.04 144.416 244.903 144.123 244.63C143.836 244.35 143.693 243.997 143.693 243.57C143.693 243.083 143.876 242.707 144.243 242.44C144.609 242.167 145.123 242.03 145.783 242.03H146.623V241.74C146.623 241.393 146.539 241.133 146.373 240.96C146.206 240.78 145.929 240.69 145.543 240.69C145.003 240.69 144.513 240.84 144.073 241.14ZM148.943 245V238H149.923V245H148.943ZM151.093 242.35L153.083 245H151.913L149.963 242.35L151.873 239.93H153.023L151.093 242.35ZM157.474 241.76H158.354C158.841 241.76 159.211 241.64 159.464 241.4C159.724 241.16 159.854 240.843 159.854 240.45C159.854 240.037 159.724 239.71 159.464 239.47C159.204 239.23 158.827 239.11 158.334 239.11H157.474V241.76ZM156.444 238.26H158.374C159.147 238.26 159.761 238.467 160.214 238.88C160.667 239.287 160.894 239.81 160.894 240.45C160.894 241.09 160.664 241.61 160.204 242.01C159.751 242.41 159.161 242.61 158.434 242.61H157.474V245H156.444V238.26ZM165.052 242.1V241.92C165.039 241.54 164.935 241.24 164.742 241.02C164.549 240.793 164.272 240.68 163.912 240.68C163.579 240.68 163.292 240.803 163.052 241.05C162.812 241.29 162.662 241.64 162.602 242.1H165.052ZM165.682 243.85V244.73C165.309 244.943 164.815 245.05 164.202 245.05C163.415 245.05 162.789 244.813 162.322 244.34C161.855 243.867 161.622 243.247 161.622 242.48C161.622 241.667 161.835 241.03 162.262 240.57C162.689 240.103 163.232 239.87 163.892 239.87C164.539 239.87 165.052 240.073 165.432 240.48C165.812 240.88 166.002 241.46 166.002 242.22C166.002 242.427 165.982 242.643 165.942 242.87H162.612C162.679 243.31 162.865 243.647 163.172 243.88C163.479 244.113 163.865 244.23 164.332 244.23C164.872 244.23 165.322 244.103 165.682 243.85ZM168.136 239.93V240.8C168.436 240.173 168.962 239.86 169.716 239.86C170.216 239.86 170.612 240.013 170.906 240.32C171.199 240.627 171.346 241.043 171.346 241.57V245H170.366V241.8C170.366 241.447 170.276 241.177 170.096 240.99C169.922 240.803 169.689 240.71 169.396 240.71C169.049 240.71 168.752 240.847 168.506 241.12C168.259 241.387 168.136 241.763 168.136 242.25V245H167.156V239.93H168.136ZM174.664 244.02C175.01 244.02 175.31 243.887 175.564 243.62C175.824 243.347 175.954 242.967 175.954 242.48C175.954 241.88 175.83 241.437 175.584 241.15C175.344 240.863 175.05 240.72 174.704 240.72C174.31 240.72 174 240.877 173.774 241.19C173.547 241.497 173.434 241.903 173.434 242.41C173.434 242.937 173.554 243.337 173.794 243.61C174.04 243.883 174.33 244.02 174.664 244.02ZM175.954 239.93H176.934V244.57C176.934 245.35 176.71 245.937 176.264 246.33C175.824 246.73 175.257 246.93 174.564 246.93C173.91 246.93 173.36 246.82 172.914 246.6V245.61C173.34 245.89 173.857 246.03 174.464 246.03C175.457 246.03 175.954 245.54 175.954 244.56V244.04C175.627 244.587 175.137 244.86 174.484 244.86C173.91 244.86 173.42 244.65 173.014 244.23C172.607 243.803 172.404 243.203 172.404 242.43C172.404 241.683 172.594 241.07 172.974 240.59C173.354 240.103 173.857 239.86 174.484 239.86C175.157 239.86 175.647 240.147 175.954 240.72V239.93ZM179.23 237.93V240.8C179.516 240.173 180.04 239.86 180.8 239.86C181.293 239.86 181.69 240.013 181.99 240.32C182.29 240.627 182.44 241.053 182.44 241.6V245H181.46V241.8C181.46 241.453 181.37 241.187 181.19 241C181.016 240.807 180.786 240.71 180.5 240.71C180.166 240.71 179.87 240.837 179.61 241.09C179.356 241.343 179.23 241.73 179.23 242.25V245H178.25V237.93H179.23ZM186.427 242.74H185.667C185.294 242.74 185.011 242.813 184.817 242.96C184.631 243.107 184.537 243.293 184.537 243.52C184.537 243.753 184.611 243.937 184.757 244.07C184.904 244.203 185.117 244.27 185.397 244.27C185.717 244.27 185.967 244.183 186.147 244.01C186.334 243.83 186.427 243.597 186.427 243.31V242.74ZM183.877 241.14V240.19C184.271 239.963 184.791 239.85 185.437 239.85C186.764 239.85 187.427 240.493 187.427 241.78V245H186.457V244.4C186.197 244.827 185.741 245.04 185.087 245.04C184.607 245.04 184.221 244.903 183.927 244.63C183.641 244.35 183.497 243.997 183.497 243.57C183.497 243.083 183.681 242.707 184.047 242.44C184.414 242.167 184.927 242.03 185.587 242.03H186.427V241.74C186.427 241.393 186.344 241.133 186.177 240.96C186.011 240.78 185.734 240.69 185.347 240.69C184.807 240.69 184.317 240.84 183.877 241.14ZM191.638 240.1V240.99C191.311 240.797 190.891 240.7 190.378 240.7C190.144 240.7 189.958 240.753 189.818 240.86C189.684 240.967 189.618 241.107 189.618 241.28C189.618 241.327 189.621 241.373 189.628 241.42C189.641 241.46 189.661 241.503 189.688 241.55C189.714 241.59 189.738 241.627 189.758 241.66C189.784 241.687 189.824 241.717 189.878 241.75C189.931 241.783 189.971 241.813 189.998 241.84C190.031 241.86 190.081 241.887 190.148 241.92C190.221 241.953 190.274 241.98 190.308 242C190.341 242.013 190.398 242.04 190.478 242.08C190.564 242.113 190.624 242.137 190.658 242.15C191.051 242.323 191.358 242.52 191.578 242.74C191.804 242.953 191.918 243.24 191.918 243.6C191.918 244.053 191.758 244.41 191.438 244.67C191.118 244.923 190.684 245.05 190.138 245.05C189.538 245.05 189.038 244.95 188.638 244.75V243.82C189.104 244.107 189.588 244.25 190.088 244.25C190.348 244.25 190.548 244.197 190.688 244.09C190.834 243.983 190.908 243.843 190.908 243.67C190.908 243.523 190.851 243.393 190.738 243.28C190.624 243.16 190.508 243.073 190.388 243.02C190.274 242.96 190.078 242.87 189.798 242.75C189.004 242.423 188.608 241.943 188.608 241.31C188.608 240.863 188.774 240.513 189.108 240.26C189.441 240.007 189.858 239.88 190.358 239.88C190.904 239.88 191.331 239.953 191.638 240.1ZM192.977 245V239.93H193.967V245H192.977ZM193.027 238.82C192.914 238.7 192.857 238.553 192.857 238.38C192.857 238.207 192.914 238.06 193.027 237.94C193.147 237.82 193.294 237.76 193.467 237.76C193.64 237.76 193.787 237.82 193.907 237.94C194.027 238.06 194.087 238.207 194.087 238.38C194.087 238.547 194.027 238.69 193.907 238.81C193.787 238.93 193.64 238.99 193.467 238.99C193.294 238.99 193.147 238.933 193.027 238.82ZM195.428 245V237.93H196.418V245H195.428ZM200.509 242.74H199.749C199.376 242.74 199.093 242.813 198.899 242.96C198.713 243.107 198.619 243.293 198.619 243.52C198.619 243.753 198.693 243.937 198.839 244.07C198.986 244.203 199.199 244.27 199.479 244.27C199.799 244.27 200.049 244.183 200.229 244.01C200.416 243.83 200.509 243.597 200.509 243.31V242.74ZM197.959 241.14V240.19C198.353 239.963 198.873 239.85 199.519 239.85C200.846 239.85 201.509 240.493 201.509 241.78V245H200.539V244.4C200.279 244.827 199.823 245.04 199.169 245.04C198.689 245.04 198.303 244.903 198.009 244.63C197.723 244.35 197.579 243.997 197.579 243.57C197.579 243.083 197.763 242.707 198.129 242.44C198.496 242.167 199.009 242.03 199.669 242.03H200.509V241.74C200.509 241.393 200.426 241.133 200.259 240.96C200.093 240.78 199.816 240.69 199.429 240.69C198.889 240.69 198.399 240.84 197.959 241.14ZM203.81 239.93V240.8C204.11 240.173 204.636 239.86 205.39 239.86C205.89 239.86 206.286 240.013 206.58 240.32C206.873 240.627 207.02 241.043 207.02 241.57V245H206.04V241.8C206.04 241.447 205.95 241.177 205.77 240.99C205.596 240.803 205.363 240.71 205.07 240.71C204.723 240.71 204.426 240.847 204.18 241.12C203.933 241.387 203.81 241.763 203.81 242.25V245H202.83V239.93H203.81Z" fill="#2B2B2B"/>
<path d="M156.712 224.69V227.48C156.712 227.967 156.945 228.21 157.412 228.21C157.685 228.21 157.915 228.137 158.102 227.99V228.87C157.882 228.99 157.612 229.05 157.292 229.05C156.245 229.05 155.722 228.52 155.722 227.46V224.69H154.932V223.93H155.722V222.69H156.712V223.93H158.042V224.69H156.712ZM159.222 229V223.93H160.212V229H159.222ZM159.272 222.82C159.159 222.7 159.102 222.553 159.102 222.38C159.102 222.207 159.159 222.06 159.272 221.94C159.392 221.82 159.539 221.76 159.712 221.76C159.886 221.76 160.032 221.82 160.152 221.94C160.272 222.06 160.332 222.207 160.332 222.38C160.332 222.547 160.272 222.69 160.152 222.81C160.032 222.93 159.886 222.99 159.712 222.99C159.539 222.99 159.392 222.933 159.272 222.82ZM163.683 228.21C164.07 228.21 164.397 228.063 164.663 227.77C164.93 227.477 165.063 227.03 165.063 226.43C165.063 225.85 164.923 225.42 164.643 225.14C164.37 224.86 164.06 224.72 163.713 224.72C163.32 224.72 162.997 224.877 162.743 225.19C162.49 225.497 162.363 225.937 162.363 226.51C162.363 227.017 162.487 227.427 162.733 227.74C162.987 228.053 163.303 228.21 163.683 228.21ZM165.063 221.93H166.053V229H165.063V228.23C164.71 228.79 164.193 229.07 163.513 229.07C162.847 229.07 162.32 228.82 161.933 228.32C161.547 227.813 161.353 227.203 161.353 226.49C161.353 225.697 161.557 225.06 161.963 224.58C162.37 224.1 162.893 223.86 163.533 223.86C164.193 223.86 164.703 224.14 165.063 224.7V221.93ZM170.104 226.74H169.344C168.971 226.74 168.687 226.813 168.494 226.96C168.307 227.107 168.214 227.293 168.214 227.52C168.214 227.753 168.287 227.937 168.434 228.07C168.581 228.203 168.794 228.27 169.074 228.27C169.394 228.27 169.644 228.183 169.824 228.01C170.011 227.83 170.104 227.597 170.104 227.31V226.74ZM167.554 225.14V224.19C167.947 223.963 168.467 223.85 169.114 223.85C170.441 223.85 171.104 224.493 171.104 225.78V229H170.134V228.4C169.874 228.827 169.417 229.04 168.764 229.04C168.284 229.04 167.897 228.903 167.604 228.63C167.317 228.35 167.174 227.997 167.174 227.57C167.174 227.083 167.357 226.707 167.724 226.44C168.091 226.167 168.604 226.03 169.264 226.03H170.104V225.74C170.104 225.393 170.021 225.133 169.854 224.96C169.687 224.78 169.411 224.69 169.024 224.69C168.484 224.69 167.994 224.84 167.554 225.14ZM172.424 229V222H173.404V229H172.424ZM174.574 226.35L176.564 229H175.394L173.444 226.35L175.354 223.93H176.504L174.574 226.35ZM182.225 228.21C182.619 228.21 182.942 228.057 183.195 227.75C183.449 227.437 183.575 227 183.575 226.44C183.575 225.913 183.452 225.497 183.205 225.19C182.959 224.877 182.645 224.72 182.265 224.72C181.885 224.72 181.555 224.86 181.275 225.14C181.002 225.413 180.865 225.85 180.865 226.45C180.865 227.037 181.002 227.477 181.275 227.77C181.555 228.063 181.872 228.21 182.225 228.21ZM180.865 223.93V224.71C181.212 224.143 181.732 223.86 182.425 223.86C183.092 223.86 183.619 224.103 184.005 224.59C184.392 225.07 184.585 225.683 184.585 226.43C184.585 227.197 184.385 227.83 183.985 228.33C183.592 228.823 183.065 229.07 182.405 229.07C181.732 229.07 181.219 228.79 180.865 228.23V230.94H179.885V223.93H180.865ZM188.836 226.1V225.92C188.823 225.54 188.719 225.24 188.526 225.02C188.333 224.793 188.056 224.68 187.696 224.68C187.363 224.68 187.076 224.803 186.836 225.05C186.596 225.29 186.446 225.64 186.386 226.1H188.836ZM189.466 227.85V228.73C189.093 228.943 188.599 229.05 187.986 229.05C187.199 229.05 186.573 228.813 186.106 228.34C185.639 227.867 185.406 227.247 185.406 226.48C185.406 225.667 185.619 225.03 186.046 224.57C186.473 224.103 187.016 223.87 187.676 223.87C188.323 223.87 188.836 224.073 189.216 224.48C189.596 224.88 189.786 225.46 189.786 226.22C189.786 226.427 189.766 226.643 189.726 226.87H186.396C186.463 227.31 186.649 227.647 186.956 227.88C187.263 228.113 187.649 228.23 188.116 228.23C188.656 228.23 189.106 228.103 189.466 227.85ZM191.92 223.93V224.82C192.167 224.193 192.61 223.88 193.25 223.88C193.343 223.88 193.447 223.89 193.56 223.91V224.87C193.42 224.81 193.263 224.78 193.09 224.78C192.75 224.78 192.47 224.93 192.25 225.23C192.03 225.53 191.92 225.887 191.92 226.3V229H190.94V223.93H191.92ZM194.369 229V221.93H195.359V229H194.369ZM199.93 223.93H200.91V229H199.93V228.13C199.663 228.75 199.137 229.06 198.35 229.06C197.85 229.06 197.453 228.913 197.16 228.62C196.867 228.32 196.72 227.91 196.72 227.39V223.93H197.71V227.15C197.71 227.497 197.793 227.763 197.96 227.95C198.133 228.13 198.37 228.22 198.67 228.22C199.05 228.22 199.353 228.087 199.58 227.82C199.813 227.553 199.93 227.177 199.93 226.69V223.93ZM205.729 223.93V224.74C206.015 224.153 206.492 223.86 207.159 223.86C207.919 223.86 208.405 224.187 208.619 224.84C208.759 224.527 208.962 224.287 209.229 224.12C209.495 223.947 209.795 223.86 210.129 223.86C210.649 223.86 211.042 224.013 211.309 224.32C211.582 224.627 211.719 225.05 211.719 225.59V229H210.739V225.8C210.739 225.073 210.445 224.71 209.859 224.71C209.565 224.71 209.302 224.84 209.069 225.1C208.842 225.36 208.729 225.743 208.729 226.25V229H207.749V225.8C207.749 225.073 207.452 224.71 206.859 224.71C206.572 224.71 206.312 224.84 206.079 225.1C205.845 225.36 205.729 225.743 205.729 226.25V229H204.749V223.93H205.729ZM216.199 226.1V225.92C216.186 225.54 216.083 225.24 215.889 225.02C215.696 224.793 215.419 224.68 215.059 224.68C214.726 224.68 214.439 224.803 214.199 225.05C213.959 225.29 213.809 225.64 213.749 226.1H216.199ZM216.829 227.85V228.73C216.456 228.943 215.963 229.05 215.349 229.05C214.563 229.05 213.936 228.813 213.469 228.34C213.003 227.867 212.769 227.247 212.769 226.48C212.769 225.667 212.983 225.03 213.409 224.57C213.836 224.103 214.379 223.87 215.039 223.87C215.686 223.87 216.199 224.073 216.579 224.48C216.959 224.88 217.149 225.46 217.149 226.22C217.149 226.427 217.129 226.643 217.089 226.87H213.759C213.826 227.31 214.013 227.647 214.319 227.88C214.626 228.113 215.013 228.23 215.479 228.23C216.019 228.23 216.469 228.103 216.829 227.85ZM219.283 223.93V224.74C219.57 224.153 220.047 223.86 220.713 223.86C221.473 223.86 221.96 224.187 222.173 224.84C222.313 224.527 222.517 224.287 222.783 224.12C223.05 223.947 223.35 223.86 223.683 223.86C224.203 223.86 224.597 224.013 224.863 224.32C225.137 224.627 225.273 225.05 225.273 225.59V229H224.293V225.8C224.293 225.073 224 224.71 223.413 224.71C223.12 224.71 222.857 224.84 222.623 225.1C222.397 225.36 222.283 225.743 222.283 226.25V229H221.303V225.8C221.303 225.073 221.007 224.71 220.413 224.71C220.127 224.71 219.867 224.84 219.633 225.1C219.4 225.36 219.283 225.743 219.283 226.25V229H218.303V223.93H219.283ZM228.994 228.21C229.367 228.21 229.681 228.053 229.934 227.74C230.187 227.42 230.314 227.01 230.314 226.51C230.314 225.937 230.187 225.497 229.934 225.19C229.681 224.877 229.357 224.72 228.964 224.72C228.617 224.72 228.304 224.86 228.024 225.14C227.751 225.42 227.614 225.85 227.614 226.43C227.614 227.03 227.747 227.477 228.014 227.77C228.281 228.063 228.607 228.21 228.994 228.21ZM227.614 221.93V224.7C227.974 224.14 228.484 223.86 229.144 223.86C229.784 223.86 230.307 224.1 230.714 224.58C231.121 225.06 231.324 225.697 231.324 226.49C231.324 227.203 231.131 227.813 230.744 228.32C230.357 228.82 229.827 229.07 229.154 229.07C228.481 229.07 227.967 228.79 227.614 228.23V229H226.624V221.93H227.614ZM235.094 226.74H234.334C233.961 226.74 233.678 226.813 233.484 226.96C233.298 227.107 233.204 227.293 233.204 227.52C233.204 227.753 233.278 227.937 233.424 228.07C233.571 228.203 233.784 228.27 234.064 228.27C234.384 228.27 234.634 228.183 234.814 228.01C235.001 227.83 235.094 227.597 235.094 227.31V226.74ZM232.544 225.14V224.19C232.938 223.963 233.458 223.85 234.104 223.85C235.431 223.85 236.094 224.493 236.094 225.78V229H235.124V228.4C234.864 228.827 234.408 229.04 233.754 229.04C233.274 229.04 232.888 228.903 232.594 228.63C232.308 228.35 232.164 227.997 232.164 227.57C232.164 227.083 232.348 226.707 232.714 226.44C233.081 226.167 233.594 226.03 234.254 226.03H235.094V225.74C235.094 225.393 235.011 225.133 234.844 224.96C234.678 224.78 234.401 224.69 234.014 224.69C233.474 224.69 232.984 224.84 232.544 225.14ZM238.815 228.89L236.795 223.93H237.885L238.515 225.58L239.305 227.72C239.365 227.52 239.605 226.807 240.025 225.58L240.595 223.93H241.635L239.805 228.86C239.318 230.16 238.575 230.81 237.575 230.81C237.395 230.81 237.241 230.793 237.115 230.76V229.92C237.221 229.947 237.335 229.96 237.455 229.96C238.101 229.96 238.555 229.603 238.815 228.89ZM245.124 226.74H244.364C243.99 226.74 243.707 226.813 243.514 226.96C243.327 227.107 243.234 227.293 243.234 227.52C243.234 227.753 243.307 227.937 243.454 228.07C243.6 228.203 243.814 228.27 244.094 228.27C244.414 228.27 244.664 228.183 244.844 228.01C245.03 227.83 245.124 227.597 245.124 227.31V226.74ZM242.574 225.14V224.19C242.967 223.963 243.487 223.85 244.134 223.85C245.46 223.85 246.124 224.493 246.124 225.78V229H245.154V228.4C244.894 228.827 244.437 229.04 243.784 229.04C243.304 229.04 242.917 228.903 242.624 228.63C242.337 228.35 242.194 227.997 242.194 227.57C242.194 227.083 242.377 226.707 242.744 226.44C243.11 226.167 243.624 226.03 244.284 226.03H245.124V225.74C245.124 225.393 245.04 225.133 244.874 224.96C244.707 224.78 244.43 224.69 244.044 224.69C243.504 224.69 243.014 224.84 242.574 225.14ZM248.424 223.93V224.82C248.671 224.193 249.114 223.88 249.754 223.88C249.847 223.88 249.951 223.89 250.064 223.91V224.87C249.924 224.81 249.767 224.78 249.594 224.78C249.254 224.78 248.974 224.93 248.754 225.23C248.534 225.53 248.424 225.887 248.424 226.3V229H247.444V223.93H248.424Z" fill="#B76F09"/>
<rect x="109" y="275" width="120" height="24" rx="8" fill="#FF1934"/>
<path d="M148.99 288.104L151.094 288.104L151.094 289L147.982 289L147.982 283.608L148.99 283.608L148.99 288.104ZM153.225 286.952L154.745 286.952L154.673 286.712C154.492 286.136 154.342 285.653 154.225 285.264C154.113 284.869 154.044 284.621 154.017 284.52L153.985 284.36C153.937 284.627 153.708 285.413 153.297 286.72L153.225 286.952ZM155.385 289L155.001 287.776L152.961 287.776L152.577 289L151.521 289L153.345 283.608L154.649 283.608L156.473 289L155.385 289ZM157.248 289L157.248 283.608L158.392 283.608L159.688 285.856C159.901 286.224 160.09 286.568 160.256 286.888C160.426 287.203 160.541 287.427 160.6 287.56L160.688 287.76C160.645 287.317 160.624 286.683 160.624 285.856L160.624 283.608L161.64 283.608L161.64 289L160.488 289L159.176 286.76C158.968 286.408 158.778 286.072 158.608 285.752C158.442 285.427 158.328 285.192 158.264 285.048L158.168 284.824C158.226 285.331 158.256 285.973 158.256 286.752L158.256 289L157.248 289ZM162.435 288.84L162.435 287.928C162.638 288.056 162.851 288.12 163.075 288.12C163.486 288.12 163.691 287.901 163.691 287.464L163.691 283.616L164.699 283.616L164.699 287.464C164.699 287.971 164.571 288.355 164.315 288.616C164.059 288.877 163.707 289.008 163.259 289.008C162.923 289.008 162.649 288.952 162.435 288.84ZM168.963 286.936L168.963 283.608L169.971 283.608L169.971 286.928C169.971 287.627 169.781 288.16 169.403 288.528C169.029 288.891 168.515 289.072 167.859 289.072C167.219 289.072 166.707 288.893 166.323 288.536C165.944 288.173 165.755 287.656 165.755 286.984L165.755 283.608L166.763 283.608L166.763 286.976C166.763 287.387 166.864 287.685 167.067 287.872C167.269 288.053 167.533 288.144 167.859 288.144C168.595 288.144 168.963 287.741 168.963 286.936ZM174.46 283.608L174.46 284.44L173.092 284.44L173.092 289L172.076 289L172.076 284.44L170.708 284.44L170.708 283.608L174.46 283.608ZM175.216 289L175.216 283.608L176.224 283.608L176.224 289L175.216 289ZM177.504 286.312L179.512 289L178.24 289L176.304 286.328L178.168 283.608L179.376 283.608L177.504 286.312ZM181.608 286.952L183.128 286.952L183.056 286.712C182.874 286.136 182.725 285.653 182.608 285.264C182.496 284.869 182.426 284.621 182.4 284.52L182.368 284.36C182.32 284.627 182.09 285.413 181.68 286.72L181.608 286.952ZM183.768 289L183.384 287.776L181.344 287.776L180.96 289L179.904 289L181.728 283.608L183.032 283.608L184.856 289L183.768 289ZM185.63 289L185.63 283.608L186.774 283.608L188.07 285.856C188.284 286.224 188.473 286.568 188.638 286.888C188.809 287.203 188.924 287.427 188.982 287.56L189.07 287.76C189.028 287.317 189.006 286.683 189.006 285.856L189.006 283.608L190.022 283.608L190.022 289L188.87 289L187.558 286.76C187.35 286.408 187.161 286.072 186.99 285.752C186.825 285.427 186.71 285.192 186.646 285.048L186.55 284.824C186.609 285.331 186.638 285.973 186.638 286.752L186.638 289L185.63 289Z" fill="white"/>
<path d="M9 341.5H329C333.694 341.5 337.5 345.306 337.5 350C337.5 354.694 333.694 358.5 329 358.5H9C4.30558 358.5 0.5 354.694 0.5 350C0.500002 345.306 4.30558 341.5 9 341.5Z" fill="white"/>
<path d="M9 341.5H329C333.694 341.5 337.5 345.306 337.5 350C337.5 354.694 333.694 358.5 329 358.5H9C4.30558 358.5 0.5 354.694 0.5 350C0.500002 345.306 4.30558 341.5 9 341.5Z" stroke="#CCCCCC"/>
<path d="M7.86805e-07 350C3.52265e-07 345.029 4.02944 341 9 341L39 341C43.9706 341 48 345.029 48 350C48 354.971 43.9706 359 39 359L9 359C4.02944 359 1.22135e-06 354.971 7.86805e-07 350Z" fill="#FF1934"/>
<path d="M15.448 346.688H16.264L16.816 348.6L17.456 350.92C17.5893 350.179 17.7547 349.403 17.952 348.592L18.44 346.608H19.464L18.088 352H16.92L16.432 350.296C16.2987 349.843 16.184 349.443 16.088 349.096C15.9973 348.749 15.936 348.517 15.904 348.4L15.864 348.216C15.7893 348.589 15.6027 349.283 15.304 350.296L14.8 352H13.64L12.2 346.608H13.264L13.768 348.6C13.8533 348.957 13.9387 349.328 14.024 349.712C14.1093 350.096 14.1733 350.389 14.216 350.592L14.28 350.904C14.4507 350.232 14.6587 349.464 14.904 348.6L15.448 346.688ZM22.2561 350.256H21.7601C21.5094 350.256 21.3174 350.309 21.1841 350.416C21.0507 350.517 20.9841 350.648 20.9841 350.808C20.9841 351.149 21.1814 351.32 21.5761 351.32C21.7894 351.32 21.9547 351.259 22.0721 351.136C22.1947 351.008 22.2561 350.843 22.2561 350.64V350.256ZM20.2881 349.04V348.152C20.5921 347.965 21.0294 347.872 21.6001 347.872C22.6987 347.872 23.2481 348.384 23.2481 349.408V352H22.2961V351.512C22.1094 351.859 21.7574 352.032 21.2401 352.032C20.8561 352.032 20.5494 351.92 20.3201 351.696C20.0961 351.472 19.9841 351.189 19.9841 350.848C19.9841 350.464 20.1281 350.163 20.4161 349.944C20.7041 349.725 21.1201 349.616 21.6641 349.616H22.2561V349.368C22.2561 349.144 22.1974 348.973 22.0801 348.856C21.9627 348.739 21.7627 348.68 21.4801 348.68C21.0481 348.68 20.6507 348.8 20.2881 349.04ZM27.7828 352H26.6548L25.1988 349.904V352H24.2388V346.44H25.1988V349.848L26.6308 347.944H27.7508L26.2628 349.88L27.7828 352ZM29.5864 348.664V350.728C29.5864 350.899 29.6318 351.029 29.7224 351.12C29.8131 351.205 29.9384 351.248 30.0984 351.248C30.3011 351.248 30.4878 351.192 30.6584 351.08V351.904C30.4718 351.995 30.2318 352.04 29.9384 352.04C29.0638 352.04 28.6264 351.597 28.6264 350.712V348.664H28.0184V347.944H28.6264V346.968H29.5864V347.944H30.5944V348.664H29.5864ZM33.9617 347.944H34.9297V352H33.9617V351.336C33.7484 351.805 33.3324 352.04 32.7137 352.04C32.303 352.04 31.983 351.923 31.7537 351.688C31.5244 351.453 31.4097 351.12 31.4097 350.688V347.944H32.3697V350.464C32.3697 350.72 32.431 350.915 32.5537 351.048C32.6817 351.181 32.855 351.248 33.0737 351.248C33.351 351.248 33.567 351.155 33.7217 350.968C33.8817 350.781 33.9617 350.499 33.9617 350.12V347.944Z" fill="white"/>
<rect x="56" y="348" width="274" height="4" rx="2" fill="#CCCCCC"/>
<mask id="mask0_1124_4113" style="mask-type:alpha" maskUnits="userSpaceOnUse" x="56" y="348" width="274" height="4">
<rect x="56" y="348" width="274" height="4" rx="2" fill="#CCCCCC"/>
</mask>
<g mask="url(#mask0_1124_4113)">
<rect x="56" y="348" width="274" height="4" rx="2" fill="#FF1934"/>
</g>
<defs>
<filter id="filter0_d_1124_4113" x="5" y="48" width="328" height="56" filterUnits="userSpaceOnUse" color-interpolation-filters="sRGB">
<feFlood flood-opacity="0" result="BackgroundImageFix"/>
<feColorMatrix in="SourceAlpha" type="matrix" values="0 0 0 0 0 0 0 0 0 0 0 0 0 0 0 0 0 0 127 0" result="hardAlpha"/>
<feOffset dy="2"/>
<feGaussianBlur stdDeviation="2"/>
<feComposite in2="hardAlpha" operator="out"/>
<feColorMatrix type="matrix" values="0 0 0 0 0.168627 0 0 0 0 0.168627 0 0 0 0 0.168627 0 0 0 0.24 0"/>
<feBlend mode="normal" in2="BackgroundImageFix" result="effect1_dropShadow_1124_4113"/>
<feBlend mode="normal" in="SourceGraphic" in2="effect1_dropShadow_1124_4113" result="shape"/>
</filter>
<clipPath id="clip0_1124_4113">
<rect width="24" height="24" fill="white" transform="translate(25 66)"/>
</clipPath>
<clipPath id="clip1_1124_4113">
<rect width="64" height="64" fill="white" transform="translate(137 130)"/>
</clipPath>
</defs>
</svg>
