<svg width="393" height="328" viewBox="0 0 393 328" fill="none" xmlns="http://www.w3.org/2000/svg">
<rect width="393" height="328" fill="#D3D3D3"/>
<rect width="393" height="328" rx="16" fill="white"/>
<g filter="url(#filter0_d_1124_4113)">
<path d="M0 16C0 7.16344 7.16344 0 16 0H377C385.837 0 393 7.16344 393 16V48H0V16Z" fill="#FF1934" shape-rendering="crispEdges"/>
<g clip-path="url(#clip0_1124_4113)">
<path d="M36.58 26.44L32.07 23.97V19.8C32.07 19.36 31.71 19 31.27 19H19.8C19.36 19 19 19.36 19 19.8V36.2C19 36.64 19.36 37 19.8 37C20.24 37 20.6 36.64 20.6 36.2V20.6H30.47V36.2C30.47 36.64 30.83 37 31.27 37C31.71 37 32.07 36.64 32.07 36.2V34.67H33.74C34.18 34.67 34.54 34.31 34.54 33.87C34.54 33.43 34.18 33.07 33.74 33.07H32.07V31.8H33.74C34.18 31.8 34.54 31.44 34.54 31C34.54 30.56 34.18 30.2 33.74 30.2H32.07V25.78L35.4 27.6V36.19C35.4 36.63 35.76 36.99 36.2 36.99C36.64 36.99 37 36.63 37 36.19V27.13C37 26.84 36.84 26.57 36.58 26.43V26.44Z" fill="white"/>
<path d="M29.0402 21.6001H22.0402C21.6002 21.6001 21.2402 21.9601 21.2402 22.4001C21.2402 22.8401 21.6002 23.2001 22.0402 23.2001H29.0402C29.4802 23.2001 29.8402 22.8401 29.8402 22.4001C29.8402 21.9601 29.4802 21.6001 29.0402 21.6001Z" fill="white"/>
<path d="M29.0402 24.6401H22.0402C21.6002 24.6401 21.2402 25.0001 21.2402 25.4401C21.2402 25.8801 21.6002 26.2401 22.0402 26.2401H29.0402C29.4802 26.2401 29.8402 25.8801 29.8402 25.4401C29.8402 25.0001 29.4802 24.6401 29.0402 24.6401Z" fill="white"/>
<path d="M29.0402 27.3398H22.0402C21.6002 27.3398 21.2402 27.6998 21.2402 28.1398C21.2402 28.5798 21.6002 28.9398 22.0402 28.9398H29.0402C29.4802 28.9398 29.8402 28.5798 29.8402 28.1398C29.8402 27.6998 29.4802 27.3398 29.0402 27.3398Z" fill="white"/>
<path d="M29.0402 30.3701H22.0402C21.6002 30.3701 21.2402 30.7301 21.2402 31.1701C21.2402 31.6101 21.6002 31.9701 22.0402 31.9701H29.0402C29.4802 31.9701 29.8402 31.6101 29.8402 31.1701C29.8402 30.7301 29.4802 30.3701 29.0402 30.3701Z" fill="white"/>
<path d="M29.0402 33.0698H22.0402C21.6002 33.0698 21.2402 33.4298 21.2402 33.8698C21.2402 34.3098 21.6002 34.6698 22.0402 34.6698H29.0402C29.4802 34.6698 29.8402 34.3098 29.8402 33.8698C29.8402 33.4298 29.4802 33.0698 29.0402 33.0698Z" fill="white"/>
</g>
<path d="M54.524 22.564H56.694V32H54.524V28.234H51.066V32H48.91V22.564H51.066V26.4H54.524V22.564ZM61.5737 32.112C60.463 32.112 59.6043 31.7807 58.9977 31.118C58.391 30.446 58.0877 29.5873 58.0877 28.542C58.0877 27.45 58.405 26.554 59.0397 25.854C59.6743 25.1447 60.519 24.79 61.5737 24.79C62.675 24.79 63.529 25.1307 64.1357 25.812C64.7423 26.4933 65.0457 27.3613 65.0457 28.416C65.0457 29.4893 64.7377 30.376 64.1217 31.076C63.515 31.7667 62.6657 32.112 61.5737 32.112ZM61.5597 26.4C61.1117 26.4 60.7757 26.5913 60.5517 26.974C60.3277 27.3567 60.2157 27.8513 60.2157 28.458C60.2157 29.0647 60.3277 29.564 60.5517 29.956C60.785 30.3387 61.1303 30.53 61.5877 30.53C62.0357 30.53 62.367 30.3433 62.5817 29.97C62.8057 29.5873 62.9177 29.0927 62.9177 28.486C62.9177 27.0953 62.465 26.4 61.5597 26.4ZM68.747 26.4V29.662C68.747 29.914 68.817 30.1053 68.957 30.236C69.1063 30.3667 69.2977 30.432 69.531 30.432C69.9043 30.432 70.2357 30.3387 70.525 30.152V31.846C70.1797 31.9953 69.713 32.07 69.125 32.07C67.5103 32.07 66.703 31.2627 66.703 29.648V26.4H65.681V24.902H66.703V23.222H68.747V24.902H70.399V26.4H68.747ZM75.8834 27.8V27.632C75.8181 26.8013 75.4541 26.386 74.7914 26.386C74.4647 26.386 74.1754 26.5073 73.9234 26.75C73.6714 26.9833 73.5034 27.3333 73.4194 27.8H75.8834ZM77.3534 29.886V31.594C76.8681 31.9113 76.1261 32.07 75.1274 32.07C73.9607 32.07 73.0507 31.734 72.3974 31.062C71.7534 30.3807 71.4314 29.508 71.4314 28.444C71.4314 27.3147 71.7441 26.4327 72.3694 25.798C73.0041 25.154 73.7834 24.832 74.7074 24.832C75.6594 24.832 76.4107 25.112 76.9614 25.672C77.5121 26.2227 77.7874 27.0487 77.7874 28.15C77.7874 28.3647 77.7501 28.7333 77.6754 29.256H73.5034C73.6434 29.648 73.8861 29.9513 74.2314 30.166C74.5767 30.3807 74.9921 30.488 75.4774 30.488C76.1961 30.488 76.8214 30.2873 77.3534 29.886ZM79.3163 32V22.102H81.3603V32H79.3163Z" fill="white"/>
<path d="M365 14C365 6.26801 371.268 -5.47967e-07 379 -1.22392e-06C386.732 -1.89987e-06 393 6.26801 393 14C393 21.732 386.732 28 379 28C371.268 28 365 21.732 365 14Z" fill="#FF1934"/>
<g clip-path="url(#clip1_1124_4113)">
<path d="M383.209 9.41022C382.879 9.11022 382.379 9.13022 382.079 9.46022L378.999 12.8202L375.919 9.46022C375.619 9.13022 375.109 9.11022 374.789 9.41022C374.459 9.71022 374.439 10.2102 374.739 10.5402L377.909 14.0002L374.739 17.4602C374.439 17.7902 374.459 18.2902 374.789 18.5902C374.939 18.7302 375.139 18.8002 375.329 18.8002C375.549 18.8002 375.759 18.7102 375.919 18.5402L378.999 15.1802L382.079 18.5402C382.239 18.7102 382.449 18.8002 382.669 18.8002C382.859 18.8002 383.059 18.7302 383.209 18.5902C383.539 18.2902 383.559 17.7902 383.259 17.4602L380.089 14.0002L383.259 10.5402C383.559 10.2102 383.539 9.71022 383.209 9.41022Z" fill="white"/>
<path d="M379 4C373.49 4 369 8.49 369 14C369 19.51 373.49 24 379 24C384.51 24 389 19.51 389 14C389 8.49 384.51 4 379 4ZM379 22.4C374.37 22.4 370.6 18.63 370.6 14C370.6 9.37 374.37 5.6 379 5.6C383.63 5.6 387.4 9.37 387.4 14C387.4 18.63 383.63 22.4 379 22.4Z" fill="white"/>
</g>
<rect x="91" y="21" width="84" height="14" rx="7" fill="white"/>
<path d="M101.066 28.032H102.978L102.874 27.72L102.034 25.128C101.97 25.3573 101.682 26.224 101.17 27.728L101.066 28.032ZM103.634 30L103.162 28.584H100.882L100.402 30H99.7058L101.586 24.608H102.482L104.33 30H103.634ZM107.405 26.08V26.68C107.16 26.5307 106.824 26.456 106.397 26.456C106.184 26.456 106.013 26.5067 105.885 26.608C105.763 26.704 105.701 26.8293 105.701 26.984C105.701 27.08 105.72 27.1653 105.757 27.24C105.795 27.3093 105.867 27.3787 105.973 27.448C106.085 27.5173 106.165 27.5653 106.213 27.592C106.267 27.6133 106.379 27.6613 106.549 27.736C106.891 27.8747 107.157 28.032 107.349 28.208C107.541 28.384 107.637 28.6213 107.637 28.92C107.637 29.2667 107.515 29.5413 107.269 29.744C107.029 29.9467 106.699 30.048 106.277 30.048C105.787 30.048 105.389 29.9653 105.085 29.8V29.184C105.443 29.3973 105.827 29.504 106.237 29.504C106.483 29.504 106.669 29.456 106.797 29.36C106.925 29.264 106.989 29.1333 106.989 28.968C106.989 28.776 106.917 28.6267 106.773 28.52C106.635 28.4133 106.4 28.2933 106.069 28.16C105.765 28.0427 105.52 27.896 105.333 27.72C105.152 27.544 105.061 27.3067 105.061 27.008C105.061 26.672 105.187 26.4053 105.437 26.208C105.693 26.0053 106.011 25.904 106.389 25.904C106.811 25.904 107.149 25.9627 107.405 26.08ZM111.078 27.712V27.552C111.078 27.216 110.987 26.9493 110.806 26.752C110.625 26.5493 110.374 26.448 110.054 26.448C109.75 26.448 109.491 26.5573 109.278 26.776C109.065 26.9947 108.939 27.3067 108.902 27.712H111.078ZM111.454 29.2V29.792C111.139 29.9573 110.755 30.04 110.302 30.04C109.689 30.04 109.193 29.8533 108.814 29.48C108.441 29.1013 108.254 28.6027 108.254 27.984C108.254 27.3387 108.422 26.8293 108.758 26.456C109.094 26.0827 109.526 25.896 110.054 25.896C110.561 25.896 110.963 26.0587 111.262 26.384C111.561 26.7093 111.71 27.1707 111.71 27.768C111.71 27.9387 111.697 28.096 111.67 28.24H108.902C108.95 28.64 109.102 28.9467 109.358 29.16C109.614 29.3733 109.95 29.48 110.366 29.48C110.819 29.48 111.182 29.3867 111.454 29.2ZM113.546 26.456V28.832C113.546 29.264 113.749 29.48 114.154 29.48C114.362 29.48 114.546 29.4187 114.706 29.296V29.896C114.53 29.992 114.333 30.04 114.114 30.04C113.314 30.04 112.914 29.632 112.914 28.816V26.456H112.266V25.944H112.914V24.936H113.546V25.944H114.666V26.456H113.546ZM118.26 25.168V27.32H119.076C119.444 27.32 119.724 27.2213 119.916 27.024C120.113 26.8213 120.212 26.5627 120.212 26.248C120.212 25.528 119.809 25.168 119.004 25.168H118.26ZM121.196 30H120.42L119.1 27.872H119.036H118.26V30H117.612V24.608H118.964C119.588 24.608 120.06 24.7547 120.38 25.048C120.705 25.3413 120.868 25.7467 120.868 26.264C120.857 26.6373 120.759 26.9547 120.572 27.216C120.385 27.4773 120.121 27.6613 119.78 27.768L121.196 30ZM124.547 27.712V27.552C124.547 27.216 124.456 26.9493 124.275 26.752C124.094 26.5493 123.843 26.448 123.523 26.448C123.219 26.448 122.96 26.5573 122.747 26.776C122.534 26.9947 122.408 27.3067 122.371 27.712H124.547ZM124.923 29.2V29.792C124.608 29.9573 124.224 30.04 123.771 30.04C123.158 30.04 122.662 29.8533 122.283 29.48C121.91 29.1013 121.723 28.6027 121.723 27.984C121.723 27.3387 121.891 26.8293 122.227 26.456C122.563 26.0827 122.995 25.896 123.523 25.896C124.03 25.896 124.432 26.0587 124.731 26.384C125.03 26.7093 125.179 27.1707 125.179 27.768C125.179 27.9387 125.166 28.096 125.139 28.24H122.371C122.419 28.64 122.571 28.9467 122.827 29.16C123.083 29.3733 123.419 29.48 123.835 29.48C124.288 29.48 124.651 29.3867 124.923 29.2ZM128.351 26.08V26.68C128.105 26.5307 127.769 26.456 127.343 26.456C127.129 26.456 126.959 26.5067 126.831 26.608C126.708 26.704 126.647 26.8293 126.647 26.984C126.647 27.08 126.665 27.1653 126.703 27.24C126.74 27.3093 126.812 27.3787 126.919 27.448C127.031 27.5173 127.111 27.5653 127.159 27.592C127.212 27.6133 127.324 27.6613 127.495 27.736C127.836 27.8747 128.103 28.032 128.295 28.208C128.487 28.384 128.583 28.6213 128.583 28.92C128.583 29.2667 128.46 29.5413 128.215 29.744C127.975 29.9467 127.644 30.048 127.223 30.048C126.732 30.048 126.335 29.9653 126.031 29.8V29.184C126.388 29.3973 126.772 29.504 127.183 29.504C127.428 29.504 127.615 29.456 127.743 29.36C127.871 29.264 127.935 29.1333 127.935 28.968C127.935 28.776 127.863 28.6267 127.719 28.52C127.58 28.4133 127.345 28.2933 127.015 28.16C126.711 28.0427 126.465 27.896 126.279 27.72C126.097 27.544 126.007 27.3067 126.007 27.008C126.007 26.672 126.132 26.4053 126.383 26.208C126.639 26.0053 126.956 25.904 127.335 25.904C127.756 25.904 128.095 25.9627 128.351 26.08ZM129.471 30V25.944H130.103V30H129.471ZM129.487 24.968C129.413 24.888 129.375 24.7893 129.375 24.672C129.375 24.5547 129.413 24.456 129.487 24.376C129.567 24.296 129.666 24.256 129.783 24.256C129.901 24.256 129.999 24.296 130.079 24.376C130.159 24.456 130.199 24.5547 130.199 24.672C130.199 24.7893 130.159 24.888 130.079 24.968C129.999 25.0427 129.901 25.08 129.783 25.08C129.666 25.08 129.567 25.0427 129.487 24.968ZM131.307 30V24.376H131.931V30H131.307ZM132.755 27.872L134.403 30H133.643L132.011 27.872L133.603 25.944H134.355L132.755 27.872ZM136.798 30.072C136.217 30.072 135.756 29.8773 135.414 29.488C135.078 29.0933 134.91 28.5973 134.91 28C134.91 27.3973 135.084 26.896 135.43 26.496C135.782 26.0907 136.238 25.888 136.798 25.888C137.412 25.888 137.884 26.0853 138.214 26.48C138.55 26.8747 138.718 27.376 138.718 27.984C138.718 28.5867 138.548 29.0853 138.206 29.48C137.865 29.8747 137.396 30.072 136.798 30.072ZM136.798 26.448C136.414 26.448 136.113 26.5973 135.894 26.896C135.676 27.1947 135.566 27.56 135.566 27.992C135.566 28.4133 135.678 28.7733 135.902 29.072C136.126 29.3653 136.425 29.512 136.798 29.512C137.204 29.512 137.516 29.368 137.734 29.08C137.953 28.7867 138.062 28.424 138.062 27.992C138.062 27.544 137.958 27.176 137.75 26.888C137.542 26.5947 137.225 26.448 136.798 26.448ZM144.452 24.808V25.488C144.126 25.2747 143.737 25.168 143.284 25.168C142.958 25.168 142.7 25.2453 142.508 25.4C142.316 25.5493 142.22 25.7467 142.22 25.992C142.22 26.12 142.244 26.2347 142.292 26.336C142.345 26.4373 142.436 26.5333 142.564 26.624C142.692 26.7093 142.801 26.776 142.892 26.824C142.982 26.8667 143.124 26.9307 143.316 27.016C143.497 27.096 143.636 27.16 143.732 27.208C143.828 27.2507 143.95 27.3227 144.1 27.424C144.254 27.52 144.369 27.616 144.444 27.712C144.524 27.8027 144.593 27.9253 144.652 28.08C144.716 28.2293 144.748 28.392 144.748 28.568C144.748 29.0427 144.585 29.4107 144.26 29.672C143.934 29.928 143.516 30.056 143.004 30.056C142.438 30.056 141.958 29.9413 141.564 29.712V29.016C141.953 29.3093 142.428 29.456 142.988 29.456C143.324 29.456 143.588 29.3813 143.78 29.232C143.972 29.0827 144.068 28.8667 144.068 28.584C144.068 28.4667 144.044 28.3627 143.996 28.272C143.953 28.176 143.878 28.0907 143.772 28.016C143.67 27.936 143.572 27.872 143.476 27.824C143.385 27.7707 143.26 27.7067 143.1 27.632C143.068 27.616 143.02 27.5947 142.956 27.568C142.726 27.4667 142.55 27.384 142.428 27.32C142.31 27.256 142.169 27.1627 142.004 27.04C141.844 26.912 141.726 26.7653 141.652 26.6C141.577 26.4347 141.54 26.2427 141.54 26.024C141.54 25.5653 141.702 25.208 142.028 24.952C142.358 24.6907 142.772 24.56 143.268 24.56C143.732 24.56 144.126 24.6427 144.452 24.808ZM148.375 27.712V27.552C148.375 27.216 148.284 26.9493 148.103 26.752C147.922 26.5493 147.671 26.448 147.351 26.448C147.047 26.448 146.788 26.5573 146.575 26.776C146.362 26.9947 146.236 27.3067 146.199 27.712H148.375ZM148.751 29.2V29.792C148.436 29.9573 148.052 30.04 147.599 30.04C146.986 30.04 146.49 29.8533 146.111 29.48C145.738 29.1013 145.551 28.6027 145.551 27.984C145.551 27.3387 145.719 26.8293 146.055 26.456C146.391 26.0827 146.823 25.896 147.351 25.896C147.858 25.896 148.26 26.0587 148.559 26.384C148.858 26.7093 149.007 27.1707 149.007 27.768C149.007 27.9387 148.994 28.096 148.967 28.24H146.199C146.247 28.64 146.399 28.9467 146.655 29.16C146.911 29.3733 147.247 29.48 147.663 29.48C148.116 29.48 148.479 29.3867 148.751 29.2ZM151.515 29.488C151.845 29.488 152.125 29.3653 152.355 29.12C152.589 28.8747 152.707 28.4827 152.707 27.944C152.707 27.432 152.587 27.056 152.347 26.816C152.107 26.576 151.843 26.456 151.555 26.456C151.219 26.456 150.939 26.592 150.715 26.864C150.496 27.1307 150.387 27.5147 150.387 28.016C150.387 28.4533 150.493 28.808 150.707 29.08C150.92 29.352 151.189 29.488 151.515 29.488ZM152.707 24.344H153.339V30H152.707V29.4C152.419 29.8427 152.003 30.064 151.459 30.064C150.92 30.064 150.496 29.864 150.187 29.464C149.883 29.064 149.731 28.5787 149.731 28.008C149.731 27.3733 149.893 26.8613 150.219 26.472C150.544 26.0773 150.963 25.88 151.475 25.88C152.003 25.88 152.413 26.1067 152.707 26.56V24.344ZM156.694 28.128H155.99C155.648 28.128 155.392 28.1947 155.222 28.328C155.051 28.4613 154.966 28.6293 154.966 28.832C154.966 29.0347 155.032 29.2 155.166 29.328C155.299 29.4507 155.494 29.512 155.75 29.512C156.038 29.512 156.267 29.432 156.438 29.272C156.608 29.1067 156.694 28.8987 156.694 28.648V28.128ZM154.598 26.792V26.16C154.902 25.9733 155.302 25.88 155.798 25.88C156.816 25.88 157.326 26.3973 157.326 27.432V30H156.702V29.52C156.494 29.8667 156.115 30.04 155.566 30.04C155.187 30.04 154.88 29.928 154.646 29.704C154.416 29.48 154.302 29.1973 154.302 28.856C154.302 28.4667 154.448 28.1653 154.742 27.952C155.04 27.7333 155.446 27.624 155.958 27.624H156.694V27.416C156.694 27.096 156.622 26.856 156.478 26.696C156.334 26.5307 156.091 26.448 155.75 26.448C155.318 26.448 154.934 26.5627 154.598 26.792ZM159.071 25.944V26.648C159.311 26.1413 159.738 25.888 160.351 25.888C160.746 25.888 161.061 26.008 161.295 26.248C161.53 26.488 161.647 26.808 161.647 27.208V30H161.015V27.376C161.015 27.0773 160.938 26.8507 160.783 26.696C160.634 26.536 160.437 26.456 160.191 26.456C159.887 26.456 159.623 26.5733 159.399 26.808C159.181 27.0427 159.071 27.368 159.071 27.784V30H158.447V25.944H159.071ZM164.288 29.336C164.581 29.336 164.84 29.224 165.064 29C165.293 28.7707 165.408 28.432 165.408 27.984C165.408 27.4667 165.298 27.0827 165.08 26.832C164.861 26.5813 164.608 26.456 164.32 26.456C163.973 26.456 163.698 26.5947 163.496 26.872C163.293 27.144 163.192 27.5013 163.192 27.944C163.192 28.3973 163.304 28.744 163.528 28.984C163.752 29.2187 164.005 29.336 164.288 29.336ZM165.408 25.944H166.04V29.672C166.04 30.2907 165.869 30.7547 165.528 31.064C165.186 31.3787 164.746 31.536 164.208 31.536C163.717 31.536 163.298 31.4533 162.952 31.288V30.656C163.293 30.8533 163.693 30.952 164.152 30.952C164.541 30.952 164.848 30.848 165.072 30.64C165.296 30.432 165.408 30.1067 165.408 29.664V29.208C165.141 29.6667 164.744 29.896 164.216 29.896C163.752 29.896 163.354 29.7253 163.024 29.384C162.698 29.0427 162.536 28.568 162.536 27.96C162.536 27.3573 162.688 26.8613 162.992 26.472C163.296 26.0827 163.693 25.888 164.184 25.888C164.738 25.888 165.146 26.1307 165.408 26.616V25.944Z" fill="#2B2B2B"/>
</g>
<path d="M59.7996 92.54V93.76C59.2996 93.46 58.7663 93.31 58.1996 93.31C57.8863 93.31 57.6396 93.38 57.4596 93.52C57.2863 93.66 57.1996 93.84 57.1996 94.06C57.1996 94.28 57.2929 94.4633 57.4796 94.61C57.6729 94.75 57.9596 94.9067 58.3396 95.08C58.6063 95.2 58.8229 95.3067 58.9896 95.4C59.1563 95.4867 59.3363 95.61 59.5296 95.77C59.7296 95.93 59.8763 96.1233 59.9696 96.35C60.0696 96.57 60.1196 96.8233 60.1196 97.11C60.1196 97.71 59.9029 98.19 59.4696 98.55C59.0429 98.9033 58.4796 99.08 57.7796 99.08C57.0196 99.08 56.3896 98.9367 55.8896 98.65V97.36C56.4629 97.7733 57.0896 97.98 57.7696 97.98C58.0763 97.98 58.3229 97.9067 58.5096 97.76C58.6963 97.6067 58.7896 97.4033 58.7896 97.15C58.7896 97.03 58.7663 96.9233 58.7196 96.83C58.6729 96.7367 58.5763 96.6433 58.4296 96.55C58.2896 96.4567 58.1796 96.39 58.0996 96.35C58.0263 96.31 57.8696 96.2367 57.6296 96.13C57.5629 96.0967 57.5129 96.0733 57.4796 96.06C57.2329 95.9467 57.0329 95.8467 56.8796 95.76C56.7263 95.6667 56.5596 95.5433 56.3796 95.39C56.1996 95.2367 56.0629 95.0533 55.9696 94.84C55.8829 94.6267 55.8396 94.3833 55.8396 94.11C55.8396 93.5367 56.0496 93.0767 56.4696 92.73C56.8963 92.3833 57.4596 92.21 58.1596 92.21C58.7929 92.21 59.3396 92.32 59.7996 92.54ZM61.2254 99V93.93H62.4254V99H61.2254ZM61.1054 92.41C61.1054 92.21 61.1754 92.04 61.3154 91.9C61.4554 91.76 61.6254 91.69 61.8254 91.69C62.0254 91.69 62.1954 91.76 62.3354 91.9C62.4754 92.04 62.5454 92.21 62.5454 92.41C62.5454 92.6167 62.4754 92.79 62.3354 92.93C62.1954 93.07 62.0254 93.14 61.8254 93.14C61.6254 93.14 61.4554 93.07 61.3154 92.93C61.1754 92.79 61.1054 92.6167 61.1054 92.41ZM68.203 99H66.793L64.973 96.38V99H63.773V92.05H64.973V96.31L66.763 93.93H68.163L66.303 96.35L68.203 99ZM69.0477 99V91.93H70.2477V99H69.0477ZM74.7353 93.93H75.9453V99H74.7353V98.17C74.4686 98.7567 73.9486 99.05 73.1753 99.05C72.662 99.05 72.262 98.9033 71.9753 98.61C71.6886 98.3167 71.5453 97.9 71.5453 97.36V93.93H72.7453V97.08C72.7453 97.4 72.822 97.6433 72.9753 97.81C73.1353 97.9767 73.352 98.06 73.6253 98.06C73.972 98.06 74.242 97.9433 74.4353 97.71C74.6353 97.4767 74.7353 97.1233 74.7353 96.65V93.93ZM80.2796 94.09V95.15C79.9463 94.95 79.5296 94.85 79.0296 94.85C78.8229 94.85 78.6596 94.8967 78.5396 94.99C78.4263 95.0767 78.3696 95.19 78.3696 95.33C78.3696 95.3833 78.3763 95.4333 78.3896 95.48C78.4096 95.5267 78.4396 95.5733 78.4796 95.62C78.5263 95.66 78.5696 95.6967 78.6096 95.73C78.6496 95.7633 78.7063 95.8 78.7796 95.84C78.8529 95.8733 78.9163 95.9033 78.9696 95.93C79.0229 95.9567 79.0963 95.99 79.1896 96.03C79.2829 96.07 79.3563 96.1033 79.4096 96.13C79.7629 96.3033 80.0429 96.4967 80.2496 96.71C80.4563 96.9233 80.5596 97.2 80.5596 97.54C80.5596 98.0133 80.3896 98.3833 80.0496 98.65C79.7096 98.9167 79.2563 99.05 78.6896 99.05C78.0629 99.05 77.5563 98.9467 77.1696 98.74V97.64C77.6163 97.94 78.0996 98.09 78.6196 98.09C78.8396 98.09 79.0096 98.05 79.1296 97.97C79.2563 97.8833 79.3196 97.7667 79.3196 97.62C79.3196 97.5333 79.2996 97.4567 79.2596 97.39C79.2196 97.3167 79.1429 97.2467 79.0296 97.18C78.9163 97.1133 78.8263 97.0667 78.7596 97.04C78.6996 97.0067 78.5763 96.95 78.3896 96.87C78.3696 96.8633 78.3529 96.8567 78.3396 96.85C78.3329 96.8433 78.3196 96.8367 78.2996 96.83C78.2796 96.8233 78.2629 96.8167 78.2496 96.81C77.5096 96.4767 77.1396 95.9967 77.1396 95.37C77.1396 94.9033 77.3163 94.5367 77.6696 94.27C78.0229 94.0033 78.4663 93.87 78.9996 93.87C79.5129 93.87 79.9396 93.9433 80.2796 94.09ZM85.3077 97.97H86.3877C87.1943 97.97 87.5977 97.6633 87.5977 97.05C87.5977 96.4233 87.1777 96.11 86.3377 96.11H85.3077V97.97ZM85.3077 93.29V95.1H86.0677C86.521 95.1 86.861 95.01 87.0877 94.83C87.3143 94.65 87.4277 94.42 87.4277 94.14C87.4277 93.88 87.331 93.6733 87.1377 93.52C86.951 93.3667 86.6643 93.29 86.2777 93.29H85.3077ZM84.0477 92.26H86.4377C87.1577 92.26 87.7177 92.43 88.1177 92.77C88.5177 93.11 88.7177 93.55 88.7177 94.09C88.7177 94.4567 88.6177 94.7767 88.4177 95.05C88.2177 95.3167 87.961 95.4933 87.6477 95.58C88.0077 95.6667 88.3043 95.8433 88.5377 96.11C88.771 96.37 88.8877 96.7267 88.8877 97.18C88.8877 97.7133 88.701 98.15 88.3277 98.49C87.9543 98.83 87.4377 99 86.7777 99H84.0477V92.26ZM89.9656 99V93.93H91.1656V99H89.9656ZM89.8456 92.41C89.8456 92.21 89.9156 92.04 90.0556 91.9C90.1956 91.76 90.3656 91.69 90.5656 91.69C90.7656 91.69 90.9356 91.76 91.0756 91.9C91.2156 92.04 91.2856 92.21 91.2856 92.41C91.2856 92.6167 91.2156 92.79 91.0756 92.93C90.9356 93.07 90.7656 93.14 90.5656 93.14C90.3656 93.14 90.1956 93.07 90.0556 92.93C89.9156 92.79 89.8456 92.6167 89.8456 92.41ZM95.5433 94.09V95.15C95.2099 94.95 94.7933 94.85 94.2933 94.85C94.0866 94.85 93.9233 94.8967 93.8033 94.99C93.6899 95.0767 93.6333 95.19 93.6333 95.33C93.6333 95.3833 93.6399 95.4333 93.6533 95.48C93.6733 95.5267 93.7033 95.5733 93.7433 95.62C93.7899 95.66 93.8333 95.6967 93.8733 95.73C93.9133 95.7633 93.9699 95.8 94.0433 95.84C94.1166 95.8733 94.1799 95.9033 94.2333 95.93C94.2866 95.9567 94.3599 95.99 94.4533 96.03C94.5466 96.07 94.6199 96.1033 94.6733 96.13C95.0266 96.3033 95.3066 96.4967 95.5133 96.71C95.7199 96.9233 95.8233 97.2 95.8233 97.54C95.8233 98.0133 95.6533 98.3833 95.3133 98.65C94.9733 98.9167 94.5199 99.05 93.9533 99.05C93.3266 99.05 92.8199 98.9467 92.4333 98.74V97.64C92.8799 97.94 93.3633 98.09 93.8833 98.09C94.1033 98.09 94.2733 98.05 94.3933 97.97C94.5199 97.8833 94.5833 97.7667 94.5833 97.62C94.5833 97.5333 94.5633 97.4567 94.5233 97.39C94.4833 97.3167 94.4066 97.2467 94.2933 97.18C94.1799 97.1133 94.0899 97.0667 94.0233 97.04C93.9633 97.0067 93.8399 96.95 93.6533 96.87C93.6333 96.8633 93.6166 96.8567 93.6033 96.85C93.5966 96.8433 93.5833 96.8367 93.5633 96.83C93.5433 96.8233 93.5266 96.8167 93.5133 96.81C92.7733 96.4767 92.4033 95.9967 92.4033 95.37C92.4033 94.9033 92.5799 94.5367 92.9333 94.27C93.2866 94.0033 93.7299 93.87 94.2633 93.87C94.7766 93.87 95.2033 93.9433 95.5433 94.09ZM97.9809 93.93V94.8C98.2675 94.18 98.7875 93.87 99.5409 93.87C100.048 93.87 100.448 94.0233 100.741 94.33C101.034 94.6367 101.181 95.07 101.181 95.63V99H99.9809V95.88C99.9809 95.5467 99.9009 95.2967 99.7409 95.13C99.5809 94.9567 99.3642 94.87 99.0909 94.87C98.7775 94.87 98.5142 94.9933 98.3009 95.24C98.0875 95.48 97.9809 95.8267 97.9809 96.28V99H96.7809V93.93H97.9809ZM102.485 99V93.93H103.685V99H102.485ZM102.365 92.41C102.365 92.21 102.435 92.04 102.575 91.9C102.715 91.76 102.885 91.69 103.085 91.69C103.285 91.69 103.455 91.76 103.595 91.9C103.735 92.04 103.805 92.21 103.805 92.41C103.805 92.6167 103.735 92.79 103.595 92.93C103.455 93.07 103.285 93.14 103.085 93.14C102.885 93.14 102.715 93.07 102.575 92.93C102.435 92.79 102.365 92.6167 102.365 92.41ZM108.063 94.09V95.15C107.729 94.95 107.313 94.85 106.813 94.85C106.606 94.85 106.443 94.8967 106.323 94.99C106.209 95.0767 106.153 95.19 106.153 95.33C106.153 95.3833 106.159 95.4333 106.173 95.48C106.193 95.5267 106.223 95.5733 106.263 95.62C106.309 95.66 106.353 95.6967 106.393 95.73C106.433 95.7633 106.489 95.8 106.563 95.84C106.636 95.8733 106.699 95.9033 106.753 95.93C106.806 95.9567 106.879 95.99 106.973 96.03C107.066 96.07 107.139 96.1033 107.193 96.13C107.546 96.3033 107.826 96.4967 108.033 96.71C108.239 96.9233 108.343 97.2 108.343 97.54C108.343 98.0133 108.173 98.3833 107.833 98.65C107.493 98.9167 107.039 99.05 106.473 99.05C105.846 99.05 105.339 98.9467 104.953 98.74V97.64C105.399 97.94 105.883 98.09 106.403 98.09C106.623 98.09 106.793 98.05 106.913 97.97C107.039 97.8833 107.103 97.7667 107.103 97.62C107.103 97.5333 107.083 97.4567 107.043 97.39C107.003 97.3167 106.926 97.2467 106.813 97.18C106.699 97.1133 106.609 97.0667 106.543 97.04C106.483 97.0067 106.359 96.95 106.173 96.87C106.153 96.8633 106.136 96.8567 106.123 96.85C106.116 96.8433 106.103 96.8367 106.083 96.83C106.063 96.8233 106.046 96.8167 106.033 96.81C105.293 96.4767 104.923 95.9967 104.923 95.37C104.923 94.9033 105.099 94.5367 105.453 94.27C105.806 94.0033 106.249 93.87 106.783 93.87C107.296 93.87 107.723 93.9433 108.063 94.09Z" fill="#2B2B2B"/>
<rect x="46" y="112" width="72" height="20" rx="10" fill="#008C1E"/>
<path d="M68.96 123.97H70.04C70.8467 123.97 71.25 123.663 71.25 123.05C71.25 122.423 70.83 122.11 69.99 122.11H68.96V123.97ZM68.96 119.29V121.1H69.72C70.1733 121.1 70.5133 121.01 70.74 120.83C70.9667 120.65 71.08 120.42 71.08 120.14C71.08 119.88 70.9833 119.673 70.79 119.52C70.6033 119.367 70.3167 119.29 69.93 119.29H68.96ZM67.7 118.26H70.09C70.81 118.26 71.37 118.43 71.77 118.77C72.17 119.11 72.37 119.55 72.37 120.09C72.37 120.457 72.27 120.777 72.07 121.05C71.87 121.317 71.6133 121.493 71.3 121.58C71.66 121.667 71.9567 121.843 72.19 122.11C72.4233 122.37 72.54 122.727 72.54 123.18C72.54 123.713 72.3533 124.15 71.98 124.49C71.6067 124.83 71.09 125 70.43 125H67.7V118.26ZM73.348 121.61C73.348 120.563 73.6346 119.723 74.208 119.09C74.788 118.457 75.5613 118.14 76.528 118.14C77.508 118.14 78.2846 118.457 78.858 119.09C79.4313 119.717 79.718 120.557 79.718 121.61C79.718 122.65 79.428 123.487 78.848 124.12C78.2746 124.753 77.5046 125.07 76.538 125.07C75.5713 125.07 74.798 124.753 74.218 124.12C73.638 123.487 73.348 122.65 73.348 121.61ZM74.698 121.61C74.698 122.317 74.8646 122.877 75.198 123.29C75.5313 123.703 75.978 123.91 76.538 123.91C77.1046 123.91 77.5513 123.707 77.878 123.3C78.2046 122.887 78.368 122.323 78.368 121.61C78.368 120.897 78.2046 120.333 77.878 119.92C77.5513 119.507 77.1013 119.3 76.528 119.3C75.9613 119.3 75.5146 119.507 75.188 119.92C74.8613 120.333 74.698 120.897 74.698 121.61ZM80.5745 121.61C80.5745 120.563 80.8612 119.723 81.4345 119.09C82.0145 118.457 82.7879 118.14 83.7545 118.14C84.7345 118.14 85.5112 118.457 86.0845 119.09C86.6579 119.717 86.9445 120.557 86.9445 121.61C86.9445 122.65 86.6545 123.487 86.0745 124.12C85.5012 124.753 84.7312 125.07 83.7645 125.07C82.7979 125.07 82.0245 124.753 81.4445 124.12C80.8645 123.487 80.5745 122.65 80.5745 121.61ZM81.9245 121.61C81.9245 122.317 82.0912 122.877 82.4245 123.29C82.7579 123.703 83.2045 123.91 83.7645 123.91C84.3312 123.91 84.7779 123.707 85.1045 123.3C85.4312 122.887 85.5945 122.323 85.5945 121.61C85.5945 120.897 85.4312 120.333 85.1045 119.92C84.7779 119.507 84.3279 119.3 83.7545 119.3C83.1879 119.3 82.7412 119.507 82.4145 119.92C82.0879 120.333 81.9245 120.897 81.9245 121.61ZM87.9511 125L88.4911 118.26H89.9311L90.8511 120.71C91.0111 121.123 91.1611 121.537 91.3011 121.95C91.4411 122.357 91.5411 122.66 91.6011 122.86L91.6911 123.17C91.8978 122.477 92.1844 121.657 92.5511 120.71L93.4911 118.26H94.9311L95.5911 125H94.3311L94.0911 122.37L93.9111 120.01C93.6711 120.697 93.3844 121.483 93.0511 122.37L92.1111 124.9H91.2511L90.3311 122.37L89.5411 120.04C89.5411 120.367 89.4978 121.143 89.4111 122.37L89.2111 125H87.9511Z" fill="white"/>
<path d="M60.5441 151.608H61.1921V157H60.5441V154.56H57.9281V157H57.2801V151.608H57.9281V153.976H60.5441V151.608ZM64.5727 155.128H63.8687C63.5274 155.128 63.2714 155.195 63.1007 155.328C62.93 155.461 62.8447 155.629 62.8447 155.832C62.8447 156.035 62.9114 156.2 63.0447 156.328C63.178 156.451 63.3727 156.512 63.6287 156.512C63.9167 156.512 64.146 156.432 64.3167 156.272C64.4874 156.107 64.5727 155.899 64.5727 155.648V155.128ZM62.4767 153.792V153.16C62.7807 152.973 63.1807 152.88 63.6767 152.88C64.6954 152.88 65.2047 153.397 65.2047 154.432V157H64.5807V156.52C64.3727 156.867 63.994 157.04 63.4447 157.04C63.066 157.04 62.7594 156.928 62.5247 156.704C62.2954 156.48 62.1807 156.197 62.1807 155.856C62.1807 155.467 62.3274 155.165 62.6207 154.952C62.9194 154.733 63.3247 154.624 63.8367 154.624H64.5727V154.416C64.5727 154.096 64.5007 153.856 64.3567 153.696C64.2127 153.531 63.97 153.448 63.6287 153.448C63.1967 153.448 62.8127 153.563 62.4767 153.792ZM66.9502 152.944V153.656C67.1635 153.155 67.5315 152.904 68.0542 152.904C68.1502 152.904 68.2249 152.909 68.2782 152.92V153.544C68.1662 153.507 68.0515 153.488 67.9342 153.488C67.6515 153.488 67.4169 153.619 67.2302 153.88C67.0435 154.141 66.9502 154.443 66.9502 154.784V157H66.3182L66.3262 152.944H66.9502ZM70.4556 156.336C70.7489 156.336 71.0076 156.224 71.2316 156C71.4609 155.771 71.5756 155.432 71.5756 154.984C71.5756 154.467 71.4662 154.083 71.2476 153.832C71.0289 153.581 70.7756 153.456 70.4876 153.456C70.1409 153.456 69.8662 153.595 69.6636 153.872C69.4609 154.144 69.3596 154.501 69.3596 154.944C69.3596 155.397 69.4716 155.744 69.6956 155.984C69.9196 156.219 70.1729 156.336 70.4556 156.336ZM71.5756 152.944H72.2076V156.672C72.2076 157.291 72.0369 157.755 71.6956 158.064C71.3542 158.379 70.9142 158.536 70.3756 158.536C69.8849 158.536 69.4662 158.453 69.1196 158.288V157.656C69.4609 157.853 69.8609 157.952 70.3196 157.952C70.7089 157.952 71.0156 157.848 71.2396 157.64C71.4636 157.432 71.5756 157.107 71.5756 156.664V156.208C71.3089 156.667 70.9116 156.896 70.3836 156.896C69.9196 156.896 69.5222 156.725 69.1916 156.384C68.8662 156.043 68.7036 155.568 68.7036 154.96C68.7036 154.357 68.8556 153.861 69.1596 153.472C69.4636 153.083 69.8609 152.888 70.3516 152.888C70.9062 152.888 71.3142 153.131 71.5756 153.616V152.944ZM75.5102 155.128H74.8062C74.4649 155.128 74.2089 155.195 74.0382 155.328C73.8675 155.461 73.7822 155.629 73.7822 155.832C73.7822 156.035 73.8489 156.2 73.9822 156.328C74.1155 156.451 74.3102 156.512 74.5662 156.512C74.8542 156.512 75.0835 156.432 75.2542 156.272C75.4249 156.107 75.5102 155.899 75.5102 155.648V155.128ZM73.4142 153.792V153.16C73.7182 152.973 74.1182 152.88 74.6142 152.88C75.6329 152.88 76.1422 153.397 76.1422 154.432V157H75.5182V156.52C75.3102 156.867 74.9315 157.04 74.3822 157.04C74.0035 157.04 73.6969 156.928 73.4622 156.704C73.2329 156.48 73.1182 156.197 73.1182 155.856C73.1182 155.467 73.2649 155.165 73.5582 154.952C73.8569 154.733 74.2622 154.624 74.7742 154.624H75.5102V154.416C75.5102 154.096 75.4382 153.856 75.2942 153.696C75.1502 153.531 74.9075 153.448 74.5662 153.448C74.1342 153.448 73.7502 153.563 73.4142 153.792ZM79.8968 156.448H81.1208C81.4621 156.448 81.7235 156.371 81.9048 156.216C82.0915 156.056 82.1848 155.824 82.1848 155.52C82.1848 155.216 82.0808 154.979 81.8728 154.808C81.6701 154.637 81.3795 154.552 81.0008 154.552H79.8968V156.448ZM79.8968 152.16V154H80.7608C81.1928 154 81.5128 153.909 81.7208 153.728C81.9288 153.547 82.0328 153.312 82.0328 153.024C82.0328 152.773 81.9341 152.568 81.7368 152.408C81.5448 152.243 81.2568 152.16 80.8728 152.16H79.8968ZM79.2488 151.608H80.8728C81.4275 151.608 81.8701 151.736 82.2008 151.992C82.5368 152.248 82.7048 152.592 82.7048 153.024C82.7048 153.333 82.6168 153.603 82.4408 153.832C82.2701 154.056 82.0488 154.197 81.7768 154.256C82.0755 154.304 82.3288 154.44 82.5368 154.664C82.7501 154.883 82.8568 155.181 82.8568 155.56C82.8568 155.992 82.7128 156.341 82.4248 156.608C82.1421 156.869 81.7395 157 81.2168 157H79.2488V151.608ZM86.3711 154.712V154.552C86.3711 154.216 86.2805 153.949 86.0991 153.752C85.9178 153.549 85.6671 153.448 85.3471 153.448C85.0431 153.448 84.7845 153.557 84.5711 153.776C84.3578 153.995 84.2325 154.307 84.1951 154.712H86.3711ZM86.7471 156.2V156.792C86.4325 156.957 86.0485 157.04 85.5951 157.04C84.9818 157.04 84.4858 156.853 84.1071 156.48C83.7338 156.101 83.5471 155.603 83.5471 154.984C83.5471 154.339 83.7151 153.829 84.0511 153.456C84.3871 153.083 84.8191 152.896 85.3471 152.896C85.8538 152.896 86.2565 153.059 86.5551 153.384C86.8538 153.709 87.0031 154.171 87.0031 154.768C87.0031 154.939 86.9898 155.096 86.9631 155.24H84.1951C84.2431 155.64 84.3951 155.947 84.6511 156.16C84.9071 156.373 85.2431 156.48 85.6591 156.48C86.1125 156.48 86.4751 156.387 86.7471 156.2ZM87.9988 157V151.344H88.6308V157H87.9988ZM89.866 157V152.944H90.498V157H89.866ZM89.882 151.968C89.8073 151.888 89.77 151.789 89.77 151.672C89.77 151.555 89.8073 151.456 89.882 151.376C89.962 151.296 90.0607 151.256 90.178 151.256C90.2953 151.256 90.394 151.296 90.474 151.376C90.554 151.456 90.594 151.555 90.594 151.672C90.594 151.789 90.554 151.888 90.474 151.968C90.394 152.043 90.2953 152.08 90.178 152.08C90.0607 152.08 89.962 152.043 89.882 151.968ZM91.0452 157.816L93.9572 151.344H94.6052L91.6852 157.816H91.0452ZM94.5838 156.824V156.2C94.7971 156.339 95.0211 156.408 95.2558 156.408C95.7198 156.408 95.9518 156.163 95.9518 155.672V151.608H96.5998V155.616C96.5998 156.539 96.1811 157 95.3438 157C95.0451 157 94.7918 156.941 94.5838 156.824ZM100.315 152.944H100.947V157H100.315V156.296C100.102 156.797 99.6776 157.048 99.0429 157.048C98.6429 157.048 98.3256 156.931 98.0909 156.696C97.8616 156.456 97.7469 156.136 97.7469 155.736V152.944H98.3789V155.576C98.3789 155.869 98.4536 156.093 98.6029 156.248C98.7523 156.403 98.9549 156.48 99.2109 156.48C99.5469 156.48 99.8136 156.363 100.011 156.128C100.214 155.893 100.315 155.576 100.315 155.176V152.944ZM104.299 155.128H103.595C103.254 155.128 102.998 155.195 102.827 155.328C102.657 155.461 102.571 155.629 102.571 155.832C102.571 156.035 102.638 156.2 102.771 156.328C102.905 156.451 103.099 156.512 103.355 156.512C103.643 156.512 103.873 156.432 104.043 156.272C104.214 156.107 104.299 155.899 104.299 155.648V155.128ZM102.203 153.792V153.16C102.507 152.973 102.907 152.88 103.403 152.88C104.422 152.88 104.931 153.397 104.931 154.432V157H104.307V156.52C104.099 156.867 103.721 157.04 103.171 157.04C102.793 157.04 102.486 156.928 102.251 156.704C102.022 156.48 101.907 156.197 101.907 155.856C101.907 155.467 102.054 155.165 102.347 154.952C102.646 154.733 103.051 154.624 103.563 154.624H104.299V154.416C104.299 154.096 104.227 153.856 104.083 153.696C103.939 153.531 103.697 153.448 103.355 153.448C102.923 153.448 102.539 153.563 102.203 153.792ZM106.085 157V151.344H106.717V157H106.085Z" fill="#2B2B2B"/>
<rect x="24.75" y="164.25" width="114.5" height="19.5" rx="7.75" stroke="#CCCCCC" stroke-width="0.5"/>
<path d="M43.0786 170.16V172.8H44.0866C44.5506 172.8 44.8986 172.684 45.1306 172.452C45.3626 172.212 45.4786 171.88 45.4786 171.456C45.4786 171.04 45.3546 170.72 45.1066 170.496C44.8666 170.272 44.5186 170.16 44.0626 170.16H43.0786ZM45.7426 177L43.9066 174.048H43.0786V177H41.5666V168.912H44.0626C44.9826 168.912 45.7026 169.144 46.2226 169.608C46.7506 170.072 47.0146 170.692 47.0146 171.468C47.0066 172.044 46.8666 172.532 46.5946 172.932C46.3226 173.324 45.9506 173.616 45.4786 173.808L47.5546 177H45.7426ZM51.525 175.848C51.957 175.848 52.309 175.684 52.581 175.356C52.853 175.02 52.989 174.552 52.989 173.952C52.989 173.352 52.853 172.888 52.581 172.56C52.309 172.224 51.965 172.056 51.549 172.056C51.133 172.056 50.773 172.212 50.469 172.524C50.165 172.836 50.013 173.3 50.013 173.916C50.013 174.532 50.161 175.008 50.457 175.344C50.753 175.68 51.109 175.848 51.525 175.848ZM50.013 170.916V171.852C50.445 171.172 51.065 170.832 51.873 170.832C52.665 170.832 53.293 171.116 53.757 171.684C54.229 172.252 54.465 173 54.465 173.928C54.465 174.84 54.229 175.596 53.757 176.196C53.293 176.788 52.661 177.084 51.861 177.084C51.045 177.084 50.429 176.752 50.013 176.088V179.292H48.573V170.916H50.013ZM58.3505 173.04C58.3505 171.8 58.5945 170.82 59.0825 170.1C59.5705 169.372 60.2625 169.008 61.1585 169.008C62.0625 169.008 62.7585 169.372 63.2465 170.1C63.7425 170.82 63.9905 171.8 63.9905 173.04C63.9905 174.272 63.7465 175.256 63.2585 175.992C62.7785 176.728 62.0785 177.096 61.1585 177.096C60.2625 177.096 59.5705 176.728 59.0825 175.992C58.5945 175.256 58.3505 174.272 58.3505 173.04ZM60.1865 171.024C59.9465 171.488 59.8265 172.16 59.8265 173.04C59.8265 173.92 59.9425 174.6 60.1745 175.08C60.4145 175.552 60.7425 175.788 61.1585 175.788C61.5905 175.788 61.9225 175.552 62.1545 175.08C62.3945 174.608 62.5145 173.928 62.5145 173.04C62.5145 172.152 62.3905 171.476 62.1425 171.012C61.9025 170.548 61.5745 170.316 61.1585 170.316C60.7505 170.316 60.4265 170.552 60.1865 171.024ZM64.9013 173.04C64.9013 171.8 65.1453 170.82 65.6333 170.1C66.1213 169.372 66.8133 169.008 67.7093 169.008C68.6133 169.008 69.3093 169.372 69.7973 170.1C70.2933 170.82 70.5413 171.8 70.5413 173.04C70.5413 174.272 70.2973 175.256 69.8093 175.992C69.3293 176.728 68.6293 177.096 67.7093 177.096C66.8133 177.096 66.1213 176.728 65.6333 175.992C65.1453 175.256 64.9013 174.272 64.9013 173.04ZM66.7373 171.024C66.4973 171.488 66.3773 172.16 66.3773 173.04C66.3773 173.92 66.4933 174.6 66.7253 175.08C66.9653 175.552 67.2933 175.788 67.7093 175.788C68.1413 175.788 68.4733 175.552 68.7053 175.08C68.9453 174.608 69.0653 173.928 69.0653 173.04C69.0653 172.152 68.9413 171.476 68.6933 171.012C68.4533 170.548 68.1253 170.316 67.7093 170.316C67.3013 170.316 66.9773 170.552 66.7373 171.024ZM71.4521 173.04C71.4521 171.8 71.6961 170.82 72.1841 170.1C72.6721 169.372 73.3641 169.008 74.2601 169.008C75.1641 169.008 75.8601 169.372 76.3481 170.1C76.8441 170.82 77.0921 171.8 77.0921 173.04C77.0921 174.272 76.8481 175.256 76.3601 175.992C75.8801 176.728 75.1801 177.096 74.2601 177.096C73.3641 177.096 72.6721 176.728 72.1841 175.992C71.6961 175.256 71.4521 174.272 71.4521 173.04ZM73.2881 171.024C73.0481 171.488 72.9281 172.16 72.9281 173.04C72.9281 173.92 73.0441 174.6 73.2761 175.08C73.5161 175.552 73.8441 175.788 74.2601 175.788C74.6921 175.788 75.0241 175.552 75.2561 175.08C75.4961 174.608 75.6161 173.928 75.6161 173.04C75.6161 172.152 75.4921 171.476 75.2441 171.012C75.0041 170.548 74.6761 170.316 74.2601 170.316C73.8521 170.316 73.5281 170.552 73.2881 171.024ZM77.4629 178.512L78.6389 175.548H80.3069L78.7109 178.512H77.4629ZM81.2138 173.04C81.2138 171.8 81.4578 170.82 81.9458 170.1C82.4338 169.372 83.1258 169.008 84.0218 169.008C84.9258 169.008 85.6218 169.372 86.1098 170.1C86.6058 170.82 86.8538 171.8 86.8538 173.04C86.8538 174.272 86.6098 175.256 86.1218 175.992C85.6418 176.728 84.9418 177.096 84.0218 177.096C83.1258 177.096 82.4338 176.728 81.9458 175.992C81.4578 175.256 81.2138 174.272 81.2138 173.04ZM83.0498 171.024C82.8098 171.488 82.6898 172.16 82.6898 173.04C82.6898 173.92 82.8058 174.6 83.0378 175.08C83.2778 175.552 83.6058 175.788 84.0218 175.788C84.4538 175.788 84.7858 175.552 85.0178 175.08C85.2578 174.608 85.3778 173.928 85.3778 173.04C85.3778 172.152 85.2538 171.476 85.0058 171.012C84.7658 170.548 84.4378 170.316 84.0218 170.316C83.6138 170.316 83.2898 170.552 83.0498 171.024ZM87.7646 173.04C87.7646 171.8 88.0086 170.82 88.4966 170.1C88.9846 169.372 89.6766 169.008 90.5726 169.008C91.4766 169.008 92.1726 169.372 92.6606 170.1C93.1566 170.82 93.4046 171.8 93.4046 173.04C93.4046 174.272 93.1606 175.256 92.6726 175.992C92.1926 176.728 91.4926 177.096 90.5726 177.096C89.6766 177.096 88.9846 176.728 88.4966 175.992C88.0086 175.256 87.7646 174.272 87.7646 173.04ZM89.6006 171.024C89.3606 171.488 89.2406 172.16 89.2406 173.04C89.2406 173.92 89.3566 174.6 89.5886 175.08C89.8286 175.552 90.1566 175.788 90.5726 175.788C91.0046 175.788 91.3366 175.552 91.5686 175.08C91.8086 174.608 91.9286 173.928 91.9286 173.04C91.9286 172.152 91.8046 171.476 91.5566 171.012C91.3166 170.548 90.9886 170.316 90.5726 170.316C90.1646 170.316 89.8406 170.552 89.6006 171.024ZM94.3154 173.04C94.3154 171.8 94.5594 170.82 95.0474 170.1C95.5354 169.372 96.2274 169.008 97.1234 169.008C98.0274 169.008 98.7234 169.372 99.2114 170.1C99.7074 170.82 99.9554 171.8 99.9554 173.04C99.9554 174.272 99.7114 175.256 99.2234 175.992C98.7434 176.728 98.0434 177.096 97.1234 177.096C96.2274 177.096 95.5354 176.728 95.0474 175.992C94.5594 175.256 94.3154 174.272 94.3154 173.04ZM96.1514 171.024C95.9114 171.488 95.7914 172.16 95.7914 173.04C95.7914 173.92 95.9074 174.6 96.1394 175.08C96.3794 175.552 96.7074 175.788 97.1234 175.788C97.5554 175.788 97.8874 175.552 98.1194 175.08C98.3594 174.608 98.4794 173.928 98.4794 173.04C98.4794 172.152 98.3554 171.476 98.1074 171.012C97.8674 170.548 97.5394 170.316 97.1234 170.316C96.7154 170.316 96.3914 170.552 96.1514 171.024ZM100.326 178.512L101.502 175.548H103.17L101.574 178.512H100.326ZM104.077 173.04C104.077 171.8 104.321 170.82 104.809 170.1C105.297 169.372 105.989 169.008 106.885 169.008C107.789 169.008 108.485 169.372 108.973 170.1C109.469 170.82 109.717 171.8 109.717 173.04C109.717 174.272 109.473 175.256 108.985 175.992C108.505 176.728 107.805 177.096 106.885 177.096C105.989 177.096 105.297 176.728 104.809 175.992C104.321 175.256 104.077 174.272 104.077 173.04ZM105.913 171.024C105.673 171.488 105.553 172.16 105.553 173.04C105.553 173.92 105.669 174.6 105.901 175.08C106.141 175.552 106.469 175.788 106.885 175.788C107.317 175.788 107.649 175.552 107.881 175.08C108.121 174.608 108.241 173.928 108.241 173.04C108.241 172.152 108.117 171.476 107.869 171.012C107.629 170.548 107.301 170.316 106.885 170.316C106.477 170.316 106.153 170.552 105.913 171.024ZM110.628 173.04C110.628 171.8 110.872 170.82 111.36 170.1C111.848 169.372 112.54 169.008 113.436 169.008C114.34 169.008 115.036 169.372 115.524 170.1C116.02 170.82 116.268 171.8 116.268 173.04C116.268 174.272 116.024 175.256 115.536 175.992C115.056 176.728 114.356 177.096 113.436 177.096C112.54 177.096 111.848 176.728 111.36 175.992C110.872 175.256 110.628 174.272 110.628 173.04ZM112.464 171.024C112.224 171.488 112.104 172.16 112.104 173.04C112.104 173.92 112.22 174.6 112.452 175.08C112.692 175.552 113.02 175.788 113.436 175.788C113.868 175.788 114.2 175.552 114.432 175.08C114.672 174.608 114.792 173.928 114.792 173.04C114.792 172.152 114.668 171.476 114.42 171.012C114.18 170.548 113.852 170.316 113.436 170.316C113.028 170.316 112.704 170.552 112.464 171.024ZM117.179 173.04C117.179 171.8 117.423 170.82 117.911 170.1C118.399 169.372 119.091 169.008 119.987 169.008C120.891 169.008 121.587 169.372 122.075 170.1C122.571 170.82 122.819 171.8 122.819 173.04C122.819 174.272 122.575 175.256 122.087 175.992C121.607 176.728 120.907 177.096 119.987 177.096C119.091 177.096 118.399 176.728 117.911 175.992C117.423 175.256 117.179 174.272 117.179 173.04ZM119.015 171.024C118.775 171.488 118.655 172.16 118.655 173.04C118.655 173.92 118.771 174.6 119.003 175.08C119.243 175.552 119.571 175.788 119.987 175.788C120.419 175.788 120.751 175.552 120.983 175.08C121.223 174.608 121.343 173.928 121.343 173.04C121.343 172.152 121.219 171.476 120.971 171.012C120.731 170.548 120.403 170.316 119.987 170.316C119.579 170.316 119.255 170.552 119.015 171.024Z" fill="#2B2B2B"/>
<path d="M38.1183 203.608H38.7663V209H38.1183V206.56H35.5023V209H34.8543V203.608H35.5023V205.976H38.1183V203.608ZM42.1469 207.128H41.4429C41.1016 207.128 40.8456 207.195 40.6749 207.328C40.5042 207.461 40.4189 207.629 40.4189 207.832C40.4189 208.035 40.4856 208.2 40.6189 208.328C40.7522 208.451 40.9469 208.512 41.2029 208.512C41.4909 208.512 41.7202 208.432 41.8909 208.272C42.0616 208.107 42.1469 207.899 42.1469 207.648V207.128ZM40.0509 205.792V205.16C40.3549 204.973 40.7549 204.88 41.2509 204.88C42.2696 204.88 42.7789 205.397 42.7789 206.432V209H42.1549V208.52C41.9469 208.867 41.5682 209.04 41.0189 209.04C40.6402 209.04 40.3336 208.928 40.0989 208.704C39.8696 208.48 39.7549 208.197 39.7549 207.856C39.7549 207.467 39.9016 207.165 40.1949 206.952C40.4936 206.733 40.8989 206.624 41.4109 206.624H42.1469V206.416C42.1469 206.096 42.0749 205.856 41.9309 205.696C41.7869 205.531 41.5442 205.448 41.2029 205.448C40.7709 205.448 40.3869 205.563 40.0509 205.792ZM44.5244 204.944V205.656C44.7377 205.155 45.1057 204.904 45.6284 204.904C45.7244 204.904 45.7991 204.909 45.8524 204.92V205.544C45.7404 205.507 45.6257 205.488 45.5084 205.488C45.2257 205.488 44.9911 205.619 44.8044 205.88C44.6177 206.141 44.5244 206.443 44.5244 206.784V209H43.8924L43.9004 204.944H44.5244ZM48.0298 208.336C48.3231 208.336 48.5818 208.224 48.8058 208C49.0351 207.771 49.1498 207.432 49.1498 206.984C49.1498 206.467 49.0404 206.083 48.8218 205.832C48.6031 205.581 48.3498 205.456 48.0618 205.456C47.7151 205.456 47.4404 205.595 47.2378 205.872C47.0351 206.144 46.9338 206.501 46.9338 206.944C46.9338 207.397 47.0458 207.744 47.2698 207.984C47.4938 208.219 47.7471 208.336 48.0298 208.336ZM49.1498 204.944H49.7818V208.672C49.7818 209.291 49.6111 209.755 49.2698 210.064C48.9284 210.379 48.4884 210.536 47.9498 210.536C47.4591 210.536 47.0404 210.453 46.6938 210.288V209.656C47.0351 209.853 47.4351 209.952 47.8938 209.952C48.2831 209.952 48.5898 209.848 48.8138 209.64C49.0378 209.432 49.1498 209.107 49.1498 208.664V208.208C48.8831 208.667 48.4858 208.896 47.9578 208.896C47.4938 208.896 47.0964 208.725 46.7658 208.384C46.4404 208.043 46.2778 207.568 46.2778 206.96C46.2778 206.357 46.4298 205.861 46.7338 205.472C47.0378 205.083 47.4351 204.888 47.9258 204.888C48.4804 204.888 48.8884 205.131 49.1498 205.616V204.944ZM53.0844 207.128H52.3804C52.0391 207.128 51.7831 207.195 51.6124 207.328C51.4417 207.461 51.3564 207.629 51.3564 207.832C51.3564 208.035 51.4231 208.2 51.5564 208.328C51.6897 208.451 51.8844 208.512 52.1404 208.512C52.4284 208.512 52.6577 208.432 52.8284 208.272C52.9991 208.107 53.0844 207.899 53.0844 207.648V207.128ZM50.9884 205.792V205.16C51.2924 204.973 51.6924 204.88 52.1884 204.88C53.2071 204.88 53.7164 205.397 53.7164 206.432V209H53.0924V208.52C52.8844 208.867 52.5057 209.04 51.9564 209.04C51.5777 209.04 51.2711 208.928 51.0364 208.704C50.8071 208.48 50.6924 208.197 50.6924 207.856C50.6924 207.467 50.8391 207.165 51.1324 206.952C51.4311 206.733 51.8364 206.624 52.3484 206.624H53.0844V206.416C53.0844 206.096 53.0124 205.856 52.8684 205.696C52.7244 205.531 52.4817 205.448 52.1404 205.448C51.7084 205.448 51.3244 205.563 50.9884 205.792ZM55.839 210.44V209.88C56.0417 209.965 56.223 210.008 56.383 210.008C56.6817 210.008 56.831 209.813 56.831 209.424V204.944H57.455V209.44C57.455 209.792 57.3617 210.067 57.175 210.264C56.9937 210.461 56.7404 210.56 56.415 210.56C56.239 210.56 56.047 210.52 55.839 210.44ZM56.839 203.968C56.7644 203.888 56.727 203.789 56.727 203.672C56.727 203.555 56.7644 203.456 56.839 203.376C56.919 203.296 57.0177 203.256 57.135 203.256C57.2524 203.256 57.351 203.296 57.431 203.376C57.511 203.456 57.551 203.555 57.551 203.672C57.551 203.789 57.511 203.888 57.431 203.968C57.351 204.043 57.2524 204.08 57.135 204.08C57.0177 204.08 56.919 204.043 56.839 203.968ZM61.1313 204.944H61.7633V209H61.1313V208.296C60.918 208.797 60.494 209.048 59.8593 209.048C59.4593 209.048 59.142 208.931 58.9073 208.696C58.678 208.456 58.5633 208.136 58.5633 207.736V204.944H59.1953V207.576C59.1953 207.869 59.27 208.093 59.4193 208.248C59.5687 208.403 59.7713 208.48 60.0273 208.48C60.3633 208.48 60.63 208.363 60.8273 208.128C61.03 207.893 61.1313 207.576 61.1313 207.176V204.944ZM65.1157 207.128H64.4117C64.0703 207.128 63.8143 207.195 63.6437 207.328C63.473 207.461 63.3877 207.629 63.3877 207.832C63.3877 208.035 63.4543 208.2 63.5877 208.328C63.721 208.451 63.9157 208.512 64.1717 208.512C64.4597 208.512 64.689 208.432 64.8597 208.272C65.0303 208.107 65.1157 207.899 65.1157 207.648V207.128ZM63.0197 205.792V205.16C63.3237 204.973 63.7237 204.88 64.2197 204.88C65.2383 204.88 65.7477 205.397 65.7477 206.432V209H65.1237V208.52C64.9157 208.867 64.537 209.04 63.9877 209.04C63.609 209.04 63.3023 208.928 63.0677 208.704C62.8383 208.48 62.7237 208.197 62.7237 207.856C62.7237 207.467 62.8703 207.165 63.1637 206.952C63.4623 206.733 63.8677 206.624 64.3797 206.624H65.1157V206.416C65.1157 206.096 65.0437 205.856 64.8997 205.696C64.7557 205.531 64.513 205.448 64.1717 205.448C63.7397 205.448 63.3557 205.563 63.0197 205.792ZM66.9012 209V203.344H67.5332V209H66.9012ZM72.2335 208.488C72.5641 208.488 72.8441 208.365 73.0735 208.12C73.3081 207.875 73.4255 207.483 73.4255 206.944C73.4255 206.432 73.3055 206.056 73.0655 205.816C72.8255 205.576 72.5615 205.456 72.2735 205.456C71.9375 205.456 71.6575 205.592 71.4335 205.864C71.2148 206.131 71.1055 206.515 71.1055 207.016C71.1055 207.453 71.2121 207.808 71.4255 208.08C71.6388 208.352 71.9081 208.488 72.2335 208.488ZM73.4255 203.344H74.0575V209H73.4255V208.4C73.1375 208.843 72.7215 209.064 72.1775 209.064C71.6388 209.064 71.2148 208.864 70.9055 208.464C70.6015 208.064 70.4495 207.579 70.4495 207.008C70.4495 206.373 70.6121 205.861 70.9375 205.472C71.2628 205.077 71.6815 204.88 72.1935 204.88C72.7215 204.88 73.1321 205.107 73.4255 205.56V203.344ZM75.2605 209V204.944H75.8925V209H75.2605ZM75.2765 203.968C75.2019 203.888 75.1645 203.789 75.1645 203.672C75.1645 203.555 75.2019 203.456 75.2765 203.376C75.3565 203.296 75.4552 203.256 75.5725 203.256C75.6899 203.256 75.7885 203.296 75.8685 203.376C75.9485 203.456 75.9885 203.555 75.9885 203.672C75.9885 203.789 75.9485 203.888 75.8685 203.968C75.7885 204.043 75.6899 204.08 75.5725 204.08C75.4552 204.08 75.3565 204.043 75.2765 203.968ZM78.8797 208.488C79.2211 208.488 79.5011 208.355 79.7197 208.088C79.9384 207.816 80.0477 207.432 80.0477 206.936C80.0477 206.493 79.9411 206.136 79.7277 205.864C79.5144 205.592 79.2451 205.456 78.9197 205.456C78.5944 205.456 78.3117 205.576 78.0717 205.816C77.8371 206.051 77.7197 206.437 77.7197 206.976C77.7197 207.493 77.8397 207.875 78.0797 208.12C78.3197 208.365 78.5864 208.488 78.8797 208.488ZM77.7197 204.944V205.56C78.0024 205.107 78.4211 204.88 78.9757 204.88C79.5144 204.88 79.9357 205.077 80.2397 205.472C80.5491 205.861 80.7037 206.349 80.7037 206.936C80.7037 207.56 80.5411 208.072 80.2157 208.472C79.8957 208.867 79.4771 209.064 78.9597 209.064C78.4264 209.064 78.0131 208.837 77.7197 208.384V210.576H77.0957V204.944H77.7197ZM84.2188 206.712V206.552C84.2188 206.216 84.1281 205.949 83.9468 205.752C83.7654 205.549 83.5148 205.448 83.1948 205.448C82.8908 205.448 82.6321 205.557 82.4188 205.776C82.2054 205.995 82.0801 206.307 82.0428 206.712H84.2188ZM84.5948 208.2V208.792C84.2801 208.957 83.8961 209.04 83.4428 209.04C82.8294 209.04 82.3334 208.853 81.9548 208.48C81.5814 208.101 81.3948 207.603 81.3948 206.984C81.3948 206.339 81.5628 205.829 81.8988 205.456C82.2348 205.083 82.6668 204.896 83.1948 204.896C83.7014 204.896 84.1041 205.059 84.4028 205.384C84.7014 205.709 84.8508 206.171 84.8508 206.768C84.8508 206.939 84.8374 207.096 84.8108 207.24H82.0428C82.0908 207.64 82.2428 207.947 82.4988 208.16C82.7548 208.373 83.0908 208.48 83.5068 208.48C83.9601 208.48 84.3228 208.387 84.5948 208.2ZM86.4385 204.944V205.648C86.6785 205.141 87.1051 204.888 87.7185 204.888C88.1131 204.888 88.4278 205.008 88.6625 205.248C88.8971 205.488 89.0145 205.808 89.0145 206.208V209H88.3825V206.376C88.3825 206.077 88.3051 205.851 88.1505 205.696C88.0011 205.536 87.8038 205.456 87.5585 205.456C87.2545 205.456 86.9905 205.573 86.7665 205.808C86.5478 206.043 86.4385 206.368 86.4385 206.784V209H85.8145V204.944H86.4385ZM91.6548 208.336C91.9481 208.336 92.2068 208.224 92.4308 208C92.6601 207.771 92.7748 207.432 92.7748 206.984C92.7748 206.467 92.6654 206.083 92.4468 205.832C92.2281 205.581 91.9748 205.456 91.6868 205.456C91.3401 205.456 91.0654 205.595 90.8628 205.872C90.6601 206.144 90.5588 206.501 90.5588 206.944C90.5588 207.397 90.6708 207.744 90.8948 207.984C91.1188 208.219 91.3721 208.336 91.6548 208.336ZM92.7748 204.944H93.4068V208.672C93.4068 209.291 93.2361 209.755 92.8948 210.064C92.5534 210.379 92.1134 210.536 91.5748 210.536C91.0841 210.536 90.6654 210.453 90.3188 210.288V209.656C90.6601 209.853 91.0601 209.952 91.5188 209.952C91.9081 209.952 92.2148 209.848 92.4388 209.64C92.6628 209.432 92.7748 209.107 92.7748 208.664V208.208C92.5081 208.667 92.1108 208.896 91.5828 208.896C91.1188 208.896 90.7214 208.725 90.3908 208.384C90.0654 208.043 89.9028 207.568 89.9028 206.96C89.9028 206.357 90.0548 205.861 90.3588 205.472C90.6628 205.083 91.0601 204.888 91.5508 204.888C92.1054 204.888 92.5134 205.131 92.7748 205.616V204.944ZM96.7094 207.128H96.0054C95.6641 207.128 95.4081 207.195 95.2374 207.328C95.0667 207.461 94.9814 207.629 94.9814 207.832C94.9814 208.035 95.0481 208.2 95.1814 208.328C95.3147 208.451 95.5094 208.512 95.7654 208.512C96.0534 208.512 96.2827 208.432 96.4534 208.272C96.6241 208.107 96.7094 207.899 96.7094 207.648V207.128ZM94.6134 205.792V205.16C94.9174 204.973 95.3174 204.88 95.8134 204.88C96.8321 204.88 97.3414 205.397 97.3414 206.432V209H96.7174V208.52C96.5094 208.867 96.1307 209.04 95.5814 209.04C95.2027 209.04 94.8961 208.928 94.6614 208.704C94.4321 208.48 94.3174 208.197 94.3174 207.856C94.3174 207.467 94.4641 207.165 94.7574 206.952C95.0561 206.733 95.4614 206.624 95.9734 206.624H96.7094V206.416C96.7094 206.096 96.6374 205.856 96.4934 205.696C96.3494 205.531 96.1067 205.448 95.7654 205.448C95.3334 205.448 94.9494 205.563 94.6134 205.792ZM99.0869 204.944V205.656C99.3002 205.155 99.6682 204.904 100.191 204.904C100.287 204.904 100.362 204.909 100.415 204.92V205.544C100.303 205.507 100.188 205.488 100.071 205.488C99.7882 205.488 99.5536 205.619 99.3669 205.88C99.1802 206.141 99.0869 206.443 99.0869 206.784V209H98.4549L98.4629 204.944H99.0869ZM103.592 204.944H104.224V209H103.592V208.296C103.379 208.797 102.955 209.048 102.32 209.048C101.92 209.048 101.603 208.931 101.368 208.696C101.139 208.456 101.024 208.136 101.024 207.736V204.944H101.656V207.576C101.656 207.869 101.731 208.093 101.88 208.248C102.03 208.403 102.232 208.48 102.488 208.48C102.824 208.48 103.091 208.363 103.288 208.128C103.491 207.893 103.592 207.576 103.592 207.176V204.944ZM106.017 203.344V205.648C106.257 205.141 106.683 204.888 107.297 204.888C107.686 204.888 107.998 205.008 108.233 205.248C108.473 205.488 108.593 205.813 108.593 206.224V209H107.961V206.376C107.961 206.083 107.883 205.856 107.729 205.696C107.579 205.536 107.382 205.456 107.137 205.456C106.838 205.456 106.577 205.571 106.353 205.8C106.129 206.029 106.017 206.357 106.017 206.784V209H105.393V203.344H106.017ZM109.745 209V204.944H110.377V209H109.745ZM109.761 203.968C109.686 203.888 109.649 203.789 109.649 203.672C109.649 203.555 109.686 203.456 109.761 203.376C109.841 203.296 109.94 203.256 110.057 203.256C110.174 203.256 110.273 203.296 110.353 203.376C110.433 203.456 110.473 203.555 110.473 203.672C110.473 203.789 110.433 203.888 110.353 203.968C110.273 204.043 110.174 204.08 110.057 204.08C109.94 204.08 109.841 204.043 109.761 203.968ZM115.181 209.072C114.6 209.072 114.139 208.877 113.797 208.488C113.461 208.093 113.293 207.597 113.293 207C113.293 206.397 113.467 205.896 113.813 205.496C114.165 205.091 114.621 204.888 115.181 204.888C115.795 204.888 116.267 205.085 116.597 205.48C116.933 205.875 117.101 206.376 117.101 206.984C117.101 207.587 116.931 208.085 116.589 208.48C116.248 208.875 115.779 209.072 115.181 209.072ZM115.181 205.448C114.797 205.448 114.496 205.597 114.277 205.896C114.059 206.195 113.949 206.56 113.949 206.992C113.949 207.413 114.061 207.773 114.285 208.072C114.509 208.365 114.808 208.512 115.181 208.512C115.587 208.512 115.899 208.368 116.117 208.08C116.336 207.787 116.445 207.424 116.445 206.992C116.445 206.544 116.341 206.176 116.133 205.888C115.925 205.595 115.608 205.448 115.181 205.448ZM118.057 209V203.344H118.689V209H118.057ZM122.477 206.712V206.552C122.477 206.216 122.386 205.949 122.205 205.752C122.023 205.549 121.773 205.448 121.453 205.448C121.149 205.448 120.89 205.557 120.677 205.776C120.463 205.995 120.338 206.307 120.301 206.712H122.477ZM122.853 208.2V208.792C122.538 208.957 122.154 209.04 121.701 209.04C121.087 209.04 120.591 208.853 120.213 208.48C119.839 208.101 119.653 207.603 119.653 206.984C119.653 206.339 119.821 205.829 120.157 205.456C120.493 205.083 120.925 204.896 121.453 204.896C121.959 204.896 122.362 205.059 122.661 205.384C122.959 205.709 123.109 206.171 123.109 206.768C123.109 206.939 123.095 207.096 123.069 207.24H120.301C120.349 207.64 120.501 207.947 120.757 208.16C121.013 208.373 121.349 208.48 121.765 208.48C122.218 208.48 122.581 208.387 122.853 208.2ZM124.696 203.344V205.648C124.936 205.141 125.363 204.888 125.976 204.888C126.366 204.888 126.678 205.008 126.912 205.248C127.152 205.488 127.272 205.813 127.272 206.224V209H126.64V206.376C126.64 206.083 126.563 205.856 126.408 205.696C126.259 205.536 126.062 205.456 125.816 205.456C125.518 205.456 125.256 205.571 125.032 205.8C124.808 206.029 124.696 206.357 124.696 206.784V209H124.072V203.344H124.696ZM64.9639 219.08V219.68C64.7185 219.531 64.3825 219.456 63.9559 219.456C63.7425 219.456 63.5719 219.507 63.4439 219.608C63.3212 219.704 63.2599 219.829 63.2599 219.984C63.2599 220.08 63.2785 220.165 63.3159 220.24C63.3532 220.309 63.4252 220.379 63.5319 220.448C63.6439 220.517 63.7239 220.565 63.7719 220.592C63.8252 220.613 63.9372 220.661 64.1079 220.736C64.4492 220.875 64.7159 221.032 64.9079 221.208C65.0999 221.384 65.1959 221.621 65.1959 221.92C65.1959 222.267 65.0732 222.541 64.8279 222.744C64.5879 222.947 64.2572 223.048 63.8359 223.048C63.3452 223.048 62.9479 222.965 62.6439 222.8V222.184C63.0012 222.397 63.3852 222.504 63.7959 222.504C64.0412 222.504 64.2279 222.456 64.3559 222.36C64.4839 222.264 64.5479 222.133 64.5479 221.968C64.5479 221.776 64.4759 221.627 64.3319 221.52C64.1932 221.413 63.9585 221.293 63.6279 221.16C63.3239 221.043 63.0785 220.896 62.8919 220.72C62.7105 220.544 62.6199 220.307 62.6199 220.008C62.6199 219.672 62.7452 219.405 62.9959 219.208C63.2519 219.005 63.5692 218.904 63.9479 218.904C64.3692 218.904 64.7079 218.963 64.9639 219.08ZM66.0848 223V218.944H66.7168V223H66.0848ZM66.1008 217.968C66.0261 217.888 65.9888 217.789 65.9888 217.672C65.9888 217.555 66.0261 217.456 66.1008 217.376C66.1808 217.296 66.2794 217.256 66.3968 217.256C66.5141 217.256 66.6128 217.296 66.6928 217.376C66.7728 217.456 66.8128 217.555 66.8128 217.672C66.8128 217.789 66.7728 217.888 66.6928 217.968C66.6128 218.043 66.5141 218.08 66.3968 218.08C66.2794 218.08 66.1808 218.043 66.1008 217.968ZM67.9199 223V217.376H68.5439V223H67.9199ZM69.3679 220.872L71.0159 223H70.2559L68.6239 220.872L70.2159 218.944H70.9679L69.3679 220.872ZM71.7957 223V217.344H72.4277V223H71.7957ZM76.1509 218.944H76.7829V223H76.1509V222.296C75.9375 222.797 75.5135 223.048 74.8789 223.048C74.4789 223.048 74.1615 222.931 73.9269 222.696C73.6975 222.456 73.5829 222.136 73.5829 221.736V218.944H74.2149V221.576C74.2149 221.869 74.2895 222.093 74.4389 222.248C74.5882 222.403 74.7909 222.48 75.0469 222.48C75.3829 222.48 75.6495 222.363 75.8469 222.128C76.0495 221.893 76.1509 221.576 76.1509 221.176V218.944ZM80.1592 219.08V219.68C79.9139 219.531 79.5779 219.456 79.1512 219.456C78.9379 219.456 78.7672 219.507 78.6392 219.608C78.5165 219.704 78.4552 219.829 78.4552 219.984C78.4552 220.08 78.4739 220.165 78.5112 220.24C78.5485 220.309 78.6205 220.379 78.7272 220.448C78.8392 220.517 78.9192 220.565 78.9672 220.592C79.0205 220.613 79.1325 220.661 79.3032 220.736C79.6445 220.875 79.9112 221.032 80.1032 221.208C80.2952 221.384 80.3912 221.621 80.3912 221.92C80.3912 222.267 80.2685 222.541 80.0232 222.744C79.7832 222.947 79.4525 223.048 79.0312 223.048C78.5405 223.048 78.1432 222.965 77.8392 222.8V222.184C78.1965 222.397 78.5805 222.504 78.9912 222.504C79.2365 222.504 79.4232 222.456 79.5512 222.36C79.6792 222.264 79.7432 222.133 79.7432 221.968C79.7432 221.776 79.6712 221.627 79.5272 221.52C79.3885 221.413 79.1539 221.293 78.8232 221.16C78.5192 221.043 78.2739 220.896 78.0872 220.72C77.9059 220.544 77.8152 220.307 77.8152 220.008C77.8152 219.672 77.9405 219.405 78.1912 219.208C78.4472 219.005 78.7645 218.904 79.1432 218.904C79.5645 218.904 79.9032 218.963 80.1592 219.08ZM85.0492 222.488C85.3745 222.488 85.6439 222.352 85.8572 222.08C86.0705 221.808 86.1772 221.453 86.1772 221.016C86.1772 220.515 86.0652 220.131 85.8412 219.864C85.6225 219.592 85.3452 219.456 85.0092 219.456C84.7212 219.456 84.4572 219.576 84.2172 219.816C83.9772 220.056 83.8572 220.432 83.8572 220.944C83.8572 221.483 83.9719 221.875 84.2012 222.12C84.4359 222.365 84.7185 222.488 85.0492 222.488ZM83.8572 217.344V219.552C84.1505 219.104 84.5612 218.88 85.0892 218.88C85.6012 218.88 86.0199 219.077 86.3452 219.472C86.6705 219.861 86.8332 220.373 86.8332 221.008C86.8332 221.579 86.6785 222.064 86.3692 222.464C86.0652 222.864 85.6439 223.064 85.1052 223.064C84.5612 223.064 84.1452 222.843 83.8572 222.4V223H83.2252V217.344H83.8572ZM87.7957 223V218.944H88.4277V223H87.7957ZM87.8117 217.968C87.737 217.888 87.6997 217.789 87.6997 217.672C87.6997 217.555 87.737 217.456 87.8117 217.376C87.8917 217.296 87.9904 217.256 88.1077 217.256C88.225 217.256 88.3237 217.296 88.4037 217.376C88.4837 217.456 88.5237 217.555 88.5237 217.672C88.5237 217.789 88.4837 217.888 88.4037 217.968C88.3237 218.043 88.225 218.08 88.1077 218.08C87.9904 218.08 87.8917 218.043 87.8117 217.968ZM91.8389 219.08V219.68C91.5935 219.531 91.2575 219.456 90.8309 219.456C90.6175 219.456 90.4469 219.507 90.3189 219.608C90.1962 219.704 90.1349 219.829 90.1349 219.984C90.1349 220.08 90.1535 220.165 90.1909 220.24C90.2282 220.309 90.3002 220.379 90.4069 220.448C90.5189 220.517 90.5989 220.565 90.6469 220.592C90.7002 220.613 90.8122 220.661 90.9829 220.736C91.3242 220.875 91.5909 221.032 91.7829 221.208C91.9749 221.384 92.0709 221.621 92.0709 221.92C92.0709 222.267 91.9482 222.541 91.7029 222.744C91.4629 222.947 91.1322 223.048 90.7109 223.048C90.2202 223.048 89.8229 222.965 89.5189 222.8V222.184C89.8762 222.397 90.2602 222.504 90.6709 222.504C90.9162 222.504 91.1029 222.456 91.2309 222.36C91.3589 222.264 91.4229 222.133 91.4229 221.968C91.4229 221.776 91.3509 221.627 91.2069 221.52C91.0682 221.413 90.8335 221.293 90.5029 221.16C90.1989 221.043 89.9535 220.896 89.7669 220.72C89.5855 220.544 89.4949 220.307 89.4949 220.008C89.4949 219.672 89.6202 219.405 89.8709 219.208C90.1269 219.005 90.4442 218.904 90.8229 218.904C91.2442 218.904 91.5829 218.963 91.8389 219.08ZM93.5518 218.944V219.648C93.7918 219.141 94.2184 218.888 94.8318 218.888C95.2264 218.888 95.5411 219.008 95.7758 219.248C96.0104 219.488 96.1278 219.808 96.1278 220.208V223H95.4958V220.376C95.4958 220.077 95.4184 219.851 95.2638 219.696C95.1144 219.536 94.9171 219.456 94.6718 219.456C94.3678 219.456 94.1038 219.573 93.8798 219.808C93.6611 220.043 93.5518 220.368 93.5518 220.784V223H92.9278V218.944H93.5518ZM97.2801 223V218.944H97.9121V223H97.2801ZM97.2961 217.968C97.2214 217.888 97.1841 217.789 97.1841 217.672C97.1841 217.555 97.2214 217.456 97.2961 217.376C97.3761 217.296 97.4747 217.256 97.5921 217.256C97.7094 217.256 97.8081 217.296 97.8881 217.376C97.9681 217.456 98.0081 217.555 98.0081 217.672C98.0081 217.789 97.9681 217.888 97.8881 217.968C97.8081 218.043 97.7094 218.08 97.5921 218.08C97.4747 218.08 97.3761 218.043 97.2961 217.968ZM101.323 219.08V219.68C101.078 219.531 100.742 219.456 100.315 219.456C100.102 219.456 99.9313 219.507 99.8033 219.608C99.6806 219.704 99.6193 219.829 99.6193 219.984C99.6193 220.08 99.6379 220.165 99.6753 220.24C99.7126 220.309 99.7846 220.379 99.8913 220.448C100.003 220.517 100.083 220.565 100.131 220.592C100.185 220.613 100.297 220.661 100.467 220.736C100.809 220.875 101.075 221.032 101.267 221.208C101.459 221.384 101.555 221.621 101.555 221.92C101.555 222.267 101.433 222.541 101.187 222.744C100.947 222.947 100.617 223.048 100.195 223.048C99.7046 223.048 99.3073 222.965 99.0033 222.8V222.184C99.3606 222.397 99.7446 222.504 100.155 222.504C100.401 222.504 100.587 222.456 100.715 222.36C100.843 222.264 100.907 222.133 100.907 221.968C100.907 221.776 100.835 221.627 100.691 221.52C100.553 221.413 100.318 221.293 99.9873 221.16C99.6833 221.043 99.4379 220.896 99.2513 220.72C99.0699 220.544 98.9793 220.307 98.9793 220.008C98.9793 219.672 99.1046 219.405 99.3553 219.208C99.6113 219.005 99.9286 218.904 100.307 218.904C100.729 218.904 101.067 218.963 101.323 219.08Z" fill="#2B2B2B"/>
<g filter="url(#filter1_d_1124_4113)">
<path d="M156 80C156 75.5817 159.582 72 164 72H369C373.418 72 377 75.5817 377 80V252C377 256.418 373.418 260 369 260H164C159.582 260 156 256.418 156 252V80Z" fill="white" shape-rendering="crispEdges"/>
<mask id="path-23-inside-1_1124_4113" fill="white">
<path d="M172 96H361V182H172V96Z"/>
</mask>
<path d="M361 181H172V183H361V181Z" fill="#F1F1F1" mask="url(#path-23-inside-1_1124_4113)"/>
<rect x="211" y="96.5" width="111" height="33" rx="7.5" stroke="#FF1934"/>
<path d="M227.797 111.736C227.797 110.093 228.122 108.792 228.773 107.832C229.434 106.861 230.335 106.376 231.477 106.376C232.639 106.376 233.551 106.856 234.213 107.816C234.874 108.776 235.205 110.083 235.205 111.736C235.205 113.368 234.879 114.675 234.229 115.656C233.589 116.637 232.671 117.128 231.477 117.128C230.335 117.128 229.434 116.637 228.773 115.656C228.122 114.675 227.797 113.368 227.797 111.736ZM229.989 108.856C229.594 109.528 229.397 110.488 229.397 111.736C229.397 112.984 229.589 113.955 229.973 114.648C230.367 115.331 230.869 115.672 231.477 115.672C232.138 115.672 232.655 115.331 233.029 114.648C233.402 113.965 233.589 112.995 233.589 111.736C233.589 110.467 233.391 109.501 232.997 108.84C232.613 108.168 232.106 107.832 231.477 107.832C230.879 107.832 230.383 108.173 229.989 108.856Z" fill="#2B2B2B"/>
<path d="M245.16 108.212V109.232C244.672 108.912 244.088 108.752 243.408 108.752C242.92 108.752 242.532 108.868 242.244 109.1C241.956 109.324 241.812 109.62 241.812 109.988C241.812 110.18 241.848 110.352 241.92 110.504C242 110.656 242.136 110.8 242.328 110.936C242.52 111.064 242.684 111.164 242.82 111.236C242.956 111.3 243.168 111.396 243.456 111.524C243.728 111.644 243.936 111.74 244.08 111.812C244.224 111.876 244.408 111.984 244.632 112.136C244.864 112.28 245.036 112.424 245.148 112.568C245.268 112.704 245.372 112.888 245.46 113.12C245.556 113.344 245.604 113.588 245.604 113.852C245.604 114.564 245.36 115.116 244.872 115.508C244.384 115.892 243.756 116.084 242.988 116.084C242.14 116.084 241.42 115.912 240.828 115.568V114.524C241.412 114.964 242.124 115.184 242.964 115.184C243.468 115.184 243.864 115.072 244.152 114.848C244.44 114.624 244.584 114.3 244.584 113.876C244.584 113.7 244.548 113.544 244.476 113.408C244.412 113.264 244.3 113.136 244.14 113.024C243.988 112.904 243.84 112.808 243.696 112.736C243.56 112.656 243.372 112.56 243.132 112.448C243.084 112.424 243.012 112.392 242.916 112.352C242.572 112.2 242.308 112.076 242.124 111.98C241.948 111.884 241.736 111.744 241.488 111.56C241.248 111.368 241.072 111.148 240.96 110.9C240.848 110.652 240.792 110.364 240.792 110.036C240.792 109.348 241.036 108.812 241.524 108.428C242.02 108.036 242.64 107.84 243.384 107.84C244.08 107.84 244.672 107.964 245.16 108.212ZM250.445 113.192H249.389C248.877 113.192 248.493 113.292 248.237 113.492C247.981 113.692 247.853 113.944 247.853 114.248C247.853 114.552 247.953 114.8 248.153 114.992C248.353 115.176 248.645 115.268 249.029 115.268C249.461 115.268 249.805 115.148 250.061 114.908C250.317 114.66 250.445 114.348 250.445 113.972V113.192ZM247.301 111.188V110.24C247.757 109.96 248.357 109.82 249.101 109.82C250.629 109.82 251.393 110.596 251.393 112.148V116H250.457V115.28C250.145 115.8 249.577 116.06 248.753 116.06C248.185 116.06 247.725 115.892 247.373 115.556C247.029 115.22 246.857 114.796 246.857 114.284C246.857 113.7 247.077 113.248 247.517 112.928C247.965 112.6 248.573 112.436 249.341 112.436H250.445V112.124C250.445 111.644 250.337 111.284 250.121 111.044C249.905 110.796 249.541 110.672 249.029 110.672C248.381 110.672 247.805 110.844 247.301 111.188ZM254.011 107.516V110.972C254.371 110.212 255.011 109.832 255.931 109.832C256.515 109.832 256.983 110.012 257.335 110.372C257.695 110.732 257.875 111.22 257.875 111.836V116H256.927V112.064C256.927 111.624 256.811 111.284 256.579 111.044C256.355 110.804 256.059 110.684 255.691 110.684C255.243 110.684 254.851 110.856 254.515 111.2C254.179 111.544 254.011 112.036 254.011 112.676V116H253.075V107.516H254.011ZM262.832 113.192H261.776C261.264 113.192 260.88 113.292 260.624 113.492C260.368 113.692 260.24 113.944 260.24 114.248C260.24 114.552 260.34 114.8 260.54 114.992C260.74 115.176 261.032 115.268 261.416 115.268C261.848 115.268 262.192 115.148 262.448 114.908C262.704 114.66 262.832 114.348 262.832 113.972V113.192ZM259.688 111.188V110.24C260.144 109.96 260.744 109.82 261.488 109.82C263.016 109.82 263.78 110.596 263.78 112.148V116H262.844V115.28C262.532 115.8 261.964 116.06 261.14 116.06C260.572 116.06 260.112 115.892 259.76 115.556C259.416 115.22 259.244 114.796 259.244 114.284C259.244 113.7 259.464 113.248 259.904 112.928C260.352 112.6 260.96 112.436 261.728 112.436H262.832V112.124C262.832 111.644 262.724 111.284 262.508 111.044C262.292 110.796 261.928 110.672 261.416 110.672C260.768 110.672 260.192 110.844 259.688 111.188ZM266.398 109.916V110.9C266.734 110.188 267.306 109.832 268.114 109.832C269.05 109.832 269.642 110.228 269.89 111.02C270.066 110.636 270.31 110.344 270.622 110.144C270.942 109.936 271.298 109.832 271.69 109.832C272.322 109.832 272.798 110.012 273.118 110.372C273.438 110.732 273.598 111.216 273.598 111.824V116H272.65V112.064C272.65 111.144 272.262 110.684 271.486 110.684C271.102 110.684 270.758 110.86 270.454 111.212C270.15 111.556 269.998 112.044 269.998 112.676V116H269.05V112.064C269.05 111.144 268.662 110.684 267.886 110.684C267.502 110.684 267.158 110.86 266.854 111.212C266.55 111.556 266.398 112.044 266.398 112.676V116H265.462V109.916H266.398ZM283.156 107.912H284.128V116H283.156V112.34H279.232V116H278.26V107.912H279.232V111.464H283.156V107.912ZM288.395 116.108C287.523 116.108 286.831 115.816 286.319 115.232C285.815 114.64 285.563 113.896 285.563 113C285.563 112.096 285.823 111.344 286.343 110.744C286.871 110.136 287.555 109.832 288.395 109.832C289.315 109.832 290.023 110.128 290.519 110.72C291.023 111.312 291.275 112.064 291.275 112.976C291.275 113.88 291.019 114.628 290.507 115.22C289.995 115.812 289.291 116.108 288.395 116.108ZM288.395 110.672C287.819 110.672 287.367 110.896 287.039 111.344C286.711 111.792 286.547 112.34 286.547 112.988C286.547 113.62 286.715 114.16 287.051 114.608C287.387 115.048 287.835 115.268 288.395 115.268C289.003 115.268 289.471 115.052 289.799 114.62C290.127 114.18 290.291 113.636 290.291 112.988C290.291 112.316 290.135 111.764 289.823 111.332C289.511 110.892 289.035 110.672 288.395 110.672ZM293.969 110.684V114.248C293.969 114.896 294.273 115.22 294.881 115.22C295.193 115.22 295.469 115.128 295.709 114.944V115.844C295.445 115.988 295.149 116.06 294.821 116.06C293.621 116.06 293.021 115.448 293.021 114.224V110.684H292.049V109.916H293.021V108.404H293.969V109.916H295.649V110.684H293.969ZM300.967 112.568V112.328C300.967 111.824 300.831 111.424 300.559 111.128C300.287 110.824 299.911 110.672 299.431 110.672C298.975 110.672 298.587 110.836 298.267 111.164C297.947 111.492 297.759 111.96 297.703 112.568H300.967ZM301.531 114.8V115.688C301.059 115.936 300.483 116.06 299.803 116.06C298.883 116.06 298.139 115.78 297.571 115.22C297.011 114.652 296.731 113.904 296.731 112.976C296.731 112.008 296.983 111.244 297.487 110.684C297.991 110.124 298.639 109.844 299.431 109.844C300.191 109.844 300.795 110.088 301.243 110.576C301.691 111.064 301.915 111.756 301.915 112.652C301.915 112.908 301.895 113.144 301.855 113.36H297.703C297.775 113.96 298.003 114.42 298.387 114.74C298.771 115.06 299.275 115.22 299.899 115.22C300.579 115.22 301.123 115.08 301.531 114.8ZM303.408 116V107.516H304.356V116H303.408Z" fill="#2B2B2B"/>
<rect x="235.5" y="89" width="61" height="13" rx="6.5" fill="#FF1934"/>
<path d="M243.222 96.032H245.134L245.03 95.72L244.19 93.128C244.126 93.3573 243.838 94.224 243.326 95.728L243.222 96.032ZM245.79 98L245.318 96.584H243.038L242.558 98H241.862L243.742 92.608H244.638L246.486 98H245.79ZM247.978 93.944V94.648C248.218 94.1413 248.644 93.888 249.258 93.888C249.652 93.888 249.967 94.008 250.202 94.248C250.436 94.488 250.554 94.808 250.554 95.208V98H249.922V95.376C249.922 95.0773 249.844 94.8507 249.69 94.696C249.54 94.536 249.343 94.456 249.098 94.456C248.794 94.456 248.53 94.5733 248.306 94.808C248.087 95.0427 247.978 95.368 247.978 95.784V98H247.354V93.944H247.978ZM253.218 97.488C253.549 97.488 253.829 97.3653 254.058 97.12C254.293 96.8747 254.41 96.4827 254.41 95.944C254.41 95.432 254.29 95.056 254.05 94.816C253.81 94.576 253.546 94.456 253.258 94.456C252.922 94.456 252.642 94.592 252.418 94.864C252.199 95.1307 252.09 95.5147 252.09 96.016C252.09 96.4533 252.197 96.808 252.41 97.08C252.623 97.352 252.893 97.488 253.218 97.488ZM254.41 92.344H255.042V98H254.41V97.4C254.122 97.8427 253.706 98.064 253.162 98.064C252.623 98.064 252.199 97.864 251.89 97.464C251.586 97.064 251.434 96.5787 251.434 96.008C251.434 95.3733 251.597 94.8613 251.922 94.472C252.247 94.0773 252.666 93.88 253.178 93.88C253.706 93.88 254.117 94.1067 254.41 94.56V92.344ZM258.397 96.128H257.693C257.352 96.128 257.096 96.1947 256.925 96.328C256.754 96.4613 256.669 96.6293 256.669 96.832C256.669 97.0347 256.736 97.2 256.869 97.328C257.002 97.4507 257.197 97.512 257.453 97.512C257.741 97.512 257.97 97.432 258.141 97.272C258.312 97.1067 258.397 96.8987 258.397 96.648V96.128ZM256.301 94.792V94.16C256.605 93.9733 257.005 93.88 257.501 93.88C258.52 93.88 259.029 94.3973 259.029 95.432V98H258.405V97.52C258.197 97.8667 257.818 98.04 257.269 98.04C256.89 98.04 256.584 97.928 256.349 97.704C256.12 97.48 256.005 97.1973 256.005 96.856C256.005 96.4667 256.152 96.1653 256.445 95.952C256.744 95.7333 257.149 95.624 257.661 95.624H258.397V95.416C258.397 95.096 258.325 94.856 258.181 94.696C258.037 94.5307 257.794 94.448 257.453 94.448C257.021 94.448 256.637 94.5627 256.301 94.792ZM262.08 98L262.472 92.608H263.296L264.008 94.576L264.872 97.088C265.181 96.2133 265.485 95.376 265.784 94.576L266.528 92.608H267.352L267.824 98H267.176L266.992 95.872L266.8 93.48C266.517 94.2693 266.226 95.0667 265.928 95.872L265.176 97.88H264.56L263.848 95.872L263.032 93.528C263.032 93.736 262.981 94.5173 262.88 95.872L262.728 98H262.08ZM271.547 95.712V95.552C271.547 95.216 271.456 94.9493 271.275 94.752C271.094 94.5493 270.843 94.448 270.523 94.448C270.219 94.448 269.96 94.5573 269.747 94.776C269.534 94.9947 269.408 95.3067 269.371 95.712H271.547ZM271.923 97.2V97.792C271.608 97.9573 271.224 98.04 270.771 98.04C270.158 98.04 269.662 97.8533 269.283 97.48C268.91 97.1013 268.723 96.6027 268.723 95.984C268.723 95.3387 268.891 94.8293 269.227 94.456C269.563 94.0827 269.995 93.896 270.523 93.896C271.03 93.896 271.432 94.0587 271.731 94.384C272.03 94.7093 272.179 95.1707 272.179 95.768C272.179 95.9387 272.166 96.096 272.139 96.24H269.371C269.419 96.64 269.571 96.9467 269.827 97.16C270.083 97.3733 270.419 97.48 270.835 97.48C271.288 97.48 271.651 97.3867 271.923 97.2ZM273.767 93.944V94.6C273.991 94.1253 274.372 93.888 274.911 93.888C275.535 93.888 275.929 94.152 276.095 94.68C276.212 94.424 276.375 94.2293 276.583 94.096C276.796 93.9573 277.033 93.888 277.295 93.888C277.716 93.888 278.033 94.008 278.247 94.248C278.46 94.488 278.567 94.8107 278.567 95.216V98H277.935V95.376C277.935 94.7627 277.676 94.456 277.159 94.456C276.903 94.456 276.673 94.5733 276.471 94.808C276.268 95.0373 276.167 95.3627 276.167 95.784V98H275.535V95.376C275.535 94.7627 275.276 94.456 274.759 94.456C274.503 94.456 274.273 94.5733 274.071 94.808C273.868 95.0373 273.767 95.3627 273.767 95.784V98H273.143V93.944H273.767ZM279.721 98V93.944H280.353V98H279.721ZM279.737 92.968C279.663 92.888 279.625 92.7893 279.625 92.672C279.625 92.5547 279.663 92.456 279.737 92.376C279.817 92.296 279.916 92.256 280.033 92.256C280.151 92.256 280.249 92.296 280.329 92.376C280.409 92.456 280.449 92.5547 280.449 92.672C280.449 92.7893 280.409 92.888 280.329 92.968C280.249 93.0427 280.151 93.08 280.033 93.08C279.916 93.08 279.817 93.0427 279.737 92.968ZM281.589 98V92.344H282.221V98H281.589ZM283.456 98V93.944H284.088V98H283.456ZM283.472 92.968C283.397 92.888 283.36 92.7893 283.36 92.672C283.36 92.5547 283.397 92.456 283.472 92.376C283.552 92.296 283.651 92.256 283.768 92.256C283.885 92.256 283.984 92.296 284.064 92.376C284.144 92.456 284.184 92.5547 284.184 92.672C284.184 92.7893 284.144 92.888 284.064 92.968C283.984 93.0427 283.885 93.08 283.768 93.08C283.651 93.08 283.552 93.0427 283.472 92.968ZM285.291 98V92.376H285.915V98H285.291ZM286.739 95.872L288.387 98H287.627L285.995 95.872L287.587 93.944H288.339L286.739 95.872ZM289.167 98V93.944H289.799V98H289.167ZM289.183 92.968C289.108 92.888 289.071 92.7893 289.071 92.672C289.071 92.5547 289.108 92.456 289.183 92.376C289.263 92.296 289.361 92.256 289.479 92.256C289.596 92.256 289.695 92.296 289.775 92.376C289.855 92.456 289.895 92.5547 289.895 92.672C289.895 92.7893 289.855 92.888 289.775 92.968C289.695 93.0427 289.596 93.08 289.479 93.08C289.361 93.08 289.263 93.0427 289.183 92.968Z" fill="white"/>
<g clip-path="url(#clip2_1124_4113)">
<path d="M280.8 159.4L273.283 155.283V148.333C273.283 147.6 272.683 147 271.95 147H252.833C252.1 147 251.5 147.6 251.5 148.333V175.667C251.5 176.4 252.1 177 252.833 177C253.567 177 254.167 176.4 254.167 175.667V149.667H270.617V175.667C270.617 176.4 271.217 177 271.95 177C272.683 177 273.283 176.4 273.283 175.667V173.117H276.067C276.8 173.117 277.4 172.517 277.4 171.783C277.4 171.05 276.8 170.45 276.067 170.45H273.283V168.333H276.067C276.8 168.333 277.4 167.733 277.4 167C277.4 166.267 276.8 165.667 276.067 165.667H273.283V158.3L278.833 161.333V175.65C278.833 176.383 279.433 176.983 280.167 176.983C280.9 176.983 281.5 176.383 281.5 175.65V160.55C281.5 160.067 281.233 159.617 280.8 159.383V159.4Z" fill="#2B2B2B"/>
<path d="M268.232 151.333H256.566C255.832 151.333 255.232 151.933 255.232 152.667C255.232 153.4 255.832 154 256.566 154H268.232C268.966 154 269.566 153.4 269.566 152.667C269.566 151.933 268.966 151.333 268.232 151.333Z" fill="#2B2B2B"/>
<path d="M268.232 156.4H256.566C255.832 156.4 255.232 157 255.232 157.733C255.232 158.467 255.832 159.067 256.566 159.067H268.232C268.966 159.067 269.566 158.467 269.566 157.733C269.566 157 268.966 156.4 268.232 156.4Z" fill="#2B2B2B"/>
<path d="M268.232 160.9H256.566C255.832 160.9 255.232 161.5 255.232 162.233C255.232 162.967 255.832 163.567 256.566 163.567H268.232C268.966 163.567 269.566 162.967 269.566 162.233C269.566 161.5 268.966 160.9 268.232 160.9Z" fill="#2B2B2B"/>
<path d="M268.232 165.95H256.566C255.832 165.95 255.232 166.55 255.232 167.284C255.232 168.017 255.832 168.617 256.566 168.617H268.232C268.966 168.617 269.566 168.017 269.566 167.284C269.566 166.55 268.966 165.95 268.232 165.95Z" fill="#2B2B2B"/>
<path d="M268.232 170.45H256.566C255.832 170.45 255.232 171.05 255.232 171.784C255.232 172.517 255.832 173.117 256.566 173.117H268.232C268.966 173.117 269.566 172.517 269.566 171.784C269.566 171.05 268.966 170.45 268.232 170.45Z" fill="#2B2B2B"/>
</g>
<rect x="172" y="190" width="24" height="24" rx="8" fill="white"/>
<path fill-rule="evenodd" clip-rule="evenodd" d="M177.334 202C177.334 198.327 180.327 195.333 184.001 195.333C187.674 195.333 190.667 198.327 190.667 202C190.667 205.673 187.674 208.667 184.001 208.667C180.327 208.667 177.334 205.673 177.334 202ZM178.401 202C178.401 205.087 180.914 207.6 184.001 207.6C187.087 207.6 189.601 205.087 189.601 202C189.601 198.913 187.087 196.4 184.001 196.4C180.914 196.4 178.401 198.913 178.401 202ZM180.801 202C180.801 201.707 181.041 201.467 181.334 201.467L186.667 201.467C186.961 201.467 187.201 201.707 187.201 202C187.201 202.293 186.961 202.533 186.667 202.533L181.334 202.533C181.041 202.533 180.801 202.293 180.801 202Z" fill="#2B2B2B"/>
<path d="M205.685 201.71C205.685 200.683 205.889 199.87 206.295 199.27C206.709 198.663 207.272 198.36 207.985 198.36C208.712 198.36 209.282 198.66 209.695 199.26C210.109 199.86 210.315 200.677 210.315 201.71C210.315 202.73 210.112 203.547 209.705 204.16C209.305 204.773 208.732 205.08 207.985 205.08C207.272 205.08 206.709 204.773 206.295 204.16C205.889 203.547 205.685 202.73 205.685 201.71ZM207.055 199.91C206.809 200.33 206.685 200.93 206.685 201.71C206.685 202.49 206.805 203.097 207.045 203.53C207.292 203.957 207.605 204.17 207.985 204.17C208.399 204.17 208.722 203.957 208.955 203.53C209.189 203.103 209.305 202.497 209.305 201.71C209.305 200.917 209.182 200.313 208.935 199.9C208.695 199.48 208.379 199.27 207.985 199.27C207.612 199.27 207.302 199.483 207.055 199.91Z" fill="#2B2B2B"/>
<rect x="220" y="190" width="24" height="24" rx="8" fill="white"/>
<g clip-path="url(#clip3_1124_4113)">
<path fill-rule="evenodd" clip-rule="evenodd" d="M225.334 202C225.334 198.327 228.327 195.333 232.001 195.333C235.674 195.333 238.667 198.327 238.667 202C238.667 205.673 235.674 208.667 232.001 208.667C228.327 208.667 225.334 205.673 225.334 202ZM226.401 202C226.401 205.087 228.914 207.6 232.001 207.6C235.087 207.6 237.601 205.087 237.601 202C237.601 198.913 235.087 196.4 232.001 196.4C228.914 196.4 226.401 198.913 226.401 202ZM232.534 201.467L234.667 201.467C234.961 201.467 235.201 201.707 235.201 202C235.201 202.293 234.961 202.533 234.667 202.533L232.534 202.533L232.534 204.667C232.534 204.96 232.294 205.2 232.001 205.2C231.707 205.2 231.467 204.96 231.467 204.667L231.467 202.533L229.334 202.533C229.041 202.533 228.801 202.293 228.801 202C228.801 201.707 229.041 201.467 229.334 201.467L231.467 201.467L231.467 199.333C231.467 199.04 231.707 198.8 232.001 198.8C232.294 198.8 232.534 199.04 232.534 199.333L232.534 201.467Z" fill="#2B2B2B"/>
</g>
<path d="M257.117 198.26V199.12H255.347V205H254.317V199.12H252.557V198.26H257.117ZM260.147 205.09C259.4 205.09 258.814 204.847 258.387 204.36C257.96 203.873 257.747 203.257 257.747 202.51C257.747 201.75 257.967 201.12 258.407 200.62C258.847 200.113 259.427 199.86 260.147 199.86C260.92 199.86 261.517 200.107 261.937 200.6C262.357 201.087 262.567 201.71 262.567 202.47C262.567 203.23 262.35 203.857 261.917 204.35C261.49 204.843 260.9 205.09 260.147 205.09ZM260.137 200.69C259.704 200.69 259.367 200.863 259.127 201.21C258.887 201.55 258.767 201.973 258.767 202.48C258.767 202.98 258.89 203.403 259.137 203.75C259.384 204.09 259.72 204.26 260.147 204.26C260.6 204.26 260.944 204.093 261.177 203.76C261.417 203.427 261.537 203.003 261.537 202.49C261.537 201.963 261.424 201.533 261.197 201.2C260.97 200.86 260.617 200.69 260.137 200.69ZM264.941 200.69V203.48C264.941 203.967 265.175 204.21 265.641 204.21C265.915 204.21 266.145 204.137 266.331 203.99V204.87C266.111 204.99 265.841 205.05 265.521 205.05C264.475 205.05 263.951 204.52 263.951 203.46V200.69H263.161V199.93H263.951V198.69H264.941V199.93H266.271V200.69H264.941ZM270.082 202.74H269.322C268.948 202.74 268.665 202.813 268.472 202.96C268.285 203.107 268.192 203.293 268.192 203.52C268.192 203.753 268.265 203.937 268.412 204.07C268.558 204.203 268.772 204.27 269.052 204.27C269.372 204.27 269.622 204.183 269.802 204.01C269.988 203.83 270.082 203.597 270.082 203.31V202.74ZM267.532 201.14V200.19C267.925 199.963 268.445 199.85 269.092 199.85C270.418 199.85 271.082 200.493 271.082 201.78V205H270.112V204.4C269.852 204.827 269.395 205.04 268.742 205.04C268.262 205.04 267.875 204.903 267.582 204.63C267.295 204.35 267.152 203.997 267.152 203.57C267.152 203.083 267.335 202.707 267.702 202.44C268.068 202.167 268.582 202.03 269.242 202.03H270.082V201.74C270.082 201.393 269.998 201.133 269.832 200.96C269.665 200.78 269.388 200.69 269.002 200.69C268.462 200.69 267.972 200.84 267.532 201.14ZM272.442 205V197.93H273.432V205H272.442ZM274.743 201.09C274.743 200.903 274.806 200.747 274.933 200.62C275.066 200.487 275.226 200.42 275.413 200.42C275.6 200.42 275.756 200.487 275.883 200.62C276.016 200.747 276.083 200.903 276.083 201.09C276.083 201.277 276.016 201.437 275.883 201.57C275.756 201.697 275.6 201.76 275.413 201.76C275.22 201.76 275.06 201.697 274.933 201.57C274.806 201.443 274.743 201.283 274.743 201.09ZM274.933 204.82C274.806 204.687 274.743 204.527 274.743 204.34C274.743 204.153 274.806 203.997 274.933 203.87C275.066 203.737 275.226 203.67 275.413 203.67C275.6 203.67 275.756 203.737 275.883 203.87C276.016 203.997 276.083 204.153 276.083 204.34C276.083 204.527 276.016 204.687 275.883 204.82C275.756 204.947 275.6 205.01 275.413 205.01C275.22 205.01 275.06 204.947 274.933 204.82Z" fill="#2B2B2B"/>
<path d="M287.018 199.12V201.58H287.948C288.374 201.58 288.698 201.47 288.918 201.25C289.138 201.023 289.248 200.723 289.248 200.35C289.248 199.53 288.798 199.12 287.898 199.12H287.018ZM289.488 205L287.908 202.44H287.018V205H285.988V198.26H287.868C288.641 198.26 289.238 198.45 289.658 198.83C290.078 199.203 290.288 199.713 290.288 200.36C290.281 200.833 290.161 201.237 289.928 201.57C289.694 201.897 289.371 202.133 288.958 202.28L290.718 205H289.488ZM293.971 204.21C294.365 204.21 294.688 204.057 294.941 203.75C295.195 203.437 295.321 203 295.321 202.44C295.321 201.913 295.198 201.497 294.951 201.19C294.705 200.877 294.391 200.72 294.011 200.72C293.631 200.72 293.301 200.86 293.021 201.14C292.748 201.413 292.611 201.85 292.611 202.45C292.611 203.037 292.748 203.477 293.021 203.77C293.301 204.063 293.618 204.21 293.971 204.21ZM292.611 199.93V200.71C292.958 200.143 293.478 199.86 294.171 199.86C294.838 199.86 295.365 200.103 295.751 200.59C296.138 201.07 296.331 201.683 296.331 202.43C296.331 203.197 296.131 203.83 295.731 204.33C295.338 204.823 294.811 205.07 294.151 205.07C293.478 205.07 292.965 204.79 292.611 204.23V206.94H291.631V199.93H292.611Z" fill="#2B2B2B"/>
<path d="M305.41 201.71C305.41 200.683 305.613 199.87 306.02 199.27C306.433 198.663 306.997 198.36 307.71 198.36C308.437 198.36 309.007 198.66 309.42 199.26C309.833 199.86 310.04 200.677 310.04 201.71C310.04 202.73 309.837 203.547 309.43 204.16C309.03 204.773 308.457 205.08 307.71 205.08C306.997 205.08 306.433 204.773 306.02 204.16C305.613 203.547 305.41 202.73 305.41 201.71ZM306.78 199.91C306.533 200.33 306.41 200.93 306.41 201.71C306.41 202.49 306.53 203.097 306.77 203.53C307.017 203.957 307.33 204.17 307.71 204.17C308.123 204.17 308.447 203.957 308.68 203.53C308.913 203.103 309.03 202.497 309.03 201.71C309.03 200.917 308.907 200.313 308.66 199.9C308.42 199.48 308.103 199.27 307.71 199.27C307.337 199.27 307.027 199.483 306.78 199.91Z" fill="#2B2B2B"/>
<g filter="url(#filter2_d_1124_4113)">
<rect x="201.5" y="222" width="61" height="22" rx="8" fill="#FF1934" shape-rendering="crispEdges"/>
<path d="M227.006 234.176L227.87 234.176C228.515 234.176 228.838 233.931 228.838 233.44C228.838 232.939 228.502 232.688 227.83 232.688L227.006 232.688L227.006 234.176ZM227.006 230.432L227.006 231.88L227.614 231.88C227.976 231.88 228.248 231.808 228.43 231.664C228.611 231.52 228.702 231.336 228.702 231.112C228.702 230.904 228.624 230.739 228.47 230.616C228.32 230.493 228.091 230.432 227.782 230.432L227.006 230.432ZM225.998 229.608L227.91 229.608C228.486 229.608 228.934 229.744 229.254 230.016C229.574 230.288 229.734 230.64 229.734 231.072C229.734 231.365 229.654 231.621 229.494 231.84C229.334 232.053 229.128 232.195 228.878 232.264C229.166 232.333 229.403 232.475 229.59 232.688C229.776 232.896 229.87 233.181 229.87 233.544C229.87 233.971 229.72 234.32 229.422 234.592C229.123 234.864 228.71 235 228.182 235L225.998 235L225.998 229.608ZM233.132 232.64L233.132 232.52C233.121 232.259 233.049 232.051 232.916 231.896C232.788 231.736 232.599 231.656 232.348 231.656C232.119 231.656 231.919 231.741 231.748 231.912C231.583 232.077 231.476 232.32 231.428 232.64L233.132 232.64ZM233.788 233.944L233.788 234.776C233.505 234.952 233.097 235.04 232.564 235.04C231.919 235.04 231.409 234.848 231.036 234.464C230.663 234.08 230.476 233.584 230.476 232.976C230.476 232.331 230.652 231.824 231.004 231.456C231.356 231.088 231.796 230.904 232.324 230.904C232.852 230.904 233.271 231.064 233.58 231.384C233.889 231.704 234.044 232.171 234.044 232.784C234.044 232.933 234.025 233.125 233.988 233.36L231.444 233.36C231.513 233.653 231.657 233.877 231.876 234.032C232.1 234.187 232.377 234.264 232.708 234.264C233.135 234.264 233.495 234.157 233.788 233.944ZM234.966 235L234.966 229.344L235.926 229.344L235.926 235L234.966 235ZM237.044 235L237.044 230.944L238.004 230.944L238.004 235L237.044 235ZM236.948 229.728C236.948 229.568 237.004 229.432 237.116 229.32C237.228 229.208 237.364 229.152 237.524 229.152C237.684 229.152 237.82 229.208 237.932 229.32C238.044 229.432 238.1 229.568 238.1 229.728C238.1 229.893 238.044 230.032 237.932 230.144C237.82 230.256 237.684 230.312 237.524 230.312C237.364 230.312 237.228 230.256 237.116 230.144C237.004 230.032 236.948 229.893 236.948 229.728Z" fill="white"/>
</g>
<g filter="url(#filter3_d_1124_4113)">
<rect x="270.5" y="222" width="61" height="22" rx="8" fill="#FF1934" shape-rendering="crispEdges"/>
<path d="M294.396 234.84L294.396 233.928C294.599 234.056 294.812 234.12 295.036 234.12C295.447 234.12 295.652 233.901 295.652 233.464L295.652 229.616L296.66 229.616L296.66 233.464C296.66 233.971 296.532 234.355 296.276 234.616C296.02 234.877 295.668 235.008 295.22 235.008C294.884 235.008 294.61 234.952 294.396 234.84ZM300.22 230.944L301.188 230.944L301.188 235L300.22 235L300.22 234.336C300.006 234.805 299.59 235.04 298.972 235.04C298.561 235.04 298.241 234.923 298.012 234.688C297.782 234.453 297.668 234.12 297.668 233.688L297.668 230.944L298.628 230.944L298.628 233.464C298.628 233.72 298.689 233.915 298.812 234.048C298.94 234.181 299.113 234.248 299.332 234.248C299.609 234.248 299.825 234.155 299.98 233.968C300.14 233.781 300.22 233.499 300.22 233.12L300.22 230.944ZM304.303 233.256L303.807 233.256C303.556 233.256 303.364 233.309 303.231 233.416C303.098 233.517 303.031 233.648 303.031 233.808C303.031 234.149 303.228 234.32 303.623 234.32C303.836 234.32 304.002 234.259 304.119 234.136C304.242 234.008 304.303 233.843 304.303 233.64L304.303 233.256ZM302.335 232.04L302.335 231.152C302.639 230.965 303.076 230.872 303.647 230.872C304.746 230.872 305.295 231.384 305.295 232.408L305.295 235L304.343 235L304.343 234.512C304.156 234.859 303.804 235.032 303.287 235.032C302.903 235.032 302.596 234.92 302.367 234.696C302.143 234.472 302.031 234.189 302.031 233.848C302.031 233.464 302.175 233.163 302.463 232.944C302.751 232.725 303.167 232.616 303.711 232.616L304.303 232.616L304.303 232.368C304.303 232.144 304.244 231.973 304.127 231.856C304.01 231.739 303.81 231.68 303.527 231.68C303.095 231.68 302.698 231.8 302.335 232.04ZM306.326 235L306.326 229.344L307.286 229.344L307.286 235L306.326 235Z" fill="white"/>
</g>
</g>
<defs>
<filter id="filter0_d_1124_4113" x="-4" y="-2" width="401" height="56" filterUnits="userSpaceOnUse" color-interpolation-filters="sRGB">
<feFlood flood-opacity="0" result="BackgroundImageFix"/>
<feColorMatrix in="SourceAlpha" type="matrix" values="0 0 0 0 0 0 0 0 0 0 0 0 0 0 0 0 0 0 127 0" result="hardAlpha"/>
<feOffset dy="2"/>
<feGaussianBlur stdDeviation="2"/>
<feComposite in2="hardAlpha" operator="out"/>
<feColorMatrix type="matrix" values="0 0 0 0 0.168627 0 0 0 0 0.168627 0 0 0 0 0.168627 0 0 0 0.24 0"/>
<feBlend mode="normal" in2="BackgroundImageFix" result="effect1_dropShadow_1124_4113"/>
<feBlend mode="normal" in="SourceGraphic" in2="effect1_dropShadow_1124_4113" result="shape"/>
</filter>
<filter id="filter1_d_1124_4113" x="152" y="70" width="229" height="196" filterUnits="userSpaceOnUse" color-interpolation-filters="sRGB">
<feFlood flood-opacity="0" result="BackgroundImageFix"/>
<feColorMatrix in="SourceAlpha" type="matrix" values="0 0 0 0 0 0 0 0 0 0 0 0 0 0 0 0 0 0 127 0" result="hardAlpha"/>
<feOffset dy="2"/>
<feGaussianBlur stdDeviation="2"/>
<feComposite in2="hardAlpha" operator="out"/>
<feColorMatrix type="matrix" values="0 0 0 0 0.168627 0 0 0 0 0.168627 0 0 0 0 0.168627 0 0 0 0.24 0"/>
<feBlend mode="normal" in2="BackgroundImageFix" result="effect1_dropShadow_1124_4113"/>
<feBlend mode="normal" in="SourceGraphic" in2="effect1_dropShadow_1124_4113" result="shape"/>
</filter>
<filter id="filter2_d_1124_4113" x="195.5" y="216" width="77" height="38" filterUnits="userSpaceOnUse" color-interpolation-filters="sRGB">
<feFlood flood-opacity="0" result="BackgroundImageFix"/>
<feColorMatrix in="SourceAlpha" type="matrix" values="0 0 0 0 0 0 0 0 0 0 0 0 0 0 0 0 0 0 127 0" result="hardAlpha"/>
<feOffset dx="2" dy="2"/>
<feGaussianBlur stdDeviation="4"/>
<feComposite in2="hardAlpha" operator="out"/>
<feColorMatrix type="matrix" values="0 0 0 0 0 0 0 0 0 0 0 0 0 0 0 0 0 0 0.12 0"/>
<feBlend mode="normal" in2="BackgroundImageFix" result="effect1_dropShadow_1124_4113"/>
<feBlend mode="normal" in="SourceGraphic" in2="effect1_dropShadow_1124_4113" result="shape"/>
</filter>
<filter id="filter3_d_1124_4113" x="264.5" y="216" width="77" height="38" filterUnits="userSpaceOnUse" color-interpolation-filters="sRGB">
<feFlood flood-opacity="0" result="BackgroundImageFix"/>
<feColorMatrix in="SourceAlpha" type="matrix" values="0 0 0 0 0 0 0 0 0 0 0 0 0 0 0 0 0 0 127 0" result="hardAlpha"/>
<feOffset dx="2" dy="2"/>
<feGaussianBlur stdDeviation="4"/>
<feComposite in2="hardAlpha" operator="out"/>
<feColorMatrix type="matrix" values="0 0 0 0 0 0 0 0 0 0 0 0 0 0 0 0 0 0 0.12 0"/>
<feBlend mode="normal" in2="BackgroundImageFix" result="effect1_dropShadow_1124_4113"/>
<feBlend mode="normal" in="SourceGraphic" in2="effect1_dropShadow_1124_4113" result="shape"/>
</filter>
<clipPath id="clip0_1124_4113">
<rect width="24" height="24" fill="white" transform="translate(16 16)"/>
</clipPath>
<clipPath id="clip1_1124_4113">
<rect width="24" height="24" fill="white" transform="translate(367 2)"/>
</clipPath>
<clipPath id="clip2_1124_4113">
<rect width="40" height="40" fill="white" transform="translate(246.5 142)"/>
</clipPath>
<clipPath id="clip3_1124_4113">
<rect width="16" height="16" fill="white" transform="translate(224 194)"/>
</clipPath>
</defs>
</svg>
