<svg width="338" height="375" viewBox="0 0 338 375" fill="none" xmlns="http://www.w3.org/2000/svg">
<rect width="338" height="375" fill="#D3D3D3"/>
<rect x="9" y="50" width="320" height="265" rx="16" fill="white"/>
<g filter="url(#filter0_d_1124_4113)">
<path d="M9 66C9 57.1634 16.1634 50 25 50H313C321.837 50 329 57.1634 329 66V98H9V66Z" fill="#FF1934" shape-rendering="crispEdges"/>
<g clip-path="url(#clip0_1124_4113)">
<path fill-rule="evenodd" clip-rule="evenodd" d="M27 78C27 72.49 31.49 68 37 68C42.51 68 47 72.49 47 78C47 83.51 42.51 88 37 88C31.49 88 27 83.51 27 78ZM28.6 78C28.6 82.63 32.37 86.4 37 86.4C41.63 86.4 45.4 82.63 45.4 78C45.4 73.37 41.63 69.6 37 69.6C32.37 69.6 28.6 73.37 28.6 78ZM32.2 78C32.2 77.56 32.56 77.2 33 77.2H41C41.44 77.2 41.8 77.56 41.8 78C41.8 78.44 41.44 78.8 41 78.8H33C32.56 78.8 32.2 78.44 32.2 78Z" fill="white"/>
</g>
<path d="M60.066 77.24H60.78C61.9187 77.24 62.488 76.722 62.488 75.686C62.488 74.7527 61.9607 74.286 60.906 74.286H60.066V77.24ZM57.91 72.564H61.158C62.2033 72.564 63.048 72.858 63.692 73.446C64.3453 74.034 64.672 74.7807 64.672 75.686C64.672 76.722 64.3313 77.5247 63.65 78.094C62.978 78.6633 62.1473 78.948 61.158 78.948H60.066V82H57.91V72.564ZM69.2427 79.088H68.5847C68.2393 79.088 67.9733 79.1627 67.7867 79.312C67.6 79.4613 67.5067 79.6527 67.5067 79.886C67.5067 80.362 67.782 80.6 68.3327 80.6C68.622 80.6 68.846 80.5113 69.0047 80.334C69.1633 80.1567 69.2427 79.914 69.2427 79.606V79.088ZM65.9247 77.086V75.252C66.4847 74.9347 67.292 74.776 68.3467 74.776C69.3547 74.776 70.106 74.9953 70.6007 75.434C71.0953 75.8633 71.3427 76.5353 71.3427 77.45V82H69.3407V81.132C69.042 81.7387 68.454 82.042 67.5767 82.042C66.886 82.042 66.3447 81.846 65.9527 81.454C65.57 81.062 65.3787 80.572 65.3787 79.984C65.3787 79.3027 65.626 78.7753 66.1207 78.402C66.6247 78.0193 67.3667 77.828 68.3467 77.828H69.2427V77.338C69.2427 76.7407 68.846 76.442 68.0527 76.442C67.2873 76.442 66.578 76.6567 65.9247 77.086ZM71.5474 84.548V82.994C71.8554 83.134 72.1214 83.204 72.3454 83.204C72.8308 83.204 73.0734 82.8913 73.0734 82.266V74.902H75.1034V82.294C75.1034 83.0407 74.8934 83.638 74.4734 84.086C74.0534 84.5433 73.4468 84.772 72.6534 84.772C72.3268 84.772 71.9581 84.6973 71.5474 84.548ZM73.2414 73.684C73.0081 73.4507 72.8914 73.1707 72.8914 72.844C72.8914 72.5173 73.0081 72.2373 73.2414 72.004C73.4748 71.7707 73.7548 71.654 74.0814 71.654C74.4081 71.654 74.6881 71.7707 74.9214 72.004C75.1548 72.2373 75.2714 72.5173 75.2714 72.844C75.2714 73.1707 75.1548 73.4507 74.9214 73.684C74.6881 73.9173 74.4081 74.034 74.0814 74.034C73.7548 74.034 73.4748 73.9173 73.2414 73.684ZM80.3032 79.088H79.6452C79.2999 79.088 79.0339 79.1627 78.8472 79.312C78.6606 79.4613 78.5672 79.6527 78.5672 79.886C78.5672 80.362 78.8426 80.6 79.3932 80.6C79.6826 80.6 79.9066 80.5113 80.0652 80.334C80.2239 80.1567 80.3032 79.914 80.3032 79.606V79.088ZM76.9852 77.086V75.252C77.5452 74.9347 78.3526 74.776 79.4072 74.776C80.4152 74.776 81.1666 74.9953 81.6612 75.434C82.1559 75.8633 82.4032 76.5353 82.4032 77.45V82H80.4012V81.132C80.1026 81.7387 79.5146 82.042 78.6372 82.042C77.9466 82.042 77.4052 81.846 77.0132 81.454C76.6306 81.062 76.4392 80.572 76.4392 79.984C76.4392 79.3027 76.6866 78.7753 77.1812 78.402C77.6852 78.0193 78.4272 77.828 79.4072 77.828H80.3032V77.338C80.3032 76.7407 79.9066 76.442 79.1132 76.442C78.3479 76.442 77.6386 76.6567 76.9852 77.086ZM90.686 82H88.32L86.052 78.514V82H84.008V72.34H86.052V78.08L88.292 74.902H90.644L88.18 78.304L90.686 82ZM97.4039 77.24H98.1179C99.2566 77.24 99.8259 76.722 99.8259 75.686C99.8259 74.7527 99.2986 74.286 98.2439 74.286H97.4039V77.24ZM95.2479 72.564H98.4959C99.5412 72.564 100.386 72.858 101.03 73.446C101.683 74.034 102.01 74.7807 102.01 75.686C102.01 76.722 101.669 77.5247 100.988 78.094C100.316 78.6633 99.4852 78.948 98.4959 78.948H97.4039V82H95.2479V72.564ZM107.169 77.8V77.632C107.103 76.8013 106.739 76.386 106.077 76.386C105.75 76.386 105.461 76.5073 105.209 76.75C104.957 76.9833 104.789 77.3333 104.705 77.8H107.169ZM108.639 79.886V81.594C108.153 81.9113 107.411 82.07 106.413 82.07C105.246 82.07 104.336 81.734 103.683 81.062C103.039 80.3807 102.717 79.508 102.717 78.444C102.717 77.3147 103.029 76.4327 103.655 75.798C104.289 75.154 105.069 74.832 105.993 74.832C106.945 74.832 107.696 75.112 108.247 75.672C108.797 76.2227 109.073 77.0487 109.073 78.15C109.073 78.3647 109.035 78.7333 108.961 79.256H104.789C104.929 79.648 105.171 79.9513 105.517 80.166C105.862 80.3807 106.277 80.488 106.763 80.488C107.481 80.488 108.107 80.2873 108.639 79.886ZM112.575 74.902V76.106C112.753 75.714 113.023 75.406 113.387 75.182C113.761 74.9487 114.204 74.832 114.717 74.832C115.445 74.832 116.015 75.0513 116.425 75.49C116.836 75.9193 117.041 76.554 117.041 77.394V82H114.997V77.772C114.997 77.352 114.899 77.0347 114.703 76.82C114.507 76.596 114.232 76.484 113.877 76.484C113.504 76.484 113.191 76.6333 112.939 76.932C112.697 77.2213 112.575 77.66 112.575 78.248V82H110.531V74.902H112.575ZM121.803 80.138C122.241 80.138 122.582 79.9747 122.825 79.648C123.077 79.312 123.203 78.9107 123.203 78.444C123.203 77.1747 122.741 76.54 121.817 76.54C121.406 76.54 121.084 76.6987 120.851 77.016C120.617 77.3333 120.501 77.772 120.501 78.332C120.501 78.92 120.613 79.368 120.837 79.676C121.061 79.984 121.383 80.138 121.803 80.138ZM123.203 74.902H125.233V81.314C125.233 82.4527 124.892 83.3067 124.211 83.876C123.529 84.4547 122.675 84.744 121.649 84.744C120.65 84.744 119.777 84.5667 119.031 84.212V82.126C119.684 82.6487 120.487 82.91 121.439 82.91C122.055 82.91 122.503 82.7793 122.783 82.518C123.063 82.2567 123.203 81.846 123.203 81.286V80.81C122.792 81.4447 122.139 81.762 121.243 81.762C120.459 81.762 119.782 81.4727 119.213 80.894C118.653 80.3153 118.373 79.4567 118.373 78.318C118.373 77.31 118.643 76.4793 119.185 75.826C119.735 75.1633 120.454 74.832 121.341 74.832C122.181 74.832 122.801 75.168 123.203 75.84V74.902ZM128.886 72.102V76.106C129.25 75.2567 129.959 74.832 131.014 74.832C131.705 74.832 132.265 75.0513 132.694 75.49C133.133 75.9287 133.352 76.5913 133.352 77.478V82H131.308V77.8C131.308 77.3893 131.205 77.0673 131 76.834C130.795 76.6007 130.529 76.484 130.202 76.484C130.062 76.484 129.927 76.5073 129.796 76.554C129.675 76.5913 129.539 76.666 129.39 76.778C129.241 76.8807 129.119 77.0627 129.026 77.324C128.933 77.576 128.886 77.884 128.886 78.248V82H126.842V72.102H128.886ZM138.477 79.088H137.819C137.474 79.088 137.208 79.1627 137.021 79.312C136.834 79.4613 136.741 79.6527 136.741 79.886C136.741 80.362 137.016 80.6 137.567 80.6C137.856 80.6 138.08 80.5113 138.239 80.334C138.398 80.1567 138.477 79.914 138.477 79.606V79.088ZM135.159 77.086V75.252C135.719 74.9347 136.526 74.776 137.581 74.776C138.589 74.776 139.34 74.9953 139.835 75.434C140.33 75.8633 140.577 76.5353 140.577 77.45V82H138.575V81.132C138.276 81.7387 137.688 82.042 136.811 82.042C136.12 82.042 135.579 81.846 135.187 81.454C134.804 81.062 134.613 80.572 134.613 79.984C134.613 79.3027 134.86 78.7753 135.355 78.402C135.859 78.0193 136.601 77.828 137.581 77.828H138.477V77.338C138.477 76.7407 138.08 76.442 137.287 76.442C136.522 76.442 135.812 76.6567 135.159 77.086ZM146.662 75.112V76.862C146.167 76.5727 145.588 76.428 144.926 76.428C144.683 76.428 144.496 76.4793 144.366 76.582C144.235 76.6753 144.17 76.7967 144.17 76.946C144.17 77.03 144.193 77.1093 144.24 77.184C144.286 77.2587 144.361 77.3287 144.464 77.394C144.576 77.4593 144.678 77.52 144.772 77.576C144.874 77.6227 145.01 77.6833 145.178 77.758C145.355 77.8327 145.495 77.898 145.598 77.954C146.027 78.178 146.372 78.4393 146.634 78.738C146.895 79.0273 147.026 79.4007 147.026 79.858C147.026 80.558 146.774 81.0993 146.27 81.482C145.766 81.8647 145.098 82.056 144.268 82.056C143.409 82.056 142.69 81.9113 142.112 81.622V79.802C142.756 80.25 143.437 80.474 144.156 80.474C144.669 80.474 144.926 80.3107 144.926 79.984C144.926 79.9 144.902 79.8207 144.856 79.746C144.809 79.6713 144.73 79.6013 144.618 79.536C144.506 79.4707 144.403 79.4193 144.31 79.382C144.216 79.3353 144.081 79.2747 143.904 79.2C143.726 79.1253 143.591 79.0647 143.498 79.018C142.555 78.57 142.084 77.898 142.084 77.002C142.084 76.3113 142.345 75.7747 142.868 75.392C143.4 75.0093 144.058 74.818 144.842 74.818C145.57 74.818 146.176 74.916 146.662 75.112ZM148.349 82V74.902H150.393V82H148.349ZM148.531 73.684C148.298 73.4507 148.181 73.1707 148.181 72.844C148.181 72.5173 148.298 72.2373 148.531 72.004C148.765 71.7707 149.045 71.654 149.371 71.654C149.698 71.654 149.978 71.7707 150.211 72.004C150.445 72.2373 150.561 72.5173 150.561 72.844C150.561 73.1707 150.445 73.4507 150.211 73.684C149.978 73.9173 149.698 74.034 149.371 74.034C149.045 74.034 148.765 73.9173 148.531 73.684ZM152.219 82V72.102H154.263V82H152.219ZM159.532 79.088H158.874C158.528 79.088 158.262 79.1627 158.076 79.312C157.889 79.4613 157.796 79.6527 157.796 79.886C157.796 80.362 158.071 80.6 158.622 80.6C158.911 80.6 159.135 80.5113 159.294 80.334C159.452 80.1567 159.532 79.914 159.532 79.606V79.088ZM156.214 77.086V75.252C156.774 74.9347 157.581 74.776 158.636 74.776C159.644 74.776 160.395 74.9953 160.89 75.434C161.384 75.8633 161.632 76.5353 161.632 77.45V82H159.63V81.132C159.331 81.7387 158.743 82.042 157.866 82.042C157.175 82.042 156.634 81.846 156.242 81.454C155.859 81.062 155.668 80.572 155.668 79.984C155.668 79.3027 155.915 78.7753 156.41 78.402C156.914 78.0193 157.656 77.828 158.636 77.828H159.532V77.338C159.532 76.7407 159.135 76.442 158.342 76.442C157.576 76.442 156.867 76.6567 156.214 77.086ZM165.28 74.902V76.106C165.458 75.714 165.728 75.406 166.092 75.182C166.466 74.9487 166.909 74.832 167.422 74.832C168.15 74.832 168.72 75.0513 169.13 75.49C169.541 75.9193 169.746 76.554 169.746 77.394V82H167.702V77.772C167.702 77.352 167.604 77.0347 167.408 76.82C167.212 76.596 166.937 76.484 166.582 76.484C166.209 76.484 165.896 76.6333 165.644 76.932C165.402 77.2213 165.28 77.66 165.28 78.248V82H163.236V74.902H165.28Z" fill="white"/>
</g>
<g clip-path="url(#clip1_1124_4113)">
<path d="M100.023 122.73L96.4696 121.319L98.0574 117.259L58.2642 137.903L61.7253 139.368L59.9736 143.563L63.4635 145.055L61.7067 149.302L102.016 128.276L98.4325 126.84L100.023 122.73Z" fill="#8C0010"/>
<path d="M99.349 121.383L95.7618 120.099L97.2485 115.984L57.9839 138.03L61.4796 139.372L59.8328 143.627L63.3573 144.995L61.7068 149.302L101.478 126.857L97.8604 125.548L99.349 121.383Z" fill="#FF1934"/>
<path d="M64.2388 138.093L65.9661 137.122C66.5217 136.81 67.026 136.715 67.4791 136.836C67.9322 136.959 68.2426 137.263 68.4103 137.752C68.6023 138.31 68.5703 138.845 68.3149 139.356C68.0596 139.867 67.6679 140.272 67.1399 140.569L66.5569 140.897L67.12 142.557L65.9668 143.207L64.2388 138.093ZM66.2426 139.972L66.6234 139.757C67.2308 139.416 67.4381 138.964 67.2474 138.406C67.0759 137.902 66.7092 137.809 66.1479 138.125L65.7005 138.376L66.2426 139.972Z" fill="white"/>
<path d="M73.4479 138.991L72.7772 138.118L71.0159 139.111L71.0716 140.33L69.8678 141.009L69.7891 134.972L71.2303 134.162L74.6799 138.296L73.4479 138.99V138.991ZM70.9673 138.016L72.175 137.337L72.0598 137.185C71.7443 136.774 71.4806 136.42 71.2681 136.125C71.0563 135.831 70.9231 135.639 70.8687 135.55L70.7868 135.417C70.8425 135.715 70.8995 136.51 70.9564 137.806L70.9673 138.016Z" fill="white"/>
<path d="M77.7409 130.502L77.1483 134.663L77.812 136.532L76.6638 137.179L76.0052 135.315L73.1675 133.073L74.5025 132.323L75.0657 132.884C75.3582 133.175 75.604 133.425 75.8036 133.637C76.0033 133.849 76.132 133.985 76.1902 134.049L76.2696 134.149C76.2395 133.896 76.2657 133.233 76.3489 132.163L76.4148 131.248L77.7409 130.503V130.502Z" fill="white"/>
<path d="M83.4879 127.27L83.8252 128.19L82.6117 128.872L84.11 132.982L82.9573 133.631L81.4649 129.517L80.2431 130.205L79.9097 129.282L83.4879 127.27V127.27Z" fill="white"/>
<path d="M89.2781 130.069L88.5908 129.21L86.8416 130.195L86.9184 131.399L85.7229 132.073L85.5405 126.116L86.9722 125.312L90.5024 129.379L89.2788 130.069L89.2781 130.069ZM86.7738 129.116L87.9732 128.441L87.8548 128.291C87.5316 127.887 87.2608 127.539 87.0432 127.248C86.8256 126.959 86.6887 126.77 86.6324 126.682L86.5479 126.551C86.6087 126.844 86.6797 127.63 86.7591 128.908L86.7738 129.116V129.116Z" fill="white"/>
<path d="M91.4926 125.741L89.0728 124.131L90.3918 123.389L91.7652 124.376C91.7947 124.14 91.8376 123.804 91.8939 123.37C91.9502 122.937 91.9867 122.641 92.004 122.483L93.387 121.705L92.8174 125.004L95.3825 126.629L94.0283 127.393L92.5345 126.341C92.5032 126.605 92.4526 126.977 92.3822 127.457C92.3124 127.939 92.2689 128.251 92.251 128.394L90.8731 129.171L91.4932 125.741H91.4926Z" fill="white"/>
<path d="M101.876 156.224L98.2917 155.965L99.8827 155.224L96.3295 154.969L97.9173 154.236L58.124 157.96L61.5851 158.225L59.8335 158.981L63.3227 159.251L61.5666 160.017L101.876 156.224Z" fill="#CCCCCC"/>
</g>
<path d="M122.22 122.49H124.38L124.27 122.15C124.017 121.363 123.81 120.713 123.65 120.2C123.49 119.68 123.393 119.357 123.36 119.23L123.31 119.04C123.237 119.353 122.91 120.39 122.33 122.15L122.22 122.49ZM125.19 125L124.66 123.35H121.94L121.4 125H120.31L122.64 118.26H123.99L126.29 125H125.19ZM128.272 119.93V120.8C128.572 120.173 129.098 119.86 129.852 119.86C130.352 119.86 130.748 120.013 131.042 120.32C131.335 120.627 131.482 121.043 131.482 121.57V125H130.502V121.8C130.502 121.447 130.412 121.177 130.232 120.99C130.058 120.803 129.825 120.71 129.532 120.71C129.185 120.71 128.888 120.847 128.642 121.12C128.395 121.387 128.272 121.763 128.272 122.25V125H127.292V119.93H128.272ZM134.849 124.21C135.236 124.21 135.563 124.063 135.829 123.77C136.096 123.477 136.229 123.03 136.229 122.43C136.229 121.85 136.089 121.42 135.809 121.14C135.536 120.86 135.226 120.72 134.879 120.72C134.486 120.72 134.163 120.877 133.909 121.19C133.656 121.497 133.529 121.937 133.529 122.51C133.529 123.017 133.653 123.427 133.899 123.74C134.153 124.053 134.469 124.21 134.849 124.21ZM136.229 117.93H137.219V125H136.229V124.23C135.876 124.79 135.359 125.07 134.679 125.07C134.013 125.07 133.486 124.82 133.099 124.32C132.713 123.813 132.519 123.203 132.519 122.49C132.519 121.697 132.723 121.06 133.129 120.58C133.536 120.1 134.059 119.86 134.699 119.86C135.359 119.86 135.869 120.14 136.229 120.7V117.93ZM141.27 122.74H140.51C140.137 122.74 139.853 122.813 139.66 122.96C139.473 123.107 139.38 123.293 139.38 123.52C139.38 123.753 139.453 123.937 139.6 124.07C139.747 124.203 139.96 124.27 140.24 124.27C140.56 124.27 140.81 124.183 140.99 124.01C141.177 123.83 141.27 123.597 141.27 123.31V122.74ZM138.72 121.14V120.19C139.113 119.963 139.633 119.85 140.28 119.85C141.607 119.85 142.27 120.493 142.27 121.78V125H141.3V124.4C141.04 124.827 140.583 125.04 139.93 125.04C139.45 125.04 139.063 124.903 138.77 124.63C138.483 124.35 138.34 123.997 138.34 123.57C138.34 123.083 138.523 122.707 138.89 122.44C139.257 122.167 139.77 122.03 140.43 122.03H141.27V121.74C141.27 121.393 141.187 121.133 141.02 120.96C140.853 120.78 140.577 120.69 140.19 120.69C139.65 120.69 139.16 120.84 138.72 121.14ZM148.101 124.21C148.488 124.21 148.815 124.063 149.081 123.77C149.348 123.477 149.481 123.03 149.481 122.43C149.481 121.85 149.341 121.42 149.061 121.14C148.788 120.86 148.478 120.72 148.131 120.72C147.738 120.72 147.415 120.877 147.161 121.19C146.908 121.497 146.781 121.937 146.781 122.51C146.781 123.017 146.905 123.427 147.151 123.74C147.405 124.053 147.721 124.21 148.101 124.21ZM149.481 117.93H150.471V125H149.481V124.23C149.128 124.79 148.611 125.07 147.931 125.07C147.265 125.07 146.738 124.82 146.351 124.32C145.965 123.813 145.771 123.203 145.771 122.49C145.771 121.697 145.975 121.06 146.381 120.58C146.788 120.1 147.311 119.86 147.951 119.86C148.611 119.86 149.121 120.14 149.481 120.7V117.93ZM151.892 125V119.93H152.882V125H151.892ZM151.942 118.82C151.829 118.7 151.772 118.553 151.772 118.38C151.772 118.207 151.829 118.06 151.942 117.94C152.062 117.82 152.209 117.76 152.382 117.76C152.555 117.76 152.702 117.82 152.822 117.94C152.942 118.06 153.002 118.207 153.002 118.38C153.002 118.547 152.942 118.69 152.822 118.81C152.702 118.93 152.555 118.99 152.382 118.99C152.209 118.99 152.062 118.933 151.942 118.82ZM155.283 117.93V120.8C155.57 120.173 156.093 119.86 156.853 119.86C157.347 119.86 157.743 120.013 158.043 120.32C158.343 120.627 158.493 121.053 158.493 121.6V125H157.513V121.8C157.513 121.453 157.423 121.187 157.243 121C157.07 120.807 156.84 120.71 156.553 120.71C156.22 120.71 155.923 120.837 155.663 121.09C155.41 121.343 155.283 121.73 155.283 122.25V125H154.303V117.93H155.283ZM162.481 122.74H161.721C161.348 122.74 161.064 122.813 160.871 122.96C160.684 123.107 160.591 123.293 160.591 123.52C160.591 123.753 160.664 123.937 160.811 124.07C160.958 124.203 161.171 124.27 161.451 124.27C161.771 124.27 162.021 124.183 162.201 124.01C162.388 123.83 162.481 123.597 162.481 123.31V122.74ZM159.931 121.14V120.19C160.324 119.963 160.844 119.85 161.491 119.85C162.818 119.85 163.481 120.493 163.481 121.78V125H162.511V124.4C162.251 124.827 161.794 125.04 161.141 125.04C160.661 125.04 160.274 124.903 159.981 124.63C159.694 124.35 159.551 123.997 159.551 123.57C159.551 123.083 159.734 122.707 160.101 122.44C160.468 122.167 160.981 122.03 161.641 122.03H162.481V121.74C162.481 121.393 162.398 121.133 162.231 120.96C162.064 120.78 161.788 120.69 161.401 120.69C160.861 120.69 160.371 120.84 159.931 121.14ZM165.781 119.93V120.82C166.028 120.193 166.471 119.88 167.111 119.88C167.205 119.88 167.308 119.89 167.421 119.91V120.87C167.281 120.81 167.125 120.78 166.951 120.78C166.611 120.78 166.331 120.93 166.111 121.23C165.891 121.53 165.781 121.887 165.781 122.3V125H164.801V119.93H165.781ZM171.34 119.93H172.32V125H171.34V124.13C171.073 124.75 170.547 125.06 169.76 125.06C169.26 125.06 168.863 124.913 168.57 124.62C168.277 124.32 168.13 123.91 168.13 123.39V119.93H169.12V123.15C169.12 123.497 169.203 123.763 169.37 123.95C169.543 124.13 169.78 124.22 170.08 124.22C170.46 124.22 170.763 124.087 170.99 123.82C171.223 123.553 171.34 123.177 171.34 122.69V119.93ZM176.588 120.1V120.99C176.261 120.797 175.841 120.7 175.328 120.7C175.094 120.7 174.908 120.753 174.768 120.86C174.634 120.967 174.568 121.107 174.568 121.28C174.568 121.327 174.571 121.373 174.578 121.42C174.591 121.46 174.611 121.503 174.638 121.55C174.664 121.59 174.688 121.627 174.708 121.66C174.734 121.687 174.774 121.717 174.828 121.75C174.881 121.783 174.921 121.813 174.948 121.84C174.981 121.86 175.031 121.887 175.098 121.92C175.171 121.953 175.224 121.98 175.258 122C175.291 122.013 175.348 122.04 175.428 122.08C175.514 122.113 175.574 122.137 175.608 122.15C176.001 122.323 176.308 122.52 176.528 122.74C176.754 122.953 176.868 123.24 176.868 123.6C176.868 124.053 176.708 124.41 176.388 124.67C176.068 124.923 175.634 125.05 175.088 125.05C174.488 125.05 173.988 124.95 173.588 124.75V123.82C174.054 124.107 174.538 124.25 175.038 124.25C175.298 124.25 175.498 124.197 175.638 124.09C175.784 123.983 175.858 123.843 175.858 123.67C175.858 123.523 175.801 123.393 175.688 123.28C175.574 123.16 175.458 123.073 175.338 123.02C175.224 122.96 175.028 122.87 174.748 122.75C173.954 122.423 173.558 121.943 173.558 121.31C173.558 120.863 173.724 120.513 174.058 120.26C174.391 120.007 174.808 119.88 175.308 119.88C175.854 119.88 176.281 119.953 176.588 120.1ZM177.887 125V118H178.867V125H177.887ZM180.037 122.35L182.027 125H180.857L178.907 122.35L180.817 119.93H181.967L180.037 122.35ZM185.557 122.74H184.797C184.424 122.74 184.141 122.813 183.947 122.96C183.761 123.107 183.667 123.293 183.667 123.52C183.667 123.753 183.741 123.937 183.887 124.07C184.034 124.203 184.247 124.27 184.527 124.27C184.847 124.27 185.097 124.183 185.277 124.01C185.464 123.83 185.557 123.597 185.557 123.31V122.74ZM183.007 121.14V120.19C183.401 119.963 183.921 119.85 184.567 119.85C185.894 119.85 186.557 120.493 186.557 121.78V125H185.587V124.4C185.327 124.827 184.871 125.04 184.217 125.04C183.737 125.04 183.351 124.903 183.057 124.63C182.771 124.35 182.627 123.997 182.627 123.57C182.627 123.083 182.811 122.707 183.177 122.44C183.544 122.167 184.057 122.03 184.717 122.03H185.557V121.74C185.557 121.393 185.474 121.133 185.307 120.96C185.141 120.78 184.864 120.69 184.477 120.69C183.937 120.69 183.447 120.84 183.007 121.14ZM188.858 119.93V120.8C189.158 120.173 189.684 119.86 190.438 119.86C190.938 119.86 191.334 120.013 191.628 120.32C191.921 120.627 192.068 121.043 192.068 121.57V125H191.088V121.8C191.088 121.447 190.998 121.177 190.818 120.99C190.644 120.803 190.411 120.71 190.118 120.71C189.771 120.71 189.474 120.847 189.228 121.12C188.981 121.387 188.858 121.763 188.858 122.25V125H187.878V119.93H188.858ZM198.996 119.93H199.976V125H198.996V124.13C198.73 124.75 198.203 125.06 197.416 125.06C196.916 125.06 196.52 124.913 196.226 124.62C195.933 124.32 195.786 123.91 195.786 123.39V119.93H196.776V123.15C196.776 123.497 196.86 123.763 197.026 123.95C197.2 124.13 197.436 124.22 197.736 124.22C198.116 124.22 198.42 124.087 198.646 123.82C198.88 123.553 198.996 123.177 198.996 122.69V119.93ZM202.334 119.93V120.8C202.634 120.173 203.161 119.86 203.914 119.86C204.414 119.86 204.811 120.013 205.104 120.32C205.397 120.627 205.544 121.043 205.544 121.57V125H204.564V121.8C204.564 121.447 204.474 121.177 204.294 120.99C204.121 120.803 203.887 120.71 203.594 120.71C203.247 120.71 202.951 120.847 202.704 121.12C202.457 121.387 202.334 121.763 202.334 122.25V125H201.354V119.93H202.334ZM208.132 120.69V123.48C208.132 123.967 208.365 124.21 208.832 124.21C209.105 124.21 209.335 124.137 209.522 123.99V124.87C209.302 124.99 209.032 125.05 208.712 125.05C207.665 125.05 207.142 124.52 207.142 123.46V120.69H206.352V119.93H207.142V118.69H208.132V119.93H209.462V120.69H208.132ZM213.752 119.93H214.732V125H213.752V124.13C213.485 124.75 212.959 125.06 212.172 125.06C211.672 125.06 211.275 124.913 210.982 124.62C210.689 124.32 210.542 123.91 210.542 123.39V119.93H211.532V123.15C211.532 123.497 211.615 123.763 211.782 123.95C211.955 124.13 212.192 124.22 212.492 124.22C212.872 124.22 213.175 124.087 213.402 123.82C213.635 123.553 213.752 123.177 213.752 122.69V119.93ZM216.11 125V118H217.09V125H216.11ZM218.26 122.35L220.25 125H219.08L217.13 122.35L219.04 119.93H220.19L218.26 122.35ZM224.551 119.93V120.74C224.838 120.153 225.314 119.86 225.981 119.86C226.741 119.86 227.228 120.187 227.441 120.84C227.581 120.527 227.784 120.287 228.051 120.12C228.318 119.947 228.618 119.86 228.951 119.86C229.471 119.86 229.864 120.013 230.131 120.32C230.404 120.627 230.541 121.05 230.541 121.59V125H229.561V121.8C229.561 121.073 229.268 120.71 228.681 120.71C228.388 120.71 228.124 120.84 227.891 121.1C227.664 121.36 227.551 121.743 227.551 122.25V125H226.571V121.8C226.571 121.073 226.274 120.71 225.681 120.71C225.394 120.71 225.134 120.84 224.901 121.1C224.668 121.36 224.551 121.743 224.551 122.25V125H223.571V119.93H224.551ZM235.022 122.1V121.92C235.008 121.54 234.905 121.24 234.712 121.02C234.518 120.793 234.242 120.68 233.882 120.68C233.548 120.68 233.262 120.803 233.022 121.05C232.782 121.29 232.632 121.64 232.572 122.1H235.022ZM235.652 123.85V124.73C235.278 124.943 234.785 125.05 234.172 125.05C233.385 125.05 232.758 124.813 232.292 124.34C231.825 123.867 231.592 123.247 231.592 122.48C231.592 121.667 231.805 121.03 232.232 120.57C232.658 120.103 233.202 119.87 233.862 119.87C234.508 119.87 235.022 120.073 235.402 120.48C235.782 120.88 235.972 121.46 235.972 122.22C235.972 122.427 235.952 122.643 235.912 122.87H232.582C232.648 123.31 232.835 123.647 233.142 123.88C233.448 124.113 233.835 124.23 234.302 124.23C234.842 124.23 235.292 124.103 235.652 123.85ZM238.106 119.93V120.74C238.392 120.153 238.869 119.86 239.536 119.86C240.296 119.86 240.782 120.187 240.996 120.84C241.136 120.527 241.339 120.287 241.606 120.12C241.872 119.947 242.172 119.86 242.506 119.86C243.026 119.86 243.419 120.013 243.686 120.32C243.959 120.627 244.096 121.05 244.096 121.59V125H243.116V121.8C243.116 121.073 242.822 120.71 242.236 120.71C241.942 120.71 241.679 120.84 241.446 121.1C241.219 121.36 241.106 121.743 241.106 122.25V125H240.126V121.8C240.126 121.073 239.829 120.71 239.236 120.71C238.949 120.71 238.689 120.84 238.456 121.1C238.222 121.36 238.106 121.743 238.106 122.25V125H237.126V119.93H238.106ZM247.816 124.21C248.19 124.21 248.503 124.053 248.756 123.74C249.01 123.42 249.136 123.01 249.136 122.51C249.136 121.937 249.01 121.497 248.756 121.19C248.503 120.877 248.18 120.72 247.786 120.72C247.44 120.72 247.126 120.86 246.846 121.14C246.573 121.42 246.436 121.85 246.436 122.43C246.436 123.03 246.57 123.477 246.836 123.77C247.103 124.063 247.43 124.21 247.816 124.21ZM246.436 117.93V120.7C246.796 120.14 247.306 119.86 247.966 119.86C248.606 119.86 249.13 120.1 249.536 120.58C249.943 121.06 250.146 121.697 250.146 122.49C250.146 123.203 249.953 123.813 249.566 124.32C249.18 124.82 248.65 125.07 247.976 125.07C247.303 125.07 246.79 124.79 246.436 124.23V125H245.446V117.93H246.436ZM253.917 122.74H253.157C252.783 122.74 252.5 122.813 252.307 122.96C252.12 123.107 252.027 123.293 252.027 123.52C252.027 123.753 252.1 123.937 252.247 124.07C252.393 124.203 252.607 124.27 252.887 124.27C253.207 124.27 253.457 124.183 253.637 124.01C253.823 123.83 253.917 123.597 253.917 123.31V122.74ZM251.367 121.14V120.19C251.76 119.963 252.28 119.85 252.927 119.85C254.253 119.85 254.917 120.493 254.917 121.78V125H253.947V124.4C253.687 124.827 253.23 125.04 252.577 125.04C252.097 125.04 251.71 124.903 251.417 124.63C251.13 124.35 250.987 123.997 250.987 123.57C250.987 123.083 251.17 122.707 251.537 122.44C251.903 122.167 252.417 122.03 253.077 122.03H253.917V121.74C253.917 121.393 253.833 121.133 253.667 120.96C253.5 120.78 253.223 120.69 252.837 120.69C252.297 120.69 251.807 120.84 251.367 121.14ZM257.637 124.89L255.617 119.93H256.707L257.337 121.58L258.127 123.72C258.187 123.52 258.427 122.807 258.847 121.58L259.417 119.93H260.457L258.627 124.86C258.14 126.16 257.397 126.81 256.397 126.81C256.217 126.81 256.064 126.793 255.937 126.76V125.92C256.044 125.947 256.157 125.96 256.277 125.96C256.924 125.96 257.377 125.603 257.637 124.89ZM263.946 122.74H263.186C262.813 122.74 262.529 122.813 262.336 122.96C262.149 123.107 262.056 123.293 262.056 123.52C262.056 123.753 262.129 123.937 262.276 124.07C262.423 124.203 262.636 124.27 262.916 124.27C263.236 124.27 263.486 124.183 263.666 124.01C263.853 123.83 263.946 123.597 263.946 123.31V122.74ZM261.396 121.14V120.19C261.789 119.963 262.309 119.85 262.956 119.85C264.283 119.85 264.946 120.493 264.946 121.78V125H263.976V124.4C263.716 124.827 263.259 125.04 262.606 125.04C262.126 125.04 261.739 124.903 261.446 124.63C261.159 124.35 261.016 123.997 261.016 123.57C261.016 123.083 261.199 122.707 261.566 122.44C261.933 122.167 262.446 122.03 263.106 122.03H263.946V121.74C263.946 121.393 263.863 121.133 263.696 120.96C263.529 120.78 263.253 120.69 262.866 120.69C262.326 120.69 261.836 120.84 261.396 121.14ZM267.246 119.93V120.82C267.493 120.193 267.936 119.88 268.576 119.88C268.67 119.88 268.773 119.89 268.886 119.91V120.87C268.746 120.81 268.59 120.78 268.416 120.78C268.076 120.78 267.796 120.93 267.576 121.23C267.356 121.53 267.246 121.887 267.246 122.3V125H266.266V119.93H267.246ZM121.76 137.76H122.64C123.127 137.76 123.497 137.64 123.75 137.4C124.01 137.16 124.14 136.843 124.14 136.45C124.14 136.037 124.01 135.71 123.75 135.47C123.49 135.23 123.113 135.11 122.62 135.11H121.76V137.76ZM120.73 134.26H122.66C123.433 134.26 124.047 134.467 124.5 134.88C124.953 135.287 125.18 135.81 125.18 136.45C125.18 137.09 124.95 137.61 124.49 138.01C124.037 138.41 123.447 138.61 122.72 138.61H121.76V141H120.73V134.26ZM128.858 138.74H128.098C127.725 138.74 127.441 138.813 127.248 138.96C127.061 139.107 126.968 139.293 126.968 139.52C126.968 139.753 127.041 139.937 127.188 140.07C127.335 140.203 127.548 140.27 127.828 140.27C128.148 140.27 128.398 140.183 128.578 140.01C128.765 139.83 128.858 139.597 128.858 139.31V138.74ZM126.308 137.14V136.19C126.701 135.963 127.221 135.85 127.868 135.85C129.195 135.85 129.858 136.493 129.858 137.78V141H128.888V140.4C128.628 140.827 128.171 141.04 127.518 141.04C127.038 141.04 126.651 140.903 126.358 140.63C126.071 140.35 125.928 139.997 125.928 139.57C125.928 139.083 126.111 138.707 126.478 138.44C126.845 138.167 127.358 138.03 128.018 138.03H128.858V137.74C128.858 137.393 128.775 137.133 128.608 136.96C128.441 136.78 128.165 136.69 127.778 136.69C127.238 136.69 126.748 136.84 126.308 137.14ZM130.048 142.81V141.98C130.262 142.087 130.475 142.14 130.688 142.14C131.055 142.14 131.238 141.903 131.238 141.43V135.93H132.218V141.45C132.218 141.923 132.092 142.293 131.838 142.56C131.592 142.827 131.238 142.96 130.778 142.96C130.565 142.96 130.322 142.91 130.048 142.81ZM131.288 134.82C131.168 134.7 131.108 134.553 131.108 134.38C131.108 134.207 131.165 134.06 131.278 133.94C131.398 133.82 131.545 133.76 131.718 133.76C131.892 133.76 132.038 133.82 132.158 133.94C132.278 134.06 132.338 134.207 132.338 134.38C132.338 134.547 132.278 134.69 132.158 134.81C132.038 134.93 131.892 134.99 131.718 134.99C131.552 134.99 131.408 134.933 131.288 134.82ZM136.27 138.74H135.51C135.137 138.74 134.853 138.813 134.66 138.96C134.473 139.107 134.38 139.293 134.38 139.52C134.38 139.753 134.453 139.937 134.6 140.07C134.747 140.203 134.96 140.27 135.24 140.27C135.56 140.27 135.81 140.183 135.99 140.01C136.177 139.83 136.27 139.597 136.27 139.31V138.74ZM133.72 137.14V136.19C134.113 135.963 134.633 135.85 135.28 135.85C136.607 135.85 137.27 136.493 137.27 137.78V141H136.3V140.4C136.04 140.827 135.583 141.04 134.93 141.04C134.45 141.04 134.063 140.903 133.77 140.63C133.483 140.35 133.34 139.997 133.34 139.57C133.34 139.083 133.523 138.707 133.89 138.44C134.257 138.167 134.77 138.03 135.43 138.03H136.27V137.74C136.27 137.393 136.187 137.133 136.02 136.96C135.853 136.78 135.577 136.69 135.19 136.69C134.65 136.69 134.16 136.84 133.72 137.14ZM138.59 141V134H139.57V141H138.59ZM140.74 138.35L142.73 141H141.56L139.61 138.35L141.52 135.93H142.67L140.74 138.35ZM147.121 137.76H148.001C148.488 137.76 148.858 137.64 149.111 137.4C149.371 137.16 149.501 136.843 149.501 136.45C149.501 136.037 149.371 135.71 149.111 135.47C148.851 135.23 148.475 135.11 147.981 135.11H147.121V137.76ZM146.091 134.26H148.021C148.795 134.26 149.408 134.467 149.861 134.88C150.315 135.287 150.541 135.81 150.541 136.45C150.541 137.09 150.311 137.61 149.851 138.01C149.398 138.41 148.808 138.61 148.081 138.61H147.121V141H146.091V134.26ZM154.699 138.1V137.92C154.686 137.54 154.583 137.24 154.389 137.02C154.196 136.793 153.919 136.68 153.559 136.68C153.226 136.68 152.939 136.803 152.699 137.05C152.459 137.29 152.309 137.64 152.249 138.1H154.699ZM155.329 139.85V140.73C154.956 140.943 154.463 141.05 153.849 141.05C153.063 141.05 152.436 140.813 151.969 140.34C151.503 139.867 151.269 139.247 151.269 138.48C151.269 137.667 151.483 137.03 151.909 136.57C152.336 136.103 152.879 135.87 153.539 135.87C154.186 135.87 154.699 136.073 155.079 136.48C155.459 136.88 155.649 137.46 155.649 138.22C155.649 138.427 155.629 138.643 155.589 138.87H152.259C152.326 139.31 152.513 139.647 152.819 139.88C153.126 140.113 153.513 140.23 153.979 140.23C154.519 140.23 154.969 140.103 155.329 139.85ZM157.783 135.93V136.8C158.083 136.173 158.61 135.86 159.363 135.86C159.863 135.86 160.26 136.013 160.553 136.32C160.847 136.627 160.993 137.043 160.993 137.57V141H160.013V137.8C160.013 137.447 159.923 137.177 159.743 136.99C159.57 136.803 159.337 136.71 159.043 136.71C158.697 136.71 158.4 136.847 158.153 137.12C157.907 137.387 157.783 137.763 157.783 138.25V141H156.803V135.93H157.783ZM164.311 140.02C164.658 140.02 164.958 139.887 165.211 139.62C165.471 139.347 165.601 138.967 165.601 138.48C165.601 137.88 165.478 137.437 165.231 137.15C164.991 136.863 164.698 136.72 164.351 136.72C163.958 136.72 163.648 136.877 163.421 137.19C163.194 137.497 163.081 137.903 163.081 138.41C163.081 138.937 163.201 139.337 163.441 139.61C163.688 139.883 163.978 140.02 164.311 140.02ZM165.601 135.93H166.581V140.57C166.581 141.35 166.358 141.937 165.911 142.33C165.471 142.73 164.904 142.93 164.211 142.93C163.558 142.93 163.008 142.82 162.561 142.6V141.61C162.988 141.89 163.504 142.03 164.111 142.03C165.104 142.03 165.601 141.54 165.601 140.56V140.04C165.274 140.587 164.784 140.86 164.131 140.86C163.558 140.86 163.068 140.65 162.661 140.23C162.254 139.803 162.051 139.203 162.051 138.43C162.051 137.683 162.241 137.07 162.621 136.59C163.001 136.103 163.504 135.86 164.131 135.86C164.804 135.86 165.294 136.147 165.601 136.72V135.93ZM168.877 133.93V136.8C169.164 136.173 169.687 135.86 170.447 135.86C170.94 135.86 171.337 136.013 171.637 136.32C171.937 136.627 172.087 137.053 172.087 137.6V141H171.107V137.8C171.107 137.453 171.017 137.187 170.837 137C170.664 136.807 170.434 136.71 170.147 136.71C169.814 136.71 169.517 136.837 169.257 137.09C169.004 137.343 168.877 137.73 168.877 138.25V141H167.897V133.93H168.877ZM176.075 138.74H175.315C174.942 138.74 174.658 138.813 174.465 138.96C174.278 139.107 174.185 139.293 174.185 139.52C174.185 139.753 174.258 139.937 174.405 140.07C174.552 140.203 174.765 140.27 175.045 140.27C175.365 140.27 175.615 140.183 175.795 140.01C175.982 139.83 176.075 139.597 176.075 139.31V138.74ZM173.525 137.14V136.19C173.918 135.963 174.438 135.85 175.085 135.85C176.412 135.85 177.075 136.493 177.075 137.78V141H176.105V140.4C175.845 140.827 175.388 141.04 174.735 141.04C174.255 141.04 173.868 140.903 173.575 140.63C173.288 140.35 173.145 139.997 173.145 139.57C173.145 139.083 173.328 138.707 173.695 138.44C174.062 138.167 174.575 138.03 175.235 138.03H176.075V137.74C176.075 137.393 175.992 137.133 175.825 136.96C175.658 136.78 175.382 136.69 174.995 136.69C174.455 136.69 173.965 136.84 173.525 137.14ZM181.285 136.1V136.99C180.958 136.797 180.538 136.7 180.025 136.7C179.792 136.7 179.605 136.753 179.465 136.86C179.332 136.967 179.265 137.107 179.265 137.28C179.265 137.327 179.268 137.373 179.275 137.42C179.288 137.46 179.308 137.503 179.335 137.55C179.362 137.59 179.385 137.627 179.405 137.66C179.432 137.687 179.472 137.717 179.525 137.75C179.578 137.783 179.618 137.813 179.645 137.84C179.678 137.86 179.728 137.887 179.795 137.92C179.868 137.953 179.922 137.98 179.955 138C179.988 138.013 180.045 138.04 180.125 138.08C180.212 138.113 180.272 138.137 180.305 138.15C180.698 138.323 181.005 138.52 181.225 138.74C181.452 138.953 181.565 139.24 181.565 139.6C181.565 140.053 181.405 140.41 181.085 140.67C180.765 140.923 180.332 141.05 179.785 141.05C179.185 141.05 178.685 140.95 178.285 140.75V139.82C178.752 140.107 179.235 140.25 179.735 140.25C179.995 140.25 180.195 140.197 180.335 140.09C180.482 139.983 180.555 139.843 180.555 139.67C180.555 139.523 180.498 139.393 180.385 139.28C180.272 139.16 180.155 139.073 180.035 139.02C179.922 138.96 179.725 138.87 179.445 138.75C178.652 138.423 178.255 137.943 178.255 137.31C178.255 136.863 178.422 136.513 178.755 136.26C179.088 136.007 179.505 135.88 180.005 135.88C180.552 135.88 180.978 135.953 181.285 136.1ZM182.625 141V135.93H183.615V141H182.625ZM182.675 134.82C182.561 134.7 182.505 134.553 182.505 134.38C182.505 134.207 182.561 134.06 182.675 133.94C182.795 133.82 182.941 133.76 183.115 133.76C183.288 133.76 183.435 133.82 183.555 133.94C183.675 134.06 183.735 134.207 183.735 134.38C183.735 134.547 183.675 134.69 183.555 134.81C183.435 134.93 183.288 134.99 183.115 134.99C182.941 134.99 182.795 134.933 182.675 134.82ZM185.076 141V133.93H186.066V141H185.076ZM190.157 138.74H189.397C189.024 138.74 188.74 138.813 188.547 138.96C188.36 139.107 188.267 139.293 188.267 139.52C188.267 139.753 188.34 139.937 188.487 140.07C188.634 140.203 188.847 140.27 189.127 140.27C189.447 140.27 189.697 140.183 189.877 140.01C190.064 139.83 190.157 139.597 190.157 139.31V138.74ZM187.607 137.14V136.19C188 135.963 188.52 135.85 189.167 135.85C190.494 135.85 191.157 136.493 191.157 137.78V141H190.187V140.4C189.927 140.827 189.47 141.04 188.817 141.04C188.337 141.04 187.95 140.903 187.657 140.63C187.37 140.35 187.227 139.997 187.227 139.57C187.227 139.083 187.41 138.707 187.777 138.44C188.144 138.167 188.657 138.03 189.317 138.03H190.157V137.74C190.157 137.393 190.074 137.133 189.907 136.96C189.74 136.78 189.464 136.69 189.077 136.69C188.537 136.69 188.047 136.84 187.607 137.14ZM193.457 135.93V136.8C193.757 136.173 194.284 135.86 195.037 135.86C195.537 135.86 195.934 136.013 196.227 136.32C196.52 136.627 196.667 137.043 196.667 137.57V141H195.687V137.8C195.687 137.447 195.597 137.177 195.417 136.99C195.244 136.803 195.01 136.71 194.717 136.71C194.37 136.71 194.074 136.847 193.827 137.12C193.58 137.387 193.457 137.763 193.457 138.25V141H192.477V135.93H193.457ZM197.215 142.24L198.175 139.9H199.385L198.075 142.24H197.215ZM204.297 140.89L202.277 135.93H203.367L203.997 137.58L204.787 139.72C204.847 139.52 205.087 138.807 205.507 137.58L206.077 135.93H207.117L205.287 140.86C204.8 142.16 204.057 142.81 203.057 142.81C202.877 142.81 202.724 142.793 202.597 142.76V141.92C202.704 141.947 202.817 141.96 202.937 141.96C203.584 141.96 204.037 141.603 204.297 140.89ZM210.606 138.74H209.846C209.473 138.74 209.189 138.813 208.996 138.96C208.809 139.107 208.716 139.293 208.716 139.52C208.716 139.753 208.789 139.937 208.936 140.07C209.083 140.203 209.296 140.27 209.576 140.27C209.896 140.27 210.146 140.183 210.326 140.01C210.513 139.83 210.606 139.597 210.606 139.31V138.74ZM208.056 137.14V136.19C208.449 135.963 208.969 135.85 209.616 135.85C210.943 135.85 211.606 136.493 211.606 137.78V141H210.636V140.4C210.376 140.827 209.919 141.04 209.266 141.04C208.786 141.04 208.399 140.903 208.106 140.63C207.819 140.35 207.676 139.997 207.676 139.57C207.676 139.083 207.859 138.707 208.226 138.44C208.593 138.167 209.106 138.03 209.766 138.03H210.606V137.74C210.606 137.393 210.523 137.133 210.356 136.96C210.189 136.78 209.913 136.69 209.526 136.69C208.986 136.69 208.496 136.84 208.056 137.14ZM212.966 141V135.93H213.956V141H212.966ZM213.016 134.82C212.903 134.7 212.846 134.553 212.846 134.38C212.846 134.207 212.903 134.06 213.016 133.94C213.136 133.82 213.283 133.76 213.456 133.76C213.63 133.76 213.776 133.82 213.896 133.94C214.016 134.06 214.076 134.207 214.076 134.38C214.076 134.547 214.016 134.69 213.896 134.81C213.776 134.93 213.63 134.99 213.456 134.99C213.283 134.99 213.136 134.933 213.016 134.82ZM216.648 136.69V139.48C216.648 139.967 216.881 140.21 217.348 140.21C217.621 140.21 217.851 140.137 218.038 139.99V140.87C217.818 140.99 217.548 141.05 217.228 141.05C216.181 141.05 215.658 140.52 215.658 139.46V136.69H214.868V135.93H215.658V134.69H216.648V135.93H217.978V136.69H216.648ZM222.268 135.93H223.248V141H222.268V140.13C222.001 140.75 221.474 141.06 220.688 141.06C220.188 141.06 219.791 140.913 219.498 140.62C219.204 140.32 219.058 139.91 219.058 139.39V135.93H220.048V139.15C220.048 139.497 220.131 139.763 220.298 139.95C220.471 140.13 220.708 140.22 221.008 140.22C221.388 140.22 221.691 140.087 221.918 139.82C222.151 139.553 222.268 139.177 222.268 138.69V135.93ZM245.504 140.21C245.89 140.21 246.217 140.063 246.484 139.77C246.75 139.477 246.884 139.03 246.884 138.43C246.884 137.85 246.744 137.42 246.464 137.14C246.19 136.86 245.88 136.72 245.534 136.72C245.14 136.72 244.817 136.877 244.564 137.19C244.31 137.497 244.184 137.937 244.184 138.51C244.184 139.017 244.307 139.427 244.554 139.74C244.807 140.053 245.124 140.21 245.504 140.21ZM246.884 133.93H247.874V141H246.884V140.23C246.53 140.79 246.014 141.07 245.334 141.07C244.667 141.07 244.14 140.82 243.754 140.32C243.367 139.813 243.174 139.203 243.174 138.49C243.174 137.697 243.377 137.06 243.784 136.58C244.19 136.1 244.714 135.86 245.354 135.86C246.014 135.86 246.524 136.14 246.884 136.7V133.93ZM251.924 138.74H251.164C250.791 138.74 250.508 138.813 250.314 138.96C250.128 139.107 250.034 139.293 250.034 139.52C250.034 139.753 250.108 139.937 250.254 140.07C250.401 140.203 250.614 140.27 250.894 140.27C251.214 140.27 251.464 140.183 251.644 140.01C251.831 139.83 251.924 139.597 251.924 139.31V138.74ZM249.374 137.14V136.19C249.768 135.963 250.288 135.85 250.934 135.85C252.261 135.85 252.924 136.493 252.924 137.78V141H251.954V140.4C251.694 140.827 251.238 141.04 250.584 141.04C250.104 141.04 249.718 140.903 249.424 140.63C249.138 140.35 248.994 139.997 248.994 139.57C248.994 139.083 249.178 138.707 249.544 138.44C249.911 138.167 250.424 138.03 251.084 138.03H251.924V137.74C251.924 137.393 251.841 137.133 251.674 136.96C251.508 136.78 251.231 136.69 250.844 136.69C250.304 136.69 249.814 136.84 249.374 137.14ZM255.225 135.93V136.82C255.471 136.193 255.915 135.88 256.555 135.88C256.648 135.88 256.751 135.89 256.865 135.91V136.87C256.725 136.81 256.568 136.78 256.395 136.78C256.055 136.78 255.775 136.93 255.555 137.23C255.335 137.53 255.225 137.887 255.225 138.3V141H254.245V135.93H255.225ZM257.673 141V135.93H258.663V141H257.673ZM257.723 134.82C257.61 134.7 257.553 134.553 257.553 134.38C257.553 134.207 257.61 134.06 257.723 133.94C257.843 133.82 257.99 133.76 258.163 133.76C258.337 133.76 258.483 133.82 258.603 133.94C258.723 134.06 258.783 134.207 258.783 134.38C258.783 134.547 258.723 134.69 258.603 134.81C258.483 134.93 258.337 134.99 258.163 134.99C257.99 134.99 257.843 134.933 257.723 134.82ZM263.815 136.69V139.48C263.815 139.967 264.049 140.21 264.515 140.21C264.789 140.21 265.019 140.137 265.205 139.99V140.87C264.985 140.99 264.715 141.05 264.395 141.05C263.349 141.05 262.825 140.52 262.825 139.46V136.69H262.035V135.93H262.825V134.69H263.815V135.93H265.145V136.69H263.815ZM268.406 141.09C267.659 141.09 267.072 140.847 266.646 140.36C266.219 139.873 266.006 139.257 266.006 138.51C266.006 137.75 266.226 137.12 266.666 136.62C267.106 136.113 267.686 135.86 268.406 135.86C269.179 135.86 269.776 136.107 270.196 136.6C270.616 137.087 270.826 137.71 270.826 138.47C270.826 139.23 270.609 139.857 270.176 140.35C269.749 140.843 269.159 141.09 268.406 141.09ZM268.396 136.69C267.962 136.69 267.626 136.863 267.386 137.21C267.146 137.55 267.026 137.973 267.026 138.48C267.026 138.98 267.149 139.403 267.396 139.75C267.642 140.09 267.979 140.26 268.406 140.26C268.859 140.26 269.202 140.093 269.436 139.76C269.676 139.427 269.796 139.003 269.796 138.49C269.796 137.963 269.682 137.533 269.456 137.2C269.229 136.86 268.876 136.69 268.396 136.69ZM273.2 136.69V139.48C273.2 139.967 273.434 140.21 273.9 140.21C274.174 140.21 274.404 140.137 274.59 139.99V140.87C274.37 140.99 274.1 141.05 273.78 141.05C272.734 141.05 272.21 140.52 272.21 139.46V136.69H271.42V135.93H272.21V134.69H273.2V135.93H274.53V136.69H273.2ZM278.34 138.74H277.58C277.207 138.74 276.924 138.813 276.73 138.96C276.544 139.107 276.45 139.293 276.45 139.52C276.45 139.753 276.524 139.937 276.67 140.07C276.817 140.203 277.03 140.27 277.31 140.27C277.63 140.27 277.88 140.183 278.06 140.01C278.247 139.83 278.34 139.597 278.34 139.31V138.74ZM275.79 137.14V136.19C276.184 135.963 276.704 135.85 277.35 135.85C278.677 135.85 279.34 136.493 279.34 137.78V141H278.37V140.4C278.11 140.827 277.654 141.04 277 141.04C276.52 141.04 276.134 140.903 275.84 140.63C275.554 140.35 275.41 139.997 275.41 139.57C275.41 139.083 275.594 138.707 275.96 138.44C276.327 138.167 276.84 138.03 277.5 138.03H278.34V137.74C278.34 137.393 278.257 137.133 278.09 136.96C277.924 136.78 277.647 136.69 277.26 136.69C276.72 136.69 276.23 136.84 275.79 137.14ZM280.701 141V133.93H281.691V141H280.701ZM123.03 156.21C123.423 156.21 123.747 156.057 124 155.75C124.253 155.437 124.38 155 124.38 154.44C124.38 153.913 124.257 153.497 124.01 153.19C123.763 152.877 123.45 152.72 123.07 152.72C122.69 152.72 122.36 152.86 122.08 153.14C121.807 153.413 121.67 153.85 121.67 154.45C121.67 155.037 121.807 155.477 122.08 155.77C122.36 156.063 122.677 156.21 123.03 156.21ZM121.67 151.93V152.71C122.017 152.143 122.537 151.86 123.23 151.86C123.897 151.86 124.423 152.103 124.81 152.59C125.197 153.07 125.39 153.683 125.39 154.43C125.39 155.197 125.19 155.83 124.79 156.33C124.397 156.823 123.87 157.07 123.21 157.07C122.537 157.07 122.023 156.79 121.67 156.23V158.94H120.69V151.93H121.67ZM129.641 154.1V153.92C129.627 153.54 129.524 153.24 129.331 153.02C129.137 152.793 128.861 152.68 128.501 152.68C128.167 152.68 127.881 152.803 127.641 153.05C127.401 153.29 127.251 153.64 127.191 154.1H129.641ZM130.271 155.85V156.73C129.897 156.943 129.404 157.05 128.791 157.05C128.004 157.05 127.377 156.813 126.911 156.34C126.444 155.867 126.211 155.247 126.211 154.48C126.211 153.667 126.424 153.03 126.851 152.57C127.277 152.103 127.821 151.87 128.481 151.87C129.127 151.87 129.641 152.073 130.021 152.48C130.401 152.88 130.591 153.46 130.591 154.22C130.591 154.427 130.571 154.643 130.531 154.87H127.201C127.267 155.31 127.454 155.647 127.761 155.88C128.067 156.113 128.454 156.23 128.921 156.23C129.461 156.23 129.911 156.103 130.271 155.85ZM132.725 151.93V152.8C133.025 152.173 133.551 151.86 134.305 151.86C134.805 151.86 135.201 152.013 135.495 152.32C135.788 152.627 135.935 153.043 135.935 153.57V157H134.955V153.8C134.955 153.447 134.865 153.177 134.685 152.99C134.511 152.803 134.278 152.71 133.985 152.71C133.638 152.71 133.341 152.847 133.095 153.12C132.848 153.387 132.725 153.763 132.725 154.25V157H131.745V151.93H132.725ZM139.253 156.02C139.599 156.02 139.899 155.887 140.153 155.62C140.413 155.347 140.543 154.967 140.543 154.48C140.543 153.88 140.419 153.437 140.173 153.15C139.933 152.863 139.639 152.72 139.293 152.72C138.899 152.72 138.589 152.877 138.363 153.19C138.136 153.497 138.023 153.903 138.023 154.41C138.023 154.937 138.143 155.337 138.383 155.61C138.629 155.883 138.919 156.02 139.253 156.02ZM140.543 151.93H141.523V156.57C141.523 157.35 141.299 157.937 140.853 158.33C140.413 158.73 139.846 158.93 139.153 158.93C138.499 158.93 137.949 158.82 137.503 158.6V157.61C137.929 157.89 138.446 158.03 139.053 158.03C140.046 158.03 140.543 157.54 140.543 156.56V156.04C140.216 156.587 139.726 156.86 139.073 156.86C138.499 156.86 138.009 156.65 137.603 156.23C137.196 155.803 136.993 155.203 136.993 154.43C136.993 153.683 137.183 153.07 137.563 152.59C137.943 152.103 138.446 151.86 139.073 151.86C139.746 151.86 140.236 152.147 140.543 152.72V151.93ZM143.818 149.93V152.8C144.105 152.173 144.628 151.86 145.388 151.86C145.882 151.86 146.278 152.013 146.578 152.32C146.878 152.627 147.028 153.053 147.028 153.6V157H146.048V153.8C146.048 153.453 145.958 153.187 145.778 153C145.605 152.807 145.375 152.71 145.088 152.71C144.755 152.71 144.458 152.837 144.198 153.09C143.945 153.343 143.818 153.73 143.818 154.25V157H142.838V149.93H143.818ZM151.016 154.74H150.256C149.883 154.74 149.6 154.813 149.406 154.96C149.22 155.107 149.126 155.293 149.126 155.52C149.126 155.753 149.2 155.937 149.346 156.07C149.493 156.203 149.706 156.27 149.986 156.27C150.306 156.27 150.556 156.183 150.736 156.01C150.923 155.83 151.016 155.597 151.016 155.31V154.74ZM148.466 153.14V152.19C148.86 151.963 149.38 151.85 150.026 151.85C151.353 151.85 152.016 152.493 152.016 153.78V157H151.046V156.4C150.786 156.827 150.33 157.04 149.676 157.04C149.196 157.04 148.81 156.903 148.516 156.63C148.23 156.35 148.086 155.997 148.086 155.57C148.086 155.083 148.27 154.707 148.636 154.44C149.003 154.167 149.516 154.03 150.176 154.03H151.016V153.74C151.016 153.393 150.933 153.133 150.766 152.96C150.6 152.78 150.323 152.69 149.936 152.69C149.396 152.69 148.906 152.84 148.466 153.14ZM156.226 152.1V152.99C155.9 152.797 155.48 152.7 154.966 152.7C154.733 152.7 154.546 152.753 154.406 152.86C154.273 152.967 154.206 153.107 154.206 153.28C154.206 153.327 154.21 153.373 154.216 153.42C154.23 153.46 154.25 153.503 154.276 153.55C154.303 153.59 154.326 153.627 154.346 153.66C154.373 153.687 154.413 153.717 154.466 153.75C154.52 153.783 154.56 153.813 154.586 153.84C154.62 153.86 154.67 153.887 154.736 153.92C154.81 153.953 154.863 153.98 154.896 154C154.93 154.013 154.986 154.04 155.066 154.08C155.153 154.113 155.213 154.137 155.246 154.15C155.64 154.323 155.946 154.52 156.166 154.74C156.393 154.953 156.506 155.24 156.506 155.6C156.506 156.053 156.346 156.41 156.026 156.67C155.706 156.923 155.273 157.05 154.726 157.05C154.126 157.05 153.626 156.95 153.226 156.75V155.82C153.693 156.107 154.176 156.25 154.676 156.25C154.936 156.25 155.136 156.197 155.276 156.09C155.423 155.983 155.496 155.843 155.496 155.67C155.496 155.523 155.44 155.393 155.326 155.28C155.213 155.16 155.096 155.073 154.976 155.02C154.863 154.96 154.666 154.87 154.386 154.75C153.593 154.423 153.196 153.943 153.196 153.31C153.196 152.863 153.363 152.513 153.696 152.26C154.03 152.007 154.446 151.88 154.946 151.88C155.493 151.88 155.92 151.953 156.226 152.1ZM157.566 157V151.93H158.556V157H157.566ZM157.616 150.82C157.503 150.7 157.446 150.553 157.446 150.38C157.446 150.207 157.503 150.06 157.616 149.94C157.736 149.82 157.883 149.76 158.056 149.76C158.229 149.76 158.376 149.82 158.496 149.94C158.616 150.06 158.676 150.207 158.676 150.38C158.676 150.547 158.616 150.69 158.496 150.81C158.376 150.93 158.229 150.99 158.056 150.99C157.883 150.99 157.736 150.933 157.616 150.82ZM160.017 157V149.93H161.007V157H160.017ZM165.098 154.74H164.338C163.965 154.74 163.682 154.813 163.488 154.96C163.302 155.107 163.208 155.293 163.208 155.52C163.208 155.753 163.282 155.937 163.428 156.07C163.575 156.203 163.788 156.27 164.068 156.27C164.388 156.27 164.638 156.183 164.818 156.01C165.005 155.83 165.098 155.597 165.098 155.31V154.74ZM162.548 153.14V152.19C162.942 151.963 163.462 151.85 164.108 151.85C165.435 151.85 166.098 152.493 166.098 153.78V157H165.128V156.4C164.868 156.827 164.412 157.04 163.758 157.04C163.278 157.04 162.892 156.903 162.598 156.63C162.312 156.35 162.168 155.997 162.168 155.57C162.168 155.083 162.352 154.707 162.718 154.44C163.085 154.167 163.598 154.03 164.258 154.03H165.098V153.74C165.098 153.393 165.015 153.133 164.848 152.96C164.682 152.78 164.405 152.69 164.018 152.69C163.478 152.69 162.988 152.84 162.548 153.14ZM168.399 151.93V152.8C168.699 152.173 169.225 151.86 169.979 151.86C170.479 151.86 170.875 152.013 171.169 152.32C171.462 152.627 171.609 153.043 171.609 153.57V157H170.629V153.8C170.629 153.447 170.539 153.177 170.359 152.99C170.185 152.803 169.952 152.71 169.659 152.71C169.312 152.71 169.015 152.847 168.769 153.12C168.522 153.387 168.399 153.763 168.399 154.25V157H167.419V151.93H168.399ZM178.277 152.1V152.99C177.951 152.797 177.531 152.7 177.017 152.7C176.784 152.7 176.597 152.753 176.457 152.86C176.324 152.967 176.257 153.107 176.257 153.28C176.257 153.327 176.261 153.373 176.267 153.42C176.281 153.46 176.301 153.503 176.327 153.55C176.354 153.59 176.377 153.627 176.397 153.66C176.424 153.687 176.464 153.717 176.517 153.75C176.571 153.783 176.611 153.813 176.637 153.84C176.671 153.86 176.721 153.887 176.787 153.92C176.861 153.953 176.914 153.98 176.947 154C176.981 154.013 177.037 154.04 177.117 154.08C177.204 154.113 177.264 154.137 177.297 154.15C177.691 154.323 177.997 154.52 178.217 154.74C178.444 154.953 178.557 155.24 178.557 155.6C178.557 156.053 178.397 156.41 178.077 156.67C177.757 156.923 177.324 157.05 176.777 157.05C176.177 157.05 175.677 156.95 175.277 156.75V155.82C175.744 156.107 176.227 156.25 176.727 156.25C176.987 156.25 177.187 156.197 177.327 156.09C177.474 155.983 177.547 155.843 177.547 155.67C177.547 155.523 177.491 155.393 177.377 155.28C177.264 155.16 177.147 155.073 177.027 155.02C176.914 154.96 176.717 154.87 176.437 154.75C175.644 154.423 175.247 153.943 175.247 153.31C175.247 152.863 175.414 152.513 175.747 152.26C176.081 152.007 176.497 151.88 176.997 151.88C177.544 151.88 177.971 151.953 178.277 152.1ZM182.727 154.1V153.92C182.713 153.54 182.61 153.24 182.417 153.02C182.223 152.793 181.947 152.68 181.587 152.68C181.253 152.68 180.967 152.803 180.727 153.05C180.487 153.29 180.337 153.64 180.277 154.1H182.727ZM183.357 155.85V156.73C182.983 156.943 182.49 157.05 181.877 157.05C181.09 157.05 180.463 156.813 179.997 156.34C179.53 155.867 179.297 155.247 179.297 154.48C179.297 153.667 179.51 153.03 179.937 152.57C180.363 152.103 180.907 151.87 181.567 151.87C182.213 151.87 182.727 152.073 183.107 152.48C183.487 152.88 183.677 153.46 183.677 154.22C183.677 154.427 183.657 154.643 183.617 154.87H180.287C180.353 155.31 180.54 155.647 180.847 155.88C181.153 156.113 181.54 156.23 182.007 156.23C182.547 156.23 182.997 156.103 183.357 155.85ZM187.221 156.21C187.594 156.21 187.907 156.053 188.161 155.74C188.414 155.42 188.541 155.01 188.541 154.51C188.541 153.937 188.414 153.497 188.161 153.19C187.907 152.877 187.584 152.72 187.191 152.72C186.844 152.72 186.531 152.86 186.251 153.14C185.977 153.42 185.841 153.85 185.841 154.43C185.841 155.03 185.974 155.477 186.241 155.77C186.507 156.063 186.834 156.21 187.221 156.21ZM185.841 149.93V152.7C186.201 152.14 186.711 151.86 187.371 151.86C188.011 151.86 188.534 152.1 188.941 152.58C189.347 153.06 189.551 153.697 189.551 154.49C189.551 155.203 189.357 155.813 188.971 156.32C188.584 156.82 188.054 157.07 187.381 157.07C186.707 157.07 186.194 156.79 185.841 156.23V157H184.851V149.93H185.841ZM193.801 154.1V153.92C193.788 153.54 193.684 153.24 193.491 153.02C193.298 152.793 193.021 152.68 192.661 152.68C192.328 152.68 192.041 152.803 191.801 153.05C191.561 153.29 191.411 153.64 191.351 154.1H193.801ZM194.431 155.85V156.73C194.058 156.943 193.564 157.05 192.951 157.05C192.164 157.05 191.538 156.813 191.071 156.34C190.604 155.867 190.371 155.247 190.371 154.48C190.371 153.667 190.584 153.03 191.011 152.57C191.438 152.103 191.981 151.87 192.641 151.87C193.288 151.87 193.801 152.073 194.181 152.48C194.561 152.88 194.751 153.46 194.751 154.22C194.751 154.427 194.731 154.643 194.691 154.87H191.361C191.428 155.31 191.614 155.647 191.921 155.88C192.228 156.113 192.614 156.23 193.081 156.23C193.621 156.23 194.071 156.103 194.431 155.85ZM198.795 152.1V152.99C198.468 152.797 198.048 152.7 197.535 152.7C197.302 152.7 197.115 152.753 196.975 152.86C196.842 152.967 196.775 153.107 196.775 153.28C196.775 153.327 196.778 153.373 196.785 153.42C196.798 153.46 196.818 153.503 196.845 153.55C196.872 153.59 196.895 153.627 196.915 153.66C196.942 153.687 196.982 153.717 197.035 153.75C197.088 153.783 197.128 153.813 197.155 153.84C197.188 153.86 197.238 153.887 197.305 153.92C197.378 153.953 197.432 153.98 197.465 154C197.498 154.013 197.555 154.04 197.635 154.08C197.722 154.113 197.782 154.137 197.815 154.15C198.208 154.323 198.515 154.52 198.735 154.74C198.962 154.953 199.075 155.24 199.075 155.6C199.075 156.053 198.915 156.41 198.595 156.67C198.275 156.923 197.842 157.05 197.295 157.05C196.695 157.05 196.195 156.95 195.795 156.75V155.82C196.262 156.107 196.745 156.25 197.245 156.25C197.505 156.25 197.705 156.197 197.845 156.09C197.992 155.983 198.065 155.843 198.065 155.67C198.065 155.523 198.008 155.393 197.895 155.28C197.782 155.16 197.665 155.073 197.545 155.02C197.432 154.96 197.235 154.87 196.955 154.75C196.162 154.423 195.765 153.943 195.765 153.31C195.765 152.863 195.932 152.513 196.265 152.26C196.598 152.007 197.015 151.88 197.515 151.88C198.062 151.88 198.488 151.953 198.795 152.1ZM202.764 154.74H202.004C201.631 154.74 201.348 154.813 201.154 154.96C200.968 155.107 200.874 155.293 200.874 155.52C200.874 155.753 200.948 155.937 201.094 156.07C201.241 156.203 201.454 156.27 201.734 156.27C202.054 156.27 202.304 156.183 202.484 156.01C202.671 155.83 202.764 155.597 202.764 155.31V154.74ZM200.214 153.14V152.19C200.608 151.963 201.128 151.85 201.774 151.85C203.101 151.85 203.764 152.493 203.764 153.78V157H202.794V156.4C202.534 156.827 202.078 157.04 201.424 157.04C200.944 157.04 200.558 156.903 200.264 156.63C199.978 156.35 199.834 155.997 199.834 155.57C199.834 155.083 200.018 154.707 200.384 154.44C200.751 154.167 201.264 154.03 201.924 154.03H202.764V153.74C202.764 153.393 202.681 153.133 202.514 152.96C202.348 152.78 202.071 152.69 201.684 152.69C201.144 152.69 200.654 152.84 200.214 153.14ZM206.065 151.93V152.82C206.311 152.193 206.755 151.88 207.395 151.88C207.488 151.88 207.591 151.89 207.705 151.91V152.87C207.565 152.81 207.408 152.78 207.235 152.78C206.895 152.78 206.615 152.93 206.395 153.23C206.175 153.53 206.065 153.887 206.065 154.3V157H205.085V151.93H206.065Z" fill="#2B2B2B"/>
<path d="M228.196 135.3V137.02C228.443 136.967 228.67 136.94 228.876 136.94C229.556 136.94 230.09 137.12 230.476 137.48C230.863 137.833 231.056 138.313 231.056 138.92C231.056 139.573 230.84 140.097 230.406 140.49C229.98 140.877 229.383 141.07 228.616 141.07C227.93 141.07 227.363 140.957 226.916 140.73V139.78C227.343 140.04 227.856 140.17 228.456 140.17C229.51 140.17 230.036 139.743 230.036 138.89C230.036 138.55 229.916 138.287 229.676 138.1C229.443 137.907 229.126 137.81 228.726 137.81C228.22 137.81 227.72 137.927 227.226 138.16V134.45H230.616V135.3H228.196ZM233.585 141.01L237.225 134.23H238.155L234.505 141.01H233.585ZM236.475 139.4C236.475 138.94 236.638 138.547 236.965 138.22C237.292 137.887 237.688 137.72 238.155 137.72C238.615 137.72 239.008 137.887 239.335 138.22C239.662 138.547 239.825 138.94 239.825 139.4C239.825 139.867 239.662 140.263 239.335 140.59C239.008 140.91 238.615 141.07 238.155 141.07C237.688 141.07 237.292 140.91 236.965 140.59C236.638 140.263 236.475 139.867 236.475 139.4ZM231.945 135.8C231.945 135.34 232.108 134.947 232.435 134.62C232.762 134.293 233.155 134.13 233.615 134.13C234.082 134.13 234.478 134.293 234.805 134.62C235.132 134.947 235.295 135.34 235.295 135.8C235.295 136.267 235.132 136.663 234.805 136.99C234.478 137.317 234.082 137.48 233.615 137.48C233.155 137.48 232.762 137.317 232.435 136.99C232.108 136.663 231.945 136.267 231.945 135.8ZM232.775 135.8C232.775 136.033 232.855 136.233 233.015 136.4C233.182 136.567 233.382 136.65 233.615 136.65C233.848 136.65 234.048 136.567 234.215 136.4C234.382 136.233 234.465 136.033 234.465 135.8C234.465 135.567 234.382 135.37 234.215 135.21C234.048 135.043 233.848 134.96 233.615 134.96C233.382 134.96 233.182 135.043 233.015 135.21C232.855 135.377 232.775 135.573 232.775 135.8ZM237.555 138.8C237.388 138.967 237.305 139.167 237.305 139.4C237.305 139.633 237.388 139.833 237.555 140C237.722 140.167 237.922 140.25 238.155 140.25C238.388 140.25 238.585 140.167 238.745 140C238.912 139.833 238.995 139.633 238.995 139.4C238.995 139.167 238.912 138.967 238.745 138.8C238.585 138.633 238.388 138.55 238.155 138.55C237.922 138.55 237.722 138.633 237.555 138.8Z" fill="#B76F09"/>
<path d="M212.004 151.12V153.58H212.934C213.361 153.58 213.684 153.47 213.904 153.25C214.124 153.023 214.234 152.723 214.234 152.35C214.234 151.53 213.784 151.12 212.884 151.12H212.004ZM214.474 157L212.894 154.44H212.004V157H210.974V150.26H212.854C213.627 150.26 214.224 150.45 214.644 150.83C215.064 151.203 215.274 151.713 215.274 152.36C215.267 152.833 215.147 153.237 214.914 153.57C214.681 153.897 214.357 154.133 213.944 154.28L215.704 157H214.474ZM218.958 156.21C219.351 156.21 219.674 156.057 219.928 155.75C220.181 155.437 220.308 155 220.308 154.44C220.308 153.913 220.184 153.497 219.938 153.19C219.691 152.877 219.378 152.72 218.998 152.72C218.618 152.72 218.288 152.86 218.008 153.14C217.734 153.413 217.598 153.85 217.598 154.45C217.598 155.037 217.734 155.477 218.008 155.77C218.288 156.063 218.604 156.21 218.958 156.21ZM217.598 151.93V152.71C217.944 152.143 218.464 151.86 219.158 151.86C219.824 151.86 220.351 152.103 220.738 152.59C221.124 153.07 221.318 153.683 221.318 154.43C221.318 155.197 221.118 155.83 220.718 156.33C220.324 156.823 219.798 157.07 219.138 157.07C218.464 157.07 217.951 156.79 217.598 156.23V158.94H216.618V151.93H217.598ZM225.899 156.15H228.739V157H224.549V156.19C225.389 155.577 226.096 154.943 226.669 154.29C227.249 153.63 227.539 153.03 227.539 152.49C227.539 152.11 227.429 151.82 227.209 151.62C226.989 151.413 226.686 151.31 226.299 151.31C225.766 151.31 225.243 151.51 224.729 151.91V150.94C225.209 150.573 225.779 150.39 226.439 150.39C227.053 150.39 227.559 150.563 227.959 150.91C228.359 151.25 228.559 151.737 228.559 152.37C228.559 153.543 227.673 154.803 225.899 156.15ZM230.95 151.3V153.02C231.197 152.967 231.424 152.94 231.63 152.94C232.31 152.94 232.844 153.12 233.23 153.48C233.617 153.833 233.81 154.313 233.81 154.92C233.81 155.573 233.594 156.097 233.16 156.49C232.734 156.877 232.137 157.07 231.37 157.07C230.684 157.07 230.117 156.957 229.67 156.73V155.78C230.097 156.04 230.61 156.17 231.21 156.17C232.264 156.17 232.79 155.743 232.79 154.89C232.79 154.55 232.67 154.287 232.43 154.1C232.197 153.907 231.88 153.81 231.48 153.81C230.974 153.81 230.474 153.927 229.98 154.16V150.45H233.37V151.3H230.95ZM234.629 153.71C234.629 152.683 234.832 151.87 235.239 151.27C235.652 150.663 236.215 150.36 236.929 150.36C237.655 150.36 238.225 150.66 238.639 151.26C239.052 151.86 239.259 152.677 239.259 153.71C239.259 154.73 239.055 155.547 238.649 156.16C238.249 156.773 237.675 157.08 236.929 157.08C236.215 157.08 235.652 156.773 235.239 156.16C234.832 155.547 234.629 154.73 234.629 153.71ZM235.999 151.91C235.752 152.33 235.629 152.93 235.629 153.71C235.629 154.49 235.749 155.097 235.989 155.53C236.235 155.957 236.549 156.17 236.929 156.17C237.342 156.17 237.665 155.957 237.899 155.53C238.132 155.103 238.249 154.497 238.249 153.71C238.249 152.917 238.125 152.313 237.879 151.9C237.639 151.48 237.322 151.27 236.929 151.27C236.555 151.27 236.245 151.483 235.999 151.91ZM239.588 158.24L240.548 155.9H241.758L240.448 158.24H239.588ZM242.529 153.71C242.529 152.683 242.732 151.87 243.139 151.27C243.552 150.663 244.116 150.36 244.829 150.36C245.556 150.36 246.126 150.66 246.539 151.26C246.952 151.86 247.159 152.677 247.159 153.71C247.159 154.73 246.956 155.547 246.549 156.16C246.149 156.773 245.576 157.08 244.829 157.08C244.116 157.08 243.552 156.773 243.139 156.16C242.732 155.547 242.529 154.73 242.529 153.71ZM243.899 151.91C243.652 152.33 243.529 152.93 243.529 153.71C243.529 154.49 243.649 155.097 243.889 155.53C244.136 155.957 244.449 156.17 244.829 156.17C245.242 156.17 245.566 155.957 245.799 155.53C246.032 155.103 246.149 154.497 246.149 153.71C246.149 152.917 246.026 152.313 245.779 151.9C245.539 151.48 245.222 151.27 244.829 151.27C244.456 151.27 244.146 151.483 243.899 151.91ZM247.978 153.71C247.978 152.683 248.182 151.87 248.588 151.27C249.002 150.663 249.565 150.36 250.278 150.36C251.005 150.36 251.575 150.66 251.988 151.26C252.402 151.86 252.608 152.677 252.608 153.71C252.608 154.73 252.405 155.547 251.998 156.16C251.598 156.773 251.025 157.08 250.278 157.08C249.565 157.08 249.002 156.773 248.588 156.16C248.182 155.547 247.978 154.73 247.978 153.71ZM249.348 151.91C249.102 152.33 248.978 152.93 248.978 153.71C248.978 154.49 249.098 155.097 249.338 155.53C249.585 155.957 249.898 156.17 250.278 156.17C250.692 156.17 251.015 155.957 251.248 155.53C251.482 155.103 251.598 154.497 251.598 153.71C251.598 152.917 251.475 152.313 251.228 151.9C250.988 151.48 250.672 151.27 250.278 151.27C249.905 151.27 249.595 151.483 249.348 151.91ZM253.428 153.71C253.428 152.683 253.631 151.87 254.038 151.27C254.451 150.663 255.014 150.36 255.728 150.36C256.454 150.36 257.024 150.66 257.438 151.26C257.851 151.86 258.058 152.677 258.058 153.71C258.058 154.73 257.854 155.547 257.448 156.16C257.048 156.773 256.474 157.08 255.728 157.08C255.014 157.08 254.451 156.773 254.038 156.16C253.631 155.547 253.428 154.73 253.428 153.71ZM254.798 151.91C254.551 152.33 254.428 152.93 254.428 153.71C254.428 154.49 254.548 155.097 254.788 155.53C255.034 155.957 255.348 156.17 255.728 156.17C256.141 156.17 256.464 155.957 256.698 155.53C256.931 155.103 257.048 154.497 257.048 153.71C257.048 152.917 256.924 152.313 256.678 151.9C256.438 151.48 256.121 151.27 255.728 151.27C255.354 151.27 255.044 151.483 254.798 151.91Z" fill="#FF1934"/>
<path opacity="0.64" d="M60.904 211.468V208.108H61.552V211.452C61.552 212.145 61.376 212.671 61.024 213.028C60.6773 213.385 60.192 213.564 59.568 213.564C58.9547 213.564 58.4747 213.391 58.128 213.044C57.7813 212.692 57.608 212.183 57.608 211.516V208.108H58.256V211.508C58.256 212.004 58.3733 212.369 58.608 212.604C58.848 212.839 59.168 212.956 59.568 212.956C60.4587 212.956 60.904 212.46 60.904 211.468ZM64.9243 211.628H64.2203C63.8789 211.628 63.6229 211.695 63.4523 211.828C63.2816 211.961 63.1963 212.129 63.1963 212.332C63.1963 212.535 63.2629 212.7 63.3963 212.828C63.5296 212.951 63.7243 213.012 63.9803 213.012C64.2683 213.012 64.4976 212.932 64.6683 212.772C64.8389 212.607 64.9243 212.399 64.9243 212.148V211.628ZM62.8283 210.292V209.66C63.1323 209.473 63.5323 209.38 64.0283 209.38C65.0469 209.38 65.5563 209.897 65.5563 210.932V213.5H64.9323V213.02C64.7243 213.367 64.3456 213.54 63.7963 213.54C63.4176 213.54 63.1109 213.428 62.8763 213.204C62.6469 212.98 62.5323 212.697 62.5323 212.356C62.5323 211.967 62.6789 211.665 62.9723 211.452C63.2709 211.233 63.6763 211.124 64.1883 211.124H64.9243V210.916C64.9243 210.596 64.8523 210.356 64.7083 210.196C64.5643 210.031 64.3216 209.948 63.9803 209.948C63.5483 209.948 63.1643 210.063 62.8283 210.292ZM67.3018 209.444V210.148C67.5418 209.641 67.9684 209.388 68.5818 209.388C68.9764 209.388 69.2911 209.508 69.5258 209.748C69.7604 209.988 69.8778 210.308 69.8778 210.708V213.5H69.2458V210.876C69.2458 210.577 69.1684 210.351 69.0138 210.196C68.8644 210.036 68.6671 209.956 68.4218 209.956C68.1178 209.956 67.8538 210.073 67.6298 210.308C67.4111 210.543 67.3018 210.868 67.3018 211.284V213.5H66.6778V209.444H67.3018ZM72.5181 212.836C72.8114 212.836 73.0701 212.724 73.2941 212.5C73.5234 212.271 73.6381 211.932 73.6381 211.484C73.6381 210.967 73.5287 210.583 73.3101 210.332C73.0914 210.081 72.8381 209.956 72.5501 209.956C72.2034 209.956 71.9287 210.095 71.7261 210.372C71.5234 210.644 71.4221 211.001 71.4221 211.444C71.4221 211.897 71.5341 212.244 71.7581 212.484C71.9821 212.719 72.2354 212.836 72.5181 212.836ZM73.6381 209.444H74.2701V213.172C74.2701 213.791 74.0994 214.255 73.7581 214.564C73.4167 214.879 72.9767 215.036 72.4381 215.036C71.9474 215.036 71.5287 214.953 71.1821 214.788V214.156C71.5234 214.353 71.9234 214.452 72.3821 214.452C72.7714 214.452 73.0781 214.348 73.3021 214.14C73.5261 213.932 73.6381 213.607 73.6381 213.164V212.708C73.3714 213.167 72.9741 213.396 72.4461 213.396C71.9821 213.396 71.5847 213.225 71.2541 212.884C70.9287 212.543 70.7661 212.068 70.7661 211.46C70.7661 210.857 70.9181 210.361 71.2221 209.972C71.5261 209.583 71.9234 209.388 72.4141 209.388C72.9687 209.388 73.3767 209.631 73.6381 210.116V209.444ZM80.4618 208.108V208.676H79.0058V213.5H78.3578V208.676H76.9018V208.108H80.4618ZM83.7212 209.444H84.3532V213.5H83.7212V212.796C83.5079 213.297 83.0839 213.548 82.4492 213.548C82.0492 213.548 81.7319 213.431 81.4972 213.196C81.2679 212.956 81.1532 212.636 81.1532 212.236V209.444H81.7852V212.076C81.7852 212.369 81.8599 212.593 82.0092 212.748C82.1585 212.903 82.3612 212.98 82.6172 212.98C82.9532 212.98 83.2199 212.863 83.4172 212.628C83.6199 212.393 83.7212 212.076 83.7212 211.676V209.444ZM86.1455 209.444V210.148C86.3855 209.641 86.8122 209.388 87.4255 209.388C87.8202 209.388 88.1348 209.508 88.3695 209.748C88.6042 209.988 88.7215 210.308 88.7215 210.708V213.5H88.0895V210.876C88.0895 210.577 88.0122 210.351 87.8575 210.196C87.7082 210.036 87.5108 209.956 87.2655 209.956C86.9615 209.956 86.6975 210.073 86.4735 210.308C86.2548 210.543 86.1455 210.868 86.1455 211.284V213.5H85.5215V209.444H86.1455ZM92.0258 211.628H91.3218C90.9805 211.628 90.7245 211.695 90.5538 211.828C90.3831 211.961 90.2978 212.129 90.2978 212.332C90.2978 212.535 90.3645 212.7 90.4978 212.828C90.6311 212.951 90.8258 213.012 91.0818 213.012C91.3698 213.012 91.5991 212.932 91.7698 212.772C91.9405 212.607 92.0258 212.399 92.0258 212.148V211.628ZM89.9298 210.292V209.66C90.2338 209.473 90.6338 209.38 91.1298 209.38C92.1485 209.38 92.6578 209.897 92.6578 210.932V213.5H92.0338V213.02C91.8258 213.367 91.4471 213.54 90.8978 213.54C90.5191 213.54 90.2125 213.428 89.9778 213.204C89.7485 212.98 89.6338 212.697 89.6338 212.356C89.6338 211.967 89.7805 211.665 90.0738 211.452C90.3725 211.233 90.7778 211.124 91.2898 211.124H92.0258V210.916C92.0258 210.596 91.9538 210.356 91.8098 210.196C91.6658 210.031 91.4231 209.948 91.0818 209.948C90.6498 209.948 90.2658 210.063 89.9298 210.292ZM93.8113 213.5V209.444H94.4433V213.5H93.8113ZM93.8273 208.468C93.7526 208.388 93.7153 208.289 93.7153 208.172C93.7153 208.055 93.7526 207.956 93.8273 207.876C93.9073 207.796 94.006 207.756 94.1233 207.756C94.2406 207.756 94.3393 207.796 94.4193 207.876C94.4993 207.956 94.5393 208.055 94.5393 208.172C94.5393 208.289 94.4993 208.388 94.4193 208.468C94.3393 208.543 94.2406 208.58 94.1233 208.58C94.006 208.58 93.9073 208.543 93.8273 208.468Z" fill="#2B2B2B"/>
<path d="M248.116 208.668V210.82H248.932C249.3 210.82 249.58 210.721 249.772 210.524C249.969 210.321 250.068 210.063 250.068 209.748C250.068 209.028 249.665 208.668 248.86 208.668H248.116ZM251.052 213.5H250.276L248.956 211.372H248.892H248.116V213.5H247.468V208.108H248.82C249.444 208.108 249.916 208.255 250.236 208.548C250.561 208.841 250.724 209.247 250.724 209.764C250.713 210.137 250.614 210.455 250.428 210.716C250.241 210.977 249.977 211.161 249.636 211.268L251.052 213.5ZM253.602 212.988C253.944 212.988 254.224 212.855 254.442 212.588C254.661 212.316 254.77 211.932 254.77 211.436C254.77 210.993 254.664 210.636 254.45 210.364C254.237 210.092 253.968 209.956 253.642 209.956C253.317 209.956 253.034 210.076 252.794 210.316C252.56 210.551 252.442 210.937 252.442 211.476C252.442 211.993 252.562 212.375 252.802 212.62C253.042 212.865 253.309 212.988 253.602 212.988ZM252.442 209.444V210.06C252.725 209.607 253.144 209.38 253.698 209.38C254.237 209.38 254.658 209.577 254.962 209.972C255.272 210.361 255.426 210.849 255.426 211.436C255.426 212.06 255.264 212.572 254.938 212.972C254.618 213.367 254.2 213.564 253.682 213.564C253.149 213.564 252.736 213.337 252.442 212.884V215.076H251.818V209.444H252.442ZM259.079 208.82V210.388C259.319 210.335 259.527 210.308 259.703 210.308C260.236 210.308 260.657 210.449 260.967 210.732C261.281 211.015 261.439 211.393 261.439 211.868C261.439 212.385 261.268 212.799 260.927 213.108C260.591 213.412 260.129 213.564 259.543 213.564C259.015 213.564 258.567 213.473 258.199 213.292V212.668C258.54 212.871 258.953 212.972 259.439 212.972C260.335 212.972 260.783 212.596 260.783 211.844C260.783 211.54 260.679 211.305 260.471 211.14C260.263 210.969 259.993 210.884 259.663 210.884C259.273 210.884 258.871 210.977 258.455 211.164V208.268H261.079V208.82H259.079ZM262.141 210.868C262.141 210.047 262.306 209.399 262.637 208.924C262.973 208.444 263.413 208.204 263.957 208.204C264.522 208.204 264.97 208.444 265.301 208.924C265.637 209.399 265.805 210.047 265.805 210.868C265.805 211.684 265.645 212.337 265.325 212.828C265.005 213.319 264.549 213.564 263.957 213.564C263.408 213.564 262.968 213.319 262.637 212.828C262.306 212.337 262.141 211.684 262.141 210.868ZM263.133 209.348C262.904 209.705 262.789 210.212 262.789 210.868C262.789 211.524 262.901 212.039 263.125 212.412C263.349 212.78 263.626 212.964 263.957 212.964C264.325 212.964 264.616 212.783 264.829 212.42C265.048 212.057 265.157 211.54 265.157 210.868C265.157 210.201 265.042 209.692 264.813 209.34C264.589 208.983 264.304 208.804 263.957 208.804C263.637 208.804 263.362 208.985 263.133 209.348ZM266.084 214.484L266.828 212.692H267.668L266.636 214.484H266.084ZM268.289 210.868C268.289 210.047 268.455 209.399 268.785 208.924C269.121 208.444 269.561 208.204 270.105 208.204C270.671 208.204 271.119 208.444 271.449 208.924C271.785 209.399 271.953 210.047 271.953 210.868C271.953 211.684 271.793 212.337 271.473 212.828C271.153 213.319 270.697 213.564 270.105 213.564C269.556 213.564 269.116 213.319 268.785 212.828C268.455 212.337 268.289 211.684 268.289 210.868ZM269.281 209.348C269.052 209.705 268.937 210.212 268.937 210.868C268.937 211.524 269.049 212.039 269.273 212.412C269.497 212.78 269.775 212.964 270.105 212.964C270.473 212.964 270.764 212.783 270.977 212.42C271.196 212.057 271.305 211.54 271.305 210.868C271.305 210.201 271.191 209.692 270.961 209.34C270.737 208.983 270.452 208.804 270.105 208.804C269.785 208.804 269.511 208.985 269.281 209.348ZM272.641 210.868C272.641 210.047 272.806 209.399 273.137 208.924C273.473 208.444 273.913 208.204 274.457 208.204C275.022 208.204 275.47 208.444 275.801 208.924C276.137 209.399 276.305 210.047 276.305 210.868C276.305 211.684 276.145 212.337 275.825 212.828C275.505 213.319 275.049 213.564 274.457 213.564C273.908 213.564 273.468 213.319 273.137 212.828C272.806 212.337 272.641 211.684 272.641 210.868ZM273.633 209.348C273.404 209.705 273.289 210.212 273.289 210.868C273.289 211.524 273.401 212.039 273.625 212.412C273.849 212.78 274.126 212.964 274.457 212.964C274.825 212.964 275.116 212.783 275.329 212.42C275.548 212.057 275.657 211.54 275.657 210.868C275.657 210.201 275.542 209.692 275.313 209.34C275.089 208.983 274.804 208.804 274.457 208.804C274.137 208.804 273.862 208.985 273.633 209.348ZM276.992 210.868C276.992 210.047 277.158 209.399 277.488 208.924C277.824 208.444 278.264 208.204 278.808 208.204C279.374 208.204 279.822 208.444 280.152 208.924C280.488 209.399 280.656 210.047 280.656 210.868C280.656 211.684 280.496 212.337 280.176 212.828C279.856 213.319 279.4 213.564 278.808 213.564C278.259 213.564 277.819 213.319 277.488 212.828C277.158 212.337 276.992 211.684 276.992 210.868ZM277.984 209.348C277.755 209.705 277.64 210.212 277.64 210.868C277.64 211.524 277.752 212.039 277.976 212.412C278.2 212.78 278.478 212.964 278.808 212.964C279.176 212.964 279.467 212.783 279.68 212.42C279.899 212.057 280.008 211.54 280.008 210.868C280.008 210.201 279.894 209.692 279.664 209.34C279.44 208.983 279.155 208.804 278.808 208.804C278.488 208.804 278.214 208.985 277.984 209.348Z" fill="#2B2B2B"/>
<mask id="path-17-inside-1_1124_4113" fill="white">
<path d="M57 222.5H281V244.5H57V222.5Z"/>
</mask>
<path d="M281 243.5H57V245.5H281V243.5Z" fill="#CCCCCC" mask="url(#path-17-inside-1_1124_4113)"/>
<path opacity="0.64" d="M60.704 230.108V230.676H59.248V235.5H58.6V230.676H57.144V230.108H60.704ZM63.6274 233.628H62.9234C62.582 233.628 62.326 233.695 62.1554 233.828C61.9847 233.961 61.8994 234.129 61.8994 234.332C61.8994 234.535 61.966 234.7 62.0994 234.828C62.2327 234.951 62.4274 235.012 62.6834 235.012C62.9714 235.012 63.2007 234.932 63.3714 234.772C63.542 234.607 63.6274 234.399 63.6274 234.148V233.628ZM61.5314 232.292V231.66C61.8354 231.473 62.2354 231.38 62.7314 231.38C63.75 231.38 64.2594 231.897 64.2594 232.932V235.5H63.6354V235.02C63.4274 235.367 63.0487 235.54 62.4994 235.54C62.1207 235.54 61.814 235.428 61.5794 235.204C61.35 234.98 61.2354 234.697 61.2354 234.356C61.2354 233.967 61.382 233.665 61.6754 233.452C61.974 233.233 62.3794 233.124 62.8914 233.124H63.6274V232.916C63.6274 232.596 63.5554 232.356 63.4114 232.196C63.2674 232.031 63.0247 231.948 62.6834 231.948C62.2514 231.948 61.8674 232.063 61.5314 232.292ZM67.2289 234.988C67.5542 234.988 67.8235 234.852 68.0369 234.58C68.2502 234.308 68.3569 233.953 68.3569 233.516C68.3569 233.015 68.2449 232.631 68.0209 232.364C67.8022 232.092 67.5249 231.956 67.1889 231.956C66.9009 231.956 66.6369 232.076 66.3969 232.316C66.1569 232.556 66.0369 232.932 66.0369 233.444C66.0369 233.983 66.1515 234.375 66.3809 234.62C66.6155 234.865 66.8982 234.988 67.2289 234.988ZM66.0369 229.844V232.052C66.3302 231.604 66.7409 231.38 67.2689 231.38C67.7809 231.38 68.1995 231.577 68.5249 231.972C68.8502 232.361 69.0129 232.873 69.0129 233.508C69.0129 234.079 68.8582 234.564 68.5489 234.964C68.2449 235.364 67.8235 235.564 67.2849 235.564C66.7409 235.564 66.3249 235.343 66.0369 234.9V235.5H65.4049V229.844H66.0369ZM72.4634 231.444H73.0954V235.5H72.4634V234.796C72.25 235.297 71.826 235.548 71.1914 235.548C70.7914 235.548 70.474 235.431 70.2394 235.196C70.01 234.956 69.8954 234.636 69.8954 234.236V231.444H70.5274V234.076C70.5274 234.369 70.602 234.593 70.7514 234.748C70.9007 234.903 71.1034 234.98 71.3594 234.98C71.6954 234.98 71.962 234.863 72.1594 234.628C72.362 234.393 72.4634 234.076 72.4634 233.676V231.444ZM74.8877 231.444V232.148C75.1277 231.641 75.5544 231.388 76.1677 231.388C76.5624 231.388 76.877 231.508 77.1117 231.748C77.3464 231.988 77.4637 232.308 77.4637 232.708V235.5H76.8317V232.876C76.8317 232.577 76.7544 232.351 76.5997 232.196C76.4504 232.036 76.253 231.956 76.0077 231.956C75.7037 231.956 75.4397 232.073 75.2157 232.308C74.997 232.543 74.8877 232.868 74.8877 233.284V235.5H74.2637V231.444H74.8877ZM80.104 234.836C80.3973 234.836 80.656 234.724 80.88 234.5C81.1093 234.271 81.224 233.932 81.224 233.484C81.224 232.967 81.1147 232.583 80.896 232.332C80.6773 232.081 80.424 231.956 80.136 231.956C79.7893 231.956 79.5147 232.095 79.312 232.372C79.1093 232.644 79.008 233.001 79.008 233.444C79.008 233.897 79.12 234.244 79.344 234.484C79.568 234.719 79.8213 234.836 80.104 234.836ZM81.224 231.444H81.856V235.172C81.856 235.791 81.6853 236.255 81.344 236.564C81.0027 236.879 80.5627 237.036 80.024 237.036C79.5333 237.036 79.1147 236.953 78.768 236.788V236.156C79.1093 236.353 79.5093 236.452 79.968 236.452C80.3573 236.452 80.664 236.348 80.888 236.14C81.112 235.932 81.224 235.607 81.224 235.164V234.708C80.9573 235.167 80.56 235.396 80.032 235.396C79.568 235.396 79.1707 235.225 78.84 234.884C78.5147 234.543 78.352 234.068 78.352 233.46C78.352 232.857 78.504 232.361 78.808 231.972C79.112 231.583 79.5093 231.388 80 231.388C80.5547 231.388 80.9627 231.631 81.224 232.116V231.444ZM85.1586 233.628H84.4546C84.1133 233.628 83.8573 233.695 83.6866 233.828C83.516 233.961 83.4306 234.129 83.4306 234.332C83.4306 234.535 83.4973 234.7 83.6306 234.828C83.764 234.951 83.9586 235.012 84.2146 235.012C84.5026 235.012 84.732 234.932 84.9026 234.772C85.0733 234.607 85.1586 234.399 85.1586 234.148V233.628ZM83.0626 232.292V231.66C83.3666 231.473 83.7666 231.38 84.2626 231.38C85.2813 231.38 85.7906 231.897 85.7906 232.932V235.5H85.1666V235.02C84.9586 235.367 84.58 235.54 84.0306 235.54C83.652 235.54 83.3453 235.428 83.1106 235.204C82.8813 234.98 82.7666 234.697 82.7666 234.356C82.7666 233.967 82.9133 233.665 83.2066 233.452C83.5053 233.233 83.9106 233.124 84.4226 233.124H85.1586V232.916C85.1586 232.596 85.0866 232.356 84.9426 232.196C84.7986 232.031 84.556 231.948 84.2146 231.948C83.7826 231.948 83.3986 232.063 83.0626 232.292ZM87.5361 231.444V232.148C87.7761 231.641 88.2028 231.388 88.8161 231.388C89.2108 231.388 89.5255 231.508 89.7601 231.748C89.9948 231.988 90.1121 232.308 90.1121 232.708V235.5H89.4801V232.876C89.4801 232.577 89.4028 232.351 89.2481 232.196C89.0988 232.036 88.9015 231.956 88.6561 231.956C88.3521 231.956 88.0881 232.073 87.8641 232.308C87.6455 232.543 87.5361 232.868 87.5361 233.284V235.5H86.9121V231.444H87.5361Z" fill="#2B2B2B"/>
<path d="M243.881 230.668V232.82H244.697C245.065 232.82 245.345 232.721 245.537 232.524C245.735 232.321 245.833 232.063 245.833 231.748C245.833 231.028 245.431 230.668 244.625 230.668H243.881ZM246.817 235.5H246.041L244.721 233.372H244.657H243.881V235.5H243.233V230.108H244.585C245.209 230.108 245.681 230.255 246.001 230.548C246.327 230.841 246.489 231.247 246.489 231.764C246.479 232.137 246.38 232.455 246.193 232.716C246.007 232.977 245.743 233.161 245.401 233.268L246.817 235.5ZM249.368 234.988C249.709 234.988 249.989 234.855 250.208 234.588C250.427 234.316 250.536 233.932 250.536 233.436C250.536 232.993 250.429 232.636 250.216 232.364C250.003 232.092 249.733 231.956 249.408 231.956C249.083 231.956 248.8 232.076 248.56 232.316C248.325 232.551 248.208 232.937 248.208 233.476C248.208 233.993 248.328 234.375 248.568 234.62C248.808 234.865 249.075 234.988 249.368 234.988ZM248.208 231.444V232.06C248.491 231.607 248.909 231.38 249.464 231.38C250.003 231.38 250.424 231.577 250.728 231.972C251.037 232.361 251.192 232.849 251.192 233.436C251.192 234.06 251.029 234.572 250.704 234.972C250.384 235.367 249.965 235.564 249.448 235.564C248.915 235.564 248.501 235.337 248.208 234.884V237.076H247.584V231.444H248.208ZM254.668 234.948H257.1V235.5H253.796V234.964C255.45 233.716 256.276 232.676 256.276 231.844C256.276 231.513 256.18 231.26 255.988 231.084C255.796 230.903 255.538 230.812 255.212 230.812C254.791 230.812 254.375 230.969 253.964 231.284V230.652C254.343 230.359 254.778 230.212 255.268 230.212C255.738 230.212 256.132 230.348 256.452 230.62C256.772 230.892 256.932 231.279 256.932 231.78C256.932 232.724 256.178 233.78 254.668 234.948ZM257.789 232.868C257.789 232.047 257.955 231.399 258.285 230.924C258.621 230.444 259.061 230.204 259.605 230.204C260.171 230.204 260.619 230.444 260.949 230.924C261.285 231.399 261.453 232.047 261.453 232.868C261.453 233.684 261.293 234.337 260.973 234.828C260.653 235.319 260.197 235.564 259.605 235.564C259.056 235.564 258.616 235.319 258.285 234.828C257.955 234.337 257.789 233.684 257.789 232.868ZM258.781 231.348C258.552 231.705 258.437 232.212 258.437 232.868C258.437 233.524 258.549 234.039 258.773 234.412C258.997 234.78 259.275 234.964 259.605 234.964C259.973 234.964 260.264 234.783 260.477 234.42C260.696 234.057 260.805 233.54 260.805 232.868C260.805 232.201 260.691 231.692 260.461 231.34C260.237 230.983 259.952 230.804 259.605 230.804C259.285 230.804 259.011 230.985 258.781 231.348ZM262.141 232.868C262.141 232.047 262.306 231.399 262.637 230.924C262.973 230.444 263.413 230.204 263.957 230.204C264.522 230.204 264.97 230.444 265.301 230.924C265.637 231.399 265.805 232.047 265.805 232.868C265.805 233.684 265.645 234.337 265.325 234.828C265.005 235.319 264.549 235.564 263.957 235.564C263.408 235.564 262.968 235.319 262.637 234.828C262.306 234.337 262.141 233.684 262.141 232.868ZM263.133 231.348C262.904 231.705 262.789 232.212 262.789 232.868C262.789 233.524 262.901 234.039 263.125 234.412C263.349 234.78 263.626 234.964 263.957 234.964C264.325 234.964 264.616 234.783 264.829 234.42C265.048 234.057 265.157 233.54 265.157 232.868C265.157 232.201 265.042 231.692 264.813 231.34C264.589 230.983 264.304 230.804 263.957 230.804C263.637 230.804 263.362 230.985 263.133 231.348ZM266.084 236.484L266.828 234.692H267.668L266.636 236.484H266.084ZM268.289 232.868C268.289 232.047 268.455 231.399 268.785 230.924C269.121 230.444 269.561 230.204 270.105 230.204C270.671 230.204 271.119 230.444 271.449 230.924C271.785 231.399 271.953 232.047 271.953 232.868C271.953 233.684 271.793 234.337 271.473 234.828C271.153 235.319 270.697 235.564 270.105 235.564C269.556 235.564 269.116 235.319 268.785 234.828C268.455 234.337 268.289 233.684 268.289 232.868ZM269.281 231.348C269.052 231.705 268.937 232.212 268.937 232.868C268.937 233.524 269.049 234.039 269.273 234.412C269.497 234.78 269.775 234.964 270.105 234.964C270.473 234.964 270.764 234.783 270.977 234.42C271.196 234.057 271.305 233.54 271.305 232.868C271.305 232.201 271.191 231.692 270.961 231.34C270.737 230.983 270.452 230.804 270.105 230.804C269.785 230.804 269.511 230.985 269.281 231.348ZM272.641 232.868C272.641 232.047 272.806 231.399 273.137 230.924C273.473 230.444 273.913 230.204 274.457 230.204C275.022 230.204 275.47 230.444 275.801 230.924C276.137 231.399 276.305 232.047 276.305 232.868C276.305 233.684 276.145 234.337 275.825 234.828C275.505 235.319 275.049 235.564 274.457 235.564C273.908 235.564 273.468 235.319 273.137 234.828C272.806 234.337 272.641 233.684 272.641 232.868ZM273.633 231.348C273.404 231.705 273.289 232.212 273.289 232.868C273.289 233.524 273.401 234.039 273.625 234.412C273.849 234.78 274.126 234.964 274.457 234.964C274.825 234.964 275.116 234.783 275.329 234.42C275.548 234.057 275.657 233.54 275.657 232.868C275.657 232.201 275.542 231.692 275.313 231.34C275.089 230.983 274.804 230.804 274.457 230.804C274.137 230.804 273.862 230.985 273.633 231.348ZM276.992 232.868C276.992 232.047 277.158 231.399 277.488 230.924C277.824 230.444 278.264 230.204 278.808 230.204C279.374 230.204 279.822 230.444 280.152 230.924C280.488 231.399 280.656 232.047 280.656 232.868C280.656 233.684 280.496 234.337 280.176 234.828C279.856 235.319 279.4 235.564 278.808 235.564C278.259 235.564 277.819 235.319 277.488 234.828C277.158 234.337 276.992 233.684 276.992 232.868ZM277.984 231.348C277.755 231.705 277.64 232.212 277.64 232.868C277.64 233.524 277.752 234.039 277.976 234.412C278.2 234.78 278.478 234.964 278.808 234.964C279.176 234.964 279.467 234.783 279.68 234.42C279.899 234.057 280.008 233.54 280.008 232.868C280.008 232.201 279.894 231.692 279.664 231.34C279.44 230.983 279.155 230.804 278.808 230.804C278.488 230.804 278.214 230.985 277.984 231.348Z" fill="#2B2B2B"/>
<rect x="109" y="275" width="120" height="24" rx="8" fill="#FF1934"/>
<path d="M157.959 288.176L158.823 288.176C159.468 288.176 159.791 287.931 159.791 287.44C159.791 286.939 159.455 286.688 158.783 286.688L157.959 286.688L157.959 288.176ZM157.959 284.432L157.959 285.88L158.567 285.88C158.929 285.88 159.201 285.808 159.383 285.664C159.564 285.52 159.655 285.336 159.655 285.112C159.655 284.904 159.577 284.739 159.423 284.616C159.273 284.493 159.044 284.432 158.735 284.432L157.959 284.432ZM156.951 283.608L158.863 283.608C159.439 283.608 159.887 283.744 160.207 284.016C160.527 284.288 160.687 284.64 160.687 285.072C160.687 285.365 160.607 285.621 160.447 285.84C160.287 286.053 160.081 286.195 159.831 286.264C160.119 286.333 160.356 286.475 160.543 286.688C160.729 286.896 160.823 287.181 160.823 287.544C160.823 287.971 160.673 288.32 160.375 288.592C160.076 288.864 159.663 289 159.135 289L156.951 289L156.951 283.608ZM163.053 286.952L164.573 286.952L164.501 286.712C164.32 286.136 164.17 285.653 164.053 285.264C163.941 284.869 163.872 284.621 163.845 284.52L163.813 284.36C163.765 284.627 163.536 285.413 163.125 286.72L163.053 286.952ZM165.213 289L164.829 287.776L162.789 287.776L162.405 289L161.349 289L163.173 283.608L164.477 283.608L166.301 289L165.213 289ZM171.364 283.608L169.508 287L169.508 289L168.5 289L168.5 287.032L166.66 283.608L167.836 283.608L168.196 284.392C168.404 284.845 168.574 285.227 168.708 285.536C168.841 285.84 168.921 286.029 168.948 286.104L168.996 286.224C169.044 286.027 169.318 285.416 169.82 284.392L170.188 283.608L171.364 283.608ZM173.436 286.952L174.956 286.952L174.884 286.712C174.702 286.136 174.553 285.653 174.436 285.264C174.324 284.869 174.254 284.621 174.228 284.52L174.196 284.36C174.148 284.627 173.918 285.413 173.508 286.72L173.436 286.952ZM175.596 289L175.212 287.776L173.172 287.776L172.788 289L171.732 289L173.556 283.608L174.86 283.608L176.684 289L175.596 289ZM178.466 284.44L178.466 286.2L179.138 286.2C179.448 286.2 179.68 286.123 179.834 285.968C179.989 285.808 180.066 285.587 180.066 285.304C180.066 285.027 179.984 284.813 179.818 284.664C179.658 284.515 179.426 284.44 179.122 284.44L178.466 284.44ZM180.242 289L179.018 287.032L178.466 287.032L178.466 289L177.458 289L177.458 283.608L179.122 283.608C179.736 283.608 180.216 283.763 180.562 284.072C180.914 284.381 181.09 284.795 181.09 285.312C181.085 285.696 180.992 286.021 180.81 286.288C180.629 286.549 180.381 286.744 180.066 286.872L181.45 289L180.242 289Z" fill="white"/>
<path d="M9 341.5H329C333.694 341.5 337.5 345.306 337.5 350C337.5 354.694 333.694 358.5 329 358.5H9C4.30558 358.5 0.5 354.694 0.5 350C0.500002 345.306 4.30558 341.5 9 341.5Z" fill="white"/>
<path d="M9 341.5H329C333.694 341.5 337.5 345.306 337.5 350C337.5 354.694 333.694 358.5 329 358.5H9C4.30558 358.5 0.5 354.694 0.5 350C0.500002 345.306 4.30558 341.5 9 341.5Z" stroke="#CCCCCC"/>
<path d="M7.86805e-07 350C3.52265e-07 345.029 4.02944 341 9 341L39 341C43.9706 341 48 345.029 48 350C48 354.971 43.9706 359 39 359L9 359C4.02944 359 1.22135e-06 354.971 7.86805e-07 350Z" fill="#FF1934"/>
<path d="M15.448 346.688H16.264L16.816 348.6L17.456 350.92C17.5893 350.179 17.7547 349.403 17.952 348.592L18.44 346.608H19.464L18.088 352H16.92L16.432 350.296C16.2987 349.843 16.184 349.443 16.088 349.096C15.9973 348.749 15.936 348.517 15.904 348.4L15.864 348.216C15.7893 348.589 15.6027 349.283 15.304 350.296L14.8 352H13.64L12.2 346.608H13.264L13.768 348.6C13.8533 348.957 13.9387 349.328 14.024 349.712C14.1093 350.096 14.1733 350.389 14.216 350.592L14.28 350.904C14.4507 350.232 14.6587 349.464 14.904 348.6L15.448 346.688ZM22.2561 350.256H21.7601C21.5094 350.256 21.3174 350.309 21.1841 350.416C21.0507 350.517 20.9841 350.648 20.9841 350.808C20.9841 351.149 21.1814 351.32 21.5761 351.32C21.7894 351.32 21.9547 351.259 22.0721 351.136C22.1947 351.008 22.2561 350.843 22.2561 350.64V350.256ZM20.2881 349.04V348.152C20.5921 347.965 21.0294 347.872 21.6001 347.872C22.6987 347.872 23.2481 348.384 23.2481 349.408V352H22.2961V351.512C22.1094 351.859 21.7574 352.032 21.2401 352.032C20.8561 352.032 20.5494 351.92 20.3201 351.696C20.0961 351.472 19.9841 351.189 19.9841 350.848C19.9841 350.464 20.1281 350.163 20.4161 349.944C20.7041 349.725 21.1201 349.616 21.6641 349.616H22.2561V349.368C22.2561 349.144 22.1974 348.973 22.0801 348.856C21.9627 348.739 21.7627 348.68 21.4801 348.68C21.0481 348.68 20.6507 348.8 20.2881 349.04ZM27.7828 352H26.6548L25.1988 349.904V352H24.2388V346.44H25.1988V349.848L26.6308 347.944H27.7508L26.2628 349.88L27.7828 352ZM29.5864 348.664V350.728C29.5864 350.899 29.6318 351.029 29.7224 351.12C29.8131 351.205 29.9384 351.248 30.0984 351.248C30.3011 351.248 30.4878 351.192 30.6584 351.08V351.904C30.4718 351.995 30.2318 352.04 29.9384 352.04C29.0638 352.04 28.6264 351.597 28.6264 350.712V348.664H28.0184V347.944H28.6264V346.968H29.5864V347.944H30.5944V348.664H29.5864ZM33.9617 347.944H34.9297V352H33.9617V351.336C33.7484 351.805 33.3324 352.04 32.7137 352.04C32.303 352.04 31.983 351.923 31.7537 351.688C31.5244 351.453 31.4097 351.12 31.4097 350.688V347.944H32.3697V350.464C32.3697 350.72 32.431 350.915 32.5537 351.048C32.6817 351.181 32.855 351.248 33.0737 351.248C33.351 351.248 33.567 351.155 33.7217 350.968C33.8817 350.781 33.9617 350.499 33.9617 350.12V347.944Z" fill="white"/>
<rect x="56" y="348" width="274" height="4" rx="2" fill="#CCCCCC"/>
<mask id="mask0_1124_4113" style="mask-type:alpha" maskUnits="userSpaceOnUse" x="56" y="348" width="274" height="4">
<rect x="56" y="348" width="274" height="4" rx="2" fill="#CCCCCC"/>
</mask>
<g mask="url(#mask0_1124_4113)">
<rect x="56" y="348" width="274" height="4" rx="2" fill="#FF1934"/>
</g>
<defs>
<filter id="filter0_d_1124_4113" x="5" y="48" width="328" height="56" filterUnits="userSpaceOnUse" color-interpolation-filters="sRGB">
<feFlood flood-opacity="0" result="BackgroundImageFix"/>
<feColorMatrix in="SourceAlpha" type="matrix" values="0 0 0 0 0 0 0 0 0 0 0 0 0 0 0 0 0 0 127 0" result="hardAlpha"/>
<feOffset dy="2"/>
<feGaussianBlur stdDeviation="2"/>
<feComposite in2="hardAlpha" operator="out"/>
<feColorMatrix type="matrix" values="0 0 0 0 0.168627 0 0 0 0 0.168627 0 0 0 0 0.168627 0 0 0 0.24 0"/>
<feBlend mode="normal" in2="BackgroundImageFix" result="effect1_dropShadow_1124_4113"/>
<feBlend mode="normal" in="SourceGraphic" in2="effect1_dropShadow_1124_4113" result="shape"/>
</filter>
<clipPath id="clip0_1124_4113">
<rect width="24" height="24" fill="white" transform="translate(25 66)"/>
</clipPath>
<clipPath id="clip1_1124_4113">
<rect width="64" height="64" fill="white" transform="translate(48 106)"/>
</clipPath>
</defs>
</svg>
