<svg width="338" height="375" viewBox="0 0 338 375" fill="none" xmlns="http://www.w3.org/2000/svg">
<rect width="338" height="375" fill="#D3D3D3"/>
<rect x="9" y="50" width="320" height="265" rx="16" fill="white"/>
<g filter="url(#filter0_d_1124_4113)">
<path d="M9 66C9 57.1634 16.1634 50 25 50H313C321.837 50 329 57.1634 329 66V98H9V66Z" fill="#FF1934" shape-rendering="crispEdges"/>
<g clip-path="url(#clip0_1124_4113)">
<path fill-rule="evenodd" clip-rule="evenodd" d="M27 78C27 72.49 31.49 68 37 68C42.51 68 47 72.49 47 78C47 83.51 42.51 88 37 88C31.49 88 27 83.51 27 78ZM28.6 78C28.6 82.63 32.37 86.4 37 86.4C41.63 86.4 45.4 82.63 45.4 78C45.4 73.37 41.63 69.6 37 69.6C32.37 69.6 28.6 73.37 28.6 78ZM32.2 78C32.2 77.56 32.56 77.2 33 77.2H41C41.44 77.2 41.8 77.56 41.8 78C41.8 78.44 41.44 78.8 41 78.8H33C32.56 78.8 32.2 78.44 32.2 78Z" fill="white"/>
</g>
<path d="M60.066 77.24H60.78C61.9187 77.24 62.488 76.722 62.488 75.686C62.488 74.7527 61.9607 74.286 60.906 74.286H60.066V77.24ZM57.91 72.564H61.158C62.2033 72.564 63.048 72.858 63.692 73.446C64.3453 74.034 64.672 74.7807 64.672 75.686C64.672 76.722 64.3313 77.5247 63.65 78.094C62.978 78.6633 62.1473 78.948 61.158 78.948H60.066V82H57.91V72.564ZM69.2427 79.088H68.5847C68.2393 79.088 67.9733 79.1627 67.7867 79.312C67.6 79.4613 67.5067 79.6527 67.5067 79.886C67.5067 80.362 67.782 80.6 68.3327 80.6C68.622 80.6 68.846 80.5113 69.0047 80.334C69.1633 80.1567 69.2427 79.914 69.2427 79.606V79.088ZM65.9247 77.086V75.252C66.4847 74.9347 67.292 74.776 68.3467 74.776C69.3547 74.776 70.106 74.9953 70.6007 75.434C71.0953 75.8633 71.3427 76.5353 71.3427 77.45V82H69.3407V81.132C69.042 81.7387 68.454 82.042 67.5767 82.042C66.886 82.042 66.3447 81.846 65.9527 81.454C65.57 81.062 65.3787 80.572 65.3787 79.984C65.3787 79.3027 65.626 78.7753 66.1207 78.402C66.6247 78.0193 67.3667 77.828 68.3467 77.828H69.2427V77.338C69.2427 76.7407 68.846 76.442 68.0527 76.442C67.2873 76.442 66.578 76.6567 65.9247 77.086ZM71.5474 84.548V82.994C71.8554 83.134 72.1214 83.204 72.3454 83.204C72.8308 83.204 73.0734 82.8913 73.0734 82.266V74.902H75.1034V82.294C75.1034 83.0407 74.8934 83.638 74.4734 84.086C74.0534 84.5433 73.4468 84.772 72.6534 84.772C72.3268 84.772 71.9581 84.6973 71.5474 84.548ZM73.2414 73.684C73.0081 73.4507 72.8914 73.1707 72.8914 72.844C72.8914 72.5173 73.0081 72.2373 73.2414 72.004C73.4748 71.7707 73.7548 71.654 74.0814 71.654C74.4081 71.654 74.6881 71.7707 74.9214 72.004C75.1548 72.2373 75.2714 72.5173 75.2714 72.844C75.2714 73.1707 75.1548 73.4507 74.9214 73.684C74.6881 73.9173 74.4081 74.034 74.0814 74.034C73.7548 74.034 73.4748 73.9173 73.2414 73.684ZM80.3032 79.088H79.6452C79.2999 79.088 79.0339 79.1627 78.8472 79.312C78.6606 79.4613 78.5672 79.6527 78.5672 79.886C78.5672 80.362 78.8426 80.6 79.3932 80.6C79.6826 80.6 79.9066 80.5113 80.0652 80.334C80.2239 80.1567 80.3032 79.914 80.3032 79.606V79.088ZM76.9852 77.086V75.252C77.5452 74.9347 78.3526 74.776 79.4072 74.776C80.4152 74.776 81.1666 74.9953 81.6612 75.434C82.1559 75.8633 82.4032 76.5353 82.4032 77.45V82H80.4012V81.132C80.1026 81.7387 79.5146 82.042 78.6372 82.042C77.9466 82.042 77.4052 81.846 77.0132 81.454C76.6306 81.062 76.4392 80.572 76.4392 79.984C76.4392 79.3027 76.6866 78.7753 77.1812 78.402C77.6852 78.0193 78.4272 77.828 79.4072 77.828H80.3032V77.338C80.3032 76.7407 79.9066 76.442 79.1132 76.442C78.3479 76.442 77.6386 76.6567 76.9852 77.086ZM90.686 82H88.32L86.052 78.514V82H84.008V72.34H86.052V78.08L88.292 74.902H90.644L88.18 78.304L90.686 82ZM97.4039 77.24H98.1179C99.2566 77.24 99.8259 76.722 99.8259 75.686C99.8259 74.7527 99.2986 74.286 98.2439 74.286H97.4039V77.24ZM95.2479 72.564H98.4959C99.5412 72.564 100.386 72.858 101.03 73.446C101.683 74.034 102.01 74.7807 102.01 75.686C102.01 76.722 101.669 77.5247 100.988 78.094C100.316 78.6633 99.4852 78.948 98.4959 78.948H97.4039V82H95.2479V72.564ZM107.169 77.8V77.632C107.103 76.8013 106.739 76.386 106.077 76.386C105.75 76.386 105.461 76.5073 105.209 76.75C104.957 76.9833 104.789 77.3333 104.705 77.8H107.169ZM108.639 79.886V81.594C108.153 81.9113 107.411 82.07 106.413 82.07C105.246 82.07 104.336 81.734 103.683 81.062C103.039 80.3807 102.717 79.508 102.717 78.444C102.717 77.3147 103.029 76.4327 103.655 75.798C104.289 75.154 105.069 74.832 105.993 74.832C106.945 74.832 107.696 75.112 108.247 75.672C108.797 76.2227 109.073 77.0487 109.073 78.15C109.073 78.3647 109.035 78.7333 108.961 79.256H104.789C104.929 79.648 105.171 79.9513 105.517 80.166C105.862 80.3807 106.277 80.488 106.763 80.488C107.481 80.488 108.107 80.2873 108.639 79.886ZM112.575 74.902V76.106C112.753 75.714 113.023 75.406 113.387 75.182C113.761 74.9487 114.204 74.832 114.717 74.832C115.445 74.832 116.015 75.0513 116.425 75.49C116.836 75.9193 117.041 76.554 117.041 77.394V82H114.997V77.772C114.997 77.352 114.899 77.0347 114.703 76.82C114.507 76.596 114.232 76.484 113.877 76.484C113.504 76.484 113.191 76.6333 112.939 76.932C112.697 77.2213 112.575 77.66 112.575 78.248V82H110.531V74.902H112.575ZM121.803 80.138C122.241 80.138 122.582 79.9747 122.825 79.648C123.077 79.312 123.203 78.9107 123.203 78.444C123.203 77.1747 122.741 76.54 121.817 76.54C121.406 76.54 121.084 76.6987 120.851 77.016C120.617 77.3333 120.501 77.772 120.501 78.332C120.501 78.92 120.613 79.368 120.837 79.676C121.061 79.984 121.383 80.138 121.803 80.138ZM123.203 74.902H125.233V81.314C125.233 82.4527 124.892 83.3067 124.211 83.876C123.529 84.4547 122.675 84.744 121.649 84.744C120.65 84.744 119.777 84.5667 119.031 84.212V82.126C119.684 82.6487 120.487 82.91 121.439 82.91C122.055 82.91 122.503 82.7793 122.783 82.518C123.063 82.2567 123.203 81.846 123.203 81.286V80.81C122.792 81.4447 122.139 81.762 121.243 81.762C120.459 81.762 119.782 81.4727 119.213 80.894C118.653 80.3153 118.373 79.4567 118.373 78.318C118.373 77.31 118.643 76.4793 119.185 75.826C119.735 75.1633 120.454 74.832 121.341 74.832C122.181 74.832 122.801 75.168 123.203 75.84V74.902ZM128.886 72.102V76.106C129.25 75.2567 129.959 74.832 131.014 74.832C131.705 74.832 132.265 75.0513 132.694 75.49C133.133 75.9287 133.352 76.5913 133.352 77.478V82H131.308V77.8C131.308 77.3893 131.205 77.0673 131 76.834C130.795 76.6007 130.529 76.484 130.202 76.484C130.062 76.484 129.927 76.5073 129.796 76.554C129.675 76.5913 129.539 76.666 129.39 76.778C129.241 76.8807 129.119 77.0627 129.026 77.324C128.933 77.576 128.886 77.884 128.886 78.248V82H126.842V72.102H128.886ZM138.477 79.088H137.819C137.474 79.088 137.208 79.1627 137.021 79.312C136.834 79.4613 136.741 79.6527 136.741 79.886C136.741 80.362 137.016 80.6 137.567 80.6C137.856 80.6 138.08 80.5113 138.239 80.334C138.398 80.1567 138.477 79.914 138.477 79.606V79.088ZM135.159 77.086V75.252C135.719 74.9347 136.526 74.776 137.581 74.776C138.589 74.776 139.34 74.9953 139.835 75.434C140.33 75.8633 140.577 76.5353 140.577 77.45V82H138.575V81.132C138.276 81.7387 137.688 82.042 136.811 82.042C136.12 82.042 135.579 81.846 135.187 81.454C134.804 81.062 134.613 80.572 134.613 79.984C134.613 79.3027 134.86 78.7753 135.355 78.402C135.859 78.0193 136.601 77.828 137.581 77.828H138.477V77.338C138.477 76.7407 138.08 76.442 137.287 76.442C136.522 76.442 135.812 76.6567 135.159 77.086ZM146.662 75.112V76.862C146.167 76.5727 145.588 76.428 144.926 76.428C144.683 76.428 144.496 76.4793 144.366 76.582C144.235 76.6753 144.17 76.7967 144.17 76.946C144.17 77.03 144.193 77.1093 144.24 77.184C144.286 77.2587 144.361 77.3287 144.464 77.394C144.576 77.4593 144.678 77.52 144.772 77.576C144.874 77.6227 145.01 77.6833 145.178 77.758C145.355 77.8327 145.495 77.898 145.598 77.954C146.027 78.178 146.372 78.4393 146.634 78.738C146.895 79.0273 147.026 79.4007 147.026 79.858C147.026 80.558 146.774 81.0993 146.27 81.482C145.766 81.8647 145.098 82.056 144.268 82.056C143.409 82.056 142.69 81.9113 142.112 81.622V79.802C142.756 80.25 143.437 80.474 144.156 80.474C144.669 80.474 144.926 80.3107 144.926 79.984C144.926 79.9 144.902 79.8207 144.856 79.746C144.809 79.6713 144.73 79.6013 144.618 79.536C144.506 79.4707 144.403 79.4193 144.31 79.382C144.216 79.3353 144.081 79.2747 143.904 79.2C143.726 79.1253 143.591 79.0647 143.498 79.018C142.555 78.57 142.084 77.898 142.084 77.002C142.084 76.3113 142.345 75.7747 142.868 75.392C143.4 75.0093 144.058 74.818 144.842 74.818C145.57 74.818 146.176 74.916 146.662 75.112ZM148.349 82V74.902H150.393V82H148.349ZM148.531 73.684C148.298 73.4507 148.181 73.1707 148.181 72.844C148.181 72.5173 148.298 72.2373 148.531 72.004C148.765 71.7707 149.045 71.654 149.371 71.654C149.698 71.654 149.978 71.7707 150.211 72.004C150.445 72.2373 150.561 72.5173 150.561 72.844C150.561 73.1707 150.445 73.4507 150.211 73.684C149.978 73.9173 149.698 74.034 149.371 74.034C149.045 74.034 148.765 73.9173 148.531 73.684ZM152.219 82V72.102H154.263V82H152.219ZM159.532 79.088H158.874C158.528 79.088 158.262 79.1627 158.076 79.312C157.889 79.4613 157.796 79.6527 157.796 79.886C157.796 80.362 158.071 80.6 158.622 80.6C158.911 80.6 159.135 80.5113 159.294 80.334C159.452 80.1567 159.532 79.914 159.532 79.606V79.088ZM156.214 77.086V75.252C156.774 74.9347 157.581 74.776 158.636 74.776C159.644 74.776 160.395 74.9953 160.89 75.434C161.384 75.8633 161.632 76.5353 161.632 77.45V82H159.63V81.132C159.331 81.7387 158.743 82.042 157.866 82.042C157.175 82.042 156.634 81.846 156.242 81.454C155.859 81.062 155.668 80.572 155.668 79.984C155.668 79.3027 155.915 78.7753 156.41 78.402C156.914 78.0193 157.656 77.828 158.636 77.828H159.532V77.338C159.532 76.7407 159.135 76.442 158.342 76.442C157.576 76.442 156.867 76.6567 156.214 77.086ZM165.28 74.902V76.106C165.458 75.714 165.728 75.406 166.092 75.182C166.466 74.9487 166.909 74.832 167.422 74.832C168.15 74.832 168.72 75.0513 169.13 75.49C169.541 75.9193 169.746 76.554 169.746 77.394V82H167.702V77.772C167.702 77.352 167.604 77.0347 167.408 76.82C167.212 76.596 166.937 76.484 166.582 76.484C166.209 76.484 165.896 76.6333 165.644 76.932C165.402 77.2213 165.28 77.66 165.28 78.248V82H163.236V74.902H165.28Z" fill="white"/>
</g>
<g clip-path="url(#clip1_1124_4113)">
<path d="M189.023 146.73L185.47 145.319L187.057 141.259L147.264 161.903L150.725 163.368L148.974 167.563L152.464 169.055L150.707 173.302L191.016 152.276L187.432 150.84L189.023 146.73Z" fill="#8C0010"/>
<path d="M188.349 145.383L184.762 144.099L186.249 139.984L146.984 162.03L150.48 163.372L148.833 167.627L152.357 168.995L150.707 173.302L190.478 150.857L186.86 149.548L188.349 145.383Z" fill="#FF1934"/>
<path d="M153.239 162.093L154.966 161.122C155.522 160.81 156.026 160.715 156.479 160.836C156.932 160.959 157.243 161.263 157.41 161.752C157.602 162.31 157.57 162.845 157.315 163.356C157.06 163.867 156.668 164.272 156.14 164.569L155.557 164.897L156.12 166.557L154.967 167.207L153.239 162.093ZM155.243 163.972L155.623 163.757C156.231 163.416 156.438 162.964 156.247 162.406C156.076 161.902 155.709 161.809 155.148 162.125L154.701 162.376L155.243 163.972Z" fill="white"/>
<path d="M162.448 162.991L161.777 162.118L160.016 163.111L160.072 164.33L158.868 165.009L158.789 158.972L160.23 158.162L163.68 162.296L162.448 162.99V162.991ZM159.967 162.016L161.175 161.337L161.06 161.185C160.744 160.774 160.481 160.42 160.268 160.125C160.056 159.831 159.923 159.639 159.869 159.55L159.787 159.417C159.843 159.715 159.899 160.51 159.956 161.806L159.967 162.016Z" fill="white"/>
<path d="M166.741 154.502L166.148 158.663L166.812 160.532L165.664 161.179L165.005 159.315L162.167 157.073L163.503 156.323L164.066 156.884C164.358 157.175 164.604 157.425 164.804 157.637C165.003 157.849 165.132 157.985 165.19 158.049L165.27 158.149C165.239 157.896 165.266 157.233 165.349 156.163L165.415 155.248L166.741 154.503V154.502Z" fill="white"/>
<path d="M172.488 151.27L172.825 152.19L171.612 152.872L173.11 156.982L171.957 157.631L170.465 153.517L169.243 154.205L168.91 153.282L172.488 151.27V151.27Z" fill="white"/>
<path d="M178.278 154.069L177.591 153.21L175.842 154.195L175.918 155.399L174.723 156.073L174.541 150.116L175.972 149.312L179.502 153.379L178.279 154.069L178.278 154.069ZM175.774 153.116L176.973 152.441L176.855 152.291C176.532 151.887 176.261 151.539 176.043 151.248C175.826 150.959 175.689 150.77 175.632 150.682L175.548 150.551C175.609 150.844 175.68 151.63 175.759 152.908L175.774 153.116V153.116Z" fill="white"/>
<path d="M180.493 149.741L178.073 148.131L179.392 147.389L180.765 148.376C180.795 148.14 180.838 147.804 180.894 147.37C180.95 146.937 180.987 146.641 181.004 146.483L182.387 145.705L181.817 149.004L184.383 150.629L183.028 151.393L181.535 150.341C181.503 150.605 181.453 150.977 181.382 151.457C181.312 151.939 181.269 152.251 181.251 152.394L179.873 153.171L180.493 149.741H180.493Z" fill="white"/>
<path d="M190.876 180.224L187.292 179.965L188.883 179.224L185.329 178.969L186.917 178.236L147.124 181.96L150.585 182.225L148.833 182.981L152.323 183.251L150.567 184.017L190.876 180.224Z" fill="#CCCCCC"/>
</g>
<path d="M43.5393 210.49H45.6993L45.5893 210.15C45.336 209.363 45.1293 208.713 44.9693 208.2C44.8093 207.68 44.7127 207.357 44.6793 207.23L44.6293 207.04C44.556 207.353 44.2293 208.39 43.6493 210.15L43.5393 210.49ZM46.5093 213L45.9793 211.35H43.2593L42.7193 213H41.6293L43.9593 206.26H45.3093L47.6093 213H46.5093ZM49.5909 207.93V208.8C49.8909 208.173 50.4176 207.86 51.1709 207.86C51.6709 207.86 52.0676 208.013 52.3609 208.32C52.6542 208.627 52.8009 209.043 52.8009 209.57V213H51.8209V209.8C51.8209 209.447 51.7309 209.177 51.5509 208.99C51.3776 208.803 51.1442 208.71 50.8509 208.71C50.5042 208.71 50.2076 208.847 49.9609 209.12C49.7142 209.387 49.5909 209.763 49.5909 210.25V213H48.6109V207.93H49.5909ZM56.1687 212.21C56.5554 212.21 56.882 212.063 57.1487 211.77C57.4154 211.477 57.5487 211.03 57.5487 210.43C57.5487 209.85 57.4087 209.42 57.1287 209.14C56.8554 208.86 56.5454 208.72 56.1987 208.72C55.8054 208.72 55.482 208.877 55.2287 209.19C54.9754 209.497 54.8487 209.937 54.8487 210.51C54.8487 211.017 54.972 211.427 55.2187 211.74C55.472 212.053 55.7887 212.21 56.1687 212.21ZM57.5487 205.93H58.5387V213H57.5487V212.23C57.1954 212.79 56.6787 213.07 55.9987 213.07C55.332 213.07 54.8054 212.82 54.4187 212.32C54.032 211.813 53.8387 211.203 53.8387 210.49C53.8387 209.697 54.042 209.06 54.4487 208.58C54.8554 208.1 55.3787 207.86 56.0187 207.86C56.6787 207.86 57.1887 208.14 57.5487 208.7V205.93ZM62.5895 210.74H61.8295C61.4562 210.74 61.1728 210.813 60.9795 210.96C60.7928 211.107 60.6995 211.293 60.6995 211.52C60.6995 211.753 60.7728 211.937 60.9195 212.07C61.0662 212.203 61.2795 212.27 61.5595 212.27C61.8795 212.27 62.1295 212.183 62.3095 212.01C62.4962 211.83 62.5895 211.597 62.5895 211.31V210.74ZM60.0395 209.14V208.19C60.4328 207.963 60.9528 207.85 61.5995 207.85C62.9262 207.85 63.5895 208.493 63.5895 209.78V213H62.6195V212.4C62.3595 212.827 61.9028 213.04 61.2495 213.04C60.7695 213.04 60.3828 212.903 60.0895 212.63C59.8028 212.35 59.6595 211.997 59.6595 211.57C59.6595 211.083 59.8428 210.707 60.2095 210.44C60.5762 210.167 61.0895 210.03 61.7495 210.03H62.5895V209.74C62.5895 209.393 62.5062 209.133 62.3395 208.96C62.1728 208.78 61.8962 208.69 61.5095 208.69C60.9695 208.69 60.4795 208.84 60.0395 209.14ZM69.4207 212.21C69.8073 212.21 70.134 212.063 70.4007 211.77C70.6673 211.477 70.8007 211.03 70.8007 210.43C70.8007 209.85 70.6607 209.42 70.3807 209.14C70.1073 208.86 69.7973 208.72 69.4507 208.72C69.0573 208.72 68.734 208.877 68.4807 209.19C68.2273 209.497 68.1007 209.937 68.1007 210.51C68.1007 211.017 68.224 211.427 68.4707 211.74C68.724 212.053 69.0407 212.21 69.4207 212.21ZM70.8007 205.93H71.7907V213H70.8007V212.23C70.4473 212.79 69.9307 213.07 69.2507 213.07C68.584 213.07 68.0573 212.82 67.6707 212.32C67.284 211.813 67.0907 211.203 67.0907 210.49C67.0907 209.697 67.294 209.06 67.7007 208.58C68.1073 208.1 68.6307 207.86 69.2707 207.86C69.9307 207.86 70.4407 208.14 70.8007 208.7V205.93ZM73.2114 213V207.93H74.2014V213H73.2114ZM73.2614 206.82C73.1481 206.7 73.0914 206.553 73.0914 206.38C73.0914 206.207 73.1481 206.06 73.2614 205.94C73.3814 205.82 73.5281 205.76 73.7014 205.76C73.8748 205.76 74.0214 205.82 74.1414 205.94C74.2614 206.06 74.3214 206.207 74.3214 206.38C74.3214 206.547 74.2614 206.69 74.1414 206.81C74.0214 206.93 73.8748 206.99 73.7014 206.99C73.5281 206.99 73.3814 206.933 73.2614 206.82ZM76.6026 205.93V208.8C76.8893 208.173 77.4126 207.86 78.1726 207.86C78.666 207.86 79.0626 208.013 79.3626 208.32C79.6626 208.627 79.8126 209.053 79.8126 209.6V213H78.8326V209.8C78.8326 209.453 78.7426 209.187 78.5626 209C78.3893 208.807 78.1593 208.71 77.8726 208.71C77.5393 208.71 77.2426 208.837 76.9826 209.09C76.7293 209.343 76.6026 209.73 76.6026 210.25V213H75.6226V205.93H76.6026ZM83.8004 210.74H83.0404C82.6671 210.74 82.3838 210.813 82.1904 210.96C82.0038 211.107 81.9104 211.293 81.9104 211.52C81.9104 211.753 81.9838 211.937 82.1304 212.07C82.2771 212.203 82.4904 212.27 82.7704 212.27C83.0904 212.27 83.3404 212.183 83.5204 212.01C83.7071 211.83 83.8004 211.597 83.8004 211.31V210.74ZM81.2504 209.14V208.19C81.6438 207.963 82.1638 207.85 82.8104 207.85C84.1371 207.85 84.8004 208.493 84.8004 209.78V213H83.8304V212.4C83.5704 212.827 83.1138 213.04 82.4604 213.04C81.9804 213.04 81.5938 212.903 81.3004 212.63C81.0138 212.35 80.8704 211.997 80.8704 211.57C80.8704 211.083 81.0538 210.707 81.4204 210.44C81.7871 210.167 82.3004 210.03 82.9604 210.03H83.8004V209.74C83.8004 209.393 83.7171 209.133 83.5504 208.96C83.3838 208.78 83.1071 208.69 82.7204 208.69C82.1804 208.69 81.6904 208.84 81.2504 209.14ZM87.1007 207.93V208.82C87.3473 208.193 87.7907 207.88 88.4307 207.88C88.524 207.88 88.6273 207.89 88.7407 207.91V208.87C88.6007 208.81 88.444 208.78 88.2707 208.78C87.9307 208.78 87.6507 208.93 87.4307 209.23C87.2107 209.53 87.1007 209.887 87.1007 210.3V213H86.1207V207.93H87.1007ZM92.6593 207.93H93.6393V213H92.6593V212.13C92.3927 212.75 91.866 213.06 91.0793 213.06C90.5793 213.06 90.1827 212.913 89.8893 212.62C89.596 212.32 89.4493 211.91 89.4493 211.39V207.93H90.4393V211.15C90.4393 211.497 90.5227 211.763 90.6893 211.95C90.8627 212.13 91.0993 212.22 91.3993 212.22C91.7793 212.22 92.0827 212.087 92.3093 211.82C92.5427 211.553 92.6593 211.177 92.6593 210.69V207.93ZM97.9071 208.1V208.99C97.5805 208.797 97.1605 208.7 96.6471 208.7C96.4138 208.7 96.2271 208.753 96.0871 208.86C95.9538 208.967 95.8871 209.107 95.8871 209.28C95.8871 209.327 95.8905 209.373 95.8971 209.42C95.9105 209.46 95.9305 209.503 95.9571 209.55C95.9838 209.59 96.0071 209.627 96.0271 209.66C96.0538 209.687 96.0938 209.717 96.1471 209.75C96.2005 209.783 96.2405 209.813 96.2671 209.84C96.3005 209.86 96.3505 209.887 96.4171 209.92C96.4905 209.953 96.5438 209.98 96.5771 210C96.6105 210.013 96.6671 210.04 96.7471 210.08C96.8338 210.113 96.8938 210.137 96.9271 210.15C97.3205 210.323 97.6271 210.52 97.8471 210.74C98.0738 210.953 98.1871 211.24 98.1871 211.6C98.1871 212.053 98.0271 212.41 97.7071 212.67C97.3871 212.923 96.9538 213.05 96.4071 213.05C95.8071 213.05 95.3071 212.95 94.9071 212.75V211.82C95.3738 212.107 95.8571 212.25 96.3571 212.25C96.6171 212.25 96.8171 212.197 96.9571 212.09C97.1038 211.983 97.1771 211.843 97.1771 211.67C97.1771 211.523 97.1205 211.393 97.0071 211.28C96.8938 211.16 96.7771 211.073 96.6571 211.02C96.5438 210.96 96.3471 210.87 96.0671 210.75C95.2738 210.423 94.8771 209.943 94.8771 209.31C94.8771 208.863 95.0438 208.513 95.3771 208.26C95.7105 208.007 96.1271 207.88 96.6271 207.88C97.1738 207.88 97.6005 207.953 97.9071 208.1ZM99.2066 213V206H100.187V213H99.2066ZM101.357 210.35L103.347 213H102.177L100.227 210.35L102.137 207.93H103.287L101.357 210.35ZM106.877 210.74H106.117C105.743 210.74 105.46 210.813 105.267 210.96C105.08 211.107 104.987 211.293 104.987 211.52C104.987 211.753 105.06 211.937 105.207 212.07C105.353 212.203 105.567 212.27 105.847 212.27C106.167 212.27 106.417 212.183 106.597 212.01C106.783 211.83 106.877 211.597 106.877 211.31V210.74ZM104.327 209.14V208.19C104.72 207.963 105.24 207.85 105.887 207.85C107.213 207.85 107.877 208.493 107.877 209.78V213H106.907V212.4C106.647 212.827 106.19 213.04 105.537 213.04C105.057 213.04 104.67 212.903 104.377 212.63C104.09 212.35 103.947 211.997 103.947 211.57C103.947 211.083 104.13 210.707 104.497 210.44C104.863 210.167 105.377 210.03 106.037 210.03H106.877V209.74C106.877 209.393 106.793 209.133 106.627 208.96C106.46 208.78 106.183 208.69 105.797 208.69C105.257 208.69 104.767 208.84 104.327 209.14ZM110.177 207.93V208.8C110.477 208.173 111.004 207.86 111.757 207.86C112.257 207.86 112.654 208.013 112.947 208.32C113.24 208.627 113.387 209.043 113.387 209.57V213H112.407V209.8C112.407 209.447 112.317 209.177 112.137 208.99C111.964 208.803 111.73 208.71 111.437 208.71C111.09 208.71 110.794 208.847 110.547 209.12C110.3 209.387 110.177 209.763 110.177 210.25V213H109.197V207.93H110.177ZM120.316 207.93H121.296V213H120.316V212.13C120.049 212.75 119.522 213.06 118.736 213.06C118.236 213.06 117.839 212.913 117.546 212.62C117.252 212.32 117.106 211.91 117.106 211.39V207.93H118.096V211.15C118.096 211.497 118.179 211.763 118.346 211.95C118.519 212.13 118.756 212.22 119.056 212.22C119.436 212.22 119.739 212.087 119.966 211.82C120.199 211.553 120.316 211.177 120.316 210.69V207.93ZM123.653 207.93V208.8C123.953 208.173 124.48 207.86 125.233 207.86C125.733 207.86 126.13 208.013 126.423 208.32C126.717 208.627 126.863 209.043 126.863 209.57V213H125.883V209.8C125.883 209.447 125.793 209.177 125.613 208.99C125.44 208.803 125.207 208.71 124.913 208.71C124.567 208.71 124.27 208.847 124.023 209.12C123.777 209.387 123.653 209.763 123.653 210.25V213H122.673V207.93H123.653ZM129.451 208.69V211.48C129.451 211.967 129.685 212.21 130.151 212.21C130.425 212.21 130.655 212.137 130.841 211.99V212.87C130.621 212.99 130.351 213.05 130.031 213.05C128.985 213.05 128.461 212.52 128.461 211.46V208.69H127.671V207.93H128.461V206.69H129.451V207.93H130.781V208.69H129.451ZM135.071 207.93H136.051V213H135.071V212.13C134.805 212.75 134.278 213.06 133.491 213.06C132.991 213.06 132.595 212.913 132.301 212.62C132.008 212.32 131.861 211.91 131.861 211.39V207.93H132.851V211.15C132.851 211.497 132.935 211.763 133.101 211.95C133.275 212.13 133.511 212.22 133.811 212.22C134.191 212.22 134.495 212.087 134.721 211.82C134.955 211.553 135.071 211.177 135.071 210.69V207.93ZM137.429 213V206H138.409V213H137.429ZM139.579 210.35L141.569 213H140.399L138.449 210.35L140.359 207.93H141.509L139.579 210.35ZM145.87 207.93V208.74C146.157 208.153 146.634 207.86 147.3 207.86C148.06 207.86 148.547 208.187 148.76 208.84C148.9 208.527 149.104 208.287 149.37 208.12C149.637 207.947 149.937 207.86 150.27 207.86C150.79 207.86 151.184 208.013 151.45 208.32C151.724 208.627 151.86 209.05 151.86 209.59V213H150.88V209.8C150.88 209.073 150.587 208.71 150 208.71C149.707 208.71 149.444 208.84 149.21 209.1C148.984 209.36 148.87 209.743 148.87 210.25V213H147.89V209.8C147.89 209.073 147.594 208.71 147 208.71C146.714 208.71 146.454 208.84 146.22 209.1C145.987 209.36 145.87 209.743 145.87 210.25V213H144.89V207.93H145.87ZM156.341 210.1V209.92C156.328 209.54 156.224 209.24 156.031 209.02C155.838 208.793 155.561 208.68 155.201 208.68C154.868 208.68 154.581 208.803 154.341 209.05C154.101 209.29 153.951 209.64 153.891 210.1H156.341ZM156.971 211.85V212.73C156.598 212.943 156.104 213.05 155.491 213.05C154.704 213.05 154.078 212.813 153.611 212.34C153.144 211.867 152.911 211.247 152.911 210.48C152.911 209.667 153.124 209.03 153.551 208.57C153.978 208.103 154.521 207.87 155.181 207.87C155.828 207.87 156.341 208.073 156.721 208.48C157.101 208.88 157.291 209.46 157.291 210.22C157.291 210.427 157.271 210.643 157.231 210.87H153.901C153.968 211.31 154.154 211.647 154.461 211.88C154.768 212.113 155.154 212.23 155.621 212.23C156.161 212.23 156.611 212.103 156.971 211.85ZM159.425 207.93V208.74C159.712 208.153 160.188 207.86 160.855 207.86C161.615 207.86 162.102 208.187 162.315 208.84C162.455 208.527 162.658 208.287 162.925 208.12C163.192 207.947 163.492 207.86 163.825 207.86C164.345 207.86 164.738 208.013 165.005 208.32C165.278 208.627 165.415 209.05 165.415 209.59V213H164.435V209.8C164.435 209.073 164.142 208.71 163.555 208.71C163.262 208.71 162.998 208.84 162.765 209.1C162.538 209.36 162.425 209.743 162.425 210.25V213H161.445V209.8C161.445 209.073 161.148 208.71 160.555 208.71C160.268 208.71 160.008 208.84 159.775 209.1C159.542 209.36 159.425 209.743 159.425 210.25V213H158.445V207.93H159.425ZM169.136 212.21C169.509 212.21 169.822 212.053 170.076 211.74C170.329 211.42 170.456 211.01 170.456 210.51C170.456 209.937 170.329 209.497 170.076 209.19C169.822 208.877 169.499 208.72 169.106 208.72C168.759 208.72 168.446 208.86 168.166 209.14C167.892 209.42 167.756 209.85 167.756 210.43C167.756 211.03 167.889 211.477 168.156 211.77C168.422 212.063 168.749 212.21 169.136 212.21ZM167.756 205.93V208.7C168.116 208.14 168.626 207.86 169.286 207.86C169.926 207.86 170.449 208.1 170.856 208.58C171.262 209.06 171.466 209.697 171.466 210.49C171.466 211.203 171.272 211.813 170.886 212.32C170.499 212.82 169.969 213.07 169.296 213.07C168.622 213.07 168.109 212.79 167.756 212.23V213H166.766V205.93H167.756ZM175.236 210.74H174.476C174.103 210.74 173.819 210.813 173.626 210.96C173.439 211.107 173.346 211.293 173.346 211.52C173.346 211.753 173.419 211.937 173.566 212.07C173.713 212.203 173.926 212.27 174.206 212.27C174.526 212.27 174.776 212.183 174.956 212.01C175.143 211.83 175.236 211.597 175.236 211.31V210.74ZM172.686 209.14V208.19C173.079 207.963 173.599 207.85 174.246 207.85C175.573 207.85 176.236 208.493 176.236 209.78V213H175.266V212.4C175.006 212.827 174.549 213.04 173.896 213.04C173.416 213.04 173.029 212.903 172.736 212.63C172.449 212.35 172.306 211.997 172.306 211.57C172.306 211.083 172.489 210.707 172.856 210.44C173.223 210.167 173.736 210.03 174.396 210.03H175.236V209.74C175.236 209.393 175.153 209.133 174.986 208.96C174.819 208.78 174.543 208.69 174.156 208.69C173.616 208.69 173.126 208.84 172.686 209.14ZM178.956 212.89L176.936 207.93H178.026L178.656 209.58L179.446 211.72C179.506 211.52 179.746 210.807 180.166 209.58L180.736 207.93H181.776L179.946 212.86C179.46 214.16 178.716 214.81 177.716 214.81C177.536 214.81 177.383 214.793 177.256 214.76V213.92C177.363 213.947 177.476 213.96 177.596 213.96C178.243 213.96 178.696 213.603 178.956 212.89ZM185.265 210.74H184.505C184.132 210.74 183.849 210.813 183.655 210.96C183.469 211.107 183.375 211.293 183.375 211.52C183.375 211.753 183.449 211.937 183.595 212.07C183.742 212.203 183.955 212.27 184.235 212.27C184.555 212.27 184.805 212.183 184.985 212.01C185.172 211.83 185.265 211.597 185.265 211.31V210.74ZM182.715 209.14V208.19C183.109 207.963 183.629 207.85 184.275 207.85C185.602 207.85 186.265 208.493 186.265 209.78V213H185.295V212.4C185.035 212.827 184.579 213.04 183.925 213.04C183.445 213.04 183.059 212.903 182.765 212.63C182.479 212.35 182.335 211.997 182.335 211.57C182.335 211.083 182.519 210.707 182.885 210.44C183.252 210.167 183.765 210.03 184.425 210.03H185.265V209.74C185.265 209.393 185.182 209.133 185.015 208.96C184.849 208.78 184.572 208.69 184.185 208.69C183.645 208.69 183.155 208.84 182.715 209.14ZM188.566 207.93V208.82C188.812 208.193 189.256 207.88 189.896 207.88C189.989 207.88 190.092 207.89 190.206 207.91V208.87C190.066 208.81 189.909 208.78 189.736 208.78C189.396 208.78 189.116 208.93 188.896 209.23C188.676 209.53 188.566 209.887 188.566 210.3V213H187.586V207.93H188.566ZM194.505 209.76H195.385C195.872 209.76 196.242 209.64 196.495 209.4C196.755 209.16 196.885 208.843 196.885 208.45C196.885 208.037 196.755 207.71 196.495 207.47C196.235 207.23 195.858 207.11 195.365 207.11H194.505V209.76ZM193.475 206.26H195.405C196.178 206.26 196.792 206.467 197.245 206.88C197.698 207.287 197.925 207.81 197.925 208.45C197.925 209.09 197.695 209.61 197.235 210.01C196.782 210.41 196.192 210.61 195.465 210.61H194.505V213H193.475V206.26ZM201.603 210.74H200.843C200.47 210.74 200.186 210.813 199.993 210.96C199.806 211.107 199.713 211.293 199.713 211.52C199.713 211.753 199.786 211.937 199.933 212.07C200.08 212.203 200.293 212.27 200.573 212.27C200.893 212.27 201.143 212.183 201.323 212.01C201.51 211.83 201.603 211.597 201.603 211.31V210.74ZM199.053 209.14V208.19C199.446 207.963 199.966 207.85 200.613 207.85C201.94 207.85 202.603 208.493 202.603 209.78V213H201.633V212.4C201.373 212.827 200.916 213.04 200.263 213.04C199.783 213.04 199.396 212.903 199.103 212.63C198.816 212.35 198.673 211.997 198.673 211.57C198.673 211.083 198.856 210.707 199.223 210.44C199.59 210.167 200.103 210.03 200.763 210.03H201.603V209.74C201.603 209.393 201.52 209.133 201.353 208.96C201.186 208.78 200.91 208.69 200.523 208.69C199.983 208.69 199.493 208.84 199.053 209.14ZM202.793 214.81V213.98C203.007 214.087 203.22 214.14 203.433 214.14C203.8 214.14 203.983 213.903 203.983 213.43V207.93H204.963V213.45C204.963 213.923 204.837 214.293 204.583 214.56C204.337 214.827 203.983 214.96 203.523 214.96C203.31 214.96 203.067 214.91 202.793 214.81ZM204.033 206.82C203.913 206.7 203.853 206.553 203.853 206.38C203.853 206.207 203.91 206.06 204.023 205.94C204.143 205.82 204.29 205.76 204.463 205.76C204.637 205.76 204.783 205.82 204.903 205.94C205.023 206.06 205.083 206.207 205.083 206.38C205.083 206.547 205.023 206.69 204.903 206.81C204.783 206.93 204.637 206.99 204.463 206.99C204.297 206.99 204.153 206.933 204.033 206.82ZM209.015 210.74H208.255C207.882 210.74 207.599 210.813 207.405 210.96C207.219 211.107 207.125 211.293 207.125 211.52C207.125 211.753 207.199 211.937 207.345 212.07C207.492 212.203 207.705 212.27 207.985 212.27C208.305 212.27 208.555 212.183 208.735 212.01C208.922 211.83 209.015 211.597 209.015 211.31V210.74ZM206.465 209.14V208.19C206.859 207.963 207.379 207.85 208.025 207.85C209.352 207.85 210.015 208.493 210.015 209.78V213H209.045V212.4C208.785 212.827 208.329 213.04 207.675 213.04C207.195 213.04 206.809 212.903 206.515 212.63C206.229 212.35 206.085 211.997 206.085 211.57C206.085 211.083 206.269 210.707 206.635 210.44C207.002 210.167 207.515 210.03 208.175 210.03H209.015V209.74C209.015 209.393 208.932 209.133 208.765 208.96C208.599 208.78 208.322 208.69 207.935 208.69C207.395 208.69 206.905 208.84 206.465 209.14ZM211.336 213V206H212.316V213H211.336ZM213.486 210.35L215.476 213H214.306L212.356 210.35L214.266 207.93H215.416L213.486 210.35ZM219.866 209.76H220.746C221.233 209.76 221.603 209.64 221.856 209.4C222.116 209.16 222.246 208.843 222.246 208.45C222.246 208.037 222.116 207.71 221.856 207.47C221.596 207.23 221.22 207.11 220.726 207.11H219.866V209.76ZM218.836 206.26H220.766C221.54 206.26 222.153 206.467 222.606 206.88C223.06 207.287 223.286 207.81 223.286 208.45C223.286 209.09 223.056 209.61 222.596 210.01C222.143 210.41 221.553 210.61 220.826 210.61H219.866V213H218.836V206.26ZM227.444 210.1V209.92C227.431 209.54 227.328 209.24 227.134 209.02C226.941 208.793 226.664 208.68 226.304 208.68C225.971 208.68 225.684 208.803 225.444 209.05C225.204 209.29 225.054 209.64 224.994 210.1H227.444ZM228.074 211.85V212.73C227.701 212.943 227.208 213.05 226.594 213.05C225.808 213.05 225.181 212.813 224.714 212.34C224.248 211.867 224.014 211.247 224.014 210.48C224.014 209.667 224.228 209.03 224.654 208.57C225.081 208.103 225.624 207.87 226.284 207.87C226.931 207.87 227.444 208.073 227.824 208.48C228.204 208.88 228.394 209.46 228.394 210.22C228.394 210.427 228.374 210.643 228.334 210.87H225.004C225.071 211.31 225.258 211.647 225.564 211.88C225.871 212.113 226.258 212.23 226.724 212.23C227.264 212.23 227.714 212.103 228.074 211.85ZM230.528 207.93V208.8C230.828 208.173 231.355 207.86 232.108 207.86C232.608 207.86 233.005 208.013 233.298 208.32C233.592 208.627 233.738 209.043 233.738 209.57V213H232.758V209.8C232.758 209.447 232.668 209.177 232.488 208.99C232.315 208.803 232.082 208.71 231.788 208.71C231.442 208.71 231.145 208.847 230.898 209.12C230.652 209.387 230.528 209.763 230.528 210.25V213H229.548V207.93H230.528ZM237.056 212.02C237.403 212.02 237.703 211.887 237.956 211.62C238.216 211.347 238.346 210.967 238.346 210.48C238.346 209.88 238.223 209.437 237.976 209.15C237.736 208.863 237.443 208.72 237.096 208.72C236.703 208.72 236.393 208.877 236.166 209.19C235.94 209.497 235.826 209.903 235.826 210.41C235.826 210.937 235.946 211.337 236.186 211.61C236.433 211.883 236.723 212.02 237.056 212.02ZM238.346 207.93H239.326V212.57C239.326 213.35 239.103 213.937 238.656 214.33C238.216 214.73 237.65 214.93 236.956 214.93C236.303 214.93 235.753 214.82 235.306 214.6V213.61C235.733 213.89 236.25 214.03 236.856 214.03C237.85 214.03 238.346 213.54 238.346 212.56V212.04C238.02 212.587 237.53 212.86 236.876 212.86C236.303 212.86 235.813 212.65 235.406 212.23C235 211.803 234.796 211.203 234.796 210.43C234.796 209.683 234.986 209.07 235.366 208.59C235.746 208.103 236.25 207.86 236.876 207.86C237.55 207.86 238.04 208.147 238.346 208.72V207.93ZM241.622 205.93V208.8C241.909 208.173 242.432 207.86 243.192 207.86C243.685 207.86 244.082 208.013 244.382 208.32C244.682 208.627 244.832 209.053 244.832 209.6V213H243.852V209.8C243.852 209.453 243.762 209.187 243.582 209C243.409 208.807 243.179 208.71 242.892 208.71C242.559 208.71 242.262 208.837 242.002 209.09C241.749 209.343 241.622 209.73 241.622 210.25V213H240.642V205.93H241.622ZM248.82 210.74H248.06C247.687 210.74 247.403 210.813 247.21 210.96C247.023 211.107 246.93 211.293 246.93 211.52C246.93 211.753 247.003 211.937 247.15 212.07C247.297 212.203 247.51 212.27 247.79 212.27C248.11 212.27 248.36 212.183 248.54 212.01C248.727 211.83 248.82 211.597 248.82 211.31V210.74ZM246.27 209.14V208.19C246.663 207.963 247.183 207.85 247.83 207.85C249.157 207.85 249.82 208.493 249.82 209.78V213H248.85V212.4C248.59 212.827 248.133 213.04 247.48 213.04C247 213.04 246.613 212.903 246.32 212.63C246.033 212.35 245.89 211.997 245.89 211.57C245.89 211.083 246.073 210.707 246.44 210.44C246.807 210.167 247.32 210.03 247.98 210.03H248.82V209.74C248.82 209.393 248.737 209.133 248.57 208.96C248.403 208.78 248.127 208.69 247.74 208.69C247.2 208.69 246.71 208.84 246.27 209.14ZM254.03 208.1V208.99C253.704 208.797 253.284 208.7 252.77 208.7C252.537 208.7 252.35 208.753 252.21 208.86C252.077 208.967 252.01 209.107 252.01 209.28C252.01 209.327 252.014 209.373 252.02 209.42C252.034 209.46 252.054 209.503 252.08 209.55C252.107 209.59 252.13 209.627 252.15 209.66C252.177 209.687 252.217 209.717 252.27 209.75C252.324 209.783 252.364 209.813 252.39 209.84C252.424 209.86 252.474 209.887 252.54 209.92C252.614 209.953 252.667 209.98 252.7 210C252.734 210.013 252.79 210.04 252.87 210.08C252.957 210.113 253.017 210.137 253.05 210.15C253.444 210.323 253.75 210.52 253.97 210.74C254.197 210.953 254.31 211.24 254.31 211.6C254.31 212.053 254.15 212.41 253.83 212.67C253.51 212.923 253.077 213.05 252.53 213.05C251.93 213.05 251.43 212.95 251.03 212.75V211.82C251.497 212.107 251.98 212.25 252.48 212.25C252.74 212.25 252.94 212.197 253.08 212.09C253.227 211.983 253.3 211.843 253.3 211.67C253.3 211.523 253.244 211.393 253.13 211.28C253.017 211.16 252.9 211.073 252.78 211.02C252.667 210.96 252.47 210.87 252.19 210.75C251.397 210.423 251 209.943 251 209.31C251 208.863 251.167 208.513 251.5 208.26C251.834 208.007 252.25 207.88 252.75 207.88C253.297 207.88 253.724 207.953 254.03 208.1ZM255.37 213V207.93H256.36V213H255.37ZM255.42 206.82C255.306 206.7 255.25 206.553 255.25 206.38C255.25 206.207 255.306 206.06 255.42 205.94C255.54 205.82 255.686 205.76 255.86 205.76C256.033 205.76 256.18 205.82 256.3 205.94C256.42 206.06 256.48 206.207 256.48 206.38C256.48 206.547 256.42 206.69 256.3 206.81C256.18 206.93 256.033 206.99 255.86 206.99C255.686 206.99 255.54 206.933 255.42 206.82ZM257.821 213V205.93H258.811V213H257.821ZM262.902 210.74H262.142C261.769 210.74 261.485 210.813 261.292 210.96C261.105 211.107 261.012 211.293 261.012 211.52C261.012 211.753 261.085 211.937 261.232 212.07C261.379 212.203 261.592 212.27 261.872 212.27C262.192 212.27 262.442 212.183 262.622 212.01C262.809 211.83 262.902 211.597 262.902 211.31V210.74ZM260.352 209.14V208.19C260.745 207.963 261.265 207.85 261.912 207.85C263.239 207.85 263.902 208.493 263.902 209.78V213H262.932V212.4C262.672 212.827 262.215 213.04 261.562 213.04C261.082 213.04 260.695 212.903 260.402 212.63C260.115 212.35 259.972 211.997 259.972 211.57C259.972 211.083 260.155 210.707 260.522 210.44C260.889 210.167 261.402 210.03 262.062 210.03H262.902V209.74C262.902 209.393 262.819 209.133 262.652 208.96C262.485 208.78 262.209 208.69 261.822 208.69C261.282 208.69 260.792 208.84 260.352 209.14ZM266.202 207.93V208.8C266.502 208.173 267.029 207.86 267.782 207.86C268.282 207.86 268.679 208.013 268.972 208.32C269.266 208.627 269.412 209.043 269.412 209.57V213H268.432V209.8C268.432 209.447 268.342 209.177 268.162 208.99C267.989 208.803 267.756 208.71 267.462 208.71C267.116 208.71 266.819 208.847 266.572 209.12C266.326 209.387 266.202 209.763 266.202 210.25V213H265.222V207.93H266.202ZM269.96 214.24L270.92 211.9H272.13L270.82 214.24H269.96ZM277.042 212.89L275.022 207.93H276.112L276.742 209.58L277.532 211.72C277.592 211.52 277.832 210.807 278.252 209.58L278.822 207.93H279.862L278.032 212.86C277.545 214.16 276.802 214.81 275.802 214.81C275.622 214.81 275.469 214.793 275.342 214.76V213.92C275.449 213.947 275.562 213.96 275.682 213.96C276.329 213.96 276.782 213.603 277.042 212.89ZM283.351 210.74H282.591C282.218 210.74 281.935 210.813 281.741 210.96C281.555 211.107 281.461 211.293 281.461 211.52C281.461 211.753 281.535 211.937 281.681 212.07C281.828 212.203 282.041 212.27 282.321 212.27C282.641 212.27 282.891 212.183 283.071 212.01C283.258 211.83 283.351 211.597 283.351 211.31V210.74ZM280.801 209.14V208.19C281.195 207.963 281.715 207.85 282.361 207.85C283.688 207.85 284.351 208.493 284.351 209.78V213H283.381V212.4C283.121 212.827 282.665 213.04 282.011 213.04C281.531 213.04 281.145 212.903 280.851 212.63C280.565 212.35 280.421 211.997 280.421 211.57C280.421 211.083 280.605 210.707 280.971 210.44C281.338 210.167 281.851 210.03 282.511 210.03H283.351V209.74C283.351 209.393 283.268 209.133 283.101 208.96C282.935 208.78 282.658 208.69 282.271 208.69C281.731 208.69 281.241 208.84 280.801 209.14ZM285.711 213V207.93H286.701V213H285.711ZM285.761 206.82C285.648 206.7 285.591 206.553 285.591 206.38C285.591 206.207 285.648 206.06 285.761 205.94C285.881 205.82 286.028 205.76 286.201 205.76C286.375 205.76 286.521 205.82 286.641 205.94C286.761 206.06 286.821 206.207 286.821 206.38C286.821 206.547 286.761 206.69 286.641 206.81C286.521 206.93 286.375 206.99 286.201 206.99C286.028 206.99 285.881 206.933 285.761 206.82ZM289.393 208.69V211.48C289.393 211.967 289.626 212.21 290.093 212.21C290.366 212.21 290.596 212.137 290.783 211.99V212.87C290.563 212.99 290.293 213.05 289.973 213.05C288.926 213.05 288.403 212.52 288.403 211.46V208.69H287.613V207.93H288.403V206.69H289.393V207.93H290.723V208.69H289.393ZM295.013 207.93H295.993V213H295.013V212.13C294.746 212.75 294.22 213.06 293.433 213.06C292.933 213.06 292.536 212.913 292.243 212.62C291.95 212.32 291.803 211.91 291.803 211.39V207.93H292.793V211.15C292.793 211.497 292.876 211.763 293.043 211.95C293.216 212.13 293.453 212.22 293.753 212.22C294.133 212.22 294.436 212.087 294.663 211.82C294.896 211.553 295.013 211.177 295.013 210.69V207.93ZM89.6306 228.21C90.0173 228.21 90.344 228.063 90.6106 227.77C90.8773 227.477 91.0106 227.03 91.0106 226.43C91.0106 225.85 90.8706 225.42 90.5906 225.14C90.3173 224.86 90.0073 224.72 89.6606 224.72C89.2673 224.72 88.944 224.877 88.6906 225.19C88.4373 225.497 88.3106 225.937 88.3106 226.51C88.3106 227.017 88.434 227.427 88.6806 227.74C88.934 228.053 89.2506 228.21 89.6306 228.21ZM91.0106 221.93H92.0006V229H91.0106V228.23C90.6573 228.79 90.1406 229.07 89.4606 229.07C88.794 229.07 88.2673 228.82 87.8806 228.32C87.494 227.813 87.3006 227.203 87.3006 226.49C87.3006 225.697 87.504 225.06 87.9106 224.58C88.3173 224.1 88.8406 223.86 89.4806 223.86C90.1406 223.86 90.6506 224.14 91.0106 224.7V221.93ZM96.0514 226.74H95.2914C94.9181 226.74 94.6347 226.813 94.4414 226.96C94.2547 227.107 94.1614 227.293 94.1614 227.52C94.1614 227.753 94.2347 227.937 94.3814 228.07C94.5281 228.203 94.7414 228.27 95.0214 228.27C95.3414 228.27 95.5914 228.183 95.7714 228.01C95.9581 227.83 96.0514 227.597 96.0514 227.31V226.74ZM93.5014 225.14V224.19C93.8947 223.963 94.4147 223.85 95.0614 223.85C96.3881 223.85 97.0514 224.493 97.0514 225.78V229H96.0814V228.4C95.8214 228.827 95.3647 229.04 94.7114 229.04C94.2314 229.04 93.8447 228.903 93.5514 228.63C93.2647 228.35 93.1214 227.997 93.1214 227.57C93.1214 227.083 93.3047 226.707 93.6714 226.44C94.0381 226.167 94.5514 226.03 95.2114 226.03H96.0514V225.74C96.0514 225.393 95.9681 225.133 95.8014 224.96C95.6347 224.78 95.3581 224.69 94.9714 224.69C94.4314 224.69 93.9414 224.84 93.5014 225.14ZM99.3516 223.93V224.82C99.5983 224.193 100.042 223.88 100.682 223.88C100.775 223.88 100.878 223.89 100.992 223.91V224.87C100.852 224.81 100.695 224.78 100.522 224.78C100.182 224.78 99.9016 224.93 99.6816 225.23C99.4616 225.53 99.3516 225.887 99.3516 226.3V229H98.3716V223.93H99.3516ZM101.8 229V223.93H102.79V229H101.8ZM101.85 222.82C101.737 222.7 101.68 222.553 101.68 222.38C101.68 222.207 101.737 222.06 101.85 221.94C101.97 221.82 102.117 221.76 102.29 221.76C102.464 221.76 102.61 221.82 102.73 221.94C102.85 222.06 102.91 222.207 102.91 222.38C102.91 222.547 102.85 222.69 102.73 222.81C102.61 222.93 102.464 222.99 102.29 222.99C102.117 222.99 101.97 222.933 101.85 222.82ZM107.942 224.69V227.48C107.942 227.967 108.176 228.21 108.642 228.21C108.916 228.21 109.146 228.137 109.332 227.99V228.87C109.112 228.99 108.842 229.05 108.522 229.05C107.476 229.05 106.952 228.52 106.952 227.46V224.69H106.162V223.93H106.952V222.69H107.942V223.93H109.272V224.69H107.942ZM112.533 229.09C111.786 229.09 111.199 228.847 110.773 228.36C110.346 227.873 110.133 227.257 110.133 226.51C110.133 225.75 110.353 225.12 110.793 224.62C111.233 224.113 111.813 223.86 112.533 223.86C113.306 223.86 113.903 224.107 114.323 224.6C114.743 225.087 114.953 225.71 114.953 226.47C114.953 227.23 114.736 227.857 114.303 228.35C113.876 228.843 113.286 229.09 112.533 229.09ZM112.523 224.69C112.089 224.69 111.753 224.863 111.513 225.21C111.273 225.55 111.153 225.973 111.153 226.48C111.153 226.98 111.276 227.403 111.523 227.75C111.769 228.09 112.106 228.26 112.533 228.26C112.986 228.26 113.329 228.093 113.563 227.76C113.803 227.427 113.923 227.003 113.923 226.49C113.923 225.963 113.809 225.533 113.583 225.2C113.356 224.86 113.003 224.69 112.523 224.69ZM117.327 224.69V227.48C117.327 227.967 117.561 228.21 118.027 228.21C118.301 228.21 118.531 228.137 118.717 227.99V228.87C118.497 228.99 118.227 229.05 117.907 229.05C116.861 229.05 116.337 228.52 116.337 227.46V224.69H115.547V223.93H116.337V222.69H117.327V223.93H118.657V224.69H117.327ZM122.467 226.74H121.707C121.334 226.74 121.051 226.813 120.857 226.96C120.671 227.107 120.577 227.293 120.577 227.52C120.577 227.753 120.651 227.937 120.797 228.07C120.944 228.203 121.157 228.27 121.437 228.27C121.757 228.27 122.007 228.183 122.187 228.01C122.374 227.83 122.467 227.597 122.467 227.31V226.74ZM119.917 225.14V224.19C120.311 223.963 120.831 223.85 121.477 223.85C122.804 223.85 123.467 224.493 123.467 225.78V229H122.497V228.4C122.237 228.827 121.781 229.04 121.127 229.04C120.647 229.04 120.261 228.903 119.967 228.63C119.681 228.35 119.537 227.997 119.537 227.57C119.537 227.083 119.721 226.707 120.087 226.44C120.454 226.167 120.967 226.03 121.627 226.03H122.467V225.74C122.467 225.393 122.384 225.133 122.217 224.96C122.051 224.78 121.774 224.69 121.387 224.69C120.847 224.69 120.357 224.84 119.917 225.14ZM124.828 229V221.93H125.818V229H124.828ZM132.04 228.21C132.433 228.21 132.756 228.057 133.01 227.75C133.263 227.437 133.39 227 133.39 226.44C133.39 225.913 133.266 225.497 133.02 225.19C132.773 224.877 132.46 224.72 132.08 224.72C131.7 224.72 131.37 224.86 131.09 225.14C130.816 225.413 130.68 225.85 130.68 226.45C130.68 227.037 130.816 227.477 131.09 227.77C131.37 228.063 131.686 228.21 132.04 228.21ZM130.68 223.93V224.71C131.026 224.143 131.546 223.86 132.24 223.86C132.906 223.86 133.433 224.103 133.82 224.59C134.206 225.07 134.4 225.683 134.4 226.43C134.4 227.197 134.2 227.83 133.8 228.33C133.406 228.823 132.88 229.07 132.22 229.07C131.546 229.07 131.033 228.79 130.68 228.23V230.94H129.7V223.93H130.68ZM138.651 226.1V225.92C138.637 225.54 138.534 225.24 138.341 225.02C138.147 224.793 137.871 224.68 137.511 224.68C137.177 224.68 136.891 224.803 136.651 225.05C136.411 225.29 136.261 225.64 136.201 226.1H138.651ZM139.281 227.85V228.73C138.907 228.943 138.414 229.05 137.801 229.05C137.014 229.05 136.387 228.813 135.921 228.34C135.454 227.867 135.221 227.247 135.221 226.48C135.221 225.667 135.434 225.03 135.861 224.57C136.287 224.103 136.831 223.87 137.491 223.87C138.137 223.87 138.651 224.073 139.031 224.48C139.411 224.88 139.601 225.46 139.601 226.22C139.601 226.427 139.581 226.643 139.541 226.87H136.211C136.277 227.31 136.464 227.647 136.771 227.88C137.077 228.113 137.464 228.23 137.931 228.23C138.471 228.23 138.921 228.103 139.281 227.85ZM141.734 223.93V224.8C142.034 224.173 142.561 223.86 143.314 223.86C143.814 223.86 144.211 224.013 144.504 224.32C144.798 224.627 144.944 225.043 144.944 225.57V229H143.964V225.8C143.964 225.447 143.874 225.177 143.694 224.99C143.521 224.803 143.288 224.71 142.994 224.71C142.648 224.71 142.351 224.847 142.104 225.12C141.858 225.387 141.734 225.763 141.734 226.25V229H140.754V223.93H141.734ZM148.262 228.02C148.609 228.02 148.909 227.887 149.162 227.62C149.422 227.347 149.552 226.967 149.552 226.48C149.552 225.88 149.429 225.437 149.182 225.15C148.942 224.863 148.649 224.72 148.302 224.72C147.909 224.72 147.599 224.877 147.372 225.19C147.146 225.497 147.032 225.903 147.032 226.41C147.032 226.937 147.152 227.337 147.392 227.61C147.639 227.883 147.929 228.02 148.262 228.02ZM149.552 223.93H150.532V228.57C150.532 229.35 150.309 229.937 149.862 230.33C149.422 230.73 148.856 230.93 148.162 230.93C147.509 230.93 146.959 230.82 146.512 230.6V229.61C146.939 229.89 147.456 230.03 148.062 230.03C149.056 230.03 149.552 229.54 149.552 228.56V228.04C149.226 228.587 148.736 228.86 148.082 228.86C147.509 228.86 147.019 228.65 146.612 228.23C146.206 227.803 146.002 227.203 146.002 226.43C146.002 225.683 146.192 225.07 146.572 224.59C146.952 224.103 147.456 223.86 148.082 223.86C148.756 223.86 149.246 224.147 149.552 224.72V223.93ZM152.828 221.93V224.8C153.115 224.173 153.638 223.86 154.398 223.86C154.892 223.86 155.288 224.013 155.588 224.32C155.888 224.627 156.038 225.053 156.038 225.6V229H155.058V225.8C155.058 225.453 154.968 225.187 154.788 225C154.615 224.807 154.385 224.71 154.098 224.71C153.765 224.71 153.468 224.837 153.208 225.09C152.955 225.343 152.828 225.73 152.828 226.25V229H151.848V221.93H152.828ZM160.026 226.74H159.266C158.893 226.74 158.609 226.813 158.416 226.96C158.229 227.107 158.136 227.293 158.136 227.52C158.136 227.753 158.209 227.937 158.356 228.07C158.503 228.203 158.716 228.27 158.996 228.27C159.316 228.27 159.566 228.183 159.746 228.01C159.933 227.83 160.026 227.597 160.026 227.31V226.74ZM157.476 225.14V224.19C157.869 223.963 158.389 223.85 159.036 223.85C160.363 223.85 161.026 224.493 161.026 225.78V229H160.056V228.4C159.796 228.827 159.339 229.04 158.686 229.04C158.206 229.04 157.819 228.903 157.526 228.63C157.239 228.35 157.096 227.997 157.096 227.57C157.096 227.083 157.279 226.707 157.646 226.44C158.013 226.167 158.526 226.03 159.186 226.03H160.026V225.74C160.026 225.393 159.943 225.133 159.776 224.96C159.609 224.78 159.333 224.69 158.946 224.69C158.406 224.69 157.916 224.84 157.476 225.14ZM165.236 224.1V224.99C164.91 224.797 164.49 224.7 163.976 224.7C163.743 224.7 163.556 224.753 163.416 224.86C163.283 224.967 163.216 225.107 163.216 225.28C163.216 225.327 163.22 225.373 163.226 225.42C163.24 225.46 163.26 225.503 163.286 225.55C163.313 225.59 163.336 225.627 163.356 225.66C163.383 225.687 163.423 225.717 163.476 225.75C163.53 225.783 163.57 225.813 163.596 225.84C163.63 225.86 163.68 225.887 163.746 225.92C163.82 225.953 163.873 225.98 163.906 226C163.94 226.013 163.996 226.04 164.076 226.08C164.163 226.113 164.223 226.137 164.256 226.15C164.65 226.323 164.956 226.52 165.176 226.74C165.403 226.953 165.516 227.24 165.516 227.6C165.516 228.053 165.356 228.41 165.036 228.67C164.716 228.923 164.283 229.05 163.736 229.05C163.136 229.05 162.636 228.95 162.236 228.75V227.82C162.703 228.107 163.186 228.25 163.686 228.25C163.946 228.25 164.146 228.197 164.286 228.09C164.433 227.983 164.506 227.843 164.506 227.67C164.506 227.523 164.45 227.393 164.336 227.28C164.223 227.16 164.106 227.073 163.986 227.02C163.873 226.96 163.676 226.87 163.396 226.75C162.603 226.423 162.206 225.943 162.206 225.31C162.206 224.863 162.373 224.513 162.706 224.26C163.04 224.007 163.456 223.88 163.956 223.88C164.503 223.88 164.93 223.953 165.236 224.1ZM166.576 229V223.93H167.566V229H166.576ZM166.626 222.82C166.512 222.7 166.456 222.553 166.456 222.38C166.456 222.207 166.512 222.06 166.626 221.94C166.746 221.82 166.892 221.76 167.066 221.76C167.239 221.76 167.386 221.82 167.506 221.94C167.626 222.06 167.686 222.207 167.686 222.38C167.686 222.547 167.626 222.69 167.506 222.81C167.386 222.93 167.239 222.99 167.066 222.99C166.892 222.99 166.746 222.933 166.626 222.82ZM169.027 229V221.93H170.017V229H169.027ZM174.108 226.74H173.348C172.975 226.74 172.691 226.813 172.498 226.96C172.311 227.107 172.218 227.293 172.218 227.52C172.218 227.753 172.291 227.937 172.438 228.07C172.585 228.203 172.798 228.27 173.078 228.27C173.398 228.27 173.648 228.183 173.828 228.01C174.015 227.83 174.108 227.597 174.108 227.31V226.74ZM171.558 225.14V224.19C171.951 223.963 172.471 223.85 173.118 223.85C174.445 223.85 175.108 224.493 175.108 225.78V229H174.138V228.4C173.878 228.827 173.421 229.04 172.768 229.04C172.288 229.04 171.901 228.903 171.608 228.63C171.321 228.35 171.178 227.997 171.178 227.57C171.178 227.083 171.361 226.707 171.728 226.44C172.095 226.167 172.608 226.03 173.268 226.03H174.108V225.74C174.108 225.393 174.025 225.133 173.858 224.96C173.691 224.78 173.415 224.69 173.028 224.69C172.488 224.69 171.998 224.84 171.558 225.14ZM177.408 223.93V224.8C177.708 224.173 178.235 223.86 178.988 223.86C179.488 223.86 179.885 224.013 180.178 224.32C180.472 224.627 180.618 225.043 180.618 225.57V229H179.638V225.8C179.638 225.447 179.548 225.177 179.368 224.99C179.195 224.803 178.962 224.71 178.668 224.71C178.322 224.71 178.025 224.847 177.778 225.12C177.532 225.387 177.408 225.763 177.408 226.25V229H176.428V223.93H177.408ZM187.287 224.1V224.99C186.96 224.797 186.54 224.7 186.027 224.7C185.794 224.7 185.607 224.753 185.467 224.86C185.334 224.967 185.267 225.107 185.267 225.28C185.267 225.327 185.27 225.373 185.277 225.42C185.29 225.46 185.31 225.503 185.337 225.55C185.364 225.59 185.387 225.627 185.407 225.66C185.434 225.687 185.474 225.717 185.527 225.75C185.58 225.783 185.62 225.813 185.647 225.84C185.68 225.86 185.73 225.887 185.797 225.92C185.87 225.953 185.924 225.98 185.957 226C185.99 226.013 186.047 226.04 186.127 226.08C186.214 226.113 186.274 226.137 186.307 226.15C186.7 226.323 187.007 226.52 187.227 226.74C187.454 226.953 187.567 227.24 187.567 227.6C187.567 228.053 187.407 228.41 187.087 228.67C186.767 228.923 186.334 229.05 185.787 229.05C185.187 229.05 184.687 228.95 184.287 228.75V227.82C184.754 228.107 185.237 228.25 185.737 228.25C185.997 228.25 186.197 228.197 186.337 228.09C186.484 227.983 186.557 227.843 186.557 227.67C186.557 227.523 186.5 227.393 186.387 227.28C186.274 227.16 186.157 227.073 186.037 227.02C185.924 226.96 185.727 226.87 185.447 226.75C184.654 226.423 184.257 225.943 184.257 225.31C184.257 224.863 184.424 224.513 184.757 224.26C185.09 224.007 185.507 223.88 186.007 223.88C186.554 223.88 186.98 223.953 187.287 224.1ZM191.736 226.1V225.92C191.723 225.54 191.62 225.24 191.426 225.02C191.233 224.793 190.956 224.68 190.596 224.68C190.263 224.68 189.976 224.803 189.736 225.05C189.496 225.29 189.346 225.64 189.286 226.1H191.736ZM192.366 227.85V228.73C191.993 228.943 191.5 229.05 190.886 229.05C190.1 229.05 189.473 228.813 189.006 228.34C188.54 227.867 188.306 227.247 188.306 226.48C188.306 225.667 188.52 225.03 188.946 224.57C189.373 224.103 189.916 223.87 190.576 223.87C191.223 223.87 191.736 224.073 192.116 224.48C192.496 224.88 192.686 225.46 192.686 226.22C192.686 226.427 192.666 226.643 192.626 226.87H189.296C189.363 227.31 189.55 227.647 189.856 227.88C190.163 228.113 190.55 228.23 191.016 228.23C191.556 228.23 192.006 228.103 192.366 227.85ZM196.23 228.21C196.604 228.21 196.917 228.053 197.17 227.74C197.424 227.42 197.55 227.01 197.55 226.51C197.55 225.937 197.424 225.497 197.17 225.19C196.917 224.877 196.594 224.72 196.2 224.72C195.854 224.72 195.54 224.86 195.26 225.14C194.987 225.42 194.85 225.85 194.85 226.43C194.85 227.03 194.984 227.477 195.25 227.77C195.517 228.063 195.844 228.21 196.23 228.21ZM194.85 221.93V224.7C195.21 224.14 195.72 223.86 196.38 223.86C197.02 223.86 197.544 224.1 197.95 224.58C198.357 225.06 198.56 225.697 198.56 226.49C198.56 227.203 198.367 227.813 197.98 228.32C197.594 228.82 197.064 229.07 196.39 229.07C195.717 229.07 195.204 228.79 194.85 228.23V229H193.86V221.93H194.85ZM202.811 226.1V225.92C202.797 225.54 202.694 225.24 202.501 225.02C202.307 224.793 202.031 224.68 201.671 224.68C201.337 224.68 201.051 224.803 200.811 225.05C200.571 225.29 200.421 225.64 200.361 226.1H202.811ZM203.441 227.85V228.73C203.067 228.943 202.574 229.05 201.961 229.05C201.174 229.05 200.547 228.813 200.081 228.34C199.614 227.867 199.381 227.247 199.381 226.48C199.381 225.667 199.594 225.03 200.021 224.57C200.447 224.103 200.991 223.87 201.651 223.87C202.297 223.87 202.811 224.073 203.191 224.48C203.571 224.88 203.761 225.46 203.761 226.22C203.761 226.427 203.741 226.643 203.701 226.87H200.371C200.437 227.31 200.624 227.647 200.931 227.88C201.237 228.113 201.624 228.23 202.091 228.23C202.631 228.23 203.081 228.103 203.441 227.85ZM207.805 224.1V224.99C207.478 224.797 207.058 224.7 206.545 224.7C206.311 224.7 206.125 224.753 205.985 224.86C205.851 224.967 205.785 225.107 205.785 225.28C205.785 225.327 205.788 225.373 205.795 225.42C205.808 225.46 205.828 225.503 205.855 225.55C205.881 225.59 205.905 225.627 205.925 225.66C205.951 225.687 205.991 225.717 206.045 225.75C206.098 225.783 206.138 225.813 206.165 225.84C206.198 225.86 206.248 225.887 206.315 225.92C206.388 225.953 206.441 225.98 206.475 226C206.508 226.013 206.565 226.04 206.645 226.08C206.731 226.113 206.791 226.137 206.825 226.15C207.218 226.323 207.525 226.52 207.745 226.74C207.971 226.953 208.085 227.24 208.085 227.6C208.085 228.053 207.925 228.41 207.605 228.67C207.285 228.923 206.851 229.05 206.305 229.05C205.705 229.05 205.205 228.95 204.805 228.75V227.82C205.271 228.107 205.755 228.25 206.255 228.25C206.515 228.25 206.715 228.197 206.855 228.09C207.001 227.983 207.075 227.843 207.075 227.67C207.075 227.523 207.018 227.393 206.905 227.28C206.791 227.16 206.675 227.073 206.555 227.02C206.441 226.96 206.245 226.87 205.965 226.75C205.171 226.423 204.775 225.943 204.775 225.31C204.775 224.863 204.941 224.513 205.275 224.26C205.608 224.007 206.025 223.88 206.525 223.88C207.071 223.88 207.498 223.953 207.805 224.1ZM211.774 226.74H211.014C210.641 226.74 210.357 226.813 210.164 226.96C209.977 227.107 209.884 227.293 209.884 227.52C209.884 227.753 209.957 227.937 210.104 228.07C210.251 228.203 210.464 228.27 210.744 228.27C211.064 228.27 211.314 228.183 211.494 228.01C211.681 227.83 211.774 227.597 211.774 227.31V226.74ZM209.224 225.14V224.19C209.617 223.963 210.137 223.85 210.784 223.85C212.111 223.85 212.774 224.493 212.774 225.78V229H211.804V228.4C211.544 228.827 211.087 229.04 210.434 229.04C209.954 229.04 209.567 228.903 209.274 228.63C208.987 228.35 208.844 227.997 208.844 227.57C208.844 227.083 209.027 226.707 209.394 226.44C209.761 226.167 210.274 226.03 210.934 226.03H211.774V225.74C211.774 225.393 211.691 225.133 211.524 224.96C211.357 224.78 211.081 224.69 210.694 224.69C210.154 224.69 209.664 224.84 209.224 225.14ZM215.074 223.93V224.82C215.321 224.193 215.764 223.88 216.404 223.88C216.498 223.88 216.601 223.89 216.714 223.91V224.87C216.574 224.81 216.418 224.78 216.244 224.78C215.904 224.78 215.624 224.93 215.404 225.23C215.184 225.53 215.074 225.887 215.074 226.3V229H214.094V223.93H215.074Z" fill="#2B2B2B"/>
<path d="M72.3234 223.3V225.02C72.5701 224.967 72.7968 224.94 73.0034 224.94C73.6834 224.94 74.2168 225.12 74.6034 225.48C74.9901 225.833 75.1834 226.313 75.1834 226.92C75.1834 227.573 74.9668 228.097 74.5334 228.49C74.1068 228.877 73.5101 229.07 72.7434 229.07C72.0568 229.07 71.4901 228.957 71.0434 228.73V227.78C71.4701 228.04 71.9834 228.17 72.5834 228.17C73.6368 228.17 74.1634 227.743 74.1634 226.89C74.1634 226.55 74.0434 226.287 73.8034 226.1C73.5701 225.907 73.2534 225.81 72.8534 225.81C72.3468 225.81 71.8468 225.927 71.3534 226.16V222.45H74.7434V223.3H72.3234ZM77.7118 229.01L81.3518 222.23H82.2818L78.6318 229.01H77.7118ZM80.6018 227.4C80.6018 226.94 80.7651 226.547 81.0918 226.22C81.4185 225.887 81.8151 225.72 82.2818 225.72C82.7418 225.72 83.1351 225.887 83.4618 226.22C83.7885 226.547 83.9518 226.94 83.9518 227.4C83.9518 227.867 83.7885 228.263 83.4618 228.59C83.1351 228.91 82.7418 229.07 82.2818 229.07C81.8151 229.07 81.4185 228.91 81.0918 228.59C80.7651 228.263 80.6018 227.867 80.6018 227.4ZM76.0718 223.8C76.0718 223.34 76.2351 222.947 76.5618 222.62C76.8885 222.293 77.2818 222.13 77.7418 222.13C78.2085 222.13 78.6051 222.293 78.9318 222.62C79.2585 222.947 79.4218 223.34 79.4218 223.8C79.4218 224.267 79.2585 224.663 78.9318 224.99C78.6051 225.317 78.2085 225.48 77.7418 225.48C77.2818 225.48 76.8885 225.317 76.5618 224.99C76.2351 224.663 76.0718 224.267 76.0718 223.8ZM76.9018 223.8C76.9018 224.033 76.9818 224.233 77.1418 224.4C77.3085 224.567 77.5085 224.65 77.7418 224.65C77.9751 224.65 78.1751 224.567 78.3418 224.4C78.5085 224.233 78.5918 224.033 78.5918 223.8C78.5918 223.567 78.5085 223.37 78.3418 223.21C78.1751 223.043 77.9751 222.96 77.7418 222.96C77.5085 222.96 77.3085 223.043 77.1418 223.21C76.9818 223.377 76.9018 223.573 76.9018 223.8ZM81.6818 226.8C81.5151 226.967 81.4318 227.167 81.4318 227.4C81.4318 227.633 81.5151 227.833 81.6818 228C81.8485 228.167 82.0485 228.25 82.2818 228.25C82.5151 228.25 82.7118 228.167 82.8718 228C83.0385 227.833 83.1218 227.633 83.1218 227.4C83.1218 227.167 83.0385 226.967 82.8718 226.8C82.7118 226.633 82.5151 226.55 82.2818 226.55C82.0485 226.55 81.8485 226.633 81.6818 226.8Z" fill="#B76F09"/>
<path d="M221.014 223.12V225.58H221.944C222.371 225.58 222.694 225.47 222.914 225.25C223.134 225.023 223.244 224.723 223.244 224.35C223.244 223.53 222.794 223.12 221.894 223.12H221.014ZM223.484 229L221.904 226.44H221.014V229H219.984V222.26H221.864C222.637 222.26 223.234 222.45 223.654 222.83C224.074 223.203 224.284 223.713 224.284 224.36C224.277 224.833 224.157 225.237 223.924 225.57C223.691 225.897 223.367 226.133 222.954 226.28L224.714 229H223.484ZM227.968 228.21C228.361 228.21 228.684 228.057 228.938 227.75C229.191 227.437 229.318 227 229.318 226.44C229.318 225.913 229.194 225.497 228.948 225.19C228.701 224.877 228.388 224.72 228.008 224.72C227.628 224.72 227.298 224.86 227.018 225.14C226.744 225.413 226.608 225.85 226.608 226.45C226.608 227.037 226.744 227.477 227.018 227.77C227.298 228.063 227.614 228.21 227.968 228.21ZM226.608 223.93V224.71C226.954 224.143 227.474 223.86 228.168 223.86C228.834 223.86 229.361 224.103 229.748 224.59C230.134 225.07 230.328 225.683 230.328 226.43C230.328 227.197 230.128 227.83 229.728 228.33C229.334 228.823 228.808 229.07 228.148 229.07C227.474 229.07 226.961 228.79 226.608 228.23V230.94H225.628V223.93H226.608ZM234.909 228.15H237.749V229H233.559V228.19C234.399 227.577 235.106 226.943 235.679 226.29C236.259 225.63 236.549 225.03 236.549 224.49C236.549 224.11 236.439 223.82 236.219 223.62C235.999 223.413 235.696 223.31 235.309 223.31C234.776 223.31 234.253 223.51 233.739 223.91V222.94C234.219 222.573 234.789 222.39 235.449 222.39C236.063 222.39 236.569 222.563 236.969 222.91C237.369 223.25 237.569 223.737 237.569 224.37C237.569 225.543 236.683 226.803 234.909 228.15ZM239.96 223.3V225.02C240.207 224.967 240.433 224.94 240.64 224.94C241.32 224.94 241.853 225.12 242.24 225.48C242.627 225.833 242.82 226.313 242.82 226.92C242.82 227.573 242.603 228.097 242.17 228.49C241.743 228.877 241.147 229.07 240.38 229.07C239.693 229.07 239.127 228.957 238.68 228.73V227.78C239.107 228.04 239.62 228.17 240.22 228.17C241.273 228.17 241.8 227.743 241.8 226.89C241.8 226.55 241.68 226.287 241.44 226.1C241.207 225.907 240.89 225.81 240.49 225.81C239.983 225.81 239.483 225.927 238.99 226.16V222.45H242.38V223.3H239.96ZM243.639 225.71C243.639 224.683 243.842 223.87 244.249 223.27C244.662 222.663 245.225 222.36 245.939 222.36C246.665 222.36 247.235 222.66 247.649 223.26C248.062 223.86 248.269 224.677 248.269 225.71C248.269 226.73 248.065 227.547 247.659 228.16C247.259 228.773 246.685 229.08 245.939 229.08C245.225 229.08 244.662 228.773 244.249 228.16C243.842 227.547 243.639 226.73 243.639 225.71ZM245.009 223.91C244.762 224.33 244.639 224.93 244.639 225.71C244.639 226.49 244.759 227.097 244.999 227.53C245.245 227.957 245.559 228.17 245.939 228.17C246.352 228.17 246.675 227.957 246.909 227.53C247.142 227.103 247.259 226.497 247.259 225.71C247.259 224.917 247.135 224.313 246.889 223.9C246.649 223.48 246.332 223.27 245.939 223.27C245.565 223.27 245.255 223.483 245.009 223.91ZM248.598 230.24L249.558 227.9H250.768L249.458 230.24H248.598ZM251.539 225.71C251.539 224.683 251.742 223.87 252.149 223.27C252.562 222.663 253.126 222.36 253.839 222.36C254.566 222.36 255.136 222.66 255.549 223.26C255.962 223.86 256.169 224.677 256.169 225.71C256.169 226.73 255.966 227.547 255.559 228.16C255.159 228.773 254.586 229.08 253.839 229.08C253.126 229.08 252.562 228.773 252.149 228.16C251.742 227.547 251.539 226.73 251.539 225.71ZM252.909 223.91C252.662 224.33 252.539 224.93 252.539 225.71C252.539 226.49 252.659 227.097 252.899 227.53C253.146 227.957 253.459 228.17 253.839 228.17C254.252 228.17 254.576 227.957 254.809 227.53C255.042 227.103 255.159 226.497 255.159 225.71C255.159 224.917 255.036 224.313 254.789 223.9C254.549 223.48 254.232 223.27 253.839 223.27C253.466 223.27 253.156 223.483 252.909 223.91ZM256.988 225.71C256.988 224.683 257.191 223.87 257.598 223.27C258.011 222.663 258.575 222.36 259.288 222.36C260.015 222.36 260.585 222.66 260.998 223.26C261.411 223.86 261.618 224.677 261.618 225.71C261.618 226.73 261.415 227.547 261.008 228.16C260.608 228.773 260.035 229.08 259.288 229.08C258.575 229.08 258.011 228.773 257.598 228.16C257.191 227.547 256.988 226.73 256.988 225.71ZM258.358 223.91C258.111 224.33 257.988 224.93 257.988 225.71C257.988 226.49 258.108 227.097 258.348 227.53C258.595 227.957 258.908 228.17 259.288 228.17C259.701 228.17 260.025 227.957 260.258 227.53C260.491 227.103 260.608 226.497 260.608 225.71C260.608 224.917 260.485 224.313 260.238 223.9C259.998 223.48 259.681 223.27 259.288 223.27C258.915 223.27 258.605 223.483 258.358 223.91ZM262.437 225.71C262.437 224.683 262.641 223.87 263.047 223.27C263.461 222.663 264.024 222.36 264.737 222.36C265.464 222.36 266.034 222.66 266.447 223.26C266.861 223.86 267.067 224.677 267.067 225.71C267.067 226.73 266.864 227.547 266.457 228.16C266.057 228.773 265.484 229.08 264.737 229.08C264.024 229.08 263.461 228.773 263.047 228.16C262.641 227.547 262.437 226.73 262.437 225.71ZM263.807 223.91C263.561 224.33 263.437 224.93 263.437 225.71C263.437 226.49 263.557 227.097 263.797 227.53C264.044 227.957 264.357 228.17 264.737 228.17C265.151 228.17 265.474 227.957 265.707 227.53C265.941 227.103 266.057 226.497 266.057 225.71C266.057 224.917 265.934 224.313 265.687 223.9C265.447 223.48 265.131 223.27 264.737 223.27C264.364 223.27 264.054 223.483 263.807 223.91Z" fill="#FF1934"/>
<rect x="109" y="275" width="120" height="24" rx="8" fill="#FF1934"/>
<path d="M157.959 288.176L158.823 288.176C159.468 288.176 159.791 287.931 159.791 287.44C159.791 286.939 159.455 286.688 158.783 286.688L157.959 286.688L157.959 288.176ZM157.959 284.432L157.959 285.88L158.567 285.88C158.929 285.88 159.201 285.808 159.383 285.664C159.564 285.52 159.655 285.336 159.655 285.112C159.655 284.904 159.577 284.739 159.423 284.616C159.273 284.493 159.044 284.432 158.735 284.432L157.959 284.432ZM156.951 283.608L158.863 283.608C159.439 283.608 159.887 283.744 160.207 284.016C160.527 284.288 160.687 284.64 160.687 285.072C160.687 285.365 160.607 285.621 160.447 285.84C160.287 286.053 160.081 286.195 159.831 286.264C160.119 286.333 160.356 286.475 160.543 286.688C160.729 286.896 160.823 287.181 160.823 287.544C160.823 287.971 160.673 288.32 160.375 288.592C160.076 288.864 159.663 289 159.135 289L156.951 289L156.951 283.608ZM163.053 286.952L164.573 286.952L164.501 286.712C164.32 286.136 164.17 285.653 164.053 285.264C163.941 284.869 163.872 284.621 163.845 284.52L163.813 284.36C163.765 284.627 163.536 285.413 163.125 286.72L163.053 286.952ZM165.213 289L164.829 287.776L162.789 287.776L162.405 289L161.349 289L163.173 283.608L164.477 283.608L166.301 289L165.213 289ZM171.364 283.608L169.508 287L169.508 289L168.5 289L168.5 287.032L166.66 283.608L167.836 283.608L168.196 284.392C168.404 284.845 168.574 285.227 168.708 285.536C168.841 285.84 168.921 286.029 168.948 286.104L168.996 286.224C169.044 286.027 169.318 285.416 169.82 284.392L170.188 283.608L171.364 283.608ZM173.436 286.952L174.956 286.952L174.884 286.712C174.702 286.136 174.553 285.653 174.436 285.264C174.324 284.869 174.254 284.621 174.228 284.52L174.196 284.36C174.148 284.627 173.918 285.413 173.508 286.72L173.436 286.952ZM175.596 289L175.212 287.776L173.172 287.776L172.788 289L171.732 289L173.556 283.608L174.86 283.608L176.684 289L175.596 289ZM178.466 284.44L178.466 286.2L179.138 286.2C179.448 286.2 179.68 286.123 179.834 285.968C179.989 285.808 180.066 285.587 180.066 285.304C180.066 285.027 179.984 284.813 179.818 284.664C179.658 284.515 179.426 284.44 179.122 284.44L178.466 284.44ZM180.242 289L179.018 287.032L178.466 287.032L178.466 289L177.458 289L177.458 283.608L179.122 283.608C179.736 283.608 180.216 283.763 180.562 284.072C180.914 284.381 181.09 284.795 181.09 285.312C181.085 285.696 180.992 286.021 180.81 286.288C180.629 286.549 180.381 286.744 180.066 286.872L181.45 289L180.242 289Z" fill="white"/>
<path d="M9 341.5H329C333.694 341.5 337.5 345.306 337.5 350C337.5 354.694 333.694 358.5 329 358.5H9C4.30558 358.5 0.5 354.694 0.5 350C0.500002 345.306 4.30558 341.5 9 341.5Z" fill="white"/>
<path d="M9 341.5H329C333.694 341.5 337.5 345.306 337.5 350C337.5 354.694 333.694 358.5 329 358.5H9C4.30558 358.5 0.5 354.694 0.5 350C0.500002 345.306 4.30558 341.5 9 341.5Z" stroke="#CCCCCC"/>
<path d="M7.86805e-07 350C3.52265e-07 345.029 4.02944 341 9 341L39 341C43.9706 341 48 345.029 48 350C48 354.971 43.9706 359 39 359L9 359C4.02944 359 1.22135e-06 354.971 7.86805e-07 350Z" fill="#FF1934"/>
<path d="M15.448 346.688H16.264L16.816 348.6L17.456 350.92C17.5893 350.179 17.7547 349.403 17.952 348.592L18.44 346.608H19.464L18.088 352H16.92L16.432 350.296C16.2987 349.843 16.184 349.443 16.088 349.096C15.9973 348.749 15.936 348.517 15.904 348.4L15.864 348.216C15.7893 348.589 15.6027 349.283 15.304 350.296L14.8 352H13.64L12.2 346.608H13.264L13.768 348.6C13.8533 348.957 13.9387 349.328 14.024 349.712C14.1093 350.096 14.1733 350.389 14.216 350.592L14.28 350.904C14.4507 350.232 14.6587 349.464 14.904 348.6L15.448 346.688ZM22.2561 350.256H21.7601C21.5094 350.256 21.3174 350.309 21.1841 350.416C21.0507 350.517 20.9841 350.648 20.9841 350.808C20.9841 351.149 21.1814 351.32 21.5761 351.32C21.7894 351.32 21.9547 351.259 22.0721 351.136C22.1947 351.008 22.2561 350.843 22.2561 350.64V350.256ZM20.2881 349.04V348.152C20.5921 347.965 21.0294 347.872 21.6001 347.872C22.6987 347.872 23.2481 348.384 23.2481 349.408V352H22.2961V351.512C22.1094 351.859 21.7574 352.032 21.2401 352.032C20.8561 352.032 20.5494 351.92 20.3201 351.696C20.0961 351.472 19.9841 351.189 19.9841 350.848C19.9841 350.464 20.1281 350.163 20.4161 349.944C20.7041 349.725 21.1201 349.616 21.6641 349.616H22.2561V349.368C22.2561 349.144 22.1974 348.973 22.0801 348.856C21.9627 348.739 21.7627 348.68 21.4801 348.68C21.0481 348.68 20.6507 348.8 20.2881 349.04ZM27.7828 352H26.6548L25.1988 349.904V352H24.2388V346.44H25.1988V349.848L26.6308 347.944H27.7508L26.2628 349.88L27.7828 352ZM29.5864 348.664V350.728C29.5864 350.899 29.6318 351.029 29.7224 351.12C29.8131 351.205 29.9384 351.248 30.0984 351.248C30.3011 351.248 30.4878 351.192 30.6584 351.08V351.904C30.4718 351.995 30.2318 352.04 29.9384 352.04C29.0638 352.04 28.6264 351.597 28.6264 350.712V348.664H28.0184V347.944H28.6264V346.968H29.5864V347.944H30.5944V348.664H29.5864ZM33.9617 347.944H34.9297V352H33.9617V351.336C33.7484 351.805 33.3324 352.04 32.7137 352.04C32.303 352.04 31.983 351.923 31.7537 351.688C31.5244 351.453 31.4097 351.12 31.4097 350.688V347.944H32.3697V350.464C32.3697 350.72 32.431 350.915 32.5537 351.048C32.6817 351.181 32.855 351.248 33.0737 351.248C33.351 351.248 33.567 351.155 33.7217 350.968C33.8817 350.781 33.9617 350.499 33.9617 350.12V347.944Z" fill="white"/>
<rect x="56" y="348" width="274" height="4" rx="2" fill="#CCCCCC"/>
<mask id="mask0_1124_4113" style="mask-type:alpha" maskUnits="userSpaceOnUse" x="56" y="348" width="274" height="4">
<rect x="56" y="348" width="274" height="4" rx="2" fill="#CCCCCC"/>
</mask>
<g mask="url(#mask0_1124_4113)">
<rect x="56" y="348" width="274" height="4" rx="2" fill="#FF1934"/>
</g>
<defs>
<filter id="filter0_d_1124_4113" x="5" y="48" width="328" height="56" filterUnits="userSpaceOnUse" color-interpolation-filters="sRGB">
<feFlood flood-opacity="0" result="BackgroundImageFix"/>
<feColorMatrix in="SourceAlpha" type="matrix" values="0 0 0 0 0 0 0 0 0 0 0 0 0 0 0 0 0 0 127 0" result="hardAlpha"/>
<feOffset dy="2"/>
<feGaussianBlur stdDeviation="2"/>
<feComposite in2="hardAlpha" operator="out"/>
<feColorMatrix type="matrix" values="0 0 0 0 0.168627 0 0 0 0 0.168627 0 0 0 0 0.168627 0 0 0 0.24 0"/>
<feBlend mode="normal" in2="BackgroundImageFix" result="effect1_dropShadow_1124_4113"/>
<feBlend mode="normal" in="SourceGraphic" in2="effect1_dropShadow_1124_4113" result="shape"/>
</filter>
<clipPath id="clip0_1124_4113">
<rect width="24" height="24" fill="white" transform="translate(25 66)"/>
</clipPath>
<clipPath id="clip1_1124_4113">
<rect width="64" height="64" fill="white" transform="translate(137 130)"/>
</clipPath>
</defs>
</svg>
