<svg width="289" height="236" viewBox="0 0 289 236" fill="none" xmlns="http://www.w3.org/2000/svg">
<rect width="289" height="236" fill="#D3D3D3"/>
<rect width="289" height="236" rx="16" fill="white"/>
<g filter="url(#filter0_d_1124_4113)">
<path d="M0 16C0 7.16344 7.16344 0 16 0H273C281.837 0 289 7.16344 289 16V48H0V16Z" fill="#FF1934" shape-rendering="crispEdges"/>
<g clip-path="url(#clip0_1124_4113)">
<path d="M36.97 26.6C35.02 19.22 28.08 19 27.98 19C27.91 19 20.97 19.23 19.02 26.6C18.94 26.9 19.05 27.22 19.29 27.42C19.53 27.62 19.87 27.66 20.15 27.52C20.17 27.51 22.53 26.37 24.09 27.46C24.37 27.65 24.74 27.64 25.02 27.45C25.02 27.45 25.81 26.9 27.19 26.74V33.11C27.19 34.37 26.16 35.4 24.9 35.4C24.46 35.4 24.1 35.76 24.1 36.2C24.1 36.64 24.46 37 24.9 37C27.04 37 28.79 35.26 28.79 33.11V26.74C30.17 26.91 30.96 27.44 30.96 27.45C31.24 27.65 31.61 27.66 31.89 27.47C33.46 26.39 35.81 27.52 35.83 27.53C35.94 27.59 36.07 27.61 36.19 27.61C36.37 27.61 36.55 27.55 36.7 27.43C36.94 27.23 37.05 26.91 36.97 26.61V26.6ZM31.44 25.87C30.83 25.55 29.65 25.08 28 25.08C26.35 25.08 25.17 25.55 24.56 25.87C23.38 25.26 22.08 25.33 21.08 25.54C23.13 20.78 27.8 20.6 27.99 20.59C28.21 20.59 32.88 20.78 34.93 25.54C33.93 25.33 32.63 25.26 31.45 25.87H31.44Z" fill="white"/>
</g>
<path d="M51.668 28.332H53.936L53.838 27.996C53.5673 27.0813 53.3433 26.302 53.166 25.658C52.998 25.014 52.8953 24.5987 52.858 24.412L52.802 24.132C52.7273 24.6453 52.382 25.9333 51.766 27.996L51.668 28.332ZM55.028 32L54.454 30.068H51.15L50.576 32H48.322L51.472 22.564H54.188L57.338 32H55.028ZM62.986 25.112V26.862C62.4913 26.5727 61.9127 26.428 61.25 26.428C61.0073 26.428 60.8207 26.4793 60.69 26.582C60.5593 26.6753 60.494 26.7967 60.494 26.946C60.494 27.03 60.5173 27.1093 60.564 27.184C60.6107 27.2587 60.6853 27.3287 60.788 27.394C60.9 27.4593 61.0027 27.52 61.096 27.576C61.1987 27.6227 61.334 27.6833 61.502 27.758C61.6793 27.8327 61.8193 27.898 61.922 27.954C62.3513 28.178 62.6967 28.4393 62.958 28.738C63.2193 29.0273 63.35 29.4007 63.35 29.858C63.35 30.558 63.098 31.0993 62.594 31.482C62.09 31.8647 61.4227 32.056 60.592 32.056C59.7333 32.056 59.0147 31.9113 58.436 31.622V29.802C59.08 30.25 59.7613 30.474 60.48 30.474C60.9933 30.474 61.25 30.3107 61.25 29.984C61.25 29.9 61.2267 29.8207 61.18 29.746C61.1333 29.6713 61.054 29.6013 60.942 29.536C60.83 29.4707 60.7273 29.4193 60.634 29.382C60.5407 29.3353 60.4053 29.2747 60.228 29.2C60.0507 29.1253 59.9153 29.0647 59.822 29.018C58.8793 28.57 58.408 27.898 58.408 27.002C58.408 26.3113 58.6693 25.7747 59.192 25.392C59.724 25.0093 60.382 24.818 61.166 24.818C61.894 24.818 62.5007 24.916 62.986 25.112ZM68.9997 24.902H71.0437V32H68.9997V30.866C68.6263 31.6593 67.9077 32.056 66.8437 32.056C66.1157 32.056 65.5463 31.8553 65.1357 31.454C64.7343 31.0433 64.5337 30.4413 64.5337 29.648V24.902H66.5777V29.186C66.5777 30.0167 66.9417 30.432 67.6697 30.432C68.5563 30.432 68.9997 29.8393 68.9997 28.654V24.902ZM74.7548 24.902V26.218C74.8854 25.8073 75.1001 25.4807 75.3988 25.238C75.7068 24.986 76.0614 24.86 76.4628 24.86C76.6868 24.86 76.8641 24.8787 76.9948 24.916V26.848C76.7708 26.7453 76.5141 26.694 76.2248 26.694C75.7861 26.694 75.4314 26.8573 75.1608 27.184C74.8901 27.5013 74.7548 27.926 74.7548 28.458V32H72.7108L72.7248 24.902H74.7548ZM81.4204 29.088H80.7624C80.4171 29.088 80.1511 29.1627 79.9644 29.312C79.7777 29.4613 79.6844 29.6527 79.6844 29.886C79.6844 30.362 79.9597 30.6 80.5104 30.6C80.7997 30.6 81.0237 30.5113 81.1824 30.334C81.3411 30.1567 81.4204 29.914 81.4204 29.606V29.088ZM78.1024 27.086V25.252C78.6624 24.9347 79.4697 24.776 80.5244 24.776C81.5324 24.776 82.2837 24.9953 82.7784 25.434C83.2731 25.8633 83.5204 26.5353 83.5204 27.45V32H81.5184V31.132C81.2197 31.7387 80.6317 32.042 79.7544 32.042C79.0637 32.042 78.5224 31.846 78.1304 31.454C77.7477 31.062 77.5564 30.572 77.5564 29.984C77.5564 29.3027 77.8037 28.7753 78.2984 28.402C78.8024 28.0193 79.5444 27.828 80.5244 27.828H81.4204V27.338C81.4204 26.7407 81.0237 26.442 80.2304 26.442C79.4651 26.442 78.7557 26.6567 78.1024 27.086ZM87.1692 24.902V26.106C87.3465 25.714 87.6172 25.406 87.9812 25.182C88.3545 24.9487 88.7978 24.832 89.3112 24.832C90.0392 24.832 90.6085 25.0513 91.0192 25.49C91.4298 25.9193 91.6352 26.554 91.6352 27.394V32H89.5912V27.772C89.5912 27.352 89.4932 27.0347 89.2972 26.82C89.1012 26.596 88.8258 26.484 88.4712 26.484C88.0978 26.484 87.7852 26.6333 87.5332 26.932C87.2905 27.2213 87.1692 27.66 87.1692 28.248V32H85.1252V24.902H87.1692ZM97.7263 25.112V26.862C97.2316 26.5727 96.6529 26.428 95.9903 26.428C95.7476 26.428 95.5609 26.4793 95.4303 26.582C95.2996 26.6753 95.2343 26.7967 95.2343 26.946C95.2343 27.03 95.2576 27.1093 95.3043 27.184C95.3509 27.2587 95.4256 27.3287 95.5283 27.394C95.6403 27.4593 95.7429 27.52 95.8363 27.576C95.9389 27.6227 96.0743 27.6833 96.2423 27.758C96.4196 27.8327 96.5596 27.898 96.6623 27.954C97.0916 28.178 97.4369 28.4393 97.6983 28.738C97.9596 29.0273 98.0903 29.4007 98.0903 29.858C98.0903 30.558 97.8383 31.0993 97.3343 31.482C96.8303 31.8647 96.1629 32.056 95.3323 32.056C94.4736 32.056 93.7549 31.9113 93.1763 31.622V29.802C93.8203 30.25 94.5016 30.474 95.2203 30.474C95.7336 30.474 95.9903 30.3107 95.9903 29.984C95.9903 29.9 95.9669 29.8207 95.9203 29.746C95.8736 29.6713 95.7943 29.6013 95.6823 29.536C95.5703 29.4707 95.4676 29.4193 95.3743 29.382C95.2809 29.3353 95.1456 29.2747 94.9683 29.2C94.7909 29.1253 94.6556 29.0647 94.5623 29.018C93.6196 28.57 93.1483 27.898 93.1483 27.002C93.1483 26.3113 93.4096 25.7747 93.9323 25.392C94.4643 25.0093 95.1223 24.818 95.9062 24.818C96.6343 24.818 97.2409 24.916 97.7263 25.112ZM99.4139 32V24.902H101.458V32H99.4139ZM99.5959 23.684C99.3626 23.4507 99.2459 23.1707 99.2459 22.844C99.2459 22.5173 99.3626 22.2373 99.5959 22.004C99.8292 21.7707 100.109 21.654 100.436 21.654C100.763 21.654 101.043 21.7707 101.276 22.004C101.509 22.2373 101.626 22.5173 101.626 22.844C101.626 23.1707 101.509 23.4507 101.276 23.684C101.043 23.9173 100.763 24.034 100.436 24.034C100.109 24.034 99.8292 23.9173 99.5959 23.684Z" fill="white"/>
</g>
<g clip-path="url(#clip1_1124_4113)">
<path d="M163.584 111.188L153.274 84.6509C152.57 82.8365 151.003 81.5776 149.081 81.2806C147.158 80.9837 145.285 81.712 144.069 83.2282L126.234 105.427C125.018 106.943 124.712 108.93 125.417 110.742C126.121 112.555 127.69 113.814 129.61 114.11C130.576 114.259 131.481 113.596 131.63 112.63C131.779 111.665 131.116 110.76 130.151 110.611C129.185 110.461 128.834 109.758 128.718 109.46C128.602 109.162 128.398 108.389 128.996 107.644L146.83 85.4445C147.429 84.6989 148.227 84.7302 148.54 84.7789C148.854 84.8275 149.625 85.0381 149.972 85.9315L160.282 112.469C160.629 113.363 160.202 114.038 160.001 114.287C159.801 114.536 159.235 115.099 158.289 114.953L136.713 111.624C135.747 111.475 134.842 112.138 134.693 113.103C134.544 114.069 135.207 114.974 136.172 115.123L157.749 118.452C159.669 118.749 161.545 118.021 162.762 116.506C163.98 114.99 164.287 113.003 163.583 111.188H163.584Z" fill="#FF1934"/>
<path d="M143.779 107.36C143.402 107.638 143.159 108.047 143.088 108.507C143.051 108.748 143.06 108.975 143.114 109.206C143.168 109.438 143.271 109.633 143.398 109.832C143.546 110.035 143.726 110.174 143.909 110.292C144.115 110.413 144.326 110.492 144.568 110.529C145.027 110.6 145.492 110.493 145.87 110.214C146.27 109.941 146.513 109.53 146.588 109.047C146.662 108.564 146.529 108.122 146.272 107.745C145.717 106.988 144.536 106.806 143.779 107.361V107.36Z" fill="#FF1934"/>
<path d="M149.368 92.4275C149.243 91.479 148.616 90.5587 147.671 90.4134C146.726 90.2675 145.851 90.9561 145.446 91.8227C143.847 95.2409 144.542 99.3376 143.865 103.724C143.719 104.669 144.368 105.554 145.313 105.7C146.258 105.846 147.143 105.197 147.288 104.252C147.966 99.8656 149.863 96.1689 149.368 92.4275Z" fill="#FF1934"/>
<path d="M161.192 124.924L149.336 120.744C148.526 120.458 147.059 120.252 145.409 120.19C143.759 120.129 142.273 120.226 141.435 120.45L129.136 123.732C128.297 123.956 128.279 124.261 129.089 124.547C129.9 124.832 131.368 125.039 133.016 125.1C133.845 125.131 134.525 125.036 134.534 124.888C134.543 124.74 133.877 124.595 133.048 124.564C132.236 124.534 131.84 124.422 131.706 124.375C131.573 124.328 131.308 124.207 131.721 124.097L144.021 120.814C144.433 120.704 145.107 120.715 145.377 120.725C145.647 120.735 146.318 120.774 146.718 120.915L158.574 125.094C158.974 125.235 158.696 125.336 158.558 125.373C158.419 125.41 158.012 125.492 157.2 125.462L138.681 124.773C137.852 124.742 137.173 124.837 137.164 124.985C137.155 125.133 137.821 125.278 138.65 125.309L157.169 125.997C158.817 126.059 160.304 125.962 161.144 125.738C161.984 125.514 162.002 125.209 161.192 124.924V124.924Z" fill="#CCCCCC"/>
<path d="M144.101 124.173C143.817 124.212 143.663 124.274 143.658 124.344C143.656 124.381 143.691 124.417 143.764 124.452C143.837 124.488 143.948 124.52 144.078 124.551C144.226 124.584 144.394 124.607 144.562 124.626C144.75 124.646 144.936 124.66 145.144 124.668C145.538 124.683 145.916 124.67 146.199 124.63C146.503 124.591 146.657 124.529 146.661 124.456C146.665 124.382 146.501 124.312 146.24 124.252C145.683 124.131 144.668 124.093 144.1 124.173H144.101Z" fill="#CCCCCC"/>
<path d="M146.994 121.913C146.775 121.766 146.138 121.619 145.326 121.588C144.515 121.558 143.863 121.658 143.627 121.788C142.696 122.303 143.774 122.941 143.734 123.613C143.726 123.757 144.376 123.9 145.187 123.93C145.999 123.96 146.663 123.867 146.672 123.722C146.712 123.051 147.859 122.495 146.993 121.914L146.994 121.913Z" fill="#CCCCCC"/>
</g>
<path d="M23.6193 140.51V141.36C23.2127 141.093 22.726 140.96 22.1593 140.96C21.7527 140.96 21.4293 141.057 21.1893 141.25C20.9493 141.437 20.8293 141.683 20.8293 141.99C20.8293 142.15 20.8593 142.293 20.9193 142.42C20.986 142.547 21.0993 142.667 21.2593 142.78C21.4193 142.887 21.556 142.97 21.6693 143.03C21.7827 143.083 21.9593 143.163 22.1993 143.27C22.426 143.37 22.5993 143.45 22.7193 143.51C22.8393 143.563 22.9927 143.653 23.1793 143.78C23.3727 143.9 23.516 144.02 23.6093 144.14C23.7093 144.253 23.796 144.407 23.8693 144.6C23.9493 144.787 23.9893 144.99 23.9893 145.21C23.9893 145.803 23.786 146.263 23.3793 146.59C22.9727 146.91 22.4493 147.07 21.8093 147.07C21.1027 147.07 20.5027 146.927 20.0093 146.64V145.77C20.496 146.137 21.0893 146.32 21.7893 146.32C22.2093 146.32 22.5393 146.227 22.7793 146.04C23.0193 145.853 23.1393 145.583 23.1393 145.23C23.1393 145.083 23.1093 144.953 23.0493 144.84C22.996 144.72 22.9027 144.613 22.7693 144.52C22.6427 144.42 22.5193 144.34 22.3993 144.28C22.286 144.213 22.1293 144.133 21.9293 144.04C21.8893 144.02 21.8293 143.993 21.7493 143.96C21.4627 143.833 21.2427 143.73 21.0893 143.65C20.9427 143.57 20.766 143.453 20.5593 143.3C20.3593 143.14 20.2127 142.957 20.1193 142.75C20.026 142.543 19.9793 142.303 19.9793 142.03C19.9793 141.457 20.1827 141.01 20.5893 140.69C21.0027 140.363 21.5193 140.2 22.1393 140.2C22.7193 140.2 23.2127 140.303 23.6193 140.51ZM28.0235 144.66H27.1435C26.7168 144.66 26.3968 144.743 26.1835 144.91C25.9701 145.077 25.8635 145.287 25.8635 145.54C25.8635 145.793 25.9468 146 26.1135 146.16C26.2801 146.313 26.5235 146.39 26.8435 146.39C27.2035 146.39 27.4901 146.29 27.7035 146.09C27.9168 145.883 28.0235 145.623 28.0235 145.31V144.66ZM25.4035 142.99V142.2C25.7835 141.967 26.2835 141.85 26.9035 141.85C28.1768 141.85 28.8135 142.497 28.8135 143.79V147H28.0335V146.4C27.7735 146.833 27.3001 147.05 26.6135 147.05C26.1401 147.05 25.7568 146.91 25.4635 146.63C25.1768 146.35 25.0335 145.997 25.0335 145.57C25.0335 145.083 25.2168 144.707 25.5835 144.44C25.9568 144.167 26.4635 144.03 27.1035 144.03H28.0235V143.77C28.0235 143.37 27.9335 143.07 27.7535 142.87C27.5735 142.663 27.2701 142.56 26.8435 142.56C26.3035 142.56 25.8235 142.703 25.4035 142.99ZM30.2554 147V139.93H31.0454V147H30.2554ZM34.4793 146.36C34.8927 146.36 35.2427 146.207 35.5293 145.9C35.8227 145.593 35.9693 145.103 35.9693 144.43C35.9693 143.79 35.8193 143.32 35.5193 143.02C35.2193 142.72 34.8893 142.57 34.5293 142.57C34.1093 142.57 33.7593 142.74 33.4793 143.08C33.206 143.413 33.0693 143.893 33.0693 144.52C33.0693 145.067 33.2027 145.51 33.4693 145.85C33.736 146.19 34.0727 146.36 34.4793 146.36ZM35.9693 139.93H36.7593V147H35.9693V146.25C35.6093 146.803 35.0893 147.08 34.4093 147.08C33.736 147.08 33.206 146.83 32.8193 146.33C32.4393 145.83 32.2493 145.223 32.2493 144.51C32.2493 143.717 32.4527 143.077 32.8593 142.59C33.266 142.097 33.7893 141.85 34.4293 141.85C35.0893 141.85 35.6027 142.133 35.9693 142.7V139.93ZM40.2832 147.09C39.5565 147.09 38.9798 146.847 38.5532 146.36C38.1332 145.867 37.9232 145.247 37.9232 144.5C37.9232 143.747 38.1398 143.12 38.5732 142.62C39.0132 142.113 39.5832 141.86 40.2832 141.86C41.0498 141.86 41.6398 142.107 42.0532 142.6C42.4732 143.093 42.6832 143.72 42.6832 144.48C42.6832 145.233 42.4698 145.857 42.0432 146.35C41.6165 146.843 41.0298 147.09 40.2832 147.09ZM40.2832 142.56C39.8032 142.56 39.4265 142.747 39.1532 143.12C38.8798 143.493 38.7432 143.95 38.7432 144.49C38.7432 145.017 38.8832 145.467 39.1632 145.84C39.4432 146.207 39.8165 146.39 40.2832 146.39C40.7898 146.39 41.1798 146.21 41.4532 145.85C41.7265 145.483 41.8632 145.03 41.8632 144.49C41.8632 143.93 41.7332 143.47 41.4732 143.11C41.2132 142.743 40.8165 142.56 40.2832 142.56ZM47.5998 144.54H49.9898L49.8598 144.15L48.8098 140.91C48.7298 141.197 48.3698 142.28 47.7298 144.16L47.5998 144.54ZM50.8098 147L50.2198 145.23H47.3698L46.7698 147H45.8998L48.2498 140.26H49.3698L51.6798 147H50.8098ZM53.5442 141.93V142.81C53.8442 142.177 54.3775 141.86 55.1442 141.86C55.6375 141.86 56.0308 142.01 56.3242 142.31C56.6175 142.61 56.7642 143.01 56.7642 143.51V147H55.9742V143.72C55.9742 143.347 55.8775 143.063 55.6842 142.87C55.4975 142.67 55.2508 142.57 54.9442 142.57C54.5642 142.57 54.2342 142.717 53.9542 143.01C53.6808 143.303 53.5442 143.71 53.5442 144.23V147H52.7642V141.93H53.5442ZM60.0946 146.36C60.5079 146.36 60.8579 146.207 61.1446 145.9C61.4379 145.593 61.5846 145.103 61.5846 144.43C61.5846 143.79 61.4346 143.32 61.1346 143.02C60.8346 142.72 60.5046 142.57 60.1446 142.57C59.7246 142.57 59.3746 142.74 59.0946 143.08C58.8212 143.413 58.6846 143.893 58.6846 144.52C58.6846 145.067 58.8179 145.51 59.0846 145.85C59.3512 146.19 59.6879 146.36 60.0946 146.36ZM61.5846 139.93H62.3746V147H61.5846V146.25C61.2246 146.803 60.7046 147.08 60.0246 147.08C59.3512 147.08 58.8212 146.83 58.4346 146.33C58.0546 145.83 57.8646 145.223 57.8646 144.51C57.8646 143.717 58.0679 143.077 58.4746 142.59C58.8812 142.097 59.4046 141.85 60.0446 141.85C60.7046 141.85 61.2179 142.133 61.5846 142.7V139.93ZM66.5684 144.66H65.6884C65.2617 144.66 64.9417 144.743 64.7284 144.91C64.5151 145.077 64.4084 145.287 64.4084 145.54C64.4084 145.793 64.4917 146 64.6584 146.16C64.8251 146.313 65.0684 146.39 65.3884 146.39C65.7484 146.39 66.0351 146.29 66.2484 146.09C66.4617 145.883 66.5684 145.623 66.5684 145.31V144.66ZM63.9484 142.99V142.2C64.3284 141.967 64.8284 141.85 65.4484 141.85C66.7217 141.85 67.3584 142.497 67.3584 143.79V147H66.5784V146.4C66.3184 146.833 65.8451 147.05 65.1584 147.05C64.6851 147.05 64.3017 146.91 64.0084 146.63C63.7217 146.35 63.5784 145.997 63.5784 145.57C63.5784 145.083 63.7617 144.707 64.1284 144.44C64.5017 144.167 65.0084 144.03 65.6484 144.03H66.5684V143.77C66.5684 143.37 66.4784 143.07 66.2984 142.87C66.1184 142.663 65.8151 142.56 65.3884 142.56C64.8484 142.56 64.3684 142.703 63.9484 142.99ZM72.2917 142.57V145.54C72.2917 146.08 72.545 146.35 73.0517 146.35C73.3117 146.35 73.5417 146.273 73.7417 146.12V146.87C73.5217 146.99 73.275 147.05 73.0017 147.05C72.0017 147.05 71.5017 146.54 71.5017 145.52V142.57H70.6917V141.93H71.5017V140.67H72.2917V141.93H73.6917V142.57H72.2917ZM74.9331 147V141.93H75.7231V147H74.9331ZM74.9531 140.71C74.8598 140.61 74.8131 140.487 74.8131 140.34C74.8131 140.193 74.8598 140.07 74.9531 139.97C75.0531 139.87 75.1764 139.82 75.3231 139.82C75.4698 139.82 75.5931 139.87 75.6931 139.97C75.7931 140.07 75.8431 140.193 75.8431 140.34C75.8431 140.487 75.7931 140.61 75.6931 140.71C75.5931 140.803 75.4698 140.85 75.3231 140.85C75.1764 140.85 75.0531 140.803 74.9531 140.71ZM79.1571 146.36C79.5704 146.36 79.9204 146.207 80.2071 145.9C80.5004 145.593 80.6471 145.103 80.6471 144.43C80.6471 143.79 80.4971 143.32 80.1971 143.02C79.8971 142.72 79.5671 142.57 79.2071 142.57C78.7871 142.57 78.4371 142.74 78.1571 143.08C77.8837 143.413 77.7471 143.893 77.7471 144.52C77.7471 145.067 77.8804 145.51 78.1471 145.85C78.4137 146.19 78.7504 146.36 79.1571 146.36ZM80.6471 139.93H81.4371V147H80.6471V146.25C80.2871 146.803 79.7671 147.08 79.0871 147.08C78.4137 147.08 77.8837 146.83 77.4971 146.33C77.1171 145.83 76.9271 145.223 76.9271 144.51C76.9271 143.717 77.1304 143.077 77.5371 142.59C77.9437 142.097 78.4671 141.85 79.1071 141.85C79.7671 141.85 80.2804 142.133 80.6471 142.7V139.93ZM85.6309 144.66H84.7509C84.3242 144.66 84.0042 144.743 83.7909 144.91C83.5776 145.077 83.4709 145.287 83.4709 145.54C83.4709 145.793 83.5542 146 83.7209 146.16C83.8876 146.313 84.1309 146.39 84.4509 146.39C84.8109 146.39 85.0976 146.29 85.3109 146.09C85.5242 145.883 85.6309 145.623 85.6309 145.31V144.66ZM83.0109 142.99V142.2C83.3909 141.967 83.8909 141.85 84.5109 141.85C85.7842 141.85 86.4209 142.497 86.4209 143.79V147H85.6409V146.4C85.3809 146.833 84.9076 147.05 84.2209 147.05C83.7476 147.05 83.3642 146.91 83.0709 146.63C82.7842 146.35 82.6409 145.997 82.6409 145.57C82.6409 145.083 82.8242 144.707 83.1909 144.44C83.5642 144.167 84.0709 144.03 84.7109 144.03H85.6309V143.77C85.6309 143.37 85.5409 143.07 85.3609 142.87C85.1809 142.663 84.8776 142.56 84.4509 142.56C83.9109 142.56 83.4309 142.703 83.0109 142.99ZM87.8228 147V139.97H88.6028V147H87.8228ZM89.6328 144.34L91.6928 147H90.7428L88.7028 144.34L90.6928 141.93H91.6328L89.6328 144.34ZM95.8489 141.93V142.75C96.1289 142.157 96.6055 141.86 97.2789 141.86C98.0589 141.86 98.5522 142.19 98.7589 142.85C98.9055 142.53 99.1089 142.287 99.3689 142.12C99.6355 141.947 99.9322 141.86 100.259 141.86C100.786 141.86 101.182 142.01 101.449 142.31C101.716 142.61 101.849 143.013 101.849 143.52V147H101.059V143.72C101.059 142.953 100.736 142.57 100.089 142.57C99.7689 142.57 99.4822 142.717 99.2289 143.01C98.9755 143.297 98.8489 143.703 98.8489 144.23V147H98.0589V143.72C98.0589 142.953 97.7355 142.57 97.0889 142.57C96.7689 142.57 96.4822 142.717 96.2289 143.01C95.9755 143.297 95.8489 143.703 95.8489 144.23V147H95.0689V141.93H95.8489ZM106.482 144.14V143.94C106.482 143.52 106.369 143.187 106.142 142.94C105.916 142.687 105.602 142.56 105.202 142.56C104.822 142.56 104.499 142.697 104.232 142.97C103.966 143.243 103.809 143.633 103.762 144.14H106.482ZM106.952 146V146.74C106.559 146.947 106.079 147.05 105.512 147.05C104.746 147.05 104.126 146.817 103.652 146.35C103.186 145.877 102.952 145.253 102.952 144.48C102.952 143.673 103.162 143.037 103.582 142.57C104.002 142.103 104.542 141.87 105.202 141.87C105.836 141.87 106.339 142.073 106.712 142.48C107.086 142.887 107.272 143.463 107.272 144.21C107.272 144.423 107.256 144.62 107.222 144.8H103.762C103.822 145.3 104.012 145.683 104.332 145.95C104.652 146.217 105.072 146.35 105.592 146.35C106.159 146.35 106.612 146.233 106.952 146ZM109.257 141.93V142.81C109.557 142.177 110.09 141.86 110.857 141.86C111.35 141.86 111.744 142.01 112.037 142.31C112.33 142.61 112.477 143.01 112.477 143.51V147H111.687V143.72C111.687 143.347 111.59 143.063 111.397 142.87C111.21 142.67 110.964 142.57 110.657 142.57C110.277 142.57 109.947 142.717 109.667 143.01C109.394 143.303 109.257 143.71 109.257 144.23V147H108.477V141.93H109.257ZM114.397 144.49C114.404 145.037 114.571 145.493 114.897 145.86C115.224 146.22 115.687 146.4 116.287 146.4C116.674 146.4 117.034 146.29 117.367 146.07V146.82C117.047 147.013 116.654 147.11 116.187 147.11C115.387 147.11 114.751 146.857 114.277 146.35C113.811 145.837 113.577 145.213 113.577 144.48C113.577 143.76 113.811 143.14 114.277 142.62C114.751 142.1 115.394 141.84 116.207 141.84C116.641 141.84 117.027 141.933 117.367 142.12V142.87C117.061 142.663 116.701 142.56 116.287 142.56C115.714 142.56 115.254 142.747 114.907 143.12C114.567 143.487 114.397 143.943 114.397 144.49ZM121.734 141.93H122.524V147H121.734V146.12C121.468 146.747 120.938 147.06 120.144 147.06C119.644 147.06 119.248 146.913 118.954 146.62C118.668 146.32 118.524 145.92 118.524 145.42V141.93H119.314V145.22C119.314 145.587 119.408 145.867 119.594 146.06C119.781 146.253 120.034 146.35 120.354 146.35C120.774 146.35 121.108 146.203 121.354 145.91C121.608 145.617 121.734 145.22 121.734 144.72V141.93ZM123.985 147V139.97H124.765V147H123.985ZM125.795 144.34L127.855 147H126.905L124.865 144.34L126.855 141.93H127.795L125.795 144.34ZM131.94 141.93H132.73V147H131.94V146.12C131.673 146.747 131.143 147.06 130.35 147.06C129.85 147.06 129.453 146.913 129.16 146.62C128.873 146.32 128.73 145.92 128.73 145.42V141.93H129.52V145.22C129.52 145.587 129.613 145.867 129.8 146.06C129.986 146.253 130.24 146.35 130.56 146.35C130.98 146.35 131.313 146.203 131.56 145.91C131.813 145.617 131.94 145.22 131.94 144.72V141.93ZM136.42 146.36C136.847 146.36 137.197 146.193 137.47 145.86C137.743 145.52 137.88 145.04 137.88 144.42C137.88 143.867 137.747 143.42 137.48 143.08C137.213 142.74 136.877 142.57 136.47 142.57C136.063 142.57 135.71 142.72 135.41 143.02C135.117 143.313 134.97 143.797 134.97 144.47C134.97 145.117 135.12 145.593 135.42 145.9C135.72 146.207 136.053 146.36 136.42 146.36ZM134.97 141.93V142.7C135.323 142.133 135.847 141.85 136.54 141.85C137.213 141.85 137.74 142.097 138.12 142.59C138.507 143.077 138.7 143.687 138.7 144.42C138.7 145.2 138.497 145.84 138.09 146.34C137.69 146.833 137.167 147.08 136.52 147.08C135.853 147.08 135.337 146.797 134.97 146.23V148.97H134.19V141.93H134.97ZM139.904 147V141.93H140.694V147H139.904ZM139.924 140.71C139.83 140.61 139.784 140.487 139.784 140.34C139.784 140.193 139.83 140.07 139.924 139.97C140.024 139.87 140.147 139.82 140.294 139.82C140.44 139.82 140.564 139.87 140.664 139.97C140.764 140.07 140.814 140.193 140.814 140.34C140.814 140.487 140.764 140.61 140.664 140.71C140.564 140.803 140.44 140.85 140.294 140.85C140.147 140.85 140.024 140.803 139.924 140.71ZM147.789 141.93H148.579V147H147.789V146.12C147.523 146.747 146.993 147.06 146.199 147.06C145.699 147.06 145.303 146.913 145.009 146.62C144.723 146.32 144.579 145.92 144.579 145.42V141.93H145.369V145.22C145.369 145.587 145.463 145.867 145.649 146.06C145.836 146.253 146.089 146.35 146.409 146.35C146.829 146.35 147.163 146.203 147.409 145.91C147.663 145.617 147.789 145.22 147.789 144.72V141.93ZM150.82 141.93V142.81C151.12 142.177 151.653 141.86 152.42 141.86C152.913 141.86 153.306 142.01 153.6 142.31C153.893 142.61 154.04 143.01 154.04 143.51V147H153.25V143.72C153.25 143.347 153.153 143.063 152.96 142.87C152.773 142.67 152.526 142.57 152.22 142.57C151.84 142.57 151.51 142.717 151.23 143.01C150.956 143.303 150.82 143.71 150.82 144.23V147H150.04V141.93H150.82ZM156.53 142.57V145.54C156.53 146.08 156.783 146.35 157.29 146.35C157.55 146.35 157.78 146.273 157.98 146.12V146.87C157.76 146.99 157.513 147.05 157.24 147.05C156.24 147.05 155.74 146.54 155.74 145.52V142.57H154.93V141.93H155.74V140.67H156.53V141.93H157.93V142.57H156.53ZM162.281 141.93H163.071V147H162.281V146.12C162.015 146.747 161.485 147.06 160.691 147.06C160.191 147.06 159.795 146.913 159.501 146.62C159.215 146.32 159.071 145.92 159.071 145.42V141.93H159.861V145.22C159.861 145.587 159.955 145.867 160.141 146.06C160.328 146.253 160.581 146.35 160.901 146.35C161.321 146.35 161.655 146.203 161.901 145.91C162.155 145.617 162.281 145.22 162.281 144.72V141.93ZM164.532 147V139.97H165.312V147H164.532ZM166.342 144.34L168.402 147H167.452L165.412 144.34L167.402 141.93H168.342L166.342 144.34ZM172.558 141.93V142.75C172.838 142.157 173.315 141.86 173.988 141.86C174.768 141.86 175.261 142.19 175.468 142.85C175.615 142.53 175.818 142.287 176.078 142.12C176.345 141.947 176.641 141.86 176.968 141.86C177.495 141.86 177.891 142.01 178.158 142.31C178.425 142.61 178.558 143.013 178.558 143.52V147H177.768V143.72C177.768 142.953 177.445 142.57 176.798 142.57C176.478 142.57 176.191 142.717 175.938 143.01C175.685 143.297 175.558 143.703 175.558 144.23V147H174.768V143.72C174.768 142.953 174.445 142.57 173.798 142.57C173.478 142.57 173.191 142.717 172.938 143.01C172.685 143.297 172.558 143.703 172.558 144.23V147H171.778V141.93H172.558ZM183.191 144.14V143.94C183.191 143.52 183.078 143.187 182.851 142.94C182.625 142.687 182.311 142.56 181.911 142.56C181.531 142.56 181.208 142.697 180.941 142.97C180.675 143.243 180.518 143.633 180.471 144.14H183.191ZM183.661 146V146.74C183.268 146.947 182.788 147.05 182.221 147.05C181.455 147.05 180.835 146.817 180.361 146.35C179.895 145.877 179.661 145.253 179.661 144.48C179.661 143.673 179.871 143.037 180.291 142.57C180.711 142.103 181.251 141.87 181.911 141.87C182.545 141.87 183.048 142.073 183.421 142.48C183.795 142.887 183.981 143.463 183.981 144.21C183.981 144.423 183.965 144.62 183.931 144.8H180.471C180.531 145.3 180.721 145.683 181.041 145.95C181.361 146.217 181.781 146.35 182.301 146.35C182.868 146.35 183.321 146.233 183.661 146ZM185.966 141.93V142.75C186.246 142.157 186.723 141.86 187.396 141.86C188.176 141.86 188.669 142.19 188.876 142.85C189.023 142.53 189.226 142.287 189.486 142.12C189.753 141.947 190.049 141.86 190.376 141.86C190.903 141.86 191.299 142.01 191.566 142.31C191.833 142.61 191.966 143.013 191.966 143.52V147H191.176V143.72C191.176 142.953 190.853 142.57 190.206 142.57C189.886 142.57 189.599 142.717 189.346 143.01C189.093 143.297 188.966 143.703 188.966 144.23V147H188.176V143.72C188.176 142.953 187.853 142.57 187.206 142.57C186.886 142.57 186.599 142.717 186.346 143.01C186.093 143.297 185.966 143.703 185.966 144.23V147H185.186V141.93H185.966ZM195.68 146.36C196.086 146.36 196.423 146.19 196.69 145.85C196.956 145.51 197.09 145.067 197.09 144.52C197.09 143.893 196.95 143.413 196.67 143.08C196.396 142.74 196.05 142.57 195.63 142.57C195.27 142.57 194.94 142.72 194.64 143.02C194.34 143.32 194.19 143.79 194.19 144.43C194.19 145.103 194.333 145.593 194.62 145.9C194.913 146.207 195.266 146.36 195.68 146.36ZM194.19 139.93V142.69C194.556 142.13 195.07 141.85 195.73 141.85C196.37 141.85 196.893 142.097 197.3 142.59C197.706 143.077 197.91 143.717 197.91 144.51C197.91 145.223 197.716 145.83 197.33 146.33C196.95 146.83 196.423 147.08 195.75 147.08C195.07 147.08 194.55 146.803 194.19 146.25V147H193.4V139.93H194.19ZM202.303 144.14V143.94C202.303 143.52 202.189 143.187 201.963 142.94C201.736 142.687 201.423 142.56 201.023 142.56C200.643 142.56 200.319 142.697 200.053 142.97C199.786 143.243 199.629 143.633 199.583 144.14H202.303ZM202.773 146V146.74C202.379 146.947 201.899 147.05 201.333 147.05C200.566 147.05 199.946 146.817 199.473 146.35C199.006 145.877 198.773 145.253 198.773 144.48C198.773 143.673 198.983 143.037 199.403 142.57C199.823 142.103 200.363 141.87 201.023 141.87C201.656 141.87 202.159 142.073 202.533 142.48C202.906 142.887 203.093 143.463 203.093 144.21C203.093 144.423 203.076 144.62 203.043 144.8H199.583C199.643 145.3 199.833 145.683 200.153 145.95C200.473 146.217 200.893 146.35 201.413 146.35C201.979 146.35 202.433 146.233 202.773 146ZM204.337 147V139.93H205.127V147H204.337ZM206.671 147V141.93H207.461V147H206.671ZM206.691 140.71C206.598 140.61 206.551 140.487 206.551 140.34C206.551 140.193 206.598 140.07 206.691 139.97C206.791 139.87 206.915 139.82 207.061 139.82C207.208 139.82 207.331 139.87 207.431 139.97C207.531 140.07 207.581 140.193 207.581 140.34C207.581 140.487 207.531 140.61 207.431 140.71C207.331 140.803 207.208 140.85 207.061 140.85C206.915 140.85 206.791 140.803 206.691 140.71ZM211.407 147V139.97H212.187V147H211.407ZM213.217 144.34L215.277 147H214.327L212.287 144.34L214.277 141.93H215.217L213.217 144.34ZM218.941 144.66H218.061C217.635 144.66 217.315 144.743 217.101 144.91C216.888 145.077 216.781 145.287 216.781 145.54C216.781 145.793 216.865 146 217.031 146.16C217.198 146.313 217.441 146.39 217.761 146.39C218.121 146.39 218.408 146.29 218.621 146.09C218.835 145.883 218.941 145.623 218.941 145.31V144.66ZM216.321 142.99V142.2C216.701 141.967 217.201 141.85 217.821 141.85C219.095 141.85 219.731 142.497 219.731 143.79V147H218.951V146.4C218.691 146.833 218.218 147.05 217.531 147.05C217.058 147.05 216.675 146.91 216.381 146.63C216.095 146.35 215.951 145.997 215.951 145.57C215.951 145.083 216.135 144.707 216.501 144.44C216.875 144.167 217.381 144.03 218.021 144.03H218.941V143.77C218.941 143.37 218.851 143.07 218.671 142.87C218.491 142.663 218.188 142.56 217.761 142.56C217.221 142.56 216.741 142.703 216.321 142.99ZM221.913 141.93V142.82C222.18 142.193 222.64 141.88 223.293 141.88C223.413 141.88 223.507 141.887 223.573 141.9V142.68C223.433 142.633 223.29 142.61 223.143 142.61C222.79 142.61 222.497 142.773 222.263 143.1C222.03 143.427 221.913 143.803 221.913 144.23V147H221.123L221.133 141.93H221.913ZM225.485 142.57V145.54C225.485 146.08 225.738 146.35 226.245 146.35C226.505 146.35 226.735 146.273 226.935 146.12V146.87C226.715 146.99 226.468 147.05 226.195 147.05C225.195 147.05 224.695 146.54 224.695 145.52V142.57H223.885V141.93H224.695V140.67H225.485V141.93H226.885V142.57H225.485ZM231.236 141.93H232.026V147H231.236V146.12C230.97 146.747 230.44 147.06 229.646 147.06C229.146 147.06 228.75 146.913 228.456 146.62C228.17 146.32 228.026 145.92 228.026 145.42V141.93H228.816V145.22C228.816 145.587 228.91 145.867 229.096 146.06C229.283 146.253 229.536 146.35 229.856 146.35C230.276 146.35 230.61 146.203 230.856 145.91C231.11 145.617 231.236 145.22 231.236 144.72V141.93ZM238.658 144.66H237.778C237.352 144.66 237.032 144.743 236.818 144.91C236.605 145.077 236.498 145.287 236.498 145.54C236.498 145.793 236.582 146 236.748 146.16C236.915 146.313 237.158 146.39 237.478 146.39C237.838 146.39 238.125 146.29 238.338 146.09C238.552 145.883 238.658 145.623 238.658 145.31V144.66ZM236.038 142.99V142.2C236.418 141.967 236.918 141.85 237.538 141.85C238.812 141.85 239.448 142.497 239.448 143.79V147H238.668V146.4C238.408 146.833 237.935 147.05 237.248 147.05C236.775 147.05 236.392 146.91 236.098 146.63C235.812 146.35 235.668 145.997 235.668 145.57C235.668 145.083 235.852 144.707 236.218 144.44C236.592 144.167 237.098 144.03 237.738 144.03H238.658V143.77C238.658 143.37 238.568 143.07 238.388 142.87C238.208 142.663 237.905 142.56 237.478 142.56C236.938 142.56 236.458 142.703 236.038 142.99ZM243.61 142.1V142.85C243.303 142.663 242.883 142.57 242.35 142.57C242.083 142.57 241.87 142.633 241.71 142.76C241.557 142.88 241.48 143.037 241.48 143.23C241.48 143.35 241.503 143.457 241.55 143.55C241.597 143.637 241.687 143.723 241.82 143.81C241.96 143.897 242.06 143.957 242.12 143.99C242.187 144.017 242.327 144.077 242.54 144.17C242.967 144.343 243.3 144.54 243.54 144.76C243.78 144.98 243.9 145.277 243.9 145.65C243.9 146.083 243.747 146.427 243.44 146.68C243.14 146.933 242.727 147.06 242.2 147.06C241.587 147.06 241.09 146.957 240.71 146.75V145.98C241.157 146.247 241.637 146.38 242.15 146.38C242.457 146.38 242.69 146.32 242.85 146.2C243.01 146.08 243.09 145.917 243.09 145.71C243.09 145.47 243 145.283 242.82 145.15C242.647 145.017 242.353 144.867 241.94 144.7C241.56 144.553 241.253 144.37 241.02 144.15C240.793 143.93 240.68 143.633 240.68 143.26C240.68 142.84 240.837 142.507 241.15 142.26C241.47 142.007 241.867 141.88 242.34 141.88C242.867 141.88 243.29 141.953 243.61 142.1ZM248.121 141.93H248.911V147H248.121V146.12C247.855 146.747 247.325 147.06 246.531 147.06C246.031 147.06 245.635 146.913 245.341 146.62C245.055 146.32 244.911 145.92 244.911 145.42V141.93H245.701V145.22C245.701 145.587 245.795 145.867 245.981 146.06C246.168 146.253 246.421 146.35 246.741 146.35C247.161 146.35 247.495 146.203 247.741 145.91C247.995 145.617 248.121 145.22 248.121 144.72V141.93ZM251.152 141.93V142.82C251.418 142.193 251.878 141.88 252.532 141.88C252.652 141.88 252.745 141.887 252.812 141.9V142.68C252.672 142.633 252.528 142.61 252.382 142.61C252.028 142.61 251.735 142.773 251.502 143.1C251.268 143.427 251.152 143.803 251.152 144.23V147H250.362L250.372 141.93H251.152ZM256.363 144.66H255.483C255.057 144.66 254.737 144.743 254.523 144.91C254.31 145.077 254.203 145.287 254.203 145.54C254.203 145.793 254.287 146 254.453 146.16C254.62 146.313 254.863 146.39 255.183 146.39C255.543 146.39 255.83 146.29 256.043 146.09C256.257 145.883 256.363 145.623 256.363 145.31V144.66ZM253.743 142.99V142.2C254.123 141.967 254.623 141.85 255.243 141.85C256.517 141.85 257.153 142.497 257.153 143.79V147H256.373V146.4C256.113 146.833 255.64 147.05 254.953 147.05C254.48 147.05 254.097 146.91 253.803 146.63C253.517 146.35 253.373 145.997 253.373 145.57C253.373 145.083 253.557 144.707 253.923 144.44C254.297 144.167 254.803 144.03 255.443 144.03H256.363V143.77C256.363 143.37 256.273 143.07 256.093 142.87C255.913 142.663 255.61 142.56 255.183 142.56C254.643 142.56 254.163 142.703 253.743 142.99ZM259.335 141.93V142.81C259.635 142.177 260.169 141.86 260.935 141.86C261.429 141.86 261.822 142.01 262.115 142.31C262.409 142.61 262.555 143.01 262.555 143.51V147H261.765V143.72C261.765 143.347 261.669 143.063 261.475 142.87C261.289 142.67 261.042 142.57 260.735 142.57C260.355 142.57 260.025 142.717 259.745 143.01C259.472 143.303 259.335 143.71 259.335 144.23V147H258.555V141.93H259.335ZM266.716 142.1V142.85C266.409 142.663 265.989 142.57 265.456 142.57C265.189 142.57 264.976 142.633 264.816 142.76C264.662 142.88 264.586 143.037 264.586 143.23C264.586 143.35 264.609 143.457 264.656 143.55C264.702 143.637 264.792 143.723 264.926 143.81C265.066 143.897 265.166 143.957 265.226 143.99C265.292 144.017 265.432 144.077 265.646 144.17C266.072 144.343 266.406 144.54 266.646 144.76C266.886 144.98 267.006 145.277 267.006 145.65C267.006 146.083 266.852 146.427 266.546 146.68C266.246 146.933 265.832 147.06 265.306 147.06C264.692 147.06 264.196 146.957 263.816 146.75V145.98C264.262 146.247 264.742 146.38 265.256 146.38C265.562 146.38 265.796 146.32 265.956 146.2C266.116 146.08 266.196 145.917 266.196 145.71C266.196 145.47 266.106 145.283 265.926 145.15C265.752 145.017 265.459 144.867 265.046 144.7C264.666 144.553 264.359 144.37 264.126 144.15C263.899 143.93 263.786 143.633 263.786 143.26C263.786 142.84 263.942 142.507 264.256 142.26C264.576 142.007 264.972 141.88 265.446 141.88C265.972 141.88 266.396 141.953 266.716 142.1ZM268.117 147V141.93H268.907V147H268.117ZM268.137 140.71C268.043 140.61 267.997 140.487 267.997 140.34C267.997 140.193 268.043 140.07 268.137 139.97C268.237 139.87 268.36 139.82 268.507 139.82C268.653 139.82 268.777 139.87 268.877 139.97C268.977 140.07 269.027 140.193 269.027 140.34C269.027 140.487 268.977 140.61 268.877 140.71C268.777 140.803 268.653 140.85 268.507 140.85C268.36 140.85 268.237 140.803 268.137 140.71Z" fill="#2B2B2B"/>
<path d="M90.9108 156.54V157.77C90.4041 157.477 89.8441 157.33 89.2308 157.33C88.6174 157.33 88.1041 157.54 87.6908 157.96C87.2841 158.373 87.0808 158.93 87.0808 159.63C87.0808 160.33 87.2841 160.887 87.6908 161.3C88.1041 161.713 88.6408 161.92 89.3008 161.92C89.9341 161.92 90.4741 161.753 90.9208 161.42V162.68C90.5074 162.947 89.9274 163.08 89.1808 163.08C88.1808 163.08 87.3541 162.767 86.7008 162.14C86.0541 161.507 85.7308 160.67 85.7308 159.63C85.7308 158.61 86.0508 157.78 86.6908 157.14C87.3374 156.493 88.1674 156.17 89.1808 156.17C89.9208 156.17 90.4974 156.293 90.9108 156.54ZM92.0945 163V157.93H93.2945V163H92.0945ZM91.9745 156.41C91.9745 156.21 92.0445 156.04 92.1845 155.9C92.3245 155.76 92.4945 155.69 92.6945 155.69C92.8945 155.69 93.0645 155.76 93.2045 155.9C93.3445 156.04 93.4145 156.21 93.4145 156.41C93.4145 156.617 93.3445 156.79 93.2045 156.93C93.0645 157.07 92.8945 157.14 92.6945 157.14C92.4945 157.14 92.3245 157.07 92.1845 156.93C92.0445 156.79 91.9745 156.617 91.9745 156.41ZM96.7622 161.86C97.0889 161.86 97.3622 161.733 97.5822 161.48C97.8022 161.22 97.9122 160.883 97.9122 160.47C97.9122 159.93 97.8055 159.533 97.5922 159.28C97.3789 159.027 97.1089 158.9 96.7822 158.9C96.4355 158.9 96.1622 159.037 95.9622 159.31C95.7622 159.577 95.6622 159.94 95.6622 160.4C95.6622 160.873 95.7655 161.237 95.9722 161.49C96.1789 161.737 96.4422 161.86 96.7622 161.86ZM97.9122 157.93H99.1122V162.54C99.1122 163.34 98.8789 163.94 98.4122 164.34C97.9522 164.747 97.3655 164.95 96.6522 164.95C95.9855 164.95 95.4022 164.83 94.9022 164.59V163.37C95.3555 163.69 95.8989 163.85 96.5322 163.85C97.4522 163.85 97.9122 163.41 97.9122 162.53V162.09C97.6055 162.59 97.1255 162.84 96.4722 162.84C95.9055 162.84 95.4189 162.633 95.0122 162.22C94.6122 161.8 94.4122 161.193 94.4122 160.4C94.4122 159.667 94.6022 159.063 94.9822 158.59C95.3689 158.11 95.8755 157.87 96.5022 157.87C97.1355 157.87 97.6055 158.133 97.9122 158.66V157.93ZM101.555 157.93V158.8C101.842 158.18 102.362 157.87 103.115 157.87C103.622 157.87 104.022 158.023 104.315 158.33C104.608 158.637 104.755 159.07 104.755 159.63V163H103.555V159.88C103.555 159.547 103.475 159.297 103.315 159.13C103.155 158.957 102.938 158.87 102.665 158.87C102.352 158.87 102.088 158.993 101.875 159.24C101.662 159.48 101.555 159.827 101.555 160.28V163H100.355V157.93H101.555ZM108.599 160.82H107.979C107.666 160.82 107.426 160.887 107.259 161.02C107.093 161.147 107.009 161.31 107.009 161.51C107.009 161.937 107.256 162.15 107.749 162.15C108.016 162.15 108.223 162.073 108.369 161.92C108.523 161.76 108.599 161.553 108.599 161.3V160.82ZM106.139 159.3V158.19C106.519 157.957 107.066 157.84 107.779 157.84C109.153 157.84 109.839 158.48 109.839 159.76V163H108.649V162.39C108.416 162.823 107.976 163.04 107.329 163.04C106.849 163.04 106.466 162.9 106.179 162.62C105.899 162.34 105.759 161.987 105.759 161.56C105.759 161.08 105.939 160.703 106.299 160.43C106.659 160.157 107.179 160.02 107.859 160.02H108.599V159.71C108.599 159.43 108.526 159.217 108.379 159.07C108.233 158.923 107.983 158.85 107.629 158.85C107.089 158.85 106.593 159 106.139 159.3ZM114.868 159.69H115.578C116.038 159.69 116.382 159.58 116.608 159.36C116.835 159.14 116.948 158.843 116.948 158.47C116.948 158.103 116.835 157.817 116.608 157.61C116.382 157.397 116.048 157.29 115.608 157.29H114.868V159.69ZM113.608 156.26H115.718C116.478 156.26 117.085 156.467 117.538 156.88C117.998 157.293 118.228 157.823 118.228 158.47C118.228 159.157 117.992 159.703 117.518 160.11C117.052 160.51 116.462 160.71 115.748 160.71H114.868V163H113.608V156.26ZM120.315 157.93V158.83C120.548 158.203 120.975 157.89 121.595 157.89C121.735 157.89 121.848 157.9 121.935 157.92V159.08C121.782 159.013 121.612 158.98 121.425 158.98C121.098 158.98 120.832 159.113 120.625 159.38C120.418 159.647 120.315 159.98 120.315 160.38V163H119.105L119.115 157.93H120.315ZM124.81 163.08C124.044 163.08 123.444 162.84 123.01 162.36C122.584 161.88 122.37 161.267 122.37 160.52C122.37 159.747 122.594 159.11 123.04 158.61C123.487 158.103 124.077 157.85 124.81 157.85C125.59 157.85 126.194 158.097 126.62 158.59C127.047 159.077 127.26 159.697 127.26 160.45C127.26 161.217 127.044 161.847 126.61 162.34C126.184 162.833 125.584 163.08 124.81 163.08ZM124.81 158.83C124.43 158.83 124.137 158.987 123.93 159.3C123.73 159.613 123.63 160.007 123.63 160.48C123.63 160.947 123.734 161.337 123.94 161.65C124.147 161.963 124.44 162.12 124.82 162.12C125.214 162.12 125.51 161.967 125.71 161.66C125.91 161.353 126.01 160.963 126.01 160.49C126.01 160.003 125.914 159.607 125.72 159.3C125.527 158.987 125.224 158.83 124.81 158.83ZM129.755 158.83V161.41C129.755 161.623 129.811 161.787 129.925 161.9C130.038 162.007 130.195 162.06 130.395 162.06C130.648 162.06 130.881 161.99 131.095 161.85V162.88C130.861 162.993 130.561 163.05 130.195 163.05C129.101 163.05 128.555 162.497 128.555 161.39V158.83H127.795V157.93H128.555V156.71H129.755V157.93H131.015V158.83H129.755ZM135.134 160.05V159.9C135.12 159.573 135.03 159.313 134.864 159.12C134.704 158.92 134.467 158.82 134.154 158.82C133.867 158.82 133.617 158.927 133.404 159.14C133.197 159.347 133.064 159.65 133.004 160.05H135.134ZM135.954 161.68V162.72C135.6 162.94 135.09 163.05 134.424 163.05C133.617 163.05 132.98 162.81 132.514 162.33C132.047 161.85 131.814 161.23 131.814 160.47C131.814 159.663 132.034 159.03 132.474 158.57C132.914 158.11 133.464 157.88 134.124 157.88C134.784 157.88 135.307 158.08 135.694 158.48C136.08 158.88 136.274 159.463 136.274 160.23C136.274 160.417 136.25 160.657 136.204 160.95H133.024C133.11 161.317 133.29 161.597 133.564 161.79C133.844 161.983 134.19 162.08 134.604 162.08C135.137 162.08 135.587 161.947 135.954 161.68ZM141.807 163H140.397L138.577 160.38V163H137.377V156.05H138.577V160.31L140.367 157.93H141.767L139.907 160.35L141.807 163ZM145.631 158.09V159.15C145.298 158.95 144.881 158.85 144.381 158.85C144.175 158.85 144.011 158.897 143.891 158.99C143.778 159.077 143.721 159.19 143.721 159.33C143.721 159.383 143.728 159.433 143.741 159.48C143.761 159.527 143.791 159.573 143.831 159.62C143.878 159.66 143.921 159.697 143.961 159.73C144.001 159.763 144.058 159.8 144.131 159.84C144.205 159.873 144.268 159.903 144.321 159.93C144.375 159.957 144.448 159.99 144.541 160.03C144.635 160.07 144.708 160.103 144.761 160.13C145.115 160.303 145.395 160.497 145.601 160.71C145.808 160.923 145.911 161.2 145.911 161.54C145.911 162.013 145.741 162.383 145.401 162.65C145.061 162.917 144.608 163.05 144.041 163.05C143.415 163.05 142.908 162.947 142.521 162.74V161.64C142.968 161.94 143.451 162.09 143.971 162.09C144.191 162.09 144.361 162.05 144.481 161.97C144.608 161.883 144.671 161.767 144.671 161.62C144.671 161.533 144.651 161.457 144.611 161.39C144.571 161.317 144.495 161.247 144.381 161.18C144.268 161.113 144.178 161.067 144.111 161.04C144.051 161.007 143.928 160.95 143.741 160.87C143.721 160.863 143.705 160.857 143.691 160.85C143.685 160.843 143.671 160.837 143.651 160.83C143.631 160.823 143.615 160.817 143.601 160.81C142.861 160.477 142.491 159.997 142.491 159.37C142.491 158.903 142.668 158.537 143.021 158.27C143.375 158.003 143.818 157.87 144.351 157.87C144.865 157.87 145.291 157.943 145.631 158.09ZM146.919 163V157.93H148.119V163H146.919ZM146.799 156.41C146.799 156.21 146.869 156.04 147.009 155.9C147.149 155.76 147.319 155.69 147.519 155.69C147.719 155.69 147.889 155.76 148.029 155.9C148.169 156.04 148.239 156.21 148.239 156.41C148.239 156.617 148.169 156.79 148.029 156.93C147.889 157.07 147.719 157.14 147.519 157.14C147.319 157.14 147.149 157.07 147.009 156.93C146.869 156.79 146.799 156.617 146.799 156.41ZM155.747 156.54V157.76C155.247 157.46 154.714 157.31 154.147 157.31C153.834 157.31 153.587 157.38 153.407 157.52C153.234 157.66 153.147 157.84 153.147 158.06C153.147 158.28 153.24 158.463 153.427 158.61C153.62 158.75 153.907 158.907 154.287 159.08C154.554 159.2 154.77 159.307 154.937 159.4C155.104 159.487 155.284 159.61 155.477 159.77C155.677 159.93 155.824 160.123 155.917 160.35C156.017 160.57 156.067 160.823 156.067 161.11C156.067 161.71 155.85 162.19 155.417 162.55C154.99 162.903 154.427 163.08 153.727 163.08C152.967 163.08 152.337 162.937 151.837 162.65V161.36C152.41 161.773 153.037 161.98 153.717 161.98C154.024 161.98 154.27 161.907 154.457 161.76C154.644 161.607 154.737 161.403 154.737 161.15C154.737 161.03 154.714 160.923 154.667 160.83C154.62 160.737 154.524 160.643 154.377 160.55C154.237 160.457 154.127 160.39 154.047 160.35C153.974 160.31 153.817 160.237 153.577 160.13C153.51 160.097 153.46 160.073 153.427 160.06C153.18 159.947 152.98 159.847 152.827 159.76C152.674 159.667 152.507 159.543 152.327 159.39C152.147 159.237 152.01 159.053 151.917 158.84C151.83 158.627 151.787 158.383 151.787 158.11C151.787 157.537 151.997 157.077 152.417 156.73C152.844 156.383 153.407 156.21 154.107 156.21C154.74 156.21 155.287 156.32 155.747 156.54ZM160.173 160.05V159.9C160.159 159.573 160.069 159.313 159.903 159.12C159.743 158.92 159.506 158.82 159.193 158.82C158.906 158.82 158.656 158.927 158.443 159.14C158.236 159.347 158.103 159.65 158.043 160.05H160.173ZM160.993 161.68V162.72C160.639 162.94 160.129 163.05 159.463 163.05C158.656 163.05 158.019 162.81 157.553 162.33C157.086 161.85 156.853 161.23 156.853 160.47C156.853 159.663 157.073 159.03 157.513 158.57C157.953 158.11 158.503 157.88 159.163 157.88C159.823 157.88 160.346 158.08 160.733 158.48C161.119 158.88 161.313 159.463 161.313 160.23C161.313 160.417 161.289 160.657 161.243 160.95H158.063C158.149 161.317 158.329 161.597 158.603 161.79C158.883 161.983 159.229 162.08 159.643 162.08C160.176 162.08 160.626 161.947 160.993 161.68ZM163.616 155.93V158.79C163.889 158.177 164.406 157.87 165.166 157.87C165.659 157.87 166.056 158.027 166.356 158.34C166.662 158.647 166.816 159.093 166.816 159.68V163H165.616V159.89C165.616 159.57 165.532 159.32 165.366 159.14C165.206 158.96 164.996 158.87 164.736 158.87C164.449 158.87 164.189 158.98 163.956 159.2C163.729 159.42 163.616 159.78 163.616 160.28V163H162.416V155.93H163.616ZM170.66 160.82H170.04C169.727 160.82 169.487 160.887 169.32 161.02C169.153 161.147 169.07 161.31 169.07 161.51C169.07 161.937 169.317 162.15 169.81 162.15C170.077 162.15 170.283 162.073 170.43 161.92C170.583 161.76 170.66 161.553 170.66 161.3V160.82ZM168.2 159.3V158.19C168.58 157.957 169.127 157.84 169.84 157.84C171.213 157.84 171.9 158.48 171.9 159.76V163H170.71V162.39C170.477 162.823 170.037 163.04 169.39 163.04C168.91 163.04 168.527 162.9 168.24 162.62C167.96 162.34 167.82 161.987 167.82 161.56C167.82 161.08 168 160.703 168.36 160.43C168.72 160.157 169.24 160.02 169.92 160.02H170.66V159.71C170.66 159.43 170.587 159.217 170.44 159.07C170.293 158.923 170.043 158.85 169.69 158.85C169.15 158.85 168.653 159 168.2 159.3ZM174.598 158.83V161.41C174.598 161.623 174.655 161.787 174.768 161.9C174.882 162.007 175.038 162.06 175.238 162.06C175.492 162.06 175.725 161.99 175.938 161.85V162.88C175.705 162.993 175.405 163.05 175.038 163.05C173.945 163.05 173.398 162.497 173.398 161.39V158.83H172.638V157.93H173.398V156.71H174.598V157.93H175.858V158.83H174.598ZM180.718 159.69H181.428C181.888 159.69 182.231 159.58 182.458 159.36C182.684 159.14 182.798 158.843 182.798 158.47C182.798 158.103 182.684 157.817 182.458 157.61C182.231 157.397 181.898 157.29 181.458 157.29H180.718V159.69ZM179.458 156.26H181.568C182.328 156.26 182.934 156.467 183.388 156.88C183.848 157.293 184.078 157.823 184.078 158.47C184.078 159.157 183.841 159.703 183.368 160.11C182.901 160.51 182.311 160.71 181.598 160.71H180.718V163H179.458V156.26ZM185.014 163V155.93H186.214V163H185.014ZM190.152 160.82H189.532C189.219 160.82 188.979 160.887 188.812 161.02C188.645 161.147 188.562 161.31 188.562 161.51C188.562 161.937 188.809 162.15 189.302 162.15C189.569 162.15 189.775 162.073 189.922 161.92C190.075 161.76 190.152 161.553 190.152 161.3V160.82ZM187.692 159.3V158.19C188.072 157.957 188.619 157.84 189.332 157.84C190.705 157.84 191.392 158.48 191.392 159.76V163H190.202V162.39C189.969 162.823 189.529 163.04 188.882 163.04C188.402 163.04 188.019 162.9 187.732 162.62C187.452 162.34 187.312 161.987 187.312 161.56C187.312 161.08 187.492 160.703 187.852 160.43C188.212 160.157 188.732 160.02 189.412 160.02H190.152V159.71C190.152 159.43 190.079 159.217 189.932 159.07C189.785 158.923 189.535 158.85 189.182 158.85C188.642 158.85 188.145 159 187.692 159.3ZM193.83 157.93V158.8C194.117 158.18 194.637 157.87 195.39 157.87C195.897 157.87 196.297 158.023 196.59 158.33C196.884 158.637 197.03 159.07 197.03 159.63V163H195.83V159.88C195.83 159.547 195.75 159.297 195.59 159.13C195.43 158.957 195.214 158.87 194.94 158.87C194.627 158.87 194.364 158.993 194.15 159.24C193.937 159.48 193.83 159.827 193.83 160.28V163H192.63V157.93H193.83ZM200.245 158.73V157.48L201.975 156.46H203.035V163H201.845V157.76L200.245 158.73Z" fill="#DA011C"/>
<g filter="url(#filter1_d_1124_4113)">
<rect x="84.5" y="180" width="120" height="24" rx="8" fill="#FF1934" shape-rendering="crispEdges"/>
<path d="M139.442 191.288C139.442 190.451 139.671 189.779 140.13 189.272C140.594 188.765 141.212 188.512 141.986 188.512C142.77 188.512 143.391 188.765 143.85 189.272C144.308 189.773 144.538 190.445 144.538 191.288C144.538 192.12 144.306 192.789 143.842 193.296C143.383 193.803 142.767 194.056 141.994 194.056C141.22 194.056 140.602 193.803 140.138 193.296C139.674 192.789 139.442 192.12 139.442 191.288ZM140.522 191.288C140.522 191.853 140.655 192.301 140.922 192.632C141.188 192.963 141.546 193.128 141.994 193.128C142.447 193.128 142.804 192.965 143.066 192.64C143.327 192.309 143.458 191.859 143.458 191.288C143.458 190.717 143.327 190.267 143.066 189.936C142.804 189.605 142.444 189.44 141.986 189.44C141.532 189.44 141.175 189.605 140.914 189.936C140.652 190.267 140.522 190.717 140.522 191.288ZM145.439 194L145.439 188.608L146.447 188.608L146.447 194L145.439 194ZM147.727 191.312L149.735 194L148.463 194L146.527 191.328L148.391 188.608L149.599 188.608L147.727 191.312Z" fill="white"/>
</g>
<defs>
<filter id="filter0_d_1124_4113" x="-4" y="-2" width="297" height="56" filterUnits="userSpaceOnUse" color-interpolation-filters="sRGB">
<feFlood flood-opacity="0" result="BackgroundImageFix"/>
<feColorMatrix in="SourceAlpha" type="matrix" values="0 0 0 0 0 0 0 0 0 0 0 0 0 0 0 0 0 0 127 0" result="hardAlpha"/>
<feOffset dy="2"/>
<feGaussianBlur stdDeviation="2"/>
<feComposite in2="hardAlpha" operator="out"/>
<feColorMatrix type="matrix" values="0 0 0 0 0.168627 0 0 0 0 0.168627 0 0 0 0 0.168627 0 0 0 0.24 0"/>
<feBlend mode="normal" in2="BackgroundImageFix" result="effect1_dropShadow_1124_4113"/>
<feBlend mode="normal" in="SourceGraphic" in2="effect1_dropShadow_1124_4113" result="shape"/>
</filter>
<filter id="filter1_d_1124_4113" x="78.5" y="174" width="136" height="40" filterUnits="userSpaceOnUse" color-interpolation-filters="sRGB">
<feFlood flood-opacity="0" result="BackgroundImageFix"/>
<feColorMatrix in="SourceAlpha" type="matrix" values="0 0 0 0 0 0 0 0 0 0 0 0 0 0 0 0 0 0 127 0" result="hardAlpha"/>
<feOffset dx="2" dy="2"/>
<feGaussianBlur stdDeviation="4"/>
<feComposite in2="hardAlpha" operator="out"/>
<feColorMatrix type="matrix" values="0 0 0 0 0 0 0 0 0 0 0 0 0 0 0 0 0 0 0.12 0"/>
<feBlend mode="normal" in2="BackgroundImageFix" result="effect1_dropShadow_1124_4113"/>
<feBlend mode="normal" in="SourceGraphic" in2="effect1_dropShadow_1124_4113" result="shape"/>
</filter>
<clipPath id="clip0_1124_4113">
<rect width="24" height="24" fill="white" transform="translate(16 16)"/>
</clipPath>
<clipPath id="clip1_1124_4113">
<rect width="64" height="64" fill="white" transform="translate(112.5 72)"/>
</clipPath>
</defs>
</svg>
