<svg width="314" height="270" viewBox="0 0 314 270" fill="none" xmlns="http://www.w3.org/2000/svg">
<rect width="314" height="270" fill="#D3D3D3"/>
<rect width="314" height="270" rx="16" fill="white"/>
<g filter="url(#filter0_d_1124_4113)">
<path d="M0 16C0 7.16344 7.16344 0 16 0H298C306.837 0 314 7.16344 314 16V48H0V16Z" fill="#FF1934" shape-rendering="crispEdges"/>
<g clip-path="url(#clip0_1124_4113)">
<path d="M35.86 30.4599C35.45 30.2899 34.98 30.4799 34.81 30.8799C34.62 31.3399 34.37 31.7499 34.1 32.1499L33.21 30.0599C32.6 28.6199 31.14 27.7499 29.57 27.8999L24.14 28.4399C24.05 27.8499 23.96 27.2799 23.85 26.7399L29.46 26.1499C29.9 26.0999 30.22 25.7099 30.17 25.2699C30.12 24.8299 29.72 24.5199 29.29 24.5599L23.5 25.1699C22.66 21.7699 21.59 19.5899 21.51 19.4399C21.31 19.0499 20.83 18.8899 20.44 19.0799C20.05 19.2799 19.89 19.7599 20.08 20.1499C20.11 20.2099 22.93 25.9099 22.88 33.3199C22.17 32.6399 21.58 31.8199 21.18 30.8799C21.01 30.4699 20.54 30.2899 20.13 30.4599C19.72 30.6299 19.53 31.0999 19.71 31.5099C20.45 33.2599 21.71 34.6699 23.25 35.6299C23.26 35.6299 23.28 35.6499 23.29 35.6499C24.68 36.4999 26.29 36.9999 27.99 36.9999C30.44 36.9999 32.72 35.9899 34.38 34.3099C34.43 34.2699 34.47 34.2299 34.51 34.1799C35.24 33.4099 35.85 32.5299 36.28 31.5199C36.45 31.1099 36.26 30.6399 35.86 30.4699V30.4599ZM28 35.3999C26.73 35.3999 25.52 35.0599 24.45 34.4699C24.52 32.9099 24.47 31.4299 24.33 30.0299L29.72 29.4899C30.59 29.3999 31.39 29.8799 31.73 30.6799L32.93 33.4999C31.6 34.6899 29.85 35.3899 27.99 35.3899L28 35.3999Z" fill="white"/>
</g>
<path d="M51.122 30.236H52.102C52.97 30.236 53.6373 29.9653 54.104 29.424C54.58 28.8827 54.818 28.1173 54.818 27.128C54.818 26.288 54.58 25.616 54.104 25.112C53.628 24.5987 52.956 24.342 52.088 24.342H51.122V30.236ZM48.91 22.564H52.158C53.5767 22.564 54.7387 23.0027 55.644 23.88C56.5493 24.748 57.002 25.8307 57.002 27.128C57.002 28.64 56.554 29.83 55.658 30.698C54.7713 31.566 53.5953 32 52.13 32H48.91V22.564ZM61.9106 29.088H61.2526C60.9073 29.088 60.6413 29.1627 60.4546 29.312C60.268 29.4613 60.1746 29.6527 60.1746 29.886C60.1746 30.362 60.45 30.6 61.0006 30.6C61.29 30.6 61.514 30.5113 61.6726 30.334C61.8313 30.1567 61.9106 29.914 61.9106 29.606V29.088ZM58.5926 27.086V25.252C59.1526 24.9347 59.96 24.776 61.0146 24.776C62.0226 24.776 62.774 24.9953 63.2686 25.434C63.7633 25.8633 64.0106 26.5353 64.0106 27.45V32H62.0086V31.132C61.71 31.7387 61.122 32.042 60.2446 32.042C59.554 32.042 59.0126 31.846 58.6206 31.454C58.238 31.062 58.0466 30.572 58.0466 29.984C58.0466 29.3027 58.294 28.7753 58.7886 28.402C59.2926 28.0193 60.0346 27.828 61.0146 27.828H61.9106V27.338C61.9106 26.7407 61.514 26.442 60.7206 26.442C59.9553 26.442 59.246 26.6567 58.5926 27.086ZM67.6594 24.902V26.106C67.8367 25.714 68.1074 25.406 68.4714 25.182C68.8447 24.9487 69.2881 24.832 69.8014 24.832C70.5294 24.832 71.0987 25.0513 71.5094 25.49C71.9201 25.9193 72.1254 26.554 72.1254 27.394V32H70.0814V27.772C70.0814 27.352 69.9834 27.0347 69.7874 26.82C69.5914 26.596 69.3161 26.484 68.9614 26.484C68.5881 26.484 68.2754 26.6333 68.0234 26.932C67.7807 27.2213 67.6594 27.66 67.6594 28.248V32H65.6154V24.902H67.6594ZM77.2505 29.088H76.5925C76.2472 29.088 75.9812 29.1627 75.7945 29.312C75.6078 29.4613 75.5145 29.6527 75.5145 29.886C75.5145 30.362 75.7898 30.6 76.3405 30.6C76.6298 30.6 76.8538 30.5113 77.0125 30.334C77.1712 30.1567 77.2505 29.914 77.2505 29.606V29.088ZM73.9325 27.086V25.252C74.4925 24.9347 75.2998 24.776 76.3545 24.776C77.3625 24.776 78.1138 24.9953 78.6085 25.434C79.1032 25.8633 79.3505 26.5353 79.3505 27.45V32H77.3485V31.132C77.0498 31.7387 76.4618 32.042 75.5845 32.042C74.8938 32.042 74.3525 31.846 73.9605 31.454C73.5778 31.062 73.3865 30.572 73.3865 29.984C73.3865 29.3027 73.6338 28.7753 74.1285 28.402C74.6325 28.0193 75.3745 27.828 76.3545 27.828H77.2505V27.338C77.2505 26.7407 76.8538 26.442 76.0605 26.442C75.2952 26.442 74.5858 26.6567 73.9325 27.086ZM86.6812 27.24H87.3952C88.5339 27.24 89.1032 26.722 89.1032 25.686C89.1032 24.7527 88.5759 24.286 87.5212 24.286H86.6812V27.24ZM84.5252 22.564H87.7732C88.8186 22.564 89.6632 22.858 90.3072 23.446C90.9606 24.034 91.2872 24.7807 91.2872 25.686C91.2872 26.722 90.9466 27.5247 90.2652 28.094C89.5932 28.6633 88.7626 28.948 87.7732 28.948H86.6812V32H84.5252V22.564ZM96.4459 27.8V27.632C96.3806 26.8013 96.0166 26.386 95.3539 26.386C95.0272 26.386 94.7379 26.5073 94.4859 26.75C94.2339 26.9833 94.0659 27.3333 93.9819 27.8H96.4459ZM97.9159 29.886V31.594C97.4306 31.9113 96.6886 32.07 95.6899 32.07C94.5232 32.07 93.6132 31.734 92.9599 31.062C92.3159 30.3807 91.9939 29.508 91.9939 28.444C91.9939 27.3147 92.3066 26.4327 92.9319 25.798C93.5666 25.154 94.3459 24.832 95.2699 24.832C96.2219 24.832 96.9732 25.112 97.5239 25.672C98.0746 26.2227 98.3499 27.0487 98.3499 28.15C98.3499 28.3647 98.3126 28.7333 98.2379 29.256H94.0659C94.2059 29.648 94.4486 29.9513 94.7939 30.166C95.1392 30.3807 95.5546 30.488 96.0399 30.488C96.7586 30.488 97.3839 30.2873 97.9159 29.886ZM101.853 24.902V26.106C102.03 25.714 102.301 25.406 102.665 25.182C103.038 24.9487 103.481 24.832 103.995 24.832C104.723 24.832 105.292 25.0513 105.703 25.49C106.113 25.9193 106.319 26.554 106.319 27.394V32H104.275V27.772C104.275 27.352 104.177 27.0347 103.981 26.82C103.785 26.596 103.509 26.484 103.155 26.484C102.781 26.484 102.469 26.6333 102.217 26.932C101.974 27.2213 101.853 27.66 101.853 28.248V32H99.8088V24.902H101.853ZM112.41 25.112V26.862C111.915 26.5727 111.337 26.428 110.674 26.428C110.431 26.428 110.245 26.4793 110.114 26.582C109.983 26.6753 109.918 26.7967 109.918 26.946C109.918 27.03 109.941 27.1093 109.988 27.184C110.035 27.2587 110.109 27.3287 110.212 27.394C110.324 27.4593 110.427 27.52 110.52 27.576C110.623 27.6227 110.758 27.6833 110.926 27.758C111.103 27.8327 111.243 27.898 111.346 27.954C111.775 28.178 112.121 28.4393 112.382 28.738C112.643 29.0273 112.774 29.4007 112.774 29.858C112.774 30.558 112.522 31.0993 112.018 31.482C111.514 31.8647 110.847 32.056 110.016 32.056C109.157 32.056 108.439 31.9113 107.86 31.622V29.802C108.504 30.25 109.185 30.474 109.904 30.474C110.417 30.474 110.674 30.3107 110.674 29.984C110.674 29.9 110.651 29.8207 110.604 29.746C110.557 29.6713 110.478 29.6013 110.366 29.536C110.254 29.4707 110.151 29.4193 110.058 29.382C109.965 29.3353 109.829 29.2747 109.652 29.2C109.475 29.1253 109.339 29.0647 109.246 29.018C108.303 28.57 107.832 27.898 107.832 27.002C107.832 26.3113 108.093 25.7747 108.616 25.392C109.148 25.0093 109.806 24.818 110.59 24.818C111.318 24.818 111.925 24.916 112.41 25.112ZM114.098 32V24.902H116.142V32H114.098ZM114.28 23.684C114.046 23.4507 113.93 23.1707 113.93 22.844C113.93 22.5173 114.046 22.2373 114.28 22.004C114.513 21.7707 114.793 21.654 115.12 21.654C115.446 21.654 115.726 21.7707 115.96 22.004C116.193 22.2373 116.31 22.5173 116.31 22.844C116.31 23.1707 116.193 23.4507 115.96 23.684C115.726 23.9173 115.446 24.034 115.12 24.034C114.793 24.034 114.513 23.9173 114.28 23.684ZM122.293 24.902H124.337V32H122.293V30.866C121.919 31.6593 121.201 32.056 120.137 32.056C119.409 32.056 118.839 31.8553 118.429 31.454C118.027 31.0433 117.827 30.4413 117.827 29.648V24.902H119.871V29.186C119.871 30.0167 120.235 30.432 120.963 30.432C121.849 30.432 122.293 29.8393 122.293 28.654V24.902ZM128.062 24.902V26.106C128.239 25.714 128.51 25.406 128.874 25.182C129.247 24.9487 129.69 24.832 130.204 24.832C130.932 24.832 131.501 25.0513 131.912 25.49C132.322 25.9193 132.528 26.554 132.528 27.394V32H130.484V27.772C130.484 27.352 130.386 27.0347 130.19 26.82C129.994 26.596 129.718 26.484 129.364 26.484C128.99 26.484 128.678 26.6333 128.426 26.932C128.183 27.2213 128.062 27.66 128.062 28.248V32H126.018V24.902H128.062Z" fill="white"/>
</g>
<g clip-path="url(#clip1_1124_4113)">
<path d="M153.31 83.8512L136.956 96.65C135.987 97.4075 135.422 98.5687 135.421 99.7987L135.412 121.589C135.412 123.799 137.202 125.59 139.412 125.59H174.591C176.8 125.59 178.59 123.8 178.591 121.591L178.6 99.8C178.6 98.5687 178.035 97.4075 177.065 96.6487L160.704 83.85C158.531 82.1512 155.481 82.1512 153.309 83.85L153.31 83.8512Z" fill="#BA7303"/>
<path d="M167.906 82.4113H152.095C146.572 82.4113 142.095 86.8888 142.095 92.4113V121.59C142.095 123.799 143.886 125.59 146.095 125.59H167.906C170.115 125.59 171.906 123.799 171.906 121.59V86.4113C171.906 84.2025 170.115 82.4113 167.906 82.4113Z" fill="#CCCCCC"/>
<path d="M144.707 90.0225C147.469 90.0225 149.707 87.7838 149.707 85.0225V84.7575C149.707 83.4613 150.757 82.4113 152.054 82.4113H167.906C170.115 82.4113 171.906 84.2025 171.906 86.4113V121.59C171.906 123.799 170.115 125.59 167.906 125.59H146.095C143.886 125.59 142.095 123.799 142.095 121.59V92.37C142.095 91.0738 143.145 90.0238 144.441 90.0238H144.706L144.707 90.0225Z" fill="#E6E6E6"/>
<path d="M155.824 102.31H147.22C146.944 102.31 146.72 102.086 146.72 101.81C146.72 101.534 146.944 101.31 147.22 101.31H155.824C156.1 101.31 156.324 101.534 156.324 101.81C156.324 102.086 156.1 102.31 155.824 102.31Z" fill="#333333"/>
<path d="M166.97 104.99H147.22C146.944 104.99 146.72 104.766 146.72 104.49C146.72 104.214 146.944 103.99 147.22 103.99H166.97C167.246 103.99 167.47 104.214 167.47 104.49C167.47 104.766 167.246 104.99 166.97 104.99Z" fill="#333333"/>
<path d="M166.97 107.671H147.22C146.944 107.671 146.72 107.448 146.72 107.171C146.72 106.895 146.944 106.671 147.22 106.671H166.97C167.246 106.671 167.47 106.895 167.47 107.171C167.47 107.448 167.246 107.671 166.97 107.671Z" fill="#333333"/>
<path d="M166.97 110.351H147.22C146.944 110.351 146.72 110.128 146.72 109.851C146.72 109.575 146.944 109.351 147.22 109.351H166.97C167.246 109.351 167.47 109.575 167.47 109.851C167.47 110.128 167.246 110.351 166.97 110.351Z" fill="#333333"/>
<path d="M166.97 113.031H147.22C146.944 113.031 146.72 112.808 146.72 112.531C146.72 112.255 146.944 112.031 147.22 112.031H166.97C167.246 112.031 167.47 112.255 167.47 112.531C167.47 112.808 167.246 113.031 166.97 113.031Z" fill="#333333"/>
<g style="mix-blend-mode:multiply" opacity="0.32">
<path d="M144.707 90.0225C147.469 90.0225 149.707 87.7838 149.707 85.0225V84.7575C149.707 83.4613 150.757 82.4113 152.054 82.4113H167.906C170.115 82.4113 171.906 84.2025 171.906 86.4113V121.59C171.906 123.799 170.115 125.59 167.906 125.59H146.095C143.886 125.59 142.095 123.799 142.095 121.59V92.37C142.095 91.0738 143.145 90.0238 144.441 90.0238H144.706L144.707 90.0225Z" fill="url(#paint0_linear_1124_4113)"/>
</g>
<path d="M160.752 114.063L178.6 99.8L178.591 121.591C178.591 123.8 176.8 125.59 174.591 125.59H139.412C137.202 125.59 135.411 123.799 135.412 121.589L135.421 99.8L153.26 114.063C155.45 115.814 158.561 115.814 160.752 114.063Z" fill="#D9AA16"/>
<path d="M160.752 114.063L178.6 99.8L178.591 121.591C178.591 123.8 176.8 125.59 174.591 125.59H139.412C137.202 125.59 135.411 123.799 135.412 121.589L135.421 99.8L153.26 114.063C155.45 115.814 158.561 115.814 160.752 114.063Z" fill="url(#paint1_linear_1124_4113)" style="mix-blend-mode:multiply"/>
<path opacity="0.48" d="M174.591 125.589H139.412C137.202 125.589 135.411 123.797 135.412 121.587L135.421 99.7987L153.26 114.061" fill="url(#paint2_linear_1124_4113)" style="mix-blend-mode:multiply"/>
<path d="M157 97.335C160.022 97.335 162.472 94.8849 162.472 91.8625C162.472 88.8401 160.022 86.39 157 86.39C153.978 86.39 151.527 88.8401 151.527 91.8625C151.527 94.8849 153.978 97.335 157 97.335Z" fill="#FF1934"/>
<path d="M157 97.8625C153.691 97.8625 151 95.1713 151 91.8625C151 88.5538 153.691 85.8625 157 85.8625C160.309 85.8625 163 88.5538 163 91.8625C163 95.1713 160.309 97.8625 157 97.8625ZM157 86.0588C153.8 86.0588 151.196 88.6625 151.196 91.8625C151.196 95.0625 153.8 97.6663 157 97.6663C160.2 97.6663 162.804 95.0625 162.804 91.8625C162.804 88.6625 160.2 86.0588 157 86.0588Z" fill="#FF1934"/>
<path d="M159.38 92.6075C159.256 92.5563 159.115 92.6125 159.062 92.735C159.004 92.8725 158.929 92.9988 158.846 93.1188L158.576 92.485C158.391 92.0475 157.95 91.785 157.475 91.8325L155.832 91.9963C155.806 91.8175 155.777 91.6463 155.745 91.4813L157.444 91.3013C157.576 91.2875 157.672 91.1675 157.659 91.035C157.645 90.9013 157.522 90.8063 157.392 90.82L155.64 91.005C155.387 89.9763 155.061 89.3175 155.036 89.27C154.976 89.1513 154.831 89.1025 154.711 89.1625C154.591 89.2225 154.544 89.3688 154.604 89.4875C154.614 89.5063 155.466 91.2313 155.452 93.4738C155.237 93.2675 155.059 93.02 154.937 92.7338C154.885 92.6113 154.742 92.5538 154.62 92.6063C154.497 92.6588 154.44 92.8013 154.492 92.9238C154.717 93.4525 155.097 93.88 155.564 94.17C155.567 94.1725 155.571 94.175 155.576 94.1775C155.996 94.4363 156.485 94.585 157 94.585C157.742 94.585 158.43 94.2788 158.932 93.77C158.947 93.7575 158.96 93.745 158.971 93.73C159.191 93.4975 159.377 93.23 159.507 92.9238C159.56 92.8 159.502 92.6588 159.38 92.6063V92.6075ZM157 94.1013C156.615 94.1013 156.25 93.9988 155.926 93.8213C155.947 93.35 155.931 92.9 155.891 92.4788L157.522 92.3163C157.786 92.2888 158.027 92.435 158.13 92.6763L158.494 93.5313C158.091 93.8925 157.562 94.1025 157 94.1025V94.1013Z" fill="white"/>
</g>
<path d="M23.6203 144.54H26.0103L25.8803 144.15L24.8303 140.91C24.7503 141.197 24.3903 142.28 23.7503 144.16L23.6203 144.54ZM26.8303 147L26.2403 145.23H23.3903L22.7903 147H21.9203L24.2703 140.26H25.3903L27.7003 147H26.8303ZM29.5647 141.93V142.81C29.8647 142.177 30.398 141.86 31.1647 141.86C31.658 141.86 32.0514 142.01 32.3447 142.31C32.638 142.61 32.7847 143.01 32.7847 143.51V147H31.9947V143.72C31.9947 143.347 31.898 143.063 31.7047 142.87C31.518 142.67 31.2714 142.57 30.9647 142.57C30.5847 142.57 30.2547 142.717 29.9747 143.01C29.7014 143.303 29.5647 143.71 29.5647 144.23V147H28.7847V141.93H29.5647ZM36.1151 146.36C36.5284 146.36 36.8784 146.207 37.1651 145.9C37.4584 145.593 37.6051 145.103 37.6051 144.43C37.6051 143.79 37.4551 143.32 37.1551 143.02C36.8551 142.72 36.5251 142.57 36.1651 142.57C35.7451 142.57 35.3951 142.74 35.1151 143.08C34.8417 143.413 34.7051 143.893 34.7051 144.52C34.7051 145.067 34.8384 145.51 35.1051 145.85C35.3717 146.19 35.7084 146.36 36.1151 146.36ZM37.6051 139.93H38.3951V147H37.6051V146.25C37.2451 146.803 36.7251 147.08 36.0451 147.08C35.3717 147.08 34.8417 146.83 34.4551 146.33C34.0751 145.83 33.8851 145.223 33.8851 144.51C33.8851 143.717 34.0884 143.077 34.4951 142.59C34.9017 142.097 35.4251 141.85 36.0651 141.85C36.7251 141.85 37.2384 142.133 37.6051 142.7V139.93ZM42.5889 144.66H41.7089C41.2822 144.66 40.9622 144.743 40.7489 144.91C40.5356 145.077 40.4289 145.287 40.4289 145.54C40.4289 145.793 40.5122 146 40.6789 146.16C40.8456 146.313 41.0889 146.39 41.4089 146.39C41.7689 146.39 42.0556 146.29 42.2689 146.09C42.4822 145.883 42.5889 145.623 42.5889 145.31V144.66ZM39.9689 142.99V142.2C40.3489 141.967 40.8489 141.85 41.4689 141.85C42.7422 141.85 43.3789 142.497 43.3789 143.79V147H42.5989V146.4C42.3389 146.833 41.8656 147.05 41.1789 147.05C40.7056 147.05 40.3222 146.91 40.0289 146.63C39.7422 146.35 39.5989 145.997 39.5989 145.57C39.5989 145.083 39.7822 144.707 40.1489 144.44C40.5222 144.167 41.0289 144.03 41.6689 144.03H42.5889V143.77C42.5889 143.37 42.4989 143.07 42.3189 142.87C42.1389 142.663 41.8356 142.56 41.4089 142.56C40.8689 142.56 40.3889 142.703 39.9689 142.99ZM49.9522 144.66H49.0722C48.6455 144.66 48.3255 144.743 48.1122 144.91C47.8989 145.077 47.7922 145.287 47.7922 145.54C47.7922 145.793 47.8755 146 48.0422 146.16C48.2089 146.313 48.4522 146.39 48.7722 146.39C49.1322 146.39 49.4189 146.29 49.6322 146.09C49.8455 145.883 49.9522 145.623 49.9522 145.31V144.66ZM47.3322 142.99V142.2C47.7122 141.967 48.2122 141.85 48.8322 141.85C50.1055 141.85 50.7422 142.497 50.7422 143.79V147H49.9622V146.4C49.7022 146.833 49.2289 147.05 48.5422 147.05C48.0689 147.05 47.6855 146.91 47.3922 146.63C47.1055 146.35 46.9622 145.997 46.9622 145.57C46.9622 145.083 47.1455 144.707 47.5122 144.44C47.8855 144.167 48.3922 144.03 49.0322 144.03H49.9522V143.77C49.9522 143.37 49.8622 143.07 49.6822 142.87C49.5022 142.663 49.1989 142.56 48.7722 142.56C48.2322 142.56 47.7522 142.703 47.3322 142.99ZM52.1441 147V139.97H52.9241V147H52.1441ZM53.9541 144.34L56.0141 147H55.0641L53.0241 144.34L55.0141 141.93H55.9541L53.9541 144.34ZM59.6788 144.66H58.7988C58.3721 144.66 58.0521 144.743 57.8388 144.91C57.6254 145.077 57.5188 145.287 57.5188 145.54C57.5188 145.793 57.6021 146 57.7688 146.16C57.9354 146.313 58.1788 146.39 58.4988 146.39C58.8588 146.39 59.1454 146.29 59.3588 146.09C59.5721 145.883 59.6788 145.623 59.6788 145.31V144.66ZM57.0588 142.99V142.2C57.4388 141.967 57.9388 141.85 58.5588 141.85C59.8321 141.85 60.4688 142.497 60.4688 143.79V147H59.6888V146.4C59.4288 146.833 58.9554 147.05 58.2688 147.05C57.7954 147.05 57.4121 146.91 57.1188 146.63C56.8321 146.35 56.6888 145.997 56.6888 145.57C56.6888 145.083 56.8721 144.707 57.2388 144.44C57.6121 144.167 58.1188 144.03 58.7588 144.03H59.6788V143.77C59.6788 143.37 59.5888 143.07 59.4088 142.87C59.2288 142.663 58.9254 142.56 58.4988 142.56C57.9588 142.56 57.4788 142.703 57.0588 142.99ZM62.6506 141.93V142.81C62.9506 142.177 63.484 141.86 64.2506 141.86C64.744 141.86 65.1373 142.01 65.4306 142.31C65.724 142.61 65.8706 143.01 65.8706 143.51V147H65.0806V143.72C65.0806 143.347 64.984 143.063 64.7906 142.87C64.604 142.67 64.3573 142.57 64.0506 142.57C63.6706 142.57 63.3406 142.717 63.0606 143.01C62.7873 143.303 62.6506 143.71 62.6506 144.23V147H61.8706V141.93H62.6506ZM70.4924 141.93V142.75C70.7724 142.157 71.2491 141.86 71.9224 141.86C72.7024 141.86 73.1958 142.19 73.4024 142.85C73.5491 142.53 73.7524 142.287 74.0124 142.12C74.2791 141.947 74.5758 141.86 74.9024 141.86C75.4291 141.86 75.8258 142.01 76.0924 142.31C76.3591 142.61 76.4924 143.013 76.4924 143.52V147H75.7024V143.72C75.7024 142.953 75.3791 142.57 74.7324 142.57C74.4124 142.57 74.1258 142.717 73.8724 143.01C73.6191 143.297 73.4924 143.703 73.4924 144.23V147H72.7024V143.72C72.7024 142.953 72.3791 142.57 71.7324 142.57C71.4124 142.57 71.1258 142.717 70.8724 143.01C70.6191 143.297 70.4924 143.703 70.4924 144.23V147H69.7124V141.93H70.4924ZM81.126 144.14V143.94C81.126 143.52 81.0127 143.187 80.786 142.94C80.5593 142.687 80.246 142.56 79.846 142.56C79.466 142.56 79.1427 142.697 78.876 142.97C78.6093 143.243 78.4527 143.633 78.406 144.14H81.126ZM81.596 146V146.74C81.2027 146.947 80.7227 147.05 80.156 147.05C79.3893 147.05 78.7693 146.817 78.296 146.35C77.8293 145.877 77.596 145.253 77.596 144.48C77.596 143.673 77.806 143.037 78.226 142.57C78.646 142.103 79.186 141.87 79.846 141.87C80.4793 141.87 80.9827 142.073 81.356 142.48C81.7293 142.887 81.916 143.463 81.916 144.21C81.916 144.423 81.8993 144.62 81.866 144.8H78.406C78.466 145.3 78.656 145.683 78.976 145.95C79.296 146.217 79.716 146.35 80.236 146.35C80.8027 146.35 81.256 146.233 81.596 146ZM83.9006 141.93V142.75C84.1806 142.157 84.6573 141.86 85.3306 141.86C86.1106 141.86 86.604 142.19 86.8106 142.85C86.9573 142.53 87.1606 142.287 87.4206 142.12C87.6873 141.947 87.984 141.86 88.3106 141.86C88.8373 141.86 89.234 142.01 89.5006 142.31C89.7673 142.61 89.9006 143.013 89.9006 143.52V147H89.1106V143.72C89.1106 142.953 88.7873 142.57 88.1406 142.57C87.8206 142.57 87.534 142.717 87.2806 143.01C87.0273 143.297 86.9006 143.703 86.9006 144.23V147H86.1106V143.72C86.1106 142.953 85.7873 142.57 85.1406 142.57C84.8206 142.57 84.534 142.717 84.2806 143.01C84.0273 143.297 83.9006 143.703 83.9006 144.23V147H83.1206V141.93H83.9006ZM93.6142 146.36C94.0209 146.36 94.3576 146.19 94.6242 145.85C94.8909 145.51 95.0242 145.067 95.0242 144.52C95.0242 143.893 94.8842 143.413 94.6042 143.08C94.3309 142.74 93.9842 142.57 93.5642 142.57C93.2042 142.57 92.8742 142.72 92.5742 143.02C92.2742 143.32 92.1242 143.79 92.1242 144.43C92.1242 145.103 92.2676 145.593 92.5542 145.9C92.8476 146.207 93.2009 146.36 93.6142 146.36ZM92.1242 139.93V142.69C92.4909 142.13 93.0042 141.85 93.6642 141.85C94.3042 141.85 94.8276 142.097 95.2342 142.59C95.6409 143.077 95.8442 143.717 95.8442 144.51C95.8442 145.223 95.6509 145.83 95.2642 146.33C94.8842 146.83 94.3576 147.08 93.6842 147.08C93.0042 147.08 92.4842 146.803 92.1242 146.25V147H91.3342V139.93H92.1242ZM100.237 144.14V143.94C100.237 143.52 100.124 143.187 99.8973 142.94C99.6707 142.687 99.3573 142.56 98.9573 142.56C98.5773 142.56 98.254 142.697 97.9873 142.97C97.7207 143.243 97.564 143.633 97.5173 144.14H100.237ZM100.707 146V146.74C100.314 146.947 99.834 147.05 99.2673 147.05C98.5007 147.05 97.8807 146.817 97.4073 146.35C96.9407 145.877 96.7073 145.253 96.7073 144.48C96.7073 143.673 96.9173 143.037 97.3373 142.57C97.7573 142.103 98.2973 141.87 98.9573 141.87C99.5907 141.87 100.094 142.073 100.467 142.48C100.841 142.887 101.027 143.463 101.027 144.21C101.027 144.423 101.011 144.62 100.977 144.8H97.5173C97.5773 145.3 97.7673 145.683 98.0873 145.95C98.4073 146.217 98.8273 146.35 99.3473 146.35C99.914 146.35 100.367 146.233 100.707 146ZM102.272 147V139.93H103.062V147H102.272ZM104.606 147V141.93H105.396V147H104.606ZM104.626 140.71C104.533 140.61 104.486 140.487 104.486 140.34C104.486 140.193 104.533 140.07 104.626 139.97C104.726 139.87 104.849 139.82 104.996 139.82C105.143 139.82 105.266 139.87 105.366 139.97C105.466 140.07 105.516 140.193 105.516 140.34C105.516 140.487 105.466 140.61 105.366 140.71C105.266 140.803 105.143 140.85 104.996 140.85C104.849 140.85 104.726 140.803 104.626 140.71ZM110.201 146.29H111.411C112.245 146.29 112.875 146.033 113.301 145.52C113.728 145 113.941 144.353 113.941 143.58C113.941 142.847 113.701 142.23 113.221 141.73C112.748 141.23 112.131 140.98 111.371 140.98H110.201V146.29ZM109.381 140.26H111.381C112.375 140.26 113.188 140.57 113.821 141.19C114.461 141.803 114.781 142.6 114.781 143.58C114.781 144.553 114.485 145.367 113.891 146.02C113.305 146.673 112.481 147 111.421 147H109.381V140.26ZM118.683 144.66H117.803C117.376 144.66 117.056 144.743 116.843 144.91C116.629 145.077 116.523 145.287 116.523 145.54C116.523 145.793 116.606 146 116.773 146.16C116.939 146.313 117.183 146.39 117.503 146.39C117.863 146.39 118.149 146.29 118.363 146.09C118.576 145.883 118.683 145.623 118.683 145.31V144.66ZM116.063 142.99V142.2C116.443 141.967 116.943 141.85 117.563 141.85C118.836 141.85 119.473 142.497 119.473 143.79V147H118.693V146.4C118.433 146.833 117.959 147.05 117.273 147.05C116.799 147.05 116.416 146.91 116.123 146.63C115.836 146.35 115.693 145.997 115.693 145.57C115.693 145.083 115.876 144.707 116.243 144.44C116.616 144.167 117.123 144.03 117.763 144.03H118.683V143.77C118.683 143.37 118.593 143.07 118.413 142.87C118.233 142.663 117.929 142.56 117.503 142.56C116.963 142.56 116.483 142.703 116.063 142.99ZM121.655 141.93V142.81C121.955 142.177 122.488 141.86 123.255 141.86C123.748 141.86 124.141 142.01 124.435 142.31C124.728 142.61 124.875 143.01 124.875 143.51V147H124.085V143.72C124.085 143.347 123.988 143.063 123.795 142.87C123.608 142.67 123.361 142.57 123.055 142.57C122.675 142.57 122.345 142.717 122.065 143.01C121.791 143.303 121.655 143.71 121.655 144.23V147H120.875V141.93H121.655ZM129.005 144.66H128.125C127.698 144.66 127.378 144.743 127.165 144.91C126.952 145.077 126.845 145.287 126.845 145.54C126.845 145.793 126.928 146 127.095 146.16C127.262 146.313 127.505 146.39 127.825 146.39C128.185 146.39 128.472 146.29 128.685 146.09C128.898 145.883 129.005 145.623 129.005 145.31V144.66ZM126.385 142.99V142.2C126.765 141.967 127.265 141.85 127.885 141.85C129.158 141.85 129.795 142.497 129.795 143.79V147H129.015V146.4C128.755 146.833 128.282 147.05 127.595 147.05C127.122 147.05 126.738 146.91 126.445 146.63C126.158 146.35 126.015 145.997 126.015 145.57C126.015 145.083 126.198 144.707 126.565 144.44C126.938 144.167 127.445 144.03 128.085 144.03H129.005V143.77C129.005 143.37 128.915 143.07 128.735 142.87C128.555 142.663 128.252 142.56 127.825 142.56C127.285 142.56 126.805 142.703 126.385 142.99ZM134.488 143.83H135.528C136.035 143.83 136.432 143.7 136.718 143.44C137.005 143.173 137.148 142.837 137.148 142.43C137.148 141.977 137.002 141.617 136.708 141.35C136.415 141.083 135.998 140.95 135.458 140.95H134.488V143.83ZM133.678 140.26H135.448C136.228 140.26 136.842 140.463 137.288 140.87C137.742 141.27 137.968 141.79 137.968 142.43C137.968 143.03 137.745 143.53 137.298 143.93C136.852 144.323 136.262 144.52 135.528 144.52H134.488V147H133.678V140.26ZM142.317 144.14V143.94C142.317 143.52 142.204 143.187 141.977 142.94C141.751 142.687 141.437 142.56 141.037 142.56C140.657 142.56 140.334 142.697 140.067 142.97C139.801 143.243 139.644 143.633 139.597 144.14H142.317ZM142.787 146V146.74C142.394 146.947 141.914 147.05 141.347 147.05C140.581 147.05 139.961 146.817 139.487 146.35C139.021 145.877 138.787 145.253 138.787 144.48C138.787 143.673 138.997 143.037 139.417 142.57C139.837 142.103 140.377 141.87 141.037 141.87C141.671 141.87 142.174 142.073 142.547 142.48C142.921 142.887 143.107 143.463 143.107 144.21C143.107 144.423 143.091 144.62 143.057 144.8H139.597C139.657 145.3 139.847 145.683 140.167 145.95C140.487 146.217 140.907 146.35 141.427 146.35C141.994 146.35 142.447 146.233 142.787 146ZM145.092 141.93V142.81C145.392 142.177 145.925 141.86 146.692 141.86C147.185 141.86 147.579 142.01 147.872 142.31C148.165 142.61 148.312 143.01 148.312 143.51V147H147.522V143.72C147.522 143.347 147.425 143.063 147.232 142.87C147.045 142.67 146.799 142.57 146.492 142.57C146.112 142.57 145.782 142.717 145.502 143.01C145.229 143.303 145.092 143.71 145.092 144.23V147H144.312V141.93H145.092ZM152.472 142.1V142.85C152.166 142.663 151.746 142.57 151.212 142.57C150.946 142.57 150.732 142.633 150.572 142.76C150.419 142.88 150.342 143.037 150.342 143.23C150.342 143.35 150.366 143.457 150.412 143.55C150.459 143.637 150.549 143.723 150.682 143.81C150.822 143.897 150.922 143.957 150.982 143.99C151.049 144.017 151.189 144.077 151.402 144.17C151.829 144.343 152.162 144.54 152.402 144.76C152.642 144.98 152.762 145.277 152.762 145.65C152.762 146.083 152.609 146.427 152.302 146.68C152.002 146.933 151.589 147.06 151.062 147.06C150.449 147.06 149.952 146.957 149.572 146.75V145.98C150.019 146.247 150.499 146.38 151.012 146.38C151.319 146.38 151.552 146.32 151.712 146.2C151.872 146.08 151.952 145.917 151.952 145.71C151.952 145.47 151.862 145.283 151.682 145.15C151.509 145.017 151.216 144.867 150.802 144.7C150.422 144.553 150.116 144.37 149.882 144.15C149.656 143.93 149.542 143.633 149.542 143.26C149.542 142.84 149.699 142.507 150.012 142.26C150.332 142.007 150.729 141.88 151.202 141.88C151.729 141.88 152.152 141.953 152.472 142.1ZM153.874 147V141.93H154.664V147H153.874ZM153.894 140.71C153.8 140.61 153.754 140.487 153.754 140.34C153.754 140.193 153.8 140.07 153.894 139.97C153.994 139.87 154.117 139.82 154.264 139.82C154.41 139.82 154.534 139.87 154.634 139.97C154.734 140.07 154.784 140.193 154.784 140.34C154.784 140.487 154.734 140.61 154.634 140.71C154.534 140.803 154.41 140.85 154.264 140.85C154.117 140.85 153.994 140.803 153.894 140.71ZM159.318 141.93H160.108V147H159.318V146.12C159.051 146.747 158.521 147.06 157.728 147.06C157.228 147.06 156.831 146.913 156.538 146.62C156.251 146.32 156.108 145.92 156.108 145.42V141.93H156.898V145.22C156.898 145.587 156.991 145.867 157.178 146.06C157.364 146.253 157.618 146.35 157.938 146.35C158.358 146.35 158.691 146.203 158.938 145.91C159.191 145.617 159.318 145.22 159.318 144.72V141.93ZM162.348 141.93V142.81C162.648 142.177 163.181 141.86 163.948 141.86C164.441 141.86 164.835 142.01 165.128 142.31C165.421 142.61 165.568 143.01 165.568 143.51V147H164.778V143.72C164.778 143.347 164.681 143.063 164.488 142.87C164.301 142.67 164.055 142.57 163.748 142.57C163.368 142.57 163.038 142.717 162.758 143.01C162.485 143.303 162.348 143.71 162.348 144.23V147H161.568V141.93H162.348ZM171.34 146.36C171.753 146.36 172.103 146.207 172.39 145.9C172.683 145.593 172.83 145.103 172.83 144.43C172.83 143.79 172.68 143.32 172.38 143.02C172.08 142.72 171.75 142.57 171.39 142.57C170.97 142.57 170.62 142.74 170.34 143.08C170.066 143.413 169.93 143.893 169.93 144.52C169.93 145.067 170.063 145.51 170.33 145.85C170.596 146.19 170.933 146.36 171.34 146.36ZM172.83 139.93H173.62V147H172.83V146.25C172.47 146.803 171.95 147.08 171.27 147.08C170.596 147.08 170.066 146.83 169.68 146.33C169.3 145.83 169.11 145.223 169.11 144.51C169.11 143.717 169.313 143.077 169.72 142.59C170.126 142.097 170.65 141.85 171.29 141.85C171.95 141.85 172.463 142.133 172.83 142.7V139.93ZM178.314 144.14V143.94C178.314 143.52 178.2 143.187 177.974 142.94C177.747 142.687 177.434 142.56 177.034 142.56C176.654 142.56 176.33 142.697 176.064 142.97C175.797 143.243 175.64 143.633 175.594 144.14H178.314ZM178.784 146V146.74C178.39 146.947 177.91 147.05 177.344 147.05C176.577 147.05 175.957 146.817 175.484 146.35C175.017 145.877 174.784 145.253 174.784 144.48C174.784 143.673 174.994 143.037 175.414 142.57C175.834 142.103 176.374 141.87 177.034 141.87C177.667 141.87 178.17 142.073 178.544 142.48C178.917 142.887 179.104 143.463 179.104 144.21C179.104 144.423 179.087 144.62 179.054 144.8H175.594C175.654 145.3 175.844 145.683 176.164 145.95C176.484 146.217 176.904 146.35 177.424 146.35C177.99 146.35 178.444 146.233 178.784 146ZM181.088 141.93V142.81C181.388 142.177 181.921 141.86 182.688 141.86C183.181 141.86 183.575 142.01 183.868 142.31C184.161 142.61 184.308 143.01 184.308 143.51V147H183.518V143.72C183.518 143.347 183.421 143.063 183.228 142.87C183.041 142.67 182.795 142.57 182.488 142.57C182.108 142.57 181.778 142.717 181.498 143.01C181.225 143.303 181.088 143.71 181.088 144.23V147H180.308V141.93H181.088ZM187.609 146.17C187.975 146.17 188.299 146.03 188.579 145.75C188.865 145.463 189.009 145.04 189.009 144.48C189.009 143.833 188.872 143.353 188.599 143.04C188.325 142.727 188.009 142.57 187.649 142.57C187.215 142.57 186.872 142.743 186.619 143.09C186.365 143.43 186.239 143.877 186.239 144.43C186.239 144.997 186.379 145.43 186.659 145.73C186.939 146.023 187.255 146.17 187.609 146.17ZM189.009 141.93H189.799V146.59C189.799 147.363 189.585 147.943 189.159 148.33C188.732 148.723 188.182 148.92 187.509 148.92C186.895 148.92 186.372 148.817 185.939 148.61V147.82C186.365 148.067 186.865 148.19 187.439 148.19C187.925 148.19 188.309 148.06 188.589 147.8C188.869 147.54 189.009 147.133 189.009 146.58V146.01C188.675 146.583 188.179 146.87 187.519 146.87C186.939 146.87 186.442 146.657 186.029 146.23C185.622 145.803 185.419 145.21 185.419 144.45C185.419 143.697 185.609 143.077 185.989 142.59C186.369 142.103 186.865 141.86 187.479 141.86C188.172 141.86 188.682 142.163 189.009 142.77V141.93ZM193.927 144.66H193.047C192.62 144.66 192.3 144.743 192.087 144.91C191.873 145.077 191.767 145.287 191.767 145.54C191.767 145.793 191.85 146 192.017 146.16C192.183 146.313 192.427 146.39 192.747 146.39C193.107 146.39 193.393 146.29 193.607 146.09C193.82 145.883 193.927 145.623 193.927 145.31V144.66ZM191.307 142.99V142.2C191.687 141.967 192.187 141.85 192.807 141.85C194.08 141.85 194.717 142.497 194.717 143.79V147H193.937V146.4C193.677 146.833 193.203 147.05 192.517 147.05C192.043 147.05 191.66 146.91 191.367 146.63C191.08 146.35 190.937 145.997 190.937 145.57C190.937 145.083 191.12 144.707 191.487 144.44C191.86 144.167 192.367 144.03 193.007 144.03H193.927V143.77C193.927 143.37 193.837 143.07 193.657 142.87C193.477 142.663 193.173 142.56 192.747 142.56C192.207 142.56 191.727 142.703 191.307 142.99ZM196.899 141.93V142.81C197.199 142.177 197.732 141.86 198.499 141.86C198.992 141.86 199.385 142.01 199.679 142.31C199.972 142.61 200.119 143.01 200.119 143.51V147H199.329V143.72C199.329 143.347 199.232 143.063 199.039 142.87C198.852 142.67 198.605 142.57 198.299 142.57C197.919 142.57 197.589 142.717 197.309 143.01C197.035 143.303 196.899 143.71 196.899 144.23V147H196.119V141.93H196.899ZM204.74 141.93V142.75C205.02 142.157 205.497 141.86 206.17 141.86C206.95 141.86 207.444 142.19 207.65 142.85C207.797 142.53 208 142.287 208.26 142.12C208.527 141.947 208.824 141.86 209.15 141.86C209.677 141.86 210.074 142.01 210.34 142.31C210.607 142.61 210.74 143.013 210.74 143.52V147H209.95V143.72C209.95 142.953 209.627 142.57 208.98 142.57C208.66 142.57 208.374 142.717 208.12 143.01C207.867 143.297 207.74 143.703 207.74 144.23V147H206.95V143.72C206.95 142.953 206.627 142.57 205.98 142.57C205.66 142.57 205.374 142.717 205.12 143.01C204.867 143.297 204.74 143.703 204.74 144.23V147H203.96V141.93H204.74ZM215.374 144.14V143.94C215.374 143.52 215.261 143.187 215.034 142.94C214.807 142.687 214.494 142.56 214.094 142.56C213.714 142.56 213.391 142.697 213.124 142.97C212.857 143.243 212.701 143.633 212.654 144.14H215.374ZM215.844 146V146.74C215.451 146.947 214.971 147.05 214.404 147.05C213.637 147.05 213.017 146.817 212.544 146.35C212.077 145.877 211.844 145.253 211.844 144.48C211.844 143.673 212.054 143.037 212.474 142.57C212.894 142.103 213.434 141.87 214.094 141.87C214.727 141.87 215.231 142.073 215.604 142.48C215.977 142.887 216.164 143.463 216.164 144.21C216.164 144.423 216.147 144.62 216.114 144.8H212.654C212.714 145.3 212.904 145.683 213.224 145.95C213.544 146.217 213.964 146.35 214.484 146.35C215.051 146.35 215.504 146.233 215.844 146ZM218.459 142.57V145.54C218.459 146.08 218.712 146.35 219.219 146.35C219.479 146.35 219.709 146.273 219.909 146.12V146.87C219.689 146.99 219.442 147.05 219.169 147.05C218.169 147.05 217.669 146.54 217.669 145.52V142.57H216.859V141.93H217.669V140.67H218.459V141.93H219.859V142.57H218.459ZM223.12 147.09C222.393 147.09 221.817 146.847 221.39 146.36C220.97 145.867 220.76 145.247 220.76 144.5C220.76 143.747 220.977 143.12 221.41 142.62C221.85 142.113 222.42 141.86 223.12 141.86C223.887 141.86 224.477 142.107 224.89 142.6C225.31 143.093 225.52 143.72 225.52 144.48C225.52 145.233 225.307 145.857 224.88 146.35C224.453 146.843 223.867 147.09 223.12 147.09ZM223.12 142.56C222.64 142.56 222.263 142.747 221.99 143.12C221.717 143.493 221.58 143.95 221.58 144.49C221.58 145.017 221.72 145.467 222 145.84C222.28 146.207 222.653 146.39 223.12 146.39C223.627 146.39 224.017 146.21 224.29 145.85C224.563 145.483 224.7 145.03 224.7 144.49C224.7 143.93 224.57 143.47 224.31 143.11C224.05 142.743 223.653 142.56 223.12 142.56ZM228.605 146.36C229.019 146.36 229.369 146.207 229.655 145.9C229.949 145.593 230.095 145.103 230.095 144.43C230.095 143.79 229.945 143.32 229.645 143.02C229.345 142.72 229.015 142.57 228.655 142.57C228.235 142.57 227.885 142.74 227.605 143.08C227.332 143.413 227.195 143.893 227.195 144.52C227.195 145.067 227.329 145.51 227.595 145.85C227.862 146.19 228.199 146.36 228.605 146.36ZM230.095 139.93H230.885V147H230.095V146.25C229.735 146.803 229.215 147.08 228.535 147.08C227.862 147.08 227.332 146.83 226.945 146.33C226.565 145.83 226.375 145.223 226.375 144.51C226.375 143.717 226.579 143.077 226.985 142.59C227.392 142.097 227.915 141.85 228.555 141.85C229.215 141.85 229.729 142.133 230.095 142.7V139.93ZM235.579 144.14V143.94C235.579 143.52 235.466 143.187 235.239 142.94C235.012 142.687 234.699 142.56 234.299 142.56C233.919 142.56 233.596 142.697 233.329 142.97C233.062 143.243 232.906 143.633 232.859 144.14H235.579ZM236.049 146V146.74C235.656 146.947 235.176 147.05 234.609 147.05C233.842 147.05 233.222 146.817 232.749 146.35C232.282 145.877 232.049 145.253 232.049 144.48C232.049 143.673 232.259 143.037 232.679 142.57C233.099 142.103 233.639 141.87 234.299 141.87C234.932 141.87 235.436 142.073 235.809 142.48C236.182 142.887 236.369 143.463 236.369 144.21C236.369 144.423 236.352 144.62 236.319 144.8H232.859C232.919 145.3 233.109 145.683 233.429 145.95C233.749 146.217 234.169 146.35 234.689 146.35C235.256 146.35 235.709 146.233 236.049 146ZM242.245 146.36C242.672 146.36 243.022 146.193 243.295 145.86C243.568 145.52 243.705 145.04 243.705 144.42C243.705 143.867 243.572 143.42 243.305 143.08C243.038 142.74 242.702 142.57 242.295 142.57C241.888 142.57 241.535 142.72 241.235 143.02C240.942 143.313 240.795 143.797 240.795 144.47C240.795 145.117 240.945 145.593 241.245 145.9C241.545 146.207 241.878 146.36 242.245 146.36ZM240.795 141.93V142.7C241.148 142.133 241.672 141.85 242.365 141.85C243.038 141.85 243.565 142.097 243.945 142.59C244.332 143.077 244.525 143.687 244.525 144.42C244.525 145.2 244.322 145.84 243.915 146.34C243.515 146.833 242.992 147.08 242.345 147.08C241.678 147.08 241.162 146.797 240.795 146.23V148.97H240.015V141.93H240.795ZM248.919 144.14V143.94C248.919 143.52 248.806 143.187 248.579 142.94C248.352 142.687 248.039 142.56 247.639 142.56C247.259 142.56 246.936 142.697 246.669 142.97C246.402 143.243 246.246 143.633 246.199 144.14H248.919ZM249.389 146V146.74C248.996 146.947 248.516 147.05 247.949 147.05C247.182 147.05 246.562 146.817 246.089 146.35C245.622 145.877 245.389 145.253 245.389 144.48C245.389 143.673 245.599 143.037 246.019 142.57C246.439 142.103 246.979 141.87 247.639 141.87C248.272 141.87 248.776 142.073 249.149 142.48C249.522 142.887 249.709 143.463 249.709 144.21C249.709 144.423 249.692 144.62 249.659 144.8H246.199C246.259 145.3 246.449 145.683 246.769 145.95C247.089 146.217 247.509 146.35 248.029 146.35C248.596 146.35 249.049 146.233 249.389 146ZM251.694 141.93V142.75C251.974 142.157 252.45 141.86 253.124 141.86C253.904 141.86 254.397 142.19 254.604 142.85C254.75 142.53 254.954 142.287 255.214 142.12C255.48 141.947 255.777 141.86 256.104 141.86C256.63 141.86 257.027 142.01 257.294 142.31C257.56 142.61 257.694 143.013 257.694 143.52V147H256.904V143.72C256.904 142.953 256.58 142.57 255.934 142.57C255.614 142.57 255.327 142.717 255.074 143.01C254.82 143.297 254.694 143.703 254.694 144.23V147H253.904V143.72C253.904 142.953 253.58 142.57 252.934 142.57C252.614 142.57 252.327 142.717 252.074 143.01C251.82 143.297 251.694 143.703 251.694 144.23V147H250.914V141.93H251.694ZM261.407 146.36C261.814 146.36 262.151 146.19 262.417 145.85C262.684 145.51 262.817 145.067 262.817 144.52C262.817 143.893 262.677 143.413 262.397 143.08C262.124 142.74 261.777 142.57 261.357 142.57C260.997 142.57 260.667 142.72 260.367 143.02C260.067 143.32 259.917 143.79 259.917 144.43C259.917 145.103 260.061 145.593 260.347 145.9C260.641 146.207 260.994 146.36 261.407 146.36ZM259.917 139.93V142.69C260.284 142.13 260.797 141.85 261.457 141.85C262.097 141.85 262.621 142.097 263.027 142.59C263.434 143.077 263.637 143.717 263.637 144.51C263.637 145.223 263.444 145.83 263.057 146.33C262.677 146.83 262.151 147.08 261.477 147.08C260.797 147.08 260.277 146.803 259.917 146.25V147H259.127V139.93H259.917ZM267.53 144.66H266.65C266.224 144.66 265.904 144.743 265.69 144.91C265.477 145.077 265.37 145.287 265.37 145.54C265.37 145.793 265.454 146 265.62 146.16C265.787 146.313 266.03 146.39 266.35 146.39C266.71 146.39 266.997 146.29 267.21 146.09C267.424 145.883 267.53 145.623 267.53 145.31V144.66ZM264.91 142.99V142.2C265.29 141.967 265.79 141.85 266.41 141.85C267.684 141.85 268.32 142.497 268.32 143.79V147H267.54V146.4C267.28 146.833 266.807 147.05 266.12 147.05C265.647 147.05 265.264 146.91 264.97 146.63C264.684 146.35 264.54 145.997 264.54 145.57C264.54 145.083 264.724 144.707 265.09 144.44C265.464 144.167 265.97 144.03 266.61 144.03H267.53V143.77C267.53 143.37 267.44 143.07 267.26 142.87C267.08 142.663 266.777 142.56 266.35 142.56C265.81 142.56 265.33 142.703 264.91 142.99ZM271.122 146.87L269.072 141.93H269.962L270.622 143.6L271.512 145.9C271.566 145.727 271.832 144.96 272.312 143.6L272.902 141.93H273.752L271.922 146.87C271.662 147.557 271.352 148.04 270.992 148.32C270.639 148.6 270.232 148.74 269.772 148.74C269.599 148.74 269.459 148.723 269.352 148.69V147.98C269.452 148.007 269.566 148.02 269.692 148.02C270.366 148.02 270.842 147.637 271.122 146.87ZM277.384 144.66H276.504C276.077 144.66 275.757 144.743 275.544 144.91C275.33 145.077 275.224 145.287 275.224 145.54C275.224 145.793 275.307 146 275.474 146.16C275.64 146.313 275.884 146.39 276.204 146.39C276.564 146.39 276.85 146.29 277.064 146.09C277.277 145.883 277.384 145.623 277.384 145.31V144.66ZM274.764 142.99V142.2C275.144 141.967 275.644 141.85 276.264 141.85C277.537 141.85 278.174 142.497 278.174 143.79V147H277.394V146.4C277.134 146.833 276.66 147.05 275.974 147.05C275.5 147.05 275.117 146.91 274.824 146.63C274.537 146.35 274.394 145.997 274.394 145.57C274.394 145.083 274.577 144.707 274.944 144.44C275.317 144.167 275.824 144.03 276.464 144.03H277.384V143.77C277.384 143.37 277.294 143.07 277.114 142.87C276.934 142.663 276.63 142.56 276.204 142.56C275.664 142.56 275.184 142.703 274.764 142.99ZM280.356 141.93V142.82C280.622 142.193 281.082 141.88 281.736 141.88C281.856 141.88 281.949 141.887 282.016 141.9V142.68C281.876 142.633 281.732 142.61 281.586 142.61C281.232 142.61 280.939 142.773 280.706 143.1C280.472 143.427 280.356 143.803 280.356 144.23V147H279.566L279.576 141.93H280.356ZM285.567 144.66H284.687C284.261 144.66 283.941 144.743 283.727 144.91C283.514 145.077 283.407 145.287 283.407 145.54C283.407 145.793 283.491 146 283.657 146.16C283.824 146.313 284.067 146.39 284.387 146.39C284.747 146.39 285.034 146.29 285.247 146.09C285.461 145.883 285.567 145.623 285.567 145.31V144.66ZM282.947 142.99V142.2C283.327 141.967 283.827 141.85 284.447 141.85C285.721 141.85 286.357 142.497 286.357 143.79V147H285.577V146.4C285.317 146.833 284.844 147.05 284.157 147.05C283.684 147.05 283.301 146.91 283.007 146.63C282.721 146.35 282.577 145.997 282.577 145.57C282.577 145.083 282.761 144.707 283.127 144.44C283.501 144.167 284.007 144.03 284.647 144.03H285.567V143.77C285.567 143.37 285.477 143.07 285.297 142.87C285.117 142.663 284.814 142.56 284.387 142.56C283.847 142.56 283.367 142.703 282.947 142.99ZM288.539 141.93V142.81C288.839 142.177 289.373 141.86 290.139 141.86C290.633 141.86 291.026 142.01 291.319 142.31C291.613 142.61 291.759 143.01 291.759 143.51V147H290.969V143.72C290.969 143.347 290.873 143.063 290.679 142.87C290.493 142.67 290.246 142.57 289.939 142.57C289.559 142.57 289.229 142.717 288.949 143.01C288.676 143.303 288.539 143.71 288.539 144.23V147H287.759V141.93H288.539Z" fill="#2B2B2B"/>
<path d="M54.08 168.53V169.36C53.7867 169.207 53.5233 169.097 53.29 169.03C53.0567 168.963 52.75 168.93 52.37 168.93C51.6433 168.93 51.0367 169.177 50.55 169.67C50.07 170.163 49.83 170.807 49.83 171.6C49.83 172.427 50.07 173.087 50.55 173.58C51.03 174.073 51.6667 174.32 52.46 174.32C53.1 174.32 53.6467 174.15 54.1 173.81V174.66C53.6867 174.94 53.12 175.08 52.4 175.08C51.3867 175.08 50.5633 174.77 49.93 174.15C49.2967 173.523 48.98 172.673 48.98 171.6C48.98 170.587 49.3 169.763 49.94 169.13C50.5867 168.49 51.3967 168.17 52.37 168.17C53.07 168.17 53.64 168.29 54.08 168.53ZM57.9756 172.66H57.0956C56.669 172.66 56.349 172.743 56.1356 172.91C55.9223 173.077 55.8156 173.287 55.8156 173.54C55.8156 173.793 55.899 174 56.0656 174.16C56.2323 174.313 56.4756 174.39 56.7956 174.39C57.1556 174.39 57.4423 174.29 57.6556 174.09C57.869 173.883 57.9756 173.623 57.9756 173.31V172.66ZM55.3556 170.99V170.2C55.7356 169.967 56.2356 169.85 56.8556 169.85C58.129 169.85 58.7656 170.497 58.7656 171.79V175H57.9856V174.4C57.7256 174.833 57.2523 175.05 56.5656 175.05C56.0923 175.05 55.709 174.91 55.4156 174.63C55.129 174.35 54.9856 173.997 54.9856 173.57C54.9856 173.083 55.169 172.707 55.5356 172.44C55.909 172.167 56.4156 172.03 57.0556 172.03H57.9756V171.77C57.9756 171.37 57.8856 171.07 57.7056 170.87C57.5256 170.663 57.2223 170.56 56.7956 170.56C56.2556 170.56 55.7756 170.703 55.3556 170.99ZM62.9275 170.1V170.85C62.6208 170.663 62.2008 170.57 61.6675 170.57C61.4008 170.57 61.1875 170.633 61.0275 170.76C60.8742 170.88 60.7975 171.037 60.7975 171.23C60.7975 171.35 60.8208 171.457 60.8675 171.55C60.9142 171.637 61.0042 171.723 61.1375 171.81C61.2775 171.897 61.3775 171.957 61.4375 171.99C61.5042 172.017 61.6442 172.077 61.8575 172.17C62.2842 172.343 62.6175 172.54 62.8575 172.76C63.0975 172.98 63.2175 173.277 63.2175 173.65C63.2175 174.083 63.0642 174.427 62.7575 174.68C62.4575 174.933 62.0442 175.06 61.5175 175.06C60.9042 175.06 60.4075 174.957 60.0275 174.75V173.98C60.4742 174.247 60.9542 174.38 61.4675 174.38C61.7742 174.38 62.0075 174.32 62.1675 174.2C62.3275 174.08 62.4075 173.917 62.4075 173.71C62.4075 173.47 62.3175 173.283 62.1375 173.15C61.9642 173.017 61.6708 172.867 61.2575 172.7C60.8775 172.553 60.5708 172.37 60.3375 172.15C60.1108 171.93 59.9975 171.633 59.9975 171.26C59.9975 170.84 60.1542 170.507 60.4675 170.26C60.7875 170.007 61.1842 169.88 61.6575 169.88C62.1842 169.88 62.6075 169.953 62.9275 170.1ZM65.0686 167.93V170.81C65.3686 170.177 65.9019 169.86 66.6686 169.86C67.1553 169.86 67.5453 170.01 67.8386 170.31C68.1386 170.61 68.2886 171.017 68.2886 171.53V175H67.4986V171.72C67.4986 171.353 67.4019 171.07 67.2086 170.87C67.0219 170.67 66.7753 170.57 66.4686 170.57C66.0953 170.57 65.7686 170.713 65.4886 171C65.2086 171.287 65.0686 171.697 65.0686 172.23V175H64.2886V167.93H65.0686Z" fill="#2B2B2B"/>
<path d="M212.08 168.96V171.65H213.1C213.56 171.65 213.91 171.527 214.15 171.28C214.397 171.027 214.52 170.703 214.52 170.31C214.52 169.41 214.017 168.96 213.01 168.96H212.08ZM215.75 175H214.78L213.13 172.34H213.05H212.08V175H211.27V168.26H212.96C213.74 168.26 214.33 168.443 214.73 168.81C215.137 169.177 215.34 169.683 215.34 170.33C215.327 170.797 215.203 171.193 214.97 171.52C214.737 171.847 214.407 172.077 213.98 172.21L215.75 175ZM218.939 174.36C219.365 174.36 219.715 174.193 219.989 173.86C220.262 173.52 220.399 173.04 220.399 172.42C220.399 171.867 220.265 171.42 219.999 171.08C219.732 170.74 219.395 170.57 218.989 170.57C218.582 170.57 218.229 170.72 217.929 171.02C217.635 171.313 217.489 171.797 217.489 172.47C217.489 173.117 217.639 173.593 217.939 173.9C218.239 174.207 218.572 174.36 218.939 174.36ZM217.489 169.93V170.7C217.842 170.133 218.365 169.85 219.059 169.85C219.732 169.85 220.259 170.097 220.639 170.59C221.025 171.077 221.219 171.687 221.219 172.42C221.219 173.2 221.015 173.84 220.609 174.34C220.209 174.833 219.685 175.08 219.039 175.08C218.372 175.08 217.855 174.797 217.489 174.23V176.97H216.709V169.93H217.489ZM232.888 174.31H235.928V175H231.798V174.33C233.865 172.77 234.898 171.47 234.898 170.43C234.898 170.017 234.778 169.7 234.538 169.48C234.298 169.253 233.975 169.14 233.568 169.14C233.041 169.14 232.521 169.337 232.008 169.73V168.94C232.481 168.573 233.025 168.39 233.638 168.39C234.225 168.39 234.718 168.56 235.118 168.9C235.518 169.24 235.718 169.723 235.718 170.35C235.718 171.53 234.775 172.85 232.888 174.31ZM236.789 171.71C236.789 170.683 236.996 169.873 237.409 169.28C237.829 168.68 238.379 168.38 239.059 168.38C239.766 168.38 240.326 168.68 240.739 169.28C241.159 169.873 241.369 170.683 241.369 171.71C241.369 172.73 241.169 173.547 240.769 174.16C240.369 174.773 239.799 175.08 239.059 175.08C238.373 175.08 237.823 174.773 237.409 174.16C236.996 173.547 236.789 172.73 236.789 171.71ZM238.029 169.81C237.743 170.257 237.599 170.89 237.599 171.71C237.599 172.53 237.739 173.173 238.019 173.64C238.299 174.1 238.646 174.33 239.059 174.33C239.519 174.33 239.883 174.103 240.149 173.65C240.423 173.197 240.559 172.55 240.559 171.71C240.559 170.877 240.416 170.24 240.129 169.8C239.849 169.353 239.493 169.13 239.059 169.13C238.659 169.13 238.316 169.357 238.029 169.81ZM242.209 174.91C242.095 174.797 242.039 174.657 242.039 174.49C242.039 174.323 242.095 174.183 242.209 174.07C242.322 173.957 242.462 173.9 242.629 173.9C242.795 173.9 242.935 173.957 243.049 174.07C243.162 174.183 243.219 174.323 243.219 174.49C243.219 174.657 243.162 174.797 243.049 174.91C242.935 175.023 242.795 175.08 242.629 175.08C242.462 175.08 242.322 175.023 242.209 174.91ZM243.889 171.71C243.889 170.683 244.096 169.873 244.509 169.28C244.929 168.68 245.479 168.38 246.159 168.38C246.866 168.38 247.426 168.68 247.839 169.28C248.259 169.873 248.469 170.683 248.469 171.71C248.469 172.73 248.269 173.547 247.869 174.16C247.469 174.773 246.899 175.08 246.159 175.08C245.472 175.08 244.922 174.773 244.509 174.16C244.096 173.547 243.889 172.73 243.889 171.71ZM245.129 169.81C244.842 170.257 244.699 170.89 244.699 171.71C244.699 172.53 244.839 173.173 245.119 173.64C245.399 174.1 245.746 174.33 246.159 174.33C246.619 174.33 246.982 174.103 247.249 173.65C247.522 173.197 247.659 172.55 247.659 171.71C247.659 170.877 247.516 170.24 247.229 169.8C246.949 169.353 246.592 169.13 246.159 169.13C245.759 169.13 245.416 169.357 245.129 169.81ZM249.328 171.71C249.328 170.683 249.535 169.873 249.948 169.28C250.368 168.68 250.918 168.38 251.598 168.38C252.305 168.38 252.865 168.68 253.278 169.28C253.698 169.873 253.908 170.683 253.908 171.71C253.908 172.73 253.708 173.547 253.308 174.16C252.908 174.773 252.338 175.08 251.598 175.08C250.912 175.08 250.362 174.773 249.948 174.16C249.535 173.547 249.328 172.73 249.328 171.71ZM250.568 169.81C250.282 170.257 250.138 170.89 250.138 171.71C250.138 172.53 250.278 173.173 250.558 173.64C250.838 174.1 251.185 174.33 251.598 174.33C252.058 174.33 252.422 174.103 252.688 173.65C252.962 173.197 253.098 172.55 253.098 171.71C253.098 170.877 252.955 170.24 252.668 169.8C252.388 169.353 252.032 169.13 251.598 169.13C251.198 169.13 250.855 169.357 250.568 169.81ZM254.768 171.71C254.768 170.683 254.975 169.873 255.388 169.28C255.808 168.68 256.358 168.38 257.038 168.38C257.745 168.38 258.305 168.68 258.718 169.28C259.138 169.873 259.348 170.683 259.348 171.71C259.348 172.73 259.148 173.547 258.748 174.16C258.348 174.773 257.778 175.08 257.038 175.08C256.351 175.08 255.801 174.773 255.388 174.16C254.975 173.547 254.768 172.73 254.768 171.71ZM256.008 169.81C255.721 170.257 255.578 170.89 255.578 171.71C255.578 172.53 255.718 173.173 255.998 173.64C256.278 174.1 256.625 174.33 257.038 174.33C257.498 174.33 257.861 174.103 258.128 173.65C258.401 173.197 258.538 172.55 258.538 171.71C258.538 170.877 258.395 170.24 258.108 169.8C257.828 169.353 257.471 169.13 257.038 169.13C256.638 169.13 256.295 169.357 256.008 169.81ZM259.697 176.23L260.627 173.99H261.677L260.387 176.23H259.697ZM262.593 172.66V171.97H264.933V172.66H262.593Z" fill="#2B2B2B"/>
<path d="M53.13 188.26V188.97H51.31V195H50.5V188.97H48.68V188.26H53.13ZM56.7842 192.66H55.9042C55.4776 192.66 55.1576 192.743 54.9442 192.91C54.7309 193.077 54.6242 193.287 54.6242 193.54C54.6242 193.793 54.7076 194 54.8742 194.16C55.0409 194.313 55.2842 194.39 55.6042 194.39C55.9642 194.39 56.2509 194.29 56.4642 194.09C56.6776 193.883 56.7842 193.623 56.7842 193.31V192.66ZM54.1642 190.99V190.2C54.5442 189.967 55.0442 189.85 55.6642 189.85C56.9376 189.85 57.5742 190.497 57.5742 191.79V195H56.7942V194.4C56.5342 194.833 56.0609 195.05 55.3742 195.05C54.9009 195.05 54.5176 194.91 54.2242 194.63C53.9376 194.35 53.7942 193.997 53.7942 193.57C53.7942 193.083 53.9776 192.707 54.3442 192.44C54.7176 192.167 55.2242 192.03 55.8642 192.03H56.7842V191.77C56.7842 191.37 56.6942 191.07 56.5142 190.87C56.3342 190.663 56.0309 190.56 55.6042 190.56C55.0642 190.56 54.5842 190.703 54.1642 190.99ZM61.2861 194.36C61.6928 194.36 62.0294 194.19 62.2961 193.85C62.5628 193.51 62.6961 193.067 62.6961 192.52C62.6961 191.893 62.5561 191.413 62.2761 191.08C62.0028 190.74 61.6561 190.57 61.2361 190.57C60.8761 190.57 60.5461 190.72 60.2461 191.02C59.9461 191.32 59.7961 191.79 59.7961 192.43C59.7961 193.103 59.9394 193.593 60.2261 193.9C60.5194 194.207 60.8728 194.36 61.2861 194.36ZM59.7961 187.93V190.69C60.1628 190.13 60.6761 189.85 61.3361 189.85C61.9761 189.85 62.4994 190.097 62.9061 190.59C63.3128 191.077 63.5161 191.717 63.5161 192.51C63.5161 193.223 63.3228 193.83 62.9361 194.33C62.5561 194.83 62.0294 195.08 61.3561 195.08C60.6761 195.08 60.1561 194.803 59.7961 194.25V195H59.0061V187.93H59.7961ZM67.8292 189.93H68.6192V195H67.8292V194.12C67.5626 194.747 67.0326 195.06 66.2392 195.06C65.7392 195.06 65.3426 194.913 65.0492 194.62C64.7626 194.32 64.6192 193.92 64.6192 193.42V189.93H65.4092V193.22C65.4092 193.587 65.5026 193.867 65.6892 194.06C65.8759 194.253 66.1292 194.35 66.4492 194.35C66.8692 194.35 67.2026 194.203 67.4492 193.91C67.7026 193.617 67.8292 193.22 67.8292 192.72V189.93ZM70.8596 189.93V190.81C71.1596 190.177 71.6929 189.86 72.4596 189.86C72.9529 189.86 73.3463 190.01 73.6396 190.31C73.9329 190.61 74.0796 191.01 74.0796 191.51V195H73.2896V191.72C73.2896 191.347 73.1929 191.063 72.9996 190.87C72.8129 190.67 72.5663 190.57 72.2596 190.57C71.8796 190.57 71.5496 190.717 71.2696 191.01C70.9963 191.303 70.8596 191.71 70.8596 192.23V195H70.0796V189.93H70.8596ZM77.38 194.17C77.7467 194.17 78.07 194.03 78.35 193.75C78.6367 193.463 78.78 193.04 78.78 192.48C78.78 191.833 78.6433 191.353 78.37 191.04C78.0967 190.727 77.78 190.57 77.42 190.57C76.9867 190.57 76.6433 190.743 76.39 191.09C76.1367 191.43 76.01 191.877 76.01 192.43C76.01 192.997 76.15 193.43 76.43 193.73C76.71 194.023 77.0267 194.17 77.38 194.17ZM78.78 189.93H79.57V194.59C79.57 195.363 79.3567 195.943 78.93 196.33C78.5033 196.723 77.9533 196.92 77.28 196.92C76.6667 196.92 76.1433 196.817 75.71 196.61V195.82C76.1367 196.067 76.6367 196.19 77.21 196.19C77.6967 196.19 78.08 196.06 78.36 195.8C78.64 195.54 78.78 195.133 78.78 194.58V194.01C78.4467 194.583 77.95 194.87 77.29 194.87C76.71 194.87 76.2133 194.657 75.8 194.23C75.3933 193.803 75.19 193.21 75.19 192.45C75.19 191.697 75.38 191.077 75.76 190.59C76.14 190.103 76.6367 189.86 77.25 189.86C77.9433 189.86 78.4533 190.163 78.78 190.77V189.93ZM83.6983 192.66H82.8183C82.3916 192.66 82.0716 192.743 81.8583 192.91C81.6449 193.077 81.5383 193.287 81.5383 193.54C81.5383 193.793 81.6216 194 81.7883 194.16C81.9549 194.313 82.1983 194.39 82.5183 194.39C82.8783 194.39 83.1649 194.29 83.3783 194.09C83.5916 193.883 83.6983 193.623 83.6983 193.31V192.66ZM81.0783 190.99V190.2C81.4583 189.967 81.9583 189.85 82.5783 189.85C83.8516 189.85 84.4883 190.497 84.4883 191.79V195H83.7083V194.4C83.4483 194.833 82.9749 195.05 82.2883 195.05C81.8149 195.05 81.4316 194.91 81.1383 194.63C80.8516 194.35 80.7083 193.997 80.7083 193.57C80.7083 193.083 80.8916 192.707 81.2583 192.44C81.6316 192.167 82.1383 192.03 82.7783 192.03H83.6983V191.77C83.6983 191.37 83.6083 191.07 83.4283 190.87C83.2483 190.663 82.9449 190.56 82.5183 190.56C81.9783 190.56 81.4983 190.703 81.0783 190.99ZM86.6702 189.93V190.81C86.9702 190.177 87.5035 189.86 88.2702 189.86C88.7635 189.86 89.1568 190.01 89.4502 190.31C89.7435 190.61 89.8902 191.01 89.8902 191.51V195H89.1002V191.72C89.1002 191.347 89.0035 191.063 88.8102 190.87C88.6235 190.67 88.3768 190.57 88.0702 190.57C87.6902 190.57 87.3602 190.717 87.0802 191.01C86.8068 191.303 86.6702 191.71 86.6702 192.23V195H85.8902V189.93H86.6702Z" fill="#2B2B2B"/>
<path d="M94.962 193.97H96.042C96.8486 193.97 97.252 193.663 97.252 193.05C97.252 192.423 96.832 192.11 95.992 192.11H94.962V193.97ZM94.962 189.29V191.1H95.722C96.1753 191.1 96.5153 191.01 96.742 190.83C96.9686 190.65 97.082 190.42 97.082 190.14C97.082 189.88 96.9853 189.673 96.792 189.52C96.6053 189.367 96.3186 189.29 95.932 189.29H94.962ZM93.702 188.26H96.092C96.812 188.26 97.372 188.43 97.772 188.77C98.172 189.11 98.372 189.55 98.372 190.09C98.372 190.457 98.272 190.777 98.072 191.05C97.872 191.317 97.6153 191.493 97.302 191.58C97.662 191.667 97.9586 191.843 98.192 192.11C98.4253 192.37 98.542 192.727 98.542 193.18C98.542 193.713 98.3553 194.15 97.982 194.49C97.6086 194.83 97.092 195 96.432 195H93.702V188.26ZM99.6199 195V188.26H101.05L102.67 191.07C102.937 191.53 103.173 191.96 103.38 192.36C103.593 192.753 103.737 193.033 103.81 193.2L103.92 193.45C103.867 192.897 103.84 192.103 103.84 191.07V188.26H105.11V195H103.67L102.03 192.2C101.77 191.76 101.533 191.34 101.32 190.94C101.113 190.533 100.97 190.24 100.89 190.06L100.77 189.78C100.843 190.413 100.88 191.217 100.88 192.19V195H99.6199ZM106.585 195V188.26H107.845V195H106.585ZM116.057 188.26V189.3H114.347V195H113.077V189.3H111.367V188.26H116.057ZM119.543 192.82H118.923C118.609 192.82 118.369 192.887 118.203 193.02C118.036 193.147 117.953 193.31 117.953 193.51C117.953 193.937 118.199 194.15 118.693 194.15C118.959 194.15 119.166 194.073 119.313 193.92C119.466 193.76 119.543 193.553 119.543 193.3V192.82ZM117.083 191.3V190.19C117.463 189.957 118.009 189.84 118.723 189.84C120.096 189.84 120.783 190.48 120.783 191.76V195H119.593V194.39C119.359 194.823 118.919 195.04 118.273 195.04C117.793 195.04 117.409 194.9 117.123 194.62C116.843 194.34 116.703 193.987 116.703 193.56C116.703 193.08 116.883 192.703 117.243 192.43C117.603 192.157 118.123 192.02 118.803 192.02H119.543V191.71C119.543 191.43 119.469 191.217 119.323 191.07C119.176 190.923 118.926 190.85 118.573 190.85C118.033 190.85 117.536 191 117.083 191.3ZM124.481 194.04C124.841 194.04 125.134 193.903 125.361 193.63C125.588 193.35 125.701 192.96 125.701 192.46C125.701 191.96 125.588 191.573 125.361 191.3C125.134 191.02 124.848 190.88 124.501 190.88C124.154 190.88 123.854 191.01 123.601 191.27C123.348 191.53 123.221 191.917 123.221 192.43C123.221 192.943 123.344 193.34 123.591 193.62C123.838 193.9 124.134 194.04 124.481 194.04ZM123.221 189.93V190.71C123.581 190.143 124.098 189.86 124.771 189.86C125.431 189.86 125.954 190.097 126.341 190.57C126.734 191.043 126.931 191.667 126.931 192.44C126.931 193.2 126.734 193.83 126.341 194.33C125.954 194.823 125.428 195.07 124.761 195.07C124.081 195.07 123.568 194.793 123.221 194.24V196.91H122.021V189.93H123.221ZM128.009 195V187.93H129.209V195H128.009ZM133.696 189.93H134.906V195H133.696V194.17C133.43 194.757 132.91 195.05 132.136 195.05C131.623 195.05 131.223 194.903 130.936 194.61C130.65 194.317 130.506 193.9 130.506 193.36V189.93H131.706V193.08C131.706 193.4 131.783 193.643 131.936 193.81C132.096 193.977 132.313 194.06 132.586 194.06C132.933 194.06 133.203 193.943 133.396 193.71C133.596 193.477 133.696 193.123 133.696 192.65V189.93ZM139.241 190.09V191.15C138.907 190.95 138.491 190.85 137.991 190.85C137.784 190.85 137.621 190.897 137.501 190.99C137.387 191.077 137.331 191.19 137.331 191.33C137.331 191.383 137.337 191.433 137.351 191.48C137.371 191.527 137.401 191.573 137.441 191.62C137.487 191.66 137.531 191.697 137.571 191.73C137.611 191.763 137.667 191.8 137.741 191.84C137.814 191.873 137.877 191.903 137.931 191.93C137.984 191.957 138.057 191.99 138.151 192.03C138.244 192.07 138.317 192.103 138.371 192.13C138.724 192.303 139.004 192.497 139.211 192.71C139.417 192.923 139.521 193.2 139.521 193.54C139.521 194.013 139.351 194.383 139.011 194.65C138.671 194.917 138.217 195.05 137.651 195.05C137.024 195.05 136.517 194.947 136.131 194.74V193.64C136.577 193.94 137.061 194.09 137.581 194.09C137.801 194.09 137.971 194.05 138.091 193.97C138.217 193.883 138.281 193.767 138.281 193.62C138.281 193.533 138.261 193.457 138.221 193.39C138.181 193.317 138.104 193.247 137.991 193.18C137.877 193.113 137.787 193.067 137.721 193.04C137.661 193.007 137.537 192.95 137.351 192.87C137.331 192.863 137.314 192.857 137.301 192.85C137.294 192.843 137.281 192.837 137.261 192.83C137.241 192.823 137.224 192.817 137.211 192.81C136.471 192.477 136.101 191.997 136.101 191.37C136.101 190.903 136.277 190.537 136.631 190.27C136.984 190.003 137.427 189.87 137.961 189.87C138.474 189.87 138.901 189.943 139.241 190.09ZM142.889 195L143.429 188.26H144.869L145.789 190.71C145.949 191.123 146.099 191.537 146.239 191.95C146.379 192.357 146.479 192.66 146.539 192.86L146.629 193.17C146.835 192.477 147.122 191.657 147.489 190.71L148.429 188.26H149.869L150.529 195H149.269L149.029 192.37L148.849 190.01C148.609 190.697 148.322 191.483 147.989 192.37L147.049 194.9H146.189L145.269 192.37L144.479 190.04C144.479 190.367 144.435 191.143 144.349 192.37L144.149 195H142.889ZM154.897 189.93H156.107V195H154.897V194.17C154.631 194.757 154.111 195.05 153.337 195.05C152.824 195.05 152.424 194.903 152.137 194.61C151.851 194.317 151.707 193.9 151.707 193.36V189.93H152.907V193.08C152.907 193.4 152.984 193.643 153.137 193.81C153.297 193.977 153.514 194.06 153.787 194.06C154.134 194.06 154.404 193.943 154.597 193.71C154.797 193.477 154.897 193.123 154.897 192.65V189.93ZM159.592 194.04C159.952 194.04 160.252 193.903 160.492 193.63C160.732 193.35 160.852 192.947 160.852 192.42C160.852 191.907 160.725 191.523 160.472 191.27C160.218 191.01 159.928 190.88 159.602 190.88C159.255 190.88 158.962 191.023 158.722 191.31C158.488 191.59 158.372 191.983 158.372 192.49C158.372 192.95 158.488 193.323 158.722 193.61C158.955 193.897 159.245 194.04 159.592 194.04ZM160.852 187.93H162.052V195H160.852V194.21C160.505 194.783 159.992 195.07 159.312 195.07C158.645 195.07 158.115 194.817 157.722 194.31C157.335 193.803 157.142 193.19 157.142 192.47C157.142 191.67 157.345 191.037 157.752 190.57C158.165 190.097 158.692 189.86 159.332 189.86C159.992 189.86 160.498 190.143 160.852 190.71V187.93ZM165.939 192.82H165.319C165.006 192.82 164.766 192.887 164.599 193.02C164.433 193.147 164.349 193.31 164.349 193.51C164.349 193.937 164.596 194.15 165.089 194.15C165.356 194.15 165.563 194.073 165.709 193.92C165.863 193.76 165.939 193.553 165.939 193.3V192.82ZM163.479 191.3V190.19C163.859 189.957 164.406 189.84 165.119 189.84C166.493 189.84 167.179 190.48 167.179 191.76V195H165.989V194.39C165.756 194.823 165.316 195.04 164.669 195.04C164.189 195.04 163.806 194.9 163.519 194.62C163.239 194.34 163.099 193.987 163.099 193.56C163.099 193.08 163.279 192.703 163.639 192.43C163.999 192.157 164.519 192.02 165.199 192.02H165.939V191.71C165.939 191.43 165.866 191.217 165.719 191.07C165.573 190.923 165.323 190.85 164.969 190.85C164.429 190.85 163.933 191 163.479 191.3Z" fill="#DA011C"/>
<path d="M211.523 188.96V191.65H212.543C213.003 191.65 213.353 191.527 213.593 191.28C213.84 191.027 213.963 190.703 213.963 190.31C213.963 189.41 213.46 188.96 212.453 188.96H211.523ZM215.193 195H214.223L212.573 192.34H212.493H211.523V195H210.713V188.26H212.403C213.183 188.26 213.773 188.443 214.173 188.81C214.58 189.177 214.783 189.683 214.783 190.33C214.77 190.797 214.647 191.193 214.413 191.52C214.18 191.847 213.85 192.077 213.423 192.21L215.193 195ZM218.382 194.36C218.809 194.36 219.159 194.193 219.432 193.86C219.705 193.52 219.842 193.04 219.842 192.42C219.842 191.867 219.709 191.42 219.442 191.08C219.175 190.74 218.839 190.57 218.432 190.57C218.025 190.57 217.672 190.72 217.372 191.02C217.079 191.313 216.932 191.797 216.932 192.47C216.932 193.117 217.082 193.593 217.382 193.9C217.682 194.207 218.015 194.36 218.382 194.36ZM216.932 189.93V190.7C217.285 190.133 217.809 189.85 218.502 189.85C219.175 189.85 219.702 190.097 220.082 190.59C220.469 191.077 220.662 191.687 220.662 192.42C220.662 193.2 220.459 193.84 220.052 194.34C219.652 194.833 219.129 195.08 218.482 195.08C217.815 195.08 217.299 194.797 216.932 194.23V196.97H216.152V189.93H216.932ZM227.449 194.31H230.489V195H226.359V194.33C228.425 192.77 229.459 191.47 229.459 190.43C229.459 190.017 229.339 189.7 229.099 189.48C228.859 189.253 228.535 189.14 228.129 189.14C227.602 189.14 227.082 189.337 226.569 189.73V188.94C227.042 188.573 227.585 188.39 228.199 188.39C228.785 188.39 229.279 188.56 229.679 188.9C230.079 189.24 230.279 189.723 230.279 190.35C230.279 191.53 229.335 192.85 227.449 194.31ZM231.35 191.71C231.35 190.683 231.557 189.873 231.97 189.28C232.39 188.68 232.94 188.38 233.62 188.38C234.327 188.38 234.887 188.68 235.3 189.28C235.72 189.873 235.93 190.683 235.93 191.71C235.93 192.73 235.73 193.547 235.33 194.16C234.93 194.773 234.36 195.08 233.62 195.08C232.933 195.08 232.383 194.773 231.97 194.16C231.557 193.547 231.35 192.73 231.35 191.71ZM232.59 189.81C232.303 190.257 232.16 190.89 232.16 191.71C232.16 192.53 232.3 193.173 232.58 193.64C232.86 194.1 233.207 194.33 233.62 194.33C234.08 194.33 234.443 194.103 234.71 193.65C234.983 193.197 235.12 192.55 235.12 191.71C235.12 190.877 234.977 190.24 234.69 189.8C234.41 189.353 234.053 189.13 233.62 189.13C233.22 189.13 232.877 189.357 232.59 189.81ZM236.789 191.71C236.789 190.683 236.996 189.873 237.409 189.28C237.829 188.68 238.379 188.38 239.059 188.38C239.766 188.38 240.326 188.68 240.739 189.28C241.159 189.873 241.369 190.683 241.369 191.71C241.369 192.73 241.169 193.547 240.769 194.16C240.369 194.773 239.799 195.08 239.059 195.08C238.373 195.08 237.823 194.773 237.409 194.16C236.996 193.547 236.789 192.73 236.789 191.71ZM238.029 189.81C237.743 190.257 237.599 190.89 237.599 191.71C237.599 192.53 237.739 193.173 238.019 193.64C238.299 194.1 238.646 194.33 239.059 194.33C239.519 194.33 239.883 194.103 240.149 193.65C240.423 193.197 240.559 192.55 240.559 191.71C240.559 190.877 240.416 190.24 240.129 189.8C239.849 189.353 239.493 189.13 239.059 189.13C238.659 189.13 238.316 189.357 238.029 189.81ZM242.209 194.91C242.095 194.797 242.039 194.657 242.039 194.49C242.039 194.323 242.095 194.183 242.209 194.07C242.322 193.957 242.462 193.9 242.629 193.9C242.795 193.9 242.935 193.957 243.049 194.07C243.162 194.183 243.219 194.323 243.219 194.49C243.219 194.657 243.162 194.797 243.049 194.91C242.935 195.023 242.795 195.08 242.629 195.08C242.462 195.08 242.322 195.023 242.209 194.91ZM243.889 191.71C243.889 190.683 244.096 189.873 244.509 189.28C244.929 188.68 245.479 188.38 246.159 188.38C246.866 188.38 247.426 188.68 247.839 189.28C248.259 189.873 248.469 190.683 248.469 191.71C248.469 192.73 248.269 193.547 247.869 194.16C247.469 194.773 246.899 195.08 246.159 195.08C245.472 195.08 244.922 194.773 244.509 194.16C244.096 193.547 243.889 192.73 243.889 191.71ZM245.129 189.81C244.842 190.257 244.699 190.89 244.699 191.71C244.699 192.53 244.839 193.173 245.119 193.64C245.399 194.1 245.746 194.33 246.159 194.33C246.619 194.33 246.982 194.103 247.249 193.65C247.522 193.197 247.659 192.55 247.659 191.71C247.659 190.877 247.516 190.24 247.229 189.8C246.949 189.353 246.592 189.13 246.159 189.13C245.759 189.13 245.416 189.357 245.129 189.81ZM249.328 191.71C249.328 190.683 249.535 189.873 249.948 189.28C250.368 188.68 250.918 188.38 251.598 188.38C252.305 188.38 252.865 188.68 253.278 189.28C253.698 189.873 253.908 190.683 253.908 191.71C253.908 192.73 253.708 193.547 253.308 194.16C252.908 194.773 252.338 195.08 251.598 195.08C250.912 195.08 250.362 194.773 249.948 194.16C249.535 193.547 249.328 192.73 249.328 191.71ZM250.568 189.81C250.282 190.257 250.138 190.89 250.138 191.71C250.138 192.53 250.278 193.173 250.558 193.64C250.838 194.1 251.185 194.33 251.598 194.33C252.058 194.33 252.422 194.103 252.688 193.65C252.962 193.197 253.098 192.55 253.098 191.71C253.098 190.877 252.955 190.24 252.668 189.8C252.388 189.353 252.032 189.13 251.598 189.13C251.198 189.13 250.855 189.357 250.568 189.81ZM254.768 191.71C254.768 190.683 254.975 189.873 255.388 189.28C255.808 188.68 256.358 188.38 257.038 188.38C257.745 188.38 258.305 188.68 258.718 189.28C259.138 189.873 259.348 190.683 259.348 191.71C259.348 192.73 259.148 193.547 258.748 194.16C258.348 194.773 257.778 195.08 257.038 195.08C256.351 195.08 255.801 194.773 255.388 194.16C254.975 193.547 254.768 192.73 254.768 191.71ZM256.008 189.81C255.721 190.257 255.578 190.89 255.578 191.71C255.578 192.53 255.718 193.173 255.998 193.64C256.278 194.1 256.625 194.33 257.038 194.33C257.498 194.33 257.861 194.103 258.128 193.65C258.401 193.197 258.538 192.55 258.538 191.71C258.538 190.877 258.395 190.24 258.108 189.8C257.828 189.353 257.471 189.13 257.038 189.13C256.638 189.13 256.295 189.357 256.008 189.81ZM259.697 196.23L260.627 193.99H261.677L260.387 196.23H259.697ZM262.593 192.66V191.97H264.933V192.66H262.593Z" fill="#2B2B2B"/>
<rect x="67.5" y="212.5" width="83" height="25" rx="7.5" fill="white"/>
<rect x="67.5" y="212.5" width="83" height="25" rx="7.5" stroke="#2B2B2B"/>
<path d="M103.351 221.608L103.351 222.44L101.983 222.44L101.983 227L100.967 227L100.967 222.44L99.5986 222.44L99.5986 221.608L103.351 221.608ZM104.107 227L104.107 222.944L105.067 222.944L105.067 227L104.107 227ZM104.011 221.728C104.011 221.568 104.067 221.432 104.179 221.32C104.291 221.208 104.427 221.152 104.587 221.152C104.747 221.152 104.883 221.208 104.995 221.32C105.107 221.432 105.163 221.568 105.163 221.728C105.163 221.893 105.107 222.032 104.995 222.144C104.883 222.256 104.747 222.312 104.587 222.312C104.427 222.312 104.291 222.256 104.179 222.144C104.067 222.032 104.011 221.893 104.011 221.728ZM107.889 226.232C108.177 226.232 108.417 226.123 108.609 225.904C108.801 225.68 108.897 225.357 108.897 224.936C108.897 224.525 108.796 224.219 108.593 224.016C108.39 223.808 108.158 223.704 107.897 223.704C107.62 223.704 107.385 223.819 107.193 224.048C107.006 224.272 106.913 224.587 106.913 224.992C106.913 225.36 107.006 225.659 107.193 225.888C107.38 226.117 107.612 226.232 107.889 226.232ZM108.897 221.344L109.857 221.344L109.857 227L108.897 227L108.897 226.368C108.62 226.827 108.209 227.056 107.665 227.056C107.132 227.056 106.708 226.853 106.393 226.448C106.084 226.043 105.929 225.552 105.929 224.976C105.929 224.336 106.092 223.829 106.417 223.456C106.748 223.077 107.169 222.888 107.681 222.888C108.209 222.888 108.614 223.115 108.897 223.568L108.897 221.344ZM112.967 225.256L112.471 225.256C112.22 225.256 112.028 225.309 111.895 225.416C111.762 225.517 111.695 225.648 111.695 225.808C111.695 226.149 111.892 226.32 112.287 226.32C112.5 226.32 112.666 226.259 112.783 226.136C112.906 226.008 112.967 225.843 112.967 225.64L112.967 225.256ZM110.999 224.04L110.999 223.152C111.303 222.965 111.74 222.872 112.311 222.872C113.41 222.872 113.959 223.384 113.959 224.408L113.959 227L113.007 227L113.007 226.512C112.82 226.859 112.468 227.032 111.951 227.032C111.567 227.032 111.26 226.92 111.031 226.696C110.807 226.472 110.695 226.189 110.695 225.848C110.695 225.464 110.839 225.163 111.127 224.944C111.415 224.725 111.831 224.616 112.375 224.616L112.967 224.616L112.967 224.368C112.967 224.144 112.908 223.973 112.791 223.856C112.674 223.739 112.474 223.68 112.191 223.68C111.759 223.68 111.362 223.8 110.999 224.04ZM118.494 227L117.366 227L115.91 224.904L115.91 227L114.95 227L114.95 221.44L115.91 221.44L115.91 224.848L117.342 222.944L118.462 222.944L116.974 224.88L118.494 227Z" fill="#2B2B2B"/>
<g filter="url(#filter1_d_1124_4113)">
<rect x="163" y="212" width="84" height="26" rx="8" fill="#FF1934" shape-rendering="crispEdges"/>
<path d="M205.325 221.608L203.469 225L203.469 227L202.461 227L202.461 225.032L200.621 221.608L201.797 221.608L202.157 222.392C202.365 222.845 202.535 223.227 202.669 223.536C202.802 223.84 202.882 224.029 202.909 224.104L202.957 224.224C203.005 224.027 203.279 223.416 203.781 222.392L204.149 221.608L205.325 221.608ZM208.061 225.256L207.565 225.256C207.314 225.256 207.122 225.309 206.989 225.416C206.855 225.517 206.789 225.648 206.789 225.808C206.789 226.149 206.986 226.32 207.381 226.32C207.594 226.32 207.759 226.259 207.877 226.136C207.999 226.008 208.061 225.843 208.061 225.64L208.061 225.256ZM206.093 224.04L206.093 223.152C206.397 222.965 206.834 222.872 207.405 222.872C208.503 222.872 209.053 223.384 209.053 224.408L209.053 227L208.101 227L208.101 226.512C207.914 226.859 207.562 227.032 207.045 227.032C206.661 227.032 206.354 226.92 206.125 226.696C205.901 226.472 205.789 226.189 205.789 225.848C205.789 225.464 205.933 225.163 206.221 224.944C206.509 224.725 206.925 224.616 207.469 224.616L208.061 224.616L208.061 224.368C208.061 224.144 208.002 223.973 207.885 223.856C207.767 223.739 207.567 223.68 207.285 223.68C206.853 223.68 206.455 223.8 206.093 224.04Z" fill="white"/>
</g>
<defs>
<filter id="filter0_d_1124_4113" x="-4" y="-2" width="322" height="56" filterUnits="userSpaceOnUse" color-interpolation-filters="sRGB">
<feFlood flood-opacity="0" result="BackgroundImageFix"/>
<feColorMatrix in="SourceAlpha" type="matrix" values="0 0 0 0 0 0 0 0 0 0 0 0 0 0 0 0 0 0 127 0" result="hardAlpha"/>
<feOffset dy="2"/>
<feGaussianBlur stdDeviation="2"/>
<feComposite in2="hardAlpha" operator="out"/>
<feColorMatrix type="matrix" values="0 0 0 0 0.168627 0 0 0 0 0.168627 0 0 0 0 0.168627 0 0 0 0.24 0"/>
<feBlend mode="normal" in2="BackgroundImageFix" result="effect1_dropShadow_1124_4113"/>
<feBlend mode="normal" in="SourceGraphic" in2="effect1_dropShadow_1124_4113" result="shape"/>
</filter>
<filter id="filter1_d_1124_4113" x="157" y="206" width="100" height="42" filterUnits="userSpaceOnUse" color-interpolation-filters="sRGB">
<feFlood flood-opacity="0" result="BackgroundImageFix"/>
<feColorMatrix in="SourceAlpha" type="matrix" values="0 0 0 0 0 0 0 0 0 0 0 0 0 0 0 0 0 0 127 0" result="hardAlpha"/>
<feOffset dx="2" dy="2"/>
<feGaussianBlur stdDeviation="4"/>
<feComposite in2="hardAlpha" operator="out"/>
<feColorMatrix type="matrix" values="0 0 0 0 0 0 0 0 0 0 0 0 0 0 0 0 0 0 0.12 0"/>
<feBlend mode="normal" in2="BackgroundImageFix" result="effect1_dropShadow_1124_4113"/>
<feBlend mode="normal" in="SourceGraphic" in2="effect1_dropShadow_1124_4113" result="shape"/>
</filter>
<linearGradient id="paint0_linear_1124_4113" x1="140.814" y1="123.509" x2="169.024" y2="95.2988" gradientUnits="userSpaceOnUse">
<stop stop-color="#D9AA16"/>
<stop offset="1" stop-color="white"/>
</linearGradient>
<linearGradient id="paint1_linear_1124_4113" x1="139.019" y1="129.51" x2="181.669" y2="86.86" gradientUnits="userSpaceOnUse">
<stop stop-color="#D9AA16"/>
<stop offset="1" stop-color="white"/>
</linearGradient>
<linearGradient id="paint2_linear_1124_4113" x1="139.199" y1="128.501" x2="162.776" y2="104.924" gradientUnits="userSpaceOnUse">
<stop stop-color="#D9AA16"/>
<stop offset="1" stop-color="white"/>
</linearGradient>
<clipPath id="clip0_1124_4113">
<rect width="24" height="24" fill="white" transform="translate(16 16)"/>
</clipPath>
<clipPath id="clip1_1124_4113">
<rect width="64" height="64" fill="white" transform="translate(125 72)"/>
</clipPath>
</defs>
</svg>
