<svg width="189" height="77" viewBox="0 0 189 77" fill="none" xmlns="http://www.w3.org/2000/svg">
<rect width="189" height="77" fill="#D3D3D3"/>
<path d="M3.984 51V18.648H7.872V51H3.984ZM18.0994 26.664V30.888C19.5394 27.848 22.0994 26.328 25.7794 26.328C28.1474 26.328 30.0354 27.048 31.4434 28.488C32.8514 29.928 33.5554 31.848 33.5554 34.248V51H29.7634V35.256C29.7634 33.464 29.2994 32.104 28.3714 31.176C27.4754 30.216 26.2914 29.736 24.8194 29.736C22.9954 29.736 21.4114 30.44 20.0674 31.848C18.7554 33.256 18.0994 35.208 18.0994 37.704V51H14.3554V26.664H18.0994ZM52.5173 27.48V31.08C51.0453 30.184 49.0293 29.736 46.4693 29.736C45.1893 29.736 44.1653 30.04 43.3973 30.648C42.6613 31.224 42.2933 31.976 42.2933 32.904C42.2933 33.48 42.4053 33.992 42.6293 34.44C42.8533 34.856 43.2853 35.272 43.9253 35.688C44.5973 36.104 45.0773 36.392 45.3653 36.552C45.6853 36.68 46.3573 36.968 47.3813 37.416C49.4293 38.248 51.0293 39.192 52.1813 40.248C53.3333 41.304 53.9093 42.728 53.9093 44.52C53.9093 46.6 53.1733 48.248 51.7013 49.464C50.2613 50.68 48.2773 51.288 45.7493 51.288C42.8053 51.288 40.4213 50.792 38.5973 49.8V46.104C40.7413 47.384 43.0453 48.024 45.5093 48.024C46.9813 48.024 48.1013 47.736 48.8693 47.16C49.6373 46.584 50.0213 45.8 50.0213 44.808C50.0213 43.656 49.5893 42.76 48.7253 42.12C47.8933 41.48 46.4853 40.76 44.5013 39.96C42.6773 39.256 41.2053 38.376 40.0853 37.32C38.9973 36.264 38.4533 34.84 38.4533 33.048C38.4533 31.032 39.2053 29.432 40.7093 28.248C42.2453 27.032 44.1493 26.424 46.4213 26.424C48.9493 26.424 50.9813 26.776 52.5173 27.48ZM73.1625 26.664H76.9545V51H73.1625V46.776C71.8825 49.784 69.3385 51.288 65.5305 51.288C63.1305 51.288 61.2265 50.584 59.8185 49.176C58.4425 47.736 57.7545 45.816 57.7545 43.416V26.664H61.5465V42.456C61.5465 44.216 61.9945 45.56 62.8905 46.488C63.7865 47.416 65.0025 47.88 66.5385 47.88C68.5545 47.88 70.1545 47.176 71.3385 45.768C72.5545 44.36 73.1625 42.456 73.1625 40.056V26.664ZM86.7004 26.664V30.936C87.9804 27.928 90.1884 26.424 93.3244 26.424C93.9004 26.424 94.3484 26.456 94.6684 26.52V30.264C93.9964 30.04 93.3084 29.928 92.6044 29.928C90.9084 29.928 89.5004 30.712 88.3804 32.28C87.2604 33.848 86.7004 35.656 86.7004 37.704V51H82.9084L82.9564 26.664H86.7004ZM110.709 39.768H106.485C104.437 39.768 102.901 40.168 101.877 40.968C100.853 41.768 100.341 42.776 100.341 43.992C100.341 45.208 100.741 46.2 101.541 46.968C102.341 47.704 103.509 48.072 105.045 48.072C106.773 48.072 108.149 47.592 109.173 46.632C110.197 45.64 110.709 44.392 110.709 42.888V39.768ZM98.1326 31.752V27.96C99.9566 26.84 102.357 26.28 105.333 26.28C111.445 26.28 114.501 29.384 114.501 35.592V51H110.757V48.12C109.509 50.2 107.237 51.24 103.941 51.24C101.669 51.24 99.8286 50.568 98.4206 49.224C97.0446 47.88 96.3566 46.184 96.3566 44.136C96.3566 41.8 97.2366 39.992 98.9966 38.712C100.789 37.4 103.221 36.744 106.293 36.744H110.709V35.496C110.709 33.576 110.277 32.136 109.413 31.176C108.549 30.184 107.093 29.688 105.045 29.688C102.453 29.688 100.149 30.376 98.1326 31.752ZM123.966 26.664V30.888C125.406 27.848 127.966 26.328 131.646 26.328C134.014 26.328 135.902 27.048 137.31 28.488C138.718 29.928 139.422 31.848 139.422 34.248V51H135.63V35.256C135.63 33.464 135.166 32.104 134.238 31.176C133.342 30.216 132.158 29.736 130.686 29.736C128.862 29.736 127.278 30.44 125.934 31.848C124.622 33.256 123.966 35.208 123.966 37.704V51H120.222V26.664H123.966ZM147.632 38.952C147.664 41.576 148.464 43.768 150.032 45.528C151.6 47.256 153.824 48.12 156.704 48.12C158.56 48.12 160.288 47.592 161.888 46.536V50.136C160.352 51.064 158.464 51.528 156.224 51.528C152.384 51.528 149.328 50.312 147.056 47.88C144.816 45.416 143.696 42.424 143.696 38.904C143.696 35.448 144.816 32.472 147.056 29.976C149.328 27.48 152.416 26.232 156.32 26.232C158.4 26.232 160.256 26.68 161.888 27.576V31.176C160.416 30.184 158.688 29.688 156.704 29.688C153.952 29.688 151.744 30.584 150.08 32.376C148.448 34.136 147.632 36.328 147.632 38.952ZM182.225 37.272V36.312C182.225 34.296 181.681 32.696 180.593 31.512C179.505 30.296 178.001 29.688 176.081 29.688C174.257 29.688 172.705 30.344 171.425 31.656C170.145 32.968 169.393 34.84 169.169 37.272H182.225ZM184.481 46.2V49.752C182.593 50.744 180.289 51.24 177.569 51.24C173.889 51.24 170.913 50.12 168.641 47.88C166.401 45.608 165.281 42.616 165.281 38.904C165.281 35.032 166.289 31.976 168.305 29.736C170.321 27.496 172.913 26.376 176.081 26.376C179.121 26.376 181.537 27.352 183.329 29.304C185.121 31.256 186.017 34.024 186.017 37.608C186.017 38.632 185.937 39.576 185.777 40.44H169.169C169.457 42.84 170.369 44.68 171.905 45.96C173.441 47.24 175.457 47.88 177.953 47.88C180.673 47.88 182.849 47.32 184.481 46.2Z" fill="black"/>
</svg>
