<svg width="302" height="270" viewBox="0 0 302 270" fill="none" xmlns="http://www.w3.org/2000/svg">
<rect width="302" height="270" fill="#D3D3D3"/>
<rect width="302" height="270" rx="16" fill="white"/>
<g filter="url(#filter0_d_1124_4113)">
<path d="M0 16C0 7.16344 7.16344 0 16 0H286C294.837 0 302 7.16344 302 16V48H0V16Z" fill="#FF1934" shape-rendering="crispEdges"/>
<g clip-path="url(#clip0_1124_4113)">
<path d="M35.86 30.4599C35.45 30.2899 34.98 30.4799 34.81 30.8799C34.62 31.3399 34.37 31.7499 34.1 32.1499L33.21 30.0599C32.6 28.6199 31.14 27.7499 29.57 27.8999L24.14 28.4399C24.05 27.8499 23.96 27.2799 23.85 26.7399L29.46 26.1499C29.9 26.0999 30.22 25.7099 30.17 25.2699C30.12 24.8299 29.72 24.5199 29.29 24.5599L23.5 25.1699C22.66 21.7699 21.59 19.5899 21.51 19.4399C21.31 19.0499 20.83 18.8899 20.44 19.0799C20.05 19.2799 19.89 19.7599 20.08 20.1499C20.11 20.2099 22.93 25.9099 22.88 33.3199C22.17 32.6399 21.58 31.8199 21.18 30.8799C21.01 30.4699 20.54 30.2899 20.13 30.4599C19.72 30.6299 19.53 31.0999 19.71 31.5099C20.45 33.2599 21.71 34.6699 23.25 35.6299C23.26 35.6299 23.28 35.6499 23.29 35.6499C24.68 36.4999 26.29 36.9999 27.99 36.9999C30.44 36.9999 32.72 35.9899 34.38 34.3099C34.43 34.2699 34.47 34.2299 34.51 34.1799C35.24 33.4099 35.85 32.5299 36.28 31.5199C36.45 31.1099 36.26 30.6399 35.86 30.4699V30.4599ZM28 35.3999C26.73 35.3999 25.52 35.0599 24.45 34.4699C24.52 32.9099 24.47 31.4299 24.33 30.0299L29.72 29.4899C30.59 29.3999 31.39 29.8799 31.73 30.6799L32.93 33.4999C31.6 34.6899 29.85 35.3899 27.99 35.3899L28 35.3999Z" fill="white"/>
</g>
<path d="M51.122 30.236H52.102C52.97 30.236 53.6373 29.9653 54.104 29.424C54.58 28.8827 54.818 28.1173 54.818 27.128C54.818 26.288 54.58 25.616 54.104 25.112C53.628 24.5987 52.956 24.342 52.088 24.342H51.122V30.236ZM48.91 22.564H52.158C53.5767 22.564 54.7387 23.0027 55.644 23.88C56.5493 24.748 57.002 25.8307 57.002 27.128C57.002 28.64 56.554 29.83 55.658 30.698C54.7713 31.566 53.5953 32 52.13 32H48.91V22.564ZM61.9106 29.088H61.2526C60.9073 29.088 60.6413 29.1627 60.4546 29.312C60.268 29.4613 60.1746 29.6527 60.1746 29.886C60.1746 30.362 60.45 30.6 61.0006 30.6C61.29 30.6 61.514 30.5113 61.6726 30.334C61.8313 30.1567 61.9106 29.914 61.9106 29.606V29.088ZM58.5926 27.086V25.252C59.1526 24.9347 59.96 24.776 61.0146 24.776C62.0226 24.776 62.774 24.9953 63.2686 25.434C63.7633 25.8633 64.0106 26.5353 64.0106 27.45V32H62.0086V31.132C61.71 31.7387 61.122 32.042 60.2446 32.042C59.554 32.042 59.0126 31.846 58.6206 31.454C58.238 31.062 58.0466 30.572 58.0466 29.984C58.0466 29.3027 58.294 28.7753 58.7886 28.402C59.2926 28.0193 60.0346 27.828 61.0146 27.828H61.9106V27.338C61.9106 26.7407 61.514 26.442 60.7206 26.442C59.9553 26.442 59.246 26.6567 58.5926 27.086ZM67.6594 24.902V26.106C67.8367 25.714 68.1074 25.406 68.4714 25.182C68.8447 24.9487 69.2881 24.832 69.8014 24.832C70.5294 24.832 71.0987 25.0513 71.5094 25.49C71.9201 25.9193 72.1254 26.554 72.1254 27.394V32H70.0814V27.772C70.0814 27.352 69.9834 27.0347 69.7874 26.82C69.5914 26.596 69.3161 26.484 68.9614 26.484C68.5881 26.484 68.2754 26.6333 68.0234 26.932C67.7807 27.2213 67.6594 27.66 67.6594 28.248V32H65.6154V24.902H67.6594ZM77.2505 29.088H76.5925C76.2472 29.088 75.9812 29.1627 75.7945 29.312C75.6078 29.4613 75.5145 29.6527 75.5145 29.886C75.5145 30.362 75.7898 30.6 76.3405 30.6C76.6298 30.6 76.8538 30.5113 77.0125 30.334C77.1712 30.1567 77.2505 29.914 77.2505 29.606V29.088ZM73.9325 27.086V25.252C74.4925 24.9347 75.2998 24.776 76.3545 24.776C77.3625 24.776 78.1138 24.9953 78.6085 25.434C79.1032 25.8633 79.3505 26.5353 79.3505 27.45V32H77.3485V31.132C77.0498 31.7387 76.4618 32.042 75.5845 32.042C74.8938 32.042 74.3525 31.846 73.9605 31.454C73.5778 31.062 73.3865 30.572 73.3865 29.984C73.3865 29.3027 73.6338 28.7753 74.1285 28.402C74.6325 28.0193 75.3745 27.828 76.3545 27.828H77.2505V27.338C77.2505 26.7407 76.8538 26.442 76.0605 26.442C75.2952 26.442 74.5858 26.6567 73.9325 27.086ZM86.6812 27.24H87.3952C88.5339 27.24 89.1032 26.722 89.1032 25.686C89.1032 24.7527 88.5759 24.286 87.5212 24.286H86.6812V27.24ZM84.5252 22.564H87.7732C88.8186 22.564 89.6632 22.858 90.3072 23.446C90.9606 24.034 91.2872 24.7807 91.2872 25.686C91.2872 26.722 90.9466 27.5247 90.2652 28.094C89.5932 28.6633 88.7626 28.948 87.7732 28.948H86.6812V32H84.5252V22.564ZM96.4459 27.8V27.632C96.3806 26.8013 96.0166 26.386 95.3539 26.386C95.0272 26.386 94.7379 26.5073 94.4859 26.75C94.2339 26.9833 94.0659 27.3333 93.9819 27.8H96.4459ZM97.9159 29.886V31.594C97.4306 31.9113 96.6886 32.07 95.6899 32.07C94.5232 32.07 93.6132 31.734 92.9599 31.062C92.3159 30.3807 91.9939 29.508 91.9939 28.444C91.9939 27.3147 92.3066 26.4327 92.9319 25.798C93.5666 25.154 94.3459 24.832 95.2699 24.832C96.2219 24.832 96.9732 25.112 97.5239 25.672C98.0746 26.2227 98.3499 27.0487 98.3499 28.15C98.3499 28.3647 98.3126 28.7333 98.2379 29.256H94.0659C94.2059 29.648 94.4486 29.9513 94.7939 30.166C95.1392 30.3807 95.5546 30.488 96.0399 30.488C96.7586 30.488 97.3839 30.2873 97.9159 29.886ZM101.853 24.902V26.106C102.03 25.714 102.301 25.406 102.665 25.182C103.038 24.9487 103.481 24.832 103.995 24.832C104.723 24.832 105.292 25.0513 105.703 25.49C106.113 25.9193 106.319 26.554 106.319 27.394V32H104.275V27.772C104.275 27.352 104.177 27.0347 103.981 26.82C103.785 26.596 103.509 26.484 103.155 26.484C102.781 26.484 102.469 26.6333 102.217 26.932C101.974 27.2213 101.853 27.66 101.853 28.248V32H99.8088V24.902H101.853ZM112.41 25.112V26.862C111.915 26.5727 111.337 26.428 110.674 26.428C110.431 26.428 110.245 26.4793 110.114 26.582C109.983 26.6753 109.918 26.7967 109.918 26.946C109.918 27.03 109.941 27.1093 109.988 27.184C110.035 27.2587 110.109 27.3287 110.212 27.394C110.324 27.4593 110.427 27.52 110.52 27.576C110.623 27.6227 110.758 27.6833 110.926 27.758C111.103 27.8327 111.243 27.898 111.346 27.954C111.775 28.178 112.121 28.4393 112.382 28.738C112.643 29.0273 112.774 29.4007 112.774 29.858C112.774 30.558 112.522 31.0993 112.018 31.482C111.514 31.8647 110.847 32.056 110.016 32.056C109.157 32.056 108.439 31.9113 107.86 31.622V29.802C108.504 30.25 109.185 30.474 109.904 30.474C110.417 30.474 110.674 30.3107 110.674 29.984C110.674 29.9 110.651 29.8207 110.604 29.746C110.557 29.6713 110.478 29.6013 110.366 29.536C110.254 29.4707 110.151 29.4193 110.058 29.382C109.965 29.3353 109.829 29.2747 109.652 29.2C109.475 29.1253 109.339 29.0647 109.246 29.018C108.303 28.57 107.832 27.898 107.832 27.002C107.832 26.3113 108.093 25.7747 108.616 25.392C109.148 25.0093 109.806 24.818 110.59 24.818C111.318 24.818 111.925 24.916 112.41 25.112ZM114.098 32V24.902H116.142V32H114.098ZM114.28 23.684C114.046 23.4507 113.93 23.1707 113.93 22.844C113.93 22.5173 114.046 22.2373 114.28 22.004C114.513 21.7707 114.793 21.654 115.12 21.654C115.446 21.654 115.726 21.7707 115.96 22.004C116.193 22.2373 116.31 22.5173 116.31 22.844C116.31 23.1707 116.193 23.4507 115.96 23.684C115.726 23.9173 115.446 24.034 115.12 24.034C114.793 24.034 114.513 23.9173 114.28 23.684ZM122.293 24.902H124.337V32H122.293V30.866C121.919 31.6593 121.201 32.056 120.137 32.056C119.409 32.056 118.839 31.8553 118.429 31.454C118.027 31.0433 117.827 30.4413 117.827 29.648V24.902H119.871V29.186C119.871 30.0167 120.235 30.432 120.963 30.432C121.849 30.432 122.293 29.8393 122.293 28.654V24.902ZM128.062 24.902V26.106C128.239 25.714 128.51 25.406 128.874 25.182C129.247 24.9487 129.69 24.832 130.204 24.832C130.932 24.832 131.501 25.0513 131.912 25.49C132.322 25.9193 132.528 26.554 132.528 27.394V32H130.484V27.772C130.484 27.352 130.386 27.0347 130.19 26.82C129.994 26.596 129.718 26.484 129.364 26.484C128.99 26.484 128.678 26.6333 128.426 26.932C128.183 27.2213 128.062 27.66 128.062 28.248V32H126.018V24.902H128.062Z" fill="white"/>
</g>
<g clip-path="url(#clip1_1124_4113)">
<path d="M170.084 111.188L159.774 84.6508C159.07 82.8364 157.503 81.5775 155.581 81.2806C153.658 80.9836 151.785 81.7119 150.569 83.2281L132.734 105.427C131.518 106.943 131.212 108.93 131.917 110.742C132.621 112.555 134.19 113.814 136.11 114.11C137.076 114.259 137.981 113.596 138.13 112.63C138.279 111.665 137.616 110.76 136.651 110.61C135.685 110.461 135.334 109.758 135.218 109.46C135.102 109.162 134.898 108.389 135.496 107.643L153.33 85.4444C153.929 84.6988 154.727 84.7302 155.04 84.7788C155.354 84.8275 156.125 85.038 156.472 85.9315L166.782 112.469C167.129 113.362 166.702 114.038 166.501 114.287C166.301 114.536 165.735 115.099 164.789 114.953L143.213 111.624C142.247 111.474 141.342 112.138 141.193 113.103C141.044 114.069 141.707 114.974 142.672 115.123L164.249 118.452C166.169 118.749 168.045 118.021 169.262 116.506C170.48 114.99 170.787 113.003 170.083 111.188H170.084Z" fill="#FF1934"/>
<path d="M150.279 107.36C149.902 107.638 149.659 108.047 149.588 108.507C149.551 108.748 149.56 108.975 149.614 109.206C149.668 109.438 149.771 109.633 149.898 109.832C150.046 110.034 150.226 110.174 150.409 110.292C150.615 110.413 150.826 110.492 151.068 110.529C151.527 110.6 151.992 110.493 152.37 110.214C152.77 109.941 153.013 109.53 153.088 109.047C153.162 108.564 153.029 108.122 152.772 107.745C152.217 106.988 151.036 106.806 150.279 107.361V107.36Z" fill="#FF1934"/>
<path d="M155.869 92.4275C155.743 91.479 155.117 90.5587 154.171 90.4134C153.226 90.2675 152.351 90.9561 151.946 91.8227C150.347 95.2409 151.042 99.3376 150.365 103.724C150.219 104.669 150.868 105.554 151.813 105.7C152.758 105.846 153.643 105.197 153.789 104.252C154.466 99.8656 156.363 96.1689 155.869 92.4275Z" fill="#FF1934"/>
<path d="M167.692 124.924L155.836 120.744C155.026 120.458 153.559 120.252 151.909 120.19C150.259 120.129 148.773 120.226 147.935 120.45L135.636 123.732C134.797 123.956 134.779 124.261 135.589 124.547C136.4 124.832 137.868 125.039 139.516 125.1C140.345 125.131 141.025 125.036 141.034 124.888C141.043 124.74 140.377 124.595 139.548 124.564C138.736 124.534 138.34 124.422 138.206 124.375C138.073 124.328 137.808 124.207 138.221 124.097L150.521 120.814C150.933 120.704 151.607 120.715 151.877 120.725C152.147 120.735 152.818 120.774 153.218 120.915L165.074 125.094C165.474 125.235 165.196 125.336 165.058 125.373C164.919 125.41 164.512 125.492 163.7 125.462L145.181 124.773C144.352 124.742 143.673 124.837 143.664 124.985C143.655 125.133 144.321 125.278 145.15 125.309L163.669 125.997C165.317 126.059 166.804 125.962 167.644 125.738C168.484 125.514 168.502 125.209 167.692 124.924V124.924Z" fill="#CCCCCC"/>
<path d="M150.601 124.173C150.317 124.212 150.163 124.274 150.158 124.344C150.156 124.381 150.191 124.417 150.264 124.452C150.337 124.488 150.448 124.52 150.578 124.551C150.726 124.584 150.894 124.607 151.062 124.626C151.25 124.646 151.436 124.66 151.644 124.668C152.038 124.683 152.416 124.67 152.699 124.63C153.003 124.591 153.157 124.529 153.161 124.456C153.165 124.382 153.001 124.312 152.74 124.252C152.183 124.131 151.168 124.093 150.6 124.173H150.601Z" fill="#CCCCCC"/>
<path d="M153.494 121.913C153.275 121.766 152.638 121.619 151.826 121.588C151.015 121.558 150.363 121.658 150.127 121.788C149.196 122.303 150.274 122.941 150.234 123.613C150.226 123.757 150.876 123.899 151.687 123.93C152.499 123.96 153.163 123.867 153.172 123.722C153.212 123.051 154.359 122.495 153.493 121.914L153.494 121.913Z" fill="#CCCCCC"/>
</g>
<path d="M21.5314 144.54H23.9214L23.7914 144.15L22.7414 140.91C22.6614 141.197 22.3014 142.28 21.6614 144.16L21.5314 144.54ZM24.7414 147L24.1514 145.23H21.3014L20.7014 147H19.8314L22.1814 140.26H23.3014L25.6114 147H24.7414ZM27.4758 141.93V142.81C27.7758 142.177 28.3092 141.86 29.0758 141.86C29.5692 141.86 29.9625 142.01 30.2558 142.31C30.5492 142.61 30.6958 143.01 30.6958 143.51V147H29.9058V143.72C29.9058 143.347 29.8092 143.063 29.6158 142.87C29.4292 142.67 29.1825 142.57 28.8758 142.57C28.4958 142.57 28.1658 142.717 27.8858 143.01C27.6125 143.303 27.4758 143.71 27.4758 144.23V147H26.6958V141.93H27.4758ZM34.0262 146.36C34.4395 146.36 34.7895 146.207 35.0762 145.9C35.3695 145.593 35.5162 145.103 35.5162 144.43C35.5162 143.79 35.3662 143.32 35.0662 143.02C34.7662 142.72 34.4362 142.57 34.0762 142.57C33.6562 142.57 33.3062 142.74 33.0262 143.08C32.7529 143.413 32.6162 143.893 32.6162 144.52C32.6162 145.067 32.7495 145.51 33.0162 145.85C33.2829 146.19 33.6195 146.36 34.0262 146.36ZM35.5162 139.93H36.3062V147H35.5162V146.25C35.1562 146.803 34.6362 147.08 33.9562 147.08C33.2829 147.08 32.7529 146.83 32.3662 146.33C31.9862 145.83 31.7962 145.223 31.7962 144.51C31.7962 143.717 31.9995 143.077 32.4062 142.59C32.8129 142.097 33.3362 141.85 33.9762 141.85C34.6362 141.85 35.1495 142.133 35.5162 142.7V139.93ZM40.5 144.66H39.62C39.1934 144.66 38.8734 144.743 38.66 144.91C38.4467 145.077 38.34 145.287 38.34 145.54C38.34 145.793 38.4234 146 38.59 146.16C38.7567 146.313 39 146.39 39.32 146.39C39.68 146.39 39.9667 146.29 40.18 146.09C40.3934 145.883 40.5 145.623 40.5 145.31V144.66ZM37.88 142.99V142.2C38.26 141.967 38.76 141.85 39.38 141.85C40.6534 141.85 41.29 142.497 41.29 143.79V147H40.51V146.4C40.25 146.833 39.7767 147.05 39.09 147.05C38.6167 147.05 38.2334 146.91 37.94 146.63C37.6534 146.35 37.51 145.997 37.51 145.57C37.51 145.083 37.6934 144.707 38.06 144.44C38.4334 144.167 38.94 144.03 39.58 144.03H40.5V143.77C40.5 143.37 40.41 143.07 40.23 142.87C40.05 142.663 39.7467 142.56 39.32 142.56C38.78 142.56 38.3 142.703 37.88 142.99ZM46.2233 142.57V145.54C46.2233 146.08 46.4767 146.35 46.9833 146.35C47.2433 146.35 47.4733 146.273 47.6733 146.12V146.87C47.4533 146.99 47.2067 147.05 46.9333 147.05C45.9333 147.05 45.4333 146.54 45.4333 145.52V142.57H44.6233V141.93H45.4333V140.67H46.2233V141.93H47.6233V142.57H46.2233ZM48.8647 147V141.93H49.6547V147H48.8647ZM48.8847 140.71C48.7914 140.61 48.7447 140.487 48.7447 140.34C48.7447 140.193 48.7914 140.07 48.8847 139.97C48.9847 139.87 49.1081 139.82 49.2547 139.82C49.4014 139.82 49.5247 139.87 49.6247 139.97C49.7247 140.07 49.7747 140.193 49.7747 140.34C49.7747 140.487 49.7247 140.61 49.6247 140.71C49.5247 140.803 49.4014 140.85 49.2547 140.85C49.1081 140.85 48.9847 140.803 48.8847 140.71ZM53.0887 146.36C53.502 146.36 53.852 146.207 54.1387 145.9C54.432 145.593 54.5787 145.103 54.5787 144.43C54.5787 143.79 54.4287 143.32 54.1287 143.02C53.8287 142.72 53.4987 142.57 53.1387 142.57C52.7187 142.57 52.3687 142.74 52.0887 143.08C51.8154 143.413 51.6787 143.893 51.6787 144.52C51.6787 145.067 51.812 145.51 52.0787 145.85C52.3454 146.19 52.682 146.36 53.0887 146.36ZM54.5787 139.93H55.3687V147H54.5787V146.25C54.2187 146.803 53.6987 147.08 53.0187 147.08C52.3454 147.08 51.8154 146.83 51.4287 146.33C51.0487 145.83 50.8587 145.223 50.8587 144.51C50.8587 143.717 51.062 143.077 51.4687 142.59C51.8754 142.097 52.3987 141.85 53.0387 141.85C53.6987 141.85 54.212 142.133 54.5787 142.7V139.93ZM59.5625 144.66H58.6825C58.2559 144.66 57.9359 144.743 57.7225 144.91C57.5092 145.077 57.4025 145.287 57.4025 145.54C57.4025 145.793 57.4859 146 57.6525 146.16C57.8192 146.313 58.0625 146.39 58.3825 146.39C58.7425 146.39 59.0292 146.29 59.2425 146.09C59.4559 145.883 59.5625 145.623 59.5625 145.31V144.66ZM56.9425 142.99V142.2C57.3225 141.967 57.8225 141.85 58.4425 141.85C59.7159 141.85 60.3525 142.497 60.3525 143.79V147H59.5725V146.4C59.3125 146.833 58.8392 147.05 58.1525 147.05C57.6792 147.05 57.2959 146.91 57.0025 146.63C56.7159 146.35 56.5725 145.997 56.5725 145.57C56.5725 145.083 56.7559 144.707 57.1225 144.44C57.4959 144.167 58.0025 144.03 58.6425 144.03H59.5625V143.77C59.5625 143.37 59.4725 143.07 59.2925 142.87C59.1125 142.663 58.8092 142.56 58.3825 142.56C57.8425 142.56 57.3625 142.703 56.9425 142.99ZM61.7544 147V139.97H62.5344V147H61.7544ZM63.5644 144.34L65.6244 147H64.6744L62.6344 144.34L64.6244 141.93H65.5644L63.5644 144.34ZM69.7805 141.93V142.75C70.0605 142.157 70.5372 141.86 71.2105 141.86C71.9905 141.86 72.4838 142.19 72.6905 142.85C72.8372 142.53 73.0405 142.287 73.3005 142.12C73.5672 141.947 73.8638 141.86 74.1905 141.86C74.7172 141.86 75.1138 142.01 75.3805 142.31C75.6472 142.61 75.7805 143.013 75.7805 143.52V147H74.9905V143.72C74.9905 142.953 74.6672 142.57 74.0205 142.57C73.7005 142.57 73.4138 142.717 73.1605 143.01C72.9072 143.297 72.7805 143.703 72.7805 144.23V147H71.9905V143.72C71.9905 142.953 71.6672 142.57 71.0205 142.57C70.7005 142.57 70.4138 142.717 70.1605 143.01C69.9072 143.297 69.7805 143.703 69.7805 144.23V147H69.0005V141.93H69.7805ZM80.4141 144.14V143.94C80.4141 143.52 80.3008 143.187 80.0741 142.94C79.8474 142.687 79.5341 142.56 79.1341 142.56C78.7541 142.56 78.4308 142.697 78.1641 142.97C77.8974 143.243 77.7408 143.633 77.6941 144.14H80.4141ZM80.8841 146V146.74C80.4908 146.947 80.0108 147.05 79.4441 147.05C78.6774 147.05 78.0574 146.817 77.5841 146.35C77.1174 145.877 76.8841 145.253 76.8841 144.48C76.8841 143.673 77.0941 143.037 77.5141 142.57C77.9341 142.103 78.4741 141.87 79.1341 141.87C79.7674 141.87 80.2708 142.073 80.6441 142.48C81.0174 142.887 81.2041 143.463 81.2041 144.21C81.2041 144.423 81.1874 144.62 81.1541 144.8H77.6941C77.7541 145.3 77.9441 145.683 78.2641 145.95C78.5841 146.217 79.0041 146.35 79.5241 146.35C80.0908 146.35 80.5441 146.233 80.8841 146ZM83.1887 141.93V142.75C83.4687 142.157 83.9454 141.86 84.6187 141.86C85.3987 141.86 85.892 142.19 86.0987 142.85C86.2454 142.53 86.4487 142.287 86.7087 142.12C86.9754 141.947 87.272 141.86 87.5987 141.86C88.1254 141.86 88.522 142.01 88.7887 142.31C89.0554 142.61 89.1887 143.013 89.1887 143.52V147H88.3987V143.72C88.3987 142.953 88.0754 142.57 87.4287 142.57C87.1087 142.57 86.822 142.717 86.5687 143.01C86.3154 143.297 86.1887 143.703 86.1887 144.23V147H85.3987V143.72C85.3987 142.953 85.0754 142.57 84.4287 142.57C84.1087 142.57 83.822 142.717 83.5687 143.01C83.3154 143.297 83.1887 143.703 83.1887 144.23V147H82.4087V141.93H83.1887ZM90.6323 147V141.93H91.4223V147H90.6323ZM90.6523 140.71C90.559 140.61 90.5123 140.487 90.5123 140.34C90.5123 140.193 90.559 140.07 90.6523 139.97C90.7523 139.87 90.8756 139.82 91.0223 139.82C91.169 139.82 91.2923 139.87 91.3923 139.97C91.4923 140.07 91.5423 140.193 91.5423 140.34C91.5423 140.487 91.4923 140.61 91.3923 140.71C91.2923 140.803 91.169 140.85 91.0223 140.85C90.8756 140.85 90.7523 140.803 90.6523 140.71ZM92.9663 147V139.93H93.7563V147H92.9663ZM95.3003 147V141.93H96.0903V147H95.3003ZM95.3203 140.71C95.2269 140.61 95.1803 140.487 95.1803 140.34C95.1803 140.193 95.2269 140.07 95.3203 139.97C95.4203 139.87 95.5436 139.82 95.6903 139.82C95.8369 139.82 95.9603 139.87 96.0603 139.97C96.1603 140.07 96.2103 140.193 96.2103 140.34C96.2103 140.487 96.1603 140.61 96.0603 140.71C95.9603 140.803 95.8369 140.85 95.6903 140.85C95.5436 140.85 95.4203 140.803 95.3203 140.71ZM97.5943 147V139.97H98.3743V147H97.5943ZM99.4043 144.34L101.464 147H100.514L98.4743 144.34L100.464 141.93H101.404L99.4043 144.34ZM102.439 147V141.93H103.229V147H102.439ZM102.459 140.71C102.366 140.61 102.319 140.487 102.319 140.34C102.319 140.193 102.366 140.07 102.459 139.97C102.559 139.87 102.682 139.82 102.829 139.82C102.976 139.82 103.099 139.87 103.199 139.97C103.299 140.07 103.349 140.193 103.349 140.34C103.349 140.487 103.299 140.61 103.199 140.71C103.099 140.803 102.976 140.85 102.829 140.85C102.682 140.85 102.559 140.803 102.459 140.71ZM107.694 144.49C107.701 145.037 107.868 145.493 108.194 145.86C108.521 146.22 108.984 146.4 109.584 146.4C109.971 146.4 110.331 146.29 110.664 146.07V146.82C110.344 147.013 109.951 147.11 109.484 147.11C108.684 147.11 108.048 146.857 107.574 146.35C107.108 145.837 106.874 145.213 106.874 144.48C106.874 143.76 107.108 143.14 107.574 142.62C108.048 142.1 108.691 141.84 109.504 141.84C109.938 141.84 110.324 141.933 110.664 142.12V142.87C110.358 142.663 109.998 142.56 109.584 142.56C109.011 142.56 108.551 142.747 108.204 143.12C107.864 143.487 107.694 143.943 107.694 144.49ZM115.031 141.93H115.821V147H115.031V146.12C114.765 146.747 114.235 147.06 113.441 147.06C112.941 147.06 112.545 146.913 112.251 146.62C111.965 146.32 111.821 145.92 111.821 145.42V141.93H112.611V145.22C112.611 145.587 112.705 145.867 112.891 146.06C113.078 146.253 113.331 146.35 113.651 146.35C114.071 146.35 114.405 146.203 114.651 145.91C114.905 145.617 115.031 145.22 115.031 144.72V141.93ZM117.282 147V139.97H118.062V147H117.282ZM119.092 144.34L121.152 147H120.202L118.162 144.34L120.152 141.93H121.092L119.092 144.34ZM125.236 141.93H126.026V147H125.236V146.12C124.97 146.747 124.44 147.06 123.646 147.06C123.146 147.06 122.75 146.913 122.456 146.62C122.17 146.32 122.026 145.92 122.026 145.42V141.93H122.816V145.22C122.816 145.587 122.91 145.867 123.096 146.06C123.283 146.253 123.536 146.35 123.856 146.35C124.276 146.35 124.61 146.203 124.856 145.91C125.11 145.617 125.236 145.22 125.236 144.72V141.93ZM129.717 146.36C130.144 146.36 130.494 146.193 130.767 145.86C131.04 145.52 131.177 145.04 131.177 144.42C131.177 143.867 131.044 143.42 130.777 143.08C130.51 142.74 130.174 142.57 129.767 142.57C129.36 142.57 129.007 142.72 128.707 143.02C128.414 143.313 128.267 143.797 128.267 144.47C128.267 145.117 128.417 145.593 128.717 145.9C129.017 146.207 129.35 146.36 129.717 146.36ZM128.267 141.93V142.7C128.62 142.133 129.144 141.85 129.837 141.85C130.51 141.85 131.037 142.097 131.417 142.59C131.804 143.077 131.997 143.687 131.997 144.42C131.997 145.2 131.794 145.84 131.387 146.34C130.987 146.833 130.464 147.08 129.817 147.08C129.15 147.08 128.634 146.797 128.267 146.23V148.97H127.487V141.93H128.267ZM136.122 144.49C136.129 145.037 136.295 145.493 136.622 145.86C136.949 146.22 137.412 146.4 138.012 146.4C138.399 146.4 138.759 146.29 139.092 146.07V146.82C138.772 147.013 138.379 147.11 137.912 147.11C137.112 147.11 136.475 146.857 136.002 146.35C135.535 145.837 135.302 145.213 135.302 144.48C135.302 143.76 135.535 143.14 136.002 142.62C136.475 142.1 137.119 141.84 137.932 141.84C138.365 141.84 138.752 141.933 139.092 142.12V142.87C138.785 142.663 138.425 142.56 138.012 142.56C137.439 142.56 136.979 142.747 136.632 143.12C136.292 143.487 136.122 143.943 136.122 144.49ZM143.039 144.66H142.159C141.732 144.66 141.412 144.743 141.199 144.91C140.986 145.077 140.879 145.287 140.879 145.54C140.879 145.793 140.962 146 141.129 146.16C141.296 146.313 141.539 146.39 141.859 146.39C142.219 146.39 142.506 146.29 142.719 146.09C142.932 145.883 143.039 145.623 143.039 145.31V144.66ZM140.419 142.99V142.2C140.799 141.967 141.299 141.85 141.919 141.85C143.192 141.85 143.829 142.497 143.829 143.79V147H143.049V146.4C142.789 146.833 142.316 147.05 141.629 147.05C141.156 147.05 140.772 146.91 140.479 146.63C140.192 146.35 140.049 145.997 140.049 145.57C140.049 145.083 140.232 144.707 140.599 144.44C140.972 144.167 141.479 144.03 142.119 144.03H143.039V143.77C143.039 143.37 142.949 143.07 142.769 142.87C142.589 142.663 142.286 142.56 141.859 142.56C141.319 142.56 140.839 142.703 140.419 142.99ZM147.991 142.1V142.85C147.684 142.663 147.264 142.57 146.731 142.57C146.464 142.57 146.251 142.633 146.091 142.76C145.938 142.88 145.861 143.037 145.861 143.23C145.861 143.35 145.884 143.457 145.931 143.55C145.978 143.637 146.068 143.723 146.201 143.81C146.341 143.897 146.441 143.957 146.501 143.99C146.568 144.017 146.708 144.077 146.921 144.17C147.348 144.343 147.681 144.54 147.921 144.76C148.161 144.98 148.281 145.277 148.281 145.65C148.281 146.083 148.128 146.427 147.821 146.68C147.521 146.933 147.108 147.06 146.581 147.06C145.968 147.06 145.471 146.957 145.091 146.75V145.98C145.538 146.247 146.018 146.38 146.531 146.38C146.838 146.38 147.071 146.32 147.231 146.2C147.391 146.08 147.471 145.917 147.471 145.71C147.471 145.47 147.381 145.283 147.201 145.15C147.028 145.017 146.734 144.867 146.321 144.7C145.941 144.553 145.634 144.37 145.401 144.15C145.174 143.93 145.061 143.633 145.061 143.26C145.061 142.84 145.218 142.507 145.531 142.26C145.851 142.007 146.248 141.88 146.721 141.88C147.248 141.88 147.671 141.953 147.991 142.1ZM150.132 139.93V142.81C150.432 142.177 150.965 141.86 151.732 141.86C152.219 141.86 152.609 142.01 152.902 142.31C153.202 142.61 153.352 143.017 153.352 143.53V147H152.562V143.72C152.562 143.353 152.465 143.07 152.272 142.87C152.085 142.67 151.839 142.57 151.532 142.57C151.159 142.57 150.832 142.713 150.552 143C150.272 143.287 150.132 143.697 150.132 144.23V147H149.352V139.93H150.132ZM160.344 141.93H161.134V147H160.344V146.12C160.077 146.747 159.547 147.06 158.754 147.06C158.254 147.06 157.857 146.913 157.564 146.62C157.277 146.32 157.134 145.92 157.134 145.42V141.93H157.924V145.22C157.924 145.587 158.017 145.867 158.204 146.06C158.391 146.253 158.644 146.35 158.964 146.35C159.384 146.35 159.717 146.203 159.964 145.91C160.217 145.617 160.344 145.22 160.344 144.72V141.93ZM163.374 141.93V142.81C163.674 142.177 164.208 141.86 164.974 141.86C165.468 141.86 165.861 142.01 166.154 142.31C166.448 142.61 166.594 143.01 166.594 143.51V147H165.804V143.72C165.804 143.347 165.708 143.063 165.514 142.87C165.328 142.67 165.081 142.57 164.774 142.57C164.394 142.57 164.064 142.717 163.784 143.01C163.511 143.303 163.374 143.71 163.374 144.23V147H162.594V141.93H163.374ZM169.085 142.57V145.54C169.085 146.08 169.338 146.35 169.845 146.35C170.105 146.35 170.335 146.273 170.535 146.12V146.87C170.315 146.99 170.068 147.05 169.795 147.05C168.795 147.05 168.295 146.54 168.295 145.52V142.57H167.485V141.93H168.295V140.67H169.085V141.93H170.485V142.57H169.085ZM174.836 141.93H175.626V147H174.836V146.12C174.569 146.747 174.039 147.06 173.246 147.06C172.746 147.06 172.349 146.913 172.056 146.62C171.769 146.32 171.626 145.92 171.626 145.42V141.93H172.416V145.22C172.416 145.587 172.509 145.867 172.696 146.06C172.883 146.253 173.136 146.35 173.456 146.35C173.876 146.35 174.209 146.203 174.456 145.91C174.709 145.617 174.836 145.22 174.836 144.72V141.93ZM177.086 147V139.97H177.866V147H177.086ZM178.896 144.34L180.956 147H180.006L177.966 144.34L179.956 141.93H180.896L178.896 144.34ZM185.113 141.93V142.75C185.393 142.157 185.869 141.86 186.543 141.86C187.323 141.86 187.816 142.19 188.023 142.85C188.169 142.53 188.373 142.287 188.633 142.12C188.899 141.947 189.196 141.86 189.523 141.86C190.049 141.86 190.446 142.01 190.713 142.31C190.979 142.61 191.113 143.013 191.113 143.52V147H190.323V143.72C190.323 142.953 189.999 142.57 189.353 142.57C189.033 142.57 188.746 142.717 188.493 143.01C188.239 143.297 188.113 143.703 188.113 144.23V147H187.323V143.72C187.323 142.953 186.999 142.57 186.353 142.57C186.033 142.57 185.746 142.717 185.493 143.01C185.239 143.297 185.113 143.703 185.113 144.23V147H184.333V141.93H185.113ZM195.746 144.14V143.94C195.746 143.52 195.633 143.187 195.406 142.94C195.179 142.687 194.866 142.56 194.466 142.56C194.086 142.56 193.763 142.697 193.496 142.97C193.229 143.243 193.073 143.633 193.026 144.14H195.746ZM196.216 146V146.74C195.823 146.947 195.343 147.05 194.776 147.05C194.009 147.05 193.389 146.817 192.916 146.35C192.449 145.877 192.216 145.253 192.216 144.48C192.216 143.673 192.426 143.037 192.846 142.57C193.266 142.103 193.806 141.87 194.466 141.87C195.099 141.87 195.603 142.073 195.976 142.48C196.349 142.887 196.536 143.463 196.536 144.21C196.536 144.423 196.519 144.62 196.486 144.8H193.026C193.086 145.3 193.276 145.683 193.596 145.95C193.916 146.217 194.336 146.35 194.856 146.35C195.423 146.35 195.876 146.233 196.216 146ZM198.521 141.93V142.75C198.801 142.157 199.277 141.86 199.951 141.86C200.731 141.86 201.224 142.19 201.431 142.85C201.577 142.53 201.781 142.287 202.041 142.12C202.307 141.947 202.604 141.86 202.931 141.86C203.457 141.86 203.854 142.01 204.121 142.31C204.387 142.61 204.521 143.013 204.521 143.52V147H203.731V143.72C203.731 142.953 203.407 142.57 202.761 142.57C202.441 142.57 202.154 142.717 201.901 143.01C201.647 143.297 201.521 143.703 201.521 144.23V147H200.731V143.72C200.731 142.953 200.407 142.57 199.761 142.57C199.441 142.57 199.154 142.717 198.901 143.01C198.647 143.297 198.521 143.703 198.521 144.23V147H197.741V141.93H198.521ZM208.234 146.36C208.641 146.36 208.978 146.19 209.244 145.85C209.511 145.51 209.644 145.067 209.644 144.52C209.644 143.893 209.504 143.413 209.224 143.08C208.951 142.74 208.604 142.57 208.184 142.57C207.824 142.57 207.494 142.72 207.194 143.02C206.894 143.32 206.744 143.79 206.744 144.43C206.744 145.103 206.888 145.593 207.174 145.9C207.468 146.207 207.821 146.36 208.234 146.36ZM206.744 139.93V142.69C207.111 142.13 207.624 141.85 208.284 141.85C208.924 141.85 209.448 142.097 209.854 142.59C210.261 143.077 210.464 143.717 210.464 144.51C210.464 145.223 210.271 145.83 209.884 146.33C209.504 146.83 208.978 147.08 208.304 147.08C207.624 147.08 207.104 146.803 206.744 146.25V147H205.954V139.93H206.744ZM214.857 144.14V143.94C214.857 143.52 214.744 143.187 214.517 142.94C214.291 142.687 213.977 142.56 213.577 142.56C213.197 142.56 212.874 142.697 212.607 142.97C212.341 143.243 212.184 143.633 212.137 144.14H214.857ZM215.327 146V146.74C214.934 146.947 214.454 147.05 213.887 147.05C213.121 147.05 212.501 146.817 212.027 146.35C211.561 145.877 211.327 145.253 211.327 144.48C211.327 143.673 211.537 143.037 211.957 142.57C212.377 142.103 212.917 141.87 213.577 141.87C214.211 141.87 214.714 142.073 215.087 142.48C215.461 142.887 215.647 143.463 215.647 144.21C215.647 144.423 215.631 144.62 215.597 144.8H212.137C212.197 145.3 212.387 145.683 212.707 145.95C213.027 146.217 213.447 146.35 213.967 146.35C214.534 146.35 214.987 146.233 215.327 146ZM216.892 147V139.93H217.682V147H216.892ZM219.226 147V141.93H220.016V147H219.226ZM219.246 140.71C219.153 140.61 219.106 140.487 219.106 140.34C219.106 140.193 219.153 140.07 219.246 139.97C219.346 139.87 219.469 139.82 219.616 139.82C219.763 139.82 219.886 139.87 219.986 139.97C220.086 140.07 220.136 140.193 220.136 140.34C220.136 140.487 220.086 140.61 219.986 140.71C219.886 140.803 219.763 140.85 219.616 140.85C219.469 140.85 219.346 140.803 219.246 140.71ZM224.821 146.29H226.031C226.865 146.29 227.495 146.033 227.921 145.52C228.348 145 228.561 144.353 228.561 143.58C228.561 142.847 228.321 142.23 227.841 141.73C227.368 141.23 226.751 140.98 225.991 140.98H224.821V146.29ZM224.001 140.26H226.001C226.995 140.26 227.808 140.57 228.441 141.19C229.081 141.803 229.401 142.6 229.401 143.58C229.401 144.553 229.105 145.367 228.511 146.02C227.925 146.673 227.101 147 226.041 147H224.001V140.26ZM233.303 144.66H232.423C231.996 144.66 231.676 144.743 231.463 144.91C231.249 145.077 231.143 145.287 231.143 145.54C231.143 145.793 231.226 146 231.393 146.16C231.559 146.313 231.803 146.39 232.123 146.39C232.483 146.39 232.769 146.29 232.983 146.09C233.196 145.883 233.303 145.623 233.303 145.31V144.66ZM230.683 142.99V142.2C231.063 141.967 231.563 141.85 232.183 141.85C233.456 141.85 234.093 142.497 234.093 143.79V147H233.313V146.4C233.053 146.833 232.579 147.05 231.893 147.05C231.419 147.05 231.036 146.91 230.743 146.63C230.456 146.35 230.313 145.997 230.313 145.57C230.313 145.083 230.496 144.707 230.863 144.44C231.236 144.167 231.743 144.03 232.383 144.03H233.303V143.77C233.303 143.37 233.213 143.07 233.033 142.87C232.853 142.663 232.549 142.56 232.123 142.56C231.583 142.56 231.103 142.703 230.683 142.99ZM236.275 141.93V142.81C236.575 142.177 237.108 141.86 237.875 141.86C238.368 141.86 238.761 142.01 239.055 142.31C239.348 142.61 239.495 143.01 239.495 143.51V147H238.705V143.72C238.705 143.347 238.608 143.063 238.415 142.87C238.228 142.67 237.981 142.57 237.675 142.57C237.295 142.57 236.965 142.717 236.685 143.01C236.411 143.303 236.275 143.71 236.275 144.23V147H235.495V141.93H236.275ZM243.625 144.66H242.745C242.318 144.66 241.998 144.743 241.785 144.91C241.572 145.077 241.465 145.287 241.465 145.54C241.465 145.793 241.548 146 241.715 146.16C241.882 146.313 242.125 146.39 242.445 146.39C242.805 146.39 243.092 146.29 243.305 146.09C243.518 145.883 243.625 145.623 243.625 145.31V144.66ZM241.005 142.99V142.2C241.385 141.967 241.885 141.85 242.505 141.85C243.778 141.85 244.415 142.497 244.415 143.79V147H243.635V146.4C243.375 146.833 242.902 147.05 242.215 147.05C241.742 147.05 241.358 146.91 241.065 146.63C240.778 146.35 240.635 145.997 240.635 145.57C240.635 145.083 240.818 144.707 241.185 144.44C241.558 144.167 242.065 144.03 242.705 144.03H243.625V143.77C243.625 143.37 243.535 143.07 243.355 142.87C243.175 142.663 242.872 142.56 242.445 142.56C241.905 142.56 241.425 142.703 241.005 142.99ZM249.108 143.83H250.148C250.655 143.83 251.052 143.7 251.338 143.44C251.625 143.173 251.768 142.837 251.768 142.43C251.768 141.977 251.622 141.617 251.328 141.35C251.035 141.083 250.618 140.95 250.078 140.95H249.108V143.83ZM248.298 140.26H250.068C250.848 140.26 251.462 140.463 251.908 140.87C252.362 141.27 252.588 141.79 252.588 142.43C252.588 143.03 252.365 143.53 251.918 143.93C251.472 144.323 250.882 144.52 250.148 144.52H249.108V147H248.298V140.26ZM256.938 144.14V143.94C256.938 143.52 256.824 143.187 256.598 142.94C256.371 142.687 256.058 142.56 255.658 142.56C255.278 142.56 254.954 142.697 254.688 142.97C254.421 143.243 254.264 143.633 254.218 144.14H256.938ZM257.408 146V146.74C257.014 146.947 256.534 147.05 255.968 147.05C255.201 147.05 254.581 146.817 254.108 146.35C253.641 145.877 253.408 145.253 253.408 144.48C253.408 143.673 253.618 143.037 254.038 142.57C254.458 142.103 254.998 141.87 255.658 141.87C256.291 141.87 256.794 142.073 257.168 142.48C257.541 142.887 257.728 143.463 257.728 144.21C257.728 144.423 257.711 144.62 257.678 144.8H254.218C254.278 145.3 254.468 145.683 254.788 145.95C255.108 146.217 255.528 146.35 256.048 146.35C256.614 146.35 257.068 146.233 257.408 146ZM259.712 141.93V142.81C260.012 142.177 260.545 141.86 261.312 141.86C261.805 141.86 262.199 142.01 262.492 142.31C262.785 142.61 262.932 143.01 262.932 143.51V147H262.142V143.72C262.142 143.347 262.045 143.063 261.852 142.87C261.665 142.67 261.419 142.57 261.112 142.57C260.732 142.57 260.402 142.717 260.122 143.01C259.849 143.303 259.712 143.71 259.712 144.23V147H258.932V141.93H259.712ZM267.093 142.1V142.85C266.786 142.663 266.366 142.57 265.833 142.57C265.566 142.57 265.353 142.633 265.193 142.76C265.039 142.88 264.963 143.037 264.963 143.23C264.963 143.35 264.986 143.457 265.033 143.55C265.079 143.637 265.169 143.723 265.303 143.81C265.443 143.897 265.543 143.957 265.603 143.99C265.669 144.017 265.809 144.077 266.023 144.17C266.449 144.343 266.783 144.54 267.023 144.76C267.263 144.98 267.383 145.277 267.383 145.65C267.383 146.083 267.229 146.427 266.923 146.68C266.623 146.933 266.209 147.06 265.683 147.06C265.069 147.06 264.573 146.957 264.193 146.75V145.98C264.639 146.247 265.119 146.38 265.633 146.38C265.939 146.38 266.173 146.32 266.333 146.2C266.493 146.08 266.573 145.917 266.573 145.71C266.573 145.47 266.483 145.283 266.303 145.15C266.129 145.017 265.836 144.867 265.423 144.7C265.043 144.553 264.736 144.37 264.503 144.15C264.276 143.93 264.163 143.633 264.163 143.26C264.163 142.84 264.319 142.507 264.633 142.26C264.953 142.007 265.349 141.88 265.823 141.88C266.349 141.88 266.773 141.953 267.093 142.1ZM268.494 147V141.93H269.284V147H268.494ZM268.514 140.71C268.42 140.61 268.374 140.487 268.374 140.34C268.374 140.193 268.42 140.07 268.514 139.97C268.614 139.87 268.737 139.82 268.884 139.82C269.03 139.82 269.154 139.87 269.254 139.97C269.354 140.07 269.404 140.193 269.404 140.34C269.404 140.487 269.354 140.61 269.254 140.71C269.154 140.803 269.03 140.85 268.884 140.85C268.737 140.85 268.614 140.803 268.514 140.71ZM273.938 141.93H274.728V147H273.938V146.12C273.671 146.747 273.141 147.06 272.348 147.06C271.848 147.06 271.451 146.913 271.158 146.62C270.871 146.32 270.728 145.92 270.728 145.42V141.93H271.518V145.22C271.518 145.587 271.611 145.867 271.798 146.06C271.984 146.253 272.238 146.35 272.558 146.35C272.978 146.35 273.311 146.203 273.558 145.91C273.811 145.617 273.938 145.22 273.938 144.72V141.93ZM276.968 141.93V142.81C277.268 142.177 277.801 141.86 278.568 141.86C279.061 141.86 279.455 142.01 279.748 142.31C280.041 142.61 280.188 143.01 280.188 143.51V147H279.398V143.72C279.398 143.347 279.301 143.063 279.108 142.87C278.921 142.67 278.675 142.57 278.368 142.57C277.988 142.57 277.658 142.717 277.378 143.01C277.105 143.303 276.968 143.71 276.968 144.23V147H276.188V141.93H276.968ZM281.268 146.91C281.155 146.797 281.098 146.657 281.098 146.49C281.098 146.323 281.155 146.183 281.268 146.07C281.382 145.957 281.522 145.9 281.688 145.9C281.855 145.9 281.995 145.957 282.108 146.07C282.222 146.183 282.278 146.323 282.278 146.49C282.278 146.657 282.222 146.797 282.108 146.91C281.995 147.023 281.855 147.08 281.688 147.08C281.522 147.08 281.382 147.023 281.268 146.91ZM41.2189 176.54H43.6089L43.4789 176.15L42.4289 172.91C42.3489 173.197 41.9889 174.28 41.3489 176.16L41.2189 176.54ZM44.4289 179L43.8389 177.23H40.9889L40.3889 179H39.5189L41.8689 172.26H42.9889L45.2989 179H44.4289ZM48.6133 178.36C49.04 178.36 49.39 178.193 49.6633 177.86C49.9367 177.52 50.0733 177.04 50.0733 176.42C50.0733 175.867 49.94 175.42 49.6733 175.08C49.4067 174.74 49.07 174.57 48.6633 174.57C48.2567 174.57 47.9033 174.72 47.6033 175.02C47.31 175.313 47.1633 175.797 47.1633 176.47C47.1633 177.117 47.3133 177.593 47.6133 177.9C47.9133 178.207 48.2467 178.36 48.6133 178.36ZM47.1633 173.93V174.7C47.5167 174.133 48.04 173.85 48.7333 173.85C49.4067 173.85 49.9333 174.097 50.3133 174.59C50.7 175.077 50.8933 175.687 50.8933 176.42C50.8933 177.2 50.69 177.84 50.2833 178.34C49.8833 178.833 49.36 179.08 48.7133 179.08C48.0467 179.08 47.53 178.797 47.1633 178.23V180.97H46.3833V173.93H47.1633ZM54.7871 176.66H53.9071C53.4805 176.66 53.1605 176.743 52.9471 176.91C52.7338 177.077 52.6271 177.287 52.6271 177.54C52.6271 177.793 52.7105 178 52.8771 178.16C53.0438 178.313 53.2871 178.39 53.6071 178.39C53.9671 178.39 54.2538 178.29 54.4671 178.09C54.6805 177.883 54.7871 177.623 54.7871 177.31V176.66ZM52.1671 174.99V174.2C52.5471 173.967 53.0471 173.85 53.6671 173.85C54.9405 173.85 55.5771 174.497 55.5771 175.79V179H54.7971V178.4C54.5371 178.833 54.0638 179.05 53.3771 179.05C52.9038 179.05 52.5205 178.91 52.2271 178.63C51.9405 178.35 51.7971 177.997 51.7971 177.57C51.7971 177.083 51.9805 176.707 52.3471 176.44C52.7205 176.167 53.2271 176.03 53.8671 176.03H54.7871V175.77C54.7871 175.37 54.6971 175.07 54.5171 174.87C54.3371 174.663 54.0338 174.56 53.6071 174.56C53.0671 174.56 52.5871 174.703 52.1671 174.99ZM56.979 179V171.97H57.759V179H56.979ZM58.789 176.34L60.849 179H59.899L57.859 176.34L59.849 173.93H60.789L58.789 176.34ZM64.5137 176.66H63.6337C63.207 176.66 62.887 176.743 62.6737 176.91C62.4604 177.077 62.3537 177.287 62.3537 177.54C62.3537 177.793 62.437 178 62.6037 178.16C62.7704 178.313 63.0137 178.39 63.3337 178.39C63.6937 178.39 63.9804 178.29 64.1937 178.09C64.407 177.883 64.5137 177.623 64.5137 177.31V176.66ZM61.8937 174.99V174.2C62.2737 173.967 62.7737 173.85 63.3937 173.85C64.667 173.85 65.3037 174.497 65.3037 175.79V179H64.5237V178.4C64.2637 178.833 63.7904 179.05 63.1037 179.05C62.6304 179.05 62.247 178.91 61.9537 178.63C61.667 178.35 61.5237 177.997 61.5237 177.57C61.5237 177.083 61.707 176.707 62.0737 176.44C62.447 176.167 62.9537 176.03 63.5937 176.03H64.5137V175.77C64.5137 175.37 64.4237 175.07 64.2437 174.87C64.0637 174.663 63.7604 174.56 63.3337 174.56C62.7937 174.56 62.3137 174.703 61.8937 174.99ZM67.4856 171.93V174.81C67.7856 174.177 68.3189 173.86 69.0856 173.86C69.5723 173.86 69.9623 174.01 70.2556 174.31C70.5556 174.61 70.7056 175.017 70.7056 175.53V179H69.9156V175.72C69.9156 175.353 69.8189 175.07 69.6256 174.87C69.4389 174.67 69.1923 174.57 68.8856 174.57C68.5123 174.57 68.1856 174.713 67.9056 175C67.6256 175.287 67.4856 175.697 67.4856 176.23V179H66.7056V171.93H67.4856ZM75.8674 176.54H78.2574L78.1274 176.15L77.0774 172.91C76.9974 173.197 76.6374 174.28 75.9974 176.16L75.8674 176.54ZM79.0774 179L78.4874 177.23H75.6374L75.0374 179H74.1674L76.5174 172.26H77.6374L79.9474 179H79.0774ZM81.8118 173.93V174.81C82.1118 174.177 82.6451 173.86 83.4118 173.86C83.9051 173.86 84.2984 174.01 84.5918 174.31C84.8851 174.61 85.0318 175.01 85.0318 175.51V179H84.2418V175.72C84.2418 175.347 84.1451 175.063 83.9518 174.87C83.7651 174.67 83.5184 174.57 83.2118 174.57C82.8318 174.57 82.5018 174.717 82.2218 175.01C81.9484 175.303 81.8118 175.71 81.8118 176.23V179H81.0318V173.93H81.8118ZM88.3621 178.36C88.7755 178.36 89.1255 178.207 89.4121 177.9C89.7055 177.593 89.8521 177.103 89.8521 176.43C89.8521 175.79 89.7021 175.32 89.4021 175.02C89.1021 174.72 88.7721 174.57 88.4121 174.57C87.9921 174.57 87.6421 174.74 87.3621 175.08C87.0888 175.413 86.9521 175.893 86.9521 176.52C86.9521 177.067 87.0855 177.51 87.3521 177.85C87.6188 178.19 87.9555 178.36 88.3621 178.36ZM89.8521 171.93H90.6421V179H89.8521V178.25C89.4921 178.803 88.9721 179.08 88.2921 179.08C87.6188 179.08 87.0888 178.83 86.7021 178.33C86.3221 177.83 86.1321 177.223 86.1321 176.51C86.1321 175.717 86.3355 175.077 86.7421 174.59C87.1488 174.097 87.6721 173.85 88.3121 173.85C88.9721 173.85 89.4855 174.133 89.8521 174.7V171.93ZM94.836 176.66H93.956C93.5293 176.66 93.2093 176.743 92.996 176.91C92.7826 177.077 92.676 177.287 92.676 177.54C92.676 177.793 92.7593 178 92.926 178.16C93.0926 178.313 93.336 178.39 93.656 178.39C94.016 178.39 94.3026 178.29 94.516 178.09C94.7293 177.883 94.836 177.623 94.836 177.31V176.66ZM92.216 174.99V174.2C92.596 173.967 93.096 173.85 93.716 173.85C94.9893 173.85 95.626 174.497 95.626 175.79V179H94.846V178.4C94.586 178.833 94.1126 179.05 93.426 179.05C92.9526 179.05 92.5693 178.91 92.276 178.63C91.9893 178.35 91.846 177.997 91.846 177.57C91.846 177.083 92.0293 176.707 92.396 176.44C92.7693 176.167 93.276 176.03 93.916 176.03H94.836V175.77C94.836 175.37 94.746 175.07 94.566 174.87C94.386 174.663 94.0826 174.56 93.656 174.56C93.116 174.56 92.636 174.703 92.216 174.99ZM99.5093 179V173.93H100.299V179H99.5093ZM99.5293 172.71C99.4359 172.61 99.3893 172.487 99.3893 172.34C99.3893 172.193 99.4359 172.07 99.5293 171.97C99.6293 171.87 99.7526 171.82 99.8993 171.82C100.046 171.82 100.169 171.87 100.269 171.97C100.369 172.07 100.419 172.193 100.419 172.34C100.419 172.487 100.369 172.61 100.269 172.71C100.169 172.803 100.046 172.85 99.8993 172.85C99.7526 172.85 99.6293 172.803 99.5293 172.71ZM102.583 173.93V174.81C102.883 174.177 103.417 173.86 104.183 173.86C104.677 173.86 105.07 174.01 105.363 174.31C105.657 174.61 105.803 175.01 105.803 175.51V179H105.013V175.72C105.013 175.347 104.917 175.063 104.723 174.87C104.537 174.67 104.29 174.57 103.983 174.57C103.603 174.57 103.273 174.717 102.993 175.01C102.72 175.303 102.583 175.71 102.583 176.23V179H101.803V173.93H102.583ZM109.104 178.17C109.47 178.17 109.794 178.03 110.074 177.75C110.36 177.463 110.504 177.04 110.504 176.48C110.504 175.833 110.367 175.353 110.094 175.04C109.82 174.727 109.504 174.57 109.144 174.57C108.71 174.57 108.367 174.743 108.114 175.09C107.86 175.43 107.734 175.877 107.734 176.43C107.734 176.997 107.874 177.43 108.154 177.73C108.434 178.023 108.75 178.17 109.104 178.17ZM110.504 173.93H111.294V178.59C111.294 179.363 111.08 179.943 110.654 180.33C110.227 180.723 109.677 180.92 109.004 180.92C108.39 180.92 107.867 180.817 107.434 180.61V179.82C107.86 180.067 108.36 180.19 108.934 180.19C109.42 180.19 109.804 180.06 110.084 179.8C110.364 179.54 110.504 179.133 110.504 178.58V178.01C110.17 178.583 109.674 178.87 109.014 178.87C108.434 178.87 107.937 178.657 107.524 178.23C107.117 177.803 106.914 177.21 106.914 176.45C106.914 175.697 107.104 175.077 107.484 174.59C107.864 174.103 108.36 173.86 108.974 173.86C109.667 173.86 110.177 174.163 110.504 174.77V173.93ZM112.732 179V173.93H113.522V179H112.732ZM112.752 172.71C112.659 172.61 112.612 172.487 112.612 172.34C112.612 172.193 112.659 172.07 112.752 171.97C112.852 171.87 112.975 171.82 113.122 171.82C113.269 171.82 113.392 171.87 113.492 171.97C113.592 172.07 113.642 172.193 113.642 172.34C113.642 172.487 113.592 172.61 113.492 172.71C113.392 172.803 113.269 172.85 113.122 172.85C112.975 172.85 112.852 172.803 112.752 172.71ZM115.806 173.93V174.81C116.106 174.177 116.639 173.86 117.406 173.86C117.899 173.86 118.293 174.01 118.586 174.31C118.879 174.61 119.026 175.01 119.026 175.51V179H118.236V175.72C118.236 175.347 118.139 175.063 117.946 174.87C117.759 174.67 117.513 174.57 117.206 174.57C116.826 174.57 116.496 174.717 116.216 175.01C115.943 175.303 115.806 175.71 115.806 176.23V179H115.026V173.93H115.806ZM123.648 173.93V174.75C123.928 174.157 124.404 173.86 125.078 173.86C125.858 173.86 126.351 174.19 126.558 174.85C126.704 174.53 126.908 174.287 127.168 174.12C127.434 173.947 127.731 173.86 128.058 173.86C128.584 173.86 128.981 174.01 129.248 174.31C129.514 174.61 129.648 175.013 129.648 175.52V179H128.858V175.72C128.858 174.953 128.534 174.57 127.888 174.57C127.568 174.57 127.281 174.717 127.028 175.01C126.774 175.297 126.648 175.703 126.648 176.23V179H125.858V175.72C125.858 174.953 125.534 174.57 124.888 174.57C124.568 174.57 124.281 174.717 124.028 175.01C123.774 175.297 123.648 175.703 123.648 176.23V179H122.868V173.93H123.648ZM134.281 176.14V175.94C134.281 175.52 134.168 175.187 133.941 174.94C133.715 174.687 133.401 174.56 133.001 174.56C132.621 174.56 132.298 174.697 132.031 174.97C131.765 175.243 131.608 175.633 131.561 176.14H134.281ZM134.751 178V178.74C134.358 178.947 133.878 179.05 133.311 179.05C132.545 179.05 131.925 178.817 131.451 178.35C130.985 177.877 130.751 177.253 130.751 176.48C130.751 175.673 130.961 175.037 131.381 174.57C131.801 174.103 132.341 173.87 133.001 173.87C133.635 173.87 134.138 174.073 134.511 174.48C134.885 174.887 135.071 175.463 135.071 176.21C135.071 176.423 135.055 176.62 135.021 176.8H131.561C131.621 177.3 131.811 177.683 132.131 177.95C132.451 178.217 132.871 178.35 133.391 178.35C133.958 178.35 134.411 178.233 134.751 178ZM137.056 173.93V174.81C137.356 174.177 137.889 173.86 138.656 173.86C139.149 173.86 139.543 174.01 139.836 174.31C140.129 174.61 140.276 175.01 140.276 175.51V179H139.486V175.72C139.486 175.347 139.389 175.063 139.196 174.87C139.009 174.67 138.763 174.57 138.456 174.57C138.076 174.57 137.746 174.717 137.466 175.01C137.193 175.303 137.056 175.71 137.056 176.23V179H136.276V173.93H137.056ZM143.576 178.17C143.943 178.17 144.266 178.03 144.546 177.75C144.833 177.463 144.976 177.04 144.976 176.48C144.976 175.833 144.84 175.353 144.566 175.04C144.293 174.727 143.976 174.57 143.616 174.57C143.183 174.57 142.84 174.743 142.586 175.09C142.333 175.43 142.206 175.877 142.206 176.43C142.206 176.997 142.346 177.43 142.626 177.73C142.906 178.023 143.223 178.17 143.576 178.17ZM144.976 173.93H145.766V178.59C145.766 179.363 145.553 179.943 145.126 180.33C144.7 180.723 144.15 180.92 143.476 180.92C142.863 180.92 142.34 180.817 141.906 180.61V179.82C142.333 180.067 142.833 180.19 143.406 180.19C143.893 180.19 144.276 180.06 144.556 179.8C144.836 179.54 144.976 179.133 144.976 178.58V178.01C144.643 178.583 144.146 178.87 143.486 178.87C142.906 178.87 142.41 178.657 141.996 178.23C141.59 177.803 141.386 177.21 141.386 176.45C141.386 175.697 141.576 175.077 141.956 174.59C142.336 174.103 142.833 173.86 143.446 173.86C144.14 173.86 144.65 174.163 144.976 174.77V173.93ZM149.065 178.17C149.431 178.17 149.755 178.03 150.035 177.75C150.321 177.463 150.465 177.04 150.465 176.48C150.465 175.833 150.328 175.353 150.055 175.04C149.781 174.727 149.465 174.57 149.105 174.57C148.671 174.57 148.328 174.743 148.075 175.09C147.821 175.43 147.695 175.877 147.695 176.43C147.695 176.997 147.835 177.43 148.115 177.73C148.395 178.023 148.711 178.17 149.065 178.17ZM150.465 173.93H151.255V178.59C151.255 179.363 151.041 179.943 150.615 180.33C150.188 180.723 149.638 180.92 148.965 180.92C148.351 180.92 147.828 180.817 147.395 180.61V179.82C147.821 180.067 148.321 180.19 148.895 180.19C149.381 180.19 149.765 180.06 150.045 179.8C150.325 179.54 150.465 179.133 150.465 178.58V178.01C150.131 178.583 149.635 178.87 148.975 178.87C148.395 178.87 147.898 178.657 147.485 178.23C147.078 177.803 146.875 177.21 146.875 176.45C146.875 175.697 147.065 175.077 147.445 174.59C147.825 174.103 148.321 173.86 148.935 173.86C149.628 173.86 150.138 174.163 150.465 174.77V173.93ZM155.803 173.93H156.593V179H155.803V178.12C155.536 178.747 155.006 179.06 154.213 179.06C153.713 179.06 153.316 178.913 153.023 178.62C152.736 178.32 152.593 177.92 152.593 177.42V173.93H153.383V177.22C153.383 177.587 153.476 177.867 153.663 178.06C153.85 178.253 154.103 178.35 154.423 178.35C154.843 178.35 155.176 178.203 155.423 177.91C155.676 177.617 155.803 177.22 155.803 176.72V173.93ZM158.833 173.93V174.81C159.133 174.177 159.667 173.86 160.433 173.86C160.927 173.86 161.32 174.01 161.613 174.31C161.907 174.61 162.053 175.01 162.053 175.51V179H161.263V175.72C161.263 175.347 161.167 175.063 160.973 174.87C160.787 174.67 160.54 174.57 160.233 174.57C159.853 174.57 159.523 174.717 159.243 175.01C158.97 175.303 158.833 175.71 158.833 176.23V179H158.053V173.93H158.833ZM166.184 176.66H165.304C164.877 176.66 164.557 176.743 164.344 176.91C164.13 177.077 164.024 177.287 164.024 177.54C164.024 177.793 164.107 178 164.274 178.16C164.44 178.313 164.684 178.39 165.004 178.39C165.364 178.39 165.65 178.29 165.864 178.09C166.077 177.883 166.184 177.623 166.184 177.31V176.66ZM163.564 174.99V174.2C163.944 173.967 164.444 173.85 165.064 173.85C166.337 173.85 166.974 174.497 166.974 175.79V179H166.194V178.4C165.934 178.833 165.46 179.05 164.774 179.05C164.3 179.05 163.917 178.91 163.624 178.63C163.337 178.35 163.194 177.997 163.194 177.57C163.194 177.083 163.377 176.707 163.744 176.44C164.117 176.167 164.624 176.03 165.264 176.03H166.184V175.77C166.184 175.37 166.094 175.07 165.914 174.87C165.734 174.663 165.43 174.56 165.004 174.56C164.464 174.56 163.984 174.703 163.564 174.99ZM168.376 179V171.97H169.156V179H168.376ZM170.186 176.34L172.246 179H171.296L169.256 176.34L171.246 173.93H172.186L170.186 176.34ZM175.91 176.66H175.03C174.604 176.66 174.284 176.743 174.07 176.91C173.857 177.077 173.75 177.287 173.75 177.54C173.75 177.793 173.834 178 174 178.16C174.167 178.313 174.41 178.39 174.73 178.39C175.09 178.39 175.377 178.29 175.59 178.09C175.804 177.883 175.91 177.623 175.91 177.31V176.66ZM173.29 174.99V174.2C173.67 173.967 174.17 173.85 174.79 173.85C176.064 173.85 176.7 174.497 176.7 175.79V179H175.92V178.4C175.66 178.833 175.187 179.05 174.5 179.05C174.027 179.05 173.644 178.91 173.35 178.63C173.064 178.35 172.92 177.997 172.92 177.57C172.92 177.083 173.104 176.707 173.47 176.44C173.844 176.167 174.35 176.03 174.99 176.03H175.91V175.77C175.91 175.37 175.82 175.07 175.64 174.87C175.46 174.663 175.157 174.56 174.73 174.56C174.19 174.56 173.71 174.703 173.29 174.99ZM178.882 173.93V174.81C179.182 174.177 179.715 173.86 180.482 173.86C180.975 173.86 181.369 174.01 181.662 174.31C181.955 174.61 182.102 175.01 182.102 175.51V179H181.312V175.72C181.312 175.347 181.215 175.063 181.022 174.87C180.835 174.67 180.589 174.57 180.282 174.57C179.902 174.57 179.572 174.717 179.292 175.01C179.019 175.303 178.882 175.71 178.882 176.23V179H178.102V173.93H178.882ZM188.704 174.1V174.85C188.397 174.663 187.977 174.57 187.444 174.57C187.177 174.57 186.964 174.633 186.804 174.76C186.651 174.88 186.574 175.037 186.574 175.23C186.574 175.35 186.597 175.457 186.644 175.55C186.691 175.637 186.781 175.723 186.914 175.81C187.054 175.897 187.154 175.957 187.214 175.99C187.281 176.017 187.421 176.077 187.634 176.17C188.061 176.343 188.394 176.54 188.634 176.76C188.874 176.98 188.994 177.277 188.994 177.65C188.994 178.083 188.841 178.427 188.534 178.68C188.234 178.933 187.821 179.06 187.294 179.06C186.681 179.06 186.184 178.957 185.804 178.75V177.98C186.251 178.247 186.731 178.38 187.244 178.38C187.551 178.38 187.784 178.32 187.944 178.2C188.104 178.08 188.184 177.917 188.184 177.71C188.184 177.47 188.094 177.283 187.914 177.15C187.741 177.017 187.447 176.867 187.034 176.7C186.654 176.553 186.347 176.37 186.114 176.15C185.887 175.93 185.774 175.633 185.774 175.26C185.774 174.84 185.931 174.507 186.244 174.26C186.564 174.007 186.961 173.88 187.434 173.88C187.961 173.88 188.384 173.953 188.704 174.1ZM192.795 176.66H191.915C191.488 176.66 191.168 176.743 190.955 176.91C190.742 177.077 190.635 177.287 190.635 177.54C190.635 177.793 190.718 178 190.885 178.16C191.052 178.313 191.295 178.39 191.615 178.39C191.975 178.39 192.262 178.29 192.475 178.09C192.688 177.883 192.795 177.623 192.795 177.31V176.66ZM190.175 174.99V174.2C190.555 173.967 191.055 173.85 191.675 173.85C192.948 173.85 193.585 174.497 193.585 175.79V179H192.805V178.4C192.545 178.833 192.072 179.05 191.385 179.05C190.912 179.05 190.528 178.91 190.235 178.63C189.948 178.35 189.805 177.997 189.805 177.57C189.805 177.083 189.988 176.707 190.355 176.44C190.728 176.167 191.235 176.03 191.875 176.03H192.795V175.77C192.795 175.37 192.705 175.07 192.525 174.87C192.345 174.663 192.042 174.56 191.615 174.56C191.075 174.56 190.595 174.703 190.175 174.99ZM195.027 179V171.93H195.817V179H195.027ZM199.251 178.36C199.664 178.36 200.014 178.207 200.301 177.9C200.594 177.593 200.741 177.103 200.741 176.43C200.741 175.79 200.591 175.32 200.291 175.02C199.991 174.72 199.661 174.57 199.301 174.57C198.881 174.57 198.531 174.74 198.251 175.08C197.977 175.413 197.841 175.893 197.841 176.52C197.841 177.067 197.974 177.51 198.241 177.85C198.507 178.19 198.844 178.36 199.251 178.36ZM200.741 171.93H201.531V179H200.741V178.25C200.381 178.803 199.861 179.08 199.181 179.08C198.507 179.08 197.977 178.83 197.591 178.33C197.211 177.83 197.021 177.223 197.021 176.51C197.021 175.717 197.224 175.077 197.631 174.59C198.037 174.097 198.561 173.85 199.201 173.85C199.861 173.85 200.374 174.133 200.741 174.7V171.93ZM205.055 179.09C204.328 179.09 203.751 178.847 203.325 178.36C202.905 177.867 202.695 177.247 202.695 176.5C202.695 175.747 202.911 175.12 203.345 174.62C203.785 174.113 204.355 173.86 205.055 173.86C205.821 173.86 206.411 174.107 206.825 174.6C207.245 175.093 207.455 175.72 207.455 176.48C207.455 177.233 207.241 177.857 206.815 178.35C206.388 178.843 205.801 179.09 205.055 179.09ZM205.055 174.56C204.575 174.56 204.198 174.747 203.925 175.12C203.651 175.493 203.515 175.95 203.515 176.49C203.515 177.017 203.655 177.467 203.935 177.84C204.215 178.207 204.588 178.39 205.055 178.39C205.561 178.39 205.951 178.21 206.225 177.85C206.498 177.483 206.635 177.03 206.635 176.49C206.635 175.93 206.505 175.47 206.245 175.11C205.985 174.743 205.588 174.56 205.055 174.56ZM212.981 178.36C213.395 178.36 213.745 178.207 214.031 177.9C214.325 177.593 214.471 177.103 214.471 176.43C214.471 175.79 214.321 175.32 214.021 175.02C213.721 174.72 213.391 174.57 213.031 174.57C212.611 174.57 212.261 174.74 211.981 175.08C211.708 175.413 211.571 175.893 211.571 176.52C211.571 177.067 211.705 177.51 211.971 177.85C212.238 178.19 212.575 178.36 212.981 178.36ZM214.471 171.93H215.261V179H214.471V178.25C214.111 178.803 213.591 179.08 212.911 179.08C212.238 179.08 211.708 178.83 211.321 178.33C210.941 177.83 210.751 177.223 210.751 176.51C210.751 175.717 210.955 175.077 211.361 174.59C211.768 174.097 212.291 173.85 212.931 173.85C213.591 173.85 214.105 174.133 214.471 174.7V171.93ZM216.765 179V173.93H217.555V179H216.765ZM216.785 172.71C216.692 172.61 216.645 172.487 216.645 172.34C216.645 172.193 216.692 172.07 216.785 171.97C216.885 171.87 217.008 171.82 217.155 171.82C217.302 171.82 217.425 171.87 217.525 171.97C217.625 172.07 217.675 172.193 217.675 172.34C217.675 172.487 217.625 172.61 217.525 172.71C217.425 172.803 217.302 172.85 217.155 172.85C217.008 172.85 216.885 172.803 216.785 172.71ZM225.401 172.26V172.97H223.581V179H222.771V172.97H220.951V172.26H225.401ZM229.055 176.66H228.175C227.748 176.66 227.428 176.743 227.215 176.91C227.001 177.077 226.895 177.287 226.895 177.54C226.895 177.793 226.978 178 227.145 178.16C227.311 178.313 227.555 178.39 227.875 178.39C228.235 178.39 228.521 178.29 228.735 178.09C228.948 177.883 229.055 177.623 229.055 177.31V176.66ZM226.435 174.99V174.2C226.815 173.967 227.315 173.85 227.935 173.85C229.208 173.85 229.845 174.497 229.845 175.79V179H229.065V178.4C228.805 178.833 228.331 179.05 227.645 179.05C227.171 179.05 226.788 178.91 226.495 178.63C226.208 178.35 226.065 177.997 226.065 177.57C226.065 177.083 226.248 176.707 226.615 176.44C226.988 176.167 227.495 176.03 228.135 176.03H229.055V175.77C229.055 175.37 228.965 175.07 228.785 174.87C228.605 174.663 228.301 174.56 227.875 174.56C227.335 174.56 226.855 174.703 226.435 174.99ZM233.557 178.36C233.963 178.36 234.3 178.19 234.567 177.85C234.833 177.51 234.967 177.067 234.967 176.52C234.967 175.893 234.827 175.413 234.547 175.08C234.273 174.74 233.927 174.57 233.507 174.57C233.147 174.57 232.817 174.72 232.517 175.02C232.217 175.32 232.067 175.79 232.067 176.43C232.067 177.103 232.21 177.593 232.497 177.9C232.79 178.207 233.143 178.36 233.557 178.36ZM232.067 171.93V174.69C232.433 174.13 232.947 173.85 233.607 173.85C234.247 173.85 234.77 174.097 235.177 174.59C235.583 175.077 235.787 175.717 235.787 176.51C235.787 177.223 235.593 177.83 235.207 178.33C234.827 178.83 234.3 179.08 233.627 179.08C232.947 179.08 232.427 178.803 232.067 178.25V179H231.277V171.93H232.067ZM240.1 173.93H240.89V179H240.1V178.12C239.833 178.747 239.303 179.06 238.51 179.06C238.01 179.06 237.613 178.913 237.32 178.62C237.033 178.32 236.89 177.92 236.89 177.42V173.93H237.68V177.22C237.68 177.587 237.773 177.867 237.96 178.06C238.146 178.253 238.4 178.35 238.72 178.35C239.14 178.35 239.473 178.203 239.72 177.91C239.973 177.617 240.1 177.22 240.1 176.72V173.93ZM243.13 173.93V174.81C243.43 174.177 243.963 173.86 244.73 173.86C245.223 173.86 245.617 174.01 245.91 174.31C246.203 174.61 246.35 175.01 246.35 175.51V179H245.56V175.72C245.56 175.347 245.463 175.063 245.27 174.87C245.083 174.67 244.837 174.57 244.53 174.57C244.15 174.57 243.82 174.717 243.54 175.01C243.267 175.303 243.13 175.71 243.13 176.23V179H242.35V173.93H243.13ZM249.651 178.17C250.017 178.17 250.341 178.03 250.621 177.75C250.907 177.463 251.051 177.04 251.051 176.48C251.051 175.833 250.914 175.353 250.641 175.04C250.367 174.727 250.051 174.57 249.691 174.57C249.257 174.57 248.914 174.743 248.661 175.09C248.407 175.43 248.281 175.877 248.281 176.43C248.281 176.997 248.421 177.43 248.701 177.73C248.981 178.023 249.297 178.17 249.651 178.17ZM251.051 173.93H251.841V178.59C251.841 179.363 251.627 179.943 251.201 180.33C250.774 180.723 250.224 180.92 249.551 180.92C248.937 180.92 248.414 180.817 247.981 180.61V179.82C248.407 180.067 248.907 180.19 249.481 180.19C249.967 180.19 250.351 180.06 250.631 179.8C250.911 179.54 251.051 179.133 251.051 178.58V178.01C250.717 178.583 250.221 178.87 249.561 178.87C248.981 178.87 248.484 178.657 248.071 178.23C247.664 177.803 247.461 177.21 247.461 176.45C247.461 175.697 247.651 175.077 248.031 174.59C248.411 174.103 248.907 173.86 249.521 173.86C250.214 173.86 250.724 174.163 251.051 174.77V173.93ZM255.969 176.66H255.089C254.662 176.66 254.342 176.743 254.129 176.91C253.915 177.077 253.809 177.287 253.809 177.54C253.809 177.793 253.892 178 254.059 178.16C254.225 178.313 254.469 178.39 254.789 178.39C255.149 178.39 255.435 178.29 255.649 178.09C255.862 177.883 255.969 177.623 255.969 177.31V176.66ZM253.349 174.99V174.2C253.729 173.967 254.229 173.85 254.849 173.85C256.122 173.85 256.759 174.497 256.759 175.79V179H255.979V178.4C255.719 178.833 255.245 179.05 254.559 179.05C254.085 179.05 253.702 178.91 253.409 178.63C253.122 178.35 252.979 177.997 252.979 177.57C252.979 177.083 253.162 176.707 253.529 176.44C253.902 176.167 254.409 176.03 255.049 176.03H255.969V175.77C255.969 175.37 255.879 175.07 255.699 174.87C255.519 174.663 255.215 174.56 254.789 174.56C254.249 174.56 253.769 174.703 253.349 174.99ZM258.941 173.93V174.81C259.241 174.177 259.774 173.86 260.541 173.86C261.034 173.86 261.427 174.01 261.721 174.31C262.014 174.61 262.161 175.01 262.161 175.51V179H261.371V175.72C261.371 175.347 261.274 175.063 261.081 174.87C260.894 174.67 260.647 174.57 260.341 174.57C259.961 174.57 259.631 174.717 259.351 175.01C259.077 175.303 258.941 175.71 258.941 176.23V179H258.161V173.93H258.941ZM186.572 189.39V188.59C187.005 188.317 187.539 188.18 188.172 188.18C188.805 188.18 189.312 188.343 189.692 188.67C190.072 188.99 190.262 189.437 190.262 190.01C190.262 190.577 190.065 191.017 189.672 191.33C189.279 191.643 188.822 191.823 188.302 191.87L188.292 192.96H187.532L187.522 191.3C188.135 191.3 188.609 191.197 188.942 190.99C189.275 190.777 189.442 190.46 189.442 190.04C189.442 189.7 189.332 189.423 189.112 189.21C188.892 188.997 188.565 188.89 188.132 188.89C187.619 188.89 187.099 189.057 186.572 189.39ZM187.312 194.49C187.312 194.33 187.369 194.193 187.482 194.08C187.595 193.96 187.732 193.9 187.892 193.9C188.059 193.9 188.202 193.96 188.322 194.08C188.442 194.193 188.502 194.33 188.502 194.49C188.502 194.657 188.442 194.797 188.322 194.91C188.209 195.023 188.065 195.08 187.892 195.08C187.725 195.08 187.585 195.023 187.472 194.91C187.365 194.797 187.312 194.657 187.312 194.49Z" fill="#2B2B2B"/>
<path d="M113.316 193.97H114.396C115.203 193.97 115.606 193.663 115.606 193.05C115.606 192.423 115.186 192.11 114.346 192.11H113.316V193.97ZM113.316 189.29V191.1H114.076C114.53 191.1 114.87 191.01 115.096 190.83C115.323 190.65 115.436 190.42 115.436 190.14C115.436 189.88 115.34 189.673 115.146 189.52C114.96 189.367 114.673 189.29 114.286 189.29H113.316ZM112.056 188.26H114.446C115.166 188.26 115.726 188.43 116.126 188.77C116.526 189.11 116.726 189.55 116.726 190.09C116.726 190.457 116.626 190.777 116.426 191.05C116.226 191.317 115.97 191.493 115.656 191.58C116.016 191.667 116.313 191.843 116.546 192.11C116.78 192.37 116.896 192.727 116.896 193.18C116.896 193.713 116.71 194.15 116.336 194.49C115.963 194.83 115.446 195 114.786 195H112.056V188.26ZM117.974 195V188.26H119.404L121.024 191.07C121.291 191.53 121.528 191.96 121.734 192.36C121.948 192.753 122.091 193.033 122.164 193.2L122.274 193.45C122.221 192.897 122.194 192.103 122.194 191.07V188.26H123.464V195H122.024L120.384 192.2C120.124 191.76 119.888 191.34 119.674 190.94C119.468 190.533 119.324 190.24 119.244 190.06L119.124 189.78C119.198 190.413 119.234 191.217 119.234 192.19V195H117.974ZM124.939 195V188.26H126.199V195H124.939ZM134.412 188.26V189.3H132.702V195H131.432V189.3H129.722V188.26H134.412ZM137.897 192.82H137.277C136.964 192.82 136.724 192.887 136.557 193.02C136.391 193.147 136.307 193.31 136.307 193.51C136.307 193.937 136.554 194.15 137.047 194.15C137.314 194.15 137.521 194.073 137.667 193.92C137.821 193.76 137.897 193.553 137.897 193.3V192.82ZM135.437 191.3V190.19C135.817 189.957 136.364 189.84 137.077 189.84C138.451 189.84 139.137 190.48 139.137 191.76V195H137.947V194.39C137.714 194.823 137.274 195.04 136.627 195.04C136.147 195.04 135.764 194.9 135.477 194.62C135.197 194.34 135.057 193.987 135.057 193.56C135.057 193.08 135.237 192.703 135.597 192.43C135.957 192.157 136.477 192.02 137.157 192.02H137.897V191.71C137.897 191.43 137.824 191.217 137.677 191.07C137.531 190.923 137.281 190.85 136.927 190.85C136.387 190.85 135.891 191 135.437 191.3ZM142.836 194.04C143.196 194.04 143.489 193.903 143.716 193.63C143.942 193.35 144.056 192.96 144.056 192.46C144.056 191.96 143.942 191.573 143.716 191.3C143.489 191.02 143.202 190.88 142.856 190.88C142.509 190.88 142.209 191.01 141.956 191.27C141.702 191.53 141.576 191.917 141.576 192.43C141.576 192.943 141.699 193.34 141.946 193.62C142.192 193.9 142.489 194.04 142.836 194.04ZM141.576 189.93V190.71C141.936 190.143 142.452 189.86 143.126 189.86C143.786 189.86 144.309 190.097 144.696 190.57C145.089 191.043 145.286 191.667 145.286 192.44C145.286 193.2 145.089 193.83 144.696 194.33C144.309 194.823 143.782 195.07 143.116 195.07C142.436 195.07 141.922 194.793 141.576 194.24V196.91H140.376V189.93H141.576ZM146.363 195V187.93H147.563V195H146.363ZM152.051 189.93H153.261V195H152.051V194.17C151.784 194.757 151.264 195.05 150.491 195.05C149.977 195.05 149.577 194.903 149.291 194.61C149.004 194.317 148.861 193.9 148.861 193.36V189.93H150.061V193.08C150.061 193.4 150.137 193.643 150.291 193.81C150.451 193.977 150.667 194.06 150.941 194.06C151.287 194.06 151.557 193.943 151.751 193.71C151.951 193.477 152.051 193.123 152.051 192.65V189.93ZM157.595 190.09V191.15C157.262 190.95 156.845 190.85 156.345 190.85C156.138 190.85 155.975 190.897 155.855 190.99C155.742 191.077 155.685 191.19 155.685 191.33C155.685 191.383 155.692 191.433 155.705 191.48C155.725 191.527 155.755 191.573 155.795 191.62C155.842 191.66 155.885 191.697 155.925 191.73C155.965 191.763 156.022 191.8 156.095 191.84C156.168 191.873 156.232 191.903 156.285 191.93C156.338 191.957 156.412 191.99 156.505 192.03C156.598 192.07 156.672 192.103 156.725 192.13C157.078 192.303 157.358 192.497 157.565 192.71C157.772 192.923 157.875 193.2 157.875 193.54C157.875 194.013 157.705 194.383 157.365 194.65C157.025 194.917 156.572 195.05 156.005 195.05C155.378 195.05 154.872 194.947 154.485 194.74V193.64C154.932 193.94 155.415 194.09 155.935 194.09C156.155 194.09 156.325 194.05 156.445 193.97C156.572 193.883 156.635 193.767 156.635 193.62C156.635 193.533 156.615 193.457 156.575 193.39C156.535 193.317 156.458 193.247 156.345 193.18C156.232 193.113 156.142 193.067 156.075 193.04C156.015 193.007 155.892 192.95 155.705 192.87C155.685 192.863 155.668 192.857 155.655 192.85C155.648 192.843 155.635 192.837 155.615 192.83C155.595 192.823 155.578 192.817 155.565 192.81C154.825 192.477 154.455 191.997 154.455 191.37C154.455 190.903 154.632 190.537 154.985 190.27C155.338 190.003 155.782 189.87 156.315 189.87C156.828 189.87 157.255 189.943 157.595 190.09ZM161.243 195L161.783 188.26H163.223L164.143 190.71C164.303 191.123 164.453 191.537 164.593 191.95C164.733 192.357 164.833 192.66 164.893 192.86L164.983 193.17C165.19 192.477 165.476 191.657 165.843 190.71L166.783 188.26H168.223L168.883 195H167.623L167.383 192.37L167.203 190.01C166.963 190.697 166.676 191.483 166.343 192.37L165.403 194.9H164.543L163.623 192.37L162.833 190.04C162.833 190.367 162.79 191.143 162.703 192.37L162.503 195H161.243ZM173.252 189.93H174.462V195H173.252V194.17C172.985 194.757 172.465 195.05 171.692 195.05C171.179 195.05 170.779 194.903 170.492 194.61C170.205 194.317 170.062 193.9 170.062 193.36V189.93H171.262V193.08C171.262 193.4 171.339 193.643 171.492 193.81C171.652 193.977 171.869 194.06 172.142 194.06C172.489 194.06 172.759 193.943 172.952 193.71C173.152 193.477 173.252 193.123 173.252 192.65V189.93ZM177.946 194.04C178.306 194.04 178.606 193.903 178.846 193.63C179.086 193.35 179.206 192.947 179.206 192.42C179.206 191.907 179.08 191.523 178.826 191.27C178.573 191.01 178.283 190.88 177.956 190.88C177.61 190.88 177.316 191.023 177.076 191.31C176.843 191.59 176.726 191.983 176.726 192.49C176.726 192.95 176.843 193.323 177.076 193.61C177.31 193.897 177.6 194.04 177.946 194.04ZM179.206 187.93H180.406V195H179.206V194.21C178.86 194.783 178.346 195.07 177.666 195.07C177 195.07 176.47 194.817 176.076 194.31C175.69 193.803 175.496 193.19 175.496 192.47C175.496 191.67 175.7 191.037 176.106 190.57C176.52 190.097 177.046 189.86 177.686 189.86C178.346 189.86 178.853 190.143 179.206 190.71V187.93ZM184.294 192.82H183.674C183.36 192.82 183.12 192.887 182.954 193.02C182.787 193.147 182.704 193.31 182.704 193.51C182.704 193.937 182.95 194.15 183.444 194.15C183.71 194.15 183.917 194.073 184.064 193.92C184.217 193.76 184.294 193.553 184.294 193.3V192.82ZM181.834 191.3V190.19C182.214 189.957 182.76 189.84 183.474 189.84C184.847 189.84 185.534 190.48 185.534 191.76V195H184.344V194.39C184.11 194.823 183.67 195.04 183.024 195.04C182.544 195.04 182.16 194.9 181.874 194.62C181.594 194.34 181.454 193.987 181.454 193.56C181.454 193.08 181.634 192.703 181.994 192.43C182.354 192.157 182.874 192.02 183.554 192.02H184.294V191.71C184.294 191.43 184.22 191.217 184.074 191.07C183.927 190.923 183.677 190.85 183.324 190.85C182.784 190.85 182.287 191 181.834 191.3Z" fill="#DA011C"/>
<rect x="61.5" y="212.5" width="83" height="25" rx="7.5" fill="white"/>
<rect x="61.5" y="212.5" width="83" height="25" rx="7.5" stroke="#2B2B2B"/>
<path d="M97.3506 221.608L97.3506 222.44L95.9826 222.44L95.9826 227L94.9666 227L94.9666 222.44L93.5986 222.44L93.5986 221.608L97.3506 221.608ZM98.1069 227L98.1069 222.944L99.0669 222.944L99.0669 227L98.1069 227ZM98.0109 221.728C98.0109 221.568 98.0669 221.432 98.1789 221.32C98.2909 221.208 98.4269 221.152 98.5869 221.152C98.7469 221.152 98.8829 221.208 98.9949 221.32C99.1069 221.432 99.1629 221.568 99.1629 221.728C99.1629 221.893 99.1069 222.032 98.9949 222.144C98.8829 222.256 98.7469 222.312 98.5869 222.312C98.4269 222.312 98.2909 222.256 98.1789 222.144C98.0669 222.032 98.0109 221.893 98.0109 221.728ZM101.889 226.232C102.177 226.232 102.417 226.123 102.609 225.904C102.801 225.68 102.897 225.357 102.897 224.936C102.897 224.525 102.796 224.219 102.593 224.016C102.39 223.808 102.158 223.704 101.897 223.704C101.62 223.704 101.385 223.819 101.193 224.048C101.006 224.272 100.913 224.587 100.913 224.992C100.913 225.36 101.006 225.659 101.193 225.888C101.38 226.117 101.612 226.232 101.889 226.232ZM102.897 221.344L103.857 221.344L103.857 227L102.897 227L102.897 226.368C102.62 226.827 102.209 227.056 101.665 227.056C101.132 227.056 100.708 226.853 100.393 226.448C100.084 226.043 99.929 225.552 99.929 224.976C99.929 224.336 100.092 223.829 100.417 223.456C100.748 223.077 101.169 222.888 101.681 222.888C102.209 222.888 102.614 223.115 102.897 223.568L102.897 221.344ZM106.967 225.256L106.471 225.256C106.22 225.256 106.028 225.309 105.895 225.416C105.762 225.517 105.695 225.648 105.695 225.808C105.695 226.149 105.892 226.32 106.287 226.32C106.5 226.32 106.666 226.259 106.783 226.136C106.906 226.008 106.967 225.843 106.967 225.64L106.967 225.256ZM104.999 224.04L104.999 223.152C105.303 222.965 105.74 222.872 106.311 222.872C107.41 222.872 107.959 223.384 107.959 224.408L107.959 227L107.007 227L107.007 226.512C106.82 226.859 106.468 227.032 105.951 227.032C105.567 227.032 105.26 226.92 105.031 226.696C104.807 226.472 104.695 226.189 104.695 225.848C104.695 225.464 104.839 225.163 105.127 224.944C105.415 224.725 105.831 224.616 106.375 224.616L106.967 224.616L106.967 224.368C106.967 224.144 106.908 223.973 106.791 223.856C106.674 223.739 106.474 223.68 106.191 223.68C105.759 223.68 105.362 223.8 104.999 224.04ZM112.494 227L111.366 227L109.91 224.904L109.91 227L108.95 227L108.95 221.44L109.91 221.44L109.91 224.848L111.342 222.944L112.462 222.944L110.974 224.88L112.494 227Z" fill="#2B2B2B"/>
<g filter="url(#filter1_d_1124_4113)">
<rect x="157" y="212" width="84" height="26" rx="8" fill="#FF1934" shape-rendering="crispEdges"/>
<path d="M199.325 221.608L197.469 225L197.469 227L196.461 227L196.461 225.032L194.621 221.608L195.797 221.608L196.157 222.392C196.365 222.845 196.535 223.227 196.669 223.536C196.802 223.84 196.882 224.029 196.909 224.104L196.957 224.224C197.005 224.027 197.279 223.416 197.781 222.392L198.149 221.608L199.325 221.608ZM202.061 225.256L201.565 225.256C201.314 225.256 201.122 225.309 200.989 225.416C200.855 225.517 200.789 225.648 200.789 225.808C200.789 226.149 200.986 226.32 201.381 226.32C201.594 226.32 201.759 226.259 201.877 226.136C201.999 226.008 202.061 225.843 202.061 225.64L202.061 225.256ZM200.093 224.04L200.093 223.152C200.397 222.965 200.834 222.872 201.405 222.872C202.503 222.872 203.053 223.384 203.053 224.408L203.053 227L202.101 227L202.101 226.512C201.914 226.859 201.562 227.032 201.045 227.032C200.661 227.032 200.354 226.92 200.125 226.696C199.901 226.472 199.789 226.189 199.789 225.848C199.789 225.464 199.933 225.163 200.221 224.944C200.509 224.725 200.925 224.616 201.469 224.616L202.061 224.616L202.061 224.368C202.061 224.144 202.002 223.973 201.885 223.856C201.767 223.739 201.567 223.68 201.285 223.68C200.853 223.68 200.455 223.8 200.093 224.04Z" fill="white"/>
</g>
<defs>
<filter id="filter0_d_1124_4113" x="-4" y="-2" width="310" height="56" filterUnits="userSpaceOnUse" color-interpolation-filters="sRGB">
<feFlood flood-opacity="0" result="BackgroundImageFix"/>
<feColorMatrix in="SourceAlpha" type="matrix" values="0 0 0 0 0 0 0 0 0 0 0 0 0 0 0 0 0 0 127 0" result="hardAlpha"/>
<feOffset dy="2"/>
<feGaussianBlur stdDeviation="2"/>
<feComposite in2="hardAlpha" operator="out"/>
<feColorMatrix type="matrix" values="0 0 0 0 0.168627 0 0 0 0 0.168627 0 0 0 0 0.168627 0 0 0 0.24 0"/>
<feBlend mode="normal" in2="BackgroundImageFix" result="effect1_dropShadow_1124_4113"/>
<feBlend mode="normal" in="SourceGraphic" in2="effect1_dropShadow_1124_4113" result="shape"/>
</filter>
<filter id="filter1_d_1124_4113" x="151" y="206" width="100" height="42" filterUnits="userSpaceOnUse" color-interpolation-filters="sRGB">
<feFlood flood-opacity="0" result="BackgroundImageFix"/>
<feColorMatrix in="SourceAlpha" type="matrix" values="0 0 0 0 0 0 0 0 0 0 0 0 0 0 0 0 0 0 127 0" result="hardAlpha"/>
<feOffset dx="2" dy="2"/>
<feGaussianBlur stdDeviation="4"/>
<feComposite in2="hardAlpha" operator="out"/>
<feColorMatrix type="matrix" values="0 0 0 0 0 0 0 0 0 0 0 0 0 0 0 0 0 0 0.12 0"/>
<feBlend mode="normal" in2="BackgroundImageFix" result="effect1_dropShadow_1124_4113"/>
<feBlend mode="normal" in="SourceGraphic" in2="effect1_dropShadow_1124_4113" result="shape"/>
</filter>
<clipPath id="clip0_1124_4113">
<rect width="24" height="24" fill="white" transform="translate(16 16)"/>
</clipPath>
<clipPath id="clip1_1124_4113">
<rect width="64" height="64" fill="white" transform="translate(119 72)"/>
</clipPath>
</defs>
</svg>
