<svg width="216" height="248" viewBox="0 0 216 248" fill="none" xmlns="http://www.w3.org/2000/svg">
<rect width="216" height="248" fill="#D3D3D3"/>
<rect width="216" height="248" rx="16" fill="white"/>
<g filter="url(#filter0_d_1124_4113)">
<path d="M0 16C0 7.16344 7.16344 0 16 0H200C208.837 0 216 7.16344 216 16V48H0V16Z" fill="#FF1934" shape-rendering="crispEdges"/>
<g clip-path="url(#clip0_1124_4113)">
<path d="M37.6905 31.57C37.1305 31.13 36.5205 30.77 35.8805 30.5C35.7305 30.43 35.6705 30.31 35.6505 30.21C35.6105 30.06 35.6505 29.89 35.7505 29.77C36.6305 28.72 37.1505 27.33 37.1505 26.06C37.1505 23.54 35.1005 21.49 32.5805 21.49C32.3505 21.49 32.1105 21.52 31.8705 21.56C30.8605 20.59 29.5005 20 28.0005 20C26.5005 20 25.1405 20.6 24.1305 21.56C23.8805 21.52 23.6505 21.49 23.4205 21.49C20.9005 21.49 18.8505 23.54 18.8505 26.06C18.8505 27.33 19.3705 28.72 20.2505 29.77C20.3505 29.89 20.3905 30.06 20.3505 30.21C20.3305 30.3 20.2705 30.43 20.1205 30.49C19.4805 30.76 18.8805 31.12 18.3105 31.56C17.9605 31.83 17.9005 32.33 18.1705 32.68C18.3305 32.88 18.5605 32.99 18.8005 32.99C18.9705 32.99 19.1405 32.94 19.2905 32.82C19.7505 32.47 20.2405 32.17 20.7505 31.95C21.3305 31.7 21.7505 31.19 21.9005 30.57C22.0505 29.93 21.9005 29.24 21.4705 28.73C20.8405 27.97 20.4405 26.94 20.4405 26.05C20.4405 24.56 21.5405 23.34 22.9805 23.12C22.6105 23.86 22.4005 24.7 22.4005 25.58C22.4005 27.15 23.0505 28.86 24.1305 30.16C24.3005 30.37 24.3705 30.65 24.3105 30.91C24.2805 31.05 24.1805 31.3 23.8905 31.42C22.2505 32.13 20.8005 33.26 19.7105 34.69C19.4405 35.04 19.5105 35.54 19.8605 35.81C20.0105 35.92 20.1805 35.97 20.3405 35.97C20.5805 35.97 20.8205 35.86 20.9805 35.65C21.9005 34.44 23.1205 33.48 24.5205 32.88C25.2005 32.59 25.6905 32 25.8605 31.27C26.0405 30.52 25.8605 29.72 25.3605 29.12C24.5205 28.11 24.0005 26.75 24.0005 25.56C24.0005 24.54 24.4005 23.62 25.0305 22.91C25.0305 22.91 25.0405 22.9 25.0505 22.89C25.7805 22.08 26.8305 21.56 28.0005 21.56C29.1705 21.56 30.2205 22.08 30.9505 22.88C30.9505 22.88 30.9605 22.9 30.9705 22.91C31.6005 23.62 32.0005 24.54 32.0005 25.56C32.0005 26.75 31.4805 28.11 30.6405 29.12C29.8605 30.05 28.9305 30.56 28.0005 30.56C27.5605 30.56 27.2005 30.92 27.2005 31.36C27.2005 31.8 27.5605 32.16 28.0005 32.16C28.7705 32.16 29.5305 31.94 30.2305 31.53C30.4505 32.13 30.8805 32.62 31.4805 32.87C32.8705 33.47 34.0905 34.43 35.0205 35.64C35.1805 35.85 35.4205 35.96 35.6605 35.96C35.8305 35.96 36.0005 35.91 36.1405 35.8C36.4905 35.53 36.5605 35.03 36.2905 34.68C35.2005 33.25 33.7605 32.12 32.1205 31.41C31.8305 31.29 31.7305 31.03 31.7005 30.9C31.6405 30.64 31.7005 30.36 31.8805 30.15C32.9605 28.85 33.6105 27.14 33.6105 25.57C33.6105 24.68 33.4005 23.85 33.0305 23.11C34.4605 23.32 35.5705 24.55 35.5705 26.04C35.5705 26.94 35.1805 27.96 34.5405 28.72C34.1205 29.23 33.9605 29.91 34.1105 30.56C34.2605 31.19 34.6805 31.69 35.2705 31.94C35.7805 32.16 36.2705 32.45 36.7305 32.81C36.8805 32.92 37.0505 32.98 37.2205 32.98C37.4605 32.98 37.7005 32.87 37.8505 32.67C38.1205 32.32 38.0605 31.82 37.7105 31.55L37.6905 31.57Z" fill="white"/>
</g>
<path d="M54.356 28.36V22.564H56.512V28.346C56.512 29.578 56.1667 30.5207 55.476 31.174C54.7853 31.818 53.852 32.14 52.676 32.14C51.5187 32.14 50.59 31.818 49.89 31.174C49.19 30.53 48.84 29.62 48.84 28.444V22.564H50.996V28.43C50.996 29.5967 51.556 30.18 52.676 30.18C53.796 30.18 54.356 29.5733 54.356 28.36ZM60.2356 24.902V26.106C60.4129 25.714 60.6836 25.406 61.0476 25.182C61.4209 24.9487 61.8642 24.832 62.3776 24.832C63.1056 24.832 63.6749 25.0513 64.0856 25.49C64.4962 25.9193 64.7016 26.554 64.7016 27.394V32H62.6576V27.772C62.6576 27.352 62.5596 27.0347 62.3636 26.82C62.1676 26.596 61.8922 26.484 61.5376 26.484C61.1642 26.484 60.8516 26.6333 60.5996 26.932C60.3569 27.2213 60.2356 27.66 60.2356 28.248V32H58.1916V24.902H60.2356ZM69.5747 30.376C70.0413 30.376 70.4193 30.194 70.7087 29.83C70.998 29.466 71.1427 28.9807 71.1427 28.374C71.1427 27.786 70.984 27.3287 70.6667 27.002C70.3587 26.6753 69.99 26.512 69.5607 26.512C69.1313 26.512 68.7673 26.6847 68.4687 27.03C68.1793 27.3753 68.0347 27.856 68.0347 28.472C68.0347 29.0413 68.184 29.5033 68.4827 29.858C68.7813 30.2033 69.1453 30.376 69.5747 30.376ZM71.1427 22.102H73.1867V32H71.1427V30.894C70.6667 31.6873 69.9573 32.084 69.0147 32.084C68.0907 32.084 67.3487 31.7247 66.7887 31.006C66.238 30.2873 65.9627 29.4287 65.9627 28.43C65.9627 27.31 66.252 26.428 66.8307 25.784C67.4093 25.14 68.142 24.818 69.0287 24.818C69.9527 24.818 70.6573 25.21 71.1427 25.994V22.102ZM78.3853 29.088H77.7272C77.3819 29.088 77.1159 29.1627 76.9293 29.312C76.7426 29.4613 76.6493 29.6527 76.6493 29.886C76.6493 30.362 76.9246 30.6 77.4753 30.6C77.7646 30.6 77.9886 30.5113 78.1472 30.334C78.3059 30.1567 78.3853 29.914 78.3853 29.606V29.088ZM75.0673 27.086V25.252C75.6273 24.9347 76.4346 24.776 77.4893 24.776C78.4973 24.776 79.2486 24.9953 79.7433 25.434C80.2379 25.8633 80.4853 26.5353 80.4853 27.45V32H78.4833V31.132C78.1846 31.7387 77.5966 32.042 76.7193 32.042C76.0286 32.042 75.4873 31.846 75.0953 31.454C74.7126 31.062 74.5213 30.572 74.5213 29.984C74.5213 29.3027 74.7686 28.7753 75.2633 28.402C75.7673 28.0193 76.5093 27.828 77.4893 27.828H78.3853V27.338C78.3853 26.7407 77.9886 26.442 77.1953 26.442C76.4299 26.442 75.7206 26.6567 75.0673 27.086ZM84.134 24.902V26.106C84.3113 25.714 84.582 25.406 84.946 25.182C85.3193 24.9487 85.7627 24.832 86.276 24.832C87.004 24.832 87.5733 25.0513 87.984 25.49C88.3947 25.9193 88.6 26.554 88.6 27.394V32H86.556V27.772C86.556 27.352 86.458 27.0347 86.262 26.82C86.066 26.596 85.7907 26.484 85.436 26.484C85.0627 26.484 84.75 26.6333 84.498 26.932C84.2553 27.2213 84.134 27.66 84.134 28.248V32H82.09V24.902H84.134ZM93.3611 30.138C93.7998 30.138 94.1404 29.9747 94.3831 29.648C94.6351 29.312 94.7611 28.9107 94.7611 28.444C94.7611 27.1747 94.2991 26.54 93.3751 26.54C92.9644 26.54 92.6424 26.6987 92.4091 27.016C92.1758 27.3333 92.0591 27.772 92.0591 28.332C92.0591 28.92 92.1711 29.368 92.3951 29.676C92.6191 29.984 92.9411 30.138 93.3611 30.138ZM94.7611 24.902H96.7911V31.314C96.7911 32.4527 96.4504 33.3067 95.7691 33.876C95.0878 34.4547 94.2338 34.744 93.2071 34.744C92.2084 34.744 91.3358 34.5667 90.5891 34.212V32.126C91.2424 32.6487 92.0451 32.91 92.9971 32.91C93.6131 32.91 94.0611 32.7793 94.3411 32.518C94.6211 32.2567 94.7611 31.846 94.7611 31.286V30.81C94.3504 31.4447 93.6971 31.762 92.8011 31.762C92.0171 31.762 91.3404 31.4727 90.7711 30.894C90.2111 30.3153 89.9311 29.4567 89.9311 28.318C89.9311 27.31 90.2018 26.4793 90.7431 25.826C91.2938 25.1633 92.0124 24.832 92.8991 24.832C93.7391 24.832 94.3598 25.168 94.7611 25.84V24.902ZM101.915 29.088H101.257C100.911 29.088 100.645 29.1627 100.459 29.312C100.272 29.4613 100.179 29.6527 100.179 29.886C100.179 30.362 100.454 30.6 101.005 30.6C101.294 30.6 101.518 30.5113 101.677 30.334C101.835 30.1567 101.915 29.914 101.915 29.606V29.088ZM98.5965 27.086V25.252C99.1565 24.9347 99.9639 24.776 101.019 24.776C102.027 24.776 102.778 24.9953 103.273 25.434C103.767 25.8633 104.015 26.5353 104.015 27.45V32H102.013V31.132C101.714 31.7387 101.126 32.042 100.249 32.042C99.5579 32.042 99.0165 31.846 98.6245 31.454C98.2419 31.062 98.0505 30.572 98.0505 29.984C98.0505 29.3027 98.2979 28.7753 98.7925 28.402C99.2965 28.0193 100.039 27.828 101.019 27.828H101.915V27.338C101.915 26.7407 101.518 26.442 100.725 26.442C99.9592 26.442 99.2499 26.6567 98.5965 27.086ZM107.663 24.902V26.106C107.841 25.714 108.111 25.406 108.475 25.182C108.849 24.9487 109.292 24.832 109.805 24.832C110.533 24.832 111.103 25.0513 111.513 25.49C111.924 25.9193 112.129 26.554 112.129 27.394V32H110.085V27.772C110.085 27.352 109.987 27.0347 109.791 26.82C109.595 26.596 109.32 26.484 108.965 26.484C108.592 26.484 108.279 26.6333 108.027 26.932C107.785 27.2213 107.663 27.66 107.663 28.248V32H105.619V24.902H107.663Z" fill="white"/>
</g>
<g clip-path="url(#clip1_1124_4113)">
<path d="M121.817 95.2C120 92.8167 117.6 90.9333 114.867 89.75C114.384 89.55 114.217 89.1167 114.167 88.9C114.067 88.4667 114.167 88 114.467 87.65C116.267 85.4833 117.35 82.6333 117.35 80.0167C117.35 74.8667 113.167 70.6833 108.017 70.6833C102.867 70.6833 98.6837 74.8667 98.6837 80.0167C98.6837 82.6333 99.7671 85.4833 101.567 87.65C101.85 88 101.967 88.4667 101.867 88.9C101.817 89.1333 101.65 89.55 101.167 89.75C98.4337 90.9333 96.0171 92.8167 94.2004 95.2C93.7504 95.7833 93.8671 96.6167 94.4504 97.0667C94.7004 97.25 94.9837 97.3333 95.2504 97.3333C95.6504 97.3333 96.0504 97.15 96.3171 96.8C97.8504 94.7833 99.8837 93.1833 102.217 92.1833C103.35 91.7 104.167 90.7167 104.45 89.5C104.75 88.25 104.45 86.9167 103.617 85.9167C102.217 84.2333 101.35 81.9667 101.35 79.9833C101.35 76.3 104.334 73.3167 108.017 73.3167C111.7 73.3167 114.684 76.3 114.684 79.9833C114.684 81.9667 113.817 84.2333 112.417 85.9167C111.117 87.4667 109.567 88.3167 108.017 88.3167C107.284 88.3167 106.684 88.9167 106.684 89.65C106.684 90.3833 107.284 90.9833 108.017 90.9833C109.3 90.9833 110.567 90.6167 111.734 89.9333C112.1 90.9333 112.817 91.75 113.817 92.1667C116.134 93.1667 118.167 94.7667 119.717 96.7833C119.984 97.1333 120.384 97.3167 120.784 97.3167C121.067 97.3167 121.35 97.2333 121.584 97.05C122.167 96.6 122.284 95.7667 121.834 95.1833L121.817 95.2Z" fill="#2B2B2B"/>
</g>
<path d="M64.2349 118.29H65.4449C66.2783 118.29 66.9083 118.033 67.3349 117.52C67.7616 117 67.9749 116.353 67.9749 115.58C67.9749 114.847 67.7349 114.23 67.2549 113.73C66.7816 113.23 66.1649 112.98 65.4049 112.98H64.2349V118.29ZM63.4149 112.26H65.4149C66.4083 112.26 67.2216 112.57 67.8549 113.19C68.4949 113.803 68.8149 114.6 68.8149 115.58C68.8149 116.553 68.5183 117.367 67.9249 118.02C67.3383 118.673 66.5149 119 65.4549 119H63.4149V112.26ZM73.1062 116.14V115.94C73.1062 115.52 72.9929 115.187 72.7662 114.94C72.5396 114.687 72.2262 114.56 71.8262 114.56C71.4462 114.56 71.1229 114.697 70.8562 114.97C70.5896 115.243 70.4329 115.633 70.3862 116.14H73.1062ZM73.5762 118V118.74C73.1829 118.947 72.7029 119.05 72.1362 119.05C71.3696 119.05 70.7496 118.817 70.2762 118.35C69.8096 117.877 69.5762 117.253 69.5762 116.48C69.5762 115.673 69.7862 115.037 70.2062 114.57C70.6262 114.103 71.1662 113.87 71.8262 113.87C72.4596 113.87 72.9629 114.073 73.3362 114.48C73.7096 114.887 73.8962 115.463 73.8962 116.21C73.8962 116.423 73.8796 116.62 73.8462 116.8H70.3862C70.4462 117.3 70.6362 117.683 70.9562 117.95C71.2762 118.217 71.6962 118.35 72.2162 118.35C72.7829 118.35 73.2362 118.233 73.5762 118ZM77.7509 114.1V114.85C77.4442 114.663 77.0242 114.57 76.4909 114.57C76.2242 114.57 76.0109 114.633 75.8509 114.76C75.6975 114.88 75.6209 115.037 75.6209 115.23C75.6209 115.35 75.6442 115.457 75.6909 115.55C75.7375 115.637 75.8275 115.723 75.9609 115.81C76.1009 115.897 76.2009 115.957 76.2609 115.99C76.3275 116.017 76.4675 116.077 76.6809 116.17C77.1075 116.343 77.4409 116.54 77.6809 116.76C77.9209 116.98 78.0409 117.277 78.0409 117.65C78.0409 118.083 77.8875 118.427 77.5809 118.68C77.2809 118.933 76.8675 119.06 76.3409 119.06C75.7275 119.06 75.2309 118.957 74.8509 118.75V117.98C75.2975 118.247 75.7775 118.38 76.2909 118.38C76.5975 118.38 76.8309 118.32 76.9909 118.2C77.1509 118.08 77.2309 117.917 77.2309 117.71C77.2309 117.47 77.1409 117.283 76.9609 117.15C76.7875 117.017 76.4942 116.867 76.0809 116.7C75.7009 116.553 75.3942 116.37 75.1609 116.15C74.9342 115.93 74.8209 115.633 74.8209 115.26C74.8209 114.84 74.9775 114.507 75.2909 114.26C75.6109 114.007 76.0075 113.88 76.4809 113.88C77.0075 113.88 77.4309 113.953 77.7509 114.1ZM79.042 119V113.93H79.832V119H79.042ZM79.062 112.71C78.9686 112.61 78.922 112.487 78.922 112.34C78.922 112.193 78.9686 112.07 79.062 111.97C79.162 111.87 79.2853 111.82 79.432 111.82C79.5786 111.82 79.702 111.87 79.802 111.97C79.902 112.07 79.952 112.193 79.952 112.34C79.952 112.487 79.902 112.61 79.802 112.71C79.702 112.803 79.5786 112.85 79.432 112.85C79.2853 112.85 79.162 112.803 79.062 112.71ZM82.3159 114.57V117.54C82.3159 118.08 82.5693 118.35 83.0759 118.35C83.3359 118.35 83.5659 118.273 83.7659 118.12V118.87C83.5459 118.99 83.2993 119.05 83.0259 119.05C82.0259 119.05 81.5259 118.54 81.5259 117.52V114.57H80.7159V113.93H81.5259V112.67H82.3159V113.93H83.7159V114.57H82.3159ZM87.5373 116.66H86.6573C86.2307 116.66 85.9107 116.743 85.6973 116.91C85.484 117.077 85.3773 117.287 85.3773 117.54C85.3773 117.793 85.4607 118 85.6273 118.16C85.794 118.313 86.0373 118.39 86.3573 118.39C86.7173 118.39 87.004 118.29 87.2173 118.09C87.4307 117.883 87.5373 117.623 87.5373 117.31V116.66ZM84.9173 114.99V114.2C85.2973 113.967 85.7973 113.85 86.4173 113.85C87.6907 113.85 88.3273 114.497 88.3273 115.79V119H87.5473V118.4C87.2873 118.833 86.814 119.05 86.1273 119.05C85.654 119.05 85.2707 118.91 84.9773 118.63C84.6907 118.35 84.5473 117.997 84.5473 117.57C84.5473 117.083 84.7307 116.707 85.0973 116.44C85.4707 116.167 85.9773 116.03 86.6173 116.03H87.5373V115.77C87.5373 115.37 87.4473 115.07 87.2673 114.87C87.0873 114.663 86.784 114.56 86.3573 114.56C85.8173 114.56 85.3373 114.703 84.9173 114.99ZM91.9906 119V112.26H93.0106L94.7006 115.1L96.4106 118.02C96.384 117.373 96.3706 116.403 96.3706 115.11V112.26H97.1806V119H96.1606L94.4706 116.18C94.1306 115.613 93.8173 115.087 93.5306 114.6C93.244 114.107 93.0406 113.753 92.9206 113.54L92.7506 113.23C92.784 113.923 92.8006 114.9 92.8006 116.16V119H91.9906ZM101.719 113.93H102.509V119H101.719V118.12C101.452 118.747 100.922 119.06 100.129 119.06C99.6291 119.06 99.2325 118.913 98.9391 118.62C98.6525 118.32 98.5091 117.92 98.5091 117.42V113.93H99.2991V117.22C99.2991 117.587 99.3925 117.867 99.5791 118.06C99.7658 118.253 100.019 118.35 100.339 118.35C100.759 118.35 101.092 118.203 101.339 117.91C101.592 117.617 101.719 117.22 101.719 116.72V113.93ZM104.64 113.93V114.82C104.906 114.193 105.366 113.88 106.02 113.88C106.14 113.88 106.233 113.887 106.3 113.9V114.68C106.16 114.633 106.016 114.61 105.87 114.61C105.516 114.61 105.223 114.773 104.99 115.1C104.756 115.427 104.64 115.803 104.64 116.23V119H103.85L103.86 113.93H104.64ZM110.193 112.96V115.65H111.213C111.673 115.65 112.023 115.527 112.263 115.28C112.509 115.027 112.633 114.703 112.633 114.31C112.633 113.41 112.129 112.96 111.123 112.96H110.193ZM113.863 119H112.893L111.243 116.34H111.163H110.193V119H109.383V112.26H111.073C111.853 112.26 112.443 112.443 112.843 112.81C113.249 113.177 113.453 113.683 113.453 114.33C113.439 114.797 113.316 115.193 113.083 115.52C112.849 115.847 112.519 116.077 112.093 116.21L113.863 119ZM116.771 119.09C116.045 119.09 115.468 118.847 115.041 118.36C114.621 117.867 114.411 117.247 114.411 116.5C114.411 115.747 114.628 115.12 115.061 114.62C115.501 114.113 116.071 113.86 116.771 113.86C117.538 113.86 118.128 114.107 118.541 114.6C118.961 115.093 119.171 115.72 119.171 116.48C119.171 117.233 118.958 117.857 118.531 118.35C118.105 118.843 117.518 119.09 116.771 119.09ZM116.771 114.56C116.291 114.56 115.915 114.747 115.641 115.12C115.368 115.493 115.231 115.95 115.231 116.49C115.231 117.017 115.371 117.467 115.651 117.84C115.931 118.207 116.305 118.39 116.771 118.39C117.278 118.39 117.668 118.21 117.941 117.85C118.215 117.483 118.351 117.03 118.351 116.49C118.351 115.93 118.221 115.47 117.961 115.11C117.701 114.743 117.305 114.56 116.771 114.56ZM122.976 114.1V114.85C122.67 114.663 122.25 114.57 121.716 114.57C121.45 114.57 121.236 114.633 121.076 114.76C120.923 114.88 120.846 115.037 120.846 115.23C120.846 115.35 120.87 115.457 120.916 115.55C120.963 115.637 121.053 115.723 121.186 115.81C121.326 115.897 121.426 115.957 121.486 115.99C121.553 116.017 121.693 116.077 121.906 116.17C122.333 116.343 122.666 116.54 122.906 116.76C123.146 116.98 123.266 117.277 123.266 117.65C123.266 118.083 123.113 118.427 122.806 118.68C122.506 118.933 122.093 119.06 121.566 119.06C120.953 119.06 120.456 118.957 120.076 118.75V117.98C120.523 118.247 121.003 118.38 121.516 118.38C121.823 118.38 122.056 118.32 122.216 118.2C122.376 118.08 122.456 117.917 122.456 117.71C122.456 117.47 122.366 117.283 122.186 117.15C122.013 117.017 121.72 116.867 121.306 116.7C120.926 116.553 120.62 116.37 120.386 116.15C120.16 115.93 120.046 115.633 120.046 115.26C120.046 114.84 120.203 114.507 120.516 114.26C120.836 114.007 121.233 113.88 121.706 113.88C122.233 113.88 122.656 113.953 122.976 114.1ZM125.627 118.87L123.577 113.93H124.467L125.127 115.6L126.017 117.9C126.071 117.727 126.337 116.96 126.817 115.6L127.407 113.93H128.257L126.427 118.87C126.167 119.557 125.857 120.04 125.497 120.32C125.144 120.6 124.737 120.74 124.277 120.74C124.104 120.74 123.964 120.723 123.857 120.69V119.98C123.957 120.007 124.071 120.02 124.197 120.02C124.871 120.02 125.347 119.637 125.627 118.87ZM129.089 119V113.93H129.879V119H129.089ZM129.109 112.71C129.016 112.61 128.969 112.487 128.969 112.34C128.969 112.193 129.016 112.07 129.109 111.97C129.209 111.87 129.332 111.82 129.479 111.82C129.626 111.82 129.749 111.87 129.849 111.97C129.949 112.07 129.999 112.193 129.999 112.34C129.999 112.487 129.949 112.61 129.849 112.71C129.749 112.803 129.626 112.85 129.479 112.85C129.332 112.85 129.209 112.803 129.109 112.71ZM133.203 118.36C133.616 118.36 133.966 118.207 134.253 117.9C134.546 117.593 134.693 117.103 134.693 116.43C134.693 115.79 134.543 115.32 134.243 115.02C133.943 114.72 133.613 114.57 133.253 114.57C132.833 114.57 132.483 114.74 132.203 115.08C131.93 115.413 131.793 115.893 131.793 116.52C131.793 117.067 131.926 117.51 132.193 117.85C132.46 118.19 132.796 118.36 133.203 118.36ZM134.693 111.93H135.483V119H134.693V118.25C134.333 118.803 133.813 119.08 133.133 119.08C132.46 119.08 131.93 118.83 131.543 118.33C131.163 117.83 130.973 117.223 130.973 116.51C130.973 115.717 131.176 115.077 131.583 114.59C131.99 114.097 132.513 113.85 133.153 113.85C133.813 113.85 134.326 114.133 134.693 114.7V111.93ZM136.877 119V113.93H137.667V119H136.877ZM136.897 112.71C136.804 112.61 136.757 112.487 136.757 112.34C136.757 112.193 136.804 112.07 136.897 111.97C136.997 111.87 137.12 111.82 137.267 111.82C137.414 111.82 137.537 111.87 137.637 111.97C137.737 112.07 137.787 112.193 137.787 112.34C137.787 112.487 137.737 112.61 137.637 112.71C137.537 112.803 137.414 112.85 137.267 112.85C137.12 112.85 136.997 112.803 136.897 112.71ZM141.791 116.66H140.911C140.484 116.66 140.164 116.743 139.951 116.91C139.738 117.077 139.631 117.287 139.631 117.54C139.631 117.793 139.714 118 139.881 118.16C140.048 118.313 140.291 118.39 140.611 118.39C140.971 118.39 141.258 118.29 141.471 118.09C141.684 117.883 141.791 117.623 141.791 117.31V116.66ZM139.171 114.99V114.2C139.551 113.967 140.051 113.85 140.671 113.85C141.944 113.85 142.581 114.497 142.581 115.79V119H141.801V118.4C141.541 118.833 141.068 119.05 140.381 119.05C139.908 119.05 139.524 118.91 139.231 118.63C138.944 118.35 138.801 117.997 138.801 117.57C138.801 117.083 138.984 116.707 139.351 116.44C139.724 116.167 140.231 116.03 140.871 116.03H141.791V115.77C141.791 115.37 141.701 115.07 141.521 114.87C141.341 114.663 141.038 114.56 140.611 114.56C140.071 114.56 139.591 114.703 139.171 114.99ZM144.653 113.93V114.81C144.953 114.177 145.486 113.86 146.253 113.86C146.746 113.86 147.139 114.01 147.433 114.31C147.726 114.61 147.873 115.01 147.873 115.51V119H147.083V115.72C147.083 115.347 146.986 115.063 146.793 114.87C146.606 114.67 146.359 114.57 146.053 114.57C145.673 114.57 145.343 114.717 145.063 115.01C144.789 115.303 144.653 115.71 144.653 116.23V119H143.873V113.93H144.653ZM151.893 116.66H151.013C150.587 116.66 150.267 116.743 150.053 116.91C149.84 117.077 149.733 117.287 149.733 117.54C149.733 117.793 149.817 118 149.983 118.16C150.15 118.313 150.393 118.39 150.713 118.39C151.073 118.39 151.36 118.29 151.573 118.09C151.787 117.883 151.893 117.623 151.893 117.31V116.66ZM149.273 114.99V114.2C149.653 113.967 150.153 113.85 150.773 113.85C152.047 113.85 152.683 114.497 152.683 115.79V119H151.903V118.4C151.643 118.833 151.17 119.05 150.483 119.05C150.01 119.05 149.627 118.91 149.333 118.63C149.047 118.35 148.903 117.997 148.903 117.57C148.903 117.083 149.087 116.707 149.453 116.44C149.827 116.167 150.333 116.03 150.973 116.03H151.893V115.77C151.893 115.37 151.803 115.07 151.623 114.87C151.443 114.663 151.14 114.56 150.713 114.56C150.173 114.56 149.693 114.703 149.273 114.99Z" fill="#2B2B2B"/>
<path d="M29.6668 143L30.1568 136.26H31.1868L32.0768 138.72L33.1568 141.86C33.5435 140.767 33.9235 139.72 34.2968 138.72L35.2268 136.26H36.2568L36.8468 143H36.0368L35.8068 140.34L35.5668 137.35C35.2135 138.337 34.8501 139.333 34.4768 140.34L33.5368 142.85H32.7668L31.8768 140.34L30.8568 137.41C30.8568 137.67 30.7935 138.647 30.6668 140.34L30.4768 143H29.6668ZM41.501 140.14V139.94C41.501 139.52 41.3877 139.187 41.161 138.94C40.9343 138.687 40.621 138.56 40.221 138.56C39.841 138.56 39.5177 138.697 39.251 138.97C38.9843 139.243 38.8277 139.633 38.781 140.14H41.501ZM41.971 142V142.74C41.5777 142.947 41.0977 143.05 40.531 143.05C39.7643 143.05 39.1443 142.817 38.671 142.35C38.2043 141.877 37.971 141.253 37.971 140.48C37.971 139.673 38.181 139.037 38.601 138.57C39.021 138.103 39.561 137.87 40.221 137.87C40.8543 137.87 41.3577 138.073 41.731 138.48C42.1043 138.887 42.291 139.463 42.291 140.21C42.291 140.423 42.2743 140.62 42.241 140.8H38.781C38.841 141.3 39.031 141.683 39.351 141.95C39.671 142.217 40.091 142.35 40.611 142.35C41.1777 142.35 41.631 142.233 41.971 142ZM44.2756 137.93V138.81C44.5756 138.177 45.109 137.86 45.8756 137.86C46.369 137.86 46.7623 138.01 47.0556 138.31C47.349 138.61 47.4956 139.01 47.4956 139.51V143H46.7056V139.72C46.7056 139.347 46.609 139.063 46.4156 138.87C46.229 138.67 45.9823 138.57 45.6756 138.57C45.2956 138.57 44.9656 138.717 44.6856 139.01C44.4123 139.303 44.2756 139.71 44.2756 140.23V143H43.4956V137.93H44.2756ZM50.796 142.17C51.1627 142.17 51.486 142.03 51.766 141.75C52.0527 141.463 52.196 141.04 52.196 140.48C52.196 139.833 52.0593 139.353 51.786 139.04C51.5127 138.727 51.196 138.57 50.836 138.57C50.4027 138.57 50.0593 138.743 49.806 139.09C49.5527 139.43 49.426 139.877 49.426 140.43C49.426 140.997 49.566 141.43 49.846 141.73C50.126 142.023 50.4427 142.17 50.796 142.17ZM52.196 137.93H52.986V142.59C52.986 143.363 52.7727 143.943 52.346 144.33C51.9193 144.723 51.3693 144.92 50.696 144.92C50.0827 144.92 49.5593 144.817 49.126 144.61V143.82C49.5527 144.067 50.0527 144.19 50.626 144.19C51.1127 144.19 51.496 144.06 51.776 143.8C52.056 143.54 52.196 143.133 52.196 142.58V142.01C51.8627 142.583 51.366 142.87 50.706 142.87C50.126 142.87 49.6293 142.657 49.216 142.23C48.8093 141.803 48.606 141.21 48.606 140.45C48.606 139.697 48.796 139.077 49.176 138.59C49.556 138.103 50.0527 137.86 50.666 137.86C51.3593 137.86 51.8693 138.163 52.196 138.77V137.93ZM57.5343 137.93H58.3243V143H57.5343V142.12C57.2676 142.747 56.7376 143.06 55.9443 143.06C55.4443 143.06 55.0476 142.913 54.7543 142.62C54.4676 142.32 54.3243 141.92 54.3243 141.42V137.93H55.1143V141.22C55.1143 141.587 55.2076 141.867 55.3943 142.06C55.581 142.253 55.8343 142.35 56.1543 142.35C56.5743 142.35 56.9076 142.203 57.1543 141.91C57.4076 141.617 57.5343 141.22 57.5343 140.72V137.93ZM60.5647 137.93V138.81C60.8647 138.177 61.398 137.86 62.1647 137.86C62.658 137.86 63.0514 138.01 63.3447 138.31C63.638 138.61 63.7847 139.01 63.7847 139.51V143H62.9947V139.72C62.9947 139.347 62.898 139.063 62.7047 138.87C62.518 138.67 62.2714 138.57 61.9647 138.57C61.5847 138.57 61.2547 138.717 60.9747 139.01C60.7014 139.303 60.5647 139.71 60.5647 140.23V143H59.7847V137.93H60.5647ZM67.1151 142.36C67.5284 142.36 67.8784 142.207 68.1651 141.9C68.4584 141.593 68.6051 141.103 68.6051 140.43C68.6051 139.79 68.4551 139.32 68.1551 139.02C67.8551 138.72 67.5251 138.57 67.1651 138.57C66.7451 138.57 66.3951 138.74 66.1151 139.08C65.8417 139.413 65.7051 139.893 65.7051 140.52C65.7051 141.067 65.8384 141.51 66.1051 141.85C66.3717 142.19 66.7084 142.36 67.1151 142.36ZM68.6051 135.93H69.3951V143H68.6051V142.25C68.2451 142.803 67.7251 143.08 67.0451 143.08C66.3717 143.08 65.8417 142.83 65.4551 142.33C65.0751 141.83 64.8851 141.223 64.8851 140.51C64.8851 139.717 65.0884 139.077 65.4951 138.59C65.9017 138.097 66.4251 137.85 67.0651 137.85C67.7251 137.85 68.2384 138.133 68.6051 138.7V135.93ZM73.5889 140.66H72.7089C72.2822 140.66 71.9622 140.743 71.7489 140.91C71.5356 141.077 71.4289 141.287 71.4289 141.54C71.4289 141.793 71.5122 142 71.6789 142.16C71.8456 142.313 72.0889 142.39 72.4089 142.39C72.7689 142.39 73.0556 142.29 73.2689 142.09C73.4822 141.883 73.5889 141.623 73.5889 141.31V140.66ZM70.9689 138.99V138.2C71.3489 137.967 71.8489 137.85 72.4689 137.85C73.7422 137.85 74.3789 138.497 74.3789 139.79V143H73.5989V142.4C73.3389 142.833 72.8656 143.05 72.1789 143.05C71.7056 143.05 71.3222 142.91 71.0289 142.63C70.7422 142.35 70.5989 141.997 70.5989 141.57C70.5989 141.083 70.7822 140.707 71.1489 140.44C71.5222 140.167 72.0289 140.03 72.6689 140.03H73.5889V139.77C73.5889 139.37 73.4989 139.07 73.3189 138.87C73.1389 138.663 72.8356 138.56 72.4089 138.56C71.8689 138.56 71.3889 138.703 70.9689 138.99ZM76.5608 137.93V138.81C76.8608 138.177 77.3941 137.86 78.1608 137.86C78.6541 137.86 79.0474 138.01 79.3408 138.31C79.6341 138.61 79.7808 139.01 79.7808 139.51V143H78.9908V139.72C78.9908 139.347 78.8941 139.063 78.7008 138.87C78.5141 138.67 78.2674 138.57 77.9608 138.57C77.5808 138.57 77.2508 138.717 76.9708 139.01C76.6974 139.303 76.5608 139.71 76.5608 140.23V143H75.7808V137.93H76.5608ZM83.0812 142.17C83.4478 142.17 83.7712 142.03 84.0512 141.75C84.3378 141.463 84.4812 141.04 84.4812 140.48C84.4812 139.833 84.3445 139.353 84.0712 139.04C83.7978 138.727 83.4812 138.57 83.1212 138.57C82.6878 138.57 82.3445 138.743 82.0912 139.09C81.8378 139.43 81.7112 139.877 81.7112 140.43C81.7112 140.997 81.8512 141.43 82.1312 141.73C82.4112 142.023 82.7278 142.17 83.0812 142.17ZM84.4812 137.93H85.2712V142.59C85.2712 143.363 85.0578 143.943 84.6312 144.33C84.2045 144.723 83.6545 144.92 82.9812 144.92C82.3678 144.92 81.8445 144.817 81.4112 144.61V143.82C81.8378 144.067 82.3378 144.19 82.9112 144.19C83.3978 144.19 83.7812 144.06 84.0612 143.8C84.3412 143.54 84.4812 143.133 84.4812 142.58V142.01C84.1478 142.583 83.6512 142.87 82.9912 142.87C82.4112 142.87 81.9145 142.657 81.5012 142.23C81.0945 141.803 80.8912 141.21 80.8912 140.45C80.8912 139.697 81.0812 139.077 81.4612 138.59C81.8412 138.103 82.3378 137.86 82.9512 137.86C83.6445 137.86 84.1545 138.163 84.4812 138.77V137.93ZM90.4309 140.54H92.8209L92.6909 140.15L91.6409 136.91C91.5609 137.197 91.2009 138.28 90.5609 140.16L90.4309 140.54ZM93.6409 143L93.0509 141.23H90.2009L89.6009 143H88.7309L91.0809 136.26H92.2009L94.5109 143H93.6409ZM96.3752 137.93V138.81C96.6752 138.177 97.2086 137.86 97.9752 137.86C98.4686 137.86 98.8619 138.01 99.1552 138.31C99.4486 138.61 99.5952 139.01 99.5952 139.51V143H98.8052V139.72C98.8052 139.347 98.7086 139.063 98.5152 138.87C98.3286 138.67 98.0819 138.57 97.7752 138.57C97.3952 138.57 97.0652 138.717 96.7852 139.01C96.5119 139.303 96.3752 139.71 96.3752 140.23V143H95.5952V137.93H96.3752ZM102.926 142.36C103.339 142.36 103.689 142.207 103.976 141.9C104.269 141.593 104.416 141.103 104.416 140.43C104.416 139.79 104.266 139.32 103.966 139.02C103.666 138.72 103.336 138.57 102.976 138.57C102.556 138.57 102.206 138.74 101.926 139.08C101.652 139.413 101.516 139.893 101.516 140.52C101.516 141.067 101.649 141.51 101.916 141.85C102.182 142.19 102.519 142.36 102.926 142.36ZM104.416 135.93H105.206V143H104.416V142.25C104.056 142.803 103.536 143.08 102.856 143.08C102.182 143.08 101.652 142.83 101.266 142.33C100.886 141.83 100.696 141.223 100.696 140.51C100.696 139.717 100.899 139.077 101.306 138.59C101.712 138.097 102.236 137.85 102.876 137.85C103.536 137.85 104.049 138.133 104.416 138.7V135.93ZM109.399 140.66H108.519C108.093 140.66 107.773 140.743 107.559 140.91C107.346 141.077 107.239 141.287 107.239 141.54C107.239 141.793 107.323 142 107.489 142.16C107.656 142.313 107.899 142.39 108.219 142.39C108.579 142.39 108.866 142.29 109.079 142.09C109.293 141.883 109.399 141.623 109.399 141.31V140.66ZM106.779 138.99V138.2C107.159 137.967 107.659 137.85 108.279 137.85C109.553 137.85 110.189 138.497 110.189 139.79V143H109.409V142.4C109.149 142.833 108.676 143.05 107.989 143.05C107.516 143.05 107.133 142.91 106.839 142.63C106.553 142.35 106.409 141.997 106.409 141.57C106.409 141.083 106.593 140.707 106.959 140.44C107.333 140.167 107.839 140.03 108.479 140.03H109.399V139.77C109.399 139.37 109.309 139.07 109.129 138.87C108.949 138.663 108.646 138.56 108.219 138.56C107.679 138.56 107.199 138.703 106.779 138.99ZM117.183 137.93H117.973V143H117.183V142.12C116.916 142.747 116.386 143.06 115.593 143.06C115.093 143.06 114.696 142.913 114.403 142.62C114.116 142.32 113.973 141.92 113.973 141.42V137.93H114.763V141.22C114.763 141.587 114.856 141.867 115.043 142.06C115.229 142.253 115.483 142.35 115.803 142.35C116.223 142.35 116.556 142.203 116.803 141.91C117.056 141.617 117.183 141.22 117.183 140.72V137.93ZM120.213 137.93V138.81C120.513 138.177 121.046 137.86 121.813 137.86C122.306 137.86 122.7 138.01 122.993 138.31C123.286 138.61 123.433 139.01 123.433 139.51V143H122.643V139.72C122.643 139.347 122.546 139.063 122.353 138.87C122.166 138.67 121.92 138.57 121.613 138.57C121.233 138.57 120.903 138.717 120.623 139.01C120.35 139.303 120.213 139.71 120.213 140.23V143H119.433V137.93H120.213ZM125.924 138.57V141.54C125.924 142.08 126.177 142.35 126.684 142.35C126.944 142.35 127.174 142.273 127.374 142.12V142.87C127.154 142.99 126.907 143.05 126.634 143.05C125.634 143.05 125.134 142.54 125.134 141.52V138.57H124.324V137.93H125.134V136.67H125.924V137.93H127.324V138.57H125.924ZM131.675 137.93H132.465V143H131.675V142.12C131.408 142.747 130.878 143.06 130.085 143.06C129.585 143.06 129.188 142.913 128.895 142.62C128.608 142.32 128.465 141.92 128.465 141.42V137.93H129.255V141.22C129.255 141.587 129.348 141.867 129.535 142.06C129.722 142.253 129.975 142.35 130.295 142.35C130.715 142.35 131.048 142.203 131.295 141.91C131.548 141.617 131.675 141.22 131.675 140.72V137.93ZM133.925 143V135.97H134.705V143H133.925ZM135.735 140.34L137.795 143H136.845L134.805 140.34L136.795 137.93H137.735L135.735 140.34ZM143.481 142.36C143.888 142.36 144.225 142.19 144.491 141.85C144.758 141.51 144.891 141.067 144.891 140.52C144.891 139.893 144.751 139.413 144.471 139.08C144.198 138.74 143.851 138.57 143.431 138.57C143.071 138.57 142.741 138.72 142.441 139.02C142.141 139.32 141.991 139.79 141.991 140.43C141.991 141.103 142.135 141.593 142.421 141.9C142.715 142.207 143.068 142.36 143.481 142.36ZM141.991 135.93V138.69C142.358 138.13 142.871 137.85 143.531 137.85C144.171 137.85 144.695 138.097 145.101 138.59C145.508 139.077 145.711 139.717 145.711 140.51C145.711 141.223 145.518 141.83 145.131 142.33C144.751 142.83 144.225 143.08 143.551 143.08C142.871 143.08 142.351 142.803 141.991 142.25V143H141.201V135.93H141.991ZM150.105 140.14V139.94C150.105 139.52 149.991 139.187 149.765 138.94C149.538 138.687 149.225 138.56 148.825 138.56C148.445 138.56 148.121 138.697 147.855 138.97C147.588 139.243 147.431 139.633 147.385 140.14H150.105ZM150.575 142V142.74C150.181 142.947 149.701 143.05 149.135 143.05C148.368 143.05 147.748 142.817 147.275 142.35C146.808 141.877 146.575 141.253 146.575 140.48C146.575 139.673 146.785 139.037 147.205 138.57C147.625 138.103 148.165 137.87 148.825 137.87C149.458 137.87 149.961 138.073 150.335 138.48C150.708 138.887 150.895 139.463 150.895 140.21C150.895 140.423 150.878 140.62 150.845 140.8H147.385C147.445 141.3 147.635 141.683 147.955 141.95C148.275 142.217 148.695 142.35 149.215 142.35C149.781 142.35 150.235 142.233 150.575 142ZM152.879 137.93V138.82C153.146 138.193 153.606 137.88 154.259 137.88C154.379 137.88 154.472 137.887 154.539 137.9V138.68C154.399 138.633 154.256 138.61 154.109 138.61C153.756 138.61 153.462 138.773 153.229 139.1C152.996 139.427 152.879 139.803 152.879 140.23V143H152.089L152.099 137.93H152.879ZM157.261 142.17C157.628 142.17 157.951 142.03 158.231 141.75C158.518 141.463 158.661 141.04 158.661 140.48C158.661 139.833 158.524 139.353 158.251 139.04C157.978 138.727 157.661 138.57 157.301 138.57C156.868 138.57 156.524 138.743 156.271 139.09C156.018 139.43 155.891 139.877 155.891 140.43C155.891 140.997 156.031 141.43 156.311 141.73C156.591 142.023 156.908 142.17 157.261 142.17ZM158.661 137.93H159.451V142.59C159.451 143.363 159.238 143.943 158.811 144.33C158.384 144.723 157.834 144.92 157.161 144.92C156.548 144.92 156.024 144.817 155.591 144.61V143.82C156.018 144.067 156.518 144.19 157.091 144.19C157.578 144.19 157.961 144.06 158.241 143.8C158.521 143.54 158.661 143.133 158.661 142.58V142.01C158.328 142.583 157.831 142.87 157.171 142.87C156.591 142.87 156.094 142.657 155.681 142.23C155.274 141.803 155.071 141.21 155.071 140.45C155.071 139.697 155.261 139.077 155.641 138.59C156.021 138.103 156.518 137.86 157.131 137.86C157.824 137.86 158.334 138.163 158.661 138.77V137.93ZM163.579 140.66H162.699C162.272 140.66 161.952 140.743 161.739 140.91C161.526 141.077 161.419 141.287 161.419 141.54C161.419 141.793 161.502 142 161.669 142.16C161.836 142.313 162.079 142.39 162.399 142.39C162.759 142.39 163.046 142.29 163.259 142.09C163.472 141.883 163.579 141.623 163.579 141.31V140.66ZM160.959 138.99V138.2C161.339 137.967 161.839 137.85 162.459 137.85C163.732 137.85 164.369 138.497 164.369 139.79V143H163.589V142.4C163.329 142.833 162.856 143.05 162.169 143.05C161.696 143.05 161.312 142.91 161.019 142.63C160.732 142.35 160.589 141.997 160.589 141.57C160.589 141.083 160.772 140.707 161.139 140.44C161.512 140.167 162.019 140.03 162.659 140.03H163.579V139.77C163.579 139.37 163.489 139.07 163.309 138.87C163.129 138.663 162.826 138.56 162.399 138.56C161.859 138.56 161.379 138.703 160.959 138.99ZM168.081 142.36C168.488 142.36 168.824 142.19 169.091 141.85C169.358 141.51 169.491 141.067 169.491 140.52C169.491 139.893 169.351 139.413 169.071 139.08C168.798 138.74 168.451 138.57 168.031 138.57C167.671 138.57 167.341 138.72 167.041 139.02C166.741 139.32 166.591 139.79 166.591 140.43C166.591 141.103 166.734 141.593 167.021 141.9C167.314 142.207 167.668 142.36 168.081 142.36ZM166.591 135.93V138.69C166.958 138.13 167.471 137.85 168.131 137.85C168.771 137.85 169.294 138.097 169.701 138.59C170.108 139.077 170.311 139.717 170.311 140.51C170.311 141.223 170.118 141.83 169.731 142.33C169.351 142.83 168.824 143.08 168.151 143.08C167.471 143.08 166.951 142.803 166.591 142.25V143H165.801V135.93H166.591ZM174.624 137.93H175.414V143H174.624V142.12C174.357 142.747 173.827 143.06 173.034 143.06C172.534 143.06 172.137 142.913 171.844 142.62C171.557 142.32 171.414 141.92 171.414 141.42V137.93H172.204V141.22C172.204 141.587 172.297 141.867 172.484 142.06C172.671 142.253 172.924 142.35 173.244 142.35C173.664 142.35 173.997 142.203 174.244 141.91C174.497 141.617 174.624 141.22 174.624 140.72V137.93ZM177.655 137.93V138.81C177.955 138.177 178.488 137.86 179.255 137.86C179.748 137.86 180.141 138.01 180.435 138.31C180.728 138.61 180.875 139.01 180.875 139.51V143H180.085V139.72C180.085 139.347 179.988 139.063 179.795 138.87C179.608 138.67 179.361 138.57 179.055 138.57C178.675 138.57 178.345 138.717 178.065 139.01C177.791 139.303 177.655 139.71 177.655 140.23V143H176.875V137.93H177.655ZM184.175 142.17C184.542 142.17 184.865 142.03 185.145 141.75C185.432 141.463 185.575 141.04 185.575 140.48C185.575 139.833 185.438 139.353 185.165 139.04C184.892 138.727 184.575 138.57 184.215 138.57C183.782 138.57 183.438 138.743 183.185 139.09C182.932 139.43 182.805 139.877 182.805 140.43C182.805 140.997 182.945 141.43 183.225 141.73C183.505 142.023 183.822 142.17 184.175 142.17ZM185.575 137.93H186.365V142.59C186.365 143.363 186.152 143.943 185.725 144.33C185.298 144.723 184.748 144.92 184.075 144.92C183.462 144.92 182.938 144.817 182.505 144.61V143.82C182.932 144.067 183.432 144.19 184.005 144.19C184.492 144.19 184.875 144.06 185.155 143.8C185.435 143.54 185.575 143.133 185.575 142.58V142.01C185.242 142.583 184.745 142.87 184.085 142.87C183.505 142.87 183.008 142.657 182.595 142.23C182.188 141.803 181.985 141.21 181.985 140.45C181.985 139.697 182.175 139.077 182.555 138.59C182.935 138.103 183.432 137.86 184.045 137.86C184.738 137.86 185.248 138.163 185.575 138.77V137.93ZM65.5415 159V151.97H66.3215V159H65.5415ZM67.3515 156.34L69.4115 159H68.4615L66.4215 156.34L68.4115 153.93H69.3515L67.3515 156.34ZM73.5762 156.14V155.94C73.5762 155.52 73.4629 155.187 73.2362 154.94C73.0095 154.687 72.6962 154.56 72.2962 154.56C71.9162 154.56 71.5929 154.697 71.3262 154.97C71.0595 155.243 70.9029 155.633 70.8562 156.14H73.5762ZM74.0462 158V158.74C73.6529 158.947 73.1729 159.05 72.6062 159.05C71.8395 159.05 71.2195 158.817 70.7462 158.35C70.2795 157.877 70.0462 157.253 70.0462 156.48C70.0462 155.673 70.2562 155.037 70.6762 154.57C71.0962 154.103 71.6362 153.87 72.2962 153.87C72.9295 153.87 73.4329 154.073 73.8062 154.48C74.1795 154.887 74.3662 155.463 74.3662 156.21C74.3662 156.423 74.3495 156.62 74.3162 156.8H70.8562C70.9162 157.3 71.1062 157.683 71.4262 157.95C71.7462 158.217 72.1662 158.35 72.6862 158.35C73.2529 158.35 73.7062 158.233 74.0462 158ZM78.8622 155.83H79.9022C80.4089 155.83 80.8056 155.7 81.0922 155.44C81.3789 155.173 81.5222 154.837 81.5222 154.43C81.5222 153.977 81.3756 153.617 81.0822 153.35C80.7889 153.083 80.3722 152.95 79.8322 152.95H78.8622V155.83ZM78.0522 152.26H79.8222C80.6022 152.26 81.2156 152.463 81.6622 152.87C82.1156 153.27 82.3422 153.79 82.3422 154.43C82.3422 155.03 82.1189 155.53 81.6722 155.93C81.2256 156.323 80.6356 156.52 79.9022 156.52H78.8622V159H78.0522V152.26ZM86.1914 156.66H85.3114C84.8848 156.66 84.5648 156.743 84.3514 156.91C84.1381 157.077 84.0314 157.287 84.0314 157.54C84.0314 157.793 84.1148 158 84.2814 158.16C84.4481 158.313 84.6914 158.39 85.0114 158.39C85.3714 158.39 85.6581 158.29 85.8714 158.09C86.0848 157.883 86.1914 157.623 86.1914 157.31V156.66ZM83.5714 154.99V154.2C83.9514 153.967 84.4514 153.85 85.0714 153.85C86.3448 153.85 86.9814 154.497 86.9814 155.79V159H86.2014V158.4C85.9414 158.833 85.4681 159.05 84.7814 159.05C84.3081 159.05 83.9248 158.91 83.6314 158.63C83.3448 158.35 83.2014 157.997 83.2014 157.57C83.2014 157.083 83.3848 156.707 83.7514 156.44C84.1248 156.167 84.6314 156.03 85.2714 156.03H86.1914V155.77C86.1914 155.37 86.1014 155.07 85.9214 154.87C85.7414 154.663 85.4381 154.56 85.0114 154.56C84.4714 154.56 83.9914 154.703 83.5714 154.99ZM90.6133 158.36C91.04 158.36 91.39 158.193 91.6633 157.86C91.9367 157.52 92.0733 157.04 92.0733 156.42C92.0733 155.867 91.94 155.42 91.6733 155.08C91.4067 154.74 91.07 154.57 90.6633 154.57C90.2567 154.57 89.9033 154.72 89.6033 155.02C89.31 155.313 89.1633 155.797 89.1633 156.47C89.1633 157.117 89.3133 157.593 89.6133 157.9C89.9133 158.207 90.2467 158.36 90.6133 158.36ZM89.1633 153.93V154.7C89.5167 154.133 90.04 153.85 90.7333 153.85C91.4067 153.85 91.9333 154.097 92.3133 154.59C92.7 155.077 92.8933 155.687 92.8933 156.42C92.8933 157.2 92.69 157.84 92.2833 158.34C91.8833 158.833 91.36 159.08 90.7133 159.08C90.0467 159.08 89.53 158.797 89.1633 158.23V160.97H88.3833V153.93H89.1633ZM96.7871 156.66H95.9071C95.4805 156.66 95.1605 156.743 94.9471 156.91C94.7338 157.077 94.6271 157.287 94.6271 157.54C94.6271 157.793 94.7105 158 94.8771 158.16C95.0438 158.313 95.2871 158.39 95.6071 158.39C95.9671 158.39 96.2538 158.29 96.4671 158.09C96.6805 157.883 96.7871 157.623 96.7871 157.31V156.66ZM94.1671 154.99V154.2C94.5471 153.967 95.0471 153.85 95.6671 153.85C96.9405 153.85 97.5771 154.497 97.5771 155.79V159H96.7971V158.4C96.5371 158.833 96.0638 159.05 95.3771 159.05C94.9038 159.05 94.5205 158.91 94.2271 158.63C93.9405 158.35 93.7971 157.997 93.7971 157.57C93.7971 157.083 93.9805 156.707 94.3471 156.44C94.7205 156.167 95.2271 156.03 95.8671 156.03H96.7871V155.77C96.7871 155.37 96.6971 155.07 96.5171 154.87C96.3371 154.663 96.0338 154.56 95.6071 154.56C95.0671 154.56 94.5871 154.703 94.1671 154.99ZM99.759 153.93V154.81C100.059 154.177 100.592 153.86 101.359 153.86C101.852 153.86 102.246 154.01 102.539 154.31C102.832 154.61 102.979 155.01 102.979 155.51V159H102.189V155.72C102.189 155.347 102.092 155.063 101.899 154.87C101.712 154.67 101.466 154.57 101.159 154.57C100.779 154.57 100.449 154.717 100.169 155.01C99.8957 155.303 99.759 155.71 99.759 156.23V159H98.979V153.93H99.759ZM107.671 155.83H108.711C109.217 155.83 109.614 155.7 109.901 155.44C110.187 155.173 110.331 154.837 110.331 154.43C110.331 153.977 110.184 153.617 109.891 153.35C109.597 153.083 109.181 152.95 108.641 152.95H107.671V155.83ZM106.861 152.26H108.631C109.411 152.26 110.024 152.463 110.471 152.87C110.924 153.27 111.151 153.79 111.151 154.43C111.151 155.03 110.927 155.53 110.481 155.93C110.034 156.323 109.444 156.52 108.711 156.52H107.671V159H106.861V152.26ZM115.5 156.14V155.94C115.5 155.52 115.387 155.187 115.16 154.94C114.933 154.687 114.62 154.56 114.22 154.56C113.84 154.56 113.517 154.697 113.25 154.97C112.983 155.243 112.827 155.633 112.78 156.14H115.5ZM115.97 158V158.74C115.577 158.947 115.097 159.05 114.53 159.05C113.763 159.05 113.143 158.817 112.67 158.35C112.203 157.877 111.97 157.253 111.97 156.48C111.97 155.673 112.18 155.037 112.6 154.57C113.02 154.103 113.56 153.87 114.22 153.87C114.853 153.87 115.357 154.073 115.73 154.48C116.103 154.887 116.29 155.463 116.29 156.21C116.29 156.423 116.273 156.62 116.24 156.8H112.78C112.84 157.3 113.03 157.683 113.35 157.95C113.67 158.217 114.09 158.35 114.61 158.35C115.177 158.35 115.63 158.233 115.97 158ZM118.275 153.93V154.82C118.541 154.193 119.001 153.88 119.655 153.88C119.775 153.88 119.868 153.887 119.935 153.9V154.68C119.795 154.633 119.651 154.61 119.505 154.61C119.151 154.61 118.858 154.773 118.625 155.1C118.391 155.427 118.275 155.803 118.275 156.23V159H117.485L117.495 153.93H118.275ZM121.536 153.93V154.75C121.816 154.157 122.293 153.86 122.966 153.86C123.746 153.86 124.24 154.19 124.446 154.85C124.593 154.53 124.796 154.287 125.056 154.12C125.323 153.947 125.62 153.86 125.946 153.86C126.473 153.86 126.87 154.01 127.136 154.31C127.403 154.61 127.536 155.013 127.536 155.52V159H126.746V155.72C126.746 154.953 126.423 154.57 125.776 154.57C125.456 154.57 125.17 154.717 124.916 155.01C124.663 155.297 124.536 155.703 124.536 156.23V159H123.746V155.72C123.746 154.953 123.423 154.57 122.776 154.57C122.456 154.57 122.17 154.717 121.916 155.01C121.663 155.297 121.536 155.703 121.536 156.23V159H120.756V153.93H121.536ZM131.67 156.66H130.79C130.363 156.66 130.043 156.743 129.83 156.91C129.617 157.077 129.51 157.287 129.51 157.54C129.51 157.793 129.593 158 129.76 158.16C129.927 158.313 130.17 158.39 130.49 158.39C130.85 158.39 131.137 158.29 131.35 158.09C131.563 157.883 131.67 157.623 131.67 157.31V156.66ZM129.05 154.99V154.2C129.43 153.967 129.93 153.85 130.55 153.85C131.823 153.85 132.46 154.497 132.46 155.79V159H131.68V158.4C131.42 158.833 130.947 159.05 130.26 159.05C129.787 159.05 129.403 158.91 129.11 158.63C128.823 158.35 128.68 157.997 128.68 157.57C128.68 157.083 128.863 156.707 129.23 156.44C129.603 156.167 130.11 156.03 130.75 156.03H131.67V155.77C131.67 155.37 131.58 155.07 131.4 154.87C131.22 154.663 130.917 154.56 130.49 154.56C129.95 154.56 129.47 154.703 129.05 154.99ZM133.902 159V153.93H134.692V159H133.902ZM133.922 152.71C133.829 152.61 133.782 152.487 133.782 152.34C133.782 152.193 133.829 152.07 133.922 151.97C134.022 151.87 134.145 151.82 134.292 151.82C134.439 151.82 134.562 151.87 134.662 151.97C134.762 152.07 134.812 152.193 134.812 152.34C134.812 152.487 134.762 152.61 134.662 152.71C134.562 152.803 134.439 152.85 134.292 152.85C134.145 152.85 134.022 152.803 133.922 152.71ZM136.976 153.93V154.81C137.276 154.177 137.809 153.86 138.576 153.86C139.069 153.86 139.462 154.01 139.756 154.31C140.049 154.61 140.196 155.01 140.196 155.51V159H139.406V155.72C139.406 155.347 139.309 155.063 139.116 154.87C138.929 154.67 138.682 154.57 138.376 154.57C137.996 154.57 137.666 154.717 137.386 155.01C137.112 155.303 136.976 155.71 136.976 156.23V159H136.196V153.93H136.976ZM144.326 156.66H143.446C143.02 156.66 142.7 156.743 142.486 156.91C142.273 157.077 142.166 157.287 142.166 157.54C142.166 157.793 142.25 158 142.416 158.16C142.583 158.313 142.826 158.39 143.146 158.39C143.506 158.39 143.793 158.29 144.006 158.09C144.22 157.883 144.326 157.623 144.326 157.31V156.66ZM141.706 154.99V154.2C142.086 153.967 142.586 153.85 143.206 153.85C144.48 153.85 145.116 154.497 145.116 155.79V159H144.336V158.4C144.076 158.833 143.603 159.05 142.916 159.05C142.443 159.05 142.06 158.91 141.766 158.63C141.48 158.35 141.336 157.997 141.336 157.57C141.336 157.083 141.52 156.707 141.886 156.44C142.26 156.167 142.766 156.03 143.406 156.03H144.326V155.77C144.326 155.37 144.236 155.07 144.056 154.87C143.876 154.663 143.573 154.56 143.146 154.56C142.606 154.56 142.126 154.703 141.706 154.99ZM147.298 153.93V154.81C147.598 154.177 148.131 153.86 148.898 153.86C149.391 153.86 149.785 154.01 150.078 154.31C150.371 154.61 150.518 155.01 150.518 155.51V159H149.728V155.72C149.728 155.347 149.631 155.063 149.438 154.87C149.251 154.67 149.005 154.57 148.698 154.57C148.318 154.57 147.988 154.717 147.708 155.01C147.435 155.303 147.298 155.71 147.298 156.23V159H146.518V153.93H147.298Z" fill="#2B2B2B"/>
<g filter="url(#filter1_d_1124_4113)">
<rect x="53.5" y="172" width="109" height="28" rx="8" fill="#FF1934" shape-rendering="crispEdges"/>
<g clip-path="url(#clip2_1124_4113)">
<path d="M93.4997 192.667C89.8263 192.667 86.833 189.673 86.833 186C86.833 182.327 89.8263 179.333 93.4997 179.333C97.173 179.333 100.166 182.327 100.166 186C100.166 189.673 97.173 192.667 93.4997 192.667Z" fill="white"/>
<path d="M92.9468 189.2C92.8201 189.2 92.6868 189.153 92.5868 189.06C92.3668 188.86 92.3534 188.527 92.5534 188.307L94.5868 186.093C94.6334 186.04 94.6334 185.967 94.5868 185.913L92.5534 183.7C92.3534 183.48 92.3668 183.147 92.5868 182.947C92.8068 182.747 93.1401 182.76 93.3401 182.98L95.3734 185.193C95.8001 185.653 95.8001 186.353 95.3734 186.813L93.3401 189.027C93.2334 189.14 93.0934 189.2 92.9468 189.2Z" fill="#FF1934"/>
</g>
<path d="M109.917 182.608V183.44H108.549V188H107.533V183.44H106.165V182.608H109.917ZM113.073 185.64V185.52C113.063 185.259 112.991 185.051 112.857 184.896C112.729 184.736 112.54 184.656 112.289 184.656C112.06 184.656 111.86 184.741 111.689 184.912C111.524 185.077 111.417 185.32 111.369 185.64H113.073ZM113.729 186.944V187.776C113.447 187.952 113.039 188.04 112.505 188.04C111.86 188.04 111.351 187.848 110.977 187.464C110.604 187.08 110.417 186.584 110.417 185.976C110.417 185.331 110.593 184.824 110.945 184.456C111.297 184.088 111.737 183.904 112.265 183.904C112.793 183.904 113.212 184.064 113.521 184.384C113.831 184.704 113.985 185.171 113.985 185.784C113.985 185.933 113.967 186.125 113.929 186.36H111.385C111.455 186.653 111.599 186.877 111.817 187.032C112.041 187.187 112.319 187.264 112.649 187.264C113.076 187.264 113.436 187.157 113.729 186.944ZM115.828 183.944V184.664C116.014 184.163 116.356 183.912 116.852 183.912C116.964 183.912 117.054 183.92 117.124 183.936V184.864C117.001 184.811 116.865 184.784 116.716 184.784C116.454 184.784 116.241 184.891 116.076 185.104C115.91 185.317 115.828 185.584 115.828 185.904V188H114.86L114.868 183.944H115.828ZM117.728 188V183.944H118.688V188H117.728ZM117.632 182.728C117.632 182.568 117.688 182.432 117.8 182.32C117.912 182.208 118.048 182.152 118.208 182.152C118.368 182.152 118.504 182.208 118.616 182.32C118.728 182.432 118.784 182.568 118.784 182.728C118.784 182.893 118.728 183.032 118.616 183.144C118.504 183.256 118.368 183.312 118.208 183.312C118.048 183.312 117.912 183.256 117.8 183.144C117.688 183.032 117.632 182.893 117.632 182.728ZM120.726 183.944V184.584C120.955 184.125 121.337 183.896 121.87 183.896C122.462 183.896 122.846 184.152 123.022 184.664C123.129 184.419 123.289 184.229 123.502 184.096C123.715 183.963 123.958 183.896 124.23 183.896C124.641 183.896 124.958 184.021 125.182 184.272C125.406 184.517 125.518 184.869 125.518 185.328V188H124.55V185.512C124.55 184.968 124.342 184.696 123.926 184.696C123.718 184.696 123.531 184.787 123.366 184.968C123.206 185.149 123.126 185.435 123.126 185.824V188H122.158V185.512C122.158 184.968 121.95 184.696 121.534 184.696C121.326 184.696 121.139 184.787 120.974 184.968C120.809 185.149 120.726 185.435 120.726 185.824V188H119.766V183.944H120.726ZM128.58 186.256H128.084C127.834 186.256 127.642 186.309 127.508 186.416C127.375 186.517 127.308 186.648 127.308 186.808C127.308 187.149 127.506 187.32 127.9 187.32C128.114 187.32 128.279 187.259 128.396 187.136C128.519 187.008 128.58 186.843 128.58 186.64V186.256ZM126.612 185.04V184.152C126.916 183.965 127.354 183.872 127.924 183.872C129.023 183.872 129.572 184.384 129.572 185.408V188H128.62V187.512C128.434 187.859 128.082 188.032 127.564 188.032C127.18 188.032 126.874 187.92 126.644 187.696C126.42 187.472 126.308 187.189 126.308 186.848C126.308 186.464 126.452 186.163 126.74 185.944C127.028 185.725 127.444 185.616 127.988 185.616H128.58V185.368C128.58 185.144 128.522 184.973 128.404 184.856C128.287 184.739 128.087 184.68 127.804 184.68C127.372 184.68 126.975 184.8 126.612 185.04Z" fill="white"/>
</g>
<path d="M84.5 220C84.5 213.373 89.8726 208 96.5 208L119.5 208C126.127 208 131.5 213.373 131.5 220C131.5 226.627 126.127 232 119.5 232L96.5 232C89.8726 232 84.5 226.627 84.5 220Z" fill="white"/>
<path d="M101.38 216.26V216.97H99.56V223H98.75V216.97H96.93V216.26H101.38ZM104.364 223.09C103.638 223.09 103.061 222.847 102.634 222.36C102.214 221.867 102.004 221.247 102.004 220.5C102.004 219.747 102.221 219.12 102.654 218.62C103.094 218.113 103.664 217.86 104.364 217.86C105.131 217.86 105.721 218.107 106.134 218.6C106.554 219.093 106.764 219.72 106.764 220.48C106.764 221.233 106.551 221.857 106.124 222.35C105.698 222.843 105.111 223.09 104.364 223.09ZM104.364 218.56C103.884 218.56 103.508 218.747 103.234 219.12C102.961 219.493 102.824 219.95 102.824 220.49C102.824 221.017 102.964 221.467 103.244 221.84C103.524 222.207 103.898 222.39 104.364 222.39C104.871 222.39 105.261 222.21 105.534 221.85C105.808 221.483 105.944 221.03 105.944 220.49C105.944 219.93 105.814 219.47 105.554 219.11C105.294 218.743 104.898 218.56 104.364 218.56ZM107.959 223V215.93H108.749V223H107.959ZM112.983 220.66H112.103C111.677 220.66 111.357 220.743 111.143 220.91C110.93 221.077 110.823 221.287 110.823 221.54C110.823 221.793 110.907 222 111.073 222.16C111.24 222.313 111.483 222.39 111.803 222.39C112.163 222.39 112.45 222.29 112.663 222.09C112.877 221.883 112.983 221.623 112.983 221.31V220.66ZM110.363 218.99V218.2C110.743 217.967 111.243 217.85 111.863 217.85C113.137 217.85 113.773 218.497 113.773 219.79V223H112.993V222.4C112.733 222.833 112.26 223.05 111.573 223.05C111.1 223.05 110.717 222.91 110.423 222.63C110.137 222.35 109.993 221.997 109.993 221.57C109.993 221.083 110.177 220.707 110.543 220.44C110.917 220.167 111.423 220.03 112.063 220.03H112.983V219.77C112.983 219.37 112.893 219.07 112.713 218.87C112.533 218.663 112.23 218.56 111.803 218.56C111.263 218.56 110.783 218.703 110.363 218.99ZM115.175 223V215.97H115.955V223H115.175ZM116.985 220.34L119.045 223H118.095L116.055 220.34L118.045 217.93H118.985L116.985 220.34Z" fill="#2B2B2B"/>
<defs>
<filter id="filter0_d_1124_4113" x="-4" y="-2" width="224" height="56" filterUnits="userSpaceOnUse" color-interpolation-filters="sRGB">
<feFlood flood-opacity="0" result="BackgroundImageFix"/>
<feColorMatrix in="SourceAlpha" type="matrix" values="0 0 0 0 0 0 0 0 0 0 0 0 0 0 0 0 0 0 127 0" result="hardAlpha"/>
<feOffset dy="2"/>
<feGaussianBlur stdDeviation="2"/>
<feComposite in2="hardAlpha" operator="out"/>
<feColorMatrix type="matrix" values="0 0 0 0 0.168627 0 0 0 0 0.168627 0 0 0 0 0.168627 0 0 0 0.24 0"/>
<feBlend mode="normal" in2="BackgroundImageFix" result="effect1_dropShadow_1124_4113"/>
<feBlend mode="normal" in="SourceGraphic" in2="effect1_dropShadow_1124_4113" result="shape"/>
</filter>
<filter id="filter1_d_1124_4113" x="47.5" y="166" width="125" height="44" filterUnits="userSpaceOnUse" color-interpolation-filters="sRGB">
<feFlood flood-opacity="0" result="BackgroundImageFix"/>
<feColorMatrix in="SourceAlpha" type="matrix" values="0 0 0 0 0 0 0 0 0 0 0 0 0 0 0 0 0 0 127 0" result="hardAlpha"/>
<feOffset dx="2" dy="2"/>
<feGaussianBlur stdDeviation="4"/>
<feComposite in2="hardAlpha" operator="out"/>
<feColorMatrix type="matrix" values="0 0 0 0 0 0 0 0 0 0 0 0 0 0 0 0 0 0 0.12 0"/>
<feBlend mode="normal" in2="BackgroundImageFix" result="effect1_dropShadow_1124_4113"/>
<feBlend mode="normal" in="SourceGraphic" in2="effect1_dropShadow_1124_4113" result="shape"/>
</filter>
<clipPath id="clip0_1124_4113">
<rect width="24" height="24" fill="white" transform="translate(16 16)"/>
</clipPath>
<clipPath id="clip1_1124_4113">
<rect width="40" height="40" fill="white" transform="translate(88 64)"/>
</clipPath>
<clipPath id="clip2_1124_4113">
<rect width="16" height="16" fill="white" transform="translate(85.5 178)"/>
</clipPath>
</defs>
</svg>
