<svg width="314" height="246" viewBox="0 0 314 246" fill="none" xmlns="http://www.w3.org/2000/svg">
<rect width="314" height="246" fill="#D3D3D3"/>
<rect width="314" height="246" rx="16" fill="white"/>
<g filter="url(#filter0_d_1124_4113)">
<path d="M0 16C0 7.16344 7.16344 0 16 0H298C306.837 0 314 7.16344 314 16V48H0V16Z" fill="#FF1934" shape-rendering="crispEdges"/>
<g clip-path="url(#clip0_1124_4113)">
<path d="M35.04 35.3999H20.96C20.52 35.3999 20.16 35.7599 20.16 36.1999C20.16 36.6399 20.52 36.9999 20.96 36.9999H35.04C35.48 36.9999 35.84 36.6399 35.84 36.1999C35.84 35.7599 35.48 35.3999 35.04 35.3999Z" fill="white"/>
<path d="M20.96 27.2001H21.83V33.2001C21.83 33.6401 22.19 34.0001 22.63 34.0001C23.07 34.0001 23.43 33.6401 23.43 33.2001V28.0001C23.43 27.5601 23.79 27.2001 24.23 27.2001H24.61C25.05 27.2001 25.41 27.5601 25.41 28.0001V33.2001C25.41 33.6401 25.77 34.0001 26.21 34.0001C26.65 34.0001 27.01 33.6401 27.01 33.2001V28.0001C27.01 27.5601 27.37 27.2001 27.81 27.2001H28.19C28.63 27.2001 28.99 27.5601 28.99 28.0001V33.2001C28.99 33.6401 29.35 34.0001 29.79 34.0001C30.23 34.0001 30.59 33.6401 30.59 33.2001V28.0001C30.59 27.5601 30.95 27.2001 31.39 27.2001H31.77C32.21 27.2001 32.57 27.5601 32.57 28.0001V33.2001C32.57 33.6401 32.93 34.0001 33.37 34.0001C33.81 34.0001 34.17 33.6401 34.17 33.2001V27.2001H35.04C35.48 27.2001 35.84 26.8401 35.84 26.4001C35.84 25.9601 35.48 25.6001 35.04 25.6001H20.96C20.52 25.6001 20.16 25.9601 20.16 26.4001C20.16 26.8401 20.52 27.2001 20.96 27.2001Z" fill="white"/>
<path d="M21.34 24.3099L27.53 20.9599C27.83 20.7999 28.18 20.7999 28.48 20.9599L34.67 24.3099C34.79 24.3799 34.92 24.4099 35.05 24.4099C35.33 24.4099 35.61 24.2599 35.76 23.9899C35.97 23.5999 35.83 23.1199 35.44 22.9099L28.4 19.0999C28.16 18.9699 27.88 18.9699 27.64 19.0999L20.6 22.9099C20.21 23.1199 20.07 23.6099 20.28 23.9899C20.49 24.3799 20.98 24.5199 21.36 24.3099H21.34Z" fill="white"/>
</g>
<path d="M54.356 28.36V22.564H56.512V28.346C56.512 29.578 56.1667 30.5207 55.476 31.174C54.7853 31.818 53.852 32.14 52.676 32.14C51.5187 32.14 50.59 31.818 49.89 31.174C49.19 30.53 48.84 29.62 48.84 28.444V22.564H50.996V28.43C50.996 29.5967 51.556 30.18 52.676 30.18C53.796 30.18 54.356 29.5733 54.356 28.36ZM60.5576 26.4V29.662C60.5576 29.914 60.6276 30.1053 60.7676 30.236C60.9169 30.3667 61.1082 30.432 61.3416 30.432C61.7149 30.432 62.0462 30.3387 62.3356 30.152V31.846C61.9902 31.9953 61.5236 32.07 60.9356 32.07C59.3209 32.07 58.5136 31.2627 58.5136 29.648V26.4H57.4916V24.902H58.5136V23.222H60.5576V24.902H62.2096V26.4H60.5576ZM67.106 29.088H66.448C66.1026 29.088 65.8366 29.1627 65.65 29.312C65.4633 29.4613 65.37 29.6527 65.37 29.886C65.37 30.362 65.6453 30.6 66.196 30.6C66.4853 30.6 66.7093 30.5113 66.868 30.334C67.0266 30.1567 67.106 29.914 67.106 29.606V29.088ZM63.788 27.086V25.252C64.348 24.9347 65.1553 24.776 66.21 24.776C67.218 24.776 67.9693 24.9953 68.464 25.434C68.9586 25.8633 69.206 26.5353 69.206 27.45V32H67.204V31.132C66.9053 31.7387 66.3173 32.042 65.44 32.042C64.7493 32.042 64.208 31.846 63.816 31.454C63.4333 31.062 63.242 30.572 63.242 29.984C63.242 29.3027 63.4893 28.7753 63.984 28.402C64.488 28.0193 65.23 27.828 66.21 27.828H67.106V27.338C67.106 26.7407 66.7093 26.442 65.916 26.442C65.1506 26.442 64.4413 26.6567 63.788 27.086ZM72.8547 24.902V26.106C73.032 25.714 73.3027 25.406 73.6667 25.182C74.04 24.9487 74.4834 24.832 74.9967 24.832C75.7247 24.832 76.294 25.0513 76.7047 25.49C77.1154 25.9193 77.3207 26.554 77.3207 27.394V32H75.2767V27.772C75.2767 27.352 75.1787 27.0347 74.9827 26.82C74.7867 26.596 74.5114 26.484 74.1567 26.484C73.7834 26.484 73.4707 26.6333 73.2187 26.932C72.976 27.2213 72.8547 27.66 72.8547 28.248V32H70.8107V24.902H72.8547ZM82.0818 30.138C82.5205 30.138 82.8611 29.9747 83.1038 29.648C83.3558 29.312 83.4818 28.9107 83.4818 28.444C83.4818 27.1747 83.0198 26.54 82.0958 26.54C81.6851 26.54 81.3631 26.6987 81.1298 27.016C80.8965 27.3333 80.7798 27.772 80.7798 28.332C80.7798 28.92 80.8918 29.368 81.1158 29.676C81.3398 29.984 81.6618 30.138 82.0818 30.138ZM83.4818 24.902H85.5118V31.314C85.5118 32.4527 85.1711 33.3067 84.4898 33.876C83.8085 34.4547 82.9545 34.744 81.9278 34.744C80.9291 34.744 80.0565 34.5667 79.3098 34.212V32.126C79.9631 32.6487 80.7658 32.91 81.7178 32.91C82.3338 32.91 82.7818 32.7793 83.0618 32.518C83.3418 32.2567 83.4818 31.846 83.4818 31.286V30.81C83.0711 31.4447 82.4178 31.762 81.5218 31.762C80.7378 31.762 80.0611 31.4727 79.4918 30.894C78.9318 30.3153 78.6518 29.4567 78.6518 28.318C78.6518 27.31 78.9225 26.4793 79.4638 25.826C80.0145 25.1633 80.7331 24.832 81.6198 24.832C82.4598 24.832 83.0805 25.168 83.4818 25.84V24.902Z" fill="white"/>
</g>
<g clip-path="url(#clip1_1124_4113)">
<path d="M157 126.07C146.272 126.07 137.544 124.347 137.544 122.23C137.544 120.113 146.272 118.39 157 118.39C167.728 118.39 176.456 120.113 176.456 122.23C176.456 124.347 167.728 126.07 157 126.07Z" fill="#CCCCCC"/>
<path d="M150.331 111.067C148.639 111.067 146.947 110.449 145.598 109.213L136.178 100.58C134.684 99.2121 134.582 96.8901 135.952 95.3964C137.32 93.9007 139.642 93.8021 141.136 95.1705L150.556 103.803L172.865 82.9465C174.361 81.5807 176.682 81.6793 178.049 83.1724C179.419 84.6661 179.316 86.9881 177.823 88.3564L155.063 109.213C153.714 110.449 152.022 111.067 150.331 111.067H150.331Z" fill="#008C1E"/>
<path d="M153.756 123.014C152.933 123.014 152.11 122.954 151.454 122.833L146.871 121.991C146.145 121.857 146.095 121.63 146.761 121.485C147.427 121.339 148.556 121.329 149.283 121.463L153.865 122.305L164.716 120.269C165.444 120.136 166.573 120.146 167.238 120.291C167.904 120.437 167.854 120.663 167.128 120.797L156.057 122.833C155.401 122.953 154.578 123.014 153.756 123.014Z" fill="#F1F1F1"/>
</g>
<path d="M56.7893 144.54H59.1793L59.0493 144.15L57.9993 140.91C57.9193 141.197 57.5593 142.28 56.9193 144.16L56.7893 144.54ZM59.9993 147L59.4093 145.23H56.5593L55.9593 147H55.0893L57.4393 140.26H58.5593L60.8693 147H59.9993ZM62.7336 141.93V142.81C63.0336 142.177 63.567 141.86 64.3336 141.86C64.827 141.86 65.2203 142.01 65.5136 142.31C65.807 142.61 65.9536 143.01 65.9536 143.51V147H65.1636V143.72C65.1636 143.347 65.067 143.063 64.8736 142.87C64.687 142.67 64.4403 142.57 64.1336 142.57C63.7536 142.57 63.4236 142.717 63.1436 143.01C62.8703 143.303 62.7336 143.71 62.7336 144.23V147H61.9536V141.93H62.7336ZM69.284 146.36C69.6974 146.36 70.0474 146.207 70.334 145.9C70.6274 145.593 70.774 145.103 70.774 144.43C70.774 143.79 70.624 143.32 70.324 143.02C70.024 142.72 69.694 142.57 69.334 142.57C68.914 142.57 68.564 142.74 68.284 143.08C68.0107 143.413 67.874 143.893 67.874 144.52C67.874 145.067 68.0074 145.51 68.274 145.85C68.5407 146.19 68.8774 146.36 69.284 146.36ZM70.774 139.93H71.564V147H70.774V146.25C70.414 146.803 69.894 147.08 69.214 147.08C68.5407 147.08 68.0107 146.83 67.624 146.33C67.244 145.83 67.054 145.223 67.054 144.51C67.054 143.717 67.2574 143.077 67.664 142.59C68.0707 142.097 68.594 141.85 69.234 141.85C69.894 141.85 70.4074 142.133 70.774 142.7V139.93ZM75.7579 144.66H74.8779C74.4512 144.66 74.1312 144.743 73.9179 144.91C73.7045 145.077 73.5979 145.287 73.5979 145.54C73.5979 145.793 73.6812 146 73.8479 146.16C74.0145 146.313 74.2579 146.39 74.5779 146.39C74.9379 146.39 75.2245 146.29 75.4379 146.09C75.6512 145.883 75.7579 145.623 75.7579 145.31V144.66ZM73.1379 142.99V142.2C73.5179 141.967 74.0179 141.85 74.6379 141.85C75.9112 141.85 76.5479 142.497 76.5479 143.79V147H75.7679V146.4C75.5079 146.833 75.0345 147.05 74.3479 147.05C73.8745 147.05 73.4912 146.91 73.1979 146.63C72.9112 146.35 72.7679 145.997 72.7679 145.57C72.7679 145.083 72.9512 144.707 73.3179 144.44C73.6912 144.167 74.1979 144.03 74.8379 144.03H75.7579V143.77C75.7579 143.37 75.6679 143.07 75.4879 142.87C75.3079 142.663 75.0045 142.56 74.5779 142.56C74.0379 142.56 73.5579 142.703 73.1379 142.99ZM82.7011 146.36C83.1078 146.36 83.4445 146.19 83.7111 145.85C83.9778 145.51 84.1111 145.067 84.1111 144.52C84.1111 143.893 83.9711 143.413 83.6911 143.08C83.4178 142.74 83.0711 142.57 82.6511 142.57C82.2911 142.57 81.9611 142.72 81.6611 143.02C81.3611 143.32 81.2111 143.79 81.2111 144.43C81.2111 145.103 81.3545 145.593 81.6411 145.9C81.9345 146.207 82.2878 146.36 82.7011 146.36ZM81.2111 139.93V142.69C81.5778 142.13 82.0911 141.85 82.7511 141.85C83.3911 141.85 83.9145 142.097 84.3211 142.59C84.7278 143.077 84.9311 143.717 84.9311 144.51C84.9311 145.223 84.7378 145.83 84.3511 146.33C83.9711 146.83 83.4445 147.08 82.7711 147.08C82.0911 147.08 81.5711 146.803 81.2111 146.25V147H80.4211V139.93H81.2111ZM89.3243 144.14V143.94C89.3243 143.52 89.2109 143.187 88.9843 142.94C88.7576 142.687 88.4443 142.56 88.0443 142.56C87.6643 142.56 87.3409 142.697 87.0743 142.97C86.8076 143.243 86.6509 143.633 86.6043 144.14H89.3243ZM89.7943 146V146.74C89.4009 146.947 88.9209 147.05 88.3543 147.05C87.5876 147.05 86.9676 146.817 86.4943 146.35C86.0276 145.877 85.7943 145.253 85.7943 144.48C85.7943 143.673 86.0043 143.037 86.4243 142.57C86.8443 142.103 87.3843 141.87 88.0443 141.87C88.6776 141.87 89.1809 142.073 89.5543 142.48C89.9276 142.887 90.1143 143.463 90.1143 144.21C90.1143 144.423 90.0976 144.62 90.0643 144.8H86.6043C86.6643 145.3 86.8543 145.683 87.1743 145.95C87.4943 146.217 87.9143 146.35 88.4343 146.35C89.0009 146.35 89.4543 146.233 89.7943 146ZM92.0989 141.93V142.82C92.3655 142.193 92.8255 141.88 93.4789 141.88C93.5989 141.88 93.6922 141.887 93.7589 141.9V142.68C93.6189 142.633 93.4755 142.61 93.3289 142.61C92.9755 142.61 92.6822 142.773 92.4489 143.1C92.2155 143.427 92.0989 143.803 92.0989 144.23V147H91.3089L91.3189 141.93H92.0989ZM95.3606 139.93V142.81C95.6606 142.177 96.1939 141.86 96.9606 141.86C97.4473 141.86 97.8373 142.01 98.1306 142.31C98.4306 142.61 98.5806 143.017 98.5806 143.53V147H97.7906V143.72C97.7906 143.353 97.6939 143.07 97.5006 142.87C97.3139 142.67 97.0673 142.57 96.7606 142.57C96.3873 142.57 96.0606 142.713 95.7806 143C95.5006 143.287 95.3606 143.697 95.3606 144.23V147H94.5806V139.93H95.3606ZM102.711 144.66H101.831C101.404 144.66 101.084 144.743 100.871 144.91C100.658 145.077 100.551 145.287 100.551 145.54C100.551 145.793 100.634 146 100.801 146.16C100.968 146.313 101.211 146.39 101.531 146.39C101.891 146.39 102.178 146.29 102.391 146.09C102.604 145.883 102.711 145.623 102.711 145.31V144.66ZM100.091 142.99V142.2C100.471 141.967 100.971 141.85 101.591 141.85C102.864 141.85 103.501 142.497 103.501 143.79V147H102.721V146.4C102.461 146.833 101.988 147.05 101.301 147.05C100.828 147.05 100.444 146.91 100.151 146.63C99.8643 146.35 99.721 145.997 99.721 145.57C99.721 145.083 99.9043 144.707 100.271 144.44C100.644 144.167 101.151 144.03 101.791 144.03H102.711V143.77C102.711 143.37 102.621 143.07 102.441 142.87C102.261 142.663 101.958 142.56 101.531 142.56C100.991 142.56 100.511 142.703 100.091 142.99ZM107.663 142.1V142.85C107.356 142.663 106.936 142.57 106.403 142.57C106.136 142.57 105.923 142.633 105.763 142.76C105.61 142.88 105.533 143.037 105.533 143.23C105.533 143.35 105.556 143.457 105.603 143.55C105.65 143.637 105.74 143.723 105.873 143.81C106.013 143.897 106.113 143.957 106.173 143.99C106.24 144.017 106.38 144.077 106.593 144.17C107.02 144.343 107.353 144.54 107.593 144.76C107.833 144.98 107.953 145.277 107.953 145.65C107.953 146.083 107.8 146.427 107.493 146.68C107.193 146.933 106.78 147.06 106.253 147.06C105.64 147.06 105.143 146.957 104.763 146.75V145.98C105.21 146.247 105.69 146.38 106.203 146.38C106.51 146.38 106.743 146.32 106.903 146.2C107.063 146.08 107.143 145.917 107.143 145.71C107.143 145.47 107.053 145.283 106.873 145.15C106.7 145.017 106.406 144.867 105.993 144.7C105.613 144.553 105.306 144.37 105.073 144.15C104.846 143.93 104.733 143.633 104.733 143.26C104.733 142.84 104.89 142.507 105.203 142.26C105.523 142.007 105.92 141.88 106.393 141.88C106.92 141.88 107.343 141.953 107.663 142.1ZM109.064 147V141.93H109.854V147H109.064ZM109.084 140.71C108.991 140.61 108.944 140.487 108.944 140.34C108.944 140.193 108.991 140.07 109.084 139.97C109.184 139.87 109.307 139.82 109.454 139.82C109.601 139.82 109.724 139.87 109.824 139.97C109.924 140.07 109.974 140.193 109.974 140.34C109.974 140.487 109.924 140.61 109.824 140.71C109.724 140.803 109.601 140.85 109.454 140.85C109.307 140.85 109.184 140.803 109.084 140.71ZM111.398 147V139.93H112.188V147H111.398ZM116.913 141.93V142.75C117.193 142.157 117.67 141.86 118.343 141.86C119.123 141.86 119.617 142.19 119.823 142.85C119.97 142.53 120.173 142.287 120.433 142.12C120.7 141.947 120.997 141.86 121.323 141.86C121.85 141.86 122.247 142.01 122.513 142.31C122.78 142.61 122.913 143.013 122.913 143.52V147H122.123V143.72C122.123 142.953 121.8 142.57 121.153 142.57C120.833 142.57 120.547 142.717 120.293 143.01C120.04 143.297 119.913 143.703 119.913 144.23V147H119.123V143.72C119.123 142.953 118.8 142.57 118.153 142.57C117.833 142.57 117.547 142.717 117.293 143.01C117.04 143.297 116.913 143.703 116.913 144.23V147H116.133V141.93H116.913ZM127.547 144.14V143.94C127.547 143.52 127.434 143.187 127.207 142.94C126.98 142.687 126.667 142.56 126.267 142.56C125.887 142.56 125.564 142.697 125.297 142.97C125.03 143.243 124.874 143.633 124.827 144.14H127.547ZM128.017 146V146.74C127.624 146.947 127.144 147.05 126.577 147.05C125.81 147.05 125.19 146.817 124.717 146.35C124.25 145.877 124.017 145.253 124.017 144.48C124.017 143.673 124.227 143.037 124.647 142.57C125.067 142.103 125.607 141.87 126.267 141.87C126.9 141.87 127.404 142.073 127.777 142.48C128.15 142.887 128.337 143.463 128.337 144.21C128.337 144.423 128.32 144.62 128.287 144.8H124.827C124.887 145.3 125.077 145.683 125.397 145.95C125.717 146.217 126.137 146.35 126.657 146.35C127.224 146.35 127.677 146.233 128.017 146ZM130.322 141.93V142.75C130.602 142.157 131.078 141.86 131.752 141.86C132.532 141.86 133.025 142.19 133.232 142.85C133.378 142.53 133.582 142.287 133.842 142.12C134.108 141.947 134.405 141.86 134.732 141.86C135.258 141.86 135.655 142.01 135.922 142.31C136.188 142.61 136.322 143.013 136.322 143.52V147H135.532V143.72C135.532 142.953 135.208 142.57 134.562 142.57C134.242 142.57 133.955 142.717 133.702 143.01C133.448 143.297 133.322 143.703 133.322 144.23V147H132.532V143.72C132.532 142.953 132.208 142.57 131.562 142.57C131.242 142.57 130.955 142.717 130.702 143.01C130.448 143.297 130.322 143.703 130.322 144.23V147H129.542V141.93H130.322ZM140.035 146.36C140.442 146.36 140.778 146.19 141.045 145.85C141.312 145.51 141.445 145.067 141.445 144.52C141.445 143.893 141.305 143.413 141.025 143.08C140.752 142.74 140.405 142.57 139.985 142.57C139.625 142.57 139.295 142.72 138.995 143.02C138.695 143.32 138.545 143.79 138.545 144.43C138.545 145.103 138.688 145.593 138.975 145.9C139.268 146.207 139.622 146.36 140.035 146.36ZM138.545 139.93V142.69C138.912 142.13 139.425 141.85 140.085 141.85C140.725 141.85 141.248 142.097 141.655 142.59C142.062 143.077 142.265 143.717 142.265 144.51C142.265 145.223 142.072 145.83 141.685 146.33C141.305 146.83 140.778 147.08 140.105 147.08C139.425 147.08 138.905 146.803 138.545 146.25V147H137.755V139.93H138.545ZM146.158 144.66H145.278C144.852 144.66 144.532 144.743 144.318 144.91C144.105 145.077 143.998 145.287 143.998 145.54C143.998 145.793 144.082 146 144.248 146.16C144.415 146.313 144.658 146.39 144.978 146.39C145.338 146.39 145.625 146.29 145.838 146.09C146.052 145.883 146.158 145.623 146.158 145.31V144.66ZM143.538 142.99V142.2C143.918 141.967 144.418 141.85 145.038 141.85C146.312 141.85 146.948 142.497 146.948 143.79V147H146.168V146.4C145.908 146.833 145.435 147.05 144.748 147.05C144.275 147.05 143.892 146.91 143.598 146.63C143.312 146.35 143.168 145.997 143.168 145.57C143.168 145.083 143.352 144.707 143.718 144.44C144.092 144.167 144.598 144.03 145.238 144.03H146.158V143.77C146.158 143.37 146.068 143.07 145.888 142.87C145.708 142.663 145.405 142.56 144.978 142.56C144.438 142.56 143.958 142.703 143.538 142.99ZM149.75 146.87L147.7 141.93H148.59L149.25 143.6L150.14 145.9C150.193 145.727 150.46 144.96 150.94 143.6L151.53 141.93H152.38L150.55 146.87C150.29 147.557 149.98 148.04 149.62 148.32C149.267 148.6 148.86 148.74 148.4 148.74C148.227 148.74 148.087 148.723 147.98 148.69V147.98C148.08 148.007 148.193 148.02 148.32 148.02C148.993 148.02 149.47 147.637 149.75 146.87ZM156.012 144.66H155.132C154.705 144.66 154.385 144.743 154.172 144.91C153.958 145.077 153.852 145.287 153.852 145.54C153.852 145.793 153.935 146 154.102 146.16C154.268 146.313 154.512 146.39 154.832 146.39C155.192 146.39 155.478 146.29 155.692 146.09C155.905 145.883 156.012 145.623 156.012 145.31V144.66ZM153.392 142.99V142.2C153.772 141.967 154.272 141.85 154.892 141.85C156.165 141.85 156.802 142.497 156.802 143.79V147H156.022V146.4C155.762 146.833 155.288 147.05 154.602 147.05C154.128 147.05 153.745 146.91 153.452 146.63C153.165 146.35 153.022 145.997 153.022 145.57C153.022 145.083 153.205 144.707 153.572 144.44C153.945 144.167 154.452 144.03 155.092 144.03H156.012V143.77C156.012 143.37 155.922 143.07 155.742 142.87C155.562 142.663 155.258 142.56 154.832 142.56C154.292 142.56 153.812 142.703 153.392 142.99ZM158.984 141.93V142.82C159.25 142.193 159.71 141.88 160.364 141.88C160.484 141.88 160.577 141.887 160.644 141.9V142.68C160.504 142.633 160.36 142.61 160.214 142.61C159.86 142.61 159.567 142.773 159.334 143.1C159.1 143.427 158.984 143.803 158.984 144.23V147H158.194L158.204 141.93H158.984ZM167.057 141.93H167.847V147H167.057V146.12C166.79 146.747 166.26 147.06 165.467 147.06C164.967 147.06 164.57 146.913 164.277 146.62C163.99 146.32 163.847 145.92 163.847 145.42V141.93H164.637V145.22C164.637 145.587 164.73 145.867 164.917 146.06C165.103 146.253 165.357 146.35 165.677 146.35C166.097 146.35 166.43 146.203 166.677 145.91C166.93 145.617 167.057 145.22 167.057 144.72V141.93ZM170.397 142.57V145.54C170.397 146.08 170.65 146.35 171.157 146.35C171.417 146.35 171.647 146.273 171.847 146.12V146.87C171.627 146.99 171.38 147.05 171.107 147.05C170.107 147.05 169.607 146.54 169.607 145.52V142.57H168.797V141.93H169.607V140.67H170.397V141.93H171.797V142.57H170.397ZM175.729 144.66H174.849C174.422 144.66 174.102 144.743 173.889 144.91C173.675 145.077 173.569 145.287 173.569 145.54C173.569 145.793 173.652 146 173.819 146.16C173.985 146.313 174.229 146.39 174.549 146.39C174.909 146.39 175.195 146.29 175.409 146.09C175.622 145.883 175.729 145.623 175.729 145.31V144.66ZM173.109 142.99V142.2C173.489 141.967 173.989 141.85 174.609 141.85C175.882 141.85 176.519 142.497 176.519 143.79V147H175.739V146.4C175.479 146.833 175.005 147.05 174.319 147.05C173.845 147.05 173.462 146.91 173.169 146.63C172.882 146.35 172.739 145.997 172.739 145.57C172.739 145.083 172.922 144.707 173.289 144.44C173.662 144.167 174.169 144.03 174.809 144.03H175.729V143.77C175.729 143.37 175.639 143.07 175.459 142.87C175.279 142.663 174.975 142.56 174.549 142.56C174.009 142.56 173.529 142.703 173.109 142.99ZM178.7 141.93V142.81C179 142.177 179.534 141.86 180.3 141.86C180.794 141.86 181.187 142.01 181.48 142.31C181.774 142.61 181.92 143.01 181.92 143.51V147H181.13V143.72C181.13 143.347 181.034 143.063 180.84 142.87C180.654 142.67 180.407 142.57 180.1 142.57C179.72 142.57 179.39 142.717 179.11 143.01C178.837 143.303 178.7 143.71 178.7 144.23V147H177.92V141.93H178.7ZM185.221 146.17C185.587 146.17 185.911 146.03 186.191 145.75C186.477 145.463 186.621 145.04 186.621 144.48C186.621 143.833 186.484 143.353 186.211 143.04C185.937 142.727 185.621 142.57 185.261 142.57C184.827 142.57 184.484 142.743 184.231 143.09C183.977 143.43 183.851 143.877 183.851 144.43C183.851 144.997 183.991 145.43 184.271 145.73C184.551 146.023 184.867 146.17 185.221 146.17ZM186.621 141.93H187.411V146.59C187.411 147.363 187.197 147.943 186.771 148.33C186.344 148.723 185.794 148.92 185.121 148.92C184.507 148.92 183.984 148.817 183.551 148.61V147.82C183.977 148.067 184.477 148.19 185.051 148.19C185.537 148.19 185.921 148.06 186.201 147.8C186.481 147.54 186.621 147.133 186.621 146.58V146.01C186.287 146.583 185.791 146.87 185.131 146.87C184.551 146.87 184.054 146.657 183.641 146.23C183.234 145.803 183.031 145.21 183.031 144.45C183.031 143.697 183.221 143.077 183.601 142.59C183.981 142.103 184.477 141.86 185.091 141.86C185.784 141.86 186.294 142.163 186.621 142.77V141.93ZM193.181 146.36C193.594 146.36 193.944 146.207 194.231 145.9C194.524 145.593 194.671 145.103 194.671 144.43C194.671 143.79 194.521 143.32 194.221 143.02C193.921 142.72 193.591 142.57 193.231 142.57C192.811 142.57 192.461 142.74 192.181 143.08C191.907 143.413 191.771 143.893 191.771 144.52C191.771 145.067 191.904 145.51 192.171 145.85C192.437 146.19 192.774 146.36 193.181 146.36ZM194.671 139.93H195.461V147H194.671V146.25C194.311 146.803 193.791 147.08 193.111 147.08C192.437 147.08 191.907 146.83 191.521 146.33C191.141 145.83 190.951 145.223 190.951 144.51C190.951 143.717 191.154 143.077 191.561 142.59C191.967 142.097 192.491 141.85 193.131 141.85C193.791 141.85 194.304 142.133 194.671 142.7V139.93ZM200.154 144.14V143.94C200.154 143.52 200.041 143.187 199.814 142.94C199.588 142.687 199.274 142.56 198.874 142.56C198.494 142.56 198.171 142.697 197.904 142.97C197.638 143.243 197.481 143.633 197.434 144.14H200.154ZM200.624 146V146.74C200.231 146.947 199.751 147.05 199.184 147.05C198.418 147.05 197.798 146.817 197.324 146.35C196.858 145.877 196.624 145.253 196.624 144.48C196.624 143.673 196.834 143.037 197.254 142.57C197.674 142.103 198.214 141.87 198.874 141.87C199.508 141.87 200.011 142.073 200.384 142.48C200.758 142.887 200.944 143.463 200.944 144.21C200.944 144.423 200.928 144.62 200.894 144.8H197.434C197.494 145.3 197.684 145.683 198.004 145.95C198.324 146.217 198.744 146.35 199.264 146.35C199.831 146.35 200.284 146.233 200.624 146ZM202.929 141.93V142.81C203.229 142.177 203.762 141.86 204.529 141.86C205.022 141.86 205.416 142.01 205.709 142.31C206.002 142.61 206.149 143.01 206.149 143.51V147H205.359V143.72C205.359 143.347 205.262 143.063 205.069 142.87C204.882 142.67 204.636 142.57 204.329 142.57C203.949 142.57 203.619 142.717 203.339 143.01C203.066 143.303 202.929 143.71 202.929 144.23V147H202.149V141.93H202.929ZM209.449 146.17C209.816 146.17 210.139 146.03 210.419 145.75C210.706 145.463 210.849 145.04 210.849 144.48C210.849 143.833 210.713 143.353 210.439 143.04C210.166 142.727 209.849 142.57 209.489 142.57C209.056 142.57 208.713 142.743 208.459 143.09C208.206 143.43 208.079 143.877 208.079 144.43C208.079 144.997 208.219 145.43 208.499 145.73C208.779 146.023 209.096 146.17 209.449 146.17ZM210.849 141.93H211.639V146.59C211.639 147.363 211.426 147.943 210.999 148.33C210.573 148.723 210.023 148.92 209.349 148.92C208.736 148.92 208.213 148.817 207.779 148.61V147.82C208.206 148.067 208.706 148.19 209.279 148.19C209.766 148.19 210.149 148.06 210.429 147.8C210.709 147.54 210.849 147.133 210.849 146.58V146.01C210.516 146.583 210.019 146.87 209.359 146.87C208.779 146.87 208.283 146.657 207.869 146.23C207.463 145.803 207.259 145.21 207.259 144.45C207.259 143.697 207.449 143.077 207.829 142.59C208.209 142.103 208.706 141.86 209.319 141.86C210.013 141.86 210.523 142.163 210.849 142.77V141.93ZM215.768 144.66H214.888C214.461 144.66 214.141 144.743 213.928 144.91C213.714 145.077 213.608 145.287 213.608 145.54C213.608 145.793 213.691 146 213.858 146.16C214.024 146.313 214.268 146.39 214.588 146.39C214.948 146.39 215.234 146.29 215.448 146.09C215.661 145.883 215.768 145.623 215.768 145.31V144.66ZM213.148 142.99V142.2C213.528 141.967 214.028 141.85 214.648 141.85C215.921 141.85 216.558 142.497 216.558 143.79V147H215.778V146.4C215.518 146.833 215.044 147.05 214.358 147.05C213.884 147.05 213.501 146.91 213.208 146.63C212.921 146.35 212.778 145.997 212.778 145.57C212.778 145.083 212.961 144.707 213.328 144.44C213.701 144.167 214.208 144.03 214.848 144.03H215.768V143.77C215.768 143.37 215.678 143.07 215.498 142.87C215.318 142.663 215.014 142.56 214.588 142.56C214.048 142.56 213.568 142.703 213.148 142.99ZM218.739 141.93V142.81C219.039 142.177 219.573 141.86 220.339 141.86C220.833 141.86 221.226 142.01 221.519 142.31C221.813 142.61 221.959 143.01 221.959 143.51V147H221.169V143.72C221.169 143.347 221.073 143.063 220.879 142.87C220.693 142.67 220.446 142.57 220.139 142.57C219.759 142.57 219.429 142.717 219.149 143.01C218.876 143.303 218.739 143.71 218.739 144.23V147H217.959V141.93H218.739ZM226.581 141.93V142.81C226.881 142.177 227.415 141.86 228.181 141.86C228.675 141.86 229.068 142.01 229.361 142.31C229.655 142.61 229.801 143.01 229.801 143.51V147H229.011V143.72C229.011 143.347 228.915 143.063 228.721 142.87C228.535 142.67 228.288 142.57 227.981 142.57C227.601 142.57 227.271 142.717 226.991 143.01C226.718 143.303 226.581 143.71 226.581 144.23V147H225.801V141.93H226.581ZM233.262 147.09C232.535 147.09 231.958 146.847 231.532 146.36C231.112 145.867 230.902 145.247 230.902 144.5C230.902 143.747 231.118 143.12 231.552 142.62C231.992 142.113 232.562 141.86 233.262 141.86C234.028 141.86 234.618 142.107 235.032 142.6C235.452 143.093 235.662 143.72 235.662 144.48C235.662 145.233 235.448 145.857 235.022 146.35C234.595 146.843 234.008 147.09 233.262 147.09ZM233.262 142.56C232.782 142.56 232.405 142.747 232.132 143.12C231.858 143.493 231.722 143.95 231.722 144.49C231.722 145.017 231.862 145.467 232.142 145.84C232.422 146.207 232.795 146.39 233.262 146.39C233.768 146.39 234.158 146.21 234.432 145.85C234.705 145.483 234.842 145.03 234.842 144.49C234.842 143.93 234.712 143.47 234.452 143.11C234.192 142.743 233.795 142.56 233.262 142.56ZM237.597 141.93V142.75C237.877 142.157 238.354 141.86 239.027 141.86C239.807 141.86 240.3 142.19 240.507 142.85C240.654 142.53 240.857 142.287 241.117 142.12C241.384 141.947 241.68 141.86 242.007 141.86C242.534 141.86 242.93 142.01 243.197 142.31C243.464 142.61 243.597 143.013 243.597 143.52V147H242.807V143.72C242.807 142.953 242.484 142.57 241.837 142.57C241.517 142.57 241.23 142.717 240.977 143.01C240.724 143.297 240.597 143.703 240.597 144.23V147H239.807V143.72C239.807 142.953 239.484 142.57 238.837 142.57C238.517 142.57 238.23 142.717 237.977 143.01C237.724 143.297 237.597 143.703 237.597 144.23V147H236.817V141.93H237.597ZM245.041 147V141.93H245.831V147H245.041ZM245.061 140.71C244.967 140.61 244.921 140.487 244.921 140.34C244.921 140.193 244.967 140.07 245.061 139.97C245.161 139.87 245.284 139.82 245.431 139.82C245.577 139.82 245.701 139.87 245.801 139.97C245.901 140.07 245.951 140.193 245.951 140.34C245.951 140.487 245.901 140.61 245.801 140.71C245.701 140.803 245.577 140.85 245.431 140.85C245.284 140.85 245.161 140.803 245.061 140.71ZM248.114 141.93V142.81C248.414 142.177 248.948 141.86 249.714 141.86C250.208 141.86 250.601 142.01 250.894 142.31C251.188 142.61 251.334 143.01 251.334 143.51V147H250.544V143.72C250.544 143.347 250.448 143.063 250.254 142.87C250.068 142.67 249.821 142.57 249.514 142.57C249.134 142.57 248.804 142.717 248.524 143.01C248.251 143.303 248.114 143.71 248.114 144.23V147H247.334V141.93H248.114ZM255.465 144.66H254.585C254.158 144.66 253.838 144.743 253.625 144.91C253.412 145.077 253.305 145.287 253.305 145.54C253.305 145.793 253.388 146 253.555 146.16C253.722 146.313 253.965 146.39 254.285 146.39C254.645 146.39 254.932 146.29 255.145 146.09C255.358 145.883 255.465 145.623 255.465 145.31V144.66ZM252.845 142.99V142.2C253.225 141.967 253.725 141.85 254.345 141.85C255.618 141.85 256.255 142.497 256.255 143.79V147H255.475V146.4C255.215 146.833 254.742 147.05 254.055 147.05C253.582 147.05 253.198 146.91 252.905 146.63C252.618 146.35 252.475 145.997 252.475 145.57C252.475 145.083 252.658 144.707 253.025 144.44C253.398 144.167 253.905 144.03 254.545 144.03H255.465V143.77C255.465 143.37 255.375 143.07 255.195 142.87C255.015 142.663 254.712 142.56 254.285 142.56C253.745 142.56 253.265 142.703 252.845 142.99ZM257.697 147V139.93H258.487V147H257.697Z" fill="#2B2B2B"/>
<path d="M130.96 169.3V171.5H131.8C132.187 171.5 132.477 171.403 132.67 171.21C132.863 171.01 132.96 170.733 132.96 170.38C132.96 170.033 132.857 169.767 132.65 169.58C132.45 169.393 132.16 169.3 131.78 169.3H130.96ZM133.18 175L131.65 172.54H130.96V175H129.7V168.26H131.78C132.547 168.26 133.147 168.453 133.58 168.84C134.02 169.227 134.24 169.743 134.24 170.39C134.233 170.87 134.117 171.277 133.89 171.61C133.663 171.937 133.353 172.18 132.96 172.34L134.69 175H133.18ZM137.999 174.04C138.359 174.04 138.652 173.903 138.879 173.63C139.105 173.35 139.219 172.96 139.219 172.46C139.219 171.96 139.105 171.573 138.879 171.3C138.652 171.02 138.365 170.88 138.019 170.88C137.672 170.88 137.372 171.01 137.119 171.27C136.865 171.53 136.739 171.917 136.739 172.43C136.739 172.943 136.862 173.34 137.109 173.62C137.355 173.9 137.652 174.04 137.999 174.04ZM136.739 169.93V170.71C137.099 170.143 137.615 169.86 138.289 169.86C138.949 169.86 139.472 170.097 139.859 170.57C140.252 171.043 140.449 171.667 140.449 172.44C140.449 173.2 140.252 173.83 139.859 174.33C139.472 174.823 138.945 175.07 138.279 175.07C137.599 175.07 137.085 174.793 136.739 174.24V176.91H135.539V169.93H136.739ZM145.297 173.97H147.907V175H143.637V174.04C144.417 173.487 145.09 172.897 145.657 172.27C146.223 171.637 146.507 171.067 146.507 170.56C146.507 170.227 146.41 169.967 146.217 169.78C146.023 169.593 145.743 169.5 145.377 169.5C144.823 169.5 144.293 169.707 143.787 170.12V168.95C144.007 168.783 144.28 168.647 144.607 168.54C144.933 168.433 145.26 168.38 145.587 168.38C146.227 168.38 146.747 168.557 147.147 168.91C147.553 169.257 147.757 169.747 147.757 170.38C147.757 171.567 146.937 172.763 145.297 173.97ZM148.857 174.85C148.704 174.697 148.627 174.513 148.627 174.3C148.627 174.087 148.704 173.907 148.857 173.76C149.01 173.607 149.194 173.53 149.407 173.53C149.62 173.53 149.8 173.607 149.947 173.76C150.1 173.907 150.177 174.087 150.177 174.3C150.177 174.513 150.1 174.697 149.947 174.85C149.8 175.003 149.62 175.08 149.407 175.08C149.194 175.08 149.01 175.003 148.857 174.85ZM151.084 169.88V168.75C151.537 168.503 152.014 168.38 152.514 168.38C153.2 168.38 153.737 168.547 154.124 168.88C154.517 169.213 154.714 169.64 154.714 170.16C154.714 170.913 154.37 171.427 153.684 171.7C154.057 171.793 154.347 171.97 154.554 172.23C154.76 172.483 154.864 172.807 154.864 173.2C154.864 173.747 154.66 174.193 154.254 174.54C153.854 174.88 153.29 175.05 152.564 175.05C151.89 175.05 151.317 174.94 150.844 174.72V173.55C151.364 173.83 151.91 173.97 152.484 173.97C152.844 173.97 153.124 173.887 153.324 173.72C153.53 173.547 153.634 173.327 153.634 173.06C153.634 172.48 153.164 172.19 152.224 172.19H151.844V171.18H152.224C152.577 171.18 152.874 171.103 153.114 170.95C153.354 170.797 153.474 170.58 153.474 170.3C153.474 169.74 153.13 169.46 152.444 169.46C151.99 169.46 151.537 169.6 151.084 169.88ZM155.65 171.7C155.65 170.667 155.853 169.85 156.26 169.25C156.666 168.643 157.243 168.34 157.99 168.34C158.743 168.34 159.323 168.643 159.73 169.25C160.143 169.85 160.35 170.667 160.35 171.7C160.35 172.727 160.146 173.547 159.74 174.16C159.34 174.773 158.756 175.08 157.99 175.08C157.243 175.08 156.666 174.773 156.26 174.16C155.853 173.547 155.65 172.727 155.65 171.7ZM157.18 170.02C156.98 170.407 156.88 170.967 156.88 171.7C156.88 172.433 156.976 173 157.17 173.4C157.37 173.793 157.643 173.99 157.99 173.99C158.35 173.99 158.626 173.793 158.82 173.4C159.02 173.007 159.12 172.44 159.12 171.7C159.12 170.96 159.016 170.397 158.81 170.01C158.61 169.623 158.336 169.43 157.99 169.43C157.65 169.43 157.38 169.627 157.18 170.02ZM161.109 171.7C161.109 170.667 161.312 169.85 161.719 169.25C162.125 168.643 162.702 168.34 163.449 168.34C164.202 168.34 164.782 168.643 165.189 169.25C165.602 169.85 165.809 170.667 165.809 171.7C165.809 172.727 165.605 173.547 165.199 174.16C164.799 174.773 164.215 175.08 163.449 175.08C162.702 175.08 162.125 174.773 161.719 174.16C161.312 173.547 161.109 172.727 161.109 171.7ZM162.639 170.02C162.439 170.407 162.339 170.967 162.339 171.7C162.339 172.433 162.435 173 162.629 173.4C162.829 173.793 163.102 173.99 163.449 173.99C163.809 173.99 164.085 173.793 164.279 173.4C164.479 173.007 164.579 172.44 164.579 171.7C164.579 170.96 164.475 170.397 164.269 170.01C164.069 169.623 163.795 169.43 163.449 169.43C163.109 169.43 162.839 169.627 162.639 170.02ZM166.758 174.85C166.604 174.697 166.528 174.513 166.528 174.3C166.528 174.087 166.604 173.907 166.758 173.76C166.911 173.607 167.094 173.53 167.308 173.53C167.521 173.53 167.701 173.607 167.848 173.76C168.001 173.907 168.078 174.087 168.078 174.3C168.078 174.513 168.001 174.697 167.848 174.85C167.701 175.003 167.521 175.08 167.308 175.08C167.094 175.08 166.911 175.003 166.758 174.85ZM168.794 171.7C168.794 170.667 168.997 169.85 169.404 169.25C169.811 168.643 170.387 168.34 171.134 168.34C171.887 168.34 172.467 168.643 172.874 169.25C173.287 169.85 173.494 170.667 173.494 171.7C173.494 172.727 173.291 173.547 172.884 174.16C172.484 174.773 171.901 175.08 171.134 175.08C170.387 175.08 169.811 174.773 169.404 174.16C168.997 173.547 168.794 172.727 168.794 171.7ZM170.324 170.02C170.124 170.407 170.024 170.967 170.024 171.7C170.024 172.433 170.121 173 170.314 173.4C170.514 173.793 170.787 173.99 171.134 173.99C171.494 173.99 171.771 173.793 171.964 173.4C172.164 173.007 172.264 172.44 172.264 171.7C172.264 170.96 172.161 170.397 171.954 170.01C171.754 169.623 171.481 169.43 171.134 169.43C170.794 169.43 170.524 169.627 170.324 170.02ZM174.253 171.7C174.253 170.667 174.456 169.85 174.863 169.25C175.27 168.643 175.846 168.34 176.593 168.34C177.346 168.34 177.926 168.643 178.333 169.25C178.746 169.85 178.953 170.667 178.953 171.7C178.953 172.727 178.75 173.547 178.343 174.16C177.943 174.773 177.36 175.08 176.593 175.08C175.846 175.08 175.27 174.773 174.863 174.16C174.456 173.547 174.253 172.727 174.253 171.7ZM175.783 170.02C175.583 170.407 175.483 170.967 175.483 171.7C175.483 172.433 175.58 173 175.773 173.4C175.973 173.793 176.246 173.99 176.593 173.99C176.953 173.99 177.23 173.793 177.423 173.4C177.623 173.007 177.723 172.44 177.723 171.7C177.723 170.96 177.62 170.397 177.413 170.01C177.213 169.623 176.94 169.43 176.593 169.43C176.253 169.43 175.983 169.627 175.783 170.02ZM179.712 171.7C179.712 170.667 179.915 169.85 180.322 169.25C180.729 168.643 181.305 168.34 182.052 168.34C182.805 168.34 183.385 168.643 183.792 169.25C184.205 169.85 184.412 170.667 184.412 171.7C184.412 172.727 184.209 173.547 183.802 174.16C183.402 174.773 182.819 175.08 182.052 175.08C181.305 175.08 180.729 174.773 180.322 174.16C179.915 173.547 179.712 172.727 179.712 171.7ZM181.242 170.02C181.042 170.407 180.942 170.967 180.942 171.7C180.942 172.433 181.039 173 181.232 173.4C181.432 173.793 181.705 173.99 182.052 173.99C182.412 173.99 182.689 173.793 182.882 173.4C183.082 173.007 183.182 172.44 183.182 171.7C183.182 170.96 183.079 170.397 182.872 170.01C182.672 169.623 182.399 169.43 182.052 169.43C181.712 169.43 181.442 169.627 181.242 170.02Z" fill="#DA011C"/>
<g filter="url(#filter1_d_1124_4113)">
<rect x="115" y="192" width="84" height="22" rx="8" fill="#FF1934" shape-rendering="crispEdges"/>
<path d="M151.942 202.288C151.942 201.451 152.171 200.779 152.63 200.272C153.094 199.765 153.712 199.512 154.486 199.512C155.27 199.512 155.891 199.765 156.35 200.272C156.808 200.773 157.038 201.445 157.038 202.288C157.038 203.12 156.806 203.789 156.342 204.296C155.883 204.803 155.267 205.056 154.494 205.056C153.72 205.056 153.102 204.803 152.638 204.296C152.174 203.789 151.942 203.12 151.942 202.288ZM153.022 202.288C153.022 202.853 153.155 203.301 153.422 203.632C153.688 203.963 154.046 204.128 154.494 204.128C154.947 204.128 155.304 203.965 155.566 203.64C155.827 203.309 155.958 202.859 155.958 202.288C155.958 201.717 155.827 201.267 155.566 200.936C155.304 200.605 154.944 200.44 154.486 200.44C154.032 200.44 153.675 200.605 153.414 200.936C153.152 201.267 153.022 201.717 153.022 202.288ZM157.939 205L157.939 199.608L158.947 199.608L158.947 205L157.939 205ZM160.227 202.312L162.235 205L160.963 205L159.027 202.328L160.891 199.608L162.099 199.608L160.227 202.312Z" fill="white"/>
</g>
<defs>
<filter id="filter0_d_1124_4113" x="-4" y="-2" width="322" height="56" filterUnits="userSpaceOnUse" color-interpolation-filters="sRGB">
<feFlood flood-opacity="0" result="BackgroundImageFix"/>
<feColorMatrix in="SourceAlpha" type="matrix" values="0 0 0 0 0 0 0 0 0 0 0 0 0 0 0 0 0 0 127 0" result="hardAlpha"/>
<feOffset dy="2"/>
<feGaussianBlur stdDeviation="2"/>
<feComposite in2="hardAlpha" operator="out"/>
<feColorMatrix type="matrix" values="0 0 0 0 0.168627 0 0 0 0 0.168627 0 0 0 0 0.168627 0 0 0 0.24 0"/>
<feBlend mode="normal" in2="BackgroundImageFix" result="effect1_dropShadow_1124_4113"/>
<feBlend mode="normal" in="SourceGraphic" in2="effect1_dropShadow_1124_4113" result="shape"/>
</filter>
<filter id="filter1_d_1124_4113" x="109" y="186" width="100" height="38" filterUnits="userSpaceOnUse" color-interpolation-filters="sRGB">
<feFlood flood-opacity="0" result="BackgroundImageFix"/>
<feColorMatrix in="SourceAlpha" type="matrix" values="0 0 0 0 0 0 0 0 0 0 0 0 0 0 0 0 0 0 127 0" result="hardAlpha"/>
<feOffset dx="2" dy="2"/>
<feGaussianBlur stdDeviation="4"/>
<feComposite in2="hardAlpha" operator="out"/>
<feColorMatrix type="matrix" values="0 0 0 0 0 0 0 0 0 0 0 0 0 0 0 0 0 0 0.12 0"/>
<feBlend mode="normal" in2="BackgroundImageFix" result="effect1_dropShadow_1124_4113"/>
<feBlend mode="normal" in="SourceGraphic" in2="effect1_dropShadow_1124_4113" result="shape"/>
</filter>
<clipPath id="clip0_1124_4113">
<rect width="24" height="24" fill="white" transform="translate(16 16)"/>
</clipPath>
<clipPath id="clip1_1124_4113">
<rect width="64" height="64" fill="white" transform="translate(125 72)"/>
</clipPath>
</defs>
</svg>
