<svg width="314" height="270" viewBox="0 0 314 270" fill="none" xmlns="http://www.w3.org/2000/svg">
<rect width="314" height="270" fill="#D3D3D3"/>
<rect width="314" height="270" rx="16" fill="white"/>
<g filter="url(#filter0_d_1124_4113)">
<path d="M0 16C0 7.16344 7.16344 0 16 0H298C306.837 0 314 7.16344 314 16V48H0V16Z" fill="#FF1934" shape-rendering="crispEdges"/>
<g clip-path="url(#clip0_1124_4113)">
<path d="M35.04 35.3999H20.96C20.52 35.3999 20.16 35.7599 20.16 36.1999C20.16 36.6399 20.52 36.9999 20.96 36.9999H35.04C35.48 36.9999 35.84 36.6399 35.84 36.1999C35.84 35.7599 35.48 35.3999 35.04 35.3999Z" fill="white"/>
<path d="M20.96 27.2001H21.83V33.2001C21.83 33.6401 22.19 34.0001 22.63 34.0001C23.07 34.0001 23.43 33.6401 23.43 33.2001V28.0001C23.43 27.5601 23.79 27.2001 24.23 27.2001H24.61C25.05 27.2001 25.41 27.5601 25.41 28.0001V33.2001C25.41 33.6401 25.77 34.0001 26.21 34.0001C26.65 34.0001 27.01 33.6401 27.01 33.2001V28.0001C27.01 27.5601 27.37 27.2001 27.81 27.2001H28.19C28.63 27.2001 28.99 27.5601 28.99 28.0001V33.2001C28.99 33.6401 29.35 34.0001 29.79 34.0001C30.23 34.0001 30.59 33.6401 30.59 33.2001V28.0001C30.59 27.5601 30.95 27.2001 31.39 27.2001H31.77C32.21 27.2001 32.57 27.5601 32.57 28.0001V33.2001C32.57 33.6401 32.93 34.0001 33.37 34.0001C33.81 34.0001 34.17 33.6401 34.17 33.2001V27.2001H35.04C35.48 27.2001 35.84 26.8401 35.84 26.4001C35.84 25.9601 35.48 25.6001 35.04 25.6001H20.96C20.52 25.6001 20.16 25.9601 20.16 26.4001C20.16 26.8401 20.52 27.2001 20.96 27.2001Z" fill="white"/>
<path d="M21.3399 24.3099L27.5299 20.9599C27.8299 20.7999 28.1799 20.7999 28.4799 20.9599L34.6699 24.3099C34.7899 24.3799 34.9199 24.4099 35.0499 24.4099C35.3299 24.4099 35.6099 24.2599 35.7599 23.9899C35.9699 23.5999 35.8299 23.1199 35.4399 22.9099L28.3999 19.0999C28.1599 18.9699 27.8799 18.9699 27.6399 19.0999L20.5999 22.9099C20.2099 23.1199 20.0699 23.6099 20.2799 23.9899C20.4899 24.3799 20.9799 24.5199 21.3599 24.3099H21.3399Z" fill="white"/>
</g>
<path d="M54.356 28.36V22.564H56.512V28.346C56.512 29.578 56.1667 30.5207 55.476 31.174C54.7853 31.818 53.852 32.14 52.676 32.14C51.5187 32.14 50.59 31.818 49.89 31.174C49.19 30.53 48.84 29.62 48.84 28.444V22.564H50.996V28.43C50.996 29.5967 51.556 30.18 52.676 30.18C53.796 30.18 54.356 29.5733 54.356 28.36ZM60.5576 26.4V29.662C60.5576 29.914 60.6276 30.1053 60.7676 30.236C60.9169 30.3667 61.1082 30.432 61.3416 30.432C61.7149 30.432 62.0462 30.3387 62.3356 30.152V31.846C61.9902 31.9953 61.5236 32.07 60.9356 32.07C59.3209 32.07 58.5136 31.2627 58.5136 29.648V26.4H57.4916V24.902H58.5136V23.222H60.5576V24.902H62.2096V26.4H60.5576ZM67.106 29.088H66.448C66.1026 29.088 65.8366 29.1627 65.65 29.312C65.4633 29.4613 65.37 29.6527 65.37 29.886C65.37 30.362 65.6453 30.6 66.196 30.6C66.4853 30.6 66.7093 30.5113 66.868 30.334C67.0266 30.1567 67.106 29.914 67.106 29.606V29.088ZM63.788 27.086V25.252C64.348 24.9347 65.1553 24.776 66.21 24.776C67.218 24.776 67.9693 24.9953 68.464 25.434C68.9586 25.8633 69.206 26.5353 69.206 27.45V32H67.204V31.132C66.9053 31.7387 66.3173 32.042 65.44 32.042C64.7493 32.042 64.208 31.846 63.816 31.454C63.4333 31.062 63.242 30.572 63.242 29.984C63.242 29.3027 63.4893 28.7753 63.984 28.402C64.488 28.0193 65.23 27.828 66.21 27.828H67.106V27.338C67.106 26.7407 66.7093 26.442 65.916 26.442C65.1506 26.442 64.4413 26.6567 63.788 27.086ZM72.8547 24.902V26.106C73.032 25.714 73.3027 25.406 73.6667 25.182C74.04 24.9487 74.4834 24.832 74.9967 24.832C75.7247 24.832 76.294 25.0513 76.7047 25.49C77.1154 25.9193 77.3207 26.554 77.3207 27.394V32H75.2767V27.772C75.2767 27.352 75.1787 27.0347 74.9827 26.82C74.7867 26.596 74.5114 26.484 74.1567 26.484C73.7834 26.484 73.4707 26.6333 73.2187 26.932C72.976 27.2213 72.8547 27.66 72.8547 28.248V32H70.8107V24.902H72.8547ZM82.0818 30.138C82.5205 30.138 82.8611 29.9747 83.1038 29.648C83.3558 29.312 83.4818 28.9107 83.4818 28.444C83.4818 27.1747 83.0198 26.54 82.0958 26.54C81.6851 26.54 81.3631 26.6987 81.1298 27.016C80.8965 27.3333 80.7798 27.772 80.7798 28.332C80.7798 28.92 80.8918 29.368 81.1158 29.676C81.3398 29.984 81.6618 30.138 82.0818 30.138ZM83.4818 24.902H85.5118V31.314C85.5118 32.4527 85.1711 33.3067 84.4898 33.876C83.8085 34.4547 82.9545 34.744 81.9278 34.744C80.9291 34.744 80.0565 34.5667 79.3098 34.212V32.126C79.9631 32.6487 80.7658 32.91 81.7178 32.91C82.3338 32.91 82.7818 32.7793 83.0618 32.518C83.3418 32.2567 83.4818 31.846 83.4818 31.286V30.81C83.0711 31.4447 82.4178 31.762 81.5218 31.762C80.7378 31.762 80.0611 31.4727 79.4918 30.894C78.9318 30.3153 78.6518 29.4567 78.6518 28.318C78.6518 27.31 78.9225 26.4793 79.4638 25.826C80.0145 25.1633 80.7331 24.832 81.6198 24.832C82.4598 24.832 83.0805 25.168 83.4818 25.84V24.902Z" fill="white"/>
</g>
<g clip-path="url(#clip1_1124_4113)">
<path d="M157 126.07C146.272 126.07 137.544 124.347 137.544 122.23C137.544 120.113 146.272 118.39 157 118.39C167.728 118.39 176.456 120.113 176.456 122.23C176.456 124.347 167.728 126.07 157 126.07Z" fill="#CCCCCC"/>
<path d="M150.331 111.067C148.639 111.067 146.947 110.449 145.598 109.213L136.178 100.58C134.684 99.2121 134.582 96.8901 135.952 95.3964C137.32 93.9007 139.642 93.8021 141.136 95.1705L150.556 103.803L172.865 82.9465C174.361 81.5807 176.682 81.6793 178.049 83.1724C179.419 84.6661 179.316 86.9881 177.823 88.3564L155.063 109.213C153.714 110.449 152.022 111.067 150.331 111.067H150.331Z" fill="#008C1E"/>
<path d="M153.756 123.014C152.933 123.014 152.11 122.954 151.454 122.833L146.871 121.991C146.145 121.857 146.095 121.63 146.761 121.485C147.427 121.339 148.556 121.329 149.283 121.463L153.865 122.305L164.716 120.269C165.444 120.136 166.573 120.146 167.238 120.291C167.904 120.437 167.854 120.663 167.128 120.797L156.057 122.833C155.401 122.953 154.578 123.014 153.756 123.014Z" fill="#F1F1F1"/>
</g>
<path d="M35.9104 144.54H38.3004L38.1704 144.15L37.1204 140.91C37.0404 141.197 36.6804 142.28 36.0404 144.16L35.9104 144.54ZM39.1204 147L38.5304 145.23H35.6804L35.0804 147H34.2104L36.5604 140.26H37.6804L39.9904 147H39.1204ZM41.8547 141.93V142.81C42.1547 142.177 42.6881 141.86 43.4547 141.86C43.9481 141.86 44.3414 142.01 44.6347 142.31C44.9281 142.61 45.0747 143.01 45.0747 143.51V147H44.2847V143.72C44.2847 143.347 44.1881 143.063 43.9947 142.87C43.8081 142.67 43.5614 142.57 43.2547 142.57C42.8747 142.57 42.5447 142.717 42.2647 143.01C41.9914 143.303 41.8547 143.71 41.8547 144.23V147H41.0747V141.93H41.8547ZM48.4051 146.36C48.8185 146.36 49.1685 146.207 49.4551 145.9C49.7485 145.593 49.8951 145.103 49.8951 144.43C49.8951 143.79 49.7451 143.32 49.4451 143.02C49.1451 142.72 48.8151 142.57 48.4551 142.57C48.0351 142.57 47.6851 142.74 47.4051 143.08C47.1318 143.413 46.9951 143.893 46.9951 144.52C46.9951 145.067 47.1285 145.51 47.3951 145.85C47.6618 146.19 47.9985 146.36 48.4051 146.36ZM49.8951 139.93H50.6851V147H49.8951V146.25C49.5351 146.803 49.0151 147.08 48.3351 147.08C47.6618 147.08 47.1318 146.83 46.7451 146.33C46.3651 145.83 46.1751 145.223 46.1751 144.51C46.1751 143.717 46.3785 143.077 46.7851 142.59C47.1918 142.097 47.7151 141.85 48.3551 141.85C49.0151 141.85 49.5285 142.133 49.8951 142.7V139.93ZM54.8789 144.66H53.9989C53.5723 144.66 53.2523 144.743 53.0389 144.91C52.8256 145.077 52.7189 145.287 52.7189 145.54C52.7189 145.793 52.8023 146 52.9689 146.16C53.1356 146.313 53.3789 146.39 53.6989 146.39C54.0589 146.39 54.3456 146.29 54.5589 146.09C54.7723 145.883 54.8789 145.623 54.8789 145.31V144.66ZM52.2589 142.99V142.2C52.6389 141.967 53.1389 141.85 53.7589 141.85C55.0323 141.85 55.6689 142.497 55.6689 143.79V147H54.8889V146.4C54.6289 146.833 54.1556 147.05 53.4689 147.05C52.9956 147.05 52.6123 146.91 52.3189 146.63C52.0323 146.35 51.8889 145.997 51.8889 145.57C51.8889 145.083 52.0723 144.707 52.4389 144.44C52.8123 144.167 53.3189 144.03 53.9589 144.03H54.8789V143.77C54.8789 143.37 54.7889 143.07 54.6089 142.87C54.4289 142.663 54.1256 142.56 53.6989 142.56C53.1589 142.56 52.6789 142.703 52.2589 142.99ZM62.2422 144.66H61.3622C60.9356 144.66 60.6156 144.743 60.4022 144.91C60.1889 145.077 60.0822 145.287 60.0822 145.54C60.0822 145.793 60.1656 146 60.3322 146.16C60.4989 146.313 60.7422 146.39 61.0622 146.39C61.4222 146.39 61.7089 146.29 61.9222 146.09C62.1356 145.883 62.2422 145.623 62.2422 145.31V144.66ZM59.6222 142.99V142.2C60.0022 141.967 60.5022 141.85 61.1222 141.85C62.3956 141.85 63.0322 142.497 63.0322 143.79V147H62.2522V146.4C61.9922 146.833 61.5189 147.05 60.8322 147.05C60.3589 147.05 59.9756 146.91 59.6822 146.63C59.3956 146.35 59.2522 145.997 59.2522 145.57C59.2522 145.083 59.4356 144.707 59.8022 144.44C60.1756 144.167 60.6822 144.03 61.3222 144.03H62.2422V143.77C62.2422 143.37 62.1522 143.07 61.9722 142.87C61.7922 142.663 61.4889 142.56 61.0622 142.56C60.5222 142.56 60.0422 142.703 59.6222 142.99ZM64.4341 147V139.97H65.2141V147H64.4341ZM66.2441 144.34L68.3041 147H67.3541L65.3141 144.34L67.3041 141.93H68.2441L66.2441 144.34ZM71.9688 144.66H71.0888C70.6621 144.66 70.3421 144.743 70.1288 144.91C69.9155 145.077 69.8088 145.287 69.8088 145.54C69.8088 145.793 69.8921 146 70.0588 146.16C70.2255 146.313 70.4688 146.39 70.7888 146.39C71.1488 146.39 71.4355 146.29 71.6488 146.09C71.8621 145.883 71.9688 145.623 71.9688 145.31V144.66ZM69.3488 142.99V142.2C69.7288 141.967 70.2288 141.85 70.8488 141.85C72.1221 141.85 72.7588 142.497 72.7588 143.79V147H71.9788V146.4C71.7188 146.833 71.2455 147.05 70.5588 147.05C70.0855 147.05 69.7021 146.91 69.4088 146.63C69.1221 146.35 68.9788 145.997 68.9788 145.57C68.9788 145.083 69.1621 144.707 69.5288 144.44C69.9021 144.167 70.4088 144.03 71.0488 144.03H71.9688V143.77C71.9688 143.37 71.8788 143.07 71.6988 142.87C71.5188 142.663 71.2155 142.56 70.7888 142.56C70.2488 142.56 69.7688 142.703 69.3488 142.99ZM74.9407 141.93V142.81C75.2407 142.177 75.774 141.86 76.5407 141.86C77.034 141.86 77.4273 142.01 77.7207 142.31C78.014 142.61 78.1607 143.01 78.1607 143.51V147H77.3707V143.72C77.3707 143.347 77.274 143.063 77.0807 142.87C76.894 142.67 76.6473 142.57 76.3407 142.57C75.9607 142.57 75.6307 142.717 75.3507 143.01C75.0773 143.303 74.9407 143.71 74.9407 144.23V147H74.1607V141.93H74.9407ZM82.7825 141.93V142.75C83.0625 142.157 83.5391 141.86 84.2125 141.86C84.9925 141.86 85.4858 142.19 85.6925 142.85C85.8391 142.53 86.0425 142.287 86.3025 142.12C86.5691 141.947 86.8658 141.86 87.1925 141.86C87.7191 141.86 88.1158 142.01 88.3825 142.31C88.6491 142.61 88.7825 143.013 88.7825 143.52V147H87.9925V143.72C87.9925 142.953 87.6691 142.57 87.0225 142.57C86.7025 142.57 86.4158 142.717 86.1625 143.01C85.9091 143.297 85.7825 143.703 85.7825 144.23V147H84.9925V143.72C84.9925 142.953 84.6691 142.57 84.0225 142.57C83.7025 142.57 83.4158 142.717 83.1625 143.01C82.9091 143.297 82.7825 143.703 82.7825 144.23V147H82.0025V141.93H82.7825ZM93.4161 144.14V143.94C93.4161 143.52 93.3027 143.187 93.0761 142.94C92.8494 142.687 92.5361 142.56 92.1361 142.56C91.7561 142.56 91.4327 142.697 91.1661 142.97C90.8994 143.243 90.7427 143.633 90.6961 144.14H93.4161ZM93.8861 146V146.74C93.4927 146.947 93.0127 147.05 92.4461 147.05C91.6794 147.05 91.0594 146.817 90.5861 146.35C90.1194 145.877 89.8861 145.253 89.8861 144.48C89.8861 143.673 90.0961 143.037 90.5161 142.57C90.9361 142.103 91.4761 141.87 92.1361 141.87C92.7694 141.87 93.2727 142.073 93.6461 142.48C94.0194 142.887 94.2061 143.463 94.2061 144.21C94.2061 144.423 94.1894 144.62 94.1561 144.8H90.6961C90.7561 145.3 90.9461 145.683 91.2661 145.95C91.5861 146.217 92.0061 146.35 92.5261 146.35C93.0927 146.35 93.5461 146.233 93.8861 146ZM96.1907 141.93V142.75C96.4707 142.157 96.9473 141.86 97.6207 141.86C98.4007 141.86 98.894 142.19 99.1007 142.85C99.2473 142.53 99.4507 142.287 99.7107 142.12C99.9773 141.947 100.274 141.86 100.601 141.86C101.127 141.86 101.524 142.01 101.791 142.31C102.057 142.61 102.191 143.013 102.191 143.52V147H101.401V143.72C101.401 142.953 101.077 142.57 100.431 142.57C100.111 142.57 99.824 142.717 99.5707 143.01C99.3173 143.297 99.1907 143.703 99.1907 144.23V147H98.4007V143.72C98.4007 142.953 98.0773 142.57 97.4307 142.57C97.1107 142.57 96.824 142.717 96.5707 143.01C96.3173 143.297 96.1907 143.703 96.1907 144.23V147H95.4107V141.93H96.1907ZM105.904 146.36C106.311 146.36 106.648 146.19 106.914 145.85C107.181 145.51 107.314 145.067 107.314 144.52C107.314 143.893 107.174 143.413 106.894 143.08C106.621 142.74 106.274 142.57 105.854 142.57C105.494 142.57 105.164 142.72 104.864 143.02C104.564 143.32 104.414 143.79 104.414 144.43C104.414 145.103 104.558 145.593 104.844 145.9C105.138 146.207 105.491 146.36 105.904 146.36ZM104.414 139.93V142.69C104.781 142.13 105.294 141.85 105.954 141.85C106.594 141.85 107.118 142.097 107.524 142.59C107.931 143.077 108.134 143.717 108.134 144.51C108.134 145.223 107.941 145.83 107.554 146.33C107.174 146.83 106.648 147.08 105.974 147.08C105.294 147.08 104.774 146.803 104.414 146.25V147H103.624V139.93H104.414ZM112.027 144.66H111.147C110.721 144.66 110.401 144.743 110.187 144.91C109.974 145.077 109.867 145.287 109.867 145.54C109.867 145.793 109.951 146 110.117 146.16C110.284 146.313 110.527 146.39 110.847 146.39C111.207 146.39 111.494 146.29 111.707 146.09C111.921 145.883 112.027 145.623 112.027 145.31V144.66ZM109.407 142.99V142.2C109.787 141.967 110.287 141.85 110.907 141.85C112.181 141.85 112.817 142.497 112.817 143.79V147H112.037V146.4C111.777 146.833 111.304 147.05 110.617 147.05C110.144 147.05 109.761 146.91 109.467 146.63C109.181 146.35 109.037 145.997 109.037 145.57C109.037 145.083 109.221 144.707 109.587 144.44C109.961 144.167 110.467 144.03 111.107 144.03H112.027V143.77C112.027 143.37 111.937 143.07 111.757 142.87C111.577 142.663 111.274 142.56 110.847 142.56C110.307 142.56 109.827 142.703 109.407 142.99ZM115.619 146.87L113.569 141.93H114.459L115.119 143.6L116.009 145.9C116.063 145.727 116.329 144.96 116.809 143.6L117.399 141.93H118.249L116.419 146.87C116.159 147.557 115.849 148.04 115.489 148.32C115.136 148.6 114.729 148.74 114.269 148.74C114.096 148.74 113.956 148.723 113.849 148.69V147.98C113.949 148.007 114.063 148.02 114.189 148.02C114.863 148.02 115.339 147.637 115.619 146.87ZM121.881 144.66H121.001C120.574 144.66 120.254 144.743 120.041 144.91C119.828 145.077 119.721 145.287 119.721 145.54C119.721 145.793 119.804 146 119.971 146.16C120.138 146.313 120.381 146.39 120.701 146.39C121.061 146.39 121.348 146.29 121.561 146.09C121.774 145.883 121.881 145.623 121.881 145.31V144.66ZM119.261 142.99V142.2C119.641 141.967 120.141 141.85 120.761 141.85C122.034 141.85 122.671 142.497 122.671 143.79V147H121.891V146.4C121.631 146.833 121.158 147.05 120.471 147.05C119.998 147.05 119.614 146.91 119.321 146.63C119.034 146.35 118.891 145.997 118.891 145.57C118.891 145.083 119.074 144.707 119.441 144.44C119.814 144.167 120.321 144.03 120.961 144.03H121.881V143.77C121.881 143.37 121.791 143.07 121.611 142.87C121.431 142.663 121.128 142.56 120.701 142.56C120.161 142.56 119.681 142.703 119.261 142.99ZM124.853 141.93V142.82C125.119 142.193 125.579 141.88 126.233 141.88C126.353 141.88 126.446 141.887 126.513 141.9V142.68C126.373 142.633 126.229 142.61 126.083 142.61C125.729 142.61 125.436 142.773 125.203 143.1C124.969 143.427 124.853 143.803 124.853 144.23V147H124.063L124.073 141.93H124.853ZM132.926 141.93H133.716V147H132.926V146.12C132.659 146.747 132.129 147.06 131.336 147.06C130.836 147.06 130.439 146.913 130.146 146.62C129.859 146.32 129.716 145.92 129.716 145.42V141.93H130.506V145.22C130.506 145.587 130.599 145.867 130.786 146.06C130.973 146.253 131.226 146.35 131.546 146.35C131.966 146.35 132.299 146.203 132.546 145.91C132.799 145.617 132.926 145.22 132.926 144.72V141.93ZM136.266 142.57V145.54C136.266 146.08 136.52 146.35 137.026 146.35C137.286 146.35 137.516 146.273 137.716 146.12V146.87C137.496 146.99 137.25 147.05 136.976 147.05C135.976 147.05 135.476 146.54 135.476 145.52V142.57H134.666V141.93H135.476V140.67H136.266V141.93H137.666V142.57H136.266ZM141.598 144.66H140.718C140.291 144.66 139.971 144.743 139.758 144.91C139.544 145.077 139.438 145.287 139.438 145.54C139.438 145.793 139.521 146 139.688 146.16C139.854 146.313 140.098 146.39 140.418 146.39C140.778 146.39 141.064 146.29 141.278 146.09C141.491 145.883 141.598 145.623 141.598 145.31V144.66ZM138.978 142.99V142.2C139.358 141.967 139.858 141.85 140.478 141.85C141.751 141.85 142.388 142.497 142.388 143.79V147H141.608V146.4C141.348 146.833 140.874 147.05 140.188 147.05C139.714 147.05 139.331 146.91 139.038 146.63C138.751 146.35 138.608 145.997 138.608 145.57C138.608 145.083 138.791 144.707 139.158 144.44C139.531 144.167 140.038 144.03 140.678 144.03H141.598V143.77C141.598 143.37 141.508 143.07 141.328 142.87C141.148 142.663 140.844 142.56 140.418 142.56C139.878 142.56 139.398 142.703 138.978 142.99ZM144.57 141.93V142.81C144.87 142.177 145.403 141.86 146.17 141.86C146.663 141.86 147.056 142.01 147.35 142.31C147.643 142.61 147.79 143.01 147.79 143.51V147H147V143.72C147 143.347 146.903 143.063 146.71 142.87C146.523 142.67 146.276 142.57 145.97 142.57C145.59 142.57 145.26 142.717 144.98 143.01C144.706 143.303 144.57 143.71 144.57 144.23V147H143.79V141.93H144.57ZM151.09 146.17C151.457 146.17 151.78 146.03 152.06 145.75C152.347 145.463 152.49 145.04 152.49 144.48C152.49 143.833 152.353 143.353 152.08 143.04C151.807 142.727 151.49 142.57 151.13 142.57C150.697 142.57 150.353 142.743 150.1 143.09C149.847 143.43 149.72 143.877 149.72 144.43C149.72 144.997 149.86 145.43 150.14 145.73C150.42 146.023 150.737 146.17 151.09 146.17ZM152.49 141.93H153.28V146.59C153.28 147.363 153.067 147.943 152.64 148.33C152.213 148.723 151.663 148.92 150.99 148.92C150.377 148.92 149.853 148.817 149.42 148.61V147.82C149.847 148.067 150.347 148.19 150.92 148.19C151.407 148.19 151.79 148.06 152.07 147.8C152.35 147.54 152.49 147.133 152.49 146.58V146.01C152.157 146.583 151.66 146.87 151 146.87C150.42 146.87 149.923 146.657 149.51 146.23C149.103 145.803 148.9 145.21 148.9 144.45C148.9 143.697 149.09 143.077 149.47 142.59C149.85 142.103 150.347 141.86 150.96 141.86C151.653 141.86 152.163 142.163 152.49 142.77V141.93ZM159.05 146.36C159.463 146.36 159.813 146.207 160.1 145.9C160.393 145.593 160.54 145.103 160.54 144.43C160.54 143.79 160.39 143.32 160.09 143.02C159.79 142.72 159.46 142.57 159.1 142.57C158.68 142.57 158.33 142.74 158.05 143.08C157.776 143.413 157.64 143.893 157.64 144.52C157.64 145.067 157.773 145.51 158.04 145.85C158.306 146.19 158.643 146.36 159.05 146.36ZM160.54 139.93H161.33V147H160.54V146.25C160.18 146.803 159.66 147.08 158.98 147.08C158.306 147.08 157.776 146.83 157.39 146.33C157.01 145.83 156.82 145.223 156.82 144.51C156.82 143.717 157.023 143.077 157.43 142.59C157.836 142.097 158.36 141.85 159 141.85C159.66 141.85 160.173 142.133 160.54 142.7V139.93ZM166.023 144.14V143.94C166.023 143.52 165.91 143.187 165.683 142.94C165.457 142.687 165.143 142.56 164.743 142.56C164.363 142.56 164.04 142.697 163.773 142.97C163.507 143.243 163.35 143.633 163.303 144.14H166.023ZM166.493 146V146.74C166.1 146.947 165.62 147.05 165.053 147.05C164.287 147.05 163.667 146.817 163.193 146.35C162.727 145.877 162.493 145.253 162.493 144.48C162.493 143.673 162.703 143.037 163.123 142.57C163.543 142.103 164.083 141.87 164.743 141.87C165.377 141.87 165.88 142.073 166.253 142.48C166.627 142.887 166.813 143.463 166.813 144.21C166.813 144.423 166.797 144.62 166.763 144.8H163.303C163.363 145.3 163.553 145.683 163.873 145.95C164.193 146.217 164.613 146.35 165.133 146.35C165.7 146.35 166.153 146.233 166.493 146ZM168.798 141.93V142.81C169.098 142.177 169.631 141.86 170.398 141.86C170.891 141.86 171.285 142.01 171.578 142.31C171.871 142.61 172.018 143.01 172.018 143.51V147H171.228V143.72C171.228 143.347 171.131 143.063 170.938 142.87C170.751 142.67 170.505 142.57 170.198 142.57C169.818 142.57 169.488 142.717 169.208 143.01C168.935 143.303 168.798 143.71 168.798 144.23V147H168.018V141.93H168.798ZM175.318 146.17C175.685 146.17 176.008 146.03 176.288 145.75C176.575 145.463 176.718 145.04 176.718 144.48C176.718 143.833 176.582 143.353 176.308 143.04C176.035 142.727 175.718 142.57 175.358 142.57C174.925 142.57 174.582 142.743 174.328 143.09C174.075 143.43 173.948 143.877 173.948 144.43C173.948 144.997 174.088 145.43 174.368 145.73C174.648 146.023 174.965 146.17 175.318 146.17ZM176.718 141.93H177.508V146.59C177.508 147.363 177.295 147.943 176.868 148.33C176.442 148.723 175.892 148.92 175.218 148.92C174.605 148.92 174.082 148.817 173.648 148.61V147.82C174.075 148.067 174.575 148.19 175.148 148.19C175.635 148.19 176.018 148.06 176.298 147.8C176.578 147.54 176.718 147.133 176.718 146.58V146.01C176.385 146.583 175.888 146.87 175.228 146.87C174.648 146.87 174.152 146.657 173.738 146.23C173.332 145.803 173.128 145.21 173.128 144.45C173.128 143.697 173.318 143.077 173.698 142.59C174.078 142.103 174.575 141.86 175.188 141.86C175.882 141.86 176.392 142.163 176.718 142.77V141.93ZM181.637 144.66H180.757C180.33 144.66 180.01 144.743 179.797 144.91C179.583 145.077 179.477 145.287 179.477 145.54C179.477 145.793 179.56 146 179.727 146.16C179.893 146.313 180.137 146.39 180.457 146.39C180.817 146.39 181.103 146.29 181.317 146.09C181.53 145.883 181.637 145.623 181.637 145.31V144.66ZM179.017 142.99V142.2C179.397 141.967 179.897 141.85 180.517 141.85C181.79 141.85 182.427 142.497 182.427 143.79V147H181.647V146.4C181.387 146.833 180.913 147.05 180.227 147.05C179.753 147.05 179.37 146.91 179.077 146.63C178.79 146.35 178.647 145.997 178.647 145.57C178.647 145.083 178.83 144.707 179.197 144.44C179.57 144.167 180.077 144.03 180.717 144.03H181.637V143.77C181.637 143.37 181.547 143.07 181.367 142.87C181.187 142.663 180.883 142.56 180.457 142.56C179.917 142.56 179.437 142.703 179.017 142.99ZM184.609 141.93V142.81C184.909 142.177 185.442 141.86 186.209 141.86C186.702 141.86 187.095 142.01 187.389 142.31C187.682 142.61 187.829 143.01 187.829 143.51V147H187.039V143.72C187.039 143.347 186.942 143.063 186.749 142.87C186.562 142.67 186.315 142.57 186.009 142.57C185.629 142.57 185.299 142.717 185.019 143.01C184.745 143.303 184.609 143.71 184.609 144.23V147H183.829V141.93H184.609ZM192.45 141.93V142.75C192.73 142.157 193.207 141.86 193.88 141.86C194.66 141.86 195.154 142.19 195.36 142.85C195.507 142.53 195.71 142.287 195.97 142.12C196.237 141.947 196.534 141.86 196.86 141.86C197.387 141.86 197.784 142.01 198.05 142.31C198.317 142.61 198.45 143.013 198.45 143.52V147H197.66V143.72C197.66 142.953 197.337 142.57 196.69 142.57C196.37 142.57 196.084 142.717 195.83 143.01C195.577 143.297 195.45 143.703 195.45 144.23V147H194.66V143.72C194.66 142.953 194.337 142.57 193.69 142.57C193.37 142.57 193.084 142.717 192.83 143.01C192.577 143.297 192.45 143.703 192.45 144.23V147H191.67V141.93H192.45ZM203.084 144.14V143.94C203.084 143.52 202.971 143.187 202.744 142.94C202.517 142.687 202.204 142.56 201.804 142.56C201.424 142.56 201.101 142.697 200.834 142.97C200.567 143.243 200.411 143.633 200.364 144.14H203.084ZM203.554 146V146.74C203.161 146.947 202.681 147.05 202.114 147.05C201.347 147.05 200.727 146.817 200.254 146.35C199.787 145.877 199.554 145.253 199.554 144.48C199.554 143.673 199.764 143.037 200.184 142.57C200.604 142.103 201.144 141.87 201.804 141.87C202.437 141.87 202.941 142.073 203.314 142.48C203.687 142.887 203.874 143.463 203.874 144.21C203.874 144.423 203.857 144.62 203.824 144.8H200.364C200.424 145.3 200.614 145.683 200.934 145.95C201.254 146.217 201.674 146.35 202.194 146.35C202.761 146.35 203.214 146.233 203.554 146ZM206.169 142.57V145.54C206.169 146.08 206.422 146.35 206.929 146.35C207.189 146.35 207.419 146.273 207.619 146.12V146.87C207.399 146.99 207.152 147.05 206.879 147.05C205.879 147.05 205.379 146.54 205.379 145.52V142.57H204.569V141.93H205.379V140.67H206.169V141.93H207.569V142.57H206.169ZM210.83 147.09C210.103 147.09 209.527 146.847 209.1 146.36C208.68 145.867 208.47 145.247 208.47 144.5C208.47 143.747 208.687 143.12 209.12 142.62C209.56 142.113 210.13 141.86 210.83 141.86C211.597 141.86 212.187 142.107 212.6 142.6C213.02 143.093 213.23 143.72 213.23 144.48C213.23 145.233 213.017 145.857 212.59 146.35C212.163 146.843 211.577 147.09 210.83 147.09ZM210.83 142.56C210.35 142.56 209.973 142.747 209.7 143.12C209.427 143.493 209.29 143.95 209.29 144.49C209.29 145.017 209.43 145.467 209.71 145.84C209.99 146.207 210.363 146.39 210.83 146.39C211.337 146.39 211.727 146.21 212 145.85C212.273 145.483 212.41 145.03 212.41 144.49C212.41 143.93 212.28 143.47 212.02 143.11C211.76 142.743 211.363 142.56 210.83 142.56ZM216.315 146.36C216.729 146.36 217.079 146.207 217.365 145.9C217.659 145.593 217.805 145.103 217.805 144.43C217.805 143.79 217.655 143.32 217.355 143.02C217.055 142.72 216.725 142.57 216.365 142.57C215.945 142.57 215.595 142.74 215.315 143.08C215.042 143.413 214.905 143.893 214.905 144.52C214.905 145.067 215.039 145.51 215.305 145.85C215.572 146.19 215.909 146.36 216.315 146.36ZM217.805 139.93H218.595V147H217.805V146.25C217.445 146.803 216.925 147.08 216.245 147.08C215.572 147.08 215.042 146.83 214.655 146.33C214.275 145.83 214.085 145.223 214.085 144.51C214.085 143.717 214.289 143.077 214.695 142.59C215.102 142.097 215.625 141.85 216.265 141.85C216.925 141.85 217.439 142.133 217.805 142.7V139.93ZM223.289 144.14V143.94C223.289 143.52 223.176 143.187 222.949 142.94C222.722 142.687 222.409 142.56 222.009 142.56C221.629 142.56 221.306 142.697 221.039 142.97C220.772 143.243 220.616 143.633 220.569 144.14H223.289ZM223.759 146V146.74C223.366 146.947 222.886 147.05 222.319 147.05C221.552 147.05 220.932 146.817 220.459 146.35C219.992 145.877 219.759 145.253 219.759 144.48C219.759 143.673 219.969 143.037 220.389 142.57C220.809 142.103 221.349 141.87 222.009 141.87C222.642 141.87 223.146 142.073 223.519 142.48C223.892 142.887 224.079 143.463 224.079 144.21C224.079 144.423 224.062 144.62 224.029 144.8H220.569C220.629 145.3 220.819 145.683 221.139 145.95C221.459 146.217 221.879 146.35 222.399 146.35C222.966 146.35 223.419 146.233 223.759 146ZM229.955 146.36C230.382 146.36 230.732 146.193 231.005 145.86C231.278 145.52 231.415 145.04 231.415 144.42C231.415 143.867 231.282 143.42 231.015 143.08C230.748 142.74 230.412 142.57 230.005 142.57C229.598 142.57 229.245 142.72 228.945 143.02C228.652 143.313 228.505 143.797 228.505 144.47C228.505 145.117 228.655 145.593 228.955 145.9C229.255 146.207 229.588 146.36 229.955 146.36ZM228.505 141.93V142.7C228.858 142.133 229.382 141.85 230.075 141.85C230.748 141.85 231.275 142.097 231.655 142.59C232.042 143.077 232.235 143.687 232.235 144.42C232.235 145.2 232.032 145.84 231.625 146.34C231.225 146.833 230.702 147.08 230.055 147.08C229.388 147.08 228.872 146.797 228.505 146.23V148.97H227.725V141.93H228.505ZM236.629 144.14V143.94C236.629 143.52 236.516 143.187 236.289 142.94C236.062 142.687 235.749 142.56 235.349 142.56C234.969 142.56 234.646 142.697 234.379 142.97C234.112 143.243 233.956 143.633 233.909 144.14H236.629ZM237.099 146V146.74C236.706 146.947 236.226 147.05 235.659 147.05C234.892 147.05 234.272 146.817 233.799 146.35C233.332 145.877 233.099 145.253 233.099 144.48C233.099 143.673 233.309 143.037 233.729 142.57C234.149 142.103 234.689 141.87 235.349 141.87C235.982 141.87 236.486 142.073 236.859 142.48C237.232 142.887 237.419 143.463 237.419 144.21C237.419 144.423 237.402 144.62 237.369 144.8H233.909C233.969 145.3 234.159 145.683 234.479 145.95C234.799 146.217 235.219 146.35 235.739 146.35C236.306 146.35 236.759 146.233 237.099 146ZM239.404 141.93V142.75C239.684 142.157 240.16 141.86 240.834 141.86C241.614 141.86 242.107 142.19 242.314 142.85C242.46 142.53 242.664 142.287 242.924 142.12C243.19 141.947 243.487 141.86 243.814 141.86C244.34 141.86 244.737 142.01 245.004 142.31C245.27 142.61 245.404 143.013 245.404 143.52V147H244.614V143.72C244.614 142.953 244.29 142.57 243.644 142.57C243.324 142.57 243.037 142.717 242.784 143.01C242.53 143.297 242.404 143.703 242.404 144.23V147H241.614V143.72C241.614 142.953 241.29 142.57 240.644 142.57C240.324 142.57 240.037 142.717 239.784 143.01C239.53 143.297 239.404 143.703 239.404 144.23V147H238.624V141.93H239.404ZM249.117 146.36C249.524 146.36 249.86 146.19 250.127 145.85C250.394 145.51 250.527 145.067 250.527 144.52C250.527 143.893 250.387 143.413 250.107 143.08C249.834 142.74 249.487 142.57 249.067 142.57C248.707 142.57 248.377 142.72 248.077 143.02C247.777 143.32 247.627 143.79 247.627 144.43C247.627 145.103 247.77 145.593 248.057 145.9C248.35 146.207 248.704 146.36 249.117 146.36ZM247.627 139.93V142.69C247.994 142.13 248.507 141.85 249.167 141.85C249.807 141.85 250.33 142.097 250.737 142.59C251.144 143.077 251.347 143.717 251.347 144.51C251.347 145.223 251.154 145.83 250.767 146.33C250.387 146.83 249.86 147.08 249.187 147.08C248.507 147.08 247.987 146.803 247.627 146.25V147H246.837V139.93H247.627ZM255.24 144.66H254.36C253.934 144.66 253.614 144.743 253.4 144.91C253.187 145.077 253.08 145.287 253.08 145.54C253.08 145.793 253.164 146 253.33 146.16C253.497 146.313 253.74 146.39 254.06 146.39C254.42 146.39 254.707 146.29 254.92 146.09C255.134 145.883 255.24 145.623 255.24 145.31V144.66ZM252.62 142.99V142.2C253 141.967 253.5 141.85 254.12 141.85C255.394 141.85 256.03 142.497 256.03 143.79V147H255.25V146.4C254.99 146.833 254.517 147.05 253.83 147.05C253.357 147.05 252.974 146.91 252.68 146.63C252.394 146.35 252.25 145.997 252.25 145.57C252.25 145.083 252.434 144.707 252.8 144.44C253.174 144.167 253.68 144.03 254.32 144.03H255.24V143.77C255.24 143.37 255.15 143.07 254.97 142.87C254.79 142.663 254.487 142.56 254.06 142.56C253.52 142.56 253.04 142.703 252.62 142.99ZM258.832 146.87L256.782 141.93H257.672L258.332 143.6L259.222 145.9C259.275 145.727 259.542 144.96 260.022 143.6L260.612 141.93H261.462L259.632 146.87C259.372 147.557 259.062 148.04 258.702 148.32C258.349 148.6 257.942 148.74 257.482 148.74C257.309 148.74 257.169 148.723 257.062 148.69V147.98C257.162 148.007 257.275 148.02 257.402 148.02C258.075 148.02 258.552 147.637 258.832 146.87ZM265.094 144.66H264.214C263.787 144.66 263.467 144.743 263.254 144.91C263.04 145.077 262.934 145.287 262.934 145.54C262.934 145.793 263.017 146 263.184 146.16C263.35 146.313 263.594 146.39 263.914 146.39C264.274 146.39 264.56 146.29 264.774 146.09C264.987 145.883 265.094 145.623 265.094 145.31V144.66ZM262.474 142.99V142.2C262.854 141.967 263.354 141.85 263.974 141.85C265.247 141.85 265.884 142.497 265.884 143.79V147H265.104V146.4C264.844 146.833 264.37 147.05 263.684 147.05C263.21 147.05 262.827 146.91 262.534 146.63C262.247 146.35 262.104 145.997 262.104 145.57C262.104 145.083 262.287 144.707 262.654 144.44C263.027 144.167 263.534 144.03 264.174 144.03H265.094V143.77C265.094 143.37 265.004 143.07 264.824 142.87C264.644 142.663 264.34 142.56 263.914 142.56C263.374 142.56 262.894 142.703 262.474 142.99ZM268.066 141.93V142.82C268.332 142.193 268.792 141.88 269.446 141.88C269.566 141.88 269.659 141.887 269.726 141.9V142.68C269.586 142.633 269.442 142.61 269.296 142.61C268.942 142.61 268.649 142.773 268.416 143.1C268.182 143.427 268.066 143.803 268.066 144.23V147H267.276L267.286 141.93H268.066ZM273.277 144.66H272.397C271.971 144.66 271.651 144.743 271.437 144.91C271.224 145.077 271.117 145.287 271.117 145.54C271.117 145.793 271.201 146 271.367 146.16C271.534 146.313 271.777 146.39 272.097 146.39C272.457 146.39 272.744 146.29 272.957 146.09C273.171 145.883 273.277 145.623 273.277 145.31V144.66ZM270.657 142.99V142.2C271.037 141.967 271.537 141.85 272.157 141.85C273.431 141.85 274.067 142.497 274.067 143.79V147H273.287V146.4C273.027 146.833 272.554 147.05 271.867 147.05C271.394 147.05 271.011 146.91 270.717 146.63C270.431 146.35 270.287 145.997 270.287 145.57C270.287 145.083 270.471 144.707 270.837 144.44C271.211 144.167 271.717 144.03 272.357 144.03H273.277V143.77C273.277 143.37 273.187 143.07 273.007 142.87C272.827 142.663 272.524 142.56 272.097 142.56C271.557 142.56 271.077 142.703 270.657 142.99ZM276.249 141.93V142.81C276.549 142.177 277.083 141.86 277.849 141.86C278.343 141.86 278.736 142.01 279.029 142.31C279.323 142.61 279.469 143.01 279.469 143.51V147H278.679V143.72C278.679 143.347 278.583 143.063 278.389 142.87C278.203 142.67 277.956 142.57 277.649 142.57C277.269 142.57 276.939 142.717 276.659 143.01C276.386 143.303 276.249 143.71 276.249 144.23V147H275.469V141.93H276.249Z" fill="#2B2B2B"/>
<path d="M54.08 168.53V169.36C53.7867 169.207 53.5233 169.097 53.29 169.03C53.0567 168.963 52.75 168.93 52.37 168.93C51.6433 168.93 51.0367 169.177 50.55 169.67C50.07 170.163 49.83 170.807 49.83 171.6C49.83 172.427 50.07 173.087 50.55 173.58C51.03 174.073 51.6667 174.32 52.46 174.32C53.1 174.32 53.6467 174.15 54.1 173.81V174.66C53.6867 174.94 53.12 175.08 52.4 175.08C51.3867 175.08 50.5633 174.77 49.93 174.15C49.2967 173.523 48.98 172.673 48.98 171.6C48.98 170.587 49.3 169.763 49.94 169.13C50.5867 168.49 51.3967 168.17 52.37 168.17C53.07 168.17 53.64 168.29 54.08 168.53ZM57.9756 172.66H57.0956C56.669 172.66 56.349 172.743 56.1356 172.91C55.9223 173.077 55.8156 173.287 55.8156 173.54C55.8156 173.793 55.899 174 56.0656 174.16C56.2323 174.313 56.4756 174.39 56.7956 174.39C57.1556 174.39 57.4423 174.29 57.6556 174.09C57.869 173.883 57.9756 173.623 57.9756 173.31V172.66ZM55.3556 170.99V170.2C55.7356 169.967 56.2356 169.85 56.8556 169.85C58.129 169.85 58.7656 170.497 58.7656 171.79V175H57.9856V174.4C57.7256 174.833 57.2523 175.05 56.5656 175.05C56.0923 175.05 55.709 174.91 55.4156 174.63C55.129 174.35 54.9856 173.997 54.9856 173.57C54.9856 173.083 55.169 172.707 55.5356 172.44C55.909 172.167 56.4156 172.03 57.0556 172.03H57.9756V171.77C57.9756 171.37 57.8856 171.07 57.7056 170.87C57.5256 170.663 57.2223 170.56 56.7956 170.56C56.2556 170.56 55.7756 170.703 55.3556 170.99ZM62.9275 170.1V170.85C62.6208 170.663 62.2008 170.57 61.6675 170.57C61.4008 170.57 61.1875 170.633 61.0275 170.76C60.8742 170.88 60.7975 171.037 60.7975 171.23C60.7975 171.35 60.8208 171.457 60.8675 171.55C60.9142 171.637 61.0042 171.723 61.1375 171.81C61.2775 171.897 61.3775 171.957 61.4375 171.99C61.5042 172.017 61.6442 172.077 61.8575 172.17C62.2842 172.343 62.6175 172.54 62.8575 172.76C63.0975 172.98 63.2175 173.277 63.2175 173.65C63.2175 174.083 63.0642 174.427 62.7575 174.68C62.4575 174.933 62.0442 175.06 61.5175 175.06C60.9042 175.06 60.4075 174.957 60.0275 174.75V173.98C60.4742 174.247 60.9542 174.38 61.4675 174.38C61.7742 174.38 62.0075 174.32 62.1675 174.2C62.3275 174.08 62.4075 173.917 62.4075 173.71C62.4075 173.47 62.3175 173.283 62.1375 173.15C61.9642 173.017 61.6708 172.867 61.2575 172.7C60.8775 172.553 60.5708 172.37 60.3375 172.15C60.1108 171.93 59.9975 171.633 59.9975 171.26C59.9975 170.84 60.1542 170.507 60.4675 170.26C60.7875 170.007 61.1842 169.88 61.6575 169.88C62.1842 169.88 62.6075 169.953 62.9275 170.1ZM65.0686 167.93V170.81C65.3686 170.177 65.9019 169.86 66.6686 169.86C67.1553 169.86 67.5453 170.01 67.8386 170.31C68.1386 170.61 68.2886 171.017 68.2886 171.53V175H67.4986V171.72C67.4986 171.353 67.4019 171.07 67.2086 170.87C67.0219 170.67 66.7753 170.57 66.4686 170.57C66.0953 170.57 65.7686 170.713 65.4886 171C65.2086 171.287 65.0686 171.697 65.0686 172.23V175H64.2886V167.93H65.0686Z" fill="#2B2B2B"/>
<path d="M212.08 168.96V171.65H213.1C213.56 171.65 213.91 171.527 214.15 171.28C214.397 171.027 214.52 170.703 214.52 170.31C214.52 169.41 214.017 168.96 213.01 168.96H212.08ZM215.75 175H214.78L213.13 172.34H213.05H212.08V175H211.27V168.26H212.96C213.74 168.26 214.33 168.443 214.73 168.81C215.137 169.177 215.34 169.683 215.34 170.33C215.327 170.797 215.203 171.193 214.97 171.52C214.737 171.847 214.407 172.077 213.98 172.21L215.75 175ZM218.939 174.36C219.365 174.36 219.715 174.193 219.989 173.86C220.262 173.52 220.399 173.04 220.399 172.42C220.399 171.867 220.265 171.42 219.999 171.08C219.732 170.74 219.395 170.57 218.989 170.57C218.582 170.57 218.229 170.72 217.929 171.02C217.635 171.313 217.489 171.797 217.489 172.47C217.489 173.117 217.639 173.593 217.939 173.9C218.239 174.207 218.572 174.36 218.939 174.36ZM217.489 169.93V170.7C217.842 170.133 218.365 169.85 219.059 169.85C219.732 169.85 220.259 170.097 220.639 170.59C221.025 171.077 221.219 171.687 221.219 172.42C221.219 173.2 221.015 173.84 220.609 174.34C220.209 174.833 219.685 175.08 219.039 175.08C218.372 175.08 217.855 174.797 217.489 174.23V176.97H216.709V169.93H217.489ZM232.888 174.31H235.928V175H231.798V174.33C233.865 172.77 234.898 171.47 234.898 170.43C234.898 170.017 234.778 169.7 234.538 169.48C234.298 169.253 233.975 169.14 233.568 169.14C233.041 169.14 232.521 169.337 232.008 169.73V168.94C232.481 168.573 233.025 168.39 233.638 168.39C234.225 168.39 234.718 168.56 235.118 168.9C235.518 169.24 235.718 169.723 235.718 170.35C235.718 171.53 234.775 172.85 232.888 174.31ZM236.789 171.71C236.789 170.683 236.996 169.873 237.409 169.28C237.829 168.68 238.379 168.38 239.059 168.38C239.766 168.38 240.326 168.68 240.739 169.28C241.159 169.873 241.369 170.683 241.369 171.71C241.369 172.73 241.169 173.547 240.769 174.16C240.369 174.773 239.799 175.08 239.059 175.08C238.373 175.08 237.823 174.773 237.409 174.16C236.996 173.547 236.789 172.73 236.789 171.71ZM238.029 169.81C237.743 170.257 237.599 170.89 237.599 171.71C237.599 172.53 237.739 173.173 238.019 173.64C238.299 174.1 238.646 174.33 239.059 174.33C239.519 174.33 239.883 174.103 240.149 173.65C240.423 173.197 240.559 172.55 240.559 171.71C240.559 170.877 240.416 170.24 240.129 169.8C239.849 169.353 239.493 169.13 239.059 169.13C238.659 169.13 238.316 169.357 238.029 169.81ZM242.209 174.91C242.095 174.797 242.039 174.657 242.039 174.49C242.039 174.323 242.095 174.183 242.209 174.07C242.322 173.957 242.462 173.9 242.629 173.9C242.795 173.9 242.935 173.957 243.049 174.07C243.162 174.183 243.219 174.323 243.219 174.49C243.219 174.657 243.162 174.797 243.049 174.91C242.935 175.023 242.795 175.08 242.629 175.08C242.462 175.08 242.322 175.023 242.209 174.91ZM243.889 171.71C243.889 170.683 244.096 169.873 244.509 169.28C244.929 168.68 245.479 168.38 246.159 168.38C246.866 168.38 247.426 168.68 247.839 169.28C248.259 169.873 248.469 170.683 248.469 171.71C248.469 172.73 248.269 173.547 247.869 174.16C247.469 174.773 246.899 175.08 246.159 175.08C245.472 175.08 244.922 174.773 244.509 174.16C244.096 173.547 243.889 172.73 243.889 171.71ZM245.129 169.81C244.842 170.257 244.699 170.89 244.699 171.71C244.699 172.53 244.839 173.173 245.119 173.64C245.399 174.1 245.746 174.33 246.159 174.33C246.619 174.33 246.982 174.103 247.249 173.65C247.522 173.197 247.659 172.55 247.659 171.71C247.659 170.877 247.516 170.24 247.229 169.8C246.949 169.353 246.592 169.13 246.159 169.13C245.759 169.13 245.416 169.357 245.129 169.81ZM249.328 171.71C249.328 170.683 249.535 169.873 249.948 169.28C250.368 168.68 250.918 168.38 251.598 168.38C252.305 168.38 252.865 168.68 253.278 169.28C253.698 169.873 253.908 170.683 253.908 171.71C253.908 172.73 253.708 173.547 253.308 174.16C252.908 174.773 252.338 175.08 251.598 175.08C250.912 175.08 250.362 174.773 249.948 174.16C249.535 173.547 249.328 172.73 249.328 171.71ZM250.568 169.81C250.282 170.257 250.138 170.89 250.138 171.71C250.138 172.53 250.278 173.173 250.558 173.64C250.838 174.1 251.185 174.33 251.598 174.33C252.058 174.33 252.422 174.103 252.688 173.65C252.962 173.197 253.098 172.55 253.098 171.71C253.098 170.877 252.955 170.24 252.668 169.8C252.388 169.353 252.032 169.13 251.598 169.13C251.198 169.13 250.855 169.357 250.568 169.81ZM254.768 171.71C254.768 170.683 254.975 169.873 255.388 169.28C255.808 168.68 256.358 168.38 257.038 168.38C257.745 168.38 258.305 168.68 258.718 169.28C259.138 169.873 259.348 170.683 259.348 171.71C259.348 172.73 259.148 173.547 258.748 174.16C258.348 174.773 257.778 175.08 257.038 175.08C256.351 175.08 255.801 174.773 255.388 174.16C254.975 173.547 254.768 172.73 254.768 171.71ZM256.008 169.81C255.721 170.257 255.578 170.89 255.578 171.71C255.578 172.53 255.718 173.173 255.998 173.64C256.278 174.1 256.625 174.33 257.038 174.33C257.498 174.33 257.861 174.103 258.128 173.65C258.401 173.197 258.538 172.55 258.538 171.71C258.538 170.877 258.395 170.24 258.108 169.8C257.828 169.353 257.471 169.13 257.038 169.13C256.638 169.13 256.295 169.357 256.008 169.81ZM259.697 176.23L260.627 173.99H261.677L260.387 176.23H259.697ZM262.593 172.66V171.97H264.933V172.66H262.593Z" fill="#2B2B2B"/>
<path d="M53.13 188.26V188.97H51.31V195H50.5V188.97H48.68V188.26H53.13ZM56.7842 192.66H55.9042C55.4776 192.66 55.1576 192.743 54.9442 192.91C54.7309 193.077 54.6242 193.287 54.6242 193.54C54.6242 193.793 54.7076 194 54.8742 194.16C55.0409 194.313 55.2842 194.39 55.6042 194.39C55.9642 194.39 56.2509 194.29 56.4642 194.09C56.6776 193.883 56.7842 193.623 56.7842 193.31V192.66ZM54.1642 190.99V190.2C54.5442 189.967 55.0442 189.85 55.6642 189.85C56.9376 189.85 57.5742 190.497 57.5742 191.79V195H56.7942V194.4C56.5342 194.833 56.0609 195.05 55.3742 195.05C54.9009 195.05 54.5176 194.91 54.2242 194.63C53.9376 194.35 53.7942 193.997 53.7942 193.57C53.7942 193.083 53.9776 192.707 54.3442 192.44C54.7176 192.167 55.2242 192.03 55.8642 192.03H56.7842V191.77C56.7842 191.37 56.6942 191.07 56.5142 190.87C56.3342 190.663 56.0309 190.56 55.6042 190.56C55.0642 190.56 54.5842 190.703 54.1642 190.99ZM61.2861 194.36C61.6928 194.36 62.0294 194.19 62.2961 193.85C62.5628 193.51 62.6961 193.067 62.6961 192.52C62.6961 191.893 62.5561 191.413 62.2761 191.08C62.0028 190.74 61.6561 190.57 61.2361 190.57C60.8761 190.57 60.5461 190.72 60.2461 191.02C59.9461 191.32 59.7961 191.79 59.7961 192.43C59.7961 193.103 59.9394 193.593 60.2261 193.9C60.5194 194.207 60.8728 194.36 61.2861 194.36ZM59.7961 187.93V190.69C60.1628 190.13 60.6761 189.85 61.3361 189.85C61.9761 189.85 62.4994 190.097 62.9061 190.59C63.3128 191.077 63.5161 191.717 63.5161 192.51C63.5161 193.223 63.3228 193.83 62.9361 194.33C62.5561 194.83 62.0294 195.08 61.3561 195.08C60.6761 195.08 60.1561 194.803 59.7961 194.25V195H59.0061V187.93H59.7961ZM67.8292 189.93H68.6192V195H67.8292V194.12C67.5626 194.747 67.0326 195.06 66.2392 195.06C65.7392 195.06 65.3426 194.913 65.0492 194.62C64.7626 194.32 64.6192 193.92 64.6192 193.42V189.93H65.4092V193.22C65.4092 193.587 65.5026 193.867 65.6892 194.06C65.8759 194.253 66.1292 194.35 66.4492 194.35C66.8692 194.35 67.2026 194.203 67.4492 193.91C67.7026 193.617 67.8292 193.22 67.8292 192.72V189.93ZM70.8596 189.93V190.81C71.1596 190.177 71.6929 189.86 72.4596 189.86C72.9529 189.86 73.3463 190.01 73.6396 190.31C73.9329 190.61 74.0796 191.01 74.0796 191.51V195H73.2896V191.72C73.2896 191.347 73.1929 191.063 72.9996 190.87C72.8129 190.67 72.5663 190.57 72.2596 190.57C71.8796 190.57 71.5496 190.717 71.2696 191.01C70.9963 191.303 70.8596 191.71 70.8596 192.23V195H70.0796V189.93H70.8596ZM77.38 194.17C77.7467 194.17 78.07 194.03 78.35 193.75C78.6367 193.463 78.78 193.04 78.78 192.48C78.78 191.833 78.6433 191.353 78.37 191.04C78.0967 190.727 77.78 190.57 77.42 190.57C76.9867 190.57 76.6433 190.743 76.39 191.09C76.1367 191.43 76.01 191.877 76.01 192.43C76.01 192.997 76.15 193.43 76.43 193.73C76.71 194.023 77.0267 194.17 77.38 194.17ZM78.78 189.93H79.57V194.59C79.57 195.363 79.3567 195.943 78.93 196.33C78.5033 196.723 77.9533 196.92 77.28 196.92C76.6667 196.92 76.1433 196.817 75.71 196.61V195.82C76.1367 196.067 76.6367 196.19 77.21 196.19C77.6967 196.19 78.08 196.06 78.36 195.8C78.64 195.54 78.78 195.133 78.78 194.58V194.01C78.4467 194.583 77.95 194.87 77.29 194.87C76.71 194.87 76.2133 194.657 75.8 194.23C75.3933 193.803 75.19 193.21 75.19 192.45C75.19 191.697 75.38 191.077 75.76 190.59C76.14 190.103 76.6367 189.86 77.25 189.86C77.9433 189.86 78.4533 190.163 78.78 190.77V189.93ZM83.6983 192.66H82.8183C82.3916 192.66 82.0716 192.743 81.8583 192.91C81.6449 193.077 81.5383 193.287 81.5383 193.54C81.5383 193.793 81.6216 194 81.7883 194.16C81.9549 194.313 82.1983 194.39 82.5183 194.39C82.8783 194.39 83.1649 194.29 83.3783 194.09C83.5916 193.883 83.6983 193.623 83.6983 193.31V192.66ZM81.0783 190.99V190.2C81.4583 189.967 81.9583 189.85 82.5783 189.85C83.8516 189.85 84.4883 190.497 84.4883 191.79V195H83.7083V194.4C83.4483 194.833 82.9749 195.05 82.2883 195.05C81.8149 195.05 81.4316 194.91 81.1383 194.63C80.8516 194.35 80.7083 193.997 80.7083 193.57C80.7083 193.083 80.8916 192.707 81.2583 192.44C81.6316 192.167 82.1383 192.03 82.7783 192.03H83.6983V191.77C83.6983 191.37 83.6083 191.07 83.4283 190.87C83.2483 190.663 82.9449 190.56 82.5183 190.56C81.9783 190.56 81.4983 190.703 81.0783 190.99ZM86.6702 189.93V190.81C86.9702 190.177 87.5035 189.86 88.2702 189.86C88.7635 189.86 89.1568 190.01 89.4502 190.31C89.7435 190.61 89.8902 191.01 89.8902 191.51V195H89.1002V191.72C89.1002 191.347 89.0035 191.063 88.8102 190.87C88.6235 190.67 88.3768 190.57 88.0702 190.57C87.6902 190.57 87.3602 190.717 87.0802 191.01C86.8068 191.303 86.6702 191.71 86.6702 192.23V195H85.8902V189.93H86.6702Z" fill="#2B2B2B"/>
<path d="M94.962 193.97H96.042C96.8486 193.97 97.252 193.663 97.252 193.05C97.252 192.423 96.832 192.11 95.992 192.11H94.962V193.97ZM94.962 189.29V191.1H95.722C96.1753 191.1 96.5153 191.01 96.742 190.83C96.9686 190.65 97.082 190.42 97.082 190.14C97.082 189.88 96.9853 189.673 96.792 189.52C96.6053 189.367 96.3186 189.29 95.932 189.29H94.962ZM93.702 188.26H96.092C96.812 188.26 97.372 188.43 97.772 188.77C98.172 189.11 98.372 189.55 98.372 190.09C98.372 190.457 98.272 190.777 98.072 191.05C97.872 191.317 97.6153 191.493 97.302 191.58C97.662 191.667 97.9586 191.843 98.192 192.11C98.4253 192.37 98.542 192.727 98.542 193.18C98.542 193.713 98.3553 194.15 97.982 194.49C97.6086 194.83 97.092 195 96.432 195H93.702V188.26ZM99.6199 195V188.26H101.05L102.67 191.07C102.937 191.53 103.173 191.96 103.38 192.36C103.593 192.753 103.737 193.033 103.81 193.2L103.92 193.45C103.867 192.897 103.84 192.103 103.84 191.07V188.26H105.11V195H103.67L102.03 192.2C101.77 191.76 101.533 191.34 101.32 190.94C101.113 190.533 100.97 190.24 100.89 190.06L100.77 189.78C100.843 190.413 100.88 191.217 100.88 192.19V195H99.6199ZM106.585 195V188.26H107.845V195H106.585ZM116.057 188.26V189.3H114.347V195H113.077V189.3H111.367V188.26H116.057ZM119.543 192.82H118.923C118.609 192.82 118.369 192.887 118.203 193.02C118.036 193.147 117.953 193.31 117.953 193.51C117.953 193.937 118.199 194.15 118.693 194.15C118.959 194.15 119.166 194.073 119.313 193.92C119.466 193.76 119.543 193.553 119.543 193.3V192.82ZM117.083 191.3V190.19C117.463 189.957 118.009 189.84 118.723 189.84C120.096 189.84 120.783 190.48 120.783 191.76V195H119.593V194.39C119.359 194.823 118.919 195.04 118.273 195.04C117.793 195.04 117.409 194.9 117.123 194.62C116.843 194.34 116.703 193.987 116.703 193.56C116.703 193.08 116.883 192.703 117.243 192.43C117.603 192.157 118.123 192.02 118.803 192.02H119.543V191.71C119.543 191.43 119.469 191.217 119.323 191.07C119.176 190.923 118.926 190.85 118.573 190.85C118.033 190.85 117.536 191 117.083 191.3ZM124.481 194.04C124.841 194.04 125.134 193.903 125.361 193.63C125.588 193.35 125.701 192.96 125.701 192.46C125.701 191.96 125.588 191.573 125.361 191.3C125.134 191.02 124.848 190.88 124.501 190.88C124.154 190.88 123.854 191.01 123.601 191.27C123.348 191.53 123.221 191.917 123.221 192.43C123.221 192.943 123.344 193.34 123.591 193.62C123.838 193.9 124.134 194.04 124.481 194.04ZM123.221 189.93V190.71C123.581 190.143 124.098 189.86 124.771 189.86C125.431 189.86 125.954 190.097 126.341 190.57C126.734 191.043 126.931 191.667 126.931 192.44C126.931 193.2 126.734 193.83 126.341 194.33C125.954 194.823 125.428 195.07 124.761 195.07C124.081 195.07 123.568 194.793 123.221 194.24V196.91H122.021V189.93H123.221ZM128.009 195V187.93H129.209V195H128.009ZM133.696 189.93H134.906V195H133.696V194.17C133.43 194.757 132.91 195.05 132.136 195.05C131.623 195.05 131.223 194.903 130.936 194.61C130.65 194.317 130.506 193.9 130.506 193.36V189.93H131.706V193.08C131.706 193.4 131.783 193.643 131.936 193.81C132.096 193.977 132.313 194.06 132.586 194.06C132.933 194.06 133.203 193.943 133.396 193.71C133.596 193.477 133.696 193.123 133.696 192.65V189.93ZM139.241 190.09V191.15C138.907 190.95 138.491 190.85 137.991 190.85C137.784 190.85 137.621 190.897 137.501 190.99C137.387 191.077 137.331 191.19 137.331 191.33C137.331 191.383 137.337 191.433 137.351 191.48C137.371 191.527 137.401 191.573 137.441 191.62C137.487 191.66 137.531 191.697 137.571 191.73C137.611 191.763 137.667 191.8 137.741 191.84C137.814 191.873 137.877 191.903 137.931 191.93C137.984 191.957 138.057 191.99 138.151 192.03C138.244 192.07 138.317 192.103 138.371 192.13C138.724 192.303 139.004 192.497 139.211 192.71C139.417 192.923 139.521 193.2 139.521 193.54C139.521 194.013 139.351 194.383 139.011 194.65C138.671 194.917 138.217 195.05 137.651 195.05C137.024 195.05 136.517 194.947 136.131 194.74V193.64C136.577 193.94 137.061 194.09 137.581 194.09C137.801 194.09 137.971 194.05 138.091 193.97C138.217 193.883 138.281 193.767 138.281 193.62C138.281 193.533 138.261 193.457 138.221 193.39C138.181 193.317 138.104 193.247 137.991 193.18C137.877 193.113 137.787 193.067 137.721 193.04C137.661 193.007 137.537 192.95 137.351 192.87C137.331 192.863 137.314 192.857 137.301 192.85C137.294 192.843 137.281 192.837 137.261 192.83C137.241 192.823 137.224 192.817 137.211 192.81C136.471 192.477 136.101 191.997 136.101 191.37C136.101 190.903 136.277 190.537 136.631 190.27C136.984 190.003 137.427 189.87 137.961 189.87C138.474 189.87 138.901 189.943 139.241 190.09ZM142.889 195L143.429 188.26H144.869L145.789 190.71C145.949 191.123 146.099 191.537 146.239 191.95C146.379 192.357 146.479 192.66 146.539 192.86L146.629 193.17C146.835 192.477 147.122 191.657 147.489 190.71L148.429 188.26H149.869L150.529 195H149.269L149.029 192.37L148.849 190.01C148.609 190.697 148.322 191.483 147.989 192.37L147.049 194.9H146.189L145.269 192.37L144.479 190.04C144.479 190.367 144.435 191.143 144.349 192.37L144.149 195H142.889ZM154.897 189.93H156.107V195H154.897V194.17C154.631 194.757 154.111 195.05 153.337 195.05C152.824 195.05 152.424 194.903 152.137 194.61C151.851 194.317 151.707 193.9 151.707 193.36V189.93H152.907V193.08C152.907 193.4 152.984 193.643 153.137 193.81C153.297 193.977 153.514 194.06 153.787 194.06C154.134 194.06 154.404 193.943 154.597 193.71C154.797 193.477 154.897 193.123 154.897 192.65V189.93ZM159.592 194.04C159.952 194.04 160.252 193.903 160.492 193.63C160.732 193.35 160.852 192.947 160.852 192.42C160.852 191.907 160.725 191.523 160.472 191.27C160.218 191.01 159.928 190.88 159.602 190.88C159.255 190.88 158.962 191.023 158.722 191.31C158.488 191.59 158.372 191.983 158.372 192.49C158.372 192.95 158.488 193.323 158.722 193.61C158.955 193.897 159.245 194.04 159.592 194.04ZM160.852 187.93H162.052V195H160.852V194.21C160.505 194.783 159.992 195.07 159.312 195.07C158.645 195.07 158.115 194.817 157.722 194.31C157.335 193.803 157.142 193.19 157.142 192.47C157.142 191.67 157.345 191.037 157.752 190.57C158.165 190.097 158.692 189.86 159.332 189.86C159.992 189.86 160.498 190.143 160.852 190.71V187.93ZM165.939 192.82H165.319C165.006 192.82 164.766 192.887 164.599 193.02C164.433 193.147 164.349 193.31 164.349 193.51C164.349 193.937 164.596 194.15 165.089 194.15C165.356 194.15 165.563 194.073 165.709 193.92C165.863 193.76 165.939 193.553 165.939 193.3V192.82ZM163.479 191.3V190.19C163.859 189.957 164.406 189.84 165.119 189.84C166.493 189.84 167.179 190.48 167.179 191.76V195H165.989V194.39C165.756 194.823 165.316 195.04 164.669 195.04C164.189 195.04 163.806 194.9 163.519 194.62C163.239 194.34 163.099 193.987 163.099 193.56C163.099 193.08 163.279 192.703 163.639 192.43C163.999 192.157 164.519 192.02 165.199 192.02H165.939V191.71C165.939 191.43 165.866 191.217 165.719 191.07C165.573 190.923 165.323 190.85 164.969 190.85C164.429 190.85 163.933 191 163.479 191.3Z" fill="#DA011C"/>
<path d="M211.523 188.96V191.65H212.543C213.003 191.65 213.353 191.527 213.593 191.28C213.84 191.027 213.963 190.703 213.963 190.31C213.963 189.41 213.46 188.96 212.453 188.96H211.523ZM215.193 195H214.223L212.573 192.34H212.493H211.523V195H210.713V188.26H212.403C213.183 188.26 213.773 188.443 214.173 188.81C214.58 189.177 214.783 189.683 214.783 190.33C214.77 190.797 214.647 191.193 214.413 191.52C214.18 191.847 213.85 192.077 213.423 192.21L215.193 195ZM218.382 194.36C218.809 194.36 219.159 194.193 219.432 193.86C219.705 193.52 219.842 193.04 219.842 192.42C219.842 191.867 219.709 191.42 219.442 191.08C219.175 190.74 218.839 190.57 218.432 190.57C218.025 190.57 217.672 190.72 217.372 191.02C217.079 191.313 216.932 191.797 216.932 192.47C216.932 193.117 217.082 193.593 217.382 193.9C217.682 194.207 218.015 194.36 218.382 194.36ZM216.932 189.93V190.7C217.285 190.133 217.809 189.85 218.502 189.85C219.175 189.85 219.702 190.097 220.082 190.59C220.469 191.077 220.662 191.687 220.662 192.42C220.662 193.2 220.459 193.84 220.052 194.34C219.652 194.833 219.129 195.08 218.482 195.08C217.815 195.08 217.299 194.797 216.932 194.23V196.97H216.152V189.93H216.932ZM227.449 194.31H230.489V195H226.359V194.33C228.425 192.77 229.459 191.47 229.459 190.43C229.459 190.017 229.339 189.7 229.099 189.48C228.859 189.253 228.535 189.14 228.129 189.14C227.602 189.14 227.082 189.337 226.569 189.73V188.94C227.042 188.573 227.585 188.39 228.199 188.39C228.785 188.39 229.279 188.56 229.679 188.9C230.079 189.24 230.279 189.723 230.279 190.35C230.279 191.53 229.335 192.85 227.449 194.31ZM231.35 191.71C231.35 190.683 231.557 189.873 231.97 189.28C232.39 188.68 232.94 188.38 233.62 188.38C234.327 188.38 234.887 188.68 235.3 189.28C235.72 189.873 235.93 190.683 235.93 191.71C235.93 192.73 235.73 193.547 235.33 194.16C234.93 194.773 234.36 195.08 233.62 195.08C232.933 195.08 232.383 194.773 231.97 194.16C231.557 193.547 231.35 192.73 231.35 191.71ZM232.59 189.81C232.303 190.257 232.16 190.89 232.16 191.71C232.16 192.53 232.3 193.173 232.58 193.64C232.86 194.1 233.207 194.33 233.62 194.33C234.08 194.33 234.443 194.103 234.71 193.65C234.983 193.197 235.12 192.55 235.12 191.71C235.12 190.877 234.977 190.24 234.69 189.8C234.41 189.353 234.053 189.13 233.62 189.13C233.22 189.13 232.877 189.357 232.59 189.81ZM236.789 191.71C236.789 190.683 236.996 189.873 237.409 189.28C237.829 188.68 238.379 188.38 239.059 188.38C239.766 188.38 240.326 188.68 240.739 189.28C241.159 189.873 241.369 190.683 241.369 191.71C241.369 192.73 241.169 193.547 240.769 194.16C240.369 194.773 239.799 195.08 239.059 195.08C238.373 195.08 237.823 194.773 237.409 194.16C236.996 193.547 236.789 192.73 236.789 191.71ZM238.029 189.81C237.743 190.257 237.599 190.89 237.599 191.71C237.599 192.53 237.739 193.173 238.019 193.64C238.299 194.1 238.646 194.33 239.059 194.33C239.519 194.33 239.883 194.103 240.149 193.65C240.423 193.197 240.559 192.55 240.559 191.71C240.559 190.877 240.416 190.24 240.129 189.8C239.849 189.353 239.493 189.13 239.059 189.13C238.659 189.13 238.316 189.357 238.029 189.81ZM242.209 194.91C242.095 194.797 242.039 194.657 242.039 194.49C242.039 194.323 242.095 194.183 242.209 194.07C242.322 193.957 242.462 193.9 242.629 193.9C242.795 193.9 242.935 193.957 243.049 194.07C243.162 194.183 243.219 194.323 243.219 194.49C243.219 194.657 243.162 194.797 243.049 194.91C242.935 195.023 242.795 195.08 242.629 195.08C242.462 195.08 242.322 195.023 242.209 194.91ZM243.889 191.71C243.889 190.683 244.096 189.873 244.509 189.28C244.929 188.68 245.479 188.38 246.159 188.38C246.866 188.38 247.426 188.68 247.839 189.28C248.259 189.873 248.469 190.683 248.469 191.71C248.469 192.73 248.269 193.547 247.869 194.16C247.469 194.773 246.899 195.08 246.159 195.08C245.472 195.08 244.922 194.773 244.509 194.16C244.096 193.547 243.889 192.73 243.889 191.71ZM245.129 189.81C244.842 190.257 244.699 190.89 244.699 191.71C244.699 192.53 244.839 193.173 245.119 193.64C245.399 194.1 245.746 194.33 246.159 194.33C246.619 194.33 246.982 194.103 247.249 193.65C247.522 193.197 247.659 192.55 247.659 191.71C247.659 190.877 247.516 190.24 247.229 189.8C246.949 189.353 246.592 189.13 246.159 189.13C245.759 189.13 245.416 189.357 245.129 189.81ZM249.328 191.71C249.328 190.683 249.535 189.873 249.948 189.28C250.368 188.68 250.918 188.38 251.598 188.38C252.305 188.38 252.865 188.68 253.278 189.28C253.698 189.873 253.908 190.683 253.908 191.71C253.908 192.73 253.708 193.547 253.308 194.16C252.908 194.773 252.338 195.08 251.598 195.08C250.912 195.08 250.362 194.773 249.948 194.16C249.535 193.547 249.328 192.73 249.328 191.71ZM250.568 189.81C250.282 190.257 250.138 190.89 250.138 191.71C250.138 192.53 250.278 193.173 250.558 193.64C250.838 194.1 251.185 194.33 251.598 194.33C252.058 194.33 252.422 194.103 252.688 193.65C252.962 193.197 253.098 192.55 253.098 191.71C253.098 190.877 252.955 190.24 252.668 189.8C252.388 189.353 252.032 189.13 251.598 189.13C251.198 189.13 250.855 189.357 250.568 189.81ZM254.768 191.71C254.768 190.683 254.975 189.873 255.388 189.28C255.808 188.68 256.358 188.38 257.038 188.38C257.745 188.38 258.305 188.68 258.718 189.28C259.138 189.873 259.348 190.683 259.348 191.71C259.348 192.73 259.148 193.547 258.748 194.16C258.348 194.773 257.778 195.08 257.038 195.08C256.351 195.08 255.801 194.773 255.388 194.16C254.975 193.547 254.768 192.73 254.768 191.71ZM256.008 189.81C255.721 190.257 255.578 190.89 255.578 191.71C255.578 192.53 255.718 193.173 255.998 193.64C256.278 194.1 256.625 194.33 257.038 194.33C257.498 194.33 257.861 194.103 258.128 193.65C258.401 193.197 258.538 192.55 258.538 191.71C258.538 190.877 258.395 190.24 258.108 189.8C257.828 189.353 257.471 189.13 257.038 189.13C256.638 189.13 256.295 189.357 256.008 189.81ZM259.697 196.23L260.627 193.99H261.677L260.387 196.23H259.697ZM262.593 192.66V191.97H264.933V192.66H262.593Z" fill="#2B2B2B"/>
<rect x="67.5" y="212.5" width="83" height="25" rx="7.5" fill="white"/>
<rect x="67.5" y="212.5" width="83" height="25" rx="7.5" stroke="#2B2B2B"/>
<path d="M103.351 221.608L103.351 222.44L101.983 222.44L101.983 227L100.967 227L100.967 222.44L99.5986 222.44L99.5986 221.608L103.351 221.608ZM104.107 227L104.107 222.944L105.067 222.944L105.067 227L104.107 227ZM104.011 221.728C104.011 221.568 104.067 221.432 104.179 221.32C104.291 221.208 104.427 221.152 104.587 221.152C104.747 221.152 104.883 221.208 104.995 221.32C105.107 221.432 105.163 221.568 105.163 221.728C105.163 221.893 105.107 222.032 104.995 222.144C104.883 222.256 104.747 222.312 104.587 222.312C104.427 222.312 104.291 222.256 104.179 222.144C104.067 222.032 104.011 221.893 104.011 221.728ZM107.889 226.232C108.177 226.232 108.417 226.123 108.609 225.904C108.801 225.68 108.897 225.357 108.897 224.936C108.897 224.525 108.796 224.219 108.593 224.016C108.39 223.808 108.158 223.704 107.897 223.704C107.62 223.704 107.385 223.819 107.193 224.048C107.006 224.272 106.913 224.587 106.913 224.992C106.913 225.36 107.006 225.659 107.193 225.888C107.38 226.117 107.612 226.232 107.889 226.232ZM108.897 221.344L109.857 221.344L109.857 227L108.897 227L108.897 226.368C108.62 226.827 108.209 227.056 107.665 227.056C107.132 227.056 106.708 226.853 106.393 226.448C106.084 226.043 105.929 225.552 105.929 224.976C105.929 224.336 106.092 223.829 106.417 223.456C106.748 223.077 107.169 222.888 107.681 222.888C108.209 222.888 108.614 223.115 108.897 223.568L108.897 221.344ZM112.967 225.256L112.471 225.256C112.22 225.256 112.028 225.309 111.895 225.416C111.762 225.517 111.695 225.648 111.695 225.808C111.695 226.149 111.892 226.32 112.287 226.32C112.5 226.32 112.666 226.259 112.783 226.136C112.906 226.008 112.967 225.843 112.967 225.64L112.967 225.256ZM110.999 224.04L110.999 223.152C111.303 222.965 111.74 222.872 112.311 222.872C113.41 222.872 113.959 223.384 113.959 224.408L113.959 227L113.007 227L113.007 226.512C112.82 226.859 112.468 227.032 111.951 227.032C111.567 227.032 111.26 226.92 111.031 226.696C110.807 226.472 110.695 226.189 110.695 225.848C110.695 225.464 110.839 225.163 111.127 224.944C111.415 224.725 111.831 224.616 112.375 224.616L112.967 224.616L112.967 224.368C112.967 224.144 112.908 223.973 112.791 223.856C112.674 223.739 112.474 223.68 112.191 223.68C111.759 223.68 111.362 223.8 110.999 224.04ZM118.494 227L117.366 227L115.91 224.904L115.91 227L114.95 227L114.95 221.44L115.91 221.44L115.91 224.848L117.342 222.944L118.462 222.944L116.974 224.88L118.494 227Z" fill="#2B2B2B"/>
<g filter="url(#filter1_d_1124_4113)">
<rect x="163" y="212" width="84" height="26" rx="8" fill="#FF1934" shape-rendering="crispEdges"/>
<path d="M205.325 221.608L203.469 225L203.469 227L202.461 227L202.461 225.032L200.621 221.608L201.797 221.608L202.157 222.392C202.365 222.845 202.535 223.227 202.669 223.536C202.802 223.84 202.882 224.029 202.909 224.104L202.957 224.224C203.005 224.027 203.279 223.416 203.781 222.392L204.149 221.608L205.325 221.608ZM208.061 225.256L207.565 225.256C207.314 225.256 207.122 225.309 206.989 225.416C206.855 225.517 206.789 225.648 206.789 225.808C206.789 226.149 206.986 226.32 207.381 226.32C207.594 226.32 207.759 226.259 207.877 226.136C207.999 226.008 208.061 225.843 208.061 225.64L208.061 225.256ZM206.093 224.04L206.093 223.152C206.397 222.965 206.834 222.872 207.405 222.872C208.503 222.872 209.053 223.384 209.053 224.408L209.053 227L208.101 227L208.101 226.512C207.914 226.859 207.562 227.032 207.045 227.032C206.661 227.032 206.354 226.92 206.125 226.696C205.901 226.472 205.789 226.189 205.789 225.848C205.789 225.464 205.933 225.163 206.221 224.944C206.509 224.725 206.925 224.616 207.469 224.616L208.061 224.616L208.061 224.368C208.061 224.144 208.002 223.973 207.885 223.856C207.767 223.739 207.567 223.68 207.285 223.68C206.853 223.68 206.455 223.8 206.093 224.04Z" fill="white"/>
</g>
<defs>
<filter id="filter0_d_1124_4113" x="-4" y="-2" width="322" height="56" filterUnits="userSpaceOnUse" color-interpolation-filters="sRGB">
<feFlood flood-opacity="0" result="BackgroundImageFix"/>
<feColorMatrix in="SourceAlpha" type="matrix" values="0 0 0 0 0 0 0 0 0 0 0 0 0 0 0 0 0 0 127 0" result="hardAlpha"/>
<feOffset dy="2"/>
<feGaussianBlur stdDeviation="2"/>
<feComposite in2="hardAlpha" operator="out"/>
<feColorMatrix type="matrix" values="0 0 0 0 0.168627 0 0 0 0 0.168627 0 0 0 0 0.168627 0 0 0 0.24 0"/>
<feBlend mode="normal" in2="BackgroundImageFix" result="effect1_dropShadow_1124_4113"/>
<feBlend mode="normal" in="SourceGraphic" in2="effect1_dropShadow_1124_4113" result="shape"/>
</filter>
<filter id="filter1_d_1124_4113" x="157" y="206" width="100" height="42" filterUnits="userSpaceOnUse" color-interpolation-filters="sRGB">
<feFlood flood-opacity="0" result="BackgroundImageFix"/>
<feColorMatrix in="SourceAlpha" type="matrix" values="0 0 0 0 0 0 0 0 0 0 0 0 0 0 0 0 0 0 127 0" result="hardAlpha"/>
<feOffset dx="2" dy="2"/>
<feGaussianBlur stdDeviation="4"/>
<feComposite in2="hardAlpha" operator="out"/>
<feColorMatrix type="matrix" values="0 0 0 0 0 0 0 0 0 0 0 0 0 0 0 0 0 0 0.12 0"/>
<feBlend mode="normal" in2="BackgroundImageFix" result="effect1_dropShadow_1124_4113"/>
<feBlend mode="normal" in="SourceGraphic" in2="effect1_dropShadow_1124_4113" result="shape"/>
</filter>
<clipPath id="clip0_1124_4113">
<rect width="24" height="24" fill="white" transform="translate(16 16)"/>
</clipPath>
<clipPath id="clip1_1124_4113">
<rect width="64" height="64" fill="white" transform="translate(125 72)"/>
</clipPath>
</defs>
</svg>
