<svg width="213" height="252" viewBox="0 0 213 252" fill="none" xmlns="http://www.w3.org/2000/svg">
<rect width="213" height="252" fill="#D3D3D3"/>
<rect width="213" height="252" rx="16" fill="white"/>
<g filter="url(#filter0_d_1124_4113)">
<path d="M0 16C0 7.16344 7.16344 0 16 0H197C205.837 0 213 7.16344 213 16V48H0V16Z" fill="#FF1934" shape-rendering="crispEdges"/>
<g clip-path="url(#clip0_1124_4113)">
<path d="M36.2904 34.72C35.2004 33.29 33.7604 32.16 32.1204 31.45C31.8304 31.33 31.7304 31.07 31.7004 30.94C31.6404 30.68 31.7004 30.4 31.8804 30.19C32.9604 28.89 33.6104 27.18 33.6104 25.61C33.6104 22.52 31.1004 20.01 28.0104 20.01C24.9204 20.01 22.4104 22.52 22.4104 25.61C22.4104 27.18 23.0604 28.89 24.1404 30.19C24.3104 30.4 24.3804 30.68 24.3204 30.94C24.2904 31.08 24.1904 31.33 23.9004 31.45C22.2604 32.16 20.8104 33.29 19.7204 34.72C19.4504 35.07 19.5204 35.57 19.8704 35.84C20.0204 35.95 20.1904 36 20.3504 36C20.5904 36 20.8304 35.89 20.9904 35.68C21.9104 34.47 23.1304 33.51 24.5304 32.91C25.2104 32.62 25.7004 32.03 25.8704 31.3C26.0504 30.55 25.8704 29.75 25.3704 29.15C24.5304 28.14 24.0104 26.78 24.0104 25.59C24.0104 23.38 25.8004 21.59 28.0104 21.59C30.2204 21.59 32.0104 23.38 32.0104 25.59C32.0104 26.78 31.4904 28.14 30.6504 29.15C29.8704 30.08 28.9404 30.59 28.0104 30.59C27.5704 30.59 27.2104 30.95 27.2104 31.39C27.2104 31.83 27.5704 32.19 28.0104 32.19C28.7804 32.19 29.5404 31.97 30.2404 31.56C30.4604 32.16 30.8904 32.65 31.4904 32.9C32.8804 33.5 34.1004 34.46 35.0304 35.67C35.1904 35.88 35.4304 35.99 35.6704 35.99C35.8404 35.99 36.0104 35.94 36.1504 35.83C36.5004 35.56 36.5704 35.06 36.3004 34.71L36.2904 34.72Z" fill="white"/>
</g>
<path d="M51.066 27.24H51.78C52.9187 27.24 53.488 26.722 53.488 25.686C53.488 24.7527 52.9607 24.286 51.906 24.286H51.066V27.24ZM48.91 22.564H52.158C53.2033 22.564 54.048 22.858 54.692 23.446C55.3453 24.034 55.672 24.7807 55.672 25.686C55.672 26.722 55.3313 27.5247 54.65 28.094C53.978 28.6633 53.1473 28.948 52.158 28.948H51.066V32H48.91V22.564ZM58.7587 24.902V26.218C58.8893 25.8073 59.104 25.4807 59.4027 25.238C59.7107 24.986 60.0653 24.86 60.4667 24.86C60.6907 24.86 60.868 24.8787 60.9987 24.916V26.848C60.7747 26.7453 60.518 26.694 60.2287 26.694C59.79 26.694 59.4353 26.8573 59.1647 27.184C58.894 27.5013 58.7587 27.926 58.7587 28.458V32H56.7147L56.7287 24.902H58.7587ZM65.0463 32.112C63.9356 32.112 63.077 31.7807 62.4703 31.118C61.8636 30.446 61.5603 29.5873 61.5603 28.542C61.5603 27.45 61.8776 26.554 62.5123 25.854C63.147 25.1447 63.9916 24.79 65.0463 24.79C66.1476 24.79 67.0016 25.1307 67.6083 25.812C68.215 26.4933 68.5183 27.3613 68.5183 28.416C68.5183 29.4893 68.2103 30.376 67.5943 31.076C66.9876 31.7667 66.1383 32.112 65.0463 32.112ZM65.0323 26.4C64.5843 26.4 64.2483 26.5913 64.0243 26.974C63.8003 27.3567 63.6883 27.8513 63.6883 28.458C63.6883 29.0647 63.8003 29.564 64.0243 29.956C64.2576 30.3387 64.603 30.53 65.0603 30.53C65.5083 30.53 65.8396 30.3433 66.0543 29.97C66.2783 29.5873 66.3903 29.0927 66.3903 28.486C66.3903 27.0953 65.9376 26.4 65.0323 26.4ZM76.4617 24.902V32H74.4177V26.4H72.3877V32H70.3577V26.4H69.4337V24.902H70.3577V24.636C70.3577 23.7773 70.5957 23.11 71.0717 22.634C71.557 22.158 72.2243 21.92 73.0737 21.92C73.9883 21.92 74.8703 22.116 75.7197 22.508V24.16C74.833 23.7587 74.063 23.558 73.4097 23.558C73.0643 23.558 72.8077 23.6373 72.6397 23.796C72.4717 23.9547 72.3877 24.2347 72.3877 24.636V24.902H76.4617ZM77.9764 32V22.102H80.0204V32H77.9764ZM87.5015 27.24H88.2155C89.3542 27.24 89.9235 26.722 89.9235 25.686C89.9235 24.7527 89.3962 24.286 88.3415 24.286H87.5015V27.24ZM85.3455 22.564H88.5935C89.6389 22.564 90.4835 22.858 91.1275 23.446C91.7809 24.034 92.1075 24.7807 92.1075 25.686C92.1075 26.722 91.7669 27.5247 91.0855 28.094C90.4135 28.6633 89.5829 28.948 88.5935 28.948H87.5015V32H85.3455V22.564ZM97.2662 27.8V27.632C97.2009 26.8013 96.8369 26.386 96.1742 26.386C95.8476 26.386 95.5582 26.5073 95.3062 26.75C95.0542 26.9833 94.8862 27.3333 94.8022 27.8H97.2662ZM98.7362 29.886V31.594C98.2509 31.9113 97.5089 32.07 96.5102 32.07C95.3436 32.07 94.4336 31.734 93.7802 31.062C93.1362 30.3807 92.8142 29.508 92.8142 28.444C92.8142 27.3147 93.1269 26.4327 93.7522 25.798C94.3869 25.154 95.1662 24.832 96.0902 24.832C97.0422 24.832 97.7936 25.112 98.3442 25.672C98.8949 26.2227 99.1702 27.0487 99.1702 28.15C99.1702 28.3647 99.1329 28.7333 99.0582 29.256H94.8862C95.0262 29.648 95.2689 29.9513 95.6142 30.166C95.9596 30.3807 96.3749 30.488 96.8602 30.488C97.5789 30.488 98.2042 30.2873 98.7362 29.886ZM107.307 32H104.941L102.673 28.514V32H100.629V22.34H102.673V28.08L104.913 24.902H107.265L104.801 28.304L107.307 32ZM112.401 27.8V27.632C112.336 26.8013 111.972 26.386 111.309 26.386C110.982 26.386 110.693 26.5073 110.441 26.75C110.189 26.9833 110.021 27.3333 109.937 27.8H112.401ZM113.871 29.886V31.594C113.386 31.9113 112.644 32.07 111.645 32.07C110.478 32.07 109.568 31.734 108.915 31.062C108.271 30.3807 107.949 29.508 107.949 28.444C107.949 27.3147 108.262 26.4327 108.887 25.798C109.522 25.154 110.301 24.832 111.225 24.832C112.177 24.832 112.928 25.112 113.479 25.672C114.03 26.2227 114.305 27.0487 114.305 28.15C114.305 28.3647 114.268 28.7333 114.193 29.256H110.021C110.161 29.648 110.404 29.9513 110.749 30.166C111.094 30.3807 111.51 30.488 111.995 30.488C112.714 30.488 113.339 30.2873 113.871 29.886ZM117.794 24.902V26.218C117.924 25.8073 118.139 25.4807 118.438 25.238C118.746 24.986 119.1 24.86 119.502 24.86C119.726 24.86 119.903 24.8787 120.034 24.916V26.848C119.81 26.7453 119.553 26.694 119.264 26.694C118.825 26.694 118.47 26.8573 118.2 27.184C117.929 27.5013 117.794 27.926 117.794 28.458V32H115.75L115.764 24.902H117.794ZM119.545 34.548V32.994C119.853 33.134 120.119 33.204 120.343 33.204C120.829 33.204 121.071 32.8913 121.071 32.266V24.902H123.101V32.294C123.101 33.0407 122.891 33.638 122.471 34.086C122.051 34.5433 121.445 34.772 120.651 34.772C120.325 34.772 119.956 34.6973 119.545 34.548ZM121.239 23.684C121.006 23.4507 120.889 23.1707 120.889 22.844C120.889 22.5173 121.006 22.2373 121.239 22.004C121.473 21.7707 121.753 21.654 122.079 21.654C122.406 21.654 122.686 21.7707 122.919 22.004C123.153 22.2373 123.269 22.5173 123.269 22.844C123.269 23.1707 123.153 23.4507 122.919 23.684C122.686 23.9173 122.406 24.034 122.079 24.034C121.753 24.034 121.473 23.9173 121.239 23.684ZM128.301 29.088H127.643C127.298 29.088 127.032 29.1627 126.845 29.312C126.659 29.4613 126.565 29.6527 126.565 29.886C126.565 30.362 126.841 30.6 127.391 30.6C127.681 30.6 127.905 30.5113 128.063 30.334C128.222 30.1567 128.301 29.914 128.301 29.606V29.088ZM124.983 27.086V25.252C125.543 24.9347 126.351 24.776 127.405 24.776C128.413 24.776 129.165 24.9953 129.659 25.434C130.154 25.8633 130.401 26.5353 130.401 27.45V32H128.399V31.132C128.101 31.7387 127.513 32.042 126.635 32.042C125.945 32.042 125.403 31.846 125.011 31.454C124.629 31.062 124.437 30.572 124.437 29.984C124.437 29.3027 124.685 28.7753 125.179 28.402C125.683 28.0193 126.425 27.828 127.405 27.828H128.301V27.338C128.301 26.7407 127.905 26.442 127.111 26.442C126.346 26.442 125.637 26.6567 124.983 27.086ZM135.52 29.088H134.862C134.517 29.088 134.251 29.1627 134.064 29.312C133.877 29.4613 133.784 29.6527 133.784 29.886C133.784 30.362 134.059 30.6 134.61 30.6C134.899 30.6 135.123 30.5113 135.282 30.334C135.441 30.1567 135.52 29.914 135.52 29.606V29.088ZM132.202 27.086V25.252C132.762 24.9347 133.569 24.776 134.624 24.776C135.632 24.776 136.383 24.9953 136.878 25.434C137.373 25.8633 137.62 26.5353 137.62 27.45V32H135.618V31.132C135.319 31.7387 134.731 32.042 133.854 32.042C133.163 32.042 132.622 31.846 132.23 31.454C131.847 31.062 131.656 30.572 131.656 29.984C131.656 29.3027 131.903 28.7753 132.398 28.402C132.902 28.0193 133.644 27.828 134.624 27.828H135.52V27.338C135.52 26.7407 135.123 26.442 134.33 26.442C133.565 26.442 132.855 26.6567 132.202 27.086ZM141.269 24.902V26.106C141.446 25.714 141.717 25.406 142.081 25.182C142.454 24.9487 142.897 24.832 143.411 24.832C144.139 24.832 144.708 25.0513 145.119 25.49C145.529 25.9193 145.735 26.554 145.735 27.394V32H143.691V27.772C143.691 27.352 143.593 27.0347 143.397 26.82C143.201 26.596 142.925 26.484 142.571 26.484C142.197 26.484 141.885 26.6333 141.633 26.932C141.39 27.2213 141.269 27.66 141.269 28.248V32H139.225V24.902H141.269Z" fill="white"/>
<path d="M185 14C185 6.26801 191.268 -5.47967e-07 199 -1.22392e-06C206.732 -1.89987e-06 213 6.26801 213 14C213 21.732 206.732 28 199 28C191.268 28 185 21.732 185 14Z" fill="#FF1934"/>
<g clip-path="url(#clip1_1124_4113)">
<path d="M203.21 9.40998C202.88 9.10998 202.38 9.12998 202.08 9.45998L199 12.82L195.92 9.45998C195.62 9.12998 195.11 9.10998 194.79 9.40998C194.46 9.70998 194.44 10.21 194.74 10.54L197.91 14L194.74 17.46C194.44 17.79 194.46 18.29 194.79 18.59C194.94 18.73 195.14 18.8 195.33 18.8C195.55 18.8 195.76 18.71 195.92 18.54L199 15.18L202.08 18.54C202.24 18.71 202.45 18.8 202.67 18.8C202.86 18.8 203.06 18.73 203.21 18.59C203.54 18.29 203.56 17.79 203.26 17.46L200.09 14L203.26 10.54C203.56 10.21 203.54 9.70998 203.21 9.40998Z" fill="white"/>
<path d="M199 4C193.49 4 189 8.49 189 14C189 19.51 193.49 24 199 24C204.51 24 209 19.51 209 14C209 8.49 204.51 4 199 4ZM199 22.4C194.37 22.4 190.6 18.63 190.6 14C190.6 9.37 194.37 5.6 199 5.6C203.63 5.6 207.4 9.37 207.4 14C207.4 18.63 203.63 22.4 199 22.4Z" fill="white"/>
</g>
</g>
<path d="M16 80C16 75.5817 19.5817 72 24 72H189C193.418 72 197 75.5817 197 80V212C197 216.418 193.418 220 189 220H24C19.5817 220 16 216.418 16 212V80Z" fill="white"/>
<g clip-path="url(#clip2_1124_4113)">
<path d="M120.317 119.2C118.5 116.817 116.1 114.933 113.367 113.75C112.884 113.55 112.717 113.117 112.667 112.9C112.567 112.467 112.667 112 112.967 111.65C114.767 109.483 115.85 106.633 115.85 104.017C115.85 98.8667 111.667 94.6833 106.517 94.6833C101.367 94.6833 97.1837 98.8667 97.1837 104.017C97.1837 106.633 98.2671 109.483 100.067 111.65C100.35 112 100.467 112.467 100.367 112.9C100.317 113.133 100.15 113.55 99.6671 113.75C96.9337 114.933 94.5171 116.817 92.7004 119.2C92.2504 119.783 92.3671 120.617 92.9504 121.067C93.2004 121.25 93.4837 121.333 93.7504 121.333C94.1504 121.333 94.5504 121.15 94.8171 120.8C96.3504 118.783 98.3837 117.183 100.717 116.183C101.85 115.7 102.667 114.717 102.95 113.5C103.25 112.25 102.95 110.917 102.117 109.917C100.717 108.233 99.8504 105.967 99.8504 103.983C99.8504 100.3 102.834 97.3167 106.517 97.3167C110.2 97.3167 113.184 100.3 113.184 103.983C113.184 105.967 112.317 108.233 110.917 109.917C109.617 111.467 108.067 112.317 106.517 112.317C105.784 112.317 105.184 112.917 105.184 113.65C105.184 114.383 105.784 114.983 106.517 114.983C107.8 114.983 109.067 114.617 110.234 113.933C110.6 114.933 111.317 115.75 112.317 116.167C114.634 117.167 116.667 118.767 118.217 120.783C118.484 121.133 118.884 121.317 119.284 121.317C119.567 121.317 119.85 121.233 120.084 121.05C120.667 120.6 120.784 119.767 120.334 119.183L120.317 119.2Z" fill="#2B2B2B"/>
</g>
<path opacity="0.72" d="M32.77 151V144.26H33.79L35.48 147.1L37.19 150.02C37.1633 149.373 37.15 148.403 37.15 147.11V144.26H37.96V151H36.94L35.25 148.18C34.91 147.613 34.5967 147.087 34.31 146.6C34.0233 146.107 33.82 145.753 33.7 145.54L33.53 145.23C33.5633 145.923 33.58 146.9 33.58 148.16V151H32.77ZM42.1885 148.66H41.3085C40.8818 148.66 40.5618 148.743 40.3485 148.91C40.1352 149.077 40.0285 149.287 40.0285 149.54C40.0285 149.793 40.1118 150 40.2785 150.16C40.4452 150.313 40.6885 150.39 41.0085 150.39C41.3685 150.39 41.6552 150.29 41.8685 150.09C42.0818 149.883 42.1885 149.623 42.1885 149.31V148.66ZM39.5685 146.99V146.2C39.9485 145.967 40.4485 145.85 41.0685 145.85C42.3418 145.85 42.9785 146.497 42.9785 147.79V151H42.1985V150.4C41.9385 150.833 41.4652 151.05 40.7785 151.05C40.3052 151.05 39.9218 150.91 39.6285 150.63C39.3418 150.35 39.1985 149.997 39.1985 149.57C39.1985 149.083 39.3818 148.707 39.7485 148.44C40.1218 148.167 40.6285 148.03 41.2685 148.03H42.1885V147.77C42.1885 147.37 42.0985 147.07 41.9185 146.87C41.7385 146.663 41.4352 146.56 41.0085 146.56C40.4685 146.56 39.9885 146.703 39.5685 146.99ZM45.1604 145.93V146.75C45.4404 146.157 45.9171 145.86 46.5904 145.86C47.3704 145.86 47.8637 146.19 48.0704 146.85C48.2171 146.53 48.4204 146.287 48.6804 146.12C48.9471 145.947 49.2437 145.86 49.5704 145.86C50.0971 145.86 50.4937 146.01 50.7604 146.31C51.0271 146.61 51.1604 147.013 51.1604 147.52V151H50.3704V147.72C50.3704 146.953 50.0471 146.57 49.4004 146.57C49.0804 146.57 48.7937 146.717 48.5404 147.01C48.2871 147.297 48.1604 147.703 48.1604 148.23V151H47.3704V147.72C47.3704 146.953 47.0471 146.57 46.4004 146.57C46.0804 146.57 45.7937 146.717 45.5404 147.01C45.2871 147.297 45.1604 147.703 45.1604 148.23V151H44.3804V145.93H45.1604ZM55.294 148.66H54.414C53.9873 148.66 53.6673 148.743 53.454 148.91C53.2407 149.077 53.134 149.287 53.134 149.54C53.134 149.793 53.2173 150 53.384 150.16C53.5507 150.313 53.794 150.39 54.114 150.39C54.474 150.39 54.7607 150.29 54.974 150.09C55.1873 149.883 55.294 149.623 55.294 149.31V148.66ZM52.674 146.99V146.2C53.054 145.967 53.554 145.85 54.174 145.85C55.4473 145.85 56.084 146.497 56.084 147.79V151H55.304V150.4C55.044 150.833 54.5707 151.05 53.884 151.05C53.4107 151.05 53.0273 150.91 52.734 150.63C52.4473 150.35 52.304 149.997 52.304 149.57C52.304 149.083 52.4873 148.707 52.854 148.44C53.2273 148.167 53.734 148.03 54.374 148.03H55.294V147.77C55.294 147.37 55.204 147.07 55.024 146.87C54.844 146.663 54.5407 146.56 54.114 146.56C53.574 146.56 53.094 146.703 52.674 146.99ZM33.58 163.83H34.62C35.1267 163.83 35.5233 163.7 35.81 163.44C36.0967 163.173 36.24 162.837 36.24 162.43C36.24 161.977 36.0933 161.617 35.8 161.35C35.5067 161.083 35.09 160.95 34.55 160.95H33.58V163.83ZM32.77 160.26H34.54C35.32 160.26 35.9333 160.463 36.38 160.87C36.8333 161.27 37.06 161.79 37.06 162.43C37.06 163.03 36.8367 163.53 36.39 163.93C35.9433 164.323 35.3533 164.52 34.62 164.52H33.58V167H32.77V160.26ZM41.4092 164.14V163.94C41.4092 163.52 41.2959 163.187 41.0692 162.94C40.8426 162.687 40.5292 162.56 40.1292 162.56C39.7492 162.56 39.4259 162.697 39.1592 162.97C38.8926 163.243 38.7359 163.633 38.6892 164.14H41.4092ZM41.8792 166V166.74C41.4859 166.947 41.0059 167.05 40.4392 167.05C39.6726 167.05 39.0526 166.817 38.5792 166.35C38.1126 165.877 37.8792 165.253 37.8792 164.48C37.8792 163.673 38.0892 163.037 38.5092 162.57C38.9292 162.103 39.4692 161.87 40.1292 161.87C40.7626 161.87 41.2659 162.073 41.6392 162.48C42.0126 162.887 42.1992 163.463 42.1992 164.21C42.1992 164.423 42.1826 164.62 42.1492 164.8H38.6892C38.7492 165.3 38.9392 165.683 39.2592 165.95C39.5792 166.217 39.9992 166.35 40.5192 166.35C41.0859 166.35 41.5392 166.233 41.8792 166ZM43.4038 167V159.97H44.1838V167H43.4038ZM45.2138 164.34L47.2738 167H46.3238L44.2838 164.34L46.2738 161.93H47.2138L45.2138 164.34ZM51.4385 164.14V163.94C51.4385 163.52 51.3252 163.187 51.0985 162.94C50.8718 162.687 50.5585 162.56 50.1585 162.56C49.7785 162.56 49.4552 162.697 49.1885 162.97C48.9218 163.243 48.7652 163.633 48.7185 164.14H51.4385ZM51.9085 166V166.74C51.5152 166.947 51.0352 167.05 50.4685 167.05C49.7018 167.05 49.0818 166.817 48.6085 166.35C48.1418 165.877 47.9085 165.253 47.9085 164.48C47.9085 163.673 48.1185 163.037 48.5385 162.57C48.9585 162.103 49.4985 161.87 50.1585 161.87C50.7918 161.87 51.2952 162.073 51.6685 162.48C52.0418 162.887 52.2285 163.463 52.2285 164.21C52.2285 164.423 52.2118 164.62 52.1785 164.8H48.7185C48.7785 165.3 48.9685 165.683 49.2885 165.95C49.6085 166.217 50.0285 166.35 50.5485 166.35C51.1152 166.35 51.5685 166.233 51.9085 166ZM54.2131 161.93V162.82C54.4798 162.193 54.9398 161.88 55.5931 161.88C55.7131 161.88 55.8065 161.887 55.8731 161.9V162.68C55.7331 162.633 55.5898 162.61 55.4431 162.61C55.0898 162.61 54.7965 162.773 54.5631 163.1C54.3298 163.427 54.2131 163.803 54.2131 164.23V167H53.4231L53.4331 161.93H54.2131ZM55.5048 168.8V168.1C55.7582 168.207 55.9848 168.26 56.1848 168.26C56.5582 168.26 56.7448 168.017 56.7448 167.53V161.93H57.5248V167.55C57.5248 167.99 57.4082 168.333 57.1748 168.58C56.9482 168.827 56.6315 168.95 56.2248 168.95C56.0048 168.95 55.7648 168.9 55.5048 168.8ZM56.7548 160.71C56.6615 160.61 56.6148 160.487 56.6148 160.34C56.6148 160.193 56.6615 160.07 56.7548 159.97C56.8548 159.87 56.9782 159.82 57.1248 159.82C57.2715 159.82 57.3948 159.87 57.4948 159.97C57.5948 160.07 57.6448 160.193 57.6448 160.34C57.6448 160.487 57.5948 160.61 57.4948 160.71C57.3948 160.803 57.2715 160.85 57.1248 160.85C56.9782 160.85 56.8548 160.803 56.7548 160.71ZM61.7002 164.66H60.8202C60.3936 164.66 60.0736 164.743 59.8602 164.91C59.6469 165.077 59.5402 165.287 59.5402 165.54C59.5402 165.793 59.6236 166 59.7902 166.16C59.9569 166.313 60.2002 166.39 60.5202 166.39C60.8802 166.39 61.1669 166.29 61.3802 166.09C61.5936 165.883 61.7002 165.623 61.7002 165.31V164.66ZM59.0802 162.99V162.2C59.4602 161.967 59.9602 161.85 60.5802 161.85C61.8536 161.85 62.4902 162.497 62.4902 163.79V167H61.7102V166.4C61.4502 166.833 60.9769 167.05 60.2902 167.05C59.8169 167.05 59.4336 166.91 59.1402 166.63C58.8536 166.35 58.7102 165.997 58.7102 165.57C58.7102 165.083 58.8936 164.707 59.2602 164.44C59.6336 164.167 60.1402 164.03 60.7802 164.03H61.7002V163.77C61.7002 163.37 61.6102 163.07 61.4302 162.87C61.2502 162.663 60.9469 162.56 60.5202 162.56C59.9802 162.56 59.5002 162.703 59.0802 162.99ZM66.6221 164.66H65.7421C65.3154 164.66 64.9954 164.743 64.7821 164.91C64.5688 165.077 64.4621 165.287 64.4621 165.54C64.4621 165.793 64.5454 166 64.7121 166.16C64.8788 166.313 65.1221 166.39 65.4421 166.39C65.8021 166.39 66.0888 166.29 66.3021 166.09C66.5154 165.883 66.6221 165.623 66.6221 165.31V164.66ZM64.0021 162.99V162.2C64.3821 161.967 64.8821 161.85 65.5021 161.85C66.7754 161.85 67.4121 162.497 67.4121 163.79V167H66.6321V166.4C66.3721 166.833 65.8988 167.05 65.2121 167.05C64.7388 167.05 64.3554 166.91 64.0621 166.63C63.7754 166.35 63.6321 165.997 63.6321 165.57C63.6321 165.083 63.8154 164.707 64.1821 164.44C64.5554 164.167 65.0621 164.03 65.7021 164.03H66.6221V163.77C66.6221 163.37 66.5321 163.07 66.3521 162.87C66.1721 162.663 65.8688 162.56 65.4421 162.56C64.9021 162.56 64.4221 162.703 64.0021 162.99ZM69.594 161.93V162.81C69.894 162.177 70.4273 161.86 71.194 161.86C71.6873 161.86 72.0807 162.01 72.374 162.31C72.6673 162.61 72.814 163.01 72.814 163.51V167H72.024V163.72C72.024 163.347 71.9273 163.063 71.734 162.87C71.5473 162.67 71.3007 162.57 70.994 162.57C70.614 162.57 70.284 162.717 70.004 163.01C69.7307 163.303 69.594 163.71 69.594 164.23V167H68.814V161.93H69.594ZM38.03 179.22V182.44H38.02L38.03 182.47C37.49 182.877 36.7933 183.08 35.94 183.08C34.9 183.08 34.0633 182.773 33.43 182.16C32.7967 181.54 32.48 180.693 32.48 179.62C32.48 178.6 32.7933 177.767 33.42 177.12C34.0533 176.467 34.85 176.14 35.81 176.14C36.6033 176.14 37.26 176.293 37.78 176.6V177.47C37.2333 177.11 36.6 176.93 35.88 176.93C35.1267 176.93 34.5133 177.177 34.04 177.67C33.5667 178.157 33.33 178.807 33.33 179.62C33.33 180.453 33.5633 181.11 34.03 181.59C34.4967 182.063 35.14 182.3 35.96 182.3C36.4133 182.3 36.8333 182.21 37.22 182.03V179.93H35.74V179.22H38.03ZM42.1592 180.66H41.2792C40.8526 180.66 40.5326 180.743 40.3192 180.91C40.1059 181.077 39.9992 181.287 39.9992 181.54C39.9992 181.793 40.0826 182 40.2492 182.16C40.4159 182.313 40.6592 182.39 40.9792 182.39C41.3392 182.39 41.6259 182.29 41.8392 182.09C42.0526 181.883 42.1592 181.623 42.1592 181.31V180.66ZM39.5392 178.99V178.2C39.9192 177.967 40.4192 177.85 41.0392 177.85C42.3126 177.85 42.9492 178.497 42.9492 179.79V183H42.1692V182.4C41.9092 182.833 41.4359 183.05 40.7492 183.05C40.2759 183.05 39.8926 182.91 39.5992 182.63C39.3126 182.35 39.1692 181.997 39.1692 181.57C39.1692 181.083 39.3526 180.707 39.7192 180.44C40.0926 180.167 40.5992 180.03 41.2392 180.03H42.1592V179.77C42.1592 179.37 42.0692 179.07 41.8892 178.87C41.7092 178.663 41.4059 178.56 40.9792 178.56C40.4392 178.56 39.9592 178.703 39.5392 178.99ZM43.1611 184.8V184.1C43.4144 184.207 43.6411 184.26 43.8411 184.26C44.2144 184.26 44.4011 184.017 44.4011 183.53V177.93H45.1811V183.55C45.1811 183.99 45.0644 184.333 44.8311 184.58C44.6044 184.827 44.2878 184.95 43.8811 184.95C43.6611 184.95 43.4211 184.9 43.1611 184.8ZM44.4111 176.71C44.3178 176.61 44.2711 176.487 44.2711 176.34C44.2711 176.193 44.3178 176.07 44.4111 175.97C44.5111 175.87 44.6344 175.82 44.7811 175.82C44.9278 175.82 45.0511 175.87 45.1511 175.97C45.2511 176.07 45.3011 176.193 45.3011 176.34C45.3011 176.487 45.2511 176.61 45.1511 176.71C45.0511 176.803 44.9278 176.85 44.7811 176.85C44.6344 176.85 44.5111 176.803 44.4111 176.71ZM46.6665 183V177.93H47.4565V183H46.6665ZM46.6865 176.71C46.5932 176.61 46.5465 176.487 46.5465 176.34C46.5465 176.193 46.5932 176.07 46.6865 175.97C46.7865 175.87 46.9098 175.82 47.0565 175.82C47.2032 175.82 47.3265 175.87 47.4265 175.97C47.5265 176.07 47.5765 176.193 47.5765 176.34C47.5765 176.487 47.5265 176.61 47.4265 176.71C47.3265 176.803 47.2032 176.85 47.0565 176.85C46.9098 176.85 46.7865 176.803 46.6865 176.71ZM33.58 195.83H34.62C35.1267 195.83 35.5233 195.7 35.81 195.44C36.0967 195.173 36.24 194.837 36.24 194.43C36.24 193.977 36.0933 193.617 35.8 193.35C35.5067 193.083 35.09 192.95 34.55 192.95H33.58V195.83ZM32.77 192.26H34.54C35.32 192.26 35.9333 192.463 36.38 192.87C36.8333 193.27 37.06 193.79 37.06 194.43C37.06 195.03 36.8367 195.53 36.39 195.93C35.9433 196.323 35.3533 196.52 34.62 196.52H33.58V199H32.77V192.26ZM40.9092 196.66H40.0292C39.6026 196.66 39.2826 196.743 39.0692 196.91C38.8559 197.077 38.7492 197.287 38.7492 197.54C38.7492 197.793 38.8326 198 38.9992 198.16C39.1659 198.313 39.4092 198.39 39.7292 198.39C40.0892 198.39 40.3759 198.29 40.5892 198.09C40.8026 197.883 40.9092 197.623 40.9092 197.31V196.66ZM38.2892 194.99V194.2C38.6692 193.967 39.1692 193.85 39.7892 193.85C41.0626 193.85 41.6992 194.497 41.6992 195.79V199H40.9192V198.4C40.6592 198.833 40.1859 199.05 39.4992 199.05C39.0259 199.05 38.6426 198.91 38.3492 198.63C38.0626 198.35 37.9192 197.997 37.9192 197.57C37.9192 197.083 38.1026 196.707 38.4692 196.44C38.8426 196.167 39.3492 196.03 39.9892 196.03H40.9092V195.77C40.9092 195.37 40.8192 195.07 40.6392 194.87C40.4592 194.663 40.1559 194.56 39.7292 194.56C39.1892 194.56 38.7092 194.703 38.2892 194.99ZM41.9111 200.8V200.1C42.1644 200.207 42.3911 200.26 42.5911 200.26C42.9644 200.26 43.1511 200.017 43.1511 199.53V193.93H43.9311V199.55C43.9311 199.99 43.8144 200.333 43.5811 200.58C43.3544 200.827 43.0378 200.95 42.6311 200.95C42.4111 200.95 42.1711 200.9 41.9111 200.8ZM43.1611 192.71C43.0678 192.61 43.0211 192.487 43.0211 192.34C43.0211 192.193 43.0678 192.07 43.1611 191.97C43.2611 191.87 43.3844 191.82 43.5311 191.82C43.6778 191.82 43.8011 191.87 43.9011 191.97C44.0011 192.07 44.0511 192.193 44.0511 192.34C44.0511 192.487 44.0011 192.61 43.9011 192.71C43.8011 192.803 43.6778 192.85 43.5311 192.85C43.3844 192.85 43.2611 192.803 43.1611 192.71ZM48.1065 196.66H47.2265C46.7998 196.66 46.4798 196.743 46.2665 196.91C46.0532 197.077 45.9465 197.287 45.9465 197.54C45.9465 197.793 46.0298 198 46.1965 198.16C46.3632 198.313 46.6065 198.39 46.9265 198.39C47.2865 198.39 47.5732 198.29 47.7865 198.09C47.9998 197.883 48.1065 197.623 48.1065 197.31V196.66ZM45.4865 194.99V194.2C45.8665 193.967 46.3665 193.85 46.9865 193.85C48.2598 193.85 48.8965 194.497 48.8965 195.79V199H48.1165V198.4C47.8565 198.833 47.3832 199.05 46.6965 199.05C46.2232 199.05 45.8398 198.91 45.5465 198.63C45.2598 198.35 45.1165 197.997 45.1165 197.57C45.1165 197.083 45.2998 196.707 45.6665 196.44C46.0398 196.167 46.5465 196.03 47.1865 196.03H48.1065V195.77C48.1065 195.37 48.0165 195.07 47.8365 194.87C47.6565 194.663 47.3532 194.56 46.9265 194.56C46.3865 194.56 45.9065 194.703 45.4865 194.99ZM50.2984 199V191.97H51.0784V199H50.2984ZM52.1084 196.34L54.1684 199H53.2184L51.1784 196.34L53.1684 193.93H54.1084L52.1084 196.34Z" fill="#2B2B2B"/>
<path opacity="0.72" d="M78.59 147.2C78.59 147.04 78.6433 146.903 78.75 146.79C78.8633 146.677 79.0033 146.62 79.17 146.62C79.3367 146.62 79.4767 146.677 79.59 146.79C79.7033 146.903 79.76 147.04 79.76 147.2C79.76 147.367 79.7033 147.507 79.59 147.62C79.4767 147.727 79.3367 147.78 79.17 147.78C79.0033 147.78 78.8633 147.727 78.75 147.62C78.6433 147.507 78.59 147.367 78.59 147.2ZM78.75 150.85C78.6433 150.737 78.59 150.597 78.59 150.43C78.59 150.263 78.6433 150.123 78.75 150.01C78.8633 149.897 79.0033 149.84 79.17 149.84C79.3367 149.84 79.4767 149.897 79.59 150.01C79.7033 150.123 79.76 150.263 79.76 150.43C79.76 150.597 79.7033 150.737 79.59 150.85C79.4767 150.957 79.3367 151.01 79.17 151.01C79.0033 151.01 78.8633 150.957 78.75 150.85ZM78.59 163.2C78.59 163.04 78.6433 162.903 78.75 162.79C78.8633 162.677 79.0033 162.62 79.17 162.62C79.3367 162.62 79.4767 162.677 79.59 162.79C79.7033 162.903 79.76 163.04 79.76 163.2C79.76 163.367 79.7033 163.507 79.59 163.62C79.4767 163.727 79.3367 163.78 79.17 163.78C79.0033 163.78 78.8633 163.727 78.75 163.62C78.6433 163.507 78.59 163.367 78.59 163.2ZM78.75 166.85C78.6433 166.737 78.59 166.597 78.59 166.43C78.59 166.263 78.6433 166.123 78.75 166.01C78.8633 165.897 79.0033 165.84 79.17 165.84C79.3367 165.84 79.4767 165.897 79.59 166.01C79.7033 166.123 79.76 166.263 79.76 166.43C79.76 166.597 79.7033 166.737 79.59 166.85C79.4767 166.957 79.3367 167.01 79.17 167.01C79.0033 167.01 78.8633 166.957 78.75 166.85ZM78.59 179.2C78.59 179.04 78.6433 178.903 78.75 178.79C78.8633 178.677 79.0033 178.62 79.17 178.62C79.3367 178.62 79.4767 178.677 79.59 178.79C79.7033 178.903 79.76 179.04 79.76 179.2C79.76 179.367 79.7033 179.507 79.59 179.62C79.4767 179.727 79.3367 179.78 79.17 179.78C79.0033 179.78 78.8633 179.727 78.75 179.62C78.6433 179.507 78.59 179.367 78.59 179.2ZM78.75 182.85C78.6433 182.737 78.59 182.597 78.59 182.43C78.59 182.263 78.6433 182.123 78.75 182.01C78.8633 181.897 79.0033 181.84 79.17 181.84C79.3367 181.84 79.4767 181.897 79.59 182.01C79.7033 182.123 79.76 182.263 79.76 182.43C79.76 182.597 79.7033 182.737 79.59 182.85C79.4767 182.957 79.3367 183.01 79.17 183.01C79.0033 183.01 78.8633 182.957 78.75 182.85ZM78.59 195.2C78.59 195.04 78.6433 194.903 78.75 194.79C78.8633 194.677 79.0033 194.62 79.17 194.62C79.3367 194.62 79.4767 194.677 79.59 194.79C79.7033 194.903 79.76 195.04 79.76 195.2C79.76 195.367 79.7033 195.507 79.59 195.62C79.4767 195.727 79.3367 195.78 79.17 195.78C79.0033 195.78 78.8633 195.727 78.75 195.62C78.6433 195.507 78.59 195.367 78.59 195.2ZM78.75 198.85C78.6433 198.737 78.59 198.597 78.59 198.43C78.59 198.263 78.6433 198.123 78.75 198.01C78.8633 197.897 79.0033 197.84 79.17 197.84C79.3367 197.84 79.4767 197.897 79.59 198.01C79.7033 198.123 79.76 198.263 79.76 198.43C79.76 198.597 79.7033 198.737 79.59 198.85C79.4767 198.957 79.3367 199.01 79.17 199.01C79.0033 199.01 78.8633 198.957 78.75 198.85Z" fill="#2B2B2B"/>
<path d="M87.78 150.13H88.84C89.6067 150.13 90.19 149.89 90.59 149.41C90.99 148.93 91.19 148.313 91.19 147.56C91.19 146.867 90.9733 146.29 90.54 145.83C90.1067 145.37 89.53 145.14 88.81 145.14H87.78V150.13ZM86.73 144.26H88.83C89.83 144.26 90.65 144.57 91.29 145.19C91.93 145.81 92.25 146.6 92.25 147.56C92.25 148.56 91.9467 149.383 91.34 150.03C90.74 150.677 89.91 151 88.85 151H86.73V144.26ZM96.5099 148.1V147.92C96.4966 147.54 96.3933 147.24 96.1999 147.02C96.0066 146.793 95.7299 146.68 95.3699 146.68C95.0366 146.68 94.7499 146.803 94.5099 147.05C94.2699 147.29 94.1199 147.64 94.0599 148.1H96.5099ZM97.1399 149.85V150.73C96.7666 150.943 96.2733 151.05 95.6599 151.05C94.8733 151.05 94.2466 150.813 93.7799 150.34C93.3133 149.867 93.0799 149.247 93.0799 148.48C93.0799 147.667 93.2933 147.03 93.7199 146.57C94.1466 146.103 94.6899 145.87 95.3499 145.87C95.9966 145.87 96.5099 146.073 96.8899 146.48C97.2699 146.88 97.4599 147.46 97.4599 148.22C97.4599 148.427 97.4399 148.643 97.3999 148.87H94.0699C94.1366 149.31 94.3233 149.647 94.6299 149.88C94.9366 150.113 95.3233 150.23 95.7899 150.23C96.3299 150.23 96.7799 150.103 97.1399 149.85ZM101.504 146.1V146.99C101.177 146.797 100.757 146.7 100.244 146.7C100.01 146.7 99.8238 146.753 99.6838 146.86C99.5505 146.967 99.4838 147.107 99.4838 147.28C99.4838 147.327 99.4872 147.373 99.4938 147.42C99.5072 147.46 99.5272 147.503 99.5538 147.55C99.5805 147.59 99.6038 147.627 99.6238 147.66C99.6505 147.687 99.6905 147.717 99.7438 147.75C99.7972 147.783 99.8372 147.813 99.8638 147.84C99.8972 147.86 99.9472 147.887 100.014 147.92C100.087 147.953 100.14 147.98 100.174 148C100.207 148.013 100.264 148.04 100.344 148.08C100.43 148.113 100.49 148.137 100.524 148.15C100.917 148.323 101.224 148.52 101.444 148.74C101.67 148.953 101.784 149.24 101.784 149.6C101.784 150.053 101.624 150.41 101.304 150.67C100.984 150.923 100.55 151.05 100.004 151.05C99.4038 151.05 98.9038 150.95 98.5038 150.75V149.82C98.9705 150.107 99.4538 150.25 99.9538 150.25C100.214 150.25 100.414 150.197 100.554 150.09C100.7 149.983 100.774 149.843 100.774 149.67C100.774 149.523 100.717 149.393 100.604 149.28C100.49 149.16 100.374 149.073 100.254 149.02C100.14 148.96 99.9438 148.87 99.6638 148.75C98.8705 148.423 98.4738 147.943 98.4738 147.31C98.4738 146.863 98.6405 146.513 98.9738 146.26C99.3072 146.007 99.7238 145.88 100.224 145.88C100.77 145.88 101.197 145.953 101.504 146.1ZM102.843 151V145.93H103.833V151H102.843ZM102.893 144.82C102.78 144.7 102.723 144.553 102.723 144.38C102.723 144.207 102.78 144.06 102.893 143.94C103.013 143.82 103.16 143.76 103.333 143.76C103.507 143.76 103.653 143.82 103.773 143.94C103.893 144.06 103.953 144.207 103.953 144.38C103.953 144.547 103.893 144.69 103.773 144.81C103.653 144.93 103.507 144.99 103.333 144.99C103.16 144.99 103.013 144.933 102.893 144.82ZM106.524 146.69V149.48C106.524 149.967 106.758 150.21 107.224 150.21C107.498 150.21 107.728 150.137 107.914 149.99V150.87C107.694 150.99 107.424 151.05 107.104 151.05C106.058 151.05 105.534 150.52 105.534 149.46V146.69H104.744V145.93H105.534V144.69H106.524V145.93H107.854V146.69H106.524ZM111.665 148.74H110.905C110.531 148.74 110.248 148.813 110.055 148.96C109.868 149.107 109.775 149.293 109.775 149.52C109.775 149.753 109.848 149.937 109.995 150.07C110.141 150.203 110.355 150.27 110.635 150.27C110.955 150.27 111.205 150.183 111.385 150.01C111.571 149.83 111.665 149.597 111.665 149.31V148.74ZM109.115 147.14V146.19C109.508 145.963 110.028 145.85 110.675 145.85C112.001 145.85 112.665 146.493 112.665 147.78V151H111.695V150.4C111.435 150.827 110.978 151.04 110.325 151.04C109.845 151.04 109.458 150.903 109.165 150.63C108.878 150.35 108.735 149.997 108.735 149.57C108.735 149.083 108.918 148.707 109.285 148.44C109.651 148.167 110.165 148.03 110.825 148.03H111.665V147.74C111.665 147.393 111.581 147.133 111.415 146.96C111.248 146.78 110.971 146.69 110.585 146.69C110.045 146.69 109.555 146.84 109.115 147.14ZM116.486 151V144.26H117.706L119.366 147.08C119.673 147.607 119.949 148.093 120.196 148.54C120.449 148.987 120.623 149.3 120.716 149.48L120.856 149.76C120.816 149.153 120.796 148.263 120.796 147.09V144.26H121.826V151H120.606L118.936 148.19C118.636 147.683 118.359 147.207 118.106 146.76C117.859 146.307 117.686 145.98 117.586 145.78L117.436 145.49C117.489 146.157 117.516 147.053 117.516 148.18V151H116.486ZM126.393 145.93H127.373V151H126.393V150.13C126.126 150.75 125.599 151.06 124.813 151.06C124.313 151.06 123.916 150.913 123.623 150.62C123.329 150.32 123.183 149.91 123.183 149.39V145.93H124.173V149.15C124.173 149.497 124.256 149.763 124.423 149.95C124.596 150.13 124.833 150.22 125.133 150.22C125.513 150.22 125.816 150.087 126.043 149.82C126.276 149.553 126.393 149.177 126.393 148.69V145.93ZM129.731 145.93V146.82C129.977 146.193 130.421 145.88 131.061 145.88C131.154 145.88 131.257 145.89 131.371 145.91V146.87C131.231 146.81 131.074 146.78 130.901 146.78C130.561 146.78 130.281 146.93 130.061 147.23C129.841 147.53 129.731 147.887 129.731 148.3V151H128.751V145.93H129.731ZM135.67 145.12V147.58H136.6C137.027 147.58 137.35 147.47 137.57 147.25C137.79 147.023 137.9 146.723 137.9 146.35C137.9 145.53 137.45 145.12 136.55 145.12H135.67ZM138.14 151L136.56 148.44H135.67V151H134.64V144.26H136.52C137.293 144.26 137.89 144.45 138.31 144.83C138.73 145.203 138.94 145.713 138.94 146.36C138.933 146.833 138.813 147.237 138.58 147.57C138.347 147.897 138.023 148.133 137.61 148.28L139.37 151H138.14ZM142.404 151.09C141.657 151.09 141.07 150.847 140.644 150.36C140.217 149.873 140.004 149.257 140.004 148.51C140.004 147.75 140.224 147.12 140.664 146.62C141.104 146.113 141.684 145.86 142.404 145.86C143.177 145.86 143.774 146.107 144.194 146.6C144.614 147.087 144.824 147.71 144.824 148.47C144.824 149.23 144.607 149.857 144.174 150.35C143.747 150.843 143.157 151.09 142.404 151.09ZM142.394 146.69C141.96 146.69 141.624 146.863 141.384 147.21C141.144 147.55 141.024 147.973 141.024 148.48C141.024 148.98 141.147 149.403 141.394 149.75C141.64 150.09 141.977 150.26 142.404 150.26C142.857 150.26 143.2 150.093 143.434 149.76C143.674 149.427 143.794 149.003 143.794 148.49C143.794 147.963 143.68 147.533 143.454 147.2C143.227 146.86 142.874 146.69 142.394 146.69ZM148.818 146.1V146.99C148.492 146.797 148.072 146.7 147.558 146.7C147.325 146.7 147.138 146.753 146.998 146.86C146.865 146.967 146.798 147.107 146.798 147.28C146.798 147.327 146.802 147.373 146.808 147.42C146.822 147.46 146.842 147.503 146.868 147.55C146.895 147.59 146.918 147.627 146.938 147.66C146.965 147.687 147.005 147.717 147.058 147.75C147.112 147.783 147.152 147.813 147.178 147.84C147.212 147.86 147.262 147.887 147.328 147.92C147.402 147.953 147.455 147.98 147.488 148C147.522 148.013 147.578 148.04 147.658 148.08C147.745 148.113 147.805 148.137 147.838 148.15C148.232 148.323 148.538 148.52 148.758 148.74C148.985 148.953 149.098 149.24 149.098 149.6C149.098 150.053 148.938 150.41 148.618 150.67C148.298 150.923 147.865 151.05 147.318 151.05C146.718 151.05 146.218 150.95 145.818 150.75V149.82C146.285 150.107 146.768 150.25 147.268 150.25C147.528 150.25 147.728 150.197 147.868 150.09C148.015 149.983 148.088 149.843 148.088 149.67C148.088 149.523 148.032 149.393 147.918 149.28C147.805 149.16 147.688 149.073 147.568 149.02C147.455 148.96 147.258 148.87 146.978 148.75C146.185 148.423 145.788 147.943 145.788 147.31C145.788 146.863 145.955 146.513 146.288 146.26C146.622 146.007 147.038 145.88 147.538 145.88C148.085 145.88 148.512 145.953 148.818 146.1ZM151.518 150.89L149.498 145.93H150.588L151.218 147.58L152.008 149.72C152.068 149.52 152.308 148.807 152.728 147.58L153.298 145.93H154.338L152.508 150.86C152.021 152.16 151.278 152.81 150.278 152.81C150.098 152.81 149.944 152.793 149.818 152.76V151.92C149.924 151.947 150.038 151.96 150.158 151.96C150.804 151.96 151.258 151.603 151.518 150.89ZM155.197 151V145.93H156.187V151H155.197ZM155.247 144.82C155.133 144.7 155.077 144.553 155.077 144.38C155.077 144.207 155.133 144.06 155.247 143.94C155.367 143.82 155.513 143.76 155.687 143.76C155.86 143.76 156.007 143.82 156.127 143.94C156.247 144.06 156.307 144.207 156.307 144.38C156.307 144.547 156.247 144.69 156.127 144.81C156.007 144.93 155.86 144.99 155.687 144.99C155.513 144.99 155.367 144.933 155.247 144.82ZM159.658 150.21C160.045 150.21 160.371 150.063 160.638 149.77C160.905 149.477 161.038 149.03 161.038 148.43C161.038 147.85 160.898 147.42 160.618 147.14C160.345 146.86 160.035 146.72 159.688 146.72C159.295 146.72 158.971 146.877 158.718 147.19C158.465 147.497 158.338 147.937 158.338 148.51C158.338 149.017 158.461 149.427 158.708 149.74C158.961 150.053 159.278 150.21 159.658 150.21ZM161.038 143.93H162.028V151H161.038V150.23C160.685 150.79 160.168 151.07 159.488 151.07C158.821 151.07 158.295 150.82 157.908 150.32C157.521 149.813 157.328 149.203 157.328 148.49C157.328 147.697 157.531 147.06 157.938 146.58C158.345 146.1 158.868 145.86 159.508 145.86C160.168 145.86 160.678 146.14 161.038 146.7V143.93ZM163.449 151V145.93H164.439V151H163.449ZM163.499 144.82C163.385 144.7 163.329 144.553 163.329 144.38C163.329 144.207 163.385 144.06 163.499 143.94C163.619 143.82 163.765 143.76 163.939 143.76C164.112 143.76 164.259 143.82 164.379 143.94C164.499 144.06 164.559 144.207 164.559 144.38C164.559 144.547 164.499 144.69 164.379 144.81C164.259 144.93 164.112 144.99 163.939 144.99C163.765 144.99 163.619 144.933 163.499 144.82ZM168.53 148.74H167.77C167.397 148.74 167.113 148.813 166.92 148.96C166.733 149.107 166.64 149.293 166.64 149.52C166.64 149.753 166.713 149.937 166.86 150.07C167.007 150.203 167.22 150.27 167.5 150.27C167.82 150.27 168.07 150.183 168.25 150.01C168.437 149.83 168.53 149.597 168.53 149.31V148.74ZM165.98 147.14V146.19C166.373 145.963 166.893 145.85 167.54 145.85C168.867 145.85 169.53 146.493 169.53 147.78V151H168.56V150.4C168.3 150.827 167.843 151.04 167.19 151.04C166.71 151.04 166.323 150.903 166.03 150.63C165.743 150.35 165.6 149.997 165.6 149.57C165.6 149.083 165.783 148.707 166.15 148.44C166.517 148.167 167.03 148.03 167.69 148.03H168.53V147.74C168.53 147.393 168.447 147.133 168.28 146.96C168.113 146.78 167.837 146.69 167.45 146.69C166.91 146.69 166.42 146.84 165.98 147.14ZM171.83 145.93V146.8C172.13 146.173 172.657 145.86 173.41 145.86C173.91 145.86 174.307 146.013 174.6 146.32C174.893 146.627 175.04 147.043 175.04 147.57V151H174.06V147.8C174.06 147.447 173.97 147.177 173.79 146.99C173.617 146.803 173.383 146.71 173.09 146.71C172.743 146.71 172.447 146.847 172.2 147.12C171.953 147.387 171.83 147.763 171.83 148.25V151H170.85V145.93H171.83ZM179.028 148.74H178.268C177.895 148.74 177.611 148.813 177.418 148.96C177.231 149.107 177.138 149.293 177.138 149.52C177.138 149.753 177.211 149.937 177.358 150.07C177.505 150.203 177.718 150.27 177.998 150.27C178.318 150.27 178.568 150.183 178.748 150.01C178.935 149.83 179.028 149.597 179.028 149.31V148.74ZM176.478 147.14V146.19C176.871 145.963 177.391 145.85 178.038 145.85C179.365 145.85 180.028 146.493 180.028 147.78V151H179.058V150.4C178.798 150.827 178.341 151.04 177.688 151.04C177.208 151.04 176.821 150.903 176.528 150.63C176.241 150.35 176.098 149.997 176.098 149.57C176.098 149.083 176.281 148.707 176.648 148.44C177.015 148.167 177.528 148.03 178.188 148.03H179.028V147.74C179.028 147.393 178.945 147.133 178.778 146.96C178.611 146.78 178.335 146.69 177.948 146.69C177.408 146.69 176.918 146.84 176.478 147.14ZM90.78 164.44V160.26H91.81V164.42C91.81 165.293 91.5833 165.957 91.13 166.41C90.6767 166.863 90.05 167.09 89.25 167.09C88.4633 167.09 87.8433 166.87 87.39 166.43C86.9367 165.983 86.71 165.34 86.71 164.5V160.26H87.74V164.49C87.74 165.063 87.8767 165.483 88.15 165.75C88.43 166.01 88.7967 166.14 89.25 166.14C90.27 166.14 90.78 165.573 90.78 164.44ZM93.3334 167V160.26H94.3534V167H93.3334ZM95.0902 168.02L98.7202 159.93H99.7302L96.1002 168.02H95.0902ZM104.149 164.44V160.26H105.179V164.42C105.179 165.293 104.952 165.957 104.499 166.41C104.046 166.863 103.419 167.09 102.619 167.09C101.832 167.09 101.212 166.87 100.759 166.43C100.306 165.983 100.079 165.34 100.079 164.5V160.26H101.109V164.49C101.109 165.063 101.246 165.483 101.519 165.75C101.799 166.01 102.166 166.14 102.619 166.14C103.639 166.14 104.149 165.573 104.149 164.44ZM108.403 163.59L106.363 160.26H107.553L108.983 162.68C109.036 162.573 109.273 162.163 109.693 161.45C110.119 160.73 110.353 160.333 110.393 160.26H111.623L109.583 163.6L111.813 167H110.603L109.003 164.47C108.943 164.583 108.686 165.01 108.233 165.75C107.779 166.49 107.526 166.907 107.473 167H106.243L108.403 163.59ZM116.413 166.13H117.473C118.239 166.13 118.823 165.89 119.223 165.41C119.623 164.93 119.823 164.313 119.823 163.56C119.823 162.867 119.606 162.29 119.173 161.83C118.739 161.37 118.163 161.14 117.443 161.14H116.413V166.13ZM115.363 160.26H117.463C118.463 160.26 119.283 160.57 119.923 161.19C120.563 161.81 120.883 162.6 120.883 163.56C120.883 164.56 120.579 165.383 119.973 166.03C119.373 166.677 118.543 167 117.483 167H115.363V160.26ZM125.143 164.1V163.92C125.129 163.54 125.026 163.24 124.833 163.02C124.639 162.793 124.363 162.68 124.003 162.68C123.669 162.68 123.383 162.803 123.143 163.05C122.903 163.29 122.753 163.64 122.693 164.1H125.143ZM125.773 165.85V166.73C125.399 166.943 124.906 167.05 124.293 167.05C123.506 167.05 122.879 166.813 122.413 166.34C121.946 165.867 121.713 165.247 121.713 164.48C121.713 163.667 121.926 163.03 122.353 162.57C122.779 162.103 123.323 161.87 123.983 161.87C124.629 161.87 125.143 162.073 125.523 162.48C125.903 162.88 126.093 163.46 126.093 164.22C126.093 164.427 126.073 164.643 126.033 164.87H122.703C122.769 165.31 122.956 165.647 123.263 165.88C123.569 166.113 123.956 166.23 124.423 166.23C124.963 166.23 125.413 166.103 125.773 165.85ZM130.137 162.1V162.99C129.81 162.797 129.39 162.7 128.877 162.7C128.643 162.7 128.457 162.753 128.317 162.86C128.183 162.967 128.117 163.107 128.117 163.28C128.117 163.327 128.12 163.373 128.127 163.42C128.14 163.46 128.16 163.503 128.187 163.55C128.213 163.59 128.237 163.627 128.257 163.66C128.283 163.687 128.323 163.717 128.377 163.75C128.43 163.783 128.47 163.813 128.497 163.84C128.53 163.86 128.58 163.887 128.647 163.92C128.72 163.953 128.773 163.98 128.807 164C128.84 164.013 128.897 164.04 128.977 164.08C129.063 164.113 129.123 164.137 129.157 164.15C129.55 164.323 129.857 164.52 130.077 164.74C130.303 164.953 130.417 165.24 130.417 165.6C130.417 166.053 130.257 166.41 129.937 166.67C129.617 166.923 129.183 167.05 128.637 167.05C128.037 167.05 127.537 166.95 127.137 166.75V165.82C127.603 166.107 128.087 166.25 128.587 166.25C128.847 166.25 129.047 166.197 129.187 166.09C129.333 165.983 129.407 165.843 129.407 165.67C129.407 165.523 129.35 165.393 129.237 165.28C129.123 165.16 129.007 165.073 128.887 165.02C128.773 164.96 128.577 164.87 128.297 164.75C127.503 164.423 127.107 163.943 127.107 163.31C127.107 162.863 127.273 162.513 127.607 162.26C127.94 162.007 128.357 161.88 128.857 161.88C129.403 161.88 129.83 161.953 130.137 162.1ZM131.476 167V161.93H132.466V167H131.476ZM131.526 160.82C131.413 160.7 131.356 160.553 131.356 160.38C131.356 160.207 131.413 160.06 131.526 159.94C131.646 159.82 131.793 159.76 131.966 159.76C132.139 159.76 132.286 159.82 132.406 159.94C132.526 160.06 132.586 160.207 132.586 160.38C132.586 160.547 132.526 160.69 132.406 160.81C132.286 160.93 132.139 160.99 131.966 160.99C131.793 160.99 131.646 160.933 131.526 160.82ZM135.887 166.02C136.234 166.02 136.534 165.887 136.787 165.62C137.047 165.347 137.177 164.967 137.177 164.48C137.177 163.88 137.054 163.437 136.807 163.15C136.567 162.863 136.274 162.72 135.927 162.72C135.534 162.72 135.224 162.877 134.997 163.19C134.771 163.497 134.657 163.903 134.657 164.41C134.657 164.937 134.777 165.337 135.017 165.61C135.264 165.883 135.554 166.02 135.887 166.02ZM137.177 161.93H138.157V166.57C138.157 167.35 137.934 167.937 137.487 168.33C137.047 168.73 136.481 168.93 135.787 168.93C135.134 168.93 134.584 168.82 134.137 168.6V167.61C134.564 167.89 135.081 168.03 135.687 168.03C136.681 168.03 137.177 167.54 137.177 166.56V166.04C136.851 166.587 136.361 166.86 135.707 166.86C135.134 166.86 134.644 166.65 134.237 166.23C133.831 165.803 133.627 165.203 133.627 164.43C133.627 163.683 133.817 163.07 134.197 162.59C134.577 162.103 135.081 161.86 135.707 161.86C136.381 161.86 136.871 162.147 137.177 162.72V161.93ZM140.453 161.93V162.8C140.753 162.173 141.28 161.86 142.033 161.86C142.533 161.86 142.93 162.013 143.223 162.32C143.517 162.627 143.663 163.043 143.663 163.57V167H142.683V163.8C142.683 163.447 142.593 163.177 142.413 162.99C142.24 162.803 142.007 162.71 141.713 162.71C141.367 162.71 141.07 162.847 140.823 163.12C140.577 163.387 140.453 163.763 140.453 164.25V167H139.473V161.93H140.453ZM148.131 164.1V163.92C148.118 163.54 148.014 163.24 147.821 163.02C147.628 162.793 147.351 162.68 146.991 162.68C146.658 162.68 146.371 162.803 146.131 163.05C145.891 163.29 145.741 163.64 145.681 164.1H148.131ZM148.761 165.85V166.73C148.388 166.943 147.894 167.05 147.281 167.05C146.494 167.05 145.868 166.813 145.401 166.34C144.934 165.867 144.701 165.247 144.701 164.48C144.701 163.667 144.914 163.03 145.341 162.57C145.768 162.103 146.311 161.87 146.971 161.87C147.618 161.87 148.131 162.073 148.511 162.48C148.891 162.88 149.081 163.46 149.081 164.22C149.081 164.427 149.061 164.643 149.021 164.87H145.691C145.758 165.31 145.944 165.647 146.251 165.88C146.558 166.113 146.944 166.23 147.411 166.23C147.951 166.23 148.401 166.103 148.761 165.85ZM151.215 161.93V162.82C151.462 162.193 151.905 161.88 152.545 161.88C152.638 161.88 152.742 161.89 152.855 161.91V162.87C152.715 162.81 152.558 162.78 152.385 162.78C152.045 162.78 151.765 162.93 151.545 163.23C151.325 163.53 151.215 163.887 151.215 164.3V167H150.235V161.93H151.215ZM87.76 177.12V179.58H88.69C89.1167 179.58 89.44 179.47 89.66 179.25C89.88 179.023 89.99 178.723 89.99 178.35C89.99 177.53 89.54 177.12 88.64 177.12H87.76ZM90.23 183L88.65 180.44H87.76V183H86.73V176.26H88.61C89.3833 176.26 89.98 176.45 90.4 176.83C90.82 177.203 91.03 177.713 91.03 178.36C91.0233 178.833 90.9033 179.237 90.67 179.57C90.4367 179.897 90.1133 180.133 89.7 180.28L91.46 183H90.23ZM94.7136 182.21C95.1069 182.21 95.4303 182.057 95.6836 181.75C95.9369 181.437 96.0636 181 96.0636 180.44C96.0636 179.913 95.9403 179.497 95.6936 179.19C95.4469 178.877 95.1336 178.72 94.7536 178.72C94.3736 178.72 94.0436 178.86 93.7636 179.14C93.4903 179.413 93.3536 179.85 93.3536 180.45C93.3536 181.037 93.4903 181.477 93.7636 181.77C94.0436 182.063 94.3603 182.21 94.7136 182.21ZM93.3536 177.93V178.71C93.7003 178.143 94.2203 177.86 94.9136 177.86C95.5803 177.86 96.1069 178.103 96.4936 178.59C96.8803 179.07 97.0736 179.683 97.0736 180.43C97.0736 181.197 96.8736 181.83 96.4736 182.33C96.0803 182.823 95.5536 183.07 94.8936 183.07C94.2203 183.07 93.7069 182.79 93.3536 182.23V184.94H92.3736V177.93H93.3536ZM101.315 180.62H103.285V177.05L101.315 180.62ZM105.185 180.62V181.47H104.265V183H103.285V181.47H100.325V180.62L102.675 176.45H104.265V180.62H105.185ZM105.324 184.24L106.284 181.9H107.494L106.184 184.24H105.324ZM108.265 179.71C108.265 178.683 108.469 177.87 108.875 177.27C109.289 176.663 109.852 176.36 110.565 176.36C111.292 176.36 111.862 176.66 112.275 177.26C112.689 177.86 112.895 178.677 112.895 179.71C112.895 180.73 112.692 181.547 112.285 182.16C111.885 182.773 111.312 183.08 110.565 183.08C109.852 183.08 109.289 182.773 108.875 182.16C108.469 181.547 108.265 180.73 108.265 179.71ZM109.635 177.91C109.389 178.33 109.265 178.93 109.265 179.71C109.265 180.49 109.385 181.097 109.625 181.53C109.872 181.957 110.185 182.17 110.565 182.17C110.979 182.17 111.302 181.957 111.535 181.53C111.769 181.103 111.885 180.497 111.885 179.71C111.885 178.917 111.762 178.313 111.515 177.9C111.275 177.48 110.959 177.27 110.565 177.27C110.192 177.27 109.882 177.483 109.635 177.91ZM113.715 179.71C113.715 178.683 113.918 177.87 114.325 177.27C114.738 176.663 115.301 176.36 116.015 176.36C116.741 176.36 117.311 176.66 117.725 177.26C118.138 177.86 118.345 178.677 118.345 179.71C118.345 180.73 118.141 181.547 117.735 182.16C117.335 182.773 116.761 183.08 116.015 183.08C115.301 183.08 114.738 182.773 114.325 182.16C113.918 181.547 113.715 180.73 113.715 179.71ZM115.085 177.91C114.838 178.33 114.715 178.93 114.715 179.71C114.715 180.49 114.835 181.097 115.075 181.53C115.321 181.957 115.635 182.17 116.015 182.17C116.428 182.17 116.751 181.957 116.985 181.53C117.218 181.103 117.335 180.497 117.335 179.71C117.335 178.917 117.211 178.313 116.965 177.9C116.725 177.48 116.408 177.27 116.015 177.27C115.641 177.27 115.331 177.483 115.085 177.91ZM119.164 179.71C119.164 178.683 119.367 177.87 119.774 177.27C120.187 176.663 120.751 176.36 121.464 176.36C122.191 176.36 122.761 176.66 123.174 177.26C123.587 177.86 123.794 178.677 123.794 179.71C123.794 180.73 123.591 181.547 123.184 182.16C122.784 182.773 122.211 183.08 121.464 183.08C120.751 183.08 120.187 182.773 119.774 182.16C119.367 181.547 119.164 180.73 119.164 179.71ZM120.534 177.91C120.287 178.33 120.164 178.93 120.164 179.71C120.164 180.49 120.284 181.097 120.524 181.53C120.771 181.957 121.084 182.17 121.464 182.17C121.877 182.17 122.201 181.957 122.434 181.53C122.667 181.103 122.784 180.497 122.784 179.71C122.784 178.917 122.661 178.313 122.414 177.9C122.174 177.48 121.857 177.27 121.464 177.27C121.091 177.27 120.781 177.483 120.534 177.91ZM124.123 184.24L125.083 181.9H126.293L124.983 184.24H124.123ZM127.064 179.71C127.064 178.683 127.268 177.87 127.674 177.27C128.088 176.663 128.651 176.36 129.364 176.36C130.091 176.36 130.661 176.66 131.074 177.26C131.488 177.86 131.694 178.677 131.694 179.71C131.694 180.73 131.491 181.547 131.084 182.16C130.684 182.773 130.111 183.08 129.364 183.08C128.651 183.08 128.088 182.773 127.674 182.16C127.268 181.547 127.064 180.73 127.064 179.71ZM128.434 177.91C128.188 178.33 128.064 178.93 128.064 179.71C128.064 180.49 128.184 181.097 128.424 181.53C128.671 181.957 128.984 182.17 129.364 182.17C129.778 182.17 130.101 181.957 130.334 181.53C130.568 181.103 130.684 180.497 130.684 179.71C130.684 178.917 130.561 178.313 130.314 177.9C130.074 177.48 129.758 177.27 129.364 177.27C128.991 177.27 128.681 177.483 128.434 177.91ZM132.514 179.71C132.514 178.683 132.717 177.87 133.124 177.27C133.537 176.663 134.1 176.36 134.814 176.36C135.54 176.36 136.11 176.66 136.524 177.26C136.937 177.86 137.144 178.677 137.144 179.71C137.144 180.73 136.94 181.547 136.534 182.16C136.134 182.773 135.56 183.08 134.814 183.08C134.1 183.08 133.537 182.773 133.124 182.16C132.717 181.547 132.514 180.73 132.514 179.71ZM133.884 177.91C133.637 178.33 133.514 178.93 133.514 179.71C133.514 180.49 133.634 181.097 133.874 181.53C134.12 181.957 134.434 182.17 134.814 182.17C135.227 182.17 135.55 181.957 135.784 181.53C136.017 181.103 136.134 180.497 136.134 179.71C136.134 178.917 136.01 178.313 135.764 177.9C135.524 177.48 135.207 177.27 134.814 177.27C134.44 177.27 134.13 177.483 133.884 177.91ZM137.963 179.71C137.963 178.683 138.166 177.87 138.573 177.27C138.986 176.663 139.549 176.36 140.263 176.36C140.989 176.36 141.559 176.66 141.973 177.26C142.386 177.86 142.593 178.677 142.593 179.71C142.593 180.73 142.389 181.547 141.983 182.16C141.583 182.773 141.009 183.08 140.263 183.08C139.549 183.08 138.986 182.773 138.573 182.16C138.166 181.547 137.963 180.73 137.963 179.71ZM139.333 177.91C139.086 178.33 138.963 178.93 138.963 179.71C138.963 180.49 139.083 181.097 139.323 181.53C139.569 181.957 139.883 182.17 140.263 182.17C140.676 182.17 140.999 181.957 141.233 181.53C141.466 181.103 141.583 180.497 141.583 179.71C141.583 178.917 141.459 178.313 141.213 177.9C140.973 177.48 140.656 177.27 140.263 177.27C139.889 177.27 139.579 177.483 139.333 177.91ZM86.53 196.75V195.91H88.97V196.75H86.53Z" fill="#2B2B2B"/>
<defs>
<filter id="filter0_d_1124_4113" x="-4" y="-2" width="221" height="56" filterUnits="userSpaceOnUse" color-interpolation-filters="sRGB">
<feFlood flood-opacity="0" result="BackgroundImageFix"/>
<feColorMatrix in="SourceAlpha" type="matrix" values="0 0 0 0 0 0 0 0 0 0 0 0 0 0 0 0 0 0 127 0" result="hardAlpha"/>
<feOffset dy="2"/>
<feGaussianBlur stdDeviation="2"/>
<feComposite in2="hardAlpha" operator="out"/>
<feColorMatrix type="matrix" values="0 0 0 0 0.168627 0 0 0 0 0.168627 0 0 0 0 0.168627 0 0 0 0.24 0"/>
<feBlend mode="normal" in2="BackgroundImageFix" result="effect1_dropShadow_1124_4113"/>
<feBlend mode="normal" in="SourceGraphic" in2="effect1_dropShadow_1124_4113" result="shape"/>
</filter>
<clipPath id="clip0_1124_4113">
<rect width="24" height="24" fill="white" transform="translate(16 16)"/>
</clipPath>
<clipPath id="clip1_1124_4113">
<rect width="24" height="24" fill="white" transform="translate(187 2)"/>
</clipPath>
<clipPath id="clip2_1124_4113">
<rect width="40" height="40" fill="white" transform="translate(86.5 88)"/>
</clipPath>
</defs>
</svg>
