<svg width="338" height="375" viewBox="0 0 338 375" fill="none" xmlns="http://www.w3.org/2000/svg">
<rect width="338" height="375" fill="#D3D3D3"/>
<rect x="9" y="50" width="320" height="265" rx="16" fill="white"/>
<g filter="url(#filter0_d_1124_4113)">
<path d="M9 66C9 57.1634 16.1634 50 25 50H313C321.837 50 329 57.1634 329 66V98H9V66Z" fill="#FF1934" shape-rendering="crispEdges"/>
<g clip-path="url(#clip0_1124_4113)">
<path fill-rule="evenodd" clip-rule="evenodd" d="M27 78C27 72.49 31.49 68 37 68C42.51 68 47 72.49 47 78C47 83.51 42.51 88 37 88C31.49 88 27 83.51 27 78ZM28.6 78C28.6 82.63 32.37 86.4 37 86.4C41.63 86.4 45.4 82.63 45.4 78C45.4 73.37 41.63 69.6 37 69.6C32.37 69.6 28.6 73.37 28.6 78ZM32.2 78C32.2 77.56 32.56 77.2 33 77.2H41C41.44 77.2 41.8 77.56 41.8 78C41.8 78.44 41.44 78.8 41 78.8H33C32.56 78.8 32.2 78.44 32.2 78Z" fill="white"/>
</g>
<path d="M57.91 82V72.564H60.066V82H57.91ZM62.684 77.282L66.03 82H63.328L60.164 77.31L63.216 72.564H65.778L62.684 77.282ZM70.2455 82.112C69.1349 82.112 68.2762 81.7807 67.6695 81.118C67.0629 80.446 66.7595 79.5873 66.7595 78.542C66.7595 77.45 67.0769 76.554 67.7115 75.854C68.3462 75.1447 69.1909 74.79 70.2455 74.79C71.3469 74.79 72.2009 75.1307 72.8075 75.812C73.4142 76.4933 73.7175 77.3613 73.7175 78.416C73.7175 79.4893 73.4095 80.376 72.7935 81.076C72.1869 81.7667 71.3375 82.112 70.2455 82.112ZM70.2315 76.4C69.7835 76.4 69.4475 76.5913 69.2235 76.974C68.9995 77.3567 68.8875 77.8513 68.8875 78.458C68.8875 79.0647 68.9995 79.564 69.2235 79.956C69.4569 80.3387 69.8022 80.53 70.2595 80.53C70.7075 80.53 71.0389 80.3433 71.2535 79.97C71.4775 79.5873 71.5895 79.0927 71.5895 78.486C71.5895 77.0953 71.1369 76.4 70.2315 76.4ZM77.0969 74.902V76.106C77.2742 75.714 77.5449 75.406 77.9089 75.182C78.2822 74.9487 78.7256 74.832 79.2389 74.832C79.9669 74.832 80.5362 75.0513 80.9469 75.49C81.3576 75.9193 81.5629 76.554 81.5629 77.394V82H79.5189V77.772C79.5189 77.352 79.4209 77.0347 79.2249 76.82C79.0289 76.596 78.7536 76.484 78.3989 76.484C78.0256 76.484 77.7129 76.6333 77.4609 76.932C77.2182 77.2213 77.0969 77.66 77.0969 78.248V82H75.0529V74.902H77.0969ZM86.436 80.376C86.9027 80.376 87.2807 80.194 87.57 79.83C87.8593 79.466 88.004 78.9807 88.004 78.374C88.004 77.786 87.8453 77.3287 87.528 77.002C87.22 76.6753 86.8513 76.512 86.422 76.512C85.9927 76.512 85.6287 76.6847 85.33 77.03C85.0407 77.3753 84.896 77.856 84.896 78.472C84.896 79.0413 85.0453 79.5033 85.344 79.858C85.6427 80.2033 86.0067 80.376 86.436 80.376ZM88.004 72.102H90.048V82H88.004V80.894C87.528 81.6873 86.8187 82.084 85.876 82.084C84.952 82.084 84.21 81.7247 83.65 81.006C83.0993 80.2873 82.824 79.4287 82.824 78.43C82.824 77.31 83.1133 76.428 83.692 75.784C84.2707 75.14 85.0033 74.818 85.89 74.818C86.814 74.818 87.5187 75.21 88.004 75.994V72.102ZM91.8026 82V74.902H93.8466V82H91.8026ZM91.9846 73.684C91.7512 73.4507 91.6346 73.1707 91.6346 72.844C91.6346 72.5173 91.7512 72.2373 91.9846 72.004C92.2179 71.7707 92.4979 71.654 92.8246 71.654C93.1512 71.654 93.4312 71.7707 93.6646 72.004C93.8979 72.2373 94.0146 72.5173 94.0146 72.844C94.0146 73.1707 93.8979 73.4507 93.6646 73.684C93.4312 73.9173 93.1512 74.034 92.8246 74.034C92.4979 74.034 92.2179 73.9173 91.9846 73.684ZM100.082 75.112V76.862C99.5871 76.5727 99.0084 76.428 98.3457 76.428C98.1031 76.428 97.9164 76.4793 97.7857 76.582C97.6551 76.6753 97.5897 76.7967 97.5897 76.946C97.5897 77.03 97.6131 77.1093 97.6597 77.184C97.7064 77.2587 97.7811 77.3287 97.8837 77.394C97.9957 77.4593 98.0984 77.52 98.1917 77.576C98.2944 77.6227 98.4297 77.6833 98.5977 77.758C98.7751 77.8327 98.9151 77.898 99.0177 77.954C99.4471 78.178 99.7924 78.4393 100.054 78.738C100.315 79.0273 100.446 79.4007 100.446 79.858C100.446 80.558 100.194 81.0993 99.6897 81.482C99.1857 81.8647 98.5184 82.056 97.6877 82.056C96.8291 82.056 96.1104 81.9113 95.5317 81.622V79.802C96.1757 80.25 96.8571 80.474 97.5757 80.474C98.0891 80.474 98.3457 80.3107 98.3457 79.984C98.3457 79.9 98.3224 79.8207 98.2757 79.746C98.2291 79.6713 98.1497 79.6013 98.0377 79.536C97.9257 79.4707 97.8231 79.4193 97.7297 79.382C97.6364 79.3353 97.5011 79.2747 97.3237 79.2C97.1464 79.1253 97.0111 79.0647 96.9177 79.018C95.9751 78.57 95.5037 77.898 95.5037 77.002C95.5037 76.3113 95.7651 75.7747 96.2877 75.392C96.8197 75.0093 97.4777 74.818 98.2617 74.818C98.9897 74.818 99.5964 74.916 100.082 75.112ZM101.769 82V74.902H103.813V82H101.769ZM101.951 73.684C101.718 73.4507 101.601 73.1707 101.601 72.844C101.601 72.5173 101.718 72.2373 101.951 72.004C102.185 71.7707 102.465 71.654 102.791 71.654C103.118 71.654 103.398 71.7707 103.631 72.004C103.865 72.2373 103.981 72.5173 103.981 72.844C103.981 73.1707 103.865 73.4507 103.631 73.684C103.398 73.9173 103.118 74.034 102.791 74.034C102.465 74.034 102.185 73.9173 101.951 73.684ZM115.747 82H113.381L111.113 78.514V82H109.069V72.34H111.113V78.08L113.353 74.902H115.705L113.241 78.304L115.747 82ZM120.84 77.8V77.632C120.775 76.8013 120.411 76.386 119.748 76.386C119.422 76.386 119.132 76.5073 118.88 76.75C118.628 76.9833 118.46 77.3333 118.376 77.8H120.84ZM122.31 79.886V81.594C121.825 81.9113 121.083 82.07 120.084 82.07C118.918 82.07 118.008 81.734 117.354 81.062C116.71 80.3807 116.388 79.508 116.388 78.444C116.388 77.3147 116.701 76.4327 117.326 75.798C117.961 75.154 118.74 74.832 119.664 74.832C120.616 74.832 121.368 75.112 121.918 75.672C122.469 76.2227 122.744 77.0487 122.744 78.15C122.744 78.3647 122.707 78.7333 122.632 79.256H118.46C118.6 79.648 118.843 79.9513 119.188 80.166C119.534 80.3807 119.949 80.488 120.434 80.488C121.153 80.488 121.778 80.2873 122.31 79.886ZM128.683 75.112V76.862C128.189 76.5727 127.61 76.428 126.947 76.428C126.705 76.428 126.518 76.4793 126.387 76.582C126.257 76.6753 126.191 76.7967 126.191 76.946C126.191 77.03 126.215 77.1093 126.261 77.184C126.308 77.2587 126.383 77.3287 126.485 77.394C126.597 77.4593 126.7 77.52 126.793 77.576C126.896 77.6227 127.031 77.6833 127.199 77.758C127.377 77.8327 127.517 77.898 127.619 77.954C128.049 78.178 128.394 78.4393 128.655 78.738C128.917 79.0273 129.047 79.4007 129.047 79.858C129.047 80.558 128.795 81.0993 128.291 81.482C127.787 81.8647 127.12 82.056 126.289 82.056C125.431 82.056 124.712 81.9113 124.133 81.622V79.802C124.777 80.25 125.459 80.474 126.177 80.474C126.691 80.474 126.947 80.3107 126.947 79.984C126.947 79.9 126.924 79.8207 126.877 79.746C126.831 79.6713 126.751 79.6013 126.639 79.536C126.527 79.4707 126.425 79.4193 126.331 79.382C126.238 79.3353 126.103 79.2747 125.925 79.2C125.748 79.1253 125.613 79.0647 125.519 79.018C124.577 78.57 124.105 77.898 124.105 77.002C124.105 76.3113 124.367 75.7747 124.889 75.392C125.421 75.0093 126.079 74.818 126.863 74.818C127.591 74.818 128.198 74.916 128.683 75.112ZM134.403 77.8V77.632C134.338 76.8013 133.974 76.386 133.311 76.386C132.984 76.386 132.695 76.5073 132.443 76.75C132.191 76.9833 132.023 77.3333 131.939 77.8H134.403ZM135.873 79.886V81.594C135.388 81.9113 134.646 82.07 133.647 82.07C132.48 82.07 131.57 81.734 130.917 81.062C130.273 80.3807 129.951 79.508 129.951 78.444C129.951 77.3147 130.264 76.4327 130.889 75.798C131.524 75.154 132.303 74.832 133.227 74.832C134.179 74.832 134.93 75.112 135.481 75.672C136.032 76.2227 136.307 77.0487 136.307 78.15C136.307 78.3647 136.27 78.7333 136.195 79.256H132.023C132.163 79.648 132.406 79.9513 132.751 80.166C133.096 80.3807 133.512 80.488 133.997 80.488C134.716 80.488 135.341 80.2873 135.873 79.886ZM139.81 72.102V76.106C140.174 75.2567 140.883 74.832 141.938 74.832C142.628 74.832 143.188 75.0513 143.618 75.49C144.056 75.9287 144.276 76.5913 144.276 77.478V82H142.232V77.8C142.232 77.3893 142.129 77.0673 141.924 76.834C141.718 76.6007 141.452 76.484 141.126 76.484C140.986 76.484 140.85 76.5073 140.72 76.554C140.598 76.5913 140.463 76.666 140.314 76.778C140.164 76.8807 140.043 77.0627 139.95 77.324C139.856 77.576 139.81 77.884 139.81 78.248V82H137.766V72.102H139.81ZM149.401 79.088H148.743C148.398 79.088 148.132 79.1627 147.945 79.312C147.758 79.4613 147.665 79.6527 147.665 79.886C147.665 80.362 147.94 80.6 148.491 80.6C148.78 80.6 149.004 80.5113 149.163 80.334C149.322 80.1567 149.401 79.914 149.401 79.606V79.088ZM146.083 77.086V75.252C146.643 74.9347 147.45 74.776 148.505 74.776C149.513 74.776 150.264 74.9953 150.759 75.434C151.254 75.8633 151.501 76.5353 151.501 77.45V82H149.499V81.132C149.2 81.7387 148.612 82.042 147.735 82.042C147.044 82.042 146.503 81.846 146.111 81.454C145.728 81.062 145.537 80.572 145.537 79.984C145.537 79.3027 145.784 78.7753 146.279 78.402C146.783 78.0193 147.525 77.828 148.505 77.828H149.401V77.338C149.401 76.7407 149.004 76.442 148.211 76.442C147.446 76.442 146.736 76.6567 146.083 77.086ZM155.472 76.4V79.662C155.472 79.914 155.542 80.1053 155.682 80.236C155.831 80.3667 156.022 80.432 156.256 80.432C156.629 80.432 156.96 80.3387 157.25 80.152V81.846C156.904 81.9953 156.438 82.07 155.85 82.07C154.235 82.07 153.428 81.2627 153.428 79.648V76.4H152.406V74.902H153.428V73.222H155.472V74.902H157.124V76.4H155.472ZM162.02 79.088H161.362C161.017 79.088 160.751 79.1627 160.564 79.312C160.377 79.4613 160.284 79.6527 160.284 79.886C160.284 80.362 160.559 80.6 161.11 80.6C161.399 80.6 161.623 80.5113 161.782 80.334C161.941 80.1567 162.02 79.914 162.02 79.606V79.088ZM158.702 77.086V75.252C159.262 74.9347 160.069 74.776 161.124 74.776C162.132 74.776 162.883 74.9953 163.378 75.434C163.873 75.8633 164.12 76.5353 164.12 77.45V82H162.118V81.132C161.819 81.7387 161.231 82.042 160.354 82.042C159.663 82.042 159.122 81.846 158.73 81.454C158.347 81.062 158.156 80.572 158.156 79.984C158.156 79.3027 158.403 78.7753 158.898 78.402C159.402 78.0193 160.144 77.828 161.124 77.828H162.02V77.338C162.02 76.7407 161.623 76.442 160.83 76.442C160.065 76.442 159.355 76.6567 158.702 77.086ZM167.769 74.902V76.106C167.946 75.714 168.217 75.406 168.581 75.182C168.954 74.9487 169.397 74.832 169.911 74.832C170.639 74.832 171.208 75.0513 171.619 75.49C172.029 75.9193 172.235 76.554 172.235 77.394V82H170.191V77.772C170.191 77.352 170.093 77.0347 169.897 76.82C169.701 76.596 169.425 76.484 169.071 76.484C168.697 76.484 168.385 76.6333 168.133 76.932C167.89 77.2213 167.769 77.66 167.769 78.248V82H165.725V74.902H167.769ZM180.86 79.088H180.202C179.857 79.088 179.591 79.1627 179.404 79.312C179.217 79.4613 179.124 79.6527 179.124 79.886C179.124 80.362 179.399 80.6 179.95 80.6C180.239 80.6 180.463 80.5113 180.622 80.334C180.781 80.1567 180.86 79.914 180.86 79.606V79.088ZM177.542 77.086V75.252C178.102 74.9347 178.909 74.776 179.964 74.776C180.972 74.776 181.723 74.9953 182.218 75.434C182.713 75.8633 182.96 76.5353 182.96 77.45V82H180.958V81.132C180.659 81.7387 180.071 82.042 179.194 82.042C178.503 82.042 177.962 81.846 177.57 81.454C177.187 81.062 176.996 80.572 176.996 79.984C176.996 79.3027 177.243 78.7753 177.738 78.402C178.242 78.0193 178.984 77.828 179.964 77.828H180.86V77.338C180.86 76.7407 180.463 76.442 179.67 76.442C178.905 76.442 178.195 76.6567 177.542 77.086ZM186.609 74.902V76.106C186.786 75.714 187.057 75.406 187.421 75.182C187.794 74.9487 188.237 74.832 188.751 74.832C189.479 74.832 190.048 75.0513 190.459 75.49C190.869 75.9193 191.075 76.554 191.075 77.394V82H189.031V77.772C189.031 77.352 188.933 77.0347 188.737 76.82C188.541 76.596 188.265 76.484 187.911 76.484C187.537 76.484 187.225 76.6333 186.973 76.932C186.73 77.2213 186.609 77.66 186.609 78.248V82H184.565V74.902H186.609ZM195.948 80.376C196.414 80.376 196.792 80.194 197.082 79.83C197.371 79.466 197.516 78.9807 197.516 78.374C197.516 77.786 197.357 77.3287 197.04 77.002C196.732 76.6753 196.363 76.512 195.934 76.512C195.504 76.512 195.14 76.6847 194.842 77.03C194.552 77.3753 194.408 77.856 194.408 78.472C194.408 79.0413 194.557 79.5033 194.856 79.858C195.154 80.2033 195.518 80.376 195.948 80.376ZM197.516 72.102H199.56V82H197.516V80.894C197.04 81.6873 196.33 82.084 195.388 82.084C194.464 82.084 193.722 81.7247 193.162 81.006C192.611 80.2873 192.336 79.4287 192.336 78.43C192.336 77.31 192.625 76.428 193.204 75.784C193.782 75.14 194.515 74.818 195.402 74.818C196.326 74.818 197.03 75.21 197.516 75.994V72.102ZM204.758 79.088H204.1C203.755 79.088 203.489 79.1627 203.302 79.312C203.116 79.4613 203.022 79.6527 203.022 79.886C203.022 80.362 203.298 80.6 203.848 80.6C204.138 80.6 204.362 80.5113 204.52 80.334C204.679 80.1567 204.758 79.914 204.758 79.606V79.088ZM201.44 77.086V75.252C202 74.9347 202.808 74.776 203.862 74.776C204.87 74.776 205.622 74.9953 206.116 75.434C206.611 75.8633 206.858 76.5353 206.858 77.45V82H204.856V81.132C204.558 81.7387 203.97 82.042 203.092 82.042C202.402 82.042 201.86 81.846 201.468 81.454C201.086 81.062 200.894 80.572 200.894 79.984C200.894 79.3027 201.142 78.7753 201.636 78.402C202.14 78.0193 202.882 77.828 203.862 77.828H204.758V77.338C204.758 76.7407 204.362 76.442 203.568 76.442C202.803 76.442 202.094 76.6567 201.44 77.086ZM214.007 74.902V76.008C214.399 75.224 215.066 74.832 216.009 74.832C217.008 74.832 217.67 75.28 217.997 76.176C218.156 75.756 218.422 75.4293 218.795 75.196C219.168 74.9533 219.607 74.832 220.111 74.832C220.811 74.832 221.362 75.056 221.763 75.504C222.174 75.9427 222.379 76.5913 222.379 77.45V82H220.335V77.786C220.335 77.3847 220.256 77.0673 220.097 76.834C219.938 76.6007 219.71 76.484 219.411 76.484C219.094 76.484 218.809 76.6147 218.557 76.876C218.314 77.128 218.193 77.5853 218.193 78.248V82H216.149V77.786C216.149 77.3847 216.07 77.0673 215.911 76.834C215.752 76.6007 215.524 76.484 215.225 76.484C214.908 76.484 214.623 76.6147 214.371 76.876C214.128 77.128 214.007 77.5853 214.007 78.248V82H211.963V74.902H214.007ZM228.096 77.8V77.632C228.031 76.8013 227.667 76.386 227.004 76.386C226.678 76.386 226.388 76.5073 226.136 76.75C225.884 76.9833 225.716 77.3333 225.632 77.8H228.096ZM229.566 79.886V81.594C229.081 81.9113 228.339 82.07 227.34 82.07C226.174 82.07 225.264 81.734 224.61 81.062C223.966 80.3807 223.644 79.508 223.644 78.444C223.644 77.3147 223.957 76.4327 224.582 75.798C225.217 75.154 225.996 74.832 226.92 74.832C227.872 74.832 228.624 75.112 229.174 75.672C229.725 76.2227 230 77.0487 230 78.15C230 78.3647 229.963 78.7333 229.888 79.256H225.716C225.856 79.648 226.099 79.9513 226.444 80.166C226.79 80.3807 227.205 80.488 227.69 80.488C228.409 80.488 229.034 80.2873 229.566 79.886ZM233.503 74.902V76.106C233.68 75.714 233.951 75.406 234.315 75.182C234.688 74.9487 235.132 74.832 235.645 74.832C236.373 74.832 236.942 75.0513 237.353 75.49C237.764 75.9193 237.969 76.554 237.969 77.394V82H235.925V77.772C235.925 77.352 235.827 77.0347 235.631 76.82C235.435 76.596 235.16 76.484 234.805 76.484C234.432 76.484 234.119 76.6333 233.867 76.932C233.624 77.2213 233.503 77.66 233.503 78.248V82H231.459V74.902H233.503ZM243.976 74.902H246.02V82H243.976V80.866C243.603 81.6593 242.884 82.056 241.82 82.056C241.092 82.056 240.523 81.8553 240.112 81.454C239.711 81.0433 239.51 80.4413 239.51 79.648V74.902H241.554V79.186C241.554 80.0167 241.918 80.432 242.646 80.432C243.533 80.432 243.976 79.8393 243.976 78.654V74.902ZM249.731 74.902V76.218C249.862 75.8073 250.077 75.4807 250.375 75.238C250.683 74.986 251.038 74.86 251.439 74.86C251.663 74.86 251.841 74.8787 251.971 74.916V76.848C251.747 76.7453 251.491 76.694 251.201 76.694C250.763 76.694 250.408 76.8573 250.137 77.184C249.867 77.5013 249.731 77.926 249.731 78.458V82H247.687L247.701 74.902H249.731ZM257.279 74.902H259.323V82H257.279V80.866C256.906 81.6593 256.187 82.056 255.123 82.056C254.395 82.056 253.826 81.8553 253.415 81.454C253.014 81.0433 252.813 80.4413 252.813 79.648V74.902H254.857V79.186C254.857 80.0167 255.221 80.432 255.949 80.432C256.836 80.432 257.279 79.8393 257.279 78.654V74.902ZM263.048 74.902V76.106C263.225 75.714 263.496 75.406 263.86 75.182C264.233 74.9487 264.677 74.832 265.19 74.832C265.918 74.832 266.487 75.0513 266.898 75.49C267.309 75.9193 267.514 76.554 267.514 77.394V82H265.47V77.772C265.47 77.352 265.372 77.0347 265.176 76.82C264.98 76.596 264.705 76.484 264.35 76.484C263.977 76.484 263.664 76.6333 263.412 76.932C263.169 77.2213 263.048 77.66 263.048 78.248V82H261.004V74.902H263.048Z" fill="white"/>
</g>
<g clip-path="url(#clip1_1124_4113)">
<path d="M182.953 145.568C177.569 145.097 173.923 143.449 171.713 142.038C170.061 140.982 167.94 140.982 166.289 142.038C164.078 143.449 160.433 145.097 155.048 145.568C153.249 145.725 151.871 147.238 151.906 149.043C152.043 156.16 153.869 172.601 167.412 178.091C168.431 178.505 169.571 178.505 170.59 178.091C184.132 172.601 185.959 156.16 186.096 149.043C186.131 147.238 184.753 145.725 182.954 145.568H182.953Z" fill="#FF6678"/>
<path d="M170.589 178.092C184.132 172.601 185.958 156.16 186.095 149.043C186.13 147.238 184.752 145.725 182.953 145.568C177.568 145.098 173.922 143.45 171.712 142.038C170.886 141.51 169.943 141.246 169 141.246V178.401C169.54 178.401 170.08 178.298 170.589 178.091V178.092Z" fill="#CC5260"/>
<path d="M177.716 156.039H171.753V150.076H166.249V156.039H160.285V161.544H166.249V167.507H171.753V161.544H177.716V156.039Z" fill="#8C0010"/>
<g opacity="0.32" style="mix-blend-mode:multiply">
<path d="M177.716 156.039H171.752V150.076H169V167.507H171.752V161.544H177.716V156.039Z" fill="#CC5260"/>
</g>
<path d="M149.053 142.053L150.184 139.984L151.316 142.053L153.384 143.184L151.316 144.316L150.184 146.384L149.053 144.316L146.984 143.184L149.053 142.053Z" fill="#FF6678"/>
<path d="M177.258 179.858L178.344 177.872L179.431 179.858L181.416 180.944L179.431 182.03L178.344 184.016L177.258 182.03L175.272 180.944L177.258 179.858Z" fill="#FF6678"/>
<path d="M183.988 171.314L185.824 167.957L187.659 171.314L191.016 173.15L187.659 174.986L185.824 178.342L183.988 174.986L180.631 173.15L183.988 171.314Z" fill="#FF6678"/>
</g>
<path d="M87.094 210.49H89.254L89.144 210.15C88.8907 209.363 88.684 208.713 88.524 208.2C88.364 207.68 88.2674 207.357 88.234 207.23L88.184 207.04C88.1107 207.353 87.784 208.39 87.204 210.15L87.094 210.49ZM90.064 213L89.534 211.35H86.814L86.274 213H85.184L87.514 206.26H88.864L91.164 213H90.064ZM93.1456 207.93V208.8C93.4456 208.173 93.9723 207.86 94.7256 207.86C95.2256 207.86 95.6223 208.013 95.9156 208.32C96.2089 208.627 96.3556 209.043 96.3556 209.57V213H95.3756V209.8C95.3756 209.447 95.2856 209.177 95.1056 208.99C94.9323 208.803 94.6989 208.71 94.4056 208.71C94.0589 208.71 93.7623 208.847 93.5156 209.12C93.2689 209.387 93.1456 209.763 93.1456 210.25V213H92.1656V207.93H93.1456ZM99.7234 212.21C100.11 212.21 100.437 212.063 100.703 211.77C100.97 211.477 101.103 211.03 101.103 210.43C101.103 209.85 100.963 209.42 100.683 209.14C100.41 208.86 100.1 208.72 99.7534 208.72C99.3601 208.72 99.0367 208.877 98.7834 209.19C98.5301 209.497 98.4034 209.937 98.4034 210.51C98.4034 211.017 98.5267 211.427 98.7734 211.74C99.0267 212.053 99.3434 212.21 99.7234 212.21ZM101.103 205.93H102.093V213H101.103V212.23C100.75 212.79 100.233 213.07 99.5534 213.07C98.8867 213.07 98.3601 212.82 97.9734 212.32C97.5867 211.813 97.3934 211.203 97.3934 210.49C97.3934 209.697 97.5967 209.06 98.0034 208.58C98.4101 208.1 98.9334 207.86 99.5734 207.86C100.233 207.86 100.743 208.14 101.103 208.7V205.93ZM106.144 210.74H105.384C105.011 210.74 104.728 210.813 104.534 210.96C104.348 211.107 104.254 211.293 104.254 211.52C104.254 211.753 104.328 211.937 104.474 212.07C104.621 212.203 104.834 212.27 105.114 212.27C105.434 212.27 105.684 212.183 105.864 212.01C106.051 211.83 106.144 211.597 106.144 211.31V210.74ZM103.594 209.14V208.19C103.988 207.963 104.508 207.85 105.154 207.85C106.481 207.85 107.144 208.493 107.144 209.78V213H106.174V212.4C105.914 212.827 105.458 213.04 104.804 213.04C104.324 213.04 103.938 212.903 103.644 212.63C103.358 212.35 103.214 211.997 103.214 211.57C103.214 211.083 103.398 210.707 103.764 210.44C104.131 210.167 104.644 210.03 105.304 210.03H106.144V209.74C106.144 209.393 106.061 209.133 105.894 208.96C105.728 208.78 105.451 208.69 105.064 208.69C104.524 208.69 104.034 208.84 103.594 209.14ZM111.905 207.93V208.74C112.192 208.153 112.669 207.86 113.335 207.86C114.095 207.86 114.582 208.187 114.795 208.84C114.935 208.527 115.139 208.287 115.405 208.12C115.672 207.947 115.972 207.86 116.305 207.86C116.825 207.86 117.219 208.013 117.485 208.32C117.759 208.627 117.895 209.05 117.895 209.59V213H116.915V209.8C116.915 209.073 116.622 208.71 116.035 208.71C115.742 208.71 115.479 208.84 115.245 209.1C115.019 209.36 114.905 209.743 114.905 210.25V213H113.925V209.8C113.925 209.073 113.629 208.71 113.035 208.71C112.749 208.71 112.489 208.84 112.255 209.1C112.022 209.36 111.905 209.743 111.905 210.25V213H110.925V207.93H111.905ZM122.376 210.1V209.92C122.363 209.54 122.259 209.24 122.066 209.02C121.873 208.793 121.596 208.68 121.236 208.68C120.903 208.68 120.616 208.803 120.376 209.05C120.136 209.29 119.986 209.64 119.926 210.1H122.376ZM123.006 211.85V212.73C122.633 212.943 122.139 213.05 121.526 213.05C120.739 213.05 120.113 212.813 119.646 212.34C119.179 211.867 118.946 211.247 118.946 210.48C118.946 209.667 119.159 209.03 119.586 208.57C120.013 208.103 120.556 207.87 121.216 207.87C121.863 207.87 122.376 208.073 122.756 208.48C123.136 208.88 123.326 209.46 123.326 210.22C123.326 210.427 123.306 210.643 123.266 210.87H119.936C120.003 211.31 120.189 211.647 120.496 211.88C120.803 212.113 121.189 212.23 121.656 212.23C122.196 212.23 122.646 212.103 123.006 211.85ZM125.46 207.93V208.74C125.747 208.153 126.223 207.86 126.89 207.86C127.65 207.86 128.137 208.187 128.35 208.84C128.49 208.527 128.693 208.287 128.96 208.12C129.227 207.947 129.527 207.86 129.86 207.86C130.38 207.86 130.773 208.013 131.04 208.32C131.313 208.627 131.45 209.05 131.45 209.59V213H130.47V209.8C130.47 209.073 130.177 208.71 129.59 208.71C129.297 208.71 129.033 208.84 128.8 209.1C128.573 209.36 128.46 209.743 128.46 210.25V213H127.48V209.8C127.48 209.073 127.183 208.71 126.59 208.71C126.303 208.71 126.043 208.84 125.81 209.1C125.577 209.36 125.46 209.743 125.46 210.25V213H124.48V207.93H125.46ZM132.821 213V207.93H133.811V213H132.821ZM132.871 206.82C132.757 206.7 132.701 206.553 132.701 206.38C132.701 206.207 132.757 206.06 132.871 205.94C132.991 205.82 133.137 205.76 133.311 205.76C133.484 205.76 133.631 205.82 133.751 205.94C133.871 206.06 133.931 206.207 133.931 206.38C133.931 206.547 133.871 206.69 133.751 206.81C133.631 206.93 133.484 206.99 133.311 206.99C133.137 206.99 132.991 206.933 132.871 206.82ZM135.272 213V205.93H136.262V213H135.272ZM137.723 213V207.93H138.713V213H137.723ZM137.773 206.82C137.66 206.7 137.603 206.553 137.603 206.38C137.603 206.207 137.66 206.06 137.773 205.94C137.893 205.82 138.04 205.76 138.213 205.76C138.386 205.76 138.533 205.82 138.653 205.94C138.773 206.06 138.833 206.207 138.833 206.38C138.833 206.547 138.773 206.69 138.653 206.81C138.533 206.93 138.386 206.99 138.213 206.99C138.04 206.99 137.893 206.933 137.773 206.82ZM140.134 213V206H141.114V213H140.134ZM142.284 210.35L144.274 213H143.104L141.154 210.35L143.064 207.93H144.214L142.284 210.35ZM145.174 213V207.93H146.164V213H145.174ZM145.224 206.82C145.111 206.7 145.054 206.553 145.054 206.38C145.054 206.207 145.111 206.06 145.224 205.94C145.344 205.82 145.491 205.76 145.664 205.76C145.838 205.76 145.984 205.82 146.104 205.94C146.224 206.06 146.284 206.207 146.284 206.38C146.284 206.547 146.224 206.69 146.104 206.81C145.984 206.93 145.838 206.99 145.664 206.99C145.491 206.99 145.344 206.933 145.224 206.82ZM151.576 210.49H153.736L153.626 210.15C153.373 209.363 153.166 208.713 153.006 208.2C152.846 207.68 152.75 207.357 152.716 207.23L152.666 207.04C152.593 207.353 152.266 208.39 151.686 210.15L151.576 210.49ZM154.546 213L154.016 211.35H151.296L150.756 213H149.666L151.996 206.26H153.346L155.646 213H154.546ZM159.538 208.1V208.99C159.211 208.797 158.791 208.7 158.278 208.7C158.045 208.7 157.858 208.753 157.718 208.86C157.585 208.967 157.518 209.107 157.518 209.28C157.518 209.327 157.521 209.373 157.528 209.42C157.541 209.46 157.561 209.503 157.588 209.55C157.615 209.59 157.638 209.627 157.658 209.66C157.685 209.687 157.725 209.717 157.778 209.75C157.831 209.783 157.871 209.813 157.898 209.84C157.931 209.86 157.981 209.887 158.048 209.92C158.121 209.953 158.175 209.98 158.208 210C158.241 210.013 158.298 210.04 158.378 210.08C158.465 210.113 158.525 210.137 158.558 210.15C158.951 210.323 159.258 210.52 159.478 210.74C159.705 210.953 159.818 211.24 159.818 211.6C159.818 212.053 159.658 212.41 159.338 212.67C159.018 212.923 158.585 213.05 158.038 213.05C157.438 213.05 156.938 212.95 156.538 212.75V211.82C157.005 212.107 157.488 212.25 157.988 212.25C158.248 212.25 158.448 212.197 158.588 212.09C158.735 211.983 158.808 211.843 158.808 211.67C158.808 211.523 158.751 211.393 158.638 211.28C158.525 211.16 158.408 211.073 158.288 211.02C158.175 210.96 157.978 210.87 157.698 210.75C156.905 210.423 156.508 209.943 156.508 209.31C156.508 208.863 156.675 208.513 157.008 208.26C157.341 208.007 157.758 207.88 158.258 207.88C158.805 207.88 159.231 207.953 159.538 208.1ZM163.987 207.93H164.967V213H163.987V212.13C163.721 212.75 163.194 213.06 162.407 213.06C161.907 213.06 161.511 212.913 161.217 212.62C160.924 212.32 160.777 211.91 160.777 211.39V207.93H161.767V211.15C161.767 211.497 161.851 211.763 162.017 211.95C162.191 212.13 162.427 212.22 162.727 212.22C163.107 212.22 163.411 212.087 163.637 211.82C163.871 211.553 163.987 211.177 163.987 210.69V207.93ZM167.325 207.93V208.82C167.572 208.193 168.015 207.88 168.655 207.88C168.749 207.88 168.852 207.89 168.965 207.91V208.87C168.825 208.81 168.669 208.78 168.495 208.78C168.155 208.78 167.875 208.93 167.655 209.23C167.435 209.53 167.325 209.887 167.325 210.3V213H166.345V207.93H167.325ZM172.404 210.74H171.644C171.271 210.74 170.987 210.813 170.794 210.96C170.607 211.107 170.514 211.293 170.514 211.52C170.514 211.753 170.587 211.937 170.734 212.07C170.881 212.203 171.094 212.27 171.374 212.27C171.694 212.27 171.944 212.183 172.124 212.01C172.311 211.83 172.404 211.597 172.404 211.31V210.74ZM169.854 209.14V208.19C170.247 207.963 170.767 207.85 171.414 207.85C172.741 207.85 173.404 208.493 173.404 209.78V213H172.434V212.4C172.174 212.827 171.717 213.04 171.064 213.04C170.584 213.04 170.197 212.903 169.904 212.63C169.617 212.35 169.474 211.997 169.474 211.57C169.474 211.083 169.657 210.707 170.024 210.44C170.391 210.167 170.904 210.03 171.564 210.03H172.404V209.74C172.404 209.393 172.321 209.133 172.154 208.96C171.987 208.78 171.711 208.69 171.324 208.69C170.784 208.69 170.294 208.84 169.854 209.14ZM175.704 207.93V208.8C176.004 208.173 176.531 207.86 177.284 207.86C177.784 207.86 178.181 208.013 178.474 208.32C178.768 208.627 178.914 209.043 178.914 209.57V213H177.934V209.8C177.934 209.447 177.844 209.177 177.664 208.99C177.491 208.803 177.258 208.71 176.964 208.71C176.618 208.71 176.321 208.847 176.074 209.12C175.828 209.387 175.704 209.763 175.704 210.25V213H174.724V207.93H175.704ZM183.122 208.1V208.99C182.795 208.797 182.375 208.7 181.862 208.7C181.629 208.7 181.442 208.753 181.302 208.86C181.169 208.967 181.102 209.107 181.102 209.28C181.102 209.327 181.105 209.373 181.112 209.42C181.125 209.46 181.145 209.503 181.172 209.55C181.199 209.59 181.222 209.627 181.242 209.66C181.269 209.687 181.309 209.717 181.362 209.75C181.415 209.783 181.455 209.813 181.482 209.84C181.515 209.86 181.565 209.887 181.632 209.92C181.705 209.953 181.759 209.98 181.792 210C181.825 210.013 181.882 210.04 181.962 210.08C182.049 210.113 182.109 210.137 182.142 210.15C182.535 210.323 182.842 210.52 183.062 210.74C183.289 210.953 183.402 211.24 183.402 211.6C183.402 212.053 183.242 212.41 182.922 212.67C182.602 212.923 182.169 213.05 181.622 213.05C181.022 213.05 180.522 212.95 180.122 212.75V211.82C180.589 212.107 181.072 212.25 181.572 212.25C181.832 212.25 182.032 212.197 182.172 212.09C182.319 211.983 182.392 211.843 182.392 211.67C182.392 211.523 182.335 211.393 182.222 211.28C182.109 211.16 181.992 211.073 181.872 211.02C181.759 210.96 181.562 210.87 181.282 210.75C180.489 210.423 180.092 209.943 180.092 209.31C180.092 208.863 180.259 208.513 180.592 208.26C180.925 208.007 181.342 207.88 181.842 207.88C182.389 207.88 182.815 207.953 183.122 208.1ZM184.461 213V207.93H185.451V213H184.461ZM184.511 206.82C184.398 206.7 184.341 206.553 184.341 206.38C184.341 206.207 184.398 206.06 184.511 205.94C184.631 205.82 184.778 205.76 184.951 205.76C185.125 205.76 185.271 205.82 185.391 205.94C185.511 206.06 185.571 206.207 185.571 206.38C185.571 206.547 185.511 206.69 185.391 206.81C185.271 206.93 185.125 206.99 184.951 206.99C184.778 206.99 184.631 206.933 184.511 206.82ZM190.404 209.76H191.284C191.77 209.76 192.14 209.64 192.394 209.4C192.654 209.16 192.784 208.843 192.784 208.45C192.784 208.037 192.654 207.71 192.394 207.47C192.134 207.23 191.757 207.11 191.264 207.11H190.404V209.76ZM189.374 206.26H191.304C192.077 206.26 192.69 206.467 193.144 206.88C193.597 207.287 193.824 207.81 193.824 208.45C193.824 209.09 193.594 209.61 193.134 210.01C192.68 210.41 192.09 210.61 191.364 210.61H190.404V213H189.374V206.26ZM194.872 213V205.93H195.862V213H194.872ZM199.953 210.74H199.193C198.819 210.74 198.536 210.813 198.343 210.96C198.156 211.107 198.063 211.293 198.063 211.52C198.063 211.753 198.136 211.937 198.283 212.07C198.429 212.203 198.643 212.27 198.923 212.27C199.243 212.27 199.493 212.183 199.673 212.01C199.859 211.83 199.953 211.597 199.953 211.31V210.74ZM197.403 209.14V208.19C197.796 207.963 198.316 207.85 198.963 207.85C200.289 207.85 200.953 208.493 200.953 209.78V213H199.983V212.4C199.723 212.827 199.266 213.04 198.613 213.04C198.133 213.04 197.746 212.903 197.453 212.63C197.166 212.35 197.023 211.997 197.023 211.57C197.023 211.083 197.206 210.707 197.573 210.44C197.939 210.167 198.453 210.03 199.113 210.03H199.953V209.74C199.953 209.393 199.869 209.133 199.703 208.96C199.536 208.78 199.259 208.69 198.873 208.69C198.333 208.69 197.843 208.84 197.403 209.14ZM203.543 208.69V211.48C203.543 211.967 203.776 212.21 204.243 212.21C204.516 212.21 204.746 212.137 204.933 211.99V212.87C204.713 212.99 204.443 213.05 204.123 213.05C203.076 213.05 202.553 212.52 202.553 211.46V208.69H201.763V207.93H202.553V206.69H203.543V207.93H204.873V208.69H203.543ZM206.053 213V207.93H207.043V213H206.053ZM206.103 206.82C205.99 206.7 205.933 206.553 205.933 206.38C205.933 206.207 205.99 206.06 206.103 205.94C206.223 205.82 206.37 205.76 206.543 205.76C206.717 205.76 206.863 205.82 206.983 205.94C207.103 206.06 207.163 206.207 207.163 206.38C207.163 206.547 207.103 206.69 206.983 206.81C206.863 206.93 206.717 206.99 206.543 206.99C206.37 206.99 206.223 206.933 206.103 206.82ZM209.444 207.93V208.8C209.744 208.173 210.271 207.86 211.024 207.86C211.524 207.86 211.921 208.013 212.214 208.32C212.508 208.627 212.654 209.043 212.654 209.57V213H211.674V209.8C211.674 209.447 211.584 209.177 211.404 208.99C211.231 208.803 210.998 208.71 210.704 208.71C210.358 208.71 210.061 208.847 209.814 209.12C209.568 209.387 209.444 209.763 209.444 210.25V213H208.464V207.93H209.444ZM217.122 207.93H218.102V213H217.122V212.13C216.856 212.75 216.329 213.06 215.542 213.06C215.042 213.06 214.646 212.913 214.352 212.62C214.059 212.32 213.912 211.91 213.912 211.39V207.93H214.902V211.15C214.902 211.497 214.986 211.763 215.152 211.95C215.326 212.13 215.562 212.22 215.862 212.22C216.242 212.22 216.546 212.087 216.772 211.82C217.006 211.553 217.122 211.177 217.122 210.69V207.93ZM220.46 207.93V208.74C220.747 208.153 221.223 207.86 221.89 207.86C222.65 207.86 223.137 208.187 223.35 208.84C223.49 208.527 223.693 208.287 223.96 208.12C224.227 207.947 224.527 207.86 224.86 207.86C225.38 207.86 225.773 208.013 226.04 208.32C226.313 208.627 226.45 209.05 226.45 209.59V213H225.47V209.8C225.47 209.073 225.177 208.71 224.59 208.71C224.297 208.71 224.033 208.84 223.8 209.1C223.573 209.36 223.46 209.743 223.46 210.25V213H222.48V209.8C222.48 209.073 222.183 208.71 221.59 208.71C221.303 208.71 221.043 208.84 220.81 209.1C220.577 209.36 220.46 209.743 220.46 210.25V213H219.48V207.93H220.46ZM227.011 214.24L227.971 211.9H229.181L227.871 214.24H227.011ZM234.093 212.89L232.073 207.93H233.163L233.793 209.58L234.583 211.72C234.643 211.52 234.883 210.807 235.303 209.58L235.873 207.93H236.913L235.083 212.86C234.596 214.16 233.853 214.81 232.853 214.81C232.673 214.81 232.52 214.793 232.393 214.76V213.92C232.5 213.947 232.613 213.96 232.733 213.96C233.38 213.96 233.833 213.603 234.093 212.89ZM240.402 210.74H239.642C239.269 210.74 238.985 210.813 238.792 210.96C238.605 211.107 238.512 211.293 238.512 211.52C238.512 211.753 238.585 211.937 238.732 212.07C238.879 212.203 239.092 212.27 239.372 212.27C239.692 212.27 239.942 212.183 240.122 212.01C240.309 211.83 240.402 211.597 240.402 211.31V210.74ZM237.852 209.14V208.19C238.245 207.963 238.765 207.85 239.412 207.85C240.739 207.85 241.402 208.493 241.402 209.78V213H240.432V212.4C240.172 212.827 239.715 213.04 239.062 213.04C238.582 213.04 238.195 212.903 237.902 212.63C237.615 212.35 237.472 211.997 237.472 211.57C237.472 211.083 237.655 210.707 238.022 210.44C238.389 210.167 238.902 210.03 239.562 210.03H240.402V209.74C240.402 209.393 240.319 209.133 240.152 208.96C239.985 208.78 239.709 208.69 239.322 208.69C238.782 208.69 238.292 208.84 237.852 209.14ZM243.702 207.93V208.8C244.002 208.173 244.529 207.86 245.282 207.86C245.782 207.86 246.179 208.013 246.472 208.32C246.766 208.627 246.912 209.043 246.912 209.57V213H245.932V209.8C245.932 209.447 245.842 209.177 245.662 208.99C245.489 208.803 245.256 208.71 244.962 208.71C244.616 208.71 244.319 208.847 244.072 209.12C243.826 209.387 243.702 209.763 243.702 210.25V213H242.722V207.93H243.702ZM250.23 212.02C250.577 212.02 250.877 211.887 251.13 211.62C251.39 211.347 251.52 210.967 251.52 210.48C251.52 209.88 251.397 209.437 251.15 209.15C250.91 208.863 250.617 208.72 250.27 208.72C249.877 208.72 249.567 208.877 249.34 209.19C249.113 209.497 249 209.903 249 210.41C249 210.937 249.12 211.337 249.36 211.61C249.607 211.883 249.897 212.02 250.23 212.02ZM251.52 207.93H252.5V212.57C252.5 213.35 252.277 213.937 251.83 214.33C251.39 214.73 250.823 214.93 250.13 214.93C249.477 214.93 248.927 214.82 248.48 214.6V213.61C248.907 213.89 249.423 214.03 250.03 214.03C251.023 214.03 251.52 213.54 251.52 212.56V212.04C251.193 212.587 250.703 212.86 250.05 212.86C249.477 212.86 248.987 212.65 248.58 212.23C248.173 211.803 247.97 211.203 247.97 210.43C247.97 209.683 248.16 209.07 248.54 208.59C248.92 208.103 249.423 207.86 250.05 207.86C250.723 207.86 251.213 208.147 251.52 208.72V207.93ZM97.7978 228.21C98.1711 228.21 98.4844 228.053 98.7378 227.74C98.9911 227.42 99.1178 227.01 99.1178 226.51C99.1178 225.937 98.9911 225.497 98.7378 225.19C98.4844 224.877 98.1611 224.72 97.7678 224.72C97.4211 224.72 97.1078 224.86 96.8278 225.14C96.5544 225.42 96.4178 225.85 96.4178 226.43C96.4178 227.03 96.5511 227.477 96.8178 227.77C97.0844 228.063 97.4111 228.21 97.7978 228.21ZM96.4178 221.93V224.7C96.7778 224.14 97.2878 223.86 97.9478 223.86C98.5878 223.86 99.1111 224.1 99.5178 224.58C99.9244 225.06 100.128 225.697 100.128 226.49C100.128 227.203 99.9344 227.813 99.5478 228.32C99.1611 228.82 98.6311 229.07 97.9578 229.07C97.2844 229.07 96.7711 228.79 96.4178 228.23V229H95.4278V221.93H96.4178ZM101.268 229V223.93H102.258V229H101.268ZM101.318 222.82C101.205 222.7 101.148 222.553 101.148 222.38C101.148 222.207 101.205 222.06 101.318 221.94C101.438 221.82 101.585 221.76 101.758 221.76C101.931 221.76 102.078 221.82 102.198 221.94C102.318 222.06 102.378 222.207 102.378 222.38C102.378 222.547 102.318 222.69 102.198 222.81C102.078 222.93 101.931 222.99 101.758 222.99C101.585 222.99 101.438 222.933 101.318 222.82ZM106.569 224.1V224.99C106.243 224.797 105.823 224.7 105.309 224.7C105.076 224.7 104.889 224.753 104.749 224.86C104.616 224.967 104.549 225.107 104.549 225.28C104.549 225.327 104.553 225.373 104.559 225.42C104.573 225.46 104.593 225.503 104.619 225.55C104.646 225.59 104.669 225.627 104.689 225.66C104.716 225.687 104.756 225.717 104.809 225.75C104.863 225.783 104.903 225.813 104.929 225.84C104.963 225.86 105.013 225.887 105.079 225.92C105.153 225.953 105.206 225.98 105.239 226C105.273 226.013 105.329 226.04 105.409 226.08C105.496 226.113 105.556 226.137 105.589 226.15C105.983 226.323 106.289 226.52 106.509 226.74C106.736 226.953 106.849 227.24 106.849 227.6C106.849 228.053 106.689 228.41 106.369 228.67C106.049 228.923 105.616 229.05 105.069 229.05C104.469 229.05 103.969 228.95 103.569 228.75V227.82C104.036 228.107 104.519 228.25 105.019 228.25C105.279 228.25 105.479 228.197 105.619 228.09C105.766 227.983 105.839 227.843 105.839 227.67C105.839 227.523 105.783 227.393 105.669 227.28C105.556 227.16 105.439 227.073 105.319 227.02C105.206 226.96 105.009 226.87 104.729 226.75C103.936 226.423 103.539 225.943 103.539 225.31C103.539 224.863 103.706 224.513 104.039 224.26C104.373 224.007 104.789 223.88 105.289 223.88C105.836 223.88 106.263 223.953 106.569 224.1ZM110.539 226.74H109.779C109.405 226.74 109.122 226.813 108.929 226.96C108.742 227.107 108.649 227.293 108.649 227.52C108.649 227.753 108.722 227.937 108.869 228.07C109.015 228.203 109.229 228.27 109.509 228.27C109.829 228.27 110.079 228.183 110.259 228.01C110.445 227.83 110.539 227.597 110.539 227.31V226.74ZM107.989 225.14V224.19C108.382 223.963 108.902 223.85 109.549 223.85C110.875 223.85 111.539 224.493 111.539 225.78V229H110.569V228.4C110.309 228.827 109.852 229.04 109.199 229.04C108.719 229.04 108.332 228.903 108.039 228.63C107.752 228.35 107.609 227.997 107.609 227.57C107.609 227.083 107.792 226.707 108.159 226.44C108.525 226.167 109.039 226.03 109.699 226.03H110.539V225.74C110.539 225.393 110.455 225.133 110.289 224.96C110.122 224.78 109.845 224.69 109.459 224.69C108.919 224.69 108.429 224.84 107.989 225.14ZM116.3 223.93V224.74C116.587 224.153 117.063 223.86 117.73 223.86C118.49 223.86 118.977 224.187 119.19 224.84C119.33 224.527 119.533 224.287 119.8 224.12C120.067 223.947 120.367 223.86 120.7 223.86C121.22 223.86 121.613 224.013 121.88 224.32C122.153 224.627 122.29 225.05 122.29 225.59V229H121.31V225.8C121.31 225.073 121.017 224.71 120.43 224.71C120.137 224.71 119.873 224.84 119.64 225.1C119.413 225.36 119.3 225.743 119.3 226.25V229H118.32V225.8C118.32 225.073 118.023 224.71 117.43 224.71C117.143 224.71 116.883 224.84 116.65 225.1C116.417 225.36 116.3 225.743 116.3 226.25V229H115.32V223.93H116.3ZM126.771 226.1V225.92C126.757 225.54 126.654 225.24 126.461 225.02C126.267 224.793 125.991 224.68 125.631 224.68C125.297 224.68 125.011 224.803 124.771 225.05C124.531 225.29 124.381 225.64 124.321 226.1H126.771ZM127.401 227.85V228.73C127.027 228.943 126.534 229.05 125.921 229.05C125.134 229.05 124.507 228.813 124.041 228.34C123.574 227.867 123.341 227.247 123.341 226.48C123.341 225.667 123.554 225.03 123.981 224.57C124.407 224.103 124.951 223.87 125.611 223.87C126.257 223.87 126.771 224.073 127.151 224.48C127.531 224.88 127.721 225.46 127.721 226.22C127.721 226.427 127.701 226.643 127.661 226.87H124.331C124.397 227.31 124.584 227.647 124.891 227.88C125.197 228.113 125.584 228.23 126.051 228.23C126.591 228.23 127.041 228.103 127.401 227.85ZM129.855 223.93V224.74C130.141 224.153 130.618 223.86 131.285 223.86C132.045 223.86 132.531 224.187 132.745 224.84C132.885 224.527 133.088 224.287 133.355 224.12C133.621 223.947 133.921 223.86 134.255 223.86C134.775 223.86 135.168 224.013 135.435 224.32C135.708 224.627 135.845 225.05 135.845 225.59V229H134.865V225.8C134.865 225.073 134.571 224.71 133.985 224.71C133.691 224.71 133.428 224.84 133.195 225.1C132.968 225.36 132.855 225.743 132.855 226.25V229H131.875V225.8C131.875 225.073 131.578 224.71 130.985 224.71C130.698 224.71 130.438 224.84 130.205 225.1C129.971 225.36 129.855 225.743 129.855 226.25V229H128.875V223.93H129.855ZM139.565 228.21C139.939 228.21 140.252 228.053 140.505 227.74C140.759 227.42 140.885 227.01 140.885 226.51C140.885 225.937 140.759 225.497 140.505 225.19C140.252 224.877 139.929 224.72 139.535 224.72C139.189 224.72 138.875 224.86 138.595 225.14C138.322 225.42 138.185 225.85 138.185 226.43C138.185 227.03 138.319 227.477 138.585 227.77C138.852 228.063 139.179 228.21 139.565 228.21ZM138.185 221.93V224.7C138.545 224.14 139.055 223.86 139.715 223.86C140.355 223.86 140.879 224.1 141.285 224.58C141.692 225.06 141.895 225.697 141.895 226.49C141.895 227.203 141.702 227.813 141.315 228.32C140.929 228.82 140.399 229.07 139.725 229.07C139.052 229.07 138.539 228.79 138.185 228.23V229H137.195V221.93H138.185ZM143.036 229V223.93H144.026V229H143.036ZM143.086 222.82C142.972 222.7 142.916 222.553 142.916 222.38C142.916 222.207 142.972 222.06 143.086 221.94C143.206 221.82 143.352 221.76 143.526 221.76C143.699 221.76 143.846 221.82 143.966 221.94C144.086 222.06 144.146 222.207 144.146 222.38C144.146 222.547 144.086 222.69 143.966 222.81C143.846 222.93 143.699 222.99 143.526 222.99C143.352 222.99 143.206 222.933 143.086 222.82ZM148.117 226.74H147.357C146.984 226.74 146.7 226.813 146.507 226.96C146.32 227.107 146.227 227.293 146.227 227.52C146.227 227.753 146.3 227.937 146.447 228.07C146.594 228.203 146.807 228.27 147.087 228.27C147.407 228.27 147.657 228.183 147.837 228.01C148.024 227.83 148.117 227.597 148.117 227.31V226.74ZM145.567 225.14V224.19C145.96 223.963 146.48 223.85 147.127 223.85C148.454 223.85 149.117 224.493 149.117 225.78V229H148.147V228.4C147.887 228.827 147.43 229.04 146.777 229.04C146.297 229.04 145.91 228.903 145.617 228.63C145.33 228.35 145.187 227.997 145.187 227.57C145.187 227.083 145.37 226.707 145.737 226.44C146.104 226.167 146.617 226.03 147.277 226.03H148.117V225.74C148.117 225.393 148.034 225.133 147.867 224.96C147.7 224.78 147.424 224.69 147.037 224.69C146.497 224.69 146.007 224.84 145.567 225.14ZM151.837 228.89L149.817 223.93H150.907L151.537 225.58L152.327 227.72C152.387 227.52 152.627 226.807 153.047 225.58L153.617 223.93H154.657L152.827 228.86C152.34 230.16 151.597 230.81 150.597 230.81C150.417 230.81 150.264 230.793 150.137 230.76V229.92C150.244 229.947 150.357 229.96 150.477 229.96C151.124 229.96 151.577 229.603 151.837 228.89ZM158.146 226.74H157.386C157.013 226.74 156.729 226.813 156.536 226.96C156.349 227.107 156.256 227.293 156.256 227.52C156.256 227.753 156.329 227.937 156.476 228.07C156.623 228.203 156.836 228.27 157.116 228.27C157.436 228.27 157.686 228.183 157.866 228.01C158.053 227.83 158.146 227.597 158.146 227.31V226.74ZM155.596 225.14V224.19C155.989 223.963 156.509 223.85 157.156 223.85C158.483 223.85 159.146 224.493 159.146 225.78V229H158.176V228.4C157.916 228.827 157.459 229.04 156.806 229.04C156.326 229.04 155.939 228.903 155.646 228.63C155.359 228.35 155.216 227.997 155.216 227.57C155.216 227.083 155.399 226.707 155.766 226.44C156.133 226.167 156.646 226.03 157.306 226.03H158.146V225.74C158.146 225.393 158.063 225.133 157.896 224.96C157.729 224.78 157.453 224.69 157.066 224.69C156.526 224.69 156.036 224.84 155.596 225.14ZM160.506 229V223.93H161.496V229H160.506ZM160.556 222.82C160.443 222.7 160.386 222.553 160.386 222.38C160.386 222.207 160.443 222.06 160.556 221.94C160.676 221.82 160.823 221.76 160.996 221.76C161.17 221.76 161.316 221.82 161.436 221.94C161.556 222.06 161.616 222.207 161.616 222.38C161.616 222.547 161.556 222.69 161.436 222.81C161.316 222.93 161.17 222.99 160.996 222.99C160.823 222.99 160.676 222.933 160.556 222.82ZM167.768 228.21C168.142 228.21 168.455 228.053 168.708 227.74C168.962 227.42 169.088 227.01 169.088 226.51C169.088 225.937 168.962 225.497 168.708 225.19C168.455 224.877 168.132 224.72 167.738 224.72C167.392 224.72 167.078 224.86 166.798 225.14C166.525 225.42 166.388 225.85 166.388 226.43C166.388 227.03 166.522 227.477 166.788 227.77C167.055 228.063 167.382 228.21 167.768 228.21ZM166.388 221.93V224.7C166.748 224.14 167.258 223.86 167.918 223.86C168.558 223.86 169.082 224.1 169.488 224.58C169.895 225.06 170.098 225.697 170.098 226.49C170.098 227.203 169.905 227.813 169.518 228.32C169.132 228.82 168.602 229.07 167.928 229.07C167.255 229.07 166.742 228.79 166.388 228.23V229H165.398V221.93H166.388ZM171.239 229V223.93H172.229V229H171.239ZM171.289 222.82C171.175 222.7 171.119 222.553 171.119 222.38C171.119 222.207 171.175 222.06 171.289 221.94C171.409 221.82 171.555 221.76 171.729 221.76C171.902 221.76 172.049 221.82 172.169 221.94C172.289 222.06 172.349 222.207 172.349 222.38C172.349 222.547 172.289 222.69 172.169 222.81C172.049 222.93 171.902 222.99 171.729 222.99C171.555 222.99 171.409 222.933 171.289 222.82ZM176.32 226.74H175.56C175.187 226.74 174.903 226.813 174.71 226.96C174.523 227.107 174.43 227.293 174.43 227.52C174.43 227.753 174.503 227.937 174.65 228.07C174.797 228.203 175.01 228.27 175.29 228.27C175.61 228.27 175.86 228.183 176.04 228.01C176.227 227.83 176.32 227.597 176.32 227.31V226.74ZM173.77 225.14V224.19C174.163 223.963 174.683 223.85 175.33 223.85C176.657 223.85 177.32 224.493 177.32 225.78V229H176.35V228.4C176.09 228.827 175.633 229.04 174.98 229.04C174.5 229.04 174.113 228.903 173.82 228.63C173.533 228.35 173.39 227.997 173.39 227.57C173.39 227.083 173.573 226.707 173.94 226.44C174.307 226.167 174.82 226.03 175.48 226.03H176.32V225.74C176.32 225.393 176.237 225.133 176.07 224.96C175.903 224.78 175.627 224.69 175.24 224.69C174.7 224.69 174.21 224.84 173.77 225.14ZM180.04 228.89L178.02 223.93H179.11L179.74 225.58L180.53 227.72C180.59 227.52 180.83 226.807 181.25 225.58L181.82 223.93H182.86L181.03 228.86C180.544 230.16 179.8 230.81 178.8 230.81C178.62 230.81 178.467 230.793 178.34 230.76V229.92C178.447 229.947 178.56 229.96 178.68 229.96C179.327 229.96 179.78 229.603 180.04 228.89ZM186.349 226.74H185.589C185.216 226.74 184.933 226.813 184.739 226.96C184.553 227.107 184.459 227.293 184.459 227.52C184.459 227.753 184.533 227.937 184.679 228.07C184.826 228.203 185.039 228.27 185.319 228.27C185.639 228.27 185.889 228.183 186.069 228.01C186.256 227.83 186.349 227.597 186.349 227.31V226.74ZM183.799 225.14V224.19C184.193 223.963 184.713 223.85 185.359 223.85C186.686 223.85 187.349 224.493 187.349 225.78V229H186.379V228.4C186.119 228.827 185.663 229.04 185.009 229.04C184.529 229.04 184.143 228.903 183.849 228.63C183.563 228.35 183.419 227.997 183.419 227.57C183.419 227.083 183.603 226.707 183.969 226.44C184.336 226.167 184.849 226.03 185.509 226.03H186.349V225.74C186.349 225.393 186.266 225.133 186.099 224.96C185.933 224.78 185.656 224.69 185.269 224.69C184.729 224.69 184.239 224.84 183.799 225.14ZM193.47 228.21C193.864 228.21 194.187 228.057 194.44 227.75C194.694 227.437 194.82 227 194.82 226.44C194.82 225.913 194.697 225.497 194.45 225.19C194.204 224.877 193.89 224.72 193.51 224.72C193.13 224.72 192.8 224.86 192.52 225.14C192.247 225.413 192.11 225.85 192.11 226.45C192.11 227.037 192.247 227.477 192.52 227.77C192.8 228.063 193.117 228.21 193.47 228.21ZM192.11 223.93V224.71C192.457 224.143 192.977 223.86 193.67 223.86C194.337 223.86 194.864 224.103 195.25 224.59C195.637 225.07 195.83 225.683 195.83 226.43C195.83 227.197 195.63 227.83 195.23 228.33C194.837 228.823 194.31 229.07 193.65 229.07C192.977 229.07 192.464 228.79 192.11 228.23V230.94H191.13V223.93H192.11ZM200.081 226.1V225.92C200.068 225.54 199.965 225.24 199.771 225.02C199.578 224.793 199.301 224.68 198.941 224.68C198.608 224.68 198.321 224.803 198.081 225.05C197.841 225.29 197.691 225.64 197.631 226.1H200.081ZM200.711 227.85V228.73C200.338 228.943 199.845 229.05 199.231 229.05C198.445 229.05 197.818 228.813 197.351 228.34C196.885 227.867 196.651 227.247 196.651 226.48C196.651 225.667 196.865 225.03 197.291 224.57C197.718 224.103 198.261 223.87 198.921 223.87C199.568 223.87 200.081 224.073 200.461 224.48C200.841 224.88 201.031 225.46 201.031 226.22C201.031 226.427 201.011 226.643 200.971 226.87H197.641C197.708 227.31 197.895 227.647 198.201 227.88C198.508 228.113 198.895 228.23 199.361 228.23C199.901 228.23 200.351 228.103 200.711 227.85ZM203.165 223.93V224.8C203.465 224.173 203.992 223.86 204.745 223.86C205.245 223.86 205.642 224.013 205.935 224.32C206.228 224.627 206.375 225.043 206.375 225.57V229H205.395V225.8C205.395 225.447 205.305 225.177 205.125 224.99C204.952 224.803 204.718 224.71 204.425 224.71C204.078 224.71 203.782 224.847 203.535 225.12C203.288 225.387 203.165 225.763 203.165 226.25V229H202.185V223.93H203.165ZM209.693 228.02C210.04 228.02 210.34 227.887 210.593 227.62C210.853 227.347 210.983 226.967 210.983 226.48C210.983 225.88 210.86 225.437 210.613 225.15C210.373 224.863 210.08 224.72 209.733 224.72C209.34 224.72 209.03 224.877 208.803 225.19C208.576 225.497 208.463 225.903 208.463 226.41C208.463 226.937 208.583 227.337 208.823 227.61C209.07 227.883 209.36 228.02 209.693 228.02ZM210.983 223.93H211.963V228.57C211.963 229.35 211.74 229.937 211.293 230.33C210.853 230.73 210.286 230.93 209.593 230.93C208.94 230.93 208.39 230.82 207.943 230.6V229.61C208.37 229.89 208.886 230.03 209.493 230.03C210.486 230.03 210.983 229.54 210.983 228.56V228.04C210.656 228.587 210.166 228.86 209.513 228.86C208.94 228.86 208.45 228.65 208.043 228.23C207.636 227.803 207.433 227.203 207.433 226.43C207.433 225.683 207.623 225.07 208.003 224.59C208.383 224.103 208.886 223.86 209.513 223.86C210.186 223.86 210.676 224.147 210.983 224.72V223.93ZM215.399 229.09C214.652 229.09 214.066 228.847 213.639 228.36C213.212 227.873 212.999 227.257 212.999 226.51C212.999 225.75 213.219 225.12 213.659 224.62C214.099 224.113 214.679 223.86 215.399 223.86C216.172 223.86 216.769 224.107 217.189 224.6C217.609 225.087 217.819 225.71 217.819 226.47C217.819 227.23 217.602 227.857 217.169 228.35C216.742 228.843 216.152 229.09 215.399 229.09ZM215.389 224.69C214.956 224.69 214.619 224.863 214.379 225.21C214.139 225.55 214.019 225.973 214.019 226.48C214.019 226.98 214.142 227.403 214.389 227.75C214.636 228.09 214.972 228.26 215.399 228.26C215.852 228.26 216.196 228.093 216.429 227.76C216.669 227.427 216.789 227.003 216.789 226.49C216.789 225.963 216.676 225.533 216.449 225.2C216.222 224.86 215.869 224.69 215.389 224.69ZM221.313 228.21C221.687 228.21 222 228.053 222.253 227.74C222.507 227.42 222.633 227.01 222.633 226.51C222.633 225.937 222.507 225.497 222.253 225.19C222 224.877 221.677 224.72 221.283 224.72C220.937 224.72 220.623 224.86 220.343 225.14C220.07 225.42 219.933 225.85 219.933 226.43C219.933 227.03 220.067 227.477 220.333 227.77C220.6 228.063 220.927 228.21 221.313 228.21ZM219.933 221.93V224.7C220.293 224.14 220.803 223.86 221.463 223.86C222.103 223.86 222.627 224.1 223.033 224.58C223.44 225.06 223.643 225.697 223.643 226.49C223.643 227.203 223.45 227.813 223.063 228.32C222.677 228.82 222.147 229.07 221.473 229.07C220.8 229.07 220.287 228.79 219.933 228.23V229H218.943V221.93H219.933ZM227.414 226.74H226.654C226.28 226.74 225.997 226.813 225.804 226.96C225.617 227.107 225.524 227.293 225.524 227.52C225.524 227.753 225.597 227.937 225.744 228.07C225.89 228.203 226.104 228.27 226.384 228.27C226.704 228.27 226.954 228.183 227.134 228.01C227.32 227.83 227.414 227.597 227.414 227.31V226.74ZM224.864 225.14V224.19C225.257 223.963 225.777 223.85 226.424 223.85C227.75 223.85 228.414 224.493 228.414 225.78V229H227.444V228.4C227.184 228.827 226.727 229.04 226.074 229.04C225.594 229.04 225.207 228.903 224.914 228.63C224.627 228.35 224.484 227.997 224.484 227.57C224.484 227.083 224.667 226.707 225.034 226.44C225.4 226.167 225.914 226.03 226.574 226.03H227.414V225.74C227.414 225.393 227.33 225.133 227.164 224.96C226.997 224.78 226.72 224.69 226.334 224.69C225.794 224.69 225.304 224.84 224.864 225.14ZM231.004 224.69V227.48C231.004 227.967 231.237 228.21 231.704 228.21C231.977 228.21 232.207 228.137 232.394 227.99V228.87C232.174 228.99 231.904 229.05 231.584 229.05C230.537 229.05 230.014 228.52 230.014 227.46V224.69H229.224V223.93H230.014V222.69H231.004V223.93H232.334V224.69H231.004ZM236.144 226.74H235.384C235.011 226.74 234.728 226.813 234.534 226.96C234.348 227.107 234.254 227.293 234.254 227.52C234.254 227.753 234.328 227.937 234.474 228.07C234.621 228.203 234.834 228.27 235.114 228.27C235.434 228.27 235.684 228.183 235.864 228.01C236.051 227.83 236.144 227.597 236.144 227.31V226.74ZM233.594 225.14V224.19C233.988 223.963 234.508 223.85 235.154 223.85C236.481 223.85 237.144 224.493 237.144 225.78V229H236.174V228.4C235.914 228.827 235.458 229.04 234.804 229.04C234.324 229.04 233.938 228.903 233.644 228.63C233.358 228.35 233.214 227.997 233.214 227.57C233.214 227.083 233.398 226.707 233.764 226.44C234.131 226.167 234.644 226.03 235.304 226.03H236.144V225.74C236.144 225.393 236.061 225.133 235.894 224.96C235.728 224.78 235.451 224.69 235.064 224.69C234.524 224.69 234.034 224.84 233.594 225.14ZM239.444 223.93V224.8C239.744 224.173 240.271 223.86 241.024 223.86C241.524 223.86 241.921 224.013 242.214 224.32C242.508 224.627 242.654 225.043 242.654 225.57V229H241.674V225.8C241.674 225.447 241.584 225.177 241.404 224.99C241.231 224.803 240.998 224.71 240.704 224.71C240.358 224.71 240.061 224.847 239.814 225.12C239.568 225.387 239.444 225.763 239.444 226.25V229H238.464V223.93H239.444ZM158.803 242.49H160.963L160.853 242.15C160.6 241.363 160.393 240.713 160.233 240.2C160.073 239.68 159.976 239.357 159.943 239.23L159.893 239.04C159.82 239.353 159.493 240.39 158.913 242.15L158.803 242.49ZM161.773 245L161.243 243.35H158.523L157.983 245H156.893L159.223 238.26H160.573L162.873 245H161.773ZM164.855 239.93V240.8C165.155 240.173 165.681 239.86 166.435 239.86C166.935 239.86 167.331 240.013 167.625 240.32C167.918 240.627 168.065 241.043 168.065 241.57V245H167.085V241.8C167.085 241.447 166.995 241.177 166.815 240.99C166.641 240.803 166.408 240.71 166.115 240.71C165.768 240.71 165.471 240.847 165.225 241.12C164.978 241.387 164.855 241.763 164.855 242.25V245H163.875V239.93H164.855ZM171.432 244.21C171.819 244.21 172.146 244.063 172.412 243.77C172.679 243.477 172.812 243.03 172.812 242.43C172.812 241.85 172.672 241.42 172.392 241.14C172.119 240.86 171.809 240.72 171.462 240.72C171.069 240.72 170.746 240.877 170.492 241.19C170.239 241.497 170.112 241.937 170.112 242.51C170.112 243.017 170.236 243.427 170.482 243.74C170.736 244.053 171.052 244.21 171.432 244.21ZM172.812 237.93H173.802V245H172.812V244.23C172.459 244.79 171.942 245.07 171.262 245.07C170.596 245.07 170.069 244.82 169.682 244.32C169.296 243.813 169.102 243.203 169.102 242.49C169.102 241.697 169.306 241.06 169.712 240.58C170.119 240.1 170.642 239.86 171.282 239.86C171.942 239.86 172.452 240.14 172.812 240.7V237.93ZM177.853 242.74H177.093C176.72 242.74 176.436 242.813 176.243 242.96C176.056 243.107 175.963 243.293 175.963 243.52C175.963 243.753 176.036 243.937 176.183 244.07C176.33 244.203 176.543 244.27 176.823 244.27C177.143 244.27 177.393 244.183 177.573 244.01C177.76 243.83 177.853 243.597 177.853 243.31V242.74ZM175.303 241.14V240.19C175.696 239.963 176.216 239.85 176.863 239.85C178.19 239.85 178.853 240.493 178.853 241.78V245H177.883V244.4C177.623 244.827 177.166 245.04 176.513 245.04C176.033 245.04 175.646 244.903 175.353 244.63C175.066 244.35 174.923 243.997 174.923 243.57C174.923 243.083 175.106 242.707 175.473 242.44C175.84 242.167 176.353 242.03 177.013 242.03H177.853V241.74C177.853 241.393 177.77 241.133 177.603 240.96C177.436 240.78 177.16 240.69 176.773 240.69C176.233 240.69 175.743 240.84 175.303 241.14ZM179.963 244.88C179.837 244.747 179.773 244.587 179.773 244.4C179.773 244.213 179.837 244.057 179.963 243.93C180.097 243.797 180.26 243.73 180.453 243.73C180.64 243.73 180.797 243.797 180.923 243.93C181.057 244.057 181.123 244.213 181.123 244.4C181.123 244.587 181.057 244.747 180.923 244.88C180.797 245.013 180.64 245.08 180.453 245.08C180.26 245.08 180.097 245.013 179.963 244.88Z" fill="#2B2B2B"/>
<rect x="109" y="275" width="120" height="24" rx="8" fill="#FF1934"/>
<path d="M155.22 285.856L155.22 288.448L155.212 288.448L155.22 288.536C154.729 288.888 154.116 289.064 153.38 289.064C152.526 289.064 151.836 288.816 151.308 288.32C150.785 287.824 150.524 287.149 150.524 286.296C150.524 285.464 150.793 284.792 151.332 284.28C151.876 283.768 152.561 283.512 153.388 283.512C154.001 283.512 154.526 283.627 154.964 283.856L154.964 284.888C154.473 284.595 153.953 284.448 153.404 284.448C152.865 284.448 152.43 284.616 152.1 284.952C151.769 285.288 151.604 285.736 151.604 286.296C151.604 286.867 151.764 287.317 152.084 287.648C152.409 287.973 152.854 288.136 153.42 288.136C153.697 288.136 153.966 288.088 154.228 287.992L154.228 286.72L153.236 286.72L153.236 285.856L155.22 285.856ZM159.463 286.936L159.463 283.608L160.471 283.608L160.471 286.928C160.471 287.627 160.281 288.16 159.903 288.528C159.529 288.891 159.015 289.072 158.359 289.072C157.719 289.072 157.207 288.893 156.823 288.536C156.444 288.173 156.255 287.656 156.255 286.984L156.255 283.608L157.263 283.608L157.263 286.976C157.263 287.387 157.364 287.685 157.567 287.872C157.769 288.053 158.033 288.144 158.359 288.144C159.095 288.144 159.463 287.741 159.463 286.936ZM161.56 289L161.56 283.608L162.704 283.608L164 285.856C164.213 286.224 164.403 286.568 164.568 286.888C164.739 287.203 164.853 287.427 164.912 287.56L165 287.76C164.957 287.317 164.936 286.683 164.936 285.856L164.936 283.608L165.952 283.608L165.952 289L164.8 289L163.488 286.76C163.28 286.408 163.091 286.072 162.92 285.752C162.755 285.427 162.64 285.192 162.576 285.048L162.48 284.824C162.539 285.331 162.568 285.973 162.568 286.752L162.568 289L161.56 289ZM168.436 286.952L169.956 286.952L169.884 286.712C169.702 286.136 169.553 285.653 169.436 285.264C169.324 284.869 169.254 284.621 169.228 284.52L169.196 284.36C169.148 284.627 168.918 285.413 168.508 286.72L168.436 286.952ZM170.596 289L170.212 287.776L168.172 287.776L167.788 289L166.732 289L168.556 283.608L169.86 283.608L171.684 289L170.596 289ZM172.458 289L172.458 283.608L173.466 283.608L173.466 289L172.458 289ZM174.746 286.312L176.754 289L175.482 289L173.546 286.328L175.41 283.608L176.618 283.608L174.746 286.312ZM178.85 286.952L180.37 286.952L180.298 286.712C180.117 286.136 179.967 285.653 179.85 285.264C179.738 284.869 179.669 284.621 179.642 284.52L179.61 284.36C179.562 284.627 179.333 285.413 178.922 286.72L178.85 286.952ZM181.01 289L180.626 287.776L178.586 287.776L178.202 289L177.146 289L178.97 283.608L180.274 283.608L182.098 289L181.01 289ZM182.873 289L182.873 283.608L184.017 283.608L185.313 285.856C185.526 286.224 185.715 286.568 185.881 286.888C186.051 287.203 186.166 287.427 186.225 287.56L186.313 287.76C186.27 287.317 186.249 286.683 186.249 285.856L186.249 283.608L187.265 283.608L187.265 289L186.113 289L184.801 286.76C184.593 286.408 184.403 286.072 184.233 285.752C184.067 285.427 183.953 285.192 183.889 285.048L183.793 284.824C183.851 285.331 183.881 285.973 183.881 286.752L183.881 289L182.873 289Z" fill="white"/>
<path d="M9 341.5H329C333.694 341.5 337.5 345.306 337.5 350C337.5 354.694 333.694 358.5 329 358.5H9C4.30558 358.5 0.5 354.694 0.5 350C0.500002 345.306 4.30558 341.5 9 341.5Z" fill="white"/>
<path d="M9 341.5H329C333.694 341.5 337.5 345.306 337.5 350C337.5 354.694 333.694 358.5 329 358.5H9C4.30558 358.5 0.5 354.694 0.5 350C0.500002 345.306 4.30558 341.5 9 341.5Z" stroke="#CCCCCC"/>
<path d="M7.86805e-07 350C3.52265e-07 345.029 4.02944 341 9 341L39 341C43.9706 341 48 345.029 48 350C48 354.971 43.9706 359 39 359L9 359C4.02944 359 1.22135e-06 354.971 7.86805e-07 350Z" fill="#FF1934"/>
<path d="M15.448 346.688H16.264L16.816 348.6L17.456 350.92C17.5893 350.179 17.7547 349.403 17.952 348.592L18.44 346.608H19.464L18.088 352H16.92L16.432 350.296C16.2987 349.843 16.184 349.443 16.088 349.096C15.9973 348.749 15.936 348.517 15.904 348.4L15.864 348.216C15.7893 348.589 15.6027 349.283 15.304 350.296L14.8 352H13.64L12.2 346.608H13.264L13.768 348.6C13.8533 348.957 13.9387 349.328 14.024 349.712C14.1093 350.096 14.1733 350.389 14.216 350.592L14.28 350.904C14.4507 350.232 14.6587 349.464 14.904 348.6L15.448 346.688ZM22.2561 350.256H21.7601C21.5094 350.256 21.3174 350.309 21.1841 350.416C21.0507 350.517 20.9841 350.648 20.9841 350.808C20.9841 351.149 21.1814 351.32 21.5761 351.32C21.7894 351.32 21.9547 351.259 22.0721 351.136C22.1947 351.008 22.2561 350.843 22.2561 350.64V350.256ZM20.2881 349.04V348.152C20.5921 347.965 21.0294 347.872 21.6001 347.872C22.6987 347.872 23.2481 348.384 23.2481 349.408V352H22.2961V351.512C22.1094 351.859 21.7574 352.032 21.2401 352.032C20.8561 352.032 20.5494 351.92 20.3201 351.696C20.0961 351.472 19.9841 351.189 19.9841 350.848C19.9841 350.464 20.1281 350.163 20.4161 349.944C20.7041 349.725 21.1201 349.616 21.6641 349.616H22.2561V349.368C22.2561 349.144 22.1974 348.973 22.0801 348.856C21.9627 348.739 21.7627 348.68 21.4801 348.68C21.0481 348.68 20.6507 348.8 20.2881 349.04ZM27.7828 352H26.6548L25.1988 349.904V352H24.2388V346.44H25.1988V349.848L26.6308 347.944H27.7508L26.2628 349.88L27.7828 352ZM29.5864 348.664V350.728C29.5864 350.899 29.6318 351.029 29.7224 351.12C29.8131 351.205 29.9384 351.248 30.0984 351.248C30.3011 351.248 30.4878 351.192 30.6584 351.08V351.904C30.4718 351.995 30.2318 352.04 29.9384 352.04C29.0638 352.04 28.6264 351.597 28.6264 350.712V348.664H28.0184V347.944H28.6264V346.968H29.5864V347.944H30.5944V348.664H29.5864ZM33.9617 347.944H34.9297V352H33.9617V351.336C33.7484 351.805 33.3324 352.04 32.7137 352.04C32.303 352.04 31.983 351.923 31.7537 351.688C31.5244 351.453 31.4097 351.12 31.4097 350.688V347.944H32.3697V350.464C32.3697 350.72 32.431 350.915 32.5537 351.048C32.6817 351.181 32.855 351.248 33.0737 351.248C33.351 351.248 33.567 351.155 33.7217 350.968C33.8817 350.781 33.9617 350.499 33.9617 350.12V347.944Z" fill="white"/>
<rect x="56" y="348" width="274" height="4" rx="2" fill="#CCCCCC"/>
<mask id="mask0_1124_4113" style="mask-type:alpha" maskUnits="userSpaceOnUse" x="56" y="348" width="274" height="4">
<rect x="56" y="348" width="274" height="4" rx="2" fill="#CCCCCC"/>
</mask>
<g mask="url(#mask0_1124_4113)">
<rect x="56" y="348" width="274" height="4" rx="2" fill="#FF1934"/>
</g>
<defs>
<filter id="filter0_d_1124_4113" x="5" y="48" width="328" height="56" filterUnits="userSpaceOnUse" color-interpolation-filters="sRGB">
<feFlood flood-opacity="0" result="BackgroundImageFix"/>
<feColorMatrix in="SourceAlpha" type="matrix" values="0 0 0 0 0 0 0 0 0 0 0 0 0 0 0 0 0 0 127 0" result="hardAlpha"/>
<feOffset dy="2"/>
<feGaussianBlur stdDeviation="2"/>
<feComposite in2="hardAlpha" operator="out"/>
<feColorMatrix type="matrix" values="0 0 0 0 0.168627 0 0 0 0 0.168627 0 0 0 0 0.168627 0 0 0 0.24 0"/>
<feBlend mode="normal" in2="BackgroundImageFix" result="effect1_dropShadow_1124_4113"/>
<feBlend mode="normal" in="SourceGraphic" in2="effect1_dropShadow_1124_4113" result="shape"/>
</filter>
<clipPath id="clip0_1124_4113">
<rect width="24" height="24" fill="white" transform="translate(25 66)"/>
</clipPath>
<clipPath id="clip1_1124_4113">
<rect width="64" height="64" fill="white" transform="translate(137 130)"/>
</clipPath>
</defs>
</svg>
