<svg width="508" height="312" viewBox="0 0 508 312" fill="none" xmlns="http://www.w3.org/2000/svg">
<rect width="508" height="312" fill="#D3D3D3"/>
<rect width="508" height="312" rx="16" fill="white"/>
<g filter="url(#filter0_d_1124_4113)">
<path d="M0 16C0 7.16344 7.16344 0 16 0H492C500.837 0 508 7.16344 508 16V48H0V16Z" fill="#FF1934" shape-rendering="crispEdges"/>
<g clip-path="url(#clip0_1124_4113)">
<path d="M37.2 36C36.21 36 35.4 35.19 35.4 34.2V27.78C35.4 27.34 35.04 26.98 34.6 26.98C34.16 26.98 33.8 27.34 33.8 27.78V34.2C33.8 35.19 32.99 36 32 36H30.6C29.61 36 28.8 35.19 28.8 34.2V22.73C28.8 22.29 28.44 21.93 28 21.93C27.56 21.93 27.2 22.29 27.2 22.73V34.2C27.2 35.19 26.39 36 25.4 36H24C23.01 36 22.2 35.19 22.2 34.2V30.66C22.2 30.22 21.84 29.86 21.4 29.86C20.96 29.86 20.6 30.22 20.6 30.66V34.2C20.6 35.19 19.79 36 18.8 36C18.36 36 18 35.64 18 35.2C18 34.76 18.36 34.4 18.8 34.4C18.91 34.4 19 34.31 19 34.2V30.66C19 29.34 20.08 28.26 21.4 28.26C22.72 28.26 23.8 29.34 23.8 30.66V34.2C23.8 34.31 23.89 34.4 24 34.4H25.4C25.51 34.4 25.6 34.31 25.6 34.2V22.73C25.6 21.41 26.68 20.33 28 20.33C29.32 20.33 30.4 21.41 30.4 22.73V34.2C30.4 34.31 30.49 34.4 30.6 34.4H32C32.11 34.4 32.2 34.31 32.2 34.2V27.78C32.2 26.46 33.28 25.38 34.6 25.38C35.92 25.38 37 26.46 37 27.78V34.2C37 34.31 37.09 34.4 37.2 34.4C37.64 34.4 38 34.76 38 35.2C38 35.64 37.64 36 37.2 36Z" fill="white"/>
</g>
<path d="M51.066 27.24H51.78C52.9187 27.24 53.488 26.722 53.488 25.686C53.488 24.7527 52.9607 24.286 51.906 24.286H51.066V27.24ZM48.91 22.564H52.158C53.2033 22.564 54.048 22.858 54.692 23.446C55.3453 24.034 55.672 24.7807 55.672 25.686C55.672 26.722 55.3313 27.5247 54.65 28.094C53.978 28.6633 53.1473 28.948 52.158 28.948H51.066V32H48.91V22.564ZM60.2427 29.088H59.5847C59.2393 29.088 58.9733 29.1627 58.7867 29.312C58.6 29.4613 58.5067 29.6527 58.5067 29.886C58.5067 30.362 58.782 30.6 59.3327 30.6C59.622 30.6 59.846 30.5113 60.0047 30.334C60.1633 30.1567 60.2427 29.914 60.2427 29.606V29.088ZM56.9247 27.086V25.252C57.4847 24.9347 58.292 24.776 59.3467 24.776C60.3547 24.776 61.106 24.9953 61.6007 25.434C62.0953 25.8633 62.3427 26.5353 62.3427 27.45V32H60.3407V31.132C60.042 31.7387 59.454 32.042 58.5767 32.042C57.886 32.042 57.3447 31.846 56.9527 31.454C56.57 31.062 56.3787 30.572 56.3787 29.984C56.3787 29.3027 56.626 28.7753 57.1207 28.402C57.6247 28.0193 58.3667 27.828 59.3467 27.828H60.2427V27.338C60.2427 26.7407 59.846 26.442 59.0527 26.442C58.2873 26.442 57.578 26.6567 56.9247 27.086ZM67.5874 30.376C68.0354 30.376 68.3994 30.208 68.6794 29.872C68.9594 29.5267 69.0994 29.06 69.0994 28.472C69.0994 27.828 68.9548 27.3427 68.6654 27.016C68.3854 26.68 68.0261 26.512 67.5874 26.512C67.1581 26.512 66.7848 26.6753 66.4674 27.002C66.1501 27.3287 65.9914 27.786 65.9914 28.374C65.9914 28.9807 66.1408 29.466 66.4394 29.83C66.7381 30.194 67.1208 30.376 67.5874 30.376ZM65.9914 24.902V25.994C66.4861 25.21 67.2001 24.818 68.1334 24.818C69.0481 24.818 69.7808 25.1447 70.3314 25.798C70.8914 26.442 71.1714 27.3193 71.1714 28.43C71.1714 29.4847 70.9008 30.3573 70.3594 31.048C69.8274 31.7387 69.0854 32.084 68.1334 32.084C67.1721 32.084 66.4581 31.706 65.9914 30.95V34.618H63.9474V24.902H65.9914ZM76.02 29.088H75.362C75.0167 29.088 74.7507 29.1627 74.564 29.312C74.3773 29.4613 74.284 29.6527 74.284 29.886C74.284 30.362 74.5593 30.6 75.11 30.6C75.3993 30.6 75.6233 30.5113 75.782 30.334C75.9407 30.1567 76.02 29.914 76.02 29.606V29.088ZM72.702 27.086V25.252C73.262 24.9347 74.0693 24.776 75.124 24.776C76.132 24.776 76.8833 24.9953 77.378 25.434C77.8727 25.8633 78.12 26.5353 78.12 27.45V32H76.118V31.132C75.8193 31.7387 75.2313 32.042 74.354 32.042C73.6633 32.042 73.122 31.846 72.73 31.454C72.3473 31.062 72.156 30.572 72.156 29.984C72.156 29.3027 72.4033 28.7753 72.898 28.402C73.402 28.0193 74.144 27.828 75.124 27.828H76.02V27.338C76.02 26.7407 75.6233 26.442 74.83 26.442C74.0647 26.442 73.3553 26.6567 72.702 27.086ZM81.7688 24.902V26.106C81.9461 25.714 82.2168 25.406 82.5808 25.182C82.9541 24.9487 83.3974 24.832 83.9108 24.832C84.6388 24.832 85.2081 25.0513 85.6188 25.49C86.0294 25.9193 86.2348 26.554 86.2348 27.394V32H84.1908V27.772C84.1908 27.352 84.0928 27.0347 83.8968 26.82C83.7008 26.596 83.4254 26.484 83.0708 26.484C82.6974 26.484 82.3848 26.6333 82.1328 26.932C81.8901 27.2213 81.7688 27.66 81.7688 28.248V32H79.7248V24.902H81.7688ZM93.5719 27.24H94.2859C95.4245 27.24 95.9939 26.722 95.9939 25.686C95.9939 24.7527 95.4665 24.286 94.4119 24.286H93.5719V27.24ZM91.4159 22.564H94.6639C95.7092 22.564 96.5539 22.858 97.1979 23.446C97.8512 24.034 98.1779 24.7807 98.1779 25.686C98.1779 26.722 97.8372 27.5247 97.1559 28.094C96.4839 28.6633 95.6532 28.948 94.6639 28.948H93.5719V32H91.4159V22.564ZM103.337 27.8V27.632C103.271 26.8013 102.907 26.386 102.245 26.386C101.918 26.386 101.629 26.5073 101.377 26.75C101.125 26.9833 100.957 27.3333 100.873 27.8H103.337ZM104.807 29.886V31.594C104.321 31.9113 103.579 32.07 102.581 32.07C101.414 32.07 100.504 31.734 99.8505 31.062C99.2065 30.3807 98.8845 29.508 98.8845 28.444C98.8845 27.3147 99.1972 26.4327 99.8225 25.798C100.457 25.154 101.237 24.832 102.161 24.832C103.113 24.832 103.864 25.112 104.415 25.672C104.965 26.2227 105.241 27.0487 105.241 28.15C105.241 28.3647 105.203 28.7333 105.129 29.256H100.957C101.097 29.648 101.339 29.9513 101.685 30.166C102.03 30.3807 102.445 30.488 102.931 30.488C103.649 30.488 104.275 30.2873 104.807 29.886ZM108.729 24.902V26.218C108.86 25.8073 109.075 25.4807 109.373 25.238C109.681 24.986 110.036 24.86 110.437 24.86C110.661 24.86 110.839 24.8787 110.969 24.916V26.848C110.745 26.7453 110.489 26.694 110.199 26.694C109.761 26.694 109.406 26.8573 109.135 27.184C108.865 27.5013 108.729 27.926 108.729 28.458V32H106.685L106.699 24.902H108.729ZM111.951 32V24.902H113.995V32H111.951ZM112.133 23.684C111.9 23.4507 111.783 23.1707 111.783 22.844C111.783 22.5173 111.9 22.2373 112.133 22.004C112.366 21.7707 112.646 21.654 112.973 21.654C113.3 21.654 113.58 21.7707 113.813 22.004C114.046 22.2373 114.163 22.5173 114.163 22.844C114.163 23.1707 114.046 23.4507 113.813 23.684C113.58 23.9173 113.3 24.034 112.973 24.034C112.646 24.034 112.366 23.9173 112.133 23.684ZM117.794 24.902V26.106C117.971 25.714 118.242 25.406 118.606 25.182C118.979 24.9487 119.423 24.832 119.936 24.832C120.664 24.832 121.233 25.0513 121.644 25.49C122.055 25.9193 122.26 26.554 122.26 27.394V32H120.216V27.772C120.216 27.352 120.118 27.0347 119.922 26.82C119.726 26.596 119.451 26.484 119.096 26.484C118.723 26.484 118.41 26.6333 118.158 26.932C117.915 27.2213 117.794 27.66 117.794 28.248V32H115.75V24.902H117.794ZM127.021 30.138C127.46 30.138 127.801 29.9747 128.043 29.648C128.295 29.312 128.421 28.9107 128.421 28.444C128.421 27.1747 127.959 26.54 127.035 26.54C126.625 26.54 126.303 26.6987 126.069 27.016C125.836 27.3333 125.719 27.772 125.719 28.332C125.719 28.92 125.831 29.368 126.055 29.676C126.279 29.984 126.601 30.138 127.021 30.138ZM128.421 24.902H130.451V31.314C130.451 32.4527 130.111 33.3067 129.429 33.876C128.748 34.4547 127.894 34.744 126.867 34.744C125.869 34.744 124.996 34.5667 124.249 34.212V32.126C124.903 32.6487 125.705 32.91 126.657 32.91C127.273 32.91 127.721 32.7793 128.001 32.518C128.281 32.2567 128.421 31.846 128.421 31.286V30.81C128.011 31.4447 127.357 31.762 126.461 31.762C125.677 31.762 125.001 31.4727 124.431 30.894C123.871 30.3153 123.591 29.4567 123.591 28.318C123.591 27.31 123.862 26.4793 124.403 25.826C124.954 25.1633 125.673 24.832 126.559 24.832C127.399 24.832 128.02 25.168 128.421 25.84V24.902ZM138.739 32H136.373L134.105 28.514V32H132.061V22.34H134.105V28.08L136.345 24.902H138.697L136.233 28.304L138.739 32ZM143.245 29.088H142.587C142.241 29.088 141.975 29.1627 141.789 29.312C141.602 29.4613 141.509 29.6527 141.509 29.886C141.509 30.362 141.784 30.6 142.335 30.6C142.624 30.6 142.848 30.5113 143.007 30.334C143.165 30.1567 143.245 29.914 143.245 29.606V29.088ZM139.927 27.086V25.252C140.487 24.9347 141.294 24.776 142.349 24.776C143.357 24.776 144.108 24.9953 144.603 25.434C145.097 25.8633 145.345 26.5353 145.345 27.45V32H143.343V31.132C143.044 31.7387 142.456 32.042 141.579 32.042C140.888 32.042 140.347 31.846 139.955 31.454C139.572 31.062 139.381 30.572 139.381 29.984C139.381 29.3027 139.628 28.7753 140.123 28.402C140.627 28.0193 141.369 27.828 142.349 27.828H143.245V27.338C143.245 26.7407 142.848 26.442 142.055 26.442C141.289 26.442 140.58 26.6567 139.927 27.086ZM149.315 26.4V29.662C149.315 29.914 149.385 30.1053 149.525 30.236C149.675 30.3667 149.866 30.432 150.099 30.432C150.473 30.432 150.804 30.3387 151.093 30.152V31.846C150.748 31.9953 150.281 32.07 149.693 32.07C148.079 32.07 147.271 31.2627 147.271 29.648V26.4H146.249V24.902H147.271V23.222H149.315V24.902H150.967V26.4H149.315Z" fill="white"/>
<path d="M480 14C480 6.26801 486.268 -5.47967e-07 494 -1.22392e-06C501.732 -1.89987e-06 508 6.26801 508 14C508 21.732 501.732 28 494 28C486.268 28 480 21.732 480 14Z" fill="#FF1934"/>
<g clip-path="url(#clip1_1124_4113)">
<path d="M498.21 9.41C497.88 9.11 497.38 9.13 497.08 9.46L494 12.82L490.92 9.46C490.62 9.13 490.11 9.11 489.79 9.41C489.46 9.71 489.44 10.21 489.74 10.54L492.91 14L489.74 17.46C489.44 17.79 489.46 18.29 489.79 18.59C489.94 18.73 490.14 18.8 490.33 18.8C490.55 18.8 490.76 18.71 490.92 18.54L494 15.18L497.08 18.54C497.24 18.71 497.45 18.8 497.67 18.8C497.86 18.8 498.06 18.73 498.21 18.59C498.54 18.29 498.56 17.79 498.26 17.46L495.09 14L498.26 10.54C498.56 10.21 498.54 9.71 498.21 9.41Z" fill="white"/>
<path d="M494 4C488.49 4 484 8.49 484 14C484 19.51 488.49 24 494 24C499.51 24 504 19.51 504 14C504 8.49 499.51 4 494 4ZM494 22.4C489.37 22.4 485.6 18.63 485.6 14C485.6 9.37 489.37 5.6 494 5.6C498.63 5.6 502.4 9.37 502.4 14C502.4 18.63 498.63 22.4 494 22.4Z" fill="white"/>
</g>
</g>
<path d="M50.3 64.51V65.36C49.8933 65.0933 49.4067 64.96 48.84 64.96C48.4333 64.96 48.11 65.0567 47.87 65.25C47.63 65.4367 47.51 65.6833 47.51 65.99C47.51 66.15 47.54 66.2933 47.6 66.42C47.6667 66.5467 47.78 66.6667 47.94 66.78C48.1 66.8867 48.2367 66.97 48.35 67.03C48.4633 67.0833 48.64 67.1633 48.88 67.27C49.1067 67.37 49.28 67.45 49.4 67.51C49.52 67.5633 49.6733 67.6533 49.86 67.78C50.0533 67.9 50.1967 68.02 50.29 68.14C50.39 68.2533 50.4767 68.4067 50.55 68.6C50.63 68.7867 50.67 68.99 50.67 69.21C50.67 69.8033 50.4667 70.2633 50.06 70.59C49.6533 70.91 49.13 71.07 48.49 71.07C47.7833 71.07 47.1833 70.9267 46.69 70.64V69.77C47.1767 70.1367 47.77 70.32 48.47 70.32C48.89 70.32 49.22 70.2267 49.46 70.04C49.7 69.8533 49.82 69.5833 49.82 69.23C49.82 69.0833 49.79 68.9533 49.73 68.84C49.6767 68.72 49.5833 68.6133 49.45 68.52C49.3233 68.42 49.2 68.34 49.08 68.28C48.9667 68.2133 48.81 68.1333 48.61 68.04C48.57 68.02 48.51 67.9933 48.43 67.96C48.1433 67.8333 47.9233 67.73 47.77 67.65C47.6233 67.57 47.4467 67.4533 47.24 67.3C47.04 67.14 46.8933 66.9567 46.8 66.75C46.7067 66.5433 46.66 66.3033 46.66 66.03C46.66 65.4567 46.8633 65.01 47.27 64.69C47.6833 64.3633 48.2 64.2 48.82 64.2C49.4 64.2 49.8933 64.3033 50.3 64.51ZM55.2041 68.14V67.94C55.2041 67.52 55.0908 67.1867 54.8641 66.94C54.6375 66.6867 54.3241 66.56 53.9241 66.56C53.5441 66.56 53.2208 66.6967 52.9541 66.97C52.6875 67.2433 52.5308 67.6333 52.4841 68.14H55.2041ZM55.6741 70V70.74C55.2808 70.9467 54.8008 71.05 54.2341 71.05C53.4675 71.05 52.8475 70.8167 52.3741 70.35C51.9075 69.8767 51.6741 69.2533 51.6741 68.48C51.6741 67.6733 51.8841 67.0367 52.3041 66.57C52.7241 66.1033 53.2641 65.87 53.9241 65.87C54.5575 65.87 55.0608 66.0733 55.4341 66.48C55.8075 66.8867 55.9941 67.4633 55.9941 68.21C55.9941 68.4233 55.9775 68.62 55.9441 68.8H52.4841C52.5441 69.3 52.7341 69.6833 53.0541 69.95C53.3741 70.2167 53.7941 70.35 54.3141 70.35C54.8808 70.35 55.3341 70.2333 55.6741 70ZM57.9788 65.93V66.82C58.2454 66.1933 58.7054 65.88 59.3588 65.88C59.4788 65.88 59.5721 65.8867 59.6388 65.9V66.68C59.4988 66.6333 59.3554 66.61 59.2088 66.61C58.8554 66.61 58.5621 66.7733 58.3288 67.1C58.0954 67.4267 57.9788 67.8033 57.9788 68.23V71H57.1888L57.1988 65.93H57.9788ZM61.7505 71L59.9805 65.93H60.8005L61.5005 68.07L62.2405 70.38C62.3005 70.0933 62.5505 69.3233 62.9905 68.07L63.7105 65.93H64.5305L62.7205 71H61.7505ZM68.7393 68.14V67.94C68.7393 67.52 68.626 67.1867 68.3993 66.94C68.1726 66.6867 67.8593 66.56 67.4593 66.56C67.0793 66.56 66.756 66.6967 66.4893 66.97C66.2226 67.2433 66.066 67.6333 66.0193 68.14H68.7393ZM69.2093 70V70.74C68.816 70.9467 68.336 71.05 67.7693 71.05C67.0026 71.05 66.3826 70.8167 65.9093 70.35C65.4426 69.8767 65.2093 69.2533 65.2093 68.48C65.2093 67.6733 65.4193 67.0367 65.8393 66.57C66.2593 66.1033 66.7993 65.87 67.4593 65.87C68.0926 65.87 68.596 66.0733 68.9693 66.48C69.3426 66.8867 69.5293 67.4633 69.5293 68.21C69.5293 68.4233 69.5126 68.62 69.4793 68.8H66.0193C66.0793 69.3 66.2693 69.6833 66.5893 69.95C66.9093 70.2167 67.3293 70.35 67.8493 70.35C68.416 70.35 68.8693 70.2333 69.2093 70ZM71.5139 65.93V66.82C71.7806 66.1933 72.2406 65.88 72.8939 65.88C73.0139 65.88 73.1072 65.8867 73.1739 65.9V66.68C73.0339 66.6333 72.8906 66.61 72.7439 66.61C72.3906 66.61 72.0972 66.7733 71.8639 67.1C71.6306 67.4267 71.5139 67.8033 71.5139 68.23V71H70.7239L70.7339 65.93H71.5139Z" fill="#2B2B2B"/>
<rect width="88" height="24" transform="translate(108 56)" fill="url(#paint0_linear_1124_4113)"/>
<path d="M143.65 67.15V70.38H143.64L143.65 70.45C143.07 70.87 142.343 71.08 141.47 71.08C140.417 71.08 139.567 70.77 138.92 70.15C138.28 69.53 137.96 68.6867 137.96 67.62C137.96 66.5867 138.283 65.75 138.93 65.11C139.583 64.4633 140.41 64.14 141.41 64.14C142.19 64.14 142.843 64.29 143.37 64.59V65.65C142.797 65.29 142.157 65.11 141.45 65.11C140.73 65.11 140.147 65.34 139.7 65.8C139.26 66.26 139.04 66.8667 139.04 67.62C139.04 68.3933 139.257 69.0033 139.69 69.45C140.13 69.8967 140.733 70.12 141.5 70.12C141.9 70.12 142.28 70.0467 142.64 69.9V68.04H141.27V67.15H143.65ZM145.037 71V63.93H146.027V71H145.037ZM149.568 71.09C148.821 71.09 148.234 70.8467 147.808 70.36C147.381 69.8733 147.168 69.2567 147.168 68.51C147.168 67.75 147.388 67.12 147.828 66.62C148.268 66.1133 148.848 65.86 149.568 65.86C150.341 65.86 150.938 66.1067 151.358 66.6C151.778 67.0867 151.988 67.71 151.988 68.47C151.988 69.23 151.771 69.8567 151.338 70.35C150.911 70.8433 150.321 71.09 149.568 71.09ZM149.558 66.69C149.124 66.69 148.788 66.8633 148.548 67.21C148.308 67.55 148.188 67.9733 148.188 68.48C148.188 68.98 148.311 69.4033 148.558 69.75C148.804 70.09 149.141 70.26 149.568 70.26C150.021 70.26 150.364 70.0933 150.598 69.76C150.838 69.4267 150.958 69.0033 150.958 68.49C150.958 67.9633 150.844 67.5333 150.618 67.2C150.391 66.86 150.038 66.69 149.558 66.69ZM155.482 70.21C155.856 70.21 156.169 70.0533 156.422 69.74C156.676 69.42 156.802 69.01 156.802 68.51C156.802 67.9367 156.676 67.4967 156.422 67.19C156.169 66.8767 155.846 66.72 155.452 66.72C155.106 66.72 154.792 66.86 154.512 67.14C154.239 67.42 154.102 67.85 154.102 68.43C154.102 69.03 154.236 69.4767 154.502 69.77C154.769 70.0633 155.096 70.21 155.482 70.21ZM154.102 63.93V66.7C154.462 66.14 154.972 65.86 155.632 65.86C156.272 65.86 156.796 66.1 157.202 66.58C157.609 67.06 157.812 67.6967 157.812 68.49C157.812 69.2033 157.619 69.8133 157.232 70.32C156.846 70.82 156.316 71.07 155.642 71.07C154.969 71.07 154.456 70.79 154.102 70.23V71H153.112V63.93H154.102ZM161.583 68.74H160.823C160.449 68.74 160.166 68.8133 159.973 68.96C159.786 69.1067 159.693 69.2933 159.693 69.52C159.693 69.7533 159.766 69.9367 159.913 70.07C160.059 70.2033 160.273 70.27 160.553 70.27C160.873 70.27 161.123 70.1833 161.303 70.01C161.489 69.83 161.583 69.5967 161.583 69.31V68.74ZM159.033 67.14V66.19C159.426 65.9633 159.946 65.85 160.593 65.85C161.919 65.85 162.583 66.4933 162.583 67.78V71H161.613V70.4C161.353 70.8267 160.896 71.04 160.243 71.04C159.763 71.04 159.376 70.9033 159.083 70.63C158.796 70.35 158.653 69.9967 158.653 69.57C158.653 69.0833 158.836 68.7067 159.203 68.44C159.569 68.1667 160.083 68.03 160.743 68.03H161.583V67.74C161.583 67.3933 161.499 67.1333 161.333 66.96C161.166 66.78 160.889 66.69 160.503 66.69C159.963 66.69 159.473 66.84 159.033 67.14ZM163.943 71V63.93H164.933V71H163.943Z" fill="#FF1934"/>
<mask id="path-10-inside-1_1124_4113" fill="white">
<path d="M0 80H508V306H0V80Z"/>
</mask>
<path d="M0 81H508V79H0V81Z" fill="#FF1934" mask="url(#path-10-inside-1_1124_4113)"/>
<g filter="url(#filter1_d_1124_4113)">
<path d="M16 100C16 95.5817 19.5817 92 24 92H130C130 105.255 119.255 116 106 116H16V100Z" fill="#FF1934" shape-rendering="crispEdges"/>
<path d="M33.96 103.69H34.67C35.13 103.69 35.4733 103.58 35.7 103.36C35.9267 103.14 36.04 102.843 36.04 102.47C36.04 102.103 35.9267 101.817 35.7 101.61C35.4733 101.397 35.14 101.29 34.7 101.29H33.96V103.69ZM32.7 100.26H34.81C35.57 100.26 36.1767 100.467 36.63 100.88C37.09 101.293 37.32 101.823 37.32 102.47C37.32 103.157 37.0833 103.703 36.61 104.11C36.1433 104.51 35.5533 104.71 34.84 104.71H33.96V107H32.7V100.26ZM41.2566 104.05V103.9C41.2433 103.573 41.1533 103.313 40.9866 103.12C40.8266 102.92 40.59 102.82 40.2766 102.82C39.99 102.82 39.74 102.927 39.5266 103.14C39.32 103.347 39.1866 103.65 39.1266 104.05H41.2566ZM42.0766 105.68V106.72C41.7233 106.94 41.2133 107.05 40.5466 107.05C39.74 107.05 39.1033 106.81 38.6366 106.33C38.17 105.85 37.9366 105.23 37.9366 104.47C37.9366 103.663 38.1566 103.03 38.5966 102.57C39.0366 102.11 39.5866 101.88 40.2466 101.88C40.9066 101.88 41.43 102.08 41.8166 102.48C42.2033 102.88 42.3966 103.463 42.3966 104.23C42.3966 104.417 42.3733 104.657 42.3266 104.95H39.1466C39.2333 105.317 39.4133 105.597 39.6866 105.79C39.9666 105.983 40.3133 106.08 40.7266 106.08C41.26 106.08 41.71 105.947 42.0766 105.68ZM44.6996 101.93V102.83C44.9329 102.203 45.3596 101.89 45.9796 101.89C46.1196 101.89 46.2329 101.9 46.3196 101.92V103.08C46.1663 103.013 45.9963 102.98 45.8096 102.98C45.4829 102.98 45.2163 103.113 45.0096 103.38C44.8029 103.647 44.6996 103.98 44.6996 104.38V107H43.4896L43.4996 101.93H44.6996ZM47.075 107V101.93H48.275V107H47.075ZM46.955 100.41C46.955 100.21 47.025 100.04 47.165 99.9C47.305 99.76 47.475 99.69 47.675 99.69C47.875 99.69 48.045 99.76 48.185 99.9C48.325 100.04 48.395 100.21 48.395 100.41C48.395 100.617 48.325 100.79 48.185 100.93C48.045 101.07 47.875 101.14 47.675 101.14C47.475 101.14 47.305 101.07 47.165 100.93C47.025 100.79 46.955 100.617 46.955 100.41ZM50.8227 101.93V102.8C51.1093 102.18 51.6293 101.87 52.3827 101.87C52.8893 101.87 53.2893 102.023 53.5827 102.33C53.876 102.637 54.0227 103.07 54.0227 103.63V107H52.8227V103.88C52.8227 103.547 52.7427 103.297 52.5827 103.13C52.4227 102.957 52.206 102.87 51.9327 102.87C51.6193 102.87 51.356 102.993 51.1427 103.24C50.9293 103.48 50.8227 103.827 50.8227 104.28V107H49.6227V101.93H50.8227ZM57.397 105.86C57.7236 105.86 57.997 105.733 58.217 105.48C58.437 105.22 58.547 104.883 58.547 104.47C58.547 103.93 58.4403 103.533 58.227 103.28C58.0136 103.027 57.7436 102.9 57.417 102.9C57.0703 102.9 56.797 103.037 56.597 103.31C56.397 103.577 56.297 103.94 56.297 104.4C56.297 104.873 56.4003 105.237 56.607 105.49C56.8136 105.737 57.077 105.86 57.397 105.86ZM58.547 101.93H59.747V106.54C59.747 107.34 59.5136 107.94 59.047 108.34C58.587 108.747 58.0003 108.95 57.287 108.95C56.6203 108.95 56.037 108.83 55.537 108.59V107.37C55.9903 107.69 56.5336 107.85 57.167 107.85C58.087 107.85 58.547 107.41 58.547 106.53V106.09C58.2403 106.59 57.7603 106.84 57.107 106.84C56.5403 106.84 56.0536 106.633 55.647 106.22C55.247 105.8 55.047 105.193 55.047 104.4C55.047 103.667 55.237 103.063 55.617 102.59C56.0036 102.11 56.5103 101.87 57.137 101.87C57.7703 101.87 58.2403 102.133 58.547 102.66V101.93ZM65.4198 107H64.0098L62.1898 104.38V107H60.9898V100.05H62.1898V104.31L63.9798 101.93H65.3798L63.5198 104.35L65.4198 107ZM68.8045 104.82H68.1845C67.8711 104.82 67.6311 104.887 67.4645 105.02C67.2978 105.147 67.2145 105.31 67.2145 105.51C67.2145 105.937 67.4611 106.15 67.9545 106.15C68.2211 106.15 68.4278 106.073 68.5745 105.92C68.7278 105.76 68.8045 105.553 68.8045 105.3V104.82ZM66.3445 103.3V102.19C66.7245 101.957 67.2711 101.84 67.9845 101.84C69.3578 101.84 70.0445 102.48 70.0445 103.76V107H68.8545V106.39C68.6211 106.823 68.1811 107.04 67.5345 107.04C67.0545 107.04 66.6711 106.9 66.3845 106.62C66.1045 106.34 65.9645 105.987 65.9645 105.56C65.9645 105.08 66.1445 104.703 66.5045 104.43C66.8645 104.157 67.3845 104.02 68.0645 104.02H68.8045V103.71C68.8045 103.43 68.7311 103.217 68.5845 103.07C68.4378 102.923 68.1878 102.85 67.8345 102.85C67.2945 102.85 66.7978 103 66.3445 103.3ZM72.7428 102.83V105.41C72.7428 105.623 72.7995 105.787 72.9128 105.9C73.0261 106.007 73.1828 106.06 73.3828 106.06C73.6361 106.06 73.8695 105.99 74.0828 105.85V106.88C73.8495 106.993 73.5495 107.05 73.1828 107.05C72.0895 107.05 71.5428 106.497 71.5428 105.39V102.83H70.7828V101.93H71.5428V100.71H72.7428V101.93H74.0028V102.83H72.7428ZM83.2023 103.07V106.31H83.1923L83.2023 106.42C82.589 106.86 81.8223 107.08 80.9023 107.08C79.8357 107.08 78.9723 106.77 78.3123 106.15C77.659 105.53 77.3323 104.687 77.3323 103.62C77.3323 102.58 77.669 101.74 78.3423 101.1C79.0223 100.46 79.879 100.14 80.9123 100.14C81.679 100.14 82.3357 100.283 82.8823 100.57V101.86C82.269 101.493 81.619 101.31 80.9323 101.31C80.259 101.31 79.7157 101.52 79.3023 101.94C78.889 102.36 78.6823 102.92 78.6823 103.62C78.6823 104.333 78.8823 104.897 79.2823 105.31C79.689 105.717 80.2457 105.92 80.9523 105.92C81.299 105.92 81.6357 105.86 81.9623 105.74V104.15H80.7223V103.07H83.2023ZM84.5359 107V99.93H85.7359V107H84.5359ZM89.2536 107.08C88.4869 107.08 87.8869 106.84 87.4536 106.36C87.0269 105.88 86.8136 105.267 86.8136 104.52C86.8136 103.747 87.0369 103.11 87.4836 102.61C87.9303 102.103 88.5203 101.85 89.2536 101.85C90.0336 101.85 90.6369 102.097 91.0636 102.59C91.4903 103.077 91.7036 103.697 91.7036 104.45C91.7036 105.217 91.4869 105.847 91.0536 106.34C90.6269 106.833 90.0269 107.08 89.2536 107.08ZM89.2536 102.83C88.8736 102.83 88.5803 102.987 88.3736 103.3C88.1736 103.613 88.0736 104.007 88.0736 104.48C88.0736 104.947 88.1769 105.337 88.3836 105.65C88.5903 105.963 88.8836 106.12 89.2636 106.12C89.6569 106.12 89.9536 105.967 90.1536 105.66C90.3536 105.353 90.4536 104.963 90.4536 104.49C90.4536 104.003 90.3569 103.607 90.1636 103.3C89.9703 102.987 89.6669 102.83 89.2536 102.83ZM95.2179 106.04C95.5646 106.04 95.8546 105.897 96.0879 105.61C96.3212 105.323 96.4379 104.95 96.4379 104.49C96.4379 103.983 96.3179 103.59 96.0779 103.31C95.8446 103.023 95.5546 102.88 95.2079 102.88C94.8812 102.88 94.5912 103.01 94.3379 103.27C94.0846 103.523 93.9579 103.907 93.9579 104.42C93.9579 104.947 94.0779 105.35 94.3179 105.63C94.5579 105.903 94.8579 106.04 95.2179 106.04ZM93.9579 99.93V102.7C94.3112 102.14 94.8179 101.86 95.4779 101.86C96.1112 101.86 96.6312 102.097 97.0379 102.57C97.4512 103.037 97.6579 103.67 97.6579 104.47C97.6579 105.19 97.4612 105.803 97.0679 106.31C96.6812 106.817 96.1546 107.07 95.4879 107.07C94.8212 107.07 94.3112 106.787 93.9579 106.22V107H92.7479V99.93H93.9579ZM101.275 104.82H100.655C100.342 104.82 100.102 104.887 99.9352 105.02C99.7685 105.147 99.6852 105.31 99.6852 105.51C99.6852 105.937 99.9318 106.15 100.425 106.15C100.692 106.15 100.898 106.073 101.045 105.92C101.198 105.76 101.275 105.553 101.275 105.3V104.82ZM98.8152 103.3V102.19C99.1952 101.957 99.7418 101.84 100.455 101.84C101.828 101.84 102.515 102.48 102.515 103.76V107H101.325V106.39C101.092 106.823 100.652 107.04 100.005 107.04C99.5252 107.04 99.1418 106.9 98.8552 106.62C98.5752 106.34 98.4352 105.987 98.4352 105.56C98.4352 105.08 98.6152 104.703 98.9752 104.43C99.3352 104.157 99.8552 104.02 100.535 104.02H101.275V103.71C101.275 103.43 101.202 103.217 101.055 103.07C100.908 102.923 100.658 102.85 100.305 102.85C99.7652 102.85 99.2685 103 98.8152 103.3ZM103.804 107V99.93H105.004V107H103.804Z" fill="white"/>
</g>
<g clip-path="url(#clip2_1124_4113)">
<path d="M69.7904 150.72C68.7004 149.29 67.2604 148.16 65.6204 147.45C65.3304 147.33 65.2304 147.07 65.2004 146.94C65.1404 146.68 65.2004 146.4 65.3804 146.19C66.4604 144.89 67.1104 143.18 67.1104 141.61C67.1104 138.52 64.6004 136.01 61.5104 136.01C58.4204 136.01 55.9104 138.52 55.9104 141.61C55.9104 143.18 56.5604 144.89 57.6404 146.19C57.8104 146.4 57.8804 146.68 57.8204 146.94C57.7904 147.08 57.6904 147.33 57.4004 147.45C55.7604 148.16 54.3104 149.29 53.2204 150.72C52.9504 151.07 53.0204 151.57 53.3704 151.84C53.5204 151.95 53.6904 152 53.8504 152C54.0904 152 54.3304 151.89 54.4904 151.68C55.4104 150.47 56.6304 149.51 58.0304 148.91C58.7104 148.62 59.2004 148.03 59.3704 147.3C59.5504 146.55 59.3704 145.75 58.8704 145.15C58.0304 144.14 57.5104 142.78 57.5104 141.59C57.5104 139.38 59.3004 137.59 61.5104 137.59C63.7204 137.59 65.5104 139.38 65.5104 141.59C65.5104 142.78 64.9904 144.14 64.1504 145.15C63.3704 146.08 62.4404 146.59 61.5104 146.59C61.0704 146.59 60.7104 146.95 60.7104 147.39C60.7104 147.83 61.0704 148.19 61.5104 148.19C62.2804 148.19 63.0404 147.97 63.7404 147.56C63.9604 148.16 64.3904 148.65 64.9904 148.9C66.3804 149.5 67.6004 150.46 68.5304 151.67C68.6904 151.88 68.9304 151.99 69.1704 151.99C69.3404 151.99 69.5104 151.94 69.6504 151.83C70.0004 151.56 70.0704 151.06 69.8004 150.71L69.7904 150.72Z" fill="#2B2B2B"/>
</g>
<path d="M79.2349 146.29H80.4449C81.2783 146.29 81.9083 146.033 82.3349 145.52C82.7616 145 82.9749 144.353 82.9749 143.58C82.9749 142.847 82.7349 142.23 82.2549 141.73C81.7816 141.23 81.1649 140.98 80.4049 140.98H79.2349V146.29ZM78.4149 140.26H80.4149C81.4083 140.26 82.2216 140.57 82.8549 141.19C83.4949 141.803 83.8149 142.6 83.8149 143.58C83.8149 144.553 83.5183 145.367 82.9249 146.02C82.3383 146.673 81.5149 147 80.4549 147H78.4149V140.26ZM88.1062 144.14V143.94C88.1062 143.52 87.9929 143.187 87.7662 142.94C87.5396 142.687 87.2262 142.56 86.8262 142.56C86.4462 142.56 86.1229 142.697 85.8562 142.97C85.5896 143.243 85.4329 143.633 85.3862 144.14H88.1062ZM88.5762 146V146.74C88.1829 146.947 87.7029 147.05 87.1362 147.05C86.3696 147.05 85.7496 146.817 85.2762 146.35C84.8096 145.877 84.5762 145.253 84.5762 144.48C84.5762 143.673 84.7862 143.037 85.2062 142.57C85.6262 142.103 86.1662 141.87 86.8262 141.87C87.4596 141.87 87.9629 142.073 88.3362 142.48C88.7096 142.887 88.8962 143.463 88.8962 144.21C88.8962 144.423 88.8796 144.62 88.8462 144.8H85.3862C85.4462 145.3 85.6362 145.683 85.9562 145.95C86.2762 146.217 86.6962 146.35 87.2162 146.35C87.7829 146.35 88.2362 146.233 88.5762 146ZM92.7509 142.1V142.85C92.4442 142.663 92.0242 142.57 91.4909 142.57C91.2242 142.57 91.0109 142.633 90.8509 142.76C90.6975 142.88 90.6209 143.037 90.6209 143.23C90.6209 143.35 90.6442 143.457 90.6909 143.55C90.7375 143.637 90.8275 143.723 90.9609 143.81C91.1009 143.897 91.2009 143.957 91.2609 143.99C91.3275 144.017 91.4675 144.077 91.6809 144.17C92.1075 144.343 92.4409 144.54 92.6809 144.76C92.9209 144.98 93.0409 145.277 93.0409 145.65C93.0409 146.083 92.8875 146.427 92.5809 146.68C92.2809 146.933 91.8675 147.06 91.3409 147.06C90.7275 147.06 90.2309 146.957 89.8509 146.75V145.98C90.2975 146.247 90.7775 146.38 91.2909 146.38C91.5975 146.38 91.8309 146.32 91.9909 146.2C92.1509 146.08 92.2309 145.917 92.2309 145.71C92.2309 145.47 92.1409 145.283 91.9609 145.15C91.7875 145.017 91.4942 144.867 91.0809 144.7C90.7009 144.553 90.3942 144.37 90.1609 144.15C89.9342 143.93 89.8209 143.633 89.8209 143.26C89.8209 142.84 89.9775 142.507 90.2909 142.26C90.6109 142.007 91.0075 141.88 91.4809 141.88C92.0075 141.88 92.4309 141.953 92.7509 142.1ZM94.042 147V141.93H94.832V147H94.042ZM94.062 140.71C93.9686 140.61 93.922 140.487 93.922 140.34C93.922 140.193 93.9686 140.07 94.062 139.97C94.162 139.87 94.2853 139.82 94.432 139.82C94.5786 139.82 94.702 139.87 94.802 139.97C94.902 140.07 94.952 140.193 94.952 140.34C94.952 140.487 94.902 140.61 94.802 140.71C94.702 140.803 94.5786 140.85 94.432 140.85C94.2853 140.85 94.162 140.803 94.062 140.71ZM97.3159 142.57V145.54C97.3159 146.08 97.5693 146.35 98.0759 146.35C98.3359 146.35 98.5659 146.273 98.7659 146.12V146.87C98.5459 146.99 98.2993 147.05 98.0259 147.05C97.0259 147.05 96.5259 146.54 96.5259 145.52V142.57H95.7159V141.93H96.5259V140.67H97.3159V141.93H98.7159V142.57H97.3159ZM102.537 144.66H101.657C101.231 144.66 100.911 144.743 100.697 144.91C100.484 145.077 100.377 145.287 100.377 145.54C100.377 145.793 100.461 146 100.627 146.16C100.794 146.313 101.037 146.39 101.357 146.39C101.717 146.39 102.004 146.29 102.217 146.09C102.431 145.883 102.537 145.623 102.537 145.31V144.66ZM99.9173 142.99V142.2C100.297 141.967 100.797 141.85 101.417 141.85C102.691 141.85 103.327 142.497 103.327 143.79V147H102.547V146.4C102.287 146.833 101.814 147.05 101.127 147.05C100.654 147.05 100.271 146.91 99.9773 146.63C99.6907 146.35 99.5473 145.997 99.5473 145.57C99.5473 145.083 99.7307 144.707 100.097 144.44C100.471 144.167 100.977 144.03 101.617 144.03H102.537V143.77C102.537 143.37 102.447 143.07 102.267 142.87C102.087 142.663 101.784 142.56 101.357 142.56C100.817 142.56 100.337 142.703 99.9173 142.99ZM106.991 147V140.26H108.011L109.701 143.1L111.411 146.02C111.384 145.373 111.371 144.403 111.371 143.11V140.26H112.181V147H111.161L109.471 144.18C109.131 143.613 108.817 143.087 108.531 142.6C108.244 142.107 108.041 141.753 107.921 141.54L107.751 141.23C107.784 141.923 107.801 142.9 107.801 144.16V147H106.991ZM116.719 141.93H117.509V147H116.719V146.12C116.452 146.747 115.922 147.06 115.129 147.06C114.629 147.06 114.232 146.913 113.939 146.62C113.652 146.32 113.509 145.92 113.509 145.42V141.93H114.299V145.22C114.299 145.587 114.392 145.867 114.579 146.06C114.766 146.253 115.019 146.35 115.339 146.35C115.759 146.35 116.092 146.203 116.339 145.91C116.592 145.617 116.719 145.22 116.719 144.72V141.93ZM119.64 141.93V142.82C119.906 142.193 120.366 141.88 121.02 141.88C121.14 141.88 121.233 141.887 121.3 141.9V142.68C121.16 142.633 121.016 142.61 120.87 142.61C120.516 142.61 120.223 142.773 119.99 143.1C119.756 143.427 119.64 143.803 119.64 144.23V147H118.85L118.86 141.93H119.64ZM125.193 140.96V143.65H126.213C126.673 143.65 127.023 143.527 127.263 143.28C127.509 143.027 127.633 142.703 127.633 142.31C127.633 141.41 127.129 140.96 126.123 140.96H125.193ZM128.863 147H127.893L126.243 144.34H126.163H125.193V147H124.383V140.26H126.073C126.853 140.26 127.443 140.443 127.843 140.81C128.249 141.177 128.453 141.683 128.453 142.33C128.439 142.797 128.316 143.193 128.083 143.52C127.849 143.847 127.519 144.077 127.093 144.21L128.863 147ZM131.771 147.09C131.045 147.09 130.468 146.847 130.041 146.36C129.621 145.867 129.411 145.247 129.411 144.5C129.411 143.747 129.628 143.12 130.061 142.62C130.501 142.113 131.071 141.86 131.771 141.86C132.538 141.86 133.128 142.107 133.541 142.6C133.961 143.093 134.171 143.72 134.171 144.48C134.171 145.233 133.958 145.857 133.531 146.35C133.105 146.843 132.518 147.09 131.771 147.09ZM131.771 142.56C131.291 142.56 130.915 142.747 130.641 143.12C130.368 143.493 130.231 143.95 130.231 144.49C130.231 145.017 130.371 145.467 130.651 145.84C130.931 146.207 131.305 146.39 131.771 146.39C132.278 146.39 132.668 146.21 132.941 145.85C133.215 145.483 133.351 145.03 133.351 144.49C133.351 143.93 133.221 143.47 132.961 143.11C132.701 142.743 132.305 142.56 131.771 142.56ZM137.976 142.1V142.85C137.67 142.663 137.25 142.57 136.716 142.57C136.45 142.57 136.236 142.633 136.076 142.76C135.923 142.88 135.846 143.037 135.846 143.23C135.846 143.35 135.87 143.457 135.916 143.55C135.963 143.637 136.053 143.723 136.186 143.81C136.326 143.897 136.426 143.957 136.486 143.99C136.553 144.017 136.693 144.077 136.906 144.17C137.333 144.343 137.666 144.54 137.906 144.76C138.146 144.98 138.266 145.277 138.266 145.65C138.266 146.083 138.113 146.427 137.806 146.68C137.506 146.933 137.093 147.06 136.566 147.06C135.953 147.06 135.456 146.957 135.076 146.75V145.98C135.523 146.247 136.003 146.38 136.516 146.38C136.823 146.38 137.056 146.32 137.216 146.2C137.376 146.08 137.456 145.917 137.456 145.71C137.456 145.47 137.366 145.283 137.186 145.15C137.013 145.017 136.72 144.867 136.306 144.7C135.926 144.553 135.62 144.37 135.386 144.15C135.16 143.93 135.046 143.633 135.046 143.26C135.046 142.84 135.203 142.507 135.516 142.26C135.836 142.007 136.233 141.88 136.706 141.88C137.233 141.88 137.656 141.953 137.976 142.1ZM140.627 146.87L138.577 141.93H139.467L140.127 143.6L141.017 145.9C141.071 145.727 141.337 144.96 141.817 143.6L142.407 141.93H143.257L141.427 146.87C141.167 147.557 140.857 148.04 140.497 148.32C140.144 148.6 139.737 148.74 139.277 148.74C139.104 148.74 138.964 148.723 138.857 148.69V147.98C138.957 148.007 139.071 148.02 139.197 148.02C139.871 148.02 140.347 147.637 140.627 146.87ZM144.089 147V141.93H144.879V147H144.089ZM144.109 140.71C144.016 140.61 143.969 140.487 143.969 140.34C143.969 140.193 144.016 140.07 144.109 139.97C144.209 139.87 144.332 139.82 144.479 139.82C144.626 139.82 144.749 139.87 144.849 139.97C144.949 140.07 144.999 140.193 144.999 140.34C144.999 140.487 144.949 140.61 144.849 140.71C144.749 140.803 144.626 140.85 144.479 140.85C144.332 140.85 144.209 140.803 144.109 140.71ZM148.203 146.36C148.616 146.36 148.966 146.207 149.253 145.9C149.546 145.593 149.693 145.103 149.693 144.43C149.693 143.79 149.543 143.32 149.243 143.02C148.943 142.72 148.613 142.57 148.253 142.57C147.833 142.57 147.483 142.74 147.203 143.08C146.93 143.413 146.793 143.893 146.793 144.52C146.793 145.067 146.926 145.51 147.193 145.85C147.46 146.19 147.796 146.36 148.203 146.36ZM149.693 139.93H150.483V147H149.693V146.25C149.333 146.803 148.813 147.08 148.133 147.08C147.46 147.08 146.93 146.83 146.543 146.33C146.163 145.83 145.973 145.223 145.973 144.51C145.973 143.717 146.176 143.077 146.583 142.59C146.99 142.097 147.513 141.85 148.153 141.85C148.813 141.85 149.326 142.133 149.693 142.7V139.93ZM151.877 147V141.93H152.667V147H151.877ZM151.897 140.71C151.804 140.61 151.757 140.487 151.757 140.34C151.757 140.193 151.804 140.07 151.897 139.97C151.997 139.87 152.12 139.82 152.267 139.82C152.414 139.82 152.537 139.87 152.637 139.97C152.737 140.07 152.787 140.193 152.787 140.34C152.787 140.487 152.737 140.61 152.637 140.71C152.537 140.803 152.414 140.85 152.267 140.85C152.12 140.85 151.997 140.803 151.897 140.71ZM156.791 144.66H155.911C155.484 144.66 155.164 144.743 154.951 144.91C154.738 145.077 154.631 145.287 154.631 145.54C154.631 145.793 154.714 146 154.881 146.16C155.048 146.313 155.291 146.39 155.611 146.39C155.971 146.39 156.258 146.29 156.471 146.09C156.684 145.883 156.791 145.623 156.791 145.31V144.66ZM154.171 142.99V142.2C154.551 141.967 155.051 141.85 155.671 141.85C156.944 141.85 157.581 142.497 157.581 143.79V147H156.801V146.4C156.541 146.833 156.068 147.05 155.381 147.05C154.908 147.05 154.524 146.91 154.231 146.63C153.944 146.35 153.801 145.997 153.801 145.57C153.801 145.083 153.984 144.707 154.351 144.44C154.724 144.167 155.231 144.03 155.871 144.03H156.791V143.77C156.791 143.37 156.701 143.07 156.521 142.87C156.341 142.663 156.038 142.56 155.611 142.56C155.071 142.56 154.591 142.703 154.171 142.99ZM159.653 141.93V142.81C159.953 142.177 160.486 141.86 161.253 141.86C161.746 141.86 162.139 142.01 162.433 142.31C162.726 142.61 162.873 143.01 162.873 143.51V147H162.083V143.72C162.083 143.347 161.986 143.063 161.793 142.87C161.606 142.67 161.359 142.57 161.053 142.57C160.673 142.57 160.343 142.717 160.063 143.01C159.789 143.303 159.653 143.71 159.653 144.23V147H158.873V141.93H159.653ZM166.893 144.66H166.013C165.587 144.66 165.267 144.743 165.053 144.91C164.84 145.077 164.733 145.287 164.733 145.54C164.733 145.793 164.817 146 164.983 146.16C165.15 146.313 165.393 146.39 165.713 146.39C166.073 146.39 166.36 146.29 166.573 146.09C166.787 145.883 166.893 145.623 166.893 145.31V144.66ZM164.273 142.99V142.2C164.653 141.967 165.153 141.85 165.773 141.85C167.047 141.85 167.683 142.497 167.683 143.79V147H166.903V146.4C166.643 146.833 166.17 147.05 165.483 147.05C165.01 147.05 164.627 146.91 164.333 146.63C164.047 146.35 163.903 145.997 163.903 145.57C163.903 145.083 164.087 144.707 164.453 144.44C164.827 144.167 165.333 144.03 165.973 144.03H166.893V143.77C166.893 143.37 166.803 143.07 166.623 142.87C166.443 142.663 166.14 142.56 165.713 142.56C165.173 142.56 164.693 142.703 164.273 142.99Z" fill="#2B2B2B"/>
<path d="M70.118 274.31H71.648C72.0747 274.31 72.4013 274.213 72.628 274.02C72.8613 273.82 72.978 273.53 72.978 273.15C72.978 272.77 72.848 272.473 72.588 272.26C72.3347 272.047 71.9713 271.94 71.498 271.94H70.118V274.31ZM70.118 268.95V271.25H71.198C71.738 271.25 72.138 271.137 72.398 270.91C72.658 270.683 72.788 270.39 72.788 270.03C72.788 269.717 72.6647 269.46 72.418 269.26C72.178 269.053 71.818 268.95 71.338 268.95H70.118ZM69.308 268.26H71.338C72.0313 268.26 72.5847 268.42 72.998 268.74C73.418 269.06 73.628 269.49 73.628 270.03C73.628 270.417 73.518 270.753 73.298 271.04C73.0847 271.32 72.808 271.497 72.468 271.57C72.8413 271.63 73.158 271.8 73.418 272.08C73.6847 272.353 73.818 272.727 73.818 273.2C73.818 273.74 73.638 274.177 73.278 274.51C72.9247 274.837 72.4213 275 71.768 275H69.308V268.26ZM77.6009 272.66H76.7209C76.2942 272.66 75.9742 272.743 75.7609 272.91C75.5476 273.077 75.4409 273.287 75.4409 273.54C75.4409 273.793 75.5242 274 75.6909 274.16C75.8576 274.313 76.1009 274.39 76.4209 274.39C76.7809 274.39 77.0676 274.29 77.2809 274.09C77.4942 273.883 77.6009 273.623 77.6009 273.31V272.66ZM74.9809 270.99V270.2C75.3609 269.967 75.8609 269.85 76.4809 269.85C77.7542 269.85 78.3909 270.497 78.3909 271.79V275H77.6109V274.4C77.3509 274.833 76.8776 275.05 76.1909 275.05C75.7176 275.05 75.3342 274.91 75.0409 274.63C74.7542 274.35 74.6109 273.997 74.6109 273.57C74.6109 273.083 74.7942 272.707 75.1609 272.44C75.5342 272.167 76.0409 272.03 76.6809 272.03H77.6009V271.77C77.6009 271.37 77.5109 271.07 77.3309 270.87C77.1509 270.663 76.8476 270.56 76.4209 270.56C75.8809 270.56 75.4009 270.703 74.9809 270.99ZM81.5828 274.17C81.9494 274.17 82.2728 274.03 82.5528 273.75C82.8394 273.463 82.9828 273.04 82.9828 272.48C82.9828 271.833 82.8461 271.353 82.5728 271.04C82.2994 270.727 81.9828 270.57 81.6228 270.57C81.1894 270.57 80.8461 270.743 80.5928 271.09C80.3394 271.43 80.2128 271.877 80.2128 272.43C80.2128 272.997 80.3528 273.43 80.6328 273.73C80.9128 274.023 81.2294 274.17 81.5828 274.17ZM82.9828 269.93H83.7728V274.59C83.7728 275.363 83.5594 275.943 83.1328 276.33C82.7061 276.723 82.1561 276.92 81.4828 276.92C80.8694 276.92 80.3461 276.817 79.9128 276.61V275.82C80.3394 276.067 80.8394 276.19 81.4128 276.19C81.8994 276.19 82.2828 276.06 82.5628 275.8C82.8428 275.54 82.9828 275.133 82.9828 274.58V274.01C82.6494 274.583 82.1528 274.87 81.4928 274.87C80.9128 274.87 80.4161 274.657 80.0028 274.23C79.5961 273.803 79.3928 273.21 79.3928 272.45C79.3928 271.697 79.5828 271.077 79.9628 270.59C80.3428 270.103 80.8394 269.86 81.4528 269.86C82.1461 269.86 82.6561 270.163 82.9828 270.77V269.93ZM85.1011 275V269.93H85.8911V275H85.1011ZM85.1211 268.71C85.0277 268.61 84.9811 268.487 84.9811 268.34C84.9811 268.193 85.0277 268.07 85.1211 267.97C85.2211 267.87 85.3444 267.82 85.4911 267.82C85.6377 267.82 85.7611 267.87 85.8611 267.97C85.9611 268.07 86.0111 268.193 86.0111 268.34C86.0111 268.487 85.9611 268.61 85.8611 268.71C85.7611 268.803 85.6377 268.85 85.4911 268.85C85.3444 268.85 85.2211 268.803 85.1211 268.71ZM87.285 275V267.97H88.065V275H87.285ZM89.095 272.34L91.155 275H90.205L88.165 272.34L90.155 269.93H91.095L89.095 272.34ZM94.7097 272.66H93.8297C93.4031 272.66 93.0831 272.743 92.8697 272.91C92.6564 273.077 92.5497 273.287 92.5497 273.54C92.5497 273.793 92.6331 274 92.7997 274.16C92.9664 274.313 93.2097 274.39 93.5297 274.39C93.8897 274.39 94.1764 274.29 94.3897 274.09C94.6031 273.883 94.7097 273.623 94.7097 273.31V272.66ZM92.0897 270.99V270.2C92.4697 269.967 92.9697 269.85 93.5897 269.85C94.8631 269.85 95.4997 270.497 95.4997 271.79V275H94.7197V274.4C94.4597 274.833 93.9864 275.05 93.2997 275.05C92.8264 275.05 92.4431 274.91 92.1497 274.63C91.8631 274.35 91.7197 273.997 91.7197 273.57C91.7197 273.083 91.9031 272.707 92.2697 272.44C92.6431 272.167 93.1497 272.03 93.7897 272.03H94.7097V271.77C94.7097 271.37 94.6197 271.07 94.4397 270.87C94.2597 270.663 93.9564 270.56 93.5297 270.56C92.9897 270.56 92.5097 270.703 92.0897 270.99ZM97.5716 269.93V270.81C97.8716 270.177 98.4049 269.86 99.1716 269.86C99.6649 269.86 100.058 270.01 100.352 270.31C100.645 270.61 100.792 271.01 100.792 271.51V275H100.002V271.72C100.002 271.347 99.9049 271.063 99.7116 270.87C99.5249 270.67 99.2783 270.57 98.9716 270.57C98.5916 270.57 98.2616 270.717 97.9816 271.01C97.7083 271.303 97.5716 271.71 97.5716 272.23V275H96.7916V269.93H97.5716Z" fill="#2B2B2B"/>
<path d="M105.5 272C105.5 266.477 109.977 262 115.5 262C121.023 262 125.5 266.477 125.5 272C125.5 277.523 121.023 282 115.5 282C109.977 282 105.5 277.523 105.5 272Z" fill="white"/>
<g clip-path="url(#clip3_1124_4113)">
<path d="M119.633 266H111.367C110.34 266 109.5 266.84 109.5 267.867V276.133C109.5 277.16 110.34 278 111.367 278H119.633C120.66 278 121.5 277.16 121.5 276.133V267.867C121.5 266.84 120.66 266 119.633 266ZM120.433 276.133C120.433 276.573 120.073 276.933 119.633 276.933H117.107V273.473H118.52L118.733 271.827H117.107V271.187C117.107 270.7 117.233 270.387 117.92 270.387H118.787V268.92C118.367 268.873 117.947 268.853 117.52 268.853C116.267 268.853 115.407 269.62 115.407 271.027V271.833H113.987V273.48H115.407V276.94H111.367C110.927 276.94 110.567 276.58 110.567 276.14V267.867C110.567 267.427 110.927 267.067 111.367 267.067H119.633C120.073 267.067 120.433 267.427 120.433 267.867V276.133Z" fill="#2B2B2B"/>
</g>
<path d="M129.5 272C129.5 266.477 133.977 262 139.5 262C145.023 262 149.5 266.477 149.5 272C149.5 277.523 145.023 282 139.5 282C133.977 282 129.5 277.523 129.5 272Z" fill="white"/>
<g clip-path="url(#clip4_1124_4113)">
<path d="M139.494 278.093C138.487 278.093 137.5 277.84 136.614 277.36C136.46 277.273 136.267 277.267 136.087 277.333L134.214 278.06C134 278.14 133.767 278.08 133.62 277.913C133.474 277.747 133.447 277.5 133.56 277.3L134.374 275.853C134.487 275.653 134.48 275.4 134.36 275.193C133.62 273.973 133.347 272.567 133.574 271.127C133.967 268.62 135.987 266.58 138.487 266.173C140.36 265.867 142.214 266.42 143.587 267.7C144.96 268.973 145.647 270.78 145.474 272.653C145.22 275.467 142.994 277.74 140.187 278.053C139.954 278.08 139.727 278.093 139.494 278.093ZM136.327 276.22C136.607 276.22 136.88 276.287 137.127 276.42C138.02 276.907 139.034 277.107 140.067 276.993C142.334 276.74 144.2 274.833 144.407 272.553C144.547 271.013 143.98 269.527 142.854 268.473C141.727 267.427 140.194 266.967 138.654 267.22C136.6 267.56 134.94 269.227 134.62 271.287C134.434 272.473 134.66 273.627 135.267 274.633C135.587 275.167 135.6 275.827 135.3 276.367L135.214 276.52L135.7 276.333C135.9 276.253 136.114 276.213 136.327 276.213V276.22Z" fill="#2B2B2B"/>
<path d="M141.226 273.313C141.086 273.113 140.82 273.047 140.6 273.16C140.56 273.18 140.52 273.207 140.48 273.233C140.386 273.293 140.313 273.373 140.246 273.453C140.093 273.64 139.833 273.713 139.62 273.593C139.213 273.373 138.853 273.053 138.573 272.653C138.293 272.247 138.12 271.8 138.046 271.347C138.006 271.107 138.16 270.887 138.393 270.807C138.493 270.773 138.586 270.727 138.68 270.66C138.72 270.633 138.76 270.6 138.793 270.573C138.973 270.407 139 270.133 138.86 269.933L138.126 268.893C137.986 268.693 137.72 268.627 137.5 268.74C137.46 268.76 137.42 268.787 137.38 268.813C137.18 268.953 137.033 269.153 136.96 269.373C136.486 270.68 136.64 272.187 137.493 273.413C138.18 274.393 139.2 275 140.286 275.22C140.466 275.253 140.64 275.293 141.013 275.293C141.313 275.293 141.513 275.227 141.66 275.16C141.7 275.14 141.74 275.113 141.773 275.087C141.813 275.06 141.846 275.027 141.886 275C142.066 274.833 142.093 274.56 141.953 274.36L141.22 273.32L141.226 273.313Z" fill="#2B2B2B"/>
</g>
<path opacity="0.64" d="M308.955 144.448H310.179C310.521 144.448 310.782 144.371 310.963 144.216C311.15 144.056 311.243 143.824 311.243 143.52C311.243 143.216 311.139 142.979 310.931 142.808C310.729 142.637 310.438 142.552 310.059 142.552H308.955V144.448ZM308.955 140.16V142H309.819C310.251 142 310.571 141.909 310.779 141.728C310.987 141.547 311.091 141.312 311.091 141.024C311.091 140.773 310.993 140.568 310.795 140.408C310.603 140.243 310.315 140.16 309.931 140.16H308.955ZM308.307 139.608H309.931C310.486 139.608 310.929 139.736 311.259 139.992C311.595 140.248 311.763 140.592 311.763 141.024C311.763 141.333 311.675 141.603 311.499 141.832C311.329 142.056 311.107 142.197 310.835 142.256C311.134 142.304 311.387 142.44 311.595 142.664C311.809 142.883 311.915 143.181 311.915 143.56C311.915 143.992 311.771 144.341 311.483 144.608C311.201 144.869 310.798 145 310.275 145H308.307V139.608ZM315.43 142.712V142.552C315.43 142.216 315.339 141.949 315.158 141.752C314.976 141.549 314.726 141.448 314.406 141.448C314.102 141.448 313.843 141.557 313.63 141.776C313.416 141.995 313.291 142.307 313.254 142.712H315.43ZM315.806 144.2V144.792C315.491 144.957 315.107 145.04 314.654 145.04C314.04 145.04 313.544 144.853 313.166 144.48C312.792 144.101 312.606 143.603 312.606 142.984C312.606 142.339 312.774 141.829 313.11 141.456C313.446 141.083 313.878 140.896 314.406 140.896C314.912 140.896 315.315 141.059 315.614 141.384C315.912 141.709 316.062 142.171 316.062 142.768C316.062 142.939 316.048 143.096 316.022 143.24H313.254C313.302 143.64 313.454 143.947 313.71 144.16C313.966 144.373 314.302 144.48 314.718 144.48C315.171 144.48 315.534 144.387 315.806 144.2ZM317.057 145V139.344H317.689V145H317.057ZM321.413 140.944H322.045V145H321.413V144.296C321.199 144.797 320.775 145.048 320.141 145.048C319.741 145.048 319.423 144.931 319.189 144.696C318.959 144.456 318.845 144.136 318.845 143.736V140.944H319.477V143.576C319.477 143.869 319.551 144.093 319.701 144.248C319.85 144.403 320.053 144.48 320.309 144.48C320.645 144.48 320.911 144.363 321.109 144.128C321.311 143.893 321.413 143.576 321.413 143.176V140.944ZM323.837 140.944V141.6C324.061 141.125 324.442 140.888 324.981 140.888C325.605 140.888 326 141.152 326.165 141.68C326.282 141.424 326.445 141.229 326.653 141.096C326.866 140.957 327.104 140.888 327.365 140.888C327.786 140.888 328.104 141.008 328.317 141.248C328.53 141.488 328.637 141.811 328.637 142.216V145H328.005V142.376C328.005 141.763 327.746 141.456 327.229 141.456C326.973 141.456 326.744 141.573 326.541 141.808C326.338 142.037 326.237 142.363 326.237 142.784V145H325.605V142.376C325.605 141.763 325.346 141.456 324.829 141.456C324.573 141.456 324.344 141.573 324.141 141.808C323.938 142.037 323.837 142.363 323.837 142.784V145H323.213V140.944H323.837ZM332.337 140.944V141.6C332.561 141.125 332.942 140.888 333.481 140.888C334.105 140.888 334.5 141.152 334.665 141.68C334.782 141.424 334.945 141.229 335.153 141.096C335.366 140.957 335.604 140.888 335.865 140.888C336.286 140.888 336.604 141.008 336.817 141.248C337.03 141.488 337.137 141.811 337.137 142.216V145H336.505V142.376C336.505 141.763 336.246 141.456 335.729 141.456C335.473 141.456 335.244 141.573 335.041 141.808C334.838 142.037 334.737 142.363 334.737 142.784V145H334.105V142.376C334.105 141.763 333.846 141.456 333.329 141.456C333.073 141.456 332.844 141.573 332.641 141.808C332.438 142.037 332.337 142.363 332.337 142.784V145H331.713V140.944H332.337ZM340.844 142.712V142.552C340.844 142.216 340.753 141.949 340.572 141.752C340.39 141.549 340.14 141.448 339.82 141.448C339.516 141.448 339.257 141.557 339.044 141.776C338.83 141.995 338.705 142.307 338.668 142.712H340.844ZM341.22 144.2V144.792C340.905 144.957 340.521 145.04 340.068 145.04C339.454 145.04 338.958 144.853 338.58 144.48C338.206 144.101 338.02 143.603 338.02 142.984C338.02 142.339 338.188 141.829 338.524 141.456C338.86 141.083 339.292 140.896 339.82 140.896C340.326 140.896 340.729 141.059 341.028 141.384C341.326 141.709 341.476 142.171 341.476 142.768C341.476 142.939 341.462 143.096 341.436 143.24H338.668C338.716 143.64 338.868 143.947 339.124 144.16C339.38 144.373 339.716 144.48 340.132 144.48C340.585 144.48 340.948 144.387 341.22 144.2ZM343.063 140.944V141.6C343.287 141.125 343.669 140.888 344.207 140.888C344.831 140.888 345.226 141.152 345.391 141.68C345.509 141.424 345.671 141.229 345.879 141.096C346.093 140.957 346.33 140.888 346.591 140.888C347.013 140.888 347.33 141.008 347.543 141.248C347.757 141.488 347.863 141.811 347.863 142.216V145H347.231V142.376C347.231 141.763 346.973 141.456 346.455 141.456C346.199 141.456 345.97 141.573 345.767 141.808C345.565 142.037 345.463 142.363 345.463 142.784V145H344.831V142.376C344.831 141.763 344.573 141.456 344.055 141.456C343.799 141.456 343.57 141.573 343.367 141.808C343.165 142.037 343.063 142.363 343.063 142.784V145H342.439V140.944H343.063ZM349.018 145V140.944H349.65V145H349.018ZM349.034 139.968C348.96 139.888 348.922 139.789 348.922 139.672C348.922 139.555 348.96 139.456 349.034 139.376C349.114 139.296 349.213 139.256 349.33 139.256C349.448 139.256 349.546 139.296 349.626 139.376C349.706 139.456 349.746 139.555 349.746 139.672C349.746 139.789 349.706 139.888 349.626 139.968C349.546 140.043 349.448 140.08 349.33 140.08C349.213 140.08 349.114 140.043 349.034 139.968ZM350.886 145V139.344H351.518V145H350.886ZM352.753 145V140.944H353.385V145H352.753ZM352.769 139.968C352.694 139.888 352.657 139.789 352.657 139.672C352.657 139.555 352.694 139.456 352.769 139.376C352.849 139.296 352.947 139.256 353.065 139.256C353.182 139.256 353.281 139.296 353.361 139.376C353.441 139.456 353.481 139.555 353.481 139.672C353.481 139.789 353.441 139.888 353.361 139.968C353.281 140.043 353.182 140.08 353.065 140.08C352.947 140.08 352.849 140.043 352.769 139.968ZM354.588 145V139.376H355.212V145H354.588ZM356.036 142.872L357.684 145H356.924L355.292 142.872L356.884 140.944H357.636L356.036 142.872ZM358.464 145V140.944H359.096V145H358.464ZM358.48 139.968C358.405 139.888 358.368 139.789 358.368 139.672C358.368 139.555 358.405 139.456 358.48 139.376C358.56 139.296 358.658 139.256 358.776 139.256C358.893 139.256 358.992 139.296 359.072 139.376C359.152 139.456 359.192 139.555 359.192 139.672C359.192 139.789 359.152 139.888 359.072 139.968C358.992 140.043 358.893 140.08 358.776 140.08C358.658 140.08 358.56 140.043 358.48 139.968ZM364.036 144.488C364.377 144.488 364.657 144.355 364.876 144.088C365.095 143.816 365.204 143.432 365.204 142.936C365.204 142.493 365.097 142.136 364.884 141.864C364.671 141.592 364.401 141.456 364.076 141.456C363.751 141.456 363.468 141.576 363.228 141.816C362.993 142.051 362.876 142.437 362.876 142.976C362.876 143.493 362.996 143.875 363.236 144.12C363.476 144.365 363.743 144.488 364.036 144.488ZM362.876 140.944V141.56C363.159 141.107 363.577 140.88 364.132 140.88C364.671 140.88 365.092 141.077 365.396 141.472C365.705 141.861 365.86 142.349 365.86 142.936C365.86 143.56 365.697 144.072 365.372 144.472C365.052 144.867 364.633 145.064 364.116 145.064C363.583 145.064 363.169 144.837 362.876 144.384V146.576H362.252V140.944H362.876ZM369.375 142.712V142.552C369.375 142.216 369.284 141.949 369.103 141.752C368.922 141.549 368.671 141.448 368.351 141.448C368.047 141.448 367.788 141.557 367.575 141.776C367.362 141.995 367.236 142.307 367.199 142.712H369.375ZM369.751 144.2V144.792C369.436 144.957 369.052 145.04 368.599 145.04C367.986 145.04 367.49 144.853 367.111 144.48C366.738 144.101 366.551 143.603 366.551 142.984C366.551 142.339 366.719 141.829 367.055 141.456C367.391 141.083 367.823 140.896 368.351 140.896C368.858 140.896 369.26 141.059 369.559 141.384C369.858 141.709 370.007 142.171 370.007 142.768C370.007 142.939 369.994 143.096 369.967 143.24H367.199C367.247 143.64 367.399 143.947 367.655 144.16C367.911 144.373 368.247 144.48 368.663 144.48C369.116 144.48 369.479 144.387 369.751 144.2ZM371.595 140.944V141.656C371.808 141.155 372.176 140.904 372.699 140.904C372.795 140.904 372.869 140.909 372.923 140.92V141.544C372.811 141.507 372.696 141.488 372.579 141.488C372.296 141.488 372.061 141.619 371.875 141.88C371.688 142.141 371.595 142.443 371.595 142.784V145H370.963L370.971 140.944H371.595ZM373.612 145V140.944H374.244V145H373.612ZM373.628 139.968C373.553 139.888 373.516 139.789 373.516 139.672C373.516 139.555 373.553 139.456 373.628 139.376C373.708 139.296 373.807 139.256 373.924 139.256C374.041 139.256 374.14 139.296 374.22 139.376C374.3 139.456 374.34 139.555 374.34 139.672C374.34 139.789 374.3 139.888 374.22 139.968C374.14 140.043 374.041 140.08 373.924 140.08C373.807 140.08 373.708 140.043 373.628 139.968ZM376.071 140.944V141.648C376.311 141.141 376.738 140.888 377.351 140.888C377.746 140.888 378.061 141.008 378.295 141.248C378.53 141.488 378.647 141.808 378.647 142.208V145H378.015V142.376C378.015 142.077 377.938 141.851 377.783 141.696C377.634 141.536 377.437 141.456 377.191 141.456C376.887 141.456 376.623 141.573 376.399 141.808C376.181 142.043 376.071 142.368 376.071 142.784V145H375.447V140.944H376.071ZM381.288 144.336C381.581 144.336 381.84 144.224 382.064 144C382.293 143.771 382.408 143.432 382.408 142.984C382.408 142.467 382.298 142.083 382.08 141.832C381.861 141.581 381.608 141.456 381.32 141.456C380.973 141.456 380.698 141.595 380.496 141.872C380.293 142.144 380.192 142.501 380.192 142.944C380.192 143.397 380.304 143.744 380.528 143.984C380.752 144.219 381.005 144.336 381.288 144.336ZM382.408 140.944H383.04V144.672C383.04 145.291 382.869 145.755 382.528 146.064C382.186 146.379 381.746 146.536 381.208 146.536C380.717 146.536 380.298 146.453 379.952 146.288V145.656C380.293 145.853 380.693 145.952 381.152 145.952C381.541 145.952 381.848 145.848 382.072 145.64C382.296 145.432 382.408 145.107 382.408 144.664V144.208C382.141 144.667 381.744 144.896 381.216 144.896C380.752 144.896 380.354 144.725 380.024 144.384C379.698 144.043 379.536 143.568 379.536 142.96C379.536 142.357 379.688 141.861 379.992 141.472C380.296 141.083 380.693 140.888 381.184 140.888C381.738 140.888 382.146 141.131 382.408 141.616V140.944ZM384.158 145V139.376H384.782V145H384.158ZM385.606 142.872L387.254 145H386.494L384.862 142.872L386.454 140.944H387.206L385.606 142.872ZM390.186 143.128H389.482C389.141 143.128 388.885 143.195 388.714 143.328C388.543 143.461 388.458 143.629 388.458 143.832C388.458 144.035 388.525 144.2 388.658 144.328C388.791 144.451 388.986 144.512 389.242 144.512C389.53 144.512 389.759 144.432 389.93 144.272C390.101 144.107 390.186 143.899 390.186 143.648V143.128ZM388.09 141.792V141.16C388.394 140.973 388.794 140.88 389.29 140.88C390.309 140.88 390.818 141.397 390.818 142.432V145H390.194V144.52C389.986 144.867 389.607 145.04 389.058 145.04C388.679 145.04 388.373 144.928 388.138 144.704C387.909 144.48 387.794 144.197 387.794 143.856C387.794 143.467 387.941 143.165 388.234 142.952C388.533 142.733 388.938 142.624 389.45 142.624H390.186V142.416C390.186 142.096 390.114 141.856 389.97 141.696C389.826 141.531 389.583 141.448 389.242 141.448C388.81 141.448 388.426 141.563 388.09 141.792ZM392.811 141.456V143.832C392.811 144.264 393.014 144.48 393.419 144.48C393.627 144.48 393.811 144.419 393.971 144.296V144.896C393.795 144.992 393.598 145.04 393.379 145.04C392.579 145.04 392.179 144.632 392.179 143.816V141.456H391.531V140.944H392.179V139.936H392.811V140.944H393.931V141.456H392.811Z" fill="#2B2B2B"/>
<g clip-path="url(#clip5_1124_4113)">
<path d="M326.691 220.855V194.513L348.481 204.681L378.988 197.127V219.486L348.481 231.024L326.691 220.855Z" fill="#FF6678"/>
<path d="M326.691 194.513V220.855L348.481 231.024V204.681L326.691 194.513Z" fill="#FF5769"/>
<path d="M326.692 194.513C326.692 194.513 320.106 199.259 317.977 205.845L340.058 217.08C340.058 217.08 344.804 208.365 348.483 204.683L326.694 194.515L326.692 194.513Z" fill="#FF7587"/>
<path d="M378.988 197.127L348.481 204.681C352.839 210.878 352.839 218.434 352.839 218.434L384.022 208.944C383.44 203.715 378.986 197.13 378.986 197.13L378.988 197.127Z" fill="#FF7587"/>
<path d="M326.691 194.513L351.291 189.381L378.988 197.127L348.481 204.681L326.691 194.513Z" fill="#CC5260"/>
<path d="M346.641 186.281L339.669 172.337L336.763 179.309L346.641 186.281Z" fill="#FF7587"/>
<path d="M350.709 182.988V164.976L355.358 170.399L350.709 182.988Z" fill="#FF7587"/>
<path d="M354.195 186.281L360.395 175.63L361.749 182.02L354.195 186.281Z" fill="#FF7587"/>
<path d="M351.291 189.381L326.691 194.513L348.481 204.681L351.291 203.988V189.381Z" fill="#C54956"/>
<path d="M373.413 181.707L373.112 181.468C373.23 181.32 373.344 181.168 373.449 181.015L373.765 181.234C373.653 181.393 373.535 181.552 373.413 181.707Z" fill="#FF6678"/>
<path d="M351.57 200.646L351.265 200.412C351.486 200.124 351.666 199.806 351.804 199.471L352.16 199.617C352.01 199.985 351.812 200.332 351.572 200.646H351.57ZM352.454 198.467L352.072 198.424C352.087 198.284 352.096 198.145 352.096 198.005C352.096 197.939 352.096 197.87 352.089 197.804C352.081 197.651 352.061 197.499 352.033 197.346L352.411 197.276C352.441 197.443 352.463 197.613 352.471 197.782C352.476 197.857 352.478 197.93 352.478 198.005C352.478 198.158 352.469 198.312 352.452 198.467H352.454ZM351.692 196.32C351.531 195.996 351.327 195.694 351.085 195.421L351.372 195.166C351.636 195.464 351.86 195.794 352.036 196.149L351.692 196.32ZM350.265 194.715C350.063 194.584 349.848 194.474 349.629 194.386C349.518 194.341 349.4 194.3 349.282 194.266L349.391 193.899C349.52 193.938 349.646 193.981 349.771 194.03C350.014 194.127 350.25 194.249 350.473 194.393L350.265 194.715ZM343.671 194.32C343.243 194.311 342.863 194.27 342.505 194.195L342.584 193.82C342.919 193.89 343.276 193.929 343.679 193.938L343.671 194.322V194.32ZM344.827 194.279L344.797 193.897C345.109 193.873 345.431 193.839 345.74 193.807L345.927 193.787L345.965 194.17L345.778 194.189C345.467 194.221 345.143 194.255 344.827 194.279ZM348.204 194.077C347.869 194.051 347.515 194.051 347.09 194.075L347.068 193.691C347.511 193.667 347.88 193.667 348.232 193.695L348.204 194.077ZM341.387 193.807C341.037 193.629 340.71 193.397 340.416 193.12L340.68 192.841C340.949 193.094 341.245 193.304 341.56 193.465L341.384 193.807H341.387ZM339.667 192.203C339.461 191.877 339.287 191.521 339.152 191.143L339.513 191.012C339.639 191.364 339.8 191.695 339.991 191.997L339.667 192.203ZM338.864 190.005C338.819 189.709 338.798 189.408 338.798 189.11C338.798 189.018 338.8 188.926 338.804 188.833L339.189 188.85C339.184 188.936 339.182 189.024 339.182 189.11C339.182 189.389 339.204 189.67 339.244 189.947L338.864 190.003V190.005ZM339.35 187.766L338.978 187.67C339.004 187.571 339.032 187.474 339.062 187.378C339.15 187.105 339.257 186.833 339.382 186.569L339.729 186.732C339.611 186.981 339.511 187.238 339.429 187.496C339.401 187.584 339.375 187.674 339.352 187.766H339.35ZM340.281 185.774L339.963 185.558C340.178 185.244 340.423 184.939 340.689 184.647L340.972 184.907C340.717 185.186 340.483 185.478 340.279 185.774H340.281ZM365.649 185.437C365.518 185.437 365.387 185.435 365.26 185.429L365.278 185.045C365.643 185.06 366.02 185.053 366.392 185.023L366.424 185.405C366.166 185.427 365.907 185.437 365.651 185.437H365.649ZM364.106 185.309C363.739 185.248 363.359 185.167 362.974 185.064L363.073 184.693C363.444 184.791 363.814 184.871 364.166 184.929L364.103 185.309H364.106ZM367.57 185.242L367.495 184.866C367.858 184.793 368.221 184.697 368.575 184.583L368.693 184.948C368.326 185.068 367.948 185.167 367.57 185.244V185.242ZM361.873 184.72C361.534 184.6 361.184 184.465 360.802 184.308L360.948 183.954C361.324 184.109 361.667 184.242 362 184.36L361.873 184.723V184.72ZM369.77 184.525L369.612 184.175C369.949 184.021 370.281 183.847 370.599 183.656L370.796 183.984C370.466 184.182 370.12 184.364 369.77 184.525ZM341.775 184.132L341.526 183.84C341.814 183.596 342.123 183.36 342.449 183.138L342.666 183.456C342.353 183.669 342.052 183.896 341.777 184.132H341.775ZM359.75 183.849C359.405 183.692 359.059 183.531 358.716 183.37L358.879 183.022C359.222 183.183 359.566 183.342 359.911 183.499L359.752 183.849H359.75ZM371.754 183.332L371.52 183.027C371.816 182.799 372.099 182.552 372.361 182.295L372.63 182.57C372.355 182.838 372.061 183.093 371.754 183.332ZM357.683 182.894C357.29 182.716 356.962 182.57 356.646 182.439L356.794 182.084C357.112 182.218 357.447 182.364 357.842 182.544L357.683 182.894ZM343.619 182.872L343.434 182.535C343.726 182.374 344.033 182.224 344.342 182.084C344.385 182.065 344.428 182.046 344.471 182.027L344.626 182.379C344.583 182.398 344.542 182.415 344.499 182.434C344.199 182.57 343.902 182.716 343.619 182.872ZM355.595 182.029C355.371 181.949 355.148 181.874 354.936 181.808C354.8 181.765 354.661 181.724 354.523 181.685L354.626 181.316C354.766 181.355 354.91 181.398 355.049 181.44C355.268 181.509 355.496 181.584 355.723 181.668L355.595 182.029ZM345.673 181.971L345.547 181.608C345.907 181.483 346.279 181.37 346.65 181.271L346.749 181.642C346.386 181.737 346.025 181.848 345.673 181.971ZM353.431 181.428C353.066 181.357 352.692 181.297 352.321 181.254L352.366 180.872C352.746 180.917 353.13 180.977 353.506 181.05L353.431 181.428ZM347.843 181.398L347.775 181.02C348.15 180.951 348.535 180.895 348.915 180.854L348.955 181.237C348.584 181.277 348.21 181.331 347.843 181.398ZM351.201 181.164C350.992 181.155 350.78 181.151 350.57 181.151C350.409 181.153 350.239 181.153 350.076 181.159L350.063 180.775C350.23 180.769 350.404 180.766 350.57 180.766C350.784 180.766 351.001 180.771 351.216 180.779L351.198 181.164H351.201Z" fill="#FF6678"/>
<path d="M350.209 201.813L350.028 201.474C350.187 201.391 350.342 201.292 350.49 201.18L350.72 201.489C350.556 201.609 350.385 201.719 350.209 201.813Z" fill="#FF6678"/>
<path d="M374.499 179.68C374.71 179.833 374.759 180.127 374.607 180.337C374.454 180.548 374.04 180.762 373.83 180.612C373.619 180.462 373.69 179.998 373.842 179.788C373.995 179.577 374.289 179.528 374.499 179.68Z" fill="#FF6678"/>
<path d="M374.84 179.206C375.051 179.358 375.072 179.691 374.886 179.951C374.699 180.21 374.229 180.502 374.018 180.35C373.808 180.198 373.935 179.661 374.121 179.401C374.308 179.142 374.63 179.056 374.84 179.206Z" fill="#FF6678"/>
<path d="M374.465 179.73C374.465 179.73 374.515 178.753 373.583 179.094C372.651 179.436 372.555 180.378 374.124 180.206L374.467 179.73H374.465Z" fill="#FF6678"/>
<path d="M374.466 179.73C374.466 179.73 375.376 179.371 375.348 180.365C375.32 181.359 374.457 181.75 374.122 180.206L374.466 179.73Z" fill="#FF6678"/>
</g>
<defs>
<filter id="filter0_d_1124_4113" x="-4" y="-2" width="516" height="56" filterUnits="userSpaceOnUse" color-interpolation-filters="sRGB">
<feFlood flood-opacity="0" result="BackgroundImageFix"/>
<feColorMatrix in="SourceAlpha" type="matrix" values="0 0 0 0 0 0 0 0 0 0 0 0 0 0 0 0 0 0 127 0" result="hardAlpha"/>
<feOffset dy="2"/>
<feGaussianBlur stdDeviation="2"/>
<feComposite in2="hardAlpha" operator="out"/>
<feColorMatrix type="matrix" values="0 0 0 0 0.168627 0 0 0 0 0.168627 0 0 0 0 0.168627 0 0 0 0.24 0"/>
<feBlend mode="normal" in2="BackgroundImageFix" result="effect1_dropShadow_1124_4113"/>
<feBlend mode="normal" in="SourceGraphic" in2="effect1_dropShadow_1124_4113" result="shape"/>
</filter>
<filter id="filter1_d_1124_4113" x="12" y="90" width="122" height="32" filterUnits="userSpaceOnUse" color-interpolation-filters="sRGB">
<feFlood flood-opacity="0" result="BackgroundImageFix"/>
<feColorMatrix in="SourceAlpha" type="matrix" values="0 0 0 0 0 0 0 0 0 0 0 0 0 0 0 0 0 0 127 0" result="hardAlpha"/>
<feOffset dy="2"/>
<feGaussianBlur stdDeviation="2"/>
<feComposite in2="hardAlpha" operator="out"/>
<feColorMatrix type="matrix" values="0 0 0 0 0.168627 0 0 0 0 0.168627 0 0 0 0 0.168627 0 0 0 0.24 0"/>
<feBlend mode="normal" in2="BackgroundImageFix" result="effect1_dropShadow_1124_4113"/>
<feBlend mode="normal" in="SourceGraphic" in2="effect1_dropShadow_1124_4113" result="shape"/>
</filter>
<linearGradient id="paint0_linear_1124_4113" x1="44" y1="0" x2="44" y2="24" gradientUnits="userSpaceOnUse">
<stop offset="0.916567" stop-color="#FF1934" stop-opacity="0"/>
<stop offset="0.916667" stop-color="#FF1934"/>
<stop offset="1" stop-color="#FF1934"/>
</linearGradient>
<clipPath id="clip0_1124_4113">
<rect width="24" height="24" fill="white" transform="translate(16 16)"/>
</clipPath>
<clipPath id="clip1_1124_4113">
<rect width="24" height="24" fill="white" transform="translate(482 2)"/>
</clipPath>
<clipPath id="clip2_1124_4113">
<rect width="24" height="24" fill="white" transform="translate(49.5 132)"/>
</clipPath>
<clipPath id="clip3_1124_4113">
<rect width="16" height="16" fill="white" transform="translate(107.5 264)"/>
</clipPath>
<clipPath id="clip4_1124_4113">
<rect width="16" height="16" fill="white" transform="translate(131.5 264)"/>
</clipPath>
<clipPath id="clip5_1124_4113">
<rect width="96" height="96" fill="white" transform="translate(303 150)"/>
</clipPath>
</defs>
</svg>
