<svg width="338" height="375" viewBox="0 0 338 375" fill="none" xmlns="http://www.w3.org/2000/svg">
<rect width="338" height="375" fill="#D3D3D3"/>
<rect x="29" y="60" width="280" height="240" rx="16" fill="white"/>
<g filter="url(#filter0_d_1124_4113)">
<path d="M29 76C29 67.1634 36.1634 60 45 60H293C301.837 60 309 67.1634 309 76V108H29V76Z" fill="#FF1934" shape-rendering="crispEdges"/>
<g clip-path="url(#clip0_1124_4113)">
<path fill-rule="evenodd" clip-rule="evenodd" d="M47 88C47 82.49 51.49 78 57 78C62.51 78 67 82.49 67 88C67 93.51 62.51 98 57 98C51.49 98 47 93.51 47 88ZM48.6 88C48.6 92.63 52.37 96.4 57 96.4C61.63 96.4 65.4 92.63 65.4 88C65.4 83.37 61.63 79.6 57 79.6C52.37 79.6 48.6 83.37 48.6 88ZM57.8 87.2H61C61.44 87.2 61.8 87.56 61.8 88C61.8 88.44 61.44 88.8 61 88.8H57.8V92C57.8 92.44 57.44 92.8 57 92.8C56.56 92.8 56.2 92.44 56.2 92V88.8H53C52.56 88.8 52.2 88.44 52.2 88C52.2 87.56 52.56 87.2 53 87.2H56.2V84C56.2 83.56 56.56 83.2 57 83.2C57.44 83.2 57.8 83.56 57.8 84V87.2Z" fill="white"/>
</g>
<path d="M80.668 88.332H82.936L82.838 87.996C82.5673 87.0813 82.3433 86.302 82.166 85.658C81.998 85.014 81.8953 84.5987 81.858 84.412L81.802 84.132C81.7273 84.6453 81.382 85.9333 80.766 87.996L80.668 88.332ZM84.028 92L83.454 90.068H80.15L79.576 92H77.322L80.472 82.564H83.188L86.338 92H84.028ZM89.55 84.902V86.106C89.7273 85.714 89.998 85.406 90.362 85.182C90.7353 84.9487 91.1787 84.832 91.692 84.832C92.42 84.832 92.9893 85.0513 93.4 85.49C93.8107 85.9193 94.016 86.554 94.016 87.394V92H91.972V87.772C91.972 87.352 91.874 87.0347 91.678 86.82C91.482 86.596 91.2067 86.484 90.852 86.484C90.4787 86.484 90.166 86.6333 89.914 86.932C89.6713 87.2213 89.55 87.66 89.55 88.248V92H87.506V84.902H89.55ZM98.8891 90.376C99.3558 90.376 99.7338 90.194 100.023 89.83C100.312 89.466 100.457 88.9807 100.457 88.374C100.457 87.786 100.298 87.3287 99.9811 87.002C99.6731 86.6753 99.3044 86.512 98.8751 86.512C98.4458 86.512 98.0818 86.6847 97.7831 87.03C97.4938 87.3753 97.3491 87.856 97.3491 88.472C97.3491 89.0413 97.4984 89.5033 97.7971 89.858C98.0958 90.2033 98.4598 90.376 98.8891 90.376ZM100.457 82.102H102.501V92H100.457V90.894C99.9811 91.6873 99.2718 92.084 98.3291 92.084C97.4051 92.084 96.6631 91.7247 96.1031 91.006C95.5524 90.2873 95.2771 89.4287 95.2771 88.43C95.2771 87.31 95.5664 86.428 96.1451 85.784C96.7238 85.14 97.4564 84.818 98.3431 84.818C99.2671 84.818 99.9718 85.21 100.457 85.994V82.102ZM107.7 89.088H107.042C106.696 89.088 106.43 89.1627 106.244 89.312C106.057 89.4613 105.964 89.6527 105.964 89.886C105.964 90.362 106.239 90.6 106.79 90.6C107.079 90.6 107.303 90.5113 107.462 90.334C107.62 90.1567 107.7 89.914 107.7 89.606V89.088ZM104.382 87.086V85.252C104.942 84.9347 105.749 84.776 106.804 84.776C107.812 84.776 108.563 84.9953 109.058 85.434C109.552 85.8633 109.8 86.5353 109.8 87.45V92H107.798V91.132C107.499 91.7387 106.911 92.042 106.034 92.042C105.343 92.042 104.802 91.846 104.41 91.454C104.027 91.062 103.836 90.572 103.836 89.984C103.836 89.3027 104.083 88.7753 104.578 88.402C105.082 88.0193 105.824 87.828 106.804 87.828H107.7V87.338C107.7 86.7407 107.303 86.442 106.51 86.442C105.744 86.442 105.035 86.6567 104.382 87.086ZM114.764 92L115.576 82.564H117.942L119.258 85.98C119.482 86.5493 119.674 87.072 119.832 87.548C119.991 88.024 120.094 88.36 120.14 88.556L120.21 88.836C120.36 88.22 120.686 87.268 121.19 85.98L122.52 82.564H124.886L125.866 92H123.71L123.36 88.346L123.178 85.588C122.936 86.288 122.6 87.2073 122.17 88.346L120.84 91.902H119.566L118.25 88.346C118.036 87.7673 117.854 87.2493 117.704 86.792C117.555 86.3347 117.457 86.0173 117.41 85.84L117.34 85.588C117.34 86.2507 117.298 87.17 117.214 88.346L116.92 92H114.764ZM131.503 87.8V87.632C131.437 86.8013 131.073 86.386 130.411 86.386C130.084 86.386 129.795 86.5073 129.543 86.75C129.291 86.9833 129.123 87.3333 129.039 87.8H131.503ZM132.973 89.886V91.594C132.487 91.9113 131.745 92.07 130.747 92.07C129.58 92.07 128.67 91.734 128.017 91.062C127.373 90.3807 127.051 89.508 127.051 88.444C127.051 87.3147 127.363 86.4327 127.989 85.798C128.623 85.154 129.403 84.832 130.327 84.832C131.279 84.832 132.03 85.112 132.581 85.672C133.131 86.2227 133.407 87.0487 133.407 88.15C133.407 88.3647 133.369 88.7333 133.295 89.256H129.123C129.263 89.648 129.505 89.9513 129.851 90.166C130.196 90.3807 130.611 90.488 131.097 90.488C131.815 90.488 132.441 90.2873 132.973 89.886ZM136.909 84.902V86.106C137.087 85.714 137.357 85.406 137.721 85.182C138.095 84.9487 138.538 84.832 139.051 84.832C139.779 84.832 140.349 85.0513 140.759 85.49C141.17 85.9193 141.375 86.554 141.375 87.394V92H139.331V87.772C139.331 87.352 139.233 87.0347 139.037 86.82C138.841 86.596 138.566 86.484 138.211 86.484C137.838 86.484 137.525 86.6333 137.273 86.932C137.031 87.2213 136.909 87.66 136.909 88.248V92H134.865V84.902H136.909ZM146.5 89.088H145.842C145.497 89.088 145.231 89.1627 145.044 89.312C144.858 89.4613 144.764 89.6527 144.764 89.886C144.764 90.362 145.04 90.6 145.59 90.6C145.88 90.6 146.104 90.5113 146.262 90.334C146.421 90.1567 146.5 89.914 146.5 89.606V89.088ZM143.182 87.086V85.252C143.742 84.9347 144.55 84.776 145.604 84.776C146.612 84.776 147.364 84.9953 147.858 85.434C148.353 85.8633 148.6 86.5353 148.6 87.45V92H146.598V91.132C146.3 91.7387 145.712 92.042 144.834 92.042C144.144 92.042 143.602 91.846 143.21 91.454C142.828 91.062 142.636 90.572 142.636 89.984C142.636 89.3027 142.884 88.7753 143.378 88.402C143.882 88.0193 144.624 87.828 145.604 87.828H146.5V87.338C146.5 86.7407 146.104 86.442 145.31 86.442C144.545 86.442 143.836 86.6567 143.182 87.086ZM152.249 84.902V86.106C152.427 85.714 152.697 85.406 153.061 85.182C153.435 84.9487 153.878 84.832 154.391 84.832C155.119 84.832 155.689 85.0513 156.099 85.49C156.51 85.9193 156.715 86.554 156.715 87.394V92H154.671V87.772C154.671 87.352 154.573 87.0347 154.377 86.82C154.181 86.596 153.906 86.484 153.551 86.484C153.178 86.484 152.865 86.6333 152.613 86.932C152.371 87.2213 152.249 87.66 152.249 88.248V92H150.205V84.902H152.249ZM161.476 90.138C161.915 90.138 162.256 89.9747 162.498 89.648C162.75 89.312 162.876 88.9107 162.876 88.444C162.876 87.1747 162.414 86.54 161.49 86.54C161.08 86.54 160.758 86.6987 160.524 87.016C160.291 87.3333 160.174 87.772 160.174 88.332C160.174 88.92 160.286 89.368 160.51 89.676C160.734 89.984 161.056 90.138 161.476 90.138ZM162.876 84.902H164.906V91.314C164.906 92.4527 164.566 93.3067 163.884 93.876C163.203 94.4547 162.349 94.744 161.322 94.744C160.324 94.744 159.451 94.5667 158.704 94.212V92.126C159.358 92.6487 160.16 92.91 161.112 92.91C161.728 92.91 162.176 92.7793 162.456 92.518C162.736 92.2567 162.876 91.846 162.876 91.286V90.81C162.466 91.4447 161.812 91.762 160.916 91.762C160.132 91.762 159.456 91.4727 158.886 90.894C158.326 90.3153 158.046 89.4567 158.046 88.318C158.046 87.31 158.317 86.4793 158.858 85.826C159.409 85.1633 160.128 84.832 161.014 84.832C161.854 84.832 162.475 85.168 162.876 85.84V84.902ZM175.532 88.36V82.564H177.688V88.346C177.688 89.578 177.342 90.5207 176.652 91.174C175.961 91.818 175.028 92.14 173.852 92.14C172.694 92.14 171.766 91.818 171.066 91.174C170.366 90.53 170.016 89.62 170.016 88.444V82.564H172.172V88.43C172.172 89.5967 172.732 90.18 173.852 90.18C174.972 90.18 175.532 89.5733 175.532 88.36ZM181.411 84.902V86.106C181.589 85.714 181.859 85.406 182.223 85.182C182.597 84.9487 183.04 84.832 183.553 84.832C184.281 84.832 184.851 85.0513 185.261 85.49C185.672 85.9193 185.877 86.554 185.877 87.394V92H183.833V87.772C183.833 87.352 183.735 87.0347 183.539 86.82C183.343 86.596 183.068 86.484 182.713 86.484C182.34 86.484 182.027 86.6333 181.775 86.932C181.533 87.2213 181.411 87.66 181.411 88.248V92H179.367V84.902H181.411ZM190.75 90.376C191.217 90.376 191.595 90.194 191.884 89.83C192.174 89.466 192.318 88.9807 192.318 88.374C192.318 87.786 192.16 87.3287 191.842 87.002C191.534 86.6753 191.166 86.512 190.736 86.512C190.307 86.512 189.943 86.6847 189.644 87.03C189.355 87.3753 189.21 87.856 189.21 88.472C189.21 89.0413 189.36 89.5033 189.658 89.858C189.957 90.2033 190.321 90.376 190.75 90.376ZM192.318 82.102H194.362V92H192.318V90.894C191.842 91.6873 191.133 92.084 190.19 92.084C189.266 92.084 188.524 91.7247 187.964 91.006C187.414 90.2873 187.138 89.4287 187.138 88.43C187.138 87.31 187.428 86.428 188.006 85.784C188.585 85.14 189.318 84.818 190.204 84.818C191.128 84.818 191.833 85.21 192.318 85.994V82.102ZM196.117 92V84.902H198.161V92H196.117ZM196.299 83.684C196.066 83.4507 195.949 83.1707 195.949 82.844C195.949 82.5173 196.066 82.2373 196.299 82.004C196.532 81.7707 196.812 81.654 197.139 81.654C197.466 81.654 197.746 81.7707 197.979 82.004C198.212 82.2373 198.329 82.5173 198.329 82.844C198.329 83.1707 198.212 83.4507 197.979 83.684C197.746 83.9173 197.466 84.034 197.139 84.034C196.812 84.034 196.532 83.9173 196.299 83.684ZM203.43 89.088H202.772C202.427 89.088 202.161 89.1627 201.974 89.312C201.788 89.4613 201.694 89.6527 201.694 89.886C201.694 90.362 201.97 90.6 202.52 90.6C202.81 90.6 203.034 90.5113 203.192 90.334C203.351 90.1567 203.43 89.914 203.43 89.606V89.088ZM200.112 87.086V85.252C200.672 84.9347 201.48 84.776 202.534 84.776C203.542 84.776 204.294 84.9953 204.788 85.434C205.283 85.8633 205.53 86.5353 205.53 87.45V92H203.528V91.132C203.23 91.7387 202.642 92.042 201.764 92.042C201.074 92.042 200.532 91.846 200.14 91.454C199.758 91.062 199.566 90.572 199.566 89.984C199.566 89.3027 199.814 88.7753 200.308 88.402C200.812 88.0193 201.554 87.828 202.534 87.828H203.43V87.338C203.43 86.7407 203.034 86.442 202.24 86.442C201.475 86.442 200.766 86.6567 200.112 87.086ZM209.179 84.902V86.106C209.356 85.714 209.627 85.406 209.991 85.182C210.364 84.9487 210.808 84.832 211.321 84.832C212.049 84.832 212.618 85.0513 213.029 85.49C213.44 85.9193 213.645 86.554 213.645 87.394V92H211.601V87.772C211.601 87.352 211.503 87.0347 211.307 86.82C211.111 86.596 210.836 86.484 210.481 86.484C210.108 86.484 209.795 86.6333 209.543 86.932C209.3 87.2213 209.179 87.66 209.179 88.248V92H207.135V84.902H209.179ZM220.982 90.278H222.116C223.18 90.278 223.712 89.914 223.712 89.186C223.712 88.458 223.185 88.094 222.13 88.094H220.982V90.278ZM220.982 84.286V86.4H221.78C222.34 86.4 222.76 86.2973 223.04 86.092C223.329 85.8867 223.474 85.616 223.474 85.28C223.474 84.6173 223.026 84.286 222.13 84.286H220.982ZM218.826 82.564H222.494C223.53 82.564 224.319 82.8113 224.86 83.306C225.401 83.7913 225.672 84.412 225.672 85.168C225.672 85.6627 225.541 86.0967 225.28 86.47C225.019 86.8433 224.678 87.0953 224.258 87.226C225.35 87.5527 225.896 88.29 225.896 89.438C225.896 90.1847 225.625 90.8007 225.084 91.286C224.552 91.762 223.824 92 222.9 92H218.826V82.564ZM231.335 87.8V87.632C231.269 86.8013 230.905 86.386 230.243 86.386C229.916 86.386 229.627 86.5073 229.375 86.75C229.123 86.9833 228.955 87.3333 228.871 87.8H231.335ZM232.805 89.886V91.594C232.319 91.9113 231.577 92.07 230.579 92.07C229.412 92.07 228.502 91.734 227.849 91.062C227.205 90.3807 226.883 89.508 226.883 88.444C226.883 87.3147 227.195 86.4327 227.821 85.798C228.455 85.154 229.235 84.832 230.159 84.832C231.111 84.832 231.862 85.112 232.413 85.672C232.963 86.2227 233.239 87.0487 233.239 88.15C233.239 88.3647 233.201 88.7333 233.127 89.256H228.955C229.095 89.648 229.337 89.9513 229.683 90.166C230.028 90.3807 230.443 90.488 230.929 90.488C231.647 90.488 232.273 90.2873 232.805 89.886ZM236.727 84.902V86.218C236.858 85.8073 237.073 85.4807 237.371 85.238C237.679 84.986 238.034 84.86 238.435 84.86C238.659 84.86 238.837 84.8787 238.967 84.916V86.848C238.743 86.7453 238.487 86.694 238.197 86.694C237.759 86.694 237.404 86.8573 237.133 87.184C236.863 87.5013 236.727 87.926 236.727 88.458V92H234.683L234.697 84.902H236.727ZM241.923 82.102V86.106C242.287 85.2567 242.996 84.832 244.051 84.832C244.742 84.832 245.302 85.0513 245.731 85.49C246.17 85.9287 246.389 86.5913 246.389 87.478V92H244.345V87.8C244.345 87.3893 244.242 87.0673 244.037 86.834C243.832 86.6007 243.566 86.484 243.239 86.484C243.099 86.484 242.964 86.5073 242.833 86.554C242.712 86.5913 242.576 86.666 242.427 86.778C242.278 86.8807 242.156 87.0627 242.063 87.324C241.97 87.576 241.923 87.884 241.923 88.248V92H239.879V82.102H241.923ZM251.514 89.088H250.856C250.511 89.088 250.245 89.1627 250.058 89.312C249.871 89.4613 249.778 89.6527 249.778 89.886C249.778 90.362 250.053 90.6 250.604 90.6C250.893 90.6 251.117 90.5113 251.276 90.334C251.435 90.1567 251.514 89.914 251.514 89.606V89.088ZM248.196 87.086V85.252C248.756 84.9347 249.563 84.776 250.618 84.776C251.626 84.776 252.377 84.9953 252.872 85.434C253.367 85.8633 253.614 86.5353 253.614 87.45V92H251.612V91.132C251.313 91.7387 250.725 92.042 249.848 92.042C249.157 92.042 248.616 91.846 248.224 91.454C247.841 91.062 247.65 90.572 247.65 89.984C247.65 89.3027 247.897 88.7753 248.392 88.402C248.896 88.0193 249.638 87.828 250.618 87.828H251.514V87.338C251.514 86.7407 251.117 86.442 250.324 86.442C249.559 86.442 248.849 86.6567 248.196 87.086ZM258.481 90.376C258.948 90.376 259.326 90.194 259.615 89.83C259.904 89.466 260.049 88.9807 260.049 88.374C260.049 87.786 259.89 87.3287 259.573 87.002C259.265 86.6753 258.896 86.512 258.467 86.512C258.038 86.512 257.674 86.6847 257.375 87.03C257.086 87.3753 256.941 87.856 256.941 88.472C256.941 89.0413 257.09 89.5033 257.389 89.858C257.688 90.2033 258.052 90.376 258.481 90.376ZM260.049 82.102H262.093V92H260.049V90.894C259.573 91.6873 258.864 92.084 257.921 92.084C256.997 92.084 256.255 91.7247 255.695 91.006C255.144 90.2873 254.869 89.4287 254.869 88.43C254.869 87.31 255.158 86.428 255.737 85.784C256.316 85.14 257.048 84.818 257.935 84.818C258.859 84.818 259.564 85.21 260.049 85.994V82.102ZM263.848 92V84.902H265.892V92H263.848ZM264.03 83.684C263.796 83.4507 263.68 83.1707 263.68 82.844C263.68 82.5173 263.796 82.2373 264.03 82.004C264.263 81.7707 264.543 81.654 264.87 81.654C265.196 81.654 265.476 81.7707 265.71 82.004C265.943 82.2373 266.06 82.5173 266.06 82.844C266.06 83.1707 265.943 83.4507 265.71 83.684C265.476 83.9173 265.196 84.034 264.87 84.034C264.543 84.034 264.263 83.9173 264.03 83.684ZM271.161 89.088H270.503C270.157 89.088 269.891 89.1627 269.705 89.312C269.518 89.4613 269.425 89.6527 269.425 89.886C269.425 90.362 269.7 90.6 270.251 90.6C270.54 90.6 270.764 90.5113 270.923 90.334C271.081 90.1567 271.161 89.914 271.161 89.606V89.088ZM267.843 87.086V85.252C268.403 84.9347 269.21 84.776 270.265 84.776C271.273 84.776 272.024 84.9953 272.519 85.434C273.013 85.8633 273.261 86.5353 273.261 87.45V92H271.259V91.132C270.96 91.7387 270.372 92.042 269.495 92.042C268.804 92.042 268.263 91.846 267.871 91.454C267.488 91.062 267.297 90.572 267.297 89.984C267.297 89.3027 267.544 88.7753 268.039 88.402C268.543 88.0193 269.285 87.828 270.265 87.828H271.161V87.338C271.161 86.7407 270.764 86.442 269.971 86.442C269.205 86.442 268.496 86.6567 267.843 87.086ZM276.909 82.102V86.106C277.273 85.2567 277.983 84.832 279.037 84.832C279.728 84.832 280.288 85.0513 280.717 85.49C281.156 85.9287 281.375 86.5913 281.375 87.478V92H279.331V87.8C279.331 87.3893 279.229 87.0673 279.023 86.834C278.818 86.6007 278.552 86.484 278.225 86.484C278.085 86.484 277.95 86.5073 277.819 86.554C277.698 86.5913 277.563 86.666 277.413 86.778C277.264 86.8807 277.143 87.0627 277.049 87.324C276.956 87.576 276.909 87.884 276.909 88.248V92H274.865V82.102H276.909Z" fill="white"/>
</g>
<g clip-path="url(#clip1_1124_4113)">
<path d="M169 182.65C160.604 182.65 152.56 183.191 150.726 183.994C148.432 184.997 156.353 186.017 169 186.017C181.647 186.017 189.568 184.997 187.274 183.994C185.44 183.192 177.396 182.65 169 182.65Z" fill="#CCCCCC"/>
<path d="M172.908 150.177L177.215 153.119L177.882 152.636L173.114 149.38L172.908 150.177Z" fill="#D9AA16"/>
<path d="M159.1 175.018C167.439 180.713 177.722 180.173 182.067 173.812C186.412 167.45 183.174 157.675 174.834 151.98C166.495 146.284 156.212 146.824 151.867 153.186C147.522 159.548 150.76 169.322 159.1 175.018Z" fill="#DA011C"/>
<path d="M159.615 174.477C162.544 176.457 165.955 177.775 169.456 178.08C172.958 178.384 176.016 177.63 178.346 176.109L166.967 163.498L159.614 174.476L159.615 174.477Z" fill="#FF1934"/>
<path d="M178.267 176.161C180.617 174.661 182.289 172.362 182.875 169.418C183.46 166.475 182.872 163.335 181.402 160.414L166.967 163.499L178.267 176.161Z" fill="#D9AA16"/>
<path d="M151.062 157.581C150.515 160.314 150.949 163.44 152.53 166.585C154.11 169.731 156.595 172.419 159.516 174.411L166.968 163.5L151.062 157.581L151.062 157.581Z" fill="#1699D9"/>
<path d="M181.402 160.414C179.937 157.491 177.562 154.733 174.42 152.586C171.278 150.44 167.844 149.232 164.589 148.93L166.967 163.499L181.402 160.414Z" fill="#CC0BD9"/>
<path d="M164.478 148.92C161.225 148.635 158.097 149.251 155.586 150.887C153.075 152.523 151.562 154.93 151.043 157.674L166.967 163.5L164.478 148.92Z" fill="#008C1E"/>
<path d="M151.041 157.672L166.796 163.535L159.416 174.342C159.449 174.364 159.48 174.389 159.514 174.411C159.547 174.434 159.581 174.455 159.614 174.477L166.995 163.671L178.188 176.213C178.242 176.18 178.297 176.148 178.35 176.113L167.155 163.569L181.453 160.512C181.42 160.446 181.385 160.38 181.352 160.314L167.055 163.37L164.7 148.941C164.626 148.934 164.551 148.924 164.478 148.919L166.833 163.349L151.075 157.485C151.062 157.547 151.053 157.61 151.041 157.672Z" fill="white"/>
<g style="mix-blend-mode:multiply" opacity="0.32">
<path d="M159.514 174.411C167.415 179.807 177.156 179.296 181.272 173.269C185.388 167.242 182.321 157.982 174.42 152.586C166.52 147.19 156.778 147.702 152.662 153.729C148.546 159.756 151.613 169.016 159.514 174.411ZM174.006 153.192C181.468 158.288 184.365 167.034 180.478 172.726C176.59 178.419 167.39 178.902 159.928 173.806C152.466 168.709 149.569 159.964 153.457 154.271C157.344 148.579 166.544 148.096 174.006 153.192Z" fill="#2B2B2B"/>
</g>
<path d="M166.139 164.711C167.017 165.311 168.099 165.254 168.556 164.584C169.014 163.915 168.673 162.886 167.795 162.287C166.918 161.687 165.835 161.744 165.378 162.414C164.921 163.083 165.262 164.112 166.139 164.711Z" fill="white"/>
<path d="M177.882 152.636C177.511 151.742 176.864 150.921 175.973 150.313C175.082 149.704 174.081 149.4 173.114 149.38L173.489 153.95L177.882 152.636Z" fill="#D9AA16"/>
<path d="M173.114 149.38L172.908 150.177L173.196 150.374L173.114 149.38Z" fill="#D9AA16"/>
<path d="M177.215 153.118C177.215 153.118 177.465 152.937 177.549 152.877C177.633 152.817 177.554 152.734 177.444 152.767C177.315 152.805 176.927 152.921 176.927 152.921L177.215 153.118L177.215 153.118Z" fill="#B76F09"/>
<path d="M172.907 150.177C172.907 150.177 172.985 149.878 173.011 149.778C173.037 149.678 173.143 149.721 173.152 149.835C173.163 149.97 173.196 150.373 173.196 150.373L172.908 150.177L172.907 150.177Z" fill="#B76F09"/>
<path d="M175.766 150.617C176.426 151.067 176.954 151.662 177.309 152.35L173.882 153.375L173.59 149.81C174.36 149.89 175.106 150.166 175.766 150.617Z" fill="white"/>
</g>
<path d="M77.81 208.26H78.62V215H77.81V211.95H74.54V215H73.73V208.26H74.54V211.22H77.81V208.26ZM82.1757 215.09C81.4491 215.09 80.8724 214.847 80.4457 214.36C80.0257 213.867 79.8157 213.247 79.8157 212.5C79.8157 211.747 80.0324 211.12 80.4657 210.62C80.9057 210.113 81.4757 209.86 82.1757 209.86C82.9424 209.86 83.5324 210.107 83.9457 210.6C84.3657 211.093 84.5757 211.72 84.5757 212.48C84.5757 213.233 84.3624 213.857 83.9357 214.35C83.5091 214.843 82.9224 215.09 82.1757 215.09ZM82.1757 210.56C81.6957 210.56 81.3191 210.747 81.0457 211.12C80.7724 211.493 80.6357 211.95 80.6357 212.49C80.6357 213.017 80.7757 213.467 81.0557 213.84C81.3357 214.207 81.7091 214.39 82.1757 214.39C82.6824 214.39 83.0724 214.21 83.3457 213.85C83.6191 213.483 83.7557 213.03 83.7557 212.49C83.7557 211.93 83.6257 211.47 83.3657 211.11C83.1057 210.743 82.7091 210.56 82.1757 210.56ZM86.511 209.93V210.82C86.7776 210.193 87.2376 209.88 87.891 209.88C88.011 209.88 88.1043 209.887 88.171 209.9V210.68C88.031 210.633 87.8876 210.61 87.741 210.61C87.3876 210.61 87.0943 210.773 86.861 211.1C86.6276 211.427 86.511 211.803 86.511 212.23V215H85.721L85.731 209.93H86.511ZM92.2227 212.14V211.94C92.2227 211.52 92.1094 211.187 91.8827 210.94C91.656 210.687 91.3427 210.56 90.9427 210.56C90.5627 210.56 90.2394 210.697 89.9727 210.97C89.706 211.243 89.5494 211.633 89.5027 212.14H92.2227ZM92.6927 214V214.74C92.2994 214.947 91.8194 215.05 91.2527 215.05C90.486 215.05 89.866 214.817 89.3927 214.35C88.926 213.877 88.6927 213.253 88.6927 212.48C88.6927 211.673 88.9027 211.037 89.3227 210.57C89.7427 210.103 90.2827 209.87 90.9427 209.87C91.576 209.87 92.0794 210.073 92.4527 210.48C92.826 210.887 93.0127 211.463 93.0127 212.21C93.0127 212.423 92.996 212.62 92.9627 212.8H89.5027C89.5627 213.3 89.7527 213.683 90.0727 213.95C90.3927 214.217 90.8127 214.35 91.3327 214.35C91.8994 214.35 92.3527 214.233 92.6927 214ZM94.3573 212.96V208.26H95.1273V212.96H94.3573ZM94.1373 214.49C94.1373 214.33 94.194 214.193 94.3073 214.08C94.4206 213.96 94.5606 213.9 94.7273 213.9C94.894 213.9 95.034 213.96 95.1473 214.08C95.2673 214.193 95.3273 214.33 95.3273 214.49C95.3273 214.657 95.2706 214.797 95.1573 214.91C95.044 215.023 94.9006 215.08 94.7273 215.08C94.554 215.08 94.4106 215.023 94.2973 214.91C94.1906 214.797 94.1373 214.657 94.1373 214.49ZM100.488 212.54H102.878L102.748 212.15L101.698 208.91C101.618 209.197 101.258 210.28 100.618 212.16L100.488 212.54ZM103.698 215L103.108 213.23H100.258L99.6585 215H98.7885L101.138 208.26H102.258L104.568 215H103.698ZM106.433 209.93V210.81C106.733 210.177 107.266 209.86 108.033 209.86C108.526 209.86 108.92 210.01 109.213 210.31C109.506 210.61 109.653 211.01 109.653 211.51V215H108.863V211.72C108.863 211.347 108.766 211.063 108.573 210.87C108.386 210.67 108.14 210.57 107.833 210.57C107.453 210.57 107.123 210.717 106.843 211.01C106.57 211.303 106.433 211.71 106.433 212.23V215H105.653V209.93H106.433ZM112.983 214.36C113.397 214.36 113.747 214.207 114.033 213.9C114.327 213.593 114.473 213.103 114.473 212.43C114.473 211.79 114.323 211.32 114.023 211.02C113.723 210.72 113.393 210.57 113.033 210.57C112.613 210.57 112.263 210.74 111.983 211.08C111.71 211.413 111.573 211.893 111.573 212.52C111.573 213.067 111.707 213.51 111.973 213.85C112.24 214.19 112.577 214.36 112.983 214.36ZM114.473 207.93H115.263V215H114.473V214.25C114.113 214.803 113.593 215.08 112.913 215.08C112.24 215.08 111.71 214.83 111.323 214.33C110.943 213.83 110.753 213.223 110.753 212.51C110.753 211.717 110.957 211.077 111.363 210.59C111.77 210.097 112.293 209.85 112.933 209.85C113.593 209.85 114.107 210.133 114.473 210.7V207.93ZM119.457 212.66H118.577C118.15 212.66 117.83 212.743 117.617 212.91C117.404 213.077 117.297 213.287 117.297 213.54C117.297 213.793 117.38 214 117.547 214.16C117.714 214.313 117.957 214.39 118.277 214.39C118.637 214.39 118.924 214.29 119.137 214.09C119.35 213.883 119.457 213.623 119.457 213.31V212.66ZM116.837 210.99V210.2C117.217 209.967 117.717 209.85 118.337 209.85C119.61 209.85 120.247 210.497 120.247 211.79V215H119.467V214.4C119.207 214.833 118.734 215.05 118.047 215.05C117.574 215.05 117.19 214.91 116.897 214.63C116.61 214.35 116.467 213.997 116.467 213.57C116.467 213.083 116.65 212.707 117.017 212.44C117.39 212.167 117.897 212.03 118.537 212.03H119.457V211.77C119.457 211.37 119.367 211.07 119.187 210.87C119.007 210.663 118.704 210.56 118.277 210.56C117.737 210.56 117.257 210.703 116.837 210.99ZM124.87 209.93V210.75C125.15 210.157 125.627 209.86 126.3 209.86C127.08 209.86 127.574 210.19 127.78 210.85C127.927 210.53 128.13 210.287 128.39 210.12C128.657 209.947 128.954 209.86 129.28 209.86C129.807 209.86 130.204 210.01 130.47 210.31C130.737 210.61 130.87 211.013 130.87 211.52V215H130.08V211.72C130.08 210.953 129.757 210.57 129.11 210.57C128.79 210.57 128.504 210.717 128.25 211.01C127.997 211.297 127.87 211.703 127.87 212.23V215H127.08V211.72C127.08 210.953 126.757 210.57 126.11 210.57C125.79 210.57 125.504 210.717 125.25 211.01C124.997 211.297 124.87 211.703 124.87 212.23V215H124.09V209.93H124.87ZM135.504 212.14V211.94C135.504 211.52 135.391 211.187 135.164 210.94C134.937 210.687 134.624 210.56 134.224 210.56C133.844 210.56 133.521 210.697 133.254 210.97C132.987 211.243 132.831 211.633 132.784 212.14H135.504ZM135.974 214V214.74C135.581 214.947 135.101 215.05 134.534 215.05C133.767 215.05 133.147 214.817 132.674 214.35C132.207 213.877 131.974 213.253 131.974 212.48C131.974 211.673 132.184 211.037 132.604 210.57C133.024 210.103 133.564 209.87 134.224 209.87C134.857 209.87 135.361 210.073 135.734 210.48C136.107 210.887 136.294 211.463 136.294 212.21C136.294 212.423 136.277 212.62 136.244 212.8H132.784C132.844 213.3 133.034 213.683 133.354 213.95C133.674 214.217 134.094 214.35 134.614 214.35C135.181 214.35 135.634 214.233 135.974 214ZM138.279 209.93V210.81C138.579 210.177 139.112 209.86 139.879 209.86C140.372 209.86 140.765 210.01 141.059 210.31C141.352 210.61 141.499 211.01 141.499 211.51V215H140.709V211.72C140.709 211.347 140.612 211.063 140.419 210.87C140.232 210.67 139.985 210.57 139.679 210.57C139.299 210.57 138.969 210.717 138.689 211.01C138.415 211.303 138.279 211.71 138.279 212.23V215H137.499V209.93H138.279ZM144.829 214.36C145.242 214.36 145.592 214.207 145.879 213.9C146.172 213.593 146.319 213.103 146.319 212.43C146.319 211.79 146.169 211.32 145.869 211.02C145.569 210.72 145.239 210.57 144.879 210.57C144.459 210.57 144.109 210.74 143.829 211.08C143.556 211.413 143.419 211.893 143.419 212.52C143.419 213.067 143.552 213.51 143.819 213.85C144.086 214.19 144.422 214.36 144.829 214.36ZM146.319 207.93H147.109V215H146.319V214.25C145.959 214.803 145.439 215.08 144.759 215.08C144.086 215.08 143.556 214.83 143.169 214.33C142.789 213.83 142.599 213.223 142.599 212.51C142.599 211.717 142.802 211.077 143.209 210.59C143.616 210.097 144.139 209.85 144.779 209.85C145.439 209.85 145.952 210.133 146.319 210.7V207.93ZM151.303 212.66H150.423C149.996 212.66 149.676 212.743 149.463 212.91C149.249 213.077 149.143 213.287 149.143 213.54C149.143 213.793 149.226 214 149.393 214.16C149.559 214.313 149.803 214.39 150.123 214.39C150.483 214.39 150.769 214.29 150.983 214.09C151.196 213.883 151.303 213.623 151.303 213.31V212.66ZM148.683 210.99V210.2C149.063 209.967 149.563 209.85 150.183 209.85C151.456 209.85 152.093 210.497 152.093 211.79V215H151.313V214.4C151.053 214.833 150.579 215.05 149.893 215.05C149.419 215.05 149.036 214.91 148.743 214.63C148.456 214.35 148.313 213.997 148.313 213.57C148.313 213.083 148.496 212.707 148.863 212.44C149.236 212.167 149.743 212.03 150.383 212.03H151.303V211.77C151.303 211.37 151.213 211.07 151.033 210.87C150.853 210.663 150.549 210.56 150.123 210.56C149.583 210.56 149.103 210.703 148.683 210.99ZM155.725 214.36C156.151 214.36 156.501 214.193 156.775 213.86C157.048 213.52 157.185 213.04 157.185 212.42C157.185 211.867 157.051 211.42 156.785 211.08C156.518 210.74 156.181 210.57 155.775 210.57C155.368 210.57 155.015 210.72 154.715 211.02C154.421 211.313 154.275 211.797 154.275 212.47C154.275 213.117 154.425 213.593 154.725 213.9C155.025 214.207 155.358 214.36 155.725 214.36ZM154.275 209.93V210.7C154.628 210.133 155.151 209.85 155.845 209.85C156.518 209.85 157.045 210.097 157.425 210.59C157.811 211.077 158.005 211.687 158.005 212.42C158.005 213.2 157.801 213.84 157.395 214.34C156.995 214.833 156.471 215.08 155.825 215.08C155.158 215.08 154.641 214.797 154.275 214.23V216.97H153.495V209.93H154.275ZM161.898 212.66H161.018C160.592 212.66 160.272 212.743 160.058 212.91C159.845 213.077 159.738 213.287 159.738 213.54C159.738 213.793 159.822 214 159.988 214.16C160.155 214.313 160.398 214.39 160.718 214.39C161.078 214.39 161.365 214.29 161.578 214.09C161.792 213.883 161.898 213.623 161.898 213.31V212.66ZM159.278 210.99V210.2C159.658 209.967 160.158 209.85 160.778 209.85C162.052 209.85 162.688 210.497 162.688 211.79V215H161.908V214.4C161.648 214.833 161.175 215.05 160.488 215.05C160.015 215.05 159.632 214.91 159.338 214.63C159.052 214.35 158.908 213.997 158.908 213.57C158.908 213.083 159.092 212.707 159.458 212.44C159.832 212.167 160.338 212.03 160.978 212.03H161.898V211.77C161.898 211.37 161.808 211.07 161.628 210.87C161.448 210.663 161.145 210.56 160.718 210.56C160.178 210.56 159.698 210.703 159.278 210.99ZM165.18 210.57V213.54C165.18 214.08 165.434 214.35 165.94 214.35C166.2 214.35 166.43 214.273 166.63 214.12V214.87C166.41 214.99 166.164 215.05 165.89 215.05C164.89 215.05 164.39 214.54 164.39 213.52V210.57H163.58V209.93H164.39V208.67H165.18V209.93H166.58V210.57H165.18ZM167.782 215V207.97H168.562V215H167.782ZM169.592 212.34L171.652 215H170.702L168.662 212.34L170.652 209.93H171.592L169.592 212.34ZM175.316 212.66H174.436C174.01 212.66 173.69 212.743 173.476 212.91C173.263 213.077 173.156 213.287 173.156 213.54C173.156 213.793 173.24 214 173.406 214.16C173.573 214.313 173.816 214.39 174.136 214.39C174.496 214.39 174.783 214.29 174.996 214.09C175.21 213.883 175.316 213.623 175.316 213.31V212.66ZM172.696 210.99V210.2C173.076 209.967 173.576 209.85 174.196 209.85C175.47 209.85 176.106 210.497 176.106 211.79V215H175.326V214.4C175.066 214.833 174.593 215.05 173.906 215.05C173.433 215.05 173.05 214.91 172.756 214.63C172.47 214.35 172.326 213.997 172.326 213.57C172.326 213.083 172.51 212.707 172.876 212.44C173.25 212.167 173.756 212.03 174.396 212.03H175.316V211.77C175.316 211.37 175.226 211.07 175.046 210.87C174.866 210.663 174.563 210.56 174.136 210.56C173.596 210.56 173.116 210.703 172.696 210.99ZM178.288 209.93V210.81C178.588 210.177 179.122 209.86 179.888 209.86C180.382 209.86 180.775 210.01 181.068 210.31C181.362 210.61 181.508 211.01 181.508 211.51V215H180.718V211.72C180.718 211.347 180.622 211.063 180.428 210.87C180.242 210.67 179.995 210.57 179.688 210.57C179.308 210.57 178.978 210.717 178.698 211.01C178.425 211.303 178.288 211.71 178.288 212.23V215H177.508V209.93H178.288ZM188.5 209.93H189.29V215H188.5V214.12C188.233 214.747 187.703 215.06 186.91 215.06C186.41 215.06 186.013 214.913 185.72 214.62C185.433 214.32 185.29 213.92 185.29 213.42V209.93H186.08V213.22C186.08 213.587 186.173 213.867 186.36 214.06C186.547 214.253 186.8 214.35 187.12 214.35C187.54 214.35 187.873 214.203 188.12 213.91C188.373 213.617 188.5 213.22 188.5 212.72V209.93ZM193.481 212.66H192.601C192.174 212.66 191.854 212.743 191.641 212.91C191.427 213.077 191.321 213.287 191.321 213.54C191.321 213.793 191.404 214 191.571 214.16C191.737 214.313 191.981 214.39 192.301 214.39C192.661 214.39 192.947 214.29 193.161 214.09C193.374 213.883 193.481 213.623 193.481 213.31V212.66ZM190.861 210.99V210.2C191.241 209.967 191.741 209.85 192.361 209.85C193.634 209.85 194.271 210.497 194.271 211.79V215H193.491V214.4C193.231 214.833 192.757 215.05 192.071 215.05C191.597 215.05 191.214 214.91 190.921 214.63C190.634 214.35 190.491 213.997 190.491 213.57C190.491 213.083 190.674 212.707 191.041 212.44C191.414 212.167 191.921 212.03 192.561 212.03H193.481V211.77C193.481 211.37 193.391 211.07 193.211 210.87C193.031 210.663 192.727 210.56 192.301 210.56C191.761 210.56 191.281 210.703 190.861 210.99ZM196.452 209.93V210.81C196.752 210.177 197.286 209.86 198.052 209.86C198.546 209.86 198.939 210.01 199.232 210.31C199.526 210.61 199.672 211.01 199.672 211.51V215H198.882V211.72C198.882 211.347 198.786 211.063 198.592 210.87C198.406 210.67 198.159 210.57 197.852 210.57C197.472 210.57 197.142 210.717 196.862 211.01C196.589 211.303 196.452 211.71 196.452 212.23V215H195.672V209.93H196.452ZM202.973 214.17C203.339 214.17 203.663 214.03 203.943 213.75C204.229 213.463 204.373 213.04 204.373 212.48C204.373 211.833 204.236 211.353 203.963 211.04C203.689 210.727 203.373 210.57 203.013 210.57C202.579 210.57 202.236 210.743 201.983 211.09C201.729 211.43 201.603 211.877 201.603 212.43C201.603 212.997 201.743 213.43 202.023 213.73C202.303 214.023 202.619 214.17 202.973 214.17ZM204.373 209.93H205.163V214.59C205.163 215.363 204.949 215.943 204.523 216.33C204.096 216.723 203.546 216.92 202.873 216.92C202.259 216.92 201.736 216.817 201.303 216.61V215.82C201.729 216.067 202.229 216.19 202.803 216.19C203.289 216.19 203.673 216.06 203.953 215.8C204.233 215.54 204.373 215.133 204.373 214.58V214.01C204.039 214.583 203.543 214.87 202.883 214.87C202.303 214.87 201.806 214.657 201.393 214.23C200.986 213.803 200.783 213.21 200.783 212.45C200.783 211.697 200.973 211.077 201.353 210.59C201.733 210.103 202.229 209.86 202.843 209.86C203.536 209.86 204.046 210.163 204.373 210.77V209.93ZM210.092 210.57V213.54C210.092 214.08 210.346 214.35 210.852 214.35C211.112 214.35 211.342 214.273 211.542 214.12V214.87C211.322 214.99 211.076 215.05 210.802 215.05C209.802 215.05 209.302 214.54 209.302 213.52V210.57H208.492V209.93H209.302V208.67H210.092V209.93H211.492V210.57H210.092ZM215.844 209.93H216.634V215H215.844V214.12C215.577 214.747 215.047 215.06 214.254 215.06C213.754 215.06 213.357 214.913 213.064 214.62C212.777 214.32 212.634 213.92 212.634 213.42V209.93H213.424V213.22C213.424 213.587 213.517 213.867 213.704 214.06C213.891 214.253 214.144 214.35 214.464 214.35C214.884 214.35 215.217 214.203 215.464 213.91C215.717 213.617 215.844 213.22 215.844 212.72V209.93ZM218.874 209.93V210.81C219.174 210.177 219.708 209.86 220.474 209.86C220.968 209.86 221.361 210.01 221.654 210.31C221.948 210.61 222.094 211.01 222.094 211.51V215H221.304V211.72C221.304 211.347 221.208 211.063 221.014 210.87C220.828 210.67 220.581 210.57 220.274 210.57C219.894 210.57 219.564 210.717 219.284 211.01C219.011 211.303 218.874 211.71 218.874 212.23V215H218.094V209.93H218.874ZM226.225 212.66H225.345C224.918 212.66 224.598 212.743 224.385 212.91C224.171 213.077 224.065 213.287 224.065 213.54C224.065 213.793 224.148 214 224.315 214.16C224.481 214.313 224.725 214.39 225.045 214.39C225.405 214.39 225.691 214.29 225.905 214.09C226.118 213.883 226.225 213.623 226.225 213.31V212.66ZM223.605 210.99V210.2C223.985 209.967 224.485 209.85 225.105 209.85C226.378 209.85 227.015 210.497 227.015 211.79V215H226.235V214.4C225.975 214.833 225.501 215.05 224.815 215.05C224.341 215.05 223.958 214.91 223.665 214.63C223.378 214.35 223.235 213.997 223.235 213.57C223.235 213.083 223.418 212.707 223.785 212.44C224.158 212.167 224.665 212.03 225.305 212.03H226.225V211.77C226.225 211.37 226.135 211.07 225.955 210.87C225.775 210.663 225.471 210.56 225.045 210.56C224.505 210.56 224.025 210.703 223.605 210.99ZM228.457 215V209.93H229.247V215H228.457ZM228.477 208.71C228.383 208.61 228.337 208.487 228.337 208.34C228.337 208.193 228.383 208.07 228.477 207.97C228.577 207.87 228.7 207.82 228.847 207.82C228.993 207.82 229.117 207.87 229.217 207.97C229.317 208.07 229.367 208.193 229.367 208.34C229.367 208.487 229.317 208.61 229.217 208.71C229.117 208.803 228.993 208.85 228.847 208.85C228.7 208.85 228.577 208.803 228.477 208.71ZM235.952 210.1V210.85C235.645 210.663 235.225 210.57 234.692 210.57C234.425 210.57 234.212 210.633 234.052 210.76C233.899 210.88 233.822 211.037 233.822 211.23C233.822 211.35 233.845 211.457 233.892 211.55C233.939 211.637 234.029 211.723 234.162 211.81C234.302 211.897 234.402 211.957 234.462 211.99C234.529 212.017 234.669 212.077 234.882 212.17C235.309 212.343 235.642 212.54 235.882 212.76C236.122 212.98 236.242 213.277 236.242 213.65C236.242 214.083 236.089 214.427 235.782 214.68C235.482 214.933 235.069 215.06 234.542 215.06C233.929 215.06 233.432 214.957 233.052 214.75V213.98C233.499 214.247 233.979 214.38 234.492 214.38C234.799 214.38 235.032 214.32 235.192 214.2C235.352 214.08 235.432 213.917 235.432 213.71C235.432 213.47 235.342 213.283 235.162 213.15C234.989 213.017 234.695 212.867 234.282 212.7C233.902 212.553 233.595 212.37 233.362 212.15C233.135 211.93 233.022 211.633 233.022 211.26C233.022 210.84 233.179 210.507 233.492 210.26C233.812 210.007 234.209 209.88 234.682 209.88C235.209 209.88 235.632 209.953 235.952 210.1ZM240.543 212.14V211.94C240.543 211.52 240.43 211.187 240.203 210.94C239.976 210.687 239.663 210.56 239.263 210.56C238.883 210.56 238.56 210.697 238.293 210.97C238.026 211.243 237.87 211.633 237.823 212.14H240.543ZM241.013 214V214.74C240.62 214.947 240.14 215.05 239.573 215.05C238.806 215.05 238.186 214.817 237.713 214.35C237.246 213.877 237.013 213.253 237.013 212.48C237.013 211.673 237.223 211.037 237.643 210.57C238.063 210.103 238.603 209.87 239.263 209.87C239.896 209.87 240.4 210.073 240.773 210.48C241.146 210.887 241.333 211.463 241.333 212.21C241.333 212.423 241.316 212.62 241.283 212.8H237.823C237.883 213.3 238.073 213.683 238.393 213.95C238.713 214.217 239.133 214.35 239.653 214.35C240.22 214.35 240.673 214.233 241.013 214ZM244.848 214.36C245.254 214.36 245.591 214.19 245.858 213.85C246.124 213.51 246.258 213.067 246.258 212.52C246.258 211.893 246.118 211.413 245.838 211.08C245.564 210.74 245.218 210.57 244.798 210.57C244.438 210.57 244.108 210.72 243.808 211.02C243.508 211.32 243.358 211.79 243.358 212.43C243.358 213.103 243.501 213.593 243.788 213.9C244.081 214.207 244.434 214.36 244.848 214.36ZM243.358 207.93V210.69C243.724 210.13 244.238 209.85 244.898 209.85C245.538 209.85 246.061 210.097 246.468 210.59C246.874 211.077 247.078 211.717 247.078 212.51C247.078 213.223 246.884 213.83 246.498 214.33C246.118 214.83 245.591 215.08 244.918 215.08C244.238 215.08 243.718 214.803 243.358 214.25V215H242.568V207.93H243.358ZM251.471 212.14V211.94C251.471 211.52 251.357 211.187 251.131 210.94C250.904 210.687 250.591 210.56 250.191 210.56C249.811 210.56 249.487 210.697 249.221 210.97C248.954 211.243 248.797 211.633 248.751 212.14H251.471ZM251.941 214V214.74C251.547 214.947 251.067 215.05 250.501 215.05C249.734 215.05 249.114 214.817 248.641 214.35C248.174 213.877 247.941 213.253 247.941 212.48C247.941 211.673 248.151 211.037 248.571 210.57C248.991 210.103 249.531 209.87 250.191 209.87C250.824 209.87 251.327 210.073 251.701 210.48C252.074 210.887 252.261 211.463 252.261 212.21C252.261 212.423 252.244 212.62 252.211 212.8H248.751C248.811 213.3 249.001 213.683 249.321 213.95C249.641 214.217 250.061 214.35 250.581 214.35C251.147 214.35 251.601 214.233 251.941 214ZM256.225 210.1V210.85C255.919 210.663 255.499 210.57 254.965 210.57C254.699 210.57 254.485 210.633 254.325 210.76C254.172 210.88 254.095 211.037 254.095 211.23C254.095 211.35 254.119 211.457 254.165 211.55C254.212 211.637 254.302 211.723 254.435 211.81C254.575 211.897 254.675 211.957 254.735 211.99C254.802 212.017 254.942 212.077 255.155 212.17C255.582 212.343 255.915 212.54 256.155 212.76C256.395 212.98 256.515 213.277 256.515 213.65C256.515 214.083 256.362 214.427 256.055 214.68C255.755 214.933 255.342 215.06 254.815 215.06C254.202 215.06 253.705 214.957 253.325 214.75V213.98C253.772 214.247 254.252 214.38 254.765 214.38C255.072 214.38 255.305 214.32 255.465 214.2C255.625 214.08 255.705 213.917 255.705 213.71C255.705 213.47 255.615 213.283 255.435 213.15C255.262 213.017 254.969 212.867 254.555 212.7C254.175 212.553 253.869 212.37 253.635 212.15C253.409 211.93 253.295 211.633 253.295 211.26C253.295 210.84 253.452 210.507 253.765 210.26C254.085 210.007 254.482 209.88 254.955 209.88C255.482 209.88 255.905 209.953 256.225 210.1ZM260.316 212.66H259.436C259.01 212.66 258.69 212.743 258.476 212.91C258.263 213.077 258.156 213.287 258.156 213.54C258.156 213.793 258.24 214 258.406 214.16C258.573 214.313 258.816 214.39 259.136 214.39C259.496 214.39 259.783 214.29 259.996 214.09C260.21 213.883 260.316 213.623 260.316 213.31V212.66ZM257.696 210.99V210.2C258.076 209.967 258.576 209.85 259.196 209.85C260.47 209.85 261.106 210.497 261.106 211.79V215H260.326V214.4C260.066 214.833 259.593 215.05 258.906 215.05C258.433 215.05 258.05 214.91 257.756 214.63C257.47 214.35 257.326 213.997 257.326 213.57C257.326 213.083 257.51 212.707 257.876 212.44C258.25 212.167 258.756 212.03 259.396 212.03H260.316V211.77C260.316 211.37 260.226 211.07 260.046 210.87C259.866 210.663 259.563 210.56 259.136 210.56C258.596 210.56 258.116 210.703 257.696 210.99ZM263.288 209.93V210.82C263.555 210.193 264.015 209.88 264.668 209.88C264.788 209.88 264.882 209.887 264.948 209.9V210.68C264.808 210.633 264.665 210.61 264.518 210.61C264.165 210.61 263.872 210.773 263.638 211.1C263.405 211.427 263.288 211.803 263.288 212.23V215H262.498L262.508 209.93H263.288Z" fill="#2B2B2B"/>
<path d="M142.962 225.3V227.5H143.802C144.189 227.5 144.479 227.403 144.672 227.21C144.865 227.01 144.962 226.733 144.962 226.38C144.962 226.033 144.859 225.767 144.652 225.58C144.452 225.393 144.162 225.3 143.782 225.3H142.962ZM145.182 231L143.652 228.54H142.962V231H141.702V224.26H143.782C144.549 224.26 145.149 224.453 145.582 224.84C146.022 225.227 146.242 225.743 146.242 226.39C146.235 226.87 146.119 227.277 145.892 227.61C145.665 227.937 145.355 228.18 144.962 228.34L146.692 231H145.182ZM150.001 230.04C150.361 230.04 150.654 229.903 150.881 229.63C151.107 229.35 151.221 228.96 151.221 228.46C151.221 227.96 151.107 227.573 150.881 227.3C150.654 227.02 150.367 226.88 150.021 226.88C149.674 226.88 149.374 227.01 149.121 227.27C148.867 227.53 148.741 227.917 148.741 228.43C148.741 228.943 148.864 229.34 149.111 229.62C149.357 229.9 149.654 230.04 150.001 230.04ZM148.741 225.93V226.71C149.101 226.143 149.617 225.86 150.291 225.86C150.951 225.86 151.474 226.097 151.861 226.57C152.254 227.043 152.451 227.667 152.451 228.44C152.451 229.2 152.254 229.83 151.861 230.33C151.474 230.823 150.947 231.07 150.281 231.07C149.601 231.07 149.087 230.793 148.741 230.24V232.91H147.541V225.93H148.741ZM155.439 226.73V225.48L157.169 224.46H158.229V231H157.039V225.76L155.439 226.73ZM158.823 232.26L159.803 229.79H161.193L159.863 232.26H158.823ZM161.948 227.7C161.948 226.667 162.152 225.85 162.558 225.25C162.965 224.643 163.542 224.34 164.288 224.34C165.042 224.34 165.622 224.643 166.028 225.25C166.442 225.85 166.648 226.667 166.648 227.7C166.648 228.727 166.445 229.547 166.038 230.16C165.638 230.773 165.055 231.08 164.288 231.08C163.542 231.08 162.965 230.773 162.558 230.16C162.152 229.547 161.948 228.727 161.948 227.7ZM163.478 226.02C163.278 226.407 163.178 226.967 163.178 227.7C163.178 228.433 163.275 229 163.468 229.4C163.668 229.793 163.942 229.99 164.288 229.99C164.648 229.99 164.925 229.793 165.118 229.4C165.318 229.007 165.418 228.44 165.418 227.7C165.418 226.96 165.315 226.397 165.108 226.01C164.908 225.623 164.635 225.43 164.288 225.43C163.948 225.43 163.678 225.627 163.478 226.02ZM167.407 227.7C167.407 226.667 167.611 225.85 168.017 225.25C168.424 224.643 169.001 224.34 169.747 224.34C170.501 224.34 171.081 224.643 171.487 225.25C171.901 225.85 172.107 226.667 172.107 227.7C172.107 228.727 171.904 229.547 171.497 230.16C171.097 230.773 170.514 231.08 169.747 231.08C169.001 231.08 168.424 230.773 168.017 230.16C167.611 229.547 167.407 228.727 167.407 227.7ZM168.937 226.02C168.737 226.407 168.637 226.967 168.637 227.7C168.637 228.433 168.734 229 168.927 229.4C169.127 229.793 169.401 229.99 169.747 229.99C170.107 229.99 170.384 229.793 170.577 229.4C170.777 229.007 170.877 228.44 170.877 227.7C170.877 226.96 170.774 226.397 170.567 226.01C170.367 225.623 170.094 225.43 169.747 225.43C169.407 225.43 169.137 225.627 168.937 226.02ZM172.866 227.7C172.866 226.667 173.07 225.85 173.476 225.25C173.883 224.643 174.46 224.34 175.206 224.34C175.96 224.34 176.54 224.643 176.946 225.25C177.36 225.85 177.566 226.667 177.566 227.7C177.566 228.727 177.363 229.547 176.956 230.16C176.556 230.773 175.973 231.08 175.206 231.08C174.46 231.08 173.883 230.773 173.476 230.16C173.07 229.547 172.866 228.727 172.866 227.7ZM174.396 226.02C174.196 226.407 174.096 226.967 174.096 227.7C174.096 228.433 174.193 229 174.386 229.4C174.586 229.793 174.86 229.99 175.206 229.99C175.566 229.99 175.843 229.793 176.036 229.4C176.236 229.007 176.336 228.44 176.336 227.7C176.336 226.96 176.233 226.397 176.026 226.01C175.826 225.623 175.553 225.43 175.206 225.43C174.866 225.43 174.596 225.627 174.396 226.02ZM177.875 232.26L178.855 229.79H180.245L178.915 232.26H177.875ZM181.001 227.7C181.001 226.667 181.204 225.85 181.611 225.25C182.018 224.643 182.594 224.34 183.341 224.34C184.094 224.34 184.674 224.643 185.081 225.25C185.494 225.85 185.701 226.667 185.701 227.7C185.701 228.727 185.498 229.547 185.091 230.16C184.691 230.773 184.108 231.08 183.341 231.08C182.594 231.08 182.018 230.773 181.611 230.16C181.204 229.547 181.001 228.727 181.001 227.7ZM182.531 226.02C182.331 226.407 182.231 226.967 182.231 227.7C182.231 228.433 182.328 229 182.521 229.4C182.721 229.793 182.994 229.99 183.341 229.99C183.701 229.99 183.978 229.793 184.171 229.4C184.371 229.007 184.471 228.44 184.471 227.7C184.471 226.96 184.368 226.397 184.161 226.01C183.961 225.623 183.688 225.43 183.341 225.43C183.001 225.43 182.731 225.627 182.531 226.02ZM186.46 227.7C186.46 226.667 186.663 225.85 187.07 225.25C187.477 224.643 188.053 224.34 188.8 224.34C189.553 224.34 190.133 224.643 190.54 225.25C190.953 225.85 191.16 226.667 191.16 227.7C191.16 228.727 190.957 229.547 190.55 230.16C190.15 230.773 189.567 231.08 188.8 231.08C188.053 231.08 187.477 230.773 187.07 230.16C186.663 229.547 186.46 228.727 186.46 227.7ZM187.99 226.02C187.79 226.407 187.69 226.967 187.69 227.7C187.69 228.433 187.787 229 187.98 229.4C188.18 229.793 188.453 229.99 188.8 229.99C189.16 229.99 189.437 229.793 189.63 229.4C189.83 229.007 189.93 228.44 189.93 227.7C189.93 226.96 189.827 226.397 189.62 226.01C189.42 225.623 189.147 225.43 188.8 225.43C188.46 225.43 188.19 225.627 187.99 226.02ZM191.919 227.7C191.919 226.667 192.122 225.85 192.529 225.25C192.936 224.643 193.512 224.34 194.259 224.34C195.012 224.34 195.592 224.643 195.999 225.25C196.412 225.85 196.619 226.667 196.619 227.7C196.619 228.727 196.416 229.547 196.009 230.16C195.609 230.773 195.026 231.08 194.259 231.08C193.512 231.08 192.936 230.773 192.529 230.16C192.122 229.547 191.919 228.727 191.919 227.7ZM193.449 226.02C193.249 226.407 193.149 226.967 193.149 227.7C193.149 228.433 193.246 229 193.439 229.4C193.639 229.793 193.912 229.99 194.259 229.99C194.619 229.99 194.896 229.793 195.089 229.4C195.289 229.007 195.389 228.44 195.389 227.7C195.389 226.96 195.286 226.397 195.079 226.01C194.879 225.623 194.606 225.43 194.259 225.43C193.919 225.43 193.649 225.627 193.449 226.02Z" fill="#008C1E"/>
<rect x="110" y="244" width="118" height="24" rx="8" fill="#FF1934"/>
<path d="M147.002 255.952L148.522 255.952L148.45 255.712C148.269 255.136 148.12 254.653 148.002 254.264C147.89 253.869 147.821 253.621 147.794 253.52L147.762 253.36C147.714 253.627 147.485 254.413 147.074 255.72L147.002 255.952ZM149.162 258L148.778 256.776L146.738 256.776L146.354 258L145.298 258L147.122 252.608L148.426 252.608L150.25 258L149.162 258ZM151.945 253.944L151.945 254.584C152.174 254.125 152.556 253.896 153.089 253.896C153.681 253.896 154.065 254.152 154.241 254.664C154.348 254.419 154.508 254.229 154.721 254.096C154.934 253.963 155.177 253.896 155.449 253.896C155.86 253.896 156.177 254.021 156.401 254.272C156.625 254.517 156.737 254.869 156.737 255.328L156.737 258L155.769 258L155.769 255.512C155.769 254.968 155.561 254.696 155.145 254.696C154.937 254.696 154.75 254.787 154.585 254.968C154.425 255.149 154.345 255.435 154.345 255.824L154.345 258L153.377 258L153.377 255.512C153.377 254.968 153.169 254.696 152.753 254.696C152.545 254.696 152.358 254.787 152.193 254.968C152.028 255.149 151.945 255.435 151.945 255.824L151.945 258L150.985 258L150.985 253.944L151.945 253.944ZM159.711 257.232C159.988 257.232 160.22 257.117 160.407 256.888C160.594 256.659 160.687 256.36 160.687 255.992C160.687 255.587 160.591 255.272 160.399 255.048C160.212 254.819 159.98 254.704 159.703 254.704C159.442 254.704 159.21 254.808 159.007 255.016C158.804 255.219 158.703 255.525 158.703 255.936C158.703 256.357 158.799 256.68 158.991 256.904C159.183 257.123 159.423 257.232 159.711 257.232ZM158.703 252.344L158.703 254.56C158.986 254.112 159.391 253.888 159.919 253.888C160.426 253.888 160.842 254.077 161.167 254.456C161.498 254.829 161.663 255.336 161.663 255.976C161.663 256.552 161.506 257.043 161.191 257.448C160.882 257.853 160.46 258.056 159.927 258.056C159.394 258.056 158.986 257.829 158.703 257.376L158.703 258L157.735 258L157.735 252.344L158.703 252.344ZM162.525 258L162.525 253.944L163.485 253.944L163.485 258L162.525 258ZM162.429 252.728C162.429 252.568 162.485 252.432 162.597 252.32C162.709 252.208 162.845 252.152 163.005 252.152C163.165 252.152 163.301 252.208 163.413 252.32C163.525 252.432 163.581 252.568 163.581 252.728C163.581 252.893 163.525 253.032 163.413 253.144C163.301 253.256 163.165 253.312 163.005 253.312C162.845 253.312 162.709 253.256 162.597 253.144C162.485 253.032 162.429 252.893 162.429 252.728ZM164.603 258L164.603 252.344L165.563 252.344L165.563 258L164.603 258ZM171.889 252.608L172.905 252.608L172.905 258L171.889 258L171.889 255.736L169.673 255.736L169.673 258L168.665 258L168.665 252.608L169.673 252.608L169.673 254.864L171.889 254.864L171.889 252.608ZM176.057 256.256L175.561 256.256C175.31 256.256 175.118 256.309 174.985 256.416C174.852 256.517 174.785 256.648 174.785 256.808C174.785 257.149 174.982 257.32 175.377 257.32C175.59 257.32 175.756 257.259 175.873 257.136C175.996 257.008 176.057 256.843 176.057 256.64L176.057 256.256ZM174.089 255.04L174.089 254.152C174.393 253.965 174.83 253.872 175.401 253.872C176.5 253.872 177.049 254.384 177.049 255.408L177.049 258L176.097 258L176.097 257.512C175.91 257.859 175.558 258.032 175.041 258.032C174.657 258.032 174.35 257.92 174.121 257.696C173.897 257.472 173.785 257.189 173.785 256.848C173.785 256.464 173.929 256.163 174.217 255.944C174.505 255.725 174.921 255.616 175.465 255.616L176.057 255.616L176.057 255.368C176.057 255.144 175.998 254.973 175.881 254.856C175.764 254.739 175.564 254.68 175.281 254.68C174.849 254.68 174.452 254.8 174.089 255.04ZM179.784 257.232C180.072 257.232 180.312 257.123 180.504 256.904C180.696 256.68 180.792 256.357 180.792 255.936C180.792 255.525 180.69 255.219 180.488 255.016C180.285 254.808 180.053 254.704 179.792 254.704C179.514 254.704 179.28 254.819 179.088 255.048C178.901 255.272 178.808 255.587 178.808 255.992C178.808 256.36 178.901 256.659 179.088 256.888C179.274 257.117 179.506 257.232 179.784 257.232ZM180.792 252.344L181.752 252.344L181.752 258L180.792 258L180.792 257.368C180.514 257.827 180.104 258.056 179.56 258.056C179.026 258.056 178.602 257.853 178.288 257.448C177.978 257.043 177.824 256.552 177.824 255.976C177.824 255.336 177.986 254.829 178.312 254.456C178.642 254.077 179.064 253.888 179.576 253.888C180.104 253.888 180.509 254.115 180.792 254.568L180.792 252.344ZM182.83 258L182.83 253.944L183.79 253.944L183.79 258L182.83 258ZM182.734 252.728C182.734 252.568 182.79 252.432 182.902 252.32C183.014 252.208 183.15 252.152 183.31 252.152C183.47 252.152 183.606 252.208 183.718 252.32C183.83 252.432 183.886 252.568 183.886 252.728C183.886 252.893 183.83 253.032 183.718 253.144C183.606 253.256 183.47 253.312 183.31 253.312C183.15 253.312 183.014 253.256 182.902 253.144C182.79 253.032 182.734 252.893 182.734 252.728ZM186.94 256.256L186.444 256.256C186.193 256.256 186.001 256.309 185.868 256.416C185.734 256.517 185.668 256.648 185.668 256.808C185.668 257.149 185.865 257.32 186.26 257.32C186.473 257.32 186.638 257.259 186.756 257.136C186.878 257.008 186.94 256.843 186.94 256.64L186.94 256.256ZM184.972 255.04L184.972 254.152C185.276 253.965 185.713 253.872 186.284 253.872C187.382 253.872 187.932 254.384 187.932 255.408L187.932 258L186.98 258L186.98 257.512C186.793 257.859 186.441 258.032 185.924 258.032C185.54 258.032 185.233 257.92 185.004 257.696C184.78 257.472 184.668 257.189 184.668 256.848C184.668 256.464 184.812 256.163 185.1 255.944C185.388 255.725 185.804 255.616 186.348 255.616L186.94 255.616L186.94 255.368C186.94 255.144 186.881 254.973 186.764 254.856C186.646 254.739 186.446 254.68 186.164 254.68C185.732 254.68 185.334 254.8 184.972 255.04ZM189.882 252.344L189.882 254.632C190.101 254.141 190.514 253.896 191.122 253.896C191.517 253.896 191.834 254.021 192.074 254.272C192.32 254.517 192.442 254.875 192.442 255.344L192.442 258L191.482 258L191.482 255.512C191.482 255.256 191.416 255.056 191.282 254.912C191.154 254.768 190.986 254.696 190.778 254.696C190.549 254.696 190.341 254.784 190.154 254.96C189.973 255.136 189.882 255.424 189.882 255.824L189.882 258L188.922 258L188.922 252.344L189.882 252.344Z" fill="white"/>
<path d="M9 341.5H329C333.694 341.5 337.5 345.306 337.5 350C337.5 354.694 333.694 358.5 329 358.5H9C4.30558 358.5 0.5 354.694 0.5 350C0.500002 345.306 4.30558 341.5 9 341.5Z" fill="white"/>
<path d="M9 341.5H329C333.694 341.5 337.5 345.306 337.5 350C337.5 354.694 333.694 358.5 329 358.5H9C4.30558 358.5 0.5 354.694 0.5 350C0.500002 345.306 4.30558 341.5 9 341.5Z" stroke="#CCCCCC"/>
<path d="M7.86805e-07 350C3.52265e-07 345.029 4.02944 341 9 341L39 341C43.9706 341 48 345.029 48 350C48 354.971 43.9706 359 39 359L9 359C4.02944 359 1.22135e-06 354.971 7.86805e-07 350Z" fill="#FF1934"/>
<path d="M15.448 346.688H16.264L16.816 348.6L17.456 350.92C17.5893 350.179 17.7547 349.403 17.952 348.592L18.44 346.608H19.464L18.088 352H16.92L16.432 350.296C16.2987 349.843 16.184 349.443 16.088 349.096C15.9973 348.749 15.936 348.517 15.904 348.4L15.864 348.216C15.7893 348.589 15.6027 349.283 15.304 350.296L14.8 352H13.64L12.2 346.608H13.264L13.768 348.6C13.8533 348.957 13.9387 349.328 14.024 349.712C14.1093 350.096 14.1733 350.389 14.216 350.592L14.28 350.904C14.4507 350.232 14.6587 349.464 14.904 348.6L15.448 346.688ZM22.2561 350.256H21.7601C21.5094 350.256 21.3174 350.309 21.1841 350.416C21.0507 350.517 20.9841 350.648 20.9841 350.808C20.9841 351.149 21.1814 351.32 21.5761 351.32C21.7894 351.32 21.9547 351.259 22.0721 351.136C22.1947 351.008 22.2561 350.843 22.2561 350.64V350.256ZM20.2881 349.04V348.152C20.5921 347.965 21.0294 347.872 21.6001 347.872C22.6987 347.872 23.2481 348.384 23.2481 349.408V352H22.2961V351.512C22.1094 351.859 21.7574 352.032 21.2401 352.032C20.8561 352.032 20.5494 351.92 20.3201 351.696C20.0961 351.472 19.9841 351.189 19.9841 350.848C19.9841 350.464 20.1281 350.163 20.4161 349.944C20.7041 349.725 21.1201 349.616 21.6641 349.616H22.2561V349.368C22.2561 349.144 22.1974 348.973 22.0801 348.856C21.9627 348.739 21.7627 348.68 21.4801 348.68C21.0481 348.68 20.6507 348.8 20.2881 349.04ZM27.7828 352H26.6548L25.1988 349.904V352H24.2388V346.44H25.1988V349.848L26.6308 347.944H27.7508L26.2628 349.88L27.7828 352ZM29.5864 348.664V350.728C29.5864 350.899 29.6318 351.029 29.7224 351.12C29.8131 351.205 29.9384 351.248 30.0984 351.248C30.3011 351.248 30.4878 351.192 30.6584 351.08V351.904C30.4718 351.995 30.2318 352.04 29.9384 352.04C29.0638 352.04 28.6264 351.597 28.6264 350.712V348.664H28.0184V347.944H28.6264V346.968H29.5864V347.944H30.5944V348.664H29.5864ZM33.9617 347.944H34.9297V352H33.9617V351.336C33.7484 351.805 33.3324 352.04 32.7137 352.04C32.303 352.04 31.983 351.923 31.7537 351.688C31.5244 351.453 31.4097 351.12 31.4097 350.688V347.944H32.3697V350.464C32.3697 350.72 32.431 350.915 32.5537 351.048C32.6817 351.181 32.855 351.248 33.0737 351.248C33.351 351.248 33.567 351.155 33.7217 350.968C33.8817 350.781 33.9617 350.499 33.9617 350.12V347.944Z" fill="white"/>
<rect x="56" y="348" width="274" height="4" rx="2" fill="#CCCCCC"/>
<mask id="mask0_1124_4113" style="mask-type:alpha" maskUnits="userSpaceOnUse" x="56" y="348" width="274" height="4">
<rect x="56" y="348" width="274" height="4" rx="2" fill="#CCCCCC"/>
</mask>
<g mask="url(#mask0_1124_4113)">
<rect x="56" y="348" width="274" height="4" rx="2" fill="#FF1934"/>
</g>
<defs>
<filter id="filter0_d_1124_4113" x="25" y="58" width="288" height="56" filterUnits="userSpaceOnUse" color-interpolation-filters="sRGB">
<feFlood flood-opacity="0" result="BackgroundImageFix"/>
<feColorMatrix in="SourceAlpha" type="matrix" values="0 0 0 0 0 0 0 0 0 0 0 0 0 0 0 0 0 0 127 0" result="hardAlpha"/>
<feOffset dy="2"/>
<feGaussianBlur stdDeviation="2"/>
<feComposite in2="hardAlpha" operator="out"/>
<feColorMatrix type="matrix" values="0 0 0 0 0.168627 0 0 0 0 0.168627 0 0 0 0 0.168627 0 0 0 0.24 0"/>
<feBlend mode="normal" in2="BackgroundImageFix" result="effect1_dropShadow_1124_4113"/>
<feBlend mode="normal" in="SourceGraphic" in2="effect1_dropShadow_1124_4113" result="shape"/>
</filter>
<clipPath id="clip0_1124_4113">
<rect width="24" height="24" fill="white" transform="translate(45 76)"/>
</clipPath>
<clipPath id="clip1_1124_4113">
<rect width="64" height="64" fill="white" transform="translate(137 132)"/>
</clipPath>
</defs>
</svg>
