<svg width="338" height="375" viewBox="0 0 338 375" fill="none" xmlns="http://www.w3.org/2000/svg">
<rect width="338" height="375" fill="#D3D3D3"/>
<rect x="26.5" y="50" width="285" height="265" rx="16" fill="white"/>
<g filter="url(#filter0_d_1124_4113)">
<path d="M26.5 66C26.5 57.1634 33.6634 50 42.5 50H295.5C304.337 50 311.5 57.1634 311.5 66V98H26.5V66Z" fill="#FF1934" shape-rendering="crispEdges"/>
<g clip-path="url(#clip0_1124_4113)">
<path fill-rule="evenodd" clip-rule="evenodd" d="M44.5 78C44.5 72.49 48.99 68 54.5 68C60.01 68 64.5 72.49 64.5 78C64.5 83.51 60.01 88 54.5 88C48.99 88 44.5 83.51 44.5 78ZM46.1 78C46.1 82.63 49.87 86.4 54.5 86.4C59.13 86.4 62.9 82.63 62.9 78C62.9 73.37 59.13 69.6 54.5 69.6C49.87 69.6 46.1 73.37 46.1 78ZM55.3 77.2H58.5C58.94 77.2 59.3 77.56 59.3 78C59.3 78.44 58.94 78.8 58.5 78.8H55.3V82C55.3 82.44 54.94 82.8 54.5 82.8C54.06 82.8 53.7 82.44 53.7 82V78.8H50.5C50.06 78.8 49.7 78.44 49.7 78C49.7 77.56 50.06 77.2 50.5 77.2H53.7V74C53.7 73.56 54.06 73.2 54.5 73.2C54.94 73.2 55.3 73.56 55.3 74V77.2Z" fill="white"/>
</g>
<path d="M75.2 82L76.012 72.564H78.378L79.694 75.98C79.918 76.5493 80.1093 77.072 80.268 77.548C80.4267 78.024 80.5293 78.36 80.576 78.556L80.646 78.836C80.7953 78.22 81.122 77.268 81.626 75.98L82.956 72.564H85.322L86.302 82H84.146L83.796 78.346L83.614 75.588C83.3713 76.288 83.0353 77.2073 82.606 78.346L81.276 81.902H80.002L78.686 78.346C78.4713 77.7673 78.2893 77.2493 78.14 76.792C77.9907 76.3347 77.8927 76.0173 77.846 75.84L77.776 75.588C77.776 76.2507 77.734 77.17 77.65 78.346L77.356 82H75.2ZM91.9381 77.8V77.632C91.8728 76.8013 91.5088 76.386 90.8461 76.386C90.5194 76.386 90.2301 76.5073 89.9781 76.75C89.7261 76.9833 89.5581 77.3333 89.4741 77.8H91.9381ZM93.4081 79.886V81.594C92.9228 81.9113 92.1808 82.07 91.1821 82.07C90.0154 82.07 89.1054 81.734 88.4521 81.062C87.8081 80.3807 87.4861 79.508 87.4861 78.444C87.4861 77.3147 87.7988 76.4327 88.4241 75.798C89.0588 75.154 89.8381 74.832 90.7621 74.832C91.7141 74.832 92.4654 75.112 93.0161 75.672C93.5668 76.2227 93.8421 77.0487 93.8421 78.15C93.8421 78.3647 93.8048 78.7333 93.7301 79.256H89.5581C89.6981 79.648 89.9408 79.9513 90.2861 80.166C90.6314 80.3807 91.0468 80.488 91.5321 80.488C92.2508 80.488 92.8761 80.2873 93.4081 79.886ZM97.3449 74.902V76.106C97.5223 75.714 97.7929 75.406 98.1569 75.182C98.5303 74.9487 98.9736 74.832 99.4869 74.832C100.215 74.832 100.784 75.0513 101.195 75.49C101.606 75.9193 101.811 76.554 101.811 77.394V82H99.7669V77.772C99.7669 77.352 99.6689 77.0347 99.4729 76.82C99.2769 76.596 99.0016 76.484 98.6469 76.484C98.2736 76.484 97.9609 76.6333 97.7089 76.932C97.4663 77.2213 97.3449 77.66 97.3449 78.248V82H95.3009V74.902H97.3449ZM106.684 80.376C107.151 80.376 107.529 80.194 107.818 79.83C108.107 79.466 108.252 78.9807 108.252 78.374C108.252 77.786 108.093 77.3287 107.776 77.002C107.468 76.6753 107.099 76.512 106.67 76.512C106.241 76.512 105.877 76.6847 105.578 77.03C105.289 77.3753 105.144 77.856 105.144 78.472C105.144 79.0413 105.293 79.5033 105.592 79.858C105.891 80.2033 106.255 80.376 106.684 80.376ZM108.252 72.102H110.296V82H108.252V80.894C107.776 81.6873 107.067 82.084 106.124 82.084C105.2 82.084 104.458 81.7247 103.898 81.006C103.347 80.2873 103.072 79.4287 103.072 78.43C103.072 77.31 103.361 76.428 103.94 75.784C104.519 75.14 105.251 74.818 106.138 74.818C107.062 74.818 107.767 75.21 108.252 75.994V72.102ZM115.495 79.088H114.837C114.491 79.088 114.225 79.1627 114.039 79.312C113.852 79.4613 113.759 79.6527 113.759 79.886C113.759 80.362 114.034 80.6 114.585 80.6C114.874 80.6 115.098 80.5113 115.257 80.334C115.415 80.1567 115.495 79.914 115.495 79.606V79.088ZM112.177 77.086V75.252C112.737 74.9347 113.544 74.776 114.599 74.776C115.607 74.776 116.358 74.9953 116.853 75.434C117.347 75.8633 117.595 76.5353 117.595 77.45V82H115.593V81.132C115.294 81.7387 114.706 82.042 113.829 82.042C113.138 82.042 112.597 81.846 112.205 81.454C111.822 81.062 111.631 80.572 111.631 79.984C111.631 79.3027 111.878 78.7753 112.373 78.402C112.877 78.0193 113.619 77.828 114.599 77.828H115.495V77.338C115.495 76.7407 115.098 76.442 114.305 76.442C113.539 76.442 112.83 76.6567 112.177 77.086ZM122.839 80.376C123.287 80.376 123.651 80.208 123.931 79.872C124.211 79.5267 124.351 79.06 124.351 78.472C124.351 77.828 124.207 77.3427 123.917 77.016C123.637 76.68 123.278 76.512 122.839 76.512C122.41 76.512 122.037 76.6753 121.719 77.002C121.402 77.3287 121.243 77.786 121.243 78.374C121.243 78.9807 121.393 79.466 121.691 79.83C121.99 80.194 122.373 80.376 122.839 80.376ZM121.243 74.902V75.994C121.738 75.21 122.452 74.818 123.385 74.818C124.3 74.818 125.033 75.1447 125.583 75.798C126.143 76.442 126.423 77.3193 126.423 78.43C126.423 79.4847 126.153 80.3573 125.611 81.048C125.079 81.7387 124.337 82.084 123.385 82.084C122.424 82.084 121.71 81.706 121.243 80.95V84.618H119.199V74.902H121.243ZM131.272 79.088H130.614C130.269 79.088 130.003 79.1627 129.816 79.312C129.629 79.4613 129.536 79.6527 129.536 79.886C129.536 80.362 129.811 80.6 130.362 80.6C130.651 80.6 130.875 80.5113 131.034 80.334C131.193 80.1567 131.272 79.914 131.272 79.606V79.088ZM127.954 77.086V75.252C128.514 74.9347 129.321 74.776 130.376 74.776C131.384 74.776 132.135 74.9953 132.63 75.434C133.125 75.8633 133.372 76.5353 133.372 77.45V82H131.37V81.132C131.071 81.7387 130.483 82.042 129.606 82.042C128.915 82.042 128.374 81.846 127.982 81.454C127.599 81.062 127.408 80.572 127.408 79.984C127.408 79.3027 127.655 78.7753 128.15 78.402C128.654 78.0193 129.396 77.828 130.376 77.828H131.272V77.338C131.272 76.7407 130.875 76.442 130.082 76.442C129.317 76.442 128.607 76.6567 127.954 77.086ZM137.343 76.4V79.662C137.343 79.914 137.413 80.1053 137.553 80.236C137.702 80.3667 137.893 80.432 138.127 80.432C138.5 80.432 138.831 80.3387 139.121 80.152V81.846C138.775 81.9953 138.309 82.07 137.721 82.07C136.106 82.07 135.299 81.2627 135.299 79.648V76.4H134.277V74.902H135.299V73.222H137.343V74.902H138.995V76.4H137.343ZM146.103 80.278H147.237C148.301 80.278 148.833 79.914 148.833 79.186C148.833 78.458 148.306 78.094 147.251 78.094H146.103V80.278ZM146.103 74.286V76.4H146.901C147.461 76.4 147.881 76.2973 148.161 76.092C148.45 75.8867 148.595 75.616 148.595 75.28C148.595 74.6173 148.147 74.286 147.251 74.286H146.103ZM143.947 72.564H147.615C148.651 72.564 149.44 72.8113 149.981 73.306C150.522 73.7913 150.793 74.412 150.793 75.168C150.793 75.6627 150.662 76.0967 150.401 76.47C150.14 76.8433 149.799 77.0953 149.379 77.226C150.471 77.5527 151.017 78.29 151.017 79.438C151.017 80.1847 150.746 80.8007 150.205 81.286C149.673 81.762 148.945 82 148.021 82H143.947V72.564ZM155.49 82.112C154.379 82.112 153.52 81.7807 152.914 81.118C152.307 80.446 152.004 79.5873 152.004 78.542C152.004 77.45 152.321 76.554 152.956 75.854C153.59 75.1447 154.435 74.79 155.49 74.79C156.591 74.79 157.445 75.1307 158.052 75.812C158.658 76.4933 158.962 77.3613 158.962 78.416C158.962 79.4893 158.654 80.376 158.038 81.076C157.431 81.7667 156.582 82.112 155.49 82.112ZM155.476 76.4C155.028 76.4 154.692 76.5913 154.468 76.974C154.244 77.3567 154.132 77.8513 154.132 78.458C154.132 79.0647 154.244 79.564 154.468 79.956C154.701 80.3387 155.046 80.53 155.504 80.53C155.952 80.53 156.283 80.3433 156.498 79.97C156.722 79.5873 156.834 79.0927 156.834 78.486C156.834 77.0953 156.381 76.4 155.476 76.4ZM162.341 74.902V76.106C162.518 75.714 162.789 75.406 163.153 75.182C163.526 74.9487 163.97 74.832 164.483 74.832C165.211 74.832 165.78 75.0513 166.191 75.49C166.602 75.9193 166.807 76.554 166.807 77.394V82H164.763V77.772C164.763 77.352 164.665 77.0347 164.469 76.82C164.273 76.596 163.998 76.484 163.643 76.484C163.27 76.484 162.957 76.6333 162.705 76.932C162.462 77.2213 162.341 77.66 162.341 78.248V82H160.297V74.902H162.341ZM172.814 74.902H174.858V82H172.814V80.866C172.441 81.6593 171.722 82.056 170.658 82.056C169.93 82.056 169.361 81.8553 168.95 81.454C168.549 81.0433 168.348 80.4413 168.348 79.648V74.902H170.392V79.186C170.392 80.0167 170.756 80.432 171.484 80.432C172.371 80.432 172.814 79.8393 172.814 78.654V74.902ZM181.019 75.112V76.862C180.525 76.5727 179.946 76.428 179.283 76.428C179.041 76.428 178.854 76.4793 178.723 76.582C178.593 76.6753 178.527 76.7967 178.527 76.946C178.527 77.03 178.551 77.1093 178.597 77.184C178.644 77.2587 178.719 77.3287 178.821 77.394C178.933 77.4593 179.036 77.52 179.129 77.576C179.232 77.6227 179.367 77.6833 179.535 77.758C179.713 77.8327 179.853 77.898 179.955 77.954C180.385 78.178 180.73 78.4393 180.991 78.738C181.253 79.0273 181.383 79.4007 181.383 79.858C181.383 80.558 181.131 81.0993 180.627 81.482C180.123 81.8647 179.456 82.056 178.625 82.056C177.767 82.056 177.048 81.9113 176.469 81.622V79.802C177.113 80.25 177.795 80.474 178.513 80.474C179.027 80.474 179.283 80.3107 179.283 79.984C179.283 79.9 179.26 79.8207 179.213 79.746C179.167 79.6713 179.087 79.6013 178.975 79.536C178.863 79.4707 178.761 79.4193 178.667 79.382C178.574 79.3353 178.439 79.2747 178.261 79.2C178.084 79.1253 177.949 79.0647 177.855 79.018C176.913 78.57 176.441 77.898 176.441 77.002C176.441 76.3113 176.703 75.7747 177.225 75.392C177.757 75.0093 178.415 74.818 179.199 74.818C179.927 74.818 180.534 74.916 181.019 75.112ZM189.399 80.376C189.866 80.376 190.244 80.194 190.533 79.83C190.822 79.466 190.967 78.9807 190.967 78.374C190.967 77.786 190.808 77.3287 190.491 77.002C190.183 76.6753 189.814 76.512 189.385 76.512C188.956 76.512 188.592 76.6847 188.293 77.03C188.004 77.3753 187.859 77.856 187.859 78.472C187.859 79.0413 188.008 79.5033 188.307 79.858C188.606 80.2033 188.97 80.376 189.399 80.376ZM190.967 72.102H193.011V82H190.967V80.894C190.491 81.6873 189.782 82.084 188.839 82.084C187.915 82.084 187.173 81.7247 186.613 81.006C186.062 80.2873 185.787 79.4287 185.787 78.43C185.787 77.31 186.076 76.428 186.655 75.784C187.234 75.14 187.966 74.818 188.853 74.818C189.777 74.818 190.482 75.21 190.967 75.994V72.102ZM198.209 79.088H197.551C197.206 79.088 196.94 79.1627 196.753 79.312C196.567 79.4613 196.473 79.6527 196.473 79.886C196.473 80.362 196.749 80.6 197.299 80.6C197.589 80.6 197.813 80.5113 197.971 80.334C198.13 80.1567 198.209 79.914 198.209 79.606V79.088ZM194.891 77.086V75.252C195.451 74.9347 196.259 74.776 197.313 74.776C198.321 74.776 199.073 74.9953 199.567 75.434C200.062 75.8633 200.309 76.5353 200.309 77.45V82H198.307V81.132C198.009 81.7387 197.421 82.042 196.543 82.042C195.853 82.042 195.311 81.846 194.919 81.454C194.537 81.062 194.345 80.572 194.345 79.984C194.345 79.3027 194.593 78.7753 195.087 78.402C195.591 78.0193 196.333 77.828 197.313 77.828H198.209V77.338C198.209 76.7407 197.813 76.442 197.019 76.442C196.254 76.442 195.545 76.6567 194.891 77.086ZM203.944 74.902V76.218C204.075 75.8073 204.29 75.4807 204.588 75.238C204.896 74.986 205.251 74.86 205.652 74.86C205.876 74.86 206.054 74.8787 206.184 74.916V76.848C205.96 76.7453 205.704 76.694 205.414 76.694C204.976 76.694 204.621 76.8573 204.35 77.184C204.08 77.5013 203.944 77.926 203.944 78.458V82H201.9L201.914 74.902H203.944ZM207.166 82V74.902H209.21V82H207.166ZM207.348 73.684C207.115 73.4507 206.998 73.1707 206.998 72.844C206.998 72.5173 207.115 72.2373 207.348 72.004C207.581 71.7707 207.861 71.654 208.188 71.654C208.515 71.654 208.795 71.7707 209.028 72.004C209.261 72.2373 209.378 72.5173 209.378 72.844C209.378 73.1707 209.261 73.4507 209.028 73.684C208.795 73.9173 208.515 74.034 208.188 74.034C207.861 74.034 207.581 73.9173 207.348 73.684ZM214.535 82V72.564H216.691V82H214.535ZM219.309 77.282L222.655 82H219.953L216.789 77.31L219.841 72.564H222.403L219.309 77.282ZM227.249 79.088H226.591C226.245 79.088 225.979 79.1627 225.793 79.312C225.606 79.4613 225.513 79.6527 225.513 79.886C225.513 80.362 225.788 80.6 226.339 80.6C226.628 80.6 226.852 80.5113 227.011 80.334C227.169 80.1567 227.249 79.914 227.249 79.606V79.088ZM223.931 77.086V75.252C224.491 74.9347 225.298 74.776 226.353 74.776C227.361 74.776 228.112 74.9953 228.607 75.434C229.101 75.8633 229.349 76.5353 229.349 77.45V82H227.347V81.132C227.048 81.7387 226.46 82.042 225.583 82.042C224.892 82.042 224.351 81.846 223.959 81.454C223.576 81.062 223.385 80.572 223.385 79.984C223.385 79.3027 223.632 78.7753 224.127 78.402C224.631 78.0193 225.373 77.828 226.353 77.828H227.249V77.338C227.249 76.7407 226.852 76.442 226.059 76.442C225.293 76.442 224.584 76.6567 223.931 77.086ZM232.997 74.902V76.106C233.175 75.714 233.445 75.406 233.809 75.182C234.183 74.9487 234.626 74.832 235.139 74.832C235.867 74.832 236.437 75.0513 236.847 75.49C237.258 75.9193 237.463 76.554 237.463 77.394V82H235.419V77.772C235.419 77.352 235.321 77.0347 235.125 76.82C234.929 76.596 234.654 76.484 234.299 76.484C233.926 76.484 233.613 76.6333 233.361 76.932C233.119 77.2213 232.997 77.66 232.997 78.248V82H230.953V74.902H232.997ZM241.44 76.4V79.662C241.44 79.914 241.51 80.1053 241.65 80.236C241.8 80.3667 241.991 80.432 242.224 80.432C242.598 80.432 242.929 80.3387 243.218 80.152V81.846C242.873 81.9953 242.406 82.07 241.818 82.07C240.204 82.07 239.396 81.2627 239.396 79.648V76.4H238.374V74.902H239.396V73.222H241.44V74.902H243.092V76.4H241.44ZM247.611 82.112C246.5 82.112 245.641 81.7807 245.035 81.118C244.428 80.446 244.125 79.5873 244.125 78.542C244.125 77.45 244.442 76.554 245.077 75.854C245.711 75.1447 246.556 74.79 247.611 74.79C248.712 74.79 249.566 75.1307 250.173 75.812C250.779 76.4933 251.083 77.3613 251.083 78.416C251.083 79.4893 250.775 80.376 250.159 81.076C249.552 81.7667 248.703 82.112 247.611 82.112ZM247.597 76.4C247.149 76.4 246.813 76.5913 246.589 76.974C246.365 77.3567 246.253 77.8513 246.253 78.458C246.253 79.0647 246.365 79.564 246.589 79.956C246.822 80.3387 247.167 80.53 247.625 80.53C248.073 80.53 248.404 80.3433 248.619 79.97C248.843 79.5873 248.955 79.0927 248.955 78.486C248.955 77.0953 248.502 76.4 247.597 76.4ZM254.448 74.902V76.218C254.579 75.8073 254.793 75.4807 255.092 75.238C255.4 74.986 255.755 74.86 256.156 74.86C256.38 74.86 256.557 74.8787 256.688 74.916V76.848C256.464 76.7453 256.207 76.694 255.918 76.694C255.479 76.694 255.125 76.8573 254.854 77.184C254.583 77.5013 254.448 77.926 254.448 78.458V82H252.404L252.418 74.902H254.448Z" fill="white"/>
</g>
<g clip-path="url(#clip1_1124_4113)">
<path d="M185.518 181.667L172.1 181.631H172.101L182.103 181.456L183.891 181.251L180.424 181.034L171.535 181.507L167.571 180.64L160.943 180.787L160.74 181.061L169.336 181.624L156.014 181.588L153.733 182.492H154.805L151.647 184.016H177.843L182.364 182.492H183.436L185.518 181.667Z" fill="#CCCCCC"/>
<path d="M155.527 153.974L153.686 176.331L179.686 179.515L183.295 157.375L155.527 153.974Z" fill="#FF1934"/>
<path d="M155.274 148.936L154.034 159.065L183.516 162.677L184.649 153.43L155.274 148.936Z" fill="#FF1934"/>
<path d="M167.079 150.741L165.882 160.517L167.356 160.697L165.904 177.827L170.628 178.405L173.392 161.436L174.337 161.552L175.503 152.03L167.079 150.741Z" fill="#D9AA16"/>
<g opacity="0.72" style="mix-blend-mode:multiply">
<path d="M182.238 163.862L182.452 162.547L155.098 159.196L154.988 160.524L182.238 163.862Z" fill="#DA011C"/>
</g>
<path d="M171.29 151.386L165.518 140.697L159.129 141.403L159.279 144.172L168.545 150.98L171.29 151.386Z" fill="#D9AA16"/>
<path d="M168.547 150.966L178.876 145.529L182.564 148.447L181.02 150.588L171.291 151.386L168.547 150.966Z" fill="#D9AA16"/>
</g>
<path d="M89.1204 210.49H91.2804L91.1704 210.15C90.9171 209.363 90.7104 208.713 90.5504 208.2C90.3904 207.68 90.2937 207.357 90.2604 207.23L90.2104 207.04C90.1371 207.353 89.8104 208.39 89.2304 210.15L89.1204 210.49ZM92.0904 213L91.5604 211.35H88.8404L88.3004 213H87.2104L89.5404 206.26H90.8904L93.1904 213H92.0904ZM95.172 207.93V208.8C95.472 208.173 95.9986 207.86 96.752 207.86C97.252 207.86 97.6486 208.013 97.942 208.32C98.2353 208.627 98.382 209.043 98.382 209.57V213H97.402V209.8C97.402 209.447 97.312 209.177 97.132 208.99C96.9586 208.803 96.7253 208.71 96.432 208.71C96.0853 208.71 95.7886 208.847 95.542 209.12C95.2953 209.387 95.172 209.763 95.172 210.25V213H94.192V207.93H95.172ZM101.75 212.21C102.136 212.21 102.463 212.063 102.73 211.77C102.996 211.477 103.13 211.03 103.13 210.43C103.13 209.85 102.99 209.42 102.71 209.14C102.436 208.86 102.126 208.72 101.78 208.72C101.386 208.72 101.063 208.877 100.81 209.19C100.556 209.497 100.43 209.937 100.43 210.51C100.43 211.017 100.553 211.427 100.8 211.74C101.053 212.053 101.37 212.21 101.75 212.21ZM103.13 205.93H104.12V213H103.13V212.23C102.776 212.79 102.26 213.07 101.58 213.07C100.913 213.07 100.386 212.82 99.9998 212.32C99.6131 211.813 99.4198 211.203 99.4198 210.49C99.4198 209.697 99.6231 209.06 100.03 208.58C100.436 208.1 100.96 207.86 101.6 207.86C102.26 207.86 102.77 208.14 103.13 208.7V205.93ZM108.171 210.74H107.411C107.037 210.74 106.754 210.813 106.561 210.96C106.374 211.107 106.281 211.293 106.281 211.52C106.281 211.753 106.354 211.937 106.501 212.07C106.647 212.203 106.861 212.27 107.141 212.27C107.461 212.27 107.711 212.183 107.891 212.01C108.077 211.83 108.171 211.597 108.171 211.31V210.74ZM105.621 209.14V208.19C106.014 207.963 106.534 207.85 107.181 207.85C108.507 207.85 109.171 208.493 109.171 209.78V213H108.201V212.4C107.941 212.827 107.484 213.04 106.831 213.04C106.351 213.04 105.964 212.903 105.671 212.63C105.384 212.35 105.241 211.997 105.241 211.57C105.241 211.083 105.424 210.707 105.791 210.44C106.157 210.167 106.671 210.03 107.331 210.03H108.171V209.74C108.171 209.393 108.087 209.133 107.921 208.96C107.754 208.78 107.477 208.69 107.091 208.69C106.551 208.69 106.061 208.84 105.621 209.14ZM113.932 207.93V208.74C114.218 208.153 114.695 207.86 115.362 207.86C116.122 207.86 116.608 208.187 116.822 208.84C116.962 208.527 117.165 208.287 117.432 208.12C117.698 207.947 117.998 207.86 118.332 207.86C118.852 207.86 119.245 208.013 119.512 208.32C119.785 208.627 119.922 209.05 119.922 209.59V213H118.942V209.8C118.942 209.073 118.648 208.71 118.062 208.71C117.768 208.71 117.505 208.84 117.272 209.1C117.045 209.36 116.932 209.743 116.932 210.25V213H115.952V209.8C115.952 209.073 115.655 208.71 115.062 208.71C114.775 208.71 114.515 208.84 114.282 209.1C114.048 209.36 113.932 209.743 113.932 210.25V213H112.952V207.93H113.932ZM124.403 210.1V209.92C124.389 209.54 124.286 209.24 124.093 209.02C123.899 208.793 123.623 208.68 123.263 208.68C122.929 208.68 122.643 208.803 122.403 209.05C122.163 209.29 122.013 209.64 121.953 210.1H124.403ZM125.033 211.85V212.73C124.659 212.943 124.166 213.05 123.553 213.05C122.766 213.05 122.139 212.813 121.673 212.34C121.206 211.867 120.973 211.247 120.973 210.48C120.973 209.667 121.186 209.03 121.613 208.57C122.039 208.103 122.583 207.87 123.243 207.87C123.889 207.87 124.403 208.073 124.783 208.48C125.163 208.88 125.353 209.46 125.353 210.22C125.353 210.427 125.333 210.643 125.293 210.87H121.963C122.029 211.31 122.216 211.647 122.523 211.88C122.829 212.113 123.216 212.23 123.683 212.23C124.223 212.23 124.673 212.103 125.033 211.85ZM127.486 207.93V208.8C127.786 208.173 128.313 207.86 129.066 207.86C129.566 207.86 129.963 208.013 130.256 208.32C130.55 208.627 130.696 209.043 130.696 209.57V213H129.716V209.8C129.716 209.447 129.626 209.177 129.446 208.99C129.273 208.803 129.04 208.71 128.746 208.71C128.4 208.71 128.103 208.847 127.856 209.12C127.61 209.387 127.486 209.763 127.486 210.25V213H126.506V207.93H127.486ZM134.064 212.21C134.451 212.21 134.778 212.063 135.044 211.77C135.311 211.477 135.444 211.03 135.444 210.43C135.444 209.85 135.304 209.42 135.024 209.14C134.751 208.86 134.441 208.72 134.094 208.72C133.701 208.72 133.378 208.877 133.124 209.19C132.871 209.497 132.744 209.937 132.744 210.51C132.744 211.017 132.868 211.427 133.114 211.74C133.368 212.053 133.684 212.21 134.064 212.21ZM135.444 205.93H136.434V213H135.444V212.23C135.091 212.79 134.574 213.07 133.894 213.07C133.228 213.07 132.701 212.82 132.314 212.32C131.928 211.813 131.734 211.203 131.734 210.49C131.734 209.697 131.938 209.06 132.344 208.58C132.751 208.1 133.274 207.86 133.914 207.86C134.574 207.86 135.084 208.14 135.444 208.7V205.93ZM140.485 210.74H139.725C139.352 210.74 139.068 210.813 138.875 210.96C138.688 211.107 138.595 211.293 138.595 211.52C138.595 211.753 138.668 211.937 138.815 212.07C138.962 212.203 139.175 212.27 139.455 212.27C139.775 212.27 140.025 212.183 140.205 212.01C140.392 211.83 140.485 211.597 140.485 211.31V210.74ZM137.935 209.14V208.19C138.328 207.963 138.848 207.85 139.495 207.85C140.822 207.85 141.485 208.493 141.485 209.78V213H140.515V212.4C140.255 212.827 139.798 213.04 139.145 213.04C138.665 213.04 138.278 212.903 137.985 212.63C137.698 212.35 137.555 211.997 137.555 211.57C137.555 211.083 137.738 210.707 138.105 210.44C138.472 210.167 138.985 210.03 139.645 210.03H140.485V209.74C140.485 209.393 140.402 209.133 140.235 208.96C140.068 208.78 139.792 208.69 139.405 208.69C138.865 208.69 138.375 208.84 137.935 209.14ZM145.145 212.21C145.539 212.21 145.862 212.057 146.115 211.75C146.369 211.437 146.495 211 146.495 210.44C146.495 209.913 146.372 209.497 146.125 209.19C145.879 208.877 145.565 208.72 145.185 208.72C144.805 208.72 144.475 208.86 144.195 209.14C143.922 209.413 143.785 209.85 143.785 210.45C143.785 211.037 143.922 211.477 144.195 211.77C144.475 212.063 144.792 212.21 145.145 212.21ZM143.785 207.93V208.71C144.132 208.143 144.652 207.86 145.345 207.86C146.012 207.86 146.539 208.103 146.925 208.59C147.312 209.07 147.505 209.683 147.505 210.43C147.505 211.197 147.305 211.83 146.905 212.33C146.512 212.823 145.985 213.07 145.325 213.07C144.652 213.07 144.139 212.79 143.785 212.23V214.94H142.805V207.93H143.785ZM151.276 210.74H150.516C150.143 210.74 149.859 210.813 149.666 210.96C149.479 211.107 149.386 211.293 149.386 211.52C149.386 211.753 149.459 211.937 149.606 212.07C149.753 212.203 149.966 212.27 150.246 212.27C150.566 212.27 150.816 212.183 150.996 212.01C151.183 211.83 151.276 211.597 151.276 211.31V210.74ZM148.726 209.14V208.19C149.119 207.963 149.639 207.85 150.286 207.85C151.613 207.85 152.276 208.493 152.276 209.78V213H151.306V212.4C151.046 212.827 150.589 213.04 149.936 213.04C149.456 213.04 149.069 212.903 148.776 212.63C148.489 212.35 148.346 211.997 148.346 211.57C148.346 211.083 148.529 210.707 148.896 210.44C149.263 210.167 149.776 210.03 150.436 210.03H151.276V209.74C151.276 209.393 151.193 209.133 151.026 208.96C150.859 208.78 150.583 208.69 150.196 208.69C149.656 208.69 149.166 208.84 148.726 209.14ZM154.866 208.69V211.48C154.866 211.967 155.1 212.21 155.566 212.21C155.84 212.21 156.07 212.137 156.256 211.99V212.87C156.036 212.99 155.766 213.05 155.446 213.05C154.4 213.05 153.876 212.52 153.876 211.46V208.69H153.086V207.93H153.876V206.69H154.866V207.93H156.196V208.69H154.866ZM157.336 213V206H158.316V213H157.336ZM159.486 210.35L161.476 213H160.306L158.356 210.35L160.266 207.93H161.416L159.486 210.35ZM165.006 210.74H164.246C163.873 210.74 163.59 210.813 163.396 210.96C163.21 211.107 163.116 211.293 163.116 211.52C163.116 211.753 163.19 211.937 163.336 212.07C163.483 212.203 163.696 212.27 163.976 212.27C164.296 212.27 164.546 212.183 164.726 212.01C164.913 211.83 165.006 211.597 165.006 211.31V210.74ZM162.456 209.14V208.19C162.85 207.963 163.37 207.85 164.016 207.85C165.343 207.85 166.006 208.493 166.006 209.78V213H165.036V212.4C164.776 212.827 164.32 213.04 163.666 213.04C163.186 213.04 162.8 212.903 162.506 212.63C162.22 212.35 162.076 211.997 162.076 211.57C162.076 211.083 162.26 210.707 162.626 210.44C162.993 210.167 163.506 210.03 164.166 210.03H165.006V209.74C165.006 209.393 164.923 209.133 164.756 208.96C164.59 208.78 164.313 208.69 163.926 208.69C163.386 208.69 162.896 208.84 162.456 209.14ZM168.307 207.93V208.8C168.607 208.173 169.133 207.86 169.887 207.86C170.387 207.86 170.783 208.013 171.077 208.32C171.37 208.627 171.517 209.043 171.517 209.57V213H170.537V209.8C170.537 209.447 170.447 209.177 170.267 208.99C170.093 208.803 169.86 208.71 169.567 208.71C169.22 208.71 168.923 208.847 168.677 209.12C168.43 209.387 168.307 209.763 168.307 210.25V213H167.327V207.93H168.307ZM177.685 212.21C178.059 212.21 178.372 212.053 178.625 211.74C178.879 211.42 179.005 211.01 179.005 210.51C179.005 209.937 178.879 209.497 178.625 209.19C178.372 208.877 178.049 208.72 177.655 208.72C177.309 208.72 176.995 208.86 176.715 209.14C176.442 209.42 176.305 209.85 176.305 210.43C176.305 211.03 176.439 211.477 176.705 211.77C176.972 212.063 177.299 212.21 177.685 212.21ZM176.305 205.93V208.7C176.665 208.14 177.175 207.86 177.835 207.86C178.475 207.86 178.999 208.1 179.405 208.58C179.812 209.06 180.015 209.697 180.015 210.49C180.015 211.203 179.822 211.813 179.435 212.32C179.049 212.82 178.519 213.07 177.845 213.07C177.172 213.07 176.659 212.79 176.305 212.23V213H175.315V205.93H176.305ZM183.236 213.09C182.489 213.09 181.902 212.847 181.476 212.36C181.049 211.873 180.836 211.257 180.836 210.51C180.836 209.75 181.056 209.12 181.496 208.62C181.936 208.113 182.516 207.86 183.236 207.86C184.009 207.86 184.606 208.107 185.026 208.6C185.446 209.087 185.656 209.71 185.656 210.47C185.656 211.23 185.439 211.857 185.006 212.35C184.579 212.843 183.989 213.09 183.236 213.09ZM183.226 208.69C182.792 208.69 182.456 208.863 182.216 209.21C181.976 209.55 181.856 209.973 181.856 210.48C181.856 210.98 181.979 211.403 182.226 211.75C182.472 212.09 182.809 212.26 183.236 212.26C183.689 212.26 184.032 212.093 184.266 211.76C184.506 211.427 184.626 211.003 184.626 210.49C184.626 209.963 184.512 209.533 184.286 209.2C184.059 208.86 183.706 208.69 183.226 208.69ZM187.74 207.93V208.8C188.04 208.173 188.567 207.86 189.32 207.86C189.82 207.86 190.217 208.013 190.51 208.32C190.804 208.627 190.95 209.043 190.95 209.57V213H189.97V209.8C189.97 209.447 189.88 209.177 189.7 208.99C189.527 208.803 189.294 208.71 189 208.71C188.654 208.71 188.357 208.847 188.11 209.12C187.864 209.387 187.74 209.763 187.74 210.25V213H186.76V207.93H187.74ZM195.418 207.93H196.398V213H195.418V212.13C195.151 212.75 194.625 213.06 193.838 213.06C193.338 213.06 192.941 212.913 192.648 212.62C192.355 212.32 192.208 211.91 192.208 211.39V207.93H193.198V211.15C193.198 211.497 193.281 211.763 193.448 211.95C193.621 212.13 193.858 212.22 194.158 212.22C194.538 212.22 194.841 212.087 195.068 211.82C195.301 211.553 195.418 211.177 195.418 210.69V207.93ZM200.666 208.1V208.99C200.339 208.797 199.919 208.7 199.406 208.7C199.173 208.7 198.986 208.753 198.846 208.86C198.713 208.967 198.646 209.107 198.646 209.28C198.646 209.327 198.649 209.373 198.656 209.42C198.669 209.46 198.689 209.503 198.716 209.55C198.743 209.59 198.766 209.627 198.786 209.66C198.813 209.687 198.853 209.717 198.906 209.75C198.959 209.783 198.999 209.813 199.026 209.84C199.059 209.86 199.109 209.887 199.176 209.92C199.249 209.953 199.303 209.98 199.336 210C199.369 210.013 199.426 210.04 199.506 210.08C199.593 210.113 199.653 210.137 199.686 210.15C200.079 210.323 200.386 210.52 200.606 210.74C200.833 210.953 200.946 211.24 200.946 211.6C200.946 212.053 200.786 212.41 200.466 212.67C200.146 212.923 199.713 213.05 199.166 213.05C198.566 213.05 198.066 212.95 197.666 212.75V211.82C198.133 212.107 198.616 212.25 199.116 212.25C199.376 212.25 199.576 212.197 199.716 212.09C199.863 211.983 199.936 211.843 199.936 211.67C199.936 211.523 199.879 211.393 199.766 211.28C199.653 211.16 199.536 211.073 199.416 211.02C199.303 210.96 199.106 210.87 198.826 210.75C198.033 210.423 197.636 209.943 197.636 209.31C197.636 208.863 197.803 208.513 198.136 208.26C198.469 208.007 198.886 207.88 199.386 207.88C199.933 207.88 200.359 207.953 200.666 208.1ZM206.476 212.21C206.863 212.21 207.19 212.063 207.456 211.77C207.723 211.477 207.856 211.03 207.856 210.43C207.856 209.85 207.716 209.42 207.436 209.14C207.163 208.86 206.853 208.72 206.506 208.72C206.113 208.72 205.79 208.877 205.536 209.19C205.283 209.497 205.156 209.937 205.156 210.51C205.156 211.017 205.28 211.427 205.526 211.74C205.78 212.053 206.096 212.21 206.476 212.21ZM207.856 205.93H208.846V213H207.856V212.23C207.503 212.79 206.986 213.07 206.306 213.07C205.64 213.07 205.113 212.82 204.726 212.32C204.34 211.813 204.146 211.203 204.146 210.49C204.146 209.697 204.35 209.06 204.756 208.58C205.163 208.1 205.686 207.86 206.326 207.86C206.986 207.86 207.496 208.14 207.856 208.7V205.93ZM212.897 210.74H212.137C211.764 210.74 211.48 210.813 211.287 210.96C211.1 211.107 211.007 211.293 211.007 211.52C211.007 211.753 211.08 211.937 211.227 212.07C211.374 212.203 211.587 212.27 211.867 212.27C212.187 212.27 212.437 212.183 212.617 212.01C212.804 211.83 212.897 211.597 212.897 211.31V210.74ZM210.347 209.14V208.19C210.74 207.963 211.26 207.85 211.907 207.85C213.234 207.85 213.897 208.493 213.897 209.78V213H212.927V212.4C212.667 212.827 212.21 213.04 211.557 213.04C211.077 213.04 210.69 212.903 210.397 212.63C210.11 212.35 209.967 211.997 209.967 211.57C209.967 211.083 210.15 210.707 210.517 210.44C210.884 210.167 211.397 210.03 212.057 210.03H212.897V209.74C212.897 209.393 212.814 209.133 212.647 208.96C212.48 208.78 212.204 208.69 211.817 208.69C211.277 208.69 210.787 208.84 210.347 209.14ZM216.197 207.93V208.82C216.444 208.193 216.887 207.88 217.527 207.88C217.621 207.88 217.724 207.89 217.837 207.91V208.87C217.697 208.81 217.541 208.78 217.367 208.78C217.027 208.78 216.747 208.93 216.527 209.23C216.307 209.53 216.197 209.887 216.197 210.3V213H215.217V207.93H216.197ZM218.646 213V207.93H219.636V213H218.646ZM218.696 206.82C218.583 206.7 218.526 206.553 218.526 206.38C218.526 206.207 218.583 206.06 218.696 205.94C218.816 205.82 218.963 205.76 219.136 205.76C219.309 205.76 219.456 205.82 219.576 205.94C219.696 206.06 219.756 206.207 219.756 206.38C219.756 206.547 219.696 206.69 219.576 206.81C219.456 206.93 219.309 206.99 219.136 206.99C218.963 206.99 218.816 206.933 218.696 206.82ZM223.518 213V206H224.498V213H223.518ZM225.668 210.35L227.658 213H226.488L224.538 210.35L226.448 207.93H227.598L225.668 210.35ZM231.188 210.74H230.428C230.055 210.74 229.771 210.813 229.578 210.96C229.391 211.107 229.298 211.293 229.298 211.52C229.298 211.753 229.371 211.937 229.518 212.07C229.665 212.203 229.878 212.27 230.158 212.27C230.478 212.27 230.728 212.183 230.908 212.01C231.095 211.83 231.188 211.597 231.188 211.31V210.74ZM228.638 209.14V208.19C229.031 207.963 229.551 207.85 230.198 207.85C231.525 207.85 232.188 208.493 232.188 209.78V213H231.218V212.4C230.958 212.827 230.501 213.04 229.848 213.04C229.368 213.04 228.981 212.903 228.688 212.63C228.401 212.35 228.258 211.997 228.258 211.57C228.258 211.083 228.441 210.707 228.808 210.44C229.175 210.167 229.688 210.03 230.348 210.03H231.188V209.74C231.188 209.393 231.105 209.133 230.938 208.96C230.771 208.78 230.495 208.69 230.108 208.69C229.568 208.69 229.078 208.84 228.638 209.14ZM234.488 207.93V208.8C234.788 208.173 235.315 207.86 236.068 207.86C236.568 207.86 236.965 208.013 237.258 208.32C237.552 208.627 237.698 209.043 237.698 209.57V213H236.718V209.8C236.718 209.447 236.628 209.177 236.448 208.99C236.275 208.803 236.042 208.71 235.748 208.71C235.402 208.71 235.105 208.847 234.858 209.12C234.612 209.387 234.488 209.763 234.488 210.25V213H233.508V207.93H234.488ZM240.286 208.69V211.48C240.286 211.967 240.52 212.21 240.986 212.21C241.26 212.21 241.49 212.137 241.676 211.99V212.87C241.456 212.99 241.186 213.05 240.866 213.05C239.82 213.05 239.296 212.52 239.296 211.46V208.69H238.506V207.93H239.296V206.69H240.286V207.93H241.616V208.69H240.286ZM244.876 213.09C244.13 213.09 243.543 212.847 243.116 212.36C242.69 211.873 242.476 211.257 242.476 210.51C242.476 209.75 242.696 209.12 243.136 208.62C243.576 208.113 244.156 207.86 244.876 207.86C245.65 207.86 246.246 208.107 246.666 208.6C247.086 209.087 247.296 209.71 247.296 210.47C247.296 211.23 247.08 211.857 246.646 212.35C246.22 212.843 245.63 213.09 244.876 213.09ZM244.866 208.69C244.433 208.69 244.096 208.863 243.856 209.21C243.616 209.55 243.496 209.973 243.496 210.48C243.496 210.98 243.62 211.403 243.866 211.75C244.113 212.09 244.45 212.26 244.876 212.26C245.33 212.26 245.673 212.093 245.906 211.76C246.146 211.427 246.266 211.003 246.266 210.49C246.266 209.963 246.153 209.533 245.926 209.2C245.7 208.86 245.346 208.69 244.866 208.69ZM249.381 207.93V208.82C249.628 208.193 250.071 207.88 250.711 207.88C250.804 207.88 250.908 207.89 251.021 207.91V208.87C250.881 208.81 250.724 208.78 250.551 208.78C250.211 208.78 249.931 208.93 249.711 209.23C249.491 209.53 249.381 209.887 249.381 210.3V213H248.401V207.93H249.381ZM124.289 224.1V224.99C123.962 224.797 123.542 224.7 123.029 224.7C122.796 224.7 122.609 224.753 122.469 224.86C122.336 224.967 122.269 225.107 122.269 225.28C122.269 225.327 122.272 225.373 122.279 225.42C122.292 225.46 122.312 225.503 122.339 225.55C122.366 225.59 122.389 225.627 122.409 225.66C122.436 225.687 122.476 225.717 122.529 225.75C122.582 225.783 122.622 225.813 122.649 225.84C122.682 225.86 122.732 225.887 122.799 225.92C122.872 225.953 122.926 225.98 122.959 226C122.992 226.013 123.049 226.04 123.129 226.08C123.216 226.113 123.276 226.137 123.309 226.15C123.702 226.323 124.009 226.52 124.229 226.74C124.456 226.953 124.569 227.24 124.569 227.6C124.569 228.053 124.409 228.41 124.089 228.67C123.769 228.923 123.336 229.05 122.789 229.05C122.189 229.05 121.689 228.95 121.289 228.75V227.82C121.756 228.107 122.239 228.25 122.739 228.25C122.999 228.25 123.199 228.197 123.339 228.09C123.486 227.983 123.559 227.843 123.559 227.67C123.559 227.523 123.502 227.393 123.389 227.28C123.276 227.16 123.159 227.073 123.039 227.02C122.926 226.96 122.729 226.87 122.449 226.75C121.656 226.423 121.259 225.943 121.259 225.31C121.259 224.863 121.426 224.513 121.759 224.26C122.092 224.007 122.509 223.88 123.009 223.88C123.556 223.88 123.982 223.953 124.289 224.1ZM128.738 226.1V225.92C128.725 225.54 128.622 225.24 128.428 225.02C128.235 224.793 127.958 224.68 127.598 224.68C127.265 224.68 126.978 224.803 126.738 225.05C126.498 225.29 126.348 225.64 126.288 226.1H128.738ZM129.368 227.85V228.73C128.995 228.943 128.502 229.05 127.888 229.05C127.102 229.05 126.475 228.813 126.008 228.34C125.542 227.867 125.308 227.247 125.308 226.48C125.308 225.667 125.522 225.03 125.948 224.57C126.375 224.103 126.918 223.87 127.578 223.87C128.225 223.87 128.738 224.073 129.118 224.48C129.498 224.88 129.688 225.46 129.688 226.22C129.688 226.427 129.668 226.643 129.628 226.87H126.298C126.365 227.31 126.552 227.647 126.858 227.88C127.165 228.113 127.552 228.23 128.018 228.23C128.558 228.23 129.008 228.103 129.368 227.85ZM133.232 228.21C133.606 228.21 133.919 228.053 134.172 227.74C134.426 227.42 134.552 227.01 134.552 226.51C134.552 225.937 134.426 225.497 134.172 225.19C133.919 224.877 133.596 224.72 133.202 224.72C132.856 224.72 132.542 224.86 132.262 225.14C131.989 225.42 131.852 225.85 131.852 226.43C131.852 227.03 131.986 227.477 132.252 227.77C132.519 228.063 132.846 228.21 133.232 228.21ZM131.852 221.93V224.7C132.212 224.14 132.722 223.86 133.382 223.86C134.022 223.86 134.546 224.1 134.952 224.58C135.359 225.06 135.562 225.697 135.562 226.49C135.562 227.203 135.369 227.813 134.982 228.32C134.596 228.82 134.066 229.07 133.392 229.07C132.719 229.07 132.206 228.79 131.852 228.23V229H130.862V221.93H131.852ZM139.813 226.1V225.92C139.799 225.54 139.696 225.24 139.503 225.02C139.309 224.793 139.033 224.68 138.673 224.68C138.339 224.68 138.053 224.803 137.813 225.05C137.573 225.29 137.423 225.64 137.363 226.1H139.813ZM140.443 227.85V228.73C140.069 228.943 139.576 229.05 138.963 229.05C138.176 229.05 137.549 228.813 137.083 228.34C136.616 227.867 136.383 227.247 136.383 226.48C136.383 225.667 136.596 225.03 137.023 224.57C137.449 224.103 137.993 223.87 138.653 223.87C139.299 223.87 139.813 224.073 140.193 224.48C140.573 224.88 140.763 225.46 140.763 226.22C140.763 226.427 140.743 226.643 140.703 226.87H137.373C137.439 227.31 137.626 227.647 137.933 227.88C138.239 228.113 138.626 228.23 139.093 228.23C139.633 228.23 140.083 228.103 140.443 227.85ZM144.807 224.1V224.99C144.48 224.797 144.06 224.7 143.547 224.7C143.313 224.7 143.127 224.753 142.987 224.86C142.853 224.967 142.787 225.107 142.787 225.28C142.787 225.327 142.79 225.373 142.797 225.42C142.81 225.46 142.83 225.503 142.857 225.55C142.883 225.59 142.907 225.627 142.927 225.66C142.953 225.687 142.993 225.717 143.047 225.75C143.1 225.783 143.14 225.813 143.167 225.84C143.2 225.86 143.25 225.887 143.317 225.92C143.39 225.953 143.443 225.98 143.477 226C143.51 226.013 143.567 226.04 143.647 226.08C143.733 226.113 143.793 226.137 143.827 226.15C144.22 226.323 144.527 226.52 144.747 226.74C144.973 226.953 145.087 227.24 145.087 227.6C145.087 228.053 144.927 228.41 144.607 228.67C144.287 228.923 143.853 229.05 143.307 229.05C142.707 229.05 142.207 228.95 141.807 228.75V227.82C142.273 228.107 142.757 228.25 143.257 228.25C143.517 228.25 143.717 228.197 143.857 228.09C144.003 227.983 144.077 227.843 144.077 227.67C144.077 227.523 144.02 227.393 143.907 227.28C143.793 227.16 143.677 227.073 143.557 227.02C143.443 226.96 143.247 226.87 142.967 226.75C142.173 226.423 141.777 225.943 141.777 225.31C141.777 224.863 141.943 224.513 142.277 224.26C142.61 224.007 143.027 223.88 143.527 223.88C144.073 223.88 144.5 223.953 144.807 224.1ZM148.776 226.74H148.016C147.643 226.74 147.359 226.813 147.166 226.96C146.979 227.107 146.886 227.293 146.886 227.52C146.886 227.753 146.959 227.937 147.106 228.07C147.253 228.203 147.466 228.27 147.746 228.27C148.066 228.27 148.316 228.183 148.496 228.01C148.683 227.83 148.776 227.597 148.776 227.31V226.74ZM146.226 225.14V224.19C146.619 223.963 147.139 223.85 147.786 223.85C149.113 223.85 149.776 224.493 149.776 225.78V229H148.806V228.4C148.546 228.827 148.089 229.04 147.436 229.04C146.956 229.04 146.569 228.903 146.276 228.63C145.989 228.35 145.846 227.997 145.846 227.57C145.846 227.083 146.029 226.707 146.396 226.44C146.763 226.167 147.276 226.03 147.936 226.03H148.776V225.74C148.776 225.393 148.693 225.133 148.526 224.96C148.359 224.78 148.083 224.69 147.696 224.69C147.156 224.69 146.666 224.84 146.226 225.14ZM152.076 223.93V224.82C152.323 224.193 152.766 223.88 153.406 223.88C153.5 223.88 153.603 223.89 153.716 223.91V224.87C153.576 224.81 153.42 224.78 153.246 224.78C152.906 224.78 152.626 224.93 152.406 225.23C152.186 225.53 152.076 225.887 152.076 226.3V229H151.096V223.93H152.076Z" fill="#2B2B2B"/>
<path d="M158.216 223.3V225.5H159.056C159.443 225.5 159.733 225.403 159.926 225.21C160.119 225.01 160.216 224.733 160.216 224.38C160.216 224.033 160.113 223.767 159.906 223.58C159.706 223.393 159.416 223.3 159.036 223.3H158.216ZM160.436 229L158.906 226.54H158.216V229H156.956V222.26H159.036C159.803 222.26 160.403 222.453 160.836 222.84C161.276 223.227 161.496 223.743 161.496 224.39C161.489 224.87 161.373 225.277 161.146 225.61C160.919 225.937 160.609 226.18 160.216 226.34L161.946 229H160.436ZM165.255 228.04C165.615 228.04 165.908 227.903 166.135 227.63C166.361 227.35 166.475 226.96 166.475 226.46C166.475 225.96 166.361 225.573 166.135 225.3C165.908 225.02 165.621 224.88 165.275 224.88C164.928 224.88 164.628 225.01 164.375 225.27C164.121 225.53 163.995 225.917 163.995 226.43C163.995 226.943 164.118 227.34 164.365 227.62C164.611 227.9 164.908 228.04 165.255 228.04ZM163.995 223.93V224.71C164.355 224.143 164.871 223.86 165.545 223.86C166.205 223.86 166.728 224.097 167.115 224.57C167.508 225.043 167.705 225.667 167.705 226.44C167.705 227.2 167.508 227.83 167.115 228.33C166.728 228.823 166.201 229.07 165.535 229.07C164.855 229.07 164.341 228.793 163.995 228.24V230.91H162.795V223.93H163.995ZM170.693 224.73V223.48L172.423 222.46H173.483V229H172.293V223.76L170.693 224.73ZM176.066 223.48V224.92C176.26 224.88 176.446 224.86 176.626 224.86C177.326 224.86 177.866 225.04 178.246 225.4C178.633 225.76 178.826 226.25 178.826 226.87C178.826 227.537 178.606 228.07 178.166 228.47C177.726 228.87 177.11 229.07 176.316 229.07C175.63 229.07 175.053 228.953 174.586 228.72V227.57C175.026 227.837 175.536 227.97 176.116 227.97C177.096 227.97 177.586 227.593 177.586 226.84C177.586 226.547 177.48 226.317 177.266 226.15C177.06 225.983 176.763 225.9 176.376 225.9C175.87 225.9 175.373 226.013 174.886 226.24V222.45H178.406V223.48H176.066ZM179.116 230.26L180.096 227.79H181.486L180.156 230.26H179.116ZM182.241 225.7C182.241 224.667 182.445 223.85 182.851 223.25C183.258 222.643 183.835 222.34 184.581 222.34C185.335 222.34 185.915 222.643 186.321 223.25C186.735 223.85 186.941 224.667 186.941 225.7C186.941 226.727 186.738 227.547 186.331 228.16C185.931 228.773 185.348 229.08 184.581 229.08C183.835 229.08 183.258 228.773 182.851 228.16C182.445 227.547 182.241 226.727 182.241 225.7ZM183.771 224.02C183.571 224.407 183.471 224.967 183.471 225.7C183.471 226.433 183.568 227 183.761 227.4C183.961 227.793 184.235 227.99 184.581 227.99C184.941 227.99 185.218 227.793 185.411 227.4C185.611 227.007 185.711 226.44 185.711 225.7C185.711 224.96 185.608 224.397 185.401 224.01C185.201 223.623 184.928 223.43 184.581 223.43C184.241 223.43 183.971 223.627 183.771 224.02ZM187.7 225.7C187.7 224.667 187.904 223.85 188.31 223.25C188.717 222.643 189.294 222.34 190.04 222.34C190.794 222.34 191.374 222.643 191.78 223.25C192.194 223.85 192.4 224.667 192.4 225.7C192.4 226.727 192.197 227.547 191.79 228.16C191.39 228.773 190.807 229.08 190.04 229.08C189.294 229.08 188.717 228.773 188.31 228.16C187.904 227.547 187.7 226.727 187.7 225.7ZM189.23 224.02C189.03 224.407 188.93 224.967 188.93 225.7C188.93 226.433 189.027 227 189.22 227.4C189.42 227.793 189.694 227.99 190.04 227.99C190.4 227.99 190.677 227.793 190.87 227.4C191.07 227.007 191.17 226.44 191.17 225.7C191.17 224.96 191.067 224.397 190.86 224.01C190.66 223.623 190.387 223.43 190.04 223.43C189.7 223.43 189.43 223.627 189.23 224.02ZM193.159 225.7C193.159 224.667 193.363 223.85 193.769 223.25C194.176 222.643 194.753 222.34 195.499 222.34C196.253 222.34 196.833 222.643 197.239 223.25C197.653 223.85 197.859 224.667 197.859 225.7C197.859 226.727 197.656 227.547 197.249 228.16C196.849 228.773 196.266 229.08 195.499 229.08C194.753 229.08 194.176 228.773 193.769 228.16C193.363 227.547 193.159 226.727 193.159 225.7ZM194.689 224.02C194.489 224.407 194.389 224.967 194.389 225.7C194.389 226.433 194.486 227 194.679 227.4C194.879 227.793 195.153 227.99 195.499 227.99C195.859 227.99 196.136 227.793 196.329 227.4C196.529 227.007 196.629 226.44 196.629 225.7C196.629 224.96 196.526 224.397 196.319 224.01C196.119 223.623 195.846 223.43 195.499 223.43C195.159 223.43 194.889 223.627 194.689 224.02ZM198.168 230.26L199.148 227.79H200.538L199.208 230.26H198.168ZM201.294 225.7C201.294 224.667 201.497 223.85 201.904 223.25C202.311 222.643 202.887 222.34 203.634 222.34C204.387 222.34 204.967 222.643 205.374 223.25C205.787 223.85 205.994 224.667 205.994 225.7C205.994 226.727 205.791 227.547 205.384 228.16C204.984 228.773 204.401 229.08 203.634 229.08C202.887 229.08 202.311 228.773 201.904 228.16C201.497 227.547 201.294 226.727 201.294 225.7ZM202.824 224.02C202.624 224.407 202.524 224.967 202.524 225.7C202.524 226.433 202.621 227 202.814 227.4C203.014 227.793 203.287 227.99 203.634 227.99C203.994 227.99 204.271 227.793 204.464 227.4C204.664 227.007 204.764 226.44 204.764 225.7C204.764 224.96 204.661 224.397 204.454 224.01C204.254 223.623 203.981 223.43 203.634 223.43C203.294 223.43 203.024 223.627 202.824 224.02ZM206.753 225.7C206.753 224.667 206.956 223.85 207.363 223.25C207.77 222.643 208.346 222.34 209.093 222.34C209.846 222.34 210.426 222.643 210.833 223.25C211.246 223.85 211.453 224.667 211.453 225.7C211.453 226.727 211.25 227.547 210.843 228.16C210.443 228.773 209.86 229.08 209.093 229.08C208.346 229.08 207.77 228.773 207.363 228.16C206.956 227.547 206.753 226.727 206.753 225.7ZM208.283 224.02C208.083 224.407 207.983 224.967 207.983 225.7C207.983 226.433 208.08 227 208.273 227.4C208.473 227.793 208.746 227.99 209.093 227.99C209.453 227.99 209.73 227.793 209.923 227.4C210.123 227.007 210.223 226.44 210.223 225.7C210.223 224.96 210.12 224.397 209.913 224.01C209.713 223.623 209.44 223.43 209.093 223.43C208.753 223.43 208.483 223.627 208.283 224.02ZM212.212 225.7C212.212 224.667 212.415 223.85 212.822 223.25C213.229 222.643 213.805 222.34 214.552 222.34C215.305 222.34 215.885 222.643 216.292 223.25C216.705 223.85 216.912 224.667 216.912 225.7C216.912 226.727 216.709 227.547 216.302 228.16C215.902 228.773 215.319 229.08 214.552 229.08C213.805 229.08 213.229 228.773 212.822 228.16C212.415 227.547 212.212 226.727 212.212 225.7ZM213.742 224.02C213.542 224.407 213.442 224.967 213.442 225.7C213.442 226.433 213.539 227 213.732 227.4C213.932 227.793 214.205 227.99 214.552 227.99C214.912 227.99 215.189 227.793 215.382 227.4C215.582 227.007 215.682 226.44 215.682 225.7C215.682 224.96 215.579 224.397 215.372 224.01C215.172 223.623 214.899 223.43 214.552 223.43C214.212 223.43 213.942 223.627 213.742 224.02Z" fill="#FF1934"/>
<rect x="109" y="275" width="120" height="24" rx="8" fill="#FF1934"/>
<path d="M159.069 283.608L159.069 284.44L157.701 284.44L157.701 289L156.685 289L156.685 284.44L155.317 284.44L155.317 283.608L159.069 283.608ZM160.842 288.176L163.042 288.176L163.042 289L159.826 289L159.826 283.608L163.01 283.608L163.01 284.432L160.842 284.432L160.842 285.896L162.77 285.896L162.77 286.712L160.842 286.712L160.842 288.176ZM165.06 284.44L165.06 286.2L165.732 286.2C166.042 286.2 166.274 286.123 166.428 285.968C166.583 285.808 166.66 285.587 166.66 285.304C166.66 285.027 166.578 284.813 166.412 284.664C166.252 284.515 166.02 284.44 165.716 284.44L165.06 284.44ZM166.836 289L165.612 287.032L165.06 287.032L165.06 289L164.052 289L164.052 283.608L165.716 283.608C166.33 283.608 166.81 283.763 167.156 284.072C167.508 284.381 167.684 284.795 167.684 285.312C167.679 285.696 167.586 286.021 167.404 286.288C167.223 286.549 166.975 286.744 166.66 286.872L168.044 289L166.836 289ZM168.827 289L168.827 283.608L169.835 283.608L169.835 289L168.827 289ZM170.925 289L171.357 283.608L172.509 283.608L173.245 285.568C173.373 285.899 173.493 286.229 173.605 286.56C173.717 286.885 173.797 287.128 173.845 287.288L173.917 287.536C174.082 286.981 174.312 286.325 174.605 285.568L175.357 283.608L176.509 283.608L177.037 289L176.029 289L175.837 286.896L175.693 285.008C175.501 285.557 175.272 286.187 175.005 286.896L174.253 288.92L173.565 288.92L172.829 286.896L172.197 285.032C172.197 285.293 172.162 285.915 172.093 286.896L171.933 289L170.925 289ZM179.428 286.952L180.948 286.952L180.876 286.712C180.695 286.136 180.545 285.653 180.428 285.264C180.316 284.869 180.247 284.621 180.22 284.52L180.188 284.36C180.14 284.627 179.911 285.413 179.5 286.72L179.428 286.952ZM181.588 289L181.204 287.776L179.164 287.776L178.78 289L177.724 289L179.548 283.608L180.852 283.608L182.676 289L181.588 289Z" fill="white"/>
<path d="M9 341.5H329C333.694 341.5 337.5 345.306 337.5 350C337.5 354.694 333.694 358.5 329 358.5H9C4.30558 358.5 0.5 354.694 0.5 350C0.500002 345.306 4.30558 341.5 9 341.5Z" fill="white"/>
<path d="M9 341.5H329C333.694 341.5 337.5 345.306 337.5 350C337.5 354.694 333.694 358.5 329 358.5H9C4.30558 358.5 0.5 354.694 0.5 350C0.500002 345.306 4.30558 341.5 9 341.5Z" stroke="#CCCCCC"/>
<path d="M7.86805e-07 350C3.52265e-07 345.029 4.02944 341 9 341L39 341C43.9706 341 48 345.029 48 350C48 354.971 43.9706 359 39 359L9 359C4.02944 359 1.22135e-06 354.971 7.86805e-07 350Z" fill="#FF1934"/>
<path d="M15.448 346.688H16.264L16.816 348.6L17.456 350.92C17.5893 350.179 17.7547 349.403 17.952 348.592L18.44 346.608H19.464L18.088 352H16.92L16.432 350.296C16.2987 349.843 16.184 349.443 16.088 349.096C15.9973 348.749 15.936 348.517 15.904 348.4L15.864 348.216C15.7893 348.589 15.6027 349.283 15.304 350.296L14.8 352H13.64L12.2 346.608H13.264L13.768 348.6C13.8533 348.957 13.9387 349.328 14.024 349.712C14.1093 350.096 14.1733 350.389 14.216 350.592L14.28 350.904C14.4507 350.232 14.6587 349.464 14.904 348.6L15.448 346.688ZM22.2561 350.256H21.7601C21.5094 350.256 21.3174 350.309 21.1841 350.416C21.0507 350.517 20.9841 350.648 20.9841 350.808C20.9841 351.149 21.1814 351.32 21.5761 351.32C21.7894 351.32 21.9547 351.259 22.0721 351.136C22.1947 351.008 22.2561 350.843 22.2561 350.64V350.256ZM20.2881 349.04V348.152C20.5921 347.965 21.0294 347.872 21.6001 347.872C22.6987 347.872 23.2481 348.384 23.2481 349.408V352H22.2961V351.512C22.1094 351.859 21.7574 352.032 21.2401 352.032C20.8561 352.032 20.5494 351.92 20.3201 351.696C20.0961 351.472 19.9841 351.189 19.9841 350.848C19.9841 350.464 20.1281 350.163 20.4161 349.944C20.7041 349.725 21.1201 349.616 21.6641 349.616H22.2561V349.368C22.2561 349.144 22.1974 348.973 22.0801 348.856C21.9627 348.739 21.7627 348.68 21.4801 348.68C21.0481 348.68 20.6507 348.8 20.2881 349.04ZM27.7828 352H26.6548L25.1988 349.904V352H24.2388V346.44H25.1988V349.848L26.6308 347.944H27.7508L26.2628 349.88L27.7828 352ZM29.5864 348.664V350.728C29.5864 350.899 29.6318 351.029 29.7224 351.12C29.8131 351.205 29.9384 351.248 30.0984 351.248C30.3011 351.248 30.4878 351.192 30.6584 351.08V351.904C30.4718 351.995 30.2318 352.04 29.9384 352.04C29.0638 352.04 28.6264 351.597 28.6264 350.712V348.664H28.0184V347.944H28.6264V346.968H29.5864V347.944H30.5944V348.664H29.5864ZM33.9617 347.944H34.9297V352H33.9617V351.336C33.7484 351.805 33.3324 352.04 32.7137 352.04C32.303 352.04 31.983 351.923 31.7537 351.688C31.5244 351.453 31.4097 351.12 31.4097 350.688V347.944H32.3697V350.464C32.3697 350.72 32.431 350.915 32.5537 351.048C32.6817 351.181 32.855 351.248 33.0737 351.248C33.351 351.248 33.567 351.155 33.7217 350.968C33.8817 350.781 33.9617 350.499 33.9617 350.12V347.944Z" fill="white"/>
<rect x="56" y="348" width="274" height="4" rx="2" fill="#CCCCCC"/>
<mask id="mask0_1124_4113" style="mask-type:alpha" maskUnits="userSpaceOnUse" x="56" y="348" width="274" height="4">
<rect x="56" y="348" width="274" height="4" rx="2" fill="#CCCCCC"/>
</mask>
<g mask="url(#mask0_1124_4113)">
<rect x="56" y="348" width="274" height="4" rx="2" fill="#FF1934"/>
</g>
<defs>
<filter id="filter0_d_1124_4113" x="22.5" y="48" width="293" height="56" filterUnits="userSpaceOnUse" color-interpolation-filters="sRGB">
<feFlood flood-opacity="0" result="BackgroundImageFix"/>
<feColorMatrix in="SourceAlpha" type="matrix" values="0 0 0 0 0 0 0 0 0 0 0 0 0 0 0 0 0 0 127 0" result="hardAlpha"/>
<feOffset dy="2"/>
<feGaussianBlur stdDeviation="2"/>
<feComposite in2="hardAlpha" operator="out"/>
<feColorMatrix type="matrix" values="0 0 0 0 0.168627 0 0 0 0 0.168627 0 0 0 0 0.168627 0 0 0 0.24 0"/>
<feBlend mode="normal" in2="BackgroundImageFix" result="effect1_dropShadow_1124_4113"/>
<feBlend mode="normal" in="SourceGraphic" in2="effect1_dropShadow_1124_4113" result="shape"/>
</filter>
<clipPath id="clip0_1124_4113">
<rect width="24" height="24" fill="white" transform="translate(42.5 66)"/>
</clipPath>
<clipPath id="clip1_1124_4113">
<rect width="64" height="64" fill="white" transform="translate(137 130)"/>
</clipPath>
</defs>
</svg>
