<svg width="338" height="375" viewBox="0 0 338 375" fill="none" xmlns="http://www.w3.org/2000/svg">
<rect width="338" height="375" fill="#D3D3D3"/>
<rect x="9" y="50" width="320" height="265" rx="16" fill="white"/>
<g filter="url(#filter0_d_1124_4113)">
<path d="M9 66C9 57.1634 16.1634 50 25 50H313C321.837 50 329 57.1634 329 66V98H9V66Z" fill="#FF1934" shape-rendering="crispEdges"/>
<g clip-path="url(#clip0_1124_4113)">
<path fill-rule="evenodd" clip-rule="evenodd" d="M27 78C27 72.49 31.49 68 37 68C42.51 68 47 72.49 47 78C47 83.51 42.51 88 37 88C31.49 88 27 83.51 27 78ZM28.6 78C28.6 82.63 32.37 86.4 37 86.4C41.63 86.4 45.4 82.63 45.4 78C45.4 73.37 41.63 69.6 37 69.6C32.37 69.6 28.6 73.37 28.6 78ZM32.2 78C32.2 77.56 32.56 77.2 33 77.2H41C41.44 77.2 41.8 77.56 41.8 78C41.8 78.44 41.44 78.8 41 78.8H33C32.56 78.8 32.2 78.44 32.2 78Z" fill="white"/>
</g>
<path d="M57.91 82V72.564H60.066V82H57.91ZM62.684 77.282L66.03 82H63.328L60.164 77.31L63.216 72.564H65.778L62.684 77.282ZM71.2115 77.8V77.632C71.1462 76.8013 70.7822 76.386 70.1195 76.386C69.7929 76.386 69.5035 76.5073 69.2515 76.75C68.9995 76.9833 68.8315 77.3333 68.7475 77.8H71.2115ZM72.6815 79.886V81.594C72.1962 81.9113 71.4542 82.07 70.4555 82.07C69.2889 82.07 68.3789 81.734 67.7255 81.062C67.0815 80.3807 66.7595 79.508 66.7595 78.444C66.7595 77.3147 67.0722 76.4327 67.6975 75.798C68.3322 75.154 69.1115 74.832 70.0355 74.832C70.9875 74.832 71.7389 75.112 72.2895 75.672C72.8402 76.2227 73.1155 77.0487 73.1155 78.15C73.1155 78.3647 73.0782 78.7333 73.0035 79.256H68.8315C68.9715 79.648 69.2142 79.9513 69.5595 80.166C69.9049 80.3807 70.3202 80.488 70.8055 80.488C71.5242 80.488 72.1495 80.2873 72.6815 79.886ZM76.6044 74.902V76.218C76.735 75.8073 76.9497 75.4807 77.2484 75.238C77.5564 74.986 77.911 74.86 78.3124 74.86C78.5364 74.86 78.7137 74.8787 78.8444 74.916V76.848C78.6204 76.7453 78.3637 76.694 78.0744 76.694C77.6357 76.694 77.281 76.8573 77.0104 77.184C76.7397 77.5013 76.6044 77.926 76.6044 78.458V82H74.5604L74.5744 74.902H76.6044ZM84.152 74.902H86.196V82H84.152V80.866C83.7787 81.6593 83.06 82.056 81.996 82.056C81.268 82.056 80.6987 81.8553 80.288 81.454C79.8867 81.0433 79.686 80.4413 79.686 79.648V74.902H81.73V79.186C81.73 80.0167 82.094 80.432 82.822 80.432C83.7087 80.432 84.152 79.8393 84.152 78.654V74.902ZM92.3571 75.112V76.862C91.8624 76.5727 91.2838 76.428 90.6211 76.428C90.3784 76.428 90.1918 76.4793 90.0611 76.582C89.9304 76.6753 89.8651 76.7967 89.8651 76.946C89.8651 77.03 89.8884 77.1093 89.9351 77.184C89.9818 77.2587 90.0564 77.3287 90.1591 77.394C90.2711 77.4593 90.3738 77.52 90.4671 77.576C90.5698 77.6227 90.7051 77.6833 90.8731 77.758C91.0504 77.8327 91.1904 77.898 91.2931 77.954C91.7224 78.178 92.0678 78.4393 92.3291 78.738C92.5904 79.0273 92.7211 79.4007 92.7211 79.858C92.7211 80.558 92.4691 81.0993 91.9651 81.482C91.4611 81.8647 90.7938 82.056 89.9631 82.056C89.1044 82.056 88.3858 81.9113 87.8071 81.622V79.802C88.4511 80.25 89.1324 80.474 89.8511 80.474C90.3644 80.474 90.6211 80.3107 90.6211 79.984C90.6211 79.9 90.5978 79.8207 90.5511 79.746C90.5044 79.6713 90.4251 79.6013 90.3131 79.536C90.2011 79.4707 90.0984 79.4193 90.0051 79.382C89.9118 79.3353 89.7764 79.2747 89.5991 79.2C89.4218 79.1253 89.2864 79.0647 89.1931 79.018C88.2504 78.57 87.7791 77.898 87.7791 77.002C87.7791 76.3113 88.0404 75.7747 88.5631 75.392C89.0951 75.0093 89.7531 74.818 90.5371 74.818C91.2651 74.818 91.8718 74.916 92.3571 75.112ZM97.4888 79.088H96.8308C96.4854 79.088 96.2194 79.1627 96.0328 79.312C95.8461 79.4613 95.7528 79.6527 95.7528 79.886C95.7528 80.362 96.0281 80.6 96.5788 80.6C96.8681 80.6 97.0921 80.5113 97.2508 80.334C97.4094 80.1567 97.4888 79.914 97.4888 79.606V79.088ZM94.1708 77.086V75.252C94.7308 74.9347 95.5381 74.776 96.5928 74.776C97.6008 74.776 98.3521 74.9953 98.8468 75.434C99.3414 75.8633 99.5888 76.5353 99.5888 77.45V82H97.5868V81.132C97.2881 81.7387 96.7001 82.042 95.8228 82.042C95.1321 82.042 94.5908 81.846 94.1988 81.454C93.8161 81.062 93.6248 80.572 93.6248 79.984C93.6248 79.3027 93.8721 78.7753 94.3668 78.402C94.8708 78.0193 95.6128 77.828 96.5928 77.828H97.4888V77.338C97.4888 76.7407 97.0921 76.442 96.2988 76.442C95.5334 76.442 94.8241 76.6567 94.1708 77.086ZM107.872 82H105.506L103.238 78.514V82H101.194V72.34H103.238V78.08L105.478 74.902H107.83L105.366 78.304L107.872 82ZM112.377 79.088H111.719C111.374 79.088 111.108 79.1627 110.921 79.312C110.735 79.4613 110.641 79.6527 110.641 79.886C110.641 80.362 110.917 80.6 111.467 80.6C111.757 80.6 111.981 80.5113 112.139 80.334C112.298 80.1567 112.377 79.914 112.377 79.606V79.088ZM109.059 77.086V75.252C109.619 74.9347 110.427 74.776 111.481 74.776C112.489 74.776 113.241 74.9953 113.735 75.434C114.23 75.8633 114.477 76.5353 114.477 77.45V82H112.475V81.132C112.177 81.7387 111.589 82.042 110.711 82.042C110.021 82.042 109.479 81.846 109.087 81.454C108.705 81.062 108.513 80.572 108.513 79.984C108.513 79.3027 108.761 78.7753 109.255 78.402C109.759 78.0193 110.501 77.828 111.481 77.828H112.377V77.338C112.377 76.7407 111.981 76.442 111.187 76.442C110.422 76.442 109.713 76.6567 109.059 77.086ZM118.126 74.902V76.106C118.304 75.714 118.574 75.406 118.938 75.182C119.312 74.9487 119.755 74.832 120.268 74.832C120.996 74.832 121.566 75.0513 121.976 75.49C122.387 75.9193 122.592 76.554 122.592 77.394V82H120.548V77.772C120.548 77.352 120.45 77.0347 120.254 76.82C120.058 76.596 119.783 76.484 119.428 76.484C119.055 76.484 118.742 76.6333 118.49 76.932C118.248 77.2213 118.126 77.66 118.126 78.248V82H116.082V74.902H118.126ZM129.929 77.24H130.643C131.782 77.24 132.351 76.722 132.351 75.686C132.351 74.7527 131.824 74.286 130.769 74.286H129.929V77.24ZM127.773 72.564H131.021C132.067 72.564 132.911 72.858 133.555 73.446C134.209 74.034 134.535 74.7807 134.535 75.686C134.535 76.722 134.195 77.5247 133.513 78.094C132.841 78.6633 132.011 78.948 131.021 78.948H129.929V82H127.773V72.564ZM137.622 74.902V76.218C137.753 75.8073 137.967 75.4807 138.266 75.238C138.574 74.986 138.929 74.86 139.33 74.86C139.554 74.86 139.731 74.8787 139.862 74.916V76.848C139.638 76.7453 139.381 76.694 139.092 76.694C138.653 76.694 138.299 76.8573 138.028 77.184C137.757 77.5013 137.622 77.926 137.622 78.458V82H135.578L135.592 74.902H137.622ZM143.91 82.112C142.799 82.112 141.94 81.7807 141.334 81.118C140.727 80.446 140.424 79.5873 140.424 78.542C140.424 77.45 140.741 76.554 141.376 75.854C142.01 75.1447 142.855 74.79 143.91 74.79C145.011 74.79 145.865 75.1307 146.472 75.812C147.078 76.4933 147.382 77.3613 147.382 78.416C147.382 79.4893 147.074 80.376 146.458 81.076C145.851 81.7667 145.002 82.112 143.91 82.112ZM143.896 76.4C143.448 76.4 143.112 76.5913 142.888 76.974C142.664 77.3567 142.552 77.8513 142.552 78.458C142.552 79.0647 142.664 79.564 142.888 79.956C143.121 80.3387 143.466 80.53 143.924 80.53C144.372 80.53 144.703 80.3433 144.918 79.97C145.142 79.5873 145.254 79.0927 145.254 78.486C145.254 77.0953 144.801 76.4 143.896 76.4ZM152.357 80.376C152.805 80.376 153.169 80.208 153.449 79.872C153.729 79.5267 153.869 79.06 153.869 78.472C153.869 77.828 153.724 77.3427 153.435 77.016C153.155 76.68 152.796 76.512 152.357 76.512C151.928 76.512 151.554 76.6753 151.237 77.002C150.92 77.3287 150.761 77.786 150.761 78.374C150.761 78.9807 150.91 79.466 151.209 79.83C151.508 80.194 151.89 80.376 152.357 80.376ZM150.761 74.902V75.994C151.256 75.21 151.97 74.818 152.903 74.818C153.818 74.818 154.55 75.1447 155.101 75.798C155.661 76.442 155.941 77.3193 155.941 78.43C155.941 79.4847 155.67 80.3573 155.129 81.048C154.597 81.7387 153.855 82.084 152.903 82.084C151.942 82.084 151.228 81.706 150.761 80.95V84.618H148.717V74.902H150.761ZM161.378 77.8V77.632C161.312 76.8013 160.948 76.386 160.286 76.386C159.959 76.386 159.67 76.5073 159.418 76.75C159.166 76.9833 158.998 77.3333 158.914 77.8H161.378ZM162.848 79.886V81.594C162.362 81.9113 161.62 82.07 160.622 82.07C159.455 82.07 158.545 81.734 157.892 81.062C157.248 80.3807 156.926 79.508 156.926 78.444C156.926 77.3147 157.238 76.4327 157.864 75.798C158.498 75.154 159.278 74.832 160.202 74.832C161.154 74.832 161.905 75.112 162.456 75.672C163.006 76.2227 163.282 77.0487 163.282 78.15C163.282 78.3647 163.244 78.7333 163.17 79.256H158.998C159.138 79.648 159.38 79.9513 159.726 80.166C160.071 80.3807 160.486 80.488 160.972 80.488C161.69 80.488 162.316 80.2873 162.848 79.886ZM166.77 74.902V76.218C166.901 75.8073 167.116 75.4807 167.414 75.238C167.722 74.986 168.077 74.86 168.478 74.86C168.702 74.86 168.88 74.8787 169.01 74.916V76.848C168.786 76.7453 168.53 76.694 168.24 76.694C167.802 76.694 167.447 76.8573 167.176 77.184C166.906 77.5013 166.77 77.926 166.77 78.458V82H164.726L164.74 74.902H166.77ZM172.288 76.4V79.662C172.288 79.914 172.358 80.1053 172.498 80.236C172.647 80.3667 172.839 80.432 173.072 80.432C173.445 80.432 173.777 80.3387 174.066 80.152V81.846C173.721 81.9953 173.254 82.07 172.666 82.07C171.051 82.07 170.244 81.2627 170.244 79.648V76.4H169.222V74.902H170.244V73.222H172.288V74.902H173.94V76.4H172.288ZM175.392 82V74.902H177.436V82H175.392ZM175.574 73.684C175.341 73.4507 175.224 73.1707 175.224 72.844C175.224 72.5173 175.341 72.2373 175.574 72.004C175.808 71.7707 176.088 71.654 176.414 71.654C176.741 71.654 177.021 71.7707 177.254 72.004C177.488 72.2373 177.604 72.5173 177.604 72.844C177.604 73.1707 177.488 73.4507 177.254 73.684C177.021 73.9173 176.741 74.034 176.414 74.034C176.088 74.034 175.808 73.9173 175.574 73.684Z" fill="white"/>
</g>
<mask id="path-5-inside-1_1124_4113" fill="white">
<path d="M9 106H329V130H9V106Z"/>
</mask>
<path d="M9 106H329V130H9V106Z" fill="white"/>
<path d="M329 129H9V131H329V129Z" fill="#F1F1F1" mask="url(#path-5-inside-1_1124_4113)"/>
<path d="M103.44 111.808V112.488C103.115 112.275 102.725 112.168 102.272 112.168C101.947 112.168 101.688 112.245 101.496 112.4C101.304 112.549 101.208 112.747 101.208 112.992C101.208 113.12 101.232 113.235 101.28 113.336C101.333 113.437 101.424 113.533 101.552 113.624C101.68 113.709 101.789 113.776 101.88 113.824C101.971 113.867 102.112 113.931 102.304 114.016C102.485 114.096 102.624 114.16 102.72 114.208C102.816 114.251 102.939 114.323 103.088 114.424C103.243 114.52 103.357 114.616 103.432 114.712C103.512 114.803 103.581 114.925 103.64 115.08C103.704 115.229 103.736 115.392 103.736 115.568C103.736 116.043 103.573 116.411 103.248 116.672C102.923 116.928 102.504 117.056 101.992 117.056C101.427 117.056 100.947 116.941 100.552 116.712V116.016C100.941 116.309 101.416 116.456 101.976 116.456C102.312 116.456 102.576 116.381 102.768 116.232C102.96 116.083 103.056 115.867 103.056 115.584C103.056 115.467 103.032 115.363 102.984 115.272C102.941 115.176 102.867 115.091 102.76 115.016C102.659 114.936 102.56 114.872 102.464 114.824C102.373 114.771 102.248 114.707 102.088 114.632C102.056 114.616 102.008 114.595 101.944 114.568C101.715 114.467 101.539 114.384 101.416 114.32C101.299 114.256 101.157 114.163 100.992 114.04C100.832 113.912 100.715 113.765 100.64 113.6C100.565 113.435 100.528 113.243 100.528 113.024C100.528 112.565 100.691 112.208 101.016 111.952C101.347 111.691 101.76 111.56 102.256 111.56C102.72 111.56 103.115 111.643 103.44 111.808ZM104.811 117V112.944H105.443V117H104.811ZM104.827 111.968C104.753 111.888 104.715 111.789 104.715 111.672C104.715 111.555 104.753 111.456 104.827 111.376C104.907 111.296 105.006 111.256 105.123 111.256C105.241 111.256 105.339 111.296 105.419 111.376C105.499 111.456 105.539 111.555 105.539 111.672C105.539 111.789 105.499 111.888 105.419 111.968C105.339 112.043 105.241 112.08 105.123 112.08C105.006 112.08 104.907 112.043 104.827 111.968ZM106.647 117V111.376H107.271V117H106.647ZM108.095 114.872L109.743 117H108.983L107.351 114.872L108.943 112.944H109.695L108.095 114.872ZM110.522 117V111.344H111.154V117H110.522ZM114.877 112.944H115.509V117H114.877V116.296C114.664 116.797 114.24 117.048 113.605 117.048C113.205 117.048 112.888 116.931 112.653 116.696C112.424 116.456 112.309 116.136 112.309 115.736V112.944H112.941V115.576C112.941 115.869 113.016 116.093 113.165 116.248C113.315 116.403 113.517 116.48 113.773 116.48C114.109 116.48 114.376 116.363 114.573 116.128C114.776 115.893 114.877 115.576 114.877 115.176V112.944ZM118.886 113.08V113.68C118.64 113.531 118.304 113.456 117.878 113.456C117.664 113.456 117.494 113.507 117.366 113.608C117.243 113.704 117.182 113.829 117.182 113.984C117.182 114.08 117.2 114.165 117.238 114.24C117.275 114.309 117.347 114.379 117.454 114.448C117.566 114.517 117.646 114.565 117.694 114.592C117.747 114.613 117.859 114.661 118.03 114.736C118.371 114.875 118.638 115.032 118.83 115.208C119.022 115.384 119.118 115.621 119.118 115.92C119.118 116.267 118.995 116.541 118.75 116.744C118.51 116.947 118.179 117.048 117.758 117.048C117.267 117.048 116.87 116.965 116.566 116.8V116.184C116.923 116.397 117.307 116.504 117.718 116.504C117.963 116.504 118.15 116.456 118.278 116.36C118.406 116.264 118.47 116.133 118.47 115.968C118.47 115.776 118.398 115.627 118.254 115.52C118.115 115.413 117.88 115.293 117.55 115.16C117.246 115.043 117 114.896 116.814 114.72C116.632 114.544 116.542 114.307 116.542 114.008C116.542 113.672 116.667 113.405 116.918 113.208C117.174 113.005 117.491 112.904 117.87 112.904C118.291 112.904 118.63 112.963 118.886 113.08ZM122.608 116.448H123.832C124.173 116.448 124.434 116.371 124.616 116.216C124.802 116.056 124.896 115.824 124.896 115.52C124.896 115.216 124.792 114.979 124.584 114.808C124.381 114.637 124.09 114.552 123.712 114.552H122.608V116.448ZM122.608 112.16V114H123.472C123.904 114 124.224 113.909 124.432 113.728C124.64 113.547 124.744 113.312 124.744 113.024C124.744 112.773 124.645 112.568 124.448 112.408C124.256 112.243 123.968 112.16 123.584 112.16H122.608ZM121.96 111.608H123.584C124.138 111.608 124.581 111.736 124.912 111.992C125.248 112.248 125.416 112.592 125.416 113.024C125.416 113.333 125.328 113.603 125.152 113.832C124.981 114.056 124.76 114.197 124.488 114.256C124.786 114.304 125.04 114.44 125.248 114.664C125.461 114.883 125.568 115.181 125.568 115.56C125.568 115.992 125.424 116.341 125.136 116.608C124.853 116.869 124.45 117 123.928 117H121.96V111.608ZM126.53 117V112.944H127.162V117H126.53ZM126.546 111.968C126.471 111.888 126.434 111.789 126.434 111.672C126.434 111.555 126.471 111.456 126.546 111.376C126.626 111.296 126.725 111.256 126.842 111.256C126.959 111.256 127.058 111.296 127.138 111.376C127.218 111.456 127.258 111.555 127.258 111.672C127.258 111.789 127.218 111.888 127.138 111.968C127.058 112.043 126.959 112.08 126.842 112.08C126.725 112.08 126.626 112.043 126.546 111.968ZM130.573 113.08V113.68C130.328 113.531 129.992 113.456 129.565 113.456C129.352 113.456 129.181 113.507 129.053 113.608C128.931 113.704 128.869 113.829 128.869 113.984C128.869 114.08 128.888 114.165 128.925 114.24C128.963 114.309 129.035 114.379 129.141 114.448C129.253 114.517 129.333 114.565 129.381 114.592C129.435 114.613 129.547 114.661 129.717 114.736C130.059 114.875 130.325 115.032 130.517 115.208C130.709 115.384 130.805 115.621 130.805 115.92C130.805 116.267 130.683 116.541 130.437 116.744C130.197 116.947 129.867 117.048 129.445 117.048C128.955 117.048 128.557 116.965 128.253 116.8V116.184C128.611 116.397 128.995 116.504 129.405 116.504C129.651 116.504 129.837 116.456 129.965 116.36C130.093 116.264 130.157 116.133 130.157 115.968C130.157 115.776 130.085 115.627 129.941 115.52C129.803 115.413 129.568 115.293 129.237 115.16C128.933 115.043 128.688 114.896 128.501 114.72C128.32 114.544 128.229 114.307 128.229 114.008C128.229 113.672 128.355 113.405 128.605 113.208C128.861 113.005 129.179 112.904 129.557 112.904C129.979 112.904 130.317 112.963 130.573 113.08ZM132.286 112.944V113.648C132.526 113.141 132.953 112.888 133.566 112.888C133.961 112.888 134.275 113.008 134.51 113.248C134.745 113.488 134.862 113.808 134.862 114.208V117H134.23V114.376C134.23 114.077 134.153 113.851 133.998 113.696C133.849 113.536 133.651 113.456 133.406 113.456C133.102 113.456 132.838 113.573 132.614 113.808C132.395 114.043 132.286 114.368 132.286 114.784V117H131.662V112.944H132.286ZM136.014 117V112.944H136.646V117H136.014ZM136.03 111.968C135.956 111.888 135.918 111.789 135.918 111.672C135.918 111.555 135.956 111.456 136.03 111.376C136.11 111.296 136.209 111.256 136.326 111.256C136.444 111.256 136.542 111.296 136.622 111.376C136.702 111.456 136.742 111.555 136.742 111.672C136.742 111.789 136.702 111.888 136.622 111.968C136.542 112.043 136.444 112.08 136.326 112.08C136.209 112.08 136.11 112.043 136.03 111.968ZM140.058 113.08V113.68C139.812 113.531 139.476 113.456 139.05 113.456C138.836 113.456 138.666 113.507 138.538 113.608C138.415 113.704 138.354 113.829 138.354 113.984C138.354 114.08 138.372 114.165 138.41 114.24C138.447 114.309 138.519 114.379 138.626 114.448C138.738 114.517 138.818 114.565 138.866 114.592C138.919 114.613 139.031 114.661 139.202 114.736C139.543 114.875 139.81 115.032 140.002 115.208C140.194 115.384 140.29 115.621 140.29 115.92C140.29 116.267 140.167 116.541 139.922 116.744C139.682 116.947 139.351 117.048 138.93 117.048C138.439 117.048 138.042 116.965 137.738 116.8V116.184C138.095 116.397 138.479 116.504 138.89 116.504C139.135 116.504 139.322 116.456 139.45 116.36C139.578 116.264 139.642 116.133 139.642 115.968C139.642 115.776 139.57 115.627 139.426 115.52C139.287 115.413 139.052 115.293 138.722 115.16C138.418 115.043 138.172 114.896 137.986 114.72C137.804 114.544 137.714 114.307 137.714 114.008C137.714 113.672 137.839 113.405 138.09 113.208C138.346 113.005 138.663 112.904 139.042 112.904C139.463 112.904 139.802 112.963 140.058 113.08Z" fill="#2B2B2B"/>
<rect x="174.25" y="108.25" width="63.5" height="13.5" rx="6.75" stroke="#008C1E" stroke-width="0.5"/>
<g clip-path="url(#clip1_1124_4113)">
<path d="M184.667 115.679C184.588 115.679 184.504 115.65 184.442 115.591L183.058 114.32C183.025 114.291 182.979 114.291 182.946 114.32L181.563 115.591C181.425 115.716 181.217 115.708 181.092 115.57C180.967 115.433 180.975 115.225 181.113 115.1L182.496 113.829C182.788 113.566 183.221 113.566 183.508 113.829L184.896 115.1C185.033 115.225 185.042 115.433 184.917 115.57C184.85 115.641 184.763 115.679 184.671 115.679H184.667Z" fill="#008C1E"/>
<path d="M183 119.166C180.704 119.166 178.833 117.296 178.833 115C178.833 112.704 180.704 110.833 183 110.833C185.296 110.833 187.167 112.704 187.167 115C187.167 117.296 185.296 119.166 183 119.166ZM183 111.5C181.071 111.5 179.5 113.071 179.5 115C179.5 116.929 181.071 118.5 183 118.5C184.929 118.5 186.5 116.929 186.5 115C186.5 113.071 184.929 111.5 183 111.5Z" fill="#008C1E"/>
</g>
<path d="M191.264 116.448H192.488C192.829 116.448 193.091 116.371 193.272 116.216C193.459 116.056 193.552 115.824 193.552 115.52C193.552 115.216 193.448 114.979 193.24 114.808C193.037 114.637 192.747 114.552 192.368 114.552H191.264V116.448ZM191.264 112.16V114H192.128C192.56 114 192.88 113.909 193.088 113.728C193.296 113.547 193.4 113.312 193.4 113.024C193.4 112.773 193.301 112.568 193.104 112.408C192.912 112.243 192.624 112.16 192.24 112.16H191.264ZM190.616 111.608H192.24C192.795 111.608 193.237 111.736 193.568 111.992C193.904 112.248 194.072 112.592 194.072 113.024C194.072 113.333 193.984 113.603 193.808 113.832C193.637 114.056 193.416 114.197 193.144 114.256C193.443 114.304 193.696 114.44 193.904 114.664C194.117 114.883 194.224 115.181 194.224 115.56C194.224 115.992 194.08 116.341 193.792 116.608C193.509 116.869 193.107 117 192.584 117H190.616V111.608ZM196.802 117.072C196.221 117.072 195.76 116.877 195.418 116.488C195.082 116.093 194.914 115.597 194.914 115C194.914 114.397 195.088 113.896 195.434 113.496C195.786 113.091 196.242 112.888 196.802 112.888C197.416 112.888 197.888 113.085 198.218 113.48C198.554 113.875 198.722 114.376 198.722 114.984C198.722 115.587 198.552 116.085 198.21 116.48C197.869 116.875 197.4 117.072 196.802 117.072ZM196.802 113.448C196.418 113.448 196.117 113.597 195.898 113.896C195.68 114.195 195.57 114.56 195.57 114.992C195.57 115.413 195.682 115.773 195.906 116.072C196.13 116.365 196.429 116.512 196.802 116.512C197.208 116.512 197.52 116.368 197.738 116.08C197.957 115.787 198.066 115.424 198.066 114.992C198.066 114.544 197.962 114.176 197.754 113.888C197.546 113.595 197.229 113.448 196.802 113.448ZM201.295 117.072C200.713 117.072 200.252 116.877 199.911 116.488C199.575 116.093 199.407 115.597 199.407 115C199.407 114.397 199.58 113.896 199.927 113.496C200.279 113.091 200.735 112.888 201.295 112.888C201.908 112.888 202.38 113.085 202.711 113.48C203.047 113.875 203.215 114.376 203.215 114.984C203.215 115.587 203.044 116.085 202.703 116.48C202.361 116.875 201.892 117.072 201.295 117.072ZM201.295 113.448C200.911 113.448 200.609 113.597 200.391 113.896C200.172 114.195 200.062 114.56 200.062 114.992C200.062 115.413 200.175 115.773 200.399 116.072C200.623 116.365 200.921 116.512 201.295 116.512C201.7 116.512 202.012 116.368 202.231 116.08C202.449 115.787 202.559 115.424 202.559 114.992C202.559 114.544 202.455 114.176 202.247 113.888C202.039 113.595 201.721 113.448 201.295 113.448ZM204.763 112.944V113.6C204.987 113.125 205.368 112.888 205.907 112.888C206.531 112.888 206.925 113.152 207.091 113.68C207.208 113.424 207.371 113.229 207.579 113.096C207.792 112.957 208.029 112.888 208.291 112.888C208.712 112.888 209.029 113.008 209.243 113.248C209.456 113.488 209.563 113.811 209.563 114.216V117H208.931V114.376C208.931 113.763 208.672 113.456 208.155 113.456C207.899 113.456 207.669 113.573 207.467 113.808C207.264 114.037 207.163 114.363 207.163 114.784V117H206.531V114.376C206.531 113.763 206.272 113.456 205.755 113.456C205.499 113.456 205.269 113.573 205.067 113.808C204.864 114.037 204.763 114.363 204.763 114.784V117H204.139V112.944H204.763Z" fill="#2B2B2B"/>
<g clip-path="url(#clip2_1124_4113)">
<path d="M85.6163 163.538L80.5066 166.351L84.8029 168.23L67.4845 178.164L78.2666 167.069L74.3709 166.481L81.1542 157.005L77.9517 152.317L59.6259 164.36L55.6797 184.333L86.3741 190.398L90.3203 170.424L85.6163 163.538Z" fill="#FF1934"/>
<path d="M85.9414 193.72L61.4819 192.974L53.5439 193.796L72.8143 196.35L92.4559 196.042L85.9414 193.72Z" fill="#CCCCCC"/>
<path d="M70.6083 174.95L71.2995 171.45L62.7804 169.767L61.3647 176.933L67.5023 178.145L70.6083 174.95Z" fill="#8C0010"/>
<path d="M67.5127 178.148L69.8839 178.617L70.2909 176.555L67.5127 178.148Z" fill="#8C0010"/>
<path d="M75.0576 173.82L72.3306 187.622L80.849 189.306L83.8858 173.937L77.1677 172.609L75.0576 173.82Z" fill="#8C0010"/>
</g>
<path d="M115.22 166.823H117.38L117.27 166.483C117.017 165.696 116.81 165.046 116.65 164.533C116.49 164.013 116.393 163.69 116.36 163.563L116.31 163.373C116.237 163.686 115.91 164.723 115.33 166.483L115.22 166.823ZM118.19 169.333L117.66 167.683H114.94L114.4 169.333H113.31L115.64 162.593H116.99L119.29 169.333H118.19ZM121.272 164.263V165.133C121.572 164.506 122.098 164.193 122.852 164.193C123.352 164.193 123.748 164.346 124.042 164.653C124.335 164.96 124.482 165.376 124.482 165.903V169.333H123.502V166.133C123.502 165.78 123.412 165.51 123.232 165.323C123.058 165.136 122.825 165.043 122.532 165.043C122.185 165.043 121.888 165.18 121.642 165.453C121.395 165.72 121.272 166.096 121.272 166.583V169.333H120.292V164.263H121.272ZM127.849 168.543C128.236 168.543 128.563 168.396 128.829 168.103C129.096 167.81 129.229 167.363 129.229 166.763C129.229 166.183 129.089 165.753 128.809 165.473C128.536 165.193 128.226 165.053 127.879 165.053C127.486 165.053 127.163 165.21 126.909 165.523C126.656 165.83 126.529 166.27 126.529 166.843C126.529 167.35 126.653 167.76 126.899 168.073C127.153 168.386 127.469 168.543 127.849 168.543ZM129.229 162.263H130.219V169.333H129.229V168.563C128.876 169.123 128.359 169.403 127.679 169.403C127.013 169.403 126.486 169.153 126.099 168.653C125.713 168.146 125.519 167.536 125.519 166.823C125.519 166.03 125.723 165.393 126.129 164.913C126.536 164.433 127.059 164.193 127.699 164.193C128.359 164.193 128.869 164.473 129.229 165.033V162.263ZM134.27 167.073H133.51C133.137 167.073 132.853 167.146 132.66 167.293C132.473 167.44 132.38 167.626 132.38 167.853C132.38 168.086 132.453 168.27 132.6 168.403C132.747 168.536 132.96 168.603 133.24 168.603C133.56 168.603 133.81 168.516 133.99 168.343C134.177 168.163 134.27 167.93 134.27 167.643V167.073ZM131.72 165.473V164.523C132.113 164.296 132.633 164.183 133.28 164.183C134.607 164.183 135.27 164.826 135.27 166.113V169.333H134.3V168.733C134.04 169.16 133.583 169.373 132.93 169.373C132.45 169.373 132.063 169.236 131.77 168.963C131.483 168.683 131.34 168.33 131.34 167.903C131.34 167.416 131.523 167.04 131.89 166.773C132.257 166.5 132.77 166.363 133.43 166.363H134.27V166.073C134.27 165.726 134.187 165.466 134.02 165.293C133.853 165.113 133.577 165.023 133.19 165.023C132.65 165.023 132.16 165.173 131.72 165.473ZM141.101 168.543C141.488 168.543 141.815 168.396 142.081 168.103C142.348 167.81 142.481 167.363 142.481 166.763C142.481 166.183 142.341 165.753 142.061 165.473C141.788 165.193 141.478 165.053 141.131 165.053C140.738 165.053 140.415 165.21 140.161 165.523C139.908 165.83 139.781 166.27 139.781 166.843C139.781 167.35 139.905 167.76 140.151 168.073C140.405 168.386 140.721 168.543 141.101 168.543ZM142.481 162.263H143.471V169.333H142.481V168.563C142.128 169.123 141.611 169.403 140.931 169.403C140.265 169.403 139.738 169.153 139.351 168.653C138.965 168.146 138.771 167.536 138.771 166.823C138.771 166.03 138.975 165.393 139.381 164.913C139.788 164.433 140.311 164.193 140.951 164.193C141.611 164.193 142.121 164.473 142.481 165.033V162.263ZM144.892 169.333V164.263H145.882V169.333H144.892ZM144.942 163.153C144.829 163.033 144.772 162.886 144.772 162.713C144.772 162.54 144.829 162.393 144.942 162.273C145.062 162.153 145.209 162.093 145.382 162.093C145.555 162.093 145.702 162.153 145.822 162.273C145.942 162.393 146.002 162.54 146.002 162.713C146.002 162.88 145.942 163.023 145.822 163.143C145.702 163.263 145.555 163.323 145.382 163.323C145.209 163.323 145.062 163.266 144.942 163.153ZM148.283 162.263V165.133C148.57 164.506 149.093 164.193 149.853 164.193C150.347 164.193 150.743 164.346 151.043 164.653C151.343 164.96 151.493 165.386 151.493 165.933V169.333H150.513V166.133C150.513 165.786 150.423 165.52 150.243 165.333C150.07 165.14 149.84 165.043 149.553 165.043C149.22 165.043 148.923 165.17 148.663 165.423C148.41 165.676 148.283 166.063 148.283 166.583V169.333H147.303V162.263H148.283ZM155.481 167.073H154.721C154.348 167.073 154.064 167.146 153.871 167.293C153.684 167.44 153.591 167.626 153.591 167.853C153.591 168.086 153.664 168.27 153.811 168.403C153.958 168.536 154.171 168.603 154.451 168.603C154.771 168.603 155.021 168.516 155.201 168.343C155.388 168.163 155.481 167.93 155.481 167.643V167.073ZM152.931 165.473V164.523C153.324 164.296 153.844 164.183 154.491 164.183C155.818 164.183 156.481 164.826 156.481 166.113V169.333H155.511V168.733C155.251 169.16 154.794 169.373 154.141 169.373C153.661 169.373 153.274 169.236 152.981 168.963C152.694 168.683 152.551 168.33 152.551 167.903C152.551 167.416 152.734 167.04 153.101 166.773C153.468 166.5 153.981 166.363 154.641 166.363H155.481V166.073C155.481 165.726 155.398 165.466 155.231 165.293C155.064 165.113 154.788 165.023 154.401 165.023C153.861 165.023 153.371 165.173 152.931 165.473ZM158.781 164.263V165.153C159.028 164.526 159.471 164.213 160.111 164.213C160.205 164.213 160.308 164.223 160.421 164.243V165.203C160.281 165.143 160.125 165.113 159.951 165.113C159.611 165.113 159.331 165.263 159.111 165.563C158.891 165.863 158.781 166.22 158.781 166.633V169.333H157.801V164.263H158.781ZM164.34 164.263H165.32V169.333H164.34V168.463C164.073 169.083 163.547 169.393 162.76 169.393C162.26 169.393 161.863 169.246 161.57 168.953C161.277 168.653 161.13 168.243 161.13 167.723V164.263H162.12V167.483C162.12 167.83 162.203 168.096 162.37 168.283C162.543 168.463 162.78 168.553 163.08 168.553C163.46 168.553 163.763 168.42 163.99 168.153C164.223 167.886 164.34 167.51 164.34 167.023V164.263ZM169.588 164.433V165.323C169.261 165.13 168.841 165.033 168.328 165.033C168.094 165.033 167.908 165.086 167.768 165.193C167.634 165.3 167.568 165.44 167.568 165.613C167.568 165.66 167.571 165.706 167.578 165.753C167.591 165.793 167.611 165.836 167.638 165.883C167.664 165.923 167.688 165.96 167.708 165.993C167.734 166.02 167.774 166.05 167.828 166.083C167.881 166.116 167.921 166.146 167.948 166.173C167.981 166.193 168.031 166.22 168.098 166.253C168.171 166.286 168.224 166.313 168.258 166.333C168.291 166.346 168.348 166.373 168.428 166.413C168.514 166.446 168.574 166.47 168.608 166.483C169.001 166.656 169.308 166.853 169.528 167.073C169.754 167.286 169.868 167.573 169.868 167.933C169.868 168.386 169.708 168.743 169.388 169.003C169.068 169.256 168.634 169.383 168.088 169.383C167.488 169.383 166.988 169.283 166.588 169.083V168.153C167.054 168.44 167.538 168.583 168.038 168.583C168.298 168.583 168.498 168.53 168.638 168.423C168.784 168.316 168.858 168.176 168.858 168.003C168.858 167.856 168.801 167.726 168.688 167.613C168.574 167.493 168.458 167.406 168.338 167.353C168.224 167.293 168.028 167.203 167.748 167.083C166.954 166.756 166.558 166.276 166.558 165.643C166.558 165.196 166.724 164.846 167.058 164.593C167.391 164.34 167.808 164.213 168.308 164.213C168.854 164.213 169.281 164.286 169.588 164.433ZM170.887 169.333V162.333H171.867V169.333H170.887ZM173.037 166.683L175.027 169.333H173.857L171.907 166.683L173.817 164.263H174.967L173.037 166.683ZM178.557 167.073H177.797C177.424 167.073 177.141 167.146 176.947 167.293C176.761 167.44 176.667 167.626 176.667 167.853C176.667 168.086 176.741 168.27 176.887 168.403C177.034 168.536 177.247 168.603 177.527 168.603C177.847 168.603 178.097 168.516 178.277 168.343C178.464 168.163 178.557 167.93 178.557 167.643V167.073ZM176.007 165.473V164.523C176.401 164.296 176.921 164.183 177.567 164.183C178.894 164.183 179.557 164.826 179.557 166.113V169.333H178.587V168.733C178.327 169.16 177.871 169.373 177.217 169.373C176.737 169.373 176.351 169.236 176.057 168.963C175.771 168.683 175.627 168.33 175.627 167.903C175.627 167.416 175.811 167.04 176.177 166.773C176.544 166.5 177.057 166.363 177.717 166.363H178.557V166.073C178.557 165.726 178.474 165.466 178.307 165.293C178.141 165.113 177.864 165.023 177.477 165.023C176.937 165.023 176.447 165.173 176.007 165.473ZM181.858 164.263V165.133C182.158 164.506 182.684 164.193 183.438 164.193C183.938 164.193 184.334 164.346 184.628 164.653C184.921 164.96 185.068 165.376 185.068 165.903V169.333H184.088V166.133C184.088 165.78 183.998 165.51 183.818 165.323C183.644 165.136 183.411 165.043 183.118 165.043C182.771 165.043 182.474 165.18 182.228 165.453C181.981 165.72 181.858 166.096 181.858 166.583V169.333H180.878V164.263H181.858ZM191.996 164.263H192.976V169.333H191.996V168.463C191.73 169.083 191.203 169.393 190.416 169.393C189.916 169.393 189.52 169.246 189.226 168.953C188.933 168.653 188.786 168.243 188.786 167.723V164.263H189.776V167.483C189.776 167.83 189.86 168.096 190.026 168.283C190.2 168.463 190.436 168.553 190.736 168.553C191.116 168.553 191.42 168.42 191.646 168.153C191.88 167.886 191.996 167.51 191.996 167.023V164.263ZM195.334 164.263V165.133C195.634 164.506 196.161 164.193 196.914 164.193C197.414 164.193 197.811 164.346 198.104 164.653C198.397 164.96 198.544 165.376 198.544 165.903V169.333H197.564V166.133C197.564 165.78 197.474 165.51 197.294 165.323C197.121 165.136 196.887 165.043 196.594 165.043C196.247 165.043 195.951 165.18 195.704 165.453C195.457 165.72 195.334 166.096 195.334 166.583V169.333H194.354V164.263H195.334ZM201.132 165.023V167.813C201.132 168.3 201.365 168.543 201.832 168.543C202.105 168.543 202.335 168.47 202.522 168.323V169.203C202.302 169.323 202.032 169.383 201.712 169.383C200.665 169.383 200.142 168.853 200.142 167.793V165.023H199.352V164.263H200.142V163.023H201.132V164.263H202.462V165.023H201.132ZM206.752 164.263H207.732V169.333H206.752V168.463C206.485 169.083 205.959 169.393 205.172 169.393C204.672 169.393 204.275 169.246 203.982 168.953C203.689 168.653 203.542 168.243 203.542 167.723V164.263H204.532V167.483C204.532 167.83 204.615 168.096 204.782 168.283C204.955 168.463 205.192 168.553 205.492 168.553C205.872 168.553 206.175 168.42 206.402 168.153C206.635 167.886 206.752 167.51 206.752 167.023V164.263ZM209.11 169.333V162.333H210.09V169.333H209.11ZM211.26 166.683L213.25 169.333H212.08L210.13 166.683L212.04 164.263H213.19L211.26 166.683ZM217.551 164.263V165.073C217.838 164.486 218.314 164.193 218.981 164.193C219.741 164.193 220.228 164.52 220.441 165.173C220.581 164.86 220.784 164.62 221.051 164.453C221.318 164.28 221.618 164.193 221.951 164.193C222.471 164.193 222.864 164.346 223.131 164.653C223.404 164.96 223.541 165.383 223.541 165.923V169.333H222.561V166.133C222.561 165.406 222.268 165.043 221.681 165.043C221.388 165.043 221.124 165.173 220.891 165.433C220.664 165.693 220.551 166.076 220.551 166.583V169.333H219.571V166.133C219.571 165.406 219.274 165.043 218.681 165.043C218.394 165.043 218.134 165.173 217.901 165.433C217.668 165.693 217.551 166.076 217.551 166.583V169.333H216.571V164.263H217.551ZM228.022 166.433V166.253C228.008 165.873 227.905 165.573 227.712 165.353C227.518 165.126 227.242 165.013 226.882 165.013C226.548 165.013 226.262 165.136 226.022 165.383C225.782 165.623 225.632 165.973 225.572 166.433H228.022ZM228.652 168.183V169.063C228.278 169.276 227.785 169.383 227.172 169.383C226.385 169.383 225.758 169.146 225.292 168.673C224.825 168.2 224.592 167.58 224.592 166.813C224.592 166 224.805 165.363 225.232 164.903C225.658 164.436 226.202 164.203 226.862 164.203C227.508 164.203 228.022 164.406 228.402 164.813C228.782 165.213 228.972 165.793 228.972 166.553C228.972 166.76 228.952 166.976 228.912 167.203H225.582C225.648 167.643 225.835 167.98 226.142 168.213C226.448 168.446 226.835 168.563 227.302 168.563C227.842 168.563 228.292 168.436 228.652 168.183ZM231.106 164.263V165.073C231.392 164.486 231.869 164.193 232.536 164.193C233.296 164.193 233.782 164.52 233.996 165.173C234.136 164.86 234.339 164.62 234.606 164.453C234.872 164.28 235.172 164.193 235.506 164.193C236.026 164.193 236.419 164.346 236.686 164.653C236.959 164.96 237.096 165.383 237.096 165.923V169.333H236.116V166.133C236.116 165.406 235.822 165.043 235.236 165.043C234.942 165.043 234.679 165.173 234.446 165.433C234.219 165.693 234.106 166.076 234.106 166.583V169.333H233.126V166.133C233.126 165.406 232.829 165.043 232.236 165.043C231.949 165.043 231.689 165.173 231.456 165.433C231.222 165.693 231.106 166.076 231.106 166.583V169.333H230.126V164.263H231.106ZM240.816 168.543C241.19 168.543 241.503 168.386 241.756 168.073C242.01 167.753 242.136 167.343 242.136 166.843C242.136 166.27 242.01 165.83 241.756 165.523C241.503 165.21 241.18 165.053 240.786 165.053C240.44 165.053 240.126 165.193 239.846 165.473C239.573 165.753 239.436 166.183 239.436 166.763C239.436 167.363 239.57 167.81 239.836 168.103C240.103 168.396 240.43 168.543 240.816 168.543ZM239.436 162.263V165.033C239.796 164.473 240.306 164.193 240.966 164.193C241.606 164.193 242.13 164.433 242.536 164.913C242.943 165.393 243.146 166.03 243.146 166.823C243.146 167.536 242.953 168.146 242.566 168.653C242.18 169.153 241.65 169.403 240.976 169.403C240.303 169.403 239.79 169.123 239.436 168.563V169.333H238.446V162.263H239.436ZM246.917 167.073H246.157C245.783 167.073 245.5 167.146 245.307 167.293C245.12 167.44 245.027 167.626 245.027 167.853C245.027 168.086 245.1 168.27 245.247 168.403C245.393 168.536 245.607 168.603 245.887 168.603C246.207 168.603 246.457 168.516 246.637 168.343C246.823 168.163 246.917 167.93 246.917 167.643V167.073ZM244.367 165.473V164.523C244.76 164.296 245.28 164.183 245.927 164.183C247.253 164.183 247.917 164.826 247.917 166.113V169.333H246.947V168.733C246.687 169.16 246.23 169.373 245.577 169.373C245.097 169.373 244.71 169.236 244.417 168.963C244.13 168.683 243.987 168.33 243.987 167.903C243.987 167.416 244.17 167.04 244.537 166.773C244.903 166.5 245.417 166.363 246.077 166.363H246.917V166.073C246.917 165.726 246.833 165.466 246.667 165.293C246.5 165.113 246.223 165.023 245.837 165.023C245.297 165.023 244.807 165.173 244.367 165.473ZM250.637 169.223L248.617 164.263H249.707L250.337 165.913L251.127 168.053C251.187 167.853 251.427 167.14 251.847 165.913L252.417 164.263H253.457L251.627 169.193C251.14 170.493 250.397 171.143 249.397 171.143C249.217 171.143 249.064 171.126 248.937 171.093V170.253C249.044 170.28 249.157 170.293 249.277 170.293C249.924 170.293 250.377 169.936 250.637 169.223ZM256.946 167.073H256.186C255.813 167.073 255.529 167.146 255.336 167.293C255.149 167.44 255.056 167.626 255.056 167.853C255.056 168.086 255.129 168.27 255.276 168.403C255.423 168.536 255.636 168.603 255.916 168.603C256.236 168.603 256.486 168.516 256.666 168.343C256.853 168.163 256.946 167.93 256.946 167.643V167.073ZM254.396 165.473V164.523C254.789 164.296 255.309 164.183 255.956 164.183C257.283 164.183 257.946 164.826 257.946 166.113V169.333H256.976V168.733C256.716 169.16 256.259 169.373 255.606 169.373C255.126 169.373 254.739 169.236 254.446 168.963C254.159 168.683 254.016 168.33 254.016 167.903C254.016 167.416 254.199 167.04 254.566 166.773C254.933 166.5 255.446 166.363 256.106 166.363H256.946V166.073C256.946 165.726 256.863 165.466 256.696 165.293C256.529 165.113 256.253 165.023 255.866 165.023C255.326 165.023 254.836 165.173 254.396 165.473ZM260.246 164.263V165.153C260.493 164.526 260.936 164.213 261.576 164.213C261.67 164.213 261.773 164.223 261.886 164.243V165.203C261.746 165.143 261.59 165.113 261.416 165.113C261.076 165.113 260.796 165.263 260.576 165.563C260.356 165.863 260.246 166.22 260.246 166.633V169.333H259.266V164.263H260.246ZM113.69 185.333V178.333H114.67V185.333H113.69ZM115.84 182.683L117.83 185.333H116.66L114.71 182.683L116.62 180.263H117.77L115.84 182.683ZM121.84 182.433V182.253C121.827 181.873 121.723 181.573 121.53 181.353C121.337 181.126 121.06 181.013 120.7 181.013C120.367 181.013 120.08 181.136 119.84 181.383C119.6 181.623 119.45 181.973 119.39 182.433H121.84ZM122.47 184.183V185.063C122.097 185.276 121.603 185.383 120.99 185.383C120.203 185.383 119.577 185.146 119.11 184.673C118.643 184.2 118.41 183.58 118.41 182.813C118.41 182 118.623 181.363 119.05 180.903C119.477 180.436 120.02 180.203 120.68 180.203C121.327 180.203 121.84 180.406 122.22 180.813C122.6 181.213 122.79 181.793 122.79 182.553C122.79 182.76 122.77 182.976 122.73 183.203H119.4C119.467 183.643 119.653 183.98 119.96 184.213C120.267 184.446 120.653 184.563 121.12 184.563C121.66 184.563 122.11 184.436 122.47 184.183ZM124.924 180.263V181.153C125.171 180.526 125.614 180.213 126.254 180.213C126.347 180.213 126.451 180.223 126.564 180.243V181.203C126.424 181.143 126.267 181.113 126.094 181.113C125.754 181.113 125.474 181.263 125.254 181.563C125.034 181.863 124.924 182.22 124.924 182.633V185.333H123.944V180.263H124.924ZM130.483 180.263H131.463V185.333H130.483V184.463C130.216 185.083 129.689 185.393 128.903 185.393C128.403 185.393 128.006 185.246 127.713 184.953C127.419 184.653 127.273 184.243 127.273 183.723V180.263H128.263V183.483C128.263 183.83 128.346 184.096 128.513 184.283C128.686 184.463 128.923 184.553 129.223 184.553C129.603 184.553 129.906 184.42 130.133 184.153C130.366 183.886 130.483 183.51 130.483 183.023V180.263ZM135.73 180.433V181.323C135.404 181.13 134.984 181.033 134.47 181.033C134.237 181.033 134.05 181.086 133.91 181.193C133.777 181.3 133.71 181.44 133.71 181.613C133.71 181.66 133.714 181.706 133.72 181.753C133.734 181.793 133.754 181.836 133.78 181.883C133.807 181.923 133.83 181.96 133.85 181.993C133.877 182.02 133.917 182.05 133.97 182.083C134.024 182.116 134.064 182.146 134.09 182.173C134.124 182.193 134.174 182.22 134.24 182.253C134.314 182.286 134.367 182.313 134.4 182.333C134.434 182.346 134.49 182.373 134.57 182.413C134.657 182.446 134.717 182.47 134.75 182.483C135.144 182.656 135.45 182.853 135.67 183.073C135.897 183.286 136.01 183.573 136.01 183.933C136.01 184.386 135.85 184.743 135.53 185.003C135.21 185.256 134.777 185.383 134.23 185.383C133.63 185.383 133.13 185.283 132.73 185.083V184.153C133.197 184.44 133.68 184.583 134.18 184.583C134.44 184.583 134.64 184.53 134.78 184.423C134.927 184.316 135 184.176 135 184.003C135 183.856 134.944 183.726 134.83 183.613C134.717 183.493 134.6 183.406 134.48 183.353C134.367 183.293 134.17 183.203 133.89 183.083C133.097 182.756 132.7 182.276 132.7 181.643C132.7 181.196 132.867 180.846 133.2 180.593C133.534 180.34 133.95 180.213 134.45 180.213C134.997 180.213 135.424 180.286 135.73 180.433ZM139.7 183.073H138.94C138.567 183.073 138.283 183.146 138.09 183.293C137.903 183.44 137.81 183.626 137.81 183.853C137.81 184.086 137.883 184.27 138.03 184.403C138.177 184.536 138.39 184.603 138.67 184.603C138.99 184.603 139.24 184.516 139.42 184.343C139.607 184.163 139.7 183.93 139.7 183.643V183.073ZM137.15 181.473V180.523C137.543 180.296 138.063 180.183 138.71 180.183C140.037 180.183 140.7 180.826 140.7 182.113V185.333H139.73V184.733C139.47 185.16 139.013 185.373 138.36 185.373C137.88 185.373 137.493 185.236 137.2 184.963C136.913 184.683 136.77 184.33 136.77 183.903C136.77 183.416 136.953 183.04 137.32 182.773C137.687 182.5 138.2 182.363 138.86 182.363H139.7V182.073C139.7 181.726 139.617 181.466 139.45 181.293C139.283 181.113 139.007 181.023 138.62 181.023C138.08 181.023 137.59 181.173 137.15 181.473ZM142.02 185.333V178.333H143V185.333H142.02ZM144.17 182.683L146.16 185.333H144.99L143.04 182.683L144.95 180.263H146.1L144.17 182.683ZM149.69 183.073H148.93C148.557 183.073 148.273 183.146 148.08 183.293C147.893 183.44 147.8 183.626 147.8 183.853C147.8 184.086 147.873 184.27 148.02 184.403C148.167 184.536 148.38 184.603 148.66 184.603C148.98 184.603 149.23 184.516 149.41 184.343C149.597 184.163 149.69 183.93 149.69 183.643V183.073ZM147.14 181.473V180.523C147.533 180.296 148.053 180.183 148.7 180.183C150.027 180.183 150.69 180.826 150.69 182.113V185.333H149.72V184.733C149.46 185.16 149.003 185.373 148.35 185.373C147.87 185.373 147.483 185.236 147.19 184.963C146.903 184.683 146.76 184.33 146.76 183.903C146.76 183.416 146.943 183.04 147.31 182.773C147.677 182.5 148.19 182.363 148.85 182.363H149.69V182.073C149.69 181.726 149.607 181.466 149.44 181.293C149.273 181.113 148.997 181.023 148.61 181.023C148.07 181.023 147.58 181.173 147.14 181.473ZM152.99 180.263V181.133C153.29 180.506 153.817 180.193 154.57 180.193C155.07 180.193 155.467 180.346 155.76 180.653C156.054 180.96 156.2 181.376 156.2 181.903V185.333H155.22V182.133C155.22 181.78 155.13 181.51 154.95 181.323C154.777 181.136 154.544 181.043 154.25 181.043C153.904 181.043 153.607 181.18 153.36 181.453C153.114 181.72 152.99 182.096 152.99 182.583V185.333H152.01V180.263H152.99ZM162.319 184.543C162.712 184.543 163.036 184.39 163.289 184.083C163.542 183.77 163.669 183.333 163.669 182.773C163.669 182.246 163.546 181.83 163.299 181.523C163.052 181.21 162.739 181.053 162.359 181.053C161.979 181.053 161.649 181.193 161.369 181.473C161.096 181.746 160.959 182.183 160.959 182.783C160.959 183.37 161.096 183.81 161.369 184.103C161.649 184.396 161.966 184.543 162.319 184.543ZM160.959 180.263V181.043C161.306 180.476 161.826 180.193 162.519 180.193C163.186 180.193 163.712 180.436 164.099 180.923C164.486 181.403 164.679 182.016 164.679 182.763C164.679 183.53 164.479 184.163 164.079 184.663C163.686 185.156 163.159 185.403 162.499 185.403C161.826 185.403 161.312 185.123 160.959 184.563V187.273H159.979V180.263H160.959ZM166.76 180.263V181.153C167.007 180.526 167.45 180.213 168.09 180.213C168.183 180.213 168.287 180.223 168.4 180.243V181.203C168.26 181.143 168.103 181.113 167.93 181.113C167.59 181.113 167.31 181.263 167.09 181.563C166.87 181.863 166.76 182.22 166.76 182.633V185.333H165.78V180.263H166.76ZM171.289 185.423C170.542 185.423 169.955 185.18 169.529 184.693C169.102 184.206 168.889 183.59 168.889 182.843C168.889 182.083 169.109 181.453 169.549 180.953C169.989 180.446 170.569 180.193 171.289 180.193C172.062 180.193 172.659 180.44 173.079 180.933C173.499 181.42 173.709 182.043 173.709 182.803C173.709 183.563 173.492 184.19 173.059 184.683C172.632 185.176 172.042 185.423 171.289 185.423ZM171.279 181.023C170.845 181.023 170.509 181.196 170.269 181.543C170.029 181.883 169.909 182.306 169.909 182.813C169.909 183.313 170.032 183.736 170.279 184.083C170.525 184.423 170.862 184.593 171.289 184.593C171.742 184.593 172.085 184.426 172.319 184.093C172.559 183.76 172.679 183.336 172.679 182.823C172.679 182.296 172.565 181.866 172.339 181.533C172.112 181.193 171.759 181.023 171.279 181.023ZM177.153 184.543C177.546 184.543 177.87 184.39 178.123 184.083C178.376 183.77 178.503 183.333 178.503 182.773C178.503 182.246 178.38 181.83 178.133 181.523C177.886 181.21 177.573 181.053 177.193 181.053C176.813 181.053 176.483 181.193 176.203 181.473C175.93 181.746 175.793 182.183 175.793 182.783C175.793 183.37 175.93 183.81 176.203 184.103C176.483 184.396 176.8 184.543 177.153 184.543ZM175.793 180.263V181.043C176.14 180.476 176.66 180.193 177.353 180.193C178.02 180.193 178.546 180.436 178.933 180.923C179.32 181.403 179.513 182.016 179.513 182.763C179.513 183.53 179.313 184.163 178.913 184.663C178.52 185.156 177.993 185.403 177.333 185.403C176.66 185.403 176.146 185.123 175.793 184.563V187.273H174.813V180.263H175.793ZM183.764 182.433V182.253C183.75 181.873 183.647 181.573 183.454 181.353C183.26 181.126 182.984 181.013 182.624 181.013C182.29 181.013 182.004 181.136 181.764 181.383C181.524 181.623 181.374 181.973 181.314 182.433H183.764ZM184.394 184.183V185.063C184.02 185.276 183.527 185.383 182.914 185.383C182.127 185.383 181.5 185.146 181.034 184.673C180.567 184.2 180.334 183.58 180.334 182.813C180.334 182 180.547 181.363 180.974 180.903C181.4 180.436 181.944 180.203 182.604 180.203C183.25 180.203 183.764 180.406 184.144 180.813C184.524 181.213 184.714 181.793 184.714 182.553C184.714 182.76 184.694 182.976 184.654 183.203H181.324C181.39 183.643 181.577 183.98 181.884 184.213C182.19 184.446 182.577 184.563 183.044 184.563C183.584 184.563 184.034 184.436 184.394 184.183ZM186.848 180.263V181.153C187.094 180.526 187.538 180.213 188.178 180.213C188.271 180.213 188.374 180.223 188.488 180.243V181.203C188.348 181.143 188.191 181.113 188.018 181.113C187.678 181.113 187.398 181.263 187.178 181.563C186.958 181.863 186.848 182.22 186.848 182.633V185.333H185.868V180.263H186.848ZM190.526 181.023V183.813C190.526 184.3 190.76 184.543 191.226 184.543C191.5 184.543 191.73 184.47 191.916 184.323V185.203C191.696 185.323 191.426 185.383 191.106 185.383C190.06 185.383 189.536 184.853 189.536 183.793V181.023H188.746V180.263H189.536V179.023H190.526V180.263H191.856V181.023H190.526ZM193.037 185.333V180.263H194.027V185.333H193.037ZM193.087 179.153C192.973 179.033 192.917 178.886 192.917 178.713C192.917 178.54 192.973 178.393 193.087 178.273C193.207 178.153 193.353 178.093 193.527 178.093C193.7 178.093 193.847 178.153 193.967 178.273C194.087 178.393 194.147 178.54 194.147 178.713C194.147 178.88 194.087 179.023 193.967 179.143C193.847 179.263 193.7 179.323 193.527 179.323C193.353 179.323 193.207 179.266 193.087 179.153ZM200.799 180.433V181.323C200.472 181.13 200.052 181.033 199.539 181.033C199.305 181.033 199.119 181.086 198.979 181.193C198.845 181.3 198.779 181.44 198.779 181.613C198.779 181.66 198.782 181.706 198.789 181.753C198.802 181.793 198.822 181.836 198.849 181.883C198.875 181.923 198.899 181.96 198.919 181.993C198.945 182.02 198.985 182.05 199.039 182.083C199.092 182.116 199.132 182.146 199.159 182.173C199.192 182.193 199.242 182.22 199.309 182.253C199.382 182.286 199.435 182.313 199.469 182.333C199.502 182.346 199.559 182.373 199.639 182.413C199.725 182.446 199.785 182.47 199.819 182.483C200.212 182.656 200.519 182.853 200.739 183.073C200.965 183.286 201.079 183.573 201.079 183.933C201.079 184.386 200.919 184.743 200.599 185.003C200.279 185.256 199.845 185.383 199.299 185.383C198.699 185.383 198.199 185.283 197.799 185.083V184.153C198.265 184.44 198.749 184.583 199.249 184.583C199.509 184.583 199.709 184.53 199.849 184.423C199.995 184.316 200.069 184.176 200.069 184.003C200.069 183.856 200.012 183.726 199.899 183.613C199.785 183.493 199.669 183.406 199.549 183.353C199.435 183.293 199.239 183.203 198.959 183.083C198.165 182.756 197.769 182.276 197.769 181.643C197.769 181.196 197.935 180.846 198.269 180.593C198.602 180.34 199.019 180.213 199.519 180.213C200.065 180.213 200.492 180.286 200.799 180.433ZM205.248 182.433V182.253C205.235 181.873 205.132 181.573 204.938 181.353C204.745 181.126 204.468 181.013 204.108 181.013C203.775 181.013 203.488 181.136 203.248 181.383C203.008 181.623 202.858 181.973 202.798 182.433H205.248ZM205.878 184.183V185.063C205.505 185.276 205.012 185.383 204.398 185.383C203.612 185.383 202.985 185.146 202.518 184.673C202.052 184.2 201.818 183.58 201.818 182.813C201.818 182 202.032 181.363 202.458 180.903C202.885 180.436 203.428 180.203 204.088 180.203C204.735 180.203 205.248 180.406 205.628 180.813C206.008 181.213 206.198 181.793 206.198 182.553C206.198 182.76 206.178 182.976 206.138 183.203H202.808C202.875 183.643 203.062 183.98 203.368 184.213C203.675 184.446 204.062 184.563 204.528 184.563C205.068 184.563 205.518 184.436 205.878 184.183ZM209.742 184.543C210.115 184.543 210.429 184.386 210.682 184.073C210.935 183.753 211.062 183.343 211.062 182.843C211.062 182.27 210.935 181.83 210.682 181.523C210.429 181.21 210.105 181.053 209.712 181.053C209.365 181.053 209.052 181.193 208.772 181.473C208.499 181.753 208.362 182.183 208.362 182.763C208.362 183.363 208.495 183.81 208.762 184.103C209.029 184.396 209.355 184.543 209.742 184.543ZM208.362 178.263V181.033C208.722 180.473 209.232 180.193 209.892 180.193C210.532 180.193 211.055 180.433 211.462 180.913C211.869 181.393 212.072 182.03 212.072 182.823C212.072 183.536 211.879 184.146 211.492 184.653C211.105 185.153 210.575 185.403 209.902 185.403C209.229 185.403 208.715 185.123 208.362 184.563V185.333H207.372V178.263H208.362ZM216.322 182.433V182.253C216.309 181.873 216.206 181.573 216.012 181.353C215.819 181.126 215.542 181.013 215.182 181.013C214.849 181.013 214.562 181.136 214.322 181.383C214.082 181.623 213.932 181.973 213.872 182.433H216.322ZM216.952 184.183V185.063C216.579 185.276 216.086 185.383 215.472 185.383C214.686 185.383 214.059 185.146 213.592 184.673C213.126 184.2 212.892 183.58 212.892 182.813C212.892 182 213.106 181.363 213.532 180.903C213.959 180.436 214.502 180.203 215.162 180.203C215.809 180.203 216.322 180.406 216.702 180.813C217.082 181.213 217.272 181.793 217.272 182.553C217.272 182.76 217.252 182.976 217.212 183.203H213.882C213.949 183.643 214.136 183.98 214.442 184.213C214.749 184.446 215.136 184.563 215.602 184.563C216.142 184.563 216.592 184.436 216.952 184.183ZM221.316 180.433V181.323C220.99 181.13 220.57 181.033 220.056 181.033C219.823 181.033 219.636 181.086 219.496 181.193C219.363 181.3 219.296 181.44 219.296 181.613C219.296 181.66 219.3 181.706 219.306 181.753C219.32 181.793 219.34 181.836 219.366 181.883C219.393 181.923 219.416 181.96 219.436 181.993C219.463 182.02 219.503 182.05 219.556 182.083C219.61 182.116 219.65 182.146 219.676 182.173C219.71 182.193 219.76 182.22 219.826 182.253C219.9 182.286 219.953 182.313 219.986 182.333C220.02 182.346 220.076 182.373 220.156 182.413C220.243 182.446 220.303 182.47 220.336 182.483C220.73 182.656 221.036 182.853 221.256 183.073C221.483 183.286 221.596 183.573 221.596 183.933C221.596 184.386 221.436 184.743 221.116 185.003C220.796 185.256 220.363 185.383 219.816 185.383C219.216 185.383 218.716 185.283 218.316 185.083V184.153C218.783 184.44 219.266 184.583 219.766 184.583C220.026 184.583 220.226 184.53 220.366 184.423C220.513 184.316 220.586 184.176 220.586 184.003C220.586 183.856 220.53 183.726 220.416 183.613C220.303 183.493 220.186 183.406 220.066 183.353C219.953 183.293 219.756 183.203 219.476 183.083C218.683 182.756 218.286 182.276 218.286 181.643C218.286 181.196 218.453 180.846 218.786 180.593C219.12 180.34 219.536 180.213 220.036 180.213C220.583 180.213 221.01 180.286 221.316 180.433ZM225.286 183.073H224.526C224.152 183.073 223.869 183.146 223.676 183.293C223.489 183.44 223.396 183.626 223.396 183.853C223.396 184.086 223.469 184.27 223.616 184.403C223.762 184.536 223.976 184.603 224.256 184.603C224.576 184.603 224.826 184.516 225.006 184.343C225.192 184.163 225.286 183.93 225.286 183.643V183.073ZM222.736 181.473V180.523C223.129 180.296 223.649 180.183 224.296 180.183C225.622 180.183 226.286 180.826 226.286 182.113V185.333H225.316V184.733C225.056 185.16 224.599 185.373 223.946 185.373C223.466 185.373 223.079 185.236 222.786 184.963C222.499 184.683 222.356 184.33 222.356 183.903C222.356 183.416 222.539 183.04 222.906 182.773C223.272 182.5 223.786 182.363 224.446 182.363H225.286V182.073C225.286 181.726 225.202 181.466 225.036 181.293C224.869 181.113 224.592 181.023 224.206 181.023C223.666 181.023 223.176 181.173 222.736 181.473ZM228.586 180.263V181.153C228.833 180.526 229.276 180.213 229.916 180.213C230.009 180.213 230.113 180.223 230.226 180.243V181.203C230.086 181.143 229.929 181.113 229.756 181.113C229.416 181.113 229.136 181.263 228.916 181.563C228.696 181.863 228.586 182.22 228.586 182.633V185.333H227.606V180.263H228.586Z" fill="#2B2B2B"/>
<path d="M234.526 179.453V181.913H235.456C235.882 181.913 236.206 181.803 236.426 181.583C236.646 181.356 236.756 181.056 236.756 180.683C236.756 179.863 236.306 179.453 235.406 179.453H234.526ZM236.996 185.333L235.416 182.773H234.526V185.333H233.496V178.593H235.376C236.149 178.593 236.746 178.783 237.166 179.163C237.586 179.536 237.796 180.046 237.796 180.693C237.789 181.166 237.669 181.57 237.436 181.903C237.202 182.23 236.879 182.466 236.466 182.613L238.226 185.333H236.996ZM241.479 184.543C241.873 184.543 242.196 184.39 242.449 184.083C242.703 183.77 242.829 183.333 242.829 182.773C242.829 182.246 242.706 181.83 242.459 181.523C242.213 181.21 241.899 181.053 241.519 181.053C241.139 181.053 240.809 181.193 240.529 181.473C240.256 181.746 240.119 182.183 240.119 182.783C240.119 183.37 240.256 183.81 240.529 184.103C240.809 184.396 241.126 184.543 241.479 184.543ZM240.119 180.263V181.043C240.466 180.476 240.986 180.193 241.679 180.193C242.346 180.193 242.873 180.436 243.259 180.923C243.646 181.403 243.839 182.016 243.839 182.763C243.839 183.53 243.639 184.163 243.239 184.663C242.846 185.156 242.319 185.403 241.659 185.403C240.986 185.403 240.473 185.123 240.119 184.563V187.273H239.139V180.263H240.119ZM248.421 184.483H251.261V185.333H247.071V184.523C247.911 183.91 248.618 183.276 249.191 182.623C249.771 181.963 250.061 181.363 250.061 180.823C250.061 180.443 249.951 180.153 249.731 179.953C249.511 179.746 249.208 179.643 248.821 179.643C248.288 179.643 247.764 179.843 247.251 180.243V179.273C247.731 178.906 248.301 178.723 248.961 178.723C249.574 178.723 250.081 178.896 250.481 179.243C250.881 179.583 251.081 180.07 251.081 180.703C251.081 181.876 250.194 183.136 248.421 184.483ZM252.082 182.043C252.082 181.016 252.285 180.203 252.692 179.603C253.105 178.996 253.669 178.693 254.382 178.693C255.109 178.693 255.679 178.993 256.092 179.593C256.505 180.193 256.712 181.01 256.712 182.043C256.712 183.063 256.509 183.88 256.102 184.493C255.702 185.106 255.129 185.413 254.382 185.413C253.669 185.413 253.105 185.106 252.692 184.493C252.285 183.88 252.082 183.063 252.082 182.043ZM253.452 180.243C253.205 180.663 253.082 181.263 253.082 182.043C253.082 182.823 253.202 183.43 253.442 183.863C253.689 184.29 254.002 184.503 254.382 184.503C254.795 184.503 255.119 184.29 255.352 183.863C255.585 183.436 255.702 182.83 255.702 182.043C255.702 181.25 255.579 180.646 255.332 180.233C255.092 179.813 254.775 179.603 254.382 179.603C254.009 179.603 253.699 179.816 253.452 180.243ZM257.041 186.573L258.001 184.233H259.211L257.901 186.573H257.041ZM259.982 182.043C259.982 181.016 260.186 180.203 260.592 179.603C261.006 178.996 261.569 178.693 262.282 178.693C263.009 178.693 263.579 178.993 263.992 179.593C264.406 180.193 264.612 181.01 264.612 182.043C264.612 183.063 264.409 183.88 264.002 184.493C263.602 185.106 263.029 185.413 262.282 185.413C261.569 185.413 261.006 185.106 260.592 184.493C260.186 183.88 259.982 183.063 259.982 182.043ZM261.352 180.243C261.106 180.663 260.982 181.263 260.982 182.043C260.982 182.823 261.102 183.43 261.342 183.863C261.589 184.29 261.902 184.503 262.282 184.503C262.696 184.503 263.019 184.29 263.252 183.863C263.486 183.436 263.602 182.83 263.602 182.043C263.602 181.25 263.479 180.646 263.232 180.233C262.992 179.813 262.676 179.603 262.282 179.603C261.909 179.603 261.599 179.816 261.352 180.243ZM265.431 182.043C265.431 181.016 265.635 180.203 266.041 179.603C266.455 178.996 267.018 178.693 267.731 178.693C268.458 178.693 269.028 178.993 269.441 179.593C269.855 180.193 270.061 181.01 270.061 182.043C270.061 183.063 269.858 183.88 269.451 184.493C269.051 185.106 268.478 185.413 267.731 185.413C267.018 185.413 266.455 185.106 266.041 184.493C265.635 183.88 265.431 183.063 265.431 182.043ZM266.801 180.243C266.555 180.663 266.431 181.263 266.431 182.043C266.431 182.823 266.551 183.43 266.791 183.863C267.038 184.29 267.351 184.503 267.731 184.503C268.145 184.503 268.468 184.29 268.701 183.863C268.935 183.436 269.051 182.83 269.051 182.043C269.051 181.25 268.928 180.646 268.681 180.233C268.441 179.813 268.125 179.603 267.731 179.603C267.358 179.603 267.048 179.816 266.801 180.243ZM270.881 182.043C270.881 181.016 271.084 180.203 271.491 179.603C271.904 178.996 272.467 178.693 273.181 178.693C273.907 178.693 274.477 178.993 274.891 179.593C275.304 180.193 275.511 181.01 275.511 182.043C275.511 183.063 275.307 183.88 274.901 184.493C274.501 185.106 273.927 185.413 273.181 185.413C272.467 185.413 271.904 185.106 271.491 184.493C271.084 183.88 270.881 183.063 270.881 182.043ZM272.251 180.243C272.004 180.663 271.881 181.263 271.881 182.043C271.881 182.823 272.001 183.43 272.241 183.863C272.487 184.29 272.801 184.503 273.181 184.503C273.594 184.503 273.917 184.29 274.151 183.863C274.384 183.436 274.501 182.83 274.501 182.043C274.501 181.25 274.377 180.646 274.131 180.233C273.891 179.813 273.574 179.603 273.181 179.603C272.807 179.603 272.497 179.816 272.251 180.243ZM275.84 186.573L276.8 184.233H278.01L276.7 186.573H275.84ZM278.781 182.043C278.781 181.016 278.984 180.203 279.391 179.603C279.804 178.996 280.368 178.693 281.081 178.693C281.808 178.693 282.378 178.993 282.791 179.593C283.204 180.193 283.411 181.01 283.411 182.043C283.411 183.063 283.208 183.88 282.801 184.493C282.401 185.106 281.828 185.413 281.081 185.413C280.368 185.413 279.804 185.106 279.391 184.493C278.984 183.88 278.781 183.063 278.781 182.043ZM280.151 180.243C279.904 180.663 279.781 181.263 279.781 182.043C279.781 182.823 279.901 183.43 280.141 183.863C280.388 184.29 280.701 184.503 281.081 184.503C281.494 184.503 281.818 184.29 282.051 183.863C282.284 183.436 282.401 182.83 282.401 182.043C282.401 181.25 282.278 180.646 282.031 180.233C281.791 179.813 281.474 179.603 281.081 179.603C280.708 179.603 280.398 179.816 280.151 180.243ZM284.23 182.043C284.23 181.016 284.434 180.203 284.84 179.603C285.254 178.996 285.817 178.693 286.53 178.693C287.257 178.693 287.827 178.993 288.24 179.593C288.654 180.193 288.86 181.01 288.86 182.043C288.86 183.063 288.657 183.88 288.25 184.493C287.85 185.106 287.277 185.413 286.53 185.413C285.817 185.413 285.254 185.106 284.84 184.493C284.434 183.88 284.23 183.063 284.23 182.043ZM285.6 180.243C285.354 180.663 285.23 181.263 285.23 182.043C285.23 182.823 285.35 183.43 285.59 183.863C285.837 184.29 286.15 184.503 286.53 184.503C286.944 184.503 287.267 184.29 287.5 183.863C287.734 183.436 287.85 182.83 287.85 182.043C287.85 181.25 287.727 180.646 287.48 180.233C287.24 179.813 286.924 179.603 286.53 179.603C286.157 179.603 285.847 179.816 285.6 180.243ZM289.68 182.043C289.68 181.016 289.883 180.203 290.29 179.603C290.703 178.996 291.266 178.693 291.98 178.693C292.706 178.693 293.276 178.993 293.69 179.593C294.103 180.193 294.31 181.01 294.31 182.043C294.31 183.063 294.106 183.88 293.7 184.493C293.3 185.106 292.726 185.413 291.98 185.413C291.266 185.413 290.703 185.106 290.29 184.493C289.883 183.88 289.68 183.063 289.68 182.043ZM291.05 180.243C290.803 180.663 290.68 181.263 290.68 182.043C290.68 182.823 290.8 183.43 291.04 183.863C291.286 184.29 291.6 184.503 291.98 184.503C292.393 184.503 292.716 184.29 292.95 183.863C293.183 183.436 293.3 182.83 293.3 182.043C293.3 181.25 293.176 180.646 292.93 180.233C292.69 179.813 292.373 179.603 291.98 179.603C291.606 179.603 291.296 179.816 291.05 180.243Z" fill="#FF1934"/>
<path opacity="0.64" d="M60.904 229.635V226.275H61.552V229.619C61.552 230.312 61.376 230.838 61.024 231.195C60.6773 231.552 60.192 231.731 59.568 231.731C58.9547 231.731 58.4747 231.558 58.128 231.211C57.7813 230.859 57.608 230.35 57.608 229.683V226.275H58.256V229.675C58.256 230.171 58.3733 230.536 58.608 230.771C58.848 231.006 59.168 231.123 59.568 231.123C60.4587 231.123 60.904 230.627 60.904 229.635ZM64.9243 229.795H64.2203C63.8789 229.795 63.6229 229.862 63.4523 229.995C63.2816 230.128 63.1963 230.296 63.1963 230.499C63.1963 230.702 63.2629 230.867 63.3963 230.995C63.5296 231.118 63.7243 231.179 63.9803 231.179C64.2683 231.179 64.4976 231.099 64.6683 230.939C64.8389 230.774 64.9243 230.566 64.9243 230.315V229.795ZM62.8283 228.459V227.827C63.1323 227.64 63.5323 227.547 64.0283 227.547C65.0469 227.547 65.5563 228.064 65.5563 229.099V231.667H64.9323V231.187C64.7243 231.534 64.3456 231.707 63.7963 231.707C63.4176 231.707 63.1109 231.595 62.8763 231.371C62.6469 231.147 62.5323 230.864 62.5323 230.523C62.5323 230.134 62.6789 229.832 62.9723 229.619C63.2709 229.4 63.6763 229.291 64.1883 229.291H64.9243V229.083C64.9243 228.763 64.8523 228.523 64.7083 228.363C64.5643 228.198 64.3216 228.115 63.9803 228.115C63.5483 228.115 63.1643 228.23 62.8283 228.459ZM67.3018 227.611V228.315C67.5418 227.808 67.9684 227.555 68.5818 227.555C68.9764 227.555 69.2911 227.675 69.5258 227.915C69.7604 228.155 69.8778 228.475 69.8778 228.875V231.667H69.2458V229.043C69.2458 228.744 69.1684 228.518 69.0138 228.363C68.8644 228.203 68.6671 228.123 68.4218 228.123C68.1178 228.123 67.8538 228.24 67.6298 228.475C67.4111 228.71 67.3018 229.035 67.3018 229.451V231.667H66.6778V227.611H67.3018ZM72.5181 231.003C72.8114 231.003 73.0701 230.891 73.2941 230.667C73.5234 230.438 73.6381 230.099 73.6381 229.651C73.6381 229.134 73.5287 228.75 73.3101 228.499C73.0914 228.248 72.8381 228.123 72.5501 228.123C72.2034 228.123 71.9287 228.262 71.7261 228.539C71.5234 228.811 71.4221 229.168 71.4221 229.611C71.4221 230.064 71.5341 230.411 71.7581 230.651C71.9821 230.886 72.2354 231.003 72.5181 231.003ZM73.6381 227.611H74.2701V231.339C74.2701 231.958 74.0994 232.422 73.7581 232.731C73.4167 233.046 72.9767 233.203 72.4381 233.203C71.9474 233.203 71.5287 233.12 71.1821 232.955V232.323C71.5234 232.52 71.9234 232.619 72.3821 232.619C72.7714 232.619 73.0781 232.515 73.3021 232.307C73.5261 232.099 73.6381 231.774 73.6381 231.331V230.875C73.3714 231.334 72.9741 231.563 72.4461 231.563C71.9821 231.563 71.5847 231.392 71.2541 231.051C70.9287 230.71 70.7661 230.235 70.7661 229.627C70.7661 229.024 70.9181 228.528 71.2221 228.139C71.5261 227.75 71.9234 227.555 72.4141 227.555C72.9687 227.555 73.3767 227.798 73.6381 228.283V227.611ZM80.4618 226.275V226.843H79.0058V231.667H78.3578V226.843H76.9018V226.275H80.4618ZM83.7212 227.611H84.3532V231.667H83.7212V230.963C83.5079 231.464 83.0839 231.715 82.4492 231.715C82.0492 231.715 81.7319 231.598 81.4972 231.363C81.2679 231.123 81.1532 230.803 81.1532 230.403V227.611H81.7852V230.243C81.7852 230.536 81.8599 230.76 82.0092 230.915C82.1585 231.07 82.3612 231.147 82.6172 231.147C82.9532 231.147 83.2199 231.03 83.4172 230.795C83.6199 230.56 83.7212 230.243 83.7212 229.843V227.611ZM86.1455 227.611V228.315C86.3855 227.808 86.8122 227.555 87.4255 227.555C87.8202 227.555 88.1348 227.675 88.3695 227.915C88.6042 228.155 88.7215 228.475 88.7215 228.875V231.667H88.0895V229.043C88.0895 228.744 88.0122 228.518 87.8575 228.363C87.7082 228.203 87.5108 228.123 87.2655 228.123C86.9615 228.123 86.6975 228.24 86.4735 228.475C86.2548 228.71 86.1455 229.035 86.1455 229.451V231.667H85.5215V227.611H86.1455ZM92.0258 229.795H91.3218C90.9805 229.795 90.7245 229.862 90.5538 229.995C90.3831 230.128 90.2978 230.296 90.2978 230.499C90.2978 230.702 90.3645 230.867 90.4978 230.995C90.6311 231.118 90.8258 231.179 91.0818 231.179C91.3698 231.179 91.5991 231.099 91.7698 230.939C91.9405 230.774 92.0258 230.566 92.0258 230.315V229.795ZM89.9298 228.459V227.827C90.2338 227.64 90.6338 227.547 91.1298 227.547C92.1485 227.547 92.6578 228.064 92.6578 229.099V231.667H92.0338V231.187C91.8258 231.534 91.4471 231.707 90.8978 231.707C90.5191 231.707 90.2125 231.595 89.9778 231.371C89.7485 231.147 89.6338 230.864 89.6338 230.523C89.6338 230.134 89.7805 229.832 90.0738 229.619C90.3725 229.4 90.7778 229.291 91.2898 229.291H92.0258V229.083C92.0258 228.763 91.9538 228.523 91.8098 228.363C91.6658 228.198 91.4231 228.115 91.0818 228.115C90.6498 228.115 90.2658 228.23 89.9298 228.459ZM93.8113 231.667V227.611H94.4433V231.667H93.8113ZM93.8273 226.635C93.7526 226.555 93.7153 226.456 93.7153 226.339C93.7153 226.222 93.7526 226.123 93.8273 226.043C93.9073 225.963 94.006 225.923 94.1233 225.923C94.2406 225.923 94.3393 225.963 94.4193 226.043C94.4993 226.123 94.5393 226.222 94.5393 226.339C94.5393 226.456 94.4993 226.555 94.4193 226.635C94.3393 226.71 94.2406 226.747 94.1233 226.747C94.006 226.747 93.9073 226.71 93.8273 226.635Z" fill="#2B2B2B"/>
<path d="M237.733 226.835V228.987H238.549C238.917 228.987 239.197 228.888 239.389 228.691C239.586 228.488 239.685 228.23 239.685 227.915C239.685 227.195 239.282 226.835 238.477 226.835H237.733ZM240.669 231.667H239.893L238.573 229.539H238.509H237.733V231.667H237.085V226.275H238.437C239.061 226.275 239.533 226.422 239.853 226.715C240.178 227.008 240.341 227.414 240.341 227.931C240.33 228.304 240.231 228.622 240.045 228.883C239.858 229.144 239.594 229.328 239.253 229.435L240.669 231.667ZM243.22 231.155C243.561 231.155 243.841 231.022 244.06 230.755C244.278 230.483 244.388 230.099 244.388 229.603C244.388 229.16 244.281 228.803 244.068 228.531C243.854 228.259 243.585 228.123 243.26 228.123C242.934 228.123 242.652 228.243 242.412 228.483C242.177 228.718 242.06 229.104 242.06 229.643C242.06 230.16 242.18 230.542 242.42 230.787C242.66 231.032 242.926 231.155 243.22 231.155ZM242.06 227.611V228.227C242.342 227.774 242.761 227.547 243.316 227.547C243.854 227.547 244.276 227.744 244.58 228.139C244.889 228.528 245.044 229.016 245.044 229.603C245.044 230.227 244.881 230.739 244.556 231.139C244.236 231.534 243.817 231.731 243.3 231.731C242.766 231.731 242.353 231.504 242.06 231.051V233.243H241.436V227.611H242.06ZM248.52 231.115H250.952V231.667H247.648V231.131C249.301 229.883 250.128 228.843 250.128 228.011C250.128 227.68 250.032 227.427 249.84 227.251C249.648 227.07 249.389 226.979 249.064 226.979C248.642 226.979 248.226 227.136 247.816 227.451V226.819C248.194 226.526 248.629 226.379 249.12 226.379C249.589 226.379 249.984 226.515 250.304 226.787C250.624 227.059 250.784 227.446 250.784 227.947C250.784 228.891 250.029 229.947 248.52 231.115ZM251.233 232.651L251.977 230.859H252.817L251.785 232.651H251.233ZM253.438 229.035C253.438 228.214 253.603 227.566 253.934 227.091C254.27 226.611 254.71 226.371 255.254 226.371C255.819 226.371 256.267 226.611 256.598 227.091C256.934 227.566 257.102 228.214 257.102 229.035C257.102 229.851 256.942 230.504 256.622 230.995C256.302 231.486 255.846 231.731 255.254 231.731C254.704 231.731 254.264 231.486 253.934 230.995C253.603 230.504 253.438 229.851 253.438 229.035ZM254.43 227.515C254.2 227.872 254.086 228.379 254.086 229.035C254.086 229.691 254.198 230.206 254.422 230.579C254.646 230.947 254.923 231.131 255.254 231.131C255.622 231.131 255.912 230.95 256.126 230.587C256.344 230.224 256.454 229.707 256.454 229.035C256.454 228.368 256.339 227.859 256.11 227.507C255.886 227.15 255.6 226.971 255.254 226.971C254.934 226.971 254.659 227.152 254.43 227.515ZM257.789 229.035C257.789 228.214 257.955 227.566 258.285 227.091C258.621 226.611 259.061 226.371 259.605 226.371C260.171 226.371 260.619 226.611 260.949 227.091C261.285 227.566 261.453 228.214 261.453 229.035C261.453 229.851 261.293 230.504 260.973 230.995C260.653 231.486 260.197 231.731 259.605 231.731C259.056 231.731 258.616 231.486 258.285 230.995C257.955 230.504 257.789 229.851 257.789 229.035ZM258.781 227.515C258.552 227.872 258.437 228.379 258.437 229.035C258.437 229.691 258.549 230.206 258.773 230.579C258.997 230.947 259.275 231.131 259.605 231.131C259.973 231.131 260.264 230.95 260.477 230.587C260.696 230.224 260.805 229.707 260.805 229.035C260.805 228.368 260.691 227.859 260.461 227.507C260.237 227.15 259.952 226.971 259.605 226.971C259.285 226.971 259.011 227.152 258.781 227.515ZM262.141 229.035C262.141 228.214 262.306 227.566 262.637 227.091C262.973 226.611 263.413 226.371 263.957 226.371C264.522 226.371 264.97 226.611 265.301 227.091C265.637 227.566 265.805 228.214 265.805 229.035C265.805 229.851 265.645 230.504 265.325 230.995C265.005 231.486 264.549 231.731 263.957 231.731C263.408 231.731 262.968 231.486 262.637 230.995C262.306 230.504 262.141 229.851 262.141 229.035ZM263.133 227.515C262.904 227.872 262.789 228.379 262.789 229.035C262.789 229.691 262.901 230.206 263.125 230.579C263.349 230.947 263.626 231.131 263.957 231.131C264.325 231.131 264.616 230.95 264.829 230.587C265.048 230.224 265.157 229.707 265.157 229.035C265.157 228.368 265.042 227.859 264.813 227.507C264.589 227.15 264.304 226.971 263.957 226.971C263.637 226.971 263.362 227.152 263.133 227.515ZM266.084 232.651L266.828 230.859H267.668L266.636 232.651H266.084ZM268.289 229.035C268.289 228.214 268.455 227.566 268.785 227.091C269.121 226.611 269.561 226.371 270.105 226.371C270.671 226.371 271.119 226.611 271.449 227.091C271.785 227.566 271.953 228.214 271.953 229.035C271.953 229.851 271.793 230.504 271.473 230.995C271.153 231.486 270.697 231.731 270.105 231.731C269.556 231.731 269.116 231.486 268.785 230.995C268.455 230.504 268.289 229.851 268.289 229.035ZM269.281 227.515C269.052 227.872 268.937 228.379 268.937 229.035C268.937 229.691 269.049 230.206 269.273 230.579C269.497 230.947 269.775 231.131 270.105 231.131C270.473 231.131 270.764 230.95 270.977 230.587C271.196 230.224 271.305 229.707 271.305 229.035C271.305 228.368 271.191 227.859 270.961 227.507C270.737 227.15 270.452 226.971 270.105 226.971C269.785 226.971 269.511 227.152 269.281 227.515ZM272.641 229.035C272.641 228.214 272.806 227.566 273.137 227.091C273.473 226.611 273.913 226.371 274.457 226.371C275.022 226.371 275.47 226.611 275.801 227.091C276.137 227.566 276.305 228.214 276.305 229.035C276.305 229.851 276.145 230.504 275.825 230.995C275.505 231.486 275.049 231.731 274.457 231.731C273.908 231.731 273.468 231.486 273.137 230.995C272.806 230.504 272.641 229.851 272.641 229.035ZM273.633 227.515C273.404 227.872 273.289 228.379 273.289 229.035C273.289 229.691 273.401 230.206 273.625 230.579C273.849 230.947 274.126 231.131 274.457 231.131C274.825 231.131 275.116 230.95 275.329 230.587C275.548 230.224 275.657 229.707 275.657 229.035C275.657 228.368 275.542 227.859 275.313 227.507C275.089 227.15 274.804 226.971 274.457 226.971C274.137 226.971 273.862 227.152 273.633 227.515ZM276.992 229.035C276.992 228.214 277.158 227.566 277.488 227.091C277.824 226.611 278.264 226.371 278.808 226.371C279.374 226.371 279.822 226.611 280.152 227.091C280.488 227.566 280.656 228.214 280.656 229.035C280.656 229.851 280.496 230.504 280.176 230.995C279.856 231.486 279.4 231.731 278.808 231.731C278.259 231.731 277.819 231.486 277.488 230.995C277.158 230.504 276.992 229.851 276.992 229.035ZM277.984 227.515C277.755 227.872 277.64 228.379 277.64 229.035C277.64 229.691 277.752 230.206 277.976 230.579C278.2 230.947 278.478 231.131 278.808 231.131C279.176 231.131 279.467 230.95 279.68 230.587C279.899 230.224 280.008 229.707 280.008 229.035C280.008 228.368 279.894 227.859 279.664 227.507C279.44 227.15 279.155 226.971 278.808 226.971C278.488 226.971 278.214 227.152 277.984 227.515Z" fill="#2B2B2B"/>
<mask id="path-20-inside-2_1124_4113" fill="white">
<path d="M57 240.667H281V262.667H57V240.667Z"/>
</mask>
<path d="M281 261.667H57V263.667H281V261.667Z" fill="#CCCCCC" mask="url(#path-20-inside-2_1124_4113)"/>
<path opacity="0.64" d="M60.704 248.275V248.843H59.248V253.667H58.6V248.843H57.144V248.275H60.704ZM63.6274 251.795H62.9234C62.582 251.795 62.326 251.862 62.1554 251.995C61.9847 252.128 61.8994 252.296 61.8994 252.499C61.8994 252.702 61.966 252.867 62.0994 252.995C62.2327 253.118 62.4274 253.179 62.6834 253.179C62.9714 253.179 63.2007 253.099 63.3714 252.939C63.542 252.774 63.6274 252.566 63.6274 252.315V251.795ZM61.5314 250.459V249.827C61.8354 249.64 62.2354 249.547 62.7314 249.547C63.75 249.547 64.2594 250.064 64.2594 251.099V253.667H63.6354V253.187C63.4274 253.534 63.0487 253.707 62.4994 253.707C62.1207 253.707 61.814 253.595 61.5794 253.371C61.35 253.147 61.2354 252.864 61.2354 252.523C61.2354 252.134 61.382 251.832 61.6754 251.619C61.974 251.4 62.3794 251.291 62.8914 251.291H63.6274V251.083C63.6274 250.763 63.5554 250.523 63.4114 250.363C63.2674 250.198 63.0247 250.115 62.6834 250.115C62.2514 250.115 61.8674 250.23 61.5314 250.459ZM67.2289 253.155C67.5542 253.155 67.8235 253.019 68.0369 252.747C68.2502 252.475 68.3569 252.12 68.3569 251.683C68.3569 251.182 68.2449 250.798 68.0209 250.531C67.8022 250.259 67.5249 250.123 67.1889 250.123C66.9009 250.123 66.6369 250.243 66.3969 250.483C66.1569 250.723 66.0369 251.099 66.0369 251.611C66.0369 252.15 66.1515 252.542 66.3809 252.787C66.6155 253.032 66.8982 253.155 67.2289 253.155ZM66.0369 248.011V250.219C66.3302 249.771 66.7409 249.547 67.2689 249.547C67.7809 249.547 68.1995 249.744 68.5249 250.139C68.8502 250.528 69.0129 251.04 69.0129 251.675C69.0129 252.246 68.8582 252.731 68.5489 253.131C68.2449 253.531 67.8235 253.731 67.2849 253.731C66.7409 253.731 66.3249 253.51 66.0369 253.067V253.667H65.4049V248.011H66.0369ZM72.4634 249.611H73.0954V253.667H72.4634V252.963C72.25 253.464 71.826 253.715 71.1914 253.715C70.7914 253.715 70.474 253.598 70.2394 253.363C70.01 253.123 69.8954 252.803 69.8954 252.403V249.611H70.5274V252.243C70.5274 252.536 70.602 252.76 70.7514 252.915C70.9007 253.07 71.1034 253.147 71.3594 253.147C71.6954 253.147 71.962 253.03 72.1594 252.795C72.362 252.56 72.4634 252.243 72.4634 251.843V249.611ZM74.8877 249.611V250.315C75.1277 249.808 75.5544 249.555 76.1677 249.555C76.5624 249.555 76.877 249.675 77.1117 249.915C77.3464 250.155 77.4637 250.475 77.4637 250.875V253.667H76.8317V251.043C76.8317 250.744 76.7544 250.518 76.5997 250.363C76.4504 250.203 76.253 250.123 76.0077 250.123C75.7037 250.123 75.4397 250.24 75.2157 250.475C74.997 250.71 74.8877 251.035 74.8877 251.451V253.667H74.2637V249.611H74.8877ZM80.104 253.003C80.3973 253.003 80.656 252.891 80.88 252.667C81.1093 252.438 81.224 252.099 81.224 251.651C81.224 251.134 81.1147 250.75 80.896 250.499C80.6773 250.248 80.424 250.123 80.136 250.123C79.7893 250.123 79.5147 250.262 79.312 250.539C79.1093 250.811 79.008 251.168 79.008 251.611C79.008 252.064 79.12 252.411 79.344 252.651C79.568 252.886 79.8213 253.003 80.104 253.003ZM81.224 249.611H81.856V253.339C81.856 253.958 81.6853 254.422 81.344 254.731C81.0027 255.046 80.5627 255.203 80.024 255.203C79.5333 255.203 79.1147 255.12 78.768 254.955V254.323C79.1093 254.52 79.5093 254.619 79.968 254.619C80.3573 254.619 80.664 254.515 80.888 254.307C81.112 254.099 81.224 253.774 81.224 253.331V252.875C80.9573 253.334 80.56 253.563 80.032 253.563C79.568 253.563 79.1707 253.392 78.84 253.051C78.5147 252.71 78.352 252.235 78.352 251.627C78.352 251.024 78.504 250.528 78.808 250.139C79.112 249.75 79.5093 249.555 80 249.555C80.5547 249.555 80.9627 249.798 81.224 250.283V249.611ZM85.1586 251.795H84.4546C84.1133 251.795 83.8573 251.862 83.6866 251.995C83.516 252.128 83.4306 252.296 83.4306 252.499C83.4306 252.702 83.4973 252.867 83.6306 252.995C83.764 253.118 83.9586 253.179 84.2146 253.179C84.5026 253.179 84.732 253.099 84.9026 252.939C85.0733 252.774 85.1586 252.566 85.1586 252.315V251.795ZM83.0626 250.459V249.827C83.3666 249.64 83.7666 249.547 84.2626 249.547C85.2813 249.547 85.7906 250.064 85.7906 251.099V253.667H85.1666V253.187C84.9586 253.534 84.58 253.707 84.0306 253.707C83.652 253.707 83.3453 253.595 83.1106 253.371C82.8813 253.147 82.7666 252.864 82.7666 252.523C82.7666 252.134 82.9133 251.832 83.2066 251.619C83.5053 251.4 83.9106 251.291 84.4226 251.291H85.1586V251.083C85.1586 250.763 85.0866 250.523 84.9426 250.363C84.7986 250.198 84.556 250.115 84.2146 250.115C83.7826 250.115 83.3986 250.23 83.0626 250.459ZM87.5361 249.611V250.315C87.7761 249.808 88.2028 249.555 88.8161 249.555C89.2108 249.555 89.5255 249.675 89.7601 249.915C89.9948 250.155 90.1121 250.475 90.1121 250.875V253.667H89.4801V251.043C89.4801 250.744 89.4028 250.518 89.2481 250.363C89.0988 250.203 88.9015 250.123 88.6561 250.123C88.3521 250.123 88.0881 250.24 87.8641 250.475C87.6455 250.71 87.5361 251.035 87.5361 251.451V253.667H86.9121V249.611H87.5361Z" fill="#2B2B2B"/>
<path d="M234.811 248.835V250.987H235.627C235.995 250.987 236.275 250.888 236.467 250.691C236.664 250.488 236.763 250.23 236.763 249.915C236.763 249.195 236.36 248.835 235.555 248.835H234.811ZM237.747 253.667H236.971L235.651 251.539H235.587H234.811V253.667H234.163V248.275H235.515C236.139 248.275 236.611 248.422 236.931 248.715C237.256 249.008 237.419 249.414 237.419 249.931C237.408 250.304 237.31 250.622 237.123 250.883C236.936 251.144 236.672 251.328 236.331 251.435L237.747 253.667ZM240.298 253.155C240.639 253.155 240.919 253.022 241.138 252.755C241.356 252.483 241.466 252.099 241.466 251.603C241.466 251.16 241.359 250.803 241.146 250.531C240.932 250.259 240.663 250.123 240.338 250.123C240.012 250.123 239.73 250.243 239.49 250.483C239.255 250.718 239.138 251.104 239.138 251.643C239.138 252.16 239.258 252.542 239.498 252.787C239.738 253.032 240.004 253.155 240.298 253.155ZM239.138 249.611V250.227C239.42 249.774 239.839 249.547 240.394 249.547C240.932 249.547 241.354 249.744 241.658 250.139C241.967 250.528 242.122 251.016 242.122 251.603C242.122 252.227 241.959 252.739 241.634 253.139C241.314 253.534 240.895 253.731 240.378 253.731C239.844 253.731 239.431 253.504 239.138 253.051V255.243H238.514V249.611H239.138ZM244.566 249.867V249.187L245.806 248.435H246.398V253.667H245.774V249.123L244.566 249.867ZM249.128 253.171C249.485 253.171 249.76 253.083 249.952 252.907C250.144 252.731 250.24 252.512 250.24 252.251C250.24 251.995 250.146 251.779 249.96 251.603C249.773 251.427 249.496 251.342 249.128 251.347C248.77 251.352 248.501 251.448 248.32 251.635C248.144 251.816 248.056 252.043 248.056 252.315C248.056 252.56 248.149 252.766 248.336 252.931C248.522 253.091 248.786 253.171 249.128 253.171ZM249.12 248.939C248.821 248.939 248.584 249.027 248.408 249.203C248.232 249.379 248.144 249.592 248.144 249.843C248.144 250.147 248.237 250.376 248.424 250.531C248.616 250.686 248.858 250.763 249.152 250.763C249.434 250.763 249.666 250.683 249.848 250.523C250.029 250.358 250.12 250.128 250.12 249.835C250.12 249.579 250.034 249.366 249.864 249.195C249.693 249.024 249.445 248.939 249.12 248.939ZM249.92 251.043C250.565 251.24 250.888 251.662 250.888 252.307C250.888 252.739 250.72 253.086 250.384 253.347C250.048 253.603 249.626 253.731 249.12 253.731C248.634 253.731 248.229 253.606 247.904 253.355C247.578 253.104 247.416 252.768 247.416 252.347C247.416 252.032 247.498 251.766 247.664 251.547C247.834 251.323 248.066 251.16 248.36 251.059C247.789 250.84 247.504 250.438 247.504 249.851C247.504 249.387 247.664 249.027 247.984 248.771C248.304 248.51 248.682 248.379 249.12 248.379C249.573 248.379 249.96 248.507 250.28 248.763C250.6 249.014 250.76 249.379 250.76 249.859C250.76 250.131 250.685 250.371 250.536 250.579C250.386 250.782 250.181 250.936 249.92 251.043ZM251.233 254.651L251.977 252.859H252.817L251.785 254.651H251.233ZM253.438 251.035C253.438 250.214 253.603 249.566 253.934 249.091C254.27 248.611 254.71 248.371 255.254 248.371C255.819 248.371 256.267 248.611 256.598 249.091C256.934 249.566 257.102 250.214 257.102 251.035C257.102 251.851 256.942 252.504 256.622 252.995C256.302 253.486 255.846 253.731 255.254 253.731C254.704 253.731 254.264 253.486 253.934 252.995C253.603 252.504 253.438 251.851 253.438 251.035ZM254.43 249.515C254.2 249.872 254.086 250.379 254.086 251.035C254.086 251.691 254.198 252.206 254.422 252.579C254.646 252.947 254.923 253.131 255.254 253.131C255.622 253.131 255.912 252.95 256.126 252.587C256.344 252.224 256.454 251.707 256.454 251.035C256.454 250.368 256.339 249.859 256.11 249.507C255.886 249.15 255.6 248.971 255.254 248.971C254.934 248.971 254.659 249.152 254.43 249.515ZM257.789 251.035C257.789 250.214 257.955 249.566 258.285 249.091C258.621 248.611 259.061 248.371 259.605 248.371C260.171 248.371 260.619 248.611 260.949 249.091C261.285 249.566 261.453 250.214 261.453 251.035C261.453 251.851 261.293 252.504 260.973 252.995C260.653 253.486 260.197 253.731 259.605 253.731C259.056 253.731 258.616 253.486 258.285 252.995C257.955 252.504 257.789 251.851 257.789 251.035ZM258.781 249.515C258.552 249.872 258.437 250.379 258.437 251.035C258.437 251.691 258.549 252.206 258.773 252.579C258.997 252.947 259.275 253.131 259.605 253.131C259.973 253.131 260.264 252.95 260.477 252.587C260.696 252.224 260.805 251.707 260.805 251.035C260.805 250.368 260.691 249.859 260.461 249.507C260.237 249.15 259.952 248.971 259.605 248.971C259.285 248.971 259.011 249.152 258.781 249.515ZM262.141 251.035C262.141 250.214 262.306 249.566 262.637 249.091C262.973 248.611 263.413 248.371 263.957 248.371C264.522 248.371 264.97 248.611 265.301 249.091C265.637 249.566 265.805 250.214 265.805 251.035C265.805 251.851 265.645 252.504 265.325 252.995C265.005 253.486 264.549 253.731 263.957 253.731C263.408 253.731 262.968 253.486 262.637 252.995C262.306 252.504 262.141 251.851 262.141 251.035ZM263.133 249.515C262.904 249.872 262.789 250.379 262.789 251.035C262.789 251.691 262.901 252.206 263.125 252.579C263.349 252.947 263.626 253.131 263.957 253.131C264.325 253.131 264.616 252.95 264.829 252.587C265.048 252.224 265.157 251.707 265.157 251.035C265.157 250.368 265.042 249.859 264.813 249.507C264.589 249.15 264.304 248.971 263.957 248.971C263.637 248.971 263.362 249.152 263.133 249.515ZM266.084 254.651L266.828 252.859H267.668L266.636 254.651H266.084ZM268.289 251.035C268.289 250.214 268.455 249.566 268.785 249.091C269.121 248.611 269.561 248.371 270.105 248.371C270.671 248.371 271.119 248.611 271.449 249.091C271.785 249.566 271.953 250.214 271.953 251.035C271.953 251.851 271.793 252.504 271.473 252.995C271.153 253.486 270.697 253.731 270.105 253.731C269.556 253.731 269.116 253.486 268.785 252.995C268.455 252.504 268.289 251.851 268.289 251.035ZM269.281 249.515C269.052 249.872 268.937 250.379 268.937 251.035C268.937 251.691 269.049 252.206 269.273 252.579C269.497 252.947 269.775 253.131 270.105 253.131C270.473 253.131 270.764 252.95 270.977 252.587C271.196 252.224 271.305 251.707 271.305 251.035C271.305 250.368 271.191 249.859 270.961 249.507C270.737 249.15 270.452 248.971 270.105 248.971C269.785 248.971 269.511 249.152 269.281 249.515ZM272.641 251.035C272.641 250.214 272.806 249.566 273.137 249.091C273.473 248.611 273.913 248.371 274.457 248.371C275.022 248.371 275.47 248.611 275.801 249.091C276.137 249.566 276.305 250.214 276.305 251.035C276.305 251.851 276.145 252.504 275.825 252.995C275.505 253.486 275.049 253.731 274.457 253.731C273.908 253.731 273.468 253.486 273.137 252.995C272.806 252.504 272.641 251.851 272.641 251.035ZM273.633 249.515C273.404 249.872 273.289 250.379 273.289 251.035C273.289 251.691 273.401 252.206 273.625 252.579C273.849 252.947 274.126 253.131 274.457 253.131C274.825 253.131 275.116 252.95 275.329 252.587C275.548 252.224 275.657 251.707 275.657 251.035C275.657 250.368 275.542 249.859 275.313 249.507C275.089 249.15 274.804 248.971 274.457 248.971C274.137 248.971 273.862 249.152 273.633 249.515ZM276.992 251.035C276.992 250.214 277.158 249.566 277.488 249.091C277.824 248.611 278.264 248.371 278.808 248.371C279.374 248.371 279.822 248.611 280.152 249.091C280.488 249.566 280.656 250.214 280.656 251.035C280.656 251.851 280.496 252.504 280.176 252.995C279.856 253.486 279.4 253.731 278.808 253.731C278.259 253.731 277.819 253.486 277.488 252.995C277.158 252.504 276.992 251.851 276.992 251.035ZM277.984 249.515C277.755 249.872 277.64 250.379 277.64 251.035C277.64 251.691 277.752 252.206 277.976 252.579C278.2 252.947 278.478 253.131 278.808 253.131C279.176 253.131 279.467 252.95 279.68 252.587C279.899 252.224 280.008 251.707 280.008 251.035C280.008 250.368 279.894 249.859 279.664 249.507C279.44 249.15 279.155 248.971 278.808 248.971C278.488 248.971 278.214 249.152 277.984 249.515Z" fill="#2B2B2B"/>
<rect x="109" y="275" width="120" height="24" rx="8" fill="#FF1934"/>
<path d="M157.959 288.176L158.823 288.176C159.468 288.176 159.791 287.931 159.791 287.44C159.791 286.939 159.455 286.688 158.783 286.688L157.959 286.688L157.959 288.176ZM157.959 284.432L157.959 285.88L158.567 285.88C158.929 285.88 159.201 285.808 159.383 285.664C159.564 285.52 159.655 285.336 159.655 285.112C159.655 284.904 159.577 284.739 159.423 284.616C159.273 284.493 159.044 284.432 158.735 284.432L157.959 284.432ZM156.951 283.608L158.863 283.608C159.439 283.608 159.887 283.744 160.207 284.016C160.527 284.288 160.687 284.64 160.687 285.072C160.687 285.365 160.607 285.621 160.447 285.84C160.287 286.053 160.081 286.195 159.831 286.264C160.119 286.333 160.356 286.475 160.543 286.688C160.729 286.896 160.823 287.181 160.823 287.544C160.823 287.971 160.673 288.32 160.375 288.592C160.076 288.864 159.663 289 159.135 289L156.951 289L156.951 283.608ZM163.053 286.952L164.573 286.952L164.501 286.712C164.32 286.136 164.17 285.653 164.053 285.264C163.941 284.869 163.872 284.621 163.845 284.52L163.813 284.36C163.765 284.627 163.536 285.413 163.125 286.72L163.053 286.952ZM165.213 289L164.829 287.776L162.789 287.776L162.405 289L161.349 289L163.173 283.608L164.477 283.608L166.301 289L165.213 289ZM171.364 283.608L169.508 287L169.508 289L168.5 289L168.5 287.032L166.66 283.608L167.836 283.608L168.196 284.392C168.404 284.845 168.574 285.227 168.708 285.536C168.841 285.84 168.921 286.029 168.948 286.104L168.996 286.224C169.044 286.027 169.318 285.416 169.82 284.392L170.188 283.608L171.364 283.608ZM173.436 286.952L174.956 286.952L174.884 286.712C174.702 286.136 174.553 285.653 174.436 285.264C174.324 284.869 174.254 284.621 174.228 284.52L174.196 284.36C174.148 284.627 173.918 285.413 173.508 286.72L173.436 286.952ZM175.596 289L175.212 287.776L173.172 287.776L172.788 289L171.732 289L173.556 283.608L174.86 283.608L176.684 289L175.596 289ZM178.466 284.44L178.466 286.2L179.138 286.2C179.448 286.2 179.68 286.123 179.834 285.968C179.989 285.808 180.066 285.587 180.066 285.304C180.066 285.027 179.984 284.813 179.818 284.664C179.658 284.515 179.426 284.44 179.122 284.44L178.466 284.44ZM180.242 289L179.018 287.032L178.466 287.032L178.466 289L177.458 289L177.458 283.608L179.122 283.608C179.736 283.608 180.216 283.763 180.562 284.072C180.914 284.381 181.09 284.795 181.09 285.312C181.085 285.696 180.992 286.021 180.81 286.288C180.629 286.549 180.381 286.744 180.066 286.872L181.45 289L180.242 289Z" fill="white"/>
<path d="M9 341.5H329C333.694 341.5 337.5 345.306 337.5 350C337.5 354.694 333.694 358.5 329 358.5H9C4.30558 358.5 0.5 354.694 0.5 350C0.500002 345.306 4.30558 341.5 9 341.5Z" fill="white"/>
<path d="M9 341.5H329C333.694 341.5 337.5 345.306 337.5 350C337.5 354.694 333.694 358.5 329 358.5H9C4.30558 358.5 0.5 354.694 0.5 350C0.500002 345.306 4.30558 341.5 9 341.5Z" stroke="#CCCCCC"/>
<path d="M7.86805e-07 350C3.52265e-07 345.029 4.02944 341 9 341L39 341C43.9706 341 48 345.029 48 350C48 354.971 43.9706 359 39 359L9 359C4.02944 359 1.22135e-06 354.971 7.86805e-07 350Z" fill="#FF1934"/>
<path d="M15.448 346.688H16.264L16.816 348.6L17.456 350.92C17.5893 350.179 17.7547 349.403 17.952 348.592L18.44 346.608H19.464L18.088 352H16.92L16.432 350.296C16.2987 349.843 16.184 349.443 16.088 349.096C15.9973 348.749 15.936 348.517 15.904 348.4L15.864 348.216C15.7893 348.589 15.6027 349.283 15.304 350.296L14.8 352H13.64L12.2 346.608H13.264L13.768 348.6C13.8533 348.957 13.9387 349.328 14.024 349.712C14.1093 350.096 14.1733 350.389 14.216 350.592L14.28 350.904C14.4507 350.232 14.6587 349.464 14.904 348.6L15.448 346.688ZM22.2561 350.256H21.7601C21.5094 350.256 21.3174 350.309 21.1841 350.416C21.0507 350.517 20.9841 350.648 20.9841 350.808C20.9841 351.149 21.1814 351.32 21.5761 351.32C21.7894 351.32 21.9547 351.259 22.0721 351.136C22.1947 351.008 22.2561 350.843 22.2561 350.64V350.256ZM20.2881 349.04V348.152C20.5921 347.965 21.0294 347.872 21.6001 347.872C22.6987 347.872 23.2481 348.384 23.2481 349.408V352H22.2961V351.512C22.1094 351.859 21.7574 352.032 21.2401 352.032C20.8561 352.032 20.5494 351.92 20.3201 351.696C20.0961 351.472 19.9841 351.189 19.9841 350.848C19.9841 350.464 20.1281 350.163 20.4161 349.944C20.7041 349.725 21.1201 349.616 21.6641 349.616H22.2561V349.368C22.2561 349.144 22.1974 348.973 22.0801 348.856C21.9627 348.739 21.7627 348.68 21.4801 348.68C21.0481 348.68 20.6507 348.8 20.2881 349.04ZM27.7828 352H26.6548L25.1988 349.904V352H24.2388V346.44H25.1988V349.848L26.6308 347.944H27.7508L26.2628 349.88L27.7828 352ZM29.5864 348.664V350.728C29.5864 350.899 29.6318 351.029 29.7224 351.12C29.8131 351.205 29.9384 351.248 30.0984 351.248C30.3011 351.248 30.4878 351.192 30.6584 351.08V351.904C30.4718 351.995 30.2318 352.04 29.9384 352.04C29.0638 352.04 28.6264 351.597 28.6264 350.712V348.664H28.0184V347.944H28.6264V346.968H29.5864V347.944H30.5944V348.664H29.5864ZM33.9617 347.944H34.9297V352H33.9617V351.336C33.7484 351.805 33.3324 352.04 32.7137 352.04C32.303 352.04 31.983 351.923 31.7537 351.688C31.5244 351.453 31.4097 351.12 31.4097 350.688V347.944H32.3697V350.464C32.3697 350.72 32.431 350.915 32.5537 351.048C32.6817 351.181 32.855 351.248 33.0737 351.248C33.351 351.248 33.567 351.155 33.7217 350.968C33.8817 350.781 33.9617 350.499 33.9617 350.12V347.944Z" fill="white"/>
<rect x="56" y="348" width="274" height="4" rx="2" fill="#CCCCCC"/>
<mask id="mask0_1124_4113" style="mask-type:alpha" maskUnits="userSpaceOnUse" x="56" y="348" width="274" height="4">
<rect x="56" y="348" width="274" height="4" rx="2" fill="#CCCCCC"/>
</mask>
<g mask="url(#mask0_1124_4113)">
<rect x="56" y="348" width="274" height="4" rx="2" fill="#FF1934"/>
</g>
<defs>
<filter id="filter0_d_1124_4113" x="5" y="48" width="328" height="56" filterUnits="userSpaceOnUse" color-interpolation-filters="sRGB">
<feFlood flood-opacity="0" result="BackgroundImageFix"/>
<feColorMatrix in="SourceAlpha" type="matrix" values="0 0 0 0 0 0 0 0 0 0 0 0 0 0 0 0 0 0 127 0" result="hardAlpha"/>
<feOffset dy="2"/>
<feGaussianBlur stdDeviation="2"/>
<feComposite in2="hardAlpha" operator="out"/>
<feColorMatrix type="matrix" values="0 0 0 0 0.168627 0 0 0 0 0.168627 0 0 0 0 0.168627 0 0 0 0.24 0"/>
<feBlend mode="normal" in2="BackgroundImageFix" result="effect1_dropShadow_1124_4113"/>
<feBlend mode="normal" in="SourceGraphic" in2="effect1_dropShadow_1124_4113" result="shape"/>
</filter>
<clipPath id="clip0_1124_4113">
<rect width="24" height="24" fill="white" transform="translate(25 66)"/>
</clipPath>
<clipPath id="clip1_1124_4113">
<rect width="10" height="10" fill="white" transform="translate(178 110)"/>
</clipPath>
<clipPath id="clip2_1124_4113">
<rect width="64" height="64" fill="white" transform="translate(41 142.333)"/>
</clipPath>
</defs>
</svg>
