<svg width="338" height="375" viewBox="0 0 338 375" fill="none" xmlns="http://www.w3.org/2000/svg">
<rect width="338" height="375" fill="#D3D3D3"/>
<rect x="9" y="50" width="320" height="265" rx="16" fill="white"/>
<g filter="url(#filter0_d_1124_4113)">
<path d="M9 66C9 57.1634 16.1634 50 25 50H313C321.837 50 329 57.1634 329 66V98H9V66Z" fill="#FF1934" shape-rendering="crispEdges"/>
<g clip-path="url(#clip0_1124_4113)">
<path fill-rule="evenodd" clip-rule="evenodd" d="M27 78C27 72.49 31.49 68 37 68C42.51 68 47 72.49 47 78C47 83.51 42.51 88 37 88C31.49 88 27 83.51 27 78ZM28.6 78C28.6 82.63 32.37 86.4 37 86.4C41.63 86.4 45.4 82.63 45.4 78C45.4 73.37 41.63 69.6 37 69.6C32.37 69.6 28.6 73.37 28.6 78ZM32.2 78C32.2 77.56 32.56 77.2 33 77.2H41C41.44 77.2 41.8 77.56 41.8 78C41.8 78.44 41.44 78.8 41 78.8H33C32.56 78.8 32.2 78.44 32.2 78Z" fill="white"/>
</g>
<path d="M57.91 82V72.564H60.066V82H57.91ZM62.684 77.282L66.03 82H63.328L60.164 77.31L63.216 72.564H65.778L62.684 77.282ZM71.2115 77.8V77.632C71.1462 76.8013 70.7822 76.386 70.1195 76.386C69.7929 76.386 69.5035 76.5073 69.2515 76.75C68.9995 76.9833 68.8315 77.3333 68.7475 77.8H71.2115ZM72.6815 79.886V81.594C72.1962 81.9113 71.4542 82.07 70.4555 82.07C69.2889 82.07 68.3789 81.734 67.7255 81.062C67.0815 80.3807 66.7595 79.508 66.7595 78.444C66.7595 77.3147 67.0722 76.4327 67.6975 75.798C68.3322 75.154 69.1115 74.832 70.0355 74.832C70.9875 74.832 71.7389 75.112 72.2895 75.672C72.8402 76.2227 73.1155 77.0487 73.1155 78.15C73.1155 78.3647 73.0782 78.7333 73.0035 79.256H68.8315C68.9715 79.648 69.2142 79.9513 69.5595 80.166C69.9049 80.3807 70.3202 80.488 70.8055 80.488C71.5242 80.488 72.1495 80.2873 72.6815 79.886ZM76.6044 74.902V76.218C76.735 75.8073 76.9497 75.4807 77.2484 75.238C77.5564 74.986 77.911 74.86 78.3124 74.86C78.5364 74.86 78.7137 74.8787 78.8444 74.916V76.848C78.6204 76.7453 78.3637 76.694 78.0744 76.694C77.6357 76.694 77.281 76.8573 77.0104 77.184C76.7397 77.5013 76.6044 77.926 76.6044 78.458V82H74.5604L74.5744 74.902H76.6044ZM84.152 74.902H86.196V82H84.152V80.866C83.7787 81.6593 83.06 82.056 81.996 82.056C81.268 82.056 80.6987 81.8553 80.288 81.454C79.8867 81.0433 79.686 80.4413 79.686 79.648V74.902H81.73V79.186C81.73 80.0167 82.094 80.432 82.822 80.432C83.7087 80.432 84.152 79.8393 84.152 78.654V74.902ZM92.3571 75.112V76.862C91.8624 76.5727 91.2838 76.428 90.6211 76.428C90.3784 76.428 90.1918 76.4793 90.0611 76.582C89.9304 76.6753 89.8651 76.7967 89.8651 76.946C89.8651 77.03 89.8884 77.1093 89.9351 77.184C89.9818 77.2587 90.0564 77.3287 90.1591 77.394C90.2711 77.4593 90.3738 77.52 90.4671 77.576C90.5698 77.6227 90.7051 77.6833 90.8731 77.758C91.0504 77.8327 91.1904 77.898 91.2931 77.954C91.7224 78.178 92.0678 78.4393 92.3291 78.738C92.5904 79.0273 92.7211 79.4007 92.7211 79.858C92.7211 80.558 92.4691 81.0993 91.9651 81.482C91.4611 81.8647 90.7938 82.056 89.9631 82.056C89.1044 82.056 88.3858 81.9113 87.8071 81.622V79.802C88.4511 80.25 89.1324 80.474 89.8511 80.474C90.3644 80.474 90.6211 80.3107 90.6211 79.984C90.6211 79.9 90.5978 79.8207 90.5511 79.746C90.5044 79.6713 90.4251 79.6013 90.3131 79.536C90.2011 79.4707 90.0984 79.4193 90.0051 79.382C89.9118 79.3353 89.7764 79.2747 89.5991 79.2C89.4218 79.1253 89.2864 79.0647 89.1931 79.018C88.2504 78.57 87.7791 77.898 87.7791 77.002C87.7791 76.3113 88.0404 75.7747 88.5631 75.392C89.0951 75.0093 89.7531 74.818 90.5371 74.818C91.2651 74.818 91.8718 74.916 92.3571 75.112ZM97.4888 79.088H96.8308C96.4854 79.088 96.2194 79.1627 96.0328 79.312C95.8461 79.4613 95.7528 79.6527 95.7528 79.886C95.7528 80.362 96.0281 80.6 96.5788 80.6C96.8681 80.6 97.0921 80.5113 97.2508 80.334C97.4094 80.1567 97.4888 79.914 97.4888 79.606V79.088ZM94.1708 77.086V75.252C94.7308 74.9347 95.5381 74.776 96.5928 74.776C97.6008 74.776 98.3521 74.9953 98.8468 75.434C99.3414 75.8633 99.5888 76.5353 99.5888 77.45V82H97.5868V81.132C97.2881 81.7387 96.7001 82.042 95.8228 82.042C95.1321 82.042 94.5908 81.846 94.1988 81.454C93.8161 81.062 93.6248 80.572 93.6248 79.984C93.6248 79.3027 93.8721 78.7753 94.3668 78.402C94.8708 78.0193 95.6128 77.828 96.5928 77.828H97.4888V77.338C97.4888 76.7407 97.0921 76.442 96.2988 76.442C95.5334 76.442 94.8241 76.6567 94.1708 77.086ZM107.872 82H105.506L103.238 78.514V82H101.194V72.34H103.238V78.08L105.478 74.902H107.83L105.366 78.304L107.872 82ZM112.377 79.088H111.719C111.374 79.088 111.108 79.1627 110.921 79.312C110.735 79.4613 110.641 79.6527 110.641 79.886C110.641 80.362 110.917 80.6 111.467 80.6C111.757 80.6 111.981 80.5113 112.139 80.334C112.298 80.1567 112.377 79.914 112.377 79.606V79.088ZM109.059 77.086V75.252C109.619 74.9347 110.427 74.776 111.481 74.776C112.489 74.776 113.241 74.9953 113.735 75.434C114.23 75.8633 114.477 76.5353 114.477 77.45V82H112.475V81.132C112.177 81.7387 111.589 82.042 110.711 82.042C110.021 82.042 109.479 81.846 109.087 81.454C108.705 81.062 108.513 80.572 108.513 79.984C108.513 79.3027 108.761 78.7753 109.255 78.402C109.759 78.0193 110.501 77.828 111.481 77.828H112.377V77.338C112.377 76.7407 111.981 76.442 111.187 76.442C110.422 76.442 109.713 76.6567 109.059 77.086ZM118.126 74.902V76.106C118.304 75.714 118.574 75.406 118.938 75.182C119.312 74.9487 119.755 74.832 120.268 74.832C120.996 74.832 121.566 75.0513 121.976 75.49C122.387 75.9193 122.592 76.554 122.592 77.394V82H120.548V77.772C120.548 77.352 120.45 77.0347 120.254 76.82C120.058 76.596 119.783 76.484 119.428 76.484C119.055 76.484 118.742 76.6333 118.49 76.932C118.248 77.2213 118.126 77.66 118.126 78.248V82H116.082V74.902H118.126ZM129.929 77.24H130.643C131.782 77.24 132.351 76.722 132.351 75.686C132.351 74.7527 131.824 74.286 130.769 74.286H129.929V77.24ZM127.773 72.564H131.021C132.067 72.564 132.911 72.858 133.555 73.446C134.209 74.034 134.535 74.7807 134.535 75.686C134.535 76.722 134.195 77.5247 133.513 78.094C132.841 78.6633 132.011 78.948 131.021 78.948H129.929V82H127.773V72.564ZM137.622 74.902V76.218C137.753 75.8073 137.967 75.4807 138.266 75.238C138.574 74.986 138.929 74.86 139.33 74.86C139.554 74.86 139.731 74.8787 139.862 74.916V76.848C139.638 76.7453 139.381 76.694 139.092 76.694C138.653 76.694 138.299 76.8573 138.028 77.184C137.757 77.5013 137.622 77.926 137.622 78.458V82H135.578L135.592 74.902H137.622ZM143.91 82.112C142.799 82.112 141.94 81.7807 141.334 81.118C140.727 80.446 140.424 79.5873 140.424 78.542C140.424 77.45 140.741 76.554 141.376 75.854C142.01 75.1447 142.855 74.79 143.91 74.79C145.011 74.79 145.865 75.1307 146.472 75.812C147.078 76.4933 147.382 77.3613 147.382 78.416C147.382 79.4893 147.074 80.376 146.458 81.076C145.851 81.7667 145.002 82.112 143.91 82.112ZM143.896 76.4C143.448 76.4 143.112 76.5913 142.888 76.974C142.664 77.3567 142.552 77.8513 142.552 78.458C142.552 79.0647 142.664 79.564 142.888 79.956C143.121 80.3387 143.466 80.53 143.924 80.53C144.372 80.53 144.703 80.3433 144.918 79.97C145.142 79.5873 145.254 79.0927 145.254 78.486C145.254 77.0953 144.801 76.4 143.896 76.4ZM152.357 80.376C152.805 80.376 153.169 80.208 153.449 79.872C153.729 79.5267 153.869 79.06 153.869 78.472C153.869 77.828 153.724 77.3427 153.435 77.016C153.155 76.68 152.796 76.512 152.357 76.512C151.928 76.512 151.554 76.6753 151.237 77.002C150.92 77.3287 150.761 77.786 150.761 78.374C150.761 78.9807 150.91 79.466 151.209 79.83C151.508 80.194 151.89 80.376 152.357 80.376ZM150.761 74.902V75.994C151.256 75.21 151.97 74.818 152.903 74.818C153.818 74.818 154.55 75.1447 155.101 75.798C155.661 76.442 155.941 77.3193 155.941 78.43C155.941 79.4847 155.67 80.3573 155.129 81.048C154.597 81.7387 153.855 82.084 152.903 82.084C151.942 82.084 151.228 81.706 150.761 80.95V84.618H148.717V74.902H150.761ZM161.378 77.8V77.632C161.312 76.8013 160.948 76.386 160.286 76.386C159.959 76.386 159.67 76.5073 159.418 76.75C159.166 76.9833 158.998 77.3333 158.914 77.8H161.378ZM162.848 79.886V81.594C162.362 81.9113 161.62 82.07 160.622 82.07C159.455 82.07 158.545 81.734 157.892 81.062C157.248 80.3807 156.926 79.508 156.926 78.444C156.926 77.3147 157.238 76.4327 157.864 75.798C158.498 75.154 159.278 74.832 160.202 74.832C161.154 74.832 161.905 75.112 162.456 75.672C163.006 76.2227 163.282 77.0487 163.282 78.15C163.282 78.3647 163.244 78.7333 163.17 79.256H158.998C159.138 79.648 159.38 79.9513 159.726 80.166C160.071 80.3807 160.486 80.488 160.972 80.488C161.69 80.488 162.316 80.2873 162.848 79.886ZM166.77 74.902V76.218C166.901 75.8073 167.116 75.4807 167.414 75.238C167.722 74.986 168.077 74.86 168.478 74.86C168.702 74.86 168.88 74.8787 169.01 74.916V76.848C168.786 76.7453 168.53 76.694 168.24 76.694C167.802 76.694 167.447 76.8573 167.176 77.184C166.906 77.5013 166.77 77.926 166.77 78.458V82H164.726L164.74 74.902H166.77ZM172.288 76.4V79.662C172.288 79.914 172.358 80.1053 172.498 80.236C172.647 80.3667 172.839 80.432 173.072 80.432C173.445 80.432 173.777 80.3387 174.066 80.152V81.846C173.721 81.9953 173.254 82.07 172.666 82.07C171.051 82.07 170.244 81.2627 170.244 79.648V76.4H169.222V74.902H170.244V73.222H172.288V74.902H173.94V76.4H172.288ZM175.392 82V74.902H177.436V82H175.392ZM175.574 73.684C175.341 73.4507 175.224 73.1707 175.224 72.844C175.224 72.5173 175.341 72.2373 175.574 72.004C175.808 71.7707 176.088 71.654 176.414 71.654C176.741 71.654 177.021 71.7707 177.254 72.004C177.488 72.2373 177.604 72.5173 177.604 72.844C177.604 73.1707 177.488 73.4507 177.254 73.684C177.021 73.9173 176.741 74.034 176.414 74.034C176.088 74.034 175.808 73.9173 175.574 73.684Z" fill="white"/>
</g>
<mask id="path-5-inside-1_1124_4113" fill="white">
<path d="M9 106H329V130H9V106Z"/>
</mask>
<path d="M9 106H329V130H9V106Z" fill="white"/>
<path d="M329 129H9V131H329V129Z" fill="#F1F1F1" mask="url(#path-5-inside-1_1124_4113)"/>
<path d="M103.44 111.808V112.488C103.115 112.275 102.725 112.168 102.272 112.168C101.947 112.168 101.688 112.245 101.496 112.4C101.304 112.549 101.208 112.747 101.208 112.992C101.208 113.12 101.232 113.235 101.28 113.336C101.333 113.437 101.424 113.533 101.552 113.624C101.68 113.709 101.789 113.776 101.88 113.824C101.971 113.867 102.112 113.931 102.304 114.016C102.485 114.096 102.624 114.16 102.72 114.208C102.816 114.251 102.939 114.323 103.088 114.424C103.243 114.52 103.357 114.616 103.432 114.712C103.512 114.803 103.581 114.925 103.64 115.08C103.704 115.229 103.736 115.392 103.736 115.568C103.736 116.043 103.573 116.411 103.248 116.672C102.923 116.928 102.504 117.056 101.992 117.056C101.427 117.056 100.947 116.941 100.552 116.712V116.016C100.941 116.309 101.416 116.456 101.976 116.456C102.312 116.456 102.576 116.381 102.768 116.232C102.96 116.083 103.056 115.867 103.056 115.584C103.056 115.467 103.032 115.363 102.984 115.272C102.941 115.176 102.867 115.091 102.76 115.016C102.659 114.936 102.56 114.872 102.464 114.824C102.373 114.771 102.248 114.707 102.088 114.632C102.056 114.616 102.008 114.595 101.944 114.568C101.715 114.467 101.539 114.384 101.416 114.32C101.299 114.256 101.157 114.163 100.992 114.04C100.832 113.912 100.715 113.765 100.64 113.6C100.565 113.435 100.528 113.243 100.528 113.024C100.528 112.565 100.691 112.208 101.016 111.952C101.347 111.691 101.76 111.56 102.256 111.56C102.72 111.56 103.115 111.643 103.44 111.808ZM104.811 117V112.944H105.443V117H104.811ZM104.827 111.968C104.753 111.888 104.715 111.789 104.715 111.672C104.715 111.555 104.753 111.456 104.827 111.376C104.907 111.296 105.006 111.256 105.123 111.256C105.241 111.256 105.339 111.296 105.419 111.376C105.499 111.456 105.539 111.555 105.539 111.672C105.539 111.789 105.499 111.888 105.419 111.968C105.339 112.043 105.241 112.08 105.123 112.08C105.006 112.08 104.907 112.043 104.827 111.968ZM106.647 117V111.376H107.271V117H106.647ZM108.095 114.872L109.743 117H108.983L107.351 114.872L108.943 112.944H109.695L108.095 114.872ZM110.522 117V111.344H111.154V117H110.522ZM114.877 112.944H115.509V117H114.877V116.296C114.664 116.797 114.24 117.048 113.605 117.048C113.205 117.048 112.888 116.931 112.653 116.696C112.424 116.456 112.309 116.136 112.309 115.736V112.944H112.941V115.576C112.941 115.869 113.016 116.093 113.165 116.248C113.315 116.403 113.517 116.48 113.773 116.48C114.109 116.48 114.376 116.363 114.573 116.128C114.776 115.893 114.877 115.576 114.877 115.176V112.944ZM118.886 113.08V113.68C118.64 113.531 118.304 113.456 117.878 113.456C117.664 113.456 117.494 113.507 117.366 113.608C117.243 113.704 117.182 113.829 117.182 113.984C117.182 114.08 117.2 114.165 117.238 114.24C117.275 114.309 117.347 114.379 117.454 114.448C117.566 114.517 117.646 114.565 117.694 114.592C117.747 114.613 117.859 114.661 118.03 114.736C118.371 114.875 118.638 115.032 118.83 115.208C119.022 115.384 119.118 115.621 119.118 115.92C119.118 116.267 118.995 116.541 118.75 116.744C118.51 116.947 118.179 117.048 117.758 117.048C117.267 117.048 116.87 116.965 116.566 116.8V116.184C116.923 116.397 117.307 116.504 117.718 116.504C117.963 116.504 118.15 116.456 118.278 116.36C118.406 116.264 118.47 116.133 118.47 115.968C118.47 115.776 118.398 115.627 118.254 115.52C118.115 115.413 117.88 115.293 117.55 115.16C117.246 115.043 117 114.896 116.814 114.72C116.632 114.544 116.542 114.307 116.542 114.008C116.542 113.672 116.667 113.405 116.918 113.208C117.174 113.005 117.491 112.904 117.87 112.904C118.291 112.904 118.63 112.963 118.886 113.08ZM122.608 116.448H123.832C124.173 116.448 124.434 116.371 124.616 116.216C124.802 116.056 124.896 115.824 124.896 115.52C124.896 115.216 124.792 114.979 124.584 114.808C124.381 114.637 124.09 114.552 123.712 114.552H122.608V116.448ZM122.608 112.16V114H123.472C123.904 114 124.224 113.909 124.432 113.728C124.64 113.547 124.744 113.312 124.744 113.024C124.744 112.773 124.645 112.568 124.448 112.408C124.256 112.243 123.968 112.16 123.584 112.16H122.608ZM121.96 111.608H123.584C124.138 111.608 124.581 111.736 124.912 111.992C125.248 112.248 125.416 112.592 125.416 113.024C125.416 113.333 125.328 113.603 125.152 113.832C124.981 114.056 124.76 114.197 124.488 114.256C124.786 114.304 125.04 114.44 125.248 114.664C125.461 114.883 125.568 115.181 125.568 115.56C125.568 115.992 125.424 116.341 125.136 116.608C124.853 116.869 124.45 117 123.928 117H121.96V111.608ZM126.53 117V112.944H127.162V117H126.53ZM126.546 111.968C126.471 111.888 126.434 111.789 126.434 111.672C126.434 111.555 126.471 111.456 126.546 111.376C126.626 111.296 126.725 111.256 126.842 111.256C126.959 111.256 127.058 111.296 127.138 111.376C127.218 111.456 127.258 111.555 127.258 111.672C127.258 111.789 127.218 111.888 127.138 111.968C127.058 112.043 126.959 112.08 126.842 112.08C126.725 112.08 126.626 112.043 126.546 111.968ZM130.573 113.08V113.68C130.328 113.531 129.992 113.456 129.565 113.456C129.352 113.456 129.181 113.507 129.053 113.608C128.931 113.704 128.869 113.829 128.869 113.984C128.869 114.08 128.888 114.165 128.925 114.24C128.963 114.309 129.035 114.379 129.141 114.448C129.253 114.517 129.333 114.565 129.381 114.592C129.435 114.613 129.547 114.661 129.717 114.736C130.059 114.875 130.325 115.032 130.517 115.208C130.709 115.384 130.805 115.621 130.805 115.92C130.805 116.267 130.683 116.541 130.437 116.744C130.197 116.947 129.867 117.048 129.445 117.048C128.955 117.048 128.557 116.965 128.253 116.8V116.184C128.611 116.397 128.995 116.504 129.405 116.504C129.651 116.504 129.837 116.456 129.965 116.36C130.093 116.264 130.157 116.133 130.157 115.968C130.157 115.776 130.085 115.627 129.941 115.52C129.803 115.413 129.568 115.293 129.237 115.16C128.933 115.043 128.688 114.896 128.501 114.72C128.32 114.544 128.229 114.307 128.229 114.008C128.229 113.672 128.355 113.405 128.605 113.208C128.861 113.005 129.179 112.904 129.557 112.904C129.979 112.904 130.317 112.963 130.573 113.08ZM132.286 112.944V113.648C132.526 113.141 132.953 112.888 133.566 112.888C133.961 112.888 134.275 113.008 134.51 113.248C134.745 113.488 134.862 113.808 134.862 114.208V117H134.23V114.376C134.23 114.077 134.153 113.851 133.998 113.696C133.849 113.536 133.651 113.456 133.406 113.456C133.102 113.456 132.838 113.573 132.614 113.808C132.395 114.043 132.286 114.368 132.286 114.784V117H131.662V112.944H132.286ZM136.014 117V112.944H136.646V117H136.014ZM136.03 111.968C135.956 111.888 135.918 111.789 135.918 111.672C135.918 111.555 135.956 111.456 136.03 111.376C136.11 111.296 136.209 111.256 136.326 111.256C136.444 111.256 136.542 111.296 136.622 111.376C136.702 111.456 136.742 111.555 136.742 111.672C136.742 111.789 136.702 111.888 136.622 111.968C136.542 112.043 136.444 112.08 136.326 112.08C136.209 112.08 136.11 112.043 136.03 111.968ZM140.058 113.08V113.68C139.812 113.531 139.476 113.456 139.05 113.456C138.836 113.456 138.666 113.507 138.538 113.608C138.415 113.704 138.354 113.829 138.354 113.984C138.354 114.08 138.372 114.165 138.41 114.24C138.447 114.309 138.519 114.379 138.626 114.448C138.738 114.517 138.818 114.565 138.866 114.592C138.919 114.613 139.031 114.661 139.202 114.736C139.543 114.875 139.81 115.032 140.002 115.208C140.194 115.384 140.29 115.621 140.29 115.92C140.29 116.267 140.167 116.541 139.922 116.744C139.682 116.947 139.351 117.048 138.93 117.048C138.439 117.048 138.042 116.965 137.738 116.8V116.184C138.095 116.397 138.479 116.504 138.89 116.504C139.135 116.504 139.322 116.456 139.45 116.36C139.578 116.264 139.642 116.133 139.642 115.968C139.642 115.776 139.57 115.627 139.426 115.52C139.287 115.413 139.052 115.293 138.722 115.16C138.418 115.043 138.172 114.896 137.986 114.72C137.804 114.544 137.714 114.307 137.714 114.008C137.714 113.672 137.839 113.405 138.09 113.208C138.346 113.005 138.663 112.904 139.042 112.904C139.463 112.904 139.802 112.963 140.058 113.08Z" fill="#2B2B2B"/>
<rect x="174.25" y="108.25" width="63.5" height="13.5" rx="6.75" stroke="#008C1E" stroke-width="0.5"/>
<g clip-path="url(#clip1_1124_4113)">
<path d="M184.667 115.679C184.588 115.679 184.504 115.65 184.442 115.591L183.058 114.32C183.025 114.291 182.979 114.291 182.946 114.32L181.563 115.591C181.425 115.716 181.217 115.708 181.092 115.57C180.967 115.433 180.975 115.225 181.113 115.1L182.496 113.829C182.788 113.566 183.221 113.566 183.508 113.829L184.896 115.1C185.033 115.225 185.042 115.433 184.917 115.57C184.85 115.641 184.763 115.679 184.671 115.679H184.667Z" fill="#008C1E"/>
<path d="M183 119.166C180.704 119.166 178.833 117.296 178.833 115C178.833 112.704 180.704 110.833 183 110.833C185.296 110.833 187.167 112.704 187.167 115C187.167 117.296 185.296 119.166 183 119.166ZM183 111.5C181.071 111.5 179.5 113.071 179.5 115C179.5 116.929 181.071 118.5 183 118.5C184.929 118.5 186.5 116.929 186.5 115C186.5 113.071 184.929 111.5 183 111.5Z" fill="#008C1E"/>
</g>
<path d="M191.264 116.448H192.488C192.829 116.448 193.091 116.371 193.272 116.216C193.459 116.056 193.552 115.824 193.552 115.52C193.552 115.216 193.448 114.979 193.24 114.808C193.037 114.637 192.747 114.552 192.368 114.552H191.264V116.448ZM191.264 112.16V114H192.128C192.56 114 192.88 113.909 193.088 113.728C193.296 113.547 193.4 113.312 193.4 113.024C193.4 112.773 193.301 112.568 193.104 112.408C192.912 112.243 192.624 112.16 192.24 112.16H191.264ZM190.616 111.608H192.24C192.795 111.608 193.237 111.736 193.568 111.992C193.904 112.248 194.072 112.592 194.072 113.024C194.072 113.333 193.984 113.603 193.808 113.832C193.637 114.056 193.416 114.197 193.144 114.256C193.443 114.304 193.696 114.44 193.904 114.664C194.117 114.883 194.224 115.181 194.224 115.56C194.224 115.992 194.08 116.341 193.792 116.608C193.509 116.869 193.107 117 192.584 117H190.616V111.608ZM196.802 117.072C196.221 117.072 195.76 116.877 195.418 116.488C195.082 116.093 194.914 115.597 194.914 115C194.914 114.397 195.088 113.896 195.434 113.496C195.786 113.091 196.242 112.888 196.802 112.888C197.416 112.888 197.888 113.085 198.218 113.48C198.554 113.875 198.722 114.376 198.722 114.984C198.722 115.587 198.552 116.085 198.21 116.48C197.869 116.875 197.4 117.072 196.802 117.072ZM196.802 113.448C196.418 113.448 196.117 113.597 195.898 113.896C195.68 114.195 195.57 114.56 195.57 114.992C195.57 115.413 195.682 115.773 195.906 116.072C196.13 116.365 196.429 116.512 196.802 116.512C197.208 116.512 197.52 116.368 197.738 116.08C197.957 115.787 198.066 115.424 198.066 114.992C198.066 114.544 197.962 114.176 197.754 113.888C197.546 113.595 197.229 113.448 196.802 113.448ZM201.295 117.072C200.713 117.072 200.252 116.877 199.911 116.488C199.575 116.093 199.407 115.597 199.407 115C199.407 114.397 199.58 113.896 199.927 113.496C200.279 113.091 200.735 112.888 201.295 112.888C201.908 112.888 202.38 113.085 202.711 113.48C203.047 113.875 203.215 114.376 203.215 114.984C203.215 115.587 203.044 116.085 202.703 116.48C202.361 116.875 201.892 117.072 201.295 117.072ZM201.295 113.448C200.911 113.448 200.609 113.597 200.391 113.896C200.172 114.195 200.062 114.56 200.062 114.992C200.062 115.413 200.175 115.773 200.399 116.072C200.623 116.365 200.921 116.512 201.295 116.512C201.7 116.512 202.012 116.368 202.231 116.08C202.449 115.787 202.559 115.424 202.559 114.992C202.559 114.544 202.455 114.176 202.247 113.888C202.039 113.595 201.721 113.448 201.295 113.448ZM204.763 112.944V113.6C204.987 113.125 205.368 112.888 205.907 112.888C206.531 112.888 206.925 113.152 207.091 113.68C207.208 113.424 207.371 113.229 207.579 113.096C207.792 112.957 208.029 112.888 208.291 112.888C208.712 112.888 209.029 113.008 209.243 113.248C209.456 113.488 209.563 113.811 209.563 114.216V117H208.931V114.376C208.931 113.763 208.672 113.456 208.155 113.456C207.899 113.456 207.669 113.573 207.467 113.808C207.264 114.037 207.163 114.363 207.163 114.784V117H206.531V114.376C206.531 113.763 206.272 113.456 205.755 113.456C205.499 113.456 205.269 113.573 205.067 113.808C204.864 114.037 204.763 114.363 204.763 114.784V117H204.139V112.944H204.763Z" fill="#2B2B2B"/>
<g clip-path="url(#clip2_1124_4113)">
<path d="M181.616 171.705L176.507 174.518L180.803 176.397L163.484 186.331L174.267 175.236L170.371 174.648L177.154 165.172L173.952 160.484L155.626 172.527L151.68 192.5L182.374 198.565L186.32 178.591L181.616 171.705Z" fill="#FF1934"/>
<path d="M181.941 201.887L157.482 201.141L149.544 201.963L168.814 204.517L188.456 204.209L181.941 201.887Z" fill="#CCCCCC"/>
<path d="M166.608 183.117L167.299 179.617L158.78 177.934L157.365 185.1L163.502 186.312L166.608 183.117Z" fill="#8C0010"/>
<path d="M163.513 186.315L165.884 186.784L166.291 184.722L163.513 186.315Z" fill="#8C0010"/>
<path d="M171.058 181.988L168.331 195.79L176.849 197.474L179.886 182.105L173.168 180.777L171.058 181.988Z" fill="#8C0010"/>
</g>
<path d="M73.593 230.99H75.753L75.643 230.65C75.3897 229.863 75.183 229.213 75.023 228.7C74.863 228.18 74.7664 227.857 74.733 227.73L74.683 227.54C74.6097 227.853 74.283 228.89 73.703 230.65L73.593 230.99ZM76.563 233.5L76.033 231.85H73.313L72.773 233.5H71.683L74.013 226.76H75.363L77.663 233.5H76.563ZM79.6446 228.43V229.3C79.9446 228.673 80.4713 228.36 81.2246 228.36C81.7246 228.36 82.1213 228.513 82.4146 228.82C82.7079 229.127 82.8546 229.543 82.8546 230.07V233.5H81.8746V230.3C81.8746 229.947 81.7846 229.677 81.6046 229.49C81.4313 229.303 81.1979 229.21 80.9046 229.21C80.5579 229.21 80.2613 229.347 80.0146 229.62C79.7679 229.887 79.6446 230.263 79.6446 230.75V233.5H78.6646V228.43H79.6446ZM86.2224 232.71C86.6091 232.71 86.9358 232.563 87.2024 232.27C87.4691 231.977 87.6024 231.53 87.6024 230.93C87.6024 230.35 87.4624 229.92 87.1824 229.64C86.9091 229.36 86.5991 229.22 86.2524 229.22C85.8591 229.22 85.5358 229.377 85.2824 229.69C85.0291 229.997 84.9024 230.437 84.9024 231.01C84.9024 231.517 85.0258 231.927 85.2724 232.24C85.5258 232.553 85.8424 232.71 86.2224 232.71ZM87.6024 226.43H88.5924V233.5H87.6024V232.73C87.2491 233.29 86.7324 233.57 86.0524 233.57C85.3858 233.57 84.8591 233.32 84.4724 232.82C84.0858 232.313 83.8924 231.703 83.8924 230.99C83.8924 230.197 84.0958 229.56 84.5024 229.08C84.9091 228.6 85.4324 228.36 86.0724 228.36C86.7324 228.36 87.2424 228.64 87.6024 229.2V226.43ZM92.6432 231.24H91.8832C91.5099 231.24 91.2265 231.313 91.0332 231.46C90.8465 231.607 90.7532 231.793 90.7532 232.02C90.7532 232.253 90.8265 232.437 90.9732 232.57C91.1199 232.703 91.3332 232.77 91.6132 232.77C91.9332 232.77 92.1832 232.683 92.3632 232.51C92.5499 232.33 92.6432 232.097 92.6432 231.81V231.24ZM90.0932 229.64V228.69C90.4865 228.463 91.0065 228.35 91.6532 228.35C92.9799 228.35 93.6432 228.993 93.6432 230.28V233.5H92.6732V232.9C92.4132 233.327 91.9565 233.54 91.3032 233.54C90.8232 233.54 90.4365 233.403 90.1432 233.13C89.8565 232.85 89.7132 232.497 89.7132 232.07C89.7132 231.583 89.8965 231.207 90.2632 230.94C90.6299 230.667 91.1432 230.53 91.8032 230.53H92.6432V230.24C92.6432 229.893 92.5599 229.633 92.3932 229.46C92.2265 229.28 91.9499 229.19 91.5632 229.19C91.0232 229.19 90.5332 229.34 90.0932 229.64ZM99.4744 232.71C99.861 232.71 100.188 232.563 100.454 232.27C100.721 231.977 100.854 231.53 100.854 230.93C100.854 230.35 100.714 229.92 100.434 229.64C100.161 229.36 99.851 229.22 99.5044 229.22C99.111 229.22 98.7877 229.377 98.5344 229.69C98.281 229.997 98.1544 230.437 98.1544 231.01C98.1544 231.517 98.2777 231.927 98.5244 232.24C98.7777 232.553 99.0944 232.71 99.4744 232.71ZM100.854 226.43H101.844V233.5H100.854V232.73C100.501 233.29 99.9844 233.57 99.3044 233.57C98.6377 233.57 98.111 233.32 97.7244 232.82C97.3377 232.313 97.1444 231.703 97.1444 230.99C97.1444 230.197 97.3477 229.56 97.7544 229.08C98.161 228.6 98.6844 228.36 99.3244 228.36C99.9844 228.36 100.494 228.64 100.854 229.2V226.43ZM103.265 233.5V228.43H104.255V233.5H103.265ZM103.315 227.32C103.202 227.2 103.145 227.053 103.145 226.88C103.145 226.707 103.202 226.56 103.315 226.44C103.435 226.32 103.582 226.26 103.755 226.26C103.928 226.26 104.075 226.32 104.195 226.44C104.315 226.56 104.375 226.707 104.375 226.88C104.375 227.047 104.315 227.19 104.195 227.31C104.075 227.43 103.928 227.49 103.755 227.49C103.582 227.49 103.435 227.433 103.315 227.32ZM106.656 226.43V229.3C106.943 228.673 107.466 228.36 108.226 228.36C108.72 228.36 109.116 228.513 109.416 228.82C109.716 229.127 109.866 229.553 109.866 230.1V233.5H108.886V230.3C108.886 229.953 108.796 229.687 108.616 229.5C108.443 229.307 108.213 229.21 107.926 229.21C107.593 229.21 107.296 229.337 107.036 229.59C106.783 229.843 106.656 230.23 106.656 230.75V233.5H105.676V226.43H106.656ZM113.854 231.24H113.094C112.721 231.24 112.437 231.313 112.244 231.46C112.057 231.607 111.964 231.793 111.964 232.02C111.964 232.253 112.037 232.437 112.184 232.57C112.331 232.703 112.544 232.77 112.824 232.77C113.144 232.77 113.394 232.683 113.574 232.51C113.761 232.33 113.854 232.097 113.854 231.81V231.24ZM111.304 229.64V228.69C111.697 228.463 112.217 228.35 112.864 228.35C114.191 228.35 114.854 228.993 114.854 230.28V233.5H113.884V232.9C113.624 233.327 113.167 233.54 112.514 233.54C112.034 233.54 111.647 233.403 111.354 233.13C111.067 232.85 110.924 232.497 110.924 232.07C110.924 231.583 111.107 231.207 111.474 230.94C111.841 230.667 112.354 230.53 113.014 230.53H113.854V230.24C113.854 229.893 113.771 229.633 113.604 229.46C113.437 229.28 113.161 229.19 112.774 229.19C112.234 229.19 111.744 229.34 111.304 229.64ZM117.154 228.43V229.32C117.401 228.693 117.844 228.38 118.484 228.38C118.578 228.38 118.681 228.39 118.794 228.41V229.37C118.654 229.31 118.498 229.28 118.324 229.28C117.984 229.28 117.704 229.43 117.484 229.73C117.264 230.03 117.154 230.387 117.154 230.8V233.5H116.174V228.43H117.154ZM122.713 228.43H123.693V233.5H122.713V232.63C122.446 233.25 121.92 233.56 121.133 233.56C120.633 233.56 120.236 233.413 119.943 233.12C119.65 232.82 119.503 232.41 119.503 231.89V228.43H120.493V231.65C120.493 231.997 120.576 232.263 120.743 232.45C120.916 232.63 121.153 232.72 121.453 232.72C121.833 232.72 122.136 232.587 122.363 232.32C122.596 232.053 122.713 231.677 122.713 231.19V228.43ZM127.961 228.6V229.49C127.634 229.297 127.214 229.2 126.701 229.2C126.468 229.2 126.281 229.253 126.141 229.36C126.008 229.467 125.941 229.607 125.941 229.78C125.941 229.827 125.944 229.873 125.951 229.92C125.964 229.96 125.984 230.003 126.011 230.05C126.038 230.09 126.061 230.127 126.081 230.16C126.108 230.187 126.148 230.217 126.201 230.25C126.254 230.283 126.294 230.313 126.321 230.34C126.354 230.36 126.404 230.387 126.471 230.42C126.544 230.453 126.598 230.48 126.631 230.5C126.664 230.513 126.721 230.54 126.801 230.58C126.888 230.613 126.948 230.637 126.981 230.65C127.374 230.823 127.681 231.02 127.901 231.24C128.128 231.453 128.241 231.74 128.241 232.1C128.241 232.553 128.081 232.91 127.761 233.17C127.441 233.423 127.008 233.55 126.461 233.55C125.861 233.55 125.361 233.45 124.961 233.25V232.32C125.428 232.607 125.911 232.75 126.411 232.75C126.671 232.75 126.871 232.697 127.011 232.59C127.158 232.483 127.231 232.343 127.231 232.17C127.231 232.023 127.174 231.893 127.061 231.78C126.948 231.66 126.831 231.573 126.711 231.52C126.598 231.46 126.401 231.37 126.121 231.25C125.328 230.923 124.931 230.443 124.931 229.81C124.931 229.363 125.098 229.013 125.431 228.76C125.764 228.507 126.181 228.38 126.681 228.38C127.228 228.38 127.654 228.453 127.961 228.6ZM129.26 233.5V226.5H130.24V233.5H129.26ZM131.41 230.85L133.4 233.5H132.23L130.28 230.85L132.19 228.43H133.34L131.41 230.85ZM136.93 231.24H136.17C135.797 231.24 135.514 231.313 135.32 231.46C135.134 231.607 135.04 231.793 135.04 232.02C135.04 232.253 135.114 232.437 135.26 232.57C135.407 232.703 135.62 232.77 135.9 232.77C136.22 232.77 136.47 232.683 136.65 232.51C136.837 232.33 136.93 232.097 136.93 231.81V231.24ZM134.38 229.64V228.69C134.774 228.463 135.294 228.35 135.94 228.35C137.267 228.35 137.93 228.993 137.93 230.28V233.5H136.96V232.9C136.7 233.327 136.244 233.54 135.59 233.54C135.11 233.54 134.724 233.403 134.43 233.13C134.144 232.85 134 232.497 134 232.07C134 231.583 134.184 231.207 134.55 230.94C134.917 230.667 135.43 230.53 136.09 230.53H136.93V230.24C136.93 229.893 136.847 229.633 136.68 229.46C136.514 229.28 136.237 229.19 135.85 229.19C135.31 229.19 134.82 229.34 134.38 229.64ZM140.231 228.43V229.3C140.531 228.673 141.057 228.36 141.811 228.36C142.311 228.36 142.707 228.513 143.001 228.82C143.294 229.127 143.441 229.543 143.441 230.07V233.5H142.461V230.3C142.461 229.947 142.371 229.677 142.191 229.49C142.017 229.303 141.784 229.21 141.491 229.21C141.144 229.21 140.847 229.347 140.601 229.62C140.354 229.887 140.231 230.263 140.231 230.75V233.5H139.251V228.43H140.231ZM150.369 228.43H151.349V233.5H150.369V232.63C150.103 233.25 149.576 233.56 148.789 233.56C148.289 233.56 147.893 233.413 147.599 233.12C147.306 232.82 147.159 232.41 147.159 231.89V228.43H148.149V231.65C148.149 231.997 148.233 232.263 148.399 232.45C148.573 232.63 148.809 232.72 149.109 232.72C149.489 232.72 149.793 232.587 150.019 232.32C150.253 232.053 150.369 231.677 150.369 231.19V228.43ZM153.707 228.43V229.3C154.007 228.673 154.534 228.36 155.287 228.36C155.787 228.36 156.184 228.513 156.477 228.82C156.77 229.127 156.917 229.543 156.917 230.07V233.5H155.937V230.3C155.937 229.947 155.847 229.677 155.667 229.49C155.494 229.303 155.26 229.21 154.967 229.21C154.62 229.21 154.324 229.347 154.077 229.62C153.83 229.887 153.707 230.263 153.707 230.75V233.5H152.727V228.43H153.707ZM159.505 229.19V231.98C159.505 232.467 159.738 232.71 160.205 232.71C160.478 232.71 160.708 232.637 160.895 232.49V233.37C160.675 233.49 160.405 233.55 160.085 233.55C159.038 233.55 158.515 233.02 158.515 231.96V229.19H157.725V228.43H158.515V227.19H159.505V228.43H160.835V229.19H159.505ZM165.125 228.43H166.105V233.5H165.125V232.63C164.858 233.25 164.332 233.56 163.545 233.56C163.045 233.56 162.648 233.413 162.355 233.12C162.062 232.82 161.915 232.41 161.915 231.89V228.43H162.905V231.65C162.905 231.997 162.988 232.263 163.155 232.45C163.328 232.63 163.565 232.72 163.865 232.72C164.245 232.72 164.548 232.587 164.775 232.32C165.008 232.053 165.125 231.677 165.125 231.19V228.43ZM167.483 233.5V226.5H168.463V233.5H167.483ZM169.633 230.85L171.623 233.5H170.453L168.503 230.85L170.413 228.43H171.563L169.633 230.85ZM175.924 228.43V229.24C176.211 228.653 176.687 228.36 177.354 228.36C178.114 228.36 178.601 228.687 178.814 229.34C178.954 229.027 179.157 228.787 179.424 228.62C179.691 228.447 179.991 228.36 180.324 228.36C180.844 228.36 181.237 228.513 181.504 228.82C181.777 229.127 181.914 229.55 181.914 230.09V233.5H180.934V230.3C180.934 229.573 180.641 229.21 180.054 229.21C179.761 229.21 179.497 229.34 179.264 229.6C179.037 229.86 178.924 230.243 178.924 230.75V233.5H177.944V230.3C177.944 229.573 177.647 229.21 177.054 229.21C176.767 229.21 176.507 229.34 176.274 229.6C176.041 229.86 175.924 230.243 175.924 230.75V233.5H174.944V228.43H175.924ZM186.395 230.6V230.42C186.381 230.04 186.278 229.74 186.085 229.52C185.891 229.293 185.615 229.18 185.255 229.18C184.921 229.18 184.635 229.303 184.395 229.55C184.155 229.79 184.005 230.14 183.945 230.6H186.395ZM187.025 232.35V233.23C186.651 233.443 186.158 233.55 185.545 233.55C184.758 233.55 184.131 233.313 183.665 232.84C183.198 232.367 182.965 231.747 182.965 230.98C182.965 230.167 183.178 229.53 183.605 229.07C184.031 228.603 184.575 228.37 185.235 228.37C185.881 228.37 186.395 228.573 186.775 228.98C187.155 229.38 187.345 229.96 187.345 230.72C187.345 230.927 187.325 231.143 187.285 231.37H183.955C184.021 231.81 184.208 232.147 184.515 232.38C184.821 232.613 185.208 232.73 185.675 232.73C186.215 232.73 186.665 232.603 187.025 232.35ZM189.479 228.43V229.24C189.765 228.653 190.242 228.36 190.909 228.36C191.669 228.36 192.155 228.687 192.369 229.34C192.509 229.027 192.712 228.787 192.979 228.62C193.245 228.447 193.545 228.36 193.879 228.36C194.399 228.36 194.792 228.513 195.059 228.82C195.332 229.127 195.469 229.55 195.469 230.09V233.5H194.489V230.3C194.489 229.573 194.195 229.21 193.609 229.21C193.315 229.21 193.052 229.34 192.819 229.6C192.592 229.86 192.479 230.243 192.479 230.75V233.5H191.499V230.3C191.499 229.573 191.202 229.21 190.609 229.21C190.322 229.21 190.062 229.34 189.829 229.6C189.595 229.86 189.479 230.243 189.479 230.75V233.5H188.499V228.43H189.479ZM199.189 232.71C199.563 232.71 199.876 232.553 200.129 232.24C200.383 231.92 200.509 231.51 200.509 231.01C200.509 230.437 200.383 229.997 200.129 229.69C199.876 229.377 199.553 229.22 199.159 229.22C198.813 229.22 198.499 229.36 198.219 229.64C197.946 229.92 197.809 230.35 197.809 230.93C197.809 231.53 197.943 231.977 198.209 232.27C198.476 232.563 198.803 232.71 199.189 232.71ZM197.809 226.43V229.2C198.169 228.64 198.679 228.36 199.339 228.36C199.979 228.36 200.503 228.6 200.909 229.08C201.316 229.56 201.519 230.197 201.519 230.99C201.519 231.703 201.326 232.313 200.939 232.82C200.553 233.32 200.023 233.57 199.349 233.57C198.676 233.57 198.163 233.29 197.809 232.73V233.5H196.819V226.43H197.809ZM205.29 231.24H204.53C204.156 231.24 203.873 231.313 203.68 231.46C203.493 231.607 203.4 231.793 203.4 232.02C203.4 232.253 203.473 232.437 203.62 232.57C203.766 232.703 203.98 232.77 204.26 232.77C204.58 232.77 204.83 232.683 205.01 232.51C205.196 232.33 205.29 232.097 205.29 231.81V231.24ZM202.74 229.64V228.69C203.133 228.463 203.653 228.35 204.3 228.35C205.626 228.35 206.29 228.993 206.29 230.28V233.5H205.32V232.9C205.06 233.327 204.603 233.54 203.95 233.54C203.47 233.54 203.083 233.403 202.79 233.13C202.503 232.85 202.36 232.497 202.36 232.07C202.36 231.583 202.543 231.207 202.91 230.94C203.276 230.667 203.79 230.53 204.45 230.53H205.29V230.24C205.29 229.893 205.206 229.633 205.04 229.46C204.873 229.28 204.596 229.19 204.21 229.19C203.67 229.19 203.18 229.34 202.74 229.64ZM209.01 233.39L206.99 228.43H208.08L208.71 230.08L209.5 232.22C209.56 232.02 209.8 231.307 210.22 230.08L210.79 228.43H211.83L210 233.36C209.513 234.66 208.77 235.31 207.77 235.31C207.59 235.31 207.437 235.293 207.31 235.26V234.42C207.417 234.447 207.53 234.46 207.65 234.46C208.297 234.46 208.75 234.103 209.01 233.39ZM215.319 231.24H214.559C214.186 231.24 213.902 231.313 213.709 231.46C213.522 231.607 213.429 231.793 213.429 232.02C213.429 232.253 213.502 232.437 213.649 232.57C213.796 232.703 214.009 232.77 214.289 232.77C214.609 232.77 214.859 232.683 215.039 232.51C215.226 232.33 215.319 232.097 215.319 231.81V231.24ZM212.769 229.64V228.69C213.162 228.463 213.682 228.35 214.329 228.35C215.656 228.35 216.319 228.993 216.319 230.28V233.5H215.349V232.9C215.089 233.327 214.632 233.54 213.979 233.54C213.499 233.54 213.112 233.403 212.819 233.13C212.532 232.85 212.389 232.497 212.389 232.07C212.389 231.583 212.572 231.207 212.939 230.94C213.306 230.667 213.819 230.53 214.479 230.53H215.319V230.24C215.319 229.893 215.236 229.633 215.069 229.46C214.902 229.28 214.626 229.19 214.239 229.19C213.699 229.19 213.209 229.34 212.769 229.64ZM218.619 228.43V229.32C218.866 228.693 219.309 228.38 219.949 228.38C220.043 228.38 220.146 228.39 220.259 228.41V229.37C220.119 229.31 219.963 229.28 219.789 229.28C219.449 229.28 219.169 229.43 218.949 229.73C218.729 230.03 218.619 230.387 218.619 230.8V233.5H217.639V228.43H218.619ZM223.489 233.5V226.5H224.469V233.5H223.489ZM225.639 230.85L227.629 233.5H226.459L224.509 230.85L226.419 228.43H227.569L225.639 230.85ZM231.639 230.6V230.42C231.625 230.04 231.522 229.74 231.329 229.52C231.135 229.293 230.859 229.18 230.499 229.18C230.165 229.18 229.879 229.303 229.639 229.55C229.399 229.79 229.249 230.14 229.189 230.6H231.639ZM232.269 232.35V233.23C231.895 233.443 231.402 233.55 230.789 233.55C230.002 233.55 229.375 233.313 228.909 232.84C228.442 232.367 228.209 231.747 228.209 230.98C228.209 230.167 228.422 229.53 228.849 229.07C229.275 228.603 229.819 228.37 230.479 228.37C231.125 228.37 231.639 228.573 232.019 228.98C232.399 229.38 232.589 229.96 232.589 230.72C232.589 230.927 232.569 231.143 232.529 231.37H229.199C229.265 231.81 229.452 232.147 229.759 232.38C230.065 232.613 230.452 232.73 230.919 232.73C231.459 232.73 231.909 232.603 232.269 232.35ZM234.723 228.43V229.32C234.969 228.693 235.413 228.38 236.053 228.38C236.146 228.38 236.249 228.39 236.363 228.41V229.37C236.223 229.31 236.066 229.28 235.893 229.28C235.553 229.28 235.273 229.43 235.053 229.73C234.833 230.03 234.723 230.387 234.723 230.8V233.5H233.743V228.43H234.723ZM240.281 228.43H241.261V233.5H240.281V232.63C240.015 233.25 239.488 233.56 238.701 233.56C238.201 233.56 237.805 233.413 237.511 233.12C237.218 232.82 237.071 232.41 237.071 231.89V228.43H238.061V231.65C238.061 231.997 238.145 232.263 238.311 232.45C238.485 232.63 238.721 232.72 239.021 232.72C239.401 232.72 239.705 232.587 239.931 232.32C240.165 232.053 240.281 231.677 240.281 231.19V228.43ZM245.529 228.6V229.49C245.203 229.297 244.783 229.2 244.269 229.2C244.036 229.2 243.849 229.253 243.709 229.36C243.576 229.467 243.509 229.607 243.509 229.78C243.509 229.827 243.513 229.873 243.519 229.92C243.533 229.96 243.553 230.003 243.579 230.05C243.606 230.09 243.629 230.127 243.649 230.16C243.676 230.187 243.716 230.217 243.769 230.25C243.823 230.283 243.863 230.313 243.889 230.34C243.923 230.36 243.973 230.387 244.039 230.42C244.113 230.453 244.166 230.48 244.199 230.5C244.233 230.513 244.289 230.54 244.369 230.58C244.456 230.613 244.516 230.637 244.549 230.65C244.943 230.823 245.249 231.02 245.469 231.24C245.696 231.453 245.809 231.74 245.809 232.1C245.809 232.553 245.649 232.91 245.329 233.17C245.009 233.423 244.576 233.55 244.029 233.55C243.429 233.55 242.929 233.45 242.529 233.25V232.32C242.996 232.607 243.479 232.75 243.979 232.75C244.239 232.75 244.439 232.697 244.579 232.59C244.726 232.483 244.799 232.343 244.799 232.17C244.799 232.023 244.743 231.893 244.629 231.78C244.516 231.66 244.399 231.573 244.279 231.52C244.166 231.46 243.969 231.37 243.689 231.25C242.896 230.923 242.499 230.443 242.499 229.81C242.499 229.363 242.666 229.013 242.999 228.76C243.333 228.507 243.749 228.38 244.249 228.38C244.796 228.38 245.223 228.453 245.529 228.6ZM249.499 231.24H248.739C248.365 231.24 248.082 231.313 247.889 231.46C247.702 231.607 247.609 231.793 247.609 232.02C247.609 232.253 247.682 232.437 247.829 232.57C247.975 232.703 248.189 232.77 248.469 232.77C248.789 232.77 249.039 232.683 249.219 232.51C249.405 232.33 249.499 232.097 249.499 231.81V231.24ZM246.949 229.64V228.69C247.342 228.463 247.862 228.35 248.509 228.35C249.835 228.35 250.499 228.993 250.499 230.28V233.5H249.529V232.9C249.269 233.327 248.812 233.54 248.159 233.54C247.679 233.54 247.292 233.403 246.999 233.13C246.712 232.85 246.569 232.497 246.569 232.07C246.569 231.583 246.752 231.207 247.119 230.94C247.485 230.667 247.999 230.53 248.659 230.53H249.499V230.24C249.499 229.893 249.415 229.633 249.249 229.46C249.082 229.28 248.805 229.19 248.419 229.19C247.879 229.19 247.389 229.34 246.949 229.64ZM251.819 233.5V226.5H252.799V233.5H251.819ZM253.969 230.85L255.959 233.5H254.789L252.839 230.85L254.749 228.43H255.899L253.969 230.85ZM259.489 231.24H258.729C258.356 231.24 258.072 231.313 257.879 231.46C257.692 231.607 257.599 231.793 257.599 232.02C257.599 232.253 257.672 232.437 257.819 232.57C257.966 232.703 258.179 232.77 258.459 232.77C258.779 232.77 259.029 232.683 259.209 232.51C259.396 232.33 259.489 232.097 259.489 231.81V231.24ZM256.939 229.64V228.69C257.332 228.463 257.852 228.35 258.499 228.35C259.826 228.35 260.489 228.993 260.489 230.28V233.5H259.519V232.9C259.259 233.327 258.802 233.54 258.149 233.54C257.669 233.54 257.282 233.403 256.989 233.13C256.702 232.85 256.559 232.497 256.559 232.07C256.559 231.583 256.742 231.207 257.109 230.94C257.476 230.667 257.989 230.53 258.649 230.53H259.489V230.24C259.489 229.893 259.406 229.633 259.239 229.46C259.072 229.28 258.796 229.19 258.409 229.19C257.869 229.19 257.379 229.34 256.939 229.64ZM262.789 228.43V229.3C263.089 228.673 263.616 228.36 264.369 228.36C264.869 228.36 265.266 228.513 265.559 228.82C265.852 229.127 265.999 229.543 265.999 230.07V233.5H265.019V230.3C265.019 229.947 264.929 229.677 264.749 229.49C264.576 229.303 264.342 229.21 264.049 229.21C263.702 229.21 263.406 229.347 263.159 229.62C262.912 229.887 262.789 230.263 262.789 230.75V233.5H261.809V228.43H262.789ZM104.315 248.71C104.708 248.71 105.032 248.557 105.285 248.25C105.538 247.937 105.665 247.5 105.665 246.94C105.665 246.413 105.542 245.997 105.295 245.69C105.048 245.377 104.735 245.22 104.355 245.22C103.975 245.22 103.645 245.36 103.365 245.64C103.092 245.913 102.955 246.35 102.955 246.95C102.955 247.537 103.092 247.977 103.365 248.27C103.645 248.563 103.962 248.71 104.315 248.71ZM102.955 244.43V245.21C103.302 244.643 103.822 244.36 104.515 244.36C105.182 244.36 105.708 244.603 106.095 245.09C106.482 245.57 106.675 246.183 106.675 246.93C106.675 247.697 106.475 248.33 106.075 248.83C105.682 249.323 105.155 249.57 104.495 249.57C103.822 249.57 103.308 249.29 102.955 248.73V251.44H101.975V244.43H102.955ZM108.756 244.43V245.32C109.003 244.693 109.446 244.38 110.086 244.38C110.179 244.38 110.283 244.39 110.396 244.41V245.37C110.256 245.31 110.099 245.28 109.926 245.28C109.586 245.28 109.306 245.43 109.086 245.73C108.866 246.03 108.756 246.387 108.756 246.8V249.5H107.776V244.43H108.756ZM113.285 249.59C112.538 249.59 111.951 249.347 111.525 248.86C111.098 248.373 110.885 247.757 110.885 247.01C110.885 246.25 111.105 245.62 111.545 245.12C111.985 244.613 112.565 244.36 113.285 244.36C114.058 244.36 114.655 244.607 115.075 245.1C115.495 245.587 115.705 246.21 115.705 246.97C115.705 247.73 115.488 248.357 115.055 248.85C114.628 249.343 114.038 249.59 113.285 249.59ZM113.275 245.19C112.841 245.19 112.505 245.363 112.265 245.71C112.025 246.05 111.905 246.473 111.905 246.98C111.905 247.48 112.028 247.903 112.275 248.25C112.521 248.59 112.858 248.76 113.285 248.76C113.738 248.76 114.081 248.593 114.315 248.26C114.555 247.927 114.675 247.503 114.675 246.99C114.675 246.463 114.561 246.033 114.335 245.7C114.108 245.36 113.755 245.19 113.275 245.19ZM119.149 248.71C119.542 248.71 119.866 248.557 120.119 248.25C120.372 247.937 120.499 247.5 120.499 246.94C120.499 246.413 120.376 245.997 120.129 245.69C119.882 245.377 119.569 245.22 119.189 245.22C118.809 245.22 118.479 245.36 118.199 245.64C117.926 245.913 117.789 246.35 117.789 246.95C117.789 247.537 117.926 247.977 118.199 248.27C118.479 248.563 118.796 248.71 119.149 248.71ZM117.789 244.43V245.21C118.136 244.643 118.656 244.36 119.349 244.36C120.016 244.36 120.542 244.603 120.929 245.09C121.316 245.57 121.509 246.183 121.509 246.93C121.509 247.697 121.309 248.33 120.909 248.83C120.516 249.323 119.989 249.57 119.329 249.57C118.656 249.57 118.142 249.29 117.789 248.73V251.44H116.809V244.43H117.789ZM125.76 246.6V246.42C125.747 246.04 125.643 245.74 125.45 245.52C125.257 245.293 124.98 245.18 124.62 245.18C124.287 245.18 124 245.303 123.76 245.55C123.52 245.79 123.37 246.14 123.31 246.6H125.76ZM126.39 248.35V249.23C126.017 249.443 125.523 249.55 124.91 249.55C124.123 249.55 123.497 249.313 123.03 248.84C122.563 248.367 122.33 247.747 122.33 246.98C122.33 246.167 122.543 245.53 122.97 245.07C123.397 244.603 123.94 244.37 124.6 244.37C125.247 244.37 125.76 244.573 126.14 244.98C126.52 245.38 126.71 245.96 126.71 246.72C126.71 246.927 126.69 247.143 126.65 247.37H123.32C123.387 247.81 123.573 248.147 123.88 248.38C124.187 248.613 124.573 248.73 125.04 248.73C125.58 248.73 126.03 248.603 126.39 248.35ZM128.844 244.43V245.32C129.09 244.693 129.534 244.38 130.174 244.38C130.267 244.38 130.37 244.39 130.484 244.41V245.37C130.344 245.31 130.187 245.28 130.014 245.28C129.674 245.28 129.394 245.43 129.174 245.73C128.954 246.03 128.844 246.387 128.844 246.8V249.5H127.864V244.43H128.844ZM132.523 245.19V247.98C132.523 248.467 132.756 248.71 133.223 248.71C133.496 248.71 133.726 248.637 133.913 248.49V249.37C133.693 249.49 133.423 249.55 133.103 249.55C132.056 249.55 131.533 249.02 131.533 247.96V245.19H130.743V244.43H131.533V243.19H132.523V244.43H133.853V245.19H132.523ZM135.033 249.5V244.43H136.023V249.5H135.033ZM135.083 243.32C134.969 243.2 134.913 243.053 134.913 242.88C134.913 242.707 134.969 242.56 135.083 242.44C135.203 242.32 135.349 242.26 135.523 242.26C135.696 242.26 135.843 242.32 135.963 242.44C136.083 242.56 136.143 242.707 136.143 242.88C136.143 243.047 136.083 243.19 135.963 243.31C135.843 243.43 135.696 243.49 135.523 243.49C135.349 243.49 135.203 243.433 135.083 243.32ZM142.795 244.6V245.49C142.468 245.297 142.048 245.2 141.535 245.2C141.302 245.2 141.115 245.253 140.975 245.36C140.842 245.467 140.775 245.607 140.775 245.78C140.775 245.827 140.778 245.873 140.785 245.92C140.798 245.96 140.818 246.003 140.845 246.05C140.872 246.09 140.895 246.127 140.915 246.16C140.942 246.187 140.982 246.217 141.035 246.25C141.088 246.283 141.128 246.313 141.155 246.34C141.188 246.36 141.238 246.387 141.305 246.42C141.378 246.453 141.432 246.48 141.465 246.5C141.498 246.513 141.555 246.54 141.635 246.58C141.722 246.613 141.782 246.637 141.815 246.65C142.208 246.823 142.515 247.02 142.735 247.24C142.962 247.453 143.075 247.74 143.075 248.1C143.075 248.553 142.915 248.91 142.595 249.17C142.275 249.423 141.842 249.55 141.295 249.55C140.695 249.55 140.195 249.45 139.795 249.25V248.32C140.262 248.607 140.745 248.75 141.245 248.75C141.505 248.75 141.705 248.697 141.845 248.59C141.992 248.483 142.065 248.343 142.065 248.17C142.065 248.023 142.008 247.893 141.895 247.78C141.782 247.66 141.665 247.573 141.545 247.52C141.432 247.46 141.235 247.37 140.955 247.25C140.162 246.923 139.765 246.443 139.765 245.81C139.765 245.363 139.932 245.013 140.265 244.76C140.598 244.507 141.015 244.38 141.515 244.38C142.062 244.38 142.488 244.453 142.795 244.6ZM147.244 246.6V246.42C147.231 246.04 147.128 245.74 146.934 245.52C146.741 245.293 146.464 245.18 146.104 245.18C145.771 245.18 145.484 245.303 145.244 245.55C145.004 245.79 144.854 246.14 144.794 246.6H147.244ZM147.874 248.35V249.23C147.501 249.443 147.008 249.55 146.394 249.55C145.608 249.55 144.981 249.313 144.514 248.84C144.048 248.367 143.814 247.747 143.814 246.98C143.814 246.167 144.028 245.53 144.454 245.07C144.881 244.603 145.424 244.37 146.084 244.37C146.731 244.37 147.244 244.573 147.624 244.98C148.004 245.38 148.194 245.96 148.194 246.72C148.194 246.927 148.174 247.143 148.134 247.37H144.804C144.871 247.81 145.058 248.147 145.364 248.38C145.671 248.613 146.058 248.73 146.524 248.73C147.064 248.73 147.514 248.603 147.874 248.35ZM151.738 248.71C152.112 248.71 152.425 248.553 152.678 248.24C152.932 247.92 153.058 247.51 153.058 247.01C153.058 246.437 152.932 245.997 152.678 245.69C152.425 245.377 152.102 245.22 151.708 245.22C151.362 245.22 151.048 245.36 150.768 245.64C150.495 245.92 150.358 246.35 150.358 246.93C150.358 247.53 150.492 247.977 150.758 248.27C151.025 248.563 151.352 248.71 151.738 248.71ZM150.358 242.43V245.2C150.718 244.64 151.228 244.36 151.888 244.36C152.528 244.36 153.052 244.6 153.458 245.08C153.865 245.56 154.068 246.197 154.068 246.99C154.068 247.703 153.875 248.313 153.488 248.82C153.102 249.32 152.572 249.57 151.898 249.57C151.225 249.57 150.712 249.29 150.358 248.73V249.5H149.368V242.43H150.358ZM158.319 246.6V246.42C158.305 246.04 158.202 245.74 158.009 245.52C157.815 245.293 157.539 245.18 157.179 245.18C156.845 245.18 156.559 245.303 156.319 245.55C156.079 245.79 155.929 246.14 155.869 246.6H158.319ZM158.949 248.35V249.23C158.575 249.443 158.082 249.55 157.469 249.55C156.682 249.55 156.055 249.313 155.589 248.84C155.122 248.367 154.889 247.747 154.889 246.98C154.889 246.167 155.102 245.53 155.529 245.07C155.955 244.603 156.499 244.37 157.159 244.37C157.805 244.37 158.319 244.573 158.699 244.98C159.079 245.38 159.269 245.96 159.269 246.72C159.269 246.927 159.249 247.143 159.209 247.37H155.879C155.945 247.81 156.132 248.147 156.439 248.38C156.745 248.613 157.132 248.73 157.599 248.73C158.139 248.73 158.589 248.603 158.949 248.35ZM163.312 244.6V245.49C162.986 245.297 162.566 245.2 162.052 245.2C161.819 245.2 161.632 245.253 161.492 245.36C161.359 245.467 161.292 245.607 161.292 245.78C161.292 245.827 161.296 245.873 161.302 245.92C161.316 245.96 161.336 246.003 161.362 246.05C161.389 246.09 161.412 246.127 161.432 246.16C161.459 246.187 161.499 246.217 161.552 246.25C161.606 246.283 161.646 246.313 161.672 246.34C161.706 246.36 161.756 246.387 161.822 246.42C161.896 246.453 161.949 246.48 161.982 246.5C162.016 246.513 162.072 246.54 162.152 246.58C162.239 246.613 162.299 246.637 162.332 246.65C162.726 246.823 163.032 247.02 163.252 247.24C163.479 247.453 163.592 247.74 163.592 248.1C163.592 248.553 163.432 248.91 163.112 249.17C162.792 249.423 162.359 249.55 161.812 249.55C161.212 249.55 160.712 249.45 160.312 249.25V248.32C160.779 248.607 161.262 248.75 161.762 248.75C162.022 248.75 162.222 248.697 162.362 248.59C162.509 248.483 162.582 248.343 162.582 248.17C162.582 248.023 162.526 247.893 162.412 247.78C162.299 247.66 162.182 247.573 162.062 247.52C161.949 247.46 161.752 247.37 161.472 247.25C160.679 246.923 160.282 246.443 160.282 245.81C160.282 245.363 160.449 245.013 160.782 244.76C161.116 244.507 161.532 244.38 162.032 244.38C162.579 244.38 163.006 244.453 163.312 244.6ZM167.282 247.24H166.522C166.149 247.24 165.865 247.313 165.672 247.46C165.485 247.607 165.392 247.793 165.392 248.02C165.392 248.253 165.465 248.437 165.612 248.57C165.759 248.703 165.972 248.77 166.252 248.77C166.572 248.77 166.822 248.683 167.002 248.51C167.189 248.33 167.282 248.097 167.282 247.81V247.24ZM164.732 245.64V244.69C165.125 244.463 165.645 244.35 166.292 244.35C167.619 244.35 168.282 244.993 168.282 246.28V249.5H167.312V248.9C167.052 249.327 166.595 249.54 165.942 249.54C165.462 249.54 165.075 249.403 164.782 249.13C164.495 248.85 164.352 248.497 164.352 248.07C164.352 247.583 164.535 247.207 164.902 246.94C165.269 246.667 165.782 246.53 166.442 246.53H167.282V246.24C167.282 245.893 167.199 245.633 167.032 245.46C166.865 245.28 166.589 245.19 166.202 245.19C165.662 245.19 165.172 245.34 164.732 245.64ZM170.582 244.43V245.32C170.829 244.693 171.272 244.38 171.912 244.38C172.005 244.38 172.109 244.39 172.222 244.41V245.37C172.082 245.31 171.925 245.28 171.752 245.28C171.412 245.28 171.132 245.43 170.912 245.73C170.692 246.03 170.582 246.387 170.582 246.8V249.5H169.602V244.43H170.582Z" fill="#2B2B2B"/>
<path d="M176.522 243.62V246.08H177.452C177.878 246.08 178.202 245.97 178.422 245.75C178.642 245.523 178.752 245.223 178.752 244.85C178.752 244.03 178.302 243.62 177.402 243.62H176.522ZM178.992 249.5L177.412 246.94H176.522V249.5H175.492V242.76H177.372C178.145 242.76 178.742 242.95 179.162 243.33C179.582 243.703 179.792 244.213 179.792 244.86C179.785 245.333 179.665 245.737 179.432 246.07C179.198 246.397 178.875 246.633 178.462 246.78L180.222 249.5H178.992ZM183.475 248.71C183.869 248.71 184.192 248.557 184.445 248.25C184.699 247.937 184.825 247.5 184.825 246.94C184.825 246.413 184.702 245.997 184.455 245.69C184.209 245.377 183.895 245.22 183.515 245.22C183.135 245.22 182.805 245.36 182.525 245.64C182.252 245.913 182.115 246.35 182.115 246.95C182.115 247.537 182.252 247.977 182.525 248.27C182.805 248.563 183.122 248.71 183.475 248.71ZM182.115 244.43V245.21C182.462 244.643 182.982 244.36 183.675 244.36C184.342 244.36 184.869 244.603 185.255 245.09C185.642 245.57 185.835 246.183 185.835 246.93C185.835 247.697 185.635 248.33 185.235 248.83C184.842 249.323 184.315 249.57 183.655 249.57C182.982 249.57 182.469 249.29 182.115 248.73V251.44H181.135V244.43H182.115ZM190.417 248.65H193.257V249.5H189.067V248.69C189.907 248.077 190.614 247.443 191.187 246.79C191.767 246.13 192.057 245.53 192.057 244.99C192.057 244.61 191.947 244.32 191.727 244.12C191.507 243.913 191.204 243.81 190.817 243.81C190.284 243.81 189.76 244.01 189.247 244.41V243.44C189.727 243.073 190.297 242.89 190.957 242.89C191.57 242.89 192.077 243.063 192.477 243.41C192.877 243.75 193.077 244.237 193.077 244.87C193.077 246.043 192.19 247.303 190.417 248.65ZM194.078 246.21C194.078 245.183 194.281 244.37 194.688 243.77C195.101 243.163 195.665 242.86 196.378 242.86C197.105 242.86 197.675 243.16 198.088 243.76C198.501 244.36 198.708 245.177 198.708 246.21C198.708 247.23 198.505 248.047 198.098 248.66C197.698 249.273 197.125 249.58 196.378 249.58C195.665 249.58 195.101 249.273 194.688 248.66C194.281 248.047 194.078 247.23 194.078 246.21ZM195.448 244.41C195.201 244.83 195.078 245.43 195.078 246.21C195.078 246.99 195.198 247.597 195.438 248.03C195.685 248.457 195.998 248.67 196.378 248.67C196.791 248.67 197.115 248.457 197.348 248.03C197.581 247.603 197.698 246.997 197.698 246.21C197.698 245.417 197.575 244.813 197.328 244.4C197.088 243.98 196.771 243.77 196.378 243.77C196.005 243.77 195.695 243.983 195.448 244.41ZM199.037 250.74L199.997 248.4H201.207L199.897 250.74H199.037ZM201.978 246.21C201.978 245.183 202.182 244.37 202.588 243.77C203.002 243.163 203.565 242.86 204.278 242.86C205.005 242.86 205.575 243.16 205.988 243.76C206.402 244.36 206.608 245.177 206.608 246.21C206.608 247.23 206.405 248.047 205.998 248.66C205.598 249.273 205.025 249.58 204.278 249.58C203.565 249.58 203.002 249.273 202.588 248.66C202.182 248.047 201.978 247.23 201.978 246.21ZM203.348 244.41C203.102 244.83 202.978 245.43 202.978 246.21C202.978 246.99 203.098 247.597 203.338 248.03C203.585 248.457 203.898 248.67 204.278 248.67C204.692 248.67 205.015 248.457 205.248 248.03C205.482 247.603 205.598 246.997 205.598 246.21C205.598 245.417 205.475 244.813 205.228 244.4C204.988 243.98 204.672 243.77 204.278 243.77C203.905 243.77 203.595 243.983 203.348 244.41ZM207.428 246.21C207.428 245.183 207.631 244.37 208.038 243.77C208.451 243.163 209.014 242.86 209.728 242.86C210.454 242.86 211.024 243.16 211.438 243.76C211.851 244.36 212.058 245.177 212.058 246.21C212.058 247.23 211.854 248.047 211.448 248.66C211.048 249.273 210.474 249.58 209.728 249.58C209.014 249.58 208.451 249.273 208.038 248.66C207.631 248.047 207.428 247.23 207.428 246.21ZM208.798 244.41C208.551 244.83 208.428 245.43 208.428 246.21C208.428 246.99 208.548 247.597 208.788 248.03C209.034 248.457 209.348 248.67 209.728 248.67C210.141 248.67 210.464 248.457 210.698 248.03C210.931 247.603 211.048 246.997 211.048 246.21C211.048 245.417 210.924 244.813 210.678 244.4C210.438 243.98 210.121 243.77 209.728 243.77C209.354 243.77 209.044 243.983 208.798 244.41ZM212.877 246.21C212.877 245.183 213.08 244.37 213.487 243.77C213.9 243.163 214.463 242.86 215.177 242.86C215.903 242.86 216.473 243.16 216.887 243.76C217.3 244.36 217.507 245.177 217.507 246.21C217.507 247.23 217.303 248.047 216.897 248.66C216.497 249.273 215.923 249.58 215.177 249.58C214.463 249.58 213.9 249.273 213.487 248.66C213.08 248.047 212.877 247.23 212.877 246.21ZM214.247 244.41C214 244.83 213.877 245.43 213.877 246.21C213.877 246.99 213.997 247.597 214.237 248.03C214.483 248.457 214.797 248.67 215.177 248.67C215.59 248.67 215.913 248.457 216.147 248.03C216.38 247.603 216.497 246.997 216.497 246.21C216.497 245.417 216.373 244.813 216.127 244.4C215.887 243.98 215.57 243.77 215.177 243.77C214.803 243.77 214.493 243.983 214.247 244.41ZM217.836 250.74L218.796 248.4H220.006L218.696 250.74H217.836ZM220.777 246.21C220.777 245.183 220.981 244.37 221.387 243.77C221.801 243.163 222.364 242.86 223.077 242.86C223.804 242.86 224.374 243.16 224.787 243.76C225.201 244.36 225.407 245.177 225.407 246.21C225.407 247.23 225.204 248.047 224.797 248.66C224.397 249.273 223.824 249.58 223.077 249.58C222.364 249.58 221.801 249.273 221.387 248.66C220.981 248.047 220.777 247.23 220.777 246.21ZM222.147 244.41C221.901 244.83 221.777 245.43 221.777 246.21C221.777 246.99 221.897 247.597 222.137 248.03C222.384 248.457 222.697 248.67 223.077 248.67C223.491 248.67 223.814 248.457 224.047 248.03C224.281 247.603 224.397 246.997 224.397 246.21C224.397 245.417 224.274 244.813 224.027 244.4C223.787 243.98 223.471 243.77 223.077 243.77C222.704 243.77 222.394 243.983 222.147 244.41ZM226.226 246.21C226.226 245.183 226.43 244.37 226.836 243.77C227.25 243.163 227.813 242.86 228.526 242.86C229.253 242.86 229.823 243.16 230.236 243.76C230.65 244.36 230.856 245.177 230.856 246.21C230.856 247.23 230.653 248.047 230.246 248.66C229.846 249.273 229.273 249.58 228.526 249.58C227.813 249.58 227.25 249.273 226.836 248.66C226.43 248.047 226.226 247.23 226.226 246.21ZM227.596 244.41C227.35 244.83 227.226 245.43 227.226 246.21C227.226 246.99 227.346 247.597 227.586 248.03C227.833 248.457 228.146 248.67 228.526 248.67C228.94 248.67 229.263 248.457 229.496 248.03C229.73 247.603 229.846 246.997 229.846 246.21C229.846 245.417 229.723 244.813 229.476 244.4C229.236 243.98 228.92 243.77 228.526 243.77C228.153 243.77 227.843 243.983 227.596 244.41ZM231.676 246.21C231.676 245.183 231.879 244.37 232.286 243.77C232.699 243.163 233.262 242.86 233.976 242.86C234.702 242.86 235.272 243.16 235.686 243.76C236.099 244.36 236.306 245.177 236.306 246.21C236.306 247.23 236.102 248.047 235.696 248.66C235.296 249.273 234.722 249.58 233.976 249.58C233.262 249.58 232.699 249.273 232.286 248.66C231.879 248.047 231.676 247.23 231.676 246.21ZM233.046 244.41C232.799 244.83 232.676 245.43 232.676 246.21C232.676 246.99 232.796 247.597 233.036 248.03C233.282 248.457 233.596 248.67 233.976 248.67C234.389 248.67 234.712 248.457 234.946 248.03C235.179 247.603 235.296 246.997 235.296 246.21C235.296 245.417 235.172 244.813 234.926 244.4C234.686 243.98 234.369 243.77 233.976 243.77C233.602 243.77 233.292 243.983 233.046 244.41Z" fill="#FF1934"/>
<rect x="109" y="275" width="120" height="24" rx="8" fill="#FF1934"/>
<path d="M157.959 288.176L158.823 288.176C159.468 288.176 159.791 287.931 159.791 287.44C159.791 286.939 159.455 286.688 158.783 286.688L157.959 286.688L157.959 288.176ZM157.959 284.432L157.959 285.88L158.567 285.88C158.929 285.88 159.201 285.808 159.383 285.664C159.564 285.52 159.655 285.336 159.655 285.112C159.655 284.904 159.577 284.739 159.423 284.616C159.273 284.493 159.044 284.432 158.735 284.432L157.959 284.432ZM156.951 283.608L158.863 283.608C159.439 283.608 159.887 283.744 160.207 284.016C160.527 284.288 160.687 284.64 160.687 285.072C160.687 285.365 160.607 285.621 160.447 285.84C160.287 286.053 160.081 286.195 159.831 286.264C160.119 286.333 160.356 286.475 160.543 286.688C160.729 286.896 160.823 287.181 160.823 287.544C160.823 287.971 160.673 288.32 160.375 288.592C160.076 288.864 159.663 289 159.135 289L156.951 289L156.951 283.608ZM163.053 286.952L164.573 286.952L164.501 286.712C164.32 286.136 164.17 285.653 164.053 285.264C163.941 284.869 163.872 284.621 163.845 284.52L163.813 284.36C163.765 284.627 163.536 285.413 163.125 286.72L163.053 286.952ZM165.213 289L164.829 287.776L162.789 287.776L162.405 289L161.349 289L163.173 283.608L164.477 283.608L166.301 289L165.213 289ZM171.364 283.608L169.508 287L169.508 289L168.5 289L168.5 287.032L166.66 283.608L167.836 283.608L168.196 284.392C168.404 284.845 168.574 285.227 168.708 285.536C168.841 285.84 168.921 286.029 168.948 286.104L168.996 286.224C169.044 286.027 169.318 285.416 169.82 284.392L170.188 283.608L171.364 283.608ZM173.436 286.952L174.956 286.952L174.884 286.712C174.702 286.136 174.553 285.653 174.436 285.264C174.324 284.869 174.254 284.621 174.228 284.52L174.196 284.36C174.148 284.627 173.918 285.413 173.508 286.72L173.436 286.952ZM175.596 289L175.212 287.776L173.172 287.776L172.788 289L171.732 289L173.556 283.608L174.86 283.608L176.684 289L175.596 289ZM178.466 284.44L178.466 286.2L179.138 286.2C179.448 286.2 179.68 286.123 179.834 285.968C179.989 285.808 180.066 285.587 180.066 285.304C180.066 285.027 179.984 284.813 179.818 284.664C179.658 284.515 179.426 284.44 179.122 284.44L178.466 284.44ZM180.242 289L179.018 287.032L178.466 287.032L178.466 289L177.458 289L177.458 283.608L179.122 283.608C179.736 283.608 180.216 283.763 180.562 284.072C180.914 284.381 181.09 284.795 181.09 285.312C181.085 285.696 180.992 286.021 180.81 286.288C180.629 286.549 180.381 286.744 180.066 286.872L181.45 289L180.242 289Z" fill="white"/>
<path d="M9 341.5H329C333.694 341.5 337.5 345.306 337.5 350C337.5 354.694 333.694 358.5 329 358.5H9C4.30558 358.5 0.5 354.694 0.5 350C0.500002 345.306 4.30558 341.5 9 341.5Z" fill="white"/>
<path d="M9 341.5H329C333.694 341.5 337.5 345.306 337.5 350C337.5 354.694 333.694 358.5 329 358.5H9C4.30558 358.5 0.5 354.694 0.5 350C0.500002 345.306 4.30558 341.5 9 341.5Z" stroke="#CCCCCC"/>
<path d="M7.86805e-07 350C3.52265e-07 345.029 4.02944 341 9 341L39 341C43.9706 341 48 345.029 48 350C48 354.971 43.9706 359 39 359L9 359C4.02944 359 1.22135e-06 354.971 7.86805e-07 350Z" fill="#FF1934"/>
<path d="M15.448 346.688H16.264L16.816 348.6L17.456 350.92C17.5893 350.179 17.7547 349.403 17.952 348.592L18.44 346.608H19.464L18.088 352H16.92L16.432 350.296C16.2987 349.843 16.184 349.443 16.088 349.096C15.9973 348.749 15.936 348.517 15.904 348.4L15.864 348.216C15.7893 348.589 15.6027 349.283 15.304 350.296L14.8 352H13.64L12.2 346.608H13.264L13.768 348.6C13.8533 348.957 13.9387 349.328 14.024 349.712C14.1093 350.096 14.1733 350.389 14.216 350.592L14.28 350.904C14.4507 350.232 14.6587 349.464 14.904 348.6L15.448 346.688ZM22.2561 350.256H21.7601C21.5094 350.256 21.3174 350.309 21.1841 350.416C21.0507 350.517 20.9841 350.648 20.9841 350.808C20.9841 351.149 21.1814 351.32 21.5761 351.32C21.7894 351.32 21.9547 351.259 22.0721 351.136C22.1947 351.008 22.2561 350.843 22.2561 350.64V350.256ZM20.2881 349.04V348.152C20.5921 347.965 21.0294 347.872 21.6001 347.872C22.6987 347.872 23.2481 348.384 23.2481 349.408V352H22.2961V351.512C22.1094 351.859 21.7574 352.032 21.2401 352.032C20.8561 352.032 20.5494 351.92 20.3201 351.696C20.0961 351.472 19.9841 351.189 19.9841 350.848C19.9841 350.464 20.1281 350.163 20.4161 349.944C20.7041 349.725 21.1201 349.616 21.6641 349.616H22.2561V349.368C22.2561 349.144 22.1974 348.973 22.0801 348.856C21.9627 348.739 21.7627 348.68 21.4801 348.68C21.0481 348.68 20.6507 348.8 20.2881 349.04ZM27.7828 352H26.6548L25.1988 349.904V352H24.2388V346.44H25.1988V349.848L26.6308 347.944H27.7508L26.2628 349.88L27.7828 352ZM29.5864 348.664V350.728C29.5864 350.899 29.6318 351.029 29.7224 351.12C29.8131 351.205 29.9384 351.248 30.0984 351.248C30.3011 351.248 30.4878 351.192 30.6584 351.08V351.904C30.4718 351.995 30.2318 352.04 29.9384 352.04C29.0638 352.04 28.6264 351.597 28.6264 350.712V348.664H28.0184V347.944H28.6264V346.968H29.5864V347.944H30.5944V348.664H29.5864ZM33.9617 347.944H34.9297V352H33.9617V351.336C33.7484 351.805 33.3324 352.04 32.7137 352.04C32.303 352.04 31.983 351.923 31.7537 351.688C31.5244 351.453 31.4097 351.12 31.4097 350.688V347.944H32.3697V350.464C32.3697 350.72 32.431 350.915 32.5537 351.048C32.6817 351.181 32.855 351.248 33.0737 351.248C33.351 351.248 33.567 351.155 33.7217 350.968C33.8817 350.781 33.9617 350.499 33.9617 350.12V347.944Z" fill="white"/>
<rect x="56" y="348" width="274" height="4" rx="2" fill="#CCCCCC"/>
<mask id="mask0_1124_4113" style="mask-type:alpha" maskUnits="userSpaceOnUse" x="56" y="348" width="274" height="4">
<rect x="56" y="348" width="274" height="4" rx="2" fill="#CCCCCC"/>
</mask>
<g mask="url(#mask0_1124_4113)">
<rect x="56" y="348" width="274" height="4" rx="2" fill="#FF1934"/>
</g>
<defs>
<filter id="filter0_d_1124_4113" x="5" y="48" width="328" height="56" filterUnits="userSpaceOnUse" color-interpolation-filters="sRGB">
<feFlood flood-opacity="0" result="BackgroundImageFix"/>
<feColorMatrix in="SourceAlpha" type="matrix" values="0 0 0 0 0 0 0 0 0 0 0 0 0 0 0 0 0 0 127 0" result="hardAlpha"/>
<feOffset dy="2"/>
<feGaussianBlur stdDeviation="2"/>
<feComposite in2="hardAlpha" operator="out"/>
<feColorMatrix type="matrix" values="0 0 0 0 0.168627 0 0 0 0 0.168627 0 0 0 0 0.168627 0 0 0 0.24 0"/>
<feBlend mode="normal" in2="BackgroundImageFix" result="effect1_dropShadow_1124_4113"/>
<feBlend mode="normal" in="SourceGraphic" in2="effect1_dropShadow_1124_4113" result="shape"/>
</filter>
<clipPath id="clip0_1124_4113">
<rect width="24" height="24" fill="white" transform="translate(25 66)"/>
</clipPath>
<clipPath id="clip1_1124_4113">
<rect width="10" height="10" fill="white" transform="translate(178 110)"/>
</clipPath>
<clipPath id="clip2_1124_4113">
<rect width="64" height="64" fill="white" transform="translate(137 150.5)"/>
</clipPath>
</defs>
</svg>
