<svg width="314" height="246" viewBox="0 0 314 246" fill="none" xmlns="http://www.w3.org/2000/svg">
<rect width="314" height="246" fill="#D3D3D3"/>
<rect width="314" height="246" rx="16" fill="white"/>
<g filter="url(#filter0_d_1124_4113)">
<path d="M0 16C0 7.16344 7.16344 0 16 0H298C306.837 0 314 7.16344 314 16V48H0V16Z" fill="#FF1934" shape-rendering="crispEdges"/>
<g clip-path="url(#clip0_1124_4113)">
<path d="M37.49 25.5599L35.92 20.6199C35.55 19.4499 34.48 18.6699 33.25 18.6699H22.74C21.51 18.6699 20.44 19.4599 20.07 20.6299L18.51 25.5399C18.21 26.4799 18.59 27.4399 19.44 27.9399C19.81 28.1499 20.21 28.2299 20.6 28.2099V34.2099C20.6 35.7499 21.86 37.0099 23.4 37.0099H25.17C26.29 37.0099 27.2 36.0999 27.2 34.9799V33.7499C27.2 33.5099 27.39 33.3199 27.63 33.3199H28.36C28.6 33.3199 28.79 33.5099 28.79 33.7499V34.9799C28.79 36.0999 29.7 37.0099 30.82 37.0099H32.59C34.13 37.0099 35.39 35.7499 35.39 34.2099V28.2299C35.78 28.2599 36.18 28.1699 36.55 27.9599C37.4 27.4699 37.78 26.5099 37.48 25.5699L37.49 25.5599ZM32.6 35.3999H30.83C30.59 35.3999 30.4 35.2099 30.4 34.9699V33.7399C30.4 32.6199 29.49 31.7099 28.37 31.7099H27.64C26.52 31.7099 25.61 32.6199 25.61 33.7399V34.9699C25.61 35.2099 25.42 35.3999 25.18 35.3999H23.41C22.75 35.3999 22.21 34.8599 22.21 34.1999V27.3599C22.36 27.2599 22.52 27.1899 22.71 27.1899H22.72C22.99 27.1899 23.24 27.2999 23.46 27.5299C24.44 28.5799 26.29 28.5799 27.27 27.5299C27.66 27.1199 28.36 27.1199 28.75 27.5299C29.24 28.0499 29.94 28.3499 30.65 28.3499C31.36 28.3499 32.06 28.0499 32.56 27.5199C32.87 27.1899 33.41 27.1499 33.82 27.3799V34.1899C33.82 34.8499 33.28 35.3899 32.62 35.3899L32.6 35.3999ZM35.76 26.5599C35.67 26.6099 35.43 26.7099 35.18 26.4399C35.18 26.4399 35.17 26.4399 35.16 26.4299C35.16 26.4299 35.15 26.4299 35.14 26.4199C34.16 25.4099 32.32 25.4199 31.36 26.4499C30.97 26.8599 30.27 26.8599 29.88 26.4499C29.39 25.9299 28.69 25.6299 27.98 25.6299C27.27 25.6299 26.57 25.9299 26.08 26.4499C25.69 26.8599 25.02 26.8999 24.57 26.4199C24.09 25.8999 23.4 25.6099 22.7 25.6099H22.67C21.95 25.6099 21.26 25.9299 20.79 26.4699C20.57 26.7099 20.33 26.6099 20.23 26.5599C20.14 26.5099 19.93 26.3499 20.03 26.0299L21.59 21.1199C21.75 20.6199 22.21 20.2799 22.73 20.2799H33.25C33.78 20.2799 34.24 20.6199 34.39 21.1199L35.96 26.0599C36.06 26.3699 35.85 26.5199 35.76 26.5799V26.5599Z" fill="white"/>
</g>
<path d="M51.066 27.24H51.78C52.9187 27.24 53.488 26.722 53.488 25.686C53.488 24.7527 52.9607 24.286 51.906 24.286H51.066V27.24ZM48.91 22.564H52.158C53.2033 22.564 54.048 22.858 54.692 23.446C55.3453 24.034 55.672 24.7807 55.672 25.686C55.672 26.722 55.3313 27.5247 54.65 28.094C53.978 28.6633 53.1473 28.948 52.158 28.948H51.066V32H48.91V22.564ZM58.7587 24.902V26.218C58.8893 25.8073 59.104 25.4807 59.4027 25.238C59.7107 24.986 60.0653 24.86 60.4667 24.86C60.6907 24.86 60.868 24.8787 60.9987 24.916V26.848C60.7747 26.7453 60.518 26.694 60.2287 26.694C59.79 26.694 59.4353 26.8573 59.1647 27.184C58.894 27.5013 58.7587 27.926 58.7587 28.458V32H56.7147L56.7287 24.902H58.7587ZM65.0463 32.112C63.9356 32.112 63.077 31.7807 62.4703 31.118C61.8636 30.446 61.5603 29.5873 61.5603 28.542C61.5603 27.45 61.8776 26.554 62.5123 25.854C63.147 25.1447 63.9916 24.79 65.0463 24.79C66.1476 24.79 67.0016 25.1307 67.6083 25.812C68.215 26.4933 68.5183 27.3613 68.5183 28.416C68.5183 29.4893 68.2103 30.376 67.5943 31.076C66.9876 31.7667 66.1383 32.112 65.0463 32.112ZM65.0323 26.4C64.5843 26.4 64.2483 26.5913 64.0243 26.974C63.8003 27.3567 63.6883 27.8513 63.6883 28.458C63.6883 29.0647 63.8003 29.564 64.0243 29.956C64.2576 30.3387 64.603 30.53 65.0603 30.53C65.5083 30.53 65.8396 30.3433 66.0543 29.97C66.2783 29.5873 66.3903 29.0927 66.3903 28.486C66.3903 27.0953 65.9376 26.4 65.0323 26.4ZM73.4937 30.376C73.9417 30.376 74.3057 30.208 74.5857 29.872C74.8657 29.5267 75.0057 29.06 75.0057 28.472C75.0057 27.828 74.861 27.3427 74.5717 27.016C74.2917 26.68 73.9323 26.512 73.4937 26.512C73.0643 26.512 72.691 26.6753 72.3737 27.002C72.0563 27.3287 71.8977 27.786 71.8977 28.374C71.8977 28.9807 72.047 29.466 72.3457 29.83C72.6443 30.194 73.027 30.376 73.4937 30.376ZM71.8977 24.902V25.994C72.3923 25.21 73.1063 24.818 74.0397 24.818C74.9543 24.818 75.687 25.1447 76.2377 25.798C76.7977 26.442 77.0777 27.3193 77.0777 28.43C77.0777 29.4847 76.807 30.3573 76.2657 31.048C75.7337 31.7387 74.9917 32.084 74.0397 32.084C73.0783 32.084 72.3643 31.706 71.8977 30.95V34.618H69.8537V24.902H71.8977ZM82.5143 27.8V27.632C82.4489 26.8013 82.0849 26.386 81.4223 26.386C81.0956 26.386 80.8063 26.5073 80.5543 26.75C80.3023 26.9833 80.1343 27.3333 80.0503 27.8H82.5143ZM83.9843 29.886V31.594C83.4989 31.9113 82.7569 32.07 81.7583 32.07C80.5916 32.07 79.6816 31.734 79.0283 31.062C78.3843 30.3807 78.0623 29.508 78.0623 28.444C78.0623 27.3147 78.3749 26.4327 79.0003 25.798C79.6349 25.154 80.4143 24.832 81.3383 24.832C82.2903 24.832 83.0416 25.112 83.5923 25.672C84.1429 26.2227 84.4183 27.0487 84.4183 28.15C84.4183 28.3647 84.3809 28.7333 84.3063 29.256H80.1343C80.2743 29.648 80.5169 29.9513 80.8623 30.166C81.2076 30.3807 81.6229 30.488 82.1083 30.488C82.8269 30.488 83.4523 30.2873 83.9843 29.886ZM87.9071 24.902V26.218C88.0378 25.8073 88.2524 25.4807 88.5511 25.238C88.8591 24.986 89.2138 24.86 89.6151 24.86C89.8391 24.86 90.0164 24.8787 90.1471 24.916V26.848C89.9231 26.7453 89.6664 26.694 89.3771 26.694C88.9384 26.694 88.5838 26.8573 88.3131 27.184C88.0424 27.5013 87.9071 27.926 87.9071 28.458V32H85.8631L85.8771 24.902H87.9071ZM93.4248 26.4V29.662C93.4248 29.914 93.4948 30.1053 93.6348 30.236C93.7841 30.3667 93.9754 30.432 94.2088 30.432C94.5821 30.432 94.9134 30.3387 95.2028 30.152V31.846C94.8574 31.9953 94.3908 32.07 93.8028 32.07C92.1881 32.07 91.3808 31.2627 91.3808 29.648V26.4H90.3588V24.902H91.3808V23.222H93.4248V24.902H95.0768V26.4H93.4248ZM96.5291 32V24.902H98.5731V32H96.5291ZM96.7111 23.684C96.4778 23.4507 96.3611 23.1707 96.3611 22.844C96.3611 22.5173 96.4778 22.2373 96.7111 22.004C96.9445 21.7707 97.2245 21.654 97.5511 21.654C97.8778 21.654 98.1578 21.7707 98.3911 22.004C98.6245 22.2373 98.7411 22.5173 98.7411 22.844C98.7411 23.1707 98.6245 23.4507 98.3911 23.684C98.1578 23.9173 97.8778 24.034 97.5511 24.034C97.2245 24.034 96.9445 23.9173 96.7111 23.684Z" fill="white"/>
</g>
<g clip-path="url(#clip1_1124_4113)">
<path d="M157 126.07C146.272 126.07 137.544 124.347 137.544 122.23C137.544 120.113 146.272 118.39 157 118.39C167.728 118.39 176.456 120.113 176.456 122.23C176.456 124.347 167.728 126.07 157 126.07Z" fill="#CCCCCC"/>
<path d="M150.331 111.067C148.639 111.067 146.947 110.449 145.598 109.213L136.178 100.58C134.684 99.2121 134.582 96.8901 135.952 95.3964C137.32 93.9007 139.642 93.8021 141.136 95.1705L150.556 103.803L172.865 82.9465C174.361 81.5807 176.682 81.6793 178.049 83.1724C179.419 84.6661 179.316 86.9881 177.823 88.3564L155.063 109.213C153.714 110.449 152.022 111.067 150.331 111.067H150.331Z" fill="#008C1E"/>
<path d="M153.756 123.014C152.933 123.014 152.11 122.954 151.454 122.833L146.871 121.991C146.145 121.857 146.095 121.63 146.761 121.485C147.427 121.339 148.556 121.329 149.283 121.463L153.865 122.305L164.716 120.269C165.444 120.136 166.573 120.146 167.238 120.291C167.904 120.437 167.854 120.663 167.128 120.797L156.057 122.833C155.401 122.953 154.578 123.014 153.756 123.014Z" fill="#F1F1F1"/>
</g>
<path d="M58.7521 144.54H61.1421L61.0121 144.15L59.9621 140.91C59.8821 141.197 59.5221 142.28 58.8821 144.16L58.7521 144.54ZM61.9621 147L61.3721 145.23H58.5221L57.9221 147H57.0521L59.4021 140.26H60.5221L62.8321 147H61.9621ZM64.6965 141.93V142.81C64.9965 142.177 65.5299 141.86 66.2965 141.86C66.7899 141.86 67.1832 142.01 67.4765 142.31C67.7699 142.61 67.9165 143.01 67.9165 143.51V147H67.1265V143.72C67.1265 143.347 67.0299 143.063 66.8365 142.87C66.6499 142.67 66.4032 142.57 66.0965 142.57C65.7165 142.57 65.3865 142.717 65.1065 143.01C64.8332 143.303 64.6965 143.71 64.6965 144.23V147H63.9165V141.93H64.6965ZM71.2469 146.36C71.6602 146.36 72.0102 146.207 72.2969 145.9C72.5902 145.593 72.7369 145.103 72.7369 144.43C72.7369 143.79 72.5869 143.32 72.2869 143.02C71.9869 142.72 71.6569 142.57 71.2969 142.57C70.8769 142.57 70.5269 142.74 70.2469 143.08C69.9736 143.413 69.8369 143.893 69.8369 144.52C69.8369 145.067 69.9702 145.51 70.2369 145.85C70.5036 146.19 70.8402 146.36 71.2469 146.36ZM72.7369 139.93H73.5269V147H72.7369V146.25C72.3769 146.803 71.8569 147.08 71.1769 147.08C70.5036 147.08 69.9736 146.83 69.5869 146.33C69.2069 145.83 69.0169 145.223 69.0169 144.51C69.0169 143.717 69.2202 143.077 69.6269 142.59C70.0336 142.097 70.5569 141.85 71.1969 141.85C71.8569 141.85 72.3702 142.133 72.7369 142.7V139.93ZM77.7207 144.66H76.8407C76.4141 144.66 76.0941 144.743 75.8807 144.91C75.6674 145.077 75.5607 145.287 75.5607 145.54C75.5607 145.793 75.6441 146 75.8107 146.16C75.9774 146.313 76.2207 146.39 76.5407 146.39C76.9007 146.39 77.1874 146.29 77.4007 146.09C77.6141 145.883 77.7207 145.623 77.7207 145.31V144.66ZM75.1007 142.99V142.2C75.4807 141.967 75.9807 141.85 76.6007 141.85C77.8741 141.85 78.5107 142.497 78.5107 143.79V147H77.7307V146.4C77.4707 146.833 76.9974 147.05 76.3107 147.05C75.8374 147.05 75.4541 146.91 75.1607 146.63C74.8741 146.35 74.7307 145.997 74.7307 145.57C74.7307 145.083 74.9141 144.707 75.2807 144.44C75.6541 144.167 76.1607 144.03 76.8007 144.03H77.7207V143.77C77.7207 143.37 77.6307 143.07 77.4507 142.87C77.2707 142.663 76.9674 142.56 76.5407 142.56C76.0007 142.56 75.5207 142.703 75.1007 142.99ZM84.664 146.36C85.0707 146.36 85.4074 146.19 85.674 145.85C85.9407 145.51 86.074 145.067 86.074 144.52C86.074 143.893 85.934 143.413 85.654 143.08C85.3807 142.74 85.034 142.57 84.614 142.57C84.254 142.57 83.924 142.72 83.624 143.02C83.324 143.32 83.174 143.79 83.174 144.43C83.174 145.103 83.3174 145.593 83.604 145.9C83.8974 146.207 84.2507 146.36 84.664 146.36ZM83.174 139.93V142.69C83.5407 142.13 84.054 141.85 84.714 141.85C85.354 141.85 85.8774 142.097 86.284 142.59C86.6907 143.077 86.894 143.717 86.894 144.51C86.894 145.223 86.7007 145.83 86.314 146.33C85.934 146.83 85.4074 147.08 84.734 147.08C84.054 147.08 83.534 146.803 83.174 146.25V147H82.384V139.93H83.174ZM91.2871 144.14V143.94C91.2871 143.52 91.1738 143.187 90.9471 142.94C90.7205 142.687 90.4071 142.56 90.0071 142.56C89.6271 142.56 89.3038 142.697 89.0371 142.97C88.7705 143.243 88.6138 143.633 88.5671 144.14H91.2871ZM91.7571 146V146.74C91.3638 146.947 90.8838 147.05 90.3171 147.05C89.5505 147.05 88.9305 146.817 88.4571 146.35C87.9905 145.877 87.7571 145.253 87.7571 144.48C87.7571 143.673 87.9671 143.037 88.3871 142.57C88.8071 142.103 89.3471 141.87 90.0071 141.87C90.6405 141.87 91.1438 142.073 91.5171 142.48C91.8905 142.887 92.0771 143.463 92.0771 144.21C92.0771 144.423 92.0605 144.62 92.0271 144.8H88.5671C88.6271 145.3 88.8171 145.683 89.1371 145.95C89.4571 146.217 89.8771 146.35 90.3971 146.35C90.9638 146.35 91.4171 146.233 91.7571 146ZM94.0618 141.93V142.82C94.3284 142.193 94.7884 141.88 95.4418 141.88C95.5618 141.88 95.6551 141.887 95.7218 141.9V142.68C95.5818 142.633 95.4384 142.61 95.2918 142.61C94.9384 142.61 94.6451 142.773 94.4118 143.1C94.1784 143.427 94.0618 143.803 94.0618 144.23V147H93.2718L93.2818 141.93H94.0618ZM97.3235 139.93V142.81C97.6235 142.177 98.1568 141.86 98.9235 141.86C99.4101 141.86 99.8001 142.01 100.093 142.31C100.393 142.61 100.543 143.017 100.543 143.53V147H99.7535V143.72C99.7535 143.353 99.6568 143.07 99.4635 142.87C99.2768 142.67 99.0301 142.57 98.7235 142.57C98.3501 142.57 98.0235 142.713 97.7435 143C97.4635 143.287 97.3235 143.697 97.3235 144.23V147H96.5435V139.93H97.3235ZM104.674 144.66H103.794C103.367 144.66 103.047 144.743 102.834 144.91C102.621 145.077 102.514 145.287 102.514 145.54C102.514 145.793 102.597 146 102.764 146.16C102.931 146.313 103.174 146.39 103.494 146.39C103.854 146.39 104.141 146.29 104.354 146.09C104.567 145.883 104.674 145.623 104.674 145.31V144.66ZM102.054 142.99V142.2C102.434 141.967 102.934 141.85 103.554 141.85C104.827 141.85 105.464 142.497 105.464 143.79V147H104.684V146.4C104.424 146.833 103.951 147.05 103.264 147.05C102.791 147.05 102.407 146.91 102.114 146.63C101.827 146.35 101.684 145.997 101.684 145.57C101.684 145.083 101.867 144.707 102.234 144.44C102.607 144.167 103.114 144.03 103.754 144.03H104.674V143.77C104.674 143.37 104.584 143.07 104.404 142.87C104.224 142.663 103.921 142.56 103.494 142.56C102.954 142.56 102.474 142.703 102.054 142.99ZM109.626 142.1V142.85C109.319 142.663 108.899 142.57 108.366 142.57C108.099 142.57 107.886 142.633 107.726 142.76C107.572 142.88 107.496 143.037 107.496 143.23C107.496 143.35 107.519 143.457 107.566 143.55C107.612 143.637 107.702 143.723 107.836 143.81C107.976 143.897 108.076 143.957 108.136 143.99C108.202 144.017 108.342 144.077 108.556 144.17C108.982 144.343 109.316 144.54 109.556 144.76C109.796 144.98 109.916 145.277 109.916 145.65C109.916 146.083 109.762 146.427 109.456 146.68C109.156 146.933 108.742 147.06 108.216 147.06C107.602 147.06 107.106 146.957 106.726 146.75V145.98C107.172 146.247 107.652 146.38 108.166 146.38C108.472 146.38 108.706 146.32 108.866 146.2C109.026 146.08 109.106 145.917 109.106 145.71C109.106 145.47 109.016 145.283 108.836 145.15C108.662 145.017 108.369 144.867 107.956 144.7C107.576 144.553 107.269 144.37 107.036 144.15C106.809 143.93 106.696 143.633 106.696 143.26C106.696 142.84 106.852 142.507 107.166 142.26C107.486 142.007 107.882 141.88 108.356 141.88C108.882 141.88 109.306 141.953 109.626 142.1ZM111.027 147V141.93H111.817V147H111.027ZM111.047 140.71C110.954 140.61 110.907 140.487 110.907 140.34C110.907 140.193 110.954 140.07 111.047 139.97C111.147 139.87 111.27 139.82 111.417 139.82C111.564 139.82 111.687 139.87 111.787 139.97C111.887 140.07 111.937 140.193 111.937 140.34C111.937 140.487 111.887 140.61 111.787 140.71C111.687 140.803 111.564 140.85 111.417 140.85C111.27 140.85 111.147 140.803 111.047 140.71ZM113.361 147V139.93H114.151V147H113.361ZM118.876 141.93V142.75C119.156 142.157 119.633 141.86 120.306 141.86C121.086 141.86 121.58 142.19 121.786 142.85C121.933 142.53 122.136 142.287 122.396 142.12C122.663 141.947 122.96 141.86 123.286 141.86C123.813 141.86 124.21 142.01 124.476 142.31C124.743 142.61 124.876 143.013 124.876 143.52V147H124.086V143.72C124.086 142.953 123.763 142.57 123.116 142.57C122.796 142.57 122.51 142.717 122.256 143.01C122.003 143.297 121.876 143.703 121.876 144.23V147H121.086V143.72C121.086 142.953 120.763 142.57 120.116 142.57C119.796 142.57 119.51 142.717 119.256 143.01C119.003 143.297 118.876 143.703 118.876 144.23V147H118.096V141.93H118.876ZM129.51 144.14V143.94C129.51 143.52 129.396 143.187 129.17 142.94C128.943 142.687 128.63 142.56 128.23 142.56C127.85 142.56 127.526 142.697 127.26 142.97C126.993 143.243 126.836 143.633 126.79 144.14H129.51ZM129.98 146V146.74C129.586 146.947 129.106 147.05 128.54 147.05C127.773 147.05 127.153 146.817 126.68 146.35C126.213 145.877 125.98 145.253 125.98 144.48C125.98 143.673 126.19 143.037 126.61 142.57C127.03 142.103 127.57 141.87 128.23 141.87C128.863 141.87 129.366 142.073 129.74 142.48C130.113 142.887 130.3 143.463 130.3 144.21C130.3 144.423 130.283 144.62 130.25 144.8H126.79C126.85 145.3 127.04 145.683 127.36 145.95C127.68 146.217 128.1 146.35 128.62 146.35C129.186 146.35 129.64 146.233 129.98 146ZM132.284 141.93V142.81C132.584 142.177 133.118 141.86 133.884 141.86C134.378 141.86 134.771 142.01 135.064 142.31C135.358 142.61 135.504 143.01 135.504 143.51V147H134.714V143.72C134.714 143.347 134.618 143.063 134.424 142.87C134.238 142.67 133.991 142.57 133.684 142.57C133.304 142.57 132.974 142.717 132.694 143.01C132.421 143.303 132.284 143.71 132.284 144.23V147H131.504V141.93H132.284ZM135.715 148.8V148.1C135.968 148.207 136.195 148.26 136.395 148.26C136.768 148.26 136.955 148.017 136.955 147.53V141.93H137.735V147.55C137.735 147.99 137.618 148.333 137.385 148.58C137.158 148.827 136.841 148.95 136.435 148.95C136.215 148.95 135.975 148.9 135.715 148.8ZM136.965 140.71C136.871 140.61 136.825 140.487 136.825 140.34C136.825 140.193 136.871 140.07 136.965 139.97C137.065 139.87 137.188 139.82 137.335 139.82C137.481 139.82 137.605 139.87 137.705 139.97C137.805 140.07 137.855 140.193 137.855 140.34C137.855 140.487 137.805 140.61 137.705 140.71C137.605 140.803 137.481 140.85 137.335 140.85C137.188 140.85 137.065 140.803 136.965 140.71ZM142.33 141.93H143.12V147H142.33V146.12C142.064 146.747 141.534 147.06 140.74 147.06C140.24 147.06 139.844 146.913 139.55 146.62C139.264 146.32 139.12 145.92 139.12 145.42V141.93H139.91V145.22C139.91 145.587 140.004 145.867 140.19 146.06C140.377 146.253 140.63 146.35 140.95 146.35C141.37 146.35 141.704 146.203 141.95 145.91C142.204 145.617 142.33 145.22 142.33 144.72V141.93ZM147.311 144.66H146.431C146.004 144.66 145.684 144.743 145.471 144.91C145.257 145.077 145.151 145.287 145.151 145.54C145.151 145.793 145.234 146 145.401 146.16C145.567 146.313 145.811 146.39 146.131 146.39C146.491 146.39 146.777 146.29 146.991 146.09C147.204 145.883 147.311 145.623 147.311 145.31V144.66ZM144.691 142.99V142.2C145.071 141.967 145.571 141.85 146.191 141.85C147.464 141.85 148.101 142.497 148.101 143.79V147H147.321V146.4C147.061 146.833 146.587 147.05 145.901 147.05C145.427 147.05 145.044 146.91 144.751 146.63C144.464 146.35 144.321 145.997 144.321 145.57C144.321 145.083 144.504 144.707 144.871 144.44C145.244 144.167 145.751 144.03 146.391 144.03H147.311V143.77C147.311 143.37 147.221 143.07 147.041 142.87C146.861 142.663 146.557 142.56 146.131 142.56C145.591 142.56 145.111 142.703 144.691 142.99ZM149.542 147V139.93H150.332V147H149.542ZM153.728 142.25V141.4L155.278 140.46H156.018V147H155.238V141.32L153.728 142.25ZM162.182 146.36C162.608 146.36 162.958 146.193 163.232 145.86C163.505 145.52 163.642 145.04 163.642 144.42C163.642 143.867 163.508 143.42 163.242 143.08C162.975 142.74 162.638 142.57 162.232 142.57C161.825 142.57 161.472 142.72 161.172 143.02C160.878 143.313 160.732 143.797 160.732 144.47C160.732 145.117 160.882 145.593 161.182 145.9C161.482 146.207 161.815 146.36 162.182 146.36ZM160.732 141.93V142.7C161.085 142.133 161.608 141.85 162.302 141.85C162.975 141.85 163.502 142.097 163.882 142.59C164.268 143.077 164.462 143.687 164.462 144.42C164.462 145.2 164.258 145.84 163.852 146.34C163.452 146.833 162.928 147.08 162.282 147.08C161.615 147.08 161.098 146.797 160.732 146.23V148.97H159.952V141.93H160.732ZM166.406 141.93V142.82C166.672 142.193 167.132 141.88 167.786 141.88C167.906 141.88 167.999 141.887 168.066 141.9V142.68C167.926 142.633 167.782 142.61 167.636 142.61C167.282 142.61 166.989 142.773 166.756 143.1C166.522 143.427 166.406 143.803 166.406 144.23V147H165.616L165.626 141.93H166.406ZM170.947 147.09C170.221 147.09 169.644 146.847 169.217 146.36C168.797 145.867 168.587 145.247 168.587 144.5C168.587 143.747 168.804 143.12 169.237 142.62C169.677 142.113 170.247 141.86 170.947 141.86C171.714 141.86 172.304 142.107 172.717 142.6C173.137 143.093 173.347 143.72 173.347 144.48C173.347 145.233 173.134 145.857 172.707 146.35C172.281 146.843 171.694 147.09 170.947 147.09ZM170.947 142.56C170.467 142.56 170.091 142.747 169.817 143.12C169.544 143.493 169.407 143.95 169.407 144.49C169.407 145.017 169.547 145.467 169.827 145.84C170.107 146.207 170.481 146.39 170.947 146.39C171.454 146.39 171.844 146.21 172.117 145.85C172.391 145.483 172.527 145.03 172.527 144.49C172.527 143.93 172.397 143.47 172.137 143.11C171.877 142.743 171.481 142.56 170.947 142.56ZM176.732 146.36C177.159 146.36 177.509 146.193 177.782 145.86C178.056 145.52 178.192 145.04 178.192 144.42C178.192 143.867 178.059 143.42 177.792 143.08C177.526 142.74 177.189 142.57 176.782 142.57C176.376 142.57 176.022 142.72 175.722 143.02C175.429 143.313 175.282 143.797 175.282 144.47C175.282 145.117 175.432 145.593 175.732 145.9C176.032 146.207 176.366 146.36 176.732 146.36ZM175.282 141.93V142.7C175.636 142.133 176.159 141.85 176.852 141.85C177.526 141.85 178.052 142.097 178.432 142.59C178.819 143.077 179.012 143.687 179.012 144.42C179.012 145.2 178.809 145.84 178.402 146.34C178.002 146.833 177.479 147.08 176.832 147.08C176.166 147.08 175.649 146.797 175.282 146.23V148.97H174.502V141.93H175.282ZM183.406 144.14V143.94C183.406 143.52 183.293 143.187 183.066 142.94C182.84 142.687 182.526 142.56 182.126 142.56C181.746 142.56 181.423 142.697 181.156 142.97C180.89 143.243 180.733 143.633 180.686 144.14H183.406ZM183.876 146V146.74C183.483 146.947 183.003 147.05 182.436 147.05C181.67 147.05 181.05 146.817 180.576 146.35C180.11 145.877 179.876 145.253 179.876 144.48C179.876 143.673 180.086 143.037 180.506 142.57C180.926 142.103 181.466 141.87 182.126 141.87C182.76 141.87 183.263 142.073 183.636 142.48C184.01 142.887 184.196 143.463 184.196 144.21C184.196 144.423 184.18 144.62 184.146 144.8H180.686C180.746 145.3 180.936 145.683 181.256 145.95C181.576 146.217 181.996 146.35 182.516 146.35C183.083 146.35 183.536 146.233 183.876 146ZM186.181 141.93V142.82C186.448 142.193 186.908 141.88 187.561 141.88C187.681 141.88 187.774 141.887 187.841 141.9V142.68C187.701 142.633 187.558 142.61 187.411 142.61C187.058 142.61 186.764 142.773 186.531 143.1C186.298 143.427 186.181 143.803 186.181 144.23V147H185.391L185.401 141.93H186.181ZM189.753 142.57V145.54C189.753 146.08 190.006 146.35 190.513 146.35C190.773 146.35 191.003 146.273 191.203 146.12V146.87C190.983 146.99 190.736 147.05 190.463 147.05C189.463 147.05 188.963 146.54 188.963 145.52V142.57H188.153V141.93H188.963V140.67H189.753V141.93H191.153V142.57H189.753ZM192.394 147V141.93H193.184V147H192.394ZM192.414 140.71C192.321 140.61 192.274 140.487 192.274 140.34C192.274 140.193 192.321 140.07 192.414 139.97C192.514 139.87 192.637 139.82 192.784 139.82C192.931 139.82 193.054 139.87 193.154 139.97C193.254 140.07 193.304 140.193 193.304 140.34C193.304 140.487 193.254 140.61 193.154 140.71C193.054 140.803 192.931 140.85 192.784 140.85C192.637 140.85 192.514 140.803 192.414 140.71ZM199.059 146.36C199.473 146.36 199.823 146.207 200.109 145.9C200.403 145.593 200.549 145.103 200.549 144.43C200.549 143.79 200.399 143.32 200.099 143.02C199.799 142.72 199.469 142.57 199.109 142.57C198.689 142.57 198.339 142.74 198.059 143.08C197.786 143.413 197.649 143.893 197.649 144.52C197.649 145.067 197.783 145.51 198.049 145.85C198.316 146.19 198.653 146.36 199.059 146.36ZM200.549 139.93H201.339V147H200.549V146.25C200.189 146.803 199.669 147.08 198.989 147.08C198.316 147.08 197.786 146.83 197.399 146.33C197.019 145.83 196.829 145.223 196.829 144.51C196.829 143.717 197.033 143.077 197.439 142.59C197.846 142.097 198.369 141.85 199.009 141.85C199.669 141.85 200.183 142.133 200.549 142.7V139.93ZM206.033 144.14V143.94C206.033 143.52 205.92 143.187 205.693 142.94C205.467 142.687 205.153 142.56 204.753 142.56C204.373 142.56 204.05 142.697 203.783 142.97C203.517 143.243 203.36 143.633 203.313 144.14H206.033ZM206.503 146V146.74C206.11 146.947 205.63 147.05 205.063 147.05C204.297 147.05 203.677 146.817 203.203 146.35C202.737 145.877 202.503 145.253 202.503 144.48C202.503 143.673 202.713 143.037 203.133 142.57C203.553 142.103 204.093 141.87 204.753 141.87C205.387 141.87 205.89 142.073 206.263 142.48C206.637 142.887 206.823 143.463 206.823 144.21C206.823 144.423 206.807 144.62 206.773 144.8H203.313C203.373 145.3 203.563 145.683 203.883 145.95C204.203 146.217 204.623 146.35 205.143 146.35C205.71 146.35 206.163 146.233 206.503 146ZM208.808 141.93V142.81C209.108 142.177 209.641 141.86 210.408 141.86C210.901 141.86 211.295 142.01 211.588 142.31C211.881 142.61 212.028 143.01 212.028 143.51V147H211.238V143.72C211.238 143.347 211.141 143.063 210.948 142.87C210.761 142.67 210.515 142.57 210.208 142.57C209.828 142.57 209.498 142.717 209.218 143.01C208.945 143.303 208.808 143.71 208.808 144.23V147H208.028V141.93H208.808ZM215.328 146.17C215.695 146.17 216.018 146.03 216.298 145.75C216.585 145.463 216.728 145.04 216.728 144.48C216.728 143.833 216.592 143.353 216.318 143.04C216.045 142.727 215.728 142.57 215.368 142.57C214.935 142.57 214.592 142.743 214.338 143.09C214.085 143.43 213.958 143.877 213.958 144.43C213.958 144.997 214.098 145.43 214.378 145.73C214.658 146.023 214.975 146.17 215.328 146.17ZM216.728 141.93H217.518V146.59C217.518 147.363 217.305 147.943 216.878 148.33C216.452 148.723 215.902 148.92 215.228 148.92C214.615 148.92 214.092 148.817 213.658 148.61V147.82C214.085 148.067 214.585 148.19 215.158 148.19C215.645 148.19 216.028 148.06 216.308 147.8C216.588 147.54 216.728 147.133 216.728 146.58V146.01C216.395 146.583 215.898 146.87 215.238 146.87C214.658 146.87 214.162 146.657 213.748 146.23C213.342 145.803 213.138 145.21 213.138 144.45C213.138 143.697 213.328 143.077 213.708 142.59C214.088 142.103 214.585 141.86 215.198 141.86C215.892 141.86 216.402 142.163 216.728 142.77V141.93ZM221.647 144.66H220.767C220.34 144.66 220.02 144.743 219.807 144.91C219.593 145.077 219.487 145.287 219.487 145.54C219.487 145.793 219.57 146 219.737 146.16C219.903 146.313 220.147 146.39 220.467 146.39C220.827 146.39 221.113 146.29 221.327 146.09C221.54 145.883 221.647 145.623 221.647 145.31V144.66ZM219.027 142.99V142.2C219.407 141.967 219.907 141.85 220.527 141.85C221.8 141.85 222.437 142.497 222.437 143.79V147H221.657V146.4C221.397 146.833 220.923 147.05 220.237 147.05C219.763 147.05 219.38 146.91 219.087 146.63C218.8 146.35 218.657 145.997 218.657 145.57C218.657 145.083 218.84 144.707 219.207 144.44C219.58 144.167 220.087 144.03 220.727 144.03H221.647V143.77C221.647 143.37 221.557 143.07 221.377 142.87C221.197 142.663 220.893 142.56 220.467 142.56C219.927 142.56 219.447 142.703 219.027 142.99ZM224.618 141.93V142.81C224.918 142.177 225.452 141.86 226.218 141.86C226.712 141.86 227.105 142.01 227.398 142.31C227.692 142.61 227.838 143.01 227.838 143.51V147H227.048V143.72C227.048 143.347 226.952 143.063 226.758 142.87C226.572 142.67 226.325 142.57 226.018 142.57C225.638 142.57 225.308 142.717 225.028 143.01C224.755 143.303 224.618 143.71 224.618 144.23V147H223.838V141.93H224.618ZM232.46 139.93V142.81C232.76 142.177 233.294 141.86 234.06 141.86C234.547 141.86 234.937 142.01 235.23 142.31C235.53 142.61 235.68 143.017 235.68 143.53V147H234.89V143.72C234.89 143.353 234.794 143.07 234.6 142.87C234.414 142.67 234.167 142.57 233.86 142.57C233.487 142.57 233.16 142.713 232.88 143C232.6 143.287 232.46 143.697 232.46 144.23V147H231.68V139.93H232.46ZM239.811 144.66H238.931C238.504 144.66 238.184 144.743 237.971 144.91C237.757 145.077 237.651 145.287 237.651 145.54C237.651 145.793 237.734 146 237.901 146.16C238.067 146.313 238.311 146.39 238.631 146.39C238.991 146.39 239.277 146.29 239.491 146.09C239.704 145.883 239.811 145.623 239.811 145.31V144.66ZM237.191 142.99V142.2C237.571 141.967 238.071 141.85 238.691 141.85C239.964 141.85 240.601 142.497 240.601 143.79V147H239.821V146.4C239.561 146.833 239.087 147.05 238.401 147.05C237.927 147.05 237.544 146.91 237.251 146.63C236.964 146.35 236.821 145.997 236.821 145.57C236.821 145.083 237.004 144.707 237.371 144.44C237.744 144.167 238.251 144.03 238.891 144.03H239.811V143.77C239.811 143.37 239.721 143.07 239.541 142.87C239.361 142.663 239.057 142.56 238.631 142.56C238.091 142.56 237.611 142.703 237.191 142.99ZM242.782 141.93V142.82C243.049 142.193 243.509 141.88 244.162 141.88C244.282 141.88 244.376 141.887 244.442 141.9V142.68C244.302 142.633 244.159 142.61 244.012 142.61C243.659 142.61 243.366 142.773 243.132 143.1C242.899 143.427 242.782 143.803 242.782 144.23V147H241.992L242.002 141.93H242.782ZM247.164 146.17C247.531 146.17 247.854 146.03 248.134 145.75C248.421 145.463 248.564 145.04 248.564 144.48C248.564 143.833 248.428 143.353 248.154 143.04C247.881 142.727 247.564 142.57 247.204 142.57C246.771 142.57 246.428 142.743 246.174 143.09C245.921 143.43 245.794 143.877 245.794 144.43C245.794 144.997 245.934 145.43 246.214 145.73C246.494 146.023 246.811 146.17 247.164 146.17ZM248.564 141.93H249.354V146.59C249.354 147.363 249.141 147.943 248.714 148.33C248.288 148.723 247.738 148.92 247.064 148.92C246.451 148.92 245.928 148.817 245.494 148.61V147.82C245.921 148.067 246.421 148.19 246.994 148.19C247.481 148.19 247.864 148.06 248.144 147.8C248.424 147.54 248.564 147.133 248.564 146.58V146.01C248.231 146.583 247.734 146.87 247.074 146.87C246.494 146.87 245.998 146.657 245.584 146.23C245.178 145.803 244.974 145.21 244.974 144.45C244.974 143.697 245.164 143.077 245.544 142.59C245.924 142.103 246.421 141.86 247.034 141.86C247.728 141.86 248.238 142.163 248.564 142.77V141.93ZM253.482 144.66H252.602C252.176 144.66 251.856 144.743 251.642 144.91C251.429 145.077 251.322 145.287 251.322 145.54C251.322 145.793 251.406 146 251.572 146.16C251.739 146.313 251.982 146.39 252.302 146.39C252.662 146.39 252.949 146.29 253.162 146.09C253.376 145.883 253.482 145.623 253.482 145.31V144.66ZM250.862 142.99V142.2C251.242 141.967 251.742 141.85 252.362 141.85C253.636 141.85 254.272 142.497 254.272 143.79V147H253.492V146.4C253.232 146.833 252.759 147.05 252.072 147.05C251.599 147.05 251.216 146.91 250.922 146.63C250.636 146.35 250.492 145.997 250.492 145.57C250.492 145.083 250.676 144.707 251.042 144.44C251.416 144.167 251.922 144.03 252.562 144.03H253.482V143.77C253.482 143.37 253.392 143.07 253.212 142.87C253.032 142.663 252.729 142.56 252.302 142.56C251.762 142.56 251.282 142.703 250.862 142.99ZM255.534 143.2C255.534 143.04 255.588 142.903 255.694 142.79C255.808 142.677 255.948 142.62 256.114 142.62C256.281 142.62 256.421 142.677 256.534 142.79C256.648 142.903 256.704 143.04 256.704 143.2C256.704 143.367 256.648 143.507 256.534 143.62C256.421 143.727 256.281 143.78 256.114 143.78C255.948 143.78 255.808 143.727 255.694 143.62C255.588 143.507 255.534 143.367 255.534 143.2ZM255.694 146.85C255.588 146.737 255.534 146.597 255.534 146.43C255.534 146.263 255.588 146.123 255.694 146.01C255.808 145.897 255.948 145.84 256.114 145.84C256.281 145.84 256.421 145.897 256.534 146.01C256.648 146.123 256.704 146.263 256.704 146.43C256.704 146.597 256.648 146.737 256.534 146.85C256.421 146.957 256.281 147.01 256.114 147.01C255.948 147.01 255.808 146.957 255.694 146.85Z" fill="#2B2B2B"/>
<path d="M125.96 169.3V171.5H126.8C127.187 171.5 127.477 171.403 127.67 171.21C127.863 171.01 127.96 170.733 127.96 170.38C127.96 170.033 127.857 169.767 127.65 169.58C127.45 169.393 127.16 169.3 126.78 169.3H125.96ZM128.18 175L126.65 172.54H125.96V175H124.7V168.26H126.78C127.547 168.26 128.147 168.453 128.58 168.84C129.02 169.227 129.24 169.743 129.24 170.39C129.233 170.87 129.117 171.277 128.89 171.61C128.663 171.937 128.353 172.18 127.96 172.34L129.69 175H128.18ZM132.999 174.04C133.359 174.04 133.652 173.903 133.879 173.63C134.105 173.35 134.219 172.96 134.219 172.46C134.219 171.96 134.105 171.573 133.879 171.3C133.652 171.02 133.365 170.88 133.019 170.88C132.672 170.88 132.372 171.01 132.119 171.27C131.865 171.53 131.739 171.917 131.739 172.43C131.739 172.943 131.862 173.34 132.109 173.62C132.355 173.9 132.652 174.04 132.999 174.04ZM131.739 169.93V170.71C132.099 170.143 132.615 169.86 133.289 169.86C133.949 169.86 134.472 170.097 134.859 170.57C135.252 171.043 135.449 171.667 135.449 172.44C135.449 173.2 135.252 173.83 134.859 174.33C134.472 174.823 133.945 175.07 133.279 175.07C132.599 175.07 132.085 174.793 131.739 174.24V176.91H130.539V169.93H131.739ZM138.437 170.73V169.48L140.167 168.46H141.227V175H140.037V169.76L138.437 170.73ZM144.581 174.11C144.941 174.11 145.214 174.02 145.401 173.84C145.587 173.66 145.681 173.443 145.681 173.19C145.681 172.923 145.584 172.7 145.391 172.52C145.204 172.34 144.934 172.25 144.581 172.25C144.227 172.257 143.961 172.357 143.781 172.55C143.601 172.737 143.511 172.963 143.511 173.23C143.511 173.477 143.601 173.687 143.781 173.86C143.961 174.027 144.227 174.11 144.581 174.11ZM144.571 169.34C144.264 169.34 144.027 169.43 143.861 169.61C143.701 169.783 143.621 169.997 143.621 170.25C143.621 170.55 143.714 170.78 143.901 170.94C144.087 171.1 144.321 171.18 144.601 171.18C144.874 171.18 145.101 171.1 145.281 170.94C145.467 170.78 145.561 170.55 145.561 170.25C145.561 169.983 145.484 169.767 145.331 169.6C145.177 169.427 144.924 169.34 144.571 169.34ZM145.871 171.69C146.551 171.957 146.891 172.467 146.891 173.22C146.891 173.78 146.674 174.233 146.241 174.58C145.807 174.92 145.251 175.09 144.571 175.09C143.891 175.09 143.341 174.927 142.921 174.6C142.507 174.273 142.301 173.83 142.301 173.27C142.301 172.537 142.644 172.02 143.331 171.72C142.711 171.407 142.401 170.923 142.401 170.27C142.401 169.67 142.607 169.203 143.021 168.87C143.441 168.53 143.957 168.36 144.571 168.36C145.211 168.36 145.737 168.52 146.151 168.84C146.564 169.16 146.771 169.637 146.771 170.27C146.771 170.903 146.471 171.377 145.871 171.69ZM147.681 171.7C147.681 170.667 147.884 169.85 148.291 169.25C148.697 168.643 149.274 168.34 150.021 168.34C150.774 168.34 151.354 168.643 151.761 169.25C152.174 169.85 152.381 170.667 152.381 171.7C152.381 172.727 152.177 173.547 151.771 174.16C151.371 174.773 150.787 175.08 150.021 175.08C149.274 175.08 148.697 174.773 148.291 174.16C147.884 173.547 147.681 172.727 147.681 171.7ZM149.211 170.02C149.011 170.407 148.911 170.967 148.911 171.7C148.911 172.433 149.007 173 149.201 173.4C149.401 173.793 149.674 173.99 150.021 173.99C150.381 173.99 150.657 173.793 150.851 173.4C151.051 173.007 151.151 172.44 151.151 171.7C151.151 170.96 151.047 170.397 150.841 170.01C150.641 169.623 150.367 169.43 150.021 169.43C149.681 169.43 149.411 169.627 149.211 170.02ZM153.33 174.85C153.176 174.697 153.1 174.513 153.1 174.3C153.1 174.087 153.176 173.907 153.33 173.76C153.483 173.607 153.666 173.53 153.88 173.53C154.093 173.53 154.273 173.607 154.42 173.76C154.573 173.907 154.65 174.087 154.65 174.3C154.65 174.513 154.573 174.697 154.42 174.85C154.273 175.003 154.093 175.08 153.88 175.08C153.666 175.08 153.483 175.003 153.33 174.85ZM155.366 171.7C155.366 170.667 155.57 169.85 155.976 169.25C156.383 168.643 156.96 168.34 157.706 168.34C158.46 168.34 159.04 168.643 159.446 169.25C159.86 169.85 160.066 170.667 160.066 171.7C160.066 172.727 159.863 173.547 159.456 174.16C159.056 174.773 158.473 175.08 157.706 175.08C156.96 175.08 156.383 174.773 155.976 174.16C155.57 173.547 155.366 172.727 155.366 171.7ZM156.896 170.02C156.696 170.407 156.596 170.967 156.596 171.7C156.596 172.433 156.693 173 156.886 173.4C157.086 173.793 157.36 173.99 157.706 173.99C158.066 173.99 158.343 173.793 158.536 173.4C158.736 173.007 158.836 172.44 158.836 171.7C158.836 170.96 158.733 170.397 158.526 170.01C158.326 169.623 158.053 169.43 157.706 169.43C157.366 169.43 157.096 169.627 156.896 170.02ZM160.825 171.7C160.825 170.667 161.029 169.85 161.435 169.25C161.842 168.643 162.419 168.34 163.165 168.34C163.919 168.34 164.499 168.643 164.905 169.25C165.319 169.85 165.525 170.667 165.525 171.7C165.525 172.727 165.322 173.547 164.915 174.16C164.515 174.773 163.932 175.08 163.165 175.08C162.419 175.08 161.842 174.773 161.435 174.16C161.029 173.547 160.825 172.727 160.825 171.7ZM162.355 170.02C162.155 170.407 162.055 170.967 162.055 171.7C162.055 172.433 162.152 173 162.345 173.4C162.545 173.793 162.819 173.99 163.165 173.99C163.525 173.99 163.802 173.793 163.995 173.4C164.195 173.007 164.295 172.44 164.295 171.7C164.295 170.96 164.192 170.397 163.985 170.01C163.785 169.623 163.512 169.43 163.165 169.43C162.825 169.43 162.555 169.627 162.355 170.02ZM166.284 171.7C166.284 170.667 166.488 169.85 166.894 169.25C167.301 168.643 167.878 168.34 168.624 168.34C169.378 168.34 169.958 168.643 170.364 169.25C170.778 169.85 170.984 170.667 170.984 171.7C170.984 172.727 170.781 173.547 170.374 174.16C169.974 174.773 169.391 175.08 168.624 175.08C167.878 175.08 167.301 174.773 166.894 174.16C166.488 173.547 166.284 172.727 166.284 171.7ZM167.814 170.02C167.614 170.407 167.514 170.967 167.514 171.7C167.514 172.433 167.611 173 167.804 173.4C168.004 173.793 168.278 173.99 168.624 173.99C168.984 173.99 169.261 173.793 169.454 173.4C169.654 173.007 169.754 172.44 169.754 171.7C169.754 170.96 169.651 170.397 169.444 170.01C169.244 169.623 168.971 169.43 168.624 169.43C168.284 169.43 168.014 169.627 167.814 170.02ZM171.933 174.85C171.78 174.697 171.703 174.513 171.703 174.3C171.703 174.087 171.78 173.907 171.933 173.76C172.087 173.607 172.27 173.53 172.483 173.53C172.697 173.53 172.877 173.607 173.023 173.76C173.177 173.907 173.253 174.087 173.253 174.3C173.253 174.513 173.177 174.697 173.023 174.85C172.877 175.003 172.697 175.08 172.483 175.08C172.27 175.08 172.087 175.003 171.933 174.85ZM173.97 171.7C173.97 170.667 174.173 169.85 174.58 169.25C174.987 168.643 175.563 168.34 176.31 168.34C177.063 168.34 177.643 168.643 178.05 169.25C178.463 169.85 178.67 170.667 178.67 171.7C178.67 172.727 178.467 173.547 178.06 174.16C177.66 174.773 177.077 175.08 176.31 175.08C175.563 175.08 174.987 174.773 174.58 174.16C174.173 173.547 173.97 172.727 173.97 171.7ZM175.5 170.02C175.3 170.407 175.2 170.967 175.2 171.7C175.2 172.433 175.297 173 175.49 173.4C175.69 173.793 175.963 173.99 176.31 173.99C176.67 173.99 176.947 173.793 177.14 173.4C177.34 173.007 177.44 172.44 177.44 171.7C177.44 170.96 177.337 170.397 177.13 170.01C176.93 169.623 176.657 169.43 176.31 169.43C175.97 169.43 175.7 169.627 175.5 170.02ZM179.429 171.7C179.429 170.667 179.632 169.85 180.039 169.25C180.445 168.643 181.022 168.34 181.769 168.34C182.522 168.34 183.102 168.643 183.509 169.25C183.922 169.85 184.129 170.667 184.129 171.7C184.129 172.727 183.925 173.547 183.519 174.16C183.119 174.773 182.535 175.08 181.769 175.08C181.022 175.08 180.445 174.773 180.039 174.16C179.632 173.547 179.429 172.727 179.429 171.7ZM180.959 170.02C180.759 170.407 180.659 170.967 180.659 171.7C180.659 172.433 180.755 173 180.949 173.4C181.149 173.793 181.422 173.99 181.769 173.99C182.129 173.99 182.405 173.793 182.599 173.4C182.799 173.007 182.899 172.44 182.899 171.7C182.899 170.96 182.795 170.397 182.589 170.01C182.389 169.623 182.115 169.43 181.769 169.43C181.429 169.43 181.159 169.627 180.959 170.02ZM184.888 171.7C184.888 170.667 185.091 169.85 185.498 169.25C185.904 168.643 186.481 168.34 187.228 168.34C187.981 168.34 188.561 168.643 188.968 169.25C189.381 169.85 189.588 170.667 189.588 171.7C189.588 172.727 189.384 173.547 188.978 174.16C188.578 174.773 187.994 175.08 187.228 175.08C186.481 175.08 185.904 174.773 185.498 174.16C185.091 173.547 184.888 172.727 184.888 171.7ZM186.418 170.02C186.218 170.407 186.118 170.967 186.118 171.7C186.118 172.433 186.214 173 186.408 173.4C186.608 173.793 186.881 173.99 187.228 173.99C187.588 173.99 187.864 173.793 188.058 173.4C188.258 173.007 188.358 172.44 188.358 171.7C188.358 170.96 188.254 170.397 188.048 170.01C187.848 169.623 187.574 169.43 187.228 169.43C186.888 169.43 186.618 169.627 186.418 170.02Z" fill="#DA011C"/>
<g filter="url(#filter1_d_1124_4113)">
<rect x="115" y="192" width="84" height="22" rx="8" fill="#FF1934" shape-rendering="crispEdges"/>
<path d="M151.942 202.288C151.942 201.451 152.171 200.779 152.63 200.272C153.094 199.765 153.712 199.512 154.486 199.512C155.27 199.512 155.891 199.765 156.35 200.272C156.808 200.773 157.038 201.445 157.038 202.288C157.038 203.12 156.806 203.789 156.342 204.296C155.883 204.803 155.267 205.056 154.494 205.056C153.72 205.056 153.102 204.803 152.638 204.296C152.174 203.789 151.942 203.12 151.942 202.288ZM153.022 202.288C153.022 202.853 153.155 203.301 153.422 203.632C153.688 203.963 154.046 204.128 154.494 204.128C154.947 204.128 155.304 203.965 155.566 203.64C155.827 203.309 155.958 202.859 155.958 202.288C155.958 201.717 155.827 201.267 155.566 200.936C155.304 200.605 154.944 200.44 154.486 200.44C154.032 200.44 153.675 200.605 153.414 200.936C153.152 201.267 153.022 201.717 153.022 202.288ZM157.939 205L157.939 199.608L158.947 199.608L158.947 205L157.939 205ZM160.227 202.312L162.235 205L160.963 205L159.027 202.328L160.891 199.608L162.099 199.608L160.227 202.312Z" fill="white"/>
</g>
<defs>
<filter id="filter0_d_1124_4113" x="-4" y="-2" width="322" height="56" filterUnits="userSpaceOnUse" color-interpolation-filters="sRGB">
<feFlood flood-opacity="0" result="BackgroundImageFix"/>
<feColorMatrix in="SourceAlpha" type="matrix" values="0 0 0 0 0 0 0 0 0 0 0 0 0 0 0 0 0 0 127 0" result="hardAlpha"/>
<feOffset dy="2"/>
<feGaussianBlur stdDeviation="2"/>
<feComposite in2="hardAlpha" operator="out"/>
<feColorMatrix type="matrix" values="0 0 0 0 0.168627 0 0 0 0 0.168627 0 0 0 0 0.168627 0 0 0 0.24 0"/>
<feBlend mode="normal" in2="BackgroundImageFix" result="effect1_dropShadow_1124_4113"/>
<feBlend mode="normal" in="SourceGraphic" in2="effect1_dropShadow_1124_4113" result="shape"/>
</filter>
<filter id="filter1_d_1124_4113" x="109" y="186" width="100" height="38" filterUnits="userSpaceOnUse" color-interpolation-filters="sRGB">
<feFlood flood-opacity="0" result="BackgroundImageFix"/>
<feColorMatrix in="SourceAlpha" type="matrix" values="0 0 0 0 0 0 0 0 0 0 0 0 0 0 0 0 0 0 127 0" result="hardAlpha"/>
<feOffset dx="2" dy="2"/>
<feGaussianBlur stdDeviation="4"/>
<feComposite in2="hardAlpha" operator="out"/>
<feColorMatrix type="matrix" values="0 0 0 0 0 0 0 0 0 0 0 0 0 0 0 0 0 0 0.12 0"/>
<feBlend mode="normal" in2="BackgroundImageFix" result="effect1_dropShadow_1124_4113"/>
<feBlend mode="normal" in="SourceGraphic" in2="effect1_dropShadow_1124_4113" result="shape"/>
</filter>
<clipPath id="clip0_1124_4113">
<rect width="24" height="24" fill="white" transform="translate(16 16)"/>
</clipPath>
<clipPath id="clip1_1124_4113">
<rect width="64" height="64" fill="white" transform="translate(125 72)"/>
</clipPath>
</defs>
</svg>
