<svg width="338" height="375" viewBox="0 0 338 375" fill="none" xmlns="http://www.w3.org/2000/svg">
<rect width="338" height="375" fill="#D3D3D3"/>
<rect x="9" y="50" width="320" height="265" rx="16" fill="white"/>
<g filter="url(#filter0_d_1124_4113)">
<path d="M9 66C9 57.1634 16.1634 50 25 50H313C321.837 50 329 57.1634 329 66V98H9V66Z" fill="#FF1934" shape-rendering="crispEdges"/>
<g clip-path="url(#clip0_1124_4113)">
<path fill-rule="evenodd" clip-rule="evenodd" d="M27 78C27 72.49 31.49 68 37 68C42.51 68 47 72.49 47 78C47 83.51 42.51 88 37 88C31.49 88 27 83.51 27 78ZM28.6 78C28.6 82.63 32.37 86.4 37 86.4C41.63 86.4 45.4 82.63 45.4 78C45.4 73.37 41.63 69.6 37 69.6C32.37 69.6 28.6 73.37 28.6 78ZM32.2 78C32.2 77.56 32.56 77.2 33 77.2H41C41.44 77.2 41.8 77.56 41.8 78C41.8 78.44 41.44 78.8 41 78.8H33C32.56 78.8 32.2 78.44 32.2 78Z" fill="white"/>
</g>
<path d="M60.066 77.24H60.78C61.9187 77.24 62.488 76.722 62.488 75.686C62.488 74.7527 61.9607 74.286 60.906 74.286H60.066V77.24ZM57.91 72.564H61.158C62.2033 72.564 63.048 72.858 63.692 73.446C64.3453 74.034 64.672 74.7807 64.672 75.686C64.672 76.722 64.3313 77.5247 63.65 78.094C62.978 78.6633 62.1473 78.948 61.158 78.948H60.066V82H57.91V72.564ZM69.8307 77.8V77.632C69.7653 76.8013 69.4013 76.386 68.7387 76.386C68.412 76.386 68.1227 76.5073 67.8707 76.75C67.6187 76.9833 67.4507 77.3333 67.3667 77.8H69.8307ZM71.3007 79.886V81.594C70.8153 81.9113 70.0733 82.07 69.0747 82.07C67.908 82.07 66.998 81.734 66.3447 81.062C65.7007 80.3807 65.3787 79.508 65.3787 78.444C65.3787 77.3147 65.6913 76.4327 66.3167 75.798C66.9513 75.154 67.7307 74.832 68.6547 74.832C69.6067 74.832 70.358 75.112 70.9087 75.672C71.4593 76.2227 71.7347 77.0487 71.7347 78.15C71.7347 78.3647 71.6973 78.7333 71.6227 79.256H67.4507C67.5907 79.648 67.8333 79.9513 68.1787 80.166C68.524 80.3807 68.9393 80.488 69.4247 80.488C70.1433 80.488 70.7687 80.2873 71.3007 79.886ZM75.2235 74.902V76.218C75.3542 75.8073 75.5688 75.4807 75.8675 75.238C76.1755 74.986 76.5302 74.86 76.9315 74.86C77.1555 74.86 77.3328 74.8787 77.4635 74.916V76.848C77.2395 76.7453 76.9828 76.694 76.6935 76.694C76.2548 76.694 75.9002 76.8573 75.6295 77.184C75.3588 77.5013 75.2235 77.926 75.2235 78.458V82H73.1795L73.1935 74.902H75.2235ZM81.8892 79.088H81.2312C80.8858 79.088 80.6198 79.1627 80.4332 79.312C80.2465 79.4613 80.1532 79.6527 80.1532 79.886C80.1532 80.362 80.4285 80.6 80.9792 80.6C81.2685 80.6 81.4925 80.5113 81.6512 80.334C81.8098 80.1567 81.8892 79.914 81.8892 79.606V79.088ZM78.5712 77.086V75.252C79.1312 74.9347 79.9385 74.776 80.9932 74.776C82.0012 74.776 82.7525 74.9953 83.2472 75.434C83.7418 75.8633 83.9892 76.5353 83.9892 77.45V82H81.9872V81.132C81.6885 81.7387 81.1005 82.042 80.2232 82.042C79.5325 82.042 78.9912 81.846 78.5992 81.454C78.2165 81.062 78.0252 80.572 78.0252 79.984C78.0252 79.3027 78.2725 78.7753 78.7672 78.402C79.2712 78.0193 80.0132 77.828 80.9932 77.828H81.8892V77.338C81.8892 76.7407 81.4925 76.442 80.6992 76.442C79.9338 76.442 79.2245 76.6567 78.5712 77.086ZM87.1059 82L84.8239 74.902H86.9379L87.5539 77.24C87.7032 77.828 87.8292 78.36 87.9319 78.836C88.0346 79.3027 88.0952 79.6247 88.1139 79.802L88.1559 80.068C88.2212 79.508 88.4499 78.5653 88.8419 77.24L89.5279 74.902H91.2919L91.9639 77.24C92.1319 77.8373 92.2719 78.374 92.3839 78.85C92.4959 79.3167 92.5659 79.6387 92.5939 79.816L92.6359 80.068C92.7012 79.5173 92.9206 78.5747 93.2939 77.24L93.9519 74.902H95.9679L93.6999 82H91.5999L90.9839 79.676C90.8532 79.172 90.7366 78.7007 90.6339 78.262C90.5406 77.8233 90.4799 77.5107 90.4519 77.324L90.4099 77.044C90.3166 77.6693 90.1206 78.5467 89.8219 79.676L89.2059 82H87.1059ZM100.387 79.088H99.7292C99.3839 79.088 99.1179 79.1627 98.9312 79.312C98.7445 79.4613 98.6512 79.6527 98.6512 79.886C98.6512 80.362 98.9265 80.6 99.4772 80.6C99.7665 80.6 99.9905 80.5113 100.149 80.334C100.308 80.1567 100.387 79.914 100.387 79.606V79.088ZM97.0692 77.086V75.252C97.6292 74.9347 98.4365 74.776 99.4912 74.776C100.499 74.776 101.251 74.9953 101.745 75.434C102.24 75.8633 102.487 76.5353 102.487 77.45V82H100.485V81.132C100.187 81.7387 99.5985 82.042 98.7212 82.042C98.0305 82.042 97.4892 81.846 97.0972 81.454C96.7145 81.062 96.5232 80.572 96.5232 79.984C96.5232 79.3027 96.7705 78.7753 97.2652 78.402C97.7692 78.0193 98.5112 77.828 99.4912 77.828H100.387V77.338C100.387 76.7407 99.9905 76.442 99.1972 76.442C98.4319 76.442 97.7225 76.6567 97.0692 77.086ZM106.458 76.4V79.662C106.458 79.914 106.528 80.1053 106.668 80.236C106.817 80.3667 107.009 80.432 107.242 80.432C107.615 80.432 107.947 80.3387 108.236 80.152V81.846C107.891 81.9953 107.424 82.07 106.836 82.07C105.221 82.07 104.414 81.2627 104.414 79.648V76.4H103.392V74.902H104.414V73.222H106.458V74.902H108.11V76.4H106.458ZM113.006 79.088H112.348C112.003 79.088 111.737 79.1627 111.55 79.312C111.364 79.4613 111.27 79.6527 111.27 79.886C111.27 80.362 111.546 80.6 112.096 80.6C112.386 80.6 112.61 80.5113 112.768 80.334C112.927 80.1567 113.006 79.914 113.006 79.606V79.088ZM109.688 77.086V75.252C110.248 74.9347 111.056 74.776 112.11 74.776C113.118 74.776 113.87 74.9953 114.364 75.434C114.859 75.8633 115.106 76.5353 115.106 77.45V82H113.104V81.132C112.806 81.7387 112.218 82.042 111.34 82.042C110.65 82.042 110.108 81.846 109.716 81.454C109.334 81.062 109.142 80.572 109.142 79.984C109.142 79.3027 109.39 78.7753 109.884 78.402C110.388 78.0193 111.13 77.828 112.11 77.828H113.006V77.338C113.006 76.7407 112.61 76.442 111.816 76.442C111.051 76.442 110.342 76.6567 109.688 77.086ZM118.755 74.902V76.106C118.932 75.714 119.203 75.406 119.567 75.182C119.94 74.9487 120.384 74.832 120.897 74.832C121.625 74.832 122.194 75.0513 122.605 75.49C123.016 75.9193 123.221 76.554 123.221 77.394V82H121.177V77.772C121.177 77.352 121.079 77.0347 120.883 76.82C120.687 76.596 120.412 76.484 120.057 76.484C119.684 76.484 119.371 76.6333 119.119 76.932C118.876 77.2213 118.755 77.66 118.755 78.248V82H116.711V74.902H118.755ZM130.558 77.24H131.272C132.411 77.24 132.98 76.722 132.98 75.686C132.98 74.7527 132.453 74.286 131.398 74.286H130.558V77.24ZM128.402 72.564H131.65C132.696 72.564 133.54 72.858 134.184 73.446C134.838 74.034 135.164 74.7807 135.164 75.686C135.164 76.722 134.824 77.5247 134.142 78.094C133.47 78.6633 132.64 78.948 131.65 78.948H130.558V82H128.402V72.564ZM138.251 74.902V76.218C138.382 75.8073 138.596 75.4807 138.895 75.238C139.203 74.986 139.558 74.86 139.959 74.86C140.183 74.86 140.36 74.8787 140.491 74.916V76.848C140.267 76.7453 140.01 76.694 139.721 76.694C139.282 76.694 138.928 76.8573 138.657 77.184C138.386 77.5013 138.251 77.926 138.251 78.458V82H136.207L136.221 74.902H138.251ZM144.539 82.112C143.428 82.112 142.569 81.7807 141.963 81.118C141.356 80.446 141.053 79.5873 141.053 78.542C141.053 77.45 141.37 76.554 142.005 75.854C142.639 75.1447 143.484 74.79 144.539 74.79C145.64 74.79 146.494 75.1307 147.101 75.812C147.707 76.4933 148.011 77.3613 148.011 78.416C148.011 79.4893 147.703 80.376 147.087 81.076C146.48 81.7667 145.631 82.112 144.539 82.112ZM144.525 76.4C144.077 76.4 143.741 76.5913 143.517 76.974C143.293 77.3567 143.181 77.8513 143.181 78.458C143.181 79.0647 143.293 79.564 143.517 79.956C143.75 80.3387 144.095 80.53 144.553 80.53C145.001 80.53 145.332 80.3433 145.547 79.97C145.771 79.5873 145.883 79.0927 145.883 78.486C145.883 77.0953 145.43 76.4 144.525 76.4ZM152.986 80.376C153.434 80.376 153.798 80.208 154.078 79.872C154.358 79.5267 154.498 79.06 154.498 78.472C154.498 77.828 154.353 77.3427 154.064 77.016C153.784 76.68 153.425 76.512 152.986 76.512C152.557 76.512 152.183 76.6753 151.866 77.002C151.549 77.3287 151.39 77.786 151.39 78.374C151.39 78.9807 151.539 79.466 151.838 79.83C152.137 80.194 152.519 80.376 152.986 80.376ZM151.39 74.902V75.994C151.885 75.21 152.599 74.818 153.532 74.818C154.447 74.818 155.179 75.1447 155.73 75.798C156.29 76.442 156.57 77.3193 156.57 78.43C156.57 79.4847 156.299 80.3573 155.758 81.048C155.226 81.7387 154.484 82.084 153.532 82.084C152.571 82.084 151.857 81.706 151.39 80.95V84.618H149.346V74.902H151.39ZM162.006 77.8V77.632C161.941 76.8013 161.577 76.386 160.914 76.386C160.588 76.386 160.298 76.5073 160.046 76.75C159.794 76.9833 159.626 77.3333 159.542 77.8H162.006ZM163.476 79.886V81.594C162.991 81.9113 162.249 82.07 161.25 82.07C160.084 82.07 159.174 81.734 158.52 81.062C157.876 80.3807 157.554 79.508 157.554 78.444C157.554 77.3147 157.867 76.4327 158.492 75.798C159.127 75.154 159.906 74.832 160.83 74.832C161.782 74.832 162.534 75.112 163.084 75.672C163.635 76.2227 163.91 77.0487 163.91 78.15C163.91 78.3647 163.873 78.7333 163.798 79.256H159.626C159.766 79.648 160.009 79.9513 160.354 80.166C160.7 80.3807 161.115 80.488 161.6 80.488C162.319 80.488 162.944 80.2873 163.476 79.886ZM167.399 74.902V76.218C167.53 75.8073 167.745 75.4807 168.043 75.238C168.351 74.986 168.706 74.86 169.107 74.86C169.331 74.86 169.509 74.8787 169.639 74.916V76.848C169.415 76.7453 169.159 76.694 168.869 76.694C168.431 76.694 168.076 76.8573 167.805 77.184C167.535 77.5013 167.399 77.926 167.399 78.458V82H165.355L165.369 74.902H167.399ZM172.917 76.4V79.662C172.917 79.914 172.987 80.1053 173.127 80.236C173.276 80.3667 173.468 80.432 173.701 80.432C174.074 80.432 174.406 80.3387 174.695 80.152V81.846C174.35 81.9953 173.883 82.07 173.295 82.07C171.68 82.07 170.873 81.2627 170.873 79.648V76.4H169.851V74.902H170.873V73.222H172.917V74.902H174.569V76.4H172.917ZM176.021 82V74.902H178.065V82H176.021ZM176.203 73.684C175.97 73.4507 175.853 73.1707 175.853 72.844C175.853 72.5173 175.97 72.2373 176.203 72.004C176.437 71.7707 176.717 71.654 177.043 71.654C177.37 71.654 177.65 71.7707 177.883 72.004C178.117 72.2373 178.233 72.5173 178.233 72.844C178.233 73.1707 178.117 73.4507 177.883 73.684C177.65 73.9173 177.37 74.034 177.043 74.034C176.717 74.034 176.437 73.9173 176.203 73.684Z" fill="white"/>
</g>
<mask id="path-5-inside-1_1124_4113" fill="white">
<path d="M9 106H329V130H9V106Z"/>
</mask>
<path d="M329 129H9V131H329V129Z" fill="#F1F1F1" mask="url(#path-5-inside-1_1124_4113)"/>
<rect x="98" y="106" width="142" height="18" rx="9" fill="white"/>
<path d="M103.44 111.808V112.488C103.115 112.275 102.725 112.168 102.272 112.168C101.947 112.168 101.688 112.245 101.496 112.4C101.304 112.549 101.208 112.747 101.208 112.992C101.208 113.12 101.232 113.235 101.28 113.336C101.333 113.437 101.424 113.533 101.552 113.624C101.68 113.709 101.789 113.776 101.88 113.824C101.971 113.867 102.112 113.931 102.304 114.016C102.485 114.096 102.624 114.16 102.72 114.208C102.816 114.251 102.939 114.323 103.088 114.424C103.243 114.52 103.357 114.616 103.432 114.712C103.512 114.803 103.581 114.925 103.64 115.08C103.704 115.229 103.736 115.392 103.736 115.568C103.736 116.043 103.573 116.411 103.248 116.672C102.923 116.928 102.504 117.056 101.992 117.056C101.427 117.056 100.947 116.941 100.552 116.712V116.016C100.941 116.309 101.416 116.456 101.976 116.456C102.312 116.456 102.576 116.381 102.768 116.232C102.96 116.083 103.056 115.867 103.056 115.584C103.056 115.467 103.032 115.363 102.984 115.272C102.941 115.176 102.867 115.091 102.76 115.016C102.659 114.936 102.56 114.872 102.464 114.824C102.373 114.771 102.248 114.707 102.088 114.632C102.056 114.616 102.008 114.595 101.944 114.568C101.715 114.467 101.539 114.384 101.416 114.32C101.299 114.256 101.157 114.163 100.992 114.04C100.832 113.912 100.715 113.765 100.64 113.6C100.565 113.435 100.528 113.243 100.528 113.024C100.528 112.565 100.691 112.208 101.016 111.952C101.347 111.691 101.76 111.56 102.256 111.56C102.72 111.56 103.115 111.643 103.44 111.808ZM104.811 117V112.944H105.443V117H104.811ZM104.827 111.968C104.753 111.888 104.715 111.789 104.715 111.672C104.715 111.555 104.753 111.456 104.827 111.376C104.907 111.296 105.006 111.256 105.123 111.256C105.241 111.256 105.339 111.296 105.419 111.376C105.499 111.456 105.539 111.555 105.539 111.672C105.539 111.789 105.499 111.888 105.419 111.968C105.339 112.043 105.241 112.08 105.123 112.08C105.006 112.08 104.907 112.043 104.827 111.968ZM106.647 117V111.376H107.271V117H106.647ZM108.095 114.872L109.743 117H108.983L107.351 114.872L108.943 112.944H109.695L108.095 114.872ZM110.522 117V111.344H111.154V117H110.522ZM114.877 112.944H115.509V117H114.877V116.296C114.664 116.797 114.24 117.048 113.605 117.048C113.205 117.048 112.888 116.931 112.653 116.696C112.424 116.456 112.309 116.136 112.309 115.736V112.944H112.941V115.576C112.941 115.869 113.016 116.093 113.165 116.248C113.315 116.403 113.517 116.48 113.773 116.48C114.109 116.48 114.376 116.363 114.573 116.128C114.776 115.893 114.877 115.576 114.877 115.176V112.944ZM118.886 113.08V113.68C118.64 113.531 118.304 113.456 117.878 113.456C117.664 113.456 117.494 113.507 117.366 113.608C117.243 113.704 117.182 113.829 117.182 113.984C117.182 114.08 117.2 114.165 117.238 114.24C117.275 114.309 117.347 114.379 117.454 114.448C117.566 114.517 117.646 114.565 117.694 114.592C117.747 114.613 117.859 114.661 118.03 114.736C118.371 114.875 118.638 115.032 118.83 115.208C119.022 115.384 119.118 115.621 119.118 115.92C119.118 116.267 118.995 116.541 118.75 116.744C118.51 116.947 118.179 117.048 117.758 117.048C117.267 117.048 116.87 116.965 116.566 116.8V116.184C116.923 116.397 117.307 116.504 117.718 116.504C117.963 116.504 118.15 116.456 118.278 116.36C118.406 116.264 118.47 116.133 118.47 115.968C118.47 115.776 118.398 115.627 118.254 115.52C118.115 115.413 117.88 115.293 117.55 115.16C117.246 115.043 117 114.896 116.814 114.72C116.632 114.544 116.542 114.307 116.542 114.008C116.542 113.672 116.667 113.405 116.918 113.208C117.174 113.005 117.491 112.904 117.87 112.904C118.291 112.904 118.63 112.963 118.886 113.08ZM122.608 116.448H123.832C124.173 116.448 124.434 116.371 124.616 116.216C124.802 116.056 124.896 115.824 124.896 115.52C124.896 115.216 124.792 114.979 124.584 114.808C124.381 114.637 124.09 114.552 123.712 114.552H122.608V116.448ZM122.608 112.16V114H123.472C123.904 114 124.224 113.909 124.432 113.728C124.64 113.547 124.744 113.312 124.744 113.024C124.744 112.773 124.645 112.568 124.448 112.408C124.256 112.243 123.968 112.16 123.584 112.16H122.608ZM121.96 111.608H123.584C124.138 111.608 124.581 111.736 124.912 111.992C125.248 112.248 125.416 112.592 125.416 113.024C125.416 113.333 125.328 113.603 125.152 113.832C124.981 114.056 124.76 114.197 124.488 114.256C124.786 114.304 125.04 114.44 125.248 114.664C125.461 114.883 125.568 115.181 125.568 115.56C125.568 115.992 125.424 116.341 125.136 116.608C124.853 116.869 124.45 117 123.928 117H121.96V111.608ZM126.53 117V112.944H127.162V117H126.53ZM126.546 111.968C126.471 111.888 126.434 111.789 126.434 111.672C126.434 111.555 126.471 111.456 126.546 111.376C126.626 111.296 126.725 111.256 126.842 111.256C126.959 111.256 127.058 111.296 127.138 111.376C127.218 111.456 127.258 111.555 127.258 111.672C127.258 111.789 127.218 111.888 127.138 111.968C127.058 112.043 126.959 112.08 126.842 112.08C126.725 112.08 126.626 112.043 126.546 111.968ZM130.573 113.08V113.68C130.328 113.531 129.992 113.456 129.565 113.456C129.352 113.456 129.181 113.507 129.053 113.608C128.931 113.704 128.869 113.829 128.869 113.984C128.869 114.08 128.888 114.165 128.925 114.24C128.963 114.309 129.035 114.379 129.141 114.448C129.253 114.517 129.333 114.565 129.381 114.592C129.435 114.613 129.547 114.661 129.717 114.736C130.059 114.875 130.325 115.032 130.517 115.208C130.709 115.384 130.805 115.621 130.805 115.92C130.805 116.267 130.683 116.541 130.437 116.744C130.197 116.947 129.867 117.048 129.445 117.048C128.955 117.048 128.557 116.965 128.253 116.8V116.184C128.611 116.397 128.995 116.504 129.405 116.504C129.651 116.504 129.837 116.456 129.965 116.36C130.093 116.264 130.157 116.133 130.157 115.968C130.157 115.776 130.085 115.627 129.941 115.52C129.803 115.413 129.568 115.293 129.237 115.16C128.933 115.043 128.688 114.896 128.501 114.72C128.32 114.544 128.229 114.307 128.229 114.008C128.229 113.672 128.355 113.405 128.605 113.208C128.861 113.005 129.179 112.904 129.557 112.904C129.979 112.904 130.317 112.963 130.573 113.08ZM132.286 112.944V113.648C132.526 113.141 132.953 112.888 133.566 112.888C133.961 112.888 134.275 113.008 134.51 113.248C134.745 113.488 134.862 113.808 134.862 114.208V117H134.23V114.376C134.23 114.077 134.153 113.851 133.998 113.696C133.849 113.536 133.651 113.456 133.406 113.456C133.102 113.456 132.838 113.573 132.614 113.808C132.395 114.043 132.286 114.368 132.286 114.784V117H131.662V112.944H132.286ZM136.014 117V112.944H136.646V117H136.014ZM136.03 111.968C135.956 111.888 135.918 111.789 135.918 111.672C135.918 111.555 135.956 111.456 136.03 111.376C136.11 111.296 136.209 111.256 136.326 111.256C136.444 111.256 136.542 111.296 136.622 111.376C136.702 111.456 136.742 111.555 136.742 111.672C136.742 111.789 136.702 111.888 136.622 111.968C136.542 112.043 136.444 112.08 136.326 112.08C136.209 112.08 136.11 112.043 136.03 111.968ZM140.058 113.08V113.68C139.812 113.531 139.476 113.456 139.05 113.456C138.836 113.456 138.666 113.507 138.538 113.608C138.415 113.704 138.354 113.829 138.354 113.984C138.354 114.08 138.372 114.165 138.41 114.24C138.447 114.309 138.519 114.379 138.626 114.448C138.738 114.517 138.818 114.565 138.866 114.592C138.919 114.613 139.031 114.661 139.202 114.736C139.543 114.875 139.81 115.032 140.002 115.208C140.194 115.384 140.29 115.621 140.29 115.92C140.29 116.267 140.167 116.541 139.922 116.744C139.682 116.947 139.351 117.048 138.93 117.048C138.439 117.048 138.042 116.965 137.738 116.8V116.184C138.095 116.397 138.479 116.504 138.89 116.504C139.135 116.504 139.322 116.456 139.45 116.36C139.578 116.264 139.642 116.133 139.642 115.968C139.642 115.776 139.57 115.627 139.426 115.52C139.287 115.413 139.052 115.293 138.722 115.16C138.418 115.043 138.172 114.896 137.986 114.72C137.804 114.544 137.714 114.307 137.714 114.008C137.714 113.672 137.839 113.405 138.09 113.208C138.346 113.005 138.663 112.904 139.042 112.904C139.463 112.904 139.802 112.963 140.058 113.08Z" fill="#2B2B2B"/>
<rect x="174.25" y="108.25" width="63.5" height="13.5" rx="6.75" stroke="#008C1E" stroke-width="0.5"/>
<g clip-path="url(#clip1_1124_4113)">
<path d="M184.667 115.679C184.588 115.679 184.504 115.65 184.442 115.591L183.058 114.32C183.025 114.291 182.979 114.291 182.946 114.32L181.563 115.591C181.425 115.716 181.217 115.708 181.092 115.57C180.967 115.433 180.975 115.225 181.113 115.1L182.496 113.829C182.788 113.566 183.221 113.566 183.508 113.829L184.896 115.1C185.033 115.225 185.042 115.433 184.917 115.57C184.85 115.641 184.763 115.679 184.671 115.679H184.667Z" fill="#008C1E"/>
<path d="M183 119.166C180.704 119.166 178.833 117.296 178.833 115C178.833 112.704 180.704 110.833 183 110.833C185.296 110.833 187.167 112.704 187.167 115C187.167 117.296 185.296 119.166 183 119.166ZM183 111.5C181.071 111.5 179.5 113.071 179.5 115C179.5 116.929 181.071 118.5 183 118.5C184.929 118.5 186.5 116.929 186.5 115C186.5 113.071 184.929 111.5 183 111.5Z" fill="#008C1E"/>
</g>
<path d="M191.264 116.448H192.488C192.829 116.448 193.091 116.371 193.272 116.216C193.459 116.056 193.552 115.824 193.552 115.52C193.552 115.216 193.448 114.979 193.24 114.808C193.037 114.637 192.747 114.552 192.368 114.552H191.264V116.448ZM191.264 112.16V114H192.128C192.56 114 192.88 113.909 193.088 113.728C193.296 113.547 193.4 113.312 193.4 113.024C193.4 112.773 193.301 112.568 193.104 112.408C192.912 112.243 192.624 112.16 192.24 112.16H191.264ZM190.616 111.608H192.24C192.795 111.608 193.237 111.736 193.568 111.992C193.904 112.248 194.072 112.592 194.072 113.024C194.072 113.333 193.984 113.603 193.808 113.832C193.637 114.056 193.416 114.197 193.144 114.256C193.443 114.304 193.696 114.44 193.904 114.664C194.117 114.883 194.224 115.181 194.224 115.56C194.224 115.992 194.08 116.341 193.792 116.608C193.509 116.869 193.107 117 192.584 117H190.616V111.608ZM196.802 117.072C196.221 117.072 195.76 116.877 195.418 116.488C195.082 116.093 194.914 115.597 194.914 115C194.914 114.397 195.088 113.896 195.434 113.496C195.786 113.091 196.242 112.888 196.802 112.888C197.416 112.888 197.888 113.085 198.218 113.48C198.554 113.875 198.722 114.376 198.722 114.984C198.722 115.587 198.552 116.085 198.21 116.48C197.869 116.875 197.4 117.072 196.802 117.072ZM196.802 113.448C196.418 113.448 196.117 113.597 195.898 113.896C195.68 114.195 195.57 114.56 195.57 114.992C195.57 115.413 195.682 115.773 195.906 116.072C196.13 116.365 196.429 116.512 196.802 116.512C197.208 116.512 197.52 116.368 197.738 116.08C197.957 115.787 198.066 115.424 198.066 114.992C198.066 114.544 197.962 114.176 197.754 113.888C197.546 113.595 197.229 113.448 196.802 113.448ZM201.295 117.072C200.713 117.072 200.252 116.877 199.911 116.488C199.575 116.093 199.407 115.597 199.407 115C199.407 114.397 199.58 113.896 199.927 113.496C200.279 113.091 200.735 112.888 201.295 112.888C201.908 112.888 202.38 113.085 202.711 113.48C203.047 113.875 203.215 114.376 203.215 114.984C203.215 115.587 203.044 116.085 202.703 116.48C202.361 116.875 201.892 117.072 201.295 117.072ZM201.295 113.448C200.911 113.448 200.609 113.597 200.391 113.896C200.172 114.195 200.062 114.56 200.062 114.992C200.062 115.413 200.175 115.773 200.399 116.072C200.623 116.365 200.921 116.512 201.295 116.512C201.7 116.512 202.012 116.368 202.231 116.08C202.449 115.787 202.559 115.424 202.559 114.992C202.559 114.544 202.455 114.176 202.247 113.888C202.039 113.595 201.721 113.448 201.295 113.448ZM204.763 112.944V113.6C204.987 113.125 205.368 112.888 205.907 112.888C206.531 112.888 206.925 113.152 207.091 113.68C207.208 113.424 207.371 113.229 207.579 113.096C207.792 112.957 208.029 112.888 208.291 112.888C208.712 112.888 209.029 113.008 209.243 113.248C209.456 113.488 209.563 113.811 209.563 114.216V117H208.931V114.376C208.931 113.763 208.672 113.456 208.155 113.456C207.899 113.456 207.669 113.573 207.467 113.808C207.264 114.037 207.163 114.363 207.163 114.784V117H206.531V114.376C206.531 113.763 206.272 113.456 205.755 113.456C205.499 113.456 205.269 113.573 205.067 113.808C204.864 114.037 204.763 114.363 204.763 114.784V117H204.139V112.944H204.763Z" fill="#2B2B2B"/>
<path d="M72.1966 186.99H74.3566L74.2466 186.65C73.9932 185.863 73.7866 185.213 73.6266 184.7C73.4666 184.18 73.3699 183.857 73.3366 183.73L73.2866 183.54C73.2132 183.853 72.8866 184.89 72.3066 186.65L72.1966 186.99ZM75.1666 189.5L74.6366 187.85H71.9166L71.3766 189.5H70.2866L72.6166 182.76H73.9666L76.2666 189.5H75.1666ZM78.2481 184.43V185.3C78.5481 184.673 79.0748 184.36 79.8281 184.36C80.3281 184.36 80.7248 184.513 81.0181 184.82C81.3115 185.127 81.4581 185.543 81.4581 186.07V189.5H80.4781V186.3C80.4781 185.947 80.3881 185.677 80.2081 185.49C80.0348 185.303 79.8015 185.21 79.5081 185.21C79.1615 185.21 78.8648 185.347 78.6181 185.62C78.3715 185.887 78.2481 186.263 78.2481 186.75V189.5H77.2681V184.43H78.2481ZM84.8259 188.71C85.2126 188.71 85.5393 188.563 85.8059 188.27C86.0726 187.977 86.2059 187.53 86.2059 186.93C86.2059 186.35 86.0659 185.92 85.7859 185.64C85.5126 185.36 85.2026 185.22 84.8559 185.22C84.4626 185.22 84.1393 185.377 83.8859 185.69C83.6326 185.997 83.5059 186.437 83.5059 187.01C83.5059 187.517 83.6293 187.927 83.8759 188.24C84.1293 188.553 84.4459 188.71 84.8259 188.71ZM86.2059 182.43H87.1959V189.5H86.2059V188.73C85.8526 189.29 85.3359 189.57 84.6559 189.57C83.9893 189.57 83.4626 189.32 83.0759 188.82C82.6893 188.313 82.4959 187.703 82.4959 186.99C82.4959 186.197 82.6993 185.56 83.1059 185.08C83.5126 184.6 84.0359 184.36 84.6759 184.36C85.3359 184.36 85.8459 184.64 86.2059 185.2V182.43ZM91.2467 187.24H90.4867C90.1134 187.24 89.8301 187.313 89.6367 187.46C89.4501 187.607 89.3567 187.793 89.3567 188.02C89.3567 188.253 89.4301 188.437 89.5767 188.57C89.7234 188.703 89.9367 188.77 90.2167 188.77C90.5367 188.77 90.7867 188.683 90.9667 188.51C91.1534 188.33 91.2467 188.097 91.2467 187.81V187.24ZM88.6967 185.64V184.69C89.0901 184.463 89.6101 184.35 90.2567 184.35C91.5834 184.35 92.2467 184.993 92.2467 186.28V189.5H91.2767V188.9C91.0167 189.327 90.5601 189.54 89.9067 189.54C89.4267 189.54 89.0401 189.403 88.7467 189.13C88.4601 188.85 88.3167 188.497 88.3167 188.07C88.3167 187.583 88.5001 187.207 88.8667 186.94C89.2334 186.667 89.7467 186.53 90.4067 186.53H91.2467V186.24C91.2467 185.893 91.1634 185.633 90.9967 185.46C90.8301 185.28 90.5534 185.19 90.1667 185.19C89.6267 185.19 89.1367 185.34 88.6967 185.64ZM98.0779 188.71C98.4646 188.71 98.7912 188.563 99.0579 188.27C99.3246 187.977 99.4579 187.53 99.4579 186.93C99.4579 186.35 99.3179 185.92 99.0379 185.64C98.7646 185.36 98.4546 185.22 98.1079 185.22C97.7146 185.22 97.3912 185.377 97.1379 185.69C96.8846 185.997 96.7579 186.437 96.7579 187.01C96.7579 187.517 96.8812 187.927 97.1279 188.24C97.3812 188.553 97.6979 188.71 98.0779 188.71ZM99.4579 182.43H100.448V189.5H99.4579V188.73C99.1046 189.29 98.5879 189.57 97.9079 189.57C97.2412 189.57 96.7146 189.32 96.3279 188.82C95.9412 188.313 95.7479 187.703 95.7479 186.99C95.7479 186.197 95.9512 185.56 96.3579 185.08C96.7646 184.6 97.2879 184.36 97.9279 184.36C98.5879 184.36 99.0979 184.64 99.4579 185.2V182.43ZM101.869 189.5V184.43H102.859V189.5H101.869ZM101.919 183.32C101.805 183.2 101.749 183.053 101.749 182.88C101.749 182.707 101.805 182.56 101.919 182.44C102.039 182.32 102.185 182.26 102.359 182.26C102.532 182.26 102.679 182.32 102.799 182.44C102.919 182.56 102.979 182.707 102.979 182.88C102.979 183.047 102.919 183.19 102.799 183.31C102.679 183.43 102.532 183.49 102.359 183.49C102.185 183.49 102.039 183.433 101.919 183.32ZM105.26 182.43V185.3C105.547 184.673 106.07 184.36 106.83 184.36C107.323 184.36 107.72 184.513 108.02 184.82C108.32 185.127 108.47 185.553 108.47 186.1V189.5H107.49V186.3C107.49 185.953 107.4 185.687 107.22 185.5C107.047 185.307 106.817 185.21 106.53 185.21C106.197 185.21 105.9 185.337 105.64 185.59C105.387 185.843 105.26 186.23 105.26 186.75V189.5H104.28V182.43H105.26ZM112.458 187.24H111.698C111.324 187.24 111.041 187.313 110.848 187.46C110.661 187.607 110.568 187.793 110.568 188.02C110.568 188.253 110.641 188.437 110.788 188.57C110.934 188.703 111.148 188.77 111.428 188.77C111.748 188.77 111.998 188.683 112.178 188.51C112.364 188.33 112.458 188.097 112.458 187.81V187.24ZM109.908 185.64V184.69C110.301 184.463 110.821 184.35 111.468 184.35C112.794 184.35 113.458 184.993 113.458 186.28V189.5H112.488V188.9C112.228 189.327 111.771 189.54 111.118 189.54C110.638 189.54 110.251 189.403 109.958 189.13C109.671 188.85 109.528 188.497 109.528 188.07C109.528 187.583 109.711 187.207 110.078 186.94C110.444 186.667 110.958 186.53 111.618 186.53H112.458V186.24C112.458 185.893 112.374 185.633 112.208 185.46C112.041 185.28 111.764 185.19 111.378 185.19C110.838 185.19 110.348 185.34 109.908 185.64ZM115.758 184.43V185.32C116.005 184.693 116.448 184.38 117.088 184.38C117.181 184.38 117.285 184.39 117.398 184.41V185.37C117.258 185.31 117.101 185.28 116.928 185.28C116.588 185.28 116.308 185.43 116.088 185.73C115.868 186.03 115.758 186.387 115.758 186.8V189.5H114.778V184.43H115.758ZM121.317 184.43H122.297V189.5H121.317V188.63C121.05 189.25 120.523 189.56 119.737 189.56C119.237 189.56 118.84 189.413 118.547 189.12C118.253 188.82 118.107 188.41 118.107 187.89V184.43H119.097V187.65C119.097 187.997 119.18 188.263 119.347 188.45C119.52 188.63 119.757 188.72 120.057 188.72C120.437 188.72 120.74 188.587 120.967 188.32C121.2 188.053 121.317 187.677 121.317 187.19V184.43ZM126.564 184.6V185.49C126.238 185.297 125.818 185.2 125.304 185.2C125.071 185.2 124.884 185.253 124.744 185.36C124.611 185.467 124.544 185.607 124.544 185.78C124.544 185.827 124.548 185.873 124.554 185.92C124.568 185.96 124.588 186.003 124.614 186.05C124.641 186.09 124.664 186.127 124.684 186.16C124.711 186.187 124.751 186.217 124.804 186.25C124.858 186.283 124.898 186.313 124.924 186.34C124.958 186.36 125.008 186.387 125.074 186.42C125.148 186.453 125.201 186.48 125.234 186.5C125.268 186.513 125.324 186.54 125.404 186.58C125.491 186.613 125.551 186.637 125.584 186.65C125.978 186.823 126.284 187.02 126.504 187.24C126.731 187.453 126.844 187.74 126.844 188.1C126.844 188.553 126.684 188.91 126.364 189.17C126.044 189.423 125.611 189.55 125.064 189.55C124.464 189.55 123.964 189.45 123.564 189.25V188.32C124.031 188.607 124.514 188.75 125.014 188.75C125.274 188.75 125.474 188.697 125.614 188.59C125.761 188.483 125.834 188.343 125.834 188.17C125.834 188.023 125.778 187.893 125.664 187.78C125.551 187.66 125.434 187.573 125.314 187.52C125.201 187.46 125.004 187.37 124.724 187.25C123.931 186.923 123.534 186.443 123.534 185.81C123.534 185.363 123.701 185.013 124.034 184.76C124.368 184.507 124.784 184.38 125.284 184.38C125.831 184.38 126.258 184.453 126.564 184.6ZM127.864 189.5V182.5H128.844V189.5H127.864ZM130.014 186.85L132.004 189.5H130.834L128.884 186.85L130.794 184.43H131.944L130.014 186.85ZM135.534 187.24H134.774C134.4 187.24 134.117 187.313 133.924 187.46C133.737 187.607 133.644 187.793 133.644 188.02C133.644 188.253 133.717 188.437 133.864 188.57C134.01 188.703 134.224 188.77 134.504 188.77C134.824 188.77 135.074 188.683 135.254 188.51C135.44 188.33 135.534 188.097 135.534 187.81V187.24ZM132.984 185.64V184.69C133.377 184.463 133.897 184.35 134.544 184.35C135.87 184.35 136.534 184.993 136.534 186.28V189.5H135.564V188.9C135.304 189.327 134.847 189.54 134.194 189.54C133.714 189.54 133.327 189.403 133.034 189.13C132.747 188.85 132.604 188.497 132.604 188.07C132.604 187.583 132.787 187.207 133.154 186.94C133.52 186.667 134.034 186.53 134.694 186.53H135.534V186.24C135.534 185.893 135.45 185.633 135.284 185.46C135.117 185.28 134.84 185.19 134.454 185.19C133.914 185.19 133.424 185.34 132.984 185.64ZM138.834 184.43V185.3C139.134 184.673 139.661 184.36 140.414 184.36C140.914 184.36 141.311 184.513 141.604 184.82C141.897 185.127 142.044 185.543 142.044 186.07V189.5H141.064V186.3C141.064 185.947 140.974 185.677 140.794 185.49C140.621 185.303 140.387 185.21 140.094 185.21C139.747 185.21 139.451 185.347 139.204 185.62C138.957 185.887 138.834 186.263 138.834 186.75V189.5H137.854V184.43H138.834ZM148.973 184.43H149.953V189.5H148.973V188.63C148.706 189.25 148.179 189.56 147.393 189.56C146.893 189.56 146.496 189.413 146.203 189.12C145.909 188.82 145.763 188.41 145.763 187.89V184.43H146.753V187.65C146.753 187.997 146.836 188.263 147.003 188.45C147.176 188.63 147.413 188.72 147.713 188.72C148.093 188.72 148.396 188.587 148.623 188.32C148.856 188.053 148.973 187.677 148.973 187.19V184.43ZM152.311 184.43V185.3C152.611 184.673 153.137 184.36 153.891 184.36C154.391 184.36 154.787 184.513 155.081 184.82C155.374 185.127 155.521 185.543 155.521 186.07V189.5H154.541V186.3C154.541 185.947 154.451 185.677 154.271 185.49C154.097 185.303 153.864 185.21 153.571 185.21C153.224 185.21 152.927 185.347 152.681 185.62C152.434 185.887 152.311 186.263 152.311 186.75V189.5H151.331V184.43H152.311ZM158.108 185.19V187.98C158.108 188.467 158.342 188.71 158.808 188.71C159.082 188.71 159.312 188.637 159.498 188.49V189.37C159.278 189.49 159.008 189.55 158.688 189.55C157.642 189.55 157.118 189.02 157.118 187.96V185.19H156.328V184.43H157.118V183.19H158.108V184.43H159.438V185.19H158.108ZM163.729 184.43H164.709V189.5H163.729V188.63C163.462 189.25 162.935 189.56 162.149 189.56C161.649 189.56 161.252 189.413 160.959 189.12C160.665 188.82 160.519 188.41 160.519 187.89V184.43H161.509V187.65C161.509 187.997 161.592 188.263 161.759 188.45C161.932 188.63 162.169 188.72 162.469 188.72C162.849 188.72 163.152 188.587 163.379 188.32C163.612 188.053 163.729 187.677 163.729 187.19V184.43ZM166.086 189.5V182.5H167.066V189.5H166.086ZM168.236 186.85L170.226 189.5H169.056L167.106 186.85L169.016 184.43H170.166L168.236 186.85ZM174.527 184.43V185.24C174.814 184.653 175.291 184.36 175.957 184.36C176.717 184.36 177.204 184.687 177.417 185.34C177.557 185.027 177.761 184.787 178.027 184.62C178.294 184.447 178.594 184.36 178.927 184.36C179.447 184.36 179.841 184.513 180.107 184.82C180.381 185.127 180.517 185.55 180.517 186.09V189.5H179.537V186.3C179.537 185.573 179.244 185.21 178.657 185.21C178.364 185.21 178.101 185.34 177.867 185.6C177.641 185.86 177.527 186.243 177.527 186.75V189.5H176.547V186.3C176.547 185.573 176.251 185.21 175.657 185.21C175.371 185.21 175.111 185.34 174.877 185.6C174.644 185.86 174.527 186.243 174.527 186.75V189.5H173.547V184.43H174.527ZM184.998 186.6V186.42C184.985 186.04 184.882 185.74 184.688 185.52C184.495 185.293 184.218 185.18 183.858 185.18C183.525 185.18 183.238 185.303 182.998 185.55C182.758 185.79 182.608 186.14 182.548 186.6H184.998ZM185.628 188.35V189.23C185.255 189.443 184.762 189.55 184.148 189.55C183.362 189.55 182.735 189.313 182.268 188.84C181.802 188.367 181.568 187.747 181.568 186.98C181.568 186.167 181.782 185.53 182.208 185.07C182.635 184.603 183.178 184.37 183.838 184.37C184.485 184.37 184.998 184.573 185.378 184.98C185.758 185.38 185.948 185.96 185.948 186.72C185.948 186.927 185.928 187.143 185.888 187.37H182.558C182.625 187.81 182.812 188.147 183.118 188.38C183.425 188.613 183.812 188.73 184.278 188.73C184.818 188.73 185.268 188.603 185.628 188.35ZM188.082 184.43V185.24C188.369 184.653 188.845 184.36 189.512 184.36C190.272 184.36 190.759 184.687 190.972 185.34C191.112 185.027 191.315 184.787 191.582 184.62C191.849 184.447 192.149 184.36 192.482 184.36C193.002 184.36 193.395 184.513 193.662 184.82C193.935 185.127 194.072 185.55 194.072 186.09V189.5H193.092V186.3C193.092 185.573 192.799 185.21 192.212 185.21C191.919 185.21 191.655 185.34 191.422 185.6C191.195 185.86 191.082 186.243 191.082 186.75V189.5H190.102V186.3C190.102 185.573 189.805 185.21 189.212 185.21C188.925 185.21 188.665 185.34 188.432 185.6C188.199 185.86 188.082 186.243 188.082 186.75V189.5H187.102V184.43H188.082ZM197.793 188.71C198.166 188.71 198.48 188.553 198.733 188.24C198.986 187.92 199.113 187.51 199.113 187.01C199.113 186.437 198.986 185.997 198.733 185.69C198.48 185.377 198.156 185.22 197.763 185.22C197.416 185.22 197.103 185.36 196.823 185.64C196.55 185.92 196.413 186.35 196.413 186.93C196.413 187.53 196.546 187.977 196.813 188.27C197.08 188.563 197.406 188.71 197.793 188.71ZM196.413 182.43V185.2C196.773 184.64 197.283 184.36 197.943 184.36C198.583 184.36 199.106 184.6 199.513 185.08C199.92 185.56 200.123 186.197 200.123 186.99C200.123 187.703 199.93 188.313 199.543 188.82C199.156 189.32 198.626 189.57 197.953 189.57C197.28 189.57 196.766 189.29 196.413 188.73V189.5H195.423V182.43H196.413ZM203.893 187.24H203.133C202.76 187.24 202.477 187.313 202.283 187.46C202.097 187.607 202.003 187.793 202.003 188.02C202.003 188.253 202.077 188.437 202.223 188.57C202.37 188.703 202.583 188.77 202.863 188.77C203.183 188.77 203.433 188.683 203.613 188.51C203.8 188.33 203.893 188.097 203.893 187.81V187.24ZM201.343 185.64V184.69C201.737 184.463 202.257 184.35 202.903 184.35C204.23 184.35 204.893 184.993 204.893 186.28V189.5H203.923V188.9C203.663 189.327 203.207 189.54 202.553 189.54C202.073 189.54 201.687 189.403 201.393 189.13C201.107 188.85 200.963 188.497 200.963 188.07C200.963 187.583 201.147 187.207 201.513 186.94C201.88 186.667 202.393 186.53 203.053 186.53H203.893V186.24C203.893 185.893 203.81 185.633 203.643 185.46C203.477 185.28 203.2 185.19 202.813 185.19C202.273 185.19 201.783 185.34 201.343 185.64ZM207.613 189.39L205.593 184.43H206.683L207.313 186.08L208.103 188.22C208.163 188.02 208.403 187.307 208.823 186.08L209.393 184.43H210.433L208.603 189.36C208.117 190.66 207.373 191.31 206.373 191.31C206.193 191.31 206.04 191.293 205.913 191.26V190.42C206.02 190.447 206.133 190.46 206.253 190.46C206.9 190.46 207.353 190.103 207.613 189.39ZM213.923 187.24H213.163C212.789 187.24 212.506 187.313 212.313 187.46C212.126 187.607 212.032 187.793 212.032 188.02C212.032 188.253 212.106 188.437 212.253 188.57C212.399 188.703 212.613 188.77 212.893 188.77C213.213 188.77 213.463 188.683 213.643 188.51C213.829 188.33 213.923 188.097 213.923 187.81V187.24ZM211.373 185.64V184.69C211.766 184.463 212.286 184.35 212.933 184.35C214.259 184.35 214.923 184.993 214.923 186.28V189.5H213.953V188.9C213.693 189.327 213.236 189.54 212.583 189.54C212.103 189.54 211.716 189.403 211.423 189.13C211.136 188.85 210.993 188.497 210.993 188.07C210.993 187.583 211.176 187.207 211.543 186.94C211.909 186.667 212.423 186.53 213.083 186.53H213.923V186.24C213.923 185.893 213.839 185.633 213.673 185.46C213.506 185.28 213.229 185.19 212.843 185.19C212.303 185.19 211.812 185.34 211.373 185.64ZM217.223 184.43V185.32C217.469 184.693 217.913 184.38 218.553 184.38C218.646 184.38 218.749 184.39 218.863 184.41V185.37C218.723 185.31 218.566 185.28 218.393 185.28C218.053 185.28 217.773 185.43 217.553 185.73C217.333 186.03 217.223 186.387 217.223 186.8V189.5H216.243V184.43H217.223ZM224.432 188.71C224.826 188.71 225.149 188.557 225.402 188.25C225.656 187.937 225.782 187.5 225.782 186.94C225.782 186.413 225.659 185.997 225.412 185.69C225.166 185.377 224.852 185.22 224.472 185.22C224.092 185.22 223.762 185.36 223.482 185.64C223.209 185.913 223.072 186.35 223.072 186.95C223.072 187.537 223.209 187.977 223.482 188.27C223.762 188.563 224.079 188.71 224.432 188.71ZM223.072 184.43V185.21C223.419 184.643 223.939 184.36 224.632 184.36C225.299 184.36 225.826 184.603 226.212 185.09C226.599 185.57 226.792 186.183 226.792 186.93C226.792 187.697 226.592 188.33 226.192 188.83C225.799 189.323 225.272 189.57 224.612 189.57C223.939 189.57 223.426 189.29 223.072 188.73V191.44H222.092V184.43H223.072ZM231.043 186.6V186.42C231.03 186.04 230.926 185.74 230.733 185.52C230.54 185.293 230.263 185.18 229.903 185.18C229.57 185.18 229.283 185.303 229.043 185.55C228.803 185.79 228.653 186.14 228.593 186.6H231.043ZM231.673 188.35V189.23C231.3 189.443 230.806 189.55 230.193 189.55C229.406 189.55 228.78 189.313 228.313 188.84C227.846 188.367 227.613 187.747 227.613 186.98C227.613 186.167 227.826 185.53 228.253 185.07C228.68 184.603 229.223 184.37 229.883 184.37C230.53 184.37 231.043 184.573 231.423 184.98C231.803 185.38 231.993 185.96 231.993 186.72C231.993 186.927 231.973 187.143 231.933 187.37H228.603C228.67 187.81 228.856 188.147 229.163 188.38C229.47 188.613 229.856 188.73 230.323 188.73C230.863 188.73 231.313 188.603 231.673 188.35ZM234.127 184.43V185.32C234.374 184.693 234.817 184.38 235.457 184.38C235.55 184.38 235.654 184.39 235.767 184.41V185.37C235.627 185.31 235.47 185.28 235.297 185.28C234.957 185.28 234.677 185.43 234.457 185.73C234.237 186.03 234.127 186.387 234.127 186.8V189.5H233.147V184.43H234.127ZM239.206 187.24H238.446C238.072 187.24 237.789 187.313 237.596 187.46C237.409 187.607 237.316 187.793 237.316 188.02C237.316 188.253 237.389 188.437 237.536 188.57C237.682 188.703 237.896 188.77 238.176 188.77C238.496 188.77 238.746 188.683 238.926 188.51C239.112 188.33 239.206 188.097 239.206 187.81V187.24ZM236.656 185.64V184.69C237.049 184.463 237.569 184.35 238.216 184.35C239.542 184.35 240.206 184.993 240.206 186.28V189.5H239.236V188.9C238.976 189.327 238.519 189.54 237.866 189.54C237.386 189.54 236.999 189.403 236.706 189.13C236.419 188.85 236.276 188.497 236.276 188.07C236.276 187.583 236.459 187.207 236.826 186.94C237.192 186.667 237.706 186.53 238.366 186.53H239.206V186.24C239.206 185.893 239.122 185.633 238.956 185.46C238.789 185.28 238.512 185.19 238.126 185.19C237.586 185.19 237.096 185.34 236.656 185.64ZM242.616 189.5L241.026 184.43H242.066L242.536 186.11C242.689 186.643 242.819 187.113 242.926 187.52C243.033 187.927 243.099 188.2 243.126 188.34L243.166 188.55C243.253 188.13 243.473 187.313 243.826 186.1L244.316 184.43H245.266L245.766 186.1C245.926 186.653 246.063 187.137 246.176 187.55C246.289 187.957 246.363 188.227 246.396 188.36L246.436 188.56C246.516 188.167 246.743 187.347 247.116 186.1L247.616 184.43H248.606L246.996 189.5H245.876L245.406 187.84C245.266 187.333 245.143 186.887 245.036 186.5C244.936 186.107 244.869 185.84 244.836 185.7L244.796 185.5C244.703 185.933 244.499 186.713 244.186 187.84L243.726 189.5H242.616ZM252.155 187.24H251.395C251.022 187.24 250.738 187.313 250.545 187.46C250.358 187.607 250.265 187.793 250.265 188.02C250.265 188.253 250.338 188.437 250.485 188.57C250.632 188.703 250.845 188.77 251.125 188.77C251.445 188.77 251.695 188.683 251.875 188.51C252.062 188.33 252.155 188.097 252.155 187.81V187.24ZM249.605 185.64V184.69C249.998 184.463 250.518 184.35 251.165 184.35C252.492 184.35 253.155 184.993 253.155 186.28V189.5H252.185V188.9C251.925 189.327 251.468 189.54 250.815 189.54C250.335 189.54 249.948 189.403 249.655 189.13C249.368 188.85 249.225 188.497 249.225 188.07C249.225 187.583 249.408 187.207 249.775 186.94C250.142 186.667 250.655 186.53 251.315 186.53H252.155V186.24C252.155 185.893 252.072 185.633 251.905 185.46C251.738 185.28 251.462 185.19 251.075 185.19C250.535 185.19 250.045 185.34 249.605 185.64ZM255.745 185.19V187.98C255.745 188.467 255.978 188.71 256.445 188.71C256.718 188.71 256.948 188.637 257.135 188.49V189.37C256.915 189.49 256.645 189.55 256.325 189.55C255.278 189.55 254.755 189.02 254.755 187.96V185.19H253.965V184.43H254.755V183.19H255.745V184.43H257.075V185.19H255.745ZM260.885 187.24H260.125C259.752 187.24 259.469 187.313 259.275 187.46C259.089 187.607 258.995 187.793 258.995 188.02C258.995 188.253 259.069 188.437 259.215 188.57C259.362 188.703 259.575 188.77 259.855 188.77C260.175 188.77 260.425 188.683 260.605 188.51C260.792 188.33 260.885 188.097 260.885 187.81V187.24ZM258.335 185.64V184.69C258.729 184.463 259.249 184.35 259.895 184.35C261.222 184.35 261.885 184.993 261.885 186.28V189.5H260.915V188.9C260.655 189.327 260.199 189.54 259.545 189.54C259.065 189.54 258.679 189.403 258.385 189.13C258.099 188.85 257.955 188.497 257.955 188.07C257.955 187.583 258.139 187.207 258.505 186.94C258.872 186.667 259.385 186.53 260.045 186.53H260.885V186.24C260.885 185.893 260.802 185.633 260.635 185.46C260.469 185.28 260.192 185.19 259.805 185.19C259.265 185.19 258.775 185.34 258.335 185.64ZM264.186 184.43V185.3C264.486 184.673 265.012 184.36 265.766 184.36C266.266 184.36 266.662 184.513 266.956 184.82C267.249 185.127 267.396 185.543 267.396 186.07V189.5H266.416V186.3C266.416 185.947 266.326 185.677 266.146 185.49C265.972 185.303 265.739 185.21 265.446 185.21C265.099 185.21 264.802 185.347 264.556 185.62C264.309 185.887 264.186 186.263 264.186 186.75V189.5H263.206V184.43H264.186ZM78.9196 204.71C79.313 204.71 79.6363 204.557 79.8896 204.25C80.143 203.937 80.2696 203.5 80.2696 202.94C80.2696 202.413 80.1463 201.997 79.8996 201.69C79.653 201.377 79.3396 201.22 78.9596 201.22C78.5796 201.22 78.2496 201.36 77.9696 201.64C77.6963 201.913 77.5596 202.35 77.5596 202.95C77.5596 203.537 77.6963 203.977 77.9696 204.27C78.2496 204.563 78.5663 204.71 78.9196 204.71ZM77.5596 200.43V201.21C77.9063 200.643 78.4263 200.36 79.1196 200.36C79.7863 200.36 80.313 200.603 80.6996 201.09C81.0863 201.57 81.2796 202.183 81.2796 202.93C81.2796 203.697 81.0796 204.33 80.6796 204.83C80.2863 205.323 79.7596 205.57 79.0996 205.57C78.4263 205.57 77.913 205.29 77.5596 204.73V207.44H76.5796V200.43H77.5596ZM83.3604 200.43V201.32C83.6071 200.693 84.0504 200.38 84.6904 200.38C84.7838 200.38 84.8871 200.39 85.0004 200.41V201.37C84.8604 201.31 84.7038 201.28 84.5304 201.28C84.1904 201.28 83.9104 201.43 83.6904 201.73C83.4704 202.03 83.3604 202.387 83.3604 202.8V205.5H82.3804V200.43H83.3604ZM87.8891 205.59C87.1424 205.59 86.5558 205.347 86.1291 204.86C85.7024 204.373 85.4891 203.757 85.4891 203.01C85.4891 202.25 85.7091 201.62 86.1491 201.12C86.5891 200.613 87.1691 200.36 87.8891 200.36C88.6624 200.36 89.2591 200.607 89.6791 201.1C90.0991 201.587 90.3091 202.21 90.3091 202.97C90.3091 203.73 90.0924 204.357 89.6591 204.85C89.2324 205.343 88.6424 205.59 87.8891 205.59ZM87.8791 201.19C87.4458 201.19 87.1091 201.363 86.8691 201.71C86.6291 202.05 86.5091 202.473 86.5091 202.98C86.5091 203.48 86.6324 203.903 86.8791 204.25C87.1258 204.59 87.4624 204.76 87.8891 204.76C88.3424 204.76 88.6858 204.593 88.9191 204.26C89.1591 203.927 89.2791 203.503 89.2791 202.99C89.2791 202.463 89.1658 202.033 88.9391 201.7C88.7124 201.36 88.3591 201.19 87.8791 201.19ZM93.7536 204.71C94.147 204.71 94.4703 204.557 94.7236 204.25C94.977 203.937 95.1036 203.5 95.1036 202.94C95.1036 202.413 94.9803 201.997 94.7336 201.69C94.487 201.377 94.1736 201.22 93.7936 201.22C93.4136 201.22 93.0836 201.36 92.8036 201.64C92.5303 201.913 92.3936 202.35 92.3936 202.95C92.3936 203.537 92.5303 203.977 92.8036 204.27C93.0836 204.563 93.4003 204.71 93.7536 204.71ZM92.3936 200.43V201.21C92.7403 200.643 93.2603 200.36 93.9536 200.36C94.6203 200.36 95.147 200.603 95.5336 201.09C95.9203 201.57 96.1136 202.183 96.1136 202.93C96.1136 203.697 95.9136 204.33 95.5136 204.83C95.1203 205.323 94.5936 205.57 93.9336 205.57C93.2603 205.57 92.747 205.29 92.3936 204.73V207.44H91.4136V200.43H92.3936ZM100.364 202.6V202.42C100.351 202.04 100.248 201.74 100.054 201.52C99.8611 201.293 99.5844 201.18 99.2244 201.18C98.8911 201.18 98.6044 201.303 98.3644 201.55C98.1244 201.79 97.9744 202.14 97.9144 202.6H100.364ZM100.994 204.35V205.23C100.621 205.443 100.128 205.55 99.5144 205.55C98.7277 205.55 98.1011 205.313 97.6344 204.84C97.1677 204.367 96.9344 203.747 96.9344 202.98C96.9344 202.167 97.1477 201.53 97.5744 201.07C98.0011 200.603 98.5444 200.37 99.2044 200.37C99.8511 200.37 100.364 200.573 100.744 200.98C101.124 201.38 101.314 201.96 101.314 202.72C101.314 202.927 101.294 203.143 101.254 203.37H97.9244C97.9911 203.81 98.1777 204.147 98.4844 204.38C98.7911 204.613 99.1777 204.73 99.6444 204.73C100.184 204.73 100.634 204.603 100.994 204.35ZM103.448 200.43V201.32C103.695 200.693 104.138 200.38 104.778 200.38C104.872 200.38 104.975 200.39 105.088 200.41V201.37C104.948 201.31 104.792 201.28 104.618 201.28C104.278 201.28 103.998 201.43 103.778 201.73C103.558 202.03 103.448 202.387 103.448 202.8V205.5H102.468V200.43H103.448ZM107.127 201.19V203.98C107.127 204.467 107.36 204.71 107.827 204.71C108.1 204.71 108.33 204.637 108.517 204.49V205.37C108.297 205.49 108.027 205.55 107.707 205.55C106.66 205.55 106.137 205.02 106.137 203.96V201.19H105.347V200.43H106.137V199.19H107.127V200.43H108.457V201.19H107.127ZM109.637 205.5V200.43H110.627V205.5H109.637ZM109.687 199.32C109.574 199.2 109.517 199.053 109.517 198.88C109.517 198.707 109.574 198.56 109.687 198.44C109.807 198.32 109.954 198.26 110.127 198.26C110.301 198.26 110.447 198.32 110.567 198.44C110.687 198.56 110.747 198.707 110.747 198.88C110.747 199.047 110.687 199.19 110.567 199.31C110.447 199.43 110.301 199.49 110.127 199.49C109.954 199.49 109.807 199.433 109.687 199.32ZM115.909 205.39L113.889 200.43H114.979L115.609 202.08L116.399 204.22C116.459 204.02 116.699 203.307 117.119 202.08L117.689 200.43H118.729L116.899 205.36C116.413 206.66 115.669 207.31 114.669 207.31C114.489 207.31 114.336 207.293 114.209 207.26V206.42C114.316 206.447 114.429 206.46 114.549 206.46C115.196 206.46 115.649 206.103 115.909 205.39ZM122.218 203.24H121.458C121.085 203.24 120.802 203.313 120.608 203.46C120.422 203.607 120.328 203.793 120.328 204.02C120.328 204.253 120.402 204.437 120.548 204.57C120.695 204.703 120.908 204.77 121.188 204.77C121.508 204.77 121.758 204.683 121.938 204.51C122.125 204.33 122.218 204.097 122.218 203.81V203.24ZM119.668 201.64V200.69C120.062 200.463 120.582 200.35 121.228 200.35C122.555 200.35 123.218 200.993 123.218 202.28V205.5H122.248V204.9C121.988 205.327 121.532 205.54 120.878 205.54C120.398 205.54 120.012 205.403 119.718 205.13C119.432 204.85 119.288 204.497 119.288 204.07C119.288 203.583 119.472 203.207 119.838 202.94C120.205 202.667 120.718 202.53 121.378 202.53H122.218V202.24C122.218 201.893 122.135 201.633 121.968 201.46C121.802 201.28 121.525 201.19 121.138 201.19C120.598 201.19 120.108 201.34 119.668 201.64ZM124.579 205.5V200.43H125.569V205.5H124.579ZM124.629 199.32C124.515 199.2 124.459 199.053 124.459 198.88C124.459 198.707 124.515 198.56 124.629 198.44C124.749 198.32 124.895 198.26 125.069 198.26C125.242 198.26 125.389 198.32 125.509 198.44C125.629 198.56 125.689 198.707 125.689 198.88C125.689 199.047 125.629 199.19 125.509 199.31C125.389 199.43 125.242 199.49 125.069 199.49C124.895 199.49 124.749 199.433 124.629 199.32ZM128.26 201.19V203.98C128.26 204.467 128.493 204.71 128.96 204.71C129.233 204.71 129.463 204.637 129.65 204.49V205.37C129.43 205.49 129.16 205.55 128.84 205.55C127.793 205.55 127.27 205.02 127.27 203.96V201.19H126.48V200.43H127.27V199.19H128.26V200.43H129.59V201.19H128.26ZM133.88 200.43H134.86V205.5H133.88V204.63C133.613 205.25 133.087 205.56 132.3 205.56C131.8 205.56 131.403 205.413 131.11 205.12C130.817 204.82 130.67 204.41 130.67 203.89V200.43H131.66V203.65C131.66 203.997 131.743 204.263 131.91 204.45C132.083 204.63 132.32 204.72 132.62 204.72C133 204.72 133.303 204.587 133.53 204.32C133.763 204.053 133.88 203.677 133.88 203.19V200.43ZM160.895 204.71C161.282 204.71 161.609 204.563 161.875 204.27C162.142 203.977 162.275 203.53 162.275 202.93C162.275 202.35 162.135 201.92 161.855 201.64C161.582 201.36 161.272 201.22 160.925 201.22C160.532 201.22 160.209 201.377 159.955 201.69C159.702 201.997 159.575 202.437 159.575 203.01C159.575 203.517 159.699 203.927 159.945 204.24C160.199 204.553 160.515 204.71 160.895 204.71ZM162.275 198.43H163.265V205.5H162.275V204.73C161.922 205.29 161.405 205.57 160.725 205.57C160.059 205.57 159.532 205.32 159.145 204.82C158.759 204.313 158.565 203.703 158.565 202.99C158.565 202.197 158.769 201.56 159.175 201.08C159.582 200.6 160.105 200.36 160.745 200.36C161.405 200.36 161.915 200.64 162.275 201.2V198.43ZM167.316 203.24H166.556C166.183 203.24 165.899 203.313 165.706 203.46C165.519 203.607 165.426 203.793 165.426 204.02C165.426 204.253 165.499 204.437 165.646 204.57C165.793 204.703 166.006 204.77 166.286 204.77C166.606 204.77 166.856 204.683 167.036 204.51C167.223 204.33 167.316 204.097 167.316 203.81V203.24ZM164.766 201.64V200.69C165.159 200.463 165.679 200.35 166.326 200.35C167.653 200.35 168.316 200.993 168.316 202.28V205.5H167.346V204.9C167.086 205.327 166.629 205.54 165.976 205.54C165.496 205.54 165.109 205.403 164.816 205.13C164.529 204.85 164.386 204.497 164.386 204.07C164.386 203.583 164.569 203.207 164.936 202.94C165.303 202.667 165.816 202.53 166.476 202.53H167.316V202.24C167.316 201.893 167.233 201.633 167.066 201.46C166.899 201.28 166.623 201.19 166.236 201.19C165.696 201.19 165.206 201.34 164.766 201.64ZM170.616 200.43V201.32C170.863 200.693 171.306 200.38 171.946 200.38C172.04 200.38 172.143 200.39 172.256 200.41V201.37C172.116 201.31 171.96 201.28 171.786 201.28C171.446 201.28 171.166 201.43 170.946 201.73C170.726 202.03 170.616 202.387 170.616 202.8V205.5H169.636V200.43H170.616ZM173.065 205.5V200.43H174.055V205.5H173.065ZM173.115 199.32C173.002 199.2 172.945 199.053 172.945 198.88C172.945 198.707 173.002 198.56 173.115 198.44C173.235 198.32 173.382 198.26 173.555 198.26C173.728 198.26 173.875 198.32 173.995 198.44C174.115 198.56 174.175 198.707 174.175 198.88C174.175 199.047 174.115 199.19 173.995 199.31C173.875 199.43 173.728 199.49 173.555 199.49C173.382 199.49 173.235 199.433 173.115 199.32ZM178.917 198.43V201.3C179.204 200.673 179.727 200.36 180.487 200.36C180.98 200.36 181.377 200.513 181.677 200.82C181.977 201.127 182.127 201.553 182.127 202.1V205.5H181.147V202.3C181.147 201.953 181.057 201.687 180.877 201.5C180.704 201.307 180.474 201.21 180.187 201.21C179.854 201.21 179.557 201.337 179.297 201.59C179.044 201.843 178.917 202.23 178.917 202.75V205.5H177.937V198.43H178.917ZM186.115 203.24H185.355C184.982 203.24 184.698 203.313 184.505 203.46C184.318 203.607 184.225 203.793 184.225 204.02C184.225 204.253 184.298 204.437 184.445 204.57C184.592 204.703 184.805 204.77 185.085 204.77C185.405 204.77 185.655 204.683 185.835 204.51C186.022 204.33 186.115 204.097 186.115 203.81V203.24ZM183.565 201.64V200.69C183.958 200.463 184.478 200.35 185.125 200.35C186.452 200.35 187.115 200.993 187.115 202.28V205.5H186.145V204.9C185.885 205.327 185.428 205.54 184.775 205.54C184.295 205.54 183.908 205.403 183.615 205.13C183.328 204.85 183.185 204.497 183.185 204.07C183.185 203.583 183.368 203.207 183.735 202.94C184.102 202.667 184.615 202.53 185.275 202.53H186.115V202.24C186.115 201.893 186.032 201.633 185.865 201.46C185.698 201.28 185.422 201.19 185.035 201.19C184.495 201.19 184.005 201.34 183.565 201.64ZM189.415 200.43V201.32C189.662 200.693 190.105 200.38 190.745 200.38C190.838 200.38 190.942 200.39 191.055 200.41V201.37C190.915 201.31 190.758 201.28 190.585 201.28C190.245 201.28 189.965 201.43 189.745 201.73C189.525 202.03 189.415 202.387 189.415 202.8V205.5H188.435V200.43H189.415ZM193.824 204.52C194.17 204.52 194.47 204.387 194.724 204.12C194.984 203.847 195.114 203.467 195.114 202.98C195.114 202.38 194.99 201.937 194.744 201.65C194.504 201.363 194.21 201.22 193.864 201.22C193.47 201.22 193.16 201.377 192.934 201.69C192.707 201.997 192.594 202.403 192.594 202.91C192.594 203.437 192.714 203.837 192.954 204.11C193.2 204.383 193.49 204.52 193.824 204.52ZM195.114 200.43H196.094V205.07C196.094 205.85 195.87 206.437 195.424 206.83C194.984 207.23 194.417 207.43 193.724 207.43C193.07 207.43 192.52 207.32 192.074 207.1V206.11C192.5 206.39 193.017 206.53 193.624 206.53C194.617 206.53 195.114 206.04 195.114 205.06V204.54C194.787 205.087 194.297 205.36 193.644 205.36C193.07 205.36 192.58 205.15 192.174 204.73C191.767 204.303 191.564 203.703 191.564 202.93C191.564 202.183 191.754 201.57 192.134 201.09C192.514 200.603 193.017 200.36 193.644 200.36C194.317 200.36 194.807 200.647 195.114 201.22V200.43ZM200.08 203.24H199.32C198.946 203.24 198.663 203.313 198.47 203.46C198.283 203.607 198.19 203.793 198.19 204.02C198.19 204.253 198.263 204.437 198.41 204.57C198.556 204.703 198.77 204.77 199.05 204.77C199.37 204.77 199.62 204.683 199.8 204.51C199.986 204.33 200.08 204.097 200.08 203.81V203.24ZM197.53 201.64V200.69C197.923 200.463 198.443 200.35 199.09 200.35C200.416 200.35 201.08 200.993 201.08 202.28V205.5H200.11V204.9C199.85 205.327 199.393 205.54 198.74 205.54C198.26 205.54 197.873 205.403 197.58 205.13C197.293 204.85 197.15 204.497 197.15 204.07C197.15 203.583 197.333 203.207 197.7 202.94C198.066 202.667 198.58 202.53 199.24 202.53H200.08V202.24C200.08 201.893 199.996 201.633 199.83 201.46C199.663 201.28 199.386 201.19 199 201.19C198.46 201.19 197.97 201.34 197.53 201.64ZM207.751 200.6V201.49C207.424 201.297 207.004 201.2 206.491 201.2C206.258 201.2 206.071 201.253 205.931 201.36C205.798 201.467 205.731 201.607 205.731 201.78C205.731 201.827 205.734 201.873 205.741 201.92C205.754 201.96 205.774 202.003 205.801 202.05C205.828 202.09 205.851 202.127 205.871 202.16C205.898 202.187 205.938 202.217 205.991 202.25C206.044 202.283 206.084 202.313 206.111 202.34C206.144 202.36 206.194 202.387 206.261 202.42C206.334 202.453 206.388 202.48 206.421 202.5C206.454 202.513 206.511 202.54 206.591 202.58C206.678 202.613 206.738 202.637 206.771 202.65C207.164 202.823 207.471 203.02 207.691 203.24C207.918 203.453 208.031 203.74 208.031 204.1C208.031 204.553 207.871 204.91 207.551 205.17C207.231 205.423 206.798 205.55 206.251 205.55C205.651 205.55 205.151 205.45 204.751 205.25V204.32C205.218 204.607 205.701 204.75 206.201 204.75C206.461 204.75 206.661 204.697 206.801 204.59C206.948 204.483 207.021 204.343 207.021 204.17C207.021 204.023 206.964 203.893 206.851 203.78C206.738 203.66 206.621 203.573 206.501 203.52C206.388 203.46 206.191 203.37 205.911 203.25C205.118 202.923 204.721 202.443 204.721 201.81C204.721 201.363 204.888 201.013 205.221 200.76C205.554 200.507 205.971 200.38 206.471 200.38C207.018 200.38 207.444 200.453 207.751 200.6ZM212.2 202.6V202.42C212.187 202.04 212.084 201.74 211.89 201.52C211.697 201.293 211.42 201.18 211.06 201.18C210.727 201.18 210.44 201.303 210.2 201.55C209.96 201.79 209.81 202.14 209.75 202.6H212.2ZM212.83 204.35V205.23C212.457 205.443 211.964 205.55 211.35 205.55C210.564 205.55 209.937 205.313 209.47 204.84C209.004 204.367 208.77 203.747 208.77 202.98C208.77 202.167 208.984 201.53 209.41 201.07C209.837 200.603 210.38 200.37 211.04 200.37C211.687 200.37 212.2 200.573 212.58 200.98C212.96 201.38 213.15 201.96 213.15 202.72C213.15 202.927 213.13 203.143 213.09 203.37H209.76C209.827 203.81 210.014 204.147 210.32 204.38C210.627 204.613 211.014 204.73 211.48 204.73C212.02 204.73 212.47 204.603 212.83 204.35ZM215.394 205.5L213.804 200.43H214.844L215.314 202.11C215.468 202.643 215.598 203.113 215.704 203.52C215.811 203.927 215.878 204.2 215.904 204.34L215.944 204.55C216.031 204.13 216.251 203.313 216.604 202.1L217.094 200.43H218.044L218.544 202.1C218.704 202.653 218.841 203.137 218.954 203.55C219.068 203.957 219.141 204.227 219.174 204.36L219.214 204.56C219.294 204.167 219.521 203.347 219.894 202.1L220.394 200.43H221.384L219.774 205.5H218.654L218.184 203.84C218.044 203.333 217.921 202.887 217.814 202.5C217.714 202.107 217.648 201.84 217.614 201.7L217.574 201.5C217.481 201.933 217.278 202.713 216.964 203.84L216.504 205.5H215.394ZM224.933 203.24H224.173C223.8 203.24 223.517 203.313 223.323 203.46C223.137 203.607 223.043 203.793 223.043 204.02C223.043 204.253 223.117 204.437 223.263 204.57C223.41 204.703 223.623 204.77 223.903 204.77C224.223 204.77 224.473 204.683 224.653 204.51C224.84 204.33 224.933 204.097 224.933 203.81V203.24ZM222.383 201.64V200.69C222.777 200.463 223.297 200.35 223.943 200.35C225.27 200.35 225.933 200.993 225.933 202.28V205.5H224.963V204.9C224.703 205.327 224.247 205.54 223.593 205.54C223.113 205.54 222.727 205.403 222.433 205.13C222.147 204.85 222.003 204.497 222.003 204.07C222.003 203.583 222.187 203.207 222.553 202.94C222.92 202.667 223.433 202.53 224.093 202.53H224.933V202.24C224.933 201.893 224.85 201.633 224.683 201.46C224.517 201.28 224.24 201.19 223.853 201.19C223.313 201.19 222.823 201.34 222.383 201.64ZM232.604 200.6V201.49C232.278 201.297 231.858 201.2 231.344 201.2C231.111 201.2 230.924 201.253 230.784 201.36C230.651 201.467 230.584 201.607 230.584 201.78C230.584 201.827 230.588 201.873 230.594 201.92C230.608 201.96 230.628 202.003 230.654 202.05C230.681 202.09 230.704 202.127 230.724 202.16C230.751 202.187 230.791 202.217 230.844 202.25C230.898 202.283 230.938 202.313 230.964 202.34C230.998 202.36 231.048 202.387 231.114 202.42C231.188 202.453 231.241 202.48 231.274 202.5C231.308 202.513 231.364 202.54 231.444 202.58C231.531 202.613 231.591 202.637 231.624 202.65C232.018 202.823 232.324 203.02 232.544 203.24C232.771 203.453 232.884 203.74 232.884 204.1C232.884 204.553 232.724 204.91 232.404 205.17C232.084 205.423 231.651 205.55 231.104 205.55C230.504 205.55 230.004 205.45 229.604 205.25V204.32C230.071 204.607 230.554 204.75 231.054 204.75C231.314 204.75 231.514 204.697 231.654 204.59C231.801 204.483 231.874 204.343 231.874 204.17C231.874 204.023 231.818 203.893 231.704 203.78C231.591 203.66 231.474 203.573 231.354 203.52C231.241 203.46 231.044 203.37 230.764 203.25C229.971 202.923 229.574 202.443 229.574 201.81C229.574 201.363 229.741 201.013 230.074 200.76C230.408 200.507 230.824 200.38 231.324 200.38C231.871 200.38 232.298 200.453 232.604 200.6ZM237.054 202.6V202.42C237.041 202.04 236.937 201.74 236.744 201.52C236.551 201.293 236.274 201.18 235.914 201.18C235.581 201.18 235.294 201.303 235.054 201.55C234.814 201.79 234.664 202.14 234.604 202.6H237.054ZM237.684 204.35V205.23C237.311 205.443 236.817 205.55 236.204 205.55C235.417 205.55 234.791 205.313 234.324 204.84C233.857 204.367 233.624 203.747 233.624 202.98C233.624 202.167 233.837 201.53 234.264 201.07C234.691 200.603 235.234 200.37 235.894 200.37C236.541 200.37 237.054 200.573 237.434 200.98C237.814 201.38 238.004 201.96 238.004 202.72C238.004 202.927 237.984 203.143 237.944 203.37H234.614C234.681 203.81 234.867 204.147 235.174 204.38C235.481 204.613 235.867 204.73 236.334 204.73C236.874 204.73 237.324 204.603 237.684 204.35ZM241.548 204.71C241.921 204.71 242.234 204.553 242.488 204.24C242.741 203.92 242.868 203.51 242.868 203.01C242.868 202.437 242.741 201.997 242.488 201.69C242.234 201.377 241.911 201.22 241.518 201.22C241.171 201.22 240.858 201.36 240.578 201.64C240.304 201.92 240.168 202.35 240.168 202.93C240.168 203.53 240.301 203.977 240.568 204.27C240.834 204.563 241.161 204.71 241.548 204.71ZM240.168 198.43V201.2C240.528 200.64 241.038 200.36 241.698 200.36C242.338 200.36 242.861 200.6 243.268 201.08C243.674 201.56 243.878 202.197 243.878 202.99C243.878 203.703 243.684 204.313 243.298 204.82C242.911 205.32 242.381 205.57 241.708 205.57C241.034 205.57 240.521 205.29 240.168 204.73V205.5H239.178V198.43H240.168ZM248.128 202.6V202.42C248.115 202.04 248.011 201.74 247.818 201.52C247.625 201.293 247.348 201.18 246.988 201.18C246.655 201.18 246.368 201.303 246.128 201.55C245.888 201.79 245.738 202.14 245.678 202.6H248.128ZM248.758 204.35V205.23C248.385 205.443 247.891 205.55 247.278 205.55C246.491 205.55 245.865 205.313 245.398 204.84C244.931 204.367 244.698 203.747 244.698 202.98C244.698 202.167 244.911 201.53 245.338 201.07C245.765 200.603 246.308 200.37 246.968 200.37C247.615 200.37 248.128 200.573 248.508 200.98C248.888 201.38 249.078 201.96 249.078 202.72C249.078 202.927 249.058 203.143 249.018 203.37H245.688C245.755 203.81 245.941 204.147 246.248 204.38C246.555 204.613 246.941 204.73 247.408 204.73C247.948 204.73 248.398 204.603 248.758 204.35ZM253.122 200.6V201.49C252.795 201.297 252.375 201.2 251.862 201.2C251.629 201.2 251.442 201.253 251.302 201.36C251.169 201.467 251.102 201.607 251.102 201.78C251.102 201.827 251.105 201.873 251.112 201.92C251.125 201.96 251.145 202.003 251.172 202.05C251.199 202.09 251.222 202.127 251.242 202.16C251.269 202.187 251.309 202.217 251.362 202.25C251.415 202.283 251.455 202.313 251.482 202.34C251.515 202.36 251.565 202.387 251.632 202.42C251.705 202.453 251.759 202.48 251.792 202.5C251.825 202.513 251.882 202.54 251.962 202.58C252.049 202.613 252.109 202.637 252.142 202.65C252.535 202.823 252.842 203.02 253.062 203.24C253.289 203.453 253.402 203.74 253.402 204.1C253.402 204.553 253.242 204.91 252.922 205.17C252.602 205.423 252.169 205.55 251.622 205.55C251.022 205.55 250.522 205.45 250.122 205.25V204.32C250.589 204.607 251.072 204.75 251.572 204.75C251.832 204.75 252.032 204.697 252.172 204.59C252.319 204.483 252.392 204.343 252.392 204.17C252.392 204.023 252.335 203.893 252.222 203.78C252.109 203.66 251.992 203.573 251.872 203.52C251.759 203.46 251.562 203.37 251.282 203.25C250.489 202.923 250.092 202.443 250.092 201.81C250.092 201.363 250.259 201.013 250.592 200.76C250.925 200.507 251.342 200.38 251.842 200.38C252.389 200.38 252.815 200.453 253.122 200.6ZM257.091 203.24H256.331C255.958 203.24 255.675 203.313 255.481 203.46C255.295 203.607 255.201 203.793 255.201 204.02C255.201 204.253 255.275 204.437 255.421 204.57C255.568 204.703 255.781 204.77 256.061 204.77C256.381 204.77 256.631 204.683 256.811 204.51C256.998 204.33 257.091 204.097 257.091 203.81V203.24ZM254.541 201.64V200.69C254.935 200.463 255.455 200.35 256.101 200.35C257.428 200.35 258.091 200.993 258.091 202.28V205.5H257.121V204.9C256.861 205.327 256.405 205.54 255.751 205.54C255.271 205.54 254.885 205.403 254.591 205.13C254.305 204.85 254.161 204.497 254.161 204.07C254.161 203.583 254.345 203.207 254.711 202.94C255.078 202.667 255.591 202.53 256.251 202.53H257.091V202.24C257.091 201.893 257.008 201.633 256.841 201.46C256.675 201.28 256.398 201.19 256.011 201.19C255.471 201.19 254.981 201.34 254.541 201.64ZM260.392 200.43V201.32C260.638 200.693 261.082 200.38 261.722 200.38C261.815 200.38 261.918 200.39 262.032 200.41V201.37C261.892 201.31 261.735 201.28 261.562 201.28C261.222 201.28 260.942 201.43 260.722 201.73C260.502 202.03 260.392 202.387 260.392 202.8V205.5H259.412V200.43H260.392Z" fill="#2B2B2B"/>
<path d="M138.169 200.98V199.93L139.799 198.96H140.689V205.5H139.719V200.03L138.169 200.98ZM141.817 202.21C141.817 201.183 142.021 200.37 142.427 199.77C142.841 199.163 143.404 198.86 144.117 198.86C144.844 198.86 145.414 199.16 145.827 199.76C146.241 200.36 146.447 201.177 146.447 202.21C146.447 203.23 146.244 204.047 145.837 204.66C145.437 205.273 144.864 205.58 144.117 205.58C143.404 205.58 142.841 205.273 142.427 204.66C142.021 204.047 141.817 203.23 141.817 202.21ZM143.187 200.41C142.941 200.83 142.817 201.43 142.817 202.21C142.817 202.99 142.937 203.597 143.177 204.03C143.424 204.457 143.737 204.67 144.117 204.67C144.531 204.67 144.854 204.457 145.087 204.03C145.321 203.603 145.437 202.997 145.437 202.21C145.437 201.417 145.314 200.813 145.067 200.4C144.827 199.98 144.511 199.77 144.117 199.77C143.744 199.77 143.434 199.983 143.187 200.41ZM148.976 205.51L152.616 198.73H153.546L149.896 205.51H148.976ZM151.866 203.9C151.866 203.44 152.03 203.047 152.356 202.72C152.683 202.387 153.08 202.22 153.546 202.22C154.006 202.22 154.4 202.387 154.726 202.72C155.053 203.047 155.216 203.44 155.216 203.9C155.216 204.367 155.053 204.763 154.726 205.09C154.4 205.41 154.006 205.57 153.546 205.57C153.08 205.57 152.683 205.41 152.356 205.09C152.03 204.763 151.866 204.367 151.866 203.9ZM147.336 200.3C147.336 199.84 147.5 199.447 147.826 199.12C148.153 198.793 148.546 198.63 149.006 198.63C149.473 198.63 149.87 198.793 150.196 199.12C150.523 199.447 150.686 199.84 150.686 200.3C150.686 200.767 150.523 201.163 150.196 201.49C149.87 201.817 149.473 201.98 149.006 201.98C148.546 201.98 148.153 201.817 147.826 201.49C147.5 201.163 147.336 200.767 147.336 200.3ZM148.166 200.3C148.166 200.533 148.246 200.733 148.406 200.9C148.573 201.067 148.773 201.15 149.006 201.15C149.24 201.15 149.44 201.067 149.606 200.9C149.773 200.733 149.856 200.533 149.856 200.3C149.856 200.067 149.773 199.87 149.606 199.71C149.44 199.543 149.24 199.46 149.006 199.46C148.773 199.46 148.573 199.543 148.406 199.71C148.246 199.877 148.166 200.073 148.166 200.3ZM152.946 203.3C152.78 203.467 152.696 203.667 152.696 203.9C152.696 204.133 152.78 204.333 152.946 204.5C153.113 204.667 153.313 204.75 153.546 204.75C153.78 204.75 153.976 204.667 154.136 204.5C154.303 204.333 154.386 204.133 154.386 203.9C154.386 203.667 154.303 203.467 154.136 203.3C153.976 203.133 153.78 203.05 153.546 203.05C153.313 203.05 153.113 203.133 152.946 203.3Z" fill="#B76F09"/>
<path d="M148.973 215.62V218.08H149.903C150.33 218.08 150.653 217.97 150.873 217.75C151.093 217.523 151.203 217.223 151.203 216.85C151.203 216.03 150.753 215.62 149.853 215.62H148.973ZM151.443 221.5L149.863 218.94H148.973V221.5H147.943V214.76H149.823C150.596 214.76 151.193 214.95 151.613 215.33C152.033 215.703 152.243 216.213 152.243 216.86C152.236 217.333 152.116 217.737 151.883 218.07C151.65 218.397 151.326 218.633 150.913 218.78L152.673 221.5H151.443ZM155.926 220.71C156.32 220.71 156.643 220.557 156.896 220.25C157.15 219.937 157.276 219.5 157.276 218.94C157.276 218.413 157.153 217.997 156.906 217.69C156.66 217.377 156.346 217.22 155.966 217.22C155.586 217.22 155.256 217.36 154.976 217.64C154.703 217.913 154.566 218.35 154.566 218.95C154.566 219.537 154.703 219.977 154.976 220.27C155.256 220.563 155.573 220.71 155.926 220.71ZM154.566 216.43V217.21C154.913 216.643 155.433 216.36 156.126 216.36C156.793 216.36 157.32 216.603 157.706 217.09C158.093 217.57 158.286 218.183 158.286 218.93C158.286 219.697 158.086 220.33 157.686 220.83C157.293 221.323 156.766 221.57 156.106 221.57C155.433 221.57 154.92 221.29 154.566 220.73V223.44H153.586V216.43H154.566ZM163.828 220.75C164.235 220.75 164.545 220.65 164.758 220.45C164.978 220.25 165.088 220.003 165.088 219.71C165.088 219.417 164.982 219.17 164.768 218.97C164.555 218.77 164.242 218.67 163.828 218.67C163.428 218.677 163.125 218.787 162.918 219C162.718 219.207 162.618 219.463 162.618 219.77C162.618 220.05 162.722 220.283 162.928 220.47C163.135 220.657 163.435 220.75 163.828 220.75ZM163.818 215.71C163.478 215.71 163.212 215.81 163.018 216.01C162.825 216.21 162.728 216.453 162.728 216.74C162.728 217.08 162.832 217.34 163.038 217.52C163.252 217.693 163.525 217.78 163.858 217.78C164.172 217.78 164.428 217.69 164.628 217.51C164.835 217.323 164.938 217.063 164.938 216.73C164.938 216.437 164.845 216.193 164.658 216C164.478 215.807 164.198 215.71 163.818 215.71ZM164.958 218.21C165.705 218.463 166.078 218.98 166.078 219.76C166.078 220.313 165.865 220.757 165.438 221.09C165.012 221.423 164.472 221.59 163.818 221.59C163.178 221.59 162.652 221.43 162.238 221.11C161.825 220.783 161.618 220.35 161.618 219.81C161.618 219.037 161.988 218.507 162.728 218.22C162.415 218.087 162.168 217.893 161.988 217.64C161.815 217.387 161.728 217.09 161.728 216.75C161.728 216.163 161.932 215.703 162.338 215.37C162.745 215.037 163.238 214.87 163.818 214.87C164.418 214.87 164.922 215.033 165.328 215.36C165.735 215.68 165.938 216.147 165.938 216.76C165.938 217.42 165.612 217.903 164.958 218.21ZM166.949 218.21C166.949 217.183 167.152 216.37 167.559 215.77C167.972 215.163 168.536 214.86 169.249 214.86C169.976 214.86 170.546 215.16 170.959 215.76C171.372 216.36 171.579 217.177 171.579 218.21C171.579 219.23 171.376 220.047 170.969 220.66C170.569 221.273 169.996 221.58 169.249 221.58C168.536 221.58 167.972 221.273 167.559 220.66C167.152 220.047 166.949 219.23 166.949 218.21ZM168.319 216.41C168.072 216.83 167.949 217.43 167.949 218.21C167.949 218.99 168.069 219.597 168.309 220.03C168.556 220.457 168.869 220.67 169.249 220.67C169.662 220.67 169.986 220.457 170.219 220.03C170.452 219.603 170.569 218.997 170.569 218.21C170.569 217.417 170.446 216.813 170.199 216.4C169.959 215.98 169.642 215.77 169.249 215.77C168.876 215.77 168.566 215.983 168.319 216.41ZM171.908 222.74L172.868 220.4H174.078L172.768 222.74H171.908ZM174.849 218.21C174.849 217.183 175.053 216.37 175.459 215.77C175.873 215.163 176.436 214.86 177.149 214.86C177.876 214.86 178.446 215.16 178.859 215.76C179.273 216.36 179.479 217.177 179.479 218.21C179.479 219.23 179.276 220.047 178.869 220.66C178.469 221.273 177.896 221.58 177.149 221.58C176.436 221.58 175.873 221.273 175.459 220.66C175.053 220.047 174.849 219.23 174.849 218.21ZM176.219 216.41C175.973 216.83 175.849 217.43 175.849 218.21C175.849 218.99 175.969 219.597 176.209 220.03C176.456 220.457 176.769 220.67 177.149 220.67C177.563 220.67 177.886 220.457 178.119 220.03C178.353 219.603 178.469 218.997 178.469 218.21C178.469 217.417 178.346 216.813 178.099 216.4C177.859 215.98 177.543 215.77 177.149 215.77C176.776 215.77 176.466 215.983 176.219 216.41ZM180.299 218.21C180.299 217.183 180.502 216.37 180.909 215.77C181.322 215.163 181.885 214.86 182.599 214.86C183.325 214.86 183.895 215.16 184.309 215.76C184.722 216.36 184.929 217.177 184.929 218.21C184.929 219.23 184.725 220.047 184.319 220.66C183.919 221.273 183.345 221.58 182.599 221.58C181.885 221.58 181.322 221.273 180.909 220.66C180.502 220.047 180.299 219.23 180.299 218.21ZM181.669 216.41C181.422 216.83 181.299 217.43 181.299 218.21C181.299 218.99 181.419 219.597 181.659 220.03C181.905 220.457 182.219 220.67 182.599 220.67C183.012 220.67 183.335 220.457 183.569 220.03C183.802 219.603 183.919 218.997 183.919 218.21C183.919 217.417 183.795 216.813 183.549 216.4C183.309 215.98 182.992 215.77 182.599 215.77C182.225 215.77 181.915 215.983 181.669 216.41ZM185.748 218.21C185.748 217.183 185.951 216.37 186.358 215.77C186.771 215.163 187.335 214.86 188.048 214.86C188.775 214.86 189.345 215.16 189.758 215.76C190.171 216.36 190.378 217.177 190.378 218.21C190.378 219.23 190.175 220.047 189.768 220.66C189.368 221.273 188.795 221.58 188.048 221.58C187.335 221.58 186.771 221.273 186.358 220.66C185.951 220.047 185.748 219.23 185.748 218.21ZM187.118 216.41C186.871 216.83 186.748 217.43 186.748 218.21C186.748 218.99 186.868 219.597 187.108 220.03C187.355 220.457 187.668 220.67 188.048 220.67C188.461 220.67 188.785 220.457 189.018 220.03C189.251 219.603 189.368 218.997 189.368 218.21C189.368 217.417 189.245 216.813 188.998 216.4C188.758 215.98 188.441 215.77 188.048 215.77C187.675 215.77 187.365 215.983 187.118 216.41Z" fill="#FF1934"/>
<rect x="109" y="275" width="120" height="24" rx="8" fill="#FF1934"/>
<path d="M157.959 288.176L158.823 288.176C159.468 288.176 159.791 287.931 159.791 287.44C159.791 286.939 159.455 286.688 158.783 286.688L157.959 286.688L157.959 288.176ZM157.959 284.432L157.959 285.88L158.567 285.88C158.929 285.88 159.201 285.808 159.383 285.664C159.564 285.52 159.655 285.336 159.655 285.112C159.655 284.904 159.577 284.739 159.423 284.616C159.273 284.493 159.044 284.432 158.735 284.432L157.959 284.432ZM156.951 283.608L158.863 283.608C159.439 283.608 159.887 283.744 160.207 284.016C160.527 284.288 160.687 284.64 160.687 285.072C160.687 285.365 160.607 285.621 160.447 285.84C160.287 286.053 160.081 286.195 159.831 286.264C160.119 286.333 160.356 286.475 160.543 286.688C160.729 286.896 160.823 287.181 160.823 287.544C160.823 287.971 160.673 288.32 160.375 288.592C160.076 288.864 159.663 289 159.135 289L156.951 289L156.951 283.608ZM163.053 286.952L164.573 286.952L164.501 286.712C164.32 286.136 164.17 285.653 164.053 285.264C163.941 284.869 163.872 284.621 163.845 284.52L163.813 284.36C163.765 284.627 163.536 285.413 163.125 286.72L163.053 286.952ZM165.213 289L164.829 287.776L162.789 287.776L162.405 289L161.349 289L163.173 283.608L164.477 283.608L166.301 289L165.213 289ZM171.364 283.608L169.508 287L169.508 289L168.5 289L168.5 287.032L166.66 283.608L167.836 283.608L168.196 284.392C168.404 284.845 168.574 285.227 168.708 285.536C168.841 285.84 168.921 286.029 168.948 286.104L168.996 286.224C169.044 286.027 169.318 285.416 169.82 284.392L170.188 283.608L171.364 283.608ZM173.436 286.952L174.956 286.952L174.884 286.712C174.702 286.136 174.553 285.653 174.436 285.264C174.324 284.869 174.254 284.621 174.228 284.52L174.196 284.36C174.148 284.627 173.918 285.413 173.508 286.72L173.436 286.952ZM175.596 289L175.212 287.776L173.172 287.776L172.788 289L171.732 289L173.556 283.608L174.86 283.608L176.684 289L175.596 289ZM178.466 284.44L178.466 286.2L179.138 286.2C179.448 286.2 179.68 286.123 179.834 285.968C179.989 285.808 180.066 285.587 180.066 285.304C180.066 285.027 179.984 284.813 179.818 284.664C179.658 284.515 179.426 284.44 179.122 284.44L178.466 284.44ZM180.242 289L179.018 287.032L178.466 287.032L178.466 289L177.458 289L177.458 283.608L179.122 283.608C179.736 283.608 180.216 283.763 180.562 284.072C180.914 284.381 181.09 284.795 181.09 285.312C181.085 285.696 180.992 286.021 180.81 286.288C180.629 286.549 180.381 286.744 180.066 286.872L181.45 289L180.242 289Z" fill="white"/>
<path d="M9 341.5H329C333.694 341.5 337.5 345.306 337.5 350C337.5 354.694 333.694 358.5 329 358.5H9C4.30558 358.5 0.5 354.694 0.5 350C0.500002 345.306 4.30558 341.5 9 341.5Z" fill="white"/>
<path d="M9 341.5H329C333.694 341.5 337.5 345.306 337.5 350C337.5 354.694 333.694 358.5 329 358.5H9C4.30558 358.5 0.5 354.694 0.5 350C0.500002 345.306 4.30558 341.5 9 341.5Z" stroke="#CCCCCC"/>
<path d="M7.86805e-07 350C3.52265e-07 345.029 4.02944 341 9 341L39 341C43.9706 341 48 345.029 48 350C48 354.971 43.9706 359 39 359L9 359C4.02944 359 1.22135e-06 354.971 7.86805e-07 350Z" fill="#FF1934"/>
<path d="M15.448 346.688H16.264L16.816 348.6L17.456 350.92C17.5893 350.179 17.7547 349.403 17.952 348.592L18.44 346.608H19.464L18.088 352H16.92L16.432 350.296C16.2987 349.843 16.184 349.443 16.088 349.096C15.9973 348.749 15.936 348.517 15.904 348.4L15.864 348.216C15.7893 348.589 15.6027 349.283 15.304 350.296L14.8 352H13.64L12.2 346.608H13.264L13.768 348.6C13.8533 348.957 13.9387 349.328 14.024 349.712C14.1093 350.096 14.1733 350.389 14.216 350.592L14.28 350.904C14.4507 350.232 14.6587 349.464 14.904 348.6L15.448 346.688ZM22.2561 350.256H21.7601C21.5094 350.256 21.3174 350.309 21.1841 350.416C21.0507 350.517 20.9841 350.648 20.9841 350.808C20.9841 351.149 21.1814 351.32 21.5761 351.32C21.7894 351.32 21.9547 351.259 22.0721 351.136C22.1947 351.008 22.2561 350.843 22.2561 350.64V350.256ZM20.2881 349.04V348.152C20.5921 347.965 21.0294 347.872 21.6001 347.872C22.6987 347.872 23.2481 348.384 23.2481 349.408V352H22.2961V351.512C22.1094 351.859 21.7574 352.032 21.2401 352.032C20.8561 352.032 20.5494 351.92 20.3201 351.696C20.0961 351.472 19.9841 351.189 19.9841 350.848C19.9841 350.464 20.1281 350.163 20.4161 349.944C20.7041 349.725 21.1201 349.616 21.6641 349.616H22.2561V349.368C22.2561 349.144 22.1974 348.973 22.0801 348.856C21.9627 348.739 21.7627 348.68 21.4801 348.68C21.0481 348.68 20.6507 348.8 20.2881 349.04ZM27.7828 352H26.6548L25.1988 349.904V352H24.2388V346.44H25.1988V349.848L26.6308 347.944H27.7508L26.2628 349.88L27.7828 352ZM29.5864 348.664V350.728C29.5864 350.899 29.6318 351.029 29.7224 351.12C29.8131 351.205 29.9384 351.248 30.0984 351.248C30.3011 351.248 30.4878 351.192 30.6584 351.08V351.904C30.4718 351.995 30.2318 352.04 29.9384 352.04C29.0638 352.04 28.6264 351.597 28.6264 350.712V348.664H28.0184V347.944H28.6264V346.968H29.5864V347.944H30.5944V348.664H29.5864ZM33.9617 347.944H34.9297V352H33.9617V351.336C33.7484 351.805 33.3324 352.04 32.7137 352.04C32.303 352.04 31.983 351.923 31.7537 351.688C31.5244 351.453 31.4097 351.12 31.4097 350.688V347.944H32.3697V350.464C32.3697 350.72 32.431 350.915 32.5537 351.048C32.6817 351.181 32.855 351.248 33.0737 351.248C33.351 351.248 33.567 351.155 33.7217 350.968C33.8817 350.781 33.9617 350.499 33.9617 350.12V347.944Z" fill="white"/>
<rect x="56" y="348" width="274" height="4" rx="2" fill="#CCCCCC"/>
<mask id="mask0_1124_4113" style="mask-type:alpha" maskUnits="userSpaceOnUse" x="56" y="348" width="274" height="4">
<rect x="56" y="348" width="274" height="4" rx="2" fill="#CCCCCC"/>
</mask>
<g mask="url(#mask0_1124_4113)">
<rect x="56" y="348" width="274" height="4" rx="2" fill="#FF1934"/>
</g>
<defs>
<filter id="filter0_d_1124_4113" x="5" y="48" width="328" height="56" filterUnits="userSpaceOnUse" color-interpolation-filters="sRGB">
<feFlood flood-opacity="0" result="BackgroundImageFix"/>
<feColorMatrix in="SourceAlpha" type="matrix" values="0 0 0 0 0 0 0 0 0 0 0 0 0 0 0 0 0 0 127 0" result="hardAlpha"/>
<feOffset dy="2"/>
<feGaussianBlur stdDeviation="2"/>
<feComposite in2="hardAlpha" operator="out"/>
<feColorMatrix type="matrix" values="0 0 0 0 0.168627 0 0 0 0 0.168627 0 0 0 0 0.168627 0 0 0 0.24 0"/>
<feBlend mode="normal" in2="BackgroundImageFix" result="effect1_dropShadow_1124_4113"/>
<feBlend mode="normal" in="SourceGraphic" in2="effect1_dropShadow_1124_4113" result="shape"/>
</filter>
<clipPath id="clip0_1124_4113">
<rect width="24" height="24" fill="white" transform="translate(25 66)"/>
</clipPath>
<clipPath id="clip1_1124_4113">
<rect width="10" height="10" fill="white" transform="translate(178 110)"/>
</clipPath>
</defs>
</svg>
