<svg width="338" height="375" viewBox="0 0 338 375" fill="none" xmlns="http://www.w3.org/2000/svg">
<rect width="338" height="375" fill="#D3D3D3"/>
<rect x="26.5" y="59" width="285" height="256" rx="16" fill="white"/>
<g filter="url(#filter0_d_1124_4113)">
<path d="M26.5 75C26.5 66.1634 33.6634 59 42.5 59H295.5C304.337 59 311.5 66.1634 311.5 75V107H26.5V75Z" fill="#FF1934" shape-rendering="crispEdges"/>
<g clip-path="url(#clip0_1124_4113)">
<path d="M63.9898 84.5599L62.4198 79.6199C62.0498 78.4499 60.9798 77.6699 59.7498 77.6699H49.2398C48.0098 77.6699 46.9398 78.4599 46.5698 79.6299L45.0098 84.5399C44.7098 85.4799 45.0898 86.4399 45.9398 86.9399C46.3098 87.1499 46.7098 87.2299 47.0998 87.2099V93.2099C47.0998 94.7499 48.3598 96.0099 49.8998 96.0099H51.6698C52.7898 96.0099 53.6998 95.0999 53.6998 93.9799V92.7499C53.6998 92.5099 53.8898 92.3199 54.1298 92.3199H54.8598C55.0998 92.3199 55.2898 92.5099 55.2898 92.7499V93.9799C55.2898 95.0999 56.1998 96.0099 57.3198 96.0099H59.0898C60.6298 96.0099 61.8898 94.7499 61.8898 93.2099V87.2299C62.2798 87.2599 62.6798 87.1699 63.0498 86.9599C63.8998 86.4699 64.2798 85.5099 63.9798 84.5699L63.9898 84.5599ZM59.0998 94.3999H57.3298C57.0898 94.3999 56.8998 94.2099 56.8998 93.9699V92.7399C56.8998 91.6199 55.9898 90.7099 54.8698 90.7099H54.1398C53.0198 90.7099 52.1098 91.6199 52.1098 92.7399V93.9699C52.1098 94.2099 51.9198 94.3999 51.6798 94.3999H49.9098C49.2498 94.3999 48.7098 93.8599 48.7098 93.1999V86.3599C48.8598 86.2599 49.0198 86.1899 49.2098 86.1899H49.2198C49.4898 86.1899 49.7398 86.2999 49.9598 86.5299C50.9398 87.5799 52.7898 87.5799 53.7698 86.5299C54.1598 86.1199 54.8598 86.1199 55.2498 86.5299C55.7398 87.0499 56.4398 87.3499 57.1498 87.3499C57.8598 87.3499 58.5598 87.0499 59.0598 86.5199C59.3698 86.1899 59.9098 86.1499 60.3198 86.3799V93.1899C60.3198 93.8499 59.7798 94.3899 59.1198 94.3899L59.0998 94.3999ZM62.2598 85.5599C62.1698 85.6099 61.9298 85.7099 61.6798 85.4399C61.6798 85.4399 61.6698 85.4399 61.6598 85.4299C61.6598 85.4299 61.6498 85.4299 61.6398 85.4199C60.6598 84.4099 58.8198 84.4199 57.8598 85.4499C57.4698 85.8599 56.7698 85.8599 56.3798 85.4499C55.8898 84.9299 55.1898 84.6299 54.4798 84.6299C53.7698 84.6299 53.0698 84.9299 52.5798 85.4499C52.1898 85.8599 51.5198 85.8999 51.0698 85.4199C50.5898 84.8999 49.8998 84.6099 49.1998 84.6099H49.1698C48.4498 84.6099 47.7598 84.9299 47.2898 85.4699C47.0698 85.7099 46.8298 85.6099 46.7298 85.5599C46.6398 85.5099 46.4298 85.3499 46.5298 85.0299L48.0898 80.1199C48.2498 79.6199 48.7098 79.2799 49.2298 79.2799H59.7498C60.2798 79.2799 60.7398 79.6199 60.8898 80.1199L62.4598 85.0599C62.5598 85.3699 62.3498 85.5199 62.2598 85.5799V85.5599Z" fill="white"/>
</g>
<path d="M80.856 81.984V84C80.1 83.5613 79.316 83.342 78.504 83.342C78.14 83.342 77.86 83.4167 77.664 83.566C77.4773 83.7153 77.384 83.9067 77.384 84.14C77.384 84.3733 77.5007 84.5833 77.734 84.77C77.9673 84.9473 78.3173 85.1387 78.784 85.344C79.0733 85.4747 79.3113 85.5913 79.498 85.694C79.694 85.7873 79.9133 85.9227 80.156 86.1C80.408 86.268 80.604 86.45 80.744 86.646C80.8933 86.8327 81.0193 87.066 81.122 87.346C81.2247 87.626 81.276 87.9293 81.276 88.256C81.276 89.1053 80.9633 89.796 80.338 90.328C79.7127 90.8507 78.882 91.112 77.846 91.112C76.7353 91.112 75.83 90.916 75.13 90.524V88.354C75.9793 88.97 76.8847 89.278 77.846 89.278C78.1727 89.278 78.4433 89.194 78.658 89.026C78.8727 88.8487 78.98 88.62 78.98 88.34C78.98 88.2467 78.966 88.158 78.938 88.074C78.91 87.99 78.8587 87.9107 78.784 87.836C78.7093 87.7613 78.6347 87.7007 78.56 87.654C78.4947 87.598 78.392 87.5373 78.252 87.472C78.1213 87.3973 78.0093 87.3367 77.916 87.29C77.8227 87.2433 77.6827 87.178 77.496 87.094C77.3187 87.01 77.174 86.9447 77.062 86.898C76.4553 86.618 75.9653 86.2727 75.592 85.862C75.228 85.4513 75.046 84.9053 75.046 84.224C75.046 83.412 75.3447 82.7587 75.942 82.264C76.5393 81.76 77.3653 81.508 78.42 81.508C79.3627 81.508 80.1747 81.6667 80.856 81.984ZM86.6334 86.8V86.632C86.5681 85.8013 86.2041 85.386 85.5414 85.386C85.2147 85.386 84.9254 85.5073 84.6734 85.75C84.4214 85.9833 84.2534 86.3333 84.1694 86.8H86.6334ZM88.1034 88.886V90.594C87.6181 90.9113 86.8761 91.07 85.8774 91.07C84.7107 91.07 83.8007 90.734 83.1474 90.062C82.5034 89.3807 82.1814 88.508 82.1814 87.444C82.1814 86.3147 82.4941 85.4327 83.1194 84.798C83.7541 84.154 84.5334 83.832 85.4574 83.832C86.4094 83.832 87.1607 84.112 87.7114 84.672C88.2621 85.2227 88.5374 86.0487 88.5374 87.15C88.5374 87.3647 88.5001 87.7333 88.4254 88.256H84.2534C84.3934 88.648 84.6361 88.9513 84.9814 89.166C85.3267 89.3807 85.7421 89.488 86.2274 89.488C86.9461 89.488 87.5714 89.2873 88.1034 88.886ZM91.5083 91L89.2263 83.902H91.3403L91.9563 86.24C92.1056 86.828 92.2316 87.36 92.3343 87.836C92.4369 88.3027 92.4976 88.6247 92.5163 88.802L92.5583 89.068C92.6236 88.508 92.8523 87.5653 93.2443 86.24L93.9303 83.902H95.6943L96.3663 86.24C96.5343 86.8373 96.6743 87.374 96.7863 87.85C96.8983 88.3167 96.9683 88.6387 96.9963 88.816L97.0383 89.068C97.1036 88.5173 97.3229 87.5747 97.6963 86.24L98.3543 83.902H100.37L98.1023 91H96.0023L95.3863 88.676C95.2556 88.172 95.1389 87.7007 95.0363 87.262C94.9429 86.8233 94.8823 86.5107 94.8543 86.324L94.8123 86.044C94.7189 86.6693 94.5229 87.5467 94.2243 88.676L93.6083 91H91.5083ZM104.79 88.088H104.132C103.786 88.088 103.52 88.1627 103.334 88.312C103.147 88.4613 103.054 88.6527 103.054 88.886C103.054 89.362 103.329 89.6 103.88 89.6C104.169 89.6 104.393 89.5113 104.552 89.334C104.71 89.1567 104.79 88.914 104.79 88.606V88.088ZM101.472 86.086V84.252C102.032 83.9347 102.839 83.776 103.894 83.776C104.902 83.776 105.653 83.9953 106.148 84.434C106.642 84.8633 106.89 85.5353 106.89 86.45V91H104.888V90.132C104.589 90.7387 104.001 91.042 103.124 91.042C102.433 91.042 101.892 90.846 101.5 90.454C101.117 90.062 100.926 89.572 100.926 88.984C100.926 88.3027 101.173 87.7753 101.668 87.402C102.172 87.0193 102.914 86.828 103.894 86.828H104.79V86.338C104.79 85.7407 104.393 85.442 103.6 85.442C102.834 85.442 102.125 85.6567 101.472 86.086ZM114.22 86.24H114.934C116.073 86.24 116.642 85.722 116.642 84.686C116.642 83.7527 116.115 83.286 115.06 83.286H114.22V86.24ZM112.064 81.564H115.312C116.358 81.564 117.202 81.858 117.846 82.446C118.5 83.034 118.826 83.7807 118.826 84.686C118.826 85.722 118.486 86.5247 117.804 87.094C117.132 87.6633 116.302 87.948 115.312 87.948H114.22V91H112.064V81.564ZM121.913 83.902V85.218C122.044 84.8073 122.258 84.4807 122.557 84.238C122.865 83.986 123.22 83.86 123.621 83.86C123.845 83.86 124.022 83.8787 124.153 83.916V85.848C123.929 85.7453 123.672 85.694 123.383 85.694C122.944 85.694 122.59 85.8573 122.319 86.184C122.048 86.5013 121.913 86.926 121.913 87.458V91H119.869L119.883 83.902H121.913ZM128.201 91.112C127.09 91.112 126.231 90.7807 125.625 90.118C125.018 89.446 124.715 88.5873 124.715 87.542C124.715 86.45 125.032 85.554 125.667 84.854C126.301 84.1447 127.146 83.79 128.201 83.79C129.302 83.79 130.156 84.1307 130.763 84.812C131.369 85.4933 131.673 86.3613 131.673 87.416C131.673 88.4893 131.365 89.376 130.749 90.076C130.142 90.7667 129.293 91.112 128.201 91.112ZM128.187 85.4C127.739 85.4 127.403 85.5913 127.179 85.974C126.955 86.3567 126.843 86.8513 126.843 87.458C126.843 88.0647 126.955 88.564 127.179 88.956C127.412 89.3387 127.757 89.53 128.215 89.53C128.663 89.53 128.994 89.3433 129.209 88.97C129.433 88.5873 129.545 88.0927 129.545 87.486C129.545 86.0953 129.092 85.4 128.187 85.4ZM136.648 89.376C137.096 89.376 137.46 89.208 137.74 88.872C138.02 88.5267 138.16 88.06 138.16 87.472C138.16 86.828 138.015 86.3427 137.726 86.016C137.446 85.68 137.087 85.512 136.648 85.512C136.219 85.512 135.845 85.6753 135.528 86.002C135.211 86.3287 135.052 86.786 135.052 87.374C135.052 87.9807 135.201 88.466 135.5 88.83C135.799 89.194 136.181 89.376 136.648 89.376ZM135.052 83.902V84.994C135.547 84.21 136.261 83.818 137.194 83.818C138.109 83.818 138.841 84.1447 139.392 84.798C139.952 85.442 140.232 86.3193 140.232 87.43C140.232 88.4847 139.961 89.3573 139.42 90.048C138.888 90.7387 138.146 91.084 137.194 91.084C136.233 91.084 135.519 90.706 135.052 89.95V93.618H133.008V83.902H135.052ZM145.669 86.8V86.632C145.603 85.8013 145.239 85.386 144.577 85.386C144.25 85.386 143.961 85.5073 143.709 85.75C143.457 85.9833 143.289 86.3333 143.205 86.8H145.669ZM147.139 88.886V90.594C146.653 90.9113 145.911 91.07 144.913 91.07C143.746 91.07 142.836 90.734 142.183 90.062C141.539 89.3807 141.217 88.508 141.217 87.444C141.217 86.3147 141.529 85.4327 142.155 84.798C142.789 84.154 143.569 83.832 144.493 83.832C145.445 83.832 146.196 84.112 146.747 84.672C147.297 85.2227 147.573 86.0487 147.573 87.15C147.573 87.3647 147.535 87.7333 147.461 88.256H143.289C143.429 88.648 143.671 88.9513 144.017 89.166C144.362 89.3807 144.777 89.488 145.263 89.488C145.981 89.488 146.607 89.2873 147.139 88.886ZM151.061 83.902V85.218C151.192 84.8073 151.407 84.4807 151.705 84.238C152.013 83.986 152.368 83.86 152.769 83.86C152.993 83.86 153.171 83.8787 153.301 83.916V85.848C153.077 85.7453 152.821 85.694 152.531 85.694C152.093 85.694 151.738 85.8573 151.467 86.184C151.197 86.5013 151.061 86.926 151.061 87.458V91H149.017L149.031 83.902H151.061ZM156.579 85.4V88.662C156.579 88.914 156.649 89.1053 156.789 89.236C156.938 89.3667 157.13 89.432 157.363 89.432C157.736 89.432 158.068 89.3387 158.357 89.152V90.846C158.012 90.9953 157.545 91.07 156.957 91.07C155.342 91.07 154.535 90.2627 154.535 88.648V85.4H153.513V83.902H154.535V82.222H156.579V83.902H158.231V85.4H156.579ZM159.683 91V83.902H161.727V91H159.683ZM159.865 82.684C159.632 82.4507 159.515 82.1707 159.515 81.844C159.515 81.5173 159.632 81.2373 159.865 81.004C160.099 80.7707 160.379 80.654 160.705 80.654C161.032 80.654 161.312 80.7707 161.545 81.004C161.779 81.2373 161.895 81.5173 161.895 81.844C161.895 82.1707 161.779 82.4507 161.545 82.684C161.312 82.9173 161.032 83.034 160.705 83.034C160.379 83.034 160.099 82.9173 159.865 82.684ZM167.193 91V81.564H169.349V91H167.193ZM173.279 83.902V85.008C173.671 84.224 174.338 83.832 175.281 83.832C176.279 83.832 176.942 84.28 177.269 85.176C177.427 84.756 177.693 84.4293 178.067 84.196C178.44 83.9533 178.879 83.832 179.383 83.832C180.083 83.832 180.633 84.056 181.035 84.504C181.445 84.9427 181.651 85.5913 181.651 86.45V91H179.607V86.786C179.607 86.3847 179.527 86.0673 179.369 85.834C179.21 85.6007 178.981 85.484 178.683 85.484C178.365 85.484 178.081 85.6147 177.829 85.876C177.586 86.128 177.465 86.5853 177.465 87.248V91H175.421V86.786C175.421 86.3847 175.341 86.0673 175.183 85.834C175.024 85.6007 174.795 85.484 174.497 85.484C174.179 85.484 173.895 85.6147 173.643 85.876C173.4 86.128 173.279 86.5853 173.279 87.248V91H171.235V83.902H173.279ZM186.906 89.376C187.354 89.376 187.718 89.208 187.998 88.872C188.278 88.5267 188.418 88.06 188.418 87.472C188.418 86.828 188.273 86.3427 187.984 86.016C187.704 85.68 187.344 85.512 186.906 85.512C186.476 85.512 186.103 85.6753 185.786 86.002C185.468 86.3287 185.31 86.786 185.31 87.374C185.31 87.9807 185.459 88.466 185.758 88.83C186.056 89.194 186.439 89.376 186.906 89.376ZM185.31 83.902V84.994C185.804 84.21 186.518 83.818 187.452 83.818C188.366 83.818 189.099 84.1447 189.65 84.798C190.21 85.442 190.49 86.3193 190.49 87.43C190.49 88.4847 190.219 89.3573 189.678 90.048C189.146 90.7387 188.404 91.084 187.452 91.084C186.49 91.084 185.776 90.706 185.31 89.95V93.618H183.266V83.902H185.31ZM191.894 91V83.902H193.938V91H191.894ZM192.076 82.684C191.843 82.4507 191.726 82.1707 191.726 81.844C191.726 81.5173 191.843 81.2373 192.076 81.004C192.31 80.7707 192.59 80.654 192.916 80.654C193.243 80.654 193.523 80.7707 193.756 81.004C193.99 81.2373 194.106 81.5173 194.106 81.844C194.106 82.1707 193.99 82.4507 193.756 82.684C193.523 82.9173 193.243 83.034 192.916 83.034C192.59 83.034 192.31 82.9173 192.076 82.684ZM199.208 88.088H198.55C198.204 88.088 197.938 88.1627 197.752 88.312C197.565 88.4613 197.472 88.6527 197.472 88.886C197.472 89.362 197.747 89.6 198.298 89.6C198.587 89.6 198.811 89.5113 198.97 89.334C199.128 89.1567 199.208 88.914 199.208 88.606V88.088ZM195.89 86.086V84.252C196.45 83.9347 197.257 83.776 198.312 83.776C199.32 83.776 200.071 83.9953 200.566 84.434C201.06 84.8633 201.308 85.5353 201.308 86.45V91H199.306V90.132C199.007 90.7387 198.419 91.042 197.542 91.042C196.851 91.042 196.31 90.846 195.918 90.454C195.535 90.062 195.344 89.572 195.344 88.984C195.344 88.3027 195.591 87.7753 196.086 87.402C196.59 87.0193 197.332 86.828 198.312 86.828H199.208V86.338C199.208 85.7407 198.811 85.442 198.018 85.442C197.252 85.442 196.543 85.6567 195.89 86.086ZM204.956 83.902V85.106C205.134 84.714 205.404 84.406 205.768 84.182C206.142 83.9487 206.585 83.832 207.098 83.832C207.826 83.832 208.396 84.0513 208.806 84.49C209.217 84.9193 209.422 85.554 209.422 86.394V91H207.378V86.772C207.378 86.352 207.28 86.0347 207.084 85.82C206.888 85.596 206.613 85.484 206.258 85.484C205.885 85.484 205.572 85.6333 205.32 85.932C205.078 86.2213 204.956 86.66 204.956 87.248V91H202.912V83.902H204.956ZM213.077 83.902V85.008C213.469 84.224 214.137 83.832 215.079 83.832C216.078 83.832 216.741 84.28 217.067 85.176C217.226 84.756 217.492 84.4293 217.865 84.196C218.239 83.9533 218.677 83.832 219.181 83.832C219.881 83.832 220.432 84.056 220.833 84.504C221.244 84.9427 221.449 85.5913 221.449 86.45V91H219.405V86.786C219.405 86.3847 219.326 86.0673 219.167 85.834C219.009 85.6007 218.78 85.484 218.481 85.484C218.164 85.484 217.879 85.6147 217.627 85.876C217.385 86.128 217.263 86.5853 217.263 87.248V91H215.219V86.786C215.219 86.3847 215.14 86.0673 214.981 85.834C214.823 85.6007 214.594 85.484 214.295 85.484C213.978 85.484 213.693 85.6147 213.441 85.876C213.199 86.128 213.077 86.5853 213.077 87.248V91H211.033V83.902H213.077ZM227.461 83.902H229.505V91H227.461V89.866C227.087 90.6593 226.369 91.056 225.305 91.056C224.577 91.056 224.007 90.8553 223.597 90.454C223.195 90.0433 222.995 89.4413 222.995 88.648V83.902H225.039V88.186C225.039 89.0167 225.403 89.432 226.131 89.432C227.017 89.432 227.461 88.8393 227.461 87.654V83.902Z" fill="white"/>
</g>
<path d="M46.87 167.53V168.55C46.4233 168.27 45.9167 168.13 45.35 168.13C44.9833 168.13 44.6933 168.213 44.48 168.38C44.2733 168.54 44.17 168.753 44.17 169.02C44.17 169.287 44.2733 169.5 44.48 169.66C44.6867 169.82 45.0033 169.993 45.43 170.18C45.71 170.3 45.9267 170.403 46.08 170.49C46.24 170.577 46.42 170.7 46.62 170.86C46.8267 171.013 46.9767 171.2 47.07 171.42C47.17 171.633 47.22 171.88 47.22 172.16C47.22 172.753 47.01 173.22 46.59 173.56C46.17 173.9 45.6267 174.07 44.96 174.07C44.22 174.07 43.6067 173.927 43.12 173.64V172.57C43.6467 172.963 44.2567 173.16 44.95 173.16C45.3167 173.16 45.6067 173.077 45.82 172.91C46.0333 172.737 46.14 172.5 46.14 172.2C46.14 172.02 46.0767 171.857 45.95 171.71C45.8233 171.557 45.6867 171.443 45.54 171.37C45.3933 171.29 45.1733 171.183 44.88 171.05C44.7067 170.97 44.5833 170.913 44.51 170.88C44.4433 170.847 44.33 170.787 44.17 170.7C44.01 170.613 43.89 170.54 43.81 170.48C43.7367 170.42 43.6433 170.337 43.53 170.23C43.4167 170.123 43.3333 170.017 43.28 169.91C43.2333 169.803 43.1867 169.68 43.14 169.54C43.1 169.393 43.08 169.237 43.08 169.07C43.08 168.497 43.2867 168.043 43.7 167.71C44.12 167.377 44.66 167.21 45.32 167.21C45.9267 167.21 46.4433 167.317 46.87 167.53ZM48.4448 174V168.93H49.4348V174H48.4448ZM48.4948 167.82C48.3815 167.7 48.3248 167.553 48.3248 167.38C48.3248 167.207 48.3815 167.06 48.4948 166.94C48.6148 166.82 48.7615 166.76 48.9348 166.76C49.1082 166.76 49.2548 166.82 49.3748 166.94C49.4948 167.06 49.5548 167.207 49.5548 167.38C49.5548 167.547 49.4948 167.69 49.3748 167.81C49.2548 167.93 49.1082 167.99 48.9348 167.99C48.7615 167.99 48.6148 167.933 48.4948 167.82ZM50.896 174V166.93H51.886V174H50.896ZM55.9772 171.74H55.2172C54.8439 171.74 54.5605 171.813 54.3672 171.96C54.1805 172.107 54.0872 172.293 54.0872 172.52C54.0872 172.753 54.1605 172.937 54.3072 173.07C54.4539 173.203 54.6672 173.27 54.9472 173.27C55.2672 173.27 55.5172 173.183 55.6972 173.01C55.8839 172.83 55.9772 172.597 55.9772 172.31V171.74ZM53.4272 170.14V169.19C53.8205 168.963 54.3405 168.85 54.9872 168.85C56.3139 168.85 56.9772 169.493 56.9772 170.78V174H56.0072V173.4C55.7472 173.827 55.2905 174.04 54.6372 174.04C54.1572 174.04 53.7705 173.903 53.4772 173.63C53.1905 173.35 53.0472 172.997 53.0472 172.57C53.0472 172.083 53.2305 171.707 53.5972 171.44C53.9639 171.167 54.4772 171.03 55.1372 171.03H55.9772V170.74C55.9772 170.393 55.8939 170.133 55.7272 169.96C55.5605 169.78 55.2839 169.69 54.8972 169.69C54.3572 169.69 53.8672 169.84 53.4272 170.14ZM58.2974 174V167H59.2774V174H58.2974ZM60.4474 171.35L62.4374 174H61.2674L59.3174 171.35L61.2274 168.93H62.3774L60.4474 171.35ZM65.9674 171.74H65.2074C64.8341 171.74 64.5508 171.813 64.3574 171.96C64.1708 172.107 64.0774 172.293 64.0774 172.52C64.0774 172.753 64.1508 172.937 64.2974 173.07C64.4441 173.203 64.6574 173.27 64.9374 173.27C65.2574 173.27 65.5074 173.183 65.6874 173.01C65.8741 172.83 65.9674 172.597 65.9674 172.31V171.74ZM63.4174 170.14V169.19C63.8108 168.963 64.3308 168.85 64.9774 168.85C66.3041 168.85 66.9674 169.493 66.9674 170.78V174H65.9974V173.4C65.7374 173.827 65.2808 174.04 64.6274 174.04C64.1474 174.04 63.7608 173.903 63.4674 173.63C63.1808 173.35 63.0374 172.997 63.0374 172.57C63.0374 172.083 63.2208 171.707 63.5874 171.44C63.9541 171.167 64.4674 171.03 65.1274 171.03H65.9674V170.74C65.9674 170.393 65.8841 170.133 65.7174 169.96C65.5508 169.78 65.2741 169.69 64.8874 169.69C64.3474 169.69 63.8574 169.84 63.4174 170.14ZM69.2677 168.93V169.8C69.5677 169.173 70.0943 168.86 70.8477 168.86C71.3477 168.86 71.7443 169.013 72.0377 169.32C72.331 169.627 72.4777 170.043 72.4777 170.57V174H71.4977V170.8C71.4977 170.447 71.4077 170.177 71.2277 169.99C71.0543 169.803 70.821 169.71 70.5277 169.71C70.181 169.71 69.8843 169.847 69.6377 170.12C69.391 170.387 69.2677 170.763 69.2677 171.25V174H68.2877V168.93H69.2677ZM78.5964 173.21C78.9897 173.21 79.3131 173.057 79.5664 172.75C79.8197 172.437 79.9464 172 79.9464 171.44C79.9464 170.913 79.8231 170.497 79.5764 170.19C79.3297 169.877 79.0164 169.72 78.6364 169.72C78.2564 169.72 77.9264 169.86 77.6464 170.14C77.3731 170.413 77.2364 170.85 77.2364 171.45C77.2364 172.037 77.3731 172.477 77.6464 172.77C77.9264 173.063 78.2431 173.21 78.5964 173.21ZM77.2364 168.93V169.71C77.5831 169.143 78.1031 168.86 78.7964 168.86C79.4631 168.86 79.9897 169.103 80.3764 169.59C80.7631 170.07 80.9564 170.683 80.9564 171.43C80.9564 172.197 80.7564 172.83 80.3564 173.33C79.9631 173.823 79.4364 174.07 78.7764 174.07C78.1031 174.07 77.5897 173.79 77.2364 173.23V175.94H76.2564V168.93H77.2364ZM85.2072 168.93H86.1872V174H85.2072V173.13C84.9405 173.75 84.4139 174.06 83.6272 174.06C83.1272 174.06 82.7305 173.913 82.4372 173.62C82.1439 173.32 81.9972 172.91 81.9972 172.39V168.93H82.9872V172.15C82.9872 172.497 83.0705 172.763 83.2372 172.95C83.4105 173.13 83.6472 173.22 83.9472 173.22C84.3272 173.22 84.6305 173.087 84.8572 172.82C85.0905 172.553 85.2072 172.177 85.2072 171.69V168.93ZM88.835 169.69V172.48C88.835 172.967 89.0683 173.21 89.535 173.21C89.8083 173.21 90.0383 173.137 90.225 172.99V173.87C90.005 173.99 89.735 174.05 89.415 174.05C88.3683 174.05 87.845 173.52 87.845 172.46V169.69H87.055V168.93H87.845V167.69H88.835V168.93H90.165V169.69H88.835ZM93.9752 171.74H93.2152C92.8419 171.74 92.5586 171.813 92.3652 171.96C92.1786 172.107 92.0852 172.293 92.0852 172.52C92.0852 172.753 92.1586 172.937 92.3052 173.07C92.4519 173.203 92.6652 173.27 92.9452 173.27C93.2652 173.27 93.5152 173.183 93.6952 173.01C93.8819 172.83 93.9752 172.597 93.9752 172.31V171.74ZM91.4252 170.14V169.19C91.8186 168.963 92.3386 168.85 92.9852 168.85C94.3119 168.85 94.9752 169.493 94.9752 170.78V174H94.0052V173.4C93.7452 173.827 93.2886 174.04 92.6352 174.04C92.1552 174.04 91.7686 173.903 91.4752 173.63C91.1886 173.35 91.0452 172.997 91.0452 172.57C91.0452 172.083 91.2286 171.707 91.5952 171.44C91.9619 171.167 92.4752 171.03 93.1352 171.03H93.9752V170.74C93.9752 170.393 93.8919 170.133 93.7252 169.96C93.5586 169.78 93.2819 169.69 92.8952 169.69C92.3552 169.69 91.8652 169.84 91.4252 170.14ZM97.2755 168.93V169.82C97.5221 169.193 97.9655 168.88 98.6055 168.88C98.6988 168.88 98.8021 168.89 98.9155 168.91V169.87C98.7755 169.81 98.6188 169.78 98.4455 169.78C98.1055 169.78 97.8255 169.93 97.6055 170.23C97.3855 170.53 97.2755 170.887 97.2755 171.3V174H96.2955V168.93H97.2755ZM105.295 168.93H106.275V174H105.295V173.13C105.028 173.75 104.502 174.06 103.715 174.06C103.215 174.06 102.818 173.913 102.525 173.62C102.232 173.32 102.085 172.91 102.085 172.39V168.93H103.075V172.15C103.075 172.497 103.158 172.763 103.325 172.95C103.498 173.13 103.735 173.22 104.035 173.22C104.415 173.22 104.718 173.087 104.945 172.82C105.178 172.553 105.295 172.177 105.295 171.69V168.93ZM108.633 168.93V169.8C108.933 169.173 109.46 168.86 110.213 168.86C110.713 168.86 111.11 169.013 111.403 169.32C111.696 169.627 111.843 170.043 111.843 170.57V174H110.863V170.8C110.863 170.447 110.773 170.177 110.593 169.99C110.42 169.803 110.186 169.71 109.893 169.71C109.546 169.71 109.25 169.847 109.003 170.12C108.756 170.387 108.633 170.763 108.633 171.25V174H107.653V168.93H108.633ZM114.431 169.69V172.48C114.431 172.967 114.664 173.21 115.131 173.21C115.404 173.21 115.634 173.137 115.821 172.99V173.87C115.601 173.99 115.331 174.05 115.011 174.05C113.964 174.05 113.441 173.52 113.441 172.46V169.69H112.651V168.93H113.441V167.69H114.431V168.93H115.761V169.69H114.431ZM120.051 168.93H121.031V174H120.051V173.13C119.784 173.75 119.258 174.06 118.471 174.06C117.971 174.06 117.574 173.913 117.281 173.62C116.988 173.32 116.841 172.91 116.841 172.39V168.93H117.831V172.15C117.831 172.497 117.914 172.763 118.081 172.95C118.254 173.13 118.491 173.22 118.791 173.22C119.171 173.22 119.474 173.087 119.701 172.82C119.934 172.553 120.051 172.177 120.051 171.69V168.93ZM122.409 174V167H123.389V174H122.409ZM124.559 171.35L126.549 174H125.379L123.429 171.35L125.339 168.93H126.489L124.559 171.35ZM44.17 184.93V185.74C44.4567 185.153 44.9333 184.86 45.6 184.86C46.36 184.86 46.8467 185.187 47.06 185.84C47.2 185.527 47.4033 185.287 47.67 185.12C47.9367 184.947 48.2367 184.86 48.57 184.86C49.09 184.86 49.4833 185.013 49.75 185.32C50.0233 185.627 50.16 186.05 50.16 186.59V190H49.18V186.8C49.18 186.073 48.8867 185.71 48.3 185.71C48.0067 185.71 47.7433 185.84 47.51 186.1C47.2833 186.36 47.17 186.743 47.17 187.25V190H46.19V186.8C46.19 186.073 45.8933 185.71 45.3 185.71C45.0133 185.71 44.7533 185.84 44.52 186.1C44.2867 186.36 44.17 186.743 44.17 187.25V190H43.19V184.93H44.17ZM54.6408 187.1V186.92C54.6274 186.54 54.5241 186.24 54.3308 186.02C54.1374 185.793 53.8608 185.68 53.5008 185.68C53.1674 185.68 52.8808 185.803 52.6408 186.05C52.4008 186.29 52.2508 186.64 52.1908 187.1H54.6408ZM55.2708 188.85V189.73C54.8974 189.943 54.4041 190.05 53.7908 190.05C53.0041 190.05 52.3774 189.813 51.9108 189.34C51.4441 188.867 51.2108 188.247 51.2108 187.48C51.2108 186.667 51.4241 186.03 51.8508 185.57C52.2774 185.103 52.8208 184.87 53.4808 184.87C54.1274 184.87 54.6408 185.073 55.0208 185.48C55.4008 185.88 55.5908 186.46 55.5908 187.22C55.5908 187.427 55.5708 187.643 55.5308 187.87H52.2008C52.2674 188.31 52.4541 188.647 52.7608 188.88C53.0674 189.113 53.4541 189.23 53.9208 189.23C54.4608 189.23 54.9108 189.103 55.2708 188.85ZM57.7247 184.93V185.8C58.0247 185.173 58.5514 184.86 59.3047 184.86C59.8047 184.86 60.2014 185.013 60.4947 185.32C60.788 185.627 60.9347 186.043 60.9347 186.57V190H59.9547V186.8C59.9547 186.447 59.8647 186.177 59.6847 185.99C59.5114 185.803 59.278 185.71 58.9847 185.71C58.638 185.71 58.3414 185.847 58.0947 186.12C57.848 186.387 57.7247 186.763 57.7247 187.25V190H56.7447V184.93H57.7247ZM64.2525 189.02C64.5992 189.02 64.8992 188.887 65.1525 188.62C65.4125 188.347 65.5425 187.967 65.5425 187.48C65.5425 186.88 65.4192 186.437 65.1725 186.15C64.9325 185.863 64.6392 185.72 64.2925 185.72C63.8992 185.72 63.5892 185.877 63.3625 186.19C63.1358 186.497 63.0225 186.903 63.0225 187.41C63.0225 187.937 63.1425 188.337 63.3825 188.61C63.6292 188.883 63.9192 189.02 64.2525 189.02ZM65.5425 184.93H66.5225V189.57C66.5225 190.35 66.2992 190.937 65.8525 191.33C65.4125 191.73 64.8458 191.93 64.1525 191.93C63.4992 191.93 62.9492 191.82 62.5025 191.6V190.61C62.9292 190.89 63.4458 191.03 64.0525 191.03C65.0458 191.03 65.5425 190.54 65.5425 189.56V189.04C65.2158 189.587 64.7258 189.86 64.0725 189.86C63.4992 189.86 63.0092 189.65 62.6025 189.23C62.1958 188.803 61.9925 188.203 61.9925 187.43C61.9925 186.683 62.1825 186.07 62.5625 185.59C62.9425 185.103 63.4458 184.86 64.0725 184.86C64.7458 184.86 65.2358 185.147 65.5425 185.72V184.93ZM70.9884 187.1V186.92C70.9751 186.54 70.8718 186.24 70.6784 186.02C70.4851 185.793 70.2084 185.68 69.8484 185.68C69.5151 185.68 69.2284 185.803 68.9884 186.05C68.7484 186.29 68.5984 186.64 68.5384 187.1H70.9884ZM71.6184 188.85V189.73C71.2451 189.943 70.7518 190.05 70.1384 190.05C69.3518 190.05 68.7251 189.813 68.2584 189.34C67.7918 188.867 67.5584 188.247 67.5584 187.48C67.5584 186.667 67.7718 186.03 68.1984 185.57C68.6251 185.103 69.1684 184.87 69.8284 184.87C70.4751 184.87 70.9884 185.073 71.3684 185.48C71.7484 185.88 71.9384 186.46 71.9384 187.22C71.9384 187.427 71.9184 187.643 71.8784 187.87H68.5484C68.6151 188.31 68.8018 188.647 69.1084 188.88C69.4151 189.113 69.8018 189.23 70.2684 189.23C70.8084 189.23 71.2584 189.103 71.6184 188.85ZM74.3623 185.69V188.48C74.3623 188.967 74.5957 189.21 75.0623 189.21C75.3357 189.21 75.5657 189.137 75.7523 188.99V189.87C75.5323 189.99 75.2623 190.05 74.9423 190.05C73.8957 190.05 73.3723 189.52 73.3723 188.46V185.69H72.5823V184.93H73.3723V183.69H74.3623V184.93H75.6923V185.69H74.3623ZM79.5026 187.74H78.7426C78.3692 187.74 78.0859 187.813 77.8926 187.96C77.7059 188.107 77.6126 188.293 77.6126 188.52C77.6126 188.753 77.6859 188.937 77.8326 189.07C77.9792 189.203 78.1926 189.27 78.4726 189.27C78.7926 189.27 79.0426 189.183 79.2226 189.01C79.4092 188.83 79.5026 188.597 79.5026 188.31V187.74ZM76.9526 186.14V185.19C77.3459 184.963 77.8659 184.85 78.5126 184.85C79.8392 184.85 80.5026 185.493 80.5026 186.78V190H79.5326V189.4C79.2726 189.827 78.8159 190.04 78.1626 190.04C77.6826 190.04 77.2959 189.903 77.0026 189.63C76.7159 189.35 76.5726 188.997 76.5726 188.57C76.5726 188.083 76.7559 187.707 77.1226 187.44C77.4892 187.167 78.0026 187.03 78.6626 187.03H79.5026V186.74C79.5026 186.393 79.4192 186.133 79.2526 185.96C79.0859 185.78 78.8092 185.69 78.4226 185.69C77.8826 185.69 77.3926 185.84 76.9526 186.14ZM82.8028 182.93V185.8C83.0895 185.173 83.6128 184.86 84.3728 184.86C84.8661 184.86 85.2628 185.013 85.5628 185.32C85.8628 185.627 86.0128 186.053 86.0128 186.6V190H85.0328V186.8C85.0328 186.453 84.9428 186.187 84.7628 186C84.5895 185.807 84.3595 185.71 84.0728 185.71C83.7395 185.71 83.4428 185.837 83.1828 186.09C82.9295 186.343 82.8028 186.73 82.8028 187.25V190H81.8228V182.93H82.8028ZM90.4806 184.93H91.4606V190H90.4806V189.13C90.214 189.75 89.6873 190.06 88.9006 190.06C88.4006 190.06 88.004 189.913 87.7106 189.62C87.4173 189.32 87.2706 188.91 87.2706 188.39V184.93H88.2606V188.15C88.2606 188.497 88.344 188.763 88.5106 188.95C88.684 189.13 88.9206 189.22 89.2206 189.22C89.6006 189.22 89.904 189.087 90.1306 188.82C90.364 188.553 90.4806 188.177 90.4806 187.69V184.93ZM92.8784 190V184.93H93.8684V190H92.8784ZM92.9284 183.82C92.8151 183.7 92.7584 183.553 92.7584 183.38C92.7584 183.207 92.8151 183.06 92.9284 182.94C93.0484 182.82 93.1951 182.76 93.3684 182.76C93.5418 182.76 93.6884 182.82 93.8084 182.94C93.9284 183.06 93.9884 183.207 93.9884 183.38C93.9884 183.547 93.9284 183.69 93.8084 183.81C93.6884 183.93 93.5418 183.99 93.3684 183.99C93.1951 183.99 93.0484 183.933 92.9284 183.82ZM100.091 189.21C100.484 189.21 100.807 189.057 101.061 188.75C101.314 188.437 101.441 188 101.441 187.44C101.441 186.913 101.317 186.497 101.071 186.19C100.824 185.877 100.511 185.72 100.131 185.72C99.7505 185.72 99.4205 185.86 99.1405 186.14C98.8672 186.413 98.7305 186.85 98.7305 187.45C98.7305 188.037 98.8672 188.477 99.1405 188.77C99.4205 189.063 99.7372 189.21 100.091 189.21ZM98.7305 184.93V185.71C99.0772 185.143 99.5972 184.86 100.291 184.86C100.957 184.86 101.484 185.103 101.871 185.59C102.257 186.07 102.451 186.683 102.451 187.43C102.451 188.197 102.251 188.83 101.851 189.33C101.457 189.823 100.931 190.07 100.271 190.07C99.5972 190.07 99.0839 189.79 98.7305 189.23V191.94H97.7505V184.93H98.7305ZM106.701 187.1V186.92C106.688 186.54 106.585 186.24 106.391 186.02C106.198 185.793 105.921 185.68 105.561 185.68C105.228 185.68 104.941 185.803 104.701 186.05C104.461 186.29 104.311 186.64 104.251 187.1H106.701ZM107.331 188.85V189.73C106.958 189.943 106.465 190.05 105.851 190.05C105.065 190.05 104.438 189.813 103.971 189.34C103.505 188.867 103.271 188.247 103.271 187.48C103.271 186.667 103.485 186.03 103.911 185.57C104.338 185.103 104.881 184.87 105.541 184.87C106.188 184.87 106.701 185.073 107.081 185.48C107.461 185.88 107.651 186.46 107.651 187.22C107.651 187.427 107.631 187.643 107.591 187.87H104.261C104.328 188.31 104.515 188.647 104.821 188.88C105.128 189.113 105.515 189.23 105.981 189.23C106.521 189.23 106.971 189.103 107.331 188.85ZM109.785 184.93V185.82C110.032 185.193 110.475 184.88 111.115 184.88C111.209 184.88 111.312 184.89 111.425 184.91V185.87C111.285 185.81 111.129 185.78 110.955 185.78C110.615 185.78 110.335 185.93 110.115 186.23C109.895 186.53 109.785 186.887 109.785 187.3V190H108.805V184.93H109.785ZM115.084 185.1V185.99C114.757 185.797 114.337 185.7 113.824 185.7C113.591 185.7 113.404 185.753 113.264 185.86C113.131 185.967 113.064 186.107 113.064 186.28C113.064 186.327 113.067 186.373 113.074 186.42C113.087 186.46 113.107 186.503 113.134 186.55C113.161 186.59 113.184 186.627 113.204 186.66C113.231 186.687 113.271 186.717 113.324 186.75C113.377 186.783 113.417 186.813 113.444 186.84C113.477 186.86 113.527 186.887 113.594 186.92C113.667 186.953 113.721 186.98 113.754 187C113.787 187.013 113.844 187.04 113.924 187.08C114.011 187.113 114.071 187.137 114.104 187.15C114.497 187.323 114.804 187.52 115.024 187.74C115.251 187.953 115.364 188.24 115.364 188.6C115.364 189.053 115.204 189.41 114.884 189.67C114.564 189.923 114.131 190.05 113.584 190.05C112.984 190.05 112.484 189.95 112.084 189.75V188.82C112.551 189.107 113.034 189.25 113.534 189.25C113.794 189.25 113.994 189.197 114.134 189.09C114.281 188.983 114.354 188.843 114.354 188.67C114.354 188.523 114.297 188.393 114.184 188.28C114.071 188.16 113.954 188.073 113.834 188.02C113.721 187.96 113.524 187.87 113.244 187.75C112.451 187.423 112.054 186.943 112.054 186.31C112.054 185.863 112.221 185.513 112.554 185.26C112.887 185.007 113.304 184.88 113.804 184.88C114.351 184.88 114.777 184.953 115.084 185.1ZM119.533 187.1V186.92C119.52 186.54 119.417 186.24 119.223 186.02C119.03 185.793 118.753 185.68 118.393 185.68C118.06 185.68 117.773 185.803 117.533 186.05C117.293 186.29 117.143 186.64 117.083 187.1H119.533ZM120.163 188.85V189.73C119.79 189.943 119.297 190.05 118.683 190.05C117.897 190.05 117.27 189.813 116.803 189.34C116.337 188.867 116.103 188.247 116.103 187.48C116.103 186.667 116.317 186.03 116.743 185.57C117.17 185.103 117.713 184.87 118.373 184.87C119.02 184.87 119.533 185.073 119.913 185.48C120.293 185.88 120.483 186.46 120.483 187.22C120.483 187.427 120.463 187.643 120.423 187.87H117.093C117.16 188.31 117.347 188.647 117.653 188.88C117.96 189.113 118.347 189.23 118.813 189.23C119.353 189.23 119.803 189.103 120.163 188.85ZM122.727 190L121.137 184.93H122.177L122.647 186.61C122.801 187.143 122.931 187.613 123.037 188.02C123.144 188.427 123.211 188.7 123.237 188.84L123.277 189.05C123.364 188.63 123.584 187.813 123.937 186.6L124.427 184.93H125.377L125.877 186.6C126.037 187.153 126.174 187.637 126.287 188.05C126.401 188.457 126.474 188.727 126.507 188.86L126.547 189.06C126.627 188.667 126.854 187.847 127.227 186.6L127.727 184.93H128.717L127.107 190H125.987L125.517 188.34C125.377 187.833 125.254 187.387 125.147 187C125.047 186.607 124.981 186.34 124.947 186.2L124.907 186C124.814 186.433 124.611 187.213 124.297 188.34L123.837 190H122.727ZM132.266 187.74H131.506C131.133 187.74 130.85 187.813 130.656 187.96C130.47 188.107 130.376 188.293 130.376 188.52C130.376 188.753 130.45 188.937 130.596 189.07C130.743 189.203 130.956 189.27 131.236 189.27C131.556 189.27 131.806 189.183 131.986 189.01C132.173 188.83 132.266 188.597 132.266 188.31V187.74ZM129.716 186.14V185.19C130.11 184.963 130.63 184.85 131.276 184.85C132.603 184.85 133.266 185.493 133.266 186.78V190H132.296V189.4C132.036 189.827 131.58 190.04 130.926 190.04C130.446 190.04 130.06 189.903 129.766 189.63C129.48 189.35 129.336 188.997 129.336 188.57C129.336 188.083 129.52 187.707 129.886 187.44C130.253 187.167 130.766 187.03 131.426 187.03H132.266V186.74C132.266 186.393 132.183 186.133 132.016 185.96C131.85 185.78 131.573 185.69 131.186 185.69C130.646 185.69 130.156 185.84 129.716 186.14ZM137.256 187.74H136.496C136.123 187.74 135.84 187.813 135.646 187.96C135.46 188.107 135.366 188.293 135.366 188.52C135.366 188.753 135.44 188.937 135.586 189.07C135.733 189.203 135.946 189.27 136.226 189.27C136.546 189.27 136.796 189.183 136.976 189.01C137.163 188.83 137.256 188.597 137.256 188.31V187.74ZM134.706 186.14V185.19C135.1 184.963 135.62 184.85 136.266 184.85C137.593 184.85 138.256 185.493 138.256 186.78V190H137.286V189.4C137.026 189.827 136.57 190.04 135.916 190.04C135.436 190.04 135.05 189.903 134.756 189.63C134.47 189.35 134.326 188.997 134.326 188.57C134.326 188.083 134.51 187.707 134.876 187.44C135.243 187.167 135.756 187.03 136.416 187.03H137.256V186.74C137.256 186.393 137.173 186.133 137.006 185.96C136.84 185.78 136.563 185.69 136.176 185.69C135.636 185.69 135.146 185.84 134.706 186.14ZM140.557 184.93V185.8C140.857 185.173 141.383 184.86 142.137 184.86C142.637 184.86 143.033 185.013 143.327 185.32C143.62 185.627 143.767 186.043 143.767 186.57V190H142.787V186.8C142.787 186.447 142.697 186.177 142.517 185.99C142.343 185.803 142.11 185.71 141.817 185.71C141.47 185.71 141.173 185.847 140.927 186.12C140.68 186.387 140.557 186.763 140.557 187.25V190H139.577V184.93H140.557ZM45.53 205.21C45.9233 205.21 46.2467 205.057 46.5 204.75C46.7533 204.437 46.88 204 46.88 203.44C46.88 202.913 46.7567 202.497 46.51 202.19C46.2633 201.877 45.95 201.72 45.57 201.72C45.19 201.72 44.86 201.86 44.58 202.14C44.3067 202.413 44.17 202.85 44.17 203.45C44.17 204.037 44.3067 204.477 44.58 204.77C44.86 205.063 45.1767 205.21 45.53 205.21ZM44.17 200.93V201.71C44.5167 201.143 45.0367 200.86 45.73 200.86C46.3967 200.86 46.9233 201.103 47.31 201.59C47.6967 202.07 47.89 202.683 47.89 203.43C47.89 204.197 47.69 204.83 47.29 205.33C46.8967 205.823 46.37 206.07 45.71 206.07C45.0367 206.07 44.5233 205.79 44.17 205.23V207.94H43.19V200.93H44.17ZM49.9708 200.93V201.82C50.2174 201.193 50.6608 200.88 51.3008 200.88C51.3941 200.88 51.4974 200.89 51.6108 200.91V201.87C51.4708 201.81 51.3141 201.78 51.1408 201.78C50.8008 201.78 50.5208 201.93 50.3008 202.23C50.0808 202.53 49.9708 202.887 49.9708 203.3V206H48.9908V200.93H49.9708ZM54.4995 206.09C53.7528 206.09 53.1661 205.847 52.7395 205.36C52.3128 204.873 52.0995 204.257 52.0995 203.51C52.0995 202.75 52.3195 202.12 52.7595 201.62C53.1995 201.113 53.7795 200.86 54.4995 200.86C55.2728 200.86 55.8695 201.107 56.2895 201.6C56.7095 202.087 56.9195 202.71 56.9195 203.47C56.9195 204.23 56.7028 204.857 56.2695 205.35C55.8428 205.843 55.2528 206.09 54.4995 206.09ZM54.4895 201.69C54.0561 201.69 53.7195 201.863 53.4795 202.21C53.2395 202.55 53.1195 202.973 53.1195 203.48C53.1195 203.98 53.2428 204.403 53.4895 204.75C53.7361 205.09 54.0728 205.26 54.4995 205.26C54.9528 205.26 55.2961 205.093 55.5295 204.76C55.7695 204.427 55.8895 204.003 55.8895 203.49C55.8895 202.963 55.7761 202.533 55.5495 202.2C55.3228 201.86 54.9695 201.69 54.4895 201.69ZM60.364 205.21C60.7573 205.21 61.0807 205.057 61.334 204.75C61.5873 204.437 61.714 204 61.714 203.44C61.714 202.913 61.5907 202.497 61.344 202.19C61.0973 201.877 60.784 201.72 60.404 201.72C60.024 201.72 59.694 201.86 59.414 202.14C59.1407 202.413 59.004 202.85 59.004 203.45C59.004 204.037 59.1407 204.477 59.414 204.77C59.694 205.063 60.0107 205.21 60.364 205.21ZM59.004 200.93V201.71C59.3507 201.143 59.8707 200.86 60.564 200.86C61.2307 200.86 61.7573 201.103 62.144 201.59C62.5307 202.07 62.724 202.683 62.724 203.43C62.724 204.197 62.524 204.83 62.124 205.33C61.7307 205.823 61.204 206.07 60.544 206.07C59.8707 206.07 59.3573 205.79 59.004 205.23V207.94H58.024V200.93H59.004ZM66.9748 203.1V202.92C66.9614 202.54 66.8581 202.24 66.6648 202.02C66.4714 201.793 66.1948 201.68 65.8348 201.68C65.5014 201.68 65.2148 201.803 64.9748 202.05C64.7348 202.29 64.5848 202.64 64.5248 203.1H66.9748ZM67.6048 204.85V205.73C67.2314 205.943 66.7381 206.05 66.1248 206.05C65.3381 206.05 64.7114 205.813 64.2448 205.34C63.7781 204.867 63.5448 204.247 63.5448 203.48C63.5448 202.667 63.7581 202.03 64.1848 201.57C64.6114 201.103 65.1548 200.87 65.8148 200.87C66.4614 200.87 66.9748 201.073 67.3548 201.48C67.7348 201.88 67.9248 202.46 67.9248 203.22C67.9248 203.427 67.9048 203.643 67.8648 203.87H64.5348C64.6014 204.31 64.7881 204.647 65.0948 204.88C65.4014 205.113 65.7881 205.23 66.2548 205.23C66.7948 205.23 67.2448 205.103 67.6048 204.85ZM70.0587 200.93V201.82C70.3053 201.193 70.7487 200.88 71.3887 200.88C71.482 200.88 71.5853 200.89 71.6987 200.91V201.87C71.5587 201.81 71.402 201.78 71.2287 201.78C70.8887 201.78 70.6087 201.93 70.3887 202.23C70.1687 202.53 70.0587 202.887 70.0587 203.3V206H69.0787V200.93H70.0587ZM73.7373 201.69V204.48C73.7373 204.967 73.9707 205.21 74.4373 205.21C74.7107 205.21 74.9407 205.137 75.1273 204.99V205.87C74.9073 205.99 74.6373 206.05 74.3173 206.05C73.2707 206.05 72.7473 205.52 72.7473 204.46V201.69H71.9573V200.93H72.7473V199.69H73.7373V200.93H75.0673V201.69H73.7373ZM76.2476 206V200.93H77.2376V206H76.2476ZM76.2976 199.82C76.1842 199.7 76.1276 199.553 76.1276 199.38C76.1276 199.207 76.1842 199.06 76.2976 198.94C76.4176 198.82 76.5642 198.76 76.7376 198.76C76.9109 198.76 77.0576 198.82 77.1776 198.94C77.2976 199.06 77.3576 199.207 77.3576 199.38C77.3576 199.547 77.2976 199.69 77.1776 199.81C77.0576 199.93 76.9109 199.99 76.7376 199.99C76.5642 199.99 76.4176 199.933 76.2976 199.82ZM82.6497 203.49H84.8097L84.6997 203.15C84.4464 202.363 84.2397 201.713 84.0797 201.2C83.9197 200.68 83.823 200.357 83.7897 200.23L83.7397 200.04C83.6664 200.353 83.3397 201.39 82.7597 203.15L82.6497 203.49ZM85.6197 206L85.0897 204.35H82.3697L81.8297 206H80.7397L83.0697 199.26H84.4197L86.7197 206H85.6197ZM88.7013 200.93V201.8C89.0013 201.173 89.5279 200.86 90.2813 200.86C90.7813 200.86 91.1779 201.013 91.4713 201.32C91.7646 201.627 91.9113 202.043 91.9113 202.57V206H90.9313V202.8C90.9313 202.447 90.8413 202.177 90.6613 201.99C90.4879 201.803 90.2546 201.71 89.9613 201.71C89.6146 201.71 89.3179 201.847 89.0713 202.12C88.8246 202.387 88.7013 202.763 88.7013 203.25V206H87.7213V200.93H88.7013ZM95.2791 205.21C95.6657 205.21 95.9924 205.063 96.2591 204.77C96.5257 204.477 96.6591 204.03 96.6591 203.43C96.6591 202.85 96.5191 202.42 96.2391 202.14C95.9657 201.86 95.6557 201.72 95.3091 201.72C94.9157 201.72 94.5924 201.877 94.3391 202.19C94.0857 202.497 93.9591 202.937 93.9591 203.51C93.9591 204.017 94.0824 204.427 94.3291 204.74C94.5824 205.053 94.8991 205.21 95.2791 205.21ZM96.6591 198.93H97.6491V206H96.6591V205.23C96.3057 205.79 95.7891 206.07 95.1091 206.07C94.4424 206.07 93.9157 205.82 93.5291 205.32C93.1424 204.813 92.9491 204.203 92.9491 203.49C92.9491 202.697 93.1524 202.06 93.5591 201.58C93.9657 201.1 94.4891 200.86 95.1291 200.86C95.7891 200.86 96.2991 201.14 96.6591 201.7V198.93ZM101.7 203.74H100.94C100.567 203.74 100.283 203.813 100.09 203.96C99.9032 204.107 99.8098 204.293 99.8098 204.52C99.8098 204.753 99.8832 204.937 100.03 205.07C100.177 205.203 100.39 205.27 100.67 205.27C100.99 205.27 101.24 205.183 101.42 205.01C101.607 204.83 101.7 204.597 101.7 204.31V203.74ZM99.1498 202.14V201.19C99.5432 200.963 100.063 200.85 100.71 200.85C102.037 200.85 102.7 201.493 102.7 202.78V206H101.73V205.4C101.47 205.827 101.013 206.04 100.36 206.04C99.8798 206.04 99.4932 205.903 99.1998 205.63C98.9132 205.35 98.7698 204.997 98.7698 204.57C98.7698 204.083 98.9532 203.707 99.3198 203.44C99.6865 203.167 100.2 203.03 100.86 203.03H101.7V202.74C101.7 202.393 101.617 202.133 101.45 201.96C101.283 201.78 101.007 201.69 100.62 201.69C100.08 201.69 99.5898 201.84 99.1498 202.14Z" fill="#2B2B2B"/>
<rect x="43" y="227" width="120" height="24" rx="8" fill="#FF1934"/>
<path d="M92.5797 238.352L93.1477 238.352C93.5157 238.352 93.7904 238.264 93.9717 238.088C94.1531 237.912 94.2437 237.675 94.2437 237.376C94.2437 237.083 94.1531 236.853 93.9717 236.688C93.7904 236.517 93.5237 236.432 93.1717 236.432L92.5797 236.432L92.5797 238.352ZM91.5717 235.608L93.2597 235.608C93.8677 235.608 94.3531 235.773 94.7157 236.104C95.0837 236.435 95.2677 236.859 95.2677 237.376C95.2677 237.925 95.0784 238.363 94.6997 238.688C94.3264 239.008 93.8544 239.168 93.2837 239.168L92.5797 239.168L92.5797 241L91.5717 241L91.5717 235.608ZM99.193 238.936L99.193 235.608L100.201 235.608L100.201 238.928C100.201 239.627 100.012 240.16 99.633 240.528C99.2597 240.891 98.745 241.072 98.089 241.072C97.449 241.072 96.937 240.893 96.553 240.536C96.1744 240.173 95.985 239.656 95.985 238.984L95.985 235.608L96.993 235.608L96.993 238.976C96.993 239.387 97.0944 239.685 97.297 239.872C97.4997 240.053 97.7637 240.144 98.089 240.144C98.825 240.144 99.193 239.741 99.193 238.936ZM104.69 235.608L104.69 236.44L103.322 236.44L103.322 241L102.306 241L102.306 236.44L100.938 236.44L100.938 235.608L104.69 235.608ZM106.815 238.952L108.335 238.952L108.263 238.712C108.081 238.136 107.932 237.653 107.815 237.264C107.703 236.869 107.633 236.621 107.607 236.52L107.575 236.36C107.527 236.627 107.297 237.413 106.887 238.72L106.815 238.952ZM108.975 241L108.591 239.776L106.551 239.776L106.167 241L105.111 241L106.935 235.608L108.239 235.608L110.063 241L108.975 241ZM111.845 236.44L111.845 238.2L112.517 238.2C112.827 238.2 113.059 238.123 113.213 237.968C113.368 237.808 113.445 237.587 113.445 237.304C113.445 237.027 113.363 236.813 113.197 236.664C113.037 236.515 112.805 236.44 112.501 236.44L111.845 236.44ZM113.621 241L112.397 239.032L111.845 239.032L111.845 241L110.837 241L110.837 235.608L112.501 235.608C113.115 235.608 113.595 235.763 113.941 236.072C114.293 236.381 114.469 236.795 114.469 237.312C114.464 237.696 114.371 238.021 114.189 238.288C114.008 238.549 113.76 238.744 113.445 238.872L114.829 241L113.621 241Z" fill="white"/>
<g clip-path="url(#clip1_1124_4113)">
<path d="M295.367 283.133C337.341 283.133 371.367 249.047 371.367 207C371.367 164.953 337.341 130.867 295.367 130.867C253.394 130.867 219.367 164.953 219.367 207C219.367 249.047 253.394 283.133 295.367 283.133Z" fill="white"/>
<path d="M237.162 249.389C245.802 261.308 258.149 270.702 273.212 275.596C288.275 280.49 303.785 280.147 317.781 275.584L295.5 207L237.162 249.389Z" fill="#008C1E"/>
<path d="M317.788 275.582C331.793 271.047 344.543 262.208 353.852 249.395C363.161 236.582 367.628 221.724 367.613 207.003L295.501 207L317.788 275.582Z" fill="#008C1E"/>
<path d="M367.612 206.997C367.627 192.276 363.16 177.419 353.851 164.606C344.541 151.793 331.792 142.953 317.786 138.418L295.499 207L367.612 206.997Z" fill="#008C1E"/>
<path d="M318.115 138.75C304.119 134.186 288.609 133.843 273.546 138.738C258.483 143.632 246.136 153.026 237.496 164.945L295.834 207.334L318.115 138.75Z" fill="#FF1934"/>
<path d="M237.158 164.616C228.493 176.517 223.374 191.162 223.374 207C223.374 222.838 228.493 237.483 237.158 249.384L295.5 207L237.158 164.616Z" fill="#1699D9"/>
<path d="M318.26 275.44L296.181 207.501L367.616 207.501C367.616 207.331 367.626 207.17 367.626 207C367.626 206.83 367.616 206.67 367.616 206.499L296.191 206.499L318.26 138.56C317.939 138.45 317.629 138.34 317.308 138.24L295.23 206.189L237.439 164.205C237.238 164.476 237.048 164.746 236.858 165.017L294.639 207L236.858 248.984C237.048 249.254 237.238 249.535 237.439 249.795L295.23 207.812L317.308 275.76C317.629 275.66 317.939 275.54 318.26 275.44Z" fill="white"/>
<g opacity="0.32" style="mix-blend-mode:multiply">
<path d="M367.627 206.874C367.627 167.114 335.387 134.874 295.627 134.874C255.867 134.874 223.627 167.114 223.627 206.874C223.627 246.634 255.867 278.874 295.627 278.874C335.387 278.874 367.627 246.634 367.627 206.874ZM227.627 206.874C227.627 169.314 258.067 138.874 295.627 138.874C333.187 138.874 363.627 169.314 363.627 206.874C363.627 244.434 333.187 274.874 295.627 274.874C258.067 274.874 227.627 244.434 227.627 206.874Z" fill="#2B2B2B"/>
</g>
<path d="M287.515 206.986C287.515 211.404 291.096 214.986 295.515 214.986C299.933 214.986 303.515 211.404 303.515 206.986C303.515 202.568 299.933 198.986 295.515 198.986C291.096 198.986 287.515 202.568 287.515 206.986Z" fill="white"/>
<path d="M277.075 263.506L277.545 262.061L277.294 262.055C276.69 262.049 276.185 262.042 275.779 262.034C275.369 262.018 275.112 262.007 275.007 262.002L274.845 261.983C275.084 262.111 275.761 262.572 276.877 263.366L277.075 263.506ZM279.69 262.085L278.408 262.072L277.777 264.012L278.823 264.755L278.496 265.76L273.932 262.359L274.335 261.119L280.027 261.05L279.69 262.085ZM280.131 258.242C280.22 257.969 280.189 257.712 280.037 257.472C279.88 257.23 279.611 257.047 279.231 256.924C278.85 256.8 278.528 256.791 278.264 256.896C277.995 256.999 277.818 257.182 277.732 257.446C277.646 257.71 277.671 257.97 277.806 258.227C277.941 258.484 278.204 258.676 278.595 258.803C278.985 258.93 279.318 258.934 279.592 258.816C279.866 258.697 280.046 258.506 280.131 258.242ZM276.693 258.185L277.286 258.378C276.944 257.964 276.856 257.501 277.023 256.988C277.186 256.486 277.495 256.147 277.951 255.969C278.408 255.787 278.931 255.792 279.52 255.983C280.098 256.171 280.529 256.476 280.812 256.899C281.092 257.315 281.149 257.777 280.984 258.284C280.816 258.801 280.479 259.124 279.972 259.251L282.003 259.911L281.707 260.824L276.396 259.098L276.693 258.185ZM280.703 253.324L280.55 253.796C280.472 254.035 280.464 254.234 280.524 254.393C280.579 254.552 280.683 254.655 280.835 254.705C281.16 254.81 281.383 254.675 281.505 254.3C281.571 254.097 281.564 253.921 281.483 253.771C281.399 253.615 281.261 253.506 281.068 253.443L280.703 253.324ZM278.938 254.82L278.094 254.546C278.01 254.199 278.057 253.754 278.233 253.212C278.573 252.167 279.229 251.802 280.203 252.119L282.668 252.92L282.374 253.825L281.91 253.674C282.182 253.959 282.238 254.347 282.078 254.839C281.96 255.205 281.758 255.462 281.474 255.611C281.192 255.754 280.889 255.774 280.564 255.668C280.199 255.549 279.957 255.319 279.838 254.978C279.719 254.636 279.743 254.207 279.911 253.69L280.094 253.127L279.859 253.05C279.645 252.981 279.465 252.984 279.317 253.059C279.169 253.135 279.052 253.307 278.964 253.575C278.831 253.986 278.822 254.401 278.938 254.82ZM279.414 249.811L280.098 250.034C279.679 249.701 279.546 249.299 279.7 248.828C279.734 248.721 279.77 248.637 279.806 248.576L280.689 248.863C280.6 248.963 280.533 249.084 280.487 249.226C280.406 249.475 280.442 249.711 280.593 249.934C280.745 250.157 280.973 250.318 281.278 250.417L283.271 251.065L282.972 251.985L279.117 250.724L279.414 249.811ZM281.034 247.154L282.997 247.792C283.159 247.844 283.298 247.842 283.412 247.783C283.521 247.723 283.6 247.617 283.65 247.465C283.712 247.273 283.717 247.078 283.663 246.881L284.447 247.135C284.475 247.341 284.444 247.583 284.354 247.862C284.083 248.694 283.527 248.973 282.685 248.7L280.737 248.067L280.55 248.645L279.865 248.422L280.053 247.844L279.124 247.543L279.421 246.63L280.349 246.931L280.661 245.973L281.346 246.195L281.034 247.154ZM281.222 244.246L281.83 244.444C281.465 244.084 281.365 243.651 281.53 243.143C281.713 242.58 282.075 242.294 282.616 242.285C282.416 242.108 282.285 241.897 282.224 241.653C282.163 241.409 282.175 241.157 282.259 240.899C282.386 240.508 282.603 240.245 282.911 240.11C283.213 239.972 283.583 239.975 284.019 240.116L286.56 240.942L286.261 241.863L283.895 241.094C283.377 240.926 283.054 241.039 282.926 241.435C282.862 241.633 282.89 241.838 283.011 242.052C283.134 242.26 283.381 242.424 283.751 242.545L285.821 243.217L285.522 244.138L283.156 243.369C282.638 243.201 282.315 243.314 282.187 243.71C282.122 243.908 282.151 244.113 282.272 244.327C282.394 244.54 282.64 244.707 283.01 244.827L285.079 245.5L284.783 246.413L280.925 245.159L281.222 244.246ZM285.376 236.95L285.261 236.913C285.01 236.843 284.79 236.847 284.601 236.926C284.41 236.998 284.275 237.154 284.197 237.392C284.127 237.61 284.146 237.827 284.256 238.042C284.362 238.25 284.56 238.427 284.849 238.571L285.376 236.95ZM286.818 236.73L287.61 236.987C287.69 237.31 287.647 237.725 287.483 238.232C287.283 238.846 286.943 239.271 286.463 239.508C285.982 239.744 285.453 239.768 284.874 239.58C284.261 239.381 283.833 239.057 283.592 238.608C283.351 238.16 283.312 237.685 283.475 237.182C283.638 236.68 283.92 236.332 284.319 236.136C284.719 235.941 285.211 235.938 285.794 236.128C285.936 236.174 286.113 236.251 286.325 236.359L285.539 238.778C285.839 238.803 286.097 238.735 286.311 238.575C286.528 238.41 286.687 238.17 286.789 237.856C286.921 237.45 286.931 237.074 286.818 236.73ZM284.614 233.807L285.276 234.022C284.875 233.65 284.768 233.178 284.954 232.605C285.079 232.22 285.295 231.953 285.6 231.806C285.906 231.658 286.272 231.654 286.698 231.792L289.262 232.625L288.966 233.538L286.592 232.767C286.338 232.685 286.128 232.684 285.962 232.764C285.79 232.843 285.671 232.987 285.603 233.195C285.526 233.433 285.555 233.664 285.69 233.887C285.819 234.109 286.057 234.276 286.402 234.388L288.471 235.06L288.175 235.973L284.317 234.72L284.614 233.807ZM286.761 229.529L288.724 230.167C288.886 230.22 289.024 230.217 289.138 230.159C289.248 230.099 289.327 229.993 289.376 229.841C289.439 229.648 289.443 229.453 289.39 229.256L290.173 229.511C290.202 229.717 290.171 229.959 290.08 230.238C289.81 231.07 289.254 231.349 288.412 231.075L286.464 230.442L286.276 231.021L285.591 230.798L285.779 230.22L284.851 229.918L285.148 229.005L286.076 229.307L286.387 228.348L287.072 228.571L286.761 229.529Z" fill="white"/>
<path d="M284.004 160.63L283.068 160.934C283.166 160.476 283.14 160.013 282.988 159.547C282.836 159.08 282.55 158.741 282.128 158.531C281.713 158.323 281.239 158.306 280.706 158.479C280.174 158.652 279.801 158.945 279.587 159.356C279.374 159.773 279.35 160.232 279.513 160.735C279.669 161.216 279.93 161.586 280.294 161.844L279.335 162.155C279.03 161.906 278.785 161.498 278.601 160.93C278.353 160.169 278.387 159.463 278.703 158.811C279.025 158.162 279.581 157.709 280.373 157.452C281.149 157.2 281.859 157.238 282.505 157.567C283.156 157.899 283.608 158.451 283.858 159.222C284.041 159.785 284.09 160.254 284.004 160.63ZM279.382 163.127L284.761 161.379L285.058 162.292L279.679 164.04L279.382 163.127ZM284.645 166.201L284.945 167.122L281.087 168.375L280.788 167.455L281.419 167.249C280.907 167.192 280.555 166.868 280.364 166.28C280.237 165.889 280.25 165.549 280.402 165.258C280.555 164.968 280.836 164.756 281.247 164.622L283.857 163.774L284.153 164.687L281.757 165.466C281.513 165.545 281.347 165.663 281.258 165.821C281.171 165.984 281.161 166.17 281.229 166.378C281.314 166.641 281.47 166.818 281.695 166.907C281.922 167.002 282.216 166.991 282.576 166.874L284.645 166.201ZM285.894 170.459L285.088 170.721C285.158 170.418 285.131 170.076 285.007 169.696C284.956 169.539 284.88 169.426 284.779 169.358C284.685 169.293 284.585 169.278 284.479 169.312C284.438 169.326 284.402 169.343 284.369 169.365C284.339 169.392 284.311 169.426 284.285 169.468C284.266 169.513 284.249 169.555 284.234 169.594C284.218 169.633 284.204 169.685 284.192 169.751C284.185 169.815 284.178 169.87 284.17 169.917C284.163 169.964 284.156 170.029 284.149 170.109C284.141 170.19 284.134 170.254 284.127 170.302C284.083 170.613 284.005 170.874 283.893 171.084C283.782 171.294 283.597 171.441 283.339 171.525C282.978 171.642 282.655 171.604 282.368 171.411C282.081 171.219 281.868 170.907 281.727 170.476C281.573 169.999 281.526 169.588 281.588 169.242L282.424 168.971C282.307 169.385 282.312 169.789 282.441 170.185C282.495 170.352 282.567 170.472 282.658 170.543C282.755 170.618 282.86 170.638 282.971 170.601C283.037 170.58 283.091 170.546 283.131 170.499C283.177 170.45 283.212 170.375 283.234 170.272C283.257 170.169 283.27 170.089 283.274 170.032C283.285 169.978 283.297 169.87 283.312 169.708C283.312 169.692 283.313 169.677 283.315 169.665C283.318 169.659 283.32 169.647 283.32 169.63C283.32 169.613 283.321 169.599 283.323 169.587C283.394 168.942 283.667 168.541 284.144 168.387C284.499 168.271 284.822 168.315 285.112 168.518C285.402 168.721 285.613 169.025 285.745 169.431C285.872 169.821 285.922 170.164 285.894 170.459ZM285.998 172.695L284.035 173.332C283.873 173.385 283.763 173.469 283.704 173.583C283.651 173.695 283.649 173.828 283.699 173.98C283.761 174.173 283.872 174.333 284.032 174.461L283.248 174.715C283.104 174.566 282.987 174.352 282.896 174.073C282.626 173.241 282.912 172.688 283.754 172.414L285.701 171.782L285.514 171.203L286.198 170.981L286.386 171.559L287.314 171.257L287.611 172.17L286.683 172.472L286.994 173.431L286.31 173.653L285.998 172.695ZM286.4 177.089L286.514 177.052C286.759 176.961 286.935 176.828 287.041 176.653C287.153 176.482 287.171 176.277 287.093 176.039C287.022 175.821 286.879 175.657 286.664 175.548C286.456 175.441 286.192 175.415 285.873 175.468L286.4 177.089ZM285.362 178.116L284.571 178.373C284.316 178.158 284.106 177.797 283.942 177.29C283.742 176.676 283.767 176.133 284.017 175.659C284.267 175.185 284.681 174.854 285.259 174.667C285.873 174.467 286.409 174.478 286.868 174.699C287.327 174.92 287.638 175.282 287.801 175.784C287.964 176.286 287.941 176.734 287.733 177.127C287.524 177.52 287.128 177.811 286.545 178.001C286.403 178.047 286.214 178.088 285.979 178.125L285.193 175.706C284.936 175.862 284.767 176.069 284.688 176.324C284.61 176.585 284.622 176.873 284.724 177.187C284.856 177.593 285.069 177.903 285.362 178.116ZM288.864 179.184L288.179 179.407C288.714 179.429 289.057 179.677 289.211 180.148C289.245 180.255 289.266 180.343 289.272 180.414L288.389 180.701C288.402 180.568 288.385 180.43 288.339 180.288C288.259 180.04 288.091 179.87 287.837 179.779C287.583 179.687 287.304 179.691 287 179.79L285.006 180.438L284.707 179.517L288.567 178.271L288.864 179.184Z" fill="white"/>
<path d="M235.034 206.338H235.602C235.97 206.338 236.244 206.25 236.426 206.074C236.607 205.898 236.698 205.661 236.698 205.362C236.698 205.069 236.607 204.839 236.426 204.674C236.244 204.503 235.978 204.418 235.626 204.418H235.034V206.338ZM234.026 203.594H235.714C236.322 203.594 236.807 203.759 237.17 204.09C237.538 204.421 237.722 204.845 237.722 205.362C237.722 205.911 237.532 206.349 237.154 206.674C236.78 206.994 236.308 207.154 235.738 207.154H235.034V208.986H234.026V203.594ZM240.871 206.626V206.506C240.86 206.245 240.788 206.037 240.655 205.882C240.527 205.722 240.338 205.642 240.087 205.642C239.858 205.642 239.658 205.727 239.487 205.898C239.322 206.063 239.215 206.306 239.167 206.626H240.871ZM241.527 207.93V208.762C241.244 208.938 240.836 209.026 240.303 209.026C239.658 209.026 239.148 208.834 238.775 208.45C238.402 208.066 238.215 207.57 238.215 206.962C238.215 206.317 238.391 205.81 238.743 205.442C239.095 205.074 239.535 204.89 240.063 204.89C240.591 204.89 241.01 205.05 241.319 205.37C241.628 205.69 241.783 206.157 241.783 206.77C241.783 206.919 241.764 207.111 241.727 207.346H239.183C239.252 207.639 239.396 207.863 239.615 208.018C239.839 208.173 240.116 208.25 240.447 208.25C240.874 208.25 241.234 208.143 241.527 207.93ZM243.626 204.93V205.65C243.812 205.149 244.154 204.898 244.65 204.898C244.762 204.898 244.852 204.906 244.922 204.922V205.85C244.799 205.797 244.663 205.77 244.514 205.77C244.252 205.77 244.039 205.877 243.874 206.09C243.708 206.303 243.626 206.57 243.626 206.89V208.986H242.658L242.666 204.93H243.626ZM247.998 204.93H248.966V208.986H247.998V208.322C247.784 208.791 247.368 209.026 246.75 209.026C246.339 209.026 246.019 208.909 245.79 208.674C245.56 208.439 245.446 208.106 245.446 207.674V204.93H246.406V207.45C246.406 207.706 246.467 207.901 246.59 208.034C246.718 208.167 246.891 208.234 247.11 208.234C247.387 208.234 247.603 208.141 247.758 207.954C247.918 207.767 247.998 207.485 247.998 207.106V204.93ZM250.969 204.93V205.57C251.199 205.111 251.58 204.882 252.113 204.882C252.705 204.882 253.089 205.138 253.265 205.65C253.372 205.405 253.532 205.215 253.745 205.082C253.959 204.949 254.201 204.882 254.473 204.882C254.884 204.882 255.201 205.007 255.425 205.258C255.649 205.503 255.761 205.855 255.761 206.314V208.986H254.793V206.498C254.793 205.954 254.585 205.682 254.169 205.682C253.961 205.682 253.775 205.773 253.609 205.954C253.449 206.135 253.369 206.421 253.369 206.81V208.986H252.401V206.498C252.401 205.954 252.193 205.682 251.777 205.682C251.569 205.682 251.383 205.773 251.217 205.954C251.052 206.135 250.969 206.421 250.969 206.81V208.986H250.009V204.93H250.969ZM258.823 207.242H258.327C258.077 207.242 257.885 207.295 257.751 207.402C257.618 207.503 257.551 207.634 257.551 207.794C257.551 208.135 257.749 208.306 258.143 208.306C258.357 208.306 258.522 208.245 258.639 208.122C258.762 207.994 258.823 207.829 258.823 207.626V207.242ZM256.855 206.026V205.138C257.159 204.951 257.597 204.858 258.167 204.858C259.266 204.858 259.815 205.37 259.815 206.394V208.986H258.863V208.498C258.677 208.845 258.325 209.018 257.807 209.018C257.423 209.018 257.117 208.906 256.887 208.682C256.663 208.458 256.551 208.175 256.551 207.834C256.551 207.45 256.695 207.149 256.983 206.93C257.271 206.711 257.687 206.602 258.231 206.602H258.823V206.354C258.823 206.13 258.765 205.959 258.647 205.842C258.53 205.725 258.33 205.666 258.047 205.666C257.615 205.666 257.218 205.786 256.855 206.026ZM261.766 203.33V205.618C261.985 205.127 262.398 204.882 263.006 204.882C263.401 204.882 263.718 205.007 263.958 205.258C264.203 205.503 264.326 205.861 264.326 206.33V208.986H263.366V206.498C263.366 206.242 263.299 206.042 263.166 205.898C263.038 205.754 262.87 205.682 262.662 205.682C262.433 205.682 262.225 205.77 262.038 205.946C261.857 206.122 261.766 206.41 261.766 206.81V208.986H260.806V203.33H261.766ZM267.402 207.242H266.906C266.655 207.242 266.463 207.295 266.33 207.402C266.196 207.503 266.13 207.634 266.13 207.794C266.13 208.135 266.327 208.306 266.722 208.306C266.935 208.306 267.1 208.245 267.218 208.122C267.34 207.994 267.402 207.829 267.402 207.626V207.242ZM265.434 206.026V205.138C265.738 204.951 266.175 204.858 266.746 204.858C267.844 204.858 268.394 205.37 268.394 206.394V208.986H267.442V208.498C267.255 208.845 266.903 209.018 266.386 209.018C266.002 209.018 265.695 208.906 265.466 208.682C265.242 208.458 265.13 208.175 265.13 207.834C265.13 207.45 265.274 207.149 265.562 206.93C265.85 206.711 266.266 206.602 266.81 206.602H267.402V206.354C267.402 206.13 267.343 205.959 267.226 205.842C267.108 205.725 266.908 205.666 266.626 205.666C266.194 205.666 265.796 205.786 265.434 206.026ZM270.344 204.93V205.626C270.574 205.13 270.99 204.882 271.592 204.882C271.998 204.882 272.318 205.005 272.552 205.25C272.787 205.495 272.904 205.842 272.904 206.29V208.986H271.944V206.49C271.944 206.223 271.88 206.023 271.752 205.89C271.624 205.751 271.451 205.682 271.232 205.682C270.982 205.682 270.771 205.781 270.6 205.978C270.43 206.17 270.344 206.447 270.344 206.81V208.986H269.384V204.93H270.344Z" fill="white"/>
</g>
<g clip-path="url(#clip2_1124_4113)">
<path d="M214.81 218.01L214.81 216.56L230 207.16L214.81 197.77L214.81 196.32L212.12 195.58C211.16 195.32 210.13 195.67 209.55 196.48C207.3 199.59 206 203.24 206 207.16C206 211.08 207.3 214.73 209.55 217.84C210.13 218.65 211.16 219 212.12 218.74L214.81 218L214.81 218.01Z" fill="#D9AA16"/>
<path d="M214.81 196.32L212.7 195.74C212.17 195.6 212.04 196.06 212.53 196.36L214.82 197.77L214.82 196.32L214.81 196.32Z" fill="#B76F09"/>
<path d="M214.81 218.01L212.7 218.59C212.17 218.73 212.04 218.27 212.53 217.97L214.82 216.56L214.82 218.01L214.81 218.01Z" fill="#B76F09"/>
<path d="M208 207.16C208 203.84 209.05 200.63 211.06 197.8L226.2 207.16L211.06 216.52C209.05 213.69 208 210.48 208 207.16Z" fill="white"/>
</g>
<path d="M9 341.5H329C333.694 341.5 337.5 345.306 337.5 350C337.5 354.694 333.694 358.5 329 358.5H9C4.30558 358.5 0.5 354.694 0.5 350C0.500002 345.306 4.30558 341.5 9 341.5Z" fill="white"/>
<path d="M9 341.5H329C333.694 341.5 337.5 345.306 337.5 350C337.5 354.694 333.694 358.5 329 358.5H9C4.30558 358.5 0.5 354.694 0.5 350C0.500002 345.306 4.30558 341.5 9 341.5Z" stroke="#CCCCCC"/>
<path d="M7.86805e-07 350C3.52265e-07 345.029 4.02944 341 9 341L39 341C43.9706 341 48 345.029 48 350C48 354.971 43.9706 359 39 359L9 359C4.02944 359 1.22135e-06 354.971 7.86805e-07 350Z" fill="#FF1934"/>
<path d="M15.448 346.688H16.264L16.816 348.6L17.456 350.92C17.5893 350.179 17.7547 349.403 17.952 348.592L18.44 346.608H19.464L18.088 352H16.92L16.432 350.296C16.2987 349.843 16.184 349.443 16.088 349.096C15.9973 348.749 15.936 348.517 15.904 348.4L15.864 348.216C15.7893 348.589 15.6027 349.283 15.304 350.296L14.8 352H13.64L12.2 346.608H13.264L13.768 348.6C13.8533 348.957 13.9387 349.328 14.024 349.712C14.1093 350.096 14.1733 350.389 14.216 350.592L14.28 350.904C14.4507 350.232 14.6587 349.464 14.904 348.6L15.448 346.688ZM22.2561 350.256H21.7601C21.5094 350.256 21.3174 350.309 21.1841 350.416C21.0507 350.517 20.9841 350.648 20.9841 350.808C20.9841 351.149 21.1814 351.32 21.5761 351.32C21.7894 351.32 21.9547 351.259 22.0721 351.136C22.1947 351.008 22.2561 350.843 22.2561 350.64V350.256ZM20.2881 349.04V348.152C20.5921 347.965 21.0294 347.872 21.6001 347.872C22.6987 347.872 23.2481 348.384 23.2481 349.408V352H22.2961V351.512C22.1094 351.859 21.7574 352.032 21.2401 352.032C20.8561 352.032 20.5494 351.92 20.3201 351.696C20.0961 351.472 19.9841 351.189 19.9841 350.848C19.9841 350.464 20.1281 350.163 20.4161 349.944C20.7041 349.725 21.1201 349.616 21.6641 349.616H22.2561V349.368C22.2561 349.144 22.1974 348.973 22.0801 348.856C21.9627 348.739 21.7627 348.68 21.4801 348.68C21.0481 348.68 20.6507 348.8 20.2881 349.04ZM27.7828 352H26.6548L25.1988 349.904V352H24.2388V346.44H25.1988V349.848L26.6308 347.944H27.7508L26.2628 349.88L27.7828 352ZM29.5864 348.664V350.728C29.5864 350.899 29.6318 351.029 29.7224 351.12C29.8131 351.205 29.9384 351.248 30.0984 351.248C30.3011 351.248 30.4878 351.192 30.6584 351.08V351.904C30.4718 351.995 30.2318 352.04 29.9384 352.04C29.0638 352.04 28.6264 351.597 28.6264 350.712V348.664H28.0184V347.944H28.6264V346.968H29.5864V347.944H30.5944V348.664H29.5864ZM33.9617 347.944H34.9297V352H33.9617V351.336C33.7484 351.805 33.3324 352.04 32.7137 352.04C32.303 352.04 31.983 351.923 31.7537 351.688C31.5244 351.453 31.4097 351.12 31.4097 350.688V347.944H32.3697V350.464C32.3697 350.72 32.431 350.915 32.5537 351.048C32.6817 351.181 32.855 351.248 33.0737 351.248C33.351 351.248 33.567 351.155 33.7217 350.968C33.8817 350.781 33.9617 350.499 33.9617 350.12V347.944Z" fill="white"/>
<rect x="56" y="348" width="274" height="4" rx="2" fill="#CCCCCC"/>
<mask id="mask0_1124_4113" style="mask-type:alpha" maskUnits="userSpaceOnUse" x="56" y="348" width="274" height="4">
<rect x="56" y="348" width="274" height="4" rx="2" fill="#CCCCCC"/>
</mask>
<g mask="url(#mask0_1124_4113)">
<rect x="56" y="348" width="274" height="4" rx="2" fill="#FF1934"/>
</g>
<defs>
<filter id="filter0_d_1124_4113" x="22.5" y="57" width="293" height="56" filterUnits="userSpaceOnUse" color-interpolation-filters="sRGB">
<feFlood flood-opacity="0" result="BackgroundImageFix"/>
<feColorMatrix in="SourceAlpha" type="matrix" values="0 0 0 0 0 0 0 0 0 0 0 0 0 0 0 0 0 0 127 0" result="hardAlpha"/>
<feOffset dy="2"/>
<feGaussianBlur stdDeviation="2"/>
<feComposite in2="hardAlpha" operator="out"/>
<feColorMatrix type="matrix" values="0 0 0 0 0.168627 0 0 0 0 0.168627 0 0 0 0 0.168627 0 0 0 0.24 0"/>
<feBlend mode="normal" in2="BackgroundImageFix" result="effect1_dropShadow_1124_4113"/>
<feBlend mode="normal" in="SourceGraphic" in2="effect1_dropShadow_1124_4113" result="shape"/>
</filter>
<clipPath id="clip0_1124_4113">
<rect width="24" height="24" fill="white" transform="translate(42.5 75)"/>
</clipPath>
<clipPath id="clip1_1124_4113">
<rect width="104" height="152" fill="white" transform="translate(191.5 131)"/>
</clipPath>
<clipPath id="clip2_1124_4113">
<rect width="23.33" height="24" fill="white" transform="translate(230 195.5) rotate(90)"/>
</clipPath>
</defs>
</svg>
