<svg width="285" height="284" viewBox="0 0 285 284" fill="none" xmlns="http://www.w3.org/2000/svg">
<rect width="285" height="284" fill="#D3D3D3"/>
<rect width="285" height="284" rx="16" fill="white"/>
<g filter="url(#filter0_d_1124_4113)">
<path d="M0 16C0 7.16344 7.16344 0 16 0H269C277.837 0 285 7.16344 285 16V48H0V16Z" fill="#FF1934" shape-rendering="crispEdges"/>
<g clip-path="url(#clip0_1124_4113)">
<path d="M35.86 30.4599C35.45 30.2899 34.98 30.4799 34.81 30.8799C34.62 31.3399 34.37 31.7499 34.1 32.1499L33.21 30.0599C32.6 28.6199 31.14 27.7499 29.57 27.8999L24.14 28.4399C24.05 27.8499 23.96 27.2799 23.85 26.7399L29.46 26.1499C29.9 26.0999 30.22 25.7099 30.17 25.2699C30.12 24.8299 29.72 24.5199 29.29 24.5599L23.5 25.1699C22.66 21.7699 21.59 19.5899 21.51 19.4399C21.31 19.0499 20.83 18.8899 20.44 19.0799C20.05 19.2799 19.89 19.7599 20.08 20.1499C20.11 20.2099 22.93 25.9099 22.88 33.3199C22.17 32.6399 21.58 31.8199 21.18 30.8799C21.01 30.4699 20.54 30.2899 20.13 30.4599C19.72 30.6299 19.53 31.0999 19.71 31.5099C20.45 33.2599 21.71 34.6699 23.25 35.6299C23.26 35.6299 23.28 35.6499 23.29 35.6499C24.68 36.4999 26.29 36.9999 27.99 36.9999C30.44 36.9999 32.72 35.9899 34.38 34.3099C34.43 34.2699 34.47 34.2299 34.51 34.1799C35.24 33.4099 35.85 32.5299 36.28 31.5199C36.45 31.1099 36.26 30.6399 35.86 30.4699V30.4599ZM28 35.3999C26.73 35.3999 25.52 35.0599 24.45 34.4699C24.52 32.9099 24.47 31.4299 24.33 30.0299L29.72 29.4899C30.59 29.3999 31.39 29.8799 31.73 30.6799L32.93 33.4999C31.6 34.6899 29.85 35.3899 27.99 35.3899L28 35.3999Z" fill="white"/>
</g>
<path d="M51.122 30.236H52.102C52.97 30.236 53.6373 29.9653 54.104 29.424C54.58 28.8827 54.818 28.1173 54.818 27.128C54.818 26.288 54.58 25.616 54.104 25.112C53.628 24.5987 52.956 24.342 52.088 24.342H51.122V30.236ZM48.91 22.564H52.158C53.5767 22.564 54.7387 23.0027 55.644 23.88C56.5493 24.748 57.002 25.8307 57.002 27.128C57.002 28.64 56.554 29.83 55.658 30.698C54.7713 31.566 53.5953 32 52.13 32H48.91V22.564ZM61.9106 29.088H61.2526C60.9073 29.088 60.6413 29.1627 60.4546 29.312C60.268 29.4613 60.1746 29.6527 60.1746 29.886C60.1746 30.362 60.45 30.6 61.0006 30.6C61.29 30.6 61.514 30.5113 61.6726 30.334C61.8313 30.1567 61.9106 29.914 61.9106 29.606V29.088ZM58.5926 27.086V25.252C59.1526 24.9347 59.96 24.776 61.0146 24.776C62.0226 24.776 62.774 24.9953 63.2686 25.434C63.7633 25.8633 64.0106 26.5353 64.0106 27.45V32H62.0086V31.132C61.71 31.7387 61.122 32.042 60.2446 32.042C59.554 32.042 59.0126 31.846 58.6206 31.454C58.238 31.062 58.0466 30.572 58.0466 29.984C58.0466 29.3027 58.294 28.7753 58.7886 28.402C59.2926 28.0193 60.0346 27.828 61.0146 27.828H61.9106V27.338C61.9106 26.7407 61.514 26.442 60.7206 26.442C59.9553 26.442 59.246 26.6567 58.5926 27.086ZM67.6594 24.902V26.106C67.8367 25.714 68.1074 25.406 68.4714 25.182C68.8447 24.9487 69.2881 24.832 69.8014 24.832C70.5294 24.832 71.0987 25.0513 71.5094 25.49C71.9201 25.9193 72.1254 26.554 72.1254 27.394V32H70.0814V27.772C70.0814 27.352 69.9834 27.0347 69.7874 26.82C69.5914 26.596 69.3161 26.484 68.9614 26.484C68.5881 26.484 68.2754 26.6333 68.0234 26.932C67.7807 27.2213 67.6594 27.66 67.6594 28.248V32H65.6154V24.902H67.6594ZM77.2505 29.088H76.5925C76.2472 29.088 75.9812 29.1627 75.7945 29.312C75.6078 29.4613 75.5145 29.6527 75.5145 29.886C75.5145 30.362 75.7898 30.6 76.3405 30.6C76.6298 30.6 76.8538 30.5113 77.0125 30.334C77.1712 30.1567 77.2505 29.914 77.2505 29.606V29.088ZM73.9325 27.086V25.252C74.4925 24.9347 75.2998 24.776 76.3545 24.776C77.3625 24.776 78.1138 24.9953 78.6085 25.434C79.1032 25.8633 79.3505 26.5353 79.3505 27.45V32H77.3485V31.132C77.0498 31.7387 76.4618 32.042 75.5845 32.042C74.8938 32.042 74.3525 31.846 73.9605 31.454C73.5778 31.062 73.3865 30.572 73.3865 29.984C73.3865 29.3027 73.6338 28.7753 74.1285 28.402C74.6325 28.0193 75.3745 27.828 76.3545 27.828H77.2505V27.338C77.2505 26.7407 76.8538 26.442 76.0605 26.442C75.2952 26.442 74.5858 26.6567 73.9325 27.086ZM86.6812 27.24H87.3952C88.5339 27.24 89.1032 26.722 89.1032 25.686C89.1032 24.7527 88.5759 24.286 87.5212 24.286H86.6812V27.24ZM84.5252 22.564H87.7732C88.8186 22.564 89.6632 22.858 90.3072 23.446C90.9606 24.034 91.2872 24.7807 91.2872 25.686C91.2872 26.722 90.9466 27.5247 90.2652 28.094C89.5932 28.6633 88.7626 28.948 87.7732 28.948H86.6812V32H84.5252V22.564ZM96.4459 27.8V27.632C96.3806 26.8013 96.0166 26.386 95.3539 26.386C95.0272 26.386 94.7379 26.5073 94.4859 26.75C94.2339 26.9833 94.0659 27.3333 93.9819 27.8H96.4459ZM97.9159 29.886V31.594C97.4306 31.9113 96.6886 32.07 95.6899 32.07C94.5232 32.07 93.6132 31.734 92.9599 31.062C92.3159 30.3807 91.9939 29.508 91.9939 28.444C91.9939 27.3147 92.3066 26.4327 92.9319 25.798C93.5666 25.154 94.3459 24.832 95.2699 24.832C96.2219 24.832 96.9732 25.112 97.5239 25.672C98.0746 26.2227 98.3499 27.0487 98.3499 28.15C98.3499 28.3647 98.3126 28.7333 98.2379 29.256H94.0659C94.2059 29.648 94.4486 29.9513 94.7939 30.166C95.1392 30.3807 95.5546 30.488 96.0399 30.488C96.7586 30.488 97.3839 30.2873 97.9159 29.886ZM101.853 24.902V26.106C102.03 25.714 102.301 25.406 102.665 25.182C103.038 24.9487 103.481 24.832 103.995 24.832C104.723 24.832 105.292 25.0513 105.703 25.49C106.113 25.9193 106.319 26.554 106.319 27.394V32H104.275V27.772C104.275 27.352 104.177 27.0347 103.981 26.82C103.785 26.596 103.509 26.484 103.155 26.484C102.781 26.484 102.469 26.6333 102.217 26.932C101.974 27.2213 101.853 27.66 101.853 28.248V32H99.8088V24.902H101.853ZM112.41 25.112V26.862C111.915 26.5727 111.337 26.428 110.674 26.428C110.431 26.428 110.245 26.4793 110.114 26.582C109.983 26.6753 109.918 26.7967 109.918 26.946C109.918 27.03 109.941 27.1093 109.988 27.184C110.035 27.2587 110.109 27.3287 110.212 27.394C110.324 27.4593 110.427 27.52 110.52 27.576C110.623 27.6227 110.758 27.6833 110.926 27.758C111.103 27.8327 111.243 27.898 111.346 27.954C111.775 28.178 112.121 28.4393 112.382 28.738C112.643 29.0273 112.774 29.4007 112.774 29.858C112.774 30.558 112.522 31.0993 112.018 31.482C111.514 31.8647 110.847 32.056 110.016 32.056C109.157 32.056 108.439 31.9113 107.86 31.622V29.802C108.504 30.25 109.185 30.474 109.904 30.474C110.417 30.474 110.674 30.3107 110.674 29.984C110.674 29.9 110.651 29.8207 110.604 29.746C110.557 29.6713 110.478 29.6013 110.366 29.536C110.254 29.4707 110.151 29.4193 110.058 29.382C109.965 29.3353 109.829 29.2747 109.652 29.2C109.475 29.1253 109.339 29.0647 109.246 29.018C108.303 28.57 107.832 27.898 107.832 27.002C107.832 26.3113 108.093 25.7747 108.616 25.392C109.148 25.0093 109.806 24.818 110.59 24.818C111.318 24.818 111.925 24.916 112.41 25.112ZM114.098 32V24.902H116.142V32H114.098ZM114.28 23.684C114.046 23.4507 113.93 23.1707 113.93 22.844C113.93 22.5173 114.046 22.2373 114.28 22.004C114.513 21.7707 114.793 21.654 115.12 21.654C115.446 21.654 115.726 21.7707 115.96 22.004C116.193 22.2373 116.31 22.5173 116.31 22.844C116.31 23.1707 116.193 23.4507 115.96 23.684C115.726 23.9173 115.446 24.034 115.12 24.034C114.793 24.034 114.513 23.9173 114.28 23.684ZM122.293 24.902H124.337V32H122.293V30.866C121.919 31.6593 121.201 32.056 120.137 32.056C119.409 32.056 118.839 31.8553 118.429 31.454C118.027 31.0433 117.827 30.4413 117.827 29.648V24.902H119.871V29.186C119.871 30.0167 120.235 30.432 120.963 30.432C121.849 30.432 122.293 29.8393 122.293 28.654V24.902ZM128.062 24.902V26.106C128.239 25.714 128.51 25.406 128.874 25.182C129.247 24.9487 129.69 24.832 130.204 24.832C130.932 24.832 131.501 25.0513 131.912 25.49C132.322 25.9193 132.528 26.554 132.528 27.394V32H130.484V27.772C130.484 27.352 130.386 27.0347 130.19 26.82C129.994 26.596 129.718 26.484 129.364 26.484C128.99 26.484 128.678 26.6333 128.426 26.932C128.183 27.2213 128.062 27.66 128.062 28.248V32H126.018V24.902H128.062Z" fill="white"/>
</g>
<g clip-path="url(#clip1_1124_4113)">
<path d="M142.5 126.07C131.772 126.07 123.044 124.348 123.044 122.23C123.044 120.113 131.772 118.39 142.5 118.39C153.228 118.39 161.956 120.113 161.956 122.23C161.956 124.348 153.228 126.07 142.5 126.07Z" fill="#CCCCCC"/>
<path d="M135.831 111.067C134.139 111.067 132.447 110.449 131.098 109.213L121.678 100.581C120.184 99.2122 120.082 96.8903 121.452 95.3965C122.82 93.9008 125.142 93.8023 126.636 95.1706L136.056 103.803L158.365 82.9466C159.861 81.5808 162.182 81.6794 163.549 83.1725C164.919 84.6663 164.816 86.9882 163.323 88.3565L140.563 109.213C139.214 110.449 137.522 111.067 135.831 111.067H135.831Z" fill="#008C1E"/>
<path d="M139.256 123.014C138.433 123.014 137.61 122.954 136.954 122.833L132.371 121.991C131.645 121.857 131.595 121.631 132.261 121.485C132.927 121.339 134.056 121.329 134.783 121.463L139.365 122.305L150.216 120.27C150.944 120.136 152.073 120.146 152.738 120.291C153.404 120.437 153.354 120.664 152.628 120.798L141.557 122.833C140.901 122.954 140.078 123.014 139.256 123.014Z" fill="#F1F1F1"/>
</g>
<path d="M52.0207 144.54H54.4107L54.2807 144.15L53.2307 140.91C53.1507 141.197 52.7907 142.28 52.1507 144.16L52.0207 144.54ZM55.2307 147L54.6407 145.23H51.7907L51.1907 147H50.3207L52.6707 140.26H53.7907L56.1007 147H55.2307ZM57.9651 141.93V142.81C58.2651 142.177 58.7984 141.86 59.5651 141.86C60.0584 141.86 60.4517 142.01 60.7451 142.31C61.0384 142.61 61.1851 143.01 61.1851 143.51V147H60.3951V143.72C60.3951 143.347 60.2984 143.063 60.1051 142.87C59.9184 142.67 59.6717 142.57 59.3651 142.57C58.9851 142.57 58.6551 142.717 58.3751 143.01C58.1017 143.303 57.9651 143.71 57.9651 144.23V147H57.1851V141.93H57.9651ZM64.5155 146.36C64.9288 146.36 65.2788 146.207 65.5655 145.9C65.8588 145.593 66.0055 145.103 66.0055 144.43C66.0055 143.79 65.8555 143.32 65.5555 143.02C65.2555 142.72 64.9255 142.57 64.5655 142.57C64.1455 142.57 63.7955 142.74 63.5155 143.08C63.2421 143.413 63.1055 143.893 63.1055 144.52C63.1055 145.067 63.2388 145.51 63.5055 145.85C63.7721 146.19 64.1088 146.36 64.5155 146.36ZM66.0055 139.93H66.7955V147H66.0055V146.25C65.6455 146.803 65.1255 147.08 64.4455 147.08C63.7721 147.08 63.2421 146.83 62.8555 146.33C62.4755 145.83 62.2855 145.223 62.2855 144.51C62.2855 143.717 62.4888 143.077 62.8955 142.59C63.3021 142.097 63.8255 141.85 64.4655 141.85C65.1255 141.85 65.6388 142.133 66.0055 142.7V139.93ZM70.9893 144.66H70.1093C69.6826 144.66 69.3626 144.743 69.1493 144.91C68.936 145.077 68.8293 145.287 68.8293 145.54C68.8293 145.793 68.9126 146 69.0793 146.16C69.246 146.313 69.4893 146.39 69.8093 146.39C70.1693 146.39 70.456 146.29 70.6693 146.09C70.8826 145.883 70.9893 145.623 70.9893 145.31V144.66ZM68.3693 142.99V142.2C68.7493 141.967 69.2493 141.85 69.8693 141.85C71.1426 141.85 71.7793 142.497 71.7793 143.79V147H70.9993V146.4C70.7393 146.833 70.266 147.05 69.5793 147.05C69.106 147.05 68.7226 146.91 68.4293 146.63C68.1426 146.35 67.9993 145.997 67.9993 145.57C67.9993 145.083 68.1826 144.707 68.5493 144.44C68.9226 144.167 69.4293 144.03 70.0693 144.03H70.9893V143.77C70.9893 143.37 70.8993 143.07 70.7193 142.87C70.5393 142.663 70.236 142.56 69.8093 142.56C69.2693 142.56 68.7893 142.703 68.3693 142.99ZM77.9326 146.36C78.3392 146.36 78.6759 146.19 78.9426 145.85C79.2092 145.51 79.3426 145.067 79.3426 144.52C79.3426 143.893 79.2026 143.413 78.9226 143.08C78.6492 142.74 78.3026 142.57 77.8826 142.57C77.5226 142.57 77.1926 142.72 76.8926 143.02C76.5926 143.32 76.4426 143.79 76.4426 144.43C76.4426 145.103 76.5859 145.593 76.8726 145.9C77.1659 146.207 77.5192 146.36 77.9326 146.36ZM76.4426 139.93V142.69C76.8092 142.13 77.3226 141.85 77.9826 141.85C78.6226 141.85 79.1459 142.097 79.5526 142.59C79.9592 143.077 80.1626 143.717 80.1626 144.51C80.1626 145.223 79.9692 145.83 79.5826 146.33C79.2026 146.83 78.6759 147.08 78.0026 147.08C77.3226 147.08 76.8026 146.803 76.4426 146.25V147H75.6526V139.93H76.4426ZM84.5557 144.14V143.94C84.5557 143.52 84.4424 143.187 84.2157 142.94C83.989 142.687 83.6757 142.56 83.2757 142.56C82.8957 142.56 82.5724 142.697 82.3057 142.97C82.039 143.243 81.8824 143.633 81.8357 144.14H84.5557ZM85.0257 146V146.74C84.6324 146.947 84.1524 147.05 83.5857 147.05C82.819 147.05 82.199 146.817 81.7257 146.35C81.259 145.877 81.0257 145.253 81.0257 144.48C81.0257 143.673 81.2357 143.037 81.6557 142.57C82.0757 142.103 82.6157 141.87 83.2757 141.87C83.909 141.87 84.4124 142.073 84.7857 142.48C85.159 142.887 85.3457 143.463 85.3457 144.21C85.3457 144.423 85.329 144.62 85.2957 144.8H81.8357C81.8957 145.3 82.0857 145.683 82.4057 145.95C82.7257 146.217 83.1457 146.35 83.6657 146.35C84.2324 146.35 84.6857 146.233 85.0257 146ZM87.3303 141.93V142.82C87.597 142.193 88.057 141.88 88.7103 141.88C88.8303 141.88 88.9236 141.887 88.9903 141.9V142.68C88.8503 142.633 88.707 142.61 88.5603 142.61C88.207 142.61 87.9136 142.773 87.6803 143.1C87.447 143.427 87.3303 143.803 87.3303 144.23V147H86.5403L86.5503 141.93H87.3303ZM90.592 139.93V142.81C90.892 142.177 91.4254 141.86 92.192 141.86C92.6787 141.86 93.0687 142.01 93.362 142.31C93.662 142.61 93.812 143.017 93.812 143.53V147H93.022V143.72C93.022 143.353 92.9254 143.07 92.732 142.87C92.5454 142.67 92.2987 142.57 91.992 142.57C91.6187 142.57 91.292 142.713 91.012 143C90.732 143.287 90.592 143.697 90.592 144.23V147H89.812V139.93H90.592ZM97.9424 144.66H97.0624C96.6358 144.66 96.3158 144.743 96.1024 144.91C95.8891 145.077 95.7824 145.287 95.7824 145.54C95.7824 145.793 95.8658 146 96.0324 146.16C96.1991 146.313 96.4424 146.39 96.7624 146.39C97.1224 146.39 97.4091 146.29 97.6224 146.09C97.8358 145.883 97.9424 145.623 97.9424 145.31V144.66ZM95.3224 142.99V142.2C95.7024 141.967 96.2024 141.85 96.8224 141.85C98.0958 141.85 98.7324 142.497 98.7324 143.79V147H97.9524V146.4C97.6924 146.833 97.2191 147.05 96.5324 147.05C96.0591 147.05 95.6758 146.91 95.3824 146.63C95.0958 146.35 94.9524 145.997 94.9524 145.57C94.9524 145.083 95.1358 144.707 95.5024 144.44C95.8758 144.167 96.3824 144.03 97.0224 144.03H97.9424V143.77C97.9424 143.37 97.8524 143.07 97.6724 142.87C97.4924 142.663 97.1891 142.56 96.7624 142.56C96.2224 142.56 95.7424 142.703 95.3224 142.99ZM102.894 142.1V142.85C102.588 142.663 102.168 142.57 101.634 142.57C101.368 142.57 101.154 142.633 100.994 142.76C100.841 142.88 100.764 143.037 100.764 143.23C100.764 143.35 100.788 143.457 100.834 143.55C100.881 143.637 100.971 143.723 101.104 143.81C101.244 143.897 101.344 143.957 101.404 143.99C101.471 144.017 101.611 144.077 101.824 144.17C102.251 144.343 102.584 144.54 102.824 144.76C103.064 144.98 103.184 145.277 103.184 145.65C103.184 146.083 103.031 146.427 102.724 146.68C102.424 146.933 102.011 147.06 101.484 147.06C100.871 147.06 100.374 146.957 99.9943 146.75V145.98C100.441 146.247 100.921 146.38 101.434 146.38C101.741 146.38 101.974 146.32 102.134 146.2C102.294 146.08 102.374 145.917 102.374 145.71C102.374 145.47 102.284 145.283 102.104 145.15C101.931 145.017 101.638 144.867 101.224 144.7C100.844 144.553 100.538 144.37 100.304 144.15C100.078 143.93 99.9643 143.633 99.9643 143.26C99.9643 142.84 100.121 142.507 100.434 142.26C100.754 142.007 101.151 141.88 101.624 141.88C102.151 141.88 102.574 141.953 102.894 142.1ZM104.295 147V141.93H105.085V147H104.295ZM104.315 140.71C104.222 140.61 104.175 140.487 104.175 140.34C104.175 140.193 104.222 140.07 104.315 139.97C104.415 139.87 104.539 139.82 104.685 139.82C104.832 139.82 104.955 139.87 105.055 139.97C105.155 140.07 105.205 140.193 105.205 140.34C105.205 140.487 105.155 140.61 105.055 140.71C104.955 140.803 104.832 140.85 104.685 140.85C104.539 140.85 104.415 140.803 104.315 140.71ZM106.629 147V139.93H107.419V147H106.629ZM112.145 141.93V142.75C112.425 142.157 112.901 141.86 113.575 141.86C114.355 141.86 114.848 142.19 115.055 142.85C115.201 142.53 115.405 142.287 115.665 142.12C115.931 141.947 116.228 141.86 116.555 141.86C117.081 141.86 117.478 142.01 117.745 142.31C118.011 142.61 118.145 143.013 118.145 143.52V147H117.355V143.72C117.355 142.953 117.031 142.57 116.385 142.57C116.065 142.57 115.778 142.717 115.525 143.01C115.271 143.297 115.145 143.703 115.145 144.23V147H114.355V143.72C114.355 142.953 114.031 142.57 113.385 142.57C113.065 142.57 112.778 142.717 112.525 143.01C112.271 143.297 112.145 143.703 112.145 144.23V147H111.365V141.93H112.145ZM122.778 144.14V143.94C122.778 143.52 122.665 143.187 122.438 142.94C122.212 142.687 121.898 142.56 121.498 142.56C121.118 142.56 120.795 142.697 120.528 142.97C120.262 143.243 120.105 143.633 120.058 144.14H122.778ZM123.248 146V146.74C122.855 146.947 122.375 147.05 121.808 147.05C121.042 147.05 120.422 146.817 119.948 146.35C119.482 145.877 119.248 145.253 119.248 144.48C119.248 143.673 119.458 143.037 119.878 142.57C120.298 142.103 120.838 141.87 121.498 141.87C122.132 141.87 122.635 142.073 123.008 142.48C123.382 142.887 123.568 143.463 123.568 144.21C123.568 144.423 123.552 144.62 123.518 144.8H120.058C120.118 145.3 120.308 145.683 120.628 145.95C120.948 146.217 121.368 146.35 121.888 146.35C122.455 146.35 122.908 146.233 123.248 146ZM125.553 141.93V142.75C125.833 142.157 126.31 141.86 126.983 141.86C127.763 141.86 128.256 142.19 128.463 142.85C128.61 142.53 128.813 142.287 129.073 142.12C129.34 141.947 129.636 141.86 129.963 141.86C130.49 141.86 130.886 142.01 131.153 142.31C131.42 142.61 131.553 143.013 131.553 143.52V147H130.763V143.72C130.763 142.953 130.44 142.57 129.793 142.57C129.473 142.57 129.186 142.717 128.933 143.01C128.68 143.297 128.553 143.703 128.553 144.23V147H127.763V143.72C127.763 142.953 127.44 142.57 126.793 142.57C126.473 142.57 126.186 142.717 125.933 143.01C125.68 143.297 125.553 143.703 125.553 144.23V147H124.773V141.93H125.553ZM135.267 146.36C135.673 146.36 136.01 146.19 136.277 145.85C136.543 145.51 136.677 145.067 136.677 144.52C136.677 143.893 136.537 143.413 136.257 143.08C135.983 142.74 135.637 142.57 135.217 142.57C134.857 142.57 134.527 142.72 134.227 143.02C133.927 143.32 133.777 143.79 133.777 144.43C133.777 145.103 133.92 145.593 134.207 145.9C134.5 146.207 134.853 146.36 135.267 146.36ZM133.777 139.93V142.69C134.143 142.13 134.657 141.85 135.317 141.85C135.957 141.85 136.48 142.097 136.887 142.59C137.293 143.077 137.497 143.717 137.497 144.51C137.497 145.223 137.303 145.83 136.917 146.33C136.537 146.83 136.01 147.08 135.337 147.08C134.657 147.08 134.137 146.803 133.777 146.25V147H132.987V139.93H133.777ZM141.89 144.14V143.94C141.89 143.52 141.776 143.187 141.55 142.94C141.323 142.687 141.01 142.56 140.61 142.56C140.23 142.56 139.906 142.697 139.64 142.97C139.373 143.243 139.216 143.633 139.17 144.14H141.89ZM142.36 146V146.74C141.966 146.947 141.486 147.05 140.92 147.05C140.153 147.05 139.533 146.817 139.06 146.35C138.593 145.877 138.36 145.253 138.36 144.48C138.36 143.673 138.57 143.037 138.99 142.57C139.41 142.103 139.95 141.87 140.61 141.87C141.243 141.87 141.746 142.073 142.12 142.48C142.493 142.887 142.68 143.463 142.68 144.21C142.68 144.423 142.663 144.62 142.63 144.8H139.17C139.23 145.3 139.42 145.683 139.74 145.95C140.06 146.217 140.48 146.35 141 146.35C141.566 146.35 142.02 146.233 142.36 146ZM143.924 147V139.93H144.714V147H143.924ZM146.258 147V141.93H147.048V147H146.258ZM146.278 140.71C146.185 140.61 146.138 140.487 146.138 140.34C146.138 140.193 146.185 140.07 146.278 139.97C146.378 139.87 146.502 139.82 146.648 139.82C146.795 139.82 146.918 139.87 147.018 139.97C147.118 140.07 147.168 140.193 147.168 140.34C147.168 140.487 147.118 140.61 147.018 140.71C146.918 140.803 146.795 140.85 146.648 140.85C146.502 140.85 146.378 140.803 146.278 140.71ZM151.854 146.29H153.064C153.897 146.29 154.527 146.033 154.954 145.52C155.38 145 155.594 144.353 155.594 143.58C155.594 142.847 155.354 142.23 154.874 141.73C154.4 141.23 153.784 140.98 153.024 140.98H151.854V146.29ZM151.034 140.26H153.034C154.027 140.26 154.84 140.57 155.474 141.19C156.114 141.803 156.434 142.6 156.434 143.58C156.434 144.553 156.137 145.367 155.544 146.02C154.957 146.673 154.134 147 153.074 147H151.034V140.26ZM160.335 144.66H159.455C159.028 144.66 158.708 144.743 158.495 144.91C158.282 145.077 158.175 145.287 158.175 145.54C158.175 145.793 158.258 146 158.425 146.16C158.592 146.313 158.835 146.39 159.155 146.39C159.515 146.39 159.802 146.29 160.015 146.09C160.228 145.883 160.335 145.623 160.335 145.31V144.66ZM157.715 142.99V142.2C158.095 141.967 158.595 141.85 159.215 141.85C160.488 141.85 161.125 142.497 161.125 143.79V147H160.345V146.4C160.085 146.833 159.612 147.05 158.925 147.05C158.452 147.05 158.068 146.91 157.775 146.63C157.488 146.35 157.345 145.997 157.345 145.57C157.345 145.083 157.528 144.707 157.895 144.44C158.268 144.167 158.775 144.03 159.415 144.03H160.335V143.77C160.335 143.37 160.245 143.07 160.065 142.87C159.885 142.663 159.582 142.56 159.155 142.56C158.615 142.56 158.135 142.703 157.715 142.99ZM163.307 141.93V142.81C163.607 142.177 164.14 141.86 164.907 141.86C165.4 141.86 165.794 142.01 166.087 142.31C166.38 142.61 166.527 143.01 166.527 143.51V147H165.737V143.72C165.737 143.347 165.64 143.063 165.447 142.87C165.26 142.67 165.014 142.57 164.707 142.57C164.327 142.57 163.997 142.717 163.717 143.01C163.444 143.303 163.307 143.71 163.307 144.23V147H162.527V141.93H163.307ZM170.657 144.66H169.777C169.351 144.66 169.031 144.743 168.817 144.91C168.604 145.077 168.497 145.287 168.497 145.54C168.497 145.793 168.581 146 168.747 146.16C168.914 146.313 169.157 146.39 169.477 146.39C169.837 146.39 170.124 146.29 170.337 146.09C170.551 145.883 170.657 145.623 170.657 145.31V144.66ZM168.037 142.99V142.2C168.417 141.967 168.917 141.85 169.537 141.85C170.811 141.85 171.447 142.497 171.447 143.79V147H170.667V146.4C170.407 146.833 169.934 147.05 169.247 147.05C168.774 147.05 168.391 146.91 168.097 146.63C167.811 146.35 167.667 145.997 167.667 145.57C167.667 145.083 167.851 144.707 168.217 144.44C168.591 144.167 169.097 144.03 169.737 144.03H170.657V143.77C170.657 143.37 170.567 143.07 170.387 142.87C170.207 142.663 169.904 142.56 169.477 142.56C168.937 142.56 168.457 142.703 168.037 142.99ZM176.141 143.83H177.181C177.687 143.83 178.084 143.7 178.371 143.44C178.657 143.173 178.801 142.837 178.801 142.43C178.801 141.977 178.654 141.617 178.361 141.35C178.067 141.083 177.651 140.95 177.111 140.95H176.141V143.83ZM175.331 140.26H177.101C177.881 140.26 178.494 140.463 178.941 140.87C179.394 141.27 179.621 141.79 179.621 142.43C179.621 143.03 179.397 143.53 178.951 143.93C178.504 144.323 177.914 144.52 177.181 144.52H176.141V147H175.331V140.26ZM183.97 144.14V143.94C183.97 143.52 183.856 143.187 183.63 142.94C183.403 142.687 183.09 142.56 182.69 142.56C182.31 142.56 181.986 142.697 181.72 142.97C181.453 143.243 181.296 143.633 181.25 144.14H183.97ZM184.44 146V146.74C184.046 146.947 183.566 147.05 183 147.05C182.233 147.05 181.613 146.817 181.14 146.35C180.673 145.877 180.44 145.253 180.44 144.48C180.44 143.673 180.65 143.037 181.07 142.57C181.49 142.103 182.03 141.87 182.69 141.87C183.323 141.87 183.826 142.073 184.2 142.48C184.573 142.887 184.76 143.463 184.76 144.21C184.76 144.423 184.743 144.62 184.71 144.8H181.25C181.31 145.3 181.5 145.683 181.82 145.95C182.14 146.217 182.56 146.35 183.08 146.35C183.646 146.35 184.1 146.233 184.44 146ZM186.744 141.93V142.81C187.044 142.177 187.578 141.86 188.344 141.86C188.838 141.86 189.231 142.01 189.524 142.31C189.818 142.61 189.964 143.01 189.964 143.51V147H189.174V143.72C189.174 143.347 189.078 143.063 188.884 142.87C188.698 142.67 188.451 142.57 188.144 142.57C187.764 142.57 187.434 142.717 187.154 143.01C186.881 143.303 186.744 143.71 186.744 144.23V147H185.964V141.93H186.744ZM194.125 142.1V142.85C193.818 142.663 193.398 142.57 192.865 142.57C192.598 142.57 192.385 142.633 192.225 142.76C192.071 142.88 191.995 143.037 191.995 143.23C191.995 143.35 192.018 143.457 192.065 143.55C192.111 143.637 192.201 143.723 192.335 143.81C192.475 143.897 192.575 143.957 192.635 143.99C192.701 144.017 192.841 144.077 193.055 144.17C193.481 144.343 193.815 144.54 194.055 144.76C194.295 144.98 194.415 145.277 194.415 145.65C194.415 146.083 194.261 146.427 193.955 146.68C193.655 146.933 193.241 147.06 192.715 147.06C192.101 147.06 191.605 146.957 191.225 146.75V145.98C191.671 146.247 192.151 146.38 192.665 146.38C192.971 146.38 193.205 146.32 193.365 146.2C193.525 146.08 193.605 145.917 193.605 145.71C193.605 145.47 193.515 145.283 193.335 145.15C193.161 145.017 192.868 144.867 192.455 144.7C192.075 144.553 191.768 144.37 191.535 144.15C191.308 143.93 191.195 143.633 191.195 143.26C191.195 142.84 191.351 142.507 191.665 142.26C191.985 142.007 192.381 141.88 192.855 141.88C193.381 141.88 193.805 141.953 194.125 142.1ZM195.526 147V141.93H196.316V147H195.526ZM195.546 140.71C195.453 140.61 195.406 140.487 195.406 140.34C195.406 140.193 195.453 140.07 195.546 139.97C195.646 139.87 195.769 139.82 195.916 139.82C196.063 139.82 196.186 139.87 196.286 139.97C196.386 140.07 196.436 140.193 196.436 140.34C196.436 140.487 196.386 140.61 196.286 140.71C196.186 140.803 196.063 140.85 195.916 140.85C195.769 140.85 195.646 140.803 195.546 140.71ZM200.97 141.93H201.76V147H200.97V146.12C200.703 146.747 200.173 147.06 199.38 147.06C198.88 147.06 198.483 146.913 198.19 146.62C197.903 146.32 197.76 145.92 197.76 145.42V141.93H198.55V145.22C198.55 145.587 198.643 145.867 198.83 146.06C199.017 146.253 199.27 146.35 199.59 146.35C200.01 146.35 200.343 146.203 200.59 145.91C200.843 145.617 200.97 145.22 200.97 144.72V141.93ZM204 141.93V142.81C204.3 142.177 204.834 141.86 205.6 141.86C206.094 141.86 206.487 142.01 206.78 142.31C207.074 142.61 207.22 143.01 207.22 143.51V147H206.43V143.72C206.43 143.347 206.334 143.063 206.14 142.87C205.954 142.67 205.707 142.57 205.4 142.57C205.02 142.57 204.69 142.717 204.41 143.01C204.137 143.303 204 143.71 204 144.23V147H203.22V141.93H204ZM214.212 141.93H215.002V147H214.212V146.12C213.945 146.747 213.415 147.06 212.622 147.06C212.122 147.06 211.725 146.913 211.432 146.62C211.145 146.32 211.002 145.92 211.002 145.42V141.93H211.792V145.22C211.792 145.587 211.885 145.867 212.072 146.06C212.259 146.253 212.512 146.35 212.832 146.35C213.252 146.35 213.585 146.203 213.832 145.91C214.085 145.617 214.212 145.22 214.212 144.72V141.93ZM217.242 141.93V142.81C217.542 142.177 218.076 141.86 218.842 141.86C219.336 141.86 219.729 142.01 220.022 142.31C220.316 142.61 220.462 143.01 220.462 143.51V147H219.672V143.72C219.672 143.347 219.576 143.063 219.382 142.87C219.196 142.67 218.949 142.57 218.642 142.57C218.262 142.57 217.932 142.717 217.652 143.01C217.379 143.303 217.242 143.71 217.242 144.23V147H216.462V141.93H217.242ZM222.953 142.57V145.54C222.953 146.08 223.206 146.35 223.713 146.35C223.973 146.35 224.203 146.273 224.403 146.12V146.87C224.183 146.99 223.936 147.05 223.663 147.05C222.663 147.05 222.163 146.54 222.163 145.52V142.57H221.353V141.93H222.163V140.67H222.953V141.93H224.353V142.57H222.953ZM228.704 141.93H229.494V147H228.704V146.12C228.438 146.747 227.908 147.06 227.114 147.06C226.614 147.06 226.218 146.913 225.924 146.62C225.638 146.32 225.494 145.92 225.494 145.42V141.93H226.284V145.22C226.284 145.587 226.378 145.867 226.564 146.06C226.751 146.253 227.004 146.35 227.324 146.35C227.744 146.35 228.078 146.203 228.324 145.91C228.578 145.617 228.704 145.22 228.704 144.72V141.93ZM230.955 147V139.97H231.735V147H230.955ZM232.765 144.34L234.825 147H233.875L231.835 144.34L233.825 141.93H234.765L232.765 144.34ZM68.3928 192.54H70.7828L70.6528 192.15L69.6028 188.91C69.5228 189.197 69.1628 190.28 68.5228 192.16L68.3928 192.54ZM71.6028 195L71.0128 193.23H68.1628L67.5628 195H66.6928L69.0428 188.26H70.1628L72.4728 195H71.6028ZM74.3371 189.93V190.81C74.6371 190.177 75.1705 189.86 75.9371 189.86C76.4305 189.86 76.8238 190.01 77.1171 190.31C77.4105 190.61 77.5571 191.01 77.5571 191.51V195H76.7671V191.72C76.7671 191.347 76.6705 191.063 76.4771 190.87C76.2905 190.67 76.0438 190.57 75.7371 190.57C75.3571 190.57 75.0271 190.717 74.7471 191.01C74.4738 191.303 74.3371 191.71 74.3371 192.23V195H73.5571V189.93H74.3371ZM80.8875 194.36C81.3009 194.36 81.6509 194.207 81.9375 193.9C82.2309 193.593 82.3775 193.103 82.3775 192.43C82.3775 191.79 82.2275 191.32 81.9275 191.02C81.6275 190.72 81.2975 190.57 80.9375 190.57C80.5175 190.57 80.1675 190.74 79.8875 191.08C79.6142 191.413 79.4775 191.893 79.4775 192.52C79.4775 193.067 79.6109 193.51 79.8775 193.85C80.1442 194.19 80.4809 194.36 80.8875 194.36ZM82.3775 187.93H83.1675V195H82.3775V194.25C82.0175 194.803 81.4975 195.08 80.8175 195.08C80.1442 195.08 79.6142 194.83 79.2275 194.33C78.8475 193.83 78.6575 193.223 78.6575 192.51C78.6575 191.717 78.8609 191.077 79.2675 190.59C79.6742 190.097 80.1975 189.85 80.8375 189.85C81.4975 189.85 82.0109 190.133 82.3775 190.7V187.93ZM87.3614 192.66H86.4814C86.0547 192.66 85.7347 192.743 85.5214 192.91C85.308 193.077 85.2014 193.287 85.2014 193.54C85.2014 193.793 85.2847 194 85.4514 194.16C85.618 194.313 85.8614 194.39 86.1814 194.39C86.5414 194.39 86.828 194.29 87.0414 194.09C87.2547 193.883 87.3614 193.623 87.3614 193.31V192.66ZM84.7414 190.99V190.2C85.1214 189.967 85.6214 189.85 86.2414 189.85C87.5147 189.85 88.1514 190.497 88.1514 191.79V195H87.3714V194.4C87.1114 194.833 86.638 195.05 85.9514 195.05C85.478 195.05 85.0947 194.91 84.8014 194.63C84.5147 194.35 84.3714 193.997 84.3714 193.57C84.3714 193.083 84.5547 192.707 84.9214 192.44C85.2947 192.167 85.8014 192.03 86.4414 192.03H87.3614V191.77C87.3614 191.37 87.2714 191.07 87.0914 190.87C86.9114 190.663 86.608 190.56 86.1814 190.56C85.6414 190.56 85.1614 190.703 84.7414 190.99ZM93.9246 194.36C94.338 194.36 94.688 194.207 94.9746 193.9C95.268 193.593 95.4146 193.103 95.4146 192.43C95.4146 191.79 95.2646 191.32 94.9646 191.02C94.6646 190.72 94.3346 190.57 93.9746 190.57C93.5546 190.57 93.2046 190.74 92.9246 191.08C92.6513 191.413 92.5146 191.893 92.5146 192.52C92.5146 193.067 92.648 193.51 92.9146 193.85C93.1813 194.19 93.518 194.36 93.9246 194.36ZM95.4146 187.93H96.2046V195H95.4146V194.25C95.0546 194.803 94.5346 195.08 93.8546 195.08C93.1813 195.08 92.6513 194.83 92.2646 194.33C91.8846 193.83 91.6946 193.223 91.6946 192.51C91.6946 191.717 91.898 191.077 92.3046 190.59C92.7113 190.097 93.2346 189.85 93.8746 189.85C94.5346 189.85 95.048 190.133 95.4146 190.7V187.93ZM100.398 192.66H99.5185C99.0918 192.66 98.7718 192.743 98.5585 192.91C98.3451 193.077 98.2385 193.287 98.2385 193.54C98.2385 193.793 98.3218 194 98.4885 194.16C98.6551 194.313 98.8985 194.39 99.2185 194.39C99.5785 194.39 99.8651 194.29 100.078 194.09C100.292 193.883 100.398 193.623 100.398 193.31V192.66ZM97.7785 190.99V190.2C98.1585 189.967 98.6585 189.85 99.2785 189.85C100.552 189.85 101.188 190.497 101.188 191.79V195H100.408V194.4C100.148 194.833 99.6751 195.05 98.9885 195.05C98.5151 195.05 98.1318 194.91 97.8385 194.63C97.5518 194.35 97.4085 193.997 97.4085 193.57C97.4085 193.083 97.5918 192.707 97.9585 192.44C98.3318 192.167 98.8385 192.03 99.4785 192.03H100.398V191.77C100.398 191.37 100.308 191.07 100.128 190.87C99.9485 190.663 99.6451 190.56 99.2185 190.56C98.6785 190.56 98.1985 190.703 97.7785 190.99ZM104.82 194.36C105.247 194.36 105.597 194.193 105.87 193.86C106.144 193.52 106.28 193.04 106.28 192.42C106.28 191.867 106.147 191.42 105.88 191.08C105.614 190.74 105.277 190.57 104.87 190.57C104.464 190.57 104.11 190.72 103.81 191.02C103.517 191.313 103.37 191.797 103.37 192.47C103.37 193.117 103.52 193.593 103.82 193.9C104.12 194.207 104.454 194.36 104.82 194.36ZM103.37 189.93V190.7C103.724 190.133 104.247 189.85 104.94 189.85C105.614 189.85 106.14 190.097 106.52 190.59C106.907 191.077 107.1 191.687 107.1 192.42C107.1 193.2 106.897 193.84 106.49 194.34C106.09 194.833 105.567 195.08 104.92 195.08C104.254 195.08 103.737 194.797 103.37 194.23V196.97H102.59V189.93H103.37ZM110.994 192.66H110.114C109.688 192.66 109.368 192.743 109.154 192.91C108.941 193.077 108.834 193.287 108.834 193.54C108.834 193.793 108.918 194 109.084 194.16C109.251 194.313 109.494 194.39 109.814 194.39C110.174 194.39 110.461 194.29 110.674 194.09C110.888 193.883 110.994 193.623 110.994 193.31V192.66ZM108.374 190.99V190.2C108.754 189.967 109.254 189.85 109.874 189.85C111.148 189.85 111.784 190.497 111.784 191.79V195H111.004V194.4C110.744 194.833 110.271 195.05 109.584 195.05C109.111 195.05 108.728 194.91 108.434 194.63C108.148 194.35 108.004 193.997 108.004 193.57C108.004 193.083 108.188 192.707 108.554 192.44C108.928 192.167 109.434 192.03 110.074 192.03H110.994V191.77C110.994 191.37 110.904 191.07 110.724 190.87C110.544 190.663 110.241 190.56 109.814 190.56C109.274 190.56 108.794 190.703 108.374 190.99ZM114.276 190.57V193.54C114.276 194.08 114.529 194.35 115.036 194.35C115.296 194.35 115.526 194.273 115.726 194.12V194.87C115.506 194.99 115.259 195.05 114.986 195.05C113.986 195.05 113.486 194.54 113.486 193.52V190.57H112.676V189.93H113.486V188.67H114.276V189.93H115.676V190.57H114.276ZM120.099 189.93V190.75C120.379 190.157 120.856 189.86 121.529 189.86C122.309 189.86 122.802 190.19 123.009 190.85C123.156 190.53 123.359 190.287 123.619 190.12C123.886 189.947 124.182 189.86 124.509 189.86C125.036 189.86 125.432 190.01 125.699 190.31C125.966 190.61 126.099 191.013 126.099 191.52V195H125.309V191.72C125.309 190.953 124.986 190.57 124.339 190.57C124.019 190.57 123.732 190.717 123.479 191.01C123.226 191.297 123.099 191.703 123.099 192.23V195H122.309V191.72C122.309 190.953 121.986 190.57 121.339 190.57C121.019 190.57 120.732 190.717 120.479 191.01C120.226 191.297 120.099 191.703 120.099 192.23V195H119.319V189.93H120.099ZM130.732 192.14V191.94C130.732 191.52 130.619 191.187 130.392 190.94C130.166 190.687 129.852 190.56 129.452 190.56C129.072 190.56 128.749 190.697 128.482 190.97C128.216 191.243 128.059 191.633 128.012 192.14H130.732ZM131.202 194V194.74C130.809 194.947 130.329 195.05 129.762 195.05C128.996 195.05 128.376 194.817 127.902 194.35C127.436 193.877 127.202 193.253 127.202 192.48C127.202 191.673 127.412 191.037 127.832 190.57C128.252 190.103 128.792 189.87 129.452 189.87C130.086 189.87 130.589 190.073 130.962 190.48C131.336 190.887 131.522 191.463 131.522 192.21C131.522 192.423 131.506 192.62 131.472 192.8H128.012C128.072 193.3 128.262 193.683 128.582 193.95C128.902 194.217 129.322 194.35 129.842 194.35C130.409 194.35 130.862 194.233 131.202 194ZM132.767 195V187.93H133.557V195H132.767ZM135.101 195V189.93H135.891V195H135.101ZM135.121 188.71C135.028 188.61 134.981 188.487 134.981 188.34C134.981 188.193 135.028 188.07 135.121 187.97C135.221 187.87 135.344 187.82 135.491 187.82C135.638 187.82 135.761 187.87 135.861 187.97C135.961 188.07 136.011 188.193 136.011 188.34C136.011 188.487 135.961 188.61 135.861 188.71C135.761 188.803 135.638 188.85 135.491 188.85C135.344 188.85 135.221 188.803 135.121 188.71ZM138.175 187.93V190.81C138.475 190.177 139.008 189.86 139.775 189.86C140.262 189.86 140.652 190.01 140.945 190.31C141.245 190.61 141.395 191.017 141.395 191.53V195H140.605V191.72C140.605 191.353 140.508 191.07 140.315 190.87C140.128 190.67 139.882 190.57 139.575 190.57C139.202 190.57 138.875 190.713 138.595 191C138.315 191.287 138.175 191.697 138.175 192.23V195H137.395V187.93H138.175ZM145.525 192.66H144.645C144.219 192.66 143.899 192.743 143.685 192.91C143.472 193.077 143.365 193.287 143.365 193.54C143.365 193.793 143.449 194 143.615 194.16C143.782 194.313 144.025 194.39 144.345 194.39C144.705 194.39 144.992 194.29 145.205 194.09C145.419 193.883 145.525 193.623 145.525 193.31V192.66ZM142.905 190.99V190.2C143.285 189.967 143.785 189.85 144.405 189.85C145.679 189.85 146.315 190.497 146.315 191.79V195H145.535V194.4C145.275 194.833 144.802 195.05 144.115 195.05C143.642 195.05 143.259 194.91 142.965 194.63C142.679 194.35 142.535 193.997 142.535 193.57C142.535 193.083 142.719 192.707 143.085 192.44C143.459 192.167 143.965 192.03 144.605 192.03H145.525V191.77C145.525 191.37 145.435 191.07 145.255 190.87C145.075 190.663 144.772 190.56 144.345 190.56C143.805 190.56 143.325 190.703 142.905 190.99ZM148.807 190.57V193.54C148.807 194.08 149.061 194.35 149.567 194.35C149.827 194.35 150.057 194.273 150.257 194.12V194.87C150.037 194.99 149.791 195.05 149.517 195.05C148.517 195.05 148.017 194.54 148.017 193.52V190.57H147.207V189.93H148.017V188.67H148.807V189.93H150.207V190.57H148.807ZM152.189 189.93V190.81C152.489 190.177 153.022 189.86 153.789 189.86C154.282 189.86 154.675 190.01 154.969 190.31C155.262 190.61 155.409 191.01 155.409 191.51V195H154.619V191.72C154.619 191.347 154.522 191.063 154.329 190.87C154.142 190.67 153.895 190.57 153.589 190.57C153.209 190.57 152.879 190.717 152.599 191.01C152.325 191.303 152.189 191.71 152.189 192.23V195H151.409V189.93H152.189ZM158.209 194.87L156.159 189.93H157.049L157.709 191.6L158.599 193.9C158.652 193.727 158.919 192.96 159.399 191.6L159.989 189.93H160.839L159.009 194.87C158.749 195.557 158.439 196.04 158.079 196.32C157.726 196.6 157.319 196.74 156.859 196.74C156.686 196.74 156.546 196.723 156.439 196.69V195.98C156.539 196.007 156.652 196.02 156.779 196.02C157.452 196.02 157.929 195.637 158.209 194.87ZM164.471 192.66H163.591C163.164 192.66 162.844 192.743 162.631 192.91C162.417 193.077 162.311 193.287 162.311 193.54C162.311 193.793 162.394 194 162.561 194.16C162.727 194.313 162.971 194.39 163.291 194.39C163.651 194.39 163.937 194.29 164.151 194.09C164.364 193.883 164.471 193.623 164.471 193.31V192.66ZM161.851 190.99V190.2C162.231 189.967 162.731 189.85 163.351 189.85C164.624 189.85 165.261 190.497 165.261 191.79V195H164.481V194.4C164.221 194.833 163.747 195.05 163.061 195.05C162.587 195.05 162.204 194.91 161.911 194.63C161.624 194.35 161.481 193.997 161.481 193.57C161.481 193.083 161.664 192.707 162.031 192.44C162.404 192.167 162.911 192.03 163.551 192.03H164.471V191.77C164.471 191.37 164.381 191.07 164.201 190.87C164.021 190.663 163.717 190.56 163.291 190.56C162.751 190.56 162.271 190.703 161.851 190.99ZM171.334 194.36C171.761 194.36 172.111 194.193 172.384 193.86C172.657 193.52 172.794 193.04 172.794 192.42C172.794 191.867 172.661 191.42 172.394 191.08C172.127 190.74 171.791 190.57 171.384 190.57C170.977 190.57 170.624 190.72 170.324 191.02C170.031 191.313 169.884 191.797 169.884 192.47C169.884 193.117 170.034 193.593 170.334 193.9C170.634 194.207 170.967 194.36 171.334 194.36ZM169.884 189.93V190.7C170.237 190.133 170.761 189.85 171.454 189.85C172.127 189.85 172.654 190.097 173.034 190.59C173.421 191.077 173.614 191.687 173.614 192.42C173.614 193.2 173.411 193.84 173.004 194.34C172.604 194.833 172.081 195.08 171.434 195.08C170.767 195.08 170.251 194.797 169.884 194.23V196.97H169.104V189.93H169.884ZM177.508 192.66H176.628C176.201 192.66 175.881 192.743 175.668 192.91C175.455 193.077 175.348 193.287 175.348 193.54C175.348 193.793 175.431 194 175.598 194.16C175.765 194.313 176.008 194.39 176.328 194.39C176.688 194.39 176.975 194.29 177.188 194.09C177.401 193.883 177.508 193.623 177.508 193.31V192.66ZM174.888 190.99V190.2C175.268 189.967 175.768 189.85 176.388 189.85C177.661 189.85 178.298 190.497 178.298 191.79V195H177.518V194.4C177.258 194.833 176.785 195.05 176.098 195.05C175.625 195.05 175.241 194.91 174.948 194.63C174.661 194.35 174.518 193.997 174.518 193.57C174.518 193.083 174.701 192.707 175.068 192.44C175.441 192.167 175.948 192.03 176.588 192.03H177.508V191.77C177.508 191.37 177.418 191.07 177.238 190.87C177.058 190.663 176.755 190.56 176.328 190.56C175.788 190.56 175.308 190.703 174.888 190.99ZM181.63 194.36C182.043 194.36 182.393 194.207 182.68 193.9C182.973 193.593 183.12 193.103 183.12 192.43C183.12 191.79 182.97 191.32 182.67 191.02C182.37 190.72 182.04 190.57 181.68 190.57C181.26 190.57 180.91 190.74 180.63 191.08C180.356 191.413 180.22 191.893 180.22 192.52C180.22 193.067 180.353 193.51 180.62 193.85C180.886 194.19 181.223 194.36 181.63 194.36ZM183.12 187.93H183.91V195H183.12V194.25C182.76 194.803 182.24 195.08 181.56 195.08C180.886 195.08 180.356 194.83 179.97 194.33C179.59 193.83 179.4 193.223 179.4 192.51C179.4 191.717 179.603 191.077 180.01 190.59C180.416 190.097 180.94 189.85 181.58 189.85C182.24 189.85 182.753 190.133 183.12 190.7V187.93ZM188.104 192.66H187.224C186.797 192.66 186.477 192.743 186.264 192.91C186.05 193.077 185.944 193.287 185.944 193.54C185.944 193.793 186.027 194 186.194 194.16C186.36 194.313 186.604 194.39 186.924 194.39C187.284 194.39 187.57 194.29 187.784 194.09C187.997 193.883 188.104 193.623 188.104 193.31V192.66ZM185.484 190.99V190.2C185.864 189.967 186.364 189.85 186.984 189.85C188.257 189.85 188.894 190.497 188.894 191.79V195H188.114V194.4C187.854 194.833 187.38 195.05 186.694 195.05C186.22 195.05 185.837 194.91 185.544 194.63C185.257 194.35 185.114 193.997 185.114 193.57C185.114 193.083 185.297 192.707 185.664 192.44C186.037 192.167 186.544 192.03 187.184 192.03H188.104V191.77C188.104 191.37 188.014 191.07 187.834 190.87C187.654 190.663 187.35 190.56 186.924 190.56C186.384 190.56 185.904 190.703 185.484 190.99ZM193.517 189.93V190.75C193.797 190.157 194.274 189.86 194.947 189.86C195.727 189.86 196.22 190.19 196.427 190.85C196.574 190.53 196.777 190.287 197.037 190.12C197.304 189.947 197.6 189.86 197.927 189.86C198.454 189.86 198.85 190.01 199.117 190.31C199.384 190.61 199.517 191.013 199.517 191.52V195H198.727V191.72C198.727 190.953 198.404 190.57 197.757 190.57C197.437 190.57 197.15 190.717 196.897 191.01C196.644 191.297 196.517 191.703 196.517 192.23V195H195.727V191.72C195.727 190.953 195.404 190.57 194.757 190.57C194.437 190.57 194.15 190.717 193.897 191.01C193.644 191.297 193.517 191.703 193.517 192.23V195H192.737V189.93H193.517ZM204.15 192.14V191.94C204.15 191.52 204.037 191.187 203.81 190.94C203.584 190.687 203.27 190.56 202.87 190.56C202.49 190.56 202.167 190.697 201.9 190.97C201.634 191.243 201.477 191.633 201.43 192.14H204.15ZM204.62 194V194.74C204.227 194.947 203.747 195.05 203.18 195.05C202.414 195.05 201.794 194.817 201.32 194.35C200.854 193.877 200.62 193.253 200.62 192.48C200.62 191.673 200.83 191.037 201.25 190.57C201.67 190.103 202.21 189.87 202.87 189.87C203.504 189.87 204.007 190.073 204.38 190.48C204.754 190.887 204.94 191.463 204.94 192.21C204.94 192.423 204.924 192.62 204.89 192.8H201.43C201.49 193.3 201.68 193.683 202 193.95C202.32 194.217 202.74 194.35 203.26 194.35C203.827 194.35 204.28 194.233 204.62 194ZM206.925 189.93V190.81C207.225 190.177 207.758 189.86 208.525 189.86C209.018 189.86 209.412 190.01 209.705 190.31C209.998 190.61 210.145 191.01 210.145 191.51V195H209.355V191.72C209.355 191.347 209.258 191.063 209.065 190.87C208.878 190.67 208.632 190.57 208.325 190.57C207.945 190.57 207.615 190.717 207.335 191.01C207.062 191.303 206.925 191.71 206.925 192.23V195H206.145V189.93H206.925ZM214.695 189.93H215.485V195H214.695V194.12C214.429 194.747 213.899 195.06 213.105 195.06C212.605 195.06 212.209 194.913 211.915 194.62C211.629 194.32 211.485 193.92 211.485 193.42V189.93H212.275V193.22C212.275 193.587 212.369 193.867 212.555 194.06C212.742 194.253 212.995 194.35 213.315 194.35C213.735 194.35 214.069 194.203 214.315 193.91C214.569 193.617 214.695 193.22 214.695 192.72V189.93ZM96.95 211V204.26H98.21V211H96.95ZM99.81 207.64L102.32 211H100.73L98.31 207.66L100.64 204.26H102.15L99.81 207.64ZM105.769 208.82H105.149C104.836 208.82 104.596 208.887 104.429 209.02C104.263 209.147 104.179 209.31 104.179 209.51C104.179 209.937 104.426 210.15 104.919 210.15C105.186 210.15 105.393 210.073 105.539 209.92C105.693 209.76 105.769 209.553 105.769 209.3V208.82ZM103.309 207.3V206.19C103.689 205.957 104.236 205.84 104.949 205.84C106.323 205.84 107.009 206.48 107.009 207.76V211H105.819V210.39C105.586 210.823 105.146 211.04 104.499 211.04C104.019 211.04 103.636 210.9 103.349 210.62C103.069 210.34 102.929 209.987 102.929 209.56C102.929 209.08 103.109 208.703 103.469 208.43C103.829 208.157 104.349 208.02 105.029 208.02H105.769V207.71C105.769 207.43 105.696 207.217 105.549 207.07C105.403 206.923 105.153 206.85 104.799 206.85C104.259 206.85 103.763 207 103.309 207.3ZM109.448 205.93V206.83C109.681 206.203 110.108 205.89 110.728 205.89C110.868 205.89 110.981 205.9 111.068 205.92V207.08C110.914 207.013 110.744 206.98 110.558 206.98C110.231 206.98 109.964 207.113 109.758 207.38C109.551 207.647 109.448 207.98 109.448 208.38V211H108.238L108.248 205.93H109.448ZM113.233 206.83V209.41C113.233 209.623 113.29 209.787 113.403 209.9C113.516 210.007 113.673 210.06 113.873 210.06C114.126 210.06 114.36 209.99 114.573 209.85V210.88C114.34 210.993 114.04 211.05 113.673 211.05C112.58 211.05 112.033 210.497 112.033 209.39V206.83H111.273V205.93H112.033V204.71H113.233V205.93H114.493V206.83H113.233ZM118.702 205.93H119.912V211H118.702V210.17C118.435 210.757 117.915 211.05 117.142 211.05C116.629 211.05 116.229 210.903 115.942 210.61C115.655 210.317 115.512 209.9 115.512 209.36V205.93H116.712V209.08C116.712 209.4 116.789 209.643 116.942 209.81C117.102 209.977 117.319 210.06 117.592 210.06C117.939 210.06 118.209 209.943 118.402 209.71C118.602 209.477 118.702 209.123 118.702 208.65V205.93ZM123.547 208.86V207.85H126.087V208.86H123.547ZM131.043 209.95H131.933C132.639 209.95 133.176 209.733 133.543 209.3C133.909 208.86 134.093 208.273 134.093 207.54C134.093 206.893 133.896 206.363 133.503 205.95C133.116 205.53 132.586 205.32 131.913 205.32H131.043V209.95ZM129.753 204.26H131.953C132.959 204.26 133.783 204.57 134.423 205.19C135.063 205.81 135.383 206.593 135.383 207.54C135.383 208.573 135.073 209.41 134.453 210.05C133.833 210.683 132.999 211 131.953 211H129.753V204.26ZM139.041 208.82H138.421C138.107 208.82 137.867 208.887 137.701 209.02C137.534 209.147 137.451 209.31 137.451 209.51C137.451 209.937 137.697 210.15 138.191 210.15C138.457 210.15 138.664 210.073 138.811 209.92C138.964 209.76 139.041 209.553 139.041 209.3V208.82ZM136.581 207.3V206.19C136.961 205.957 137.507 205.84 138.221 205.84C139.594 205.84 140.281 206.48 140.281 207.76V211H139.091V210.39C138.857 210.823 138.417 211.04 137.771 211.04C137.291 211.04 136.907 210.9 136.621 210.62C136.341 210.34 136.201 209.987 136.201 209.56C136.201 209.08 136.381 208.703 136.741 208.43C137.101 208.157 137.621 208.02 138.301 208.02H139.041V207.71C139.041 207.43 138.967 207.217 138.821 207.07C138.674 206.923 138.424 206.85 138.071 206.85C137.531 206.85 137.034 207 136.581 207.3ZM142.719 205.93V206.8C143.006 206.18 143.526 205.87 144.279 205.87C144.786 205.87 145.186 206.023 145.479 206.33C145.772 206.637 145.919 207.07 145.919 207.63V211H144.719V207.88C144.719 207.547 144.639 207.297 144.479 207.13C144.319 206.957 144.102 206.87 143.829 206.87C143.516 206.87 143.252 206.993 143.039 207.24C142.826 207.48 142.719 207.827 142.719 208.28V211H141.519V205.93H142.719ZM149.763 208.82H149.143C148.83 208.82 148.59 208.887 148.423 209.02C148.257 209.147 148.173 209.31 148.173 209.51C148.173 209.937 148.42 210.15 148.913 210.15C149.18 210.15 149.387 210.073 149.533 209.92C149.687 209.76 149.763 209.553 149.763 209.3V208.82ZM147.303 207.3V206.19C147.683 205.957 148.23 205.84 148.943 205.84C150.317 205.84 151.003 206.48 151.003 207.76V211H149.813V210.39C149.58 210.823 149.14 211.04 148.493 211.04C148.013 211.04 147.63 210.9 147.343 210.62C147.063 210.34 146.923 209.987 146.923 209.56C146.923 209.08 147.103 208.703 147.463 208.43C147.823 208.157 148.343 208.02 149.023 208.02H149.763V207.71C149.763 207.43 149.69 207.217 149.543 207.07C149.397 206.923 149.147 206.85 148.793 206.85C148.253 206.85 147.757 207 147.303 207.3ZM156.032 207.69H156.742C157.202 207.69 157.546 207.58 157.772 207.36C157.999 207.14 158.112 206.843 158.112 206.47C158.112 206.103 157.999 205.817 157.772 205.61C157.546 205.397 157.212 205.29 156.772 205.29H156.032V207.69ZM154.772 204.26H156.882C157.642 204.26 158.249 204.467 158.702 204.88C159.162 205.293 159.392 205.823 159.392 206.47C159.392 207.157 159.156 207.703 158.682 208.11C158.216 208.51 157.626 208.71 156.912 208.71H156.032V211H154.772V204.26ZM163.329 208.05V207.9C163.316 207.573 163.226 207.313 163.059 207.12C162.899 206.92 162.662 206.82 162.349 206.82C162.062 206.82 161.812 206.927 161.599 207.14C161.392 207.347 161.259 207.65 161.199 208.05H163.329ZM164.149 209.68V210.72C163.796 210.94 163.286 211.05 162.619 211.05C161.812 211.05 161.176 210.81 160.709 210.33C160.242 209.85 160.009 209.23 160.009 208.47C160.009 207.663 160.229 207.03 160.669 206.57C161.109 206.11 161.659 205.88 162.319 205.88C162.979 205.88 163.502 206.08 163.889 206.48C164.276 206.88 164.469 207.463 164.469 208.23C164.469 208.417 164.446 208.657 164.399 208.95H161.219C161.306 209.317 161.486 209.597 161.759 209.79C162.039 209.983 162.386 210.08 162.799 210.08C163.332 210.08 163.782 209.947 164.149 209.68ZM166.772 205.93V206.8C167.059 206.18 167.579 205.87 168.332 205.87C168.839 205.87 169.239 206.023 169.532 206.33C169.825 206.637 169.972 207.07 169.972 207.63V211H168.772V207.88C168.772 207.547 168.692 207.297 168.532 207.13C168.372 206.957 168.155 206.87 167.882 206.87C167.569 206.87 167.305 206.993 167.092 207.24C166.879 207.48 166.772 207.827 166.772 208.28V211H165.572V205.93H166.772ZM174.256 206.09V207.15C173.923 206.95 173.506 206.85 173.006 206.85C172.8 206.85 172.636 206.897 172.516 206.99C172.403 207.077 172.346 207.19 172.346 207.33C172.346 207.383 172.353 207.433 172.366 207.48C172.386 207.527 172.416 207.573 172.456 207.62C172.503 207.66 172.546 207.697 172.586 207.73C172.626 207.763 172.683 207.8 172.756 207.84C172.83 207.873 172.893 207.903 172.946 207.93C173 207.957 173.073 207.99 173.166 208.03C173.26 208.07 173.333 208.103 173.386 208.13C173.74 208.303 174.02 208.497 174.226 208.71C174.433 208.923 174.536 209.2 174.536 209.54C174.536 210.013 174.366 210.383 174.026 210.65C173.686 210.917 173.233 211.05 172.666 211.05C172.04 211.05 171.533 210.947 171.146 210.74V209.64C171.593 209.94 172.076 210.09 172.596 210.09C172.816 210.09 172.986 210.05 173.106 209.97C173.233 209.883 173.296 209.767 173.296 209.62C173.296 209.533 173.276 209.457 173.236 209.39C173.196 209.317 173.12 209.247 173.006 209.18C172.893 209.113 172.803 209.067 172.736 209.04C172.676 209.007 172.553 208.95 172.366 208.87C172.346 208.863 172.33 208.857 172.316 208.85C172.31 208.843 172.296 208.837 172.276 208.83C172.256 208.823 172.24 208.817 172.226 208.81C171.486 208.477 171.116 207.997 171.116 207.37C171.116 206.903 171.293 206.537 171.646 206.27C172 206.003 172.443 205.87 172.976 205.87C173.49 205.87 173.916 205.943 174.256 206.09ZM175.544 211V205.93H176.744V211H175.544ZM175.424 204.41C175.424 204.21 175.494 204.04 175.634 203.9C175.774 203.76 175.944 203.69 176.144 203.69C176.344 203.69 176.514 203.76 176.654 203.9C176.794 204.04 176.864 204.21 176.864 204.41C176.864 204.617 176.794 204.79 176.654 204.93C176.514 205.07 176.344 205.14 176.144 205.14C175.944 205.14 175.774 205.07 175.634 204.93C175.494 204.79 175.424 204.617 175.424 204.41ZM181.231 205.93H182.441V211H181.231V210.17C180.965 210.757 180.445 211.05 179.671 211.05C179.158 211.05 178.758 210.903 178.471 210.61C178.185 210.317 178.041 209.9 178.041 209.36V205.93H179.241V209.08C179.241 209.4 179.318 209.643 179.471 209.81C179.631 209.977 179.848 210.06 180.121 210.06C180.468 210.06 180.738 209.943 180.931 209.71C181.131 209.477 181.231 209.123 181.231 208.65V205.93ZM184.946 205.93V206.8C185.232 206.18 185.752 205.87 186.506 205.87C187.012 205.87 187.412 206.023 187.706 206.33C187.999 206.637 188.146 207.07 188.146 207.63V211H186.946V207.88C186.946 207.547 186.866 207.297 186.706 207.13C186.546 206.957 186.329 206.87 186.056 206.87C185.742 206.87 185.479 206.993 185.266 207.24C185.052 207.48 184.946 207.827 184.946 208.28V211H183.746V205.93H184.946Z" fill="#2B2B2B"/>
<path d="M108.879 159.69H109.589C110.049 159.69 110.392 159.58 110.619 159.36C110.846 159.14 110.959 158.843 110.959 158.47C110.959 158.103 110.846 157.817 110.619 157.61C110.392 157.397 110.059 157.29 109.619 157.29H108.879V159.69ZM107.619 156.26H109.729C110.489 156.26 111.096 156.467 111.549 156.88C112.009 157.293 112.239 157.823 112.239 158.47C112.239 159.157 112.002 159.703 111.529 160.11C111.062 160.51 110.472 160.71 109.759 160.71H108.879V163H107.619V156.26ZM116.176 160.05V159.9C116.162 159.573 116.072 159.313 115.906 159.12C115.746 158.92 115.509 158.82 115.196 158.82C114.909 158.82 114.659 158.927 114.446 159.14C114.239 159.347 114.106 159.65 114.046 160.05H116.176ZM116.996 161.68V162.72C116.642 162.94 116.132 163.05 115.466 163.05C114.659 163.05 114.022 162.81 113.556 162.33C113.089 161.85 112.856 161.23 112.856 160.47C112.856 159.663 113.076 159.03 113.516 158.57C113.956 158.11 114.506 157.88 115.166 157.88C115.826 157.88 116.349 158.08 116.736 158.48C117.122 158.88 117.316 159.463 117.316 160.23C117.316 160.417 117.292 160.657 117.246 160.95H114.066C114.152 161.317 114.332 161.597 114.606 161.79C114.886 161.983 115.232 162.08 115.646 162.08C116.179 162.08 116.629 161.947 116.996 161.68ZM120.539 161.86C120.865 161.86 121.139 161.733 121.359 161.48C121.579 161.22 121.689 160.883 121.689 160.47C121.689 159.93 121.582 159.533 121.369 159.28C121.155 159.027 120.885 158.9 120.559 158.9C120.212 158.9 119.939 159.037 119.739 159.31C119.539 159.577 119.439 159.94 119.439 160.4C119.439 160.873 119.542 161.237 119.749 161.49C119.955 161.737 120.219 161.86 120.539 161.86ZM121.689 157.93H122.889V162.54C122.889 163.34 122.655 163.94 122.189 164.34C121.729 164.747 121.142 164.95 120.429 164.95C119.762 164.95 119.179 164.83 118.679 164.59V163.37C119.132 163.69 119.675 163.85 120.309 163.85C121.229 163.85 121.689 163.41 121.689 162.53V162.09C121.382 162.59 120.902 162.84 120.249 162.84C119.682 162.84 119.195 162.633 118.789 162.22C118.389 161.8 118.189 161.193 118.189 160.4C118.189 159.667 118.379 159.063 118.759 158.59C119.145 158.11 119.652 157.87 120.279 157.87C120.912 157.87 121.382 158.133 121.689 158.66V157.93ZM126.721 160.82H126.101C125.788 160.82 125.548 160.887 125.381 161.02C125.215 161.147 125.131 161.31 125.131 161.51C125.131 161.937 125.378 162.15 125.871 162.15C126.138 162.15 126.345 162.073 126.491 161.92C126.645 161.76 126.721 161.553 126.721 161.3V160.82ZM124.261 159.3V158.19C124.641 157.957 125.188 157.84 125.901 157.84C127.275 157.84 127.961 158.48 127.961 159.76V163H126.771V162.39C126.538 162.823 126.098 163.04 125.451 163.04C124.971 163.04 124.588 162.9 124.301 162.62C124.021 162.34 123.881 161.987 123.881 161.56C123.881 161.08 124.061 160.703 124.421 160.43C124.781 160.157 125.301 160.02 125.981 160.02H126.721V159.71C126.721 159.43 126.648 159.217 126.501 159.07C126.355 158.923 126.105 158.85 125.751 158.85C125.211 158.85 124.715 159 124.261 159.3ZM130.28 163L128.68 157.93H129.93L130.39 159.6C130.523 160.08 130.633 160.51 130.72 160.89C130.813 161.263 130.87 161.517 130.89 161.65L130.93 161.85C130.996 161.443 131.19 160.693 131.51 159.6L132 157.93H133.09L133.58 159.6C133.726 160.093 133.846 160.53 133.94 160.91C134.04 161.283 134.103 161.533 134.13 161.66L134.16 161.86C134.226 161.467 134.423 160.713 134.75 159.6L135.23 157.93H136.43L134.82 163H133.52L133.07 161.34C132.95 160.907 132.846 160.513 132.76 160.16C132.673 159.8 132.616 159.553 132.59 159.42L132.55 159.21C132.463 159.65 132.29 160.36 132.03 161.34L131.58 163H130.28ZM139.798 160.82H139.178C138.864 160.82 138.624 160.887 138.458 161.02C138.291 161.147 138.208 161.31 138.208 161.51C138.208 161.937 138.454 162.15 138.948 162.15C139.214 162.15 139.421 162.073 139.568 161.92C139.721 161.76 139.798 161.553 139.798 161.3V160.82ZM137.338 159.3V158.19C137.718 157.957 138.264 157.84 138.978 157.84C140.351 157.84 141.038 158.48 141.038 159.76V163H139.848V162.39C139.614 162.823 139.174 163.04 138.528 163.04C138.048 163.04 137.664 162.9 137.378 162.62C137.098 162.34 136.958 161.987 136.958 161.56C136.958 161.08 137.138 160.703 137.498 160.43C137.858 160.157 138.378 160.02 139.058 160.02H139.798V159.71C139.798 159.43 139.724 159.217 139.578 159.07C139.431 158.923 139.181 158.85 138.828 158.85C138.288 158.85 137.791 159 137.338 159.3ZM142.326 163V157.93H143.526V163H142.326ZM142.206 156.41C142.206 156.21 142.276 156.04 142.416 155.9C142.556 155.76 142.726 155.69 142.926 155.69C143.126 155.69 143.296 155.76 143.436 155.9C143.576 156.04 143.646 156.21 143.646 156.41C143.646 156.617 143.576 156.79 143.436 156.93C143.296 157.07 143.126 157.14 142.926 157.14C142.726 157.14 142.556 157.07 142.416 156.93C142.276 156.79 142.206 156.617 142.206 156.41ZM151.154 156.54V157.76C150.654 157.46 150.121 157.31 149.554 157.31C149.241 157.31 148.994 157.38 148.814 157.52C148.641 157.66 148.554 157.84 148.554 158.06C148.554 158.28 148.647 158.463 148.834 158.61C149.027 158.75 149.314 158.907 149.694 159.08C149.961 159.2 150.177 159.307 150.344 159.4C150.511 159.487 150.691 159.61 150.884 159.77C151.084 159.93 151.231 160.123 151.324 160.35C151.424 160.57 151.474 160.823 151.474 161.11C151.474 161.71 151.257 162.19 150.824 162.55C150.397 162.903 149.834 163.08 149.134 163.08C148.374 163.08 147.744 162.937 147.244 162.65V161.36C147.817 161.773 148.444 161.98 149.124 161.98C149.431 161.98 149.677 161.907 149.864 161.76C150.051 161.607 150.144 161.403 150.144 161.15C150.144 161.03 150.121 160.923 150.074 160.83C150.027 160.737 149.931 160.643 149.784 160.55C149.644 160.457 149.534 160.39 149.454 160.35C149.381 160.31 149.224 160.237 148.984 160.13C148.917 160.097 148.867 160.073 148.834 160.06C148.587 159.947 148.387 159.847 148.234 159.76C148.081 159.667 147.914 159.543 147.734 159.39C147.554 159.237 147.417 159.053 147.324 158.84C147.237 158.627 147.194 158.383 147.194 158.11C147.194 157.537 147.404 157.077 147.824 156.73C148.251 156.383 148.814 156.21 149.514 156.21C150.147 156.21 150.694 156.32 151.154 156.54ZM153.61 163L152.01 157.93H153.26L153.72 159.6C153.853 160.08 153.963 160.51 154.05 160.89C154.143 161.263 154.2 161.517 154.22 161.65L154.26 161.85C154.327 161.443 154.52 160.693 154.84 159.6L155.33 157.93H156.42L156.91 159.6C157.057 160.093 157.177 160.53 157.27 160.91C157.37 161.283 157.433 161.533 157.46 161.66L157.49 161.86C157.557 161.467 157.753 160.713 158.08 159.6L158.56 157.93H159.76L158.15 163H156.85L156.4 161.34C156.28 160.907 156.177 160.513 156.09 160.16C156.003 159.8 155.947 159.553 155.92 159.42L155.88 159.21C155.793 159.65 155.62 160.36 155.36 161.34L154.91 163H153.61ZM163.128 160.82H162.508C162.194 160.82 161.954 160.887 161.788 161.02C161.621 161.147 161.538 161.31 161.538 161.51C161.538 161.937 161.784 162.15 162.278 162.15C162.544 162.15 162.751 162.073 162.898 161.92C163.051 161.76 163.128 161.553 163.128 161.3V160.82ZM160.668 159.3V158.19C161.048 157.957 161.594 157.84 162.308 157.84C163.681 157.84 164.368 158.48 164.368 159.76V163H163.178V162.39C162.944 162.823 162.504 163.04 161.858 163.04C161.378 163.04 160.994 162.9 160.708 162.62C160.428 162.34 160.288 161.987 160.288 161.56C160.288 161.08 160.468 160.703 160.828 160.43C161.188 160.157 161.708 160.02 162.388 160.02H163.128V159.71C163.128 159.43 163.054 159.217 162.908 159.07C162.761 158.923 162.511 158.85 162.158 158.85C161.618 158.85 161.121 159 160.668 159.3ZM168.636 158.09V159.15C168.303 158.95 167.886 158.85 167.386 158.85C167.179 158.85 167.016 158.897 166.896 158.99C166.783 159.077 166.726 159.19 166.726 159.33C166.726 159.383 166.733 159.433 166.746 159.48C166.766 159.527 166.796 159.573 166.836 159.62C166.883 159.66 166.926 159.697 166.966 159.73C167.006 159.763 167.063 159.8 167.136 159.84C167.209 159.873 167.273 159.903 167.326 159.93C167.379 159.957 167.453 159.99 167.546 160.03C167.639 160.07 167.713 160.103 167.766 160.13C168.119 160.303 168.399 160.497 168.606 160.71C168.813 160.923 168.916 161.2 168.916 161.54C168.916 162.013 168.746 162.383 168.406 162.65C168.066 162.917 167.613 163.05 167.046 163.05C166.419 163.05 165.913 162.947 165.526 162.74V161.64C165.973 161.94 166.456 162.09 166.976 162.09C167.196 162.09 167.366 162.05 167.486 161.97C167.613 161.883 167.676 161.767 167.676 161.62C167.676 161.533 167.656 161.457 167.616 161.39C167.576 161.317 167.499 161.247 167.386 161.18C167.273 161.113 167.183 161.067 167.116 161.04C167.056 161.007 166.933 160.95 166.746 160.87C166.726 160.863 166.709 160.857 166.696 160.85C166.689 160.843 166.676 160.837 166.656 160.83C166.636 160.823 166.619 160.817 166.606 160.81C165.866 160.477 165.496 159.997 165.496 159.37C165.496 158.903 165.673 158.537 166.026 158.27C166.379 158.003 166.823 157.87 167.356 157.87C167.869 157.87 168.296 157.943 168.636 158.09ZM171.334 158.83V161.41C171.334 161.623 171.39 161.787 171.504 161.9C171.617 162.007 171.774 162.06 171.974 162.06C172.227 162.06 172.46 161.99 172.674 161.85V162.88C172.44 162.993 172.14 163.05 171.774 163.05C170.68 163.05 170.134 162.497 170.134 161.39V158.83H169.374V157.93H170.134V156.71H171.334V157.93H172.594V158.83H171.334ZM176.253 160.82H175.633C175.319 160.82 175.079 160.887 174.913 161.02C174.746 161.147 174.663 161.31 174.663 161.51C174.663 161.937 174.909 162.15 175.403 162.15C175.669 162.15 175.876 162.073 176.023 161.92C176.176 161.76 176.253 161.553 176.253 161.3V160.82ZM173.793 159.3V158.19C174.173 157.957 174.719 157.84 175.433 157.84C176.806 157.84 177.493 158.48 177.493 159.76V163H176.303V162.39C176.069 162.823 175.629 163.04 174.983 163.04C174.503 163.04 174.119 162.9 173.833 162.62C173.553 162.34 173.413 161.987 173.413 161.56C173.413 161.08 173.593 160.703 173.953 160.43C174.313 160.157 174.833 160.02 175.513 160.02H176.253V159.71C176.253 159.43 176.179 159.217 176.033 159.07C175.886 158.923 175.636 158.85 175.283 158.85C174.743 158.85 174.246 159 173.793 159.3Z" fill="#DA011C"/>
<g filter="url(#filter1_d_1124_4113)">
<rect x="82.5" y="228" width="120" height="24" rx="8" fill="#FF1934" shape-rendering="crispEdges"/>
<path d="M137.442 239.288C137.442 238.451 137.671 237.779 138.13 237.272C138.594 236.765 139.212 236.512 139.986 236.512C140.77 236.512 141.391 236.765 141.85 237.272C142.308 237.773 142.538 238.445 142.538 239.288C142.538 240.12 142.306 240.789 141.842 241.296C141.383 241.803 140.767 242.056 139.994 242.056C139.22 242.056 138.602 241.803 138.138 241.296C137.674 240.789 137.442 240.12 137.442 239.288ZM138.522 239.288C138.522 239.853 138.655 240.301 138.922 240.632C139.188 240.963 139.546 241.128 139.994 241.128C140.447 241.128 140.804 240.965 141.066 240.64C141.327 240.309 141.458 239.859 141.458 239.288C141.458 238.717 141.327 238.267 141.066 237.936C140.804 237.605 140.444 237.44 139.986 237.44C139.532 237.44 139.175 237.605 138.914 237.936C138.652 238.267 138.522 238.717 138.522 239.288ZM143.439 242L143.439 236.608L144.447 236.608L144.447 242L143.439 242ZM145.727 239.312L147.735 242L146.463 242L144.527 239.328L146.391 236.608L147.599 236.608L145.727 239.312Z" fill="white"/>
</g>
<defs>
<filter id="filter0_d_1124_4113" x="-4" y="-2" width="293" height="56" filterUnits="userSpaceOnUse" color-interpolation-filters="sRGB">
<feFlood flood-opacity="0" result="BackgroundImageFix"/>
<feColorMatrix in="SourceAlpha" type="matrix" values="0 0 0 0 0 0 0 0 0 0 0 0 0 0 0 0 0 0 127 0" result="hardAlpha"/>
<feOffset dy="2"/>
<feGaussianBlur stdDeviation="2"/>
<feComposite in2="hardAlpha" operator="out"/>
<feColorMatrix type="matrix" values="0 0 0 0 0.168627 0 0 0 0 0.168627 0 0 0 0 0.168627 0 0 0 0.24 0"/>
<feBlend mode="normal" in2="BackgroundImageFix" result="effect1_dropShadow_1124_4113"/>
<feBlend mode="normal" in="SourceGraphic" in2="effect1_dropShadow_1124_4113" result="shape"/>
</filter>
<filter id="filter1_d_1124_4113" x="76.5" y="222" width="136" height="40" filterUnits="userSpaceOnUse" color-interpolation-filters="sRGB">
<feFlood flood-opacity="0" result="BackgroundImageFix"/>
<feColorMatrix in="SourceAlpha" type="matrix" values="0 0 0 0 0 0 0 0 0 0 0 0 0 0 0 0 0 0 127 0" result="hardAlpha"/>
<feOffset dx="2" dy="2"/>
<feGaussianBlur stdDeviation="4"/>
<feComposite in2="hardAlpha" operator="out"/>
<feColorMatrix type="matrix" values="0 0 0 0 0 0 0 0 0 0 0 0 0 0 0 0 0 0 0.12 0"/>
<feBlend mode="normal" in2="BackgroundImageFix" result="effect1_dropShadow_1124_4113"/>
<feBlend mode="normal" in="SourceGraphic" in2="effect1_dropShadow_1124_4113" result="shape"/>
</filter>
<clipPath id="clip0_1124_4113">
<rect width="24" height="24" fill="white" transform="translate(16 16)"/>
</clipPath>
<clipPath id="clip1_1124_4113">
<rect width="64" height="64" fill="white" transform="translate(110.5 72)"/>
</clipPath>
</defs>
</svg>
