<svg width="812" height="375" viewBox="0 0 812 375" fill="none" xmlns="http://www.w3.org/2000/svg">
<rect width="812" height="375" fill="#D3D3D3"/>
<g clip-path="url(#clip0_1124_4113)">
<path d="M806.197 33.9877C804.089 33.3396 801.947 32.7572 799.88 32.0107L787.378 27.7368C786.337 27.3758 785.287 27.0477 784.261 26.654L781.185 25.4727L775.041 23.1101L768.888 20.7476L762.851 18.1554L756.813 15.5713C755.812 15.1366 754.795 14.7182 753.803 14.267L750.849 12.8643L744.935 10.0588L741.973 8.656C740.981 8.19662 739.996 7.72083 739.045 7.20402L727.478 1.15002L725.485 0.00976562H694.477C694.23 2.77426 694.001 5.55517 693.845 8.28685C693.41 15.2678 693.131 22.3472 693 29.5251C696.109 27.8762 699.243 26.0633 702.311 24.2996C705.387 22.5195 708.43 20.7148 711.433 18.8937C714.435 17.0725 717.405 15.2268 720.333 13.3647C723.278 11.4779 726.223 9.50914 729.111 7.55676L736.526 11.4369C736.576 14.9643 736.707 18.4097 736.871 21.8879C737.027 25.366 737.224 28.8688 737.453 32.3798C737.683 35.8908 737.946 39.4264 738.241 42.9702L738.709 48.3024L739.266 53.5606C745.041 49.3442 750.685 45.0703 756.198 40.7389C758.962 38.5569 761.669 36.424 764.385 34.1763C767.1 31.9286 769.791 29.6645 772.449 27.384L780.315 30.411C781.226 37.4166 782.358 44.2089 783.564 51.1407C784.778 58.056 786.115 65.0124 787.567 72.0098C790.184 69.6882 792.809 67.2109 795.393 64.7909C797.977 62.3545 800.537 59.91 803.063 57.4654C806.164 54.4548 809.207 51.436 812.226 48.4008V35.8088L806.197 33.9959V33.9877Z" fill="#8C0010"/>
<path d="M5.80323 33.9779C7.91147 33.3298 10.0525 32.7474 12.1198 32.0009L24.6215 27.727C25.6633 27.3661 26.7133 27.0379 27.7387 26.6442L30.815 25.4629L36.9592 23.1004L43.1117 20.7378L49.1493 18.1456L55.1869 15.5616C56.1876 15.1268 57.2049 14.7084 58.1974 14.2573L61.1506 12.8545L67.0652 10.049L70.0265 8.64624C71.0191 8.18685 72.0035 7.71106 72.9551 7.19426L84.5217 1.14025L86.5151 0H117.523C117.77 2.7645 117.999 5.5454 118.155 8.27709C118.59 15.2581 118.869 22.3375 119 29.5153C115.891 27.8665 112.757 26.0536 109.689 24.2899C106.613 22.5097 103.57 20.705 100.567 18.8839C97.5649 17.0628 94.5953 15.217 91.6667 13.3549C88.7218 11.4682 85.7768 9.49937 82.8893 7.547L75.4735 11.4271C75.4243 14.9545 75.293 18.3999 75.129 21.8781C74.9731 25.3563 74.7762 28.8591 74.5465 32.3701C74.3169 35.8811 74.0543 39.4167 73.759 42.9605L73.2914 48.2926L72.7336 53.5509C66.9585 49.3344 61.3147 45.0605 55.8021 40.7292C53.0376 38.5471 50.3305 36.4143 47.6152 34.1666C44.9 31.9189 42.2093 29.6548 39.5514 27.3743L31.6845 30.4013C30.774 37.4069 29.6419 44.1992 28.436 51.1309C27.2219 58.0463 25.8848 65.0026 24.4328 72C21.816 69.6785 19.191 67.2011 16.6069 64.7811C14.0229 62.3448 11.4635 59.9002 8.93688 57.4556C5.83605 54.445 2.79264 51.4262 -0.226158 48.391V35.799L5.80323 33.9861V33.9779Z" fill="#8C0010"/>
<path d="M801.053 116.707C791.877 111.962 782.567 107.407 773.648 102.242C769.16 99.7077 764.615 97.2684 760.165 94.6671L746.968 86.6725C744.786 85.3195 742.537 84.0522 740.393 82.6324L733.962 78.4017L727.53 74.1805C725.395 72.7607 723.213 71.4076 721.155 69.8831L708.654 60.9833C707.615 60.2305 706.548 59.5254 705.547 58.7441L702.517 56.4096L696.457 51.7405L690.387 47.0715L684.527 42.1833L678.667 37.3046C677.695 36.4852 676.704 35.6848 675.742 34.8558L672.912 32.3116L667.261 27.2233L664.431 24.6792C663.478 23.8407 662.544 22.9831 661.649 22.0969L650.777 11.5297L640.362 0.600304L639.838 0H614.158C613.053 2.78236 611.976 5.57426 610.966 8.34709C608.184 15.9795 605.516 23.774 603 31.7209C607.002 30.9109 611.099 29.939 615.101 28.9861C619.113 28.0237 623.096 27.0232 627.05 25.9846C631.005 24.946 634.911 23.8788 638.79 22.7735C642.696 21.6491 646.622 20.4294 650.481 19.2193L657.456 25.9941C656.341 29.939 655.35 33.8172 654.378 37.743C653.407 41.6688 652.463 45.6327 651.548 49.6156C650.634 53.5986 649.757 57.6197 648.919 61.6598L647.68 67.7486L646.555 73.7898C654.378 71.0074 662.078 68.1203 669.653 65.1283C673.455 63.6132 677.171 62.1363 680.944 60.5259C684.718 58.9156 688.453 57.2862 692.169 55.6377L699.925 61.6122C698.62 69.7115 697.629 77.6489 696.676 85.7768C695.742 93.8857 694.923 102.071 694.227 110.342C697.915 108.617 701.66 106.73 705.328 104.891C709.016 103.033 712.665 101.166 716.296 99.2694C723.547 95.4865 730.693 91.6274 737.716 87.6921C740.489 89.4549 743.328 91.1129 746.13 92.828C745.682 100.908 745.348 109.065 745.12 117.279L744.967 123.453L744.91 129.561C744.881 133.639 744.881 137.727 744.91 141.834C751.99 137.603 758.974 133.315 765.854 128.97C769.303 126.779 772.686 124.644 776.107 122.376C779.528 120.118 782.92 117.841 786.293 115.554L795.097 120.07C795.202 124.139 795.326 128.217 795.469 132.305C795.612 136.403 795.793 140.509 796.031 144.54C796.489 152.649 797.032 160.805 797.68 169C802.463 165.627 807.17 162.235 811.858 158.814V121.967C808.228 120.271 804.597 118.574 801.072 116.697L801.053 116.707Z" fill="#FF1934"/>
<path d="M11.1191 116.016C20.2409 111.299 29.4953 106.771 38.3613 101.637C42.8227 99.1177 47.341 96.6928 51.7645 94.1069L64.8836 86.1597C67.0528 84.8146 69.2882 83.5548 71.4195 82.1434L77.8133 77.9378L84.207 73.7415C86.3288 72.3302 88.498 70.9851 90.544 69.4696L102.972 60.6225C104.004 59.8742 105.065 59.1732 106.06 58.3965L109.072 56.0758L115.096 51.4344L121.13 46.793L126.955 41.9337L132.781 37.0839C133.747 36.2693 134.732 35.4736 135.689 34.6495L138.502 32.1204L144.119 27.0622L146.932 24.5332C147.88 23.6996 148.808 22.8471 149.698 21.9662L160.506 11.4614L170.859 0.596752L171.38 0H196.908C198.007 2.7659 199.077 5.54127 200.081 8.2977C202.847 15.885 205.499 23.6333 208 31.5332C204.022 30.728 199.949 29.7618 195.97 28.8146C191.982 27.8579 188.023 26.8633 184.092 25.8309C180.161 24.7984 176.277 23.7375 172.422 22.6387C168.539 21.521 164.636 20.3085 160.8 19.1055L153.866 25.8403C154.974 29.7618 155.959 33.6171 156.926 37.5196C157.892 41.4222 158.829 45.3627 159.739 49.3221C160.648 53.2815 161.52 57.2788 162.353 61.295L163.585 67.3478L164.702 73.3532C156.926 70.5873 149.272 67.7172 141.742 64.7429C137.962 63.2368 134.268 61.7686 130.517 60.1678C126.766 58.567 123.053 56.9472 119.359 55.3085L111.648 61.2476C112.946 69.2991 113.931 77.1894 114.878 85.2693C115.806 93.3302 116.621 101.467 117.313 109.689C113.647 107.974 109.924 106.099 106.277 104.271C102.612 102.424 98.9838 100.567 95.3748 98.682C88.1664 94.9215 81.0622 91.0853 74.0812 87.1732C71.3248 88.9256 68.502 90.5737 65.7172 92.2788C66.1624 100.311 66.4939 108.419 66.7213 116.585L66.8728 122.723L66.9296 128.794C66.9581 132.848 66.9581 136.912 66.9296 140.995C59.8918 136.789 52.9486 132.526 46.1096 128.207C42.6806 126.028 39.318 123.907 35.9174 121.652C32.5169 119.407 29.1448 117.143 25.7916 114.87L17.0392 119.36C16.935 123.405 16.8119 127.459 16.6698 131.522C16.5277 135.595 16.3478 139.678 16.111 143.685C15.6563 151.746 15.1164 159.854 14.4723 168C9.71719 164.647 5.03789 161.275 0.377533 157.874V121.245C3.98647 119.559 7.5954 117.873 11.1001 116.007L11.1191 116.016Z" fill="#FF1934"/>
<rect x="146.318" y="86" width="508.71" height="203" rx="16" fill="#FF1934"/>
<g clip-path="url(#clip1_1124_4113)">
<path d="M146.318 172.665V229.445L226.848 219.705V162.925L146.318 172.665Z" fill="white"/>
<path d="M240.009 192.654L248.609 191.614C251.379 191.284 253.389 191.814 254.639 193.224C255.889 194.634 256.159 196.574 255.439 199.064C254.619 201.904 253.079 204.224 250.839 205.994C248.589 207.774 246.159 208.824 243.539 209.144L240.649 209.494L238.229 217.874L232.519 218.564L240.009 192.664V192.654ZM242.009 204.794L243.899 204.564C246.919 204.204 248.829 202.594 249.659 199.754C250.399 197.194 249.369 196.084 246.579 196.414L244.359 196.684L242.009 204.794Z" fill="white"/>
<path d="M260.509 210.604L270.299 209.424L268.929 214.154L253.389 216.034L260.879 190.134L276.269 188.274L274.899 193.004L265.259 194.174L263.559 200.054L272.159 199.014L270.799 203.704L262.199 204.744L260.499 210.624L260.509 210.604Z" fill="white"/>
<path d="M273.569 213.585L281.059 187.685L287.329 186.925L290.049 196.945C290.429 198.355 290.729 199.685 290.949 200.935C291.169 202.185 291.289 203.065 291.309 203.575L291.359 204.385C291.659 202.515 292.299 199.905 293.269 196.555L296.369 185.835L302.079 185.145L294.589 211.045L288.319 211.805L285.449 201.805C285.059 200.515 284.759 199.235 284.539 197.965C284.319 196.695 284.199 195.755 284.159 195.135L284.139 194.215C283.839 196.475 283.259 199.125 282.369 202.175L279.269 212.895L273.559 213.585H273.569Z" fill="white"/>
<path d="M320.988 183.974L319.388 189.504C317.738 188.544 315.828 188.194 313.678 188.454C312.718 188.574 311.918 188.864 311.298 189.334C310.668 189.804 310.268 190.364 310.078 191.004C309.888 191.644 310.038 192.174 310.508 192.604C310.978 193.034 311.758 193.454 312.828 193.864C313.488 194.134 314.038 194.364 314.468 194.574C314.898 194.784 315.368 195.084 315.888 195.474C316.408 195.864 316.778 196.304 317.008 196.784C317.238 197.264 317.378 197.874 317.428 198.604C317.478 199.344 317.368 200.154 317.118 201.054C316.448 203.384 315.068 205.374 312.998 207.024C310.918 208.674 308.518 209.664 305.768 209.994C302.828 210.354 300.588 210.104 299.038 209.254L300.758 203.294C302.518 204.714 304.668 205.264 307.218 204.964C308.088 204.864 308.868 204.534 309.578 203.994C310.288 203.454 310.748 202.794 310.968 202.024C311.038 201.764 311.078 201.524 311.068 201.304C311.068 201.084 310.988 200.884 310.848 200.704C310.708 200.524 310.568 200.374 310.418 200.254C310.268 200.134 310.048 200.004 309.748 199.854C309.448 199.704 309.188 199.584 308.978 199.484C308.768 199.384 308.458 199.254 308.038 199.074C307.618 198.904 307.288 198.774 307.028 198.674C305.638 198.104 304.628 197.304 303.978 196.294C303.328 195.284 303.278 193.844 303.818 191.974C304.458 189.744 305.778 187.854 307.748 186.284C309.728 184.724 312.108 183.774 314.908 183.434C317.408 183.134 319.428 183.304 320.978 183.964L320.988 183.974Z" fill="white"/>
<path d="M318.839 208.114L326.329 182.214L332.039 181.524L324.549 207.424L318.839 208.114Z" fill="white"/>
<path d="M347.048 195.064L351.648 179.154L357.358 178.464L352.768 194.334C351.788 197.714 350.128 200.404 347.788 202.404C345.438 204.404 342.718 205.594 339.598 205.974C336.528 206.344 334.328 205.754 332.988 204.214C331.648 202.674 331.438 200.284 332.378 197.054L337.048 180.914L342.758 180.224L338.098 196.324C337.168 199.524 338.188 200.944 341.158 200.584C344.128 200.224 346.088 198.384 347.048 195.054V195.064Z" fill="white"/>
<path d="M354.509 203.804L361.999 177.904L368.269 177.144L370.989 187.164C371.369 188.574 371.669 189.904 371.889 191.154C372.109 192.404 372.229 193.284 372.249 193.794L372.299 194.604C372.599 192.734 373.239 190.124 374.209 186.774L377.309 176.054L383.019 175.364L375.529 201.264L369.259 202.024L366.389 192.024C365.999 190.734 365.699 189.454 365.479 188.184C365.259 186.914 365.139 185.974 365.099 185.354L365.079 184.434C364.779 186.694 364.199 189.344 363.309 192.394L360.209 203.114L354.499 203.804H354.509Z" fill="white"/>
<path d="M249.309 160.395L248.029 164.825C246.709 164.055 245.189 163.775 243.459 163.985C242.689 164.075 242.049 164.315 241.549 164.695C241.049 165.075 240.729 165.515 240.579 166.025C240.429 166.535 240.549 166.965 240.929 167.305C241.309 167.645 241.929 167.985 242.779 168.315C243.309 168.525 243.749 168.715 244.089 168.885C244.429 169.055 244.809 169.295 245.229 169.605C245.649 169.925 245.939 170.265 246.129 170.655C246.309 171.035 246.429 171.525 246.469 172.115C246.509 172.705 246.429 173.355 246.219 174.075C245.679 175.945 244.579 177.535 242.919 178.845C241.259 180.165 239.329 180.955 237.139 181.225C234.789 181.505 232.989 181.315 231.759 180.635L233.139 175.875C234.549 177.015 236.269 177.455 238.309 177.205C238.999 177.125 239.629 176.865 240.199 176.425C240.759 175.995 241.139 175.465 241.309 174.855C241.369 174.655 241.399 174.455 241.389 174.285C241.389 174.105 241.319 173.945 241.209 173.805C241.099 173.665 240.989 173.535 240.869 173.445C240.749 173.355 240.579 173.245 240.329 173.125C240.089 173.005 239.879 172.905 239.709 172.825C239.539 172.745 239.289 172.635 238.959 172.505C238.629 172.365 238.359 172.265 238.149 172.185C237.039 171.725 236.229 171.095 235.709 170.285C235.189 169.475 235.149 168.325 235.579 166.825C236.099 165.045 237.149 163.525 238.729 162.275C240.309 161.025 242.219 160.265 244.459 159.995C246.459 159.755 248.079 159.895 249.319 160.415L249.309 160.395Z" fill="white"/>
<path d="M252.979 175.404L260.809 174.454L259.719 178.234L247.289 179.734L253.289 159.014L265.599 157.524L264.509 161.304L256.799 162.234L255.439 166.934L262.319 166.104L261.229 169.854L254.349 170.684L252.989 175.384L252.979 175.404Z" fill="white"/>
<path d="M269.189 173.084L276.579 172.194L275.379 176.344L263.429 177.794L269.429 157.074L273.999 156.524L269.209 173.094L269.189 173.084Z" fill="white"/>
<path d="M290.858 174.465V170.375L283.868 171.225L281.428 175.615L276.648 176.195L289.318 154.665L295.068 153.965L295.748 173.875L290.858 174.465ZM286.068 167.275L290.878 166.695V165.985C290.888 164.045 290.918 162.395 290.958 161.025C290.998 159.655 291.038 158.775 291.078 158.375L291.138 157.775C290.658 158.925 289.108 161.835 286.488 166.525L286.068 167.285V167.275Z" fill="white"/>
<path d="M297.918 173.615L305.638 152.685L310.648 152.075L311.268 159.235C311.378 160.425 311.458 161.525 311.488 162.535C311.518 163.535 311.528 164.255 311.498 164.665L311.468 165.265C312.178 163.875 313.478 161.695 315.358 158.745L320.348 150.905L325.358 150.295L321.438 170.765L316.868 171.315L318.448 163.385L319.818 157.375C318.858 158.975 317.558 161.085 315.928 163.685L310.848 171.835L308.148 172.165L307.618 164.695C307.528 163.475 307.478 162.385 307.448 161.425C307.418 160.465 307.418 159.785 307.428 159.415V158.875C307.018 160.335 306.348 162.355 305.418 164.965L302.468 173.065L297.898 173.615H297.918Z" fill="white"/>
<path d="M337.809 168.795V164.695L330.819 165.545L328.379 169.935L323.599 170.515L336.269 148.985L342.019 148.285L342.699 168.195L337.809 168.785V168.795ZM333.019 161.605L337.829 161.025V160.315C337.839 158.375 337.869 156.725 337.909 155.355C337.949 153.985 337.989 153.105 338.029 152.705L338.089 152.105C337.609 153.255 336.059 156.165 333.439 160.855L333.019 161.615V161.605Z" fill="white"/>
<path d="M364.629 145.555L363.529 149.365L358.669 149.955L353.779 166.865L349.179 167.425L354.069 150.515L349.179 151.105L350.279 147.295L364.639 145.555H364.629Z" fill="white"/>
</g>
<rect x="407.028" y="94" width="240" height="187" rx="16" fill="white"/>
<path d="M488.882 115.564L485.648 121.486V125H484.514V121.5L481.308 115.564H482.624L483.338 116.95C483.824 117.883 484.211 118.644 484.5 119.232C484.79 119.82 484.958 120.175 485.004 120.296L485.074 120.464C485.158 120.231 485.751 119.059 486.852 116.95L487.566 115.564H488.882ZM493.793 121.724H492.561C491.964 121.724 491.516 121.841 491.217 122.074C490.918 122.307 490.769 122.601 490.769 122.956C490.769 123.311 490.886 123.6 491.119 123.824C491.352 124.039 491.693 124.146 492.141 124.146C492.645 124.146 493.046 124.006 493.345 123.726C493.644 123.437 493.793 123.073 493.793 122.634V121.724ZM490.125 119.386V118.28C490.657 117.953 491.357 117.79 492.225 117.79C494.008 117.79 494.899 118.695 494.899 120.506V125H493.807V124.16C493.443 124.767 492.78 125.07 491.819 125.07C491.156 125.07 490.62 124.874 490.209 124.482C489.808 124.09 489.607 123.595 489.607 122.998C489.607 122.317 489.864 121.789 490.377 121.416C490.9 121.033 491.609 120.842 492.505 120.842H493.793V120.478C493.793 119.918 493.667 119.498 493.415 119.218C493.163 118.929 492.738 118.784 492.141 118.784C491.385 118.784 490.713 118.985 490.125 119.386ZM497.66 117.902V119.134C498.08 118.247 498.826 117.804 499.9 117.804C500.59 117.804 501.141 118.014 501.552 118.434C501.962 118.854 502.168 119.414 502.168 120.114V125H501.062V120.408C501.062 119.885 500.926 119.489 500.656 119.218C500.394 118.938 500.049 118.798 499.62 118.798C499.088 118.798 498.626 119.003 498.234 119.414C497.851 119.825 497.66 120.394 497.66 121.122V125H496.568V117.902H497.66ZM506.494 123.838C507.008 123.838 507.46 123.642 507.852 123.25C508.254 122.849 508.454 122.256 508.454 121.472C508.454 120.567 508.263 119.895 507.88 119.456C507.498 119.017 507.054 118.798 506.55 118.798C505.944 118.798 505.463 119.041 505.108 119.526C504.754 120.002 504.576 120.627 504.576 121.402C504.576 122.195 504.772 122.802 505.164 123.222C505.556 123.633 506 123.838 506.494 123.838ZM508.454 117.902H509.56V124.426C509.56 125.509 509.262 126.321 508.664 126.862C508.067 127.413 507.297 127.688 506.354 127.688C505.496 127.688 504.763 127.543 504.156 127.254V126.148C504.754 126.493 505.454 126.666 506.256 126.666C506.938 126.666 507.474 126.484 507.866 126.12C508.258 125.756 508.454 125.187 508.454 124.412V123.614C507.988 124.417 507.292 124.818 506.368 124.818C505.556 124.818 504.861 124.519 504.282 123.922C503.713 123.325 503.428 122.494 503.428 121.43C503.428 120.375 503.694 119.507 504.226 118.826C504.758 118.145 505.454 117.804 506.312 117.804C507.283 117.804 507.997 118.229 508.454 119.078V117.902ZM519.808 115.564V116.558H517.26V125H516.126V116.558H513.578V115.564H519.808ZM525.33 120.996V120.716C525.33 120.128 525.171 119.661 524.854 119.316C524.536 118.961 524.098 118.784 523.538 118.784C523.006 118.784 522.553 118.975 522.18 119.358C521.806 119.741 521.587 120.287 521.522 120.996H525.33ZM525.988 123.6V124.636C525.437 124.925 524.765 125.07 523.972 125.07C522.898 125.07 522.03 124.743 521.368 124.09C520.714 123.427 520.388 122.555 520.388 121.472C520.388 120.343 520.682 119.451 521.27 118.798C521.858 118.145 522.614 117.818 523.538 117.818C524.424 117.818 525.129 118.103 525.652 118.672C526.174 119.241 526.436 120.049 526.436 121.094C526.436 121.393 526.412 121.668 526.366 121.92H521.522C521.606 122.62 521.872 123.157 522.32 123.53C522.768 123.903 523.356 124.09 524.084 124.09C524.877 124.09 525.512 123.927 525.988 123.6ZM528.92 117.902V119.148C529.293 118.271 529.937 117.832 530.852 117.832C531.02 117.832 531.151 117.841 531.244 117.86V118.952C531.048 118.887 530.847 118.854 530.642 118.854C530.147 118.854 529.737 119.083 529.41 119.54C529.083 119.997 528.92 120.525 528.92 121.122V125H527.814L527.828 117.902H528.92ZM533.193 115.102V119.134C533.613 118.247 534.359 117.804 535.433 117.804C536.114 117.804 536.66 118.014 537.071 118.434C537.491 118.854 537.701 119.423 537.701 120.142V125H536.595V120.408C536.595 119.895 536.459 119.498 536.189 119.218C535.927 118.938 535.582 118.798 535.153 118.798C534.63 118.798 534.173 118.999 533.781 119.4C533.389 119.801 533.193 120.375 533.193 121.122V125H532.101V115.102H533.193ZM542.251 125.126C541.234 125.126 540.426 124.785 539.829 124.104C539.241 123.413 538.947 122.545 538.947 121.5C538.947 120.445 539.25 119.568 539.857 118.868C540.473 118.159 541.271 117.804 542.251 117.804C543.324 117.804 544.15 118.149 544.729 118.84C545.317 119.531 545.611 120.408 545.611 121.472C545.611 122.527 545.312 123.399 544.715 124.09C544.118 124.781 543.296 125.126 542.251 125.126ZM542.251 118.784C541.579 118.784 541.052 119.045 540.669 119.568C540.286 120.091 540.095 120.73 540.095 121.486C540.095 122.223 540.291 122.853 540.683 123.376C541.075 123.889 541.598 124.146 542.251 124.146C542.96 124.146 543.506 123.894 543.889 123.39C544.272 122.877 544.463 122.242 544.463 121.486C544.463 120.702 544.281 120.058 543.917 119.554C543.553 119.041 542.998 118.784 542.251 118.784ZM548.026 117.902V119.148C548.4 118.271 549.044 117.832 549.958 117.832C550.126 117.832 550.257 117.841 550.35 117.86V118.952C550.154 118.887 549.954 118.854 549.748 118.854C549.254 118.854 548.843 119.083 548.516 119.54C548.19 119.997 548.026 120.525 548.026 121.122V125H546.92L546.934 117.902H548.026ZM552.299 117.902V119.05C552.691 118.219 553.358 117.804 554.301 117.804C555.393 117.804 556.083 118.266 556.373 119.19C556.578 118.742 556.863 118.401 557.227 118.168C557.6 117.925 558.015 117.804 558.473 117.804C559.21 117.804 559.765 118.014 560.139 118.434C560.512 118.854 560.699 119.419 560.699 120.128V125H559.593V120.408C559.593 119.335 559.14 118.798 558.235 118.798C557.787 118.798 557.385 119.003 557.031 119.414C556.676 119.815 556.499 120.385 556.499 121.122V125H555.393V120.408C555.393 119.335 554.94 118.798 554.035 118.798C553.587 118.798 553.185 119.003 552.831 119.414C552.476 119.815 552.299 120.385 552.299 121.122V125H551.207V117.902H552.299ZM566.192 121.724H564.96C564.363 121.724 563.915 121.841 563.616 122.074C563.317 122.307 563.168 122.601 563.168 122.956C563.168 123.311 563.285 123.6 563.518 123.824C563.751 124.039 564.092 124.146 564.54 124.146C565.044 124.146 565.445 124.006 565.744 123.726C566.043 123.437 566.192 123.073 566.192 122.634V121.724ZM562.524 119.386V118.28C563.056 117.953 563.756 117.79 564.624 117.79C566.407 117.79 567.298 118.695 567.298 120.506V125H566.206V124.16C565.842 124.767 565.179 125.07 564.218 125.07C563.555 125.07 563.019 124.874 562.608 124.482C562.207 124.09 562.006 123.595 562.006 122.998C562.006 122.317 562.263 121.789 562.776 121.416C563.299 121.033 564.008 120.842 564.904 120.842H566.192V120.478C566.192 119.918 566.066 119.498 565.814 119.218C565.562 118.929 565.137 118.784 564.54 118.784C563.784 118.784 563.112 118.985 562.524 119.386ZM570.492 118.798V122.956C570.492 123.712 570.847 124.09 571.556 124.09C571.92 124.09 572.242 123.983 572.522 123.768V124.818C572.214 124.986 571.869 125.07 571.486 125.07C570.086 125.07 569.386 124.356 569.386 122.928V118.798H568.252V117.902H569.386V116.138H570.492V117.902H572.452V118.798H570.492Z" fill="#2B2B2B"/>
<g clip-path="url(#clip2_1124_4113)">
<path d="M464.845 170.2C463.029 167.817 460.629 165.934 457.895 164.75C457.412 164.55 457.245 164.117 457.195 163.9C457.095 163.467 457.195 163 457.495 162.65C459.295 160.484 460.379 157.634 460.379 155.017C460.379 149.867 456.195 145.684 451.045 145.684C445.895 145.684 441.712 149.867 441.712 155.017C441.712 157.634 442.795 160.484 444.595 162.65C444.879 163 444.995 163.467 444.895 163.9C444.845 164.134 444.679 164.55 444.195 164.75C441.462 165.934 439.045 167.817 437.229 170.2C436.779 170.784 436.895 171.617 437.479 172.067C437.729 172.25 438.012 172.334 438.279 172.334C438.679 172.334 439.079 172.15 439.345 171.8C440.879 169.784 442.912 168.184 445.245 167.184C446.379 166.7 447.195 165.717 447.479 164.5C447.779 163.25 447.479 161.917 446.645 160.917C445.245 159.234 444.379 156.967 444.379 154.984C444.379 151.3 447.362 148.317 451.045 148.317C454.729 148.317 457.712 151.3 457.712 154.984C457.712 156.967 456.845 159.234 455.445 160.917C454.145 162.467 452.595 163.317 451.045 163.317C450.312 163.317 449.712 163.917 449.712 164.65C449.712 165.384 450.312 165.984 451.045 165.984C452.329 165.984 453.595 165.617 454.762 164.934C455.129 165.934 455.845 166.75 456.845 167.167C459.162 168.167 461.195 169.767 462.745 171.784C463.012 172.134 463.412 172.317 463.812 172.317C464.095 172.317 464.379 172.234 464.612 172.05C465.195 171.6 465.312 170.767 464.862 170.184L464.845 170.2Z" fill="#2B2B2B"/>
</g>
<path d="M480.876 161.608H482.572C483.799 161.608 484.732 161.224 485.372 160.456C486.012 159.688 486.332 158.701 486.332 157.496C486.332 156.387 485.986 155.464 485.292 154.728C484.599 153.992 483.676 153.624 482.524 153.624H480.876V161.608ZM479.196 152.216H482.556C484.156 152.216 485.468 152.712 486.492 153.704C487.516 154.696 488.028 155.96 488.028 157.496C488.028 159.096 487.543 160.413 486.572 161.448C485.612 162.483 484.284 163 482.588 163H479.196V152.216ZM494.508 158.36V158.072C494.487 157.464 494.322 156.984 494.012 156.632C493.703 156.269 493.26 156.088 492.684 156.088C492.151 156.088 491.692 156.285 491.308 156.68C490.924 157.064 490.684 157.624 490.588 158.36H494.508ZM495.516 161.16V162.568C494.919 162.909 494.13 163.08 493.148 163.08C491.89 163.08 490.887 162.701 490.14 161.944C489.394 161.187 489.02 160.195 489.02 158.968C489.02 157.667 489.362 156.648 490.044 155.912C490.727 155.165 491.596 154.792 492.652 154.792C493.687 154.792 494.508 155.117 495.116 155.768C495.724 156.408 496.028 157.336 496.028 158.552C496.028 158.883 495.996 159.229 495.932 159.592H490.604C490.711 160.296 491.01 160.835 491.5 161.208C491.991 161.581 492.61 161.768 493.356 161.768C494.22 161.768 494.94 161.565 495.516 161.16ZM502.162 155.16V156.584C501.64 156.275 500.968 156.12 500.146 156.12C499.773 156.12 499.474 156.205 499.25 156.376C499.037 156.547 498.93 156.771 498.93 157.048C498.93 157.123 498.936 157.197 498.946 157.272C498.968 157.336 499 157.405 499.042 157.48C499.085 157.544 499.122 157.603 499.154 157.656C499.197 157.699 499.261 157.747 499.346 157.8C499.432 157.853 499.496 157.901 499.538 157.944C499.592 157.976 499.672 158.019 499.778 158.072C499.896 158.125 499.981 158.168 500.034 158.2C500.088 158.221 500.178 158.264 500.306 158.328C500.445 158.381 500.541 158.419 500.594 158.44C501.224 158.717 501.714 159.032 502.066 159.384C502.429 159.725 502.61 160.184 502.61 160.76C502.61 161.485 502.354 162.056 501.842 162.472C501.33 162.877 500.637 163.08 499.762 163.08C498.802 163.08 498.002 162.92 497.362 162.6V161.112C498.109 161.571 498.882 161.8 499.682 161.8C500.098 161.8 500.418 161.715 500.642 161.544C500.877 161.373 500.994 161.149 500.994 160.872C500.994 160.637 500.904 160.429 500.722 160.248C500.541 160.056 500.354 159.917 500.162 159.832C499.981 159.736 499.666 159.592 499.218 159.4C497.949 158.877 497.314 158.109 497.314 157.096C497.314 156.381 497.581 155.821 498.114 155.416C498.648 155.011 499.314 154.808 500.114 154.808C500.989 154.808 501.672 154.925 502.162 155.16ZM503.97 163V154.888H505.554V163H503.97ZM504.05 153.112C503.868 152.92 503.778 152.685 503.778 152.408C503.778 152.131 503.868 151.896 504.05 151.704C504.242 151.512 504.476 151.416 504.754 151.416C505.031 151.416 505.266 151.512 505.458 151.704C505.65 151.896 505.746 152.131 505.746 152.408C505.746 152.675 505.65 152.904 505.458 153.096C505.266 153.288 505.031 153.384 504.754 153.384C504.476 153.384 504.242 153.293 504.05 153.112ZM509.523 156.104V160.568C509.523 161.347 509.897 161.736 510.643 161.736C511.081 161.736 511.449 161.619 511.747 161.384V162.792C511.395 162.984 510.963 163.08 510.451 163.08C508.777 163.08 507.939 162.232 507.939 160.536V156.104H506.675V154.888H507.939V152.904H509.523V154.888H511.651V156.104H509.523ZM517.412 159.384H516.196C515.598 159.384 515.145 159.501 514.836 159.736C514.537 159.971 514.388 160.269 514.388 160.632C514.388 161.005 514.505 161.299 514.74 161.512C514.974 161.725 515.316 161.832 515.764 161.832C516.276 161.832 516.676 161.693 516.964 161.416C517.262 161.128 517.412 160.755 517.412 160.296V159.384ZM513.332 156.824V155.304C513.961 154.941 514.793 154.76 515.828 154.76C517.95 154.76 519.012 155.789 519.012 157.848V163H517.46V162.04C517.044 162.723 516.313 163.064 515.268 163.064C514.5 163.064 513.881 162.845 513.412 162.408C512.953 161.96 512.724 161.395 512.724 160.712C512.724 159.933 513.017 159.331 513.604 158.904C514.19 158.467 515.012 158.248 516.068 158.248H517.412V157.784C517.412 157.229 517.278 156.813 517.012 156.536C516.745 156.248 516.302 156.104 515.684 156.104C514.82 156.104 514.036 156.344 513.332 156.824ZM524.454 163V152.216H526.406L529.062 156.728C529.552 157.571 529.995 158.349 530.39 159.064C530.795 159.779 531.072 160.28 531.222 160.568L531.446 161.016C531.382 160.045 531.35 158.621 531.35 156.744V152.216H532.998V163H531.046L528.374 158.504C527.894 157.693 527.451 156.931 527.046 156.216C526.651 155.491 526.374 154.968 526.214 154.648L525.974 154.184C526.059 155.251 526.102 156.685 526.102 158.488V163H524.454ZM539.969 154.888H541.537V163H539.969V161.608C539.542 162.6 538.699 163.096 537.441 163.096C536.641 163.096 536.006 162.861 535.537 162.392C535.067 161.912 534.833 161.256 534.833 160.424V154.888H536.417V160.04C536.417 160.595 536.55 161.021 536.817 161.32C537.094 161.608 537.473 161.752 537.953 161.752C538.561 161.752 539.046 161.539 539.409 161.112C539.782 160.685 539.969 160.083 539.969 159.304V154.888ZM544.973 154.888V156.312C545.368 155.309 546.077 154.808 547.101 154.808C547.251 154.808 547.416 154.824 547.597 154.856V156.392C547.373 156.296 547.123 156.248 546.845 156.248C546.301 156.248 545.853 156.488 545.501 156.968C545.149 157.448 544.973 158.019 544.973 158.68V163H543.405V154.888H544.973ZM553.805 153.592V157.528H555.293C555.975 157.528 556.493 157.352 556.845 157C557.197 156.637 557.373 156.157 557.373 155.56C557.373 154.248 556.653 153.592 555.213 153.592H553.805ZM557.757 163L555.229 158.904H553.805V163H552.157V152.216H555.165C556.402 152.216 557.357 152.52 558.029 153.128C558.701 153.725 559.037 154.541 559.037 155.576C559.026 156.333 558.834 156.979 558.461 157.512C558.087 158.035 557.57 158.413 556.909 158.648L559.725 163H557.757ZM564.242 163.144C563.048 163.144 562.109 162.755 561.426 161.976C560.744 161.197 560.402 160.211 560.402 159.016C560.402 157.8 560.754 156.792 561.458 155.992C562.162 155.181 563.09 154.776 564.242 154.776C565.48 154.776 566.434 155.171 567.106 155.96C567.778 156.739 568.114 157.736 568.114 158.952C568.114 160.168 567.768 161.171 567.074 161.96C566.392 162.749 565.448 163.144 564.242 163.144ZM564.226 156.104C563.533 156.104 562.994 156.381 562.61 156.936C562.226 157.48 562.034 158.157 562.034 158.968C562.034 159.768 562.232 160.445 562.626 161C563.021 161.544 563.56 161.816 564.242 161.816C564.968 161.816 565.517 161.549 565.89 161.016C566.274 160.483 566.466 159.805 566.466 158.984C566.466 158.141 566.285 157.453 565.922 156.92C565.56 156.376 564.994 156.104 564.226 156.104ZM574.17 155.16V156.584C573.647 156.275 572.975 156.12 572.154 156.12C571.78 156.12 571.482 156.205 571.258 156.376C571.044 156.547 570.938 156.771 570.938 157.048C570.938 157.123 570.943 157.197 570.954 157.272C570.975 157.336 571.007 157.405 571.05 157.48C571.092 157.544 571.13 157.603 571.162 157.656C571.204 157.699 571.268 157.747 571.354 157.8C571.439 157.853 571.503 157.901 571.546 157.944C571.599 157.976 571.679 158.019 571.786 158.072C571.903 158.125 571.988 158.168 572.042 158.2C572.095 158.221 572.186 158.264 572.314 158.328C572.452 158.381 572.548 158.419 572.602 158.44C573.231 158.717 573.722 159.032 574.074 159.384C574.436 159.725 574.618 160.184 574.618 160.76C574.618 161.485 574.362 162.056 573.85 162.472C573.338 162.877 572.644 163.08 571.77 163.08C570.81 163.08 570.01 162.92 569.37 162.6V161.112C570.116 161.571 570.89 161.8 571.69 161.8C572.106 161.8 572.426 161.715 572.65 161.544C572.884 161.373 573.002 161.149 573.002 160.872C573.002 160.637 572.911 160.429 572.73 160.248C572.548 160.056 572.362 159.917 572.17 159.832C571.988 159.736 571.674 159.592 571.226 159.4C569.956 158.877 569.322 158.109 569.322 157.096C569.322 156.381 569.588 155.821 570.122 155.416C570.655 155.011 571.322 154.808 572.122 154.808C572.996 154.808 573.679 154.925 574.17 155.16ZM578.153 162.824L574.921 154.888H576.665L577.673 157.528L578.937 160.952C579.033 160.632 579.417 159.491 580.089 157.528L581.001 154.888H582.665L579.737 162.776C578.958 164.856 577.769 165.896 576.169 165.896C575.881 165.896 575.635 165.869 575.433 165.816V164.472C575.603 164.515 575.785 164.536 575.977 164.536C577.011 164.536 577.737 163.965 578.153 162.824ZM583.703 163V154.888H585.287V163H583.703ZM583.783 153.112C583.602 152.92 583.511 152.685 583.511 152.408C583.511 152.131 583.602 151.896 583.783 151.704C583.975 151.512 584.21 151.416 584.487 151.416C584.765 151.416 584.999 151.512 585.191 151.704C585.383 151.896 585.479 152.131 585.479 152.408C585.479 152.675 585.383 152.904 585.191 153.096C584.999 153.288 584.765 153.384 584.487 153.384C584.21 153.384 583.975 153.293 583.783 153.112ZM590.505 161.736C591.124 161.736 591.646 161.501 592.073 161.032C592.5 160.563 592.713 159.848 592.713 158.888C592.713 157.96 592.489 157.272 592.041 156.824C591.604 156.376 591.108 156.152 590.553 156.152C589.924 156.152 589.406 156.403 589.001 156.904C588.596 157.395 588.393 158.099 588.393 159.016C588.393 159.827 588.59 160.483 588.985 160.984C589.39 161.485 589.897 161.736 590.505 161.736ZM592.713 151.688H594.297V163H592.713V161.768C592.148 162.664 591.321 163.112 590.233 163.112C589.166 163.112 588.324 162.712 587.705 161.912C587.086 161.101 586.777 160.125 586.777 158.984C586.777 157.715 587.102 156.696 587.753 155.928C588.404 155.16 589.241 154.776 590.265 154.776C591.321 154.776 592.137 155.224 592.713 156.12V151.688ZM596.234 163V154.888H597.818V163H596.234ZM596.314 153.112C596.133 152.92 596.042 152.685 596.042 152.408C596.042 152.131 596.133 151.896 596.314 151.704C596.506 151.512 596.741 151.416 597.018 151.416C597.296 151.416 597.53 151.512 597.722 151.704C597.914 151.896 598.01 152.131 598.01 152.408C598.01 152.675 597.914 152.904 597.722 153.096C597.53 153.288 597.296 153.384 597.018 153.384C596.741 153.384 596.506 153.293 596.314 153.112ZM604.028 159.384H602.812C602.215 159.384 601.762 159.501 601.452 159.736C601.154 159.971 601.004 160.269 601.004 160.632C601.004 161.005 601.122 161.299 601.356 161.512C601.591 161.725 601.932 161.832 602.38 161.832C602.892 161.832 603.292 161.693 603.58 161.416C603.879 161.128 604.028 160.755 604.028 160.296V159.384ZM599.948 156.824V155.304C600.578 154.941 601.41 154.76 602.444 154.76C604.567 154.76 605.628 155.789 605.628 157.848V163H604.076V162.04C603.66 162.723 602.93 163.064 601.884 163.064C601.116 163.064 600.498 162.845 600.028 162.408C599.57 161.96 599.34 161.395 599.34 160.712C599.34 159.933 599.634 159.331 600.22 158.904C600.807 158.467 601.628 158.248 602.684 158.248H604.028V157.784C604.028 157.229 603.895 156.813 603.628 156.536C603.362 156.248 602.919 156.104 602.3 156.104C601.436 156.104 600.652 156.344 599.948 156.824ZM608.973 154.888V156.28C609.453 155.277 610.295 154.776 611.501 154.776C612.301 154.776 612.935 155.021 613.405 155.512C613.874 156.003 614.109 156.669 614.109 157.512V163H612.541V157.88C612.541 157.315 612.397 156.883 612.109 156.584C611.831 156.285 611.458 156.136 610.989 156.136C610.434 156.136 609.959 156.355 609.565 156.792C609.17 157.219 608.973 157.821 608.973 158.6V163H607.405V154.888H608.973ZM620.153 159.384H618.937C618.34 159.384 617.886 159.501 617.577 159.736C617.278 159.971 617.129 160.269 617.129 160.632C617.129 161.005 617.246 161.299 617.481 161.512C617.716 161.725 618.057 161.832 618.505 161.832C619.017 161.832 619.417 161.693 619.705 161.416C620.004 161.128 620.153 160.755 620.153 160.296V159.384ZM616.073 156.824V155.304C616.702 154.941 617.534 154.76 618.569 154.76C620.692 154.76 621.753 155.789 621.753 157.848V163H620.201V162.04C619.785 162.723 619.054 163.064 618.009 163.064C617.241 163.064 616.622 162.845 616.153 162.408C615.694 161.96 615.465 161.395 615.465 160.712C615.465 159.933 615.758 159.331 616.345 158.904C616.932 158.467 617.753 158.248 618.809 158.248H620.153V157.784C620.153 157.229 620.02 156.813 619.753 156.536C619.486 156.248 619.044 156.104 618.425 156.104C617.561 156.104 616.777 156.344 616.073 156.824Z" fill="#FF1934"/>
<rect x="469.028" y="203.5" width="116" height="31" rx="7.5" stroke="#D9AA16"/>
<path d="M479.747 216.592V220.528H481.235C481.918 220.528 482.435 220.352 482.787 220C483.139 219.637 483.315 219.157 483.315 218.56C483.315 217.248 482.595 216.592 481.155 216.592H479.747ZM483.699 226L481.171 221.904H479.747V226H478.099V215.216H481.107C482.344 215.216 483.299 215.52 483.971 216.128C484.643 216.725 484.979 217.541 484.979 218.576C484.968 219.333 484.776 219.979 484.403 220.512C484.03 221.035 483.512 221.413 482.851 221.648L485.667 226H483.699ZM490.537 224.736C491.166 224.736 491.683 224.491 492.089 224C492.494 223.499 492.697 222.8 492.697 221.904C492.697 221.061 492.499 220.395 492.105 219.904C491.71 219.403 491.209 219.152 490.601 219.152C489.993 219.152 489.465 219.376 489.017 219.824C488.579 220.261 488.361 220.96 488.361 221.92C488.361 222.859 488.579 223.563 489.017 224.032C489.465 224.501 489.971 224.736 490.537 224.736ZM488.361 217.888V219.136C488.915 218.229 489.747 217.776 490.857 217.776C491.923 217.776 492.766 218.165 493.385 218.944C494.003 219.712 494.313 220.693 494.313 221.888C494.313 223.115 493.993 224.128 493.353 224.928C492.723 225.717 491.881 226.112 490.825 226.112C489.747 226.112 488.926 225.664 488.361 224.768V229.104H486.793V217.888H488.361ZM498.492 218.768V217.088L501.1 215.536H502.524V226H500.972V217.248L498.492 218.768ZM506.073 224.64H510.617V226H503.913V224.704C505.257 223.723 506.388 222.709 507.305 221.664C508.233 220.608 508.697 219.648 508.697 218.784C508.697 218.176 508.521 217.712 508.169 217.392C507.817 217.061 507.332 216.896 506.713 216.896C505.86 216.896 505.022 217.216 504.201 217.856V216.304C504.969 215.717 505.881 215.424 506.937 215.424C507.918 215.424 508.729 215.701 509.369 216.256C510.009 216.8 510.329 217.579 510.329 218.592C510.329 220.469 508.91 222.485 506.073 224.64ZM511.595 220.736C511.595 219.093 511.92 217.792 512.571 216.832C513.232 215.861 514.133 215.376 515.275 215.376C516.437 215.376 517.349 215.856 518.011 216.816C518.672 217.776 519.003 219.083 519.003 220.736C519.003 222.368 518.677 223.675 518.027 224.656C517.387 225.637 516.469 226.128 515.275 226.128C514.133 226.128 513.232 225.637 512.571 224.656C511.92 223.675 511.595 222.368 511.595 220.736ZM513.787 217.856C513.392 218.528 513.195 219.488 513.195 220.736C513.195 221.984 513.387 222.955 513.771 223.648C514.165 224.331 514.667 224.672 515.275 224.672C515.936 224.672 516.453 224.331 516.827 223.648C517.2 222.965 517.387 221.995 517.387 220.736C517.387 219.467 517.189 218.501 516.795 217.84C516.411 217.168 515.904 216.832 515.275 216.832C514.677 216.832 514.181 217.173 513.787 217.856ZM519.193 227.984L520.729 224.24H522.665L520.569 227.984H519.193ZM523.563 220.736C523.563 219.093 523.889 217.792 524.539 216.832C525.201 215.861 526.102 215.376 527.243 215.376C528.406 215.376 529.318 215.856 529.979 216.816C530.641 217.776 530.971 219.083 530.971 220.736C530.971 222.368 530.646 223.675 529.995 224.656C529.355 225.637 528.438 226.128 527.243 226.128C526.102 226.128 525.201 225.637 524.539 224.656C523.889 223.675 523.563 222.368 523.563 220.736ZM525.755 217.856C525.361 218.528 525.163 219.488 525.163 220.736C525.163 221.984 525.355 222.955 525.739 223.648C526.134 224.331 526.635 224.672 527.243 224.672C527.905 224.672 528.422 224.331 528.795 223.648C529.169 222.965 529.355 221.995 529.355 220.736C529.355 219.467 529.158 218.501 528.763 217.84C528.379 217.168 527.873 216.832 527.243 216.832C526.646 216.832 526.15 217.173 525.755 217.856ZM531.946 220.736C531.946 219.093 532.271 217.792 532.922 216.832C533.583 215.861 534.485 215.376 535.626 215.376C536.789 215.376 537.701 215.856 538.362 216.816C539.023 217.776 539.354 219.083 539.354 220.736C539.354 222.368 539.029 223.675 538.378 224.656C537.738 225.637 536.821 226.128 535.626 226.128C534.485 226.128 533.583 225.637 532.922 224.656C532.271 223.675 531.946 222.368 531.946 220.736ZM534.138 217.856C533.743 218.528 533.546 219.488 533.546 220.736C533.546 221.984 533.738 222.955 534.122 223.648C534.517 224.331 535.018 224.672 535.626 224.672C536.287 224.672 536.805 224.331 537.178 223.648C537.551 222.965 537.738 221.995 537.738 220.736C537.738 219.467 537.541 218.501 537.146 217.84C536.762 217.168 536.255 216.832 535.626 216.832C535.029 216.832 534.533 217.173 534.138 217.856ZM540.329 220.736C540.329 219.093 540.654 217.792 541.305 216.832C541.966 215.861 542.867 215.376 544.009 215.376C545.171 215.376 546.083 215.856 546.745 216.816C547.406 217.776 547.737 219.083 547.737 220.736C547.737 222.368 547.411 223.675 546.761 224.656C546.121 225.637 545.203 226.128 544.009 226.128C542.867 226.128 541.966 225.637 541.305 224.656C540.654 223.675 540.329 222.368 540.329 220.736ZM542.521 217.856C542.126 218.528 541.929 219.488 541.929 220.736C541.929 221.984 542.121 222.955 542.505 223.648C542.899 224.331 543.401 224.672 544.009 224.672C544.67 224.672 545.187 224.331 545.561 223.648C545.934 222.965 546.121 221.995 546.121 220.736C546.121 219.467 545.923 218.501 545.529 217.84C545.145 217.168 544.638 216.832 544.009 216.832C543.411 216.832 542.915 217.173 542.521 217.856ZM547.927 227.984L549.463 224.24H551.399L549.303 227.984H547.927ZM552.297 220.736C552.297 219.093 552.623 217.792 553.273 216.832C553.935 215.861 554.836 215.376 555.977 215.376C557.14 215.376 558.052 215.856 558.713 216.816C559.375 217.776 559.705 219.083 559.705 220.736C559.705 222.368 559.38 223.675 558.729 224.656C558.089 225.637 557.172 226.128 555.977 226.128C554.836 226.128 553.935 225.637 553.273 224.656C552.623 223.675 552.297 222.368 552.297 220.736ZM554.489 217.856C554.095 218.528 553.897 219.488 553.897 220.736C553.897 221.984 554.089 222.955 554.473 223.648C554.868 224.331 555.369 224.672 555.977 224.672C556.639 224.672 557.156 224.331 557.529 223.648C557.903 222.965 558.089 221.995 558.089 220.736C558.089 219.467 557.892 218.501 557.497 217.84C557.113 217.168 556.607 216.832 555.977 216.832C555.38 216.832 554.884 217.173 554.489 217.856ZM560.68 220.736C560.68 219.093 561.005 217.792 561.656 216.832C562.317 215.861 563.219 215.376 564.36 215.376C565.523 215.376 566.435 215.856 567.096 216.816C567.757 217.776 568.088 219.083 568.088 220.736C568.088 222.368 567.763 223.675 567.112 224.656C566.472 225.637 565.555 226.128 564.36 226.128C563.219 226.128 562.317 225.637 561.656 224.656C561.005 223.675 560.68 222.368 560.68 220.736ZM562.872 217.856C562.477 218.528 562.28 219.488 562.28 220.736C562.28 221.984 562.472 222.955 562.856 223.648C563.251 224.331 563.752 224.672 564.36 224.672C565.021 224.672 565.539 224.331 565.912 223.648C566.285 222.965 566.472 221.995 566.472 220.736C566.472 219.467 566.275 218.501 565.88 217.84C565.496 217.168 564.989 216.832 564.36 216.832C563.763 216.832 563.267 217.173 562.872 217.856ZM569.063 220.736C569.063 219.093 569.388 217.792 570.039 216.832C570.7 215.861 571.601 215.376 572.743 215.376C573.905 215.376 574.817 215.856 575.479 216.816C576.14 217.776 576.471 219.083 576.471 220.736C576.471 222.368 576.145 223.675 575.495 224.656C574.855 225.637 573.937 226.128 572.743 226.128C571.601 226.128 570.7 225.637 570.039 224.656C569.388 223.675 569.063 222.368 569.063 220.736ZM571.255 217.856C570.86 218.528 570.663 219.488 570.663 220.736C570.663 221.984 570.855 222.955 571.239 223.648C571.633 224.331 572.135 224.672 572.743 224.672C573.404 224.672 573.921 224.331 574.295 223.648C574.668 222.965 574.855 221.995 574.855 220.736C574.855 219.467 574.657 218.501 574.263 217.84C573.879 217.168 573.372 216.832 572.743 216.832C572.145 216.832 571.649 217.173 571.255 217.856Z" fill="#2B2B2B"/>
<rect x="503.528" y="196" width="47" height="14" rx="7" fill="#D9AA16"/>
<path d="M513.392 199.608V200.176H511.936V205H511.288V200.176H509.832V199.608H513.392ZM515.78 205.072C515.199 205.072 514.737 204.877 514.396 204.488C514.06 204.093 513.892 203.597 513.892 203C513.892 202.397 514.065 201.896 514.412 201.496C514.764 201.091 515.22 200.888 515.78 200.888C516.393 200.888 516.865 201.085 517.196 201.48C517.532 201.875 517.7 202.376 517.7 202.984C517.7 203.587 517.529 204.085 517.188 204.48C516.847 204.875 516.377 205.072 515.78 205.072ZM515.78 201.448C515.396 201.448 515.095 201.597 514.876 201.896C514.657 202.195 514.548 202.56 514.548 202.992C514.548 203.413 514.66 203.773 514.884 204.072C515.108 204.365 515.407 204.512 515.78 204.512C516.185 204.512 516.497 204.368 516.716 204.08C516.935 203.787 517.044 203.424 517.044 202.992C517.044 202.544 516.94 202.176 516.732 201.888C516.524 201.595 516.207 201.448 515.78 201.448ZM519.496 201.456V203.832C519.496 204.264 519.699 204.48 520.104 204.48C520.312 204.48 520.496 204.419 520.656 204.296V204.896C520.48 204.992 520.283 205.04 520.064 205.04C519.264 205.04 518.864 204.632 518.864 203.816V201.456H518.216V200.944H518.864V199.936H519.496V200.944H520.616V201.456H519.496ZM523.761 203.128H523.057C522.716 203.128 522.46 203.195 522.289 203.328C522.118 203.461 522.033 203.629 522.033 203.832C522.033 204.035 522.1 204.2 522.233 204.328C522.366 204.451 522.561 204.512 522.817 204.512C523.105 204.512 523.334 204.432 523.505 204.272C523.676 204.107 523.761 203.899 523.761 203.648V203.128ZM521.665 201.792V201.16C521.969 200.973 522.369 200.88 522.865 200.88C523.884 200.88 524.393 201.397 524.393 202.432V205H523.769V204.52C523.561 204.867 523.182 205.04 522.633 205.04C522.254 205.04 521.948 204.928 521.713 204.704C521.484 204.48 521.369 204.197 521.369 203.856C521.369 203.467 521.516 203.165 521.809 202.952C522.108 202.733 522.513 202.624 523.025 202.624H523.761V202.416C523.761 202.096 523.689 201.856 523.545 201.696C523.401 201.531 523.158 201.448 522.817 201.448C522.385 201.448 522.001 201.563 521.665 201.792ZM525.547 205V199.344H526.179V205H525.547ZM530.391 203.032H532.303L532.199 202.72L531.359 200.128C531.295 200.357 531.007 201.224 530.495 202.728L530.391 203.032ZM532.959 205L532.487 203.584H530.207L529.727 205H529.031L530.911 199.608H531.807L533.655 205H532.959ZM536.73 201.08V201.68C536.485 201.531 536.149 201.456 535.722 201.456C535.509 201.456 535.338 201.507 535.21 201.608C535.088 201.704 535.026 201.829 535.026 201.984C535.026 202.08 535.045 202.165 535.082 202.24C535.12 202.309 535.192 202.379 535.298 202.448C535.41 202.517 535.49 202.565 535.538 202.592C535.592 202.613 535.704 202.661 535.874 202.736C536.216 202.875 536.482 203.032 536.674 203.208C536.866 203.384 536.962 203.621 536.962 203.92C536.962 204.267 536.84 204.541 536.594 204.744C536.354 204.947 536.024 205.048 535.602 205.048C535.112 205.048 534.714 204.965 534.41 204.8V204.184C534.768 204.397 535.152 204.504 535.562 204.504C535.808 204.504 535.994 204.456 536.122 204.36C536.25 204.264 536.314 204.133 536.314 203.968C536.314 203.776 536.242 203.627 536.098 203.52C535.96 203.413 535.725 203.293 535.394 203.16C535.09 203.043 534.845 202.896 534.658 202.72C534.477 202.544 534.386 202.307 534.386 202.008C534.386 201.672 534.512 201.405 534.762 201.208C535.018 201.005 535.336 200.904 535.714 200.904C536.136 200.904 536.474 200.963 536.73 201.08ZM540.403 202.712V202.552C540.403 202.216 540.313 201.949 540.131 201.752C539.95 201.549 539.699 201.448 539.379 201.448C539.075 201.448 538.817 201.557 538.603 201.776C538.39 201.995 538.265 202.307 538.227 202.712H540.403ZM540.779 204.2V204.792C540.465 204.957 540.081 205.04 539.627 205.04C539.014 205.04 538.518 204.853 538.139 204.48C537.766 204.101 537.579 203.603 537.579 202.984C537.579 202.339 537.747 201.829 538.083 201.456C538.419 201.083 538.851 200.896 539.379 200.896C539.886 200.896 540.289 201.059 540.587 201.384C540.886 201.709 541.035 202.171 541.035 202.768C541.035 202.939 541.022 203.096 540.995 203.24H538.227C538.275 203.64 538.427 203.947 538.683 204.16C538.939 204.373 539.275 204.48 539.691 204.48C540.145 204.48 540.507 204.387 540.779 204.2ZM542.871 201.456V203.832C542.871 204.264 543.074 204.48 543.479 204.48C543.687 204.48 543.871 204.419 544.031 204.296V204.896C543.855 204.992 543.658 205.04 543.439 205.04C542.639 205.04 542.239 204.632 542.239 203.816V201.456H541.591V200.944H542.239V199.936H542.871V200.944H543.991V201.456H542.871Z" fill="white"/>
<rect x="497.028" y="243" width="60" height="22" rx="8" fill="white"/>
<path d="M506.706 251.44L506.706 253.2L507.378 253.2C507.687 253.2 507.919 253.123 508.074 252.968C508.228 252.808 508.306 252.587 508.306 252.304C508.306 252.027 508.223 251.813 508.058 251.664C507.898 251.515 507.666 251.44 507.362 251.44L506.706 251.44ZM508.482 256L507.258 254.032L506.706 254.032L506.706 256L505.698 256L505.698 250.608L507.362 250.608C507.975 250.608 508.455 250.763 508.802 251.072C509.154 251.381 509.33 251.795 509.33 252.312C509.324 252.696 509.231 253.021 509.05 253.288C508.868 253.549 508.62 253.744 508.306 253.872L509.69 256L508.482 256ZM510.409 256L510.409 251.944L511.369 251.944L511.369 256L510.409 256ZM510.313 250.728C510.313 250.568 510.369 250.432 510.481 250.32C510.593 250.208 510.729 250.152 510.889 250.152C511.049 250.152 511.185 250.208 511.297 250.32C511.409 250.432 511.465 250.568 511.465 250.728C511.465 250.893 511.409 251.032 511.297 251.144C511.185 251.256 511.049 251.312 510.889 251.312C510.729 251.312 510.593 251.256 510.481 251.144C510.369 251.032 510.313 250.893 510.313 250.728ZM513.407 251.944L513.407 252.64C513.636 252.144 514.052 251.896 514.655 251.896C515.06 251.896 515.38 252.019 515.615 252.264C515.849 252.509 515.967 252.856 515.967 253.304L515.967 256L515.007 256L515.007 253.504C515.007 253.237 514.943 253.037 514.815 252.904C514.687 252.765 514.513 252.696 514.295 252.696C514.044 252.696 513.833 252.795 513.663 252.992C513.492 253.184 513.407 253.461 513.407 253.824L513.407 256L512.447 256L512.447 251.944L513.407 251.944ZM517.738 253.984C517.749 254.368 517.864 254.677 518.082 254.912C518.306 255.147 518.608 255.264 518.986 255.264C519.317 255.264 519.624 255.173 519.906 254.992L519.906 255.824C519.624 255.989 519.272 256.072 518.85 256.072C518.226 256.072 517.72 255.875 517.33 255.48C516.946 255.085 516.754 254.587 516.754 253.984C516.76 253.392 516.952 252.893 517.33 252.488C517.714 252.083 518.237 251.88 518.898 251.88C519.293 251.88 519.629 251.955 519.906 252.104L519.906 252.952C519.64 252.781 519.336 252.696 518.994 252.696C518.621 252.696 518.32 252.813 518.09 253.048C517.861 253.283 517.744 253.595 517.738 253.984ZM520.768 256L520.768 251.944L521.728 251.944L521.728 256L520.768 256ZM520.672 250.728C520.672 250.568 520.728 250.432 520.84 250.32C520.952 250.208 521.088 250.152 521.248 250.152C521.408 250.152 521.544 250.208 521.656 250.32C521.768 250.432 521.824 250.568 521.824 250.728C521.824 250.893 521.768 251.032 521.656 251.144C521.544 251.256 521.408 251.312 521.248 251.312C521.088 251.312 520.952 251.256 520.84 251.144C520.728 251.032 520.672 250.893 520.672 250.728ZM524.878 254.256L524.382 254.256C524.131 254.256 523.939 254.309 523.806 254.416C523.673 254.517 523.606 254.648 523.606 254.808C523.606 255.149 523.803 255.32 524.198 255.32C524.411 255.32 524.577 255.259 524.694 255.136C524.817 255.008 524.878 254.843 524.878 254.64L524.878 254.256ZM522.91 253.04L522.91 252.152C523.214 251.965 523.651 251.872 524.222 251.872C525.321 251.872 525.87 252.384 525.87 253.408L525.87 256L524.918 256L524.918 255.512C524.731 255.859 524.379 256.032 523.862 256.032C523.478 256.032 523.171 255.92 522.942 255.696C522.718 255.472 522.606 255.189 522.606 254.848C522.606 254.464 522.75 254.163 523.038 253.944C523.326 253.725 523.742 253.616 524.286 253.616L524.878 253.616L524.878 253.368C524.878 253.144 524.819 252.973 524.702 252.856C524.585 252.739 524.385 252.68 524.102 252.68C523.67 252.68 523.273 252.8 522.91 253.04ZM527.821 251.944L527.821 252.64C528.05 252.144 528.466 251.896 529.069 251.896C529.474 251.896 529.794 252.019 530.029 252.264C530.263 252.509 530.381 252.856 530.381 253.304L530.381 256L529.421 256L529.421 253.504C529.421 253.237 529.357 253.037 529.229 252.904C529.101 252.765 528.927 252.696 528.709 252.696C528.458 252.696 528.247 252.795 528.077 252.992C527.906 253.184 527.821 253.461 527.821 253.824L527.821 256L526.861 256L526.861 251.944L527.821 251.944ZM534.777 253.952L536.297 253.952L536.225 253.712C536.043 253.136 535.894 252.653 535.777 252.264C535.665 251.869 535.595 251.621 535.569 251.52L535.537 251.36C535.489 251.627 535.259 252.413 534.849 253.72L534.777 253.952ZM536.937 256L536.553 254.776L534.513 254.776L534.129 256L533.073 256L534.897 250.608L536.201 250.608L538.025 256L536.937 256ZM541.183 252.072L541.183 252.92C540.917 252.76 540.583 252.68 540.183 252.68C540.018 252.68 539.887 252.717 539.791 252.792C539.701 252.861 539.655 252.952 539.655 253.064C539.655 253.107 539.661 253.147 539.671 253.184C539.687 253.221 539.711 253.259 539.743 253.296C539.781 253.328 539.815 253.357 539.847 253.384C539.879 253.411 539.925 253.44 539.983 253.472C540.042 253.499 540.093 253.523 540.135 253.544C540.178 253.565 540.237 253.592 540.311 253.624C540.386 253.656 540.445 253.683 540.487 253.704C540.77 253.843 540.994 253.997 541.159 254.168C541.325 254.339 541.407 254.56 541.407 254.832C541.407 255.211 541.271 255.507 540.999 255.72C540.727 255.933 540.365 256.04 539.911 256.04C539.41 256.04 539.005 255.957 538.695 255.792L538.695 254.912C539.053 255.152 539.439 255.272 539.855 255.272C540.031 255.272 540.167 255.24 540.263 255.176C540.365 255.107 540.415 255.013 540.415 254.896C540.415 254.827 540.399 254.765 540.367 254.712C540.335 254.653 540.274 254.597 540.183 254.544C540.093 254.491 540.021 254.453 539.967 254.432C539.919 254.405 539.821 254.36 539.671 254.296C539.655 254.291 539.642 254.285 539.631 254.28C539.626 254.275 539.615 254.269 539.599 254.264C539.583 254.259 539.57 254.253 539.559 254.248C538.967 253.981 538.671 253.597 538.671 253.096C538.671 252.723 538.813 252.429 539.095 252.216C539.378 252.003 539.733 251.896 540.159 251.896C540.57 251.896 540.911 251.955 541.183 252.072ZM544.613 253.64L544.613 253.52C544.603 253.259 544.531 253.051 544.397 252.896C544.269 252.736 544.08 252.656 543.829 252.656C543.6 252.656 543.4 252.741 543.229 252.912C543.064 253.077 542.957 253.32 542.909 253.64L544.613 253.64ZM545.269 254.944L545.269 255.776C544.987 255.952 544.579 256.04 544.045 256.04C543.4 256.04 542.891 255.848 542.517 255.464C542.144 255.08 541.957 254.584 541.957 253.976C541.957 253.331 542.133 252.824 542.485 252.456C542.837 252.088 543.277 251.904 543.805 251.904C544.333 251.904 544.752 252.064 545.061 252.384C545.371 252.704 545.525 253.171 545.525 253.784C545.525 253.933 545.507 254.125 545.469 254.36L542.925 254.36C542.995 254.653 543.139 254.877 543.357 255.032C543.581 255.187 543.859 255.264 544.189 255.264C544.616 255.264 544.976 255.157 545.269 254.944ZM547.576 252.664L547.576 254.728C547.576 254.899 547.621 255.029 547.712 255.12C547.802 255.205 547.928 255.248 548.088 255.248C548.29 255.248 548.477 255.192 548.648 255.08L548.648 255.904C548.461 255.995 548.221 256.04 547.928 256.04C547.053 256.04 546.616 255.597 546.616 254.712L546.616 252.664L546.008 252.664L546.008 251.944L546.616 251.944L546.616 250.968L547.576 250.968L547.576 251.944L548.584 251.944L548.584 252.664L547.576 252.664Z" fill="#2B2B2B"/>
<g filter="url(#filter0_d_1124_4113)">
<rect x="282.674" y="313" width="103" height="22" rx="8" fill="white" shape-rendering="crispEdges"/>
<path d="M291.328 326L291.328 320.608L292.336 320.608L292.336 326L291.328 326ZM293.616 323.312L295.624 326L294.352 326L292.416 323.328L294.28 320.608L295.488 320.608L293.616 323.312ZM298.751 323.64L298.751 323.52C298.74 323.259 298.668 323.051 298.535 322.896C298.407 322.736 298.218 322.656 297.967 322.656C297.738 322.656 297.538 322.741 297.367 322.912C297.202 323.077 297.095 323.32 297.047 323.64L298.751 323.64ZM299.407 324.944L299.407 325.776C299.124 325.952 298.716 326.04 298.183 326.04C297.538 326.04 297.028 325.848 296.655 325.464C296.282 325.08 296.095 324.584 296.095 323.976C296.095 323.331 296.271 322.824 296.623 322.456C296.975 322.088 297.415 321.904 297.943 321.904C298.471 321.904 298.89 322.064 299.199 322.384C299.508 322.704 299.663 323.171 299.663 323.784C299.663 323.933 299.644 324.125 299.607 324.36L297.063 324.36C297.132 324.653 297.276 324.877 297.495 325.032C297.719 325.187 297.996 325.264 298.327 325.264C298.754 325.264 299.114 325.157 299.407 324.944ZM301.505 321.944L301.505 322.584C301.735 322.125 302.116 321.896 302.649 321.896C303.241 321.896 303.625 322.152 303.801 322.664C303.908 322.419 304.068 322.229 304.281 322.096C304.495 321.963 304.737 321.896 305.009 321.896C305.42 321.896 305.737 322.021 305.961 322.272C306.185 322.517 306.297 322.869 306.297 323.328L306.297 326L305.329 326L305.329 323.512C305.329 322.968 305.121 322.696 304.705 322.696C304.497 322.696 304.311 322.787 304.145 322.968C303.985 323.149 303.905 323.435 303.905 323.824L303.905 326L302.937 326L302.937 323.512C302.937 322.968 302.729 322.696 302.313 322.696C302.105 322.696 301.919 322.787 301.753 322.968C301.588 323.149 301.505 323.435 301.505 323.824L301.505 326L300.545 326L300.545 321.944L301.505 321.944ZM309.272 325.232C309.549 325.232 309.781 325.117 309.968 324.888C310.154 324.659 310.248 324.36 310.248 323.992C310.248 323.587 310.152 323.272 309.96 323.048C309.773 322.819 309.541 322.704 309.264 322.704C309.002 322.704 308.77 322.808 308.568 323.016C308.365 323.219 308.264 323.525 308.264 323.936C308.264 324.357 308.36 324.68 308.552 324.904C308.744 325.123 308.984 325.232 309.272 325.232ZM308.264 320.344L308.264 322.56C308.546 322.112 308.952 321.888 309.48 321.888C309.986 321.888 310.402 322.077 310.728 322.456C311.058 322.829 311.224 323.336 311.224 323.976C311.224 324.552 311.066 325.043 310.752 325.448C310.442 325.853 310.021 326.056 309.488 326.056C308.954 326.056 308.546 325.829 308.264 325.376L308.264 326L307.296 326L307.296 320.344L308.264 320.344ZM314.117 324.256L313.621 324.256C313.371 324.256 313.179 324.309 313.045 324.416C312.912 324.517 312.845 324.648 312.845 324.808C312.845 325.149 313.043 325.32 313.437 325.32C313.651 325.32 313.816 325.259 313.933 325.136C314.056 325.008 314.117 324.843 314.117 324.64L314.117 324.256ZM312.149 323.04L312.149 322.152C312.453 321.965 312.891 321.872 313.461 321.872C314.56 321.872 315.109 322.384 315.109 323.408L315.109 326L314.157 326L314.157 325.512C313.971 325.859 313.619 326.032 313.101 326.032C312.717 326.032 312.411 325.92 312.181 325.696C311.957 325.472 311.845 325.189 311.845 324.848C311.845 324.464 311.989 324.163 312.277 323.944C312.565 323.725 312.981 323.616 313.525 323.616L314.117 323.616L314.117 323.368C314.117 323.144 314.059 322.973 313.941 322.856C313.824 322.739 313.624 322.68 313.341 322.68C312.909 322.68 312.512 322.8 312.149 323.04ZM316.14 326L316.14 320.344L317.1 320.344L317.1 326L316.14 326ZM318.218 326L318.218 321.944L319.178 321.944L319.178 326L318.218 326ZM318.122 320.728C318.122 320.568 318.178 320.432 318.29 320.32C318.402 320.208 318.538 320.152 318.698 320.152C318.858 320.152 318.994 320.208 319.106 320.32C319.218 320.432 319.274 320.568 319.274 320.728C319.274 320.893 319.218 321.032 319.106 321.144C318.994 321.256 318.858 321.312 318.698 321.312C318.538 321.312 318.402 321.256 318.29 321.144C318.178 321.032 318.122 320.893 318.122 320.728ZM325.785 326L324.657 326L323.201 323.904L323.201 326L322.241 326L322.241 320.44L323.201 320.44L323.201 323.848L324.633 321.944L325.753 321.944L324.265 323.88L325.785 326ZM328.86 323.64L328.86 323.52C328.85 323.259 328.778 323.051 328.644 322.896C328.516 322.736 328.327 322.656 328.076 322.656C327.847 322.656 327.647 322.741 327.476 322.912C327.311 323.077 327.204 323.32 327.156 323.64L328.86 323.64ZM329.516 324.944L329.516 325.776C329.234 325.952 328.826 326.04 328.292 326.04C327.647 326.04 327.138 325.848 326.764 325.464C326.391 325.08 326.204 324.584 326.204 323.976C326.204 323.331 326.38 322.824 326.732 322.456C327.084 322.088 327.524 321.904 328.052 321.904C328.58 321.904 328.999 322.064 329.308 322.384C329.618 322.704 329.772 323.171 329.772 323.784C329.772 323.933 329.754 324.125 329.716 324.36L327.172 324.36C327.242 324.653 327.386 324.877 327.604 325.032C327.828 325.187 328.106 325.264 328.436 325.264C328.863 325.264 329.223 325.157 329.516 324.944ZM332.583 326L333.015 320.608L334.167 320.608L334.903 322.568C335.031 322.899 335.151 323.229 335.263 323.56C335.375 323.885 335.455 324.128 335.503 324.288L335.575 324.536C335.74 323.981 335.97 323.325 336.263 322.568L337.015 320.608L338.167 320.608L338.695 326L337.687 326L337.495 323.896L337.351 322.008C337.159 322.557 336.93 323.187 336.663 323.896L335.911 325.92L335.223 325.92L334.487 323.896L333.855 322.032C333.855 322.293 333.82 322.915 333.751 323.896L333.591 326L332.583 326ZM342.118 323.64L342.118 323.52C342.108 323.259 342.036 323.051 341.902 322.896C341.774 322.736 341.585 322.656 341.334 322.656C341.105 322.656 340.905 322.741 340.734 322.912C340.569 323.077 340.462 323.32 340.414 323.64L342.118 323.64ZM342.774 324.944L342.774 325.776C342.492 325.952 342.084 326.04 341.55 326.04C340.905 326.04 340.396 325.848 340.022 325.464C339.649 325.08 339.462 324.584 339.462 323.976C339.462 323.331 339.638 322.824 339.99 322.456C340.342 322.088 340.782 321.904 341.31 321.904C341.838 321.904 342.257 322.064 342.566 322.384C342.876 322.704 343.03 323.171 343.03 323.784C343.03 323.933 343.012 324.125 342.974 324.36L340.43 324.36C340.5 324.653 340.644 324.877 340.862 325.032C341.086 325.187 341.364 325.264 341.694 325.264C342.121 325.264 342.481 325.157 342.774 324.944ZM344.873 321.944L344.873 322.64C345.102 322.144 345.518 321.896 346.121 321.896C346.526 321.896 346.846 322.019 347.081 322.264C347.315 322.509 347.433 322.856 347.433 323.304L347.433 326L346.473 326L346.473 323.504C346.473 323.237 346.409 323.037 346.281 322.904C346.153 322.765 345.979 322.696 345.761 322.696C345.51 322.696 345.299 322.795 345.129 322.992C344.958 323.184 344.873 323.461 344.873 323.824L344.873 326L343.913 326L343.913 321.944L344.873 321.944ZM350.948 321.944L351.916 321.944L351.916 326L350.948 326L350.948 325.336C350.735 325.805 350.319 326.04 349.7 326.04C349.289 326.04 348.969 325.923 348.74 325.688C348.511 325.453 348.396 325.12 348.396 324.688L348.396 321.944L349.356 321.944L349.356 324.464C349.356 324.72 349.417 324.915 349.54 325.048C349.668 325.181 349.841 325.248 350.06 325.248C350.337 325.248 350.553 325.155 350.708 324.968C350.868 324.781 350.948 324.499 350.948 324.12L350.948 321.944ZM358.16 323.936L358.16 320.608L359.168 320.608L359.168 323.928C359.168 324.627 358.978 325.16 358.6 325.528C358.226 325.891 357.712 326.072 357.056 326.072C356.416 326.072 355.904 325.893 355.52 325.536C355.141 325.173 354.952 324.656 354.952 323.984L354.952 320.608L355.96 320.608L355.96 323.976C355.96 324.387 356.061 324.685 356.264 324.872C356.466 325.053 356.73 325.144 357.056 325.144C357.792 325.144 358.16 324.741 358.16 323.936ZM361.385 322.664L361.385 324.728C361.385 324.899 361.431 325.029 361.521 325.12C361.612 325.205 361.737 325.248 361.897 325.248C362.1 325.248 362.287 325.192 362.457 325.08L362.457 325.904C362.271 325.995 362.031 326.04 361.737 326.04C360.863 326.04 360.425 325.597 360.425 324.712L360.425 322.664L359.817 322.664L359.817 321.944L360.425 321.944L360.425 320.968L361.385 320.968L361.385 321.944L362.393 321.944L362.393 322.664L361.385 322.664ZM365.321 324.256L364.825 324.256C364.574 324.256 364.382 324.309 364.249 324.416C364.115 324.517 364.049 324.648 364.049 324.808C364.049 325.149 364.246 325.32 364.641 325.32C364.854 325.32 365.019 325.259 365.137 325.136C365.259 325.008 365.321 324.843 365.321 324.64L365.321 324.256ZM363.353 323.04L363.353 322.152C363.657 321.965 364.094 321.872 364.665 321.872C365.763 321.872 366.313 322.384 366.313 323.408L366.313 326L365.361 326L365.361 325.512C365.174 325.859 364.822 326.032 364.305 326.032C363.921 326.032 363.614 325.92 363.385 325.696C363.161 325.472 363.049 325.189 363.049 324.848C363.049 324.464 363.193 324.163 363.481 323.944C363.769 323.725 364.185 323.616 364.729 323.616L365.321 323.616L365.321 323.368C365.321 323.144 365.262 322.973 365.145 322.856C365.027 322.739 364.827 322.68 364.545 322.68C364.113 322.68 363.715 322.8 363.353 323.04ZM368.263 321.944L368.263 322.584C368.493 322.125 368.874 321.896 369.407 321.896C369.999 321.896 370.383 322.152 370.559 322.664C370.666 322.419 370.826 322.229 371.039 322.096C371.253 321.963 371.495 321.896 371.767 321.896C372.178 321.896 372.495 322.021 372.719 322.272C372.943 322.517 373.055 322.869 373.055 323.328L373.055 326L372.087 326L372.087 323.512C372.087 322.968 371.879 322.696 371.463 322.696C371.255 322.696 371.069 322.787 370.903 322.968C370.743 323.149 370.663 323.435 370.663 323.824L370.663 326L369.695 326L369.695 323.512C369.695 322.968 369.487 322.696 369.071 322.696C368.863 322.696 368.677 322.787 368.511 322.968C368.346 323.149 368.263 323.435 368.263 323.824L368.263 326L367.303 326L367.303 321.944L368.263 321.944ZM376.117 324.256L375.621 324.256C375.371 324.256 375.179 324.309 375.045 324.416C374.912 324.517 374.845 324.648 374.845 324.808C374.845 325.149 375.043 325.32 375.437 325.32C375.651 325.32 375.816 325.259 375.933 325.136C376.056 325.008 376.117 324.843 376.117 324.64L376.117 324.256ZM374.149 323.04L374.149 322.152C374.453 321.965 374.891 321.872 375.461 321.872C376.56 321.872 377.109 322.384 377.109 323.408L377.109 326L376.157 326L376.157 325.512C375.971 325.859 375.619 326.032 375.101 326.032C374.717 326.032 374.411 325.92 374.181 325.696C373.957 325.472 373.845 325.189 373.845 324.848C373.845 324.464 373.989 324.163 374.277 323.944C374.565 323.725 374.981 323.616 375.525 323.616L376.117 323.616L376.117 323.368C376.117 323.144 376.059 322.973 375.941 322.856C375.824 322.739 375.624 322.68 375.341 322.68C374.909 322.68 374.512 322.8 374.149 323.04Z" fill="#2B2B2B"/>
</g>
<g filter="url(#filter1_d_1124_4113)">
<rect x="393.674" y="313" width="125" height="24" rx="8" fill="#FF1934" shape-rendering="crispEdges"/>
<g clip-path="url(#clip3_1124_4113)">
<path d="M409.674 331.666C406 331.666 403.007 328.673 403.007 325C403.007 321.326 406 318.333 409.674 318.333C413.347 318.333 416.34 321.326 416.34 325C416.34 328.673 413.347 331.666 409.674 331.666Z" fill="white"/>
<path d="M409.121 328.2C408.994 328.2 408.861 328.154 408.761 328.06C408.541 327.86 408.527 327.527 408.727 327.307L410.761 325.094C410.807 325.04 410.807 324.967 410.761 324.914L408.727 322.7C408.527 322.48 408.541 322.147 408.761 321.947C408.981 321.747 409.314 321.76 409.514 321.98L411.547 324.194C411.974 324.654 411.974 325.354 411.547 325.814L409.514 328.027C409.407 328.14 409.267 328.2 409.121 328.2Z" fill="#FF1934"/>
</g>
<path d="M423.601 324.352L424.169 324.352C424.537 324.352 424.812 324.264 424.993 324.088C425.175 323.912 425.265 323.675 425.265 323.376C425.265 323.083 425.175 322.853 424.993 322.688C424.812 322.517 424.545 322.432 424.193 322.432L423.601 322.432L423.601 324.352ZM422.593 321.608L424.281 321.608C424.889 321.608 425.375 321.773 425.737 322.104C426.105 322.435 426.289 322.859 426.289 323.376C426.289 323.925 426.1 324.363 425.721 324.688C425.348 325.008 424.876 325.168 424.305 325.168L423.601 325.168L423.601 327L422.593 327L422.593 321.608ZM429.439 324.64L429.439 324.52C429.428 324.259 429.356 324.051 429.223 323.896C429.095 323.736 428.905 323.656 428.655 323.656C428.425 323.656 428.225 323.741 428.055 323.912C427.889 324.077 427.783 324.32 427.735 324.64L429.439 324.64ZM430.095 325.944L430.095 326.776C429.812 326.952 429.404 327.04 428.871 327.04C428.225 327.04 427.716 326.848 427.343 326.464C426.969 326.08 426.783 325.584 426.783 324.976C426.783 324.331 426.959 323.824 427.311 323.456C427.663 323.088 428.103 322.904 428.631 322.904C429.159 322.904 429.577 323.064 429.887 323.384C430.196 323.704 430.351 324.171 430.351 324.784C430.351 324.933 430.332 325.125 430.295 325.36L427.751 325.36C427.82 325.653 427.964 325.877 428.183 326.032C428.407 326.187 428.684 326.264 429.015 326.264C429.441 326.264 429.801 326.157 430.095 325.944ZM432.193 322.944L432.193 323.664C432.38 323.163 432.721 322.912 433.217 322.912C433.329 322.912 433.42 322.92 433.489 322.936L433.489 323.864C433.366 323.811 433.23 323.784 433.081 323.784C432.82 323.784 432.606 323.891 432.441 324.104C432.276 324.317 432.193 324.584 432.193 324.904L432.193 327L431.225 327L431.233 322.944L432.193 322.944ZM435.749 326.088C436.011 326.088 436.229 325.987 436.405 325.784C436.581 325.576 436.669 325.307 436.669 324.976C436.669 324.544 436.584 324.227 436.413 324.024C436.243 323.821 436.027 323.72 435.765 323.72C435.488 323.72 435.269 323.829 435.109 324.048C434.949 324.261 434.869 324.552 434.869 324.92C434.869 325.299 434.952 325.589 435.117 325.792C435.283 325.989 435.493 326.088 435.749 326.088ZM436.669 322.944L437.629 322.944L437.629 326.632C437.629 327.272 437.443 327.752 437.069 328.072C436.701 328.397 436.232 328.56 435.661 328.56C435.128 328.56 434.661 328.464 434.261 328.272L434.261 327.296C434.624 327.552 435.059 327.68 435.565 327.68C436.301 327.68 436.669 327.328 436.669 326.624L436.669 326.272C436.424 326.672 436.04 326.872 435.517 326.872C435.064 326.872 434.675 326.707 434.349 326.376C434.029 326.04 433.869 325.555 433.869 324.92C433.869 324.333 434.021 323.851 434.325 323.472C434.635 323.088 435.04 322.896 435.541 322.896C436.048 322.896 436.424 323.107 436.669 323.528L436.669 322.944ZM438.664 327L438.664 322.944L439.624 322.944L439.624 327L438.664 327ZM438.568 321.728C438.568 321.568 438.624 321.432 438.736 321.32C438.848 321.208 438.984 321.152 439.144 321.152C439.304 321.152 439.44 321.208 439.552 321.32C439.664 321.432 439.72 321.568 439.72 321.728C439.72 321.893 439.664 322.032 439.552 322.144C439.44 322.256 439.304 322.312 439.144 322.312C438.984 322.312 438.848 322.256 438.736 322.144C438.624 322.032 438.568 321.893 438.568 321.728ZM446.23 327L445.102 327L443.646 324.904L443.646 327L442.686 327L442.686 321.44L443.646 321.44L443.646 324.848L445.078 322.944L446.198 322.944L444.71 324.88L446.23 327ZM449.306 324.64L449.306 324.52C449.295 324.259 449.223 324.051 449.09 323.896C448.962 323.736 448.772 323.656 448.522 323.656C448.292 323.656 448.092 323.741 447.922 323.912C447.756 324.077 447.65 324.32 447.602 324.64L449.306 324.64ZM449.962 325.944L449.962 326.776C449.679 326.952 449.271 327.04 448.738 327.04C448.092 327.04 447.583 326.848 447.21 326.464C446.836 326.08 446.65 325.584 446.65 324.976C446.65 324.331 446.826 323.824 447.178 323.456C447.53 323.088 447.97 322.904 448.498 322.904C449.026 322.904 449.444 323.064 449.754 323.384C450.063 323.704 450.218 324.171 450.218 324.784C450.218 324.933 450.199 325.125 450.162 325.36L447.618 325.36C447.687 325.653 447.831 325.877 448.05 326.032C448.274 326.187 448.551 326.264 448.882 326.264C449.308 326.264 449.668 326.157 449.962 325.944ZM454.132 324.352L454.7 324.352C455.068 324.352 455.343 324.264 455.524 324.088C455.706 323.912 455.796 323.675 455.796 323.376C455.796 323.083 455.706 322.853 455.524 322.688C455.343 322.517 455.076 322.432 454.724 322.432L454.132 322.432L454.132 324.352ZM453.124 321.608L454.812 321.608C455.42 321.608 455.906 321.773 456.268 322.104C456.636 322.435 456.82 322.859 456.82 323.376C456.82 323.925 456.631 324.363 456.252 324.688C455.879 325.008 455.407 325.168 454.836 325.168L454.132 325.168L454.132 327L453.124 327L453.124 321.608ZM459.602 325.256L459.106 325.256C458.855 325.256 458.663 325.309 458.53 325.416C458.396 325.517 458.33 325.648 458.33 325.808C458.33 326.149 458.527 326.32 458.922 326.32C459.135 326.32 459.3 326.259 459.418 326.136C459.54 326.008 459.602 325.843 459.602 325.64L459.602 325.256ZM457.634 324.04L457.634 323.152C457.938 322.965 458.375 322.872 458.946 322.872C460.044 322.872 460.594 323.384 460.594 324.408L460.594 327L459.642 327L459.642 326.512C459.455 326.859 459.103 327.032 458.586 327.032C458.202 327.032 457.895 326.92 457.666 326.696C457.442 326.472 457.33 326.189 457.33 325.848C457.33 325.464 457.474 325.163 457.762 324.944C458.05 324.725 458.466 324.616 459.01 324.616L459.602 324.616L459.602 324.368C459.602 324.144 459.543 323.973 459.426 323.856C459.308 323.739 459.108 323.68 458.826 323.68C458.394 323.68 457.996 323.8 457.634 324.04ZM463.552 326.232C463.84 326.232 464.075 326.123 464.256 325.904C464.438 325.68 464.528 325.368 464.528 324.968C464.528 324.568 464.438 324.259 464.256 324.04C464.075 323.816 463.846 323.704 463.568 323.704C463.291 323.704 463.051 323.808 462.848 324.016C462.646 324.224 462.544 324.533 462.544 324.944C462.544 325.355 462.643 325.672 462.84 325.896C463.038 326.12 463.275 326.232 463.552 326.232ZM462.544 322.944L462.544 323.568C462.832 323.115 463.246 322.888 463.784 322.888C464.312 322.888 464.731 323.077 465.04 323.456C465.355 323.835 465.512 324.333 465.512 324.952C465.512 325.56 465.355 326.064 465.04 326.464C464.731 326.859 464.31 327.056 463.776 327.056C463.232 327.056 462.822 326.835 462.544 326.392L462.544 328.528L461.584 328.528L461.584 322.944L462.544 322.944ZM468.406 325.256L467.91 325.256C467.66 325.256 467.468 325.309 467.334 325.416C467.201 325.517 467.134 325.648 467.134 325.808C467.134 326.149 467.332 326.32 467.726 326.32C467.94 326.32 468.105 326.259 468.222 326.136C468.345 326.008 468.406 325.843 468.406 325.64L468.406 325.256ZM466.438 324.04L466.438 323.152C466.742 322.965 467.18 322.872 467.75 322.872C468.849 322.872 469.398 323.384 469.398 324.408L469.398 327L468.446 327L468.446 326.512C468.26 326.859 467.908 327.032 467.39 327.032C467.006 327.032 466.7 326.92 466.47 326.696C466.246 326.472 466.134 326.189 466.134 325.848C466.134 325.464 466.278 325.163 466.566 324.944C466.854 324.725 467.27 324.616 467.814 324.616L468.406 324.616L468.406 324.368C468.406 324.144 468.348 323.973 468.23 323.856C468.113 323.739 467.913 323.68 467.63 323.68C467.198 323.68 466.801 323.8 466.438 324.04ZM471.349 322.944L471.349 323.64C471.578 323.144 471.994 322.896 472.597 322.896C473.002 322.896 473.322 323.019 473.557 323.264C473.792 323.509 473.909 323.856 473.909 324.304L473.909 327L472.949 327L472.949 324.504C472.949 324.237 472.885 324.037 472.757 323.904C472.629 323.765 472.456 323.696 472.237 323.696C471.986 323.696 471.776 323.795 471.605 323.992C471.434 324.184 471.349 324.461 471.349 324.824L471.349 327L470.389 327L470.389 322.944L471.349 322.944ZM477.945 324.352L478.513 324.352C478.881 324.352 479.156 324.264 479.337 324.088C479.518 323.912 479.609 323.675 479.609 323.376C479.609 323.083 479.518 322.853 479.337 322.688C479.156 322.517 478.889 322.432 478.537 322.432L477.945 322.432L477.945 324.352ZM476.937 321.608L478.625 321.608C479.233 321.608 479.718 321.773 480.081 322.104C480.449 322.435 480.633 322.859 480.633 323.376C480.633 323.925 480.444 324.363 480.065 324.688C479.692 325.008 479.22 325.168 478.649 325.168L477.945 325.168L477.945 327L476.937 327L476.937 321.608ZM483.782 324.64L483.782 324.52C483.772 324.259 483.7 324.051 483.566 323.896C483.438 323.736 483.249 323.656 482.998 323.656C482.769 323.656 482.569 323.741 482.398 323.912C482.233 324.077 482.126 324.32 482.078 324.64L483.782 324.64ZM484.438 325.944L484.438 326.776C484.156 326.952 483.748 327.04 483.214 327.04C482.569 327.04 482.06 326.848 481.686 326.464C481.313 326.08 481.126 325.584 481.126 324.976C481.126 324.331 481.302 323.824 481.654 323.456C482.006 323.088 482.446 322.904 482.974 322.904C483.502 322.904 483.921 323.064 484.23 323.384C484.54 323.704 484.694 324.171 484.694 324.784C484.694 324.933 484.676 325.125 484.638 325.36L482.094 325.36C482.164 325.653 482.308 325.877 482.526 326.032C482.75 326.187 483.028 326.264 483.358 326.264C483.785 326.264 484.145 326.157 484.438 325.944ZM486.537 322.944L486.537 323.664C486.723 323.163 487.065 322.912 487.561 322.912C487.673 322.912 487.763 322.92 487.833 322.936L487.833 323.864C487.71 323.811 487.574 323.784 487.425 323.784C487.163 323.784 486.95 323.891 486.785 324.104C486.619 324.317 486.537 324.584 486.537 324.904L486.537 327L485.569 327L485.577 322.944L486.537 322.944ZM488.437 327L488.437 322.944L489.397 322.944L489.397 327L488.437 327ZM488.341 321.728C488.341 321.568 488.397 321.432 488.509 321.32C488.621 321.208 488.757 321.152 488.917 321.152C489.077 321.152 489.213 321.208 489.325 321.32C489.437 321.432 489.493 321.568 489.493 321.728C489.493 321.893 489.437 322.032 489.325 322.144C489.213 322.256 489.077 322.312 488.917 322.312C488.757 322.312 488.621 322.256 488.509 322.144C488.397 322.032 488.341 321.893 488.341 321.728ZM491.435 322.944L491.435 323.64C491.664 323.144 492.08 322.896 492.683 322.896C493.088 322.896 493.408 323.019 493.643 323.264C493.878 323.509 493.995 323.856 493.995 324.304L493.995 327L493.035 327L493.035 324.504C493.035 324.237 492.971 324.037 492.843 323.904C492.715 323.765 492.542 323.696 492.323 323.696C492.072 323.696 491.862 323.795 491.691 323.992C491.52 324.184 491.435 324.461 491.435 324.824L491.435 327L490.475 327L490.475 322.944L491.435 322.944ZM496.695 326.088C496.956 326.088 497.175 325.987 497.351 325.784C497.527 325.576 497.615 325.307 497.615 324.976C497.615 324.544 497.529 324.227 497.359 324.024C497.188 323.821 496.972 323.72 496.711 323.72C496.433 323.72 496.215 323.829 496.055 324.048C495.895 324.261 495.815 324.552 495.815 324.92C495.815 325.299 495.897 325.589 496.063 325.792C496.228 325.989 496.439 326.088 496.695 326.088ZM497.615 322.944L498.575 322.944L498.575 326.632C498.575 327.272 498.388 327.752 498.015 328.072C497.647 328.397 497.177 328.56 496.607 328.56C496.073 328.56 495.607 328.464 495.207 328.272L495.207 327.296C495.569 327.552 496.004 327.68 496.511 327.68C497.247 327.68 497.615 327.328 497.615 326.624L497.615 326.272C497.369 326.672 496.985 326.872 496.463 326.872C496.009 326.872 495.62 326.707 495.295 326.376C494.975 326.04 494.815 325.555 494.815 324.92C494.815 324.333 494.967 323.851 495.271 323.472C495.58 323.088 495.985 322.896 496.487 322.896C496.993 322.896 497.369 323.107 497.615 323.528L497.615 322.944ZM503.113 327L501.985 327L500.529 324.904L500.529 327L499.569 327L499.569 321.44L500.529 321.44L500.529 324.848L501.961 322.944L503.081 322.944L501.593 324.88L503.113 327ZM505.821 325.256L505.325 325.256C505.074 325.256 504.882 325.309 504.749 325.416C504.615 325.517 504.549 325.648 504.549 325.808C504.549 326.149 504.746 326.32 505.141 326.32C505.354 326.32 505.519 326.259 505.637 326.136C505.759 326.008 505.821 325.843 505.821 325.64L505.821 325.256ZM503.853 324.04L503.853 323.152C504.157 322.965 504.594 322.872 505.165 322.872C506.263 322.872 506.813 323.384 506.813 324.408L506.813 327L505.861 327L505.861 326.512C505.674 326.859 505.322 327.032 504.805 327.032C504.421 327.032 504.114 326.92 503.885 326.696C503.661 326.472 503.549 326.189 503.549 325.848C503.549 325.464 503.693 325.163 503.981 324.944C504.269 324.725 504.685 324.616 505.229 324.616L505.821 324.616L505.821 324.368C505.821 324.144 505.762 323.973 505.645 323.856C505.527 323.739 505.327 323.68 505.045 323.68C504.613 323.68 504.215 323.8 503.853 324.04ZM508.971 323.664L508.971 325.728C508.971 325.899 509.017 326.029 509.107 326.12C509.198 326.205 509.323 326.248 509.483 326.248C509.686 326.248 509.873 326.192 510.043 326.08L510.043 326.904C509.857 326.995 509.617 327.04 509.323 327.04C508.449 327.04 508.011 326.597 508.011 325.712L508.011 323.664L507.403 323.664L507.403 322.944L508.011 322.944L508.011 321.968L508.971 321.968L508.971 322.944L509.979 322.944L509.979 323.664L508.971 323.664Z" fill="white"/>
</g>
</g>
<defs>
<filter id="filter0_d_1124_4113" x="276.674" y="307" width="119" height="38" filterUnits="userSpaceOnUse" color-interpolation-filters="sRGB">
<feFlood flood-opacity="0" result="BackgroundImageFix"/>
<feColorMatrix in="SourceAlpha" type="matrix" values="0 0 0 0 0 0 0 0 0 0 0 0 0 0 0 0 0 0 127 0" result="hardAlpha"/>
<feOffset dx="2" dy="2"/>
<feGaussianBlur stdDeviation="4"/>
<feComposite in2="hardAlpha" operator="out"/>
<feColorMatrix type="matrix" values="0 0 0 0 0 0 0 0 0 0 0 0 0 0 0 0 0 0 0.12 0"/>
<feBlend mode="normal" in2="BackgroundImageFix" result="effect1_dropShadow_1124_4113"/>
<feBlend mode="normal" in="SourceGraphic" in2="effect1_dropShadow_1124_4113" result="shape"/>
</filter>
<filter id="filter1_d_1124_4113" x="387.674" y="307" width="141" height="40" filterUnits="userSpaceOnUse" color-interpolation-filters="sRGB">
<feFlood flood-opacity="0" result="BackgroundImageFix"/>
<feColorMatrix in="SourceAlpha" type="matrix" values="0 0 0 0 0 0 0 0 0 0 0 0 0 0 0 0 0 0 127 0" result="hardAlpha"/>
<feOffset dx="2" dy="2"/>
<feGaussianBlur stdDeviation="4"/>
<feComposite in2="hardAlpha" operator="out"/>
<feColorMatrix type="matrix" values="0 0 0 0 0 0 0 0 0 0 0 0 0 0 0 0 0 0 0.12 0"/>
<feBlend mode="normal" in2="BackgroundImageFix" result="effect1_dropShadow_1124_4113"/>
<feBlend mode="normal" in="SourceGraphic" in2="effect1_dropShadow_1124_4113" result="shape"/>
</filter>
<clipPath id="clip0_1124_4113">
<rect width="812" height="375" fill="white"/>
</clipPath>
<clipPath id="clip1_1124_4113">
<rect width="236.71" height="83.89" fill="white" transform="translate(146.318 145.555)"/>
</clipPath>
<clipPath id="clip2_1124_4113">
<rect width="40" height="40" fill="white" transform="translate(431.028 139)"/>
</clipPath>
<clipPath id="clip3_1124_4113">
<rect width="16" height="16" fill="white" transform="translate(401.674 317)"/>
</clipPath>
</defs>
</svg>
