<svg width="285" height="268" viewBox="0 0 285 268" fill="none" xmlns="http://www.w3.org/2000/svg">
<rect width="285" height="268" fill="#D3D3D3"/>
<rect width="285" height="268" rx="16" fill="white"/>
<g filter="url(#filter0_d_1124_4113)">
<path d="M0 16C0 7.16344 7.16344 0 16 0H269C277.837 0 285 7.16344 285 16V48H0V16Z" fill="#FF1934" shape-rendering="crispEdges"/>
<g clip-path="url(#clip0_1124_4113)">
<path d="M35.86 30.4599C35.45 30.2899 34.98 30.4799 34.81 30.8799C34.62 31.3399 34.37 31.7499 34.1 32.1499L33.21 30.0599C32.6 28.6199 31.14 27.7499 29.57 27.8999L24.14 28.4399C24.05 27.8499 23.96 27.2799 23.85 26.7399L29.46 26.1499C29.9 26.0999 30.22 25.7099 30.17 25.2699C30.12 24.8299 29.72 24.5199 29.29 24.5599L23.5 25.1699C22.66 21.7699 21.59 19.5899 21.51 19.4399C21.31 19.0499 20.83 18.8899 20.44 19.0799C20.05 19.2799 19.89 19.7599 20.08 20.1499C20.11 20.2099 22.93 25.9099 22.88 33.3199C22.17 32.6399 21.58 31.8199 21.18 30.8799C21.01 30.4699 20.54 30.2899 20.13 30.4599C19.72 30.6299 19.53 31.0999 19.71 31.5099C20.45 33.2599 21.71 34.6699 23.25 35.6299C23.26 35.6299 23.28 35.6499 23.29 35.6499C24.68 36.4999 26.29 36.9999 27.99 36.9999C30.44 36.9999 32.72 35.9899 34.38 34.3099C34.43 34.2699 34.47 34.2299 34.51 34.1799C35.24 33.4099 35.85 32.5299 36.28 31.5199C36.45 31.1099 36.26 30.6399 35.86 30.4699V30.4599ZM28 35.3999C26.73 35.3999 25.52 35.0599 24.45 34.4699C24.52 32.9099 24.47 31.4299 24.33 30.0299L29.72 29.4899C30.59 29.3999 31.39 29.8799 31.73 30.6799L32.93 33.4999C31.6 34.6899 29.85 35.3899 27.99 35.3899L28 35.3999Z" fill="white"/>
</g>
<path d="M51.122 30.236H52.102C52.97 30.236 53.6373 29.9653 54.104 29.424C54.58 28.8827 54.818 28.1173 54.818 27.128C54.818 26.288 54.58 25.616 54.104 25.112C53.628 24.5987 52.956 24.342 52.088 24.342H51.122V30.236ZM48.91 22.564H52.158C53.5767 22.564 54.7387 23.0027 55.644 23.88C56.5493 24.748 57.002 25.8307 57.002 27.128C57.002 28.64 56.554 29.83 55.658 30.698C54.7713 31.566 53.5953 32 52.13 32H48.91V22.564ZM61.9106 29.088H61.2526C60.9073 29.088 60.6413 29.1627 60.4546 29.312C60.268 29.4613 60.1746 29.6527 60.1746 29.886C60.1746 30.362 60.45 30.6 61.0006 30.6C61.29 30.6 61.514 30.5113 61.6726 30.334C61.8313 30.1567 61.9106 29.914 61.9106 29.606V29.088ZM58.5926 27.086V25.252C59.1526 24.9347 59.96 24.776 61.0146 24.776C62.0226 24.776 62.774 24.9953 63.2686 25.434C63.7633 25.8633 64.0106 26.5353 64.0106 27.45V32H62.0086V31.132C61.71 31.7387 61.122 32.042 60.2446 32.042C59.554 32.042 59.0126 31.846 58.6206 31.454C58.238 31.062 58.0466 30.572 58.0466 29.984C58.0466 29.3027 58.294 28.7753 58.7886 28.402C59.2926 28.0193 60.0346 27.828 61.0146 27.828H61.9106V27.338C61.9106 26.7407 61.514 26.442 60.7206 26.442C59.9553 26.442 59.246 26.6567 58.5926 27.086ZM67.6594 24.902V26.106C67.8367 25.714 68.1074 25.406 68.4714 25.182C68.8447 24.9487 69.2881 24.832 69.8014 24.832C70.5294 24.832 71.0987 25.0513 71.5094 25.49C71.9201 25.9193 72.1254 26.554 72.1254 27.394V32H70.0814V27.772C70.0814 27.352 69.9834 27.0347 69.7874 26.82C69.5914 26.596 69.3161 26.484 68.9614 26.484C68.5881 26.484 68.2754 26.6333 68.0234 26.932C67.7807 27.2213 67.6594 27.66 67.6594 28.248V32H65.6154V24.902H67.6594ZM77.2505 29.088H76.5925C76.2472 29.088 75.9812 29.1627 75.7945 29.312C75.6078 29.4613 75.5145 29.6527 75.5145 29.886C75.5145 30.362 75.7898 30.6 76.3405 30.6C76.6298 30.6 76.8538 30.5113 77.0125 30.334C77.1712 30.1567 77.2505 29.914 77.2505 29.606V29.088ZM73.9325 27.086V25.252C74.4925 24.9347 75.2998 24.776 76.3545 24.776C77.3625 24.776 78.1138 24.9953 78.6085 25.434C79.1032 25.8633 79.3505 26.5353 79.3505 27.45V32H77.3485V31.132C77.0498 31.7387 76.4618 32.042 75.5845 32.042C74.8938 32.042 74.3525 31.846 73.9605 31.454C73.5778 31.062 73.3865 30.572 73.3865 29.984C73.3865 29.3027 73.6338 28.7753 74.1285 28.402C74.6325 28.0193 75.3745 27.828 76.3545 27.828H77.2505V27.338C77.2505 26.7407 76.8538 26.442 76.0605 26.442C75.2952 26.442 74.5858 26.6567 73.9325 27.086ZM86.6812 27.24H87.3952C88.5339 27.24 89.1032 26.722 89.1032 25.686C89.1032 24.7527 88.5759 24.286 87.5212 24.286H86.6812V27.24ZM84.5252 22.564H87.7732C88.8186 22.564 89.6632 22.858 90.3072 23.446C90.9606 24.034 91.2872 24.7807 91.2872 25.686C91.2872 26.722 90.9466 27.5247 90.2652 28.094C89.5932 28.6633 88.7626 28.948 87.7732 28.948H86.6812V32H84.5252V22.564ZM96.4459 27.8V27.632C96.3806 26.8013 96.0166 26.386 95.3539 26.386C95.0272 26.386 94.7379 26.5073 94.4859 26.75C94.2339 26.9833 94.0659 27.3333 93.9819 27.8H96.4459ZM97.9159 29.886V31.594C97.4306 31.9113 96.6886 32.07 95.6899 32.07C94.5232 32.07 93.6132 31.734 92.9599 31.062C92.3159 30.3807 91.9939 29.508 91.9939 28.444C91.9939 27.3147 92.3066 26.4327 92.9319 25.798C93.5666 25.154 94.3459 24.832 95.2699 24.832C96.2219 24.832 96.9732 25.112 97.5239 25.672C98.0746 26.2227 98.3499 27.0487 98.3499 28.15C98.3499 28.3647 98.3126 28.7333 98.2379 29.256H94.0659C94.2059 29.648 94.4486 29.9513 94.7939 30.166C95.1392 30.3807 95.5546 30.488 96.0399 30.488C96.7586 30.488 97.3839 30.2873 97.9159 29.886ZM101.853 24.902V26.106C102.03 25.714 102.301 25.406 102.665 25.182C103.038 24.9487 103.481 24.832 103.995 24.832C104.723 24.832 105.292 25.0513 105.703 25.49C106.113 25.9193 106.319 26.554 106.319 27.394V32H104.275V27.772C104.275 27.352 104.177 27.0347 103.981 26.82C103.785 26.596 103.509 26.484 103.155 26.484C102.781 26.484 102.469 26.6333 102.217 26.932C101.974 27.2213 101.853 27.66 101.853 28.248V32H99.8088V24.902H101.853ZM112.41 25.112V26.862C111.915 26.5727 111.337 26.428 110.674 26.428C110.431 26.428 110.245 26.4793 110.114 26.582C109.983 26.6753 109.918 26.7967 109.918 26.946C109.918 27.03 109.941 27.1093 109.988 27.184C110.035 27.2587 110.109 27.3287 110.212 27.394C110.324 27.4593 110.427 27.52 110.52 27.576C110.623 27.6227 110.758 27.6833 110.926 27.758C111.103 27.8327 111.243 27.898 111.346 27.954C111.775 28.178 112.121 28.4393 112.382 28.738C112.643 29.0273 112.774 29.4007 112.774 29.858C112.774 30.558 112.522 31.0993 112.018 31.482C111.514 31.8647 110.847 32.056 110.016 32.056C109.157 32.056 108.439 31.9113 107.86 31.622V29.802C108.504 30.25 109.185 30.474 109.904 30.474C110.417 30.474 110.674 30.3107 110.674 29.984C110.674 29.9 110.651 29.8207 110.604 29.746C110.557 29.6713 110.478 29.6013 110.366 29.536C110.254 29.4707 110.151 29.4193 110.058 29.382C109.965 29.3353 109.829 29.2747 109.652 29.2C109.475 29.1253 109.339 29.0647 109.246 29.018C108.303 28.57 107.832 27.898 107.832 27.002C107.832 26.3113 108.093 25.7747 108.616 25.392C109.148 25.0093 109.806 24.818 110.59 24.818C111.318 24.818 111.925 24.916 112.41 25.112ZM114.098 32V24.902H116.142V32H114.098ZM114.28 23.684C114.046 23.4507 113.93 23.1707 113.93 22.844C113.93 22.5173 114.046 22.2373 114.28 22.004C114.513 21.7707 114.793 21.654 115.12 21.654C115.446 21.654 115.726 21.7707 115.96 22.004C116.193 22.2373 116.31 22.5173 116.31 22.844C116.31 23.1707 116.193 23.4507 115.96 23.684C115.726 23.9173 115.446 24.034 115.12 24.034C114.793 24.034 114.513 23.9173 114.28 23.684ZM122.293 24.902H124.337V32H122.293V30.866C121.919 31.6593 121.201 32.056 120.137 32.056C119.409 32.056 118.839 31.8553 118.429 31.454C118.027 31.0433 117.827 30.4413 117.827 29.648V24.902H119.871V29.186C119.871 30.0167 120.235 30.432 120.963 30.432C121.849 30.432 122.293 29.8393 122.293 28.654V24.902ZM128.062 24.902V26.106C128.239 25.714 128.51 25.406 128.874 25.182C129.247 24.9487 129.69 24.832 130.204 24.832C130.932 24.832 131.501 25.0513 131.912 25.49C132.322 25.9193 132.528 26.554 132.528 27.394V32H130.484V27.772C130.484 27.352 130.386 27.0347 130.19 26.82C129.994 26.596 129.718 26.484 129.364 26.484C128.99 26.484 128.678 26.6333 128.426 26.932C128.183 27.2213 128.062 27.66 128.062 28.248V32H126.018V24.902H128.062Z" fill="white"/>
</g>
<g clip-path="url(#clip1_1124_4113)">
<path d="M146.396 84.8H136.5C134.446 84.8 132.78 86.465 132.78 88.52V92.4813C132.78 93.5725 133.689 94.45 134.791 94.3988C135.824 94.3513 136.619 93.4613 136.619 92.4275V89.52C136.619 88.9675 137.066 88.52 137.619 88.52H144.223C144.684 87.16 145.419 85.8975 146.395 84.8H146.396Z" fill="#B76F09"/>
<path d="M162.348 99.4825C162.291 99.5488 162.233 99.6125 162.174 99.6713C162.114 99.7313 162.053 99.7875 161.988 99.8425C159.958 101.783 157.3 102.85 154.5 102.85C148.518 102.85 143.65 97.9825 143.65 92C143.65 91.515 143.684 91.035 143.748 90.5613H126.42C123.376 90.5613 120.9 93.0375 120.9 96.0813V117.681C120.9 120.725 123.376 123.201 126.42 123.201H158.581C161.625 123.201 164.101 120.725 164.101 117.681V97.05C163.638 97.9275 163.051 98.7475 162.349 99.4838L162.348 99.4825Z" fill="#BA7303"/>
<path d="M162.348 99.4825C162.291 99.5488 162.233 99.6125 162.174 99.6713C162.114 99.7313 162.053 99.7875 161.988 99.8425C159.958 101.783 157.3 102.85 154.5 102.85C148.518 102.85 143.65 97.9825 143.65 92C143.65 91.515 143.684 91.035 143.748 90.5613H126.42C123.376 90.5613 120.9 93.0375 120.9 96.0813V117.681C120.9 120.725 123.376 123.201 126.42 123.201H158.581C161.625 123.201 164.101 120.725 164.101 117.681V97.05C163.638 97.9275 163.051 98.7475 162.349 99.4838L162.348 99.4825Z" fill="url(#paint0_linear_1124_4113)" style="mix-blend-mode:multiply"/>
<path d="M162.348 99.4825C162.291 99.5488 162.233 99.6125 162.174 99.6713C162.114 99.7313 162.053 99.7875 161.988 99.8425C159.958 101.783 157.3 102.85 154.5 102.85C148.518 102.85 143.65 97.9825 143.65 92C143.65 91.515 143.684 91.035 143.748 90.5613H126.42C123.376 90.5613 120.9 93.0375 120.9 96.0813V106.898C120.9 109.941 123.376 112.418 126.42 112.418H158.581C161.625 112.418 164.101 109.941 164.101 106.898V97.05C163.638 97.9275 163.051 98.7475 162.349 99.4838L162.348 99.4825Z" fill="#D9AA16"/>
<path d="M162.348 99.4825C162.291 99.5488 162.233 99.6125 162.174 99.6713C162.114 99.7313 162.053 99.7875 161.988 99.8425C159.958 101.783 157.3 102.85 154.5 102.85C148.518 102.85 143.65 97.9825 143.65 92C143.65 91.515 143.684 91.035 143.748 90.5613H126.42C123.376 90.5613 120.9 93.0375 120.9 96.0813V106.898C120.9 109.941 123.376 112.418 126.42 112.418H158.581C161.625 112.418 164.101 109.941 164.101 106.898V97.05C163.638 97.9275 163.051 98.7475 162.349 99.4838L162.348 99.4825Z" fill="url(#paint1_linear_1124_4113)" style="mix-blend-mode:multiply"/>
<path d="M142.5 114.216C140.449 114.216 138.78 112.548 138.78 110.496C138.78 109.436 139.639 108.576 140.7 108.576H144.3C145.36 108.576 146.22 109.435 146.22 110.496C146.22 112.548 144.551 114.216 142.5 114.216Z" fill="#B76F09"/>
<path d="M161.415 98.6488C163.076 96.9225 164.1 94.5788 164.1 92C164.1 86.7063 159.794 82.4 154.5 82.4C151.928 82.4 149.59 83.4188 147.864 85.0725C147.811 85.115 147.759 85.1613 147.71 85.21C147.66 85.26 147.615 85.3113 147.571 85.365C145.919 87.09 144.899 89.4275 144.899 92C144.899 97.2938 149.205 101.6 154.499 101.6C157.08 101.6 159.424 100.574 161.151 98.9113C161.198 98.8725 161.244 98.8325 161.288 98.7888C161.333 98.7438 161.374 98.6975 161.414 98.6488H161.415ZM160.261 92C160.261 92.8875 160.059 93.73 159.699 94.4813L152.019 86.8013C152.771 86.4413 153.613 86.2388 154.5 86.2388C157.676 86.2388 160.261 88.8238 160.261 92ZM148.739 92C148.739 91.1125 148.941 90.27 149.301 89.5188L156.981 97.1988C156.229 97.5588 155.388 97.7613 154.5 97.7613C151.324 97.7613 148.739 95.1763 148.739 92Z" fill="#FF1934"/>
</g>
<path d="M31.2102 144.54H33.6002L33.4702 144.15L32.4202 140.91C32.3402 141.197 31.9802 142.28 31.3402 144.16L31.2102 144.54ZM34.4202 147L33.8302 145.23H30.9802L30.3802 147H29.5102L31.8602 140.26H32.9802L35.2902 147H34.4202ZM37.1545 141.93V142.81C37.4545 142.177 37.9879 141.86 38.7545 141.86C39.2479 141.86 39.6412 142.01 39.9345 142.31C40.2279 142.61 40.3745 143.01 40.3745 143.51V147H39.5845V143.72C39.5845 143.347 39.4879 143.063 39.2945 142.87C39.1079 142.67 38.8612 142.57 38.5545 142.57C38.1745 142.57 37.8445 142.717 37.5645 143.01C37.2912 143.303 37.1545 143.71 37.1545 144.23V147H36.3745V141.93H37.1545ZM43.7049 146.36C44.1183 146.36 44.4683 146.207 44.7549 145.9C45.0483 145.593 45.1949 145.103 45.1949 144.43C45.1949 143.79 45.0449 143.32 44.7449 143.02C44.4449 142.72 44.1149 142.57 43.7549 142.57C43.3349 142.57 42.9849 142.74 42.7049 143.08C42.4316 143.413 42.2949 143.893 42.2949 144.52C42.2949 145.067 42.4283 145.51 42.6949 145.85C42.9616 146.19 43.2983 146.36 43.7049 146.36ZM45.1949 139.93H45.9849V147H45.1949V146.25C44.8349 146.803 44.3149 147.08 43.6349 147.08C42.9616 147.08 42.4316 146.83 42.0449 146.33C41.6649 145.83 41.4749 145.223 41.4749 144.51C41.4749 143.717 41.6783 143.077 42.0849 142.59C42.4916 142.097 43.0149 141.85 43.6549 141.85C44.3149 141.85 44.8283 142.133 45.1949 142.7V139.93ZM50.1788 144.66H49.2988C48.8721 144.66 48.5521 144.743 48.3388 144.91C48.1254 145.077 48.0188 145.287 48.0188 145.54C48.0188 145.793 48.1021 146 48.2688 146.16C48.4354 146.313 48.6788 146.39 48.9988 146.39C49.3588 146.39 49.6454 146.29 49.8588 146.09C50.0721 145.883 50.1788 145.623 50.1788 145.31V144.66ZM47.5588 142.99V142.2C47.9388 141.967 48.4388 141.85 49.0588 141.85C50.3321 141.85 50.9688 142.497 50.9688 143.79V147H50.1888V146.4C49.9288 146.833 49.4554 147.05 48.7688 147.05C48.2954 147.05 47.9121 146.91 47.6188 146.63C47.3321 146.35 47.1888 145.997 47.1888 145.57C47.1888 145.083 47.3721 144.707 47.7388 144.44C48.1121 144.167 48.6188 144.03 49.2588 144.03H50.1788V143.77C50.1788 143.37 50.0888 143.07 49.9088 142.87C49.7288 142.663 49.4254 142.56 48.9988 142.56C48.4588 142.56 47.9788 142.703 47.5588 142.99ZM57.572 142.1V142.85C57.2654 142.663 56.8454 142.57 56.312 142.57C56.0454 142.57 55.832 142.633 55.672 142.76C55.5187 142.88 55.442 143.037 55.442 143.23C55.442 143.35 55.4654 143.457 55.512 143.55C55.5587 143.637 55.6487 143.723 55.782 143.81C55.922 143.897 56.022 143.957 56.082 143.99C56.1487 144.017 56.2887 144.077 56.502 144.17C56.9287 144.343 57.262 144.54 57.502 144.76C57.742 144.98 57.862 145.277 57.862 145.65C57.862 146.083 57.7087 146.427 57.402 146.68C57.102 146.933 56.6887 147.06 56.162 147.06C55.5487 147.06 55.052 146.957 54.672 146.75V145.98C55.1187 146.247 55.5987 146.38 56.112 146.38C56.4187 146.38 56.652 146.32 56.812 146.2C56.972 146.08 57.052 145.917 57.052 145.71C57.052 145.47 56.962 145.283 56.782 145.15C56.6087 145.017 56.3154 144.867 55.902 144.7C55.522 144.553 55.2154 144.37 54.982 144.15C54.7554 143.93 54.642 143.633 54.642 143.26C54.642 142.84 54.7987 142.507 55.112 142.26C55.432 142.007 55.8287 141.88 56.302 141.88C56.8287 141.88 57.252 141.953 57.572 142.1ZM62.1631 144.14V143.94C62.1631 143.52 62.0498 143.187 61.8231 142.94C61.5965 142.687 61.2831 142.56 60.8831 142.56C60.5031 142.56 60.1798 142.697 59.9131 142.97C59.6465 143.243 59.4898 143.633 59.4431 144.14H62.1631ZM62.6331 146V146.74C62.2398 146.947 61.7598 147.05 61.1931 147.05C60.4265 147.05 59.8065 146.817 59.3331 146.35C58.8665 145.877 58.6331 145.253 58.6331 144.48C58.6331 143.673 58.8431 143.037 59.2631 142.57C59.6831 142.103 60.2231 141.87 60.8831 141.87C61.5165 141.87 62.0198 142.073 62.3931 142.48C62.7665 142.887 62.9531 143.463 62.9531 144.21C62.9531 144.423 62.9365 144.62 62.9031 144.8H59.4431C59.5031 145.3 59.6931 145.683 60.0131 145.95C60.3331 146.217 60.7531 146.35 61.2731 146.35C61.8398 146.35 62.2931 146.233 62.6331 146ZM66.0877 146.36C66.5011 146.36 66.8511 146.207 67.1377 145.9C67.4311 145.593 67.5777 145.103 67.5777 144.43C67.5777 143.79 67.4277 143.32 67.1277 143.02C66.8277 142.72 66.4977 142.57 66.1377 142.57C65.7177 142.57 65.3677 142.74 65.0877 143.08C64.8144 143.413 64.6777 143.893 64.6777 144.52C64.6777 145.067 64.8111 145.51 65.0777 145.85C65.3444 146.19 65.6811 146.36 66.0877 146.36ZM67.5777 139.93H68.3677V147H67.5777V146.25C67.2177 146.803 66.6977 147.08 66.0177 147.08C65.3444 147.08 64.8144 146.83 64.4277 146.33C64.0477 145.83 63.8577 145.223 63.8577 144.51C63.8577 143.717 64.0611 143.077 64.4677 142.59C64.8744 142.097 65.3977 141.85 66.0377 141.85C66.6977 141.85 67.2111 142.133 67.5777 142.7V139.93ZM72.5616 144.66H71.6816C71.2549 144.66 70.9349 144.743 70.7216 144.91C70.5082 145.077 70.4016 145.287 70.4016 145.54C70.4016 145.793 70.4849 146 70.6516 146.16C70.8182 146.313 71.0616 146.39 71.3816 146.39C71.7416 146.39 72.0282 146.29 72.2416 146.09C72.4549 145.883 72.5616 145.623 72.5616 145.31V144.66ZM69.9416 142.99V142.2C70.3216 141.967 70.8216 141.85 71.4416 141.85C72.7149 141.85 73.3516 142.497 73.3516 143.79V147H72.5716V146.4C72.3116 146.833 71.8382 147.05 71.1516 147.05C70.6782 147.05 70.2949 146.91 70.0016 146.63C69.7149 146.35 69.5716 145.997 69.5716 145.57C69.5716 145.083 69.7549 144.707 70.1216 144.44C70.4949 144.167 71.0016 144.03 71.6416 144.03H72.5616V143.77C72.5616 143.37 72.4716 143.07 72.2916 142.87C72.1116 142.663 71.8082 142.56 71.3816 142.56C70.8416 142.56 70.3616 142.703 69.9416 142.99ZM75.5334 141.93V142.81C75.8334 142.177 76.3668 141.86 77.1334 141.86C77.6268 141.86 78.0201 142.01 78.3134 142.31C78.6068 142.61 78.7534 143.01 78.7534 143.51V147H77.9634V143.72C77.9634 143.347 77.8668 143.063 77.6734 142.87C77.4868 142.67 77.2401 142.57 76.9334 142.57C76.5534 142.57 76.2234 142.717 75.9434 143.01C75.6701 143.303 75.5334 143.71 75.5334 144.23V147H74.7534V141.93H75.5334ZM82.0538 146.17C82.4205 146.17 82.7438 146.03 83.0238 145.75C83.3105 145.463 83.4538 145.04 83.4538 144.48C83.4538 143.833 83.3172 143.353 83.0438 143.04C82.7705 142.727 82.4538 142.57 82.0938 142.57C81.6605 142.57 81.3172 142.743 81.0638 143.09C80.8105 143.43 80.6838 143.877 80.6838 144.43C80.6838 144.997 80.8238 145.43 81.1038 145.73C81.3838 146.023 81.7005 146.17 82.0538 146.17ZM83.4538 141.93H84.2438V146.59C84.2438 147.363 84.0305 147.943 83.6038 148.33C83.1772 148.723 82.6272 148.92 81.9538 148.92C81.3405 148.92 80.8172 148.817 80.3838 148.61V147.82C80.8105 148.067 81.3105 148.19 81.8838 148.19C82.3705 148.19 82.7538 148.06 83.0338 147.8C83.3138 147.54 83.4538 147.133 83.4538 146.58V146.01C83.1205 146.583 82.6238 146.87 81.9638 146.87C81.3838 146.87 80.8872 146.657 80.4738 146.23C80.0672 145.803 79.8638 145.21 79.8638 144.45C79.8638 143.697 80.0538 143.077 80.4338 142.59C80.8138 142.103 81.3105 141.86 81.9238 141.86C82.6172 141.86 83.1272 142.163 83.4538 142.77V141.93ZM89.1735 142.57V145.54C89.1735 146.08 89.4268 146.35 89.9335 146.35C90.1935 146.35 90.4235 146.273 90.6235 146.12V146.87C90.4035 146.99 90.1568 147.05 89.8835 147.05C88.8835 147.05 88.3835 146.54 88.3835 145.52V142.57H87.5735V141.93H88.3835V140.67H89.1735V141.93H90.5735V142.57H89.1735ZM91.8149 147V141.93H92.6049V147H91.8149ZM91.8349 140.71C91.7416 140.61 91.6949 140.487 91.6949 140.34C91.6949 140.193 91.7416 140.07 91.8349 139.97C91.9349 139.87 92.0583 139.82 92.2049 139.82C92.3516 139.82 92.4749 139.87 92.5749 139.97C92.6749 140.07 92.7249 140.193 92.7249 140.34C92.7249 140.487 92.6749 140.61 92.5749 140.71C92.4749 140.803 92.3516 140.85 92.2049 140.85C92.0583 140.85 91.9349 140.803 91.8349 140.71ZM96.0389 146.36C96.4522 146.36 96.8022 146.207 97.0889 145.9C97.3822 145.593 97.5289 145.103 97.5289 144.43C97.5289 143.79 97.3789 143.32 97.0789 143.02C96.7789 142.72 96.4489 142.57 96.0889 142.57C95.6689 142.57 95.3189 142.74 95.0389 143.08C94.7656 143.413 94.6289 143.893 94.6289 144.52C94.6289 145.067 94.7622 145.51 95.0289 145.85C95.2956 146.19 95.6322 146.36 96.0389 146.36ZM97.5289 139.93H98.3189V147H97.5289V146.25C97.1689 146.803 96.6489 147.08 95.9689 147.08C95.2956 147.08 94.7656 146.83 94.3789 146.33C93.9989 145.83 93.8089 145.223 93.8089 144.51C93.8089 143.717 94.0122 143.077 94.4189 142.59C94.8256 142.097 95.3489 141.85 95.9889 141.85C96.6489 141.85 97.1622 142.133 97.5289 142.7V139.93ZM102.513 144.66H101.633C101.206 144.66 100.886 144.743 100.673 144.91C100.459 145.077 100.353 145.287 100.353 145.54C100.353 145.793 100.436 146 100.603 146.16C100.769 146.313 101.013 146.39 101.333 146.39C101.693 146.39 101.979 146.29 102.193 146.09C102.406 145.883 102.513 145.623 102.513 145.31V144.66ZM99.8927 142.99V142.2C100.273 141.967 100.773 141.85 101.393 141.85C102.666 141.85 103.303 142.497 103.303 143.79V147H102.523V146.4C102.263 146.833 101.789 147.05 101.103 147.05C100.629 147.05 100.246 146.91 99.9527 146.63C99.6661 146.35 99.5227 145.997 99.5227 145.57C99.5227 145.083 99.7061 144.707 100.073 144.44C100.446 144.167 100.953 144.03 101.593 144.03H102.513V143.77C102.513 143.37 102.423 143.07 102.243 142.87C102.063 142.663 101.759 142.56 101.333 142.56C100.793 142.56 100.313 142.703 99.8927 142.99ZM104.705 147V139.97H105.485V147H104.705ZM106.515 144.34L108.575 147H107.625L105.585 144.34L107.575 141.93H108.515L106.515 144.34ZM114.261 146.36C114.667 146.36 115.004 146.19 115.271 145.85C115.537 145.51 115.671 145.067 115.671 144.52C115.671 143.893 115.531 143.413 115.251 143.08C114.977 142.74 114.631 142.57 114.211 142.57C113.851 142.57 113.521 142.72 113.221 143.02C112.921 143.32 112.771 143.79 112.771 144.43C112.771 145.103 112.914 145.593 113.201 145.9C113.494 146.207 113.847 146.36 114.261 146.36ZM112.771 139.93V142.69C113.137 142.13 113.651 141.85 114.311 141.85C114.951 141.85 115.474 142.097 115.881 142.59C116.287 143.077 116.491 143.717 116.491 144.51C116.491 145.223 116.297 145.83 115.911 146.33C115.531 146.83 115.004 147.08 114.331 147.08C113.651 147.08 113.131 146.803 112.771 146.25V147H111.981V139.93H112.771ZM120.884 144.14V143.94C120.884 143.52 120.77 143.187 120.544 142.94C120.317 142.687 120.004 142.56 119.604 142.56C119.224 142.56 118.9 142.697 118.634 142.97C118.367 143.243 118.21 143.633 118.164 144.14H120.884ZM121.354 146V146.74C120.96 146.947 120.48 147.05 119.914 147.05C119.147 147.05 118.527 146.817 118.054 146.35C117.587 145.877 117.354 145.253 117.354 144.48C117.354 143.673 117.564 143.037 117.984 142.57C118.404 142.103 118.944 141.87 119.604 141.87C120.237 141.87 120.74 142.073 121.114 142.48C121.487 142.887 121.674 143.463 121.674 144.21C121.674 144.423 121.657 144.62 121.624 144.8H118.164C118.224 145.3 118.414 145.683 118.734 145.95C119.054 146.217 119.474 146.35 119.994 146.35C120.56 146.35 121.014 146.233 121.354 146ZM122.878 147V139.97H123.658V147H122.878ZM124.688 144.34L126.748 147H125.798L123.758 144.34L125.748 141.93H126.688L124.688 144.34ZM130.913 144.14V143.94C130.913 143.52 130.8 143.187 130.573 142.94C130.346 142.687 130.033 142.56 129.633 142.56C129.253 142.56 128.93 142.697 128.663 142.97C128.396 143.243 128.24 143.633 128.193 144.14H130.913ZM131.383 146V146.74C130.99 146.947 130.51 147.05 129.943 147.05C129.176 147.05 128.556 146.817 128.083 146.35C127.616 145.877 127.383 145.253 127.383 144.48C127.383 143.673 127.593 143.037 128.013 142.57C128.433 142.103 128.973 141.87 129.633 141.87C130.266 141.87 130.77 142.073 131.143 142.48C131.516 142.887 131.703 143.463 131.703 144.21C131.703 144.423 131.686 144.62 131.653 144.8H128.193C128.253 145.3 128.443 145.683 128.763 145.95C129.083 146.217 129.503 146.35 130.023 146.35C130.59 146.35 131.043 146.233 131.383 146ZM133.688 141.93V142.82C133.954 142.193 134.414 141.88 135.068 141.88C135.188 141.88 135.281 141.887 135.348 141.9V142.68C135.208 142.633 135.064 142.61 134.918 142.61C134.564 142.61 134.271 142.773 134.038 143.1C133.804 143.427 133.688 143.803 133.688 144.23V147H132.898L132.908 141.93H133.688ZM134.979 148.8V148.1C135.233 148.207 135.459 148.26 135.659 148.26C136.033 148.26 136.219 148.017 136.219 147.53V141.93H136.999V147.55C136.999 147.99 136.883 148.333 136.649 148.58C136.423 148.827 136.106 148.95 135.699 148.95C135.479 148.95 135.239 148.9 134.979 148.8ZM136.229 140.71C136.136 140.61 136.089 140.487 136.089 140.34C136.089 140.193 136.136 140.07 136.229 139.97C136.329 139.87 136.453 139.82 136.599 139.82C136.746 139.82 136.869 139.87 136.969 139.97C137.069 140.07 137.119 140.193 137.119 140.34C137.119 140.487 137.069 140.61 136.969 140.71C136.869 140.803 136.746 140.85 136.599 140.85C136.453 140.85 136.329 140.803 136.229 140.71ZM141.175 144.66H140.295C139.868 144.66 139.548 144.743 139.335 144.91C139.122 145.077 139.015 145.287 139.015 145.54C139.015 145.793 139.098 146 139.265 146.16C139.432 146.313 139.675 146.39 139.995 146.39C140.355 146.39 140.642 146.29 140.855 146.09C141.068 145.883 141.175 145.623 141.175 145.31V144.66ZM138.555 142.99V142.2C138.935 141.967 139.435 141.85 140.055 141.85C141.328 141.85 141.965 142.497 141.965 143.79V147H141.185V146.4C140.925 146.833 140.452 147.05 139.765 147.05C139.292 147.05 138.908 146.91 138.615 146.63C138.328 146.35 138.185 145.997 138.185 145.57C138.185 145.083 138.368 144.707 138.735 144.44C139.108 144.167 139.615 144.03 140.255 144.03H141.175V143.77C141.175 143.37 141.085 143.07 140.905 142.87C140.725 142.663 140.422 142.56 139.995 142.56C139.455 142.56 138.975 142.703 138.555 142.99ZM142.547 148.02L146.187 139.93H146.997L143.347 148.02H142.547ZM149.71 146.36C150.117 146.36 150.453 146.19 150.72 145.85C150.987 145.51 151.12 145.067 151.12 144.52C151.12 143.893 150.98 143.413 150.7 143.08C150.427 142.74 150.08 142.57 149.66 142.57C149.3 142.57 148.97 142.72 148.67 143.02C148.37 143.32 148.22 143.79 148.22 144.43C148.22 145.103 148.363 145.593 148.65 145.9C148.943 146.207 149.297 146.36 149.71 146.36ZM148.22 139.93V142.69C148.587 142.13 149.1 141.85 149.76 141.85C150.4 141.85 150.923 142.097 151.33 142.59C151.737 143.077 151.94 143.717 151.94 144.51C151.94 145.223 151.747 145.83 151.36 146.33C150.98 146.83 150.453 147.08 149.78 147.08C149.1 147.08 148.58 146.803 148.22 146.25V147H147.43V139.93H148.22ZM156.333 144.14V143.94C156.333 143.52 156.22 143.187 155.993 142.94C155.766 142.687 155.453 142.56 155.053 142.56C154.673 142.56 154.35 142.697 154.083 142.97C153.816 143.243 153.66 143.633 153.613 144.14H156.333ZM156.803 146V146.74C156.41 146.947 155.93 147.05 155.363 147.05C154.596 147.05 153.976 146.817 153.503 146.35C153.036 145.877 152.803 145.253 152.803 144.48C152.803 143.673 153.013 143.037 153.433 142.57C153.853 142.103 154.393 141.87 155.053 141.87C155.686 141.87 156.19 142.073 156.563 142.48C156.936 142.887 157.123 143.463 157.123 144.21C157.123 144.423 157.106 144.62 157.073 144.8H153.613C153.673 145.3 153.863 145.683 154.183 145.95C154.503 146.217 154.923 146.35 155.443 146.35C156.01 146.35 156.463 146.233 156.803 146ZM158.368 147V139.93H159.158V147H158.368ZM163.812 141.93H164.602V147H163.812V146.12C163.545 146.747 163.015 147.06 162.222 147.06C161.722 147.06 161.325 146.913 161.032 146.62C160.745 146.32 160.602 145.92 160.602 145.42V141.93H161.392V145.22C161.392 145.587 161.485 145.867 161.672 146.06C161.858 146.253 162.112 146.35 162.432 146.35C162.852 146.35 163.185 146.203 163.432 145.91C163.685 145.617 163.812 145.22 163.812 144.72V141.93ZM166.842 141.93V142.75C167.122 142.157 167.599 141.86 168.272 141.86C169.052 141.86 169.545 142.19 169.752 142.85C169.899 142.53 170.102 142.287 170.362 142.12C170.629 141.947 170.925 141.86 171.252 141.86C171.779 141.86 172.175 142.01 172.442 142.31C172.709 142.61 172.842 143.013 172.842 143.52V147H172.052V143.72C172.052 142.953 171.729 142.57 171.082 142.57C170.762 142.57 170.475 142.717 170.222 143.01C169.969 143.297 169.842 143.703 169.842 144.23V147H169.052V143.72C169.052 142.953 168.729 142.57 168.082 142.57C167.762 142.57 167.475 142.717 167.222 143.01C166.969 143.297 166.842 143.703 166.842 144.23V147H166.062V141.93H166.842ZM177.467 141.93V142.75C177.747 142.157 178.224 141.86 178.897 141.86C179.677 141.86 180.17 142.19 180.377 142.85C180.524 142.53 180.727 142.287 180.987 142.12C181.254 141.947 181.55 141.86 181.877 141.86C182.404 141.86 182.8 142.01 183.067 142.31C183.334 142.61 183.467 143.013 183.467 143.52V147H182.677V143.72C182.677 142.953 182.354 142.57 181.707 142.57C181.387 142.57 181.1 142.717 180.847 143.01C180.594 143.297 180.467 143.703 180.467 144.23V147H179.677V143.72C179.677 142.953 179.354 142.57 178.707 142.57C178.387 142.57 178.1 142.717 177.847 143.01C177.594 143.297 177.467 143.703 177.467 144.23V147H176.687V141.93H177.467ZM188.101 144.14V143.94C188.101 143.52 187.987 143.187 187.761 142.94C187.534 142.687 187.221 142.56 186.821 142.56C186.441 142.56 186.117 142.697 185.851 142.97C185.584 143.243 185.427 143.633 185.381 144.14H188.101ZM188.571 146V146.74C188.177 146.947 187.697 147.05 187.131 147.05C186.364 147.05 185.744 146.817 185.271 146.35C184.804 145.877 184.571 145.253 184.571 144.48C184.571 143.673 184.781 143.037 185.201 142.57C185.621 142.103 186.161 141.87 186.821 141.87C187.454 141.87 187.957 142.073 188.331 142.48C188.704 142.887 188.891 143.463 188.891 144.21C188.891 144.423 188.874 144.62 188.841 144.8H185.381C185.441 145.3 185.631 145.683 185.951 145.95C186.271 146.217 186.691 146.35 187.211 146.35C187.777 146.35 188.231 146.233 188.571 146ZM190.875 141.93V142.75C191.155 142.157 191.632 141.86 192.305 141.86C193.085 141.86 193.579 142.19 193.785 142.85C193.932 142.53 194.135 142.287 194.395 142.12C194.662 141.947 194.959 141.86 195.285 141.86C195.812 141.86 196.209 142.01 196.475 142.31C196.742 142.61 196.875 143.013 196.875 143.52V147H196.085V143.72C196.085 142.953 195.762 142.57 195.115 142.57C194.795 142.57 194.509 142.717 194.255 143.01C194.002 143.297 193.875 143.703 193.875 144.23V147H193.085V143.72C193.085 142.953 192.762 142.57 192.115 142.57C191.795 142.57 191.509 142.717 191.255 143.01C191.002 143.297 190.875 143.703 190.875 144.23V147H190.095V141.93H190.875ZM198.319 147V141.93H199.109V147H198.319ZM198.339 140.71C198.245 140.61 198.199 140.487 198.199 140.34C198.199 140.193 198.245 140.07 198.339 139.97C198.439 139.87 198.562 139.82 198.709 139.82C198.855 139.82 198.979 139.87 199.079 139.97C199.179 140.07 199.229 140.193 199.229 140.34C199.229 140.487 199.179 140.61 199.079 140.71C198.979 140.803 198.855 140.85 198.709 140.85C198.562 140.85 198.439 140.803 198.339 140.71ZM200.653 147V139.93H201.443V147H200.653ZM202.987 147V141.93H203.777V147H202.987ZM203.007 140.71C202.913 140.61 202.867 140.487 202.867 140.34C202.867 140.193 202.913 140.07 203.007 139.97C203.107 139.87 203.23 139.82 203.377 139.82C203.523 139.82 203.647 139.87 203.747 139.97C203.847 140.07 203.897 140.193 203.897 140.34C203.897 140.487 203.847 140.61 203.747 140.71C203.647 140.803 203.523 140.85 203.377 140.85C203.23 140.85 203.107 140.803 203.007 140.71ZM205.281 147V139.97H206.061V147H205.281ZM207.091 144.34L209.151 147H208.201L206.161 144.34L208.151 141.93H209.091L207.091 144.34ZM210.125 147V141.93H210.915V147H210.125ZM210.145 140.71C210.052 140.61 210.005 140.487 210.005 140.34C210.005 140.193 210.052 140.07 210.145 139.97C210.245 139.87 210.369 139.82 210.515 139.82C210.662 139.82 210.785 139.87 210.885 139.97C210.985 140.07 211.035 140.193 211.035 140.34C211.035 140.487 210.985 140.61 210.885 140.71C210.785 140.803 210.662 140.85 210.515 140.85C210.369 140.85 210.245 140.803 210.145 140.71ZM217.091 146.36C217.518 146.36 217.868 146.193 218.141 145.86C218.414 145.52 218.551 145.04 218.551 144.42C218.551 143.867 218.418 143.42 218.151 143.08C217.884 142.74 217.548 142.57 217.141 142.57C216.734 142.57 216.381 142.72 216.081 143.02C215.788 143.313 215.641 143.797 215.641 144.47C215.641 145.117 215.791 145.593 216.091 145.9C216.391 146.207 216.724 146.36 217.091 146.36ZM215.641 141.93V142.7C215.994 142.133 216.518 141.85 217.211 141.85C217.884 141.85 218.411 142.097 218.791 142.59C219.178 143.077 219.371 143.687 219.371 144.42C219.371 145.2 219.168 145.84 218.761 146.34C218.361 146.833 217.838 147.08 217.191 147.08C216.524 147.08 216.008 146.797 215.641 146.23V148.97H214.861V141.93H215.641ZM223.765 144.14V143.94C223.765 143.52 223.651 143.187 223.425 142.94C223.198 142.687 222.885 142.56 222.485 142.56C222.105 142.56 221.781 142.697 221.515 142.97C221.248 143.243 221.091 143.633 221.045 144.14H223.765ZM224.235 146V146.74C223.841 146.947 223.361 147.05 222.795 147.05C222.028 147.05 221.408 146.817 220.935 146.35C220.468 145.877 220.235 145.253 220.235 144.48C220.235 143.673 220.445 143.037 220.865 142.57C221.285 142.103 221.825 141.87 222.485 141.87C223.118 141.87 223.621 142.073 223.995 142.48C224.368 142.887 224.555 143.463 224.555 144.21C224.555 144.423 224.538 144.62 224.505 144.8H221.045C221.105 145.3 221.295 145.683 221.615 145.95C221.935 146.217 222.355 146.35 222.875 146.35C223.441 146.35 223.895 146.233 224.235 146ZM225.759 147V139.97H226.539V147H225.759ZM227.569 144.34L229.629 147H228.679L226.639 144.34L228.629 141.93H229.569L227.569 144.34ZM233.794 144.14V143.94C233.794 143.52 233.681 143.187 233.454 142.94C233.227 142.687 232.914 142.56 232.514 142.56C232.134 142.56 231.811 142.697 231.544 142.97C231.277 143.243 231.121 143.633 231.074 144.14H233.794ZM234.264 146V146.74C233.871 146.947 233.391 147.05 232.824 147.05C232.057 147.05 231.437 146.817 230.964 146.35C230.497 145.877 230.264 145.253 230.264 144.48C230.264 143.673 230.474 143.037 230.894 142.57C231.314 142.103 231.854 141.87 232.514 141.87C233.147 141.87 233.651 142.073 234.024 142.48C234.397 142.887 234.584 143.463 234.584 144.21C234.584 144.423 234.567 144.62 234.534 144.8H231.074C231.134 145.3 231.324 145.683 231.644 145.95C231.964 146.217 232.384 146.35 232.904 146.35C233.471 146.35 233.924 146.233 234.264 146ZM236.569 141.93V142.82C236.835 142.193 237.295 141.88 237.949 141.88C238.069 141.88 238.162 141.887 238.229 141.9V142.68C238.089 142.633 237.945 142.61 237.799 142.61C237.445 142.61 237.152 142.773 236.919 143.1C236.685 143.427 236.569 143.803 236.569 144.23V147H235.779L235.789 141.93H236.569ZM237.86 148.8V148.1C238.114 148.207 238.34 148.26 238.54 148.26C238.914 148.26 239.1 148.017 239.1 147.53V141.93H239.88V147.55C239.88 147.99 239.764 148.333 239.53 148.58C239.304 148.827 238.987 148.95 238.58 148.95C238.36 148.95 238.12 148.9 237.86 148.8ZM239.11 140.71C239.017 140.61 238.97 140.487 238.97 140.34C238.97 140.193 239.017 140.07 239.11 139.97C239.21 139.87 239.334 139.82 239.48 139.82C239.627 139.82 239.75 139.87 239.85 139.97C239.95 140.07 240 140.193 240 140.34C240 140.487 239.95 140.61 239.85 140.71C239.75 140.803 239.627 140.85 239.48 140.85C239.334 140.85 239.21 140.803 239.11 140.71ZM244.056 144.66H243.176C242.749 144.66 242.429 144.743 242.216 144.91C242.002 145.077 241.896 145.287 241.896 145.54C241.896 145.793 241.979 146 242.146 146.16C242.312 146.313 242.556 146.39 242.876 146.39C243.236 146.39 243.522 146.29 243.736 146.09C243.949 145.883 244.056 145.623 244.056 145.31V144.66ZM241.436 142.99V142.2C241.816 141.967 242.316 141.85 242.936 141.85C244.209 141.85 244.846 142.497 244.846 143.79V147H244.066V146.4C243.806 146.833 243.332 147.05 242.646 147.05C242.172 147.05 241.789 146.91 241.496 146.63C241.209 146.35 241.066 145.997 241.066 145.57C241.066 145.083 241.249 144.707 241.616 144.44C241.989 144.167 242.496 144.03 243.136 144.03H244.056V143.77C244.056 143.37 243.966 143.07 243.786 142.87C243.606 142.663 243.302 142.56 242.876 142.56C242.336 142.56 241.856 142.703 241.436 142.99ZM248.978 144.66H248.098C247.671 144.66 247.351 144.743 247.138 144.91C246.924 145.077 246.818 145.287 246.818 145.54C246.818 145.793 246.901 146 247.068 146.16C247.234 146.313 247.478 146.39 247.798 146.39C248.158 146.39 248.444 146.29 248.658 146.09C248.871 145.883 248.978 145.623 248.978 145.31V144.66ZM246.358 142.99V142.2C246.738 141.967 247.238 141.85 247.858 141.85C249.131 141.85 249.768 142.497 249.768 143.79V147H248.988V146.4C248.728 146.833 248.254 147.05 247.568 147.05C247.094 147.05 246.711 146.91 246.418 146.63C246.131 146.35 245.988 145.997 245.988 145.57C245.988 145.083 246.171 144.707 246.538 144.44C246.911 144.167 247.418 144.03 248.058 144.03H248.978V143.77C248.978 143.37 248.888 143.07 248.708 142.87C248.528 142.663 248.224 142.56 247.798 142.56C247.258 142.56 246.778 142.703 246.358 142.99ZM251.949 141.93V142.81C252.249 142.177 252.783 141.86 253.549 141.86C254.043 141.86 254.436 142.01 254.729 142.31C255.023 142.61 255.169 143.01 255.169 143.51V147H254.379V143.72C254.379 143.347 254.283 143.063 254.089 142.87C253.903 142.67 253.656 142.57 253.349 142.57C252.969 142.57 252.639 142.717 252.359 143.01C252.086 143.303 251.949 143.71 251.949 144.23V147H251.169V141.93H251.949ZM51.8986 176.54H54.2886L54.1586 176.15L53.1086 172.91C53.0286 173.197 52.6686 174.28 52.0286 176.16L51.8986 176.54ZM55.1086 179L54.5186 177.23H51.6686L51.0686 179H50.1986L52.5486 172.26H53.6686L55.9786 179H55.1086ZM57.843 173.93V174.81C58.143 174.177 58.6763 173.86 59.443 173.86C59.9363 173.86 60.3297 174.01 60.623 174.31C60.9163 174.61 61.063 175.01 61.063 175.51V179H60.273V175.72C60.273 175.347 60.1763 175.063 59.983 174.87C59.7963 174.67 59.5497 174.57 59.243 174.57C58.863 174.57 58.533 174.717 58.253 175.01C57.9797 175.303 57.843 175.71 57.843 176.23V179H57.063V173.93H57.843ZM64.3934 178.36C64.8067 178.36 65.1567 178.207 65.4434 177.9C65.7367 177.593 65.8834 177.103 65.8834 176.43C65.8834 175.79 65.7334 175.32 65.4334 175.02C65.1334 174.72 64.8034 174.57 64.4434 174.57C64.0234 174.57 63.6734 174.74 63.3934 175.08C63.1201 175.413 62.9834 175.893 62.9834 176.52C62.9834 177.067 63.1167 177.51 63.3834 177.85C63.6501 178.19 63.9867 178.36 64.3934 178.36ZM65.8834 171.93H66.6734V179H65.8834V178.25C65.5234 178.803 65.0034 179.08 64.3234 179.08C63.6501 179.08 63.1201 178.83 62.7334 178.33C62.3534 177.83 62.1634 177.223 62.1634 176.51C62.1634 175.717 62.3667 175.077 62.7734 174.59C63.1801 174.097 63.7034 173.85 64.3434 173.85C65.0034 173.85 65.5167 174.133 65.8834 174.7V171.93ZM70.8672 176.66H69.9872C69.5606 176.66 69.2406 176.743 69.0272 176.91C68.8139 177.077 68.7072 177.287 68.7072 177.54C68.7072 177.793 68.7906 178 68.9572 178.16C69.1239 178.313 69.3672 178.39 69.6872 178.39C70.0472 178.39 70.3339 178.29 70.5472 178.09C70.7606 177.883 70.8672 177.623 70.8672 177.31V176.66ZM68.2472 174.99V174.2C68.6272 173.967 69.1272 173.85 69.7472 173.85C71.0206 173.85 71.6572 174.497 71.6572 175.79V179H70.8772V178.4C70.6172 178.833 70.1439 179.05 69.4572 179.05C68.9839 179.05 68.6006 178.91 68.3072 178.63C68.0206 178.35 67.8772 177.997 67.8772 177.57C67.8772 177.083 68.0606 176.707 68.4272 176.44C68.8006 176.167 69.3072 176.03 69.9472 176.03H70.8672V175.77C70.8672 175.37 70.7772 175.07 70.5972 174.87C70.4172 174.663 70.1139 174.56 69.6872 174.56C69.1472 174.56 68.6672 174.703 68.2472 174.99ZM77.4305 178.36C77.8438 178.36 78.1938 178.207 78.4805 177.9C78.7738 177.593 78.9205 177.103 78.9205 176.43C78.9205 175.79 78.7705 175.32 78.4705 175.02C78.1705 174.72 77.8405 174.57 77.4805 174.57C77.0605 174.57 76.7105 174.74 76.4305 175.08C76.1572 175.413 76.0205 175.893 76.0205 176.52C76.0205 177.067 76.1538 177.51 76.4205 177.85C76.6872 178.19 77.0238 178.36 77.4305 178.36ZM78.9205 171.93H79.7105V179H78.9205V178.25C78.5605 178.803 78.0405 179.08 77.3605 179.08C76.6872 179.08 76.1572 178.83 75.7705 178.33C75.3905 177.83 75.2005 177.223 75.2005 176.51C75.2005 175.717 75.4038 175.077 75.8105 174.59C76.2172 174.097 76.7405 173.85 77.3805 173.85C78.0405 173.85 78.5538 174.133 78.9205 174.7V171.93ZM83.9043 176.66H83.0243C82.5977 176.66 82.2777 176.743 82.0643 176.91C81.851 177.077 81.7443 177.287 81.7443 177.54C81.7443 177.793 81.8277 178 81.9943 178.16C82.161 178.313 82.4043 178.39 82.7243 178.39C83.0843 178.39 83.371 178.29 83.5843 178.09C83.7977 177.883 83.9043 177.623 83.9043 177.31V176.66ZM81.2843 174.99V174.2C81.6643 173.967 82.1643 173.85 82.7843 173.85C84.0577 173.85 84.6943 174.497 84.6943 175.79V179H83.9143V178.4C83.6543 178.833 83.181 179.05 82.4943 179.05C82.021 179.05 81.6377 178.91 81.3443 178.63C81.0577 178.35 80.9143 177.997 80.9143 177.57C80.9143 177.083 81.0977 176.707 81.4643 176.44C81.8377 176.167 82.3443 176.03 82.9843 176.03H83.9043V175.77C83.9043 175.37 83.8143 175.07 83.6343 174.87C83.4543 174.663 83.151 174.56 82.7243 174.56C82.1843 174.56 81.7043 174.703 81.2843 174.99ZM88.3262 178.36C88.7529 178.36 89.1029 178.193 89.3762 177.86C89.6495 177.52 89.7862 177.04 89.7862 176.42C89.7862 175.867 89.6529 175.42 89.3862 175.08C89.1195 174.74 88.7829 174.57 88.3762 174.57C87.9695 174.57 87.6162 174.72 87.3162 175.02C87.0229 175.313 86.8762 175.797 86.8762 176.47C86.8762 177.117 87.0262 177.593 87.3262 177.9C87.6262 178.207 87.9595 178.36 88.3262 178.36ZM86.8762 173.93V174.7C87.2295 174.133 87.7529 173.85 88.4462 173.85C89.1195 173.85 89.6462 174.097 90.0262 174.59C90.4129 175.077 90.6062 175.687 90.6062 176.42C90.6062 177.2 90.4029 177.84 89.9962 178.34C89.5962 178.833 89.0729 179.08 88.4262 179.08C87.7595 179.08 87.2429 178.797 86.8762 178.23V180.97H86.0962V173.93H86.8762ZM94.5 176.66H93.62C93.1934 176.66 92.8734 176.743 92.66 176.91C92.4467 177.077 92.34 177.287 92.34 177.54C92.34 177.793 92.4234 178 92.59 178.16C92.7567 178.313 93 178.39 93.32 178.39C93.68 178.39 93.9667 178.29 94.18 178.09C94.3934 177.883 94.5 177.623 94.5 177.31V176.66ZM91.88 174.99V174.2C92.26 173.967 92.76 173.85 93.38 173.85C94.6534 173.85 95.29 174.497 95.29 175.79V179H94.51V178.4C94.25 178.833 93.7767 179.05 93.09 179.05C92.6167 179.05 92.2334 178.91 91.94 178.63C91.6534 178.35 91.51 177.997 91.51 177.57C91.51 177.083 91.6934 176.707 92.06 176.44C92.4334 176.167 92.94 176.03 93.58 176.03H94.5V175.77C94.5 175.37 94.41 175.07 94.23 174.87C94.05 174.663 93.7467 174.56 93.32 174.56C92.78 174.56 92.3 174.703 91.88 174.99ZM97.7819 174.57V177.54C97.7819 178.08 98.0352 178.35 98.5419 178.35C98.8019 178.35 99.0319 178.273 99.2319 178.12V178.87C99.0119 178.99 98.7652 179.05 98.4919 179.05C97.4919 179.05 96.9919 178.54 96.9919 177.52V174.57H96.1819V173.93H96.9919V172.67H97.7819V173.93H99.1819V174.57H97.7819ZM103.605 173.93V174.75C103.885 174.157 104.361 173.86 105.035 173.86C105.815 173.86 106.308 174.19 106.515 174.85C106.661 174.53 106.865 174.287 107.125 174.12C107.391 173.947 107.688 173.86 108.015 173.86C108.541 173.86 108.938 174.01 109.205 174.31C109.471 174.61 109.605 175.013 109.605 175.52V179H108.815V175.72C108.815 174.953 108.491 174.57 107.845 174.57C107.525 174.57 107.238 174.717 106.985 175.01C106.731 175.297 106.605 175.703 106.605 176.23V179H105.815V175.72C105.815 174.953 105.491 174.57 104.845 174.57C104.525 174.57 104.238 174.717 103.985 175.01C103.731 175.297 103.605 175.703 103.605 176.23V179H102.825V173.93H103.605ZM114.238 176.14V175.94C114.238 175.52 114.125 175.187 113.898 174.94C113.672 174.687 113.358 174.56 112.958 174.56C112.578 174.56 112.255 174.697 111.988 174.97C111.722 175.243 111.565 175.633 111.518 176.14H114.238ZM114.708 178V178.74C114.315 178.947 113.835 179.05 113.268 179.05C112.502 179.05 111.882 178.817 111.408 178.35C110.942 177.877 110.708 177.253 110.708 176.48C110.708 175.673 110.918 175.037 111.338 174.57C111.758 174.103 112.298 173.87 112.958 173.87C113.592 173.87 114.095 174.073 114.468 174.48C114.842 174.887 115.028 175.463 115.028 176.21C115.028 176.423 115.012 176.62 114.978 176.8H111.518C111.578 177.3 111.768 177.683 112.088 177.95C112.408 178.217 112.828 178.35 113.348 178.35C113.915 178.35 114.368 178.233 114.708 178ZM117.013 173.93V174.75C117.293 174.157 117.77 173.86 118.443 173.86C119.223 173.86 119.716 174.19 119.923 174.85C120.07 174.53 120.273 174.287 120.533 174.12C120.8 173.947 121.096 173.86 121.423 173.86C121.95 173.86 122.346 174.01 122.613 174.31C122.88 174.61 123.013 175.013 123.013 175.52V179H122.223V175.72C122.223 174.953 121.9 174.57 121.253 174.57C120.933 174.57 120.646 174.717 120.393 175.01C120.14 175.297 120.013 175.703 120.013 176.23V179H119.223V175.72C119.223 174.953 118.9 174.57 118.253 174.57C117.933 174.57 117.646 174.717 117.393 175.01C117.14 175.297 117.013 175.703 117.013 176.23V179H116.233V173.93H117.013ZM126.727 178.36C127.133 178.36 127.47 178.19 127.737 177.85C128.003 177.51 128.137 177.067 128.137 176.52C128.137 175.893 127.997 175.413 127.717 175.08C127.443 174.74 127.097 174.57 126.677 174.57C126.317 174.57 125.987 174.72 125.687 175.02C125.387 175.32 125.237 175.79 125.237 176.43C125.237 177.103 125.38 177.593 125.667 177.9C125.96 178.207 126.313 178.36 126.727 178.36ZM125.237 171.93V174.69C125.603 174.13 126.117 173.85 126.777 173.85C127.417 173.85 127.94 174.097 128.347 174.59C128.753 175.077 128.957 175.717 128.957 176.51C128.957 177.223 128.763 177.83 128.377 178.33C127.997 178.83 127.47 179.08 126.797 179.08C126.117 179.08 125.597 178.803 125.237 178.25V179H124.447V171.93H125.237ZM133.35 176.14V175.94C133.35 175.52 133.236 175.187 133.01 174.94C132.783 174.687 132.47 174.56 132.07 174.56C131.69 174.56 131.366 174.697 131.1 174.97C130.833 175.243 130.676 175.633 130.63 176.14H133.35ZM133.82 178V178.74C133.426 178.947 132.946 179.05 132.38 179.05C131.613 179.05 130.993 178.817 130.52 178.35C130.053 177.877 129.82 177.253 129.82 176.48C129.82 175.673 130.03 175.037 130.45 174.57C130.87 174.103 131.41 173.87 132.07 173.87C132.703 173.87 133.206 174.073 133.58 174.48C133.953 174.887 134.14 175.463 134.14 176.21C134.14 176.423 134.123 176.62 134.09 176.8H130.63C130.69 177.3 130.88 177.683 131.2 177.95C131.52 178.217 131.94 178.35 132.46 178.35C133.026 178.35 133.48 178.233 133.82 178ZM135.384 179V171.93H136.174V179H135.384ZM137.718 179V173.93H138.508V179H137.718ZM137.738 172.71C137.645 172.61 137.598 172.487 137.598 172.34C137.598 172.193 137.645 172.07 137.738 171.97C137.838 171.87 137.962 171.82 138.108 171.82C138.255 171.82 138.378 171.87 138.478 171.97C138.578 172.07 138.628 172.193 138.628 172.34C138.628 172.487 138.578 172.61 138.478 172.71C138.378 172.803 138.255 172.85 138.108 172.85C137.962 172.85 137.838 172.803 137.738 172.71ZM143.314 178.29H144.524C145.357 178.29 145.987 178.033 146.414 177.52C146.84 177 147.054 176.353 147.054 175.58C147.054 174.847 146.814 174.23 146.334 173.73C145.86 173.23 145.244 172.98 144.484 172.98H143.314V178.29ZM142.494 172.26H144.494C145.487 172.26 146.3 172.57 146.934 173.19C147.574 173.803 147.894 174.6 147.894 175.58C147.894 176.553 147.597 177.367 147.004 178.02C146.417 178.673 145.594 179 144.534 179H142.494V172.26ZM151.795 176.66H150.915C150.488 176.66 150.168 176.743 149.955 176.91C149.742 177.077 149.635 177.287 149.635 177.54C149.635 177.793 149.718 178 149.885 178.16C150.052 178.313 150.295 178.39 150.615 178.39C150.975 178.39 151.262 178.29 151.475 178.09C151.688 177.883 151.795 177.623 151.795 177.31V176.66ZM149.175 174.99V174.2C149.555 173.967 150.055 173.85 150.675 173.85C151.948 173.85 152.585 174.497 152.585 175.79V179H151.805V178.4C151.545 178.833 151.072 179.05 150.385 179.05C149.912 179.05 149.528 178.91 149.235 178.63C148.948 178.35 148.805 177.997 148.805 177.57C148.805 177.083 148.988 176.707 149.355 176.44C149.728 176.167 150.235 176.03 150.875 176.03H151.795V175.77C151.795 175.37 151.705 175.07 151.525 174.87C151.345 174.663 151.042 174.56 150.615 174.56C150.075 174.56 149.595 174.703 149.175 174.99ZM154.767 173.93V174.81C155.067 174.177 155.6 173.86 156.367 173.86C156.86 173.86 157.254 174.01 157.547 174.31C157.84 174.61 157.987 175.01 157.987 175.51V179H157.197V175.72C157.197 175.347 157.1 175.063 156.907 174.87C156.72 174.67 156.474 174.57 156.167 174.57C155.787 174.57 155.457 174.717 155.177 175.01C154.904 175.303 154.767 175.71 154.767 176.23V179H153.987V173.93H154.767ZM162.117 176.66H161.237C160.811 176.66 160.491 176.743 160.277 176.91C160.064 177.077 159.957 177.287 159.957 177.54C159.957 177.793 160.041 178 160.207 178.16C160.374 178.313 160.617 178.39 160.937 178.39C161.297 178.39 161.584 178.29 161.797 178.09C162.011 177.883 162.117 177.623 162.117 177.31V176.66ZM159.497 174.99V174.2C159.877 173.967 160.377 173.85 160.997 173.85C162.271 173.85 162.907 174.497 162.907 175.79V179H162.127V178.4C161.867 178.833 161.394 179.05 160.707 179.05C160.234 179.05 159.851 178.91 159.557 178.63C159.271 178.35 159.127 177.997 159.127 177.57C159.127 177.083 159.311 176.707 159.677 176.44C160.051 176.167 160.557 176.03 161.197 176.03H162.117V175.77C162.117 175.37 162.027 175.07 161.847 174.87C161.667 174.663 161.364 174.56 160.937 174.56C160.397 174.56 159.917 174.703 159.497 174.99ZM167.601 175.83H168.641C169.147 175.83 169.544 175.7 169.831 175.44C170.117 175.173 170.261 174.837 170.261 174.43C170.261 173.977 170.114 173.617 169.821 173.35C169.527 173.083 169.111 172.95 168.571 172.95H167.601V175.83ZM166.791 172.26H168.561C169.341 172.26 169.954 172.463 170.401 172.87C170.854 173.27 171.081 173.79 171.081 174.43C171.081 175.03 170.857 175.53 170.411 175.93C169.964 176.323 169.374 176.52 168.641 176.52H167.601V179H166.791V172.26ZM175.43 176.14V175.94C175.43 175.52 175.316 175.187 175.09 174.94C174.863 174.687 174.55 174.56 174.15 174.56C173.77 174.56 173.446 174.697 173.18 174.97C172.913 175.243 172.756 175.633 172.71 176.14H175.43ZM175.9 178V178.74C175.506 178.947 175.026 179.05 174.46 179.05C173.693 179.05 173.073 178.817 172.6 178.35C172.133 177.877 171.9 177.253 171.9 176.48C171.9 175.673 172.11 175.037 172.53 174.57C172.95 174.103 173.49 173.87 174.15 173.87C174.783 173.87 175.286 174.073 175.66 174.48C176.033 174.887 176.22 175.463 176.22 176.21C176.22 176.423 176.203 176.62 176.17 176.8H172.71C172.77 177.3 172.96 177.683 173.28 177.95C173.6 178.217 174.02 178.35 174.54 178.35C175.106 178.35 175.56 178.233 175.9 178ZM178.204 173.93V174.81C178.504 174.177 179.038 173.86 179.804 173.86C180.298 173.86 180.691 174.01 180.984 174.31C181.278 174.61 181.424 175.01 181.424 175.51V179H180.634V175.72C180.634 175.347 180.538 175.063 180.344 174.87C180.158 174.67 179.911 174.57 179.604 174.57C179.224 174.57 178.894 174.717 178.614 175.01C178.341 175.303 178.204 175.71 178.204 176.23V179H177.424V173.93H178.204ZM185.585 174.1V174.85C185.278 174.663 184.858 174.57 184.325 174.57C184.058 174.57 183.845 174.633 183.685 174.76C183.531 174.88 183.455 175.037 183.455 175.23C183.455 175.35 183.478 175.457 183.525 175.55C183.571 175.637 183.661 175.723 183.795 175.81C183.935 175.897 184.035 175.957 184.095 175.99C184.161 176.017 184.301 176.077 184.515 176.17C184.941 176.343 185.275 176.54 185.515 176.76C185.755 176.98 185.875 177.277 185.875 177.65C185.875 178.083 185.721 178.427 185.415 178.68C185.115 178.933 184.701 179.06 184.175 179.06C183.561 179.06 183.065 178.957 182.685 178.75V177.98C183.131 178.247 183.611 178.38 184.125 178.38C184.431 178.38 184.665 178.32 184.825 178.2C184.985 178.08 185.065 177.917 185.065 177.71C185.065 177.47 184.975 177.283 184.795 177.15C184.621 177.017 184.328 176.867 183.915 176.7C183.535 176.553 183.228 176.37 182.995 176.15C182.768 175.93 182.655 175.633 182.655 175.26C182.655 174.84 182.811 174.507 183.125 174.26C183.445 174.007 183.841 173.88 184.315 173.88C184.841 173.88 185.265 173.953 185.585 174.1ZM186.986 179V173.93H187.776V179H186.986ZM187.006 172.71C186.912 172.61 186.866 172.487 186.866 172.34C186.866 172.193 186.912 172.07 187.006 171.97C187.106 171.87 187.229 171.82 187.376 171.82C187.522 171.82 187.646 171.87 187.746 171.97C187.846 172.07 187.896 172.193 187.896 172.34C187.896 172.487 187.846 172.61 187.746 172.71C187.646 172.803 187.522 172.85 187.376 172.85C187.229 172.85 187.106 172.803 187.006 172.71ZM192.43 173.93H193.22V179H192.43V178.12C192.163 178.747 191.633 179.06 190.84 179.06C190.34 179.06 189.943 178.913 189.65 178.62C189.363 178.32 189.22 177.92 189.22 177.42V173.93H190.01V177.22C190.01 177.587 190.103 177.867 190.29 178.06C190.476 178.253 190.73 178.35 191.05 178.35C191.47 178.35 191.803 178.203 192.05 177.91C192.303 177.617 192.43 177.22 192.43 176.72V173.93ZM195.46 173.93V174.81C195.76 174.177 196.294 173.86 197.06 173.86C197.554 173.86 197.947 174.01 198.24 174.31C198.534 174.61 198.68 175.01 198.68 175.51V179H197.89V175.72C197.89 175.347 197.794 175.063 197.6 174.87C197.414 174.67 197.167 174.57 196.86 174.57C196.48 174.57 196.15 174.717 195.87 175.01C195.597 175.303 195.46 175.71 195.46 176.23V179H194.68V173.93H195.46ZM205.282 174.1V174.85C204.975 174.663 204.555 174.57 204.022 174.57C203.755 174.57 203.542 174.633 203.382 174.76C203.229 174.88 203.152 175.037 203.152 175.23C203.152 175.35 203.175 175.457 203.222 175.55C203.269 175.637 203.359 175.723 203.492 175.81C203.632 175.897 203.732 175.957 203.792 175.99C203.859 176.017 203.999 176.077 204.212 176.17C204.639 176.343 204.972 176.54 205.212 176.76C205.452 176.98 205.572 177.277 205.572 177.65C205.572 178.083 205.419 178.427 205.112 178.68C204.812 178.933 204.399 179.06 203.872 179.06C203.259 179.06 202.762 178.957 202.382 178.75V177.98C202.829 178.247 203.309 178.38 203.822 178.38C204.129 178.38 204.362 178.32 204.522 178.2C204.682 178.08 204.762 177.917 204.762 177.71C204.762 177.47 204.672 177.283 204.492 177.15C204.319 177.017 204.025 176.867 203.612 176.7C203.232 176.553 202.925 176.37 202.692 176.15C202.465 175.93 202.352 175.633 202.352 175.26C202.352 174.84 202.509 174.507 202.822 174.26C203.142 174.007 203.539 173.88 204.012 173.88C204.539 173.88 204.962 173.953 205.282 174.1ZM209.873 176.14V175.94C209.873 175.52 209.76 175.187 209.533 174.94C209.306 174.687 208.993 174.56 208.593 174.56C208.213 174.56 207.89 174.697 207.623 174.97C207.356 175.243 207.2 175.633 207.153 176.14H209.873ZM210.343 178V178.74C209.95 178.947 209.47 179.05 208.903 179.05C208.136 179.05 207.516 178.817 207.043 178.35C206.576 177.877 206.343 177.253 206.343 176.48C206.343 175.673 206.553 175.037 206.973 174.57C207.393 174.103 207.933 173.87 208.593 173.87C209.226 173.87 209.73 174.073 210.103 174.48C210.476 174.887 210.663 175.463 210.663 176.21C210.663 176.423 210.646 176.62 210.613 176.8H207.153C207.213 177.3 207.403 177.683 207.723 177.95C208.043 178.217 208.463 178.35 208.983 178.35C209.55 178.35 210.003 178.233 210.343 178ZM212.958 174.57V177.54C212.958 178.08 213.211 178.35 213.718 178.35C213.978 178.35 214.208 178.273 214.408 178.12V178.87C214.188 178.99 213.941 179.05 213.668 179.05C212.668 179.05 212.168 178.54 212.168 177.52V174.57H211.358V173.93H212.168V172.67H212.958V173.93H214.358V174.57H212.958ZM218.789 176.14V175.94C218.789 175.52 218.676 175.187 218.449 174.94C218.222 174.687 217.909 174.56 217.509 174.56C217.129 174.56 216.806 174.697 216.539 174.97C216.272 175.243 216.116 175.633 216.069 176.14H218.789ZM219.259 178V178.74C218.866 178.947 218.386 179.05 217.819 179.05C217.052 179.05 216.432 178.817 215.959 178.35C215.492 177.877 215.259 177.253 215.259 176.48C215.259 175.673 215.469 175.037 215.889 174.57C216.309 174.103 216.849 173.87 217.509 173.87C218.142 173.87 218.646 174.073 219.019 174.48C219.392 174.887 219.579 175.463 219.579 176.21C219.579 176.423 219.562 176.62 219.529 176.8H216.069C216.129 177.3 216.319 177.683 216.639 177.95C216.959 178.217 217.379 178.35 217.899 178.35C218.466 178.35 218.919 178.233 219.259 178ZM220.824 179V171.93H221.614V179H220.824ZM225.848 176.66H224.968C224.541 176.66 224.221 176.743 224.008 176.91C223.794 177.077 223.688 177.287 223.688 177.54C223.688 177.793 223.771 178 223.938 178.16C224.104 178.313 224.348 178.39 224.668 178.39C225.028 178.39 225.314 178.29 225.528 178.09C225.741 177.883 225.848 177.623 225.848 177.31V176.66ZM223.228 174.99V174.2C223.608 173.967 224.108 173.85 224.728 173.85C226.001 173.85 226.638 174.497 226.638 175.79V179H225.858V178.4C225.598 178.833 225.124 179.05 224.438 179.05C223.964 179.05 223.581 178.91 223.288 178.63C223.001 178.35 222.858 177.997 222.858 177.57C222.858 177.083 223.041 176.707 223.408 176.44C223.781 176.167 224.288 176.03 224.928 176.03H225.848V175.77C225.848 175.37 225.758 175.07 225.578 174.87C225.398 174.663 225.094 174.56 224.668 174.56C224.128 174.56 223.648 174.703 223.228 174.99ZM228.82 171.93V174.81C229.12 174.177 229.653 173.86 230.42 173.86C230.906 173.86 231.296 174.01 231.59 174.31C231.89 174.61 232.04 175.017 232.04 175.53V179H231.25V175.72C231.25 175.353 231.153 175.07 230.96 174.87C230.773 174.67 230.526 174.57 230.22 174.57C229.846 174.57 229.52 174.713 229.24 175C228.96 175.287 228.82 175.697 228.82 176.23V179H228.04V171.93H228.82ZM104.069 189.93V190.75C104.349 190.157 104.825 189.86 105.499 189.86C106.279 189.86 106.772 190.19 106.979 190.85C107.125 190.53 107.329 190.287 107.589 190.12C107.855 189.947 108.152 189.86 108.479 189.86C109.005 189.86 109.402 190.01 109.669 190.31C109.935 190.61 110.069 191.013 110.069 191.52V195H109.279V191.72C109.279 190.953 108.955 190.57 108.309 190.57C107.989 190.57 107.702 190.717 107.449 191.01C107.195 191.297 107.069 191.703 107.069 192.23V195H106.279V191.72C106.279 190.953 105.955 190.57 105.309 190.57C104.989 190.57 104.702 190.717 104.449 191.01C104.195 191.297 104.069 191.703 104.069 192.23V195H103.289V189.93H104.069ZM114.702 192.14V191.94C114.702 191.52 114.589 191.187 114.362 190.94C114.136 190.687 113.822 190.56 113.422 190.56C113.042 190.56 112.719 190.697 112.452 190.97C112.186 191.243 112.029 191.633 111.982 192.14H114.702ZM115.172 194V194.74C114.779 194.947 114.299 195.05 113.732 195.05C112.966 195.05 112.346 194.817 111.872 194.35C111.406 193.877 111.172 193.253 111.172 192.48C111.172 191.673 111.382 191.037 111.802 190.57C112.222 190.103 112.762 189.87 113.422 189.87C114.056 189.87 114.559 190.073 114.932 190.48C115.306 190.887 115.492 191.463 115.492 192.21C115.492 192.423 115.476 192.62 115.442 192.8H111.982C112.042 193.3 112.232 193.683 112.552 193.95C112.872 194.217 113.292 194.35 113.812 194.35C114.379 194.35 114.832 194.233 115.172 194ZM117.477 189.93V190.75C117.757 190.157 118.233 189.86 118.907 189.86C119.687 189.86 120.18 190.19 120.387 190.85C120.533 190.53 120.737 190.287 120.997 190.12C121.263 189.947 121.56 189.86 121.887 189.86C122.413 189.86 122.81 190.01 123.077 190.31C123.343 190.61 123.477 191.013 123.477 191.52V195H122.687V191.72C122.687 190.953 122.363 190.57 121.717 190.57C121.397 190.57 121.11 190.717 120.857 191.01C120.603 191.297 120.477 191.703 120.477 192.23V195H119.687V191.72C119.687 190.953 119.363 190.57 118.717 190.57C118.397 190.57 118.11 190.717 117.857 191.01C117.603 191.297 117.477 191.703 117.477 192.23V195H116.697V189.93H117.477ZM124.92 195V189.93H125.71V195H124.92ZM124.94 188.71C124.847 188.61 124.8 188.487 124.8 188.34C124.8 188.193 124.847 188.07 124.94 187.97C125.04 187.87 125.164 187.82 125.31 187.82C125.457 187.82 125.58 187.87 125.68 187.97C125.78 188.07 125.83 188.193 125.83 188.34C125.83 188.487 125.78 188.61 125.68 188.71C125.58 188.803 125.457 188.85 125.31 188.85C125.164 188.85 125.04 188.803 124.94 188.71ZM127.254 195V187.93H128.044V195H127.254ZM129.588 195V189.93H130.378V195H129.588ZM129.608 188.71C129.515 188.61 129.468 188.487 129.468 188.34C129.468 188.193 129.515 188.07 129.608 187.97C129.708 187.87 129.832 187.82 129.978 187.82C130.125 187.82 130.248 187.87 130.348 187.97C130.448 188.07 130.498 188.193 130.498 188.34C130.498 188.487 130.448 188.61 130.348 188.71C130.248 188.803 130.125 188.85 129.978 188.85C129.832 188.85 129.708 188.803 129.608 188.71ZM131.882 195V187.97H132.662V195H131.882ZM133.692 192.34L135.752 195H134.802L132.762 192.34L134.752 189.93H135.692L133.692 192.34ZM136.727 195V189.93H137.517V195H136.727ZM136.747 188.71C136.654 188.61 136.607 188.487 136.607 188.34C136.607 188.193 136.654 188.07 136.747 187.97C136.847 187.87 136.97 187.82 137.117 187.82C137.264 187.82 137.387 187.87 137.487 187.97C137.587 188.07 137.637 188.193 137.637 188.34C137.637 188.487 137.587 188.61 137.487 188.71C137.387 188.803 137.264 188.85 137.117 188.85C136.97 188.85 136.847 188.803 136.747 188.71ZM143.692 194.36C144.119 194.36 144.469 194.193 144.742 193.86C145.016 193.52 145.152 193.04 145.152 192.42C145.152 191.867 145.019 191.42 144.752 191.08C144.486 190.74 144.149 190.57 143.742 190.57C143.336 190.57 142.982 190.72 142.682 191.02C142.389 191.313 142.242 191.797 142.242 192.47C142.242 193.117 142.392 193.593 142.692 193.9C142.992 194.207 143.326 194.36 143.692 194.36ZM142.242 189.93V190.7C142.596 190.133 143.119 189.85 143.812 189.85C144.486 189.85 145.012 190.097 145.392 190.59C145.779 191.077 145.972 191.687 145.972 192.42C145.972 193.2 145.769 193.84 145.362 194.34C144.962 194.833 144.439 195.08 143.792 195.08C143.126 195.08 142.609 194.797 142.242 194.23V196.97H141.462V189.93H142.242ZM150.366 192.14V191.94C150.366 191.52 150.253 191.187 150.026 190.94C149.8 190.687 149.486 190.56 149.086 190.56C148.706 190.56 148.383 190.697 148.116 190.97C147.85 191.243 147.693 191.633 147.646 192.14H150.366ZM150.836 194V194.74C150.443 194.947 149.963 195.05 149.396 195.05C148.63 195.05 148.01 194.817 147.536 194.35C147.07 193.877 146.836 193.253 146.836 192.48C146.836 191.673 147.046 191.037 147.466 190.57C147.886 190.103 148.426 189.87 149.086 189.87C149.72 189.87 150.223 190.073 150.596 190.48C150.97 190.887 151.156 191.463 151.156 192.21C151.156 192.423 151.14 192.62 151.106 192.8H147.646C147.706 193.3 147.896 193.683 148.216 193.95C148.536 194.217 148.956 194.35 149.476 194.35C150.043 194.35 150.496 194.233 150.836 194ZM152.361 195V187.97H153.141V195H152.361ZM154.171 192.34L156.231 195H155.281L153.241 192.34L155.231 189.93H156.171L154.171 192.34ZM160.396 192.14V191.94C160.396 191.52 160.282 191.187 160.056 190.94C159.829 190.687 159.516 190.56 159.116 190.56C158.736 190.56 158.412 190.697 158.146 190.97C157.879 191.243 157.722 191.633 157.676 192.14H160.396ZM160.866 194V194.74C160.472 194.947 159.992 195.05 159.426 195.05C158.659 195.05 158.039 194.817 157.566 194.35C157.099 193.877 156.866 193.253 156.866 192.48C156.866 191.673 157.076 191.037 157.496 190.57C157.916 190.103 158.456 189.87 159.116 189.87C159.749 189.87 160.252 190.073 160.626 190.48C160.999 190.887 161.186 191.463 161.186 192.21C161.186 192.423 161.169 192.62 161.136 192.8H157.676C157.736 193.3 157.926 193.683 158.246 193.95C158.566 194.217 158.986 194.35 159.506 194.35C160.072 194.35 160.526 194.233 160.866 194ZM163.17 189.93V190.82C163.437 190.193 163.897 189.88 164.55 189.88C164.67 189.88 164.763 189.887 164.83 189.9V190.68C164.69 190.633 164.547 190.61 164.4 190.61C164.047 190.61 163.753 190.773 163.52 191.1C163.287 191.427 163.17 191.803 163.17 192.23V195H162.38L162.39 189.93H163.17ZM164.462 196.8V196.1C164.715 196.207 164.942 196.26 165.142 196.26C165.515 196.26 165.702 196.017 165.702 195.53V189.93H166.482V195.55C166.482 195.99 166.365 196.333 166.132 196.58C165.905 196.827 165.589 196.95 165.182 196.95C164.962 196.95 164.722 196.9 164.462 196.8ZM165.712 188.71C165.619 188.61 165.572 188.487 165.572 188.34C165.572 188.193 165.619 188.07 165.712 187.97C165.812 187.87 165.935 187.82 166.082 187.82C166.229 187.82 166.352 187.87 166.452 187.97C166.552 188.07 166.602 188.193 166.602 188.34C166.602 188.487 166.552 188.61 166.452 188.71C166.352 188.803 166.229 188.85 166.082 188.85C165.935 188.85 165.812 188.803 165.712 188.71ZM170.657 192.66H169.777C169.351 192.66 169.031 192.743 168.817 192.91C168.604 193.077 168.497 193.287 168.497 193.54C168.497 193.793 168.581 194 168.747 194.16C168.914 194.313 169.157 194.39 169.477 194.39C169.837 194.39 170.124 194.29 170.337 194.09C170.551 193.883 170.657 193.623 170.657 193.31V192.66ZM168.037 190.99V190.2C168.417 189.967 168.917 189.85 169.537 189.85C170.811 189.85 171.447 190.497 171.447 191.79V195H170.667V194.4C170.407 194.833 169.934 195.05 169.247 195.05C168.774 195.05 168.391 194.91 168.097 194.63C167.811 194.35 167.667 193.997 167.667 193.57C167.667 193.083 167.851 192.707 168.217 192.44C168.591 192.167 169.097 192.03 169.737 192.03H170.657V191.77C170.657 191.37 170.567 191.07 170.387 190.87C170.207 190.663 169.904 190.56 169.477 190.56C168.937 190.56 168.457 190.703 168.037 190.99ZM175.579 192.66H174.699C174.272 192.66 173.952 192.743 173.739 192.91C173.526 193.077 173.419 193.287 173.419 193.54C173.419 193.793 173.502 194 173.669 194.16C173.836 194.313 174.079 194.39 174.399 194.39C174.759 194.39 175.046 194.29 175.259 194.09C175.472 193.883 175.579 193.623 175.579 193.31V192.66ZM172.959 190.99V190.2C173.339 189.967 173.839 189.85 174.459 189.85C175.732 189.85 176.369 190.497 176.369 191.79V195H175.589V194.4C175.329 194.833 174.856 195.05 174.169 195.05C173.696 195.05 173.312 194.91 173.019 194.63C172.732 194.35 172.589 193.997 172.589 193.57C172.589 193.083 172.772 192.707 173.139 192.44C173.512 192.167 174.019 192.03 174.659 192.03H175.579V191.77C175.579 191.37 175.489 191.07 175.309 190.87C175.129 190.663 174.826 190.56 174.399 190.56C173.859 190.56 173.379 190.703 172.959 190.99ZM178.551 189.93V190.81C178.851 190.177 179.384 189.86 180.151 189.86C180.644 189.86 181.038 190.01 181.331 190.31C181.624 190.61 181.771 191.01 181.771 191.51V195H180.981V191.72C180.981 191.347 180.884 191.063 180.691 190.87C180.504 190.67 180.258 190.57 179.951 190.57C179.571 190.57 179.241 190.717 178.961 191.01C178.688 191.303 178.551 191.71 178.551 192.23V195H177.771V189.93H178.551Z" fill="#2B2B2B"/>
<g filter="url(#filter1_d_1124_4113)">
<rect x="82.5" y="212" width="120" height="24" rx="8" fill="#FF1934" shape-rendering="crispEdges"/>
<path d="M137.442 223.288C137.442 222.451 137.671 221.779 138.13 221.272C138.594 220.765 139.212 220.512 139.986 220.512C140.77 220.512 141.391 220.765 141.85 221.272C142.308 221.773 142.538 222.445 142.538 223.288C142.538 224.12 142.306 224.789 141.842 225.296C141.383 225.803 140.767 226.056 139.994 226.056C139.22 226.056 138.602 225.803 138.138 225.296C137.674 224.789 137.442 224.12 137.442 223.288ZM138.522 223.288C138.522 223.853 138.655 224.301 138.922 224.632C139.188 224.963 139.546 225.128 139.994 225.128C140.447 225.128 140.804 224.965 141.066 224.64C141.327 224.309 141.458 223.859 141.458 223.288C141.458 222.717 141.327 222.267 141.066 221.936C140.804 221.605 140.444 221.44 139.986 221.44C139.532 221.44 139.175 221.605 138.914 221.936C138.652 222.267 138.522 222.717 138.522 223.288ZM143.439 226L143.439 220.608L144.447 220.608L144.447 226L143.439 226ZM145.727 223.312L147.735 226L146.463 226L144.527 223.328L146.391 220.608L147.599 220.608L145.727 223.312Z" fill="white"/>
</g>
<defs>
<filter id="filter0_d_1124_4113" x="-4" y="-2" width="293" height="56" filterUnits="userSpaceOnUse" color-interpolation-filters="sRGB">
<feFlood flood-opacity="0" result="BackgroundImageFix"/>
<feColorMatrix in="SourceAlpha" type="matrix" values="0 0 0 0 0 0 0 0 0 0 0 0 0 0 0 0 0 0 127 0" result="hardAlpha"/>
<feOffset dy="2"/>
<feGaussianBlur stdDeviation="2"/>
<feComposite in2="hardAlpha" operator="out"/>
<feColorMatrix type="matrix" values="0 0 0 0 0.168627 0 0 0 0 0.168627 0 0 0 0 0.168627 0 0 0 0.24 0"/>
<feBlend mode="normal" in2="BackgroundImageFix" result="effect1_dropShadow_1124_4113"/>
<feBlend mode="normal" in="SourceGraphic" in2="effect1_dropShadow_1124_4113" result="shape"/>
</filter>
<filter id="filter1_d_1124_4113" x="76.5" y="206" width="136" height="40" filterUnits="userSpaceOnUse" color-interpolation-filters="sRGB">
<feFlood flood-opacity="0" result="BackgroundImageFix"/>
<feColorMatrix in="SourceAlpha" type="matrix" values="0 0 0 0 0 0 0 0 0 0 0 0 0 0 0 0 0 0 127 0" result="hardAlpha"/>
<feOffset dx="2" dy="2"/>
<feGaussianBlur stdDeviation="4"/>
<feComposite in2="hardAlpha" operator="out"/>
<feColorMatrix type="matrix" values="0 0 0 0 0 0 0 0 0 0 0 0 0 0 0 0 0 0 0.12 0"/>
<feBlend mode="normal" in2="BackgroundImageFix" result="effect1_dropShadow_1124_4113"/>
<feBlend mode="normal" in="SourceGraphic" in2="effect1_dropShadow_1124_4113" result="shape"/>
</filter>
<linearGradient id="paint0_linear_1124_4113" x1="142.5" y1="91.3163" x2="142.5" y2="121.97" gradientUnits="userSpaceOnUse">
<stop stop-color="#D9AA16"/>
<stop offset="0.58" stop-color="#EFDCA0"/>
<stop offset="1" stop-color="white"/>
</linearGradient>
<linearGradient id="paint1_linear_1124_4113" x1="121.299" y1="112.001" x2="161.644" y2="91.9963" gradientUnits="userSpaceOnUse">
<stop stop-color="#D9AA16"/>
<stop offset="1" stop-color="white"/>
</linearGradient>
<clipPath id="clip0_1124_4113">
<rect width="24" height="24" fill="white" transform="translate(16 16)"/>
</clipPath>
<clipPath id="clip1_1124_4113">
<rect width="64" height="64" fill="white" transform="translate(110.5 72)"/>
</clipPath>
</defs>
</svg>
