<svg width="285" height="252" viewBox="0 0 285 252" fill="none" xmlns="http://www.w3.org/2000/svg">
<rect width="285" height="252" fill="#D3D3D3"/>
<rect width="285" height="252" rx="16" fill="white"/>
<g filter="url(#filter0_d_1124_4113)">
<path d="M0 16C0 7.16344 7.16344 0 16 0H269C277.837 0 285 7.16344 285 16V48H0V16Z" fill="#FF1934" shape-rendering="crispEdges"/>
<g clip-path="url(#clip0_1124_4113)">
<path d="M35.8601 30.4599C35.4501 30.2899 34.9801 30.4799 34.8101 30.8799C34.6201 31.3399 34.3701 31.7499 34.1001 32.1499L33.2101 30.0599C32.6001 28.6199 31.1401 27.7499 29.5701 27.8999L24.1401 28.4399C24.0501 27.8499 23.9601 27.2799 23.8501 26.7399L29.4601 26.1499C29.9001 26.0999 30.2201 25.7099 30.1701 25.2699C30.1201 24.8299 29.7201 24.5199 29.2901 24.5599L23.5001 25.1699C22.6601 21.7699 21.5901 19.5899 21.5101 19.4399C21.3101 19.0499 20.8301 18.8899 20.4401 19.0799C20.0501 19.2799 19.8901 19.7599 20.0801 20.1499C20.1101 20.2099 22.9301 25.9099 22.8801 33.3199C22.1701 32.6399 21.5801 31.8199 21.1801 30.8799C21.0101 30.4699 20.5401 30.2899 20.1301 30.4599C19.7201 30.6299 19.5301 31.0999 19.7101 31.5099C20.4501 33.2599 21.7101 34.6699 23.2501 35.6299C23.2601 35.6299 23.2801 35.6499 23.2901 35.6499C24.6801 36.4999 26.2901 36.9999 27.9901 36.9999C30.4401 36.9999 32.7201 35.9899 34.3801 34.3099C34.4301 34.2699 34.4701 34.2299 34.5101 34.1799C35.2401 33.4099 35.8501 32.5299 36.2801 31.5199C36.4501 31.1099 36.2601 30.6399 35.8601 30.4699V30.4599ZM28.0001 35.3999C26.7301 35.3999 25.5201 35.0599 24.4501 34.4699C24.5201 32.9099 24.4701 31.4299 24.3301 30.0299L29.7201 29.4899C30.5901 29.3999 31.3901 29.8799 31.7301 30.6799L32.9301 33.4999C31.6001 34.6899 29.8501 35.3899 27.9901 35.3899L28.0001 35.3999Z" fill="white"/>
</g>
<path d="M51.122 30.236H52.102C52.97 30.236 53.6373 29.9653 54.104 29.424C54.58 28.8827 54.818 28.1173 54.818 27.128C54.818 26.288 54.58 25.616 54.104 25.112C53.628 24.5987 52.956 24.342 52.088 24.342H51.122V30.236ZM48.91 22.564H52.158C53.5767 22.564 54.7387 23.0027 55.644 23.88C56.5493 24.748 57.002 25.8307 57.002 27.128C57.002 28.64 56.554 29.83 55.658 30.698C54.7713 31.566 53.5953 32 52.13 32H48.91V22.564ZM61.9106 29.088H61.2526C60.9073 29.088 60.6413 29.1627 60.4546 29.312C60.268 29.4613 60.1746 29.6527 60.1746 29.886C60.1746 30.362 60.45 30.6 61.0006 30.6C61.29 30.6 61.514 30.5113 61.6726 30.334C61.8313 30.1567 61.9106 29.914 61.9106 29.606V29.088ZM58.5926 27.086V25.252C59.1526 24.9347 59.96 24.776 61.0146 24.776C62.0226 24.776 62.774 24.9953 63.2686 25.434C63.7633 25.8633 64.0106 26.5353 64.0106 27.45V32H62.0086V31.132C61.71 31.7387 61.122 32.042 60.2446 32.042C59.554 32.042 59.0126 31.846 58.6206 31.454C58.238 31.062 58.0466 30.572 58.0466 29.984C58.0466 29.3027 58.294 28.7753 58.7886 28.402C59.2926 28.0193 60.0346 27.828 61.0146 27.828H61.9106V27.338C61.9106 26.7407 61.514 26.442 60.7206 26.442C59.9553 26.442 59.246 26.6567 58.5926 27.086ZM67.6594 24.902V26.106C67.8367 25.714 68.1074 25.406 68.4714 25.182C68.8447 24.9487 69.2881 24.832 69.8014 24.832C70.5294 24.832 71.0987 25.0513 71.5094 25.49C71.9201 25.9193 72.1254 26.554 72.1254 27.394V32H70.0814V27.772C70.0814 27.352 69.9834 27.0347 69.7874 26.82C69.5914 26.596 69.3161 26.484 68.9614 26.484C68.5881 26.484 68.2754 26.6333 68.0234 26.932C67.7807 27.2213 67.6594 27.66 67.6594 28.248V32H65.6154V24.902H67.6594ZM77.2505 29.088H76.5925C76.2472 29.088 75.9812 29.1627 75.7945 29.312C75.6078 29.4613 75.5145 29.6527 75.5145 29.886C75.5145 30.362 75.7898 30.6 76.3405 30.6C76.6298 30.6 76.8538 30.5113 77.0125 30.334C77.1712 30.1567 77.2505 29.914 77.2505 29.606V29.088ZM73.9325 27.086V25.252C74.4925 24.9347 75.2998 24.776 76.3545 24.776C77.3625 24.776 78.1138 24.9953 78.6085 25.434C79.1032 25.8633 79.3505 26.5353 79.3505 27.45V32H77.3485V31.132C77.0498 31.7387 76.4618 32.042 75.5845 32.042C74.8938 32.042 74.3525 31.846 73.9605 31.454C73.5778 31.062 73.3865 30.572 73.3865 29.984C73.3865 29.3027 73.6338 28.7753 74.1285 28.402C74.6325 28.0193 75.3745 27.828 76.3545 27.828H77.2505V27.338C77.2505 26.7407 76.8538 26.442 76.0605 26.442C75.2952 26.442 74.5858 26.6567 73.9325 27.086ZM86.6812 27.24H87.3952C88.5339 27.24 89.1032 26.722 89.1032 25.686C89.1032 24.7527 88.5759 24.286 87.5212 24.286H86.6812V27.24ZM84.5252 22.564H87.7732C88.8186 22.564 89.6632 22.858 90.3072 23.446C90.9606 24.034 91.2872 24.7807 91.2872 25.686C91.2872 26.722 90.9466 27.5247 90.2652 28.094C89.5932 28.6633 88.7626 28.948 87.7732 28.948H86.6812V32H84.5252V22.564ZM96.4459 27.8V27.632C96.3806 26.8013 96.0166 26.386 95.3539 26.386C95.0272 26.386 94.7379 26.5073 94.4859 26.75C94.2339 26.9833 94.0659 27.3333 93.9819 27.8H96.4459ZM97.9159 29.886V31.594C97.4306 31.9113 96.6886 32.07 95.6899 32.07C94.5232 32.07 93.6132 31.734 92.9599 31.062C92.3159 30.3807 91.9939 29.508 91.9939 28.444C91.9939 27.3147 92.3066 26.4327 92.9319 25.798C93.5666 25.154 94.3459 24.832 95.2699 24.832C96.2219 24.832 96.9732 25.112 97.5239 25.672C98.0746 26.2227 98.3499 27.0487 98.3499 28.15C98.3499 28.3647 98.3126 28.7333 98.2379 29.256H94.0659C94.2059 29.648 94.4486 29.9513 94.7939 30.166C95.1392 30.3807 95.5546 30.488 96.0399 30.488C96.7586 30.488 97.3839 30.2873 97.9159 29.886ZM101.853 24.902V26.106C102.03 25.714 102.301 25.406 102.665 25.182C103.038 24.9487 103.481 24.832 103.995 24.832C104.723 24.832 105.292 25.0513 105.703 25.49C106.113 25.9193 106.319 26.554 106.319 27.394V32H104.275V27.772C104.275 27.352 104.177 27.0347 103.981 26.82C103.785 26.596 103.509 26.484 103.155 26.484C102.781 26.484 102.469 26.6333 102.217 26.932C101.974 27.2213 101.853 27.66 101.853 28.248V32H99.8088V24.902H101.853ZM112.41 25.112V26.862C111.915 26.5727 111.337 26.428 110.674 26.428C110.431 26.428 110.245 26.4793 110.114 26.582C109.983 26.6753 109.918 26.7967 109.918 26.946C109.918 27.03 109.941 27.1093 109.988 27.184C110.035 27.2587 110.109 27.3287 110.212 27.394C110.324 27.4593 110.427 27.52 110.52 27.576C110.623 27.6227 110.758 27.6833 110.926 27.758C111.103 27.8327 111.243 27.898 111.346 27.954C111.775 28.178 112.121 28.4393 112.382 28.738C112.643 29.0273 112.774 29.4007 112.774 29.858C112.774 30.558 112.522 31.0993 112.018 31.482C111.514 31.8647 110.847 32.056 110.016 32.056C109.157 32.056 108.439 31.9113 107.86 31.622V29.802C108.504 30.25 109.185 30.474 109.904 30.474C110.417 30.474 110.674 30.3107 110.674 29.984C110.674 29.9 110.651 29.8207 110.604 29.746C110.557 29.6713 110.478 29.6013 110.366 29.536C110.254 29.4707 110.151 29.4193 110.058 29.382C109.965 29.3353 109.829 29.2747 109.652 29.2C109.475 29.1253 109.339 29.0647 109.246 29.018C108.303 28.57 107.832 27.898 107.832 27.002C107.832 26.3113 108.093 25.7747 108.616 25.392C109.148 25.0093 109.806 24.818 110.59 24.818C111.318 24.818 111.925 24.916 112.41 25.112ZM114.098 32V24.902H116.142V32H114.098ZM114.28 23.684C114.046 23.4507 113.93 23.1707 113.93 22.844C113.93 22.5173 114.046 22.2373 114.28 22.004C114.513 21.7707 114.793 21.654 115.12 21.654C115.446 21.654 115.726 21.7707 115.96 22.004C116.193 22.2373 116.31 22.5173 116.31 22.844C116.31 23.1707 116.193 23.4507 115.96 23.684C115.726 23.9173 115.446 24.034 115.12 24.034C114.793 24.034 114.513 23.9173 114.28 23.684ZM122.293 24.902H124.337V32H122.293V30.866C121.919 31.6593 121.201 32.056 120.137 32.056C119.409 32.056 118.839 31.8553 118.429 31.454C118.027 31.0433 117.827 30.4413 117.827 29.648V24.902H119.871V29.186C119.871 30.0167 120.235 30.432 120.963 30.432C121.849 30.432 122.293 29.8393 122.293 28.654V24.902ZM128.062 24.902V26.106C128.239 25.714 128.51 25.406 128.874 25.182C129.247 24.9487 129.69 24.832 130.204 24.832C130.932 24.832 131.501 25.0513 131.912 25.49C132.322 25.9193 132.528 26.554 132.528 27.394V32H130.484V27.772C130.484 27.352 130.386 27.0347 130.19 26.82C129.994 26.596 129.718 26.484 129.364 26.484C128.99 26.484 128.678 26.6333 128.426 26.932C128.183 27.2213 128.062 27.66 128.062 28.248V32H126.018V24.902H128.062Z" fill="white"/>
</g>
<g clip-path="url(#clip1_1124_4113)">
<path d="M161.583 111.188L151.274 84.6508C150.57 82.8364 149.003 81.5775 147.08 81.2806C145.158 80.9836 143.285 81.7119 142.069 83.2281L124.234 105.427C123.018 106.943 122.712 108.93 123.416 110.742C124.121 112.555 125.69 113.814 127.61 114.11C128.576 114.259 129.481 113.596 129.63 112.63C129.779 111.665 129.116 110.76 128.15 110.61C127.185 110.461 126.834 109.758 126.718 109.46C126.602 109.162 126.398 108.389 126.996 107.643L144.83 85.4444C145.429 84.6988 146.227 84.7302 146.54 84.7788C146.854 84.8275 147.624 85.038 147.972 85.9315L158.282 112.469C158.629 113.362 158.202 114.038 158.001 114.287C157.801 114.536 157.235 115.099 156.289 114.953L134.712 111.624C133.747 111.474 132.842 112.138 132.693 113.103C132.543 114.069 133.206 114.974 134.172 115.123L155.749 118.452C157.669 118.749 159.544 118.021 160.762 116.506C161.98 114.99 162.287 113.003 161.583 111.188H161.583Z" fill="#FF1934"/>
<path d="M141.779 107.36C141.402 107.638 141.159 108.047 141.088 108.507C141.051 108.748 141.06 108.975 141.114 109.206C141.168 109.438 141.271 109.633 141.398 109.832C141.546 110.034 141.726 110.174 141.909 110.292C142.115 110.413 142.326 110.492 142.568 110.529C143.027 110.6 143.492 110.493 143.87 110.214C144.27 109.941 144.513 109.53 144.588 109.047C144.662 108.564 144.529 108.122 144.272 107.745C143.717 106.988 142.536 106.806 141.779 107.361V107.36Z" fill="#FF1934"/>
<path d="M147.368 92.4275C147.243 91.479 146.616 90.5587 145.671 90.4134C144.726 90.2675 143.851 90.9561 143.446 91.8227C141.847 95.2409 142.542 99.3376 141.865 103.724C141.719 104.669 142.367 105.554 143.313 105.7C144.258 105.846 145.142 105.197 145.288 104.252C145.965 99.8656 147.862 96.1689 147.368 92.4275Z" fill="#FF1934"/>
<path d="M159.192 124.924L147.336 120.744C146.525 120.458 145.059 120.252 143.409 120.19C141.759 120.129 140.273 120.226 139.435 120.45L127.135 123.732C126.297 123.956 126.279 124.261 127.089 124.547C127.9 124.832 129.368 125.039 131.016 125.1C131.845 125.131 132.525 125.036 132.534 124.888C132.543 124.74 131.877 124.595 131.048 124.564C130.236 124.534 129.839 124.422 129.706 124.375C129.573 124.328 129.308 124.207 129.721 124.097L142.021 120.814C142.433 120.704 143.107 120.715 143.377 120.725C143.647 120.735 144.318 120.774 144.718 120.915L156.574 125.094C156.973 125.235 156.696 125.336 156.557 125.373C156.419 125.41 156.012 125.492 155.2 125.462L136.681 124.773C135.852 124.742 135.173 124.837 135.164 124.985C135.155 125.133 135.821 125.278 136.65 125.309L155.169 125.997C156.817 126.059 158.304 125.962 159.144 125.738C159.984 125.514 160.002 125.209 159.192 124.924V124.924Z" fill="#CCCCCC"/>
<path d="M142.101 124.173C141.817 124.212 141.663 124.274 141.658 124.344C141.656 124.381 141.691 124.417 141.764 124.452C141.837 124.488 141.948 124.52 142.077 124.551C142.226 124.584 142.394 124.607 142.562 124.626C142.75 124.646 142.936 124.66 143.144 124.668C143.538 124.683 143.916 124.67 144.199 124.63C144.502 124.591 144.657 124.529 144.661 124.456C144.665 124.382 144.501 124.312 144.239 124.252C143.683 124.131 142.668 124.093 142.1 124.173H142.101Z" fill="#CCCCCC"/>
<path d="M144.994 121.913C144.774 121.766 144.138 121.619 143.326 121.588C142.515 121.558 141.863 121.658 141.627 121.788C140.696 122.303 141.773 122.941 141.734 123.613C141.725 123.757 142.376 123.899 143.187 123.93C143.999 123.96 144.663 123.867 144.672 123.722C144.712 123.051 145.859 122.495 144.993 121.914L144.994 121.913Z" fill="#CCCCCC"/>
</g>
<path d="M21.0871 140.51V141.36C20.6804 141.093 20.1938 140.96 19.6271 140.96C19.2204 140.96 18.8971 141.057 18.6571 141.25C18.4171 141.437 18.2971 141.683 18.2971 141.99C18.2971 142.15 18.3271 142.293 18.3871 142.42C18.4538 142.547 18.5671 142.667 18.7271 142.78C18.8871 142.887 19.0238 142.97 19.1371 143.03C19.2504 143.083 19.4271 143.163 19.6671 143.27C19.8938 143.37 20.0671 143.45 20.1871 143.51C20.3071 143.563 20.4604 143.653 20.6471 143.78C20.8404 143.9 20.9838 144.02 21.0771 144.14C21.1771 144.253 21.2638 144.407 21.3371 144.6C21.4171 144.787 21.4571 144.99 21.4571 145.21C21.4571 145.803 21.2538 146.263 20.8471 146.59C20.4404 146.91 19.9171 147.07 19.2771 147.07C18.5704 147.07 17.9704 146.927 17.4771 146.64V145.77C17.9638 146.137 18.5571 146.32 19.2571 146.32C19.6771 146.32 20.0071 146.227 20.2471 146.04C20.4871 145.853 20.6071 145.583 20.6071 145.23C20.6071 145.083 20.5771 144.953 20.5171 144.84C20.4638 144.72 20.3704 144.613 20.2371 144.52C20.1104 144.42 19.9871 144.34 19.8671 144.28C19.7538 144.213 19.5971 144.133 19.3971 144.04C19.3571 144.02 19.2971 143.993 19.2171 143.96C18.9304 143.833 18.7104 143.73 18.5571 143.65C18.4104 143.57 18.2338 143.453 18.0271 143.3C17.8271 143.14 17.6804 142.957 17.5871 142.75C17.4938 142.543 17.4471 142.303 17.4471 142.03C17.4471 141.457 17.6504 141.01 18.0571 140.69C18.4704 140.363 18.9871 140.2 19.6071 140.2C20.1871 140.2 20.6804 140.303 21.0871 140.51ZM25.4913 144.66H24.6113C24.1846 144.66 23.8646 144.743 23.6513 144.91C23.4379 145.077 23.3313 145.287 23.3313 145.54C23.3313 145.793 23.4146 146 23.5813 146.16C23.7479 146.313 23.9913 146.39 24.3113 146.39C24.6713 146.39 24.9579 146.29 25.1713 146.09C25.3846 145.883 25.4913 145.623 25.4913 145.31V144.66ZM22.8713 142.99V142.2C23.2513 141.967 23.7513 141.85 24.3713 141.85C25.6446 141.85 26.2813 142.497 26.2813 143.79V147H25.5013V146.4C25.2413 146.833 24.7679 147.05 24.0813 147.05C23.6079 147.05 23.2246 146.91 22.9313 146.63C22.6446 146.35 22.5013 145.997 22.5013 145.57C22.5013 145.083 22.6846 144.707 23.0513 144.44C23.4246 144.167 23.9313 144.03 24.5713 144.03H25.4913V143.77C25.4913 143.37 25.4013 143.07 25.2213 142.87C25.0413 142.663 24.7379 142.56 24.3113 142.56C23.7713 142.56 23.2913 142.703 22.8713 142.99ZM27.7231 147V139.93H28.5131V147H27.7231ZM31.9471 146.36C32.3604 146.36 32.7104 146.207 32.9971 145.9C33.2904 145.593 33.4371 145.103 33.4371 144.43C33.4371 143.79 33.2871 143.32 32.9871 143.02C32.6871 142.72 32.3571 142.57 31.9971 142.57C31.5771 142.57 31.2271 142.74 30.9471 143.08C30.6738 143.413 30.5371 143.893 30.5371 144.52C30.5371 145.067 30.6704 145.51 30.9371 145.85C31.2038 146.19 31.5404 146.36 31.9471 146.36ZM33.4371 139.93H34.2271V147H33.4371V146.25C33.0771 146.803 32.5571 147.08 31.8771 147.08C31.2038 147.08 30.6738 146.83 30.2871 146.33C29.9071 145.83 29.7171 145.223 29.7171 144.51C29.7171 143.717 29.9204 143.077 30.3271 142.59C30.7338 142.097 31.2571 141.85 31.8971 141.85C32.5571 141.85 33.0704 142.133 33.4371 142.7V139.93ZM37.7509 147.09C37.0243 147.09 36.4476 146.847 36.0209 146.36C35.6009 145.867 35.3909 145.247 35.3909 144.5C35.3909 143.747 35.6076 143.12 36.0409 142.62C36.4809 142.113 37.0509 141.86 37.7509 141.86C38.5176 141.86 39.1076 142.107 39.5209 142.6C39.9409 143.093 40.1509 143.72 40.1509 144.48C40.1509 145.233 39.9376 145.857 39.5109 146.35C39.0843 146.843 38.4976 147.09 37.7509 147.09ZM37.7509 142.56C37.2709 142.56 36.8943 142.747 36.6209 143.12C36.3476 143.493 36.2109 143.95 36.2109 144.49C36.2109 145.017 36.3509 145.467 36.6309 145.84C36.9109 146.207 37.2843 146.39 37.7509 146.39C38.2576 146.39 38.6476 146.21 38.9209 145.85C39.1943 145.483 39.3309 145.03 39.3309 144.49C39.3309 143.93 39.2009 143.47 38.9409 143.11C38.6809 142.743 38.2843 142.56 37.7509 142.56ZM45.0676 144.54H47.4576L47.3276 144.15L46.2776 140.91C46.1976 141.197 45.8376 142.28 45.1976 144.16L45.0676 144.54ZM48.2776 147L47.6876 145.23H44.8376L44.2376 147H43.3676L45.7176 140.26H46.8376L49.1476 147H48.2776ZM51.012 141.93V142.81C51.312 142.177 51.8453 141.86 52.612 141.86C53.1053 141.86 53.4986 142.01 53.792 142.31C54.0853 142.61 54.232 143.01 54.232 143.51V147H53.442V143.72C53.442 143.347 53.3453 143.063 53.152 142.87C52.9653 142.67 52.7186 142.57 52.412 142.57C52.032 142.57 51.702 142.717 51.422 143.01C51.1486 143.303 51.012 143.71 51.012 144.23V147H50.232V141.93H51.012ZM57.5623 146.36C57.9757 146.36 58.3257 146.207 58.6123 145.9C58.9057 145.593 59.0523 145.103 59.0523 144.43C59.0523 143.79 58.9023 143.32 58.6023 143.02C58.3023 142.72 57.9723 142.57 57.6123 142.57C57.1923 142.57 56.8423 142.74 56.5623 143.08C56.289 143.413 56.1523 143.893 56.1523 144.52C56.1523 145.067 56.2857 145.51 56.5523 145.85C56.819 146.19 57.1557 146.36 57.5623 146.36ZM59.0523 139.93H59.8423V147H59.0523V146.25C58.6923 146.803 58.1723 147.08 57.4923 147.08C56.819 147.08 56.289 146.83 55.9023 146.33C55.5223 145.83 55.3323 145.223 55.3323 144.51C55.3323 143.717 55.5357 143.077 55.9423 142.59C56.349 142.097 56.8723 141.85 57.5123 141.85C58.1723 141.85 58.6857 142.133 59.0523 142.7V139.93ZM64.0362 144.66H63.1562C62.7295 144.66 62.4095 144.743 62.1962 144.91C61.9828 145.077 61.8762 145.287 61.8762 145.54C61.8762 145.793 61.9595 146 62.1262 146.16C62.2928 146.313 62.5362 146.39 62.8562 146.39C63.2162 146.39 63.5028 146.29 63.7162 146.09C63.9295 145.883 64.0362 145.623 64.0362 145.31V144.66ZM61.4162 142.99V142.2C61.7962 141.967 62.2962 141.85 62.9162 141.85C64.1895 141.85 64.8262 142.497 64.8262 143.79V147H64.0462V146.4C63.7862 146.833 63.3128 147.05 62.6262 147.05C62.1528 147.05 61.7695 146.91 61.4762 146.63C61.1895 146.35 61.0462 145.997 61.0462 145.57C61.0462 145.083 61.2295 144.707 61.5962 144.44C61.9695 144.167 62.4762 144.03 63.1162 144.03H64.0362V143.77C64.0362 143.37 63.9462 143.07 63.7662 142.87C63.5862 142.663 63.2828 142.56 62.8562 142.56C62.3162 142.56 61.8362 142.703 61.4162 142.99ZM69.7595 142.57V145.54C69.7595 146.08 70.0128 146.35 70.5195 146.35C70.7795 146.35 71.0095 146.273 71.2095 146.12V146.87C70.9895 146.99 70.7428 147.05 70.4695 147.05C69.4695 147.05 68.9695 146.54 68.9695 145.52V142.57H68.1595V141.93H68.9695V140.67H69.7595V141.93H71.1595V142.57H69.7595ZM72.4009 147V141.93H73.1909V147H72.4009ZM72.4209 140.71C72.3275 140.61 72.2809 140.487 72.2809 140.34C72.2809 140.193 72.3275 140.07 72.4209 139.97C72.5209 139.87 72.6442 139.82 72.7909 139.82C72.9375 139.82 73.0609 139.87 73.1609 139.97C73.2609 140.07 73.3109 140.193 73.3109 140.34C73.3109 140.487 73.2609 140.61 73.1609 140.71C73.0609 140.803 72.9375 140.85 72.7909 140.85C72.6442 140.85 72.5209 140.803 72.4209 140.71ZM76.6248 146.36C77.0382 146.36 77.3882 146.207 77.6748 145.9C77.9682 145.593 78.1148 145.103 78.1148 144.43C78.1148 143.79 77.9648 143.32 77.6648 143.02C77.3648 142.72 77.0348 142.57 76.6748 142.57C76.2548 142.57 75.9048 142.74 75.6248 143.08C75.3515 143.413 75.2148 143.893 75.2148 144.52C75.2148 145.067 75.3482 145.51 75.6148 145.85C75.8815 146.19 76.2182 146.36 76.6248 146.36ZM78.1148 139.93H78.9048V147H78.1148V146.25C77.7548 146.803 77.2348 147.08 76.5548 147.08C75.8815 147.08 75.3515 146.83 74.9648 146.33C74.5848 145.83 74.3948 145.223 74.3948 144.51C74.3948 143.717 74.5982 143.077 75.0048 142.59C75.4115 142.097 75.9348 141.85 76.5748 141.85C77.2348 141.85 77.7482 142.133 78.1148 142.7V139.93ZM83.0987 144.66H82.2187C81.792 144.66 81.472 144.743 81.2587 144.91C81.0453 145.077 80.9387 145.287 80.9387 145.54C80.9387 145.793 81.022 146 81.1887 146.16C81.3553 146.313 81.5987 146.39 81.9187 146.39C82.2787 146.39 82.5653 146.29 82.7787 146.09C82.992 145.883 83.0987 145.623 83.0987 145.31V144.66ZM80.4787 142.99V142.2C80.8587 141.967 81.3587 141.85 81.9787 141.85C83.252 141.85 83.8887 142.497 83.8887 143.79V147H83.1087V146.4C82.8487 146.833 82.3753 147.05 81.6887 147.05C81.2153 147.05 80.832 146.91 80.5387 146.63C80.252 146.35 80.1087 145.997 80.1087 145.57C80.1087 145.083 80.292 144.707 80.6587 144.44C81.032 144.167 81.5387 144.03 82.1787 144.03H83.0987V143.77C83.0987 143.37 83.0087 143.07 82.8287 142.87C82.6487 142.663 82.3453 142.56 81.9187 142.56C81.3787 142.56 80.8987 142.703 80.4787 142.99ZM85.2905 147V139.97H86.0705V147H85.2905ZM87.1005 144.34L89.1605 147H88.2105L86.1705 144.34L88.1605 141.93H89.1005L87.1005 144.34ZM93.3166 141.93V142.75C93.5966 142.157 94.0733 141.86 94.7466 141.86C95.5266 141.86 96.02 142.19 96.2266 142.85C96.3733 142.53 96.5766 142.287 96.8366 142.12C97.1033 141.947 97.4 141.86 97.7266 141.86C98.2533 141.86 98.65 142.01 98.9166 142.31C99.1833 142.61 99.3166 143.013 99.3166 143.52V147H98.5266V143.72C98.5266 142.953 98.2033 142.57 97.5566 142.57C97.2366 142.57 96.95 142.717 96.6966 143.01C96.4433 143.297 96.3166 143.703 96.3166 144.23V147H95.5266V143.72C95.5266 142.953 95.2033 142.57 94.5566 142.57C94.2366 142.57 93.95 142.717 93.6966 143.01C93.4433 143.297 93.3166 143.703 93.3166 144.23V147H92.5366V141.93H93.3166ZM103.95 144.14V143.94C103.95 143.52 103.837 143.187 103.61 142.94C103.384 142.687 103.07 142.56 102.67 142.56C102.29 142.56 101.967 142.697 101.7 142.97C101.434 143.243 101.277 143.633 101.23 144.14H103.95ZM104.42 146V146.74C104.027 146.947 103.547 147.05 102.98 147.05C102.214 147.05 101.594 146.817 101.12 146.35C100.654 145.877 100.42 145.253 100.42 144.48C100.42 143.673 100.63 143.037 101.05 142.57C101.47 142.103 102.01 141.87 102.67 141.87C103.304 141.87 103.807 142.073 104.18 142.48C104.554 142.887 104.74 143.463 104.74 144.21C104.74 144.423 104.724 144.62 104.69 144.8H101.23C101.29 145.3 101.48 145.683 101.8 145.95C102.12 146.217 102.54 146.35 103.06 146.35C103.627 146.35 104.08 146.233 104.42 146ZM106.725 141.93V142.81C107.025 142.177 107.558 141.86 108.325 141.86C108.818 141.86 109.212 142.01 109.505 142.31C109.798 142.61 109.945 143.01 109.945 143.51V147H109.155V143.72C109.155 143.347 109.058 143.063 108.865 142.87C108.678 142.67 108.432 142.57 108.125 142.57C107.745 142.57 107.415 142.717 107.135 143.01C106.862 143.303 106.725 143.71 106.725 144.23V147H105.945V141.93H106.725ZM111.865 144.49C111.872 145.037 112.039 145.493 112.365 145.86C112.692 146.22 113.155 146.4 113.755 146.4C114.142 146.4 114.502 146.29 114.835 146.07V146.82C114.515 147.013 114.122 147.11 113.655 147.11C112.855 147.11 112.219 146.857 111.745 146.35C111.279 145.837 111.045 145.213 111.045 144.48C111.045 143.76 111.279 143.14 111.745 142.62C112.219 142.1 112.862 141.84 113.675 141.84C114.109 141.84 114.495 141.933 114.835 142.12V142.87C114.529 142.663 114.169 142.56 113.755 142.56C113.182 142.56 112.722 142.747 112.375 143.12C112.035 143.487 111.865 143.943 111.865 144.49ZM119.202 141.93H119.992V147H119.202V146.12C118.936 146.747 118.406 147.06 117.612 147.06C117.112 147.06 116.716 146.913 116.422 146.62C116.136 146.32 115.992 145.92 115.992 145.42V141.93H116.782V145.22C116.782 145.587 116.876 145.867 117.062 146.06C117.249 146.253 117.502 146.35 117.822 146.35C118.242 146.35 118.576 146.203 118.822 145.91C119.076 145.617 119.202 145.22 119.202 144.72V141.93ZM121.453 147V139.97H122.233V147H121.453ZM123.263 144.34L125.323 147H124.373L122.333 144.34L124.323 141.93H125.263L123.263 144.34ZM129.407 141.93H130.197V147H129.407V146.12C129.141 146.747 128.611 147.06 127.817 147.06C127.317 147.06 126.921 146.913 126.627 146.62C126.341 146.32 126.197 145.92 126.197 145.42V141.93H126.987V145.22C126.987 145.587 127.081 145.867 127.267 146.06C127.454 146.253 127.707 146.35 128.027 146.35C128.447 146.35 128.781 146.203 129.027 145.91C129.281 145.617 129.407 145.22 129.407 144.72V141.93ZM133.888 146.36C134.314 146.36 134.664 146.193 134.938 145.86C135.211 145.52 135.348 145.04 135.348 144.42C135.348 143.867 135.214 143.42 134.948 143.08C134.681 142.74 134.344 142.57 133.938 142.57C133.531 142.57 133.178 142.72 132.878 143.02C132.584 143.313 132.438 143.797 132.438 144.47C132.438 145.117 132.588 145.593 132.888 145.9C133.188 146.207 133.521 146.36 133.888 146.36ZM132.438 141.93V142.7C132.791 142.133 133.314 141.85 134.008 141.85C134.681 141.85 135.208 142.097 135.588 142.59C135.974 143.077 136.168 143.687 136.168 144.42C136.168 145.2 135.964 145.84 135.558 146.34C135.158 146.833 134.634 147.08 133.988 147.08C133.321 147.08 132.804 146.797 132.438 146.23V148.97H131.658V141.93H132.438ZM137.372 147V141.93H138.162V147H137.372ZM137.392 140.71C137.298 140.61 137.252 140.487 137.252 140.34C137.252 140.193 137.298 140.07 137.392 139.97C137.492 139.87 137.615 139.82 137.762 139.82C137.908 139.82 138.032 139.87 138.132 139.97C138.232 140.07 138.282 140.193 138.282 140.34C138.282 140.487 138.232 140.61 138.132 140.71C138.032 140.803 137.908 140.85 137.762 140.85C137.615 140.85 137.492 140.803 137.392 140.71ZM145.257 141.93H146.047V147H145.257V146.12C144.99 146.747 144.46 147.06 143.667 147.06C143.167 147.06 142.77 146.913 142.477 146.62C142.19 146.32 142.047 145.92 142.047 145.42V141.93H142.837V145.22C142.837 145.587 142.93 145.867 143.117 146.06C143.304 146.253 143.557 146.35 143.877 146.35C144.297 146.35 144.63 146.203 144.877 145.91C145.13 145.617 145.257 145.22 145.257 144.72V141.93ZM148.287 141.93V142.81C148.587 142.177 149.121 141.86 149.887 141.86C150.381 141.86 150.774 142.01 151.067 142.31C151.361 142.61 151.507 143.01 151.507 143.51V147H150.717V143.72C150.717 143.347 150.621 143.063 150.427 142.87C150.241 142.67 149.994 142.57 149.687 142.57C149.307 142.57 148.977 142.717 148.697 143.01C148.424 143.303 148.287 143.71 148.287 144.23V147H147.507V141.93H148.287ZM153.998 142.57V145.54C153.998 146.08 154.251 146.35 154.758 146.35C155.018 146.35 155.248 146.273 155.448 146.12V146.87C155.228 146.99 154.981 147.05 154.708 147.05C153.708 147.05 153.208 146.54 153.208 145.52V142.57H152.398V141.93H153.208V140.67H153.998V141.93H155.398V142.57H153.998ZM159.749 141.93H160.539V147H159.749V146.12C159.482 146.747 158.952 147.06 158.159 147.06C157.659 147.06 157.262 146.913 156.969 146.62C156.682 146.32 156.539 145.92 156.539 145.42V141.93H157.329V145.22C157.329 145.587 157.422 145.867 157.609 146.06C157.796 146.253 158.049 146.35 158.369 146.35C158.789 146.35 159.122 146.203 159.369 145.91C159.622 145.617 159.749 145.22 159.749 144.72V141.93ZM162 147V139.97H162.78V147H162ZM163.81 144.34L165.87 147H164.92L162.88 144.34L164.87 141.93H165.81L163.81 144.34ZM170.026 141.93V142.75C170.306 142.157 170.782 141.86 171.456 141.86C172.236 141.86 172.729 142.19 172.936 142.85C173.082 142.53 173.286 142.287 173.546 142.12C173.812 141.947 174.109 141.86 174.436 141.86C174.962 141.86 175.359 142.01 175.626 142.31C175.892 142.61 176.026 143.013 176.026 143.52V147H175.236V143.72C175.236 142.953 174.912 142.57 174.266 142.57C173.946 142.57 173.659 142.717 173.406 143.01C173.152 143.297 173.026 143.703 173.026 144.23V147H172.236V143.72C172.236 142.953 171.912 142.57 171.266 142.57C170.946 142.57 170.659 142.717 170.406 143.01C170.152 143.297 170.026 143.703 170.026 144.23V147H169.246V141.93H170.026ZM180.659 144.14V143.94C180.659 143.52 180.546 143.187 180.319 142.94C180.093 142.687 179.779 142.56 179.379 142.56C178.999 142.56 178.676 142.697 178.409 142.97C178.143 143.243 177.986 143.633 177.939 144.14H180.659ZM181.129 146V146.74C180.736 146.947 180.256 147.05 179.689 147.05C178.923 147.05 178.303 146.817 177.829 146.35C177.363 145.877 177.129 145.253 177.129 144.48C177.129 143.673 177.339 143.037 177.759 142.57C178.179 142.103 178.719 141.87 179.379 141.87C180.013 141.87 180.516 142.073 180.889 142.48C181.263 142.887 181.449 143.463 181.449 144.21C181.449 144.423 181.433 144.62 181.399 144.8H177.939C177.999 145.3 178.189 145.683 178.509 145.95C178.829 146.217 179.249 146.35 179.769 146.35C180.336 146.35 180.789 146.233 181.129 146ZM183.434 141.93V142.75C183.714 142.157 184.19 141.86 184.864 141.86C185.644 141.86 186.137 142.19 186.344 142.85C186.49 142.53 186.694 142.287 186.954 142.12C187.22 141.947 187.517 141.86 187.844 141.86C188.37 141.86 188.767 142.01 189.034 142.31C189.3 142.61 189.434 143.013 189.434 143.52V147H188.644V143.72C188.644 142.953 188.32 142.57 187.674 142.57C187.354 142.57 187.067 142.717 186.814 143.01C186.56 143.297 186.434 143.703 186.434 144.23V147H185.644V143.72C185.644 142.953 185.32 142.57 184.674 142.57C184.354 142.57 184.067 142.717 183.814 143.01C183.56 143.297 183.434 143.703 183.434 144.23V147H182.654V141.93H183.434ZM193.147 146.36C193.554 146.36 193.891 146.19 194.157 145.85C194.424 145.51 194.557 145.067 194.557 144.52C194.557 143.893 194.417 143.413 194.137 143.08C193.864 142.74 193.517 142.57 193.097 142.57C192.737 142.57 192.407 142.72 192.107 143.02C191.807 143.32 191.657 143.79 191.657 144.43C191.657 145.103 191.801 145.593 192.087 145.9C192.381 146.207 192.734 146.36 193.147 146.36ZM191.657 139.93V142.69C192.024 142.13 192.537 141.85 193.197 141.85C193.837 141.85 194.361 142.097 194.767 142.59C195.174 143.077 195.377 143.717 195.377 144.51C195.377 145.223 195.184 145.83 194.797 146.33C194.417 146.83 193.891 147.08 193.217 147.08C192.537 147.08 192.017 146.803 191.657 146.25V147H190.867V139.93H191.657ZM199.771 144.14V143.94C199.771 143.52 199.657 143.187 199.431 142.94C199.204 142.687 198.891 142.56 198.491 142.56C198.111 142.56 197.787 142.697 197.521 142.97C197.254 143.243 197.097 143.633 197.051 144.14H199.771ZM200.241 146V146.74C199.847 146.947 199.367 147.05 198.801 147.05C198.034 147.05 197.414 146.817 196.941 146.35C196.474 145.877 196.241 145.253 196.241 144.48C196.241 143.673 196.451 143.037 196.871 142.57C197.291 142.103 197.831 141.87 198.491 141.87C199.124 141.87 199.627 142.073 200.001 142.48C200.374 142.887 200.561 143.463 200.561 144.21C200.561 144.423 200.544 144.62 200.511 144.8H197.051C197.111 145.3 197.301 145.683 197.621 145.95C197.941 146.217 198.361 146.35 198.881 146.35C199.447 146.35 199.901 146.233 200.241 146ZM201.805 147V139.93H202.595V147H201.805ZM204.139 147V141.93H204.929V147H204.139ZM204.159 140.71C204.066 140.61 204.019 140.487 204.019 140.34C204.019 140.193 204.066 140.07 204.159 139.97C204.259 139.87 204.382 139.82 204.529 139.82C204.676 139.82 204.799 139.87 204.899 139.97C204.999 140.07 205.049 140.193 205.049 140.34C205.049 140.487 204.999 140.61 204.899 140.71C204.799 140.803 204.676 140.85 204.529 140.85C204.382 140.85 204.259 140.803 204.159 140.71ZM209.735 146.29H210.945C211.778 146.29 212.408 146.033 212.835 145.52C213.261 145 213.475 144.353 213.475 143.58C213.475 142.847 213.235 142.23 212.755 141.73C212.281 141.23 211.665 140.98 210.905 140.98H209.735V146.29ZM208.915 140.26H210.915C211.908 140.26 212.721 140.57 213.355 141.19C213.995 141.803 214.315 142.6 214.315 143.58C214.315 144.553 214.018 145.367 213.425 146.02C212.838 146.673 212.015 147 210.955 147H208.915V140.26ZM218.216 144.66H217.336C216.909 144.66 216.589 144.743 216.376 144.91C216.163 145.077 216.056 145.287 216.056 145.54C216.056 145.793 216.139 146 216.306 146.16C216.473 146.313 216.716 146.39 217.036 146.39C217.396 146.39 217.683 146.29 217.896 146.09C218.109 145.883 218.216 145.623 218.216 145.31V144.66ZM215.596 142.99V142.2C215.976 141.967 216.476 141.85 217.096 141.85C218.369 141.85 219.006 142.497 219.006 143.79V147H218.226V146.4C217.966 146.833 217.493 147.05 216.806 147.05C216.333 147.05 215.949 146.91 215.656 146.63C215.369 146.35 215.226 145.997 215.226 145.57C215.226 145.083 215.409 144.707 215.776 144.44C216.149 144.167 216.656 144.03 217.296 144.03H218.216V143.77C218.216 143.37 218.126 143.07 217.946 142.87C217.766 142.663 217.463 142.56 217.036 142.56C216.496 142.56 216.016 142.703 215.596 142.99ZM221.188 141.93V142.81C221.488 142.177 222.021 141.86 222.788 141.86C223.281 141.86 223.674 142.01 223.968 142.31C224.261 142.61 224.408 143.01 224.408 143.51V147H223.618V143.72C223.618 143.347 223.521 143.063 223.328 142.87C223.141 142.67 222.894 142.57 222.588 142.57C222.208 142.57 221.878 142.717 221.598 143.01C221.324 143.303 221.188 143.71 221.188 144.23V147H220.408V141.93H221.188ZM228.538 144.66H227.658C227.231 144.66 226.911 144.743 226.698 144.91C226.485 145.077 226.378 145.287 226.378 145.54C226.378 145.793 226.461 146 226.628 146.16C226.795 146.313 227.038 146.39 227.358 146.39C227.718 146.39 228.005 146.29 228.218 146.09C228.431 145.883 228.538 145.623 228.538 145.31V144.66ZM225.918 142.99V142.2C226.298 141.967 226.798 141.85 227.418 141.85C228.691 141.85 229.328 142.497 229.328 143.79V147H228.548V146.4C228.288 146.833 227.815 147.05 227.128 147.05C226.655 147.05 226.271 146.91 225.978 146.63C225.691 146.35 225.548 145.997 225.548 145.57C225.548 145.083 225.731 144.707 226.098 144.44C226.471 144.167 226.978 144.03 227.618 144.03H228.538V143.77C228.538 143.37 228.448 143.07 228.268 142.87C228.088 142.663 227.785 142.56 227.358 142.56C226.818 142.56 226.338 142.703 225.918 142.99ZM234.021 143.83H235.061C235.568 143.83 235.965 143.7 236.251 143.44C236.538 143.173 236.681 142.837 236.681 142.43C236.681 141.977 236.535 141.617 236.241 141.35C235.948 141.083 235.531 140.95 234.991 140.95H234.021V143.83ZM233.211 140.26H234.981C235.761 140.26 236.375 140.463 236.821 140.87C237.275 141.27 237.501 141.79 237.501 142.43C237.501 143.03 237.278 143.53 236.831 143.93C236.385 144.323 235.795 144.52 235.061 144.52H234.021V147H233.211V140.26ZM241.851 144.14V143.94C241.851 143.52 241.737 143.187 241.511 142.94C241.284 142.687 240.971 142.56 240.571 142.56C240.191 142.56 239.867 142.697 239.601 142.97C239.334 143.243 239.177 143.633 239.131 144.14H241.851ZM242.321 146V146.74C241.927 146.947 241.447 147.05 240.881 147.05C240.114 147.05 239.494 146.817 239.021 146.35C238.554 145.877 238.321 145.253 238.321 144.48C238.321 143.673 238.531 143.037 238.951 142.57C239.371 142.103 239.911 141.87 240.571 141.87C241.204 141.87 241.707 142.073 242.081 142.48C242.454 142.887 242.641 143.463 242.641 144.21C242.641 144.423 242.624 144.62 242.591 144.8H239.131C239.191 145.3 239.381 145.683 239.701 145.95C240.021 146.217 240.441 146.35 240.961 146.35C241.527 146.35 241.981 146.233 242.321 146ZM244.625 141.93V142.81C244.925 142.177 245.459 141.86 246.225 141.86C246.719 141.86 247.112 142.01 247.405 142.31C247.699 142.61 247.845 143.01 247.845 143.51V147H247.055V143.72C247.055 143.347 246.959 143.063 246.765 142.87C246.579 142.67 246.332 142.57 246.025 142.57C245.645 142.57 245.315 142.717 245.035 143.01C244.762 143.303 244.625 143.71 244.625 144.23V147H243.845V141.93H244.625ZM252.006 142.1V142.85C251.699 142.663 251.279 142.57 250.746 142.57C250.479 142.57 250.266 142.633 250.106 142.76C249.952 142.88 249.876 143.037 249.876 143.23C249.876 143.35 249.899 143.457 249.946 143.55C249.992 143.637 250.082 143.723 250.216 143.81C250.356 143.897 250.456 143.957 250.516 143.99C250.582 144.017 250.722 144.077 250.936 144.17C251.362 144.343 251.696 144.54 251.936 144.76C252.176 144.98 252.296 145.277 252.296 145.65C252.296 146.083 252.142 146.427 251.836 146.68C251.536 146.933 251.122 147.06 250.596 147.06C249.982 147.06 249.486 146.957 249.106 146.75V145.98C249.552 146.247 250.032 146.38 250.546 146.38C250.852 146.38 251.086 146.32 251.246 146.2C251.406 146.08 251.486 145.917 251.486 145.71C251.486 145.47 251.396 145.283 251.216 145.15C251.042 145.017 250.749 144.867 250.336 144.7C249.956 144.553 249.649 144.37 249.416 144.15C249.189 143.93 249.076 143.633 249.076 143.26C249.076 142.84 249.232 142.507 249.546 142.26C249.866 142.007 250.262 141.88 250.736 141.88C251.262 141.88 251.686 141.953 252.006 142.1ZM253.407 147V141.93H254.197V147H253.407ZM253.427 140.71C253.333 140.61 253.287 140.487 253.287 140.34C253.287 140.193 253.333 140.07 253.427 139.97C253.527 139.87 253.65 139.82 253.797 139.82C253.943 139.82 254.067 139.87 254.167 139.97C254.267 140.07 254.317 140.193 254.317 140.34C254.317 140.487 254.267 140.61 254.167 140.71C254.067 140.803 253.943 140.85 253.797 140.85C253.65 140.85 253.527 140.803 253.427 140.71ZM258.851 141.93H259.641V147H258.851V146.12C258.584 146.747 258.054 147.06 257.261 147.06C256.761 147.06 256.364 146.913 256.071 146.62C255.784 146.32 255.641 145.92 255.641 145.42V141.93H256.431V145.22C256.431 145.587 256.524 145.867 256.711 146.06C256.897 146.253 257.151 146.35 257.471 146.35C257.891 146.35 258.224 146.203 258.471 145.91C258.724 145.617 258.851 145.22 258.851 144.72V141.93ZM261.881 141.93V142.81C262.181 142.177 262.714 141.86 263.481 141.86C263.974 141.86 264.368 142.01 264.661 142.31C264.954 142.61 265.101 143.01 265.101 143.51V147H264.311V143.72C264.311 143.347 264.214 143.063 264.021 142.87C263.834 142.67 263.588 142.57 263.281 142.57C262.901 142.57 262.571 142.717 262.291 143.01C262.018 143.303 261.881 143.71 261.881 144.23V147H261.101V141.93H261.881Z" fill="#2B2B2B"/>
<path d="M108.879 159.69H109.589C110.049 159.69 110.392 159.58 110.619 159.36C110.846 159.14 110.959 158.843 110.959 158.47C110.959 158.103 110.846 157.817 110.619 157.61C110.392 157.397 110.059 157.29 109.619 157.29H108.879V159.69ZM107.619 156.26H109.729C110.489 156.26 111.096 156.467 111.549 156.88C112.009 157.293 112.239 157.823 112.239 158.47C112.239 159.157 112.002 159.703 111.529 160.11C111.062 160.51 110.472 160.71 109.759 160.71H108.879V163H107.619V156.26ZM116.176 160.05V159.9C116.162 159.573 116.072 159.313 115.906 159.12C115.746 158.92 115.509 158.82 115.196 158.82C114.909 158.82 114.659 158.927 114.446 159.14C114.239 159.347 114.106 159.65 114.046 160.05H116.176ZM116.996 161.68V162.72C116.642 162.94 116.132 163.05 115.466 163.05C114.659 163.05 114.022 162.81 113.556 162.33C113.089 161.85 112.856 161.23 112.856 160.47C112.856 159.663 113.076 159.03 113.516 158.57C113.956 158.11 114.506 157.88 115.166 157.88C115.826 157.88 116.349 158.08 116.736 158.48C117.122 158.88 117.316 159.463 117.316 160.23C117.316 160.417 117.292 160.657 117.246 160.95H114.066C114.152 161.317 114.332 161.597 114.606 161.79C114.886 161.983 115.232 162.08 115.646 162.08C116.179 162.08 116.629 161.947 116.996 161.68ZM120.539 161.86C120.865 161.86 121.139 161.733 121.359 161.48C121.579 161.22 121.689 160.883 121.689 160.47C121.689 159.93 121.582 159.533 121.369 159.28C121.155 159.027 120.885 158.9 120.559 158.9C120.212 158.9 119.939 159.037 119.739 159.31C119.539 159.577 119.439 159.94 119.439 160.4C119.439 160.873 119.542 161.237 119.749 161.49C119.955 161.737 120.219 161.86 120.539 161.86ZM121.689 157.93H122.889V162.54C122.889 163.34 122.655 163.94 122.189 164.34C121.729 164.747 121.142 164.95 120.429 164.95C119.762 164.95 119.179 164.83 118.679 164.59V163.37C119.132 163.69 119.675 163.85 120.309 163.85C121.229 163.85 121.689 163.41 121.689 162.53V162.09C121.382 162.59 120.902 162.84 120.249 162.84C119.682 162.84 119.195 162.633 118.789 162.22C118.389 161.8 118.189 161.193 118.189 160.4C118.189 159.667 118.379 159.063 118.759 158.59C119.145 158.11 119.652 157.87 120.279 157.87C120.912 157.87 121.382 158.133 121.689 158.66V157.93ZM126.721 160.82H126.101C125.788 160.82 125.548 160.887 125.381 161.02C125.215 161.147 125.131 161.31 125.131 161.51C125.131 161.937 125.378 162.15 125.871 162.15C126.138 162.15 126.345 162.073 126.491 161.92C126.645 161.76 126.721 161.553 126.721 161.3V160.82ZM124.261 159.3V158.19C124.641 157.957 125.188 157.84 125.901 157.84C127.275 157.84 127.961 158.48 127.961 159.76V163H126.771V162.39C126.538 162.823 126.098 163.04 125.451 163.04C124.971 163.04 124.588 162.9 124.301 162.62C124.021 162.34 123.881 161.987 123.881 161.56C123.881 161.08 124.061 160.703 124.421 160.43C124.781 160.157 125.301 160.02 125.981 160.02H126.721V159.71C126.721 159.43 126.648 159.217 126.501 159.07C126.355 158.923 126.105 158.85 125.751 158.85C125.211 158.85 124.715 159 124.261 159.3ZM130.28 163L128.68 157.93H129.93L130.39 159.6C130.523 160.08 130.633 160.51 130.72 160.89C130.813 161.263 130.87 161.517 130.89 161.65L130.93 161.85C130.996 161.443 131.19 160.693 131.51 159.6L132 157.93H133.09L133.58 159.6C133.726 160.093 133.846 160.53 133.94 160.91C134.04 161.283 134.103 161.533 134.13 161.66L134.16 161.86C134.226 161.467 134.423 160.713 134.75 159.6L135.23 157.93H136.43L134.82 163H133.52L133.07 161.34C132.95 160.907 132.846 160.513 132.76 160.16C132.673 159.8 132.616 159.553 132.59 159.42L132.55 159.21C132.463 159.65 132.29 160.36 132.03 161.34L131.58 163H130.28ZM139.798 160.82H139.178C138.864 160.82 138.624 160.887 138.458 161.02C138.291 161.147 138.208 161.31 138.208 161.51C138.208 161.937 138.454 162.15 138.948 162.15C139.214 162.15 139.421 162.073 139.568 161.92C139.721 161.76 139.798 161.553 139.798 161.3V160.82ZM137.338 159.3V158.19C137.718 157.957 138.264 157.84 138.978 157.84C140.351 157.84 141.038 158.48 141.038 159.76V163H139.848V162.39C139.614 162.823 139.174 163.04 138.528 163.04C138.048 163.04 137.664 162.9 137.378 162.62C137.098 162.34 136.958 161.987 136.958 161.56C136.958 161.08 137.138 160.703 137.498 160.43C137.858 160.157 138.378 160.02 139.058 160.02H139.798V159.71C139.798 159.43 139.724 159.217 139.578 159.07C139.431 158.923 139.181 158.85 138.828 158.85C138.288 158.85 137.791 159 137.338 159.3ZM142.326 163V157.93H143.526V163H142.326ZM142.206 156.41C142.206 156.21 142.276 156.04 142.416 155.9C142.556 155.76 142.726 155.69 142.926 155.69C143.126 155.69 143.296 155.76 143.436 155.9C143.576 156.04 143.646 156.21 143.646 156.41C143.646 156.617 143.576 156.79 143.436 156.93C143.296 157.07 143.126 157.14 142.926 157.14C142.726 157.14 142.556 157.07 142.416 156.93C142.276 156.79 142.206 156.617 142.206 156.41ZM151.154 156.54V157.76C150.654 157.46 150.121 157.31 149.554 157.31C149.241 157.31 148.994 157.38 148.814 157.52C148.641 157.66 148.554 157.84 148.554 158.06C148.554 158.28 148.647 158.463 148.834 158.61C149.027 158.75 149.314 158.907 149.694 159.08C149.961 159.2 150.177 159.307 150.344 159.4C150.511 159.487 150.691 159.61 150.884 159.77C151.084 159.93 151.231 160.123 151.324 160.35C151.424 160.57 151.474 160.823 151.474 161.11C151.474 161.71 151.257 162.19 150.824 162.55C150.397 162.903 149.834 163.08 149.134 163.08C148.374 163.08 147.744 162.937 147.244 162.65V161.36C147.817 161.773 148.444 161.98 149.124 161.98C149.431 161.98 149.677 161.907 149.864 161.76C150.051 161.607 150.144 161.403 150.144 161.15C150.144 161.03 150.121 160.923 150.074 160.83C150.027 160.737 149.931 160.643 149.784 160.55C149.644 160.457 149.534 160.39 149.454 160.35C149.381 160.31 149.224 160.237 148.984 160.13C148.917 160.097 148.867 160.073 148.834 160.06C148.587 159.947 148.387 159.847 148.234 159.76C148.081 159.667 147.914 159.543 147.734 159.39C147.554 159.237 147.417 159.053 147.324 158.84C147.237 158.627 147.194 158.383 147.194 158.11C147.194 157.537 147.404 157.077 147.824 156.73C148.251 156.383 148.814 156.21 149.514 156.21C150.147 156.21 150.694 156.32 151.154 156.54ZM153.61 163L152.01 157.93H153.26L153.72 159.6C153.853 160.08 153.963 160.51 154.05 160.89C154.143 161.263 154.2 161.517 154.22 161.65L154.26 161.85C154.327 161.443 154.52 160.693 154.84 159.6L155.33 157.93H156.42L156.91 159.6C157.057 160.093 157.177 160.53 157.27 160.91C157.37 161.283 157.433 161.533 157.46 161.66L157.49 161.86C157.557 161.467 157.753 160.713 158.08 159.6L158.56 157.93H159.76L158.15 163H156.85L156.4 161.34C156.28 160.907 156.177 160.513 156.09 160.16C156.003 159.8 155.947 159.553 155.92 159.42L155.88 159.21C155.793 159.65 155.62 160.36 155.36 161.34L154.91 163H153.61ZM163.128 160.82H162.508C162.194 160.82 161.954 160.887 161.788 161.02C161.621 161.147 161.538 161.31 161.538 161.51C161.538 161.937 161.784 162.15 162.278 162.15C162.544 162.15 162.751 162.073 162.898 161.92C163.051 161.76 163.128 161.553 163.128 161.3V160.82ZM160.668 159.3V158.19C161.048 157.957 161.594 157.84 162.308 157.84C163.681 157.84 164.368 158.48 164.368 159.76V163H163.178V162.39C162.944 162.823 162.504 163.04 161.858 163.04C161.378 163.04 160.994 162.9 160.708 162.62C160.428 162.34 160.288 161.987 160.288 161.56C160.288 161.08 160.468 160.703 160.828 160.43C161.188 160.157 161.708 160.02 162.388 160.02H163.128V159.71C163.128 159.43 163.054 159.217 162.908 159.07C162.761 158.923 162.511 158.85 162.158 158.85C161.618 158.85 161.121 159 160.668 159.3ZM168.636 158.09V159.15C168.303 158.95 167.886 158.85 167.386 158.85C167.179 158.85 167.016 158.897 166.896 158.99C166.783 159.077 166.726 159.19 166.726 159.33C166.726 159.383 166.733 159.433 166.746 159.48C166.766 159.527 166.796 159.573 166.836 159.62C166.883 159.66 166.926 159.697 166.966 159.73C167.006 159.763 167.063 159.8 167.136 159.84C167.209 159.873 167.273 159.903 167.326 159.93C167.379 159.957 167.453 159.99 167.546 160.03C167.639 160.07 167.713 160.103 167.766 160.13C168.119 160.303 168.399 160.497 168.606 160.71C168.813 160.923 168.916 161.2 168.916 161.54C168.916 162.013 168.746 162.383 168.406 162.65C168.066 162.917 167.613 163.05 167.046 163.05C166.419 163.05 165.913 162.947 165.526 162.74V161.64C165.973 161.94 166.456 162.09 166.976 162.09C167.196 162.09 167.366 162.05 167.486 161.97C167.613 161.883 167.676 161.767 167.676 161.62C167.676 161.533 167.656 161.457 167.616 161.39C167.576 161.317 167.499 161.247 167.386 161.18C167.273 161.113 167.183 161.067 167.116 161.04C167.056 161.007 166.933 160.95 166.746 160.87C166.726 160.863 166.709 160.857 166.696 160.85C166.689 160.843 166.676 160.837 166.656 160.83C166.636 160.823 166.619 160.817 166.606 160.81C165.866 160.477 165.496 159.997 165.496 159.37C165.496 158.903 165.673 158.537 166.026 158.27C166.379 158.003 166.823 157.87 167.356 157.87C167.869 157.87 168.296 157.943 168.636 158.09ZM171.334 158.83V161.41C171.334 161.623 171.39 161.787 171.504 161.9C171.617 162.007 171.774 162.06 171.974 162.06C172.227 162.06 172.46 161.99 172.674 161.85V162.88C172.44 162.993 172.14 163.05 171.774 163.05C170.68 163.05 170.134 162.497 170.134 161.39V158.83H169.374V157.93H170.134V156.71H171.334V157.93H172.594V158.83H171.334ZM176.253 160.82H175.633C175.319 160.82 175.079 160.887 174.913 161.02C174.746 161.147 174.663 161.31 174.663 161.51C174.663 161.937 174.909 162.15 175.403 162.15C175.669 162.15 175.876 162.073 176.023 161.92C176.176 161.76 176.253 161.553 176.253 161.3V160.82ZM173.793 159.3V158.19C174.173 157.957 174.719 157.84 175.433 157.84C176.806 157.84 177.493 158.48 177.493 159.76V163H176.303V162.39C176.069 162.823 175.629 163.04 174.983 163.04C174.503 163.04 174.119 162.9 173.833 162.62C173.553 162.34 173.413 161.987 173.413 161.56C173.413 161.08 173.593 160.703 173.953 160.43C174.313 160.157 174.833 160.02 175.513 160.02H176.253V159.71C176.253 159.43 176.179 159.217 176.033 159.07C175.886 158.923 175.636 158.85 175.283 158.85C174.743 158.85 174.246 159 173.793 159.3Z" fill="#DA011C"/>
<g filter="url(#filter1_d_1124_4113)">
<rect x="82.5" y="196" width="120" height="24" rx="8" fill="#FF1934" shape-rendering="crispEdges"/>
<path d="M137.442 207.288C137.442 206.451 137.671 205.779 138.13 205.272C138.594 204.765 139.212 204.512 139.986 204.512C140.77 204.512 141.391 204.765 141.85 205.272C142.308 205.773 142.538 206.445 142.538 207.288C142.538 208.12 142.306 208.789 141.842 209.296C141.383 209.803 140.767 210.056 139.994 210.056C139.22 210.056 138.602 209.803 138.138 209.296C137.674 208.789 137.442 208.12 137.442 207.288ZM138.522 207.288C138.522 207.853 138.655 208.301 138.922 208.632C139.188 208.963 139.546 209.128 139.994 209.128C140.447 209.128 140.804 208.965 141.066 208.64C141.327 208.309 141.458 207.859 141.458 207.288C141.458 206.717 141.327 206.267 141.066 205.936C140.804 205.605 140.444 205.44 139.986 205.44C139.532 205.44 139.175 205.605 138.914 205.936C138.652 206.267 138.522 206.717 138.522 207.288ZM143.439 210L143.439 204.608L144.447 204.608L144.447 210L143.439 210ZM145.727 207.312L147.735 210L146.463 210L144.527 207.328L146.391 204.608L147.599 204.608L145.727 207.312Z" fill="white"/>
</g>
<defs>
<filter id="filter0_d_1124_4113" x="-4" y="-2" width="293" height="56" filterUnits="userSpaceOnUse" color-interpolation-filters="sRGB">
<feFlood flood-opacity="0" result="BackgroundImageFix"/>
<feColorMatrix in="SourceAlpha" type="matrix" values="0 0 0 0 0 0 0 0 0 0 0 0 0 0 0 0 0 0 127 0" result="hardAlpha"/>
<feOffset dy="2"/>
<feGaussianBlur stdDeviation="2"/>
<feComposite in2="hardAlpha" operator="out"/>
<feColorMatrix type="matrix" values="0 0 0 0 0.168627 0 0 0 0 0.168627 0 0 0 0 0.168627 0 0 0 0.24 0"/>
<feBlend mode="normal" in2="BackgroundImageFix" result="effect1_dropShadow_1124_4113"/>
<feBlend mode="normal" in="SourceGraphic" in2="effect1_dropShadow_1124_4113" result="shape"/>
</filter>
<filter id="filter1_d_1124_4113" x="76.5" y="190" width="136" height="40" filterUnits="userSpaceOnUse" color-interpolation-filters="sRGB">
<feFlood flood-opacity="0" result="BackgroundImageFix"/>
<feColorMatrix in="SourceAlpha" type="matrix" values="0 0 0 0 0 0 0 0 0 0 0 0 0 0 0 0 0 0 127 0" result="hardAlpha"/>
<feOffset dx="2" dy="2"/>
<feGaussianBlur stdDeviation="4"/>
<feComposite in2="hardAlpha" operator="out"/>
<feColorMatrix type="matrix" values="0 0 0 0 0 0 0 0 0 0 0 0 0 0 0 0 0 0 0.12 0"/>
<feBlend mode="normal" in2="BackgroundImageFix" result="effect1_dropShadow_1124_4113"/>
<feBlend mode="normal" in="SourceGraphic" in2="effect1_dropShadow_1124_4113" result="shape"/>
</filter>
<clipPath id="clip0_1124_4113">
<rect width="24" height="24" fill="white" transform="translate(16 16)"/>
</clipPath>
<clipPath id="clip1_1124_4113">
<rect width="64" height="64" fill="white" transform="translate(110.5 72)"/>
</clipPath>
</defs>
</svg>
