<svg width="338" height="375" viewBox="0 0 338 375" fill="none" xmlns="http://www.w3.org/2000/svg">
<rect width="338" height="375" fill="#D3D3D3"/>
<rect x="9" y="50" width="320" height="265" rx="16" fill="white"/>
<g filter="url(#filter0_d_1124_4113)">
<path d="M9 66C9 57.1634 16.1634 50 25 50H313C321.837 50 329 57.1634 329 66V98H9V66Z" fill="#FF1934" shape-rendering="crispEdges"/>
<g clip-path="url(#clip0_1124_4113)">
<path fill-rule="evenodd" clip-rule="evenodd" d="M27 78C27 72.49 31.49 68 37 68C42.51 68 47 72.49 47 78C47 83.51 42.51 88 37 88C31.49 88 27 83.51 27 78ZM28.6 78C28.6 82.63 32.37 86.4 37 86.4C41.63 86.4 45.4 82.63 45.4 78C45.4 73.37 41.63 69.6 37 69.6C32.37 69.6 28.6 73.37 28.6 78ZM32.2 78C32.2 77.56 32.56 77.2 33 77.2H41C41.44 77.2 41.8 77.56 41.8 78C41.8 78.44 41.44 78.8 41 78.8H33C32.56 78.8 32.2 78.44 32.2 78Z" fill="white"/>
</g>
<path d="M63.356 72.984V75C62.6 74.5613 61.816 74.342 61.004 74.342C60.64 74.342 60.36 74.4167 60.164 74.566C59.9773 74.7153 59.884 74.9067 59.884 75.14C59.884 75.3733 60.0007 75.5833 60.234 75.77C60.4673 75.9473 60.8173 76.1387 61.284 76.344C61.5733 76.4747 61.8113 76.5913 61.998 76.694C62.194 76.7873 62.4133 76.9227 62.656 77.1C62.908 77.268 63.104 77.45 63.244 77.646C63.3933 77.8327 63.5193 78.066 63.622 78.346C63.7247 78.626 63.776 78.9293 63.776 79.256C63.776 80.1053 63.4633 80.796 62.838 81.328C62.2127 81.8507 61.382 82.112 60.346 82.112C59.2353 82.112 58.33 81.916 57.63 81.524V79.354C58.4793 79.97 59.3847 80.278 60.346 80.278C60.6727 80.278 60.9433 80.194 61.158 80.026C61.3727 79.8487 61.48 79.62 61.48 79.34C61.48 79.2467 61.466 79.158 61.438 79.074C61.41 78.99 61.3587 78.9107 61.284 78.836C61.2093 78.7613 61.1347 78.7007 61.06 78.654C60.9947 78.598 60.892 78.5373 60.752 78.472C60.6213 78.3973 60.5093 78.3367 60.416 78.29C60.3227 78.2433 60.1827 78.178 59.996 78.094C59.8187 78.01 59.674 77.9447 59.562 77.898C58.9553 77.618 58.4653 77.2727 58.092 76.862C57.728 76.4513 57.546 75.9053 57.546 75.224C57.546 74.412 57.8447 73.7587 58.442 73.264C59.0393 72.76 59.8653 72.508 60.92 72.508C61.8627 72.508 62.6747 72.6667 63.356 72.984ZM68.5454 79.088H67.8874C67.5421 79.088 67.2761 79.1627 67.0894 79.312C66.9027 79.4613 66.8094 79.6527 66.8094 79.886C66.8094 80.362 67.0847 80.6 67.6354 80.6C67.9247 80.6 68.1487 80.5113 68.3074 80.334C68.4661 80.1567 68.5454 79.914 68.5454 79.606V79.088ZM65.2274 77.086V75.252C65.7874 74.9347 66.5947 74.776 67.6494 74.776C68.6574 74.776 69.4087 74.9953 69.9034 75.434C70.3981 75.8633 70.6454 76.5353 70.6454 77.45V82H68.6434V81.132C68.3447 81.7387 67.7567 82.042 66.8794 82.042C66.1887 82.042 65.6474 81.846 65.2554 81.454C64.8727 81.062 64.6814 80.572 64.6814 79.984C64.6814 79.3027 64.9287 78.7753 65.4234 78.402C65.9274 78.0193 66.6694 77.828 67.6494 77.828H68.5454V77.338C68.5454 76.7407 68.1487 76.442 67.3554 76.442C66.5901 76.442 65.8807 76.6567 65.2274 77.086ZM75.7642 79.088H75.1062C74.7608 79.088 74.4948 79.1627 74.3082 79.312C74.1215 79.4613 74.0282 79.6527 74.0282 79.886C74.0282 80.362 74.3035 80.6 74.8542 80.6C75.1435 80.6 75.3675 80.5113 75.5262 80.334C75.6848 80.1567 75.7642 79.914 75.7642 79.606V79.088ZM72.4462 77.086V75.252C73.0062 74.9347 73.8135 74.776 74.8682 74.776C75.8762 74.776 76.6275 74.9953 77.1222 75.434C77.6168 75.8633 77.8642 76.5353 77.8642 77.45V82H75.8622V81.132C75.5635 81.7387 74.9755 82.042 74.0982 82.042C73.4075 82.042 72.8662 81.846 72.4742 81.454C72.0915 81.062 71.9002 80.572 71.9002 79.984C71.9002 79.3027 72.1475 78.7753 72.6422 78.402C73.1462 78.0193 73.8882 77.828 74.8682 77.828H75.7642V77.338C75.7642 76.7407 75.3675 76.442 74.5742 76.442C73.8088 76.442 73.0995 76.6567 72.4462 77.086ZM81.8349 76.4V79.662C81.8349 79.914 81.9049 80.1053 82.0449 80.236C82.1942 80.3667 82.3856 80.432 82.6189 80.432C82.9922 80.432 83.3236 80.3387 83.6129 80.152V81.846C83.2676 81.9953 82.8009 82.07 82.2129 82.07C80.5982 82.07 79.7909 81.2627 79.7909 79.648V76.4H78.7689V74.902H79.7909V73.222H81.8349V74.902H83.4869V76.4H81.8349ZM88.4393 82V74.902H90.4833V82H88.4393ZM88.6213 73.684C88.388 73.4507 88.2713 73.1707 88.2713 72.844C88.2713 72.5173 88.388 72.2373 88.6213 72.004C88.8546 71.7707 89.1346 71.654 89.4613 71.654C89.788 71.654 90.068 71.7707 90.3013 72.004C90.5346 72.2373 90.6513 72.5173 90.6513 72.844C90.6513 73.1707 90.5346 73.4507 90.3013 73.684C90.068 73.9173 89.788 74.034 89.4613 74.034C89.1346 74.034 88.8546 73.9173 88.6213 73.684ZM94.2824 74.902V76.106C94.4598 75.714 94.7304 75.406 95.0944 75.182C95.4678 74.9487 95.9111 74.832 96.4244 74.832C97.1524 74.832 97.7218 75.0513 98.1324 75.49C98.5431 75.9193 98.7484 76.554 98.7484 77.394V82H96.7044V77.772C96.7044 77.352 96.6064 77.0347 96.4104 76.82C96.2144 76.596 95.9391 76.484 95.5844 76.484C95.2111 76.484 94.8984 76.6333 94.6464 76.932C94.4038 77.2213 94.2824 77.66 94.2824 78.248V82H92.2384V74.902H94.2824ZM100.43 82V74.902H102.474V82H100.43ZM100.612 73.684C100.378 73.4507 100.262 73.1707 100.262 72.844C100.262 72.5173 100.378 72.2373 100.612 72.004C100.845 71.7707 101.125 71.654 101.452 71.654C101.778 71.654 102.058 71.7707 102.292 72.004C102.525 72.2373 102.642 72.5173 102.642 72.844C102.642 73.1707 102.525 73.4507 102.292 73.684C102.058 73.9173 101.778 74.034 101.452 74.034C101.125 74.034 100.845 73.9173 100.612 73.684ZM109.773 74.902V76.008C110.165 75.224 110.832 74.832 111.775 74.832C112.773 74.832 113.436 75.28 113.763 76.176C113.921 75.756 114.187 75.4293 114.561 75.196C114.934 74.9533 115.373 74.832 115.877 74.832C116.577 74.832 117.127 75.056 117.529 75.504C117.939 75.9427 118.145 76.5913 118.145 77.45V82H116.101V77.786C116.101 77.3847 116.021 77.0673 115.863 76.834C115.704 76.6007 115.475 76.484 115.177 76.484C114.859 76.484 114.575 76.6147 114.323 76.876C114.08 77.128 113.959 77.5853 113.959 78.248V82H111.915V77.786C111.915 77.3847 111.835 77.0673 111.677 76.834C111.518 76.6007 111.289 76.484 110.991 76.484C110.673 76.484 110.389 76.6147 110.137 76.876C109.894 77.128 109.773 77.5853 109.773 78.248V82H107.729V74.902H109.773ZM124.156 74.902H126.2V82H124.156V80.866C123.783 81.6593 123.064 82.056 122 82.056C121.272 82.056 120.703 81.8553 120.292 81.454C119.891 81.0433 119.69 80.4413 119.69 79.648V74.902H121.734V79.186C121.734 80.0167 122.098 80.432 122.826 80.432C123.713 80.432 124.156 79.8393 124.156 78.654V74.902ZM132.361 75.112V76.862C131.866 76.5727 131.288 76.428 130.625 76.428C130.382 76.428 130.196 76.4793 130.065 76.582C129.934 76.6753 129.869 76.7967 129.869 76.946C129.869 77.03 129.892 77.1093 129.939 77.184C129.986 77.2587 130.06 77.3287 130.163 77.394C130.275 77.4593 130.378 77.52 130.471 77.576C130.574 77.6227 130.709 77.6833 130.877 77.758C131.054 77.8327 131.194 77.898 131.297 77.954C131.726 78.178 132.072 78.4393 132.333 78.738C132.594 79.0273 132.725 79.4007 132.725 79.858C132.725 80.558 132.473 81.0993 131.969 81.482C131.465 81.8647 130.798 82.056 129.967 82.056C129.108 82.056 128.39 81.9113 127.811 81.622V79.802C128.455 80.25 129.136 80.474 129.855 80.474C130.368 80.474 130.625 80.3107 130.625 79.984C130.625 79.9 130.602 79.8207 130.555 79.746C130.508 79.6713 130.429 79.6013 130.317 79.536C130.205 79.4707 130.102 79.4193 130.009 79.382C129.916 79.3353 129.78 79.2747 129.603 79.2C129.426 79.1253 129.29 79.0647 129.197 79.018C128.254 78.57 127.783 77.898 127.783 77.002C127.783 76.3113 128.044 75.7747 128.567 75.392C129.099 75.0093 129.757 74.818 130.541 74.818C131.269 74.818 131.876 74.916 132.361 75.112ZM134.049 82V74.902H136.093V82H134.049ZM134.231 73.684C133.997 73.4507 133.881 73.1707 133.881 72.844C133.881 72.5173 133.997 72.2373 134.231 72.004C134.464 71.7707 134.744 71.654 135.071 71.654C135.397 71.654 135.677 71.7707 135.911 72.004C136.144 72.2373 136.261 72.5173 136.261 72.844C136.261 73.1707 136.144 73.4507 135.911 73.684C135.677 73.9173 135.397 74.034 135.071 74.034C134.744 74.034 134.464 73.9173 134.231 73.684ZM139.892 74.902V76.008C140.284 75.224 140.951 74.832 141.894 74.832C142.892 74.832 143.555 75.28 143.882 76.176C144.04 75.756 144.306 75.4293 144.68 75.196C145.053 74.9533 145.492 74.832 145.996 74.832C146.696 74.832 147.246 75.056 147.648 75.504C148.058 75.9427 148.264 76.5913 148.264 77.45V82H146.22V77.786C146.22 77.3847 146.14 77.0673 145.982 76.834C145.823 76.6007 145.594 76.484 145.296 76.484C144.978 76.484 144.694 76.6147 144.442 76.876C144.199 77.128 144.078 77.5853 144.078 78.248V82H142.034V77.786C142.034 77.3847 141.954 77.0673 141.796 76.834C141.637 76.6007 141.408 76.484 141.11 76.484C140.792 76.484 140.508 76.6147 140.256 76.876C140.013 77.128 139.892 77.5853 139.892 78.248V82H137.848V74.902H139.892ZM155.423 72.102V76.106C155.787 75.2567 156.496 74.832 157.551 74.832C158.242 74.832 158.802 75.0513 159.231 75.49C159.67 75.9287 159.889 76.5913 159.889 77.478V82H157.845V77.8C157.845 77.3893 157.742 77.0673 157.537 76.834C157.332 76.6007 157.066 76.484 156.739 76.484C156.599 76.484 156.464 76.5073 156.333 76.554C156.212 76.5913 156.076 76.666 155.927 76.778C155.778 76.8807 155.656 77.0627 155.563 77.324C155.47 77.576 155.423 77.884 155.423 78.248V82H153.379V72.102H155.423ZM165.896 74.902H167.94V82H165.896V80.866C165.523 81.6593 164.804 82.056 163.74 82.056C163.012 82.056 162.443 81.8553 162.032 81.454C161.631 81.0433 161.43 80.4413 161.43 79.648V74.902H163.474V79.186C163.474 80.0167 163.838 80.432 164.566 80.432C165.453 80.432 165.896 79.8393 165.896 78.654V74.902ZM168.221 84.548V82.994C168.529 83.134 168.795 83.204 169.019 83.204C169.505 83.204 169.747 82.8913 169.747 82.266V74.902H171.777V82.294C171.777 83.0407 171.567 83.638 171.147 84.086C170.727 84.5433 170.121 84.772 169.327 84.772C169.001 84.772 168.632 84.6973 168.221 84.548ZM169.915 73.684C169.682 73.4507 169.565 73.1707 169.565 72.844C169.565 72.5173 169.682 72.2373 169.915 72.004C170.149 71.7707 170.429 71.654 170.755 71.654C171.082 71.654 171.362 71.7707 171.595 72.004C171.829 72.2373 171.945 72.5173 171.945 72.844C171.945 73.1707 171.829 73.4507 171.595 73.684C171.362 73.9173 171.082 74.034 170.755 74.034C170.429 74.034 170.149 73.9173 169.915 73.684ZM176.977 79.088H176.319C175.974 79.088 175.708 79.1627 175.521 79.312C175.334 79.4613 175.241 79.6527 175.241 79.886C175.241 80.362 175.516 80.6 176.067 80.6C176.356 80.6 176.58 80.5113 176.739 80.334C176.898 80.1567 176.977 79.914 176.977 79.606V79.088ZM173.659 77.086V75.252C174.219 74.9347 175.026 74.776 176.081 74.776C177.089 74.776 177.84 74.9953 178.335 75.434C178.83 75.8633 179.077 76.5353 179.077 77.45V82H177.075V81.132C176.776 81.7387 176.188 82.042 175.311 82.042C174.62 82.042 174.079 81.846 173.687 81.454C173.304 81.062 173.113 80.572 173.113 79.984C173.113 79.3027 173.36 78.7753 173.855 78.402C174.359 78.0193 175.101 77.828 176.081 77.828H176.977V77.338C176.977 76.7407 176.58 76.442 175.787 76.442C175.022 76.442 174.312 76.6567 173.659 77.086ZM182.726 74.902V76.106C182.903 75.714 183.174 75.406 183.538 75.182C183.911 74.9487 184.354 74.832 184.868 74.832C185.596 74.832 186.165 75.0513 186.576 75.49C186.986 75.9193 187.192 76.554 187.192 77.394V82H185.148V77.772C185.148 77.352 185.05 77.0347 184.854 76.82C184.658 76.596 184.382 76.484 184.028 76.484C183.654 76.484 183.342 76.6333 183.09 76.932C182.847 77.2213 182.726 77.66 182.726 78.248V82H180.682V74.902H182.726Z" fill="white"/>
</g>
<g clip-path="url(#clip1_1124_4113)">
<path d="M183.374 151.996L176.976 155.518L181.54 157.515L163.14 168.07L174.596 156.282L170.456 155.657L176.457 147.275L175.848 140.608L158.744 142.17L159.664 152.246L149.588 153.167L151.15 170.271L161.118 169.171V179.29H178.293V169.171H188.412V151.996H183.374Z" fill="#FF1934"/>
<path d="M184.308 184.078L177.493 184.505L182.355 184.748L162.759 186.03L174.959 184.599L170.551 184.522L176.942 183.505L176.293 182.695L158.079 182.885L159.059 184.108L148.328 184.22L149.991 186.297L160.607 186.163V187.392H178.897V186.163H189.672V184.078H184.308Z" fill="#CCCCCC"/>
</g>
<path d="M34.1975 213.76H35.0775C35.5642 213.76 35.9342 213.64 36.1875 213.4C36.4475 213.16 36.5775 212.843 36.5775 212.45C36.5775 212.037 36.4475 211.71 36.1875 211.47C35.9275 211.23 35.5508 211.11 35.0575 211.11H34.1975V213.76ZM33.1675 210.26H35.0975C35.8708 210.26 36.4842 210.467 36.9375 210.88C37.3908 211.287 37.6175 211.81 37.6175 212.45C37.6175 213.09 37.3875 213.61 36.9275 214.01C36.4742 214.41 35.8842 214.61 35.1575 214.61H34.1975V217H33.1675V210.26ZM41.7755 214.1V213.92C41.7622 213.54 41.6589 213.24 41.4655 213.02C41.2722 212.793 40.9955 212.68 40.6355 212.68C40.3022 212.68 40.0155 212.803 39.7755 213.05C39.5355 213.29 39.3855 213.64 39.3255 214.1H41.7755ZM42.4055 215.85V216.73C42.0322 216.943 41.5389 217.05 40.9255 217.05C40.1389 217.05 39.5122 216.813 39.0455 216.34C38.5789 215.867 38.3455 215.247 38.3455 214.48C38.3455 213.667 38.5589 213.03 38.9855 212.57C39.4122 212.103 39.9555 211.87 40.6155 211.87C41.2622 211.87 41.7755 212.073 42.1555 212.48C42.5355 212.88 42.7255 213.46 42.7255 214.22C42.7255 214.427 42.7055 214.643 42.6655 214.87H39.3355C39.4022 215.31 39.5889 215.647 39.8955 215.88C40.2022 216.113 40.5889 216.23 41.0555 216.23C41.5955 216.23 42.0455 216.103 42.4055 215.85ZM44.8595 211.93V212.8C45.1595 212.173 45.6861 211.86 46.4395 211.86C46.9395 211.86 47.3361 212.013 47.6295 212.32C47.9228 212.627 48.0695 213.043 48.0695 213.57V217H47.0895V213.8C47.0895 213.447 46.9995 213.177 46.8195 212.99C46.6461 212.803 46.4128 212.71 46.1195 212.71C45.7728 212.71 45.4761 212.847 45.2295 213.12C44.9828 213.387 44.8595 213.763 44.8595 214.25V217H43.8795V211.93H44.8595ZM50.7873 216.89L48.7673 211.93H49.8573L50.4873 213.58L51.2773 215.72C51.3373 215.52 51.5773 214.807 51.9973 213.58L52.5673 211.93H53.6073L51.7773 216.86C51.2906 218.16 50.5473 218.81 49.5473 218.81C49.3673 218.81 49.2139 218.793 49.0873 218.76V217.92C49.1939 217.947 49.3073 217.96 49.4273 217.96C50.0739 217.96 50.5273 217.603 50.7873 216.89ZM57.0963 214.74H56.3363C55.963 214.74 55.6797 214.813 55.4863 214.96C55.2997 215.107 55.2063 215.293 55.2063 215.52C55.2063 215.753 55.2797 215.937 55.4263 216.07C55.573 216.203 55.7863 216.27 56.0663 216.27C56.3863 216.27 56.6363 216.183 56.8163 216.01C57.003 215.83 57.0963 215.597 57.0963 215.31V214.74ZM54.5463 213.14V212.19C54.9397 211.963 55.4597 211.85 56.1063 211.85C57.433 211.85 58.0963 212.493 58.0963 213.78V217H57.1263V216.4C56.8663 216.827 56.4097 217.04 55.7563 217.04C55.2763 217.04 54.8897 216.903 54.5963 216.63C54.3097 216.35 54.1663 215.997 54.1663 215.57C54.1663 215.083 54.3497 214.707 54.7163 214.44C55.083 214.167 55.5963 214.03 56.2563 214.03H57.0963V213.74C57.0963 213.393 57.013 213.133 56.8463 212.96C56.6797 212.78 56.403 212.69 56.0163 212.69C55.4763 212.69 54.9863 212.84 54.5463 213.14ZM59.4166 217V210H60.3966V217H59.4166ZM61.5666 214.35L63.5566 217H62.3866L60.4366 214.35L62.3466 211.93H63.4966L61.5666 214.35ZM64.4566 217V211.93H65.4466V217H64.4566ZM64.5066 210.82C64.3932 210.7 64.3366 210.553 64.3366 210.38C64.3366 210.207 64.3932 210.06 64.5066 209.94C64.6266 209.82 64.7732 209.76 64.9466 209.76C65.1199 209.76 65.2666 209.82 65.3866 209.94C65.5066 210.06 65.5666 210.207 65.5666 210.38C65.5666 210.547 65.5066 210.69 65.3866 210.81C65.2666 210.93 65.1199 210.99 64.9466 210.99C64.7732 210.99 64.6266 210.933 64.5066 210.82ZM68.1377 212.69V215.48C68.1377 215.967 68.3711 216.21 68.8377 216.21C69.1111 216.21 69.3411 216.137 69.5277 215.99V216.87C69.3077 216.99 69.0377 217.05 68.7177 217.05C67.6711 217.05 67.1477 216.52 67.1477 215.46V212.69H66.3577V211.93H67.1477V210.69H68.1377V211.93H69.4677V212.69H68.1377ZM74.0489 211.93V212.74C74.3356 212.153 74.8122 211.86 75.4789 211.86C76.2389 211.86 76.7256 212.187 76.9389 212.84C77.0789 212.527 77.2822 212.287 77.5489 212.12C77.8156 211.947 78.1156 211.86 78.4489 211.86C78.9689 211.86 79.3622 212.013 79.6289 212.32C79.9022 212.627 80.0389 213.05 80.0389 213.59V217H79.0589V213.8C79.0589 213.073 78.7656 212.71 78.1789 212.71C77.8856 212.71 77.6222 212.84 77.3889 213.1C77.1622 213.36 77.0489 213.743 77.0489 214.25V217H76.0689V213.8C76.0689 213.073 75.7722 212.71 75.1789 212.71C74.8922 212.71 74.6322 212.84 74.3989 213.1C74.1656 213.36 74.0489 213.743 74.0489 214.25V217H73.0689V211.93H74.0489ZM84.0397 214.74H83.2797C82.9064 214.74 82.623 214.813 82.4297 214.96C82.243 215.107 82.1497 215.293 82.1497 215.52C82.1497 215.753 82.223 215.937 82.3697 216.07C82.5164 216.203 82.7297 216.27 83.0097 216.27C83.3297 216.27 83.5797 216.183 83.7597 216.01C83.9464 215.83 84.0397 215.597 84.0397 215.31V214.74ZM81.4897 213.14V212.19C81.883 211.963 82.403 211.85 83.0497 211.85C84.3764 211.85 85.0397 212.493 85.0397 213.78V217H84.0697V216.4C83.8097 216.827 83.353 217.04 82.6997 217.04C82.2197 217.04 81.833 216.903 81.5397 216.63C81.253 216.35 81.1097 215.997 81.1097 215.57C81.1097 215.083 81.293 214.707 81.6597 214.44C82.0264 214.167 82.5397 214.03 83.1997 214.03H84.0397V213.74C84.0397 213.393 83.9564 213.133 83.7897 212.96C83.623 212.78 83.3464 212.69 82.9597 212.69C82.4197 212.69 81.9297 212.84 81.4897 213.14ZM86.3999 217V209.93H87.3899V217H86.3999ZM91.4811 214.74H90.7211C90.3478 214.74 90.0644 214.813 89.8711 214.96C89.6844 215.107 89.5911 215.293 89.5911 215.52C89.5911 215.753 89.6644 215.937 89.8111 216.07C89.9578 216.203 90.1711 216.27 90.4511 216.27C90.7711 216.27 91.0211 216.183 91.2011 216.01C91.3878 215.83 91.4811 215.597 91.4811 215.31V214.74ZM88.9311 213.14V212.19C89.3244 211.963 89.8444 211.85 90.4911 211.85C91.8178 211.85 92.4811 212.493 92.4811 213.78V217H91.5111V216.4C91.2511 216.827 90.7944 217.04 90.1411 217.04C89.6611 217.04 89.2744 216.903 88.9811 216.63C88.6944 216.35 88.5511 215.997 88.5511 215.57C88.5511 215.083 88.7344 214.707 89.1011 214.44C89.4678 214.167 89.9811 214.03 90.6411 214.03H91.4811V213.74C91.4811 213.393 91.3978 213.133 91.2311 212.96C91.0644 212.78 90.7878 212.69 90.4011 212.69C89.8611 212.69 89.3711 212.84 88.9311 213.14ZM94.7813 211.93V212.82C95.028 212.193 95.4713 211.88 96.1113 211.88C96.2047 211.88 96.308 211.89 96.4213 211.91V212.87C96.2813 212.81 96.1247 212.78 95.9513 212.78C95.6113 212.78 95.3313 212.93 95.1113 213.23C94.8913 213.53 94.7813 213.887 94.7813 214.3V217H93.8013V211.93H94.7813ZM97.23 217V211.93H98.22V217H97.23ZM97.28 210.82C97.1667 210.7 97.11 210.553 97.11 210.38C97.11 210.207 97.1667 210.06 97.28 209.94C97.4 209.82 97.5467 209.76 97.72 209.76C97.8933 209.76 98.04 209.82 98.16 209.94C98.28 210.06 98.34 210.207 98.34 210.38C98.34 210.547 98.28 210.69 98.16 210.81C98.04 210.93 97.8933 210.99 97.72 210.99C97.5467 210.99 97.4 210.933 97.28 210.82ZM102.311 214.74H101.551C101.178 214.74 100.895 214.813 100.701 214.96C100.515 215.107 100.421 215.293 100.421 215.52C100.421 215.753 100.495 215.937 100.641 216.07C100.788 216.203 101.001 216.27 101.281 216.27C101.601 216.27 101.851 216.183 102.031 216.01C102.218 215.83 102.311 215.597 102.311 215.31V214.74ZM99.7612 213.14V212.19C100.155 211.963 100.675 211.85 101.321 211.85C102.648 211.85 103.311 212.493 103.311 213.78V217H102.341V216.4C102.081 216.827 101.625 217.04 100.971 217.04C100.491 217.04 100.105 216.903 99.8112 216.63C99.5245 216.35 99.3812 215.997 99.3812 215.57C99.3812 215.083 99.5645 214.707 99.9312 214.44C100.298 214.167 100.811 214.03 101.471 214.03H102.311V213.74C102.311 213.393 102.228 213.133 102.061 212.96C101.895 212.78 101.618 212.69 101.231 212.69C100.691 212.69 100.201 212.84 99.7612 213.14ZM108.072 211.93V212.74C108.359 212.153 108.836 211.86 109.502 211.86C110.262 211.86 110.749 212.187 110.962 212.84C111.102 212.527 111.306 212.287 111.572 212.12C111.839 211.947 112.139 211.86 112.472 211.86C112.992 211.86 113.386 212.013 113.652 212.32C113.926 212.627 114.062 213.05 114.062 213.59V217H113.082V213.8C113.082 213.073 112.789 212.71 112.202 212.71C111.909 212.71 111.646 212.84 111.412 213.1C111.186 213.36 111.072 213.743 111.072 214.25V217H110.092V213.8C110.092 213.073 109.796 212.71 109.202 212.71C108.916 212.71 108.656 212.84 108.422 213.1C108.189 213.36 108.072 213.743 108.072 214.25V217H107.092V211.93H108.072ZM118.543 211.93H119.523V217H118.543V216.13C118.276 216.75 117.75 217.06 116.963 217.06C116.463 217.06 116.066 216.913 115.773 216.62C115.48 216.32 115.333 215.91 115.333 215.39V211.93H116.323V215.15C116.323 215.497 116.406 215.763 116.573 215.95C116.746 216.13 116.983 216.22 117.283 216.22C117.663 216.22 117.966 216.087 118.193 215.82C118.426 215.553 118.543 215.177 118.543 214.69V211.93ZM120.941 217V209.93H121.931V217H120.941ZM126.022 214.74H125.262C124.889 214.74 124.605 214.813 124.412 214.96C124.225 215.107 124.132 215.293 124.132 215.52C124.132 215.753 124.205 215.937 124.352 216.07C124.499 216.203 124.712 216.27 124.992 216.27C125.312 216.27 125.562 216.183 125.742 216.01C125.929 215.83 126.022 215.597 126.022 215.31V214.74ZM123.472 213.14V212.19C123.865 211.963 124.385 211.85 125.032 211.85C126.359 211.85 127.022 212.493 127.022 213.78V217H126.052V216.4C125.792 216.827 125.335 217.04 124.682 217.04C124.202 217.04 123.815 216.903 123.522 216.63C123.235 216.35 123.092 215.997 123.092 215.57C123.092 215.083 123.275 214.707 123.642 214.44C124.009 214.167 124.522 214.03 125.182 214.03H126.022V213.74C126.022 213.393 125.939 213.133 125.772 212.96C125.605 212.78 125.329 212.69 124.942 212.69C124.402 212.69 123.912 212.84 123.472 213.14ZM128.382 217V211.93H129.372V217H128.382ZM128.432 210.82C128.319 210.7 128.262 210.553 128.262 210.38C128.262 210.207 128.319 210.06 128.432 209.94C128.552 209.82 128.699 209.76 128.872 209.76C129.046 209.76 129.192 209.82 129.312 209.94C129.432 210.06 129.492 210.207 129.492 210.38C129.492 210.547 129.432 210.69 129.312 210.81C129.192 210.93 129.046 210.99 128.872 210.99C128.699 210.99 128.552 210.933 128.432 210.82ZM134.234 211.93V212.74C134.521 212.153 134.998 211.86 135.664 211.86C136.424 211.86 136.911 212.187 137.124 212.84C137.264 212.527 137.468 212.287 137.734 212.12C138.001 211.947 138.301 211.86 138.634 211.86C139.154 211.86 139.548 212.013 139.814 212.32C140.088 212.627 140.224 213.05 140.224 213.59V217H139.244V213.8C139.244 213.073 138.951 212.71 138.364 212.71C138.071 212.71 137.808 212.84 137.574 213.1C137.348 213.36 137.234 213.743 137.234 214.25V217H136.254V213.8C136.254 213.073 135.958 212.71 135.364 212.71C135.078 212.71 134.818 212.84 134.584 213.1C134.351 213.36 134.234 213.743 134.234 214.25V217H133.254V211.93H134.234ZM144.705 214.1V213.92C144.692 213.54 144.589 213.24 144.395 213.02C144.202 212.793 143.925 212.68 143.565 212.68C143.232 212.68 142.945 212.803 142.705 213.05C142.465 213.29 142.315 213.64 142.255 214.1H144.705ZM145.335 215.85V216.73C144.962 216.943 144.469 217.05 143.855 217.05C143.069 217.05 142.442 216.813 141.975 216.34C141.509 215.867 141.275 215.247 141.275 214.48C141.275 213.667 141.489 213.03 141.915 212.57C142.342 212.103 142.885 211.87 143.545 211.87C144.192 211.87 144.705 212.073 145.085 212.48C145.465 212.88 145.655 213.46 145.655 214.22C145.655 214.427 145.635 214.643 145.595 214.87H142.265C142.332 215.31 142.519 215.647 142.825 215.88C143.132 216.113 143.519 216.23 143.985 216.23C144.525 216.23 144.975 216.103 145.335 215.85ZM147.789 211.93V212.8C148.089 212.173 148.616 211.86 149.369 211.86C149.869 211.86 150.266 212.013 150.559 212.32C150.852 212.627 150.999 213.043 150.999 213.57V217H150.019V213.8C150.019 213.447 149.929 213.177 149.749 212.99C149.576 212.803 149.342 212.71 149.049 212.71C148.702 212.71 148.406 212.847 148.159 213.12C147.912 213.387 147.789 213.763 147.789 214.25V217H146.809V211.93H147.789ZM151.187 218.81V217.98C151.4 218.087 151.614 218.14 151.827 218.14C152.194 218.14 152.377 217.903 152.377 217.43V211.93H153.357V217.45C153.357 217.923 153.23 218.293 152.977 218.56C152.73 218.827 152.377 218.96 151.917 218.96C151.704 218.96 151.46 218.91 151.187 218.81ZM152.427 210.82C152.307 210.7 152.247 210.553 152.247 210.38C152.247 210.207 152.304 210.06 152.417 209.94C152.537 209.82 152.684 209.76 152.857 209.76C153.03 209.76 153.177 209.82 153.297 209.94C153.417 210.06 153.477 210.207 153.477 210.38C153.477 210.547 153.417 210.69 153.297 210.81C153.177 210.93 153.03 210.99 152.857 210.99C152.69 210.99 152.547 210.933 152.427 210.82ZM157.409 214.74H156.649C156.275 214.74 155.992 214.813 155.799 214.96C155.612 215.107 155.519 215.293 155.519 215.52C155.519 215.753 155.592 215.937 155.739 216.07C155.885 216.203 156.099 216.27 156.379 216.27C156.699 216.27 156.949 216.183 157.129 216.01C157.315 215.83 157.409 215.597 157.409 215.31V214.74ZM154.859 213.14V212.19C155.252 211.963 155.772 211.85 156.419 211.85C157.745 211.85 158.409 212.493 158.409 213.78V217H157.439V216.4C157.179 216.827 156.722 217.04 156.069 217.04C155.589 217.04 155.202 216.903 154.909 216.63C154.622 216.35 154.479 215.997 154.479 215.57C154.479 215.083 154.662 214.707 155.029 214.44C155.395 214.167 155.909 214.03 156.569 214.03H157.409V213.74C157.409 213.393 157.325 213.133 157.159 212.96C156.992 212.78 156.715 212.69 156.329 212.69C155.789 212.69 155.299 212.84 154.859 213.14ZM160.709 211.93V212.8C161.009 212.173 161.536 211.86 162.289 211.86C162.789 211.86 163.186 212.013 163.479 212.32C163.772 212.627 163.919 213.043 163.919 213.57V217H162.939V213.8C162.939 213.447 162.849 213.177 162.669 212.99C162.496 212.803 162.262 212.71 161.969 212.71C161.622 212.71 161.326 212.847 161.079 213.12C160.832 213.387 160.709 213.763 160.709 214.25V217H159.729V211.93H160.709ZM167.237 216.02C167.584 216.02 167.884 215.887 168.137 215.62C168.397 215.347 168.527 214.967 168.527 214.48C168.527 213.88 168.404 213.437 168.157 213.15C167.917 212.863 167.624 212.72 167.277 212.72C166.884 212.72 166.574 212.877 166.347 213.19C166.12 213.497 166.007 213.903 166.007 214.41C166.007 214.937 166.127 215.337 166.367 215.61C166.614 215.883 166.904 216.02 167.237 216.02ZM168.527 211.93H169.507V216.57C169.507 217.35 169.284 217.937 168.837 218.33C168.397 218.73 167.83 218.93 167.137 218.93C166.484 218.93 165.934 218.82 165.487 218.6V217.61C165.914 217.89 166.43 218.03 167.037 218.03C168.03 218.03 168.527 217.54 168.527 216.56V216.04C168.2 216.587 167.71 216.86 167.057 216.86C166.484 216.86 165.994 216.65 165.587 216.23C165.18 215.803 164.977 215.203 164.977 214.43C164.977 213.683 165.167 213.07 165.547 212.59C165.927 212.103 166.43 211.86 167.057 211.86C167.73 211.86 168.22 212.147 168.527 212.72V211.93ZM170.823 217V210H171.803V217H170.823ZM172.973 214.35L174.963 217H173.793L171.843 214.35L173.753 211.93H174.903L172.973 214.35ZM175.863 217V211.93H176.853V217H175.863ZM175.913 210.82C175.799 210.7 175.743 210.553 175.743 210.38C175.743 210.207 175.799 210.06 175.913 209.94C176.033 209.82 176.179 209.76 176.353 209.76C176.526 209.76 176.673 209.82 176.793 209.94C176.913 210.06 176.973 210.207 176.973 210.38C176.973 210.547 176.913 210.69 176.793 210.81C176.673 210.93 176.526 210.99 176.353 210.99C176.179 210.99 176.033 210.933 175.913 210.82ZM179.544 212.69V215.48C179.544 215.967 179.777 216.21 180.244 216.21C180.517 216.21 180.747 216.137 180.934 215.99V216.87C180.714 216.99 180.444 217.05 180.124 217.05C179.077 217.05 178.554 216.52 178.554 215.46V212.69H177.764V211.93H178.554V210.69H179.544V211.93H180.874V212.69H179.544ZM187.145 214.74H186.385C186.012 214.74 185.728 214.813 185.535 214.96C185.348 215.107 185.255 215.293 185.255 215.52C185.255 215.753 185.328 215.937 185.475 216.07C185.622 216.203 185.835 216.27 186.115 216.27C186.435 216.27 186.685 216.183 186.865 216.01C187.052 215.83 187.145 215.597 187.145 215.31V214.74ZM184.595 213.14V212.19C184.988 211.963 185.508 211.85 186.155 211.85C187.482 211.85 188.145 212.493 188.145 213.78V217H187.175V216.4C186.915 216.827 186.458 217.04 185.805 217.04C185.325 217.04 184.938 216.903 184.645 216.63C184.358 216.35 184.215 215.997 184.215 215.57C184.215 215.083 184.398 214.707 184.765 214.44C185.132 214.167 185.645 214.03 186.305 214.03H187.145V213.74C187.145 213.393 187.062 213.133 186.895 212.96C186.728 212.78 186.452 212.69 186.065 212.69C185.525 212.69 185.035 212.84 184.595 213.14ZM190.445 211.93V212.8C190.745 212.173 191.272 211.86 192.025 211.86C192.525 211.86 192.922 212.013 193.215 212.32C193.509 212.627 193.655 213.043 193.655 213.57V217H192.675V213.8C192.675 213.447 192.585 213.177 192.405 212.99C192.232 212.803 191.999 212.71 191.705 212.71C191.359 212.71 191.062 212.847 190.815 213.12C190.569 213.387 190.445 213.763 190.445 214.25V217H189.465V211.93H190.445ZM197.643 214.74H196.883C196.51 214.74 196.227 214.813 196.033 214.96C195.847 215.107 195.753 215.293 195.753 215.52C195.753 215.753 195.827 215.937 195.973 216.07C196.12 216.203 196.333 216.27 196.613 216.27C196.933 216.27 197.183 216.183 197.363 216.01C197.55 215.83 197.643 215.597 197.643 215.31V214.74ZM195.093 213.14V212.19C195.487 211.963 196.007 211.85 196.653 211.85C197.98 211.85 198.643 212.493 198.643 213.78V217H197.673V216.4C197.413 216.827 196.957 217.04 196.303 217.04C195.823 217.04 195.437 216.903 195.143 216.63C194.857 216.35 194.713 215.997 194.713 215.57C194.713 215.083 194.897 214.707 195.263 214.44C195.63 214.167 196.143 214.03 196.803 214.03H197.643V213.74C197.643 213.393 197.56 213.133 197.393 212.96C197.227 212.78 196.95 212.69 196.563 212.69C196.023 212.69 195.533 212.84 195.093 213.14ZM199.963 217V210H200.943V217H199.963ZM202.113 214.35L204.103 217H202.933L200.983 214.35L202.893 211.93H204.043L202.113 214.35ZM208.954 214.49H211.114L211.004 214.15C210.751 213.363 210.544 212.713 210.384 212.2C210.224 211.68 210.128 211.357 210.094 211.23L210.044 211.04C209.971 211.353 209.644 212.39 209.064 214.15L208.954 214.49ZM211.924 217L211.394 215.35H208.674L208.134 217H207.044L209.374 210.26H210.724L213.024 217H211.924ZM215.006 211.93V212.8C215.306 212.173 215.833 211.86 216.586 211.86C217.086 211.86 217.483 212.013 217.776 212.32C218.069 212.627 218.216 213.043 218.216 213.57V217H217.236V213.8C217.236 213.447 217.146 213.177 216.966 212.99C216.793 212.803 216.559 212.71 216.266 212.71C215.919 212.71 215.623 212.847 215.376 213.12C215.129 213.387 215.006 213.763 215.006 214.25V217H214.026V211.93H215.006ZM221.584 216.21C221.97 216.21 222.297 216.063 222.564 215.77C222.83 215.477 222.964 215.03 222.964 214.43C222.964 213.85 222.824 213.42 222.544 213.14C222.27 212.86 221.96 212.72 221.614 212.72C221.22 212.72 220.897 212.877 220.644 213.19C220.39 213.497 220.264 213.937 220.264 214.51C220.264 215.017 220.387 215.427 220.634 215.74C220.887 216.053 221.204 216.21 221.584 216.21ZM222.964 209.93H223.954V217H222.964V216.23C222.61 216.79 222.094 217.07 221.414 217.07C220.747 217.07 220.22 216.82 219.834 216.32C219.447 215.813 219.254 215.203 219.254 214.49C219.254 213.697 219.457 213.06 219.864 212.58C220.27 212.1 220.794 211.86 221.434 211.86C222.094 211.86 222.604 212.14 222.964 212.7V209.93ZM228.005 214.74H227.245C226.871 214.74 226.588 214.813 226.395 214.96C226.208 215.107 226.115 215.293 226.115 215.52C226.115 215.753 226.188 215.937 226.335 216.07C226.481 216.203 226.695 216.27 226.975 216.27C227.295 216.27 227.545 216.183 227.725 216.01C227.911 215.83 228.005 215.597 228.005 215.31V214.74ZM225.455 213.14V212.19C225.848 211.963 226.368 211.85 227.015 211.85C228.341 211.85 229.005 212.493 229.005 213.78V217H228.035V216.4C227.775 216.827 227.318 217.04 226.665 217.04C226.185 217.04 225.798 216.903 225.505 216.63C225.218 216.35 225.075 215.997 225.075 215.57C225.075 215.083 225.258 214.707 225.625 214.44C225.991 214.167 226.505 214.03 227.165 214.03H228.005V213.74C228.005 213.393 227.921 213.133 227.755 212.96C227.588 212.78 227.311 212.69 226.925 212.69C226.385 212.69 225.895 212.84 225.455 213.14ZM234.836 216.21C235.222 216.21 235.549 216.063 235.816 215.77C236.082 215.477 236.216 215.03 236.216 214.43C236.216 213.85 236.076 213.42 235.796 213.14C235.522 212.86 235.212 212.72 234.866 212.72C234.472 212.72 234.149 212.877 233.896 213.19C233.642 213.497 233.516 213.937 233.516 214.51C233.516 215.017 233.639 215.427 233.886 215.74C234.139 216.053 234.456 216.21 234.836 216.21ZM236.216 209.93H237.206V217H236.216V216.23C235.862 216.79 235.346 217.07 234.666 217.07C233.999 217.07 233.472 216.82 233.086 216.32C232.699 215.813 232.506 215.203 232.506 214.49C232.506 213.697 232.709 213.06 233.116 212.58C233.522 212.1 234.046 211.86 234.686 211.86C235.346 211.86 235.856 212.14 236.216 212.7V209.93ZM241.256 214.74H240.496C240.123 214.74 239.84 214.813 239.646 214.96C239.46 215.107 239.366 215.293 239.366 215.52C239.366 215.753 239.44 215.937 239.586 216.07C239.733 216.203 239.946 216.27 240.226 216.27C240.546 216.27 240.796 216.183 240.976 216.01C241.163 215.83 241.256 215.597 241.256 215.31V214.74ZM238.706 213.14V212.19C239.1 211.963 239.62 211.85 240.266 211.85C241.593 211.85 242.256 212.493 242.256 213.78V217H241.286V216.4C241.026 216.827 240.57 217.04 239.916 217.04C239.436 217.04 239.05 216.903 238.756 216.63C238.47 216.35 238.326 215.997 238.326 215.57C238.326 215.083 238.51 214.707 238.876 214.44C239.243 214.167 239.756 214.03 240.416 214.03H241.256V213.74C241.256 213.393 241.173 213.133 241.006 212.96C240.84 212.78 240.563 212.69 240.176 212.69C239.636 212.69 239.146 212.84 238.706 213.14ZM244.557 211.93V212.8C244.857 212.173 245.383 211.86 246.137 211.86C246.637 211.86 247.033 212.013 247.327 212.32C247.62 212.627 247.767 213.043 247.767 213.57V217H246.787V213.8C246.787 213.447 246.697 213.177 246.517 212.99C246.343 212.803 246.11 212.71 245.817 212.71C245.47 212.71 245.173 212.847 244.927 213.12C244.68 213.387 244.557 213.763 244.557 214.25V217H243.577V211.93H244.557ZM252.525 209.93V212.8C252.812 212.173 253.335 211.86 254.095 211.86C254.589 211.86 254.985 212.013 255.285 212.32C255.585 212.627 255.735 213.053 255.735 213.6V217H254.755V213.8C254.755 213.453 254.665 213.187 254.485 213C254.312 212.807 254.082 212.71 253.795 212.71C253.462 212.71 253.165 212.837 252.905 213.09C252.652 213.343 252.525 213.73 252.525 214.25V217H251.545V209.93H252.525ZM259.723 214.74H258.963C258.59 214.74 258.307 214.813 258.113 214.96C257.927 215.107 257.833 215.293 257.833 215.52C257.833 215.753 257.907 215.937 258.053 216.07C258.2 216.203 258.413 216.27 258.693 216.27C259.013 216.27 259.263 216.183 259.443 216.01C259.63 215.83 259.723 215.597 259.723 215.31V214.74ZM257.173 213.14V212.19C257.567 211.963 258.087 211.85 258.733 211.85C260.06 211.85 260.723 212.493 260.723 213.78V217H259.753V216.4C259.493 216.827 259.037 217.04 258.383 217.04C257.903 217.04 257.517 216.903 257.223 216.63C256.937 216.35 256.793 215.997 256.793 215.57C256.793 215.083 256.977 214.707 257.343 214.44C257.71 214.167 258.223 214.03 258.883 214.03H259.723V213.74C259.723 213.393 259.64 213.133 259.473 212.96C259.307 212.78 259.03 212.69 258.643 212.69C258.103 212.69 257.613 212.84 257.173 213.14ZM263.024 211.93V212.82C263.27 212.193 263.714 211.88 264.354 211.88C264.447 211.88 264.55 211.89 264.664 211.91V212.87C264.524 212.81 264.367 212.78 264.194 212.78C263.854 212.78 263.574 212.93 263.354 213.23C263.134 213.53 263.024 213.887 263.024 214.3V217H262.044V211.93H263.024ZM268.582 211.93H269.562V217H268.582V216.13C268.316 216.75 267.789 217.06 267.002 217.06C266.502 217.06 266.106 216.913 265.812 216.62C265.519 216.32 265.372 215.91 265.372 215.39V211.93H266.362V215.15C266.362 215.497 266.446 215.763 266.612 215.95C266.786 216.13 267.022 216.22 267.322 216.22C267.702 216.22 268.006 216.087 268.232 215.82C268.466 215.553 268.582 215.177 268.582 214.69V211.93ZM273.83 212.1V212.99C273.503 212.797 273.083 212.7 272.57 212.7C272.337 212.7 272.15 212.753 272.01 212.86C271.877 212.967 271.81 213.107 271.81 213.28C271.81 213.327 271.813 213.373 271.82 213.42C271.833 213.46 271.853 213.503 271.88 213.55C271.907 213.59 271.93 213.627 271.95 213.66C271.977 213.687 272.017 213.717 272.07 213.75C272.123 213.783 272.163 213.813 272.19 213.84C272.223 213.86 272.273 213.887 272.34 213.92C272.413 213.953 272.467 213.98 272.5 214C272.533 214.013 272.59 214.04 272.67 214.08C272.757 214.113 272.817 214.137 272.85 214.15C273.243 214.323 273.55 214.52 273.77 214.74C273.997 214.953 274.11 215.24 274.11 215.6C274.11 216.053 273.95 216.41 273.63 216.67C273.31 216.923 272.877 217.05 272.33 217.05C271.73 217.05 271.23 216.95 270.83 216.75V215.82C271.297 216.107 271.78 216.25 272.28 216.25C272.54 216.25 272.74 216.197 272.88 216.09C273.027 215.983 273.1 215.843 273.1 215.67C273.1 215.523 273.043 215.393 272.93 215.28C272.817 215.16 272.7 215.073 272.58 215.02C272.467 214.96 272.27 214.87 271.99 214.75C271.197 214.423 270.8 213.943 270.8 213.31C270.8 212.863 270.967 212.513 271.3 212.26C271.633 212.007 272.05 211.88 272.55 211.88C273.097 211.88 273.523 211.953 273.83 212.1ZM280.48 212.1V212.99C280.154 212.797 279.734 212.7 279.22 212.7C278.987 212.7 278.8 212.753 278.66 212.86C278.527 212.967 278.46 213.107 278.46 213.28C278.46 213.327 278.464 213.373 278.47 213.42C278.484 213.46 278.504 213.503 278.53 213.55C278.557 213.59 278.58 213.627 278.6 213.66C278.627 213.687 278.667 213.717 278.72 213.75C278.774 213.783 278.814 213.813 278.84 213.84C278.874 213.86 278.924 213.887 278.99 213.92C279.064 213.953 279.117 213.98 279.15 214C279.184 214.013 279.24 214.04 279.32 214.08C279.407 214.113 279.467 214.137 279.5 214.15C279.894 214.323 280.2 214.52 280.42 214.74C280.647 214.953 280.76 215.24 280.76 215.6C280.76 216.053 280.6 216.41 280.28 216.67C279.96 216.923 279.527 217.05 278.98 217.05C278.38 217.05 277.88 216.95 277.48 216.75V215.82C277.947 216.107 278.43 216.25 278.93 216.25C279.19 216.25 279.39 216.197 279.53 216.09C279.677 215.983 279.75 215.843 279.75 215.67C279.75 215.523 279.694 215.393 279.58 215.28C279.467 215.16 279.35 215.073 279.23 215.02C279.117 214.96 278.92 214.87 278.64 214.75C277.847 214.423 277.45 213.943 277.45 213.31C277.45 212.863 277.617 212.513 277.95 212.26C278.284 212.007 278.7 211.88 279.2 211.88C279.747 211.88 280.174 211.953 280.48 212.1ZM284.93 214.1V213.92C284.917 213.54 284.813 213.24 284.62 213.02C284.427 212.793 284.15 212.68 283.79 212.68C283.457 212.68 283.17 212.803 282.93 213.05C282.69 213.29 282.54 213.64 282.48 214.1H284.93ZM285.56 215.85V216.73C285.187 216.943 284.693 217.05 284.08 217.05C283.293 217.05 282.667 216.813 282.2 216.34C281.733 215.867 281.5 215.247 281.5 214.48C281.5 213.667 281.713 213.03 282.14 212.57C282.567 212.103 283.11 211.87 283.77 211.87C284.417 211.87 284.93 212.073 285.31 212.48C285.69 212.88 285.88 213.46 285.88 214.22C285.88 214.427 285.86 214.643 285.82 214.87H282.49C282.557 215.31 282.743 215.647 283.05 215.88C283.357 216.113 283.743 216.23 284.21 216.23C284.75 216.23 285.2 216.103 285.56 215.85ZM289.034 216.02C289.38 216.02 289.68 215.887 289.934 215.62C290.194 215.347 290.324 214.967 290.324 214.48C290.324 213.88 290.2 213.437 289.954 213.15C289.714 212.863 289.42 212.72 289.074 212.72C288.68 212.72 288.37 212.877 288.144 213.19C287.917 213.497 287.804 213.903 287.804 214.41C287.804 214.937 287.924 215.337 288.164 215.61C288.41 215.883 288.7 216.02 289.034 216.02ZM290.324 211.93H291.304V216.57C291.304 217.35 291.08 217.937 290.634 218.33C290.194 218.73 289.627 218.93 288.934 218.93C288.28 218.93 287.73 218.82 287.284 218.6V217.61C287.71 217.89 288.227 218.03 288.834 218.03C289.827 218.03 290.324 217.54 290.324 216.56V216.04C289.997 216.587 289.507 216.86 288.854 216.86C288.28 216.86 287.79 216.65 287.384 216.23C286.977 215.803 286.774 215.203 286.774 214.43C286.774 213.683 286.964 213.07 287.344 212.59C287.724 212.103 288.227 211.86 288.854 211.86C289.527 211.86 290.017 212.147 290.324 212.72V211.93ZM295.77 214.1V213.92C295.756 213.54 295.653 213.24 295.46 213.02C295.266 212.793 294.99 212.68 294.63 212.68C294.296 212.68 294.01 212.803 293.77 213.05C293.53 213.29 293.38 213.64 293.32 214.1H295.77ZM296.4 215.85V216.73C296.026 216.943 295.533 217.05 294.92 217.05C294.133 217.05 293.506 216.813 293.04 216.34C292.573 215.867 292.34 215.247 292.34 214.48C292.34 213.667 292.553 213.03 292.98 212.57C293.406 212.103 293.95 211.87 294.61 211.87C295.256 211.87 295.77 212.073 296.15 212.48C296.53 212.88 296.72 213.46 296.72 214.22C296.72 214.427 296.7 214.643 296.66 214.87H293.33C293.396 215.31 293.583 215.647 293.89 215.88C294.196 216.113 294.583 216.23 295.05 216.23C295.59 216.23 296.04 216.103 296.4 215.85ZM298.854 211.93V212.82C299.1 212.193 299.544 211.88 300.184 211.88C300.277 211.88 300.38 211.89 300.494 211.91V212.87C300.354 212.81 300.197 212.78 300.024 212.78C299.684 212.78 299.404 212.93 299.184 213.23C298.964 213.53 298.854 213.887 298.854 214.3V217H297.874V211.93H298.854ZM303.932 214.74H303.172C302.799 214.74 302.516 214.813 302.322 214.96C302.136 215.107 302.042 215.293 302.042 215.52C302.042 215.753 302.116 215.937 302.262 216.07C302.409 216.203 302.622 216.27 302.902 216.27C303.222 216.27 303.472 216.183 303.652 216.01C303.839 215.83 303.932 215.597 303.932 215.31V214.74ZM301.382 213.14V212.19C301.776 211.963 302.296 211.85 302.942 211.85C304.269 211.85 304.932 212.493 304.932 213.78V217H303.962V216.4C303.702 216.827 303.246 217.04 302.592 217.04C302.112 217.04 301.726 216.903 301.432 216.63C301.146 216.35 301.002 215.997 301.002 215.57C301.002 215.083 301.186 214.707 301.552 214.44C301.919 214.167 302.432 214.03 303.092 214.03H303.932V213.74C303.932 213.393 303.849 213.133 303.682 212.96C303.516 212.78 303.239 212.69 302.852 212.69C302.312 212.69 301.822 212.84 301.382 213.14ZM115.221 227.93V228.74C115.507 228.153 115.984 227.86 116.651 227.86C117.411 227.86 117.897 228.187 118.111 228.84C118.251 228.527 118.454 228.287 118.721 228.12C118.987 227.947 119.287 227.86 119.621 227.86C120.141 227.86 120.534 228.013 120.801 228.32C121.074 228.627 121.211 229.05 121.211 229.59V233H120.231V229.8C120.231 229.073 119.937 228.71 119.351 228.71C119.057 228.71 118.794 228.84 118.561 229.1C118.334 229.36 118.221 229.743 118.221 230.25V233H117.241V229.8C117.241 229.073 116.944 228.71 116.351 228.71C116.064 228.71 115.804 228.84 115.571 229.1C115.337 229.36 115.221 229.743 115.221 230.25V233H114.241V227.93H115.221ZM125.692 230.1V229.92C125.678 229.54 125.575 229.24 125.382 229.02C125.188 228.793 124.912 228.68 124.552 228.68C124.218 228.68 123.932 228.803 123.692 229.05C123.452 229.29 123.302 229.64 123.242 230.1H125.692ZM126.322 231.85V232.73C125.948 232.943 125.455 233.05 124.842 233.05C124.055 233.05 123.428 232.813 122.962 232.34C122.495 231.867 122.262 231.247 122.262 230.48C122.262 229.667 122.475 229.03 122.902 228.57C123.328 228.103 123.872 227.87 124.532 227.87C125.178 227.87 125.692 228.073 126.072 228.48C126.452 228.88 126.642 229.46 126.642 230.22C126.642 230.427 126.622 230.643 126.582 230.87H123.252C123.318 231.31 123.505 231.647 123.812 231.88C124.118 232.113 124.505 232.23 124.972 232.23C125.512 232.23 125.962 232.103 126.322 231.85ZM128.775 227.93V228.8C129.075 228.173 129.602 227.86 130.355 227.86C130.855 227.86 131.252 228.013 131.545 228.32C131.839 228.627 131.985 229.043 131.985 229.57V233H131.005V229.8C131.005 229.447 130.915 229.177 130.735 228.99C130.562 228.803 130.329 228.71 130.035 228.71C129.689 228.71 129.392 228.847 129.145 229.12C128.899 229.387 128.775 229.763 128.775 230.25V233H127.795V227.93H128.775ZM135.353 232.21C135.74 232.21 136.067 232.063 136.333 231.77C136.6 231.477 136.733 231.03 136.733 230.43C136.733 229.85 136.593 229.42 136.313 229.14C136.04 228.86 135.73 228.72 135.383 228.72C134.99 228.72 134.667 228.877 134.413 229.19C134.16 229.497 134.033 229.937 134.033 230.51C134.033 231.017 134.157 231.427 134.403 231.74C134.657 232.053 134.973 232.21 135.353 232.21ZM136.733 225.93H137.723V233H136.733V232.23C136.38 232.79 135.863 233.07 135.183 233.07C134.517 233.07 133.99 232.82 133.603 232.32C133.217 231.813 133.023 231.203 133.023 230.49C133.023 229.697 133.227 229.06 133.633 228.58C134.04 228.1 134.563 227.86 135.203 227.86C135.863 227.86 136.373 228.14 136.733 228.7V225.93ZM141.774 230.74H141.014C140.641 230.74 140.357 230.813 140.164 230.96C139.977 231.107 139.884 231.293 139.884 231.52C139.884 231.753 139.957 231.937 140.104 232.07C140.251 232.203 140.464 232.27 140.744 232.27C141.064 232.27 141.314 232.183 141.494 232.01C141.681 231.83 141.774 231.597 141.774 231.31V230.74ZM139.224 229.14V228.19C139.617 227.963 140.137 227.85 140.784 227.85C142.111 227.85 142.774 228.493 142.774 229.78V233H141.804V232.4C141.544 232.827 141.087 233.04 140.434 233.04C139.954 233.04 139.567 232.903 139.274 232.63C138.987 232.35 138.844 231.997 138.844 231.57C138.844 231.083 139.027 230.707 139.394 230.44C139.761 230.167 140.274 230.03 140.934 230.03H141.774V229.74C141.774 229.393 141.691 229.133 141.524 228.96C141.357 228.78 141.081 228.69 140.694 228.69C140.154 228.69 139.664 228.84 139.224 229.14ZM146.434 232.21C146.828 232.21 147.151 232.057 147.404 231.75C147.658 231.437 147.784 231 147.784 230.44C147.784 229.913 147.661 229.497 147.414 229.19C147.168 228.877 146.854 228.72 146.474 228.72C146.094 228.72 145.764 228.86 145.484 229.14C145.211 229.413 145.074 229.85 145.074 230.45C145.074 231.037 145.211 231.477 145.484 231.77C145.764 232.063 146.081 232.21 146.434 232.21ZM145.074 227.93V228.71C145.421 228.143 145.941 227.86 146.634 227.86C147.301 227.86 147.828 228.103 148.214 228.59C148.601 229.07 148.794 229.683 148.794 230.43C148.794 231.197 148.594 231.83 148.194 232.33C147.801 232.823 147.274 233.07 146.614 233.07C145.941 233.07 145.428 232.79 145.074 232.23V234.94H144.094V227.93H145.074ZM152.565 230.74H151.805C151.432 230.74 151.148 230.813 150.955 230.96C150.768 231.107 150.675 231.293 150.675 231.52C150.675 231.753 150.748 231.937 150.895 232.07C151.042 232.203 151.255 232.27 151.535 232.27C151.855 232.27 152.105 232.183 152.285 232.01C152.472 231.83 152.565 231.597 152.565 231.31V230.74ZM150.015 229.14V228.19C150.408 227.963 150.928 227.85 151.575 227.85C152.902 227.85 153.565 228.493 153.565 229.78V233H152.595V232.4C152.335 232.827 151.878 233.04 151.225 233.04C150.745 233.04 150.358 232.903 150.065 232.63C149.778 232.35 149.635 231.997 149.635 231.57C149.635 231.083 149.818 230.707 150.185 230.44C150.552 230.167 151.065 230.03 151.725 230.03H152.565V229.74C152.565 229.393 152.482 229.133 152.315 228.96C152.148 228.78 151.872 228.69 151.485 228.69C150.945 228.69 150.455 228.84 150.015 229.14ZM156.155 228.69V231.48C156.155 231.967 156.389 232.21 156.855 232.21C157.129 232.21 157.359 232.137 157.545 231.99V232.87C157.325 232.99 157.055 233.05 156.735 233.05C155.689 233.05 155.165 232.52 155.165 231.46V228.69H154.375V227.93H155.165V226.69H156.155V227.93H157.485V228.69H156.155ZM158.626 233V226H159.606V233H158.626ZM160.776 230.35L162.766 233H161.596L159.646 230.35L161.556 227.93H162.706L160.776 230.35ZM166.296 230.74H165.536C165.162 230.74 164.879 230.813 164.686 230.96C164.499 231.107 164.406 231.293 164.406 231.52C164.406 231.753 164.479 231.937 164.626 232.07C164.772 232.203 164.986 232.27 165.266 232.27C165.586 232.27 165.836 232.183 166.016 232.01C166.202 231.83 166.296 231.597 166.296 231.31V230.74ZM163.746 229.14V228.19C164.139 227.963 164.659 227.85 165.306 227.85C166.632 227.85 167.296 228.493 167.296 229.78V233H166.326V232.4C166.066 232.827 165.609 233.04 164.956 233.04C164.476 233.04 164.089 232.903 163.796 232.63C163.509 232.35 163.366 231.997 163.366 231.57C163.366 231.083 163.549 230.707 163.916 230.44C164.282 230.167 164.796 230.03 165.456 230.03H166.296V229.74C166.296 229.393 166.212 229.133 166.046 228.96C165.879 228.78 165.602 228.69 165.216 228.69C164.676 228.69 164.186 228.84 163.746 229.14ZM169.596 227.93V228.8C169.896 228.173 170.422 227.86 171.176 227.86C171.676 227.86 172.072 228.013 172.366 228.32C172.659 228.627 172.806 229.043 172.806 229.57V233H171.826V229.8C171.826 229.447 171.736 229.177 171.556 228.99C171.382 228.803 171.149 228.71 170.856 228.71C170.509 228.71 170.212 228.847 169.966 229.12C169.719 229.387 169.596 229.763 169.596 230.25V233H168.616V227.93H169.596ZM178.925 232.21C179.318 232.21 179.641 232.057 179.895 231.75C180.148 231.437 180.275 231 180.275 230.44C180.275 229.913 180.151 229.497 179.905 229.19C179.658 228.877 179.345 228.72 178.965 228.72C178.585 228.72 178.255 228.86 177.975 229.14C177.701 229.413 177.565 229.85 177.565 230.45C177.565 231.037 177.701 231.477 177.975 231.77C178.255 232.063 178.571 232.21 178.925 232.21ZM177.565 227.93V228.71C177.911 228.143 178.431 227.86 179.125 227.86C179.791 227.86 180.318 228.103 180.705 228.59C181.091 229.07 181.285 229.683 181.285 230.43C181.285 231.197 181.085 231.83 180.685 232.33C180.291 232.823 179.765 233.07 179.105 233.07C178.431 233.07 177.918 232.79 177.565 232.23V234.94H176.585V227.93H177.565ZM185.535 230.1V229.92C185.522 229.54 185.419 229.24 185.225 229.02C185.032 228.793 184.755 228.68 184.395 228.68C184.062 228.68 183.775 228.803 183.535 229.05C183.295 229.29 183.145 229.64 183.085 230.1H185.535ZM186.165 231.85V232.73C185.792 232.943 185.299 233.05 184.685 233.05C183.899 233.05 183.272 232.813 182.805 232.34C182.339 231.867 182.105 231.247 182.105 230.48C182.105 229.667 182.319 229.03 182.745 228.57C183.172 228.103 183.715 227.87 184.375 227.87C185.022 227.87 185.535 228.073 185.915 228.48C186.295 228.88 186.485 229.46 186.485 230.22C186.485 230.427 186.465 230.643 186.425 230.87H183.095C183.162 231.31 183.349 231.647 183.655 231.88C183.962 232.113 184.349 232.23 184.815 232.23C185.355 232.23 185.805 232.103 186.165 231.85ZM188.619 227.93V228.82C188.866 228.193 189.309 227.88 189.949 227.88C190.043 227.88 190.146 227.89 190.259 227.91V228.87C190.119 228.81 189.963 228.78 189.789 228.78C189.449 228.78 189.169 228.93 188.949 229.23C188.729 229.53 188.619 229.887 188.619 230.3V233H187.639V227.93H188.619ZM193.698 230.74H192.938C192.565 230.74 192.281 230.813 192.088 230.96C191.901 231.107 191.808 231.293 191.808 231.52C191.808 231.753 191.881 231.937 192.028 232.07C192.175 232.203 192.388 232.27 192.668 232.27C192.988 232.27 193.238 232.183 193.418 232.01C193.605 231.83 193.698 231.597 193.698 231.31V230.74ZM191.148 229.14V228.19C191.541 227.963 192.061 227.85 192.708 227.85C194.035 227.85 194.698 228.493 194.698 229.78V233H193.728V232.4C193.468 232.827 193.011 233.04 192.358 233.04C191.878 233.04 191.491 232.903 191.198 232.63C190.911 232.35 190.768 231.997 190.768 231.57C190.768 231.083 190.951 230.707 191.318 230.44C191.685 230.167 192.198 230.03 192.858 230.03H193.698V229.74C193.698 229.393 193.615 229.133 193.448 228.96C193.281 228.78 193.005 228.69 192.618 228.69C192.078 228.69 191.588 228.84 191.148 229.14ZM197.108 233L195.518 227.93H196.558L197.028 229.61C197.181 230.143 197.311 230.613 197.418 231.02C197.525 231.427 197.591 231.7 197.618 231.84L197.658 232.05C197.745 231.63 197.965 230.813 198.318 229.6L198.808 227.93H199.758L200.258 229.6C200.418 230.153 200.555 230.637 200.668 231.05C200.781 231.457 200.855 231.727 200.888 231.86L200.928 232.06C201.008 231.667 201.235 230.847 201.608 229.6L202.108 227.93H203.098L201.488 233H200.368L199.898 231.34C199.758 230.833 199.635 230.387 199.528 230C199.428 229.607 199.361 229.34 199.328 229.2L199.288 229C199.195 229.433 198.991 230.213 198.678 231.34L198.218 233H197.108ZM206.647 230.74H205.887C205.514 230.74 205.23 230.813 205.037 230.96C204.85 231.107 204.757 231.293 204.757 231.52C204.757 231.753 204.83 231.937 204.977 232.07C205.124 232.203 205.337 232.27 205.617 232.27C205.937 232.27 206.187 232.183 206.367 232.01C206.554 231.83 206.647 231.597 206.647 231.31V230.74ZM204.097 229.14V228.19C204.49 227.963 205.01 227.85 205.657 227.85C206.984 227.85 207.647 228.493 207.647 229.78V233H206.677V232.4C206.417 232.827 205.96 233.04 205.307 233.04C204.827 233.04 204.44 232.903 204.147 232.63C203.86 232.35 203.717 231.997 203.717 231.57C203.717 231.083 203.9 230.707 204.267 230.44C204.634 230.167 205.147 230.03 205.807 230.03H206.647V229.74C206.647 229.393 206.564 229.133 206.397 228.96C206.23 228.78 205.954 228.69 205.567 228.69C205.027 228.69 204.537 228.84 204.097 229.14ZM210.237 228.69V231.48C210.237 231.967 210.471 232.21 210.937 232.21C211.211 232.21 211.441 232.137 211.627 231.99V232.87C211.407 232.99 211.137 233.05 210.817 233.05C209.771 233.05 209.247 232.52 209.247 231.46V228.69H208.457V227.93H209.247V226.69H210.237V227.93H211.567V228.69H210.237ZM215.378 230.74H214.618C214.244 230.74 213.961 230.813 213.768 230.96C213.581 231.107 213.488 231.293 213.488 231.52C213.488 231.753 213.561 231.937 213.708 232.07C213.854 232.203 214.068 232.27 214.348 232.27C214.668 232.27 214.918 232.183 215.098 232.01C215.284 231.83 215.378 231.597 215.378 231.31V230.74ZM212.828 229.14V228.19C213.221 227.963 213.741 227.85 214.388 227.85C215.714 227.85 216.378 228.493 216.378 229.78V233H215.408V232.4C215.148 232.827 214.691 233.04 214.038 233.04C213.558 233.04 213.171 232.903 212.878 232.63C212.591 232.35 212.448 231.997 212.448 231.57C212.448 231.083 212.631 230.707 212.998 230.44C213.364 230.167 213.878 230.03 214.538 230.03H215.378V229.74C215.378 229.393 215.294 229.133 215.128 228.96C214.961 228.78 214.684 228.69 214.298 228.69C213.758 228.69 213.268 228.84 212.828 229.14ZM218.678 227.93V228.8C218.978 228.173 219.504 227.86 220.258 227.86C220.758 227.86 221.154 228.013 221.448 228.32C221.741 228.627 221.888 229.043 221.888 229.57V233H220.908V229.8C220.908 229.447 220.818 229.177 220.638 228.99C220.464 228.803 220.231 228.71 219.938 228.71C219.591 228.71 219.294 228.847 219.048 229.12C218.801 229.387 218.678 229.763 218.678 230.25V233H217.698V227.93H218.678ZM222.996 232.88C222.869 232.747 222.806 232.587 222.806 232.4C222.806 232.213 222.869 232.057 222.996 231.93C223.129 231.797 223.292 231.73 223.486 231.73C223.672 231.73 223.829 231.797 223.956 231.93C224.089 232.057 224.156 232.213 224.156 232.4C224.156 232.587 224.089 232.747 223.956 232.88C223.829 233.013 223.672 233.08 223.486 233.08C223.292 233.08 223.129 233.013 222.996 232.88ZM40.633 248.15H41.953C42.7997 248.15 43.223 247.8 43.223 247.1C43.223 246.76 43.1064 246.497 42.873 246.31C42.6464 246.117 42.3064 246.02 41.853 246.02H40.633V248.15ZM40.633 243.11V245.18H41.563C42.063 245.18 42.433 245.08 42.673 244.88C42.9197 244.673 43.043 244.407 43.043 244.08C43.043 243.793 42.933 243.56 42.713 243.38C42.4997 243.2 42.173 243.11 41.733 243.11H40.633ZM39.603 242.26H41.813C42.5197 242.26 43.0764 242.427 43.483 242.76C43.8897 243.087 44.093 243.52 44.093 244.06C44.093 244.433 43.9864 244.76 43.773 245.04C43.5664 245.32 43.2997 245.5 42.973 245.58C43.3397 245.647 43.6464 245.817 43.893 246.09C44.1464 246.363 44.273 246.73 44.273 247.19C44.273 247.723 44.0897 248.16 43.723 248.5C43.363 248.833 42.853 249 42.193 249H39.603V242.26ZM45.4136 249V243.93H46.4036V249H45.4136ZM45.4636 242.82C45.3503 242.7 45.2936 242.553 45.2936 242.38C45.2936 242.207 45.3503 242.06 45.4636 241.94C45.5836 241.82 45.7303 241.76 45.9036 241.76C46.0769 241.76 46.2236 241.82 46.3436 241.94C46.4636 242.06 46.5236 242.207 46.5236 242.38C46.5236 242.547 46.4636 242.69 46.3436 242.81C46.2236 242.93 46.0769 242.99 45.9036 242.99C45.7303 242.99 45.5836 242.933 45.4636 242.82ZM50.4948 246.74H49.7348C49.3614 246.74 49.0781 246.813 48.8848 246.96C48.6981 247.107 48.6048 247.293 48.6048 247.52C48.6048 247.753 48.6781 247.937 48.8248 248.07C48.9714 248.203 49.1848 248.27 49.4648 248.27C49.7848 248.27 50.0348 248.183 50.2148 248.01C50.4014 247.83 50.4948 247.597 50.4948 247.31V246.74ZM47.9448 245.14V244.19C48.3381 243.963 48.8581 243.85 49.5048 243.85C50.8314 243.85 51.4948 244.493 51.4948 245.78V249H50.5248V248.4C50.2648 248.827 49.8081 249.04 49.1548 249.04C48.6748 249.04 48.2881 248.903 47.9948 248.63C47.7081 248.35 47.5648 247.997 47.5648 247.57C47.5648 247.083 47.7481 246.707 48.1148 246.44C48.4814 246.167 48.9948 246.03 49.6548 246.03H50.4948V245.74C50.4948 245.393 50.4114 245.133 50.2448 244.96C50.0781 244.78 49.8014 244.69 49.4148 244.69C48.8748 244.69 48.3848 244.84 47.9448 245.14ZM54.215 248.89L52.195 243.93H53.285L53.915 245.58L54.705 247.72C54.765 247.52 55.005 246.807 55.425 245.58L55.995 243.93H57.035L55.205 248.86C54.7183 250.16 53.975 250.81 52.975 250.81C52.795 250.81 52.6417 250.793 52.515 250.76V249.92C52.6217 249.947 52.735 249.96 52.855 249.96C53.5017 249.96 53.955 249.603 54.215 248.89ZM60.5241 246.74H59.7641C59.3907 246.74 59.1074 246.813 58.9141 246.96C58.7274 247.107 58.6341 247.293 58.6341 247.52C58.6341 247.753 58.7074 247.937 58.8541 248.07C59.0007 248.203 59.2141 248.27 59.4941 248.27C59.8141 248.27 60.0641 248.183 60.2441 248.01C60.4307 247.83 60.5241 247.597 60.5241 247.31V246.74ZM57.9741 245.14V244.19C58.3674 243.963 58.8874 243.85 59.5341 243.85C60.8607 243.85 61.5241 244.493 61.5241 245.78V249H60.5541V248.4C60.2941 248.827 59.8374 249.04 59.1841 249.04C58.7041 249.04 58.3174 248.903 58.0241 248.63C57.7374 248.35 57.5941 247.997 57.5941 247.57C57.5941 247.083 57.7774 246.707 58.1441 246.44C58.5107 246.167 59.0241 246.03 59.6841 246.03H60.5241V245.74C60.5241 245.393 60.4407 245.133 60.2741 244.96C60.1074 244.78 59.8307 244.69 59.4441 244.69C58.9041 244.69 58.4141 244.84 57.9741 245.14ZM67.6452 248.21C68.0386 248.21 68.3619 248.057 68.6152 247.75C68.8686 247.437 68.9952 247 68.9952 246.44C68.9952 245.913 68.8719 245.497 68.6252 245.19C68.3786 244.877 68.0652 244.72 67.6852 244.72C67.3052 244.72 66.9752 244.86 66.6952 245.14C66.4219 245.413 66.2852 245.85 66.2852 246.45C66.2852 247.037 66.4219 247.477 66.6952 247.77C66.9752 248.063 67.2919 248.21 67.6452 248.21ZM66.2852 243.93V244.71C66.6319 244.143 67.1519 243.86 67.8452 243.86C68.5119 243.86 69.0386 244.103 69.4252 244.59C69.8119 245.07 70.0052 245.683 70.0052 246.43C70.0052 247.197 69.8052 247.83 69.4052 248.33C69.0119 248.823 68.4852 249.07 67.8252 249.07C67.1519 249.07 66.6386 248.79 66.2852 248.23V250.94H65.3052V243.93H66.2852ZM74.256 246.1V245.92C74.2427 245.54 74.1393 245.24 73.946 245.02C73.7527 244.793 73.476 244.68 73.116 244.68C72.7827 244.68 72.496 244.803 72.256 245.05C72.016 245.29 71.866 245.64 71.806 246.1H74.256ZM74.886 247.85V248.73C74.5127 248.943 74.0193 249.05 73.406 249.05C72.6193 249.05 71.9927 248.813 71.526 248.34C71.0593 247.867 70.826 247.247 70.826 246.48C70.826 245.667 71.0393 245.03 71.466 244.57C71.8927 244.103 72.436 243.87 73.096 243.87C73.7427 243.87 74.256 244.073 74.636 244.48C75.016 244.88 75.206 245.46 75.206 246.22C75.206 246.427 75.186 246.643 75.146 246.87H71.816C71.8827 247.31 72.0693 247.647 72.376 247.88C72.6827 248.113 73.0693 248.23 73.536 248.23C74.076 248.23 74.526 248.103 74.886 247.85ZM77.3399 243.93V244.82C77.5866 244.193 78.0299 243.88 78.6699 243.88C78.7633 243.88 78.8666 243.89 78.9799 243.91V244.87C78.8399 244.81 78.6833 244.78 78.5099 244.78C78.1699 244.78 77.8899 244.93 77.6699 245.23C77.4499 245.53 77.3399 245.887 77.3399 246.3V249H76.3599V243.93H77.3399ZM82.4186 246.74H81.6586C81.2853 246.74 81.0019 246.813 80.8086 246.96C80.6219 247.107 80.5286 247.293 80.5286 247.52C80.5286 247.753 80.6019 247.937 80.7486 248.07C80.8953 248.203 81.1086 248.27 81.3886 248.27C81.7086 248.27 81.9586 248.183 82.1386 248.01C82.3253 247.83 82.4186 247.597 82.4186 247.31V246.74ZM79.8686 245.14V244.19C80.2619 243.963 80.7819 243.85 81.4286 243.85C82.7553 243.85 83.4186 244.493 83.4186 245.78V249H82.4486V248.4C82.1886 248.827 81.7319 249.04 81.0786 249.04C80.5986 249.04 80.2119 248.903 79.9186 248.63C79.6319 248.35 79.4886 247.997 79.4886 247.57C79.4886 247.083 79.6719 246.707 80.0386 246.44C80.4053 246.167 80.9186 246.03 81.5786 246.03H82.4186V245.74C82.4186 245.393 82.3353 245.133 82.1686 244.96C82.0019 244.78 81.7253 244.69 81.3386 244.69C80.7986 244.69 80.3086 244.84 79.8686 245.14ZM85.8288 249L84.2388 243.93H85.2788L85.7488 245.61C85.9022 246.143 86.0322 246.613 86.1388 247.02C86.2455 247.427 86.3122 247.7 86.3388 247.84L86.3788 248.05C86.4655 247.63 86.6855 246.813 87.0388 245.6L87.5288 243.93H88.4788L88.9788 245.6C89.1388 246.153 89.2755 246.637 89.3888 247.05C89.5022 247.457 89.5755 247.727 89.6088 247.86L89.6488 248.06C89.7288 247.667 89.9555 246.847 90.3288 245.6L90.8288 243.93H91.8188L90.2088 249H89.0888L88.6188 247.34C88.4788 246.833 88.3555 246.387 88.2488 246C88.1488 245.607 88.0822 245.34 88.0488 245.2L88.0088 245C87.9155 245.433 87.7122 246.213 87.3988 247.34L86.9388 249H85.8288ZM95.3678 246.74H94.6078C94.2345 246.74 93.9511 246.813 93.7578 246.96C93.5711 247.107 93.4778 247.293 93.4778 247.52C93.4778 247.753 93.5511 247.937 93.6978 248.07C93.8445 248.203 94.0578 248.27 94.3378 248.27C94.6578 248.27 94.9078 248.183 95.0878 248.01C95.2745 247.83 95.3678 247.597 95.3678 247.31V246.74ZM92.8178 245.14V244.19C93.2111 243.963 93.7311 243.85 94.3778 243.85C95.7045 243.85 96.3678 244.493 96.3678 245.78V249H95.3978V248.4C95.1378 248.827 94.6811 249.04 94.0278 249.04C93.5478 249.04 93.1611 248.903 92.8678 248.63C92.5811 248.35 92.4378 247.997 92.4378 247.57C92.4378 247.083 92.6211 246.707 92.9878 246.44C93.3545 246.167 93.8678 246.03 94.5278 246.03H95.3678V245.74C95.3678 245.393 95.2845 245.133 95.1178 244.96C94.9511 244.78 94.6745 244.69 94.2878 244.69C93.7478 244.69 93.2578 244.84 92.8178 245.14ZM98.958 244.69V247.48C98.958 247.967 99.1914 248.21 99.658 248.21C99.9314 248.21 100.161 248.137 100.348 247.99V248.87C100.128 248.99 99.858 249.05 99.538 249.05C98.4914 249.05 97.968 248.52 97.968 247.46V244.69H97.178V243.93H97.968V242.69H98.958V243.93H100.288V244.69H98.958ZM104.098 246.74H103.338C102.965 246.74 102.682 246.813 102.488 246.96C102.302 247.107 102.208 247.293 102.208 247.52C102.208 247.753 102.282 247.937 102.428 248.07C102.575 248.203 102.788 248.27 103.068 248.27C103.388 248.27 103.638 248.183 103.818 248.01C104.005 247.83 104.098 247.597 104.098 247.31V246.74ZM101.548 245.14V244.19C101.942 243.963 102.462 243.85 103.108 243.85C104.435 243.85 105.098 244.493 105.098 245.78V249H104.128V248.4C103.868 248.827 103.412 249.04 102.758 249.04C102.278 249.04 101.892 248.903 101.598 248.63C101.312 248.35 101.168 247.997 101.168 247.57C101.168 247.083 101.352 246.707 101.718 246.44C102.085 246.167 102.598 246.03 103.258 246.03H104.098V245.74C104.098 245.393 104.015 245.133 103.848 244.96C103.682 244.78 103.405 244.69 103.018 244.69C102.478 244.69 101.988 244.84 101.548 245.14ZM107.399 243.93V244.8C107.699 244.173 108.225 243.86 108.979 243.86C109.479 243.86 109.875 244.013 110.169 244.32C110.462 244.627 110.609 245.043 110.609 245.57V249H109.629V245.8C109.629 245.447 109.539 245.177 109.359 244.99C109.185 244.803 108.952 244.71 108.659 244.71C108.312 244.71 108.015 244.847 107.769 245.12C107.522 245.387 107.399 245.763 107.399 246.25V249H106.419V243.93H107.399ZM115.787 248.89L113.767 243.93H114.857L115.487 245.58L116.277 247.72C116.337 247.52 116.577 246.807 116.997 245.58L117.567 243.93H118.607L116.777 248.86C116.291 250.16 115.547 250.81 114.547 250.81C114.367 250.81 114.214 250.793 114.087 250.76V249.92C114.194 249.947 114.307 249.96 114.427 249.96C115.074 249.96 115.527 249.603 115.787 248.89ZM122.096 246.74H121.336C120.963 246.74 120.68 246.813 120.486 246.96C120.3 247.107 120.206 247.293 120.206 247.52C120.206 247.753 120.28 247.937 120.426 248.07C120.573 248.203 120.786 248.27 121.066 248.27C121.386 248.27 121.636 248.183 121.816 248.01C122.003 247.83 122.096 247.597 122.096 247.31V246.74ZM119.546 245.14V244.19C119.94 243.963 120.46 243.85 121.106 243.85C122.433 243.85 123.096 244.493 123.096 245.78V249H122.126V248.4C121.866 248.827 121.41 249.04 120.756 249.04C120.276 249.04 119.89 248.903 119.596 248.63C119.31 248.35 119.166 247.997 119.166 247.57C119.166 247.083 119.35 246.707 119.716 246.44C120.083 246.167 120.596 246.03 121.256 246.03H122.096V245.74C122.096 245.393 122.013 245.133 121.846 244.96C121.68 244.78 121.403 244.69 121.016 244.69C120.476 244.69 119.986 244.84 119.546 245.14ZM125.397 243.93V244.8C125.697 244.173 126.223 243.86 126.977 243.86C127.477 243.86 127.873 244.013 128.167 244.32C128.46 244.627 128.607 245.043 128.607 245.57V249H127.627V245.8C127.627 245.447 127.537 245.177 127.357 244.99C127.183 244.803 126.95 244.71 126.657 244.71C126.31 244.71 126.013 244.847 125.767 245.12C125.52 245.387 125.397 245.763 125.397 246.25V249H124.417V243.93H125.397ZM131.924 248.02C132.271 248.02 132.571 247.887 132.824 247.62C133.084 247.347 133.214 246.967 133.214 246.48C133.214 245.88 133.091 245.437 132.844 245.15C132.604 244.863 132.311 244.72 131.964 244.72C131.571 244.72 131.261 244.877 131.034 245.19C130.808 245.497 130.694 245.903 130.694 246.41C130.694 246.937 130.814 247.337 131.054 247.61C131.301 247.883 131.591 248.02 131.924 248.02ZM133.214 243.93H134.194V248.57C134.194 249.35 133.971 249.937 133.524 250.33C133.084 250.73 132.518 250.93 131.824 250.93C131.171 250.93 130.621 250.82 130.174 250.6V249.61C130.601 249.89 131.118 250.03 131.724 250.03C132.718 250.03 133.214 249.54 133.214 248.56V248.04C132.888 248.587 132.398 248.86 131.744 248.86C131.171 248.86 130.681 248.65 130.274 248.23C129.868 247.803 129.664 247.203 129.664 246.43C129.664 245.683 129.854 245.07 130.234 244.59C130.614 244.103 131.118 243.86 131.744 243.86C132.418 243.86 132.908 244.147 133.214 244.72V243.93ZM138.951 241.93V244.8C139.238 244.173 139.761 243.86 140.521 243.86C141.015 243.86 141.411 244.013 141.711 244.32C142.011 244.627 142.161 245.053 142.161 245.6V249H141.181V245.8C141.181 245.453 141.091 245.187 140.911 245C140.738 244.807 140.508 244.71 140.221 244.71C139.888 244.71 139.591 244.837 139.331 245.09C139.078 245.343 138.951 245.73 138.951 246.25V249H137.971V241.93H138.951ZM146.149 246.74H145.389C145.016 246.74 144.732 246.813 144.539 246.96C144.352 247.107 144.259 247.293 144.259 247.52C144.259 247.753 144.332 247.937 144.479 248.07C144.626 248.203 144.839 248.27 145.119 248.27C145.439 248.27 145.689 248.183 145.869 248.01C146.056 247.83 146.149 247.597 146.149 247.31V246.74ZM143.599 245.14V244.19C143.992 243.963 144.512 243.85 145.159 243.85C146.486 243.85 147.149 244.493 147.149 245.78V249H146.179V248.4C145.919 248.827 145.462 249.04 144.809 249.04C144.329 249.04 143.942 248.903 143.649 248.63C143.362 248.35 143.219 247.997 143.219 247.57C143.219 247.083 143.402 246.707 143.769 246.44C144.136 246.167 144.649 246.03 145.309 246.03H146.149V245.74C146.149 245.393 146.066 245.133 145.899 244.96C145.732 244.78 145.456 244.69 145.069 244.69C144.529 244.69 144.039 244.84 143.599 245.14ZM149.449 243.93V244.82C149.696 244.193 150.139 243.88 150.779 243.88C150.873 243.88 150.976 243.89 151.089 243.91V244.87C150.949 244.81 150.793 244.78 150.619 244.78C150.279 244.78 149.999 244.93 149.779 245.23C149.559 245.53 149.449 245.887 149.449 246.3V249H148.469V243.93H149.449ZM155.008 243.93H155.988V249H155.008V248.13C154.741 248.75 154.215 249.06 153.428 249.06C152.928 249.06 152.531 248.913 152.238 248.62C151.945 248.32 151.798 247.91 151.798 247.39V243.93H152.788V247.15C152.788 247.497 152.871 247.763 153.038 247.95C153.211 248.13 153.448 248.22 153.748 248.22C154.128 248.22 154.431 248.087 154.658 247.82C154.891 247.553 155.008 247.177 155.008 246.69V243.93ZM160.256 244.1V244.99C159.929 244.797 159.509 244.7 158.996 244.7C158.762 244.7 158.576 244.753 158.436 244.86C158.302 244.967 158.236 245.107 158.236 245.28C158.236 245.327 158.239 245.373 158.246 245.42C158.259 245.46 158.279 245.503 158.306 245.55C158.332 245.59 158.356 245.627 158.376 245.66C158.402 245.687 158.442 245.717 158.496 245.75C158.549 245.783 158.589 245.813 158.616 245.84C158.649 245.86 158.699 245.887 158.766 245.92C158.839 245.953 158.892 245.98 158.926 246C158.959 246.013 159.016 246.04 159.096 246.08C159.182 246.113 159.242 246.137 159.276 246.15C159.669 246.323 159.976 246.52 160.196 246.74C160.422 246.953 160.536 247.24 160.536 247.6C160.536 248.053 160.376 248.41 160.056 248.67C159.736 248.923 159.302 249.05 158.756 249.05C158.156 249.05 157.656 248.95 157.256 248.75V247.82C157.722 248.107 158.206 248.25 158.706 248.25C158.966 248.25 159.166 248.197 159.306 248.09C159.452 247.983 159.526 247.843 159.526 247.67C159.526 247.523 159.469 247.393 159.356 247.28C159.242 247.16 159.126 247.073 159.006 247.02C158.892 246.96 158.696 246.87 158.416 246.75C157.622 246.423 157.226 245.943 157.226 245.31C157.226 244.863 157.392 244.513 157.726 244.26C158.059 244.007 158.476 243.88 158.976 243.88C159.522 243.88 159.949 243.953 160.256 244.1ZM166.066 248.21C166.453 248.21 166.78 248.063 167.046 247.77C167.313 247.477 167.446 247.03 167.446 246.43C167.446 245.85 167.306 245.42 167.026 245.14C166.753 244.86 166.443 244.72 166.096 244.72C165.703 244.72 165.38 244.877 165.126 245.19C164.873 245.497 164.746 245.937 164.746 246.51C164.746 247.017 164.87 247.427 165.116 247.74C165.37 248.053 165.686 248.21 166.066 248.21ZM167.446 241.93H168.436V249H167.446V248.23C167.093 248.79 166.576 249.07 165.896 249.07C165.23 249.07 164.703 248.82 164.316 248.32C163.93 247.813 163.736 247.203 163.736 246.49C163.736 245.697 163.94 245.06 164.346 244.58C164.753 244.1 165.276 243.86 165.916 243.86C166.576 243.86 167.086 244.14 167.446 244.7V241.93ZM169.857 249V243.93H170.847V249H169.857ZM169.907 242.82C169.794 242.7 169.737 242.553 169.737 242.38C169.737 242.207 169.794 242.06 169.907 241.94C170.027 241.82 170.174 241.76 170.347 241.76C170.52 241.76 170.667 241.82 170.787 241.94C170.907 242.06 170.967 242.207 170.967 242.38C170.967 242.547 170.907 242.69 170.787 242.81C170.667 242.93 170.52 242.99 170.347 242.99C170.174 242.99 170.027 242.933 169.907 242.82ZM174.658 248.21C175.031 248.21 175.345 248.053 175.598 247.74C175.851 247.42 175.978 247.01 175.978 246.51C175.978 245.937 175.851 245.497 175.598 245.19C175.345 244.877 175.021 244.72 174.628 244.72C174.281 244.72 173.968 244.86 173.688 245.14C173.415 245.42 173.278 245.85 173.278 246.43C173.278 247.03 173.411 247.477 173.678 247.77C173.945 248.063 174.271 248.21 174.658 248.21ZM173.278 241.93V244.7C173.638 244.14 174.148 243.86 174.808 243.86C175.448 243.86 175.971 244.1 176.378 244.58C176.785 245.06 176.988 245.697 176.988 246.49C176.988 247.203 176.795 247.813 176.408 248.32C176.021 248.82 175.491 249.07 174.818 249.07C174.145 249.07 173.631 248.79 173.278 248.23V249H172.288V241.93H173.278ZM180.758 246.74H179.998C179.625 246.74 179.342 246.813 179.148 246.96C178.962 247.107 178.868 247.293 178.868 247.52C178.868 247.753 178.942 247.937 179.088 248.07C179.235 248.203 179.448 248.27 179.728 248.27C180.048 248.27 180.298 248.183 180.478 248.01C180.665 247.83 180.758 247.597 180.758 247.31V246.74ZM178.208 245.14V244.19C178.602 243.963 179.122 243.85 179.768 243.85C181.095 243.85 181.758 244.493 181.758 245.78V249H180.788V248.4C180.528 248.827 180.072 249.04 179.418 249.04C178.938 249.04 178.552 248.903 178.258 248.63C177.972 248.35 177.828 247.997 177.828 247.57C177.828 247.083 178.012 246.707 178.378 246.44C178.745 246.167 179.258 246.03 179.918 246.03H180.758V245.74C180.758 245.393 180.675 245.133 180.508 244.96C180.342 244.78 180.065 244.69 179.678 244.69C179.138 244.69 178.648 244.84 178.208 245.14ZM184.479 248.89L182.459 243.93H183.549L184.179 245.58L184.969 247.72C185.029 247.52 185.269 246.807 185.689 245.58L186.259 243.93H187.299L185.469 248.86C184.982 250.16 184.239 250.81 183.239 250.81C183.059 250.81 182.905 250.793 182.779 250.76V249.92C182.885 249.947 182.999 249.96 183.119 249.96C183.765 249.96 184.219 249.603 184.479 248.89ZM190.788 246.74H190.028C189.654 246.74 189.371 246.813 189.178 246.96C188.991 247.107 188.898 247.293 188.898 247.52C188.898 247.753 188.971 247.937 189.118 248.07C189.264 248.203 189.478 248.27 189.758 248.27C190.078 248.27 190.328 248.183 190.508 248.01C190.694 247.83 190.788 247.597 190.788 247.31V246.74ZM188.238 245.14V244.19C188.631 243.963 189.151 243.85 189.798 243.85C191.124 243.85 191.788 244.493 191.788 245.78V249H190.818V248.4C190.558 248.827 190.101 249.04 189.448 249.04C188.968 249.04 188.581 248.903 188.288 248.63C188.001 248.35 187.858 247.997 187.858 247.57C187.858 247.083 188.041 246.707 188.408 246.44C188.774 246.167 189.288 246.03 189.948 246.03H190.788V245.74C190.788 245.393 190.704 245.133 190.538 244.96C190.371 244.78 190.094 244.69 189.708 244.69C189.168 244.69 188.678 244.84 188.238 245.14ZM194.088 243.93V244.82C194.335 244.193 194.778 243.88 195.418 243.88C195.511 243.88 195.615 243.89 195.728 243.91V244.87C195.588 244.81 195.431 244.78 195.258 244.78C194.918 244.78 194.638 244.93 194.418 245.23C194.198 245.53 194.088 245.887 194.088 246.3V249H193.108V243.93H194.088ZM196.497 249V242H197.477V249H196.497ZM198.647 246.35L200.637 249H199.467L197.517 246.35L199.427 243.93H200.577L198.647 246.35ZM204.167 246.74H203.407C203.033 246.74 202.75 246.813 202.557 246.96C202.37 247.107 202.277 247.293 202.277 247.52C202.277 247.753 202.35 247.937 202.497 248.07C202.643 248.203 202.857 248.27 203.137 248.27C203.457 248.27 203.707 248.183 203.887 248.01C204.073 247.83 204.167 247.597 204.167 247.31V246.74ZM201.617 245.14V244.19C202.01 243.963 202.53 243.85 203.177 243.85C204.503 243.85 205.167 244.493 205.167 245.78V249H204.197V248.4C203.937 248.827 203.48 249.04 202.827 249.04C202.347 249.04 201.96 248.903 201.667 248.63C201.38 248.35 201.237 247.997 201.237 247.57C201.237 247.083 201.42 246.707 201.787 246.44C202.153 246.167 202.667 246.03 203.327 246.03H204.167V245.74C204.167 245.393 204.083 245.133 203.917 244.96C203.75 244.78 203.473 244.69 203.087 244.69C202.547 244.69 202.057 244.84 201.617 245.14ZM207.467 243.93V244.8C207.767 244.173 208.294 243.86 209.047 243.86C209.547 243.86 209.944 244.013 210.237 244.32C210.53 244.627 210.677 245.043 210.677 245.57V249H209.697V245.8C209.697 245.447 209.607 245.177 209.427 244.99C209.254 244.803 209.02 244.71 208.727 244.71C208.38 244.71 208.084 244.847 207.837 245.12C207.59 245.387 207.467 245.763 207.467 246.25V249H206.487V243.93H207.467ZM217.346 244.1V244.99C217.019 244.797 216.599 244.7 216.086 244.7C215.852 244.7 215.666 244.753 215.526 244.86C215.392 244.967 215.326 245.107 215.326 245.28C215.326 245.327 215.329 245.373 215.336 245.42C215.349 245.46 215.369 245.503 215.396 245.55C215.422 245.59 215.446 245.627 215.466 245.66C215.492 245.687 215.532 245.717 215.586 245.75C215.639 245.783 215.679 245.813 215.706 245.84C215.739 245.86 215.789 245.887 215.856 245.92C215.929 245.953 215.982 245.98 216.016 246C216.049 246.013 216.106 246.04 216.186 246.08C216.272 246.113 216.332 246.137 216.366 246.15C216.759 246.323 217.066 246.52 217.286 246.74C217.512 246.953 217.626 247.24 217.626 247.6C217.626 248.053 217.466 248.41 217.146 248.67C216.826 248.923 216.392 249.05 215.846 249.05C215.246 249.05 214.746 248.95 214.346 248.75V247.82C214.812 248.107 215.296 248.25 215.796 248.25C216.056 248.25 216.256 248.197 216.396 248.09C216.542 247.983 216.616 247.843 216.616 247.67C216.616 247.523 216.559 247.393 216.446 247.28C216.332 247.16 216.216 247.073 216.096 247.02C215.982 246.96 215.786 246.87 215.506 246.75C214.712 246.423 214.316 245.943 214.316 245.31C214.316 244.863 214.482 244.513 214.816 244.26C215.149 244.007 215.566 243.88 216.066 243.88C216.612 243.88 217.039 243.953 217.346 244.1ZM221.795 246.1V245.92C221.782 245.54 221.678 245.24 221.485 245.02C221.292 244.793 221.015 244.68 220.655 244.68C220.322 244.68 220.035 244.803 219.795 245.05C219.555 245.29 219.405 245.64 219.345 246.1H221.795ZM222.425 247.85V248.73C222.052 248.943 221.558 249.05 220.945 249.05C220.158 249.05 219.532 248.813 219.065 248.34C218.598 247.867 218.365 247.247 218.365 246.48C218.365 245.667 218.578 245.03 219.005 244.57C219.432 244.103 219.975 243.87 220.635 243.87C221.282 243.87 221.795 244.073 222.175 244.48C222.555 244.88 222.745 245.46 222.745 246.22C222.745 246.427 222.725 246.643 222.685 246.87H219.355C219.422 247.31 219.608 247.647 219.915 247.88C220.222 248.113 220.608 248.23 221.075 248.23C221.615 248.23 222.065 248.103 222.425 247.85ZM226.289 248.21C226.662 248.21 226.976 248.053 227.229 247.74C227.482 247.42 227.609 247.01 227.609 246.51C227.609 245.937 227.482 245.497 227.229 245.19C226.976 244.877 226.652 244.72 226.259 244.72C225.912 244.72 225.599 244.86 225.319 245.14C225.046 245.42 224.909 245.85 224.909 246.43C224.909 247.03 225.042 247.477 225.309 247.77C225.576 248.063 225.902 248.21 226.289 248.21ZM224.909 241.93V244.7C225.269 244.14 225.779 243.86 226.439 243.86C227.079 243.86 227.602 244.1 228.009 244.58C228.416 245.06 228.619 245.697 228.619 246.49C228.619 247.203 228.426 247.813 228.039 248.32C227.652 248.82 227.122 249.07 226.449 249.07C225.776 249.07 225.262 248.79 224.909 248.23V249H223.919V241.93H224.909ZM232.869 246.1V245.92C232.856 245.54 232.753 245.24 232.559 245.02C232.366 244.793 232.089 244.68 231.729 244.68C231.396 244.68 231.109 244.803 230.869 245.05C230.629 245.29 230.479 245.64 230.419 246.1H232.869ZM233.499 247.85V248.73C233.126 248.943 232.633 249.05 232.019 249.05C231.233 249.05 230.606 248.813 230.139 248.34C229.673 247.867 229.439 247.247 229.439 246.48C229.439 245.667 229.653 245.03 230.079 244.57C230.506 244.103 231.049 243.87 231.709 243.87C232.356 243.87 232.869 244.073 233.249 244.48C233.629 244.88 233.819 245.46 233.819 246.22C233.819 246.427 233.799 246.643 233.759 246.87H230.429C230.496 247.31 230.683 247.647 230.989 247.88C231.296 248.113 231.683 248.23 232.149 248.23C232.689 248.23 233.139 248.103 233.499 247.85ZM237.863 244.1V244.99C237.537 244.797 237.117 244.7 236.603 244.7C236.37 244.7 236.183 244.753 236.043 244.86C235.91 244.967 235.843 245.107 235.843 245.28C235.843 245.327 235.847 245.373 235.853 245.42C235.867 245.46 235.887 245.503 235.913 245.55C235.94 245.59 235.963 245.627 235.983 245.66C236.01 245.687 236.05 245.717 236.103 245.75C236.157 245.783 236.197 245.813 236.223 245.84C236.257 245.86 236.307 245.887 236.373 245.92C236.447 245.953 236.5 245.98 236.533 246C236.567 246.013 236.623 246.04 236.703 246.08C236.79 246.113 236.85 246.137 236.883 246.15C237.277 246.323 237.583 246.52 237.803 246.74C238.03 246.953 238.143 247.24 238.143 247.6C238.143 248.053 237.983 248.41 237.663 248.67C237.343 248.923 236.91 249.05 236.363 249.05C235.763 249.05 235.263 248.95 234.863 248.75V247.82C235.33 248.107 235.813 248.25 236.313 248.25C236.573 248.25 236.773 248.197 236.913 248.09C237.06 247.983 237.133 247.843 237.133 247.67C237.133 247.523 237.077 247.393 236.963 247.28C236.85 247.16 236.733 247.073 236.613 247.02C236.5 246.96 236.303 246.87 236.023 246.75C235.23 246.423 234.833 245.943 234.833 245.31C234.833 244.863 235 244.513 235.333 244.26C235.667 244.007 236.083 243.88 236.583 243.88C237.13 243.88 237.557 243.953 237.863 244.1ZM241.833 246.74H241.073C240.699 246.74 240.416 246.813 240.223 246.96C240.036 247.107 239.943 247.293 239.943 247.52C239.943 247.753 240.016 247.937 240.163 248.07C240.309 248.203 240.523 248.27 240.803 248.27C241.123 248.27 241.373 248.183 241.553 248.01C241.739 247.83 241.833 247.597 241.833 247.31V246.74ZM239.283 245.14V244.19C239.676 243.963 240.196 243.85 240.843 243.85C242.169 243.85 242.833 244.493 242.833 245.78V249H241.863V248.4C241.603 248.827 241.146 249.04 240.493 249.04C240.013 249.04 239.626 248.903 239.333 248.63C239.046 248.35 238.903 247.997 238.903 247.57C238.903 247.083 239.086 246.707 239.453 246.44C239.819 246.167 240.333 246.03 240.993 246.03H241.833V245.74C241.833 245.393 241.749 245.133 241.583 244.96C241.416 244.78 241.139 244.69 240.753 244.69C240.213 244.69 239.723 244.84 239.283 245.14ZM245.133 243.93V244.82C245.38 244.193 245.823 243.88 246.463 243.88C246.556 243.88 246.66 243.89 246.773 243.91V244.87C246.633 244.81 246.476 244.78 246.303 244.78C245.963 244.78 245.683 244.93 245.463 245.23C245.243 245.53 245.133 245.887 245.133 246.3V249H244.153V243.93H245.133Z" fill="#2B2B2B"/>
<path d="M251.273 243.3V245.5H252.113C252.499 245.5 252.789 245.403 252.983 245.21C253.176 245.01 253.273 244.733 253.273 244.38C253.273 244.033 253.169 243.767 252.963 243.58C252.763 243.393 252.473 243.3 252.093 243.3H251.273ZM253.493 249L251.963 246.54H251.273V249H250.013V242.26H252.093C252.859 242.26 253.459 242.453 253.893 242.84C254.333 243.227 254.553 243.743 254.553 244.39C254.546 244.87 254.429 245.277 254.203 245.61C253.976 245.937 253.666 246.18 253.273 246.34L255.003 249H253.493ZM258.311 248.04C258.671 248.04 258.965 247.903 259.191 247.63C259.418 247.35 259.531 246.96 259.531 246.46C259.531 245.96 259.418 245.573 259.191 245.3C258.965 245.02 258.678 244.88 258.331 244.88C257.985 244.88 257.685 245.01 257.431 245.27C257.178 245.53 257.051 245.917 257.051 246.43C257.051 246.943 257.175 247.34 257.421 247.62C257.668 247.9 257.965 248.04 258.311 248.04ZM257.051 243.93V244.71C257.411 244.143 257.928 243.86 258.601 243.86C259.261 243.86 259.785 244.097 260.171 244.57C260.565 245.043 260.761 245.667 260.761 246.44C260.761 247.2 260.565 247.83 260.171 248.33C259.785 248.823 259.258 249.07 258.591 249.07C257.911 249.07 257.398 248.793 257.051 248.24V250.91H255.851V243.93H257.051ZM265.159 246.5H266.879V243.21L265.159 246.5ZM268.939 246.5V247.53H268.079V249H266.879V247.53H263.969V246.5L266.149 242.45H268.079V246.5H268.939ZM269.536 245.7C269.536 244.667 269.74 243.85 270.146 243.25C270.553 242.643 271.13 242.34 271.876 242.34C272.63 242.34 273.21 242.643 273.616 243.25C274.03 243.85 274.236 244.667 274.236 245.7C274.236 246.727 274.033 247.547 273.626 248.16C273.226 248.773 272.643 249.08 271.876 249.08C271.13 249.08 270.553 248.773 270.146 248.16C269.74 247.547 269.536 246.727 269.536 245.7ZM271.066 244.02C270.866 244.407 270.766 244.967 270.766 245.7C270.766 246.433 270.863 247 271.056 247.4C271.256 247.793 271.53 247.99 271.876 247.99C272.236 247.99 272.513 247.793 272.706 247.4C272.906 247.007 273.006 246.44 273.006 245.7C273.006 244.96 272.903 244.397 272.696 244.01C272.496 243.623 272.223 243.43 271.876 243.43C271.536 243.43 271.266 243.627 271.066 244.02ZM274.995 245.7C274.995 244.667 275.199 243.85 275.605 243.25C276.012 242.643 276.589 242.34 277.335 242.34C278.089 242.34 278.669 242.643 279.075 243.25C279.489 243.85 279.695 244.667 279.695 245.7C279.695 246.727 279.492 247.547 279.085 248.16C278.685 248.773 278.102 249.08 277.335 249.08C276.589 249.08 276.012 248.773 275.605 248.16C275.199 247.547 274.995 246.727 274.995 245.7ZM276.525 244.02C276.325 244.407 276.225 244.967 276.225 245.7C276.225 246.433 276.322 247 276.515 247.4C276.715 247.793 276.989 247.99 277.335 247.99C277.695 247.99 277.972 247.793 278.165 247.4C278.365 247.007 278.465 246.44 278.465 245.7C278.465 244.96 278.362 244.397 278.155 244.01C277.955 243.623 277.682 243.43 277.335 243.43C276.995 243.43 276.725 243.627 276.525 244.02ZM280.004 250.26L280.984 247.79H282.374L281.044 250.26H280.004ZM283.13 245.7C283.13 244.667 283.333 243.85 283.74 243.25C284.147 242.643 284.723 242.34 285.47 242.34C286.223 242.34 286.803 242.643 287.21 243.25C287.623 243.85 287.83 244.667 287.83 245.7C287.83 246.727 287.627 247.547 287.22 248.16C286.82 248.773 286.237 249.08 285.47 249.08C284.723 249.08 284.147 248.773 283.74 248.16C283.333 247.547 283.13 246.727 283.13 245.7ZM284.66 244.02C284.46 244.407 284.36 244.967 284.36 245.7C284.36 246.433 284.457 247 284.65 247.4C284.85 247.793 285.123 247.99 285.47 247.99C285.83 247.99 286.107 247.793 286.3 247.4C286.5 247.007 286.6 246.44 286.6 245.7C286.6 244.96 286.497 244.397 286.29 244.01C286.09 243.623 285.817 243.43 285.47 243.43C285.13 243.43 284.86 243.627 284.66 244.02ZM288.589 245.7C288.589 244.667 288.792 243.85 289.199 243.25C289.606 242.643 290.182 242.34 290.929 242.34C291.682 242.34 292.262 242.643 292.669 243.25C293.082 243.85 293.289 244.667 293.289 245.7C293.289 246.727 293.086 247.547 292.679 248.16C292.279 248.773 291.696 249.08 290.929 249.08C290.182 249.08 289.606 248.773 289.199 248.16C288.792 247.547 288.589 246.727 288.589 245.7ZM290.119 244.02C289.919 244.407 289.819 244.967 289.819 245.7C289.819 246.433 289.916 247 290.109 247.4C290.309 247.793 290.582 247.99 290.929 247.99C291.289 247.99 291.566 247.793 291.759 247.4C291.959 247.007 292.059 246.44 292.059 245.7C292.059 244.96 291.956 244.397 291.749 244.01C291.549 243.623 291.276 243.43 290.929 243.43C290.589 243.43 290.319 243.627 290.119 244.02ZM294.048 245.7C294.048 244.667 294.251 243.85 294.658 243.25C295.065 242.643 295.641 242.34 296.388 242.34C297.141 242.34 297.721 242.643 298.128 243.25C298.541 243.85 298.748 244.667 298.748 245.7C298.748 246.727 298.545 247.547 298.138 248.16C297.738 248.773 297.155 249.08 296.388 249.08C295.641 249.08 295.065 248.773 294.658 248.16C294.251 247.547 294.048 246.727 294.048 245.7ZM295.578 244.02C295.378 244.407 295.278 244.967 295.278 245.7C295.278 246.433 295.375 247 295.568 247.4C295.768 247.793 296.041 247.99 296.388 247.99C296.748 247.99 297.025 247.793 297.218 247.4C297.418 247.007 297.518 246.44 297.518 245.7C297.518 244.96 297.415 244.397 297.208 244.01C297.008 243.623 296.735 243.43 296.388 243.43C296.048 243.43 295.778 243.627 295.578 244.02Z" fill="#FF1934"/>
<rect x="109" y="275" width="120" height="24" rx="8" fill="#FF1934"/>
<path d="M157.959 288.176L158.823 288.176C159.468 288.176 159.791 287.931 159.791 287.44C159.791 286.939 159.455 286.688 158.783 286.688L157.959 286.688L157.959 288.176ZM157.959 284.432L157.959 285.88L158.567 285.88C158.929 285.88 159.201 285.808 159.383 285.664C159.564 285.52 159.655 285.336 159.655 285.112C159.655 284.904 159.577 284.739 159.423 284.616C159.273 284.493 159.044 284.432 158.735 284.432L157.959 284.432ZM156.951 283.608L158.863 283.608C159.439 283.608 159.887 283.744 160.207 284.016C160.527 284.288 160.687 284.64 160.687 285.072C160.687 285.365 160.607 285.621 160.447 285.84C160.287 286.053 160.081 286.195 159.831 286.264C160.119 286.333 160.356 286.475 160.543 286.688C160.729 286.896 160.823 287.181 160.823 287.544C160.823 287.971 160.673 288.32 160.375 288.592C160.076 288.864 159.663 289 159.135 289L156.951 289L156.951 283.608ZM163.053 286.952L164.573 286.952L164.501 286.712C164.32 286.136 164.17 285.653 164.053 285.264C163.941 284.869 163.872 284.621 163.845 284.52L163.813 284.36C163.765 284.627 163.536 285.413 163.125 286.72L163.053 286.952ZM165.213 289L164.829 287.776L162.789 287.776L162.405 289L161.349 289L163.173 283.608L164.477 283.608L166.301 289L165.213 289ZM171.364 283.608L169.508 287L169.508 289L168.5 289L168.5 287.032L166.66 283.608L167.836 283.608L168.196 284.392C168.404 284.845 168.574 285.227 168.708 285.536C168.841 285.84 168.921 286.029 168.948 286.104L168.996 286.224C169.044 286.027 169.318 285.416 169.82 284.392L170.188 283.608L171.364 283.608ZM173.436 286.952L174.956 286.952L174.884 286.712C174.702 286.136 174.553 285.653 174.436 285.264C174.324 284.869 174.254 284.621 174.228 284.52L174.196 284.36C174.148 284.627 173.918 285.413 173.508 286.72L173.436 286.952ZM175.596 289L175.212 287.776L173.172 287.776L172.788 289L171.732 289L173.556 283.608L174.86 283.608L176.684 289L175.596 289ZM178.466 284.44L178.466 286.2L179.138 286.2C179.448 286.2 179.68 286.123 179.834 285.968C179.989 285.808 180.066 285.587 180.066 285.304C180.066 285.027 179.984 284.813 179.818 284.664C179.658 284.515 179.426 284.44 179.122 284.44L178.466 284.44ZM180.242 289L179.018 287.032L178.466 287.032L178.466 289L177.458 289L177.458 283.608L179.122 283.608C179.736 283.608 180.216 283.763 180.562 284.072C180.914 284.381 181.09 284.795 181.09 285.312C181.085 285.696 180.992 286.021 180.81 286.288C180.629 286.549 180.381 286.744 180.066 286.872L181.45 289L180.242 289Z" fill="white"/>
<path d="M9 341.5H329C333.694 341.5 337.5 345.306 337.5 350C337.5 354.694 333.694 358.5 329 358.5H9C4.30558 358.5 0.5 354.694 0.5 350C0.500002 345.306 4.30558 341.5 9 341.5Z" fill="white"/>
<path d="M9 341.5H329C333.694 341.5 337.5 345.306 337.5 350C337.5 354.694 333.694 358.5 329 358.5H9C4.30558 358.5 0.5 354.694 0.5 350C0.500002 345.306 4.30558 341.5 9 341.5Z" stroke="#CCCCCC"/>
<path d="M7.86805e-07 350C3.52265e-07 345.029 4.02944 341 9 341L39 341C43.9706 341 48 345.029 48 350C48 354.971 43.9706 359 39 359L9 359C4.02944 359 1.22135e-06 354.971 7.86805e-07 350Z" fill="#FF1934"/>
<path d="M15.448 346.688H16.264L16.816 348.6L17.456 350.92C17.5893 350.179 17.7547 349.403 17.952 348.592L18.44 346.608H19.464L18.088 352H16.92L16.432 350.296C16.2987 349.843 16.184 349.443 16.088 349.096C15.9973 348.749 15.936 348.517 15.904 348.4L15.864 348.216C15.7893 348.589 15.6027 349.283 15.304 350.296L14.8 352H13.64L12.2 346.608H13.264L13.768 348.6C13.8533 348.957 13.9387 349.328 14.024 349.712C14.1093 350.096 14.1733 350.389 14.216 350.592L14.28 350.904C14.4507 350.232 14.6587 349.464 14.904 348.6L15.448 346.688ZM22.2561 350.256H21.7601C21.5094 350.256 21.3174 350.309 21.1841 350.416C21.0507 350.517 20.9841 350.648 20.9841 350.808C20.9841 351.149 21.1814 351.32 21.5761 351.32C21.7894 351.32 21.9547 351.259 22.0721 351.136C22.1947 351.008 22.2561 350.843 22.2561 350.64V350.256ZM20.2881 349.04V348.152C20.5921 347.965 21.0294 347.872 21.6001 347.872C22.6987 347.872 23.2481 348.384 23.2481 349.408V352H22.2961V351.512C22.1094 351.859 21.7574 352.032 21.2401 352.032C20.8561 352.032 20.5494 351.92 20.3201 351.696C20.0961 351.472 19.9841 351.189 19.9841 350.848C19.9841 350.464 20.1281 350.163 20.4161 349.944C20.7041 349.725 21.1201 349.616 21.6641 349.616H22.2561V349.368C22.2561 349.144 22.1974 348.973 22.0801 348.856C21.9627 348.739 21.7627 348.68 21.4801 348.68C21.0481 348.68 20.6507 348.8 20.2881 349.04ZM27.7828 352H26.6548L25.1988 349.904V352H24.2388V346.44H25.1988V349.848L26.6308 347.944H27.7508L26.2628 349.88L27.7828 352ZM29.5864 348.664V350.728C29.5864 350.899 29.6318 351.029 29.7224 351.12C29.8131 351.205 29.9384 351.248 30.0984 351.248C30.3011 351.248 30.4878 351.192 30.6584 351.08V351.904C30.4718 351.995 30.2318 352.04 29.9384 352.04C29.0638 352.04 28.6264 351.597 28.6264 350.712V348.664H28.0184V347.944H28.6264V346.968H29.5864V347.944H30.5944V348.664H29.5864ZM33.9617 347.944H34.9297V352H33.9617V351.336C33.7484 351.805 33.3324 352.04 32.7137 352.04C32.303 352.04 31.983 351.923 31.7537 351.688C31.5244 351.453 31.4097 351.12 31.4097 350.688V347.944H32.3697V350.464C32.3697 350.72 32.431 350.915 32.5537 351.048C32.6817 351.181 32.855 351.248 33.0737 351.248C33.351 351.248 33.567 351.155 33.7217 350.968C33.8817 350.781 33.9617 350.499 33.9617 350.12V347.944Z" fill="white"/>
<rect x="56" y="348" width="274" height="4" rx="2" fill="#CCCCCC"/>
<mask id="mask0_1124_4113" style="mask-type:alpha" maskUnits="userSpaceOnUse" x="56" y="348" width="274" height="4">
<rect x="56" y="348" width="274" height="4" rx="2" fill="#CCCCCC"/>
</mask>
<g mask="url(#mask0_1124_4113)">
<rect x="56" y="348" width="274" height="4" rx="2" fill="#FF1934"/>
</g>
<defs>
<filter id="filter0_d_1124_4113" x="5" y="48" width="328" height="56" filterUnits="userSpaceOnUse" color-interpolation-filters="sRGB">
<feFlood flood-opacity="0" result="BackgroundImageFix"/>
<feColorMatrix in="SourceAlpha" type="matrix" values="0 0 0 0 0 0 0 0 0 0 0 0 0 0 0 0 0 0 127 0" result="hardAlpha"/>
<feOffset dy="2"/>
<feGaussianBlur stdDeviation="2"/>
<feComposite in2="hardAlpha" operator="out"/>
<feColorMatrix type="matrix" values="0 0 0 0 0.168627 0 0 0 0 0.168627 0 0 0 0 0.168627 0 0 0 0.24 0"/>
<feBlend mode="normal" in2="BackgroundImageFix" result="effect1_dropShadow_1124_4113"/>
<feBlend mode="normal" in="SourceGraphic" in2="effect1_dropShadow_1124_4113" result="shape"/>
</filter>
<clipPath id="clip0_1124_4113">
<rect width="24" height="24" fill="white" transform="translate(25 66)"/>
</clipPath>
<clipPath id="clip1_1124_4113">
<rect width="68" height="68" fill="white" transform="translate(135 130)"/>
</clipPath>
</defs>
</svg>
