<svg width="132" height="77" viewBox="0 0 132 77" fill="none" xmlns="http://www.w3.org/2000/svg">
<rect width="132" height="77" fill="#D3D3D3"/>
<path d="M20.64 19.848V23.928C18.688 22.648 16.352 22.008 13.632 22.008C11.68 22.008 10.128 22.472 8.976 23.4C7.824 24.296 7.248 25.48 7.248 26.952C7.248 27.72 7.392 28.408 7.68 29.016C8 29.624 8.544 30.2 9.312 30.744C10.08 31.256 10.736 31.656 11.28 31.944C11.824 32.2 12.672 32.584 13.824 33.096C14.912 33.576 15.744 33.96 16.32 34.248C16.896 34.504 17.632 34.936 18.528 35.544C19.456 36.12 20.144 36.696 20.592 37.272C21.072 37.816 21.488 38.552 21.84 39.48C22.224 40.376 22.416 41.352 22.416 42.408C22.416 45.256 21.44 47.464 19.488 49.032C17.536 50.568 15.024 51.336 11.952 51.336C8.56 51.336 5.68 50.648 3.312 49.272V45.096C5.648 46.856 8.496 47.736 11.856 47.736C13.872 47.736 15.456 47.288 16.608 46.392C17.76 45.496 18.336 44.2 18.336 42.504C18.336 41.8 18.192 41.176 17.904 40.632C17.648 40.056 17.2 39.544 16.56 39.096C15.952 38.616 15.36 38.232 14.784 37.944C14.24 37.624 13.488 37.24 12.528 36.792C12.336 36.696 12.048 36.568 11.664 36.408C10.288 35.8 9.232 35.304 8.496 34.92C7.792 34.536 6.944 33.976 5.952 33.24C4.992 32.472 4.288 31.592 3.84 30.6C3.392 29.608 3.168 28.456 3.168 27.144C3.168 24.392 4.144 22.248 6.096 20.712C8.08 19.144 10.56 18.36 13.536 18.36C16.32 18.36 18.688 18.856 20.64 19.848ZM40.7719 39.768H36.5479C34.4999 39.768 32.9639 40.168 31.9399 40.968C30.9159 41.768 30.4039 42.776 30.4039 43.992C30.4039 45.208 30.8039 46.2 31.6039 46.968C32.4039 47.704 33.5719 48.072 35.1079 48.072C36.8359 48.072 38.2119 47.592 39.2359 46.632C40.2599 45.64 40.7719 44.392 40.7719 42.888V39.768ZM28.1959 31.752V27.96C30.0199 26.84 32.4199 26.28 35.3959 26.28C41.5079 26.28 44.5639 29.384 44.5639 35.592V51H40.8199V48.12C39.5719 50.2 37.2999 51.24 34.0039 51.24C31.7319 51.24 29.8919 50.568 28.4839 49.224C27.1079 47.88 26.4199 46.184 26.4199 44.136C26.4199 41.8 27.2999 39.992 29.0599 38.712C30.8519 37.4 33.2839 36.744 36.3559 36.744H40.7719V35.496C40.7719 33.576 40.3399 32.136 39.4759 31.176C38.6119 30.184 37.1559 29.688 35.1079 29.688C32.5159 29.688 30.2119 30.376 28.1959 31.752ZM56.4769 51L47.9809 26.664H51.9169L55.2769 36.936L58.8289 48.024C59.1169 46.648 60.3169 42.952 62.4289 36.936L65.8849 26.664H69.8209L61.1329 51H56.4769ZM73.7032 51V26.664H77.4952V51H73.7032ZM73.7992 20.808C73.3512 20.328 73.1272 19.736 73.1272 19.032C73.1272 18.328 73.3512 17.736 73.7992 17.256C74.2792 16.776 74.8712 16.536 75.5752 16.536C76.2792 16.536 76.8712 16.776 77.3512 17.256C77.8312 17.736 78.0712 18.328 78.0712 19.032C78.0712 19.736 77.8312 20.328 77.3512 20.808C76.8712 21.256 76.2792 21.48 75.5752 21.48C74.8712 21.48 74.2792 21.256 73.7992 20.808ZM87.4504 26.664V30.888C88.8904 27.848 91.4504 26.328 95.1304 26.328C97.4984 26.328 99.3864 27.048 100.794 28.488C102.202 29.928 102.906 31.848 102.906 34.248V51H99.1144V35.256C99.1144 33.464 98.6504 32.104 97.7224 31.176C96.8264 30.216 95.6424 29.736 94.1704 29.736C92.3464 29.736 90.7624 30.44 89.4184 31.848C88.1064 33.256 87.4504 35.208 87.4504 37.704V51H83.7064V26.664H87.4504ZM117.74 47.016C119.5 47.016 121.052 46.344 122.396 45C123.772 43.624 124.46 41.592 124.46 38.904C124.46 35.8 123.804 33.496 122.492 31.992C121.18 30.488 119.66 29.736 117.932 29.736C115.852 29.736 114.204 30.568 112.988 32.232C111.772 33.864 111.164 36.008 111.164 38.664C111.164 41.384 111.836 43.464 113.18 44.904C114.524 46.312 116.044 47.016 117.74 47.016ZM124.46 26.664H128.252V49.032C128.252 52.744 127.228 55.528 125.18 57.384C123.132 59.272 120.492 60.216 117.26 60.216C114.316 60.216 111.804 59.72 109.724 58.728V54.936C111.772 56.12 114.172 56.712 116.924 56.712C119.26 56.712 121.1 56.088 122.444 54.84C123.788 53.592 124.46 51.64 124.46 48.984V46.248C122.86 49 120.476 50.376 117.308 50.376C114.524 50.376 112.14 49.352 110.156 47.304C108.204 45.256 107.228 42.408 107.228 38.76C107.228 35.144 108.14 32.168 109.964 29.832C111.788 27.496 114.172 26.328 117.116 26.328C120.444 26.328 122.892 27.784 124.46 30.696V26.664Z" fill="black"/>
</svg>
