<svg width="301" height="300" viewBox="0 0 301 300" fill="none" xmlns="http://www.w3.org/2000/svg">
<rect width="301" height="300" fill="#D3D3D3"/>
<rect width="301" height="300" rx="16" fill="white"/>
<g filter="url(#filter0_d_1124_4113)">
<path d="M0 16C0 7.16344 7.16344 0 16 0H285C293.837 0 301 7.16344 301 16V48H0V16Z" fill="#FF1934" shape-rendering="crispEdges"/>
<g clip-path="url(#clip0_1124_4113)">
<path d="M34.87 19.21C32.57 18.85 30.26 18.95 27.99 19.51C25.73 20.12 23.3 20.22 20.99 19.8C20.51 19.71 20.01 19.84 19.63 20.16C19.24 20.49 19.01 20.97 19.01 21.48V28.09C19.01 29.38 19.96 30.47 21.24 30.66C22.11 30.79 22.99 30.86 23.86 30.86C25.39 30.86 26.91 30.66 28.39 30.26C30.58 29.73 32.81 29.66 35.04 30.06C35.53 30.15 36.02 30.01 36.4 29.7C36.79 29.38 37.01 28.9 37.01 28.4V21.77C37.01 20.52 36.12 19.41 34.88 19.22L34.87 19.21ZM35.4 21.76V22.44C34.55 22.18 33.88 21.53 33.59 20.69C33.92 20.72 34.26 20.74 34.59 20.79C35.06 20.86 35.4 21.29 35.4 21.77V21.76ZM20.7 21.37C21.11 21.44 21.53 21.48 21.95 21.53C21.6 21.97 21.14 22.29 20.6 22.45V21.48C20.6 21.43 20.63 21.4 20.7 21.37ZM20.6 28.09V27.42C21.45 27.68 22.12 28.33 22.4 29.17C22.08 29.14 21.77 29.12 21.45 29.08C20.96 29.01 20.6 28.59 20.6 28.1V28.09ZM27.99 28.7C26.91 28.99 25.81 29.15 24.71 29.21C24.37 29.23 24.04 29.02 23.93 28.69C23.49 27.36 22.44 26.32 21.11 25.89C20.79 25.79 20.6 25.47 20.6 25.14V24.7C20.6 24.36 20.81 24.05 21.13 23.95C22.14 23.63 22.99 22.95 23.54 22.04C23.69 21.79 23.94 21.62 24.23 21.62C25.64 21.59 27.04 21.42 28.38 21.05C29.33 20.82 30.3 20.68 31.27 20.63C31.61 20.61 31.94 20.82 32.05 21.14C32.49 22.47 33.55 23.52 34.88 23.94C35.2 24.04 35.4 24.36 35.4 24.69V25.13C35.4 25.47 35.19 25.78 34.87 25.88C33.86 26.2 33.01 26.87 32.46 27.79C32.31 28.04 32.06 28.2 31.77 28.21C30.5 28.23 29.24 28.39 27.99 28.69V28.7ZM35.32 28.48C34.9 28.4 34.47 28.36 34.05 28.32C34.4 27.89 34.87 27.57 35.4 27.41V28.39L35.32 28.48Z" fill="white"/>
<path d="M27.9 21.8999C26.18 22.1199 24.97 23.3599 24.97 24.9199C24.97 25.8199 25.36 26.7099 26.02 27.2899C26.52 27.7299 27.13 27.9599 27.76 27.9599C27.87 27.9599 27.98 27.9599 28.09 27.9399C29.81 27.7199 31.02 26.4799 31.02 24.9199C31.02 24.0199 30.63 23.1299 29.97 22.5499C29.38 22.0299 28.64 21.7999 27.9 21.8999ZM27.9 26.3599C27.52 26.4099 27.25 26.2399 27.08 26.0899C26.76 25.8099 26.57 25.3699 26.57 24.9199C26.57 24.0699 27.36 23.5799 28.1 23.4899C28.14 23.4899 28.19 23.4899 28.23 23.4899C28.54 23.4899 28.77 23.6299 28.92 23.7699C29.24 24.0499 29.43 24.4899 29.43 24.9399C29.43 25.7899 28.64 26.2799 27.9 26.3699V26.3599Z" fill="white"/>
<path d="M35.32 31.0699C32.87 30.6299 30.41 30.6999 27.99 31.2899C25.85 31.8699 23.65 31.9899 21.44 31.6599C21.01 31.5999 20.6 31.8899 20.53 32.3299C20.46 32.7699 20.76 33.1699 21.2 33.2399C22.09 33.3699 22.97 33.4399 23.85 33.4399C25.38 33.4399 26.9 33.2399 28.38 32.8399C30.57 32.3099 32.8 32.2399 35.03 32.6399C35.47 32.7199 35.88 32.4299 35.96 31.9999C36.04 31.5599 35.75 31.1499 35.32 31.0699Z" fill="white"/>
<path d="M34.62 33.52C32.4 33.21 30.17 33.32 27.99 33.85C26.16 34.34 24.28 34.5 22.39 34.33C21.95 34.29 21.56 34.62 21.52 35.05C21.48 35.49 21.8 35.88 22.24 35.92C22.78 35.97 23.31 35.99 23.85 35.99C25.39 35.99 26.91 35.79 28.39 35.39C30.36 34.91 32.39 34.81 34.4 35.09C34.84 35.16 35.24 34.85 35.3 34.41C35.36 33.97 35.06 33.57 34.62 33.51V33.52Z" fill="white"/>
</g>
<path d="M55.196 22.564V24.3H52.9V32H50.73V24.3H48.42V22.564H55.196ZM59.9692 29.088H59.3112C58.9659 29.088 58.6999 29.1627 58.5132 29.312C58.3266 29.4613 58.2332 29.6527 58.2332 29.886C58.2332 30.362 58.5086 30.6 59.0592 30.6C59.3486 30.6 59.5726 30.5113 59.7312 30.334C59.8899 30.1567 59.9692 29.914 59.9692 29.606V29.088ZM56.6512 27.086V25.252C57.2112 24.9347 58.0186 24.776 59.0732 24.776C60.0812 24.776 60.8326 24.9953 61.3272 25.434C61.8219 25.8633 62.0692 26.5353 62.0692 27.45V32H60.0672V31.132C59.7686 31.7387 59.1806 32.042 58.3032 32.042C57.6126 32.042 57.0712 31.846 56.6792 31.454C56.2966 31.062 56.1052 30.572 56.1052 29.984C56.1052 29.3027 56.3526 28.7753 56.8472 28.402C57.3512 28.0193 58.0932 27.828 59.0732 27.828H59.9692V27.338C59.9692 26.7407 59.5726 26.442 58.7792 26.442C58.0139 26.442 57.3046 26.6567 56.6512 27.086ZM67.286 30.376C67.7153 30.376 68.0793 30.2033 68.378 29.858C68.6767 29.5033 68.826 29.0413 68.826 28.472C68.826 27.856 68.6767 27.3753 68.378 27.03C68.0887 26.6847 67.7293 26.512 67.3 26.512C66.8707 26.512 66.4973 26.6753 66.18 27.002C65.872 27.3287 65.718 27.786 65.718 28.374C65.718 28.9807 65.8627 29.466 66.152 29.83C66.4413 30.194 66.8193 30.376 67.286 30.376ZM65.718 22.102V25.994C66.2033 25.21 66.908 24.818 67.832 24.818C68.7187 24.818 69.4513 25.14 70.03 25.784C70.6087 26.428 70.898 27.31 70.898 28.43C70.898 29.4287 70.618 30.2873 70.058 31.006C69.5073 31.7247 68.77 32.084 67.846 32.084C66.9033 32.084 66.194 31.6873 65.718 30.894V32H63.674V22.102H65.718ZM76.6286 24.902H78.6726V32H76.6286V30.866C76.2552 31.6593 75.5366 32.056 74.4726 32.056C73.7446 32.056 73.1752 31.8553 72.7646 31.454C72.3632 31.0433 72.1626 30.4413 72.1626 29.648V24.902H74.2066V29.186C74.2066 30.0167 74.5706 30.432 75.2986 30.432C76.1852 30.432 76.6286 29.8393 76.6286 28.654V24.902ZM82.3977 24.902V26.106C82.575 25.714 82.8457 25.406 83.2097 25.182C83.583 24.9487 84.0263 24.832 84.5397 24.832C85.2677 24.832 85.837 25.0513 86.2477 25.49C86.6583 25.9193 86.8637 26.554 86.8637 27.394V32H84.8197V27.772C84.8197 27.352 84.7217 27.0347 84.5257 26.82C84.3297 26.596 84.0543 26.484 83.6997 26.484C83.3263 26.484 83.0137 26.6333 82.7617 26.932C82.519 27.2213 82.3977 27.66 82.3977 28.248V32H80.3537V24.902H82.3977ZM91.6248 30.138C92.0634 30.138 92.4041 29.9747 92.6468 29.648C92.8988 29.312 93.0248 28.9107 93.0248 28.444C93.0248 27.1747 92.5628 26.54 91.6388 26.54C91.2281 26.54 90.9061 26.6987 90.6728 27.016C90.4394 27.3333 90.3228 27.772 90.3228 28.332C90.3228 28.92 90.4348 29.368 90.6588 29.676C90.8828 29.984 91.2048 30.138 91.6248 30.138ZM93.0248 24.902H95.0548V31.314C95.0548 32.4527 94.7141 33.3067 94.0328 33.876C93.3514 34.4547 92.4974 34.744 91.4708 34.744C90.4721 34.744 89.5994 34.5667 88.8528 34.212V32.126C89.5061 32.6487 90.3088 32.91 91.2608 32.91C91.8768 32.91 92.3248 32.7793 92.6048 32.518C92.8848 32.2567 93.0248 31.846 93.0248 31.286V30.81C92.6141 31.4447 91.9608 31.762 91.0648 31.762C90.2808 31.762 89.6041 31.4727 89.0348 30.894C88.4748 30.3153 88.1948 29.4567 88.1948 28.318C88.1948 27.31 88.4654 26.4793 89.0068 25.826C89.5574 25.1633 90.2761 24.832 91.1628 24.832C92.0028 24.832 92.6234 25.168 93.0248 25.84V24.902ZM100.178 29.088H99.5202C99.1749 29.088 98.9089 29.1627 98.7222 29.312C98.5356 29.4613 98.4422 29.6527 98.4422 29.886C98.4422 30.362 98.7176 30.6 99.2682 30.6C99.5576 30.6 99.7816 30.5113 99.9402 30.334C100.099 30.1567 100.178 29.914 100.178 29.606V29.088ZM96.8602 27.086V25.252C97.4202 24.9347 98.2276 24.776 99.2822 24.776C100.29 24.776 101.042 24.9953 101.536 25.434C102.031 25.8633 102.278 26.5353 102.278 27.45V32H100.276V31.132C99.9776 31.7387 99.3896 32.042 98.5122 32.042C97.8216 32.042 97.2802 31.846 96.8882 31.454C96.5056 31.062 96.3142 30.572 96.3142 29.984C96.3142 29.3027 96.5616 28.7753 97.0562 28.402C97.5602 28.0193 98.3022 27.828 99.2822 27.828H100.178V27.338C100.178 26.7407 99.7816 26.442 98.9882 26.442C98.2229 26.442 97.5136 26.6567 96.8602 27.086ZM105.927 24.902V26.106C106.104 25.714 106.375 25.406 106.739 25.182C107.112 24.9487 107.556 24.832 108.069 24.832C108.797 24.832 109.366 25.0513 109.777 25.49C110.188 25.9193 110.393 26.554 110.393 27.394V32H108.349V27.772C108.349 27.352 108.251 27.0347 108.055 26.82C107.859 26.596 107.584 26.484 107.229 26.484C106.856 26.484 106.543 26.6333 106.291 26.932C106.048 27.2213 105.927 27.66 105.927 28.248V32H103.883V24.902H105.927Z" fill="white"/>
</g>
<g clip-path="url(#clip1_1124_4113)">
<path d="M150.5 126.07C139.772 126.07 131.044 124.348 131.044 122.23C131.044 120.113 139.772 118.39 150.5 118.39C161.228 118.39 169.956 120.113 169.956 122.23C169.956 124.348 161.228 126.07 150.5 126.07Z" fill="#CCCCCC"/>
<path d="M143.831 111.067C142.139 111.067 140.447 110.449 139.098 109.213L129.678 100.581C128.184 99.2122 128.082 96.8903 129.452 95.3965C130.82 93.9008 133.142 93.8023 134.636 95.1706L144.056 103.803L166.365 82.9466C167.861 81.5808 170.182 81.6794 171.549 83.1725C172.919 84.6663 172.816 86.9882 171.323 88.3565L148.563 109.213C147.214 110.449 145.522 111.067 143.831 111.067H143.831Z" fill="#008C1E"/>
<path d="M147.256 123.014C146.433 123.014 145.61 122.954 144.954 122.833L140.371 121.991C139.645 121.857 139.595 121.631 140.261 121.485C140.927 121.339 142.056 121.329 142.783 121.463L147.365 122.305L158.216 120.27C158.944 120.136 160.073 120.146 160.738 120.291C161.404 120.437 161.354 120.664 160.628 120.798L149.557 122.833C148.901 122.954 148.078 123.014 147.256 123.014Z" fill="#F1F1F1"/>
</g>
<path d="M55.7434 144.54H58.1334L58.0034 144.15L56.9534 140.91C56.8734 141.197 56.5134 142.28 55.8734 144.16L55.7434 144.54ZM58.9534 147L58.3634 145.23H55.5134L54.9134 147H54.0434L56.3934 140.26H57.5134L59.8234 147H58.9534ZM61.6877 141.93V142.81C61.9877 142.177 62.5211 141.86 63.2877 141.86C63.7811 141.86 64.1744 142.01 64.4677 142.31C64.7611 142.61 64.9077 143.01 64.9077 143.51V147H64.1177V143.72C64.1177 143.347 64.0211 143.063 63.8277 142.87C63.6411 142.67 63.3944 142.57 63.0877 142.57C62.7077 142.57 62.3777 142.717 62.0977 143.01C61.8244 143.303 61.6877 143.71 61.6877 144.23V147H60.9077V141.93H61.6877ZM68.2381 146.36C68.6515 146.36 69.0015 146.207 69.2881 145.9C69.5815 145.593 69.7281 145.103 69.7281 144.43C69.7281 143.79 69.5781 143.32 69.2781 143.02C68.9781 142.72 68.6481 142.57 68.2881 142.57C67.8681 142.57 67.5181 142.74 67.2381 143.08C66.9648 143.413 66.8281 143.893 66.8281 144.52C66.8281 145.067 66.9615 145.51 67.2281 145.85C67.4948 146.19 67.8315 146.36 68.2381 146.36ZM69.7281 139.93H70.5181V147H69.7281V146.25C69.3681 146.803 68.8481 147.08 68.1681 147.08C67.4948 147.08 66.9648 146.83 66.5781 146.33C66.1981 145.83 66.0081 145.223 66.0081 144.51C66.0081 143.717 66.2115 143.077 66.6181 142.59C67.0248 142.097 67.5481 141.85 68.1881 141.85C68.8481 141.85 69.3615 142.133 69.7281 142.7V139.93ZM74.712 144.66H73.832C73.4053 144.66 73.0853 144.743 72.872 144.91C72.6586 145.077 72.552 145.287 72.552 145.54C72.552 145.793 72.6353 146 72.802 146.16C72.9686 146.313 73.212 146.39 73.532 146.39C73.892 146.39 74.1786 146.29 74.392 146.09C74.6053 145.883 74.712 145.623 74.712 145.31V144.66ZM72.092 142.99V142.2C72.472 141.967 72.972 141.85 73.592 141.85C74.8653 141.85 75.502 142.497 75.502 143.79V147H74.722V146.4C74.462 146.833 73.9886 147.05 73.302 147.05C72.8286 147.05 72.4453 146.91 72.152 146.63C71.8653 146.35 71.722 145.997 71.722 145.57C71.722 145.083 71.9053 144.707 72.272 144.44C72.6453 144.167 73.152 144.03 73.792 144.03H74.712V143.77C74.712 143.37 74.622 143.07 74.442 142.87C74.262 142.663 73.9586 142.56 73.532 142.56C72.992 142.56 72.512 142.703 72.092 142.99ZM80.4352 142.57V145.54C80.4352 146.08 80.6886 146.35 81.1952 146.35C81.4552 146.35 81.6852 146.273 81.8852 146.12V146.87C81.6652 146.99 81.4186 147.05 81.1452 147.05C80.1452 147.05 79.6452 146.54 79.6452 145.52V142.57H78.8352V141.93H79.6452V140.67H80.4352V141.93H81.8352V142.57H80.4352ZM86.2666 144.14V143.94C86.2666 143.52 86.1533 143.187 85.9266 142.94C85.7 142.687 85.3866 142.56 84.9866 142.56C84.6066 142.56 84.2833 142.697 84.0166 142.97C83.75 143.243 83.5933 143.633 83.5466 144.14H86.2666ZM86.7366 146V146.74C86.3433 146.947 85.8633 147.05 85.2966 147.05C84.53 147.05 83.91 146.817 83.4366 146.35C82.97 145.877 82.7366 145.253 82.7366 144.48C82.7366 143.673 82.9466 143.037 83.3666 142.57C83.7866 142.103 84.3266 141.87 84.9866 141.87C85.62 141.87 86.1233 142.073 86.4966 142.48C86.87 142.887 87.0566 143.463 87.0566 144.21C87.0566 144.423 87.04 144.62 87.0066 144.8H83.5466C83.6066 145.3 83.7966 145.683 84.1166 145.95C84.4366 146.217 84.8566 146.35 85.3766 146.35C85.9433 146.35 86.3966 146.233 86.7366 146ZM88.3013 147V139.93H89.0913V147H88.3013ZM93.3252 144.66H92.4452C92.0186 144.66 91.6986 144.743 91.4852 144.91C91.2719 145.077 91.1652 145.287 91.1652 145.54C91.1652 145.793 91.2486 146 91.4152 146.16C91.5819 146.313 91.8252 146.39 92.1452 146.39C92.5052 146.39 92.7919 146.29 93.0052 146.09C93.2186 145.883 93.3252 145.623 93.3252 145.31V144.66ZM90.7052 142.99V142.2C91.0852 141.967 91.5852 141.85 92.2052 141.85C93.4786 141.85 94.1152 142.497 94.1152 143.79V147H93.3352V146.4C93.0752 146.833 92.6019 147.05 91.9152 147.05C91.4419 147.05 91.0586 146.91 90.7652 146.63C90.4786 146.35 90.3352 145.997 90.3352 145.57C90.3352 145.083 90.5186 144.707 90.8852 144.44C91.2586 144.167 91.7652 144.03 92.4052 144.03H93.3252V143.77C93.3252 143.37 93.2352 143.07 93.0552 142.87C92.8752 142.663 92.5719 142.56 92.1452 142.56C91.6052 142.56 91.1252 142.703 90.7052 142.99ZM96.2971 139.93V142.81C96.5971 142.177 97.1304 141.86 97.8971 141.86C98.3838 141.86 98.7738 142.01 99.0671 142.31C99.3671 142.61 99.5171 143.017 99.5171 143.53V147H98.7271V143.72C98.7271 143.353 98.6304 143.07 98.4371 142.87C98.2504 142.67 98.0038 142.57 97.6971 142.57C97.3238 142.57 96.9971 142.713 96.7171 143C96.4371 143.287 96.2971 143.697 96.2971 144.23V147H95.5171V139.93H96.2971ZM105.669 146.36C106.076 146.36 106.412 146.19 106.679 145.85C106.946 145.51 107.079 145.067 107.079 144.52C107.079 143.893 106.939 143.413 106.659 143.08C106.386 142.74 106.039 142.57 105.619 142.57C105.259 142.57 104.929 142.72 104.629 143.02C104.329 143.32 104.179 143.79 104.179 144.43C104.179 145.103 104.322 145.593 104.609 145.9C104.902 146.207 105.256 146.36 105.669 146.36ZM104.179 139.93V142.69C104.546 142.13 105.059 141.85 105.719 141.85C106.359 141.85 106.882 142.097 107.289 142.59C107.696 143.077 107.899 143.717 107.899 144.51C107.899 145.223 107.706 145.83 107.319 146.33C106.939 146.83 106.412 147.08 105.739 147.08C105.059 147.08 104.539 146.803 104.179 146.25V147H103.389V139.93H104.179ZM112.292 144.14V143.94C112.292 143.52 112.179 143.187 111.952 142.94C111.725 142.687 111.412 142.56 111.012 142.56C110.632 142.56 110.309 142.697 110.042 142.97C109.775 143.243 109.619 143.633 109.572 144.14H112.292ZM112.762 146V146.74C112.369 146.947 111.889 147.05 111.322 147.05C110.555 147.05 109.935 146.817 109.462 146.35C108.995 145.877 108.762 145.253 108.762 144.48C108.762 143.673 108.972 143.037 109.392 142.57C109.812 142.103 110.352 141.87 111.012 141.87C111.645 141.87 112.149 142.073 112.522 142.48C112.895 142.887 113.082 143.463 113.082 144.21C113.082 144.423 113.065 144.62 113.032 144.8H109.572C109.632 145.3 109.822 145.683 110.142 145.95C110.462 146.217 110.882 146.35 111.402 146.35C111.969 146.35 112.422 146.233 112.762 146ZM115.067 141.93V142.82C115.333 142.193 115.793 141.88 116.447 141.88C116.567 141.88 116.66 141.887 116.727 141.9V142.68C116.587 142.633 116.443 142.61 116.297 142.61C115.943 142.61 115.65 142.773 115.417 143.1C115.183 143.427 115.067 143.803 115.067 144.23V147H114.277L114.287 141.93H115.067ZM118.328 139.93V142.81C118.628 142.177 119.162 141.86 119.928 141.86C120.415 141.86 120.805 142.01 121.098 142.31C121.398 142.61 121.548 143.017 121.548 143.53V147H120.758V143.72C120.758 143.353 120.662 143.07 120.468 142.87C120.282 142.67 120.035 142.57 119.728 142.57C119.355 142.57 119.028 142.713 118.748 143C118.468 143.287 118.328 143.697 118.328 144.23V147H117.548V139.93H118.328ZM125.679 144.66H124.799C124.372 144.66 124.052 144.743 123.839 144.91C123.625 145.077 123.519 145.287 123.519 145.54C123.519 145.793 123.602 146 123.769 146.16C123.935 146.313 124.179 146.39 124.499 146.39C124.859 146.39 125.145 146.29 125.359 146.09C125.572 145.883 125.679 145.623 125.679 145.31V144.66ZM123.059 142.99V142.2C123.439 141.967 123.939 141.85 124.559 141.85C125.832 141.85 126.469 142.497 126.469 143.79V147H125.689V146.4C125.429 146.833 124.955 147.05 124.269 147.05C123.795 147.05 123.412 146.91 123.119 146.63C122.832 146.35 122.689 145.997 122.689 145.57C122.689 145.083 122.872 144.707 123.239 144.44C123.612 144.167 124.119 144.03 124.759 144.03H125.679V143.77C125.679 143.37 125.589 143.07 125.409 142.87C125.229 142.663 124.925 142.56 124.499 142.56C123.959 142.56 123.479 142.703 123.059 142.99ZM130.631 142.1V142.85C130.324 142.663 129.904 142.57 129.371 142.57C129.104 142.57 128.891 142.633 128.731 142.76C128.577 142.88 128.501 143.037 128.501 143.23C128.501 143.35 128.524 143.457 128.571 143.55C128.617 143.637 128.707 143.723 128.841 143.81C128.981 143.897 129.081 143.957 129.141 143.99C129.207 144.017 129.347 144.077 129.561 144.17C129.987 144.343 130.321 144.54 130.561 144.76C130.801 144.98 130.921 145.277 130.921 145.65C130.921 146.083 130.767 146.427 130.461 146.68C130.161 146.933 129.747 147.06 129.221 147.06C128.607 147.06 128.111 146.957 127.731 146.75V145.98C128.177 146.247 128.657 146.38 129.171 146.38C129.477 146.38 129.711 146.32 129.871 146.2C130.031 146.08 130.111 145.917 130.111 145.71C130.111 145.47 130.021 145.283 129.841 145.15C129.667 145.017 129.374 144.867 128.961 144.7C128.581 144.553 128.274 144.37 128.041 144.15C127.814 143.93 127.701 143.633 127.701 143.26C127.701 142.84 127.857 142.507 128.171 142.26C128.491 142.007 128.887 141.88 129.361 141.88C129.887 141.88 130.311 141.953 130.631 142.1ZM132.032 147V141.93H132.822V147H132.032ZM132.052 140.71C131.958 140.61 131.912 140.487 131.912 140.34C131.912 140.193 131.958 140.07 132.052 139.97C132.152 139.87 132.275 139.82 132.422 139.82C132.568 139.82 132.692 139.87 132.792 139.97C132.892 140.07 132.942 140.193 132.942 140.34C132.942 140.487 132.892 140.61 132.792 140.71C132.692 140.803 132.568 140.85 132.422 140.85C132.275 140.85 132.152 140.803 132.052 140.71ZM134.366 147V139.93H135.156V147H134.366ZM139.881 141.93V142.75C140.161 142.157 140.638 141.86 141.311 141.86C142.091 141.86 142.584 142.19 142.791 142.85C142.938 142.53 143.141 142.287 143.401 142.12C143.668 141.947 143.964 141.86 144.291 141.86C144.818 141.86 145.214 142.01 145.481 142.31C145.748 142.61 145.881 143.013 145.881 143.52V147H145.091V143.72C145.091 142.953 144.768 142.57 144.121 142.57C143.801 142.57 143.514 142.717 143.261 143.01C143.008 143.297 142.881 143.703 142.881 144.23V147H142.091V143.72C142.091 142.953 141.768 142.57 141.121 142.57C140.801 142.57 140.514 142.717 140.261 143.01C140.008 143.297 139.881 143.703 139.881 144.23V147H139.101V141.93H139.881ZM150.515 144.14V143.94C150.515 143.52 150.401 143.187 150.175 142.94C149.948 142.687 149.635 142.56 149.235 142.56C148.855 142.56 148.531 142.697 148.265 142.97C147.998 143.243 147.841 143.633 147.795 144.14H150.515ZM150.985 146V146.74C150.591 146.947 150.111 147.05 149.545 147.05C148.778 147.05 148.158 146.817 147.685 146.35C147.218 145.877 146.985 145.253 146.985 144.48C146.985 143.673 147.195 143.037 147.615 142.57C148.035 142.103 148.575 141.87 149.235 141.87C149.868 141.87 150.371 142.073 150.745 142.48C151.118 142.887 151.305 143.463 151.305 144.21C151.305 144.423 151.288 144.62 151.255 144.8H147.795C147.855 145.3 148.045 145.683 148.365 145.95C148.685 146.217 149.105 146.35 149.625 146.35C150.191 146.35 150.645 146.233 150.985 146ZM153.289 141.93V142.81C153.589 142.177 154.123 141.86 154.889 141.86C155.383 141.86 155.776 142.01 156.069 142.31C156.363 142.61 156.509 143.01 156.509 143.51V147H155.719V143.72C155.719 143.347 155.623 143.063 155.429 142.87C155.243 142.67 154.996 142.57 154.689 142.57C154.309 142.57 153.979 142.717 153.699 143.01C153.426 143.303 153.289 143.71 153.289 144.23V147H152.509V141.93H153.289ZM160.64 144.66H159.76C159.333 144.66 159.013 144.743 158.8 144.91C158.586 145.077 158.48 145.287 158.48 145.54C158.48 145.793 158.563 146 158.73 146.16C158.896 146.313 159.14 146.39 159.46 146.39C159.82 146.39 160.106 146.29 160.32 146.09C160.533 145.883 160.64 145.623 160.64 145.31V144.66ZM158.02 142.99V142.2C158.4 141.967 158.9 141.85 159.52 141.85C160.793 141.85 161.43 142.497 161.43 143.79V147H160.65V146.4C160.39 146.833 159.916 147.05 159.23 147.05C158.756 147.05 158.373 146.91 158.08 146.63C157.793 146.35 157.65 145.997 157.65 145.57C157.65 145.083 157.833 144.707 158.2 144.44C158.573 144.167 159.08 144.03 159.72 144.03H160.64V143.77C160.64 143.37 160.55 143.07 160.37 142.87C160.19 142.663 159.886 142.56 159.46 142.56C158.92 142.56 158.44 142.703 158.02 142.99ZM165.142 146.36C165.548 146.36 165.885 146.19 166.152 145.85C166.418 145.51 166.552 145.067 166.552 144.52C166.552 143.893 166.412 143.413 166.132 143.08C165.858 142.74 165.512 142.57 165.092 142.57C164.732 142.57 164.402 142.72 164.102 143.02C163.802 143.32 163.652 143.79 163.652 144.43C163.652 145.103 163.795 145.593 164.082 145.9C164.375 146.207 164.728 146.36 165.142 146.36ZM163.652 139.93V142.69C164.018 142.13 164.532 141.85 165.192 141.85C165.832 141.85 166.355 142.097 166.762 142.59C167.168 143.077 167.372 143.717 167.372 144.51C167.372 145.223 167.178 145.83 166.792 146.33C166.412 146.83 165.885 147.08 165.212 147.08C164.532 147.08 164.012 146.803 163.652 146.25V147H162.862V139.93H163.652ZM171.685 141.93H172.475V147H171.685V146.12C171.418 146.747 170.888 147.06 170.095 147.06C169.595 147.06 169.198 146.913 168.905 146.62C168.618 146.32 168.475 145.92 168.475 145.42V141.93H169.265V145.22C169.265 145.587 169.358 145.867 169.545 146.06C169.731 146.253 169.985 146.35 170.305 146.35C170.725 146.35 171.058 146.203 171.305 145.91C171.558 145.617 171.685 145.22 171.685 144.72V141.93ZM174.715 141.93V142.81C175.015 142.177 175.548 141.86 176.315 141.86C176.808 141.86 177.202 142.01 177.495 142.31C177.788 142.61 177.935 143.01 177.935 143.51V147H177.145V143.72C177.145 143.347 177.048 143.063 176.855 142.87C176.668 142.67 176.422 142.57 176.115 142.57C175.735 142.57 175.405 142.717 175.125 143.01C174.852 143.303 174.715 143.71 174.715 144.23V147H173.935V141.93H174.715ZM181.235 146.17C181.602 146.17 181.925 146.03 182.205 145.75C182.492 145.463 182.635 145.04 182.635 144.48C182.635 143.833 182.499 143.353 182.225 143.04C181.952 142.727 181.635 142.57 181.275 142.57C180.842 142.57 180.499 142.743 180.245 143.09C179.992 143.43 179.865 143.877 179.865 144.43C179.865 144.997 180.005 145.43 180.285 145.73C180.565 146.023 180.882 146.17 181.235 146.17ZM182.635 141.93H183.425V146.59C183.425 147.363 183.212 147.943 182.785 148.33C182.359 148.723 181.809 148.92 181.135 148.92C180.522 148.92 179.999 148.817 179.565 148.61V147.82C179.992 148.067 180.492 148.19 181.065 148.19C181.552 148.19 181.935 148.06 182.215 147.8C182.495 147.54 182.635 147.133 182.635 146.58V146.01C182.302 146.583 181.805 146.87 181.145 146.87C180.565 146.87 180.069 146.657 179.655 146.23C179.249 145.803 179.045 145.21 179.045 144.45C179.045 143.697 179.235 143.077 179.615 142.59C179.995 142.103 180.492 141.86 181.105 141.86C181.799 141.86 182.309 142.163 182.635 142.77V141.93ZM189.495 146.36C189.922 146.36 190.272 146.193 190.545 145.86C190.818 145.52 190.955 145.04 190.955 144.42C190.955 143.867 190.822 143.42 190.555 143.08C190.288 142.74 189.952 142.57 189.545 142.57C189.138 142.57 188.785 142.72 188.485 143.02C188.192 143.313 188.045 143.797 188.045 144.47C188.045 145.117 188.195 145.593 188.495 145.9C188.795 146.207 189.128 146.36 189.495 146.36ZM188.045 141.93V142.7C188.398 142.133 188.922 141.85 189.615 141.85C190.288 141.85 190.815 142.097 191.195 142.59C191.582 143.077 191.775 143.687 191.775 144.42C191.775 145.2 191.572 145.84 191.165 146.34C190.765 146.833 190.242 147.08 189.595 147.08C188.928 147.08 188.412 146.797 188.045 146.23V148.97H187.265V141.93H188.045ZM195.669 144.66H194.789C194.362 144.66 194.042 144.743 193.829 144.91C193.616 145.077 193.509 145.287 193.509 145.54C193.509 145.793 193.592 146 193.759 146.16C193.926 146.313 194.169 146.39 194.489 146.39C194.849 146.39 195.136 146.29 195.349 146.09C195.562 145.883 195.669 145.623 195.669 145.31V144.66ZM193.049 142.99V142.2C193.429 141.967 193.929 141.85 194.549 141.85C195.822 141.85 196.459 142.497 196.459 143.79V147H195.679V146.4C195.419 146.833 194.946 147.05 194.259 147.05C193.786 147.05 193.402 146.91 193.109 146.63C192.822 146.35 192.679 145.997 192.679 145.57C192.679 145.083 192.862 144.707 193.229 144.44C193.602 144.167 194.109 144.03 194.749 144.03H195.669V143.77C195.669 143.37 195.579 143.07 195.399 142.87C195.219 142.663 194.916 142.56 194.489 142.56C193.949 142.56 193.469 142.703 193.049 142.99ZM199.791 146.36C200.204 146.36 200.554 146.207 200.841 145.9C201.134 145.593 201.281 145.103 201.281 144.43C201.281 143.79 201.131 143.32 200.831 143.02C200.531 142.72 200.201 142.57 199.841 142.57C199.421 142.57 199.071 142.74 198.791 143.08C198.518 143.413 198.381 143.893 198.381 144.52C198.381 145.067 198.514 145.51 198.781 145.85C199.048 146.19 199.384 146.36 199.791 146.36ZM201.281 139.93H202.071V147H201.281V146.25C200.921 146.803 200.401 147.08 199.721 147.08C199.048 147.08 198.518 146.83 198.131 146.33C197.751 145.83 197.561 145.223 197.561 144.51C197.561 143.717 197.764 143.077 198.171 142.59C198.578 142.097 199.101 141.85 199.741 141.85C200.401 141.85 200.914 142.133 201.281 142.7V139.93ZM206.265 144.66H205.385C204.958 144.66 204.638 144.743 204.425 144.91C204.211 145.077 204.105 145.287 204.105 145.54C204.105 145.793 204.188 146 204.355 146.16C204.521 146.313 204.765 146.39 205.085 146.39C205.445 146.39 205.731 146.29 205.945 146.09C206.158 145.883 206.265 145.623 206.265 145.31V144.66ZM203.645 142.99V142.2C204.025 141.967 204.525 141.85 205.145 141.85C206.418 141.85 207.055 142.497 207.055 143.79V147H206.275V146.4C206.015 146.833 205.541 147.05 204.855 147.05C204.381 147.05 203.998 146.91 203.705 146.63C203.418 146.35 203.275 145.997 203.275 145.57C203.275 145.083 203.458 144.707 203.825 144.44C204.198 144.167 204.705 144.03 205.345 144.03H206.265V143.77C206.265 143.37 206.175 143.07 205.995 142.87C205.815 142.663 205.511 142.56 205.085 142.56C204.545 142.56 204.065 142.703 203.645 142.99ZM211.678 141.93V142.82C211.945 142.193 212.405 141.88 213.058 141.88C213.178 141.88 213.271 141.887 213.338 141.9V142.68C213.198 142.633 213.055 142.61 212.908 142.61C212.555 142.61 212.261 142.773 212.028 143.1C211.795 143.427 211.678 143.803 211.678 144.23V147H210.888L210.898 141.93H211.678ZM217.39 144.14V143.94C217.39 143.52 217.276 143.187 217.05 142.94C216.823 142.687 216.51 142.56 216.11 142.56C215.73 142.56 215.406 142.697 215.14 142.97C214.873 143.243 214.716 143.633 214.67 144.14H217.39ZM217.86 146V146.74C217.466 146.947 216.986 147.05 216.42 147.05C215.653 147.05 215.033 146.817 214.56 146.35C214.093 145.877 213.86 145.253 213.86 144.48C213.86 143.673 214.07 143.037 214.49 142.57C214.91 142.103 215.45 141.87 216.11 141.87C216.743 141.87 217.246 142.073 217.62 142.48C217.993 142.887 218.18 143.463 218.18 144.21C218.18 144.423 218.163 144.62 218.13 144.8H214.67C214.73 145.3 214.92 145.683 215.24 145.95C215.56 146.217 215.98 146.35 216.5 146.35C217.066 146.35 217.52 146.233 217.86 146ZM219.384 147V139.97H220.164V147H219.384ZM221.194 144.34L223.254 147H222.304L220.264 144.34L222.254 141.93H223.194L221.194 144.34ZM227.419 144.14V143.94C227.419 143.52 227.306 143.187 227.079 142.94C226.852 142.687 226.539 142.56 226.139 142.56C225.759 142.56 225.436 142.697 225.169 142.97C224.902 143.243 224.746 143.633 224.699 144.14H227.419ZM227.889 146V146.74C227.496 146.947 227.016 147.05 226.449 147.05C225.682 147.05 225.062 146.817 224.589 146.35C224.122 145.877 223.889 145.253 223.889 144.48C223.889 143.673 224.099 143.037 224.519 142.57C224.939 142.103 225.479 141.87 226.139 141.87C226.772 141.87 227.276 142.073 227.649 142.48C228.022 142.887 228.209 143.463 228.209 144.21C228.209 144.423 228.192 144.62 228.159 144.8H224.699C224.759 145.3 224.949 145.683 225.269 145.95C225.589 146.217 226.009 146.35 226.529 146.35C227.096 146.35 227.549 146.233 227.889 146ZM230.194 141.93V142.81C230.494 142.177 231.027 141.86 231.794 141.86C232.287 141.86 232.68 142.01 232.974 142.31C233.267 142.61 233.414 143.01 233.414 143.51V147H232.624V143.72C232.624 143.347 232.527 143.063 232.334 142.87C232.147 142.67 231.9 142.57 231.594 142.57C231.214 142.57 230.884 142.717 230.604 143.01C230.33 143.303 230.194 143.71 230.194 144.23V147H229.414V141.93H230.194ZM234.854 147V141.93H235.644V147H234.854ZM234.874 140.71C234.781 140.61 234.734 140.487 234.734 140.34C234.734 140.193 234.781 140.07 234.874 139.97C234.974 139.87 235.097 139.82 235.244 139.82C235.391 139.82 235.514 139.87 235.614 139.97C235.714 140.07 235.764 140.193 235.764 140.34C235.764 140.487 235.714 140.61 235.614 140.71C235.514 140.803 235.391 140.85 235.244 140.85C235.097 140.85 234.974 140.803 234.874 140.71ZM237.928 141.93V142.81C238.228 142.177 238.761 141.86 239.528 141.86C240.021 141.86 240.415 142.01 240.708 142.31C241.001 142.61 241.148 143.01 241.148 143.51V147H240.358V143.72C240.358 143.347 240.261 143.063 240.068 142.87C239.881 142.67 239.635 142.57 239.328 142.57C238.948 142.57 238.618 142.717 238.338 143.01C238.065 143.303 237.928 143.71 237.928 144.23V147H237.148V141.93H237.928ZM244.448 146.17C244.815 146.17 245.138 146.03 245.418 145.75C245.705 145.463 245.848 145.04 245.848 144.48C245.848 143.833 245.712 143.353 245.438 143.04C245.165 142.727 244.848 142.57 244.488 142.57C244.055 142.57 243.712 142.743 243.458 143.09C243.205 143.43 243.078 143.877 243.078 144.43C243.078 144.997 243.218 145.43 243.498 145.73C243.778 146.023 244.095 146.17 244.448 146.17ZM245.848 141.93H246.638V146.59C246.638 147.363 246.425 147.943 245.998 148.33C245.572 148.723 245.022 148.92 244.348 148.92C243.735 148.92 243.212 148.817 242.778 148.61V147.82C243.205 148.067 243.705 148.19 244.278 148.19C244.765 148.19 245.148 148.06 245.428 147.8C245.708 147.54 245.848 147.133 245.848 146.58V146.01C245.515 146.583 245.018 146.87 244.358 146.87C243.778 146.87 243.282 146.657 242.868 146.23C242.462 145.803 242.258 145.21 242.258 144.45C242.258 143.697 242.448 143.077 242.828 142.59C243.208 142.103 243.705 141.86 244.318 141.86C245.012 141.86 245.522 142.163 245.848 142.77V141.93ZM20.4641 188.51V189.36C20.0574 189.093 19.5707 188.96 19.0041 188.96C18.5974 188.96 18.2741 189.057 18.0341 189.25C17.7941 189.437 17.6741 189.683 17.6741 189.99C17.6741 190.15 17.7041 190.293 17.7641 190.42C17.8307 190.547 17.9441 190.667 18.1041 190.78C18.2641 190.887 18.4007 190.97 18.5141 191.03C18.6274 191.083 18.8041 191.163 19.0441 191.27C19.2707 191.37 19.4441 191.45 19.5641 191.51C19.6841 191.563 19.8374 191.653 20.0241 191.78C20.2174 191.9 20.3607 192.02 20.4541 192.14C20.5541 192.253 20.6407 192.407 20.7141 192.6C20.7941 192.787 20.8341 192.99 20.8341 193.21C20.8341 193.803 20.6307 194.263 20.2241 194.59C19.8174 194.91 19.2941 195.07 18.6541 195.07C17.9474 195.07 17.3474 194.927 16.8541 194.64V193.77C17.3407 194.137 17.9341 194.32 18.6341 194.32C19.0541 194.32 19.3841 194.227 19.6241 194.04C19.8641 193.853 19.9841 193.583 19.9841 193.23C19.9841 193.083 19.9541 192.953 19.8941 192.84C19.8407 192.72 19.7474 192.613 19.6141 192.52C19.4874 192.42 19.3641 192.34 19.2441 192.28C19.1307 192.213 18.9741 192.133 18.7741 192.04C18.7341 192.02 18.6741 191.993 18.5941 191.96C18.3074 191.833 18.0874 191.73 17.9341 191.65C17.7874 191.57 17.6107 191.453 17.4041 191.3C17.2041 191.14 17.0574 190.957 16.9641 190.75C16.8707 190.543 16.8241 190.303 16.8241 190.03C16.8241 189.457 17.0274 189.01 17.4341 188.69C17.8474 188.363 18.3641 188.2 18.9841 188.2C19.5641 188.2 20.0574 188.303 20.4641 188.51ZM24.8682 192.66H23.9882C23.5615 192.66 23.2415 192.743 23.0282 192.91C22.8149 193.077 22.7082 193.287 22.7082 193.54C22.7082 193.793 22.7915 194 22.9582 194.16C23.1249 194.313 23.3682 194.39 23.6882 194.39C24.0482 194.39 24.3349 194.29 24.5482 194.09C24.7615 193.883 24.8682 193.623 24.8682 193.31V192.66ZM22.2482 190.99V190.2C22.6282 189.967 23.1282 189.85 23.7482 189.85C25.0215 189.85 25.6582 190.497 25.6582 191.79V195H24.8782V194.4C24.6182 194.833 24.1449 195.05 23.4582 195.05C22.9849 195.05 22.6015 194.91 22.3082 194.63C22.0215 194.35 21.8782 193.997 21.8782 193.57C21.8782 193.083 22.0615 192.707 22.4282 192.44C22.8015 192.167 23.3082 192.03 23.9482 192.03H24.8682V191.77C24.8682 191.37 24.7782 191.07 24.5982 190.87C24.4182 190.663 24.1149 190.56 23.6882 190.56C23.1482 190.56 22.6682 190.703 22.2482 190.99ZM27.1001 195V187.93H27.8901V195H27.1001ZM31.3241 194.36C31.7374 194.36 32.0874 194.207 32.3741 193.9C32.6674 193.593 32.8141 193.103 32.8141 192.43C32.8141 191.79 32.6641 191.32 32.3641 191.02C32.0641 190.72 31.7341 190.57 31.3741 190.57C30.9541 190.57 30.6041 190.74 30.3241 191.08C30.0507 191.413 29.9141 191.893 29.9141 192.52C29.9141 193.067 30.0474 193.51 30.3141 193.85C30.5807 194.19 30.9174 194.36 31.3241 194.36ZM32.8141 187.93H33.6041V195H32.8141V194.25C32.4541 194.803 31.9341 195.08 31.2541 195.08C30.5807 195.08 30.0507 194.83 29.6641 194.33C29.2841 193.83 29.0941 193.223 29.0941 192.51C29.0941 191.717 29.2974 191.077 29.7041 190.59C30.1107 190.097 30.6341 189.85 31.2741 189.85C31.9341 189.85 32.4474 190.133 32.8141 190.7V187.93ZM37.1279 195.09C36.4012 195.09 35.8246 194.847 35.3979 194.36C34.9779 193.867 34.7679 193.247 34.7679 192.5C34.7679 191.747 34.9846 191.12 35.4179 190.62C35.8579 190.113 36.4279 189.86 37.1279 189.86C37.8946 189.86 38.4846 190.107 38.8979 190.6C39.3179 191.093 39.5279 191.72 39.5279 192.48C39.5279 193.233 39.3146 193.857 38.8879 194.35C38.4612 194.843 37.8746 195.09 37.1279 195.09ZM37.1279 190.56C36.6479 190.56 36.2712 190.747 35.9979 191.12C35.7246 191.493 35.5879 191.95 35.5879 192.49C35.5879 193.017 35.7279 193.467 36.0079 193.84C36.2879 194.207 36.6612 194.39 37.1279 194.39C37.6346 194.39 38.0246 194.21 38.2979 193.85C38.5712 193.483 38.7079 193.03 38.7079 192.49C38.7079 191.93 38.5779 191.47 38.3179 191.11C38.0579 190.743 37.6612 190.56 37.1279 190.56ZM45.0545 194.36C45.4679 194.36 45.8179 194.207 46.1045 193.9C46.3979 193.593 46.5445 193.103 46.5445 192.43C46.5445 191.79 46.3945 191.32 46.0945 191.02C45.7945 190.72 45.4645 190.57 45.1045 190.57C44.6845 190.57 44.3345 190.74 44.0545 191.08C43.7812 191.413 43.6445 191.893 43.6445 192.52C43.6445 193.067 43.7779 193.51 44.0445 193.85C44.3112 194.19 44.6479 194.36 45.0545 194.36ZM46.5445 187.93H47.3345V195H46.5445V194.25C46.1845 194.803 45.6645 195.08 44.9845 195.08C44.3112 195.08 43.7812 194.83 43.3945 194.33C43.0145 193.83 42.8245 193.223 42.8245 192.51C42.8245 191.717 43.0279 191.077 43.4345 190.59C43.8412 190.097 44.3645 189.85 45.0045 189.85C45.6645 189.85 46.1779 190.133 46.5445 190.7V187.93ZM48.8384 195V189.93H49.6284V195H48.8384ZM48.8584 188.71C48.765 188.61 48.7184 188.487 48.7184 188.34C48.7184 188.193 48.765 188.07 48.8584 187.97C48.9584 187.87 49.0817 187.82 49.2284 187.82C49.375 187.82 49.4984 187.87 49.5984 187.97C49.6984 188.07 49.7484 188.193 49.7484 188.34C49.7484 188.487 49.6984 188.61 49.5984 188.71C49.4984 188.803 49.375 188.85 49.2284 188.85C49.0817 188.85 48.9584 188.803 48.8584 188.71ZM51.9123 189.93V190.82C52.179 190.193 52.639 189.88 53.2923 189.88C53.4123 189.88 53.5057 189.887 53.5723 189.9V190.68C53.4323 190.633 53.289 190.61 53.1423 190.61C52.789 190.61 52.4957 190.773 52.2623 191.1C52.029 191.427 51.9123 191.803 51.9123 192.23V195H51.1223L51.1323 189.93H51.9123ZM57.6241 192.14V191.94C57.6241 191.52 57.5107 191.187 57.2841 190.94C57.0574 190.687 56.7441 190.56 56.3441 190.56C55.9641 190.56 55.6407 190.697 55.3741 190.97C55.1074 191.243 54.9507 191.633 54.9041 192.14H57.6241ZM58.0941 194V194.74C57.7007 194.947 57.2207 195.05 56.6541 195.05C55.8874 195.05 55.2674 194.817 54.7941 194.35C54.3274 193.877 54.0941 193.253 54.0941 192.48C54.0941 191.673 54.3041 191.037 54.7241 190.57C55.1441 190.103 55.6841 189.87 56.3441 189.87C56.9774 189.87 57.4807 190.073 57.8541 190.48C58.2274 190.887 58.4141 191.463 58.4141 192.21C58.4141 192.423 58.3974 192.62 58.3641 192.8H54.9041C54.9641 193.3 55.1541 193.683 55.4741 193.95C55.7941 194.217 56.2141 194.35 56.7341 194.35C57.3007 194.35 57.7541 194.233 58.0941 194ZM59.6187 195V187.97H60.3987V195H59.6187ZM61.4287 192.34L63.4887 195H62.5387L60.4987 192.34L62.4887 189.93H63.4287L61.4287 192.34ZM67.6534 192.14V191.94C67.6534 191.52 67.54 191.187 67.3134 190.94C67.0867 190.687 66.7734 190.56 66.3734 190.56C65.9934 190.56 65.67 190.697 65.4034 190.97C65.1367 191.243 64.98 191.633 64.9334 192.14H67.6534ZM68.1234 194V194.74C67.73 194.947 67.25 195.05 66.6834 195.05C65.9167 195.05 65.2967 194.817 64.8234 194.35C64.3567 193.877 64.1234 193.253 64.1234 192.48C64.1234 191.673 64.3334 191.037 64.7534 190.57C65.1734 190.103 65.7134 189.87 66.3734 189.87C67.0067 189.87 67.51 190.073 67.8834 190.48C68.2567 190.887 68.4434 191.463 68.4434 192.21C68.4434 192.423 68.4267 192.62 68.3934 192.8H64.9334C64.9934 193.3 65.1834 193.683 65.5034 193.95C65.8234 194.217 66.2434 194.35 66.7634 194.35C67.33 194.35 67.7834 194.233 68.1234 194ZM70.428 189.93V190.81C70.728 190.177 71.2613 189.86 72.028 189.86C72.5213 189.86 72.9146 190.01 73.208 190.31C73.5013 190.61 73.648 191.01 73.648 191.51V195H72.858V191.72C72.858 191.347 72.7613 191.063 72.568 190.87C72.3813 190.67 72.1346 190.57 71.828 190.57C71.448 190.57 71.118 190.717 70.838 191.01C70.5646 191.303 70.428 191.71 70.428 192.23V195H69.648V189.93H70.428ZM75.0884 195V189.93H75.8784V195H75.0884ZM75.1084 188.71C75.015 188.61 74.9684 188.487 74.9684 188.34C74.9684 188.193 75.015 188.07 75.1084 187.97C75.2084 187.87 75.3317 187.82 75.4784 187.82C75.625 187.82 75.7484 187.87 75.8484 187.97C75.9484 188.07 75.9984 188.193 75.9984 188.34C75.9984 188.487 75.9484 188.61 75.8484 188.71C75.7484 188.803 75.625 188.85 75.4784 188.85C75.3317 188.85 75.2084 188.803 75.1084 188.71ZM78.1623 189.93V190.81C78.4623 190.177 78.9957 189.86 79.7623 189.86C80.2557 189.86 80.649 190.01 80.9423 190.31C81.2357 190.61 81.3823 191.01 81.3823 191.51V195H80.5923V191.72C80.5923 191.347 80.4957 191.063 80.3023 190.87C80.1157 190.67 79.869 190.57 79.5623 190.57C79.1823 190.57 78.8523 190.717 78.5723 191.01C78.299 191.303 78.1623 191.71 78.1623 192.23V195H77.3823V189.93H78.1623ZM84.6827 194.17C85.0494 194.17 85.3727 194.03 85.6527 193.75C85.9394 193.463 86.0827 193.04 86.0827 192.48C86.0827 191.833 85.9461 191.353 85.6727 191.04C85.3994 190.727 85.0827 190.57 84.7227 190.57C84.2894 190.57 83.9461 190.743 83.6927 191.09C83.4394 191.43 83.3127 191.877 83.3127 192.43C83.3127 192.997 83.4527 193.43 83.7327 193.73C84.0127 194.023 84.3294 194.17 84.6827 194.17ZM86.0827 189.93H86.8727V194.59C86.8727 195.363 86.6594 195.943 86.2327 196.33C85.8061 196.723 85.2561 196.92 84.5827 196.92C83.9694 196.92 83.4461 196.817 83.0127 196.61V195.82C83.4394 196.067 83.9394 196.19 84.5127 196.19C84.9994 196.19 85.3827 196.06 85.6627 195.8C85.9427 195.54 86.0827 195.133 86.0827 194.58V194.01C85.7494 194.583 85.2527 194.87 84.5927 194.87C84.0127 194.87 83.5161 194.657 83.1027 194.23C82.6961 193.803 82.4927 193.21 82.4927 192.45C82.4927 191.697 82.6827 191.077 83.0627 190.59C83.4427 190.103 83.9394 189.86 84.5527 189.86C85.2461 189.86 85.7561 190.163 86.0827 190.77V189.93ZM92.0324 192.54H94.4224L94.2924 192.15L93.2424 188.91C93.1624 189.197 92.8024 190.28 92.1624 192.16L92.0324 192.54ZM95.2424 195L94.6524 193.23H91.8024L91.2024 195H90.3324L92.6824 188.26H93.8024L96.1124 195H95.2424ZM97.9768 189.93V190.81C98.2768 190.177 98.8101 189.86 99.5768 189.86C100.07 189.86 100.463 190.01 100.757 190.31C101.05 190.61 101.197 191.01 101.197 191.51V195H100.407V191.72C100.407 191.347 100.31 191.063 100.117 190.87C99.9301 190.67 99.6835 190.57 99.3768 190.57C98.9968 190.57 98.6668 190.717 98.3868 191.01C98.1135 191.303 97.9768 191.71 97.9768 192.23V195H97.1968V189.93H97.9768ZM104.527 194.36C104.941 194.36 105.291 194.207 105.577 193.9C105.871 193.593 106.017 193.103 106.017 192.43C106.017 191.79 105.867 191.32 105.567 191.02C105.267 190.72 104.937 190.57 104.577 190.57C104.157 190.57 103.807 190.74 103.527 191.08C103.254 191.413 103.117 191.893 103.117 192.52C103.117 193.067 103.251 193.51 103.517 193.85C103.784 194.19 104.121 194.36 104.527 194.36ZM106.017 187.93H106.807V195H106.017V194.25C105.657 194.803 105.137 195.08 104.457 195.08C103.784 195.08 103.254 194.83 102.867 194.33C102.487 193.83 102.297 193.223 102.297 192.51C102.297 191.717 102.501 191.077 102.907 190.59C103.314 190.097 103.837 189.85 104.477 189.85C105.137 189.85 105.651 190.133 106.017 190.7V187.93ZM111.001 192.66H110.121C109.694 192.66 109.374 192.743 109.161 192.91C108.948 193.077 108.841 193.287 108.841 193.54C108.841 193.793 108.924 194 109.091 194.16C109.258 194.313 109.501 194.39 109.821 194.39C110.181 194.39 110.468 194.29 110.681 194.09C110.894 193.883 111.001 193.623 111.001 193.31V192.66ZM108.381 190.99V190.2C108.761 189.967 109.261 189.85 109.881 189.85C111.154 189.85 111.791 190.497 111.791 191.79V195H111.011V194.4C110.751 194.833 110.278 195.05 109.591 195.05C109.118 195.05 108.734 194.91 108.441 194.63C108.154 194.35 108.011 193.997 108.011 193.57C108.011 193.083 108.194 192.707 108.561 192.44C108.934 192.167 109.441 192.03 110.081 192.03H111.001V191.77C111.001 191.37 110.911 191.07 110.731 190.87C110.551 190.663 110.248 190.56 109.821 190.56C109.281 190.56 108.801 190.703 108.381 190.99ZM117.564 194.36C117.978 194.36 118.328 194.207 118.614 193.9C118.908 193.593 119.054 193.103 119.054 192.43C119.054 191.79 118.904 191.32 118.604 191.02C118.304 190.72 117.974 190.57 117.614 190.57C117.194 190.57 116.844 190.74 116.564 191.08C116.291 191.413 116.154 191.893 116.154 192.52C116.154 193.067 116.288 193.51 116.554 193.85C116.821 194.19 117.158 194.36 117.564 194.36ZM119.054 187.93H119.844V195H119.054V194.25C118.694 194.803 118.174 195.08 117.494 195.08C116.821 195.08 116.291 194.83 115.904 194.33C115.524 193.83 115.334 193.223 115.334 192.51C115.334 191.717 115.538 191.077 115.944 190.59C116.351 190.097 116.874 189.85 117.514 189.85C118.174 189.85 118.688 190.133 119.054 190.7V187.93ZM124.038 192.66H123.158C122.731 192.66 122.411 192.743 122.198 192.91C121.985 193.077 121.878 193.287 121.878 193.54C121.878 193.793 121.961 194 122.128 194.16C122.295 194.313 122.538 194.39 122.858 194.39C123.218 194.39 123.505 194.29 123.718 194.09C123.931 193.883 124.038 193.623 124.038 193.31V192.66ZM121.418 190.99V190.2C121.798 189.967 122.298 189.85 122.918 189.85C124.191 189.85 124.828 190.497 124.828 191.79V195H124.048V194.4C123.788 194.833 123.315 195.05 122.628 195.05C122.155 195.05 121.771 194.91 121.478 194.63C121.191 194.35 121.048 193.997 121.048 193.57C121.048 193.083 121.231 192.707 121.598 192.44C121.971 192.167 122.478 192.03 123.118 192.03H124.038V191.77C124.038 191.37 123.948 191.07 123.768 190.87C123.588 190.663 123.285 190.56 122.858 190.56C122.318 190.56 121.838 190.703 121.418 190.99ZM128.46 194.36C128.887 194.36 129.237 194.193 129.51 193.86C129.783 193.52 129.92 193.04 129.92 192.42C129.92 191.867 129.787 191.42 129.52 191.08C129.253 190.74 128.917 190.57 128.51 190.57C128.103 190.57 127.75 190.72 127.45 191.02C127.157 191.313 127.01 191.797 127.01 192.47C127.01 193.117 127.16 193.593 127.46 193.9C127.76 194.207 128.093 194.36 128.46 194.36ZM127.01 189.93V190.7C127.363 190.133 127.887 189.85 128.58 189.85C129.253 189.85 129.78 190.097 130.16 190.59C130.547 191.077 130.74 191.687 130.74 192.42C130.74 193.2 130.537 193.84 130.13 194.34C129.73 194.833 129.207 195.08 128.56 195.08C127.893 195.08 127.377 194.797 127.01 194.23V196.97H126.23V189.93H127.01ZM134.634 192.66H133.754C133.327 192.66 133.007 192.743 132.794 192.91C132.58 193.077 132.474 193.287 132.474 193.54C132.474 193.793 132.557 194 132.724 194.16C132.89 194.313 133.134 194.39 133.454 194.39C133.814 194.39 134.1 194.29 134.314 194.09C134.527 193.883 134.634 193.623 134.634 193.31V192.66ZM132.014 190.99V190.2C132.394 189.967 132.894 189.85 133.514 189.85C134.787 189.85 135.424 190.497 135.424 191.79V195H134.644V194.4C134.384 194.833 133.91 195.05 133.224 195.05C132.75 195.05 132.367 194.91 132.074 194.63C131.787 194.35 131.644 193.997 131.644 193.57C131.644 193.083 131.827 192.707 132.194 192.44C132.567 192.167 133.074 192.03 133.714 192.03H134.634V191.77C134.634 191.37 134.544 191.07 134.364 190.87C134.184 190.663 133.88 190.56 133.454 190.56C132.914 190.56 132.434 190.703 132.014 190.99ZM137.916 190.57V193.54C137.916 194.08 138.169 194.35 138.676 194.35C138.936 194.35 139.166 194.273 139.366 194.12V194.87C139.146 194.99 138.899 195.05 138.626 195.05C137.626 195.05 137.126 194.54 137.126 193.52V190.57H136.316V189.93H137.126V188.67H137.916V189.93H139.316V190.57H137.916ZM144.279 192.54H146.669L146.539 192.15L145.489 188.91C145.409 189.197 145.049 190.28 144.409 192.16L144.279 192.54ZM147.489 195L146.899 193.23H144.049L143.449 195H142.579L144.929 188.26H146.049L148.359 195H147.489ZM150.223 189.93V190.81C150.523 190.177 151.056 189.86 151.823 189.86C152.316 189.86 152.71 190.01 153.003 190.31C153.296 190.61 153.443 191.01 153.443 191.51V195H152.653V191.72C152.653 191.347 152.556 191.063 152.363 190.87C152.176 190.67 151.93 190.57 151.623 190.57C151.243 190.57 150.913 190.717 150.633 191.01C150.36 191.303 150.223 191.71 150.223 192.23V195H149.443V189.93H150.223ZM156.773 194.36C157.187 194.36 157.537 194.207 157.823 193.9C158.117 193.593 158.263 193.103 158.263 192.43C158.263 191.79 158.113 191.32 157.813 191.02C157.513 190.72 157.183 190.57 156.823 190.57C156.403 190.57 156.053 190.74 155.773 191.08C155.5 191.413 155.363 191.893 155.363 192.52C155.363 193.067 155.497 193.51 155.763 193.85C156.03 194.19 156.367 194.36 156.773 194.36ZM158.263 187.93H159.053V195H158.263V194.25C157.903 194.803 157.383 195.08 156.703 195.08C156.03 195.08 155.5 194.83 155.113 194.33C154.733 193.83 154.543 193.223 154.543 192.51C154.543 191.717 154.747 191.077 155.153 190.59C155.56 190.097 156.083 189.85 156.723 189.85C157.383 189.85 157.897 190.133 158.263 190.7V187.93ZM163.247 192.66H162.367C161.94 192.66 161.62 192.743 161.407 192.91C161.194 193.077 161.087 193.287 161.087 193.54C161.087 193.793 161.17 194 161.337 194.16C161.504 194.313 161.747 194.39 162.067 194.39C162.427 194.39 162.714 194.29 162.927 194.09C163.14 193.883 163.247 193.623 163.247 193.31V192.66ZM160.627 190.99V190.2C161.007 189.967 161.507 189.85 162.127 189.85C163.4 189.85 164.037 190.497 164.037 191.79V195H163.257V194.4C162.997 194.833 162.524 195.05 161.837 195.05C161.364 195.05 160.98 194.91 160.687 194.63C160.4 194.35 160.257 193.997 160.257 193.57C160.257 193.083 160.44 192.707 160.807 192.44C161.18 192.167 161.687 192.03 162.327 192.03H163.247V191.77C163.247 191.37 163.157 191.07 162.977 190.87C162.797 190.663 162.494 190.56 162.067 190.56C161.527 190.56 161.047 190.703 160.627 190.99ZM169.78 194.17C170.147 194.17 170.47 194.03 170.75 193.75C171.037 193.463 171.18 193.04 171.18 192.48C171.18 191.833 171.044 191.353 170.77 191.04C170.497 190.727 170.18 190.57 169.82 190.57C169.387 190.57 169.044 190.743 168.79 191.09C168.537 191.43 168.41 191.877 168.41 192.43C168.41 192.997 168.55 193.43 168.83 193.73C169.11 194.023 169.427 194.17 169.78 194.17ZM171.18 189.93H171.97V194.59C171.97 195.363 171.757 195.943 171.33 196.33C170.904 196.723 170.354 196.92 169.68 196.92C169.067 196.92 168.544 196.817 168.11 196.61V195.82C168.537 196.067 169.037 196.19 169.61 196.19C170.097 196.19 170.48 196.06 170.76 195.8C171.04 195.54 171.18 195.133 171.18 194.58V194.01C170.847 194.583 170.35 194.87 169.69 194.87C169.11 194.87 168.614 194.657 168.2 194.23C167.794 193.803 167.59 193.21 167.59 192.45C167.59 191.697 167.78 191.077 168.16 190.59C168.54 190.103 169.037 189.86 169.65 189.86C170.344 189.86 170.854 190.163 171.18 190.77V189.93ZM176.519 189.93H177.309V195H176.519V194.12C176.252 194.747 175.722 195.06 174.929 195.06C174.429 195.06 174.032 194.913 173.739 194.62C173.452 194.32 173.309 193.92 173.309 193.42V189.93H174.099V193.22C174.099 193.587 174.192 193.867 174.379 194.06C174.565 194.253 174.819 194.35 175.139 194.35C175.559 194.35 175.892 194.203 176.139 193.91C176.392 193.617 176.519 193.22 176.519 192.72V189.93ZM179.549 189.93V190.81C179.849 190.177 180.382 189.86 181.149 189.86C181.642 189.86 182.036 190.01 182.329 190.31C182.622 190.61 182.769 191.01 182.769 191.51V195H181.979V191.72C181.979 191.347 181.882 191.063 181.689 190.87C181.502 190.67 181.256 190.57 180.949 190.57C180.569 190.57 180.239 190.717 179.959 191.01C179.686 191.303 179.549 191.71 179.549 192.23V195H178.769V189.93H179.549ZM186.899 192.66H186.019C185.593 192.66 185.273 192.743 185.059 192.91C184.846 193.077 184.739 193.287 184.739 193.54C184.739 193.793 184.823 194 184.989 194.16C185.156 194.313 185.399 194.39 185.719 194.39C186.079 194.39 186.366 194.29 186.579 194.09C186.793 193.883 186.899 193.623 186.899 193.31V192.66ZM184.279 190.99V190.2C184.659 189.967 185.159 189.85 185.779 189.85C187.053 189.85 187.689 190.497 187.689 191.79V195H186.909V194.4C186.649 194.833 186.176 195.05 185.489 195.05C185.016 195.05 184.633 194.91 184.339 194.63C184.053 194.35 183.909 193.997 183.909 193.57C183.909 193.083 184.093 192.707 184.459 192.44C184.833 192.167 185.339 192.03 185.979 192.03H186.899V191.77C186.899 191.37 186.809 191.07 186.629 190.87C186.449 190.663 186.146 190.56 185.719 190.56C185.179 190.56 184.699 190.703 184.279 190.99ZM189.091 195V187.97H189.871V195H189.091ZM190.901 192.34L192.961 195H192.011L189.971 192.34L191.961 189.93H192.901L190.901 192.34ZM196.626 192.66H195.746C195.319 192.66 194.999 192.743 194.786 192.91C194.573 193.077 194.466 193.287 194.466 193.54C194.466 193.793 194.549 194 194.716 194.16C194.883 194.313 195.126 194.39 195.446 194.39C195.806 194.39 196.093 194.29 196.306 194.09C196.519 193.883 196.626 193.623 196.626 193.31V192.66ZM194.006 190.99V190.2C194.386 189.967 194.886 189.85 195.506 189.85C196.779 189.85 197.416 190.497 197.416 191.79V195H196.636V194.4C196.376 194.833 195.903 195.05 195.216 195.05C194.743 195.05 194.359 194.91 194.066 194.63C193.779 194.35 193.636 193.997 193.636 193.57C193.636 193.083 193.819 192.707 194.186 192.44C194.559 192.167 195.066 192.03 195.706 192.03H196.626V191.77C196.626 191.37 196.536 191.07 196.356 190.87C196.176 190.663 195.873 190.56 195.446 190.56C194.906 190.56 194.426 190.703 194.006 190.99ZM199.598 189.93V190.81C199.898 190.177 200.431 189.86 201.198 189.86C201.691 189.86 202.085 190.01 202.378 190.31C202.671 190.61 202.818 191.01 202.818 191.51V195H202.028V191.72C202.028 191.347 201.931 191.063 201.738 190.87C201.551 190.67 201.305 190.57 200.998 190.57C200.618 190.57 200.288 190.717 200.008 191.01C199.735 191.303 199.598 191.71 199.598 192.23V195H198.818V189.93H199.598ZM209.81 189.93H210.6V195H209.81V194.12C209.543 194.747 209.013 195.06 208.22 195.06C207.72 195.06 207.323 194.913 207.03 194.62C206.743 194.32 206.6 193.92 206.6 193.42V189.93H207.39V193.22C207.39 193.587 207.483 193.867 207.67 194.06C207.856 194.253 208.11 194.35 208.43 194.35C208.85 194.35 209.183 194.203 209.43 193.91C209.683 193.617 209.81 193.22 209.81 192.72V189.93ZM212.84 189.93V190.81C213.14 190.177 213.673 189.86 214.44 189.86C214.933 189.86 215.327 190.01 215.62 190.31C215.913 190.61 216.06 191.01 216.06 191.51V195H215.27V191.72C215.27 191.347 215.173 191.063 214.98 190.87C214.793 190.67 214.547 190.57 214.24 190.57C213.86 190.57 213.53 190.717 213.25 191.01C212.977 191.303 212.84 191.71 212.84 192.23V195H212.06V189.93H212.84ZM218.55 190.57V193.54C218.55 194.08 218.804 194.35 219.31 194.35C219.57 194.35 219.8 194.273 220 194.12V194.87C219.78 194.99 219.534 195.05 219.26 195.05C218.26 195.05 217.76 194.54 217.76 193.52V190.57H216.95V189.93H217.76V188.67H218.55V189.93H219.95V190.57H218.55ZM224.302 189.93H225.092V195H224.302V194.12C224.035 194.747 223.505 195.06 222.712 195.06C222.212 195.06 221.815 194.913 221.522 194.62C221.235 194.32 221.092 193.92 221.092 193.42V189.93H221.882V193.22C221.882 193.587 221.975 193.867 222.162 194.06C222.349 194.253 222.602 194.35 222.922 194.35C223.342 194.35 223.675 194.203 223.922 193.91C224.175 193.617 224.302 193.22 224.302 192.72V189.93ZM226.552 195V187.97H227.332V195H226.552ZM228.362 192.34L230.422 195H229.472L227.432 192.34L229.422 189.93H230.362L228.362 192.34ZM236.108 194.36C236.515 194.36 236.852 194.19 237.118 193.85C237.385 193.51 237.518 193.067 237.518 192.52C237.518 191.893 237.378 191.413 237.098 191.08C236.825 190.74 236.478 190.57 236.058 190.57C235.698 190.57 235.368 190.72 235.068 191.02C234.768 191.32 234.618 191.79 234.618 192.43C234.618 193.103 234.762 193.593 235.048 193.9C235.342 194.207 235.695 194.36 236.108 194.36ZM234.618 187.93V190.69C234.985 190.13 235.498 189.85 236.158 189.85C236.798 189.85 237.322 190.097 237.728 190.59C238.135 191.077 238.338 191.717 238.338 192.51C238.338 193.223 238.145 193.83 237.758 194.33C237.378 194.83 236.852 195.08 236.178 195.08C235.498 195.08 234.978 194.803 234.618 194.25V195H233.828V187.93H234.618ZM242.731 192.14V191.94C242.731 191.52 242.618 191.187 242.391 190.94C242.165 190.687 241.851 190.56 241.451 190.56C241.071 190.56 240.748 190.697 240.481 190.97C240.215 191.243 240.058 191.633 240.011 192.14H242.731ZM243.201 194V194.74C242.808 194.947 242.328 195.05 241.761 195.05C240.995 195.05 240.375 194.817 239.901 194.35C239.435 193.877 239.201 193.253 239.201 192.48C239.201 191.673 239.411 191.037 239.831 190.57C240.251 190.103 240.791 189.87 241.451 189.87C242.085 189.87 242.588 190.073 242.961 190.48C243.335 190.887 243.521 191.463 243.521 192.21C243.521 192.423 243.505 192.62 243.471 192.8H240.011C240.071 193.3 240.261 193.683 240.581 193.95C240.901 194.217 241.321 194.35 241.841 194.35C242.408 194.35 242.861 194.233 243.201 194ZM245.506 189.93V190.82C245.773 190.193 246.233 189.88 246.886 189.88C247.006 189.88 247.099 189.887 247.166 189.9V190.68C247.026 190.633 246.883 190.61 246.736 190.61C246.383 190.61 246.089 190.773 245.856 191.1C245.623 191.427 245.506 191.803 245.506 192.23V195H244.716L244.726 189.93H245.506ZM249.078 190.57V193.54C249.078 194.08 249.331 194.35 249.838 194.35C250.098 194.35 250.328 194.273 250.528 194.12V194.87C250.308 194.99 250.061 195.05 249.788 195.05C248.788 195.05 248.288 194.54 248.288 193.52V190.57H247.478V189.93H248.288V188.67H249.078V189.93H250.478V190.57H249.078ZM252.459 189.93V190.82C252.726 190.193 253.186 189.88 253.839 189.88C253.959 189.88 254.053 189.887 254.119 189.9V190.68C253.979 190.633 253.836 190.61 253.689 190.61C253.336 190.61 253.043 190.773 252.809 191.1C252.576 191.427 252.459 191.803 252.459 192.23V195H251.669L251.679 189.93H252.459ZM257.671 192.66H256.791C256.364 192.66 256.044 192.743 255.831 192.91C255.618 193.077 255.511 193.287 255.511 193.54C255.511 193.793 255.594 194 255.761 194.16C255.928 194.313 256.171 194.39 256.491 194.39C256.851 194.39 257.138 194.29 257.351 194.09C257.564 193.883 257.671 193.623 257.671 193.31V192.66ZM255.051 190.99V190.2C255.431 189.967 255.931 189.85 256.551 189.85C257.824 189.85 258.461 190.497 258.461 191.79V195H257.681V194.4C257.421 194.833 256.948 195.05 256.261 195.05C255.788 195.05 255.404 194.91 255.111 194.63C254.824 194.35 254.681 193.997 254.681 193.57C254.681 193.083 254.864 192.707 255.231 192.44C255.604 192.167 256.111 192.03 256.751 192.03H257.671V191.77C257.671 191.37 257.581 191.07 257.401 190.87C257.221 190.663 256.918 190.56 256.491 190.56C255.951 190.56 255.471 190.703 255.051 190.99ZM260.643 189.93V190.81C260.943 190.177 261.476 189.86 262.243 189.86C262.736 189.86 263.129 190.01 263.423 190.31C263.716 190.61 263.863 191.01 263.863 191.51V195H263.073V191.72C263.073 191.347 262.976 191.063 262.783 190.87C262.596 190.67 262.349 190.57 262.043 190.57C261.663 190.57 261.333 190.717 261.053 191.01C260.779 191.303 260.643 191.71 260.643 192.23V195H259.863V189.93H260.643ZM268.023 190.1V190.85C267.717 190.663 267.297 190.57 266.763 190.57C266.497 190.57 266.283 190.633 266.123 190.76C265.97 190.88 265.893 191.037 265.893 191.23C265.893 191.35 265.917 191.457 265.963 191.55C266.01 191.637 266.1 191.723 266.233 191.81C266.373 191.897 266.473 191.957 266.533 191.99C266.6 192.017 266.74 192.077 266.953 192.17C267.38 192.343 267.713 192.54 267.953 192.76C268.193 192.98 268.313 193.277 268.313 193.65C268.313 194.083 268.16 194.427 267.853 194.68C267.553 194.933 267.14 195.06 266.613 195.06C266 195.06 265.503 194.957 265.123 194.75V193.98C265.57 194.247 266.05 194.38 266.563 194.38C266.87 194.38 267.103 194.32 267.263 194.2C267.423 194.08 267.503 193.917 267.503 193.71C267.503 193.47 267.413 193.283 267.233 193.15C267.06 193.017 266.767 192.867 266.353 192.7C265.973 192.553 265.667 192.37 265.433 192.15C265.207 191.93 265.093 191.633 265.093 191.26C265.093 190.84 265.25 190.507 265.563 190.26C265.883 190.007 266.28 189.88 266.753 189.88C267.28 189.88 267.703 189.953 268.023 190.1ZM272.114 192.66H271.234C270.808 192.66 270.488 192.743 270.274 192.91C270.061 193.077 269.954 193.287 269.954 193.54C269.954 193.793 270.038 194 270.204 194.16C270.371 194.313 270.614 194.39 270.934 194.39C271.294 194.39 271.581 194.29 271.794 194.09C272.008 193.883 272.114 193.623 272.114 193.31V192.66ZM269.494 190.99V190.2C269.874 189.967 270.374 189.85 270.994 189.85C272.268 189.85 272.904 190.497 272.904 191.79V195H272.124V194.4C271.864 194.833 271.391 195.05 270.704 195.05C270.231 195.05 269.848 194.91 269.554 194.63C269.268 194.35 269.124 193.997 269.124 193.57C269.124 193.083 269.308 192.707 269.674 192.44C270.048 192.167 270.554 192.03 271.194 192.03H272.114V191.77C272.114 191.37 272.024 191.07 271.844 190.87C271.664 190.663 271.361 190.56 270.934 190.56C270.394 190.56 269.914 190.703 269.494 190.99ZM274.306 195V187.97H275.086V195H274.306ZM276.116 192.34L278.176 195H277.226L275.186 192.34L277.176 189.93H278.116L276.116 192.34ZM281.871 190.1V190.85C281.564 190.663 281.144 190.57 280.611 190.57C280.344 190.57 280.131 190.633 279.971 190.76C279.818 190.88 279.741 191.037 279.741 191.23C279.741 191.35 279.764 191.457 279.811 191.55C279.858 191.637 279.948 191.723 280.081 191.81C280.221 191.897 280.321 191.957 280.381 191.99C280.448 192.017 280.588 192.077 280.801 192.17C281.228 192.343 281.561 192.54 281.801 192.76C282.041 192.98 282.161 193.277 282.161 193.65C282.161 194.083 282.008 194.427 281.701 194.68C281.401 194.933 280.988 195.06 280.461 195.06C279.848 195.06 279.351 194.957 278.971 194.75V193.98C279.418 194.247 279.898 194.38 280.411 194.38C280.718 194.38 280.951 194.32 281.111 194.2C281.271 194.08 281.351 193.917 281.351 193.71C281.351 193.47 281.261 193.283 281.081 193.15C280.908 193.017 280.614 192.867 280.201 192.7C279.821 192.553 279.514 192.37 279.281 192.15C279.054 191.93 278.941 191.633 278.941 191.26C278.941 190.84 279.098 190.507 279.411 190.26C279.731 190.007 280.128 189.88 280.601 189.88C281.128 189.88 281.551 189.953 281.871 190.1ZM283.272 195V189.93H284.062V195H283.272ZM283.292 188.71C283.199 188.61 283.152 188.487 283.152 188.34C283.152 188.193 283.199 188.07 283.292 187.97C283.392 187.87 283.515 187.82 283.662 187.82C283.809 187.82 283.932 187.87 284.032 187.97C284.132 188.07 284.182 188.193 284.182 188.34C284.182 188.487 284.132 188.61 284.032 188.71C283.932 188.803 283.809 188.85 283.662 188.85C283.515 188.85 283.392 188.803 283.292 188.71ZM64.8742 208.54H67.2642L67.1342 208.15L66.0842 204.91C66.0042 205.197 65.6442 206.28 65.0042 208.16L64.8742 208.54ZM68.0842 211L67.4942 209.23H64.6442L64.0442 211H63.1742L65.5242 204.26H66.6442L68.9542 211H68.0842ZM70.8186 205.93V206.81C71.1186 206.177 71.6519 205.86 72.4186 205.86C72.9119 205.86 73.3053 206.01 73.5986 206.31C73.8919 206.61 74.0386 207.01 74.0386 207.51V211H73.2486V207.72C73.2486 207.347 73.1519 207.063 72.9586 206.87C72.7719 206.67 72.5253 206.57 72.2186 206.57C71.8386 206.57 71.5086 206.717 71.2286 207.01C70.9553 207.303 70.8186 207.71 70.8186 208.23V211H70.0386V205.93H70.8186ZM77.369 210.36C77.7823 210.36 78.1323 210.207 78.419 209.9C78.7123 209.593 78.859 209.103 78.859 208.43C78.859 207.79 78.709 207.32 78.409 207.02C78.109 206.72 77.779 206.57 77.419 206.57C76.999 206.57 76.649 206.74 76.369 207.08C76.0957 207.413 75.959 207.893 75.959 208.52C75.959 209.067 76.0923 209.51 76.359 209.85C76.6257 210.19 76.9623 210.36 77.369 210.36ZM78.859 203.93H79.649V211H78.859V210.25C78.499 210.803 77.979 211.08 77.299 211.08C76.6257 211.08 76.0957 210.83 75.709 210.33C75.329 209.83 75.139 209.223 75.139 208.51C75.139 207.717 75.3423 207.077 75.749 206.59C76.1557 206.097 76.679 205.85 77.319 205.85C77.979 205.85 78.4923 206.133 78.859 206.7V203.93ZM83.8428 208.66H82.9628C82.5361 208.66 82.2161 208.743 82.0028 208.91C81.7895 209.077 81.6828 209.287 81.6828 209.54C81.6828 209.793 81.7661 210 81.9328 210.16C82.0995 210.313 82.3428 210.39 82.6628 210.39C83.0228 210.39 83.3095 210.29 83.5228 210.09C83.7361 209.883 83.8428 209.623 83.8428 209.31V208.66ZM81.2228 206.99V206.2C81.6028 205.967 82.1028 205.85 82.7228 205.85C83.9961 205.85 84.6328 206.497 84.6328 207.79V211H83.8528V210.4C83.5928 210.833 83.1195 211.05 82.4328 211.05C81.9595 211.05 81.5761 210.91 81.2828 210.63C80.9961 210.35 80.8528 209.997 80.8528 209.57C80.8528 209.083 81.0361 208.707 81.4028 208.44C81.7761 208.167 82.2828 208.03 82.9228 208.03H83.8428V207.77C83.8428 207.37 83.7528 207.07 83.5728 206.87C83.3928 206.663 83.0895 206.56 82.6628 206.56C82.1228 206.56 81.6428 206.703 81.2228 206.99ZM90.4061 210.36C90.8194 210.36 91.1694 210.207 91.4561 209.9C91.7494 209.593 91.8961 209.103 91.8961 208.43C91.8961 207.79 91.7461 207.32 91.4461 207.02C91.1461 206.72 90.8161 206.57 90.4561 206.57C90.0361 206.57 89.6861 206.74 89.4061 207.08C89.1328 207.413 88.9961 207.893 88.9961 208.52C88.9961 209.067 89.1294 209.51 89.3961 209.85C89.6628 210.19 89.9994 210.36 90.4061 210.36ZM91.8961 203.93H92.6861V211H91.8961V210.25C91.5361 210.803 91.0161 211.08 90.3361 211.08C89.6628 211.08 89.1328 210.83 88.7461 210.33C88.3661 209.83 88.1761 209.223 88.1761 208.51C88.1761 207.717 88.3794 207.077 88.7861 206.59C89.1928 206.097 89.7161 205.85 90.3561 205.85C91.0161 205.85 91.5294 206.133 91.8961 206.7V203.93ZM96.8799 208.66H95.9999C95.5733 208.66 95.2533 208.743 95.0399 208.91C94.8266 209.077 94.7199 209.287 94.7199 209.54C94.7199 209.793 94.8033 210 94.9699 210.16C95.1366 210.313 95.3799 210.39 95.6999 210.39C96.0599 210.39 96.3466 210.29 96.5599 210.09C96.7733 209.883 96.8799 209.623 96.8799 209.31V208.66ZM94.2599 206.99V206.2C94.6399 205.967 95.1399 205.85 95.7599 205.85C97.0333 205.85 97.6699 206.497 97.6699 207.79V211H96.8899V210.4C96.6299 210.833 96.1566 211.05 95.4699 211.05C94.9966 211.05 94.6133 210.91 94.3199 210.63C94.0333 210.35 93.8899 209.997 93.8899 209.57C93.8899 209.083 94.0733 208.707 94.4399 208.44C94.8133 208.167 95.3199 208.03 95.9599 208.03H96.8799V207.77C96.8799 207.37 96.7899 207.07 96.6099 206.87C96.4299 206.663 96.1266 206.56 95.6999 206.56C95.1599 206.56 94.6799 206.703 94.2599 206.99ZM101.302 210.36C101.728 210.36 102.078 210.193 102.352 209.86C102.625 209.52 102.762 209.04 102.762 208.42C102.762 207.867 102.628 207.42 102.362 207.08C102.095 206.74 101.758 206.57 101.352 206.57C100.945 206.57 100.592 206.72 100.292 207.02C99.9985 207.313 99.8518 207.797 99.8518 208.47C99.8518 209.117 100.002 209.593 100.302 209.9C100.602 210.207 100.935 210.36 101.302 210.36ZM99.8518 205.93V206.7C100.205 206.133 100.728 205.85 101.422 205.85C102.095 205.85 102.622 206.097 103.002 206.59C103.388 207.077 103.582 207.687 103.582 208.42C103.582 209.2 103.378 209.84 102.972 210.34C102.572 210.833 102.048 211.08 101.402 211.08C100.735 211.08 100.218 210.797 99.8518 210.23V212.97H99.0718V205.93H99.8518ZM107.476 208.66H106.596C106.169 208.66 105.849 208.743 105.636 208.91C105.422 209.077 105.316 209.287 105.316 209.54C105.316 209.793 105.399 210 105.566 210.16C105.732 210.313 105.976 210.39 106.296 210.39C106.656 210.39 106.942 210.29 107.156 210.09C107.369 209.883 107.476 209.623 107.476 209.31V208.66ZM104.856 206.99V206.2C105.236 205.967 105.736 205.85 106.356 205.85C107.629 205.85 108.266 206.497 108.266 207.79V211H107.486V210.4C107.226 210.833 106.752 211.05 106.066 211.05C105.592 211.05 105.209 210.91 104.916 210.63C104.629 210.35 104.486 209.997 104.486 209.57C104.486 209.083 104.669 208.707 105.036 208.44C105.409 208.167 105.916 208.03 106.556 208.03H107.476V207.77C107.476 207.37 107.386 207.07 107.206 206.87C107.026 206.663 106.722 206.56 106.296 206.56C105.756 206.56 105.276 206.703 104.856 206.99ZM110.758 206.57V209.54C110.758 210.08 111.011 210.35 111.518 210.35C111.778 210.35 112.008 210.273 112.208 210.12V210.87C111.988 210.99 111.741 211.05 111.468 211.05C110.468 211.05 109.968 210.54 109.968 209.52V206.57H109.158V205.93H109.968V204.67H110.758V205.93H112.158V206.57H110.758ZM116.58 205.93V206.75C116.86 206.157 117.337 205.86 118.01 205.86C118.79 205.86 119.284 206.19 119.49 206.85C119.637 206.53 119.84 206.287 120.1 206.12C120.367 205.947 120.664 205.86 120.99 205.86C121.517 205.86 121.914 206.01 122.18 206.31C122.447 206.61 122.58 207.013 122.58 207.52V211H121.79V207.72C121.79 206.953 121.467 206.57 120.82 206.57C120.5 206.57 120.214 206.717 119.96 207.01C119.707 207.297 119.58 207.703 119.58 208.23V211H118.79V207.72C118.79 206.953 118.467 206.57 117.82 206.57C117.5 206.57 117.214 206.717 116.96 207.01C116.707 207.297 116.58 207.703 116.58 208.23V211H115.8V205.93H116.58ZM127.214 208.14V207.94C127.214 207.52 127.101 207.187 126.874 206.94C126.647 206.687 126.334 206.56 125.934 206.56C125.554 206.56 125.231 206.697 124.964 206.97C124.697 207.243 124.541 207.633 124.494 208.14H127.214ZM127.684 210V210.74C127.291 210.947 126.811 211.05 126.244 211.05C125.477 211.05 124.857 210.817 124.384 210.35C123.917 209.877 123.684 209.253 123.684 208.48C123.684 207.673 123.894 207.037 124.314 206.57C124.734 206.103 125.274 205.87 125.934 205.87C126.567 205.87 127.071 206.073 127.444 206.48C127.817 206.887 128.004 207.463 128.004 208.21C128.004 208.423 127.987 208.62 127.954 208.8H124.494C124.554 209.3 124.744 209.683 125.064 209.95C125.384 210.217 125.804 210.35 126.324 210.35C126.891 210.35 127.344 210.233 127.684 210ZM129.249 211V203.93H130.039V211H129.249ZM131.583 211V205.93H132.373V211H131.583ZM131.603 204.71C131.509 204.61 131.463 204.487 131.463 204.34C131.463 204.193 131.509 204.07 131.603 203.97C131.703 203.87 131.826 203.82 131.973 203.82C132.119 203.82 132.243 203.87 132.343 203.97C132.443 204.07 132.493 204.193 132.493 204.34C132.493 204.487 132.443 204.61 132.343 204.71C132.243 204.803 132.119 204.85 131.973 204.85C131.826 204.85 131.703 204.803 131.603 204.71ZM134.656 203.93V206.81C134.956 206.177 135.49 205.86 136.256 205.86C136.743 205.86 137.133 206.01 137.426 206.31C137.726 206.61 137.876 207.017 137.876 207.53V211H137.086V207.72C137.086 207.353 136.99 207.07 136.796 206.87C136.61 206.67 136.363 206.57 136.056 206.57C135.683 206.57 135.356 206.713 135.076 207C134.796 207.287 134.656 207.697 134.656 208.23V211H133.876V203.93H134.656ZM142.007 208.66H141.127C140.7 208.66 140.38 208.743 140.167 208.91C139.954 209.077 139.847 209.287 139.847 209.54C139.847 209.793 139.93 210 140.097 210.16C140.264 210.313 140.507 210.39 140.827 210.39C141.187 210.39 141.474 210.29 141.687 210.09C141.9 209.883 142.007 209.623 142.007 209.31V208.66ZM139.387 206.99V206.2C139.767 205.967 140.267 205.85 140.887 205.85C142.16 205.85 142.797 206.497 142.797 207.79V211H142.017V210.4C141.757 210.833 141.284 211.05 140.597 211.05C140.124 211.05 139.74 210.91 139.447 210.63C139.16 210.35 139.017 209.997 139.017 209.57C139.017 209.083 139.2 208.707 139.567 208.44C139.94 208.167 140.447 208.03 141.087 208.03H142.007V207.77C142.007 207.37 141.917 207.07 141.737 206.87C141.557 206.663 141.254 206.56 140.827 206.56C140.287 206.56 139.807 206.703 139.387 206.99ZM145.289 206.57V209.54C145.289 210.08 145.542 210.35 146.049 210.35C146.309 210.35 146.539 210.273 146.739 210.12V210.87C146.519 210.99 146.272 211.05 145.999 211.05C144.999 211.05 144.499 210.54 144.499 209.52V206.57H143.689V205.93H144.499V204.67H145.289V205.93H146.689V206.57H145.289ZM151.422 206.57V209.54C151.422 210.08 151.675 210.35 152.182 210.35C152.442 210.35 152.672 210.273 152.872 210.12V210.87C152.652 210.99 152.405 211.05 152.132 211.05C151.132 211.05 150.632 210.54 150.632 209.52V206.57H149.822V205.93H150.632V204.67H151.422V205.93H152.822V206.57H151.422ZM154.803 205.93V206.82C155.07 206.193 155.53 205.88 156.183 205.88C156.303 205.88 156.396 205.887 156.463 205.9V206.68C156.323 206.633 156.18 206.61 156.033 206.61C155.68 206.61 155.386 206.773 155.153 207.1C154.92 207.427 154.803 207.803 154.803 208.23V211H154.013L154.023 205.93H154.803ZM160.015 208.66H159.135C158.708 208.66 158.388 208.743 158.175 208.91C157.961 209.077 157.855 209.287 157.855 209.54C157.855 209.793 157.938 210 158.105 210.16C158.271 210.313 158.515 210.39 158.835 210.39C159.195 210.39 159.481 210.29 159.695 210.09C159.908 209.883 160.015 209.623 160.015 209.31V208.66ZM157.395 206.99V206.2C157.775 205.967 158.275 205.85 158.895 205.85C160.168 205.85 160.805 206.497 160.805 207.79V211H160.025V210.4C159.765 210.833 159.291 211.05 158.605 211.05C158.131 211.05 157.748 210.91 157.455 210.63C157.168 210.35 157.025 209.997 157.025 209.57C157.025 209.083 157.208 208.707 157.575 208.44C157.948 208.167 158.455 208.03 159.095 208.03H160.015V207.77C160.015 207.37 159.925 207.07 159.745 206.87C159.565 206.663 159.261 206.56 158.835 206.56C158.295 206.56 157.815 206.703 157.395 206.99ZM162.987 205.93V206.81C163.287 206.177 163.82 205.86 164.587 205.86C165.08 205.86 165.473 206.01 165.767 206.31C166.06 206.61 166.207 207.01 166.207 207.51V211H165.417V207.72C165.417 207.347 165.32 207.063 165.127 206.87C164.94 206.67 164.693 206.57 164.387 206.57C164.007 206.57 163.677 206.717 163.397 207.01C163.123 207.303 162.987 207.71 162.987 208.23V211H162.207V205.93H162.987ZM170.367 206.1V206.85C170.06 206.663 169.64 206.57 169.107 206.57C168.84 206.57 168.627 206.633 168.467 206.76C168.314 206.88 168.237 207.037 168.237 207.23C168.237 207.35 168.26 207.457 168.307 207.55C168.354 207.637 168.444 207.723 168.577 207.81C168.717 207.897 168.817 207.957 168.877 207.99C168.944 208.017 169.084 208.077 169.297 208.17C169.724 208.343 170.057 208.54 170.297 208.76C170.537 208.98 170.657 209.277 170.657 209.65C170.657 210.083 170.504 210.427 170.197 210.68C169.897 210.933 169.484 211.06 168.957 211.06C168.344 211.06 167.847 210.957 167.467 210.75V209.98C167.914 210.247 168.394 210.38 168.907 210.38C169.214 210.38 169.447 210.32 169.607 210.2C169.767 210.08 169.847 209.917 169.847 209.71C169.847 209.47 169.757 209.283 169.577 209.15C169.404 209.017 169.11 208.867 168.697 208.7C168.317 208.553 168.01 208.37 167.777 208.15C167.55 207.93 167.437 207.633 167.437 207.26C167.437 206.84 167.594 206.507 167.907 206.26C168.227 206.007 168.624 205.88 169.097 205.88C169.624 205.88 170.047 205.953 170.367 206.1ZM174.458 208.66H173.578C173.151 208.66 172.831 208.743 172.618 208.91C172.405 209.077 172.298 209.287 172.298 209.54C172.298 209.793 172.381 210 172.548 210.16C172.715 210.313 172.958 210.39 173.278 210.39C173.638 210.39 173.925 210.29 174.138 210.09C174.351 209.883 174.458 209.623 174.458 209.31V208.66ZM171.838 206.99V206.2C172.218 205.967 172.718 205.85 173.338 205.85C174.611 205.85 175.248 206.497 175.248 207.79V211H174.468V210.4C174.208 210.833 173.735 211.05 173.048 211.05C172.575 211.05 172.191 210.91 171.898 210.63C171.611 210.35 171.468 209.997 171.468 209.57C171.468 209.083 171.651 208.707 172.018 208.44C172.391 208.167 172.898 208.03 173.538 208.03H174.458V207.77C174.458 207.37 174.368 207.07 174.188 206.87C174.008 206.663 173.705 206.56 173.278 206.56C172.738 206.56 172.258 206.703 171.838 206.99ZM176.65 211V203.97H177.43V211H176.65ZM178.46 208.34L180.52 211H179.57L177.53 208.34L179.52 205.93H180.46L178.46 208.34ZM184.215 206.1V206.85C183.908 206.663 183.488 206.57 182.955 206.57C182.688 206.57 182.475 206.633 182.315 206.76C182.161 206.88 182.085 207.037 182.085 207.23C182.085 207.35 182.108 207.457 182.155 207.55C182.201 207.637 182.291 207.723 182.425 207.81C182.565 207.897 182.665 207.957 182.725 207.99C182.791 208.017 182.931 208.077 183.145 208.17C183.571 208.343 183.905 208.54 184.145 208.76C184.385 208.98 184.505 209.277 184.505 209.65C184.505 210.083 184.351 210.427 184.045 210.68C183.745 210.933 183.331 211.06 182.805 211.06C182.191 211.06 181.695 210.957 181.315 210.75V209.98C181.761 210.247 182.241 210.38 182.755 210.38C183.061 210.38 183.295 210.32 183.455 210.2C183.615 210.08 183.695 209.917 183.695 209.71C183.695 209.47 183.605 209.283 183.425 209.15C183.251 209.017 182.958 208.867 182.545 208.7C182.165 208.553 181.858 208.37 181.625 208.15C181.398 207.93 181.285 207.633 181.285 207.26C181.285 206.84 181.441 206.507 181.755 206.26C182.075 206.007 182.471 205.88 182.945 205.88C183.471 205.88 183.895 205.953 184.215 206.1ZM185.616 211V205.93H186.406V211H185.616ZM185.636 204.71C185.542 204.61 185.496 204.487 185.496 204.34C185.496 204.193 185.542 204.07 185.636 203.97C185.736 203.87 185.859 203.82 186.006 203.82C186.152 203.82 186.276 203.87 186.376 203.97C186.476 204.07 186.526 204.193 186.526 204.34C186.526 204.487 186.476 204.61 186.376 204.71C186.276 204.803 186.152 204.85 186.006 204.85C185.859 204.85 185.736 204.803 185.636 204.71ZM191.671 208.54H194.061L193.931 208.15L192.881 204.91C192.801 205.197 192.441 206.28 191.801 208.16L191.671 208.54ZM194.881 211L194.291 209.23H191.441L190.841 211H189.971L192.321 204.26H193.441L195.751 211H194.881ZM197.615 205.93V206.81C197.915 206.177 198.449 205.86 199.215 205.86C199.709 205.86 200.102 206.01 200.395 206.31C200.689 206.61 200.835 207.01 200.835 207.51V211H200.045V207.72C200.045 207.347 199.949 207.063 199.755 206.87C199.569 206.67 199.322 206.57 199.015 206.57C198.635 206.57 198.305 206.717 198.025 207.01C197.752 207.303 197.615 207.71 197.615 208.23V211H196.835V205.93H197.615ZM204.166 210.36C204.579 210.36 204.929 210.207 205.216 209.9C205.509 209.593 205.656 209.103 205.656 208.43C205.656 207.79 205.506 207.32 205.206 207.02C204.906 206.72 204.576 206.57 204.216 206.57C203.796 206.57 203.446 206.74 203.166 207.08C202.893 207.413 202.756 207.893 202.756 208.52C202.756 209.067 202.889 209.51 203.156 209.85C203.423 210.19 203.759 210.36 204.166 210.36ZM205.656 203.93H206.446V211H205.656V210.25C205.296 210.803 204.776 211.08 204.096 211.08C203.423 211.08 202.893 210.83 202.506 210.33C202.126 209.83 201.936 209.223 201.936 208.51C201.936 207.717 202.139 207.077 202.546 206.59C202.953 206.097 203.476 205.85 204.116 205.85C204.776 205.85 205.289 206.133 205.656 206.7V203.93ZM210.64 208.66H209.76C209.333 208.66 209.013 208.743 208.8 208.91C208.586 209.077 208.48 209.287 208.48 209.54C208.48 209.793 208.563 210 208.73 210.16C208.896 210.313 209.14 210.39 209.46 210.39C209.82 210.39 210.106 210.29 210.32 210.09C210.533 209.883 210.64 209.623 210.64 209.31V208.66ZM208.02 206.99V206.2C208.4 205.967 208.9 205.85 209.52 205.85C210.793 205.85 211.43 206.497 211.43 207.79V211H210.65V210.4C210.39 210.833 209.916 211.05 209.23 211.05C208.756 211.05 208.373 210.91 208.08 210.63C207.793 210.35 207.65 209.997 207.65 209.57C207.65 209.083 207.833 208.707 208.2 208.44C208.573 208.167 209.08 208.03 209.72 208.03H210.64V207.77C210.64 207.37 210.55 207.07 210.37 206.87C210.19 206.663 209.886 206.56 209.46 206.56C208.92 206.56 208.44 206.703 208.02 206.99ZM217.503 210.36C217.93 210.36 218.28 210.193 218.553 209.86C218.826 209.52 218.963 209.04 218.963 208.42C218.963 207.867 218.83 207.42 218.563 207.08C218.296 206.74 217.96 206.57 217.553 206.57C217.146 206.57 216.793 206.72 216.493 207.02C216.2 207.313 216.053 207.797 216.053 208.47C216.053 209.117 216.203 209.593 216.503 209.9C216.803 210.207 217.136 210.36 217.503 210.36ZM216.053 205.93V206.7C216.406 206.133 216.93 205.85 217.623 205.85C218.296 205.85 218.823 206.097 219.203 206.59C219.59 207.077 219.783 207.687 219.783 208.42C219.783 209.2 219.58 209.84 219.173 210.34C218.773 210.833 218.25 211.08 217.603 211.08C216.936 211.08 216.42 210.797 216.053 210.23V212.97H215.273V205.93H216.053ZM223.677 208.66H222.797C222.37 208.66 222.05 208.743 221.837 208.91C221.623 209.077 221.517 209.287 221.517 209.54C221.517 209.793 221.6 210 221.767 210.16C221.933 210.313 222.177 210.39 222.497 210.39C222.857 210.39 223.143 210.29 223.357 210.09C223.57 209.883 223.677 209.623 223.677 209.31V208.66ZM221.057 206.99V206.2C221.437 205.967 221.937 205.85 222.557 205.85C223.83 205.85 224.467 206.497 224.467 207.79V211H223.687V210.4C223.427 210.833 222.953 211.05 222.267 211.05C221.793 211.05 221.41 210.91 221.117 210.63C220.83 210.35 220.687 209.997 220.687 209.57C220.687 209.083 220.87 208.707 221.237 208.44C221.61 208.167 222.117 208.03 222.757 208.03H223.677V207.77C223.677 207.37 223.587 207.07 223.407 206.87C223.227 206.663 222.923 206.56 222.497 206.56C221.957 206.56 221.477 206.703 221.057 206.99ZM227.799 210.36C228.212 210.36 228.562 210.207 228.849 209.9C229.142 209.593 229.289 209.103 229.289 208.43C229.289 207.79 229.139 207.32 228.839 207.02C228.539 206.72 228.209 206.57 227.849 206.57C227.429 206.57 227.079 206.74 226.799 207.08C226.525 207.413 226.389 207.893 226.389 208.52C226.389 209.067 226.522 209.51 226.789 209.85C227.055 210.19 227.392 210.36 227.799 210.36ZM229.289 203.93H230.079V211H229.289V210.25C228.929 210.803 228.409 211.08 227.729 211.08C227.055 211.08 226.525 210.83 226.139 210.33C225.759 209.83 225.569 209.223 225.569 208.51C225.569 207.717 225.772 207.077 226.179 206.59C226.585 206.097 227.109 205.85 227.749 205.85C228.409 205.85 228.922 206.133 229.289 206.7V203.93ZM234.273 208.66H233.393C232.966 208.66 232.646 208.743 232.433 208.91C232.219 209.077 232.113 209.287 232.113 209.54C232.113 209.793 232.196 210 232.363 210.16C232.529 210.313 232.773 210.39 233.093 210.39C233.453 210.39 233.739 210.29 233.953 210.09C234.166 209.883 234.273 209.623 234.273 209.31V208.66ZM231.653 206.99V206.2C232.033 205.967 232.533 205.85 233.153 205.85C234.426 205.85 235.063 206.497 235.063 207.79V211H234.283V210.4C234.023 210.833 233.549 211.05 232.863 211.05C232.389 211.05 232.006 210.91 231.713 210.63C231.426 210.35 231.283 209.997 231.283 209.57C231.283 209.083 231.466 208.707 231.833 208.44C232.206 208.167 232.713 208.03 233.353 208.03H234.273V207.77C234.273 207.37 234.183 207.07 234.003 206.87C233.823 206.663 233.519 206.56 233.093 206.56C232.553 206.56 232.073 206.703 231.653 206.99ZM112.821 227V220.26H114.081V227H112.821ZM115.681 223.64L118.191 227H116.601L114.181 223.66L116.511 220.26H118.021L115.681 223.64ZM121.64 224.82H121.02C120.707 224.82 120.467 224.887 120.3 225.02C120.134 225.147 120.05 225.31 120.05 225.51C120.05 225.937 120.297 226.15 120.79 226.15C121.057 226.15 121.264 226.073 121.41 225.92C121.564 225.76 121.64 225.553 121.64 225.3V224.82ZM119.18 223.3V222.19C119.56 221.957 120.107 221.84 120.82 221.84C122.194 221.84 122.88 222.48 122.88 223.76V227H121.69V226.39C121.457 226.823 121.017 227.04 120.37 227.04C119.89 227.04 119.507 226.9 119.22 226.62C118.94 226.34 118.8 225.987 118.8 225.56C118.8 225.08 118.98 224.703 119.34 224.43C119.7 224.157 120.22 224.02 120.9 224.02H121.64V223.71C121.64 223.43 121.567 223.217 121.42 223.07C121.274 222.923 121.024 222.85 120.67 222.85C120.13 222.85 119.634 223 119.18 223.3ZM125.319 221.93V222.83C125.552 222.203 125.979 221.89 126.599 221.89C126.739 221.89 126.852 221.9 126.939 221.92V223.08C126.785 223.013 126.615 222.98 126.429 222.98C126.102 222.98 125.835 223.113 125.629 223.38C125.422 223.647 125.319 223.98 125.319 224.38V227H124.109L124.119 221.93H125.319ZM129.104 222.83V225.41C129.104 225.623 129.161 225.787 129.274 225.9C129.387 226.007 129.544 226.06 129.744 226.06C129.997 226.06 130.231 225.99 130.444 225.85V226.88C130.211 226.993 129.911 227.05 129.544 227.05C128.451 227.05 127.904 226.497 127.904 225.39V222.83H127.144V221.93H127.904V220.71H129.104V221.93H130.364V222.83H129.104ZM134.573 221.93H135.783V227H134.573V226.17C134.307 226.757 133.787 227.05 133.013 227.05C132.5 227.05 132.1 226.903 131.813 226.61C131.527 226.317 131.383 225.9 131.383 225.36V221.93H132.583V225.08C132.583 225.4 132.66 225.643 132.813 225.81C132.973 225.977 133.19 226.06 133.463 226.06C133.81 226.06 134.08 225.943 134.273 225.71C134.473 225.477 134.573 225.123 134.573 224.65V221.93ZM139.418 224.86V223.85H141.958V224.86H139.418ZM149.874 220.26V221.3H148.164V227H146.894V221.3H145.184V220.26H149.874ZM153.359 224.82H152.739C152.426 224.82 152.186 224.887 152.019 225.02C151.852 225.147 151.769 225.31 151.769 225.51C151.769 225.937 152.016 226.15 152.509 226.15C152.776 226.15 152.982 226.073 153.129 225.92C153.282 225.76 153.359 225.553 153.359 225.3V224.82ZM150.899 223.3V222.19C151.279 221.957 151.826 221.84 152.539 221.84C153.912 221.84 154.599 222.48 154.599 223.76V227H153.409V226.39C153.176 226.823 152.736 227.04 152.089 227.04C151.609 227.04 151.226 226.9 150.939 226.62C150.659 226.34 150.519 225.987 150.519 225.56C150.519 225.08 150.699 224.703 151.059 224.43C151.419 224.157 151.939 224.02 152.619 224.02H153.359V223.71C153.359 223.43 153.286 223.217 153.139 223.07C152.992 222.923 152.742 222.85 152.389 222.85C151.849 222.85 151.352 223 150.899 223.3ZM158.318 226.04C158.664 226.04 158.954 225.897 159.188 225.61C159.421 225.323 159.538 224.95 159.538 224.49C159.538 223.983 159.418 223.59 159.178 223.31C158.944 223.023 158.654 222.88 158.308 222.88C157.981 222.88 157.691 223.01 157.438 223.27C157.184 223.523 157.058 223.907 157.058 224.42C157.058 224.947 157.178 225.35 157.418 225.63C157.658 225.903 157.958 226.04 158.318 226.04ZM157.058 219.93V222.7C157.411 222.14 157.918 221.86 158.578 221.86C159.211 221.86 159.731 222.097 160.138 222.57C160.551 223.037 160.758 223.67 160.758 224.47C160.758 225.19 160.561 225.803 160.168 226.31C159.781 226.817 159.254 227.07 158.588 227.07C157.921 227.07 157.411 226.787 157.058 226.22V227H155.847V219.93H157.058ZM164.925 221.93H166.135V227H164.925V226.17C164.658 226.757 164.138 227.05 163.365 227.05C162.851 227.05 162.451 226.903 162.165 226.61C161.878 226.317 161.735 225.9 161.735 225.36V221.93H162.935V225.08C162.935 225.4 163.011 225.643 163.165 225.81C163.325 225.977 163.541 226.06 163.815 226.06C164.161 226.06 164.431 225.943 164.625 225.71C164.825 225.477 164.925 225.123 164.925 224.65V221.93ZM168.639 221.93V222.8C168.926 222.18 169.446 221.87 170.199 221.87C170.706 221.87 171.106 222.023 171.399 222.33C171.692 222.637 171.839 223.07 171.839 223.63V227H170.639V223.88C170.639 223.547 170.559 223.297 170.399 223.13C170.239 222.957 170.022 222.87 169.749 222.87C169.436 222.87 169.172 222.993 168.959 223.24C168.746 223.48 168.639 223.827 168.639 224.28V227H167.439V221.93H168.639ZM175.213 225.86C175.54 225.86 175.813 225.733 176.033 225.48C176.253 225.22 176.363 224.883 176.363 224.47C176.363 223.93 176.257 223.533 176.043 223.28C175.83 223.027 175.56 222.9 175.233 222.9C174.887 222.9 174.613 223.037 174.413 223.31C174.213 223.577 174.113 223.94 174.113 224.4C174.113 224.873 174.217 225.237 174.423 225.49C174.63 225.737 174.893 225.86 175.213 225.86ZM176.363 221.93H177.563V226.54C177.563 227.34 177.33 227.94 176.863 228.34C176.403 228.747 175.817 228.95 175.103 228.95C174.437 228.95 173.853 228.83 173.353 228.59V227.37C173.807 227.69 174.35 227.85 174.983 227.85C175.903 227.85 176.363 227.41 176.363 226.53V226.09C176.057 226.59 175.577 226.84 174.923 226.84C174.357 226.84 173.87 226.633 173.463 226.22C173.063 225.8 172.863 225.193 172.863 224.4C172.863 223.667 173.053 223.063 173.433 222.59C173.82 222.11 174.327 221.87 174.953 221.87C175.587 221.87 176.057 222.133 176.363 222.66V221.93ZM181.396 224.82H180.776C180.463 224.82 180.223 224.887 180.056 225.02C179.89 225.147 179.806 225.31 179.806 225.51C179.806 225.937 180.053 226.15 180.546 226.15C180.813 226.15 181.02 226.073 181.166 225.92C181.32 225.76 181.396 225.553 181.396 225.3V224.82ZM178.936 223.3V222.19C179.316 221.957 179.863 221.84 180.576 221.84C181.95 221.84 182.636 222.48 182.636 223.76V227H181.446V226.39C181.213 226.823 180.773 227.04 180.126 227.04C179.646 227.04 179.263 226.9 178.976 226.62C178.696 226.34 178.556 225.987 178.556 225.56C178.556 225.08 178.736 224.703 179.096 224.43C179.456 224.157 179.976 224.02 180.656 224.02H181.396V223.71C181.396 223.43 181.323 223.217 181.176 223.07C181.03 222.923 180.78 222.85 180.426 222.85C179.886 222.85 179.39 223 178.936 223.3ZM185.075 221.93V222.8C185.361 222.18 185.881 221.87 186.635 221.87C187.141 221.87 187.541 222.023 187.835 222.33C188.128 222.637 188.275 223.07 188.275 223.63V227H187.075V223.88C187.075 223.547 186.995 223.297 186.835 223.13C186.675 222.957 186.458 222.87 186.185 222.87C185.871 222.87 185.608 222.993 185.395 223.24C185.181 223.48 185.075 223.827 185.075 224.28V227H183.875V221.93H185.075Z" fill="#2B2B2B"/>
<path d="M111.679 161.97H112.759C113.565 161.97 113.969 161.663 113.969 161.05C113.969 160.423 113.549 160.11 112.709 160.11H111.679V161.97ZM111.679 157.29V159.1H112.439C112.892 159.1 113.232 159.01 113.459 158.83C113.685 158.65 113.799 158.42 113.799 158.14C113.799 157.88 113.702 157.673 113.509 157.52C113.322 157.367 113.035 157.29 112.649 157.29H111.679ZM110.419 156.26H112.809C113.529 156.26 114.089 156.43 114.489 156.77C114.889 157.11 115.089 157.55 115.089 158.09C115.089 158.457 114.989 158.777 114.789 159.05C114.589 159.317 114.332 159.493 114.019 159.58C114.379 159.667 114.675 159.843 114.909 160.11C115.142 160.37 115.259 160.727 115.259 161.18C115.259 161.713 115.072 162.15 114.699 162.49C114.325 162.83 113.809 163 113.149 163H110.419V156.26ZM116.337 163V156.26H117.767L119.387 159.07C119.653 159.53 119.89 159.96 120.097 160.36C120.31 160.753 120.453 161.033 120.527 161.2L120.637 161.45C120.583 160.897 120.557 160.103 120.557 159.07V156.26H121.827V163H120.387L118.747 160.2C118.487 159.76 118.25 159.34 118.037 158.94C117.83 158.533 117.687 158.24 117.607 158.06L117.487 157.78C117.56 158.413 117.597 159.217 117.597 160.19V163H116.337ZM123.301 163V156.26H124.561V163H123.301ZM128.324 160.86V159.85H130.864V160.86H128.324ZM135.79 161.97H136.87C137.677 161.97 138.08 161.663 138.08 161.05C138.08 160.423 137.66 160.11 136.82 160.11H135.79V161.97ZM135.79 157.29V159.1H136.55C137.003 159.1 137.343 159.01 137.57 158.83C137.797 158.65 137.91 158.42 137.91 158.14C137.91 157.88 137.813 157.673 137.62 157.52C137.433 157.367 137.147 157.29 136.76 157.29H135.79ZM134.53 156.26H136.92C137.64 156.26 138.2 156.43 138.6 156.77C139 157.11 139.2 157.55 139.2 158.09C139.2 158.457 139.1 158.777 138.9 159.05C138.7 159.317 138.443 159.493 138.13 159.58C138.49 159.667 138.787 159.843 139.02 160.11C139.253 160.37 139.37 160.727 139.37 161.18C139.37 161.713 139.183 162.15 138.81 162.49C138.437 162.83 137.92 163 137.26 163H134.53V156.26ZM140.448 163V156.26H141.878L143.498 159.07C143.765 159.53 144.001 159.96 144.208 160.36C144.421 160.753 144.565 161.033 144.638 161.2L144.748 161.45C144.695 160.897 144.668 160.103 144.668 159.07V156.26H145.938V163H144.498L142.858 160.2C142.598 159.76 142.361 159.34 142.148 158.94C141.941 158.533 141.798 158.24 141.718 158.06L141.598 157.78C141.671 158.413 141.708 159.217 141.708 160.19V163H140.448ZM147.413 163V156.26H148.673V163H147.413ZM153.896 159.69H154.606C155.066 159.69 155.409 159.58 155.636 159.36C155.862 159.14 155.976 158.843 155.976 158.47C155.976 158.103 155.862 157.817 155.636 157.61C155.409 157.397 155.076 157.29 154.636 157.29H153.896V159.69ZM152.636 156.26H154.746C155.506 156.26 156.112 156.467 156.566 156.88C157.026 157.293 157.256 157.823 157.256 158.47C157.256 159.157 157.019 159.703 156.546 160.11C156.079 160.51 155.489 160.71 154.776 160.71H153.896V163H152.636V156.26ZM158.192 163V155.93H159.392V163H158.192ZM163.33 160.82H162.71C162.397 160.82 162.157 160.887 161.99 161.02C161.823 161.147 161.74 161.31 161.74 161.51C161.74 161.937 161.987 162.15 162.48 162.15C162.747 162.15 162.953 162.073 163.1 161.92C163.253 161.76 163.33 161.553 163.33 161.3V160.82ZM160.87 159.3V158.19C161.25 157.957 161.797 157.84 162.51 157.84C163.883 157.84 164.57 158.48 164.57 159.76V163H163.38V162.39C163.147 162.823 162.707 163.04 162.06 163.04C161.58 163.04 161.197 162.9 160.91 162.62C160.63 162.34 160.49 161.987 160.49 161.56C160.49 161.08 160.67 160.703 161.03 160.43C161.39 160.157 161.91 160.02 162.59 160.02H163.33V159.71C163.33 159.43 163.257 159.217 163.11 159.07C162.963 158.923 162.713 158.85 162.36 158.85C161.82 158.85 161.323 159 160.87 159.3ZM167.268 158.83V161.41C167.268 161.623 167.325 161.787 167.438 161.9C167.552 162.007 167.708 162.06 167.908 162.06C168.162 162.06 168.395 161.99 168.608 161.85V162.88C168.375 162.993 168.075 163.05 167.708 163.05C166.615 163.05 166.068 162.497 166.068 161.39V158.83H165.308V157.93H166.068V156.71H167.268V157.93H168.528V158.83H167.268ZM169.647 163V157.93H170.847V163H169.647ZM169.527 156.41C169.527 156.21 169.597 156.04 169.737 155.9C169.877 155.76 170.047 155.69 170.247 155.69C170.447 155.69 170.617 155.76 170.757 155.9C170.897 156.04 170.967 156.21 170.967 156.41C170.967 156.617 170.897 156.79 170.757 156.93C170.617 157.07 170.447 157.14 170.247 157.14C170.047 157.14 169.877 157.07 169.737 156.93C169.597 156.79 169.527 156.617 169.527 156.41ZM173.395 157.93V158.8C173.682 158.18 174.202 157.87 174.955 157.87C175.462 157.87 175.862 158.023 176.155 158.33C176.448 158.637 176.595 159.07 176.595 159.63V163H175.395V159.88C175.395 159.547 175.315 159.297 175.155 159.13C174.995 158.957 174.778 158.87 174.505 158.87C174.192 158.87 173.928 158.993 173.715 159.24C173.502 159.48 173.395 159.827 173.395 160.28V163H172.195V157.93H173.395ZM180.989 157.93H182.199V163H180.989V162.17C180.723 162.757 180.203 163.05 179.429 163.05C178.916 163.05 178.516 162.903 178.229 162.61C177.943 162.317 177.799 161.9 177.799 161.36V157.93H178.999V161.08C178.999 161.4 179.076 161.643 179.229 161.81C179.389 161.977 179.606 162.06 179.879 162.06C180.226 162.06 180.496 161.943 180.689 161.71C180.889 161.477 180.989 161.123 180.989 160.65V157.93ZM184.704 157.93V158.73C184.99 158.157 185.467 157.87 186.134 157.87C186.874 157.87 187.354 158.19 187.574 158.83C187.707 158.523 187.907 158.287 188.174 158.12C188.44 157.953 188.744 157.87 189.084 157.87C189.597 157.87 189.994 158.027 190.274 158.34C190.554 158.647 190.694 159.087 190.694 159.66V163H189.484V159.89C189.484 159.21 189.224 158.87 188.704 158.87C188.444 158.87 188.21 158.983 188.004 159.21C187.804 159.437 187.704 159.793 187.704 160.28V163H186.494V159.89C186.494 159.21 186.234 158.87 185.714 158.87C185.454 158.87 185.22 158.983 185.014 159.21C184.807 159.437 184.704 159.793 184.704 160.28V163H183.504V157.93H184.704Z" fill="#DA011C"/>
<g filter="url(#filter1_d_1124_4113)">
<rect x="90.5" y="244" width="120" height="24" rx="8" fill="#FF1934" shape-rendering="crispEdges"/>
<path d="M145.442 255.288C145.442 254.451 145.671 253.779 146.13 253.272C146.594 252.765 147.212 252.512 147.986 252.512C148.77 252.512 149.391 252.765 149.85 253.272C150.308 253.773 150.538 254.445 150.538 255.288C150.538 256.12 150.306 256.789 149.842 257.296C149.383 257.803 148.767 258.056 147.994 258.056C147.22 258.056 146.602 257.803 146.138 257.296C145.674 256.789 145.442 256.12 145.442 255.288ZM146.522 255.288C146.522 255.853 146.655 256.301 146.922 256.632C147.188 256.963 147.546 257.128 147.994 257.128C148.447 257.128 148.804 256.965 149.066 256.64C149.327 256.309 149.458 255.859 149.458 255.288C149.458 254.717 149.327 254.267 149.066 253.936C148.804 253.605 148.444 253.44 147.986 253.44C147.532 253.44 147.175 253.605 146.914 253.936C146.652 254.267 146.522 254.717 146.522 255.288ZM151.439 258L151.439 252.608L152.447 252.608L152.447 258L151.439 258ZM153.727 255.312L155.735 258L154.463 258L152.527 255.328L154.391 252.608L155.599 252.608L153.727 255.312Z" fill="white"/>
</g>
<defs>
<filter id="filter0_d_1124_4113" x="-4" y="-2" width="309" height="56" filterUnits="userSpaceOnUse" color-interpolation-filters="sRGB">
<feFlood flood-opacity="0" result="BackgroundImageFix"/>
<feColorMatrix in="SourceAlpha" type="matrix" values="0 0 0 0 0 0 0 0 0 0 0 0 0 0 0 0 0 0 127 0" result="hardAlpha"/>
<feOffset dy="2"/>
<feGaussianBlur stdDeviation="2"/>
<feComposite in2="hardAlpha" operator="out"/>
<feColorMatrix type="matrix" values="0 0 0 0 0.168627 0 0 0 0 0.168627 0 0 0 0 0.168627 0 0 0 0.24 0"/>
<feBlend mode="normal" in2="BackgroundImageFix" result="effect1_dropShadow_1124_4113"/>
<feBlend mode="normal" in="SourceGraphic" in2="effect1_dropShadow_1124_4113" result="shape"/>
</filter>
<filter id="filter1_d_1124_4113" x="84.5" y="238" width="136" height="40" filterUnits="userSpaceOnUse" color-interpolation-filters="sRGB">
<feFlood flood-opacity="0" result="BackgroundImageFix"/>
<feColorMatrix in="SourceAlpha" type="matrix" values="0 0 0 0 0 0 0 0 0 0 0 0 0 0 0 0 0 0 127 0" result="hardAlpha"/>
<feOffset dx="2" dy="2"/>
<feGaussianBlur stdDeviation="4"/>
<feComposite in2="hardAlpha" operator="out"/>
<feColorMatrix type="matrix" values="0 0 0 0 0 0 0 0 0 0 0 0 0 0 0 0 0 0 0.12 0"/>
<feBlend mode="normal" in2="BackgroundImageFix" result="effect1_dropShadow_1124_4113"/>
<feBlend mode="normal" in="SourceGraphic" in2="effect1_dropShadow_1124_4113" result="shape"/>
</filter>
<clipPath id="clip0_1124_4113">
<rect width="24" height="24" fill="white" transform="translate(16 16)"/>
</clipPath>
<clipPath id="clip1_1124_4113">
<rect width="64" height="64" fill="white" transform="translate(118.5 72)"/>
</clipPath>
</defs>
</svg>
