<svg width="285" height="236" viewBox="0 0 285 236" fill="none" xmlns="http://www.w3.org/2000/svg">
<rect width="285" height="236" fill="#D3D3D3"/>
<rect width="285" height="236" rx="16" fill="white"/>
<g filter="url(#filter0_d_1124_4113)">
<path d="M0 16C0 7.16344 7.16344 0 16 0H269C277.837 0 285 7.16344 285 16V48H0V16Z" fill="#FF1934" shape-rendering="crispEdges"/>
<g clip-path="url(#clip0_1124_4113)">
<path d="M34.87 19.2098C32.57 18.8498 30.26 18.9498 27.99 19.5098C25.73 20.1198 23.3 20.2198 20.99 19.7998C20.51 19.7098 20.01 19.8398 19.63 20.1598C19.24 20.4898 19.01 20.9698 19.01 21.4798V28.0898C19.01 29.3798 19.96 30.4698 21.24 30.6598C22.11 30.7898 22.99 30.8598 23.86 30.8598C25.39 30.8598 26.91 30.6598 28.39 30.2598C30.58 29.7298 32.81 29.6598 35.04 30.0598C35.53 30.1498 36.02 30.0098 36.4 29.6998C36.79 29.3798 37.01 28.8998 37.01 28.3998V21.7698C37.01 20.5198 36.12 19.4098 34.88 19.2198L34.87 19.2098ZM35.4 21.7598V22.4398C34.55 22.1798 33.88 21.5298 33.59 20.6898C33.92 20.7198 34.26 20.7398 34.59 20.7898C35.06 20.8598 35.4 21.2898 35.4 21.7698V21.7598ZM20.7 21.3698C21.11 21.4398 21.53 21.4798 21.95 21.5298C21.6 21.9698 21.14 22.2898 20.6 22.4498V21.4798C20.6 21.4298 20.63 21.3998 20.7 21.3698ZM20.6 28.0898V27.4198C21.45 27.6798 22.12 28.3298 22.4 29.1698C22.08 29.1398 21.77 29.1198 21.45 29.0798C20.96 29.0098 20.6 28.5898 20.6 28.0998V28.0898ZM27.99 28.6998C26.91 28.9898 25.81 29.1498 24.71 29.2098C24.37 29.2298 24.04 29.0198 23.93 28.6898C23.49 27.3598 22.44 26.3198 21.11 25.8898C20.79 25.7898 20.6 25.4698 20.6 25.1398V24.6998C20.6 24.3598 20.81 24.0498 21.13 23.9498C22.14 23.6298 22.99 22.9498 23.54 22.0398C23.69 21.7898 23.94 21.6198 24.23 21.6198C25.64 21.5898 27.04 21.4198 28.38 21.0498C29.33 20.8198 30.3 20.6798 31.27 20.6298C31.61 20.6098 31.94 20.8198 32.05 21.1398C32.49 22.4698 33.55 23.5198 34.88 23.9398C35.2 24.0398 35.4 24.3598 35.4 24.6898V25.1298C35.4 25.4698 35.19 25.7798 34.87 25.8798C33.86 26.1998 33.01 26.8698 32.46 27.7898C32.31 28.0398 32.06 28.1998 31.77 28.2098C30.5 28.2298 29.24 28.3898 27.99 28.6898V28.6998ZM35.32 28.4798C34.9 28.3998 34.47 28.3598 34.05 28.3198C34.4 27.8898 34.87 27.5698 35.4 27.4098V28.3898L35.32 28.4798Z" fill="white"/>
<path d="M27.9 21.8998C26.18 22.1198 24.97 23.3598 24.97 24.9198C24.97 25.8198 25.36 26.7098 26.02 27.2898C26.52 27.7298 27.13 27.9598 27.76 27.9598C27.87 27.9598 27.98 27.9598 28.09 27.9398C29.81 27.7198 31.02 26.4798 31.02 24.9198C31.02 24.0198 30.63 23.1298 29.97 22.5498C29.38 22.0298 28.64 21.7998 27.9 21.8998ZM27.9 26.3598C27.52 26.4098 27.25 26.2398 27.08 26.0898C26.76 25.8098 26.57 25.3698 26.57 24.9198C26.57 24.0698 27.36 23.5798 28.1 23.4898C28.14 23.4898 28.19 23.4898 28.23 23.4898C28.54 23.4898 28.77 23.6298 28.92 23.7698C29.24 24.0498 29.43 24.4898 29.43 24.9398C29.43 25.7898 28.64 26.2798 27.9 26.3698V26.3598Z" fill="white"/>
<path d="M35.32 31.07C32.87 30.63 30.41 30.7 27.99 31.29C25.85 31.87 23.65 31.99 21.44 31.66C21.01 31.6 20.6 31.89 20.53 32.33C20.46 32.77 20.76 33.17 21.2 33.24C22.09 33.37 22.97 33.44 23.85 33.44C25.38 33.44 26.9 33.24 28.38 32.84C30.57 32.31 32.8 32.24 35.03 32.64C35.47 32.72 35.88 32.43 35.96 32C36.04 31.56 35.75 31.15 35.32 31.07Z" fill="white"/>
<path d="M34.62 33.5198C32.4 33.2098 30.17 33.3198 27.99 33.8498C26.16 34.3398 24.28 34.4998 22.39 34.3298C21.95 34.2898 21.56 34.6198 21.52 35.0498C21.48 35.4898 21.8 35.8798 22.24 35.9198C22.78 35.9698 23.31 35.9898 23.85 35.9898C25.39 35.9898 26.91 35.7898 28.39 35.3898C30.36 34.9098 32.39 34.8098 34.4 35.0898C34.84 35.1598 35.24 34.8498 35.3 34.4098C35.36 33.9698 35.06 33.5698 34.62 33.5098V33.5198Z" fill="white"/>
</g>
<path d="M55.196 22.564V24.3H52.9V32H50.73V24.3H48.42V22.564H55.196ZM59.9692 29.088H59.3112C58.9659 29.088 58.6999 29.1627 58.5132 29.312C58.3266 29.4613 58.2332 29.6527 58.2332 29.886C58.2332 30.362 58.5086 30.6 59.0592 30.6C59.3486 30.6 59.5726 30.5113 59.7312 30.334C59.8899 30.1567 59.9692 29.914 59.9692 29.606V29.088ZM56.6512 27.086V25.252C57.2112 24.9347 58.0186 24.776 59.0732 24.776C60.0812 24.776 60.8326 24.9953 61.3272 25.434C61.8219 25.8633 62.0692 26.5353 62.0692 27.45V32H60.0672V31.132C59.7686 31.7387 59.1806 32.042 58.3032 32.042C57.6126 32.042 57.0712 31.846 56.6792 31.454C56.2966 31.062 56.1052 30.572 56.1052 29.984C56.1052 29.3027 56.3526 28.7753 56.8472 28.402C57.3512 28.0193 58.0932 27.828 59.0732 27.828H59.9692V27.338C59.9692 26.7407 59.5726 26.442 58.7792 26.442C58.0139 26.442 57.3046 26.6567 56.6512 27.086ZM67.286 30.376C67.7153 30.376 68.0793 30.2033 68.378 29.858C68.6767 29.5033 68.826 29.0413 68.826 28.472C68.826 27.856 68.6767 27.3753 68.378 27.03C68.0887 26.6847 67.7293 26.512 67.3 26.512C66.8707 26.512 66.4973 26.6753 66.18 27.002C65.872 27.3287 65.718 27.786 65.718 28.374C65.718 28.9807 65.8627 29.466 66.152 29.83C66.4413 30.194 66.8193 30.376 67.286 30.376ZM65.718 22.102V25.994C66.2033 25.21 66.908 24.818 67.832 24.818C68.7187 24.818 69.4513 25.14 70.03 25.784C70.6087 26.428 70.898 27.31 70.898 28.43C70.898 29.4287 70.618 30.2873 70.058 31.006C69.5073 31.7247 68.77 32.084 67.846 32.084C66.9033 32.084 66.194 31.6873 65.718 30.894V32H63.674V22.102H65.718ZM76.6286 24.902H78.6726V32H76.6286V30.866C76.2552 31.6593 75.5366 32.056 74.4726 32.056C73.7446 32.056 73.1752 31.8553 72.7646 31.454C72.3632 31.0433 72.1626 30.4413 72.1626 29.648V24.902H74.2066V29.186C74.2066 30.0167 74.5706 30.432 75.2986 30.432C76.1852 30.432 76.6286 29.8393 76.6286 28.654V24.902ZM82.3977 24.902V26.106C82.575 25.714 82.8457 25.406 83.2097 25.182C83.583 24.9487 84.0263 24.832 84.5397 24.832C85.2677 24.832 85.837 25.0513 86.2477 25.49C86.6583 25.9193 86.8637 26.554 86.8637 27.394V32H84.8197V27.772C84.8197 27.352 84.7217 27.0347 84.5257 26.82C84.3297 26.596 84.0543 26.484 83.6997 26.484C83.3263 26.484 83.0137 26.6333 82.7617 26.932C82.519 27.2213 82.3977 27.66 82.3977 28.248V32H80.3537V24.902H82.3977ZM91.6248 30.138C92.0634 30.138 92.4041 29.9747 92.6468 29.648C92.8988 29.312 93.0248 28.9107 93.0248 28.444C93.0248 27.1747 92.5628 26.54 91.6388 26.54C91.2281 26.54 90.9061 26.6987 90.6728 27.016C90.4394 27.3333 90.3228 27.772 90.3228 28.332C90.3228 28.92 90.4348 29.368 90.6588 29.676C90.8828 29.984 91.2048 30.138 91.6248 30.138ZM93.0248 24.902H95.0548V31.314C95.0548 32.4527 94.7141 33.3067 94.0328 33.876C93.3514 34.4547 92.4974 34.744 91.4708 34.744C90.4721 34.744 89.5994 34.5667 88.8528 34.212V32.126C89.5061 32.6487 90.3088 32.91 91.2608 32.91C91.8768 32.91 92.3248 32.7793 92.6048 32.518C92.8848 32.2567 93.0248 31.846 93.0248 31.286V30.81C92.6141 31.4447 91.9608 31.762 91.0648 31.762C90.2808 31.762 89.6041 31.4727 89.0348 30.894C88.4748 30.3153 88.1948 29.4567 88.1948 28.318C88.1948 27.31 88.4654 26.4793 89.0068 25.826C89.5574 25.1633 90.2761 24.832 91.1628 24.832C92.0028 24.832 92.6234 25.168 93.0248 25.84V24.902ZM100.178 29.088H99.5202C99.1749 29.088 98.9089 29.1627 98.7222 29.312C98.5356 29.4613 98.4422 29.6527 98.4422 29.886C98.4422 30.362 98.7176 30.6 99.2682 30.6C99.5576 30.6 99.7816 30.5113 99.9402 30.334C100.099 30.1567 100.178 29.914 100.178 29.606V29.088ZM96.8602 27.086V25.252C97.4202 24.9347 98.2276 24.776 99.2822 24.776C100.29 24.776 101.042 24.9953 101.536 25.434C102.031 25.8633 102.278 26.5353 102.278 27.45V32H100.276V31.132C99.9776 31.7387 99.3896 32.042 98.5122 32.042C97.8216 32.042 97.2802 31.846 96.8882 31.454C96.5056 31.062 96.3142 30.572 96.3142 29.984C96.3142 29.3027 96.5616 28.7753 97.0562 28.402C97.5602 28.0193 98.3022 27.828 99.2822 27.828H100.178V27.338C100.178 26.7407 99.7816 26.442 98.9882 26.442C98.2229 26.442 97.5136 26.6567 96.8602 27.086ZM105.927 24.902V26.106C106.104 25.714 106.375 25.406 106.739 25.182C107.112 24.9487 107.556 24.832 108.069 24.832C108.797 24.832 109.366 25.0513 109.777 25.49C110.188 25.9193 110.393 26.554 110.393 27.394V32H108.349V27.772C108.349 27.352 108.251 27.0347 108.055 26.82C107.859 26.596 107.584 26.484 107.229 26.484C106.856 26.484 106.543 26.6333 106.291 26.932C106.048 27.2213 105.927 27.66 105.927 28.248V32H103.883V24.902H105.927Z" fill="white"/>
</g>
<g clip-path="url(#clip1_1124_4113)">
<path d="M142.5 126.07C131.772 126.07 123.044 124.347 123.044 122.23C123.044 120.113 131.772 118.39 142.5 118.39C153.228 118.39 161.956 120.113 161.956 122.23C161.956 124.347 153.228 126.07 142.5 126.07Z" fill="#CCCCCC"/>
<path d="M135.831 111.067C134.139 111.067 132.447 110.449 131.098 109.213L121.678 100.58C120.184 99.2121 120.082 96.8901 121.452 95.3964C122.82 93.9007 125.142 93.8021 126.636 95.1705L136.056 103.803L158.365 82.9465C159.861 81.5807 162.182 81.6793 163.549 83.1724C164.919 84.6661 164.816 86.9881 163.323 88.3564L140.563 109.213C139.214 110.449 137.522 111.067 135.831 111.067H135.831Z" fill="#008C1E"/>
<path d="M139.256 123.014C138.433 123.014 137.61 122.954 136.954 122.833L132.371 121.991C131.645 121.857 131.595 121.63 132.261 121.485C132.927 121.339 134.056 121.329 134.783 121.463L139.365 122.305L150.216 120.269C150.944 120.136 152.073 120.146 152.738 120.291C153.404 120.437 153.354 120.663 152.628 120.797L141.557 122.833C140.901 122.953 140.078 123.014 139.256 123.014Z" fill="#F1F1F1"/>
</g>
<path d="M50.4436 144.54H52.8336L52.7036 144.15L51.6536 140.91C51.5736 141.197 51.2136 142.28 50.5736 144.16L50.4436 144.54ZM53.6536 147L53.0636 145.23H50.2136L49.6136 147H48.7436L51.0936 140.26H52.2136L54.5236 147H53.6536ZM56.3879 141.93V142.81C56.6879 142.177 57.2213 141.86 57.9879 141.86C58.4813 141.86 58.8746 142.01 59.1679 142.31C59.4613 142.61 59.6079 143.01 59.6079 143.51V147H58.8179V143.72C58.8179 143.347 58.7213 143.063 58.5279 142.87C58.3413 142.67 58.0946 142.57 57.7879 142.57C57.4079 142.57 57.0779 142.717 56.7979 143.01C56.5246 143.303 56.3879 143.71 56.3879 144.23V147H55.6079V141.93H56.3879ZM62.9383 146.36C63.3517 146.36 63.7017 146.207 63.9883 145.9C64.2817 145.593 64.4283 145.103 64.4283 144.43C64.4283 143.79 64.2783 143.32 63.9783 143.02C63.6783 142.72 63.3483 142.57 62.9883 142.57C62.5683 142.57 62.2183 142.74 61.9383 143.08C61.665 143.413 61.5283 143.893 61.5283 144.52C61.5283 145.067 61.6617 145.51 61.9283 145.85C62.195 146.19 62.5317 146.36 62.9383 146.36ZM64.4283 139.93H65.2183V147H64.4283V146.25C64.0683 146.803 63.5483 147.08 62.8683 147.08C62.195 147.08 61.665 146.83 61.2783 146.33C60.8983 145.83 60.7083 145.223 60.7083 144.51C60.7083 143.717 60.9117 143.077 61.3183 142.59C61.725 142.097 62.2483 141.85 62.8883 141.85C63.5483 141.85 64.0617 142.133 64.4283 142.7V139.93ZM69.4121 144.66H68.5321C68.1055 144.66 67.7855 144.743 67.5721 144.91C67.3588 145.077 67.2521 145.287 67.2521 145.54C67.2521 145.793 67.3355 146 67.5021 146.16C67.6688 146.313 67.9121 146.39 68.2321 146.39C68.5921 146.39 68.8788 146.29 69.0921 146.09C69.3055 145.883 69.4121 145.623 69.4121 145.31V144.66ZM66.7921 142.99V142.2C67.1721 141.967 67.6721 141.85 68.2921 141.85C69.5655 141.85 70.2021 142.497 70.2021 143.79V147H69.4221V146.4C69.1621 146.833 68.6888 147.05 68.0021 147.05C67.5288 147.05 67.1455 146.91 66.8521 146.63C66.5655 146.35 66.4221 145.997 66.4221 145.57C66.4221 145.083 66.6055 144.707 66.9721 144.44C67.3455 144.167 67.8521 144.03 68.4921 144.03H69.4121V143.77C69.4121 143.37 69.3221 143.07 69.1421 142.87C68.9621 142.663 68.6588 142.56 68.2321 142.56C67.6921 142.56 67.2121 142.703 66.7921 142.99ZM76.3554 146.36C76.7621 146.36 77.0988 146.19 77.3654 145.85C77.6321 145.51 77.7654 145.067 77.7654 144.52C77.7654 143.893 77.6254 143.413 77.3454 143.08C77.0721 142.74 76.7254 142.57 76.3054 142.57C75.9454 142.57 75.6154 142.72 75.3154 143.02C75.0154 143.32 74.8654 143.79 74.8654 144.43C74.8654 145.103 75.0088 145.593 75.2954 145.9C75.5888 146.207 75.9421 146.36 76.3554 146.36ZM74.8654 139.93V142.69C75.2321 142.13 75.7454 141.85 76.4054 141.85C77.0454 141.85 77.5688 142.097 77.9754 142.59C78.3821 143.077 78.5854 143.717 78.5854 144.51C78.5854 145.223 78.3921 145.83 78.0054 146.33C77.6254 146.83 77.0988 147.08 76.4254 147.08C75.7454 147.08 75.2254 146.803 74.8654 146.25V147H74.0754V139.93H74.8654ZM82.9786 144.14V143.94C82.9786 143.52 82.8652 143.187 82.6386 142.94C82.4119 142.687 82.0986 142.56 81.6986 142.56C81.3186 142.56 80.9952 142.697 80.7286 142.97C80.4619 143.243 80.3052 143.633 80.2586 144.14H82.9786ZM83.4486 146V146.74C83.0552 146.947 82.5752 147.05 82.0086 147.05C81.2419 147.05 80.6219 146.817 80.1486 146.35C79.6819 145.877 79.4486 145.253 79.4486 144.48C79.4486 143.673 79.6586 143.037 80.0786 142.57C80.4986 142.103 81.0386 141.87 81.6986 141.87C82.3319 141.87 82.8352 142.073 83.2086 142.48C83.5819 142.887 83.7686 143.463 83.7686 144.21C83.7686 144.423 83.7519 144.62 83.7186 144.8H80.2586C80.3186 145.3 80.5086 145.683 80.8286 145.95C81.1486 146.217 81.5686 146.35 82.0886 146.35C82.6552 146.35 83.1086 146.233 83.4486 146ZM85.7532 141.93V142.82C86.0198 142.193 86.4798 141.88 87.1332 141.88C87.2532 141.88 87.3465 141.887 87.4132 141.9V142.68C87.2732 142.633 87.1298 142.61 86.9832 142.61C86.6298 142.61 86.3365 142.773 86.1032 143.1C85.8698 143.427 85.7532 143.803 85.7532 144.23V147H84.9632L84.9732 141.93H85.7532ZM89.0149 139.93V142.81C89.3149 142.177 89.8482 141.86 90.6149 141.86C91.1015 141.86 91.4915 142.01 91.7849 142.31C92.0849 142.61 92.2349 143.017 92.2349 143.53V147H91.4449V143.72C91.4449 143.353 91.3482 143.07 91.1549 142.87C90.9682 142.67 90.7215 142.57 90.4149 142.57C90.0415 142.57 89.7149 142.713 89.4349 143C89.1549 143.287 89.0149 143.697 89.0149 144.23V147H88.2349V139.93H89.0149ZM96.3653 144.66H95.4853C95.0586 144.66 94.7386 144.743 94.5253 144.91C94.3119 145.077 94.2053 145.287 94.2053 145.54C94.2053 145.793 94.2886 146 94.4553 146.16C94.6219 146.313 94.8653 146.39 95.1853 146.39C95.5453 146.39 95.8319 146.29 96.0453 146.09C96.2586 145.883 96.3653 145.623 96.3653 145.31V144.66ZM93.7453 142.99V142.2C94.1253 141.967 94.6253 141.85 95.2453 141.85C96.5186 141.85 97.1553 142.497 97.1553 143.79V147H96.3753V146.4C96.1153 146.833 95.6419 147.05 94.9553 147.05C94.4819 147.05 94.0986 146.91 93.8053 146.63C93.5186 146.35 93.3753 145.997 93.3753 145.57C93.3753 145.083 93.5586 144.707 93.9253 144.44C94.2986 144.167 94.8053 144.03 95.4453 144.03H96.3653V143.77C96.3653 143.37 96.2753 143.07 96.0953 142.87C95.9153 142.663 95.6119 142.56 95.1853 142.56C94.6453 142.56 94.1653 142.703 93.7453 142.99ZM101.317 142.1V142.85C101.01 142.663 100.59 142.57 100.057 142.57C99.7905 142.57 99.5771 142.633 99.4171 142.76C99.2638 142.88 99.1871 143.037 99.1871 143.23C99.1871 143.35 99.2105 143.457 99.2571 143.55C99.3038 143.637 99.3938 143.723 99.5271 143.81C99.6671 143.897 99.7671 143.957 99.8271 143.99C99.8938 144.017 100.034 144.077 100.247 144.17C100.674 144.343 101.007 144.54 101.247 144.76C101.487 144.98 101.607 145.277 101.607 145.65C101.607 146.083 101.454 146.427 101.147 146.68C100.847 146.933 100.434 147.06 99.9071 147.06C99.2938 147.06 98.7971 146.957 98.4171 146.75V145.98C98.8638 146.247 99.3438 146.38 99.8571 146.38C100.164 146.38 100.397 146.32 100.557 146.2C100.717 146.08 100.797 145.917 100.797 145.71C100.797 145.47 100.707 145.283 100.527 145.15C100.354 145.017 100.06 144.867 99.6471 144.7C99.2671 144.553 98.9605 144.37 98.7271 144.15C98.5005 143.93 98.3871 143.633 98.3871 143.26C98.3871 142.84 98.5438 142.507 98.8571 142.26C99.1771 142.007 99.5738 141.88 100.047 141.88C100.574 141.88 100.997 141.953 101.317 142.1ZM102.718 147V141.93H103.508V147H102.718ZM102.738 140.71C102.645 140.61 102.598 140.487 102.598 140.34C102.598 140.193 102.645 140.07 102.738 139.97C102.838 139.87 102.962 139.82 103.108 139.82C103.255 139.82 103.378 139.87 103.478 139.97C103.578 140.07 103.628 140.193 103.628 140.34C103.628 140.487 103.578 140.61 103.478 140.71C103.378 140.803 103.255 140.85 103.108 140.85C102.962 140.85 102.838 140.803 102.738 140.71ZM105.052 147V139.93H105.842V147H105.052ZM110.568 141.93V142.75C110.848 142.157 111.324 141.86 111.998 141.86C112.778 141.86 113.271 142.19 113.478 142.85C113.624 142.53 113.828 142.287 114.088 142.12C114.354 141.947 114.651 141.86 114.978 141.86C115.504 141.86 115.901 142.01 116.168 142.31C116.434 142.61 116.568 143.013 116.568 143.52V147H115.778V143.72C115.778 142.953 115.454 142.57 114.808 142.57C114.488 142.57 114.201 142.717 113.948 143.01C113.694 143.297 113.568 143.703 113.568 144.23V147H112.778V143.72C112.778 142.953 112.454 142.57 111.808 142.57C111.488 142.57 111.201 142.717 110.948 143.01C110.694 143.297 110.568 143.703 110.568 144.23V147H109.788V141.93H110.568ZM121.201 144.14V143.94C121.201 143.52 121.088 143.187 120.861 142.94C120.635 142.687 120.321 142.56 119.921 142.56C119.541 142.56 119.218 142.697 118.951 142.97C118.685 143.243 118.528 143.633 118.481 144.14H121.201ZM121.671 146V146.74C121.278 146.947 120.798 147.05 120.231 147.05C119.465 147.05 118.845 146.817 118.371 146.35C117.905 145.877 117.671 145.253 117.671 144.48C117.671 143.673 117.881 143.037 118.301 142.57C118.721 142.103 119.261 141.87 119.921 141.87C120.555 141.87 121.058 142.073 121.431 142.48C121.805 142.887 121.991 143.463 121.991 144.21C121.991 144.423 121.975 144.62 121.941 144.8H118.481C118.541 145.3 118.731 145.683 119.051 145.95C119.371 146.217 119.791 146.35 120.311 146.35C120.878 146.35 121.331 146.233 121.671 146ZM123.976 141.93V142.81C124.276 142.177 124.809 141.86 125.576 141.86C126.069 141.86 126.462 142.01 126.756 142.31C127.049 142.61 127.196 143.01 127.196 143.51V147H126.406V143.72C126.406 143.347 126.309 143.063 126.116 142.87C125.929 142.67 125.682 142.57 125.376 142.57C124.996 142.57 124.666 142.717 124.386 143.01C124.112 143.303 123.976 143.71 123.976 144.23V147H123.196V141.93H123.976ZM129.116 144.49C129.123 145.037 129.29 145.493 129.616 145.86C129.943 146.22 130.406 146.4 131.006 146.4C131.393 146.4 131.753 146.29 132.086 146.07V146.82C131.766 147.013 131.373 147.11 130.906 147.11C130.106 147.11 129.47 146.857 128.996 146.35C128.53 145.837 128.296 145.213 128.296 144.48C128.296 143.76 128.53 143.14 128.996 142.62C129.47 142.1 130.113 141.84 130.926 141.84C131.36 141.84 131.746 141.933 132.086 142.12V142.87C131.78 142.663 131.42 142.56 131.006 142.56C130.433 142.56 129.973 142.747 129.626 143.12C129.286 143.487 129.116 143.943 129.116 144.49ZM136.033 144.66H135.153C134.727 144.66 134.407 144.743 134.193 144.91C133.98 145.077 133.873 145.287 133.873 145.54C133.873 145.793 133.957 146 134.123 146.16C134.29 146.313 134.533 146.39 134.853 146.39C135.213 146.39 135.5 146.29 135.713 146.09C135.927 145.883 136.033 145.623 136.033 145.31V144.66ZM133.413 142.99V142.2C133.793 141.967 134.293 141.85 134.913 141.85C136.187 141.85 136.823 142.497 136.823 143.79V147H136.043V146.4C135.783 146.833 135.31 147.05 134.623 147.05C134.15 147.05 133.767 146.91 133.473 146.63C133.187 146.35 133.043 145.997 133.043 145.57C133.043 145.083 133.227 144.707 133.593 144.44C133.967 144.167 134.473 144.03 135.113 144.03H136.033V143.77C136.033 143.37 135.943 143.07 135.763 142.87C135.583 142.663 135.28 142.56 134.853 142.56C134.313 142.56 133.833 142.703 133.413 142.99ZM138.265 147V141.93H139.055V147H138.265ZM138.285 140.71C138.192 140.61 138.145 140.487 138.145 140.34C138.145 140.193 138.192 140.07 138.285 139.97C138.385 139.87 138.508 139.82 138.655 139.82C138.802 139.82 138.925 139.87 139.025 139.97C139.125 140.07 139.175 140.193 139.175 140.34C139.175 140.487 139.125 140.61 139.025 140.71C138.925 140.803 138.802 140.85 138.655 140.85C138.508 140.85 138.385 140.803 138.285 140.71ZM141.339 141.93V142.82C141.606 142.193 142.066 141.88 142.719 141.88C142.839 141.88 142.932 141.887 142.999 141.9V142.68C142.859 142.633 142.716 142.61 142.569 142.61C142.216 142.61 141.922 142.773 141.689 143.1C141.456 143.427 141.339 143.803 141.339 144.23V147H140.549L140.559 141.93H141.339ZM143.821 147V139.97H144.601V147H143.821ZM145.631 144.34L147.691 147H146.741L144.701 144.34L146.691 141.93H147.631L145.631 144.34ZM151.356 144.66H150.476C150.049 144.66 149.729 144.743 149.516 144.91C149.302 145.077 149.196 145.287 149.196 145.54C149.196 145.793 149.279 146 149.446 146.16C149.612 146.313 149.856 146.39 150.176 146.39C150.536 146.39 150.822 146.29 151.036 146.09C151.249 145.883 151.356 145.623 151.356 145.31V144.66ZM148.736 142.99V142.2C149.116 141.967 149.616 141.85 150.236 141.85C151.509 141.85 152.146 142.497 152.146 143.79V147H151.366V146.4C151.106 146.833 150.632 147.05 149.946 147.05C149.472 147.05 149.089 146.91 148.796 146.63C148.509 146.35 148.366 145.997 148.366 145.57C148.366 145.083 148.549 144.707 148.916 144.44C149.289 144.167 149.796 144.03 150.436 144.03H151.356V143.77C151.356 143.37 151.266 143.07 151.086 142.87C150.906 142.663 150.602 142.56 150.176 142.56C149.636 142.56 149.156 142.703 148.736 142.99ZM154.327 141.93V142.81C154.627 142.177 155.161 141.86 155.927 141.86C156.421 141.86 156.814 142.01 157.107 142.31C157.401 142.61 157.547 143.01 157.547 143.51V147H156.757V143.72C156.757 143.347 156.661 143.063 156.467 142.87C156.281 142.67 156.034 142.57 155.727 142.57C155.347 142.57 155.017 142.717 154.737 143.01C154.464 143.303 154.327 143.71 154.327 144.23V147H153.547V141.93H154.327ZM162.479 142.57V145.54C162.479 146.08 162.733 146.35 163.239 146.35C163.499 146.35 163.729 146.273 163.929 146.12V146.87C163.709 146.99 163.463 147.05 163.189 147.05C162.189 147.05 161.689 146.54 161.689 145.52V142.57H160.879V141.93H161.689V140.67H162.479V141.93H163.879V142.57H162.479ZM167.811 144.66H166.931C166.504 144.66 166.184 144.743 165.971 144.91C165.757 145.077 165.651 145.287 165.651 145.54C165.651 145.793 165.734 146 165.901 146.16C166.067 146.313 166.311 146.39 166.631 146.39C166.991 146.39 167.277 146.29 167.491 146.09C167.704 145.883 167.811 145.623 167.811 145.31V144.66ZM165.191 142.99V142.2C165.571 141.967 166.071 141.85 166.691 141.85C167.964 141.85 168.601 142.497 168.601 143.79V147H167.821V146.4C167.561 146.833 167.087 147.05 166.401 147.05C165.927 147.05 165.544 146.91 165.251 146.63C164.964 146.35 164.821 145.997 164.821 145.57C164.821 145.083 165.004 144.707 165.371 144.44C165.744 144.167 166.251 144.03 166.891 144.03H167.811V143.77C167.811 143.37 167.721 143.07 167.541 142.87C167.361 142.663 167.057 142.56 166.631 142.56C166.091 142.56 165.611 142.703 165.191 142.99ZM172.312 146.36C172.719 146.36 173.056 146.19 173.322 145.85C173.589 145.51 173.722 145.067 173.722 144.52C173.722 143.893 173.582 143.413 173.302 143.08C173.029 142.74 172.682 142.57 172.262 142.57C171.902 142.57 171.572 142.72 171.272 143.02C170.972 143.32 170.822 143.79 170.822 144.43C170.822 145.103 170.966 145.593 171.252 145.9C171.546 146.207 171.899 146.36 172.312 146.36ZM170.822 139.93V142.69C171.189 142.13 171.702 141.85 172.362 141.85C173.002 141.85 173.526 142.097 173.932 142.59C174.339 143.077 174.542 143.717 174.542 144.51C174.542 145.223 174.349 145.83 173.962 146.33C173.582 146.83 173.056 147.08 172.382 147.08C171.702 147.08 171.182 146.803 170.822 146.25V147H170.032V139.93H170.822ZM178.856 141.93H179.646V147H178.856V146.12C178.589 146.747 178.059 147.06 177.266 147.06C176.766 147.06 176.369 146.913 176.076 146.62C175.789 146.32 175.646 145.92 175.646 145.42V141.93H176.436V145.22C176.436 145.587 176.529 145.867 176.716 146.06C176.902 146.253 177.156 146.35 177.476 146.35C177.896 146.35 178.229 146.203 178.476 145.91C178.729 145.617 178.856 145.22 178.856 144.72V141.93ZM181.886 141.93V142.81C182.186 142.177 182.719 141.86 183.486 141.86C183.979 141.86 184.373 142.01 184.666 142.31C184.959 142.61 185.106 143.01 185.106 143.51V147H184.316V143.72C184.316 143.347 184.219 143.063 184.026 142.87C183.839 142.67 183.593 142.57 183.286 142.57C182.906 142.57 182.576 142.717 182.296 143.01C182.023 143.303 181.886 143.71 181.886 144.23V147H181.106V141.93H181.886ZM188.406 146.17C188.773 146.17 189.096 146.03 189.376 145.75C189.663 145.463 189.806 145.04 189.806 144.48C189.806 143.833 189.67 143.353 189.396 143.04C189.123 142.727 188.806 142.57 188.446 142.57C188.013 142.57 187.67 142.743 187.416 143.09C187.163 143.43 187.036 143.877 187.036 144.43C187.036 144.997 187.176 145.43 187.456 145.73C187.736 146.023 188.053 146.17 188.406 146.17ZM189.806 141.93H190.596V146.59C190.596 147.363 190.383 147.943 189.956 148.33C189.53 148.723 188.98 148.92 188.306 148.92C187.693 148.92 187.17 148.817 186.736 148.61V147.82C187.163 148.067 187.663 148.19 188.236 148.19C188.723 148.19 189.106 148.06 189.386 147.8C189.666 147.54 189.806 147.133 189.806 146.58V146.01C189.473 146.583 188.976 146.87 188.316 146.87C187.736 146.87 187.24 146.657 186.826 146.23C186.42 145.803 186.216 145.21 186.216 144.45C186.216 143.697 186.406 143.077 186.786 142.59C187.166 142.103 187.663 141.86 188.276 141.86C188.97 141.86 189.48 142.163 189.806 142.77V141.93ZM194.725 144.66H193.845C193.418 144.66 193.098 144.743 192.885 144.91C192.671 145.077 192.565 145.287 192.565 145.54C192.565 145.793 192.648 146 192.815 146.16C192.981 146.313 193.225 146.39 193.545 146.39C193.905 146.39 194.191 146.29 194.405 146.09C194.618 145.883 194.725 145.623 194.725 145.31V144.66ZM192.105 142.99V142.2C192.485 141.967 192.985 141.85 193.605 141.85C194.878 141.85 195.515 142.497 195.515 143.79V147H194.735V146.4C194.475 146.833 194.001 147.05 193.315 147.05C192.841 147.05 192.458 146.91 192.165 146.63C191.878 146.35 191.735 145.997 191.735 145.57C191.735 145.083 191.918 144.707 192.285 144.44C192.658 144.167 193.165 144.03 193.805 144.03H194.725V143.77C194.725 143.37 194.635 143.07 194.455 142.87C194.275 142.663 193.971 142.56 193.545 142.56C193.005 142.56 192.525 142.703 192.105 142.99ZM197.697 141.93V142.81C197.997 142.177 198.53 141.86 199.297 141.86C199.79 141.86 200.183 142.01 200.477 142.31C200.77 142.61 200.917 143.01 200.917 143.51V147H200.127V143.72C200.127 143.347 200.03 143.063 199.837 142.87C199.65 142.67 199.403 142.57 199.097 142.57C198.717 142.57 198.387 142.717 198.107 143.01C197.833 143.303 197.697 143.71 197.697 144.23V147H196.917V141.93H197.697ZM207.518 142.1V142.85C207.212 142.663 206.792 142.57 206.258 142.57C205.992 142.57 205.778 142.633 205.618 142.76C205.465 142.88 205.388 143.037 205.388 143.23C205.388 143.35 205.412 143.457 205.458 143.55C205.505 143.637 205.595 143.723 205.728 143.81C205.868 143.897 205.968 143.957 206.028 143.99C206.095 144.017 206.235 144.077 206.448 144.17C206.875 144.343 207.208 144.54 207.448 144.76C207.688 144.98 207.808 145.277 207.808 145.65C207.808 146.083 207.655 146.427 207.348 146.68C207.048 146.933 206.635 147.06 206.108 147.06C205.495 147.06 204.998 146.957 204.618 146.75V145.98C205.065 146.247 205.545 146.38 206.058 146.38C206.365 146.38 206.598 146.32 206.758 146.2C206.918 146.08 206.998 145.917 206.998 145.71C206.998 145.47 206.908 145.283 206.728 145.15C206.555 145.017 206.262 144.867 205.848 144.7C205.468 144.553 205.162 144.37 204.928 144.15C204.702 143.93 204.588 143.633 204.588 143.26C204.588 142.84 204.745 142.507 205.058 142.26C205.378 142.007 205.775 141.88 206.248 141.88C206.775 141.88 207.198 141.953 207.518 142.1ZM212.109 144.14V143.94C212.109 143.52 211.996 143.187 211.769 142.94C211.543 142.687 211.229 142.56 210.829 142.56C210.449 142.56 210.126 142.697 209.859 142.97C209.593 143.243 209.436 143.633 209.389 144.14H212.109ZM212.579 146V146.74C212.186 146.947 211.706 147.05 211.139 147.05C210.373 147.05 209.753 146.817 209.279 146.35C208.813 145.877 208.579 145.253 208.579 144.48C208.579 143.673 208.789 143.037 209.209 142.57C209.629 142.103 210.169 141.87 210.829 141.87C211.463 141.87 211.966 142.073 212.339 142.48C212.713 142.887 212.899 143.463 212.899 144.21C212.899 144.423 212.883 144.62 212.849 144.8H209.389C209.449 145.3 209.639 145.683 209.959 145.95C210.279 146.217 210.699 146.35 211.219 146.35C211.786 146.35 212.239 146.233 212.579 146ZM216.414 146.36C216.821 146.36 217.157 146.19 217.424 145.85C217.691 145.51 217.824 145.067 217.824 144.52C217.824 143.893 217.684 143.413 217.404 143.08C217.131 142.74 216.784 142.57 216.364 142.57C216.004 142.57 215.674 142.72 215.374 143.02C215.074 143.32 214.924 143.79 214.924 144.43C214.924 145.103 215.067 145.593 215.354 145.9C215.647 146.207 216.001 146.36 216.414 146.36ZM214.924 139.93V142.69C215.291 142.13 215.804 141.85 216.464 141.85C217.104 141.85 217.627 142.097 218.034 142.59C218.441 143.077 218.644 143.717 218.644 144.51C218.644 145.223 218.451 145.83 218.064 146.33C217.684 146.83 217.157 147.08 216.484 147.08C215.804 147.08 215.284 146.803 214.924 146.25V147H214.134V139.93H214.924ZM223.037 144.14V143.94C223.037 143.52 222.924 143.187 222.697 142.94C222.47 142.687 222.157 142.56 221.757 142.56C221.377 142.56 221.054 142.697 220.787 142.97C220.52 143.243 220.364 143.633 220.317 144.14H223.037ZM223.507 146V146.74C223.114 146.947 222.634 147.05 222.067 147.05C221.3 147.05 220.68 146.817 220.207 146.35C219.74 145.877 219.507 145.253 219.507 144.48C219.507 143.673 219.717 143.037 220.137 142.57C220.557 142.103 221.097 141.87 221.757 141.87C222.39 141.87 222.894 142.073 223.267 142.48C223.64 142.887 223.827 143.463 223.827 144.21C223.827 144.423 223.81 144.62 223.777 144.8H220.317C220.377 145.3 220.567 145.683 220.887 145.95C221.207 146.217 221.627 146.35 222.147 146.35C222.714 146.35 223.167 146.233 223.507 146ZM227.792 142.1V142.85C227.485 142.663 227.065 142.57 226.532 142.57C226.265 142.57 226.052 142.633 225.892 142.76C225.738 142.88 225.662 143.037 225.662 143.23C225.662 143.35 225.685 143.457 225.732 143.55C225.778 143.637 225.868 143.723 226.002 143.81C226.142 143.897 226.242 143.957 226.302 143.99C226.368 144.017 226.508 144.077 226.722 144.17C227.148 144.343 227.482 144.54 227.722 144.76C227.962 144.98 228.082 145.277 228.082 145.65C228.082 146.083 227.928 146.427 227.622 146.68C227.322 146.933 226.908 147.06 226.382 147.06C225.768 147.06 225.272 146.957 224.892 146.75V145.98C225.338 146.247 225.818 146.38 226.332 146.38C226.638 146.38 226.872 146.32 227.032 146.2C227.192 146.08 227.272 145.917 227.272 145.71C227.272 145.47 227.182 145.283 227.002 145.15C226.828 145.017 226.535 144.867 226.122 144.7C225.742 144.553 225.435 144.37 225.202 144.15C224.975 143.93 224.862 143.633 224.862 143.26C224.862 142.84 225.018 142.507 225.332 142.26C225.652 142.007 226.048 141.88 226.522 141.88C227.048 141.88 227.472 141.953 227.792 142.1ZM231.883 144.66H231.003C230.576 144.66 230.256 144.743 230.043 144.91C229.83 145.077 229.723 145.287 229.723 145.54C229.723 145.793 229.806 146 229.973 146.16C230.14 146.313 230.383 146.39 230.703 146.39C231.063 146.39 231.35 146.29 231.563 146.09C231.776 145.883 231.883 145.623 231.883 145.31V144.66ZM229.263 142.99V142.2C229.643 141.967 230.143 141.85 230.763 141.85C232.036 141.85 232.673 142.497 232.673 143.79V147H231.893V146.4C231.633 146.833 231.16 147.05 230.473 147.05C230 147.05 229.616 146.91 229.323 146.63C229.036 146.35 228.893 145.997 228.893 145.57C228.893 145.083 229.076 144.707 229.443 144.44C229.816 144.167 230.323 144.03 230.963 144.03H231.883V143.77C231.883 143.37 231.793 143.07 231.613 142.87C231.433 142.663 231.13 142.56 230.703 142.56C230.163 142.56 229.683 142.703 229.263 142.99ZM234.855 141.93V142.82C235.121 142.193 235.581 141.88 236.235 141.88C236.355 141.88 236.448 141.887 236.515 141.9V142.68C236.375 142.633 236.231 142.61 236.085 142.61C235.731 142.61 235.438 142.773 235.205 143.1C234.971 143.427 234.855 143.803 234.855 144.23V147H234.065L234.075 141.93H234.855Z" fill="#2B2B2B"/>
<path d="M116.955 157.3V159.5H117.795C118.182 159.5 118.472 159.403 118.665 159.21C118.858 159.01 118.955 158.733 118.955 158.38C118.955 158.033 118.852 157.767 118.645 157.58C118.445 157.393 118.155 157.3 117.775 157.3H116.955ZM119.175 163L117.645 160.54H116.955V163H115.695V156.26H117.775C118.542 156.26 119.142 156.453 119.575 156.84C120.015 157.227 120.235 157.743 120.235 158.39C120.228 158.87 120.112 159.277 119.885 159.61C119.658 159.937 119.348 160.18 118.955 160.34L120.685 163H119.175ZM123.994 162.04C124.354 162.04 124.647 161.903 124.874 161.63C125.1 161.35 125.214 160.96 125.214 160.46C125.214 159.96 125.1 159.573 124.874 159.3C124.647 159.02 124.36 158.88 124.014 158.88C123.667 158.88 123.367 159.01 123.114 159.27C122.86 159.53 122.734 159.917 122.734 160.43C122.734 160.943 122.857 161.34 123.104 161.62C123.35 161.9 123.647 162.04 123.994 162.04ZM122.734 157.93V158.71C123.094 158.143 123.61 157.86 124.284 157.86C124.944 157.86 125.467 158.097 125.854 158.57C126.247 159.043 126.444 159.667 126.444 160.44C126.444 161.2 126.247 161.83 125.854 162.33C125.467 162.823 124.94 163.07 124.274 163.07C123.594 163.07 123.08 162.793 122.734 162.24V164.91H121.534V157.93H122.734ZM131.292 161.97H133.902V163H129.632V162.04C130.412 161.487 131.085 160.897 131.652 160.27C132.218 159.637 132.502 159.067 132.502 158.56C132.502 158.227 132.405 157.967 132.212 157.78C132.018 157.593 131.738 157.5 131.372 157.5C130.818 157.5 130.288 157.707 129.782 158.12V156.95C130.002 156.783 130.275 156.647 130.602 156.54C130.928 156.433 131.255 156.38 131.582 156.38C132.222 156.38 132.742 156.557 133.142 156.91C133.548 157.257 133.752 157.747 133.752 158.38C133.752 159.567 132.932 160.763 131.292 161.97ZM134.662 159.7C134.662 158.667 134.866 157.85 135.272 157.25C135.679 156.643 136.256 156.34 137.002 156.34C137.756 156.34 138.336 156.643 138.742 157.25C139.156 157.85 139.362 158.667 139.362 159.7C139.362 160.727 139.159 161.547 138.752 162.16C138.352 162.773 137.769 163.08 137.002 163.08C136.256 163.08 135.679 162.773 135.272 162.16C134.866 161.547 134.662 160.727 134.662 159.7ZM136.192 158.02C135.992 158.407 135.892 158.967 135.892 159.7C135.892 160.433 135.989 161 136.182 161.4C136.382 161.793 136.656 161.99 137.002 161.99C137.362 161.99 137.639 161.793 137.832 161.4C138.032 161.007 138.132 160.44 138.132 159.7C138.132 158.96 138.029 158.397 137.822 158.01C137.622 157.623 137.349 157.43 137.002 157.43C136.662 157.43 136.392 157.627 136.192 158.02ZM140.121 159.7C140.121 158.667 140.325 157.85 140.731 157.25C141.138 156.643 141.715 156.34 142.461 156.34C143.215 156.34 143.795 156.643 144.201 157.25C144.615 157.85 144.821 158.667 144.821 159.7C144.821 160.727 144.618 161.547 144.211 162.16C143.811 162.773 143.228 163.08 142.461 163.08C141.715 163.08 141.138 162.773 140.731 162.16C140.325 161.547 140.121 160.727 140.121 159.7ZM141.651 158.02C141.451 158.407 141.351 158.967 141.351 159.7C141.351 160.433 141.448 161 141.641 161.4C141.841 161.793 142.115 161.99 142.461 161.99C142.821 161.99 143.098 161.793 143.291 161.4C143.491 161.007 143.591 160.44 143.591 159.7C143.591 158.96 143.488 158.397 143.281 158.01C143.081 157.623 142.808 157.43 142.461 157.43C142.121 157.43 141.851 157.627 141.651 158.02ZM145.77 162.85C145.617 162.697 145.54 162.513 145.54 162.3C145.54 162.087 145.617 161.907 145.77 161.76C145.924 161.607 146.107 161.53 146.32 161.53C146.534 161.53 146.714 161.607 146.86 161.76C147.014 161.907 147.09 162.087 147.09 162.3C147.09 162.513 147.014 162.697 146.86 162.85C146.714 163.003 146.534 163.08 146.32 163.08C146.107 163.08 145.924 163.003 145.77 162.85ZM147.807 159.7C147.807 158.667 148.01 157.85 148.417 157.25C148.823 156.643 149.4 156.34 150.147 156.34C150.9 156.34 151.48 156.643 151.887 157.25C152.3 157.85 152.507 158.667 152.507 159.7C152.507 160.727 152.303 161.547 151.897 162.16C151.497 162.773 150.913 163.08 150.147 163.08C149.4 163.08 148.823 162.773 148.417 162.16C148.01 161.547 147.807 160.727 147.807 159.7ZM149.337 158.02C149.137 158.407 149.037 158.967 149.037 159.7C149.037 160.433 149.133 161 149.327 161.4C149.527 161.793 149.8 161.99 150.147 161.99C150.507 161.99 150.783 161.793 150.977 161.4C151.177 161.007 151.277 160.44 151.277 159.7C151.277 158.96 151.173 158.397 150.967 158.01C150.767 157.623 150.493 157.43 150.147 157.43C149.807 157.43 149.537 157.627 149.337 158.02ZM153.266 159.7C153.266 158.667 153.469 157.85 153.876 157.25C154.282 156.643 154.859 156.34 155.606 156.34C156.359 156.34 156.939 156.643 157.346 157.25C157.759 157.85 157.966 158.667 157.966 159.7C157.966 160.727 157.762 161.547 157.356 162.16C156.956 162.773 156.372 163.08 155.606 163.08C154.859 163.08 154.282 162.773 153.876 162.16C153.469 161.547 153.266 160.727 153.266 159.7ZM154.796 158.02C154.596 158.407 154.496 158.967 154.496 159.7C154.496 160.433 154.592 161 154.786 161.4C154.986 161.793 155.259 161.99 155.606 161.99C155.966 161.99 156.242 161.793 156.436 161.4C156.636 161.007 156.736 160.44 156.736 159.7C156.736 158.96 156.632 158.397 156.426 158.01C156.226 157.623 155.952 157.43 155.606 157.43C155.266 157.43 154.996 157.627 154.796 158.02ZM158.725 159.7C158.725 158.667 158.928 157.85 159.335 157.25C159.741 156.643 160.318 156.34 161.065 156.34C161.818 156.34 162.398 156.643 162.805 157.25C163.218 157.85 163.425 158.667 163.425 159.7C163.425 160.727 163.221 161.547 162.815 162.16C162.415 162.773 161.831 163.08 161.065 163.08C160.318 163.08 159.741 162.773 159.335 162.16C158.928 161.547 158.725 160.727 158.725 159.7ZM160.255 158.02C160.055 158.407 159.955 158.967 159.955 159.7C159.955 160.433 160.051 161 160.245 161.4C160.445 161.793 160.718 161.99 161.065 161.99C161.425 161.99 161.701 161.793 161.895 161.4C162.095 161.007 162.195 160.44 162.195 159.7C162.195 158.96 162.091 158.397 161.885 158.01C161.685 157.623 161.411 157.43 161.065 157.43C160.725 157.43 160.455 157.627 160.255 158.02ZM163.734 164.26L164.714 161.79H166.104L164.774 164.26H163.734ZM166.979 160.86V159.85H169.519V160.86H166.979Z" fill="#DA011C"/>
<g filter="url(#filter1_d_1124_4113)">
<rect x="82.5" y="180" width="120" height="24" rx="8" fill="#FF1934" shape-rendering="crispEdges"/>
<path d="M137.442 191.288C137.442 190.451 137.671 189.779 138.13 189.272C138.594 188.765 139.212 188.512 139.986 188.512C140.77 188.512 141.391 188.765 141.85 189.272C142.308 189.773 142.538 190.445 142.538 191.288C142.538 192.12 142.306 192.789 141.842 193.296C141.383 193.803 140.767 194.056 139.994 194.056C139.22 194.056 138.602 193.803 138.138 193.296C137.674 192.789 137.442 192.12 137.442 191.288ZM138.522 191.288C138.522 191.853 138.655 192.301 138.922 192.632C139.188 192.963 139.546 193.128 139.994 193.128C140.447 193.128 140.804 192.965 141.066 192.64C141.327 192.309 141.458 191.859 141.458 191.288C141.458 190.717 141.327 190.267 141.066 189.936C140.804 189.605 140.444 189.44 139.986 189.44C139.532 189.44 139.175 189.605 138.914 189.936C138.652 190.267 138.522 190.717 138.522 191.288ZM143.439 194L143.439 188.608L144.447 188.608L144.447 194L143.439 194ZM145.727 191.312L147.735 194L146.463 194L144.527 191.328L146.391 188.608L147.599 188.608L145.727 191.312Z" fill="white"/>
</g>
<defs>
<filter id="filter0_d_1124_4113" x="-4" y="-2" width="293" height="56" filterUnits="userSpaceOnUse" color-interpolation-filters="sRGB">
<feFlood flood-opacity="0" result="BackgroundImageFix"/>
<feColorMatrix in="SourceAlpha" type="matrix" values="0 0 0 0 0 0 0 0 0 0 0 0 0 0 0 0 0 0 127 0" result="hardAlpha"/>
<feOffset dy="2"/>
<feGaussianBlur stdDeviation="2"/>
<feComposite in2="hardAlpha" operator="out"/>
<feColorMatrix type="matrix" values="0 0 0 0 0.168627 0 0 0 0 0.168627 0 0 0 0 0.168627 0 0 0 0.24 0"/>
<feBlend mode="normal" in2="BackgroundImageFix" result="effect1_dropShadow_1124_4113"/>
<feBlend mode="normal" in="SourceGraphic" in2="effect1_dropShadow_1124_4113" result="shape"/>
</filter>
<filter id="filter1_d_1124_4113" x="76.5" y="174" width="136" height="40" filterUnits="userSpaceOnUse" color-interpolation-filters="sRGB">
<feFlood flood-opacity="0" result="BackgroundImageFix"/>
<feColorMatrix in="SourceAlpha" type="matrix" values="0 0 0 0 0 0 0 0 0 0 0 0 0 0 0 0 0 0 127 0" result="hardAlpha"/>
<feOffset dx="2" dy="2"/>
<feGaussianBlur stdDeviation="4"/>
<feComposite in2="hardAlpha" operator="out"/>
<feColorMatrix type="matrix" values="0 0 0 0 0 0 0 0 0 0 0 0 0 0 0 0 0 0 0.12 0"/>
<feBlend mode="normal" in2="BackgroundImageFix" result="effect1_dropShadow_1124_4113"/>
<feBlend mode="normal" in="SourceGraphic" in2="effect1_dropShadow_1124_4113" result="shape"/>
</filter>
<clipPath id="clip0_1124_4113">
<rect width="24" height="24" fill="white" transform="translate(16 16)"/>
</clipPath>
<clipPath id="clip1_1124_4113">
<rect width="64" height="64" fill="white" transform="translate(110.5 72)"/>
</clipPath>
</defs>
</svg>
