<svg width="301" height="236" viewBox="0 0 301 236" fill="none" xmlns="http://www.w3.org/2000/svg">
<rect width="301" height="236" fill="#D3D3D3"/>
<rect width="301" height="236" rx="16" fill="white"/>
<g filter="url(#filter0_d_1124_4113)">
<path d="M0 16C0 7.16344 7.16344 0 16 0H285C293.837 0 301 7.16344 301 16V48H0V16Z" fill="#FF1934" shape-rendering="crispEdges"/>
<g clip-path="url(#clip0_1124_4113)">
<path d="M34.87 19.21C32.57 18.85 30.26 18.95 27.99 19.51C25.73 20.12 23.3 20.22 20.99 19.8C20.51 19.71 20.01 19.84 19.63 20.16C19.24 20.49 19.01 20.97 19.01 21.48V28.09C19.01 29.38 19.96 30.47 21.24 30.66C22.11 30.79 22.99 30.86 23.86 30.86C25.39 30.86 26.91 30.66 28.39 30.26C30.58 29.73 32.81 29.66 35.04 30.06C35.53 30.15 36.02 30.01 36.4 29.7C36.79 29.38 37.01 28.9 37.01 28.4V21.77C37.01 20.52 36.12 19.41 34.88 19.22L34.87 19.21ZM35.4 21.76V22.44C34.55 22.18 33.88 21.53 33.59 20.69C33.92 20.72 34.26 20.74 34.59 20.79C35.06 20.86 35.4 21.29 35.4 21.77V21.76ZM20.7 21.37C21.11 21.44 21.53 21.48 21.95 21.53C21.6 21.97 21.14 22.29 20.6 22.45V21.48C20.6 21.43 20.63 21.4 20.7 21.37ZM20.6 28.09V27.42C21.45 27.68 22.12 28.33 22.4 29.17C22.08 29.14 21.77 29.12 21.45 29.08C20.96 29.01 20.6 28.59 20.6 28.1V28.09ZM27.99 28.7C26.91 28.99 25.81 29.15 24.71 29.21C24.37 29.23 24.04 29.02 23.93 28.69C23.49 27.36 22.44 26.32 21.11 25.89C20.79 25.79 20.6 25.47 20.6 25.14V24.7C20.6 24.36 20.81 24.05 21.13 23.95C22.14 23.63 22.99 22.95 23.54 22.04C23.69 21.79 23.94 21.62 24.23 21.62C25.64 21.59 27.04 21.42 28.38 21.05C29.33 20.82 30.3 20.68 31.27 20.63C31.61 20.61 31.94 20.82 32.05 21.14C32.49 22.47 33.55 23.52 34.88 23.94C35.2 24.04 35.4 24.36 35.4 24.69V25.13C35.4 25.47 35.19 25.78 34.87 25.88C33.86 26.2 33.01 26.87 32.46 27.79C32.31 28.04 32.06 28.2 31.77 28.21C30.5 28.23 29.24 28.39 27.99 28.69V28.7ZM35.32 28.48C34.9 28.4 34.47 28.36 34.05 28.32C34.4 27.89 34.87 27.57 35.4 27.41V28.39L35.32 28.48Z" fill="white"/>
<path d="M27.9 21.8999C26.18 22.1199 24.97 23.3599 24.97 24.9199C24.97 25.8199 25.36 26.7099 26.02 27.2899C26.52 27.7299 27.13 27.9599 27.76 27.9599C27.87 27.9599 27.98 27.9599 28.09 27.9399C29.81 27.7199 31.02 26.4799 31.02 24.9199C31.02 24.0199 30.63 23.1299 29.97 22.5499C29.38 22.0299 28.64 21.7999 27.9 21.8999ZM27.9 26.3599C27.52 26.4099 27.25 26.2399 27.08 26.0899C26.76 25.8099 26.57 25.3699 26.57 24.9199C26.57 24.0699 27.36 23.5799 28.1 23.4899C28.14 23.4899 28.19 23.4899 28.23 23.4899C28.54 23.4899 28.77 23.6299 28.92 23.7699C29.24 24.0499 29.43 24.4899 29.43 24.9399C29.43 25.7899 28.64 26.2799 27.9 26.3699V26.3599Z" fill="white"/>
<path d="M35.32 31.0699C32.87 30.6299 30.41 30.6999 27.99 31.2899C25.85 31.8699 23.65 31.9899 21.44 31.6599C21.01 31.5999 20.6 31.8899 20.53 32.3299C20.46 32.7699 20.76 33.1699 21.2 33.2399C22.09 33.3699 22.97 33.4399 23.85 33.4399C25.38 33.4399 26.9 33.2399 28.38 32.8399C30.57 32.3099 32.8 32.2399 35.03 32.6399C35.47 32.7199 35.88 32.4299 35.96 31.9999C36.04 31.5599 35.75 31.1499 35.32 31.0699Z" fill="white"/>
<path d="M34.62 33.52C32.4 33.21 30.17 33.32 27.99 33.85C26.16 34.34 24.28 34.5 22.39 34.33C21.95 34.29 21.56 34.62 21.52 35.05C21.48 35.49 21.8 35.88 22.24 35.92C22.78 35.97 23.31 35.99 23.85 35.99C25.39 35.99 26.91 35.79 28.39 35.39C30.36 34.91 32.39 34.81 34.4 35.09C34.84 35.16 35.24 34.85 35.3 34.41C35.36 33.97 35.06 33.57 34.62 33.51V33.52Z" fill="white"/>
</g>
<path d="M55.196 22.564V24.3H52.9V32H50.73V24.3H48.42V22.564H55.196ZM59.9692 29.088H59.3112C58.9659 29.088 58.6999 29.1627 58.5132 29.312C58.3266 29.4613 58.2332 29.6527 58.2332 29.886C58.2332 30.362 58.5086 30.6 59.0592 30.6C59.3486 30.6 59.5726 30.5113 59.7312 30.334C59.8899 30.1567 59.9692 29.914 59.9692 29.606V29.088ZM56.6512 27.086V25.252C57.2112 24.9347 58.0186 24.776 59.0732 24.776C60.0812 24.776 60.8326 24.9953 61.3272 25.434C61.8219 25.8633 62.0692 26.5353 62.0692 27.45V32H60.0672V31.132C59.7686 31.7387 59.1806 32.042 58.3032 32.042C57.6126 32.042 57.0712 31.846 56.6792 31.454C56.2966 31.062 56.1052 30.572 56.1052 29.984C56.1052 29.3027 56.3526 28.7753 56.8472 28.402C57.3512 28.0193 58.0932 27.828 59.0732 27.828H59.9692V27.338C59.9692 26.7407 59.5726 26.442 58.7792 26.442C58.0139 26.442 57.3046 26.6567 56.6512 27.086ZM67.286 30.376C67.7153 30.376 68.0793 30.2033 68.378 29.858C68.6767 29.5033 68.826 29.0413 68.826 28.472C68.826 27.856 68.6767 27.3753 68.378 27.03C68.0887 26.6847 67.7293 26.512 67.3 26.512C66.8707 26.512 66.4973 26.6753 66.18 27.002C65.872 27.3287 65.718 27.786 65.718 28.374C65.718 28.9807 65.8627 29.466 66.152 29.83C66.4413 30.194 66.8193 30.376 67.286 30.376ZM65.718 22.102V25.994C66.2033 25.21 66.908 24.818 67.832 24.818C68.7187 24.818 69.4513 25.14 70.03 25.784C70.6087 26.428 70.898 27.31 70.898 28.43C70.898 29.4287 70.618 30.2873 70.058 31.006C69.5073 31.7247 68.77 32.084 67.846 32.084C66.9033 32.084 66.194 31.6873 65.718 30.894V32H63.674V22.102H65.718ZM76.6286 24.902H78.6726V32H76.6286V30.866C76.2552 31.6593 75.5366 32.056 74.4726 32.056C73.7446 32.056 73.1752 31.8553 72.7646 31.454C72.3632 31.0433 72.1626 30.4413 72.1626 29.648V24.902H74.2066V29.186C74.2066 30.0167 74.5706 30.432 75.2986 30.432C76.1852 30.432 76.6286 29.8393 76.6286 28.654V24.902ZM82.3977 24.902V26.106C82.575 25.714 82.8457 25.406 83.2097 25.182C83.583 24.9487 84.0263 24.832 84.5397 24.832C85.2677 24.832 85.837 25.0513 86.2477 25.49C86.6583 25.9193 86.8637 26.554 86.8637 27.394V32H84.8197V27.772C84.8197 27.352 84.7217 27.0347 84.5257 26.82C84.3297 26.596 84.0543 26.484 83.6997 26.484C83.3263 26.484 83.0137 26.6333 82.7617 26.932C82.519 27.2213 82.3977 27.66 82.3977 28.248V32H80.3537V24.902H82.3977ZM91.6248 30.138C92.0634 30.138 92.4041 29.9747 92.6468 29.648C92.8988 29.312 93.0248 28.9107 93.0248 28.444C93.0248 27.1747 92.5628 26.54 91.6388 26.54C91.2281 26.54 90.9061 26.6987 90.6728 27.016C90.4394 27.3333 90.3228 27.772 90.3228 28.332C90.3228 28.92 90.4348 29.368 90.6588 29.676C90.8828 29.984 91.2048 30.138 91.6248 30.138ZM93.0248 24.902H95.0548V31.314C95.0548 32.4527 94.7141 33.3067 94.0328 33.876C93.3514 34.4547 92.4974 34.744 91.4708 34.744C90.4721 34.744 89.5994 34.5667 88.8528 34.212V32.126C89.5061 32.6487 90.3088 32.91 91.2608 32.91C91.8768 32.91 92.3248 32.7793 92.6048 32.518C92.8848 32.2567 93.0248 31.846 93.0248 31.286V30.81C92.6141 31.4447 91.9608 31.762 91.0648 31.762C90.2808 31.762 89.6041 31.4727 89.0348 30.894C88.4748 30.3153 88.1948 29.4567 88.1948 28.318C88.1948 27.31 88.4654 26.4793 89.0068 25.826C89.5574 25.1633 90.2761 24.832 91.1628 24.832C92.0028 24.832 92.6234 25.168 93.0248 25.84V24.902ZM100.178 29.088H99.5202C99.1749 29.088 98.9089 29.1627 98.7222 29.312C98.5356 29.4613 98.4422 29.6527 98.4422 29.886C98.4422 30.362 98.7176 30.6 99.2682 30.6C99.5576 30.6 99.7816 30.5113 99.9402 30.334C100.099 30.1567 100.178 29.914 100.178 29.606V29.088ZM96.8602 27.086V25.252C97.4202 24.9347 98.2276 24.776 99.2822 24.776C100.29 24.776 101.042 24.9953 101.536 25.434C102.031 25.8633 102.278 26.5353 102.278 27.45V32H100.276V31.132C99.9776 31.7387 99.3896 32.042 98.5122 32.042C97.8216 32.042 97.2802 31.846 96.8882 31.454C96.5056 31.062 96.3142 30.572 96.3142 29.984C96.3142 29.3027 96.5616 28.7753 97.0562 28.402C97.5602 28.0193 98.3022 27.828 99.2822 27.828H100.178V27.338C100.178 26.7407 99.7816 26.442 98.9882 26.442C98.2229 26.442 97.5136 26.6567 96.8602 27.086ZM105.927 24.902V26.106C106.104 25.714 106.375 25.406 106.739 25.182C107.112 24.9487 107.556 24.832 108.069 24.832C108.797 24.832 109.366 25.0513 109.777 25.49C110.188 25.9193 110.393 26.554 110.393 27.394V32H108.349V27.772C108.349 27.352 108.251 27.0347 108.055 26.82C107.859 26.596 107.584 26.484 107.229 26.484C106.856 26.484 106.543 26.6333 106.291 26.932C106.048 27.2213 105.927 27.66 105.927 28.248V32H103.883V24.902H105.927Z" fill="white"/>
</g>
<g clip-path="url(#clip1_1124_4113)">
<path d="M169.584 111.188L159.274 84.6508C158.57 82.8364 157.003 81.5775 155.081 81.2806C153.158 80.9836 151.285 81.7119 150.069 83.2281L132.234 105.427C131.018 106.943 130.712 108.93 131.417 110.742C132.121 112.555 133.69 113.814 135.61 114.11C136.576 114.259 137.481 113.596 137.63 112.63C137.779 111.665 137.116 110.76 136.151 110.61C135.185 110.461 134.834 109.758 134.718 109.46C134.602 109.162 134.398 108.389 134.996 107.643L152.83 85.4444C153.429 84.6988 154.227 84.7302 154.54 84.7788C154.854 84.8275 155.625 85.038 155.972 85.9315L166.282 112.469C166.629 113.362 166.202 114.038 166.001 114.287C165.801 114.536 165.235 115.099 164.289 114.953L142.713 111.624C141.747 111.474 140.842 112.138 140.693 113.103C140.544 114.069 141.207 114.974 142.172 115.123L163.749 118.452C165.669 118.749 167.545 118.021 168.762 116.506C169.98 114.99 170.287 113.003 169.583 111.188H169.584Z" fill="#FF1934"/>
<path d="M149.779 107.36C149.402 107.638 149.159 108.047 149.088 108.507C149.051 108.748 149.06 108.975 149.114 109.206C149.168 109.438 149.271 109.633 149.398 109.832C149.546 110.034 149.726 110.174 149.909 110.292C150.115 110.413 150.326 110.492 150.568 110.529C151.027 110.6 151.492 110.493 151.87 110.214C152.27 109.941 152.513 109.53 152.588 109.047C152.662 108.564 152.529 108.122 152.272 107.745C151.717 106.988 150.536 106.806 149.779 107.361V107.36Z" fill="#FF1934"/>
<path d="M155.368 92.4275C155.243 91.479 154.616 90.5587 153.671 90.4134C152.726 90.2675 151.851 90.9561 151.446 91.8227C149.847 95.2409 150.542 99.3376 149.865 103.724C149.719 104.669 150.368 105.554 151.313 105.7C152.258 105.846 153.143 105.197 153.288 104.252C153.966 99.8656 155.863 96.1689 155.368 92.4275Z" fill="#FF1934"/>
<path d="M167.192 124.924L155.336 120.744C154.526 120.458 153.059 120.252 151.409 120.19C149.759 120.129 148.273 120.226 147.435 120.45L135.136 123.732C134.297 123.956 134.279 124.261 135.089 124.547C135.9 124.832 137.368 125.039 139.016 125.1C139.845 125.131 140.525 125.036 140.534 124.888C140.543 124.74 139.877 124.595 139.048 124.564C138.236 124.534 137.84 124.422 137.706 124.375C137.573 124.328 137.308 124.207 137.721 124.097L150.021 120.814C150.433 120.704 151.107 120.715 151.377 120.725C151.647 120.735 152.318 120.774 152.718 120.915L164.574 125.094C164.974 125.235 164.696 125.336 164.558 125.373C164.419 125.41 164.012 125.492 163.2 125.462L144.681 124.773C143.852 124.742 143.173 124.837 143.164 124.985C143.155 125.133 143.821 125.278 144.65 125.309L163.169 125.997C164.817 126.059 166.304 125.962 167.144 125.738C167.984 125.514 168.002 125.209 167.192 124.924V124.924Z" fill="#CCCCCC"/>
<path d="M150.101 124.173C149.817 124.212 149.663 124.274 149.658 124.344C149.656 124.381 149.691 124.417 149.764 124.452C149.837 124.488 149.948 124.52 150.078 124.551C150.226 124.584 150.394 124.607 150.562 124.626C150.75 124.646 150.936 124.66 151.144 124.668C151.538 124.683 151.916 124.67 152.199 124.63C152.503 124.591 152.657 124.529 152.661 124.456C152.665 124.382 152.501 124.312 152.24 124.252C151.683 124.131 150.668 124.093 150.1 124.173H150.101Z" fill="#CCCCCC"/>
<path d="M152.994 121.913C152.775 121.766 152.138 121.619 151.326 121.588C150.515 121.558 149.863 121.658 149.627 121.788C148.696 122.303 149.774 122.941 149.734 123.613C149.726 123.757 150.376 123.899 151.187 123.93C151.999 123.96 152.663 123.867 152.672 123.722C152.712 123.051 153.859 122.495 152.993 121.914L152.994 121.913Z" fill="#CCCCCC"/>
</g>
<path d="M24.468 140.51V141.36C24.0613 141.093 23.5746 140.96 23.008 140.96C22.6013 140.96 22.278 141.057 22.038 141.25C21.798 141.437 21.678 141.683 21.678 141.99C21.678 142.15 21.708 142.293 21.768 142.42C21.8346 142.547 21.948 142.667 22.108 142.78C22.268 142.887 22.4046 142.97 22.518 143.03C22.6313 143.083 22.808 143.163 23.048 143.27C23.2746 143.37 23.448 143.45 23.568 143.51C23.688 143.563 23.8413 143.653 24.028 143.78C24.2213 143.9 24.3646 144.02 24.458 144.14C24.558 144.253 24.6446 144.407 24.718 144.6C24.798 144.787 24.838 144.99 24.838 145.21C24.838 145.803 24.6346 146.263 24.228 146.59C23.8213 146.91 23.298 147.07 22.658 147.07C21.9513 147.07 21.3513 146.927 20.858 146.64V145.77C21.3446 146.137 21.938 146.32 22.638 146.32C23.058 146.32 23.388 146.227 23.628 146.04C23.868 145.853 23.988 145.583 23.988 145.23C23.988 145.083 23.958 144.953 23.898 144.84C23.8446 144.72 23.7513 144.613 23.618 144.52C23.4913 144.42 23.368 144.34 23.248 144.28C23.1346 144.213 22.978 144.133 22.778 144.04C22.738 144.02 22.678 143.993 22.598 143.96C22.3113 143.833 22.0913 143.73 21.938 143.65C21.7913 143.57 21.6146 143.453 21.408 143.3C21.208 143.14 21.0613 142.957 20.968 142.75C20.8746 142.543 20.828 142.303 20.828 142.03C20.828 141.457 21.0313 141.01 21.438 140.69C21.8513 140.363 22.368 140.2 22.988 140.2C23.568 140.2 24.0613 140.303 24.468 140.51ZM28.8721 144.66H27.9921C27.5654 144.66 27.2454 144.743 27.0321 144.91C26.8188 145.077 26.7121 145.287 26.7121 145.54C26.7121 145.793 26.7954 146 26.9621 146.16C27.1288 146.313 27.3721 146.39 27.6921 146.39C28.0521 146.39 28.3388 146.29 28.5521 146.09C28.7654 145.883 28.8721 145.623 28.8721 145.31V144.66ZM26.2521 142.99V142.2C26.6321 141.967 27.1321 141.85 27.7521 141.85C29.0254 141.85 29.6621 142.497 29.6621 143.79V147H28.8821V146.4C28.6221 146.833 28.1488 147.05 27.4621 147.05C26.9888 147.05 26.6054 146.91 26.3121 146.63C26.0254 146.35 25.8821 145.997 25.8821 145.57C25.8821 145.083 26.0654 144.707 26.4321 144.44C26.8054 144.167 27.3121 144.03 27.9521 144.03H28.8721V143.77C28.8721 143.37 28.7821 143.07 28.6021 142.87C28.4221 142.663 28.1188 142.56 27.6921 142.56C27.1521 142.56 26.6721 142.703 26.2521 142.99ZM31.104 147V139.93H31.894V147H31.104ZM35.328 146.36C35.7413 146.36 36.0913 146.207 36.378 145.9C36.6713 145.593 36.818 145.103 36.818 144.43C36.818 143.79 36.668 143.32 36.368 143.02C36.068 142.72 35.738 142.57 35.378 142.57C34.958 142.57 34.608 142.74 34.328 143.08C34.0546 143.413 33.918 143.893 33.918 144.52C33.918 145.067 34.0513 145.51 34.318 145.85C34.5846 146.19 34.9213 146.36 35.328 146.36ZM36.818 139.93H37.608V147H36.818V146.25C36.458 146.803 35.938 147.08 35.258 147.08C34.5846 147.08 34.0546 146.83 33.668 146.33C33.288 145.83 33.098 145.223 33.098 144.51C33.098 143.717 33.3013 143.077 33.708 142.59C34.1146 142.097 34.638 141.85 35.278 141.85C35.938 141.85 36.4513 142.133 36.818 142.7V139.93ZM41.1318 147.09C40.4051 147.09 39.8285 146.847 39.4018 146.36C38.9818 145.867 38.7718 145.247 38.7718 144.5C38.7718 143.747 38.9885 143.12 39.4218 142.62C39.8618 142.113 40.4318 141.86 41.1318 141.86C41.8985 141.86 42.4885 142.107 42.9018 142.6C43.3218 143.093 43.5318 143.72 43.5318 144.48C43.5318 145.233 43.3185 145.857 42.8918 146.35C42.4651 146.843 41.8785 147.09 41.1318 147.09ZM41.1318 142.56C40.6518 142.56 40.2751 142.747 40.0018 143.12C39.7285 143.493 39.5918 143.95 39.5918 144.49C39.5918 145.017 39.7318 145.467 40.0118 145.84C40.2918 146.207 40.6651 146.39 41.1318 146.39C41.6385 146.39 42.0285 146.21 42.3018 145.85C42.5751 145.483 42.7118 145.03 42.7118 144.49C42.7118 143.93 42.5818 143.47 42.3218 143.11C42.0618 142.743 41.6651 142.56 41.1318 142.56ZM48.4484 144.54H50.8384L50.7084 144.15L49.6584 140.91C49.5784 141.197 49.2184 142.28 48.5784 144.16L48.4484 144.54ZM51.6584 147L51.0684 145.23H48.2184L47.6184 147H46.7484L49.0984 140.26H50.2184L52.5284 147H51.6584ZM54.3928 141.93V142.81C54.6928 142.177 55.2261 141.86 55.9928 141.86C56.4861 141.86 56.8795 142.01 57.1728 142.31C57.4661 142.61 57.6128 143.01 57.6128 143.51V147H56.8228V143.72C56.8228 143.347 56.7261 143.063 56.5328 142.87C56.3461 142.67 56.0995 142.57 55.7928 142.57C55.4128 142.57 55.0828 142.717 54.8028 143.01C54.5295 143.303 54.3928 143.71 54.3928 144.23V147H53.6128V141.93H54.3928ZM60.9432 146.36C61.3565 146.36 61.7065 146.207 61.9932 145.9C62.2865 145.593 62.4332 145.103 62.4332 144.43C62.4332 143.79 62.2832 143.32 61.9832 143.02C61.6832 142.72 61.3532 142.57 60.9932 142.57C60.5732 142.57 60.2232 142.74 59.9432 143.08C59.6699 143.413 59.5332 143.893 59.5332 144.52C59.5332 145.067 59.6665 145.51 59.9332 145.85C60.1999 146.19 60.5365 146.36 60.9432 146.36ZM62.4332 139.93H63.2232V147H62.4332V146.25C62.0732 146.803 61.5532 147.08 60.8732 147.08C60.1999 147.08 59.6699 146.83 59.2832 146.33C58.9032 145.83 58.7132 145.223 58.7132 144.51C58.7132 143.717 58.9165 143.077 59.3232 142.59C59.7299 142.097 60.2532 141.85 60.8932 141.85C61.5532 141.85 62.0665 142.133 62.4332 142.7V139.93ZM67.417 144.66H66.537C66.1104 144.66 65.7904 144.743 65.577 144.91C65.3637 145.077 65.257 145.287 65.257 145.54C65.257 145.793 65.3404 146 65.507 146.16C65.6737 146.313 65.917 146.39 66.237 146.39C66.597 146.39 66.8837 146.29 67.097 146.09C67.3104 145.883 67.417 145.623 67.417 145.31V144.66ZM64.797 142.99V142.2C65.177 141.967 65.677 141.85 66.297 141.85C67.5704 141.85 68.207 142.497 68.207 143.79V147H67.427V146.4C67.167 146.833 66.6937 147.05 66.007 147.05C65.5337 147.05 65.1504 146.91 64.857 146.63C64.5704 146.35 64.427 145.997 64.427 145.57C64.427 145.083 64.6104 144.707 64.977 144.44C65.3504 144.167 65.857 144.03 66.497 144.03H67.417V143.77C67.417 143.37 67.327 143.07 67.147 142.87C66.967 142.663 66.6637 142.56 66.237 142.56C65.697 142.56 65.217 142.703 64.797 142.99ZM73.1403 142.57V145.54C73.1403 146.08 73.3936 146.35 73.9003 146.35C74.1603 146.35 74.3903 146.273 74.5903 146.12V146.87C74.3703 146.99 74.1236 147.05 73.8503 147.05C72.8503 147.05 72.3503 146.54 72.3503 145.52V142.57H71.5403V141.93H72.3503V140.67H73.1403V141.93H74.5403V142.57H73.1403ZM75.7817 147V141.93H76.5717V147H75.7817ZM75.8017 140.71C75.7084 140.61 75.6617 140.487 75.6617 140.34C75.6617 140.193 75.7084 140.07 75.8017 139.97C75.9017 139.87 76.0251 139.82 76.1717 139.82C76.3184 139.82 76.4417 139.87 76.5417 139.97C76.6417 140.07 76.6917 140.193 76.6917 140.34C76.6917 140.487 76.6417 140.61 76.5417 140.71C76.4417 140.803 76.3184 140.85 76.1717 140.85C76.0251 140.85 75.9017 140.803 75.8017 140.71ZM80.0057 146.36C80.419 146.36 80.769 146.207 81.0557 145.9C81.349 145.593 81.4957 145.103 81.4957 144.43C81.4957 143.79 81.3457 143.32 81.0457 143.02C80.7457 142.72 80.4157 142.57 80.0557 142.57C79.6357 142.57 79.2857 142.74 79.0057 143.08C78.7324 143.413 78.5957 143.893 78.5957 144.52C78.5957 145.067 78.729 145.51 78.9957 145.85C79.2624 146.19 79.599 146.36 80.0057 146.36ZM81.4957 139.93H82.2857V147H81.4957V146.25C81.1357 146.803 80.6157 147.08 79.9357 147.08C79.2624 147.08 78.7324 146.83 78.3457 146.33C77.9657 145.83 77.7757 145.223 77.7757 144.51C77.7757 143.717 77.979 143.077 78.3857 142.59C78.7924 142.097 79.3157 141.85 79.9557 141.85C80.6157 141.85 81.129 142.133 81.4957 142.7V139.93ZM86.4795 144.66H85.5995C85.1729 144.66 84.8529 144.743 84.6395 144.91C84.4262 145.077 84.3195 145.287 84.3195 145.54C84.3195 145.793 84.4029 146 84.5695 146.16C84.7362 146.313 84.9795 146.39 85.2995 146.39C85.6595 146.39 85.9462 146.29 86.1595 146.09C86.3729 145.883 86.4795 145.623 86.4795 145.31V144.66ZM83.8595 142.99V142.2C84.2395 141.967 84.7395 141.85 85.3595 141.85C86.6329 141.85 87.2695 142.497 87.2695 143.79V147H86.4895V146.4C86.2295 146.833 85.7562 147.05 85.0695 147.05C84.5962 147.05 84.2129 146.91 83.9195 146.63C83.6329 146.35 83.4895 145.997 83.4895 145.57C83.4895 145.083 83.6729 144.707 84.0395 144.44C84.4129 144.167 84.9195 144.03 85.5595 144.03H86.4795V143.77C86.4795 143.37 86.3895 143.07 86.2095 142.87C86.0295 142.663 85.7262 142.56 85.2995 142.56C84.7595 142.56 84.2795 142.703 83.8595 142.99ZM88.6714 147V139.97H89.4514V147H88.6714ZM90.4814 144.34L92.5414 147H91.5914L89.5514 144.34L91.5414 141.93H92.4814L90.4814 144.34ZM96.6975 141.93V142.75C96.9775 142.157 97.4542 141.86 98.1275 141.86C98.9075 141.86 99.4008 142.19 99.6075 142.85C99.7542 142.53 99.9575 142.287 100.218 142.12C100.484 141.947 100.781 141.86 101.108 141.86C101.634 141.86 102.031 142.01 102.298 142.31C102.564 142.61 102.698 143.013 102.698 143.52V147H101.908V143.72C101.908 142.953 101.584 142.57 100.938 142.57C100.618 142.57 100.331 142.717 100.078 143.01C99.8242 143.297 99.6975 143.703 99.6975 144.23V147H98.9075V143.72C98.9075 142.953 98.5842 142.57 97.9375 142.57C97.6175 142.57 97.3308 142.717 97.0775 143.01C96.8242 143.297 96.6975 143.703 96.6975 144.23V147H95.9175V141.93H96.6975ZM107.331 144.14V143.94C107.331 143.52 107.218 143.187 106.991 142.94C106.764 142.687 106.451 142.56 106.051 142.56C105.671 142.56 105.348 142.697 105.081 142.97C104.814 143.243 104.658 143.633 104.611 144.14H107.331ZM107.801 146V146.74C107.408 146.947 106.928 147.05 106.361 147.05C105.594 147.05 104.974 146.817 104.501 146.35C104.034 145.877 103.801 145.253 103.801 144.48C103.801 143.673 104.011 143.037 104.431 142.57C104.851 142.103 105.391 141.87 106.051 141.87C106.684 141.87 107.188 142.073 107.561 142.48C107.934 142.887 108.121 143.463 108.121 144.21C108.121 144.423 108.104 144.62 108.071 144.8H104.611C104.671 145.3 104.861 145.683 105.181 145.95C105.501 146.217 105.921 146.35 106.441 146.35C107.008 146.35 107.461 146.233 107.801 146ZM110.106 141.93V142.81C110.406 142.177 110.939 141.86 111.706 141.86C112.199 141.86 112.592 142.01 112.886 142.31C113.179 142.61 113.326 143.01 113.326 143.51V147H112.536V143.72C112.536 143.347 112.439 143.063 112.246 142.87C112.059 142.67 111.812 142.57 111.506 142.57C111.126 142.57 110.796 142.717 110.516 143.01C110.242 143.303 110.106 143.71 110.106 144.23V147H109.326V141.93H110.106ZM115.246 144.49C115.253 145.037 115.419 145.493 115.746 145.86C116.073 146.22 116.536 146.4 117.136 146.4C117.523 146.4 117.883 146.29 118.216 146.07V146.82C117.896 147.013 117.503 147.11 117.036 147.11C116.236 147.11 115.599 146.857 115.126 146.35C114.659 145.837 114.426 145.213 114.426 144.48C114.426 143.76 114.659 143.14 115.126 142.62C115.599 142.1 116.243 141.84 117.056 141.84C117.489 141.84 117.876 141.933 118.216 142.12V142.87C117.909 142.663 117.549 142.56 117.136 142.56C116.563 142.56 116.103 142.747 115.756 143.12C115.416 143.487 115.246 143.943 115.246 144.49ZM122.583 141.93H123.373V147H122.583V146.12C122.316 146.747 121.786 147.06 120.993 147.06C120.493 147.06 120.096 146.913 119.803 146.62C119.516 146.32 119.373 145.92 119.373 145.42V141.93H120.163V145.22C120.163 145.587 120.256 145.867 120.443 146.06C120.63 146.253 120.883 146.35 121.203 146.35C121.623 146.35 121.956 146.203 122.203 145.91C122.456 145.617 122.583 145.22 122.583 144.72V141.93ZM124.834 147V139.97H125.614V147H124.834ZM126.644 144.34L128.704 147H127.754L125.714 144.34L127.704 141.93H128.644L126.644 144.34ZM132.788 141.93H133.578V147H132.788V146.12C132.522 146.747 131.992 147.06 131.198 147.06C130.698 147.06 130.302 146.913 130.008 146.62C129.722 146.32 129.578 145.92 129.578 145.42V141.93H130.368V145.22C130.368 145.587 130.462 145.867 130.648 146.06C130.835 146.253 131.088 146.35 131.408 146.35C131.828 146.35 132.162 146.203 132.408 145.91C132.662 145.617 132.788 145.22 132.788 144.72V141.93ZM137.269 146.36C137.695 146.36 138.045 146.193 138.319 145.86C138.592 145.52 138.729 145.04 138.729 144.42C138.729 143.867 138.595 143.42 138.329 143.08C138.062 142.74 137.725 142.57 137.319 142.57C136.912 142.57 136.559 142.72 136.259 143.02C135.965 143.313 135.819 143.797 135.819 144.47C135.819 145.117 135.969 145.593 136.269 145.9C136.569 146.207 136.902 146.36 137.269 146.36ZM135.819 141.93V142.7C136.172 142.133 136.695 141.85 137.389 141.85C138.062 141.85 138.589 142.097 138.969 142.59C139.355 143.077 139.549 143.687 139.549 144.42C139.549 145.2 139.345 145.84 138.939 146.34C138.539 146.833 138.015 147.08 137.369 147.08C136.702 147.08 136.185 146.797 135.819 146.23V148.97H135.039V141.93H135.819ZM140.752 147V141.93H141.542V147H140.752ZM140.772 140.71C140.679 140.61 140.632 140.487 140.632 140.34C140.632 140.193 140.679 140.07 140.772 139.97C140.872 139.87 140.996 139.82 141.142 139.82C141.289 139.82 141.412 139.87 141.512 139.97C141.612 140.07 141.662 140.193 141.662 140.34C141.662 140.487 141.612 140.61 141.512 140.71C141.412 140.803 141.289 140.85 141.142 140.85C140.996 140.85 140.872 140.803 140.772 140.71ZM148.638 141.93H149.428V147H148.638V146.12C148.371 146.747 147.841 147.06 147.048 147.06C146.548 147.06 146.151 146.913 145.858 146.62C145.571 146.32 145.428 145.92 145.428 145.42V141.93H146.218V145.22C146.218 145.587 146.311 145.867 146.498 146.06C146.684 146.253 146.938 146.35 147.258 146.35C147.678 146.35 148.011 146.203 148.258 145.91C148.511 145.617 148.638 145.22 148.638 144.72V141.93ZM151.668 141.93V142.81C151.968 142.177 152.502 141.86 153.268 141.86C153.762 141.86 154.155 142.01 154.448 142.31C154.742 142.61 154.888 143.01 154.888 143.51V147H154.098V143.72C154.098 143.347 154.002 143.063 153.808 142.87C153.622 142.67 153.375 142.57 153.068 142.57C152.688 142.57 152.358 142.717 152.078 143.01C151.805 143.303 151.668 143.71 151.668 144.23V147H150.888V141.93H151.668ZM157.379 142.57V145.54C157.379 146.08 157.632 146.35 158.139 146.35C158.399 146.35 158.629 146.273 158.829 146.12V146.87C158.609 146.99 158.362 147.05 158.089 147.05C157.089 147.05 156.589 146.54 156.589 145.52V142.57H155.779V141.93H156.589V140.67H157.379V141.93H158.779V142.57H157.379ZM163.13 141.93H163.92V147H163.13V146.12C162.863 146.747 162.333 147.06 161.54 147.06C161.04 147.06 160.643 146.913 160.35 146.62C160.063 146.32 159.92 145.92 159.92 145.42V141.93H160.71V145.22C160.71 145.587 160.803 145.867 160.99 146.06C161.177 146.253 161.43 146.35 161.75 146.35C162.17 146.35 162.503 146.203 162.75 145.91C163.003 145.617 163.13 145.22 163.13 144.72V141.93ZM165.38 147V139.97H166.16V147H165.38ZM167.19 144.34L169.25 147H168.3L166.26 144.34L168.25 141.93H169.19L167.19 144.34ZM173.406 141.93V142.75C173.686 142.157 174.163 141.86 174.836 141.86C175.616 141.86 176.11 142.19 176.316 142.85C176.463 142.53 176.666 142.287 176.926 142.12C177.193 141.947 177.49 141.86 177.816 141.86C178.343 141.86 178.74 142.01 179.006 142.31C179.273 142.61 179.406 143.013 179.406 143.52V147H178.616V143.72C178.616 142.953 178.293 142.57 177.646 142.57C177.326 142.57 177.04 142.717 176.786 143.01C176.533 143.297 176.406 143.703 176.406 144.23V147H175.616V143.72C175.616 142.953 175.293 142.57 174.646 142.57C174.326 142.57 174.04 142.717 173.786 143.01C173.533 143.297 173.406 143.703 173.406 144.23V147H172.626V141.93H173.406ZM184.04 144.14V143.94C184.04 143.52 183.927 143.187 183.7 142.94C183.473 142.687 183.16 142.56 182.76 142.56C182.38 142.56 182.057 142.697 181.79 142.97C181.523 143.243 181.367 143.633 181.32 144.14H184.04ZM184.51 146V146.74C184.117 146.947 183.637 147.05 183.07 147.05C182.303 147.05 181.683 146.817 181.21 146.35C180.743 145.877 180.51 145.253 180.51 144.48C180.51 143.673 180.72 143.037 181.14 142.57C181.56 142.103 182.1 141.87 182.76 141.87C183.393 141.87 183.897 142.073 184.27 142.48C184.643 142.887 184.83 143.463 184.83 144.21C184.83 144.423 184.813 144.62 184.78 144.8H181.32C181.38 145.3 181.57 145.683 181.89 145.95C182.21 146.217 182.63 146.35 183.15 146.35C183.717 146.35 184.17 146.233 184.51 146ZM186.815 141.93V142.81C187.115 142.177 187.648 141.86 188.415 141.86C188.908 141.86 189.301 142.01 189.595 142.31C189.888 142.61 190.035 143.01 190.035 143.51V147H189.245V143.72C189.245 143.347 189.148 143.063 188.955 142.87C188.768 142.67 188.521 142.57 188.215 142.57C187.835 142.57 187.505 142.717 187.225 143.01C186.951 143.303 186.815 143.71 186.815 144.23V147H186.035V141.93H186.815ZM194.165 144.66H193.285C192.858 144.66 192.538 144.743 192.325 144.91C192.112 145.077 192.005 145.287 192.005 145.54C192.005 145.793 192.088 146 192.255 146.16C192.422 146.313 192.665 146.39 192.985 146.39C193.345 146.39 193.632 146.29 193.845 146.09C194.058 145.883 194.165 145.623 194.165 145.31V144.66ZM191.545 142.99V142.2C191.925 141.967 192.425 141.85 193.045 141.85C194.318 141.85 194.955 142.497 194.955 143.79V147H194.175V146.4C193.915 146.833 193.442 147.05 192.755 147.05C192.282 147.05 191.898 146.91 191.605 146.63C191.318 146.35 191.175 145.997 191.175 145.57C191.175 145.083 191.358 144.707 191.725 144.44C192.098 144.167 192.605 144.03 193.245 144.03H194.165V143.77C194.165 143.37 194.075 143.07 193.895 142.87C193.715 142.663 193.412 142.56 192.985 142.56C192.445 142.56 191.965 142.703 191.545 142.99ZM198.667 146.36C199.074 146.36 199.41 146.19 199.677 145.85C199.944 145.51 200.077 145.067 200.077 144.52C200.077 143.893 199.937 143.413 199.657 143.08C199.384 142.74 199.037 142.57 198.617 142.57C198.257 142.57 197.927 142.72 197.627 143.02C197.327 143.32 197.177 143.79 197.177 144.43C197.177 145.103 197.32 145.593 197.607 145.9C197.9 146.207 198.254 146.36 198.667 146.36ZM197.177 139.93V142.69C197.544 142.13 198.057 141.85 198.717 141.85C199.357 141.85 199.88 142.097 200.287 142.59C200.694 143.077 200.897 143.717 200.897 144.51C200.897 145.223 200.704 145.83 200.317 146.33C199.937 146.83 199.41 147.08 198.737 147.08C198.057 147.08 197.537 146.803 197.177 146.25V147H196.387V139.93H197.177ZM205.21 141.93H206V147H205.21V146.12C204.943 146.747 204.413 147.06 203.62 147.06C203.12 147.06 202.723 146.913 202.43 146.62C202.143 146.32 202 145.92 202 145.42V141.93H202.79V145.22C202.79 145.587 202.883 145.867 203.07 146.06C203.257 146.253 203.51 146.35 203.83 146.35C204.25 146.35 204.583 146.203 204.83 145.91C205.083 145.617 205.21 145.22 205.21 144.72V141.93ZM208.24 141.93V142.81C208.54 142.177 209.074 141.86 209.84 141.86C210.334 141.86 210.727 142.01 211.02 142.31C211.314 142.61 211.46 143.01 211.46 143.51V147H210.67V143.72C210.67 143.347 210.574 143.063 210.38 142.87C210.194 142.67 209.947 142.57 209.64 142.57C209.26 142.57 208.93 142.717 208.65 143.01C208.377 143.303 208.24 143.71 208.24 144.23V147H207.46V141.93H208.24ZM214.761 146.17C215.128 146.17 215.451 146.03 215.731 145.75C216.018 145.463 216.161 145.04 216.161 144.48C216.161 143.833 216.024 143.353 215.751 143.04C215.478 142.727 215.161 142.57 214.801 142.57C214.368 142.57 214.024 142.743 213.771 143.09C213.518 143.43 213.391 143.877 213.391 144.43C213.391 144.997 213.531 145.43 213.811 145.73C214.091 146.023 214.408 146.17 214.761 146.17ZM216.161 141.93H216.951V146.59C216.951 147.363 216.738 147.943 216.311 148.33C215.884 148.723 215.334 148.92 214.661 148.92C214.048 148.92 213.524 148.817 213.091 148.61V147.82C213.518 148.067 214.018 148.19 214.591 148.19C215.078 148.19 215.461 148.06 215.741 147.8C216.021 147.54 216.161 147.133 216.161 146.58V146.01C215.828 146.583 215.331 146.87 214.671 146.87C214.091 146.87 213.594 146.657 213.181 146.23C212.774 145.803 212.571 145.21 212.571 144.45C212.571 143.697 212.761 143.077 213.141 142.59C213.521 142.103 214.018 141.86 214.631 141.86C215.324 141.86 215.834 142.163 216.161 142.77V141.93ZM223.021 146.36C223.447 146.36 223.797 146.193 224.071 145.86C224.344 145.52 224.481 145.04 224.481 144.42C224.481 143.867 224.347 143.42 224.081 143.08C223.814 142.74 223.477 142.57 223.071 142.57C222.664 142.57 222.311 142.72 222.011 143.02C221.717 143.313 221.571 143.797 221.571 144.47C221.571 145.117 221.721 145.593 222.021 145.9C222.321 146.207 222.654 146.36 223.021 146.36ZM221.571 141.93V142.7C221.924 142.133 222.447 141.85 223.141 141.85C223.814 141.85 224.341 142.097 224.721 142.59C225.107 143.077 225.301 143.687 225.301 144.42C225.301 145.2 225.097 145.84 224.691 146.34C224.291 146.833 223.767 147.08 223.121 147.08C222.454 147.08 221.937 146.797 221.571 146.23V148.97H220.791V141.93H221.571ZM229.194 144.66H228.314C227.888 144.66 227.568 144.743 227.354 144.91C227.141 145.077 227.034 145.287 227.034 145.54C227.034 145.793 227.118 146 227.284 146.16C227.451 146.313 227.694 146.39 228.014 146.39C228.374 146.39 228.661 146.29 228.874 146.09C229.088 145.883 229.194 145.623 229.194 145.31V144.66ZM226.574 142.99V142.2C226.954 141.967 227.454 141.85 228.074 141.85C229.348 141.85 229.984 142.497 229.984 143.79V147H229.204V146.4C228.944 146.833 228.471 147.05 227.784 147.05C227.311 147.05 226.928 146.91 226.634 146.63C226.348 146.35 226.204 145.997 226.204 145.57C226.204 145.083 226.388 144.707 226.754 144.44C227.128 144.167 227.634 144.03 228.274 144.03H229.194V143.77C229.194 143.37 229.104 143.07 228.924 142.87C228.744 142.663 228.441 142.56 228.014 142.56C227.474 142.56 226.994 142.703 226.574 142.99ZM233.316 146.36C233.73 146.36 234.08 146.207 234.366 145.9C234.66 145.593 234.806 145.103 234.806 144.43C234.806 143.79 234.656 143.32 234.356 143.02C234.056 142.72 233.726 142.57 233.366 142.57C232.946 142.57 232.596 142.74 232.316 143.08C232.043 143.413 231.906 143.893 231.906 144.52C231.906 145.067 232.04 145.51 232.306 145.85C232.573 146.19 232.91 146.36 233.316 146.36ZM234.806 139.93H235.596V147H234.806V146.25C234.446 146.803 233.926 147.08 233.246 147.08C232.573 147.08 232.043 146.83 231.656 146.33C231.276 145.83 231.086 145.223 231.086 144.51C231.086 143.717 231.29 143.077 231.696 142.59C232.103 142.097 232.626 141.85 233.266 141.85C233.926 141.85 234.44 142.133 234.806 142.7V139.93ZM239.79 144.66H238.91C238.483 144.66 238.163 144.743 237.95 144.91C237.737 145.077 237.63 145.287 237.63 145.54C237.63 145.793 237.713 146 237.88 146.16C238.047 146.313 238.29 146.39 238.61 146.39C238.97 146.39 239.257 146.29 239.47 146.09C239.683 145.883 239.79 145.623 239.79 145.31V144.66ZM237.17 142.99V142.2C237.55 141.967 238.05 141.85 238.67 141.85C239.943 141.85 240.58 142.497 240.58 143.79V147H239.8V146.4C239.54 146.833 239.067 147.05 238.38 147.05C237.907 147.05 237.523 146.91 237.23 146.63C236.943 146.35 236.8 145.997 236.8 145.57C236.8 145.083 236.983 144.707 237.35 144.44C237.723 144.167 238.23 144.03 238.87 144.03H239.79V143.77C239.79 143.37 239.7 143.07 239.52 142.87C239.34 142.663 239.037 142.56 238.61 142.56C238.07 142.56 237.59 142.703 237.17 142.99ZM245.203 141.93V142.82C245.47 142.193 245.93 141.88 246.583 141.88C246.703 141.88 246.797 141.887 246.863 141.9V142.68C246.723 142.633 246.58 142.61 246.433 142.61C246.08 142.61 245.787 142.773 245.553 143.1C245.32 143.427 245.203 143.803 245.203 144.23V147H244.413L244.423 141.93H245.203ZM250.915 144.14V143.94C250.915 143.52 250.802 143.187 250.575 142.94C250.348 142.687 250.035 142.56 249.635 142.56C249.255 142.56 248.932 142.697 248.665 142.97C248.398 143.243 248.242 143.633 248.195 144.14H250.915ZM251.385 146V146.74C250.992 146.947 250.512 147.05 249.945 147.05C249.178 147.05 248.558 146.817 248.085 146.35C247.618 145.877 247.385 145.253 247.385 144.48C247.385 143.673 247.595 143.037 248.015 142.57C248.435 142.103 248.975 141.87 249.635 141.87C250.268 141.87 250.772 142.073 251.145 142.48C251.518 142.887 251.705 143.463 251.705 144.21C251.705 144.423 251.688 144.62 251.655 144.8H248.195C248.255 145.3 248.445 145.683 248.765 145.95C249.085 146.217 249.505 146.35 250.025 146.35C250.592 146.35 251.045 146.233 251.385 146ZM252.91 147V139.97H253.69V147H252.91ZM254.72 144.34L256.78 147H255.83L253.79 144.34L255.78 141.93H256.72L254.72 144.34ZM260.944 144.14V143.94C260.944 143.52 260.831 143.187 260.604 142.94C260.378 142.687 260.064 142.56 259.664 142.56C259.284 142.56 258.961 142.697 258.694 142.97C258.428 143.243 258.271 143.633 258.224 144.14H260.944ZM261.414 146V146.74C261.021 146.947 260.541 147.05 259.974 147.05C259.208 147.05 258.588 146.817 258.114 146.35C257.648 145.877 257.414 145.253 257.414 144.48C257.414 143.673 257.624 143.037 258.044 142.57C258.464 142.103 259.004 141.87 259.664 141.87C260.298 141.87 260.801 142.073 261.174 142.48C261.548 142.887 261.734 143.463 261.734 144.21C261.734 144.423 261.718 144.62 261.684 144.8H258.224C258.284 145.3 258.474 145.683 258.794 145.95C259.114 146.217 259.534 146.35 260.054 146.35C260.621 146.35 261.074 146.233 261.414 146ZM263.719 141.93V142.81C264.019 142.177 264.552 141.86 265.319 141.86C265.812 141.86 266.206 142.01 266.499 142.31C266.792 142.61 266.939 143.01 266.939 143.51V147H266.149V143.72C266.149 143.347 266.052 143.063 265.859 142.87C265.672 142.67 265.426 142.57 265.119 142.57C264.739 142.57 264.409 142.717 264.129 143.01C263.856 143.303 263.719 143.71 263.719 144.23V147H262.939V141.93H263.719ZM268.379 147V141.93H269.169V147H268.379ZM268.399 140.71C268.306 140.61 268.259 140.487 268.259 140.34C268.259 140.193 268.306 140.07 268.399 139.97C268.499 139.87 268.623 139.82 268.769 139.82C268.916 139.82 269.039 139.87 269.139 139.97C269.239 140.07 269.289 140.193 269.289 140.34C269.289 140.487 269.239 140.61 269.139 140.71C269.039 140.803 268.916 140.85 268.769 140.85C268.623 140.85 268.499 140.803 268.399 140.71ZM271.453 141.93V142.81C271.753 142.177 272.287 141.86 273.053 141.86C273.547 141.86 273.94 142.01 274.233 142.31C274.527 142.61 274.673 143.01 274.673 143.51V147H273.883V143.72C273.883 143.347 273.787 143.063 273.593 142.87C273.407 142.67 273.16 142.57 272.853 142.57C272.473 142.57 272.143 142.717 271.863 143.01C271.59 143.303 271.453 143.71 271.453 144.23V147H270.673V141.93H271.453ZM277.974 146.17C278.34 146.17 278.664 146.03 278.944 145.75C279.23 145.463 279.374 145.04 279.374 144.48C279.374 143.833 279.237 143.353 278.964 143.04C278.69 142.727 278.374 142.57 278.014 142.57C277.58 142.57 277.237 142.743 276.984 143.09C276.73 143.43 276.604 143.877 276.604 144.43C276.604 144.997 276.744 145.43 277.024 145.73C277.304 146.023 277.62 146.17 277.974 146.17ZM279.374 141.93H280.164V146.59C280.164 147.363 279.95 147.943 279.524 148.33C279.097 148.723 278.547 148.92 277.874 148.92C277.26 148.92 276.737 148.817 276.304 148.61V147.82C276.73 148.067 277.23 148.19 277.804 148.19C278.29 148.19 278.674 148.06 278.954 147.8C279.234 147.54 279.374 147.133 279.374 146.58V146.01C279.04 146.583 278.544 146.87 277.884 146.87C277.304 146.87 276.807 146.657 276.394 146.23C275.987 145.803 275.784 145.21 275.784 144.45C275.784 143.697 275.974 143.077 276.354 142.59C276.734 142.103 277.23 141.86 277.844 141.86C278.537 141.86 279.047 142.163 279.374 142.77V141.93Z" fill="#2B2B2B"/>
<path d="M116.991 161.97H118.071C118.878 161.97 119.281 161.663 119.281 161.05C119.281 160.423 118.861 160.11 118.021 160.11H116.991V161.97ZM116.991 157.29V159.1H117.751C118.205 159.1 118.545 159.01 118.771 158.83C118.998 158.65 119.111 158.42 119.111 158.14C119.111 157.88 119.015 157.673 118.821 157.52C118.635 157.367 118.348 157.29 117.961 157.29H116.991ZM115.731 156.26H118.121C118.841 156.26 119.401 156.43 119.801 156.77C120.201 157.11 120.401 157.55 120.401 158.09C120.401 158.457 120.301 158.777 120.101 159.05C119.901 159.317 119.645 159.493 119.331 159.58C119.691 159.667 119.988 159.843 120.221 160.11C120.455 160.37 120.571 160.727 120.571 161.18C120.571 161.713 120.385 162.15 120.011 162.49C119.638 162.83 119.121 163 118.461 163H115.731V156.26ZM121.649 163V156.26H123.079L124.699 159.07C124.966 159.53 125.203 159.96 125.409 160.36C125.623 160.753 125.766 161.033 125.839 161.2L125.949 161.45C125.896 160.897 125.869 160.103 125.869 159.07V156.26H127.139V163H125.699L124.059 160.2C123.799 159.76 123.563 159.34 123.349 158.94C123.143 158.533 122.999 158.24 122.919 158.06L122.799 157.78C122.873 158.413 122.909 159.217 122.909 160.19V163H121.649ZM128.614 163V156.26H129.874V163H128.614ZM133.637 160.86V159.85H136.177V160.86H133.637ZM141.103 161.97H142.183C142.989 161.97 143.393 161.663 143.393 161.05C143.393 160.423 142.973 160.11 142.133 160.11H141.103V161.97ZM141.103 157.29V159.1H141.863C142.316 159.1 142.656 159.01 142.883 158.83C143.109 158.65 143.223 158.42 143.223 158.14C143.223 157.88 143.126 157.673 142.933 157.52C142.746 157.367 142.459 157.29 142.073 157.29H141.103ZM139.843 156.26H142.233C142.953 156.26 143.513 156.43 143.913 156.77C144.313 157.11 144.513 157.55 144.513 158.09C144.513 158.457 144.413 158.777 144.213 159.05C144.013 159.317 143.756 159.493 143.443 159.58C143.803 159.667 144.099 159.843 144.333 160.11C144.566 160.37 144.683 160.727 144.683 161.18C144.683 161.713 144.496 162.15 144.123 162.49C143.749 162.83 143.233 163 142.573 163H139.843V156.26ZM145.761 163V156.26H147.191L148.811 159.07C149.077 159.53 149.314 159.96 149.521 160.36C149.734 160.753 149.877 161.033 149.951 161.2L150.061 161.45C150.007 160.897 149.981 160.103 149.981 159.07V156.26H151.251V163H149.811L148.171 160.2C147.911 159.76 147.674 159.34 147.461 158.94C147.254 158.533 147.111 158.24 147.031 158.06L146.911 157.78C146.984 158.413 147.021 159.217 147.021 160.19V163H145.761ZM152.725 163V156.26H153.985V163H152.725ZM162.198 156.26V157.3H160.488V163H159.218V157.3H157.508V156.26H162.198ZM165.683 160.82H165.063C164.75 160.82 164.51 160.887 164.343 161.02C164.177 161.147 164.093 161.31 164.093 161.51C164.093 161.937 164.34 162.15 164.833 162.15C165.1 162.15 165.307 162.073 165.453 161.92C165.607 161.76 165.683 161.553 165.683 161.3V160.82ZM163.223 159.3V158.19C163.603 157.957 164.15 157.84 164.863 157.84C166.237 157.84 166.923 158.48 166.923 159.76V163H165.733V162.39C165.5 162.823 165.06 163.04 164.413 163.04C163.933 163.04 163.55 162.9 163.263 162.62C162.983 162.34 162.843 161.987 162.843 161.56C162.843 161.08 163.023 160.703 163.383 160.43C163.743 160.157 164.263 160.02 164.943 160.02H165.683V159.71C165.683 159.43 165.61 159.217 165.463 159.07C165.317 158.923 165.067 158.85 164.713 158.85C164.173 158.85 163.677 159 163.223 159.3ZM170.622 162.04C170.982 162.04 171.275 161.903 171.502 161.63C171.728 161.35 171.842 160.96 171.842 160.46C171.842 159.96 171.728 159.573 171.502 159.3C171.275 159.02 170.988 158.88 170.642 158.88C170.295 158.88 169.995 159.01 169.742 159.27C169.488 159.53 169.362 159.917 169.362 160.43C169.362 160.943 169.485 161.34 169.732 161.62C169.978 161.9 170.275 162.04 170.622 162.04ZM169.362 157.93V158.71C169.722 158.143 170.238 157.86 170.912 157.86C171.572 157.86 172.095 158.097 172.482 158.57C172.875 159.043 173.072 159.667 173.072 160.44C173.072 161.2 172.875 161.83 172.482 162.33C172.095 162.823 171.568 163.07 170.902 163.07C170.222 163.07 169.708 162.793 169.362 162.24V164.91H168.162V157.93H169.362ZM174.149 163V155.93H175.349V163H174.149ZM179.837 157.93H181.047V163H179.837V162.17C179.57 162.757 179.05 163.05 178.277 163.05C177.764 163.05 177.364 162.903 177.077 162.61C176.79 162.317 176.647 161.9 176.647 161.36V157.93H177.847V161.08C177.847 161.4 177.924 161.643 178.077 161.81C178.237 161.977 178.454 162.06 178.727 162.06C179.074 162.06 179.344 161.943 179.537 161.71C179.737 161.477 179.837 161.123 179.837 160.65V157.93ZM185.381 158.09V159.15C185.048 158.95 184.631 158.85 184.131 158.85C183.925 158.85 183.761 158.897 183.641 158.99C183.528 159.077 183.471 159.19 183.471 159.33C183.471 159.383 183.478 159.433 183.491 159.48C183.511 159.527 183.541 159.573 183.581 159.62C183.628 159.66 183.671 159.697 183.711 159.73C183.751 159.763 183.808 159.8 183.881 159.84C183.955 159.873 184.018 159.903 184.071 159.93C184.125 159.957 184.198 159.99 184.291 160.03C184.385 160.07 184.458 160.103 184.511 160.13C184.865 160.303 185.145 160.497 185.351 160.71C185.558 160.923 185.661 161.2 185.661 161.54C185.661 162.013 185.491 162.383 185.151 162.65C184.811 162.917 184.358 163.05 183.791 163.05C183.165 163.05 182.658 162.947 182.271 162.74V161.64C182.718 161.94 183.201 162.09 183.721 162.09C183.941 162.09 184.111 162.05 184.231 161.97C184.358 161.883 184.421 161.767 184.421 161.62C184.421 161.533 184.401 161.457 184.361 161.39C184.321 161.317 184.245 161.247 184.131 161.18C184.018 161.113 183.928 161.067 183.861 161.04C183.801 161.007 183.678 160.95 183.491 160.87C183.471 160.863 183.455 160.857 183.441 160.85C183.435 160.843 183.421 160.837 183.401 160.83C183.381 160.823 183.365 160.817 183.351 160.81C182.611 160.477 182.241 159.997 182.241 159.37C182.241 158.903 182.418 158.537 182.771 158.27C183.125 158.003 183.568 157.87 184.101 157.87C184.615 157.87 185.041 157.943 185.381 158.09Z" fill="#DA011C"/>
<g filter="url(#filter1_d_1124_4113)">
<rect x="90.5" y="180" width="120" height="24" rx="8" fill="#FF1934" shape-rendering="crispEdges"/>
<path d="M145.442 191.288C145.442 190.451 145.671 189.779 146.13 189.272C146.594 188.765 147.212 188.512 147.986 188.512C148.77 188.512 149.391 188.765 149.85 189.272C150.308 189.773 150.538 190.445 150.538 191.288C150.538 192.12 150.306 192.789 149.842 193.296C149.383 193.803 148.767 194.056 147.994 194.056C147.22 194.056 146.602 193.803 146.138 193.296C145.674 192.789 145.442 192.12 145.442 191.288ZM146.522 191.288C146.522 191.853 146.655 192.301 146.922 192.632C147.188 192.963 147.546 193.128 147.994 193.128C148.447 193.128 148.804 192.965 149.066 192.64C149.327 192.309 149.458 191.859 149.458 191.288C149.458 190.717 149.327 190.267 149.066 189.936C148.804 189.605 148.444 189.44 147.986 189.44C147.532 189.44 147.175 189.605 146.914 189.936C146.652 190.267 146.522 190.717 146.522 191.288ZM151.439 194L151.439 188.608L152.447 188.608L152.447 194L151.439 194ZM153.727 191.312L155.735 194L154.463 194L152.527 191.328L154.391 188.608L155.599 188.608L153.727 191.312Z" fill="white"/>
</g>
<defs>
<filter id="filter0_d_1124_4113" x="-4" y="-2" width="309" height="56" filterUnits="userSpaceOnUse" color-interpolation-filters="sRGB">
<feFlood flood-opacity="0" result="BackgroundImageFix"/>
<feColorMatrix in="SourceAlpha" type="matrix" values="0 0 0 0 0 0 0 0 0 0 0 0 0 0 0 0 0 0 127 0" result="hardAlpha"/>
<feOffset dy="2"/>
<feGaussianBlur stdDeviation="2"/>
<feComposite in2="hardAlpha" operator="out"/>
<feColorMatrix type="matrix" values="0 0 0 0 0.168627 0 0 0 0 0.168627 0 0 0 0 0.168627 0 0 0 0.24 0"/>
<feBlend mode="normal" in2="BackgroundImageFix" result="effect1_dropShadow_1124_4113"/>
<feBlend mode="normal" in="SourceGraphic" in2="effect1_dropShadow_1124_4113" result="shape"/>
</filter>
<filter id="filter1_d_1124_4113" x="84.5" y="174" width="136" height="40" filterUnits="userSpaceOnUse" color-interpolation-filters="sRGB">
<feFlood flood-opacity="0" result="BackgroundImageFix"/>
<feColorMatrix in="SourceAlpha" type="matrix" values="0 0 0 0 0 0 0 0 0 0 0 0 0 0 0 0 0 0 127 0" result="hardAlpha"/>
<feOffset dx="2" dy="2"/>
<feGaussianBlur stdDeviation="4"/>
<feComposite in2="hardAlpha" operator="out"/>
<feColorMatrix type="matrix" values="0 0 0 0 0 0 0 0 0 0 0 0 0 0 0 0 0 0 0.12 0"/>
<feBlend mode="normal" in2="BackgroundImageFix" result="effect1_dropShadow_1124_4113"/>
<feBlend mode="normal" in="SourceGraphic" in2="effect1_dropShadow_1124_4113" result="shape"/>
</filter>
<clipPath id="clip0_1124_4113">
<rect width="24" height="24" fill="white" transform="translate(16 16)"/>
</clipPath>
<clipPath id="clip1_1124_4113">
<rect width="64" height="64" fill="white" transform="translate(118.5 72)"/>
</clipPath>
</defs>
</svg>
