<svg width="373" height="120" viewBox="0 0 373 120" fill="none" xmlns="http://www.w3.org/2000/svg">
<rect width="373" height="120" fill="#D3D3D3"/>
<rect width="373" height="120" rx="16" fill="white"/>
<g filter="url(#filter0_d_1124_4113)">
<path d="M0 16C0 7.16344 7.16344 0 16 0H357C365.837 0 373 7.16344 373 16V48H0V16Z" fill="#FF1934" shape-rendering="crispEdges"/>
<g clip-path="url(#clip0_1124_4113)">
<path d="M35.5696 28.83C35.1396 28.58 35.0896 28.16 35.0896 28C35.0896 27.84 35.1396 27.42 35.5696 27.17C36.0396 26.9 36.3796 26.46 36.5196 25.94C36.6596 25.42 36.5896 24.87 36.3196 24.4L35.2896 22.61C35.0196 22.14 34.5796 21.8 34.0596 21.66C33.5396 21.52 32.9896 21.59 32.5196 21.86C32.0896 22.11 31.6996 21.94 31.5596 21.86C31.4196 21.78 31.0796 21.53 31.0796 21.03C31.0796 19.91 30.1696 19 29.0496 19H26.9896C25.8696 19 24.9596 19.91 24.9596 21.03C24.9596 21.53 24.6196 21.78 24.4796 21.86C24.3396 21.94 23.9596 22.11 23.5196 21.86C23.0496 21.59 22.4996 21.52 21.9796 21.66C21.4596 21.8 21.0196 22.14 20.7496 22.61L19.7196 24.4C19.4496 24.87 19.3796 25.42 19.5196 25.94C19.6596 26.46 19.9996 26.9 20.4696 27.17C20.8996 27.42 20.9496 27.84 20.9496 28C20.9496 28.16 20.8996 28.58 20.4696 28.83C19.9996 29.1 19.6596 29.54 19.5196 30.06C19.3796 30.58 19.4496 31.13 19.7196 31.6L20.7496 33.39C21.0196 33.86 21.4596 34.2 21.9796 34.34C22.4996 34.48 23.0496 34.41 23.5196 34.14C23.9496 33.89 24.3396 34.06 24.4796 34.14C24.6196 34.22 24.9596 34.47 24.9596 34.97C24.9596 36.09 25.8696 37 26.9896 37H29.0496C30.1696 37 31.0796 36.09 31.0796 34.97C31.0796 34.47 31.4196 34.22 31.5596 34.14C31.6996 34.06 32.0796 33.89 32.5196 34.14C32.9896 34.41 33.5396 34.48 34.0596 34.34C34.5796 34.2 35.0196 33.86 35.2896 33.39L36.3196 31.6C36.5896 31.13 36.6596 30.58 36.5196 30.06C36.3796 29.54 36.0396 29.1 35.5696 28.83ZM34.9296 30.8L33.8996 32.59C33.8396 32.69 33.7496 32.76 33.6396 32.79C33.5296 32.82 33.4096 32.8 33.3096 32.75C32.5096 32.29 31.5496 32.29 30.7496 32.75C29.9496 33.21 29.4696 34.04 29.4696 34.97C29.4696 35.21 29.2796 35.4 29.0396 35.4H26.9796C26.7396 35.4 26.5496 35.21 26.5496 34.97C26.5496 34.05 26.0696 33.22 25.2696 32.75C24.8696 32.52 24.4296 32.4 23.9896 32.4C23.5496 32.4 23.1096 32.52 22.7096 32.75C22.6096 32.81 22.4896 32.82 22.3796 32.79C22.2696 32.76 22.1696 32.69 22.1196 32.59L21.0896 30.8C21.0296 30.7 21.0196 30.58 21.0496 30.47C21.0796 30.36 21.1496 30.27 21.2496 30.21C22.0496 29.75 22.5296 28.92 22.5296 27.99C22.5296 27.06 22.0496 26.24 21.2496 25.77C21.1496 25.71 21.0796 25.62 21.0496 25.51C21.0196 25.4 21.0396 25.28 21.0896 25.18L22.1196 23.39C22.1796 23.29 22.2696 23.22 22.3796 23.19C22.4896 23.16 22.6096 23.17 22.7096 23.23C23.5096 23.69 24.4696 23.69 25.2696 23.23C26.0696 22.77 26.5496 21.94 26.5496 21.01C26.5496 20.77 26.7396 20.58 26.9796 20.58H29.0396C29.2796 20.58 29.4696 20.77 29.4696 21.01C29.4696 21.93 29.9496 22.76 30.7496 23.23C31.5496 23.69 32.5096 23.69 33.3096 23.23C33.4096 23.17 33.5196 23.16 33.6396 23.19C33.7496 23.22 33.8496 23.29 33.8996 23.39L34.9296 25.18C34.9896 25.28 34.9996 25.4 34.9696 25.51C34.9396 25.62 34.8696 25.72 34.7696 25.77C33.9696 26.23 33.4896 27.06 33.4896 27.99C33.4896 28.92 33.9696 29.74 34.7696 30.21C34.8696 30.27 34.9396 30.36 34.9696 30.47C34.9996 30.58 34.9796 30.7 34.9296 30.8Z" fill="white"/>
<path d="M27.9992 24.02C27.5592 24.02 27.1992 24.38 27.1992 24.82C27.1992 25.26 27.5592 25.62 27.9992 25.62C29.3092 25.62 30.3792 26.69 30.3792 28C30.3792 28.63 30.1292 29.23 29.6792 29.68C29.3692 29.99 29.3692 30.5 29.6792 30.81C29.8392 30.97 30.0392 31.04 30.2492 31.04C30.4592 31.04 30.6592 30.96 30.8192 30.81C31.5692 30.06 31.9792 29.06 31.9792 28C31.9792 25.81 30.1992 24.02 27.9992 24.02Z" fill="white"/>
<path d="M27.9993 30.38C26.6893 30.38 25.6193 29.31 25.6193 28C25.6193 27.37 25.8693 26.77 26.3193 26.32C26.6293 26.01 26.6293 25.5 26.3193 25.19C26.0093 24.88 25.4993 24.88 25.1893 25.19C24.4393 25.94 24.0293 26.94 24.0293 28C24.0293 30.19 25.8093 31.98 28.0093 31.98C28.4493 31.98 28.8093 31.62 28.8093 31.18C28.8093 30.74 28.4493 30.38 28.0093 30.38H27.9993Z" fill="white"/>
</g>
<path d="M51.066 27.24H51.78C52.9187 27.24 53.488 26.722 53.488 25.686C53.488 24.7527 52.9607 24.286 51.906 24.286H51.066V27.24ZM48.91 22.564H52.158C53.2033 22.564 54.048 22.858 54.692 23.446C55.3453 24.034 55.672 24.7807 55.672 25.686C55.672 26.722 55.3313 27.5247 54.65 28.094C53.978 28.6633 53.1473 28.948 52.158 28.948H51.066V32H48.91V22.564ZM60.8307 27.8V27.632C60.7653 26.8013 60.4013 26.386 59.7387 26.386C59.412 26.386 59.1227 26.5073 58.8707 26.75C58.6187 26.9833 58.4507 27.3333 58.3667 27.8H60.8307ZM62.3007 29.886V31.594C61.8153 31.9113 61.0733 32.07 60.0747 32.07C58.908 32.07 57.998 31.734 57.3447 31.062C56.7007 30.3807 56.3787 29.508 56.3787 28.444C56.3787 27.3147 56.6913 26.4327 57.3167 25.798C57.9513 25.154 58.7307 24.832 59.6547 24.832C60.6067 24.832 61.358 25.112 61.9087 25.672C62.4593 26.2227 62.7347 27.0487 62.7347 28.15C62.7347 28.3647 62.6973 28.7333 62.6227 29.256H58.4507C58.5907 29.648 58.8333 29.9513 59.1787 30.166C59.524 30.3807 59.9393 30.488 60.4247 30.488C61.1433 30.488 61.7687 30.2873 62.3007 29.886ZM66.2375 24.902V26.106C66.4148 25.714 66.6855 25.406 67.0495 25.182C67.4228 24.9487 67.8662 24.832 68.3795 24.832C69.1075 24.832 69.6768 25.0513 70.0875 25.49C70.4982 25.9193 70.7035 26.554 70.7035 27.394V32H68.6595V27.772C68.6595 27.352 68.5615 27.0347 68.3655 26.82C68.1695 26.596 67.8942 26.484 67.5395 26.484C67.1662 26.484 66.8535 26.6333 66.6015 26.932C66.3588 27.2213 66.2375 27.66 66.2375 28.248V32H64.1935V24.902H66.2375ZM75.4646 30.138C75.9033 30.138 76.2439 29.9747 76.4866 29.648C76.7386 29.312 76.8646 28.9107 76.8646 28.444C76.8646 27.1747 76.4026 26.54 75.4786 26.54C75.0679 26.54 74.7459 26.6987 74.5126 27.016C74.2793 27.3333 74.1626 27.772 74.1626 28.332C74.1626 28.92 74.2746 29.368 74.4986 29.676C74.7226 29.984 75.0446 30.138 75.4646 30.138ZM76.8646 24.902H78.8946V31.314C78.8946 32.4527 78.5539 33.3067 77.8726 33.876C77.1913 34.4547 76.3373 34.744 75.3106 34.744C74.3119 34.744 73.4393 34.5667 72.6926 34.212V32.126C73.3459 32.6487 74.1486 32.91 75.1006 32.91C75.7166 32.91 76.1646 32.7793 76.4446 32.518C76.7246 32.2567 76.8646 31.846 76.8646 31.286V30.81C76.4539 31.4447 75.8006 31.762 74.9046 31.762C74.1206 31.762 73.4439 31.4727 72.8746 30.894C72.3146 30.3153 72.0346 29.4567 72.0346 28.318C72.0346 27.31 72.3053 26.4793 72.8466 25.826C73.3973 25.1633 74.1159 24.832 75.0026 24.832C75.8426 24.832 76.4633 25.168 76.8646 25.84V24.902ZM84.0181 29.088H83.3601C83.0147 29.088 82.7487 29.1627 82.5621 29.312C82.3754 29.4613 82.2821 29.6527 82.2821 29.886C82.2821 30.362 82.5574 30.6 83.1081 30.6C83.3974 30.6 83.6214 30.5113 83.7801 30.334C83.9387 30.1567 84.0181 29.914 84.0181 29.606V29.088ZM80.7001 27.086V25.252C81.2601 24.9347 82.0674 24.776 83.1221 24.776C84.1301 24.776 84.8814 24.9953 85.3761 25.434C85.8707 25.8633 86.1181 26.5353 86.1181 27.45V32H84.1161V31.132C83.8174 31.7387 83.2294 32.042 82.3521 32.042C81.6614 32.042 81.1201 31.846 80.7281 31.454C80.3454 31.062 80.1541 30.572 80.1541 29.984C80.1541 29.3027 80.4014 28.7753 80.8961 28.402C81.4001 28.0193 82.1421 27.828 83.1221 27.828H84.0181V27.338C84.0181 26.7407 83.6214 26.442 82.8281 26.442C82.0627 26.442 81.3534 26.6567 80.7001 27.086ZM90.0888 26.4V29.662C90.0888 29.914 90.1588 30.1053 90.2988 30.236C90.4481 30.3667 90.6395 30.432 90.8728 30.432C91.2461 30.432 91.5775 30.3387 91.8668 30.152V31.846C91.5215 31.9953 91.0548 32.07 90.4668 32.07C88.8521 32.07 88.0448 31.2627 88.0448 29.648V26.4H87.0228V24.902H88.0448V23.222H90.0888V24.902H91.7408V26.4H90.0888ZM97.5192 24.902H99.5632V32H97.5192V30.866C97.1459 31.6593 96.4272 32.056 95.3632 32.056C94.6352 32.056 94.0659 31.8553 93.6552 31.454C93.2539 31.0433 93.0532 30.4413 93.0532 29.648V24.902H95.0972V29.186C95.0972 30.0167 95.4612 30.432 96.1892 30.432C97.0759 30.432 97.5192 29.8393 97.5192 28.654V24.902ZM103.274 24.902V26.218C103.405 25.8073 103.62 25.4807 103.918 25.238C104.226 24.986 104.581 24.86 104.982 24.86C105.206 24.86 105.384 24.8787 105.514 24.916V26.848C105.29 26.7453 105.034 26.694 104.744 26.694C104.306 26.694 103.951 26.8573 103.68 27.184C103.41 27.5013 103.274 27.926 103.274 28.458V32H101.23L101.244 24.902H103.274ZM109.94 29.088H109.282C108.937 29.088 108.671 29.1627 108.484 29.312C108.297 29.4613 108.204 29.6527 108.204 29.886C108.204 30.362 108.479 30.6 109.03 30.6C109.319 30.6 109.543 30.5113 109.702 30.334C109.861 30.1567 109.94 29.914 109.94 29.606V29.088ZM106.622 27.086V25.252C107.182 24.9347 107.989 24.776 109.044 24.776C110.052 24.776 110.803 24.9953 111.298 25.434C111.793 25.8633 112.04 26.5353 112.04 27.45V32H110.038V31.132C109.739 31.7387 109.151 32.042 108.274 32.042C107.583 32.042 107.042 31.846 106.65 31.454C106.267 31.062 106.076 30.572 106.076 29.984C106.076 29.3027 106.323 28.7753 106.818 28.402C107.322 28.0193 108.064 27.828 109.044 27.828H109.94V27.338C109.94 26.7407 109.543 26.442 108.75 26.442C107.985 26.442 107.275 26.6567 106.622 27.086ZM115.689 24.902V26.106C115.866 25.714 116.137 25.406 116.501 25.182C116.874 24.9487 117.317 24.832 117.831 24.832C118.559 24.832 119.128 25.0513 119.539 25.49C119.949 25.9193 120.155 26.554 120.155 27.394V32H118.111V27.772C118.111 27.352 118.013 27.0347 117.817 26.82C117.621 26.596 117.345 26.484 116.991 26.484C116.617 26.484 116.305 26.6333 116.053 26.932C115.81 27.2213 115.689 27.66 115.689 28.248V32H113.645V24.902H115.689Z" fill="white"/>
<path d="M345 14C345 6.26801 351.268 -5.47967e-07 359 -1.22392e-06C366.732 -1.89987e-06 373 6.26801 373 14C373 21.732 366.732 28 359 28C351.268 28 345 21.732 345 14Z" fill="#FF1934"/>
<g clip-path="url(#clip1_1124_4113)">
<path d="M363.21 9.40998C362.88 9.10998 362.38 9.12998 362.08 9.45998L359 12.82L355.92 9.45998C355.62 9.12998 355.11 9.10998 354.79 9.40998C354.46 9.70998 354.44 10.21 354.74 10.54L357.91 14L354.74 17.46C354.44 17.79 354.46 18.29 354.79 18.59C354.94 18.73 355.14 18.8 355.33 18.8C355.55 18.8 355.76 18.71 355.92 18.54L359 15.18L362.08 18.54C362.24 18.71 362.45 18.8 362.67 18.8C362.86 18.8 363.06 18.73 363.21 18.59C363.54 18.29 363.56 17.79 363.26 17.46L360.09 14L363.26 10.54C363.56 10.21 363.54 9.70998 363.21 9.40998Z" fill="white"/>
<path d="M359 4C353.49 4 349 8.49 349 14C349 19.51 353.49 24 359 24C364.51 24 369 19.51 369 14C369 8.49 364.51 4 359 4ZM359 22.4C354.37 22.4 350.6 18.63 350.6 14C350.6 9.37 354.37 5.6 359 5.6C363.63 5.6 367.4 9.37 367.4 14C367.4 18.63 363.63 22.4 359 22.4Z" fill="white"/>
</g>
</g>
<path d="M22.01 68.26L19.66 75H18.64L16.36 68.26H17.23L18.11 70.93L19.16 74.27C19.42 73.43 19.78 72.3167 20.24 70.93L21.14 68.26H22.01ZM25.1572 75.09C24.4305 75.09 23.8539 74.8467 23.4272 74.36C23.0072 73.8667 22.7972 73.2467 22.7972 72.5C22.7972 71.7467 23.0139 71.12 23.4472 70.62C23.8872 70.1133 24.4572 69.86 25.1572 69.86C25.9239 69.86 26.5139 70.1067 26.9272 70.6C27.3472 71.0933 27.5572 71.72 27.5572 72.48C27.5572 73.2333 27.3439 73.8567 26.9172 74.35C26.4905 74.8433 25.9039 75.09 25.1572 75.09ZM25.1572 70.56C24.6772 70.56 24.3005 70.7467 24.0272 71.12C23.7539 71.4933 23.6172 71.95 23.6172 72.49C23.6172 73.0167 23.7572 73.4667 24.0372 73.84C24.3172 74.2067 24.6905 74.39 25.1572 74.39C25.6639 74.39 26.0539 74.21 26.3272 73.85C26.6005 73.4833 26.7372 73.03 26.7372 72.49C26.7372 71.93 26.6072 71.47 26.3472 71.11C26.0872 70.7433 25.6905 70.56 25.1572 70.56ZM28.7524 75V67.93H29.5424V75H28.7524ZM34.1964 69.93H34.9864V75H34.1964V74.12C33.9297 74.7467 33.3997 75.06 32.6064 75.06C32.1064 75.06 31.7097 74.9133 31.4164 74.62C31.1297 74.32 30.9864 73.92 30.9864 73.42V69.93H31.7764V73.22C31.7764 73.5867 31.8697 73.8667 32.0564 74.06C32.2431 74.2533 32.4964 74.35 32.8164 74.35C33.2364 74.35 33.5697 74.2033 33.8164 73.91C34.0697 73.6167 34.1964 73.22 34.1964 72.72V69.93ZM37.2268 69.93V70.75C37.5068 70.1567 37.9835 69.86 38.6568 69.86C39.4368 69.86 39.9301 70.19 40.1368 70.85C40.2835 70.53 40.4868 70.2867 40.7468 70.12C41.0135 69.9467 41.3101 69.86 41.6368 69.86C42.1635 69.86 42.5601 70.01 42.8268 70.31C43.0935 70.61 43.2268 71.0133 43.2268 71.52V75H42.4368V71.72C42.4368 70.9533 42.1135 70.57 41.4668 70.57C41.1468 70.57 40.8601 70.7167 40.6068 71.01C40.3535 71.2967 40.2268 71.7033 40.2268 72.23V75H39.4368V71.72C39.4368 70.9533 39.1135 70.57 38.4668 70.57C38.1468 70.57 37.8601 70.7167 37.6068 71.01C37.3535 71.2967 37.2268 71.7033 37.2268 72.23V75H36.4468V69.93H37.2268ZM47.8604 72.14V71.94C47.8604 71.52 47.7471 71.1867 47.5204 70.94C47.2937 70.6867 46.9804 70.56 46.5804 70.56C46.2004 70.56 45.8771 70.6967 45.6104 70.97C45.3437 71.2433 45.1871 71.6333 45.1404 72.14H47.8604ZM48.3304 74V74.74C47.9371 74.9467 47.4571 75.05 46.8904 75.05C46.1237 75.05 45.5037 74.8167 45.0304 74.35C44.5637 73.8767 44.3304 73.2533 44.3304 72.48C44.3304 71.6733 44.5404 71.0367 44.9604 70.57C45.3804 70.1033 45.9204 69.87 46.5804 69.87C47.2137 69.87 47.7171 70.0733 48.0904 70.48C48.4637 70.8867 48.6504 71.4633 48.6504 72.21C48.6504 72.4233 48.6337 72.62 48.6004 72.8H45.1404C45.2004 73.3 45.3904 73.6833 45.7104 73.95C46.0304 74.2167 46.4504 74.35 46.9704 74.35C47.5371 74.35 47.9904 74.2333 48.3304 74ZM55.8664 68.51V69.36C55.4597 69.0933 54.9731 68.96 54.4064 68.96C53.9997 68.96 53.6764 69.0567 53.4364 69.25C53.1964 69.4367 53.0764 69.6833 53.0764 69.99C53.0764 70.15 53.1064 70.2933 53.1664 70.42C53.2331 70.5467 53.3464 70.6667 53.5064 70.78C53.6664 70.8867 53.8031 70.97 53.9164 71.03C54.0297 71.0833 54.2064 71.1633 54.4464 71.27C54.6731 71.37 54.8464 71.45 54.9664 71.51C55.0864 71.5633 55.2397 71.6533 55.4264 71.78C55.6197 71.9 55.7631 72.02 55.8564 72.14C55.9564 72.2533 56.0431 72.4067 56.1164 72.6C56.1964 72.7867 56.2364 72.99 56.2364 73.21C56.2364 73.8033 56.0331 74.2633 55.6264 74.59C55.2197 74.91 54.6964 75.07 54.0564 75.07C53.3497 75.07 52.7497 74.9267 52.2564 74.64V73.77C52.7431 74.1367 53.3364 74.32 54.0364 74.32C54.4564 74.32 54.7864 74.2267 55.0264 74.04C55.2664 73.8533 55.3864 73.5833 55.3864 73.23C55.3864 73.0833 55.3564 72.9533 55.2964 72.84C55.2431 72.72 55.1497 72.6133 55.0164 72.52C54.8897 72.42 54.7664 72.34 54.6464 72.28C54.5331 72.2133 54.3764 72.1333 54.1764 72.04C54.1364 72.02 54.0764 71.9933 53.9964 71.96C53.7097 71.8333 53.4897 71.73 53.3364 71.65C53.1897 71.57 53.0131 71.4533 52.8064 71.3C52.6064 71.14 52.4597 70.9567 52.3664 70.75C52.2731 70.5433 52.2264 70.3033 52.2264 70.03C52.2264 69.4567 52.4297 69.01 52.8364 68.69C53.2497 68.3633 53.7664 68.2 54.3864 68.2C54.9664 68.2 55.4597 68.3033 55.8664 68.51ZM60.6905 69.93H61.4805V75H60.6905V74.12C60.4239 74.7467 59.8939 75.06 59.1005 75.06C58.6005 75.06 58.2039 74.9133 57.9105 74.62C57.6239 74.32 57.4805 73.92 57.4805 73.42V69.93H58.2705V73.22C58.2705 73.5867 58.3639 73.8667 58.5505 74.06C58.7372 74.2533 58.9905 74.35 59.3105 74.35C59.7305 74.35 60.0639 74.2033 60.3105 73.91C60.5639 73.6167 60.6905 73.22 60.6905 72.72V69.93ZM65.6709 72.66H64.7909C64.3643 72.66 64.0443 72.7433 63.8309 72.91C63.6176 73.0767 63.5109 73.2867 63.5109 73.54C63.5109 73.7933 63.5943 74 63.7609 74.16C63.9276 74.3133 64.1709 74.39 64.4909 74.39C64.8509 74.39 65.1376 74.29 65.3509 74.09C65.5643 73.8833 65.6709 73.6233 65.6709 73.31V72.66ZM63.0509 70.99V70.2C63.4309 69.9667 63.9309 69.85 64.5509 69.85C65.8243 69.85 66.4609 70.4967 66.4609 71.79V75H65.6809V74.4C65.4209 74.8333 64.9476 75.05 64.2609 75.05C63.7876 75.05 63.4043 74.91 63.1109 74.63C62.8243 74.35 62.6809 73.9967 62.6809 73.57C62.6809 73.0833 62.8643 72.7067 63.2309 72.44C63.6043 72.1667 64.1109 72.03 64.7509 72.03H65.6709V71.77C65.6709 71.37 65.5809 71.07 65.4009 70.87C65.2209 70.6633 64.9176 70.56 64.4909 70.56C63.9509 70.56 63.4709 70.7033 63.0509 70.99ZM68.6428 69.93V70.82C68.9095 70.1933 69.3695 69.88 70.0228 69.88C70.1428 69.88 70.2361 69.8867 70.3028 69.9V70.68C70.1628 70.6333 70.0195 70.61 69.8728 70.61C69.5195 70.61 69.2261 70.7733 68.9928 71.1C68.7595 71.4267 68.6428 71.8033 68.6428 72.23V75H67.8528L67.8628 69.93H68.6428ZM73.8545 72.66H72.9745C72.5479 72.66 72.2279 72.7433 72.0145 72.91C71.8012 73.0767 71.6945 73.2867 71.6945 73.54C71.6945 73.7933 71.7779 74 71.9445 74.16C72.1112 74.3133 72.3545 74.39 72.6745 74.39C73.0345 74.39 73.3212 74.29 73.5345 74.09C73.7479 73.8833 73.8545 73.6233 73.8545 73.31V72.66ZM71.2345 70.99V70.2C71.6145 69.9667 72.1145 69.85 72.7345 69.85C74.0079 69.85 74.6445 70.4967 74.6445 71.79V75H73.8645V74.4C73.6045 74.8333 73.1312 75.05 72.4445 75.05C71.9712 75.05 71.5879 74.91 71.2945 74.63C71.0079 74.35 70.8645 73.9967 70.8645 73.57C70.8645 73.0833 71.0479 72.7067 71.4145 72.44C71.7879 72.1667 72.2945 72.03 72.9345 72.03H73.8545V71.77C73.8545 71.37 73.7645 71.07 73.5845 70.87C73.4045 70.6633 73.1012 70.56 72.6745 70.56C72.1345 70.56 71.6545 70.7033 71.2345 70.99Z" fill="#2B2B2B"/>
<g clip-path="url(#clip2_1124_4113)">
<rect x="96" y="67.5" width="224" height="6" rx="3" fill="#F1F1F1"/>
<rect x="-119" y="67.5" width="224" height="6" rx="3" fill="#FF6678"/>
</g>
<circle cx="102" cy="70.5" r="5.5" fill="#FF1934" stroke="white"/>
<g clip-path="url(#clip3_1124_4113)">
<path d="M325.41 69.71C325.41 68.6833 325.613 67.87 326.02 67.27C326.433 66.6633 326.997 66.36 327.71 66.36C328.437 66.36 329.007 66.66 329.42 67.26C329.833 67.86 330.04 68.6767 330.04 69.71C330.04 70.73 329.837 71.5467 329.43 72.16C329.03 72.7733 328.457 73.08 327.71 73.08C326.997 73.08 326.433 72.7733 326.02 72.16C325.613 71.5467 325.41 70.73 325.41 69.71ZM326.78 67.91C326.533 68.33 326.41 68.93 326.41 69.71C326.41 70.49 326.53 71.0967 326.77 71.53C327.017 71.9567 327.33 72.17 327.71 72.17C328.123 72.17 328.447 71.9567 328.68 71.53C328.913 71.1033 329.03 70.4967 329.03 69.71C329.03 68.9167 328.907 68.3133 328.66 67.9C328.42 67.48 328.103 67.27 327.71 67.27C327.337 67.27 327.027 67.4833 326.78 67.91ZM335.03 73.01L338.67 66.23H339.6L335.95 73.01H335.03ZM337.92 71.4C337.92 70.94 338.083 70.5467 338.41 70.22C338.737 69.8867 339.133 69.72 339.6 69.72C340.06 69.72 340.453 69.8867 340.78 70.22C341.107 70.5467 341.27 70.94 341.27 71.4C341.27 71.8667 341.107 72.2633 340.78 72.59C340.453 72.91 340.06 73.07 339.6 73.07C339.133 73.07 338.737 72.91 338.41 72.59C338.083 72.2633 337.92 71.8667 337.92 71.4ZM333.39 67.8C333.39 67.34 333.553 66.9467 333.88 66.62C334.207 66.2933 334.6 66.13 335.06 66.13C335.527 66.13 335.923 66.2933 336.25 66.62C336.577 66.9467 336.74 67.34 336.74 67.8C336.74 68.2667 336.577 68.6633 336.25 68.99C335.923 69.3167 335.527 69.48 335.06 69.48C334.6 69.48 334.207 69.3167 333.88 68.99C333.553 68.6633 333.39 68.2667 333.39 67.8ZM334.22 67.8C334.22 68.0333 334.3 68.2333 334.46 68.4C334.627 68.5667 334.827 68.65 335.06 68.65C335.293 68.65 335.493 68.5667 335.66 68.4C335.827 68.2333 335.91 68.0333 335.91 67.8C335.91 67.5667 335.827 67.37 335.66 67.21C335.493 67.0433 335.293 66.96 335.06 66.96C334.827 66.96 334.627 67.0433 334.46 67.21C334.3 67.3767 334.22 67.5733 334.22 67.8ZM339 70.8C338.833 70.9667 338.75 71.1667 338.75 71.4C338.75 71.6333 338.833 71.8333 339 72C339.167 72.1667 339.367 72.25 339.6 72.25C339.833 72.25 340.03 72.1667 340.19 72C340.357 71.8333 340.44 71.6333 340.44 71.4C340.44 71.1667 340.357 70.9667 340.19 70.8C340.03 70.6333 339.833 70.55 339.6 70.55C339.367 70.55 339.167 70.6333 339 70.8ZM325.16 84.48V83.43L326.79 82.46H327.68V89H326.71V83.53L325.16 84.48ZM328.808 85.71C328.808 84.6833 329.012 83.87 329.418 83.27C329.832 82.6633 330.395 82.36 331.108 82.36C331.835 82.36 332.405 82.66 332.818 83.26C333.232 83.86 333.438 84.6767 333.438 85.71C333.438 86.73 333.235 87.5467 332.828 88.16C332.428 88.7733 331.855 89.08 331.108 89.08C330.395 89.08 329.832 88.7733 329.418 88.16C329.012 87.5467 328.808 86.73 328.808 85.71ZM330.178 83.91C329.932 84.33 329.808 84.93 329.808 85.71C329.808 86.49 329.928 87.0967 330.168 87.53C330.415 87.9567 330.728 88.17 331.108 88.17C331.522 88.17 331.845 87.9567 332.078 87.53C332.312 87.1033 332.428 86.4967 332.428 85.71C332.428 84.9167 332.305 84.3133 332.058 83.9C331.818 83.48 331.502 83.27 331.108 83.27C330.735 83.27 330.425 83.4833 330.178 83.91ZM338.429 89.01L342.069 82.23H342.999L339.349 89.01H338.429ZM341.319 87.4C341.319 86.94 341.482 86.5467 341.809 86.22C342.135 85.8867 342.532 85.72 342.999 85.72C343.459 85.72 343.852 85.8867 344.179 86.22C344.505 86.5467 344.669 86.94 344.669 87.4C344.669 87.8667 344.505 88.2633 344.179 88.59C343.852 88.91 343.459 89.07 342.999 89.07C342.532 89.07 342.135 88.91 341.809 88.59C341.482 88.2633 341.319 87.8667 341.319 87.4ZM336.789 83.8C336.789 83.34 336.952 82.9467 337.279 82.62C337.605 82.2933 337.999 82.13 338.459 82.13C338.925 82.13 339.322 82.2933 339.649 82.62C339.975 82.9467 340.139 83.34 340.139 83.8C340.139 84.2667 339.975 84.6633 339.649 84.99C339.322 85.3167 338.925 85.48 338.459 85.48C337.999 85.48 337.605 85.3167 337.279 84.99C336.952 84.6633 336.789 84.2667 336.789 83.8ZM337.619 83.8C337.619 84.0333 337.699 84.2333 337.859 84.4C338.025 84.5667 338.225 84.65 338.459 84.65C338.692 84.65 338.892 84.5667 339.059 84.4C339.225 84.2333 339.309 84.0333 339.309 83.8C339.309 83.5667 339.225 83.37 339.059 83.21C338.892 83.0433 338.692 82.96 338.459 82.96C338.225 82.96 338.025 83.0433 337.859 83.21C337.699 83.3767 337.619 83.5733 337.619 83.8ZM342.399 86.8C342.232 86.9667 342.149 87.1667 342.149 87.4C342.149 87.6333 342.232 87.8333 342.399 88C342.565 88.1667 342.765 88.25 342.999 88.25C343.232 88.25 343.429 88.1667 343.589 88C343.755 87.8333 343.839 87.6333 343.839 87.4C343.839 87.1667 343.755 86.9667 343.589 86.8C343.429 86.6333 343.232 86.55 342.999 86.55C342.765 86.55 342.565 86.6333 342.399 86.8ZM326.71 104.15H329.55V105H325.36V104.19C326.2 103.577 326.907 102.943 327.48 102.29C328.06 101.63 328.35 101.03 328.35 100.49C328.35 100.11 328.24 99.82 328.02 99.62C327.8 99.4133 327.497 99.31 327.11 99.31C326.577 99.31 326.053 99.51 325.54 99.91V98.94C326.02 98.5733 326.59 98.39 327.25 98.39C327.863 98.39 328.37 98.5633 328.77 98.91C329.17 99.25 329.37 99.7367 329.37 100.37C329.37 101.543 328.483 102.803 326.71 104.15ZM330.371 101.71C330.371 100.683 330.574 99.87 330.981 99.27C331.394 98.6633 331.958 98.36 332.671 98.36C333.398 98.36 333.968 98.66 334.381 99.26C334.794 99.86 335.001 100.677 335.001 101.71C335.001 102.73 334.798 103.547 334.391 104.16C333.991 104.773 333.418 105.08 332.671 105.08C331.958 105.08 331.394 104.773 330.981 104.16C330.574 103.547 330.371 102.73 330.371 101.71ZM331.741 99.91C331.494 100.33 331.371 100.93 331.371 101.71C331.371 102.49 331.491 103.097 331.731 103.53C331.978 103.957 332.291 104.17 332.671 104.17C333.084 104.17 333.408 103.957 333.641 103.53C333.874 103.103 333.991 102.497 333.991 101.71C333.991 100.917 333.868 100.313 333.621 99.9C333.381 99.48 333.064 99.27 332.671 99.27C332.298 99.27 331.988 99.4833 331.741 99.91ZM339.991 105.01L343.631 98.23H344.561L340.911 105.01H339.991ZM342.881 103.4C342.881 102.94 343.044 102.547 343.371 102.22C343.698 101.887 344.094 101.72 344.561 101.72C345.021 101.72 345.414 101.887 345.741 102.22C346.068 102.547 346.231 102.94 346.231 103.4C346.231 103.867 346.068 104.263 345.741 104.59C345.414 104.91 345.021 105.07 344.561 105.07C344.094 105.07 343.698 104.91 343.371 104.59C343.044 104.263 342.881 103.867 342.881 103.4ZM338.351 99.8C338.351 99.34 338.514 98.9467 338.841 98.62C339.168 98.2933 339.561 98.13 340.021 98.13C340.488 98.13 340.884 98.2933 341.211 98.62C341.538 98.9467 341.701 99.34 341.701 99.8C341.701 100.267 341.538 100.663 341.211 100.99C340.884 101.317 340.488 101.48 340.021 101.48C339.561 101.48 339.168 101.317 338.841 100.99C338.514 100.663 338.351 100.267 338.351 99.8ZM339.181 99.8C339.181 100.033 339.261 100.233 339.421 100.4C339.588 100.567 339.788 100.65 340.021 100.65C340.254 100.65 340.454 100.567 340.621 100.4C340.788 100.233 340.871 100.033 340.871 99.8C340.871 99.5667 340.788 99.37 340.621 99.21C340.454 99.0433 340.254 98.96 340.021 98.96C339.788 98.96 339.588 99.0433 339.421 99.21C339.261 99.3767 339.181 99.5733 339.181 99.8ZM343.961 102.8C343.794 102.967 343.711 103.167 343.711 103.4C343.711 103.633 343.794 103.833 343.961 104C344.128 104.167 344.328 104.25 344.561 104.25C344.794 104.25 344.991 104.167 345.151 104C345.318 103.833 345.401 103.633 345.401 103.4C345.401 103.167 345.318 102.967 345.151 102.8C344.991 102.633 344.794 102.55 344.561 102.55C344.328 102.55 344.128 102.633 343.961 102.8ZM325.57 115.7V114.75C325.983 114.51 326.443 114.39 326.95 114.39C327.617 114.39 328.137 114.557 328.51 114.89C328.89 115.217 329.08 115.63 329.08 116.13C329.08 116.49 328.99 116.807 328.81 117.08C328.637 117.347 328.377 117.55 328.03 117.69C328.41 117.783 328.707 117.96 328.92 118.22C329.133 118.48 329.24 118.807 329.24 119.2C329.24 119.74 329.047 120.187 328.66 120.54C328.273 120.887 327.73 121.06 327.03 121.06C326.37 121.06 325.813 120.947 325.36 120.72V119.76C325.853 120.027 326.393 120.16 326.98 120.16C327.373 120.16 327.68 120.063 327.9 119.87C328.127 119.67 328.24 119.417 328.24 119.11C328.24 118.79 328.117 118.543 327.87 118.37C327.623 118.197 327.253 118.11 326.76 118.11H326.36V117.27H326.76C327.127 117.27 327.433 117.18 327.68 117C327.933 116.813 328.06 116.56 328.06 116.24C328.06 115.92 327.957 115.68 327.75 115.52C327.55 115.36 327.273 115.28 326.92 115.28C326.467 115.28 326.017 115.42 325.57 115.7ZM330.117 117.71C330.117 116.683 330.32 115.87 330.727 115.27C331.14 114.663 331.704 114.36 332.417 114.36C333.144 114.36 333.714 114.66 334.127 115.26C334.54 115.86 334.747 116.677 334.747 117.71C334.747 118.73 334.544 119.547 334.137 120.16C333.737 120.773 333.164 121.08 332.417 121.08C331.704 121.08 331.14 120.773 330.727 120.16C330.32 119.547 330.117 118.73 330.117 117.71ZM331.487 115.91C331.24 116.33 331.117 116.93 331.117 117.71C331.117 118.49 331.237 119.097 331.477 119.53C331.724 119.957 332.037 120.17 332.417 120.17C332.83 120.17 333.154 119.957 333.387 119.53C333.62 119.103 333.737 118.497 333.737 117.71C333.737 116.917 333.614 116.313 333.367 115.9C333.127 115.48 332.81 115.27 332.417 115.27C332.044 115.27 331.734 115.483 331.487 115.91ZM339.737 121.01L343.377 114.23H344.307L340.657 121.01H339.737ZM342.627 119.4C342.627 118.94 342.791 118.547 343.117 118.22C343.444 117.887 343.841 117.72 344.307 117.72C344.767 117.72 345.161 117.887 345.487 118.22C345.814 118.547 345.977 118.94 345.977 119.4C345.977 119.867 345.814 120.263 345.487 120.59C345.161 120.91 344.767 121.07 344.307 121.07C343.841 121.07 343.444 120.91 343.117 120.59C342.791 120.263 342.627 119.867 342.627 119.4ZM338.097 115.8C338.097 115.34 338.261 114.947 338.587 114.62C338.914 114.293 339.307 114.13 339.767 114.13C340.234 114.13 340.631 114.293 340.957 114.62C341.284 114.947 341.447 115.34 341.447 115.8C341.447 116.267 341.284 116.663 340.957 116.99C340.631 117.317 340.234 117.48 339.767 117.48C339.307 117.48 338.914 117.317 338.587 116.99C338.261 116.663 338.097 116.267 338.097 115.8ZM338.927 115.8C338.927 116.033 339.007 116.233 339.167 116.4C339.334 116.567 339.534 116.65 339.767 116.65C340.001 116.65 340.201 116.567 340.367 116.4C340.534 116.233 340.617 116.033 340.617 115.8C340.617 115.567 340.534 115.37 340.367 115.21C340.201 115.043 340.001 114.96 339.767 114.96C339.534 114.96 339.334 115.043 339.167 115.21C339.007 115.377 338.927 115.573 338.927 115.8ZM343.707 118.8C343.541 118.967 343.457 119.167 343.457 119.4C343.457 119.633 343.541 119.833 343.707 120C343.874 120.167 344.074 120.25 344.307 120.25C344.541 120.25 344.737 120.167 344.897 120C345.064 119.833 345.147 119.633 345.147 119.4C345.147 119.167 345.064 118.967 344.897 118.8C344.737 118.633 344.541 118.55 344.307 118.55C344.074 118.55 343.874 118.633 343.707 118.8ZM326.37 134.62H328.34V131.05L326.37 134.62ZM330.24 134.62V135.47H329.32V137H328.34V135.47H325.38V134.62L327.73 130.45H329.32V134.62H330.24ZM330.869 133.71C330.869 132.683 331.072 131.87 331.479 131.27C331.892 130.663 332.456 130.36 333.169 130.36C333.896 130.36 334.466 130.66 334.879 131.26C335.292 131.86 335.499 132.677 335.499 133.71C335.499 134.73 335.296 135.547 334.889 136.16C334.489 136.773 333.916 137.08 333.169 137.08C332.456 137.08 331.892 136.773 331.479 136.16C331.072 135.547 330.869 134.73 330.869 133.71ZM332.239 131.91C331.992 132.33 331.869 132.93 331.869 133.71C331.869 134.49 331.989 135.097 332.229 135.53C332.476 135.957 332.789 136.17 333.169 136.17C333.582 136.17 333.906 135.957 334.139 135.53C334.372 135.103 334.489 134.497 334.489 133.71C334.489 132.917 334.366 132.313 334.119 131.9C333.879 131.48 333.562 131.27 333.169 131.27C332.796 131.27 332.486 131.483 332.239 131.91ZM340.489 137.01L344.129 130.23H345.059L341.409 137.01H340.489ZM343.379 135.4C343.379 134.94 343.542 134.547 343.869 134.22C344.196 133.887 344.592 133.72 345.059 133.72C345.519 133.72 345.912 133.887 346.239 134.22C346.566 134.547 346.729 134.94 346.729 135.4C346.729 135.867 346.566 136.263 346.239 136.59C345.912 136.91 345.519 137.07 345.059 137.07C344.592 137.07 344.196 136.91 343.869 136.59C343.542 136.263 343.379 135.867 343.379 135.4ZM338.849 131.8C338.849 131.34 339.012 130.947 339.339 130.62C339.666 130.293 340.059 130.13 340.519 130.13C340.986 130.13 341.382 130.293 341.709 130.62C342.036 130.947 342.199 131.34 342.199 131.8C342.199 132.267 342.036 132.663 341.709 132.99C341.382 133.317 340.986 133.48 340.519 133.48C340.059 133.48 339.666 133.317 339.339 132.99C339.012 132.663 338.849 132.267 338.849 131.8ZM339.679 131.8C339.679 132.033 339.759 132.233 339.919 132.4C340.086 132.567 340.286 132.65 340.519 132.65C340.752 132.65 340.952 132.567 341.119 132.4C341.286 132.233 341.369 132.033 341.369 131.8C341.369 131.567 341.286 131.37 341.119 131.21C340.952 131.043 340.752 130.96 340.519 130.96C340.286 130.96 340.086 131.043 339.919 131.21C339.759 131.377 339.679 131.573 339.679 131.8ZM344.459 134.8C344.292 134.967 344.209 135.167 344.209 135.4C344.209 135.633 344.292 135.833 344.459 136C344.626 136.167 344.826 136.25 345.059 136.25C345.292 136.25 345.489 136.167 345.649 136C345.816 135.833 345.899 135.633 345.899 135.4C345.899 135.167 345.816 134.967 345.649 134.8C345.489 134.633 345.292 134.55 345.059 134.55C344.826 134.55 344.626 134.633 344.459 134.8ZM326.8 147.3V149.02C327.047 148.967 327.273 148.94 327.48 148.94C328.16 148.94 328.693 149.12 329.08 149.48C329.467 149.833 329.66 150.313 329.66 150.92C329.66 151.573 329.443 152.097 329.01 152.49C328.583 152.877 327.987 153.07 327.22 153.07C326.533 153.07 325.967 152.957 325.52 152.73V151.78C325.947 152.04 326.46 152.17 327.06 152.17C328.113 152.17 328.64 151.743 328.64 150.89C328.64 150.55 328.52 150.287 328.28 150.1C328.047 149.907 327.73 149.81 327.33 149.81C326.823 149.81 326.323 149.927 325.83 150.16V146.45H329.22V147.3H326.8ZM330.478 149.71C330.478 148.683 330.682 147.87 331.088 147.27C331.502 146.663 332.065 146.36 332.778 146.36C333.505 146.36 334.075 146.66 334.488 147.26C334.902 147.86 335.108 148.677 335.108 149.71C335.108 150.73 334.905 151.547 334.498 152.16C334.098 152.773 333.525 153.08 332.778 153.08C332.065 153.08 331.502 152.773 331.088 152.16C330.682 151.547 330.478 150.73 330.478 149.71ZM331.848 147.91C331.602 148.33 331.478 148.93 331.478 149.71C331.478 150.49 331.598 151.097 331.838 151.53C332.085 151.957 332.398 152.17 332.778 152.17C333.192 152.17 333.515 151.957 333.748 151.53C333.982 151.103 334.098 150.497 334.098 149.71C334.098 148.917 333.975 148.313 333.728 147.9C333.488 147.48 333.172 147.27 332.778 147.27C332.405 147.27 332.095 147.483 331.848 147.91ZM340.099 153.01L343.739 146.23H344.669L341.019 153.01H340.099ZM342.989 151.4C342.989 150.94 343.152 150.547 343.479 150.22C343.805 149.887 344.202 149.72 344.669 149.72C345.129 149.72 345.522 149.887 345.849 150.22C346.175 150.547 346.339 150.94 346.339 151.4C346.339 151.867 346.175 152.263 345.849 152.59C345.522 152.91 345.129 153.07 344.669 153.07C344.202 153.07 343.805 152.91 343.479 152.59C343.152 152.263 342.989 151.867 342.989 151.4ZM338.459 147.8C338.459 147.34 338.622 146.947 338.949 146.62C339.275 146.293 339.669 146.13 340.129 146.13C340.595 146.13 340.992 146.293 341.319 146.62C341.645 146.947 341.809 147.34 341.809 147.8C341.809 148.267 341.645 148.663 341.319 148.99C340.992 149.317 340.595 149.48 340.129 149.48C339.669 149.48 339.275 149.317 338.949 148.99C338.622 148.663 338.459 148.267 338.459 147.8ZM339.289 147.8C339.289 148.033 339.369 148.233 339.529 148.4C339.695 148.567 339.895 148.65 340.129 148.65C340.362 148.65 340.562 148.567 340.729 148.4C340.895 148.233 340.979 148.033 340.979 147.8C340.979 147.567 340.895 147.37 340.729 147.21C340.562 147.043 340.362 146.96 340.129 146.96C339.895 146.96 339.695 147.043 339.529 147.21C339.369 147.377 339.289 147.573 339.289 147.8ZM344.069 150.8C343.902 150.967 343.819 151.167 343.819 151.4C343.819 151.633 343.902 151.833 344.069 152C344.235 152.167 344.435 152.25 344.669 152.25C344.902 152.25 345.099 152.167 345.259 152C345.425 151.833 345.509 151.633 345.509 151.4C345.509 151.167 345.425 150.967 345.259 150.8C345.099 150.633 344.902 150.55 344.669 150.55C344.435 150.55 344.235 150.633 344.069 150.8ZM327.83 168.24C328.177 168.24 328.45 168.117 328.65 167.87C328.85 167.617 328.95 167.287 328.95 166.88C328.95 166.5 328.85 166.2 328.65 165.98C328.45 165.76 328.183 165.65 327.85 165.65C327.33 165.65 326.87 165.867 326.47 166.3C326.497 166.947 326.633 167.433 326.88 167.76C327.133 168.08 327.45 168.24 327.83 168.24ZM329.49 162.44V163.39C329.23 163.257 328.927 163.19 328.58 163.19C327.993 163.19 327.523 163.4 327.17 163.82C326.817 164.233 326.593 164.767 326.5 165.42C326.933 165 327.447 164.79 328.04 164.79C328.633 164.79 329.1 164.98 329.44 165.36C329.787 165.74 329.96 166.243 329.96 166.87C329.96 167.537 329.767 168.08 329.38 168.5C328.993 168.92 328.473 169.13 327.82 169.13C327.06 169.13 326.477 168.847 326.07 168.28C325.67 167.713 325.47 166.963 325.47 166.03C325.47 164.937 325.747 164.04 326.3 163.34C326.86 162.64 327.607 162.29 328.54 162.29C328.873 162.29 329.19 162.34 329.49 162.44ZM330.703 165.71C330.703 164.683 330.906 163.87 331.313 163.27C331.726 162.663 332.29 162.36 333.003 162.36C333.73 162.36 334.3 162.66 334.713 163.26C335.126 163.86 335.333 164.677 335.333 165.71C335.333 166.73 335.13 167.547 334.723 168.16C334.323 168.773 333.75 169.08 333.003 169.08C332.29 169.08 331.726 168.773 331.313 168.16C330.906 167.547 330.703 166.73 330.703 165.71ZM332.073 163.91C331.826 164.33 331.703 164.93 331.703 165.71C331.703 166.49 331.823 167.097 332.063 167.53C332.31 167.957 332.623 168.17 333.003 168.17C333.416 168.17 333.74 167.957 333.973 167.53C334.206 167.103 334.323 166.497 334.323 165.71C334.323 164.917 334.2 164.313 333.953 163.9C333.713 163.48 333.396 163.27 333.003 163.27C332.63 163.27 332.32 163.483 332.073 163.91ZM340.323 169.01L343.963 162.23H344.893L341.243 169.01H340.323ZM343.213 167.4C343.213 166.94 343.376 166.547 343.703 166.22C344.03 165.887 344.426 165.72 344.893 165.72C345.353 165.72 345.746 165.887 346.073 166.22C346.4 166.547 346.563 166.94 346.563 167.4C346.563 167.867 346.4 168.263 346.073 168.59C345.746 168.91 345.353 169.07 344.893 169.07C344.426 169.07 344.03 168.91 343.703 168.59C343.376 168.263 343.213 167.867 343.213 167.4ZM338.683 163.8C338.683 163.34 338.846 162.947 339.173 162.62C339.5 162.293 339.893 162.13 340.353 162.13C340.82 162.13 341.216 162.293 341.543 162.62C341.87 162.947 342.033 163.34 342.033 163.8C342.033 164.267 341.87 164.663 341.543 164.99C341.216 165.317 340.82 165.48 340.353 165.48C339.893 165.48 339.5 165.317 339.173 164.99C338.846 164.663 338.683 164.267 338.683 163.8ZM339.513 163.8C339.513 164.033 339.593 164.233 339.753 164.4C339.92 164.567 340.12 164.65 340.353 164.65C340.586 164.65 340.786 164.567 340.953 164.4C341.12 164.233 341.203 164.033 341.203 163.8C341.203 163.567 341.12 163.37 340.953 163.21C340.786 163.043 340.586 162.96 340.353 162.96C340.12 162.96 339.92 163.043 339.753 163.21C339.593 163.377 339.513 163.573 339.513 163.8ZM344.293 166.8C344.126 166.967 344.043 167.167 344.043 167.4C344.043 167.633 344.126 167.833 344.293 168C344.46 168.167 344.66 168.25 344.893 168.25C345.126 168.25 345.323 168.167 345.483 168C345.65 167.833 345.733 167.633 345.733 167.4C345.733 167.167 345.65 166.967 345.483 166.8C345.323 166.633 345.126 166.55 344.893 166.55C344.66 166.55 344.46 166.633 344.293 166.8ZM325.14 178.46H329.45V179.31L326.79 185H325.74L328.41 179.31H325.14V178.46ZM330 181.71C330 180.683 330.203 179.87 330.61 179.27C331.023 178.663 331.587 178.36 332.3 178.36C333.027 178.36 333.597 178.66 334.01 179.26C334.423 179.86 334.63 180.677 334.63 181.71C334.63 182.73 334.427 183.547 334.02 184.16C333.62 184.773 333.047 185.08 332.3 185.08C331.587 185.08 331.023 184.773 330.61 184.16C330.203 183.547 330 182.73 330 181.71ZM331.37 179.91C331.123 180.33 331 180.93 331 181.71C331 182.49 331.12 183.097 331.36 183.53C331.607 183.957 331.92 184.17 332.3 184.17C332.713 184.17 333.037 183.957 333.27 183.53C333.503 183.103 333.62 182.497 333.62 181.71C333.62 180.917 333.497 180.313 333.25 179.9C333.01 179.48 332.693 179.27 332.3 179.27C331.927 179.27 331.617 179.483 331.37 179.91ZM339.62 185.01L343.26 178.23H344.19L340.54 185.01H339.62ZM342.51 183.4C342.51 182.94 342.673 182.547 343 182.22C343.327 181.887 343.723 181.72 344.19 181.72C344.65 181.72 345.043 181.887 345.37 182.22C345.697 182.547 345.86 182.94 345.86 183.4C345.86 183.867 345.697 184.263 345.37 184.59C345.043 184.91 344.65 185.07 344.19 185.07C343.723 185.07 343.327 184.91 343 184.59C342.673 184.263 342.51 183.867 342.51 183.4ZM337.98 179.8C337.98 179.34 338.143 178.947 338.47 178.62C338.797 178.293 339.19 178.13 339.65 178.13C340.117 178.13 340.513 178.293 340.84 178.62C341.167 178.947 341.33 179.34 341.33 179.8C341.33 180.267 341.167 180.663 340.84 180.99C340.513 181.317 340.117 181.48 339.65 181.48C339.19 181.48 338.797 181.317 338.47 180.99C338.143 180.663 337.98 180.267 337.98 179.8ZM338.81 179.8C338.81 180.033 338.89 180.233 339.05 180.4C339.217 180.567 339.417 180.65 339.65 180.65C339.883 180.65 340.083 180.567 340.25 180.4C340.417 180.233 340.5 180.033 340.5 179.8C340.5 179.567 340.417 179.37 340.25 179.21C340.083 179.043 339.883 178.96 339.65 178.96C339.417 178.96 339.217 179.043 339.05 179.21C338.89 179.377 338.81 179.573 338.81 179.8ZM343.59 182.8C343.423 182.967 343.34 183.167 343.34 183.4C343.34 183.633 343.423 183.833 343.59 184C343.757 184.167 343.957 184.25 344.19 184.25C344.423 184.25 344.62 184.167 344.78 184C344.947 183.833 345.03 183.633 345.03 183.4C345.03 183.167 344.947 182.967 344.78 182.8C344.62 182.633 344.423 182.55 344.19 182.55C343.957 182.55 343.757 182.633 343.59 182.8ZM327.67 200.25C328.077 200.25 328.387 200.15 328.6 199.95C328.82 199.75 328.93 199.503 328.93 199.21C328.93 198.917 328.823 198.67 328.61 198.47C328.397 198.27 328.083 198.17 327.67 198.17C327.27 198.177 326.967 198.287 326.76 198.5C326.56 198.707 326.46 198.963 326.46 199.27C326.46 199.55 326.563 199.783 326.77 199.97C326.977 200.157 327.277 200.25 327.67 200.25ZM327.66 195.21C327.32 195.21 327.053 195.31 326.86 195.51C326.667 195.71 326.57 195.953 326.57 196.24C326.57 196.58 326.673 196.84 326.88 197.02C327.093 197.193 327.367 197.28 327.7 197.28C328.013 197.28 328.27 197.19 328.47 197.01C328.677 196.823 328.78 196.563 328.78 196.23C328.78 195.937 328.687 195.693 328.5 195.5C328.32 195.307 328.04 195.21 327.66 195.21ZM328.8 197.71C329.547 197.963 329.92 198.48 329.92 199.26C329.92 199.813 329.707 200.257 329.28 200.59C328.853 200.923 328.313 201.09 327.66 201.09C327.02 201.09 326.493 200.93 326.08 200.61C325.667 200.283 325.46 199.85 325.46 199.31C325.46 198.537 325.83 198.007 326.57 197.72C326.257 197.587 326.01 197.393 325.83 197.14C325.657 196.887 325.57 196.59 325.57 196.25C325.57 195.663 325.773 195.203 326.18 194.87C326.587 194.537 327.08 194.37 327.66 194.37C328.26 194.37 328.763 194.533 329.17 194.86C329.577 195.18 329.78 195.647 329.78 196.26C329.78 196.92 329.453 197.403 328.8 197.71ZM330.791 197.71C330.791 196.683 330.994 195.87 331.401 195.27C331.814 194.663 332.378 194.36 333.091 194.36C333.818 194.36 334.388 194.66 334.801 195.26C335.214 195.86 335.421 196.677 335.421 197.71C335.421 198.73 335.218 199.547 334.811 200.16C334.411 200.773 333.838 201.08 333.091 201.08C332.378 201.08 331.814 200.773 331.401 200.16C330.994 199.547 330.791 198.73 330.791 197.71ZM332.161 195.91C331.914 196.33 331.791 196.93 331.791 197.71C331.791 198.49 331.911 199.097 332.151 199.53C332.398 199.957 332.711 200.17 333.091 200.17C333.504 200.17 333.828 199.957 334.061 199.53C334.294 199.103 334.411 198.497 334.411 197.71C334.411 196.917 334.288 196.313 334.041 195.9C333.801 195.48 333.484 195.27 333.091 195.27C332.718 195.27 332.408 195.483 332.161 195.91ZM340.411 201.01L344.051 194.23H344.981L341.331 201.01H340.411ZM343.301 199.4C343.301 198.94 343.464 198.547 343.791 198.22C344.118 197.887 344.514 197.72 344.981 197.72C345.441 197.72 345.834 197.887 346.161 198.22C346.488 198.547 346.651 198.94 346.651 199.4C346.651 199.867 346.488 200.263 346.161 200.59C345.834 200.91 345.441 201.07 344.981 201.07C344.514 201.07 344.118 200.91 343.791 200.59C343.464 200.263 343.301 199.867 343.301 199.4ZM338.771 195.8C338.771 195.34 338.934 194.947 339.261 194.62C339.588 194.293 339.981 194.13 340.441 194.13C340.908 194.13 341.304 194.293 341.631 194.62C341.958 194.947 342.121 195.34 342.121 195.8C342.121 196.267 341.958 196.663 341.631 196.99C341.304 197.317 340.908 197.48 340.441 197.48C339.981 197.48 339.588 197.317 339.261 196.99C338.934 196.663 338.771 196.267 338.771 195.8ZM339.601 195.8C339.601 196.033 339.681 196.233 339.841 196.4C340.008 196.567 340.208 196.65 340.441 196.65C340.674 196.65 340.874 196.567 341.041 196.4C341.208 196.233 341.291 196.033 341.291 195.8C341.291 195.567 341.208 195.37 341.041 195.21C340.874 195.043 340.674 194.96 340.441 194.96C340.208 194.96 340.008 195.043 339.841 195.21C339.681 195.377 339.601 195.573 339.601 195.8ZM344.381 198.8C344.214 198.967 344.131 199.167 344.131 199.4C344.131 199.633 344.214 199.833 344.381 200C344.548 200.167 344.748 200.25 344.981 200.25C345.214 200.25 345.411 200.167 345.571 200C345.738 199.833 345.821 199.633 345.821 199.4C345.821 199.167 345.738 198.967 345.571 198.8C345.411 198.633 345.214 198.55 344.981 198.55C344.748 198.55 344.548 198.633 344.381 198.8ZM327.52 213.84C328.027 213.84 328.437 213.643 328.75 213.25C328.737 212.643 328.623 212.163 328.41 211.81C328.203 211.45 327.89 211.27 327.47 211.27C327.123 211.27 326.847 211.387 326.64 211.62C326.433 211.847 326.33 212.157 326.33 212.55C326.33 212.95 326.437 213.267 326.65 213.5C326.87 213.727 327.16 213.84 327.52 213.84ZM325.65 216.89V215.94C325.99 216.093 326.35 216.17 326.73 216.17C327.877 216.17 328.537 215.49 328.71 214.13C328.39 214.497 327.913 214.68 327.28 214.68C326.733 214.68 326.267 214.487 325.88 214.1C325.5 213.713 325.31 213.203 325.31 212.57C325.31 211.937 325.5 211.413 325.88 211C326.26 210.587 326.777 210.38 327.43 210.38C328.177 210.38 328.743 210.657 329.13 211.21C329.523 211.757 329.72 212.467 329.72 213.34C329.72 214.527 329.467 215.447 328.96 216.1C328.46 216.753 327.74 217.08 326.8 217.08C326.373 217.08 325.99 217.017 325.65 216.89ZM330.527 213.71C330.527 212.683 330.731 211.87 331.137 211.27C331.551 210.663 332.114 210.36 332.827 210.36C333.554 210.36 334.124 210.66 334.537 211.26C334.951 211.86 335.157 212.677 335.157 213.71C335.157 214.73 334.954 215.547 334.547 216.16C334.147 216.773 333.574 217.08 332.827 217.08C332.114 217.08 331.551 216.773 331.137 216.16C330.731 215.547 330.527 214.73 330.527 213.71ZM331.897 211.91C331.651 212.33 331.527 212.93 331.527 213.71C331.527 214.49 331.647 215.097 331.887 215.53C332.134 215.957 332.447 216.17 332.827 216.17C333.241 216.17 333.564 215.957 333.797 215.53C334.031 215.103 334.147 214.497 334.147 213.71C334.147 212.917 334.024 212.313 333.777 211.9C333.537 211.48 333.221 211.27 332.827 211.27C332.454 211.27 332.144 211.483 331.897 211.91ZM340.147 217.01L343.787 210.23H344.717L341.067 217.01H340.147ZM343.037 215.4C343.037 214.94 343.201 214.547 343.527 214.22C343.854 213.887 344.251 213.72 344.717 213.72C345.177 213.72 345.571 213.887 345.897 214.22C346.224 214.547 346.387 214.94 346.387 215.4C346.387 215.867 346.224 216.263 345.897 216.59C345.571 216.91 345.177 217.07 344.717 217.07C344.251 217.07 343.854 216.91 343.527 216.59C343.201 216.263 343.037 215.867 343.037 215.4ZM338.507 211.8C338.507 211.34 338.671 210.947 338.997 210.62C339.324 210.293 339.717 210.13 340.177 210.13C340.644 210.13 341.041 210.293 341.367 210.62C341.694 210.947 341.857 211.34 341.857 211.8C341.857 212.267 341.694 212.663 341.367 212.99C341.041 213.317 340.644 213.48 340.177 213.48C339.717 213.48 339.324 213.317 338.997 212.99C338.671 212.663 338.507 212.267 338.507 211.8ZM339.337 211.8C339.337 212.033 339.417 212.233 339.577 212.4C339.744 212.567 339.944 212.65 340.177 212.65C340.411 212.65 340.611 212.567 340.777 212.4C340.944 212.233 341.027 212.033 341.027 211.8C341.027 211.567 340.944 211.37 340.777 211.21C340.611 211.043 340.411 210.96 340.177 210.96C339.944 210.96 339.744 211.043 339.577 211.21C339.417 211.377 339.337 211.573 339.337 211.8ZM344.117 214.8C343.951 214.967 343.867 215.167 343.867 215.4C343.867 215.633 343.951 215.833 344.117 216C344.284 216.167 344.484 216.25 344.717 216.25C344.951 216.25 345.147 216.167 345.307 216C345.474 215.833 345.557 215.633 345.557 215.4C345.557 215.167 345.474 214.967 345.307 214.8C345.147 214.633 344.951 214.55 344.717 214.55C344.484 214.55 344.284 214.633 344.117 214.8ZM325.16 228.48V227.43L326.79 226.46H327.68V233H326.71V227.53L325.16 228.48ZM328.808 229.71C328.808 228.683 329.012 227.87 329.418 227.27C329.832 226.663 330.395 226.36 331.108 226.36C331.835 226.36 332.405 226.66 332.818 227.26C333.232 227.86 333.438 228.677 333.438 229.71C333.438 230.73 333.235 231.547 332.828 232.16C332.428 232.773 331.855 233.08 331.108 233.08C330.395 233.08 329.832 232.773 329.418 232.16C329.012 231.547 328.808 230.73 328.808 229.71ZM330.178 227.91C329.932 228.33 329.808 228.93 329.808 229.71C329.808 230.49 329.928 231.097 330.168 231.53C330.415 231.957 330.728 232.17 331.108 232.17C331.522 232.17 331.845 231.957 332.078 231.53C332.312 231.103 332.428 230.497 332.428 229.71C332.428 228.917 332.305 228.313 332.058 227.9C331.818 227.48 331.502 227.27 331.108 227.27C330.735 227.27 330.425 227.483 330.178 227.91ZM334.258 229.71C334.258 228.683 334.461 227.87 334.868 227.27C335.281 226.663 335.844 226.36 336.558 226.36C337.284 226.36 337.854 226.66 338.268 227.26C338.681 227.86 338.888 228.677 338.888 229.71C338.888 230.73 338.684 231.547 338.278 232.16C337.878 232.773 337.304 233.08 336.558 233.08C335.844 233.08 335.281 232.773 334.868 232.16C334.461 231.547 334.258 230.73 334.258 229.71ZM335.628 227.91C335.381 228.33 335.258 228.93 335.258 229.71C335.258 230.49 335.378 231.097 335.618 231.53C335.864 231.957 336.178 232.17 336.558 232.17C336.971 232.17 337.294 231.957 337.528 231.53C337.761 231.103 337.878 230.497 337.878 229.71C337.878 228.917 337.754 228.313 337.508 227.9C337.268 227.48 336.951 227.27 336.558 227.27C336.184 227.27 335.874 227.483 335.628 227.91ZM343.878 233.01L347.518 226.23H348.448L344.798 233.01H343.878ZM346.768 231.4C346.768 230.94 346.931 230.547 347.258 230.22C347.584 229.887 347.981 229.72 348.448 229.72C348.908 229.72 349.301 229.887 349.628 230.22C349.954 230.547 350.118 230.94 350.118 231.4C350.118 231.867 349.954 232.263 349.628 232.59C349.301 232.91 348.908 233.07 348.448 233.07C347.981 233.07 347.584 232.91 347.258 232.59C346.931 232.263 346.768 231.867 346.768 231.4ZM342.238 227.8C342.238 227.34 342.401 226.947 342.728 226.62C343.054 226.293 343.448 226.13 343.908 226.13C344.374 226.13 344.771 226.293 345.098 226.62C345.424 226.947 345.588 227.34 345.588 227.8C345.588 228.267 345.424 228.663 345.098 228.99C344.771 229.317 344.374 229.48 343.908 229.48C343.448 229.48 343.054 229.317 342.728 228.99C342.401 228.663 342.238 228.267 342.238 227.8ZM343.068 227.8C343.068 228.033 343.148 228.233 343.308 228.4C343.474 228.567 343.674 228.65 343.908 228.65C344.141 228.65 344.341 228.567 344.508 228.4C344.674 228.233 344.758 228.033 344.758 227.8C344.758 227.567 344.674 227.37 344.508 227.21C344.341 227.043 344.141 226.96 343.908 226.96C343.674 226.96 343.474 227.043 343.308 227.21C343.148 227.377 343.068 227.573 343.068 227.8ZM347.848 230.8C347.681 230.967 347.598 231.167 347.598 231.4C347.598 231.633 347.681 231.833 347.848 232C348.014 232.167 348.214 232.25 348.448 232.25C348.681 232.25 348.878 232.167 349.038 232C349.204 231.833 349.288 231.633 349.288 231.4C349.288 231.167 349.204 230.967 349.038 230.8C348.878 230.633 348.681 230.55 348.448 230.55C348.214 230.55 348.014 230.633 347.848 230.8Z" fill="#FF1934"/>
</g>
<path d="M22.01 92.26L19.66 99H18.64L16.36 92.26H17.23L18.11 94.93L19.16 98.27C19.42 97.43 19.78 96.3167 20.24 94.93L21.14 92.26H22.01ZM25.1572 99.09C24.4305 99.09 23.8539 98.8467 23.4272 98.36C23.0072 97.8667 22.7972 97.2467 22.7972 96.5C22.7972 95.7467 23.0139 95.12 23.4472 94.62C23.8872 94.1133 24.4572 93.86 25.1572 93.86C25.9239 93.86 26.5139 94.1067 26.9272 94.6C27.3472 95.0933 27.5572 95.72 27.5572 96.48C27.5572 97.2333 27.3439 97.8567 26.9172 98.35C26.4905 98.8433 25.9039 99.09 25.1572 99.09ZM25.1572 94.56C24.6772 94.56 24.3005 94.7467 24.0272 95.12C23.7539 95.4933 23.6172 95.95 23.6172 96.49C23.6172 97.0167 23.7572 97.4667 24.0372 97.84C24.3172 98.2067 24.6905 98.39 25.1572 98.39C25.6639 98.39 26.0539 98.21 26.3272 97.85C26.6005 97.4833 26.7372 97.03 26.7372 96.49C26.7372 95.93 26.6072 95.47 26.3472 95.11C26.0872 94.7433 25.6905 94.56 25.1572 94.56ZM28.7524 99V91.93H29.5424V99H28.7524ZM34.1964 93.93H34.9864V99H34.1964V98.12C33.9297 98.7467 33.3997 99.06 32.6064 99.06C32.1064 99.06 31.7097 98.9133 31.4164 98.62C31.1297 98.32 30.9864 97.92 30.9864 97.42V93.93H31.7764V97.22C31.7764 97.5867 31.8697 97.8667 32.0564 98.06C32.2431 98.2533 32.4964 98.35 32.8164 98.35C33.2364 98.35 33.5697 98.2033 33.8164 97.91C34.0697 97.6167 34.1964 97.22 34.1964 96.72V93.93ZM37.2268 93.93V94.75C37.5068 94.1567 37.9835 93.86 38.6568 93.86C39.4368 93.86 39.9301 94.19 40.1368 94.85C40.2835 94.53 40.4868 94.2867 40.7468 94.12C41.0135 93.9467 41.3101 93.86 41.6368 93.86C42.1635 93.86 42.5601 94.01 42.8268 94.31C43.0935 94.61 43.2268 95.0133 43.2268 95.52V99H42.4368V95.72C42.4368 94.9533 42.1135 94.57 41.4668 94.57C41.1468 94.57 40.8601 94.7167 40.6068 95.01C40.3535 95.2967 40.2268 95.7033 40.2268 96.23V99H39.4368V95.72C39.4368 94.9533 39.1135 94.57 38.4668 94.57C38.1468 94.57 37.8601 94.7167 37.6068 95.01C37.3535 95.2967 37.2268 95.7033 37.2268 96.23V99H36.4468V93.93H37.2268ZM47.8604 96.14V95.94C47.8604 95.52 47.7471 95.1867 47.5204 94.94C47.2937 94.6867 46.9804 94.56 46.5804 94.56C46.2004 94.56 45.8771 94.6967 45.6104 94.97C45.3437 95.2433 45.1871 95.6333 45.1404 96.14H47.8604ZM48.3304 98V98.74C47.9371 98.9467 47.4571 99.05 46.8904 99.05C46.1237 99.05 45.5037 98.8167 45.0304 98.35C44.5637 97.8767 44.3304 97.2533 44.3304 96.48C44.3304 95.6733 44.5404 95.0367 44.9604 94.57C45.3804 94.1033 45.9204 93.87 46.5804 93.87C47.2137 93.87 47.7171 94.0733 48.0904 94.48C48.4637 94.8867 48.6504 95.4633 48.6504 96.21C48.6504 96.4233 48.6337 96.62 48.6004 96.8H45.1404C45.2004 97.3 45.3904 97.6833 45.7104 97.95C46.0304 98.2167 46.4504 98.35 46.9704 98.35C47.5371 98.35 47.9904 98.2333 48.3304 98ZM52.2664 99L52.7564 92.26H53.7864L54.6764 94.72L55.7564 97.86C56.1431 96.7667 56.5231 95.72 56.8964 94.72L57.8264 92.26H58.8564L59.4464 99H58.6364L58.4064 96.34L58.1664 93.35C57.8131 94.3367 57.4497 95.3333 57.0764 96.34L56.1364 98.85H55.3664L54.4764 96.34L53.4564 93.41C53.4564 93.67 53.3931 94.6467 53.2664 96.34L53.0764 99H52.2664ZM64.0206 93.93H64.8106V99H64.0206V98.12C63.754 98.7467 63.224 99.06 62.4306 99.06C61.9306 99.06 61.534 98.9133 61.2406 98.62C60.954 98.32 60.8106 97.92 60.8106 97.42V93.93H61.6006V97.22C61.6006 97.5867 61.694 97.8667 61.8806 98.06C62.0673 98.2533 62.3206 98.35 62.6406 98.35C63.0606 98.35 63.394 98.2033 63.6406 97.91C63.894 97.6167 64.0206 97.22 64.0206 96.72V93.93ZM69.031 94.1V94.85C68.7243 94.6633 68.3043 94.57 67.771 94.57C67.5043 94.57 67.291 94.6333 67.131 94.76C66.9777 94.88 66.901 95.0367 66.901 95.23C66.901 95.35 66.9243 95.4567 66.971 95.55C67.0177 95.6367 67.1077 95.7233 67.241 95.81C67.381 95.8967 67.481 95.9567 67.541 95.99C67.6077 96.0167 67.7477 96.0767 67.961 96.17C68.3877 96.3433 68.721 96.54 68.961 96.76C69.201 96.98 69.321 97.2767 69.321 97.65C69.321 98.0833 69.1677 98.4267 68.861 98.68C68.561 98.9333 68.1477 99.06 67.621 99.06C67.0077 99.06 66.511 98.9567 66.131 98.75V97.98C66.5777 98.2467 67.0577 98.38 67.571 98.38C67.8777 98.38 68.111 98.32 68.271 98.2C68.431 98.08 68.511 97.9167 68.511 97.71C68.511 97.47 68.421 97.2833 68.241 97.15C68.0677 97.0167 67.7743 96.8667 67.361 96.7C66.981 96.5533 66.6743 96.37 66.441 96.15C66.2143 95.93 66.101 95.6333 66.101 95.26C66.101 94.84 66.2577 94.5067 66.571 94.26C66.891 94.0067 67.2877 93.88 67.761 93.88C68.2877 93.88 68.711 93.9533 69.031 94.1ZM70.4321 99V93.93H71.2221V99H70.4321ZM70.4521 92.71C70.3588 92.61 70.3121 92.4867 70.3121 92.34C70.3121 92.1933 70.3588 92.07 70.4521 91.97C70.5521 91.87 70.6754 91.82 70.8221 91.82C70.9688 91.82 71.0921 91.87 71.1921 91.97C71.2921 92.07 71.3421 92.1933 71.3421 92.34C71.3421 92.4867 71.2921 92.61 71.1921 92.71C71.0921 92.8033 70.9688 92.85 70.8221 92.85C70.6754 92.85 70.5521 92.8033 70.4521 92.71ZM72.7261 99V91.97H73.5061V99H72.7261ZM74.5361 96.34L76.5961 99H75.6461L73.6061 96.34L75.5961 93.93H76.5361L74.5361 96.34Z" fill="#2B2B2B"/>
<g clip-path="url(#clip4_1124_4113)">
<rect x="96" y="91.5" width="224" height="6" rx="3" fill="#F1F1F1"/>
<rect x="-119" y="91.5" width="224" height="6" rx="3" fill="#FF6678"/>
</g>
<circle cx="102" cy="94.5" r="5.5" fill="#FF1934" stroke="white"/>
<g clip-path="url(#clip5_1124_4113)">
<path d="M325.41 93.71C325.41 92.6833 325.613 91.87 326.02 91.27C326.433 90.6633 326.997 90.36 327.71 90.36C328.437 90.36 329.007 90.66 329.42 91.26C329.833 91.86 330.04 92.6767 330.04 93.71C330.04 94.73 329.837 95.5467 329.43 96.16C329.03 96.7733 328.457 97.08 327.71 97.08C326.997 97.08 326.433 96.7733 326.02 96.16C325.613 95.5467 325.41 94.73 325.41 93.71ZM326.78 91.91C326.533 92.33 326.41 92.93 326.41 93.71C326.41 94.49 326.53 95.0967 326.77 95.53C327.017 95.9567 327.33 96.17 327.71 96.17C328.123 96.17 328.447 95.9567 328.68 95.53C328.913 95.1033 329.03 94.4967 329.03 93.71C329.03 92.9167 328.907 92.3133 328.66 91.9C328.42 91.48 328.103 91.27 327.71 91.27C327.337 91.27 327.027 91.4833 326.78 91.91ZM335.03 97.01L338.67 90.23H339.6L335.95 97.01H335.03ZM337.92 95.4C337.92 94.94 338.083 94.5467 338.41 94.22C338.737 93.8867 339.133 93.72 339.6 93.72C340.06 93.72 340.453 93.8867 340.78 94.22C341.107 94.5467 341.27 94.94 341.27 95.4C341.27 95.8667 341.107 96.2633 340.78 96.59C340.453 96.91 340.06 97.07 339.6 97.07C339.133 97.07 338.737 96.91 338.41 96.59C338.083 96.2633 337.92 95.8667 337.92 95.4ZM333.39 91.8C333.39 91.34 333.553 90.9467 333.88 90.62C334.207 90.2933 334.6 90.13 335.06 90.13C335.527 90.13 335.923 90.2933 336.25 90.62C336.577 90.9467 336.74 91.34 336.74 91.8C336.74 92.2667 336.577 92.6633 336.25 92.99C335.923 93.3167 335.527 93.48 335.06 93.48C334.6 93.48 334.207 93.3167 333.88 92.99C333.553 92.6633 333.39 92.2667 333.39 91.8ZM334.22 91.8C334.22 92.0333 334.3 92.2333 334.46 92.4C334.627 92.5667 334.827 92.65 335.06 92.65C335.293 92.65 335.493 92.5667 335.66 92.4C335.827 92.2333 335.91 92.0333 335.91 91.8C335.91 91.5667 335.827 91.37 335.66 91.21C335.493 91.0433 335.293 90.96 335.06 90.96C334.827 90.96 334.627 91.0433 334.46 91.21C334.3 91.3767 334.22 91.5733 334.22 91.8ZM339 94.8C338.833 94.9667 338.75 95.1667 338.75 95.4C338.75 95.6333 338.833 95.8333 339 96C339.167 96.1667 339.367 96.25 339.6 96.25C339.833 96.25 340.03 96.1667 340.19 96C340.357 95.8333 340.44 95.6333 340.44 95.4C340.44 95.1667 340.357 94.9667 340.19 94.8C340.03 94.6333 339.833 94.55 339.6 94.55C339.367 94.55 339.167 94.6333 339 94.8ZM325.16 108.48V107.43L326.79 106.46H327.68V113H326.71V107.53L325.16 108.48ZM328.808 109.71C328.808 108.683 329.012 107.87 329.418 107.27C329.832 106.663 330.395 106.36 331.108 106.36C331.835 106.36 332.405 106.66 332.818 107.26C333.232 107.86 333.438 108.677 333.438 109.71C333.438 110.73 333.235 111.547 332.828 112.16C332.428 112.773 331.855 113.08 331.108 113.08C330.395 113.08 329.832 112.773 329.418 112.16C329.012 111.547 328.808 110.73 328.808 109.71ZM330.178 107.91C329.932 108.33 329.808 108.93 329.808 109.71C329.808 110.49 329.928 111.097 330.168 111.53C330.415 111.957 330.728 112.17 331.108 112.17C331.522 112.17 331.845 111.957 332.078 111.53C332.312 111.103 332.428 110.497 332.428 109.71C332.428 108.917 332.305 108.313 332.058 107.9C331.818 107.48 331.502 107.27 331.108 107.27C330.735 107.27 330.425 107.483 330.178 107.91ZM338.429 113.01L342.069 106.23H342.999L339.349 113.01H338.429ZM341.319 111.4C341.319 110.94 341.482 110.547 341.809 110.22C342.135 109.887 342.532 109.72 342.999 109.72C343.459 109.72 343.852 109.887 344.179 110.22C344.505 110.547 344.669 110.94 344.669 111.4C344.669 111.867 344.505 112.263 344.179 112.59C343.852 112.91 343.459 113.07 342.999 113.07C342.532 113.07 342.135 112.91 341.809 112.59C341.482 112.263 341.319 111.867 341.319 111.4ZM336.789 107.8C336.789 107.34 336.952 106.947 337.279 106.62C337.605 106.293 337.999 106.13 338.459 106.13C338.925 106.13 339.322 106.293 339.649 106.62C339.975 106.947 340.139 107.34 340.139 107.8C340.139 108.267 339.975 108.663 339.649 108.99C339.322 109.317 338.925 109.48 338.459 109.48C337.999 109.48 337.605 109.317 337.279 108.99C336.952 108.663 336.789 108.267 336.789 107.8ZM337.619 107.8C337.619 108.033 337.699 108.233 337.859 108.4C338.025 108.567 338.225 108.65 338.459 108.65C338.692 108.65 338.892 108.567 339.059 108.4C339.225 108.233 339.309 108.033 339.309 107.8C339.309 107.567 339.225 107.37 339.059 107.21C338.892 107.043 338.692 106.96 338.459 106.96C338.225 106.96 338.025 107.043 337.859 107.21C337.699 107.377 337.619 107.573 337.619 107.8ZM342.399 110.8C342.232 110.967 342.149 111.167 342.149 111.4C342.149 111.633 342.232 111.833 342.399 112C342.565 112.167 342.765 112.25 342.999 112.25C343.232 112.25 343.429 112.167 343.589 112C343.755 111.833 343.839 111.633 343.839 111.4C343.839 111.167 343.755 110.967 343.589 110.8C343.429 110.633 343.232 110.55 342.999 110.55C342.765 110.55 342.565 110.633 342.399 110.8ZM326.71 128.15H329.55V129H325.36V128.19C326.2 127.577 326.907 126.943 327.48 126.29C328.06 125.63 328.35 125.03 328.35 124.49C328.35 124.11 328.24 123.82 328.02 123.62C327.8 123.413 327.497 123.31 327.11 123.31C326.577 123.31 326.053 123.51 325.54 123.91V122.94C326.02 122.573 326.59 122.39 327.25 122.39C327.863 122.39 328.37 122.563 328.77 122.91C329.17 123.25 329.37 123.737 329.37 124.37C329.37 125.543 328.483 126.803 326.71 128.15ZM330.371 125.71C330.371 124.683 330.574 123.87 330.981 123.27C331.394 122.663 331.958 122.36 332.671 122.36C333.398 122.36 333.968 122.66 334.381 123.26C334.794 123.86 335.001 124.677 335.001 125.71C335.001 126.73 334.798 127.547 334.391 128.16C333.991 128.773 333.418 129.08 332.671 129.08C331.958 129.08 331.394 128.773 330.981 128.16C330.574 127.547 330.371 126.73 330.371 125.71ZM331.741 123.91C331.494 124.33 331.371 124.93 331.371 125.71C331.371 126.49 331.491 127.097 331.731 127.53C331.978 127.957 332.291 128.17 332.671 128.17C333.084 128.17 333.408 127.957 333.641 127.53C333.874 127.103 333.991 126.497 333.991 125.71C333.991 124.917 333.868 124.313 333.621 123.9C333.381 123.48 333.064 123.27 332.671 123.27C332.298 123.27 331.988 123.483 331.741 123.91ZM339.991 129.01L343.631 122.23H344.561L340.911 129.01H339.991ZM342.881 127.4C342.881 126.94 343.044 126.547 343.371 126.22C343.698 125.887 344.094 125.72 344.561 125.72C345.021 125.72 345.414 125.887 345.741 126.22C346.068 126.547 346.231 126.94 346.231 127.4C346.231 127.867 346.068 128.263 345.741 128.59C345.414 128.91 345.021 129.07 344.561 129.07C344.094 129.07 343.698 128.91 343.371 128.59C343.044 128.263 342.881 127.867 342.881 127.4ZM338.351 123.8C338.351 123.34 338.514 122.947 338.841 122.62C339.168 122.293 339.561 122.13 340.021 122.13C340.488 122.13 340.884 122.293 341.211 122.62C341.538 122.947 341.701 123.34 341.701 123.8C341.701 124.267 341.538 124.663 341.211 124.99C340.884 125.317 340.488 125.48 340.021 125.48C339.561 125.48 339.168 125.317 338.841 124.99C338.514 124.663 338.351 124.267 338.351 123.8ZM339.181 123.8C339.181 124.033 339.261 124.233 339.421 124.4C339.588 124.567 339.788 124.65 340.021 124.65C340.254 124.65 340.454 124.567 340.621 124.4C340.788 124.233 340.871 124.033 340.871 123.8C340.871 123.567 340.788 123.37 340.621 123.21C340.454 123.043 340.254 122.96 340.021 122.96C339.788 122.96 339.588 123.043 339.421 123.21C339.261 123.377 339.181 123.573 339.181 123.8ZM343.961 126.8C343.794 126.967 343.711 127.167 343.711 127.4C343.711 127.633 343.794 127.833 343.961 128C344.128 128.167 344.328 128.25 344.561 128.25C344.794 128.25 344.991 128.167 345.151 128C345.318 127.833 345.401 127.633 345.401 127.4C345.401 127.167 345.318 126.967 345.151 126.8C344.991 126.633 344.794 126.55 344.561 126.55C344.328 126.55 344.128 126.633 343.961 126.8ZM325.57 139.7V138.75C325.983 138.51 326.443 138.39 326.95 138.39C327.617 138.39 328.137 138.557 328.51 138.89C328.89 139.217 329.08 139.63 329.08 140.13C329.08 140.49 328.99 140.807 328.81 141.08C328.637 141.347 328.377 141.55 328.03 141.69C328.41 141.783 328.707 141.96 328.92 142.22C329.133 142.48 329.24 142.807 329.24 143.2C329.24 143.74 329.047 144.187 328.66 144.54C328.273 144.887 327.73 145.06 327.03 145.06C326.37 145.06 325.813 144.947 325.36 144.72V143.76C325.853 144.027 326.393 144.16 326.98 144.16C327.373 144.16 327.68 144.063 327.9 143.87C328.127 143.67 328.24 143.417 328.24 143.11C328.24 142.79 328.117 142.543 327.87 142.37C327.623 142.197 327.253 142.11 326.76 142.11H326.36V141.27H326.76C327.127 141.27 327.433 141.18 327.68 141C327.933 140.813 328.06 140.56 328.06 140.24C328.06 139.92 327.957 139.68 327.75 139.52C327.55 139.36 327.273 139.28 326.92 139.28C326.467 139.28 326.017 139.42 325.57 139.7ZM330.117 141.71C330.117 140.683 330.32 139.87 330.727 139.27C331.14 138.663 331.704 138.36 332.417 138.36C333.144 138.36 333.714 138.66 334.127 139.26C334.54 139.86 334.747 140.677 334.747 141.71C334.747 142.73 334.544 143.547 334.137 144.16C333.737 144.773 333.164 145.08 332.417 145.08C331.704 145.08 331.14 144.773 330.727 144.16C330.32 143.547 330.117 142.73 330.117 141.71ZM331.487 139.91C331.24 140.33 331.117 140.93 331.117 141.71C331.117 142.49 331.237 143.097 331.477 143.53C331.724 143.957 332.037 144.17 332.417 144.17C332.83 144.17 333.154 143.957 333.387 143.53C333.62 143.103 333.737 142.497 333.737 141.71C333.737 140.917 333.614 140.313 333.367 139.9C333.127 139.48 332.81 139.27 332.417 139.27C332.044 139.27 331.734 139.483 331.487 139.91ZM339.737 145.01L343.377 138.23H344.307L340.657 145.01H339.737ZM342.627 143.4C342.627 142.94 342.791 142.547 343.117 142.22C343.444 141.887 343.841 141.72 344.307 141.72C344.767 141.72 345.161 141.887 345.487 142.22C345.814 142.547 345.977 142.94 345.977 143.4C345.977 143.867 345.814 144.263 345.487 144.59C345.161 144.91 344.767 145.07 344.307 145.07C343.841 145.07 343.444 144.91 343.117 144.59C342.791 144.263 342.627 143.867 342.627 143.4ZM338.097 139.8C338.097 139.34 338.261 138.947 338.587 138.62C338.914 138.293 339.307 138.13 339.767 138.13C340.234 138.13 340.631 138.293 340.957 138.62C341.284 138.947 341.447 139.34 341.447 139.8C341.447 140.267 341.284 140.663 340.957 140.99C340.631 141.317 340.234 141.48 339.767 141.48C339.307 141.48 338.914 141.317 338.587 140.99C338.261 140.663 338.097 140.267 338.097 139.8ZM338.927 139.8C338.927 140.033 339.007 140.233 339.167 140.4C339.334 140.567 339.534 140.65 339.767 140.65C340.001 140.65 340.201 140.567 340.367 140.4C340.534 140.233 340.617 140.033 340.617 139.8C340.617 139.567 340.534 139.37 340.367 139.21C340.201 139.043 340.001 138.96 339.767 138.96C339.534 138.96 339.334 139.043 339.167 139.21C339.007 139.377 338.927 139.573 338.927 139.8ZM343.707 142.8C343.541 142.967 343.457 143.167 343.457 143.4C343.457 143.633 343.541 143.833 343.707 144C343.874 144.167 344.074 144.25 344.307 144.25C344.541 144.25 344.737 144.167 344.897 144C345.064 143.833 345.147 143.633 345.147 143.4C345.147 143.167 345.064 142.967 344.897 142.8C344.737 142.633 344.541 142.55 344.307 142.55C344.074 142.55 343.874 142.633 343.707 142.8ZM326.37 158.62H328.34V155.05L326.37 158.62ZM330.24 158.62V159.47H329.32V161H328.34V159.47H325.38V158.62L327.73 154.45H329.32V158.62H330.24ZM330.869 157.71C330.869 156.683 331.072 155.87 331.479 155.27C331.892 154.663 332.456 154.36 333.169 154.36C333.896 154.36 334.466 154.66 334.879 155.26C335.292 155.86 335.499 156.677 335.499 157.71C335.499 158.73 335.296 159.547 334.889 160.16C334.489 160.773 333.916 161.08 333.169 161.08C332.456 161.08 331.892 160.773 331.479 160.16C331.072 159.547 330.869 158.73 330.869 157.71ZM332.239 155.91C331.992 156.33 331.869 156.93 331.869 157.71C331.869 158.49 331.989 159.097 332.229 159.53C332.476 159.957 332.789 160.17 333.169 160.17C333.582 160.17 333.906 159.957 334.139 159.53C334.372 159.103 334.489 158.497 334.489 157.71C334.489 156.917 334.366 156.313 334.119 155.9C333.879 155.48 333.562 155.27 333.169 155.27C332.796 155.27 332.486 155.483 332.239 155.91ZM340.489 161.01L344.129 154.23H345.059L341.409 161.01H340.489ZM343.379 159.4C343.379 158.94 343.542 158.547 343.869 158.22C344.196 157.887 344.592 157.72 345.059 157.72C345.519 157.72 345.912 157.887 346.239 158.22C346.566 158.547 346.729 158.94 346.729 159.4C346.729 159.867 346.566 160.263 346.239 160.59C345.912 160.91 345.519 161.07 345.059 161.07C344.592 161.07 344.196 160.91 343.869 160.59C343.542 160.263 343.379 159.867 343.379 159.4ZM338.849 155.8C338.849 155.34 339.012 154.947 339.339 154.62C339.666 154.293 340.059 154.13 340.519 154.13C340.986 154.13 341.382 154.293 341.709 154.62C342.036 154.947 342.199 155.34 342.199 155.8C342.199 156.267 342.036 156.663 341.709 156.99C341.382 157.317 340.986 157.48 340.519 157.48C340.059 157.48 339.666 157.317 339.339 156.99C339.012 156.663 338.849 156.267 338.849 155.8ZM339.679 155.8C339.679 156.033 339.759 156.233 339.919 156.4C340.086 156.567 340.286 156.65 340.519 156.65C340.752 156.65 340.952 156.567 341.119 156.4C341.286 156.233 341.369 156.033 341.369 155.8C341.369 155.567 341.286 155.37 341.119 155.21C340.952 155.043 340.752 154.96 340.519 154.96C340.286 154.96 340.086 155.043 339.919 155.21C339.759 155.377 339.679 155.573 339.679 155.8ZM344.459 158.8C344.292 158.967 344.209 159.167 344.209 159.4C344.209 159.633 344.292 159.833 344.459 160C344.626 160.167 344.826 160.25 345.059 160.25C345.292 160.25 345.489 160.167 345.649 160C345.816 159.833 345.899 159.633 345.899 159.4C345.899 159.167 345.816 158.967 345.649 158.8C345.489 158.633 345.292 158.55 345.059 158.55C344.826 158.55 344.626 158.633 344.459 158.8ZM326.8 171.3V173.02C327.047 172.967 327.273 172.94 327.48 172.94C328.16 172.94 328.693 173.12 329.08 173.48C329.467 173.833 329.66 174.313 329.66 174.92C329.66 175.573 329.443 176.097 329.01 176.49C328.583 176.877 327.987 177.07 327.22 177.07C326.533 177.07 325.967 176.957 325.52 176.73V175.78C325.947 176.04 326.46 176.17 327.06 176.17C328.113 176.17 328.64 175.743 328.64 174.89C328.64 174.55 328.52 174.287 328.28 174.1C328.047 173.907 327.73 173.81 327.33 173.81C326.823 173.81 326.323 173.927 325.83 174.16V170.45H329.22V171.3H326.8ZM330.478 173.71C330.478 172.683 330.682 171.87 331.088 171.27C331.502 170.663 332.065 170.36 332.778 170.36C333.505 170.36 334.075 170.66 334.488 171.26C334.902 171.86 335.108 172.677 335.108 173.71C335.108 174.73 334.905 175.547 334.498 176.16C334.098 176.773 333.525 177.08 332.778 177.08C332.065 177.08 331.502 176.773 331.088 176.16C330.682 175.547 330.478 174.73 330.478 173.71ZM331.848 171.91C331.602 172.33 331.478 172.93 331.478 173.71C331.478 174.49 331.598 175.097 331.838 175.53C332.085 175.957 332.398 176.17 332.778 176.17C333.192 176.17 333.515 175.957 333.748 175.53C333.982 175.103 334.098 174.497 334.098 173.71C334.098 172.917 333.975 172.313 333.728 171.9C333.488 171.48 333.172 171.27 332.778 171.27C332.405 171.27 332.095 171.483 331.848 171.91ZM340.099 177.01L343.739 170.23H344.669L341.019 177.01H340.099ZM342.989 175.4C342.989 174.94 343.152 174.547 343.479 174.22C343.805 173.887 344.202 173.72 344.669 173.72C345.129 173.72 345.522 173.887 345.849 174.22C346.175 174.547 346.339 174.94 346.339 175.4C346.339 175.867 346.175 176.263 345.849 176.59C345.522 176.91 345.129 177.07 344.669 177.07C344.202 177.07 343.805 176.91 343.479 176.59C343.152 176.263 342.989 175.867 342.989 175.4ZM338.459 171.8C338.459 171.34 338.622 170.947 338.949 170.62C339.275 170.293 339.669 170.13 340.129 170.13C340.595 170.13 340.992 170.293 341.319 170.62C341.645 170.947 341.809 171.34 341.809 171.8C341.809 172.267 341.645 172.663 341.319 172.99C340.992 173.317 340.595 173.48 340.129 173.48C339.669 173.48 339.275 173.317 338.949 172.99C338.622 172.663 338.459 172.267 338.459 171.8ZM339.289 171.8C339.289 172.033 339.369 172.233 339.529 172.4C339.695 172.567 339.895 172.65 340.129 172.65C340.362 172.65 340.562 172.567 340.729 172.4C340.895 172.233 340.979 172.033 340.979 171.8C340.979 171.567 340.895 171.37 340.729 171.21C340.562 171.043 340.362 170.96 340.129 170.96C339.895 170.96 339.695 171.043 339.529 171.21C339.369 171.377 339.289 171.573 339.289 171.8ZM344.069 174.8C343.902 174.967 343.819 175.167 343.819 175.4C343.819 175.633 343.902 175.833 344.069 176C344.235 176.167 344.435 176.25 344.669 176.25C344.902 176.25 345.099 176.167 345.259 176C345.425 175.833 345.509 175.633 345.509 175.4C345.509 175.167 345.425 174.967 345.259 174.8C345.099 174.633 344.902 174.55 344.669 174.55C344.435 174.55 344.235 174.633 344.069 174.8ZM327.83 192.24C328.177 192.24 328.45 192.117 328.65 191.87C328.85 191.617 328.95 191.287 328.95 190.88C328.95 190.5 328.85 190.2 328.65 189.98C328.45 189.76 328.183 189.65 327.85 189.65C327.33 189.65 326.87 189.867 326.47 190.3C326.497 190.947 326.633 191.433 326.88 191.76C327.133 192.08 327.45 192.24 327.83 192.24ZM329.49 186.44V187.39C329.23 187.257 328.927 187.19 328.58 187.19C327.993 187.19 327.523 187.4 327.17 187.82C326.817 188.233 326.593 188.767 326.5 189.42C326.933 189 327.447 188.79 328.04 188.79C328.633 188.79 329.1 188.98 329.44 189.36C329.787 189.74 329.96 190.243 329.96 190.87C329.96 191.537 329.767 192.08 329.38 192.5C328.993 192.92 328.473 193.13 327.82 193.13C327.06 193.13 326.477 192.847 326.07 192.28C325.67 191.713 325.47 190.963 325.47 190.03C325.47 188.937 325.747 188.04 326.3 187.34C326.86 186.64 327.607 186.29 328.54 186.29C328.873 186.29 329.19 186.34 329.49 186.44ZM330.703 189.71C330.703 188.683 330.906 187.87 331.313 187.27C331.726 186.663 332.29 186.36 333.003 186.36C333.73 186.36 334.3 186.66 334.713 187.26C335.126 187.86 335.333 188.677 335.333 189.71C335.333 190.73 335.13 191.547 334.723 192.16C334.323 192.773 333.75 193.08 333.003 193.08C332.29 193.08 331.726 192.773 331.313 192.16C330.906 191.547 330.703 190.73 330.703 189.71ZM332.073 187.91C331.826 188.33 331.703 188.93 331.703 189.71C331.703 190.49 331.823 191.097 332.063 191.53C332.31 191.957 332.623 192.17 333.003 192.17C333.416 192.17 333.74 191.957 333.973 191.53C334.206 191.103 334.323 190.497 334.323 189.71C334.323 188.917 334.2 188.313 333.953 187.9C333.713 187.48 333.396 187.27 333.003 187.27C332.63 187.27 332.32 187.483 332.073 187.91ZM340.323 193.01L343.963 186.23H344.893L341.243 193.01H340.323ZM343.213 191.4C343.213 190.94 343.376 190.547 343.703 190.22C344.03 189.887 344.426 189.72 344.893 189.72C345.353 189.72 345.746 189.887 346.073 190.22C346.4 190.547 346.563 190.94 346.563 191.4C346.563 191.867 346.4 192.263 346.073 192.59C345.746 192.91 345.353 193.07 344.893 193.07C344.426 193.07 344.03 192.91 343.703 192.59C343.376 192.263 343.213 191.867 343.213 191.4ZM338.683 187.8C338.683 187.34 338.846 186.947 339.173 186.62C339.5 186.293 339.893 186.13 340.353 186.13C340.82 186.13 341.216 186.293 341.543 186.62C341.87 186.947 342.033 187.34 342.033 187.8C342.033 188.267 341.87 188.663 341.543 188.99C341.216 189.317 340.82 189.48 340.353 189.48C339.893 189.48 339.5 189.317 339.173 188.99C338.846 188.663 338.683 188.267 338.683 187.8ZM339.513 187.8C339.513 188.033 339.593 188.233 339.753 188.4C339.92 188.567 340.12 188.65 340.353 188.65C340.586 188.65 340.786 188.567 340.953 188.4C341.12 188.233 341.203 188.033 341.203 187.8C341.203 187.567 341.12 187.37 340.953 187.21C340.786 187.043 340.586 186.96 340.353 186.96C340.12 186.96 339.92 187.043 339.753 187.21C339.593 187.377 339.513 187.573 339.513 187.8ZM344.293 190.8C344.126 190.967 344.043 191.167 344.043 191.4C344.043 191.633 344.126 191.833 344.293 192C344.46 192.167 344.66 192.25 344.893 192.25C345.126 192.25 345.323 192.167 345.483 192C345.65 191.833 345.733 191.633 345.733 191.4C345.733 191.167 345.65 190.967 345.483 190.8C345.323 190.633 345.126 190.55 344.893 190.55C344.66 190.55 344.46 190.633 344.293 190.8ZM325.14 202.46H329.45V203.31L326.79 209H325.74L328.41 203.31H325.14V202.46ZM330 205.71C330 204.683 330.203 203.87 330.61 203.27C331.023 202.663 331.587 202.36 332.3 202.36C333.027 202.36 333.597 202.66 334.01 203.26C334.423 203.86 334.63 204.677 334.63 205.71C334.63 206.73 334.427 207.547 334.02 208.16C333.62 208.773 333.047 209.08 332.3 209.08C331.587 209.08 331.023 208.773 330.61 208.16C330.203 207.547 330 206.73 330 205.71ZM331.37 203.91C331.123 204.33 331 204.93 331 205.71C331 206.49 331.12 207.097 331.36 207.53C331.607 207.957 331.92 208.17 332.3 208.17C332.713 208.17 333.037 207.957 333.27 207.53C333.503 207.103 333.62 206.497 333.62 205.71C333.62 204.917 333.497 204.313 333.25 203.9C333.01 203.48 332.693 203.27 332.3 203.27C331.927 203.27 331.617 203.483 331.37 203.91ZM339.62 209.01L343.26 202.23H344.19L340.54 209.01H339.62ZM342.51 207.4C342.51 206.94 342.673 206.547 343 206.22C343.327 205.887 343.723 205.72 344.19 205.72C344.65 205.72 345.043 205.887 345.37 206.22C345.697 206.547 345.86 206.94 345.86 207.4C345.86 207.867 345.697 208.263 345.37 208.59C345.043 208.91 344.65 209.07 344.19 209.07C343.723 209.07 343.327 208.91 343 208.59C342.673 208.263 342.51 207.867 342.51 207.4ZM337.98 203.8C337.98 203.34 338.143 202.947 338.47 202.62C338.797 202.293 339.19 202.13 339.65 202.13C340.117 202.13 340.513 202.293 340.84 202.62C341.167 202.947 341.33 203.34 341.33 203.8C341.33 204.267 341.167 204.663 340.84 204.99C340.513 205.317 340.117 205.48 339.65 205.48C339.19 205.48 338.797 205.317 338.47 204.99C338.143 204.663 337.98 204.267 337.98 203.8ZM338.81 203.8C338.81 204.033 338.89 204.233 339.05 204.4C339.217 204.567 339.417 204.65 339.65 204.65C339.883 204.65 340.083 204.567 340.25 204.4C340.417 204.233 340.5 204.033 340.5 203.8C340.5 203.567 340.417 203.37 340.25 203.21C340.083 203.043 339.883 202.96 339.65 202.96C339.417 202.96 339.217 203.043 339.05 203.21C338.89 203.377 338.81 203.573 338.81 203.8ZM343.59 206.8C343.423 206.967 343.34 207.167 343.34 207.4C343.34 207.633 343.423 207.833 343.59 208C343.757 208.167 343.957 208.25 344.19 208.25C344.423 208.25 344.62 208.167 344.78 208C344.947 207.833 345.03 207.633 345.03 207.4C345.03 207.167 344.947 206.967 344.78 206.8C344.62 206.633 344.423 206.55 344.19 206.55C343.957 206.55 343.757 206.633 343.59 206.8ZM327.67 224.25C328.077 224.25 328.387 224.15 328.6 223.95C328.82 223.75 328.93 223.503 328.93 223.21C328.93 222.917 328.823 222.67 328.61 222.47C328.397 222.27 328.083 222.17 327.67 222.17C327.27 222.177 326.967 222.287 326.76 222.5C326.56 222.707 326.46 222.963 326.46 223.27C326.46 223.55 326.563 223.783 326.77 223.97C326.977 224.157 327.277 224.25 327.67 224.25ZM327.66 219.21C327.32 219.21 327.053 219.31 326.86 219.51C326.667 219.71 326.57 219.953 326.57 220.24C326.57 220.58 326.673 220.84 326.88 221.02C327.093 221.193 327.367 221.28 327.7 221.28C328.013 221.28 328.27 221.19 328.47 221.01C328.677 220.823 328.78 220.563 328.78 220.23C328.78 219.937 328.687 219.693 328.5 219.5C328.32 219.307 328.04 219.21 327.66 219.21ZM328.8 221.71C329.547 221.963 329.92 222.48 329.92 223.26C329.92 223.813 329.707 224.257 329.28 224.59C328.853 224.923 328.313 225.09 327.66 225.09C327.02 225.09 326.493 224.93 326.08 224.61C325.667 224.283 325.46 223.85 325.46 223.31C325.46 222.537 325.83 222.007 326.57 221.72C326.257 221.587 326.01 221.393 325.83 221.14C325.657 220.887 325.57 220.59 325.57 220.25C325.57 219.663 325.773 219.203 326.18 218.87C326.587 218.537 327.08 218.37 327.66 218.37C328.26 218.37 328.763 218.533 329.17 218.86C329.577 219.18 329.78 219.647 329.78 220.26C329.78 220.92 329.453 221.403 328.8 221.71ZM330.791 221.71C330.791 220.683 330.994 219.87 331.401 219.27C331.814 218.663 332.378 218.36 333.091 218.36C333.818 218.36 334.388 218.66 334.801 219.26C335.214 219.86 335.421 220.677 335.421 221.71C335.421 222.73 335.218 223.547 334.811 224.16C334.411 224.773 333.838 225.08 333.091 225.08C332.378 225.08 331.814 224.773 331.401 224.16C330.994 223.547 330.791 222.73 330.791 221.71ZM332.161 219.91C331.914 220.33 331.791 220.93 331.791 221.71C331.791 222.49 331.911 223.097 332.151 223.53C332.398 223.957 332.711 224.17 333.091 224.17C333.504 224.17 333.828 223.957 334.061 223.53C334.294 223.103 334.411 222.497 334.411 221.71C334.411 220.917 334.288 220.313 334.041 219.9C333.801 219.48 333.484 219.27 333.091 219.27C332.718 219.27 332.408 219.483 332.161 219.91ZM340.411 225.01L344.051 218.23H344.981L341.331 225.01H340.411ZM343.301 223.4C343.301 222.94 343.464 222.547 343.791 222.22C344.118 221.887 344.514 221.72 344.981 221.72C345.441 221.72 345.834 221.887 346.161 222.22C346.488 222.547 346.651 222.94 346.651 223.4C346.651 223.867 346.488 224.263 346.161 224.59C345.834 224.91 345.441 225.07 344.981 225.07C344.514 225.07 344.118 224.91 343.791 224.59C343.464 224.263 343.301 223.867 343.301 223.4ZM338.771 219.8C338.771 219.34 338.934 218.947 339.261 218.62C339.588 218.293 339.981 218.13 340.441 218.13C340.908 218.13 341.304 218.293 341.631 218.62C341.958 218.947 342.121 219.34 342.121 219.8C342.121 220.267 341.958 220.663 341.631 220.99C341.304 221.317 340.908 221.48 340.441 221.48C339.981 221.48 339.588 221.317 339.261 220.99C338.934 220.663 338.771 220.267 338.771 219.8ZM339.601 219.8C339.601 220.033 339.681 220.233 339.841 220.4C340.008 220.567 340.208 220.65 340.441 220.65C340.674 220.65 340.874 220.567 341.041 220.4C341.208 220.233 341.291 220.033 341.291 219.8C341.291 219.567 341.208 219.37 341.041 219.21C340.874 219.043 340.674 218.96 340.441 218.96C340.208 218.96 340.008 219.043 339.841 219.21C339.681 219.377 339.601 219.573 339.601 219.8ZM344.381 222.8C344.214 222.967 344.131 223.167 344.131 223.4C344.131 223.633 344.214 223.833 344.381 224C344.548 224.167 344.748 224.25 344.981 224.25C345.214 224.25 345.411 224.167 345.571 224C345.738 223.833 345.821 223.633 345.821 223.4C345.821 223.167 345.738 222.967 345.571 222.8C345.411 222.633 345.214 222.55 344.981 222.55C344.748 222.55 344.548 222.633 344.381 222.8ZM327.52 237.84C328.027 237.84 328.437 237.643 328.75 237.25C328.737 236.643 328.623 236.163 328.41 235.81C328.203 235.45 327.89 235.27 327.47 235.27C327.123 235.27 326.847 235.387 326.64 235.62C326.433 235.847 326.33 236.157 326.33 236.55C326.33 236.95 326.437 237.267 326.65 237.5C326.87 237.727 327.16 237.84 327.52 237.84ZM325.65 240.89V239.94C325.99 240.093 326.35 240.17 326.73 240.17C327.877 240.17 328.537 239.49 328.71 238.13C328.39 238.497 327.913 238.68 327.28 238.68C326.733 238.68 326.267 238.487 325.88 238.1C325.5 237.713 325.31 237.203 325.31 236.57C325.31 235.937 325.5 235.413 325.88 235C326.26 234.587 326.777 234.38 327.43 234.38C328.177 234.38 328.743 234.657 329.13 235.21C329.523 235.757 329.72 236.467 329.72 237.34C329.72 238.527 329.467 239.447 328.96 240.1C328.46 240.753 327.74 241.08 326.8 241.08C326.373 241.08 325.99 241.017 325.65 240.89ZM330.527 237.71C330.527 236.683 330.731 235.87 331.137 235.27C331.551 234.663 332.114 234.36 332.827 234.36C333.554 234.36 334.124 234.66 334.537 235.26C334.951 235.86 335.157 236.677 335.157 237.71C335.157 238.73 334.954 239.547 334.547 240.16C334.147 240.773 333.574 241.08 332.827 241.08C332.114 241.08 331.551 240.773 331.137 240.16C330.731 239.547 330.527 238.73 330.527 237.71ZM331.897 235.91C331.651 236.33 331.527 236.93 331.527 237.71C331.527 238.49 331.647 239.097 331.887 239.53C332.134 239.957 332.447 240.17 332.827 240.17C333.241 240.17 333.564 239.957 333.797 239.53C334.031 239.103 334.147 238.497 334.147 237.71C334.147 236.917 334.024 236.313 333.777 235.9C333.537 235.48 333.221 235.27 332.827 235.27C332.454 235.27 332.144 235.483 331.897 235.91ZM340.147 241.01L343.787 234.23H344.717L341.067 241.01H340.147ZM343.037 239.4C343.037 238.94 343.201 238.547 343.527 238.22C343.854 237.887 344.251 237.72 344.717 237.72C345.177 237.72 345.571 237.887 345.897 238.22C346.224 238.547 346.387 238.94 346.387 239.4C346.387 239.867 346.224 240.263 345.897 240.59C345.571 240.91 345.177 241.07 344.717 241.07C344.251 241.07 343.854 240.91 343.527 240.59C343.201 240.263 343.037 239.867 343.037 239.4ZM338.507 235.8C338.507 235.34 338.671 234.947 338.997 234.62C339.324 234.293 339.717 234.13 340.177 234.13C340.644 234.13 341.041 234.293 341.367 234.62C341.694 234.947 341.857 235.34 341.857 235.8C341.857 236.267 341.694 236.663 341.367 236.99C341.041 237.317 340.644 237.48 340.177 237.48C339.717 237.48 339.324 237.317 338.997 236.99C338.671 236.663 338.507 236.267 338.507 235.8ZM339.337 235.8C339.337 236.033 339.417 236.233 339.577 236.4C339.744 236.567 339.944 236.65 340.177 236.65C340.411 236.65 340.611 236.567 340.777 236.4C340.944 236.233 341.027 236.033 341.027 235.8C341.027 235.567 340.944 235.37 340.777 235.21C340.611 235.043 340.411 234.96 340.177 234.96C339.944 234.96 339.744 235.043 339.577 235.21C339.417 235.377 339.337 235.573 339.337 235.8ZM344.117 238.8C343.951 238.967 343.867 239.167 343.867 239.4C343.867 239.633 343.951 239.833 344.117 240C344.284 240.167 344.484 240.25 344.717 240.25C344.951 240.25 345.147 240.167 345.307 240C345.474 239.833 345.557 239.633 345.557 239.4C345.557 239.167 345.474 238.967 345.307 238.8C345.147 238.633 344.951 238.55 344.717 238.55C344.484 238.55 344.284 238.633 344.117 238.8ZM325.16 252.48V251.43L326.79 250.46H327.68V257H326.71V251.53L325.16 252.48ZM328.808 253.71C328.808 252.683 329.012 251.87 329.418 251.27C329.832 250.663 330.395 250.36 331.108 250.36C331.835 250.36 332.405 250.66 332.818 251.26C333.232 251.86 333.438 252.677 333.438 253.71C333.438 254.73 333.235 255.547 332.828 256.16C332.428 256.773 331.855 257.08 331.108 257.08C330.395 257.08 329.832 256.773 329.418 256.16C329.012 255.547 328.808 254.73 328.808 253.71ZM330.178 251.91C329.932 252.33 329.808 252.93 329.808 253.71C329.808 254.49 329.928 255.097 330.168 255.53C330.415 255.957 330.728 256.17 331.108 256.17C331.522 256.17 331.845 255.957 332.078 255.53C332.312 255.103 332.428 254.497 332.428 253.71C332.428 252.917 332.305 252.313 332.058 251.9C331.818 251.48 331.502 251.27 331.108 251.27C330.735 251.27 330.425 251.483 330.178 251.91ZM334.258 253.71C334.258 252.683 334.461 251.87 334.868 251.27C335.281 250.663 335.844 250.36 336.558 250.36C337.284 250.36 337.854 250.66 338.268 251.26C338.681 251.86 338.888 252.677 338.888 253.71C338.888 254.73 338.684 255.547 338.278 256.16C337.878 256.773 337.304 257.08 336.558 257.08C335.844 257.08 335.281 256.773 334.868 256.16C334.461 255.547 334.258 254.73 334.258 253.71ZM335.628 251.91C335.381 252.33 335.258 252.93 335.258 253.71C335.258 254.49 335.378 255.097 335.618 255.53C335.864 255.957 336.178 256.17 336.558 256.17C336.971 256.17 337.294 255.957 337.528 255.53C337.761 255.103 337.878 254.497 337.878 253.71C337.878 252.917 337.754 252.313 337.508 251.9C337.268 251.48 336.951 251.27 336.558 251.27C336.184 251.27 335.874 251.483 335.628 251.91ZM343.878 257.01L347.518 250.23H348.448L344.798 257.01H343.878ZM346.768 255.4C346.768 254.94 346.931 254.547 347.258 254.22C347.584 253.887 347.981 253.72 348.448 253.72C348.908 253.72 349.301 253.887 349.628 254.22C349.954 254.547 350.118 254.94 350.118 255.4C350.118 255.867 349.954 256.263 349.628 256.59C349.301 256.91 348.908 257.07 348.448 257.07C347.981 257.07 347.584 256.91 347.258 256.59C346.931 256.263 346.768 255.867 346.768 255.4ZM342.238 251.8C342.238 251.34 342.401 250.947 342.728 250.62C343.054 250.293 343.448 250.13 343.908 250.13C344.374 250.13 344.771 250.293 345.098 250.62C345.424 250.947 345.588 251.34 345.588 251.8C345.588 252.267 345.424 252.663 345.098 252.99C344.771 253.317 344.374 253.48 343.908 253.48C343.448 253.48 343.054 253.317 342.728 252.99C342.401 252.663 342.238 252.267 342.238 251.8ZM343.068 251.8C343.068 252.033 343.148 252.233 343.308 252.4C343.474 252.567 343.674 252.65 343.908 252.65C344.141 252.65 344.341 252.567 344.508 252.4C344.674 252.233 344.758 252.033 344.758 251.8C344.758 251.567 344.674 251.37 344.508 251.21C344.341 251.043 344.141 250.96 343.908 250.96C343.674 250.96 343.474 251.043 343.308 251.21C343.148 251.377 343.068 251.573 343.068 251.8ZM347.848 254.8C347.681 254.967 347.598 255.167 347.598 255.4C347.598 255.633 347.681 255.833 347.848 256C348.014 256.167 348.214 256.25 348.448 256.25C348.681 256.25 348.878 256.167 349.038 256C349.204 255.833 349.288 255.633 349.288 255.4C349.288 255.167 349.204 254.967 349.038 254.8C348.878 254.633 348.681 254.55 348.448 254.55C348.214 254.55 348.014 254.633 347.848 254.8Z" fill="#FF1934"/>
</g>
<defs>
<filter id="filter0_d_1124_4113" x="-4" y="-2" width="381" height="56" filterUnits="userSpaceOnUse" color-interpolation-filters="sRGB">
<feFlood flood-opacity="0" result="BackgroundImageFix"/>
<feColorMatrix in="SourceAlpha" type="matrix" values="0 0 0 0 0 0 0 0 0 0 0 0 0 0 0 0 0 0 127 0" result="hardAlpha"/>
<feOffset dy="2"/>
<feGaussianBlur stdDeviation="2"/>
<feComposite in2="hardAlpha" operator="out"/>
<feColorMatrix type="matrix" values="0 0 0 0 0.168627 0 0 0 0 0.168627 0 0 0 0 0.168627 0 0 0 0.24 0"/>
<feBlend mode="normal" in2="BackgroundImageFix" result="effect1_dropShadow_1124_4113"/>
<feBlend mode="normal" in="SourceGraphic" in2="effect1_dropShadow_1124_4113" result="shape"/>
</filter>
<clipPath id="clip0_1124_4113">
<rect width="24" height="24" fill="white" transform="translate(16 16)"/>
</clipPath>
<clipPath id="clip1_1124_4113">
<rect width="24" height="24" fill="white" transform="translate(347 2)"/>
</clipPath>
<clipPath id="clip2_1124_4113">
<rect x="96" y="67.5" width="224" height="6" rx="3" fill="white"/>
</clipPath>
<clipPath id="clip3_1124_4113">
<rect width="32" height="13" fill="white" transform="translate(325 64)"/>
</clipPath>
<clipPath id="clip4_1124_4113">
<rect x="96" y="91.5" width="224" height="6" rx="3" fill="white"/>
</clipPath>
<clipPath id="clip5_1124_4113">
<rect width="32" height="13" fill="white" transform="translate(325 88)"/>
</clipPath>
</defs>
</svg>
