<svg width="216" height="172" viewBox="0 0 216 172" fill="none" xmlns="http://www.w3.org/2000/svg">
<rect width="216" height="172" fill="#D3D3D3"/>
<rect width="216" height="172" rx="16" fill="white"/>
<g filter="url(#filter0_d_1124_4113)">
<path d="M0 16C0 7.16344 7.16344 0 16 0H200C208.837 0 216 7.16344 216 16V48H0V16Z" fill="#FF1934" shape-rendering="crispEdges"/>
<g clip-path="url(#clip0_1124_4113)">
<path d="M37.6905 31.57C37.1305 31.13 36.5205 30.77 35.8805 30.5C35.7305 30.43 35.6705 30.31 35.6505 30.21C35.6105 30.06 35.6505 29.89 35.7505 29.77C36.6305 28.72 37.1505 27.33 37.1505 26.06C37.1505 23.54 35.1005 21.49 32.5805 21.49C32.3505 21.49 32.1105 21.52 31.8705 21.56C30.8605 20.59 29.5005 20 28.0005 20C26.5005 20 25.1405 20.6 24.1305 21.56C23.8805 21.52 23.6505 21.49 23.4205 21.49C20.9005 21.49 18.8505 23.54 18.8505 26.06C18.8505 27.33 19.3705 28.72 20.2505 29.77C20.3505 29.89 20.3905 30.06 20.3505 30.21C20.3305 30.3 20.2705 30.43 20.1205 30.49C19.4805 30.76 18.8805 31.12 18.3105 31.56C17.9605 31.83 17.9005 32.33 18.1705 32.68C18.3305 32.88 18.5605 32.99 18.8005 32.99C18.9705 32.99 19.1405 32.94 19.2905 32.82C19.7505 32.47 20.2405 32.17 20.7505 31.95C21.3305 31.7 21.7505 31.19 21.9005 30.57C22.0505 29.93 21.9005 29.24 21.4705 28.73C20.8405 27.97 20.4405 26.94 20.4405 26.05C20.4405 24.56 21.5405 23.34 22.9805 23.12C22.6105 23.86 22.4005 24.7 22.4005 25.58C22.4005 27.15 23.0505 28.86 24.1305 30.16C24.3005 30.37 24.3705 30.65 24.3105 30.91C24.2805 31.05 24.1805 31.3 23.8905 31.42C22.2505 32.13 20.8005 33.26 19.7105 34.69C19.4405 35.04 19.5105 35.54 19.8605 35.81C20.0105 35.92 20.1805 35.97 20.3405 35.97C20.5805 35.97 20.8205 35.86 20.9805 35.65C21.9005 34.44 23.1205 33.48 24.5205 32.88C25.2005 32.59 25.6905 32 25.8605 31.27C26.0405 30.52 25.8605 29.72 25.3605 29.12C24.5205 28.11 24.0005 26.75 24.0005 25.56C24.0005 24.54 24.4005 23.62 25.0305 22.91C25.0305 22.91 25.0405 22.9 25.0505 22.89C25.7805 22.08 26.8305 21.56 28.0005 21.56C29.1705 21.56 30.2205 22.08 30.9505 22.88C30.9505 22.88 30.9605 22.9 30.9705 22.91C31.6005 23.62 32.0005 24.54 32.0005 25.56C32.0005 26.75 31.4805 28.11 30.6405 29.12C29.8605 30.05 28.9305 30.56 28.0005 30.56C27.5605 30.56 27.2005 30.92 27.2005 31.36C27.2005 31.8 27.5605 32.16 28.0005 32.16C28.7705 32.16 29.5305 31.94 30.2305 31.53C30.4505 32.13 30.8805 32.62 31.4805 32.87C32.8705 33.47 34.0905 34.43 35.0205 35.64C35.1805 35.85 35.4205 35.96 35.6605 35.96C35.8305 35.96 36.0005 35.91 36.1405 35.8C36.4905 35.53 36.5605 35.03 36.2905 34.68C35.2005 33.25 33.7605 32.12 32.1205 31.41C31.8305 31.29 31.7305 31.03 31.7005 30.9C31.6405 30.64 31.7005 30.36 31.8805 30.15C32.9605 28.85 33.6105 27.14 33.6105 25.57C33.6105 24.68 33.4005 23.85 33.0305 23.11C34.4605 23.32 35.5705 24.55 35.5705 26.04C35.5705 26.94 35.1805 27.96 34.5405 28.72C34.1205 29.23 33.9605 29.91 34.1105 30.56C34.2605 31.19 34.6805 31.69 35.2705 31.94C35.7805 32.16 36.2705 32.45 36.7305 32.81C36.8805 32.92 37.0505 32.98 37.2205 32.98C37.4605 32.98 37.7005 32.87 37.8505 32.67C38.1205 32.32 38.0605 31.82 37.7105 31.55L37.6905 31.57Z" fill="white"/>
</g>
<path d="M54.356 28.36V22.564H56.512V28.346C56.512 29.578 56.1667 30.5207 55.476 31.174C54.7853 31.818 53.852 32.14 52.676 32.14C51.5187 32.14 50.59 31.818 49.89 31.174C49.19 30.53 48.84 29.62 48.84 28.444V22.564H50.996V28.43C50.996 29.5967 51.556 30.18 52.676 30.18C53.796 30.18 54.356 29.5733 54.356 28.36ZM60.2356 24.902V26.106C60.4129 25.714 60.6836 25.406 61.0476 25.182C61.4209 24.9487 61.8642 24.832 62.3776 24.832C63.1056 24.832 63.6749 25.0513 64.0856 25.49C64.4962 25.9193 64.7016 26.554 64.7016 27.394V32H62.6576V27.772C62.6576 27.352 62.5596 27.0347 62.3636 26.82C62.1676 26.596 61.8922 26.484 61.5376 26.484C61.1642 26.484 60.8516 26.6333 60.5996 26.932C60.3569 27.2213 60.2356 27.66 60.2356 28.248V32H58.1916V24.902H60.2356ZM69.5747 30.376C70.0413 30.376 70.4193 30.194 70.7087 29.83C70.998 29.466 71.1427 28.9807 71.1427 28.374C71.1427 27.786 70.984 27.3287 70.6667 27.002C70.3587 26.6753 69.99 26.512 69.5607 26.512C69.1313 26.512 68.7673 26.6847 68.4687 27.03C68.1793 27.3753 68.0347 27.856 68.0347 28.472C68.0347 29.0413 68.184 29.5033 68.4827 29.858C68.7813 30.2033 69.1453 30.376 69.5747 30.376ZM71.1427 22.102H73.1867V32H71.1427V30.894C70.6667 31.6873 69.9573 32.084 69.0147 32.084C68.0907 32.084 67.3487 31.7247 66.7887 31.006C66.238 30.2873 65.9627 29.4287 65.9627 28.43C65.9627 27.31 66.252 26.428 66.8307 25.784C67.4093 25.14 68.142 24.818 69.0287 24.818C69.9527 24.818 70.6573 25.21 71.1427 25.994V22.102ZM78.3853 29.088H77.7272C77.3819 29.088 77.1159 29.1627 76.9293 29.312C76.7426 29.4613 76.6493 29.6527 76.6493 29.886C76.6493 30.362 76.9246 30.6 77.4753 30.6C77.7646 30.6 77.9886 30.5113 78.1472 30.334C78.3059 30.1567 78.3853 29.914 78.3853 29.606V29.088ZM75.0673 27.086V25.252C75.6273 24.9347 76.4346 24.776 77.4893 24.776C78.4973 24.776 79.2486 24.9953 79.7433 25.434C80.2379 25.8633 80.4853 26.5353 80.4853 27.45V32H78.4833V31.132C78.1846 31.7387 77.5966 32.042 76.7193 32.042C76.0286 32.042 75.4873 31.846 75.0953 31.454C74.7126 31.062 74.5213 30.572 74.5213 29.984C74.5213 29.3027 74.7686 28.7753 75.2633 28.402C75.7673 28.0193 76.5093 27.828 77.4893 27.828H78.3853V27.338C78.3853 26.7407 77.9886 26.442 77.1953 26.442C76.4299 26.442 75.7206 26.6567 75.0673 27.086ZM84.134 24.902V26.106C84.3113 25.714 84.582 25.406 84.946 25.182C85.3193 24.9487 85.7627 24.832 86.276 24.832C87.004 24.832 87.5733 25.0513 87.984 25.49C88.3947 25.9193 88.6 26.554 88.6 27.394V32H86.556V27.772C86.556 27.352 86.458 27.0347 86.262 26.82C86.066 26.596 85.7907 26.484 85.436 26.484C85.0627 26.484 84.75 26.6333 84.498 26.932C84.2553 27.2213 84.134 27.66 84.134 28.248V32H82.09V24.902H84.134ZM93.3611 30.138C93.7998 30.138 94.1404 29.9747 94.3831 29.648C94.6351 29.312 94.7611 28.9107 94.7611 28.444C94.7611 27.1747 94.2991 26.54 93.3751 26.54C92.9644 26.54 92.6424 26.6987 92.4091 27.016C92.1758 27.3333 92.0591 27.772 92.0591 28.332C92.0591 28.92 92.1711 29.368 92.3951 29.676C92.6191 29.984 92.9411 30.138 93.3611 30.138ZM94.7611 24.902H96.7911V31.314C96.7911 32.4527 96.4504 33.3067 95.7691 33.876C95.0878 34.4547 94.2338 34.744 93.2071 34.744C92.2084 34.744 91.3358 34.5667 90.5891 34.212V32.126C91.2424 32.6487 92.0451 32.91 92.9971 32.91C93.6131 32.91 94.0611 32.7793 94.3411 32.518C94.6211 32.2567 94.7611 31.846 94.7611 31.286V30.81C94.3504 31.4447 93.6971 31.762 92.8011 31.762C92.0171 31.762 91.3404 31.4727 90.7711 30.894C90.2111 30.3153 89.9311 29.4567 89.9311 28.318C89.9311 27.31 90.2018 26.4793 90.7431 25.826C91.2938 25.1633 92.0124 24.832 92.8991 24.832C93.7391 24.832 94.3598 25.168 94.7611 25.84V24.902ZM101.915 29.088H101.257C100.911 29.088 100.645 29.1627 100.459 29.312C100.272 29.4613 100.179 29.6527 100.179 29.886C100.179 30.362 100.454 30.6 101.005 30.6C101.294 30.6 101.518 30.5113 101.677 30.334C101.835 30.1567 101.915 29.914 101.915 29.606V29.088ZM98.5965 27.086V25.252C99.1565 24.9347 99.9639 24.776 101.019 24.776C102.027 24.776 102.778 24.9953 103.273 25.434C103.767 25.8633 104.015 26.5353 104.015 27.45V32H102.013V31.132C101.714 31.7387 101.126 32.042 100.249 32.042C99.5579 32.042 99.0165 31.846 98.6245 31.454C98.2419 31.062 98.0505 30.572 98.0505 29.984C98.0505 29.3027 98.2979 28.7753 98.7925 28.402C99.2965 28.0193 100.039 27.828 101.019 27.828H101.915V27.338C101.915 26.7407 101.518 26.442 100.725 26.442C99.9592 26.442 99.2499 26.6567 98.5965 27.086ZM107.663 24.902V26.106C107.841 25.714 108.111 25.406 108.475 25.182C108.849 24.9487 109.292 24.832 109.805 24.832C110.533 24.832 111.103 25.0513 111.513 25.49C111.924 25.9193 112.129 26.554 112.129 27.394V32H110.085V27.772C110.085 27.352 109.987 27.0347 109.791 26.82C109.595 26.596 109.32 26.484 108.965 26.484C108.592 26.484 108.279 26.6333 108.027 26.932C107.785 27.2213 107.663 27.66 107.663 28.248V32H105.619V24.902H107.663Z" fill="white"/>
</g>
<g clip-path="url(#clip1_1124_4113)">
<path d="M121.817 95.2C120 92.8167 117.6 90.9333 114.867 89.75C114.384 89.55 114.217 89.1167 114.167 88.9C114.067 88.4667 114.167 88 114.467 87.65C116.267 85.4833 117.35 82.6333 117.35 80.0167C117.35 74.8667 113.167 70.6833 108.017 70.6833C102.867 70.6833 98.6837 74.8667 98.6837 80.0167C98.6837 82.6333 99.7671 85.4833 101.567 87.65C101.85 88 101.967 88.4667 101.867 88.9C101.817 89.1333 101.65 89.55 101.167 89.75C98.4337 90.9333 96.0171 92.8167 94.2004 95.2C93.7504 95.7833 93.8671 96.6167 94.4504 97.0667C94.7004 97.25 94.9837 97.3333 95.2504 97.3333C95.6504 97.3333 96.0504 97.15 96.3171 96.8C97.8504 94.7833 99.8837 93.1833 102.217 92.1833C103.35 91.7 104.167 90.7167 104.45 89.5C104.75 88.25 104.45 86.9167 103.617 85.9167C102.217 84.2333 101.35 81.9667 101.35 79.9833C101.35 76.3 104.334 73.3167 108.017 73.3167C111.7 73.3167 114.684 76.3 114.684 79.9833C114.684 81.9667 113.817 84.2333 112.417 85.9167C111.117 87.4667 109.567 88.3167 108.017 88.3167C107.284 88.3167 106.684 88.9167 106.684 89.65C106.684 90.3833 107.284 90.9833 108.017 90.9833C109.3 90.9833 110.567 90.6167 111.734 89.9333C112.1 90.9333 112.817 91.75 113.817 92.1667C116.134 93.1667 118.167 94.7667 119.717 96.7833C119.984 97.1333 120.384 97.3167 120.784 97.3167C121.067 97.3167 121.35 97.2333 121.584 97.05C122.167 96.6 122.284 95.7667 121.834 95.1833L121.817 95.2Z" fill="#2B2B2B"/>
</g>
<path d="M64.2349 118.29H65.4449C66.2783 118.29 66.9083 118.033 67.3349 117.52C67.7616 117 67.9749 116.353 67.9749 115.58C67.9749 114.847 67.7349 114.23 67.2549 113.73C66.7816 113.23 66.1649 112.98 65.4049 112.98H64.2349V118.29ZM63.4149 112.26H65.4149C66.4083 112.26 67.2216 112.57 67.8549 113.19C68.4949 113.803 68.8149 114.6 68.8149 115.58C68.8149 116.553 68.5183 117.367 67.9249 118.02C67.3383 118.673 66.5149 119 65.4549 119H63.4149V112.26ZM73.1062 116.14V115.94C73.1062 115.52 72.9929 115.187 72.7662 114.94C72.5396 114.687 72.2262 114.56 71.8262 114.56C71.4462 114.56 71.1229 114.697 70.8562 114.97C70.5896 115.243 70.4329 115.633 70.3862 116.14H73.1062ZM73.5762 118V118.74C73.1829 118.947 72.7029 119.05 72.1362 119.05C71.3696 119.05 70.7496 118.817 70.2762 118.35C69.8096 117.877 69.5762 117.253 69.5762 116.48C69.5762 115.673 69.7862 115.037 70.2062 114.57C70.6262 114.103 71.1662 113.87 71.8262 113.87C72.4596 113.87 72.9629 114.073 73.3362 114.48C73.7096 114.887 73.8962 115.463 73.8962 116.21C73.8962 116.423 73.8796 116.62 73.8462 116.8H70.3862C70.4462 117.3 70.6362 117.683 70.9562 117.95C71.2762 118.217 71.6962 118.35 72.2162 118.35C72.7829 118.35 73.2362 118.233 73.5762 118ZM77.7509 114.1V114.85C77.4442 114.663 77.0242 114.57 76.4909 114.57C76.2242 114.57 76.0109 114.633 75.8509 114.76C75.6975 114.88 75.6209 115.037 75.6209 115.23C75.6209 115.35 75.6442 115.457 75.6909 115.55C75.7375 115.637 75.8275 115.723 75.9609 115.81C76.1009 115.897 76.2009 115.957 76.2609 115.99C76.3275 116.017 76.4675 116.077 76.6809 116.17C77.1075 116.343 77.4409 116.54 77.6809 116.76C77.9209 116.98 78.0409 117.277 78.0409 117.65C78.0409 118.083 77.8875 118.427 77.5809 118.68C77.2809 118.933 76.8675 119.06 76.3409 119.06C75.7275 119.06 75.2309 118.957 74.8509 118.75V117.98C75.2975 118.247 75.7775 118.38 76.2909 118.38C76.5975 118.38 76.8309 118.32 76.9909 118.2C77.1509 118.08 77.2309 117.917 77.2309 117.71C77.2309 117.47 77.1409 117.283 76.9609 117.15C76.7875 117.017 76.4942 116.867 76.0809 116.7C75.7009 116.553 75.3942 116.37 75.1609 116.15C74.9342 115.93 74.8209 115.633 74.8209 115.26C74.8209 114.84 74.9775 114.507 75.2909 114.26C75.6109 114.007 76.0075 113.88 76.4809 113.88C77.0075 113.88 77.4309 113.953 77.7509 114.1ZM79.042 119V113.93H79.832V119H79.042ZM79.062 112.71C78.9686 112.61 78.922 112.487 78.922 112.34C78.922 112.193 78.9686 112.07 79.062 111.97C79.162 111.87 79.2853 111.82 79.432 111.82C79.5786 111.82 79.702 111.87 79.802 111.97C79.902 112.07 79.952 112.193 79.952 112.34C79.952 112.487 79.902 112.61 79.802 112.71C79.702 112.803 79.5786 112.85 79.432 112.85C79.2853 112.85 79.162 112.803 79.062 112.71ZM82.3159 114.57V117.54C82.3159 118.08 82.5693 118.35 83.0759 118.35C83.3359 118.35 83.5659 118.273 83.7659 118.12V118.87C83.5459 118.99 83.2993 119.05 83.0259 119.05C82.0259 119.05 81.5259 118.54 81.5259 117.52V114.57H80.7159V113.93H81.5259V112.67H82.3159V113.93H83.7159V114.57H82.3159ZM87.5373 116.66H86.6573C86.2307 116.66 85.9107 116.743 85.6973 116.91C85.484 117.077 85.3773 117.287 85.3773 117.54C85.3773 117.793 85.4607 118 85.6273 118.16C85.794 118.313 86.0373 118.39 86.3573 118.39C86.7173 118.39 87.004 118.29 87.2173 118.09C87.4307 117.883 87.5373 117.623 87.5373 117.31V116.66ZM84.9173 114.99V114.2C85.2973 113.967 85.7973 113.85 86.4173 113.85C87.6907 113.85 88.3273 114.497 88.3273 115.79V119H87.5473V118.4C87.2873 118.833 86.814 119.05 86.1273 119.05C85.654 119.05 85.2707 118.91 84.9773 118.63C84.6907 118.35 84.5473 117.997 84.5473 117.57C84.5473 117.083 84.7307 116.707 85.0973 116.44C85.4707 116.167 85.9773 116.03 86.6173 116.03H87.5373V115.77C87.5373 115.37 87.4473 115.07 87.2673 114.87C87.0873 114.663 86.784 114.56 86.3573 114.56C85.8173 114.56 85.3373 114.703 84.9173 114.99ZM91.9906 119V112.26H93.0106L94.7006 115.1L96.4106 118.02C96.384 117.373 96.3706 116.403 96.3706 115.11V112.26H97.1806V119H96.1606L94.4706 116.18C94.1306 115.613 93.8173 115.087 93.5306 114.6C93.244 114.107 93.0406 113.753 92.9206 113.54L92.7506 113.23C92.784 113.923 92.8006 114.9 92.8006 116.16V119H91.9906ZM101.719 113.93H102.509V119H101.719V118.12C101.452 118.747 100.922 119.06 100.129 119.06C99.6291 119.06 99.2325 118.913 98.9391 118.62C98.6525 118.32 98.5091 117.92 98.5091 117.42V113.93H99.2991V117.22C99.2991 117.587 99.3925 117.867 99.5791 118.06C99.7658 118.253 100.019 118.35 100.339 118.35C100.759 118.35 101.092 118.203 101.339 117.91C101.592 117.617 101.719 117.22 101.719 116.72V113.93ZM104.64 113.93V114.82C104.906 114.193 105.366 113.88 106.02 113.88C106.14 113.88 106.233 113.887 106.3 113.9V114.68C106.16 114.633 106.016 114.61 105.87 114.61C105.516 114.61 105.223 114.773 104.99 115.1C104.756 115.427 104.64 115.803 104.64 116.23V119H103.85L103.86 113.93H104.64ZM110.193 112.96V115.65H111.213C111.673 115.65 112.023 115.527 112.263 115.28C112.509 115.027 112.633 114.703 112.633 114.31C112.633 113.41 112.129 112.96 111.123 112.96H110.193ZM113.863 119H112.893L111.243 116.34H111.163H110.193V119H109.383V112.26H111.073C111.853 112.26 112.443 112.443 112.843 112.81C113.249 113.177 113.453 113.683 113.453 114.33C113.439 114.797 113.316 115.193 113.083 115.52C112.849 115.847 112.519 116.077 112.093 116.21L113.863 119ZM116.771 119.09C116.045 119.09 115.468 118.847 115.041 118.36C114.621 117.867 114.411 117.247 114.411 116.5C114.411 115.747 114.628 115.12 115.061 114.62C115.501 114.113 116.071 113.86 116.771 113.86C117.538 113.86 118.128 114.107 118.541 114.6C118.961 115.093 119.171 115.72 119.171 116.48C119.171 117.233 118.958 117.857 118.531 118.35C118.105 118.843 117.518 119.09 116.771 119.09ZM116.771 114.56C116.291 114.56 115.915 114.747 115.641 115.12C115.368 115.493 115.231 115.95 115.231 116.49C115.231 117.017 115.371 117.467 115.651 117.84C115.931 118.207 116.305 118.39 116.771 118.39C117.278 118.39 117.668 118.21 117.941 117.85C118.215 117.483 118.351 117.03 118.351 116.49C118.351 115.93 118.221 115.47 117.961 115.11C117.701 114.743 117.305 114.56 116.771 114.56ZM122.976 114.1V114.85C122.67 114.663 122.25 114.57 121.716 114.57C121.45 114.57 121.236 114.633 121.076 114.76C120.923 114.88 120.846 115.037 120.846 115.23C120.846 115.35 120.87 115.457 120.916 115.55C120.963 115.637 121.053 115.723 121.186 115.81C121.326 115.897 121.426 115.957 121.486 115.99C121.553 116.017 121.693 116.077 121.906 116.17C122.333 116.343 122.666 116.54 122.906 116.76C123.146 116.98 123.266 117.277 123.266 117.65C123.266 118.083 123.113 118.427 122.806 118.68C122.506 118.933 122.093 119.06 121.566 119.06C120.953 119.06 120.456 118.957 120.076 118.75V117.98C120.523 118.247 121.003 118.38 121.516 118.38C121.823 118.38 122.056 118.32 122.216 118.2C122.376 118.08 122.456 117.917 122.456 117.71C122.456 117.47 122.366 117.283 122.186 117.15C122.013 117.017 121.72 116.867 121.306 116.7C120.926 116.553 120.62 116.37 120.386 116.15C120.16 115.93 120.046 115.633 120.046 115.26C120.046 114.84 120.203 114.507 120.516 114.26C120.836 114.007 121.233 113.88 121.706 113.88C122.233 113.88 122.656 113.953 122.976 114.1ZM125.627 118.87L123.577 113.93H124.467L125.127 115.6L126.017 117.9C126.071 117.727 126.337 116.96 126.817 115.6L127.407 113.93H128.257L126.427 118.87C126.167 119.557 125.857 120.04 125.497 120.32C125.144 120.6 124.737 120.74 124.277 120.74C124.104 120.74 123.964 120.723 123.857 120.69V119.98C123.957 120.007 124.071 120.02 124.197 120.02C124.871 120.02 125.347 119.637 125.627 118.87ZM129.089 119V113.93H129.879V119H129.089ZM129.109 112.71C129.016 112.61 128.969 112.487 128.969 112.34C128.969 112.193 129.016 112.07 129.109 111.97C129.209 111.87 129.332 111.82 129.479 111.82C129.626 111.82 129.749 111.87 129.849 111.97C129.949 112.07 129.999 112.193 129.999 112.34C129.999 112.487 129.949 112.61 129.849 112.71C129.749 112.803 129.626 112.85 129.479 112.85C129.332 112.85 129.209 112.803 129.109 112.71ZM133.203 118.36C133.616 118.36 133.966 118.207 134.253 117.9C134.546 117.593 134.693 117.103 134.693 116.43C134.693 115.79 134.543 115.32 134.243 115.02C133.943 114.72 133.613 114.57 133.253 114.57C132.833 114.57 132.483 114.74 132.203 115.08C131.93 115.413 131.793 115.893 131.793 116.52C131.793 117.067 131.926 117.51 132.193 117.85C132.46 118.19 132.796 118.36 133.203 118.36ZM134.693 111.93H135.483V119H134.693V118.25C134.333 118.803 133.813 119.08 133.133 119.08C132.46 119.08 131.93 118.83 131.543 118.33C131.163 117.83 130.973 117.223 130.973 116.51C130.973 115.717 131.176 115.077 131.583 114.59C131.99 114.097 132.513 113.85 133.153 113.85C133.813 113.85 134.326 114.133 134.693 114.7V111.93ZM136.877 119V113.93H137.667V119H136.877ZM136.897 112.71C136.804 112.61 136.757 112.487 136.757 112.34C136.757 112.193 136.804 112.07 136.897 111.97C136.997 111.87 137.12 111.82 137.267 111.82C137.414 111.82 137.537 111.87 137.637 111.97C137.737 112.07 137.787 112.193 137.787 112.34C137.787 112.487 137.737 112.61 137.637 112.71C137.537 112.803 137.414 112.85 137.267 112.85C137.12 112.85 136.997 112.803 136.897 112.71ZM141.791 116.66H140.911C140.484 116.66 140.164 116.743 139.951 116.91C139.738 117.077 139.631 117.287 139.631 117.54C139.631 117.793 139.714 118 139.881 118.16C140.048 118.313 140.291 118.39 140.611 118.39C140.971 118.39 141.258 118.29 141.471 118.09C141.684 117.883 141.791 117.623 141.791 117.31V116.66ZM139.171 114.99V114.2C139.551 113.967 140.051 113.85 140.671 113.85C141.944 113.85 142.581 114.497 142.581 115.79V119H141.801V118.4C141.541 118.833 141.068 119.05 140.381 119.05C139.908 119.05 139.524 118.91 139.231 118.63C138.944 118.35 138.801 117.997 138.801 117.57C138.801 117.083 138.984 116.707 139.351 116.44C139.724 116.167 140.231 116.03 140.871 116.03H141.791V115.77C141.791 115.37 141.701 115.07 141.521 114.87C141.341 114.663 141.038 114.56 140.611 114.56C140.071 114.56 139.591 114.703 139.171 114.99ZM144.653 113.93V114.81C144.953 114.177 145.486 113.86 146.253 113.86C146.746 113.86 147.139 114.01 147.433 114.31C147.726 114.61 147.873 115.01 147.873 115.51V119H147.083V115.72C147.083 115.347 146.986 115.063 146.793 114.87C146.606 114.67 146.359 114.57 146.053 114.57C145.673 114.57 145.343 114.717 145.063 115.01C144.789 115.303 144.653 115.71 144.653 116.23V119H143.873V113.93H144.653ZM151.893 116.66H151.013C150.587 116.66 150.267 116.743 150.053 116.91C149.84 117.077 149.733 117.287 149.733 117.54C149.733 117.793 149.817 118 149.983 118.16C150.15 118.313 150.393 118.39 150.713 118.39C151.073 118.39 151.36 118.29 151.573 118.09C151.787 117.883 151.893 117.623 151.893 117.31V116.66ZM149.273 114.99V114.2C149.653 113.967 150.153 113.85 150.773 113.85C152.047 113.85 152.683 114.497 152.683 115.79V119H151.903V118.4C151.643 118.833 151.17 119.05 150.483 119.05C150.01 119.05 149.627 118.91 149.333 118.63C149.047 118.35 148.903 117.997 148.903 117.57C148.903 117.083 149.087 116.707 149.453 116.44C149.827 116.167 150.333 116.03 150.973 116.03H151.893V115.77C151.893 115.37 151.803 115.07 151.623 114.87C151.443 114.663 151.14 114.56 150.713 114.56C150.173 114.56 149.693 114.703 149.273 114.99Z" fill="#2B2B2B"/>
<path d="M60.58 139.83H61.62C62.1267 139.83 62.5233 139.7 62.81 139.44C63.0967 139.173 63.24 138.837 63.24 138.43C63.24 137.977 63.0933 137.617 62.8 137.35C62.5067 137.083 62.09 136.95 61.55 136.95H60.58V139.83ZM59.77 136.26H61.54C62.32 136.26 62.9333 136.463 63.38 136.87C63.8333 137.27 64.06 137.79 64.06 138.43C64.06 139.03 63.8367 139.53 63.39 139.93C62.9433 140.323 62.3533 140.52 61.62 140.52H60.58V143H59.77V136.26ZM68.4092 140.14V139.94C68.4092 139.52 68.2959 139.187 68.0692 138.94C67.8426 138.687 67.5292 138.56 67.1292 138.56C66.7492 138.56 66.4259 138.697 66.1592 138.97C65.8926 139.243 65.7359 139.633 65.6892 140.14H68.4092ZM68.8792 142V142.74C68.4859 142.947 68.0059 143.05 67.4392 143.05C66.6726 143.05 66.0526 142.817 65.5792 142.35C65.1126 141.877 64.8792 141.253 64.8792 140.48C64.8792 139.673 65.0892 139.037 65.5092 138.57C65.9292 138.103 66.4692 137.87 67.1292 137.87C67.7626 137.87 68.2659 138.073 68.6392 138.48C69.0126 138.887 69.1992 139.463 69.1992 140.21C69.1992 140.423 69.1826 140.62 69.1492 140.8H65.6892C65.7492 141.3 65.9392 141.683 66.2592 141.95C66.5792 142.217 66.9992 142.35 67.5192 142.35C68.0859 142.35 68.5392 142.233 68.8792 142ZM71.1838 137.93V138.82C71.4505 138.193 71.9105 137.88 72.5638 137.88C72.6838 137.88 72.7772 137.887 72.8438 137.9V138.68C72.7038 138.633 72.5605 138.61 72.4138 138.61C72.0605 138.61 71.7672 138.773 71.5338 139.1C71.3005 139.427 71.1838 139.803 71.1838 140.23V143H70.3938L70.4038 137.93H71.1838ZM76.4255 138.1V138.85C76.1189 138.663 75.6989 138.57 75.1655 138.57C74.8989 138.57 74.6855 138.633 74.5255 138.76C74.3722 138.88 74.2955 139.037 74.2955 139.23C74.2955 139.35 74.3189 139.457 74.3655 139.55C74.4122 139.637 74.5022 139.723 74.6355 139.81C74.7755 139.897 74.8755 139.957 74.9355 139.99C75.0022 140.017 75.1422 140.077 75.3555 140.17C75.7822 140.343 76.1155 140.54 76.3555 140.76C76.5955 140.98 76.7155 141.277 76.7155 141.65C76.7155 142.083 76.5622 142.427 76.2555 142.68C75.9555 142.933 75.5422 143.06 75.0155 143.06C74.4022 143.06 73.9055 142.957 73.5255 142.75V141.98C73.9722 142.247 74.4522 142.38 74.9655 142.38C75.2722 142.38 75.5055 142.32 75.6655 142.2C75.8255 142.08 75.9055 141.917 75.9055 141.71C75.9055 141.47 75.8155 141.283 75.6355 141.15C75.4622 141.017 75.1689 140.867 74.7555 140.7C74.3755 140.553 74.0689 140.37 73.8355 140.15C73.6089 139.93 73.4955 139.633 73.4955 139.26C73.4955 138.84 73.6522 138.507 73.9655 138.26C74.2855 138.007 74.6822 137.88 75.1555 137.88C75.6822 137.88 76.1055 137.953 76.4255 138.1ZM77.8266 143V137.93H78.6166V143H77.8266ZM77.8466 136.71C77.7533 136.61 77.7066 136.487 77.7066 136.34C77.7066 136.193 77.7533 136.07 77.8466 135.97C77.9466 135.87 78.07 135.82 78.2166 135.82C78.3633 135.82 78.4866 135.87 78.5866 135.97C78.6866 136.07 78.7366 136.193 78.7366 136.34C78.7366 136.487 78.6866 136.61 78.5866 136.71C78.4866 136.803 78.3633 136.85 78.2166 136.85C78.07 136.85 77.9466 136.803 77.8466 136.71ZM82.8506 140.66H81.9706C81.544 140.66 81.224 140.743 81.0106 140.91C80.7973 141.077 80.6906 141.287 80.6906 141.54C80.6906 141.793 80.774 142 80.9406 142.16C81.1073 142.313 81.3506 142.39 81.6706 142.39C82.0306 142.39 82.3173 142.29 82.5306 142.09C82.744 141.883 82.8506 141.623 82.8506 141.31V140.66ZM80.2306 138.99V138.2C80.6106 137.967 81.1106 137.85 81.7306 137.85C83.004 137.85 83.6406 138.497 83.6406 139.79V143H82.8606V142.4C82.6006 142.833 82.1273 143.05 81.4406 143.05C80.9673 143.05 80.584 142.91 80.2906 142.63C80.004 142.35 79.8606 141.997 79.8606 141.57C79.8606 141.083 80.044 140.707 80.4106 140.44C80.784 140.167 81.2906 140.03 81.9306 140.03H82.8506V139.77C82.8506 139.37 82.7606 139.07 82.5806 138.87C82.4006 138.663 82.0973 138.56 81.6706 138.56C81.1306 138.56 80.6506 138.703 80.2306 138.99ZM87.2725 142.36C87.6992 142.36 88.0492 142.193 88.3225 141.86C88.5958 141.52 88.7325 141.04 88.7325 140.42C88.7325 139.867 88.5992 139.42 88.3325 139.08C88.0658 138.74 87.7292 138.57 87.3225 138.57C86.9158 138.57 86.5625 138.72 86.2625 139.02C85.9692 139.313 85.8225 139.797 85.8225 140.47C85.8225 141.117 85.9725 141.593 86.2725 141.9C86.5725 142.207 86.9058 142.36 87.2725 142.36ZM85.8225 137.93V138.7C86.1758 138.133 86.6992 137.85 87.3925 137.85C88.0658 137.85 88.5925 138.097 88.9725 138.59C89.3592 139.077 89.5525 139.687 89.5525 140.42C89.5525 141.2 89.3492 141.84 88.9425 142.34C88.5425 142.833 88.0192 143.08 87.3725 143.08C86.7058 143.08 86.1892 142.797 85.8225 142.23V144.97H85.0425V137.93H85.8225ZM93.4463 140.66H92.5663C92.1397 140.66 91.8197 140.743 91.6063 140.91C91.393 141.077 91.2863 141.287 91.2863 141.54C91.2863 141.793 91.3697 142 91.5363 142.16C91.703 142.313 91.9463 142.39 92.2663 142.39C92.6263 142.39 92.913 142.29 93.1263 142.09C93.3397 141.883 93.4463 141.623 93.4463 141.31V140.66ZM90.8263 138.99V138.2C91.2063 137.967 91.7063 137.85 92.3263 137.85C93.5997 137.85 94.2363 138.497 94.2363 139.79V143H93.4563V142.4C93.1963 142.833 92.723 143.05 92.0363 143.05C91.563 143.05 91.1797 142.91 90.8863 142.63C90.5997 142.35 90.4563 141.997 90.4563 141.57C90.4563 141.083 90.6397 140.707 91.0063 140.44C91.3797 140.167 91.8863 140.03 92.5263 140.03H93.4463V139.77C93.4463 139.37 93.3563 139.07 93.1763 138.87C92.9963 138.663 92.693 138.56 92.2663 138.56C91.7263 138.56 91.2463 138.703 90.8263 138.99ZM96.4182 137.93V138.81C96.7182 138.177 97.2515 137.86 98.0182 137.86C98.5115 137.86 98.9049 138.01 99.1982 138.31C99.4915 138.61 99.6382 139.01 99.6382 139.51V143H98.8482V139.72C98.8482 139.347 98.7515 139.063 98.5582 138.87C98.3715 138.67 98.1249 138.57 97.8182 138.57C97.4382 138.57 97.1082 138.717 96.8282 139.01C96.5549 139.303 96.4182 139.71 96.4182 140.23V143H95.6382V137.93H96.4182ZM104.33 136.96V139.65H105.35C105.81 139.65 106.16 139.527 106.4 139.28C106.647 139.027 106.77 138.703 106.77 138.31C106.77 137.41 106.267 136.96 105.26 136.96H104.33ZM108 143H107.03L105.38 140.34H105.3H104.33V143H103.52V136.26H105.21C105.99 136.26 106.58 136.443 106.98 136.81C107.387 137.177 107.59 137.683 107.59 138.33C107.577 138.797 107.453 139.193 107.22 139.52C106.987 139.847 106.657 140.077 106.23 140.21L108 143ZM112.109 137.93H112.899V143H112.109V142.12C111.842 142.747 111.312 143.06 110.519 143.06C110.019 143.06 109.622 142.913 109.329 142.62C109.042 142.32 108.899 141.92 108.899 141.42V137.93H109.689V141.22C109.689 141.587 109.782 141.867 109.969 142.06C110.155 142.253 110.409 142.35 110.729 142.35C111.149 142.35 111.482 142.203 111.729 141.91C111.982 141.617 112.109 141.22 112.109 140.72V137.93ZM117.089 140.66H116.209C115.782 140.66 115.462 140.743 115.249 140.91C115.036 141.077 114.929 141.287 114.929 141.54C114.929 141.793 115.012 142 115.179 142.16C115.346 142.313 115.589 142.39 115.909 142.39C116.269 142.39 116.556 142.29 116.769 142.09C116.982 141.883 117.089 141.623 117.089 141.31V140.66ZM114.469 138.99V138.2C114.849 137.967 115.349 137.85 115.969 137.85C117.242 137.85 117.879 138.497 117.879 139.79V143H117.099V142.4C116.839 142.833 116.366 143.05 115.679 143.05C115.206 143.05 114.822 142.91 114.529 142.63C114.242 142.35 114.099 141.997 114.099 141.57C114.099 141.083 114.282 140.707 114.649 140.44C115.022 140.167 115.529 140.03 116.169 140.03H117.089V139.77C117.089 139.37 116.999 139.07 116.819 138.87C116.639 138.663 116.336 138.56 115.909 138.56C115.369 138.56 114.889 138.703 114.469 138.99ZM120.061 137.93V138.81C120.361 138.177 120.894 137.86 121.661 137.86C122.154 137.86 122.547 138.01 122.841 138.31C123.134 138.61 123.281 139.01 123.281 139.51V143H122.491V139.72C122.491 139.347 122.394 139.063 122.201 138.87C122.014 138.67 121.767 138.57 121.461 138.57C121.081 138.57 120.751 138.717 120.471 139.01C120.197 139.303 120.061 139.71 120.061 140.23V143H119.281V137.93H120.061ZM126.581 142.17C126.948 142.17 127.271 142.03 127.551 141.75C127.838 141.463 127.981 141.04 127.981 140.48C127.981 139.833 127.845 139.353 127.571 139.04C127.298 138.727 126.981 138.57 126.621 138.57C126.188 138.57 125.845 138.743 125.591 139.09C125.338 139.43 125.211 139.877 125.211 140.43C125.211 140.997 125.351 141.43 125.631 141.73C125.911 142.023 126.228 142.17 126.581 142.17ZM127.981 137.93H128.771V142.59C128.771 143.363 128.558 143.943 128.131 144.33C127.705 144.723 127.155 144.92 126.481 144.92C125.868 144.92 125.345 144.817 124.911 144.61V143.82C125.338 144.067 125.838 144.19 126.411 144.19C126.898 144.19 127.281 144.06 127.561 143.8C127.841 143.54 127.981 143.133 127.981 142.58V142.01C127.648 142.583 127.151 142.87 126.491 142.87C125.911 142.87 125.415 142.657 125.001 142.23C124.595 141.803 124.391 141.21 124.391 140.45C124.391 139.697 124.581 139.077 124.961 138.59C125.341 138.103 125.838 137.86 126.451 137.86C127.145 137.86 127.655 138.163 127.981 138.77V137.93ZM132.899 140.66H132.019C131.593 140.66 131.273 140.743 131.059 140.91C130.846 141.077 130.739 141.287 130.739 141.54C130.739 141.793 130.823 142 130.989 142.16C131.156 142.313 131.399 142.39 131.719 142.39C132.079 142.39 132.366 142.29 132.579 142.09C132.793 141.883 132.899 141.623 132.899 141.31V140.66ZM130.279 138.99V138.2C130.659 137.967 131.159 137.85 131.779 137.85C133.053 137.85 133.689 138.497 133.689 139.79V143H132.909V142.4C132.649 142.833 132.176 143.05 131.489 143.05C131.016 143.05 130.633 142.91 130.339 142.63C130.053 142.35 129.909 141.997 129.909 141.57C129.909 141.083 130.093 140.707 130.459 140.44C130.833 140.167 131.339 140.03 131.979 140.03H132.899V139.77C132.899 139.37 132.809 139.07 132.629 138.87C132.449 138.663 132.146 138.56 131.719 138.56C131.179 138.56 130.699 138.703 130.279 138.99ZM135.871 137.93V138.81C136.171 138.177 136.705 137.86 137.471 137.86C137.965 137.86 138.358 138.01 138.651 138.31C138.945 138.61 139.091 139.01 139.091 139.51V143H138.301V139.72C138.301 139.347 138.205 139.063 138.011 138.87C137.825 138.67 137.578 138.57 137.271 138.57C136.891 138.57 136.561 138.717 136.281 139.01C136.008 139.303 135.871 139.71 135.871 140.23V143H135.091V137.93H135.871Z" fill="#FF1934"/>
<defs>
<filter id="filter0_d_1124_4113" x="-4" y="-2" width="224" height="56" filterUnits="userSpaceOnUse" color-interpolation-filters="sRGB">
<feFlood flood-opacity="0" result="BackgroundImageFix"/>
<feColorMatrix in="SourceAlpha" type="matrix" values="0 0 0 0 0 0 0 0 0 0 0 0 0 0 0 0 0 0 127 0" result="hardAlpha"/>
<feOffset dy="2"/>
<feGaussianBlur stdDeviation="2"/>
<feComposite in2="hardAlpha" operator="out"/>
<feColorMatrix type="matrix" values="0 0 0 0 0.168627 0 0 0 0 0.168627 0 0 0 0 0.168627 0 0 0 0.24 0"/>
<feBlend mode="normal" in2="BackgroundImageFix" result="effect1_dropShadow_1124_4113"/>
<feBlend mode="normal" in="SourceGraphic" in2="effect1_dropShadow_1124_4113" result="shape"/>
</filter>
<clipPath id="clip0_1124_4113">
<rect width="24" height="24" fill="white" transform="translate(16 16)"/>
</clipPath>
<clipPath id="clip1_1124_4113">
<rect width="40" height="40" fill="white" transform="translate(88 64)"/>
</clipPath>
</defs>
</svg>
