<svg width="61" height="62" viewBox="0 0 61 62" fill="none" xmlns="http://www.w3.org/2000/svg">
<rect width="61" height="62" fill="#D3D3D3"/>
<g clip-path="url(#clip0_1124_4113)">
<path d="M8.63988 10.3499L14.5499 4.28991L16.9099 4.74991L17.4199 9.86991L27.5299 9.17991L26.9299 5.47991C26.7699 4.46991 27.4899 3.65991 28.5399 3.65991C29.5899 3.65991 30.5799 4.47991 30.7499 5.47991L31.3099 8.91991L49.8799 7.65991L51.1799 8.22991L53.3699 26.9499L34.8599 30.5799L38.2599 51.2999C39.1299 51.6699 39.9399 52.1799 40.6099 52.7899C40.8799 53.0299 41.1199 53.2899 41.3399 53.5499C41.3399 53.5499 41.3399 53.5599 41.3499 53.5699C41.5699 53.8299 41.7599 54.1099 41.9299 54.3999C41.9299 54.3999 41.9299 54.4199 41.9399 54.4299C42.0999 54.7199 42.2399 55.0099 42.3499 55.3199C42.4199 55.5299 42.4699 55.7399 42.5099 55.9399L42.7399 57.3299C42.7199 57.2399 42.6799 57.0699 42.5899 56.7899C43.4899 59.3999 41.7099 61.5199 38.6199 61.5199C35.5299 61.5199 32.3199 59.3899 31.4699 56.7899C31.4099 56.5899 31.3599 56.3999 31.3299 56.2099V56.2199L31.0899 54.7399C30.7199 52.7099 32.0099 51.0999 34.2399 50.7299L31.0999 31.3099L19.7499 33.5399L20.3899 40.0499L18.1099 39.4099L12.2399 35.4199L8.62988 10.3299L8.63988 10.3499Z" fill="#E7E7E7"/>
<path d="M33.0397 51.8999H36.8597C33.7397 51.8999 31.9597 56.1799 31.9597 56.1799V54.6399C31.9397 53.5799 32.3397 52.6399 33.0297 51.8999H33.0397Z" fill="#FF1934"/>
<path d="M43.3596 55.2399C43.3996 55.4599 43.4096 55.6699 43.4196 55.8899V57.3399C43.4196 57.2399 43.4096 57.0699 43.3496 56.7699C42.8796 54.0799 39.9696 51.8999 36.8496 51.8999H41.2196C42.3296 52.7699 43.1196 53.9399 43.3496 55.2399H43.3596Z" fill="#FF1934"/>
<path d="M32.0198 56.7699C32.4698 59.4799 35.3798 61.6799 38.5298 61.6799C41.6798 61.6799 43.8398 59.4799 43.3698 56.7699C42.8998 54.0599 39.9898 51.8999 36.8698 51.8999C33.7498 51.8999 31.5798 54.0699 32.0298 56.7699H32.0198Z" fill="#FF1934"/>
<path d="M32.0198 55.2401C32.4698 57.9501 35.3798 60.1501 38.5298 60.1501C41.6798 60.1501 43.8398 57.9501 43.3698 55.2401C42.8998 52.5301 39.9898 50.3701 36.8698 50.3701C33.7498 50.3701 31.5798 52.5401 32.0298 55.2401H32.0198Z" fill="#FF6678"/>
<path d="M37.8496 56.79C38.9496 56.79 39.8496 55.89 39.8496 54.79V2C39.8496 0.9 38.9496 0 37.8496 0C36.7496 0 35.8496 0.9 35.8496 2V54.79C35.8496 55.89 36.7496 56.79 37.8496 56.79Z" fill="white"/>
<path d="M0 22.0499L23.08 0.689941L25.48 1.19994L23.42 6.91994L59.49 4.38994L60.75 5.00994L58 24.9799L21.64 31.5299L23.38 39.2299L21.13 38.5599L0 22.0499Z" fill="#DA011C"/>
<path d="M2.17969 23.37L25.4797 1.19995L25.0997 8.10995L60.7497 5.00995L59.6297 25.27L23.7597 32.32L23.3797 39.2299L2.17969 23.37Z" fill="#FF6678"/>
<path d="M29.2804 14.7199L29.3004 16.6599C28.6704 16.3099 28.0104 16.1699 27.3304 16.2399C27.0204 16.2699 26.7904 16.3699 26.6204 16.5399C26.4504 16.7099 26.3804 16.8999 26.3804 17.1299C26.3804 17.3599 26.4804 17.5499 26.6804 17.7099C26.8804 17.8599 27.1804 18.0199 27.5804 18.1699C27.8204 18.2699 28.0304 18.3499 28.1904 18.4299C28.3504 18.5099 28.5404 18.6099 28.7404 18.7499C28.9504 18.8899 29.1104 19.0499 29.2304 19.2199C29.3504 19.3899 29.4604 19.5999 29.5404 19.8599C29.6304 20.1199 29.6704 20.3999 29.6704 20.7199C29.6704 21.5399 29.4204 22.2399 28.9104 22.8299C28.4004 23.4199 27.7004 23.7899 26.8204 23.9199C25.8704 24.0699 25.0804 23.9999 24.4604 23.6999V21.5399C25.1904 22.0499 25.9804 22.2399 26.8004 22.1199C27.0804 22.0799 27.3104 21.9599 27.4904 21.7699C27.6704 21.5799 27.7604 21.3399 27.7604 21.0699C27.7604 20.9799 27.7504 20.8899 27.7204 20.8199C27.7004 20.7399 27.6504 20.6699 27.5904 20.6099C27.5304 20.5499 27.4604 20.4899 27.4104 20.4499C27.3604 20.4099 27.2604 20.3599 27.1504 20.3099C27.0304 20.2599 26.9404 20.2099 26.8604 20.1799C26.7804 20.1399 26.6604 20.0999 26.5104 20.0299C26.3504 19.9699 26.2304 19.9199 26.1304 19.8899C25.6004 19.6799 25.1804 19.3899 24.8604 19.0299C24.5304 18.6599 24.3704 18.1399 24.3604 17.4599C24.3604 16.6499 24.6104 15.9699 25.1304 15.4299C25.6404 14.8899 26.3504 14.5699 27.2504 14.4799C28.0404 14.3999 28.7204 14.4799 29.2904 14.7399L29.2804 14.7199Z" fill="#F1F1F1"/>
<path d="M35.6501 13.6899L35.6701 15.2999L33.9001 15.4899L33.9701 22.7099L32.2601 22.9799L32.1901 15.6799L30.3301 15.8799V14.2199L35.6501 13.6899Z" fill="#F1F1F1"/>
<path d="M41.22 21.57L40.79 19.9L38.39 20.24L37.98 22.07L36.29 22.33L38.55 13.39L40.52 13.2L42.84 21.32L41.22 21.57ZM38.76 18.61L40.4 18.39L40.33 18.1C40.13 17.3 39.96 16.62 39.83 16.06C39.7 15.49 39.62 15.13 39.59 14.96L39.55 14.71C39.5 15.18 39.26 16.37 38.83 18.3L38.76 18.61Z" fill="#F1F1F1"/>
<path d="M46.9508 20.68L45.5608 18.05L45.1208 18.11L45.1608 20.96L43.6908 21.19L43.5908 12.9L45.7908 12.68C46.4908 12.61 47.0508 12.8 47.4708 13.23C47.8908 13.66 48.1108 14.26 48.1208 15.02C48.1408 16.16 47.7708 17 47.0308 17.54L48.6208 20.42L46.9508 20.68ZM45.0708 14.27L45.1008 16.58L45.7808 16.49C46.4008 16.41 46.7008 15.98 46.6908 15.19C46.6908 14.85 46.6008 14.58 46.4408 14.41C46.2808 14.24 46.0608 14.16 45.7808 14.19L45.0708 14.27Z" fill="#F1F1F1"/>
<path d="M53.1304 11.96L53.1504 13.38L51.7604 13.53L51.8504 19.92L50.5104 20.13L50.4204 13.68L48.9604 13.84L48.9404 12.37L53.1304 11.96Z" fill="#F1F1F1"/>
</g>
<defs>
<clipPath id="clip0_1124_4113">
<rect width="60.75" height="61.68" fill="white"/>
</clipPath>
</defs>
</svg>
