<svg width="611" height="284" viewBox="0 0 611 284" fill="none" xmlns="http://www.w3.org/2000/svg">
<rect width="611" height="284" fill="#D3D3D3"/>
<rect width="611" height="284" rx="16" fill="white"/>
<g filter="url(#filter0_d_1124_4113)">
<path d="M0 16C0 7.16344 7.16344 0 16 0H595C603.837 0 611 7.16344 611 16V48H0V16Z" fill="#FF1934" shape-rendering="crispEdges"/>
<g clip-path="url(#clip0_1124_4113)">
<path d="M28 38C22.49 38 18 33.51 18 28C18 22.49 22.49 18 28 18C33.51 18 38 22.49 38 28C38 33.51 33.51 38 28 38Z" fill="white"/>
<path d="M27.1701 32.8C26.9801 32.8 26.7801 32.73 26.6301 32.59C26.3001 32.29 26.2801 31.79 26.5801 31.46L29.6301 28.14C29.7001 28.06 29.7001 27.95 29.6301 27.87L26.5801 24.55C26.2801 24.22 26.3001 23.72 26.6301 23.42C26.9601 23.12 27.4601 23.14 27.7601 23.47L30.8101 26.79C31.4501 27.48 31.4501 28.53 30.8101 29.22L27.7601 32.54C27.6001 32.71 27.3901 32.8 27.1701 32.8Z" fill="#FF1934"/>
</g>
<path d="M48.7 32L49.512 22.564H51.878L53.194 25.98C53.418 26.5493 53.6093 27.072 53.768 27.548C53.9267 28.024 54.0293 28.36 54.076 28.556L54.146 28.836C54.2953 28.22 54.622 27.268 55.126 25.98L56.456 22.564H58.822L59.802 32H57.646L57.296 28.346L57.114 25.588C56.8713 26.288 56.5353 27.2073 56.106 28.346L54.776 31.902H53.502L52.186 28.346C51.9713 27.7673 51.7893 27.2493 51.64 26.792C51.4907 26.3347 51.3927 26.0173 51.346 25.84L51.276 25.588C51.276 26.2507 51.234 27.17 51.15 28.346L50.856 32H48.7ZM64.4721 32.112C63.3614 32.112 62.5028 31.7807 61.8961 31.118C61.2894 30.446 60.9861 29.5873 60.9861 28.542C60.9861 27.45 61.3034 26.554 61.9381 25.854C62.5728 25.1447 63.4174 24.79 64.4721 24.79C65.5734 24.79 66.4274 25.1307 67.0341 25.812C67.6408 26.4933 67.9441 27.3613 67.9441 28.416C67.9441 29.4893 67.6361 30.376 67.0201 31.076C66.4134 31.7667 65.5641 32.112 64.4721 32.112ZM64.4581 26.4C64.0101 26.4 63.6741 26.5913 63.4501 26.974C63.2261 27.3567 63.1141 27.8513 63.1141 28.458C63.1141 29.0647 63.2261 29.564 63.4501 29.956C63.6834 30.3387 64.0288 30.53 64.4861 30.53C64.9341 30.53 65.2654 30.3433 65.4801 29.97C65.7041 29.5873 65.8161 29.0927 65.8161 28.486C65.8161 27.0953 65.3634 26.4 64.4581 26.4ZM72.5415 30.376C73.0081 30.376 73.3861 30.194 73.6755 29.83C73.9648 29.466 74.1095 28.9807 74.1095 28.374C74.1095 27.786 73.9508 27.3287 73.6335 27.002C73.3255 26.6753 72.9568 26.512 72.5275 26.512C72.0981 26.512 71.7341 26.6847 71.4355 27.03C71.1461 27.3753 71.0015 27.856 71.0015 28.472C71.0015 29.0413 71.1508 29.5033 71.4495 29.858C71.7481 30.2033 72.1121 30.376 72.5415 30.376ZM74.1095 22.102H76.1535V32H74.1095V30.894C73.6335 31.6873 72.9241 32.084 71.9815 32.084C71.0575 32.084 70.3155 31.7247 69.7555 31.006C69.2048 30.2873 68.9295 29.4287 68.9295 28.43C68.9295 27.31 69.2188 26.428 69.7975 25.784C70.3761 25.14 71.1088 24.818 71.9955 24.818C72.9195 24.818 73.6241 25.21 74.1095 25.994V22.102ZM81.94 27.8V27.632C81.8747 26.8013 81.5107 26.386 80.848 26.386C80.5214 26.386 80.232 26.5073 79.98 26.75C79.728 26.9833 79.56 27.3333 79.476 27.8H81.94ZM83.41 29.886V31.594C82.9247 31.9113 82.1827 32.07 81.184 32.07C80.0174 32.07 79.1074 31.734 78.454 31.062C77.81 30.3807 77.488 29.508 77.488 28.444C77.488 27.3147 77.8007 26.4327 78.426 25.798C79.0607 25.154 79.84 24.832 80.764 24.832C81.716 24.832 82.4674 25.112 83.018 25.672C83.5687 26.2227 83.844 27.0487 83.844 28.15C83.844 28.3647 83.8067 28.7333 83.732 29.256H79.56C79.7 29.648 79.9427 29.9513 80.288 30.166C80.6334 30.3807 81.0487 30.488 81.534 30.488C82.2527 30.488 82.878 30.2873 83.41 29.886ZM85.3729 32V22.102H87.4169V32H85.3729ZM94.898 27.24H95.612C96.7507 27.24 97.32 26.722 97.32 25.686C97.32 24.7527 96.7927 24.286 95.738 24.286H94.898V27.24ZM92.742 22.564H95.99C97.0354 22.564 97.88 22.858 98.524 23.446C99.1774 24.034 99.504 24.7807 99.504 25.686C99.504 26.722 99.1634 27.5247 98.482 28.094C97.81 28.6633 96.9794 28.948 95.99 28.948H94.898V32H92.742V22.564ZM104.663 27.8V27.632C104.597 26.8013 104.233 26.386 103.571 26.386C103.244 26.386 102.955 26.5073 102.703 26.75C102.451 26.9833 102.283 27.3333 102.199 27.8H104.663ZM106.133 29.886V31.594C105.647 31.9113 104.905 32.07 103.907 32.07C102.74 32.07 101.83 31.734 101.177 31.062C100.533 30.3807 100.211 29.508 100.211 28.444C100.211 27.3147 100.523 26.4327 101.149 25.798C101.783 25.154 102.563 24.832 103.487 24.832C104.439 24.832 105.19 25.112 105.741 25.672C106.291 26.2227 106.567 27.0487 106.567 28.15C106.567 28.3647 106.529 28.7333 106.455 29.256H102.283C102.423 29.648 102.665 29.9513 103.011 30.166C103.356 30.3807 103.771 30.488 104.257 30.488C104.975 30.488 105.601 30.2873 106.133 29.886ZM110.056 24.902V26.218C110.186 25.8073 110.401 25.4807 110.7 25.238C111.008 24.986 111.362 24.86 111.764 24.86C111.988 24.86 112.165 24.8787 112.296 24.916V26.848C112.072 26.7453 111.815 26.694 111.526 26.694C111.087 26.694 110.732 26.8573 110.462 27.184C110.191 27.5013 110.056 27.926 110.056 28.458V32H108.012L108.026 24.902H110.056ZM115.251 24.902V26.008C115.643 25.224 116.311 24.832 117.253 24.832C118.252 24.832 118.915 25.28 119.241 26.176C119.4 25.756 119.666 25.4293 120.039 25.196C120.413 24.9533 120.851 24.832 121.355 24.832C122.055 24.832 122.606 25.056 123.007 25.504C123.418 25.9427 123.623 26.5913 123.623 27.45V32H121.579V27.786C121.579 27.3847 121.5 27.0673 121.341 26.834C121.183 26.6007 120.954 26.484 120.655 26.484C120.338 26.484 120.053 26.6147 119.801 26.876C119.559 27.128 119.437 27.5853 119.437 28.248V32H117.393V27.786C117.393 27.3847 117.314 27.0673 117.155 26.834C116.997 26.6007 116.768 26.484 116.469 26.484C116.152 26.484 115.867 26.6147 115.615 26.876C115.373 27.128 115.251 27.5853 115.251 28.248V32H113.207V24.902H115.251ZM128.752 29.088H128.094C127.749 29.088 127.483 29.1627 127.296 29.312C127.11 29.4613 127.016 29.6527 127.016 29.886C127.016 30.362 127.292 30.6 127.842 30.6C128.132 30.6 128.356 30.5113 128.514 30.334C128.673 30.1567 128.752 29.914 128.752 29.606V29.088ZM125.434 27.086V25.252C125.994 24.9347 126.802 24.776 127.856 24.776C128.864 24.776 129.616 24.9953 130.11 25.434C130.605 25.8633 130.852 26.5353 130.852 27.45V32H128.85V31.132C128.552 31.7387 127.964 32.042 127.086 32.042C126.396 32.042 125.854 31.846 125.462 31.454C125.08 31.062 124.888 30.572 124.888 29.984C124.888 29.3027 125.136 28.7753 125.63 28.402C126.134 28.0193 126.876 27.828 127.856 27.828H128.752V27.338C128.752 26.7407 128.356 26.442 127.562 26.442C126.797 26.442 126.088 26.6567 125.434 27.086ZM132.527 32V24.902H134.571V32H132.527ZM132.709 23.684C132.476 23.4507 132.359 23.1707 132.359 22.844C132.359 22.5173 132.476 22.2373 132.709 22.004C132.943 21.7707 133.223 21.654 133.549 21.654C133.876 21.654 134.156 21.7707 134.389 22.004C134.623 22.2373 134.739 22.5173 134.739 22.844C134.739 23.1707 134.623 23.4507 134.389 23.684C134.156 23.9173 133.876 24.034 133.549 24.034C133.223 24.034 132.943 23.9173 132.709 23.684ZM138.37 24.902V26.106C138.548 25.714 138.818 25.406 139.182 25.182C139.556 24.9487 139.999 24.832 140.512 24.832C141.24 24.832 141.81 25.0513 142.22 25.49C142.631 25.9193 142.836 26.554 142.836 27.394V32H140.792V27.772C140.792 27.352 140.694 27.0347 140.498 26.82C140.302 26.596 140.027 26.484 139.672 26.484C139.299 26.484 138.986 26.6333 138.734 26.932C138.492 27.2213 138.37 27.66 138.37 28.248V32H136.326V24.902H138.37ZM147.961 29.088H147.303C146.958 29.088 146.692 29.1627 146.505 29.312C146.319 29.4613 146.225 29.6527 146.225 29.886C146.225 30.362 146.501 30.6 147.051 30.6C147.341 30.6 147.565 30.5113 147.723 30.334C147.882 30.1567 147.961 29.914 147.961 29.606V29.088ZM144.643 27.086V25.252C145.203 24.9347 146.011 24.776 147.065 24.776C148.073 24.776 148.825 24.9953 149.319 25.434C149.814 25.8633 150.061 26.5353 150.061 27.45V32H148.059V31.132C147.761 31.7387 147.173 32.042 146.295 32.042C145.605 32.042 145.063 31.846 144.671 31.454C144.289 31.062 144.097 30.572 144.097 29.984C144.097 29.3027 144.345 28.7753 144.839 28.402C145.343 28.0193 146.085 27.828 147.065 27.828H147.961V27.338C147.961 26.7407 147.565 26.442 146.771 26.442C146.006 26.442 145.297 26.6567 144.643 27.086ZM153.71 24.902V26.106C153.888 25.714 154.158 25.406 154.522 25.182C154.896 24.9487 155.339 24.832 155.852 24.832C156.58 24.832 157.15 25.0513 157.56 25.49C157.971 25.9193 158.176 26.554 158.176 27.394V32H156.132V27.772C156.132 27.352 156.034 27.0347 155.838 26.82C155.642 26.596 155.367 26.484 155.012 26.484C154.639 26.484 154.326 26.6333 154.074 26.932C153.832 27.2213 153.71 27.66 153.71 28.248V32H151.666V24.902H153.71Z" fill="white"/>
<path d="M583 14C583 6.26801 589.268 -5.47967e-07 597 -1.22392e-06C604.732 -1.89987e-06 611 6.26801 611 14C611 21.732 604.732 28 597 28C589.268 28 583 21.732 583 14Z" fill="#FF1934"/>
<g clip-path="url(#clip1_1124_4113)">
<path d="M601.21 9.41001C600.88 9.11001 600.38 9.13001 600.08 9.46001L597 12.82L593.92 9.46001C593.62 9.13001 593.11 9.11001 592.79 9.41001C592.46 9.71001 592.44 10.21 592.74 10.54L595.91 14L592.74 17.46C592.44 17.79 592.46 18.29 592.79 18.59C592.94 18.73 593.14 18.8 593.33 18.8C593.55 18.8 593.76 18.71 593.92 18.54L597 15.18L600.08 18.54C600.24 18.71 600.45 18.8 600.67 18.8C600.86 18.8 601.06 18.73 601.21 18.59C601.54 18.29 601.56 17.79 601.26 17.46L598.09 14L601.26 10.54C601.56 10.21 601.54 9.71001 601.21 9.41001Z" fill="white"/>
<path d="M597 4C591.49 4 587 8.49 587 14C587 19.51 591.49 24 597 24C602.51 24 607 19.51 607 14C607 8.49 602.51 4 597 4ZM597 22.4C592.37 22.4 588.6 18.63 588.6 14C588.6 9.37 592.37 5.6 597 5.6C601.63 5.6 605.4 9.37 605.4 14C605.4 18.63 601.63 22.4 597 22.4Z" fill="white"/>
</g>
</g>
<mask id="path-9-outside-1_1124_4113" maskUnits="userSpaceOnUse" x="16" y="56" width="145" height="32" fill="black">
<rect fill="white" x="16" y="56" width="145" height="32"/>
<path d="M16 56H160V88H16V56Z"/>
</mask>
<path d="M16 56H160V88H16V56Z" fill="white"/>
<path d="M159 56V88H161V56H159Z" fill="#F1F1F1" mask="url(#path-9-outside-1_1124_4113)"/>
<g clip-path="url(#clip2_1124_4113)">
<path d="M44.2904 78.72C43.2004 77.29 41.7604 76.16 40.1204 75.45C39.8304 75.33 39.7304 75.07 39.7004 74.94C39.6404 74.68 39.7004 74.4 39.8804 74.19C40.9604 72.89 41.6104 71.18 41.6104 69.61C41.6104 66.52 39.1004 64.01 36.0104 64.01C32.9204 64.01 30.4104 66.52 30.4104 69.61C30.4104 71.18 31.0604 72.89 32.1404 74.19C32.3104 74.4 32.3804 74.68 32.3204 74.94C32.2904 75.08 32.1904 75.33 31.9004 75.45C30.2604 76.16 28.8104 77.29 27.7204 78.72C27.4504 79.07 27.5204 79.57 27.8704 79.84C28.0204 79.95 28.1904 80 28.3504 80C28.5904 80 28.8304 79.89 28.9904 79.68C29.9104 78.47 31.1304 77.51 32.5304 76.91C33.2104 76.62 33.7004 76.03 33.8704 75.3C34.0504 74.55 33.8704 73.75 33.3704 73.15C32.5304 72.14 32.0104 70.78 32.0104 69.59C32.0104 67.38 33.8004 65.59 36.0104 65.59C38.2204 65.59 40.0104 67.38 40.0104 69.59C40.0104 70.78 39.4904 72.14 38.6504 73.15C37.8704 74.08 36.9404 74.59 36.0104 74.59C35.5704 74.59 35.2104 74.95 35.2104 75.39C35.2104 75.83 35.5704 76.19 36.0104 76.19C36.7804 76.19 37.5404 75.97 38.2404 75.56C38.4604 76.16 38.8904 76.65 39.4904 76.9C40.8804 77.5 42.1004 78.46 43.0304 79.67C43.1904 79.88 43.4304 79.99 43.6704 79.99C43.8404 79.99 44.0104 79.94 44.1504 79.83C44.5004 79.56 44.5704 79.06 44.3004 78.71L44.2904 78.72Z" fill="#2B2B2B"/>
</g>
<path d="M57.9545 74.13H59.0145C59.7812 74.13 60.3645 73.89 60.7645 73.41C61.1645 72.93 61.3645 72.3134 61.3645 71.56C61.3645 70.8667 61.1479 70.29 60.7145 69.83C60.2812 69.37 59.7045 69.14 58.9845 69.14H57.9545V74.13ZM56.9045 68.26H59.0045C60.0045 68.26 60.8245 68.57 61.4645 69.19C62.1045 69.81 62.4245 70.6 62.4245 71.56C62.4245 72.56 62.1212 73.3834 61.5145 74.03C60.9145 74.6767 60.0845 75 59.0245 75H56.9045V68.26ZM66.5745 72.1V71.92C66.5611 71.54 66.4578 71.24 66.2645 71.02C66.0711 70.7934 65.7945 70.68 65.4345 70.68C65.1011 70.68 64.8145 70.8034 64.5745 71.05C64.3345 71.29 64.1845 71.64 64.1245 72.1H66.5745ZM67.2045 73.85V74.73C66.8311 74.9434 66.3378 75.05 65.7245 75.05C64.9378 75.05 64.3111 74.8134 63.8445 74.34C63.3778 73.8667 63.1445 73.2467 63.1445 72.48C63.1445 71.6667 63.3578 71.03 63.7845 70.57C64.2111 70.1034 64.7545 69.87 65.4145 69.87C66.0611 69.87 66.5745 70.0734 66.9545 70.48C67.3345 70.88 67.5245 71.46 67.5245 72.22C67.5245 72.4267 67.5045 72.6434 67.4645 72.87H64.1345C64.2011 73.31 64.3878 73.6467 64.6945 73.88C65.0011 74.1134 65.3878 74.23 65.8545 74.23C66.3945 74.23 66.8445 74.1034 67.2045 73.85ZM71.4584 70.1V70.99C71.1317 70.7967 70.7117 70.7 70.1984 70.7C69.965 70.7 69.7784 70.7534 69.6384 70.86C69.505 70.9667 69.4384 71.1067 69.4384 71.28C69.4384 71.3267 69.4417 71.3734 69.4484 71.42C69.4617 71.46 69.4817 71.5034 69.5084 71.55C69.535 71.59 69.5584 71.6267 69.5784 71.66C69.605 71.6867 69.645 71.7167 69.6984 71.75C69.7517 71.7834 69.7917 71.8134 69.8184 71.84C69.8517 71.86 69.9017 71.8867 69.9684 71.92C70.0417 71.9534 70.095 71.98 70.1284 72C70.1617 72.0134 70.2184 72.04 70.2984 72.08C70.385 72.1134 70.445 72.1367 70.4784 72.15C70.8717 72.3234 71.1784 72.52 71.3984 72.74C71.625 72.9534 71.7384 73.24 71.7384 73.6C71.7384 74.0534 71.5784 74.41 71.2584 74.67C70.9384 74.9234 70.505 75.05 69.9584 75.05C69.3584 75.05 68.8584 74.95 68.4584 74.75V73.82C68.925 74.1067 69.4084 74.25 69.9084 74.25C70.1684 74.25 70.3684 74.1967 70.5084 74.09C70.655 73.9834 70.7284 73.8434 70.7284 73.67C70.7284 73.5234 70.6717 73.3934 70.5584 73.28C70.445 73.16 70.3284 73.0734 70.2084 73.02C70.095 72.96 69.8984 72.87 69.6184 72.75C68.825 72.4234 68.4284 71.9434 68.4284 71.31C68.4284 70.8634 68.595 70.5134 68.9284 70.26C69.2617 70.0067 69.6784 69.88 70.1784 69.88C70.725 69.88 71.1517 69.9534 71.4584 70.1ZM72.6878 75V69.93H73.6778V75H72.6878ZM72.7378 68.82C72.6245 68.7 72.5678 68.5534 72.5678 68.38C72.5678 68.2067 72.6245 68.06 72.7378 67.94C72.8578 67.82 73.0045 67.76 73.1778 67.76C73.3511 67.76 73.4978 67.82 73.6178 67.94C73.7378 68.06 73.7978 68.2067 73.7978 68.38C73.7978 68.5467 73.7378 68.69 73.6178 68.81C73.4978 68.93 73.3511 68.99 73.1778 68.99C73.0045 68.99 72.8578 68.9334 72.7378 68.82ZM76.259 70.69V73.48C76.259 73.9667 76.4923 74.21 76.959 74.21C77.2323 74.21 77.4623 74.1367 77.649 73.99V74.87C77.429 74.99 77.159 75.05 76.839 75.05C75.7923 75.05 75.269 74.52 75.269 73.46V70.69H74.479V69.93H75.269V68.69H76.259V69.93H77.589V70.69H76.259ZM81.2892 72.74H80.5292C80.1559 72.74 79.8726 72.8134 79.6792 72.96C79.4926 73.1067 79.3992 73.2934 79.3992 73.52C79.3992 73.7534 79.4726 73.9367 79.6192 74.07C79.7659 74.2034 79.9792 74.27 80.2592 74.27C80.5792 74.27 80.8292 74.1834 81.0092 74.01C81.1959 73.83 81.2892 73.5967 81.2892 73.31V72.74ZM78.7392 71.14V70.19C79.1326 69.9634 79.6526 69.85 80.2992 69.85C81.6259 69.85 82.2892 70.4934 82.2892 71.78V75H81.3192V74.4C81.0592 74.8267 80.6026 75.04 79.9492 75.04C79.4692 75.04 79.0826 74.9034 78.7892 74.63C78.5026 74.35 78.3592 73.9967 78.3592 73.57C78.3592 73.0834 78.5426 72.7067 78.9092 72.44C79.2759 72.1667 79.7892 72.03 80.4492 72.03H81.2892V71.74C81.2892 71.3934 81.2059 71.1334 81.0392 70.96C80.8726 70.78 80.5959 70.69 80.2092 70.69C79.6692 70.69 79.1792 70.84 78.7392 71.14ZM85.8904 75V68.26H87.1104L88.7704 71.08C89.0771 71.6067 89.3537 72.0934 89.6004 72.54C89.8537 72.9867 90.0271 73.3 90.1204 73.48L90.2604 73.76C90.2204 73.1534 90.2004 72.2634 90.2004 71.09V68.26H91.2304V75H90.0104L88.3404 72.19C88.0404 71.6834 87.7637 71.2067 87.5104 70.76C87.2637 70.3067 87.0904 69.98 86.9904 69.78L86.8404 69.49C86.8937 70.1567 86.9204 71.0534 86.9204 72.18V75H85.8904ZM95.6873 69.93H96.6673V75H95.6873V74.13C95.4206 74.75 94.8939 75.06 94.1073 75.06C93.6073 75.06 93.2106 74.9134 92.9173 74.62C92.6239 74.32 92.4773 73.91 92.4773 73.39V69.93H93.4673V73.15C93.4673 73.4967 93.5506 73.7634 93.7173 73.95C93.8906 74.13 94.1273 74.22 94.4273 74.22C94.8073 74.22 95.1106 74.0867 95.3373 73.82C95.5706 73.5534 95.6873 73.1767 95.6873 72.69V69.93ZM98.9151 69.93V70.82C99.1617 70.1934 99.6051 69.88 100.245 69.88C100.338 69.88 100.442 69.89 100.555 69.91V70.87C100.415 70.81 100.258 70.78 100.085 70.78C99.7451 70.78 99.4651 70.93 99.2451 71.23C99.0251 71.53 98.9151 71.8867 98.9151 72.3V75H97.9351V69.93H98.9151ZM104.635 69.12V71.58H105.565C105.991 71.58 106.315 71.47 106.535 71.25C106.755 71.0234 106.865 70.7234 106.865 70.35C106.865 69.53 106.415 69.12 105.515 69.12H104.635ZM107.105 75L105.525 72.44H104.635V75H103.605V68.26H105.485C106.258 68.26 106.855 68.45 107.275 68.83C107.695 69.2034 107.905 69.7134 107.905 70.36C107.898 70.8334 107.778 71.2367 107.545 71.57C107.311 71.8967 106.988 72.1334 106.575 72.28L108.335 75H107.105ZM111.258 75.09C110.512 75.09 109.925 74.8467 109.498 74.36C109.072 73.8734 108.858 73.2567 108.858 72.51C108.858 71.75 109.078 71.12 109.518 70.62C109.958 70.1134 110.538 69.86 111.258 69.86C112.032 69.86 112.628 70.1067 113.048 70.6C113.468 71.0867 113.678 71.71 113.678 72.47C113.678 73.23 113.462 73.8567 113.028 74.35C112.602 74.8434 112.012 75.09 111.258 75.09ZM111.248 70.69C110.815 70.69 110.478 70.8634 110.238 71.21C109.998 71.55 109.878 71.9734 109.878 72.48C109.878 72.98 110.002 73.4034 110.248 73.75C110.495 74.09 110.832 74.26 111.258 74.26C111.712 74.26 112.055 74.0934 112.288 73.76C112.528 73.4267 112.648 73.0034 112.648 72.49C112.648 71.9634 112.535 71.5334 112.308 71.2C112.082 70.86 111.728 70.69 111.248 70.69ZM117.563 70.1V70.99C117.236 70.7967 116.816 70.7 116.303 70.7C116.069 70.7 115.883 70.7534 115.743 70.86C115.609 70.9667 115.543 71.1067 115.543 71.28C115.543 71.3267 115.546 71.3734 115.553 71.42C115.566 71.46 115.586 71.5034 115.613 71.55C115.639 71.59 115.663 71.6267 115.683 71.66C115.709 71.6867 115.749 71.7167 115.803 71.75C115.856 71.7834 115.896 71.8134 115.923 71.84C115.956 71.86 116.006 71.8867 116.073 71.92C116.146 71.9534 116.199 71.98 116.233 72C116.266 72.0134 116.323 72.04 116.403 72.08C116.489 72.1134 116.549 72.1367 116.583 72.15C116.976 72.3234 117.283 72.52 117.503 72.74C117.729 72.9534 117.843 73.24 117.843 73.6C117.843 74.0534 117.683 74.41 117.363 74.67C117.043 74.9234 116.609 75.05 116.063 75.05C115.463 75.05 114.963 74.95 114.563 74.75V73.82C115.029 74.1067 115.513 74.25 116.013 74.25C116.273 74.25 116.473 74.1967 116.613 74.09C116.759 73.9834 116.833 73.8434 116.833 73.67C116.833 73.5234 116.776 73.3934 116.663 73.28C116.549 73.16 116.433 73.0734 116.313 73.02C116.199 72.96 116.003 72.87 115.723 72.75C114.929 72.4234 114.533 71.9434 114.533 71.31C114.533 70.8634 114.699 70.5134 115.033 70.26C115.366 70.0067 115.783 69.88 116.283 69.88C116.829 69.88 117.256 69.9534 117.563 70.1ZM120.152 74.89L118.132 69.93H119.222L119.852 71.58L120.642 73.72C120.702 73.52 120.942 72.8067 121.362 71.58L121.932 69.93H122.972L121.142 74.86C120.656 76.16 119.912 76.81 118.912 76.81C118.732 76.81 118.579 76.7934 118.452 76.76V75.92C118.559 75.9467 118.672 75.96 118.792 75.96C119.439 75.96 119.892 75.6034 120.152 74.89ZM123.721 75V69.93H124.711V75H123.721ZM123.771 68.82C123.658 68.7 123.601 68.5534 123.601 68.38C123.601 68.2067 123.658 68.06 123.771 67.94C123.891 67.82 124.038 67.76 124.211 67.76C124.385 67.76 124.531 67.82 124.651 67.94C124.771 68.06 124.831 68.2067 124.831 68.38C124.831 68.5467 124.771 68.69 124.651 68.81C124.531 68.93 124.385 68.99 124.211 68.99C124.038 68.99 123.891 68.9334 123.771 68.82ZM128.072 74.21C128.459 74.21 128.786 74.0634 129.052 73.77C129.319 73.4767 129.452 73.03 129.452 72.43C129.452 71.85 129.312 71.42 129.032 71.14C128.759 70.86 128.449 70.72 128.102 70.72C127.709 70.72 127.386 70.8767 127.132 71.19C126.879 71.4967 126.752 71.9367 126.752 72.51C126.752 73.0167 126.876 73.4267 127.122 73.74C127.376 74.0534 127.692 74.21 128.072 74.21ZM129.452 67.93H130.442V75H129.452V74.23C129.099 74.79 128.582 75.07 127.902 75.07C127.236 75.07 126.709 74.82 126.322 74.32C125.936 73.8134 125.742 73.2034 125.742 72.49C125.742 71.6967 125.946 71.06 126.352 70.58C126.759 70.1 127.282 69.86 127.922 69.86C128.582 69.86 129.092 70.14 129.452 70.7V67.93ZM131.753 75V69.93H132.743V75H131.753ZM131.803 68.82C131.69 68.7 131.633 68.5534 131.633 68.38C131.633 68.2067 131.69 68.06 131.803 67.94C131.923 67.82 132.07 67.76 132.243 67.76C132.417 67.76 132.563 67.82 132.683 67.94C132.803 68.06 132.863 68.2067 132.863 68.38C132.863 68.5467 132.803 68.69 132.683 68.81C132.563 68.93 132.417 68.99 132.243 68.99C132.07 68.99 131.923 68.9334 131.803 68.82ZM136.724 72.74H135.964C135.591 72.74 135.308 72.8134 135.114 72.96C134.928 73.1067 134.834 73.2934 134.834 73.52C134.834 73.7534 134.908 73.9367 135.054 74.07C135.201 74.2034 135.414 74.27 135.694 74.27C136.014 74.27 136.264 74.1834 136.444 74.01C136.631 73.83 136.724 73.5967 136.724 73.31V72.74ZM134.174 71.14V70.19C134.568 69.9634 135.088 69.85 135.734 69.85C137.061 69.85 137.724 70.4934 137.724 71.78V75H136.754V74.4C136.494 74.8267 136.038 75.04 135.384 75.04C134.904 75.04 134.518 74.9034 134.224 74.63C133.938 74.35 133.794 73.9967 133.794 73.57C133.794 73.0834 133.978 72.7067 134.344 72.44C134.711 72.1667 135.224 72.03 135.884 72.03H136.724V71.74C136.724 71.3934 136.641 71.1334 136.474 70.96C136.308 70.78 136.031 70.69 135.644 70.69C135.104 70.69 134.614 70.84 134.174 71.14ZM138.725 74.88C138.598 74.7467 138.535 74.5867 138.535 74.4C138.535 74.2134 138.598 74.0567 138.725 73.93C138.858 73.7967 139.021 73.73 139.215 73.73C139.401 73.73 139.558 73.7967 139.685 73.93C139.818 74.0567 139.885 74.2134 139.885 74.4C139.885 74.5867 139.818 74.7467 139.685 74.88C139.558 75.0134 139.401 75.08 139.215 75.08C139.021 75.08 138.858 75.0134 138.725 74.88ZM140.548 74.88C140.422 74.7467 140.358 74.5867 140.358 74.4C140.358 74.2134 140.422 74.0567 140.548 73.93C140.682 73.7967 140.845 73.73 141.038 73.73C141.225 73.73 141.382 73.7967 141.508 73.93C141.642 74.0567 141.708 74.2134 141.708 74.4C141.708 74.5867 141.642 74.7467 141.508 74.88C141.382 75.0134 141.225 75.08 141.038 75.08C140.845 75.08 140.682 75.0134 140.548 74.88ZM142.372 74.88C142.245 74.7467 142.182 74.5867 142.182 74.4C142.182 74.2134 142.245 74.0567 142.372 73.93C142.505 73.7967 142.669 73.73 142.862 73.73C143.049 73.73 143.205 73.7967 143.332 73.93C143.465 74.0567 143.532 74.2134 143.532 74.4C143.532 74.5867 143.465 74.7467 143.332 74.88C143.205 75.0134 143.049 75.08 142.862 75.08C142.669 75.08 142.505 75.0134 142.372 74.88Z" fill="#2B2B2B"/>
<rect width="88" height="24" transform="translate(164 64)" fill="url(#paint0_linear_1124_4113)"/>
<path d="M176.65 75.15V78.38H176.64L176.65 78.45C176.07 78.87 175.343 79.08 174.47 79.08C173.417 79.08 172.567 78.77 171.92 78.15C171.28 77.53 170.96 76.6867 170.96 75.62C170.96 74.5867 171.283 73.75 171.93 73.11C172.583 72.4634 173.41 72.14 174.41 72.14C175.19 72.14 175.843 72.29 176.37 72.59V73.65C175.797 73.29 175.157 73.11 174.45 73.11C173.73 73.11 173.147 73.34 172.7 73.8C172.26 74.26 172.04 74.8667 172.04 75.62C172.04 76.3934 172.257 77.0034 172.69 77.45C173.13 77.8967 173.733 78.12 174.5 78.12C174.9 78.12 175.28 78.0467 175.64 77.9V76.04H174.27V75.15H176.65ZM180.667 76.74H179.907C179.533 76.74 179.25 76.8134 179.057 76.96C178.87 77.1067 178.777 77.2934 178.777 77.52C178.777 77.7534 178.85 77.9367 178.997 78.07C179.143 78.2034 179.357 78.27 179.637 78.27C179.957 78.27 180.207 78.1834 180.387 78.01C180.573 77.83 180.667 77.5967 180.667 77.31V76.74ZM178.117 75.14V74.19C178.51 73.9634 179.03 73.85 179.677 73.85C181.003 73.85 181.667 74.4934 181.667 75.78V79H180.697V78.4C180.437 78.8267 179.98 79.04 179.327 79.04C178.847 79.04 178.46 78.9034 178.167 78.63C177.88 78.35 177.737 77.9967 177.737 77.57C177.737 77.0834 177.92 76.7067 178.287 76.44C178.653 76.1667 179.167 76.03 179.827 76.03H180.667V75.74C180.667 75.3934 180.583 75.1334 180.417 74.96C180.25 74.78 179.973 74.69 179.587 74.69C179.047 74.69 178.557 74.84 178.117 75.14ZM185.377 78.21C185.75 78.21 186.064 78.0534 186.317 77.74C186.57 77.42 186.697 77.01 186.697 76.51C186.697 75.9367 186.57 75.4967 186.317 75.19C186.064 74.8767 185.74 74.72 185.347 74.72C185 74.72 184.687 74.86 184.407 75.14C184.134 75.42 183.997 75.85 183.997 76.43C183.997 77.03 184.13 77.4767 184.397 77.77C184.664 78.0634 184.99 78.21 185.377 78.21ZM183.997 71.93V74.7C184.357 74.14 184.867 73.86 185.527 73.86C186.167 73.86 186.69 74.1 187.097 74.58C187.504 75.06 187.707 75.6967 187.707 76.49C187.707 77.2034 187.514 77.8134 187.127 78.32C186.74 78.82 186.21 79.07 185.537 79.07C184.864 79.07 184.35 78.79 183.997 78.23V79H183.007V71.93H183.997ZM191.957 73.93H192.937V79H191.957V78.13C191.691 78.75 191.164 79.06 190.377 79.06C189.877 79.06 189.481 78.9134 189.187 78.62C188.894 78.32 188.747 77.91 188.747 77.39V73.93H189.737V77.15C189.737 77.4967 189.821 77.7634 189.987 77.95C190.161 78.13 190.397 78.22 190.697 78.22C191.077 78.22 191.381 78.0867 191.607 77.82C191.841 77.5534 191.957 77.1767 191.957 76.69V73.93ZM195.295 73.93V74.8C195.595 74.1734 196.122 73.86 196.875 73.86C197.375 73.86 197.772 74.0134 198.065 74.32C198.358 74.6267 198.505 75.0434 198.505 75.57V79H197.525V75.8C197.525 75.4467 197.435 75.1767 197.255 74.99C197.082 74.8034 196.848 74.71 196.555 74.71C196.208 74.71 195.912 74.8467 195.665 75.12C195.418 75.3867 195.295 75.7634 195.295 76.25V79H194.315V73.93H195.295ZM201.823 78.02C202.169 78.02 202.469 77.8867 202.723 77.62C202.983 77.3467 203.113 76.9667 203.113 76.48C203.113 75.88 202.989 75.4367 202.743 75.15C202.503 74.8634 202.209 74.72 201.863 74.72C201.469 74.72 201.159 74.8767 200.933 75.19C200.706 75.4967 200.593 75.9034 200.593 76.41C200.593 76.9367 200.713 77.3367 200.953 77.61C201.199 77.8834 201.489 78.02 201.823 78.02ZM203.113 73.93H204.093V78.57C204.093 79.35 203.869 79.9367 203.423 80.33C202.983 80.73 202.416 80.93 201.723 80.93C201.069 80.93 200.519 80.82 200.073 80.6V79.61C200.499 79.89 201.016 80.03 201.623 80.03C202.616 80.03 203.113 79.54 203.113 78.56V78.04C202.786 78.5867 202.296 78.86 201.643 78.86C201.069 78.86 200.579 78.65 200.173 78.23C199.766 77.8034 199.563 77.2034 199.563 76.43C199.563 75.6834 199.753 75.07 200.133 74.59C200.513 74.1034 201.016 73.86 201.643 73.86C202.316 73.86 202.806 74.1467 203.113 74.72V73.93ZM208.94 73.12V75.58H209.87C210.296 75.58 210.62 75.47 210.84 75.25C211.06 75.0234 211.17 74.7234 211.17 74.35C211.17 73.53 210.72 73.12 209.82 73.12H208.94ZM211.41 79L209.83 76.44H208.94V79H207.91V72.26H209.79C210.563 72.26 211.16 72.45 211.58 72.83C212 73.2034 212.21 73.7134 212.21 74.36C212.203 74.8334 212.083 75.2367 211.85 75.57C211.616 75.8967 211.293 76.1334 210.88 76.28L212.64 79H211.41ZM216.703 73.93H217.683V79H216.703V78.13C216.437 78.75 215.91 79.06 215.123 79.06C214.623 79.06 214.227 78.9134 213.933 78.62C213.64 78.32 213.493 77.91 213.493 77.39V73.93H214.483V77.15C214.483 77.4967 214.567 77.7634 214.733 77.95C214.907 78.13 215.143 78.22 215.443 78.22C215.823 78.22 216.127 78.0867 216.353 77.82C216.587 77.5534 216.703 77.1767 216.703 76.69V73.93ZM221.731 76.74H220.971C220.598 76.74 220.314 76.8134 220.121 76.96C219.934 77.1067 219.841 77.2934 219.841 77.52C219.841 77.7534 219.914 77.9367 220.061 78.07C220.208 78.2034 220.421 78.27 220.701 78.27C221.021 78.27 221.271 78.1834 221.451 78.01C221.638 77.83 221.731 77.5967 221.731 77.31V76.74ZM219.181 75.14V74.19C219.574 73.9634 220.094 73.85 220.741 73.85C222.068 73.85 222.731 74.4934 222.731 75.78V79H221.761V78.4C221.501 78.8267 221.044 79.04 220.391 79.04C219.911 79.04 219.524 78.9034 219.231 78.63C218.944 78.35 218.801 77.9967 218.801 77.57C218.801 77.0834 218.984 76.7067 219.351 76.44C219.718 76.1667 220.231 76.03 220.891 76.03H221.731V75.74C221.731 75.3934 221.648 75.1334 221.481 74.96C221.314 74.78 221.038 74.69 220.651 74.69C220.111 74.69 219.621 74.84 219.181 75.14ZM225.031 73.93V74.8C225.331 74.1734 225.858 73.86 226.611 73.86C227.111 73.86 227.508 74.0134 227.801 74.32C228.095 74.6267 228.241 75.0434 228.241 75.57V79H227.261V75.8C227.261 75.4467 227.171 75.1767 226.991 74.99C226.818 74.8034 226.585 74.71 226.291 74.71C225.945 74.71 225.648 74.8467 225.401 75.12C225.155 75.3867 225.031 75.7634 225.031 76.25V79H224.051V73.93H225.031ZM231.559 78.02C231.906 78.02 232.206 77.8867 232.459 77.62C232.719 77.3467 232.849 76.9667 232.849 76.48C232.849 75.88 232.726 75.4367 232.479 75.15C232.239 74.8634 231.946 74.72 231.599 74.72C231.206 74.72 230.896 74.8767 230.669 75.19C230.442 75.4967 230.329 75.9034 230.329 76.41C230.329 76.9367 230.449 77.3367 230.689 77.61C230.936 77.8834 231.226 78.02 231.559 78.02ZM232.849 73.93H233.829V78.57C233.829 79.35 233.606 79.9367 233.159 80.33C232.719 80.73 232.152 80.93 231.459 80.93C230.806 80.93 230.256 80.82 229.809 80.6V79.61C230.236 79.89 230.752 80.03 231.359 80.03C232.352 80.03 232.849 79.54 232.849 78.56V78.04C232.522 78.5867 232.032 78.86 231.379 78.86C230.806 78.86 230.316 78.65 229.909 78.23C229.502 77.8034 229.299 77.2034 229.299 76.43C229.299 75.6834 229.489 75.07 229.869 74.59C230.249 74.1034 230.752 73.86 231.379 73.86C232.052 73.86 232.542 74.1467 232.849 74.72V73.93ZM237.815 76.74H237.055C236.682 76.74 236.398 76.8134 236.205 76.96C236.018 77.1067 235.925 77.2934 235.925 77.52C235.925 77.7534 235.998 77.9367 236.145 78.07C236.292 78.2034 236.505 78.27 236.785 78.27C237.105 78.27 237.355 78.1834 237.535 78.01C237.722 77.83 237.815 77.5967 237.815 77.31V76.74ZM235.265 75.14V74.19C235.658 73.9634 236.178 73.85 236.825 73.85C238.152 73.85 238.815 74.4934 238.815 75.78V79H237.845V78.4C237.585 78.8267 237.128 79.04 236.475 79.04C235.995 79.04 235.608 78.9034 235.315 78.63C235.028 78.35 234.885 77.9967 234.885 77.57C234.885 77.0834 235.068 76.7067 235.435 76.44C235.802 76.1667 236.315 76.03 236.975 76.03H237.815V75.74C237.815 75.3934 237.732 75.1334 237.565 74.96C237.398 74.78 237.122 74.69 236.735 74.69C236.195 74.69 235.705 74.84 235.265 75.14ZM241.115 73.93V74.8C241.415 74.1734 241.942 73.86 242.695 73.86C243.195 73.86 243.592 74.0134 243.885 74.32C244.179 74.6267 244.325 75.0434 244.325 75.57V79H243.345V75.8C243.345 75.4467 243.255 75.1767 243.075 74.99C242.902 74.8034 242.669 74.71 242.375 74.71C242.029 74.71 241.732 74.8467 241.485 75.12C241.239 75.3867 241.115 75.7634 241.115 76.25V79H240.135V73.93H241.115Z" fill="#FF1934"/>
<path d="M259.7 79L260.19 72.26H261.22L262.11 74.72L263.19 77.86C263.577 76.7667 263.957 75.72 264.33 74.72L265.26 72.26H266.29L266.88 79H266.07L265.84 76.34L265.6 73.35C265.247 74.3367 264.883 75.3333 264.51 76.34L263.57 78.85H262.8L261.91 76.34L260.89 73.41C260.89 73.67 260.827 74.6467 260.7 76.34L260.51 79H259.7ZM271.534 76.14V75.94C271.534 75.52 271.421 75.1867 271.194 74.94C270.968 74.6867 270.654 74.56 270.254 74.56C269.874 74.56 269.551 74.6967 269.284 74.97C269.018 75.2433 268.861 75.6333 268.814 76.14H271.534ZM272.004 78V78.74C271.611 78.9467 271.131 79.05 270.564 79.05C269.798 79.05 269.178 78.8167 268.704 78.35C268.238 77.8767 268.004 77.2533 268.004 76.48C268.004 75.6733 268.214 75.0367 268.634 74.57C269.054 74.1033 269.594 73.87 270.254 73.87C270.888 73.87 271.391 74.0733 271.764 74.48C272.138 74.8867 272.324 75.4633 272.324 76.21C272.324 76.4233 272.308 76.62 272.274 76.8H268.814C268.874 77.3 269.064 77.6833 269.384 77.95C269.704 78.2167 270.124 78.35 270.644 78.35C271.211 78.35 271.664 78.2333 272.004 78ZM274.309 73.93V74.75C274.589 74.1567 275.065 73.86 275.739 73.86C276.519 73.86 277.012 74.19 277.219 74.85C277.365 74.53 277.569 74.2867 277.829 74.12C278.095 73.9467 278.392 73.86 278.719 73.86C279.245 73.86 279.642 74.01 279.909 74.31C280.175 74.61 280.309 75.0133 280.309 75.52V79H279.519V75.72C279.519 74.9533 279.195 74.57 278.549 74.57C278.229 74.57 277.942 74.7167 277.689 75.01C277.435 75.2967 277.309 75.7033 277.309 76.23V79H276.519V75.72C276.519 74.9533 276.195 74.57 275.549 74.57C275.229 74.57 274.942 74.7167 274.689 75.01C274.435 75.2967 274.309 75.7033 274.309 76.23V79H273.529V73.93H274.309ZM284.022 78.36C284.429 78.36 284.766 78.19 285.032 77.85C285.299 77.51 285.432 77.0667 285.432 76.52C285.432 75.8933 285.292 75.4133 285.012 75.08C284.739 74.74 284.392 74.57 283.972 74.57C283.612 74.57 283.282 74.72 282.982 75.02C282.682 75.32 282.532 75.79 282.532 76.43C282.532 77.1033 282.676 77.5933 282.962 77.9C283.256 78.2067 283.609 78.36 284.022 78.36ZM282.532 71.93V74.69C282.899 74.13 283.412 73.85 284.072 73.85C284.712 73.85 285.236 74.0967 285.642 74.59C286.049 75.0767 286.252 75.7167 286.252 76.51C286.252 77.2233 286.059 77.83 285.672 78.33C285.292 78.83 284.766 79.08 284.092 79.08C283.412 79.08 282.892 78.8033 282.532 78.25V79H281.742V71.93H282.532ZM290.566 73.93H291.356V79H290.566V78.12C290.299 78.7467 289.769 79.06 288.976 79.06C288.476 79.06 288.079 78.9133 287.786 78.62C287.499 78.32 287.356 77.92 287.356 77.42V73.93H288.146V77.22C288.146 77.5867 288.239 77.8667 288.426 78.06C288.612 78.2533 288.866 78.35 289.186 78.35C289.606 78.35 289.939 78.2033 290.186 77.91C290.439 77.6167 290.566 77.22 290.566 76.72V73.93ZM295.546 76.66H294.666C294.239 76.66 293.919 76.7433 293.706 76.91C293.493 77.0767 293.386 77.2867 293.386 77.54C293.386 77.7933 293.469 78 293.636 78.16C293.803 78.3133 294.046 78.39 294.366 78.39C294.726 78.39 295.013 78.29 295.226 78.09C295.439 77.8833 295.546 77.6233 295.546 77.31V76.66ZM292.926 74.99V74.2C293.306 73.9667 293.806 73.85 294.426 73.85C295.699 73.85 296.336 74.4967 296.336 75.79V79H295.556V78.4C295.296 78.8333 294.823 79.05 294.136 79.05C293.663 79.05 293.279 78.91 292.986 78.63C292.699 78.35 292.556 77.9967 292.556 77.57C292.556 77.0833 292.739 76.7067 293.106 76.44C293.479 76.1667 293.986 76.03 294.626 76.03H295.546V75.77C295.546 75.37 295.456 75.07 295.276 74.87C295.096 74.6633 294.793 74.56 294.366 74.56C293.826 74.56 293.346 74.7033 292.926 74.99ZM298.828 74.57V77.54C298.828 78.08 299.081 78.35 299.588 78.35C299.848 78.35 300.078 78.2733 300.278 78.12V78.87C300.058 78.99 299.811 79.05 299.538 79.05C298.538 79.05 298.038 78.54 298.038 77.52V74.57H297.228V73.93H298.038V72.67H298.828V73.93H300.228V74.57H298.828ZM304.721 72.96V75.65H305.741C306.201 75.65 306.551 75.5267 306.791 75.28C307.037 75.0267 307.161 74.7033 307.161 74.31C307.161 73.41 306.657 72.96 305.651 72.96H304.721ZM308.391 79H307.421L305.771 76.34H305.691H304.721V79H303.911V72.26H305.601C306.381 72.26 306.971 72.4433 307.371 72.81C307.777 73.1767 307.981 73.6833 307.981 74.33C307.967 74.7967 307.844 75.1933 307.611 75.52C307.377 75.8467 307.047 76.0767 306.621 76.21L308.391 79ZM312.499 73.93H313.289V79H312.499V78.12C312.232 78.7467 311.702 79.06 310.909 79.06C310.409 79.06 310.012 78.9133 309.719 78.62C309.432 78.32 309.289 77.92 309.289 77.42V73.93H310.079V77.22C310.079 77.5867 310.172 77.8667 310.359 78.06C310.546 78.2533 310.799 78.35 311.119 78.35C311.539 78.35 311.872 78.2033 312.119 77.91C312.372 77.6167 312.499 77.22 312.499 76.72V73.93ZM317.48 76.66H316.6C316.173 76.66 315.853 76.7433 315.64 76.91C315.426 77.0767 315.32 77.2867 315.32 77.54C315.32 77.7933 315.403 78 315.57 78.16C315.736 78.3133 315.98 78.39 316.3 78.39C316.66 78.39 316.946 78.29 317.16 78.09C317.373 77.8833 317.48 77.6233 317.48 77.31V76.66ZM314.86 74.99V74.2C315.24 73.9667 315.74 73.85 316.36 73.85C317.633 73.85 318.27 74.4967 318.27 75.79V79H317.49V78.4C317.23 78.8333 316.756 79.05 316.07 79.05C315.596 79.05 315.213 78.91 314.92 78.63C314.633 78.35 314.49 77.9967 314.49 77.57C314.49 77.0833 314.673 76.7067 315.04 76.44C315.413 76.1667 315.92 76.03 316.56 76.03H317.48V75.77C317.48 75.37 317.39 75.07 317.21 74.87C317.03 74.6633 316.726 74.56 316.3 74.56C315.76 74.56 315.28 74.7033 314.86 74.99ZM320.451 73.93V74.81C320.751 74.1767 321.285 73.86 322.051 73.86C322.545 73.86 322.938 74.01 323.231 74.31C323.525 74.61 323.671 75.01 323.671 75.51V79H322.881V75.72C322.881 75.3467 322.785 75.0633 322.591 74.87C322.405 74.67 322.158 74.57 321.851 74.57C321.471 74.57 321.141 74.7167 320.861 75.01C320.588 75.3033 320.451 75.71 320.451 76.23V79H319.671V73.93H320.451ZM326.972 78.17C327.338 78.17 327.662 78.03 327.942 77.75C328.228 77.4633 328.372 77.04 328.372 76.48C328.372 75.8333 328.235 75.3533 327.962 75.04C327.688 74.7267 327.372 74.57 327.012 74.57C326.578 74.57 326.235 74.7433 325.982 75.09C325.728 75.43 325.602 75.8767 325.602 76.43C325.602 76.9967 325.742 77.43 326.022 77.73C326.302 78.0233 326.618 78.17 326.972 78.17ZM328.372 73.93H329.162V78.59C329.162 79.3633 328.948 79.9433 328.522 80.33C328.095 80.7233 327.545 80.92 326.872 80.92C326.258 80.92 325.735 80.8167 325.302 80.61V79.82C325.728 80.0667 326.228 80.19 326.802 80.19C327.288 80.19 327.672 80.06 327.952 79.8C328.232 79.54 328.372 79.1333 328.372 78.58V78.01C328.038 78.5833 327.542 78.87 326.882 78.87C326.302 78.87 325.805 78.6567 325.392 78.23C324.985 77.8033 324.782 77.21 324.782 76.45C324.782 75.6967 324.972 75.0767 325.352 74.59C325.732 74.1033 326.228 73.86 326.842 73.86C327.535 73.86 328.045 74.1633 328.372 74.77V73.93ZM333.29 76.66H332.41C331.983 76.66 331.663 76.7433 331.45 76.91C331.237 77.0767 331.13 77.2867 331.13 77.54C331.13 77.7933 331.213 78 331.38 78.16C331.547 78.3133 331.79 78.39 332.11 78.39C332.47 78.39 332.757 78.29 332.97 78.09C333.183 77.8833 333.29 77.6233 333.29 77.31V76.66ZM330.67 74.99V74.2C331.05 73.9667 331.55 73.85 332.17 73.85C333.443 73.85 334.08 74.4967 334.08 75.79V79H333.3V78.4C333.04 78.8333 332.567 79.05 331.88 79.05C331.407 79.05 331.023 78.91 330.73 78.63C330.443 78.35 330.3 77.9967 330.3 77.57C330.3 77.0833 330.483 76.7067 330.85 76.44C331.223 76.1667 331.73 76.03 332.37 76.03H333.29V75.77C333.29 75.37 333.2 75.07 333.02 74.87C332.84 74.6633 332.537 74.56 332.11 74.56C331.57 74.56 331.09 74.7033 330.67 74.99ZM336.262 73.93V74.81C336.562 74.1767 337.095 73.86 337.862 73.86C338.355 73.86 338.749 74.01 339.042 74.31C339.335 74.61 339.482 75.01 339.482 75.51V79H338.692V75.72C338.692 75.3467 338.595 75.0633 338.402 74.87C338.215 74.67 337.969 74.57 337.662 74.57C337.282 74.57 336.952 74.7167 336.672 75.01C336.399 75.3033 336.262 75.71 336.262 76.23V79H335.482V73.93H336.262Z" fill="#2B2B2B"/>
<mask id="path-15-inside-2_1124_4113" fill="white">
<path d="M0 88H611V268H0V88Z"/>
</mask>
<path d="M0 89H611V87H0V89Z" fill="#FF1934" mask="url(#path-15-inside-2_1124_4113)"/>
<g filter="url(#filter1_d_1124_4113)">
<path d="M241.5 124C241.5 115.163 248.663 108 257.5 108L353.5 108C362.337 108 369.5 115.163 369.5 124C369.5 132.837 362.337 140 353.5 140L257.5 140C248.663 140 241.5 132.837 241.5 124Z" fill="#FF1934" shape-rendering="crispEdges"/>
<g clip-path="url(#clip3_1124_4113)">
<path d="M265.5 134C259.99 134 255.5 129.51 255.5 124C255.5 118.49 259.99 114 265.5 114C271.01 114 275.5 118.49 275.5 124C275.5 129.51 271.01 134 265.5 134Z" fill="white"/>
<path d="M264.67 128.8C264.48 128.8 264.28 128.73 264.13 128.59C263.8 128.29 263.78 127.79 264.08 127.46L267.13 124.14C267.2 124.06 267.2 123.95 267.13 123.87L264.08 120.55C263.78 120.22 263.8 119.72 264.13 119.42C264.46 119.12 264.96 119.14 265.26 119.47L268.31 122.79C268.95 123.48 268.95 124.53 268.31 125.22L265.26 128.54C265.1 128.71 264.89 128.8 264.67 128.8Z" fill="#FF1934"/>
</g>
<path d="M282.08 127L282.62 120.26H284.06L284.98 122.71C285.14 123.123 285.29 123.537 285.43 123.95C285.57 124.357 285.67 124.66 285.73 124.86L285.82 125.17C286.027 124.477 286.313 123.657 286.68 122.71L287.62 120.26H289.06L289.72 127H288.46L288.22 124.37L288.04 122.01C287.8 122.697 287.513 123.483 287.18 124.37L286.24 126.9H285.38L284.46 124.37L283.67 122.04C283.67 122.367 283.627 123.143 283.54 124.37L283.34 127H282.08ZM292.269 125.97H295.019V127H290.999V120.26H294.979V121.29H292.269V123.12H294.679V124.14H292.269V125.97ZM296.162 127L296.702 120.26H298.142L299.062 122.71C299.222 123.123 299.372 123.537 299.512 123.95C299.652 124.357 299.752 124.66 299.812 124.86L299.902 125.17C300.109 124.477 300.395 123.657 300.762 122.71L301.702 120.26H303.142L303.802 127H302.542L302.302 124.37L302.122 122.01C301.882 122.697 301.595 123.483 301.262 124.37L300.322 126.9H299.462L298.542 124.37L297.752 122.04C297.752 122.367 297.709 123.143 297.622 124.37L297.422 127H296.162ZM309.051 124.42V120.26H310.311V124.41C310.311 125.283 310.074 125.95 309.601 126.41C309.134 126.863 308.491 127.09 307.671 127.09C306.871 127.09 306.231 126.867 305.751 126.42C305.278 125.967 305.041 125.32 305.041 124.48V120.26H306.301V124.47C306.301 124.983 306.428 125.357 306.681 125.59C306.934 125.817 307.264 125.93 307.671 125.93C308.591 125.93 309.051 125.427 309.051 124.42ZM312.933 125.88H315.563V127H311.673V120.26H312.933V125.88ZM318.226 124.44H320.126L320.036 124.14C319.81 123.42 319.623 122.817 319.476 122.33C319.336 121.837 319.25 121.527 319.216 121.4L319.176 121.2C319.116 121.533 318.83 122.517 318.316 124.15L318.226 124.44ZM320.926 127L320.446 125.47H317.896L317.416 127H316.096L318.376 120.26H320.006L322.286 127H320.926ZM323.335 127V120.26H324.595V127H323.335ZM333.467 120.54V121.77C332.961 121.477 332.401 121.33 331.787 121.33C331.174 121.33 330.661 121.54 330.247 121.96C329.841 122.373 329.637 122.93 329.637 123.63C329.637 124.33 329.841 124.887 330.247 125.3C330.661 125.713 331.197 125.92 331.857 125.92C332.491 125.92 333.031 125.753 333.477 125.42V126.68C333.064 126.947 332.484 127.08 331.737 127.08C330.737 127.08 329.911 126.767 329.257 126.14C328.611 125.507 328.287 124.67 328.287 123.63C328.287 122.61 328.607 121.78 329.247 121.14C329.894 120.493 330.724 120.17 331.737 120.17C332.477 120.17 333.054 120.293 333.467 120.54ZM335.921 125.97H338.671V127H334.651V120.26H338.631V121.29H335.921V123.12H338.331V124.14H335.921V125.97ZM341.194 123.69H341.904C342.364 123.69 342.708 123.58 342.934 123.36C343.161 123.14 343.274 122.843 343.274 122.47C343.274 122.103 343.161 121.817 342.934 121.61C342.708 121.397 342.374 121.29 341.934 121.29H341.194V123.69ZM339.934 120.26H342.044C342.804 120.26 343.411 120.467 343.864 120.88C344.324 121.293 344.554 121.823 344.554 122.47C344.554 123.157 344.318 123.703 343.844 124.11C343.378 124.51 342.788 124.71 342.074 124.71H341.194V127H339.934V120.26ZM347.201 124.44H349.101L349.011 124.14C348.784 123.42 348.598 122.817 348.451 122.33C348.311 121.837 348.224 121.527 348.191 121.4L348.151 121.2C348.091 121.533 347.804 122.517 347.291 124.15L347.201 124.44ZM349.901 127L349.421 125.47H346.871L346.391 127H345.071L347.351 120.26H348.981L351.261 127H349.901ZM356.479 120.26V121.3H354.769V127H353.499V121.3H351.789V120.26H356.479Z" fill="white"/>
</g>
<rect width="579" height="12" transform="translate(16 156)" fill="url(#paint1_linear_1124_4113)"/>
<rect x="295" y="156.5" width="21" height="11" rx="5.5" fill="#DA011C"/>
<rect x="295" y="156.5" width="21" height="11" rx="5.5" stroke="white"/>
<path d="M300.915 162.474H300.481C300.262 162.474 300.094 162.521 299.977 162.614C299.86 162.703 299.802 162.817 299.802 162.957C299.802 163.256 299.975 163.405 300.32 163.405C300.507 163.405 300.651 163.351 300.754 163.244C300.861 163.132 300.915 162.987 300.915 162.81V162.474ZM299.193 161.41V160.633C299.459 160.47 299.842 160.388 300.341 160.388C301.302 160.388 301.783 160.836 301.783 161.732V164H300.95V163.573C300.787 163.876 300.479 164.028 300.026 164.028C299.69 164.028 299.422 163.93 299.221 163.734C299.025 163.538 298.927 163.291 298.927 162.992C298.927 162.656 299.053 162.392 299.305 162.201C299.557 162.01 299.921 161.914 300.397 161.914H300.915V161.697C300.915 161.501 300.864 161.352 300.761 161.249C300.658 161.146 300.483 161.095 300.236 161.095C299.858 161.095 299.51 161.2 299.193 161.41ZM303.672 161.081V162.887C303.672 163.036 303.711 163.151 303.791 163.23C303.87 163.305 303.98 163.342 304.12 163.342C304.297 163.342 304.46 163.293 304.61 163.195V163.916C304.446 163.995 304.236 164.035 303.98 164.035C303.214 164.035 302.832 163.648 302.832 162.873V161.081H302.3V160.451H302.832V159.597H303.672V160.451H304.554V161.081H303.672ZM307.115 162.474H306.681C306.462 162.474 306.294 162.521 306.177 162.614C306.061 162.703 306.002 162.817 306.002 162.957C306.002 163.256 306.175 163.405 306.52 163.405C306.707 163.405 306.852 163.351 306.954 163.244C307.062 163.132 307.115 162.987 307.115 162.81V162.474ZM305.393 161.41V160.633C305.659 160.47 306.042 160.388 306.541 160.388C307.503 160.388 307.983 160.836 307.983 161.732V164H307.15V163.573C306.987 163.876 306.679 164.028 306.226 164.028C305.89 164.028 305.622 163.93 305.421 163.734C305.225 163.538 305.127 163.291 305.127 162.992C305.127 162.656 305.253 162.392 305.505 162.201C305.757 162.01 306.121 161.914 306.597 161.914H307.115V161.697C307.115 161.501 307.064 161.352 306.961 161.249C306.859 161.146 306.684 161.095 306.436 161.095C306.058 161.095 305.711 161.2 305.393 161.41ZM311.048 160.451H311.895V164H311.048V163.419C310.861 163.83 310.497 164.035 309.956 164.035C309.597 164.035 309.317 163.932 309.116 163.727C308.915 163.522 308.815 163.23 308.815 162.852V160.451H309.655V162.656C309.655 162.88 309.709 163.05 309.816 163.167C309.928 163.284 310.08 163.342 310.271 163.342C310.514 163.342 310.703 163.26 310.838 163.097C310.978 162.934 311.048 162.686 311.048 162.355V160.451Z" fill="white"/>
<path d="M171.415 192.26V192.97H169.595V199H168.785V192.97H166.965V192.26H171.415ZM175.489 193.93H176.279V199H175.489V198.12C175.223 198.747 174.693 199.06 173.899 199.06C173.399 199.06 173.003 198.913 172.709 198.62C172.423 198.32 172.279 197.92 172.279 197.42V193.93H173.069V197.22C173.069 197.587 173.163 197.867 173.349 198.06C173.536 198.253 173.789 198.35 174.109 198.35C174.529 198.35 174.863 198.203 175.109 197.91C175.363 197.617 175.489 197.22 175.489 196.72V193.93ZM177.78 199V191.93H178.57V199H177.78ZM180.114 199V193.93H180.904V199H180.114ZM180.134 192.71C180.04 192.61 179.994 192.487 179.994 192.34C179.994 192.193 180.04 192.07 180.134 191.97C180.234 191.87 180.357 191.82 180.504 191.82C180.65 191.82 180.774 191.87 180.874 191.97C180.974 192.07 181.024 192.193 181.024 192.34C181.024 192.487 180.974 192.61 180.874 192.71C180.774 192.803 180.65 192.85 180.504 192.85C180.357 192.85 180.234 192.803 180.134 192.71ZM185.168 194.1V194.85C184.861 194.663 184.441 194.57 183.908 194.57C183.641 194.57 183.428 194.633 183.268 194.76C183.114 194.88 183.038 195.037 183.038 195.23C183.038 195.35 183.061 195.457 183.108 195.55C183.154 195.637 183.244 195.723 183.378 195.81C183.518 195.897 183.618 195.957 183.678 195.99C183.744 196.017 183.884 196.077 184.098 196.17C184.524 196.343 184.858 196.54 185.098 196.76C185.338 196.98 185.458 197.277 185.458 197.65C185.458 198.083 185.304 198.427 184.998 198.68C184.698 198.933 184.284 199.06 183.758 199.06C183.144 199.06 182.648 198.957 182.268 198.75V197.98C182.714 198.247 183.194 198.38 183.708 198.38C184.014 198.38 184.248 198.32 184.408 198.2C184.568 198.08 184.648 197.917 184.648 197.71C184.648 197.47 184.558 197.283 184.378 197.15C184.204 197.017 183.911 196.867 183.498 196.7C183.118 196.553 182.811 196.37 182.578 196.15C182.351 195.93 182.238 195.633 182.238 195.26C182.238 194.84 182.394 194.507 182.708 194.26C183.028 194.007 183.424 193.88 183.898 193.88C184.424 193.88 184.848 193.953 185.168 194.1ZM186.529 199V191.97H187.309V199H186.529ZM188.339 196.34L190.399 199H189.449L187.409 196.34L189.399 193.93H190.339L188.339 196.34ZM194.064 196.66H193.184C192.757 196.66 192.437 196.743 192.224 196.91C192.01 197.077 191.904 197.287 191.904 197.54C191.904 197.793 191.987 198 192.154 198.16C192.32 198.313 192.564 198.39 192.884 198.39C193.244 198.39 193.53 198.29 193.744 198.09C193.957 197.883 194.064 197.623 194.064 197.31V196.66ZM191.444 194.99V194.2C191.824 193.967 192.324 193.85 192.944 193.85C194.217 193.85 194.854 194.497 194.854 195.79V199H194.074V198.4C193.814 198.833 193.34 199.05 192.654 199.05C192.18 199.05 191.797 198.91 191.504 198.63C191.217 198.35 191.074 197.997 191.074 197.57C191.074 197.083 191.257 196.707 191.624 196.44C191.997 196.167 192.504 196.03 193.144 196.03H194.064V195.77C194.064 195.37 193.974 195.07 193.794 194.87C193.614 194.663 193.31 194.56 192.884 194.56C192.344 194.56 191.864 194.703 191.444 194.99ZM197.035 193.93V194.81C197.335 194.177 197.869 193.86 198.635 193.86C199.129 193.86 199.522 194.01 199.815 194.31C200.109 194.61 200.255 195.01 200.255 195.51V199H199.465V195.72C199.465 195.347 199.369 195.063 199.175 194.87C198.989 194.67 198.742 194.57 198.435 194.57C198.055 194.57 197.725 194.717 197.445 195.01C197.172 195.303 197.035 195.71 197.035 196.23V199H196.255V193.93H197.035ZM204.137 199V192.26H204.947V199H204.137ZM206.107 195.67L208.817 199H207.767L205.107 195.67L207.677 192.26H208.677L206.107 195.67ZM211.89 199.09C211.163 199.09 210.586 198.847 210.16 198.36C209.74 197.867 209.53 197.247 209.53 196.5C209.53 195.747 209.746 195.12 210.18 194.62C210.62 194.113 211.19 193.86 211.89 193.86C212.656 193.86 213.246 194.107 213.66 194.6C214.08 195.093 214.29 195.72 214.29 196.48C214.29 197.233 214.076 197.857 213.65 198.35C213.223 198.843 212.636 199.09 211.89 199.09ZM211.89 194.56C211.41 194.56 211.033 194.747 210.76 195.12C210.486 195.493 210.35 195.95 210.35 196.49C210.35 197.017 210.49 197.467 210.77 197.84C211.05 198.207 211.423 198.39 211.89 198.39C212.396 198.39 212.786 198.21 213.06 197.85C213.333 197.483 213.47 197.03 213.47 196.49C213.47 195.93 213.34 195.47 213.08 195.11C212.82 194.743 212.423 194.56 211.89 194.56ZM217.375 198.36C217.788 198.36 218.138 198.207 218.425 197.9C218.718 197.593 218.865 197.103 218.865 196.43C218.865 195.79 218.715 195.32 218.415 195.02C218.115 194.72 217.785 194.57 217.425 194.57C217.005 194.57 216.655 194.74 216.375 195.08C216.102 195.413 215.965 195.893 215.965 196.52C215.965 197.067 216.098 197.51 216.365 197.85C216.632 198.19 216.968 198.36 217.375 198.36ZM218.865 191.93H219.655V199H218.865V198.25C218.505 198.803 217.985 199.08 217.305 199.08C216.632 199.08 216.102 198.83 215.715 198.33C215.335 197.83 215.145 197.223 215.145 196.51C215.145 195.717 215.348 195.077 215.755 194.59C216.162 194.097 216.685 193.85 217.325 193.85C217.985 193.85 218.498 194.133 218.865 194.7V191.93ZM224.349 196.14V195.94C224.349 195.52 224.235 195.187 224.009 194.94C223.782 194.687 223.469 194.56 223.069 194.56C222.689 194.56 222.365 194.697 222.099 194.97C221.832 195.243 221.675 195.633 221.629 196.14H224.349ZM224.819 198V198.74C224.425 198.947 223.945 199.05 223.379 199.05C222.612 199.05 221.992 198.817 221.519 198.35C221.052 197.877 220.819 197.253 220.819 196.48C220.819 195.673 221.029 195.037 221.449 194.57C221.869 194.103 222.409 193.87 223.069 193.87C223.702 193.87 224.205 194.073 224.579 194.48C224.952 194.887 225.139 195.463 225.139 196.21C225.139 196.423 225.122 196.62 225.089 196.8H221.629C221.689 197.3 221.879 197.683 222.199 197.95C222.519 198.217 222.939 198.35 223.459 198.35C224.025 198.35 224.479 198.233 224.819 198ZM229.635 192.96V195.65H230.655C231.115 195.65 231.465 195.527 231.705 195.28C231.951 195.027 232.075 194.703 232.075 194.31C232.075 193.41 231.571 192.96 230.565 192.96H229.635ZM233.305 199H232.335L230.685 196.34H230.605H229.635V199H228.825V192.26H230.515C231.295 192.26 231.885 192.443 232.285 192.81C232.691 193.177 232.895 193.683 232.895 194.33C232.881 194.797 232.758 195.193 232.525 195.52C232.291 195.847 231.961 196.077 231.535 196.21L233.305 199ZM237.413 193.93H238.203V199H237.413V198.12C237.147 198.747 236.617 199.06 235.823 199.06C235.323 199.06 234.927 198.913 234.633 198.62C234.347 198.32 234.203 197.92 234.203 197.42V193.93H234.993V197.22C234.993 197.587 235.087 197.867 235.273 198.06C235.46 198.253 235.713 198.35 236.033 198.35C236.453 198.35 236.787 198.203 237.033 197.91C237.287 197.617 237.413 197.22 237.413 196.72V193.93ZM242.394 196.66H241.514C241.087 196.66 240.767 196.743 240.554 196.91C240.34 197.077 240.234 197.287 240.234 197.54C240.234 197.793 240.317 198 240.484 198.16C240.65 198.313 240.894 198.39 241.214 198.39C241.574 198.39 241.86 198.29 242.074 198.09C242.287 197.883 242.394 197.623 242.394 197.31V196.66ZM239.774 194.99V194.2C240.154 193.967 240.654 193.85 241.274 193.85C242.547 193.85 243.184 194.497 243.184 195.79V199H242.404V198.4C242.144 198.833 241.67 199.05 240.984 199.05C240.51 199.05 240.127 198.91 239.834 198.63C239.547 198.35 239.404 197.997 239.404 197.57C239.404 197.083 239.587 196.707 239.954 196.44C240.327 196.167 240.834 196.03 241.474 196.03H242.394V195.77C242.394 195.37 242.304 195.07 242.124 194.87C241.944 194.663 241.64 194.56 241.214 194.56C240.674 194.56 240.194 194.703 239.774 194.99ZM245.365 193.93V194.81C245.665 194.177 246.199 193.86 246.965 193.86C247.459 193.86 247.852 194.01 248.145 194.31C248.439 194.61 248.585 195.01 248.585 195.51V199H247.795V195.72C247.795 195.347 247.699 195.063 247.505 194.87C247.319 194.67 247.072 194.57 246.765 194.57C246.385 194.57 246.055 194.717 245.775 195.01C245.502 195.303 245.365 195.71 245.365 196.23V199H244.585V193.93H245.365ZM251.886 198.17C252.253 198.17 252.576 198.03 252.856 197.75C253.143 197.463 253.286 197.04 253.286 196.48C253.286 195.833 253.149 195.353 252.876 195.04C252.603 194.727 252.286 194.57 251.926 194.57C251.493 194.57 251.149 194.743 250.896 195.09C250.643 195.43 250.516 195.877 250.516 196.43C250.516 196.997 250.656 197.43 250.936 197.73C251.216 198.023 251.533 198.17 251.886 198.17ZM253.286 193.93H254.076V198.59C254.076 199.363 253.863 199.943 253.436 200.33C253.009 200.723 252.459 200.92 251.786 200.92C251.173 200.92 250.649 200.817 250.216 200.61V199.82C250.643 200.067 251.143 200.19 251.716 200.19C252.203 200.19 252.586 200.06 252.866 199.8C253.146 199.54 253.286 199.133 253.286 198.58V198.01C252.953 198.583 252.456 198.87 251.796 198.87C251.216 198.87 250.719 198.657 250.306 198.23C249.899 197.803 249.696 197.21 249.696 196.45C249.696 195.697 249.886 195.077 250.266 194.59C250.646 194.103 251.143 193.86 251.756 193.86C252.449 193.86 252.959 194.163 253.286 194.77V193.93ZM258.204 196.66H257.324C256.897 196.66 256.577 196.743 256.364 196.91C256.151 197.077 256.044 197.287 256.044 197.54C256.044 197.793 256.127 198 256.294 198.16C256.461 198.313 256.704 198.39 257.024 198.39C257.384 198.39 257.671 198.29 257.884 198.09C258.097 197.883 258.204 197.623 258.204 197.31V196.66ZM255.584 194.99V194.2C255.964 193.967 256.464 193.85 257.084 193.85C258.357 193.85 258.994 194.497 258.994 195.79V199H258.214V198.4C257.954 198.833 257.481 199.05 256.794 199.05C256.321 199.05 255.937 198.91 255.644 198.63C255.357 198.35 255.214 197.997 255.214 197.57C255.214 197.083 255.397 196.707 255.764 196.44C256.137 196.167 256.644 196.03 257.284 196.03H258.204V195.77C258.204 195.37 258.114 195.07 257.934 194.87C257.754 194.663 257.451 194.56 257.024 194.56C256.484 194.56 256.004 194.703 255.584 194.99ZM261.176 193.93V194.81C261.476 194.177 262.009 193.86 262.776 193.86C263.269 193.86 263.663 194.01 263.956 194.31C264.249 194.61 264.396 195.01 264.396 195.51V199H263.606V195.72C263.606 195.347 263.509 195.063 263.316 194.87C263.129 194.67 262.883 194.57 262.576 194.57C262.196 194.57 261.866 194.717 261.586 195.01C261.313 195.303 261.176 195.71 261.176 196.23V199H260.396V193.93H261.176ZM269.088 195.83H270.128C270.634 195.83 271.031 195.7 271.318 195.44C271.604 195.173 271.748 194.837 271.748 194.43C271.748 193.977 271.601 193.617 271.308 193.35C271.014 193.083 270.598 192.95 270.058 192.95H269.088V195.83ZM268.278 192.26H270.048C270.828 192.26 271.441 192.463 271.888 192.87C272.341 193.27 272.568 193.79 272.568 194.43C272.568 195.03 272.344 195.53 271.898 195.93C271.451 196.323 270.861 196.52 270.128 196.52H269.088V199H268.278V192.26ZM274.467 193.93V194.82C274.734 194.193 275.194 193.88 275.847 193.88C275.967 193.88 276.06 193.887 276.127 193.9V194.68C275.987 194.633 275.844 194.61 275.697 194.61C275.344 194.61 275.05 194.773 274.817 195.1C274.584 195.427 274.467 195.803 274.467 196.23V199H273.677L273.687 193.93H274.467ZM276.989 199V193.93H277.779V199H276.989ZM277.009 192.71C276.915 192.61 276.869 192.487 276.869 192.34C276.869 192.193 276.915 192.07 277.009 191.97C277.109 191.87 277.232 191.82 277.379 191.82C277.525 191.82 277.649 191.87 277.749 191.97C277.849 192.07 277.899 192.193 277.899 192.34C277.899 192.487 277.849 192.61 277.749 192.71C277.649 192.803 277.525 192.85 277.379 192.85C277.232 192.85 277.109 192.803 277.009 192.71ZM280.573 199L278.803 193.93H279.623L280.323 196.07L281.063 198.38C281.123 198.093 281.373 197.323 281.813 196.07L282.533 193.93H283.353L281.543 199H280.573ZM287.062 196.66H286.182C285.755 196.66 285.435 196.743 285.222 196.91C285.008 197.077 284.902 197.287 284.902 197.54C284.902 197.793 284.985 198 285.152 198.16C285.318 198.313 285.562 198.39 285.882 198.39C286.242 198.39 286.528 198.29 286.742 198.09C286.955 197.883 287.062 197.623 287.062 197.31V196.66ZM284.442 194.99V194.2C284.822 193.967 285.322 193.85 285.942 193.85C287.215 193.85 287.852 194.497 287.852 195.79V199H287.072V198.4C286.812 198.833 286.338 199.05 285.652 199.05C285.178 199.05 284.795 198.91 284.502 198.63C284.215 198.35 284.072 197.997 284.072 197.57C284.072 197.083 284.255 196.707 284.622 196.44C284.995 196.167 285.502 196.03 286.142 196.03H287.062V195.77C287.062 195.37 286.972 195.07 286.792 194.87C286.612 194.663 286.308 194.56 285.882 194.56C285.342 194.56 284.862 194.703 284.442 194.99ZM290.343 194.57V197.54C290.343 198.08 290.597 198.35 291.103 198.35C291.363 198.35 291.593 198.273 291.793 198.12V198.87C291.573 198.99 291.327 199.05 291.053 199.05C290.053 199.05 289.553 198.54 289.553 197.52V194.57H288.743V193.93H289.553V192.67H290.343V193.93H291.743V194.57H290.343Z" fill="#2B2B2B"/>
<rect x="301" y="184.5" width="143" height="23" rx="5.5" fill="white"/>
<rect x="301" y="184.5" width="143" height="23" rx="5.5" stroke="#CCCCCC"/>
<path d="M315.13 192.26V192.97H313.31V199H312.5V192.97H310.68V192.26H315.13ZM319.204 193.93H319.994V199H319.204V198.12C318.938 198.747 318.408 199.06 317.614 199.06C317.114 199.06 316.718 198.913 316.424 198.62C316.138 198.32 315.994 197.92 315.994 197.42V193.93H316.784V197.22C316.784 197.587 316.878 197.867 317.064 198.06C317.251 198.253 317.504 198.35 317.824 198.35C318.244 198.35 318.578 198.203 318.824 197.91C319.078 197.617 319.204 197.22 319.204 196.72V193.93ZM321.495 199V191.93H322.285V199H321.495ZM323.829 199V193.93H324.619V199H323.829ZM323.849 192.71C323.755 192.61 323.709 192.487 323.709 192.34C323.709 192.193 323.755 192.07 323.849 191.97C323.949 191.87 324.072 191.82 324.219 191.82C324.365 191.82 324.489 191.87 324.589 191.97C324.689 192.07 324.739 192.193 324.739 192.34C324.739 192.487 324.689 192.61 324.589 192.71C324.489 192.803 324.365 192.85 324.219 192.85C324.072 192.85 323.949 192.803 323.849 192.71ZM328.883 194.1V194.85C328.576 194.663 328.156 194.57 327.623 194.57C327.356 194.57 327.143 194.633 326.983 194.76C326.829 194.88 326.753 195.037 326.753 195.23C326.753 195.35 326.776 195.457 326.823 195.55C326.869 195.637 326.959 195.723 327.093 195.81C327.233 195.897 327.333 195.957 327.393 195.99C327.459 196.017 327.599 196.077 327.813 196.17C328.239 196.343 328.573 196.54 328.813 196.76C329.053 196.98 329.173 197.277 329.173 197.65C329.173 198.083 329.019 198.427 328.713 198.68C328.413 198.933 327.999 199.06 327.473 199.06C326.859 199.06 326.363 198.957 325.983 198.75V197.98C326.429 198.247 326.909 198.38 327.423 198.38C327.729 198.38 327.963 198.32 328.123 198.2C328.283 198.08 328.363 197.917 328.363 197.71C328.363 197.47 328.273 197.283 328.093 197.15C327.919 197.017 327.626 196.867 327.213 196.7C326.833 196.553 326.526 196.37 326.293 196.15C326.066 195.93 325.953 195.633 325.953 195.26C325.953 194.84 326.109 194.507 326.423 194.26C326.743 194.007 327.139 193.88 327.613 193.88C328.139 193.88 328.563 193.953 328.883 194.1ZM330.244 199V191.97H331.024V199H330.244ZM332.054 196.34L334.114 199H333.164L331.124 196.34L333.114 193.93H334.054L332.054 196.34ZM337.778 196.66H336.898C336.472 196.66 336.152 196.743 335.938 196.91C335.725 197.077 335.618 197.287 335.618 197.54C335.618 197.793 335.702 198 335.868 198.16C336.035 198.313 336.278 198.39 336.598 198.39C336.958 198.39 337.245 198.29 337.458 198.09C337.672 197.883 337.778 197.623 337.778 197.31V196.66ZM335.158 194.99V194.2C335.538 193.967 336.038 193.85 336.658 193.85C337.932 193.85 338.568 194.497 338.568 195.79V199H337.788V198.4C337.528 198.833 337.055 199.05 336.368 199.05C335.895 199.05 335.512 198.91 335.218 198.63C334.932 198.35 334.788 197.997 334.788 197.57C334.788 197.083 334.972 196.707 335.338 196.44C335.712 196.167 336.218 196.03 336.858 196.03H337.778V195.77C337.778 195.37 337.688 195.07 337.508 194.87C337.328 194.663 337.025 194.56 336.598 194.56C336.058 194.56 335.578 194.703 335.158 194.99ZM340.75 193.93V194.81C341.05 194.177 341.584 193.86 342.35 193.86C342.844 193.86 343.237 194.01 343.53 194.31C343.824 194.61 343.97 195.01 343.97 195.51V199H343.18V195.72C343.18 195.347 343.084 195.063 342.89 194.87C342.704 194.67 342.457 194.57 342.15 194.57C341.77 194.57 341.44 194.717 341.16 195.01C340.887 195.303 340.75 195.71 340.75 196.23V199H339.97V193.93H340.75ZM347.852 199V192.26H348.662V199H347.852ZM349.822 195.67L352.532 199H351.482L348.822 195.67L351.392 192.26H352.392L349.822 195.67ZM355.604 199.09C354.878 199.09 354.301 198.847 353.874 198.36C353.454 197.867 353.244 197.247 353.244 196.5C353.244 195.747 353.461 195.12 353.894 194.62C354.334 194.113 354.904 193.86 355.604 193.86C356.371 193.86 356.961 194.107 357.374 194.6C357.794 195.093 358.004 195.72 358.004 196.48C358.004 197.233 357.791 197.857 357.364 198.35C356.938 198.843 356.351 199.09 355.604 199.09ZM355.604 194.56C355.124 194.56 354.748 194.747 354.474 195.12C354.201 195.493 354.064 195.95 354.064 196.49C354.064 197.017 354.204 197.467 354.484 197.84C354.764 198.207 355.138 198.39 355.604 198.39C356.111 198.39 356.501 198.21 356.774 197.85C357.048 197.483 357.184 197.03 357.184 196.49C357.184 195.93 357.054 195.47 356.794 195.11C356.534 194.743 356.138 194.56 355.604 194.56ZM361.09 198.36C361.503 198.36 361.853 198.207 362.14 197.9C362.433 197.593 362.58 197.103 362.58 196.43C362.58 195.79 362.43 195.32 362.13 195.02C361.83 194.72 361.5 194.57 361.14 194.57C360.72 194.57 360.37 194.74 360.09 195.08C359.816 195.413 359.68 195.893 359.68 196.52C359.68 197.067 359.813 197.51 360.08 197.85C360.346 198.19 360.683 198.36 361.09 198.36ZM362.58 191.93H363.37V199H362.58V198.25C362.22 198.803 361.7 199.08 361.02 199.08C360.346 199.08 359.816 198.83 359.43 198.33C359.05 197.83 358.86 197.223 358.86 196.51C358.86 195.717 359.063 195.077 359.47 194.59C359.876 194.097 360.4 193.85 361.04 193.85C361.7 193.85 362.213 194.133 362.58 194.7V191.93ZM368.064 196.14V195.94C368.064 195.52 367.95 195.187 367.724 194.94C367.497 194.687 367.184 194.56 366.784 194.56C366.404 194.56 366.08 194.697 365.814 194.97C365.547 195.243 365.39 195.633 365.344 196.14H368.064ZM368.534 198V198.74C368.14 198.947 367.66 199.05 367.094 199.05C366.327 199.05 365.707 198.817 365.234 198.35C364.767 197.877 364.534 197.253 364.534 196.48C364.534 195.673 364.744 195.037 365.164 194.57C365.584 194.103 366.124 193.87 366.784 193.87C367.417 193.87 367.92 194.073 368.294 194.48C368.667 194.887 368.854 195.463 368.854 196.21C368.854 196.423 368.837 196.62 368.804 196.8H365.344C365.404 197.3 365.594 197.683 365.914 197.95C366.234 198.217 366.654 198.35 367.174 198.35C367.74 198.35 368.194 198.233 368.534 198Z" fill="#CCCCCC"/>
<rect x="257" y="224" width="97" height="24" rx="8" fill="white"/>
<path d="M279.46 238.38C279.086 238.087 278.68 237.847 278.253 237.667C278.153 237.62 278.113 237.54 278.1 237.473C278.073 237.373 278.1 237.26 278.166 237.18C278.753 236.48 279.1 235.553 279.1 234.707C279.1 233.027 277.733 231.66 276.053 231.66C275.9 231.66 275.74 231.68 275.58 231.707C274.906 231.06 274 230.667 273 230.667C272 230.667 271.093 231.067 270.42 231.707C270.253 231.68 270.1 231.66 269.946 231.66C268.266 231.66 266.9 233.027 266.9 234.707C266.9 235.553 267.246 236.48 267.833 237.18C267.9 237.26 267.926 237.373 267.9 237.473C267.886 237.533 267.846 237.62 267.746 237.66C267.32 237.84 266.92 238.08 266.54 238.373C266.306 238.553 266.266 238.887 266.446 239.12C266.553 239.253 266.706 239.327 266.866 239.327C266.98 239.327 267.093 239.293 267.193 239.213C267.5 238.98 267.826 238.78 268.166 238.633C268.553 238.467 268.833 238.127 268.933 237.713C269.033 237.287 268.933 236.827 268.646 236.487C268.226 235.98 267.96 235.293 267.96 234.7C267.96 233.707 268.693 232.893 269.653 232.747C269.406 233.24 269.266 233.8 269.266 234.387C269.266 235.433 269.7 236.573 270.42 237.44C270.533 237.58 270.58 237.767 270.54 237.94C270.52 238.033 270.453 238.2 270.26 238.28C269.166 238.753 268.2 239.507 267.473 240.46C267.293 240.693 267.34 241.027 267.573 241.207C267.673 241.28 267.786 241.313 267.893 241.313C268.053 241.313 268.213 241.24 268.32 241.1C268.933 240.293 269.746 239.653 270.68 239.253C271.133 239.06 271.46 238.667 271.573 238.18C271.693 237.68 271.573 237.147 271.24 236.747C270.68 236.073 270.333 235.167 270.333 234.373C270.333 233.693 270.6 233.08 271.02 232.607C271.02 232.607 271.026 232.6 271.033 232.593C271.52 232.053 272.22 231.707 273 231.707C273.78 231.707 274.48 232.053 274.966 232.587C274.966 232.587 274.973 232.6 274.98 232.607C275.4 233.08 275.666 233.693 275.666 234.373C275.666 235.167 275.32 236.073 274.76 236.747C274.24 237.367 273.62 237.707 273 237.707C272.706 237.707 272.466 237.947 272.466 238.24C272.466 238.533 272.706 238.773 273 238.773C273.513 238.773 274.02 238.627 274.486 238.353C274.633 238.753 274.92 239.08 275.32 239.247C276.246 239.647 277.06 240.287 277.68 241.093C277.786 241.233 277.946 241.307 278.106 241.307C278.22 241.307 278.333 241.273 278.426 241.2C278.66 241.02 278.706 240.687 278.526 240.453C277.8 239.5 276.84 238.747 275.746 238.273C275.553 238.193 275.486 238.02 275.466 237.933C275.426 237.76 275.466 237.573 275.586 237.433C276.306 236.567 276.74 235.427 276.74 234.38C276.74 233.787 276.6 233.233 276.353 232.74C277.306 232.88 278.046 233.7 278.046 234.693C278.046 235.293 277.786 235.973 277.36 236.48C277.08 236.82 276.973 237.273 277.073 237.707C277.173 238.127 277.453 238.46 277.846 238.627C278.186 238.773 278.513 238.967 278.82 239.207C278.92 239.28 279.033 239.32 279.146 239.32C279.306 239.32 279.466 239.247 279.566 239.113C279.746 238.88 279.706 238.547 279.473 238.367L279.46 238.38Z" fill="#CCCCCC"/>
<path d="M290.079 234.856L290.079 237.448L290.071 237.448L290.079 237.536C289.588 237.888 288.975 238.064 288.239 238.064C287.386 238.064 286.695 237.816 286.167 237.32C285.644 236.824 285.383 236.149 285.383 235.296C285.383 234.464 285.652 233.792 286.191 233.28C286.735 232.768 287.42 232.512 288.247 232.512C288.86 232.512 289.386 232.627 289.823 232.856L289.823 233.888C289.332 233.595 288.812 233.448 288.263 233.448C287.724 233.448 287.29 233.616 286.959 233.952C286.628 234.288 286.463 234.736 286.463 235.296C286.463 235.867 286.623 236.317 286.943 236.648C287.268 236.973 287.714 237.136 288.279 237.136C288.556 237.136 288.826 237.088 289.087 236.992L289.087 235.72L288.095 235.72L288.095 234.856L290.079 234.856ZM293.178 236.256L292.682 236.256C292.431 236.256 292.239 236.309 292.106 236.416C291.973 236.517 291.906 236.648 291.906 236.808C291.906 237.149 292.103 237.32 292.498 237.32C292.711 237.32 292.877 237.259 292.994 237.136C293.117 237.008 293.178 236.843 293.178 236.64L293.178 236.256ZM291.21 235.04L291.21 234.152C291.514 233.965 291.951 233.872 292.522 233.872C293.621 233.872 294.17 234.384 294.17 235.408L294.17 238L293.218 238L293.218 237.512C293.031 237.859 292.679 238.032 292.162 238.032C291.778 238.032 291.471 237.92 291.242 237.696C291.018 237.472 290.906 237.189 290.906 236.848C290.906 236.464 291.05 236.163 291.338 235.944C291.626 235.725 292.042 235.616 292.586 235.616L293.178 235.616L293.178 235.368C293.178 235.144 293.119 234.973 293.002 234.856C292.885 234.739 292.685 234.68 292.402 234.68C291.97 234.68 291.573 234.8 291.21 235.04ZM297.145 237.232C297.422 237.232 297.654 237.117 297.841 236.888C298.027 236.659 298.121 236.36 298.121 235.992C298.121 235.587 298.025 235.272 297.833 235.048C297.646 234.819 297.414 234.704 297.137 234.704C296.875 234.704 296.643 234.808 296.441 235.016C296.238 235.219 296.137 235.525 296.137 235.936C296.137 236.357 296.233 236.68 296.425 236.904C296.617 237.123 296.857 237.232 297.145 237.232ZM296.137 232.344L296.137 234.56C296.419 234.112 296.825 233.888 297.353 233.888C297.859 233.888 298.275 234.077 298.601 234.456C298.931 234.829 299.097 235.336 299.097 235.976C299.097 236.552 298.939 237.043 298.625 237.448C298.315 237.853 297.894 238.056 297.361 238.056C296.827 238.056 296.419 237.829 296.137 237.376L296.137 238L295.169 238L295.169 232.344L296.137 232.344ZM302.43 233.944L303.398 233.944L303.398 238L302.43 238L302.43 237.336C302.217 237.805 301.801 238.04 301.182 238.04C300.772 238.04 300.452 237.923 300.222 237.688C299.993 237.453 299.878 237.12 299.878 236.688L299.878 233.944L300.838 233.944L300.838 236.464C300.838 236.72 300.9 236.915 301.022 237.048C301.15 237.181 301.324 237.248 301.542 237.248C301.82 237.248 302.036 237.155 302.19 236.968C302.35 236.781 302.43 236.499 302.43 236.12L302.43 233.944ZM305.402 233.944L305.402 234.64C305.631 234.144 306.047 233.896 306.65 233.896C307.055 233.896 307.375 234.019 307.61 234.264C307.845 234.509 307.962 234.856 307.962 235.304L307.962 238L307.002 238L307.002 235.504C307.002 235.237 306.938 235.037 306.81 234.904C306.682 234.765 306.509 234.696 306.29 234.696C306.039 234.696 305.829 234.795 305.658 234.992C305.487 235.184 305.402 235.461 305.402 235.824L305.402 238L304.442 238L304.442 233.944L305.402 233.944ZM310.661 237.088C310.923 237.088 311.141 236.987 311.317 236.784C311.493 236.576 311.581 236.307 311.581 235.976C311.581 235.544 311.496 235.227 311.325 235.024C311.155 234.821 310.939 234.72 310.677 234.72C310.4 234.72 310.181 234.829 310.021 235.048C309.861 235.261 309.781 235.552 309.781 235.92C309.781 236.299 309.864 236.589 310.029 236.792C310.195 236.989 310.405 237.088 310.661 237.088ZM311.581 233.944L312.541 233.944L312.541 237.632C312.541 238.272 312.355 238.752 311.981 239.072C311.613 239.397 311.144 239.56 310.573 239.56C310.04 239.56 309.573 239.464 309.173 239.272L309.173 238.296C309.536 238.552 309.971 238.68 310.477 238.68C311.213 238.68 311.581 238.328 311.581 237.624L311.581 237.272C311.336 237.672 310.952 237.872 310.429 237.872C309.976 237.872 309.587 237.707 309.261 237.376C308.941 237.04 308.781 236.555 308.781 235.92C308.781 235.333 308.933 234.851 309.237 234.472C309.547 234.088 309.952 233.896 310.453 233.896C310.96 233.896 311.336 234.107 311.581 234.528L311.581 233.944ZM316.568 233.44L316.568 235.2L317.24 235.2C317.549 235.2 317.781 235.123 317.936 234.968C318.091 234.808 318.168 234.587 318.168 234.304C318.168 234.027 318.085 233.813 317.92 233.664C317.76 233.515 317.528 233.44 317.224 233.44L316.568 233.44ZM318.344 238L317.12 236.032L316.568 236.032L316.568 238L315.56 238L315.56 232.608L317.224 232.608C317.837 232.608 318.317 232.763 318.664 233.072C319.016 233.381 319.192 233.795 319.192 234.312C319.187 234.696 319.093 235.021 318.912 235.288C318.731 235.549 318.483 235.744 318.168 235.872L319.552 238L318.344 238ZM322.743 233.944L323.711 233.944L323.711 238L322.743 238L322.743 237.336C322.53 237.805 322.114 238.04 321.495 238.04C321.084 238.04 320.764 237.923 320.535 237.688C320.306 237.453 320.191 237.12 320.191 236.688L320.191 233.944L321.151 233.944L321.151 236.464C321.151 236.72 321.212 236.915 321.335 237.048C321.463 237.181 321.636 237.248 321.855 237.248C322.132 237.248 322.348 237.155 322.503 236.968C322.663 236.781 322.743 236.499 322.743 236.12L322.743 233.944ZM326.826 236.256L326.33 236.256C326.08 236.256 325.888 236.309 325.754 236.416C325.621 236.517 325.554 236.648 325.554 236.808C325.554 237.149 325.752 237.32 326.146 237.32C326.36 237.32 326.525 237.259 326.642 237.136C326.765 237.008 326.826 236.843 326.826 236.64L326.826 236.256ZM324.858 235.04L324.858 234.152C325.162 233.965 325.6 233.872 326.17 233.872C327.269 233.872 327.818 234.384 327.818 235.408L327.818 238L326.866 238L326.866 237.512C326.68 237.859 326.328 238.032 325.81 238.032C325.426 238.032 325.12 237.92 324.89 237.696C324.666 237.472 324.554 237.189 324.554 236.848C324.554 236.464 324.698 236.163 324.986 235.944C325.274 235.725 325.69 235.616 326.234 235.616L326.826 235.616L326.826 235.368C326.826 235.144 326.768 234.973 326.65 234.856C326.533 234.739 326.333 234.68 326.05 234.68C325.618 234.68 325.221 234.8 324.858 235.04ZM329.769 233.944L329.769 234.64C329.998 234.144 330.414 233.896 331.017 233.896C331.422 233.896 331.742 234.019 331.977 234.264C332.212 234.509 332.329 234.856 332.329 235.304L332.329 238L331.369 238L331.369 235.504C331.369 235.237 331.305 235.037 331.177 234.904C331.049 234.765 330.876 234.696 330.657 234.696C330.406 234.696 330.196 234.795 330.025 234.992C329.854 235.184 329.769 235.461 329.769 235.824L329.769 238L328.809 238L328.809 233.944L329.769 233.944ZM335.029 237.088C335.29 237.088 335.509 236.987 335.685 236.784C335.861 236.576 335.949 236.307 335.949 235.976C335.949 235.544 335.863 235.227 335.693 235.024C335.522 234.821 335.306 234.72 335.045 234.72C334.767 234.72 334.549 234.829 334.389 235.048C334.229 235.261 334.149 235.552 334.149 235.92C334.149 236.299 334.231 236.589 334.397 236.792C334.562 236.989 334.773 237.088 335.029 237.088ZM335.949 233.944L336.909 233.944L336.909 237.632C336.909 238.272 336.722 238.752 336.349 239.072C335.981 239.397 335.511 239.56 334.941 239.56C334.407 239.56 333.941 239.464 333.541 239.272L333.541 238.296C333.903 238.552 334.338 238.68 334.845 238.68C335.581 238.68 335.949 238.328 335.949 237.624L335.949 237.272C335.703 237.672 335.319 237.872 334.797 237.872C334.343 237.872 333.954 237.707 333.629 237.376C333.309 237.04 333.149 236.555 333.149 235.92C333.149 235.333 333.301 234.851 333.605 234.472C333.914 234.088 334.319 233.896 334.821 233.896C335.327 233.896 335.703 234.107 335.949 234.528L335.949 233.944ZM339.975 236.256L339.479 236.256C339.228 236.256 339.036 236.309 338.903 236.416C338.769 236.517 338.703 236.648 338.703 236.808C338.703 237.149 338.9 237.32 339.295 237.32C339.508 237.32 339.673 237.259 339.791 237.136C339.913 237.008 339.975 236.843 339.975 236.64L339.975 236.256ZM338.007 235.04L338.007 234.152C338.311 233.965 338.748 233.872 339.319 233.872C340.417 233.872 340.967 234.384 340.967 235.408L340.967 238L340.015 238L340.015 237.512C339.828 237.859 339.476 238.032 338.959 238.032C338.575 238.032 338.268 237.92 338.039 237.696C337.815 237.472 337.703 237.189 337.703 236.848C337.703 236.464 337.847 236.163 338.135 235.944C338.423 235.725 338.839 235.616 339.383 235.616L339.975 235.616L339.975 235.368C339.975 235.144 339.916 234.973 339.799 234.856C339.681 234.739 339.481 234.68 339.199 234.68C338.767 234.68 338.369 234.8 338.007 235.04ZM342.918 233.944L342.918 234.64C343.147 234.144 343.563 233.896 344.166 233.896C344.571 233.896 344.891 234.019 345.126 234.264C345.36 234.509 345.478 234.856 345.478 235.304L345.478 238L344.518 238L344.518 235.504C344.518 235.237 344.454 235.037 344.326 234.904C344.198 234.765 344.024 234.696 343.806 234.696C343.555 234.696 343.344 234.795 343.174 234.992C343.003 235.184 342.918 235.461 342.918 235.824L342.918 238L341.958 238L341.958 233.944L342.918 233.944Z" fill="#CCCCCC"/>
<defs>
<filter id="filter0_d_1124_4113" x="-4" y="-2" width="619" height="56" filterUnits="userSpaceOnUse" color-interpolation-filters="sRGB">
<feFlood flood-opacity="0" result="BackgroundImageFix"/>
<feColorMatrix in="SourceAlpha" type="matrix" values="0 0 0 0 0 0 0 0 0 0 0 0 0 0 0 0 0 0 127 0" result="hardAlpha"/>
<feOffset dy="2"/>
<feGaussianBlur stdDeviation="2"/>
<feComposite in2="hardAlpha" operator="out"/>
<feColorMatrix type="matrix" values="0 0 0 0 0.168627 0 0 0 0 0.168627 0 0 0 0 0.168627 0 0 0 0.24 0"/>
<feBlend mode="normal" in2="BackgroundImageFix" result="effect1_dropShadow_1124_4113"/>
<feBlend mode="normal" in="SourceGraphic" in2="effect1_dropShadow_1124_4113" result="shape"/>
</filter>
<filter id="filter1_d_1124_4113" x="235.5" y="102" width="144" height="48" filterUnits="userSpaceOnUse" color-interpolation-filters="sRGB">
<feFlood flood-opacity="0" result="BackgroundImageFix"/>
<feColorMatrix in="SourceAlpha" type="matrix" values="0 0 0 0 0 0 0 0 0 0 0 0 0 0 0 0 0 0 127 0" result="hardAlpha"/>
<feOffset dx="2" dy="2"/>
<feGaussianBlur stdDeviation="4"/>
<feComposite in2="hardAlpha" operator="out"/>
<feColorMatrix type="matrix" values="0 0 0 0 0 0 0 0 0 0 0 0 0 0 0 0 0 0 0.12 0"/>
<feBlend mode="normal" in2="BackgroundImageFix" result="effect1_dropShadow_1124_4113"/>
<feBlend mode="normal" in="SourceGraphic" in2="effect1_dropShadow_1124_4113" result="shape"/>
</filter>
<linearGradient id="paint0_linear_1124_4113" x1="44" y1="0" x2="44" y2="24" gradientUnits="userSpaceOnUse">
<stop offset="0.916567" stop-color="#FF1934" stop-opacity="0"/>
<stop offset="0.916667" stop-color="#FF1934"/>
<stop offset="1" stop-color="#FF1934"/>
</linearGradient>
<linearGradient id="paint1_linear_1124_4113" x1="289.5" y1="0" x2="289.5" y2="12" gradientUnits="userSpaceOnUse">
<stop offset="0.484275" stop-color="#CCCCCC" stop-opacity="0"/>
<stop offset="0.484375" stop-color="#CCCCCC"/>
<stop offset="0.536358" stop-color="#CCCCCC"/>
<stop offset="0.536458" stop-color="#CCCCCC"/>
<stop offset="0.536558" stop-color="#CCCCCC" stop-opacity="0"/>
</linearGradient>
<clipPath id="clip0_1124_4113">
<rect width="24" height="24" fill="white" transform="translate(16 16)"/>
</clipPath>
<clipPath id="clip1_1124_4113">
<rect width="24" height="24" fill="white" transform="translate(585 2)"/>
</clipPath>
<clipPath id="clip2_1124_4113">
<rect width="24" height="24" fill="white" transform="translate(24 60)"/>
</clipPath>
<clipPath id="clip3_1124_4113">
<rect width="24" height="24" fill="white" transform="translate(253.5 112)"/>
</clipPath>
</defs>
</svg>
