<svg width="147" height="102" viewBox="0 0 147 102" fill="none" xmlns="http://www.w3.org/2000/svg">
<rect width="147" height="102" fill="#D3D3D3"/>
<path d="M29.056 25.784V35C25.6 32.9947 22.016 31.992 18.304 31.992C16.64 31.992 15.36 32.3333 14.464 33.016C13.6107 33.6987 13.184 34.5733 13.184 35.64C13.184 36.7067 13.7173 37.6667 14.784 38.52C15.8507 39.3307 17.4507 40.2053 19.584 41.144C20.9067 41.7413 21.9947 42.2747 22.848 42.744C23.744 43.1707 24.7467 43.7893 25.856 44.6C27.008 45.368 27.904 46.2 28.544 47.096C29.2267 47.9493 29.8027 49.016 30.272 50.296C30.7413 51.576 30.976 52.9627 30.976 54.456C30.976 58.3387 29.5467 61.496 26.688 63.928C23.8293 66.3173 20.032 67.512 15.296 67.512C10.2187 67.512 6.08 66.616 2.88 64.824V54.904C6.76267 57.72 10.9013 59.128 15.296 59.128C16.7893 59.128 18.0267 58.744 19.008 57.976C19.9893 57.1653 20.48 56.12 20.48 54.84C20.48 54.4133 20.416 54.008 20.288 53.624C20.16 53.24 19.9253 52.8773 19.584 52.536C19.2427 52.1947 18.9013 51.9173 18.56 51.704C18.2613 51.448 17.792 51.1707 17.152 50.872C16.5547 50.5307 16.0427 50.2533 15.616 50.04C15.1893 49.8267 14.5493 49.528 13.696 49.144C12.8853 48.76 12.224 48.4613 11.712 48.248C8.93867 46.968 6.69867 45.3893 4.992 43.512C3.328 41.6347 2.496 39.1387 2.496 36.024C2.496 32.312 3.86133 29.3253 6.592 27.064C9.32267 24.76 13.0987 23.608 17.92 23.608C22.2293 23.608 25.9413 24.3333 29.056 25.784ZM46.187 41.4V56.312C46.187 57.464 46.507 58.3387 47.147 58.936C47.8297 59.5333 48.7043 59.832 49.771 59.832C51.4777 59.832 52.9923 59.4053 54.315 58.552V66.296C52.7363 66.9787 50.603 67.32 47.915 67.32C40.5337 67.32 36.843 63.6293 36.843 56.248V41.4H32.171V34.552H36.843V26.872H46.187V34.552H53.739V41.4H46.187ZM73.0505 67.512C67.9732 67.512 64.0478 65.9973 61.2745 62.968C58.5012 59.896 57.1145 55.9707 57.1145 51.192C57.1145 46.2 58.5652 42.104 61.4665 38.904C64.3678 35.6613 68.2292 34.04 73.0505 34.04C78.0852 34.04 81.9892 35.5973 84.7625 38.712C87.5358 41.8267 88.9225 45.7947 88.9225 50.616C88.9225 55.5227 87.5145 59.576 84.6985 62.776C81.9252 65.9333 78.0425 67.512 73.0505 67.512ZM72.9865 41.4C70.9385 41.4 69.4025 42.2747 68.3785 44.024C67.3545 45.7733 66.8425 48.0347 66.8425 50.808C66.8425 53.5813 67.3545 55.864 68.3785 57.656C69.4452 59.4053 71.0238 60.28 73.1145 60.28C75.1625 60.28 76.6772 59.4267 77.6585 57.72C78.6825 55.9707 79.1945 53.7093 79.1945 50.936C79.1945 44.5787 77.1252 41.4 72.9865 41.4ZM102.963 34.552V40.568C103.56 38.6907 104.542 37.1973 105.907 36.088C107.315 34.936 108.936 34.36 110.771 34.36C111.795 34.36 112.606 34.4453 113.203 34.616V43.448C112.179 42.9787 111.006 42.744 109.683 42.744C107.678 42.744 106.056 43.4907 104.819 44.984C103.582 46.4347 102.963 48.376 102.963 50.808V67H93.619L93.683 34.552H102.963ZM134.779 47.8V47.032C134.48 43.2347 132.816 41.336 129.787 41.336C128.293 41.336 126.971 41.8907 125.819 43C124.667 44.0667 123.899 45.6667 123.515 47.8H134.779ZM141.499 57.336V65.144C139.28 66.5947 135.888 67.32 131.323 67.32C125.989 67.32 121.829 65.784 118.843 62.712C115.899 59.5973 114.427 55.608 114.427 50.744C114.427 45.5813 115.856 41.5493 118.715 38.648C121.616 35.704 125.179 34.232 129.403 34.232C133.755 34.232 137.189 35.512 139.707 38.072C142.224 40.5893 143.483 44.3653 143.483 49.4C143.483 50.3813 143.312 52.0667 142.971 54.456H123.899C124.539 56.248 125.648 57.6347 127.227 58.616C128.805 59.5973 130.704 60.088 132.923 60.088C136.208 60.088 139.067 59.1707 141.499 57.336Z" fill="black"/>
</svg>
