<svg width="338" height="375" viewBox="0 0 338 375" fill="none" xmlns="http://www.w3.org/2000/svg">
<rect width="338" height="375" fill="#D3D3D3"/>
<rect x="26.5" y="16" width="285" height="294" rx="16" fill="white"/>
<g filter="url(#filter0_d_1124_4113)">
<path d="M26.5 32C26.5 23.1634 33.6634 16 42.5 16H295.5C304.337 16 311.5 23.1634 311.5 32V64H26.5V32Z" fill="#FF1934" shape-rendering="crispEdges"/>
<g clip-path="url(#clip0_1124_4113)">
<path d="M54.5 34C48.99 34 44.5 38.49 44.5 44C44.5 46.27 45.24 48.41 46.64 50.18C46.91 50.53 47.42 50.59 47.76 50.31C48.11 50.04 48.17 49.53 47.89 49.19C46.71 47.7 46.09 45.9 46.09 44C46.1 39.37 49.87 35.6 54.5 35.6C59.13 35.6 62.9 39.37 62.9 44C62.9 48.63 59.13 52.4 54.5 52.4C52.82 52.4 51.19 51.9 49.8 50.97C49.43 50.72 48.94 50.82 48.69 51.18C48.44 51.54 48.54 52.04 48.9 52.29C50.56 53.41 52.49 54 54.49 54C60 54 64.49 49.51 64.49 44C64.49 38.49 60.01 34 54.5 34Z" fill="white"/>
<path d="M58.2402 38.14C57.8702 37.9 57.3702 38.01 57.1302 38.38L53.8202 43.57C53.7402 43.7 53.7002 43.85 53.7002 44V48C53.7002 48.44 54.0602 48.8 54.5002 48.8C54.9402 48.8 55.3002 48.44 55.3002 48V44.23L58.4902 39.24C58.7302 38.87 58.6202 38.37 58.2502 38.13L58.2402 38.14Z" fill="white"/>
</g>
<path d="M77.566 46.11H81.052V48H75.41V38.564H77.566V46.11ZM82.2459 48V40.902H84.2899V48H82.2459ZM82.4279 39.684C82.1946 39.4507 82.0779 39.1707 82.0779 38.844C82.0779 38.5173 82.1946 38.2373 82.4279 38.004C82.6613 37.7707 82.9413 37.654 83.2679 37.654C83.5946 37.654 83.8746 37.7707 84.1079 38.004C84.3413 38.2373 84.4579 38.5173 84.4579 38.844C84.4579 39.1707 84.3413 39.4507 84.1079 39.684C83.8746 39.9173 83.5946 40.034 83.2679 40.034C82.9413 40.034 82.6613 39.9173 82.4279 39.684ZM88.0891 40.902V42.106C88.2664 41.714 88.5371 41.406 88.9011 41.182C89.2744 40.9487 89.7177 40.832 90.2311 40.832C90.9591 40.832 91.5284 41.0513 91.9391 41.49C92.3497 41.9193 92.5551 42.554 92.5551 43.394V48H90.5111V43.772C90.5111 43.352 90.4131 43.0347 90.2171 42.82C90.0211 42.596 89.7457 42.484 89.3911 42.484C89.0177 42.484 88.7051 42.6333 88.4531 42.932C88.2104 43.2213 88.0891 43.66 88.0891 44.248V48H86.0451V40.902H88.0891ZM94.2362 48V40.902H96.2802V48H94.2362ZM94.4182 39.684C94.1848 39.4507 94.0682 39.1707 94.0682 38.844C94.0682 38.5173 94.1848 38.2373 94.4182 38.004C94.6515 37.7707 94.9315 37.654 95.2582 37.654C95.5848 37.654 95.8648 37.7707 96.0982 38.004C96.3315 38.2373 96.4482 38.5173 96.4482 38.844C96.4482 39.1707 96.3315 39.4507 96.0982 39.684C95.8648 39.9173 95.5848 40.034 95.2582 40.034C94.9315 40.034 94.6515 39.9173 94.4182 39.684ZM101.395 48L102.207 38.564H104.573L105.889 41.98C106.113 42.5493 106.305 43.072 106.463 43.548C106.622 44.024 106.725 44.36 106.771 44.556L106.841 44.836C106.991 44.22 107.317 43.268 107.821 41.98L109.151 38.564H111.517L112.497 48H110.341L109.991 44.346L109.809 41.588C109.567 42.288 109.231 43.2073 108.801 44.346L107.471 47.902H106.197L104.881 44.346C104.667 43.7673 104.485 43.2493 104.335 42.792C104.186 42.3347 104.088 42.0173 104.041 41.84L103.971 41.588C103.971 42.2507 103.929 43.17 103.845 44.346L103.551 48H101.395ZM117.545 45.088H116.887C116.542 45.088 116.276 45.1627 116.089 45.312C115.903 45.4613 115.809 45.6527 115.809 45.886C115.809 46.362 116.085 46.6 116.635 46.6C116.925 46.6 117.149 46.5113 117.307 46.334C117.466 46.1567 117.545 45.914 117.545 45.606V45.088ZM114.227 43.086V41.252C114.787 40.9347 115.595 40.776 116.649 40.776C117.657 40.776 118.409 40.9953 118.903 41.434C119.398 41.8633 119.645 42.5353 119.645 43.45V48H117.643V47.132C117.345 47.7387 116.757 48.042 115.879 48.042C115.189 48.042 114.647 47.846 114.255 47.454C113.873 47.062 113.681 46.572 113.681 45.984C113.681 45.3027 113.929 44.7753 114.423 44.402C114.927 44.0193 115.669 43.828 116.649 43.828H117.545V43.338C117.545 42.7407 117.149 42.442 116.355 42.442C115.59 42.442 114.881 42.6567 114.227 43.086ZM125.73 41.112V42.862C125.235 42.5727 124.657 42.428 123.994 42.428C123.751 42.428 123.565 42.4793 123.434 42.582C123.303 42.6753 123.238 42.7967 123.238 42.946C123.238 43.03 123.261 43.1093 123.308 43.184C123.355 43.2587 123.429 43.3287 123.532 43.394C123.644 43.4593 123.747 43.52 123.84 43.576C123.943 43.6227 124.078 43.6833 124.246 43.758C124.423 43.8327 124.563 43.898 124.666 43.954C125.095 44.178 125.441 44.4393 125.702 44.738C125.963 45.0273 126.094 45.4007 126.094 45.858C126.094 46.558 125.842 47.0993 125.338 47.482C124.834 47.8647 124.167 48.056 123.336 48.056C122.477 48.056 121.759 47.9113 121.18 47.622V45.802C121.824 46.25 122.505 46.474 123.224 46.474C123.737 46.474 123.994 46.3107 123.994 45.984C123.994 45.9 123.971 45.8207 123.924 45.746C123.877 45.6713 123.798 45.6013 123.686 45.536C123.574 45.4707 123.471 45.4193 123.378 45.382C123.285 45.3353 123.149 45.2747 122.972 45.2C122.795 45.1253 122.659 45.0647 122.566 45.018C121.623 44.57 121.152 43.898 121.152 43.002C121.152 42.3113 121.413 41.7747 121.936 41.392C122.468 41.0093 123.126 40.818 123.91 40.818C124.638 40.818 125.245 40.916 125.73 41.112ZM130.862 45.088H130.204C129.858 45.088 129.592 45.1627 129.406 45.312C129.219 45.4613 129.126 45.6527 129.126 45.886C129.126 46.362 129.401 46.6 129.952 46.6C130.241 46.6 130.465 46.5113 130.624 46.334C130.782 46.1567 130.862 45.914 130.862 45.606V45.088ZM127.544 43.086V41.252C128.104 40.9347 128.911 40.776 129.966 40.776C130.974 40.776 131.725 40.9953 132.22 41.434C132.714 41.8633 132.962 42.5353 132.962 43.45V48H130.96V47.132C130.661 47.7387 130.073 48.042 129.196 48.042C128.505 48.042 127.964 47.846 127.572 47.454C127.189 47.062 126.998 46.572 126.998 45.984C126.998 45.3027 127.245 44.7753 127.74 44.402C128.244 44.0193 128.986 43.828 129.966 43.828H130.862V43.338C130.862 42.7407 130.465 42.442 129.672 42.442C128.906 42.442 128.197 42.6567 127.544 43.086Z" fill="white"/>
</g>
<g clip-path="url(#clip1_1124_4113)">
<path d="M169 122.65C160.603 122.65 152.56 123.191 150.726 123.994C148.431 124.997 156.353 126.017 169 126.017C181.647 126.017 189.568 124.997 187.274 123.994C185.439 123.192 177.396 122.65 169 122.65Z" fill="#CCCCCC"/>
<path d="M172.908 90.1771L177.215 93.1189L177.882 92.6364L173.114 89.3799L172.908 90.1771Z" fill="#D9AA16"/>
<path d="M159.1 115.018C167.439 120.713 177.722 120.173 182.067 113.812C186.412 107.45 183.174 97.6754 174.834 91.9798C166.495 86.2842 156.212 86.8242 151.867 93.1859C147.522 99.5477 150.76 109.322 159.1 115.018Z" fill="#DA011C"/>
<path d="M159.615 114.477C162.544 116.457 165.955 117.775 169.456 118.08C172.958 118.384 176.016 117.63 178.346 116.109L166.967 103.498L159.614 114.476L159.615 114.477Z" fill="#FF1934"/>
<path d="M178.267 116.161C180.618 114.661 182.289 112.362 182.875 109.418C183.461 106.475 182.873 103.335 181.403 100.414L166.967 103.499L178.267 116.161Z" fill="#D9AA16"/>
<path d="M151.061 97.5802C150.514 100.314 150.949 103.439 152.529 106.585C154.109 109.731 156.595 112.418 159.515 114.41L166.967 103.499L151.062 97.5806L151.061 97.5802Z" fill="#1699D9"/>
<path d="M181.403 100.414C179.938 97.4914 177.563 94.7327 174.421 92.5864C171.278 90.4402 167.845 89.2316 164.589 88.9303L166.967 103.499L181.403 100.414Z" fill="#CC0BD9"/>
<path d="M164.478 88.92C161.225 88.6341 158.096 89.2501 155.585 90.8862C153.074 92.5224 151.562 94.9298 151.043 97.6733L166.966 103.499L164.478 88.92Z" fill="#008C1E"/>
<path d="M151.042 97.6728L166.797 103.536L159.416 114.342C159.449 114.365 159.481 114.389 159.514 114.412C159.547 114.435 159.581 114.455 159.615 114.478L166.995 103.671L178.189 116.214C178.242 116.18 178.297 116.148 178.35 116.114L167.155 103.569L181.454 100.513C181.421 100.447 181.385 100.38 181.352 100.315L167.055 103.37L164.7 88.9416C164.626 88.9342 164.552 88.9249 164.478 88.919L166.834 103.35L151.076 97.4856C151.063 97.5477 151.053 97.6104 151.042 97.6728Z" fill="white"/>
<g style="mix-blend-mode:multiply" opacity="0.32">
<path d="M159.514 114.411C167.415 119.807 177.156 119.296 181.272 113.269C185.388 107.242 182.321 97.9823 174.42 92.5864C166.52 87.1905 156.778 87.702 152.662 93.729C148.546 99.7559 151.613 109.016 159.514 114.411ZM174.006 93.1923C181.468 98.2883 184.365 107.034 180.478 112.726C176.59 118.419 167.39 118.902 159.928 113.806C152.466 108.709 149.569 99.9638 153.457 94.2715C157.344 88.5791 166.544 88.096 174.006 93.1923Z" fill="#2B2B2B"/>
</g>
<path d="M166.139 104.711C167.017 105.311 168.099 105.254 168.556 104.584C169.014 103.915 168.673 102.886 167.795 102.287C166.918 101.687 165.835 101.744 165.378 102.414C164.921 103.083 165.262 104.112 166.139 104.711Z" fill="white"/>
<path d="M177.882 92.6362C177.511 91.7422 176.864 90.9214 175.973 90.3128C175.082 89.7043 174.081 89.4 173.114 89.3796L173.489 93.9502L177.882 92.6362Z" fill="#D9AA16"/>
<path d="M173.114 89.3799L172.908 90.1771L173.196 90.3738L173.114 89.3799Z" fill="#D9AA16"/>
<path d="M177.214 93.1188C177.214 93.1188 177.464 92.9378 177.548 92.8774C177.632 92.817 177.553 92.7341 177.444 92.767C177.314 92.8057 176.927 92.9217 176.927 92.9217L177.215 93.1184L177.214 93.1188Z" fill="#B76F09"/>
<path d="M172.907 90.1769C172.907 90.1769 172.985 89.8782 173.011 89.7781C173.037 89.678 173.143 89.7214 173.152 89.8353C173.163 89.9699 173.196 90.3732 173.196 90.3732L172.908 90.1765L172.907 90.1769Z" fill="#B76F09"/>
<path d="M175.766 90.616C176.426 91.0669 176.953 91.6615 177.308 92.3495L173.882 93.3741L173.59 89.8098C174.36 89.8899 175.105 90.1652 175.766 90.616Z" fill="white"/>
</g>
<path d="M88.1048 144.49H90.2648L90.1548 144.15C89.9014 143.363 89.6948 142.713 89.5348 142.2C89.3748 141.68 89.2781 141.357 89.2448 141.23L89.1948 141.04C89.1214 141.353 88.7948 142.39 88.2148 144.15L88.1048 144.49ZM91.0748 147L90.5448 145.35H87.8248L87.2848 147H86.1948L88.5248 140.26H89.8748L92.1748 147H91.0748ZM94.1563 141.93V142.8C94.4563 142.173 94.983 141.86 95.7363 141.86C96.2363 141.86 96.633 142.013 96.9263 142.32C97.2197 142.627 97.3663 143.043 97.3663 143.57V147H96.3863V143.8C96.3863 143.447 96.2963 143.177 96.1163 142.99C95.943 142.803 95.7097 142.71 95.4163 142.71C95.0697 142.71 94.773 142.847 94.5263 143.12C94.2797 143.387 94.1563 143.763 94.1563 144.25V147H93.1763V141.93H94.1563ZM100.734 146.21C101.121 146.21 101.447 146.063 101.714 145.77C101.981 145.477 102.114 145.03 102.114 144.43C102.114 143.85 101.974 143.42 101.694 143.14C101.421 142.86 101.111 142.72 100.764 142.72C100.371 142.72 100.047 142.877 99.7941 143.19C99.5408 143.497 99.4141 143.937 99.4141 144.51C99.4141 145.017 99.5375 145.427 99.7841 145.74C100.037 146.053 100.354 146.21 100.734 146.21ZM102.114 139.93H103.104V147H102.114V146.23C101.761 146.79 101.244 147.07 100.564 147.07C99.8975 147.07 99.3708 146.82 98.9841 146.32C98.5975 145.813 98.4041 145.203 98.4041 144.49C98.4041 143.697 98.6075 143.06 99.0141 142.58C99.4208 142.1 99.9441 141.86 100.584 141.86C101.244 141.86 101.754 142.14 102.114 142.7V139.93ZM107.155 144.74H106.395C106.022 144.74 105.738 144.813 105.545 144.96C105.358 145.107 105.265 145.293 105.265 145.52C105.265 145.753 105.338 145.937 105.485 146.07C105.632 146.203 105.845 146.27 106.125 146.27C106.445 146.27 106.695 146.183 106.875 146.01C107.062 145.83 107.155 145.597 107.155 145.31V144.74ZM104.605 143.14V142.19C104.998 141.963 105.518 141.85 106.165 141.85C107.492 141.85 108.155 142.493 108.155 143.78V147H107.185V146.4C106.925 146.827 106.468 147.04 105.815 147.04C105.335 147.04 104.948 146.903 104.655 146.63C104.368 146.35 104.225 145.997 104.225 145.57C104.225 145.083 104.408 144.707 104.775 144.44C105.142 144.167 105.655 144.03 106.315 144.03H107.155V143.74C107.155 143.393 107.072 143.133 106.905 142.96C106.738 142.78 106.462 142.69 106.075 142.69C105.535 142.69 105.045 142.84 104.605 143.14ZM112.916 139.93V142.8C113.203 142.173 113.726 141.86 114.486 141.86C114.979 141.86 115.376 142.013 115.676 142.32C115.976 142.627 116.126 143.053 116.126 143.6V147H115.146V143.8C115.146 143.453 115.056 143.187 114.876 143C114.703 142.807 114.473 142.71 114.186 142.71C113.853 142.71 113.556 142.837 113.296 143.09C113.043 143.343 112.916 143.73 112.916 144.25V147H111.936V139.93H112.916ZM120.114 144.74H119.354C118.981 144.74 118.697 144.813 118.504 144.96C118.317 145.107 118.224 145.293 118.224 145.52C118.224 145.753 118.297 145.937 118.444 146.07C118.591 146.203 118.804 146.27 119.084 146.27C119.404 146.27 119.654 146.183 119.834 146.01C120.021 145.83 120.114 145.597 120.114 145.31V144.74ZM117.564 143.14V142.19C117.957 141.963 118.477 141.85 119.124 141.85C120.451 141.85 121.114 142.493 121.114 143.78V147H120.144V146.4C119.884 146.827 119.427 147.04 118.774 147.04C118.294 147.04 117.907 146.903 117.614 146.63C117.327 146.35 117.184 145.997 117.184 145.57C117.184 145.083 117.367 144.707 117.734 144.44C118.101 144.167 118.614 144.03 119.274 144.03H120.114V143.74C120.114 143.393 120.031 143.133 119.864 142.96C119.697 142.78 119.421 142.69 119.034 142.69C118.494 142.69 118.004 142.84 117.564 143.14ZM123.414 141.93V142.82C123.661 142.193 124.104 141.88 124.744 141.88C124.837 141.88 124.941 141.89 125.054 141.91V142.87C124.914 142.81 124.757 142.78 124.584 142.78C124.244 142.78 123.964 142.93 123.744 143.23C123.524 143.53 123.414 143.887 123.414 144.3V147H122.434V141.93H123.414ZM128.973 141.93H129.953V147H128.973V146.13C128.706 146.75 128.179 147.06 127.393 147.06C126.893 147.06 126.496 146.913 126.203 146.62C125.909 146.32 125.763 145.91 125.763 145.39V141.93H126.753V145.15C126.753 145.497 126.836 145.763 127.003 145.95C127.176 146.13 127.413 146.22 127.713 146.22C128.093 146.22 128.396 146.087 128.623 145.82C128.856 145.553 128.973 145.177 128.973 144.69V141.93ZM134.221 142.1V142.99C133.894 142.797 133.474 142.7 132.961 142.7C132.727 142.7 132.541 142.753 132.401 142.86C132.267 142.967 132.201 143.107 132.201 143.28C132.201 143.327 132.204 143.373 132.211 143.42C132.224 143.46 132.244 143.503 132.271 143.55C132.297 143.59 132.321 143.627 132.341 143.66C132.367 143.687 132.407 143.717 132.461 143.75C132.514 143.783 132.554 143.813 132.581 143.84C132.614 143.86 132.664 143.887 132.731 143.92C132.804 143.953 132.857 143.98 132.891 144C132.924 144.013 132.981 144.04 133.061 144.08C133.147 144.113 133.207 144.137 133.241 144.15C133.634 144.323 133.941 144.52 134.161 144.74C134.387 144.953 134.501 145.24 134.501 145.6C134.501 146.053 134.341 146.41 134.021 146.67C133.701 146.923 133.267 147.05 132.721 147.05C132.121 147.05 131.621 146.95 131.221 146.75V145.82C131.687 146.107 132.171 146.25 132.671 146.25C132.931 146.25 133.131 146.197 133.271 146.09C133.417 145.983 133.491 145.843 133.491 145.67C133.491 145.523 133.434 145.393 133.321 145.28C133.207 145.16 133.091 145.073 132.971 145.02C132.857 144.96 132.661 144.87 132.381 144.75C131.587 144.423 131.191 143.943 131.191 143.31C131.191 142.863 131.357 142.513 131.691 142.26C132.024 142.007 132.441 141.88 132.941 141.88C133.487 141.88 133.914 141.953 134.221 142.1ZM138.961 141.93V142.74C139.248 142.153 139.724 141.86 140.391 141.86C141.151 141.86 141.638 142.187 141.851 142.84C141.991 142.527 142.194 142.287 142.461 142.12C142.728 141.947 143.028 141.86 143.361 141.86C143.881 141.86 144.274 142.013 144.541 142.32C144.814 142.627 144.951 143.05 144.951 143.59V147H143.971V143.8C143.971 143.073 143.678 142.71 143.091 142.71C142.798 142.71 142.534 142.84 142.301 143.1C142.074 143.36 141.961 143.743 141.961 144.25V147H140.981V143.8C140.981 143.073 140.684 142.71 140.091 142.71C139.804 142.71 139.544 142.84 139.311 143.1C139.078 143.36 138.961 143.743 138.961 144.25V147H137.981V141.93H138.961ZM149.432 144.1V143.92C149.418 143.54 149.315 143.24 149.122 143.02C148.928 142.793 148.652 142.68 148.292 142.68C147.958 142.68 147.672 142.803 147.432 143.05C147.192 143.29 147.042 143.64 146.982 144.1H149.432ZM150.062 145.85V146.73C149.688 146.943 149.195 147.05 148.582 147.05C147.795 147.05 147.168 146.813 146.702 146.34C146.235 145.867 146.002 145.247 146.002 144.48C146.002 143.667 146.215 143.03 146.642 142.57C147.068 142.103 147.612 141.87 148.272 141.87C148.918 141.87 149.432 142.073 149.812 142.48C150.192 142.88 150.382 143.46 150.382 144.22C150.382 144.427 150.362 144.643 150.322 144.87H146.992C147.058 145.31 147.245 145.647 147.552 145.88C147.858 146.113 148.245 146.23 148.712 146.23C149.252 146.23 149.702 146.103 150.062 145.85ZM152.516 141.93V142.74C152.802 142.153 153.279 141.86 153.946 141.86C154.706 141.86 155.192 142.187 155.406 142.84C155.546 142.527 155.749 142.287 156.016 142.12C156.282 141.947 156.582 141.86 156.916 141.86C157.436 141.86 157.829 142.013 158.096 142.32C158.369 142.627 158.506 143.05 158.506 143.59V147H157.526V143.8C157.526 143.073 157.232 142.71 156.646 142.71C156.352 142.71 156.089 142.84 155.856 143.1C155.629 143.36 155.516 143.743 155.516 144.25V147H154.536V143.8C154.536 143.073 154.239 142.71 153.646 142.71C153.359 142.71 153.099 142.84 152.866 143.1C152.632 143.36 152.516 143.743 152.516 144.25V147H151.536V141.93H152.516ZM162.226 146.21C162.6 146.21 162.913 146.053 163.166 145.74C163.42 145.42 163.546 145.01 163.546 144.51C163.546 143.937 163.42 143.497 163.166 143.19C162.913 142.877 162.59 142.72 162.196 142.72C161.85 142.72 161.536 142.86 161.256 143.14C160.983 143.42 160.846 143.85 160.846 144.43C160.846 145.03 160.98 145.477 161.246 145.77C161.513 146.063 161.84 146.21 162.226 146.21ZM160.846 139.93V142.7C161.206 142.14 161.716 141.86 162.376 141.86C163.016 141.86 163.54 142.1 163.946 142.58C164.353 143.06 164.556 143.697 164.556 144.49C164.556 145.203 164.363 145.813 163.976 146.32C163.59 146.82 163.06 147.07 162.386 147.07C161.713 147.07 161.2 146.79 160.846 146.23V147H159.856V139.93H160.846ZM168.327 144.74H167.567C167.193 144.74 166.91 144.813 166.717 144.96C166.53 145.107 166.437 145.293 166.437 145.52C166.437 145.753 166.51 145.937 166.657 146.07C166.803 146.203 167.017 146.27 167.297 146.27C167.617 146.27 167.867 146.183 168.047 146.01C168.233 145.83 168.327 145.597 168.327 145.31V144.74ZM165.777 143.14V142.19C166.17 141.963 166.69 141.85 167.337 141.85C168.663 141.85 169.327 142.493 169.327 143.78V147H168.357V146.4C168.097 146.827 167.64 147.04 166.987 147.04C166.507 147.04 166.12 146.903 165.827 146.63C165.54 146.35 165.397 145.997 165.397 145.57C165.397 145.083 165.58 144.707 165.947 144.44C166.313 144.167 166.827 144.03 167.487 144.03H168.327V143.74C168.327 143.393 168.243 143.133 168.077 142.96C167.91 142.78 167.633 142.69 167.247 142.69C166.707 142.69 166.217 142.84 165.777 143.14ZM172.047 146.89L170.027 141.93H171.117L171.747 143.58L172.537 145.72C172.597 145.52 172.837 144.807 173.257 143.58L173.827 141.93H174.867L173.037 146.86C172.55 148.16 171.807 148.81 170.807 148.81C170.627 148.81 170.474 148.793 170.347 148.76V147.92C170.454 147.947 170.567 147.96 170.687 147.96C171.334 147.96 171.787 147.603 172.047 146.89ZM178.356 144.74H177.596C177.223 144.74 176.939 144.813 176.746 144.96C176.559 145.107 176.466 145.293 176.466 145.52C176.466 145.753 176.539 145.937 176.686 146.07C176.833 146.203 177.046 146.27 177.326 146.27C177.646 146.27 177.896 146.183 178.076 146.01C178.263 145.83 178.356 145.597 178.356 145.31V144.74ZM175.806 143.14V142.19C176.199 141.963 176.719 141.85 177.366 141.85C178.693 141.85 179.356 142.493 179.356 143.78V147H178.386V146.4C178.126 146.827 177.669 147.04 177.016 147.04C176.536 147.04 176.149 146.903 175.856 146.63C175.569 146.35 175.426 145.997 175.426 145.57C175.426 145.083 175.609 144.707 175.976 144.44C176.343 144.167 176.856 144.03 177.516 144.03H178.356V143.74C178.356 143.393 178.273 143.133 178.106 142.96C177.939 142.78 177.663 142.69 177.276 142.69C176.736 142.69 176.246 142.84 175.806 143.14ZM181.656 141.93V142.82C181.903 142.193 182.346 141.88 182.986 141.88C183.08 141.88 183.183 141.89 183.296 141.91V142.87C183.156 142.81 183 142.78 182.826 142.78C182.486 142.78 182.206 142.93 181.986 143.23C181.766 143.53 181.656 143.887 181.656 144.3V147H180.676V141.93H181.656ZM188.916 146.21C189.289 146.21 189.603 146.053 189.856 145.74C190.109 145.42 190.236 145.01 190.236 144.51C190.236 143.937 190.109 143.497 189.856 143.19C189.603 142.877 189.279 142.72 188.886 142.72C188.539 142.72 188.226 142.86 187.946 143.14C187.673 143.42 187.536 143.85 187.536 144.43C187.536 145.03 187.669 145.477 187.936 145.77C188.203 146.063 188.529 146.21 188.916 146.21ZM187.536 139.93V142.7C187.896 142.14 188.406 141.86 189.066 141.86C189.706 141.86 190.229 142.1 190.636 142.58C191.043 143.06 191.246 143.697 191.246 144.49C191.246 145.203 191.053 145.813 190.666 146.32C190.279 146.82 189.749 147.07 189.076 147.07C188.403 147.07 187.889 146.79 187.536 146.23V147H186.546V139.93H187.536ZM192.386 147V141.93H193.376V147H192.386ZM192.436 140.82C192.323 140.7 192.266 140.553 192.266 140.38C192.266 140.207 192.323 140.06 192.436 139.94C192.556 139.82 192.703 139.76 192.876 139.76C193.05 139.76 193.196 139.82 193.316 139.94C193.436 140.06 193.496 140.207 193.496 140.38C193.496 140.547 193.436 140.69 193.316 140.81C193.196 140.93 193.05 140.99 192.876 140.99C192.703 140.99 192.556 140.933 192.436 140.82ZM197.467 144.74H196.707C196.334 144.74 196.051 144.813 195.857 144.96C195.671 145.107 195.577 145.293 195.577 145.52C195.577 145.753 195.651 145.937 195.797 146.07C195.944 146.203 196.157 146.27 196.437 146.27C196.757 146.27 197.007 146.183 197.187 146.01C197.374 145.83 197.467 145.597 197.467 145.31V144.74ZM194.917 143.14V142.19C195.311 141.963 195.831 141.85 196.477 141.85C197.804 141.85 198.467 142.493 198.467 143.78V147H197.497V146.4C197.237 146.827 196.781 147.04 196.127 147.04C195.647 147.04 195.261 146.903 194.967 146.63C194.681 146.35 194.537 145.997 194.537 145.57C194.537 145.083 194.721 144.707 195.087 144.44C195.454 144.167 195.967 144.03 196.627 144.03H197.467V143.74C197.467 143.393 197.384 143.133 197.217 142.96C197.051 142.78 196.774 142.69 196.387 142.69C195.847 142.69 195.357 142.84 194.917 143.14ZM201.188 146.89L199.168 141.93H200.258L200.888 143.58L201.678 145.72C201.738 145.52 201.978 144.807 202.398 143.58L202.968 141.93H204.008L202.178 146.86C201.691 148.16 200.948 148.81 199.948 148.81C199.768 148.81 199.614 148.793 199.488 148.76V147.92C199.594 147.947 199.708 147.96 199.828 147.96C200.474 147.96 200.928 147.603 201.188 146.89ZM207.497 144.74H206.737C206.363 144.74 206.08 144.813 205.887 144.96C205.7 145.107 205.607 145.293 205.607 145.52C205.607 145.753 205.68 145.937 205.827 146.07C205.973 146.203 206.187 146.27 206.467 146.27C206.787 146.27 207.037 146.183 207.217 146.01C207.403 145.83 207.497 145.597 207.497 145.31V144.74ZM204.947 143.14V142.19C205.34 141.963 205.86 141.85 206.507 141.85C207.833 141.85 208.497 142.493 208.497 143.78V147H207.527V146.4C207.267 146.827 206.81 147.04 206.157 147.04C205.677 147.04 205.29 146.903 204.997 146.63C204.71 146.35 204.567 145.997 204.567 145.57C204.567 145.083 204.75 144.707 205.117 144.44C205.483 144.167 205.997 144.03 206.657 144.03H207.497V143.74C207.497 143.393 207.413 143.133 207.247 142.96C207.08 142.78 206.803 142.69 206.417 142.69C205.877 142.69 205.387 142.84 204.947 143.14ZM212.318 147V140.26H213.348V147H212.318ZM214.708 143.66L217.328 147H216.028L213.478 143.67L215.928 140.26H217.178L214.708 143.66ZM221.414 144.1V143.92C221.401 143.54 221.298 143.24 221.104 143.02C220.911 142.793 220.634 142.68 220.274 142.68C219.941 142.68 219.654 142.803 219.414 143.05C219.174 143.29 219.024 143.64 218.964 144.1H221.414ZM222.044 145.85V146.73C221.671 146.943 221.178 147.05 220.564 147.05C219.778 147.05 219.151 146.813 218.684 146.34C218.218 145.867 217.984 145.247 217.984 144.48C217.984 143.667 218.198 143.03 218.624 142.57C219.051 142.103 219.594 141.87 220.254 141.87C220.901 141.87 221.414 142.073 221.794 142.48C222.174 142.88 222.364 143.46 222.364 144.22C222.364 144.427 222.344 144.643 222.304 144.87H218.974C219.041 145.31 219.228 145.647 219.534 145.88C219.841 146.113 220.228 146.23 220.694 146.23C221.234 146.23 221.684 146.103 222.044 145.85ZM223.558 147V139.93H224.548V147H223.558ZM228.639 144.74H227.879C227.506 144.74 227.223 144.813 227.029 144.96C226.843 145.107 226.749 145.293 226.749 145.52C226.749 145.753 226.823 145.937 226.969 146.07C227.116 146.203 227.329 146.27 227.609 146.27C227.929 146.27 228.179 146.183 228.359 146.01C228.546 145.83 228.639 145.597 228.639 145.31V144.74ZM226.089 143.14V142.19C226.483 141.963 227.003 141.85 227.649 141.85C228.976 141.85 229.639 142.493 229.639 143.78V147H228.669V146.4C228.409 146.827 227.953 147.04 227.299 147.04C226.819 147.04 226.433 146.903 226.139 146.63C225.853 146.35 225.709 145.997 225.709 145.57C225.709 145.083 225.893 144.707 226.259 144.44C226.626 144.167 227.139 144.03 227.799 144.03H228.639V143.74C228.639 143.393 228.556 143.133 228.389 142.96C228.223 142.78 227.946 142.69 227.559 142.69C227.019 142.69 226.529 142.84 226.089 143.14ZM231.94 139.93V142.8C232.226 142.173 232.75 141.86 233.51 141.86C234.003 141.86 234.4 142.013 234.7 142.32C235 142.627 235.15 143.053 235.15 143.6V147H234.17V143.8C234.17 143.453 234.08 143.187 233.9 143C233.726 142.807 233.496 142.71 233.21 142.71C232.876 142.71 232.58 142.837 232.32 143.09C232.066 143.343 231.94 143.73 231.94 144.25V147H230.96V139.93H231.94ZM236.507 147V141.93H237.497V147H236.507ZM236.557 140.82C236.444 140.7 236.387 140.553 236.387 140.38C236.387 140.207 236.444 140.06 236.557 139.94C236.677 139.82 236.824 139.76 236.997 139.76C237.171 139.76 237.317 139.82 237.437 139.94C237.557 140.06 237.617 140.207 237.617 140.38C237.617 140.547 237.557 140.69 237.437 140.81C237.317 140.93 237.171 140.99 236.997 140.99C236.824 140.99 236.677 140.933 236.557 140.82ZM239.899 141.93V142.82C240.145 142.193 240.589 141.88 241.229 141.88C241.322 141.88 241.425 141.89 241.539 141.91V142.87C241.399 142.81 241.242 142.78 241.069 142.78C240.729 142.78 240.449 142.93 240.229 143.23C240.009 143.53 239.899 143.887 239.899 144.3V147H238.919V141.93H239.899ZM244.977 144.74H244.217C243.844 144.74 243.561 144.813 243.367 144.96C243.181 145.107 243.087 145.293 243.087 145.52C243.087 145.753 243.161 145.937 243.307 146.07C243.454 146.203 243.667 146.27 243.947 146.27C244.267 146.27 244.517 146.183 244.697 146.01C244.884 145.83 244.977 145.597 244.977 145.31V144.74ZM242.427 143.14V142.19C242.821 141.963 243.341 141.85 243.987 141.85C245.314 141.85 245.977 142.493 245.977 143.78V147H245.007V146.4C244.747 146.827 244.291 147.04 243.637 147.04C243.157 147.04 242.771 146.903 242.477 146.63C242.191 146.35 242.047 145.997 242.047 145.57C242.047 145.083 242.231 144.707 242.597 144.44C242.964 144.167 243.477 144.03 244.137 144.03H244.977V143.74C244.977 143.393 244.894 143.133 244.727 142.96C244.561 142.78 244.284 142.69 243.897 142.69C243.357 142.69 242.867 142.84 242.427 143.14ZM248.277 141.93V142.8C248.577 142.173 249.104 141.86 249.857 141.86C250.357 141.86 250.754 142.013 251.047 142.32C251.341 142.627 251.487 143.043 251.487 143.57V147H250.507V143.8C250.507 143.447 250.417 143.177 250.237 142.99C250.064 142.803 249.831 142.71 249.537 142.71C249.191 142.71 248.894 142.847 248.647 143.12C248.401 143.387 248.277 143.763 248.277 144.25V147H247.297V141.93H248.277ZM93.7632 163V156.26H94.9832L96.6432 159.08C96.9499 159.607 97.2265 160.093 97.4732 160.54C97.7265 160.987 97.8999 161.3 97.9932 161.48L98.1332 161.76C98.0932 161.153 98.0732 160.263 98.0732 159.09V156.26H99.1032V163H97.8832L96.2132 160.19C95.9132 159.683 95.6365 159.207 95.3832 158.76C95.1365 158.307 94.9632 157.98 94.8632 157.78L94.7132 157.49C94.7665 158.157 94.7932 159.053 94.7932 160.18V163H93.7632ZM102.64 163.09C101.893 163.09 101.307 162.847 100.88 162.36C100.453 161.873 100.24 161.257 100.24 160.51C100.24 159.75 100.46 159.12 100.9 158.62C101.34 158.113 101.92 157.86 102.64 157.86C103.413 157.86 104.01 158.107 104.43 158.6C104.85 159.087 105.06 159.71 105.06 160.47C105.06 161.23 104.843 161.857 104.41 162.35C103.983 162.843 103.393 163.09 102.64 163.09ZM102.63 158.69C102.197 158.69 101.86 158.863 101.62 159.21C101.38 159.55 101.26 159.973 101.26 160.48C101.26 160.98 101.383 161.403 101.63 161.75C101.877 162.09 102.213 162.26 102.64 162.26C103.093 162.26 103.437 162.093 103.67 161.76C103.91 161.427 104.03 161.003 104.03 160.49C104.03 159.963 103.917 159.533 103.69 159.2C103.463 158.86 103.11 158.69 102.63 158.69ZM107.145 157.93V158.82C107.391 158.193 107.835 157.88 108.475 157.88C108.568 157.88 108.671 157.89 108.785 157.91V158.87C108.645 158.81 108.488 158.78 108.315 158.78C107.975 158.78 107.695 158.93 107.475 159.23C107.255 159.53 107.145 159.887 107.145 160.3V163H106.165V157.93H107.145ZM110.533 157.93V158.74C110.82 158.153 111.297 157.86 111.963 157.86C112.723 157.86 113.21 158.187 113.423 158.84C113.563 158.527 113.767 158.287 114.033 158.12C114.3 157.947 114.6 157.86 114.933 157.86C115.453 157.86 115.847 158.013 116.113 158.32C116.387 158.627 116.523 159.05 116.523 159.59V163H115.543V159.8C115.543 159.073 115.25 158.71 114.663 158.71C114.37 158.71 114.107 158.84 113.873 159.1C113.647 159.36 113.533 159.743 113.533 160.25V163H112.553V159.8C112.553 159.073 112.257 158.71 111.663 158.71C111.377 158.71 111.117 158.84 110.883 159.1C110.65 159.36 110.533 159.743 110.533 160.25V163H109.553V157.93H110.533ZM120.524 160.74H119.764C119.391 160.74 119.107 160.813 118.914 160.96C118.727 161.107 118.634 161.293 118.634 161.52C118.634 161.753 118.707 161.937 118.854 162.07C119.001 162.203 119.214 162.27 119.494 162.27C119.814 162.27 120.064 162.183 120.244 162.01C120.431 161.83 120.524 161.597 120.524 161.31V160.74ZM117.974 159.14V158.19C118.367 157.963 118.887 157.85 119.534 157.85C120.861 157.85 121.524 158.493 121.524 159.78V163H120.554V162.4C120.294 162.827 119.837 163.04 119.184 163.04C118.704 163.04 118.317 162.903 118.024 162.63C117.737 162.35 117.594 161.997 117.594 161.57C117.594 161.083 117.777 160.707 118.144 160.44C118.511 160.167 119.024 160.03 119.684 160.03H120.524V159.74C120.524 159.393 120.441 159.133 120.274 158.96C120.107 158.78 119.831 158.69 119.444 158.69C118.904 158.69 118.414 158.84 117.974 159.14ZM122.884 163V155.93H123.874V163H122.884ZM129.286 160.49H131.446L131.336 160.15C131.083 159.363 130.876 158.713 130.716 158.2C130.556 157.68 130.46 157.357 130.426 157.23L130.376 157.04C130.303 157.353 129.976 158.39 129.396 160.15L129.286 160.49ZM132.256 163L131.726 161.35H129.006L128.466 163H127.376L129.706 156.26H131.056L133.356 163H132.256ZM135.338 157.93V158.8C135.638 158.173 136.165 157.86 136.918 157.86C137.418 157.86 137.815 158.013 138.108 158.32C138.401 158.627 138.548 159.043 138.548 159.57V163H137.568V159.8C137.568 159.447 137.478 159.177 137.298 158.99C137.125 158.803 136.891 158.71 136.598 158.71C136.251 158.71 135.955 158.847 135.708 159.12C135.461 159.387 135.338 159.763 135.338 160.25V163H134.358V157.93H135.338ZM141.916 162.21C142.302 162.21 142.629 162.063 142.896 161.77C143.162 161.477 143.296 161.03 143.296 160.43C143.296 159.85 143.156 159.42 142.876 159.14C142.602 158.86 142.292 158.72 141.946 158.72C141.552 158.72 141.229 158.877 140.976 159.19C140.722 159.497 140.596 159.937 140.596 160.51C140.596 161.017 140.719 161.427 140.966 161.74C141.219 162.053 141.536 162.21 141.916 162.21ZM143.296 155.93H144.286V163H143.296V162.23C142.942 162.79 142.426 163.07 141.746 163.07C141.079 163.07 140.552 162.82 140.166 162.32C139.779 161.813 139.586 161.203 139.586 160.49C139.586 159.697 139.789 159.06 140.196 158.58C140.602 158.1 141.126 157.86 141.766 157.86C142.426 157.86 142.936 158.14 143.296 158.7V155.93ZM148.337 160.74H147.577C147.203 160.74 146.92 160.813 146.727 160.96C146.54 161.107 146.447 161.293 146.447 161.52C146.447 161.753 146.52 161.937 146.667 162.07C146.813 162.203 147.027 162.27 147.307 162.27C147.627 162.27 147.877 162.183 148.057 162.01C148.243 161.83 148.337 161.597 148.337 161.31V160.74ZM145.787 159.14V158.19C146.18 157.963 146.7 157.85 147.347 157.85C148.673 157.85 149.337 158.493 149.337 159.78V163H148.367V162.4C148.107 162.827 147.65 163.04 146.997 163.04C146.517 163.04 146.13 162.903 145.837 162.63C145.55 162.35 145.407 161.997 145.407 161.57C145.407 161.083 145.59 160.707 145.957 160.44C146.323 160.167 146.837 160.03 147.497 160.03H148.337V159.74C148.337 159.393 148.253 159.133 148.087 158.96C147.92 158.78 147.643 158.69 147.257 158.69C146.717 158.69 146.227 158.84 145.787 159.14ZM156.008 158.1V158.99C155.681 158.797 155.261 158.7 154.748 158.7C154.514 158.7 154.328 158.753 154.188 158.86C154.054 158.967 153.988 159.107 153.988 159.28C153.988 159.327 153.991 159.373 153.998 159.42C154.011 159.46 154.031 159.503 154.058 159.55C154.084 159.59 154.108 159.627 154.128 159.66C154.154 159.687 154.194 159.717 154.248 159.75C154.301 159.783 154.341 159.813 154.368 159.84C154.401 159.86 154.451 159.887 154.518 159.92C154.591 159.953 154.644 159.98 154.678 160C154.711 160.013 154.768 160.04 154.848 160.08C154.934 160.113 154.994 160.137 155.028 160.15C155.421 160.323 155.728 160.52 155.948 160.74C156.174 160.953 156.288 161.24 156.288 161.6C156.288 162.053 156.128 162.41 155.808 162.67C155.488 162.923 155.054 163.05 154.508 163.05C153.908 163.05 153.408 162.95 153.008 162.75V161.82C153.474 162.107 153.958 162.25 154.458 162.25C154.718 162.25 154.918 162.197 155.058 162.09C155.204 161.983 155.278 161.843 155.278 161.67C155.278 161.523 155.221 161.393 155.108 161.28C154.994 161.16 154.878 161.073 154.758 161.02C154.644 160.96 154.448 160.87 154.168 160.75C153.374 160.423 152.978 159.943 152.978 159.31C152.978 158.863 153.144 158.513 153.478 158.26C153.811 158.007 154.228 157.88 154.728 157.88C155.274 157.88 155.701 157.953 156.008 158.1ZM160.457 160.1V159.92C160.444 159.54 160.341 159.24 160.147 159.02C159.954 158.793 159.677 158.68 159.317 158.68C158.984 158.68 158.697 158.803 158.457 159.05C158.217 159.29 158.067 159.64 158.007 160.1H160.457ZM161.087 161.85V162.73C160.714 162.943 160.221 163.05 159.607 163.05C158.821 163.05 158.194 162.813 157.727 162.34C157.261 161.867 157.027 161.247 157.027 160.48C157.027 159.667 157.241 159.03 157.667 158.57C158.094 158.103 158.637 157.87 159.297 157.87C159.944 157.87 160.457 158.073 160.837 158.48C161.217 158.88 161.407 159.46 161.407 160.22C161.407 160.427 161.387 160.643 161.347 160.87H158.017C158.084 161.31 158.271 161.647 158.577 161.88C158.884 162.113 159.271 162.23 159.737 162.23C160.277 162.23 160.727 162.103 161.087 161.85ZM164.951 162.21C165.324 162.21 165.638 162.053 165.891 161.74C166.144 161.42 166.271 161.01 166.271 160.51C166.271 159.937 166.144 159.497 165.891 159.19C165.638 158.877 165.314 158.72 164.921 158.72C164.574 158.72 164.261 158.86 163.981 159.14C163.708 159.42 163.571 159.85 163.571 160.43C163.571 161.03 163.704 161.477 163.971 161.77C164.238 162.063 164.564 162.21 164.951 162.21ZM163.571 155.93V158.7C163.931 158.14 164.441 157.86 165.101 157.86C165.741 157.86 166.264 158.1 166.671 158.58C167.078 159.06 167.281 159.697 167.281 160.49C167.281 161.203 167.088 161.813 166.701 162.32C166.314 162.82 165.784 163.07 165.111 163.07C164.438 163.07 163.924 162.79 163.571 162.23V163H162.581V155.93H163.571ZM171.531 160.1V159.92C171.518 159.54 171.415 159.24 171.221 159.02C171.028 158.793 170.751 158.68 170.391 158.68C170.058 158.68 169.771 158.803 169.531 159.05C169.291 159.29 169.141 159.64 169.081 160.1H171.531ZM172.161 161.85V162.73C171.788 162.943 171.295 163.05 170.681 163.05C169.895 163.05 169.268 162.813 168.801 162.34C168.335 161.867 168.101 161.247 168.101 160.48C168.101 159.667 168.315 159.03 168.741 158.57C169.168 158.103 169.711 157.87 170.371 157.87C171.018 157.87 171.531 158.073 171.911 158.48C172.291 158.88 172.481 159.46 172.481 160.22C172.481 160.427 172.461 160.643 172.421 160.87H169.091C169.158 161.31 169.345 161.647 169.651 161.88C169.958 162.113 170.345 162.23 170.811 162.23C171.351 162.23 171.801 162.103 172.161 161.85ZM176.525 158.1V158.99C176.199 158.797 175.779 158.7 175.265 158.7C175.032 158.7 174.845 158.753 174.705 158.86C174.572 158.967 174.505 159.107 174.505 159.28C174.505 159.327 174.509 159.373 174.515 159.42C174.529 159.46 174.549 159.503 174.575 159.55C174.602 159.59 174.625 159.627 174.645 159.66C174.672 159.687 174.712 159.717 174.765 159.75C174.819 159.783 174.859 159.813 174.885 159.84C174.919 159.86 174.969 159.887 175.035 159.92C175.109 159.953 175.162 159.98 175.195 160C175.229 160.013 175.285 160.04 175.365 160.08C175.452 160.113 175.512 160.137 175.545 160.15C175.939 160.323 176.245 160.52 176.465 160.74C176.692 160.953 176.805 161.24 176.805 161.6C176.805 162.053 176.645 162.41 176.325 162.67C176.005 162.923 175.572 163.05 175.025 163.05C174.425 163.05 173.925 162.95 173.525 162.75V161.82C173.992 162.107 174.475 162.25 174.975 162.25C175.235 162.25 175.435 162.197 175.575 162.09C175.722 161.983 175.795 161.843 175.795 161.67C175.795 161.523 175.739 161.393 175.625 161.28C175.512 161.16 175.395 161.073 175.275 161.02C175.162 160.96 174.965 160.87 174.685 160.75C173.892 160.423 173.495 159.943 173.495 159.31C173.495 158.863 173.662 158.513 173.995 158.26C174.329 158.007 174.745 157.88 175.245 157.88C175.792 157.88 176.219 157.953 176.525 158.1ZM180.495 160.74H179.735C179.361 160.74 179.078 160.813 178.885 160.96C178.698 161.107 178.605 161.293 178.605 161.52C178.605 161.753 178.678 161.937 178.825 162.07C178.971 162.203 179.185 162.27 179.465 162.27C179.785 162.27 180.035 162.183 180.215 162.01C180.401 161.83 180.495 161.597 180.495 161.31V160.74ZM177.945 159.14V158.19C178.338 157.963 178.858 157.85 179.505 157.85C180.831 157.85 181.495 158.493 181.495 159.78V163H180.525V162.4C180.265 162.827 179.808 163.04 179.155 163.04C178.675 163.04 178.288 162.903 177.995 162.63C177.708 162.35 177.565 161.997 177.565 161.57C177.565 161.083 177.748 160.707 178.115 160.44C178.481 160.167 178.995 160.03 179.655 160.03H180.495V159.74C180.495 159.393 180.411 159.133 180.245 158.96C180.078 158.78 179.801 158.69 179.415 158.69C178.875 158.69 178.385 158.84 177.945 159.14ZM183.795 157.93V158.82C184.042 158.193 184.485 157.88 185.125 157.88C185.218 157.88 185.322 157.89 185.435 157.91V158.87C185.295 158.81 185.138 158.78 184.965 158.78C184.625 158.78 184.345 158.93 184.125 159.23C183.905 159.53 183.795 159.887 183.795 160.3V163H182.815V157.93H183.795Z" fill="#2B2B2B"/>
<path d="M189.735 157.12V159.58H190.665C191.091 159.58 191.415 159.47 191.635 159.25C191.855 159.023 191.965 158.723 191.965 158.35C191.965 157.53 191.515 157.12 190.615 157.12H189.735ZM192.205 163L190.625 160.44H189.735V163H188.705V156.26H190.585C191.358 156.26 191.955 156.45 192.375 156.83C192.795 157.203 193.005 157.713 193.005 158.36C192.998 158.833 192.878 159.237 192.645 159.57C192.411 159.897 192.088 160.133 191.675 160.28L193.435 163H192.205ZM196.688 162.21C197.082 162.21 197.405 162.057 197.658 161.75C197.912 161.437 198.038 161 198.038 160.44C198.038 159.913 197.915 159.497 197.668 159.19C197.422 158.877 197.108 158.72 196.728 158.72C196.348 158.72 196.018 158.86 195.738 159.14C195.465 159.413 195.328 159.85 195.328 160.45C195.328 161.037 195.465 161.477 195.738 161.77C196.018 162.063 196.335 162.21 196.688 162.21ZM195.328 157.93V158.71C195.675 158.143 196.195 157.86 196.888 157.86C197.555 157.86 198.082 158.103 198.468 158.59C198.855 159.07 199.048 159.683 199.048 160.43C199.048 161.197 198.848 161.83 198.448 162.33C198.055 162.823 197.528 163.07 196.868 163.07C196.195 163.07 195.682 162.79 195.328 162.23V164.94H194.348V157.93H195.328ZM202.33 159.71C202.33 158.683 202.533 157.87 202.94 157.27C203.353 156.663 203.917 156.36 204.63 156.36C205.357 156.36 205.927 156.66 206.34 157.26C206.753 157.86 206.96 158.677 206.96 159.71C206.96 160.73 206.757 161.547 206.35 162.16C205.95 162.773 205.377 163.08 204.63 163.08C203.917 163.08 203.353 162.773 202.94 162.16C202.533 161.547 202.33 160.73 202.33 159.71ZM203.7 157.91C203.453 158.33 203.33 158.93 203.33 159.71C203.33 160.49 203.45 161.097 203.69 161.53C203.937 161.957 204.25 162.17 204.63 162.17C205.043 162.17 205.367 161.957 205.6 161.53C205.833 161.103 205.95 160.497 205.95 159.71C205.95 158.917 205.827 158.313 205.58 157.9C205.34 157.48 205.023 157.27 204.63 157.27C204.257 157.27 203.947 157.483 203.7 157.91ZM207.289 164.24L208.249 161.9H209.459L208.149 164.24H207.289ZM210.23 159.71C210.23 158.683 210.434 157.87 210.84 157.27C211.254 156.663 211.817 156.36 212.53 156.36C213.257 156.36 213.827 156.66 214.24 157.26C214.654 157.86 214.86 158.677 214.86 159.71C214.86 160.73 214.657 161.547 214.25 162.16C213.85 162.773 213.277 163.08 212.53 163.08C211.817 163.08 211.254 162.773 210.84 162.16C210.434 161.547 210.23 160.73 210.23 159.71ZM211.6 157.91C211.354 158.33 211.23 158.93 211.23 159.71C211.23 160.49 211.35 161.097 211.59 161.53C211.837 161.957 212.15 162.17 212.53 162.17C212.944 162.17 213.267 161.957 213.5 161.53C213.734 161.103 213.85 160.497 213.85 159.71C213.85 158.917 213.727 158.313 213.48 157.9C213.24 157.48 212.924 157.27 212.53 157.27C212.157 157.27 211.847 157.483 211.6 157.91ZM215.68 159.71C215.68 158.683 215.883 157.87 216.29 157.27C216.703 156.663 217.266 156.36 217.98 156.36C218.706 156.36 219.276 156.66 219.69 157.26C220.103 157.86 220.31 158.677 220.31 159.71C220.31 160.73 220.106 161.547 219.7 162.16C219.3 162.773 218.726 163.08 217.98 163.08C217.266 163.08 216.703 162.773 216.29 162.16C215.883 161.547 215.68 160.73 215.68 159.71ZM217.05 157.91C216.803 158.33 216.68 158.93 216.68 159.71C216.68 160.49 216.8 161.097 217.04 161.53C217.286 161.957 217.6 162.17 217.98 162.17C218.393 162.17 218.716 161.957 218.95 161.53C219.183 161.103 219.3 160.497 219.3 159.71C219.3 158.917 219.176 158.313 218.93 157.9C218.69 157.48 218.373 157.27 217.98 157.27C217.606 157.27 217.296 157.483 217.05 157.91ZM221.129 159.71C221.129 158.683 221.332 157.87 221.739 157.27C222.152 156.663 222.715 156.36 223.429 156.36C224.155 156.36 224.725 156.66 225.139 157.26C225.552 157.86 225.759 158.677 225.759 159.71C225.759 160.73 225.555 161.547 225.149 162.16C224.749 162.773 224.175 163.08 223.429 163.08C222.715 163.08 222.152 162.773 221.739 162.16C221.332 161.547 221.129 160.73 221.129 159.71ZM222.499 157.91C222.252 158.33 222.129 158.93 222.129 159.71C222.129 160.49 222.249 161.097 222.489 161.53C222.735 161.957 223.049 162.17 223.429 162.17C223.842 162.17 224.165 161.957 224.399 161.53C224.632 161.103 224.749 160.497 224.749 159.71C224.749 158.917 224.625 158.313 224.379 157.9C224.139 157.48 223.822 157.27 223.429 157.27C223.055 157.27 222.745 157.483 222.499 157.91ZM226.088 164.24L227.048 161.9H228.258L226.948 164.24H226.088ZM229.029 159.71C229.029 158.683 229.232 157.87 229.639 157.27C230.052 156.663 230.616 156.36 231.329 156.36C232.056 156.36 232.626 156.66 233.039 157.26C233.452 157.86 233.659 158.677 233.659 159.71C233.659 160.73 233.456 161.547 233.049 162.16C232.649 162.773 232.076 163.08 231.329 163.08C230.616 163.08 230.052 162.773 229.639 162.16C229.232 161.547 229.029 160.73 229.029 159.71ZM230.399 157.91C230.152 158.33 230.029 158.93 230.029 159.71C230.029 160.49 230.149 161.097 230.389 161.53C230.636 161.957 230.949 162.17 231.329 162.17C231.742 162.17 232.066 161.957 232.299 161.53C232.532 161.103 232.649 160.497 232.649 159.71C232.649 158.917 232.526 158.313 232.279 157.9C232.039 157.48 231.722 157.27 231.329 157.27C230.956 157.27 230.646 157.483 230.399 157.91ZM234.478 159.71C234.478 158.683 234.682 157.87 235.088 157.27C235.502 156.663 236.065 156.36 236.778 156.36C237.505 156.36 238.075 156.66 238.488 157.26C238.902 157.86 239.108 158.677 239.108 159.71C239.108 160.73 238.905 161.547 238.498 162.16C238.098 162.773 237.525 163.08 236.778 163.08C236.065 163.08 235.502 162.773 235.088 162.16C234.682 161.547 234.478 160.73 234.478 159.71ZM235.848 157.91C235.602 158.33 235.478 158.93 235.478 159.71C235.478 160.49 235.598 161.097 235.838 161.53C236.085 161.957 236.398 162.17 236.778 162.17C237.192 162.17 237.515 161.957 237.748 161.53C237.982 161.103 238.098 160.497 238.098 159.71C238.098 158.917 237.975 158.313 237.728 157.9C237.488 157.48 237.172 157.27 236.778 157.27C236.405 157.27 236.095 157.483 235.848 157.91ZM239.928 159.71C239.928 158.683 240.131 157.87 240.538 157.27C240.951 156.663 241.514 156.36 242.228 156.36C242.954 156.36 243.524 156.66 243.938 157.26C244.351 157.86 244.558 158.677 244.558 159.71C244.558 160.73 244.354 161.547 243.948 162.16C243.548 162.773 242.974 163.08 242.228 163.08C241.514 163.08 240.951 162.773 240.538 162.16C240.131 161.547 239.928 160.73 239.928 159.71ZM241.298 157.91C241.051 158.33 240.928 158.93 240.928 159.71C240.928 160.49 241.048 161.097 241.288 161.53C241.534 161.957 241.848 162.17 242.228 162.17C242.641 162.17 242.964 161.957 243.198 161.53C243.431 161.103 243.548 160.497 243.548 159.71C243.548 158.917 243.424 158.313 243.178 157.9C242.938 157.48 242.621 157.27 242.228 157.27C241.854 157.27 241.544 157.483 241.298 157.91Z" fill="#FF1934"/>
<path opacity="0.64" d="M60.904 217.635V214.275H61.552V217.619C61.552 218.312 61.376 218.837 61.024 219.195C60.6773 219.552 60.192 219.731 59.568 219.731C58.9547 219.731 58.4747 219.557 58.128 219.211C57.7813 218.859 57.608 218.349 57.608 217.683V214.275H58.256V217.675C58.256 218.171 58.3733 218.536 58.608 218.771C58.848 219.005 59.168 219.123 59.568 219.123C60.4587 219.123 60.904 218.627 60.904 217.635ZM64.9243 217.795H64.2203C63.8789 217.795 63.6229 217.861 63.4523 217.995C63.2816 218.128 63.1963 218.296 63.1963 218.499C63.1963 218.701 63.2629 218.867 63.3963 218.995C63.5296 219.117 63.7243 219.179 63.9803 219.179C64.2683 219.179 64.4976 219.099 64.6683 218.939C64.8389 218.773 64.9243 218.565 64.9243 218.315V217.795ZM62.8283 216.459V215.827C63.1323 215.64 63.5323 215.547 64.0283 215.547C65.0469 215.547 65.5563 216.064 65.5563 217.099V219.667H64.9323V219.187C64.7243 219.533 64.3456 219.707 63.7963 219.707C63.4176 219.707 63.1109 219.595 62.8763 219.371C62.6469 219.147 62.5323 218.864 62.5323 218.523C62.5323 218.133 62.6789 217.832 62.9723 217.619C63.2709 217.4 63.6763 217.291 64.1883 217.291H64.9243V217.083C64.9243 216.763 64.8523 216.523 64.7083 216.363C64.5643 216.197 64.3216 216.115 63.9803 216.115C63.5483 216.115 63.1643 216.229 62.8283 216.459ZM67.3018 215.611V216.315C67.5418 215.808 67.9684 215.555 68.5818 215.555C68.9764 215.555 69.2911 215.675 69.5258 215.915C69.7604 216.155 69.8778 216.475 69.8778 216.875V219.667H69.2458V217.043C69.2458 216.744 69.1684 216.517 69.0138 216.363C68.8644 216.203 68.6671 216.123 68.4218 216.123C68.1178 216.123 67.8538 216.24 67.6298 216.475C67.4111 216.709 67.3018 217.035 67.3018 217.451V219.667H66.6778V215.611H67.3018ZM72.5181 219.003C72.8114 219.003 73.0701 218.891 73.2941 218.667C73.5234 218.437 73.6381 218.099 73.6381 217.651C73.6381 217.133 73.5287 216.749 73.3101 216.499C73.0914 216.248 72.8381 216.123 72.5501 216.123C72.2034 216.123 71.9287 216.261 71.7261 216.539C71.5234 216.811 71.4221 217.168 71.4221 217.611C71.4221 218.064 71.5341 218.411 71.7581 218.651C71.9821 218.885 72.2354 219.003 72.5181 219.003ZM73.6381 215.611H74.2701V219.339C74.2701 219.957 74.0994 220.421 73.7581 220.731C73.4167 221.045 72.9767 221.203 72.4381 221.203C71.9474 221.203 71.5287 221.12 71.1821 220.955V220.323C71.5234 220.52 71.9234 220.619 72.3821 220.619C72.7714 220.619 73.0781 220.515 73.3021 220.307C73.5261 220.099 73.6381 219.773 73.6381 219.331V218.875C73.3714 219.333 72.9741 219.563 72.4461 219.563C71.9821 219.563 71.5847 219.392 71.2541 219.051C70.9287 218.709 70.7661 218.235 70.7661 217.627C70.7661 217.024 70.9181 216.528 71.2221 216.139C71.5261 215.749 71.9234 215.555 72.4141 215.555C72.9687 215.555 73.3767 215.797 73.6381 216.283V215.611ZM80.4618 214.275V214.843H79.0058V219.667H78.3578V214.843H76.9018V214.275H80.4618ZM83.7212 215.611H84.3532V219.667H83.7212V218.963C83.5079 219.464 83.0839 219.715 82.4492 219.715C82.0492 219.715 81.7319 219.597 81.4972 219.363C81.2679 219.123 81.1532 218.803 81.1532 218.403V215.611H81.7852V218.243C81.7852 218.536 81.8599 218.76 82.0092 218.915C82.1585 219.069 82.3612 219.147 82.6172 219.147C82.9532 219.147 83.2199 219.029 83.4172 218.795C83.6199 218.56 83.7212 218.243 83.7212 217.843V215.611ZM86.1455 215.611V216.315C86.3855 215.808 86.8122 215.555 87.4255 215.555C87.8202 215.555 88.1348 215.675 88.3695 215.915C88.6042 216.155 88.7215 216.475 88.7215 216.875V219.667H88.0895V217.043C88.0895 216.744 88.0122 216.517 87.8575 216.363C87.7082 216.203 87.5108 216.123 87.2655 216.123C86.9615 216.123 86.6975 216.24 86.4735 216.475C86.2548 216.709 86.1455 217.035 86.1455 217.451V219.667H85.5215V215.611H86.1455ZM92.0258 217.795H91.3218C90.9805 217.795 90.7245 217.861 90.5538 217.995C90.3831 218.128 90.2978 218.296 90.2978 218.499C90.2978 218.701 90.3645 218.867 90.4978 218.995C90.6311 219.117 90.8258 219.179 91.0818 219.179C91.3698 219.179 91.5991 219.099 91.7698 218.939C91.9405 218.773 92.0258 218.565 92.0258 218.315V217.795ZM89.9298 216.459V215.827C90.2338 215.64 90.6338 215.547 91.1298 215.547C92.1485 215.547 92.6578 216.064 92.6578 217.099V219.667H92.0338V219.187C91.8258 219.533 91.4471 219.707 90.8978 219.707C90.5191 219.707 90.2125 219.595 89.9778 219.371C89.7485 219.147 89.6338 218.864 89.6338 218.523C89.6338 218.133 89.7805 217.832 90.0738 217.619C90.3725 217.4 90.7778 217.291 91.2898 217.291H92.0258V217.083C92.0258 216.763 91.9538 216.523 91.8098 216.363C91.6658 216.197 91.4231 216.115 91.0818 216.115C90.6498 216.115 90.2658 216.229 89.9298 216.459ZM93.8113 219.667V215.611H94.4433V219.667H93.8113ZM93.8273 214.635C93.7526 214.555 93.7153 214.456 93.7153 214.339C93.7153 214.221 93.7526 214.123 93.8273 214.043C93.9073 213.963 94.006 213.923 94.1233 213.923C94.2406 213.923 94.3393 213.963 94.4193 214.043C94.4993 214.123 94.5393 214.221 94.5393 214.339C94.5393 214.456 94.4993 214.555 94.4193 214.635C94.3393 214.709 94.2406 214.747 94.1233 214.747C94.006 214.747 93.9073 214.709 93.8273 214.635Z" fill="#2B2B2B"/>
<path d="M237.334 214.835V216.987H238.15C238.518 216.987 238.798 216.888 238.99 216.691C239.188 216.488 239.286 216.229 239.286 215.915C239.286 215.195 238.884 214.835 238.078 214.835H237.334ZM240.27 219.667H239.494L238.174 217.539H238.11H237.334V219.667H236.686V214.275H238.038C238.662 214.275 239.134 214.421 239.454 214.715C239.78 215.008 239.942 215.413 239.942 215.931C239.932 216.304 239.833 216.621 239.646 216.883C239.46 217.144 239.196 217.328 238.854 217.435L240.27 219.667ZM242.821 219.155C243.162 219.155 243.442 219.021 243.661 218.755C243.88 218.483 243.989 218.099 243.989 217.603C243.989 217.16 243.882 216.803 243.669 216.531C243.456 216.259 243.186 216.123 242.861 216.123C242.536 216.123 242.253 216.243 242.013 216.483C241.778 216.717 241.661 217.104 241.661 217.643C241.661 218.16 241.781 218.541 242.021 218.787C242.261 219.032 242.528 219.155 242.821 219.155ZM241.661 215.611V216.227C241.944 215.773 242.362 215.547 242.917 215.547C243.456 215.547 243.877 215.744 244.181 216.139C244.49 216.528 244.645 217.016 244.645 217.603C244.645 218.227 244.482 218.739 244.157 219.139C243.837 219.533 243.418 219.731 242.901 219.731C242.368 219.731 241.954 219.504 241.661 219.051V221.243H241.037V215.611H241.661ZM247.289 217.035C247.289 216.213 247.455 215.565 247.785 215.091C248.121 214.611 248.561 214.371 249.105 214.371C249.671 214.371 250.119 214.611 250.449 215.091C250.785 215.565 250.953 216.213 250.953 217.035C250.953 217.851 250.793 218.504 250.473 218.995C250.153 219.485 249.697 219.731 249.105 219.731C248.556 219.731 248.116 219.485 247.785 218.995C247.455 218.504 247.289 217.851 247.289 217.035ZM248.281 215.515C248.052 215.872 247.937 216.379 247.937 217.035C247.937 217.691 248.049 218.205 248.273 218.579C248.497 218.947 248.775 219.131 249.105 219.131C249.473 219.131 249.764 218.949 249.977 218.587C250.196 218.224 250.305 217.707 250.305 217.035C250.305 216.368 250.191 215.859 249.961 215.507C249.737 215.149 249.452 214.971 249.105 214.971C248.785 214.971 248.511 215.152 248.281 215.515ZM251.233 220.651L251.977 218.859H252.817L251.785 220.651H251.233ZM253.438 217.035C253.438 216.213 253.603 215.565 253.934 215.091C254.27 214.611 254.71 214.371 255.254 214.371C255.819 214.371 256.267 214.611 256.598 215.091C256.934 215.565 257.102 216.213 257.102 217.035C257.102 217.851 256.942 218.504 256.622 218.995C256.302 219.485 255.846 219.731 255.254 219.731C254.704 219.731 254.264 219.485 253.934 218.995C253.603 218.504 253.438 217.851 253.438 217.035ZM254.43 215.515C254.2 215.872 254.086 216.379 254.086 217.035C254.086 217.691 254.198 218.205 254.422 218.579C254.646 218.947 254.923 219.131 255.254 219.131C255.622 219.131 255.912 218.949 256.126 218.587C256.344 218.224 256.454 217.707 256.454 217.035C256.454 216.368 256.339 215.859 256.11 215.507C255.886 215.149 255.6 214.971 255.254 214.971C254.934 214.971 254.659 215.152 254.43 215.515ZM257.789 217.035C257.789 216.213 257.955 215.565 258.285 215.091C258.621 214.611 259.061 214.371 259.605 214.371C260.171 214.371 260.619 214.611 260.949 215.091C261.285 215.565 261.453 216.213 261.453 217.035C261.453 217.851 261.293 218.504 260.973 218.995C260.653 219.485 260.197 219.731 259.605 219.731C259.056 219.731 258.616 219.485 258.285 218.995C257.955 218.504 257.789 217.851 257.789 217.035ZM258.781 215.515C258.552 215.872 258.437 216.379 258.437 217.035C258.437 217.691 258.549 218.205 258.773 218.579C258.997 218.947 259.275 219.131 259.605 219.131C259.973 219.131 260.264 218.949 260.477 218.587C260.696 218.224 260.805 217.707 260.805 217.035C260.805 216.368 260.691 215.859 260.461 215.507C260.237 215.149 259.952 214.971 259.605 214.971C259.285 214.971 259.011 215.152 258.781 215.515ZM262.141 217.035C262.141 216.213 262.306 215.565 262.637 215.091C262.973 214.611 263.413 214.371 263.957 214.371C264.522 214.371 264.97 214.611 265.301 215.091C265.637 215.565 265.805 216.213 265.805 217.035C265.805 217.851 265.645 218.504 265.325 218.995C265.005 219.485 264.549 219.731 263.957 219.731C263.408 219.731 262.968 219.485 262.637 218.995C262.306 218.504 262.141 217.851 262.141 217.035ZM263.133 215.515C262.904 215.872 262.789 216.379 262.789 217.035C262.789 217.691 262.901 218.205 263.125 218.579C263.349 218.947 263.626 219.131 263.957 219.131C264.325 219.131 264.616 218.949 264.829 218.587C265.048 218.224 265.157 217.707 265.157 217.035C265.157 216.368 265.042 215.859 264.813 215.507C264.589 215.149 264.304 214.971 263.957 214.971C263.637 214.971 263.362 215.152 263.133 215.515ZM266.084 220.651L266.828 218.859H267.668L266.636 220.651H266.084ZM268.289 217.035C268.289 216.213 268.455 215.565 268.785 215.091C269.121 214.611 269.561 214.371 270.105 214.371C270.671 214.371 271.119 214.611 271.449 215.091C271.785 215.565 271.953 216.213 271.953 217.035C271.953 217.851 271.793 218.504 271.473 218.995C271.153 219.485 270.697 219.731 270.105 219.731C269.556 219.731 269.116 219.485 268.785 218.995C268.455 218.504 268.289 217.851 268.289 217.035ZM269.281 215.515C269.052 215.872 268.937 216.379 268.937 217.035C268.937 217.691 269.049 218.205 269.273 218.579C269.497 218.947 269.775 219.131 270.105 219.131C270.473 219.131 270.764 218.949 270.977 218.587C271.196 218.224 271.305 217.707 271.305 217.035C271.305 216.368 271.191 215.859 270.961 215.507C270.737 215.149 270.452 214.971 270.105 214.971C269.785 214.971 269.511 215.152 269.281 215.515ZM272.641 217.035C272.641 216.213 272.806 215.565 273.137 215.091C273.473 214.611 273.913 214.371 274.457 214.371C275.022 214.371 275.47 214.611 275.801 215.091C276.137 215.565 276.305 216.213 276.305 217.035C276.305 217.851 276.145 218.504 275.825 218.995C275.505 219.485 275.049 219.731 274.457 219.731C273.908 219.731 273.468 219.485 273.137 218.995C272.806 218.504 272.641 217.851 272.641 217.035ZM273.633 215.515C273.404 215.872 273.289 216.379 273.289 217.035C273.289 217.691 273.401 218.205 273.625 218.579C273.849 218.947 274.126 219.131 274.457 219.131C274.825 219.131 275.116 218.949 275.329 218.587C275.548 218.224 275.657 217.707 275.657 217.035C275.657 216.368 275.542 215.859 275.313 215.507C275.089 215.149 274.804 214.971 274.457 214.971C274.137 214.971 273.862 215.152 273.633 215.515ZM276.992 217.035C276.992 216.213 277.158 215.565 277.488 215.091C277.824 214.611 278.264 214.371 278.808 214.371C279.374 214.371 279.822 214.611 280.152 215.091C280.488 215.565 280.656 216.213 280.656 217.035C280.656 217.851 280.496 218.504 280.176 218.995C279.856 219.485 279.4 219.731 278.808 219.731C278.259 219.731 277.819 219.485 277.488 218.995C277.158 218.504 276.992 217.851 276.992 217.035ZM277.984 215.515C277.755 215.872 277.64 216.379 277.64 217.035C277.64 217.691 277.752 218.205 277.976 218.579C278.2 218.947 278.478 219.131 278.808 219.131C279.176 219.131 279.467 218.949 279.68 218.587C279.899 218.224 280.008 217.707 280.008 217.035C280.008 216.368 279.894 215.859 279.664 215.507C279.44 215.149 279.155 214.971 278.808 214.971C278.488 214.971 278.214 215.152 277.984 215.515Z" fill="#2B2B2B"/>
<mask id="path-25-inside-1_1124_4113" fill="white">
<path d="M57 228.667H281V250.667H57V228.667Z"/>
</mask>
<path d="M281 249.667H57V251.667H281V249.667Z" fill="#CCCCCC" mask="url(#path-25-inside-1_1124_4113)"/>
<path opacity="0.64" d="M60.704 236.275V236.843H59.248V241.667H58.6V236.843H57.144V236.275H60.704ZM63.6274 239.795H62.9234C62.582 239.795 62.326 239.861 62.1554 239.995C61.9847 240.128 61.8994 240.296 61.8994 240.499C61.8994 240.701 61.966 240.867 62.0994 240.995C62.2327 241.117 62.4274 241.179 62.6834 241.179C62.9714 241.179 63.2007 241.099 63.3714 240.939C63.542 240.773 63.6274 240.565 63.6274 240.315V239.795ZM61.5314 238.459V237.827C61.8354 237.64 62.2354 237.547 62.7314 237.547C63.75 237.547 64.2594 238.064 64.2594 239.099V241.667H63.6354V241.187C63.4274 241.533 63.0487 241.707 62.4994 241.707C62.1207 241.707 61.814 241.595 61.5794 241.371C61.35 241.147 61.2354 240.864 61.2354 240.523C61.2354 240.133 61.382 239.832 61.6754 239.619C61.974 239.4 62.3794 239.291 62.8914 239.291H63.6274V239.083C63.6274 238.763 63.5554 238.523 63.4114 238.363C63.2674 238.197 63.0247 238.115 62.6834 238.115C62.2514 238.115 61.8674 238.229 61.5314 238.459ZM67.2289 241.155C67.5542 241.155 67.8235 241.019 68.0369 240.747C68.2502 240.475 68.3569 240.12 68.3569 239.683C68.3569 239.181 68.2449 238.797 68.0209 238.531C67.8022 238.259 67.5249 238.123 67.1889 238.123C66.9009 238.123 66.6369 238.243 66.3969 238.483C66.1569 238.723 66.0369 239.099 66.0369 239.611C66.0369 240.149 66.1515 240.541 66.3809 240.787C66.6155 241.032 66.8982 241.155 67.2289 241.155ZM66.0369 236.011V238.219C66.3302 237.771 66.7409 237.547 67.2689 237.547C67.7809 237.547 68.1995 237.744 68.5249 238.139C68.8502 238.528 69.0129 239.04 69.0129 239.675C69.0129 240.245 68.8582 240.731 68.5489 241.131C68.2449 241.531 67.8235 241.731 67.2849 241.731C66.7409 241.731 66.3249 241.509 66.0369 241.067V241.667H65.4049V236.011H66.0369ZM72.4634 237.611H73.0954V241.667H72.4634V240.963C72.25 241.464 71.826 241.715 71.1914 241.715C70.7914 241.715 70.474 241.597 70.2394 241.363C70.01 241.123 69.8954 240.803 69.8954 240.403V237.611H70.5274V240.243C70.5274 240.536 70.602 240.76 70.7514 240.915C70.9007 241.069 71.1034 241.147 71.3594 241.147C71.6954 241.147 71.962 241.029 72.1594 240.795C72.362 240.56 72.4634 240.243 72.4634 239.843V237.611ZM74.8877 237.611V238.315C75.1277 237.808 75.5544 237.555 76.1677 237.555C76.5624 237.555 76.877 237.675 77.1117 237.915C77.3464 238.155 77.4637 238.475 77.4637 238.875V241.667H76.8317V239.043C76.8317 238.744 76.7544 238.517 76.5997 238.363C76.4504 238.203 76.253 238.123 76.0077 238.123C75.7037 238.123 75.4397 238.24 75.2157 238.475C74.997 238.709 74.8877 239.035 74.8877 239.451V241.667H74.2637V237.611H74.8877ZM80.104 241.003C80.3973 241.003 80.656 240.891 80.88 240.667C81.1093 240.437 81.224 240.099 81.224 239.651C81.224 239.133 81.1147 238.749 80.896 238.499C80.6773 238.248 80.424 238.123 80.136 238.123C79.7893 238.123 79.5147 238.261 79.312 238.539C79.1093 238.811 79.008 239.168 79.008 239.611C79.008 240.064 79.12 240.411 79.344 240.651C79.568 240.885 79.8213 241.003 80.104 241.003ZM81.224 237.611H81.856V241.339C81.856 241.957 81.6853 242.421 81.344 242.731C81.0027 243.045 80.5627 243.203 80.024 243.203C79.5333 243.203 79.1147 243.12 78.768 242.955V242.323C79.1093 242.52 79.5093 242.619 79.968 242.619C80.3573 242.619 80.664 242.515 80.888 242.307C81.112 242.099 81.224 241.773 81.224 241.331V240.875C80.9573 241.333 80.56 241.563 80.032 241.563C79.568 241.563 79.1707 241.392 78.84 241.051C78.5147 240.709 78.352 240.235 78.352 239.627C78.352 239.024 78.504 238.528 78.808 238.139C79.112 237.749 79.5093 237.555 80 237.555C80.5547 237.555 80.9627 237.797 81.224 238.283V237.611ZM85.1586 239.795H84.4546C84.1133 239.795 83.8573 239.861 83.6866 239.995C83.516 240.128 83.4306 240.296 83.4306 240.499C83.4306 240.701 83.4973 240.867 83.6306 240.995C83.764 241.117 83.9586 241.179 84.2146 241.179C84.5026 241.179 84.732 241.099 84.9026 240.939C85.0733 240.773 85.1586 240.565 85.1586 240.315V239.795ZM83.0626 238.459V237.827C83.3666 237.64 83.7666 237.547 84.2626 237.547C85.2813 237.547 85.7906 238.064 85.7906 239.099V241.667H85.1666V241.187C84.9586 241.533 84.58 241.707 84.0306 241.707C83.652 241.707 83.3453 241.595 83.1106 241.371C82.8813 241.147 82.7666 240.864 82.7666 240.523C82.7666 240.133 82.9133 239.832 83.2066 239.619C83.5053 239.4 83.9106 239.291 84.4226 239.291H85.1586V239.083C85.1586 238.763 85.0866 238.523 84.9426 238.363C84.7986 238.197 84.556 238.115 84.2146 238.115C83.7826 238.115 83.3986 238.229 83.0626 238.459ZM87.5361 237.611V238.315C87.7761 237.808 88.2028 237.555 88.8161 237.555C89.2108 237.555 89.5255 237.675 89.7601 237.915C89.9948 238.155 90.1121 238.475 90.1121 238.875V241.667H89.4801V239.043C89.4801 238.744 89.4028 238.517 89.2481 238.363C89.0988 238.203 88.9015 238.123 88.6561 238.123C88.3521 238.123 88.0881 238.24 87.8641 238.475C87.6455 238.709 87.5361 239.035 87.5361 239.451V241.667H86.9121V237.611H87.5361Z" fill="#2B2B2B"/>
<path d="M237.334 236.835V238.987H238.15C238.518 238.987 238.798 238.888 238.99 238.691C239.188 238.488 239.286 238.229 239.286 237.915C239.286 237.195 238.884 236.835 238.078 236.835H237.334ZM240.27 241.667H239.494L238.174 239.539H238.11H237.334V241.667H236.686V236.275H238.038C238.662 236.275 239.134 236.421 239.454 236.715C239.78 237.008 239.942 237.413 239.942 237.931C239.932 238.304 239.833 238.621 239.646 238.883C239.46 239.144 239.196 239.328 238.854 239.435L240.27 241.667ZM242.821 241.155C243.162 241.155 243.442 241.021 243.661 240.755C243.88 240.483 243.989 240.099 243.989 239.603C243.989 239.16 243.882 238.803 243.669 238.531C243.456 238.259 243.186 238.123 242.861 238.123C242.536 238.123 242.253 238.243 242.013 238.483C241.778 238.717 241.661 239.104 241.661 239.643C241.661 240.16 241.781 240.541 242.021 240.787C242.261 241.032 242.528 241.155 242.821 241.155ZM241.661 237.611V238.227C241.944 237.773 242.362 237.547 242.917 237.547C243.456 237.547 243.877 237.744 244.181 238.139C244.49 238.528 244.645 239.016 244.645 239.603C244.645 240.227 244.482 240.739 244.157 241.139C243.837 241.533 243.418 241.731 242.901 241.731C242.368 241.731 241.954 241.504 241.661 241.051V243.243H241.037V237.611H241.661ZM247.289 239.035C247.289 238.213 247.455 237.565 247.785 237.091C248.121 236.611 248.561 236.371 249.105 236.371C249.671 236.371 250.119 236.611 250.449 237.091C250.785 237.565 250.953 238.213 250.953 239.035C250.953 239.851 250.793 240.504 250.473 240.995C250.153 241.485 249.697 241.731 249.105 241.731C248.556 241.731 248.116 241.485 247.785 240.995C247.455 240.504 247.289 239.851 247.289 239.035ZM248.281 237.515C248.052 237.872 247.937 238.379 247.937 239.035C247.937 239.691 248.049 240.205 248.273 240.579C248.497 240.947 248.775 241.131 249.105 241.131C249.473 241.131 249.764 240.949 249.977 240.587C250.196 240.224 250.305 239.707 250.305 239.035C250.305 238.368 250.191 237.859 249.961 237.507C249.737 237.149 249.452 236.971 249.105 236.971C248.785 236.971 248.511 237.152 248.281 237.515ZM251.233 242.651L251.977 240.859H252.817L251.785 242.651H251.233ZM253.438 239.035C253.438 238.213 253.603 237.565 253.934 237.091C254.27 236.611 254.71 236.371 255.254 236.371C255.819 236.371 256.267 236.611 256.598 237.091C256.934 237.565 257.102 238.213 257.102 239.035C257.102 239.851 256.942 240.504 256.622 240.995C256.302 241.485 255.846 241.731 255.254 241.731C254.704 241.731 254.264 241.485 253.934 240.995C253.603 240.504 253.438 239.851 253.438 239.035ZM254.43 237.515C254.2 237.872 254.086 238.379 254.086 239.035C254.086 239.691 254.198 240.205 254.422 240.579C254.646 240.947 254.923 241.131 255.254 241.131C255.622 241.131 255.912 240.949 256.126 240.587C256.344 240.224 256.454 239.707 256.454 239.035C256.454 238.368 256.339 237.859 256.11 237.507C255.886 237.149 255.6 236.971 255.254 236.971C254.934 236.971 254.659 237.152 254.43 237.515ZM257.789 239.035C257.789 238.213 257.955 237.565 258.285 237.091C258.621 236.611 259.061 236.371 259.605 236.371C260.171 236.371 260.619 236.611 260.949 237.091C261.285 237.565 261.453 238.213 261.453 239.035C261.453 239.851 261.293 240.504 260.973 240.995C260.653 241.485 260.197 241.731 259.605 241.731C259.056 241.731 258.616 241.485 258.285 240.995C257.955 240.504 257.789 239.851 257.789 239.035ZM258.781 237.515C258.552 237.872 258.437 238.379 258.437 239.035C258.437 239.691 258.549 240.205 258.773 240.579C258.997 240.947 259.275 241.131 259.605 241.131C259.973 241.131 260.264 240.949 260.477 240.587C260.696 240.224 260.805 239.707 260.805 239.035C260.805 238.368 260.691 237.859 260.461 237.507C260.237 237.149 259.952 236.971 259.605 236.971C259.285 236.971 259.011 237.152 258.781 237.515ZM262.141 239.035C262.141 238.213 262.306 237.565 262.637 237.091C262.973 236.611 263.413 236.371 263.957 236.371C264.522 236.371 264.97 236.611 265.301 237.091C265.637 237.565 265.805 238.213 265.805 239.035C265.805 239.851 265.645 240.504 265.325 240.995C265.005 241.485 264.549 241.731 263.957 241.731C263.408 241.731 262.968 241.485 262.637 240.995C262.306 240.504 262.141 239.851 262.141 239.035ZM263.133 237.515C262.904 237.872 262.789 238.379 262.789 239.035C262.789 239.691 262.901 240.205 263.125 240.579C263.349 240.947 263.626 241.131 263.957 241.131C264.325 241.131 264.616 240.949 264.829 240.587C265.048 240.224 265.157 239.707 265.157 239.035C265.157 238.368 265.042 237.859 264.813 237.507C264.589 237.149 264.304 236.971 263.957 236.971C263.637 236.971 263.362 237.152 263.133 237.515ZM266.084 242.651L266.828 240.859H267.668L266.636 242.651H266.084ZM268.289 239.035C268.289 238.213 268.455 237.565 268.785 237.091C269.121 236.611 269.561 236.371 270.105 236.371C270.671 236.371 271.119 236.611 271.449 237.091C271.785 237.565 271.953 238.213 271.953 239.035C271.953 239.851 271.793 240.504 271.473 240.995C271.153 241.485 270.697 241.731 270.105 241.731C269.556 241.731 269.116 241.485 268.785 240.995C268.455 240.504 268.289 239.851 268.289 239.035ZM269.281 237.515C269.052 237.872 268.937 238.379 268.937 239.035C268.937 239.691 269.049 240.205 269.273 240.579C269.497 240.947 269.775 241.131 270.105 241.131C270.473 241.131 270.764 240.949 270.977 240.587C271.196 240.224 271.305 239.707 271.305 239.035C271.305 238.368 271.191 237.859 270.961 237.507C270.737 237.149 270.452 236.971 270.105 236.971C269.785 236.971 269.511 237.152 269.281 237.515ZM272.641 239.035C272.641 238.213 272.806 237.565 273.137 237.091C273.473 236.611 273.913 236.371 274.457 236.371C275.022 236.371 275.47 236.611 275.801 237.091C276.137 237.565 276.305 238.213 276.305 239.035C276.305 239.851 276.145 240.504 275.825 240.995C275.505 241.485 275.049 241.731 274.457 241.731C273.908 241.731 273.468 241.485 273.137 240.995C272.806 240.504 272.641 239.851 272.641 239.035ZM273.633 237.515C273.404 237.872 273.289 238.379 273.289 239.035C273.289 239.691 273.401 240.205 273.625 240.579C273.849 240.947 274.126 241.131 274.457 241.131C274.825 241.131 275.116 240.949 275.329 240.587C275.548 240.224 275.657 239.707 275.657 239.035C275.657 238.368 275.542 237.859 275.313 237.507C275.089 237.149 274.804 236.971 274.457 236.971C274.137 236.971 273.862 237.152 273.633 237.515ZM276.992 239.035C276.992 238.213 277.158 237.565 277.488 237.091C277.824 236.611 278.264 236.371 278.808 236.371C279.374 236.371 279.822 236.611 280.152 237.091C280.488 237.565 280.656 238.213 280.656 239.035C280.656 239.851 280.496 240.504 280.176 240.995C279.856 241.485 279.4 241.731 278.808 241.731C278.259 241.731 277.819 241.485 277.488 240.995C277.158 240.504 276.992 239.851 276.992 239.035ZM277.984 237.515C277.755 237.872 277.64 238.379 277.64 239.035C277.64 239.691 277.752 240.205 277.976 240.579C278.2 240.947 278.478 241.131 278.808 241.131C279.176 241.131 279.467 240.949 279.68 240.587C279.899 240.224 280.008 239.707 280.008 239.035C280.008 238.368 279.894 237.859 279.664 237.507C279.44 237.149 279.155 236.971 278.808 236.971C278.488 236.971 278.214 237.152 277.984 237.515Z" fill="#2B2B2B"/>
<rect x="109" y="270" width="120" height="24" rx="8" fill="#FF1934"/>
<path d="M157.959 283.176L158.823 283.176C159.468 283.176 159.791 282.931 159.791 282.44C159.791 281.939 159.455 281.688 158.783 281.688L157.959 281.688L157.959 283.176ZM157.959 279.432L157.959 280.88L158.567 280.88C158.929 280.88 159.201 280.808 159.383 280.664C159.564 280.52 159.655 280.336 159.655 280.112C159.655 279.904 159.577 279.739 159.423 279.616C159.273 279.493 159.044 279.432 158.735 279.432L157.959 279.432ZM156.951 278.608L158.863 278.608C159.439 278.608 159.887 278.744 160.207 279.016C160.527 279.288 160.687 279.64 160.687 280.072C160.687 280.365 160.607 280.621 160.447 280.84C160.287 281.053 160.081 281.195 159.831 281.264C160.119 281.333 160.356 281.475 160.543 281.688C160.729 281.896 160.823 282.181 160.823 282.544C160.823 282.971 160.673 283.32 160.375 283.592C160.076 283.864 159.663 284 159.135 284L156.951 284L156.951 278.608ZM163.053 281.952L164.573 281.952L164.501 281.712C164.32 281.136 164.17 280.653 164.053 280.264C163.941 279.869 163.872 279.621 163.845 279.52L163.813 279.36C163.765 279.627 163.536 280.413 163.125 281.72L163.053 281.952ZM165.213 284L164.829 282.776L162.789 282.776L162.405 284L161.349 284L163.173 278.608L164.477 278.608L166.301 284L165.213 284ZM171.364 278.608L169.508 282L169.508 284L168.5 284L168.5 282.032L166.66 278.608L167.836 278.608L168.196 279.392C168.404 279.845 168.574 280.227 168.708 280.536C168.841 280.84 168.921 281.029 168.948 281.104L168.996 281.224C169.044 281.027 169.318 280.416 169.82 279.392L170.188 278.608L171.364 278.608ZM173.436 281.952L174.956 281.952L174.884 281.712C174.702 281.136 174.553 280.653 174.436 280.264C174.324 279.869 174.254 279.621 174.228 279.52L174.196 279.36C174.148 279.627 173.918 280.413 173.508 281.72L173.436 281.952ZM175.596 284L175.212 282.776L173.172 282.776L172.788 284L171.732 284L173.556 278.608L174.86 278.608L176.684 284L175.596 284ZM178.466 279.44L178.466 281.2L179.138 281.2C179.448 281.2 179.68 281.123 179.834 280.968C179.989 280.808 180.066 280.587 180.066 280.304C180.066 280.027 179.984 279.813 179.818 279.664C179.658 279.515 179.426 279.44 179.122 279.44L178.466 279.44ZM180.242 284L179.018 282.032L178.466 282.032L178.466 284L177.458 284L177.458 278.608L179.122 278.608C179.736 278.608 180.216 278.763 180.562 279.072C180.914 279.381 181.09 279.795 181.09 280.312C181.085 280.696 180.992 281.021 180.81 281.288C180.629 281.549 180.381 281.744 180.066 281.872L181.45 284L180.242 284Z" fill="white"/>
<path d="M9 341.5H329C333.694 341.5 337.5 345.306 337.5 350C337.5 354.694 333.694 358.5 329 358.5H9C4.30558 358.5 0.5 354.694 0.5 350C0.500002 345.306 4.30558 341.5 9 341.5Z" fill="white"/>
<path d="M9 341.5H329C333.694 341.5 337.5 345.306 337.5 350C337.5 354.694 333.694 358.5 329 358.5H9C4.30558 358.5 0.5 354.694 0.5 350C0.500002 345.306 4.30558 341.5 9 341.5Z" stroke="#CCCCCC"/>
<path d="M7.86805e-07 350C3.52265e-07 345.029 4.02944 341 9 341L39 341C43.9706 341 48 345.029 48 350C48 354.971 43.9706 359 39 359L9 359C4.02944 359 1.22135e-06 354.971 7.86805e-07 350Z" fill="#FF1934"/>
<path d="M15.448 346.688H16.264L16.816 348.6L17.456 350.92C17.5893 350.179 17.7547 349.403 17.952 348.592L18.44 346.608H19.464L18.088 352H16.92L16.432 350.296C16.2987 349.843 16.184 349.443 16.088 349.096C15.9973 348.749 15.936 348.517 15.904 348.4L15.864 348.216C15.7893 348.589 15.6027 349.283 15.304 350.296L14.8 352H13.64L12.2 346.608H13.264L13.768 348.6C13.8533 348.957 13.9387 349.328 14.024 349.712C14.1093 350.096 14.1733 350.389 14.216 350.592L14.28 350.904C14.4507 350.232 14.6587 349.464 14.904 348.6L15.448 346.688ZM22.2561 350.256H21.7601C21.5094 350.256 21.3174 350.309 21.1841 350.416C21.0507 350.517 20.9841 350.648 20.9841 350.808C20.9841 351.149 21.1814 351.32 21.5761 351.32C21.7894 351.32 21.9547 351.259 22.0721 351.136C22.1947 351.008 22.2561 350.843 22.2561 350.64V350.256ZM20.2881 349.04V348.152C20.5921 347.965 21.0294 347.872 21.6001 347.872C22.6987 347.872 23.2481 348.384 23.2481 349.408V352H22.2961V351.512C22.1094 351.859 21.7574 352.032 21.2401 352.032C20.8561 352.032 20.5494 351.92 20.3201 351.696C20.0961 351.472 19.9841 351.189 19.9841 350.848C19.9841 350.464 20.1281 350.163 20.4161 349.944C20.7041 349.725 21.1201 349.616 21.6641 349.616H22.2561V349.368C22.2561 349.144 22.1974 348.973 22.0801 348.856C21.9627 348.739 21.7627 348.68 21.4801 348.68C21.0481 348.68 20.6507 348.8 20.2881 349.04ZM27.7828 352H26.6548L25.1988 349.904V352H24.2388V346.44H25.1988V349.848L26.6308 347.944H27.7508L26.2628 349.88L27.7828 352ZM29.5864 348.664V350.728C29.5864 350.899 29.6318 351.029 29.7224 351.12C29.8131 351.205 29.9384 351.248 30.0984 351.248C30.3011 351.248 30.4878 351.192 30.6584 351.08V351.904C30.4718 351.995 30.2318 352.04 29.9384 352.04C29.0638 352.04 28.6264 351.597 28.6264 350.712V348.664H28.0184V347.944H28.6264V346.968H29.5864V347.944H30.5944V348.664H29.5864ZM33.9617 347.944H34.9297V352H33.9617V351.336C33.7484 351.805 33.3324 352.04 32.7137 352.04C32.303 352.04 31.983 351.923 31.7537 351.688C31.5244 351.453 31.4097 351.12 31.4097 350.688V347.944H32.3697V350.464C32.3697 350.72 32.431 350.915 32.5537 351.048C32.6817 351.181 32.855 351.248 33.0737 351.248C33.351 351.248 33.567 351.155 33.7217 350.968C33.8817 350.781 33.9617 350.499 33.9617 350.12V347.944Z" fill="white"/>
<rect x="56" y="348" width="274" height="4" rx="2" fill="#CCCCCC"/>
<mask id="mask0_1124_4113" style="mask-type:alpha" maskUnits="userSpaceOnUse" x="56" y="348" width="274" height="4">
<rect x="56" y="348" width="274" height="4" rx="2" fill="#CCCCCC"/>
</mask>
<g mask="url(#mask0_1124_4113)">
<rect x="56" y="348" width="274" height="4" rx="2" fill="#FF1934"/>
</g>
<defs>
<filter id="filter0_d_1124_4113" x="22.5" y="14" width="293" height="56" filterUnits="userSpaceOnUse" color-interpolation-filters="sRGB">
<feFlood flood-opacity="0" result="BackgroundImageFix"/>
<feColorMatrix in="SourceAlpha" type="matrix" values="0 0 0 0 0 0 0 0 0 0 0 0 0 0 0 0 0 0 127 0" result="hardAlpha"/>
<feOffset dy="2"/>
<feGaussianBlur stdDeviation="2"/>
<feComposite in2="hardAlpha" operator="out"/>
<feColorMatrix type="matrix" values="0 0 0 0 0.168627 0 0 0 0 0.168627 0 0 0 0 0.168627 0 0 0 0.24 0"/>
<feBlend mode="normal" in2="BackgroundImageFix" result="effect1_dropShadow_1124_4113"/>
<feBlend mode="normal" in="SourceGraphic" in2="effect1_dropShadow_1124_4113" result="shape"/>
</filter>
<clipPath id="clip0_1124_4113">
<rect width="24" height="24" fill="white" transform="translate(42.5 32)"/>
</clipPath>
<clipPath id="clip1_1124_4113">
<rect width="64" height="64" fill="white" transform="translate(137 72)"/>
</clipPath>
</defs>
</svg>
