<svg width="338" height="375" viewBox="0 0 338 375" fill="none" xmlns="http://www.w3.org/2000/svg">
<rect width="338" height="375" fill="#D3D3D3"/>
<rect x="26.5" y="16" width="285" height="278" rx="16" fill="white"/>
<g filter="url(#filter0_d_1124_4113)">
<path d="M26.5 32C26.5 23.1634 33.6634 16 42.5 16H295.5C304.337 16 311.5 23.1634 311.5 32V64H26.5V32Z" fill="#FF1934" shape-rendering="crispEdges"/>
<g clip-path="url(#clip0_1124_4113)">
<path d="M54.5 34C48.99 34 44.5 38.49 44.5 44C44.5 46.27 45.24 48.41 46.64 50.18C46.91 50.53 47.42 50.59 47.76 50.31C48.11 50.04 48.17 49.53 47.89 49.19C46.71 47.7 46.09 45.9 46.09 44C46.1 39.37 49.87 35.6 54.5 35.6C59.13 35.6 62.9 39.37 62.9 44C62.9 48.63 59.13 52.4 54.5 52.4C52.82 52.4 51.19 51.9 49.8 50.97C49.43 50.72 48.94 50.82 48.69 51.18C48.44 51.54 48.54 52.04 48.9 52.29C50.56 53.41 52.49 54 54.49 54C60 54 64.49 49.51 64.49 44C64.49 38.49 60.01 34 54.5 34Z" fill="white"/>
<path d="M58.2402 38.14C57.8702 37.9 57.3702 38.01 57.1302 38.38L53.8202 43.57C53.7402 43.7 53.7002 43.85 53.7002 44V48C53.7002 48.44 54.0602 48.8 54.5002 48.8C54.9402 48.8 55.3002 48.44 55.3002 48V44.23L58.4902 39.24C58.7302 38.87 58.6202 38.37 58.2502 38.13L58.2402 38.14Z" fill="white"/>
</g>
<path d="M77.566 46.11H81.052V48H75.41V38.564H77.566V46.11ZM82.2459 48V40.902H84.2899V48H82.2459ZM82.4279 39.684C82.1946 39.4507 82.0779 39.1707 82.0779 38.844C82.0779 38.5173 82.1946 38.2373 82.4279 38.004C82.6613 37.7707 82.9413 37.654 83.2679 37.654C83.5946 37.654 83.8746 37.7707 84.1079 38.004C84.3413 38.2373 84.4579 38.5173 84.4579 38.844C84.4579 39.1707 84.3413 39.4507 84.1079 39.684C83.8746 39.9173 83.5946 40.034 83.2679 40.034C82.9413 40.034 82.6613 39.9173 82.4279 39.684ZM88.0891 40.902V42.106C88.2664 41.714 88.5371 41.406 88.9011 41.182C89.2744 40.9487 89.7177 40.832 90.2311 40.832C90.9591 40.832 91.5284 41.0513 91.9391 41.49C92.3497 41.9193 92.5551 42.554 92.5551 43.394V48H90.5111V43.772C90.5111 43.352 90.4131 43.0347 90.2171 42.82C90.0211 42.596 89.7457 42.484 89.3911 42.484C89.0177 42.484 88.7051 42.6333 88.4531 42.932C88.2104 43.2213 88.0891 43.66 88.0891 44.248V48H86.0451V40.902H88.0891ZM94.2362 48V40.902H96.2802V48H94.2362ZM94.4182 39.684C94.1848 39.4507 94.0682 39.1707 94.0682 38.844C94.0682 38.5173 94.1848 38.2373 94.4182 38.004C94.6515 37.7707 94.9315 37.654 95.2582 37.654C95.5848 37.654 95.8648 37.7707 96.0982 38.004C96.3315 38.2373 96.4482 38.5173 96.4482 38.844C96.4482 39.1707 96.3315 39.4507 96.0982 39.684C95.8648 39.9173 95.5848 40.034 95.2582 40.034C94.9315 40.034 94.6515 39.9173 94.4182 39.684ZM101.395 48L102.207 38.564H104.573L105.889 41.98C106.113 42.5493 106.305 43.072 106.463 43.548C106.622 44.024 106.725 44.36 106.771 44.556L106.841 44.836C106.991 44.22 107.317 43.268 107.821 41.98L109.151 38.564H111.517L112.497 48H110.341L109.991 44.346L109.809 41.588C109.567 42.288 109.231 43.2073 108.801 44.346L107.471 47.902H106.197L104.881 44.346C104.667 43.7673 104.485 43.2493 104.335 42.792C104.186 42.3347 104.088 42.0173 104.041 41.84L103.971 41.588C103.971 42.2507 103.929 43.17 103.845 44.346L103.551 48H101.395ZM117.545 45.088H116.887C116.542 45.088 116.276 45.1627 116.089 45.312C115.903 45.4613 115.809 45.6527 115.809 45.886C115.809 46.362 116.085 46.6 116.635 46.6C116.925 46.6 117.149 46.5113 117.307 46.334C117.466 46.1567 117.545 45.914 117.545 45.606V45.088ZM114.227 43.086V41.252C114.787 40.9347 115.595 40.776 116.649 40.776C117.657 40.776 118.409 40.9953 118.903 41.434C119.398 41.8633 119.645 42.5353 119.645 43.45V48H117.643V47.132C117.345 47.7387 116.757 48.042 115.879 48.042C115.189 48.042 114.647 47.846 114.255 47.454C113.873 47.062 113.681 46.572 113.681 45.984C113.681 45.3027 113.929 44.7753 114.423 44.402C114.927 44.0193 115.669 43.828 116.649 43.828H117.545V43.338C117.545 42.7407 117.149 42.442 116.355 42.442C115.59 42.442 114.881 42.6567 114.227 43.086ZM125.73 41.112V42.862C125.235 42.5727 124.657 42.428 123.994 42.428C123.751 42.428 123.565 42.4793 123.434 42.582C123.303 42.6753 123.238 42.7967 123.238 42.946C123.238 43.03 123.261 43.1093 123.308 43.184C123.355 43.2587 123.429 43.3287 123.532 43.394C123.644 43.4593 123.747 43.52 123.84 43.576C123.943 43.6227 124.078 43.6833 124.246 43.758C124.423 43.8327 124.563 43.898 124.666 43.954C125.095 44.178 125.441 44.4393 125.702 44.738C125.963 45.0273 126.094 45.4007 126.094 45.858C126.094 46.558 125.842 47.0993 125.338 47.482C124.834 47.8647 124.167 48.056 123.336 48.056C122.477 48.056 121.759 47.9113 121.18 47.622V45.802C121.824 46.25 122.505 46.474 123.224 46.474C123.737 46.474 123.994 46.3107 123.994 45.984C123.994 45.9 123.971 45.8207 123.924 45.746C123.877 45.6713 123.798 45.6013 123.686 45.536C123.574 45.4707 123.471 45.4193 123.378 45.382C123.285 45.3353 123.149 45.2747 122.972 45.2C122.795 45.1253 122.659 45.0647 122.566 45.018C121.623 44.57 121.152 43.898 121.152 43.002C121.152 42.3113 121.413 41.7747 121.936 41.392C122.468 41.0093 123.126 40.818 123.91 40.818C124.638 40.818 125.245 40.916 125.73 41.112ZM130.862 45.088H130.204C129.858 45.088 129.592 45.1627 129.406 45.312C129.219 45.4613 129.126 45.6527 129.126 45.886C129.126 46.362 129.401 46.6 129.952 46.6C130.241 46.6 130.465 46.5113 130.624 46.334C130.782 46.1567 130.862 45.914 130.862 45.606V45.088ZM127.544 43.086V41.252C128.104 40.9347 128.911 40.776 129.966 40.776C130.974 40.776 131.725 40.9953 132.22 41.434C132.714 41.8633 132.962 42.5353 132.962 43.45V48H130.96V47.132C130.661 47.7387 130.073 48.042 129.196 48.042C128.505 48.042 127.964 47.846 127.572 47.454C127.189 47.062 126.998 46.572 126.998 45.984C126.998 45.3027 127.245 44.7753 127.74 44.402C128.244 44.0193 128.986 43.828 129.966 43.828H130.862V43.338C130.862 42.7407 130.465 42.442 129.672 42.442C128.906 42.442 128.197 42.6567 127.544 43.086Z" fill="white"/>
</g>
<path d="M99.0328 93.984V96C98.2768 95.5613 97.4928 95.342 96.6808 95.342C96.3168 95.342 96.0368 95.4167 95.8408 95.566C95.6541 95.7153 95.5608 95.9067 95.5608 96.14C95.5608 96.3733 95.6774 96.5833 95.9108 96.77C96.1441 96.9473 96.4941 97.1387 96.9608 97.344C97.2501 97.4747 97.4881 97.5913 97.6748 97.694C97.8708 97.7873 98.0901 97.9227 98.3328 98.1C98.5848 98.268 98.7808 98.45 98.9208 98.646C99.0701 98.8327 99.1961 99.066 99.2988 99.346C99.4014 99.626 99.4528 99.9293 99.4528 100.256C99.4528 101.105 99.1401 101.796 98.5148 102.328C97.8894 102.851 97.0588 103.112 96.0228 103.112C94.9121 103.112 94.0068 102.916 93.3068 102.524V100.354C94.1561 100.97 95.0614 101.278 96.0228 101.278C96.3494 101.278 96.6201 101.194 96.8348 101.026C97.0494 100.849 97.1568 100.62 97.1568 100.34C97.1568 100.247 97.1428 100.158 97.1148 100.074C97.0868 99.99 97.0354 99.9107 96.9608 99.836C96.8861 99.7613 96.8114 99.7007 96.7368 99.654C96.6714 99.598 96.5688 99.5373 96.4288 99.472C96.2981 99.3973 96.1861 99.3367 96.0928 99.29C95.9994 99.2433 95.8594 99.178 95.6728 99.094C95.4954 99.01 95.3508 98.9447 95.2388 98.898C94.6321 98.618 94.1421 98.2727 93.7688 97.862C93.4048 97.4513 93.2228 96.9053 93.2228 96.224C93.2228 95.412 93.5214 94.7587 94.1188 94.264C94.7161 93.76 95.5421 93.508 96.5968 93.508C97.5394 93.508 98.3514 93.6667 99.0328 93.984ZM104.222 100.088H103.564C103.219 100.088 102.953 100.163 102.766 100.312C102.579 100.461 102.486 100.653 102.486 100.886C102.486 101.362 102.761 101.6 103.312 101.6C103.601 101.6 103.825 101.511 103.984 101.334C104.143 101.157 104.222 100.914 104.222 100.606V100.088ZM100.904 98.086V96.252C101.464 95.9347 102.271 95.776 103.326 95.776C104.334 95.776 105.085 95.9953 105.58 96.434C106.075 96.8633 106.322 97.5353 106.322 98.45V103H104.32V102.132C104.021 102.739 103.433 103.042 102.556 103.042C101.865 103.042 101.324 102.846 100.932 102.454C100.549 102.062 100.358 101.572 100.358 100.984C100.358 100.303 100.605 99.7753 101.1 99.402C101.604 99.0193 102.346 98.828 103.326 98.828H104.222V98.338C104.222 97.7407 103.825 97.442 103.032 97.442C102.267 97.442 101.557 97.6567 100.904 98.086ZM111.441 100.088H110.783C110.438 100.088 110.172 100.163 109.985 100.312C109.798 100.461 109.705 100.653 109.705 100.886C109.705 101.362 109.98 101.6 110.531 101.6C110.82 101.6 111.044 101.511 111.203 101.334C111.362 101.157 111.441 100.914 111.441 100.606V100.088ZM108.123 98.086V96.252C108.683 95.9347 109.49 95.776 110.545 95.776C111.553 95.776 112.304 95.9953 112.799 96.434C113.294 96.8633 113.541 97.5353 113.541 98.45V103H111.539V102.132C111.24 102.739 110.652 103.042 109.775 103.042C109.084 103.042 108.543 102.846 108.151 102.454C107.768 102.062 107.577 101.572 107.577 100.984C107.577 100.303 107.824 99.7753 108.319 99.402C108.823 99.0193 109.565 98.828 110.545 98.828H111.441V98.338C111.441 97.7407 111.044 97.442 110.251 97.442C109.486 97.442 108.776 97.6567 108.123 98.086ZM117.512 97.4V100.662C117.512 100.914 117.582 101.105 117.722 101.236C117.871 101.367 118.062 101.432 118.296 101.432C118.669 101.432 119 101.339 119.29 101.152V102.846C118.944 102.995 118.478 103.07 117.89 103.07C116.275 103.07 115.468 102.263 115.468 100.648V97.4H114.446V95.902H115.468V94.222H117.512V95.902H119.164V97.4H117.512ZM122.59 95.902V97.106C122.767 96.714 123.038 96.406 123.402 96.182C123.775 95.9487 124.219 95.832 124.732 95.832C125.46 95.832 126.029 96.0513 126.44 96.49C126.851 96.9193 127.056 97.554 127.056 98.394V103H125.012V98.772C125.012 98.352 124.914 98.0347 124.718 97.82C124.522 97.596 124.247 97.484 123.892 97.484C123.519 97.484 123.206 97.6333 122.954 97.932C122.711 98.2213 122.59 98.66 122.59 99.248V103H120.546V95.902H122.59ZM130.641 102.888L127.897 95.902H130.123L130.893 98.114C131.089 98.6833 131.248 99.1733 131.369 99.584C131.5 99.9947 131.579 100.265 131.607 100.396L131.649 100.592C131.752 100.219 132.004 99.3927 132.405 98.114L133.105 95.902H135.205L132.643 102.79C131.906 104.778 130.781 105.772 129.269 105.772C128.98 105.772 128.718 105.749 128.485 105.702V104.078C128.634 104.115 128.793 104.134 128.961 104.134C129.736 104.134 130.296 103.719 130.641 102.888ZM139.632 100.088H138.974C138.629 100.088 138.363 100.163 138.176 100.312C137.99 100.461 137.896 100.653 137.896 100.886C137.896 101.362 138.172 101.6 138.722 101.6C139.012 101.6 139.236 101.511 139.394 101.334C139.553 101.157 139.632 100.914 139.632 100.606V100.088ZM136.314 98.086V96.252C136.874 95.9347 137.682 95.776 138.736 95.776C139.744 95.776 140.496 95.9953 140.99 96.434C141.485 96.8633 141.732 97.5353 141.732 98.45V103H139.73V102.132C139.432 102.739 138.844 103.042 137.966 103.042C137.276 103.042 136.734 102.846 136.342 102.454C135.96 102.062 135.768 101.572 135.768 100.984C135.768 100.303 136.016 99.7753 136.51 99.402C137.014 99.0193 137.756 98.828 138.736 98.828H139.632V98.338C139.632 97.7407 139.236 97.442 138.442 97.442C137.677 97.442 136.968 97.6567 136.314 98.086ZM149.665 99.332H151.933L151.835 98.996C151.564 98.0813 151.34 97.302 151.163 96.658C150.995 96.014 150.892 95.5987 150.855 95.412L150.799 95.132C150.724 95.6453 150.379 96.9333 149.763 98.996L149.665 99.332ZM153.025 103L152.451 101.068H149.147L148.573 103H146.319L149.469 93.564H152.185L155.335 103H153.025ZM158.547 95.902V97.106C158.724 96.714 158.995 96.406 159.359 96.182C159.732 95.9487 160.176 95.832 160.689 95.832C161.417 95.832 161.986 96.0513 162.397 96.49C162.808 96.9193 163.013 97.554 163.013 98.394V103H160.969V98.772C160.969 98.352 160.871 98.0347 160.675 97.82C160.479 97.596 160.204 97.484 159.849 97.484C159.476 97.484 159.163 97.6333 158.911 97.932C158.668 98.2213 158.547 98.66 158.547 99.248V103H156.503V95.902H158.547ZM168.138 100.088H167.48C167.135 100.088 166.869 100.163 166.682 100.312C166.496 100.461 166.402 100.653 166.402 100.886C166.402 101.362 166.678 101.6 167.228 101.6C167.518 101.6 167.742 101.511 167.9 101.334C168.059 101.157 168.138 100.914 168.138 100.606V100.088ZM164.82 98.086V96.252C165.38 95.9347 166.188 95.776 167.242 95.776C168.25 95.776 169.002 95.9953 169.496 96.434C169.991 96.8633 170.238 97.5353 170.238 98.45V103H168.236V102.132C167.938 102.739 167.35 103.042 166.472 103.042C165.782 103.042 165.24 102.846 164.848 102.454C164.466 102.062 164.274 101.572 164.274 100.984C164.274 100.303 164.522 99.7753 165.016 99.402C165.52 99.0193 166.262 98.828 167.242 98.828H168.138V98.338C168.138 97.7407 167.742 97.442 166.948 97.442C166.183 97.442 165.474 97.6567 164.82 98.086ZM178.521 103H176.155L173.887 99.514V103H171.843V93.34H173.887V99.08L176.127 95.902H178.479L176.015 99.304L178.521 103ZM189.691 103H187.325L185.057 99.514V103H183.013V93.34H185.057V99.08L187.297 95.902H189.649L187.185 99.304L189.691 103ZM194.785 98.8V98.632C194.719 97.8013 194.355 97.386 193.693 97.386C193.366 97.386 193.077 97.5073 192.825 97.75C192.573 97.9833 192.405 98.3333 192.321 98.8H194.785ZM196.255 100.886V102.594C195.769 102.911 195.027 103.07 194.029 103.07C192.862 103.07 191.952 102.734 191.299 102.062C190.655 101.381 190.333 100.508 190.333 99.444C190.333 98.3147 190.645 97.4327 191.271 96.798C191.905 96.154 192.685 95.832 193.609 95.832C194.561 95.832 195.312 96.112 195.863 96.672C196.413 97.2227 196.689 98.0487 196.689 99.15C196.689 99.3647 196.651 99.7333 196.577 100.256H192.405C192.545 100.648 192.787 100.951 193.133 101.166C193.478 101.381 193.893 101.488 194.379 101.488C195.097 101.488 195.723 101.287 196.255 100.886ZM201.718 103V93.564H203.874V103H201.718ZM206.492 98.282L209.838 103H207.136L203.972 98.31L207.024 93.564H209.586L206.492 98.282ZM215.313 95.902H217.357V103H215.313V101.866C214.94 102.659 214.221 103.056 213.157 103.056C212.429 103.056 211.86 102.855 211.449 102.454C211.048 102.043 210.847 101.441 210.847 100.648V95.902H212.891V100.186C212.891 101.017 213.255 101.432 213.983 101.432C214.87 101.432 215.313 100.839 215.313 99.654V95.902ZM219.108 103V93.102H221.152V103H219.108ZM222.977 103V95.902H225.021V103H222.977ZM223.159 94.684C222.926 94.4507 222.809 94.1707 222.809 93.844C222.809 93.5173 222.926 93.2373 223.159 93.004C223.393 92.7707 223.673 92.654 223.999 92.654C224.326 92.654 224.606 92.7707 224.839 93.004C225.073 93.2373 225.189 93.5173 225.189 93.844C225.189 94.1707 225.073 94.4507 224.839 94.684C224.606 94.9173 224.326 95.034 223.999 95.034C223.673 95.034 223.393 94.9173 223.159 94.684ZM230.291 100.088H229.633C229.287 100.088 229.021 100.163 228.835 100.312C228.648 100.461 228.555 100.653 228.555 100.886C228.555 101.362 228.83 101.6 229.381 101.6C229.67 101.6 229.894 101.511 230.053 101.334C230.211 101.157 230.291 100.914 230.291 100.606V100.088ZM226.973 98.086V96.252C227.533 95.9347 228.34 95.776 229.395 95.776C230.403 95.776 231.154 95.9953 231.649 96.434C232.143 96.8633 232.391 97.5353 232.391 98.45V103H230.389V102.132C230.09 102.739 229.502 103.042 228.625 103.042C227.934 103.042 227.393 102.846 227.001 102.454C226.618 102.062 226.427 101.572 226.427 100.984C226.427 100.303 226.674 99.7753 227.169 99.402C227.673 99.0193 228.415 98.828 229.395 98.828H230.291V98.338C230.291 97.7407 229.894 97.442 229.101 97.442C228.335 97.442 227.626 97.6567 226.973 98.086ZM236.039 93.102V97.106C236.403 96.2567 237.113 95.832 238.167 95.832C238.858 95.832 239.418 96.0513 239.847 96.49C240.286 96.9287 240.505 97.5913 240.505 98.478V103H238.461V98.8C238.461 98.3893 238.359 98.0673 238.153 97.834C237.948 97.6007 237.682 97.484 237.355 97.484C237.215 97.484 237.08 97.5073 236.949 97.554C236.828 97.5913 236.693 97.666 236.543 97.778C236.394 97.8807 236.273 98.0627 236.179 98.324C236.086 98.576 236.039 98.884 236.039 99.248V103H233.995V93.102H236.039ZM242.326 99.696V93.564H244.272V99.696H242.326ZM242.368 102.748C242.126 102.496 242.004 102.193 242.004 101.838C242.004 101.483 242.126 101.185 242.368 100.942C242.62 100.69 242.924 100.564 243.278 100.564C243.633 100.564 243.932 100.69 244.174 100.942C244.426 101.185 244.552 101.483 244.552 101.838C244.552 102.193 244.426 102.496 244.174 102.748C243.932 102.991 243.633 103.112 243.278 103.112C242.924 103.112 242.62 102.991 242.368 102.748Z" fill="#2B2B2B"/>
<path d="M44.26 117.76H45.14C45.6267 117.76 45.9967 117.64 46.25 117.4C46.51 117.16 46.64 116.843 46.64 116.45C46.64 116.037 46.51 115.71 46.25 115.47C45.99 115.23 45.6133 115.11 45.12 115.11H44.26V117.76ZM43.23 114.26H45.16C45.9333 114.26 46.5467 114.467 47 114.88C47.4533 115.287 47.68 115.81 47.68 116.45C47.68 117.09 47.45 117.61 46.99 118.01C46.5367 118.41 45.9467 118.61 45.22 118.61H44.26V121H43.23V114.26ZM51.838 115.93H52.818V121H51.838V120.13C51.5714 120.75 51.0447 121.06 50.258 121.06C49.758 121.06 49.3614 120.913 49.068 120.62C48.7747 120.32 48.628 119.91 48.628 119.39V115.93H49.618V119.15C49.618 119.497 49.7014 119.763 49.868 119.95C50.0414 120.13 50.278 120.22 50.578 120.22C50.958 120.22 51.2614 120.087 51.488 119.82C51.7214 119.553 51.838 119.177 51.838 118.69V115.93ZM55.4659 116.69V119.48C55.4659 119.967 55.6992 120.21 56.1659 120.21C56.4392 120.21 56.6692 120.137 56.8559 119.99V120.87C56.6359 120.99 56.3659 121.05 56.0459 121.05C54.9992 121.05 54.4759 120.52 54.4759 119.46V116.69H53.6859V115.93H54.4759V114.69H55.4659V115.93H56.7959V116.69H55.4659ZM60.6061 118.74H59.8461C59.4728 118.74 59.1894 118.813 58.9961 118.96C58.8094 119.107 58.7161 119.293 58.7161 119.52C58.7161 119.753 58.7894 119.937 58.9361 120.07C59.0828 120.203 59.2961 120.27 59.5761 120.27C59.8961 120.27 60.1461 120.183 60.3261 120.01C60.5128 119.83 60.6061 119.597 60.6061 119.31V118.74ZM58.0561 117.14V116.19C58.4494 115.963 58.9694 115.85 59.6161 115.85C60.9428 115.85 61.6061 116.493 61.6061 117.78V121H60.6361V120.4C60.3761 120.827 59.9194 121.04 59.2661 121.04C58.7861 121.04 58.3994 120.903 58.1061 120.63C57.8194 120.35 57.6761 119.997 57.6761 119.57C57.6761 119.083 57.8594 118.707 58.2261 118.44C58.5928 118.167 59.1061 118.03 59.7661 118.03H60.6061V117.74C60.6061 117.393 60.5228 117.133 60.3561 116.96C60.1894 116.78 59.9128 116.69 59.5261 116.69C58.9861 116.69 58.4961 116.84 58.0561 117.14ZM63.9063 115.93V116.82C64.153 116.193 64.5963 115.88 65.2363 115.88C65.3297 115.88 65.433 115.89 65.5463 115.91V116.87C65.4063 116.81 65.2497 116.78 65.0763 116.78C64.7363 116.78 64.4563 116.93 64.2363 117.23C64.0163 117.53 63.9063 117.887 63.9063 118.3V121H62.9263V115.93H63.9063ZM71.9259 115.93H72.9059V121H71.9259V120.13C71.6593 120.75 71.1326 121.06 70.3459 121.06C69.8459 121.06 69.4493 120.913 69.1559 120.62C68.8626 120.32 68.7159 119.91 68.7159 119.39V115.93H69.7059V119.15C69.7059 119.497 69.7893 119.763 69.9559 119.95C70.1293 120.13 70.3659 120.22 70.6659 120.22C71.0459 120.22 71.3493 120.087 71.5759 119.82C71.8093 119.553 71.9259 119.177 71.9259 118.69V115.93ZM75.2638 115.93V116.8C75.5638 116.173 76.0904 115.86 76.8438 115.86C77.3438 115.86 77.7404 116.013 78.0338 116.32C78.3271 116.627 78.4738 117.043 78.4738 117.57V121H77.4938V117.8C77.4938 117.447 77.4038 117.177 77.2238 116.99C77.0504 116.803 76.8171 116.71 76.5238 116.71C76.1771 116.71 75.8804 116.847 75.6338 117.12C75.3871 117.387 75.2638 117.763 75.2638 118.25V121H74.2838V115.93H75.2638ZM81.0616 116.69V119.48C81.0616 119.967 81.2949 120.21 81.7616 120.21C82.0349 120.21 82.2649 120.137 82.4516 119.99V120.87C82.2316 120.99 81.9616 121.05 81.6416 121.05C80.5949 121.05 80.0716 120.52 80.0716 119.46V116.69H79.2816V115.93H80.0716V114.69H81.0616V115.93H82.3916V116.69H81.0616ZM86.6818 115.93H87.6618V121H86.6818V120.13C86.4151 120.75 85.8885 121.06 85.1018 121.06C84.6018 121.06 84.2051 120.913 83.9118 120.62C83.6185 120.32 83.4718 119.91 83.4718 119.39V115.93H84.4618V119.15C84.4618 119.497 84.5451 119.763 84.7118 119.95C84.8851 120.13 85.1218 120.22 85.4218 120.22C85.8018 120.22 86.1051 120.087 86.3318 119.82C86.5651 119.553 86.6818 119.177 86.6818 118.69V115.93ZM89.0396 121V114H90.0196V121H89.0396ZM91.1896 118.35L93.1796 121H92.0096L90.0596 118.35L91.9696 115.93H93.1196L91.1896 118.35ZM97.4805 115.93V116.74C97.7672 116.153 98.2439 115.86 98.9105 115.86C99.6705 115.86 100.157 116.187 100.371 116.84C100.511 116.527 100.714 116.287 100.981 116.12C101.247 115.947 101.547 115.86 101.881 115.86C102.401 115.86 102.794 116.013 103.061 116.32C103.334 116.627 103.471 117.05 103.471 117.59V121H102.491V117.8C102.491 117.073 102.197 116.71 101.611 116.71C101.317 116.71 101.054 116.84 100.821 117.1C100.594 117.36 100.481 117.743 100.481 118.25V121H99.5005V117.8C99.5005 117.073 99.2039 116.71 98.6105 116.71C98.3239 116.71 98.0639 116.84 97.8305 117.1C97.5972 117.36 97.4805 117.743 97.4805 118.25V121H96.5005V115.93H97.4805ZM107.951 118.1V117.92C107.938 117.54 107.835 117.24 107.641 117.02C107.448 116.793 107.171 116.68 106.811 116.68C106.478 116.68 106.191 116.803 105.951 117.05C105.711 117.29 105.561 117.64 105.501 118.1H107.951ZM108.581 119.85V120.73C108.208 120.943 107.715 121.05 107.101 121.05C106.315 121.05 105.688 120.813 105.221 120.34C104.755 119.867 104.521 119.247 104.521 118.48C104.521 117.667 104.735 117.03 105.161 116.57C105.588 116.103 106.131 115.87 106.791 115.87C107.438 115.87 107.951 116.073 108.331 116.48C108.711 116.88 108.901 117.46 108.901 118.22C108.901 118.427 108.881 118.643 108.841 118.87H105.511C105.578 119.31 105.765 119.647 106.071 119.88C106.378 120.113 106.765 120.23 107.231 120.23C107.771 120.23 108.221 120.103 108.581 119.85ZM111.035 115.93V116.8C111.335 116.173 111.862 115.86 112.615 115.86C113.115 115.86 113.512 116.013 113.805 116.32C114.099 116.627 114.245 117.043 114.245 117.57V121H113.265V117.8C113.265 117.447 113.175 117.177 112.995 116.99C112.822 116.803 112.589 116.71 112.295 116.71C111.949 116.71 111.652 116.847 111.405 117.12C111.159 117.387 111.035 117.763 111.035 118.25V121H110.055V115.93H111.035ZM117.563 120.02C117.91 120.02 118.21 119.887 118.463 119.62C118.723 119.347 118.853 118.967 118.853 118.48C118.853 117.88 118.73 117.437 118.483 117.15C118.243 116.863 117.95 116.72 117.603 116.72C117.21 116.72 116.9 116.877 116.673 117.19C116.446 117.497 116.333 117.903 116.333 118.41C116.333 118.937 116.453 119.337 116.693 119.61C116.94 119.883 117.23 120.02 117.563 120.02ZM118.853 115.93H119.833V120.57C119.833 121.35 119.61 121.937 119.163 122.33C118.723 122.73 118.156 122.93 117.463 122.93C116.81 122.93 116.26 122.82 115.813 122.6V121.61C116.24 121.89 116.756 122.03 117.363 122.03C118.356 122.03 118.853 121.54 118.853 120.56V120.04C118.526 120.587 118.036 120.86 117.383 120.86C116.81 120.86 116.32 120.65 115.913 120.23C115.506 119.803 115.303 119.203 115.303 118.43C115.303 117.683 115.493 117.07 115.873 116.59C116.253 116.103 116.756 115.86 117.383 115.86C118.056 115.86 118.546 116.147 118.853 116.72V115.93ZM124.299 118.1V117.92C124.286 117.54 124.182 117.24 123.989 117.02C123.796 116.793 123.519 116.68 123.159 116.68C122.826 116.68 122.539 116.803 122.299 117.05C122.059 117.29 121.909 117.64 121.849 118.1H124.299ZM124.929 119.85V120.73C124.556 120.943 124.062 121.05 123.449 121.05C122.662 121.05 122.036 120.813 121.569 120.34C121.102 119.867 120.869 119.247 120.869 118.48C120.869 117.667 121.082 117.03 121.509 116.57C121.936 116.103 122.479 115.87 123.139 115.87C123.786 115.87 124.299 116.073 124.679 116.48C125.059 116.88 125.249 117.46 125.249 118.22C125.249 118.427 125.229 118.643 125.189 118.87H121.859C121.926 119.31 122.112 119.647 122.419 119.88C122.726 120.113 123.112 120.23 123.579 120.23C124.119 120.23 124.569 120.103 124.929 119.85ZM127.673 116.69V119.48C127.673 119.967 127.906 120.21 128.373 120.21C128.646 120.21 128.876 120.137 129.063 119.99V120.87C128.843 120.99 128.573 121.05 128.253 121.05C127.206 121.05 126.683 120.52 126.683 119.46V116.69H125.893V115.93H126.683V114.69H127.673V115.93H129.003V116.69H127.673ZM132.813 118.74H132.053C131.68 118.74 131.396 118.813 131.203 118.96C131.016 119.107 130.923 119.293 130.923 119.52C130.923 119.753 130.996 119.937 131.143 120.07C131.29 120.203 131.503 120.27 131.783 120.27C132.103 120.27 132.353 120.183 132.533 120.01C132.72 119.83 132.813 119.597 132.813 119.31V118.74ZM130.263 117.14V116.19C130.656 115.963 131.176 115.85 131.823 115.85C133.15 115.85 133.813 116.493 133.813 117.78V121H132.843V120.4C132.583 120.827 132.126 121.04 131.473 121.04C130.993 121.04 130.606 120.903 130.313 120.63C130.026 120.35 129.883 119.997 129.883 119.57C129.883 119.083 130.066 118.707 130.433 118.44C130.8 118.167 131.313 118.03 131.973 118.03H132.813V117.74C132.813 117.393 132.73 117.133 132.563 116.96C132.396 116.78 132.12 116.69 131.733 116.69C131.193 116.69 130.703 116.84 130.263 117.14ZM136.113 113.93V116.8C136.4 116.173 136.923 115.86 137.683 115.86C138.177 115.86 138.573 116.013 138.873 116.32C139.173 116.627 139.323 117.053 139.323 117.6V121H138.343V117.8C138.343 117.453 138.253 117.187 138.073 117C137.9 116.807 137.67 116.71 137.383 116.71C137.05 116.71 136.753 116.837 136.493 117.09C136.24 117.343 136.113 117.73 136.113 118.25V121H135.133V113.93H136.113ZM143.791 115.93H144.771V121H143.791V120.13C143.525 120.75 142.998 121.06 142.211 121.06C141.711 121.06 141.315 120.913 141.021 120.62C140.728 120.32 140.581 119.91 140.581 119.39V115.93H141.571V119.15C141.571 119.497 141.655 119.763 141.821 119.95C141.995 120.13 142.231 120.22 142.531 120.22C142.911 120.22 143.215 120.087 143.441 119.82C143.675 119.553 143.791 119.177 143.791 118.69V115.93ZM146.189 121V115.93H147.179V121H146.189ZM146.239 114.82C146.126 114.7 146.069 114.553 146.069 114.38C146.069 114.207 146.126 114.06 146.239 113.94C146.359 113.82 146.506 113.76 146.679 113.76C146.852 113.76 146.999 113.82 147.119 113.94C147.239 114.06 147.299 114.207 147.299 114.38C147.299 114.547 147.239 114.69 147.119 114.81C146.999 114.93 146.852 114.99 146.679 114.99C146.506 114.99 146.359 114.933 146.239 114.82ZM45.58 136.21C45.9533 136.21 46.2667 136.053 46.52 135.74C46.7733 135.42 46.9 135.01 46.9 134.51C46.9 133.937 46.7733 133.497 46.52 133.19C46.2667 132.877 45.9433 132.72 45.55 132.72C45.2033 132.72 44.89 132.86 44.61 133.14C44.3367 133.42 44.2 133.85 44.2 134.43C44.2 135.03 44.3333 135.477 44.6 135.77C44.8667 136.063 45.1933 136.21 45.58 136.21ZM44.2 129.93V132.7C44.56 132.14 45.07 131.86 45.73 131.86C46.37 131.86 46.8933 132.1 47.3 132.58C47.7067 133.06 47.91 133.697 47.91 134.49C47.91 135.203 47.7167 135.813 47.33 136.32C46.9433 136.82 46.4133 137.07 45.74 137.07C45.0667 137.07 44.5533 136.79 44.2 136.23V137H43.21V129.93H44.2ZM49.0503 137V131.93H50.0403V137H49.0503ZM49.1003 130.82C48.987 130.7 48.9303 130.553 48.9303 130.38C48.9303 130.207 48.987 130.06 49.1003 129.94C49.2203 129.82 49.367 129.76 49.5403 129.76C49.7136 129.76 49.8603 129.82 49.9803 129.94C50.1003 130.06 50.1603 130.207 50.1603 130.38C50.1603 130.547 50.1003 130.69 49.9803 130.81C49.8603 130.93 49.7136 130.99 49.5403 130.99C49.367 130.99 49.2203 130.933 49.1003 130.82ZM54.1315 134.74H53.3715C52.9982 134.74 52.7148 134.813 52.5215 134.96C52.3348 135.107 52.2415 135.293 52.2415 135.52C52.2415 135.753 52.3148 135.937 52.4615 136.07C52.6082 136.203 52.8215 136.27 53.1015 136.27C53.4215 136.27 53.6715 136.183 53.8515 136.01C54.0382 135.83 54.1315 135.597 54.1315 135.31V134.74ZM51.5815 133.14V132.19C51.9748 131.963 52.4948 131.85 53.1415 131.85C54.4682 131.85 55.1315 132.493 55.1315 133.78V137H54.1615V136.4C53.9015 136.827 53.4448 137.04 52.7915 137.04C52.3115 137.04 51.9248 136.903 51.6315 136.63C51.3448 136.35 51.2015 135.997 51.2015 135.57C51.2015 135.083 51.3848 134.707 51.7515 134.44C52.1182 134.167 52.6315 134.03 53.2915 134.03H54.1315V133.74C54.1315 133.393 54.0482 133.133 53.8815 132.96C53.7148 132.78 53.4382 132.69 53.0515 132.69C52.5115 132.69 52.0215 132.84 51.5815 133.14ZM57.8517 136.89L55.8317 131.93H56.9217L57.5517 133.58L58.3417 135.72C58.4017 135.52 58.6417 134.807 59.0617 133.58L59.6317 131.93H60.6717L58.8417 136.86C58.3551 138.16 57.6117 138.81 56.6117 138.81C56.4317 138.81 56.2784 138.793 56.1517 138.76V137.92C56.2584 137.947 56.3717 137.96 56.4917 137.96C57.1384 137.96 57.5917 137.603 57.8517 136.89ZM64.1608 134.74H63.4008C63.0274 134.74 62.7441 134.813 62.5508 134.96C62.3641 135.107 62.2708 135.293 62.2708 135.52C62.2708 135.753 62.3441 135.937 62.4908 136.07C62.6374 136.203 62.8508 136.27 63.1308 136.27C63.4508 136.27 63.7008 136.183 63.8808 136.01C64.0674 135.83 64.1608 135.597 64.1608 135.31V134.74ZM61.6108 133.14V132.19C62.0041 131.963 62.5241 131.85 63.1708 131.85C64.4974 131.85 65.1608 132.493 65.1608 133.78V137H64.1908V136.4C63.9308 136.827 63.4741 137.04 62.8208 137.04C62.3408 137.04 61.9541 136.903 61.6608 136.63C61.3741 136.35 61.2308 135.997 61.2308 135.57C61.2308 135.083 61.4141 134.707 61.7808 134.44C62.1474 134.167 62.6608 134.03 63.3208 134.03H64.1608V133.74C64.1608 133.393 64.0774 133.133 63.9108 132.96C63.7441 132.78 63.4674 132.69 63.0808 132.69C62.5408 132.69 62.0508 132.84 61.6108 133.14ZM68.982 137V130.26H70.012V137H68.982ZM71.372 133.66L73.992 137H72.692L70.142 133.67L72.592 130.26H73.842L71.372 133.66ZM78.0783 131.93H79.0583V137H78.0783V136.13C77.8116 136.75 77.2849 137.06 76.4983 137.06C75.9983 137.06 75.6016 136.913 75.3083 136.62C75.0149 136.32 74.8683 135.91 74.8683 135.39V131.93H75.8583V135.15C75.8583 135.497 75.9416 135.763 76.1083 135.95C76.2816 136.13 76.5183 136.22 76.8183 136.22C77.1983 136.22 77.5016 136.087 77.7283 135.82C77.9616 135.553 78.0783 135.177 78.0783 134.69V131.93ZM80.4761 137V129.93H81.4661V137H80.4761ZM82.9273 137V131.93H83.9173V137H82.9273ZM82.9773 130.82C82.8639 130.7 82.8073 130.553 82.8073 130.38C82.8073 130.207 82.8639 130.06 82.9773 129.94C83.0973 129.82 83.2439 129.76 83.4173 129.76C83.5906 129.76 83.7373 129.82 83.8573 129.94C83.9773 130.06 84.0373 130.207 84.0373 130.38C84.0373 130.547 83.9773 130.69 83.8573 130.81C83.7373 130.93 83.5906 130.99 83.4173 130.99C83.2439 130.99 83.0973 130.933 82.9773 130.82ZM88.0084 134.74H87.2484C86.8751 134.74 86.5918 134.813 86.3984 134.96C86.2118 135.107 86.1184 135.293 86.1184 135.52C86.1184 135.753 86.1918 135.937 86.3384 136.07C86.4851 136.203 86.6984 136.27 86.9784 136.27C87.2984 136.27 87.5484 136.183 87.7284 136.01C87.9151 135.83 88.0084 135.597 88.0084 135.31V134.74ZM85.4584 133.14V132.19C85.8518 131.963 86.3718 131.85 87.0184 131.85C88.3451 131.85 89.0084 132.493 89.0084 133.78V137H88.0384V136.4C87.7784 136.827 87.3218 137.04 86.6684 137.04C86.1884 137.04 85.8018 136.903 85.5084 136.63C85.2218 136.35 85.0784 135.997 85.0784 135.57C85.0784 135.083 85.2618 134.707 85.6284 134.44C85.9951 134.167 86.5084 134.03 87.1684 134.03H88.0084V133.74C88.0084 133.393 87.9251 133.133 87.7584 132.96C87.5918 132.78 87.3151 132.69 86.9284 132.69C86.3884 132.69 85.8984 132.84 85.4584 133.14ZM91.3087 129.93V132.8C91.5953 132.173 92.1187 131.86 92.8787 131.86C93.372 131.86 93.7687 132.013 94.0687 132.32C94.3687 132.627 94.5187 133.053 94.5187 133.6V137H93.5387V133.8C93.5387 133.453 93.4487 133.187 93.2687 133C93.0953 132.807 92.8653 132.71 92.5787 132.71C92.2453 132.71 91.9487 132.837 91.6887 133.09C91.4353 133.343 91.3087 133.73 91.3087 134.25V137H90.3287V129.93H91.3087ZM100.967 134.74H100.207C99.8341 134.74 99.5508 134.813 99.3574 134.96C99.1708 135.107 99.0774 135.293 99.0774 135.52C99.0774 135.753 99.1508 135.937 99.2974 136.07C99.4441 136.203 99.6574 136.27 99.9374 136.27C100.257 136.27 100.507 136.183 100.687 136.01C100.874 135.83 100.967 135.597 100.967 135.31V134.74ZM98.4174 133.14V132.19C98.8108 131.963 99.3308 131.85 99.9774 131.85C101.304 131.85 101.967 132.493 101.967 133.78V137H100.997V136.4C100.737 136.827 100.281 137.04 99.6274 137.04C99.1474 137.04 98.7608 136.903 98.4674 136.63C98.1808 136.35 98.0374 135.997 98.0374 135.57C98.0374 135.083 98.2208 134.707 98.5874 134.44C98.9541 134.167 99.4674 134.03 100.127 134.03H100.967V133.74C100.967 133.393 100.884 133.133 100.717 132.96C100.551 132.78 100.274 132.69 99.8874 132.69C99.3474 132.69 98.8574 132.84 98.4174 133.14ZM104.268 131.93V132.8C104.568 132.173 105.094 131.86 105.848 131.86C106.348 131.86 106.744 132.013 107.038 132.32C107.331 132.627 107.478 133.043 107.478 133.57V137H106.498V133.8C106.498 133.447 106.408 133.177 106.228 132.99C106.054 132.803 105.821 132.71 105.528 132.71C105.181 132.71 104.884 132.847 104.638 133.12C104.391 133.387 104.268 133.763 104.268 134.25V137H103.288V131.93H104.268ZM111.465 134.74H110.705C110.332 134.74 110.049 134.813 109.855 134.96C109.669 135.107 109.575 135.293 109.575 135.52C109.575 135.753 109.649 135.937 109.795 136.07C109.942 136.203 110.155 136.27 110.435 136.27C110.755 136.27 111.005 136.183 111.185 136.01C111.372 135.83 111.465 135.597 111.465 135.31V134.74ZM108.915 133.14V132.19C109.309 131.963 109.829 131.85 110.475 131.85C111.802 131.85 112.465 132.493 112.465 133.78V137H111.495V136.4C111.235 136.827 110.779 137.04 110.125 137.04C109.645 137.04 109.259 136.903 108.965 136.63C108.679 136.35 108.535 135.997 108.535 135.57C108.535 135.083 108.719 134.707 109.085 134.44C109.452 134.167 109.965 134.03 110.625 134.03H111.465V133.74C111.465 133.393 111.382 133.133 111.215 132.96C111.049 132.78 110.772 132.69 110.385 132.69C109.845 132.69 109.355 132.84 108.915 133.14ZM113.786 137V130H114.766V137H113.786ZM115.936 134.35L117.926 137H116.756L114.806 134.35L116.716 131.93H117.866L115.936 134.35ZM122.777 134.49H124.937L124.827 134.15C124.573 133.363 124.367 132.713 124.207 132.2C124.047 131.68 123.95 131.357 123.917 131.23L123.867 131.04C123.793 131.353 123.467 132.39 122.887 134.15L122.777 134.49ZM125.747 137L125.217 135.35H122.497L121.957 137H120.867L123.197 130.26H124.547L126.847 137H125.747ZM128.828 131.93V132.8C129.128 132.173 129.655 131.86 130.408 131.86C130.908 131.86 131.305 132.013 131.598 132.32C131.892 132.627 132.038 133.043 132.038 133.57V137H131.058V133.8C131.058 133.447 130.968 133.177 130.788 132.99C130.615 132.803 130.382 132.71 130.088 132.71C129.742 132.71 129.445 132.847 129.198 133.12C128.952 133.387 128.828 133.763 128.828 134.25V137H127.848V131.93H128.828ZM135.406 136.21C135.793 136.21 136.119 136.063 136.386 135.77C136.653 135.477 136.786 135.03 136.786 134.43C136.786 133.85 136.646 133.42 136.366 133.14C136.093 132.86 135.783 132.72 135.436 132.72C135.043 132.72 134.719 132.877 134.466 133.19C134.213 133.497 134.086 133.937 134.086 134.51C134.086 135.017 134.209 135.427 134.456 135.74C134.709 136.053 135.026 136.21 135.406 136.21ZM136.786 129.93H137.776V137H136.786V136.23C136.433 136.79 135.916 137.07 135.236 137.07C134.569 137.07 134.043 136.82 133.656 136.32C133.269 135.813 133.076 135.203 133.076 134.49C133.076 133.697 133.279 133.06 133.686 132.58C134.093 132.1 134.616 131.86 135.256 131.86C135.916 131.86 136.426 132.14 136.786 132.7V129.93ZM141.827 134.74H141.067C140.693 134.74 140.41 134.813 140.217 134.96C140.03 135.107 139.937 135.293 139.937 135.52C139.937 135.753 140.01 135.937 140.157 136.07C140.303 136.203 140.517 136.27 140.797 136.27C141.117 136.27 141.367 136.183 141.547 136.01C141.733 135.83 141.827 135.597 141.827 135.31V134.74ZM139.277 133.14V132.19C139.67 131.963 140.19 131.85 140.837 131.85C142.163 131.85 142.827 132.493 142.827 133.78V137H141.857V136.4C141.597 136.827 141.14 137.04 140.487 137.04C140.007 137.04 139.62 136.903 139.327 136.63C139.04 136.35 138.897 135.997 138.897 135.57C138.897 135.083 139.08 134.707 139.447 134.44C139.813 134.167 140.327 134.03 140.987 134.03H141.827V133.74C141.827 133.393 141.743 133.133 141.577 132.96C141.41 132.78 141.133 132.69 140.747 132.69C140.207 132.69 139.717 132.84 139.277 133.14ZM47.28 166.44V162.26H48.31V166.42C48.31 167.293 48.0833 167.957 47.63 168.41C47.1767 168.863 46.55 169.09 45.75 169.09C44.9633 169.09 44.3433 168.87 43.89 168.43C43.4367 167.983 43.21 167.34 43.21 166.5V162.26H44.24V166.49C44.24 167.063 44.3767 167.483 44.65 167.75C44.93 168.01 45.2967 168.14 45.75 168.14C46.77 168.14 47.28 167.573 47.28 166.44ZM50.6934 163.93V164.8C50.9934 164.173 51.5201 163.86 52.2734 163.86C52.7734 163.86 53.1701 164.013 53.4634 164.32C53.7568 164.627 53.9034 165.043 53.9034 165.57V169H52.9234V165.8C52.9234 165.447 52.8334 165.177 52.6534 164.99C52.4801 164.803 52.2468 164.71 51.9534 164.71C51.6068 164.71 51.3101 164.847 51.0634 165.12C50.8168 165.387 50.6934 165.763 50.6934 166.25V169H49.7134V163.93H50.6934ZM55.2613 169V163.93H56.2513V169H55.2613ZM55.3113 162.82C55.1979 162.7 55.1413 162.553 55.1413 162.38C55.1413 162.207 55.1979 162.06 55.3113 161.94C55.4313 161.82 55.5779 161.76 55.7513 161.76C55.9246 161.76 56.0713 161.82 56.1913 161.94C56.3113 162.06 56.3713 162.207 56.3713 162.38C56.3713 162.547 56.3113 162.69 56.1913 162.81C56.0713 162.93 55.9246 162.99 55.7513 162.99C55.5779 162.99 55.4313 162.933 55.3113 162.82ZM58.9724 169L57.1724 163.93H58.2024L58.8924 166.07C59.0524 166.563 59.1858 166.99 59.2924 167.35C59.4058 167.71 59.4758 167.947 59.5024 168.06L59.5424 168.23C59.6024 167.903 59.8224 167.183 60.2024 166.07L60.9124 163.93H61.9324L60.0924 169H58.9724ZM65.9591 166.1V165.92C65.9458 165.54 65.8425 165.24 65.6491 165.02C65.4558 164.793 65.1791 164.68 64.8191 164.68C64.4858 164.68 64.1991 164.803 63.9591 165.05C63.7191 165.29 63.5691 165.64 63.5091 166.1H65.9591ZM66.5891 167.85V168.73C66.2158 168.943 65.7225 169.05 65.1091 169.05C64.3225 169.05 63.6958 168.813 63.2291 168.34C62.7625 167.867 62.5291 167.247 62.5291 166.48C62.5291 165.667 62.7425 165.03 63.1691 164.57C63.5958 164.103 64.1391 163.87 64.7991 163.87C65.4458 163.87 65.9591 164.073 66.3391 164.48C66.7191 164.88 66.9091 165.46 66.9091 166.22C66.9091 166.427 66.8891 166.643 66.8491 166.87H63.5191C63.5858 167.31 63.7725 167.647 64.0791 167.88C64.3858 168.113 64.7725 168.23 65.2391 168.23C65.7791 168.23 66.2291 168.103 66.5891 167.85ZM69.043 163.93V164.82C69.2897 164.193 69.733 163.88 70.373 163.88C70.4664 163.88 70.5697 163.89 70.683 163.91V164.87C70.543 164.81 70.3864 164.78 70.213 164.78C69.873 164.78 69.593 164.93 69.373 165.23C69.153 165.53 69.043 165.887 69.043 166.3V169H68.063V163.93H69.043ZM74.3417 164.1V164.99C74.0151 164.797 73.5951 164.7 73.0817 164.7C72.8484 164.7 72.6617 164.753 72.5217 164.86C72.3884 164.967 72.3217 165.107 72.3217 165.28C72.3217 165.327 72.3251 165.373 72.3317 165.42C72.3451 165.46 72.3651 165.503 72.3917 165.55C72.4184 165.59 72.4417 165.627 72.4617 165.66C72.4884 165.687 72.5284 165.717 72.5817 165.75C72.6351 165.783 72.6751 165.813 72.7017 165.84C72.7351 165.86 72.7851 165.887 72.8517 165.92C72.9251 165.953 72.9784 165.98 73.0117 166C73.0451 166.013 73.1017 166.04 73.1817 166.08C73.2684 166.113 73.3284 166.137 73.3617 166.15C73.7551 166.323 74.0617 166.52 74.2817 166.74C74.5084 166.953 74.6217 167.24 74.6217 167.6C74.6217 168.053 74.4617 168.41 74.1417 168.67C73.8217 168.923 73.3884 169.05 72.8417 169.05C72.2417 169.05 71.7417 168.95 71.3417 168.75V167.82C71.8084 168.107 72.2917 168.25 72.7917 168.25C73.0517 168.25 73.2517 168.197 73.3917 168.09C73.5384 167.983 73.6117 167.843 73.6117 167.67C73.6117 167.523 73.5551 167.393 73.4417 167.28C73.3284 167.16 73.2117 167.073 73.0917 167.02C72.9784 166.96 72.7817 166.87 72.5017 166.75C71.7084 166.423 71.3117 165.943 71.3117 165.31C71.3117 164.863 71.4784 164.513 71.8117 164.26C72.1451 164.007 72.5617 163.88 73.0617 163.88C73.6084 163.88 74.0351 163.953 74.3417 164.1ZM75.6812 169V163.93H76.6712V169H75.6812ZM75.7312 162.82C75.6178 162.7 75.5612 162.553 75.5612 162.38C75.5612 162.207 75.6178 162.06 75.7312 161.94C75.8512 161.82 75.9978 161.76 76.1712 161.76C76.3445 161.76 76.4912 161.82 76.6112 161.94C76.7312 162.06 76.7912 162.207 76.7912 162.38C76.7912 162.547 76.7312 162.69 76.6112 162.81C76.4912 162.93 76.3445 162.99 76.1712 162.99C75.9978 162.99 75.8512 162.933 75.7312 162.82ZM79.3623 164.69V167.48C79.3623 167.967 79.5957 168.21 80.0623 168.21C80.3357 168.21 80.5657 168.137 80.7523 167.99V168.87C80.5323 168.99 80.2623 169.05 79.9423 169.05C78.8957 169.05 78.3723 168.52 78.3723 167.46V164.69H77.5823V163.93H78.3723V162.69H79.3623V163.93H80.6923V164.69H79.3623ZM84.5026 166.74H83.7426C83.3692 166.74 83.0859 166.813 82.8926 166.96C82.7059 167.107 82.6126 167.293 82.6126 167.52C82.6126 167.753 82.6859 167.937 82.8326 168.07C82.9792 168.203 83.1926 168.27 83.4726 168.27C83.7926 168.27 84.0426 168.183 84.2226 168.01C84.4092 167.83 84.5026 167.597 84.5026 167.31V166.74ZM81.9526 165.14V164.19C82.3459 163.963 82.8659 163.85 83.5126 163.85C84.8392 163.85 85.5026 164.493 85.5026 165.78V169H84.5326V168.4C84.2726 168.827 83.8159 169.04 83.1626 169.04C82.6826 169.04 82.2959 168.903 82.0026 168.63C81.7159 168.35 81.5726 167.997 81.5726 167.57C81.5726 167.083 81.7559 166.707 82.1226 166.44C82.4892 166.167 83.0026 166.03 83.6626 166.03H84.5026V165.74C84.5026 165.393 84.4192 165.133 84.2526 164.96C84.0859 164.78 83.8092 164.69 83.4226 164.69C82.8826 164.69 82.3926 164.84 81.9526 165.14ZM89.7128 164.1V164.99C89.3861 164.797 88.9661 164.7 88.4528 164.7C88.2195 164.7 88.0328 164.753 87.8928 164.86C87.7595 164.967 87.6928 165.107 87.6928 165.28C87.6928 165.327 87.6961 165.373 87.7028 165.42C87.7161 165.46 87.7361 165.503 87.7628 165.55C87.7895 165.59 87.8128 165.627 87.8328 165.66C87.8595 165.687 87.8995 165.717 87.9528 165.75C88.0061 165.783 88.0461 165.813 88.0728 165.84C88.1061 165.86 88.1561 165.887 88.2228 165.92C88.2961 165.953 88.3495 165.98 88.3828 166C88.4161 166.013 88.4728 166.04 88.5528 166.08C88.6395 166.113 88.6995 166.137 88.7328 166.15C89.1261 166.323 89.4328 166.52 89.6528 166.74C89.8795 166.953 89.9928 167.24 89.9928 167.6C89.9928 168.053 89.8328 168.41 89.5128 168.67C89.1928 168.923 88.7595 169.05 88.2128 169.05C87.6128 169.05 87.1128 168.95 86.7128 168.75V167.82C87.1795 168.107 87.6628 168.25 88.1628 168.25C88.4228 168.25 88.6228 168.197 88.7628 168.09C88.9095 167.983 88.9828 167.843 88.9828 167.67C88.9828 167.523 88.9261 167.393 88.8128 167.28C88.6995 167.16 88.5828 167.073 88.4628 167.02C88.3495 166.96 88.1528 166.87 87.8728 166.75C87.0795 166.423 86.6828 165.943 86.6828 165.31C86.6828 164.863 86.8495 164.513 87.1828 164.26C87.5161 164.007 87.9328 163.88 88.4328 163.88C88.9795 163.88 89.4061 163.953 89.7128 164.1ZM93.5132 169V162.26H94.7332L96.3932 165.08C96.6999 165.607 96.9765 166.093 97.2232 166.54C97.4765 166.987 97.6499 167.3 97.7432 167.48L97.8832 167.76C97.8432 167.153 97.8232 166.263 97.8232 165.09V162.26H98.8532V169H97.6332L95.9632 166.19C95.6632 165.683 95.3865 165.207 95.1332 164.76C94.8865 164.307 94.7132 163.98 94.6132 163.78L94.4632 163.49C94.5165 164.157 94.5432 165.053 94.5432 166.18V169H93.5132ZM103.42 166.1V165.92C103.407 165.54 103.303 165.24 103.11 165.02C102.917 164.793 102.64 164.68 102.28 164.68C101.947 164.68 101.66 164.803 101.42 165.05C101.18 165.29 101.03 165.64 100.97 166.1H103.42ZM104.05 167.85V168.73C103.677 168.943 103.183 169.05 102.57 169.05C101.783 169.05 101.157 168.813 100.69 168.34C100.223 167.867 99.9901 167.247 99.9901 166.48C99.9901 165.667 100.203 165.03 100.63 164.57C101.057 164.103 101.6 163.87 102.26 163.87C102.907 163.87 103.42 164.073 103.8 164.48C104.18 164.88 104.37 165.46 104.37 166.22C104.37 166.427 104.35 166.643 104.31 166.87H100.98C101.047 167.31 101.233 167.647 101.54 167.88C101.847 168.113 102.233 168.23 102.7 168.23C103.24 168.23 103.69 168.103 104.05 167.85ZM107.524 168.02C107.871 168.02 108.171 167.887 108.424 167.62C108.684 167.347 108.814 166.967 108.814 166.48C108.814 165.88 108.691 165.437 108.444 165.15C108.204 164.863 107.911 164.72 107.564 164.72C107.171 164.72 106.861 164.877 106.634 165.19C106.407 165.497 106.294 165.903 106.294 166.41C106.294 166.937 106.414 167.337 106.654 167.61C106.901 167.883 107.191 168.02 107.524 168.02ZM108.814 163.93H109.794V168.57C109.794 169.35 109.571 169.937 109.124 170.33C108.684 170.73 108.117 170.93 107.424 170.93C106.771 170.93 106.221 170.82 105.774 170.6V169.61C106.201 169.89 106.717 170.03 107.324 170.03C108.317 170.03 108.814 169.54 108.814 168.56V168.04C108.487 168.587 107.997 168.86 107.344 168.86C106.771 168.86 106.281 168.65 105.874 168.23C105.467 167.803 105.264 167.203 105.264 166.43C105.264 165.683 105.454 165.07 105.834 164.59C106.214 164.103 106.717 163.86 107.344 163.86C108.017 163.86 108.507 164.147 108.814 164.72V163.93ZM114.26 166.1V165.92C114.247 165.54 114.143 165.24 113.95 165.02C113.757 164.793 113.48 164.68 113.12 164.68C112.787 164.68 112.5 164.803 112.26 165.05C112.02 165.29 111.87 165.64 111.81 166.1H114.26ZM114.89 167.85V168.73C114.517 168.943 114.023 169.05 113.41 169.05C112.623 169.05 111.997 168.813 111.53 168.34C111.063 167.867 110.83 167.247 110.83 166.48C110.83 165.667 111.043 165.03 111.47 164.57C111.897 164.103 112.44 163.87 113.1 163.87C113.747 163.87 114.26 164.073 114.64 164.48C115.02 164.88 115.21 165.46 115.21 166.22C115.21 166.427 115.19 166.643 115.15 166.87H111.82C111.887 167.31 112.073 167.647 112.38 167.88C112.687 168.113 113.073 168.23 113.54 168.23C114.08 168.23 114.53 168.103 114.89 167.85ZM117.344 163.93V164.82C117.59 164.193 118.034 163.88 118.674 163.88C118.767 163.88 118.87 163.89 118.984 163.91V164.87C118.844 164.81 118.687 164.78 118.514 164.78C118.174 164.78 117.894 164.93 117.674 165.23C117.454 165.53 117.344 165.887 117.344 166.3V169H116.364V163.93H117.344ZM119.793 169V163.93H120.783V169H119.793ZM119.843 162.82C119.729 162.7 119.673 162.553 119.673 162.38C119.673 162.207 119.729 162.06 119.843 161.94C119.963 161.82 120.109 161.76 120.283 161.76C120.456 161.76 120.603 161.82 120.723 161.94C120.843 162.06 120.903 162.207 120.903 162.38C120.903 162.547 120.843 162.69 120.723 162.81C120.603 162.93 120.456 162.99 120.283 162.99C120.109 162.99 119.963 162.933 119.843 162.82ZM47.28 198.44V194.26H48.31V198.42C48.31 199.293 48.0833 199.957 47.63 200.41C47.1767 200.863 46.55 201.09 45.75 201.09C44.9633 201.09 44.3433 200.87 43.89 200.43C43.4367 199.983 43.21 199.34 43.21 198.5V194.26H44.24V198.49C44.24 199.063 44.3767 199.483 44.65 199.75C44.93 200.01 45.2967 200.14 45.75 200.14C46.77 200.14 47.28 199.573 47.28 198.44ZM50.6934 195.93V196.8C50.9934 196.173 51.5201 195.86 52.2734 195.86C52.7734 195.86 53.1701 196.013 53.4634 196.32C53.7568 196.627 53.9034 197.043 53.9034 197.57V201H52.9234V197.8C52.9234 197.447 52.8334 197.177 52.6534 196.99C52.4801 196.803 52.2468 196.71 51.9534 196.71C51.6068 196.71 51.3101 196.847 51.0634 197.12C50.8168 197.387 50.6934 197.763 50.6934 198.25V201H49.7134V195.93H50.6934ZM55.2613 201V195.93H56.2513V201H55.2613ZM55.3113 194.82C55.1979 194.7 55.1413 194.553 55.1413 194.38C55.1413 194.207 55.1979 194.06 55.3113 193.94C55.4313 193.82 55.5779 193.76 55.7513 193.76C55.9246 193.76 56.0713 193.82 56.1913 193.94C56.3113 194.06 56.3713 194.207 56.3713 194.38C56.3713 194.547 56.3113 194.69 56.1913 194.81C56.0713 194.93 55.9246 194.99 55.7513 194.99C55.5779 194.99 55.4313 194.933 55.3113 194.82ZM58.9724 201L57.1724 195.93H58.2024L58.8924 198.07C59.0524 198.563 59.1858 198.99 59.2924 199.35C59.4058 199.71 59.4758 199.947 59.5024 200.06L59.5424 200.23C59.6024 199.903 59.8224 199.183 60.2024 198.07L60.9124 195.93H61.9324L60.0924 201H58.9724ZM65.9591 198.1V197.92C65.9458 197.54 65.8425 197.24 65.6491 197.02C65.4558 196.793 65.1791 196.68 64.8191 196.68C64.4858 196.68 64.1991 196.803 63.9591 197.05C63.7191 197.29 63.5691 197.64 63.5091 198.1H65.9591ZM66.5891 199.85V200.73C66.2158 200.943 65.7225 201.05 65.1091 201.05C64.3225 201.05 63.6958 200.813 63.2291 200.34C62.7625 199.867 62.5291 199.247 62.5291 198.48C62.5291 197.667 62.7425 197.03 63.1691 196.57C63.5958 196.103 64.1391 195.87 64.7991 195.87C65.4458 195.87 65.9591 196.073 66.3391 196.48C66.7191 196.88 66.9091 197.46 66.9091 198.22C66.9091 198.427 66.8891 198.643 66.8491 198.87H63.5191C63.5858 199.31 63.7725 199.647 64.0791 199.88C64.3858 200.113 64.7725 200.23 65.2391 200.23C65.7791 200.23 66.2291 200.103 66.5891 199.85ZM69.043 195.93V196.82C69.2897 196.193 69.733 195.88 70.373 195.88C70.4664 195.88 70.5697 195.89 70.683 195.91V196.87C70.543 196.81 70.3864 196.78 70.213 196.78C69.873 196.78 69.593 196.93 69.373 197.23C69.153 197.53 69.043 197.887 69.043 198.3V201H68.063V195.93H69.043ZM74.3417 196.1V196.99C74.0151 196.797 73.5951 196.7 73.0817 196.7C72.8484 196.7 72.6617 196.753 72.5217 196.86C72.3884 196.967 72.3217 197.107 72.3217 197.28C72.3217 197.327 72.3251 197.373 72.3317 197.42C72.3451 197.46 72.3651 197.503 72.3917 197.55C72.4184 197.59 72.4417 197.627 72.4617 197.66C72.4884 197.687 72.5284 197.717 72.5817 197.75C72.6351 197.783 72.6751 197.813 72.7017 197.84C72.7351 197.86 72.7851 197.887 72.8517 197.92C72.9251 197.953 72.9784 197.98 73.0117 198C73.0451 198.013 73.1017 198.04 73.1817 198.08C73.2684 198.113 73.3284 198.137 73.3617 198.15C73.7551 198.323 74.0617 198.52 74.2817 198.74C74.5084 198.953 74.6217 199.24 74.6217 199.6C74.6217 200.053 74.4617 200.41 74.1417 200.67C73.8217 200.923 73.3884 201.05 72.8417 201.05C72.2417 201.05 71.7417 200.95 71.3417 200.75V199.82C71.8084 200.107 72.2917 200.25 72.7917 200.25C73.0517 200.25 73.2517 200.197 73.3917 200.09C73.5384 199.983 73.6117 199.843 73.6117 199.67C73.6117 199.523 73.5551 199.393 73.4417 199.28C73.3284 199.16 73.2117 199.073 73.0917 199.02C72.9784 198.96 72.7817 198.87 72.5017 198.75C71.7084 198.423 71.3117 197.943 71.3117 197.31C71.3117 196.863 71.4784 196.513 71.8117 196.26C72.1451 196.007 72.5617 195.88 73.0617 195.88C73.6084 195.88 74.0351 195.953 74.3417 196.1ZM75.6812 201V195.93H76.6712V201H75.6812ZM75.7312 194.82C75.6178 194.7 75.5612 194.553 75.5612 194.38C75.5612 194.207 75.6178 194.06 75.7312 193.94C75.8512 193.82 75.9978 193.76 76.1712 193.76C76.3445 193.76 76.4912 193.82 76.6112 193.94C76.7312 194.06 76.7912 194.207 76.7912 194.38C76.7912 194.547 76.7312 194.69 76.6112 194.81C76.4912 194.93 76.3445 194.99 76.1712 194.99C75.9978 194.99 75.8512 194.933 75.7312 194.82ZM79.3623 196.69V199.48C79.3623 199.967 79.5957 200.21 80.0623 200.21C80.3357 200.21 80.5657 200.137 80.7523 199.99V200.87C80.5323 200.99 80.2623 201.05 79.9423 201.05C78.8957 201.05 78.3723 200.52 78.3723 199.46V196.69H77.5823V195.93H78.3723V194.69H79.3623V195.93H80.6923V196.69H79.3623ZM84.5026 198.74H83.7426C83.3692 198.74 83.0859 198.813 82.8926 198.96C82.7059 199.107 82.6126 199.293 82.6126 199.52C82.6126 199.753 82.6859 199.937 82.8326 200.07C82.9792 200.203 83.1926 200.27 83.4726 200.27C83.7926 200.27 84.0426 200.183 84.2226 200.01C84.4092 199.83 84.5026 199.597 84.5026 199.31V198.74ZM81.9526 197.14V196.19C82.3459 195.963 82.8659 195.85 83.5126 195.85C84.8392 195.85 85.5026 196.493 85.5026 197.78V201H84.5326V200.4C84.2726 200.827 83.8159 201.04 83.1626 201.04C82.6826 201.04 82.2959 200.903 82.0026 200.63C81.7159 200.35 81.5726 199.997 81.5726 199.57C81.5726 199.083 81.7559 198.707 82.1226 198.44C82.4892 198.167 83.0026 198.03 83.6626 198.03H84.5026V197.74C84.5026 197.393 84.4192 197.133 84.2526 196.96C84.0859 196.78 83.8092 196.69 83.4226 196.69C82.8826 196.69 82.3926 196.84 81.9526 197.14ZM89.7128 196.1V196.99C89.3861 196.797 88.9661 196.7 88.4528 196.7C88.2195 196.7 88.0328 196.753 87.8928 196.86C87.7595 196.967 87.6928 197.107 87.6928 197.28C87.6928 197.327 87.6961 197.373 87.7028 197.42C87.7161 197.46 87.7361 197.503 87.7628 197.55C87.7895 197.59 87.8128 197.627 87.8328 197.66C87.8595 197.687 87.8995 197.717 87.9528 197.75C88.0061 197.783 88.0461 197.813 88.0728 197.84C88.1061 197.86 88.1561 197.887 88.2228 197.92C88.2961 197.953 88.3495 197.98 88.3828 198C88.4161 198.013 88.4728 198.04 88.5528 198.08C88.6395 198.113 88.6995 198.137 88.7328 198.15C89.1261 198.323 89.4328 198.52 89.6528 198.74C89.8795 198.953 89.9928 199.24 89.9928 199.6C89.9928 200.053 89.8328 200.41 89.5128 200.67C89.1928 200.923 88.7595 201.05 88.2128 201.05C87.6128 201.05 87.1128 200.95 86.7128 200.75V199.82C87.1795 200.107 87.6628 200.25 88.1628 200.25C88.4228 200.25 88.6228 200.197 88.7628 200.09C88.9095 199.983 88.9828 199.843 88.9828 199.67C88.9828 199.523 88.9261 199.393 88.8128 199.28C88.6995 199.16 88.5828 199.073 88.4628 199.02C88.3495 198.96 88.1528 198.87 87.8728 198.75C87.0795 198.423 86.6828 197.943 86.6828 197.31C86.6828 196.863 86.8495 196.513 87.1828 196.26C87.5161 196.007 87.9328 195.88 88.4328 195.88C88.9795 195.88 89.4061 195.953 89.7128 196.1ZM97.1532 194.53V195.55C96.7065 195.27 96.1999 195.13 95.6332 195.13C95.2665 195.13 94.9765 195.213 94.7632 195.38C94.5565 195.54 94.4532 195.753 94.4532 196.02C94.4532 196.287 94.5565 196.5 94.7632 196.66C94.9699 196.82 95.2865 196.993 95.7132 197.18C95.9932 197.3 96.2099 197.403 96.3632 197.49C96.5232 197.577 96.7032 197.7 96.9032 197.86C97.1099 198.013 97.2599 198.2 97.3532 198.42C97.4532 198.633 97.5032 198.88 97.5032 199.16C97.5032 199.753 97.2932 200.22 96.8732 200.56C96.4532 200.9 95.9099 201.07 95.2432 201.07C94.5032 201.07 93.8899 200.927 93.4032 200.64V199.57C93.9299 199.963 94.5399 200.16 95.2332 200.16C95.5999 200.16 95.8899 200.077 96.1032 199.91C96.3165 199.737 96.4232 199.5 96.4232 199.2C96.4232 199.02 96.3599 198.857 96.2332 198.71C96.1065 198.557 95.9699 198.443 95.8232 198.37C95.6765 198.29 95.4565 198.183 95.1632 198.05C94.9899 197.97 94.8665 197.913 94.7932 197.88C94.7265 197.847 94.6132 197.787 94.4532 197.7C94.2932 197.613 94.1732 197.54 94.0932 197.48C94.0199 197.42 93.9265 197.337 93.8132 197.23C93.6999 197.123 93.6165 197.017 93.5632 196.91C93.5165 196.803 93.4699 196.68 93.4232 196.54C93.3832 196.393 93.3632 196.237 93.3632 196.07C93.3632 195.497 93.5699 195.043 93.9832 194.71C94.4032 194.377 94.9432 194.21 95.6032 194.21C96.2099 194.21 96.7265 194.317 97.1532 194.53ZM99.778 201L98.188 195.93H99.228L99.698 197.61C99.8514 198.143 99.9814 198.613 100.088 199.02C100.195 199.427 100.261 199.7 100.288 199.84L100.328 200.05C100.415 199.63 100.635 198.813 100.988 197.6L101.478 195.93H102.428L102.928 197.6C103.088 198.153 103.225 198.637 103.338 199.05C103.451 199.457 103.525 199.727 103.558 199.86L103.598 200.06C103.678 199.667 103.905 198.847 104.278 197.6L104.778 195.93H105.768L104.158 201H103.038L102.568 199.34C102.428 198.833 102.305 198.387 102.198 198C102.098 197.607 102.031 197.34 101.998 197.2L101.958 197C101.865 197.433 101.661 198.213 101.348 199.34L100.888 201H99.778ZM109.317 198.74H108.557C108.184 198.74 107.9 198.813 107.707 198.96C107.52 199.107 107.427 199.293 107.427 199.52C107.427 199.753 107.5 199.937 107.647 200.07C107.794 200.203 108.007 200.27 108.287 200.27C108.607 200.27 108.857 200.183 109.037 200.01C109.224 199.83 109.317 199.597 109.317 199.31V198.74ZM106.767 197.14V196.19C107.16 195.963 107.68 195.85 108.327 195.85C109.654 195.85 110.317 196.493 110.317 197.78V201H109.347V200.4C109.087 200.827 108.63 201.04 107.977 201.04C107.497 201.04 107.11 200.903 106.817 200.63C106.53 200.35 106.387 199.997 106.387 199.57C106.387 199.083 106.57 198.707 106.937 198.44C107.304 198.167 107.817 198.03 108.477 198.03H109.317V197.74C109.317 197.393 109.234 197.133 109.067 196.96C108.9 196.78 108.624 196.69 108.237 196.69C107.697 196.69 107.207 196.84 106.767 197.14ZM114.527 196.1V196.99C114.201 196.797 113.781 196.7 113.267 196.7C113.034 196.7 112.847 196.753 112.707 196.86C112.574 196.967 112.507 197.107 112.507 197.28C112.507 197.327 112.511 197.373 112.517 197.42C112.531 197.46 112.551 197.503 112.577 197.55C112.604 197.59 112.627 197.627 112.647 197.66C112.674 197.687 112.714 197.717 112.767 197.75C112.821 197.783 112.861 197.813 112.887 197.84C112.921 197.86 112.971 197.887 113.037 197.92C113.111 197.953 113.164 197.98 113.197 198C113.231 198.013 113.287 198.04 113.367 198.08C113.454 198.113 113.514 198.137 113.547 198.15C113.941 198.323 114.247 198.52 114.467 198.74C114.694 198.953 114.807 199.24 114.807 199.6C114.807 200.053 114.647 200.41 114.327 200.67C114.007 200.923 113.574 201.05 113.027 201.05C112.427 201.05 111.927 200.95 111.527 200.75V199.82C111.994 200.107 112.477 200.25 112.977 200.25C113.237 200.25 113.437 200.197 113.577 200.09C113.724 199.983 113.797 199.843 113.797 199.67C113.797 199.523 113.741 199.393 113.627 199.28C113.514 199.16 113.397 199.073 113.277 199.02C113.164 198.96 112.967 198.87 112.687 198.75C111.894 198.423 111.497 197.943 111.497 197.31C111.497 196.863 111.664 196.513 111.997 196.26C112.331 196.007 112.747 195.88 113.247 195.88C113.794 195.88 114.221 195.953 114.527 196.1ZM117.097 196.69V199.48C117.097 199.967 117.33 200.21 117.797 200.21C118.07 200.21 118.3 200.137 118.487 199.99V200.87C118.267 200.99 117.997 201.05 117.677 201.05C116.63 201.05 116.107 200.52 116.107 199.46V196.69H115.317V195.93H116.107V194.69H117.097V195.93H118.427V196.69H117.097ZM122.237 198.74H121.477C121.104 198.74 120.82 198.813 120.627 198.96C120.44 199.107 120.347 199.293 120.347 199.52C120.347 199.753 120.42 199.937 120.567 200.07C120.714 200.203 120.927 200.27 121.207 200.27C121.527 200.27 121.777 200.183 121.957 200.01C122.144 199.83 122.237 199.597 122.237 199.31V198.74ZM119.687 197.14V196.19C120.08 195.963 120.6 195.85 121.247 195.85C122.574 195.85 123.237 196.493 123.237 197.78V201H122.267V200.4C122.007 200.827 121.55 201.04 120.897 201.04C120.417 201.04 120.03 200.903 119.737 200.63C119.45 200.35 119.307 199.997 119.307 199.57C119.307 199.083 119.49 198.707 119.857 198.44C120.224 198.167 120.737 198.03 121.397 198.03H122.237V197.74C122.237 197.393 122.154 197.133 121.987 196.96C121.82 196.78 121.544 196.69 121.157 196.69C120.617 196.69 120.127 196.84 119.687 197.14Z" fill="#2B2B2B"/>
<path d="M44.26 179.12V181.58H45.19C45.6167 181.58 45.94 181.47 46.16 181.25C46.38 181.023 46.49 180.723 46.49 180.35C46.49 179.53 46.04 179.12 45.14 179.12H44.26ZM46.73 185L45.15 182.44H44.26V185H43.23V178.26H45.11C45.8833 178.26 46.48 178.45 46.9 178.83C47.32 179.203 47.53 179.713 47.53 180.36C47.5233 180.833 47.4033 181.237 47.17 181.57C46.9367 181.897 46.6133 182.133 46.2 182.28L47.96 185H46.73ZM51.2136 184.21C51.6069 184.21 51.9303 184.057 52.1836 183.75C52.4369 183.437 52.5636 183 52.5636 182.44C52.5636 181.913 52.4403 181.497 52.1936 181.19C51.9469 180.877 51.6336 180.72 51.2536 180.72C50.8736 180.72 50.5436 180.86 50.2636 181.14C49.9903 181.413 49.8536 181.85 49.8536 182.45C49.8536 183.037 49.9903 183.477 50.2636 183.77C50.5436 184.063 50.8603 184.21 51.2136 184.21ZM49.8536 179.93V180.71C50.2003 180.143 50.7203 179.86 51.4136 179.86C52.0803 179.86 52.6069 180.103 52.9936 180.59C53.3803 181.07 53.5736 181.683 53.5736 182.43C53.5736 183.197 53.3736 183.83 52.9736 184.33C52.5803 184.823 52.0536 185.07 51.3936 185.07C50.7203 185.07 50.2069 184.79 49.8536 184.23V186.94H48.8736V179.93H49.8536ZM56.8553 181.71C56.8553 180.683 57.0586 179.87 57.4653 179.27C57.8786 178.663 58.442 178.36 59.1553 178.36C59.882 178.36 60.452 178.66 60.8653 179.26C61.2786 179.86 61.4853 180.677 61.4853 181.71C61.4853 182.73 61.282 183.547 60.8753 184.16C60.4753 184.773 59.902 185.08 59.1553 185.08C58.442 185.08 57.8786 184.773 57.4653 184.16C57.0586 183.547 56.8553 182.73 56.8553 181.71ZM58.2253 179.91C57.9786 180.33 57.8553 180.93 57.8553 181.71C57.8553 182.49 57.9753 183.097 58.2153 183.53C58.462 183.957 58.7753 184.17 59.1553 184.17C59.5686 184.17 59.892 183.957 60.1253 183.53C60.3586 183.103 60.4753 182.497 60.4753 181.71C60.4753 180.917 60.352 180.313 60.1053 179.9C59.8653 179.48 59.5486 179.27 59.1553 179.27C58.782 179.27 58.472 179.483 58.2253 179.91ZM61.8145 186.24L62.7745 183.9H63.9845L62.6745 186.24H61.8145ZM64.7557 181.71C64.7557 180.683 64.959 179.87 65.3657 179.27C65.779 178.663 66.3424 178.36 67.0557 178.36C67.7824 178.36 68.3524 178.66 68.7657 179.26C69.179 179.86 69.3857 180.677 69.3857 181.71C69.3857 182.73 69.1824 183.547 68.7757 184.16C68.3757 184.773 67.8024 185.08 67.0557 185.08C66.3424 185.08 65.779 184.773 65.3657 184.16C64.959 183.547 64.7557 182.73 64.7557 181.71ZM66.1257 179.91C65.879 180.33 65.7557 180.93 65.7557 181.71C65.7557 182.49 65.8757 183.097 66.1157 183.53C66.3624 183.957 66.6757 184.17 67.0557 184.17C67.469 184.17 67.7924 183.957 68.0257 183.53C68.259 183.103 68.3757 182.497 68.3757 181.71C68.3757 180.917 68.2524 180.313 68.0057 179.9C67.7657 179.48 67.449 179.27 67.0557 179.27C66.6824 179.27 66.3724 179.483 66.1257 179.91ZM70.2049 181.71C70.2049 180.683 70.4083 179.87 70.8149 179.27C71.2283 178.663 71.7916 178.36 72.5049 178.36C73.2316 178.36 73.8016 178.66 74.2149 179.26C74.6283 179.86 74.8349 180.677 74.8349 181.71C74.8349 182.73 74.6316 183.547 74.2249 184.16C73.8249 184.773 73.2516 185.08 72.5049 185.08C71.7916 185.08 71.2283 184.773 70.8149 184.16C70.4083 183.547 70.2049 182.73 70.2049 181.71ZM71.5749 179.91C71.3283 180.33 71.2049 180.93 71.2049 181.71C71.2049 182.49 71.3249 183.097 71.5649 183.53C71.8116 183.957 72.1249 184.17 72.5049 184.17C72.9183 184.17 73.2416 183.957 73.4749 183.53C73.7083 183.103 73.8249 182.497 73.8249 181.71C73.8249 180.917 73.7016 180.313 73.4549 179.9C73.2149 179.48 72.8983 179.27 72.5049 179.27C72.1316 179.27 71.8216 179.483 71.5749 179.91ZM75.6541 181.71C75.6541 180.683 75.8575 179.87 76.2641 179.27C76.6775 178.663 77.2408 178.36 77.9541 178.36C78.6808 178.36 79.2508 178.66 79.6641 179.26C80.0775 179.86 80.2841 180.677 80.2841 181.71C80.2841 182.73 80.0808 183.547 79.6741 184.16C79.2741 184.773 78.7008 185.08 77.9541 185.08C77.2408 185.08 76.6775 184.773 76.2641 184.16C75.8575 183.547 75.6541 182.73 75.6541 181.71ZM77.0241 179.91C76.7775 180.33 76.6541 180.93 76.6541 181.71C76.6541 182.49 76.7741 183.097 77.0141 183.53C77.2608 183.957 77.5741 184.17 77.9541 184.17C78.3675 184.17 78.6908 183.957 78.9241 183.53C79.1575 183.103 79.2741 182.497 79.2741 181.71C79.2741 180.917 79.1508 180.313 78.9041 179.9C78.6641 179.48 78.3475 179.27 77.9541 179.27C77.5808 179.27 77.2708 179.483 77.0241 179.91ZM80.6134 186.24L81.5734 183.9H82.7834L81.4734 186.24H80.6134ZM83.5545 181.71C83.5545 180.683 83.7579 179.87 84.1645 179.27C84.5779 178.663 85.1412 178.36 85.8545 178.36C86.5812 178.36 87.1512 178.66 87.5645 179.26C87.9779 179.86 88.1845 180.677 88.1845 181.71C88.1845 182.73 87.9812 183.547 87.5745 184.16C87.1745 184.773 86.6012 185.08 85.8545 185.08C85.1412 185.08 84.5779 184.773 84.1645 184.16C83.7579 183.547 83.5545 182.73 83.5545 181.71ZM84.9245 179.91C84.6779 180.33 84.5545 180.93 84.5545 181.71C84.5545 182.49 84.6745 183.097 84.9145 183.53C85.1612 183.957 85.4745 184.17 85.8545 184.17C86.2679 184.17 86.5912 183.957 86.8245 183.53C87.0579 183.103 87.1745 182.497 87.1745 181.71C87.1745 180.917 87.0512 180.313 86.8045 179.9C86.5645 179.48 86.2479 179.27 85.8545 179.27C85.4812 179.27 85.1712 179.483 84.9245 179.91ZM89.0038 181.71C89.0038 180.683 89.2071 179.87 89.6138 179.27C90.0271 178.663 90.5904 178.36 91.3038 178.36C92.0304 178.36 92.6004 178.66 93.0138 179.26C93.4271 179.86 93.6338 180.677 93.6338 181.71C93.6338 182.73 93.4304 183.547 93.0238 184.16C92.6238 184.773 92.0504 185.08 91.3038 185.08C90.5904 185.08 90.0271 184.773 89.6138 184.16C89.2071 183.547 89.0038 182.73 89.0038 181.71ZM90.3738 179.91C90.1271 180.33 90.0038 180.93 90.0038 181.71C90.0038 182.49 90.1238 183.097 90.3638 183.53C90.6104 183.957 90.9238 184.17 91.3038 184.17C91.7171 184.17 92.0404 183.957 92.2738 183.53C92.5071 183.103 92.6238 182.497 92.6238 181.71C92.6238 180.917 92.5004 180.313 92.2538 179.9C92.0138 179.48 91.6971 179.27 91.3038 179.27C90.9304 179.27 90.6204 179.483 90.3738 179.91ZM94.453 181.71C94.453 180.683 94.6563 179.87 95.063 179.27C95.4763 178.663 96.0396 178.36 96.753 178.36C97.4796 178.36 98.0496 178.66 98.463 179.26C98.8763 179.86 99.083 180.677 99.083 181.71C99.083 182.73 98.8796 183.547 98.473 184.16C98.073 184.773 97.4996 185.08 96.753 185.08C96.0396 185.08 95.4763 184.773 95.063 184.16C94.6563 183.547 94.453 182.73 94.453 181.71ZM95.823 179.91C95.5763 180.33 95.453 180.93 95.453 181.71C95.453 182.49 95.573 183.097 95.813 183.53C96.0596 183.957 96.373 184.17 96.753 184.17C97.1663 184.17 97.4896 183.957 97.723 183.53C97.9563 183.103 98.073 182.497 98.073 181.71C98.073 180.917 97.9496 180.313 97.703 179.9C97.463 179.48 97.1463 179.27 96.753 179.27C96.3796 179.27 96.0696 179.483 95.823 179.91ZM44.26 211.12V213.58H45.19C45.6167 213.58 45.94 213.47 46.16 213.25C46.38 213.023 46.49 212.723 46.49 212.35C46.49 211.53 46.04 211.12 45.14 211.12H44.26ZM46.73 217L45.15 214.44H44.26V217H43.23V210.26H45.11C45.8833 210.26 46.48 210.45 46.9 210.83C47.32 211.203 47.53 211.713 47.53 212.36C47.5233 212.833 47.4033 213.237 47.17 213.57C46.9367 213.897 46.6133 214.133 46.2 214.28L47.96 217H46.73ZM51.2136 216.21C51.6069 216.21 51.9303 216.057 52.1836 215.75C52.4369 215.437 52.5636 215 52.5636 214.44C52.5636 213.913 52.4403 213.497 52.1936 213.19C51.9469 212.877 51.6336 212.72 51.2536 212.72C50.8736 212.72 50.5436 212.86 50.2636 213.14C49.9903 213.413 49.8536 213.85 49.8536 214.45C49.8536 215.037 49.9903 215.477 50.2636 215.77C50.5436 216.063 50.8603 216.21 51.2136 216.21ZM49.8536 211.93V212.71C50.2003 212.143 50.7203 211.86 51.4136 211.86C52.0803 211.86 52.6069 212.103 52.9936 212.59C53.3803 213.07 53.5736 213.683 53.5736 214.43C53.5736 215.197 53.3736 215.83 52.9736 216.33C52.5803 216.823 52.0536 217.07 51.3936 217.07C50.7203 217.07 50.2069 216.79 49.8536 216.23V218.94H48.8736V211.93H49.8536ZM56.8553 213.71C56.8553 212.683 57.0586 211.87 57.4653 211.27C57.8786 210.663 58.442 210.36 59.1553 210.36C59.882 210.36 60.452 210.66 60.8653 211.26C61.2786 211.86 61.4853 212.677 61.4853 213.71C61.4853 214.73 61.282 215.547 60.8753 216.16C60.4753 216.773 59.902 217.08 59.1553 217.08C58.442 217.08 57.8786 216.773 57.4653 216.16C57.0586 215.547 56.8553 214.73 56.8553 213.71ZM58.2253 211.91C57.9786 212.33 57.8553 212.93 57.8553 213.71C57.8553 214.49 57.9753 215.097 58.2153 215.53C58.462 215.957 58.7753 216.17 59.1553 216.17C59.5686 216.17 59.892 215.957 60.1253 215.53C60.3586 215.103 60.4753 214.497 60.4753 213.71C60.4753 212.917 60.352 212.313 60.1053 211.9C59.8653 211.48 59.5486 211.27 59.1553 211.27C58.782 211.27 58.472 211.483 58.2253 211.91ZM61.8145 218.24L62.7745 215.9H63.9845L62.6745 218.24H61.8145ZM64.7557 213.71C64.7557 212.683 64.959 211.87 65.3657 211.27C65.779 210.663 66.3424 210.36 67.0557 210.36C67.7824 210.36 68.3524 210.66 68.7657 211.26C69.179 211.86 69.3857 212.677 69.3857 213.71C69.3857 214.73 69.1824 215.547 68.7757 216.16C68.3757 216.773 67.8024 217.08 67.0557 217.08C66.3424 217.08 65.779 216.773 65.3657 216.16C64.959 215.547 64.7557 214.73 64.7557 213.71ZM66.1257 211.91C65.879 212.33 65.7557 212.93 65.7557 213.71C65.7557 214.49 65.8757 215.097 66.1157 215.53C66.3624 215.957 66.6757 216.17 67.0557 216.17C67.469 216.17 67.7924 215.957 68.0257 215.53C68.259 215.103 68.3757 214.497 68.3757 213.71C68.3757 212.917 68.2524 212.313 68.0057 211.9C67.7657 211.48 67.449 211.27 67.0557 211.27C66.6824 211.27 66.3724 211.483 66.1257 211.91ZM70.2049 213.71C70.2049 212.683 70.4083 211.87 70.8149 211.27C71.2283 210.663 71.7916 210.36 72.5049 210.36C73.2316 210.36 73.8016 210.66 74.2149 211.26C74.6283 211.86 74.8349 212.677 74.8349 213.71C74.8349 214.73 74.6316 215.547 74.2249 216.16C73.8249 216.773 73.2516 217.08 72.5049 217.08C71.7916 217.08 71.2283 216.773 70.8149 216.16C70.4083 215.547 70.2049 214.73 70.2049 213.71ZM71.5749 211.91C71.3283 212.33 71.2049 212.93 71.2049 213.71C71.2049 214.49 71.3249 215.097 71.5649 215.53C71.8116 215.957 72.1249 216.17 72.5049 216.17C72.9183 216.17 73.2416 215.957 73.4749 215.53C73.7083 215.103 73.8249 214.497 73.8249 213.71C73.8249 212.917 73.7016 212.313 73.4549 211.9C73.2149 211.48 72.8983 211.27 72.5049 211.27C72.1316 211.27 71.8216 211.483 71.5749 211.91ZM75.6541 213.71C75.6541 212.683 75.8575 211.87 76.2641 211.27C76.6775 210.663 77.2408 210.36 77.9541 210.36C78.6808 210.36 79.2508 210.66 79.6641 211.26C80.0775 211.86 80.2841 212.677 80.2841 213.71C80.2841 214.73 80.0808 215.547 79.6741 216.16C79.2741 216.773 78.7008 217.08 77.9541 217.08C77.2408 217.08 76.6775 216.773 76.2641 216.16C75.8575 215.547 75.6541 214.73 75.6541 213.71ZM77.0241 211.91C76.7775 212.33 76.6541 212.93 76.6541 213.71C76.6541 214.49 76.7741 215.097 77.0141 215.53C77.2608 215.957 77.5741 216.17 77.9541 216.17C78.3675 216.17 78.6908 215.957 78.9241 215.53C79.1575 215.103 79.2741 214.497 79.2741 213.71C79.2741 212.917 79.1508 212.313 78.9041 211.9C78.6641 211.48 78.3475 211.27 77.9541 211.27C77.5808 211.27 77.2708 211.483 77.0241 211.91ZM80.6134 218.24L81.5734 215.9H82.7834L81.4734 218.24H80.6134ZM83.5545 213.71C83.5545 212.683 83.7579 211.87 84.1645 211.27C84.5779 210.663 85.1412 210.36 85.8545 210.36C86.5812 210.36 87.1512 210.66 87.5645 211.26C87.9779 211.86 88.1845 212.677 88.1845 213.71C88.1845 214.73 87.9812 215.547 87.5745 216.16C87.1745 216.773 86.6012 217.08 85.8545 217.08C85.1412 217.08 84.5779 216.773 84.1645 216.16C83.7579 215.547 83.5545 214.73 83.5545 213.71ZM84.9245 211.91C84.6779 212.33 84.5545 212.93 84.5545 213.71C84.5545 214.49 84.6745 215.097 84.9145 215.53C85.1612 215.957 85.4745 216.17 85.8545 216.17C86.2679 216.17 86.5912 215.957 86.8245 215.53C87.0579 215.103 87.1745 214.497 87.1745 213.71C87.1745 212.917 87.0512 212.313 86.8045 211.9C86.5645 211.48 86.2479 211.27 85.8545 211.27C85.4812 211.27 85.1712 211.483 84.9245 211.91ZM89.0038 213.71C89.0038 212.683 89.2071 211.87 89.6138 211.27C90.0271 210.663 90.5904 210.36 91.3038 210.36C92.0304 210.36 92.6004 210.66 93.0138 211.26C93.4271 211.86 93.6338 212.677 93.6338 213.71C93.6338 214.73 93.4304 215.547 93.0238 216.16C92.6238 216.773 92.0504 217.08 91.3038 217.08C90.5904 217.08 90.0271 216.773 89.6138 216.16C89.2071 215.547 89.0038 214.73 89.0038 213.71ZM90.3738 211.91C90.1271 212.33 90.0038 212.93 90.0038 213.71C90.0038 214.49 90.1238 215.097 90.3638 215.53C90.6104 215.957 90.9238 216.17 91.3038 216.17C91.7171 216.17 92.0404 215.957 92.2738 215.53C92.5071 215.103 92.6238 214.497 92.6238 213.71C92.6238 212.917 92.5004 212.313 92.2538 211.9C92.0138 211.48 91.6971 211.27 91.3038 211.27C90.9304 211.27 90.6204 211.483 90.3738 211.91ZM94.453 213.71C94.453 212.683 94.6563 211.87 95.063 211.27C95.4763 210.663 96.0396 210.36 96.753 210.36C97.4796 210.36 98.0496 210.66 98.463 211.26C98.8763 211.86 99.083 212.677 99.083 213.71C99.083 214.73 98.8796 215.547 98.473 216.16C98.073 216.773 97.4996 217.08 96.753 217.08C96.0396 217.08 95.4763 216.773 95.063 216.16C94.6563 215.547 94.453 214.73 94.453 213.71ZM95.823 211.91C95.5763 212.33 95.453 212.93 95.453 213.71C95.453 214.49 95.573 215.097 95.813 215.53C96.0596 215.957 96.373 216.17 96.753 216.17C97.1663 216.17 97.4896 215.957 97.723 215.53C97.9563 215.103 98.073 214.497 98.073 213.71C98.073 212.917 97.9496 212.313 97.703 211.9C97.463 211.48 97.1463 211.27 96.753 211.27C96.3796 211.27 96.0696 211.483 95.823 211.91Z" fill="#FF1934"/>
<rect x="43" y="238" width="120" height="24" rx="8" fill="#FF1934"/>
<path d="M92.5797 249.352L93.1477 249.352C93.5157 249.352 93.7904 249.264 93.9717 249.088C94.1531 248.912 94.2437 248.675 94.2437 248.376C94.2437 248.083 94.1531 247.853 93.9717 247.688C93.7904 247.517 93.5237 247.432 93.1717 247.432L92.5797 247.432L92.5797 249.352ZM91.5717 246.608L93.2597 246.608C93.8677 246.608 94.3531 246.773 94.7157 247.104C95.0837 247.435 95.2677 247.859 95.2677 248.376C95.2677 248.925 95.0784 249.363 94.6997 249.688C94.3264 250.008 93.8544 250.168 93.2837 250.168L92.5797 250.168L92.5797 252L91.5717 252L91.5717 246.608ZM99.193 249.936L99.193 246.608L100.201 246.608L100.201 249.928C100.201 250.627 100.012 251.16 99.633 251.528C99.2597 251.891 98.745 252.072 98.089 252.072C97.449 252.072 96.937 251.893 96.553 251.536C96.1744 251.173 95.985 250.656 95.985 249.984L95.985 246.608L96.993 246.608L96.993 249.976C96.993 250.387 97.0944 250.685 97.297 250.872C97.4997 251.053 97.7637 251.144 98.089 251.144C98.825 251.144 99.193 250.741 99.193 249.936ZM104.69 246.608L104.69 247.44L103.322 247.44L103.322 252L102.306 252L102.306 247.44L100.938 247.44L100.938 246.608L104.69 246.608ZM106.815 249.952L108.335 249.952L108.263 249.712C108.081 249.136 107.932 248.653 107.815 248.264C107.703 247.869 107.633 247.621 107.607 247.52L107.575 247.36C107.527 247.627 107.297 248.413 106.887 249.72L106.815 249.952ZM108.975 252L108.591 250.776L106.551 250.776L106.167 252L105.111 252L106.935 246.608L108.239 246.608L110.063 252L108.975 252ZM111.845 247.44L111.845 249.2L112.517 249.2C112.827 249.2 113.059 249.123 113.213 248.968C113.368 248.808 113.445 248.587 113.445 248.304C113.445 248.027 113.363 247.813 113.197 247.664C113.037 247.515 112.805 247.44 112.501 247.44L111.845 247.44ZM113.621 252L112.397 250.032L111.845 250.032L111.845 252L110.837 252L110.837 246.608L112.501 246.608C113.115 246.608 113.595 246.763 113.941 247.072C114.293 247.381 114.469 247.795 114.469 248.312C114.464 248.696 114.371 249.021 114.189 249.288C114.008 249.549 113.76 249.744 113.445 249.872L114.829 252L113.621 252Z" fill="white"/>
<g clip-path="url(#clip1_1124_4113)">
<path d="M295.367 262.133C337.341 262.133 371.367 228.047 371.367 186C371.367 143.953 337.341 109.867 295.367 109.867C253.394 109.867 219.367 143.953 219.367 186C219.367 228.047 253.394 262.133 295.367 262.133Z" fill="white"/>
<path d="M237.162 228.389C245.802 240.308 258.149 249.702 273.212 254.596C288.275 259.49 303.785 259.147 317.781 254.584L295.5 186L237.162 228.389Z" fill="#D9AA16"/>
<path d="M317.788 254.582C331.793 250.047 344.543 241.208 353.852 228.395C363.161 215.582 367.628 200.724 367.613 186.003L295.501 186L317.788 254.582Z" fill="#1699D9"/>
<path d="M367.612 185.997C367.627 171.276 363.16 156.419 353.851 143.606C344.541 130.793 331.792 121.953 317.786 117.418L295.499 186L367.612 185.997Z" fill="#1699D9"/>
<path d="M318.115 117.75C304.119 113.186 288.608 112.843 273.546 117.738C258.483 122.632 246.136 132.026 237.495 143.945L295.834 186.334L318.115 117.75Z" fill="#D9AA16"/>
<path d="M237.158 143.616C228.493 155.517 223.374 170.162 223.374 186C223.374 201.838 228.493 216.483 237.158 228.384L295.5 186L237.158 143.616Z" fill="#1699D9"/>
<path d="M318.261 254.44L296.182 186.501L367.617 186.501C367.617 186.331 367.627 186.17 367.627 186C367.627 185.83 367.617 185.67 367.617 185.499L296.192 185.499L318.261 117.56C317.94 117.45 317.629 117.34 317.309 117.24L295.23 185.189L237.439 143.205C237.239 143.476 237.048 143.746 236.858 144.017L294.639 186L236.858 227.984C237.048 228.254 237.239 228.535 237.439 228.795L295.23 186.812L317.309 254.76C317.629 254.66 317.94 254.54 318.261 254.44Z" fill="white"/>
<g opacity="0.32" style="mix-blend-mode:multiply">
<path d="M367.627 185.874C367.627 146.114 335.387 113.874 295.627 113.874C255.867 113.874 223.627 146.114 223.627 185.874C223.627 225.634 255.867 257.874 295.627 257.874C335.387 257.874 367.627 225.634 367.627 185.874ZM227.627 185.874C227.627 148.314 258.067 117.874 295.627 117.874C333.187 117.874 363.627 148.314 363.627 185.874C363.627 223.434 333.187 253.874 295.627 253.874C258.067 253.874 227.627 223.434 227.627 185.874Z" fill="#2B2B2B"/>
</g>
<path d="M287.515 185.986C287.515 190.404 291.096 193.986 295.515 193.986C299.933 193.986 303.515 190.404 303.515 185.986C303.515 181.568 299.933 177.986 295.515 177.986C291.096 177.986 287.515 181.568 287.515 185.986Z" fill="white"/>
<path d="M274.605 239.065L275.765 239.442C275.326 239.825 275.018 240.286 274.843 240.825C274.746 241.123 274.736 241.379 274.814 241.594C274.894 241.802 275.038 241.94 275.247 242.008C275.456 242.076 275.66 242.044 275.857 241.912C276.05 241.771 276.287 241.547 276.57 241.239C276.766 241.022 276.935 240.849 277.075 240.72C277.209 240.588 277.382 240.455 277.594 240.32C277.808 240.18 278.037 240.1 278.281 240.081C278.521 240.054 278.778 240.085 279.05 240.173C279.621 240.359 280.01 240.713 280.219 241.236C280.423 241.751 280.417 242.342 280.201 243.008C279.966 243.73 279.635 244.285 279.208 244.672L277.981 244.274C278.551 243.856 278.941 243.324 279.151 242.677C279.246 242.385 279.253 242.128 279.171 241.905C279.083 241.68 278.918 241.529 278.677 241.451C278.563 241.413 278.455 241.403 278.351 241.418C278.248 241.434 278.13 241.497 277.995 241.608C277.863 241.712 277.766 241.796 277.703 241.86C277.643 241.917 277.524 242.043 277.349 242.239C277.296 242.292 277.259 242.332 277.236 242.36C277.052 242.559 276.895 242.718 276.765 242.838C276.629 242.955 276.46 243.075 276.259 243.199C276.057 243.323 275.841 243.396 275.609 243.419C275.379 243.435 275.134 243.401 274.875 243.317C274.329 243.14 273.957 242.798 273.757 242.291C273.559 241.778 273.568 241.189 273.784 240.523C273.98 239.921 274.254 239.435 274.605 239.065ZM275.99 234.22L276.305 233.25L278.791 233.333L281.797 233.468C280.967 233.023 280.108 232.527 279.221 231.979L277.051 230.633L277.446 229.415L283.325 233.134L282.874 234.522L280.659 234.444C280.069 234.428 279.549 234.41 279.1 234.39C278.653 234.364 278.353 234.347 278.201 234.34L277.967 234.316C278.382 234.549 279.134 235.039 280.224 235.785L282.055 237.043L281.607 238.422L274.64 238.051L275.051 236.786L277.614 236.956C278.072 236.993 278.545 237.035 279.035 237.081C279.524 237.128 279.898 237.166 280.155 237.193L280.551 237.238C279.818 236.775 278.985 236.231 278.053 235.606L275.99 234.22ZM282.244 228.177L282.831 226.37L282.518 226.363C281.763 226.356 281.131 226.347 280.623 226.336C280.111 226.317 279.789 226.304 279.658 226.296L279.456 226.272C279.754 226.432 280.601 227.009 281.996 228.002L282.244 228.177ZM285.513 226.4L283.909 226.384L283.121 228.809L284.428 229.739L284.02 230.994L278.315 226.743L278.818 225.193L285.933 225.107L285.513 226.4ZM281.247 218.623L282.407 219C281.968 219.383 281.66 219.844 281.485 220.383C281.388 220.681 281.379 220.937 281.456 221.152C281.536 221.36 281.68 221.498 281.889 221.566C282.099 221.634 282.302 221.602 282.499 221.469C282.692 221.329 282.929 221.105 283.212 220.797C283.408 220.58 283.577 220.407 283.717 220.277C283.851 220.146 284.024 220.013 284.236 219.878C284.45 219.737 284.679 219.658 284.923 219.639C285.163 219.612 285.42 219.643 285.692 219.731C286.263 219.917 286.653 220.271 286.861 220.794C287.065 221.309 287.059 221.9 286.843 222.565C286.608 223.288 286.277 223.843 285.85 224.23L284.623 223.831C285.193 223.414 285.583 222.882 285.794 222.235C285.888 221.943 285.895 221.686 285.813 221.463C285.725 221.238 285.56 221.087 285.319 221.008C285.205 220.971 285.097 220.961 284.993 220.976C284.89 220.992 284.772 221.055 284.637 221.165C284.505 221.27 284.408 221.354 284.345 221.417C284.285 221.475 284.166 221.601 283.991 221.796C283.939 221.85 283.901 221.89 283.878 221.917C283.694 222.117 283.537 222.276 283.407 222.395C283.271 222.512 283.102 222.633 282.901 222.757C282.699 222.88 282.483 222.954 282.251 222.977C282.021 222.993 281.777 222.959 281.517 222.875C280.971 222.697 280.599 222.356 280.399 221.849C280.201 221.336 280.21 220.747 280.426 220.081C280.622 219.479 280.896 218.993 281.247 218.623ZM282.735 213.139L283.724 213.46L283.195 215.086L288.616 216.848L288.224 218.056L282.803 216.294L282.275 217.921L281.285 217.599L282.735 213.139ZM287.531 211.905L288.118 210.098L287.805 210.091C287.05 210.084 286.418 210.075 285.91 210.064C285.398 210.045 285.076 210.032 284.945 210.024L284.743 210C285.041 210.16 285.888 210.737 287.283 211.73L287.531 211.905ZM290.8 210.128L289.196 210.112L288.408 212.537L289.715 213.467L289.307 214.722L283.602 210.471L284.105 208.921L291.22 208.835L290.8 210.128Z" fill="white"/>
<path d="M292.417 138.687L291.256 139.064C291.387 138.496 291.365 137.942 291.19 137.403C291.093 137.105 290.95 136.892 290.762 136.764C290.575 136.643 290.377 136.616 290.168 136.684C289.958 136.752 289.813 136.897 289.731 137.12C289.658 137.347 289.597 137.668 289.55 138.083C289.518 138.374 289.484 138.613 289.446 138.8C289.416 138.986 289.354 139.195 289.261 139.428C289.171 139.668 289.032 139.867 288.846 140.026C288.667 140.189 288.442 140.315 288.169 140.404C287.599 140.589 287.075 140.531 286.599 140.23C286.131 139.934 285.789 139.453 285.573 138.787C285.338 138.064 285.279 137.421 285.398 136.856L286.624 136.458C286.408 137.131 286.406 137.791 286.616 138.437C286.71 138.729 286.856 138.941 287.054 139.073C287.257 139.203 287.479 139.229 287.72 139.151C287.834 139.114 287.929 139.059 288.003 138.986C288.077 138.912 288.136 138.792 288.18 138.623C288.225 138.461 288.255 138.336 288.268 138.248C288.283 138.165 288.305 137.994 288.332 137.733C288.343 137.659 288.35 137.604 288.352 137.568C288.384 137.299 288.417 137.078 288.452 136.905C288.493 136.73 288.559 136.534 288.649 136.315C288.74 136.097 288.872 135.91 289.046 135.755C289.222 135.607 289.44 135.49 289.7 135.406C290.245 135.229 290.748 135.286 291.207 135.579C291.669 135.877 292.008 136.36 292.224 137.025C292.42 137.628 292.484 138.182 292.417 138.687ZM294.144 143.421L294.459 144.391L292.399 145.786L289.889 147.443C290.821 147.315 291.808 147.212 292.848 147.133L295.395 146.947L295.79 148.164L288.849 148.611L288.398 147.223L290.235 145.984C290.722 145.651 291.154 145.36 291.529 145.112C291.906 144.87 292.158 144.707 292.285 144.624L292.488 144.505C292.016 144.561 291.119 144.607 289.799 144.643L287.579 144.702L287.131 143.323L292.985 139.529L293.396 140.793L291.222 142.162C290.83 142.402 290.423 142.646 289.999 142.896C289.575 143.146 289.251 143.335 289.027 143.464L288.681 143.661C289.546 143.604 290.539 143.555 291.661 143.513L294.144 143.421ZM292.637 151.986L293.224 153.793L293.482 153.614C294.096 153.176 294.613 152.812 295.03 152.522C295.456 152.237 295.724 152.059 295.834 151.988L296.012 151.888C295.676 151.934 294.653 151.965 292.941 151.982L292.637 151.986ZM291.037 155.345L292.343 154.415L291.555 151.99L289.952 152.006L289.544 150.751L296.659 150.837L297.163 152.387L291.457 156.638L291.037 155.345ZM277.877 145.716L276.717 146.093C276.848 145.525 276.826 144.972 276.651 144.433C276.554 144.135 276.411 143.922 276.222 143.794C276.035 143.672 275.838 143.645 275.628 143.713C275.419 143.781 275.274 143.927 275.192 144.15C275.118 144.377 275.058 144.698 275.01 145.113C274.979 145.403 274.944 145.642 274.907 145.83C274.876 146.015 274.814 146.224 274.722 146.458C274.632 146.697 274.493 146.897 274.306 147.055C274.128 147.218 273.903 147.344 273.63 147.433C273.059 147.618 272.536 147.561 272.06 147.26C271.592 146.963 271.25 146.482 271.033 145.816C270.798 145.093 270.74 144.45 270.858 143.886L272.085 143.487C271.869 144.16 271.866 144.82 272.076 145.467C272.171 145.758 272.317 145.97 272.514 146.103C272.718 146.233 272.94 146.259 273.181 146.18C273.295 146.143 273.389 146.088 273.464 146.015C273.538 145.942 273.597 145.821 273.64 145.653C273.686 145.491 273.715 145.365 273.728 145.277C273.744 145.195 273.765 145.023 273.792 144.762C273.804 144.688 273.81 144.633 273.813 144.598C273.844 144.328 273.878 144.107 273.913 143.934C273.954 143.76 274.02 143.563 274.11 143.344C274.2 143.126 274.332 142.939 274.506 142.785C274.682 142.636 274.901 142.52 275.16 142.435C275.706 142.258 276.208 142.316 276.668 142.608C277.129 142.907 277.468 143.389 277.684 144.055C277.88 144.657 277.944 145.211 277.877 145.716ZM279.898 151.028L278.908 151.349L278.38 149.723L272.959 151.484L272.567 150.276L277.988 148.515L277.459 146.889L278.448 146.567L279.898 151.028ZM276.743 154.845L277.33 156.652L277.587 156.474C278.202 156.036 278.718 155.672 279.136 155.382C279.562 155.096 279.83 154.918 279.94 154.847L280.118 154.747C279.782 154.793 278.758 154.824 277.046 154.841L276.743 154.845ZM275.142 158.204L276.449 157.275L275.661 154.849L274.058 154.866L273.65 153.61L280.764 153.696L281.268 155.246L275.563 159.497L275.142 158.204Z" fill="white"/>
<path d="M237.579 188.986V182.246H239.009L240.629 185.056C240.896 185.516 241.133 185.946 241.339 186.346C241.553 186.739 241.696 187.019 241.769 187.186L241.879 187.436C241.826 186.883 241.799 186.089 241.799 185.056V182.246H243.069V188.986H241.629L239.989 186.186C239.729 185.746 239.493 185.326 239.279 184.926C239.073 184.519 238.929 184.226 238.849 184.046L238.729 183.766C238.803 184.399 238.839 185.203 238.839 186.176V188.986H237.579ZM245.734 187.956H248.484V188.986H244.464V182.246H248.444V183.276H245.734V185.106H248.144V186.126H245.734V187.956ZM255.347 185.056V188.296H255.337L255.347 188.406C254.734 188.846 253.967 189.066 253.047 189.066C251.981 189.066 251.117 188.756 250.457 188.136C249.804 187.516 249.477 186.673 249.477 185.606C249.477 184.566 249.814 183.726 250.487 183.086C251.167 182.446 252.024 182.126 253.057 182.126C253.824 182.126 254.481 182.269 255.027 182.556V183.846C254.414 183.479 253.764 183.296 253.077 183.296C252.404 183.296 251.861 183.506 251.447 183.926C251.034 184.346 250.827 184.906 250.827 185.606C250.827 186.319 251.027 186.883 251.427 187.296C251.834 187.703 252.391 187.906 253.097 187.906C253.444 187.906 253.781 187.846 254.107 187.726V186.136H252.867V185.056H255.347ZM257.951 187.956H260.701V188.986H256.681V182.246H260.661V183.276H257.951V185.106H260.361V186.126H257.951V187.956ZM263.224 183.286V185.486H264.064C264.451 185.486 264.741 185.389 264.934 185.196C265.128 184.996 265.224 184.719 265.224 184.366C265.224 184.019 265.121 183.753 264.914 183.566C264.714 183.379 264.424 183.286 264.044 183.286H263.224ZM265.444 188.986L263.914 186.526H263.224V188.986H261.964V182.246H264.044C264.811 182.246 265.411 182.439 265.844 182.826C266.284 183.213 266.504 183.729 266.504 184.376C266.498 184.856 266.381 185.263 266.154 185.596C265.928 185.923 265.618 186.166 265.224 186.326L266.954 188.986H265.444ZM267.933 188.986V182.246H269.193V188.986H267.933Z" fill="white"/>
</g>
<g clip-path="url(#clip2_1124_4113)">
<path d="M214.81 197.01L214.81 195.56L230 186.16L214.81 176.77L214.81 175.32L212.12 174.58C211.16 174.32 210.13 174.67 209.55 175.48C207.3 178.59 206 182.24 206 186.16C206 190.08 207.3 193.73 209.55 196.84C210.13 197.65 211.16 198 212.12 197.74L214.81 197L214.81 197.01Z" fill="#D9AA16"/>
<path d="M214.81 175.32L212.7 174.74C212.17 174.6 212.04 175.06 212.53 175.36L214.82 176.77L214.82 175.32L214.81 175.32Z" fill="#B76F09"/>
<path d="M214.81 197.01L212.7 197.59C212.17 197.73 212.04 197.27 212.53 196.97L214.82 195.56L214.82 197.01L214.81 197.01Z" fill="#B76F09"/>
<path d="M208 186.16C208 182.84 209.05 179.63 211.06 176.8L226.2 186.16L211.06 195.52C209.05 192.69 208 189.48 208 186.16Z" fill="white"/>
</g>
<path d="M9 341.5H329C333.694 341.5 337.5 345.306 337.5 350C337.5 354.694 333.694 358.5 329 358.5H9C4.30558 358.5 0.5 354.694 0.5 350C0.500002 345.306 4.30558 341.5 9 341.5Z" fill="white"/>
<path d="M9 341.5H329C333.694 341.5 337.5 345.306 337.5 350C337.5 354.694 333.694 358.5 329 358.5H9C4.30558 358.5 0.5 354.694 0.5 350C0.500002 345.306 4.30558 341.5 9 341.5Z" stroke="#CCCCCC"/>
<path d="M7.86805e-07 350C3.52265e-07 345.029 4.02944 341 9 341L39 341C43.9706 341 48 345.029 48 350C48 354.971 43.9706 359 39 359L9 359C4.02944 359 1.22135e-06 354.971 7.86805e-07 350Z" fill="#FF1934"/>
<path d="M15.448 346.688H16.264L16.816 348.6L17.456 350.92C17.5893 350.179 17.7547 349.403 17.952 348.592L18.44 346.608H19.464L18.088 352H16.92L16.432 350.296C16.2987 349.843 16.184 349.443 16.088 349.096C15.9973 348.749 15.936 348.517 15.904 348.4L15.864 348.216C15.7893 348.589 15.6027 349.283 15.304 350.296L14.8 352H13.64L12.2 346.608H13.264L13.768 348.6C13.8533 348.957 13.9387 349.328 14.024 349.712C14.1093 350.096 14.1733 350.389 14.216 350.592L14.28 350.904C14.4507 350.232 14.6587 349.464 14.904 348.6L15.448 346.688ZM22.2561 350.256H21.7601C21.5094 350.256 21.3174 350.309 21.1841 350.416C21.0507 350.517 20.9841 350.648 20.9841 350.808C20.9841 351.149 21.1814 351.32 21.5761 351.32C21.7894 351.32 21.9547 351.259 22.0721 351.136C22.1947 351.008 22.2561 350.843 22.2561 350.64V350.256ZM20.2881 349.04V348.152C20.5921 347.965 21.0294 347.872 21.6001 347.872C22.6987 347.872 23.2481 348.384 23.2481 349.408V352H22.2961V351.512C22.1094 351.859 21.7574 352.032 21.2401 352.032C20.8561 352.032 20.5494 351.92 20.3201 351.696C20.0961 351.472 19.9841 351.189 19.9841 350.848C19.9841 350.464 20.1281 350.163 20.4161 349.944C20.7041 349.725 21.1201 349.616 21.6641 349.616H22.2561V349.368C22.2561 349.144 22.1974 348.973 22.0801 348.856C21.9627 348.739 21.7627 348.68 21.4801 348.68C21.0481 348.68 20.6507 348.8 20.2881 349.04ZM27.7828 352H26.6548L25.1988 349.904V352H24.2388V346.44H25.1988V349.848L26.6308 347.944H27.7508L26.2628 349.88L27.7828 352ZM29.5864 348.664V350.728C29.5864 350.899 29.6318 351.029 29.7224 351.12C29.8131 351.205 29.9384 351.248 30.0984 351.248C30.3011 351.248 30.4878 351.192 30.6584 351.08V351.904C30.4718 351.995 30.2318 352.04 29.9384 352.04C29.0638 352.04 28.6264 351.597 28.6264 350.712V348.664H28.0184V347.944H28.6264V346.968H29.5864V347.944H30.5944V348.664H29.5864ZM33.9617 347.944H34.9297V352H33.9617V351.336C33.7484 351.805 33.3324 352.04 32.7137 352.04C32.303 352.04 31.983 351.923 31.7537 351.688C31.5244 351.453 31.4097 351.12 31.4097 350.688V347.944H32.3697V350.464C32.3697 350.72 32.431 350.915 32.5537 351.048C32.6817 351.181 32.855 351.248 33.0737 351.248C33.351 351.248 33.567 351.155 33.7217 350.968C33.8817 350.781 33.9617 350.499 33.9617 350.12V347.944Z" fill="white"/>
<rect x="56" y="348" width="274" height="4" rx="2" fill="#CCCCCC"/>
<mask id="mask0_1124_4113" style="mask-type:alpha" maskUnits="userSpaceOnUse" x="56" y="348" width="274" height="4">
<rect x="56" y="348" width="274" height="4" rx="2" fill="#CCCCCC"/>
</mask>
<g mask="url(#mask0_1124_4113)">
<rect x="56" y="348" width="274" height="4" rx="2" fill="#FF1934"/>
</g>
<defs>
<filter id="filter0_d_1124_4113" x="22.5" y="14" width="293" height="56" filterUnits="userSpaceOnUse" color-interpolation-filters="sRGB">
<feFlood flood-opacity="0" result="BackgroundImageFix"/>
<feColorMatrix in="SourceAlpha" type="matrix" values="0 0 0 0 0 0 0 0 0 0 0 0 0 0 0 0 0 0 127 0" result="hardAlpha"/>
<feOffset dy="2"/>
<feGaussianBlur stdDeviation="2"/>
<feComposite in2="hardAlpha" operator="out"/>
<feColorMatrix type="matrix" values="0 0 0 0 0.168627 0 0 0 0 0.168627 0 0 0 0 0.168627 0 0 0 0.24 0"/>
<feBlend mode="normal" in2="BackgroundImageFix" result="effect1_dropShadow_1124_4113"/>
<feBlend mode="normal" in="SourceGraphic" in2="effect1_dropShadow_1124_4113" result="shape"/>
</filter>
<clipPath id="clip0_1124_4113">
<rect width="24" height="24" fill="white" transform="translate(42.5 32)"/>
</clipPath>
<clipPath id="clip1_1124_4113">
<rect width="104" height="152" fill="white" transform="translate(191.5 110)"/>
</clipPath>
<clipPath id="clip2_1124_4113">
<rect width="23.33" height="24" fill="white" transform="translate(230 174.5) rotate(90)"/>
</clipPath>
</defs>
</svg>
