<svg width="338" height="375" viewBox="0 0 338 375" fill="none" xmlns="http://www.w3.org/2000/svg">
<rect width="338" height="375" fill="#D3D3D3"/>
<rect x="26.5" y="16" width="285" height="294" rx="16" fill="white"/>
<g filter="url(#filter0_d_1124_4113)">
<path d="M26.5 32C26.5 23.1634 33.6634 16 42.5 16H295.5C304.337 16 311.5 23.1634 311.5 32V64H26.5V32Z" fill="#FF1934" shape-rendering="crispEdges"/>
<g clip-path="url(#clip0_1124_4113)">
<path d="M54.5 34C48.99 34 44.5 38.49 44.5 44C44.5 46.27 45.24 48.41 46.64 50.18C46.91 50.53 47.42 50.59 47.76 50.31C48.11 50.04 48.17 49.53 47.89 49.19C46.71 47.7 46.09 45.9 46.09 44C46.1 39.37 49.87 35.6 54.5 35.6C59.13 35.6 62.9 39.37 62.9 44C62.9 48.63 59.13 52.4 54.5 52.4C52.82 52.4 51.19 51.9 49.8 50.97C49.43 50.72 48.94 50.82 48.69 51.18C48.44 51.54 48.54 52.04 48.9 52.29C50.56 53.41 52.49 54 54.49 54C60 54 64.49 49.51 64.49 44C64.49 38.49 60.01 34 54.5 34Z" fill="white"/>
<path d="M58.2402 38.14C57.8702 37.9 57.3702 38.01 57.1302 38.38L53.8202 43.57C53.7402 43.7 53.7002 43.85 53.7002 44V48C53.7002 48.44 54.0602 48.8 54.5002 48.8C54.9402 48.8 55.3002 48.44 55.3002 48V44.23L58.4902 39.24C58.7302 38.87 58.6202 38.37 58.2502 38.13L58.2402 38.14Z" fill="white"/>
</g>
<path d="M77.566 46.11H81.052V48H75.41V38.564H77.566V46.11ZM82.2459 48V40.902H84.2899V48H82.2459ZM82.4279 39.684C82.1946 39.4507 82.0779 39.1707 82.0779 38.844C82.0779 38.5173 82.1946 38.2373 82.4279 38.004C82.6613 37.7707 82.9413 37.654 83.2679 37.654C83.5946 37.654 83.8746 37.7707 84.1079 38.004C84.3413 38.2373 84.4579 38.5173 84.4579 38.844C84.4579 39.1707 84.3413 39.4507 84.1079 39.684C83.8746 39.9173 83.5946 40.034 83.2679 40.034C82.9413 40.034 82.6613 39.9173 82.4279 39.684ZM88.0891 40.902V42.106C88.2664 41.714 88.5371 41.406 88.9011 41.182C89.2744 40.9487 89.7177 40.832 90.2311 40.832C90.9591 40.832 91.5284 41.0513 91.9391 41.49C92.3497 41.9193 92.5551 42.554 92.5551 43.394V48H90.5111V43.772C90.5111 43.352 90.4131 43.0347 90.2171 42.82C90.0211 42.596 89.7457 42.484 89.3911 42.484C89.0177 42.484 88.7051 42.6333 88.4531 42.932C88.2104 43.2213 88.0891 43.66 88.0891 44.248V48H86.0451V40.902H88.0891ZM94.2362 48V40.902H96.2802V48H94.2362ZM94.4182 39.684C94.1848 39.4507 94.0682 39.1707 94.0682 38.844C94.0682 38.5173 94.1848 38.2373 94.4182 38.004C94.6515 37.7707 94.9315 37.654 95.2582 37.654C95.5848 37.654 95.8648 37.7707 96.0982 38.004C96.3315 38.2373 96.4482 38.5173 96.4482 38.844C96.4482 39.1707 96.3315 39.4507 96.0982 39.684C95.8648 39.9173 95.5848 40.034 95.2582 40.034C94.9315 40.034 94.6515 39.9173 94.4182 39.684ZM101.395 48L102.207 38.564H104.573L105.889 41.98C106.113 42.5493 106.305 43.072 106.463 43.548C106.622 44.024 106.725 44.36 106.771 44.556L106.841 44.836C106.991 44.22 107.317 43.268 107.821 41.98L109.151 38.564H111.517L112.497 48H110.341L109.991 44.346L109.809 41.588C109.567 42.288 109.231 43.2073 108.801 44.346L107.471 47.902H106.197L104.881 44.346C104.667 43.7673 104.485 43.2493 104.335 42.792C104.186 42.3347 104.088 42.0173 104.041 41.84L103.971 41.588C103.971 42.2507 103.929 43.17 103.845 44.346L103.551 48H101.395ZM117.545 45.088H116.887C116.542 45.088 116.276 45.1627 116.089 45.312C115.903 45.4613 115.809 45.6527 115.809 45.886C115.809 46.362 116.085 46.6 116.635 46.6C116.925 46.6 117.149 46.5113 117.307 46.334C117.466 46.1567 117.545 45.914 117.545 45.606V45.088ZM114.227 43.086V41.252C114.787 40.9347 115.595 40.776 116.649 40.776C117.657 40.776 118.409 40.9953 118.903 41.434C119.398 41.8633 119.645 42.5353 119.645 43.45V48H117.643V47.132C117.345 47.7387 116.757 48.042 115.879 48.042C115.189 48.042 114.647 47.846 114.255 47.454C113.873 47.062 113.681 46.572 113.681 45.984C113.681 45.3027 113.929 44.7753 114.423 44.402C114.927 44.0193 115.669 43.828 116.649 43.828H117.545V43.338C117.545 42.7407 117.149 42.442 116.355 42.442C115.59 42.442 114.881 42.6567 114.227 43.086ZM125.73 41.112V42.862C125.235 42.5727 124.657 42.428 123.994 42.428C123.751 42.428 123.565 42.4793 123.434 42.582C123.303 42.6753 123.238 42.7967 123.238 42.946C123.238 43.03 123.261 43.1093 123.308 43.184C123.355 43.2587 123.429 43.3287 123.532 43.394C123.644 43.4593 123.747 43.52 123.84 43.576C123.943 43.6227 124.078 43.6833 124.246 43.758C124.423 43.8327 124.563 43.898 124.666 43.954C125.095 44.178 125.441 44.4393 125.702 44.738C125.963 45.0273 126.094 45.4007 126.094 45.858C126.094 46.558 125.842 47.0993 125.338 47.482C124.834 47.8647 124.167 48.056 123.336 48.056C122.477 48.056 121.759 47.9113 121.18 47.622V45.802C121.824 46.25 122.505 46.474 123.224 46.474C123.737 46.474 123.994 46.3107 123.994 45.984C123.994 45.9 123.971 45.8207 123.924 45.746C123.877 45.6713 123.798 45.6013 123.686 45.536C123.574 45.4707 123.471 45.4193 123.378 45.382C123.285 45.3353 123.149 45.2747 122.972 45.2C122.795 45.1253 122.659 45.0647 122.566 45.018C121.623 44.57 121.152 43.898 121.152 43.002C121.152 42.3113 121.413 41.7747 121.936 41.392C122.468 41.0093 123.126 40.818 123.91 40.818C124.638 40.818 125.245 40.916 125.73 41.112ZM130.862 45.088H130.204C129.858 45.088 129.592 45.1627 129.406 45.312C129.219 45.4613 129.126 45.6527 129.126 45.886C129.126 46.362 129.401 46.6 129.952 46.6C130.241 46.6 130.465 46.5113 130.624 46.334C130.782 46.1567 130.862 45.914 130.862 45.606V45.088ZM127.544 43.086V41.252C128.104 40.9347 128.911 40.776 129.966 40.776C130.974 40.776 131.725 40.9953 132.22 41.434C132.714 41.8633 132.962 42.5353 132.962 43.45V48H130.96V47.132C130.661 47.7387 130.073 48.042 129.196 48.042C128.505 48.042 127.964 47.846 127.572 47.454C127.189 47.062 126.998 46.572 126.998 45.984C126.998 45.3027 127.245 44.7753 127.74 44.402C128.244 44.0193 128.986 43.828 129.966 43.828H130.862V43.338C130.862 42.7407 130.465 42.442 129.672 42.442C128.906 42.442 128.197 42.6567 127.544 43.086Z" fill="white"/>
</g>
<g clip-path="url(#clip1_1124_4113)">
<path d="M169 138.65C160.603 138.65 152.56 139.191 150.726 139.994C148.431 140.997 156.353 142.017 169 142.017C181.647 142.017 189.568 140.997 187.274 139.994C185.439 139.192 177.396 138.65 169 138.65Z" fill="#CCCCCC"/>
<path d="M172.908 106.177L177.215 109.119L177.882 108.636L173.114 105.38L172.908 106.177Z" fill="#D9AA16"/>
<path d="M159.1 131.018C167.439 136.713 177.722 136.173 182.067 129.812C186.412 123.45 183.174 113.675 174.834 107.98C166.495 102.284 156.212 102.824 151.867 109.186C147.522 115.548 150.76 125.322 159.1 131.018Z" fill="#DA011C"/>
<path d="M159.615 130.477C162.544 132.457 165.955 133.775 169.456 134.08C172.958 134.384 176.016 133.63 178.346 132.109L166.967 119.498L159.614 130.476L159.615 130.477Z" fill="#FF1934"/>
<path d="M178.267 132.161C180.618 130.661 182.289 128.362 182.875 125.418C183.461 122.475 182.873 119.335 181.403 116.414L166.967 119.499L178.267 132.161Z" fill="#D9AA16"/>
<path d="M151.061 113.58C150.514 116.314 150.949 119.439 152.529 122.585C154.109 125.731 156.595 128.418 159.515 130.41L166.967 119.499L151.062 113.581L151.061 113.58Z" fill="#1699D9"/>
<path d="M181.403 116.414C179.938 113.491 177.563 110.733 174.421 108.586C171.278 106.44 167.845 105.232 164.589 104.93L166.967 119.499L181.403 116.414Z" fill="#CC0BD9"/>
<path d="M164.478 104.92C161.225 104.634 158.096 105.25 155.585 106.886C153.074 108.522 151.562 110.93 151.043 113.673L166.966 119.499L164.478 104.92Z" fill="#008C1E"/>
<path d="M151.042 113.673L166.797 119.536L159.416 130.342C159.449 130.365 159.481 130.389 159.514 130.412C159.547 130.435 159.581 130.455 159.615 130.478L166.995 119.671L178.189 132.214C178.242 132.18 178.297 132.148 178.35 132.114L167.155 119.569L181.454 116.513C181.421 116.447 181.385 116.38 181.352 116.315L167.055 119.37L164.7 104.942C164.626 104.934 164.552 104.925 164.478 104.919L166.834 119.35L151.076 113.486C151.063 113.548 151.053 113.61 151.042 113.673Z" fill="white"/>
<g style="mix-blend-mode:multiply" opacity="0.32">
<path d="M159.514 130.411C167.415 135.807 177.156 135.296 181.272 129.269C185.388 123.242 182.321 113.982 174.42 108.586C166.52 103.19 156.778 103.702 152.662 109.729C148.546 115.756 151.613 125.016 159.514 130.411ZM174.006 109.192C181.468 114.288 184.365 123.034 180.478 128.726C176.59 134.419 167.39 134.902 159.928 129.806C152.466 124.709 149.569 115.964 153.457 110.271C157.344 104.579 166.544 104.096 174.006 109.192Z" fill="#2B2B2B"/>
</g>
<path d="M166.139 120.711C167.017 121.311 168.099 121.254 168.556 120.584C169.014 119.915 168.673 118.886 167.795 118.287C166.918 117.687 165.835 117.744 165.378 118.414C164.921 119.083 165.262 120.112 166.139 120.711Z" fill="white"/>
<path d="M177.882 108.636C177.511 107.742 176.864 106.921 175.973 106.313C175.082 105.704 174.081 105.4 173.114 105.38L173.489 109.95L177.882 108.636Z" fill="#D9AA16"/>
<path d="M173.114 105.38L172.908 106.177L173.196 106.374L173.114 105.38Z" fill="#D9AA16"/>
<path d="M177.214 109.119C177.214 109.119 177.464 108.938 177.548 108.877C177.632 108.817 177.553 108.734 177.444 108.767C177.314 108.806 176.927 108.922 176.927 108.922L177.215 109.118L177.214 109.119Z" fill="#B76F09"/>
<path d="M172.907 106.177C172.907 106.177 172.985 105.878 173.011 105.778C173.037 105.678 173.143 105.721 173.152 105.835C173.163 105.97 173.196 106.373 173.196 106.373L172.908 106.177L172.907 106.177Z" fill="#B76F09"/>
<path d="M175.766 106.616C176.426 107.067 176.953 107.661 177.308 108.35L173.882 109.374L173.59 105.81C174.36 105.89 175.105 106.165 175.766 106.616Z" fill="white"/>
</g>
<path d="M118.042 178.24H118.756C119.894 178.24 120.464 177.722 120.464 176.686C120.464 175.753 119.936 175.286 118.882 175.286H118.042V178.24ZM115.886 173.564H119.134C120.179 173.564 121.024 173.858 121.668 174.446C122.321 175.034 122.648 175.781 122.648 176.686C122.648 177.722 122.307 178.525 121.626 179.094C120.954 179.663 120.123 179.948 119.134 179.948H118.042V183H115.886V173.564ZM127.806 178.8V178.632C127.741 177.801 127.377 177.386 126.714 177.386C126.388 177.386 126.098 177.507 125.846 177.75C125.594 177.983 125.426 178.333 125.342 178.8H127.806ZM129.276 180.886V182.594C128.791 182.911 128.049 183.07 127.05 183.07C125.884 183.07 124.974 182.734 124.32 182.062C123.676 181.381 123.354 180.508 123.354 179.444C123.354 178.315 123.667 177.433 124.292 176.798C124.927 176.154 125.706 175.832 126.63 175.832C127.582 175.832 128.334 176.112 128.884 176.672C129.435 177.223 129.71 178.049 129.71 179.15C129.71 179.365 129.673 179.733 129.598 180.256H125.426C125.566 180.648 125.809 180.951 126.154 181.166C126.5 181.381 126.915 181.488 127.4 181.488C128.119 181.488 128.744 181.287 129.276 180.886ZM133.199 175.902V177.218C133.33 176.807 133.544 176.481 133.843 176.238C134.151 175.986 134.506 175.86 134.907 175.86C135.131 175.86 135.308 175.879 135.439 175.916V177.848C135.215 177.745 134.958 177.694 134.669 177.694C134.23 177.694 133.876 177.857 133.605 178.184C133.334 178.501 133.199 178.926 133.199 179.458V183H131.155L131.169 175.902H133.199ZM138.395 175.902V177.106C138.572 176.714 138.843 176.406 139.207 176.182C139.58 175.949 140.023 175.832 140.537 175.832C141.265 175.832 141.834 176.051 142.245 176.49C142.655 176.919 142.861 177.554 142.861 178.394V183H140.817V178.772C140.817 178.352 140.719 178.035 140.523 177.82C140.327 177.596 140.051 177.484 139.697 177.484C139.323 177.484 139.011 177.633 138.759 177.932C138.516 178.221 138.395 178.66 138.395 179.248V183H136.351V175.902H138.395ZM144.542 183V175.902H146.586V183H144.542ZM144.724 174.684C144.491 174.451 144.374 174.171 144.374 173.844C144.374 173.517 144.491 173.237 144.724 173.004C144.957 172.771 145.237 172.654 145.564 172.654C145.891 172.654 146.171 172.771 146.404 173.004C146.637 173.237 146.754 173.517 146.754 173.844C146.754 174.171 146.637 174.451 146.404 174.684C146.171 174.917 145.891 175.034 145.564 175.034C145.237 175.034 144.957 174.917 144.724 174.684ZM155.019 183H152.653L150.385 179.514V183H148.341V173.34H150.385V179.08L152.625 175.902H154.977L152.513 179.304L155.019 183ZM159.525 180.088H158.867C158.522 180.088 158.256 180.163 158.069 180.312C157.882 180.461 157.789 180.653 157.789 180.886C157.789 181.362 158.064 181.6 158.615 181.6C158.904 181.6 159.128 181.511 159.287 181.334C159.446 181.157 159.525 180.914 159.525 180.606V180.088ZM156.207 178.086V176.252C156.767 175.935 157.574 175.776 158.629 175.776C159.637 175.776 160.388 175.995 160.883 176.434C161.378 176.863 161.625 177.535 161.625 178.45V183H159.623V182.132C159.324 182.739 158.736 183.042 157.859 183.042C157.168 183.042 156.627 182.846 156.235 182.454C155.852 182.062 155.661 181.572 155.661 180.984C155.661 180.303 155.908 179.775 156.403 179.402C156.907 179.019 157.649 178.828 158.629 178.828H159.525V178.338C159.525 177.741 159.128 177.442 158.335 177.442C157.57 177.442 156.86 177.657 156.207 178.086ZM165.274 173.102V177.106C165.638 176.257 166.347 175.832 167.402 175.832C168.092 175.832 168.652 176.051 169.082 176.49C169.52 176.929 169.74 177.591 169.74 178.478V183H167.696V178.8C167.696 178.389 167.593 178.067 167.388 177.834C167.182 177.601 166.916 177.484 166.59 177.484C166.45 177.484 166.314 177.507 166.184 177.554C166.062 177.591 165.927 177.666 165.778 177.778C165.628 177.881 165.507 178.063 165.414 178.324C165.32 178.576 165.274 178.884 165.274 179.248V183H163.23V173.102H165.274ZM174.865 180.088H174.207C173.861 180.088 173.595 180.163 173.409 180.312C173.222 180.461 173.129 180.653 173.129 180.886C173.129 181.362 173.404 181.6 173.955 181.6C174.244 181.6 174.468 181.511 174.627 181.334C174.785 181.157 174.865 180.914 174.865 180.606V180.088ZM171.547 178.086V176.252C172.107 175.935 172.914 175.776 173.969 175.776C174.977 175.776 175.728 175.995 176.223 176.434C176.717 176.863 176.965 177.535 176.965 178.45V183H174.963V182.132C174.664 182.739 174.076 183.042 173.199 183.042C172.508 183.042 171.967 182.846 171.575 182.454C171.192 182.062 171.001 181.572 171.001 180.984C171.001 180.303 171.248 179.775 171.743 179.402C172.247 179.019 172.989 178.828 173.969 178.828H174.865V178.338C174.865 177.741 174.468 177.442 173.675 177.442C172.909 177.442 172.2 177.657 171.547 178.086ZM180.613 175.902V177.106C180.791 176.714 181.061 176.406 181.425 176.182C181.799 175.949 182.242 175.832 182.755 175.832C183.483 175.832 184.053 176.051 184.463 176.49C184.874 176.919 185.079 177.554 185.079 178.394V183H183.035V178.772C183.035 178.352 182.937 178.035 182.741 177.82C182.545 177.596 182.27 177.484 181.915 177.484C181.542 177.484 181.229 177.633 180.977 177.932C180.735 178.221 180.613 178.66 180.613 179.248V183H178.569V175.902H180.613ZM190.401 183V173.564H192.557V183H190.401ZM196.487 175.902V177.106C196.664 176.714 196.935 176.406 197.299 176.182C197.672 175.949 198.115 175.832 198.629 175.832C199.357 175.832 199.926 176.051 200.337 176.49C200.747 176.919 200.953 177.554 200.953 178.394V183H198.909V178.772C198.909 178.352 198.811 178.035 198.615 177.82C198.419 177.596 198.143 177.484 197.789 177.484C197.415 177.484 197.103 177.633 196.851 177.932C196.608 178.221 196.487 178.66 196.487 179.248V183H194.443V175.902H196.487ZM204.93 177.4V180.662C204.93 180.914 205 181.105 205.14 181.236C205.289 181.367 205.48 181.432 205.714 181.432C206.087 181.432 206.418 181.339 206.708 181.152V182.846C206.362 182.995 205.896 183.07 205.308 183.07C203.693 183.07 202.886 182.263 202.886 180.648V177.4H201.864V175.902H202.886V174.222H204.93V175.902H206.582V177.4H204.93ZM208.034 183V175.902H210.078V183H208.034ZM208.216 174.684C207.983 174.451 207.866 174.171 207.866 173.844C207.866 173.517 207.983 173.237 208.216 173.004C208.449 172.771 208.729 172.654 209.056 172.654C209.383 172.654 209.663 172.771 209.896 173.004C210.129 173.237 210.246 173.517 210.246 173.844C210.246 174.171 210.129 174.451 209.896 174.684C209.663 174.917 209.383 175.034 209.056 175.034C208.729 175.034 208.449 174.917 208.216 174.684ZM213.877 175.902V177.008C214.269 176.224 214.936 175.832 215.879 175.832C216.878 175.832 217.54 176.28 217.867 177.176C218.026 176.756 218.292 176.429 218.665 176.196C219.038 175.953 219.477 175.832 219.981 175.832C220.681 175.832 221.232 176.056 221.633 176.504C222.044 176.943 222.249 177.591 222.249 178.45V183H220.205V178.786C220.205 178.385 220.126 178.067 219.967 177.834C219.808 177.601 219.58 177.484 219.281 177.484C218.964 177.484 218.679 177.615 218.427 177.876C218.184 178.128 218.063 178.585 218.063 179.248V183H216.019V178.786C216.019 178.385 215.94 178.067 215.781 177.834C215.622 177.601 215.394 177.484 215.095 177.484C214.778 177.484 214.493 177.615 214.241 177.876C213.998 178.128 213.877 178.585 213.877 179.248V183H211.833V175.902H213.877Z" fill="#2B2B2B"/>
<path d="M122.475 206.49H124.635L124.525 206.15C124.272 205.363 124.065 204.713 123.905 204.2C123.745 203.68 123.648 203.357 123.615 203.23L123.565 203.04C123.492 203.353 123.165 204.39 122.585 206.15L122.475 206.49ZM125.445 209L124.915 207.35H122.195L121.655 209H120.565L122.895 202.26H124.245L126.545 209H125.445ZM128.526 203.93V204.8C128.826 204.173 129.353 203.86 130.106 203.86C130.606 203.86 131.003 204.013 131.296 204.32C131.59 204.627 131.736 205.043 131.736 205.57V209H130.756V205.8C130.756 205.447 130.666 205.177 130.486 204.99C130.313 204.803 130.08 204.71 129.786 204.71C129.44 204.71 129.143 204.847 128.896 205.12C128.65 205.387 128.526 205.763 128.526 206.25V209H127.546V203.93H128.526ZM135.104 208.21C135.491 208.21 135.818 208.063 136.084 207.77C136.351 207.477 136.484 207.03 136.484 206.43C136.484 205.85 136.344 205.42 136.064 205.14C135.791 204.86 135.481 204.72 135.134 204.72C134.741 204.72 134.418 204.877 134.164 205.19C133.911 205.497 133.784 205.937 133.784 206.51C133.784 207.017 133.908 207.427 134.154 207.74C134.408 208.053 134.724 208.21 135.104 208.21ZM136.484 201.93H137.474V209H136.484V208.23C136.131 208.79 135.614 209.07 134.934 209.07C134.268 209.07 133.741 208.82 133.354 208.32C132.968 207.813 132.774 207.203 132.774 206.49C132.774 205.697 132.978 205.06 133.384 204.58C133.791 204.1 134.314 203.86 134.954 203.86C135.614 203.86 136.124 204.14 136.484 204.7V201.93ZM141.525 206.74H140.765C140.392 206.74 140.108 206.813 139.915 206.96C139.728 207.107 139.635 207.293 139.635 207.52C139.635 207.753 139.708 207.937 139.855 208.07C140.002 208.203 140.215 208.27 140.495 208.27C140.815 208.27 141.065 208.183 141.245 208.01C141.432 207.83 141.525 207.597 141.525 207.31V206.74ZM138.975 205.14V204.19C139.368 203.963 139.888 203.85 140.535 203.85C141.862 203.85 142.525 204.493 142.525 205.78V209H141.555V208.4C141.295 208.827 140.838 209.04 140.185 209.04C139.705 209.04 139.318 208.903 139.025 208.63C138.738 208.35 138.595 207.997 138.595 207.57C138.595 207.083 138.778 206.707 139.145 206.44C139.512 206.167 140.025 206.03 140.685 206.03H141.525V205.74C141.525 205.393 141.442 205.133 141.275 204.96C141.108 204.78 140.832 204.69 140.445 204.69C139.905 204.69 139.415 204.84 138.975 205.14ZM147.286 201.93V204.8C147.573 204.173 148.096 203.86 148.856 203.86C149.35 203.86 149.746 204.013 150.046 204.32C150.346 204.627 150.496 205.053 150.496 205.6V209H149.516V205.8C149.516 205.453 149.426 205.187 149.246 205C149.073 204.807 148.843 204.71 148.556 204.71C148.223 204.71 147.926 204.837 147.666 205.09C147.413 205.343 147.286 205.73 147.286 206.25V209H146.306V201.93H147.286ZM154.484 206.74H153.724C153.351 206.74 153.067 206.813 152.874 206.96C152.687 207.107 152.594 207.293 152.594 207.52C152.594 207.753 152.667 207.937 152.814 208.07C152.961 208.203 153.174 208.27 153.454 208.27C153.774 208.27 154.024 208.183 154.204 208.01C154.391 207.83 154.484 207.597 154.484 207.31V206.74ZM151.934 205.14V204.19C152.327 203.963 152.847 203.85 153.494 203.85C154.821 203.85 155.484 204.493 155.484 205.78V209H154.514V208.4C154.254 208.827 153.797 209.04 153.144 209.04C152.664 209.04 152.277 208.903 151.984 208.63C151.697 208.35 151.554 207.997 151.554 207.57C151.554 207.083 151.737 206.707 152.104 206.44C152.471 206.167 152.984 206.03 153.644 206.03H154.484V205.74C154.484 205.393 154.401 205.133 154.234 204.96C154.067 204.78 153.791 204.69 153.404 204.69C152.864 204.69 152.374 204.84 151.934 205.14ZM157.784 203.93V204.82C158.031 204.193 158.474 203.88 159.114 203.88C159.208 203.88 159.311 203.89 159.424 203.91V204.87C159.284 204.81 159.128 204.78 158.954 204.78C158.614 204.78 158.334 204.93 158.114 205.23C157.894 205.53 157.784 205.887 157.784 206.3V209H156.804V203.93H157.784ZM163.343 203.93H164.323V209H163.343V208.13C163.076 208.75 162.55 209.06 161.763 209.06C161.263 209.06 160.866 208.913 160.573 208.62C160.28 208.32 160.133 207.91 160.133 207.39V203.93H161.123V207.15C161.123 207.497 161.206 207.763 161.373 207.95C161.546 208.13 161.783 208.22 162.083 208.22C162.463 208.22 162.766 208.087 162.993 207.82C163.226 207.553 163.343 207.177 163.343 206.69V203.93ZM168.591 204.1V204.99C168.264 204.797 167.844 204.7 167.331 204.7C167.097 204.7 166.911 204.753 166.771 204.86C166.637 204.967 166.571 205.107 166.571 205.28C166.571 205.327 166.574 205.373 166.581 205.42C166.594 205.46 166.614 205.503 166.641 205.55C166.667 205.59 166.691 205.627 166.711 205.66C166.737 205.687 166.777 205.717 166.831 205.75C166.884 205.783 166.924 205.813 166.951 205.84C166.984 205.86 167.034 205.887 167.101 205.92C167.174 205.953 167.227 205.98 167.261 206C167.294 206.013 167.351 206.04 167.431 206.08C167.517 206.113 167.577 206.137 167.611 206.15C168.004 206.323 168.311 206.52 168.531 206.74C168.757 206.953 168.871 207.24 168.871 207.6C168.871 208.053 168.711 208.41 168.391 208.67C168.071 208.923 167.637 209.05 167.091 209.05C166.491 209.05 165.991 208.95 165.591 208.75V207.82C166.057 208.107 166.541 208.25 167.041 208.25C167.301 208.25 167.501 208.197 167.641 208.09C167.787 207.983 167.861 207.843 167.861 207.67C167.861 207.523 167.804 207.393 167.691 207.28C167.577 207.16 167.461 207.073 167.341 207.02C167.227 206.96 167.031 206.87 166.751 206.75C165.957 206.423 165.561 205.943 165.561 205.31C165.561 204.863 165.727 204.513 166.061 204.26C166.394 204.007 166.811 203.88 167.311 203.88C167.857 203.88 168.284 203.953 168.591 204.1ZM173.331 203.93V204.74C173.618 204.153 174.094 203.86 174.761 203.86C175.521 203.86 176.008 204.187 176.221 204.84C176.361 204.527 176.564 204.287 176.831 204.12C177.098 203.947 177.398 203.86 177.731 203.86C178.251 203.86 178.644 204.013 178.911 204.32C179.184 204.627 179.321 205.05 179.321 205.59V209H178.341V205.8C178.341 205.073 178.048 204.71 177.461 204.71C177.168 204.71 176.904 204.84 176.671 205.1C176.444 205.36 176.331 205.743 176.331 206.25V209H175.351V205.8C175.351 205.073 175.054 204.71 174.461 204.71C174.174 204.71 173.914 204.84 173.681 205.1C173.448 205.36 173.331 205.743 173.331 206.25V209H172.351V203.93H173.331ZM183.802 206.1V205.92C183.789 205.54 183.685 205.24 183.492 205.02C183.299 204.793 183.022 204.68 182.662 204.68C182.329 204.68 182.042 204.803 181.802 205.05C181.562 205.29 181.412 205.64 181.352 206.1H183.802ZM184.432 207.85V208.73C184.059 208.943 183.565 209.05 182.952 209.05C182.165 209.05 181.539 208.813 181.072 208.34C180.605 207.867 180.372 207.247 180.372 206.48C180.372 205.667 180.585 205.03 181.012 204.57C181.439 204.103 181.982 203.87 182.642 203.87C183.289 203.87 183.802 204.073 184.182 204.48C184.562 204.88 184.752 205.46 184.752 206.22C184.752 206.427 184.732 206.643 184.692 206.87H181.362C181.429 207.31 181.615 207.647 181.922 207.88C182.229 208.113 182.615 208.23 183.082 208.23C183.622 208.23 184.072 208.103 184.432 207.85ZM186.886 203.93V204.74C187.172 204.153 187.649 203.86 188.316 203.86C189.076 203.86 189.562 204.187 189.776 204.84C189.916 204.527 190.119 204.287 190.386 204.12C190.652 203.947 190.952 203.86 191.286 203.86C191.806 203.86 192.199 204.013 192.466 204.32C192.739 204.627 192.876 205.05 192.876 205.59V209H191.896V205.8C191.896 205.073 191.602 204.71 191.016 204.71C190.722 204.71 190.459 204.84 190.226 205.1C189.999 205.36 189.886 205.743 189.886 206.25V209H188.906V205.8C188.906 205.073 188.609 204.71 188.016 204.71C187.729 204.71 187.469 204.84 187.236 205.1C187.002 205.36 186.886 205.743 186.886 206.25V209H185.906V203.93H186.886ZM196.597 208.21C196.97 208.21 197.283 208.053 197.537 207.74C197.79 207.42 197.917 207.01 197.917 206.51C197.917 205.937 197.79 205.497 197.537 205.19C197.283 204.877 196.96 204.72 196.567 204.72C196.22 204.72 195.907 204.86 195.627 205.14C195.353 205.42 195.217 205.85 195.217 206.43C195.217 207.03 195.35 207.477 195.617 207.77C195.883 208.063 196.21 208.21 196.597 208.21ZM195.217 201.93V204.7C195.577 204.14 196.087 203.86 196.747 203.86C197.387 203.86 197.91 204.1 198.317 204.58C198.723 205.06 198.927 205.697 198.927 206.49C198.927 207.203 198.733 207.813 198.347 208.32C197.96 208.82 197.43 209.07 196.757 209.07C196.083 209.07 195.57 208.79 195.217 208.23V209H194.227V201.93H195.217ZM202.697 206.74H201.937C201.564 206.74 201.28 206.813 201.087 206.96C200.9 207.107 200.807 207.293 200.807 207.52C200.807 207.753 200.88 207.937 201.027 208.07C201.174 208.203 201.387 208.27 201.667 208.27C201.987 208.27 202.237 208.183 202.417 208.01C202.604 207.83 202.697 207.597 202.697 207.31V206.74ZM200.147 205.14V204.19C200.54 203.963 201.06 203.85 201.707 203.85C203.034 203.85 203.697 204.493 203.697 205.78V209H202.727V208.4C202.467 208.827 202.01 209.04 201.357 209.04C200.877 209.04 200.49 208.903 200.197 208.63C199.91 208.35 199.767 207.997 199.767 207.57C199.767 207.083 199.95 206.707 200.317 206.44C200.684 206.167 201.197 206.03 201.857 206.03H202.697V205.74C202.697 205.393 202.614 205.133 202.447 204.96C202.28 204.78 202.004 204.69 201.617 204.69C201.077 204.69 200.587 204.84 200.147 205.14ZM206.417 208.89L204.397 203.93H205.487L206.117 205.58L206.907 207.72C206.967 207.52 207.207 206.807 207.627 205.58L208.197 203.93H209.237L207.407 208.86C206.92 210.16 206.177 210.81 205.177 210.81C204.997 210.81 204.844 210.793 204.717 210.76V209.92C204.824 209.947 204.937 209.96 205.057 209.96C205.704 209.96 206.157 209.603 206.417 208.89ZM212.726 206.74H211.966C211.593 206.74 211.31 206.813 211.116 206.96C210.93 207.107 210.836 207.293 210.836 207.52C210.836 207.753 210.91 207.937 211.056 208.07C211.203 208.203 211.416 208.27 211.696 208.27C212.016 208.27 212.266 208.183 212.446 208.01C212.633 207.83 212.726 207.597 212.726 207.31V206.74ZM210.176 205.14V204.19C210.57 203.963 211.09 203.85 211.736 203.85C213.063 203.85 213.726 204.493 213.726 205.78V209H212.756V208.4C212.496 208.827 212.04 209.04 211.386 209.04C210.906 209.04 210.52 208.903 210.226 208.63C209.94 208.35 209.796 207.997 209.796 207.57C209.796 207.083 209.98 206.707 210.346 206.44C210.713 206.167 211.226 206.03 211.886 206.03H212.726V205.74C212.726 205.393 212.643 205.133 212.476 204.96C212.31 204.78 212.033 204.69 211.646 204.69C211.106 204.69 210.616 204.84 210.176 205.14ZM216.026 203.93V204.82C216.273 204.193 216.716 203.88 217.356 203.88C217.45 203.88 217.553 203.89 217.666 203.91V204.87C217.526 204.81 217.37 204.78 217.196 204.78C216.856 204.78 216.576 204.93 216.356 205.23C216.136 205.53 216.026 205.887 216.026 206.3V209H215.046V203.93H216.026ZM73.9827 221.76H74.8627C75.3493 221.76 75.7193 221.64 75.9727 221.4C76.2327 221.16 76.3627 220.843 76.3627 220.45C76.3627 220.037 76.2327 219.71 75.9727 219.47C75.7127 219.23 75.336 219.11 74.8427 219.11H73.9827V221.76ZM72.9527 218.26H74.8827C75.656 218.26 76.2693 218.467 76.7227 218.88C77.176 219.287 77.4027 219.81 77.4027 220.45C77.4027 221.09 77.1727 221.61 76.7127 222.01C76.2593 222.41 75.6693 222.61 74.9427 222.61H73.9827V225H72.9527V218.26ZM81.5607 222.1V221.92C81.5474 221.54 81.444 221.24 81.2507 221.02C81.0574 220.793 80.7807 220.68 80.4207 220.68C80.0874 220.68 79.8007 220.803 79.5607 221.05C79.3207 221.29 79.1707 221.64 79.1107 222.1H81.5607ZM82.1907 223.85V224.73C81.8174 224.943 81.324 225.05 80.7107 225.05C79.924 225.05 79.2974 224.813 78.8307 224.34C78.364 223.867 78.1307 223.247 78.1307 222.48C78.1307 221.667 78.344 221.03 78.7707 220.57C79.1974 220.103 79.7407 219.87 80.4007 219.87C81.0474 219.87 81.5607 220.073 81.9407 220.48C82.3207 220.88 82.5107 221.46 82.5107 222.22C82.5107 222.427 82.4907 222.643 82.4507 222.87H79.1207C79.1874 223.31 79.374 223.647 79.6807 223.88C79.9874 224.113 80.374 224.23 80.8407 224.23C81.3807 224.23 81.8307 224.103 82.1907 223.85ZM84.6446 219.93V220.82C84.8913 220.193 85.3346 219.88 85.9746 219.88C86.0679 219.88 86.1713 219.89 86.2846 219.91V220.87C86.1446 220.81 85.9879 220.78 85.8146 220.78C85.4746 220.78 85.1946 220.93 84.9746 221.23C84.7546 221.53 84.6446 221.887 84.6446 222.3V225H83.6646V219.93H84.6446ZM88.0333 219.93V220.8C88.3333 220.173 88.8599 219.86 89.6133 219.86C90.1133 219.86 90.5099 220.013 90.8033 220.32C91.0966 220.627 91.2433 221.043 91.2433 221.57V225H90.2633V221.8C90.2633 221.447 90.1733 221.177 89.9933 220.99C89.8199 220.803 89.5866 220.71 89.2933 220.71C88.9466 220.71 88.6499 220.847 88.4033 221.12C88.1566 221.387 88.0333 221.763 88.0333 222.25V225H87.0533V219.93H88.0333ZM92.6011 225V219.93H93.5911V225H92.6011ZM92.6511 218.82C92.5378 218.7 92.4811 218.553 92.4811 218.38C92.4811 218.207 92.5378 218.06 92.6511 217.94C92.7711 217.82 92.9178 217.76 93.0911 217.76C93.2644 217.76 93.4111 217.82 93.5311 217.94C93.6511 218.06 93.7111 218.207 93.7111 218.38C93.7111 218.547 93.6511 218.69 93.5311 218.81C93.4111 218.93 93.2644 218.99 93.0911 218.99C92.9178 218.99 92.7711 218.933 92.6511 218.82ZM95.0123 225V218H95.9923V225H95.0123ZM97.1623 222.35L99.1523 225H97.9823L96.0323 222.35L97.9423 219.93H99.0923L97.1623 222.35ZM102.682 222.74H101.922C101.549 222.74 101.266 222.813 101.072 222.96C100.886 223.107 100.792 223.293 100.792 223.52C100.792 223.753 100.866 223.937 101.012 224.07C101.159 224.203 101.372 224.27 101.652 224.27C101.972 224.27 102.222 224.183 102.402 224.01C102.589 223.83 102.682 223.597 102.682 223.31V222.74ZM100.132 221.14V220.19C100.526 219.963 101.046 219.85 101.692 219.85C103.019 219.85 103.682 220.493 103.682 221.78V225H102.712V224.4C102.452 224.827 101.996 225.04 101.342 225.04C100.862 225.04 100.476 224.903 100.182 224.63C99.8956 224.35 99.7523 223.997 99.7523 223.57C99.7523 223.083 99.9356 222.707 100.302 222.44C100.669 222.167 101.182 222.03 101.842 222.03H102.682V221.74C102.682 221.393 102.599 221.133 102.432 220.96C102.266 220.78 101.989 220.69 101.602 220.69C101.062 220.69 100.572 220.84 100.132 221.14ZM105.983 217.93V220.8C106.269 220.173 106.793 219.86 107.553 219.86C108.046 219.86 108.443 220.013 108.743 220.32C109.043 220.627 109.193 221.053 109.193 221.6V225H108.213V221.8C108.213 221.453 108.123 221.187 107.943 221C107.769 220.807 107.539 220.71 107.252 220.71C106.919 220.71 106.623 220.837 106.363 221.09C106.109 221.343 105.983 221.73 105.983 222.25V225H105.003V217.93H105.983ZM113.18 222.74H112.42C112.047 222.74 111.764 222.813 111.57 222.96C111.384 223.107 111.29 223.293 111.29 223.52C111.29 223.753 111.364 223.937 111.51 224.07C111.657 224.203 111.87 224.27 112.15 224.27C112.47 224.27 112.72 224.183 112.9 224.01C113.087 223.83 113.18 223.597 113.18 223.31V222.74ZM110.63 221.14V220.19C111.024 219.963 111.544 219.85 112.19 219.85C113.517 219.85 114.18 220.493 114.18 221.78V225H113.21V224.4C112.95 224.827 112.494 225.04 111.84 225.04C111.36 225.04 110.974 224.903 110.68 224.63C110.394 224.35 110.25 223.997 110.25 223.57C110.25 223.083 110.434 222.707 110.8 222.44C111.167 222.167 111.68 222.03 112.34 222.03H113.18V221.74C113.18 221.393 113.097 221.133 112.93 220.96C112.764 220.78 112.487 220.69 112.1 220.69C111.56 220.69 111.07 220.84 110.63 221.14ZM116.481 219.93V220.8C116.781 220.173 117.307 219.86 118.061 219.86C118.561 219.86 118.957 220.013 119.251 220.32C119.544 220.627 119.691 221.043 119.691 221.57V225H118.711V221.8C118.711 221.447 118.621 221.177 118.441 220.99C118.267 220.803 118.034 220.71 117.741 220.71C117.394 220.71 117.097 220.847 116.851 221.12C116.604 221.387 116.481 221.763 116.481 222.25V225H115.501V219.93H116.481ZM123.589 225V218.26H124.609V225H123.589ZM127.086 219.93V220.8C127.386 220.173 127.913 219.86 128.666 219.86C129.166 219.86 129.563 220.013 129.856 220.32C130.149 220.627 130.296 221.043 130.296 221.57V225H129.316V221.8C129.316 221.447 129.226 221.177 129.046 220.99C128.873 220.803 128.639 220.71 128.346 220.71C127.999 220.71 127.703 220.847 127.456 221.12C127.209 221.387 127.086 221.763 127.086 222.25V225H126.106V219.93H127.086ZM132.884 220.69V223.48C132.884 223.967 133.117 224.21 133.584 224.21C133.857 224.21 134.087 224.137 134.274 223.99V224.87C134.054 224.99 133.784 225.05 133.464 225.05C132.417 225.05 131.894 224.52 131.894 223.46V220.69H131.104V219.93H131.894V218.69H132.884V219.93H134.214V220.69H132.884ZM135.394 225V219.93H136.384V225H135.394ZM135.444 218.82C135.331 218.7 135.274 218.553 135.274 218.38C135.274 218.207 135.331 218.06 135.444 217.94C135.564 217.82 135.711 217.76 135.884 217.76C136.057 217.76 136.204 217.82 136.324 217.94C136.444 218.06 136.504 218.207 136.504 218.38C136.504 218.547 136.444 218.69 136.324 218.81C136.204 218.93 136.057 218.99 135.884 218.99C135.711 218.99 135.564 218.933 135.444 218.82ZM138.785 219.93V220.74C139.072 220.153 139.549 219.86 140.215 219.86C140.975 219.86 141.462 220.187 141.675 220.84C141.815 220.527 142.019 220.287 142.285 220.12C142.552 219.947 142.852 219.86 143.185 219.86C143.705 219.86 144.099 220.013 144.365 220.32C144.639 220.627 144.775 221.05 144.775 221.59V225H143.795V221.8C143.795 221.073 143.502 220.71 142.915 220.71C142.622 220.71 142.359 220.84 142.125 221.1C141.899 221.36 141.785 221.743 141.785 222.25V225H140.805V221.8C140.805 221.073 140.509 220.71 139.915 220.71C139.629 220.71 139.369 220.84 139.135 221.1C138.902 221.36 138.785 221.743 138.785 222.25V225H137.805V219.93H138.785ZM150.097 222.49H152.257L152.147 222.15C151.894 221.363 151.687 220.713 151.527 220.2C151.367 219.68 151.27 219.357 151.237 219.23L151.187 219.04C151.114 219.353 150.787 220.39 150.207 222.15L150.097 222.49ZM153.067 225L152.537 223.35H149.817L149.277 225H148.187L150.517 218.26H151.867L154.167 225H153.067ZM156.149 219.93V220.8C156.449 220.173 156.975 219.86 157.729 219.86C158.229 219.86 158.625 220.013 158.919 220.32C159.212 220.627 159.359 221.043 159.359 221.57V225H158.379V221.8C158.379 221.447 158.289 221.177 158.109 220.99C157.935 220.803 157.702 220.71 157.409 220.71C157.062 220.71 156.765 220.847 156.519 221.12C156.272 221.387 156.149 221.763 156.149 222.25V225H155.169V219.93H156.149ZM162.726 224.21C163.113 224.21 163.44 224.063 163.706 223.77C163.973 223.477 164.106 223.03 164.106 222.43C164.106 221.85 163.966 221.42 163.686 221.14C163.413 220.86 163.103 220.72 162.756 220.72C162.363 220.72 162.04 220.877 161.786 221.19C161.533 221.497 161.406 221.937 161.406 222.51C161.406 223.017 161.53 223.427 161.776 223.74C162.03 224.053 162.346 224.21 162.726 224.21ZM164.106 217.93H165.096V225H164.106V224.23C163.753 224.79 163.236 225.07 162.556 225.07C161.89 225.07 161.363 224.82 160.976 224.32C160.59 223.813 160.396 223.203 160.396 222.49C160.396 221.697 160.6 221.06 161.006 220.58C161.413 220.1 161.936 219.86 162.576 219.86C163.236 219.86 163.746 220.14 164.106 220.7V217.93ZM169.147 222.74H168.387C168.014 222.74 167.73 222.813 167.537 222.96C167.35 223.107 167.257 223.293 167.257 223.52C167.257 223.753 167.33 223.937 167.477 224.07C167.624 224.203 167.837 224.27 168.117 224.27C168.437 224.27 168.687 224.183 168.867 224.01C169.054 223.83 169.147 223.597 169.147 223.31V222.74ZM166.597 221.14V220.19C166.99 219.963 167.51 219.85 168.157 219.85C169.484 219.85 170.147 220.493 170.147 221.78V225H169.177V224.4C168.917 224.827 168.46 225.04 167.807 225.04C167.327 225.04 166.94 224.903 166.647 224.63C166.36 224.35 166.217 223.997 166.217 223.57C166.217 223.083 166.4 222.707 166.767 222.44C167.134 222.167 167.647 222.03 168.307 222.03H169.147V221.74C169.147 221.393 169.064 221.133 168.897 220.96C168.73 220.78 168.454 220.69 168.067 220.69C167.527 220.69 167.037 220.84 166.597 221.14ZM176.818 220.1V220.99C176.492 220.797 176.072 220.7 175.558 220.7C175.325 220.7 175.138 220.753 174.998 220.86C174.865 220.967 174.798 221.107 174.798 221.28C174.798 221.327 174.802 221.373 174.808 221.42C174.822 221.46 174.842 221.503 174.868 221.55C174.895 221.59 174.918 221.627 174.938 221.66C174.965 221.687 175.005 221.717 175.058 221.75C175.112 221.783 175.152 221.813 175.178 221.84C175.212 221.86 175.262 221.887 175.328 221.92C175.402 221.953 175.455 221.98 175.488 222C175.522 222.013 175.578 222.04 175.658 222.08C175.745 222.113 175.805 222.137 175.838 222.15C176.232 222.323 176.538 222.52 176.758 222.74C176.985 222.953 177.098 223.24 177.098 223.6C177.098 224.053 176.938 224.41 176.618 224.67C176.298 224.923 175.865 225.05 175.318 225.05C174.718 225.05 174.218 224.95 173.818 224.75V223.82C174.285 224.107 174.768 224.25 175.268 224.25C175.528 224.25 175.728 224.197 175.868 224.09C176.015 223.983 176.088 223.843 176.088 223.67C176.088 223.523 176.032 223.393 175.918 223.28C175.805 223.16 175.688 223.073 175.568 223.02C175.455 222.96 175.258 222.87 174.978 222.75C174.185 222.423 173.788 221.943 173.788 221.31C173.788 220.863 173.955 220.513 174.288 220.26C174.622 220.007 175.038 219.88 175.538 219.88C176.085 219.88 176.512 219.953 176.818 220.1ZM181.268 222.1V221.92C181.254 221.54 181.151 221.24 180.958 221.02C180.764 220.793 180.488 220.68 180.128 220.68C179.794 220.68 179.508 220.803 179.268 221.05C179.028 221.29 178.878 221.64 178.818 222.1H181.268ZM181.898 223.85V224.73C181.524 224.943 181.031 225.05 180.418 225.05C179.631 225.05 179.004 224.813 178.538 224.34C178.071 223.867 177.838 223.247 177.838 222.48C177.838 221.667 178.051 221.03 178.478 220.57C178.904 220.103 179.448 219.87 180.108 219.87C180.754 219.87 181.268 220.073 181.648 220.48C182.028 220.88 182.218 221.46 182.218 222.22C182.218 222.427 182.198 222.643 182.158 222.87H178.828C178.894 223.31 179.081 223.647 179.388 223.88C179.694 224.113 180.081 224.23 180.548 224.23C181.088 224.23 181.538 224.103 181.898 223.85ZM185.762 224.21C186.135 224.21 186.448 224.053 186.702 223.74C186.955 223.42 187.082 223.01 187.082 222.51C187.082 221.937 186.955 221.497 186.702 221.19C186.448 220.877 186.125 220.72 185.732 220.72C185.385 220.72 185.072 220.86 184.792 221.14C184.518 221.42 184.382 221.85 184.382 222.43C184.382 223.03 184.515 223.477 184.782 223.77C185.048 224.063 185.375 224.21 185.762 224.21ZM184.382 217.93V220.7C184.742 220.14 185.252 219.86 185.912 219.86C186.552 219.86 187.075 220.1 187.482 220.58C187.888 221.06 188.092 221.697 188.092 222.49C188.092 223.203 187.898 223.813 187.512 224.32C187.125 224.82 186.595 225.07 185.922 225.07C185.248 225.07 184.735 224.79 184.382 224.23V225H183.392V217.93H184.382ZM192.342 222.1V221.92C192.329 221.54 192.225 221.24 192.032 221.02C191.839 220.793 191.562 220.68 191.202 220.68C190.869 220.68 190.582 220.803 190.342 221.05C190.102 221.29 189.952 221.64 189.892 222.1H192.342ZM192.972 223.85V224.73C192.599 224.943 192.105 225.05 191.492 225.05C190.705 225.05 190.079 224.813 189.612 224.34C189.145 223.867 188.912 223.247 188.912 222.48C188.912 221.667 189.125 221.03 189.552 220.57C189.979 220.103 190.522 219.87 191.182 219.87C191.829 219.87 192.342 220.073 192.722 220.48C193.102 220.88 193.292 221.46 193.292 222.22C193.292 222.427 193.272 222.643 193.232 222.87H189.902C189.969 223.31 190.155 223.647 190.462 223.88C190.769 224.113 191.155 224.23 191.622 224.23C192.162 224.23 192.612 224.103 192.972 223.85ZM197.336 220.1V220.99C197.009 220.797 196.589 220.7 196.076 220.7C195.843 220.7 195.656 220.753 195.516 220.86C195.383 220.967 195.316 221.107 195.316 221.28C195.316 221.327 195.319 221.373 195.326 221.42C195.339 221.46 195.359 221.503 195.386 221.55C195.413 221.59 195.436 221.627 195.456 221.66C195.483 221.687 195.523 221.717 195.576 221.75C195.629 221.783 195.669 221.813 195.696 221.84C195.729 221.86 195.779 221.887 195.846 221.92C195.919 221.953 195.973 221.98 196.006 222C196.039 222.013 196.096 222.04 196.176 222.08C196.263 222.113 196.323 222.137 196.356 222.15C196.749 222.323 197.056 222.52 197.276 222.74C197.503 222.953 197.616 223.24 197.616 223.6C197.616 224.053 197.456 224.41 197.136 224.67C196.816 224.923 196.383 225.05 195.836 225.05C195.236 225.05 194.736 224.95 194.336 224.75V223.82C194.803 224.107 195.286 224.25 195.786 224.25C196.046 224.25 196.246 224.197 196.386 224.09C196.533 223.983 196.606 223.843 196.606 223.67C196.606 223.523 196.549 223.393 196.436 223.28C196.323 223.16 196.206 223.073 196.086 223.02C195.973 222.96 195.776 222.87 195.496 222.75C194.703 222.423 194.306 221.943 194.306 221.31C194.306 220.863 194.473 220.513 194.806 220.26C195.139 220.007 195.556 219.88 196.056 219.88C196.603 219.88 197.029 219.953 197.336 220.1ZM201.305 222.74H200.545C200.172 222.74 199.889 222.813 199.695 222.96C199.509 223.107 199.415 223.293 199.415 223.52C199.415 223.753 199.489 223.937 199.635 224.07C199.782 224.203 199.995 224.27 200.275 224.27C200.595 224.27 200.845 224.183 201.025 224.01C201.212 223.83 201.305 223.597 201.305 223.31V222.74ZM198.755 221.14V220.19C199.149 219.963 199.669 219.85 200.315 219.85C201.642 219.85 202.305 220.493 202.305 221.78V225H201.335V224.4C201.075 224.827 200.619 225.04 199.965 225.04C199.485 225.04 199.099 224.903 198.805 224.63C198.519 224.35 198.375 223.997 198.375 223.57C198.375 223.083 198.559 222.707 198.925 222.44C199.292 222.167 199.805 222.03 200.465 222.03H201.305V221.74C201.305 221.393 201.222 221.133 201.055 220.96C200.889 220.78 200.612 220.69 200.225 220.69C199.685 220.69 199.195 220.84 198.755 221.14ZM204.606 219.93V220.82C204.852 220.193 205.296 219.88 205.936 219.88C206.029 219.88 206.132 219.89 206.246 219.91V220.87C206.106 220.81 205.949 220.78 205.776 220.78C205.436 220.78 205.156 220.93 204.936 221.23C204.716 221.53 204.606 221.887 204.606 222.3V225H203.626V219.93H204.606Z" fill="#2B2B2B"/>
<path d="M210.545 219.12V221.58H211.475C211.902 221.58 212.225 221.47 212.445 221.25C212.665 221.023 212.775 220.723 212.775 220.35C212.775 219.53 212.325 219.12 211.425 219.12H210.545ZM213.015 225L211.435 222.44H210.545V225H209.515V218.26H211.395C212.168 218.26 212.765 218.45 213.185 218.83C213.605 219.203 213.815 219.713 213.815 220.36C213.808 220.833 213.688 221.237 213.455 221.57C213.222 221.897 212.898 222.133 212.485 222.28L214.245 225H213.015ZM217.499 224.21C217.892 224.21 218.215 224.057 218.469 223.75C218.722 223.437 218.849 223 218.849 222.44C218.849 221.913 218.725 221.497 218.479 221.19C218.232 220.877 217.919 220.72 217.539 220.72C217.159 220.72 216.829 220.86 216.549 221.14C216.275 221.413 216.139 221.85 216.139 222.45C216.139 223.037 216.275 223.477 216.549 223.77C216.829 224.063 217.145 224.21 217.499 224.21ZM216.139 219.93V220.71C216.485 220.143 217.005 219.86 217.699 219.86C218.365 219.86 218.892 220.103 219.279 220.59C219.665 221.07 219.859 221.683 219.859 222.43C219.859 223.197 219.659 223.83 219.259 224.33C218.865 224.823 218.339 225.07 217.679 225.07C217.005 225.07 216.492 224.79 216.139 224.23V226.94H215.159V219.93H216.139ZM223.14 221.71C223.14 220.683 223.344 219.87 223.75 219.27C224.164 218.663 224.727 218.36 225.44 218.36C226.167 218.36 226.737 218.66 227.15 219.26C227.564 219.86 227.77 220.677 227.77 221.71C227.77 222.73 227.567 223.547 227.16 224.16C226.76 224.773 226.187 225.08 225.44 225.08C224.727 225.08 224.164 224.773 223.75 224.16C223.344 223.547 223.14 222.73 223.14 221.71ZM224.51 219.91C224.264 220.33 224.14 220.93 224.14 221.71C224.14 222.49 224.26 223.097 224.5 223.53C224.747 223.957 225.06 224.17 225.44 224.17C225.854 224.17 226.177 223.957 226.41 223.53C226.644 223.103 226.76 222.497 226.76 221.71C226.76 220.917 226.637 220.313 226.39 219.9C226.15 219.48 225.834 219.27 225.44 219.27C225.067 219.27 224.757 219.483 224.51 219.91ZM228.1 226.24L229.06 223.9H230.27L228.96 226.24H228.1ZM231.041 221.71C231.041 220.683 231.244 219.87 231.651 219.27C232.064 218.663 232.628 218.36 233.341 218.36C234.068 218.36 234.638 218.66 235.051 219.26C235.464 219.86 235.671 220.677 235.671 221.71C235.671 222.73 235.468 223.547 235.061 224.16C234.661 224.773 234.088 225.08 233.341 225.08C232.628 225.08 232.064 224.773 231.651 224.16C231.244 223.547 231.041 222.73 231.041 221.71ZM232.411 219.91C232.164 220.33 232.041 220.93 232.041 221.71C232.041 222.49 232.161 223.097 232.401 223.53C232.648 223.957 232.961 224.17 233.341 224.17C233.754 224.17 234.078 223.957 234.311 223.53C234.544 223.103 234.661 222.497 234.661 221.71C234.661 220.917 234.538 220.313 234.291 219.9C234.051 219.48 233.734 219.27 233.341 219.27C232.968 219.27 232.658 219.483 232.411 219.91ZM236.49 221.71C236.49 220.683 236.693 219.87 237.1 219.27C237.513 218.663 238.077 218.36 238.79 218.36C239.517 218.36 240.087 218.66 240.5 219.26C240.913 219.86 241.12 220.677 241.12 221.71C241.12 222.73 240.917 223.547 240.51 224.16C240.11 224.773 239.537 225.08 238.79 225.08C238.077 225.08 237.513 224.773 237.1 224.16C236.693 223.547 236.49 222.73 236.49 221.71ZM237.86 219.91C237.613 220.33 237.49 220.93 237.49 221.71C237.49 222.49 237.61 223.097 237.85 223.53C238.097 223.957 238.41 224.17 238.79 224.17C239.203 224.17 239.527 223.957 239.76 223.53C239.993 223.103 240.11 222.497 240.11 221.71C240.11 220.917 239.987 220.313 239.74 219.9C239.5 219.48 239.183 219.27 238.79 219.27C238.417 219.27 238.107 219.483 237.86 219.91ZM241.939 221.71C241.939 220.683 242.143 219.87 242.549 219.27C242.963 218.663 243.526 218.36 244.239 218.36C244.966 218.36 245.536 218.66 245.949 219.26C246.363 219.86 246.569 220.677 246.569 221.71C246.569 222.73 246.366 223.547 245.959 224.16C245.559 224.773 244.986 225.08 244.239 225.08C243.526 225.08 242.963 224.773 242.549 224.16C242.143 223.547 241.939 222.73 241.939 221.71ZM243.309 219.91C243.063 220.33 242.939 220.93 242.939 221.71C242.939 222.49 243.059 223.097 243.299 223.53C243.546 223.957 243.859 224.17 244.239 224.17C244.653 224.17 244.976 223.957 245.209 223.53C245.443 223.103 245.559 222.497 245.559 221.71C245.559 220.917 245.436 220.313 245.189 219.9C244.949 219.48 244.633 219.27 244.239 219.27C243.866 219.27 243.556 219.483 243.309 219.91ZM246.899 226.24L247.859 223.9H249.069L247.759 226.24H246.899ZM249.84 221.71C249.84 220.683 250.043 219.87 250.45 219.27C250.863 218.663 251.426 218.36 252.14 218.36C252.866 218.36 253.436 218.66 253.85 219.26C254.263 219.86 254.47 220.677 254.47 221.71C254.47 222.73 254.266 223.547 253.86 224.16C253.46 224.773 252.886 225.08 252.14 225.08C251.426 225.08 250.863 224.773 250.45 224.16C250.043 223.547 249.84 222.73 249.84 221.71ZM251.21 219.91C250.963 220.33 250.84 220.93 250.84 221.71C250.84 222.49 250.96 223.097 251.2 223.53C251.446 223.957 251.76 224.17 252.14 224.17C252.553 224.17 252.876 223.957 253.11 223.53C253.343 223.103 253.46 222.497 253.46 221.71C253.46 220.917 253.336 220.313 253.09 219.9C252.85 219.48 252.533 219.27 252.14 219.27C251.766 219.27 251.456 219.483 251.21 219.91ZM255.289 221.71C255.289 220.683 255.492 219.87 255.899 219.27C256.312 218.663 256.876 218.36 257.589 218.36C258.316 218.36 258.886 218.66 259.299 219.26C259.712 219.86 259.919 220.677 259.919 221.71C259.919 222.73 259.716 223.547 259.309 224.16C258.909 224.773 258.336 225.08 257.589 225.08C256.876 225.08 256.312 224.773 255.899 224.16C255.492 223.547 255.289 222.73 255.289 221.71ZM256.659 219.91C256.412 220.33 256.289 220.93 256.289 221.71C256.289 222.49 256.409 223.097 256.649 223.53C256.896 223.957 257.209 224.17 257.589 224.17C258.002 224.17 258.326 223.957 258.559 223.53C258.792 223.103 258.909 222.497 258.909 221.71C258.909 220.917 258.786 220.313 258.539 219.9C258.299 219.48 257.982 219.27 257.589 219.27C257.216 219.27 256.906 219.483 256.659 219.91ZM260.738 221.71C260.738 220.683 260.941 219.87 261.348 219.27C261.761 218.663 262.325 218.36 263.038 218.36C263.765 218.36 264.335 218.66 264.748 219.26C265.161 219.86 265.368 220.677 265.368 221.71C265.368 222.73 265.165 223.547 264.758 224.16C264.358 224.773 263.785 225.08 263.038 225.08C262.325 225.08 261.761 224.773 261.348 224.16C260.941 223.547 260.738 222.73 260.738 221.71ZM262.108 219.91C261.861 220.33 261.738 220.93 261.738 221.71C261.738 222.49 261.858 223.097 262.098 223.53C262.345 223.957 262.658 224.17 263.038 224.17C263.451 224.17 263.775 223.957 264.008 223.53C264.241 223.103 264.358 222.497 264.358 221.71C264.358 220.917 264.235 220.313 263.988 219.9C263.748 219.48 263.431 219.27 263.038 219.27C262.665 219.27 262.355 219.483 262.108 219.91Z" fill="#FF1934"/>
<rect x="109" y="254" width="120" height="24" rx="8" fill="#FF1934"/>
<path d="M157.959 267.176L158.823 267.176C159.468 267.176 159.791 266.931 159.791 266.44C159.791 265.939 159.455 265.688 158.783 265.688L157.959 265.688L157.959 267.176ZM157.959 263.432L157.959 264.88L158.567 264.88C158.929 264.88 159.201 264.808 159.383 264.664C159.564 264.52 159.655 264.336 159.655 264.112C159.655 263.904 159.577 263.739 159.423 263.616C159.273 263.493 159.044 263.432 158.735 263.432L157.959 263.432ZM156.951 262.608L158.863 262.608C159.439 262.608 159.887 262.744 160.207 263.016C160.527 263.288 160.687 263.64 160.687 264.072C160.687 264.365 160.607 264.621 160.447 264.84C160.287 265.053 160.081 265.195 159.831 265.264C160.119 265.333 160.356 265.475 160.543 265.688C160.729 265.896 160.823 266.181 160.823 266.544C160.823 266.971 160.673 267.32 160.375 267.592C160.076 267.864 159.663 268 159.135 268L156.951 268L156.951 262.608ZM163.053 265.952L164.573 265.952L164.501 265.712C164.32 265.136 164.17 264.653 164.053 264.264C163.941 263.869 163.872 263.621 163.845 263.52L163.813 263.36C163.765 263.627 163.536 264.413 163.125 265.72L163.053 265.952ZM165.213 268L164.829 266.776L162.789 266.776L162.405 268L161.349 268L163.173 262.608L164.477 262.608L166.301 268L165.213 268ZM171.364 262.608L169.508 266L169.508 268L168.5 268L168.5 266.032L166.66 262.608L167.836 262.608L168.196 263.392C168.404 263.845 168.574 264.227 168.708 264.536C168.841 264.84 168.921 265.029 168.948 265.104L168.996 265.224C169.044 265.027 169.318 264.416 169.82 263.392L170.188 262.608L171.364 262.608ZM173.436 265.952L174.956 265.952L174.884 265.712C174.702 265.136 174.553 264.653 174.436 264.264C174.324 263.869 174.254 263.621 174.228 263.52L174.196 263.36C174.148 263.627 173.918 264.413 173.508 265.72L173.436 265.952ZM175.596 268L175.212 266.776L173.172 266.776L172.788 268L171.732 268L173.556 262.608L174.86 262.608L176.684 268L175.596 268ZM178.466 263.44L178.466 265.2L179.138 265.2C179.448 265.2 179.68 265.123 179.834 264.968C179.989 264.808 180.066 264.587 180.066 264.304C180.066 264.027 179.984 263.813 179.818 263.664C179.658 263.515 179.426 263.44 179.122 263.44L178.466 263.44ZM180.242 268L179.018 266.032L178.466 266.032L178.466 268L177.458 268L177.458 262.608L179.122 262.608C179.736 262.608 180.216 262.763 180.562 263.072C180.914 263.381 181.09 263.795 181.09 264.312C181.085 264.696 180.992 265.021 180.81 265.288C180.629 265.549 180.381 265.744 180.066 265.872L181.45 268L180.242 268Z" fill="white"/>
<path d="M9 341.5H329C333.694 341.5 337.5 345.306 337.5 350C337.5 354.694 333.694 358.5 329 358.5H9C4.30558 358.5 0.5 354.694 0.5 350C0.500002 345.306 4.30558 341.5 9 341.5Z" fill="white"/>
<path d="M9 341.5H329C333.694 341.5 337.5 345.306 337.5 350C337.5 354.694 333.694 358.5 329 358.5H9C4.30558 358.5 0.5 354.694 0.5 350C0.500002 345.306 4.30558 341.5 9 341.5Z" stroke="#CCCCCC"/>
<path d="M7.86805e-07 350C3.52265e-07 345.029 4.02944 341 9 341L39 341C43.9706 341 48 345.029 48 350C48 354.971 43.9706 359 39 359L9 359C4.02944 359 1.22135e-06 354.971 7.86805e-07 350Z" fill="#FF1934"/>
<path d="M15.448 346.688H16.264L16.816 348.6L17.456 350.92C17.5893 350.179 17.7547 349.403 17.952 348.592L18.44 346.608H19.464L18.088 352H16.92L16.432 350.296C16.2987 349.843 16.184 349.443 16.088 349.096C15.9973 348.749 15.936 348.517 15.904 348.4L15.864 348.216C15.7893 348.589 15.6027 349.283 15.304 350.296L14.8 352H13.64L12.2 346.608H13.264L13.768 348.6C13.8533 348.957 13.9387 349.328 14.024 349.712C14.1093 350.096 14.1733 350.389 14.216 350.592L14.28 350.904C14.4507 350.232 14.6587 349.464 14.904 348.6L15.448 346.688ZM22.2561 350.256H21.7601C21.5094 350.256 21.3174 350.309 21.1841 350.416C21.0507 350.517 20.9841 350.648 20.9841 350.808C20.9841 351.149 21.1814 351.32 21.5761 351.32C21.7894 351.32 21.9547 351.259 22.0721 351.136C22.1947 351.008 22.2561 350.843 22.2561 350.64V350.256ZM20.2881 349.04V348.152C20.5921 347.965 21.0294 347.872 21.6001 347.872C22.6987 347.872 23.2481 348.384 23.2481 349.408V352H22.2961V351.512C22.1094 351.859 21.7574 352.032 21.2401 352.032C20.8561 352.032 20.5494 351.92 20.3201 351.696C20.0961 351.472 19.9841 351.189 19.9841 350.848C19.9841 350.464 20.1281 350.163 20.4161 349.944C20.7041 349.725 21.1201 349.616 21.6641 349.616H22.2561V349.368C22.2561 349.144 22.1974 348.973 22.0801 348.856C21.9627 348.739 21.7627 348.68 21.4801 348.68C21.0481 348.68 20.6507 348.8 20.2881 349.04ZM27.7828 352H26.6548L25.1988 349.904V352H24.2388V346.44H25.1988V349.848L26.6308 347.944H27.7508L26.2628 349.88L27.7828 352ZM29.5864 348.664V350.728C29.5864 350.899 29.6318 351.029 29.7224 351.12C29.8131 351.205 29.9384 351.248 30.0984 351.248C30.3011 351.248 30.4878 351.192 30.6584 351.08V351.904C30.4718 351.995 30.2318 352.04 29.9384 352.04C29.0638 352.04 28.6264 351.597 28.6264 350.712V348.664H28.0184V347.944H28.6264V346.968H29.5864V347.944H30.5944V348.664H29.5864ZM33.9617 347.944H34.9297V352H33.9617V351.336C33.7484 351.805 33.3324 352.04 32.7137 352.04C32.303 352.04 31.983 351.923 31.7537 351.688C31.5244 351.453 31.4097 351.12 31.4097 350.688V347.944H32.3697V350.464C32.3697 350.72 32.431 350.915 32.5537 351.048C32.6817 351.181 32.855 351.248 33.0737 351.248C33.351 351.248 33.567 351.155 33.7217 350.968C33.8817 350.781 33.9617 350.499 33.9617 350.12V347.944Z" fill="white"/>
<rect x="56" y="348" width="274" height="4" rx="2" fill="#CCCCCC"/>
<mask id="mask0_1124_4113" style="mask-type:alpha" maskUnits="userSpaceOnUse" x="56" y="348" width="274" height="4">
<rect x="56" y="348" width="274" height="4" rx="2" fill="#CCCCCC"/>
</mask>
<g mask="url(#mask0_1124_4113)">
<rect x="56" y="348" width="274" height="4" rx="2" fill="#FF1934"/>
</g>
<defs>
<filter id="filter0_d_1124_4113" x="22.5" y="14" width="293" height="56" filterUnits="userSpaceOnUse" color-interpolation-filters="sRGB">
<feFlood flood-opacity="0" result="BackgroundImageFix"/>
<feColorMatrix in="SourceAlpha" type="matrix" values="0 0 0 0 0 0 0 0 0 0 0 0 0 0 0 0 0 0 127 0" result="hardAlpha"/>
<feOffset dy="2"/>
<feGaussianBlur stdDeviation="2"/>
<feComposite in2="hardAlpha" operator="out"/>
<feColorMatrix type="matrix" values="0 0 0 0 0.168627 0 0 0 0 0.168627 0 0 0 0 0.168627 0 0 0 0.24 0"/>
<feBlend mode="normal" in2="BackgroundImageFix" result="effect1_dropShadow_1124_4113"/>
<feBlend mode="normal" in="SourceGraphic" in2="effect1_dropShadow_1124_4113" result="shape"/>
</filter>
<clipPath id="clip0_1124_4113">
<rect width="24" height="24" fill="white" transform="translate(42.5 32)"/>
</clipPath>
<clipPath id="clip1_1124_4113">
<rect width="64" height="64" fill="white" transform="translate(137 88)"/>
</clipPath>
</defs>
</svg>
