<svg width="338" height="375" viewBox="0 0 338 375" fill="none" xmlns="http://www.w3.org/2000/svg">
<rect width="338" height="375" fill="#D3D3D3"/>
<rect x="26.5" y="16" width="285" height="294" rx="16" fill="white"/>
<g filter="url(#filter0_d_1124_4113)">
<path d="M26.5 32C26.5 23.1634 33.6634 16 42.5 16H295.5C304.337 16 311.5 23.1634 311.5 32V64H26.5V32Z" fill="#FF1934" shape-rendering="crispEdges"/>
<g clip-path="url(#clip0_1124_4113)">
<path d="M54.5 34C48.99 34 44.5 38.49 44.5 44C44.5 46.27 45.24 48.41 46.64 50.18C46.91 50.53 47.42 50.59 47.76 50.31C48.11 50.04 48.17 49.53 47.89 49.19C46.71 47.7 46.09 45.9 46.09 44C46.1 39.37 49.87 35.6 54.5 35.6C59.13 35.6 62.9 39.37 62.9 44C62.9 48.63 59.13 52.4 54.5 52.4C52.82 52.4 51.19 51.9 49.8 50.97C49.43 50.72 48.94 50.82 48.69 51.18C48.44 51.54 48.54 52.04 48.9 52.29C50.56 53.41 52.49 54 54.49 54C60 54 64.49 49.51 64.49 44C64.49 38.49 60.01 34 54.5 34Z" fill="white"/>
<path d="M58.2402 38.14C57.8702 37.9 57.3702 38.01 57.1302 38.38L53.8202 43.57C53.7402 43.7 53.7002 43.85 53.7002 44V48C53.7002 48.44 54.0602 48.8 54.5002 48.8C54.9402 48.8 55.3002 48.44 55.3002 48V44.23L58.4902 39.24C58.7302 38.87 58.6202 38.37 58.2502 38.13L58.2402 38.14Z" fill="white"/>
</g>
<path d="M77.566 46.11H81.052V48H75.41V38.564H77.566V46.11ZM82.2459 48V40.902H84.2899V48H82.2459ZM82.4279 39.684C82.1946 39.4507 82.0779 39.1707 82.0779 38.844C82.0779 38.5173 82.1946 38.2373 82.4279 38.004C82.6613 37.7707 82.9413 37.654 83.2679 37.654C83.5946 37.654 83.8746 37.7707 84.1079 38.004C84.3413 38.2373 84.4579 38.5173 84.4579 38.844C84.4579 39.1707 84.3413 39.4507 84.1079 39.684C83.8746 39.9173 83.5946 40.034 83.2679 40.034C82.9413 40.034 82.6613 39.9173 82.4279 39.684ZM88.0891 40.902V42.106C88.2664 41.714 88.5371 41.406 88.9011 41.182C89.2744 40.9487 89.7177 40.832 90.2311 40.832C90.9591 40.832 91.5284 41.0513 91.9391 41.49C92.3497 41.9193 92.5551 42.554 92.5551 43.394V48H90.5111V43.772C90.5111 43.352 90.4131 43.0347 90.2171 42.82C90.0211 42.596 89.7457 42.484 89.3911 42.484C89.0177 42.484 88.7051 42.6333 88.4531 42.932C88.2104 43.2213 88.0891 43.66 88.0891 44.248V48H86.0451V40.902H88.0891ZM94.2362 48V40.902H96.2802V48H94.2362ZM94.4182 39.684C94.1848 39.4507 94.0682 39.1707 94.0682 38.844C94.0682 38.5173 94.1848 38.2373 94.4182 38.004C94.6515 37.7707 94.9315 37.654 95.2582 37.654C95.5848 37.654 95.8648 37.7707 96.0982 38.004C96.3315 38.2373 96.4482 38.5173 96.4482 38.844C96.4482 39.1707 96.3315 39.4507 96.0982 39.684C95.8648 39.9173 95.5848 40.034 95.2582 40.034C94.9315 40.034 94.6515 39.9173 94.4182 39.684ZM101.395 48L102.207 38.564H104.573L105.889 41.98C106.113 42.5493 106.305 43.072 106.463 43.548C106.622 44.024 106.725 44.36 106.771 44.556L106.841 44.836C106.991 44.22 107.317 43.268 107.821 41.98L109.151 38.564H111.517L112.497 48H110.341L109.991 44.346L109.809 41.588C109.567 42.288 109.231 43.2073 108.801 44.346L107.471 47.902H106.197L104.881 44.346C104.667 43.7673 104.485 43.2493 104.335 42.792C104.186 42.3347 104.088 42.0173 104.041 41.84L103.971 41.588C103.971 42.2507 103.929 43.17 103.845 44.346L103.551 48H101.395ZM117.545 45.088H116.887C116.542 45.088 116.276 45.1627 116.089 45.312C115.903 45.4613 115.809 45.6527 115.809 45.886C115.809 46.362 116.085 46.6 116.635 46.6C116.925 46.6 117.149 46.5113 117.307 46.334C117.466 46.1567 117.545 45.914 117.545 45.606V45.088ZM114.227 43.086V41.252C114.787 40.9347 115.595 40.776 116.649 40.776C117.657 40.776 118.409 40.9953 118.903 41.434C119.398 41.8633 119.645 42.5353 119.645 43.45V48H117.643V47.132C117.345 47.7387 116.757 48.042 115.879 48.042C115.189 48.042 114.647 47.846 114.255 47.454C113.873 47.062 113.681 46.572 113.681 45.984C113.681 45.3027 113.929 44.7753 114.423 44.402C114.927 44.0193 115.669 43.828 116.649 43.828H117.545V43.338C117.545 42.7407 117.149 42.442 116.355 42.442C115.59 42.442 114.881 42.6567 114.227 43.086ZM125.73 41.112V42.862C125.235 42.5727 124.657 42.428 123.994 42.428C123.751 42.428 123.565 42.4793 123.434 42.582C123.303 42.6753 123.238 42.7967 123.238 42.946C123.238 43.03 123.261 43.1093 123.308 43.184C123.355 43.2587 123.429 43.3287 123.532 43.394C123.644 43.4593 123.747 43.52 123.84 43.576C123.943 43.6227 124.078 43.6833 124.246 43.758C124.423 43.8327 124.563 43.898 124.666 43.954C125.095 44.178 125.441 44.4393 125.702 44.738C125.963 45.0273 126.094 45.4007 126.094 45.858C126.094 46.558 125.842 47.0993 125.338 47.482C124.834 47.8647 124.167 48.056 123.336 48.056C122.477 48.056 121.759 47.9113 121.18 47.622V45.802C121.824 46.25 122.505 46.474 123.224 46.474C123.737 46.474 123.994 46.3107 123.994 45.984C123.994 45.9 123.971 45.8207 123.924 45.746C123.877 45.6713 123.798 45.6013 123.686 45.536C123.574 45.4707 123.471 45.4193 123.378 45.382C123.285 45.3353 123.149 45.2747 122.972 45.2C122.795 45.1253 122.659 45.0647 122.566 45.018C121.623 44.57 121.152 43.898 121.152 43.002C121.152 42.3113 121.413 41.7747 121.936 41.392C122.468 41.0093 123.126 40.818 123.91 40.818C124.638 40.818 125.245 40.916 125.73 41.112ZM130.862 45.088H130.204C129.858 45.088 129.592 45.1627 129.406 45.312C129.219 45.4613 129.126 45.6527 129.126 45.886C129.126 46.362 129.401 46.6 129.952 46.6C130.241 46.6 130.465 46.5113 130.624 46.334C130.782 46.1567 130.862 45.914 130.862 45.606V45.088ZM127.544 43.086V41.252C128.104 40.9347 128.911 40.776 129.966 40.776C130.974 40.776 131.725 40.9953 132.22 41.434C132.714 41.8633 132.962 42.5353 132.962 43.45V48H130.96V47.132C130.661 47.7387 130.073 48.042 129.196 48.042C128.505 48.042 127.964 47.846 127.572 47.454C127.189 47.062 126.998 46.572 126.998 45.984C126.998 45.3027 127.245 44.7753 127.74 44.402C128.244 44.0193 128.986 43.828 129.966 43.828H130.862V43.338C130.862 42.7407 130.465 42.442 129.672 42.442C128.906 42.442 128.197 42.6567 127.544 43.086Z" fill="white"/>
</g>
<g clip-path="url(#clip1_1124_4113)">
<path d="M169 138.65C160.603 138.65 152.56 139.191 150.726 139.994C148.431 140.997 156.353 142.017 169 142.017C181.647 142.017 189.568 140.997 187.274 139.994C185.439 139.192 177.396 138.65 169 138.65Z" fill="#CCCCCC"/>
<path d="M172.908 106.177L177.215 109.119L177.882 108.636L173.114 105.38L172.908 106.177Z" fill="#D9AA16"/>
<path d="M159.1 131.018C167.439 136.713 177.722 136.173 182.067 129.812C186.412 123.45 183.174 113.675 174.834 107.98C166.495 102.284 156.212 102.824 151.867 109.186C147.522 115.548 150.76 125.322 159.1 131.018Z" fill="#DA011C"/>
<path d="M159.615 130.477C162.544 132.457 165.955 133.775 169.456 134.08C172.958 134.384 176.016 133.63 178.346 132.109L166.967 119.498L159.614 130.476L159.615 130.477Z" fill="#FF1934"/>
<path d="M178.267 132.161C180.618 130.661 182.289 128.362 182.875 125.418C183.461 122.475 182.873 119.335 181.403 116.414L166.967 119.499L178.267 132.161Z" fill="#D9AA16"/>
<path d="M151.061 113.58C150.514 116.314 150.949 119.439 152.529 122.585C154.109 125.731 156.595 128.418 159.515 130.41L166.967 119.499L151.062 113.581L151.061 113.58Z" fill="#1699D9"/>
<path d="M181.403 116.414C179.938 113.491 177.563 110.733 174.421 108.586C171.278 106.44 167.845 105.232 164.589 104.93L166.967 119.499L181.403 116.414Z" fill="#CC0BD9"/>
<path d="M164.478 104.92C161.225 104.634 158.096 105.25 155.585 106.886C153.074 108.522 151.562 110.93 151.043 113.673L166.966 119.499L164.478 104.92Z" fill="#008C1E"/>
<path d="M151.042 113.673L166.797 119.536L159.416 130.342C159.449 130.365 159.481 130.389 159.514 130.412C159.547 130.435 159.581 130.455 159.615 130.478L166.995 119.671L178.189 132.214C178.242 132.18 178.297 132.148 178.35 132.114L167.155 119.569L181.454 116.513C181.421 116.447 181.385 116.38 181.352 116.315L167.055 119.37L164.7 104.942C164.626 104.934 164.552 104.925 164.478 104.919L166.834 119.35L151.076 113.486C151.063 113.548 151.053 113.61 151.042 113.673Z" fill="white"/>
<g style="mix-blend-mode:multiply" opacity="0.32">
<path d="M159.514 130.411C167.415 135.807 177.156 135.296 181.272 129.269C185.388 123.242 182.321 113.982 174.42 108.586C166.52 103.19 156.778 103.702 152.662 109.729C148.546 115.756 151.613 125.016 159.514 130.411ZM174.006 109.192C181.468 114.288 184.365 123.034 180.478 128.726C176.59 134.419 167.39 134.902 159.928 129.806C152.466 124.709 149.569 115.964 153.457 110.271C157.344 104.579 166.544 104.096 174.006 109.192Z" fill="#2B2B2B"/>
</g>
<path d="M166.139 120.711C167.017 121.311 168.099 121.254 168.556 120.584C169.014 119.915 168.673 118.886 167.795 118.287C166.918 117.687 165.835 117.744 165.378 118.414C164.921 119.083 165.262 120.112 166.139 120.711Z" fill="white"/>
<path d="M177.882 108.636C177.511 107.742 176.864 106.921 175.973 106.313C175.082 105.704 174.081 105.4 173.114 105.38L173.489 109.95L177.882 108.636Z" fill="#D9AA16"/>
<path d="M173.114 105.38L172.908 106.177L173.196 106.374L173.114 105.38Z" fill="#D9AA16"/>
<path d="M177.214 109.119C177.214 109.119 177.464 108.938 177.548 108.877C177.632 108.817 177.553 108.734 177.444 108.767C177.314 108.806 176.927 108.922 176.927 108.922L177.215 109.118L177.214 109.119Z" fill="#B76F09"/>
<path d="M172.907 106.177C172.907 106.177 172.985 105.878 173.011 105.778C173.037 105.678 173.143 105.721 173.152 105.835C173.163 105.97 173.196 106.373 173.196 106.373L172.908 106.177L172.907 106.177Z" fill="#B76F09"/>
<path d="M175.766 106.616C176.426 107.067 176.953 107.661 177.308 108.35L173.882 109.374L173.59 105.81C174.36 105.89 175.105 106.165 175.766 106.616Z" fill="white"/>
</g>
<path d="M103.222 179.332H105.49L105.392 178.996C105.121 178.081 104.897 177.302 104.72 176.658C104.552 176.014 104.449 175.599 104.412 175.412L104.356 175.132C104.281 175.645 103.936 176.933 103.32 178.996L103.222 179.332ZM106.582 183L106.008 181.068H102.704L102.13 183H99.8757L103.026 173.564H105.742L108.892 183H106.582ZM112.104 175.902V177.106C112.281 176.714 112.552 176.406 112.916 176.182C113.289 175.949 113.732 175.832 114.246 175.832C114.974 175.832 115.543 176.051 115.954 176.49C116.364 176.919 116.57 177.554 116.57 178.394V183H114.526V178.772C114.526 178.352 114.428 178.035 114.232 177.82C114.036 177.596 113.76 177.484 113.406 177.484C113.032 177.484 112.72 177.633 112.468 177.932C112.225 178.221 112.104 178.66 112.104 179.248V183H110.06V175.902H112.104ZM121.443 181.376C121.909 181.376 122.287 181.194 122.577 180.83C122.866 180.466 123.011 179.981 123.011 179.374C123.011 178.786 122.852 178.329 122.535 178.002C122.227 177.675 121.858 177.512 121.429 177.512C120.999 177.512 120.635 177.685 120.337 178.03C120.047 178.375 119.903 178.856 119.903 179.472C119.903 180.041 120.052 180.503 120.351 180.858C120.649 181.203 121.013 181.376 121.443 181.376ZM123.011 173.102H125.055V183H123.011V181.894C122.535 182.687 121.825 183.084 120.883 183.084C119.959 183.084 119.217 182.725 118.657 182.006C118.106 181.287 117.831 180.429 117.831 179.43C117.831 178.31 118.12 177.428 118.699 176.784C119.277 176.14 120.01 175.818 120.897 175.818C121.821 175.818 122.525 176.21 123.011 176.994V173.102ZM130.253 180.088H129.595C129.25 180.088 128.984 180.163 128.797 180.312C128.611 180.461 128.517 180.653 128.517 180.886C128.517 181.362 128.793 181.6 129.343 181.6C129.633 181.6 129.857 181.511 130.015 181.334C130.174 181.157 130.253 180.914 130.253 180.606V180.088ZM126.935 178.086V176.252C127.495 175.935 128.303 175.776 129.357 175.776C130.365 175.776 131.117 175.995 131.611 176.434C132.106 176.863 132.353 177.535 132.353 178.45V183H130.351V182.132C130.053 182.739 129.465 183.042 128.587 183.042C127.897 183.042 127.355 182.846 126.963 182.454C126.581 182.062 126.389 181.572 126.389 180.984C126.389 180.303 126.637 179.775 127.131 179.402C127.635 179.019 128.377 178.828 129.357 178.828H130.253V178.338C130.253 177.741 129.857 177.442 129.063 177.442C128.298 177.442 127.589 177.657 126.935 178.086ZM137.318 183L138.13 173.564H140.496L141.812 176.98C142.036 177.549 142.227 178.072 142.386 178.548C142.545 179.024 142.647 179.36 142.694 179.556L142.764 179.836C142.913 179.22 143.24 178.268 143.744 176.98L145.074 173.564H147.44L148.42 183H146.264L145.914 179.346L145.732 176.588C145.489 177.288 145.153 178.207 144.724 179.346L143.394 182.902H142.12L140.804 179.346C140.589 178.767 140.407 178.249 140.258 177.792C140.109 177.335 140.011 177.017 139.964 176.84L139.894 176.588C139.894 177.251 139.852 178.17 139.768 179.346L139.474 183H137.318ZM154.056 178.8V178.632C153.991 177.801 153.627 177.386 152.964 177.386C152.638 177.386 152.348 177.507 152.096 177.75C151.844 177.983 151.676 178.333 151.592 178.8H154.056ZM155.526 180.886V182.594C155.041 182.911 154.299 183.07 153.3 183.07C152.134 183.07 151.224 182.734 150.57 182.062C149.926 181.381 149.604 180.508 149.604 179.444C149.604 178.315 149.917 177.433 150.542 176.798C151.177 176.154 151.956 175.832 152.88 175.832C153.832 175.832 154.584 176.112 155.134 176.672C155.685 177.223 155.96 178.049 155.96 179.15C155.96 179.365 155.923 179.733 155.848 180.256H151.676C151.816 180.648 152.059 180.951 152.404 181.166C152.75 181.381 153.165 181.488 153.65 181.488C154.369 181.488 154.994 181.287 155.526 180.886ZM159.463 175.902V177.008C159.855 176.224 160.522 175.832 161.465 175.832C162.464 175.832 163.126 176.28 163.453 177.176C163.612 176.756 163.878 176.429 164.251 176.196C164.624 175.953 165.063 175.832 165.567 175.832C166.267 175.832 166.818 176.056 167.219 176.504C167.63 176.943 167.835 177.591 167.835 178.45V183H165.791V178.786C165.791 178.385 165.712 178.067 165.553 177.834C165.394 177.601 165.166 177.484 164.867 177.484C164.55 177.484 164.265 177.615 164.013 177.876C163.77 178.128 163.649 178.585 163.649 179.248V183H161.605V178.786C161.605 178.385 161.526 178.067 161.367 177.834C161.208 177.601 160.98 177.484 160.681 177.484C160.364 177.484 160.079 177.615 159.827 177.876C159.584 178.128 159.463 178.585 159.463 179.248V183H157.419V175.902H159.463ZM169.52 183V175.902H171.564V183H169.52ZM169.702 174.684C169.469 174.451 169.352 174.171 169.352 173.844C169.352 173.517 169.469 173.237 169.702 173.004C169.936 172.771 170.216 172.654 170.542 172.654C170.869 172.654 171.149 172.771 171.382 173.004C171.616 173.237 171.732 173.517 171.732 173.844C171.732 174.171 171.616 174.451 171.382 174.684C171.149 174.917 170.869 175.034 170.542 175.034C170.216 175.034 169.936 174.917 169.702 174.684ZM173.389 183V173.102H175.433V183H173.389ZM177.259 183V175.902H179.303V183H177.259ZM177.441 174.684C177.207 174.451 177.091 174.171 177.091 173.844C177.091 173.517 177.207 173.237 177.441 173.004C177.674 172.771 177.954 172.654 178.281 172.654C178.607 172.654 178.887 172.771 179.121 173.004C179.354 173.237 179.471 173.517 179.471 173.844C179.471 174.171 179.354 174.451 179.121 174.684C178.887 174.917 178.607 175.034 178.281 175.034C177.954 175.034 177.674 174.917 177.441 174.684ZM187.736 183H185.37L183.102 179.514V183H181.058V173.34H183.102V179.08L185.342 175.902H187.694L185.23 179.304L187.736 183ZM188.798 183V175.902H190.842V183H188.798ZM188.98 174.684C188.746 174.451 188.63 174.171 188.63 173.844C188.63 173.517 188.746 173.237 188.98 173.004C189.213 172.771 189.493 172.654 189.82 172.654C190.146 172.654 190.426 172.771 190.66 173.004C190.893 173.237 191.01 173.517 191.01 173.844C191.01 174.171 190.893 174.451 190.66 174.684C190.426 174.917 190.146 175.034 189.82 175.034C189.493 175.034 189.213 174.917 188.98 174.684ZM198.533 181.264H201.781V183H195.677V181.418C196.685 180.727 197.572 179.962 198.337 179.122C199.112 178.282 199.499 177.54 199.499 176.896C199.499 176.504 199.382 176.196 199.149 175.972C198.916 175.739 198.561 175.622 198.085 175.622C197.292 175.622 196.54 175.916 195.831 176.504V174.53C196.139 174.306 196.54 174.115 197.035 173.956C197.53 173.797 198.015 173.718 198.491 173.718C199.443 173.718 200.199 173.97 200.759 174.474C201.328 174.969 201.613 175.664 201.613 176.56C201.613 178.175 200.586 179.743 198.533 181.264ZM209.439 179.332H211.707L211.609 178.996C211.338 178.081 211.114 177.302 210.937 176.658C210.769 176.014 210.666 175.599 210.629 175.412L210.573 175.132C210.498 175.645 210.153 176.933 209.537 178.996L209.439 179.332ZM212.799 183L212.225 181.068H208.921L208.347 183H206.093L209.243 173.564H211.959L215.109 183H212.799ZM218.321 175.902V177.106C218.498 176.714 218.769 176.406 219.133 176.182C219.506 175.949 219.949 175.832 220.463 175.832C221.191 175.832 221.76 176.051 222.171 176.49C222.581 176.919 222.787 177.554 222.787 178.394V183H220.743V178.772C220.743 178.352 220.645 178.035 220.449 177.82C220.253 177.596 219.977 177.484 219.623 177.484C219.249 177.484 218.937 177.633 218.685 177.932C218.442 178.221 218.321 178.66 218.321 179.248V183H216.277V175.902H218.321ZM227.912 180.088H227.254C226.908 180.088 226.642 180.163 226.456 180.312C226.269 180.461 226.176 180.653 226.176 180.886C226.176 181.362 226.451 181.6 227.002 181.6C227.291 181.6 227.515 181.511 227.674 181.334C227.832 181.157 227.912 180.914 227.912 180.606V180.088ZM224.594 178.086V176.252C225.154 175.935 225.961 175.776 227.016 175.776C228.024 175.776 228.775 175.995 229.27 176.434C229.764 176.863 230.012 177.535 230.012 178.45V183H228.01V182.132C227.711 182.739 227.123 183.042 226.246 183.042C225.555 183.042 225.014 182.846 224.622 182.454C224.239 182.062 224.048 181.572 224.048 180.984C224.048 180.303 224.295 179.775 224.79 179.402C225.294 179.019 226.036 178.828 227.016 178.828H227.912V178.338C227.912 177.741 227.515 177.442 226.722 177.442C225.956 177.442 225.247 177.657 224.594 178.086ZM238.294 183H235.928L233.66 179.514V183H231.616V173.34H233.66V179.08L235.9 175.902H238.252L235.788 179.304L238.294 183Z" fill="#2B2B2B"/>
<path d="M80.3753 206.49H82.5353L82.4253 206.15C82.1719 205.363 81.9653 204.713 81.8053 204.2C81.6453 203.68 81.5486 203.357 81.5153 203.23L81.4653 203.04C81.3919 203.353 81.0653 204.39 80.4853 206.15L80.3753 206.49ZM83.3453 209L82.8153 207.35H80.0953L79.5553 209H78.4653L80.7953 202.26H82.1453L84.4453 209H83.3453ZM86.4268 203.93V204.8C86.7268 204.173 87.2535 203.86 88.0068 203.86C88.5068 203.86 88.9035 204.013 89.1968 204.32C89.4902 204.627 89.6368 205.043 89.6368 205.57V209H88.6568V205.8C88.6568 205.447 88.5668 205.177 88.3868 204.99C88.2135 204.803 87.9802 204.71 87.6868 204.71C87.3402 204.71 87.0435 204.847 86.7968 205.12C86.5502 205.387 86.4268 205.763 86.4268 206.25V209H85.4468V203.93H86.4268ZM93.0046 208.21C93.3913 208.21 93.718 208.063 93.9846 207.77C94.2513 207.477 94.3846 207.03 94.3846 206.43C94.3846 205.85 94.2446 205.42 93.9646 205.14C93.6913 204.86 93.3813 204.72 93.0346 204.72C92.6413 204.72 92.318 204.877 92.0646 205.19C91.8113 205.497 91.6846 205.937 91.6846 206.51C91.6846 207.017 91.808 207.427 92.0546 207.74C92.308 208.053 92.6246 208.21 93.0046 208.21ZM94.3846 201.93H95.3746V209H94.3846V208.23C94.0313 208.79 93.5146 209.07 92.8346 209.07C92.168 209.07 91.6413 208.82 91.2546 208.32C90.868 207.813 90.6746 207.203 90.6746 206.49C90.6746 205.697 90.878 205.06 91.2846 204.58C91.6913 204.1 92.2146 203.86 92.8546 203.86C93.5146 203.86 94.0246 204.14 94.3846 204.7V201.93ZM99.4254 206.74H98.6654C98.2921 206.74 98.0088 206.813 97.8154 206.96C97.6288 207.107 97.5354 207.293 97.5354 207.52C97.5354 207.753 97.6088 207.937 97.7554 208.07C97.9021 208.203 98.1154 208.27 98.3954 208.27C98.7154 208.27 98.9654 208.183 99.1454 208.01C99.3321 207.83 99.4254 207.597 99.4254 207.31V206.74ZM96.8754 205.14V204.19C97.2688 203.963 97.7888 203.85 98.4354 203.85C99.7621 203.85 100.425 204.493 100.425 205.78V209H99.4554V208.4C99.1954 208.827 98.7388 209.04 98.0854 209.04C97.6054 209.04 97.2188 208.903 96.9254 208.63C96.6388 208.35 96.4954 207.997 96.4954 207.57C96.4954 207.083 96.6788 206.707 97.0454 206.44C97.4121 206.167 97.9254 206.03 98.5854 206.03H99.4254V205.74C99.4254 205.393 99.3421 205.133 99.1754 204.96C99.0088 204.78 98.7321 204.69 98.3454 204.69C97.8054 204.69 97.3154 204.84 96.8754 205.14ZM105.187 201.93V204.8C105.473 204.173 105.997 203.86 106.757 203.86C107.25 203.86 107.647 204.013 107.947 204.32C108.247 204.627 108.397 205.053 108.397 205.6V209H107.417V205.8C107.417 205.453 107.327 205.187 107.147 205C106.973 204.807 106.743 204.71 106.457 204.71C106.123 204.71 105.827 204.837 105.567 205.09C105.313 205.343 105.187 205.73 105.187 206.25V209H104.207V201.93H105.187ZM112.384 206.74H111.624C111.251 206.74 110.968 206.813 110.774 206.96C110.588 207.107 110.494 207.293 110.494 207.52C110.494 207.753 110.568 207.937 110.714 208.07C110.861 208.203 111.074 208.27 111.354 208.27C111.674 208.27 111.924 208.183 112.104 208.01C112.291 207.83 112.384 207.597 112.384 207.31V206.74ZM109.834 205.14V204.19C110.228 203.963 110.748 203.85 111.394 203.85C112.721 203.85 113.384 204.493 113.384 205.78V209H112.414V208.4C112.154 208.827 111.698 209.04 111.044 209.04C110.564 209.04 110.178 208.903 109.884 208.63C109.598 208.35 109.454 207.997 109.454 207.57C109.454 207.083 109.638 206.707 110.004 206.44C110.371 206.167 110.884 206.03 111.544 206.03H112.384V205.74C112.384 205.393 112.301 205.133 112.134 204.96C111.968 204.78 111.691 204.69 111.304 204.69C110.764 204.69 110.274 204.84 109.834 205.14ZM115.685 203.93V204.82C115.931 204.193 116.375 203.88 117.015 203.88C117.108 203.88 117.211 203.89 117.325 203.91V204.87C117.185 204.81 117.028 204.78 116.855 204.78C116.515 204.78 116.235 204.93 116.015 205.23C115.795 205.53 115.685 205.887 115.685 206.3V209H114.705V203.93H115.685ZM121.243 203.93H122.223V209H121.243V208.13C120.977 208.75 120.45 209.06 119.663 209.06C119.163 209.06 118.767 208.913 118.473 208.62C118.18 208.32 118.033 207.91 118.033 207.39V203.93H119.023V207.15C119.023 207.497 119.107 207.763 119.273 207.95C119.447 208.13 119.683 208.22 119.983 208.22C120.363 208.22 120.667 208.087 120.893 207.82C121.127 207.553 121.243 207.177 121.243 206.69V203.93ZM126.491 204.1V204.99C126.164 204.797 125.744 204.7 125.231 204.7C124.998 204.7 124.811 204.753 124.671 204.86C124.538 204.967 124.471 205.107 124.471 205.28C124.471 205.327 124.474 205.373 124.481 205.42C124.494 205.46 124.514 205.503 124.541 205.55C124.568 205.59 124.591 205.627 124.611 205.66C124.638 205.687 124.678 205.717 124.731 205.75C124.784 205.783 124.824 205.813 124.851 205.84C124.884 205.86 124.934 205.887 125.001 205.92C125.074 205.953 125.128 205.98 125.161 206C125.194 206.013 125.251 206.04 125.331 206.08C125.418 206.113 125.478 206.137 125.511 206.15C125.904 206.323 126.211 206.52 126.431 206.74C126.658 206.953 126.771 207.24 126.771 207.6C126.771 208.053 126.611 208.41 126.291 208.67C125.971 208.923 125.538 209.05 124.991 209.05C124.391 209.05 123.891 208.95 123.491 208.75V207.82C123.958 208.107 124.441 208.25 124.941 208.25C125.201 208.25 125.401 208.197 125.541 208.09C125.688 207.983 125.761 207.843 125.761 207.67C125.761 207.523 125.704 207.393 125.591 207.28C125.478 207.16 125.361 207.073 125.241 207.02C125.128 206.96 124.931 206.87 124.651 206.75C123.858 206.423 123.461 205.943 123.461 205.31C123.461 204.863 123.628 204.513 123.961 204.26C124.294 204.007 124.711 203.88 125.211 203.88C125.758 203.88 126.184 203.953 126.491 204.1ZM131.232 203.93V204.74C131.518 204.153 131.995 203.86 132.662 203.86C133.422 203.86 133.908 204.187 134.122 204.84C134.262 204.527 134.465 204.287 134.732 204.12C134.998 203.947 135.298 203.86 135.632 203.86C136.152 203.86 136.545 204.013 136.812 204.32C137.085 204.627 137.222 205.05 137.222 205.59V209H136.242V205.8C136.242 205.073 135.948 204.71 135.362 204.71C135.068 204.71 134.805 204.84 134.572 205.1C134.345 205.36 134.232 205.743 134.232 206.25V209H133.252V205.8C133.252 205.073 132.955 204.71 132.362 204.71C132.075 204.71 131.815 204.84 131.582 205.1C131.348 205.36 131.232 205.743 131.232 206.25V209H130.252V203.93H131.232ZM141.702 206.1V205.92C141.689 205.54 141.586 205.24 141.392 205.02C141.199 204.793 140.922 204.68 140.562 204.68C140.229 204.68 139.942 204.803 139.702 205.05C139.462 205.29 139.312 205.64 139.252 206.1H141.702ZM142.332 207.85V208.73C141.959 208.943 141.466 209.05 140.852 209.05C140.066 209.05 139.439 208.813 138.972 208.34C138.506 207.867 138.272 207.247 138.272 206.48C138.272 205.667 138.486 205.03 138.912 204.57C139.339 204.103 139.882 203.87 140.542 203.87C141.189 203.87 141.702 204.073 142.082 204.48C142.462 204.88 142.652 205.46 142.652 206.22C142.652 206.427 142.632 206.643 142.592 206.87H139.262C139.329 207.31 139.516 207.647 139.822 207.88C140.129 208.113 140.516 208.23 140.982 208.23C141.522 208.23 141.972 208.103 142.332 207.85ZM144.786 203.93V204.74C145.073 204.153 145.55 203.86 146.216 203.86C146.976 203.86 147.463 204.187 147.676 204.84C147.816 204.527 148.02 204.287 148.286 204.12C148.553 203.947 148.853 203.86 149.186 203.86C149.706 203.86 150.1 204.013 150.366 204.32C150.64 204.627 150.776 205.05 150.776 205.59V209H149.796V205.8C149.796 205.073 149.503 204.71 148.916 204.71C148.623 204.71 148.36 204.84 148.126 205.1C147.9 205.36 147.786 205.743 147.786 206.25V209H146.806V205.8C146.806 205.073 146.51 204.71 145.916 204.71C145.63 204.71 145.37 204.84 145.136 205.1C144.903 205.36 144.786 205.743 144.786 206.25V209H143.806V203.93H144.786ZM154.497 208.21C154.87 208.21 155.184 208.053 155.437 207.74C155.69 207.42 155.817 207.01 155.817 206.51C155.817 205.937 155.69 205.497 155.437 205.19C155.184 204.877 154.86 204.72 154.467 204.72C154.12 204.72 153.807 204.86 153.527 205.14C153.254 205.42 153.117 205.85 153.117 206.43C153.117 207.03 153.25 207.477 153.517 207.77C153.784 208.063 154.11 208.21 154.497 208.21ZM153.117 201.93V204.7C153.477 204.14 153.987 203.86 154.647 203.86C155.287 203.86 155.81 204.1 156.217 204.58C156.624 205.06 156.827 205.697 156.827 206.49C156.827 207.203 156.634 207.813 156.247 208.32C155.86 208.82 155.33 209.07 154.657 209.07C153.984 209.07 153.47 208.79 153.117 208.23V209H152.127V201.93H153.117ZM160.597 206.74H159.837C159.464 206.74 159.181 206.813 158.987 206.96C158.801 207.107 158.707 207.293 158.707 207.52C158.707 207.753 158.781 207.937 158.927 208.07C159.074 208.203 159.287 208.27 159.567 208.27C159.887 208.27 160.137 208.183 160.317 208.01C160.504 207.83 160.597 207.597 160.597 207.31V206.74ZM158.047 205.14V204.19C158.441 203.963 158.961 203.85 159.607 203.85C160.934 203.85 161.597 204.493 161.597 205.78V209H160.627V208.4C160.367 208.827 159.911 209.04 159.257 209.04C158.777 209.04 158.391 208.903 158.097 208.63C157.811 208.35 157.667 207.997 157.667 207.57C157.667 207.083 157.851 206.707 158.217 206.44C158.584 206.167 159.097 206.03 159.757 206.03H160.597V205.74C160.597 205.393 160.514 205.133 160.347 204.96C160.181 204.78 159.904 204.69 159.517 204.69C158.977 204.69 158.487 204.84 158.047 205.14ZM164.318 208.89L162.298 203.93H163.388L164.018 205.58L164.808 207.72C164.868 207.52 165.108 206.807 165.528 205.58L166.098 203.93H167.138L165.308 208.86C164.821 210.16 164.078 210.81 163.078 210.81C162.898 210.81 162.744 210.793 162.618 210.76V209.92C162.724 209.947 162.838 209.96 162.958 209.96C163.604 209.96 164.058 209.603 164.318 208.89ZM170.627 206.74H169.867C169.493 206.74 169.21 206.813 169.017 206.96C168.83 207.107 168.737 207.293 168.737 207.52C168.737 207.753 168.81 207.937 168.957 208.07C169.103 208.203 169.317 208.27 169.597 208.27C169.917 208.27 170.167 208.183 170.347 208.01C170.533 207.83 170.627 207.597 170.627 207.31V206.74ZM168.077 205.14V204.19C168.47 203.963 168.99 203.85 169.637 203.85C170.963 203.85 171.627 204.493 171.627 205.78V209H170.657V208.4C170.397 208.827 169.94 209.04 169.287 209.04C168.807 209.04 168.42 208.903 168.127 208.63C167.84 208.35 167.697 207.997 167.697 207.57C167.697 207.083 167.88 206.707 168.247 206.44C168.613 206.167 169.127 206.03 169.787 206.03H170.627V205.74C170.627 205.393 170.543 205.133 170.377 204.96C170.21 204.78 169.933 204.69 169.547 204.69C169.007 204.69 168.517 204.84 168.077 205.14ZM173.927 203.93V204.82C174.174 204.193 174.617 203.88 175.257 203.88C175.35 203.88 175.454 203.89 175.567 203.91V204.87C175.427 204.81 175.27 204.78 175.097 204.78C174.757 204.78 174.477 204.93 174.257 205.23C174.037 205.53 173.927 205.887 173.927 206.3V209H172.947V203.93H173.927ZM181.186 208.21C181.56 208.21 181.873 208.053 182.126 207.74C182.38 207.42 182.506 207.01 182.506 206.51C182.506 205.937 182.38 205.497 182.126 205.19C181.873 204.877 181.55 204.72 181.156 204.72C180.81 204.72 180.496 204.86 180.216 205.14C179.943 205.42 179.806 205.85 179.806 206.43C179.806 207.03 179.94 207.477 180.206 207.77C180.473 208.063 180.8 208.21 181.186 208.21ZM179.806 201.93V204.7C180.166 204.14 180.676 203.86 181.336 203.86C181.976 203.86 182.5 204.1 182.906 204.58C183.313 205.06 183.516 205.697 183.516 206.49C183.516 207.203 183.323 207.813 182.936 208.32C182.55 208.82 182.02 209.07 181.346 209.07C180.673 209.07 180.16 208.79 179.806 208.23V209H178.816V201.93H179.806ZM184.657 209V203.93H185.647V209H184.657ZM184.707 202.82C184.593 202.7 184.537 202.553 184.537 202.38C184.537 202.207 184.593 202.06 184.707 201.94C184.827 201.82 184.973 201.76 185.147 201.76C185.32 201.76 185.467 201.82 185.587 201.94C185.707 202.06 185.767 202.207 185.767 202.38C185.767 202.547 185.707 202.69 185.587 202.81C185.467 202.93 185.32 202.99 185.147 202.99C184.973 202.99 184.827 202.933 184.707 202.82ZM189.738 206.74H188.978C188.605 206.74 188.321 206.813 188.128 206.96C187.941 207.107 187.848 207.293 187.848 207.52C187.848 207.753 187.921 207.937 188.068 208.07C188.215 208.203 188.428 208.27 188.708 208.27C189.028 208.27 189.278 208.183 189.458 208.01C189.645 207.83 189.738 207.597 189.738 207.31V206.74ZM187.188 205.14V204.19C187.581 203.963 188.101 203.85 188.748 203.85C190.075 203.85 190.738 204.493 190.738 205.78V209H189.768V208.4C189.508 208.827 189.051 209.04 188.398 209.04C187.918 209.04 187.531 208.903 187.238 208.63C186.951 208.35 186.808 207.997 186.808 207.57C186.808 207.083 186.991 206.707 187.358 206.44C187.725 206.167 188.238 206.03 188.898 206.03H189.738V205.74C189.738 205.393 189.655 205.133 189.488 204.96C189.321 204.78 189.045 204.69 188.658 204.69C188.118 204.69 187.628 204.84 187.188 205.14ZM193.458 208.89L191.438 203.93H192.528L193.158 205.58L193.948 207.72C194.008 207.52 194.248 206.807 194.668 205.58L195.238 203.93H196.278L194.448 208.86C193.961 210.16 193.218 210.81 192.218 210.81C192.038 210.81 191.885 210.793 191.758 210.76V209.92C191.865 209.947 191.978 209.96 192.098 209.96C192.745 209.96 193.198 209.603 193.458 208.89ZM199.767 206.74H199.007C198.634 206.74 198.351 206.813 198.157 206.96C197.971 207.107 197.877 207.293 197.877 207.52C197.877 207.753 197.951 207.937 198.097 208.07C198.244 208.203 198.457 208.27 198.737 208.27C199.057 208.27 199.307 208.183 199.487 208.01C199.674 207.83 199.767 207.597 199.767 207.31V206.74ZM197.217 205.14V204.19C197.611 203.963 198.131 203.85 198.777 203.85C200.104 203.85 200.767 204.493 200.767 205.78V209H199.797V208.4C199.537 208.827 199.081 209.04 198.427 209.04C197.947 209.04 197.561 208.903 197.267 208.63C196.981 208.35 196.837 207.997 196.837 207.57C196.837 207.083 197.021 206.707 197.387 206.44C197.754 206.167 198.267 206.03 198.927 206.03H199.767V205.74C199.767 205.393 199.684 205.133 199.517 204.96C199.351 204.78 199.074 204.69 198.687 204.69C198.147 204.69 197.657 204.84 197.217 205.14ZM206.888 208.21C207.282 208.21 207.605 208.057 207.858 207.75C208.112 207.437 208.238 207 208.238 206.44C208.238 205.913 208.115 205.497 207.868 205.19C207.622 204.877 207.308 204.72 206.928 204.72C206.548 204.72 206.218 204.86 205.938 205.14C205.665 205.413 205.528 205.85 205.528 206.45C205.528 207.037 205.665 207.477 205.938 207.77C206.218 208.063 206.535 208.21 206.888 208.21ZM205.528 203.93V204.71C205.875 204.143 206.395 203.86 207.088 203.86C207.755 203.86 208.282 204.103 208.668 204.59C209.055 205.07 209.248 205.683 209.248 206.43C209.248 207.197 209.048 207.83 208.648 208.33C208.255 208.823 207.728 209.07 207.068 209.07C206.395 209.07 205.882 208.79 205.528 208.23V210.94H204.548V203.93H205.528ZM213.499 206.1V205.92C213.486 205.54 213.383 205.24 213.189 205.02C212.996 204.793 212.719 204.68 212.359 204.68C212.026 204.68 211.739 204.803 211.499 205.05C211.259 205.29 211.109 205.64 211.049 206.1H213.499ZM214.129 207.85V208.73C213.756 208.943 213.263 209.05 212.649 209.05C211.863 209.05 211.236 208.813 210.769 208.34C210.303 207.867 210.069 207.247 210.069 206.48C210.069 205.667 210.283 205.03 210.709 204.57C211.136 204.103 211.679 203.87 212.339 203.87C212.986 203.87 213.499 204.073 213.879 204.48C214.259 204.88 214.449 205.46 214.449 206.22C214.449 206.427 214.429 206.643 214.389 206.87H211.059C211.126 207.31 211.313 207.647 211.619 207.88C211.926 208.113 212.313 208.23 212.779 208.23C213.319 208.23 213.769 208.103 214.129 207.85ZM216.583 203.93V204.8C216.883 204.173 217.41 203.86 218.163 203.86C218.663 203.86 219.06 204.013 219.353 204.32C219.646 204.627 219.793 205.043 219.793 205.57V209H218.813V205.8C218.813 205.447 218.723 205.177 218.543 204.99C218.37 204.803 218.136 204.71 217.843 204.71C217.496 204.71 217.2 204.847 216.953 205.12C216.706 205.387 216.583 205.763 216.583 206.25V209H215.603V203.93H216.583ZM223.161 208.21C223.548 208.21 223.874 208.063 224.141 207.77C224.408 207.477 224.541 207.03 224.541 206.43C224.541 205.85 224.401 205.42 224.121 205.14C223.848 204.86 223.538 204.72 223.191 204.72C222.798 204.72 222.474 204.877 222.221 205.19C221.968 205.497 221.841 205.937 221.841 206.51C221.841 207.017 221.964 207.427 222.211 207.74C222.464 208.053 222.781 208.21 223.161 208.21ZM224.541 201.93H225.531V209H224.541V208.23C224.188 208.79 223.671 209.07 222.991 209.07C222.324 209.07 221.798 208.82 221.411 208.32C221.024 207.813 220.831 207.203 220.831 206.49C220.831 205.697 221.034 205.06 221.441 204.58C221.848 204.1 222.371 203.86 223.011 203.86C223.671 203.86 224.181 204.14 224.541 204.7V201.93ZM226.952 209V203.93H227.942V209H226.952ZM227.002 202.82C226.888 202.7 226.832 202.553 226.832 202.38C226.832 202.207 226.888 202.06 227.002 201.94C227.122 201.82 227.268 201.76 227.442 201.76C227.615 201.76 227.762 201.82 227.882 201.94C228.002 202.06 228.062 202.207 228.062 202.38C228.062 202.547 228.002 202.69 227.882 202.81C227.762 202.93 227.615 202.99 227.442 202.99C227.268 202.99 227.122 202.933 227.002 202.82ZM231.413 208.21C231.8 208.21 232.126 208.063 232.393 207.77C232.66 207.477 232.793 207.03 232.793 206.43C232.793 205.85 232.653 205.42 232.373 205.14C232.1 204.86 231.79 204.72 231.443 204.72C231.05 204.72 230.726 204.877 230.473 205.19C230.22 205.497 230.093 205.937 230.093 206.51C230.093 207.017 230.216 207.427 230.463 207.74C230.716 208.053 231.033 208.21 231.413 208.21ZM232.793 201.93H233.783V209H232.793V208.23C232.44 208.79 231.923 209.07 231.243 209.07C230.576 209.07 230.05 208.82 229.663 208.32C229.276 207.813 229.083 207.203 229.083 206.49C229.083 205.697 229.286 205.06 229.693 204.58C230.1 204.1 230.623 203.86 231.263 203.86C231.923 203.86 232.433 204.14 232.793 204.7V201.93ZM235.204 209V203.93H236.194V209H235.204ZM235.254 202.82C235.14 202.7 235.084 202.553 235.084 202.38C235.084 202.207 235.14 202.06 235.254 201.94C235.374 201.82 235.52 201.76 235.694 201.76C235.867 201.76 236.014 201.82 236.134 201.94C236.254 202.06 236.314 202.207 236.314 202.38C236.314 202.547 236.254 202.69 236.134 202.81C236.014 202.93 235.867 202.99 235.694 202.99C235.52 202.99 235.374 202.933 235.254 202.82ZM237.615 209V202H238.595V209H237.615ZM239.765 206.35L241.755 209H240.585L238.635 206.35L240.545 203.93H241.695L239.765 206.35ZM245.285 206.74H244.525C244.151 206.74 243.868 206.813 243.675 206.96C243.488 207.107 243.395 207.293 243.395 207.52C243.395 207.753 243.468 207.937 243.615 208.07C243.761 208.203 243.975 208.27 244.255 208.27C244.575 208.27 244.825 208.183 245.005 208.01C245.191 207.83 245.285 207.597 245.285 207.31V206.74ZM242.735 205.14V204.19C243.128 203.963 243.648 203.85 244.295 203.85C245.621 203.85 246.285 204.493 246.285 205.78V209H245.315V208.4C245.055 208.827 244.598 209.04 243.945 209.04C243.465 209.04 243.078 208.903 242.785 208.63C242.498 208.35 242.355 207.997 242.355 207.57C242.355 207.083 242.538 206.707 242.905 206.44C243.271 206.167 243.785 206.03 244.445 206.03H245.285V205.74C245.285 205.393 245.201 205.133 245.035 204.96C244.868 204.78 244.591 204.69 244.205 204.69C243.665 204.69 243.175 204.84 242.735 205.14ZM248.585 203.93V204.8C248.885 204.173 249.412 203.86 250.165 203.86C250.665 203.86 251.062 204.013 251.355 204.32C251.648 204.627 251.795 205.043 251.795 205.57V209H250.815V205.8C250.815 205.447 250.725 205.177 250.545 204.99C250.372 204.803 250.138 204.71 249.845 204.71C249.498 204.71 249.202 204.847 248.955 205.12C248.708 205.387 248.585 205.763 248.585 206.25V209H247.605V203.93H248.585ZM256.594 208.15H259.434V209H255.244V208.19C256.084 207.577 256.79 206.943 257.364 206.29C257.944 205.63 258.234 205.03 258.234 204.49C258.234 204.11 258.124 203.82 257.904 203.62C257.684 203.413 257.38 203.31 256.994 203.31C256.46 203.31 255.937 203.51 255.424 203.91V202.94C255.904 202.573 256.474 202.39 257.134 202.39C257.747 202.39 258.254 202.563 258.654 202.91C259.054 203.25 259.254 203.737 259.254 204.37C259.254 205.543 258.367 206.803 256.594 208.15ZM102.155 222.74H101.395C101.022 222.74 100.738 222.813 100.545 222.96C100.358 223.107 100.265 223.293 100.265 223.52C100.265 223.753 100.338 223.937 100.485 224.07C100.632 224.203 100.845 224.27 101.125 224.27C101.445 224.27 101.695 224.183 101.875 224.01C102.062 223.83 102.155 223.597 102.155 223.31V222.74ZM99.6049 221.14V220.19C99.9983 219.963 100.518 219.85 101.165 219.85C102.492 219.85 103.155 220.493 103.155 221.78V225H102.185V224.4C101.925 224.827 101.468 225.04 100.815 225.04C100.335 225.04 99.9483 224.903 99.6549 224.63C99.3683 224.35 99.2249 223.997 99.2249 223.57C99.2249 223.083 99.4083 222.707 99.7749 222.44C100.142 222.167 100.655 222.03 101.315 222.03H102.155V221.74C102.155 221.393 102.072 221.133 101.905 220.96C101.738 220.78 101.462 220.69 101.075 220.69C100.535 220.69 100.045 220.84 99.6049 221.14ZM105.455 219.93V220.8C105.755 220.173 106.282 219.86 107.035 219.86C107.535 219.86 107.932 220.013 108.225 220.32C108.518 220.627 108.665 221.043 108.665 221.57V225H107.685V221.8C107.685 221.447 107.595 221.177 107.415 220.99C107.242 220.803 107.008 220.71 106.715 220.71C106.368 220.71 106.072 220.847 105.825 221.12C105.578 221.387 105.455 221.763 105.455 222.25V225H104.475V219.93H105.455ZM112.653 222.74H111.893C111.52 222.74 111.236 222.813 111.043 222.96C110.856 223.107 110.763 223.293 110.763 223.52C110.763 223.753 110.836 223.937 110.983 224.07C111.13 224.203 111.343 224.27 111.623 224.27C111.943 224.27 112.193 224.183 112.373 224.01C112.56 223.83 112.653 223.597 112.653 223.31V222.74ZM110.103 221.14V220.19C110.496 219.963 111.016 219.85 111.663 219.85C112.99 219.85 113.653 220.493 113.653 221.78V225H112.683V224.4C112.423 224.827 111.966 225.04 111.313 225.04C110.833 225.04 110.446 224.903 110.153 224.63C109.866 224.35 109.723 223.997 109.723 223.57C109.723 223.083 109.906 222.707 110.273 222.44C110.64 222.167 111.153 222.03 111.813 222.03H112.653V221.74C112.653 221.393 112.57 221.133 112.403 220.96C112.236 220.78 111.96 220.69 111.573 220.69C111.033 220.69 110.543 220.84 110.103 221.14ZM114.973 225V218H115.953V225H114.973ZM117.123 222.35L119.113 225H117.943L115.993 222.35L117.903 219.93H119.053L117.123 222.35ZM123.964 222.49H126.124L126.014 222.15C125.761 221.363 125.554 220.713 125.394 220.2C125.234 219.68 125.137 219.357 125.104 219.23L125.054 219.04C124.981 219.353 124.654 220.39 124.074 222.15L123.964 222.49ZM126.934 225L126.404 223.35H123.684L123.144 225H122.054L124.384 218.26H125.734L128.034 225H126.934ZM130.016 219.93V220.8C130.316 220.173 130.842 219.86 131.596 219.86C132.096 219.86 132.492 220.013 132.786 220.32C133.079 220.627 133.226 221.043 133.226 221.57V225H132.246V221.8C132.246 221.447 132.156 221.177 131.976 220.99C131.802 220.803 131.569 220.71 131.276 220.71C130.929 220.71 130.632 220.847 130.386 221.12C130.139 221.387 130.016 221.763 130.016 222.25V225H129.036V219.93H130.016ZM136.594 224.21C136.98 224.21 137.307 224.063 137.574 223.77C137.84 223.477 137.974 223.03 137.974 222.43C137.974 221.85 137.834 221.42 137.554 221.14C137.28 220.86 136.97 220.72 136.624 220.72C136.23 220.72 135.907 220.877 135.654 221.19C135.4 221.497 135.274 221.937 135.274 222.51C135.274 223.017 135.397 223.427 135.644 223.74C135.897 224.053 136.214 224.21 136.594 224.21ZM137.974 217.93H138.964V225H137.974V224.23C137.62 224.79 137.104 225.07 136.424 225.07C135.757 225.07 135.23 224.82 134.844 224.32C134.457 223.813 134.264 223.203 134.264 222.49C134.264 221.697 134.467 221.06 134.874 220.58C135.28 220.1 135.804 219.86 136.444 219.86C137.104 219.86 137.614 220.14 137.974 220.7V217.93ZM143.014 222.74H142.254C141.881 222.74 141.598 222.813 141.404 222.96C141.218 223.107 141.124 223.293 141.124 223.52C141.124 223.753 141.198 223.937 141.344 224.07C141.491 224.203 141.704 224.27 141.984 224.27C142.304 224.27 142.554 224.183 142.734 224.01C142.921 223.83 143.014 223.597 143.014 223.31V222.74ZM140.464 221.14V220.19C140.858 219.963 141.378 219.85 142.024 219.85C143.351 219.85 144.014 220.493 144.014 221.78V225H143.044V224.4C142.784 224.827 142.328 225.04 141.674 225.04C141.194 225.04 140.808 224.903 140.514 224.63C140.228 224.35 140.084 223.997 140.084 223.57C140.084 223.083 140.268 222.707 140.634 222.44C141.001 222.167 141.514 222.03 142.174 222.03H143.014V221.74C143.014 221.393 142.931 221.133 142.764 220.96C142.598 220.78 142.321 220.69 141.934 220.69C141.394 220.69 140.904 220.84 140.464 221.14ZM149.845 224.21C150.232 224.21 150.559 224.063 150.825 223.77C151.092 223.477 151.225 223.03 151.225 222.43C151.225 221.85 151.085 221.42 150.805 221.14C150.532 220.86 150.222 220.72 149.875 220.72C149.482 220.72 149.159 220.877 148.905 221.19C148.652 221.497 148.525 221.937 148.525 222.51C148.525 223.017 148.649 223.427 148.895 223.74C149.149 224.053 149.465 224.21 149.845 224.21ZM151.225 217.93H152.215V225H151.225V224.23C150.872 224.79 150.355 225.07 149.675 225.07C149.009 225.07 148.482 224.82 148.095 224.32C147.709 223.813 147.515 223.203 147.515 222.49C147.515 221.697 147.719 221.06 148.125 220.58C148.532 220.1 149.055 219.86 149.695 219.86C150.355 219.86 150.865 220.14 151.225 220.7V217.93ZM156.746 222.1V221.92C156.733 221.54 156.63 221.24 156.436 221.02C156.243 220.793 155.966 220.68 155.606 220.68C155.273 220.68 154.986 220.803 154.746 221.05C154.506 221.29 154.356 221.64 154.296 222.1H156.746ZM157.376 223.85V224.73C157.003 224.943 156.51 225.05 155.896 225.05C155.11 225.05 154.483 224.813 154.016 224.34C153.55 223.867 153.316 223.247 153.316 222.48C153.316 221.667 153.53 221.03 153.956 220.57C154.383 220.103 154.926 219.87 155.586 219.87C156.233 219.87 156.746 220.073 157.126 220.48C157.506 220.88 157.696 221.46 157.696 222.22C157.696 222.427 157.676 222.643 157.636 222.87H154.306C154.373 223.31 154.56 223.647 154.866 223.88C155.173 224.113 155.56 224.23 156.026 224.23C156.566 224.23 157.016 224.103 157.376 223.85ZM159.83 219.93V220.8C160.13 220.173 160.657 219.86 161.41 219.86C161.91 219.86 162.307 220.013 162.6 220.32C162.893 220.627 163.04 221.043 163.04 221.57V225H162.06V221.8C162.06 221.447 161.97 221.177 161.79 220.99C161.617 220.803 161.383 220.71 161.09 220.71C160.743 220.71 160.447 220.847 160.2 221.12C159.953 221.387 159.83 221.763 159.83 222.25V225H158.85V219.93H159.83ZM166.358 224.02C166.705 224.02 167.005 223.887 167.258 223.62C167.518 223.347 167.648 222.967 167.648 222.48C167.648 221.88 167.525 221.437 167.278 221.15C167.038 220.863 166.745 220.72 166.398 220.72C166.005 220.72 165.695 220.877 165.468 221.19C165.241 221.497 165.128 221.903 165.128 222.41C165.128 222.937 165.248 223.337 165.488 223.61C165.735 223.883 166.025 224.02 166.358 224.02ZM167.648 219.93H168.628V224.57C168.628 225.35 168.405 225.937 167.958 226.33C167.518 226.73 166.951 226.93 166.258 226.93C165.605 226.93 165.055 226.82 164.608 226.6V225.61C165.035 225.89 165.551 226.03 166.158 226.03C167.151 226.03 167.648 225.54 167.648 224.56V224.04C167.321 224.587 166.831 224.86 166.178 224.86C165.605 224.86 165.115 224.65 164.708 224.23C164.301 223.803 164.098 223.203 164.098 222.43C164.098 221.683 164.288 221.07 164.668 220.59C165.048 220.103 165.551 219.86 166.178 219.86C166.851 219.86 167.341 220.147 167.648 220.72V219.93ZM172.614 222.74H171.854C171.481 222.74 171.197 222.813 171.004 222.96C170.817 223.107 170.724 223.293 170.724 223.52C170.724 223.753 170.797 223.937 170.944 224.07C171.091 224.203 171.304 224.27 171.584 224.27C171.904 224.27 172.154 224.183 172.334 224.01C172.521 223.83 172.614 223.597 172.614 223.31V222.74ZM170.064 221.14V220.19C170.457 219.963 170.977 219.85 171.624 219.85C172.951 219.85 173.614 220.493 173.614 221.78V225H172.644V224.4C172.384 224.827 171.927 225.04 171.274 225.04C170.794 225.04 170.407 224.903 170.114 224.63C169.827 224.35 169.684 223.997 169.684 223.57C169.684 223.083 169.867 222.707 170.234 222.44C170.601 222.167 171.114 222.03 171.774 222.03H172.614V221.74C172.614 221.393 172.531 221.133 172.364 220.96C172.197 220.78 171.921 220.69 171.534 220.69C170.994 220.69 170.504 220.84 170.064 221.14ZM175.914 219.93V220.8C176.214 220.173 176.741 219.86 177.494 219.86C177.994 219.86 178.391 220.013 178.684 220.32C178.977 220.627 179.124 221.043 179.124 221.57V225H178.144V221.8C178.144 221.447 178.054 221.177 177.874 220.99C177.701 220.803 177.467 220.71 177.174 220.71C176.827 220.71 176.531 220.847 176.284 221.12C176.037 221.387 175.914 221.763 175.914 222.25V225H174.934V219.93H175.914Z" fill="#2B2B2B"/>
<path d="M183.973 219.12V221.58H184.903C185.33 221.58 185.653 221.47 185.873 221.25C186.093 221.023 186.203 220.723 186.203 220.35C186.203 219.53 185.753 219.12 184.853 219.12H183.973ZM186.443 225L184.863 222.44H183.973V225H182.943V218.26H184.823C185.596 218.26 186.193 218.45 186.613 218.83C187.033 219.203 187.243 219.713 187.243 220.36C187.236 220.833 187.116 221.237 186.883 221.57C186.65 221.897 186.326 222.133 185.913 222.28L187.673 225H186.443ZM190.926 224.21C191.32 224.21 191.643 224.057 191.896 223.75C192.15 223.437 192.276 223 192.276 222.44C192.276 221.913 192.153 221.497 191.906 221.19C191.66 220.877 191.346 220.72 190.966 220.72C190.586 220.72 190.256 220.86 189.976 221.14C189.703 221.413 189.566 221.85 189.566 222.45C189.566 223.037 189.703 223.477 189.976 223.77C190.256 224.063 190.573 224.21 190.926 224.21ZM189.566 219.93V220.71C189.913 220.143 190.433 219.86 191.126 219.86C191.793 219.86 192.32 220.103 192.706 220.59C193.093 221.07 193.286 221.683 193.286 222.43C193.286 223.197 193.086 223.83 192.686 224.33C192.293 224.823 191.766 225.07 191.106 225.07C190.433 225.07 189.92 224.79 189.566 224.23V226.94H188.586V219.93H189.566ZM196.568 221.71C196.568 220.683 196.772 219.87 197.178 219.27C197.592 218.663 198.155 218.36 198.868 218.36C199.595 218.36 200.165 218.66 200.578 219.26C200.992 219.86 201.198 220.677 201.198 221.71C201.198 222.73 200.995 223.547 200.588 224.16C200.188 224.773 199.615 225.08 198.868 225.08C198.155 225.08 197.592 224.773 197.178 224.16C196.772 223.547 196.568 222.73 196.568 221.71ZM197.938 219.91C197.692 220.33 197.568 220.93 197.568 221.71C197.568 222.49 197.688 223.097 197.928 223.53C198.175 223.957 198.488 224.17 198.868 224.17C199.282 224.17 199.605 223.957 199.838 223.53C200.072 223.103 200.188 222.497 200.188 221.71C200.188 220.917 200.065 220.313 199.818 219.9C199.578 219.48 199.262 219.27 198.868 219.27C198.495 219.27 198.185 219.483 197.938 219.91ZM201.527 226.24L202.487 223.9H203.697L202.387 226.24H201.527ZM204.469 221.71C204.469 220.683 204.672 219.87 205.079 219.27C205.492 218.663 206.055 218.36 206.769 218.36C207.495 218.36 208.065 218.66 208.479 219.26C208.892 219.86 209.099 220.677 209.099 221.71C209.099 222.73 208.895 223.547 208.489 224.16C208.089 224.773 207.515 225.08 206.769 225.08C206.055 225.08 205.492 224.773 205.079 224.16C204.672 223.547 204.469 222.73 204.469 221.71ZM205.839 219.91C205.592 220.33 205.469 220.93 205.469 221.71C205.469 222.49 205.589 223.097 205.829 223.53C206.075 223.957 206.389 224.17 206.769 224.17C207.182 224.17 207.505 223.957 207.739 223.53C207.972 223.103 208.089 222.497 208.089 221.71C208.089 220.917 207.965 220.313 207.719 219.9C207.479 219.48 207.162 219.27 206.769 219.27C206.395 219.27 206.085 219.483 205.839 219.91ZM209.918 221.71C209.918 220.683 210.121 219.87 210.528 219.27C210.941 218.663 211.504 218.36 212.218 218.36C212.944 218.36 213.514 218.66 213.928 219.26C214.341 219.86 214.548 220.677 214.548 221.71C214.548 222.73 214.344 223.547 213.938 224.16C213.538 224.773 212.964 225.08 212.218 225.08C211.504 225.08 210.941 224.773 210.528 224.16C210.121 223.547 209.918 222.73 209.918 221.71ZM211.288 219.91C211.041 220.33 210.918 220.93 210.918 221.71C210.918 222.49 211.038 223.097 211.278 223.53C211.524 223.957 211.838 224.17 212.218 224.17C212.631 224.17 212.954 223.957 213.188 223.53C213.421 223.103 213.538 222.497 213.538 221.71C213.538 220.917 213.414 220.313 213.168 219.9C212.928 219.48 212.611 219.27 212.218 219.27C211.844 219.27 211.534 219.483 211.288 219.91ZM215.367 221.71C215.367 220.683 215.57 219.87 215.977 219.27C216.39 218.663 216.954 218.36 217.667 218.36C218.394 218.36 218.964 218.66 219.377 219.26C219.79 219.86 219.997 220.677 219.997 221.71C219.997 222.73 219.794 223.547 219.387 224.16C218.987 224.773 218.414 225.08 217.667 225.08C216.954 225.08 216.39 224.773 215.977 224.16C215.57 223.547 215.367 222.73 215.367 221.71ZM216.737 219.91C216.49 220.33 216.367 220.93 216.367 221.71C216.367 222.49 216.487 223.097 216.727 223.53C216.974 223.957 217.287 224.17 217.667 224.17C218.08 224.17 218.404 223.957 218.637 223.53C218.87 223.103 218.987 222.497 218.987 221.71C218.987 220.917 218.864 220.313 218.617 219.9C218.377 219.48 218.06 219.27 217.667 219.27C217.294 219.27 216.984 219.483 216.737 219.91ZM220.326 226.24L221.286 223.9H222.496L221.186 226.24H220.326ZM223.267 221.71C223.267 220.683 223.471 219.87 223.877 219.27C224.291 218.663 224.854 218.36 225.567 218.36C226.294 218.36 226.864 218.66 227.277 219.26C227.691 219.86 227.897 220.677 227.897 221.71C227.897 222.73 227.694 223.547 227.287 224.16C226.887 224.773 226.314 225.08 225.567 225.08C224.854 225.08 224.291 224.773 223.877 224.16C223.471 223.547 223.267 222.73 223.267 221.71ZM224.637 219.91C224.391 220.33 224.267 220.93 224.267 221.71C224.267 222.49 224.387 223.097 224.627 223.53C224.874 223.957 225.187 224.17 225.567 224.17C225.981 224.17 226.304 223.957 226.537 223.53C226.771 223.103 226.887 222.497 226.887 221.71C226.887 220.917 226.764 220.313 226.517 219.9C226.277 219.48 225.961 219.27 225.567 219.27C225.194 219.27 224.884 219.483 224.637 219.91ZM228.717 221.71C228.717 220.683 228.92 219.87 229.327 219.27C229.74 218.663 230.303 218.36 231.017 218.36C231.743 218.36 232.313 218.66 232.727 219.26C233.14 219.86 233.347 220.677 233.347 221.71C233.347 222.73 233.143 223.547 232.737 224.16C232.337 224.773 231.763 225.08 231.017 225.08C230.303 225.08 229.74 224.773 229.327 224.16C228.92 223.547 228.717 222.73 228.717 221.71ZM230.087 219.91C229.84 220.33 229.717 220.93 229.717 221.71C229.717 222.49 229.837 223.097 230.077 223.53C230.323 223.957 230.637 224.17 231.017 224.17C231.43 224.17 231.753 223.957 231.987 223.53C232.22 223.103 232.337 222.497 232.337 221.71C232.337 220.917 232.213 220.313 231.967 219.9C231.727 219.48 231.41 219.27 231.017 219.27C230.643 219.27 230.333 219.483 230.087 219.91ZM234.166 221.71C234.166 220.683 234.369 219.87 234.776 219.27C235.189 218.663 235.753 218.36 236.466 218.36C237.193 218.36 237.763 218.66 238.176 219.26C238.589 219.86 238.796 220.677 238.796 221.71C238.796 222.73 238.593 223.547 238.186 224.16C237.786 224.773 237.213 225.08 236.466 225.08C235.753 225.08 235.189 224.773 234.776 224.16C234.369 223.547 234.166 222.73 234.166 221.71ZM235.536 219.91C235.289 220.33 235.166 220.93 235.166 221.71C235.166 222.49 235.286 223.097 235.526 223.53C235.773 223.957 236.086 224.17 236.466 224.17C236.879 224.17 237.203 223.957 237.436 223.53C237.669 223.103 237.786 222.497 237.786 221.71C237.786 220.917 237.663 220.313 237.416 219.9C237.176 219.48 236.859 219.27 236.466 219.27C236.093 219.27 235.783 219.483 235.536 219.91Z" fill="#FF1934"/>
<rect x="109" y="254" width="120" height="24" rx="8" fill="#FF1934"/>
<path d="M157.959 267.176L158.823 267.176C159.468 267.176 159.791 266.931 159.791 266.44C159.791 265.939 159.455 265.688 158.783 265.688L157.959 265.688L157.959 267.176ZM157.959 263.432L157.959 264.88L158.567 264.88C158.929 264.88 159.201 264.808 159.383 264.664C159.564 264.52 159.655 264.336 159.655 264.112C159.655 263.904 159.577 263.739 159.423 263.616C159.273 263.493 159.044 263.432 158.735 263.432L157.959 263.432ZM156.951 262.608L158.863 262.608C159.439 262.608 159.887 262.744 160.207 263.016C160.527 263.288 160.687 263.64 160.687 264.072C160.687 264.365 160.607 264.621 160.447 264.84C160.287 265.053 160.081 265.195 159.831 265.264C160.119 265.333 160.356 265.475 160.543 265.688C160.729 265.896 160.823 266.181 160.823 266.544C160.823 266.971 160.673 267.32 160.375 267.592C160.076 267.864 159.663 268 159.135 268L156.951 268L156.951 262.608ZM163.053 265.952L164.573 265.952L164.501 265.712C164.32 265.136 164.17 264.653 164.053 264.264C163.941 263.869 163.872 263.621 163.845 263.52L163.813 263.36C163.765 263.627 163.536 264.413 163.125 265.72L163.053 265.952ZM165.213 268L164.829 266.776L162.789 266.776L162.405 268L161.349 268L163.173 262.608L164.477 262.608L166.301 268L165.213 268ZM171.364 262.608L169.508 266L169.508 268L168.5 268L168.5 266.032L166.66 262.608L167.836 262.608L168.196 263.392C168.404 263.845 168.574 264.227 168.708 264.536C168.841 264.84 168.921 265.029 168.948 265.104L168.996 265.224C169.044 265.027 169.318 264.416 169.82 263.392L170.188 262.608L171.364 262.608ZM173.436 265.952L174.956 265.952L174.884 265.712C174.702 265.136 174.553 264.653 174.436 264.264C174.324 263.869 174.254 263.621 174.228 263.52L174.196 263.36C174.148 263.627 173.918 264.413 173.508 265.72L173.436 265.952ZM175.596 268L175.212 266.776L173.172 266.776L172.788 268L171.732 268L173.556 262.608L174.86 262.608L176.684 268L175.596 268ZM178.466 263.44L178.466 265.2L179.138 265.2C179.448 265.2 179.68 265.123 179.834 264.968C179.989 264.808 180.066 264.587 180.066 264.304C180.066 264.027 179.984 263.813 179.818 263.664C179.658 263.515 179.426 263.44 179.122 263.44L178.466 263.44ZM180.242 268L179.018 266.032L178.466 266.032L178.466 268L177.458 268L177.458 262.608L179.122 262.608C179.736 262.608 180.216 262.763 180.562 263.072C180.914 263.381 181.09 263.795 181.09 264.312C181.085 264.696 180.992 265.021 180.81 265.288C180.629 265.549 180.381 265.744 180.066 265.872L181.45 268L180.242 268Z" fill="white"/>
<path d="M9 341.5H329C333.694 341.5 337.5 345.306 337.5 350C337.5 354.694 333.694 358.5 329 358.5H9C4.30558 358.5 0.5 354.694 0.5 350C0.500002 345.306 4.30558 341.5 9 341.5Z" fill="white"/>
<path d="M9 341.5H329C333.694 341.5 337.5 345.306 337.5 350C337.5 354.694 333.694 358.5 329 358.5H9C4.30558 358.5 0.5 354.694 0.5 350C0.500002 345.306 4.30558 341.5 9 341.5Z" stroke="#CCCCCC"/>
<path d="M7.86805e-07 350C3.52265e-07 345.029 4.02944 341 9 341L39 341C43.9706 341 48 345.029 48 350C48 354.971 43.9706 359 39 359L9 359C4.02944 359 1.22135e-06 354.971 7.86805e-07 350Z" fill="#FF1934"/>
<path d="M15.448 346.688H16.264L16.816 348.6L17.456 350.92C17.5893 350.179 17.7547 349.403 17.952 348.592L18.44 346.608H19.464L18.088 352H16.92L16.432 350.296C16.2987 349.843 16.184 349.443 16.088 349.096C15.9973 348.749 15.936 348.517 15.904 348.4L15.864 348.216C15.7893 348.589 15.6027 349.283 15.304 350.296L14.8 352H13.64L12.2 346.608H13.264L13.768 348.6C13.8533 348.957 13.9387 349.328 14.024 349.712C14.1093 350.096 14.1733 350.389 14.216 350.592L14.28 350.904C14.4507 350.232 14.6587 349.464 14.904 348.6L15.448 346.688ZM22.2561 350.256H21.7601C21.5094 350.256 21.3174 350.309 21.1841 350.416C21.0507 350.517 20.9841 350.648 20.9841 350.808C20.9841 351.149 21.1814 351.32 21.5761 351.32C21.7894 351.32 21.9547 351.259 22.0721 351.136C22.1947 351.008 22.2561 350.843 22.2561 350.64V350.256ZM20.2881 349.04V348.152C20.5921 347.965 21.0294 347.872 21.6001 347.872C22.6987 347.872 23.2481 348.384 23.2481 349.408V352H22.2961V351.512C22.1094 351.859 21.7574 352.032 21.2401 352.032C20.8561 352.032 20.5494 351.92 20.3201 351.696C20.0961 351.472 19.9841 351.189 19.9841 350.848C19.9841 350.464 20.1281 350.163 20.4161 349.944C20.7041 349.725 21.1201 349.616 21.6641 349.616H22.2561V349.368C22.2561 349.144 22.1974 348.973 22.0801 348.856C21.9627 348.739 21.7627 348.68 21.4801 348.68C21.0481 348.68 20.6507 348.8 20.2881 349.04ZM27.7828 352H26.6548L25.1988 349.904V352H24.2388V346.44H25.1988V349.848L26.6308 347.944H27.7508L26.2628 349.88L27.7828 352ZM29.5864 348.664V350.728C29.5864 350.899 29.6318 351.029 29.7224 351.12C29.8131 351.205 29.9384 351.248 30.0984 351.248C30.3011 351.248 30.4878 351.192 30.6584 351.08V351.904C30.4718 351.995 30.2318 352.04 29.9384 352.04C29.0638 352.04 28.6264 351.597 28.6264 350.712V348.664H28.0184V347.944H28.6264V346.968H29.5864V347.944H30.5944V348.664H29.5864ZM33.9617 347.944H34.9297V352H33.9617V351.336C33.7484 351.805 33.3324 352.04 32.7137 352.04C32.303 352.04 31.983 351.923 31.7537 351.688C31.5244 351.453 31.4097 351.12 31.4097 350.688V347.944H32.3697V350.464C32.3697 350.72 32.431 350.915 32.5537 351.048C32.6817 351.181 32.855 351.248 33.0737 351.248C33.351 351.248 33.567 351.155 33.7217 350.968C33.8817 350.781 33.9617 350.499 33.9617 350.12V347.944Z" fill="white"/>
<rect x="56" y="348" width="274" height="4" rx="2" fill="#CCCCCC"/>
<mask id="mask0_1124_4113" style="mask-type:alpha" maskUnits="userSpaceOnUse" x="56" y="348" width="274" height="4">
<rect x="56" y="348" width="274" height="4" rx="2" fill="#CCCCCC"/>
</mask>
<g mask="url(#mask0_1124_4113)">
<rect x="56" y="348" width="274" height="4" rx="2" fill="#FF1934"/>
</g>
<defs>
<filter id="filter0_d_1124_4113" x="22.5" y="14" width="293" height="56" filterUnits="userSpaceOnUse" color-interpolation-filters="sRGB">
<feFlood flood-opacity="0" result="BackgroundImageFix"/>
<feColorMatrix in="SourceAlpha" type="matrix" values="0 0 0 0 0 0 0 0 0 0 0 0 0 0 0 0 0 0 127 0" result="hardAlpha"/>
<feOffset dy="2"/>
<feGaussianBlur stdDeviation="2"/>
<feComposite in2="hardAlpha" operator="out"/>
<feColorMatrix type="matrix" values="0 0 0 0 0.168627 0 0 0 0 0.168627 0 0 0 0 0.168627 0 0 0 0.24 0"/>
<feBlend mode="normal" in2="BackgroundImageFix" result="effect1_dropShadow_1124_4113"/>
<feBlend mode="normal" in="SourceGraphic" in2="effect1_dropShadow_1124_4113" result="shape"/>
</filter>
<clipPath id="clip0_1124_4113">
<rect width="24" height="24" fill="white" transform="translate(42.5 32)"/>
</clipPath>
<clipPath id="clip1_1124_4113">
<rect width="64" height="64" fill="white" transform="translate(137 88)"/>
</clipPath>
</defs>
</svg>
