<svg width="338" height="375" viewBox="0 0 338 375" fill="none" xmlns="http://www.w3.org/2000/svg">
<rect width="338" height="375" fill="#D3D3D3"/>
<rect x="26.5" y="16" width="285" height="278" rx="16" fill="white"/>
<g filter="url(#filter0_d_1124_4113)">
<path d="M26.5 32C26.5 23.1634 33.6634 16 42.5 16H295.5C304.337 16 311.5 23.1634 311.5 32V64H26.5V32Z" fill="#FF1934" shape-rendering="crispEdges"/>
<g clip-path="url(#clip0_1124_4113)">
<path d="M54.5 34C48.99 34 44.5 38.49 44.5 44C44.5 46.27 45.24 48.41 46.64 50.18C46.91 50.53 47.42 50.59 47.76 50.31C48.11 50.04 48.17 49.53 47.89 49.19C46.71 47.7 46.09 45.9 46.09 44C46.1 39.37 49.87 35.6 54.5 35.6C59.13 35.6 62.9 39.37 62.9 44C62.9 48.63 59.13 52.4 54.5 52.4C52.82 52.4 51.19 51.9 49.8 50.97C49.43 50.72 48.94 50.82 48.69 51.18C48.44 51.54 48.54 52.04 48.9 52.29C50.56 53.41 52.49 54 54.49 54C60 54 64.49 49.51 64.49 44C64.49 38.49 60.01 34 54.5 34Z" fill="white"/>
<path d="M58.2402 38.14C57.8702 37.9 57.3702 38.01 57.1302 38.38L53.8202 43.57C53.7402 43.7 53.7002 43.85 53.7002 44V48C53.7002 48.44 54.0602 48.8 54.5002 48.8C54.9402 48.8 55.3002 48.44 55.3002 48V44.23L58.4902 39.24C58.7302 38.87 58.6202 38.37 58.2502 38.13L58.2402 38.14Z" fill="white"/>
</g>
<path d="M77.566 46.11H81.052V48H75.41V38.564H77.566V46.11ZM82.2459 48V40.902H84.2899V48H82.2459ZM82.4279 39.684C82.1946 39.4507 82.0779 39.1707 82.0779 38.844C82.0779 38.5173 82.1946 38.2373 82.4279 38.004C82.6613 37.7707 82.9413 37.654 83.2679 37.654C83.5946 37.654 83.8746 37.7707 84.1079 38.004C84.3413 38.2373 84.4579 38.5173 84.4579 38.844C84.4579 39.1707 84.3413 39.4507 84.1079 39.684C83.8746 39.9173 83.5946 40.034 83.2679 40.034C82.9413 40.034 82.6613 39.9173 82.4279 39.684ZM88.0891 40.902V42.106C88.2664 41.714 88.5371 41.406 88.9011 41.182C89.2744 40.9487 89.7177 40.832 90.2311 40.832C90.9591 40.832 91.5284 41.0513 91.9391 41.49C92.3497 41.9193 92.5551 42.554 92.5551 43.394V48H90.5111V43.772C90.5111 43.352 90.4131 43.0347 90.2171 42.82C90.0211 42.596 89.7457 42.484 89.3911 42.484C89.0177 42.484 88.7051 42.6333 88.4531 42.932C88.2104 43.2213 88.0891 43.66 88.0891 44.248V48H86.0451V40.902H88.0891ZM94.2362 48V40.902H96.2802V48H94.2362ZM94.4182 39.684C94.1848 39.4507 94.0682 39.1707 94.0682 38.844C94.0682 38.5173 94.1848 38.2373 94.4182 38.004C94.6515 37.7707 94.9315 37.654 95.2582 37.654C95.5848 37.654 95.8648 37.7707 96.0982 38.004C96.3315 38.2373 96.4482 38.5173 96.4482 38.844C96.4482 39.1707 96.3315 39.4507 96.0982 39.684C95.8648 39.9173 95.5848 40.034 95.2582 40.034C94.9315 40.034 94.6515 39.9173 94.4182 39.684ZM101.395 48L102.207 38.564H104.573L105.889 41.98C106.113 42.5493 106.305 43.072 106.463 43.548C106.622 44.024 106.725 44.36 106.771 44.556L106.841 44.836C106.991 44.22 107.317 43.268 107.821 41.98L109.151 38.564H111.517L112.497 48H110.341L109.991 44.346L109.809 41.588C109.567 42.288 109.231 43.2073 108.801 44.346L107.471 47.902H106.197L104.881 44.346C104.667 43.7673 104.485 43.2493 104.335 42.792C104.186 42.3347 104.088 42.0173 104.041 41.84L103.971 41.588C103.971 42.2507 103.929 43.17 103.845 44.346L103.551 48H101.395ZM117.545 45.088H116.887C116.542 45.088 116.276 45.1627 116.089 45.312C115.903 45.4613 115.809 45.6527 115.809 45.886C115.809 46.362 116.085 46.6 116.635 46.6C116.925 46.6 117.149 46.5113 117.307 46.334C117.466 46.1567 117.545 45.914 117.545 45.606V45.088ZM114.227 43.086V41.252C114.787 40.9347 115.595 40.776 116.649 40.776C117.657 40.776 118.409 40.9953 118.903 41.434C119.398 41.8633 119.645 42.5353 119.645 43.45V48H117.643V47.132C117.345 47.7387 116.757 48.042 115.879 48.042C115.189 48.042 114.647 47.846 114.255 47.454C113.873 47.062 113.681 46.572 113.681 45.984C113.681 45.3027 113.929 44.7753 114.423 44.402C114.927 44.0193 115.669 43.828 116.649 43.828H117.545V43.338C117.545 42.7407 117.149 42.442 116.355 42.442C115.59 42.442 114.881 42.6567 114.227 43.086ZM125.73 41.112V42.862C125.235 42.5727 124.657 42.428 123.994 42.428C123.751 42.428 123.565 42.4793 123.434 42.582C123.303 42.6753 123.238 42.7967 123.238 42.946C123.238 43.03 123.261 43.1093 123.308 43.184C123.355 43.2587 123.429 43.3287 123.532 43.394C123.644 43.4593 123.747 43.52 123.84 43.576C123.943 43.6227 124.078 43.6833 124.246 43.758C124.423 43.8327 124.563 43.898 124.666 43.954C125.095 44.178 125.441 44.4393 125.702 44.738C125.963 45.0273 126.094 45.4007 126.094 45.858C126.094 46.558 125.842 47.0993 125.338 47.482C124.834 47.8647 124.167 48.056 123.336 48.056C122.477 48.056 121.759 47.9113 121.18 47.622V45.802C121.824 46.25 122.505 46.474 123.224 46.474C123.737 46.474 123.994 46.3107 123.994 45.984C123.994 45.9 123.971 45.8207 123.924 45.746C123.877 45.6713 123.798 45.6013 123.686 45.536C123.574 45.4707 123.471 45.4193 123.378 45.382C123.285 45.3353 123.149 45.2747 122.972 45.2C122.795 45.1253 122.659 45.0647 122.566 45.018C121.623 44.57 121.152 43.898 121.152 43.002C121.152 42.3113 121.413 41.7747 121.936 41.392C122.468 41.0093 123.126 40.818 123.91 40.818C124.638 40.818 125.245 40.916 125.73 41.112ZM130.862 45.088H130.204C129.858 45.088 129.592 45.1627 129.406 45.312C129.219 45.4613 129.126 45.6527 129.126 45.886C129.126 46.362 129.401 46.6 129.952 46.6C130.241 46.6 130.465 46.5113 130.624 46.334C130.782 46.1567 130.862 45.914 130.862 45.606V45.088ZM127.544 43.086V41.252C128.104 40.9347 128.911 40.776 129.966 40.776C130.974 40.776 131.725 40.9953 132.22 41.434C132.714 41.8633 132.962 42.5353 132.962 43.45V48H130.96V47.132C130.661 47.7387 130.073 48.042 129.196 48.042C128.505 48.042 127.964 47.846 127.572 47.454C127.189 47.062 126.998 46.572 126.998 45.984C126.998 45.3027 127.245 44.7753 127.74 44.402C128.244 44.0193 128.986 43.828 129.966 43.828H130.862V43.338C130.862 42.7407 130.465 42.442 129.672 42.442C128.906 42.442 128.197 42.6567 127.544 43.086Z" fill="white"/>
</g>
<path d="M90.9048 93.984V96C90.1488 95.5613 89.3648 95.342 88.5528 95.342C88.1888 95.342 87.9088 95.4167 87.7128 95.566C87.5262 95.7153 87.4328 95.9067 87.4328 96.14C87.4328 96.3733 87.5495 96.5833 87.7828 96.77C88.0162 96.9473 88.3662 97.1387 88.8328 97.344C89.1222 97.4747 89.3602 97.5913 89.5468 97.694C89.7428 97.7873 89.9622 97.9227 90.2048 98.1C90.4568 98.268 90.6528 98.45 90.7928 98.646C90.9422 98.8327 91.0682 99.066 91.1708 99.346C91.2735 99.626 91.3248 99.9293 91.3248 100.256C91.3248 101.105 91.0122 101.796 90.3868 102.328C89.7615 102.851 88.9308 103.112 87.8948 103.112C86.7842 103.112 85.8788 102.916 85.1788 102.524V100.354C86.0282 100.97 86.9335 101.278 87.8948 101.278C88.2215 101.278 88.4922 101.194 88.7068 101.026C88.9215 100.849 89.0288 100.62 89.0288 100.34C89.0288 100.247 89.0148 100.158 88.9868 100.074C88.9588 99.99 88.9075 99.9107 88.8328 99.836C88.7582 99.7613 88.6835 99.7007 88.6088 99.654C88.5435 99.598 88.4408 99.5373 88.3008 99.472C88.1702 99.3973 88.0582 99.3367 87.9648 99.29C87.8715 99.2433 87.7315 99.178 87.5448 99.094C87.3675 99.01 87.2228 98.9447 87.1108 98.898C86.5042 98.618 86.0142 98.2727 85.6408 97.862C85.2768 97.4513 85.0948 96.9053 85.0948 96.224C85.0948 95.412 85.3935 94.7587 85.9908 94.264C86.5882 93.76 87.4142 93.508 88.4688 93.508C89.4115 93.508 90.2235 93.6667 90.9048 93.984ZM96.6822 98.8V98.632C96.6169 97.8013 96.2529 97.386 95.5902 97.386C95.2636 97.386 94.9742 97.5073 94.7222 97.75C94.4702 97.9833 94.3022 98.3333 94.2182 98.8H96.6822ZM98.1522 100.886V102.594C97.6669 102.911 96.9249 103.07 95.9262 103.07C94.7596 103.07 93.8496 102.734 93.1962 102.062C92.5522 101.381 92.2302 100.508 92.2302 99.444C92.2302 98.3147 92.5429 97.4327 93.1682 96.798C93.8029 96.154 94.5822 95.832 95.5062 95.832C96.4582 95.832 97.2096 96.112 97.7602 96.672C98.3109 97.2227 98.5862 98.0487 98.5862 99.15C98.5862 99.3647 98.5489 99.7333 98.4742 100.256H94.3022C94.4422 100.648 94.6849 100.951 95.0302 101.166C95.3756 101.381 95.7909 101.488 96.2762 101.488C96.9949 101.488 97.6202 101.287 98.1522 100.886ZM100.115 103V93.102H102.159V103H100.115ZM107.428 100.088H106.77C106.425 100.088 106.159 100.163 105.972 100.312C105.786 100.461 105.692 100.653 105.692 100.886C105.692 101.362 105.968 101.6 106.518 101.6C106.808 101.6 107.032 101.511 107.19 101.334C107.349 101.157 107.428 100.914 107.428 100.606V100.088ZM104.11 98.086V96.252C104.67 95.9347 105.478 95.776 106.532 95.776C107.54 95.776 108.292 95.9953 108.786 96.434C109.281 96.8633 109.528 97.5353 109.528 98.45V103H107.526V102.132C107.228 102.739 106.64 103.042 105.762 103.042C105.072 103.042 104.53 102.846 104.138 102.454C103.756 102.062 103.564 101.572 103.564 100.984C103.564 100.303 103.812 99.7753 104.306 99.402C104.81 99.0193 105.552 98.828 106.532 98.828H107.428V98.338C107.428 97.7407 107.032 97.442 106.238 97.442C105.473 97.442 104.764 97.6567 104.11 98.086ZM113.177 95.902V97.008C113.569 96.224 114.236 95.832 115.179 95.832C116.178 95.832 116.84 96.28 117.167 97.176C117.326 96.756 117.592 96.4293 117.965 96.196C118.338 95.9533 118.777 95.832 119.281 95.832C119.981 95.832 120.532 96.056 120.933 96.504C121.344 96.9427 121.549 97.5913 121.549 98.45V103H119.505V98.786C119.505 98.3847 119.426 98.0673 119.267 97.834C119.108 97.6007 118.88 97.484 118.581 97.484C118.264 97.484 117.979 97.6147 117.727 97.876C117.484 98.128 117.363 98.5853 117.363 99.248V103H115.319V98.786C115.319 98.3847 115.24 98.0673 115.081 97.834C114.922 97.6007 114.694 97.484 114.395 97.484C114.078 97.484 113.793 97.6147 113.541 97.876C113.298 98.128 113.177 98.5853 113.177 99.248V103H111.133V95.902H113.177ZM126.678 100.088H126.02C125.675 100.088 125.409 100.163 125.222 100.312C125.036 100.461 124.942 100.653 124.942 100.886C124.942 101.362 125.218 101.6 125.768 101.6C126.058 101.6 126.282 101.511 126.44 101.334C126.599 101.157 126.678 100.914 126.678 100.606V100.088ZM123.36 98.086V96.252C123.92 95.9347 124.728 95.776 125.782 95.776C126.79 95.776 127.542 95.9953 128.036 96.434C128.531 96.8633 128.778 97.5353 128.778 98.45V103H126.776V102.132C126.478 102.739 125.89 103.042 125.012 103.042C124.322 103.042 123.78 102.846 123.388 102.454C123.006 102.062 122.814 101.572 122.814 100.984C122.814 100.303 123.062 99.7753 123.556 99.402C124.06 99.0193 124.802 98.828 125.782 98.828H126.678V98.338C126.678 97.7407 126.282 97.442 125.488 97.442C124.723 97.442 124.014 97.6567 123.36 98.086ZM132.749 97.4V100.662C132.749 100.914 132.819 101.105 132.959 101.236C133.108 101.367 133.3 101.432 133.533 101.432C133.906 101.432 134.238 101.339 134.527 101.152V102.846C134.182 102.995 133.715 103.07 133.127 103.07C131.512 103.07 130.705 102.263 130.705 100.648V97.4H129.683V95.902H130.705V94.222H132.749V95.902H134.401V97.4H132.749ZM142.111 99.332H144.379L144.281 98.996C144.011 98.0813 143.787 97.302 143.609 96.658C143.441 96.014 143.339 95.5987 143.301 95.412L143.245 95.132C143.171 95.6453 142.825 96.9333 142.209 98.996L142.111 99.332ZM145.471 103L144.897 101.068H141.593L141.019 103H138.765L141.915 93.564H144.631L147.781 103H145.471ZM151.315 97.4V100.662C151.315 100.914 151.385 101.105 151.525 101.236C151.675 101.367 151.866 101.432 152.099 101.432C152.473 101.432 152.804 101.339 153.093 101.152V102.846C152.748 102.995 152.281 103.07 151.693 103.07C150.079 103.07 149.271 102.263 149.271 100.648V97.4H148.249V95.902H149.271V94.222H151.315V95.902H152.967V97.4H151.315ZM157.864 100.088H157.206C156.86 100.088 156.594 100.163 156.408 100.312C156.221 100.461 156.128 100.653 156.128 100.886C156.128 101.362 156.403 101.6 156.954 101.6C157.243 101.6 157.467 101.511 157.626 101.334C157.784 101.157 157.864 100.914 157.864 100.606V100.088ZM154.546 98.086V96.252C155.106 95.9347 155.913 95.776 156.968 95.776C157.976 95.776 158.727 95.9953 159.222 96.434C159.716 96.8633 159.964 97.5353 159.964 98.45V103H157.962V102.132C157.663 102.739 157.075 103.042 156.198 103.042C155.507 103.042 154.966 102.846 154.574 102.454C154.191 102.062 154 101.572 154 100.984C154 100.303 154.247 99.7753 154.742 99.402C155.246 99.0193 155.988 98.828 156.968 98.828H157.864V98.338C157.864 97.7407 157.467 97.442 156.674 97.442C155.908 97.442 155.199 97.6567 154.546 98.086ZM166.049 96.112V97.862C165.554 97.5727 164.975 97.428 164.313 97.428C164.07 97.428 163.883 97.4793 163.753 97.582C163.622 97.6753 163.557 97.7967 163.557 97.946C163.557 98.03 163.58 98.1093 163.627 98.184C163.673 98.2587 163.748 98.3287 163.851 98.394C163.963 98.4593 164.065 98.52 164.159 98.576C164.261 98.6227 164.397 98.6833 164.565 98.758C164.742 98.8327 164.882 98.898 164.985 98.954C165.414 99.178 165.759 99.4393 166.021 99.738C166.282 100.027 166.413 100.401 166.413 100.858C166.413 101.558 166.161 102.099 165.657 102.482C165.153 102.865 164.485 103.056 163.655 103.056C162.796 103.056 162.077 102.911 161.499 102.622V100.802C162.143 101.25 162.824 101.474 163.543 101.474C164.056 101.474 164.313 101.311 164.313 100.984C164.313 100.9 164.289 100.821 164.243 100.746C164.196 100.671 164.117 100.601 164.005 100.536C163.893 100.471 163.79 100.419 163.697 100.382C163.603 100.335 163.468 100.275 163.291 100.2C163.113 100.125 162.978 100.065 162.885 100.018C161.942 99.57 161.471 98.898 161.471 98.002C161.471 97.3113 161.732 96.7747 162.255 96.392C162.787 96.0093 163.445 95.818 164.229 95.818C164.957 95.818 165.563 95.916 166.049 96.112ZM171.236 103V93.564H173.392V103H171.236ZM176.01 98.282L179.356 103H176.654L173.49 98.31L176.542 93.564H179.104L176.01 98.282ZM184.538 98.8V98.632C184.472 97.8013 184.108 97.386 183.446 97.386C183.119 97.386 182.83 97.5073 182.578 97.75C182.326 97.9833 182.158 98.3333 182.074 98.8H184.538ZM186.008 100.886V102.594C185.522 102.911 184.78 103.07 183.782 103.07C182.615 103.07 181.705 102.734 181.052 102.062C180.408 101.381 180.086 100.508 180.086 99.444C180.086 98.3147 180.398 97.4327 181.024 96.798C181.658 96.154 182.438 95.832 183.362 95.832C184.314 95.832 185.065 96.112 185.616 96.672C186.166 97.2227 186.442 98.0487 186.442 99.15C186.442 99.3647 186.404 99.7333 186.33 100.256H182.158C182.298 100.648 182.54 100.951 182.886 101.166C183.231 101.381 183.646 101.488 184.132 101.488C184.85 101.488 185.476 101.287 186.008 100.886ZM187.971 103V93.102H190.015V103H187.971ZM195.284 100.088H194.626C194.28 100.088 194.014 100.163 193.828 100.312C193.641 100.461 193.548 100.653 193.548 100.886C193.548 101.362 193.823 101.6 194.374 101.6C194.663 101.6 194.887 101.511 195.046 101.334C195.204 101.157 195.284 100.914 195.284 100.606V100.088ZM191.966 98.086V96.252C192.526 95.9347 193.333 95.776 194.388 95.776C195.396 95.776 196.147 95.9953 196.642 96.434C197.136 96.8633 197.384 97.5353 197.384 98.45V103H195.382V102.132C195.083 102.739 194.495 103.042 193.618 103.042C192.927 103.042 192.386 102.846 191.994 102.454C191.611 102.062 191.42 101.572 191.42 100.984C191.42 100.303 191.667 99.7753 192.162 99.402C192.666 99.0193 193.408 98.828 194.388 98.828H195.284V98.338C195.284 97.7407 194.887 97.442 194.094 97.442C193.328 97.442 192.619 97.6567 191.966 98.086ZM201.032 93.102V97.106C201.396 96.2567 202.106 95.832 203.16 95.832C203.851 95.832 204.411 96.0513 204.84 96.49C205.279 96.9287 205.498 97.5913 205.498 98.478V103H203.454V98.8C203.454 98.3893 203.352 98.0673 203.146 97.834C202.941 97.6007 202.675 97.484 202.348 97.484C202.208 97.484 202.073 97.5073 201.942 97.554C201.821 97.5913 201.686 97.666 201.536 97.778C201.387 97.8807 201.266 98.0627 201.172 98.324C201.079 98.576 201.032 98.884 201.032 99.248V103H198.988V93.102H201.032ZM207.18 103V95.902H209.224V103H207.18ZM207.362 94.684C207.128 94.4507 207.012 94.1707 207.012 93.844C207.012 93.5173 207.128 93.2373 207.362 93.004C207.595 92.7707 207.875 92.654 208.202 92.654C208.528 92.654 208.808 92.7707 209.042 93.004C209.275 93.2373 209.392 93.5173 209.392 93.844C209.392 94.1707 209.275 94.4507 209.042 94.684C208.808 94.9173 208.528 95.034 208.202 95.034C207.875 95.034 207.595 94.9173 207.362 94.684ZM213.009 95.902V97.218C213.139 96.8073 213.354 96.4807 213.653 96.238C213.961 95.986 214.315 95.86 214.717 95.86C214.941 95.86 215.118 95.8787 215.249 95.916V97.848C215.025 97.7453 214.768 97.694 214.479 97.694C214.04 97.694 213.685 97.8573 213.415 98.184C213.144 98.5013 213.009 98.926 213.009 99.458V103H210.965L210.979 95.902H213.009ZM219.674 100.088H219.016C218.671 100.088 218.405 100.163 218.218 100.312C218.032 100.461 217.938 100.653 217.938 100.886C217.938 101.362 218.214 101.6 218.764 101.6C219.054 101.6 219.278 101.511 219.436 101.334C219.595 101.157 219.674 100.914 219.674 100.606V100.088ZM216.356 98.086V96.252C216.916 95.9347 217.724 95.776 218.778 95.776C219.786 95.776 220.538 95.9953 221.032 96.434C221.527 96.8633 221.774 97.5353 221.774 98.45V103H219.772V102.132C219.474 102.739 218.886 103.042 218.008 103.042C217.318 103.042 216.776 102.846 216.384 102.454C216.002 102.062 215.81 101.572 215.81 100.984C215.81 100.303 216.058 99.7753 216.552 99.402C217.056 99.0193 217.798 98.828 218.778 98.828H219.674V98.338C219.674 97.7407 219.278 97.442 218.484 97.442C217.719 97.442 217.01 97.6567 216.356 98.086ZM225.423 95.902V97.106C225.6 96.714 225.871 96.406 226.235 96.182C226.608 95.9487 227.052 95.832 227.565 95.832C228.293 95.832 228.862 96.0513 229.273 96.49C229.684 96.9193 229.889 97.554 229.889 98.394V103H227.845V98.772C227.845 98.352 227.747 98.0347 227.551 97.82C227.355 97.596 227.08 97.484 226.725 97.484C226.352 97.484 226.039 97.6333 225.787 97.932C225.544 98.2213 225.423 98.66 225.423 99.248V103H223.379V95.902H225.423ZM233.544 95.902V97.106C233.721 96.714 233.992 96.406 234.356 96.182C234.729 95.9487 235.173 95.832 235.686 95.832C236.414 95.832 236.983 96.0513 237.394 96.49C237.805 96.9193 238.01 97.554 238.01 98.394V103H235.966V98.772C235.966 98.352 235.868 98.0347 235.672 97.82C235.476 97.596 235.201 97.484 234.846 97.484C234.473 97.484 234.16 97.6333 233.908 97.932C233.665 98.2213 233.544 98.66 233.544 99.248V103H231.5V95.902H233.544ZM241.595 102.888L238.851 95.902H241.077L241.847 98.114C242.043 98.6833 242.202 99.1733 242.323 99.584C242.454 99.9947 242.533 100.265 242.561 100.396L242.603 100.592C242.706 100.219 242.958 99.3927 243.359 98.114L244.059 95.902H246.159L243.597 102.79C242.86 104.778 241.735 105.772 240.223 105.772C239.934 105.772 239.673 105.749 239.439 105.702V104.078C239.589 104.115 239.747 104.134 239.915 104.134C240.69 104.134 241.25 103.719 241.595 102.888ZM250.586 100.088H249.928C249.583 100.088 249.317 100.163 249.13 100.312C248.944 100.461 248.85 100.653 248.85 100.886C248.85 101.362 249.126 101.6 249.676 101.6C249.966 101.6 250.19 101.511 250.348 101.334C250.507 101.157 250.586 100.914 250.586 100.606V100.088ZM247.268 98.086V96.252C247.828 95.9347 248.636 95.776 249.69 95.776C250.698 95.776 251.45 95.9953 251.944 96.434C252.439 96.8633 252.686 97.5353 252.686 98.45V103H250.684V102.132C250.386 102.739 249.798 103.042 248.92 103.042C248.23 103.042 247.688 102.846 247.296 102.454C246.914 102.062 246.722 101.572 246.722 100.984C246.722 100.303 246.97 99.7753 247.464 99.402C247.968 99.0193 248.71 98.828 249.69 98.828H250.586V98.338C250.586 97.7407 250.19 97.442 249.396 97.442C248.631 97.442 247.922 97.6567 247.268 98.086Z" fill="#2B2B2B"/>
<path d="M44.26 117.76H45.14C45.6267 117.76 45.9967 117.64 46.25 117.4C46.51 117.16 46.64 116.843 46.64 116.45C46.64 116.037 46.51 115.71 46.25 115.47C45.99 115.23 45.6133 115.11 45.12 115.11H44.26V117.76ZM43.23 114.26H45.16C45.9333 114.26 46.5467 114.467 47 114.88C47.4533 115.287 47.68 115.81 47.68 116.45C47.68 117.09 47.45 117.61 46.99 118.01C46.5367 118.41 45.9467 118.61 45.22 118.61H44.26V121H43.23V114.26ZM51.838 115.93H52.818V121H51.838V120.13C51.5714 120.75 51.0447 121.06 50.258 121.06C49.758 121.06 49.3614 120.913 49.068 120.62C48.7747 120.32 48.628 119.91 48.628 119.39V115.93H49.618V119.15C49.618 119.497 49.7014 119.763 49.868 119.95C50.0414 120.13 50.278 120.22 50.578 120.22C50.958 120.22 51.2614 120.087 51.488 119.82C51.7214 119.553 51.838 119.177 51.838 118.69V115.93ZM55.4659 116.69V119.48C55.4659 119.967 55.6992 120.21 56.1659 120.21C56.4392 120.21 56.6692 120.137 56.8559 119.99V120.87C56.6359 120.99 56.3659 121.05 56.0459 121.05C54.9992 121.05 54.4759 120.52 54.4759 119.46V116.69H53.6859V115.93H54.4759V114.69H55.4659V115.93H56.7959V116.69H55.4659ZM60.6061 118.74H59.8461C59.4728 118.74 59.1894 118.813 58.9961 118.96C58.8094 119.107 58.7161 119.293 58.7161 119.52C58.7161 119.753 58.7894 119.937 58.9361 120.07C59.0828 120.203 59.2961 120.27 59.5761 120.27C59.8961 120.27 60.1461 120.183 60.3261 120.01C60.5128 119.83 60.6061 119.597 60.6061 119.31V118.74ZM58.0561 117.14V116.19C58.4494 115.963 58.9694 115.85 59.6161 115.85C60.9428 115.85 61.6061 116.493 61.6061 117.78V121H60.6361V120.4C60.3761 120.827 59.9194 121.04 59.2661 121.04C58.7861 121.04 58.3994 120.903 58.1061 120.63C57.8194 120.35 57.6761 119.997 57.6761 119.57C57.6761 119.083 57.8594 118.707 58.2261 118.44C58.5928 118.167 59.1061 118.03 59.7661 118.03H60.6061V117.74C60.6061 117.393 60.5228 117.133 60.3561 116.96C60.1894 116.78 59.9128 116.69 59.5261 116.69C58.9861 116.69 58.4961 116.84 58.0561 117.14ZM63.9063 115.93V116.82C64.153 116.193 64.5963 115.88 65.2363 115.88C65.3297 115.88 65.433 115.89 65.5463 115.91V116.87C65.4063 116.81 65.2497 116.78 65.0763 116.78C64.7363 116.78 64.4563 116.93 64.2363 117.23C64.0163 117.53 63.9063 117.887 63.9063 118.3V121H62.9263V115.93H63.9063ZM71.9259 115.93H72.9059V121H71.9259V120.13C71.6593 120.75 71.1326 121.06 70.3459 121.06C69.8459 121.06 69.4493 120.913 69.1559 120.62C68.8626 120.32 68.7159 119.91 68.7159 119.39V115.93H69.7059V119.15C69.7059 119.497 69.7893 119.763 69.9559 119.95C70.1293 120.13 70.3659 120.22 70.6659 120.22C71.0459 120.22 71.3493 120.087 71.5759 119.82C71.8093 119.553 71.9259 119.177 71.9259 118.69V115.93ZM75.2638 115.93V116.8C75.5638 116.173 76.0904 115.86 76.8438 115.86C77.3438 115.86 77.7404 116.013 78.0338 116.32C78.3271 116.627 78.4738 117.043 78.4738 117.57V121H77.4938V117.8C77.4938 117.447 77.4038 117.177 77.2238 116.99C77.0504 116.803 76.8171 116.71 76.5238 116.71C76.1771 116.71 75.8804 116.847 75.6338 117.12C75.3871 117.387 75.2638 117.763 75.2638 118.25V121H74.2838V115.93H75.2638ZM81.0616 116.69V119.48C81.0616 119.967 81.2949 120.21 81.7616 120.21C82.0349 120.21 82.2649 120.137 82.4516 119.99V120.87C82.2316 120.99 81.9616 121.05 81.6416 121.05C80.5949 121.05 80.0716 120.52 80.0716 119.46V116.69H79.2816V115.93H80.0716V114.69H81.0616V115.93H82.3916V116.69H81.0616ZM86.6818 115.93H87.6618V121H86.6818V120.13C86.4151 120.75 85.8885 121.06 85.1018 121.06C84.6018 121.06 84.2051 120.913 83.9118 120.62C83.6185 120.32 83.4718 119.91 83.4718 119.39V115.93H84.4618V119.15C84.4618 119.497 84.5451 119.763 84.7118 119.95C84.8851 120.13 85.1218 120.22 85.4218 120.22C85.8018 120.22 86.1051 120.087 86.3318 119.82C86.5651 119.553 86.6818 119.177 86.6818 118.69V115.93ZM89.0396 121V114H90.0196V121H89.0396ZM91.1896 118.35L93.1796 121H92.0096L90.0596 118.35L91.9696 115.93H93.1196L91.1896 118.35ZM97.4805 115.93V116.74C97.7672 116.153 98.2439 115.86 98.9105 115.86C99.6705 115.86 100.157 116.187 100.371 116.84C100.511 116.527 100.714 116.287 100.981 116.12C101.247 115.947 101.547 115.86 101.881 115.86C102.401 115.86 102.794 116.013 103.061 116.32C103.334 116.627 103.471 117.05 103.471 117.59V121H102.491V117.8C102.491 117.073 102.197 116.71 101.611 116.71C101.317 116.71 101.054 116.84 100.821 117.1C100.594 117.36 100.481 117.743 100.481 118.25V121H99.5005V117.8C99.5005 117.073 99.2039 116.71 98.6105 116.71C98.3239 116.71 98.0639 116.84 97.8305 117.1C97.5972 117.36 97.4805 117.743 97.4805 118.25V121H96.5005V115.93H97.4805ZM107.951 118.1V117.92C107.938 117.54 107.835 117.24 107.641 117.02C107.448 116.793 107.171 116.68 106.811 116.68C106.478 116.68 106.191 116.803 105.951 117.05C105.711 117.29 105.561 117.64 105.501 118.1H107.951ZM108.581 119.85V120.73C108.208 120.943 107.715 121.05 107.101 121.05C106.315 121.05 105.688 120.813 105.221 120.34C104.755 119.867 104.521 119.247 104.521 118.48C104.521 117.667 104.735 117.03 105.161 116.57C105.588 116.103 106.131 115.87 106.791 115.87C107.438 115.87 107.951 116.073 108.331 116.48C108.711 116.88 108.901 117.46 108.901 118.22C108.901 118.427 108.881 118.643 108.841 118.87H105.511C105.578 119.31 105.765 119.647 106.071 119.88C106.378 120.113 106.765 120.23 107.231 120.23C107.771 120.23 108.221 120.103 108.581 119.85ZM111.035 115.93V116.8C111.335 116.173 111.862 115.86 112.615 115.86C113.115 115.86 113.512 116.013 113.805 116.32C114.099 116.627 114.245 117.043 114.245 117.57V121H113.265V117.8C113.265 117.447 113.175 117.177 112.995 116.99C112.822 116.803 112.589 116.71 112.295 116.71C111.949 116.71 111.652 116.847 111.405 117.12C111.159 117.387 111.035 117.763 111.035 118.25V121H110.055V115.93H111.035ZM117.563 120.02C117.91 120.02 118.21 119.887 118.463 119.62C118.723 119.347 118.853 118.967 118.853 118.48C118.853 117.88 118.73 117.437 118.483 117.15C118.243 116.863 117.95 116.72 117.603 116.72C117.21 116.72 116.9 116.877 116.673 117.19C116.446 117.497 116.333 117.903 116.333 118.41C116.333 118.937 116.453 119.337 116.693 119.61C116.94 119.883 117.23 120.02 117.563 120.02ZM118.853 115.93H119.833V120.57C119.833 121.35 119.61 121.937 119.163 122.33C118.723 122.73 118.156 122.93 117.463 122.93C116.81 122.93 116.26 122.82 115.813 122.6V121.61C116.24 121.89 116.756 122.03 117.363 122.03C118.356 122.03 118.853 121.54 118.853 120.56V120.04C118.526 120.587 118.036 120.86 117.383 120.86C116.81 120.86 116.32 120.65 115.913 120.23C115.506 119.803 115.303 119.203 115.303 118.43C115.303 117.683 115.493 117.07 115.873 116.59C116.253 116.103 116.756 115.86 117.383 115.86C118.056 115.86 118.546 116.147 118.853 116.72V115.93ZM124.299 118.1V117.92C124.286 117.54 124.182 117.24 123.989 117.02C123.796 116.793 123.519 116.68 123.159 116.68C122.826 116.68 122.539 116.803 122.299 117.05C122.059 117.29 121.909 117.64 121.849 118.1H124.299ZM124.929 119.85V120.73C124.556 120.943 124.062 121.05 123.449 121.05C122.662 121.05 122.036 120.813 121.569 120.34C121.102 119.867 120.869 119.247 120.869 118.48C120.869 117.667 121.082 117.03 121.509 116.57C121.936 116.103 122.479 115.87 123.139 115.87C123.786 115.87 124.299 116.073 124.679 116.48C125.059 116.88 125.249 117.46 125.249 118.22C125.249 118.427 125.229 118.643 125.189 118.87H121.859C121.926 119.31 122.112 119.647 122.419 119.88C122.726 120.113 123.112 120.23 123.579 120.23C124.119 120.23 124.569 120.103 124.929 119.85ZM127.673 116.69V119.48C127.673 119.967 127.906 120.21 128.373 120.21C128.646 120.21 128.876 120.137 129.063 119.99V120.87C128.843 120.99 128.573 121.05 128.253 121.05C127.206 121.05 126.683 120.52 126.683 119.46V116.69H125.893V115.93H126.683V114.69H127.673V115.93H129.003V116.69H127.673ZM132.813 118.74H132.053C131.68 118.74 131.396 118.813 131.203 118.96C131.016 119.107 130.923 119.293 130.923 119.52C130.923 119.753 130.996 119.937 131.143 120.07C131.29 120.203 131.503 120.27 131.783 120.27C132.103 120.27 132.353 120.183 132.533 120.01C132.72 119.83 132.813 119.597 132.813 119.31V118.74ZM130.263 117.14V116.19C130.656 115.963 131.176 115.85 131.823 115.85C133.15 115.85 133.813 116.493 133.813 117.78V121H132.843V120.4C132.583 120.827 132.126 121.04 131.473 121.04C130.993 121.04 130.606 120.903 130.313 120.63C130.026 120.35 129.883 119.997 129.883 119.57C129.883 119.083 130.066 118.707 130.433 118.44C130.8 118.167 131.313 118.03 131.973 118.03H132.813V117.74C132.813 117.393 132.73 117.133 132.563 116.96C132.396 116.78 132.12 116.69 131.733 116.69C131.193 116.69 130.703 116.84 130.263 117.14ZM136.113 113.93V116.8C136.4 116.173 136.923 115.86 137.683 115.86C138.177 115.86 138.573 116.013 138.873 116.32C139.173 116.627 139.323 117.053 139.323 117.6V121H138.343V117.8C138.343 117.453 138.253 117.187 138.073 117C137.9 116.807 137.67 116.71 137.383 116.71C137.05 116.71 136.753 116.837 136.493 117.09C136.24 117.343 136.113 117.73 136.113 118.25V121H135.133V113.93H136.113ZM143.791 115.93H144.771V121H143.791V120.13C143.525 120.75 142.998 121.06 142.211 121.06C141.711 121.06 141.315 120.913 141.021 120.62C140.728 120.32 140.581 119.91 140.581 119.39V115.93H141.571V119.15C141.571 119.497 141.655 119.763 141.821 119.95C141.995 120.13 142.231 120.22 142.531 120.22C142.911 120.22 143.215 120.087 143.441 119.82C143.675 119.553 143.791 119.177 143.791 118.69V115.93ZM146.189 121V115.93H147.179V121H146.189ZM146.239 114.82C146.126 114.7 146.069 114.553 146.069 114.38C146.069 114.207 146.126 114.06 146.239 113.94C146.359 113.82 146.506 113.76 146.679 113.76C146.852 113.76 146.999 113.82 147.119 113.94C147.239 114.06 147.299 114.207 147.299 114.38C147.299 114.547 147.239 114.69 147.119 114.81C146.999 114.93 146.852 114.99 146.679 114.99C146.506 114.99 146.359 114.933 146.239 114.82ZM45.58 136.21C45.9533 136.21 46.2667 136.053 46.52 135.74C46.7733 135.42 46.9 135.01 46.9 134.51C46.9 133.937 46.7733 133.497 46.52 133.19C46.2667 132.877 45.9433 132.72 45.55 132.72C45.2033 132.72 44.89 132.86 44.61 133.14C44.3367 133.42 44.2 133.85 44.2 134.43C44.2 135.03 44.3333 135.477 44.6 135.77C44.8667 136.063 45.1933 136.21 45.58 136.21ZM44.2 129.93V132.7C44.56 132.14 45.07 131.86 45.73 131.86C46.37 131.86 46.8933 132.1 47.3 132.58C47.7067 133.06 47.91 133.697 47.91 134.49C47.91 135.203 47.7167 135.813 47.33 136.32C46.9433 136.82 46.4133 137.07 45.74 137.07C45.0667 137.07 44.5533 136.79 44.2 136.23V137H43.21V129.93H44.2ZM49.0503 137V131.93H50.0403V137H49.0503ZM49.1003 130.82C48.987 130.7 48.9303 130.553 48.9303 130.38C48.9303 130.207 48.987 130.06 49.1003 129.94C49.2203 129.82 49.367 129.76 49.5403 129.76C49.7136 129.76 49.8603 129.82 49.9803 129.94C50.1003 130.06 50.1603 130.207 50.1603 130.38C50.1603 130.547 50.1003 130.69 49.9803 130.81C49.8603 130.93 49.7136 130.99 49.5403 130.99C49.367 130.99 49.2203 130.933 49.1003 130.82ZM54.1315 134.74H53.3715C52.9982 134.74 52.7148 134.813 52.5215 134.96C52.3348 135.107 52.2415 135.293 52.2415 135.52C52.2415 135.753 52.3148 135.937 52.4615 136.07C52.6082 136.203 52.8215 136.27 53.1015 136.27C53.4215 136.27 53.6715 136.183 53.8515 136.01C54.0382 135.83 54.1315 135.597 54.1315 135.31V134.74ZM51.5815 133.14V132.19C51.9748 131.963 52.4948 131.85 53.1415 131.85C54.4682 131.85 55.1315 132.493 55.1315 133.78V137H54.1615V136.4C53.9015 136.827 53.4448 137.04 52.7915 137.04C52.3115 137.04 51.9248 136.903 51.6315 136.63C51.3448 136.35 51.2015 135.997 51.2015 135.57C51.2015 135.083 51.3848 134.707 51.7515 134.44C52.1182 134.167 52.6315 134.03 53.2915 134.03H54.1315V133.74C54.1315 133.393 54.0482 133.133 53.8815 132.96C53.7148 132.78 53.4382 132.69 53.0515 132.69C52.5115 132.69 52.0215 132.84 51.5815 133.14ZM57.8517 136.89L55.8317 131.93H56.9217L57.5517 133.58L58.3417 135.72C58.4017 135.52 58.6417 134.807 59.0617 133.58L59.6317 131.93H60.6717L58.8417 136.86C58.3551 138.16 57.6117 138.81 56.6117 138.81C56.4317 138.81 56.2784 138.793 56.1517 138.76V137.92C56.2584 137.947 56.3717 137.96 56.4917 137.96C57.1384 137.96 57.5917 137.603 57.8517 136.89ZM64.1608 134.74H63.4008C63.0274 134.74 62.7441 134.813 62.5508 134.96C62.3641 135.107 62.2708 135.293 62.2708 135.52C62.2708 135.753 62.3441 135.937 62.4908 136.07C62.6374 136.203 62.8508 136.27 63.1308 136.27C63.4508 136.27 63.7008 136.183 63.8808 136.01C64.0674 135.83 64.1608 135.597 64.1608 135.31V134.74ZM61.6108 133.14V132.19C62.0041 131.963 62.5241 131.85 63.1708 131.85C64.4974 131.85 65.1608 132.493 65.1608 133.78V137H64.1908V136.4C63.9308 136.827 63.4741 137.04 62.8208 137.04C62.3408 137.04 61.9541 136.903 61.6608 136.63C61.3741 136.35 61.2308 135.997 61.2308 135.57C61.2308 135.083 61.4141 134.707 61.7808 134.44C62.1474 134.167 62.6608 134.03 63.3208 134.03H64.1608V133.74C64.1608 133.393 64.0774 133.133 63.9108 132.96C63.7441 132.78 63.4674 132.69 63.0808 132.69C62.5408 132.69 62.0508 132.84 61.6108 133.14ZM68.982 137V130.26H70.012V137H68.982ZM71.372 133.66L73.992 137H72.692L70.142 133.67L72.592 130.26H73.842L71.372 133.66ZM78.0783 134.1V133.92C78.0649 133.54 77.9616 133.24 77.7683 133.02C77.5749 132.793 77.2983 132.68 76.9383 132.68C76.6049 132.68 76.3183 132.803 76.0783 133.05C75.8383 133.29 75.6883 133.64 75.6283 134.1H78.0783ZM78.7083 135.85V136.73C78.3349 136.943 77.8416 137.05 77.2283 137.05C76.4416 137.05 75.8149 136.813 75.3483 136.34C74.8816 135.867 74.6483 135.247 74.6483 134.48C74.6483 133.667 74.8616 133.03 75.2883 132.57C75.7149 132.103 76.2583 131.87 76.9183 131.87C77.5649 131.87 78.0783 132.073 78.4583 132.48C78.8383 132.88 79.0283 133.46 79.0283 134.22C79.0283 134.427 79.0083 134.643 78.9683 134.87H75.6383C75.7049 135.31 75.8916 135.647 76.1983 135.88C76.5049 136.113 76.8916 136.23 77.3583 136.23C77.8983 136.23 78.3483 136.103 78.7083 135.85ZM80.2222 137V129.93H81.2122V137H80.2222ZM85.3034 134.74H84.5434C84.17 134.74 83.8867 134.813 83.6934 134.96C83.5067 135.107 83.4134 135.293 83.4134 135.52C83.4134 135.753 83.4867 135.937 83.6334 136.07C83.78 136.203 83.9934 136.27 84.2734 136.27C84.5934 136.27 84.8434 136.183 85.0234 136.01C85.21 135.83 85.3034 135.597 85.3034 135.31V134.74ZM82.7534 133.14V132.19C83.1467 131.963 83.6667 131.85 84.3134 131.85C85.64 131.85 86.3034 132.493 86.3034 133.78V137H85.3334V136.4C85.0734 136.827 84.6167 137.04 83.9634 137.04C83.4834 137.04 83.0967 136.903 82.8034 136.63C82.5167 136.35 82.3734 135.997 82.3734 135.57C82.3734 135.083 82.5567 134.707 82.9234 134.44C83.29 134.167 83.8034 134.03 84.4634 134.03H85.3034V133.74C85.3034 133.393 85.22 133.133 85.0534 132.96C84.8867 132.78 84.61 132.69 84.2234 132.69C83.6834 132.69 83.1934 132.84 82.7534 133.14ZM88.6036 129.93V132.8C88.8903 132.173 89.4136 131.86 90.1736 131.86C90.6669 131.86 91.0636 132.013 91.3636 132.32C91.6636 132.627 91.8136 133.053 91.8136 133.6V137H90.8336V133.8C90.8336 133.453 90.7436 133.187 90.5636 133C90.3903 132.807 90.1603 132.71 89.8736 132.71C89.5403 132.71 89.2436 132.837 88.9836 133.09C88.7303 133.343 88.6036 133.73 88.6036 134.25V137H87.6236V129.93H88.6036ZM93.1714 137V131.93H94.1614V137H93.1714ZM93.2214 130.82C93.1081 130.7 93.0514 130.553 93.0514 130.38C93.0514 130.207 93.1081 130.06 93.2214 129.94C93.3414 129.82 93.4881 129.76 93.6614 129.76C93.8347 129.76 93.9814 129.82 94.1014 129.94C94.2214 130.06 94.2814 130.207 94.2814 130.38C94.2814 130.547 94.2214 130.69 94.1014 130.81C93.9814 130.93 93.8347 130.99 93.6614 130.99C93.4881 130.99 93.3414 130.933 93.2214 130.82ZM96.5626 131.93V132.82C96.8092 132.193 97.2526 131.88 97.8926 131.88C97.9859 131.88 98.0892 131.89 98.2026 131.91V132.87C98.0626 132.81 97.9059 132.78 97.7326 132.78C97.3926 132.78 97.1126 132.93 96.8926 133.23C96.6726 133.53 96.5626 133.887 96.5626 134.3V137H95.5826V131.93H96.5626ZM101.641 134.74H100.881C100.508 134.74 100.225 134.813 100.031 134.96C99.8446 135.107 99.7512 135.293 99.7512 135.52C99.7512 135.753 99.8246 135.937 99.9713 136.07C100.118 136.203 100.331 136.27 100.611 136.27C100.931 136.27 101.181 136.183 101.361 136.01C101.548 135.83 101.641 135.597 101.641 135.31V134.74ZM99.0913 133.14V132.19C99.4846 131.963 100.005 131.85 100.651 131.85C101.978 131.85 102.641 132.493 102.641 133.78V137H101.671V136.4C101.411 136.827 100.955 137.04 100.301 137.04C99.8213 137.04 99.4346 136.903 99.1413 136.63C98.8546 136.35 98.7113 135.997 98.7113 135.57C98.7113 135.083 98.8946 134.707 99.2613 134.44C99.6279 134.167 100.141 134.03 100.801 134.03H101.641V133.74C101.641 133.393 101.558 133.133 101.391 132.96C101.225 132.78 100.948 132.69 100.561 132.69C100.021 132.69 99.5312 132.84 99.0913 133.14ZM104.941 131.93V132.8C105.241 132.173 105.768 131.86 106.521 131.86C107.021 131.86 107.418 132.013 107.711 132.32C108.005 132.627 108.151 133.043 108.151 133.57V137H107.171V133.8C107.171 133.447 107.081 133.177 106.901 132.99C106.728 132.803 106.495 132.71 106.201 132.71C105.855 132.71 105.558 132.847 105.311 133.12C105.065 133.387 104.941 133.763 104.941 134.25V137H103.961V131.93H104.941ZM43.23 169V162.26H44.45L46.11 165.08C46.4167 165.607 46.6933 166.093 46.94 166.54C47.1933 166.987 47.3667 167.3 47.46 167.48L47.6 167.76C47.56 167.153 47.54 166.263 47.54 165.09V162.26H48.57V169H47.35L45.68 166.19C45.38 165.683 45.1033 165.207 44.85 164.76C44.6033 164.307 44.43 163.98 44.33 163.78L44.18 163.49C44.2333 164.157 44.26 165.053 44.26 166.18V169H43.23ZM52.1069 169.09C51.3602 169.09 50.7735 168.847 50.3469 168.36C49.9202 167.873 49.7069 167.257 49.7069 166.51C49.7069 165.75 49.9269 165.12 50.3669 164.62C50.8069 164.113 51.3869 163.86 52.1069 163.86C52.8802 163.86 53.4769 164.107 53.8969 164.6C54.3169 165.087 54.5269 165.71 54.5269 166.47C54.5269 167.23 54.3102 167.857 53.8769 168.35C53.4502 168.843 52.8602 169.09 52.1069 169.09ZM52.0969 164.69C51.6635 164.69 51.3269 164.863 51.0869 165.21C50.8469 165.55 50.7269 165.973 50.7269 166.48C50.7269 166.98 50.8502 167.403 51.0969 167.75C51.3435 168.09 51.6802 168.26 52.1069 168.26C52.5602 168.26 52.9035 168.093 53.1369 167.76C53.3769 167.427 53.4969 167.003 53.4969 166.49C53.4969 165.963 53.3835 165.533 53.1569 165.2C52.9302 164.86 52.5769 164.69 52.0969 164.69ZM56.6114 163.93V164.82C56.8581 164.193 57.3014 163.88 57.9414 163.88C58.0347 163.88 58.1381 163.89 58.2514 163.91V164.87C58.1114 164.81 57.9547 164.78 57.7814 164.78C57.4414 164.78 57.1614 164.93 56.9414 165.23C56.7214 165.53 56.6114 165.887 56.6114 166.3V169H55.6314V163.93H56.6114ZM60.0001 163.93V164.74C60.2867 164.153 60.7634 163.86 61.4301 163.86C62.1901 163.86 62.6767 164.187 62.8901 164.84C63.0301 164.527 63.2334 164.287 63.5001 164.12C63.7667 163.947 64.0667 163.86 64.4001 163.86C64.9201 163.86 65.3134 164.013 65.5801 164.32C65.8534 164.627 65.9901 165.05 65.9901 165.59V169H65.0101V165.8C65.0101 165.073 64.7167 164.71 64.1301 164.71C63.8367 164.71 63.5734 164.84 63.3401 165.1C63.1134 165.36 63.0001 165.743 63.0001 166.25V169H62.0201V165.8C62.0201 165.073 61.7234 164.71 61.1301 164.71C60.8434 164.71 60.5834 164.84 60.3501 165.1C60.1167 165.36 60.0001 165.743 60.0001 166.25V169H59.0201V163.93H60.0001ZM69.9909 166.74H69.2309C68.8575 166.74 68.5742 166.813 68.3809 166.96C68.1942 167.107 68.1009 167.293 68.1009 167.52C68.1009 167.753 68.1742 167.937 68.3209 168.07C68.4675 168.203 68.6809 168.27 68.9609 168.27C69.2809 168.27 69.5309 168.183 69.7109 168.01C69.8975 167.83 69.9909 167.597 69.9909 167.31V166.74ZM67.4409 165.14V164.19C67.8342 163.963 68.3542 163.85 69.0009 163.85C70.3275 163.85 70.9909 164.493 70.9909 165.78V169H70.0209V168.4C69.7609 168.827 69.3042 169.04 68.6509 169.04C68.1709 169.04 67.7842 168.903 67.4909 168.63C67.2042 168.35 67.0609 167.997 67.0609 167.57C67.0609 167.083 67.2442 166.707 67.6109 166.44C67.9775 166.167 68.4909 166.03 69.1509 166.03H69.9909V165.74C69.9909 165.393 69.9075 165.133 69.7409 164.96C69.5742 164.78 69.2975 164.69 68.9109 164.69C68.3709 164.69 67.8809 164.84 67.4409 165.14ZM72.3511 169V161.93H73.3411V169H72.3511ZM42.96 197.6C42.96 196.553 43.24 195.713 43.8 195.08C44.36 194.447 45.11 194.13 46.05 194.13C47.01 194.13 47.7667 194.447 48.32 195.08C48.8733 195.707 49.15 196.547 49.15 197.6C49.15 198.653 48.87 199.497 48.31 200.13C47.7567 200.763 47.0067 201.08 46.06 201.08C45.12 201.08 44.3667 200.763 43.8 200.13C43.24 199.497 42.96 198.653 42.96 197.6ZM44.57 195.77C44.2167 196.217 44.04 196.827 44.04 197.6C44.04 198.373 44.2233 198.987 44.59 199.44C44.9567 199.893 45.4467 200.12 46.06 200.12C46.6933 200.12 47.1867 199.897 47.54 199.45C47.8933 199.003 48.07 198.387 48.07 197.6C48.07 196.82 47.89 196.207 47.53 195.76C47.1767 195.313 46.6833 195.09 46.05 195.09C45.4233 195.09 44.93 195.317 44.57 195.77ZM52.6394 200.21C53.0327 200.21 53.356 200.057 53.6094 199.75C53.8627 199.437 53.9894 199 53.9894 198.44C53.9894 197.913 53.866 197.497 53.6194 197.19C53.3727 196.877 53.0594 196.72 52.6794 196.72C52.2994 196.72 51.9694 196.86 51.6894 197.14C51.416 197.413 51.2794 197.85 51.2794 198.45C51.2794 199.037 51.416 199.477 51.6894 199.77C51.9694 200.063 52.286 200.21 52.6394 200.21ZM51.2794 195.93V196.71C51.626 196.143 52.146 195.86 52.8394 195.86C53.506 195.86 54.0327 196.103 54.4194 196.59C54.806 197.07 54.9994 197.683 54.9994 198.43C54.9994 199.197 54.7994 199.83 54.3994 200.33C54.006 200.823 53.4794 201.07 52.8194 201.07C52.146 201.07 51.6327 200.79 51.2794 200.23V202.94H50.2994V195.93H51.2794ZM59.2502 198.1V197.92C59.2368 197.54 59.1335 197.24 58.9402 197.02C58.7468 196.793 58.4702 196.68 58.1102 196.68C57.7768 196.68 57.4902 196.803 57.2502 197.05C57.0102 197.29 56.8602 197.64 56.8002 198.1H59.2502ZM59.8802 199.85V200.73C59.5068 200.943 59.0135 201.05 58.4002 201.05C57.6135 201.05 56.9868 200.813 56.5202 200.34C56.0535 199.867 55.8202 199.247 55.8202 198.48C55.8202 197.667 56.0335 197.03 56.4602 196.57C56.8868 196.103 57.4302 195.87 58.0902 195.87C58.7368 195.87 59.2502 196.073 59.6302 196.48C60.0102 196.88 60.2002 197.46 60.2002 198.22C60.2002 198.427 60.1802 198.643 60.1402 198.87H56.8102C56.8768 199.31 57.0635 199.647 57.3702 199.88C57.6768 200.113 58.0635 200.23 58.5302 200.23C59.0702 200.23 59.5202 200.103 59.8802 199.85ZM62.3341 195.93V196.82C62.5807 196.193 63.0241 195.88 63.6641 195.88C63.7574 195.88 63.8607 195.89 63.9741 195.91V196.87C63.8341 196.81 63.6774 196.78 63.5041 196.78C63.1641 196.78 62.8841 196.93 62.6641 197.23C62.4441 197.53 62.3341 197.887 62.3341 198.3V201H61.3541V195.93H62.3341ZM67.4127 198.74H66.6527C66.2794 198.74 65.9961 198.813 65.8027 198.96C65.6161 199.107 65.5227 199.293 65.5227 199.52C65.5227 199.753 65.5961 199.937 65.7427 200.07C65.8894 200.203 66.1027 200.27 66.3827 200.27C66.7027 200.27 66.9527 200.183 67.1327 200.01C67.3194 199.83 67.4127 199.597 67.4127 199.31V198.74ZM64.8627 197.14V196.19C65.2561 195.963 65.7761 195.85 66.4227 195.85C67.7494 195.85 68.4127 196.493 68.4127 197.78V201H67.4427V200.4C67.1827 200.827 66.7261 201.04 66.0727 201.04C65.5927 201.04 65.2061 200.903 64.9127 200.63C64.6261 200.35 64.4827 199.997 64.4827 199.57C64.4827 199.083 64.6661 198.707 65.0327 198.44C65.3994 198.167 65.9127 198.03 66.5727 198.03H67.4127V197.74C67.4127 197.393 67.3294 197.133 67.1627 196.96C66.9961 196.78 66.7194 196.69 66.3327 196.69C65.7927 196.69 65.3027 196.84 64.8627 197.14ZM72.623 196.1V196.99C72.2963 196.797 71.8763 196.7 71.363 196.7C71.1296 196.7 70.943 196.753 70.803 196.86C70.6696 196.967 70.603 197.107 70.603 197.28C70.603 197.327 70.6063 197.373 70.613 197.42C70.6263 197.46 70.6463 197.503 70.673 197.55C70.6996 197.59 70.723 197.627 70.743 197.66C70.7696 197.687 70.8096 197.717 70.863 197.75C70.9163 197.783 70.9563 197.813 70.983 197.84C71.0163 197.86 71.0663 197.887 71.133 197.92C71.2063 197.953 71.2596 197.98 71.293 198C71.3263 198.013 71.383 198.04 71.463 198.08C71.5496 198.113 71.6096 198.137 71.643 198.15C72.0363 198.323 72.343 198.52 72.563 198.74C72.7896 198.953 72.903 199.24 72.903 199.6C72.903 200.053 72.743 200.41 72.423 200.67C72.103 200.923 71.6696 201.05 71.123 201.05C70.523 201.05 70.023 200.95 69.623 200.75V199.82C70.0896 200.107 70.573 200.25 71.073 200.25C71.333 200.25 71.533 200.197 71.673 200.09C71.8196 199.983 71.893 199.843 71.893 199.67C71.893 199.523 71.8363 199.393 71.723 199.28C71.6096 199.16 71.493 199.073 71.373 199.02C71.2596 198.96 71.063 198.87 70.783 198.75C69.9896 198.423 69.593 197.943 69.593 197.31C69.593 196.863 69.7596 196.513 70.093 196.26C70.4263 196.007 70.843 195.88 71.343 195.88C71.8896 195.88 72.3163 195.953 72.623 196.1ZM73.9624 201V195.93H74.9524V201H73.9624ZM74.0124 194.82C73.8991 194.7 73.8424 194.553 73.8424 194.38C73.8424 194.207 73.8991 194.06 74.0124 193.94C74.1324 193.82 74.2791 193.76 74.4524 193.76C74.6258 193.76 74.7724 193.82 74.8924 193.94C75.0124 194.06 75.0724 194.207 75.0724 194.38C75.0724 194.547 75.0124 194.69 74.8924 194.81C74.7724 194.93 74.6258 194.99 74.4524 194.99C74.2791 194.99 74.1324 194.933 74.0124 194.82ZM82.5145 194.53V195.55C82.0679 195.27 81.5612 195.13 80.9945 195.13C80.6279 195.13 80.3379 195.213 80.1245 195.38C79.9179 195.54 79.8145 195.753 79.8145 196.02C79.8145 196.287 79.9179 196.5 80.1245 196.66C80.3312 196.82 80.6479 196.993 81.0745 197.18C81.3545 197.3 81.5712 197.403 81.7245 197.49C81.8845 197.577 82.0645 197.7 82.2645 197.86C82.4712 198.013 82.6212 198.2 82.7145 198.42C82.8145 198.633 82.8645 198.88 82.8645 199.16C82.8645 199.753 82.6545 200.22 82.2345 200.56C81.8145 200.9 81.2712 201.07 80.6045 201.07C79.8645 201.07 79.2512 200.927 78.7645 200.64V199.57C79.2912 199.963 79.9012 200.16 80.5945 200.16C80.9612 200.16 81.2512 200.077 81.4645 199.91C81.6779 199.737 81.7845 199.5 81.7845 199.2C81.7845 199.02 81.7212 198.857 81.5945 198.71C81.4679 198.557 81.3312 198.443 81.1845 198.37C81.0379 198.29 80.8179 198.183 80.5245 198.05C80.3512 197.97 80.2279 197.913 80.1545 197.88C80.0879 197.847 79.9745 197.787 79.8145 197.7C79.6545 197.613 79.5345 197.54 79.4545 197.48C79.3812 197.42 79.2879 197.337 79.1745 197.23C79.0612 197.123 78.9779 197.017 78.9245 196.91C78.8779 196.803 78.8312 196.68 78.7845 196.54C78.7445 196.393 78.7245 196.237 78.7245 196.07C78.7245 195.497 78.9312 195.043 79.3445 194.71C79.7645 194.377 80.3045 194.21 80.9645 194.21C81.5712 194.21 82.0879 194.317 82.5145 194.53ZM87.1994 198.1V197.92C87.186 197.54 87.0827 197.24 86.8894 197.02C86.696 196.793 86.4194 196.68 86.0594 196.68C85.726 196.68 85.4394 196.803 85.1994 197.05C84.9594 197.29 84.8094 197.64 84.7494 198.1H87.1994ZM87.8294 199.85V200.73C87.456 200.943 86.9627 201.05 86.3494 201.05C85.5627 201.05 84.936 200.813 84.4694 200.34C84.0027 199.867 83.7694 199.247 83.7694 198.48C83.7694 197.667 83.9827 197.03 84.4094 196.57C84.836 196.103 85.3794 195.87 86.0394 195.87C86.686 195.87 87.1994 196.073 87.5794 196.48C87.9594 196.88 88.1494 197.46 88.1494 198.22C88.1494 198.427 88.1294 198.643 88.0894 198.87H84.7594C84.826 199.31 85.0127 199.647 85.3194 199.88C85.626 200.113 86.0127 200.23 86.4794 200.23C87.0194 200.23 87.4694 200.103 87.8294 199.85ZM92.1933 196.1V196.99C91.8666 196.797 91.4466 196.7 90.9333 196.7C90.6999 196.7 90.5133 196.753 90.3733 196.86C90.2399 196.967 90.1733 197.107 90.1733 197.28C90.1733 197.327 90.1766 197.373 90.1833 197.42C90.1966 197.46 90.2166 197.503 90.2433 197.55C90.2699 197.59 90.2933 197.627 90.3133 197.66C90.3399 197.687 90.3799 197.717 90.4333 197.75C90.4866 197.783 90.5266 197.813 90.5533 197.84C90.5866 197.86 90.6366 197.887 90.7033 197.92C90.7766 197.953 90.8299 197.98 90.8633 198C90.8966 198.013 90.9533 198.04 91.0333 198.08C91.1199 198.113 91.1799 198.137 91.2133 198.15C91.6066 198.323 91.9133 198.52 92.1333 198.74C92.3599 198.953 92.4733 199.24 92.4733 199.6C92.4733 200.053 92.3133 200.41 91.9933 200.67C91.6733 200.923 91.2399 201.05 90.6933 201.05C90.0933 201.05 89.5933 200.95 89.1933 200.75V199.82C89.6599 200.107 90.1433 200.25 90.6433 200.25C90.9033 200.25 91.1033 200.197 91.2433 200.09C91.3899 199.983 91.4633 199.843 91.4633 199.67C91.4633 199.523 91.4066 199.393 91.2933 199.28C91.1799 199.16 91.0633 199.073 90.9433 199.02C90.8299 198.96 90.6333 198.87 90.3533 198.75C89.5599 198.423 89.1633 197.943 89.1633 197.31C89.1633 196.863 89.3299 196.513 89.6633 196.26C89.9966 196.007 90.4133 195.88 90.9133 195.88C91.4599 195.88 91.8866 195.953 92.1933 196.1ZM96.1627 198.74H95.4027C95.0294 198.74 94.7461 198.813 94.5527 198.96C94.3661 199.107 94.2727 199.293 94.2727 199.52C94.2727 199.753 94.3461 199.937 94.4927 200.07C94.6394 200.203 94.8527 200.27 95.1327 200.27C95.4527 200.27 95.7027 200.183 95.8827 200.01C96.0694 199.83 96.1627 199.597 96.1627 199.31V198.74ZM93.6127 197.14V196.19C94.0061 195.963 94.5261 195.85 95.1727 195.85C96.4994 195.85 97.1627 196.493 97.1627 197.78V201H96.1927V200.4C95.9327 200.827 95.4761 201.04 94.8227 201.04C94.3427 201.04 93.9561 200.903 93.6627 200.63C93.3761 200.35 93.2327 199.997 93.2327 199.57C93.2327 199.083 93.4161 198.707 93.7827 198.44C94.1494 198.167 94.6627 198.03 95.3227 198.03H96.1627V197.74C96.1627 197.393 96.0794 197.133 95.9127 196.96C95.7461 196.78 95.4694 196.69 95.0827 196.69C94.5427 196.69 94.0527 196.84 93.6127 197.14ZM99.463 195.93V196.82C99.7096 196.193 100.153 195.88 100.793 195.88C100.886 195.88 100.99 195.89 101.103 195.91V196.87C100.963 196.81 100.806 196.78 100.633 196.78C100.293 196.78 100.013 196.93 99.793 197.23C99.573 197.53 99.463 197.887 99.463 198.3V201H98.483V195.93H99.463Z" fill="#2B2B2B"/>
<path d="M44.26 179.12V181.58H45.19C45.6167 181.58 45.94 181.47 46.16 181.25C46.38 181.023 46.49 180.723 46.49 180.35C46.49 179.53 46.04 179.12 45.14 179.12H44.26ZM46.73 185L45.15 182.44H44.26V185H43.23V178.26H45.11C45.8833 178.26 46.48 178.45 46.9 178.83C47.32 179.203 47.53 179.713 47.53 180.36C47.5233 180.833 47.4033 181.237 47.17 181.57C46.9367 181.897 46.6133 182.133 46.2 182.28L47.96 185H46.73ZM51.2136 184.21C51.6069 184.21 51.9303 184.057 52.1836 183.75C52.4369 183.437 52.5636 183 52.5636 182.44C52.5636 181.913 52.4403 181.497 52.1936 181.19C51.9469 180.877 51.6336 180.72 51.2536 180.72C50.8736 180.72 50.5436 180.86 50.2636 181.14C49.9903 181.413 49.8536 181.85 49.8536 182.45C49.8536 183.037 49.9903 183.477 50.2636 183.77C50.5436 184.063 50.8603 184.21 51.2136 184.21ZM49.8536 179.93V180.71C50.2003 180.143 50.7203 179.86 51.4136 179.86C52.0803 179.86 52.6069 180.103 52.9936 180.59C53.3803 181.07 53.5736 181.683 53.5736 182.43C53.5736 183.197 53.3736 183.83 52.9736 184.33C52.5803 184.823 52.0536 185.07 51.3936 185.07C50.7203 185.07 50.2069 184.79 49.8536 184.23V186.94H48.8736V179.93H49.8536ZM56.8553 181.71C56.8553 180.683 57.0586 179.87 57.4653 179.27C57.8786 178.663 58.442 178.36 59.1553 178.36C59.882 178.36 60.452 178.66 60.8653 179.26C61.2786 179.86 61.4853 180.677 61.4853 181.71C61.4853 182.73 61.282 183.547 60.8753 184.16C60.4753 184.773 59.902 185.08 59.1553 185.08C58.442 185.08 57.8786 184.773 57.4653 184.16C57.0586 183.547 56.8553 182.73 56.8553 181.71ZM58.2253 179.91C57.9786 180.33 57.8553 180.93 57.8553 181.71C57.8553 182.49 57.9753 183.097 58.2153 183.53C58.462 183.957 58.7753 184.17 59.1553 184.17C59.5686 184.17 59.892 183.957 60.1253 183.53C60.3586 183.103 60.4753 182.497 60.4753 181.71C60.4753 180.917 60.352 180.313 60.1053 179.9C59.8653 179.48 59.5486 179.27 59.1553 179.27C58.782 179.27 58.472 179.483 58.2253 179.91ZM61.8145 186.24L62.7745 183.9H63.9845L62.6745 186.24H61.8145ZM64.7557 181.71C64.7557 180.683 64.959 179.87 65.3657 179.27C65.779 178.663 66.3424 178.36 67.0557 178.36C67.7824 178.36 68.3524 178.66 68.7657 179.26C69.179 179.86 69.3857 180.677 69.3857 181.71C69.3857 182.73 69.1824 183.547 68.7757 184.16C68.3757 184.773 67.8024 185.08 67.0557 185.08C66.3424 185.08 65.779 184.773 65.3657 184.16C64.959 183.547 64.7557 182.73 64.7557 181.71ZM66.1257 179.91C65.879 180.33 65.7557 180.93 65.7557 181.71C65.7557 182.49 65.8757 183.097 66.1157 183.53C66.3624 183.957 66.6757 184.17 67.0557 184.17C67.469 184.17 67.7924 183.957 68.0257 183.53C68.259 183.103 68.3757 182.497 68.3757 181.71C68.3757 180.917 68.2524 180.313 68.0057 179.9C67.7657 179.48 67.449 179.27 67.0557 179.27C66.6824 179.27 66.3724 179.483 66.1257 179.91ZM70.2049 181.71C70.2049 180.683 70.4083 179.87 70.8149 179.27C71.2283 178.663 71.7916 178.36 72.5049 178.36C73.2316 178.36 73.8016 178.66 74.2149 179.26C74.6283 179.86 74.8349 180.677 74.8349 181.71C74.8349 182.73 74.6316 183.547 74.2249 184.16C73.8249 184.773 73.2516 185.08 72.5049 185.08C71.7916 185.08 71.2283 184.773 70.8149 184.16C70.4083 183.547 70.2049 182.73 70.2049 181.71ZM71.5749 179.91C71.3283 180.33 71.2049 180.93 71.2049 181.71C71.2049 182.49 71.3249 183.097 71.5649 183.53C71.8116 183.957 72.1249 184.17 72.5049 184.17C72.9183 184.17 73.2416 183.957 73.4749 183.53C73.7083 183.103 73.8249 182.497 73.8249 181.71C73.8249 180.917 73.7016 180.313 73.4549 179.9C73.2149 179.48 72.8983 179.27 72.5049 179.27C72.1316 179.27 71.8216 179.483 71.5749 179.91ZM75.6541 181.71C75.6541 180.683 75.8575 179.87 76.2641 179.27C76.6775 178.663 77.2408 178.36 77.9541 178.36C78.6808 178.36 79.2508 178.66 79.6641 179.26C80.0775 179.86 80.2841 180.677 80.2841 181.71C80.2841 182.73 80.0808 183.547 79.6741 184.16C79.2741 184.773 78.7008 185.08 77.9541 185.08C77.2408 185.08 76.6775 184.773 76.2641 184.16C75.8575 183.547 75.6541 182.73 75.6541 181.71ZM77.0241 179.91C76.7775 180.33 76.6541 180.93 76.6541 181.71C76.6541 182.49 76.7741 183.097 77.0141 183.53C77.2608 183.957 77.5741 184.17 77.9541 184.17C78.3675 184.17 78.6908 183.957 78.9241 183.53C79.1575 183.103 79.2741 182.497 79.2741 181.71C79.2741 180.917 79.1508 180.313 78.9041 179.9C78.6641 179.48 78.3475 179.27 77.9541 179.27C77.5808 179.27 77.2708 179.483 77.0241 179.91ZM80.6134 186.24L81.5734 183.9H82.7834L81.4734 186.24H80.6134ZM83.5545 181.71C83.5545 180.683 83.7579 179.87 84.1645 179.27C84.5779 178.663 85.1412 178.36 85.8545 178.36C86.5812 178.36 87.1512 178.66 87.5645 179.26C87.9779 179.86 88.1845 180.677 88.1845 181.71C88.1845 182.73 87.9812 183.547 87.5745 184.16C87.1745 184.773 86.6012 185.08 85.8545 185.08C85.1412 185.08 84.5779 184.773 84.1645 184.16C83.7579 183.547 83.5545 182.73 83.5545 181.71ZM84.9245 179.91C84.6779 180.33 84.5545 180.93 84.5545 181.71C84.5545 182.49 84.6745 183.097 84.9145 183.53C85.1612 183.957 85.4745 184.17 85.8545 184.17C86.2679 184.17 86.5912 183.957 86.8245 183.53C87.0579 183.103 87.1745 182.497 87.1745 181.71C87.1745 180.917 87.0512 180.313 86.8045 179.9C86.5645 179.48 86.2479 179.27 85.8545 179.27C85.4812 179.27 85.1712 179.483 84.9245 179.91ZM89.0038 181.71C89.0038 180.683 89.2071 179.87 89.6138 179.27C90.0271 178.663 90.5904 178.36 91.3038 178.36C92.0304 178.36 92.6004 178.66 93.0138 179.26C93.4271 179.86 93.6338 180.677 93.6338 181.71C93.6338 182.73 93.4304 183.547 93.0238 184.16C92.6238 184.773 92.0504 185.08 91.3038 185.08C90.5904 185.08 90.0271 184.773 89.6138 184.16C89.2071 183.547 89.0038 182.73 89.0038 181.71ZM90.3738 179.91C90.1271 180.33 90.0038 180.93 90.0038 181.71C90.0038 182.49 90.1238 183.097 90.3638 183.53C90.6104 183.957 90.9238 184.17 91.3038 184.17C91.7171 184.17 92.0404 183.957 92.2738 183.53C92.5071 183.103 92.6238 182.497 92.6238 181.71C92.6238 180.917 92.5004 180.313 92.2538 179.9C92.0138 179.48 91.6971 179.27 91.3038 179.27C90.9304 179.27 90.6204 179.483 90.3738 179.91ZM94.453 181.71C94.453 180.683 94.6563 179.87 95.063 179.27C95.4763 178.663 96.0396 178.36 96.753 178.36C97.4796 178.36 98.0496 178.66 98.463 179.26C98.8763 179.86 99.083 180.677 99.083 181.71C99.083 182.73 98.8796 183.547 98.473 184.16C98.073 184.773 97.4996 185.08 96.753 185.08C96.0396 185.08 95.4763 184.773 95.063 184.16C94.6563 183.547 94.453 182.73 94.453 181.71ZM95.823 179.91C95.5763 180.33 95.453 180.93 95.453 181.71C95.453 182.49 95.573 183.097 95.813 183.53C96.0596 183.957 96.373 184.17 96.753 184.17C97.1663 184.17 97.4896 183.957 97.723 183.53C97.9563 183.103 98.073 182.497 98.073 181.71C98.073 180.917 97.9496 180.313 97.703 179.9C97.463 179.48 97.1463 179.27 96.753 179.27C96.3796 179.27 96.0696 179.483 95.823 179.91ZM44.26 211.12V213.58H45.19C45.6167 213.58 45.94 213.47 46.16 213.25C46.38 213.023 46.49 212.723 46.49 212.35C46.49 211.53 46.04 211.12 45.14 211.12H44.26ZM46.73 217L45.15 214.44H44.26V217H43.23V210.26H45.11C45.8833 210.26 46.48 210.45 46.9 210.83C47.32 211.203 47.53 211.713 47.53 212.36C47.5233 212.833 47.4033 213.237 47.17 213.57C46.9367 213.897 46.6133 214.133 46.2 214.28L47.96 217H46.73ZM51.2136 216.21C51.6069 216.21 51.9303 216.057 52.1836 215.75C52.4369 215.437 52.5636 215 52.5636 214.44C52.5636 213.913 52.4403 213.497 52.1936 213.19C51.9469 212.877 51.6336 212.72 51.2536 212.72C50.8736 212.72 50.5436 212.86 50.2636 213.14C49.9903 213.413 49.8536 213.85 49.8536 214.45C49.8536 215.037 49.9903 215.477 50.2636 215.77C50.5436 216.063 50.8603 216.21 51.2136 216.21ZM49.8536 211.93V212.71C50.2003 212.143 50.7203 211.86 51.4136 211.86C52.0803 211.86 52.6069 212.103 52.9936 212.59C53.3803 213.07 53.5736 213.683 53.5736 214.43C53.5736 215.197 53.3736 215.83 52.9736 216.33C52.5803 216.823 52.0536 217.07 51.3936 217.07C50.7203 217.07 50.2069 216.79 49.8536 216.23V218.94H48.8736V211.93H49.8536ZM56.8553 213.71C56.8553 212.683 57.0586 211.87 57.4653 211.27C57.8786 210.663 58.442 210.36 59.1553 210.36C59.882 210.36 60.452 210.66 60.8653 211.26C61.2786 211.86 61.4853 212.677 61.4853 213.71C61.4853 214.73 61.282 215.547 60.8753 216.16C60.4753 216.773 59.902 217.08 59.1553 217.08C58.442 217.08 57.8786 216.773 57.4653 216.16C57.0586 215.547 56.8553 214.73 56.8553 213.71ZM58.2253 211.91C57.9786 212.33 57.8553 212.93 57.8553 213.71C57.8553 214.49 57.9753 215.097 58.2153 215.53C58.462 215.957 58.7753 216.17 59.1553 216.17C59.5686 216.17 59.892 215.957 60.1253 215.53C60.3586 215.103 60.4753 214.497 60.4753 213.71C60.4753 212.917 60.352 212.313 60.1053 211.9C59.8653 211.48 59.5486 211.27 59.1553 211.27C58.782 211.27 58.472 211.483 58.2253 211.91ZM61.8145 218.24L62.7745 215.9H63.9845L62.6745 218.24H61.8145ZM64.7557 213.71C64.7557 212.683 64.959 211.87 65.3657 211.27C65.779 210.663 66.3424 210.36 67.0557 210.36C67.7824 210.36 68.3524 210.66 68.7657 211.26C69.179 211.86 69.3857 212.677 69.3857 213.71C69.3857 214.73 69.1824 215.547 68.7757 216.16C68.3757 216.773 67.8024 217.08 67.0557 217.08C66.3424 217.08 65.779 216.773 65.3657 216.16C64.959 215.547 64.7557 214.73 64.7557 213.71ZM66.1257 211.91C65.879 212.33 65.7557 212.93 65.7557 213.71C65.7557 214.49 65.8757 215.097 66.1157 215.53C66.3624 215.957 66.6757 216.17 67.0557 216.17C67.469 216.17 67.7924 215.957 68.0257 215.53C68.259 215.103 68.3757 214.497 68.3757 213.71C68.3757 212.917 68.2524 212.313 68.0057 211.9C67.7657 211.48 67.449 211.27 67.0557 211.27C66.6824 211.27 66.3724 211.483 66.1257 211.91ZM70.2049 213.71C70.2049 212.683 70.4083 211.87 70.8149 211.27C71.2283 210.663 71.7916 210.36 72.5049 210.36C73.2316 210.36 73.8016 210.66 74.2149 211.26C74.6283 211.86 74.8349 212.677 74.8349 213.71C74.8349 214.73 74.6316 215.547 74.2249 216.16C73.8249 216.773 73.2516 217.08 72.5049 217.08C71.7916 217.08 71.2283 216.773 70.8149 216.16C70.4083 215.547 70.2049 214.73 70.2049 213.71ZM71.5749 211.91C71.3283 212.33 71.2049 212.93 71.2049 213.71C71.2049 214.49 71.3249 215.097 71.5649 215.53C71.8116 215.957 72.1249 216.17 72.5049 216.17C72.9183 216.17 73.2416 215.957 73.4749 215.53C73.7083 215.103 73.8249 214.497 73.8249 213.71C73.8249 212.917 73.7016 212.313 73.4549 211.9C73.2149 211.48 72.8983 211.27 72.5049 211.27C72.1316 211.27 71.8216 211.483 71.5749 211.91ZM75.6541 213.71C75.6541 212.683 75.8575 211.87 76.2641 211.27C76.6775 210.663 77.2408 210.36 77.9541 210.36C78.6808 210.36 79.2508 210.66 79.6641 211.26C80.0775 211.86 80.2841 212.677 80.2841 213.71C80.2841 214.73 80.0808 215.547 79.6741 216.16C79.2741 216.773 78.7008 217.08 77.9541 217.08C77.2408 217.08 76.6775 216.773 76.2641 216.16C75.8575 215.547 75.6541 214.73 75.6541 213.71ZM77.0241 211.91C76.7775 212.33 76.6541 212.93 76.6541 213.71C76.6541 214.49 76.7741 215.097 77.0141 215.53C77.2608 215.957 77.5741 216.17 77.9541 216.17C78.3675 216.17 78.6908 215.957 78.9241 215.53C79.1575 215.103 79.2741 214.497 79.2741 213.71C79.2741 212.917 79.1508 212.313 78.9041 211.9C78.6641 211.48 78.3475 211.27 77.9541 211.27C77.5808 211.27 77.2708 211.483 77.0241 211.91ZM80.6134 218.24L81.5734 215.9H82.7834L81.4734 218.24H80.6134ZM83.5545 213.71C83.5545 212.683 83.7579 211.87 84.1645 211.27C84.5779 210.663 85.1412 210.36 85.8545 210.36C86.5812 210.36 87.1512 210.66 87.5645 211.26C87.9779 211.86 88.1845 212.677 88.1845 213.71C88.1845 214.73 87.9812 215.547 87.5745 216.16C87.1745 216.773 86.6012 217.08 85.8545 217.08C85.1412 217.08 84.5779 216.773 84.1645 216.16C83.7579 215.547 83.5545 214.73 83.5545 213.71ZM84.9245 211.91C84.6779 212.33 84.5545 212.93 84.5545 213.71C84.5545 214.49 84.6745 215.097 84.9145 215.53C85.1612 215.957 85.4745 216.17 85.8545 216.17C86.2679 216.17 86.5912 215.957 86.8245 215.53C87.0579 215.103 87.1745 214.497 87.1745 213.71C87.1745 212.917 87.0512 212.313 86.8045 211.9C86.5645 211.48 86.2479 211.27 85.8545 211.27C85.4812 211.27 85.1712 211.483 84.9245 211.91ZM89.0038 213.71C89.0038 212.683 89.2071 211.87 89.6138 211.27C90.0271 210.663 90.5904 210.36 91.3038 210.36C92.0304 210.36 92.6004 210.66 93.0138 211.26C93.4271 211.86 93.6338 212.677 93.6338 213.71C93.6338 214.73 93.4304 215.547 93.0238 216.16C92.6238 216.773 92.0504 217.08 91.3038 217.08C90.5904 217.08 90.0271 216.773 89.6138 216.16C89.2071 215.547 89.0038 214.73 89.0038 213.71ZM90.3738 211.91C90.1271 212.33 90.0038 212.93 90.0038 213.71C90.0038 214.49 90.1238 215.097 90.3638 215.53C90.6104 215.957 90.9238 216.17 91.3038 216.17C91.7171 216.17 92.0404 215.957 92.2738 215.53C92.5071 215.103 92.6238 214.497 92.6238 213.71C92.6238 212.917 92.5004 212.313 92.2538 211.9C92.0138 211.48 91.6971 211.27 91.3038 211.27C90.9304 211.27 90.6204 211.483 90.3738 211.91ZM94.453 213.71C94.453 212.683 94.6563 211.87 95.063 211.27C95.4763 210.663 96.0396 210.36 96.753 210.36C97.4796 210.36 98.0496 210.66 98.463 211.26C98.8763 211.86 99.083 212.677 99.083 213.71C99.083 214.73 98.8796 215.547 98.473 216.16C98.073 216.773 97.4996 217.08 96.753 217.08C96.0396 217.08 95.4763 216.773 95.063 216.16C94.6563 215.547 94.453 214.73 94.453 213.71ZM95.823 211.91C95.5763 212.33 95.453 212.93 95.453 213.71C95.453 214.49 95.573 215.097 95.813 215.53C96.0596 215.957 96.373 216.17 96.753 216.17C97.1663 216.17 97.4896 215.957 97.723 215.53C97.9563 215.103 98.073 214.497 98.073 213.71C98.073 212.917 97.9496 212.313 97.703 211.9C97.463 211.48 97.1463 211.27 96.753 211.27C96.3796 211.27 96.0696 211.483 95.823 211.91Z" fill="#FF1934"/>
<rect x="43" y="238" width="120" height="24" rx="8" fill="#FF1934"/>
<path d="M88.0692 246.608L89.0852 246.608L89.0852 252L88.0692 252L88.0692 249.736L85.8532 249.736L85.8532 252L84.8452 252L84.8452 246.608L85.8532 246.608L85.8532 248.864L88.0692 248.864L88.0692 246.608ZM91.2205 251.176L93.4205 251.176L93.4205 252L90.2045 252L90.2045 246.608L93.3885 246.608L93.3885 247.432L91.2205 247.432L91.2205 248.896L93.1485 248.896L93.1485 249.712L91.2205 249.712L91.2205 251.176ZM94.4311 252L94.4311 246.608L95.5751 246.608L96.8711 248.856C97.0844 249.224 97.2738 249.568 97.4391 249.888C97.6098 250.203 97.7244 250.427 97.7831 250.56L97.8711 250.76C97.8284 250.317 97.8071 249.683 97.8071 248.856L97.8071 246.608L98.8231 246.608L98.8231 252L97.6711 252L96.3591 249.76C96.1511 249.408 95.9618 249.072 95.7911 248.752C95.6258 248.427 95.5111 248.192 95.4471 248.048L95.3511 247.824C95.4098 248.331 95.4391 248.973 95.4391 249.752L95.4391 252L94.4311 252ZM103.339 246.608L103.339 247.44L101.971 247.44L101.971 252L100.955 252L100.955 247.44L99.5869 247.44L99.5869 246.608L103.339 246.608ZM104.159 252L104.159 246.608L105.167 246.608L105.167 252L104.159 252ZM106.353 252L106.353 246.608L107.361 246.608L107.361 252L106.353 252ZM108.641 249.312L110.649 252L109.377 252L107.441 249.328L109.305 246.608L110.513 246.608L108.641 249.312ZM112.744 249.952L114.264 249.952L114.192 249.712C114.011 249.136 113.862 248.653 113.744 248.264C113.632 247.869 113.563 247.621 113.536 247.52L113.504 247.36C113.456 247.627 113.227 248.413 112.816 249.72L112.744 249.952ZM114.904 252L114.52 250.776L112.48 250.776L112.096 252L111.04 252L112.864 246.608L114.168 246.608L115.992 252L114.904 252ZM116.767 252L116.767 246.608L117.911 246.608L119.207 248.856C119.42 249.224 119.61 249.568 119.775 249.888C119.946 250.203 120.06 250.427 120.119 250.56L120.207 250.76C120.164 250.317 120.143 249.683 120.143 248.856L120.143 246.608L121.159 246.608L121.159 252L120.007 252L118.695 249.76C118.487 249.408 118.298 249.072 118.127 248.752C117.962 248.427 117.847 248.192 117.783 248.048L117.687 247.824C117.746 248.331 117.775 248.973 117.775 249.752L117.775 252L116.767 252Z" fill="white"/>
<g clip-path="url(#clip1_1124_4113)">
<path d="M295.367 262.133C337.341 262.133 371.367 228.047 371.367 186C371.367 143.953 337.341 109.867 295.367 109.867C253.394 109.867 219.367 143.953 219.367 186C219.367 228.047 253.394 262.133 295.367 262.133Z" fill="white"/>
<path d="M237.162 228.389C245.802 240.308 258.149 249.702 273.212 254.596C288.275 259.49 303.785 259.147 317.781 254.584L295.5 186L237.162 228.389Z" fill="#D9AA16"/>
<path d="M317.788 254.582C331.793 250.047 344.543 241.208 353.852 228.395C363.161 215.582 367.628 200.724 367.613 186.003L295.501 186L317.788 254.582Z" fill="#1699D9"/>
<path d="M367.612 185.997C367.627 171.276 363.16 156.419 353.851 143.606C344.541 130.793 331.792 121.953 317.786 117.418L295.499 186L367.612 185.997Z" fill="#1699D9"/>
<path d="M318.115 117.75C304.119 113.186 288.608 112.843 273.546 117.738C258.483 122.632 246.136 132.026 237.495 143.945L295.834 186.334L318.115 117.75Z" fill="#D9AA16"/>
<path d="M237.158 143.616C228.493 155.517 223.374 170.162 223.374 186C223.374 201.838 228.493 216.483 237.158 228.384L295.5 186L237.158 143.616Z" fill="#1699D9"/>
<path d="M318.261 254.44L296.182 186.501L367.617 186.501C367.617 186.331 367.627 186.17 367.627 186C367.627 185.83 367.617 185.67 367.617 185.499L296.192 185.499L318.261 117.56C317.94 117.45 317.629 117.34 317.309 117.24L295.23 185.189L237.439 143.205C237.239 143.476 237.048 143.746 236.858 144.017L294.639 186L236.858 227.984C237.048 228.254 237.239 228.535 237.439 228.795L295.23 186.812L317.309 254.76C317.629 254.66 317.94 254.54 318.261 254.44Z" fill="white"/>
<g opacity="0.32" style="mix-blend-mode:multiply">
<path d="M367.627 185.874C367.627 146.114 335.387 113.874 295.627 113.874C255.867 113.874 223.627 146.114 223.627 185.874C223.627 225.634 255.867 257.874 295.627 257.874C335.387 257.874 367.627 225.634 367.627 185.874ZM227.627 185.874C227.627 148.314 258.067 117.874 295.627 117.874C333.187 117.874 363.627 148.314 363.627 185.874C363.627 223.434 333.187 253.874 295.627 253.874C258.067 253.874 227.627 223.434 227.627 185.874Z" fill="#2B2B2B"/>
</g>
<path d="M287.515 185.986C287.515 190.404 291.096 193.986 295.515 193.986C299.933 193.986 303.515 190.404 303.515 185.986C303.515 181.568 299.933 177.986 295.515 177.986C291.096 177.986 287.515 181.568 287.515 185.986Z" fill="white"/>
<path d="M276.203 234.148L277.363 234.525C276.923 234.907 276.616 235.368 276.441 235.907C276.344 236.205 276.334 236.461 276.412 236.676C276.491 236.884 276.636 237.022 276.845 237.09C277.054 237.158 277.258 237.126 277.455 236.994C277.648 236.853 277.885 236.629 278.167 236.321C278.364 236.105 278.532 235.931 278.673 235.802C278.807 235.67 278.98 235.537 279.191 235.403C279.405 235.262 279.635 235.182 279.879 235.163C280.119 235.136 280.376 235.167 280.648 235.255C281.219 235.441 281.608 235.795 281.817 236.319C282.021 236.834 282.015 237.424 281.799 238.09C281.564 238.813 281.233 239.367 280.806 239.754L279.579 239.356C280.149 238.938 280.539 238.406 280.749 237.759C280.844 237.468 280.851 237.21 280.769 236.988C280.681 236.763 280.516 236.611 280.275 236.533C280.161 236.496 280.052 236.485 279.949 236.5C279.846 236.516 279.727 236.579 279.593 236.69C279.461 236.794 279.364 236.878 279.301 236.942C279.24 236.999 279.122 237.125 278.947 237.321C278.894 237.374 278.857 237.414 278.834 237.442C278.65 237.641 278.493 237.801 278.363 237.92C278.227 238.037 278.058 238.157 277.857 238.281C277.655 238.405 277.439 238.478 277.207 238.501C276.977 238.517 276.732 238.483 276.472 238.399C275.927 238.222 275.555 237.88 275.355 237.373C275.157 236.86 275.166 236.271 275.382 235.605C275.578 235.003 275.852 234.517 276.203 234.148ZM282.2 233.262L283.05 230.646L284.03 230.965L282.787 234.788L276.377 232.705L277.607 228.92L278.587 229.238L277.749 231.816L279.49 232.381L280.234 230.089L281.205 230.404L280.46 232.696L282.2 233.262ZM279.435 224.201L280.595 224.578C280.155 224.96 279.848 225.421 279.673 225.96C279.576 226.258 279.566 226.514 279.644 226.729C279.723 226.937 279.868 227.075 280.077 227.143C280.286 227.211 280.49 227.179 280.687 227.047C280.88 226.906 281.117 226.682 281.399 226.374C281.596 226.157 281.764 225.984 281.905 225.855C282.039 225.723 282.212 225.59 282.423 225.455C282.637 225.315 282.867 225.235 283.111 225.216C283.351 225.189 283.608 225.22 283.88 225.308C284.451 225.494 284.84 225.848 285.049 226.372C285.253 226.887 285.247 227.477 285.031 228.143C284.796 228.865 284.465 229.42 284.038 229.807L282.811 229.409C283.381 228.991 283.771 228.459 283.981 227.812C284.076 227.521 284.083 227.263 284.001 227.04C283.913 226.816 283.748 226.664 283.507 226.586C283.393 226.549 283.284 226.538 283.181 226.553C283.078 226.569 282.959 226.632 282.825 226.743C282.693 226.847 282.596 226.931 282.533 226.995C282.472 227.052 282.354 227.178 282.179 227.374C282.126 227.427 282.089 227.467 282.066 227.495C281.882 227.694 281.725 227.854 281.595 227.973C281.459 228.09 281.29 228.21 281.089 228.334C280.887 228.458 280.671 228.531 280.439 228.554C280.209 228.57 279.964 228.536 279.704 228.452C279.159 228.275 278.787 227.933 278.587 227.426C278.389 226.913 278.398 226.324 278.614 225.658C278.81 225.056 279.084 224.57 279.435 224.201ZM284.113 222.423L284.7 220.616L284.387 220.609C283.632 220.602 283.001 220.593 282.493 220.583C281.98 220.563 281.659 220.55 281.528 220.542L281.325 220.519C281.624 220.679 282.47 221.255 283.865 222.248L284.113 222.423ZM287.382 220.647L285.779 220.63L284.991 223.056L286.297 223.985L285.89 225.24L280.184 220.989L280.688 219.439L287.802 219.353L287.382 220.647ZM283.07 215.473L285.162 216.152L285.422 215.354C285.541 214.986 285.539 214.68 285.415 214.436C285.284 214.191 285.051 214.013 284.715 213.904C284.385 213.797 284.1 213.813 283.858 213.952C283.619 214.084 283.441 214.331 283.323 214.693L283.07 215.473ZM289.177 215.123L286.365 215.818L286.151 216.474L288.491 217.234L288.102 218.432L281.691 216.35L282.334 214.371C282.571 213.642 282.94 213.131 283.442 212.839C283.946 212.54 284.505 212.49 285.12 212.69C285.575 212.845 285.925 213.081 286.172 213.4C286.413 213.716 286.549 214.086 286.579 214.51L289.644 213.687L289.177 215.123Z" fill="white"/>
<path d="M283.763 137.941L282.602 138.318C282.733 137.75 282.711 137.196 282.536 136.657C282.439 136.359 282.296 136.146 282.108 136.018C281.921 135.897 281.723 135.87 281.514 135.938C281.304 136.006 281.159 136.151 281.077 136.374C281.004 136.601 280.943 136.922 280.896 137.337C280.864 137.628 280.83 137.867 280.792 138.054C280.761 138.24 280.7 138.449 280.607 138.682C280.517 138.922 280.378 139.121 280.192 139.28C280.013 139.443 279.788 139.569 279.515 139.658C278.945 139.843 278.421 139.785 277.945 139.484C277.477 139.188 277.135 138.707 276.919 138.041C276.684 137.318 276.625 136.675 276.743 136.11L277.97 135.712C277.754 136.385 277.751 137.045 277.962 137.691C278.056 137.983 278.202 138.195 278.4 138.327C278.603 138.457 278.825 138.483 279.066 138.405C279.18 138.368 279.275 138.313 279.349 138.24C279.423 138.166 279.482 138.046 279.526 137.877C279.571 137.715 279.6 137.59 279.614 137.502C279.629 137.419 279.651 137.248 279.678 136.987C279.689 136.913 279.696 136.858 279.698 136.822C279.73 136.553 279.763 136.332 279.798 136.159C279.839 135.984 279.905 135.788 279.995 135.569C280.086 135.35 280.218 135.164 280.392 135.009C280.568 134.861 280.786 134.744 281.046 134.66C281.591 134.483 282.093 134.54 282.553 134.833C283.014 135.131 283.353 135.614 283.57 136.279C283.765 136.882 283.83 137.436 283.763 137.941ZM279.431 142.183L280.281 144.798L279.302 145.116L278.059 141.293L284.47 139.21L285.699 142.996L284.72 143.314L283.882 140.737L282.142 141.302L282.887 143.594L281.917 143.909L281.172 141.617L279.431 142.183ZM286.995 147.888L285.834 148.265C285.965 147.697 285.943 147.143 285.768 146.604C285.671 146.306 285.528 146.093 285.34 145.965C285.153 145.844 284.955 145.817 284.746 145.885C284.536 145.953 284.391 146.098 284.309 146.321C284.236 146.548 284.175 146.869 284.128 147.284C284.096 147.575 284.062 147.814 284.024 148.002C283.993 148.187 283.932 148.396 283.839 148.629C283.749 148.869 283.61 149.068 283.424 149.227C283.245 149.39 283.02 149.516 282.747 149.605C282.177 149.79 281.653 149.732 281.177 149.431C280.709 149.135 280.367 148.654 280.151 147.988C279.916 147.265 279.857 146.622 279.975 146.058L281.202 145.659C280.986 146.332 280.983 146.992 281.194 147.638C281.288 147.93 281.434 148.142 281.632 148.274C281.835 148.404 282.057 148.43 282.298 148.352C282.412 148.315 282.507 148.26 282.581 148.187C282.655 148.113 282.714 147.993 282.758 147.824C282.803 147.662 282.832 147.537 282.846 147.449C282.861 147.367 282.883 147.195 282.91 146.934C282.921 146.86 282.928 146.805 282.93 146.769C282.962 146.5 282.995 146.279 283.03 146.106C283.071 145.931 283.137 145.735 283.227 145.516C283.318 145.298 283.45 145.111 283.624 144.956C283.8 144.808 284.018 144.692 284.278 144.607C284.823 144.43 285.325 144.487 285.785 144.78C286.246 145.078 286.585 145.561 286.802 146.226C286.997 146.829 287.062 147.383 286.995 147.888ZM284.255 152.076L284.842 153.883L285.099 153.704C285.714 153.266 286.23 152.902 286.648 152.612C287.073 152.327 287.342 152.149 287.452 152.078L287.63 151.978C287.294 152.024 286.27 152.055 284.558 152.072L284.255 152.076ZM282.654 155.434L283.961 154.505L283.173 152.08L281.57 152.096L281.162 150.841L288.276 150.927L288.78 152.477L283.074 156.728L282.654 155.434ZM289.184 157.086L287.092 157.766L287.351 158.564C287.471 158.932 287.652 159.178 287.896 159.302C288.146 159.424 288.439 159.431 288.775 159.322C289.105 159.214 289.326 159.034 289.44 158.78C289.556 158.532 289.555 158.227 289.437 157.866L289.184 157.086ZM284.449 160.958L286.316 158.743L286.103 158.087L283.763 158.847L283.374 157.649L289.784 155.566L290.427 157.544C290.663 158.273 290.665 158.904 290.431 159.435C290.199 159.973 289.776 160.342 289.161 160.542C288.702 160.684 288.28 160.699 287.893 160.586C287.512 160.472 287.185 160.252 286.911 159.927L284.916 162.395L284.449 160.958Z" fill="white"/>
<path d="M233.937 188.986V182.246H235.367L236.987 185.056C237.253 185.516 237.49 185.946 237.697 186.346C237.91 186.739 238.053 187.019 238.127 187.186L238.237 187.436C238.183 186.883 238.157 186.089 238.157 185.056V182.246H239.427V188.986H237.987L236.347 186.186C236.087 185.746 235.85 185.326 235.637 184.926C235.43 184.519 235.287 184.226 235.207 184.046L235.087 183.766C235.16 184.399 235.197 185.203 235.197 186.176V188.986H233.937ZM240.552 185.596C240.552 184.549 240.838 183.709 241.412 183.076C241.992 182.443 242.765 182.126 243.732 182.126C244.712 182.126 245.488 182.443 246.062 183.076C246.635 183.703 246.922 184.543 246.922 185.596C246.922 186.636 246.632 187.473 246.052 188.106C245.478 188.739 244.708 189.056 243.742 189.056C242.775 189.056 242.002 188.739 241.422 188.106C240.842 187.473 240.552 186.636 240.552 185.596ZM241.902 185.596C241.902 186.303 242.068 186.863 242.402 187.276C242.735 187.689 243.182 187.896 243.742 187.896C244.308 187.896 244.755 187.693 245.082 187.286C245.408 186.873 245.572 186.309 245.572 185.596C245.572 184.883 245.408 184.319 245.082 183.906C244.755 183.493 244.305 183.286 243.732 183.286C243.165 183.286 242.718 183.493 242.392 183.906C242.065 184.319 241.902 184.883 241.902 185.596ZM249.308 183.286V185.486H250.148C250.535 185.486 250.825 185.389 251.018 185.196C251.211 184.996 251.308 184.719 251.308 184.366C251.308 184.019 251.205 183.753 250.998 183.566C250.798 183.379 250.508 183.286 250.128 183.286H249.308ZM251.528 188.986L249.998 186.526H249.308V188.986H248.048V182.246H250.128C250.895 182.246 251.495 182.439 251.928 182.826C252.368 183.213 252.588 183.729 252.588 184.376C252.581 184.856 252.465 185.263 252.238 185.596C252.011 185.923 251.701 186.166 251.308 186.326L253.038 188.986H251.528ZM253.817 188.986L254.357 182.246H255.797L256.717 184.696C256.877 185.109 257.027 185.523 257.167 185.936C257.307 186.343 257.407 186.646 257.467 186.846L257.557 187.156C257.763 186.463 258.05 185.643 258.417 184.696L259.357 182.246H260.797L261.457 188.986H260.197L259.957 186.356L259.777 183.996C259.537 184.683 259.25 185.469 258.917 186.356L257.977 188.886H257.117L256.197 186.356L255.407 184.026C255.407 184.353 255.363 185.129 255.277 186.356L255.077 188.986H253.817ZM264.446 186.426H266.346L266.256 186.126C266.029 185.406 265.842 184.803 265.696 184.316C265.556 183.823 265.469 183.513 265.436 183.386L265.396 183.186C265.336 183.519 265.049 184.503 264.536 186.136L264.446 186.426ZM267.146 188.986L266.666 187.456H264.116L263.636 188.986H262.316L264.596 182.246H266.226L268.506 188.986H267.146ZM270.734 187.866H273.364V188.986H269.474V182.246H270.734V187.866Z" fill="white"/>
</g>
<g clip-path="url(#clip2_1124_4113)">
<path d="M214.81 197.01L214.81 195.56L230 186.16L214.81 176.77L214.81 175.32L212.12 174.58C211.16 174.32 210.13 174.67 209.55 175.48C207.3 178.59 206 182.24 206 186.16C206 190.08 207.3 193.73 209.55 196.84C210.13 197.65 211.16 198 212.12 197.74L214.81 197L214.81 197.01Z" fill="#D9AA16"/>
<path d="M214.81 175.32L212.7 174.74C212.17 174.6 212.04 175.06 212.53 175.36L214.82 176.77L214.82 175.32L214.81 175.32Z" fill="#B76F09"/>
<path d="M214.81 197.01L212.7 197.59C212.17 197.73 212.04 197.27 212.53 196.97L214.82 195.56L214.82 197.01L214.81 197.01Z" fill="#B76F09"/>
<path d="M208 186.16C208 182.84 209.05 179.63 211.06 176.8L226.2 186.16L211.06 195.52C209.05 192.69 208 189.48 208 186.16Z" fill="white"/>
</g>
<path d="M9 341.5H329C333.694 341.5 337.5 345.306 337.5 350C337.5 354.694 333.694 358.5 329 358.5H9C4.30558 358.5 0.5 354.694 0.5 350C0.500002 345.306 4.30558 341.5 9 341.5Z" fill="white"/>
<path d="M9 341.5H329C333.694 341.5 337.5 345.306 337.5 350C337.5 354.694 333.694 358.5 329 358.5H9C4.30558 358.5 0.5 354.694 0.5 350C0.500002 345.306 4.30558 341.5 9 341.5Z" stroke="#CCCCCC"/>
<path d="M7.86805e-07 350C3.52265e-07 345.029 4.02944 341 9 341L39 341C43.9706 341 48 345.029 48 350C48 354.971 43.9706 359 39 359L9 359C4.02944 359 1.22135e-06 354.971 7.86805e-07 350Z" fill="#FF1934"/>
<path d="M15.448 346.688H16.264L16.816 348.6L17.456 350.92C17.5893 350.179 17.7547 349.403 17.952 348.592L18.44 346.608H19.464L18.088 352H16.92L16.432 350.296C16.2987 349.843 16.184 349.443 16.088 349.096C15.9973 348.749 15.936 348.517 15.904 348.4L15.864 348.216C15.7893 348.589 15.6027 349.283 15.304 350.296L14.8 352H13.64L12.2 346.608H13.264L13.768 348.6C13.8533 348.957 13.9387 349.328 14.024 349.712C14.1093 350.096 14.1733 350.389 14.216 350.592L14.28 350.904C14.4507 350.232 14.6587 349.464 14.904 348.6L15.448 346.688ZM22.2561 350.256H21.7601C21.5094 350.256 21.3174 350.309 21.1841 350.416C21.0507 350.517 20.9841 350.648 20.9841 350.808C20.9841 351.149 21.1814 351.32 21.5761 351.32C21.7894 351.32 21.9547 351.259 22.0721 351.136C22.1947 351.008 22.2561 350.843 22.2561 350.64V350.256ZM20.2881 349.04V348.152C20.5921 347.965 21.0294 347.872 21.6001 347.872C22.6987 347.872 23.2481 348.384 23.2481 349.408V352H22.2961V351.512C22.1094 351.859 21.7574 352.032 21.2401 352.032C20.8561 352.032 20.5494 351.92 20.3201 351.696C20.0961 351.472 19.9841 351.189 19.9841 350.848C19.9841 350.464 20.1281 350.163 20.4161 349.944C20.7041 349.725 21.1201 349.616 21.6641 349.616H22.2561V349.368C22.2561 349.144 22.1974 348.973 22.0801 348.856C21.9627 348.739 21.7627 348.68 21.4801 348.68C21.0481 348.68 20.6507 348.8 20.2881 349.04ZM27.7828 352H26.6548L25.1988 349.904V352H24.2388V346.44H25.1988V349.848L26.6308 347.944H27.7508L26.2628 349.88L27.7828 352ZM29.5864 348.664V350.728C29.5864 350.899 29.6318 351.029 29.7224 351.12C29.8131 351.205 29.9384 351.248 30.0984 351.248C30.3011 351.248 30.4878 351.192 30.6584 351.08V351.904C30.4718 351.995 30.2318 352.04 29.9384 352.04C29.0638 352.04 28.6264 351.597 28.6264 350.712V348.664H28.0184V347.944H28.6264V346.968H29.5864V347.944H30.5944V348.664H29.5864ZM33.9617 347.944H34.9297V352H33.9617V351.336C33.7484 351.805 33.3324 352.04 32.7137 352.04C32.303 352.04 31.983 351.923 31.7537 351.688C31.5244 351.453 31.4097 351.12 31.4097 350.688V347.944H32.3697V350.464C32.3697 350.72 32.431 350.915 32.5537 351.048C32.6817 351.181 32.855 351.248 33.0737 351.248C33.351 351.248 33.567 351.155 33.7217 350.968C33.8817 350.781 33.9617 350.499 33.9617 350.12V347.944Z" fill="white"/>
<rect x="56" y="348" width="274" height="4" rx="2" fill="#CCCCCC"/>
<mask id="mask0_1124_4113" style="mask-type:alpha" maskUnits="userSpaceOnUse" x="56" y="348" width="274" height="4">
<rect x="56" y="348" width="274" height="4" rx="2" fill="#CCCCCC"/>
</mask>
<g mask="url(#mask0_1124_4113)">
<rect x="56" y="348" width="274" height="4" rx="2" fill="#FF1934"/>
</g>
<defs>
<filter id="filter0_d_1124_4113" x="22.5" y="14" width="293" height="56" filterUnits="userSpaceOnUse" color-interpolation-filters="sRGB">
<feFlood flood-opacity="0" result="BackgroundImageFix"/>
<feColorMatrix in="SourceAlpha" type="matrix" values="0 0 0 0 0 0 0 0 0 0 0 0 0 0 0 0 0 0 127 0" result="hardAlpha"/>
<feOffset dy="2"/>
<feGaussianBlur stdDeviation="2"/>
<feComposite in2="hardAlpha" operator="out"/>
<feColorMatrix type="matrix" values="0 0 0 0 0.168627 0 0 0 0 0.168627 0 0 0 0 0.168627 0 0 0 0.24 0"/>
<feBlend mode="normal" in2="BackgroundImageFix" result="effect1_dropShadow_1124_4113"/>
<feBlend mode="normal" in="SourceGraphic" in2="effect1_dropShadow_1124_4113" result="shape"/>
</filter>
<clipPath id="clip0_1124_4113">
<rect width="24" height="24" fill="white" transform="translate(42.5 32)"/>
</clipPath>
<clipPath id="clip1_1124_4113">
<rect width="104" height="152" fill="white" transform="translate(191.5 110)"/>
</clipPath>
<clipPath id="clip2_1124_4113">
<rect width="23.33" height="24" fill="white" transform="translate(230 174.5) rotate(90)"/>
</clipPath>
</defs>
</svg>
