<svg width="338" height="375" viewBox="0 0 338 375" fill="none" xmlns="http://www.w3.org/2000/svg">
<rect width="338" height="375" fill="#D3D3D3"/>
<rect x="26.5" y="16" width="285" height="294" rx="16" fill="white"/>
<g filter="url(#filter0_d_1124_4113)">
<path d="M26.5 32C26.5 23.1634 33.6634 16 42.5 16H295.5C304.337 16 311.5 23.1634 311.5 32V64H26.5V32Z" fill="#FF1934" shape-rendering="crispEdges"/>
<g clip-path="url(#clip0_1124_4113)">
<path d="M54.5 34C48.99 34 44.5 38.49 44.5 44C44.5 46.27 45.24 48.41 46.64 50.18C46.91 50.53 47.42 50.59 47.76 50.31C48.11 50.04 48.17 49.53 47.89 49.19C46.71 47.7 46.09 45.9 46.09 44C46.1 39.37 49.87 35.6 54.5 35.6C59.13 35.6 62.9 39.37 62.9 44C62.9 48.63 59.13 52.4 54.5 52.4C52.82 52.4 51.19 51.9 49.8 50.97C49.43 50.72 48.94 50.82 48.69 51.18C48.44 51.54 48.54 52.04 48.9 52.29C50.56 53.41 52.49 54 54.49 54C60 54 64.49 49.51 64.49 44C64.49 38.49 60.01 34 54.5 34Z" fill="white"/>
<path d="M58.2402 38.14C57.8702 37.9 57.3702 38.01 57.1302 38.38L53.8202 43.57C53.7402 43.7 53.7002 43.85 53.7002 44V48C53.7002 48.44 54.0602 48.8 54.5002 48.8C54.9402 48.8 55.3002 48.44 55.3002 48V44.23L58.4902 39.24C58.7302 38.87 58.6202 38.37 58.2502 38.13L58.2402 38.14Z" fill="white"/>
</g>
<path d="M77.566 46.11H81.052V48H75.41V38.564H77.566V46.11ZM82.2459 48V40.902H84.2899V48H82.2459ZM82.4279 39.684C82.1946 39.4507 82.0779 39.1707 82.0779 38.844C82.0779 38.5173 82.1946 38.2373 82.4279 38.004C82.6613 37.7707 82.9413 37.654 83.2679 37.654C83.5946 37.654 83.8746 37.7707 84.1079 38.004C84.3413 38.2373 84.4579 38.5173 84.4579 38.844C84.4579 39.1707 84.3413 39.4507 84.1079 39.684C83.8746 39.9173 83.5946 40.034 83.2679 40.034C82.9413 40.034 82.6613 39.9173 82.4279 39.684ZM88.0891 40.902V42.106C88.2664 41.714 88.5371 41.406 88.9011 41.182C89.2744 40.9487 89.7177 40.832 90.2311 40.832C90.9591 40.832 91.5284 41.0513 91.9391 41.49C92.3497 41.9193 92.5551 42.554 92.5551 43.394V48H90.5111V43.772C90.5111 43.352 90.4131 43.0347 90.2171 42.82C90.0211 42.596 89.7457 42.484 89.3911 42.484C89.0177 42.484 88.7051 42.6333 88.4531 42.932C88.2104 43.2213 88.0891 43.66 88.0891 44.248V48H86.0451V40.902H88.0891ZM94.2362 48V40.902H96.2802V48H94.2362ZM94.4182 39.684C94.1848 39.4507 94.0682 39.1707 94.0682 38.844C94.0682 38.5173 94.1848 38.2373 94.4182 38.004C94.6515 37.7707 94.9315 37.654 95.2582 37.654C95.5848 37.654 95.8648 37.7707 96.0982 38.004C96.3315 38.2373 96.4482 38.5173 96.4482 38.844C96.4482 39.1707 96.3315 39.4507 96.0982 39.684C95.8648 39.9173 95.5848 40.034 95.2582 40.034C94.9315 40.034 94.6515 39.9173 94.4182 39.684ZM101.395 48L102.207 38.564H104.573L105.889 41.98C106.113 42.5493 106.305 43.072 106.463 43.548C106.622 44.024 106.725 44.36 106.771 44.556L106.841 44.836C106.991 44.22 107.317 43.268 107.821 41.98L109.151 38.564H111.517L112.497 48H110.341L109.991 44.346L109.809 41.588C109.567 42.288 109.231 43.2073 108.801 44.346L107.471 47.902H106.197L104.881 44.346C104.667 43.7673 104.485 43.2493 104.335 42.792C104.186 42.3347 104.088 42.0173 104.041 41.84L103.971 41.588C103.971 42.2507 103.929 43.17 103.845 44.346L103.551 48H101.395ZM117.545 45.088H116.887C116.542 45.088 116.276 45.1627 116.089 45.312C115.903 45.4613 115.809 45.6527 115.809 45.886C115.809 46.362 116.085 46.6 116.635 46.6C116.925 46.6 117.149 46.5113 117.307 46.334C117.466 46.1567 117.545 45.914 117.545 45.606V45.088ZM114.227 43.086V41.252C114.787 40.9347 115.595 40.776 116.649 40.776C117.657 40.776 118.409 40.9953 118.903 41.434C119.398 41.8633 119.645 42.5353 119.645 43.45V48H117.643V47.132C117.345 47.7387 116.757 48.042 115.879 48.042C115.189 48.042 114.647 47.846 114.255 47.454C113.873 47.062 113.681 46.572 113.681 45.984C113.681 45.3027 113.929 44.7753 114.423 44.402C114.927 44.0193 115.669 43.828 116.649 43.828H117.545V43.338C117.545 42.7407 117.149 42.442 116.355 42.442C115.59 42.442 114.881 42.6567 114.227 43.086ZM125.73 41.112V42.862C125.235 42.5727 124.657 42.428 123.994 42.428C123.751 42.428 123.565 42.4793 123.434 42.582C123.303 42.6753 123.238 42.7967 123.238 42.946C123.238 43.03 123.261 43.1093 123.308 43.184C123.355 43.2587 123.429 43.3287 123.532 43.394C123.644 43.4593 123.747 43.52 123.84 43.576C123.943 43.6227 124.078 43.6833 124.246 43.758C124.423 43.8327 124.563 43.898 124.666 43.954C125.095 44.178 125.441 44.4393 125.702 44.738C125.963 45.0273 126.094 45.4007 126.094 45.858C126.094 46.558 125.842 47.0993 125.338 47.482C124.834 47.8647 124.167 48.056 123.336 48.056C122.477 48.056 121.759 47.9113 121.18 47.622V45.802C121.824 46.25 122.505 46.474 123.224 46.474C123.737 46.474 123.994 46.3107 123.994 45.984C123.994 45.9 123.971 45.8207 123.924 45.746C123.877 45.6713 123.798 45.6013 123.686 45.536C123.574 45.4707 123.471 45.4193 123.378 45.382C123.285 45.3353 123.149 45.2747 122.972 45.2C122.795 45.1253 122.659 45.0647 122.566 45.018C121.623 44.57 121.152 43.898 121.152 43.002C121.152 42.3113 121.413 41.7747 121.936 41.392C122.468 41.0093 123.126 40.818 123.91 40.818C124.638 40.818 125.245 40.916 125.73 41.112ZM130.862 45.088H130.204C129.858 45.088 129.592 45.1627 129.406 45.312C129.219 45.4613 129.126 45.6527 129.126 45.886C129.126 46.362 129.401 46.6 129.952 46.6C130.241 46.6 130.465 46.5113 130.624 46.334C130.782 46.1567 130.862 45.914 130.862 45.606V45.088ZM127.544 43.086V41.252C128.104 40.9347 128.911 40.776 129.966 40.776C130.974 40.776 131.725 40.9953 132.22 41.434C132.714 41.8633 132.962 42.5353 132.962 43.45V48H130.96V47.132C130.661 47.7387 130.073 48.042 129.196 48.042C128.505 48.042 127.964 47.846 127.572 47.454C127.189 47.062 126.998 46.572 126.998 45.984C126.998 45.3027 127.245 44.7753 127.74 44.402C128.244 44.0193 128.986 43.828 129.966 43.828H130.862V43.338C130.862 42.7407 130.465 42.442 129.672 42.442C128.906 42.442 128.197 42.6567 127.544 43.086Z" fill="white"/>
</g>
<g clip-path="url(#clip1_1124_4113)">
<path d="M169 138.65C160.603 138.65 152.56 139.191 150.726 139.994C148.431 140.997 156.353 142.017 169 142.017C181.647 142.017 189.568 140.997 187.274 139.994C185.439 139.192 177.396 138.65 169 138.65Z" fill="#CCCCCC"/>
<path d="M172.908 106.177L177.215 109.119L177.882 108.636L173.114 105.38L172.908 106.177Z" fill="#D9AA16"/>
<path d="M159.1 131.018C167.439 136.713 177.722 136.173 182.067 129.812C186.412 123.45 183.174 113.675 174.834 107.98C166.495 102.284 156.212 102.824 151.867 109.186C147.522 115.548 150.76 125.322 159.1 131.018Z" fill="#DA011C"/>
<path d="M159.615 130.477C162.544 132.457 165.955 133.775 169.456 134.08C172.958 134.384 176.016 133.63 178.346 132.109L166.967 119.498L159.614 130.476L159.615 130.477Z" fill="#FF1934"/>
<path d="M178.267 132.161C180.618 130.661 182.289 128.362 182.875 125.418C183.461 122.475 182.873 119.335 181.403 116.414L166.967 119.499L178.267 132.161Z" fill="#D9AA16"/>
<path d="M151.061 113.58C150.514 116.314 150.949 119.439 152.529 122.585C154.109 125.731 156.595 128.418 159.515 130.41L166.967 119.499L151.062 113.581L151.061 113.58Z" fill="#1699D9"/>
<path d="M181.403 116.414C179.938 113.491 177.563 110.733 174.421 108.586C171.278 106.44 167.845 105.232 164.589 104.93L166.967 119.499L181.403 116.414Z" fill="#CC0BD9"/>
<path d="M164.478 104.92C161.225 104.634 158.096 105.25 155.585 106.886C153.074 108.522 151.562 110.93 151.043 113.673L166.966 119.499L164.478 104.92Z" fill="#008C1E"/>
<path d="M151.042 113.673L166.797 119.536L159.416 130.342C159.449 130.365 159.481 130.389 159.514 130.412C159.547 130.435 159.581 130.455 159.615 130.478L166.995 119.671L178.189 132.214C178.242 132.18 178.297 132.148 178.35 132.114L167.155 119.569L181.454 116.513C181.421 116.447 181.385 116.38 181.352 116.315L167.055 119.37L164.7 104.942C164.626 104.934 164.552 104.925 164.478 104.919L166.834 119.35L151.076 113.486C151.063 113.548 151.053 113.61 151.042 113.673Z" fill="white"/>
<g style="mix-blend-mode:multiply" opacity="0.32">
<path d="M159.514 130.411C167.415 135.807 177.156 135.296 181.272 129.269C185.388 123.242 182.321 113.982 174.42 108.586C166.52 103.19 156.778 103.702 152.662 109.729C148.546 115.756 151.613 125.016 159.514 130.411ZM174.006 109.192C181.468 114.288 184.365 123.034 180.478 128.726C176.59 134.419 167.39 134.902 159.928 129.806C152.466 124.709 149.569 115.964 153.457 110.271C157.344 104.579 166.544 104.096 174.006 109.192Z" fill="#2B2B2B"/>
</g>
<path d="M166.139 120.711C167.017 121.311 168.099 121.254 168.556 120.584C169.014 119.915 168.673 118.886 167.795 118.287C166.918 117.687 165.835 117.744 165.378 118.414C164.921 119.083 165.262 120.112 166.139 120.711Z" fill="white"/>
<path d="M177.882 108.636C177.511 107.742 176.864 106.921 175.973 106.313C175.082 105.704 174.081 105.4 173.114 105.38L173.489 109.95L177.882 108.636Z" fill="#D9AA16"/>
<path d="M173.114 105.38L172.908 106.177L173.196 106.374L173.114 105.38Z" fill="#D9AA16"/>
<path d="M177.214 109.119C177.214 109.119 177.464 108.938 177.548 108.877C177.632 108.817 177.553 108.734 177.444 108.767C177.314 108.806 176.927 108.922 176.927 108.922L177.215 109.118L177.214 109.119Z" fill="#B76F09"/>
<path d="M172.907 106.177C172.907 106.177 172.985 105.878 173.011 105.778C173.037 105.678 173.143 105.721 173.152 105.835C173.163 105.97 173.196 106.373 173.196 106.373L172.908 106.177L172.907 106.177Z" fill="#B76F09"/>
<path d="M175.766 106.616C176.426 107.067 176.953 107.661 177.308 108.35L173.882 109.374L173.59 105.81C174.36 105.89 175.105 106.165 175.766 106.616Z" fill="white"/>
</g>
<path d="M114.99 183V173.564H117.146V183H114.99ZM119.764 178.282L123.11 183H120.408L117.244 178.31L120.296 173.564H122.858L119.764 178.282ZM128.292 178.8V178.632C128.226 177.801 127.862 177.386 127.2 177.386C126.873 177.386 126.584 177.507 126.332 177.75C126.08 177.983 125.912 178.333 125.828 178.8H128.292ZM129.762 180.886V182.594C129.276 182.911 128.534 183.07 127.536 183.07C126.369 183.07 125.459 182.734 124.806 182.062C124.162 181.381 123.84 180.508 123.84 179.444C123.84 178.315 124.152 177.433 124.778 176.798C125.412 176.154 126.192 175.832 127.116 175.832C128.068 175.832 128.819 176.112 129.37 176.672C129.92 177.223 130.196 178.049 130.196 179.15C130.196 179.365 130.158 179.733 130.084 180.256H125.912C126.052 180.648 126.294 180.951 126.64 181.166C126.985 181.381 127.4 181.488 127.886 181.488C128.604 181.488 129.23 181.287 129.762 180.886ZM131.724 183V173.102H133.768V183H131.724ZM139.038 180.088H138.38C138.034 180.088 137.768 180.163 137.582 180.312C137.395 180.461 137.302 180.653 137.302 180.886C137.302 181.362 137.577 181.6 138.128 181.6C138.417 181.6 138.641 181.511 138.8 181.334C138.958 181.157 139.038 180.914 139.038 180.606V180.088ZM135.72 178.086V176.252C136.28 175.935 137.087 175.776 138.142 175.776C139.15 175.776 139.901 175.995 140.396 176.434C140.89 176.863 141.138 177.535 141.138 178.45V183H139.136V182.132C138.837 182.739 138.249 183.042 137.372 183.042C136.681 183.042 136.14 182.846 135.748 182.454C135.365 182.062 135.174 181.572 135.174 180.984C135.174 180.303 135.421 179.775 135.916 179.402C136.42 179.019 137.162 178.828 138.142 178.828H139.038V178.338C139.038 177.741 138.641 177.442 137.848 177.442C137.082 177.442 136.373 177.657 135.72 178.086ZM144.786 173.102V177.106C145.15 176.257 145.86 175.832 146.914 175.832C147.605 175.832 148.165 176.051 148.594 176.49C149.033 176.929 149.252 177.591 149.252 178.478V183H147.208V178.8C147.208 178.389 147.106 178.067 146.9 177.834C146.695 177.601 146.429 177.484 146.102 177.484C145.962 177.484 145.827 177.507 145.696 177.554C145.575 177.591 145.44 177.666 145.29 177.778C145.141 177.881 145.02 178.063 144.926 178.324C144.833 178.576 144.786 178.884 144.786 179.248V183H142.742V173.102H144.786ZM150.933 183V175.902H152.977V183H150.933ZM151.115 174.684C150.882 174.451 150.765 174.171 150.765 173.844C150.765 173.517 150.882 173.237 151.115 173.004C151.349 172.771 151.629 172.654 151.955 172.654C152.282 172.654 152.562 172.771 152.795 173.004C153.029 173.237 153.145 173.517 153.145 173.844C153.145 174.171 153.029 174.451 152.795 174.684C152.562 174.917 152.282 175.034 151.955 175.034C151.629 175.034 151.349 174.917 151.115 174.684ZM156.763 175.902V177.218C156.893 176.807 157.108 176.481 157.407 176.238C157.715 175.986 158.069 175.86 158.471 175.86C158.695 175.86 158.872 175.879 159.003 175.916V177.848C158.779 177.745 158.522 177.694 158.233 177.694C157.794 177.694 157.439 177.857 157.169 178.184C156.898 178.501 156.763 178.926 156.763 179.458V183H154.719L154.733 175.902H156.763ZM163.428 180.088H162.77C162.425 180.088 162.159 180.163 161.972 180.312C161.786 180.461 161.692 180.653 161.692 180.886C161.692 181.362 161.968 181.6 162.518 181.6C162.808 181.6 163.032 181.511 163.19 181.334C163.349 181.157 163.428 180.914 163.428 180.606V180.088ZM160.11 178.086V176.252C160.67 175.935 161.478 175.776 162.532 175.776C163.54 175.776 164.292 175.995 164.786 176.434C165.281 176.863 165.528 177.535 165.528 178.45V183H163.526V182.132C163.228 182.739 162.64 183.042 161.762 183.042C161.072 183.042 160.53 182.846 160.138 182.454C159.756 182.062 159.564 181.572 159.564 180.984C159.564 180.303 159.812 179.775 160.306 179.402C160.81 179.019 161.552 178.828 162.532 178.828H163.428V178.338C163.428 177.741 163.032 177.442 162.238 177.442C161.473 177.442 160.764 177.657 160.11 178.086ZM169.177 175.902V177.106C169.354 176.714 169.625 176.406 169.989 176.182C170.362 175.949 170.806 175.832 171.319 175.832C172.047 175.832 172.616 176.051 173.027 176.49C173.438 176.919 173.643 177.554 173.643 178.394V183H171.599V178.772C171.599 178.352 171.501 178.035 171.305 177.82C171.109 177.596 170.834 177.484 170.479 177.484C170.106 177.484 169.793 177.633 169.541 177.932C169.298 178.221 169.177 178.66 169.177 179.248V183H167.133V175.902H169.177ZM178.824 183V173.564H181.19L183.388 177.47C183.696 178.021 183.962 178.539 184.186 179.024C184.419 179.5 184.569 179.836 184.634 180.032L184.746 180.34C184.653 179.649 184.606 178.693 184.606 177.47V173.564H186.762V183H184.396L182.142 179.094C181.843 178.59 181.577 178.095 181.344 177.61C181.12 177.115 180.966 176.751 180.882 176.518L180.77 176.168C180.91 177.008 180.98 177.983 180.98 179.094V183H178.824ZM191.652 183.112C190.541 183.112 189.682 182.781 189.076 182.118C188.469 181.446 188.166 180.587 188.166 179.542C188.166 178.45 188.483 177.554 189.118 176.854C189.752 176.145 190.597 175.79 191.652 175.79C192.753 175.79 193.607 176.131 194.214 176.812C194.82 177.493 195.124 178.361 195.124 179.416C195.124 180.489 194.816 181.376 194.2 182.076C193.593 182.767 192.744 183.112 191.652 183.112ZM191.638 177.4C191.19 177.4 190.854 177.591 190.63 177.974C190.406 178.357 190.294 178.851 190.294 179.458C190.294 180.065 190.406 180.564 190.63 180.956C190.863 181.339 191.208 181.53 191.666 181.53C192.114 181.53 192.445 181.343 192.66 180.97C192.884 180.587 192.996 180.093 192.996 179.486C192.996 178.095 192.543 177.4 191.638 177.4ZM198.489 175.902V177.218C198.62 176.807 198.834 176.481 199.133 176.238C199.441 175.986 199.796 175.86 200.197 175.86C200.421 175.86 200.598 175.879 200.729 175.916V177.848C200.505 177.745 200.248 177.694 199.959 177.694C199.52 177.694 199.166 177.857 198.895 178.184C198.624 178.501 198.489 178.926 198.489 179.458V183H196.445L196.459 175.902H198.489ZM203.685 175.902V177.008C204.077 176.224 204.744 175.832 205.687 175.832C206.685 175.832 207.348 176.28 207.675 177.176C207.833 176.756 208.099 176.429 208.473 176.196C208.846 175.953 209.285 175.832 209.789 175.832C210.489 175.832 211.039 176.056 211.441 176.504C211.851 176.943 212.057 177.591 212.057 178.45V183H210.013V178.786C210.013 178.385 209.933 178.067 209.775 177.834C209.616 177.601 209.387 177.484 209.089 177.484C208.771 177.484 208.487 177.615 208.235 177.876C207.992 178.128 207.871 178.585 207.871 179.248V183H205.827V178.786C205.827 178.385 205.747 178.067 205.589 177.834C205.43 177.601 205.201 177.484 204.903 177.484C204.585 177.484 204.301 177.615 204.049 177.876C203.806 178.128 203.685 178.585 203.685 179.248V183H201.641V175.902H203.685ZM217.186 180.088H216.528C216.183 180.088 215.917 180.163 215.73 180.312C215.543 180.461 215.45 180.653 215.45 180.886C215.45 181.362 215.725 181.6 216.276 181.6C216.565 181.6 216.789 181.511 216.948 181.334C217.107 181.157 217.186 180.914 217.186 180.606V180.088ZM213.868 178.086V176.252C214.428 175.935 215.235 175.776 216.29 175.776C217.298 175.776 218.049 175.995 218.544 176.434C219.039 176.863 219.286 177.535 219.286 178.45V183H217.284V182.132C216.985 182.739 216.397 183.042 215.52 183.042C214.829 183.042 214.288 182.846 213.896 182.454C213.513 182.062 213.322 181.572 213.322 180.984C213.322 180.303 213.569 179.775 214.064 179.402C214.568 179.019 215.31 178.828 216.29 178.828H217.186V178.338C217.186 177.741 216.789 177.442 215.996 177.442C215.231 177.442 214.521 177.657 213.868 178.086ZM220.961 183V173.102H223.005V183H220.961Z" fill="#2B2B2B"/>
<path d="M88.1048 206.49H90.2648L90.1548 206.15C89.9014 205.363 89.6948 204.713 89.5348 204.2C89.3748 203.68 89.2781 203.357 89.2448 203.23L89.1948 203.04C89.1214 203.353 88.7948 204.39 88.2148 206.15L88.1048 206.49ZM91.0748 209L90.5448 207.35H87.8248L87.2848 209H86.1948L88.5248 202.26H89.8748L92.1748 209H91.0748ZM94.1563 203.93V204.8C94.4563 204.173 94.983 203.86 95.7363 203.86C96.2363 203.86 96.633 204.013 96.9263 204.32C97.2197 204.627 97.3663 205.043 97.3663 205.57V209H96.3863V205.8C96.3863 205.447 96.2963 205.177 96.1163 204.99C95.943 204.803 95.7097 204.71 95.4163 204.71C95.0697 204.71 94.773 204.847 94.5263 205.12C94.2797 205.387 94.1563 205.763 94.1563 206.25V209H93.1763V203.93H94.1563ZM100.734 208.21C101.121 208.21 101.447 208.063 101.714 207.77C101.981 207.477 102.114 207.03 102.114 206.43C102.114 205.85 101.974 205.42 101.694 205.14C101.421 204.86 101.111 204.72 100.764 204.72C100.371 204.72 100.047 204.877 99.7941 205.19C99.5408 205.497 99.4141 205.937 99.4141 206.51C99.4141 207.017 99.5375 207.427 99.7841 207.74C100.037 208.053 100.354 208.21 100.734 208.21ZM102.114 201.93H103.104V209H102.114V208.23C101.761 208.79 101.244 209.07 100.564 209.07C99.8975 209.07 99.3708 208.82 98.9841 208.32C98.5975 207.813 98.4041 207.203 98.4041 206.49C98.4041 205.697 98.6075 205.06 99.0141 204.58C99.4208 204.1 99.9441 203.86 100.584 203.86C101.244 203.86 101.754 204.14 102.114 204.7V201.93ZM107.155 206.74H106.395C106.022 206.74 105.738 206.813 105.545 206.96C105.358 207.107 105.265 207.293 105.265 207.52C105.265 207.753 105.338 207.937 105.485 208.07C105.632 208.203 105.845 208.27 106.125 208.27C106.445 208.27 106.695 208.183 106.875 208.01C107.062 207.83 107.155 207.597 107.155 207.31V206.74ZM104.605 205.14V204.19C104.998 203.963 105.518 203.85 106.165 203.85C107.492 203.85 108.155 204.493 108.155 205.78V209H107.185V208.4C106.925 208.827 106.468 209.04 105.815 209.04C105.335 209.04 104.948 208.903 104.655 208.63C104.368 208.35 104.225 207.997 104.225 207.57C104.225 207.083 104.408 206.707 104.775 206.44C105.142 206.167 105.655 206.03 106.315 206.03H107.155V205.74C107.155 205.393 107.072 205.133 106.905 204.96C106.738 204.78 106.462 204.69 106.075 204.69C105.535 204.69 105.045 204.84 104.605 205.14ZM112.916 201.93V204.8C113.203 204.173 113.726 203.86 114.486 203.86C114.979 203.86 115.376 204.013 115.676 204.32C115.976 204.627 116.126 205.053 116.126 205.6V209H115.146V205.8C115.146 205.453 115.056 205.187 114.876 205C114.703 204.807 114.473 204.71 114.186 204.71C113.853 204.71 113.556 204.837 113.296 205.09C113.043 205.343 112.916 205.73 112.916 206.25V209H111.936V201.93H112.916ZM120.114 206.74H119.354C118.981 206.74 118.697 206.813 118.504 206.96C118.317 207.107 118.224 207.293 118.224 207.52C118.224 207.753 118.297 207.937 118.444 208.07C118.591 208.203 118.804 208.27 119.084 208.27C119.404 208.27 119.654 208.183 119.834 208.01C120.021 207.83 120.114 207.597 120.114 207.31V206.74ZM117.564 205.14V204.19C117.957 203.963 118.477 203.85 119.124 203.85C120.451 203.85 121.114 204.493 121.114 205.78V209H120.144V208.4C119.884 208.827 119.427 209.04 118.774 209.04C118.294 209.04 117.907 208.903 117.614 208.63C117.327 208.35 117.184 207.997 117.184 207.57C117.184 207.083 117.367 206.707 117.734 206.44C118.101 206.167 118.614 206.03 119.274 206.03H120.114V205.74C120.114 205.393 120.031 205.133 119.864 204.96C119.697 204.78 119.421 204.69 119.034 204.69C118.494 204.69 118.004 204.84 117.564 205.14ZM123.414 203.93V204.82C123.661 204.193 124.104 203.88 124.744 203.88C124.837 203.88 124.941 203.89 125.054 203.91V204.87C124.914 204.81 124.757 204.78 124.584 204.78C124.244 204.78 123.964 204.93 123.744 205.23C123.524 205.53 123.414 205.887 123.414 206.3V209H122.434V203.93H123.414ZM128.973 203.93H129.953V209H128.973V208.13C128.706 208.75 128.179 209.06 127.393 209.06C126.893 209.06 126.496 208.913 126.203 208.62C125.909 208.32 125.763 207.91 125.763 207.39V203.93H126.753V207.15C126.753 207.497 126.836 207.763 127.003 207.95C127.176 208.13 127.413 208.22 127.713 208.22C128.093 208.22 128.396 208.087 128.623 207.82C128.856 207.553 128.973 207.177 128.973 206.69V203.93ZM134.221 204.1V204.99C133.894 204.797 133.474 204.7 132.961 204.7C132.727 204.7 132.541 204.753 132.401 204.86C132.267 204.967 132.201 205.107 132.201 205.28C132.201 205.327 132.204 205.373 132.211 205.42C132.224 205.46 132.244 205.503 132.271 205.55C132.297 205.59 132.321 205.627 132.341 205.66C132.367 205.687 132.407 205.717 132.461 205.75C132.514 205.783 132.554 205.813 132.581 205.84C132.614 205.86 132.664 205.887 132.731 205.92C132.804 205.953 132.857 205.98 132.891 206C132.924 206.013 132.981 206.04 133.061 206.08C133.147 206.113 133.207 206.137 133.241 206.15C133.634 206.323 133.941 206.52 134.161 206.74C134.387 206.953 134.501 207.24 134.501 207.6C134.501 208.053 134.341 208.41 134.021 208.67C133.701 208.923 133.267 209.05 132.721 209.05C132.121 209.05 131.621 208.95 131.221 208.75V207.82C131.687 208.107 132.171 208.25 132.671 208.25C132.931 208.25 133.131 208.197 133.271 208.09C133.417 207.983 133.491 207.843 133.491 207.67C133.491 207.523 133.434 207.393 133.321 207.28C133.207 207.16 133.091 207.073 132.971 207.02C132.857 206.96 132.661 206.87 132.381 206.75C131.587 206.423 131.191 205.943 131.191 205.31C131.191 204.863 131.357 204.513 131.691 204.26C132.024 204.007 132.441 203.88 132.941 203.88C133.487 203.88 133.914 203.953 134.221 204.1ZM138.961 203.93V204.74C139.248 204.153 139.724 203.86 140.391 203.86C141.151 203.86 141.638 204.187 141.851 204.84C141.991 204.527 142.194 204.287 142.461 204.12C142.728 203.947 143.028 203.86 143.361 203.86C143.881 203.86 144.274 204.013 144.541 204.32C144.814 204.627 144.951 205.05 144.951 205.59V209H143.971V205.8C143.971 205.073 143.678 204.71 143.091 204.71C142.798 204.71 142.534 204.84 142.301 205.1C142.074 205.36 141.961 205.743 141.961 206.25V209H140.981V205.8C140.981 205.073 140.684 204.71 140.091 204.71C139.804 204.71 139.544 204.84 139.311 205.1C139.078 205.36 138.961 205.743 138.961 206.25V209H137.981V203.93H138.961ZM149.432 206.1V205.92C149.418 205.54 149.315 205.24 149.122 205.02C148.928 204.793 148.652 204.68 148.292 204.68C147.958 204.68 147.672 204.803 147.432 205.05C147.192 205.29 147.042 205.64 146.982 206.1H149.432ZM150.062 207.85V208.73C149.688 208.943 149.195 209.05 148.582 209.05C147.795 209.05 147.168 208.813 146.702 208.34C146.235 207.867 146.002 207.247 146.002 206.48C146.002 205.667 146.215 205.03 146.642 204.57C147.068 204.103 147.612 203.87 148.272 203.87C148.918 203.87 149.432 204.073 149.812 204.48C150.192 204.88 150.382 205.46 150.382 206.22C150.382 206.427 150.362 206.643 150.322 206.87H146.992C147.058 207.31 147.245 207.647 147.552 207.88C147.858 208.113 148.245 208.23 148.712 208.23C149.252 208.23 149.702 208.103 150.062 207.85ZM152.516 203.93V204.74C152.802 204.153 153.279 203.86 153.946 203.86C154.706 203.86 155.192 204.187 155.406 204.84C155.546 204.527 155.749 204.287 156.016 204.12C156.282 203.947 156.582 203.86 156.916 203.86C157.436 203.86 157.829 204.013 158.096 204.32C158.369 204.627 158.506 205.05 158.506 205.59V209H157.526V205.8C157.526 205.073 157.232 204.71 156.646 204.71C156.352 204.71 156.089 204.84 155.856 205.1C155.629 205.36 155.516 205.743 155.516 206.25V209H154.536V205.8C154.536 205.073 154.239 204.71 153.646 204.71C153.359 204.71 153.099 204.84 152.866 205.1C152.632 205.36 152.516 205.743 152.516 206.25V209H151.536V203.93H152.516ZM162.226 208.21C162.6 208.21 162.913 208.053 163.166 207.74C163.42 207.42 163.546 207.01 163.546 206.51C163.546 205.937 163.42 205.497 163.166 205.19C162.913 204.877 162.59 204.72 162.196 204.72C161.85 204.72 161.536 204.86 161.256 205.14C160.983 205.42 160.846 205.85 160.846 206.43C160.846 207.03 160.98 207.477 161.246 207.77C161.513 208.063 161.84 208.21 162.226 208.21ZM160.846 201.93V204.7C161.206 204.14 161.716 203.86 162.376 203.86C163.016 203.86 163.54 204.1 163.946 204.58C164.353 205.06 164.556 205.697 164.556 206.49C164.556 207.203 164.363 207.813 163.976 208.32C163.59 208.82 163.06 209.07 162.386 209.07C161.713 209.07 161.2 208.79 160.846 208.23V209H159.856V201.93H160.846ZM168.327 206.74H167.567C167.193 206.74 166.91 206.813 166.717 206.96C166.53 207.107 166.437 207.293 166.437 207.52C166.437 207.753 166.51 207.937 166.657 208.07C166.803 208.203 167.017 208.27 167.297 208.27C167.617 208.27 167.867 208.183 168.047 208.01C168.233 207.83 168.327 207.597 168.327 207.31V206.74ZM165.777 205.14V204.19C166.17 203.963 166.69 203.85 167.337 203.85C168.663 203.85 169.327 204.493 169.327 205.78V209H168.357V208.4C168.097 208.827 167.64 209.04 166.987 209.04C166.507 209.04 166.12 208.903 165.827 208.63C165.54 208.35 165.397 207.997 165.397 207.57C165.397 207.083 165.58 206.707 165.947 206.44C166.313 206.167 166.827 206.03 167.487 206.03H168.327V205.74C168.327 205.393 168.243 205.133 168.077 204.96C167.91 204.78 167.633 204.69 167.247 204.69C166.707 204.69 166.217 204.84 165.777 205.14ZM172.047 208.89L170.027 203.93H171.117L171.747 205.58L172.537 207.72C172.597 207.52 172.837 206.807 173.257 205.58L173.827 203.93H174.867L173.037 208.86C172.55 210.16 171.807 210.81 170.807 210.81C170.627 210.81 170.474 210.793 170.347 210.76V209.92C170.454 209.947 170.567 209.96 170.687 209.96C171.334 209.96 171.787 209.603 172.047 208.89ZM178.356 206.74H177.596C177.223 206.74 176.939 206.813 176.746 206.96C176.559 207.107 176.466 207.293 176.466 207.52C176.466 207.753 176.539 207.937 176.686 208.07C176.833 208.203 177.046 208.27 177.326 208.27C177.646 208.27 177.896 208.183 178.076 208.01C178.263 207.83 178.356 207.597 178.356 207.31V206.74ZM175.806 205.14V204.19C176.199 203.963 176.719 203.85 177.366 203.85C178.693 203.85 179.356 204.493 179.356 205.78V209H178.386V208.4C178.126 208.827 177.669 209.04 177.016 209.04C176.536 209.04 176.149 208.903 175.856 208.63C175.569 208.35 175.426 207.997 175.426 207.57C175.426 207.083 175.609 206.707 175.976 206.44C176.343 206.167 176.856 206.03 177.516 206.03H178.356V205.74C178.356 205.393 178.273 205.133 178.106 204.96C177.939 204.78 177.663 204.69 177.276 204.69C176.736 204.69 176.246 204.84 175.806 205.14ZM181.656 203.93V204.82C181.903 204.193 182.346 203.88 182.986 203.88C183.08 203.88 183.183 203.89 183.296 203.91V204.87C183.156 204.81 183 204.78 182.826 204.78C182.486 204.78 182.206 204.93 181.986 205.23C181.766 205.53 181.656 205.887 181.656 206.3V209H180.676V203.93H181.656ZM188.916 208.21C189.289 208.21 189.603 208.053 189.856 207.74C190.109 207.42 190.236 207.01 190.236 206.51C190.236 205.937 190.109 205.497 189.856 205.19C189.603 204.877 189.279 204.72 188.886 204.72C188.539 204.72 188.226 204.86 187.946 205.14C187.673 205.42 187.536 205.85 187.536 206.43C187.536 207.03 187.669 207.477 187.936 207.77C188.203 208.063 188.529 208.21 188.916 208.21ZM187.536 201.93V204.7C187.896 204.14 188.406 203.86 189.066 203.86C189.706 203.86 190.229 204.1 190.636 204.58C191.043 205.06 191.246 205.697 191.246 206.49C191.246 207.203 191.053 207.813 190.666 208.32C190.279 208.82 189.749 209.07 189.076 209.07C188.403 209.07 187.889 208.79 187.536 208.23V209H186.546V201.93H187.536ZM192.386 209V203.93H193.376V209H192.386ZM192.436 202.82C192.323 202.7 192.266 202.553 192.266 202.38C192.266 202.207 192.323 202.06 192.436 201.94C192.556 201.82 192.703 201.76 192.876 201.76C193.05 201.76 193.196 201.82 193.316 201.94C193.436 202.06 193.496 202.207 193.496 202.38C193.496 202.547 193.436 202.69 193.316 202.81C193.196 202.93 193.05 202.99 192.876 202.99C192.703 202.99 192.556 202.933 192.436 202.82ZM197.467 206.74H196.707C196.334 206.74 196.051 206.813 195.857 206.96C195.671 207.107 195.577 207.293 195.577 207.52C195.577 207.753 195.651 207.937 195.797 208.07C195.944 208.203 196.157 208.27 196.437 208.27C196.757 208.27 197.007 208.183 197.187 208.01C197.374 207.83 197.467 207.597 197.467 207.31V206.74ZM194.917 205.14V204.19C195.311 203.963 195.831 203.85 196.477 203.85C197.804 203.85 198.467 204.493 198.467 205.78V209H197.497V208.4C197.237 208.827 196.781 209.04 196.127 209.04C195.647 209.04 195.261 208.903 194.967 208.63C194.681 208.35 194.537 207.997 194.537 207.57C194.537 207.083 194.721 206.707 195.087 206.44C195.454 206.167 195.967 206.03 196.627 206.03H197.467V205.74C197.467 205.393 197.384 205.133 197.217 204.96C197.051 204.78 196.774 204.69 196.387 204.69C195.847 204.69 195.357 204.84 194.917 205.14ZM201.188 208.89L199.168 203.93H200.258L200.888 205.58L201.678 207.72C201.738 207.52 201.978 206.807 202.398 205.58L202.968 203.93H204.008L202.178 208.86C201.691 210.16 200.948 210.81 199.948 210.81C199.768 210.81 199.614 210.793 199.488 210.76V209.92C199.594 209.947 199.708 209.96 199.828 209.96C200.474 209.96 200.928 209.603 201.188 208.89ZM207.497 206.74H206.737C206.363 206.74 206.08 206.813 205.887 206.96C205.7 207.107 205.607 207.293 205.607 207.52C205.607 207.753 205.68 207.937 205.827 208.07C205.973 208.203 206.187 208.27 206.467 208.27C206.787 208.27 207.037 208.183 207.217 208.01C207.403 207.83 207.497 207.597 207.497 207.31V206.74ZM204.947 205.14V204.19C205.34 203.963 205.86 203.85 206.507 203.85C207.833 203.85 208.497 204.493 208.497 205.78V209H207.527V208.4C207.267 208.827 206.81 209.04 206.157 209.04C205.677 209.04 205.29 208.903 204.997 208.63C204.71 208.35 204.567 207.997 204.567 207.57C204.567 207.083 204.75 206.707 205.117 206.44C205.483 206.167 205.997 206.03 206.657 206.03H207.497V205.74C207.497 205.393 207.413 205.133 207.247 204.96C207.08 204.78 206.803 204.69 206.417 204.69C205.877 204.69 205.387 204.84 204.947 205.14ZM212.318 209V202.26H213.348V209H212.318ZM214.708 205.66L217.328 209H216.028L213.478 205.67L215.928 202.26H217.178L214.708 205.66ZM221.414 206.1V205.92C221.401 205.54 221.298 205.24 221.104 205.02C220.911 204.793 220.634 204.68 220.274 204.68C219.941 204.68 219.654 204.803 219.414 205.05C219.174 205.29 219.024 205.64 218.964 206.1H221.414ZM222.044 207.85V208.73C221.671 208.943 221.178 209.05 220.564 209.05C219.778 209.05 219.151 208.813 218.684 208.34C218.218 207.867 217.984 207.247 217.984 206.48C217.984 205.667 218.198 205.03 218.624 204.57C219.051 204.103 219.594 203.87 220.254 203.87C220.901 203.87 221.414 204.073 221.794 204.48C222.174 204.88 222.364 205.46 222.364 206.22C222.364 206.427 222.344 206.643 222.304 206.87H218.974C219.041 207.31 219.228 207.647 219.534 207.88C219.841 208.113 220.228 208.23 220.694 208.23C221.234 208.23 221.684 208.103 222.044 207.85ZM223.558 209V201.93H224.548V209H223.558ZM228.639 206.74H227.879C227.506 206.74 227.223 206.813 227.029 206.96C226.843 207.107 226.749 207.293 226.749 207.52C226.749 207.753 226.823 207.937 226.969 208.07C227.116 208.203 227.329 208.27 227.609 208.27C227.929 208.27 228.179 208.183 228.359 208.01C228.546 207.83 228.639 207.597 228.639 207.31V206.74ZM226.089 205.14V204.19C226.483 203.963 227.003 203.85 227.649 203.85C228.976 203.85 229.639 204.493 229.639 205.78V209H228.669V208.4C228.409 208.827 227.953 209.04 227.299 209.04C226.819 209.04 226.433 208.903 226.139 208.63C225.853 208.35 225.709 207.997 225.709 207.57C225.709 207.083 225.893 206.707 226.259 206.44C226.626 206.167 227.139 206.03 227.799 206.03H228.639V205.74C228.639 205.393 228.556 205.133 228.389 204.96C228.223 204.78 227.946 204.69 227.559 204.69C227.019 204.69 226.529 204.84 226.089 205.14ZM231.94 201.93V204.8C232.226 204.173 232.75 203.86 233.51 203.86C234.003 203.86 234.4 204.013 234.7 204.32C235 204.627 235.15 205.053 235.15 205.6V209H234.17V205.8C234.17 205.453 234.08 205.187 233.9 205C233.726 204.807 233.496 204.71 233.21 204.71C232.876 204.71 232.58 204.837 232.32 205.09C232.066 205.343 231.94 205.73 231.94 206.25V209H230.96V201.93H231.94ZM236.507 209V203.93H237.497V209H236.507ZM236.557 202.82C236.444 202.7 236.387 202.553 236.387 202.38C236.387 202.207 236.444 202.06 236.557 201.94C236.677 201.82 236.824 201.76 236.997 201.76C237.171 201.76 237.317 201.82 237.437 201.94C237.557 202.06 237.617 202.207 237.617 202.38C237.617 202.547 237.557 202.69 237.437 202.81C237.317 202.93 237.171 202.99 236.997 202.99C236.824 202.99 236.677 202.933 236.557 202.82ZM239.899 203.93V204.82C240.145 204.193 240.589 203.88 241.229 203.88C241.322 203.88 241.425 203.89 241.539 203.91V204.87C241.399 204.81 241.242 204.78 241.069 204.78C240.729 204.78 240.449 204.93 240.229 205.23C240.009 205.53 239.899 205.887 239.899 206.3V209H238.919V203.93H239.899ZM244.977 206.74H244.217C243.844 206.74 243.561 206.813 243.367 206.96C243.181 207.107 243.087 207.293 243.087 207.52C243.087 207.753 243.161 207.937 243.307 208.07C243.454 208.203 243.667 208.27 243.947 208.27C244.267 208.27 244.517 208.183 244.697 208.01C244.884 207.83 244.977 207.597 244.977 207.31V206.74ZM242.427 205.14V204.19C242.821 203.963 243.341 203.85 243.987 203.85C245.314 203.85 245.977 204.493 245.977 205.78V209H245.007V208.4C244.747 208.827 244.291 209.04 243.637 209.04C243.157 209.04 242.771 208.903 242.477 208.63C242.191 208.35 242.047 207.997 242.047 207.57C242.047 207.083 242.231 206.707 242.597 206.44C242.964 206.167 243.477 206.03 244.137 206.03H244.977V205.74C244.977 205.393 244.894 205.133 244.727 204.96C244.561 204.78 244.284 204.69 243.897 204.69C243.357 204.69 242.867 204.84 242.427 205.14ZM248.277 203.93V204.8C248.577 204.173 249.104 203.86 249.857 203.86C250.357 203.86 250.754 204.013 251.047 204.32C251.341 204.627 251.487 205.043 251.487 205.57V209H250.507V205.8C250.507 205.447 250.417 205.177 250.237 204.99C250.064 204.803 249.831 204.71 249.537 204.71C249.191 204.71 248.894 204.847 248.647 205.12C248.401 205.387 248.277 205.763 248.277 206.25V209H247.297V203.93H248.277ZM93.7632 225V218.26H94.9832L96.6432 221.08C96.9499 221.607 97.2265 222.093 97.4732 222.54C97.7265 222.987 97.8999 223.3 97.9932 223.48L98.1332 223.76C98.0932 223.153 98.0732 222.263 98.0732 221.09V218.26H99.1032V225H97.8832L96.2132 222.19C95.9132 221.683 95.6365 221.207 95.3832 220.76C95.1365 220.307 94.9632 219.98 94.8632 219.78L94.7132 219.49C94.7665 220.157 94.7932 221.053 94.7932 222.18V225H93.7632ZM102.64 225.09C101.893 225.09 101.307 224.847 100.88 224.36C100.453 223.873 100.24 223.257 100.24 222.51C100.24 221.75 100.46 221.12 100.9 220.62C101.34 220.113 101.92 219.86 102.64 219.86C103.413 219.86 104.01 220.107 104.43 220.6C104.85 221.087 105.06 221.71 105.06 222.47C105.06 223.23 104.843 223.857 104.41 224.35C103.983 224.843 103.393 225.09 102.64 225.09ZM102.63 220.69C102.197 220.69 101.86 220.863 101.62 221.21C101.38 221.55 101.26 221.973 101.26 222.48C101.26 222.98 101.383 223.403 101.63 223.75C101.877 224.09 102.213 224.26 102.64 224.26C103.093 224.26 103.437 224.093 103.67 223.76C103.91 223.427 104.03 223.003 104.03 222.49C104.03 221.963 103.917 221.533 103.69 221.2C103.463 220.86 103.11 220.69 102.63 220.69ZM107.145 219.93V220.82C107.391 220.193 107.835 219.88 108.475 219.88C108.568 219.88 108.671 219.89 108.785 219.91V220.87C108.645 220.81 108.488 220.78 108.315 220.78C107.975 220.78 107.695 220.93 107.475 221.23C107.255 221.53 107.145 221.887 107.145 222.3V225H106.165V219.93H107.145ZM110.533 219.93V220.74C110.82 220.153 111.297 219.86 111.963 219.86C112.723 219.86 113.21 220.187 113.423 220.84C113.563 220.527 113.767 220.287 114.033 220.12C114.3 219.947 114.6 219.86 114.933 219.86C115.453 219.86 115.847 220.013 116.113 220.32C116.387 220.627 116.523 221.05 116.523 221.59V225H115.543V221.8C115.543 221.073 115.25 220.71 114.663 220.71C114.37 220.71 114.107 220.84 113.873 221.1C113.647 221.36 113.533 221.743 113.533 222.25V225H112.553V221.8C112.553 221.073 112.257 220.71 111.663 220.71C111.377 220.71 111.117 220.84 110.883 221.1C110.65 221.36 110.533 221.743 110.533 222.25V225H109.553V219.93H110.533ZM120.524 222.74H119.764C119.391 222.74 119.107 222.813 118.914 222.96C118.727 223.107 118.634 223.293 118.634 223.52C118.634 223.753 118.707 223.937 118.854 224.07C119.001 224.203 119.214 224.27 119.494 224.27C119.814 224.27 120.064 224.183 120.244 224.01C120.431 223.83 120.524 223.597 120.524 223.31V222.74ZM117.974 221.14V220.19C118.367 219.963 118.887 219.85 119.534 219.85C120.861 219.85 121.524 220.493 121.524 221.78V225H120.554V224.4C120.294 224.827 119.837 225.04 119.184 225.04C118.704 225.04 118.317 224.903 118.024 224.63C117.737 224.35 117.594 223.997 117.594 223.57C117.594 223.083 117.777 222.707 118.144 222.44C118.511 222.167 119.024 222.03 119.684 222.03H120.524V221.74C120.524 221.393 120.441 221.133 120.274 220.96C120.107 220.78 119.831 220.69 119.444 220.69C118.904 220.69 118.414 220.84 117.974 221.14ZM122.884 225V217.93H123.874V225H122.884ZM129.286 222.49H131.446L131.336 222.15C131.083 221.363 130.876 220.713 130.716 220.2C130.556 219.68 130.46 219.357 130.426 219.23L130.376 219.04C130.303 219.353 129.976 220.39 129.396 222.15L129.286 222.49ZM132.256 225L131.726 223.35H129.006L128.466 225H127.376L129.706 218.26H131.056L133.356 225H132.256ZM135.338 219.93V220.8C135.638 220.173 136.165 219.86 136.918 219.86C137.418 219.86 137.815 220.013 138.108 220.32C138.401 220.627 138.548 221.043 138.548 221.57V225H137.568V221.8C137.568 221.447 137.478 221.177 137.298 220.99C137.125 220.803 136.891 220.71 136.598 220.71C136.251 220.71 135.955 220.847 135.708 221.12C135.461 221.387 135.338 221.763 135.338 222.25V225H134.358V219.93H135.338ZM141.916 224.21C142.302 224.21 142.629 224.063 142.896 223.77C143.162 223.477 143.296 223.03 143.296 222.43C143.296 221.85 143.156 221.42 142.876 221.14C142.602 220.86 142.292 220.72 141.946 220.72C141.552 220.72 141.229 220.877 140.976 221.19C140.722 221.497 140.596 221.937 140.596 222.51C140.596 223.017 140.719 223.427 140.966 223.74C141.219 224.053 141.536 224.21 141.916 224.21ZM143.296 217.93H144.286V225H143.296V224.23C142.942 224.79 142.426 225.07 141.746 225.07C141.079 225.07 140.552 224.82 140.166 224.32C139.779 223.813 139.586 223.203 139.586 222.49C139.586 221.697 139.789 221.06 140.196 220.58C140.602 220.1 141.126 219.86 141.766 219.86C142.426 219.86 142.936 220.14 143.296 220.7V217.93ZM148.337 222.74H147.577C147.203 222.74 146.92 222.813 146.727 222.96C146.54 223.107 146.447 223.293 146.447 223.52C146.447 223.753 146.52 223.937 146.667 224.07C146.813 224.203 147.027 224.27 147.307 224.27C147.627 224.27 147.877 224.183 148.057 224.01C148.243 223.83 148.337 223.597 148.337 223.31V222.74ZM145.787 221.14V220.19C146.18 219.963 146.7 219.85 147.347 219.85C148.673 219.85 149.337 220.493 149.337 221.78V225H148.367V224.4C148.107 224.827 147.65 225.04 146.997 225.04C146.517 225.04 146.13 224.903 145.837 224.63C145.55 224.35 145.407 223.997 145.407 223.57C145.407 223.083 145.59 222.707 145.957 222.44C146.323 222.167 146.837 222.03 147.497 222.03H148.337V221.74C148.337 221.393 148.253 221.133 148.087 220.96C147.92 220.78 147.643 220.69 147.257 220.69C146.717 220.69 146.227 220.84 145.787 221.14ZM156.008 220.1V220.99C155.681 220.797 155.261 220.7 154.748 220.7C154.514 220.7 154.328 220.753 154.188 220.86C154.054 220.967 153.988 221.107 153.988 221.28C153.988 221.327 153.991 221.373 153.998 221.42C154.011 221.46 154.031 221.503 154.058 221.55C154.084 221.59 154.108 221.627 154.128 221.66C154.154 221.687 154.194 221.717 154.248 221.75C154.301 221.783 154.341 221.813 154.368 221.84C154.401 221.86 154.451 221.887 154.518 221.92C154.591 221.953 154.644 221.98 154.678 222C154.711 222.013 154.768 222.04 154.848 222.08C154.934 222.113 154.994 222.137 155.028 222.15C155.421 222.323 155.728 222.52 155.948 222.74C156.174 222.953 156.288 223.24 156.288 223.6C156.288 224.053 156.128 224.41 155.808 224.67C155.488 224.923 155.054 225.05 154.508 225.05C153.908 225.05 153.408 224.95 153.008 224.75V223.82C153.474 224.107 153.958 224.25 154.458 224.25C154.718 224.25 154.918 224.197 155.058 224.09C155.204 223.983 155.278 223.843 155.278 223.67C155.278 223.523 155.221 223.393 155.108 223.28C154.994 223.16 154.878 223.073 154.758 223.02C154.644 222.96 154.448 222.87 154.168 222.75C153.374 222.423 152.978 221.943 152.978 221.31C152.978 220.863 153.144 220.513 153.478 220.26C153.811 220.007 154.228 219.88 154.728 219.88C155.274 219.88 155.701 219.953 156.008 220.1ZM160.457 222.1V221.92C160.444 221.54 160.341 221.24 160.147 221.02C159.954 220.793 159.677 220.68 159.317 220.68C158.984 220.68 158.697 220.803 158.457 221.05C158.217 221.29 158.067 221.64 158.007 222.1H160.457ZM161.087 223.85V224.73C160.714 224.943 160.221 225.05 159.607 225.05C158.821 225.05 158.194 224.813 157.727 224.34C157.261 223.867 157.027 223.247 157.027 222.48C157.027 221.667 157.241 221.03 157.667 220.57C158.094 220.103 158.637 219.87 159.297 219.87C159.944 219.87 160.457 220.073 160.837 220.48C161.217 220.88 161.407 221.46 161.407 222.22C161.407 222.427 161.387 222.643 161.347 222.87H158.017C158.084 223.31 158.271 223.647 158.577 223.88C158.884 224.113 159.271 224.23 159.737 224.23C160.277 224.23 160.727 224.103 161.087 223.85ZM164.951 224.21C165.324 224.21 165.638 224.053 165.891 223.74C166.144 223.42 166.271 223.01 166.271 222.51C166.271 221.937 166.144 221.497 165.891 221.19C165.638 220.877 165.314 220.72 164.921 220.72C164.574 220.72 164.261 220.86 163.981 221.14C163.708 221.42 163.571 221.85 163.571 222.43C163.571 223.03 163.704 223.477 163.971 223.77C164.238 224.063 164.564 224.21 164.951 224.21ZM163.571 217.93V220.7C163.931 220.14 164.441 219.86 165.101 219.86C165.741 219.86 166.264 220.1 166.671 220.58C167.078 221.06 167.281 221.697 167.281 222.49C167.281 223.203 167.088 223.813 166.701 224.32C166.314 224.82 165.784 225.07 165.111 225.07C164.438 225.07 163.924 224.79 163.571 224.23V225H162.581V217.93H163.571ZM171.531 222.1V221.92C171.518 221.54 171.415 221.24 171.221 221.02C171.028 220.793 170.751 220.68 170.391 220.68C170.058 220.68 169.771 220.803 169.531 221.05C169.291 221.29 169.141 221.64 169.081 222.1H171.531ZM172.161 223.85V224.73C171.788 224.943 171.295 225.05 170.681 225.05C169.895 225.05 169.268 224.813 168.801 224.34C168.335 223.867 168.101 223.247 168.101 222.48C168.101 221.667 168.315 221.03 168.741 220.57C169.168 220.103 169.711 219.87 170.371 219.87C171.018 219.87 171.531 220.073 171.911 220.48C172.291 220.88 172.481 221.46 172.481 222.22C172.481 222.427 172.461 222.643 172.421 222.87H169.091C169.158 223.31 169.345 223.647 169.651 223.88C169.958 224.113 170.345 224.23 170.811 224.23C171.351 224.23 171.801 224.103 172.161 223.85ZM176.525 220.1V220.99C176.199 220.797 175.779 220.7 175.265 220.7C175.032 220.7 174.845 220.753 174.705 220.86C174.572 220.967 174.505 221.107 174.505 221.28C174.505 221.327 174.509 221.373 174.515 221.42C174.529 221.46 174.549 221.503 174.575 221.55C174.602 221.59 174.625 221.627 174.645 221.66C174.672 221.687 174.712 221.717 174.765 221.75C174.819 221.783 174.859 221.813 174.885 221.84C174.919 221.86 174.969 221.887 175.035 221.92C175.109 221.953 175.162 221.98 175.195 222C175.229 222.013 175.285 222.04 175.365 222.08C175.452 222.113 175.512 222.137 175.545 222.15C175.939 222.323 176.245 222.52 176.465 222.74C176.692 222.953 176.805 223.24 176.805 223.6C176.805 224.053 176.645 224.41 176.325 224.67C176.005 224.923 175.572 225.05 175.025 225.05C174.425 225.05 173.925 224.95 173.525 224.75V223.82C173.992 224.107 174.475 224.25 174.975 224.25C175.235 224.25 175.435 224.197 175.575 224.09C175.722 223.983 175.795 223.843 175.795 223.67C175.795 223.523 175.739 223.393 175.625 223.28C175.512 223.16 175.395 223.073 175.275 223.02C175.162 222.96 174.965 222.87 174.685 222.75C173.892 222.423 173.495 221.943 173.495 221.31C173.495 220.863 173.662 220.513 173.995 220.26C174.329 220.007 174.745 219.88 175.245 219.88C175.792 219.88 176.219 219.953 176.525 220.1ZM180.495 222.74H179.735C179.361 222.74 179.078 222.813 178.885 222.96C178.698 223.107 178.605 223.293 178.605 223.52C178.605 223.753 178.678 223.937 178.825 224.07C178.971 224.203 179.185 224.27 179.465 224.27C179.785 224.27 180.035 224.183 180.215 224.01C180.401 223.83 180.495 223.597 180.495 223.31V222.74ZM177.945 221.14V220.19C178.338 219.963 178.858 219.85 179.505 219.85C180.831 219.85 181.495 220.493 181.495 221.78V225H180.525V224.4C180.265 224.827 179.808 225.04 179.155 225.04C178.675 225.04 178.288 224.903 177.995 224.63C177.708 224.35 177.565 223.997 177.565 223.57C177.565 223.083 177.748 222.707 178.115 222.44C178.481 222.167 178.995 222.03 179.655 222.03H180.495V221.74C180.495 221.393 180.411 221.133 180.245 220.96C180.078 220.78 179.801 220.69 179.415 220.69C178.875 220.69 178.385 220.84 177.945 221.14ZM183.795 219.93V220.82C184.042 220.193 184.485 219.88 185.125 219.88C185.218 219.88 185.322 219.89 185.435 219.91V220.87C185.295 220.81 185.138 220.78 184.965 220.78C184.625 220.78 184.345 220.93 184.125 221.23C183.905 221.53 183.795 221.887 183.795 222.3V225H182.815V219.93H183.795Z" fill="#2B2B2B"/>
<path d="M189.735 219.12V221.58H190.665C191.091 221.58 191.415 221.47 191.635 221.25C191.855 221.023 191.965 220.723 191.965 220.35C191.965 219.53 191.515 219.12 190.615 219.12H189.735ZM192.205 225L190.625 222.44H189.735V225H188.705V218.26H190.585C191.358 218.26 191.955 218.45 192.375 218.83C192.795 219.203 193.005 219.713 193.005 220.36C192.998 220.833 192.878 221.237 192.645 221.57C192.411 221.897 192.088 222.133 191.675 222.28L193.435 225H192.205ZM196.688 224.21C197.082 224.21 197.405 224.057 197.658 223.75C197.912 223.437 198.038 223 198.038 222.44C198.038 221.913 197.915 221.497 197.668 221.19C197.422 220.877 197.108 220.72 196.728 220.72C196.348 220.72 196.018 220.86 195.738 221.14C195.465 221.413 195.328 221.85 195.328 222.45C195.328 223.037 195.465 223.477 195.738 223.77C196.018 224.063 196.335 224.21 196.688 224.21ZM195.328 219.93V220.71C195.675 220.143 196.195 219.86 196.888 219.86C197.555 219.86 198.082 220.103 198.468 220.59C198.855 221.07 199.048 221.683 199.048 222.43C199.048 223.197 198.848 223.83 198.448 224.33C198.055 224.823 197.528 225.07 196.868 225.07C196.195 225.07 195.682 224.79 195.328 224.23V226.94H194.348V219.93H195.328ZM202.33 221.71C202.33 220.683 202.533 219.87 202.94 219.27C203.353 218.663 203.917 218.36 204.63 218.36C205.357 218.36 205.927 218.66 206.34 219.26C206.753 219.86 206.96 220.677 206.96 221.71C206.96 222.73 206.757 223.547 206.35 224.16C205.95 224.773 205.377 225.08 204.63 225.08C203.917 225.08 203.353 224.773 202.94 224.16C202.533 223.547 202.33 222.73 202.33 221.71ZM203.7 219.91C203.453 220.33 203.33 220.93 203.33 221.71C203.33 222.49 203.45 223.097 203.69 223.53C203.937 223.957 204.25 224.17 204.63 224.17C205.043 224.17 205.367 223.957 205.6 223.53C205.833 223.103 205.95 222.497 205.95 221.71C205.95 220.917 205.827 220.313 205.58 219.9C205.34 219.48 205.023 219.27 204.63 219.27C204.257 219.27 203.947 219.483 203.7 219.91ZM207.289 226.24L208.249 223.9H209.459L208.149 226.24H207.289ZM210.23 221.71C210.23 220.683 210.434 219.87 210.84 219.27C211.254 218.663 211.817 218.36 212.53 218.36C213.257 218.36 213.827 218.66 214.24 219.26C214.654 219.86 214.86 220.677 214.86 221.71C214.86 222.73 214.657 223.547 214.25 224.16C213.85 224.773 213.277 225.08 212.53 225.08C211.817 225.08 211.254 224.773 210.84 224.16C210.434 223.547 210.23 222.73 210.23 221.71ZM211.6 219.91C211.354 220.33 211.23 220.93 211.23 221.71C211.23 222.49 211.35 223.097 211.59 223.53C211.837 223.957 212.15 224.17 212.53 224.17C212.944 224.17 213.267 223.957 213.5 223.53C213.734 223.103 213.85 222.497 213.85 221.71C213.85 220.917 213.727 220.313 213.48 219.9C213.24 219.48 212.924 219.27 212.53 219.27C212.157 219.27 211.847 219.483 211.6 219.91ZM215.68 221.71C215.68 220.683 215.883 219.87 216.29 219.27C216.703 218.663 217.266 218.36 217.98 218.36C218.706 218.36 219.276 218.66 219.69 219.26C220.103 219.86 220.31 220.677 220.31 221.71C220.31 222.73 220.106 223.547 219.7 224.16C219.3 224.773 218.726 225.08 217.98 225.08C217.266 225.08 216.703 224.773 216.29 224.16C215.883 223.547 215.68 222.73 215.68 221.71ZM217.05 219.91C216.803 220.33 216.68 220.93 216.68 221.71C216.68 222.49 216.8 223.097 217.04 223.53C217.286 223.957 217.6 224.17 217.98 224.17C218.393 224.17 218.716 223.957 218.95 223.53C219.183 223.103 219.3 222.497 219.3 221.71C219.3 220.917 219.176 220.313 218.93 219.9C218.69 219.48 218.373 219.27 217.98 219.27C217.606 219.27 217.296 219.483 217.05 219.91ZM221.129 221.71C221.129 220.683 221.332 219.87 221.739 219.27C222.152 218.663 222.715 218.36 223.429 218.36C224.155 218.36 224.725 218.66 225.139 219.26C225.552 219.86 225.759 220.677 225.759 221.71C225.759 222.73 225.555 223.547 225.149 224.16C224.749 224.773 224.175 225.08 223.429 225.08C222.715 225.08 222.152 224.773 221.739 224.16C221.332 223.547 221.129 222.73 221.129 221.71ZM222.499 219.91C222.252 220.33 222.129 220.93 222.129 221.71C222.129 222.49 222.249 223.097 222.489 223.53C222.735 223.957 223.049 224.17 223.429 224.17C223.842 224.17 224.165 223.957 224.399 223.53C224.632 223.103 224.749 222.497 224.749 221.71C224.749 220.917 224.625 220.313 224.379 219.9C224.139 219.48 223.822 219.27 223.429 219.27C223.055 219.27 222.745 219.483 222.499 219.91ZM226.088 226.24L227.048 223.9H228.258L226.948 226.24H226.088ZM229.029 221.71C229.029 220.683 229.232 219.87 229.639 219.27C230.052 218.663 230.616 218.36 231.329 218.36C232.056 218.36 232.626 218.66 233.039 219.26C233.452 219.86 233.659 220.677 233.659 221.71C233.659 222.73 233.456 223.547 233.049 224.16C232.649 224.773 232.076 225.08 231.329 225.08C230.616 225.08 230.052 224.773 229.639 224.16C229.232 223.547 229.029 222.73 229.029 221.71ZM230.399 219.91C230.152 220.33 230.029 220.93 230.029 221.71C230.029 222.49 230.149 223.097 230.389 223.53C230.636 223.957 230.949 224.17 231.329 224.17C231.742 224.17 232.066 223.957 232.299 223.53C232.532 223.103 232.649 222.497 232.649 221.71C232.649 220.917 232.526 220.313 232.279 219.9C232.039 219.48 231.722 219.27 231.329 219.27C230.956 219.27 230.646 219.483 230.399 219.91ZM234.478 221.71C234.478 220.683 234.682 219.87 235.088 219.27C235.502 218.663 236.065 218.36 236.778 218.36C237.505 218.36 238.075 218.66 238.488 219.26C238.902 219.86 239.108 220.677 239.108 221.71C239.108 222.73 238.905 223.547 238.498 224.16C238.098 224.773 237.525 225.08 236.778 225.08C236.065 225.08 235.502 224.773 235.088 224.16C234.682 223.547 234.478 222.73 234.478 221.71ZM235.848 219.91C235.602 220.33 235.478 220.93 235.478 221.71C235.478 222.49 235.598 223.097 235.838 223.53C236.085 223.957 236.398 224.17 236.778 224.17C237.192 224.17 237.515 223.957 237.748 223.53C237.982 223.103 238.098 222.497 238.098 221.71C238.098 220.917 237.975 220.313 237.728 219.9C237.488 219.48 237.172 219.27 236.778 219.27C236.405 219.27 236.095 219.483 235.848 219.91ZM239.928 221.71C239.928 220.683 240.131 219.87 240.538 219.27C240.951 218.663 241.514 218.36 242.228 218.36C242.954 218.36 243.524 218.66 243.938 219.26C244.351 219.86 244.558 220.677 244.558 221.71C244.558 222.73 244.354 223.547 243.948 224.16C243.548 224.773 242.974 225.08 242.228 225.08C241.514 225.08 240.951 224.773 240.538 224.16C240.131 223.547 239.928 222.73 239.928 221.71ZM241.298 219.91C241.051 220.33 240.928 220.93 240.928 221.71C240.928 222.49 241.048 223.097 241.288 223.53C241.534 223.957 241.848 224.17 242.228 224.17C242.641 224.17 242.964 223.957 243.198 223.53C243.431 223.103 243.548 222.497 243.548 221.71C243.548 220.917 243.424 220.313 243.178 219.9C242.938 219.48 242.621 219.27 242.228 219.27C241.854 219.27 241.544 219.483 241.298 219.91Z" fill="#FF1934"/>
<rect x="109" y="254" width="120" height="24" rx="8" fill="#FF1934"/>
<path d="M157.959 267.176L158.823 267.176C159.468 267.176 159.791 266.931 159.791 266.44C159.791 265.939 159.455 265.688 158.783 265.688L157.959 265.688L157.959 267.176ZM157.959 263.432L157.959 264.88L158.567 264.88C158.929 264.88 159.201 264.808 159.383 264.664C159.564 264.52 159.655 264.336 159.655 264.112C159.655 263.904 159.577 263.739 159.423 263.616C159.273 263.493 159.044 263.432 158.735 263.432L157.959 263.432ZM156.951 262.608L158.863 262.608C159.439 262.608 159.887 262.744 160.207 263.016C160.527 263.288 160.687 263.64 160.687 264.072C160.687 264.365 160.607 264.621 160.447 264.84C160.287 265.053 160.081 265.195 159.831 265.264C160.119 265.333 160.356 265.475 160.543 265.688C160.729 265.896 160.823 266.181 160.823 266.544C160.823 266.971 160.673 267.32 160.375 267.592C160.076 267.864 159.663 268 159.135 268L156.951 268L156.951 262.608ZM163.053 265.952L164.573 265.952L164.501 265.712C164.32 265.136 164.17 264.653 164.053 264.264C163.941 263.869 163.872 263.621 163.845 263.52L163.813 263.36C163.765 263.627 163.536 264.413 163.125 265.72L163.053 265.952ZM165.213 268L164.829 266.776L162.789 266.776L162.405 268L161.349 268L163.173 262.608L164.477 262.608L166.301 268L165.213 268ZM171.364 262.608L169.508 266L169.508 268L168.5 268L168.5 266.032L166.66 262.608L167.836 262.608L168.196 263.392C168.404 263.845 168.574 264.227 168.708 264.536C168.841 264.84 168.921 265.029 168.948 265.104L168.996 265.224C169.044 265.027 169.318 264.416 169.82 263.392L170.188 262.608L171.364 262.608ZM173.436 265.952L174.956 265.952L174.884 265.712C174.702 265.136 174.553 264.653 174.436 264.264C174.324 263.869 174.254 263.621 174.228 263.52L174.196 263.36C174.148 263.627 173.918 264.413 173.508 265.72L173.436 265.952ZM175.596 268L175.212 266.776L173.172 266.776L172.788 268L171.732 268L173.556 262.608L174.86 262.608L176.684 268L175.596 268ZM178.466 263.44L178.466 265.2L179.138 265.2C179.448 265.2 179.68 265.123 179.834 264.968C179.989 264.808 180.066 264.587 180.066 264.304C180.066 264.027 179.984 263.813 179.818 263.664C179.658 263.515 179.426 263.44 179.122 263.44L178.466 263.44ZM180.242 268L179.018 266.032L178.466 266.032L178.466 268L177.458 268L177.458 262.608L179.122 262.608C179.736 262.608 180.216 262.763 180.562 263.072C180.914 263.381 181.09 263.795 181.09 264.312C181.085 264.696 180.992 265.021 180.81 265.288C180.629 265.549 180.381 265.744 180.066 265.872L181.45 268L180.242 268Z" fill="white"/>
<path d="M9 341.5H329C333.694 341.5 337.5 345.306 337.5 350C337.5 354.694 333.694 358.5 329 358.5H9C4.30558 358.5 0.5 354.694 0.5 350C0.500002 345.306 4.30558 341.5 9 341.5Z" fill="white"/>
<path d="M9 341.5H329C333.694 341.5 337.5 345.306 337.5 350C337.5 354.694 333.694 358.5 329 358.5H9C4.30558 358.5 0.5 354.694 0.5 350C0.500002 345.306 4.30558 341.5 9 341.5Z" stroke="#CCCCCC"/>
<path d="M7.86805e-07 350C3.52265e-07 345.029 4.02944 341 9 341L39 341C43.9706 341 48 345.029 48 350C48 354.971 43.9706 359 39 359L9 359C4.02944 359 1.22135e-06 354.971 7.86805e-07 350Z" fill="#FF1934"/>
<path d="M15.448 346.688H16.264L16.816 348.6L17.456 350.92C17.5893 350.179 17.7547 349.403 17.952 348.592L18.44 346.608H19.464L18.088 352H16.92L16.432 350.296C16.2987 349.843 16.184 349.443 16.088 349.096C15.9973 348.749 15.936 348.517 15.904 348.4L15.864 348.216C15.7893 348.589 15.6027 349.283 15.304 350.296L14.8 352H13.64L12.2 346.608H13.264L13.768 348.6C13.8533 348.957 13.9387 349.328 14.024 349.712C14.1093 350.096 14.1733 350.389 14.216 350.592L14.28 350.904C14.4507 350.232 14.6587 349.464 14.904 348.6L15.448 346.688ZM22.2561 350.256H21.7601C21.5094 350.256 21.3174 350.309 21.1841 350.416C21.0507 350.517 20.9841 350.648 20.9841 350.808C20.9841 351.149 21.1814 351.32 21.5761 351.32C21.7894 351.32 21.9547 351.259 22.0721 351.136C22.1947 351.008 22.2561 350.843 22.2561 350.64V350.256ZM20.2881 349.04V348.152C20.5921 347.965 21.0294 347.872 21.6001 347.872C22.6987 347.872 23.2481 348.384 23.2481 349.408V352H22.2961V351.512C22.1094 351.859 21.7574 352.032 21.2401 352.032C20.8561 352.032 20.5494 351.92 20.3201 351.696C20.0961 351.472 19.9841 351.189 19.9841 350.848C19.9841 350.464 20.1281 350.163 20.4161 349.944C20.7041 349.725 21.1201 349.616 21.6641 349.616H22.2561V349.368C22.2561 349.144 22.1974 348.973 22.0801 348.856C21.9627 348.739 21.7627 348.68 21.4801 348.68C21.0481 348.68 20.6507 348.8 20.2881 349.04ZM27.7828 352H26.6548L25.1988 349.904V352H24.2388V346.44H25.1988V349.848L26.6308 347.944H27.7508L26.2628 349.88L27.7828 352ZM29.5864 348.664V350.728C29.5864 350.899 29.6318 351.029 29.7224 351.12C29.8131 351.205 29.9384 351.248 30.0984 351.248C30.3011 351.248 30.4878 351.192 30.6584 351.08V351.904C30.4718 351.995 30.2318 352.04 29.9384 352.04C29.0638 352.04 28.6264 351.597 28.6264 350.712V348.664H28.0184V347.944H28.6264V346.968H29.5864V347.944H30.5944V348.664H29.5864ZM33.9617 347.944H34.9297V352H33.9617V351.336C33.7484 351.805 33.3324 352.04 32.7137 352.04C32.303 352.04 31.983 351.923 31.7537 351.688C31.5244 351.453 31.4097 351.12 31.4097 350.688V347.944H32.3697V350.464C32.3697 350.72 32.431 350.915 32.5537 351.048C32.6817 351.181 32.855 351.248 33.0737 351.248C33.351 351.248 33.567 351.155 33.7217 350.968C33.8817 350.781 33.9617 350.499 33.9617 350.12V347.944Z" fill="white"/>
<rect x="56" y="348" width="274" height="4" rx="2" fill="#CCCCCC"/>
<mask id="mask0_1124_4113" style="mask-type:alpha" maskUnits="userSpaceOnUse" x="56" y="348" width="274" height="4">
<rect x="56" y="348" width="274" height="4" rx="2" fill="#CCCCCC"/>
</mask>
<g mask="url(#mask0_1124_4113)">
<rect x="56" y="348" width="274" height="4" rx="2" fill="#FF1934"/>
</g>
<defs>
<filter id="filter0_d_1124_4113" x="22.5" y="14" width="293" height="56" filterUnits="userSpaceOnUse" color-interpolation-filters="sRGB">
<feFlood flood-opacity="0" result="BackgroundImageFix"/>
<feColorMatrix in="SourceAlpha" type="matrix" values="0 0 0 0 0 0 0 0 0 0 0 0 0 0 0 0 0 0 127 0" result="hardAlpha"/>
<feOffset dy="2"/>
<feGaussianBlur stdDeviation="2"/>
<feComposite in2="hardAlpha" operator="out"/>
<feColorMatrix type="matrix" values="0 0 0 0 0.168627 0 0 0 0 0.168627 0 0 0 0 0.168627 0 0 0 0.24 0"/>
<feBlend mode="normal" in2="BackgroundImageFix" result="effect1_dropShadow_1124_4113"/>
<feBlend mode="normal" in="SourceGraphic" in2="effect1_dropShadow_1124_4113" result="shape"/>
</filter>
<clipPath id="clip0_1124_4113">
<rect width="24" height="24" fill="white" transform="translate(42.5 32)"/>
</clipPath>
<clipPath id="clip1_1124_4113">
<rect width="64" height="64" fill="white" transform="translate(137 88)"/>
</clipPath>
</defs>
</svg>
