<svg width="338" height="375" viewBox="0 0 338 375" fill="none" xmlns="http://www.w3.org/2000/svg">
<rect width="338" height="375" fill="#D3D3D3"/>
<rect x="26.5" y="16" width="285" height="278" rx="16" fill="white"/>
<g filter="url(#filter0_d_1124_4113)">
<path d="M26.5 32C26.5 23.1634 33.6634 16 42.5 16H295.5C304.337 16 311.5 23.1634 311.5 32V64H26.5V32Z" fill="#FF1934" shape-rendering="crispEdges"/>
<g clip-path="url(#clip0_1124_4113)">
<path d="M54.5 34C48.99 34 44.5 38.49 44.5 44C44.5 46.27 45.24 48.41 46.64 50.18C46.91 50.53 47.42 50.59 47.76 50.31C48.11 50.04 48.17 49.53 47.89 49.19C46.71 47.7 46.09 45.9 46.09 44C46.1 39.37 49.87 35.6 54.5 35.6C59.13 35.6 62.9 39.37 62.9 44C62.9 48.63 59.13 52.4 54.5 52.4C52.82 52.4 51.19 51.9 49.8 50.97C49.43 50.72 48.94 50.82 48.69 51.18C48.44 51.54 48.54 52.04 48.9 52.29C50.56 53.41 52.49 54 54.49 54C60 54 64.49 49.51 64.49 44C64.49 38.49 60.01 34 54.5 34Z" fill="white"/>
<path d="M58.2402 38.14C57.8702 37.9 57.3702 38.01 57.1302 38.38L53.8202 43.57C53.7402 43.7 53.7002 43.85 53.7002 44V48C53.7002 48.44 54.0602 48.8 54.5002 48.8C54.9402 48.8 55.3002 48.44 55.3002 48V44.23L58.4902 39.24C58.7302 38.87 58.6202 38.37 58.2502 38.13L58.2402 38.14Z" fill="white"/>
</g>
<path d="M77.566 46.11H81.052V48H75.41V38.564H77.566V46.11ZM82.2459 48V40.902H84.2899V48H82.2459ZM82.4279 39.684C82.1946 39.4507 82.0779 39.1707 82.0779 38.844C82.0779 38.5173 82.1946 38.2373 82.4279 38.004C82.6613 37.7707 82.9413 37.654 83.2679 37.654C83.5946 37.654 83.8746 37.7707 84.1079 38.004C84.3413 38.2373 84.4579 38.5173 84.4579 38.844C84.4579 39.1707 84.3413 39.4507 84.1079 39.684C83.8746 39.9173 83.5946 40.034 83.2679 40.034C82.9413 40.034 82.6613 39.9173 82.4279 39.684ZM88.0891 40.902V42.106C88.2664 41.714 88.5371 41.406 88.9011 41.182C89.2744 40.9487 89.7177 40.832 90.2311 40.832C90.9591 40.832 91.5284 41.0513 91.9391 41.49C92.3497 41.9193 92.5551 42.554 92.5551 43.394V48H90.5111V43.772C90.5111 43.352 90.4131 43.0347 90.2171 42.82C90.0211 42.596 89.7457 42.484 89.3911 42.484C89.0177 42.484 88.7051 42.6333 88.4531 42.932C88.2104 43.2213 88.0891 43.66 88.0891 44.248V48H86.0451V40.902H88.0891ZM94.2362 48V40.902H96.2802V48H94.2362ZM94.4182 39.684C94.1848 39.4507 94.0682 39.1707 94.0682 38.844C94.0682 38.5173 94.1848 38.2373 94.4182 38.004C94.6515 37.7707 94.9315 37.654 95.2582 37.654C95.5848 37.654 95.8648 37.7707 96.0982 38.004C96.3315 38.2373 96.4482 38.5173 96.4482 38.844C96.4482 39.1707 96.3315 39.4507 96.0982 39.684C95.8648 39.9173 95.5848 40.034 95.2582 40.034C94.9315 40.034 94.6515 39.9173 94.4182 39.684ZM101.395 48L102.207 38.564H104.573L105.889 41.98C106.113 42.5493 106.305 43.072 106.463 43.548C106.622 44.024 106.725 44.36 106.771 44.556L106.841 44.836C106.991 44.22 107.317 43.268 107.821 41.98L109.151 38.564H111.517L112.497 48H110.341L109.991 44.346L109.809 41.588C109.567 42.288 109.231 43.2073 108.801 44.346L107.471 47.902H106.197L104.881 44.346C104.667 43.7673 104.485 43.2493 104.335 42.792C104.186 42.3347 104.088 42.0173 104.041 41.84L103.971 41.588C103.971 42.2507 103.929 43.17 103.845 44.346L103.551 48H101.395ZM117.545 45.088H116.887C116.542 45.088 116.276 45.1627 116.089 45.312C115.903 45.4613 115.809 45.6527 115.809 45.886C115.809 46.362 116.085 46.6 116.635 46.6C116.925 46.6 117.149 46.5113 117.307 46.334C117.466 46.1567 117.545 45.914 117.545 45.606V45.088ZM114.227 43.086V41.252C114.787 40.9347 115.595 40.776 116.649 40.776C117.657 40.776 118.409 40.9953 118.903 41.434C119.398 41.8633 119.645 42.5353 119.645 43.45V48H117.643V47.132C117.345 47.7387 116.757 48.042 115.879 48.042C115.189 48.042 114.647 47.846 114.255 47.454C113.873 47.062 113.681 46.572 113.681 45.984C113.681 45.3027 113.929 44.7753 114.423 44.402C114.927 44.0193 115.669 43.828 116.649 43.828H117.545V43.338C117.545 42.7407 117.149 42.442 116.355 42.442C115.59 42.442 114.881 42.6567 114.227 43.086ZM125.73 41.112V42.862C125.235 42.5727 124.657 42.428 123.994 42.428C123.751 42.428 123.565 42.4793 123.434 42.582C123.303 42.6753 123.238 42.7967 123.238 42.946C123.238 43.03 123.261 43.1093 123.308 43.184C123.355 43.2587 123.429 43.3287 123.532 43.394C123.644 43.4593 123.747 43.52 123.84 43.576C123.943 43.6227 124.078 43.6833 124.246 43.758C124.423 43.8327 124.563 43.898 124.666 43.954C125.095 44.178 125.441 44.4393 125.702 44.738C125.963 45.0273 126.094 45.4007 126.094 45.858C126.094 46.558 125.842 47.0993 125.338 47.482C124.834 47.8647 124.167 48.056 123.336 48.056C122.477 48.056 121.759 47.9113 121.18 47.622V45.802C121.824 46.25 122.505 46.474 123.224 46.474C123.737 46.474 123.994 46.3107 123.994 45.984C123.994 45.9 123.971 45.8207 123.924 45.746C123.877 45.6713 123.798 45.6013 123.686 45.536C123.574 45.4707 123.471 45.4193 123.378 45.382C123.285 45.3353 123.149 45.2747 122.972 45.2C122.795 45.1253 122.659 45.0647 122.566 45.018C121.623 44.57 121.152 43.898 121.152 43.002C121.152 42.3113 121.413 41.7747 121.936 41.392C122.468 41.0093 123.126 40.818 123.91 40.818C124.638 40.818 125.245 40.916 125.73 41.112ZM130.862 45.088H130.204C129.858 45.088 129.592 45.1627 129.406 45.312C129.219 45.4613 129.126 45.6527 129.126 45.886C129.126 46.362 129.401 46.6 129.952 46.6C130.241 46.6 130.465 46.5113 130.624 46.334C130.782 46.1567 130.862 45.914 130.862 45.606V45.088ZM127.544 43.086V41.252C128.104 40.9347 128.911 40.776 129.966 40.776C130.974 40.776 131.725 40.9953 132.22 41.434C132.714 41.8633 132.962 42.5353 132.962 43.45V48H130.96V47.132C130.661 47.7387 130.073 48.042 129.196 48.042C128.505 48.042 127.964 47.846 127.572 47.454C127.189 47.062 126.998 46.572 126.998 45.984C126.998 45.3027 127.245 44.7753 127.74 44.402C128.244 44.0193 128.986 43.828 129.966 43.828H130.862V43.338C130.862 42.7407 130.465 42.442 129.672 42.442C128.906 42.442 128.197 42.6567 127.544 43.086Z" fill="white"/>
</g>
<path d="M88.0399 93.704H89.6359L90.5599 97.036C90.7559 97.736 90.9285 98.3893 91.0779 98.996C91.2365 99.5933 91.3439 100.018 91.3999 100.27L91.4839 100.648C91.6052 99.8173 91.8665 98.6087 92.2679 97.022L93.1359 93.564H95.3339L92.8139 103H90.4059L89.5799 100.018C89.3839 99.2993 89.2205 98.6927 89.0899 98.198C88.9685 97.7033 88.8939 97.386 88.8659 97.246L88.8379 97.036C88.8099 97.4187 88.5579 98.4127 88.0819 100.018L87.2139 103H84.8059L82.2719 93.564H84.5399L85.4079 97.036C85.5945 97.7827 85.7485 98.4593 85.8699 99.066C85.9912 99.6633 86.0659 100.079 86.0939 100.312L86.1499 100.648C86.3085 99.92 86.6259 98.716 87.1019 97.036L88.0399 93.704ZM99.9497 100.088H99.2917C98.9464 100.088 98.6804 100.163 98.4937 100.312C98.307 100.461 98.2137 100.653 98.2137 100.886C98.2137 101.362 98.489 101.6 99.0397 101.6C99.329 101.6 99.553 101.511 99.7117 101.334C99.8704 101.157 99.9497 100.914 99.9497 100.606V100.088ZM96.6317 98.086V96.252C97.1917 95.9347 97.999 95.776 99.0537 95.776C100.062 95.776 100.813 95.9953 101.308 96.434C101.802 96.8633 102.05 97.5353 102.05 98.45V103H100.048V102.132C99.749 102.739 99.161 103.042 98.2837 103.042C97.593 103.042 97.0517 102.846 96.6597 102.454C96.277 102.062 96.0857 101.572 96.0857 100.984C96.0857 100.303 96.333 99.7753 96.8277 99.402C97.3317 99.0193 98.0737 98.828 99.0537 98.828H99.9497V98.338C99.9497 97.7407 99.553 97.442 98.7597 97.442C97.9944 97.442 97.285 97.6567 96.6317 98.086ZM108.134 96.112V97.862C107.64 97.5727 107.061 97.428 106.398 97.428C106.156 97.428 105.969 97.4793 105.838 97.582C105.708 97.6753 105.642 97.7967 105.642 97.946C105.642 98.03 105.666 98.1093 105.712 98.184C105.759 98.2587 105.834 98.3287 105.936 98.394C106.048 98.4593 106.151 98.52 106.244 98.576C106.347 98.6227 106.482 98.6833 106.65 98.758C106.828 98.8327 106.968 98.898 107.07 98.954C107.5 99.178 107.845 99.4393 108.106 99.738C108.368 100.027 108.498 100.401 108.498 100.858C108.498 101.558 108.246 102.099 107.742 102.482C107.238 102.865 106.571 103.056 105.74 103.056C104.882 103.056 104.163 102.911 103.584 102.622V100.802C104.228 101.25 104.91 101.474 105.628 101.474C106.142 101.474 106.398 101.311 106.398 100.984C106.398 100.9 106.375 100.821 106.328 100.746C106.282 100.671 106.202 100.601 106.09 100.536C105.978 100.471 105.876 100.419 105.782 100.382C105.689 100.335 105.554 100.275 105.376 100.2C105.199 100.125 105.064 100.065 104.97 100.018C104.028 99.57 103.556 98.898 103.556 98.002C103.556 97.3113 103.818 96.7747 104.34 96.392C104.872 96.0093 105.53 95.818 106.314 95.818C107.042 95.818 107.649 95.916 108.134 96.112ZM113.392 101.376C113.84 101.376 114.204 101.208 114.484 100.872C114.764 100.527 114.904 100.06 114.904 99.472C114.904 98.828 114.759 98.3427 114.47 98.016C114.19 97.68 113.831 97.512 113.392 97.512C112.963 97.512 112.589 97.6753 112.272 98.002C111.955 98.3287 111.796 98.786 111.796 99.374C111.796 99.9807 111.945 100.466 112.244 100.83C112.543 101.194 112.925 101.376 113.392 101.376ZM111.796 95.902V96.994C112.291 96.21 113.005 95.818 113.938 95.818C114.853 95.818 115.585 96.1447 116.136 96.798C116.696 97.442 116.976 98.3193 116.976 99.43C116.976 100.485 116.705 101.357 116.164 102.048C115.632 102.739 114.89 103.084 113.938 103.084C112.977 103.084 112.263 102.706 111.796 101.95V105.618H109.752V95.902H111.796ZM121.825 100.088H121.167C120.821 100.088 120.555 100.163 120.369 100.312C120.182 100.461 120.089 100.653 120.089 100.886C120.089 101.362 120.364 101.6 120.915 101.6C121.204 101.6 121.428 101.511 121.587 101.334C121.745 101.157 121.825 100.914 121.825 100.606V100.088ZM118.507 98.086V96.252C119.067 95.9347 119.874 95.776 120.929 95.776C121.937 95.776 122.688 95.9953 123.183 96.434C123.677 96.8633 123.925 97.5353 123.925 98.45V103H121.923V102.132C121.624 102.739 121.036 103.042 120.159 103.042C119.468 103.042 118.927 102.846 118.535 102.454C118.152 102.062 117.961 101.572 117.961 100.984C117.961 100.303 118.208 99.7753 118.703 99.402C119.207 99.0193 119.949 98.828 120.929 98.828H121.825V98.338C121.825 97.7407 121.428 97.442 120.635 97.442C119.869 97.442 119.16 97.6567 118.507 98.086ZM128.791 101.376C129.258 101.376 129.636 101.194 129.925 100.83C130.215 100.466 130.359 99.9807 130.359 99.374C130.359 98.786 130.201 98.3287 129.883 98.002C129.575 97.6753 129.207 97.512 128.777 97.512C128.348 97.512 127.984 97.6847 127.685 98.03C127.396 98.3753 127.251 98.856 127.251 99.472C127.251 100.041 127.401 100.503 127.699 100.858C127.998 101.203 128.362 101.376 128.791 101.376ZM130.359 93.102H132.403V103H130.359V101.894C129.883 102.687 129.174 103.084 128.231 103.084C127.307 103.084 126.565 102.725 126.005 102.006C125.455 101.287 125.179 100.429 125.179 99.43C125.179 98.31 125.469 97.428 126.047 96.784C126.626 96.14 127.359 95.818 128.245 95.818C129.169 95.818 129.874 96.21 130.359 96.994V93.102ZM137.602 100.088H136.944C136.599 100.088 136.333 100.163 136.146 100.312C135.959 100.461 135.866 100.653 135.866 100.886C135.866 101.362 136.141 101.6 136.692 101.6C136.981 101.6 137.205 101.511 137.364 101.334C137.523 101.157 137.602 100.914 137.602 100.606V100.088ZM134.284 98.086V96.252C134.844 95.9347 135.651 95.776 136.706 95.776C137.714 95.776 138.465 95.9953 138.96 96.434C139.455 96.8633 139.702 97.5353 139.702 98.45V103H137.7V102.132C137.401 102.739 136.813 103.042 135.936 103.042C135.245 103.042 134.704 102.846 134.312 102.454C133.929 102.062 133.738 101.572 133.738 100.984C133.738 100.303 133.985 99.7753 134.48 99.402C134.984 99.0193 135.726 98.828 136.706 98.828H137.602V98.338C137.602 97.7407 137.205 97.442 136.412 97.442C135.647 97.442 134.937 97.6567 134.284 98.086ZM144.667 103L145.479 93.564H147.845L149.161 96.98C149.385 97.5493 149.576 98.072 149.735 98.548C149.893 99.024 149.996 99.36 150.043 99.556L150.113 99.836C150.262 99.22 150.589 98.268 151.093 96.98L152.423 93.564H154.789L155.769 103H153.613L153.263 99.346L153.081 96.588C152.838 97.288 152.502 98.2073 152.073 99.346L150.743 102.902H149.469L148.153 99.346C147.938 98.7673 147.756 98.2493 147.607 97.792C147.457 97.3347 147.359 97.0173 147.313 96.84L147.243 96.588C147.243 97.2507 147.201 98.17 147.117 99.346L146.823 103H144.667ZM161.699 95.902H163.743V103H161.699V101.866C161.326 102.659 160.607 103.056 159.543 103.056C158.815 103.056 158.246 102.855 157.835 102.454C157.434 102.043 157.233 101.441 157.233 100.648V95.902H159.277V100.186C159.277 101.017 159.641 101.432 160.369 101.432C161.256 101.432 161.699 100.839 161.699 99.654V95.902ZM169.904 96.112V97.862C169.409 97.5727 168.831 97.428 168.168 97.428C167.925 97.428 167.739 97.4793 167.608 97.582C167.477 97.6753 167.412 97.7967 167.412 97.946C167.412 98.03 167.435 98.1093 167.482 98.184C167.529 98.2587 167.603 98.3287 167.706 98.394C167.818 98.4593 167.921 98.52 168.014 98.576C168.117 98.6227 168.252 98.6833 168.42 98.758C168.597 98.8327 168.737 98.898 168.84 98.954C169.269 99.178 169.615 99.4393 169.876 99.738C170.137 100.027 170.268 100.401 170.268 100.858C170.268 101.558 170.016 102.099 169.512 102.482C169.008 102.865 168.341 103.056 167.51 103.056C166.651 103.056 165.933 102.911 165.354 102.622V100.802C165.998 101.25 166.679 101.474 167.398 101.474C167.911 101.474 168.168 101.311 168.168 100.984C168.168 100.9 168.145 100.821 168.098 100.746C168.051 100.671 167.972 100.601 167.86 100.536C167.748 100.471 167.645 100.419 167.552 100.382C167.459 100.335 167.323 100.275 167.146 100.2C166.969 100.125 166.833 100.065 166.74 100.018C165.797 99.57 165.326 98.898 165.326 98.002C165.326 97.3113 165.587 96.7747 166.11 96.392C166.642 96.0093 167.3 95.818 168.084 95.818C168.812 95.818 169.419 95.916 169.904 96.112ZM171.592 103V95.902H173.636V103H171.592ZM171.774 94.684C171.54 94.4507 171.424 94.1707 171.424 93.844C171.424 93.5173 171.54 93.2373 171.774 93.004C172.007 92.7707 172.287 92.654 172.614 92.654C172.94 92.654 173.22 92.7707 173.454 93.004C173.687 93.2373 173.804 93.5173 173.804 93.844C173.804 94.1707 173.687 94.4507 173.454 94.684C173.22 94.9173 172.94 95.034 172.614 95.034C172.287 95.034 172.007 94.9173 171.774 94.684ZM177.435 95.902V97.008C177.827 96.224 178.494 95.832 179.437 95.832C180.435 95.832 181.098 96.28 181.425 97.176C181.583 96.756 181.849 96.4293 182.223 96.196C182.596 95.9533 183.035 95.832 183.539 95.832C184.239 95.832 184.789 96.056 185.191 96.504C185.601 96.9427 185.807 97.5913 185.807 98.45V103H183.763V98.786C183.763 98.3847 183.683 98.0673 183.525 97.834C183.366 97.6007 183.137 97.484 182.839 97.484C182.521 97.484 182.237 97.6147 181.985 97.876C181.742 98.128 181.621 98.5853 181.621 99.248V103H179.577V98.786C179.577 98.3847 179.497 98.0673 179.339 97.834C179.18 97.6007 178.951 97.484 178.653 97.484C178.335 97.484 178.051 97.6147 177.799 97.876C177.556 98.128 177.435 98.5853 177.435 99.248V103H175.391V95.902H177.435ZM193.148 98.24H193.862C195.001 98.24 195.57 97.722 195.57 96.686C195.57 95.7527 195.043 95.286 193.988 95.286H193.148V98.24ZM190.992 93.564H194.24C195.285 93.564 196.13 93.858 196.774 94.446C197.427 95.034 197.754 95.7807 197.754 96.686C197.754 97.722 197.413 98.5247 196.732 99.094C196.06 99.6633 195.229 99.948 194.24 99.948H193.148V103H190.992V93.564ZM202.325 100.088H201.667C201.321 100.088 201.055 100.163 200.869 100.312C200.682 100.461 200.589 100.653 200.589 100.886C200.589 101.362 200.864 101.6 201.415 101.6C201.704 101.6 201.928 101.511 202.087 101.334C202.245 101.157 202.325 100.914 202.325 100.606V100.088ZM199.007 98.086V96.252C199.567 95.9347 200.374 95.776 201.429 95.776C202.437 95.776 203.188 95.9953 203.683 96.434C204.177 96.8633 204.425 97.5353 204.425 98.45V103H202.423V102.132C202.124 102.739 201.536 103.042 200.659 103.042C199.968 103.042 199.427 102.846 199.035 102.454C198.652 102.062 198.461 101.572 198.461 100.984C198.461 100.303 198.708 99.7753 199.203 99.402C199.707 99.0193 200.449 98.828 201.429 98.828H202.325V98.338C202.325 97.7407 201.928 97.442 201.135 97.442C200.369 97.442 199.66 97.6567 199.007 98.086ZM208.073 95.902V97.106C208.251 96.714 208.521 96.406 208.885 96.182C209.259 95.9487 209.702 95.832 210.215 95.832C210.943 95.832 211.513 96.0513 211.923 96.49C212.334 96.9193 212.539 97.554 212.539 98.394V103H210.495V98.772C210.495 98.352 210.397 98.0347 210.201 97.82C210.005 97.596 209.73 97.484 209.375 97.484C209.002 97.484 208.689 97.6333 208.437 97.932C208.195 98.2213 208.073 98.66 208.073 99.248V103H206.029V95.902H208.073ZM215.873 99.472C215.91 100.097 216.097 100.583 216.433 100.928C216.769 101.273 217.212 101.446 217.763 101.446C218.351 101.446 218.915 101.283 219.457 100.956V102.664C218.906 102.963 218.243 103.112 217.469 103.112C216.405 103.112 215.527 102.776 214.837 102.104C214.146 101.423 213.801 100.545 213.801 99.472C213.819 98.408 214.165 97.5307 214.837 96.84C215.509 96.14 216.428 95.79 217.595 95.79C218.313 95.79 218.934 95.9253 219.457 96.196V97.946C218.962 97.638 218.411 97.484 217.805 97.484C217.235 97.484 216.773 97.6567 216.419 98.002C216.064 98.338 215.882 98.828 215.873 99.472ZM224.227 100.088H223.569C223.224 100.088 222.958 100.163 222.771 100.312C222.584 100.461 222.491 100.653 222.491 100.886C222.491 101.362 222.766 101.6 223.317 101.6C223.606 101.6 223.83 101.511 223.989 101.334C224.148 101.157 224.227 100.914 224.227 100.606V100.088ZM220.909 98.086V96.252C221.469 95.9347 222.276 95.776 223.331 95.776C224.339 95.776 225.09 95.9953 225.585 96.434C226.08 96.8633 226.327 97.5353 226.327 98.45V103H224.325V102.132C224.026 102.739 223.438 103.042 222.561 103.042C221.87 103.042 221.329 102.846 220.937 102.454C220.554 102.062 220.363 101.572 220.363 100.984C220.363 100.303 220.61 99.7753 221.105 99.402C221.609 99.0193 222.351 98.828 223.331 98.828H224.227V98.338C224.227 97.7407 223.83 97.442 223.037 97.442C222.272 97.442 221.562 97.6567 220.909 98.086ZM229.962 95.902V97.218C230.092 96.8073 230.307 96.4807 230.606 96.238C230.914 95.986 231.268 95.86 231.67 95.86C231.894 95.86 232.071 95.8787 232.202 95.916V97.848C231.978 97.7453 231.721 97.694 231.432 97.694C230.993 97.694 230.638 97.8573 230.368 98.184C230.097 98.5013 229.962 98.926 229.962 99.458V103H227.918L227.932 95.902H229.962ZM236.249 103.112C235.139 103.112 234.28 102.781 233.673 102.118C233.067 101.446 232.763 100.587 232.763 99.542C232.763 98.45 233.081 97.554 233.715 96.854C234.35 96.1447 235.195 95.79 236.249 95.79C237.351 95.79 238.205 96.1307 238.811 96.812C239.418 97.4933 239.721 98.3613 239.721 99.416C239.721 100.489 239.413 101.376 238.797 102.076C238.191 102.767 237.341 103.112 236.249 103.112ZM236.235 97.4C235.787 97.4 235.451 97.5913 235.227 97.974C235.003 98.3567 234.891 98.8513 234.891 99.458C234.891 100.065 235.003 100.564 235.227 100.956C235.461 101.339 235.806 101.53 236.263 101.53C236.711 101.53 237.043 101.343 237.257 100.97C237.481 100.587 237.593 100.093 237.593 99.486C237.593 98.0953 237.141 97.4 236.235 97.4ZM244.669 101.376C245.098 101.376 245.462 101.203 245.761 100.858C246.059 100.503 246.209 100.041 246.209 99.472C246.209 98.856 246.059 98.3753 245.761 98.03C245.471 97.6847 245.112 97.512 244.683 97.512C244.253 97.512 243.88 97.6753 243.563 98.002C243.255 98.3287 243.101 98.786 243.101 99.374C243.101 99.9807 243.245 100.466 243.535 100.83C243.824 101.194 244.202 101.376 244.669 101.376ZM243.101 93.102V96.994C243.586 96.21 244.291 95.818 245.215 95.818C246.101 95.818 246.834 96.14 247.413 96.784C247.991 97.428 248.281 98.31 248.281 99.43C248.281 100.429 248.001 101.287 247.441 102.006C246.89 102.725 246.153 103.084 245.229 103.084C244.286 103.084 243.577 102.687 243.101 101.894V103H241.057V93.102H243.101ZM253.129 100.088H252.471C252.126 100.088 251.86 100.163 251.673 100.312C251.487 100.461 251.393 100.653 251.393 100.886C251.393 101.362 251.669 101.6 252.219 101.6C252.509 101.6 252.733 101.511 252.891 101.334C253.05 101.157 253.129 100.914 253.129 100.606V100.088ZM249.811 98.086V96.252C250.371 95.9347 251.179 95.776 252.233 95.776C253.241 95.776 253.993 95.9953 254.487 96.434C254.982 96.8633 255.229 97.5353 255.229 98.45V103H253.227V102.132C252.929 102.739 252.341 103.042 251.463 103.042C250.773 103.042 250.231 102.846 249.839 102.454C249.457 102.062 249.265 101.572 249.265 100.984C249.265 100.303 249.513 99.7753 250.007 99.402C250.511 99.0193 251.253 98.828 252.233 98.828H253.129V98.338C253.129 97.7407 252.733 97.442 251.939 97.442C251.174 97.442 250.465 97.6567 249.811 98.086Z" fill="#2B2B2B"/>
<path d="M44.26 125.76H45.14C45.6267 125.76 45.9967 125.64 46.25 125.4C46.51 125.16 46.64 124.843 46.64 124.45C46.64 124.037 46.51 123.71 46.25 123.47C45.99 123.23 45.6133 123.11 45.12 123.11H44.26V125.76ZM43.23 122.26H45.16C45.9333 122.26 46.5467 122.467 47 122.88C47.4533 123.287 47.68 123.81 47.68 124.45C47.68 125.09 47.45 125.61 46.99 126.01C46.5367 126.41 45.9467 126.61 45.22 126.61H44.26V129H43.23V122.26ZM51.838 123.93H52.818V129H51.838V128.13C51.5714 128.75 51.0447 129.06 50.258 129.06C49.758 129.06 49.3614 128.913 49.068 128.62C48.7747 128.32 48.628 127.91 48.628 127.39V123.93H49.618V127.15C49.618 127.497 49.7014 127.763 49.868 127.95C50.0414 128.13 50.278 128.22 50.578 128.22C50.958 128.22 51.2614 128.087 51.488 127.82C51.7214 127.553 51.838 127.177 51.838 126.69V123.93ZM55.4659 124.69V127.48C55.4659 127.967 55.6992 128.21 56.1659 128.21C56.4392 128.21 56.6692 128.137 56.8559 127.99V128.87C56.6359 128.99 56.3659 129.05 56.0459 129.05C54.9992 129.05 54.4759 128.52 54.4759 127.46V124.69H53.6859V123.93H54.4759V122.69H55.4659V123.93H56.7959V124.69H55.4659ZM60.6061 126.74H59.8461C59.4728 126.74 59.1894 126.813 58.9961 126.96C58.8094 127.107 58.7161 127.293 58.7161 127.52C58.7161 127.753 58.7894 127.937 58.9361 128.07C59.0828 128.203 59.2961 128.27 59.5761 128.27C59.8961 128.27 60.1461 128.183 60.3261 128.01C60.5128 127.83 60.6061 127.597 60.6061 127.31V126.74ZM58.0561 125.14V124.19C58.4494 123.963 58.9694 123.85 59.6161 123.85C60.9428 123.85 61.6061 124.493 61.6061 125.78V129H60.6361V128.4C60.3761 128.827 59.9194 129.04 59.2661 129.04C58.7861 129.04 58.3994 128.903 58.1061 128.63C57.8194 128.35 57.6761 127.997 57.6761 127.57C57.6761 127.083 57.8594 126.707 58.2261 126.44C58.5928 126.167 59.1061 126.03 59.7661 126.03H60.6061V125.74C60.6061 125.393 60.5228 125.133 60.3561 124.96C60.1894 124.78 59.9128 124.69 59.5261 124.69C58.9861 124.69 58.4961 124.84 58.0561 125.14ZM63.9063 123.93V124.82C64.153 124.193 64.5963 123.88 65.2363 123.88C65.3297 123.88 65.433 123.89 65.5463 123.91V124.87C65.4063 124.81 65.2497 124.78 65.0763 124.78C64.7363 124.78 64.4563 124.93 64.2363 125.23C64.0163 125.53 63.9063 125.887 63.9063 126.3V129H62.9263V123.93H63.9063ZM71.9259 123.93H72.9059V129H71.9259V128.13C71.6593 128.75 71.1326 129.06 70.3459 129.06C69.8459 129.06 69.4493 128.913 69.1559 128.62C68.8626 128.32 68.7159 127.91 68.7159 127.39V123.93H69.7059V127.15C69.7059 127.497 69.7893 127.763 69.9559 127.95C70.1293 128.13 70.3659 128.22 70.6659 128.22C71.0459 128.22 71.3493 128.087 71.5759 127.82C71.8093 127.553 71.9259 127.177 71.9259 126.69V123.93ZM75.2638 123.93V124.8C75.5638 124.173 76.0904 123.86 76.8438 123.86C77.3438 123.86 77.7404 124.013 78.0338 124.32C78.3271 124.627 78.4738 125.043 78.4738 125.57V129H77.4938V125.8C77.4938 125.447 77.4038 125.177 77.2238 124.99C77.0504 124.803 76.8171 124.71 76.5238 124.71C76.1771 124.71 75.8804 124.847 75.6338 125.12C75.3871 125.387 75.2638 125.763 75.2638 126.25V129H74.2838V123.93H75.2638ZM81.0616 124.69V127.48C81.0616 127.967 81.2949 128.21 81.7616 128.21C82.0349 128.21 82.2649 128.137 82.4516 127.99V128.87C82.2316 128.99 81.9616 129.05 81.6416 129.05C80.5949 129.05 80.0716 128.52 80.0716 127.46V124.69H79.2816V123.93H80.0716V122.69H81.0616V123.93H82.3916V124.69H81.0616ZM86.6818 123.93H87.6618V129H86.6818V128.13C86.4151 128.75 85.8885 129.06 85.1018 129.06C84.6018 129.06 84.2051 128.913 83.9118 128.62C83.6185 128.32 83.4718 127.91 83.4718 127.39V123.93H84.4618V127.15C84.4618 127.497 84.5451 127.763 84.7118 127.95C84.8851 128.13 85.1218 128.22 85.4218 128.22C85.8018 128.22 86.1051 128.087 86.3318 127.82C86.5651 127.553 86.6818 127.177 86.6818 126.69V123.93ZM89.0396 129V122H90.0196V129H89.0396ZM91.1896 126.35L93.1796 129H92.0096L90.0596 126.35L91.9696 123.93H93.1196L91.1896 126.35ZM97.4805 123.93V124.74C97.7672 124.153 98.2439 123.86 98.9105 123.86C99.6705 123.86 100.157 124.187 100.371 124.84C100.511 124.527 100.714 124.287 100.981 124.12C101.247 123.947 101.547 123.86 101.881 123.86C102.401 123.86 102.794 124.013 103.061 124.32C103.334 124.627 103.471 125.05 103.471 125.59V129H102.491V125.8C102.491 125.073 102.197 124.71 101.611 124.71C101.317 124.71 101.054 124.84 100.821 125.1C100.594 125.36 100.481 125.743 100.481 126.25V129H99.5005V125.8C99.5005 125.073 99.2039 124.71 98.6105 124.71C98.3239 124.71 98.0639 124.84 97.8305 125.1C97.5972 125.36 97.4805 125.743 97.4805 126.25V129H96.5005V123.93H97.4805ZM107.951 126.1V125.92C107.938 125.54 107.835 125.24 107.641 125.02C107.448 124.793 107.171 124.68 106.811 124.68C106.478 124.68 106.191 124.803 105.951 125.05C105.711 125.29 105.561 125.64 105.501 126.1H107.951ZM108.581 127.85V128.73C108.208 128.943 107.715 129.05 107.101 129.05C106.315 129.05 105.688 128.813 105.221 128.34C104.755 127.867 104.521 127.247 104.521 126.48C104.521 125.667 104.735 125.03 105.161 124.57C105.588 124.103 106.131 123.87 106.791 123.87C107.438 123.87 107.951 124.073 108.331 124.48C108.711 124.88 108.901 125.46 108.901 126.22C108.901 126.427 108.881 126.643 108.841 126.87H105.511C105.578 127.31 105.765 127.647 106.071 127.88C106.378 128.113 106.765 128.23 107.231 128.23C107.771 128.23 108.221 128.103 108.581 127.85ZM111.035 123.93V124.8C111.335 124.173 111.862 123.86 112.615 123.86C113.115 123.86 113.512 124.013 113.805 124.32C114.099 124.627 114.245 125.043 114.245 125.57V129H113.265V125.8C113.265 125.447 113.175 125.177 112.995 124.99C112.822 124.803 112.589 124.71 112.295 124.71C111.949 124.71 111.652 124.847 111.405 125.12C111.159 125.387 111.035 125.763 111.035 126.25V129H110.055V123.93H111.035ZM117.563 128.02C117.91 128.02 118.21 127.887 118.463 127.62C118.723 127.347 118.853 126.967 118.853 126.48C118.853 125.88 118.73 125.437 118.483 125.15C118.243 124.863 117.95 124.72 117.603 124.72C117.21 124.72 116.9 124.877 116.673 125.19C116.446 125.497 116.333 125.903 116.333 126.41C116.333 126.937 116.453 127.337 116.693 127.61C116.94 127.883 117.23 128.02 117.563 128.02ZM118.853 123.93H119.833V128.57C119.833 129.35 119.61 129.937 119.163 130.33C118.723 130.73 118.156 130.93 117.463 130.93C116.81 130.93 116.26 130.82 115.813 130.6V129.61C116.24 129.89 116.756 130.03 117.363 130.03C118.356 130.03 118.853 129.54 118.853 128.56V128.04C118.526 128.587 118.036 128.86 117.383 128.86C116.81 128.86 116.32 128.65 115.913 128.23C115.506 127.803 115.303 127.203 115.303 126.43C115.303 125.683 115.493 125.07 115.873 124.59C116.253 124.103 116.756 123.86 117.383 123.86C118.056 123.86 118.546 124.147 118.853 124.72V123.93ZM124.299 126.1V125.92C124.286 125.54 124.182 125.24 123.989 125.02C123.796 124.793 123.519 124.68 123.159 124.68C122.826 124.68 122.539 124.803 122.299 125.05C122.059 125.29 121.909 125.64 121.849 126.1H124.299ZM124.929 127.85V128.73C124.556 128.943 124.062 129.05 123.449 129.05C122.662 129.05 122.036 128.813 121.569 128.34C121.102 127.867 120.869 127.247 120.869 126.48C120.869 125.667 121.082 125.03 121.509 124.57C121.936 124.103 122.479 123.87 123.139 123.87C123.786 123.87 124.299 124.073 124.679 124.48C125.059 124.88 125.249 125.46 125.249 126.22C125.249 126.427 125.229 126.643 125.189 126.87H121.859C121.926 127.31 122.112 127.647 122.419 127.88C122.726 128.113 123.112 128.23 123.579 128.23C124.119 128.23 124.569 128.103 124.929 127.85ZM127.673 124.69V127.48C127.673 127.967 127.906 128.21 128.373 128.21C128.646 128.21 128.876 128.137 129.063 127.99V128.87C128.843 128.99 128.573 129.05 128.253 129.05C127.206 129.05 126.683 128.52 126.683 127.46V124.69H125.893V123.93H126.683V122.69H127.673V123.93H129.003V124.69H127.673ZM132.813 126.74H132.053C131.68 126.74 131.396 126.813 131.203 126.96C131.016 127.107 130.923 127.293 130.923 127.52C130.923 127.753 130.996 127.937 131.143 128.07C131.29 128.203 131.503 128.27 131.783 128.27C132.103 128.27 132.353 128.183 132.533 128.01C132.72 127.83 132.813 127.597 132.813 127.31V126.74ZM130.263 125.14V124.19C130.656 123.963 131.176 123.85 131.823 123.85C133.15 123.85 133.813 124.493 133.813 125.78V129H132.843V128.4C132.583 128.827 132.126 129.04 131.473 129.04C130.993 129.04 130.606 128.903 130.313 128.63C130.026 128.35 129.883 127.997 129.883 127.57C129.883 127.083 130.066 126.707 130.433 126.44C130.8 126.167 131.313 126.03 131.973 126.03H132.813V125.74C132.813 125.393 132.73 125.133 132.563 124.96C132.396 124.78 132.12 124.69 131.733 124.69C131.193 124.69 130.703 124.84 130.263 125.14ZM136.113 121.93V124.8C136.4 124.173 136.923 123.86 137.683 123.86C138.177 123.86 138.573 124.013 138.873 124.32C139.173 124.627 139.323 125.053 139.323 125.6V129H138.343V125.8C138.343 125.453 138.253 125.187 138.073 125C137.9 124.807 137.67 124.71 137.383 124.71C137.05 124.71 136.753 124.837 136.493 125.09C136.24 125.343 136.113 125.73 136.113 126.25V129H135.133V121.93H136.113ZM143.791 123.93H144.771V129H143.791V128.13C143.525 128.75 142.998 129.06 142.211 129.06C141.711 129.06 141.315 128.913 141.021 128.62C140.728 128.32 140.581 127.91 140.581 127.39V123.93H141.571V127.15C141.571 127.497 141.655 127.763 141.821 127.95C141.995 128.13 142.231 128.22 142.531 128.22C142.911 128.22 143.215 128.087 143.441 127.82C143.675 127.553 143.791 127.177 143.791 126.69V123.93ZM146.189 129V123.93H147.179V129H146.189ZM146.239 122.82C146.126 122.7 146.069 122.553 146.069 122.38C146.069 122.207 146.126 122.06 146.239 121.94C146.359 121.82 146.506 121.76 146.679 121.76C146.852 121.76 146.999 121.82 147.119 121.94C147.239 122.06 147.299 122.207 147.299 122.38C147.299 122.547 147.239 122.69 147.119 122.81C146.999 122.93 146.852 122.99 146.679 122.99C146.506 122.99 146.359 122.933 146.239 122.82ZM43.19 145V138H44.17V145H43.19ZM45.34 142.35L47.33 145H46.16L44.21 142.35L46.12 139.93H47.27L45.34 142.35ZM50.31 145.09C49.5633 145.09 48.9767 144.847 48.55 144.36C48.1233 143.873 47.91 143.257 47.91 142.51C47.91 141.75 48.13 141.12 48.57 140.62C49.01 140.113 49.59 139.86 50.31 139.86C51.0833 139.86 51.68 140.107 52.1 140.6C52.52 141.087 52.73 141.71 52.73 142.47C52.73 143.23 52.5133 143.857 52.08 144.35C51.6533 144.843 51.0633 145.09 50.31 145.09ZM50.3 140.69C49.8667 140.69 49.53 140.863 49.29 141.21C49.05 141.55 48.93 141.973 48.93 142.48C48.93 142.98 49.0533 143.403 49.3 143.75C49.5467 144.09 49.8833 144.26 50.31 144.26C50.7633 144.26 51.1067 144.093 51.34 143.76C51.58 143.427 51.7 143.003 51.7 142.49C51.7 141.963 51.5867 141.533 51.36 141.2C51.1333 140.86 50.78 140.69 50.3 140.69ZM54.8145 139.93V140.8C55.1145 140.173 55.6412 139.86 56.3945 139.86C56.8945 139.86 57.2912 140.013 57.5845 140.32C57.8779 140.627 58.0245 141.043 58.0245 141.57V145H57.0445V141.8C57.0445 141.447 56.9545 141.177 56.7745 140.99C56.6012 140.803 56.3679 140.71 56.0745 140.71C55.7279 140.71 55.4312 140.847 55.1845 141.12C54.9379 141.387 54.8145 141.763 54.8145 142.25V145H53.8345V139.93H54.8145ZM61.3923 144.21C61.779 144.21 62.1057 144.063 62.3723 143.77C62.639 143.477 62.7723 143.03 62.7723 142.43C62.7723 141.85 62.6323 141.42 62.3523 141.14C62.079 140.86 61.769 140.72 61.4223 140.72C61.029 140.72 60.7057 140.877 60.4523 141.19C60.199 141.497 60.0723 141.937 60.0723 142.51C60.0723 143.017 60.1957 143.427 60.4423 143.74C60.6957 144.053 61.0123 144.21 61.3923 144.21ZM62.7723 137.93H63.7623V145H62.7723V144.23C62.419 144.79 61.9023 145.07 61.2223 145.07C60.5557 145.07 60.029 144.82 59.6423 144.32C59.2557 143.813 59.0623 143.203 59.0623 142.49C59.0623 141.697 59.2657 141.06 59.6723 140.58C60.079 140.1 60.6023 139.86 61.2423 139.86C61.9023 139.86 62.4123 140.14 62.7723 140.7V137.93ZM65.1831 145V139.93H66.1731V145H65.1831ZM65.2331 138.82C65.1198 138.7 65.0631 138.553 65.0631 138.38C65.0631 138.207 65.1198 138.06 65.2331 137.94C65.3531 137.82 65.4998 137.76 65.6731 137.76C65.8465 137.76 65.9931 137.82 66.1131 137.94C66.2331 138.06 66.2931 138.207 66.2931 138.38C66.2931 138.547 66.2331 138.69 66.1131 138.81C65.9931 138.93 65.8465 138.99 65.6731 138.99C65.4998 138.99 65.3531 138.933 65.2331 138.82ZM70.4843 140.1V140.99C70.1576 140.797 69.7376 140.7 69.2243 140.7C68.991 140.7 68.8043 140.753 68.6643 140.86C68.531 140.967 68.4643 141.107 68.4643 141.28C68.4643 141.327 68.4676 141.373 68.4743 141.42C68.4876 141.46 68.5076 141.503 68.5343 141.55C68.561 141.59 68.5843 141.627 68.6043 141.66C68.631 141.687 68.671 141.717 68.7243 141.75C68.7776 141.783 68.8176 141.813 68.8443 141.84C68.8776 141.86 68.9276 141.887 68.9943 141.92C69.0676 141.953 69.121 141.98 69.1543 142C69.1876 142.013 69.2443 142.04 69.3243 142.08C69.411 142.113 69.471 142.137 69.5043 142.15C69.8976 142.323 70.2043 142.52 70.4243 142.74C70.651 142.953 70.7643 143.24 70.7643 143.6C70.7643 144.053 70.6043 144.41 70.2843 144.67C69.9643 144.923 69.531 145.05 68.9843 145.05C68.3843 145.05 67.8843 144.95 67.4843 144.75V143.82C67.951 144.107 68.4343 144.25 68.9343 144.25C69.1943 144.25 69.3943 144.197 69.5343 144.09C69.681 143.983 69.7543 143.843 69.7543 143.67C69.7543 143.523 69.6976 143.393 69.5843 143.28C69.471 143.16 69.3543 143.073 69.2343 143.02C69.121 142.96 68.9243 142.87 68.6443 142.75C67.851 142.423 67.4543 141.943 67.4543 141.31C67.4543 140.863 67.621 140.513 67.9543 140.26C68.2876 140.007 68.7043 139.88 69.2043 139.88C69.751 139.88 70.1776 139.953 70.4843 140.1ZM71.8238 145V139.93H72.8138V145H71.8238ZM71.8738 138.82C71.7604 138.7 71.7038 138.553 71.7038 138.38C71.7038 138.207 71.7604 138.06 71.8738 137.94C71.9938 137.82 72.1404 137.76 72.3138 137.76C72.4871 137.76 72.6338 137.82 72.7538 137.94C72.8738 138.06 72.9338 138.207 72.9338 138.38C72.9338 138.547 72.8738 138.69 72.7538 138.81C72.6338 138.93 72.4871 138.99 72.3138 138.99C72.1404 138.99 71.9938 138.933 71.8738 138.82ZM78.2259 142.49H80.3859L80.2759 142.15C80.0225 141.363 79.8159 140.713 79.6559 140.2C79.4959 139.68 79.3992 139.357 79.3659 139.23L79.3159 139.04C79.2425 139.353 78.9159 140.39 78.3359 142.15L78.2259 142.49ZM81.1959 145L80.6659 143.35H77.9459L77.4059 145H76.3159L78.6459 138.26H79.9959L82.2959 145H81.1959ZM84.2774 139.93V140.8C84.5774 140.173 85.1041 139.86 85.8574 139.86C86.3574 139.86 86.7541 140.013 87.0474 140.32C87.3408 140.627 87.4874 141.043 87.4874 141.57V145H86.5074V141.8C86.5074 141.447 86.4174 141.177 86.2374 140.99C86.0641 140.803 85.8308 140.71 85.5374 140.71C85.1908 140.71 84.8941 140.847 84.6474 141.12C84.4008 141.387 84.2774 141.763 84.2774 142.25V145H83.2974V139.93H84.2774ZM90.8552 144.21C91.2419 144.21 91.5686 144.063 91.8352 143.77C92.1019 143.477 92.2352 143.03 92.2352 142.43C92.2352 141.85 92.0952 141.42 91.8152 141.14C91.5419 140.86 91.2319 140.72 90.8852 140.72C90.4919 140.72 90.1686 140.877 89.9152 141.19C89.6619 141.497 89.5352 141.937 89.5352 142.51C89.5352 143.017 89.6586 143.427 89.9052 143.74C90.1586 144.053 90.4752 144.21 90.8552 144.21ZM92.2352 137.93H93.2252V145H92.2352V144.23C91.8819 144.79 91.3652 145.07 90.6852 145.07C90.0186 145.07 89.4919 144.82 89.1052 144.32C88.7186 143.813 88.5252 143.203 88.5252 142.49C88.5252 141.697 88.7286 141.06 89.1352 140.58C89.5419 140.1 90.0652 139.86 90.7052 139.86C91.3652 139.86 91.8752 140.14 92.2352 140.7V137.93ZM97.276 142.74H96.516C96.1427 142.74 95.8593 142.813 95.666 142.96C95.4793 143.107 95.386 143.293 95.386 143.52C95.386 143.753 95.4593 143.937 95.606 144.07C95.7527 144.203 95.966 144.27 96.246 144.27C96.566 144.27 96.816 144.183 96.996 144.01C97.1827 143.83 97.276 143.597 97.276 143.31V142.74ZM94.726 141.14V140.19C95.1193 139.963 95.6393 139.85 96.286 139.85C97.6127 139.85 98.276 140.493 98.276 141.78V145H97.306V144.4C97.046 144.827 96.5893 145.04 95.936 145.04C95.456 145.04 95.0693 144.903 94.776 144.63C94.4893 144.35 94.346 143.997 94.346 143.57C94.346 143.083 94.5293 142.707 94.896 142.44C95.2627 142.167 95.776 142.03 96.436 142.03H97.276V141.74C97.276 141.393 97.1927 141.133 97.026 140.96C96.8593 140.78 96.5827 140.69 96.196 140.69C95.656 140.69 95.166 140.84 94.726 141.14ZM104.107 144.21C104.494 144.21 104.821 144.063 105.087 143.77C105.354 143.477 105.487 143.03 105.487 142.43C105.487 141.85 105.347 141.42 105.067 141.14C104.794 140.86 104.484 140.72 104.137 140.72C103.744 140.72 103.421 140.877 103.167 141.19C102.914 141.497 102.787 141.937 102.787 142.51C102.787 143.017 102.911 143.427 103.157 143.74C103.411 144.053 103.727 144.21 104.107 144.21ZM105.487 137.93H106.477V145H105.487V144.23C105.134 144.79 104.617 145.07 103.937 145.07C103.271 145.07 102.744 144.82 102.357 144.32C101.971 143.813 101.777 143.203 101.777 142.49C101.777 141.697 101.981 141.06 102.387 140.58C102.794 140.1 103.317 139.86 103.957 139.86C104.617 139.86 105.127 140.14 105.487 140.7V137.93ZM107.898 145V139.93H108.888V145H107.898ZM107.948 138.82C107.835 138.7 107.778 138.553 107.778 138.38C107.778 138.207 107.835 138.06 107.948 137.94C108.068 137.82 108.215 137.76 108.388 137.76C108.561 137.76 108.708 137.82 108.828 137.94C108.948 138.06 109.008 138.207 109.008 138.38C109.008 138.547 108.948 138.69 108.828 138.81C108.708 138.93 108.561 138.99 108.388 138.99C108.215 138.99 108.068 138.933 107.948 138.82ZM113.75 139.93V140.74C114.037 140.153 114.513 139.86 115.18 139.86C115.94 139.86 116.427 140.187 116.64 140.84C116.78 140.527 116.983 140.287 117.25 140.12C117.517 139.947 117.817 139.86 118.15 139.86C118.67 139.86 119.063 140.013 119.33 140.32C119.603 140.627 119.74 141.05 119.74 141.59V145H118.76V141.8C118.76 141.073 118.467 140.71 117.88 140.71C117.587 140.71 117.323 140.84 117.09 141.1C116.863 141.36 116.75 141.743 116.75 142.25V145H115.77V141.8C115.77 141.073 115.473 140.71 114.88 140.71C114.593 140.71 114.333 140.84 114.1 141.1C113.867 141.36 113.75 141.743 113.75 142.25V145H112.77V139.93H113.75ZM124.221 139.93H125.201V145H124.221V144.13C123.954 144.75 123.428 145.06 122.641 145.06C122.141 145.06 121.744 144.913 121.451 144.62C121.158 144.32 121.011 143.91 121.011 143.39V139.93H122.001V143.15C122.001 143.497 122.084 143.763 122.251 143.95C122.424 144.13 122.661 144.22 122.961 144.22C123.341 144.22 123.644 144.087 123.871 143.82C124.104 143.553 124.221 143.177 124.221 142.69V139.93ZM129.469 140.1V140.99C129.142 140.797 128.722 140.7 128.209 140.7C127.975 140.7 127.789 140.753 127.649 140.86C127.515 140.967 127.449 141.107 127.449 141.28C127.449 141.327 127.452 141.373 127.459 141.42C127.472 141.46 127.492 141.503 127.519 141.55C127.545 141.59 127.569 141.627 127.589 141.66C127.615 141.687 127.655 141.717 127.709 141.75C127.762 141.783 127.802 141.813 127.829 141.84C127.862 141.86 127.912 141.887 127.979 141.92C128.052 141.953 128.105 141.98 128.139 142C128.172 142.013 128.229 142.04 128.309 142.08C128.395 142.113 128.455 142.137 128.489 142.15C128.882 142.323 129.189 142.52 129.409 142.74C129.635 142.953 129.749 143.24 129.749 143.6C129.749 144.053 129.589 144.41 129.269 144.67C128.949 144.923 128.515 145.05 127.969 145.05C127.369 145.05 126.869 144.95 126.469 144.75V143.82C126.935 144.107 127.419 144.25 127.919 144.25C128.179 144.25 128.379 144.197 128.519 144.09C128.665 143.983 128.739 143.843 128.739 143.67C128.739 143.523 128.682 143.393 128.569 143.28C128.455 143.16 128.339 143.073 128.219 143.02C128.105 142.96 127.909 142.87 127.629 142.75C126.835 142.423 126.439 141.943 126.439 141.31C126.439 140.863 126.605 140.513 126.939 140.26C127.272 140.007 127.689 139.88 128.189 139.88C128.735 139.88 129.162 139.953 129.469 140.1ZM130.808 145V139.93H131.798V145H130.808ZM130.858 138.82C130.745 138.7 130.688 138.553 130.688 138.38C130.688 138.207 130.745 138.06 130.858 137.94C130.978 137.82 131.125 137.76 131.298 137.76C131.471 137.76 131.618 137.82 131.738 137.94C131.858 138.06 131.918 138.207 131.918 138.38C131.918 138.547 131.858 138.69 131.738 138.81C131.618 138.93 131.471 138.99 131.298 138.99C131.125 138.99 130.978 138.933 130.858 138.82ZM134.199 139.93V140.74C134.486 140.153 134.963 139.86 135.629 139.86C136.389 139.86 136.876 140.187 137.089 140.84C137.229 140.527 137.433 140.287 137.699 140.12C137.966 139.947 138.266 139.86 138.599 139.86C139.119 139.86 139.513 140.013 139.779 140.32C140.053 140.627 140.189 141.05 140.189 141.59V145H139.209V141.8C139.209 141.073 138.916 140.71 138.329 140.71C138.036 140.71 137.773 140.84 137.539 141.1C137.313 141.36 137.199 141.743 137.199 142.25V145H136.219V141.8C136.219 141.073 135.923 140.71 135.329 140.71C135.043 140.71 134.783 140.84 134.549 141.1C134.316 141.36 134.199 141.743 134.199 142.25V145H133.219V139.93H134.199ZM144.021 145V139.93H145.011V145H144.021ZM144.071 138.82C143.958 138.7 143.901 138.553 143.901 138.38C143.901 138.207 143.958 138.06 144.071 137.94C144.191 137.82 144.338 137.76 144.511 137.76C144.684 137.76 144.831 137.82 144.951 137.94C145.071 138.06 145.131 138.207 145.131 138.38C145.131 138.547 145.071 138.69 144.951 138.81C144.831 138.93 144.684 138.99 144.511 138.99C144.338 138.99 144.191 138.933 144.071 138.82ZM147.412 139.93V140.8C147.712 140.173 148.239 139.86 148.992 139.86C149.492 139.86 149.889 140.013 150.182 140.32C150.476 140.627 150.622 141.043 150.622 141.57V145H149.642V141.8C149.642 141.447 149.552 141.177 149.372 140.99C149.199 140.803 148.966 140.71 148.672 140.71C148.326 140.71 148.029 140.847 147.782 141.12C147.536 141.387 147.412 141.763 147.412 142.25V145H146.432V139.93H147.412ZM151.98 145V139.93H152.97V145H151.98ZM152.03 138.82C151.917 138.7 151.86 138.553 151.86 138.38C151.86 138.207 151.917 138.06 152.03 137.94C152.15 137.82 152.297 137.76 152.47 137.76C152.643 137.76 152.79 137.82 152.91 137.94C153.03 138.06 153.09 138.207 153.09 138.38C153.09 138.547 153.03 138.69 152.91 138.81C152.79 138.93 152.643 138.99 152.47 138.99C152.297 138.99 152.15 138.933 152.03 138.82ZM42.8 176.79V175.84C43.0733 176.007 43.3467 176.09 43.62 176.09C44.1667 176.09 44.44 175.8 44.44 175.22V170.26H45.47V175.18C45.47 175.8 45.3167 176.26 45.01 176.56C44.71 176.853 44.3033 177 43.79 177C43.3767 177 43.0467 176.93 42.8 176.79ZM46.9116 177V171.93H47.9016V177H46.9116ZM46.9616 170.82C46.8483 170.7 46.7916 170.553 46.7916 170.38C46.7916 170.207 46.8483 170.06 46.9616 169.94C47.0816 169.82 47.2283 169.76 47.4016 169.76C47.575 169.76 47.7216 169.82 47.8416 169.94C47.9616 170.06 48.0216 170.207 48.0216 170.38C48.0216 170.547 47.9616 170.69 47.8416 170.81C47.7216 170.93 47.575 170.99 47.4016 170.99C47.2283 170.99 47.0816 170.933 46.9616 170.82ZM49.3228 177V170H50.3028V177H49.3228ZM51.4728 174.35L53.4628 177H52.2928L50.3428 174.35L52.2528 171.93H53.4028L51.4728 174.35ZM56.9928 174.74H56.2328C55.8595 174.74 55.5761 174.813 55.3828 174.96C55.1961 175.107 55.1028 175.293 55.1028 175.52C55.1028 175.753 55.1761 175.937 55.3228 176.07C55.4695 176.203 55.6828 176.27 55.9628 176.27C56.2828 176.27 56.5328 176.183 56.7128 176.01C56.8995 175.83 56.9928 175.597 56.9928 175.31V174.74ZM54.4428 173.14V172.19C54.8361 171.963 55.3561 171.85 56.0028 171.85C57.3295 171.85 57.9928 172.493 57.9928 173.78V177H57.0228V176.4C56.7628 176.827 56.3061 177.04 55.6528 177.04C55.1728 177.04 54.7861 176.903 54.4928 176.63C54.2061 176.35 54.0628 175.997 54.0628 175.57C54.0628 175.083 54.2461 174.707 54.6128 174.44C54.9795 174.167 55.4928 174.03 56.1528 174.03H56.9928V173.74C56.9928 173.393 56.9095 173.133 56.7428 172.96C56.5761 172.78 56.2995 172.69 55.9128 172.69C55.3728 172.69 54.8828 172.84 54.4428 173.14ZM63.304 174.49H65.464L65.354 174.15C65.1007 173.363 64.894 172.713 64.734 172.2C64.574 171.68 64.4773 171.357 64.444 171.23L64.394 171.04C64.3207 171.353 63.994 172.39 63.414 174.15L63.304 174.49ZM66.274 177L65.744 175.35H63.024L62.484 177H61.394L63.724 170.26H65.074L67.374 177H66.274ZM69.3555 171.93V172.8C69.6555 172.173 70.1822 171.86 70.9355 171.86C71.4355 171.86 71.8322 172.013 72.1255 172.32C72.4189 172.627 72.5655 173.043 72.5655 173.57V177H71.5855V173.8C71.5855 173.447 71.4955 173.177 71.3155 172.99C71.1422 172.803 70.9089 172.71 70.6155 172.71C70.2689 172.71 69.9722 172.847 69.7255 173.12C69.4789 173.387 69.3555 173.763 69.3555 174.25V177H68.3755V171.93H69.3555ZM75.9334 176.21C76.32 176.21 76.6467 176.063 76.9134 175.77C77.18 175.477 77.3134 175.03 77.3134 174.43C77.3134 173.85 77.1734 173.42 76.8934 173.14C76.62 172.86 76.31 172.72 75.9634 172.72C75.57 172.72 75.2467 172.877 74.9934 173.19C74.74 173.497 74.6134 173.937 74.6134 174.51C74.6134 175.017 74.7367 175.427 74.9834 175.74C75.2367 176.053 75.5534 176.21 75.9334 176.21ZM77.3134 169.93H78.3034V177H77.3134V176.23C76.96 176.79 76.4434 177.07 75.7634 177.07C75.0967 177.07 74.57 176.82 74.1834 176.32C73.7967 175.813 73.6034 175.203 73.6034 174.49C73.6034 173.697 73.8067 173.06 74.2134 172.58C74.62 172.1 75.1434 171.86 75.7834 171.86C76.4434 171.86 76.9534 172.14 77.3134 172.7V169.93ZM82.3541 174.74H81.5941C81.2208 174.74 80.9375 174.813 80.7441 174.96C80.5575 175.107 80.4641 175.293 80.4641 175.52C80.4641 175.753 80.5375 175.937 80.6841 176.07C80.8308 176.203 81.0441 176.27 81.3241 176.27C81.6441 176.27 81.8941 176.183 82.0741 176.01C82.2608 175.83 82.3541 175.597 82.3541 175.31V174.74ZM79.8041 173.14V172.19C80.1975 171.963 80.7175 171.85 81.3641 171.85C82.6908 171.85 83.3541 172.493 83.3541 173.78V177H82.3841V176.4C82.1241 176.827 81.6675 177.04 81.0141 177.04C80.5341 177.04 80.1475 176.903 79.8541 176.63C79.5675 176.35 79.4241 175.997 79.4241 175.57C79.4241 175.083 79.6075 174.707 79.9741 174.44C80.3408 174.167 80.8541 174.03 81.5141 174.03H82.3541V173.74C82.3541 173.393 82.2708 173.133 82.1041 172.96C81.9375 172.78 81.6608 172.69 81.2741 172.69C80.7341 172.69 80.2441 172.84 79.8041 173.14ZM90.0253 172.1V172.99C89.6986 172.797 89.2786 172.7 88.7653 172.7C88.532 172.7 88.3453 172.753 88.2053 172.86C88.072 172.967 88.0053 173.107 88.0053 173.28C88.0053 173.327 88.0086 173.373 88.0153 173.42C88.0286 173.46 88.0486 173.503 88.0753 173.55C88.102 173.59 88.1253 173.627 88.1453 173.66C88.172 173.687 88.212 173.717 88.2653 173.75C88.3186 173.783 88.3586 173.813 88.3853 173.84C88.4186 173.86 88.4686 173.887 88.5353 173.92C88.6086 173.953 88.662 173.98 88.6953 174C88.7286 174.013 88.7853 174.04 88.8653 174.08C88.952 174.113 89.012 174.137 89.0453 174.15C89.4386 174.323 89.7453 174.52 89.9653 174.74C90.192 174.953 90.3053 175.24 90.3053 175.6C90.3053 176.053 90.1453 176.41 89.8253 176.67C89.5053 176.923 89.072 177.05 88.5253 177.05C87.9253 177.05 87.4253 176.95 87.0253 176.75V175.82C87.492 176.107 87.9753 176.25 88.4753 176.25C88.7353 176.25 88.9353 176.197 89.0753 176.09C89.222 175.983 89.2953 175.843 89.2953 175.67C89.2953 175.523 89.2386 175.393 89.1253 175.28C89.012 175.16 88.8953 175.073 88.7753 175.02C88.662 174.96 88.4653 174.87 88.1853 174.75C87.392 174.423 86.9953 173.943 86.9953 173.31C86.9953 172.863 87.162 172.513 87.4953 172.26C87.8286 172.007 88.2453 171.88 88.7453 171.88C89.292 171.88 89.7186 171.953 90.0253 172.1ZM93.9948 174.74H93.2348C92.8614 174.74 92.5781 174.813 92.3848 174.96C92.1981 175.107 92.1048 175.293 92.1048 175.52C92.1048 175.753 92.1781 175.937 92.3248 176.07C92.4714 176.203 92.6848 176.27 92.9648 176.27C93.2848 176.27 93.5348 176.183 93.7148 176.01C93.9014 175.83 93.9948 175.597 93.9948 175.31V174.74ZM91.4448 173.14V172.19C91.8381 171.963 92.3581 171.85 93.0048 171.85C94.3314 171.85 94.9948 172.493 94.9948 173.78V177H94.0248V176.4C93.7648 176.827 93.3081 177.04 92.6548 177.04C92.1748 177.04 91.7881 176.903 91.4948 176.63C91.2081 176.35 91.0648 175.997 91.0648 175.57C91.0648 175.083 91.2481 174.707 91.6148 174.44C91.9814 174.167 92.4948 174.03 93.1548 174.03H93.9948V173.74C93.9948 173.393 93.9114 173.133 93.7448 172.96C93.5781 172.78 93.3014 172.69 92.9148 172.69C92.3748 172.69 91.8848 172.84 91.4448 173.14ZM96.315 177V170H97.295V177H96.315ZM98.465 174.35L100.455 177H99.285L97.335 174.35L99.245 171.93H100.395L98.465 174.35ZM101.355 177V171.93H102.345V177H101.355ZM101.405 170.82C101.292 170.7 101.235 170.553 101.235 170.38C101.235 170.207 101.292 170.06 101.405 169.94C101.525 169.82 101.672 169.76 101.845 169.76C102.018 169.76 102.165 169.82 102.285 169.94C102.405 170.06 102.465 170.207 102.465 170.38C102.465 170.547 102.405 170.69 102.285 170.81C102.165 170.93 102.018 170.99 101.845 170.99C101.672 170.99 101.525 170.933 101.405 170.82ZM105.036 172.69V175.48C105.036 175.967 105.27 176.21 105.736 176.21C106.01 176.21 106.24 176.137 106.426 175.99V176.87C106.206 176.99 105.936 177.05 105.616 177.05C104.57 177.05 104.046 176.52 104.046 175.46V172.69H103.256V171.93H104.046V170.69H105.036V171.93H106.366V172.69H105.036ZM106.736 178.24L107.696 175.9H108.906L107.596 178.24H106.736ZM114.469 176.21C114.855 176.21 115.182 176.063 115.449 175.77C115.715 175.477 115.849 175.03 115.849 174.43C115.849 173.85 115.709 173.42 115.429 173.14C115.155 172.86 114.845 172.72 114.499 172.72C114.105 172.72 113.782 172.877 113.529 173.19C113.275 173.497 113.149 173.937 113.149 174.51C113.149 175.017 113.272 175.427 113.519 175.74C113.772 176.053 114.089 176.21 114.469 176.21ZM115.849 169.93H116.839V177H115.849V176.23C115.495 176.79 114.979 177.07 114.299 177.07C113.632 177.07 113.105 176.82 112.719 176.32C112.332 175.813 112.139 175.203 112.139 174.49C112.139 173.697 112.342 173.06 112.749 172.58C113.155 172.1 113.679 171.86 114.319 171.86C114.979 171.86 115.489 172.14 115.849 172.7V169.93ZM118.259 177V171.93H119.249V177H118.259ZM118.309 170.82C118.196 170.7 118.139 170.553 118.139 170.38C118.139 170.207 118.196 170.06 118.309 169.94C118.429 169.82 118.576 169.76 118.749 169.76C118.923 169.76 119.069 169.82 119.189 169.94C119.309 170.06 119.369 170.207 119.369 170.38C119.369 170.547 119.309 170.69 119.189 170.81C119.069 170.93 118.923 170.99 118.749 170.99C118.576 170.99 118.429 170.933 118.309 170.82ZM121.65 169.93V172.8C121.937 172.173 122.46 171.86 123.22 171.86C123.714 171.86 124.11 172.013 124.41 172.32C124.71 172.627 124.86 173.053 124.86 173.6V177H123.88V173.8C123.88 173.453 123.79 173.187 123.61 173C123.437 172.807 123.207 172.71 122.92 172.71C122.587 172.71 122.29 172.837 122.03 173.09C121.777 173.343 121.65 173.73 121.65 174.25V177H120.67V169.93H121.65ZM128.848 174.74H128.088C127.715 174.74 127.432 174.813 127.238 174.96C127.052 175.107 126.958 175.293 126.958 175.52C126.958 175.753 127.032 175.937 127.178 176.07C127.325 176.203 127.538 176.27 127.818 176.27C128.138 176.27 128.388 176.183 128.568 176.01C128.755 175.83 128.848 175.597 128.848 175.31V174.74ZM126.298 173.14V172.19C126.692 171.963 127.212 171.85 127.858 171.85C129.185 171.85 129.848 172.493 129.848 173.78V177H128.878V176.4C128.618 176.827 128.162 177.04 127.508 177.04C127.028 177.04 126.642 176.903 126.348 176.63C126.062 176.35 125.918 175.997 125.918 175.57C125.918 175.083 126.102 174.707 126.468 174.44C126.835 174.167 127.348 174.03 128.008 174.03H128.848V173.74C128.848 173.393 128.765 173.133 128.598 172.96C128.432 172.78 128.155 172.69 127.768 172.69C127.228 172.69 126.738 172.84 126.298 173.14ZM132.149 171.93V172.82C132.395 172.193 132.839 171.88 133.479 171.88C133.572 171.88 133.675 171.89 133.789 171.91V172.87C133.649 172.81 133.492 172.78 133.319 172.78C132.979 172.78 132.699 172.93 132.479 173.23C132.259 173.53 132.149 173.887 132.149 174.3V177H131.169V171.93H132.149ZM137.707 171.93H138.687V177H137.707V176.13C137.441 176.75 136.914 177.06 136.127 177.06C135.627 177.06 135.231 176.913 134.937 176.62C134.644 176.32 134.497 175.91 134.497 175.39V171.93H135.487V175.15C135.487 175.497 135.571 175.763 135.737 175.95C135.911 176.13 136.147 176.22 136.447 176.22C136.827 176.22 137.131 176.087 137.357 175.82C137.591 175.553 137.707 175.177 137.707 174.69V171.93ZM142.955 172.1V172.99C142.628 172.797 142.208 172.7 141.695 172.7C141.462 172.7 141.275 172.753 141.135 172.86C141.002 172.967 140.935 173.107 140.935 173.28C140.935 173.327 140.938 173.373 140.945 173.42C140.958 173.46 140.978 173.503 141.005 173.55C141.032 173.59 141.055 173.627 141.075 173.66C141.102 173.687 141.142 173.717 141.195 173.75C141.248 173.783 141.288 173.813 141.315 173.84C141.348 173.86 141.398 173.887 141.465 173.92C141.538 173.953 141.592 173.98 141.625 174C141.658 174.013 141.715 174.04 141.795 174.08C141.882 174.113 141.942 174.137 141.975 174.15C142.368 174.323 142.675 174.52 142.895 174.74C143.122 174.953 143.235 175.24 143.235 175.6C143.235 176.053 143.075 176.41 142.755 176.67C142.435 176.923 142.002 177.05 141.455 177.05C140.855 177.05 140.355 176.95 139.955 176.75V175.82C140.422 176.107 140.905 176.25 141.405 176.25C141.665 176.25 141.865 176.197 142.005 176.09C142.152 175.983 142.225 175.843 142.225 175.67C142.225 175.523 142.168 175.393 142.055 175.28C141.942 175.16 141.825 175.073 141.705 175.02C141.592 174.96 141.395 174.87 141.115 174.75C140.322 174.423 139.925 173.943 139.925 173.31C139.925 172.863 140.092 172.513 140.425 172.26C140.758 172.007 141.175 171.88 141.675 171.88C142.222 171.88 142.648 171.953 142.955 172.1ZM144.254 177V170H145.234V177H144.254ZM146.404 174.35L148.394 177H147.224L145.274 174.35L147.184 171.93H148.334L146.404 174.35ZM151.924 174.74H151.164C150.791 174.74 150.508 174.813 150.314 174.96C150.128 175.107 150.034 175.293 150.034 175.52C150.034 175.753 150.108 175.937 150.254 176.07C150.401 176.203 150.614 176.27 150.894 176.27C151.214 176.27 151.464 176.183 151.644 176.01C151.831 175.83 151.924 175.597 151.924 175.31V174.74ZM149.374 173.14V172.19C149.768 171.963 150.288 171.85 150.934 171.85C152.261 171.85 152.924 172.493 152.924 173.78V177H151.954V176.4C151.694 176.827 151.238 177.04 150.584 177.04C150.104 177.04 149.718 176.903 149.424 176.63C149.138 176.35 148.994 175.997 148.994 175.57C148.994 175.083 149.178 174.707 149.544 174.44C149.911 174.167 150.424 174.03 151.084 174.03H151.924V173.74C151.924 173.393 151.841 173.133 151.674 172.96C151.508 172.78 151.231 172.69 150.844 172.69C150.304 172.69 149.814 172.84 149.374 173.14ZM155.225 171.93V172.8C155.525 172.173 156.051 171.86 156.805 171.86C157.305 171.86 157.701 172.013 157.995 172.32C158.288 172.627 158.435 173.043 158.435 173.57V177H157.455V173.8C157.455 173.447 157.365 173.177 157.185 172.99C157.011 172.803 156.778 172.71 156.485 172.71C156.138 172.71 155.841 172.847 155.595 173.12C155.348 173.387 155.225 173.763 155.225 174.25V177H154.245V171.93H155.225ZM44.17 187.93V188.74C44.4567 188.153 44.9333 187.86 45.6 187.86C46.36 187.86 46.8467 188.187 47.06 188.84C47.2 188.527 47.4033 188.287 47.67 188.12C47.9367 187.947 48.2367 187.86 48.57 187.86C49.09 187.86 49.4833 188.013 49.75 188.32C50.0233 188.627 50.16 189.05 50.16 189.59V193H49.18V189.8C49.18 189.073 48.8867 188.71 48.3 188.71C48.0067 188.71 47.7433 188.84 47.51 189.1C47.2833 189.36 47.17 189.743 47.17 190.25V193H46.19V189.8C46.19 189.073 45.8933 188.71 45.3 188.71C45.0133 188.71 44.7533 188.84 44.52 189.1C44.2867 189.36 44.17 189.743 44.17 190.25V193H43.19V187.93H44.17ZM54.6408 190.1V189.92C54.6274 189.54 54.5241 189.24 54.3308 189.02C54.1374 188.793 53.8608 188.68 53.5008 188.68C53.1674 188.68 52.8808 188.803 52.6408 189.05C52.4008 189.29 52.2508 189.64 52.1908 190.1H54.6408ZM55.2708 191.85V192.73C54.8974 192.943 54.4041 193.05 53.7908 193.05C53.0041 193.05 52.3774 192.813 51.9108 192.34C51.4441 191.867 51.2108 191.247 51.2108 190.48C51.2108 189.667 51.4241 189.03 51.8508 188.57C52.2774 188.103 52.8208 187.87 53.4808 187.87C54.1274 187.87 54.6408 188.073 55.0208 188.48C55.4008 188.88 55.5908 189.46 55.5908 190.22C55.5908 190.427 55.5708 190.643 55.5308 190.87H52.2008C52.2674 191.31 52.4541 191.647 52.7608 191.88C53.0674 192.113 53.4541 192.23 53.9208 192.23C54.4608 192.23 54.9108 192.103 55.2708 191.85ZM57.7247 187.93V188.74C58.0114 188.153 58.488 187.86 59.1547 187.86C59.9147 187.86 60.4014 188.187 60.6147 188.84C60.7547 188.527 60.958 188.287 61.2247 188.12C61.4914 187.947 61.7914 187.86 62.1247 187.86C62.6447 187.86 63.038 188.013 63.3047 188.32C63.578 188.627 63.7147 189.05 63.7147 189.59V193H62.7347V189.8C62.7347 189.073 62.4414 188.71 61.8547 188.71C61.5614 188.71 61.298 188.84 61.0647 189.1C60.838 189.36 60.7247 189.743 60.7247 190.25V193H59.7447V189.8C59.7447 189.073 59.448 188.71 58.8547 188.71C58.568 188.71 58.308 188.84 58.0747 189.1C57.8414 189.36 57.7247 189.743 57.7247 190.25V193H56.7447V187.93H57.7247ZM67.4355 192.21C67.8088 192.21 68.1221 192.053 68.3755 191.74C68.6288 191.42 68.7555 191.01 68.7555 190.51C68.7555 189.937 68.6288 189.497 68.3755 189.19C68.1221 188.877 67.7988 188.72 67.4055 188.72C67.0588 188.72 66.7455 188.86 66.4655 189.14C66.1921 189.42 66.0555 189.85 66.0555 190.43C66.0555 191.03 66.1888 191.477 66.4555 191.77C66.7221 192.063 67.0488 192.21 67.4355 192.21ZM66.0555 185.93V188.7C66.4155 188.14 66.9255 187.86 67.5855 187.86C68.2255 187.86 68.7488 188.1 69.1555 188.58C69.5621 189.06 69.7655 189.697 69.7655 190.49C69.7655 191.203 69.5721 191.813 69.1855 192.32C68.7988 192.82 68.2688 193.07 67.5955 193.07C66.9221 193.07 66.4088 192.79 66.0555 192.23V193H65.0655V185.93H66.0555ZM73.5358 190.74H72.7758C72.4024 190.74 72.1191 190.813 71.9258 190.96C71.7391 191.107 71.6458 191.293 71.6458 191.52C71.6458 191.753 71.7191 191.937 71.8658 192.07C72.0124 192.203 72.2258 192.27 72.5058 192.27C72.8258 192.27 73.0758 192.183 73.2558 192.01C73.4424 191.83 73.5358 191.597 73.5358 191.31V190.74ZM70.9858 189.14V188.19C71.3791 187.963 71.8991 187.85 72.5458 187.85C73.8724 187.85 74.5358 188.493 74.5358 189.78V193H73.5658V192.4C73.3058 192.827 72.8491 193.04 72.1958 193.04C71.7158 193.04 71.3291 192.903 71.0358 192.63C70.7491 192.35 70.6058 191.997 70.6058 191.57C70.6058 191.083 70.7891 190.707 71.1558 190.44C71.5224 190.167 72.0358 190.03 72.6958 190.03H73.5358V189.74C73.5358 189.393 73.4524 189.133 73.2858 188.96C73.1191 188.78 72.8424 188.69 72.4558 188.69C71.9158 188.69 71.4258 188.84 70.9858 189.14ZM77.256 192.89L75.236 187.93H76.326L76.956 189.58L77.746 191.72C77.806 191.52 78.046 190.807 78.466 189.58L79.036 187.93H80.076L78.246 192.86C77.7593 194.16 77.016 194.81 76.016 194.81C75.836 194.81 75.6827 194.793 75.556 194.76V193.92C75.6627 193.947 75.776 193.96 75.896 193.96C76.5427 193.96 76.996 193.603 77.256 192.89ZM83.5651 190.74H82.8051C82.4317 190.74 82.1484 190.813 81.9551 190.96C81.7684 191.107 81.6751 191.293 81.6751 191.52C81.6751 191.753 81.7484 191.937 81.8951 192.07C82.0417 192.203 82.2551 192.27 82.5351 192.27C82.8551 192.27 83.1051 192.183 83.2851 192.01C83.4717 191.83 83.5651 191.597 83.5651 191.31V190.74ZM81.0151 189.14V188.19C81.4084 187.963 81.9284 187.85 82.5751 187.85C83.9017 187.85 84.5651 188.493 84.5651 189.78V193H83.5951V192.4C83.3351 192.827 82.8784 193.04 82.2251 193.04C81.7451 193.04 81.3584 192.903 81.0651 192.63C80.7784 192.35 80.6351 191.997 80.6351 191.57C80.6351 191.083 80.8184 190.707 81.1851 190.44C81.5517 190.167 82.0651 190.03 82.7251 190.03H83.5651V189.74C83.5651 189.393 83.4817 189.133 83.3151 188.96C83.1484 188.78 82.8717 188.69 82.4851 188.69C81.9451 188.69 81.4551 188.84 81.0151 189.14ZM86.8653 187.93V188.82C87.112 188.193 87.5553 187.88 88.1953 187.88C88.2886 187.88 88.392 187.89 88.5053 187.91V188.87C88.3653 188.81 88.2086 188.78 88.0353 188.78C87.6953 188.78 87.4153 188.93 87.1953 189.23C86.9753 189.53 86.8653 189.887 86.8653 190.3V193H85.8853V187.93H86.8653ZM94.1249 192.21C94.4983 192.21 94.8116 192.053 95.0649 191.74C95.3183 191.42 95.4449 191.01 95.4449 190.51C95.4449 189.937 95.3183 189.497 95.0649 189.19C94.8116 188.877 94.4883 188.72 94.0949 188.72C93.7483 188.72 93.4349 188.86 93.1549 189.14C92.8816 189.42 92.7449 189.85 92.7449 190.43C92.7449 191.03 92.8783 191.477 93.1449 191.77C93.4116 192.063 93.7383 192.21 94.1249 192.21ZM92.7449 185.93V188.7C93.1049 188.14 93.6149 187.86 94.2749 187.86C94.9149 187.86 95.4383 188.1 95.8449 188.58C96.2516 189.06 96.4549 189.697 96.4549 190.49C96.4549 191.203 96.2616 191.813 95.8749 192.32C95.4883 192.82 94.9583 193.07 94.2849 193.07C93.6116 193.07 93.0983 192.79 92.7449 192.23V193H91.7549V185.93H92.7449ZM97.5952 193V187.93H98.5852V193H97.5952ZM97.6452 186.82C97.5319 186.7 97.4752 186.553 97.4752 186.38C97.4752 186.207 97.5319 186.06 97.6452 185.94C97.7652 185.82 97.9119 185.76 98.0852 185.76C98.2586 185.76 98.4052 185.82 98.5252 185.94C98.6452 186.06 98.7052 186.207 98.7052 186.38C98.7052 186.547 98.6452 186.69 98.5252 186.81C98.4052 186.93 98.2586 186.99 98.0852 186.99C97.9119 186.99 97.7652 186.933 97.6452 186.82ZM102.676 190.74H101.916C101.543 190.74 101.26 190.813 101.066 190.96C100.88 191.107 100.786 191.293 100.786 191.52C100.786 191.753 100.86 191.937 101.006 192.07C101.153 192.203 101.366 192.27 101.646 192.27C101.966 192.27 102.216 192.183 102.396 192.01C102.583 191.83 102.676 191.597 102.676 191.31V190.74ZM100.126 189.14V188.19C100.52 187.963 101.04 187.85 101.686 187.85C103.013 187.85 103.676 188.493 103.676 189.78V193H102.706V192.4C102.446 192.827 101.99 193.04 101.336 193.04C100.856 193.04 100.47 192.903 100.176 192.63C99.8897 192.35 99.7464 191.997 99.7464 191.57C99.7464 191.083 99.9297 190.707 100.296 190.44C100.663 190.167 101.176 190.03 101.836 190.03H102.676V189.74C102.676 189.393 102.593 189.133 102.426 188.96C102.26 188.78 101.983 188.69 101.596 188.69C101.056 188.69 100.566 188.84 100.126 189.14ZM106.397 192.89L104.377 187.93H105.467L106.097 189.58L106.887 191.72C106.947 191.52 107.187 190.807 107.607 189.58L108.177 187.93H109.217L107.387 192.86C106.9 194.16 106.157 194.81 105.157 194.81C104.977 194.81 104.823 194.793 104.697 194.76V193.92C104.803 193.947 104.917 193.96 105.037 193.96C105.683 193.96 106.137 193.603 106.397 192.89ZM112.706 190.74H111.946C111.572 190.74 111.289 190.813 111.096 190.96C110.909 191.107 110.816 191.293 110.816 191.52C110.816 191.753 110.889 191.937 111.036 192.07C111.182 192.203 111.396 192.27 111.676 192.27C111.996 192.27 112.246 192.183 112.426 192.01C112.612 191.83 112.706 191.597 112.706 191.31V190.74ZM110.156 189.14V188.19C110.549 187.963 111.069 187.85 111.716 187.85C113.042 187.85 113.706 188.493 113.706 189.78V193H112.736V192.4C112.476 192.827 112.019 193.04 111.366 193.04C110.886 193.04 110.499 192.903 110.206 192.63C109.919 192.35 109.776 191.997 109.776 191.57C109.776 191.083 109.959 190.707 110.326 190.44C110.692 190.167 111.206 190.03 111.866 190.03H112.706V189.74C112.706 189.393 112.622 189.133 112.456 188.96C112.289 188.78 112.012 188.69 111.626 188.69C111.086 188.69 110.596 188.84 110.156 189.14ZM118.467 187.93V188.82C118.714 188.193 119.157 187.88 119.797 187.88C119.89 187.88 119.994 187.89 120.107 187.91V188.87C119.967 188.81 119.81 188.78 119.637 188.78C119.297 188.78 119.017 188.93 118.797 189.23C118.577 189.53 118.467 189.887 118.467 190.3V193H117.487V187.93H118.467ZM124.026 187.93H125.006V193H124.026V192.13C123.759 192.75 123.232 193.06 122.446 193.06C121.946 193.06 121.549 192.913 121.256 192.62C120.962 192.32 120.816 191.91 120.816 191.39V187.93H121.806V191.15C121.806 191.497 121.889 191.763 122.056 191.95C122.229 192.13 122.466 192.22 122.766 192.22C123.146 192.22 123.449 192.087 123.676 191.82C123.909 191.553 124.026 191.177 124.026 190.69V187.93ZM127.363 187.93V188.74C127.65 188.153 128.127 187.86 128.793 187.86C129.553 187.86 130.04 188.187 130.253 188.84C130.393 188.527 130.597 188.287 130.863 188.12C131.13 187.947 131.43 187.86 131.763 187.86C132.283 187.86 132.677 188.013 132.943 188.32C133.217 188.627 133.353 189.05 133.353 189.59V193H132.373V189.8C132.373 189.073 132.08 188.71 131.493 188.71C131.2 188.71 130.937 188.84 130.703 189.1C130.477 189.36 130.363 189.743 130.363 190.25V193H129.383V189.8C129.383 189.073 129.087 188.71 128.493 188.71C128.207 188.71 127.947 188.84 127.713 189.1C127.48 189.36 127.363 189.743 127.363 190.25V193H126.383V187.93H127.363ZM137.354 190.74H136.594C136.221 190.74 135.937 190.813 135.744 190.96C135.557 191.107 135.464 191.293 135.464 191.52C135.464 191.753 135.537 191.937 135.684 192.07C135.831 192.203 136.044 192.27 136.324 192.27C136.644 192.27 136.894 192.183 137.074 192.01C137.261 191.83 137.354 191.597 137.354 191.31V190.74ZM134.804 189.14V188.19C135.197 187.963 135.717 187.85 136.364 187.85C137.691 187.85 138.354 188.493 138.354 189.78V193H137.384V192.4C137.124 192.827 136.667 193.04 136.014 193.04C135.534 193.04 135.147 192.903 134.854 192.63C134.567 192.35 134.424 191.997 134.424 191.57C134.424 191.083 134.607 190.707 134.974 190.44C135.341 190.167 135.854 190.03 136.514 190.03H137.354V189.74C137.354 189.393 137.271 189.133 137.104 188.96C136.937 188.78 136.661 188.69 136.274 188.69C135.734 188.69 135.244 188.84 134.804 189.14ZM140.654 185.93V188.8C140.941 188.173 141.464 187.86 142.224 187.86C142.718 187.86 143.114 188.013 143.414 188.32C143.714 188.627 143.864 189.053 143.864 189.6V193H142.884V189.8C142.884 189.453 142.794 189.187 142.614 189C142.441 188.807 142.211 188.71 141.924 188.71C141.591 188.71 141.294 188.837 141.034 189.09C140.781 189.343 140.654 189.73 140.654 190.25V193H139.674V185.93H140.654ZM46.08 204.1V204.99C45.7533 204.797 45.3333 204.7 44.82 204.7C44.5867 204.7 44.4 204.753 44.26 204.86C44.1267 204.967 44.06 205.107 44.06 205.28C44.06 205.327 44.0633 205.373 44.07 205.42C44.0833 205.46 44.1033 205.503 44.13 205.55C44.1567 205.59 44.18 205.627 44.2 205.66C44.2267 205.687 44.2667 205.717 44.32 205.75C44.3733 205.783 44.4133 205.813 44.44 205.84C44.4733 205.86 44.5233 205.887 44.59 205.92C44.6633 205.953 44.7167 205.98 44.75 206C44.7833 206.013 44.84 206.04 44.92 206.08C45.0067 206.113 45.0667 206.137 45.1 206.15C45.4933 206.323 45.8 206.52 46.02 206.74C46.2467 206.953 46.36 207.24 46.36 207.6C46.36 208.053 46.2 208.41 45.88 208.67C45.56 208.923 45.1267 209.05 44.58 209.05C43.98 209.05 43.48 208.95 43.08 208.75V207.82C43.5467 208.107 44.03 208.25 44.53 208.25C44.79 208.25 44.99 208.197 45.13 208.09C45.2767 207.983 45.35 207.843 45.35 207.67C45.35 207.523 45.2933 207.393 45.18 207.28C45.0667 207.16 44.95 207.073 44.83 207.02C44.7167 206.96 44.52 206.87 44.24 206.75C43.4467 206.423 43.05 205.943 43.05 205.31C43.05 204.863 43.2167 204.513 43.55 204.26C43.8833 204.007 44.3 203.88 44.8 203.88C45.3467 203.88 45.7733 203.953 46.08 204.1ZM50.0495 206.74H49.2895C48.9161 206.74 48.6328 206.813 48.4395 206.96C48.2528 207.107 48.1595 207.293 48.1595 207.52C48.1595 207.753 48.2328 207.937 48.3795 208.07C48.5261 208.203 48.7395 208.27 49.0195 208.27C49.3395 208.27 49.5895 208.183 49.7695 208.01C49.9561 207.83 50.0495 207.597 50.0495 207.31V206.74ZM47.4995 205.14V204.19C47.8928 203.963 48.4128 203.85 49.0595 203.85C50.3861 203.85 51.0495 204.493 51.0495 205.78V209H50.0795V208.4C49.8195 208.827 49.3628 209.04 48.7095 209.04C48.2295 209.04 47.8428 208.903 47.5495 208.63C47.2628 208.35 47.1195 207.997 47.1195 207.57C47.1195 207.083 47.3028 206.707 47.6695 206.44C48.0361 206.167 48.5495 206.03 49.2095 206.03H50.0495V205.74C50.0495 205.393 49.9661 205.133 49.7995 204.96C49.6328 204.78 49.3561 204.69 48.9695 204.69C48.4295 204.69 47.9395 204.84 47.4995 205.14ZM52.3697 209V202H53.3497V209H52.3697ZM54.5197 206.35L56.5097 209H55.3397L53.3897 206.35L55.2997 203.93H56.4497L54.5197 206.35ZM57.4097 209V203.93H58.3997V209H57.4097ZM57.4597 202.82C57.3464 202.7 57.2897 202.553 57.2897 202.38C57.2897 202.207 57.3464 202.06 57.4597 201.94C57.5797 201.82 57.7264 201.76 57.8997 201.76C58.073 201.76 58.2197 201.82 58.3397 201.94C58.4597 202.06 58.5197 202.207 58.5197 202.38C58.5197 202.547 58.4597 202.69 58.3397 202.81C58.2197 202.93 58.073 202.99 57.8997 202.99C57.7264 202.99 57.5797 202.933 57.4597 202.82ZM61.0909 204.69V207.48C61.0909 207.967 61.3242 208.21 61.7909 208.21C62.0642 208.21 62.2942 208.137 62.4809 207.99V208.87C62.2609 208.99 61.9909 209.05 61.6709 209.05C60.6242 209.05 60.1009 208.52 60.1009 207.46V204.69H59.3109V203.93H60.1009V202.69H61.0909V203.93H62.4209V204.69H61.0909ZM68.912 204.1V204.99C68.5854 204.797 68.1654 204.7 67.652 204.7C67.4187 204.7 67.232 204.753 67.092 204.86C66.9587 204.967 66.892 205.107 66.892 205.28C66.892 205.327 66.8954 205.373 66.902 205.42C66.9154 205.46 66.9354 205.503 66.962 205.55C66.9887 205.59 67.012 205.627 67.032 205.66C67.0587 205.687 67.0987 205.717 67.152 205.75C67.2054 205.783 67.2454 205.813 67.272 205.84C67.3054 205.86 67.3554 205.887 67.422 205.92C67.4954 205.953 67.5487 205.98 67.582 206C67.6154 206.013 67.672 206.04 67.752 206.08C67.8387 206.113 67.8987 206.137 67.932 206.15C68.3254 206.323 68.632 206.52 68.852 206.74C69.0787 206.953 69.192 207.24 69.192 207.6C69.192 208.053 69.032 208.41 68.712 208.67C68.392 208.923 67.9587 209.05 67.412 209.05C66.812 209.05 66.312 208.95 65.912 208.75V207.82C66.3787 208.107 66.862 208.25 67.362 208.25C67.622 208.25 67.822 208.197 67.962 208.09C68.1087 207.983 68.182 207.843 68.182 207.67C68.182 207.523 68.1254 207.393 68.012 207.28C67.8987 207.16 67.782 207.073 67.662 207.02C67.5487 206.96 67.352 206.87 67.072 206.75C66.2787 206.423 65.882 205.943 65.882 205.31C65.882 204.863 66.0487 204.513 66.382 204.26C66.7154 204.007 67.132 203.88 67.632 203.88C68.1787 203.88 68.6054 203.953 68.912 204.1ZM73.3615 206.1V205.92C73.3482 205.54 73.2448 205.24 73.0515 205.02C72.8582 204.793 72.5815 204.68 72.2215 204.68C71.8882 204.68 71.6015 204.803 71.3615 205.05C71.1215 205.29 70.9715 205.64 70.9115 206.1H73.3615ZM73.9915 207.85V208.73C73.6182 208.943 73.1248 209.05 72.5115 209.05C71.7248 209.05 71.0982 208.813 70.6315 208.34C70.1648 207.867 69.9315 207.247 69.9315 206.48C69.9315 205.667 70.1448 205.03 70.5715 204.57C70.9982 204.103 71.5415 203.87 72.2015 203.87C72.8482 203.87 73.3615 204.073 73.7415 204.48C74.1215 204.88 74.3115 205.46 74.3115 206.22C74.3115 206.427 74.2915 206.643 74.2515 206.87H70.9215C70.9882 207.31 71.1748 207.647 71.4815 207.88C71.7882 208.113 72.1748 208.23 72.6415 208.23C73.1815 208.23 73.6315 208.103 73.9915 207.85ZM77.8554 208.21C78.2287 208.21 78.5421 208.053 78.7954 207.74C79.0487 207.42 79.1754 207.01 79.1754 206.51C79.1754 205.937 79.0487 205.497 78.7954 205.19C78.5421 204.877 78.2187 204.72 77.8254 204.72C77.4787 204.72 77.1654 204.86 76.8854 205.14C76.6121 205.42 76.4754 205.85 76.4754 206.43C76.4754 207.03 76.6087 207.477 76.8754 207.77C77.1421 208.063 77.4687 208.21 77.8554 208.21ZM76.4754 201.93V204.7C76.8354 204.14 77.3454 203.86 78.0054 203.86C78.6454 203.86 79.1687 204.1 79.5754 204.58C79.9821 205.06 80.1854 205.697 80.1854 206.49C80.1854 207.203 79.9921 207.813 79.6054 208.32C79.2187 208.82 78.6887 209.07 78.0154 209.07C77.3421 209.07 76.8287 208.79 76.4754 208.23V209H75.4854V201.93H76.4754ZM84.4357 206.1V205.92C84.4224 205.54 84.319 205.24 84.1257 205.02C83.9324 204.793 83.6557 204.68 83.2957 204.68C82.9624 204.68 82.6757 204.803 82.4357 205.05C82.1957 205.29 82.0457 205.64 81.9857 206.1H84.4357ZM85.0657 207.85V208.73C84.6924 208.943 84.199 209.05 83.5857 209.05C82.799 209.05 82.1724 208.813 81.7057 208.34C81.239 207.867 81.0057 207.247 81.0057 206.48C81.0057 205.667 81.219 205.03 81.6457 204.57C82.0724 204.103 82.6157 203.87 83.2757 203.87C83.9224 203.87 84.4357 204.073 84.8157 204.48C85.1957 204.88 85.3857 205.46 85.3857 206.22C85.3857 206.427 85.3657 206.643 85.3257 206.87H81.9957C82.0624 207.31 82.249 207.647 82.5557 207.88C82.8624 208.113 83.249 208.23 83.7157 208.23C84.2557 208.23 84.7057 208.103 85.0657 207.85ZM89.4296 204.1V204.99C89.1029 204.797 88.6829 204.7 88.1696 204.7C87.9363 204.7 87.7496 204.753 87.6096 204.86C87.4763 204.967 87.4096 205.107 87.4096 205.28C87.4096 205.327 87.4129 205.373 87.4196 205.42C87.4329 205.46 87.4529 205.503 87.4796 205.55C87.5063 205.59 87.5296 205.627 87.5496 205.66C87.5763 205.687 87.6163 205.717 87.6696 205.75C87.7229 205.783 87.7629 205.813 87.7896 205.84C87.8229 205.86 87.8729 205.887 87.9396 205.92C88.0129 205.953 88.0663 205.98 88.0996 206C88.1329 206.013 88.1896 206.04 88.2696 206.08C88.3563 206.113 88.4163 206.137 88.4496 206.15C88.8429 206.323 89.1496 206.52 89.3696 206.74C89.5963 206.953 89.7096 207.24 89.7096 207.6C89.7096 208.053 89.5496 208.41 89.2296 208.67C88.9096 208.923 88.4763 209.05 87.9296 209.05C87.3296 209.05 86.8296 208.95 86.4296 208.75V207.82C86.8963 208.107 87.3796 208.25 87.8796 208.25C88.1396 208.25 88.3396 208.197 88.4796 208.09C88.6263 207.983 88.6996 207.843 88.6996 207.67C88.6996 207.523 88.6429 207.393 88.5296 207.28C88.4163 207.16 88.2996 207.073 88.1796 207.02C88.0663 206.96 87.8696 206.87 87.5896 206.75C86.7963 206.423 86.3996 205.943 86.3996 205.31C86.3996 204.863 86.5663 204.513 86.8996 204.26C87.2329 204.007 87.6496 203.88 88.1496 203.88C88.6963 203.88 89.1229 203.953 89.4296 204.1ZM93.3991 206.74H92.6391C92.2657 206.74 91.9824 206.813 91.7891 206.96C91.6024 207.107 91.5091 207.293 91.5091 207.52C91.5091 207.753 91.5824 207.937 91.7291 208.07C91.8757 208.203 92.0891 208.27 92.3691 208.27C92.6891 208.27 92.9391 208.183 93.1191 208.01C93.3057 207.83 93.3991 207.597 93.3991 207.31V206.74ZM90.8491 205.14V204.19C91.2424 203.963 91.7624 203.85 92.4091 203.85C93.7357 203.85 94.3991 204.493 94.3991 205.78V209H93.4291V208.4C93.1691 208.827 92.7124 209.04 92.0591 209.04C91.5791 209.04 91.1924 208.903 90.8991 208.63C90.6124 208.35 90.4691 207.997 90.4691 207.57C90.4691 207.083 90.6524 206.707 91.0191 206.44C91.3857 206.167 91.8991 206.03 92.5591 206.03H93.3991V205.74C93.3991 205.393 93.3157 205.133 93.1491 204.96C92.9824 204.78 92.7057 204.69 92.3191 204.69C91.7791 204.69 91.2891 204.84 90.8491 205.14ZM96.6993 203.93V204.82C96.946 204.193 97.3893 203.88 98.0293 203.88C98.1226 203.88 98.226 203.89 98.3393 203.91V204.87C98.1993 204.81 98.0426 204.78 97.8693 204.78C97.5293 204.78 97.2493 204.93 97.0293 205.23C96.8093 205.53 96.6993 205.887 96.6993 206.3V209H95.7193V203.93H96.6993Z" fill="#2B2B2B"/>
<path d="M102.639 203.12V205.58H103.569C103.996 205.58 104.319 205.47 104.539 205.25C104.759 205.023 104.869 204.723 104.869 204.35C104.869 203.53 104.419 203.12 103.519 203.12H102.639ZM105.109 209L103.529 206.44H102.639V209H101.609V202.26H103.489C104.262 202.26 104.859 202.45 105.279 202.83C105.699 203.203 105.909 203.713 105.909 204.36C105.902 204.833 105.782 205.237 105.549 205.57C105.316 205.897 104.992 206.133 104.579 206.28L106.339 209H105.109ZM109.593 208.21C109.986 208.21 110.309 208.057 110.563 207.75C110.816 207.437 110.943 207 110.943 206.44C110.943 205.913 110.819 205.497 110.573 205.19C110.326 204.877 110.013 204.72 109.633 204.72C109.253 204.72 108.923 204.86 108.643 205.14C108.369 205.413 108.233 205.85 108.233 206.45C108.233 207.037 108.369 207.477 108.643 207.77C108.923 208.063 109.239 208.21 109.593 208.21ZM108.233 203.93V204.71C108.579 204.143 109.099 203.86 109.793 203.86C110.459 203.86 110.986 204.103 111.373 204.59C111.759 205.07 111.953 205.683 111.953 206.43C111.953 207.197 111.753 207.83 111.353 208.33C110.959 208.823 110.433 209.07 109.773 209.07C109.099 209.07 108.586 208.79 108.233 208.23V210.94H107.253V203.93H108.233ZM115.234 205.71C115.234 204.683 115.438 203.87 115.844 203.27C116.258 202.663 116.821 202.36 117.534 202.36C118.261 202.36 118.831 202.66 119.244 203.26C119.658 203.86 119.864 204.677 119.864 205.71C119.864 206.73 119.661 207.547 119.254 208.16C118.854 208.773 118.281 209.08 117.534 209.08C116.821 209.08 116.258 208.773 115.844 208.16C115.438 207.547 115.234 206.73 115.234 205.71ZM116.604 203.91C116.358 204.33 116.234 204.93 116.234 205.71C116.234 206.49 116.354 207.097 116.594 207.53C116.841 207.957 117.154 208.17 117.534 208.17C117.948 208.17 118.271 207.957 118.504 207.53C118.738 207.103 118.854 206.497 118.854 205.71C118.854 204.917 118.731 204.313 118.484 203.9C118.244 203.48 117.928 203.27 117.534 203.27C117.161 203.27 116.851 203.483 116.604 203.91ZM120.193 210.24L121.153 207.9H122.363L121.053 210.24H120.193ZM123.135 205.71C123.135 204.683 123.338 203.87 123.745 203.27C124.158 202.663 124.721 202.36 125.435 202.36C126.161 202.36 126.731 202.66 127.145 203.26C127.558 203.86 127.765 204.677 127.765 205.71C127.765 206.73 127.561 207.547 127.155 208.16C126.755 208.773 126.181 209.08 125.435 209.08C124.721 209.08 124.158 208.773 123.745 208.16C123.338 207.547 123.135 206.73 123.135 205.71ZM124.505 203.91C124.258 204.33 124.135 204.93 124.135 205.71C124.135 206.49 124.255 207.097 124.495 207.53C124.741 207.957 125.055 208.17 125.435 208.17C125.848 208.17 126.171 207.957 126.405 207.53C126.638 207.103 126.755 206.497 126.755 205.71C126.755 204.917 126.631 204.313 126.385 203.9C126.145 203.48 125.828 203.27 125.435 203.27C125.061 203.27 124.751 203.483 124.505 203.91ZM128.584 205.71C128.584 204.683 128.787 203.87 129.194 203.27C129.607 202.663 130.17 202.36 130.884 202.36C131.61 202.36 132.18 202.66 132.594 203.26C133.007 203.86 133.214 204.677 133.214 205.71C133.214 206.73 133.01 207.547 132.604 208.16C132.204 208.773 131.63 209.08 130.884 209.08C130.17 209.08 129.607 208.773 129.194 208.16C128.787 207.547 128.584 206.73 128.584 205.71ZM129.954 203.91C129.707 204.33 129.584 204.93 129.584 205.71C129.584 206.49 129.704 207.097 129.944 207.53C130.19 207.957 130.504 208.17 130.884 208.17C131.297 208.17 131.62 207.957 131.854 207.53C132.087 207.103 132.204 206.497 132.204 205.71C132.204 204.917 132.08 204.313 131.834 203.9C131.594 203.48 131.277 203.27 130.884 203.27C130.51 203.27 130.2 203.483 129.954 203.91ZM134.033 205.71C134.033 204.683 134.236 203.87 134.643 203.27C135.056 202.663 135.62 202.36 136.333 202.36C137.06 202.36 137.63 202.66 138.043 203.26C138.456 203.86 138.663 204.677 138.663 205.71C138.663 206.73 138.46 207.547 138.053 208.16C137.653 208.773 137.08 209.08 136.333 209.08C135.62 209.08 135.056 208.773 134.643 208.16C134.236 207.547 134.033 206.73 134.033 205.71ZM135.403 203.91C135.156 204.33 135.033 204.93 135.033 205.71C135.033 206.49 135.153 207.097 135.393 207.53C135.64 207.957 135.953 208.17 136.333 208.17C136.746 208.17 137.07 207.957 137.303 207.53C137.536 207.103 137.653 206.497 137.653 205.71C137.653 204.917 137.53 204.313 137.283 203.9C137.043 203.48 136.726 203.27 136.333 203.27C135.96 203.27 135.65 203.483 135.403 203.91ZM138.992 210.24L139.952 207.9H141.162L139.852 210.24H138.992ZM141.933 205.71C141.933 204.683 142.137 203.87 142.543 203.27C142.957 202.663 143.52 202.36 144.233 202.36C144.96 202.36 145.53 202.66 145.943 203.26C146.357 203.86 146.563 204.677 146.563 205.71C146.563 206.73 146.36 207.547 145.953 208.16C145.553 208.773 144.98 209.08 144.233 209.08C143.52 209.08 142.957 208.773 142.543 208.16C142.137 207.547 141.933 206.73 141.933 205.71ZM143.303 203.91C143.057 204.33 142.933 204.93 142.933 205.71C142.933 206.49 143.053 207.097 143.293 207.53C143.54 207.957 143.853 208.17 144.233 208.17C144.647 208.17 144.97 207.957 145.203 207.53C145.437 207.103 145.553 206.497 145.553 205.71C145.553 204.917 145.43 204.313 145.183 203.9C144.943 203.48 144.627 203.27 144.233 203.27C143.86 203.27 143.55 203.483 143.303 203.91ZM147.383 205.71C147.383 204.683 147.586 203.87 147.993 203.27C148.406 202.663 148.969 202.36 149.683 202.36C150.409 202.36 150.979 202.66 151.393 203.26C151.806 203.86 152.013 204.677 152.013 205.71C152.013 206.73 151.809 207.547 151.403 208.16C151.003 208.773 150.429 209.08 149.683 209.08C148.969 209.08 148.406 208.773 147.993 208.16C147.586 207.547 147.383 206.73 147.383 205.71ZM148.753 203.91C148.506 204.33 148.383 204.93 148.383 205.71C148.383 206.49 148.503 207.097 148.743 207.53C148.989 207.957 149.303 208.17 149.683 208.17C150.096 208.17 150.419 207.957 150.653 207.53C150.886 207.103 151.003 206.497 151.003 205.71C151.003 204.917 150.879 204.313 150.633 203.9C150.393 203.48 150.076 203.27 149.683 203.27C149.309 203.27 148.999 203.483 148.753 203.91ZM152.832 205.71C152.832 204.683 153.035 203.87 153.442 203.27C153.855 202.663 154.419 202.36 155.132 202.36C155.859 202.36 156.429 202.66 156.842 203.26C157.255 203.86 157.462 204.677 157.462 205.71C157.462 206.73 157.259 207.547 156.852 208.16C156.452 208.773 155.879 209.08 155.132 209.08C154.419 209.08 153.855 208.773 153.442 208.16C153.035 207.547 152.832 206.73 152.832 205.71ZM154.202 203.91C153.955 204.33 153.832 204.93 153.832 205.71C153.832 206.49 153.952 207.097 154.192 207.53C154.439 207.957 154.752 208.17 155.132 208.17C155.545 208.17 155.869 207.957 156.102 207.53C156.335 207.103 156.452 206.497 156.452 205.71C156.452 204.917 156.329 204.313 156.082 203.9C155.842 203.48 155.525 203.27 155.132 203.27C154.759 203.27 154.449 203.483 154.202 203.91Z" fill="#FF1934"/>
<rect x="43" y="230" width="120" height="24" rx="8" fill="#FF1934"/>
<path d="M90.1067 241.76L90.9867 241.76C91.4733 241.76 91.8433 241.64 92.0967 241.4C92.3567 241.16 92.4867 240.843 92.4867 240.45C92.4867 240.037 92.3567 239.71 92.0967 239.47C91.8367 239.23 91.46 239.11 90.9667 239.11L90.1067 239.11L90.1067 241.76ZM89.0767 238.26L91.0067 238.26C91.78 238.26 92.3933 238.467 92.8467 238.88C93.3 239.287 93.5267 239.81 93.5267 240.45C93.5267 241.09 93.2967 241.61 92.8367 242.01C92.3833 242.41 91.7933 242.61 91.0667 242.61L90.1067 242.61L90.1067 245L89.0767 245L89.0767 238.26ZM98.6247 242.44L98.6247 238.26L99.6547 238.26L99.6547 242.42C99.6547 243.293 99.4281 243.957 98.9747 244.41C98.5214 244.863 97.8947 245.09 97.0947 245.09C96.3081 245.09 95.6881 244.87 95.2347 244.43C94.7814 243.983 94.5547 243.34 94.5547 242.5L94.5547 238.26L95.5847 238.26L95.5847 242.49C95.5847 243.063 95.7214 243.483 95.9947 243.75C96.2747 244.01 96.6414 244.14 97.0947 244.14C98.1147 244.14 98.6247 243.573 98.6247 242.44ZM105.148 238.26L105.148 239.12L103.378 239.12L103.378 245L102.348 245L102.348 239.12L100.588 239.12L100.588 238.26L105.148 238.26ZM107.588 242.49L109.748 242.49L109.638 242.15C109.385 241.363 109.178 240.713 109.018 240.2C108.858 239.68 108.761 239.357 108.728 239.23L108.678 239.04C108.605 239.353 108.278 240.39 107.698 242.15L107.588 242.49ZM110.558 245L110.028 243.35L107.308 243.35L106.768 245L105.678 245L108.008 238.26L109.358 238.26L111.658 245L110.558 245ZM113.73 239.12L113.73 241.58L114.66 241.58C115.086 241.58 115.41 241.47 115.63 241.25C115.85 241.023 115.96 240.723 115.96 240.35C115.96 239.53 115.51 239.12 114.61 239.12L113.73 239.12ZM116.2 245L114.62 242.44L113.73 242.44L113.73 245L112.7 245L112.7 238.26L114.58 238.26C115.353 238.26 115.95 238.45 116.37 238.83C116.79 239.203 117 239.713 117 240.36C116.993 240.833 116.873 241.237 116.64 241.57C116.406 241.897 116.083 242.133 115.67 242.28L117.43 245L116.2 245Z" fill="white"/>
<g clip-path="url(#clip1_1124_4113)">
<path d="M295.367 262.133C337.341 262.133 371.367 228.047 371.367 186C371.367 143.953 337.341 109.867 295.367 109.867C253.394 109.867 219.367 143.953 219.367 186C219.367 228.047 253.394 262.133 295.367 262.133Z" fill="white"/>
<path d="M237.162 228.389C245.802 240.308 258.149 249.702 273.212 254.596C288.275 259.49 303.785 259.147 317.781 254.584L295.5 186L237.162 228.389Z" fill="#FF1934"/>
<path d="M317.788 254.582C331.793 250.047 344.543 241.208 353.852 228.395C363.161 215.582 367.628 200.724 367.613 186.003L295.501 186L317.788 254.582Z" fill="#008C1E"/>
<path d="M367.612 185.997C367.627 171.276 363.16 156.419 353.851 143.606C344.541 130.793 331.792 121.953 317.786 117.418L295.499 186L367.612 185.997Z" fill="#FF1934"/>
<path d="M318.115 117.75C304.119 113.186 288.608 112.843 273.546 117.738C258.483 122.632 246.136 132.026 237.495 143.945L295.834 186.334L318.115 117.75Z" fill="#008C1E"/>
<path d="M237.158 143.616C228.493 155.517 223.374 170.162 223.374 186C223.374 201.838 228.493 216.483 237.158 228.384L295.5 186L237.158 143.616Z" fill="#FF1934"/>
<path d="M318.261 254.44L296.182 186.501L367.617 186.501C367.617 186.331 367.627 186.17 367.627 186C367.627 185.83 367.617 185.67 367.617 185.499L296.192 185.499L318.261 117.56C317.94 117.45 317.629 117.34 317.309 117.24L295.23 185.189L237.439 143.205C237.239 143.476 237.048 143.746 236.858 144.017L294.639 186L236.858 227.984C237.048 228.254 237.239 228.535 237.439 228.795L295.23 186.812L317.309 254.76C317.629 254.66 317.94 254.54 318.261 254.44Z" fill="white"/>
<g opacity="0.32" style="mix-blend-mode:multiply">
<path d="M367.627 185.874C367.627 146.114 335.387 113.874 295.627 113.874C255.867 113.874 223.627 146.114 223.627 185.874C223.627 225.634 255.867 257.874 295.627 257.874C335.387 257.874 367.627 225.634 367.627 185.874ZM227.627 185.874C227.627 148.314 258.067 117.874 295.627 117.874C333.187 117.874 363.627 148.314 363.627 185.874C363.627 223.434 333.187 253.874 295.627 253.874C258.067 253.874 227.627 223.434 227.627 185.874Z" fill="#2B2B2B"/>
</g>
<path d="M287.515 185.986C287.515 190.404 291.096 193.986 295.515 193.986C299.933 193.986 303.515 190.404 303.515 185.986C303.515 181.568 299.933 177.986 295.515 177.986C291.096 177.986 287.515 181.568 287.515 185.986Z" fill="white"/>
<path d="M276.52 233.172L277.68 233.549C277.24 233.932 276.933 234.393 276.758 234.932C276.661 235.23 276.651 235.486 276.729 235.701C276.808 235.909 276.953 236.047 277.162 236.115C277.371 236.183 277.574 236.151 277.772 236.019C277.964 235.878 278.202 235.654 278.484 235.346C278.681 235.129 278.849 234.956 278.99 234.827C279.123 234.695 279.296 234.562 279.508 234.427C279.722 234.287 279.951 234.207 280.196 234.188C280.436 234.161 280.692 234.192 280.965 234.28C281.536 234.466 281.925 234.82 282.134 235.343C282.338 235.858 282.332 236.449 282.116 237.115C281.881 237.837 281.55 238.392 281.123 238.779L279.896 238.38C280.466 237.963 280.856 237.431 281.066 236.784C281.161 236.492 281.168 236.235 281.086 236.012C280.998 235.787 280.833 235.636 280.592 235.558C280.478 235.52 280.369 235.51 280.266 235.525C280.163 235.541 280.044 235.604 279.91 235.715C279.778 235.819 279.681 235.903 279.618 235.967C279.557 236.024 279.439 236.15 279.264 236.346C279.211 236.399 279.174 236.439 279.151 236.467C278.967 236.666 278.81 236.825 278.68 236.945C278.544 237.062 278.375 237.182 278.173 237.306C277.972 237.43 277.755 237.503 277.524 237.526C277.294 237.542 277.049 237.508 276.789 237.424C276.244 237.247 275.871 236.905 275.671 236.398C275.474 235.885 275.483 235.296 275.699 234.63C275.895 234.028 276.168 233.542 276.52 233.172ZM281.198 231.395L281.785 229.588L281.472 229.581C280.717 229.574 280.086 229.565 279.577 229.554C279.065 229.535 278.743 229.522 278.613 229.514L278.41 229.491C278.709 229.651 279.555 230.227 280.95 231.22L281.198 231.395ZM284.467 229.618L282.864 229.602L282.076 232.027L283.382 232.957L282.974 234.212L277.269 229.961L277.773 228.411L284.887 228.325L284.467 229.618ZM285.186 227.404L278.776 225.321L279.166 224.123L285.576 226.206L285.186 227.404ZM282.875 223.646L286.846 222.297L286.355 223.809L282.43 225.079L279.917 221.812L280.383 220.376L282.875 223.646ZM287.152 221.356L280.741 219.273L281.131 218.075L287.541 220.158L287.152 221.356ZM282.902 212.623L283.891 212.945L283.363 214.571L288.784 216.332L288.391 217.54L282.97 215.779L282.442 217.405L281.453 217.084L282.902 212.623Z" fill="white"/>
<path d="M283.634 137.546L282.474 137.923C282.605 137.355 282.583 136.801 282.408 136.263C282.311 135.965 282.168 135.752 281.979 135.624C281.793 135.502 281.595 135.475 281.385 135.543C281.176 135.611 281.031 135.757 280.949 135.979C280.875 136.207 280.815 136.528 280.768 136.943C280.736 137.233 280.701 137.472 280.664 137.66C280.633 137.845 280.571 138.054 280.479 138.288C280.389 138.527 280.25 138.726 280.063 138.885C279.885 139.048 279.66 139.174 279.387 139.263C278.816 139.448 278.293 139.39 277.817 139.09C277.349 138.793 277.007 138.312 276.79 137.646C276.555 136.923 276.497 136.28 276.615 135.716L277.842 135.317C277.626 135.99 277.623 136.65 277.833 137.297C277.928 137.588 278.074 137.8 278.271 137.932C278.475 138.063 278.697 138.089 278.938 138.01C279.052 137.973 279.146 137.918 279.221 137.845C279.295 137.772 279.354 137.651 279.397 137.482C279.443 137.32 279.472 137.195 279.486 137.107C279.501 137.025 279.522 136.853 279.55 136.592C279.561 136.518 279.567 136.463 279.57 136.428C279.601 136.158 279.635 135.937 279.67 135.764C279.711 135.59 279.777 135.393 279.867 135.174C279.957 134.956 280.089 134.769 280.263 134.614C280.44 134.466 280.658 134.35 280.918 134.265C281.463 134.088 281.965 134.146 282.425 134.438C282.886 134.737 283.225 135.219 283.441 135.885C283.637 136.487 283.701 137.041 283.634 137.546ZM279.303 141.788L280.153 144.403L279.173 144.722L277.931 140.899L284.341 138.816L285.571 142.601L284.592 142.919L283.754 140.342L282.014 140.907L282.758 143.199L281.788 143.515L281.044 141.223L279.303 141.788ZM287.219 147.673L287.612 148.881L281.202 150.964L280.809 149.756L283.501 148.881L282.645 146.247L279.953 147.121L279.564 145.923L285.974 143.84L286.363 145.039L283.681 145.91L284.537 148.545L287.219 147.673ZM284.597 153.13L285.184 154.937L285.442 154.758C286.056 154.32 286.573 153.956 286.99 153.666C287.416 153.381 287.684 153.203 287.794 153.132L287.972 153.032C287.636 153.078 286.613 153.109 284.901 153.126L284.597 153.13ZM282.997 156.489L284.303 155.559L283.515 153.134L281.912 153.15L281.504 151.895L288.619 151.981L289.123 153.531L283.417 157.782L282.997 156.489ZM291.44 160.662L290.451 160.984L289.922 159.357L284.501 161.119L284.109 159.911L289.53 158.149L289.001 156.523L289.99 156.202L291.44 160.662Z" fill="white"/>
<path d="M244.772 182.526V183.746C244.272 183.446 243.738 183.296 243.172 183.296C242.858 183.296 242.612 183.366 242.432 183.506C242.258 183.646 242.172 183.826 242.172 184.046C242.172 184.266 242.265 184.449 242.452 184.596C242.645 184.736 242.932 184.893 243.312 185.066C243.578 185.186 243.795 185.293 243.962 185.386C244.128 185.473 244.308 185.596 244.502 185.756C244.702 185.916 244.848 186.109 244.942 186.336C245.042 186.556 245.092 186.809 245.092 187.096C245.092 187.696 244.875 188.176 244.442 188.536C244.015 188.889 243.452 189.066 242.752 189.066C241.992 189.066 241.362 188.923 240.862 188.636V187.346C241.435 187.759 242.062 187.966 242.742 187.966C243.048 187.966 243.295 187.893 243.482 187.746C243.668 187.593 243.762 187.389 243.762 187.136C243.762 187.016 243.738 186.909 243.692 186.816C243.645 186.723 243.548 186.629 243.402 186.536C243.262 186.443 243.152 186.376 243.072 186.336C242.998 186.296 242.842 186.223 242.602 186.116C242.535 186.083 242.485 186.059 242.452 186.046C242.205 185.933 242.005 185.833 241.852 185.746C241.698 185.653 241.532 185.529 241.352 185.376C241.172 185.223 241.035 185.039 240.942 184.826C240.855 184.613 240.812 184.369 240.812 184.096C240.812 183.523 241.022 183.063 241.442 182.716C241.868 182.369 242.432 182.196 243.132 182.196C243.765 182.196 244.312 182.306 244.772 182.526ZM247.908 186.426H249.808L249.718 186.126C249.491 185.406 249.304 184.803 249.158 184.316C249.018 183.823 248.931 183.513 248.898 183.386L248.858 183.186C248.798 183.519 248.511 184.503 247.998 186.136L247.908 186.426ZM250.608 188.986L250.128 187.456H247.578L247.098 188.986H245.778L248.058 182.246H249.688L251.968 188.986H250.608ZM252.936 188.986V182.246H254.196V188.986H252.936ZM255.796 185.626L258.306 188.986H256.716L254.296 185.646L256.626 182.246H258.136L255.796 185.626ZM259.295 188.986V182.246H260.555V188.986H259.295ZM266.287 182.246V183.286H264.577V188.986H263.307V183.286H261.597V182.246H266.287Z" fill="white"/>
</g>
<g clip-path="url(#clip2_1124_4113)">
<path d="M214.81 197.01L214.81 195.56L230 186.16L214.81 176.77L214.81 175.32L212.12 174.58C211.16 174.32 210.13 174.67 209.55 175.48C207.3 178.59 206 182.24 206 186.16C206 190.08 207.3 193.73 209.55 196.84C210.13 197.65 211.16 198 212.12 197.74L214.81 197L214.81 197.01Z" fill="#D9AA16"/>
<path d="M214.81 175.32L212.7 174.74C212.17 174.6 212.04 175.06 212.53 175.36L214.82 176.77L214.82 175.32L214.81 175.32Z" fill="#B76F09"/>
<path d="M214.81 197.01L212.7 197.59C212.17 197.73 212.04 197.27 212.53 196.97L214.82 195.56L214.82 197.01L214.81 197.01Z" fill="#B76F09"/>
<path d="M208 186.16C208 182.84 209.05 179.63 211.06 176.8L226.2 186.16L211.06 195.52C209.05 192.69 208 189.48 208 186.16Z" fill="white"/>
</g>
<path d="M9 341.5H329C333.694 341.5 337.5 345.306 337.5 350C337.5 354.694 333.694 358.5 329 358.5H9C4.30558 358.5 0.5 354.694 0.5 350C0.500002 345.306 4.30558 341.5 9 341.5Z" fill="white"/>
<path d="M9 341.5H329C333.694 341.5 337.5 345.306 337.5 350C337.5 354.694 333.694 358.5 329 358.5H9C4.30558 358.5 0.5 354.694 0.5 350C0.500002 345.306 4.30558 341.5 9 341.5Z" stroke="#CCCCCC"/>
<path d="M7.86805e-07 350C3.52265e-07 345.029 4.02944 341 9 341L39 341C43.9706 341 48 345.029 48 350C48 354.971 43.9706 359 39 359L9 359C4.02944 359 1.22135e-06 354.971 7.86805e-07 350Z" fill="#FF1934"/>
<path d="M15.448 346.688H16.264L16.816 348.6L17.456 350.92C17.5893 350.179 17.7547 349.403 17.952 348.592L18.44 346.608H19.464L18.088 352H16.92L16.432 350.296C16.2987 349.843 16.184 349.443 16.088 349.096C15.9973 348.749 15.936 348.517 15.904 348.4L15.864 348.216C15.7893 348.589 15.6027 349.283 15.304 350.296L14.8 352H13.64L12.2 346.608H13.264L13.768 348.6C13.8533 348.957 13.9387 349.328 14.024 349.712C14.1093 350.096 14.1733 350.389 14.216 350.592L14.28 350.904C14.4507 350.232 14.6587 349.464 14.904 348.6L15.448 346.688ZM22.2561 350.256H21.7601C21.5094 350.256 21.3174 350.309 21.1841 350.416C21.0507 350.517 20.9841 350.648 20.9841 350.808C20.9841 351.149 21.1814 351.32 21.5761 351.32C21.7894 351.32 21.9547 351.259 22.0721 351.136C22.1947 351.008 22.2561 350.843 22.2561 350.64V350.256ZM20.2881 349.04V348.152C20.5921 347.965 21.0294 347.872 21.6001 347.872C22.6987 347.872 23.2481 348.384 23.2481 349.408V352H22.2961V351.512C22.1094 351.859 21.7574 352.032 21.2401 352.032C20.8561 352.032 20.5494 351.92 20.3201 351.696C20.0961 351.472 19.9841 351.189 19.9841 350.848C19.9841 350.464 20.1281 350.163 20.4161 349.944C20.7041 349.725 21.1201 349.616 21.6641 349.616H22.2561V349.368C22.2561 349.144 22.1974 348.973 22.0801 348.856C21.9627 348.739 21.7627 348.68 21.4801 348.68C21.0481 348.68 20.6507 348.8 20.2881 349.04ZM27.7828 352H26.6548L25.1988 349.904V352H24.2388V346.44H25.1988V349.848L26.6308 347.944H27.7508L26.2628 349.88L27.7828 352ZM29.5864 348.664V350.728C29.5864 350.899 29.6318 351.029 29.7224 351.12C29.8131 351.205 29.9384 351.248 30.0984 351.248C30.3011 351.248 30.4878 351.192 30.6584 351.08V351.904C30.4718 351.995 30.2318 352.04 29.9384 352.04C29.0638 352.04 28.6264 351.597 28.6264 350.712V348.664H28.0184V347.944H28.6264V346.968H29.5864V347.944H30.5944V348.664H29.5864ZM33.9617 347.944H34.9297V352H33.9617V351.336C33.7484 351.805 33.3324 352.04 32.7137 352.04C32.303 352.04 31.983 351.923 31.7537 351.688C31.5244 351.453 31.4097 351.12 31.4097 350.688V347.944H32.3697V350.464C32.3697 350.72 32.431 350.915 32.5537 351.048C32.6817 351.181 32.855 351.248 33.0737 351.248C33.351 351.248 33.567 351.155 33.7217 350.968C33.8817 350.781 33.9617 350.499 33.9617 350.12V347.944Z" fill="white"/>
<rect x="56" y="348" width="274" height="4" rx="2" fill="#CCCCCC"/>
<mask id="mask0_1124_4113" style="mask-type:alpha" maskUnits="userSpaceOnUse" x="56" y="348" width="274" height="4">
<rect x="56" y="348" width="274" height="4" rx="2" fill="#CCCCCC"/>
</mask>
<g mask="url(#mask0_1124_4113)">
<rect x="56" y="348" width="274" height="4" rx="2" fill="#FF1934"/>
</g>
<defs>
<filter id="filter0_d_1124_4113" x="22.5" y="14" width="293" height="56" filterUnits="userSpaceOnUse" color-interpolation-filters="sRGB">
<feFlood flood-opacity="0" result="BackgroundImageFix"/>
<feColorMatrix in="SourceAlpha" type="matrix" values="0 0 0 0 0 0 0 0 0 0 0 0 0 0 0 0 0 0 127 0" result="hardAlpha"/>
<feOffset dy="2"/>
<feGaussianBlur stdDeviation="2"/>
<feComposite in2="hardAlpha" operator="out"/>
<feColorMatrix type="matrix" values="0 0 0 0 0.168627 0 0 0 0 0.168627 0 0 0 0 0.168627 0 0 0 0.24 0"/>
<feBlend mode="normal" in2="BackgroundImageFix" result="effect1_dropShadow_1124_4113"/>
<feBlend mode="normal" in="SourceGraphic" in2="effect1_dropShadow_1124_4113" result="shape"/>
</filter>
<clipPath id="clip0_1124_4113">
<rect width="24" height="24" fill="white" transform="translate(42.5 32)"/>
</clipPath>
<clipPath id="clip1_1124_4113">
<rect width="104" height="152" fill="white" transform="translate(191.5 110)"/>
</clipPath>
<clipPath id="clip2_1124_4113">
<rect width="23.33" height="24" fill="white" transform="translate(230 174.5) rotate(90)"/>
</clipPath>
</defs>
</svg>
