<svg width="338" height="375" viewBox="0 0 338 375" fill="none" xmlns="http://www.w3.org/2000/svg">
<rect width="338" height="375" fill="#D3D3D3"/>
<rect x="26.5" y="16" width="285" height="294" rx="16" fill="white"/>
<g filter="url(#filter0_d_1124_4113)">
<path d="M26.5 32C26.5 23.1634 33.6634 16 42.5 16H295.5C304.337 16 311.5 23.1634 311.5 32V64H26.5V32Z" fill="#FF1934" shape-rendering="crispEdges"/>
<g clip-path="url(#clip0_1124_4113)">
<path d="M54.5 34C48.99 34 44.5 38.49 44.5 44C44.5 46.27 45.24 48.41 46.64 50.18C46.91 50.53 47.42 50.59 47.76 50.31C48.11 50.04 48.17 49.53 47.89 49.19C46.71 47.7 46.09 45.9 46.09 44C46.1 39.37 49.87 35.6 54.5 35.6C59.13 35.6 62.9 39.37 62.9 44C62.9 48.63 59.13 52.4 54.5 52.4C52.82 52.4 51.19 51.9 49.8 50.97C49.43 50.72 48.94 50.82 48.69 51.18C48.44 51.54 48.54 52.04 48.9 52.29C50.56 53.41 52.49 54 54.49 54C60 54 64.49 49.51 64.49 44C64.49 38.49 60.01 34 54.5 34Z" fill="white"/>
<path d="M58.2402 38.14C57.8702 37.9 57.3702 38.01 57.1302 38.38L53.8202 43.57C53.7402 43.7 53.7002 43.85 53.7002 44V48C53.7002 48.44 54.0602 48.8 54.5002 48.8C54.9402 48.8 55.3002 48.44 55.3002 48V44.23L58.4902 39.24C58.7302 38.87 58.6202 38.37 58.2502 38.13L58.2402 38.14Z" fill="white"/>
</g>
<path d="M77.566 46.11H81.052V48H75.41V38.564H77.566V46.11ZM82.2459 48V40.902H84.2899V48H82.2459ZM82.4279 39.684C82.1946 39.4507 82.0779 39.1707 82.0779 38.844C82.0779 38.5173 82.1946 38.2373 82.4279 38.004C82.6613 37.7707 82.9413 37.654 83.2679 37.654C83.5946 37.654 83.8746 37.7707 84.1079 38.004C84.3413 38.2373 84.4579 38.5173 84.4579 38.844C84.4579 39.1707 84.3413 39.4507 84.1079 39.684C83.8746 39.9173 83.5946 40.034 83.2679 40.034C82.9413 40.034 82.6613 39.9173 82.4279 39.684ZM88.0891 40.902V42.106C88.2664 41.714 88.5371 41.406 88.9011 41.182C89.2744 40.9487 89.7177 40.832 90.2311 40.832C90.9591 40.832 91.5284 41.0513 91.9391 41.49C92.3497 41.9193 92.5551 42.554 92.5551 43.394V48H90.5111V43.772C90.5111 43.352 90.4131 43.0347 90.2171 42.82C90.0211 42.596 89.7457 42.484 89.3911 42.484C89.0177 42.484 88.7051 42.6333 88.4531 42.932C88.2104 43.2213 88.0891 43.66 88.0891 44.248V48H86.0451V40.902H88.0891ZM94.2362 48V40.902H96.2802V48H94.2362ZM94.4182 39.684C94.1848 39.4507 94.0682 39.1707 94.0682 38.844C94.0682 38.5173 94.1848 38.2373 94.4182 38.004C94.6515 37.7707 94.9315 37.654 95.2582 37.654C95.5848 37.654 95.8648 37.7707 96.0982 38.004C96.3315 38.2373 96.4482 38.5173 96.4482 38.844C96.4482 39.1707 96.3315 39.4507 96.0982 39.684C95.8648 39.9173 95.5848 40.034 95.2582 40.034C94.9315 40.034 94.6515 39.9173 94.4182 39.684ZM101.395 48L102.207 38.564H104.573L105.889 41.98C106.113 42.5493 106.305 43.072 106.463 43.548C106.622 44.024 106.725 44.36 106.771 44.556L106.841 44.836C106.991 44.22 107.317 43.268 107.821 41.98L109.151 38.564H111.517L112.497 48H110.341L109.991 44.346L109.809 41.588C109.567 42.288 109.231 43.2073 108.801 44.346L107.471 47.902H106.197L104.881 44.346C104.667 43.7673 104.485 43.2493 104.335 42.792C104.186 42.3347 104.088 42.0173 104.041 41.84L103.971 41.588C103.971 42.2507 103.929 43.17 103.845 44.346L103.551 48H101.395ZM117.545 45.088H116.887C116.542 45.088 116.276 45.1627 116.089 45.312C115.903 45.4613 115.809 45.6527 115.809 45.886C115.809 46.362 116.085 46.6 116.635 46.6C116.925 46.6 117.149 46.5113 117.307 46.334C117.466 46.1567 117.545 45.914 117.545 45.606V45.088ZM114.227 43.086V41.252C114.787 40.9347 115.595 40.776 116.649 40.776C117.657 40.776 118.409 40.9953 118.903 41.434C119.398 41.8633 119.645 42.5353 119.645 43.45V48H117.643V47.132C117.345 47.7387 116.757 48.042 115.879 48.042C115.189 48.042 114.647 47.846 114.255 47.454C113.873 47.062 113.681 46.572 113.681 45.984C113.681 45.3027 113.929 44.7753 114.423 44.402C114.927 44.0193 115.669 43.828 116.649 43.828H117.545V43.338C117.545 42.7407 117.149 42.442 116.355 42.442C115.59 42.442 114.881 42.6567 114.227 43.086ZM125.73 41.112V42.862C125.235 42.5727 124.657 42.428 123.994 42.428C123.751 42.428 123.565 42.4793 123.434 42.582C123.303 42.6753 123.238 42.7967 123.238 42.946C123.238 43.03 123.261 43.1093 123.308 43.184C123.355 43.2587 123.429 43.3287 123.532 43.394C123.644 43.4593 123.747 43.52 123.84 43.576C123.943 43.6227 124.078 43.6833 124.246 43.758C124.423 43.8327 124.563 43.898 124.666 43.954C125.095 44.178 125.441 44.4393 125.702 44.738C125.963 45.0273 126.094 45.4007 126.094 45.858C126.094 46.558 125.842 47.0993 125.338 47.482C124.834 47.8647 124.167 48.056 123.336 48.056C122.477 48.056 121.759 47.9113 121.18 47.622V45.802C121.824 46.25 122.505 46.474 123.224 46.474C123.737 46.474 123.994 46.3107 123.994 45.984C123.994 45.9 123.971 45.8207 123.924 45.746C123.877 45.6713 123.798 45.6013 123.686 45.536C123.574 45.4707 123.471 45.4193 123.378 45.382C123.285 45.3353 123.149 45.2747 122.972 45.2C122.795 45.1253 122.659 45.0647 122.566 45.018C121.623 44.57 121.152 43.898 121.152 43.002C121.152 42.3113 121.413 41.7747 121.936 41.392C122.468 41.0093 123.126 40.818 123.91 40.818C124.638 40.818 125.245 40.916 125.73 41.112ZM130.862 45.088H130.204C129.858 45.088 129.592 45.1627 129.406 45.312C129.219 45.4613 129.126 45.6527 129.126 45.886C129.126 46.362 129.401 46.6 129.952 46.6C130.241 46.6 130.465 46.5113 130.624 46.334C130.782 46.1567 130.862 45.914 130.862 45.606V45.088ZM127.544 43.086V41.252C128.104 40.9347 128.911 40.776 129.966 40.776C130.974 40.776 131.725 40.9953 132.22 41.434C132.714 41.8633 132.962 42.5353 132.962 43.45V48H130.96V47.132C130.661 47.7387 130.073 48.042 129.196 48.042C128.505 48.042 127.964 47.846 127.572 47.454C127.189 47.062 126.998 46.572 126.998 45.984C126.998 45.3027 127.245 44.7753 127.74 44.402C128.244 44.0193 128.986 43.828 129.966 43.828H130.862V43.338C130.862 42.7407 130.465 42.442 129.672 42.442C128.906 42.442 128.197 42.6567 127.544 43.086Z" fill="white"/>
</g>
<g clip-path="url(#clip1_1124_4113)">
<path d="M169 122.65C160.603 122.65 152.56 123.191 150.726 123.994C148.431 124.997 156.353 126.017 169 126.017C181.647 126.017 189.568 124.997 187.274 123.994C185.439 123.192 177.396 122.65 169 122.65Z" fill="#CCCCCC"/>
<path d="M172.908 90.1771L177.215 93.1189L177.882 92.6364L173.114 89.3799L172.908 90.1771Z" fill="#D9AA16"/>
<path d="M159.1 115.018C167.439 120.713 177.722 120.173 182.067 113.812C186.412 107.45 183.174 97.6754 174.834 91.9798C166.495 86.2842 156.212 86.8242 151.867 93.1859C147.522 99.5477 150.76 109.322 159.1 115.018Z" fill="#DA011C"/>
<path d="M159.615 114.477C162.544 116.457 165.955 117.775 169.456 118.08C172.958 118.384 176.016 117.63 178.346 116.109L166.967 103.498L159.614 114.476L159.615 114.477Z" fill="#FF1934"/>
<path d="M178.267 116.161C180.618 114.661 182.289 112.362 182.875 109.418C183.461 106.475 182.873 103.335 181.403 100.414L166.967 103.499L178.267 116.161Z" fill="#D9AA16"/>
<path d="M151.061 97.5802C150.514 100.314 150.949 103.439 152.529 106.585C154.109 109.731 156.595 112.418 159.515 114.41L166.967 103.499L151.062 97.5806L151.061 97.5802Z" fill="#1699D9"/>
<path d="M181.403 100.414C179.938 97.4914 177.563 94.7327 174.421 92.5864C171.278 90.4402 167.845 89.2316 164.589 88.9303L166.967 103.499L181.403 100.414Z" fill="#CC0BD9"/>
<path d="M164.478 88.92C161.225 88.6341 158.096 89.2501 155.585 90.8862C153.074 92.5224 151.562 94.9298 151.043 97.6733L166.966 103.499L164.478 88.92Z" fill="#008C1E"/>
<path d="M151.042 97.6728L166.797 103.536L159.416 114.342C159.449 114.365 159.481 114.389 159.514 114.412C159.547 114.435 159.581 114.455 159.615 114.478L166.995 103.671L178.189 116.214C178.242 116.18 178.297 116.148 178.35 116.114L167.155 103.569L181.454 100.513C181.421 100.447 181.385 100.38 181.352 100.315L167.055 103.37L164.7 88.9416C164.626 88.9342 164.552 88.9249 164.478 88.919L166.834 103.35L151.076 97.4856C151.063 97.5477 151.053 97.6104 151.042 97.6728Z" fill="white"/>
<g style="mix-blend-mode:multiply" opacity="0.32">
<path d="M159.514 114.411C167.415 119.807 177.156 119.296 181.272 113.269C185.388 107.242 182.321 97.9823 174.42 92.5864C166.52 87.1905 156.778 87.702 152.662 93.729C148.546 99.7559 151.613 109.016 159.514 114.411ZM174.006 93.1923C181.468 98.2883 184.365 107.034 180.478 112.726C176.59 118.419 167.39 118.902 159.928 113.806C152.466 108.709 149.569 99.9638 153.457 94.2715C157.344 88.5791 166.544 88.096 174.006 93.1923Z" fill="#2B2B2B"/>
</g>
<path d="M166.139 104.711C167.017 105.311 168.099 105.254 168.556 104.584C169.014 103.915 168.673 102.886 167.795 102.287C166.918 101.687 165.835 101.744 165.378 102.414C164.921 103.083 165.262 104.112 166.139 104.711Z" fill="white"/>
<path d="M177.882 92.6362C177.511 91.7422 176.864 90.9214 175.973 90.3128C175.082 89.7043 174.081 89.4 173.114 89.3796L173.489 93.9502L177.882 92.6362Z" fill="#D9AA16"/>
<path d="M173.114 89.3799L172.908 90.1771L173.196 90.3738L173.114 89.3799Z" fill="#D9AA16"/>
<path d="M177.214 93.1188C177.214 93.1188 177.464 92.9378 177.548 92.8774C177.632 92.817 177.553 92.7341 177.444 92.767C177.314 92.8057 176.927 92.9217 176.927 92.9217L177.215 93.1184L177.214 93.1188Z" fill="#B76F09"/>
<path d="M172.907 90.1769C172.907 90.1769 172.985 89.8782 173.011 89.7781C173.037 89.678 173.143 89.7214 173.152 89.8353C173.163 89.9699 173.196 90.3732 173.196 90.3732L172.908 90.1765L172.907 90.1769Z" fill="#B76F09"/>
<path d="M175.766 90.616C176.426 91.0669 176.953 91.6615 177.308 92.3495L173.882 93.3741L173.59 89.8098C174.36 89.8899 175.105 90.1652 175.766 90.616Z" fill="white"/>
</g>
<path d="M80.3753 144.49H82.5353L82.4253 144.15C82.1719 143.363 81.9653 142.713 81.8053 142.2C81.6453 141.68 81.5486 141.357 81.5153 141.23L81.4653 141.04C81.3919 141.353 81.0653 142.39 80.4853 144.15L80.3753 144.49ZM83.3453 147L82.8153 145.35H80.0953L79.5553 147H78.4653L80.7953 140.26H82.1453L84.4453 147H83.3453ZM86.4268 141.93V142.8C86.7268 142.173 87.2535 141.86 88.0068 141.86C88.5068 141.86 88.9035 142.013 89.1968 142.32C89.4902 142.627 89.6368 143.043 89.6368 143.57V147H88.6568V143.8C88.6568 143.447 88.5668 143.177 88.3868 142.99C88.2135 142.803 87.9802 142.71 87.6868 142.71C87.3402 142.71 87.0435 142.847 86.7968 143.12C86.5502 143.387 86.4268 143.763 86.4268 144.25V147H85.4468V141.93H86.4268ZM93.0046 146.21C93.3913 146.21 93.718 146.063 93.9846 145.77C94.2513 145.477 94.3846 145.03 94.3846 144.43C94.3846 143.85 94.2446 143.42 93.9646 143.14C93.6913 142.86 93.3813 142.72 93.0346 142.72C92.6413 142.72 92.318 142.877 92.0646 143.19C91.8113 143.497 91.6846 143.937 91.6846 144.51C91.6846 145.017 91.808 145.427 92.0546 145.74C92.308 146.053 92.6246 146.21 93.0046 146.21ZM94.3846 139.93H95.3746V147H94.3846V146.23C94.0313 146.79 93.5146 147.07 92.8346 147.07C92.168 147.07 91.6413 146.82 91.2546 146.32C90.868 145.813 90.6746 145.203 90.6746 144.49C90.6746 143.697 90.878 143.06 91.2846 142.58C91.6913 142.1 92.2146 141.86 92.8546 141.86C93.5146 141.86 94.0246 142.14 94.3846 142.7V139.93ZM99.4254 144.74H98.6654C98.2921 144.74 98.0088 144.813 97.8154 144.96C97.6288 145.107 97.5354 145.293 97.5354 145.52C97.5354 145.753 97.6088 145.937 97.7554 146.07C97.9021 146.203 98.1154 146.27 98.3954 146.27C98.7154 146.27 98.9654 146.183 99.1454 146.01C99.3321 145.83 99.4254 145.597 99.4254 145.31V144.74ZM96.8754 143.14V142.19C97.2688 141.963 97.7888 141.85 98.4354 141.85C99.7621 141.85 100.425 142.493 100.425 143.78V147H99.4554V146.4C99.1954 146.827 98.7388 147.04 98.0854 147.04C97.6054 147.04 97.2188 146.903 96.9254 146.63C96.6388 146.35 96.4954 145.997 96.4954 145.57C96.4954 145.083 96.6788 144.707 97.0454 144.44C97.4121 144.167 97.9254 144.03 98.5854 144.03H99.4254V143.74C99.4254 143.393 99.3421 143.133 99.1754 142.96C99.0088 142.78 98.7321 142.69 98.3454 142.69C97.8054 142.69 97.3154 142.84 96.8754 143.14ZM105.187 139.93V142.8C105.473 142.173 105.997 141.86 106.757 141.86C107.25 141.86 107.647 142.013 107.947 142.32C108.247 142.627 108.397 143.053 108.397 143.6V147H107.417V143.8C107.417 143.453 107.327 143.187 107.147 143C106.973 142.807 106.743 142.71 106.457 142.71C106.123 142.71 105.827 142.837 105.567 143.09C105.313 143.343 105.187 143.73 105.187 144.25V147H104.207V139.93H105.187ZM112.384 144.74H111.624C111.251 144.74 110.968 144.813 110.774 144.96C110.588 145.107 110.494 145.293 110.494 145.52C110.494 145.753 110.568 145.937 110.714 146.07C110.861 146.203 111.074 146.27 111.354 146.27C111.674 146.27 111.924 146.183 112.104 146.01C112.291 145.83 112.384 145.597 112.384 145.31V144.74ZM109.834 143.14V142.19C110.228 141.963 110.748 141.85 111.394 141.85C112.721 141.85 113.384 142.493 113.384 143.78V147H112.414V146.4C112.154 146.827 111.698 147.04 111.044 147.04C110.564 147.04 110.178 146.903 109.884 146.63C109.598 146.35 109.454 145.997 109.454 145.57C109.454 145.083 109.638 144.707 110.004 144.44C110.371 144.167 110.884 144.03 111.544 144.03H112.384V143.74C112.384 143.393 112.301 143.133 112.134 142.96C111.968 142.78 111.691 142.69 111.304 142.69C110.764 142.69 110.274 142.84 109.834 143.14ZM115.685 141.93V142.82C115.931 142.193 116.375 141.88 117.015 141.88C117.108 141.88 117.211 141.89 117.325 141.91V142.87C117.185 142.81 117.028 142.78 116.855 142.78C116.515 142.78 116.235 142.93 116.015 143.23C115.795 143.53 115.685 143.887 115.685 144.3V147H114.705V141.93H115.685ZM121.243 141.93H122.223V147H121.243V146.13C120.977 146.75 120.45 147.06 119.663 147.06C119.163 147.06 118.767 146.913 118.473 146.62C118.18 146.32 118.033 145.91 118.033 145.39V141.93H119.023V145.15C119.023 145.497 119.107 145.763 119.273 145.95C119.447 146.13 119.683 146.22 119.983 146.22C120.363 146.22 120.667 146.087 120.893 145.82C121.127 145.553 121.243 145.177 121.243 144.69V141.93ZM126.491 142.1V142.99C126.164 142.797 125.744 142.7 125.231 142.7C124.998 142.7 124.811 142.753 124.671 142.86C124.538 142.967 124.471 143.107 124.471 143.28C124.471 143.327 124.474 143.373 124.481 143.42C124.494 143.46 124.514 143.503 124.541 143.55C124.568 143.59 124.591 143.627 124.611 143.66C124.638 143.687 124.678 143.717 124.731 143.75C124.784 143.783 124.824 143.813 124.851 143.84C124.884 143.86 124.934 143.887 125.001 143.92C125.074 143.953 125.128 143.98 125.161 144C125.194 144.013 125.251 144.04 125.331 144.08C125.418 144.113 125.478 144.137 125.511 144.15C125.904 144.323 126.211 144.52 126.431 144.74C126.658 144.953 126.771 145.24 126.771 145.6C126.771 146.053 126.611 146.41 126.291 146.67C125.971 146.923 125.538 147.05 124.991 147.05C124.391 147.05 123.891 146.95 123.491 146.75V145.82C123.958 146.107 124.441 146.25 124.941 146.25C125.201 146.25 125.401 146.197 125.541 146.09C125.688 145.983 125.761 145.843 125.761 145.67C125.761 145.523 125.704 145.393 125.591 145.28C125.478 145.16 125.361 145.073 125.241 145.02C125.128 144.96 124.931 144.87 124.651 144.75C123.858 144.423 123.461 143.943 123.461 143.31C123.461 142.863 123.628 142.513 123.961 142.26C124.294 142.007 124.711 141.88 125.211 141.88C125.758 141.88 126.184 141.953 126.491 142.1ZM131.232 141.93V142.74C131.518 142.153 131.995 141.86 132.662 141.86C133.422 141.86 133.908 142.187 134.122 142.84C134.262 142.527 134.465 142.287 134.732 142.12C134.998 141.947 135.298 141.86 135.632 141.86C136.152 141.86 136.545 142.013 136.812 142.32C137.085 142.627 137.222 143.05 137.222 143.59V147H136.242V143.8C136.242 143.073 135.948 142.71 135.362 142.71C135.068 142.71 134.805 142.84 134.572 143.1C134.345 143.36 134.232 143.743 134.232 144.25V147H133.252V143.8C133.252 143.073 132.955 142.71 132.362 142.71C132.075 142.71 131.815 142.84 131.582 143.1C131.348 143.36 131.232 143.743 131.232 144.25V147H130.252V141.93H131.232ZM141.702 144.1V143.92C141.689 143.54 141.586 143.24 141.392 143.02C141.199 142.793 140.922 142.68 140.562 142.68C140.229 142.68 139.942 142.803 139.702 143.05C139.462 143.29 139.312 143.64 139.252 144.1H141.702ZM142.332 145.85V146.73C141.959 146.943 141.466 147.05 140.852 147.05C140.066 147.05 139.439 146.813 138.972 146.34C138.506 145.867 138.272 145.247 138.272 144.48C138.272 143.667 138.486 143.03 138.912 142.57C139.339 142.103 139.882 141.87 140.542 141.87C141.189 141.87 141.702 142.073 142.082 142.48C142.462 142.88 142.652 143.46 142.652 144.22C142.652 144.427 142.632 144.643 142.592 144.87H139.262C139.329 145.31 139.516 145.647 139.822 145.88C140.129 146.113 140.516 146.23 140.982 146.23C141.522 146.23 141.972 146.103 142.332 145.85ZM144.786 141.93V142.74C145.073 142.153 145.55 141.86 146.216 141.86C146.976 141.86 147.463 142.187 147.676 142.84C147.816 142.527 148.02 142.287 148.286 142.12C148.553 141.947 148.853 141.86 149.186 141.86C149.706 141.86 150.1 142.013 150.366 142.32C150.64 142.627 150.776 143.05 150.776 143.59V147H149.796V143.8C149.796 143.073 149.503 142.71 148.916 142.71C148.623 142.71 148.36 142.84 148.126 143.1C147.9 143.36 147.786 143.743 147.786 144.25V147H146.806V143.8C146.806 143.073 146.51 142.71 145.916 142.71C145.63 142.71 145.37 142.84 145.136 143.1C144.903 143.36 144.786 143.743 144.786 144.25V147H143.806V141.93H144.786ZM154.497 146.21C154.87 146.21 155.184 146.053 155.437 145.74C155.69 145.42 155.817 145.01 155.817 144.51C155.817 143.937 155.69 143.497 155.437 143.19C155.184 142.877 154.86 142.72 154.467 142.72C154.12 142.72 153.807 142.86 153.527 143.14C153.254 143.42 153.117 143.85 153.117 144.43C153.117 145.03 153.25 145.477 153.517 145.77C153.784 146.063 154.11 146.21 154.497 146.21ZM153.117 139.93V142.7C153.477 142.14 153.987 141.86 154.647 141.86C155.287 141.86 155.81 142.1 156.217 142.58C156.624 143.06 156.827 143.697 156.827 144.49C156.827 145.203 156.634 145.813 156.247 146.32C155.86 146.82 155.33 147.07 154.657 147.07C153.984 147.07 153.47 146.79 153.117 146.23V147H152.127V139.93H153.117ZM160.597 144.74H159.837C159.464 144.74 159.181 144.813 158.987 144.96C158.801 145.107 158.707 145.293 158.707 145.52C158.707 145.753 158.781 145.937 158.927 146.07C159.074 146.203 159.287 146.27 159.567 146.27C159.887 146.27 160.137 146.183 160.317 146.01C160.504 145.83 160.597 145.597 160.597 145.31V144.74ZM158.047 143.14V142.19C158.441 141.963 158.961 141.85 159.607 141.85C160.934 141.85 161.597 142.493 161.597 143.78V147H160.627V146.4C160.367 146.827 159.911 147.04 159.257 147.04C158.777 147.04 158.391 146.903 158.097 146.63C157.811 146.35 157.667 145.997 157.667 145.57C157.667 145.083 157.851 144.707 158.217 144.44C158.584 144.167 159.097 144.03 159.757 144.03H160.597V143.74C160.597 143.393 160.514 143.133 160.347 142.96C160.181 142.78 159.904 142.69 159.517 142.69C158.977 142.69 158.487 142.84 158.047 143.14ZM164.318 146.89L162.298 141.93H163.388L164.018 143.58L164.808 145.72C164.868 145.52 165.108 144.807 165.528 143.58L166.098 141.93H167.138L165.308 146.86C164.821 148.16 164.078 148.81 163.078 148.81C162.898 148.81 162.744 148.793 162.618 148.76V147.92C162.724 147.947 162.838 147.96 162.958 147.96C163.604 147.96 164.058 147.603 164.318 146.89ZM170.627 144.74H169.867C169.493 144.74 169.21 144.813 169.017 144.96C168.83 145.107 168.737 145.293 168.737 145.52C168.737 145.753 168.81 145.937 168.957 146.07C169.103 146.203 169.317 146.27 169.597 146.27C169.917 146.27 170.167 146.183 170.347 146.01C170.533 145.83 170.627 145.597 170.627 145.31V144.74ZM168.077 143.14V142.19C168.47 141.963 168.99 141.85 169.637 141.85C170.963 141.85 171.627 142.493 171.627 143.78V147H170.657V146.4C170.397 146.827 169.94 147.04 169.287 147.04C168.807 147.04 168.42 146.903 168.127 146.63C167.84 146.35 167.697 145.997 167.697 145.57C167.697 145.083 167.88 144.707 168.247 144.44C168.613 144.167 169.127 144.03 169.787 144.03H170.627V143.74C170.627 143.393 170.543 143.133 170.377 142.96C170.21 142.78 169.933 142.69 169.547 142.69C169.007 142.69 168.517 142.84 168.077 143.14ZM173.927 141.93V142.82C174.174 142.193 174.617 141.88 175.257 141.88C175.35 141.88 175.454 141.89 175.567 141.91V142.87C175.427 142.81 175.27 142.78 175.097 142.78C174.757 142.78 174.477 142.93 174.257 143.23C174.037 143.53 173.927 143.887 173.927 144.3V147H172.947V141.93H173.927ZM181.186 146.21C181.56 146.21 181.873 146.053 182.126 145.74C182.38 145.42 182.506 145.01 182.506 144.51C182.506 143.937 182.38 143.497 182.126 143.19C181.873 142.877 181.55 142.72 181.156 142.72C180.81 142.72 180.496 142.86 180.216 143.14C179.943 143.42 179.806 143.85 179.806 144.43C179.806 145.03 179.94 145.477 180.206 145.77C180.473 146.063 180.8 146.21 181.186 146.21ZM179.806 139.93V142.7C180.166 142.14 180.676 141.86 181.336 141.86C181.976 141.86 182.5 142.1 182.906 142.58C183.313 143.06 183.516 143.697 183.516 144.49C183.516 145.203 183.323 145.813 182.936 146.32C182.55 146.82 182.02 147.07 181.346 147.07C180.673 147.07 180.16 146.79 179.806 146.23V147H178.816V139.93H179.806ZM184.657 147V141.93H185.647V147H184.657ZM184.707 140.82C184.593 140.7 184.537 140.553 184.537 140.38C184.537 140.207 184.593 140.06 184.707 139.94C184.827 139.82 184.973 139.76 185.147 139.76C185.32 139.76 185.467 139.82 185.587 139.94C185.707 140.06 185.767 140.207 185.767 140.38C185.767 140.547 185.707 140.69 185.587 140.81C185.467 140.93 185.32 140.99 185.147 140.99C184.973 140.99 184.827 140.933 184.707 140.82ZM189.738 144.74H188.978C188.605 144.74 188.321 144.813 188.128 144.96C187.941 145.107 187.848 145.293 187.848 145.52C187.848 145.753 187.921 145.937 188.068 146.07C188.215 146.203 188.428 146.27 188.708 146.27C189.028 146.27 189.278 146.183 189.458 146.01C189.645 145.83 189.738 145.597 189.738 145.31V144.74ZM187.188 143.14V142.19C187.581 141.963 188.101 141.85 188.748 141.85C190.075 141.85 190.738 142.493 190.738 143.78V147H189.768V146.4C189.508 146.827 189.051 147.04 188.398 147.04C187.918 147.04 187.531 146.903 187.238 146.63C186.951 146.35 186.808 145.997 186.808 145.57C186.808 145.083 186.991 144.707 187.358 144.44C187.725 144.167 188.238 144.03 188.898 144.03H189.738V143.74C189.738 143.393 189.655 143.133 189.488 142.96C189.321 142.78 189.045 142.69 188.658 142.69C188.118 142.69 187.628 142.84 187.188 143.14ZM193.458 146.89L191.438 141.93H192.528L193.158 143.58L193.948 145.72C194.008 145.52 194.248 144.807 194.668 143.58L195.238 141.93H196.278L194.448 146.86C193.961 148.16 193.218 148.81 192.218 148.81C192.038 148.81 191.885 148.793 191.758 148.76V147.92C191.865 147.947 191.978 147.96 192.098 147.96C192.745 147.96 193.198 147.603 193.458 146.89ZM199.767 144.74H199.007C198.634 144.74 198.351 144.813 198.157 144.96C197.971 145.107 197.877 145.293 197.877 145.52C197.877 145.753 197.951 145.937 198.097 146.07C198.244 146.203 198.457 146.27 198.737 146.27C199.057 146.27 199.307 146.183 199.487 146.01C199.674 145.83 199.767 145.597 199.767 145.31V144.74ZM197.217 143.14V142.19C197.611 141.963 198.131 141.85 198.777 141.85C200.104 141.85 200.767 142.493 200.767 143.78V147H199.797V146.4C199.537 146.827 199.081 147.04 198.427 147.04C197.947 147.04 197.561 146.903 197.267 146.63C196.981 146.35 196.837 145.997 196.837 145.57C196.837 145.083 197.021 144.707 197.387 144.44C197.754 144.167 198.267 144.03 198.927 144.03H199.767V143.74C199.767 143.393 199.684 143.133 199.517 142.96C199.351 142.78 199.074 142.69 198.687 142.69C198.147 142.69 197.657 142.84 197.217 143.14ZM206.888 146.21C207.282 146.21 207.605 146.057 207.858 145.75C208.112 145.437 208.238 145 208.238 144.44C208.238 143.913 208.115 143.497 207.868 143.19C207.622 142.877 207.308 142.72 206.928 142.72C206.548 142.72 206.218 142.86 205.938 143.14C205.665 143.413 205.528 143.85 205.528 144.45C205.528 145.037 205.665 145.477 205.938 145.77C206.218 146.063 206.535 146.21 206.888 146.21ZM205.528 141.93V142.71C205.875 142.143 206.395 141.86 207.088 141.86C207.755 141.86 208.282 142.103 208.668 142.59C209.055 143.07 209.248 143.683 209.248 144.43C209.248 145.197 209.048 145.83 208.648 146.33C208.255 146.823 207.728 147.07 207.068 147.07C206.395 147.07 205.882 146.79 205.528 146.23V148.94H204.548V141.93H205.528ZM213.499 144.1V143.92C213.486 143.54 213.383 143.24 213.189 143.02C212.996 142.793 212.719 142.68 212.359 142.68C212.026 142.68 211.739 142.803 211.499 143.05C211.259 143.29 211.109 143.64 211.049 144.1H213.499ZM214.129 145.85V146.73C213.756 146.943 213.263 147.05 212.649 147.05C211.863 147.05 211.236 146.813 210.769 146.34C210.303 145.867 210.069 145.247 210.069 144.48C210.069 143.667 210.283 143.03 210.709 142.57C211.136 142.103 211.679 141.87 212.339 141.87C212.986 141.87 213.499 142.073 213.879 142.48C214.259 142.88 214.449 143.46 214.449 144.22C214.449 144.427 214.429 144.643 214.389 144.87H211.059C211.126 145.31 211.313 145.647 211.619 145.88C211.926 146.113 212.313 146.23 212.779 146.23C213.319 146.23 213.769 146.103 214.129 145.85ZM216.583 141.93V142.8C216.883 142.173 217.41 141.86 218.163 141.86C218.663 141.86 219.06 142.013 219.353 142.32C219.646 142.627 219.793 143.043 219.793 143.57V147H218.813V143.8C218.813 143.447 218.723 143.177 218.543 142.99C218.37 142.803 218.136 142.71 217.843 142.71C217.496 142.71 217.2 142.847 216.953 143.12C216.706 143.387 216.583 143.763 216.583 144.25V147H215.603V141.93H216.583ZM223.161 146.21C223.548 146.21 223.874 146.063 224.141 145.77C224.408 145.477 224.541 145.03 224.541 144.43C224.541 143.85 224.401 143.42 224.121 143.14C223.848 142.86 223.538 142.72 223.191 142.72C222.798 142.72 222.474 142.877 222.221 143.19C221.968 143.497 221.841 143.937 221.841 144.51C221.841 145.017 221.964 145.427 222.211 145.74C222.464 146.053 222.781 146.21 223.161 146.21ZM224.541 139.93H225.531V147H224.541V146.23C224.188 146.79 223.671 147.07 222.991 147.07C222.324 147.07 221.798 146.82 221.411 146.32C221.024 145.813 220.831 145.203 220.831 144.49C220.831 143.697 221.034 143.06 221.441 142.58C221.848 142.1 222.371 141.86 223.011 141.86C223.671 141.86 224.181 142.14 224.541 142.7V139.93ZM226.952 147V141.93H227.942V147H226.952ZM227.002 140.82C226.888 140.7 226.832 140.553 226.832 140.38C226.832 140.207 226.888 140.06 227.002 139.94C227.122 139.82 227.268 139.76 227.442 139.76C227.615 139.76 227.762 139.82 227.882 139.94C228.002 140.06 228.062 140.207 228.062 140.38C228.062 140.547 228.002 140.69 227.882 140.81C227.762 140.93 227.615 140.99 227.442 140.99C227.268 140.99 227.122 140.933 227.002 140.82ZM231.413 146.21C231.8 146.21 232.126 146.063 232.393 145.77C232.66 145.477 232.793 145.03 232.793 144.43C232.793 143.85 232.653 143.42 232.373 143.14C232.1 142.86 231.79 142.72 231.443 142.72C231.05 142.72 230.726 142.877 230.473 143.19C230.22 143.497 230.093 143.937 230.093 144.51C230.093 145.017 230.216 145.427 230.463 145.74C230.716 146.053 231.033 146.21 231.413 146.21ZM232.793 139.93H233.783V147H232.793V146.23C232.44 146.79 231.923 147.07 231.243 147.07C230.576 147.07 230.05 146.82 229.663 146.32C229.276 145.813 229.083 145.203 229.083 144.49C229.083 143.697 229.286 143.06 229.693 142.58C230.1 142.1 230.623 141.86 231.263 141.86C231.923 141.86 232.433 142.14 232.793 142.7V139.93ZM235.204 147V141.93H236.194V147H235.204ZM235.254 140.82C235.14 140.7 235.084 140.553 235.084 140.38C235.084 140.207 235.14 140.06 235.254 139.94C235.374 139.82 235.52 139.76 235.694 139.76C235.867 139.76 236.014 139.82 236.134 139.94C236.254 140.06 236.314 140.207 236.314 140.38C236.314 140.547 236.254 140.69 236.134 140.81C236.014 140.93 235.867 140.99 235.694 140.99C235.52 140.99 235.374 140.933 235.254 140.82ZM237.615 147V140H238.595V147H237.615ZM239.765 144.35L241.755 147H240.585L238.635 144.35L240.545 141.93H241.695L239.765 144.35ZM245.285 144.74H244.525C244.151 144.74 243.868 144.813 243.675 144.96C243.488 145.107 243.395 145.293 243.395 145.52C243.395 145.753 243.468 145.937 243.615 146.07C243.761 146.203 243.975 146.27 244.255 146.27C244.575 146.27 244.825 146.183 245.005 146.01C245.191 145.83 245.285 145.597 245.285 145.31V144.74ZM242.735 143.14V142.19C243.128 141.963 243.648 141.85 244.295 141.85C245.621 141.85 246.285 142.493 246.285 143.78V147H245.315V146.4C245.055 146.827 244.598 147.04 243.945 147.04C243.465 147.04 243.078 146.903 242.785 146.63C242.498 146.35 242.355 145.997 242.355 145.57C242.355 145.083 242.538 144.707 242.905 144.44C243.271 144.167 243.785 144.03 244.445 144.03H245.285V143.74C245.285 143.393 245.201 143.133 245.035 142.96C244.868 142.78 244.591 142.69 244.205 142.69C243.665 142.69 243.175 142.84 242.735 143.14ZM248.585 141.93V142.8C248.885 142.173 249.412 141.86 250.165 141.86C250.665 141.86 251.062 142.013 251.355 142.32C251.648 142.627 251.795 143.043 251.795 143.57V147H250.815V143.8C250.815 143.447 250.725 143.177 250.545 142.99C250.372 142.803 250.138 142.71 249.845 142.71C249.498 142.71 249.202 142.847 248.955 143.12C248.708 143.387 248.585 143.763 248.585 144.25V147H247.605V141.93H248.585ZM256.594 146.15H259.434V147H255.244V146.19C256.084 145.577 256.79 144.943 257.364 144.29C257.944 143.63 258.234 143.03 258.234 142.49C258.234 142.11 258.124 141.82 257.904 141.62C257.684 141.413 257.38 141.31 256.994 141.31C256.46 141.31 255.937 141.51 255.424 141.91V140.94C255.904 140.573 256.474 140.39 257.134 140.39C257.747 140.39 258.254 140.563 258.654 140.91C259.054 141.25 259.254 141.737 259.254 142.37C259.254 143.543 258.367 144.803 256.594 146.15ZM102.155 160.74H101.395C101.022 160.74 100.738 160.813 100.545 160.96C100.358 161.107 100.265 161.293 100.265 161.52C100.265 161.753 100.338 161.937 100.485 162.07C100.632 162.203 100.845 162.27 101.125 162.27C101.445 162.27 101.695 162.183 101.875 162.01C102.062 161.83 102.155 161.597 102.155 161.31V160.74ZM99.6049 159.14V158.19C99.9983 157.963 100.518 157.85 101.165 157.85C102.492 157.85 103.155 158.493 103.155 159.78V163H102.185V162.4C101.925 162.827 101.468 163.04 100.815 163.04C100.335 163.04 99.9483 162.903 99.6549 162.63C99.3683 162.35 99.2249 161.997 99.2249 161.57C99.2249 161.083 99.4083 160.707 99.7749 160.44C100.142 160.167 100.655 160.03 101.315 160.03H102.155V159.74C102.155 159.393 102.072 159.133 101.905 158.96C101.738 158.78 101.462 158.69 101.075 158.69C100.535 158.69 100.045 158.84 99.6049 159.14ZM105.455 157.93V158.8C105.755 158.173 106.282 157.86 107.035 157.86C107.535 157.86 107.932 158.013 108.225 158.32C108.518 158.627 108.665 159.043 108.665 159.57V163H107.685V159.8C107.685 159.447 107.595 159.177 107.415 158.99C107.242 158.803 107.008 158.71 106.715 158.71C106.368 158.71 106.072 158.847 105.825 159.12C105.578 159.387 105.455 159.763 105.455 160.25V163H104.475V157.93H105.455ZM112.653 160.74H111.893C111.52 160.74 111.236 160.813 111.043 160.96C110.856 161.107 110.763 161.293 110.763 161.52C110.763 161.753 110.836 161.937 110.983 162.07C111.13 162.203 111.343 162.27 111.623 162.27C111.943 162.27 112.193 162.183 112.373 162.01C112.56 161.83 112.653 161.597 112.653 161.31V160.74ZM110.103 159.14V158.19C110.496 157.963 111.016 157.85 111.663 157.85C112.99 157.85 113.653 158.493 113.653 159.78V163H112.683V162.4C112.423 162.827 111.966 163.04 111.313 163.04C110.833 163.04 110.446 162.903 110.153 162.63C109.866 162.35 109.723 161.997 109.723 161.57C109.723 161.083 109.906 160.707 110.273 160.44C110.64 160.167 111.153 160.03 111.813 160.03H112.653V159.74C112.653 159.393 112.57 159.133 112.403 158.96C112.236 158.78 111.96 158.69 111.573 158.69C111.033 158.69 110.543 158.84 110.103 159.14ZM114.973 163V156H115.953V163H114.973ZM117.123 160.35L119.113 163H117.943L115.993 160.35L117.903 157.93H119.053L117.123 160.35ZM123.964 160.49H126.124L126.014 160.15C125.761 159.363 125.554 158.713 125.394 158.2C125.234 157.68 125.137 157.357 125.104 157.23L125.054 157.04C124.981 157.353 124.654 158.39 124.074 160.15L123.964 160.49ZM126.934 163L126.404 161.35H123.684L123.144 163H122.054L124.384 156.26H125.734L128.034 163H126.934ZM130.016 157.93V158.8C130.316 158.173 130.842 157.86 131.596 157.86C132.096 157.86 132.492 158.013 132.786 158.32C133.079 158.627 133.226 159.043 133.226 159.57V163H132.246V159.8C132.246 159.447 132.156 159.177 131.976 158.99C131.802 158.803 131.569 158.71 131.276 158.71C130.929 158.71 130.632 158.847 130.386 159.12C130.139 159.387 130.016 159.763 130.016 160.25V163H129.036V157.93H130.016ZM136.594 162.21C136.98 162.21 137.307 162.063 137.574 161.77C137.84 161.477 137.974 161.03 137.974 160.43C137.974 159.85 137.834 159.42 137.554 159.14C137.28 158.86 136.97 158.72 136.624 158.72C136.23 158.72 135.907 158.877 135.654 159.19C135.4 159.497 135.274 159.937 135.274 160.51C135.274 161.017 135.397 161.427 135.644 161.74C135.897 162.053 136.214 162.21 136.594 162.21ZM137.974 155.93H138.964V163H137.974V162.23C137.62 162.79 137.104 163.07 136.424 163.07C135.757 163.07 135.23 162.82 134.844 162.32C134.457 161.813 134.264 161.203 134.264 160.49C134.264 159.697 134.467 159.06 134.874 158.58C135.28 158.1 135.804 157.86 136.444 157.86C137.104 157.86 137.614 158.14 137.974 158.7V155.93ZM143.014 160.74H142.254C141.881 160.74 141.598 160.813 141.404 160.96C141.218 161.107 141.124 161.293 141.124 161.52C141.124 161.753 141.198 161.937 141.344 162.07C141.491 162.203 141.704 162.27 141.984 162.27C142.304 162.27 142.554 162.183 142.734 162.01C142.921 161.83 143.014 161.597 143.014 161.31V160.74ZM140.464 159.14V158.19C140.858 157.963 141.378 157.85 142.024 157.85C143.351 157.85 144.014 158.493 144.014 159.78V163H143.044V162.4C142.784 162.827 142.328 163.04 141.674 163.04C141.194 163.04 140.808 162.903 140.514 162.63C140.228 162.35 140.084 161.997 140.084 161.57C140.084 161.083 140.268 160.707 140.634 160.44C141.001 160.167 141.514 160.03 142.174 160.03H143.014V159.74C143.014 159.393 142.931 159.133 142.764 158.96C142.598 158.78 142.321 158.69 141.934 158.69C141.394 158.69 140.904 158.84 140.464 159.14ZM149.845 162.21C150.232 162.21 150.559 162.063 150.825 161.77C151.092 161.477 151.225 161.03 151.225 160.43C151.225 159.85 151.085 159.42 150.805 159.14C150.532 158.86 150.222 158.72 149.875 158.72C149.482 158.72 149.159 158.877 148.905 159.19C148.652 159.497 148.525 159.937 148.525 160.51C148.525 161.017 148.649 161.427 148.895 161.74C149.149 162.053 149.465 162.21 149.845 162.21ZM151.225 155.93H152.215V163H151.225V162.23C150.872 162.79 150.355 163.07 149.675 163.07C149.009 163.07 148.482 162.82 148.095 162.32C147.709 161.813 147.515 161.203 147.515 160.49C147.515 159.697 147.719 159.06 148.125 158.58C148.532 158.1 149.055 157.86 149.695 157.86C150.355 157.86 150.865 158.14 151.225 158.7V155.93ZM156.746 160.1V159.92C156.733 159.54 156.63 159.24 156.436 159.02C156.243 158.793 155.966 158.68 155.606 158.68C155.273 158.68 154.986 158.803 154.746 159.05C154.506 159.29 154.356 159.64 154.296 160.1H156.746ZM157.376 161.85V162.73C157.003 162.943 156.51 163.05 155.896 163.05C155.11 163.05 154.483 162.813 154.016 162.34C153.55 161.867 153.316 161.247 153.316 160.48C153.316 159.667 153.53 159.03 153.956 158.57C154.383 158.103 154.926 157.87 155.586 157.87C156.233 157.87 156.746 158.073 157.126 158.48C157.506 158.88 157.696 159.46 157.696 160.22C157.696 160.427 157.676 160.643 157.636 160.87H154.306C154.373 161.31 154.56 161.647 154.866 161.88C155.173 162.113 155.56 162.23 156.026 162.23C156.566 162.23 157.016 162.103 157.376 161.85ZM159.83 157.93V158.8C160.13 158.173 160.657 157.86 161.41 157.86C161.91 157.86 162.307 158.013 162.6 158.32C162.893 158.627 163.04 159.043 163.04 159.57V163H162.06V159.8C162.06 159.447 161.97 159.177 161.79 158.99C161.617 158.803 161.383 158.71 161.09 158.71C160.743 158.71 160.447 158.847 160.2 159.12C159.953 159.387 159.83 159.763 159.83 160.25V163H158.85V157.93H159.83ZM166.358 162.02C166.705 162.02 167.005 161.887 167.258 161.62C167.518 161.347 167.648 160.967 167.648 160.48C167.648 159.88 167.525 159.437 167.278 159.15C167.038 158.863 166.745 158.72 166.398 158.72C166.005 158.72 165.695 158.877 165.468 159.19C165.241 159.497 165.128 159.903 165.128 160.41C165.128 160.937 165.248 161.337 165.488 161.61C165.735 161.883 166.025 162.02 166.358 162.02ZM167.648 157.93H168.628V162.57C168.628 163.35 168.405 163.937 167.958 164.33C167.518 164.73 166.951 164.93 166.258 164.93C165.605 164.93 165.055 164.82 164.608 164.6V163.61C165.035 163.89 165.551 164.03 166.158 164.03C167.151 164.03 167.648 163.54 167.648 162.56V162.04C167.321 162.587 166.831 162.86 166.178 162.86C165.605 162.86 165.115 162.65 164.708 162.23C164.301 161.803 164.098 161.203 164.098 160.43C164.098 159.683 164.288 159.07 164.668 158.59C165.048 158.103 165.551 157.86 166.178 157.86C166.851 157.86 167.341 158.147 167.648 158.72V157.93ZM172.614 160.74H171.854C171.481 160.74 171.197 160.813 171.004 160.96C170.817 161.107 170.724 161.293 170.724 161.52C170.724 161.753 170.797 161.937 170.944 162.07C171.091 162.203 171.304 162.27 171.584 162.27C171.904 162.27 172.154 162.183 172.334 162.01C172.521 161.83 172.614 161.597 172.614 161.31V160.74ZM170.064 159.14V158.19C170.457 157.963 170.977 157.85 171.624 157.85C172.951 157.85 173.614 158.493 173.614 159.78V163H172.644V162.4C172.384 162.827 171.927 163.04 171.274 163.04C170.794 163.04 170.407 162.903 170.114 162.63C169.827 162.35 169.684 161.997 169.684 161.57C169.684 161.083 169.867 160.707 170.234 160.44C170.601 160.167 171.114 160.03 171.774 160.03H172.614V159.74C172.614 159.393 172.531 159.133 172.364 158.96C172.197 158.78 171.921 158.69 171.534 158.69C170.994 158.69 170.504 158.84 170.064 159.14ZM175.914 157.93V158.8C176.214 158.173 176.741 157.86 177.494 157.86C177.994 157.86 178.391 158.013 178.684 158.32C178.977 158.627 179.124 159.043 179.124 159.57V163H178.144V159.8C178.144 159.447 178.054 159.177 177.874 158.99C177.701 158.803 177.467 158.71 177.174 158.71C176.827 158.71 176.531 158.847 176.284 159.12C176.037 159.387 175.914 159.763 175.914 160.25V163H174.934V157.93H175.914Z" fill="#2B2B2B"/>
<path d="M183.973 157.12V159.58H184.903C185.33 159.58 185.653 159.47 185.873 159.25C186.093 159.023 186.203 158.723 186.203 158.35C186.203 157.53 185.753 157.12 184.853 157.12H183.973ZM186.443 163L184.863 160.44H183.973V163H182.943V156.26H184.823C185.596 156.26 186.193 156.45 186.613 156.83C187.033 157.203 187.243 157.713 187.243 158.36C187.236 158.833 187.116 159.237 186.883 159.57C186.65 159.897 186.326 160.133 185.913 160.28L187.673 163H186.443ZM190.926 162.21C191.32 162.21 191.643 162.057 191.896 161.75C192.15 161.437 192.276 161 192.276 160.44C192.276 159.913 192.153 159.497 191.906 159.19C191.66 158.877 191.346 158.72 190.966 158.72C190.586 158.72 190.256 158.86 189.976 159.14C189.703 159.413 189.566 159.85 189.566 160.45C189.566 161.037 189.703 161.477 189.976 161.77C190.256 162.063 190.573 162.21 190.926 162.21ZM189.566 157.93V158.71C189.913 158.143 190.433 157.86 191.126 157.86C191.793 157.86 192.32 158.103 192.706 158.59C193.093 159.07 193.286 159.683 193.286 160.43C193.286 161.197 193.086 161.83 192.686 162.33C192.293 162.823 191.766 163.07 191.106 163.07C190.433 163.07 189.92 162.79 189.566 162.23V164.94H188.586V157.93H189.566ZM196.568 159.71C196.568 158.683 196.772 157.87 197.178 157.27C197.592 156.663 198.155 156.36 198.868 156.36C199.595 156.36 200.165 156.66 200.578 157.26C200.992 157.86 201.198 158.677 201.198 159.71C201.198 160.73 200.995 161.547 200.588 162.16C200.188 162.773 199.615 163.08 198.868 163.08C198.155 163.08 197.592 162.773 197.178 162.16C196.772 161.547 196.568 160.73 196.568 159.71ZM197.938 157.91C197.692 158.33 197.568 158.93 197.568 159.71C197.568 160.49 197.688 161.097 197.928 161.53C198.175 161.957 198.488 162.17 198.868 162.17C199.282 162.17 199.605 161.957 199.838 161.53C200.072 161.103 200.188 160.497 200.188 159.71C200.188 158.917 200.065 158.313 199.818 157.9C199.578 157.48 199.262 157.27 198.868 157.27C198.495 157.27 198.185 157.483 197.938 157.91ZM201.527 164.24L202.487 161.9H203.697L202.387 164.24H201.527ZM204.469 159.71C204.469 158.683 204.672 157.87 205.079 157.27C205.492 156.663 206.055 156.36 206.769 156.36C207.495 156.36 208.065 156.66 208.479 157.26C208.892 157.86 209.099 158.677 209.099 159.71C209.099 160.73 208.895 161.547 208.489 162.16C208.089 162.773 207.515 163.08 206.769 163.08C206.055 163.08 205.492 162.773 205.079 162.16C204.672 161.547 204.469 160.73 204.469 159.71ZM205.839 157.91C205.592 158.33 205.469 158.93 205.469 159.71C205.469 160.49 205.589 161.097 205.829 161.53C206.075 161.957 206.389 162.17 206.769 162.17C207.182 162.17 207.505 161.957 207.739 161.53C207.972 161.103 208.089 160.497 208.089 159.71C208.089 158.917 207.965 158.313 207.719 157.9C207.479 157.48 207.162 157.27 206.769 157.27C206.395 157.27 206.085 157.483 205.839 157.91ZM209.918 159.71C209.918 158.683 210.121 157.87 210.528 157.27C210.941 156.663 211.504 156.36 212.218 156.36C212.944 156.36 213.514 156.66 213.928 157.26C214.341 157.86 214.548 158.677 214.548 159.71C214.548 160.73 214.344 161.547 213.938 162.16C213.538 162.773 212.964 163.08 212.218 163.08C211.504 163.08 210.941 162.773 210.528 162.16C210.121 161.547 209.918 160.73 209.918 159.71ZM211.288 157.91C211.041 158.33 210.918 158.93 210.918 159.71C210.918 160.49 211.038 161.097 211.278 161.53C211.524 161.957 211.838 162.17 212.218 162.17C212.631 162.17 212.954 161.957 213.188 161.53C213.421 161.103 213.538 160.497 213.538 159.71C213.538 158.917 213.414 158.313 213.168 157.9C212.928 157.48 212.611 157.27 212.218 157.27C211.844 157.27 211.534 157.483 211.288 157.91ZM215.367 159.71C215.367 158.683 215.57 157.87 215.977 157.27C216.39 156.663 216.954 156.36 217.667 156.36C218.394 156.36 218.964 156.66 219.377 157.26C219.79 157.86 219.997 158.677 219.997 159.71C219.997 160.73 219.794 161.547 219.387 162.16C218.987 162.773 218.414 163.08 217.667 163.08C216.954 163.08 216.39 162.773 215.977 162.16C215.57 161.547 215.367 160.73 215.367 159.71ZM216.737 157.91C216.49 158.33 216.367 158.93 216.367 159.71C216.367 160.49 216.487 161.097 216.727 161.53C216.974 161.957 217.287 162.17 217.667 162.17C218.08 162.17 218.404 161.957 218.637 161.53C218.87 161.103 218.987 160.497 218.987 159.71C218.987 158.917 218.864 158.313 218.617 157.9C218.377 157.48 218.06 157.27 217.667 157.27C217.294 157.27 216.984 157.483 216.737 157.91ZM220.326 164.24L221.286 161.9H222.496L221.186 164.24H220.326ZM223.267 159.71C223.267 158.683 223.471 157.87 223.877 157.27C224.291 156.663 224.854 156.36 225.567 156.36C226.294 156.36 226.864 156.66 227.277 157.26C227.691 157.86 227.897 158.677 227.897 159.71C227.897 160.73 227.694 161.547 227.287 162.16C226.887 162.773 226.314 163.08 225.567 163.08C224.854 163.08 224.291 162.773 223.877 162.16C223.471 161.547 223.267 160.73 223.267 159.71ZM224.637 157.91C224.391 158.33 224.267 158.93 224.267 159.71C224.267 160.49 224.387 161.097 224.627 161.53C224.874 161.957 225.187 162.17 225.567 162.17C225.981 162.17 226.304 161.957 226.537 161.53C226.771 161.103 226.887 160.497 226.887 159.71C226.887 158.917 226.764 158.313 226.517 157.9C226.277 157.48 225.961 157.27 225.567 157.27C225.194 157.27 224.884 157.483 224.637 157.91ZM228.717 159.71C228.717 158.683 228.92 157.87 229.327 157.27C229.74 156.663 230.303 156.36 231.017 156.36C231.743 156.36 232.313 156.66 232.727 157.26C233.14 157.86 233.347 158.677 233.347 159.71C233.347 160.73 233.143 161.547 232.737 162.16C232.337 162.773 231.763 163.08 231.017 163.08C230.303 163.08 229.74 162.773 229.327 162.16C228.92 161.547 228.717 160.73 228.717 159.71ZM230.087 157.91C229.84 158.33 229.717 158.93 229.717 159.71C229.717 160.49 229.837 161.097 230.077 161.53C230.323 161.957 230.637 162.17 231.017 162.17C231.43 162.17 231.753 161.957 231.987 161.53C232.22 161.103 232.337 160.497 232.337 159.71C232.337 158.917 232.213 158.313 231.967 157.9C231.727 157.48 231.41 157.27 231.017 157.27C230.643 157.27 230.333 157.483 230.087 157.91ZM234.166 159.71C234.166 158.683 234.369 157.87 234.776 157.27C235.189 156.663 235.753 156.36 236.466 156.36C237.193 156.36 237.763 156.66 238.176 157.26C238.589 157.86 238.796 158.677 238.796 159.71C238.796 160.73 238.593 161.547 238.186 162.16C237.786 162.773 237.213 163.08 236.466 163.08C235.753 163.08 235.189 162.773 234.776 162.16C234.369 161.547 234.166 160.73 234.166 159.71ZM235.536 157.91C235.289 158.33 235.166 158.93 235.166 159.71C235.166 160.49 235.286 161.097 235.526 161.53C235.773 161.957 236.086 162.17 236.466 162.17C236.879 162.17 237.203 161.957 237.436 161.53C237.669 161.103 237.786 160.497 237.786 159.71C237.786 158.917 237.663 158.313 237.416 157.9C237.176 157.48 236.859 157.27 236.466 157.27C236.093 157.27 235.783 157.483 235.536 157.91Z" fill="#FF1934"/>
<path opacity="0.64" d="M60.904 217.635V214.275H61.552V217.619C61.552 218.312 61.376 218.837 61.024 219.195C60.6773 219.552 60.192 219.731 59.568 219.731C58.9547 219.731 58.4747 219.557 58.128 219.211C57.7813 218.859 57.608 218.349 57.608 217.683V214.275H58.256V217.675C58.256 218.171 58.3733 218.536 58.608 218.771C58.848 219.005 59.168 219.123 59.568 219.123C60.4587 219.123 60.904 218.627 60.904 217.635ZM64.9243 217.795H64.2203C63.8789 217.795 63.6229 217.861 63.4523 217.995C63.2816 218.128 63.1963 218.296 63.1963 218.499C63.1963 218.701 63.2629 218.867 63.3963 218.995C63.5296 219.117 63.7243 219.179 63.9803 219.179C64.2683 219.179 64.4976 219.099 64.6683 218.939C64.8389 218.773 64.9243 218.565 64.9243 218.315V217.795ZM62.8283 216.459V215.827C63.1323 215.64 63.5323 215.547 64.0283 215.547C65.0469 215.547 65.5563 216.064 65.5563 217.099V219.667H64.9323V219.187C64.7243 219.533 64.3456 219.707 63.7963 219.707C63.4176 219.707 63.1109 219.595 62.8763 219.371C62.6469 219.147 62.5323 218.864 62.5323 218.523C62.5323 218.133 62.6789 217.832 62.9723 217.619C63.2709 217.4 63.6763 217.291 64.1883 217.291H64.9243V217.083C64.9243 216.763 64.8523 216.523 64.7083 216.363C64.5643 216.197 64.3216 216.115 63.9803 216.115C63.5483 216.115 63.1643 216.229 62.8283 216.459ZM67.3018 215.611V216.315C67.5418 215.808 67.9684 215.555 68.5818 215.555C68.9764 215.555 69.2911 215.675 69.5258 215.915C69.7604 216.155 69.8778 216.475 69.8778 216.875V219.667H69.2458V217.043C69.2458 216.744 69.1684 216.517 69.0138 216.363C68.8644 216.203 68.6671 216.123 68.4218 216.123C68.1178 216.123 67.8538 216.24 67.6298 216.475C67.4111 216.709 67.3018 217.035 67.3018 217.451V219.667H66.6778V215.611H67.3018ZM72.5181 219.003C72.8114 219.003 73.0701 218.891 73.2941 218.667C73.5234 218.437 73.6381 218.099 73.6381 217.651C73.6381 217.133 73.5287 216.749 73.3101 216.499C73.0914 216.248 72.8381 216.123 72.5501 216.123C72.2034 216.123 71.9287 216.261 71.7261 216.539C71.5234 216.811 71.4221 217.168 71.4221 217.611C71.4221 218.064 71.5341 218.411 71.7581 218.651C71.9821 218.885 72.2354 219.003 72.5181 219.003ZM73.6381 215.611H74.2701V219.339C74.2701 219.957 74.0994 220.421 73.7581 220.731C73.4167 221.045 72.9767 221.203 72.4381 221.203C71.9474 221.203 71.5287 221.12 71.1821 220.955V220.323C71.5234 220.52 71.9234 220.619 72.3821 220.619C72.7714 220.619 73.0781 220.515 73.3021 220.307C73.5261 220.099 73.6381 219.773 73.6381 219.331V218.875C73.3714 219.333 72.9741 219.563 72.4461 219.563C71.9821 219.563 71.5847 219.392 71.2541 219.051C70.9287 218.709 70.7661 218.235 70.7661 217.627C70.7661 217.024 70.9181 216.528 71.2221 216.139C71.5261 215.749 71.9234 215.555 72.4141 215.555C72.9687 215.555 73.3767 215.797 73.6381 216.283V215.611ZM80.4618 214.275V214.843H79.0058V219.667H78.3578V214.843H76.9018V214.275H80.4618ZM83.7212 215.611H84.3532V219.667H83.7212V218.963C83.5079 219.464 83.0839 219.715 82.4492 219.715C82.0492 219.715 81.7319 219.597 81.4972 219.363C81.2679 219.123 81.1532 218.803 81.1532 218.403V215.611H81.7852V218.243C81.7852 218.536 81.8599 218.76 82.0092 218.915C82.1585 219.069 82.3612 219.147 82.6172 219.147C82.9532 219.147 83.2199 219.029 83.4172 218.795C83.6199 218.56 83.7212 218.243 83.7212 217.843V215.611ZM86.1455 215.611V216.315C86.3855 215.808 86.8122 215.555 87.4255 215.555C87.8202 215.555 88.1348 215.675 88.3695 215.915C88.6042 216.155 88.7215 216.475 88.7215 216.875V219.667H88.0895V217.043C88.0895 216.744 88.0122 216.517 87.8575 216.363C87.7082 216.203 87.5108 216.123 87.2655 216.123C86.9615 216.123 86.6975 216.24 86.4735 216.475C86.2548 216.709 86.1455 217.035 86.1455 217.451V219.667H85.5215V215.611H86.1455ZM92.0258 217.795H91.3218C90.9805 217.795 90.7245 217.861 90.5538 217.995C90.3831 218.128 90.2978 218.296 90.2978 218.499C90.2978 218.701 90.3645 218.867 90.4978 218.995C90.6311 219.117 90.8258 219.179 91.0818 219.179C91.3698 219.179 91.5991 219.099 91.7698 218.939C91.9405 218.773 92.0258 218.565 92.0258 218.315V217.795ZM89.9298 216.459V215.827C90.2338 215.64 90.6338 215.547 91.1298 215.547C92.1485 215.547 92.6578 216.064 92.6578 217.099V219.667H92.0338V219.187C91.8258 219.533 91.4471 219.707 90.8978 219.707C90.5191 219.707 90.2125 219.595 89.9778 219.371C89.7485 219.147 89.6338 218.864 89.6338 218.523C89.6338 218.133 89.7805 217.832 90.0738 217.619C90.3725 217.4 90.7778 217.291 91.2898 217.291H92.0258V217.083C92.0258 216.763 91.9538 216.523 91.8098 216.363C91.6658 216.197 91.4231 216.115 91.0818 216.115C90.6498 216.115 90.2658 216.229 89.9298 216.459ZM93.8113 219.667V215.611H94.4433V219.667H93.8113ZM93.8273 214.635C93.7526 214.555 93.7153 214.456 93.7153 214.339C93.7153 214.221 93.7526 214.123 93.8273 214.043C93.9073 213.963 94.006 213.923 94.1233 213.923C94.2406 213.923 94.3393 213.963 94.4193 214.043C94.4993 214.123 94.5393 214.221 94.5393 214.339C94.5393 214.456 94.4993 214.555 94.4193 214.635C94.3393 214.709 94.2406 214.747 94.1233 214.747C94.006 214.747 93.9073 214.709 93.8273 214.635Z" fill="#2B2B2B"/>
<path d="M237.334 214.835V216.987H238.15C238.518 216.987 238.798 216.888 238.99 216.691C239.188 216.488 239.286 216.229 239.286 215.915C239.286 215.195 238.884 214.835 238.078 214.835H237.334ZM240.27 219.667H239.494L238.174 217.539H238.11H237.334V219.667H236.686V214.275H238.038C238.662 214.275 239.134 214.421 239.454 214.715C239.78 215.008 239.942 215.413 239.942 215.931C239.932 216.304 239.833 216.621 239.646 216.883C239.46 217.144 239.196 217.328 238.854 217.435L240.27 219.667ZM242.821 219.155C243.162 219.155 243.442 219.021 243.661 218.755C243.88 218.483 243.989 218.099 243.989 217.603C243.989 217.16 243.882 216.803 243.669 216.531C243.456 216.259 243.186 216.123 242.861 216.123C242.536 216.123 242.253 216.243 242.013 216.483C241.778 216.717 241.661 217.104 241.661 217.643C241.661 218.16 241.781 218.541 242.021 218.787C242.261 219.032 242.528 219.155 242.821 219.155ZM241.661 215.611V216.227C241.944 215.773 242.362 215.547 242.917 215.547C243.456 215.547 243.877 215.744 244.181 216.139C244.49 216.528 244.645 217.016 244.645 217.603C244.645 218.227 244.482 218.739 244.157 219.139C243.837 219.533 243.418 219.731 242.901 219.731C242.368 219.731 241.954 219.504 241.661 219.051V221.243H241.037V215.611H241.661ZM247.289 217.035C247.289 216.213 247.455 215.565 247.785 215.091C248.121 214.611 248.561 214.371 249.105 214.371C249.671 214.371 250.119 214.611 250.449 215.091C250.785 215.565 250.953 216.213 250.953 217.035C250.953 217.851 250.793 218.504 250.473 218.995C250.153 219.485 249.697 219.731 249.105 219.731C248.556 219.731 248.116 219.485 247.785 218.995C247.455 218.504 247.289 217.851 247.289 217.035ZM248.281 215.515C248.052 215.872 247.937 216.379 247.937 217.035C247.937 217.691 248.049 218.205 248.273 218.579C248.497 218.947 248.775 219.131 249.105 219.131C249.473 219.131 249.764 218.949 249.977 218.587C250.196 218.224 250.305 217.707 250.305 217.035C250.305 216.368 250.191 215.859 249.961 215.507C249.737 215.149 249.452 214.971 249.105 214.971C248.785 214.971 248.511 215.152 248.281 215.515ZM251.233 220.651L251.977 218.859H252.817L251.785 220.651H251.233ZM253.438 217.035C253.438 216.213 253.603 215.565 253.934 215.091C254.27 214.611 254.71 214.371 255.254 214.371C255.819 214.371 256.267 214.611 256.598 215.091C256.934 215.565 257.102 216.213 257.102 217.035C257.102 217.851 256.942 218.504 256.622 218.995C256.302 219.485 255.846 219.731 255.254 219.731C254.704 219.731 254.264 219.485 253.934 218.995C253.603 218.504 253.438 217.851 253.438 217.035ZM254.43 215.515C254.2 215.872 254.086 216.379 254.086 217.035C254.086 217.691 254.198 218.205 254.422 218.579C254.646 218.947 254.923 219.131 255.254 219.131C255.622 219.131 255.912 218.949 256.126 218.587C256.344 218.224 256.454 217.707 256.454 217.035C256.454 216.368 256.339 215.859 256.11 215.507C255.886 215.149 255.6 214.971 255.254 214.971C254.934 214.971 254.659 215.152 254.43 215.515ZM257.789 217.035C257.789 216.213 257.955 215.565 258.285 215.091C258.621 214.611 259.061 214.371 259.605 214.371C260.171 214.371 260.619 214.611 260.949 215.091C261.285 215.565 261.453 216.213 261.453 217.035C261.453 217.851 261.293 218.504 260.973 218.995C260.653 219.485 260.197 219.731 259.605 219.731C259.056 219.731 258.616 219.485 258.285 218.995C257.955 218.504 257.789 217.851 257.789 217.035ZM258.781 215.515C258.552 215.872 258.437 216.379 258.437 217.035C258.437 217.691 258.549 218.205 258.773 218.579C258.997 218.947 259.275 219.131 259.605 219.131C259.973 219.131 260.264 218.949 260.477 218.587C260.696 218.224 260.805 217.707 260.805 217.035C260.805 216.368 260.691 215.859 260.461 215.507C260.237 215.149 259.952 214.971 259.605 214.971C259.285 214.971 259.011 215.152 258.781 215.515ZM262.141 217.035C262.141 216.213 262.306 215.565 262.637 215.091C262.973 214.611 263.413 214.371 263.957 214.371C264.522 214.371 264.97 214.611 265.301 215.091C265.637 215.565 265.805 216.213 265.805 217.035C265.805 217.851 265.645 218.504 265.325 218.995C265.005 219.485 264.549 219.731 263.957 219.731C263.408 219.731 262.968 219.485 262.637 218.995C262.306 218.504 262.141 217.851 262.141 217.035ZM263.133 215.515C262.904 215.872 262.789 216.379 262.789 217.035C262.789 217.691 262.901 218.205 263.125 218.579C263.349 218.947 263.626 219.131 263.957 219.131C264.325 219.131 264.616 218.949 264.829 218.587C265.048 218.224 265.157 217.707 265.157 217.035C265.157 216.368 265.042 215.859 264.813 215.507C264.589 215.149 264.304 214.971 263.957 214.971C263.637 214.971 263.362 215.152 263.133 215.515ZM266.084 220.651L266.828 218.859H267.668L266.636 220.651H266.084ZM268.289 217.035C268.289 216.213 268.455 215.565 268.785 215.091C269.121 214.611 269.561 214.371 270.105 214.371C270.671 214.371 271.119 214.611 271.449 215.091C271.785 215.565 271.953 216.213 271.953 217.035C271.953 217.851 271.793 218.504 271.473 218.995C271.153 219.485 270.697 219.731 270.105 219.731C269.556 219.731 269.116 219.485 268.785 218.995C268.455 218.504 268.289 217.851 268.289 217.035ZM269.281 215.515C269.052 215.872 268.937 216.379 268.937 217.035C268.937 217.691 269.049 218.205 269.273 218.579C269.497 218.947 269.775 219.131 270.105 219.131C270.473 219.131 270.764 218.949 270.977 218.587C271.196 218.224 271.305 217.707 271.305 217.035C271.305 216.368 271.191 215.859 270.961 215.507C270.737 215.149 270.452 214.971 270.105 214.971C269.785 214.971 269.511 215.152 269.281 215.515ZM272.641 217.035C272.641 216.213 272.806 215.565 273.137 215.091C273.473 214.611 273.913 214.371 274.457 214.371C275.022 214.371 275.47 214.611 275.801 215.091C276.137 215.565 276.305 216.213 276.305 217.035C276.305 217.851 276.145 218.504 275.825 218.995C275.505 219.485 275.049 219.731 274.457 219.731C273.908 219.731 273.468 219.485 273.137 218.995C272.806 218.504 272.641 217.851 272.641 217.035ZM273.633 215.515C273.404 215.872 273.289 216.379 273.289 217.035C273.289 217.691 273.401 218.205 273.625 218.579C273.849 218.947 274.126 219.131 274.457 219.131C274.825 219.131 275.116 218.949 275.329 218.587C275.548 218.224 275.657 217.707 275.657 217.035C275.657 216.368 275.542 215.859 275.313 215.507C275.089 215.149 274.804 214.971 274.457 214.971C274.137 214.971 273.862 215.152 273.633 215.515ZM276.992 217.035C276.992 216.213 277.158 215.565 277.488 215.091C277.824 214.611 278.264 214.371 278.808 214.371C279.374 214.371 279.822 214.611 280.152 215.091C280.488 215.565 280.656 216.213 280.656 217.035C280.656 217.851 280.496 218.504 280.176 218.995C279.856 219.485 279.4 219.731 278.808 219.731C278.259 219.731 277.819 219.485 277.488 218.995C277.158 218.504 276.992 217.851 276.992 217.035ZM277.984 215.515C277.755 215.872 277.64 216.379 277.64 217.035C277.64 217.691 277.752 218.205 277.976 218.579C278.2 218.947 278.478 219.131 278.808 219.131C279.176 219.131 279.467 218.949 279.68 218.587C279.899 218.224 280.008 217.707 280.008 217.035C280.008 216.368 279.894 215.859 279.664 215.507C279.44 215.149 279.155 214.971 278.808 214.971C278.488 214.971 278.214 215.152 277.984 215.515Z" fill="#2B2B2B"/>
<mask id="path-25-inside-1_1124_4113" fill="white">
<path d="M57 228.667H281V250.667H57V228.667Z"/>
</mask>
<path d="M281 249.667H57V251.667H281V249.667Z" fill="#CCCCCC" mask="url(#path-25-inside-1_1124_4113)"/>
<path opacity="0.64" d="M60.704 236.275V236.843H59.248V241.667H58.6V236.843H57.144V236.275H60.704ZM63.6274 239.795H62.9234C62.582 239.795 62.326 239.861 62.1554 239.995C61.9847 240.128 61.8994 240.296 61.8994 240.499C61.8994 240.701 61.966 240.867 62.0994 240.995C62.2327 241.117 62.4274 241.179 62.6834 241.179C62.9714 241.179 63.2007 241.099 63.3714 240.939C63.542 240.773 63.6274 240.565 63.6274 240.315V239.795ZM61.5314 238.459V237.827C61.8354 237.64 62.2354 237.547 62.7314 237.547C63.75 237.547 64.2594 238.064 64.2594 239.099V241.667H63.6354V241.187C63.4274 241.533 63.0487 241.707 62.4994 241.707C62.1207 241.707 61.814 241.595 61.5794 241.371C61.35 241.147 61.2354 240.864 61.2354 240.523C61.2354 240.133 61.382 239.832 61.6754 239.619C61.974 239.4 62.3794 239.291 62.8914 239.291H63.6274V239.083C63.6274 238.763 63.5554 238.523 63.4114 238.363C63.2674 238.197 63.0247 238.115 62.6834 238.115C62.2514 238.115 61.8674 238.229 61.5314 238.459ZM67.2289 241.155C67.5542 241.155 67.8235 241.019 68.0369 240.747C68.2502 240.475 68.3569 240.12 68.3569 239.683C68.3569 239.181 68.2449 238.797 68.0209 238.531C67.8022 238.259 67.5249 238.123 67.1889 238.123C66.9009 238.123 66.6369 238.243 66.3969 238.483C66.1569 238.723 66.0369 239.099 66.0369 239.611C66.0369 240.149 66.1515 240.541 66.3809 240.787C66.6155 241.032 66.8982 241.155 67.2289 241.155ZM66.0369 236.011V238.219C66.3302 237.771 66.7409 237.547 67.2689 237.547C67.7809 237.547 68.1995 237.744 68.5249 238.139C68.8502 238.528 69.0129 239.04 69.0129 239.675C69.0129 240.245 68.8582 240.731 68.5489 241.131C68.2449 241.531 67.8235 241.731 67.2849 241.731C66.7409 241.731 66.3249 241.509 66.0369 241.067V241.667H65.4049V236.011H66.0369ZM72.4634 237.611H73.0954V241.667H72.4634V240.963C72.25 241.464 71.826 241.715 71.1914 241.715C70.7914 241.715 70.474 241.597 70.2394 241.363C70.01 241.123 69.8954 240.803 69.8954 240.403V237.611H70.5274V240.243C70.5274 240.536 70.602 240.76 70.7514 240.915C70.9007 241.069 71.1034 241.147 71.3594 241.147C71.6954 241.147 71.962 241.029 72.1594 240.795C72.362 240.56 72.4634 240.243 72.4634 239.843V237.611ZM74.8877 237.611V238.315C75.1277 237.808 75.5544 237.555 76.1677 237.555C76.5624 237.555 76.877 237.675 77.1117 237.915C77.3464 238.155 77.4637 238.475 77.4637 238.875V241.667H76.8317V239.043C76.8317 238.744 76.7544 238.517 76.5997 238.363C76.4504 238.203 76.253 238.123 76.0077 238.123C75.7037 238.123 75.4397 238.24 75.2157 238.475C74.997 238.709 74.8877 239.035 74.8877 239.451V241.667H74.2637V237.611H74.8877ZM80.104 241.003C80.3973 241.003 80.656 240.891 80.88 240.667C81.1093 240.437 81.224 240.099 81.224 239.651C81.224 239.133 81.1147 238.749 80.896 238.499C80.6773 238.248 80.424 238.123 80.136 238.123C79.7893 238.123 79.5147 238.261 79.312 238.539C79.1093 238.811 79.008 239.168 79.008 239.611C79.008 240.064 79.12 240.411 79.344 240.651C79.568 240.885 79.8213 241.003 80.104 241.003ZM81.224 237.611H81.856V241.339C81.856 241.957 81.6853 242.421 81.344 242.731C81.0027 243.045 80.5627 243.203 80.024 243.203C79.5333 243.203 79.1147 243.12 78.768 242.955V242.323C79.1093 242.52 79.5093 242.619 79.968 242.619C80.3573 242.619 80.664 242.515 80.888 242.307C81.112 242.099 81.224 241.773 81.224 241.331V240.875C80.9573 241.333 80.56 241.563 80.032 241.563C79.568 241.563 79.1707 241.392 78.84 241.051C78.5147 240.709 78.352 240.235 78.352 239.627C78.352 239.024 78.504 238.528 78.808 238.139C79.112 237.749 79.5093 237.555 80 237.555C80.5547 237.555 80.9627 237.797 81.224 238.283V237.611ZM85.1586 239.795H84.4546C84.1133 239.795 83.8573 239.861 83.6866 239.995C83.516 240.128 83.4306 240.296 83.4306 240.499C83.4306 240.701 83.4973 240.867 83.6306 240.995C83.764 241.117 83.9586 241.179 84.2146 241.179C84.5026 241.179 84.732 241.099 84.9026 240.939C85.0733 240.773 85.1586 240.565 85.1586 240.315V239.795ZM83.0626 238.459V237.827C83.3666 237.64 83.7666 237.547 84.2626 237.547C85.2813 237.547 85.7906 238.064 85.7906 239.099V241.667H85.1666V241.187C84.9586 241.533 84.58 241.707 84.0306 241.707C83.652 241.707 83.3453 241.595 83.1106 241.371C82.8813 241.147 82.7666 240.864 82.7666 240.523C82.7666 240.133 82.9133 239.832 83.2066 239.619C83.5053 239.4 83.9106 239.291 84.4226 239.291H85.1586V239.083C85.1586 238.763 85.0866 238.523 84.9426 238.363C84.7986 238.197 84.556 238.115 84.2146 238.115C83.7826 238.115 83.3986 238.229 83.0626 238.459ZM87.5361 237.611V238.315C87.7761 237.808 88.2028 237.555 88.8161 237.555C89.2108 237.555 89.5255 237.675 89.7601 237.915C89.9948 238.155 90.1121 238.475 90.1121 238.875V241.667H89.4801V239.043C89.4801 238.744 89.4028 238.517 89.2481 238.363C89.0988 238.203 88.9015 238.123 88.6561 238.123C88.3521 238.123 88.0881 238.24 87.8641 238.475C87.6455 238.709 87.5361 239.035 87.5361 239.451V241.667H86.9121V237.611H87.5361Z" fill="#2B2B2B"/>
<path d="M237.334 236.835V238.987H238.15C238.518 238.987 238.798 238.888 238.99 238.691C239.188 238.488 239.286 238.229 239.286 237.915C239.286 237.195 238.884 236.835 238.078 236.835H237.334ZM240.27 241.667H239.494L238.174 239.539H238.11H237.334V241.667H236.686V236.275H238.038C238.662 236.275 239.134 236.421 239.454 236.715C239.78 237.008 239.942 237.413 239.942 237.931C239.932 238.304 239.833 238.621 239.646 238.883C239.46 239.144 239.196 239.328 238.854 239.435L240.27 241.667ZM242.821 241.155C243.162 241.155 243.442 241.021 243.661 240.755C243.88 240.483 243.989 240.099 243.989 239.603C243.989 239.16 243.882 238.803 243.669 238.531C243.456 238.259 243.186 238.123 242.861 238.123C242.536 238.123 242.253 238.243 242.013 238.483C241.778 238.717 241.661 239.104 241.661 239.643C241.661 240.16 241.781 240.541 242.021 240.787C242.261 241.032 242.528 241.155 242.821 241.155ZM241.661 237.611V238.227C241.944 237.773 242.362 237.547 242.917 237.547C243.456 237.547 243.877 237.744 244.181 238.139C244.49 238.528 244.645 239.016 244.645 239.603C244.645 240.227 244.482 240.739 244.157 241.139C243.837 241.533 243.418 241.731 242.901 241.731C242.368 241.731 241.954 241.504 241.661 241.051V243.243H241.037V237.611H241.661ZM247.289 239.035C247.289 238.213 247.455 237.565 247.785 237.091C248.121 236.611 248.561 236.371 249.105 236.371C249.671 236.371 250.119 236.611 250.449 237.091C250.785 237.565 250.953 238.213 250.953 239.035C250.953 239.851 250.793 240.504 250.473 240.995C250.153 241.485 249.697 241.731 249.105 241.731C248.556 241.731 248.116 241.485 247.785 240.995C247.455 240.504 247.289 239.851 247.289 239.035ZM248.281 237.515C248.052 237.872 247.937 238.379 247.937 239.035C247.937 239.691 248.049 240.205 248.273 240.579C248.497 240.947 248.775 241.131 249.105 241.131C249.473 241.131 249.764 240.949 249.977 240.587C250.196 240.224 250.305 239.707 250.305 239.035C250.305 238.368 250.191 237.859 249.961 237.507C249.737 237.149 249.452 236.971 249.105 236.971C248.785 236.971 248.511 237.152 248.281 237.515ZM251.233 242.651L251.977 240.859H252.817L251.785 242.651H251.233ZM253.438 239.035C253.438 238.213 253.603 237.565 253.934 237.091C254.27 236.611 254.71 236.371 255.254 236.371C255.819 236.371 256.267 236.611 256.598 237.091C256.934 237.565 257.102 238.213 257.102 239.035C257.102 239.851 256.942 240.504 256.622 240.995C256.302 241.485 255.846 241.731 255.254 241.731C254.704 241.731 254.264 241.485 253.934 240.995C253.603 240.504 253.438 239.851 253.438 239.035ZM254.43 237.515C254.2 237.872 254.086 238.379 254.086 239.035C254.086 239.691 254.198 240.205 254.422 240.579C254.646 240.947 254.923 241.131 255.254 241.131C255.622 241.131 255.912 240.949 256.126 240.587C256.344 240.224 256.454 239.707 256.454 239.035C256.454 238.368 256.339 237.859 256.11 237.507C255.886 237.149 255.6 236.971 255.254 236.971C254.934 236.971 254.659 237.152 254.43 237.515ZM257.789 239.035C257.789 238.213 257.955 237.565 258.285 237.091C258.621 236.611 259.061 236.371 259.605 236.371C260.171 236.371 260.619 236.611 260.949 237.091C261.285 237.565 261.453 238.213 261.453 239.035C261.453 239.851 261.293 240.504 260.973 240.995C260.653 241.485 260.197 241.731 259.605 241.731C259.056 241.731 258.616 241.485 258.285 240.995C257.955 240.504 257.789 239.851 257.789 239.035ZM258.781 237.515C258.552 237.872 258.437 238.379 258.437 239.035C258.437 239.691 258.549 240.205 258.773 240.579C258.997 240.947 259.275 241.131 259.605 241.131C259.973 241.131 260.264 240.949 260.477 240.587C260.696 240.224 260.805 239.707 260.805 239.035C260.805 238.368 260.691 237.859 260.461 237.507C260.237 237.149 259.952 236.971 259.605 236.971C259.285 236.971 259.011 237.152 258.781 237.515ZM262.141 239.035C262.141 238.213 262.306 237.565 262.637 237.091C262.973 236.611 263.413 236.371 263.957 236.371C264.522 236.371 264.97 236.611 265.301 237.091C265.637 237.565 265.805 238.213 265.805 239.035C265.805 239.851 265.645 240.504 265.325 240.995C265.005 241.485 264.549 241.731 263.957 241.731C263.408 241.731 262.968 241.485 262.637 240.995C262.306 240.504 262.141 239.851 262.141 239.035ZM263.133 237.515C262.904 237.872 262.789 238.379 262.789 239.035C262.789 239.691 262.901 240.205 263.125 240.579C263.349 240.947 263.626 241.131 263.957 241.131C264.325 241.131 264.616 240.949 264.829 240.587C265.048 240.224 265.157 239.707 265.157 239.035C265.157 238.368 265.042 237.859 264.813 237.507C264.589 237.149 264.304 236.971 263.957 236.971C263.637 236.971 263.362 237.152 263.133 237.515ZM266.084 242.651L266.828 240.859H267.668L266.636 242.651H266.084ZM268.289 239.035C268.289 238.213 268.455 237.565 268.785 237.091C269.121 236.611 269.561 236.371 270.105 236.371C270.671 236.371 271.119 236.611 271.449 237.091C271.785 237.565 271.953 238.213 271.953 239.035C271.953 239.851 271.793 240.504 271.473 240.995C271.153 241.485 270.697 241.731 270.105 241.731C269.556 241.731 269.116 241.485 268.785 240.995C268.455 240.504 268.289 239.851 268.289 239.035ZM269.281 237.515C269.052 237.872 268.937 238.379 268.937 239.035C268.937 239.691 269.049 240.205 269.273 240.579C269.497 240.947 269.775 241.131 270.105 241.131C270.473 241.131 270.764 240.949 270.977 240.587C271.196 240.224 271.305 239.707 271.305 239.035C271.305 238.368 271.191 237.859 270.961 237.507C270.737 237.149 270.452 236.971 270.105 236.971C269.785 236.971 269.511 237.152 269.281 237.515ZM272.641 239.035C272.641 238.213 272.806 237.565 273.137 237.091C273.473 236.611 273.913 236.371 274.457 236.371C275.022 236.371 275.47 236.611 275.801 237.091C276.137 237.565 276.305 238.213 276.305 239.035C276.305 239.851 276.145 240.504 275.825 240.995C275.505 241.485 275.049 241.731 274.457 241.731C273.908 241.731 273.468 241.485 273.137 240.995C272.806 240.504 272.641 239.851 272.641 239.035ZM273.633 237.515C273.404 237.872 273.289 238.379 273.289 239.035C273.289 239.691 273.401 240.205 273.625 240.579C273.849 240.947 274.126 241.131 274.457 241.131C274.825 241.131 275.116 240.949 275.329 240.587C275.548 240.224 275.657 239.707 275.657 239.035C275.657 238.368 275.542 237.859 275.313 237.507C275.089 237.149 274.804 236.971 274.457 236.971C274.137 236.971 273.862 237.152 273.633 237.515ZM276.992 239.035C276.992 238.213 277.158 237.565 277.488 237.091C277.824 236.611 278.264 236.371 278.808 236.371C279.374 236.371 279.822 236.611 280.152 237.091C280.488 237.565 280.656 238.213 280.656 239.035C280.656 239.851 280.496 240.504 280.176 240.995C279.856 241.485 279.4 241.731 278.808 241.731C278.259 241.731 277.819 241.485 277.488 240.995C277.158 240.504 276.992 239.851 276.992 239.035ZM277.984 237.515C277.755 237.872 277.64 238.379 277.64 239.035C277.64 239.691 277.752 240.205 277.976 240.579C278.2 240.947 278.478 241.131 278.808 241.131C279.176 241.131 279.467 240.949 279.68 240.587C279.899 240.224 280.008 239.707 280.008 239.035C280.008 238.368 279.894 237.859 279.664 237.507C279.44 237.149 279.155 236.971 278.808 236.971C278.488 236.971 278.214 237.152 277.984 237.515Z" fill="#2B2B2B"/>
<rect x="109" y="270" width="120" height="24" rx="8" fill="#FF1934"/>
<path d="M157.959 283.176L158.823 283.176C159.468 283.176 159.791 282.931 159.791 282.44C159.791 281.939 159.455 281.688 158.783 281.688L157.959 281.688L157.959 283.176ZM157.959 279.432L157.959 280.88L158.567 280.88C158.929 280.88 159.201 280.808 159.383 280.664C159.564 280.52 159.655 280.336 159.655 280.112C159.655 279.904 159.577 279.739 159.423 279.616C159.273 279.493 159.044 279.432 158.735 279.432L157.959 279.432ZM156.951 278.608L158.863 278.608C159.439 278.608 159.887 278.744 160.207 279.016C160.527 279.288 160.687 279.64 160.687 280.072C160.687 280.365 160.607 280.621 160.447 280.84C160.287 281.053 160.081 281.195 159.831 281.264C160.119 281.333 160.356 281.475 160.543 281.688C160.729 281.896 160.823 282.181 160.823 282.544C160.823 282.971 160.673 283.32 160.375 283.592C160.076 283.864 159.663 284 159.135 284L156.951 284L156.951 278.608ZM163.053 281.952L164.573 281.952L164.501 281.712C164.32 281.136 164.17 280.653 164.053 280.264C163.941 279.869 163.872 279.621 163.845 279.52L163.813 279.36C163.765 279.627 163.536 280.413 163.125 281.72L163.053 281.952ZM165.213 284L164.829 282.776L162.789 282.776L162.405 284L161.349 284L163.173 278.608L164.477 278.608L166.301 284L165.213 284ZM171.364 278.608L169.508 282L169.508 284L168.5 284L168.5 282.032L166.66 278.608L167.836 278.608L168.196 279.392C168.404 279.845 168.574 280.227 168.708 280.536C168.841 280.84 168.921 281.029 168.948 281.104L168.996 281.224C169.044 281.027 169.318 280.416 169.82 279.392L170.188 278.608L171.364 278.608ZM173.436 281.952L174.956 281.952L174.884 281.712C174.702 281.136 174.553 280.653 174.436 280.264C174.324 279.869 174.254 279.621 174.228 279.52L174.196 279.36C174.148 279.627 173.918 280.413 173.508 281.72L173.436 281.952ZM175.596 284L175.212 282.776L173.172 282.776L172.788 284L171.732 284L173.556 278.608L174.86 278.608L176.684 284L175.596 284ZM178.466 279.44L178.466 281.2L179.138 281.2C179.448 281.2 179.68 281.123 179.834 280.968C179.989 280.808 180.066 280.587 180.066 280.304C180.066 280.027 179.984 279.813 179.818 279.664C179.658 279.515 179.426 279.44 179.122 279.44L178.466 279.44ZM180.242 284L179.018 282.032L178.466 282.032L178.466 284L177.458 284L177.458 278.608L179.122 278.608C179.736 278.608 180.216 278.763 180.562 279.072C180.914 279.381 181.09 279.795 181.09 280.312C181.085 280.696 180.992 281.021 180.81 281.288C180.629 281.549 180.381 281.744 180.066 281.872L181.45 284L180.242 284Z" fill="white"/>
<path d="M9 341.5H329C333.694 341.5 337.5 345.306 337.5 350C337.5 354.694 333.694 358.5 329 358.5H9C4.30558 358.5 0.5 354.694 0.5 350C0.500002 345.306 4.30558 341.5 9 341.5Z" fill="white"/>
<path d="M9 341.5H329C333.694 341.5 337.5 345.306 337.5 350C337.5 354.694 333.694 358.5 329 358.5H9C4.30558 358.5 0.5 354.694 0.5 350C0.500002 345.306 4.30558 341.5 9 341.5Z" stroke="#CCCCCC"/>
<path d="M7.86805e-07 350C3.52265e-07 345.029 4.02944 341 9 341L39 341C43.9706 341 48 345.029 48 350C48 354.971 43.9706 359 39 359L9 359C4.02944 359 1.22135e-06 354.971 7.86805e-07 350Z" fill="#FF1934"/>
<path d="M15.448 346.688H16.264L16.816 348.6L17.456 350.92C17.5893 350.179 17.7547 349.403 17.952 348.592L18.44 346.608H19.464L18.088 352H16.92L16.432 350.296C16.2987 349.843 16.184 349.443 16.088 349.096C15.9973 348.749 15.936 348.517 15.904 348.4L15.864 348.216C15.7893 348.589 15.6027 349.283 15.304 350.296L14.8 352H13.64L12.2 346.608H13.264L13.768 348.6C13.8533 348.957 13.9387 349.328 14.024 349.712C14.1093 350.096 14.1733 350.389 14.216 350.592L14.28 350.904C14.4507 350.232 14.6587 349.464 14.904 348.6L15.448 346.688ZM22.2561 350.256H21.7601C21.5094 350.256 21.3174 350.309 21.1841 350.416C21.0507 350.517 20.9841 350.648 20.9841 350.808C20.9841 351.149 21.1814 351.32 21.5761 351.32C21.7894 351.32 21.9547 351.259 22.0721 351.136C22.1947 351.008 22.2561 350.843 22.2561 350.64V350.256ZM20.2881 349.04V348.152C20.5921 347.965 21.0294 347.872 21.6001 347.872C22.6987 347.872 23.2481 348.384 23.2481 349.408V352H22.2961V351.512C22.1094 351.859 21.7574 352.032 21.2401 352.032C20.8561 352.032 20.5494 351.92 20.3201 351.696C20.0961 351.472 19.9841 351.189 19.9841 350.848C19.9841 350.464 20.1281 350.163 20.4161 349.944C20.7041 349.725 21.1201 349.616 21.6641 349.616H22.2561V349.368C22.2561 349.144 22.1974 348.973 22.0801 348.856C21.9627 348.739 21.7627 348.68 21.4801 348.68C21.0481 348.68 20.6507 348.8 20.2881 349.04ZM27.7828 352H26.6548L25.1988 349.904V352H24.2388V346.44H25.1988V349.848L26.6308 347.944H27.7508L26.2628 349.88L27.7828 352ZM29.5864 348.664V350.728C29.5864 350.899 29.6318 351.029 29.7224 351.12C29.8131 351.205 29.9384 351.248 30.0984 351.248C30.3011 351.248 30.4878 351.192 30.6584 351.08V351.904C30.4718 351.995 30.2318 352.04 29.9384 352.04C29.0638 352.04 28.6264 351.597 28.6264 350.712V348.664H28.0184V347.944H28.6264V346.968H29.5864V347.944H30.5944V348.664H29.5864ZM33.9617 347.944H34.9297V352H33.9617V351.336C33.7484 351.805 33.3324 352.04 32.7137 352.04C32.303 352.04 31.983 351.923 31.7537 351.688C31.5244 351.453 31.4097 351.12 31.4097 350.688V347.944H32.3697V350.464C32.3697 350.72 32.431 350.915 32.5537 351.048C32.6817 351.181 32.855 351.248 33.0737 351.248C33.351 351.248 33.567 351.155 33.7217 350.968C33.8817 350.781 33.9617 350.499 33.9617 350.12V347.944Z" fill="white"/>
<rect x="56" y="348" width="274" height="4" rx="2" fill="#CCCCCC"/>
<mask id="mask0_1124_4113" style="mask-type:alpha" maskUnits="userSpaceOnUse" x="56" y="348" width="274" height="4">
<rect x="56" y="348" width="274" height="4" rx="2" fill="#CCCCCC"/>
</mask>
<g mask="url(#mask0_1124_4113)">
<rect x="56" y="348" width="274" height="4" rx="2" fill="#FF1934"/>
</g>
<defs>
<filter id="filter0_d_1124_4113" x="22.5" y="14" width="293" height="56" filterUnits="userSpaceOnUse" color-interpolation-filters="sRGB">
<feFlood flood-opacity="0" result="BackgroundImageFix"/>
<feColorMatrix in="SourceAlpha" type="matrix" values="0 0 0 0 0 0 0 0 0 0 0 0 0 0 0 0 0 0 127 0" result="hardAlpha"/>
<feOffset dy="2"/>
<feGaussianBlur stdDeviation="2"/>
<feComposite in2="hardAlpha" operator="out"/>
<feColorMatrix type="matrix" values="0 0 0 0 0.168627 0 0 0 0 0.168627 0 0 0 0 0.168627 0 0 0 0.24 0"/>
<feBlend mode="normal" in2="BackgroundImageFix" result="effect1_dropShadow_1124_4113"/>
<feBlend mode="normal" in="SourceGraphic" in2="effect1_dropShadow_1124_4113" result="shape"/>
</filter>
<clipPath id="clip0_1124_4113">
<rect width="24" height="24" fill="white" transform="translate(42.5 32)"/>
</clipPath>
<clipPath id="clip1_1124_4113">
<rect width="64" height="64" fill="white" transform="translate(137 72)"/>
</clipPath>
</defs>
</svg>
