<svg width="338" height="375" viewBox="0 0 338 375" fill="none" xmlns="http://www.w3.org/2000/svg">
<rect width="338" height="375" fill="#D3D3D3"/>
<rect x="9" y="16" width="320" height="294" rx="16" fill="white"/>
<g filter="url(#filter0_d_1124_4113)">
<path d="M9 32C9 23.1634 16.1634 16 25 16H313C321.837 16 329 23.1634 329 32V64H9V32Z" fill="#FF1934" shape-rendering="crispEdges"/>
<g clip-path="url(#clip0_1124_4113)">
<path d="M37 34C31.49 34 27 38.49 27 44C27 46.27 27.74 48.41 29.14 50.18C29.41 50.53 29.92 50.59 30.26 50.31C30.61 50.04 30.67 49.53 30.39 49.19C29.21 47.7 28.59 45.9 28.59 44C28.6 39.37 32.37 35.6 37 35.6C41.63 35.6 45.4 39.37 45.4 44C45.4 48.63 41.63 52.4 37 52.4C35.32 52.4 33.69 51.9 32.3 50.97C31.93 50.72 31.44 50.82 31.19 51.18C30.94 51.54 31.04 52.04 31.4 52.29C33.06 53.41 34.99 54 36.99 54C42.5 54 46.99 49.51 46.99 44C46.99 38.49 42.51 34 37 34Z" fill="white"/>
<path d="M40.7402 38.14C40.3702 37.9 39.8702 38.01 39.6302 38.38L36.3202 43.57C36.2402 43.7 36.2002 43.85 36.2002 44V48C36.2002 48.44 36.5602 48.8 37.0002 48.8C37.4402 48.8 37.8002 48.44 37.8002 48V44.23L40.9902 39.24C41.2302 38.87 41.1202 38.37 40.7502 38.13L40.7402 38.14Z" fill="white"/>
</g>
<path d="M60.066 46.11H63.552V48H57.91V38.564H60.066V46.11ZM64.7459 48V40.902H66.7899V48H64.7459ZM64.9279 39.684C64.6946 39.4507 64.5779 39.1707 64.5779 38.844C64.5779 38.5173 64.6946 38.2373 64.9279 38.004C65.1613 37.7707 65.4413 37.654 65.7679 37.654C66.0946 37.654 66.3746 37.7707 66.6079 38.004C66.8413 38.2373 66.9579 38.5173 66.9579 38.844C66.9579 39.1707 66.8413 39.4507 66.6079 39.684C66.3746 39.9173 66.0946 40.034 65.7679 40.034C65.4413 40.034 65.1613 39.9173 64.9279 39.684ZM70.5891 40.902V42.106C70.7664 41.714 71.0371 41.406 71.4011 41.182C71.7744 40.9487 72.2177 40.832 72.7311 40.832C73.4591 40.832 74.0284 41.0513 74.4391 41.49C74.8497 41.9193 75.0551 42.554 75.0551 43.394V48H73.0111V43.772C73.0111 43.352 72.9131 43.0347 72.7171 42.82C72.5211 42.596 72.2457 42.484 71.8911 42.484C71.5177 42.484 71.2051 42.6333 70.9531 42.932C70.7104 43.2213 70.5891 43.66 70.5891 44.248V48H68.5451V40.902H70.5891ZM76.7362 48V40.902H78.7802V48H76.7362ZM76.9182 39.684C76.6848 39.4507 76.5682 39.1707 76.5682 38.844C76.5682 38.5173 76.6848 38.2373 76.9182 38.004C77.1515 37.7707 77.4315 37.654 77.7582 37.654C78.0848 37.654 78.3648 37.7707 78.5982 38.004C78.8315 38.2373 78.9482 38.5173 78.9482 38.844C78.9482 39.1707 78.8315 39.4507 78.5982 39.684C78.3648 39.9173 78.0848 40.034 77.7582 40.034C77.4315 40.034 77.1515 39.9173 76.9182 39.684ZM83.8953 48L84.7073 38.564H87.0733L88.3893 41.98C88.6133 42.5493 88.8046 43.072 88.9633 43.548C89.122 44.024 89.2246 44.36 89.2713 44.556L89.3413 44.836C89.4906 44.22 89.8173 43.268 90.3213 41.98L91.6513 38.564H94.0173L94.9973 48H92.8413L92.4913 44.346L92.3093 41.588C92.0666 42.288 91.7306 43.2073 91.3013 44.346L89.9713 47.902H88.6973L87.3813 44.346C87.1666 43.7673 86.9846 43.2493 86.8353 42.792C86.686 42.3347 86.588 42.0173 86.5413 41.84L86.4713 41.588C86.4713 42.2507 86.4293 43.17 86.3453 44.346L86.0513 48H83.8953ZM100.045 45.088H99.3874C99.0421 45.088 98.7761 45.1627 98.5894 45.312C98.4027 45.4613 98.3094 45.6527 98.3094 45.886C98.3094 46.362 98.5847 46.6 99.1354 46.6C99.4247 46.6 99.6487 46.5113 99.8074 46.334C99.9661 46.1567 100.045 45.914 100.045 45.606V45.088ZM96.7274 43.086V41.252C97.2874 40.9347 98.0947 40.776 99.1494 40.776C100.157 40.776 100.909 40.9953 101.403 41.434C101.898 41.8633 102.145 42.5353 102.145 43.45V48H100.143V47.132C99.8447 47.7387 99.2567 48.042 98.3794 48.042C97.6887 48.042 97.1474 47.846 96.7554 47.454C96.3727 47.062 96.1814 46.572 96.1814 45.984C96.1814 45.3027 96.4287 44.7753 96.9234 44.402C97.4274 44.0193 98.1694 43.828 99.1494 43.828H100.045V43.338C100.045 42.7407 99.6487 42.442 98.8554 42.442C98.0901 42.442 97.3807 42.6567 96.7274 43.086ZM108.23 41.112V42.862C107.735 42.5727 107.157 42.428 106.494 42.428C106.251 42.428 106.065 42.4793 105.934 42.582C105.803 42.6753 105.738 42.7967 105.738 42.946C105.738 43.03 105.761 43.1093 105.808 43.184C105.855 43.2587 105.929 43.3287 106.032 43.394C106.144 43.4593 106.247 43.52 106.34 43.576C106.443 43.6227 106.578 43.6833 106.746 43.758C106.923 43.8327 107.063 43.898 107.166 43.954C107.595 44.178 107.941 44.4393 108.202 44.738C108.463 45.0273 108.594 45.4007 108.594 45.858C108.594 46.558 108.342 47.0993 107.838 47.482C107.334 47.8647 106.667 48.056 105.836 48.056C104.977 48.056 104.259 47.9113 103.68 47.622V45.802C104.324 46.25 105.005 46.474 105.724 46.474C106.237 46.474 106.494 46.3107 106.494 45.984C106.494 45.9 106.471 45.8207 106.424 45.746C106.377 45.6713 106.298 45.6013 106.186 45.536C106.074 45.4707 105.971 45.4193 105.878 45.382C105.785 45.3353 105.649 45.2747 105.472 45.2C105.295 45.1253 105.159 45.0647 105.066 45.018C104.123 44.57 103.652 43.898 103.652 43.002C103.652 42.3113 103.913 41.7747 104.436 41.392C104.968 41.0093 105.626 40.818 106.41 40.818C107.138 40.818 107.745 40.916 108.23 41.112ZM113.362 45.088H112.704C112.358 45.088 112.092 45.1627 111.906 45.312C111.719 45.4613 111.626 45.6527 111.626 45.886C111.626 46.362 111.901 46.6 112.452 46.6C112.741 46.6 112.965 46.5113 113.124 46.334C113.282 46.1567 113.362 45.914 113.362 45.606V45.088ZM110.044 43.086V41.252C110.604 40.9347 111.411 40.776 112.466 40.776C113.474 40.776 114.225 40.9953 114.72 41.434C115.214 41.8633 115.462 42.5353 115.462 43.45V48H113.46V47.132C113.161 47.7387 112.573 48.042 111.696 48.042C111.005 48.042 110.464 47.846 110.072 47.454C109.689 47.062 109.498 46.572 109.498 45.984C109.498 45.3027 109.745 44.7753 110.24 44.402C110.744 44.0193 111.486 43.828 112.466 43.828H113.362V43.338C113.362 42.7407 112.965 42.442 112.172 42.442C111.406 42.442 110.697 42.6567 110.044 43.086Z" fill="white"/>
</g>
<g clip-path="url(#clip1_1124_4113)">
<path d="M169 122.65C160.603 122.65 152.56 123.191 150.726 123.994C148.431 124.997 156.353 126.017 169 126.017C181.647 126.017 189.568 124.997 187.274 123.994C185.439 123.192 177.396 122.65 169 122.65Z" fill="#CCCCCC"/>
<path d="M172.908 90.1771L177.215 93.1189L177.882 92.6364L173.114 89.3799L172.908 90.1771Z" fill="#D9AA16"/>
<path d="M159.1 115.018C167.439 120.713 177.722 120.173 182.067 113.812C186.412 107.45 183.174 97.6754 174.834 91.9798C166.495 86.2842 156.212 86.8242 151.867 93.1859C147.522 99.5477 150.76 109.322 159.1 115.018Z" fill="#DA011C"/>
<path d="M159.615 114.477C162.544 116.457 165.955 117.775 169.456 118.08C172.958 118.384 176.016 117.63 178.346 116.109L166.967 103.498L159.614 114.476L159.615 114.477Z" fill="#FF1934"/>
<path d="M178.267 116.161C180.618 114.661 182.289 112.362 182.875 109.418C183.461 106.475 182.873 103.335 181.403 100.414L166.967 103.499L178.267 116.161Z" fill="#D9AA16"/>
<path d="M151.061 97.5802C150.514 100.314 150.949 103.439 152.529 106.585C154.109 109.731 156.595 112.418 159.515 114.41L166.967 103.499L151.062 97.5806L151.061 97.5802Z" fill="#1699D9"/>
<path d="M181.403 100.414C179.938 97.4914 177.563 94.7327 174.421 92.5864C171.278 90.4402 167.845 89.2316 164.589 88.9303L166.967 103.499L181.403 100.414Z" fill="#CC0BD9"/>
<path d="M164.478 88.92C161.225 88.6341 158.096 89.2501 155.585 90.8862C153.074 92.5224 151.562 94.9298 151.043 97.6733L166.966 103.499L164.478 88.92Z" fill="#008C1E"/>
<path d="M151.042 97.6728L166.797 103.536L159.416 114.342C159.449 114.365 159.481 114.389 159.514 114.412C159.547 114.435 159.581 114.455 159.615 114.478L166.995 103.671L178.189 116.214C178.242 116.18 178.297 116.148 178.35 116.114L167.155 103.569L181.454 100.513C181.421 100.447 181.385 100.38 181.352 100.315L167.055 103.37L164.7 88.9416C164.626 88.9342 164.552 88.9249 164.478 88.919L166.834 103.35L151.076 97.4856C151.063 97.5477 151.053 97.6104 151.042 97.6728Z" fill="white"/>
<g style="mix-blend-mode:multiply" opacity="0.32">
<path d="M159.514 114.411C167.415 119.807 177.156 119.296 181.272 113.269C185.388 107.242 182.321 97.9823 174.42 92.5864C166.52 87.1905 156.778 87.702 152.662 93.729C148.546 99.7559 151.613 109.016 159.514 114.411ZM174.006 93.1923C181.468 98.2883 184.365 107.034 180.478 112.726C176.59 118.419 167.39 118.902 159.928 113.806C152.466 108.709 149.569 99.9638 153.457 94.2715C157.344 88.5791 166.544 88.096 174.006 93.1923Z" fill="#2B2B2B"/>
</g>
<path d="M166.139 104.711C167.017 105.311 168.099 105.254 168.556 104.584C169.014 103.915 168.673 102.886 167.795 102.287C166.918 101.687 165.835 101.744 165.378 102.414C164.921 103.083 165.262 104.112 166.139 104.711Z" fill="white"/>
<path d="M177.882 92.6362C177.511 91.7422 176.864 90.9214 175.973 90.3128C175.082 89.7043 174.081 89.4 173.114 89.3796L173.489 93.9502L177.882 92.6362Z" fill="#D9AA16"/>
<path d="M173.114 89.3799L172.908 90.1771L173.196 90.3738L173.114 89.3799Z" fill="#D9AA16"/>
<path d="M177.214 93.1188C177.214 93.1188 177.464 92.9378 177.548 92.8774C177.632 92.817 177.553 92.7341 177.444 92.767C177.314 92.8057 176.927 92.9217 176.927 92.9217L177.215 93.1184L177.214 93.1188Z" fill="#B76F09"/>
<path d="M172.907 90.1769C172.907 90.1769 172.985 89.8782 173.011 89.7781C173.037 89.678 173.143 89.7214 173.152 89.8353C173.163 89.9699 173.196 90.3732 173.196 90.3732L172.908 90.1765L172.907 90.1769Z" fill="#B76F09"/>
<path d="M175.766 90.616C176.426 91.0669 176.953 91.6615 177.308 92.3495L173.882 93.3741L173.59 89.8098C174.36 89.8899 175.105 90.1652 175.766 90.616Z" fill="white"/>
</g>
<path d="M80.3753 144.49H82.5353L82.4253 144.15C82.1719 143.363 81.9653 142.713 81.8053 142.2C81.6453 141.68 81.5486 141.357 81.5153 141.23L81.4653 141.04C81.3919 141.353 81.0653 142.39 80.4853 144.15L80.3753 144.49ZM83.3453 147L82.8153 145.35H80.0953L79.5553 147H78.4653L80.7953 140.26H82.1453L84.4453 147H83.3453ZM86.4268 141.93V142.8C86.7268 142.173 87.2535 141.86 88.0068 141.86C88.5068 141.86 88.9035 142.013 89.1968 142.32C89.4902 142.627 89.6368 143.043 89.6368 143.57V147H88.6568V143.8C88.6568 143.447 88.5668 143.177 88.3868 142.99C88.2135 142.803 87.9802 142.71 87.6868 142.71C87.3402 142.71 87.0435 142.847 86.7968 143.12C86.5502 143.387 86.4268 143.763 86.4268 144.25V147H85.4468V141.93H86.4268ZM93.0046 146.21C93.3913 146.21 93.718 146.063 93.9846 145.77C94.2513 145.477 94.3846 145.03 94.3846 144.43C94.3846 143.85 94.2446 143.42 93.9646 143.14C93.6913 142.86 93.3813 142.72 93.0346 142.72C92.6413 142.72 92.318 142.877 92.0646 143.19C91.8113 143.497 91.6846 143.937 91.6846 144.51C91.6846 145.017 91.808 145.427 92.0546 145.74C92.308 146.053 92.6246 146.21 93.0046 146.21ZM94.3846 139.93H95.3746V147H94.3846V146.23C94.0313 146.79 93.5146 147.07 92.8346 147.07C92.168 147.07 91.6413 146.82 91.2546 146.32C90.868 145.813 90.6746 145.203 90.6746 144.49C90.6746 143.697 90.878 143.06 91.2846 142.58C91.6913 142.1 92.2146 141.86 92.8546 141.86C93.5146 141.86 94.0246 142.14 94.3846 142.7V139.93ZM99.4254 144.74H98.6654C98.2921 144.74 98.0088 144.813 97.8154 144.96C97.6288 145.107 97.5354 145.293 97.5354 145.52C97.5354 145.753 97.6088 145.937 97.7554 146.07C97.9021 146.203 98.1154 146.27 98.3954 146.27C98.7154 146.27 98.9654 146.183 99.1454 146.01C99.3321 145.83 99.4254 145.597 99.4254 145.31V144.74ZM96.8754 143.14V142.19C97.2688 141.963 97.7888 141.85 98.4354 141.85C99.7621 141.85 100.425 142.493 100.425 143.78V147H99.4554V146.4C99.1954 146.827 98.7388 147.04 98.0854 147.04C97.6054 147.04 97.2188 146.903 96.9254 146.63C96.6388 146.35 96.4954 145.997 96.4954 145.57C96.4954 145.083 96.6788 144.707 97.0454 144.44C97.4121 144.167 97.9254 144.03 98.5854 144.03H99.4254V143.74C99.4254 143.393 99.3421 143.133 99.1754 142.96C99.0088 142.78 98.7321 142.69 98.3454 142.69C97.8054 142.69 97.3154 142.84 96.8754 143.14ZM105.187 139.93V142.8C105.473 142.173 105.997 141.86 106.757 141.86C107.25 141.86 107.647 142.013 107.947 142.32C108.247 142.627 108.397 143.053 108.397 143.6V147H107.417V143.8C107.417 143.453 107.327 143.187 107.147 143C106.973 142.807 106.743 142.71 106.457 142.71C106.123 142.71 105.827 142.837 105.567 143.09C105.313 143.343 105.187 143.73 105.187 144.25V147H104.207V139.93H105.187ZM112.384 144.74H111.624C111.251 144.74 110.968 144.813 110.774 144.96C110.588 145.107 110.494 145.293 110.494 145.52C110.494 145.753 110.568 145.937 110.714 146.07C110.861 146.203 111.074 146.27 111.354 146.27C111.674 146.27 111.924 146.183 112.104 146.01C112.291 145.83 112.384 145.597 112.384 145.31V144.74ZM109.834 143.14V142.19C110.228 141.963 110.748 141.85 111.394 141.85C112.721 141.85 113.384 142.493 113.384 143.78V147H112.414V146.4C112.154 146.827 111.698 147.04 111.044 147.04C110.564 147.04 110.178 146.903 109.884 146.63C109.598 146.35 109.454 145.997 109.454 145.57C109.454 145.083 109.638 144.707 110.004 144.44C110.371 144.167 110.884 144.03 111.544 144.03H112.384V143.74C112.384 143.393 112.301 143.133 112.134 142.96C111.968 142.78 111.691 142.69 111.304 142.69C110.764 142.69 110.274 142.84 109.834 143.14ZM115.685 141.93V142.82C115.931 142.193 116.375 141.88 117.015 141.88C117.108 141.88 117.211 141.89 117.325 141.91V142.87C117.185 142.81 117.028 142.78 116.855 142.78C116.515 142.78 116.235 142.93 116.015 143.23C115.795 143.53 115.685 143.887 115.685 144.3V147H114.705V141.93H115.685ZM121.243 141.93H122.223V147H121.243V146.13C120.977 146.75 120.45 147.06 119.663 147.06C119.163 147.06 118.767 146.913 118.473 146.62C118.18 146.32 118.033 145.91 118.033 145.39V141.93H119.023V145.15C119.023 145.497 119.107 145.763 119.273 145.95C119.447 146.13 119.683 146.22 119.983 146.22C120.363 146.22 120.667 146.087 120.893 145.82C121.127 145.553 121.243 145.177 121.243 144.69V141.93ZM126.491 142.1V142.99C126.164 142.797 125.744 142.7 125.231 142.7C124.998 142.7 124.811 142.753 124.671 142.86C124.538 142.967 124.471 143.107 124.471 143.28C124.471 143.327 124.474 143.373 124.481 143.42C124.494 143.46 124.514 143.503 124.541 143.55C124.568 143.59 124.591 143.627 124.611 143.66C124.638 143.687 124.678 143.717 124.731 143.75C124.784 143.783 124.824 143.813 124.851 143.84C124.884 143.86 124.934 143.887 125.001 143.92C125.074 143.953 125.128 143.98 125.161 144C125.194 144.013 125.251 144.04 125.331 144.08C125.418 144.113 125.478 144.137 125.511 144.15C125.904 144.323 126.211 144.52 126.431 144.74C126.658 144.953 126.771 145.24 126.771 145.6C126.771 146.053 126.611 146.41 126.291 146.67C125.971 146.923 125.538 147.05 124.991 147.05C124.391 147.05 123.891 146.95 123.491 146.75V145.82C123.958 146.107 124.441 146.25 124.941 146.25C125.201 146.25 125.401 146.197 125.541 146.09C125.688 145.983 125.761 145.843 125.761 145.67C125.761 145.523 125.704 145.393 125.591 145.28C125.478 145.16 125.361 145.073 125.241 145.02C125.128 144.96 124.931 144.87 124.651 144.75C123.858 144.423 123.461 143.943 123.461 143.31C123.461 142.863 123.628 142.513 123.961 142.26C124.294 142.007 124.711 141.88 125.211 141.88C125.758 141.88 126.184 141.953 126.491 142.1ZM131.232 141.93V142.74C131.518 142.153 131.995 141.86 132.662 141.86C133.422 141.86 133.908 142.187 134.122 142.84C134.262 142.527 134.465 142.287 134.732 142.12C134.998 141.947 135.298 141.86 135.632 141.86C136.152 141.86 136.545 142.013 136.812 142.32C137.085 142.627 137.222 143.05 137.222 143.59V147H136.242V143.8C136.242 143.073 135.948 142.71 135.362 142.71C135.068 142.71 134.805 142.84 134.572 143.1C134.345 143.36 134.232 143.743 134.232 144.25V147H133.252V143.8C133.252 143.073 132.955 142.71 132.362 142.71C132.075 142.71 131.815 142.84 131.582 143.1C131.348 143.36 131.232 143.743 131.232 144.25V147H130.252V141.93H131.232ZM141.702 144.1V143.92C141.689 143.54 141.586 143.24 141.392 143.02C141.199 142.793 140.922 142.68 140.562 142.68C140.229 142.68 139.942 142.803 139.702 143.05C139.462 143.29 139.312 143.64 139.252 144.1H141.702ZM142.332 145.85V146.73C141.959 146.943 141.466 147.05 140.852 147.05C140.066 147.05 139.439 146.813 138.972 146.34C138.506 145.867 138.272 145.247 138.272 144.48C138.272 143.667 138.486 143.03 138.912 142.57C139.339 142.103 139.882 141.87 140.542 141.87C141.189 141.87 141.702 142.073 142.082 142.48C142.462 142.88 142.652 143.46 142.652 144.22C142.652 144.427 142.632 144.643 142.592 144.87H139.262C139.329 145.31 139.516 145.647 139.822 145.88C140.129 146.113 140.516 146.23 140.982 146.23C141.522 146.23 141.972 146.103 142.332 145.85ZM144.786 141.93V142.74C145.073 142.153 145.55 141.86 146.216 141.86C146.976 141.86 147.463 142.187 147.676 142.84C147.816 142.527 148.02 142.287 148.286 142.12C148.553 141.947 148.853 141.86 149.186 141.86C149.706 141.86 150.1 142.013 150.366 142.32C150.64 142.627 150.776 143.05 150.776 143.59V147H149.796V143.8C149.796 143.073 149.503 142.71 148.916 142.71C148.623 142.71 148.36 142.84 148.126 143.1C147.9 143.36 147.786 143.743 147.786 144.25V147H146.806V143.8C146.806 143.073 146.51 142.71 145.916 142.71C145.63 142.71 145.37 142.84 145.136 143.1C144.903 143.36 144.786 143.743 144.786 144.25V147H143.806V141.93H144.786ZM154.497 146.21C154.87 146.21 155.184 146.053 155.437 145.74C155.69 145.42 155.817 145.01 155.817 144.51C155.817 143.937 155.69 143.497 155.437 143.19C155.184 142.877 154.86 142.72 154.467 142.72C154.12 142.72 153.807 142.86 153.527 143.14C153.254 143.42 153.117 143.85 153.117 144.43C153.117 145.03 153.25 145.477 153.517 145.77C153.784 146.063 154.11 146.21 154.497 146.21ZM153.117 139.93V142.7C153.477 142.14 153.987 141.86 154.647 141.86C155.287 141.86 155.81 142.1 156.217 142.58C156.624 143.06 156.827 143.697 156.827 144.49C156.827 145.203 156.634 145.813 156.247 146.32C155.86 146.82 155.33 147.07 154.657 147.07C153.984 147.07 153.47 146.79 153.117 146.23V147H152.127V139.93H153.117ZM160.597 144.74H159.837C159.464 144.74 159.181 144.813 158.987 144.96C158.801 145.107 158.707 145.293 158.707 145.52C158.707 145.753 158.781 145.937 158.927 146.07C159.074 146.203 159.287 146.27 159.567 146.27C159.887 146.27 160.137 146.183 160.317 146.01C160.504 145.83 160.597 145.597 160.597 145.31V144.74ZM158.047 143.14V142.19C158.441 141.963 158.961 141.85 159.607 141.85C160.934 141.85 161.597 142.493 161.597 143.78V147H160.627V146.4C160.367 146.827 159.911 147.04 159.257 147.04C158.777 147.04 158.391 146.903 158.097 146.63C157.811 146.35 157.667 145.997 157.667 145.57C157.667 145.083 157.851 144.707 158.217 144.44C158.584 144.167 159.097 144.03 159.757 144.03H160.597V143.74C160.597 143.393 160.514 143.133 160.347 142.96C160.181 142.78 159.904 142.69 159.517 142.69C158.977 142.69 158.487 142.84 158.047 143.14ZM164.318 146.89L162.298 141.93H163.388L164.018 143.58L164.808 145.72C164.868 145.52 165.108 144.807 165.528 143.58L166.098 141.93H167.138L165.308 146.86C164.821 148.16 164.078 148.81 163.078 148.81C162.898 148.81 162.744 148.793 162.618 148.76V147.92C162.724 147.947 162.838 147.96 162.958 147.96C163.604 147.96 164.058 147.603 164.318 146.89ZM170.627 144.74H169.867C169.493 144.74 169.21 144.813 169.017 144.96C168.83 145.107 168.737 145.293 168.737 145.52C168.737 145.753 168.81 145.937 168.957 146.07C169.103 146.203 169.317 146.27 169.597 146.27C169.917 146.27 170.167 146.183 170.347 146.01C170.533 145.83 170.627 145.597 170.627 145.31V144.74ZM168.077 143.14V142.19C168.47 141.963 168.99 141.85 169.637 141.85C170.963 141.85 171.627 142.493 171.627 143.78V147H170.657V146.4C170.397 146.827 169.94 147.04 169.287 147.04C168.807 147.04 168.42 146.903 168.127 146.63C167.84 146.35 167.697 145.997 167.697 145.57C167.697 145.083 167.88 144.707 168.247 144.44C168.613 144.167 169.127 144.03 169.787 144.03H170.627V143.74C170.627 143.393 170.543 143.133 170.377 142.96C170.21 142.78 169.933 142.69 169.547 142.69C169.007 142.69 168.517 142.84 168.077 143.14ZM173.927 141.93V142.82C174.174 142.193 174.617 141.88 175.257 141.88C175.35 141.88 175.454 141.89 175.567 141.91V142.87C175.427 142.81 175.27 142.78 175.097 142.78C174.757 142.78 174.477 142.93 174.257 143.23C174.037 143.53 173.927 143.887 173.927 144.3V147H172.947V141.93H173.927ZM181.186 146.21C181.56 146.21 181.873 146.053 182.126 145.74C182.38 145.42 182.506 145.01 182.506 144.51C182.506 143.937 182.38 143.497 182.126 143.19C181.873 142.877 181.55 142.72 181.156 142.72C180.81 142.72 180.496 142.86 180.216 143.14C179.943 143.42 179.806 143.85 179.806 144.43C179.806 145.03 179.94 145.477 180.206 145.77C180.473 146.063 180.8 146.21 181.186 146.21ZM179.806 139.93V142.7C180.166 142.14 180.676 141.86 181.336 141.86C181.976 141.86 182.5 142.1 182.906 142.58C183.313 143.06 183.516 143.697 183.516 144.49C183.516 145.203 183.323 145.813 182.936 146.32C182.55 146.82 182.02 147.07 181.346 147.07C180.673 147.07 180.16 146.79 179.806 146.23V147H178.816V139.93H179.806ZM184.657 147V141.93H185.647V147H184.657ZM184.707 140.82C184.593 140.7 184.537 140.553 184.537 140.38C184.537 140.207 184.593 140.06 184.707 139.94C184.827 139.82 184.973 139.76 185.147 139.76C185.32 139.76 185.467 139.82 185.587 139.94C185.707 140.06 185.767 140.207 185.767 140.38C185.767 140.547 185.707 140.69 185.587 140.81C185.467 140.93 185.32 140.99 185.147 140.99C184.973 140.99 184.827 140.933 184.707 140.82ZM189.738 144.74H188.978C188.605 144.74 188.321 144.813 188.128 144.96C187.941 145.107 187.848 145.293 187.848 145.52C187.848 145.753 187.921 145.937 188.068 146.07C188.215 146.203 188.428 146.27 188.708 146.27C189.028 146.27 189.278 146.183 189.458 146.01C189.645 145.83 189.738 145.597 189.738 145.31V144.74ZM187.188 143.14V142.19C187.581 141.963 188.101 141.85 188.748 141.85C190.075 141.85 190.738 142.493 190.738 143.78V147H189.768V146.4C189.508 146.827 189.051 147.04 188.398 147.04C187.918 147.04 187.531 146.903 187.238 146.63C186.951 146.35 186.808 145.997 186.808 145.57C186.808 145.083 186.991 144.707 187.358 144.44C187.725 144.167 188.238 144.03 188.898 144.03H189.738V143.74C189.738 143.393 189.655 143.133 189.488 142.96C189.321 142.78 189.045 142.69 188.658 142.69C188.118 142.69 187.628 142.84 187.188 143.14ZM193.458 146.89L191.438 141.93H192.528L193.158 143.58L193.948 145.72C194.008 145.52 194.248 144.807 194.668 143.58L195.238 141.93H196.278L194.448 146.86C193.961 148.16 193.218 148.81 192.218 148.81C192.038 148.81 191.885 148.793 191.758 148.76V147.92C191.865 147.947 191.978 147.96 192.098 147.96C192.745 147.96 193.198 147.603 193.458 146.89ZM199.767 144.74H199.007C198.634 144.74 198.351 144.813 198.157 144.96C197.971 145.107 197.877 145.293 197.877 145.52C197.877 145.753 197.951 145.937 198.097 146.07C198.244 146.203 198.457 146.27 198.737 146.27C199.057 146.27 199.307 146.183 199.487 146.01C199.674 145.83 199.767 145.597 199.767 145.31V144.74ZM197.217 143.14V142.19C197.611 141.963 198.131 141.85 198.777 141.85C200.104 141.85 200.767 142.493 200.767 143.78V147H199.797V146.4C199.537 146.827 199.081 147.04 198.427 147.04C197.947 147.04 197.561 146.903 197.267 146.63C196.981 146.35 196.837 145.997 196.837 145.57C196.837 145.083 197.021 144.707 197.387 144.44C197.754 144.167 198.267 144.03 198.927 144.03H199.767V143.74C199.767 143.393 199.684 143.133 199.517 142.96C199.351 142.78 199.074 142.69 198.687 142.69C198.147 142.69 197.657 142.84 197.217 143.14ZM206.888 146.21C207.282 146.21 207.605 146.057 207.858 145.75C208.112 145.437 208.238 145 208.238 144.44C208.238 143.913 208.115 143.497 207.868 143.19C207.622 142.877 207.308 142.72 206.928 142.72C206.548 142.72 206.218 142.86 205.938 143.14C205.665 143.413 205.528 143.85 205.528 144.45C205.528 145.037 205.665 145.477 205.938 145.77C206.218 146.063 206.535 146.21 206.888 146.21ZM205.528 141.93V142.71C205.875 142.143 206.395 141.86 207.088 141.86C207.755 141.86 208.282 142.103 208.668 142.59C209.055 143.07 209.248 143.683 209.248 144.43C209.248 145.197 209.048 145.83 208.648 146.33C208.255 146.823 207.728 147.07 207.068 147.07C206.395 147.07 205.882 146.79 205.528 146.23V148.94H204.548V141.93H205.528ZM213.499 144.1V143.92C213.486 143.54 213.383 143.24 213.189 143.02C212.996 142.793 212.719 142.68 212.359 142.68C212.026 142.68 211.739 142.803 211.499 143.05C211.259 143.29 211.109 143.64 211.049 144.1H213.499ZM214.129 145.85V146.73C213.756 146.943 213.263 147.05 212.649 147.05C211.863 147.05 211.236 146.813 210.769 146.34C210.303 145.867 210.069 145.247 210.069 144.48C210.069 143.667 210.283 143.03 210.709 142.57C211.136 142.103 211.679 141.87 212.339 141.87C212.986 141.87 213.499 142.073 213.879 142.48C214.259 142.88 214.449 143.46 214.449 144.22C214.449 144.427 214.429 144.643 214.389 144.87H211.059C211.126 145.31 211.313 145.647 211.619 145.88C211.926 146.113 212.313 146.23 212.779 146.23C213.319 146.23 213.769 146.103 214.129 145.85ZM216.583 141.93V142.8C216.883 142.173 217.41 141.86 218.163 141.86C218.663 141.86 219.06 142.013 219.353 142.32C219.646 142.627 219.793 143.043 219.793 143.57V147H218.813V143.8C218.813 143.447 218.723 143.177 218.543 142.99C218.37 142.803 218.136 142.71 217.843 142.71C217.496 142.71 217.2 142.847 216.953 143.12C216.706 143.387 216.583 143.763 216.583 144.25V147H215.603V141.93H216.583ZM223.161 146.21C223.548 146.21 223.874 146.063 224.141 145.77C224.408 145.477 224.541 145.03 224.541 144.43C224.541 143.85 224.401 143.42 224.121 143.14C223.848 142.86 223.538 142.72 223.191 142.72C222.798 142.72 222.474 142.877 222.221 143.19C221.968 143.497 221.841 143.937 221.841 144.51C221.841 145.017 221.964 145.427 222.211 145.74C222.464 146.053 222.781 146.21 223.161 146.21ZM224.541 139.93H225.531V147H224.541V146.23C224.188 146.79 223.671 147.07 222.991 147.07C222.324 147.07 221.798 146.82 221.411 146.32C221.024 145.813 220.831 145.203 220.831 144.49C220.831 143.697 221.034 143.06 221.441 142.58C221.848 142.1 222.371 141.86 223.011 141.86C223.671 141.86 224.181 142.14 224.541 142.7V139.93ZM226.952 147V141.93H227.942V147H226.952ZM227.002 140.82C226.888 140.7 226.832 140.553 226.832 140.38C226.832 140.207 226.888 140.06 227.002 139.94C227.122 139.82 227.268 139.76 227.442 139.76C227.615 139.76 227.762 139.82 227.882 139.94C228.002 140.06 228.062 140.207 228.062 140.38C228.062 140.547 228.002 140.69 227.882 140.81C227.762 140.93 227.615 140.99 227.442 140.99C227.268 140.99 227.122 140.933 227.002 140.82ZM231.413 146.21C231.8 146.21 232.126 146.063 232.393 145.77C232.66 145.477 232.793 145.03 232.793 144.43C232.793 143.85 232.653 143.42 232.373 143.14C232.1 142.86 231.79 142.72 231.443 142.72C231.05 142.72 230.726 142.877 230.473 143.19C230.22 143.497 230.093 143.937 230.093 144.51C230.093 145.017 230.216 145.427 230.463 145.74C230.716 146.053 231.033 146.21 231.413 146.21ZM232.793 139.93H233.783V147H232.793V146.23C232.44 146.79 231.923 147.07 231.243 147.07C230.576 147.07 230.05 146.82 229.663 146.32C229.276 145.813 229.083 145.203 229.083 144.49C229.083 143.697 229.286 143.06 229.693 142.58C230.1 142.1 230.623 141.86 231.263 141.86C231.923 141.86 232.433 142.14 232.793 142.7V139.93ZM235.204 147V141.93H236.194V147H235.204ZM235.254 140.82C235.14 140.7 235.084 140.553 235.084 140.38C235.084 140.207 235.14 140.06 235.254 139.94C235.374 139.82 235.52 139.76 235.694 139.76C235.867 139.76 236.014 139.82 236.134 139.94C236.254 140.06 236.314 140.207 236.314 140.38C236.314 140.547 236.254 140.69 236.134 140.81C236.014 140.93 235.867 140.99 235.694 140.99C235.52 140.99 235.374 140.933 235.254 140.82ZM237.615 147V140H238.595V147H237.615ZM239.765 144.35L241.755 147H240.585L238.635 144.35L240.545 141.93H241.695L239.765 144.35ZM245.285 144.74H244.525C244.151 144.74 243.868 144.813 243.675 144.96C243.488 145.107 243.395 145.293 243.395 145.52C243.395 145.753 243.468 145.937 243.615 146.07C243.761 146.203 243.975 146.27 244.255 146.27C244.575 146.27 244.825 146.183 245.005 146.01C245.191 145.83 245.285 145.597 245.285 145.31V144.74ZM242.735 143.14V142.19C243.128 141.963 243.648 141.85 244.295 141.85C245.621 141.85 246.285 142.493 246.285 143.78V147H245.315V146.4C245.055 146.827 244.598 147.04 243.945 147.04C243.465 147.04 243.078 146.903 242.785 146.63C242.498 146.35 242.355 145.997 242.355 145.57C242.355 145.083 242.538 144.707 242.905 144.44C243.271 144.167 243.785 144.03 244.445 144.03H245.285V143.74C245.285 143.393 245.201 143.133 245.035 142.96C244.868 142.78 244.591 142.69 244.205 142.69C243.665 142.69 243.175 142.84 242.735 143.14ZM248.585 141.93V142.8C248.885 142.173 249.412 141.86 250.165 141.86C250.665 141.86 251.062 142.013 251.355 142.32C251.648 142.627 251.795 143.043 251.795 143.57V147H250.815V143.8C250.815 143.447 250.725 143.177 250.545 142.99C250.372 142.803 250.138 142.71 249.845 142.71C249.498 142.71 249.202 142.847 248.955 143.12C248.708 143.387 248.585 143.763 248.585 144.25V147H247.605V141.93H248.585ZM256.594 146.15H259.434V147H255.244V146.19C256.084 145.577 256.79 144.943 257.364 144.29C257.944 143.63 258.234 143.03 258.234 142.49C258.234 142.11 258.124 141.82 257.904 141.62C257.684 141.413 257.38 141.31 256.994 141.31C256.46 141.31 255.937 141.51 255.424 141.91V140.94C255.904 140.573 256.474 140.39 257.134 140.39C257.747 140.39 258.254 140.563 258.654 140.91C259.054 141.25 259.254 141.737 259.254 142.37C259.254 143.543 258.367 144.803 256.594 146.15ZM102.155 160.74H101.395C101.022 160.74 100.738 160.813 100.545 160.96C100.358 161.107 100.265 161.293 100.265 161.52C100.265 161.753 100.338 161.937 100.485 162.07C100.632 162.203 100.845 162.27 101.125 162.27C101.445 162.27 101.695 162.183 101.875 162.01C102.062 161.83 102.155 161.597 102.155 161.31V160.74ZM99.6049 159.14V158.19C99.9983 157.963 100.518 157.85 101.165 157.85C102.492 157.85 103.155 158.493 103.155 159.78V163H102.185V162.4C101.925 162.827 101.468 163.04 100.815 163.04C100.335 163.04 99.9483 162.903 99.6549 162.63C99.3683 162.35 99.2249 161.997 99.2249 161.57C99.2249 161.083 99.4083 160.707 99.7749 160.44C100.142 160.167 100.655 160.03 101.315 160.03H102.155V159.74C102.155 159.393 102.072 159.133 101.905 158.96C101.738 158.78 101.462 158.69 101.075 158.69C100.535 158.69 100.045 158.84 99.6049 159.14ZM105.455 157.93V158.8C105.755 158.173 106.282 157.86 107.035 157.86C107.535 157.86 107.932 158.013 108.225 158.32C108.518 158.627 108.665 159.043 108.665 159.57V163H107.685V159.8C107.685 159.447 107.595 159.177 107.415 158.99C107.242 158.803 107.008 158.71 106.715 158.71C106.368 158.71 106.072 158.847 105.825 159.12C105.578 159.387 105.455 159.763 105.455 160.25V163H104.475V157.93H105.455ZM112.653 160.74H111.893C111.52 160.74 111.236 160.813 111.043 160.96C110.856 161.107 110.763 161.293 110.763 161.52C110.763 161.753 110.836 161.937 110.983 162.07C111.13 162.203 111.343 162.27 111.623 162.27C111.943 162.27 112.193 162.183 112.373 162.01C112.56 161.83 112.653 161.597 112.653 161.31V160.74ZM110.103 159.14V158.19C110.496 157.963 111.016 157.85 111.663 157.85C112.99 157.85 113.653 158.493 113.653 159.78V163H112.683V162.4C112.423 162.827 111.966 163.04 111.313 163.04C110.833 163.04 110.446 162.903 110.153 162.63C109.866 162.35 109.723 161.997 109.723 161.57C109.723 161.083 109.906 160.707 110.273 160.44C110.64 160.167 111.153 160.03 111.813 160.03H112.653V159.74C112.653 159.393 112.57 159.133 112.403 158.96C112.236 158.78 111.96 158.69 111.573 158.69C111.033 158.69 110.543 158.84 110.103 159.14ZM114.973 163V156H115.953V163H114.973ZM117.123 160.35L119.113 163H117.943L115.993 160.35L117.903 157.93H119.053L117.123 160.35ZM123.964 160.49H126.124L126.014 160.15C125.761 159.363 125.554 158.713 125.394 158.2C125.234 157.68 125.137 157.357 125.104 157.23L125.054 157.04C124.981 157.353 124.654 158.39 124.074 160.15L123.964 160.49ZM126.934 163L126.404 161.35H123.684L123.144 163H122.054L124.384 156.26H125.734L128.034 163H126.934ZM130.016 157.93V158.8C130.316 158.173 130.842 157.86 131.596 157.86C132.096 157.86 132.492 158.013 132.786 158.32C133.079 158.627 133.226 159.043 133.226 159.57V163H132.246V159.8C132.246 159.447 132.156 159.177 131.976 158.99C131.802 158.803 131.569 158.71 131.276 158.71C130.929 158.71 130.632 158.847 130.386 159.12C130.139 159.387 130.016 159.763 130.016 160.25V163H129.036V157.93H130.016ZM136.594 162.21C136.98 162.21 137.307 162.063 137.574 161.77C137.84 161.477 137.974 161.03 137.974 160.43C137.974 159.85 137.834 159.42 137.554 159.14C137.28 158.86 136.97 158.72 136.624 158.72C136.23 158.72 135.907 158.877 135.654 159.19C135.4 159.497 135.274 159.937 135.274 160.51C135.274 161.017 135.397 161.427 135.644 161.74C135.897 162.053 136.214 162.21 136.594 162.21ZM137.974 155.93H138.964V163H137.974V162.23C137.62 162.79 137.104 163.07 136.424 163.07C135.757 163.07 135.23 162.82 134.844 162.32C134.457 161.813 134.264 161.203 134.264 160.49C134.264 159.697 134.467 159.06 134.874 158.58C135.28 158.1 135.804 157.86 136.444 157.86C137.104 157.86 137.614 158.14 137.974 158.7V155.93ZM143.014 160.74H142.254C141.881 160.74 141.598 160.813 141.404 160.96C141.218 161.107 141.124 161.293 141.124 161.52C141.124 161.753 141.198 161.937 141.344 162.07C141.491 162.203 141.704 162.27 141.984 162.27C142.304 162.27 142.554 162.183 142.734 162.01C142.921 161.83 143.014 161.597 143.014 161.31V160.74ZM140.464 159.14V158.19C140.858 157.963 141.378 157.85 142.024 157.85C143.351 157.85 144.014 158.493 144.014 159.78V163H143.044V162.4C142.784 162.827 142.328 163.04 141.674 163.04C141.194 163.04 140.808 162.903 140.514 162.63C140.228 162.35 140.084 161.997 140.084 161.57C140.084 161.083 140.268 160.707 140.634 160.44C141.001 160.167 141.514 160.03 142.174 160.03H143.014V159.74C143.014 159.393 142.931 159.133 142.764 158.96C142.598 158.78 142.321 158.69 141.934 158.69C141.394 158.69 140.904 158.84 140.464 159.14ZM149.845 162.21C150.232 162.21 150.559 162.063 150.825 161.77C151.092 161.477 151.225 161.03 151.225 160.43C151.225 159.85 151.085 159.42 150.805 159.14C150.532 158.86 150.222 158.72 149.875 158.72C149.482 158.72 149.159 158.877 148.905 159.19C148.652 159.497 148.525 159.937 148.525 160.51C148.525 161.017 148.649 161.427 148.895 161.74C149.149 162.053 149.465 162.21 149.845 162.21ZM151.225 155.93H152.215V163H151.225V162.23C150.872 162.79 150.355 163.07 149.675 163.07C149.009 163.07 148.482 162.82 148.095 162.32C147.709 161.813 147.515 161.203 147.515 160.49C147.515 159.697 147.719 159.06 148.125 158.58C148.532 158.1 149.055 157.86 149.695 157.86C150.355 157.86 150.865 158.14 151.225 158.7V155.93ZM156.746 160.1V159.92C156.733 159.54 156.63 159.24 156.436 159.02C156.243 158.793 155.966 158.68 155.606 158.68C155.273 158.68 154.986 158.803 154.746 159.05C154.506 159.29 154.356 159.64 154.296 160.1H156.746ZM157.376 161.85V162.73C157.003 162.943 156.51 163.05 155.896 163.05C155.11 163.05 154.483 162.813 154.016 162.34C153.55 161.867 153.316 161.247 153.316 160.48C153.316 159.667 153.53 159.03 153.956 158.57C154.383 158.103 154.926 157.87 155.586 157.87C156.233 157.87 156.746 158.073 157.126 158.48C157.506 158.88 157.696 159.46 157.696 160.22C157.696 160.427 157.676 160.643 157.636 160.87H154.306C154.373 161.31 154.56 161.647 154.866 161.88C155.173 162.113 155.56 162.23 156.026 162.23C156.566 162.23 157.016 162.103 157.376 161.85ZM159.83 157.93V158.8C160.13 158.173 160.657 157.86 161.41 157.86C161.91 157.86 162.307 158.013 162.6 158.32C162.893 158.627 163.04 159.043 163.04 159.57V163H162.06V159.8C162.06 159.447 161.97 159.177 161.79 158.99C161.617 158.803 161.383 158.71 161.09 158.71C160.743 158.71 160.447 158.847 160.2 159.12C159.953 159.387 159.83 159.763 159.83 160.25V163H158.85V157.93H159.83ZM166.358 162.02C166.705 162.02 167.005 161.887 167.258 161.62C167.518 161.347 167.648 160.967 167.648 160.48C167.648 159.88 167.525 159.437 167.278 159.15C167.038 158.863 166.745 158.72 166.398 158.72C166.005 158.72 165.695 158.877 165.468 159.19C165.241 159.497 165.128 159.903 165.128 160.41C165.128 160.937 165.248 161.337 165.488 161.61C165.735 161.883 166.025 162.02 166.358 162.02ZM167.648 157.93H168.628V162.57C168.628 163.35 168.405 163.937 167.958 164.33C167.518 164.73 166.951 164.93 166.258 164.93C165.605 164.93 165.055 164.82 164.608 164.6V163.61C165.035 163.89 165.551 164.03 166.158 164.03C167.151 164.03 167.648 163.54 167.648 162.56V162.04C167.321 162.587 166.831 162.86 166.178 162.86C165.605 162.86 165.115 162.65 164.708 162.23C164.301 161.803 164.098 161.203 164.098 160.43C164.098 159.683 164.288 159.07 164.668 158.59C165.048 158.103 165.551 157.86 166.178 157.86C166.851 157.86 167.341 158.147 167.648 158.72V157.93ZM172.614 160.74H171.854C171.481 160.74 171.197 160.813 171.004 160.96C170.817 161.107 170.724 161.293 170.724 161.52C170.724 161.753 170.797 161.937 170.944 162.07C171.091 162.203 171.304 162.27 171.584 162.27C171.904 162.27 172.154 162.183 172.334 162.01C172.521 161.83 172.614 161.597 172.614 161.31V160.74ZM170.064 159.14V158.19C170.457 157.963 170.977 157.85 171.624 157.85C172.951 157.85 173.614 158.493 173.614 159.78V163H172.644V162.4C172.384 162.827 171.927 163.04 171.274 163.04C170.794 163.04 170.407 162.903 170.114 162.63C169.827 162.35 169.684 161.997 169.684 161.57C169.684 161.083 169.867 160.707 170.234 160.44C170.601 160.167 171.114 160.03 171.774 160.03H172.614V159.74C172.614 159.393 172.531 159.133 172.364 158.96C172.197 158.78 171.921 158.69 171.534 158.69C170.994 158.69 170.504 158.84 170.064 159.14ZM175.914 157.93V158.8C176.214 158.173 176.741 157.86 177.494 157.86C177.994 157.86 178.391 158.013 178.684 158.32C178.977 158.627 179.124 159.043 179.124 159.57V163H178.144V159.8C178.144 159.447 178.054 159.177 177.874 158.99C177.701 158.803 177.467 158.71 177.174 158.71C176.827 158.71 176.531 158.847 176.284 159.12C176.037 159.387 175.914 159.763 175.914 160.25V163H174.934V157.93H175.914Z" fill="#2B2B2B"/>
<path d="M183.973 157.12V159.58H184.903C185.33 159.58 185.653 159.47 185.873 159.25C186.093 159.023 186.203 158.723 186.203 158.35C186.203 157.53 185.753 157.12 184.853 157.12H183.973ZM186.443 163L184.863 160.44H183.973V163H182.943V156.26H184.823C185.596 156.26 186.193 156.45 186.613 156.83C187.033 157.203 187.243 157.713 187.243 158.36C187.236 158.833 187.116 159.237 186.883 159.57C186.65 159.897 186.326 160.133 185.913 160.28L187.673 163H186.443ZM190.926 162.21C191.32 162.21 191.643 162.057 191.896 161.75C192.15 161.437 192.276 161 192.276 160.44C192.276 159.913 192.153 159.497 191.906 159.19C191.66 158.877 191.346 158.72 190.966 158.72C190.586 158.72 190.256 158.86 189.976 159.14C189.703 159.413 189.566 159.85 189.566 160.45C189.566 161.037 189.703 161.477 189.976 161.77C190.256 162.063 190.573 162.21 190.926 162.21ZM189.566 157.93V158.71C189.913 158.143 190.433 157.86 191.126 157.86C191.793 157.86 192.32 158.103 192.706 158.59C193.093 159.07 193.286 159.683 193.286 160.43C193.286 161.197 193.086 161.83 192.686 162.33C192.293 162.823 191.766 163.07 191.106 163.07C190.433 163.07 189.92 162.79 189.566 162.23V164.94H188.586V157.93H189.566ZM196.568 159.71C196.568 158.683 196.772 157.87 197.178 157.27C197.592 156.663 198.155 156.36 198.868 156.36C199.595 156.36 200.165 156.66 200.578 157.26C200.992 157.86 201.198 158.677 201.198 159.71C201.198 160.73 200.995 161.547 200.588 162.16C200.188 162.773 199.615 163.08 198.868 163.08C198.155 163.08 197.592 162.773 197.178 162.16C196.772 161.547 196.568 160.73 196.568 159.71ZM197.938 157.91C197.692 158.33 197.568 158.93 197.568 159.71C197.568 160.49 197.688 161.097 197.928 161.53C198.175 161.957 198.488 162.17 198.868 162.17C199.282 162.17 199.605 161.957 199.838 161.53C200.072 161.103 200.188 160.497 200.188 159.71C200.188 158.917 200.065 158.313 199.818 157.9C199.578 157.48 199.262 157.27 198.868 157.27C198.495 157.27 198.185 157.483 197.938 157.91ZM201.527 164.24L202.487 161.9H203.697L202.387 164.24H201.527ZM204.469 159.71C204.469 158.683 204.672 157.87 205.079 157.27C205.492 156.663 206.055 156.36 206.769 156.36C207.495 156.36 208.065 156.66 208.479 157.26C208.892 157.86 209.099 158.677 209.099 159.71C209.099 160.73 208.895 161.547 208.489 162.16C208.089 162.773 207.515 163.08 206.769 163.08C206.055 163.08 205.492 162.773 205.079 162.16C204.672 161.547 204.469 160.73 204.469 159.71ZM205.839 157.91C205.592 158.33 205.469 158.93 205.469 159.71C205.469 160.49 205.589 161.097 205.829 161.53C206.075 161.957 206.389 162.17 206.769 162.17C207.182 162.17 207.505 161.957 207.739 161.53C207.972 161.103 208.089 160.497 208.089 159.71C208.089 158.917 207.965 158.313 207.719 157.9C207.479 157.48 207.162 157.27 206.769 157.27C206.395 157.27 206.085 157.483 205.839 157.91ZM209.918 159.71C209.918 158.683 210.121 157.87 210.528 157.27C210.941 156.663 211.504 156.36 212.218 156.36C212.944 156.36 213.514 156.66 213.928 157.26C214.341 157.86 214.548 158.677 214.548 159.71C214.548 160.73 214.344 161.547 213.938 162.16C213.538 162.773 212.964 163.08 212.218 163.08C211.504 163.08 210.941 162.773 210.528 162.16C210.121 161.547 209.918 160.73 209.918 159.71ZM211.288 157.91C211.041 158.33 210.918 158.93 210.918 159.71C210.918 160.49 211.038 161.097 211.278 161.53C211.524 161.957 211.838 162.17 212.218 162.17C212.631 162.17 212.954 161.957 213.188 161.53C213.421 161.103 213.538 160.497 213.538 159.71C213.538 158.917 213.414 158.313 213.168 157.9C212.928 157.48 212.611 157.27 212.218 157.27C211.844 157.27 211.534 157.483 211.288 157.91ZM215.367 159.71C215.367 158.683 215.57 157.87 215.977 157.27C216.39 156.663 216.954 156.36 217.667 156.36C218.394 156.36 218.964 156.66 219.377 157.26C219.79 157.86 219.997 158.677 219.997 159.71C219.997 160.73 219.794 161.547 219.387 162.16C218.987 162.773 218.414 163.08 217.667 163.08C216.954 163.08 216.39 162.773 215.977 162.16C215.57 161.547 215.367 160.73 215.367 159.71ZM216.737 157.91C216.49 158.33 216.367 158.93 216.367 159.71C216.367 160.49 216.487 161.097 216.727 161.53C216.974 161.957 217.287 162.17 217.667 162.17C218.08 162.17 218.404 161.957 218.637 161.53C218.87 161.103 218.987 160.497 218.987 159.71C218.987 158.917 218.864 158.313 218.617 157.9C218.377 157.48 218.06 157.27 217.667 157.27C217.294 157.27 216.984 157.483 216.737 157.91ZM220.326 164.24L221.286 161.9H222.496L221.186 164.24H220.326ZM223.267 159.71C223.267 158.683 223.471 157.87 223.877 157.27C224.291 156.663 224.854 156.36 225.567 156.36C226.294 156.36 226.864 156.66 227.277 157.26C227.691 157.86 227.897 158.677 227.897 159.71C227.897 160.73 227.694 161.547 227.287 162.16C226.887 162.773 226.314 163.08 225.567 163.08C224.854 163.08 224.291 162.773 223.877 162.16C223.471 161.547 223.267 160.73 223.267 159.71ZM224.637 157.91C224.391 158.33 224.267 158.93 224.267 159.71C224.267 160.49 224.387 161.097 224.627 161.53C224.874 161.957 225.187 162.17 225.567 162.17C225.981 162.17 226.304 161.957 226.537 161.53C226.771 161.103 226.887 160.497 226.887 159.71C226.887 158.917 226.764 158.313 226.517 157.9C226.277 157.48 225.961 157.27 225.567 157.27C225.194 157.27 224.884 157.483 224.637 157.91ZM228.717 159.71C228.717 158.683 228.92 157.87 229.327 157.27C229.74 156.663 230.303 156.36 231.017 156.36C231.743 156.36 232.313 156.66 232.727 157.26C233.14 157.86 233.347 158.677 233.347 159.71C233.347 160.73 233.143 161.547 232.737 162.16C232.337 162.773 231.763 163.08 231.017 163.08C230.303 163.08 229.74 162.773 229.327 162.16C228.92 161.547 228.717 160.73 228.717 159.71ZM230.087 157.91C229.84 158.33 229.717 158.93 229.717 159.71C229.717 160.49 229.837 161.097 230.077 161.53C230.323 161.957 230.637 162.17 231.017 162.17C231.43 162.17 231.753 161.957 231.987 161.53C232.22 161.103 232.337 160.497 232.337 159.71C232.337 158.917 232.213 158.313 231.967 157.9C231.727 157.48 231.41 157.27 231.017 157.27C230.643 157.27 230.333 157.483 230.087 157.91ZM234.166 159.71C234.166 158.683 234.369 157.87 234.776 157.27C235.189 156.663 235.753 156.36 236.466 156.36C237.193 156.36 237.763 156.66 238.176 157.26C238.589 157.86 238.796 158.677 238.796 159.71C238.796 160.73 238.593 161.547 238.186 162.16C237.786 162.773 237.213 163.08 236.466 163.08C235.753 163.08 235.189 162.773 234.776 162.16C234.369 161.547 234.166 160.73 234.166 159.71ZM235.536 157.91C235.289 158.33 235.166 158.93 235.166 159.71C235.166 160.49 235.286 161.097 235.526 161.53C235.773 161.957 236.086 162.17 236.466 162.17C236.879 162.17 237.203 161.957 237.436 161.53C237.669 161.103 237.786 160.497 237.786 159.71C237.786 158.917 237.663 158.313 237.416 157.9C237.176 157.48 236.859 157.27 236.466 157.27C236.093 157.27 235.783 157.483 235.536 157.91Z" fill="#FF1934"/>
<path opacity="0.64" d="M60.904 202.968V199.608H61.552V202.952C61.552 203.645 61.376 204.171 61.024 204.528C60.6773 204.885 60.192 205.064 59.568 205.064C58.9547 205.064 58.4747 204.891 58.128 204.544C57.7813 204.192 57.608 203.683 57.608 203.016V199.608H58.256V203.008C58.256 203.504 58.3733 203.869 58.608 204.104C58.848 204.339 59.168 204.456 59.568 204.456C60.4587 204.456 60.904 203.96 60.904 202.968ZM64.9243 203.128H64.2203C63.8789 203.128 63.6229 203.195 63.4523 203.328C63.2816 203.461 63.1963 203.629 63.1963 203.832C63.1963 204.035 63.2629 204.2 63.3963 204.328C63.5296 204.451 63.7243 204.512 63.9803 204.512C64.2683 204.512 64.4976 204.432 64.6683 204.272C64.8389 204.107 64.9243 203.899 64.9243 203.648V203.128ZM62.8283 201.792V201.16C63.1323 200.973 63.5323 200.88 64.0283 200.88C65.0469 200.88 65.5563 201.397 65.5563 202.432V205H64.9323V204.52C64.7243 204.867 64.3456 205.04 63.7963 205.04C63.4176 205.04 63.1109 204.928 62.8763 204.704C62.6469 204.48 62.5323 204.197 62.5323 203.856C62.5323 203.467 62.6789 203.165 62.9723 202.952C63.2709 202.733 63.6763 202.624 64.1883 202.624H64.9243V202.416C64.9243 202.096 64.8523 201.856 64.7083 201.696C64.5643 201.531 64.3216 201.448 63.9803 201.448C63.5483 201.448 63.1643 201.563 62.8283 201.792ZM67.3018 200.944V201.648C67.5418 201.141 67.9684 200.888 68.5818 200.888C68.9764 200.888 69.2911 201.008 69.5258 201.248C69.7604 201.488 69.8778 201.808 69.8778 202.208V205H69.2458V202.376C69.2458 202.077 69.1684 201.851 69.0138 201.696C68.8644 201.536 68.6671 201.456 68.4218 201.456C68.1178 201.456 67.8538 201.573 67.6298 201.808C67.4111 202.043 67.3018 202.368 67.3018 202.784V205H66.6778V200.944H67.3018ZM72.5181 204.336C72.8114 204.336 73.0701 204.224 73.2941 204C73.5234 203.771 73.6381 203.432 73.6381 202.984C73.6381 202.467 73.5287 202.083 73.3101 201.832C73.0914 201.581 72.8381 201.456 72.5501 201.456C72.2034 201.456 71.9287 201.595 71.7261 201.872C71.5234 202.144 71.4221 202.501 71.4221 202.944C71.4221 203.397 71.5341 203.744 71.7581 203.984C71.9821 204.219 72.2354 204.336 72.5181 204.336ZM73.6381 200.944H74.2701V204.672C74.2701 205.291 74.0994 205.755 73.7581 206.064C73.4167 206.379 72.9767 206.536 72.4381 206.536C71.9474 206.536 71.5287 206.453 71.1821 206.288V205.656C71.5234 205.853 71.9234 205.952 72.3821 205.952C72.7714 205.952 73.0781 205.848 73.3021 205.64C73.5261 205.432 73.6381 205.107 73.6381 204.664V204.208C73.3714 204.667 72.9741 204.896 72.4461 204.896C71.9821 204.896 71.5847 204.725 71.2541 204.384C70.9287 204.043 70.7661 203.568 70.7661 202.96C70.7661 202.357 70.9181 201.861 71.2221 201.472C71.5261 201.083 71.9234 200.888 72.4141 200.888C72.9687 200.888 73.3767 201.131 73.6381 201.616V200.944ZM80.4618 199.608V200.176H79.0058V205H78.3578V200.176H76.9018V199.608H80.4618ZM83.7212 200.944H84.3532V205H83.7212V204.296C83.5079 204.797 83.0839 205.048 82.4492 205.048C82.0492 205.048 81.7319 204.931 81.4972 204.696C81.2679 204.456 81.1532 204.136 81.1532 203.736V200.944H81.7852V203.576C81.7852 203.869 81.8599 204.093 82.0092 204.248C82.1585 204.403 82.3612 204.48 82.6172 204.48C82.9532 204.48 83.2199 204.363 83.4172 204.128C83.6199 203.893 83.7212 203.576 83.7212 203.176V200.944ZM86.1455 200.944V201.648C86.3855 201.141 86.8122 200.888 87.4255 200.888C87.8202 200.888 88.1348 201.008 88.3695 201.248C88.6042 201.488 88.7215 201.808 88.7215 202.208V205H88.0895V202.376C88.0895 202.077 88.0122 201.851 87.8575 201.696C87.7082 201.536 87.5108 201.456 87.2655 201.456C86.9615 201.456 86.6975 201.573 86.4735 201.808C86.2548 202.043 86.1455 202.368 86.1455 202.784V205H85.5215V200.944H86.1455ZM92.0258 203.128H91.3218C90.9805 203.128 90.7245 203.195 90.5538 203.328C90.3831 203.461 90.2978 203.629 90.2978 203.832C90.2978 204.035 90.3645 204.2 90.4978 204.328C90.6311 204.451 90.8258 204.512 91.0818 204.512C91.3698 204.512 91.5991 204.432 91.7698 204.272C91.9405 204.107 92.0258 203.899 92.0258 203.648V203.128ZM89.9298 201.792V201.16C90.2338 200.973 90.6338 200.88 91.1298 200.88C92.1485 200.88 92.6578 201.397 92.6578 202.432V205H92.0338V204.52C91.8258 204.867 91.4471 205.04 90.8978 205.04C90.5191 205.04 90.2125 204.928 89.9778 204.704C89.7485 204.48 89.6338 204.197 89.6338 203.856C89.6338 203.467 89.7805 203.165 90.0738 202.952C90.3725 202.733 90.7778 202.624 91.2898 202.624H92.0258V202.416C92.0258 202.096 91.9538 201.856 91.8098 201.696C91.6658 201.531 91.4231 201.448 91.0818 201.448C90.6498 201.448 90.2658 201.563 89.9298 201.792ZM93.8113 205V200.944H94.4433V205H93.8113ZM93.8273 199.968C93.7526 199.888 93.7153 199.789 93.7153 199.672C93.7153 199.555 93.7526 199.456 93.8273 199.376C93.9073 199.296 94.006 199.256 94.1233 199.256C94.2406 199.256 94.3393 199.296 94.4193 199.376C94.4993 199.456 94.5393 199.555 94.5393 199.672C94.5393 199.789 94.4993 199.888 94.4193 199.968C94.3393 200.043 94.2406 200.08 94.1233 200.08C94.006 200.08 93.9073 200.043 93.8273 199.968Z" fill="#2B2B2B"/>
<path d="M245.248 200.168V202.32H246.064C246.432 202.32 246.712 202.221 246.904 202.024C247.102 201.821 247.2 201.563 247.2 201.248C247.2 200.528 246.798 200.168 245.992 200.168H245.248ZM248.184 205H247.408L246.088 202.872H246.024H245.248V205H244.6V199.608H245.952C246.576 199.608 247.048 199.755 247.368 200.048C247.694 200.341 247.856 200.747 247.856 201.264C247.846 201.637 247.747 201.955 247.56 202.216C247.374 202.477 247.11 202.661 246.768 202.768L248.184 205ZM250.735 204.488C251.077 204.488 251.357 204.355 251.575 204.088C251.794 203.816 251.903 203.432 251.903 202.936C251.903 202.493 251.797 202.136 251.583 201.864C251.37 201.592 251.101 201.456 250.775 201.456C250.45 201.456 250.167 201.576 249.927 201.816C249.693 202.051 249.575 202.437 249.575 202.976C249.575 203.493 249.695 203.875 249.935 204.12C250.175 204.365 250.442 204.488 250.735 204.488ZM249.575 200.944V201.56C249.858 201.107 250.277 200.88 250.831 200.88C251.37 200.88 251.791 201.077 252.095 201.472C252.405 201.861 252.559 202.349 252.559 202.936C252.559 203.56 252.397 204.072 252.071 204.472C251.751 204.867 251.333 205.064 250.815 205.064C250.282 205.064 249.869 204.837 249.575 204.384V206.576H248.951V200.944H249.575ZM255.003 201.2V200.52L256.243 199.768H256.835V205H256.211V200.456L255.003 201.2ZM257.789 202.368C257.789 201.547 257.955 200.899 258.285 200.424C258.621 199.944 259.061 199.704 259.605 199.704C260.171 199.704 260.619 199.944 260.949 200.424C261.285 200.899 261.453 201.547 261.453 202.368C261.453 203.184 261.293 203.837 260.973 204.328C260.653 204.819 260.197 205.064 259.605 205.064C259.056 205.064 258.616 204.819 258.285 204.328C257.955 203.837 257.789 203.184 257.789 202.368ZM258.781 200.848C258.552 201.205 258.437 201.712 258.437 202.368C258.437 203.024 258.549 203.539 258.773 203.912C258.997 204.28 259.275 204.464 259.605 204.464C259.973 204.464 260.264 204.283 260.477 203.92C260.696 203.557 260.805 203.04 260.805 202.368C260.805 201.701 260.691 201.192 260.461 200.84C260.237 200.483 259.952 200.304 259.605 200.304C259.285 200.304 259.011 200.485 258.781 200.848ZM262.141 202.368C262.141 201.547 262.306 200.899 262.637 200.424C262.973 199.944 263.413 199.704 263.957 199.704C264.522 199.704 264.97 199.944 265.301 200.424C265.637 200.899 265.805 201.547 265.805 202.368C265.805 203.184 265.645 203.837 265.325 204.328C265.005 204.819 264.549 205.064 263.957 205.064C263.408 205.064 262.968 204.819 262.637 204.328C262.306 203.837 262.141 203.184 262.141 202.368ZM263.133 200.848C262.904 201.205 262.789 201.712 262.789 202.368C262.789 203.024 262.901 203.539 263.125 203.912C263.349 204.28 263.626 204.464 263.957 204.464C264.325 204.464 264.616 204.283 264.829 203.92C265.048 203.557 265.157 203.04 265.157 202.368C265.157 201.701 265.042 201.192 264.813 200.84C264.589 200.483 264.304 200.304 263.957 200.304C263.637 200.304 263.362 200.485 263.133 200.848ZM266.084 205.984L266.828 204.192H267.668L266.636 205.984H266.084ZM268.289 202.368C268.289 201.547 268.455 200.899 268.785 200.424C269.121 199.944 269.561 199.704 270.105 199.704C270.671 199.704 271.119 199.944 271.449 200.424C271.785 200.899 271.953 201.547 271.953 202.368C271.953 203.184 271.793 203.837 271.473 204.328C271.153 204.819 270.697 205.064 270.105 205.064C269.556 205.064 269.116 204.819 268.785 204.328C268.455 203.837 268.289 203.184 268.289 202.368ZM269.281 200.848C269.052 201.205 268.937 201.712 268.937 202.368C268.937 203.024 269.049 203.539 269.273 203.912C269.497 204.28 269.775 204.464 270.105 204.464C270.473 204.464 270.764 204.283 270.977 203.92C271.196 203.557 271.305 203.04 271.305 202.368C271.305 201.701 271.191 201.192 270.961 200.84C270.737 200.483 270.452 200.304 270.105 200.304C269.785 200.304 269.511 200.485 269.281 200.848ZM272.641 202.368C272.641 201.547 272.806 200.899 273.137 200.424C273.473 199.944 273.913 199.704 274.457 199.704C275.022 199.704 275.47 199.944 275.801 200.424C276.137 200.899 276.305 201.547 276.305 202.368C276.305 203.184 276.145 203.837 275.825 204.328C275.505 204.819 275.049 205.064 274.457 205.064C273.908 205.064 273.468 204.819 273.137 204.328C272.806 203.837 272.641 203.184 272.641 202.368ZM273.633 200.848C273.404 201.205 273.289 201.712 273.289 202.368C273.289 203.024 273.401 203.539 273.625 203.912C273.849 204.28 274.126 204.464 274.457 204.464C274.825 204.464 275.116 204.283 275.329 203.92C275.548 203.557 275.657 203.04 275.657 202.368C275.657 201.701 275.542 201.192 275.313 200.84C275.089 200.483 274.804 200.304 274.457 200.304C274.137 200.304 273.862 200.485 273.633 200.848ZM276.992 202.368C276.992 201.547 277.158 200.899 277.488 200.424C277.824 199.944 278.264 199.704 278.808 199.704C279.374 199.704 279.822 199.944 280.152 200.424C280.488 200.899 280.656 201.547 280.656 202.368C280.656 203.184 280.496 203.837 280.176 204.328C279.856 204.819 279.4 205.064 278.808 205.064C278.259 205.064 277.819 204.819 277.488 204.328C277.158 203.837 276.992 203.184 276.992 202.368ZM277.984 200.848C277.755 201.205 277.64 201.712 277.64 202.368C277.64 203.024 277.752 203.539 277.976 203.912C278.2 204.28 278.478 204.464 278.808 204.464C279.176 204.464 279.467 204.283 279.68 203.92C279.899 203.557 280.008 203.04 280.008 202.368C280.008 201.701 279.894 201.192 279.664 200.84C279.44 200.483 279.155 200.304 278.808 200.304C278.488 200.304 278.214 200.485 277.984 200.848Z" fill="#2B2B2B"/>
<path opacity="0.64" d="M60.704 221.608V222.176H59.248V227H58.6V222.176H57.144V221.608H60.704ZM63.6274 225.128H62.9234C62.582 225.128 62.326 225.195 62.1554 225.328C61.9847 225.461 61.8994 225.629 61.8994 225.832C61.8994 226.035 61.966 226.2 62.0994 226.328C62.2327 226.451 62.4274 226.512 62.6834 226.512C62.9714 226.512 63.2007 226.432 63.3714 226.272C63.542 226.107 63.6274 225.899 63.6274 225.648V225.128ZM61.5314 223.792V223.16C61.8354 222.973 62.2354 222.88 62.7314 222.88C63.75 222.88 64.2594 223.397 64.2594 224.432V227H63.6354V226.52C63.4274 226.867 63.0487 227.04 62.4994 227.04C62.1207 227.04 61.814 226.928 61.5794 226.704C61.35 226.48 61.2354 226.197 61.2354 225.856C61.2354 225.467 61.382 225.165 61.6754 224.952C61.974 224.733 62.3794 224.624 62.8914 224.624H63.6274V224.416C63.6274 224.096 63.5554 223.856 63.4114 223.696C63.2674 223.531 63.0247 223.448 62.6834 223.448C62.2514 223.448 61.8674 223.563 61.5314 223.792ZM67.2289 226.488C67.5542 226.488 67.8235 226.352 68.0369 226.08C68.2502 225.808 68.3569 225.453 68.3569 225.016C68.3569 224.515 68.2449 224.131 68.0209 223.864C67.8022 223.592 67.5249 223.456 67.1889 223.456C66.9009 223.456 66.6369 223.576 66.3969 223.816C66.1569 224.056 66.0369 224.432 66.0369 224.944C66.0369 225.483 66.1515 225.875 66.3809 226.12C66.6155 226.365 66.8982 226.488 67.2289 226.488ZM66.0369 221.344V223.552C66.3302 223.104 66.7409 222.88 67.2689 222.88C67.7809 222.88 68.1995 223.077 68.5249 223.472C68.8502 223.861 69.0129 224.373 69.0129 225.008C69.0129 225.579 68.8582 226.064 68.5489 226.464C68.2449 226.864 67.8235 227.064 67.2849 227.064C66.7409 227.064 66.3249 226.843 66.0369 226.4V227H65.4049V221.344H66.0369ZM72.4634 222.944H73.0954V227H72.4634V226.296C72.25 226.797 71.826 227.048 71.1914 227.048C70.7914 227.048 70.474 226.931 70.2394 226.696C70.01 226.456 69.8954 226.136 69.8954 225.736V222.944H70.5274V225.576C70.5274 225.869 70.602 226.093 70.7514 226.248C70.9007 226.403 71.1034 226.48 71.3594 226.48C71.6954 226.48 71.962 226.363 72.1594 226.128C72.362 225.893 72.4634 225.576 72.4634 225.176V222.944ZM74.8877 222.944V223.648C75.1277 223.141 75.5544 222.888 76.1677 222.888C76.5624 222.888 76.877 223.008 77.1117 223.248C77.3464 223.488 77.4637 223.808 77.4637 224.208V227H76.8317V224.376C76.8317 224.077 76.7544 223.851 76.5997 223.696C76.4504 223.536 76.253 223.456 76.0077 223.456C75.7037 223.456 75.4397 223.573 75.2157 223.808C74.997 224.043 74.8877 224.368 74.8877 224.784V227H74.2637V222.944H74.8877ZM80.104 226.336C80.3973 226.336 80.656 226.224 80.88 226C81.1093 225.771 81.224 225.432 81.224 224.984C81.224 224.467 81.1147 224.083 80.896 223.832C80.6773 223.581 80.424 223.456 80.136 223.456C79.7893 223.456 79.5147 223.595 79.312 223.872C79.1093 224.144 79.008 224.501 79.008 224.944C79.008 225.397 79.12 225.744 79.344 225.984C79.568 226.219 79.8213 226.336 80.104 226.336ZM81.224 222.944H81.856V226.672C81.856 227.291 81.6853 227.755 81.344 228.064C81.0027 228.379 80.5627 228.536 80.024 228.536C79.5333 228.536 79.1147 228.453 78.768 228.288V227.656C79.1093 227.853 79.5093 227.952 79.968 227.952C80.3573 227.952 80.664 227.848 80.888 227.64C81.112 227.432 81.224 227.107 81.224 226.664V226.208C80.9573 226.667 80.56 226.896 80.032 226.896C79.568 226.896 79.1707 226.725 78.84 226.384C78.5147 226.043 78.352 225.568 78.352 224.96C78.352 224.357 78.504 223.861 78.808 223.472C79.112 223.083 79.5093 222.888 80 222.888C80.5547 222.888 80.9627 223.131 81.224 223.616V222.944ZM85.1586 225.128H84.4546C84.1133 225.128 83.8573 225.195 83.6866 225.328C83.516 225.461 83.4306 225.629 83.4306 225.832C83.4306 226.035 83.4973 226.2 83.6306 226.328C83.764 226.451 83.9586 226.512 84.2146 226.512C84.5026 226.512 84.732 226.432 84.9026 226.272C85.0733 226.107 85.1586 225.899 85.1586 225.648V225.128ZM83.0626 223.792V223.16C83.3666 222.973 83.7666 222.88 84.2626 222.88C85.2813 222.88 85.7906 223.397 85.7906 224.432V227H85.1666V226.52C84.9586 226.867 84.58 227.04 84.0306 227.04C83.652 227.04 83.3453 226.928 83.1106 226.704C82.8813 226.48 82.7666 226.197 82.7666 225.856C82.7666 225.467 82.9133 225.165 83.2066 224.952C83.5053 224.733 83.9106 224.624 84.4226 224.624H85.1586V224.416C85.1586 224.096 85.0866 223.856 84.9426 223.696C84.7986 223.531 84.556 223.448 84.2146 223.448C83.7826 223.448 83.3986 223.563 83.0626 223.792ZM87.5361 222.944V223.648C87.7761 223.141 88.2028 222.888 88.8161 222.888C89.2108 222.888 89.5255 223.008 89.7601 223.248C89.9948 223.488 90.1121 223.808 90.1121 224.208V227H89.4801V224.376C89.4801 224.077 89.4028 223.851 89.2481 223.696C89.0988 223.536 88.9015 223.456 88.6561 223.456C88.3521 223.456 88.0881 223.573 87.8641 223.808C87.6455 224.043 87.5361 224.368 87.5361 224.784V227H86.9121V222.944H87.5361Z" fill="#2B2B2B"/>
<path d="M245.248 222.168V224.32H246.064C246.432 224.32 246.712 224.221 246.904 224.024C247.102 223.821 247.2 223.563 247.2 223.248C247.2 222.528 246.798 222.168 245.992 222.168H245.248ZM248.184 227H247.408L246.088 224.872H246.024H245.248V227H244.6V221.608H245.952C246.576 221.608 247.048 221.755 247.368 222.048C247.694 222.341 247.856 222.747 247.856 223.264C247.846 223.637 247.747 223.955 247.56 224.216C247.374 224.477 247.11 224.661 246.768 224.768L248.184 227ZM250.735 226.488C251.077 226.488 251.357 226.355 251.575 226.088C251.794 225.816 251.903 225.432 251.903 224.936C251.903 224.493 251.797 224.136 251.583 223.864C251.37 223.592 251.101 223.456 250.775 223.456C250.45 223.456 250.167 223.576 249.927 223.816C249.693 224.051 249.575 224.437 249.575 224.976C249.575 225.493 249.695 225.875 249.935 226.12C250.175 226.365 250.442 226.488 250.735 226.488ZM249.575 222.944V223.56C249.858 223.107 250.277 222.88 250.831 222.88C251.37 222.88 251.791 223.077 252.095 223.472C252.405 223.861 252.559 224.349 252.559 224.936C252.559 225.56 252.397 226.072 252.071 226.472C251.751 226.867 251.333 227.064 250.815 227.064C250.282 227.064 249.869 226.837 249.575 226.384V228.576H248.951V222.944H249.575ZM255.003 223.2V222.52L256.243 221.768H256.835V227H256.211V222.456L255.003 223.2ZM257.789 224.368C257.789 223.547 257.955 222.899 258.285 222.424C258.621 221.944 259.061 221.704 259.605 221.704C260.171 221.704 260.619 221.944 260.949 222.424C261.285 222.899 261.453 223.547 261.453 224.368C261.453 225.184 261.293 225.837 260.973 226.328C260.653 226.819 260.197 227.064 259.605 227.064C259.056 227.064 258.616 226.819 258.285 226.328C257.955 225.837 257.789 225.184 257.789 224.368ZM258.781 222.848C258.552 223.205 258.437 223.712 258.437 224.368C258.437 225.024 258.549 225.539 258.773 225.912C258.997 226.28 259.275 226.464 259.605 226.464C259.973 226.464 260.264 226.283 260.477 225.92C260.696 225.557 260.805 225.04 260.805 224.368C260.805 223.701 260.691 223.192 260.461 222.84C260.237 222.483 259.952 222.304 259.605 222.304C259.285 222.304 259.011 222.485 258.781 222.848ZM262.141 224.368C262.141 223.547 262.306 222.899 262.637 222.424C262.973 221.944 263.413 221.704 263.957 221.704C264.522 221.704 264.97 221.944 265.301 222.424C265.637 222.899 265.805 223.547 265.805 224.368C265.805 225.184 265.645 225.837 265.325 226.328C265.005 226.819 264.549 227.064 263.957 227.064C263.408 227.064 262.968 226.819 262.637 226.328C262.306 225.837 262.141 225.184 262.141 224.368ZM263.133 222.848C262.904 223.205 262.789 223.712 262.789 224.368C262.789 225.024 262.901 225.539 263.125 225.912C263.349 226.28 263.626 226.464 263.957 226.464C264.325 226.464 264.616 226.283 264.829 225.92C265.048 225.557 265.157 225.04 265.157 224.368C265.157 223.701 265.042 223.192 264.813 222.84C264.589 222.483 264.304 222.304 263.957 222.304C263.637 222.304 263.362 222.485 263.133 222.848ZM266.084 227.984L266.828 226.192H267.668L266.636 227.984H266.084ZM268.289 224.368C268.289 223.547 268.455 222.899 268.785 222.424C269.121 221.944 269.561 221.704 270.105 221.704C270.671 221.704 271.119 221.944 271.449 222.424C271.785 222.899 271.953 223.547 271.953 224.368C271.953 225.184 271.793 225.837 271.473 226.328C271.153 226.819 270.697 227.064 270.105 227.064C269.556 227.064 269.116 226.819 268.785 226.328C268.455 225.837 268.289 225.184 268.289 224.368ZM269.281 222.848C269.052 223.205 268.937 223.712 268.937 224.368C268.937 225.024 269.049 225.539 269.273 225.912C269.497 226.28 269.775 226.464 270.105 226.464C270.473 226.464 270.764 226.283 270.977 225.92C271.196 225.557 271.305 225.04 271.305 224.368C271.305 223.701 271.191 223.192 270.961 222.84C270.737 222.483 270.452 222.304 270.105 222.304C269.785 222.304 269.511 222.485 269.281 222.848ZM272.641 224.368C272.641 223.547 272.806 222.899 273.137 222.424C273.473 221.944 273.913 221.704 274.457 221.704C275.022 221.704 275.47 221.944 275.801 222.424C276.137 222.899 276.305 223.547 276.305 224.368C276.305 225.184 276.145 225.837 275.825 226.328C275.505 226.819 275.049 227.064 274.457 227.064C273.908 227.064 273.468 226.819 273.137 226.328C272.806 225.837 272.641 225.184 272.641 224.368ZM273.633 222.848C273.404 223.205 273.289 223.712 273.289 224.368C273.289 225.024 273.401 225.539 273.625 225.912C273.849 226.28 274.126 226.464 274.457 226.464C274.825 226.464 275.116 226.283 275.329 225.92C275.548 225.557 275.657 225.04 275.657 224.368C275.657 223.701 275.542 223.192 275.313 222.84C275.089 222.483 274.804 222.304 274.457 222.304C274.137 222.304 273.862 222.485 273.633 222.848ZM276.992 224.368C276.992 223.547 277.158 222.899 277.488 222.424C277.824 221.944 278.264 221.704 278.808 221.704C279.374 221.704 279.822 221.944 280.152 222.424C280.488 222.899 280.656 223.547 280.656 224.368C280.656 225.184 280.496 225.837 280.176 226.328C279.856 226.819 279.4 227.064 278.808 227.064C278.259 227.064 277.819 226.819 277.488 226.328C277.158 225.837 276.992 225.184 276.992 224.368ZM277.984 222.848C277.755 223.205 277.64 223.712 277.64 224.368C277.64 225.024 277.752 225.539 277.976 225.912C278.2 226.28 278.478 226.464 278.808 226.464C279.176 226.464 279.467 226.283 279.68 225.92C279.899 225.557 280.008 225.04 280.008 224.368C280.008 223.701 279.894 223.192 279.664 222.84C279.44 222.483 279.155 222.304 278.808 222.304C278.488 222.304 278.214 222.485 277.984 222.848Z" fill="#2B2B2B"/>
<mask id="path-27-inside-1_1124_4113" fill="white">
<path d="M57 236H281V258H57V236Z"/>
</mask>
<path d="M281 257H57V259H281V257Z" fill="#CCCCCC" mask="url(#path-27-inside-1_1124_4113)"/>
<path opacity="0.64" d="M57.616 249V243.608H58.264V249H57.616ZM59.192 246.336L61.36 249H60.52L58.392 246.336L60.448 243.608H61.248L59.192 246.336ZM64.7539 246.712V246.552C64.7539 246.216 64.6633 245.949 64.4819 245.752C64.3006 245.549 64.0499 245.448 63.7299 245.448C63.4259 245.448 63.1673 245.557 62.9539 245.776C62.7406 245.995 62.6153 246.307 62.5779 246.712H64.7539ZM65.1299 248.2V248.792C64.8153 248.957 64.4313 249.04 63.9779 249.04C63.3646 249.04 62.8686 248.853 62.4899 248.48C62.1166 248.101 61.9299 247.603 61.9299 246.984C61.9299 246.339 62.0979 245.829 62.4339 245.456C62.7699 245.083 63.2019 244.896 63.7299 244.896C64.2366 244.896 64.6393 245.059 64.9379 245.384C65.2366 245.709 65.3859 246.171 65.3859 246.768C65.3859 246.939 65.3726 247.096 65.3459 247.24H62.5779C62.6259 247.64 62.7779 247.947 63.0339 248.16C63.2899 248.373 63.6259 248.48 64.0419 248.48C64.4953 248.48 64.8579 248.387 65.1299 248.2ZM66.3496 249V243.376H66.9736V249H66.3496ZM67.7976 246.872L69.4456 249H68.6856L67.0536 246.872L68.6456 244.944H69.3976L67.7976 246.872ZM72.7134 244.944H73.3454V249H72.7134V248.296C72.5 248.797 72.076 249.048 71.4414 249.048C71.0414 249.048 70.724 248.931 70.4894 248.696C70.26 248.456 70.1454 248.136 70.1454 247.736V244.944H70.7774V247.576C70.7774 247.869 70.852 248.093 71.0014 248.248C71.1507 248.403 71.3534 248.48 71.6094 248.48C71.9454 248.48 72.212 248.363 72.4094 248.128C72.612 247.893 72.7134 247.576 72.7134 247.176V244.944ZM75.1377 244.944V245.656C75.351 245.155 75.719 244.904 76.2417 244.904C76.3377 244.904 76.4124 244.909 76.4657 244.92V245.544C76.3537 245.507 76.239 245.488 76.1217 245.488C75.839 245.488 75.6044 245.619 75.4177 245.88C75.231 246.141 75.1377 246.443 75.1377 246.784V249H74.5057L74.5137 244.944H75.1377ZM79.3071 247.128H78.6031C78.2617 247.128 78.0057 247.195 77.8351 247.328C77.6644 247.461 77.5791 247.629 77.5791 247.832C77.5791 248.035 77.6457 248.2 77.7791 248.328C77.9124 248.451 78.1071 248.512 78.3631 248.512C78.6511 248.512 78.8804 248.432 79.0511 248.272C79.2217 248.107 79.3071 247.899 79.3071 247.648V247.128ZM77.2111 245.792V245.16C77.5151 244.973 77.9151 244.88 78.4111 244.88C79.4297 244.88 79.9391 245.397 79.9391 246.432V249H79.3151V248.52C79.1071 248.867 78.7284 249.04 78.1791 249.04C77.8004 249.04 77.4937 248.928 77.2591 248.704C77.0297 248.48 76.9151 248.197 76.9151 247.856C76.9151 247.467 77.0617 247.165 77.3551 246.952C77.6537 246.733 78.0591 246.624 78.5711 246.624H79.3071V246.416C79.3071 246.096 79.2351 245.856 79.0911 245.696C78.9471 245.531 78.7044 245.448 78.3631 245.448C77.9311 245.448 77.5471 245.563 77.2111 245.792ZM81.6846 244.944V245.648C81.9246 245.141 82.3512 244.888 82.9646 244.888C83.3592 244.888 83.6739 245.008 83.9086 245.248C84.1432 245.488 84.2606 245.808 84.2606 246.208V249H83.6286V246.376C83.6286 246.077 83.5512 245.851 83.3966 245.696C83.2472 245.536 83.0499 245.456 82.8046 245.456C82.5006 245.456 82.2366 245.573 82.0126 245.808C81.7939 246.043 81.6846 246.368 81.6846 246.784V249H81.0606V244.944H81.6846ZM86.9009 248.336C87.1942 248.336 87.4529 248.224 87.6769 248C87.9062 247.771 88.0209 247.432 88.0209 246.984C88.0209 246.467 87.9115 246.083 87.6929 245.832C87.4742 245.581 87.2209 245.456 86.9329 245.456C86.5862 245.456 86.3115 245.595 86.1089 245.872C85.9062 246.144 85.8049 246.501 85.8049 246.944C85.8049 247.397 85.9169 247.744 86.1409 247.984C86.3649 248.219 86.6182 248.336 86.9009 248.336ZM88.0209 244.944H88.6529V248.672C88.6529 249.291 88.4822 249.755 88.1409 250.064C87.7995 250.379 87.3595 250.536 86.8209 250.536C86.3302 250.536 85.9115 250.453 85.5649 250.288V249.656C85.9062 249.853 86.3062 249.952 86.7649 249.952C87.1542 249.952 87.4609 249.848 87.6849 249.64C87.9089 249.432 88.0209 249.107 88.0209 248.664V248.208C87.7542 248.667 87.3569 248.896 86.8289 248.896C86.3649 248.896 85.9675 248.725 85.6369 248.384C85.3115 248.043 85.1489 247.568 85.1489 246.96C85.1489 246.357 85.3009 245.861 85.6049 245.472C85.9089 245.083 86.3062 244.888 86.7969 244.888C87.3515 244.888 87.7595 245.131 88.0209 245.616V244.944ZM91.9555 247.128H91.2515C90.9102 247.128 90.6542 247.195 90.4835 247.328C90.3128 247.461 90.2275 247.629 90.2275 247.832C90.2275 248.035 90.2942 248.2 90.4275 248.328C90.5608 248.451 90.7555 248.512 91.0115 248.512C91.2995 248.512 91.5288 248.432 91.6995 248.272C91.8702 248.107 91.9555 247.899 91.9555 247.648V247.128ZM89.8595 245.792V245.16C90.1635 244.973 90.5635 244.88 91.0595 244.88C92.0782 244.88 92.5875 245.397 92.5875 246.432V249H91.9635V248.52C91.7555 248.867 91.3768 249.04 90.8275 249.04C90.4488 249.04 90.1422 248.928 89.9075 248.704C89.6782 248.48 89.5635 248.197 89.5635 247.856C89.5635 247.467 89.7102 247.165 90.0035 246.952C90.3022 246.733 90.7075 246.624 91.2195 246.624H91.9555V246.416C91.9555 246.096 91.8835 245.856 91.7395 245.696C91.5955 245.531 91.3528 245.448 91.0115 245.448C90.5795 245.448 90.1955 245.563 89.8595 245.792ZM94.333 244.944V245.648C94.573 245.141 94.9997 244.888 95.613 244.888C96.0077 244.888 96.3223 245.008 96.557 245.248C96.7917 245.488 96.909 245.808 96.909 246.208V249H96.277V246.376C96.277 246.077 96.1997 245.851 96.045 245.696C95.8957 245.536 95.6983 245.456 95.453 245.456C95.149 245.456 94.885 245.573 94.661 245.808C94.4423 246.043 94.333 246.368 94.333 246.784V249H93.709V244.944H94.333ZM101.102 248.896L99.4624 244.944H100.174L100.702 246.28L101.414 248.12C101.457 247.981 101.67 247.368 102.054 246.28L102.526 244.944H103.206L101.742 248.896C101.534 249.445 101.286 249.832 100.998 250.056C100.716 250.28 100.39 250.392 100.022 250.392C99.8838 250.392 99.7718 250.379 99.6864 250.352V249.784C99.7664 249.805 99.8571 249.816 99.9584 249.816C100.497 249.816 100.878 249.509 101.102 248.896ZM106.112 247.128H105.408C105.066 247.128 104.81 247.195 104.64 247.328C104.469 247.461 104.384 247.629 104.384 247.832C104.384 248.035 104.45 248.2 104.584 248.328C104.717 248.451 104.912 248.512 105.168 248.512C105.456 248.512 105.685 248.432 105.856 248.272C106.026 248.107 106.112 247.899 106.112 247.648V247.128ZM104.016 245.792V245.16C104.32 244.973 104.72 244.88 105.216 244.88C106.234 244.88 106.744 245.397 106.744 246.432V249H106.12V248.52C105.912 248.867 105.533 249.04 104.984 249.04C104.605 249.04 104.298 248.928 104.064 248.704C103.834 248.48 103.72 248.197 103.72 247.856C103.72 247.467 103.866 247.165 104.16 246.952C104.458 246.733 104.864 246.624 105.376 246.624H106.112V246.416C106.112 246.096 106.04 245.856 105.896 245.696C105.752 245.531 105.509 245.448 105.168 245.448C104.736 245.448 104.352 245.563 104.016 245.792ZM108.489 244.944V245.648C108.729 245.141 109.156 244.888 109.769 244.888C110.164 244.888 110.479 245.008 110.713 245.248C110.948 245.488 111.065 245.808 111.065 246.208V249H110.433V246.376C110.433 246.077 110.356 245.851 110.201 245.696C110.052 245.536 109.855 245.456 109.609 245.456C109.305 245.456 109.041 245.573 108.817 245.808C108.599 246.043 108.489 246.368 108.489 246.784V249H107.865V244.944H108.489ZM113.706 248.336C113.999 248.336 114.258 248.224 114.482 248C114.711 247.771 114.826 247.432 114.826 246.984C114.826 246.467 114.716 246.083 114.498 245.832C114.279 245.581 114.026 245.456 113.738 245.456C113.391 245.456 113.116 245.595 112.914 245.872C112.711 246.144 112.61 246.501 112.61 246.944C112.61 247.397 112.722 247.744 112.946 247.984C113.17 248.219 113.423 248.336 113.706 248.336ZM114.826 244.944H115.458V248.672C115.458 249.291 115.287 249.755 114.946 250.064C114.604 250.379 114.164 250.536 113.626 250.536C113.135 250.536 112.716 250.453 112.37 250.288V249.656C112.711 249.853 113.111 249.952 113.57 249.952C113.959 249.952 114.266 249.848 114.49 249.64C114.714 249.432 114.826 249.107 114.826 248.664V248.208C114.559 248.667 114.162 248.896 113.634 248.896C113.17 248.896 112.772 248.725 112.442 248.384C112.116 248.043 111.954 247.568 111.954 246.96C111.954 246.357 112.106 245.861 112.41 245.472C112.714 245.083 113.111 244.888 113.602 244.888C114.156 244.888 114.564 245.131 114.826 245.616V244.944ZM119.153 244.944V245.6C119.377 245.125 119.759 244.888 120.297 244.888C120.921 244.888 121.316 245.152 121.481 245.68C121.599 245.424 121.761 245.229 121.969 245.096C122.183 244.957 122.42 244.888 122.681 244.888C123.103 244.888 123.42 245.008 123.633 245.248C123.847 245.488 123.953 245.811 123.953 246.216V249H123.321V246.376C123.321 245.763 123.063 245.456 122.545 245.456C122.289 245.456 122.06 245.573 121.857 245.808C121.655 246.037 121.553 246.363 121.553 246.784V249H120.921V246.376C120.921 245.763 120.663 245.456 120.145 245.456C119.889 245.456 119.66 245.573 119.457 245.808C119.255 246.037 119.153 246.363 119.153 246.784V249H118.529V244.944H119.153ZM127.26 247.128H126.556C126.215 247.128 125.959 247.195 125.788 247.328C125.618 247.461 125.532 247.629 125.532 247.832C125.532 248.035 125.599 248.2 125.732 248.328C125.866 248.451 126.06 248.512 126.316 248.512C126.604 248.512 126.834 248.432 127.004 248.272C127.175 248.107 127.26 247.899 127.26 247.648V247.128ZM125.164 245.792V245.16C125.468 244.973 125.868 244.88 126.364 244.88C127.383 244.88 127.892 245.397 127.892 246.432V249H127.268V248.52C127.06 248.867 126.682 249.04 126.132 249.04C125.754 249.04 125.447 248.928 125.212 248.704C124.983 248.48 124.868 248.197 124.868 247.856C124.868 247.467 125.015 247.165 125.308 246.952C125.607 246.733 126.012 246.624 126.524 246.624H127.26V246.416C127.26 246.096 127.188 245.856 127.044 245.696C126.9 245.531 126.658 245.448 126.316 245.448C125.884 245.448 125.5 245.563 125.164 245.792ZM131.222 245.08V245.68C130.976 245.531 130.64 245.456 130.214 245.456C130 245.456 129.83 245.507 129.702 245.608C129.579 245.704 129.518 245.829 129.518 245.984C129.518 246.08 129.536 246.165 129.574 246.24C129.611 246.309 129.683 246.379 129.79 246.448C129.902 246.517 129.982 246.565 130.03 246.592C130.083 246.613 130.195 246.661 130.366 246.736C130.707 246.875 130.974 247.032 131.166 247.208C131.358 247.384 131.454 247.621 131.454 247.92C131.454 248.267 131.331 248.541 131.086 248.744C130.846 248.947 130.515 249.048 130.094 249.048C129.603 249.048 129.206 248.965 128.902 248.8V248.184C129.259 248.397 129.643 248.504 130.054 248.504C130.299 248.504 130.486 248.456 130.614 248.36C130.742 248.264 130.806 248.133 130.806 247.968C130.806 247.776 130.734 247.627 130.59 247.52C130.451 247.413 130.216 247.293 129.886 247.16C129.582 247.043 129.336 246.896 129.15 246.72C128.968 246.544 128.878 246.307 128.878 246.008C128.878 245.672 129.003 245.405 129.254 245.208C129.51 245.005 129.827 244.904 130.206 244.904C130.627 244.904 130.966 244.963 131.222 245.08ZM132.343 249V244.944H132.975V249H132.343ZM132.359 243.968C132.284 243.888 132.247 243.789 132.247 243.672C132.247 243.555 132.284 243.456 132.359 243.376C132.439 243.296 132.537 243.256 132.655 243.256C132.772 243.256 132.871 243.296 132.951 243.376C133.031 243.456 133.071 243.555 133.071 243.672C133.071 243.789 133.031 243.888 132.951 243.968C132.871 244.043 132.772 244.08 132.655 244.08C132.537 244.08 132.439 244.043 132.359 243.968ZM134.802 243.344V245.648C135.042 245.141 135.468 244.888 136.082 244.888C136.471 244.888 136.783 245.008 137.018 245.248C137.258 245.488 137.378 245.813 137.378 246.224V249H136.746V246.376C136.746 246.083 136.668 245.856 136.514 245.696C136.364 245.536 136.167 245.456 135.922 245.456C135.623 245.456 135.362 245.571 135.138 245.8C134.914 246.029 134.802 246.357 134.802 246.784V249H134.178V243.344H134.802ZM141.075 243.344V245.648C141.315 245.141 141.742 244.888 142.355 244.888C142.745 244.888 143.057 245.008 143.291 245.248C143.531 245.488 143.651 245.813 143.651 246.224V249H143.019V246.376C143.019 246.083 142.942 245.856 142.787 245.696C142.638 245.536 142.441 245.456 142.195 245.456C141.897 245.456 141.635 245.571 141.411 245.8C141.187 246.029 141.075 246.357 141.075 246.784V249H140.451V243.344H141.075ZM146.956 247.128H146.252C145.91 247.128 145.654 247.195 145.484 247.328C145.313 247.461 145.228 247.629 145.228 247.832C145.228 248.035 145.294 248.2 145.428 248.328C145.561 248.451 145.756 248.512 146.012 248.512C146.3 248.512 146.529 248.432 146.7 248.272C146.87 248.107 146.956 247.899 146.956 247.648V247.128ZM144.86 245.792V245.16C145.164 244.973 145.564 244.88 146.06 244.88C147.078 244.88 147.588 245.397 147.588 246.432V249H146.964V248.52C146.756 248.867 146.377 249.04 145.828 249.04C145.449 249.04 145.142 248.928 144.908 248.704C144.678 248.48 144.564 248.197 144.564 247.856C144.564 247.467 144.71 247.165 145.004 246.952C145.302 246.733 145.708 246.624 146.22 246.624H146.956V246.416C146.956 246.096 146.884 245.856 146.74 245.696C146.596 245.531 146.353 245.448 146.012 245.448C145.58 245.448 145.196 245.563 144.86 245.792ZM149.333 244.944V245.656C149.546 245.155 149.914 244.904 150.437 244.904C150.533 244.904 150.608 244.909 150.661 244.92V245.544C150.549 245.507 150.434 245.488 150.317 245.488C150.034 245.488 149.8 245.619 149.613 245.88C149.426 246.141 149.333 246.443 149.333 246.784V249H148.701L148.709 244.944H149.333ZM153.838 244.944H154.47V249H153.838V248.296C153.625 248.797 153.201 249.048 152.566 249.048C152.166 249.048 151.849 248.931 151.614 248.696C151.385 248.456 151.27 248.136 151.27 247.736V244.944H151.902V247.576C151.902 247.869 151.977 248.093 152.126 248.248C152.276 248.403 152.478 248.48 152.734 248.48C153.07 248.48 153.337 248.363 153.534 248.128C153.737 247.893 153.838 247.576 153.838 247.176V244.944ZM157.847 245.08V245.68C157.601 245.531 157.265 245.456 156.839 245.456C156.625 245.456 156.455 245.507 156.327 245.608C156.204 245.704 156.143 245.829 156.143 245.984C156.143 246.08 156.161 246.165 156.199 246.24C156.236 246.309 156.308 246.379 156.415 246.448C156.527 246.517 156.607 246.565 156.655 246.592C156.708 246.613 156.82 246.661 156.991 246.736C157.332 246.875 157.599 247.032 157.791 247.208C157.983 247.384 158.079 247.621 158.079 247.92C158.079 248.267 157.956 248.541 157.711 248.744C157.471 248.947 157.14 249.048 156.719 249.048C156.228 249.048 155.831 248.965 155.527 248.8V248.184C155.884 248.397 156.268 248.504 156.679 248.504C156.924 248.504 157.111 248.456 157.239 248.36C157.367 248.264 157.431 248.133 157.431 247.968C157.431 247.776 157.359 247.627 157.215 247.52C157.076 247.413 156.841 247.293 156.511 247.16C156.207 247.043 155.961 246.896 155.775 246.72C155.593 246.544 155.503 246.307 155.503 246.008C155.503 245.672 155.628 245.405 155.879 245.208C156.135 245.005 156.452 244.904 156.831 244.904C157.252 244.904 157.591 244.963 157.847 245.08ZM162.433 248.488C162.763 248.488 163.043 248.365 163.273 248.12C163.507 247.875 163.625 247.483 163.625 246.944C163.625 246.432 163.505 246.056 163.265 245.816C163.025 245.576 162.761 245.456 162.473 245.456C162.137 245.456 161.857 245.592 161.633 245.864C161.414 246.131 161.305 246.515 161.305 247.016C161.305 247.453 161.411 247.808 161.625 248.08C161.838 248.352 162.107 248.488 162.433 248.488ZM163.625 243.344H164.257V249H163.625V248.4C163.337 248.843 162.921 249.064 162.377 249.064C161.838 249.064 161.414 248.864 161.105 248.464C160.801 248.064 160.649 247.579 160.649 247.008C160.649 246.373 160.811 245.861 161.137 245.472C161.462 245.077 161.881 244.88 162.393 244.88C162.921 244.88 163.331 245.107 163.625 245.56V243.344ZM165.46 249V244.944H166.092V249H165.46ZM165.476 243.968C165.401 243.888 165.364 243.789 165.364 243.672C165.364 243.555 165.401 243.456 165.476 243.376C165.556 243.296 165.654 243.256 165.772 243.256C165.889 243.256 165.988 243.296 166.068 243.376C166.148 243.456 166.188 243.555 166.188 243.672C166.188 243.789 166.148 243.888 166.068 243.968C165.988 244.043 165.889 244.08 165.772 244.08C165.654 244.08 165.556 244.043 165.476 243.968ZM171.096 248.488C171.421 248.488 171.691 248.352 171.904 248.08C172.117 247.808 172.224 247.453 172.224 247.016C172.224 246.515 172.112 246.131 171.888 245.864C171.669 245.592 171.392 245.456 171.056 245.456C170.768 245.456 170.504 245.576 170.264 245.816C170.024 246.056 169.904 246.432 169.904 246.944C169.904 247.483 170.019 247.875 170.248 248.12C170.483 248.365 170.765 248.488 171.096 248.488ZM169.904 243.344V245.552C170.197 245.104 170.608 244.88 171.136 244.88C171.648 244.88 172.067 245.077 172.392 245.472C172.717 245.861 172.88 246.373 172.88 247.008C172.88 247.579 172.725 248.064 172.416 248.464C172.112 248.864 171.691 249.064 171.152 249.064C170.608 249.064 170.192 248.843 169.904 248.4V249H169.272V243.344H169.904ZM175.995 247.128H175.291C174.949 247.128 174.693 247.195 174.523 247.328C174.352 247.461 174.267 247.629 174.267 247.832C174.267 248.035 174.333 248.2 174.467 248.328C174.6 248.451 174.795 248.512 175.051 248.512C175.339 248.512 175.568 248.432 175.739 248.272C175.909 248.107 175.995 247.899 175.995 247.648V247.128ZM173.899 245.792V245.16C174.203 244.973 174.603 244.88 175.099 244.88C176.117 244.88 176.627 245.397 176.627 246.432V249H176.003V248.52C175.795 248.867 175.416 249.04 174.867 249.04C174.488 249.04 174.181 248.928 173.947 248.704C173.717 248.48 173.603 248.197 173.603 247.856C173.603 247.467 173.749 247.165 174.043 246.952C174.341 246.733 174.747 246.624 175.259 246.624H175.995V246.416C175.995 246.096 175.923 245.856 175.779 245.696C175.635 245.531 175.392 245.448 175.051 245.448C174.619 245.448 174.235 245.563 173.899 245.792ZM178.868 248.896L177.228 244.944H177.94L178.468 246.28L179.18 248.12C179.223 247.981 179.436 247.368 179.82 246.28L180.292 244.944H180.972L179.508 248.896C179.3 249.445 179.052 249.832 178.764 250.056C178.481 250.28 178.156 250.392 177.788 250.392C177.649 250.392 177.537 250.379 177.452 250.352V249.784C177.532 249.805 177.623 249.816 177.724 249.816C178.263 249.816 178.644 249.509 178.868 248.896ZM183.877 247.128H183.173C182.832 247.128 182.576 247.195 182.405 247.328C182.235 247.461 182.149 247.629 182.149 247.832C182.149 248.035 182.216 248.2 182.349 248.328C182.483 248.451 182.677 248.512 182.933 248.512C183.221 248.512 183.451 248.432 183.621 248.272C183.792 248.107 183.877 247.899 183.877 247.648V247.128ZM181.781 245.792V245.16C182.085 244.973 182.485 244.88 182.981 244.88C184 244.88 184.509 245.397 184.509 246.432V249H183.885V248.52C183.677 248.867 183.299 249.04 182.749 249.04C182.371 249.04 182.064 248.928 181.829 248.704C181.6 248.48 181.485 248.197 181.485 247.856C181.485 247.467 181.632 247.165 181.925 246.952C182.224 246.733 182.629 246.624 183.141 246.624H183.877V246.416C183.877 246.096 183.805 245.856 183.661 245.696C183.517 245.531 183.275 245.448 182.933 245.448C182.501 245.448 182.117 245.563 181.781 245.792ZM186.255 244.944V245.656C186.468 245.155 186.836 244.904 187.359 244.904C187.455 244.904 187.53 244.909 187.583 244.92V245.544C187.471 245.507 187.356 245.488 187.239 245.488C186.956 245.488 186.722 245.619 186.535 245.88C186.348 246.141 186.255 246.443 186.255 246.784V249H185.623L185.631 244.944H186.255Z" fill="#2B2B2B"/>
<path d="M248.116 244.168V246.32H248.932C249.3 246.32 249.58 246.221 249.772 246.024C249.969 245.821 250.068 245.563 250.068 245.248C250.068 244.528 249.665 244.168 248.86 244.168H248.116ZM251.052 249H250.276L248.956 246.872H248.892H248.116V249H247.468V243.608H248.82C249.444 243.608 249.916 243.755 250.236 244.048C250.561 244.341 250.724 244.747 250.724 245.264C250.713 245.637 250.614 245.955 250.428 246.216C250.241 246.477 249.977 246.661 249.636 246.768L251.052 249ZM253.602 248.488C253.944 248.488 254.224 248.355 254.442 248.088C254.661 247.816 254.77 247.432 254.77 246.936C254.77 246.493 254.664 246.136 254.45 245.864C254.237 245.592 253.968 245.456 253.642 245.456C253.317 245.456 253.034 245.576 252.794 245.816C252.56 246.051 252.442 246.437 252.442 246.976C252.442 247.493 252.562 247.875 252.802 248.12C253.042 248.365 253.309 248.488 253.602 248.488ZM252.442 244.944V245.56C252.725 245.107 253.144 244.88 253.698 244.88C254.237 244.88 254.658 245.077 254.962 245.472C255.272 245.861 255.426 246.349 255.426 246.936C255.426 247.56 255.264 248.072 254.938 248.472C254.618 248.867 254.2 249.064 253.682 249.064C253.149 249.064 252.736 248.837 252.442 248.384V250.576H251.818V244.944H252.442ZM259.079 244.32V245.888C259.319 245.835 259.527 245.808 259.703 245.808C260.236 245.808 260.657 245.949 260.967 246.232C261.281 246.515 261.439 246.893 261.439 247.368C261.439 247.885 261.268 248.299 260.927 248.608C260.591 248.912 260.129 249.064 259.543 249.064C259.015 249.064 258.567 248.973 258.199 248.792V248.168C258.54 248.371 258.953 248.472 259.439 248.472C260.335 248.472 260.783 248.096 260.783 247.344C260.783 247.04 260.679 246.805 260.471 246.64C260.263 246.469 259.993 246.384 259.663 246.384C259.273 246.384 258.871 246.477 258.455 246.664V243.768H261.079V244.32H259.079ZM262.141 246.368C262.141 245.547 262.306 244.899 262.637 244.424C262.973 243.944 263.413 243.704 263.957 243.704C264.522 243.704 264.97 243.944 265.301 244.424C265.637 244.899 265.805 245.547 265.805 246.368C265.805 247.184 265.645 247.837 265.325 248.328C265.005 248.819 264.549 249.064 263.957 249.064C263.408 249.064 262.968 248.819 262.637 248.328C262.306 247.837 262.141 247.184 262.141 246.368ZM263.133 244.848C262.904 245.205 262.789 245.712 262.789 246.368C262.789 247.024 262.901 247.539 263.125 247.912C263.349 248.28 263.626 248.464 263.957 248.464C264.325 248.464 264.616 248.283 264.829 247.92C265.048 247.557 265.157 247.04 265.157 246.368C265.157 245.701 265.042 245.192 264.813 244.84C264.589 244.483 264.304 244.304 263.957 244.304C263.637 244.304 263.362 244.485 263.133 244.848ZM266.084 249.984L266.828 248.192H267.668L266.636 249.984H266.084ZM268.289 246.368C268.289 245.547 268.455 244.899 268.785 244.424C269.121 243.944 269.561 243.704 270.105 243.704C270.671 243.704 271.119 243.944 271.449 244.424C271.785 244.899 271.953 245.547 271.953 246.368C271.953 247.184 271.793 247.837 271.473 248.328C271.153 248.819 270.697 249.064 270.105 249.064C269.556 249.064 269.116 248.819 268.785 248.328C268.455 247.837 268.289 247.184 268.289 246.368ZM269.281 244.848C269.052 245.205 268.937 245.712 268.937 246.368C268.937 247.024 269.049 247.539 269.273 247.912C269.497 248.28 269.775 248.464 270.105 248.464C270.473 248.464 270.764 248.283 270.977 247.92C271.196 247.557 271.305 247.04 271.305 246.368C271.305 245.701 271.191 245.192 270.961 244.84C270.737 244.483 270.452 244.304 270.105 244.304C269.785 244.304 269.511 244.485 269.281 244.848ZM272.641 246.368C272.641 245.547 272.806 244.899 273.137 244.424C273.473 243.944 273.913 243.704 274.457 243.704C275.022 243.704 275.47 243.944 275.801 244.424C276.137 244.899 276.305 245.547 276.305 246.368C276.305 247.184 276.145 247.837 275.825 248.328C275.505 248.819 275.049 249.064 274.457 249.064C273.908 249.064 273.468 248.819 273.137 248.328C272.806 247.837 272.641 247.184 272.641 246.368ZM273.633 244.848C273.404 245.205 273.289 245.712 273.289 246.368C273.289 247.024 273.401 247.539 273.625 247.912C273.849 248.28 274.126 248.464 274.457 248.464C274.825 248.464 275.116 248.283 275.329 247.92C275.548 247.557 275.657 247.04 275.657 246.368C275.657 245.701 275.542 245.192 275.313 244.84C275.089 244.483 274.804 244.304 274.457 244.304C274.137 244.304 273.862 244.485 273.633 244.848ZM276.992 246.368C276.992 245.547 277.158 244.899 277.488 244.424C277.824 243.944 278.264 243.704 278.808 243.704C279.374 243.704 279.822 243.944 280.152 244.424C280.488 244.899 280.656 245.547 280.656 246.368C280.656 247.184 280.496 247.837 280.176 248.328C279.856 248.819 279.4 249.064 278.808 249.064C278.259 249.064 277.819 248.819 277.488 248.328C277.158 247.837 276.992 247.184 276.992 246.368ZM277.984 244.848C277.755 245.205 277.64 245.712 277.64 246.368C277.64 247.024 277.752 247.539 277.976 247.912C278.2 248.28 278.478 248.464 278.808 248.464C279.176 248.464 279.467 248.283 279.68 247.92C279.899 247.557 280.008 247.04 280.008 246.368C280.008 245.701 279.894 245.192 279.664 244.84C279.44 244.483 279.155 244.304 278.808 244.304C278.488 244.304 278.214 244.485 277.984 244.848Z" fill="#FF1934"/>
<rect x="109" y="270" width="120" height="24" rx="8" fill="#FF1934"/>
<path d="M157.959 283.176L158.823 283.176C159.468 283.176 159.791 282.931 159.791 282.44C159.791 281.939 159.455 281.688 158.783 281.688L157.959 281.688L157.959 283.176ZM157.959 279.432L157.959 280.88L158.567 280.88C158.929 280.88 159.201 280.808 159.383 280.664C159.564 280.52 159.655 280.336 159.655 280.112C159.655 279.904 159.577 279.739 159.423 279.616C159.273 279.493 159.044 279.432 158.735 279.432L157.959 279.432ZM156.951 278.608L158.863 278.608C159.439 278.608 159.887 278.744 160.207 279.016C160.527 279.288 160.687 279.64 160.687 280.072C160.687 280.365 160.607 280.621 160.447 280.84C160.287 281.053 160.081 281.195 159.831 281.264C160.119 281.333 160.356 281.475 160.543 281.688C160.729 281.896 160.823 282.181 160.823 282.544C160.823 282.971 160.673 283.32 160.375 283.592C160.076 283.864 159.663 284 159.135 284L156.951 284L156.951 278.608ZM163.053 281.952L164.573 281.952L164.501 281.712C164.32 281.136 164.17 280.653 164.053 280.264C163.941 279.869 163.872 279.621 163.845 279.52L163.813 279.36C163.765 279.627 163.536 280.413 163.125 281.72L163.053 281.952ZM165.213 284L164.829 282.776L162.789 282.776L162.405 284L161.349 284L163.173 278.608L164.477 278.608L166.301 284L165.213 284ZM171.364 278.608L169.508 282L169.508 284L168.5 284L168.5 282.032L166.66 278.608L167.836 278.608L168.196 279.392C168.404 279.845 168.574 280.227 168.708 280.536C168.841 280.84 168.921 281.029 168.948 281.104L168.996 281.224C169.044 281.027 169.318 280.416 169.82 279.392L170.188 278.608L171.364 278.608ZM173.436 281.952L174.956 281.952L174.884 281.712C174.702 281.136 174.553 280.653 174.436 280.264C174.324 279.869 174.254 279.621 174.228 279.52L174.196 279.36C174.148 279.627 173.918 280.413 173.508 281.72L173.436 281.952ZM175.596 284L175.212 282.776L173.172 282.776L172.788 284L171.732 284L173.556 278.608L174.86 278.608L176.684 284L175.596 284ZM178.466 279.44L178.466 281.2L179.138 281.2C179.448 281.2 179.68 281.123 179.834 280.968C179.989 280.808 180.066 280.587 180.066 280.304C180.066 280.027 179.984 279.813 179.818 279.664C179.658 279.515 179.426 279.44 179.122 279.44L178.466 279.44ZM180.242 284L179.018 282.032L178.466 282.032L178.466 284L177.458 284L177.458 278.608L179.122 278.608C179.736 278.608 180.216 278.763 180.562 279.072C180.914 279.381 181.09 279.795 181.09 280.312C181.085 280.696 180.992 281.021 180.81 281.288C180.629 281.549 180.381 281.744 180.066 281.872L181.45 284L180.242 284Z" fill="white"/>
<path d="M9 341.5H329C333.694 341.5 337.5 345.306 337.5 350C337.5 354.694 333.694 358.5 329 358.5H9C4.30558 358.5 0.5 354.694 0.5 350C0.500002 345.306 4.30558 341.5 9 341.5Z" fill="white"/>
<path d="M9 341.5H329C333.694 341.5 337.5 345.306 337.5 350C337.5 354.694 333.694 358.5 329 358.5H9C4.30558 358.5 0.5 354.694 0.5 350C0.500002 345.306 4.30558 341.5 9 341.5Z" stroke="#CCCCCC"/>
<path d="M7.86805e-07 350C3.52265e-07 345.029 4.02944 341 9 341L39 341C43.9706 341 48 345.029 48 350C48 354.971 43.9706 359 39 359L9 359C4.02944 359 1.22135e-06 354.971 7.86805e-07 350Z" fill="#FF1934"/>
<path d="M15.448 346.688H16.264L16.816 348.6L17.456 350.92C17.5893 350.179 17.7547 349.403 17.952 348.592L18.44 346.608H19.464L18.088 352H16.92L16.432 350.296C16.2987 349.843 16.184 349.443 16.088 349.096C15.9973 348.749 15.936 348.517 15.904 348.4L15.864 348.216C15.7893 348.589 15.6027 349.283 15.304 350.296L14.8 352H13.64L12.2 346.608H13.264L13.768 348.6C13.8533 348.957 13.9387 349.328 14.024 349.712C14.1093 350.096 14.1733 350.389 14.216 350.592L14.28 350.904C14.4507 350.232 14.6587 349.464 14.904 348.6L15.448 346.688ZM22.2561 350.256H21.7601C21.5094 350.256 21.3174 350.309 21.1841 350.416C21.0507 350.517 20.9841 350.648 20.9841 350.808C20.9841 351.149 21.1814 351.32 21.5761 351.32C21.7894 351.32 21.9547 351.259 22.0721 351.136C22.1947 351.008 22.2561 350.843 22.2561 350.64V350.256ZM20.2881 349.04V348.152C20.5921 347.965 21.0294 347.872 21.6001 347.872C22.6987 347.872 23.2481 348.384 23.2481 349.408V352H22.2961V351.512C22.1094 351.859 21.7574 352.032 21.2401 352.032C20.8561 352.032 20.5494 351.92 20.3201 351.696C20.0961 351.472 19.9841 351.189 19.9841 350.848C19.9841 350.464 20.1281 350.163 20.4161 349.944C20.7041 349.725 21.1201 349.616 21.6641 349.616H22.2561V349.368C22.2561 349.144 22.1974 348.973 22.0801 348.856C21.9627 348.739 21.7627 348.68 21.4801 348.68C21.0481 348.68 20.6507 348.8 20.2881 349.04ZM27.7828 352H26.6548L25.1988 349.904V352H24.2388V346.44H25.1988V349.848L26.6308 347.944H27.7508L26.2628 349.88L27.7828 352ZM29.5864 348.664V350.728C29.5864 350.899 29.6318 351.029 29.7224 351.12C29.8131 351.205 29.9384 351.248 30.0984 351.248C30.3011 351.248 30.4878 351.192 30.6584 351.08V351.904C30.4718 351.995 30.2318 352.04 29.9384 352.04C29.0638 352.04 28.6264 351.597 28.6264 350.712V348.664H28.0184V347.944H28.6264V346.968H29.5864V347.944H30.5944V348.664H29.5864ZM33.9617 347.944H34.9297V352H33.9617V351.336C33.7484 351.805 33.3324 352.04 32.7137 352.04C32.303 352.04 31.983 351.923 31.7537 351.688C31.5244 351.453 31.4097 351.12 31.4097 350.688V347.944H32.3697V350.464C32.3697 350.72 32.431 350.915 32.5537 351.048C32.6817 351.181 32.855 351.248 33.0737 351.248C33.351 351.248 33.567 351.155 33.7217 350.968C33.8817 350.781 33.9617 350.499 33.9617 350.12V347.944Z" fill="white"/>
<rect x="56" y="348" width="274" height="4" rx="2" fill="#CCCCCC"/>
<mask id="mask0_1124_4113" style="mask-type:alpha" maskUnits="userSpaceOnUse" x="56" y="348" width="274" height="4">
<rect x="56" y="348" width="274" height="4" rx="2" fill="#CCCCCC"/>
</mask>
<g mask="url(#mask0_1124_4113)">
<rect x="56" y="348" width="274" height="4" rx="2" fill="#FF1934"/>
</g>
<defs>
<filter id="filter0_d_1124_4113" x="5" y="14" width="328" height="56" filterUnits="userSpaceOnUse" color-interpolation-filters="sRGB">
<feFlood flood-opacity="0" result="BackgroundImageFix"/>
<feColorMatrix in="SourceAlpha" type="matrix" values="0 0 0 0 0 0 0 0 0 0 0 0 0 0 0 0 0 0 127 0" result="hardAlpha"/>
<feOffset dy="2"/>
<feGaussianBlur stdDeviation="2"/>
<feComposite in2="hardAlpha" operator="out"/>
<feColorMatrix type="matrix" values="0 0 0 0 0.168627 0 0 0 0 0.168627 0 0 0 0 0.168627 0 0 0 0.24 0"/>
<feBlend mode="normal" in2="BackgroundImageFix" result="effect1_dropShadow_1124_4113"/>
<feBlend mode="normal" in="SourceGraphic" in2="effect1_dropShadow_1124_4113" result="shape"/>
</filter>
<clipPath id="clip0_1124_4113">
<rect width="24" height="24" fill="white" transform="translate(25 32)"/>
</clipPath>
<clipPath id="clip1_1124_4113">
<rect width="64" height="64" fill="white" transform="translate(137 72)"/>
</clipPath>
</defs>
</svg>
