<svg width="338" height="375" viewBox="0 0 338 375" fill="none" xmlns="http://www.w3.org/2000/svg">
<rect width="338" height="375" fill="#D3D3D3"/>
<rect x="26.5" y="16" width="285" height="294" rx="16" fill="white"/>
<g filter="url(#filter0_d_1124_4113)">
<path d="M26.5 32C26.5 23.1634 33.6634 16 42.5 16H295.5C304.337 16 311.5 23.1634 311.5 32V64H26.5V32Z" fill="#FF1934" shape-rendering="crispEdges"/>
<g clip-path="url(#clip0_1124_4113)">
<path d="M54.5 34C48.99 34 44.5 38.49 44.5 44C44.5 46.27 45.24 48.41 46.64 50.18C46.91 50.53 47.42 50.59 47.76 50.31C48.11 50.04 48.17 49.53 47.89 49.19C46.71 47.7 46.09 45.9 46.09 44C46.1 39.37 49.87 35.6 54.5 35.6C59.13 35.6 62.9 39.37 62.9 44C62.9 48.63 59.13 52.4 54.5 52.4C52.82 52.4 51.19 51.9 49.8 50.97C49.43 50.72 48.94 50.82 48.69 51.18C48.44 51.54 48.54 52.04 48.9 52.29C50.56 53.41 52.49 54 54.49 54C60 54 64.49 49.51 64.49 44C64.49 38.49 60.01 34 54.5 34Z" fill="white"/>
<path d="M58.2402 38.14C57.8702 37.9 57.3702 38.01 57.1302 38.38L53.8202 43.57C53.7402 43.7 53.7002 43.85 53.7002 44V48C53.7002 48.44 54.0602 48.8 54.5002 48.8C54.9402 48.8 55.3002 48.44 55.3002 48V44.23L58.4902 39.24C58.7302 38.87 58.6202 38.37 58.2502 38.13L58.2402 38.14Z" fill="white"/>
</g>
<path d="M77.566 46.11H81.052V48H75.41V38.564H77.566V46.11ZM82.2459 48V40.902H84.2899V48H82.2459ZM82.4279 39.684C82.1946 39.4507 82.0779 39.1707 82.0779 38.844C82.0779 38.5173 82.1946 38.2373 82.4279 38.004C82.6613 37.7707 82.9413 37.654 83.2679 37.654C83.5946 37.654 83.8746 37.7707 84.1079 38.004C84.3413 38.2373 84.4579 38.5173 84.4579 38.844C84.4579 39.1707 84.3413 39.4507 84.1079 39.684C83.8746 39.9173 83.5946 40.034 83.2679 40.034C82.9413 40.034 82.6613 39.9173 82.4279 39.684ZM88.0891 40.902V42.106C88.2664 41.714 88.5371 41.406 88.9011 41.182C89.2744 40.9487 89.7177 40.832 90.2311 40.832C90.9591 40.832 91.5284 41.0513 91.9391 41.49C92.3497 41.9193 92.5551 42.554 92.5551 43.394V48H90.5111V43.772C90.5111 43.352 90.4131 43.0347 90.2171 42.82C90.0211 42.596 89.7457 42.484 89.3911 42.484C89.0177 42.484 88.7051 42.6333 88.4531 42.932C88.2104 43.2213 88.0891 43.66 88.0891 44.248V48H86.0451V40.902H88.0891ZM94.2362 48V40.902H96.2802V48H94.2362ZM94.4182 39.684C94.1848 39.4507 94.0682 39.1707 94.0682 38.844C94.0682 38.5173 94.1848 38.2373 94.4182 38.004C94.6515 37.7707 94.9315 37.654 95.2582 37.654C95.5848 37.654 95.8648 37.7707 96.0982 38.004C96.3315 38.2373 96.4482 38.5173 96.4482 38.844C96.4482 39.1707 96.3315 39.4507 96.0982 39.684C95.8648 39.9173 95.5848 40.034 95.2582 40.034C94.9315 40.034 94.6515 39.9173 94.4182 39.684ZM101.395 48L102.207 38.564H104.573L105.889 41.98C106.113 42.5493 106.305 43.072 106.463 43.548C106.622 44.024 106.725 44.36 106.771 44.556L106.841 44.836C106.991 44.22 107.317 43.268 107.821 41.98L109.151 38.564H111.517L112.497 48H110.341L109.991 44.346L109.809 41.588C109.567 42.288 109.231 43.2073 108.801 44.346L107.471 47.902H106.197L104.881 44.346C104.667 43.7673 104.485 43.2493 104.335 42.792C104.186 42.3347 104.088 42.0173 104.041 41.84L103.971 41.588C103.971 42.2507 103.929 43.17 103.845 44.346L103.551 48H101.395ZM117.545 45.088H116.887C116.542 45.088 116.276 45.1627 116.089 45.312C115.903 45.4613 115.809 45.6527 115.809 45.886C115.809 46.362 116.085 46.6 116.635 46.6C116.925 46.6 117.149 46.5113 117.307 46.334C117.466 46.1567 117.545 45.914 117.545 45.606V45.088ZM114.227 43.086V41.252C114.787 40.9347 115.595 40.776 116.649 40.776C117.657 40.776 118.409 40.9953 118.903 41.434C119.398 41.8633 119.645 42.5353 119.645 43.45V48H117.643V47.132C117.345 47.7387 116.757 48.042 115.879 48.042C115.189 48.042 114.647 47.846 114.255 47.454C113.873 47.062 113.681 46.572 113.681 45.984C113.681 45.3027 113.929 44.7753 114.423 44.402C114.927 44.0193 115.669 43.828 116.649 43.828H117.545V43.338C117.545 42.7407 117.149 42.442 116.355 42.442C115.59 42.442 114.881 42.6567 114.227 43.086ZM125.73 41.112V42.862C125.235 42.5727 124.657 42.428 123.994 42.428C123.751 42.428 123.565 42.4793 123.434 42.582C123.303 42.6753 123.238 42.7967 123.238 42.946C123.238 43.03 123.261 43.1093 123.308 43.184C123.355 43.2587 123.429 43.3287 123.532 43.394C123.644 43.4593 123.747 43.52 123.84 43.576C123.943 43.6227 124.078 43.6833 124.246 43.758C124.423 43.8327 124.563 43.898 124.666 43.954C125.095 44.178 125.441 44.4393 125.702 44.738C125.963 45.0273 126.094 45.4007 126.094 45.858C126.094 46.558 125.842 47.0993 125.338 47.482C124.834 47.8647 124.167 48.056 123.336 48.056C122.477 48.056 121.759 47.9113 121.18 47.622V45.802C121.824 46.25 122.505 46.474 123.224 46.474C123.737 46.474 123.994 46.3107 123.994 45.984C123.994 45.9 123.971 45.8207 123.924 45.746C123.877 45.6713 123.798 45.6013 123.686 45.536C123.574 45.4707 123.471 45.4193 123.378 45.382C123.285 45.3353 123.149 45.2747 122.972 45.2C122.795 45.1253 122.659 45.0647 122.566 45.018C121.623 44.57 121.152 43.898 121.152 43.002C121.152 42.3113 121.413 41.7747 121.936 41.392C122.468 41.0093 123.126 40.818 123.91 40.818C124.638 40.818 125.245 40.916 125.73 41.112ZM130.862 45.088H130.204C129.858 45.088 129.592 45.1627 129.406 45.312C129.219 45.4613 129.126 45.6527 129.126 45.886C129.126 46.362 129.401 46.6 129.952 46.6C130.241 46.6 130.465 46.5113 130.624 46.334C130.782 46.1567 130.862 45.914 130.862 45.606V45.088ZM127.544 43.086V41.252C128.104 40.9347 128.911 40.776 129.966 40.776C130.974 40.776 131.725 40.9953 132.22 41.434C132.714 41.8633 132.962 42.5353 132.962 43.45V48H130.96V47.132C130.661 47.7387 130.073 48.042 129.196 48.042C128.505 48.042 127.964 47.846 127.572 47.454C127.189 47.062 126.998 46.572 126.998 45.984C126.998 45.3027 127.245 44.7753 127.74 44.402C128.244 44.0193 128.986 43.828 129.966 43.828H130.862V43.338C130.862 42.7407 130.465 42.442 129.672 42.442C128.906 42.442 128.197 42.6567 127.544 43.086Z" fill="white"/>
</g>
<g clip-path="url(#clip1_1124_4113)">
<path d="M169 122.65C160.603 122.65 152.56 123.191 150.726 123.994C148.431 124.997 156.353 126.017 169 126.017C181.647 126.017 189.568 124.997 187.274 123.994C185.439 123.192 177.396 122.65 169 122.65Z" fill="#CCCCCC"/>
<path d="M172.908 90.1771L177.215 93.1189L177.882 92.6364L173.114 89.3799L172.908 90.1771Z" fill="#D9AA16"/>
<path d="M159.1 115.018C167.439 120.713 177.722 120.173 182.067 113.812C186.412 107.45 183.174 97.6754 174.834 91.9798C166.495 86.2842 156.212 86.8242 151.867 93.1859C147.522 99.5477 150.76 109.322 159.1 115.018Z" fill="#DA011C"/>
<path d="M159.615 114.477C162.544 116.457 165.955 117.775 169.456 118.08C172.958 118.384 176.016 117.63 178.346 116.109L166.967 103.498L159.614 114.476L159.615 114.477Z" fill="#FF1934"/>
<path d="M178.267 116.161C180.618 114.661 182.289 112.362 182.875 109.418C183.461 106.475 182.873 103.335 181.403 100.414L166.967 103.499L178.267 116.161Z" fill="#D9AA16"/>
<path d="M151.061 97.5802C150.514 100.314 150.949 103.439 152.529 106.585C154.109 109.731 156.595 112.418 159.515 114.41L166.967 103.499L151.062 97.5806L151.061 97.5802Z" fill="#1699D9"/>
<path d="M181.403 100.414C179.938 97.4914 177.563 94.7327 174.421 92.5864C171.278 90.4402 167.845 89.2316 164.589 88.9303L166.967 103.499L181.403 100.414Z" fill="#CC0BD9"/>
<path d="M164.478 88.92C161.225 88.6341 158.096 89.2501 155.585 90.8862C153.074 92.5224 151.562 94.9298 151.043 97.6733L166.966 103.499L164.478 88.92Z" fill="#008C1E"/>
<path d="M151.042 97.6728L166.797 103.536L159.416 114.342C159.449 114.365 159.481 114.389 159.514 114.412C159.547 114.435 159.581 114.455 159.615 114.478L166.995 103.671L178.189 116.214C178.242 116.18 178.297 116.148 178.35 116.114L167.155 103.569L181.454 100.513C181.421 100.447 181.385 100.38 181.352 100.315L167.055 103.37L164.7 88.9416C164.626 88.9342 164.552 88.9249 164.478 88.919L166.834 103.35L151.076 97.4856C151.063 97.5477 151.053 97.6104 151.042 97.6728Z" fill="white"/>
<g style="mix-blend-mode:multiply" opacity="0.32">
<path d="M159.514 114.411C167.415 119.807 177.156 119.296 181.272 113.269C185.388 107.242 182.321 97.9823 174.42 92.5864C166.52 87.1905 156.778 87.702 152.662 93.729C148.546 99.7559 151.613 109.016 159.514 114.411ZM174.006 93.1923C181.468 98.2883 184.365 107.034 180.478 112.726C176.59 118.419 167.39 118.902 159.928 113.806C152.466 108.709 149.569 99.9638 153.457 94.2715C157.344 88.5791 166.544 88.096 174.006 93.1923Z" fill="#2B2B2B"/>
</g>
<path d="M166.139 104.711C167.017 105.311 168.099 105.254 168.556 104.584C169.014 103.915 168.673 102.886 167.795 102.287C166.918 101.687 165.835 101.744 165.378 102.414C164.921 103.083 165.262 104.112 166.139 104.711Z" fill="white"/>
<path d="M177.882 92.6362C177.511 91.7422 176.864 90.9214 175.973 90.3128C175.082 89.7043 174.081 89.4 173.114 89.3796L173.489 93.9502L177.882 92.6362Z" fill="#D9AA16"/>
<path d="M173.114 89.3799L172.908 90.1771L173.196 90.3738L173.114 89.3799Z" fill="#D9AA16"/>
<path d="M177.214 93.1188C177.214 93.1188 177.464 92.9378 177.548 92.8774C177.632 92.817 177.553 92.7341 177.444 92.767C177.314 92.8057 176.927 92.9217 176.927 92.9217L177.215 93.1184L177.214 93.1188Z" fill="#B76F09"/>
<path d="M172.907 90.1769C172.907 90.1769 172.985 89.8782 173.011 89.7781C173.037 89.678 173.143 89.7214 173.152 89.8353C173.163 89.9699 173.196 90.3732 173.196 90.3732L172.908 90.1765L172.907 90.1769Z" fill="#B76F09"/>
<path d="M175.766 90.616C176.426 91.0669 176.953 91.6615 177.308 92.3495L173.882 93.3741L173.59 89.8098C174.36 89.8899 175.105 90.1652 175.766 90.616Z" fill="white"/>
</g>
<path d="M71.2591 144.49H73.4191L73.3091 144.15C73.0557 143.363 72.8491 142.713 72.6891 142.2C72.5291 141.68 72.4324 141.357 72.3991 141.23L72.3491 141.04C72.2757 141.353 71.9491 142.39 71.3691 144.15L71.2591 144.49ZM74.2291 147L73.6991 145.35H70.9791L70.4391 147H69.3491L71.6791 140.26H73.0291L75.3291 147H74.2291ZM77.3106 141.93V142.8C77.6106 142.173 78.1373 141.86 78.8906 141.86C79.3906 141.86 79.7873 142.013 80.0806 142.32C80.374 142.627 80.5206 143.043 80.5206 143.57V147H79.5406V143.8C79.5406 143.447 79.4506 143.177 79.2706 142.99C79.0973 142.803 78.864 142.71 78.5706 142.71C78.224 142.71 77.9273 142.847 77.6806 143.12C77.434 143.387 77.3106 143.763 77.3106 144.25V147H76.3306V141.93H77.3106ZM83.8884 146.21C84.2751 146.21 84.6018 146.063 84.8684 145.77C85.1351 145.477 85.2684 145.03 85.2684 144.43C85.2684 143.85 85.1284 143.42 84.8484 143.14C84.5751 142.86 84.2651 142.72 83.9184 142.72C83.5251 142.72 83.2018 142.877 82.9484 143.19C82.6951 143.497 82.5684 143.937 82.5684 144.51C82.5684 145.017 82.6918 145.427 82.9384 145.74C83.1918 146.053 83.5084 146.21 83.8884 146.21ZM85.2684 139.93H86.2584V147H85.2684V146.23C84.9151 146.79 84.3984 147.07 83.7184 147.07C83.0518 147.07 82.5251 146.82 82.1384 146.32C81.7518 145.813 81.5584 145.203 81.5584 144.49C81.5584 143.697 81.7618 143.06 82.1684 142.58C82.5751 142.1 83.0984 141.86 83.7384 141.86C84.3984 141.86 84.9084 142.14 85.2684 142.7V139.93ZM90.3092 144.74H89.5492C89.1759 144.74 88.8926 144.813 88.6992 144.96C88.5126 145.107 88.4192 145.293 88.4192 145.52C88.4192 145.753 88.4926 145.937 88.6392 146.07C88.7859 146.203 88.9992 146.27 89.2792 146.27C89.5992 146.27 89.8492 146.183 90.0292 146.01C90.2159 145.83 90.3092 145.597 90.3092 145.31V144.74ZM87.7592 143.14V142.19C88.1526 141.963 88.6726 141.85 89.3192 141.85C90.6459 141.85 91.3092 142.493 91.3092 143.78V147H90.3392V146.4C90.0792 146.827 89.6226 147.04 88.9692 147.04C88.4892 147.04 88.1026 146.903 87.8092 146.63C87.5226 146.35 87.3792 145.997 87.3792 145.57C87.3792 145.083 87.5626 144.707 87.9292 144.44C88.2959 144.167 88.8092 144.03 89.4692 144.03H90.3092V143.74C90.3092 143.393 90.2259 143.133 90.0592 142.96C89.8926 142.78 89.6159 142.69 89.2292 142.69C88.6892 142.69 88.1992 142.84 87.7592 143.14ZM96.0704 139.93V142.8C96.3571 142.173 96.8804 141.86 97.6404 141.86C98.1337 141.86 98.5304 142.013 98.8304 142.32C99.1304 142.627 99.2804 143.053 99.2804 143.6V147H98.3004V143.8C98.3004 143.453 98.2104 143.187 98.0304 143C97.8571 142.807 97.6271 142.71 97.3404 142.71C97.0071 142.71 96.7104 142.837 96.4504 143.09C96.1971 143.343 96.0704 143.73 96.0704 144.25V147H95.0904V139.93H96.0704ZM103.268 144.74H102.508C102.135 144.74 101.852 144.813 101.658 144.96C101.472 145.107 101.378 145.293 101.378 145.52C101.378 145.753 101.452 145.937 101.598 146.07C101.745 146.203 101.958 146.27 102.238 146.27C102.558 146.27 102.808 146.183 102.988 146.01C103.175 145.83 103.268 145.597 103.268 145.31V144.74ZM100.718 143.14V142.19C101.112 141.963 101.632 141.85 102.278 141.85C103.605 141.85 104.268 142.493 104.268 143.78V147H103.298V146.4C103.038 146.827 102.582 147.04 101.928 147.04C101.448 147.04 101.062 146.903 100.768 146.63C100.482 146.35 100.338 145.997 100.338 145.57C100.338 145.083 100.522 144.707 100.888 144.44C101.255 144.167 101.768 144.03 102.428 144.03H103.268V143.74C103.268 143.393 103.185 143.133 103.018 142.96C102.852 142.78 102.575 142.69 102.188 142.69C101.648 142.69 101.158 142.84 100.718 143.14ZM106.568 141.93V142.82C106.815 142.193 107.258 141.88 107.898 141.88C107.992 141.88 108.095 141.89 108.208 141.91V142.87C108.068 142.81 107.912 142.78 107.738 142.78C107.398 142.78 107.118 142.93 106.898 143.23C106.678 143.53 106.568 143.887 106.568 144.3V147H105.588V141.93H106.568ZM112.127 141.93H113.107V147H112.127V146.13C111.86 146.75 111.334 147.06 110.547 147.06C110.047 147.06 109.65 146.913 109.357 146.62C109.064 146.32 108.917 145.91 108.917 145.39V141.93H109.907V145.15C109.907 145.497 109.99 145.763 110.157 145.95C110.33 146.13 110.567 146.22 110.867 146.22C111.247 146.22 111.55 146.087 111.777 145.82C112.01 145.553 112.127 145.177 112.127 144.69V141.93ZM117.375 142.1V142.99C117.048 142.797 116.628 142.7 116.115 142.7C115.882 142.7 115.695 142.753 115.555 142.86C115.422 142.967 115.355 143.107 115.355 143.28C115.355 143.327 115.358 143.373 115.365 143.42C115.378 143.46 115.398 143.503 115.425 143.55C115.452 143.59 115.475 143.627 115.495 143.66C115.522 143.687 115.562 143.717 115.615 143.75C115.668 143.783 115.708 143.813 115.735 143.84C115.768 143.86 115.818 143.887 115.885 143.92C115.958 143.953 116.012 143.98 116.045 144C116.078 144.013 116.135 144.04 116.215 144.08C116.302 144.113 116.362 144.137 116.395 144.15C116.788 144.323 117.095 144.52 117.315 144.74C117.542 144.953 117.655 145.24 117.655 145.6C117.655 146.053 117.495 146.41 117.175 146.67C116.855 146.923 116.422 147.05 115.875 147.05C115.275 147.05 114.775 146.95 114.375 146.75V145.82C114.842 146.107 115.325 146.25 115.825 146.25C116.085 146.25 116.285 146.197 116.425 146.09C116.572 145.983 116.645 145.843 116.645 145.67C116.645 145.523 116.588 145.393 116.475 145.28C116.362 145.16 116.245 145.073 116.125 145.02C116.012 144.96 115.815 144.87 115.535 144.75C114.742 144.423 114.345 143.943 114.345 143.31C114.345 142.863 114.512 142.513 114.845 142.26C115.178 142.007 115.595 141.88 116.095 141.88C116.642 141.88 117.068 141.953 117.375 142.1ZM122.115 141.93V142.74C122.402 142.153 122.879 141.86 123.545 141.86C124.305 141.86 124.792 142.187 125.005 142.84C125.145 142.527 125.349 142.287 125.615 142.12C125.882 141.947 126.182 141.86 126.515 141.86C127.035 141.86 127.429 142.013 127.695 142.32C127.969 142.627 128.105 143.05 128.105 143.59V147H127.125V143.8C127.125 143.073 126.832 142.71 126.245 142.71C125.952 142.71 125.689 142.84 125.455 143.1C125.229 143.36 125.115 143.743 125.115 144.25V147H124.135V143.8C124.135 143.073 123.839 142.71 123.245 142.71C122.959 142.71 122.699 142.84 122.465 143.1C122.232 143.36 122.115 143.743 122.115 144.25V147H121.135V141.93H122.115ZM132.586 144.1V143.92C132.573 143.54 132.469 143.24 132.276 143.02C132.083 142.793 131.806 142.68 131.446 142.68C131.113 142.68 130.826 142.803 130.586 143.05C130.346 143.29 130.196 143.64 130.136 144.1H132.586ZM133.216 145.85V146.73C132.843 146.943 132.349 147.05 131.736 147.05C130.949 147.05 130.323 146.813 129.856 146.34C129.389 145.867 129.156 145.247 129.156 144.48C129.156 143.667 129.369 143.03 129.796 142.57C130.223 142.103 130.766 141.87 131.426 141.87C132.073 141.87 132.586 142.073 132.966 142.48C133.346 142.88 133.536 143.46 133.536 144.22C133.536 144.427 133.516 144.643 133.476 144.87H130.146C130.213 145.31 130.399 145.647 130.706 145.88C131.013 146.113 131.399 146.23 131.866 146.23C132.406 146.23 132.856 146.103 133.216 145.85ZM135.67 141.93V142.74C135.957 142.153 136.433 141.86 137.1 141.86C137.86 141.86 138.347 142.187 138.56 142.84C138.7 142.527 138.903 142.287 139.17 142.12C139.437 141.947 139.737 141.86 140.07 141.86C140.59 141.86 140.983 142.013 141.25 142.32C141.523 142.627 141.66 143.05 141.66 143.59V147H140.68V143.8C140.68 143.073 140.387 142.71 139.8 142.71C139.507 142.71 139.243 142.84 139.01 143.1C138.783 143.36 138.67 143.743 138.67 144.25V147H137.69V143.8C137.69 143.073 137.393 142.71 136.8 142.71C136.513 142.71 136.253 142.84 136.02 143.1C135.787 143.36 135.67 143.743 135.67 144.25V147H134.69V141.93H135.67ZM145.381 146.21C145.754 146.21 146.067 146.053 146.321 145.74C146.574 145.42 146.701 145.01 146.701 144.51C146.701 143.937 146.574 143.497 146.321 143.19C146.067 142.877 145.744 142.72 145.351 142.72C145.004 142.72 144.691 142.86 144.411 143.14C144.137 143.42 144.001 143.85 144.001 144.43C144.001 145.03 144.134 145.477 144.401 145.77C144.667 146.063 144.994 146.21 145.381 146.21ZM144.001 139.93V142.7C144.361 142.14 144.871 141.86 145.531 141.86C146.171 141.86 146.694 142.1 147.101 142.58C147.507 143.06 147.711 143.697 147.711 144.49C147.711 145.203 147.517 145.813 147.131 146.32C146.744 146.82 146.214 147.07 145.541 147.07C144.867 147.07 144.354 146.79 144.001 146.23V147H143.011V139.93H144.001ZM151.481 144.74H150.721C150.348 144.74 150.064 144.813 149.871 144.96C149.684 145.107 149.591 145.293 149.591 145.52C149.591 145.753 149.664 145.937 149.811 146.07C149.958 146.203 150.171 146.27 150.451 146.27C150.771 146.27 151.021 146.183 151.201 146.01C151.388 145.83 151.481 145.597 151.481 145.31V144.74ZM148.931 143.14V142.19C149.324 141.963 149.844 141.85 150.491 141.85C151.818 141.85 152.481 142.493 152.481 143.78V147H151.511V146.4C151.251 146.827 150.794 147.04 150.141 147.04C149.661 147.04 149.274 146.903 148.981 146.63C148.694 146.35 148.551 145.997 148.551 145.57C148.551 145.083 148.734 144.707 149.101 144.44C149.468 144.167 149.981 144.03 150.641 144.03H151.481V143.74C151.481 143.393 151.398 143.133 151.231 142.96C151.064 142.78 150.788 142.69 150.401 142.69C149.861 142.69 149.371 142.84 148.931 143.14ZM155.201 146.89L153.181 141.93H154.271L154.901 143.58L155.691 145.72C155.751 145.52 155.991 144.807 156.411 143.58L156.981 141.93H158.021L156.191 146.86C155.705 148.16 154.961 148.81 153.961 148.81C153.781 148.81 153.628 148.793 153.501 148.76V147.92C153.608 147.947 153.721 147.96 153.841 147.96C154.488 147.96 154.941 147.603 155.201 146.89ZM161.51 144.74H160.75C160.377 144.74 160.094 144.813 159.9 144.96C159.714 145.107 159.62 145.293 159.62 145.52C159.62 145.753 159.694 145.937 159.84 146.07C159.987 146.203 160.2 146.27 160.48 146.27C160.8 146.27 161.05 146.183 161.23 146.01C161.417 145.83 161.51 145.597 161.51 145.31V144.74ZM158.96 143.14V142.19C159.354 141.963 159.874 141.85 160.52 141.85C161.847 141.85 162.51 142.493 162.51 143.78V147H161.54V146.4C161.28 146.827 160.824 147.04 160.17 147.04C159.69 147.04 159.304 146.903 159.01 146.63C158.724 146.35 158.58 145.997 158.58 145.57C158.58 145.083 158.764 144.707 159.13 144.44C159.497 144.167 160.01 144.03 160.67 144.03H161.51V143.74C161.51 143.393 161.427 143.133 161.26 142.96C161.094 142.78 160.817 142.69 160.43 142.69C159.89 142.69 159.4 142.84 158.96 143.14ZM164.811 141.93V142.82C165.057 142.193 165.501 141.88 166.141 141.88C166.234 141.88 166.337 141.89 166.451 141.91V142.87C166.311 142.81 166.154 142.78 165.981 142.78C165.641 142.78 165.361 142.93 165.141 143.23C164.921 143.53 164.811 143.887 164.811 144.3V147H163.831V141.93H164.811ZM172.07 146.21C172.444 146.21 172.757 146.053 173.01 145.74C173.264 145.42 173.39 145.01 173.39 144.51C173.39 143.937 173.264 143.497 173.01 143.19C172.757 142.877 172.434 142.72 172.04 142.72C171.694 142.72 171.38 142.86 171.1 143.14C170.827 143.42 170.69 143.85 170.69 144.43C170.69 145.03 170.824 145.477 171.09 145.77C171.357 146.063 171.684 146.21 172.07 146.21ZM170.69 139.93V142.7C171.05 142.14 171.56 141.86 172.22 141.86C172.86 141.86 173.384 142.1 173.79 142.58C174.197 143.06 174.4 143.697 174.4 144.49C174.4 145.203 174.207 145.813 173.82 146.32C173.434 146.82 172.904 147.07 172.23 147.07C171.557 147.07 171.044 146.79 170.69 146.23V147H169.7V139.93H170.69ZM175.541 147V141.93H176.531V147H175.541ZM175.591 140.82C175.477 140.7 175.421 140.553 175.421 140.38C175.421 140.207 175.477 140.06 175.591 139.94C175.711 139.82 175.857 139.76 176.031 139.76C176.204 139.76 176.351 139.82 176.471 139.94C176.591 140.06 176.651 140.207 176.651 140.38C176.651 140.547 176.591 140.69 176.471 140.81C176.351 140.93 176.204 140.99 176.031 140.99C175.857 140.99 175.711 140.933 175.591 140.82ZM180.622 144.74H179.862C179.488 144.74 179.205 144.813 179.012 144.96C178.825 145.107 178.732 145.293 178.732 145.52C178.732 145.753 178.805 145.937 178.952 146.07C179.098 146.203 179.312 146.27 179.592 146.27C179.912 146.27 180.162 146.183 180.342 146.01C180.528 145.83 180.622 145.597 180.622 145.31V144.74ZM178.072 143.14V142.19C178.465 141.963 178.985 141.85 179.632 141.85C180.958 141.85 181.622 142.493 181.622 143.78V147H180.652V146.4C180.392 146.827 179.935 147.04 179.282 147.04C178.802 147.04 178.415 146.903 178.122 146.63C177.835 146.35 177.692 145.997 177.692 145.57C177.692 145.083 177.875 144.707 178.242 144.44C178.608 144.167 179.122 144.03 179.782 144.03H180.622V143.74C180.622 143.393 180.538 143.133 180.372 142.96C180.205 142.78 179.928 142.69 179.542 142.69C179.002 142.69 178.512 142.84 178.072 143.14ZM184.342 146.89L182.322 141.93H183.412L184.042 143.58L184.832 145.72C184.892 145.52 185.132 144.807 185.552 143.58L186.122 141.93H187.162L185.332 146.86C184.845 148.16 184.102 148.81 183.102 148.81C182.922 148.81 182.769 148.793 182.642 148.76V147.92C182.749 147.947 182.862 147.96 182.982 147.96C183.629 147.96 184.082 147.603 184.342 146.89ZM190.651 144.74H189.891C189.518 144.74 189.234 144.813 189.041 144.96C188.854 145.107 188.761 145.293 188.761 145.52C188.761 145.753 188.834 145.937 188.981 146.07C189.128 146.203 189.341 146.27 189.621 146.27C189.941 146.27 190.191 146.183 190.371 146.01C190.558 145.83 190.651 145.597 190.651 145.31V144.74ZM188.101 143.14V142.19C188.494 141.963 189.014 141.85 189.661 141.85C190.988 141.85 191.651 142.493 191.651 143.78V147H190.681V146.4C190.421 146.827 189.964 147.04 189.311 147.04C188.831 147.04 188.444 146.903 188.151 146.63C187.864 146.35 187.721 145.997 187.721 145.57C187.721 145.083 187.904 144.707 188.271 144.44C188.638 144.167 189.151 144.03 189.811 144.03H190.651V143.74C190.651 143.393 190.568 143.133 190.401 142.96C190.234 142.78 189.958 142.69 189.571 142.69C189.031 142.69 188.541 142.84 188.101 143.14ZM195.432 147V140H196.412V147H195.432ZM197.582 144.35L199.572 147H198.402L196.452 144.35L198.362 141.93H199.512L197.582 144.35ZM203.582 141.93H204.562V147H203.582V146.13C203.316 146.75 202.789 147.06 202.002 147.06C201.502 147.06 201.106 146.913 200.812 146.62C200.519 146.32 200.372 145.91 200.372 145.39V141.93H201.362V145.15C201.362 145.497 201.446 145.763 201.612 145.95C201.786 146.13 202.022 146.22 202.322 146.22C202.702 146.22 203.006 146.087 203.232 145.82C203.466 145.553 203.582 145.177 203.582 144.69V141.93ZM205.98 147V139.93H206.97V147H205.98ZM208.431 147V141.93H209.421V147H208.431ZM208.481 140.82C208.368 140.7 208.311 140.553 208.311 140.38C208.311 140.207 208.368 140.06 208.481 139.94C208.601 139.82 208.748 139.76 208.921 139.76C209.095 139.76 209.241 139.82 209.361 139.94C209.481 140.06 209.541 140.207 209.541 140.38C209.541 140.547 209.481 140.69 209.361 140.81C209.241 140.93 209.095 140.99 208.921 140.99C208.748 140.99 208.601 140.933 208.481 140.82ZM213.512 144.74H212.752C212.379 144.74 212.096 144.813 211.902 144.96C211.716 145.107 211.622 145.293 211.622 145.52C211.622 145.753 211.696 145.937 211.842 146.07C211.989 146.203 212.202 146.27 212.482 146.27C212.802 146.27 213.052 146.183 213.232 146.01C213.419 145.83 213.512 145.597 213.512 145.31V144.74ZM210.962 143.14V142.19C211.356 141.963 211.876 141.85 212.522 141.85C213.849 141.85 214.512 142.493 214.512 143.78V147H213.542V146.4C213.282 146.827 212.826 147.04 212.172 147.04C211.692 147.04 211.306 146.903 211.012 146.63C210.726 146.35 210.582 145.997 210.582 145.57C210.582 145.083 210.766 144.707 211.132 144.44C211.499 144.167 212.012 144.03 212.672 144.03H213.512V143.74C213.512 143.393 213.429 143.133 213.262 142.96C213.096 142.78 212.819 142.69 212.432 142.69C211.892 142.69 211.402 142.84 210.962 143.14ZM216.813 139.93V142.8C217.099 142.173 217.623 141.86 218.383 141.86C218.876 141.86 219.273 142.013 219.573 142.32C219.873 142.627 220.023 143.053 220.023 143.6V147H219.043V143.8C219.043 143.453 218.953 143.187 218.773 143C218.599 142.807 218.369 142.71 218.083 142.71C217.749 142.71 217.453 142.837 217.193 143.09C216.939 143.343 216.813 143.73 216.813 144.25V147H215.833V139.93H216.813ZM226.471 144.74H225.711C225.338 144.74 225.055 144.813 224.861 144.96C224.675 145.107 224.581 145.293 224.581 145.52C224.581 145.753 224.655 145.937 224.801 146.07C224.948 146.203 225.161 146.27 225.441 146.27C225.761 146.27 226.011 146.183 226.191 146.01C226.378 145.83 226.471 145.597 226.471 145.31V144.74ZM223.921 143.14V142.19C224.315 141.963 224.835 141.85 225.481 141.85C226.808 141.85 227.471 142.493 227.471 143.78V147H226.501V146.4C226.241 146.827 225.785 147.04 225.131 147.04C224.651 147.04 224.265 146.903 223.971 146.63C223.685 146.35 223.541 145.997 223.541 145.57C223.541 145.083 223.725 144.707 224.091 144.44C224.458 144.167 224.971 144.03 225.631 144.03H226.471V143.74C226.471 143.393 226.388 143.133 226.221 142.96C226.055 142.78 225.778 142.69 225.391 142.69C224.851 142.69 224.361 142.84 223.921 143.14ZM229.772 141.93V142.8C230.072 142.173 230.598 141.86 231.352 141.86C231.852 141.86 232.248 142.013 232.542 142.32C232.835 142.627 232.982 143.043 232.982 143.57V147H232.002V143.8C232.002 143.447 231.912 143.177 231.732 142.99C231.558 142.803 231.325 142.71 231.032 142.71C230.685 142.71 230.388 142.847 230.142 143.12C229.895 143.387 229.772 143.763 229.772 144.25V147H228.792V141.93H229.772ZM236.969 144.74H236.209C235.836 144.74 235.553 144.813 235.359 144.96C235.173 145.107 235.079 145.293 235.079 145.52C235.079 145.753 235.153 145.937 235.299 146.07C235.446 146.203 235.659 146.27 235.939 146.27C236.259 146.27 236.509 146.183 236.689 146.01C236.876 145.83 236.969 145.597 236.969 145.31V144.74ZM234.419 143.14V142.19C234.813 141.963 235.333 141.85 235.979 141.85C237.306 141.85 237.969 142.493 237.969 143.78V147H236.999V146.4C236.739 146.827 236.283 147.04 235.629 147.04C235.149 147.04 234.763 146.903 234.469 146.63C234.183 146.35 234.039 145.997 234.039 145.57C234.039 145.083 234.223 144.707 234.589 144.44C234.956 144.167 235.469 144.03 236.129 144.03H236.969V143.74C236.969 143.393 236.886 143.133 236.719 142.96C236.553 142.78 236.276 142.69 235.889 142.69C235.349 142.69 234.859 142.84 234.419 143.14ZM239.29 147V140H240.27V147H239.29ZM241.44 144.35L243.43 147H242.26L240.31 144.35L242.22 141.93H243.37L241.44 144.35ZM248.281 144.49H250.441L250.331 144.15C250.077 143.363 249.871 142.713 249.711 142.2C249.551 141.68 249.454 141.357 249.421 141.23L249.371 141.04C249.297 141.353 248.971 142.39 248.391 144.15L248.281 144.49ZM251.251 147L250.721 145.35H248.001L247.461 147H246.371L248.701 140.26H250.051L252.351 147H251.251ZM254.332 141.93V142.8C254.632 142.173 255.159 141.86 255.912 141.86C256.412 141.86 256.809 142.013 257.102 142.32C257.395 142.627 257.542 143.043 257.542 143.57V147H256.562V143.8C256.562 143.447 256.472 143.177 256.292 142.99C256.119 142.803 255.885 142.71 255.592 142.71C255.245 142.71 254.949 142.847 254.702 143.12C254.455 143.387 254.332 143.763 254.332 144.25V147H253.352V141.93H254.332ZM260.91 146.21C261.297 146.21 261.623 146.063 261.89 145.77C262.157 145.477 262.29 145.03 262.29 144.43C262.29 143.85 262.15 143.42 261.87 143.14C261.597 142.86 261.287 142.72 260.94 142.72C260.547 142.72 260.223 142.877 259.97 143.19C259.717 143.497 259.59 143.937 259.59 144.51C259.59 145.017 259.713 145.427 259.96 145.74C260.213 146.053 260.53 146.21 260.91 146.21ZM262.29 139.93H263.28V147H262.29V146.23C261.937 146.79 261.42 147.07 260.74 147.07C260.073 147.07 259.547 146.82 259.16 146.32C258.773 145.813 258.58 145.203 258.58 144.49C258.58 143.697 258.783 143.06 259.19 142.58C259.597 142.1 260.12 141.86 260.76 141.86C261.42 141.86 261.93 142.14 262.29 142.7V139.93ZM267.331 144.74H266.571C266.197 144.74 265.914 144.813 265.721 144.96C265.534 145.107 265.441 145.293 265.441 145.52C265.441 145.753 265.514 145.937 265.661 146.07C265.807 146.203 266.021 146.27 266.301 146.27C266.621 146.27 266.871 146.183 267.051 146.01C267.237 145.83 267.331 145.597 267.331 145.31V144.74ZM264.781 143.14V142.19C265.174 141.963 265.694 141.85 266.341 141.85C267.667 141.85 268.331 142.493 268.331 143.78V147H267.361V146.4C267.101 146.827 266.644 147.04 265.991 147.04C265.511 147.04 265.124 146.903 264.831 146.63C264.544 146.35 264.401 145.997 264.401 145.57C264.401 145.083 264.584 144.707 264.951 144.44C265.317 144.167 265.831 144.03 266.491 144.03H267.331V143.74C267.331 143.393 267.247 143.133 267.081 142.96C266.914 142.78 266.637 142.69 266.251 142.69C265.711 142.69 265.221 142.84 264.781 143.14ZM79.3767 162.21C79.7634 162.21 80.0901 162.063 80.3567 161.77C80.6234 161.477 80.7567 161.03 80.7567 160.43C80.7567 159.85 80.6167 159.42 80.3367 159.14C80.0634 158.86 79.7534 158.72 79.4067 158.72C79.0134 158.72 78.6901 158.877 78.4367 159.19C78.1834 159.497 78.0567 159.937 78.0567 160.51C78.0567 161.017 78.1801 161.427 78.4267 161.74C78.6801 162.053 78.9967 162.21 79.3767 162.21ZM80.7567 155.93H81.7467V163H80.7567V162.23C80.4034 162.79 79.8867 163.07 79.2067 163.07C78.5401 163.07 78.0134 162.82 77.6267 162.32C77.2401 161.813 77.0467 161.203 77.0467 160.49C77.0467 159.697 77.2501 159.06 77.6567 158.58C78.0634 158.1 78.5867 157.86 79.2267 157.86C79.8867 157.86 80.3967 158.14 80.7567 158.7V155.93ZM83.1675 163V157.93H84.1575V163H83.1675ZM83.2175 156.82C83.1042 156.7 83.0475 156.553 83.0475 156.38C83.0475 156.207 83.1042 156.06 83.2175 155.94C83.3375 155.82 83.4842 155.76 83.6575 155.76C83.8308 155.76 83.9775 155.82 84.0975 155.94C84.2175 156.06 84.2775 156.207 84.2775 156.38C84.2775 156.547 84.2175 156.69 84.0975 156.81C83.9775 156.93 83.8308 156.99 83.6575 156.99C83.4842 156.99 83.3375 156.933 83.2175 156.82ZM92.1296 160.44V156.26H93.1596V160.42C93.1596 161.293 92.9329 161.957 92.4796 162.41C92.0263 162.863 91.3996 163.09 90.5996 163.09C89.8129 163.09 89.1929 162.87 88.7396 162.43C88.2863 161.983 88.0596 161.34 88.0596 160.5V156.26H89.0896V160.49C89.0896 161.063 89.2263 161.483 89.4996 161.75C89.7796 162.01 90.1463 162.14 90.5996 162.14C91.6196 162.14 92.1296 161.573 92.1296 160.44ZM95.543 157.93V158.8C95.843 158.173 96.3697 157.86 97.123 157.86C97.623 157.86 98.0197 158.013 98.313 158.32C98.6064 158.627 98.753 159.043 98.753 159.57V163H97.773V159.8C97.773 159.447 97.683 159.177 97.503 158.99C97.3297 158.803 97.0964 158.71 96.803 158.71C96.4564 158.71 96.1597 158.847 95.913 159.12C95.6664 159.387 95.543 159.763 95.543 160.25V163H94.563V157.93H95.543ZM100.111 163V157.93H101.101V163H100.111ZM100.161 156.82C100.048 156.7 99.9909 156.553 99.9909 156.38C99.9909 156.207 100.048 156.06 100.161 155.94C100.281 155.82 100.428 155.76 100.601 155.76C100.774 155.76 100.921 155.82 101.041 155.94C101.161 156.06 101.221 156.207 101.221 156.38C101.221 156.547 101.161 156.69 101.041 156.81C100.921 156.93 100.774 156.99 100.601 156.99C100.428 156.99 100.281 156.933 100.161 156.82ZM103.822 163L102.022 157.93H103.052L103.742 160.07C103.902 160.563 104.035 160.99 104.142 161.35C104.255 161.71 104.325 161.947 104.352 162.06L104.392 162.23C104.452 161.903 104.672 161.183 105.052 160.07L105.762 157.93H106.782L104.942 163H103.822ZM110.809 160.1V159.92C110.795 159.54 110.692 159.24 110.499 159.02C110.305 158.793 110.029 158.68 109.669 158.68C109.335 158.68 109.049 158.803 108.809 159.05C108.569 159.29 108.419 159.64 108.359 160.1H110.809ZM111.439 161.85V162.73C111.065 162.943 110.572 163.05 109.959 163.05C109.172 163.05 108.545 162.813 108.079 162.34C107.612 161.867 107.379 161.247 107.379 160.48C107.379 159.667 107.592 159.03 108.019 158.57C108.445 158.103 108.989 157.87 109.649 157.87C110.295 157.87 110.809 158.073 111.189 158.48C111.569 158.88 111.759 159.46 111.759 160.22C111.759 160.427 111.739 160.643 111.699 160.87H108.369C108.435 161.31 108.622 161.647 108.929 161.88C109.235 162.113 109.622 162.23 110.089 162.23C110.629 162.23 111.079 162.103 111.439 161.85ZM113.893 157.93V158.82C114.139 158.193 114.583 157.88 115.223 157.88C115.316 157.88 115.419 157.89 115.533 157.91V158.87C115.393 158.81 115.236 158.78 115.063 158.78C114.723 158.78 114.443 158.93 114.223 159.23C114.003 159.53 113.893 159.887 113.893 160.3V163H112.913V157.93H113.893ZM119.191 158.1V158.99C118.865 158.797 118.445 158.7 117.931 158.7C117.698 158.7 117.511 158.753 117.371 158.86C117.238 158.967 117.171 159.107 117.171 159.28C117.171 159.327 117.175 159.373 117.181 159.42C117.195 159.46 117.215 159.503 117.241 159.55C117.268 159.59 117.291 159.627 117.311 159.66C117.338 159.687 117.378 159.717 117.431 159.75C117.485 159.783 117.525 159.813 117.551 159.84C117.585 159.86 117.635 159.887 117.701 159.92C117.775 159.953 117.828 159.98 117.861 160C117.895 160.013 117.951 160.04 118.031 160.08C118.118 160.113 118.178 160.137 118.211 160.15C118.605 160.323 118.911 160.52 119.131 160.74C119.358 160.953 119.471 161.24 119.471 161.6C119.471 162.053 119.311 162.41 118.991 162.67C118.671 162.923 118.238 163.05 117.691 163.05C117.091 163.05 116.591 162.95 116.191 162.75V161.82C116.658 162.107 117.141 162.25 117.641 162.25C117.901 162.25 118.101 162.197 118.241 162.09C118.388 161.983 118.461 161.843 118.461 161.67C118.461 161.523 118.405 161.393 118.291 161.28C118.178 161.16 118.061 161.073 117.941 161.02C117.828 160.96 117.631 160.87 117.351 160.75C116.558 160.423 116.161 159.943 116.161 159.31C116.161 158.863 116.328 158.513 116.661 158.26C116.995 158.007 117.411 157.88 117.911 157.88C118.458 157.88 118.885 157.953 119.191 158.1ZM120.531 163V157.93H121.521V163H120.531ZM120.581 156.82C120.467 156.7 120.411 156.553 120.411 156.38C120.411 156.207 120.467 156.06 120.581 155.94C120.701 155.82 120.847 155.76 121.021 155.76C121.194 155.76 121.341 155.82 121.461 155.94C121.581 156.06 121.641 156.207 121.641 156.38C121.641 156.547 121.581 156.69 121.461 156.81C121.341 156.93 121.194 156.99 121.021 156.99C120.847 156.99 120.701 156.933 120.581 156.82ZM124.212 158.69V161.48C124.212 161.967 124.445 162.21 124.912 162.21C125.185 162.21 125.415 162.137 125.602 161.99V162.87C125.382 162.99 125.112 163.05 124.792 163.05C123.745 163.05 123.222 162.52 123.222 161.46V158.69H122.432V157.93H123.222V156.69H124.212V157.93H125.542V158.69H124.212ZM129.352 160.74H128.592C128.219 160.74 127.936 160.813 127.742 160.96C127.556 161.107 127.462 161.293 127.462 161.52C127.462 161.753 127.536 161.937 127.682 162.07C127.829 162.203 128.042 162.27 128.322 162.27C128.642 162.27 128.892 162.183 129.072 162.01C129.259 161.83 129.352 161.597 129.352 161.31V160.74ZM126.802 159.14V158.19C127.196 157.963 127.716 157.85 128.362 157.85C129.689 157.85 130.352 158.493 130.352 159.78V163H129.382V162.4C129.122 162.827 128.666 163.04 128.012 163.04C127.532 163.04 127.146 162.903 126.852 162.63C126.566 162.35 126.422 161.997 126.422 161.57C126.422 161.083 126.606 160.707 126.972 160.44C127.339 160.167 127.852 160.03 128.512 160.03H129.352V159.74C129.352 159.393 129.269 159.133 129.102 158.96C128.936 158.78 128.659 158.69 128.272 158.69C127.732 158.69 127.242 158.84 126.802 159.14ZM134.562 158.1V158.99C134.236 158.797 133.816 158.7 133.302 158.7C133.069 158.7 132.882 158.753 132.742 158.86C132.609 158.967 132.542 159.107 132.542 159.28C132.542 159.327 132.546 159.373 132.552 159.42C132.566 159.46 132.586 159.503 132.612 159.55C132.639 159.59 132.662 159.627 132.682 159.66C132.709 159.687 132.749 159.717 132.802 159.75C132.856 159.783 132.896 159.813 132.922 159.84C132.956 159.86 133.006 159.887 133.072 159.92C133.146 159.953 133.199 159.98 133.232 160C133.266 160.013 133.322 160.04 133.402 160.08C133.489 160.113 133.549 160.137 133.582 160.15C133.976 160.323 134.282 160.52 134.502 160.74C134.729 160.953 134.842 161.24 134.842 161.6C134.842 162.053 134.682 162.41 134.362 162.67C134.042 162.923 133.609 163.05 133.062 163.05C132.462 163.05 131.962 162.95 131.562 162.75V161.82C132.029 162.107 132.512 162.25 133.012 162.25C133.272 162.25 133.472 162.197 133.612 162.09C133.759 161.983 133.832 161.843 133.832 161.67C133.832 161.523 133.776 161.393 133.662 161.28C133.549 161.16 133.432 161.073 133.312 161.02C133.199 160.96 133.002 160.87 132.722 160.75C131.929 160.423 131.532 159.943 131.532 159.31C131.532 158.863 131.699 158.513 132.032 158.26C132.366 158.007 132.782 157.88 133.282 157.88C133.829 157.88 134.256 157.953 134.562 158.1ZM138.363 163V156.26H139.583L141.243 159.08C141.549 159.607 141.826 160.093 142.073 160.54C142.326 160.987 142.499 161.3 142.593 161.48L142.733 161.76C142.693 161.153 142.673 160.263 142.673 159.09V156.26H143.703V163H142.483L140.813 160.19C140.513 159.683 140.236 159.207 139.983 158.76C139.736 158.307 139.563 157.98 139.463 157.78L139.313 157.49C139.366 158.157 139.393 159.053 139.393 160.18V163H138.363ZM148.27 160.1V159.92C148.256 159.54 148.153 159.24 147.96 159.02C147.766 158.793 147.49 158.68 147.13 158.68C146.796 158.68 146.51 158.803 146.27 159.05C146.03 159.29 145.88 159.64 145.82 160.1H148.27ZM148.9 161.85V162.73C148.526 162.943 148.033 163.05 147.42 163.05C146.633 163.05 146.006 162.813 145.54 162.34C145.073 161.867 144.84 161.247 144.84 160.48C144.84 159.667 145.053 159.03 145.48 158.57C145.906 158.103 146.45 157.87 147.11 157.87C147.756 157.87 148.27 158.073 148.65 158.48C149.03 158.88 149.22 159.46 149.22 160.22C149.22 160.427 149.2 160.643 149.16 160.87H145.83C145.896 161.31 146.083 161.647 146.39 161.88C146.696 162.113 147.083 162.23 147.55 162.23C148.09 162.23 148.54 162.103 148.9 161.85ZM152.374 162.02C152.72 162.02 153.02 161.887 153.274 161.62C153.534 161.347 153.664 160.967 153.664 160.48C153.664 159.88 153.54 159.437 153.294 159.15C153.054 158.863 152.76 158.72 152.414 158.72C152.02 158.72 151.71 158.877 151.484 159.19C151.257 159.497 151.144 159.903 151.144 160.41C151.144 160.937 151.264 161.337 151.504 161.61C151.75 161.883 152.04 162.02 152.374 162.02ZM153.664 157.93H154.644V162.57C154.644 163.35 154.42 163.937 153.974 164.33C153.534 164.73 152.967 164.93 152.274 164.93C151.62 164.93 151.07 164.82 150.624 164.6V163.61C151.05 163.89 151.567 164.03 152.174 164.03C153.167 164.03 153.664 163.54 153.664 162.56V162.04C153.337 162.587 152.847 162.86 152.194 162.86C151.62 162.86 151.13 162.65 150.724 162.23C150.317 161.803 150.114 161.203 150.114 160.43C150.114 159.683 150.304 159.07 150.684 158.59C151.064 158.103 151.567 157.86 152.194 157.86C152.867 157.86 153.357 158.147 153.664 158.72V157.93ZM159.11 160.1V159.92C159.096 159.54 158.993 159.24 158.8 159.02C158.606 158.793 158.33 158.68 157.97 158.68C157.636 158.68 157.35 158.803 157.11 159.05C156.87 159.29 156.72 159.64 156.66 160.1H159.11ZM159.74 161.85V162.73C159.366 162.943 158.873 163.05 158.26 163.05C157.473 163.05 156.846 162.813 156.38 162.34C155.913 161.867 155.68 161.247 155.68 160.48C155.68 159.667 155.893 159.03 156.32 158.57C156.746 158.103 157.29 157.87 157.95 157.87C158.596 157.87 159.11 158.073 159.49 158.48C159.87 158.88 160.06 159.46 160.06 160.22C160.06 160.427 160.04 160.643 160 160.87H156.67C156.736 161.31 156.923 161.647 157.23 161.88C157.536 162.113 157.923 162.23 158.39 162.23C158.93 162.23 159.38 162.103 159.74 161.85ZM162.193 157.93V158.82C162.44 158.193 162.883 157.88 163.523 157.88C163.617 157.88 163.72 157.89 163.833 157.91V158.87C163.693 158.81 163.537 158.78 163.363 158.78C163.023 158.78 162.743 158.93 162.523 159.23C162.303 159.53 162.193 159.887 162.193 160.3V163H161.213V157.93H162.193ZM164.642 163V157.93H165.632V163H164.642ZM164.692 156.82C164.579 156.7 164.522 156.553 164.522 156.38C164.522 156.207 164.579 156.06 164.692 155.94C164.812 155.82 164.959 155.76 165.132 155.76C165.305 155.76 165.452 155.82 165.572 155.94C165.692 156.06 165.752 156.207 165.752 156.38C165.752 156.547 165.692 156.69 165.572 156.81C165.452 156.93 165.305 156.99 165.132 156.99C164.959 156.99 164.812 156.933 164.692 156.82ZM172.404 158.1V158.99C172.078 158.797 171.658 158.7 171.144 158.7C170.911 158.7 170.724 158.753 170.584 158.86C170.451 158.967 170.384 159.107 170.384 159.28C170.384 159.327 170.388 159.373 170.394 159.42C170.408 159.46 170.428 159.503 170.454 159.55C170.481 159.59 170.504 159.627 170.524 159.66C170.551 159.687 170.591 159.717 170.644 159.75C170.698 159.783 170.738 159.813 170.764 159.84C170.798 159.86 170.848 159.887 170.914 159.92C170.988 159.953 171.041 159.98 171.074 160C171.108 160.013 171.164 160.04 171.244 160.08C171.331 160.113 171.391 160.137 171.424 160.15C171.818 160.323 172.124 160.52 172.344 160.74C172.571 160.953 172.684 161.24 172.684 161.6C172.684 162.053 172.524 162.41 172.204 162.67C171.884 162.923 171.451 163.05 170.904 163.05C170.304 163.05 169.804 162.95 169.404 162.75V161.82C169.871 162.107 170.354 162.25 170.854 162.25C171.114 162.25 171.314 162.197 171.454 162.09C171.601 161.983 171.674 161.843 171.674 161.67C171.674 161.523 171.618 161.393 171.504 161.28C171.391 161.16 171.274 161.073 171.154 161.02C171.041 160.96 170.844 160.87 170.564 160.75C169.771 160.423 169.374 159.943 169.374 159.31C169.374 158.863 169.541 158.513 169.874 158.26C170.208 158.007 170.624 157.88 171.124 157.88C171.671 157.88 172.098 157.953 172.404 158.1ZM176.854 160.1V159.92C176.84 159.54 176.737 159.24 176.544 159.02C176.35 158.793 176.074 158.68 175.714 158.68C175.38 158.68 175.094 158.803 174.854 159.05C174.614 159.29 174.464 159.64 174.404 160.1H176.854ZM177.484 161.85V162.73C177.11 162.943 176.617 163.05 176.004 163.05C175.217 163.05 174.59 162.813 174.124 162.34C173.657 161.867 173.424 161.247 173.424 160.48C173.424 159.667 173.637 159.03 174.064 158.57C174.49 158.103 175.034 157.87 175.694 157.87C176.34 157.87 176.854 158.073 177.234 158.48C177.614 158.88 177.804 159.46 177.804 160.22C177.804 160.427 177.784 160.643 177.744 160.87H174.414C174.48 161.31 174.667 161.647 174.974 161.88C175.28 162.113 175.667 162.23 176.134 162.23C176.674 162.23 177.124 162.103 177.484 161.85ZM181.348 162.21C181.721 162.21 182.034 162.053 182.288 161.74C182.541 161.42 182.668 161.01 182.668 160.51C182.668 159.937 182.541 159.497 182.288 159.19C182.034 158.877 181.711 158.72 181.318 158.72C180.971 158.72 180.658 158.86 180.378 159.14C180.104 159.42 179.968 159.85 179.968 160.43C179.968 161.03 180.101 161.477 180.368 161.77C180.634 162.063 180.961 162.21 181.348 162.21ZM179.968 155.93V158.7C180.328 158.14 180.838 157.86 181.498 157.86C182.138 157.86 182.661 158.1 183.068 158.58C183.474 159.06 183.678 159.697 183.678 160.49C183.678 161.203 183.484 161.813 183.098 162.32C182.711 162.82 182.181 163.07 181.508 163.07C180.834 163.07 180.321 162.79 179.968 162.23V163H178.978V155.93H179.968ZM187.928 160.1V159.92C187.915 159.54 187.811 159.24 187.618 159.02C187.425 158.793 187.148 158.68 186.788 158.68C186.455 158.68 186.168 158.803 185.928 159.05C185.688 159.29 185.538 159.64 185.478 160.1H187.928ZM188.558 161.85V162.73C188.185 162.943 187.691 163.05 187.078 163.05C186.291 163.05 185.665 162.813 185.198 162.34C184.731 161.867 184.498 161.247 184.498 160.48C184.498 159.667 184.711 159.03 185.138 158.57C185.565 158.103 186.108 157.87 186.768 157.87C187.415 157.87 187.928 158.073 188.308 158.48C188.688 158.88 188.878 159.46 188.878 160.22C188.878 160.427 188.858 160.643 188.818 160.87H185.488C185.555 161.31 185.741 161.647 186.048 161.88C186.355 162.113 186.741 162.23 187.208 162.23C187.748 162.23 188.198 162.103 188.558 161.85ZM192.922 158.1V158.99C192.595 158.797 192.175 158.7 191.662 158.7C191.428 158.7 191.242 158.753 191.102 158.86C190.968 158.967 190.902 159.107 190.902 159.28C190.902 159.327 190.905 159.373 190.912 159.42C190.925 159.46 190.945 159.503 190.972 159.55C190.998 159.59 191.022 159.627 191.042 159.66C191.068 159.687 191.108 159.717 191.162 159.75C191.215 159.783 191.255 159.813 191.282 159.84C191.315 159.86 191.365 159.887 191.432 159.92C191.505 159.953 191.558 159.98 191.592 160C191.625 160.013 191.682 160.04 191.762 160.08C191.848 160.113 191.908 160.137 191.942 160.15C192.335 160.323 192.642 160.52 192.862 160.74C193.088 160.953 193.202 161.24 193.202 161.6C193.202 162.053 193.042 162.41 192.722 162.67C192.402 162.923 191.968 163.05 191.422 163.05C190.822 163.05 190.322 162.95 189.922 162.75V161.82C190.388 162.107 190.872 162.25 191.372 162.25C191.632 162.25 191.832 162.197 191.972 162.09C192.118 161.983 192.192 161.843 192.192 161.67C192.192 161.523 192.135 161.393 192.022 161.28C191.908 161.16 191.792 161.073 191.672 161.02C191.558 160.96 191.362 160.87 191.082 160.75C190.288 160.423 189.892 159.943 189.892 159.31C189.892 158.863 190.058 158.513 190.392 158.26C190.725 158.007 191.142 157.88 191.642 157.88C192.188 157.88 192.615 157.953 192.922 158.1ZM196.891 160.74H196.131C195.758 160.74 195.475 160.813 195.281 160.96C195.095 161.107 195.001 161.293 195.001 161.52C195.001 161.753 195.075 161.937 195.221 162.07C195.368 162.203 195.581 162.27 195.861 162.27C196.181 162.27 196.431 162.183 196.611 162.01C196.798 161.83 196.891 161.597 196.891 161.31V160.74ZM194.341 159.14V158.19C194.735 157.963 195.255 157.85 195.901 157.85C197.228 157.85 197.891 158.493 197.891 159.78V163H196.921V162.4C196.661 162.827 196.205 163.04 195.551 163.04C195.071 163.04 194.685 162.903 194.391 162.63C194.105 162.35 193.961 161.997 193.961 161.57C193.961 161.083 194.145 160.707 194.511 160.44C194.878 160.167 195.391 160.03 196.051 160.03H196.891V159.74C196.891 159.393 196.808 159.133 196.641 158.96C196.475 158.78 196.198 158.69 195.811 158.69C195.271 158.69 194.781 158.84 194.341 159.14ZM200.191 157.93V158.82C200.438 158.193 200.881 157.88 201.521 157.88C201.615 157.88 201.718 157.89 201.831 157.91V158.87C201.691 158.81 201.535 158.78 201.361 158.78C201.021 158.78 200.741 158.93 200.521 159.23C200.301 159.53 200.191 159.887 200.191 160.3V163H199.211V157.93H200.191Z" fill="#2B2B2B"/>
<path d="M206.131 157.12V159.58H207.061C207.488 159.58 207.811 159.47 208.031 159.25C208.251 159.023 208.361 158.723 208.361 158.35C208.361 157.53 207.911 157.12 207.011 157.12H206.131ZM208.601 163L207.021 160.44H206.131V163H205.101V156.26H206.981C207.754 156.26 208.351 156.45 208.771 156.83C209.191 157.203 209.401 157.713 209.401 158.36C209.394 158.833 209.274 159.237 209.041 159.57C208.808 159.897 208.484 160.133 208.071 160.28L209.831 163H208.601ZM213.085 162.21C213.478 162.21 213.801 162.057 214.055 161.75C214.308 161.437 214.435 161 214.435 160.44C214.435 159.913 214.311 159.497 214.065 159.19C213.818 158.877 213.505 158.72 213.125 158.72C212.745 158.72 212.415 158.86 212.135 159.14C211.861 159.413 211.725 159.85 211.725 160.45C211.725 161.037 211.861 161.477 212.135 161.77C212.415 162.063 212.731 162.21 213.085 162.21ZM211.725 157.93V158.71C212.071 158.143 212.591 157.86 213.285 157.86C213.951 157.86 214.478 158.103 214.865 158.59C215.251 159.07 215.445 159.683 215.445 160.43C215.445 161.197 215.245 161.83 214.845 162.33C214.451 162.823 213.925 163.07 213.265 163.07C212.591 163.07 212.078 162.79 211.725 162.23V164.94H210.745V157.93H211.725ZM218.726 159.71C218.726 158.683 218.93 157.87 219.336 157.27C219.75 156.663 220.313 156.36 221.026 156.36C221.753 156.36 222.323 156.66 222.736 157.26C223.15 157.86 223.356 158.677 223.356 159.71C223.356 160.73 223.153 161.547 222.746 162.16C222.346 162.773 221.773 163.08 221.026 163.08C220.313 163.08 219.75 162.773 219.336 162.16C218.93 161.547 218.726 160.73 218.726 159.71ZM220.096 157.91C219.85 158.33 219.726 158.93 219.726 159.71C219.726 160.49 219.846 161.097 220.086 161.53C220.333 161.957 220.646 162.17 221.026 162.17C221.44 162.17 221.763 161.957 221.996 161.53C222.23 161.103 222.346 160.497 222.346 159.71C222.346 158.917 222.223 158.313 221.976 157.9C221.736 157.48 221.42 157.27 221.026 157.27C220.653 157.27 220.343 157.483 220.096 157.91ZM223.686 164.24L224.646 161.9H225.856L224.546 164.24H223.686ZM226.627 159.71C226.627 158.683 226.83 157.87 227.237 157.27C227.65 156.663 228.213 156.36 228.927 156.36C229.653 156.36 230.223 156.66 230.637 157.26C231.05 157.86 231.257 158.677 231.257 159.71C231.257 160.73 231.053 161.547 230.647 162.16C230.247 162.773 229.673 163.08 228.927 163.08C228.213 163.08 227.65 162.773 227.237 162.16C226.83 161.547 226.627 160.73 226.627 159.71ZM227.997 157.91C227.75 158.33 227.627 158.93 227.627 159.71C227.627 160.49 227.747 161.097 227.987 161.53C228.233 161.957 228.547 162.17 228.927 162.17C229.34 162.17 229.663 161.957 229.897 161.53C230.13 161.103 230.247 160.497 230.247 159.71C230.247 158.917 230.123 158.313 229.877 157.9C229.637 157.48 229.32 157.27 228.927 157.27C228.553 157.27 228.243 157.483 227.997 157.91ZM232.076 159.71C232.076 158.683 232.279 157.87 232.686 157.27C233.099 156.663 233.663 156.36 234.376 156.36C235.103 156.36 235.673 156.66 236.086 157.26C236.499 157.86 236.706 158.677 236.706 159.71C236.706 160.73 236.503 161.547 236.096 162.16C235.696 162.773 235.123 163.08 234.376 163.08C233.663 163.08 233.099 162.773 232.686 162.16C232.279 161.547 232.076 160.73 232.076 159.71ZM233.446 157.91C233.199 158.33 233.076 158.93 233.076 159.71C233.076 160.49 233.196 161.097 233.436 161.53C233.683 161.957 233.996 162.17 234.376 162.17C234.789 162.17 235.113 161.957 235.346 161.53C235.579 161.103 235.696 160.497 235.696 159.71C235.696 158.917 235.573 158.313 235.326 157.9C235.086 157.48 234.769 157.27 234.376 157.27C234.003 157.27 233.693 157.483 233.446 157.91ZM237.525 159.71C237.525 158.683 237.729 157.87 238.135 157.27C238.549 156.663 239.112 156.36 239.825 156.36C240.552 156.36 241.122 156.66 241.535 157.26C241.949 157.86 242.155 158.677 242.155 159.71C242.155 160.73 241.952 161.547 241.545 162.16C241.145 162.773 240.572 163.08 239.825 163.08C239.112 163.08 238.549 162.773 238.135 162.16C237.729 161.547 237.525 160.73 237.525 159.71ZM238.895 157.91C238.649 158.33 238.525 158.93 238.525 159.71C238.525 160.49 238.645 161.097 238.885 161.53C239.132 161.957 239.445 162.17 239.825 162.17C240.239 162.17 240.562 161.957 240.795 161.53C241.029 161.103 241.145 160.497 241.145 159.71C241.145 158.917 241.022 158.313 240.775 157.9C240.535 157.48 240.219 157.27 239.825 157.27C239.452 157.27 239.142 157.483 238.895 157.91ZM242.484 164.24L243.444 161.9H244.654L243.344 164.24H242.484ZM245.426 159.71C245.426 158.683 245.629 157.87 246.036 157.27C246.449 156.663 247.012 156.36 247.726 156.36C248.452 156.36 249.022 156.66 249.436 157.26C249.849 157.86 250.056 158.677 250.056 159.71C250.056 160.73 249.852 161.547 249.446 162.16C249.046 162.773 248.472 163.08 247.726 163.08C247.012 163.08 246.449 162.773 246.036 162.16C245.629 161.547 245.426 160.73 245.426 159.71ZM246.796 157.91C246.549 158.33 246.426 158.93 246.426 159.71C246.426 160.49 246.546 161.097 246.786 161.53C247.032 161.957 247.346 162.17 247.726 162.17C248.139 162.17 248.462 161.957 248.696 161.53C248.929 161.103 249.046 160.497 249.046 159.71C249.046 158.917 248.922 158.313 248.676 157.9C248.436 157.48 248.119 157.27 247.726 157.27C247.352 157.27 247.042 157.483 246.796 157.91ZM250.875 159.71C250.875 158.683 251.078 157.87 251.485 157.27C251.898 156.663 252.462 156.36 253.175 156.36C253.902 156.36 254.472 156.66 254.885 157.26C255.298 157.86 255.505 158.677 255.505 159.71C255.505 160.73 255.302 161.547 254.895 162.16C254.495 162.773 253.922 163.08 253.175 163.08C252.462 163.08 251.898 162.773 251.485 162.16C251.078 161.547 250.875 160.73 250.875 159.71ZM252.245 157.91C251.998 158.33 251.875 158.93 251.875 159.71C251.875 160.49 251.995 161.097 252.235 161.53C252.482 161.957 252.795 162.17 253.175 162.17C253.588 162.17 253.912 161.957 254.145 161.53C254.378 161.103 254.495 160.497 254.495 159.71C254.495 158.917 254.372 158.313 254.125 157.9C253.885 157.48 253.568 157.27 253.175 157.27C252.802 157.27 252.492 157.483 252.245 157.91ZM256.324 159.71C256.324 158.683 256.527 157.87 256.934 157.27C257.347 156.663 257.911 156.36 258.624 156.36C259.351 156.36 259.921 156.66 260.334 157.26C260.747 157.86 260.954 158.677 260.954 159.71C260.954 160.73 260.751 161.547 260.344 162.16C259.944 162.773 259.371 163.08 258.624 163.08C257.911 163.08 257.347 162.773 256.934 162.16C256.527 161.547 256.324 160.73 256.324 159.71ZM257.694 157.91C257.447 158.33 257.324 158.93 257.324 159.71C257.324 160.49 257.444 161.097 257.684 161.53C257.931 161.957 258.244 162.17 258.624 162.17C259.037 162.17 259.361 161.957 259.594 161.53C259.827 161.103 259.944 160.497 259.944 159.71C259.944 158.917 259.821 158.313 259.574 157.9C259.334 157.48 259.017 157.27 258.624 157.27C258.251 157.27 257.941 157.483 257.694 157.91Z" fill="#FF1934"/>
<path opacity="0.64" d="M60.904 217.635V214.275H61.552V217.619C61.552 218.312 61.376 218.837 61.024 219.195C60.6773 219.552 60.192 219.731 59.568 219.731C58.9547 219.731 58.4747 219.557 58.128 219.211C57.7813 218.859 57.608 218.349 57.608 217.683V214.275H58.256V217.675C58.256 218.171 58.3733 218.536 58.608 218.771C58.848 219.005 59.168 219.123 59.568 219.123C60.4587 219.123 60.904 218.627 60.904 217.635ZM64.9243 217.795H64.2203C63.8789 217.795 63.6229 217.861 63.4523 217.995C63.2816 218.128 63.1963 218.296 63.1963 218.499C63.1963 218.701 63.2629 218.867 63.3963 218.995C63.5296 219.117 63.7243 219.179 63.9803 219.179C64.2683 219.179 64.4976 219.099 64.6683 218.939C64.8389 218.773 64.9243 218.565 64.9243 218.315V217.795ZM62.8283 216.459V215.827C63.1323 215.64 63.5323 215.547 64.0283 215.547C65.0469 215.547 65.5563 216.064 65.5563 217.099V219.667H64.9323V219.187C64.7243 219.533 64.3456 219.707 63.7963 219.707C63.4176 219.707 63.1109 219.595 62.8763 219.371C62.6469 219.147 62.5323 218.864 62.5323 218.523C62.5323 218.133 62.6789 217.832 62.9723 217.619C63.2709 217.4 63.6763 217.291 64.1883 217.291H64.9243V217.083C64.9243 216.763 64.8523 216.523 64.7083 216.363C64.5643 216.197 64.3216 216.115 63.9803 216.115C63.5483 216.115 63.1643 216.229 62.8283 216.459ZM67.3018 215.611V216.315C67.5418 215.808 67.9684 215.555 68.5818 215.555C68.9764 215.555 69.2911 215.675 69.5258 215.915C69.7604 216.155 69.8778 216.475 69.8778 216.875V219.667H69.2458V217.043C69.2458 216.744 69.1684 216.517 69.0138 216.363C68.8644 216.203 68.6671 216.123 68.4218 216.123C68.1178 216.123 67.8538 216.24 67.6298 216.475C67.4111 216.709 67.3018 217.035 67.3018 217.451V219.667H66.6778V215.611H67.3018ZM72.5181 219.003C72.8114 219.003 73.0701 218.891 73.2941 218.667C73.5234 218.437 73.6381 218.099 73.6381 217.651C73.6381 217.133 73.5287 216.749 73.3101 216.499C73.0914 216.248 72.8381 216.123 72.5501 216.123C72.2034 216.123 71.9287 216.261 71.7261 216.539C71.5234 216.811 71.4221 217.168 71.4221 217.611C71.4221 218.064 71.5341 218.411 71.7581 218.651C71.9821 218.885 72.2354 219.003 72.5181 219.003ZM73.6381 215.611H74.2701V219.339C74.2701 219.957 74.0994 220.421 73.7581 220.731C73.4167 221.045 72.9767 221.203 72.4381 221.203C71.9474 221.203 71.5287 221.12 71.1821 220.955V220.323C71.5234 220.52 71.9234 220.619 72.3821 220.619C72.7714 220.619 73.0781 220.515 73.3021 220.307C73.5261 220.099 73.6381 219.773 73.6381 219.331V218.875C73.3714 219.333 72.9741 219.563 72.4461 219.563C71.9821 219.563 71.5847 219.392 71.2541 219.051C70.9287 218.709 70.7661 218.235 70.7661 217.627C70.7661 217.024 70.9181 216.528 71.2221 216.139C71.5261 215.749 71.9234 215.555 72.4141 215.555C72.9687 215.555 73.3767 215.797 73.6381 216.283V215.611ZM80.4618 214.275V214.843H79.0058V219.667H78.3578V214.843H76.9018V214.275H80.4618ZM83.7212 215.611H84.3532V219.667H83.7212V218.963C83.5079 219.464 83.0839 219.715 82.4492 219.715C82.0492 219.715 81.7319 219.597 81.4972 219.363C81.2679 219.123 81.1532 218.803 81.1532 218.403V215.611H81.7852V218.243C81.7852 218.536 81.8599 218.76 82.0092 218.915C82.1585 219.069 82.3612 219.147 82.6172 219.147C82.9532 219.147 83.2199 219.029 83.4172 218.795C83.6199 218.56 83.7212 218.243 83.7212 217.843V215.611ZM86.1455 215.611V216.315C86.3855 215.808 86.8122 215.555 87.4255 215.555C87.8202 215.555 88.1348 215.675 88.3695 215.915C88.6042 216.155 88.7215 216.475 88.7215 216.875V219.667H88.0895V217.043C88.0895 216.744 88.0122 216.517 87.8575 216.363C87.7082 216.203 87.5108 216.123 87.2655 216.123C86.9615 216.123 86.6975 216.24 86.4735 216.475C86.2548 216.709 86.1455 217.035 86.1455 217.451V219.667H85.5215V215.611H86.1455ZM92.0258 217.795H91.3218C90.9805 217.795 90.7245 217.861 90.5538 217.995C90.3831 218.128 90.2978 218.296 90.2978 218.499C90.2978 218.701 90.3645 218.867 90.4978 218.995C90.6311 219.117 90.8258 219.179 91.0818 219.179C91.3698 219.179 91.5991 219.099 91.7698 218.939C91.9405 218.773 92.0258 218.565 92.0258 218.315V217.795ZM89.9298 216.459V215.827C90.2338 215.64 90.6338 215.547 91.1298 215.547C92.1485 215.547 92.6578 216.064 92.6578 217.099V219.667H92.0338V219.187C91.8258 219.533 91.4471 219.707 90.8978 219.707C90.5191 219.707 90.2125 219.595 89.9778 219.371C89.7485 219.147 89.6338 218.864 89.6338 218.523C89.6338 218.133 89.7805 217.832 90.0738 217.619C90.3725 217.4 90.7778 217.291 91.2898 217.291H92.0258V217.083C92.0258 216.763 91.9538 216.523 91.8098 216.363C91.6658 216.197 91.4231 216.115 91.0818 216.115C90.6498 216.115 90.2658 216.229 89.9298 216.459ZM93.8113 219.667V215.611H94.4433V219.667H93.8113ZM93.8273 214.635C93.7526 214.555 93.7153 214.456 93.7153 214.339C93.7153 214.221 93.7526 214.123 93.8273 214.043C93.9073 213.963 94.006 213.923 94.1233 213.923C94.2406 213.923 94.3393 213.963 94.4193 214.043C94.4993 214.123 94.5393 214.221 94.5393 214.339C94.5393 214.456 94.4993 214.555 94.4193 214.635C94.3393 214.709 94.2406 214.747 94.1233 214.747C94.006 214.747 93.9073 214.709 93.8273 214.635Z" fill="#2B2B2B"/>
<path d="M237.334 214.835V216.987H238.15C238.518 216.987 238.798 216.888 238.99 216.691C239.188 216.488 239.286 216.229 239.286 215.915C239.286 215.195 238.884 214.835 238.078 214.835H237.334ZM240.27 219.667H239.494L238.174 217.539H238.11H237.334V219.667H236.686V214.275H238.038C238.662 214.275 239.134 214.421 239.454 214.715C239.78 215.008 239.942 215.413 239.942 215.931C239.932 216.304 239.833 216.621 239.646 216.883C239.46 217.144 239.196 217.328 238.854 217.435L240.27 219.667ZM242.821 219.155C243.162 219.155 243.442 219.021 243.661 218.755C243.88 218.483 243.989 218.099 243.989 217.603C243.989 217.16 243.882 216.803 243.669 216.531C243.456 216.259 243.186 216.123 242.861 216.123C242.536 216.123 242.253 216.243 242.013 216.483C241.778 216.717 241.661 217.104 241.661 217.643C241.661 218.16 241.781 218.541 242.021 218.787C242.261 219.032 242.528 219.155 242.821 219.155ZM241.661 215.611V216.227C241.944 215.773 242.362 215.547 242.917 215.547C243.456 215.547 243.877 215.744 244.181 216.139C244.49 216.528 244.645 217.016 244.645 217.603C244.645 218.227 244.482 218.739 244.157 219.139C243.837 219.533 243.418 219.731 242.901 219.731C242.368 219.731 241.954 219.504 241.661 219.051V221.243H241.037V215.611H241.661ZM247.289 217.035C247.289 216.213 247.455 215.565 247.785 215.091C248.121 214.611 248.561 214.371 249.105 214.371C249.671 214.371 250.119 214.611 250.449 215.091C250.785 215.565 250.953 216.213 250.953 217.035C250.953 217.851 250.793 218.504 250.473 218.995C250.153 219.485 249.697 219.731 249.105 219.731C248.556 219.731 248.116 219.485 247.785 218.995C247.455 218.504 247.289 217.851 247.289 217.035ZM248.281 215.515C248.052 215.872 247.937 216.379 247.937 217.035C247.937 217.691 248.049 218.205 248.273 218.579C248.497 218.947 248.775 219.131 249.105 219.131C249.473 219.131 249.764 218.949 249.977 218.587C250.196 218.224 250.305 217.707 250.305 217.035C250.305 216.368 250.191 215.859 249.961 215.507C249.737 215.149 249.452 214.971 249.105 214.971C248.785 214.971 248.511 215.152 248.281 215.515ZM251.233 220.651L251.977 218.859H252.817L251.785 220.651H251.233ZM253.438 217.035C253.438 216.213 253.603 215.565 253.934 215.091C254.27 214.611 254.71 214.371 255.254 214.371C255.819 214.371 256.267 214.611 256.598 215.091C256.934 215.565 257.102 216.213 257.102 217.035C257.102 217.851 256.942 218.504 256.622 218.995C256.302 219.485 255.846 219.731 255.254 219.731C254.704 219.731 254.264 219.485 253.934 218.995C253.603 218.504 253.438 217.851 253.438 217.035ZM254.43 215.515C254.2 215.872 254.086 216.379 254.086 217.035C254.086 217.691 254.198 218.205 254.422 218.579C254.646 218.947 254.923 219.131 255.254 219.131C255.622 219.131 255.912 218.949 256.126 218.587C256.344 218.224 256.454 217.707 256.454 217.035C256.454 216.368 256.339 215.859 256.11 215.507C255.886 215.149 255.6 214.971 255.254 214.971C254.934 214.971 254.659 215.152 254.43 215.515ZM257.789 217.035C257.789 216.213 257.955 215.565 258.285 215.091C258.621 214.611 259.061 214.371 259.605 214.371C260.171 214.371 260.619 214.611 260.949 215.091C261.285 215.565 261.453 216.213 261.453 217.035C261.453 217.851 261.293 218.504 260.973 218.995C260.653 219.485 260.197 219.731 259.605 219.731C259.056 219.731 258.616 219.485 258.285 218.995C257.955 218.504 257.789 217.851 257.789 217.035ZM258.781 215.515C258.552 215.872 258.437 216.379 258.437 217.035C258.437 217.691 258.549 218.205 258.773 218.579C258.997 218.947 259.275 219.131 259.605 219.131C259.973 219.131 260.264 218.949 260.477 218.587C260.696 218.224 260.805 217.707 260.805 217.035C260.805 216.368 260.691 215.859 260.461 215.507C260.237 215.149 259.952 214.971 259.605 214.971C259.285 214.971 259.011 215.152 258.781 215.515ZM262.141 217.035C262.141 216.213 262.306 215.565 262.637 215.091C262.973 214.611 263.413 214.371 263.957 214.371C264.522 214.371 264.97 214.611 265.301 215.091C265.637 215.565 265.805 216.213 265.805 217.035C265.805 217.851 265.645 218.504 265.325 218.995C265.005 219.485 264.549 219.731 263.957 219.731C263.408 219.731 262.968 219.485 262.637 218.995C262.306 218.504 262.141 217.851 262.141 217.035ZM263.133 215.515C262.904 215.872 262.789 216.379 262.789 217.035C262.789 217.691 262.901 218.205 263.125 218.579C263.349 218.947 263.626 219.131 263.957 219.131C264.325 219.131 264.616 218.949 264.829 218.587C265.048 218.224 265.157 217.707 265.157 217.035C265.157 216.368 265.042 215.859 264.813 215.507C264.589 215.149 264.304 214.971 263.957 214.971C263.637 214.971 263.362 215.152 263.133 215.515ZM266.084 220.651L266.828 218.859H267.668L266.636 220.651H266.084ZM268.289 217.035C268.289 216.213 268.455 215.565 268.785 215.091C269.121 214.611 269.561 214.371 270.105 214.371C270.671 214.371 271.119 214.611 271.449 215.091C271.785 215.565 271.953 216.213 271.953 217.035C271.953 217.851 271.793 218.504 271.473 218.995C271.153 219.485 270.697 219.731 270.105 219.731C269.556 219.731 269.116 219.485 268.785 218.995C268.455 218.504 268.289 217.851 268.289 217.035ZM269.281 215.515C269.052 215.872 268.937 216.379 268.937 217.035C268.937 217.691 269.049 218.205 269.273 218.579C269.497 218.947 269.775 219.131 270.105 219.131C270.473 219.131 270.764 218.949 270.977 218.587C271.196 218.224 271.305 217.707 271.305 217.035C271.305 216.368 271.191 215.859 270.961 215.507C270.737 215.149 270.452 214.971 270.105 214.971C269.785 214.971 269.511 215.152 269.281 215.515ZM272.641 217.035C272.641 216.213 272.806 215.565 273.137 215.091C273.473 214.611 273.913 214.371 274.457 214.371C275.022 214.371 275.47 214.611 275.801 215.091C276.137 215.565 276.305 216.213 276.305 217.035C276.305 217.851 276.145 218.504 275.825 218.995C275.505 219.485 275.049 219.731 274.457 219.731C273.908 219.731 273.468 219.485 273.137 218.995C272.806 218.504 272.641 217.851 272.641 217.035ZM273.633 215.515C273.404 215.872 273.289 216.379 273.289 217.035C273.289 217.691 273.401 218.205 273.625 218.579C273.849 218.947 274.126 219.131 274.457 219.131C274.825 219.131 275.116 218.949 275.329 218.587C275.548 218.224 275.657 217.707 275.657 217.035C275.657 216.368 275.542 215.859 275.313 215.507C275.089 215.149 274.804 214.971 274.457 214.971C274.137 214.971 273.862 215.152 273.633 215.515ZM276.992 217.035C276.992 216.213 277.158 215.565 277.488 215.091C277.824 214.611 278.264 214.371 278.808 214.371C279.374 214.371 279.822 214.611 280.152 215.091C280.488 215.565 280.656 216.213 280.656 217.035C280.656 217.851 280.496 218.504 280.176 218.995C279.856 219.485 279.4 219.731 278.808 219.731C278.259 219.731 277.819 219.485 277.488 218.995C277.158 218.504 276.992 217.851 276.992 217.035ZM277.984 215.515C277.755 215.872 277.64 216.379 277.64 217.035C277.64 217.691 277.752 218.205 277.976 218.579C278.2 218.947 278.478 219.131 278.808 219.131C279.176 219.131 279.467 218.949 279.68 218.587C279.899 218.224 280.008 217.707 280.008 217.035C280.008 216.368 279.894 215.859 279.664 215.507C279.44 215.149 279.155 214.971 278.808 214.971C278.488 214.971 278.214 215.152 277.984 215.515Z" fill="#2B2B2B"/>
<mask id="path-25-inside-1_1124_4113" fill="white">
<path d="M57 228.667H281V250.667H57V228.667Z"/>
</mask>
<path d="M281 249.667H57V251.667H281V249.667Z" fill="#CCCCCC" mask="url(#path-25-inside-1_1124_4113)"/>
<path opacity="0.64" d="M60.704 236.275V236.843H59.248V241.667H58.6V236.843H57.144V236.275H60.704ZM63.6274 239.795H62.9234C62.582 239.795 62.326 239.861 62.1554 239.995C61.9847 240.128 61.8994 240.296 61.8994 240.499C61.8994 240.701 61.966 240.867 62.0994 240.995C62.2327 241.117 62.4274 241.179 62.6834 241.179C62.9714 241.179 63.2007 241.099 63.3714 240.939C63.542 240.773 63.6274 240.565 63.6274 240.315V239.795ZM61.5314 238.459V237.827C61.8354 237.64 62.2354 237.547 62.7314 237.547C63.75 237.547 64.2594 238.064 64.2594 239.099V241.667H63.6354V241.187C63.4274 241.533 63.0487 241.707 62.4994 241.707C62.1207 241.707 61.814 241.595 61.5794 241.371C61.35 241.147 61.2354 240.864 61.2354 240.523C61.2354 240.133 61.382 239.832 61.6754 239.619C61.974 239.4 62.3794 239.291 62.8914 239.291H63.6274V239.083C63.6274 238.763 63.5554 238.523 63.4114 238.363C63.2674 238.197 63.0247 238.115 62.6834 238.115C62.2514 238.115 61.8674 238.229 61.5314 238.459ZM67.2289 241.155C67.5542 241.155 67.8235 241.019 68.0369 240.747C68.2502 240.475 68.3569 240.12 68.3569 239.683C68.3569 239.181 68.2449 238.797 68.0209 238.531C67.8022 238.259 67.5249 238.123 67.1889 238.123C66.9009 238.123 66.6369 238.243 66.3969 238.483C66.1569 238.723 66.0369 239.099 66.0369 239.611C66.0369 240.149 66.1515 240.541 66.3809 240.787C66.6155 241.032 66.8982 241.155 67.2289 241.155ZM66.0369 236.011V238.219C66.3302 237.771 66.7409 237.547 67.2689 237.547C67.7809 237.547 68.1995 237.744 68.5249 238.139C68.8502 238.528 69.0129 239.04 69.0129 239.675C69.0129 240.245 68.8582 240.731 68.5489 241.131C68.2449 241.531 67.8235 241.731 67.2849 241.731C66.7409 241.731 66.3249 241.509 66.0369 241.067V241.667H65.4049V236.011H66.0369ZM72.4634 237.611H73.0954V241.667H72.4634V240.963C72.25 241.464 71.826 241.715 71.1914 241.715C70.7914 241.715 70.474 241.597 70.2394 241.363C70.01 241.123 69.8954 240.803 69.8954 240.403V237.611H70.5274V240.243C70.5274 240.536 70.602 240.76 70.7514 240.915C70.9007 241.069 71.1034 241.147 71.3594 241.147C71.6954 241.147 71.962 241.029 72.1594 240.795C72.362 240.56 72.4634 240.243 72.4634 239.843V237.611ZM74.8877 237.611V238.315C75.1277 237.808 75.5544 237.555 76.1677 237.555C76.5624 237.555 76.877 237.675 77.1117 237.915C77.3464 238.155 77.4637 238.475 77.4637 238.875V241.667H76.8317V239.043C76.8317 238.744 76.7544 238.517 76.5997 238.363C76.4504 238.203 76.253 238.123 76.0077 238.123C75.7037 238.123 75.4397 238.24 75.2157 238.475C74.997 238.709 74.8877 239.035 74.8877 239.451V241.667H74.2637V237.611H74.8877ZM80.104 241.003C80.3973 241.003 80.656 240.891 80.88 240.667C81.1093 240.437 81.224 240.099 81.224 239.651C81.224 239.133 81.1147 238.749 80.896 238.499C80.6773 238.248 80.424 238.123 80.136 238.123C79.7893 238.123 79.5147 238.261 79.312 238.539C79.1093 238.811 79.008 239.168 79.008 239.611C79.008 240.064 79.12 240.411 79.344 240.651C79.568 240.885 79.8213 241.003 80.104 241.003ZM81.224 237.611H81.856V241.339C81.856 241.957 81.6853 242.421 81.344 242.731C81.0027 243.045 80.5627 243.203 80.024 243.203C79.5333 243.203 79.1147 243.12 78.768 242.955V242.323C79.1093 242.52 79.5093 242.619 79.968 242.619C80.3573 242.619 80.664 242.515 80.888 242.307C81.112 242.099 81.224 241.773 81.224 241.331V240.875C80.9573 241.333 80.56 241.563 80.032 241.563C79.568 241.563 79.1707 241.392 78.84 241.051C78.5147 240.709 78.352 240.235 78.352 239.627C78.352 239.024 78.504 238.528 78.808 238.139C79.112 237.749 79.5093 237.555 80 237.555C80.5547 237.555 80.9627 237.797 81.224 238.283V237.611ZM85.1586 239.795H84.4546C84.1133 239.795 83.8573 239.861 83.6866 239.995C83.516 240.128 83.4306 240.296 83.4306 240.499C83.4306 240.701 83.4973 240.867 83.6306 240.995C83.764 241.117 83.9586 241.179 84.2146 241.179C84.5026 241.179 84.732 241.099 84.9026 240.939C85.0733 240.773 85.1586 240.565 85.1586 240.315V239.795ZM83.0626 238.459V237.827C83.3666 237.64 83.7666 237.547 84.2626 237.547C85.2813 237.547 85.7906 238.064 85.7906 239.099V241.667H85.1666V241.187C84.9586 241.533 84.58 241.707 84.0306 241.707C83.652 241.707 83.3453 241.595 83.1106 241.371C82.8813 241.147 82.7666 240.864 82.7666 240.523C82.7666 240.133 82.9133 239.832 83.2066 239.619C83.5053 239.4 83.9106 239.291 84.4226 239.291H85.1586V239.083C85.1586 238.763 85.0866 238.523 84.9426 238.363C84.7986 238.197 84.556 238.115 84.2146 238.115C83.7826 238.115 83.3986 238.229 83.0626 238.459ZM87.5361 237.611V238.315C87.7761 237.808 88.2028 237.555 88.8161 237.555C89.2108 237.555 89.5255 237.675 89.7601 237.915C89.9948 238.155 90.1121 238.475 90.1121 238.875V241.667H89.4801V239.043C89.4801 238.744 89.4028 238.517 89.2481 238.363C89.0988 238.203 88.9015 238.123 88.6561 238.123C88.3521 238.123 88.0881 238.24 87.8641 238.475C87.6455 238.709 87.5361 239.035 87.5361 239.451V241.667H86.9121V237.611H87.5361Z" fill="#2B2B2B"/>
<path d="M237.334 236.835V238.987H238.15C238.518 238.987 238.798 238.888 238.99 238.691C239.188 238.488 239.286 238.229 239.286 237.915C239.286 237.195 238.884 236.835 238.078 236.835H237.334ZM240.27 241.667H239.494L238.174 239.539H238.11H237.334V241.667H236.686V236.275H238.038C238.662 236.275 239.134 236.421 239.454 236.715C239.78 237.008 239.942 237.413 239.942 237.931C239.932 238.304 239.833 238.621 239.646 238.883C239.46 239.144 239.196 239.328 238.854 239.435L240.27 241.667ZM242.821 241.155C243.162 241.155 243.442 241.021 243.661 240.755C243.88 240.483 243.989 240.099 243.989 239.603C243.989 239.16 243.882 238.803 243.669 238.531C243.456 238.259 243.186 238.123 242.861 238.123C242.536 238.123 242.253 238.243 242.013 238.483C241.778 238.717 241.661 239.104 241.661 239.643C241.661 240.16 241.781 240.541 242.021 240.787C242.261 241.032 242.528 241.155 242.821 241.155ZM241.661 237.611V238.227C241.944 237.773 242.362 237.547 242.917 237.547C243.456 237.547 243.877 237.744 244.181 238.139C244.49 238.528 244.645 239.016 244.645 239.603C244.645 240.227 244.482 240.739 244.157 241.139C243.837 241.533 243.418 241.731 242.901 241.731C242.368 241.731 241.954 241.504 241.661 241.051V243.243H241.037V237.611H241.661ZM247.289 239.035C247.289 238.213 247.455 237.565 247.785 237.091C248.121 236.611 248.561 236.371 249.105 236.371C249.671 236.371 250.119 236.611 250.449 237.091C250.785 237.565 250.953 238.213 250.953 239.035C250.953 239.851 250.793 240.504 250.473 240.995C250.153 241.485 249.697 241.731 249.105 241.731C248.556 241.731 248.116 241.485 247.785 240.995C247.455 240.504 247.289 239.851 247.289 239.035ZM248.281 237.515C248.052 237.872 247.937 238.379 247.937 239.035C247.937 239.691 248.049 240.205 248.273 240.579C248.497 240.947 248.775 241.131 249.105 241.131C249.473 241.131 249.764 240.949 249.977 240.587C250.196 240.224 250.305 239.707 250.305 239.035C250.305 238.368 250.191 237.859 249.961 237.507C249.737 237.149 249.452 236.971 249.105 236.971C248.785 236.971 248.511 237.152 248.281 237.515ZM251.233 242.651L251.977 240.859H252.817L251.785 242.651H251.233ZM253.438 239.035C253.438 238.213 253.603 237.565 253.934 237.091C254.27 236.611 254.71 236.371 255.254 236.371C255.819 236.371 256.267 236.611 256.598 237.091C256.934 237.565 257.102 238.213 257.102 239.035C257.102 239.851 256.942 240.504 256.622 240.995C256.302 241.485 255.846 241.731 255.254 241.731C254.704 241.731 254.264 241.485 253.934 240.995C253.603 240.504 253.438 239.851 253.438 239.035ZM254.43 237.515C254.2 237.872 254.086 238.379 254.086 239.035C254.086 239.691 254.198 240.205 254.422 240.579C254.646 240.947 254.923 241.131 255.254 241.131C255.622 241.131 255.912 240.949 256.126 240.587C256.344 240.224 256.454 239.707 256.454 239.035C256.454 238.368 256.339 237.859 256.11 237.507C255.886 237.149 255.6 236.971 255.254 236.971C254.934 236.971 254.659 237.152 254.43 237.515ZM257.789 239.035C257.789 238.213 257.955 237.565 258.285 237.091C258.621 236.611 259.061 236.371 259.605 236.371C260.171 236.371 260.619 236.611 260.949 237.091C261.285 237.565 261.453 238.213 261.453 239.035C261.453 239.851 261.293 240.504 260.973 240.995C260.653 241.485 260.197 241.731 259.605 241.731C259.056 241.731 258.616 241.485 258.285 240.995C257.955 240.504 257.789 239.851 257.789 239.035ZM258.781 237.515C258.552 237.872 258.437 238.379 258.437 239.035C258.437 239.691 258.549 240.205 258.773 240.579C258.997 240.947 259.275 241.131 259.605 241.131C259.973 241.131 260.264 240.949 260.477 240.587C260.696 240.224 260.805 239.707 260.805 239.035C260.805 238.368 260.691 237.859 260.461 237.507C260.237 237.149 259.952 236.971 259.605 236.971C259.285 236.971 259.011 237.152 258.781 237.515ZM262.141 239.035C262.141 238.213 262.306 237.565 262.637 237.091C262.973 236.611 263.413 236.371 263.957 236.371C264.522 236.371 264.97 236.611 265.301 237.091C265.637 237.565 265.805 238.213 265.805 239.035C265.805 239.851 265.645 240.504 265.325 240.995C265.005 241.485 264.549 241.731 263.957 241.731C263.408 241.731 262.968 241.485 262.637 240.995C262.306 240.504 262.141 239.851 262.141 239.035ZM263.133 237.515C262.904 237.872 262.789 238.379 262.789 239.035C262.789 239.691 262.901 240.205 263.125 240.579C263.349 240.947 263.626 241.131 263.957 241.131C264.325 241.131 264.616 240.949 264.829 240.587C265.048 240.224 265.157 239.707 265.157 239.035C265.157 238.368 265.042 237.859 264.813 237.507C264.589 237.149 264.304 236.971 263.957 236.971C263.637 236.971 263.362 237.152 263.133 237.515ZM266.084 242.651L266.828 240.859H267.668L266.636 242.651H266.084ZM268.289 239.035C268.289 238.213 268.455 237.565 268.785 237.091C269.121 236.611 269.561 236.371 270.105 236.371C270.671 236.371 271.119 236.611 271.449 237.091C271.785 237.565 271.953 238.213 271.953 239.035C271.953 239.851 271.793 240.504 271.473 240.995C271.153 241.485 270.697 241.731 270.105 241.731C269.556 241.731 269.116 241.485 268.785 240.995C268.455 240.504 268.289 239.851 268.289 239.035ZM269.281 237.515C269.052 237.872 268.937 238.379 268.937 239.035C268.937 239.691 269.049 240.205 269.273 240.579C269.497 240.947 269.775 241.131 270.105 241.131C270.473 241.131 270.764 240.949 270.977 240.587C271.196 240.224 271.305 239.707 271.305 239.035C271.305 238.368 271.191 237.859 270.961 237.507C270.737 237.149 270.452 236.971 270.105 236.971C269.785 236.971 269.511 237.152 269.281 237.515ZM272.641 239.035C272.641 238.213 272.806 237.565 273.137 237.091C273.473 236.611 273.913 236.371 274.457 236.371C275.022 236.371 275.47 236.611 275.801 237.091C276.137 237.565 276.305 238.213 276.305 239.035C276.305 239.851 276.145 240.504 275.825 240.995C275.505 241.485 275.049 241.731 274.457 241.731C273.908 241.731 273.468 241.485 273.137 240.995C272.806 240.504 272.641 239.851 272.641 239.035ZM273.633 237.515C273.404 237.872 273.289 238.379 273.289 239.035C273.289 239.691 273.401 240.205 273.625 240.579C273.849 240.947 274.126 241.131 274.457 241.131C274.825 241.131 275.116 240.949 275.329 240.587C275.548 240.224 275.657 239.707 275.657 239.035C275.657 238.368 275.542 237.859 275.313 237.507C275.089 237.149 274.804 236.971 274.457 236.971C274.137 236.971 273.862 237.152 273.633 237.515ZM276.992 239.035C276.992 238.213 277.158 237.565 277.488 237.091C277.824 236.611 278.264 236.371 278.808 236.371C279.374 236.371 279.822 236.611 280.152 237.091C280.488 237.565 280.656 238.213 280.656 239.035C280.656 239.851 280.496 240.504 280.176 240.995C279.856 241.485 279.4 241.731 278.808 241.731C278.259 241.731 277.819 241.485 277.488 240.995C277.158 240.504 276.992 239.851 276.992 239.035ZM277.984 237.515C277.755 237.872 277.64 238.379 277.64 239.035C277.64 239.691 277.752 240.205 277.976 240.579C278.2 240.947 278.478 241.131 278.808 241.131C279.176 241.131 279.467 240.949 279.68 240.587C279.899 240.224 280.008 239.707 280.008 239.035C280.008 238.368 279.894 237.859 279.664 237.507C279.44 237.149 279.155 236.971 278.808 236.971C278.488 236.971 278.214 237.152 277.984 237.515Z" fill="#2B2B2B"/>
<rect x="109" y="270" width="120" height="24" rx="8" fill="#FF1934"/>
<path d="M157.959 283.176L158.823 283.176C159.468 283.176 159.791 282.931 159.791 282.44C159.791 281.939 159.455 281.688 158.783 281.688L157.959 281.688L157.959 283.176ZM157.959 279.432L157.959 280.88L158.567 280.88C158.929 280.88 159.201 280.808 159.383 280.664C159.564 280.52 159.655 280.336 159.655 280.112C159.655 279.904 159.577 279.739 159.423 279.616C159.273 279.493 159.044 279.432 158.735 279.432L157.959 279.432ZM156.951 278.608L158.863 278.608C159.439 278.608 159.887 278.744 160.207 279.016C160.527 279.288 160.687 279.64 160.687 280.072C160.687 280.365 160.607 280.621 160.447 280.84C160.287 281.053 160.081 281.195 159.831 281.264C160.119 281.333 160.356 281.475 160.543 281.688C160.729 281.896 160.823 282.181 160.823 282.544C160.823 282.971 160.673 283.32 160.375 283.592C160.076 283.864 159.663 284 159.135 284L156.951 284L156.951 278.608ZM163.053 281.952L164.573 281.952L164.501 281.712C164.32 281.136 164.17 280.653 164.053 280.264C163.941 279.869 163.872 279.621 163.845 279.52L163.813 279.36C163.765 279.627 163.536 280.413 163.125 281.72L163.053 281.952ZM165.213 284L164.829 282.776L162.789 282.776L162.405 284L161.349 284L163.173 278.608L164.477 278.608L166.301 284L165.213 284ZM171.364 278.608L169.508 282L169.508 284L168.5 284L168.5 282.032L166.66 278.608L167.836 278.608L168.196 279.392C168.404 279.845 168.574 280.227 168.708 280.536C168.841 280.84 168.921 281.029 168.948 281.104L168.996 281.224C169.044 281.027 169.318 280.416 169.82 279.392L170.188 278.608L171.364 278.608ZM173.436 281.952L174.956 281.952L174.884 281.712C174.702 281.136 174.553 280.653 174.436 280.264C174.324 279.869 174.254 279.621 174.228 279.52L174.196 279.36C174.148 279.627 173.918 280.413 173.508 281.72L173.436 281.952ZM175.596 284L175.212 282.776L173.172 282.776L172.788 284L171.732 284L173.556 278.608L174.86 278.608L176.684 284L175.596 284ZM178.466 279.44L178.466 281.2L179.138 281.2C179.448 281.2 179.68 281.123 179.834 280.968C179.989 280.808 180.066 280.587 180.066 280.304C180.066 280.027 179.984 279.813 179.818 279.664C179.658 279.515 179.426 279.44 179.122 279.44L178.466 279.44ZM180.242 284L179.018 282.032L178.466 282.032L178.466 284L177.458 284L177.458 278.608L179.122 278.608C179.736 278.608 180.216 278.763 180.562 279.072C180.914 279.381 181.09 279.795 181.09 280.312C181.085 280.696 180.992 281.021 180.81 281.288C180.629 281.549 180.381 281.744 180.066 281.872L181.45 284L180.242 284Z" fill="white"/>
<path d="M9 341.5H329C333.694 341.5 337.5 345.306 337.5 350C337.5 354.694 333.694 358.5 329 358.5H9C4.30558 358.5 0.5 354.694 0.5 350C0.500002 345.306 4.30558 341.5 9 341.5Z" fill="white"/>
<path d="M9 341.5H329C333.694 341.5 337.5 345.306 337.5 350C337.5 354.694 333.694 358.5 329 358.5H9C4.30558 358.5 0.5 354.694 0.5 350C0.500002 345.306 4.30558 341.5 9 341.5Z" stroke="#CCCCCC"/>
<path d="M7.86805e-07 350C3.52265e-07 345.029 4.02944 341 9 341L39 341C43.9706 341 48 345.029 48 350C48 354.971 43.9706 359 39 359L9 359C4.02944 359 1.22135e-06 354.971 7.86805e-07 350Z" fill="#FF1934"/>
<path d="M15.448 346.688H16.264L16.816 348.6L17.456 350.92C17.5893 350.179 17.7547 349.403 17.952 348.592L18.44 346.608H19.464L18.088 352H16.92L16.432 350.296C16.2987 349.843 16.184 349.443 16.088 349.096C15.9973 348.749 15.936 348.517 15.904 348.4L15.864 348.216C15.7893 348.589 15.6027 349.283 15.304 350.296L14.8 352H13.64L12.2 346.608H13.264L13.768 348.6C13.8533 348.957 13.9387 349.328 14.024 349.712C14.1093 350.096 14.1733 350.389 14.216 350.592L14.28 350.904C14.4507 350.232 14.6587 349.464 14.904 348.6L15.448 346.688ZM22.2561 350.256H21.7601C21.5094 350.256 21.3174 350.309 21.1841 350.416C21.0507 350.517 20.9841 350.648 20.9841 350.808C20.9841 351.149 21.1814 351.32 21.5761 351.32C21.7894 351.32 21.9547 351.259 22.0721 351.136C22.1947 351.008 22.2561 350.843 22.2561 350.64V350.256ZM20.2881 349.04V348.152C20.5921 347.965 21.0294 347.872 21.6001 347.872C22.6987 347.872 23.2481 348.384 23.2481 349.408V352H22.2961V351.512C22.1094 351.859 21.7574 352.032 21.2401 352.032C20.8561 352.032 20.5494 351.92 20.3201 351.696C20.0961 351.472 19.9841 351.189 19.9841 350.848C19.9841 350.464 20.1281 350.163 20.4161 349.944C20.7041 349.725 21.1201 349.616 21.6641 349.616H22.2561V349.368C22.2561 349.144 22.1974 348.973 22.0801 348.856C21.9627 348.739 21.7627 348.68 21.4801 348.68C21.0481 348.68 20.6507 348.8 20.2881 349.04ZM27.7828 352H26.6548L25.1988 349.904V352H24.2388V346.44H25.1988V349.848L26.6308 347.944H27.7508L26.2628 349.88L27.7828 352ZM29.5864 348.664V350.728C29.5864 350.899 29.6318 351.029 29.7224 351.12C29.8131 351.205 29.9384 351.248 30.0984 351.248C30.3011 351.248 30.4878 351.192 30.6584 351.08V351.904C30.4718 351.995 30.2318 352.04 29.9384 352.04C29.0638 352.04 28.6264 351.597 28.6264 350.712V348.664H28.0184V347.944H28.6264V346.968H29.5864V347.944H30.5944V348.664H29.5864ZM33.9617 347.944H34.9297V352H33.9617V351.336C33.7484 351.805 33.3324 352.04 32.7137 352.04C32.303 352.04 31.983 351.923 31.7537 351.688C31.5244 351.453 31.4097 351.12 31.4097 350.688V347.944H32.3697V350.464C32.3697 350.72 32.431 350.915 32.5537 351.048C32.6817 351.181 32.855 351.248 33.0737 351.248C33.351 351.248 33.567 351.155 33.7217 350.968C33.8817 350.781 33.9617 350.499 33.9617 350.12V347.944Z" fill="white"/>
<rect x="56" y="348" width="274" height="4" rx="2" fill="#CCCCCC"/>
<mask id="mask0_1124_4113" style="mask-type:alpha" maskUnits="userSpaceOnUse" x="56" y="348" width="274" height="4">
<rect x="56" y="348" width="274" height="4" rx="2" fill="#CCCCCC"/>
</mask>
<g mask="url(#mask0_1124_4113)">
<rect x="56" y="348" width="274" height="4" rx="2" fill="#FF1934"/>
</g>
<defs>
<filter id="filter0_d_1124_4113" x="22.5" y="14" width="293" height="56" filterUnits="userSpaceOnUse" color-interpolation-filters="sRGB">
<feFlood flood-opacity="0" result="BackgroundImageFix"/>
<feColorMatrix in="SourceAlpha" type="matrix" values="0 0 0 0 0 0 0 0 0 0 0 0 0 0 0 0 0 0 127 0" result="hardAlpha"/>
<feOffset dy="2"/>
<feGaussianBlur stdDeviation="2"/>
<feComposite in2="hardAlpha" operator="out"/>
<feColorMatrix type="matrix" values="0 0 0 0 0.168627 0 0 0 0 0.168627 0 0 0 0 0.168627 0 0 0 0.24 0"/>
<feBlend mode="normal" in2="BackgroundImageFix" result="effect1_dropShadow_1124_4113"/>
<feBlend mode="normal" in="SourceGraphic" in2="effect1_dropShadow_1124_4113" result="shape"/>
</filter>
<clipPath id="clip0_1124_4113">
<rect width="24" height="24" fill="white" transform="translate(42.5 32)"/>
</clipPath>
<clipPath id="clip1_1124_4113">
<rect width="64" height="64" fill="white" transform="translate(137 72)"/>
</clipPath>
</defs>
</svg>
