<svg width="338" height="375" viewBox="0 0 338 375" fill="none" xmlns="http://www.w3.org/2000/svg">
<rect width="338" height="375" fill="#D3D3D3"/>
<rect x="9" y="16" width="320" height="294" rx="16" fill="white"/>
<g filter="url(#filter0_d_1124_4113)">
<path d="M9 32C9 23.1634 16.1634 16 25 16H313C321.837 16 329 23.1634 329 32V64H9V32Z" fill="#FF1934" shape-rendering="crispEdges"/>
<g clip-path="url(#clip0_1124_4113)">
<path d="M37 34C31.49 34 27 38.49 27 44C27 46.27 27.74 48.41 29.14 50.18C29.41 50.53 29.92 50.59 30.26 50.31C30.61 50.04 30.67 49.53 30.39 49.19C29.21 47.7 28.59 45.9 28.59 44C28.6 39.37 32.37 35.6 37 35.6C41.63 35.6 45.4 39.37 45.4 44C45.4 48.63 41.63 52.4 37 52.4C35.32 52.4 33.69 51.9 32.3 50.97C31.93 50.72 31.44 50.82 31.19 51.18C30.94 51.54 31.04 52.04 31.4 52.29C33.06 53.41 34.99 54 36.99 54C42.5 54 46.99 49.51 46.99 44C46.99 38.49 42.51 34 37 34Z" fill="white"/>
<path d="M40.7402 38.14C40.3702 37.9 39.8702 38.01 39.6302 38.38L36.3202 43.57C36.2402 43.7 36.2002 43.85 36.2002 44V48C36.2002 48.44 36.5602 48.8 37.0002 48.8C37.4402 48.8 37.8002 48.44 37.8002 48V44.23L40.9902 39.24C41.2302 38.87 41.1202 38.37 40.7502 38.13L40.7402 38.14Z" fill="white"/>
</g>
<path d="M60.066 46.11H63.552V48H57.91V38.564H60.066V46.11ZM64.7459 48V40.902H66.7899V48H64.7459ZM64.9279 39.684C64.6946 39.4507 64.5779 39.1707 64.5779 38.844C64.5779 38.5173 64.6946 38.2373 64.9279 38.004C65.1613 37.7707 65.4413 37.654 65.7679 37.654C66.0946 37.654 66.3746 37.7707 66.6079 38.004C66.8413 38.2373 66.9579 38.5173 66.9579 38.844C66.9579 39.1707 66.8413 39.4507 66.6079 39.684C66.3746 39.9173 66.0946 40.034 65.7679 40.034C65.4413 40.034 65.1613 39.9173 64.9279 39.684ZM70.5891 40.902V42.106C70.7664 41.714 71.0371 41.406 71.4011 41.182C71.7744 40.9487 72.2177 40.832 72.7311 40.832C73.4591 40.832 74.0284 41.0513 74.4391 41.49C74.8497 41.9193 75.0551 42.554 75.0551 43.394V48H73.0111V43.772C73.0111 43.352 72.9131 43.0347 72.7171 42.82C72.5211 42.596 72.2457 42.484 71.8911 42.484C71.5177 42.484 71.2051 42.6333 70.9531 42.932C70.7104 43.2213 70.5891 43.66 70.5891 44.248V48H68.5451V40.902H70.5891ZM76.7362 48V40.902H78.7802V48H76.7362ZM76.9182 39.684C76.6848 39.4507 76.5682 39.1707 76.5682 38.844C76.5682 38.5173 76.6848 38.2373 76.9182 38.004C77.1515 37.7707 77.4315 37.654 77.7582 37.654C78.0848 37.654 78.3648 37.7707 78.5982 38.004C78.8315 38.2373 78.9482 38.5173 78.9482 38.844C78.9482 39.1707 78.8315 39.4507 78.5982 39.684C78.3648 39.9173 78.0848 40.034 77.7582 40.034C77.4315 40.034 77.1515 39.9173 76.9182 39.684ZM83.8953 48L84.7073 38.564H87.0733L88.3893 41.98C88.6133 42.5493 88.8046 43.072 88.9633 43.548C89.122 44.024 89.2246 44.36 89.2713 44.556L89.3413 44.836C89.4906 44.22 89.8173 43.268 90.3213 41.98L91.6513 38.564H94.0173L94.9973 48H92.8413L92.4913 44.346L92.3093 41.588C92.0666 42.288 91.7306 43.2073 91.3013 44.346L89.9713 47.902H88.6973L87.3813 44.346C87.1666 43.7673 86.9846 43.2493 86.8353 42.792C86.686 42.3347 86.588 42.0173 86.5413 41.84L86.4713 41.588C86.4713 42.2507 86.4293 43.17 86.3453 44.346L86.0513 48H83.8953ZM100.045 45.088H99.3874C99.0421 45.088 98.7761 45.1627 98.5894 45.312C98.4027 45.4613 98.3094 45.6527 98.3094 45.886C98.3094 46.362 98.5847 46.6 99.1354 46.6C99.4247 46.6 99.6487 46.5113 99.8074 46.334C99.9661 46.1567 100.045 45.914 100.045 45.606V45.088ZM96.7274 43.086V41.252C97.2874 40.9347 98.0947 40.776 99.1494 40.776C100.157 40.776 100.909 40.9953 101.403 41.434C101.898 41.8633 102.145 42.5353 102.145 43.45V48H100.143V47.132C99.8447 47.7387 99.2567 48.042 98.3794 48.042C97.6887 48.042 97.1474 47.846 96.7554 47.454C96.3727 47.062 96.1814 46.572 96.1814 45.984C96.1814 45.3027 96.4287 44.7753 96.9234 44.402C97.4274 44.0193 98.1694 43.828 99.1494 43.828H100.045V43.338C100.045 42.7407 99.6487 42.442 98.8554 42.442C98.0901 42.442 97.3807 42.6567 96.7274 43.086ZM108.23 41.112V42.862C107.735 42.5727 107.157 42.428 106.494 42.428C106.251 42.428 106.065 42.4793 105.934 42.582C105.803 42.6753 105.738 42.7967 105.738 42.946C105.738 43.03 105.761 43.1093 105.808 43.184C105.855 43.2587 105.929 43.3287 106.032 43.394C106.144 43.4593 106.247 43.52 106.34 43.576C106.443 43.6227 106.578 43.6833 106.746 43.758C106.923 43.8327 107.063 43.898 107.166 43.954C107.595 44.178 107.941 44.4393 108.202 44.738C108.463 45.0273 108.594 45.4007 108.594 45.858C108.594 46.558 108.342 47.0993 107.838 47.482C107.334 47.8647 106.667 48.056 105.836 48.056C104.977 48.056 104.259 47.9113 103.68 47.622V45.802C104.324 46.25 105.005 46.474 105.724 46.474C106.237 46.474 106.494 46.3107 106.494 45.984C106.494 45.9 106.471 45.8207 106.424 45.746C106.377 45.6713 106.298 45.6013 106.186 45.536C106.074 45.4707 105.971 45.4193 105.878 45.382C105.785 45.3353 105.649 45.2747 105.472 45.2C105.295 45.1253 105.159 45.0647 105.066 45.018C104.123 44.57 103.652 43.898 103.652 43.002C103.652 42.3113 103.913 41.7747 104.436 41.392C104.968 41.0093 105.626 40.818 106.41 40.818C107.138 40.818 107.745 40.916 108.23 41.112ZM113.362 45.088H112.704C112.358 45.088 112.092 45.1627 111.906 45.312C111.719 45.4613 111.626 45.6527 111.626 45.886C111.626 46.362 111.901 46.6 112.452 46.6C112.741 46.6 112.965 46.5113 113.124 46.334C113.282 46.1567 113.362 45.914 113.362 45.606V45.088ZM110.044 43.086V41.252C110.604 40.9347 111.411 40.776 112.466 40.776C113.474 40.776 114.225 40.9953 114.72 41.434C115.214 41.8633 115.462 42.5353 115.462 43.45V48H113.46V47.132C113.161 47.7387 112.573 48.042 111.696 48.042C111.005 48.042 110.464 47.846 110.072 47.454C109.689 47.062 109.498 46.572 109.498 45.984C109.498 45.3027 109.745 44.7753 110.24 44.402C110.744 44.0193 111.486 43.828 112.466 43.828H113.362V43.338C113.362 42.7407 112.965 42.442 112.172 42.442C111.406 42.442 110.697 42.6567 110.044 43.086Z" fill="white"/>
</g>
<g clip-path="url(#clip1_1124_4113)">
<path d="M169 122.65C160.603 122.65 152.56 123.191 150.726 123.994C148.431 124.997 156.353 126.017 169 126.017C181.647 126.017 189.568 124.997 187.274 123.994C185.439 123.192 177.396 122.65 169 122.65Z" fill="#CCCCCC"/>
<path d="M172.908 90.1771L177.215 93.1189L177.882 92.6364L173.114 89.3799L172.908 90.1771Z" fill="#D9AA16"/>
<path d="M159.1 115.018C167.439 120.713 177.722 120.173 182.067 113.812C186.412 107.45 183.174 97.6754 174.834 91.9798C166.495 86.2842 156.212 86.8242 151.867 93.1859C147.522 99.5477 150.76 109.322 159.1 115.018Z" fill="#DA011C"/>
<path d="M159.615 114.477C162.544 116.457 165.955 117.775 169.456 118.08C172.958 118.384 176.016 117.63 178.346 116.109L166.967 103.498L159.614 114.476L159.615 114.477Z" fill="#FF1934"/>
<path d="M178.267 116.161C180.618 114.661 182.289 112.362 182.875 109.418C183.461 106.475 182.873 103.335 181.403 100.414L166.967 103.499L178.267 116.161Z" fill="#D9AA16"/>
<path d="M151.061 97.5802C150.514 100.314 150.949 103.439 152.529 106.585C154.109 109.731 156.595 112.418 159.515 114.41L166.967 103.499L151.062 97.5806L151.061 97.5802Z" fill="#1699D9"/>
<path d="M181.403 100.414C179.938 97.4914 177.563 94.7327 174.421 92.5864C171.278 90.4402 167.845 89.2316 164.589 88.9303L166.967 103.499L181.403 100.414Z" fill="#CC0BD9"/>
<path d="M164.478 88.92C161.225 88.6341 158.096 89.2501 155.585 90.8862C153.074 92.5224 151.562 94.9298 151.043 97.6733L166.966 103.499L164.478 88.92Z" fill="#008C1E"/>
<path d="M151.042 97.6728L166.797 103.536L159.416 114.342C159.449 114.365 159.481 114.389 159.514 114.412C159.547 114.435 159.581 114.455 159.615 114.478L166.995 103.671L178.189 116.214C178.242 116.18 178.297 116.148 178.35 116.114L167.155 103.569L181.454 100.513C181.421 100.447 181.385 100.38 181.352 100.315L167.055 103.37L164.7 88.9416C164.626 88.9342 164.552 88.9249 164.478 88.919L166.834 103.35L151.076 97.4856C151.063 97.5477 151.053 97.6104 151.042 97.6728Z" fill="white"/>
<g style="mix-blend-mode:multiply" opacity="0.32">
<path d="M159.514 114.411C167.415 119.807 177.156 119.296 181.272 113.269C185.388 107.242 182.321 97.9823 174.42 92.5864C166.52 87.1905 156.778 87.702 152.662 93.729C148.546 99.7559 151.613 109.016 159.514 114.411ZM174.006 93.1923C181.468 98.2883 184.365 107.034 180.478 112.726C176.59 118.419 167.39 118.902 159.928 113.806C152.466 108.709 149.569 99.9638 153.457 94.2715C157.344 88.5791 166.544 88.096 174.006 93.1923Z" fill="#2B2B2B"/>
</g>
<path d="M166.139 104.711C167.017 105.311 168.099 105.254 168.556 104.584C169.014 103.915 168.673 102.886 167.795 102.287C166.918 101.687 165.835 101.744 165.378 102.414C164.921 103.083 165.262 104.112 166.139 104.711Z" fill="white"/>
<path d="M177.882 92.6362C177.511 91.7422 176.864 90.9214 175.973 90.3128C175.082 89.7043 174.081 89.4 173.114 89.3796L173.489 93.9502L177.882 92.6362Z" fill="#D9AA16"/>
<path d="M173.114 89.3799L172.908 90.1771L173.196 90.3738L173.114 89.3799Z" fill="#D9AA16"/>
<path d="M177.214 93.1188C177.214 93.1188 177.464 92.9378 177.548 92.8774C177.632 92.817 177.553 92.7341 177.444 92.767C177.314 92.8057 176.927 92.9217 176.927 92.9217L177.215 93.1184L177.214 93.1188Z" fill="#B76F09"/>
<path d="M172.907 90.1769C172.907 90.1769 172.985 89.8782 173.011 89.7781C173.037 89.678 173.143 89.7214 173.152 89.8353C173.163 89.9699 173.196 90.3732 173.196 90.3732L172.908 90.1765L172.907 90.1769Z" fill="#B76F09"/>
<path d="M175.766 90.616C176.426 91.0669 176.953 91.6615 177.308 92.3495L173.882 93.3741L173.59 89.8098C174.36 89.8899 175.105 90.1652 175.766 90.616Z" fill="white"/>
</g>
<path d="M122.475 144.49H124.635L124.525 144.15C124.272 143.363 124.065 142.713 123.905 142.2C123.745 141.68 123.648 141.357 123.615 141.23L123.565 141.04C123.492 141.353 123.165 142.39 122.585 144.15L122.475 144.49ZM125.445 147L124.915 145.35H122.195L121.655 147H120.565L122.895 140.26H124.245L126.545 147H125.445ZM128.526 141.93V142.8C128.826 142.173 129.353 141.86 130.106 141.86C130.606 141.86 131.003 142.013 131.296 142.32C131.59 142.627 131.736 143.043 131.736 143.57V147H130.756V143.8C130.756 143.447 130.666 143.177 130.486 142.99C130.313 142.803 130.08 142.71 129.786 142.71C129.44 142.71 129.143 142.847 128.896 143.12C128.65 143.387 128.526 143.763 128.526 144.25V147H127.546V141.93H128.526ZM135.104 146.21C135.491 146.21 135.818 146.063 136.084 145.77C136.351 145.477 136.484 145.03 136.484 144.43C136.484 143.85 136.344 143.42 136.064 143.14C135.791 142.86 135.481 142.72 135.134 142.72C134.741 142.72 134.418 142.877 134.164 143.19C133.911 143.497 133.784 143.937 133.784 144.51C133.784 145.017 133.908 145.427 134.154 145.74C134.408 146.053 134.724 146.21 135.104 146.21ZM136.484 139.93H137.474V147H136.484V146.23C136.131 146.79 135.614 147.07 134.934 147.07C134.268 147.07 133.741 146.82 133.354 146.32C132.968 145.813 132.774 145.203 132.774 144.49C132.774 143.697 132.978 143.06 133.384 142.58C133.791 142.1 134.314 141.86 134.954 141.86C135.614 141.86 136.124 142.14 136.484 142.7V139.93ZM141.525 144.74H140.765C140.392 144.74 140.108 144.813 139.915 144.96C139.728 145.107 139.635 145.293 139.635 145.52C139.635 145.753 139.708 145.937 139.855 146.07C140.002 146.203 140.215 146.27 140.495 146.27C140.815 146.27 141.065 146.183 141.245 146.01C141.432 145.83 141.525 145.597 141.525 145.31V144.74ZM138.975 143.14V142.19C139.368 141.963 139.888 141.85 140.535 141.85C141.862 141.85 142.525 142.493 142.525 143.78V147H141.555V146.4C141.295 146.827 140.838 147.04 140.185 147.04C139.705 147.04 139.318 146.903 139.025 146.63C138.738 146.35 138.595 145.997 138.595 145.57C138.595 145.083 138.778 144.707 139.145 144.44C139.512 144.167 140.025 144.03 140.685 144.03H141.525V143.74C141.525 143.393 141.442 143.133 141.275 142.96C141.108 142.78 140.832 142.69 140.445 142.69C139.905 142.69 139.415 142.84 138.975 143.14ZM147.286 139.93V142.8C147.573 142.173 148.096 141.86 148.856 141.86C149.35 141.86 149.746 142.013 150.046 142.32C150.346 142.627 150.496 143.053 150.496 143.6V147H149.516V143.8C149.516 143.453 149.426 143.187 149.246 143C149.073 142.807 148.843 142.71 148.556 142.71C148.223 142.71 147.926 142.837 147.666 143.09C147.413 143.343 147.286 143.73 147.286 144.25V147H146.306V139.93H147.286ZM154.484 144.74H153.724C153.351 144.74 153.067 144.813 152.874 144.96C152.687 145.107 152.594 145.293 152.594 145.52C152.594 145.753 152.667 145.937 152.814 146.07C152.961 146.203 153.174 146.27 153.454 146.27C153.774 146.27 154.024 146.183 154.204 146.01C154.391 145.83 154.484 145.597 154.484 145.31V144.74ZM151.934 143.14V142.19C152.327 141.963 152.847 141.85 153.494 141.85C154.821 141.85 155.484 142.493 155.484 143.78V147H154.514V146.4C154.254 146.827 153.797 147.04 153.144 147.04C152.664 147.04 152.277 146.903 151.984 146.63C151.697 146.35 151.554 145.997 151.554 145.57C151.554 145.083 151.737 144.707 152.104 144.44C152.471 144.167 152.984 144.03 153.644 144.03H154.484V143.74C154.484 143.393 154.401 143.133 154.234 142.96C154.067 142.78 153.791 142.69 153.404 142.69C152.864 142.69 152.374 142.84 151.934 143.14ZM157.784 141.93V142.82C158.031 142.193 158.474 141.88 159.114 141.88C159.208 141.88 159.311 141.89 159.424 141.91V142.87C159.284 142.81 159.128 142.78 158.954 142.78C158.614 142.78 158.334 142.93 158.114 143.23C157.894 143.53 157.784 143.887 157.784 144.3V147H156.804V141.93H157.784ZM163.343 141.93H164.323V147H163.343V146.13C163.076 146.75 162.55 147.06 161.763 147.06C161.263 147.06 160.866 146.913 160.573 146.62C160.28 146.32 160.133 145.91 160.133 145.39V141.93H161.123V145.15C161.123 145.497 161.206 145.763 161.373 145.95C161.546 146.13 161.783 146.22 162.083 146.22C162.463 146.22 162.766 146.087 162.993 145.82C163.226 145.553 163.343 145.177 163.343 144.69V141.93ZM168.591 142.1V142.99C168.264 142.797 167.844 142.7 167.331 142.7C167.097 142.7 166.911 142.753 166.771 142.86C166.637 142.967 166.571 143.107 166.571 143.28C166.571 143.327 166.574 143.373 166.581 143.42C166.594 143.46 166.614 143.503 166.641 143.55C166.667 143.59 166.691 143.627 166.711 143.66C166.737 143.687 166.777 143.717 166.831 143.75C166.884 143.783 166.924 143.813 166.951 143.84C166.984 143.86 167.034 143.887 167.101 143.92C167.174 143.953 167.227 143.98 167.261 144C167.294 144.013 167.351 144.04 167.431 144.08C167.517 144.113 167.577 144.137 167.611 144.15C168.004 144.323 168.311 144.52 168.531 144.74C168.757 144.953 168.871 145.24 168.871 145.6C168.871 146.053 168.711 146.41 168.391 146.67C168.071 146.923 167.637 147.05 167.091 147.05C166.491 147.05 165.991 146.95 165.591 146.75V145.82C166.057 146.107 166.541 146.25 167.041 146.25C167.301 146.25 167.501 146.197 167.641 146.09C167.787 145.983 167.861 145.843 167.861 145.67C167.861 145.523 167.804 145.393 167.691 145.28C167.577 145.16 167.461 145.073 167.341 145.02C167.227 144.96 167.031 144.87 166.751 144.75C165.957 144.423 165.561 143.943 165.561 143.31C165.561 142.863 165.727 142.513 166.061 142.26C166.394 142.007 166.811 141.88 167.311 141.88C167.857 141.88 168.284 141.953 168.591 142.1ZM173.331 141.93V142.74C173.618 142.153 174.094 141.86 174.761 141.86C175.521 141.86 176.008 142.187 176.221 142.84C176.361 142.527 176.564 142.287 176.831 142.12C177.098 141.947 177.398 141.86 177.731 141.86C178.251 141.86 178.644 142.013 178.911 142.32C179.184 142.627 179.321 143.05 179.321 143.59V147H178.341V143.8C178.341 143.073 178.048 142.71 177.461 142.71C177.168 142.71 176.904 142.84 176.671 143.1C176.444 143.36 176.331 143.743 176.331 144.25V147H175.351V143.8C175.351 143.073 175.054 142.71 174.461 142.71C174.174 142.71 173.914 142.84 173.681 143.1C173.448 143.36 173.331 143.743 173.331 144.25V147H172.351V141.93H173.331ZM183.802 144.1V143.92C183.789 143.54 183.685 143.24 183.492 143.02C183.299 142.793 183.022 142.68 182.662 142.68C182.329 142.68 182.042 142.803 181.802 143.05C181.562 143.29 181.412 143.64 181.352 144.1H183.802ZM184.432 145.85V146.73C184.059 146.943 183.565 147.05 182.952 147.05C182.165 147.05 181.539 146.813 181.072 146.34C180.605 145.867 180.372 145.247 180.372 144.48C180.372 143.667 180.585 143.03 181.012 142.57C181.439 142.103 181.982 141.87 182.642 141.87C183.289 141.87 183.802 142.073 184.182 142.48C184.562 142.88 184.752 143.46 184.752 144.22C184.752 144.427 184.732 144.643 184.692 144.87H181.362C181.429 145.31 181.615 145.647 181.922 145.88C182.229 146.113 182.615 146.23 183.082 146.23C183.622 146.23 184.072 146.103 184.432 145.85ZM186.886 141.93V142.74C187.172 142.153 187.649 141.86 188.316 141.86C189.076 141.86 189.562 142.187 189.776 142.84C189.916 142.527 190.119 142.287 190.386 142.12C190.652 141.947 190.952 141.86 191.286 141.86C191.806 141.86 192.199 142.013 192.466 142.32C192.739 142.627 192.876 143.05 192.876 143.59V147H191.896V143.8C191.896 143.073 191.602 142.71 191.016 142.71C190.722 142.71 190.459 142.84 190.226 143.1C189.999 143.36 189.886 143.743 189.886 144.25V147H188.906V143.8C188.906 143.073 188.609 142.71 188.016 142.71C187.729 142.71 187.469 142.84 187.236 143.1C187.002 143.36 186.886 143.743 186.886 144.25V147H185.906V141.93H186.886ZM196.597 146.21C196.97 146.21 197.283 146.053 197.537 145.74C197.79 145.42 197.917 145.01 197.917 144.51C197.917 143.937 197.79 143.497 197.537 143.19C197.283 142.877 196.96 142.72 196.567 142.72C196.22 142.72 195.907 142.86 195.627 143.14C195.353 143.42 195.217 143.85 195.217 144.43C195.217 145.03 195.35 145.477 195.617 145.77C195.883 146.063 196.21 146.21 196.597 146.21ZM195.217 139.93V142.7C195.577 142.14 196.087 141.86 196.747 141.86C197.387 141.86 197.91 142.1 198.317 142.58C198.723 143.06 198.927 143.697 198.927 144.49C198.927 145.203 198.733 145.813 198.347 146.32C197.96 146.82 197.43 147.07 196.757 147.07C196.083 147.07 195.57 146.79 195.217 146.23V147H194.227V139.93H195.217ZM202.697 144.74H201.937C201.564 144.74 201.28 144.813 201.087 144.96C200.9 145.107 200.807 145.293 200.807 145.52C200.807 145.753 200.88 145.937 201.027 146.07C201.174 146.203 201.387 146.27 201.667 146.27C201.987 146.27 202.237 146.183 202.417 146.01C202.604 145.83 202.697 145.597 202.697 145.31V144.74ZM200.147 143.14V142.19C200.54 141.963 201.06 141.85 201.707 141.85C203.034 141.85 203.697 142.493 203.697 143.78V147H202.727V146.4C202.467 146.827 202.01 147.04 201.357 147.04C200.877 147.04 200.49 146.903 200.197 146.63C199.91 146.35 199.767 145.997 199.767 145.57C199.767 145.083 199.95 144.707 200.317 144.44C200.684 144.167 201.197 144.03 201.857 144.03H202.697V143.74C202.697 143.393 202.614 143.133 202.447 142.96C202.28 142.78 202.004 142.69 201.617 142.69C201.077 142.69 200.587 142.84 200.147 143.14ZM206.417 146.89L204.397 141.93H205.487L206.117 143.58L206.907 145.72C206.967 145.52 207.207 144.807 207.627 143.58L208.197 141.93H209.237L207.407 146.86C206.92 148.16 206.177 148.81 205.177 148.81C204.997 148.81 204.844 148.793 204.717 148.76V147.92C204.824 147.947 204.937 147.96 205.057 147.96C205.704 147.96 206.157 147.603 206.417 146.89ZM212.726 144.74H211.966C211.593 144.74 211.31 144.813 211.116 144.96C210.93 145.107 210.836 145.293 210.836 145.52C210.836 145.753 210.91 145.937 211.056 146.07C211.203 146.203 211.416 146.27 211.696 146.27C212.016 146.27 212.266 146.183 212.446 146.01C212.633 145.83 212.726 145.597 212.726 145.31V144.74ZM210.176 143.14V142.19C210.57 141.963 211.09 141.85 211.736 141.85C213.063 141.85 213.726 142.493 213.726 143.78V147H212.756V146.4C212.496 146.827 212.04 147.04 211.386 147.04C210.906 147.04 210.52 146.903 210.226 146.63C209.94 146.35 209.796 145.997 209.796 145.57C209.796 145.083 209.98 144.707 210.346 144.44C210.713 144.167 211.226 144.03 211.886 144.03H212.726V143.74C212.726 143.393 212.643 143.133 212.476 142.96C212.31 142.78 212.033 142.69 211.646 142.69C211.106 142.69 210.616 142.84 210.176 143.14ZM216.026 141.93V142.82C216.273 142.193 216.716 141.88 217.356 141.88C217.45 141.88 217.553 141.89 217.666 141.91V142.87C217.526 142.81 217.37 142.78 217.196 142.78C216.856 142.78 216.576 142.93 216.356 143.23C216.136 143.53 216.026 143.887 216.026 144.3V147H215.046V141.93H216.026ZM73.9827 159.76H74.8627C75.3493 159.76 75.7193 159.64 75.9727 159.4C76.2327 159.16 76.3627 158.843 76.3627 158.45C76.3627 158.037 76.2327 157.71 75.9727 157.47C75.7127 157.23 75.336 157.11 74.8427 157.11H73.9827V159.76ZM72.9527 156.26H74.8827C75.656 156.26 76.2693 156.467 76.7227 156.88C77.176 157.287 77.4027 157.81 77.4027 158.45C77.4027 159.09 77.1727 159.61 76.7127 160.01C76.2593 160.41 75.6693 160.61 74.9427 160.61H73.9827V163H72.9527V156.26ZM81.5607 160.1V159.92C81.5474 159.54 81.444 159.24 81.2507 159.02C81.0574 158.793 80.7807 158.68 80.4207 158.68C80.0874 158.68 79.8007 158.803 79.5607 159.05C79.3207 159.29 79.1707 159.64 79.1107 160.1H81.5607ZM82.1907 161.85V162.73C81.8174 162.943 81.324 163.05 80.7107 163.05C79.924 163.05 79.2974 162.813 78.8307 162.34C78.364 161.867 78.1307 161.247 78.1307 160.48C78.1307 159.667 78.344 159.03 78.7707 158.57C79.1974 158.103 79.7407 157.87 80.4007 157.87C81.0474 157.87 81.5607 158.073 81.9407 158.48C82.3207 158.88 82.5107 159.46 82.5107 160.22C82.5107 160.427 82.4907 160.643 82.4507 160.87H79.1207C79.1874 161.31 79.374 161.647 79.6807 161.88C79.9874 162.113 80.374 162.23 80.8407 162.23C81.3807 162.23 81.8307 162.103 82.1907 161.85ZM84.6446 157.93V158.82C84.8913 158.193 85.3346 157.88 85.9746 157.88C86.0679 157.88 86.1713 157.89 86.2846 157.91V158.87C86.1446 158.81 85.9879 158.78 85.8146 158.78C85.4746 158.78 85.1946 158.93 84.9746 159.23C84.7546 159.53 84.6446 159.887 84.6446 160.3V163H83.6646V157.93H84.6446ZM88.0333 157.93V158.8C88.3333 158.173 88.8599 157.86 89.6133 157.86C90.1133 157.86 90.5099 158.013 90.8033 158.32C91.0966 158.627 91.2433 159.043 91.2433 159.57V163H90.2633V159.8C90.2633 159.447 90.1733 159.177 89.9933 158.99C89.8199 158.803 89.5866 158.71 89.2933 158.71C88.9466 158.71 88.6499 158.847 88.4033 159.12C88.1566 159.387 88.0333 159.763 88.0333 160.25V163H87.0533V157.93H88.0333ZM92.6011 163V157.93H93.5911V163H92.6011ZM92.6511 156.82C92.5378 156.7 92.4811 156.553 92.4811 156.38C92.4811 156.207 92.5378 156.06 92.6511 155.94C92.7711 155.82 92.9178 155.76 93.0911 155.76C93.2644 155.76 93.4111 155.82 93.5311 155.94C93.6511 156.06 93.7111 156.207 93.7111 156.38C93.7111 156.547 93.6511 156.69 93.5311 156.81C93.4111 156.93 93.2644 156.99 93.0911 156.99C92.9178 156.99 92.7711 156.933 92.6511 156.82ZM95.0123 163V156H95.9923V163H95.0123ZM97.1623 160.35L99.1523 163H97.9823L96.0323 160.35L97.9423 157.93H99.0923L97.1623 160.35ZM102.682 160.74H101.922C101.549 160.74 101.266 160.813 101.072 160.96C100.886 161.107 100.792 161.293 100.792 161.52C100.792 161.753 100.866 161.937 101.012 162.07C101.159 162.203 101.372 162.27 101.652 162.27C101.972 162.27 102.222 162.183 102.402 162.01C102.589 161.83 102.682 161.597 102.682 161.31V160.74ZM100.132 159.14V158.19C100.526 157.963 101.046 157.85 101.692 157.85C103.019 157.85 103.682 158.493 103.682 159.78V163H102.712V162.4C102.452 162.827 101.996 163.04 101.342 163.04C100.862 163.04 100.476 162.903 100.182 162.63C99.8956 162.35 99.7523 161.997 99.7523 161.57C99.7523 161.083 99.9356 160.707 100.302 160.44C100.669 160.167 101.182 160.03 101.842 160.03H102.682V159.74C102.682 159.393 102.599 159.133 102.432 158.96C102.266 158.78 101.989 158.69 101.602 158.69C101.062 158.69 100.572 158.84 100.132 159.14ZM105.983 155.93V158.8C106.269 158.173 106.793 157.86 107.553 157.86C108.046 157.86 108.443 158.013 108.743 158.32C109.043 158.627 109.193 159.053 109.193 159.6V163H108.213V159.8C108.213 159.453 108.123 159.187 107.943 159C107.769 158.807 107.539 158.71 107.252 158.71C106.919 158.71 106.623 158.837 106.363 159.09C106.109 159.343 105.983 159.73 105.983 160.25V163H105.003V155.93H105.983ZM113.18 160.74H112.42C112.047 160.74 111.764 160.813 111.57 160.96C111.384 161.107 111.29 161.293 111.29 161.52C111.29 161.753 111.364 161.937 111.51 162.07C111.657 162.203 111.87 162.27 112.15 162.27C112.47 162.27 112.72 162.183 112.9 162.01C113.087 161.83 113.18 161.597 113.18 161.31V160.74ZM110.63 159.14V158.19C111.024 157.963 111.544 157.85 112.19 157.85C113.517 157.85 114.18 158.493 114.18 159.78V163H113.21V162.4C112.95 162.827 112.494 163.04 111.84 163.04C111.36 163.04 110.974 162.903 110.68 162.63C110.394 162.35 110.25 161.997 110.25 161.57C110.25 161.083 110.434 160.707 110.8 160.44C111.167 160.167 111.68 160.03 112.34 160.03H113.18V159.74C113.18 159.393 113.097 159.133 112.93 158.96C112.764 158.78 112.487 158.69 112.1 158.69C111.56 158.69 111.07 158.84 110.63 159.14ZM116.481 157.93V158.8C116.781 158.173 117.307 157.86 118.061 157.86C118.561 157.86 118.957 158.013 119.251 158.32C119.544 158.627 119.691 159.043 119.691 159.57V163H118.711V159.8C118.711 159.447 118.621 159.177 118.441 158.99C118.267 158.803 118.034 158.71 117.741 158.71C117.394 158.71 117.097 158.847 116.851 159.12C116.604 159.387 116.481 159.763 116.481 160.25V163H115.501V157.93H116.481ZM123.589 163V156.26H124.609V163H123.589ZM127.086 157.93V158.8C127.386 158.173 127.913 157.86 128.666 157.86C129.166 157.86 129.563 158.013 129.856 158.32C130.149 158.627 130.296 159.043 130.296 159.57V163H129.316V159.8C129.316 159.447 129.226 159.177 129.046 158.99C128.873 158.803 128.639 158.71 128.346 158.71C127.999 158.71 127.703 158.847 127.456 159.12C127.209 159.387 127.086 159.763 127.086 160.25V163H126.106V157.93H127.086ZM132.884 158.69V161.48C132.884 161.967 133.117 162.21 133.584 162.21C133.857 162.21 134.087 162.137 134.274 161.99V162.87C134.054 162.99 133.784 163.05 133.464 163.05C132.417 163.05 131.894 162.52 131.894 161.46V158.69H131.104V157.93H131.894V156.69H132.884V157.93H134.214V158.69H132.884ZM135.394 163V157.93H136.384V163H135.394ZM135.444 156.82C135.331 156.7 135.274 156.553 135.274 156.38C135.274 156.207 135.331 156.06 135.444 155.94C135.564 155.82 135.711 155.76 135.884 155.76C136.057 155.76 136.204 155.82 136.324 155.94C136.444 156.06 136.504 156.207 136.504 156.38C136.504 156.547 136.444 156.69 136.324 156.81C136.204 156.93 136.057 156.99 135.884 156.99C135.711 156.99 135.564 156.933 135.444 156.82ZM138.785 157.93V158.74C139.072 158.153 139.549 157.86 140.215 157.86C140.975 157.86 141.462 158.187 141.675 158.84C141.815 158.527 142.019 158.287 142.285 158.12C142.552 157.947 142.852 157.86 143.185 157.86C143.705 157.86 144.099 158.013 144.365 158.32C144.639 158.627 144.775 159.05 144.775 159.59V163H143.795V159.8C143.795 159.073 143.502 158.71 142.915 158.71C142.622 158.71 142.359 158.84 142.125 159.1C141.899 159.36 141.785 159.743 141.785 160.25V163H140.805V159.8C140.805 159.073 140.509 158.71 139.915 158.71C139.629 158.71 139.369 158.84 139.135 159.1C138.902 159.36 138.785 159.743 138.785 160.25V163H137.805V157.93H138.785ZM150.097 160.49H152.257L152.147 160.15C151.894 159.363 151.687 158.713 151.527 158.2C151.367 157.68 151.27 157.357 151.237 157.23L151.187 157.04C151.114 157.353 150.787 158.39 150.207 160.15L150.097 160.49ZM153.067 163L152.537 161.35H149.817L149.277 163H148.187L150.517 156.26H151.867L154.167 163H153.067ZM156.149 157.93V158.8C156.449 158.173 156.975 157.86 157.729 157.86C158.229 157.86 158.625 158.013 158.919 158.32C159.212 158.627 159.359 159.043 159.359 159.57V163H158.379V159.8C158.379 159.447 158.289 159.177 158.109 158.99C157.935 158.803 157.702 158.71 157.409 158.71C157.062 158.71 156.765 158.847 156.519 159.12C156.272 159.387 156.149 159.763 156.149 160.25V163H155.169V157.93H156.149ZM162.726 162.21C163.113 162.21 163.44 162.063 163.706 161.77C163.973 161.477 164.106 161.03 164.106 160.43C164.106 159.85 163.966 159.42 163.686 159.14C163.413 158.86 163.103 158.72 162.756 158.72C162.363 158.72 162.04 158.877 161.786 159.19C161.533 159.497 161.406 159.937 161.406 160.51C161.406 161.017 161.53 161.427 161.776 161.74C162.03 162.053 162.346 162.21 162.726 162.21ZM164.106 155.93H165.096V163H164.106V162.23C163.753 162.79 163.236 163.07 162.556 163.07C161.89 163.07 161.363 162.82 160.976 162.32C160.59 161.813 160.396 161.203 160.396 160.49C160.396 159.697 160.6 159.06 161.006 158.58C161.413 158.1 161.936 157.86 162.576 157.86C163.236 157.86 163.746 158.14 164.106 158.7V155.93ZM169.147 160.74H168.387C168.014 160.74 167.73 160.813 167.537 160.96C167.35 161.107 167.257 161.293 167.257 161.52C167.257 161.753 167.33 161.937 167.477 162.07C167.624 162.203 167.837 162.27 168.117 162.27C168.437 162.27 168.687 162.183 168.867 162.01C169.054 161.83 169.147 161.597 169.147 161.31V160.74ZM166.597 159.14V158.19C166.99 157.963 167.51 157.85 168.157 157.85C169.484 157.85 170.147 158.493 170.147 159.78V163H169.177V162.4C168.917 162.827 168.46 163.04 167.807 163.04C167.327 163.04 166.94 162.903 166.647 162.63C166.36 162.35 166.217 161.997 166.217 161.57C166.217 161.083 166.4 160.707 166.767 160.44C167.134 160.167 167.647 160.03 168.307 160.03H169.147V159.74C169.147 159.393 169.064 159.133 168.897 158.96C168.73 158.78 168.454 158.69 168.067 158.69C167.527 158.69 167.037 158.84 166.597 159.14ZM176.818 158.1V158.99C176.492 158.797 176.072 158.7 175.558 158.7C175.325 158.7 175.138 158.753 174.998 158.86C174.865 158.967 174.798 159.107 174.798 159.28C174.798 159.327 174.802 159.373 174.808 159.42C174.822 159.46 174.842 159.503 174.868 159.55C174.895 159.59 174.918 159.627 174.938 159.66C174.965 159.687 175.005 159.717 175.058 159.75C175.112 159.783 175.152 159.813 175.178 159.84C175.212 159.86 175.262 159.887 175.328 159.92C175.402 159.953 175.455 159.98 175.488 160C175.522 160.013 175.578 160.04 175.658 160.08C175.745 160.113 175.805 160.137 175.838 160.15C176.232 160.323 176.538 160.52 176.758 160.74C176.985 160.953 177.098 161.24 177.098 161.6C177.098 162.053 176.938 162.41 176.618 162.67C176.298 162.923 175.865 163.05 175.318 163.05C174.718 163.05 174.218 162.95 173.818 162.75V161.82C174.285 162.107 174.768 162.25 175.268 162.25C175.528 162.25 175.728 162.197 175.868 162.09C176.015 161.983 176.088 161.843 176.088 161.67C176.088 161.523 176.032 161.393 175.918 161.28C175.805 161.16 175.688 161.073 175.568 161.02C175.455 160.96 175.258 160.87 174.978 160.75C174.185 160.423 173.788 159.943 173.788 159.31C173.788 158.863 173.955 158.513 174.288 158.26C174.622 158.007 175.038 157.88 175.538 157.88C176.085 157.88 176.512 157.953 176.818 158.1ZM181.268 160.1V159.92C181.254 159.54 181.151 159.24 180.958 159.02C180.764 158.793 180.488 158.68 180.128 158.68C179.794 158.68 179.508 158.803 179.268 159.05C179.028 159.29 178.878 159.64 178.818 160.1H181.268ZM181.898 161.85V162.73C181.524 162.943 181.031 163.05 180.418 163.05C179.631 163.05 179.004 162.813 178.538 162.34C178.071 161.867 177.838 161.247 177.838 160.48C177.838 159.667 178.051 159.03 178.478 158.57C178.904 158.103 179.448 157.87 180.108 157.87C180.754 157.87 181.268 158.073 181.648 158.48C182.028 158.88 182.218 159.46 182.218 160.22C182.218 160.427 182.198 160.643 182.158 160.87H178.828C178.894 161.31 179.081 161.647 179.388 161.88C179.694 162.113 180.081 162.23 180.548 162.23C181.088 162.23 181.538 162.103 181.898 161.85ZM185.762 162.21C186.135 162.21 186.448 162.053 186.702 161.74C186.955 161.42 187.082 161.01 187.082 160.51C187.082 159.937 186.955 159.497 186.702 159.19C186.448 158.877 186.125 158.72 185.732 158.72C185.385 158.72 185.072 158.86 184.792 159.14C184.518 159.42 184.382 159.85 184.382 160.43C184.382 161.03 184.515 161.477 184.782 161.77C185.048 162.063 185.375 162.21 185.762 162.21ZM184.382 155.93V158.7C184.742 158.14 185.252 157.86 185.912 157.86C186.552 157.86 187.075 158.1 187.482 158.58C187.888 159.06 188.092 159.697 188.092 160.49C188.092 161.203 187.898 161.813 187.512 162.32C187.125 162.82 186.595 163.07 185.922 163.07C185.248 163.07 184.735 162.79 184.382 162.23V163H183.392V155.93H184.382ZM192.342 160.1V159.92C192.329 159.54 192.225 159.24 192.032 159.02C191.839 158.793 191.562 158.68 191.202 158.68C190.869 158.68 190.582 158.803 190.342 159.05C190.102 159.29 189.952 159.64 189.892 160.1H192.342ZM192.972 161.85V162.73C192.599 162.943 192.105 163.05 191.492 163.05C190.705 163.05 190.079 162.813 189.612 162.34C189.145 161.867 188.912 161.247 188.912 160.48C188.912 159.667 189.125 159.03 189.552 158.57C189.979 158.103 190.522 157.87 191.182 157.87C191.829 157.87 192.342 158.073 192.722 158.48C193.102 158.88 193.292 159.46 193.292 160.22C193.292 160.427 193.272 160.643 193.232 160.87H189.902C189.969 161.31 190.155 161.647 190.462 161.88C190.769 162.113 191.155 162.23 191.622 162.23C192.162 162.23 192.612 162.103 192.972 161.85ZM197.336 158.1V158.99C197.009 158.797 196.589 158.7 196.076 158.7C195.843 158.7 195.656 158.753 195.516 158.86C195.383 158.967 195.316 159.107 195.316 159.28C195.316 159.327 195.319 159.373 195.326 159.42C195.339 159.46 195.359 159.503 195.386 159.55C195.413 159.59 195.436 159.627 195.456 159.66C195.483 159.687 195.523 159.717 195.576 159.75C195.629 159.783 195.669 159.813 195.696 159.84C195.729 159.86 195.779 159.887 195.846 159.92C195.919 159.953 195.973 159.98 196.006 160C196.039 160.013 196.096 160.04 196.176 160.08C196.263 160.113 196.323 160.137 196.356 160.15C196.749 160.323 197.056 160.52 197.276 160.74C197.503 160.953 197.616 161.24 197.616 161.6C197.616 162.053 197.456 162.41 197.136 162.67C196.816 162.923 196.383 163.05 195.836 163.05C195.236 163.05 194.736 162.95 194.336 162.75V161.82C194.803 162.107 195.286 162.25 195.786 162.25C196.046 162.25 196.246 162.197 196.386 162.09C196.533 161.983 196.606 161.843 196.606 161.67C196.606 161.523 196.549 161.393 196.436 161.28C196.323 161.16 196.206 161.073 196.086 161.02C195.973 160.96 195.776 160.87 195.496 160.75C194.703 160.423 194.306 159.943 194.306 159.31C194.306 158.863 194.473 158.513 194.806 158.26C195.139 158.007 195.556 157.88 196.056 157.88C196.603 157.88 197.029 157.953 197.336 158.1ZM201.305 160.74H200.545C200.172 160.74 199.889 160.813 199.695 160.96C199.509 161.107 199.415 161.293 199.415 161.52C199.415 161.753 199.489 161.937 199.635 162.07C199.782 162.203 199.995 162.27 200.275 162.27C200.595 162.27 200.845 162.183 201.025 162.01C201.212 161.83 201.305 161.597 201.305 161.31V160.74ZM198.755 159.14V158.19C199.149 157.963 199.669 157.85 200.315 157.85C201.642 157.85 202.305 158.493 202.305 159.78V163H201.335V162.4C201.075 162.827 200.619 163.04 199.965 163.04C199.485 163.04 199.099 162.903 198.805 162.63C198.519 162.35 198.375 161.997 198.375 161.57C198.375 161.083 198.559 160.707 198.925 160.44C199.292 160.167 199.805 160.03 200.465 160.03H201.305V159.74C201.305 159.393 201.222 159.133 201.055 158.96C200.889 158.78 200.612 158.69 200.225 158.69C199.685 158.69 199.195 158.84 198.755 159.14ZM204.606 157.93V158.82C204.852 158.193 205.296 157.88 205.936 157.88C206.029 157.88 206.132 157.89 206.246 157.91V158.87C206.106 158.81 205.949 158.78 205.776 158.78C205.436 158.78 205.156 158.93 204.936 159.23C204.716 159.53 204.606 159.887 204.606 160.3V163H203.626V157.93H204.606Z" fill="#2B2B2B"/>
<path d="M210.545 157.12V159.58H211.475C211.902 159.58 212.225 159.47 212.445 159.25C212.665 159.023 212.775 158.723 212.775 158.35C212.775 157.53 212.325 157.12 211.425 157.12H210.545ZM213.015 163L211.435 160.44H210.545V163H209.515V156.26H211.395C212.168 156.26 212.765 156.45 213.185 156.83C213.605 157.203 213.815 157.713 213.815 158.36C213.808 158.833 213.688 159.237 213.455 159.57C213.222 159.897 212.898 160.133 212.485 160.28L214.245 163H213.015ZM217.499 162.21C217.892 162.21 218.215 162.057 218.469 161.75C218.722 161.437 218.849 161 218.849 160.44C218.849 159.913 218.725 159.497 218.479 159.19C218.232 158.877 217.919 158.72 217.539 158.72C217.159 158.72 216.829 158.86 216.549 159.14C216.275 159.413 216.139 159.85 216.139 160.45C216.139 161.037 216.275 161.477 216.549 161.77C216.829 162.063 217.145 162.21 217.499 162.21ZM216.139 157.93V158.71C216.485 158.143 217.005 157.86 217.699 157.86C218.365 157.86 218.892 158.103 219.279 158.59C219.665 159.07 219.859 159.683 219.859 160.43C219.859 161.197 219.659 161.83 219.259 162.33C218.865 162.823 218.339 163.07 217.679 163.07C217.005 163.07 216.492 162.79 216.139 162.23V164.94H215.159V157.93H216.139ZM223.14 159.71C223.14 158.683 223.344 157.87 223.75 157.27C224.164 156.663 224.727 156.36 225.44 156.36C226.167 156.36 226.737 156.66 227.15 157.26C227.564 157.86 227.77 158.677 227.77 159.71C227.77 160.73 227.567 161.547 227.16 162.16C226.76 162.773 226.187 163.08 225.44 163.08C224.727 163.08 224.164 162.773 223.75 162.16C223.344 161.547 223.14 160.73 223.14 159.71ZM224.51 157.91C224.264 158.33 224.14 158.93 224.14 159.71C224.14 160.49 224.26 161.097 224.5 161.53C224.747 161.957 225.06 162.17 225.44 162.17C225.854 162.17 226.177 161.957 226.41 161.53C226.644 161.103 226.76 160.497 226.76 159.71C226.76 158.917 226.637 158.313 226.39 157.9C226.15 157.48 225.834 157.27 225.44 157.27C225.067 157.27 224.757 157.483 224.51 157.91ZM228.1 164.24L229.06 161.9H230.27L228.96 164.24H228.1ZM231.041 159.71C231.041 158.683 231.244 157.87 231.651 157.27C232.064 156.663 232.628 156.36 233.341 156.36C234.068 156.36 234.638 156.66 235.051 157.26C235.464 157.86 235.671 158.677 235.671 159.71C235.671 160.73 235.468 161.547 235.061 162.16C234.661 162.773 234.088 163.08 233.341 163.08C232.628 163.08 232.064 162.773 231.651 162.16C231.244 161.547 231.041 160.73 231.041 159.71ZM232.411 157.91C232.164 158.33 232.041 158.93 232.041 159.71C232.041 160.49 232.161 161.097 232.401 161.53C232.648 161.957 232.961 162.17 233.341 162.17C233.754 162.17 234.078 161.957 234.311 161.53C234.544 161.103 234.661 160.497 234.661 159.71C234.661 158.917 234.538 158.313 234.291 157.9C234.051 157.48 233.734 157.27 233.341 157.27C232.968 157.27 232.658 157.483 232.411 157.91ZM236.49 159.71C236.49 158.683 236.693 157.87 237.1 157.27C237.513 156.663 238.077 156.36 238.79 156.36C239.517 156.36 240.087 156.66 240.5 157.26C240.913 157.86 241.12 158.677 241.12 159.71C241.12 160.73 240.917 161.547 240.51 162.16C240.11 162.773 239.537 163.08 238.79 163.08C238.077 163.08 237.513 162.773 237.1 162.16C236.693 161.547 236.49 160.73 236.49 159.71ZM237.86 157.91C237.613 158.33 237.49 158.93 237.49 159.71C237.49 160.49 237.61 161.097 237.85 161.53C238.097 161.957 238.41 162.17 238.79 162.17C239.203 162.17 239.527 161.957 239.76 161.53C239.993 161.103 240.11 160.497 240.11 159.71C240.11 158.917 239.987 158.313 239.74 157.9C239.5 157.48 239.183 157.27 238.79 157.27C238.417 157.27 238.107 157.483 237.86 157.91ZM241.939 159.71C241.939 158.683 242.143 157.87 242.549 157.27C242.963 156.663 243.526 156.36 244.239 156.36C244.966 156.36 245.536 156.66 245.949 157.26C246.363 157.86 246.569 158.677 246.569 159.71C246.569 160.73 246.366 161.547 245.959 162.16C245.559 162.773 244.986 163.08 244.239 163.08C243.526 163.08 242.963 162.773 242.549 162.16C242.143 161.547 241.939 160.73 241.939 159.71ZM243.309 157.91C243.063 158.33 242.939 158.93 242.939 159.71C242.939 160.49 243.059 161.097 243.299 161.53C243.546 161.957 243.859 162.17 244.239 162.17C244.653 162.17 244.976 161.957 245.209 161.53C245.443 161.103 245.559 160.497 245.559 159.71C245.559 158.917 245.436 158.313 245.189 157.9C244.949 157.48 244.633 157.27 244.239 157.27C243.866 157.27 243.556 157.483 243.309 157.91ZM246.899 164.24L247.859 161.9H249.069L247.759 164.24H246.899ZM249.84 159.71C249.84 158.683 250.043 157.87 250.45 157.27C250.863 156.663 251.426 156.36 252.14 156.36C252.866 156.36 253.436 156.66 253.85 157.26C254.263 157.86 254.47 158.677 254.47 159.71C254.47 160.73 254.266 161.547 253.86 162.16C253.46 162.773 252.886 163.08 252.14 163.08C251.426 163.08 250.863 162.773 250.45 162.16C250.043 161.547 249.84 160.73 249.84 159.71ZM251.21 157.91C250.963 158.33 250.84 158.93 250.84 159.71C250.84 160.49 250.96 161.097 251.2 161.53C251.446 161.957 251.76 162.17 252.14 162.17C252.553 162.17 252.876 161.957 253.11 161.53C253.343 161.103 253.46 160.497 253.46 159.71C253.46 158.917 253.336 158.313 253.09 157.9C252.85 157.48 252.533 157.27 252.14 157.27C251.766 157.27 251.456 157.483 251.21 157.91ZM255.289 159.71C255.289 158.683 255.492 157.87 255.899 157.27C256.312 156.663 256.876 156.36 257.589 156.36C258.316 156.36 258.886 156.66 259.299 157.26C259.712 157.86 259.919 158.677 259.919 159.71C259.919 160.73 259.716 161.547 259.309 162.16C258.909 162.773 258.336 163.08 257.589 163.08C256.876 163.08 256.312 162.773 255.899 162.16C255.492 161.547 255.289 160.73 255.289 159.71ZM256.659 157.91C256.412 158.33 256.289 158.93 256.289 159.71C256.289 160.49 256.409 161.097 256.649 161.53C256.896 161.957 257.209 162.17 257.589 162.17C258.002 162.17 258.326 161.957 258.559 161.53C258.792 161.103 258.909 160.497 258.909 159.71C258.909 158.917 258.786 158.313 258.539 157.9C258.299 157.48 257.982 157.27 257.589 157.27C257.216 157.27 256.906 157.483 256.659 157.91ZM260.738 159.71C260.738 158.683 260.941 157.87 261.348 157.27C261.761 156.663 262.325 156.36 263.038 156.36C263.765 156.36 264.335 156.66 264.748 157.26C265.161 157.86 265.368 158.677 265.368 159.71C265.368 160.73 265.165 161.547 264.758 162.16C264.358 162.773 263.785 163.08 263.038 163.08C262.325 163.08 261.761 162.773 261.348 162.16C260.941 161.547 260.738 160.73 260.738 159.71ZM262.108 157.91C261.861 158.33 261.738 158.93 261.738 159.71C261.738 160.49 261.858 161.097 262.098 161.53C262.345 161.957 262.658 162.17 263.038 162.17C263.451 162.17 263.775 161.957 264.008 161.53C264.241 161.103 264.358 160.497 264.358 159.71C264.358 158.917 264.235 158.313 263.988 157.9C263.748 157.48 263.431 157.27 263.038 157.27C262.665 157.27 262.355 157.483 262.108 157.91Z" fill="#FF1934"/>
<path opacity="0.64" d="M60.904 202.968V199.608H61.552V202.952C61.552 203.645 61.376 204.171 61.024 204.528C60.6773 204.885 60.192 205.064 59.568 205.064C58.9547 205.064 58.4747 204.891 58.128 204.544C57.7813 204.192 57.608 203.683 57.608 203.016V199.608H58.256V203.008C58.256 203.504 58.3733 203.869 58.608 204.104C58.848 204.339 59.168 204.456 59.568 204.456C60.4587 204.456 60.904 203.96 60.904 202.968ZM64.9243 203.128H64.2203C63.8789 203.128 63.6229 203.195 63.4523 203.328C63.2816 203.461 63.1963 203.629 63.1963 203.832C63.1963 204.035 63.2629 204.2 63.3963 204.328C63.5296 204.451 63.7243 204.512 63.9803 204.512C64.2683 204.512 64.4976 204.432 64.6683 204.272C64.8389 204.107 64.9243 203.899 64.9243 203.648V203.128ZM62.8283 201.792V201.16C63.1323 200.973 63.5323 200.88 64.0283 200.88C65.0469 200.88 65.5563 201.397 65.5563 202.432V205H64.9323V204.52C64.7243 204.867 64.3456 205.04 63.7963 205.04C63.4176 205.04 63.1109 204.928 62.8763 204.704C62.6469 204.48 62.5323 204.197 62.5323 203.856C62.5323 203.467 62.6789 203.165 62.9723 202.952C63.2709 202.733 63.6763 202.624 64.1883 202.624H64.9243V202.416C64.9243 202.096 64.8523 201.856 64.7083 201.696C64.5643 201.531 64.3216 201.448 63.9803 201.448C63.5483 201.448 63.1643 201.563 62.8283 201.792ZM67.3018 200.944V201.648C67.5418 201.141 67.9684 200.888 68.5818 200.888C68.9764 200.888 69.2911 201.008 69.5258 201.248C69.7604 201.488 69.8778 201.808 69.8778 202.208V205H69.2458V202.376C69.2458 202.077 69.1684 201.851 69.0138 201.696C68.8644 201.536 68.6671 201.456 68.4218 201.456C68.1178 201.456 67.8538 201.573 67.6298 201.808C67.4111 202.043 67.3018 202.368 67.3018 202.784V205H66.6778V200.944H67.3018ZM72.5181 204.336C72.8114 204.336 73.0701 204.224 73.2941 204C73.5234 203.771 73.6381 203.432 73.6381 202.984C73.6381 202.467 73.5287 202.083 73.3101 201.832C73.0914 201.581 72.8381 201.456 72.5501 201.456C72.2034 201.456 71.9287 201.595 71.7261 201.872C71.5234 202.144 71.4221 202.501 71.4221 202.944C71.4221 203.397 71.5341 203.744 71.7581 203.984C71.9821 204.219 72.2354 204.336 72.5181 204.336ZM73.6381 200.944H74.2701V204.672C74.2701 205.291 74.0994 205.755 73.7581 206.064C73.4167 206.379 72.9767 206.536 72.4381 206.536C71.9474 206.536 71.5287 206.453 71.1821 206.288V205.656C71.5234 205.853 71.9234 205.952 72.3821 205.952C72.7714 205.952 73.0781 205.848 73.3021 205.64C73.5261 205.432 73.6381 205.107 73.6381 204.664V204.208C73.3714 204.667 72.9741 204.896 72.4461 204.896C71.9821 204.896 71.5847 204.725 71.2541 204.384C70.9287 204.043 70.7661 203.568 70.7661 202.96C70.7661 202.357 70.9181 201.861 71.2221 201.472C71.5261 201.083 71.9234 200.888 72.4141 200.888C72.9687 200.888 73.3767 201.131 73.6381 201.616V200.944ZM80.4618 199.608V200.176H79.0058V205H78.3578V200.176H76.9018V199.608H80.4618ZM83.7212 200.944H84.3532V205H83.7212V204.296C83.5079 204.797 83.0839 205.048 82.4492 205.048C82.0492 205.048 81.7319 204.931 81.4972 204.696C81.2679 204.456 81.1532 204.136 81.1532 203.736V200.944H81.7852V203.576C81.7852 203.869 81.8599 204.093 82.0092 204.248C82.1585 204.403 82.3612 204.48 82.6172 204.48C82.9532 204.48 83.2199 204.363 83.4172 204.128C83.6199 203.893 83.7212 203.576 83.7212 203.176V200.944ZM86.1455 200.944V201.648C86.3855 201.141 86.8122 200.888 87.4255 200.888C87.8202 200.888 88.1348 201.008 88.3695 201.248C88.6042 201.488 88.7215 201.808 88.7215 202.208V205H88.0895V202.376C88.0895 202.077 88.0122 201.851 87.8575 201.696C87.7082 201.536 87.5108 201.456 87.2655 201.456C86.9615 201.456 86.6975 201.573 86.4735 201.808C86.2548 202.043 86.1455 202.368 86.1455 202.784V205H85.5215V200.944H86.1455ZM92.0258 203.128H91.3218C90.9805 203.128 90.7245 203.195 90.5538 203.328C90.3831 203.461 90.2978 203.629 90.2978 203.832C90.2978 204.035 90.3645 204.2 90.4978 204.328C90.6311 204.451 90.8258 204.512 91.0818 204.512C91.3698 204.512 91.5991 204.432 91.7698 204.272C91.9405 204.107 92.0258 203.899 92.0258 203.648V203.128ZM89.9298 201.792V201.16C90.2338 200.973 90.6338 200.88 91.1298 200.88C92.1485 200.88 92.6578 201.397 92.6578 202.432V205H92.0338V204.52C91.8258 204.867 91.4471 205.04 90.8978 205.04C90.5191 205.04 90.2125 204.928 89.9778 204.704C89.7485 204.48 89.6338 204.197 89.6338 203.856C89.6338 203.467 89.7805 203.165 90.0738 202.952C90.3725 202.733 90.7778 202.624 91.2898 202.624H92.0258V202.416C92.0258 202.096 91.9538 201.856 91.8098 201.696C91.6658 201.531 91.4231 201.448 91.0818 201.448C90.6498 201.448 90.2658 201.563 89.9298 201.792ZM93.8113 205V200.944H94.4433V205H93.8113ZM93.8273 199.968C93.7526 199.888 93.7153 199.789 93.7153 199.672C93.7153 199.555 93.7526 199.456 93.8273 199.376C93.9073 199.296 94.006 199.256 94.1233 199.256C94.2406 199.256 94.3393 199.296 94.4193 199.376C94.4993 199.456 94.5393 199.555 94.5393 199.672C94.5393 199.789 94.4993 199.888 94.4193 199.968C94.3393 200.043 94.2406 200.08 94.1233 200.08C94.006 200.08 93.9073 200.043 93.8273 199.968Z" fill="#2B2B2B"/>
<path d="M245.248 200.168V202.32H246.064C246.432 202.32 246.712 202.221 246.904 202.024C247.102 201.821 247.2 201.563 247.2 201.248C247.2 200.528 246.798 200.168 245.992 200.168H245.248ZM248.184 205H247.408L246.088 202.872H246.024H245.248V205H244.6V199.608H245.952C246.576 199.608 247.048 199.755 247.368 200.048C247.694 200.341 247.856 200.747 247.856 201.264C247.846 201.637 247.747 201.955 247.56 202.216C247.374 202.477 247.11 202.661 246.768 202.768L248.184 205ZM250.735 204.488C251.077 204.488 251.357 204.355 251.575 204.088C251.794 203.816 251.903 203.432 251.903 202.936C251.903 202.493 251.797 202.136 251.583 201.864C251.37 201.592 251.101 201.456 250.775 201.456C250.45 201.456 250.167 201.576 249.927 201.816C249.693 202.051 249.575 202.437 249.575 202.976C249.575 203.493 249.695 203.875 249.935 204.12C250.175 204.365 250.442 204.488 250.735 204.488ZM249.575 200.944V201.56C249.858 201.107 250.277 200.88 250.831 200.88C251.37 200.88 251.791 201.077 252.095 201.472C252.405 201.861 252.559 202.349 252.559 202.936C252.559 203.56 252.397 204.072 252.071 204.472C251.751 204.867 251.333 205.064 250.815 205.064C250.282 205.064 249.869 204.837 249.575 204.384V206.576H248.951V200.944H249.575ZM255.003 201.2V200.52L256.243 199.768H256.835V205H256.211V200.456L255.003 201.2ZM257.789 202.368C257.789 201.547 257.955 200.899 258.285 200.424C258.621 199.944 259.061 199.704 259.605 199.704C260.171 199.704 260.619 199.944 260.949 200.424C261.285 200.899 261.453 201.547 261.453 202.368C261.453 203.184 261.293 203.837 260.973 204.328C260.653 204.819 260.197 205.064 259.605 205.064C259.056 205.064 258.616 204.819 258.285 204.328C257.955 203.837 257.789 203.184 257.789 202.368ZM258.781 200.848C258.552 201.205 258.437 201.712 258.437 202.368C258.437 203.024 258.549 203.539 258.773 203.912C258.997 204.28 259.275 204.464 259.605 204.464C259.973 204.464 260.264 204.283 260.477 203.92C260.696 203.557 260.805 203.04 260.805 202.368C260.805 201.701 260.691 201.192 260.461 200.84C260.237 200.483 259.952 200.304 259.605 200.304C259.285 200.304 259.011 200.485 258.781 200.848ZM262.141 202.368C262.141 201.547 262.306 200.899 262.637 200.424C262.973 199.944 263.413 199.704 263.957 199.704C264.522 199.704 264.97 199.944 265.301 200.424C265.637 200.899 265.805 201.547 265.805 202.368C265.805 203.184 265.645 203.837 265.325 204.328C265.005 204.819 264.549 205.064 263.957 205.064C263.408 205.064 262.968 204.819 262.637 204.328C262.306 203.837 262.141 203.184 262.141 202.368ZM263.133 200.848C262.904 201.205 262.789 201.712 262.789 202.368C262.789 203.024 262.901 203.539 263.125 203.912C263.349 204.28 263.626 204.464 263.957 204.464C264.325 204.464 264.616 204.283 264.829 203.92C265.048 203.557 265.157 203.04 265.157 202.368C265.157 201.701 265.042 201.192 264.813 200.84C264.589 200.483 264.304 200.304 263.957 200.304C263.637 200.304 263.362 200.485 263.133 200.848ZM266.084 205.984L266.828 204.192H267.668L266.636 205.984H266.084ZM268.289 202.368C268.289 201.547 268.455 200.899 268.785 200.424C269.121 199.944 269.561 199.704 270.105 199.704C270.671 199.704 271.119 199.944 271.449 200.424C271.785 200.899 271.953 201.547 271.953 202.368C271.953 203.184 271.793 203.837 271.473 204.328C271.153 204.819 270.697 205.064 270.105 205.064C269.556 205.064 269.116 204.819 268.785 204.328C268.455 203.837 268.289 203.184 268.289 202.368ZM269.281 200.848C269.052 201.205 268.937 201.712 268.937 202.368C268.937 203.024 269.049 203.539 269.273 203.912C269.497 204.28 269.775 204.464 270.105 204.464C270.473 204.464 270.764 204.283 270.977 203.92C271.196 203.557 271.305 203.04 271.305 202.368C271.305 201.701 271.191 201.192 270.961 200.84C270.737 200.483 270.452 200.304 270.105 200.304C269.785 200.304 269.511 200.485 269.281 200.848ZM272.641 202.368C272.641 201.547 272.806 200.899 273.137 200.424C273.473 199.944 273.913 199.704 274.457 199.704C275.022 199.704 275.47 199.944 275.801 200.424C276.137 200.899 276.305 201.547 276.305 202.368C276.305 203.184 276.145 203.837 275.825 204.328C275.505 204.819 275.049 205.064 274.457 205.064C273.908 205.064 273.468 204.819 273.137 204.328C272.806 203.837 272.641 203.184 272.641 202.368ZM273.633 200.848C273.404 201.205 273.289 201.712 273.289 202.368C273.289 203.024 273.401 203.539 273.625 203.912C273.849 204.28 274.126 204.464 274.457 204.464C274.825 204.464 275.116 204.283 275.329 203.92C275.548 203.557 275.657 203.04 275.657 202.368C275.657 201.701 275.542 201.192 275.313 200.84C275.089 200.483 274.804 200.304 274.457 200.304C274.137 200.304 273.862 200.485 273.633 200.848ZM276.992 202.368C276.992 201.547 277.158 200.899 277.488 200.424C277.824 199.944 278.264 199.704 278.808 199.704C279.374 199.704 279.822 199.944 280.152 200.424C280.488 200.899 280.656 201.547 280.656 202.368C280.656 203.184 280.496 203.837 280.176 204.328C279.856 204.819 279.4 205.064 278.808 205.064C278.259 205.064 277.819 204.819 277.488 204.328C277.158 203.837 276.992 203.184 276.992 202.368ZM277.984 200.848C277.755 201.205 277.64 201.712 277.64 202.368C277.64 203.024 277.752 203.539 277.976 203.912C278.2 204.28 278.478 204.464 278.808 204.464C279.176 204.464 279.467 204.283 279.68 203.92C279.899 203.557 280.008 203.04 280.008 202.368C280.008 201.701 279.894 201.192 279.664 200.84C279.44 200.483 279.155 200.304 278.808 200.304C278.488 200.304 278.214 200.485 277.984 200.848Z" fill="#2B2B2B"/>
<path opacity="0.64" d="M60.704 221.608V222.176H59.248V227H58.6V222.176H57.144V221.608H60.704ZM63.6274 225.128H62.9234C62.582 225.128 62.326 225.195 62.1554 225.328C61.9847 225.461 61.8994 225.629 61.8994 225.832C61.8994 226.035 61.966 226.2 62.0994 226.328C62.2327 226.451 62.4274 226.512 62.6834 226.512C62.9714 226.512 63.2007 226.432 63.3714 226.272C63.542 226.107 63.6274 225.899 63.6274 225.648V225.128ZM61.5314 223.792V223.16C61.8354 222.973 62.2354 222.88 62.7314 222.88C63.75 222.88 64.2594 223.397 64.2594 224.432V227H63.6354V226.52C63.4274 226.867 63.0487 227.04 62.4994 227.04C62.1207 227.04 61.814 226.928 61.5794 226.704C61.35 226.48 61.2354 226.197 61.2354 225.856C61.2354 225.467 61.382 225.165 61.6754 224.952C61.974 224.733 62.3794 224.624 62.8914 224.624H63.6274V224.416C63.6274 224.096 63.5554 223.856 63.4114 223.696C63.2674 223.531 63.0247 223.448 62.6834 223.448C62.2514 223.448 61.8674 223.563 61.5314 223.792ZM67.2289 226.488C67.5542 226.488 67.8235 226.352 68.0369 226.08C68.2502 225.808 68.3569 225.453 68.3569 225.016C68.3569 224.515 68.2449 224.131 68.0209 223.864C67.8022 223.592 67.5249 223.456 67.1889 223.456C66.9009 223.456 66.6369 223.576 66.3969 223.816C66.1569 224.056 66.0369 224.432 66.0369 224.944C66.0369 225.483 66.1515 225.875 66.3809 226.12C66.6155 226.365 66.8982 226.488 67.2289 226.488ZM66.0369 221.344V223.552C66.3302 223.104 66.7409 222.88 67.2689 222.88C67.7809 222.88 68.1995 223.077 68.5249 223.472C68.8502 223.861 69.0129 224.373 69.0129 225.008C69.0129 225.579 68.8582 226.064 68.5489 226.464C68.2449 226.864 67.8235 227.064 67.2849 227.064C66.7409 227.064 66.3249 226.843 66.0369 226.4V227H65.4049V221.344H66.0369ZM72.4634 222.944H73.0954V227H72.4634V226.296C72.25 226.797 71.826 227.048 71.1914 227.048C70.7914 227.048 70.474 226.931 70.2394 226.696C70.01 226.456 69.8954 226.136 69.8954 225.736V222.944H70.5274V225.576C70.5274 225.869 70.602 226.093 70.7514 226.248C70.9007 226.403 71.1034 226.48 71.3594 226.48C71.6954 226.48 71.962 226.363 72.1594 226.128C72.362 225.893 72.4634 225.576 72.4634 225.176V222.944ZM74.8877 222.944V223.648C75.1277 223.141 75.5544 222.888 76.1677 222.888C76.5624 222.888 76.877 223.008 77.1117 223.248C77.3464 223.488 77.4637 223.808 77.4637 224.208V227H76.8317V224.376C76.8317 224.077 76.7544 223.851 76.5997 223.696C76.4504 223.536 76.253 223.456 76.0077 223.456C75.7037 223.456 75.4397 223.573 75.2157 223.808C74.997 224.043 74.8877 224.368 74.8877 224.784V227H74.2637V222.944H74.8877ZM80.104 226.336C80.3973 226.336 80.656 226.224 80.88 226C81.1093 225.771 81.224 225.432 81.224 224.984C81.224 224.467 81.1147 224.083 80.896 223.832C80.6773 223.581 80.424 223.456 80.136 223.456C79.7893 223.456 79.5147 223.595 79.312 223.872C79.1093 224.144 79.008 224.501 79.008 224.944C79.008 225.397 79.12 225.744 79.344 225.984C79.568 226.219 79.8213 226.336 80.104 226.336ZM81.224 222.944H81.856V226.672C81.856 227.291 81.6853 227.755 81.344 228.064C81.0027 228.379 80.5627 228.536 80.024 228.536C79.5333 228.536 79.1147 228.453 78.768 228.288V227.656C79.1093 227.853 79.5093 227.952 79.968 227.952C80.3573 227.952 80.664 227.848 80.888 227.64C81.112 227.432 81.224 227.107 81.224 226.664V226.208C80.9573 226.667 80.56 226.896 80.032 226.896C79.568 226.896 79.1707 226.725 78.84 226.384C78.5147 226.043 78.352 225.568 78.352 224.96C78.352 224.357 78.504 223.861 78.808 223.472C79.112 223.083 79.5093 222.888 80 222.888C80.5547 222.888 80.9627 223.131 81.224 223.616V222.944ZM85.1586 225.128H84.4546C84.1133 225.128 83.8573 225.195 83.6866 225.328C83.516 225.461 83.4306 225.629 83.4306 225.832C83.4306 226.035 83.4973 226.2 83.6306 226.328C83.764 226.451 83.9586 226.512 84.2146 226.512C84.5026 226.512 84.732 226.432 84.9026 226.272C85.0733 226.107 85.1586 225.899 85.1586 225.648V225.128ZM83.0626 223.792V223.16C83.3666 222.973 83.7666 222.88 84.2626 222.88C85.2813 222.88 85.7906 223.397 85.7906 224.432V227H85.1666V226.52C84.9586 226.867 84.58 227.04 84.0306 227.04C83.652 227.04 83.3453 226.928 83.1106 226.704C82.8813 226.48 82.7666 226.197 82.7666 225.856C82.7666 225.467 82.9133 225.165 83.2066 224.952C83.5053 224.733 83.9106 224.624 84.4226 224.624H85.1586V224.416C85.1586 224.096 85.0866 223.856 84.9426 223.696C84.7986 223.531 84.556 223.448 84.2146 223.448C83.7826 223.448 83.3986 223.563 83.0626 223.792ZM87.5361 222.944V223.648C87.7761 223.141 88.2028 222.888 88.8161 222.888C89.2108 222.888 89.5255 223.008 89.7601 223.248C89.9948 223.488 90.1121 223.808 90.1121 224.208V227H89.4801V224.376C89.4801 224.077 89.4028 223.851 89.2481 223.696C89.0988 223.536 88.9015 223.456 88.6561 223.456C88.3521 223.456 88.0881 223.573 87.8641 223.808C87.6455 224.043 87.5361 224.368 87.5361 224.784V227H86.9121V222.944H87.5361Z" fill="#2B2B2B"/>
<path d="M245.248 222.168V224.32H246.064C246.432 224.32 246.712 224.221 246.904 224.024C247.102 223.821 247.2 223.563 247.2 223.248C247.2 222.528 246.798 222.168 245.992 222.168H245.248ZM248.184 227H247.408L246.088 224.872H246.024H245.248V227H244.6V221.608H245.952C246.576 221.608 247.048 221.755 247.368 222.048C247.694 222.341 247.856 222.747 247.856 223.264C247.846 223.637 247.747 223.955 247.56 224.216C247.374 224.477 247.11 224.661 246.768 224.768L248.184 227ZM250.735 226.488C251.077 226.488 251.357 226.355 251.575 226.088C251.794 225.816 251.903 225.432 251.903 224.936C251.903 224.493 251.797 224.136 251.583 223.864C251.37 223.592 251.101 223.456 250.775 223.456C250.45 223.456 250.167 223.576 249.927 223.816C249.693 224.051 249.575 224.437 249.575 224.976C249.575 225.493 249.695 225.875 249.935 226.12C250.175 226.365 250.442 226.488 250.735 226.488ZM249.575 222.944V223.56C249.858 223.107 250.277 222.88 250.831 222.88C251.37 222.88 251.791 223.077 252.095 223.472C252.405 223.861 252.559 224.349 252.559 224.936C252.559 225.56 252.397 226.072 252.071 226.472C251.751 226.867 251.333 227.064 250.815 227.064C250.282 227.064 249.869 226.837 249.575 226.384V228.576H248.951V222.944H249.575ZM255.003 223.2V222.52L256.243 221.768H256.835V227H256.211V222.456L255.003 223.2ZM257.789 224.368C257.789 223.547 257.955 222.899 258.285 222.424C258.621 221.944 259.061 221.704 259.605 221.704C260.171 221.704 260.619 221.944 260.949 222.424C261.285 222.899 261.453 223.547 261.453 224.368C261.453 225.184 261.293 225.837 260.973 226.328C260.653 226.819 260.197 227.064 259.605 227.064C259.056 227.064 258.616 226.819 258.285 226.328C257.955 225.837 257.789 225.184 257.789 224.368ZM258.781 222.848C258.552 223.205 258.437 223.712 258.437 224.368C258.437 225.024 258.549 225.539 258.773 225.912C258.997 226.28 259.275 226.464 259.605 226.464C259.973 226.464 260.264 226.283 260.477 225.92C260.696 225.557 260.805 225.04 260.805 224.368C260.805 223.701 260.691 223.192 260.461 222.84C260.237 222.483 259.952 222.304 259.605 222.304C259.285 222.304 259.011 222.485 258.781 222.848ZM262.141 224.368C262.141 223.547 262.306 222.899 262.637 222.424C262.973 221.944 263.413 221.704 263.957 221.704C264.522 221.704 264.97 221.944 265.301 222.424C265.637 222.899 265.805 223.547 265.805 224.368C265.805 225.184 265.645 225.837 265.325 226.328C265.005 226.819 264.549 227.064 263.957 227.064C263.408 227.064 262.968 226.819 262.637 226.328C262.306 225.837 262.141 225.184 262.141 224.368ZM263.133 222.848C262.904 223.205 262.789 223.712 262.789 224.368C262.789 225.024 262.901 225.539 263.125 225.912C263.349 226.28 263.626 226.464 263.957 226.464C264.325 226.464 264.616 226.283 264.829 225.92C265.048 225.557 265.157 225.04 265.157 224.368C265.157 223.701 265.042 223.192 264.813 222.84C264.589 222.483 264.304 222.304 263.957 222.304C263.637 222.304 263.362 222.485 263.133 222.848ZM266.084 227.984L266.828 226.192H267.668L266.636 227.984H266.084ZM268.289 224.368C268.289 223.547 268.455 222.899 268.785 222.424C269.121 221.944 269.561 221.704 270.105 221.704C270.671 221.704 271.119 221.944 271.449 222.424C271.785 222.899 271.953 223.547 271.953 224.368C271.953 225.184 271.793 225.837 271.473 226.328C271.153 226.819 270.697 227.064 270.105 227.064C269.556 227.064 269.116 226.819 268.785 226.328C268.455 225.837 268.289 225.184 268.289 224.368ZM269.281 222.848C269.052 223.205 268.937 223.712 268.937 224.368C268.937 225.024 269.049 225.539 269.273 225.912C269.497 226.28 269.775 226.464 270.105 226.464C270.473 226.464 270.764 226.283 270.977 225.92C271.196 225.557 271.305 225.04 271.305 224.368C271.305 223.701 271.191 223.192 270.961 222.84C270.737 222.483 270.452 222.304 270.105 222.304C269.785 222.304 269.511 222.485 269.281 222.848ZM272.641 224.368C272.641 223.547 272.806 222.899 273.137 222.424C273.473 221.944 273.913 221.704 274.457 221.704C275.022 221.704 275.47 221.944 275.801 222.424C276.137 222.899 276.305 223.547 276.305 224.368C276.305 225.184 276.145 225.837 275.825 226.328C275.505 226.819 275.049 227.064 274.457 227.064C273.908 227.064 273.468 226.819 273.137 226.328C272.806 225.837 272.641 225.184 272.641 224.368ZM273.633 222.848C273.404 223.205 273.289 223.712 273.289 224.368C273.289 225.024 273.401 225.539 273.625 225.912C273.849 226.28 274.126 226.464 274.457 226.464C274.825 226.464 275.116 226.283 275.329 225.92C275.548 225.557 275.657 225.04 275.657 224.368C275.657 223.701 275.542 223.192 275.313 222.84C275.089 222.483 274.804 222.304 274.457 222.304C274.137 222.304 273.862 222.485 273.633 222.848ZM276.992 224.368C276.992 223.547 277.158 222.899 277.488 222.424C277.824 221.944 278.264 221.704 278.808 221.704C279.374 221.704 279.822 221.944 280.152 222.424C280.488 222.899 280.656 223.547 280.656 224.368C280.656 225.184 280.496 225.837 280.176 226.328C279.856 226.819 279.4 227.064 278.808 227.064C278.259 227.064 277.819 226.819 277.488 226.328C277.158 225.837 276.992 225.184 276.992 224.368ZM277.984 222.848C277.755 223.205 277.64 223.712 277.64 224.368C277.64 225.024 277.752 225.539 277.976 225.912C278.2 226.28 278.478 226.464 278.808 226.464C279.176 226.464 279.467 226.283 279.68 225.92C279.899 225.557 280.008 225.04 280.008 224.368C280.008 223.701 279.894 223.192 279.664 222.84C279.44 222.483 279.155 222.304 278.808 222.304C278.488 222.304 278.214 222.485 277.984 222.848Z" fill="#2B2B2B"/>
<mask id="path-27-inside-1_1124_4113" fill="white">
<path d="M57 236H281V258H57V236Z"/>
</mask>
<path d="M281 257H57V259H281V257Z" fill="#CCCCCC" mask="url(#path-27-inside-1_1124_4113)"/>
<path opacity="0.64" d="M57.616 249V243.608H58.264V249H57.616ZM59.192 246.336L61.36 249H60.52L58.392 246.336L60.448 243.608H61.248L59.192 246.336ZM64.7539 246.712V246.552C64.7539 246.216 64.6633 245.949 64.4819 245.752C64.3006 245.549 64.0499 245.448 63.7299 245.448C63.4259 245.448 63.1673 245.557 62.9539 245.776C62.7406 245.995 62.6153 246.307 62.5779 246.712H64.7539ZM65.1299 248.2V248.792C64.8153 248.957 64.4313 249.04 63.9779 249.04C63.3646 249.04 62.8686 248.853 62.4899 248.48C62.1166 248.101 61.9299 247.603 61.9299 246.984C61.9299 246.339 62.0979 245.829 62.4339 245.456C62.7699 245.083 63.2019 244.896 63.7299 244.896C64.2366 244.896 64.6393 245.059 64.9379 245.384C65.2366 245.709 65.3859 246.171 65.3859 246.768C65.3859 246.939 65.3726 247.096 65.3459 247.24H62.5779C62.6259 247.64 62.7779 247.947 63.0339 248.16C63.2899 248.373 63.6259 248.48 64.0419 248.48C64.4953 248.48 64.8579 248.387 65.1299 248.2ZM66.3496 249V243.376H66.9736V249H66.3496ZM67.7976 246.872L69.4456 249H68.6856L67.0536 246.872L68.6456 244.944H69.3976L67.7976 246.872ZM72.7134 244.944H73.3454V249H72.7134V248.296C72.5 248.797 72.076 249.048 71.4414 249.048C71.0414 249.048 70.724 248.931 70.4894 248.696C70.26 248.456 70.1454 248.136 70.1454 247.736V244.944H70.7774V247.576C70.7774 247.869 70.852 248.093 71.0014 248.248C71.1507 248.403 71.3534 248.48 71.6094 248.48C71.9454 248.48 72.212 248.363 72.4094 248.128C72.612 247.893 72.7134 247.576 72.7134 247.176V244.944ZM75.1377 244.944V245.656C75.351 245.155 75.719 244.904 76.2417 244.904C76.3377 244.904 76.4124 244.909 76.4657 244.92V245.544C76.3537 245.507 76.239 245.488 76.1217 245.488C75.839 245.488 75.6044 245.619 75.4177 245.88C75.231 246.141 75.1377 246.443 75.1377 246.784V249H74.5057L74.5137 244.944H75.1377ZM79.3071 247.128H78.6031C78.2617 247.128 78.0057 247.195 77.8351 247.328C77.6644 247.461 77.5791 247.629 77.5791 247.832C77.5791 248.035 77.6457 248.2 77.7791 248.328C77.9124 248.451 78.1071 248.512 78.3631 248.512C78.6511 248.512 78.8804 248.432 79.0511 248.272C79.2217 248.107 79.3071 247.899 79.3071 247.648V247.128ZM77.2111 245.792V245.16C77.5151 244.973 77.9151 244.88 78.4111 244.88C79.4297 244.88 79.9391 245.397 79.9391 246.432V249H79.3151V248.52C79.1071 248.867 78.7284 249.04 78.1791 249.04C77.8004 249.04 77.4937 248.928 77.2591 248.704C77.0297 248.48 76.9151 248.197 76.9151 247.856C76.9151 247.467 77.0617 247.165 77.3551 246.952C77.6537 246.733 78.0591 246.624 78.5711 246.624H79.3071V246.416C79.3071 246.096 79.2351 245.856 79.0911 245.696C78.9471 245.531 78.7044 245.448 78.3631 245.448C77.9311 245.448 77.5471 245.563 77.2111 245.792ZM81.6846 244.944V245.648C81.9246 245.141 82.3512 244.888 82.9646 244.888C83.3592 244.888 83.6739 245.008 83.9086 245.248C84.1432 245.488 84.2606 245.808 84.2606 246.208V249H83.6286V246.376C83.6286 246.077 83.5512 245.851 83.3966 245.696C83.2472 245.536 83.0499 245.456 82.8046 245.456C82.5006 245.456 82.2366 245.573 82.0126 245.808C81.7939 246.043 81.6846 246.368 81.6846 246.784V249H81.0606V244.944H81.6846ZM86.9009 248.336C87.1942 248.336 87.4529 248.224 87.6769 248C87.9062 247.771 88.0209 247.432 88.0209 246.984C88.0209 246.467 87.9115 246.083 87.6929 245.832C87.4742 245.581 87.2209 245.456 86.9329 245.456C86.5862 245.456 86.3115 245.595 86.1089 245.872C85.9062 246.144 85.8049 246.501 85.8049 246.944C85.8049 247.397 85.9169 247.744 86.1409 247.984C86.3649 248.219 86.6182 248.336 86.9009 248.336ZM88.0209 244.944H88.6529V248.672C88.6529 249.291 88.4822 249.755 88.1409 250.064C87.7995 250.379 87.3595 250.536 86.8209 250.536C86.3302 250.536 85.9115 250.453 85.5649 250.288V249.656C85.9062 249.853 86.3062 249.952 86.7649 249.952C87.1542 249.952 87.4609 249.848 87.6849 249.64C87.9089 249.432 88.0209 249.107 88.0209 248.664V248.208C87.7542 248.667 87.3569 248.896 86.8289 248.896C86.3649 248.896 85.9675 248.725 85.6369 248.384C85.3115 248.043 85.1489 247.568 85.1489 246.96C85.1489 246.357 85.3009 245.861 85.6049 245.472C85.9089 245.083 86.3062 244.888 86.7969 244.888C87.3515 244.888 87.7595 245.131 88.0209 245.616V244.944ZM91.9555 247.128H91.2515C90.9102 247.128 90.6542 247.195 90.4835 247.328C90.3128 247.461 90.2275 247.629 90.2275 247.832C90.2275 248.035 90.2942 248.2 90.4275 248.328C90.5608 248.451 90.7555 248.512 91.0115 248.512C91.2995 248.512 91.5288 248.432 91.6995 248.272C91.8702 248.107 91.9555 247.899 91.9555 247.648V247.128ZM89.8595 245.792V245.16C90.1635 244.973 90.5635 244.88 91.0595 244.88C92.0782 244.88 92.5875 245.397 92.5875 246.432V249H91.9635V248.52C91.7555 248.867 91.3768 249.04 90.8275 249.04C90.4488 249.04 90.1422 248.928 89.9075 248.704C89.6782 248.48 89.5635 248.197 89.5635 247.856C89.5635 247.467 89.7102 247.165 90.0035 246.952C90.3022 246.733 90.7075 246.624 91.2195 246.624H91.9555V246.416C91.9555 246.096 91.8835 245.856 91.7395 245.696C91.5955 245.531 91.3528 245.448 91.0115 245.448C90.5795 245.448 90.1955 245.563 89.8595 245.792ZM94.333 244.944V245.648C94.573 245.141 94.9997 244.888 95.613 244.888C96.0077 244.888 96.3223 245.008 96.557 245.248C96.7917 245.488 96.909 245.808 96.909 246.208V249H96.277V246.376C96.277 246.077 96.1997 245.851 96.045 245.696C95.8957 245.536 95.6983 245.456 95.453 245.456C95.149 245.456 94.885 245.573 94.661 245.808C94.4423 246.043 94.333 246.368 94.333 246.784V249H93.709V244.944H94.333ZM101.102 248.896L99.4624 244.944H100.174L100.702 246.28L101.414 248.12C101.457 247.981 101.67 247.368 102.054 246.28L102.526 244.944H103.206L101.742 248.896C101.534 249.445 101.286 249.832 100.998 250.056C100.716 250.28 100.39 250.392 100.022 250.392C99.8838 250.392 99.7718 250.379 99.6864 250.352V249.784C99.7664 249.805 99.8571 249.816 99.9584 249.816C100.497 249.816 100.878 249.509 101.102 248.896ZM106.112 247.128H105.408C105.066 247.128 104.81 247.195 104.64 247.328C104.469 247.461 104.384 247.629 104.384 247.832C104.384 248.035 104.45 248.2 104.584 248.328C104.717 248.451 104.912 248.512 105.168 248.512C105.456 248.512 105.685 248.432 105.856 248.272C106.026 248.107 106.112 247.899 106.112 247.648V247.128ZM104.016 245.792V245.16C104.32 244.973 104.72 244.88 105.216 244.88C106.234 244.88 106.744 245.397 106.744 246.432V249H106.12V248.52C105.912 248.867 105.533 249.04 104.984 249.04C104.605 249.04 104.298 248.928 104.064 248.704C103.834 248.48 103.72 248.197 103.72 247.856C103.72 247.467 103.866 247.165 104.16 246.952C104.458 246.733 104.864 246.624 105.376 246.624H106.112V246.416C106.112 246.096 106.04 245.856 105.896 245.696C105.752 245.531 105.509 245.448 105.168 245.448C104.736 245.448 104.352 245.563 104.016 245.792ZM108.489 244.944V245.648C108.729 245.141 109.156 244.888 109.769 244.888C110.164 244.888 110.479 245.008 110.713 245.248C110.948 245.488 111.065 245.808 111.065 246.208V249H110.433V246.376C110.433 246.077 110.356 245.851 110.201 245.696C110.052 245.536 109.855 245.456 109.609 245.456C109.305 245.456 109.041 245.573 108.817 245.808C108.599 246.043 108.489 246.368 108.489 246.784V249H107.865V244.944H108.489ZM113.706 248.336C113.999 248.336 114.258 248.224 114.482 248C114.711 247.771 114.826 247.432 114.826 246.984C114.826 246.467 114.716 246.083 114.498 245.832C114.279 245.581 114.026 245.456 113.738 245.456C113.391 245.456 113.116 245.595 112.914 245.872C112.711 246.144 112.61 246.501 112.61 246.944C112.61 247.397 112.722 247.744 112.946 247.984C113.17 248.219 113.423 248.336 113.706 248.336ZM114.826 244.944H115.458V248.672C115.458 249.291 115.287 249.755 114.946 250.064C114.604 250.379 114.164 250.536 113.626 250.536C113.135 250.536 112.716 250.453 112.37 250.288V249.656C112.711 249.853 113.111 249.952 113.57 249.952C113.959 249.952 114.266 249.848 114.49 249.64C114.714 249.432 114.826 249.107 114.826 248.664V248.208C114.559 248.667 114.162 248.896 113.634 248.896C113.17 248.896 112.772 248.725 112.442 248.384C112.116 248.043 111.954 247.568 111.954 246.96C111.954 246.357 112.106 245.861 112.41 245.472C112.714 245.083 113.111 244.888 113.602 244.888C114.156 244.888 114.564 245.131 114.826 245.616V244.944ZM119.153 244.944V245.6C119.377 245.125 119.759 244.888 120.297 244.888C120.921 244.888 121.316 245.152 121.481 245.68C121.599 245.424 121.761 245.229 121.969 245.096C122.183 244.957 122.42 244.888 122.681 244.888C123.103 244.888 123.42 245.008 123.633 245.248C123.847 245.488 123.953 245.811 123.953 246.216V249H123.321V246.376C123.321 245.763 123.063 245.456 122.545 245.456C122.289 245.456 122.06 245.573 121.857 245.808C121.655 246.037 121.553 246.363 121.553 246.784V249H120.921V246.376C120.921 245.763 120.663 245.456 120.145 245.456C119.889 245.456 119.66 245.573 119.457 245.808C119.255 246.037 119.153 246.363 119.153 246.784V249H118.529V244.944H119.153ZM127.26 247.128H126.556C126.215 247.128 125.959 247.195 125.788 247.328C125.618 247.461 125.532 247.629 125.532 247.832C125.532 248.035 125.599 248.2 125.732 248.328C125.866 248.451 126.06 248.512 126.316 248.512C126.604 248.512 126.834 248.432 127.004 248.272C127.175 248.107 127.26 247.899 127.26 247.648V247.128ZM125.164 245.792V245.16C125.468 244.973 125.868 244.88 126.364 244.88C127.383 244.88 127.892 245.397 127.892 246.432V249H127.268V248.52C127.06 248.867 126.682 249.04 126.132 249.04C125.754 249.04 125.447 248.928 125.212 248.704C124.983 248.48 124.868 248.197 124.868 247.856C124.868 247.467 125.015 247.165 125.308 246.952C125.607 246.733 126.012 246.624 126.524 246.624H127.26V246.416C127.26 246.096 127.188 245.856 127.044 245.696C126.9 245.531 126.658 245.448 126.316 245.448C125.884 245.448 125.5 245.563 125.164 245.792ZM131.222 245.08V245.68C130.976 245.531 130.64 245.456 130.214 245.456C130 245.456 129.83 245.507 129.702 245.608C129.579 245.704 129.518 245.829 129.518 245.984C129.518 246.08 129.536 246.165 129.574 246.24C129.611 246.309 129.683 246.379 129.79 246.448C129.902 246.517 129.982 246.565 130.03 246.592C130.083 246.613 130.195 246.661 130.366 246.736C130.707 246.875 130.974 247.032 131.166 247.208C131.358 247.384 131.454 247.621 131.454 247.92C131.454 248.267 131.331 248.541 131.086 248.744C130.846 248.947 130.515 249.048 130.094 249.048C129.603 249.048 129.206 248.965 128.902 248.8V248.184C129.259 248.397 129.643 248.504 130.054 248.504C130.299 248.504 130.486 248.456 130.614 248.36C130.742 248.264 130.806 248.133 130.806 247.968C130.806 247.776 130.734 247.627 130.59 247.52C130.451 247.413 130.216 247.293 129.886 247.16C129.582 247.043 129.336 246.896 129.15 246.72C128.968 246.544 128.878 246.307 128.878 246.008C128.878 245.672 129.003 245.405 129.254 245.208C129.51 245.005 129.827 244.904 130.206 244.904C130.627 244.904 130.966 244.963 131.222 245.08ZM132.343 249V244.944H132.975V249H132.343ZM132.359 243.968C132.284 243.888 132.247 243.789 132.247 243.672C132.247 243.555 132.284 243.456 132.359 243.376C132.439 243.296 132.537 243.256 132.655 243.256C132.772 243.256 132.871 243.296 132.951 243.376C133.031 243.456 133.071 243.555 133.071 243.672C133.071 243.789 133.031 243.888 132.951 243.968C132.871 244.043 132.772 244.08 132.655 244.08C132.537 244.08 132.439 244.043 132.359 243.968ZM134.802 243.344V245.648C135.042 245.141 135.468 244.888 136.082 244.888C136.471 244.888 136.783 245.008 137.018 245.248C137.258 245.488 137.378 245.813 137.378 246.224V249H136.746V246.376C136.746 246.083 136.668 245.856 136.514 245.696C136.364 245.536 136.167 245.456 135.922 245.456C135.623 245.456 135.362 245.571 135.138 245.8C134.914 246.029 134.802 246.357 134.802 246.784V249H134.178V243.344H134.802ZM141.075 243.344V245.648C141.315 245.141 141.742 244.888 142.355 244.888C142.745 244.888 143.057 245.008 143.291 245.248C143.531 245.488 143.651 245.813 143.651 246.224V249H143.019V246.376C143.019 246.083 142.942 245.856 142.787 245.696C142.638 245.536 142.441 245.456 142.195 245.456C141.897 245.456 141.635 245.571 141.411 245.8C141.187 246.029 141.075 246.357 141.075 246.784V249H140.451V243.344H141.075ZM146.956 247.128H146.252C145.91 247.128 145.654 247.195 145.484 247.328C145.313 247.461 145.228 247.629 145.228 247.832C145.228 248.035 145.294 248.2 145.428 248.328C145.561 248.451 145.756 248.512 146.012 248.512C146.3 248.512 146.529 248.432 146.7 248.272C146.87 248.107 146.956 247.899 146.956 247.648V247.128ZM144.86 245.792V245.16C145.164 244.973 145.564 244.88 146.06 244.88C147.078 244.88 147.588 245.397 147.588 246.432V249H146.964V248.52C146.756 248.867 146.377 249.04 145.828 249.04C145.449 249.04 145.142 248.928 144.908 248.704C144.678 248.48 144.564 248.197 144.564 247.856C144.564 247.467 144.71 247.165 145.004 246.952C145.302 246.733 145.708 246.624 146.22 246.624H146.956V246.416C146.956 246.096 146.884 245.856 146.74 245.696C146.596 245.531 146.353 245.448 146.012 245.448C145.58 245.448 145.196 245.563 144.86 245.792ZM149.333 244.944V245.656C149.546 245.155 149.914 244.904 150.437 244.904C150.533 244.904 150.608 244.909 150.661 244.92V245.544C150.549 245.507 150.434 245.488 150.317 245.488C150.034 245.488 149.8 245.619 149.613 245.88C149.426 246.141 149.333 246.443 149.333 246.784V249H148.701L148.709 244.944H149.333ZM153.838 244.944H154.47V249H153.838V248.296C153.625 248.797 153.201 249.048 152.566 249.048C152.166 249.048 151.849 248.931 151.614 248.696C151.385 248.456 151.27 248.136 151.27 247.736V244.944H151.902V247.576C151.902 247.869 151.977 248.093 152.126 248.248C152.276 248.403 152.478 248.48 152.734 248.48C153.07 248.48 153.337 248.363 153.534 248.128C153.737 247.893 153.838 247.576 153.838 247.176V244.944ZM157.847 245.08V245.68C157.601 245.531 157.265 245.456 156.839 245.456C156.625 245.456 156.455 245.507 156.327 245.608C156.204 245.704 156.143 245.829 156.143 245.984C156.143 246.08 156.161 246.165 156.199 246.24C156.236 246.309 156.308 246.379 156.415 246.448C156.527 246.517 156.607 246.565 156.655 246.592C156.708 246.613 156.82 246.661 156.991 246.736C157.332 246.875 157.599 247.032 157.791 247.208C157.983 247.384 158.079 247.621 158.079 247.92C158.079 248.267 157.956 248.541 157.711 248.744C157.471 248.947 157.14 249.048 156.719 249.048C156.228 249.048 155.831 248.965 155.527 248.8V248.184C155.884 248.397 156.268 248.504 156.679 248.504C156.924 248.504 157.111 248.456 157.239 248.36C157.367 248.264 157.431 248.133 157.431 247.968C157.431 247.776 157.359 247.627 157.215 247.52C157.076 247.413 156.841 247.293 156.511 247.16C156.207 247.043 155.961 246.896 155.775 246.72C155.593 246.544 155.503 246.307 155.503 246.008C155.503 245.672 155.628 245.405 155.879 245.208C156.135 245.005 156.452 244.904 156.831 244.904C157.252 244.904 157.591 244.963 157.847 245.08ZM162.433 248.488C162.763 248.488 163.043 248.365 163.273 248.12C163.507 247.875 163.625 247.483 163.625 246.944C163.625 246.432 163.505 246.056 163.265 245.816C163.025 245.576 162.761 245.456 162.473 245.456C162.137 245.456 161.857 245.592 161.633 245.864C161.414 246.131 161.305 246.515 161.305 247.016C161.305 247.453 161.411 247.808 161.625 248.08C161.838 248.352 162.107 248.488 162.433 248.488ZM163.625 243.344H164.257V249H163.625V248.4C163.337 248.843 162.921 249.064 162.377 249.064C161.838 249.064 161.414 248.864 161.105 248.464C160.801 248.064 160.649 247.579 160.649 247.008C160.649 246.373 160.811 245.861 161.137 245.472C161.462 245.077 161.881 244.88 162.393 244.88C162.921 244.88 163.331 245.107 163.625 245.56V243.344ZM165.46 249V244.944H166.092V249H165.46ZM165.476 243.968C165.401 243.888 165.364 243.789 165.364 243.672C165.364 243.555 165.401 243.456 165.476 243.376C165.556 243.296 165.654 243.256 165.772 243.256C165.889 243.256 165.988 243.296 166.068 243.376C166.148 243.456 166.188 243.555 166.188 243.672C166.188 243.789 166.148 243.888 166.068 243.968C165.988 244.043 165.889 244.08 165.772 244.08C165.654 244.08 165.556 244.043 165.476 243.968ZM171.096 248.488C171.421 248.488 171.691 248.352 171.904 248.08C172.117 247.808 172.224 247.453 172.224 247.016C172.224 246.515 172.112 246.131 171.888 245.864C171.669 245.592 171.392 245.456 171.056 245.456C170.768 245.456 170.504 245.576 170.264 245.816C170.024 246.056 169.904 246.432 169.904 246.944C169.904 247.483 170.019 247.875 170.248 248.12C170.483 248.365 170.765 248.488 171.096 248.488ZM169.904 243.344V245.552C170.197 245.104 170.608 244.88 171.136 244.88C171.648 244.88 172.067 245.077 172.392 245.472C172.717 245.861 172.88 246.373 172.88 247.008C172.88 247.579 172.725 248.064 172.416 248.464C172.112 248.864 171.691 249.064 171.152 249.064C170.608 249.064 170.192 248.843 169.904 248.4V249H169.272V243.344H169.904ZM175.995 247.128H175.291C174.949 247.128 174.693 247.195 174.523 247.328C174.352 247.461 174.267 247.629 174.267 247.832C174.267 248.035 174.333 248.2 174.467 248.328C174.6 248.451 174.795 248.512 175.051 248.512C175.339 248.512 175.568 248.432 175.739 248.272C175.909 248.107 175.995 247.899 175.995 247.648V247.128ZM173.899 245.792V245.16C174.203 244.973 174.603 244.88 175.099 244.88C176.117 244.88 176.627 245.397 176.627 246.432V249H176.003V248.52C175.795 248.867 175.416 249.04 174.867 249.04C174.488 249.04 174.181 248.928 173.947 248.704C173.717 248.48 173.603 248.197 173.603 247.856C173.603 247.467 173.749 247.165 174.043 246.952C174.341 246.733 174.747 246.624 175.259 246.624H175.995V246.416C175.995 246.096 175.923 245.856 175.779 245.696C175.635 245.531 175.392 245.448 175.051 245.448C174.619 245.448 174.235 245.563 173.899 245.792ZM178.868 248.896L177.228 244.944H177.94L178.468 246.28L179.18 248.12C179.223 247.981 179.436 247.368 179.82 246.28L180.292 244.944H180.972L179.508 248.896C179.3 249.445 179.052 249.832 178.764 250.056C178.481 250.28 178.156 250.392 177.788 250.392C177.649 250.392 177.537 250.379 177.452 250.352V249.784C177.532 249.805 177.623 249.816 177.724 249.816C178.263 249.816 178.644 249.509 178.868 248.896ZM183.877 247.128H183.173C182.832 247.128 182.576 247.195 182.405 247.328C182.235 247.461 182.149 247.629 182.149 247.832C182.149 248.035 182.216 248.2 182.349 248.328C182.483 248.451 182.677 248.512 182.933 248.512C183.221 248.512 183.451 248.432 183.621 248.272C183.792 248.107 183.877 247.899 183.877 247.648V247.128ZM181.781 245.792V245.16C182.085 244.973 182.485 244.88 182.981 244.88C184 244.88 184.509 245.397 184.509 246.432V249H183.885V248.52C183.677 248.867 183.299 249.04 182.749 249.04C182.371 249.04 182.064 248.928 181.829 248.704C181.6 248.48 181.485 248.197 181.485 247.856C181.485 247.467 181.632 247.165 181.925 246.952C182.224 246.733 182.629 246.624 183.141 246.624H183.877V246.416C183.877 246.096 183.805 245.856 183.661 245.696C183.517 245.531 183.275 245.448 182.933 245.448C182.501 245.448 182.117 245.563 181.781 245.792ZM186.255 244.944V245.656C186.468 245.155 186.836 244.904 187.359 244.904C187.455 244.904 187.53 244.909 187.583 244.92V245.544C187.471 245.507 187.356 245.488 187.239 245.488C186.956 245.488 186.722 245.619 186.535 245.88C186.348 246.141 186.255 246.443 186.255 246.784V249H185.623L185.631 244.944H186.255Z" fill="#2B2B2B"/>
<path d="M248.116 244.168V246.32H248.932C249.3 246.32 249.58 246.221 249.772 246.024C249.969 245.821 250.068 245.563 250.068 245.248C250.068 244.528 249.665 244.168 248.86 244.168H248.116ZM251.052 249H250.276L248.956 246.872H248.892H248.116V249H247.468V243.608H248.82C249.444 243.608 249.916 243.755 250.236 244.048C250.561 244.341 250.724 244.747 250.724 245.264C250.713 245.637 250.614 245.955 250.428 246.216C250.241 246.477 249.977 246.661 249.636 246.768L251.052 249ZM253.602 248.488C253.944 248.488 254.224 248.355 254.442 248.088C254.661 247.816 254.77 247.432 254.77 246.936C254.77 246.493 254.664 246.136 254.45 245.864C254.237 245.592 253.968 245.456 253.642 245.456C253.317 245.456 253.034 245.576 252.794 245.816C252.56 246.051 252.442 246.437 252.442 246.976C252.442 247.493 252.562 247.875 252.802 248.12C253.042 248.365 253.309 248.488 253.602 248.488ZM252.442 244.944V245.56C252.725 245.107 253.144 244.88 253.698 244.88C254.237 244.88 254.658 245.077 254.962 245.472C255.272 245.861 255.426 246.349 255.426 246.936C255.426 247.56 255.264 248.072 254.938 248.472C254.618 248.867 254.2 249.064 253.682 249.064C253.149 249.064 252.736 248.837 252.442 248.384V250.576H251.818V244.944H252.442ZM259.079 244.32V245.888C259.319 245.835 259.527 245.808 259.703 245.808C260.236 245.808 260.657 245.949 260.967 246.232C261.281 246.515 261.439 246.893 261.439 247.368C261.439 247.885 261.268 248.299 260.927 248.608C260.591 248.912 260.129 249.064 259.543 249.064C259.015 249.064 258.567 248.973 258.199 248.792V248.168C258.54 248.371 258.953 248.472 259.439 248.472C260.335 248.472 260.783 248.096 260.783 247.344C260.783 247.04 260.679 246.805 260.471 246.64C260.263 246.469 259.993 246.384 259.663 246.384C259.273 246.384 258.871 246.477 258.455 246.664V243.768H261.079V244.32H259.079ZM262.141 246.368C262.141 245.547 262.306 244.899 262.637 244.424C262.973 243.944 263.413 243.704 263.957 243.704C264.522 243.704 264.97 243.944 265.301 244.424C265.637 244.899 265.805 245.547 265.805 246.368C265.805 247.184 265.645 247.837 265.325 248.328C265.005 248.819 264.549 249.064 263.957 249.064C263.408 249.064 262.968 248.819 262.637 248.328C262.306 247.837 262.141 247.184 262.141 246.368ZM263.133 244.848C262.904 245.205 262.789 245.712 262.789 246.368C262.789 247.024 262.901 247.539 263.125 247.912C263.349 248.28 263.626 248.464 263.957 248.464C264.325 248.464 264.616 248.283 264.829 247.92C265.048 247.557 265.157 247.04 265.157 246.368C265.157 245.701 265.042 245.192 264.813 244.84C264.589 244.483 264.304 244.304 263.957 244.304C263.637 244.304 263.362 244.485 263.133 244.848ZM266.084 249.984L266.828 248.192H267.668L266.636 249.984H266.084ZM268.289 246.368C268.289 245.547 268.455 244.899 268.785 244.424C269.121 243.944 269.561 243.704 270.105 243.704C270.671 243.704 271.119 243.944 271.449 244.424C271.785 244.899 271.953 245.547 271.953 246.368C271.953 247.184 271.793 247.837 271.473 248.328C271.153 248.819 270.697 249.064 270.105 249.064C269.556 249.064 269.116 248.819 268.785 248.328C268.455 247.837 268.289 247.184 268.289 246.368ZM269.281 244.848C269.052 245.205 268.937 245.712 268.937 246.368C268.937 247.024 269.049 247.539 269.273 247.912C269.497 248.28 269.775 248.464 270.105 248.464C270.473 248.464 270.764 248.283 270.977 247.92C271.196 247.557 271.305 247.04 271.305 246.368C271.305 245.701 271.191 245.192 270.961 244.84C270.737 244.483 270.452 244.304 270.105 244.304C269.785 244.304 269.511 244.485 269.281 244.848ZM272.641 246.368C272.641 245.547 272.806 244.899 273.137 244.424C273.473 243.944 273.913 243.704 274.457 243.704C275.022 243.704 275.47 243.944 275.801 244.424C276.137 244.899 276.305 245.547 276.305 246.368C276.305 247.184 276.145 247.837 275.825 248.328C275.505 248.819 275.049 249.064 274.457 249.064C273.908 249.064 273.468 248.819 273.137 248.328C272.806 247.837 272.641 247.184 272.641 246.368ZM273.633 244.848C273.404 245.205 273.289 245.712 273.289 246.368C273.289 247.024 273.401 247.539 273.625 247.912C273.849 248.28 274.126 248.464 274.457 248.464C274.825 248.464 275.116 248.283 275.329 247.92C275.548 247.557 275.657 247.04 275.657 246.368C275.657 245.701 275.542 245.192 275.313 244.84C275.089 244.483 274.804 244.304 274.457 244.304C274.137 244.304 273.862 244.485 273.633 244.848ZM276.992 246.368C276.992 245.547 277.158 244.899 277.488 244.424C277.824 243.944 278.264 243.704 278.808 243.704C279.374 243.704 279.822 243.944 280.152 244.424C280.488 244.899 280.656 245.547 280.656 246.368C280.656 247.184 280.496 247.837 280.176 248.328C279.856 248.819 279.4 249.064 278.808 249.064C278.259 249.064 277.819 248.819 277.488 248.328C277.158 247.837 276.992 247.184 276.992 246.368ZM277.984 244.848C277.755 245.205 277.64 245.712 277.64 246.368C277.64 247.024 277.752 247.539 277.976 247.912C278.2 248.28 278.478 248.464 278.808 248.464C279.176 248.464 279.467 248.283 279.68 247.92C279.899 247.557 280.008 247.04 280.008 246.368C280.008 245.701 279.894 245.192 279.664 244.84C279.44 244.483 279.155 244.304 278.808 244.304C278.488 244.304 278.214 244.485 277.984 244.848Z" fill="#FF1934"/>
<rect x="109" y="270" width="120" height="24" rx="8" fill="#FF1934"/>
<path d="M157.959 283.176L158.823 283.176C159.468 283.176 159.791 282.931 159.791 282.44C159.791 281.939 159.455 281.688 158.783 281.688L157.959 281.688L157.959 283.176ZM157.959 279.432L157.959 280.88L158.567 280.88C158.929 280.88 159.201 280.808 159.383 280.664C159.564 280.52 159.655 280.336 159.655 280.112C159.655 279.904 159.577 279.739 159.423 279.616C159.273 279.493 159.044 279.432 158.735 279.432L157.959 279.432ZM156.951 278.608L158.863 278.608C159.439 278.608 159.887 278.744 160.207 279.016C160.527 279.288 160.687 279.64 160.687 280.072C160.687 280.365 160.607 280.621 160.447 280.84C160.287 281.053 160.081 281.195 159.831 281.264C160.119 281.333 160.356 281.475 160.543 281.688C160.729 281.896 160.823 282.181 160.823 282.544C160.823 282.971 160.673 283.32 160.375 283.592C160.076 283.864 159.663 284 159.135 284L156.951 284L156.951 278.608ZM163.053 281.952L164.573 281.952L164.501 281.712C164.32 281.136 164.17 280.653 164.053 280.264C163.941 279.869 163.872 279.621 163.845 279.52L163.813 279.36C163.765 279.627 163.536 280.413 163.125 281.72L163.053 281.952ZM165.213 284L164.829 282.776L162.789 282.776L162.405 284L161.349 284L163.173 278.608L164.477 278.608L166.301 284L165.213 284ZM171.364 278.608L169.508 282L169.508 284L168.5 284L168.5 282.032L166.66 278.608L167.836 278.608L168.196 279.392C168.404 279.845 168.574 280.227 168.708 280.536C168.841 280.84 168.921 281.029 168.948 281.104L168.996 281.224C169.044 281.027 169.318 280.416 169.82 279.392L170.188 278.608L171.364 278.608ZM173.436 281.952L174.956 281.952L174.884 281.712C174.702 281.136 174.553 280.653 174.436 280.264C174.324 279.869 174.254 279.621 174.228 279.52L174.196 279.36C174.148 279.627 173.918 280.413 173.508 281.72L173.436 281.952ZM175.596 284L175.212 282.776L173.172 282.776L172.788 284L171.732 284L173.556 278.608L174.86 278.608L176.684 284L175.596 284ZM178.466 279.44L178.466 281.2L179.138 281.2C179.448 281.2 179.68 281.123 179.834 280.968C179.989 280.808 180.066 280.587 180.066 280.304C180.066 280.027 179.984 279.813 179.818 279.664C179.658 279.515 179.426 279.44 179.122 279.44L178.466 279.44ZM180.242 284L179.018 282.032L178.466 282.032L178.466 284L177.458 284L177.458 278.608L179.122 278.608C179.736 278.608 180.216 278.763 180.562 279.072C180.914 279.381 181.09 279.795 181.09 280.312C181.085 280.696 180.992 281.021 180.81 281.288C180.629 281.549 180.381 281.744 180.066 281.872L181.45 284L180.242 284Z" fill="white"/>
<path d="M9 341.5H329C333.694 341.5 337.5 345.306 337.5 350C337.5 354.694 333.694 358.5 329 358.5H9C4.30558 358.5 0.5 354.694 0.5 350C0.500002 345.306 4.30558 341.5 9 341.5Z" fill="white"/>
<path d="M9 341.5H329C333.694 341.5 337.5 345.306 337.5 350C337.5 354.694 333.694 358.5 329 358.5H9C4.30558 358.5 0.5 354.694 0.5 350C0.500002 345.306 4.30558 341.5 9 341.5Z" stroke="#CCCCCC"/>
<path d="M7.86805e-07 350C3.52265e-07 345.029 4.02944 341 9 341L39 341C43.9706 341 48 345.029 48 350C48 354.971 43.9706 359 39 359L9 359C4.02944 359 1.22135e-06 354.971 7.86805e-07 350Z" fill="#FF1934"/>
<path d="M15.448 346.688H16.264L16.816 348.6L17.456 350.92C17.5893 350.179 17.7547 349.403 17.952 348.592L18.44 346.608H19.464L18.088 352H16.92L16.432 350.296C16.2987 349.843 16.184 349.443 16.088 349.096C15.9973 348.749 15.936 348.517 15.904 348.4L15.864 348.216C15.7893 348.589 15.6027 349.283 15.304 350.296L14.8 352H13.64L12.2 346.608H13.264L13.768 348.6C13.8533 348.957 13.9387 349.328 14.024 349.712C14.1093 350.096 14.1733 350.389 14.216 350.592L14.28 350.904C14.4507 350.232 14.6587 349.464 14.904 348.6L15.448 346.688ZM22.2561 350.256H21.7601C21.5094 350.256 21.3174 350.309 21.1841 350.416C21.0507 350.517 20.9841 350.648 20.9841 350.808C20.9841 351.149 21.1814 351.32 21.5761 351.32C21.7894 351.32 21.9547 351.259 22.0721 351.136C22.1947 351.008 22.2561 350.843 22.2561 350.64V350.256ZM20.2881 349.04V348.152C20.5921 347.965 21.0294 347.872 21.6001 347.872C22.6987 347.872 23.2481 348.384 23.2481 349.408V352H22.2961V351.512C22.1094 351.859 21.7574 352.032 21.2401 352.032C20.8561 352.032 20.5494 351.92 20.3201 351.696C20.0961 351.472 19.9841 351.189 19.9841 350.848C19.9841 350.464 20.1281 350.163 20.4161 349.944C20.7041 349.725 21.1201 349.616 21.6641 349.616H22.2561V349.368C22.2561 349.144 22.1974 348.973 22.0801 348.856C21.9627 348.739 21.7627 348.68 21.4801 348.68C21.0481 348.68 20.6507 348.8 20.2881 349.04ZM27.7828 352H26.6548L25.1988 349.904V352H24.2388V346.44H25.1988V349.848L26.6308 347.944H27.7508L26.2628 349.88L27.7828 352ZM29.5864 348.664V350.728C29.5864 350.899 29.6318 351.029 29.7224 351.12C29.8131 351.205 29.9384 351.248 30.0984 351.248C30.3011 351.248 30.4878 351.192 30.6584 351.08V351.904C30.4718 351.995 30.2318 352.04 29.9384 352.04C29.0638 352.04 28.6264 351.597 28.6264 350.712V348.664H28.0184V347.944H28.6264V346.968H29.5864V347.944H30.5944V348.664H29.5864ZM33.9617 347.944H34.9297V352H33.9617V351.336C33.7484 351.805 33.3324 352.04 32.7137 352.04C32.303 352.04 31.983 351.923 31.7537 351.688C31.5244 351.453 31.4097 351.12 31.4097 350.688V347.944H32.3697V350.464C32.3697 350.72 32.431 350.915 32.5537 351.048C32.6817 351.181 32.855 351.248 33.0737 351.248C33.351 351.248 33.567 351.155 33.7217 350.968C33.8817 350.781 33.9617 350.499 33.9617 350.12V347.944Z" fill="white"/>
<rect x="56" y="348" width="274" height="4" rx="2" fill="#CCCCCC"/>
<mask id="mask0_1124_4113" style="mask-type:alpha" maskUnits="userSpaceOnUse" x="56" y="348" width="274" height="4">
<rect x="56" y="348" width="274" height="4" rx="2" fill="#CCCCCC"/>
</mask>
<g mask="url(#mask0_1124_4113)">
<rect x="56" y="348" width="274" height="4" rx="2" fill="#FF1934"/>
</g>
<defs>
<filter id="filter0_d_1124_4113" x="5" y="14" width="328" height="56" filterUnits="userSpaceOnUse" color-interpolation-filters="sRGB">
<feFlood flood-opacity="0" result="BackgroundImageFix"/>
<feColorMatrix in="SourceAlpha" type="matrix" values="0 0 0 0 0 0 0 0 0 0 0 0 0 0 0 0 0 0 127 0" result="hardAlpha"/>
<feOffset dy="2"/>
<feGaussianBlur stdDeviation="2"/>
<feComposite in2="hardAlpha" operator="out"/>
<feColorMatrix type="matrix" values="0 0 0 0 0.168627 0 0 0 0 0.168627 0 0 0 0 0.168627 0 0 0 0.24 0"/>
<feBlend mode="normal" in2="BackgroundImageFix" result="effect1_dropShadow_1124_4113"/>
<feBlend mode="normal" in="SourceGraphic" in2="effect1_dropShadow_1124_4113" result="shape"/>
</filter>
<clipPath id="clip0_1124_4113">
<rect width="24" height="24" fill="white" transform="translate(25 32)"/>
</clipPath>
<clipPath id="clip1_1124_4113">
<rect width="64" height="64" fill="white" transform="translate(137 72)"/>
</clipPath>
</defs>
</svg>
