<svg width="338" height="375" viewBox="0 0 338 375" fill="none" xmlns="http://www.w3.org/2000/svg">
<rect width="338" height="375" fill="#D3D3D3"/>
<rect x="9" y="16" width="320" height="294" rx="16" fill="white"/>
<g filter="url(#filter0_d_1124_4113)">
<path d="M9 32C9 23.1634 16.1634 16 25 16H313C321.837 16 329 23.1634 329 32V64H9V32Z" fill="#FF1934" shape-rendering="crispEdges"/>
<g clip-path="url(#clip0_1124_4113)">
<path d="M37 34C31.49 34 27 38.49 27 44C27 46.27 27.74 48.41 29.14 50.18C29.41 50.53 29.92 50.59 30.26 50.31C30.61 50.04 30.67 49.53 30.39 49.19C29.21 47.7 28.59 45.9 28.59 44C28.6 39.37 32.37 35.6 37 35.6C41.63 35.6 45.4 39.37 45.4 44C45.4 48.63 41.63 52.4 37 52.4C35.32 52.4 33.69 51.9 32.3 50.97C31.93 50.72 31.44 50.82 31.19 51.18C30.94 51.54 31.04 52.04 31.4 52.29C33.06 53.41 34.99 54 36.99 54C42.5 54 46.99 49.51 46.99 44C46.99 38.49 42.51 34 37 34Z" fill="white"/>
<path d="M40.7402 38.14C40.3702 37.9 39.8702 38.01 39.6302 38.38L36.3202 43.57C36.2402 43.7 36.2002 43.85 36.2002 44V48C36.2002 48.44 36.5602 48.8 37.0002 48.8C37.4402 48.8 37.8002 48.44 37.8002 48V44.23L40.9902 39.24C41.2302 38.87 41.1202 38.37 40.7502 38.13L40.7402 38.14Z" fill="white"/>
</g>
<path d="M60.066 46.11H63.552V48H57.91V38.564H60.066V46.11ZM64.7459 48V40.902H66.7899V48H64.7459ZM64.9279 39.684C64.6946 39.4507 64.5779 39.1707 64.5779 38.844C64.5779 38.5173 64.6946 38.2373 64.9279 38.004C65.1613 37.7707 65.4413 37.654 65.7679 37.654C66.0946 37.654 66.3746 37.7707 66.6079 38.004C66.8413 38.2373 66.9579 38.5173 66.9579 38.844C66.9579 39.1707 66.8413 39.4507 66.6079 39.684C66.3746 39.9173 66.0946 40.034 65.7679 40.034C65.4413 40.034 65.1613 39.9173 64.9279 39.684ZM70.5891 40.902V42.106C70.7664 41.714 71.0371 41.406 71.4011 41.182C71.7744 40.9487 72.2177 40.832 72.7311 40.832C73.4591 40.832 74.0284 41.0513 74.4391 41.49C74.8497 41.9193 75.0551 42.554 75.0551 43.394V48H73.0111V43.772C73.0111 43.352 72.9131 43.0347 72.7171 42.82C72.5211 42.596 72.2457 42.484 71.8911 42.484C71.5177 42.484 71.2051 42.6333 70.9531 42.932C70.7104 43.2213 70.5891 43.66 70.5891 44.248V48H68.5451V40.902H70.5891ZM76.7362 48V40.902H78.7802V48H76.7362ZM76.9182 39.684C76.6848 39.4507 76.5682 39.1707 76.5682 38.844C76.5682 38.5173 76.6848 38.2373 76.9182 38.004C77.1515 37.7707 77.4315 37.654 77.7582 37.654C78.0848 37.654 78.3648 37.7707 78.5982 38.004C78.8315 38.2373 78.9482 38.5173 78.9482 38.844C78.9482 39.1707 78.8315 39.4507 78.5982 39.684C78.3648 39.9173 78.0848 40.034 77.7582 40.034C77.4315 40.034 77.1515 39.9173 76.9182 39.684ZM83.8953 48L84.7073 38.564H87.0733L88.3893 41.98C88.6133 42.5493 88.8046 43.072 88.9633 43.548C89.122 44.024 89.2246 44.36 89.2713 44.556L89.3413 44.836C89.4906 44.22 89.8173 43.268 90.3213 41.98L91.6513 38.564H94.0173L94.9973 48H92.8413L92.4913 44.346L92.3093 41.588C92.0666 42.288 91.7306 43.2073 91.3013 44.346L89.9713 47.902H88.6973L87.3813 44.346C87.1666 43.7673 86.9846 43.2493 86.8353 42.792C86.686 42.3347 86.588 42.0173 86.5413 41.84L86.4713 41.588C86.4713 42.2507 86.4293 43.17 86.3453 44.346L86.0513 48H83.8953ZM100.045 45.088H99.3874C99.0421 45.088 98.7761 45.1627 98.5894 45.312C98.4027 45.4613 98.3094 45.6527 98.3094 45.886C98.3094 46.362 98.5847 46.6 99.1354 46.6C99.4247 46.6 99.6487 46.5113 99.8074 46.334C99.9661 46.1567 100.045 45.914 100.045 45.606V45.088ZM96.7274 43.086V41.252C97.2874 40.9347 98.0947 40.776 99.1494 40.776C100.157 40.776 100.909 40.9953 101.403 41.434C101.898 41.8633 102.145 42.5353 102.145 43.45V48H100.143V47.132C99.8447 47.7387 99.2567 48.042 98.3794 48.042C97.6887 48.042 97.1474 47.846 96.7554 47.454C96.3727 47.062 96.1814 46.572 96.1814 45.984C96.1814 45.3027 96.4287 44.7753 96.9234 44.402C97.4274 44.0193 98.1694 43.828 99.1494 43.828H100.045V43.338C100.045 42.7407 99.6487 42.442 98.8554 42.442C98.0901 42.442 97.3807 42.6567 96.7274 43.086ZM108.23 41.112V42.862C107.735 42.5727 107.157 42.428 106.494 42.428C106.251 42.428 106.065 42.4793 105.934 42.582C105.803 42.6753 105.738 42.7967 105.738 42.946C105.738 43.03 105.761 43.1093 105.808 43.184C105.855 43.2587 105.929 43.3287 106.032 43.394C106.144 43.4593 106.247 43.52 106.34 43.576C106.443 43.6227 106.578 43.6833 106.746 43.758C106.923 43.8327 107.063 43.898 107.166 43.954C107.595 44.178 107.941 44.4393 108.202 44.738C108.463 45.0273 108.594 45.4007 108.594 45.858C108.594 46.558 108.342 47.0993 107.838 47.482C107.334 47.8647 106.667 48.056 105.836 48.056C104.977 48.056 104.259 47.9113 103.68 47.622V45.802C104.324 46.25 105.005 46.474 105.724 46.474C106.237 46.474 106.494 46.3107 106.494 45.984C106.494 45.9 106.471 45.8207 106.424 45.746C106.377 45.6713 106.298 45.6013 106.186 45.536C106.074 45.4707 105.971 45.4193 105.878 45.382C105.785 45.3353 105.649 45.2747 105.472 45.2C105.295 45.1253 105.159 45.0647 105.066 45.018C104.123 44.57 103.652 43.898 103.652 43.002C103.652 42.3113 103.913 41.7747 104.436 41.392C104.968 41.0093 105.626 40.818 106.41 40.818C107.138 40.818 107.745 40.916 108.23 41.112ZM113.362 45.088H112.704C112.358 45.088 112.092 45.1627 111.906 45.312C111.719 45.4613 111.626 45.6527 111.626 45.886C111.626 46.362 111.901 46.6 112.452 46.6C112.741 46.6 112.965 46.5113 113.124 46.334C113.282 46.1567 113.362 45.914 113.362 45.606V45.088ZM110.044 43.086V41.252C110.604 40.9347 111.411 40.776 112.466 40.776C113.474 40.776 114.225 40.9953 114.72 41.434C115.214 41.8633 115.462 42.5353 115.462 43.45V48H113.46V47.132C113.161 47.7387 112.573 48.042 111.696 48.042C111.005 48.042 110.464 47.846 110.072 47.454C109.689 47.062 109.498 46.572 109.498 45.984C109.498 45.3027 109.745 44.7753 110.24 44.402C110.744 44.0193 111.486 43.828 112.466 43.828H113.362V43.338C113.362 42.7407 112.965 42.442 112.172 42.442C111.406 42.442 110.697 42.6567 110.044 43.086Z" fill="white"/>
</g>
<g clip-path="url(#clip1_1124_4113)">
<path d="M182.953 119.567C177.569 119.097 173.923 117.449 171.713 116.037C170.061 114.982 167.94 114.982 166.289 116.037C164.078 117.449 160.433 119.097 155.048 119.567C153.249 119.724 151.871 121.238 151.906 123.043C152.043 130.159 153.869 146.6 167.412 152.091C168.431 152.504 169.571 152.504 170.59 152.091C184.132 146.6 185.959 130.159 186.096 123.043C186.131 121.237 184.753 119.724 182.954 119.567H182.953Z" fill="#FF6678"/>
<path d="M170.589 152.091C184.132 146.6 185.958 130.159 186.095 123.042C186.13 121.237 184.752 119.724 182.953 119.567C177.568 119.097 173.922 117.449 171.712 116.037C170.886 115.509 169.943 115.245 169 115.245V152.4C169.54 152.4 170.08 152.297 170.589 152.09V152.091Z" fill="#CC5260"/>
<path d="M177.716 130.038H171.753V124.075H166.249V130.038H160.285V135.543H166.249V141.506H171.753V135.543H177.716V130.038Z" fill="#8C0010"/>
<g opacity="0.32" style="mix-blend-mode:multiply">
<path d="M177.716 130.038H171.752V124.075H169V141.506H171.752V135.543H177.716V130.038Z" fill="#CC5260"/>
</g>
<path d="M149.053 116.052L150.184 113.984L151.316 116.052L153.384 117.184L151.316 118.315L150.184 120.384L149.053 118.315L146.984 117.184L149.053 116.052Z" fill="#FF6678"/>
<path d="M177.258 153.858L178.344 151.872L179.431 153.858L181.416 154.944L179.431 156.03L178.344 158.016L177.258 156.03L175.272 154.944L177.258 153.858Z" fill="#FF6678"/>
<path d="M183.988 145.314L185.824 141.957L187.659 145.314L191.016 147.15L187.659 148.986L185.824 152.342L183.988 148.986L180.631 147.15L183.988 145.314Z" fill="#FF6678"/>
</g>
<path d="M72.5628 192.49H74.7228L74.6128 192.15C74.3594 191.363 74.1528 190.713 73.9928 190.2C73.8328 189.68 73.7361 189.357 73.7028 189.23L73.6528 189.04C73.5794 189.353 73.2528 190.39 72.6728 192.15L72.5628 192.49ZM75.5328 195L75.0028 193.35H72.2828L71.7428 195H70.6528L72.9828 188.26H74.3328L76.6328 195H75.5328ZM78.6143 189.93V190.8C78.9143 190.173 79.441 189.86 80.1943 189.86C80.6943 189.86 81.091 190.013 81.3843 190.32C81.6777 190.627 81.8243 191.043 81.8243 191.57V195H80.8443V191.8C80.8443 191.447 80.7543 191.177 80.5743 190.99C80.401 190.803 80.1677 190.71 79.8743 190.71C79.5277 190.71 79.231 190.847 78.9843 191.12C78.7377 191.387 78.6143 191.763 78.6143 192.25V195H77.6343V189.93H78.6143ZM85.1921 194.21C85.5788 194.21 85.9055 194.063 86.1721 193.77C86.4388 193.477 86.5721 193.03 86.5721 192.43C86.5721 191.85 86.4321 191.42 86.1521 191.14C85.8788 190.86 85.5688 190.72 85.2221 190.72C84.8288 190.72 84.5055 190.877 84.2521 191.19C83.9988 191.497 83.8721 191.937 83.8721 192.51C83.8721 193.017 83.9955 193.427 84.2421 193.74C84.4955 194.053 84.8121 194.21 85.1921 194.21ZM86.5721 187.93H87.5621V195H86.5721V194.23C86.2188 194.79 85.7021 195.07 85.0221 195.07C84.3555 195.07 83.8288 194.82 83.4421 194.32C83.0555 193.813 82.8621 193.203 82.8621 192.49C82.8621 191.697 83.0655 191.06 83.4721 190.58C83.8788 190.1 84.4021 189.86 85.0421 189.86C85.7021 189.86 86.2121 190.14 86.5721 190.7V187.93ZM91.6129 192.74H90.8529C90.4796 192.74 90.1963 192.813 90.0029 192.96C89.8163 193.107 89.7229 193.293 89.7229 193.52C89.7229 193.753 89.7963 193.937 89.9429 194.07C90.0896 194.203 90.3029 194.27 90.5829 194.27C90.9029 194.27 91.1529 194.183 91.3329 194.01C91.5196 193.83 91.6129 193.597 91.6129 193.31V192.74ZM89.0629 191.14V190.19C89.4563 189.963 89.9763 189.85 90.6229 189.85C91.9496 189.85 92.6129 190.493 92.6129 191.78V195H91.6429V194.4C91.3829 194.827 90.9263 195.04 90.2729 195.04C89.7929 195.04 89.4063 194.903 89.1129 194.63C88.8263 194.35 88.6829 193.997 88.6829 193.57C88.6829 193.083 88.8663 192.707 89.2329 192.44C89.5996 192.167 90.1129 192.03 90.7729 192.03H91.6129V191.74C91.6129 191.393 91.5296 191.133 91.3629 190.96C91.1963 190.78 90.9196 190.69 90.5329 190.69C89.9929 190.69 89.5029 190.84 89.0629 191.14ZM97.3741 189.93V190.74C97.6608 190.153 98.1374 189.86 98.8041 189.86C99.5641 189.86 100.051 190.187 100.264 190.84C100.404 190.527 100.607 190.287 100.874 190.12C101.141 189.947 101.441 189.86 101.774 189.86C102.294 189.86 102.687 190.013 102.954 190.32C103.227 190.627 103.364 191.05 103.364 191.59V195H102.384V191.8C102.384 191.073 102.091 190.71 101.504 190.71C101.211 190.71 100.947 190.84 100.714 191.1C100.487 191.36 100.374 191.743 100.374 192.25V195H99.3941V191.8C99.3941 191.073 99.0974 190.71 98.5041 190.71C98.2174 190.71 97.9574 190.84 97.7241 191.1C97.4908 191.36 97.3741 191.743 97.3741 192.25V195H96.3941V189.93H97.3741ZM107.845 192.1V191.92C107.832 191.54 107.728 191.24 107.535 191.02C107.342 190.793 107.065 190.68 106.705 190.68C106.372 190.68 106.085 190.803 105.845 191.05C105.605 191.29 105.455 191.64 105.395 192.1H107.845ZM108.475 193.85V194.73C108.102 194.943 107.608 195.05 106.995 195.05C106.208 195.05 105.582 194.813 105.115 194.34C104.648 193.867 104.415 193.247 104.415 192.48C104.415 191.667 104.628 191.03 105.055 190.57C105.482 190.103 106.025 189.87 106.685 189.87C107.332 189.87 107.845 190.073 108.225 190.48C108.605 190.88 108.795 191.46 108.795 192.22C108.795 192.427 108.775 192.643 108.735 192.87H105.405C105.472 193.31 105.658 193.647 105.965 193.88C106.272 194.113 106.658 194.23 107.125 194.23C107.665 194.23 108.115 194.103 108.475 193.85ZM110.929 189.93V190.74C111.215 190.153 111.692 189.86 112.359 189.86C113.119 189.86 113.605 190.187 113.819 190.84C113.959 190.527 114.162 190.287 114.429 190.12C114.695 189.947 114.995 189.86 115.329 189.86C115.849 189.86 116.242 190.013 116.509 190.32C116.782 190.627 116.919 191.05 116.919 191.59V195H115.939V191.8C115.939 191.073 115.645 190.71 115.059 190.71C114.765 190.71 114.502 190.84 114.269 191.1C114.042 191.36 113.929 191.743 113.929 192.25V195H112.949V191.8C112.949 191.073 112.652 190.71 112.059 190.71C111.772 190.71 111.512 190.84 111.279 191.1C111.045 191.36 110.929 191.743 110.929 192.25V195H109.949V189.93H110.929ZM118.29 195V189.93H119.28V195H118.29ZM118.34 188.82C118.226 188.7 118.17 188.553 118.17 188.38C118.17 188.207 118.226 188.06 118.34 187.94C118.46 187.82 118.606 187.76 118.78 187.76C118.953 187.76 119.1 187.82 119.22 187.94C119.34 188.06 119.4 188.207 119.4 188.38C119.4 188.547 119.34 188.69 119.22 188.81C119.1 188.93 118.953 188.99 118.78 188.99C118.606 188.99 118.46 188.933 118.34 188.82ZM120.741 195V187.93H121.731V195H120.741ZM123.192 195V189.93H124.182V195H123.192ZM123.242 188.82C123.129 188.7 123.072 188.553 123.072 188.38C123.072 188.207 123.129 188.06 123.242 187.94C123.362 187.82 123.509 187.76 123.682 187.76C123.855 187.76 124.002 187.82 124.122 187.94C124.242 188.06 124.302 188.207 124.302 188.38C124.302 188.547 124.242 188.69 124.122 188.81C124.002 188.93 123.855 188.99 123.682 188.99C123.509 188.99 123.362 188.933 123.242 188.82ZM125.603 195V188H126.583V195H125.603ZM127.753 192.35L129.743 195H128.573L126.623 192.35L128.533 189.93H129.683L127.753 192.35ZM130.643 195V189.93H131.633V195H130.643ZM130.693 188.82C130.58 188.7 130.523 188.553 130.523 188.38C130.523 188.207 130.58 188.06 130.693 187.94C130.813 187.82 130.96 187.76 131.133 187.76C131.306 187.76 131.453 187.82 131.573 187.94C131.693 188.06 131.753 188.207 131.753 188.38C131.753 188.547 131.693 188.69 131.573 188.81C131.453 188.93 131.306 188.99 131.133 188.99C130.96 188.99 130.813 188.933 130.693 188.82ZM137.045 192.49H139.205L139.095 192.15C138.842 191.363 138.635 190.713 138.475 190.2C138.315 189.68 138.219 189.357 138.185 189.23L138.135 189.04C138.062 189.353 137.735 190.39 137.155 192.15L137.045 192.49ZM140.015 195L139.485 193.35H136.765L136.225 195H135.135L137.465 188.26H138.815L141.115 195H140.015ZM145.007 190.1V190.99C144.68 190.797 144.26 190.7 143.747 190.7C143.513 190.7 143.327 190.753 143.187 190.86C143.053 190.967 142.987 191.107 142.987 191.28C142.987 191.327 142.99 191.373 142.997 191.42C143.01 191.46 143.03 191.503 143.057 191.55C143.083 191.59 143.107 191.627 143.127 191.66C143.153 191.687 143.193 191.717 143.247 191.75C143.3 191.783 143.34 191.813 143.367 191.84C143.4 191.86 143.45 191.887 143.517 191.92C143.59 191.953 143.643 191.98 143.677 192C143.71 192.013 143.767 192.04 143.847 192.08C143.933 192.113 143.993 192.137 144.027 192.15C144.42 192.323 144.727 192.52 144.947 192.74C145.173 192.953 145.287 193.24 145.287 193.6C145.287 194.053 145.127 194.41 144.807 194.67C144.487 194.923 144.053 195.05 143.507 195.05C142.907 195.05 142.407 194.95 142.007 194.75V193.82C142.473 194.107 142.957 194.25 143.457 194.25C143.717 194.25 143.917 194.197 144.057 194.09C144.203 193.983 144.277 193.843 144.277 193.67C144.277 193.523 144.22 193.393 144.107 193.28C143.993 193.16 143.877 193.073 143.757 193.02C143.643 192.96 143.447 192.87 143.167 192.75C142.373 192.423 141.977 191.943 141.977 191.31C141.977 190.863 142.143 190.513 142.477 190.26C142.81 190.007 143.227 189.88 143.727 189.88C144.273 189.88 144.7 189.953 145.007 190.1ZM149.456 189.93H150.436V195H149.456V194.13C149.19 194.75 148.663 195.06 147.876 195.06C147.376 195.06 146.98 194.913 146.686 194.62C146.393 194.32 146.246 193.91 146.246 193.39V189.93H147.236V193.15C147.236 193.497 147.32 193.763 147.486 193.95C147.66 194.13 147.896 194.22 148.196 194.22C148.576 194.22 148.88 194.087 149.106 193.82C149.34 193.553 149.456 193.177 149.456 192.69V189.93ZM152.794 189.93V190.82C153.041 190.193 153.484 189.88 154.124 189.88C154.217 189.88 154.321 189.89 154.434 189.91V190.87C154.294 190.81 154.137 190.78 153.964 190.78C153.624 190.78 153.344 190.93 153.124 191.23C152.904 191.53 152.794 191.887 152.794 192.3V195H151.814V189.93H152.794ZM157.873 192.74H157.113C156.739 192.74 156.456 192.813 156.263 192.96C156.076 193.107 155.983 193.293 155.983 193.52C155.983 193.753 156.056 193.937 156.203 194.07C156.349 194.203 156.563 194.27 156.843 194.27C157.163 194.27 157.413 194.183 157.593 194.01C157.779 193.83 157.873 193.597 157.873 193.31V192.74ZM155.323 191.14V190.19C155.716 189.963 156.236 189.85 156.883 189.85C158.209 189.85 158.873 190.493 158.873 191.78V195H157.903V194.4C157.643 194.827 157.186 195.04 156.533 195.04C156.053 195.04 155.666 194.903 155.373 194.63C155.086 194.35 154.943 193.997 154.943 193.57C154.943 193.083 155.126 192.707 155.493 192.44C155.859 192.167 156.373 192.03 157.033 192.03H157.873V191.74C157.873 191.393 157.789 191.133 157.623 190.96C157.456 190.78 157.179 190.69 156.793 190.69C156.253 190.69 155.763 190.84 155.323 191.14ZM161.173 189.93V190.8C161.473 190.173 162 189.86 162.753 189.86C163.253 189.86 163.65 190.013 163.943 190.32C164.236 190.627 164.383 191.043 164.383 191.57V195H163.403V191.8C163.403 191.447 163.313 191.177 163.133 190.99C162.96 190.803 162.726 190.71 162.433 190.71C162.086 190.71 161.79 190.847 161.543 191.12C161.296 191.387 161.173 191.763 161.173 192.25V195H160.193V189.93H161.173ZM168.591 190.1V190.99C168.264 190.797 167.844 190.7 167.331 190.7C167.097 190.7 166.911 190.753 166.771 190.86C166.637 190.967 166.571 191.107 166.571 191.28C166.571 191.327 166.574 191.373 166.581 191.42C166.594 191.46 166.614 191.503 166.641 191.55C166.667 191.59 166.691 191.627 166.711 191.66C166.737 191.687 166.777 191.717 166.831 191.75C166.884 191.783 166.924 191.813 166.951 191.84C166.984 191.86 167.034 191.887 167.101 191.92C167.174 191.953 167.227 191.98 167.261 192C167.294 192.013 167.351 192.04 167.431 192.08C167.517 192.113 167.577 192.137 167.611 192.15C168.004 192.323 168.311 192.52 168.531 192.74C168.757 192.953 168.871 193.24 168.871 193.6C168.871 194.053 168.711 194.41 168.391 194.67C168.071 194.923 167.637 195.05 167.091 195.05C166.491 195.05 165.991 194.95 165.591 194.75V193.82C166.057 194.107 166.541 194.25 167.041 194.25C167.301 194.25 167.501 194.197 167.641 194.09C167.787 193.983 167.861 193.843 167.861 193.67C167.861 193.523 167.804 193.393 167.691 193.28C167.577 193.16 167.461 193.073 167.341 193.02C167.227 192.96 167.031 192.87 166.751 192.75C165.957 192.423 165.561 191.943 165.561 191.31C165.561 190.863 165.727 190.513 166.061 190.26C166.394 190.007 166.811 189.88 167.311 189.88C167.857 189.88 168.284 189.953 168.591 190.1ZM169.93 195V189.93H170.92V195H169.93ZM169.98 188.82C169.867 188.7 169.81 188.553 169.81 188.38C169.81 188.207 169.867 188.06 169.98 187.94C170.1 187.82 170.247 187.76 170.42 187.76C170.594 187.76 170.74 187.82 170.86 187.94C170.98 188.06 171.04 188.207 171.04 188.38C171.04 188.547 170.98 188.69 170.86 188.81C170.74 188.93 170.594 188.99 170.42 188.99C170.247 188.99 170.1 188.933 169.98 188.82ZM171.571 196.24L172.531 193.9H173.741L172.431 196.24H171.571ZM178.653 194.89L176.633 189.93H177.723L178.353 191.58L179.143 193.72C179.203 193.52 179.443 192.807 179.863 191.58L180.433 189.93H181.473L179.643 194.86C179.157 196.16 178.413 196.81 177.413 196.81C177.233 196.81 177.08 196.793 176.953 196.76V195.92C177.06 195.947 177.173 195.96 177.293 195.96C177.94 195.96 178.393 195.603 178.653 194.89ZM184.963 192.74H184.203C183.829 192.74 183.546 192.813 183.353 192.96C183.166 193.107 183.073 193.293 183.073 193.52C183.073 193.753 183.146 193.937 183.293 194.07C183.439 194.203 183.653 194.27 183.933 194.27C184.253 194.27 184.503 194.183 184.683 194.01C184.869 193.83 184.963 193.597 184.963 193.31V192.74ZM182.413 191.14V190.19C182.806 189.963 183.326 189.85 183.973 189.85C185.299 189.85 185.963 190.493 185.963 191.78V195H184.993V194.4C184.733 194.827 184.276 195.04 183.623 195.04C183.143 195.04 182.756 194.903 182.463 194.63C182.176 194.35 182.033 193.997 182.033 193.57C182.033 193.083 182.216 192.707 182.583 192.44C182.949 192.167 183.463 192.03 184.123 192.03H184.963V191.74C184.963 191.393 184.879 191.133 184.713 190.96C184.546 190.78 184.269 190.69 183.883 190.69C183.343 190.69 182.853 190.84 182.413 191.14ZM188.263 189.93V190.8C188.563 190.173 189.089 189.86 189.843 189.86C190.343 189.86 190.739 190.013 191.033 190.32C191.326 190.627 191.473 191.043 191.473 191.57V195H190.493V191.8C190.493 191.447 190.403 191.177 190.223 190.99C190.049 190.803 189.816 190.71 189.523 190.71C189.176 190.71 188.879 190.847 188.633 191.12C188.386 191.387 188.263 191.763 188.263 192.25V195H187.283V189.93H188.263ZM194.791 194.02C195.137 194.02 195.437 193.887 195.691 193.62C195.951 193.347 196.081 192.967 196.081 192.48C196.081 191.88 195.957 191.437 195.711 191.15C195.471 190.863 195.177 190.72 194.831 190.72C194.437 190.72 194.127 190.877 193.901 191.19C193.674 191.497 193.561 191.903 193.561 192.41C193.561 192.937 193.681 193.337 193.921 193.61C194.167 193.883 194.457 194.02 194.791 194.02ZM196.081 189.93H197.061V194.57C197.061 195.35 196.837 195.937 196.391 196.33C195.951 196.73 195.384 196.93 194.691 196.93C194.037 196.93 193.487 196.82 193.041 196.6V195.61C193.467 195.89 193.984 196.03 194.591 196.03C195.584 196.03 196.081 195.54 196.081 194.56V194.04C195.754 194.587 195.264 194.86 194.611 194.86C194.037 194.86 193.547 194.65 193.141 194.23C192.734 193.803 192.531 193.203 192.531 192.43C192.531 191.683 192.721 191.07 193.101 190.59C193.481 190.103 193.984 189.86 194.611 189.86C195.284 189.86 195.774 190.147 196.081 190.72V189.93ZM203.227 194.21C203.601 194.21 203.914 194.053 204.167 193.74C204.421 193.42 204.547 193.01 204.547 192.51C204.547 191.937 204.421 191.497 204.167 191.19C203.914 190.877 203.591 190.72 203.197 190.72C202.851 190.72 202.537 190.86 202.257 191.14C201.984 191.42 201.847 191.85 201.847 192.43C201.847 193.03 201.981 193.477 202.247 193.77C202.514 194.063 202.841 194.21 203.227 194.21ZM201.847 187.93V190.7C202.207 190.14 202.717 189.86 203.377 189.86C204.017 189.86 204.541 190.1 204.947 190.58C205.354 191.06 205.557 191.697 205.557 192.49C205.557 193.203 205.364 193.813 204.977 194.32C204.591 194.82 204.061 195.07 203.387 195.07C202.714 195.07 202.201 194.79 201.847 194.23V195H200.857V187.93H201.847ZM206.698 195V189.93H207.688V195H206.698ZM206.748 188.82C206.634 188.7 206.578 188.553 206.578 188.38C206.578 188.207 206.634 188.06 206.748 187.94C206.868 187.82 207.014 187.76 207.188 187.76C207.361 187.76 207.508 187.82 207.628 187.94C207.748 188.06 207.808 188.207 207.808 188.38C207.808 188.547 207.748 188.69 207.628 188.81C207.508 188.93 207.361 188.99 207.188 188.99C207.014 188.99 206.868 188.933 206.748 188.82ZM211.999 190.1V190.99C211.672 190.797 211.252 190.7 210.739 190.7C210.506 190.7 210.319 190.753 210.179 190.86C210.046 190.967 209.979 191.107 209.979 191.28C209.979 191.327 209.982 191.373 209.989 191.42C210.002 191.46 210.022 191.503 210.049 191.55C210.076 191.59 210.099 191.627 210.119 191.66C210.146 191.687 210.186 191.717 210.239 191.75C210.292 191.783 210.332 191.813 210.359 191.84C210.392 191.86 210.442 191.887 210.509 191.92C210.582 191.953 210.636 191.98 210.669 192C210.702 192.013 210.759 192.04 210.839 192.08C210.926 192.113 210.986 192.137 211.019 192.15C211.412 192.323 211.719 192.52 211.939 192.74C212.166 192.953 212.279 193.24 212.279 193.6C212.279 194.053 212.119 194.41 211.799 194.67C211.479 194.923 211.046 195.05 210.499 195.05C209.899 195.05 209.399 194.95 208.999 194.75V193.82C209.466 194.107 209.949 194.25 210.449 194.25C210.709 194.25 210.909 194.197 211.049 194.09C211.196 193.983 211.269 193.843 211.269 193.67C211.269 193.523 211.212 193.393 211.099 193.28C210.986 193.16 210.869 193.073 210.749 193.02C210.636 192.96 210.439 192.87 210.159 192.75C209.366 192.423 208.969 191.943 208.969 191.31C208.969 190.863 209.136 190.513 209.469 190.26C209.802 190.007 210.219 189.88 210.719 189.88C211.266 189.88 211.692 189.953 211.999 190.1ZM215.968 192.74H215.208C214.835 192.74 214.552 192.813 214.358 192.96C214.172 193.107 214.078 193.293 214.078 193.52C214.078 193.753 214.152 193.937 214.298 194.07C214.445 194.203 214.658 194.27 214.938 194.27C215.258 194.27 215.508 194.183 215.688 194.01C215.875 193.83 215.968 193.597 215.968 193.31V192.74ZM213.418 191.14V190.19C213.812 189.963 214.332 189.85 214.978 189.85C216.305 189.85 216.968 190.493 216.968 191.78V195H215.998V194.4C215.738 194.827 215.282 195.04 214.628 195.04C214.148 195.04 213.762 194.903 213.468 194.63C213.182 194.35 213.038 193.997 213.038 193.57C213.038 193.083 213.222 192.707 213.588 192.44C213.955 192.167 214.468 192.03 215.128 192.03H215.968V191.74C215.968 191.393 215.885 191.133 215.718 190.96C215.552 190.78 215.275 190.69 214.888 190.69C214.348 190.69 213.858 190.84 213.418 191.14ZM221.73 189.93V190.74C222.016 190.153 222.493 189.86 223.16 189.86C223.92 189.86 224.406 190.187 224.62 190.84C224.76 190.527 224.963 190.287 225.23 190.12C225.496 189.947 225.796 189.86 226.13 189.86C226.65 189.86 227.043 190.013 227.31 190.32C227.583 190.627 227.72 191.05 227.72 191.59V195H226.74V191.8C226.74 191.073 226.446 190.71 225.86 190.71C225.566 190.71 225.303 190.84 225.07 191.1C224.843 191.36 224.73 191.743 224.73 192.25V195H223.75V191.8C223.75 191.073 223.453 190.71 222.86 190.71C222.573 190.71 222.313 190.84 222.08 191.1C221.846 191.36 221.73 191.743 221.73 192.25V195H220.75V189.93H221.73ZM232.2 192.1V191.92C232.187 191.54 232.084 191.24 231.89 191.02C231.697 190.793 231.42 190.68 231.06 190.68C230.727 190.68 230.44 190.803 230.2 191.05C229.96 191.29 229.81 191.64 229.75 192.1H232.2ZM232.83 193.85V194.73C232.457 194.943 231.964 195.05 231.35 195.05C230.564 195.05 229.937 194.813 229.47 194.34C229.004 193.867 228.77 193.247 228.77 192.48C228.77 191.667 228.984 191.03 229.41 190.57C229.837 190.103 230.38 189.87 231.04 189.87C231.687 189.87 232.2 190.073 232.58 190.48C232.96 190.88 233.15 191.46 233.15 192.22C233.15 192.427 233.13 192.643 233.09 192.87H229.76C229.827 193.31 230.014 193.647 230.32 193.88C230.627 194.113 231.014 194.23 231.48 194.23C232.02 194.23 232.47 194.103 232.83 193.85ZM235.284 189.93V190.74C235.571 190.153 236.048 189.86 236.714 189.86C237.474 189.86 237.961 190.187 238.174 190.84C238.314 190.527 238.518 190.287 238.784 190.12C239.051 189.947 239.351 189.86 239.684 189.86C240.204 189.86 240.598 190.013 240.864 190.32C241.138 190.627 241.274 191.05 241.274 191.59V195H240.294V191.8C240.294 191.073 240.001 190.71 239.414 190.71C239.121 190.71 238.858 190.84 238.624 191.1C238.398 191.36 238.284 191.743 238.284 192.25V195H237.304V191.8C237.304 191.073 237.008 190.71 236.414 190.71C236.128 190.71 235.868 190.84 235.634 191.1C235.401 191.36 235.284 191.743 235.284 192.25V195H234.304V189.93H235.284ZM244.995 194.21C245.368 194.21 245.682 194.053 245.935 193.74C246.188 193.42 246.315 193.01 246.315 192.51C246.315 191.937 246.188 191.497 245.935 191.19C245.682 190.877 245.358 190.72 244.965 190.72C244.618 190.72 244.305 190.86 244.025 191.14C243.752 191.42 243.615 191.85 243.615 192.43C243.615 193.03 243.748 193.477 244.015 193.77C244.282 194.063 244.608 194.21 244.995 194.21ZM243.615 187.93V190.7C243.975 190.14 244.485 189.86 245.145 189.86C245.785 189.86 246.308 190.1 246.715 190.58C247.122 191.06 247.325 191.697 247.325 192.49C247.325 193.203 247.132 193.813 246.745 194.32C246.358 194.82 245.828 195.07 245.155 195.07C244.482 195.07 243.968 194.79 243.615 194.23V195H242.625V187.93H243.615ZM248.465 195V189.93H249.455V195H248.465ZM248.515 188.82C248.402 188.7 248.345 188.553 248.345 188.38C248.345 188.207 248.402 188.06 248.515 187.94C248.635 187.82 248.782 187.76 248.955 187.76C249.129 187.76 249.275 187.82 249.395 187.94C249.515 188.06 249.575 188.207 249.575 188.38C249.575 188.547 249.515 188.69 249.395 188.81C249.275 188.93 249.129 188.99 248.955 188.99C248.782 188.99 248.635 188.933 248.515 188.82ZM253.547 192.74H252.787C252.413 192.74 252.13 192.813 251.937 192.96C251.75 193.107 251.657 193.293 251.657 193.52C251.657 193.753 251.73 193.937 251.877 194.07C252.023 194.203 252.237 194.27 252.517 194.27C252.837 194.27 253.087 194.183 253.267 194.01C253.453 193.83 253.547 193.597 253.547 193.31V192.74ZM250.997 191.14V190.19C251.39 189.963 251.91 189.85 252.557 189.85C253.883 189.85 254.547 190.493 254.547 191.78V195H253.577V194.4C253.317 194.827 252.86 195.04 252.207 195.04C251.727 195.04 251.34 194.903 251.047 194.63C250.76 194.35 250.617 193.997 250.617 193.57C250.617 193.083 250.8 192.707 251.167 192.44C251.533 192.167 252.047 192.03 252.707 192.03H253.547V191.74C253.547 191.393 253.463 191.133 253.297 190.96C253.13 190.78 252.853 190.69 252.467 190.69C251.927 190.69 251.437 190.84 250.997 191.14ZM257.267 194.89L255.247 189.93H256.337L256.967 191.58L257.757 193.72C257.817 193.52 258.057 192.807 258.477 191.58L259.047 189.93H260.087L258.257 194.86C257.77 196.16 257.027 196.81 256.027 196.81C255.847 196.81 255.693 196.793 255.567 196.76V195.92C255.673 195.947 255.787 195.96 255.907 195.96C256.553 195.96 257.007 195.603 257.267 194.89ZM263.576 192.74H262.816C262.442 192.74 262.159 192.813 261.966 192.96C261.779 193.107 261.686 193.293 261.686 193.52C261.686 193.753 261.759 193.937 261.906 194.07C262.052 194.203 262.266 194.27 262.546 194.27C262.866 194.27 263.116 194.183 263.296 194.01C263.482 193.83 263.576 193.597 263.576 193.31V192.74ZM261.026 191.14V190.19C261.419 189.963 261.939 189.85 262.586 189.85C263.912 189.85 264.576 190.493 264.576 191.78V195H263.606V194.4C263.346 194.827 262.889 195.04 262.236 195.04C261.756 195.04 261.369 194.903 261.076 194.63C260.789 194.35 260.646 193.997 260.646 193.57C260.646 193.083 260.829 192.707 261.196 192.44C261.562 192.167 262.076 192.03 262.736 192.03H263.576V191.74C263.576 191.393 263.492 191.133 263.326 190.96C263.159 190.78 262.882 190.69 262.496 190.69C261.956 190.69 261.466 190.84 261.026 191.14ZM265.936 195V189.93H266.926V195H265.936ZM265.986 188.82C265.873 188.7 265.816 188.553 265.816 188.38C265.816 188.207 265.873 188.06 265.986 187.94C266.106 187.82 266.253 187.76 266.426 187.76C266.599 187.76 266.746 187.82 266.866 187.94C266.986 188.06 267.046 188.207 267.046 188.38C267.046 188.547 266.986 188.69 266.866 188.81C266.746 188.93 266.599 188.99 266.426 188.99C266.253 188.99 266.106 188.933 265.986 188.82ZM131.759 205.93V206.82C132.006 206.193 132.449 205.88 133.089 205.88C133.182 205.88 133.286 205.89 133.399 205.91V206.87C133.259 206.81 133.102 206.78 132.929 206.78C132.589 206.78 132.309 206.93 132.089 207.23C131.869 207.53 131.759 207.887 131.759 208.3V211H130.779V205.93H131.759ZM137.318 205.93H138.298V211H137.318V210.13C137.051 210.75 136.524 211.06 135.738 211.06C135.238 211.06 134.841 210.913 134.548 210.62C134.254 210.32 134.108 209.91 134.108 209.39V205.93H135.098V209.15C135.098 209.497 135.181 209.763 135.348 209.95C135.521 210.13 135.758 210.22 136.058 210.22C136.438 210.22 136.741 210.087 136.968 209.82C137.201 209.553 137.318 209.177 137.318 208.69V205.93ZM140.655 205.93V206.74C140.942 206.153 141.419 205.86 142.085 205.86C142.845 205.86 143.332 206.187 143.545 206.84C143.685 206.527 143.889 206.287 144.155 206.12C144.422 205.947 144.722 205.86 145.055 205.86C145.575 205.86 145.969 206.013 146.235 206.32C146.509 206.627 146.645 207.05 146.645 207.59V211H145.665V207.8C145.665 207.073 145.372 206.71 144.785 206.71C144.492 206.71 144.229 206.84 143.995 207.1C143.769 207.36 143.655 207.743 143.655 208.25V211H142.675V207.8C142.675 207.073 142.379 206.71 141.785 206.71C141.499 206.71 141.239 206.84 141.005 207.1C140.772 207.36 140.655 207.743 140.655 208.25V211H139.675V205.93H140.655ZM150.646 208.74H149.886C149.513 208.74 149.229 208.813 149.036 208.96C148.849 209.107 148.756 209.293 148.756 209.52C148.756 209.753 148.829 209.937 148.976 210.07C149.123 210.203 149.336 210.27 149.616 210.27C149.936 210.27 150.186 210.183 150.366 210.01C150.553 209.83 150.646 209.597 150.646 209.31V208.74ZM148.096 207.14V206.19C148.489 205.963 149.009 205.85 149.656 205.85C150.983 205.85 151.646 206.493 151.646 207.78V211H150.676V210.4C150.416 210.827 149.959 211.04 149.306 211.04C148.826 211.04 148.439 210.903 148.146 210.63C147.859 210.35 147.716 209.997 147.716 209.57C147.716 209.083 147.899 208.707 148.266 208.44C148.633 208.167 149.146 208.03 149.806 208.03H150.646V207.74C150.646 207.393 150.563 207.133 150.396 206.96C150.229 206.78 149.953 206.69 149.566 206.69C149.026 206.69 148.536 206.84 148.096 207.14ZM153.946 203.93V206.8C154.233 206.173 154.756 205.86 155.516 205.86C156.01 205.86 156.406 206.013 156.706 206.32C157.006 206.627 157.156 207.053 157.156 207.6V211H156.176V207.8C156.176 207.453 156.086 207.187 155.906 207C155.733 206.807 155.503 206.71 155.216 206.71C154.883 206.71 154.586 206.837 154.326 207.09C154.073 207.343 153.946 207.73 153.946 208.25V211H152.966V203.93H153.946ZM163.825 206.1V206.99C163.498 206.797 163.078 206.7 162.565 206.7C162.332 206.7 162.145 206.753 162.005 206.86C161.872 206.967 161.805 207.107 161.805 207.28C161.805 207.327 161.808 207.373 161.815 207.42C161.828 207.46 161.848 207.503 161.875 207.55C161.902 207.59 161.925 207.627 161.945 207.66C161.972 207.687 162.012 207.717 162.065 207.75C162.118 207.783 162.158 207.813 162.185 207.84C162.218 207.86 162.268 207.887 162.335 207.92C162.408 207.953 162.462 207.98 162.495 208C162.528 208.013 162.585 208.04 162.665 208.08C162.752 208.113 162.812 208.137 162.845 208.15C163.238 208.323 163.545 208.52 163.765 208.74C163.992 208.953 164.105 209.24 164.105 209.6C164.105 210.053 163.945 210.41 163.625 210.67C163.305 210.923 162.872 211.05 162.325 211.05C161.725 211.05 161.225 210.95 160.825 210.75V209.82C161.292 210.107 161.775 210.25 162.275 210.25C162.535 210.25 162.735 210.197 162.875 210.09C163.022 209.983 163.095 209.843 163.095 209.67C163.095 209.523 163.038 209.393 162.925 209.28C162.812 209.16 162.695 209.073 162.575 209.02C162.462 208.96 162.265 208.87 161.985 208.75C161.192 208.423 160.795 207.943 160.795 207.31C160.795 206.863 160.962 206.513 161.295 206.26C161.628 206.007 162.045 205.88 162.545 205.88C163.092 205.88 163.518 205.953 163.825 206.1ZM167.795 208.74H167.035C166.661 208.74 166.378 208.813 166.185 208.96C165.998 209.107 165.905 209.293 165.905 209.52C165.905 209.753 165.978 209.937 166.125 210.07C166.271 210.203 166.485 210.27 166.765 210.27C167.085 210.27 167.335 210.183 167.515 210.01C167.701 209.83 167.795 209.597 167.795 209.31V208.74ZM165.245 207.14V206.19C165.638 205.963 166.158 205.85 166.805 205.85C168.131 205.85 168.795 206.493 168.795 207.78V211H167.825V210.4C167.565 210.827 167.108 211.04 166.455 211.04C165.975 211.04 165.588 210.903 165.295 210.63C165.008 210.35 164.865 209.997 164.865 209.57C164.865 209.083 165.048 208.707 165.415 208.44C165.781 208.167 166.295 208.03 166.955 208.03H167.795V207.74C167.795 207.393 167.711 207.133 167.545 206.96C167.378 206.78 167.101 206.69 166.715 206.69C166.175 206.69 165.685 206.84 165.245 207.14ZM170.115 211V204H171.095V211H170.115ZM172.265 208.35L174.255 211H173.085L171.135 208.35L173.045 205.93H174.195L172.265 208.35ZM175.155 211V205.93H176.145V211H175.155ZM175.205 204.82C175.091 204.7 175.035 204.553 175.035 204.38C175.035 204.207 175.091 204.06 175.205 203.94C175.325 203.82 175.471 203.76 175.645 203.76C175.818 203.76 175.965 203.82 176.085 203.94C176.205 204.06 176.265 204.207 176.265 204.38C176.265 204.547 176.205 204.69 176.085 204.81C175.965 204.93 175.818 204.99 175.645 204.99C175.471 204.99 175.325 204.933 175.205 204.82ZM178.836 206.69V209.48C178.836 209.967 179.069 210.21 179.536 210.21C179.809 210.21 180.039 210.137 180.226 209.99V210.87C180.006 210.99 179.736 211.05 179.416 211.05C178.369 211.05 177.846 210.52 177.846 209.46V206.69H177.056V205.93H177.846V204.69H178.836V205.93H180.166V206.69H178.836ZM185.297 208.49H187.457L187.347 208.15C187.094 207.363 186.887 206.713 186.727 206.2C186.567 205.68 186.47 205.357 186.437 205.23L186.387 205.04C186.314 205.353 185.987 206.39 185.407 208.15L185.297 208.49ZM188.267 211L187.737 209.35H185.017L184.477 211H183.387L185.717 204.26H187.067L189.367 211H188.267ZM191.349 205.93V206.8C191.649 206.173 192.175 205.86 192.929 205.86C193.429 205.86 193.825 206.013 194.119 206.32C194.412 206.627 194.559 207.043 194.559 207.57V211H193.579V207.8C193.579 207.447 193.489 207.177 193.309 206.99C193.135 206.803 192.902 206.71 192.609 206.71C192.262 206.71 191.965 206.847 191.719 207.12C191.472 207.387 191.349 207.763 191.349 208.25V211H190.369V205.93H191.349ZM197.927 210.21C198.313 210.21 198.64 210.063 198.907 209.77C199.173 209.477 199.307 209.03 199.307 208.43C199.307 207.85 199.167 207.42 198.887 207.14C198.613 206.86 198.303 206.72 197.957 206.72C197.563 206.72 197.24 206.877 196.987 207.19C196.733 207.497 196.607 207.937 196.607 208.51C196.607 209.017 196.73 209.427 196.977 209.74C197.23 210.053 197.547 210.21 197.927 210.21ZM199.307 203.93H200.297V211H199.307V210.23C198.953 210.79 198.437 211.07 197.757 211.07C197.09 211.07 196.563 210.82 196.177 210.32C195.79 209.813 195.597 209.203 195.597 208.49C195.597 207.697 195.8 207.06 196.207 206.58C196.613 206.1 197.137 205.86 197.777 205.86C198.437 205.86 198.947 206.14 199.307 206.7V203.93ZM204.347 208.74H203.587C203.214 208.74 202.931 208.813 202.737 208.96C202.551 209.107 202.457 209.293 202.457 209.52C202.457 209.753 202.531 209.937 202.677 210.07C202.824 210.203 203.037 210.27 203.317 210.27C203.637 210.27 203.887 210.183 204.067 210.01C204.254 209.83 204.347 209.597 204.347 209.31V208.74ZM201.797 207.14V206.19C202.191 205.963 202.711 205.85 203.357 205.85C204.684 205.85 205.347 206.493 205.347 207.78V211H204.377V210.4C204.117 210.827 203.661 211.04 203.007 211.04C202.527 211.04 202.141 210.903 201.847 210.63C201.561 210.35 201.417 209.997 201.417 209.57C201.417 209.083 201.601 208.707 201.967 208.44C202.334 208.167 202.847 208.03 203.507 208.03H204.347V207.74C204.347 207.393 204.264 207.133 204.097 206.96C203.931 206.78 203.654 206.69 203.267 206.69C202.727 206.69 202.237 206.84 201.797 207.14ZM206.458 210.88C206.331 210.747 206.268 210.587 206.268 210.4C206.268 210.213 206.331 210.057 206.458 209.93C206.591 209.797 206.754 209.73 206.948 209.73C207.134 209.73 207.291 209.797 207.418 209.93C207.551 210.057 207.618 210.213 207.618 210.4C207.618 210.587 207.551 210.747 207.418 210.88C207.291 211.013 207.134 211.08 206.948 211.08C206.754 211.08 206.591 211.013 206.458 210.88Z" fill="#2B2B2B"/>
<rect x="109" y="270" width="120" height="24" rx="8" fill="#FF1934"/>
<path d="M155.22 280.856L155.22 283.448L155.212 283.448L155.22 283.536C154.729 283.888 154.116 284.064 153.38 284.064C152.526 284.064 151.836 283.816 151.308 283.32C150.785 282.824 150.524 282.149 150.524 281.296C150.524 280.464 150.793 279.792 151.332 279.28C151.876 278.768 152.561 278.512 153.388 278.512C154.001 278.512 154.526 278.627 154.964 278.856L154.964 279.888C154.473 279.595 153.953 279.448 153.404 279.448C152.865 279.448 152.43 279.616 152.1 279.952C151.769 280.288 151.604 280.736 151.604 281.296C151.604 281.867 151.764 282.317 152.084 282.648C152.409 282.973 152.854 283.136 153.42 283.136C153.697 283.136 153.966 283.088 154.228 282.992L154.228 281.72L153.236 281.72L153.236 280.856L155.22 280.856ZM159.463 281.936L159.463 278.608L160.471 278.608L160.471 281.928C160.471 282.627 160.281 283.16 159.903 283.528C159.529 283.891 159.015 284.072 158.359 284.072C157.719 284.072 157.207 283.893 156.823 283.536C156.444 283.173 156.255 282.656 156.255 281.984L156.255 278.608L157.263 278.608L157.263 281.976C157.263 282.387 157.364 282.685 157.567 282.872C157.769 283.053 158.033 283.144 158.359 283.144C159.095 283.144 159.463 282.741 159.463 281.936ZM161.56 284L161.56 278.608L162.704 278.608L164 280.856C164.213 281.224 164.403 281.568 164.568 281.888C164.739 282.203 164.853 282.427 164.912 282.56L165 282.76C164.957 282.317 164.936 281.683 164.936 280.856L164.936 278.608L165.952 278.608L165.952 284L164.8 284L163.488 281.76C163.28 281.408 163.091 281.072 162.92 280.752C162.755 280.427 162.64 280.192 162.576 280.048L162.48 279.824C162.539 280.331 162.568 280.973 162.568 281.752L162.568 284L161.56 284ZM168.436 281.952L169.956 281.952L169.884 281.712C169.702 281.136 169.553 280.653 169.436 280.264C169.324 279.869 169.254 279.621 169.228 279.52L169.196 279.36C169.148 279.627 168.918 280.413 168.508 281.72L168.436 281.952ZM170.596 284L170.212 282.776L168.172 282.776L167.788 284L166.732 284L168.556 278.608L169.86 278.608L171.684 284L170.596 284ZM172.458 284L172.458 278.608L173.466 278.608L173.466 284L172.458 284ZM174.746 281.312L176.754 284L175.482 284L173.546 281.328L175.41 278.608L176.618 278.608L174.746 281.312ZM178.85 281.952L180.37 281.952L180.298 281.712C180.117 281.136 179.967 280.653 179.85 280.264C179.738 279.869 179.669 279.621 179.642 279.52L179.61 279.36C179.562 279.627 179.333 280.413 178.922 281.72L178.85 281.952ZM181.01 284L180.626 282.776L178.586 282.776L178.202 284L177.146 284L178.97 278.608L180.274 278.608L182.098 284L181.01 284ZM182.873 284L182.873 278.608L184.017 278.608L185.313 280.856C185.526 281.224 185.715 281.568 185.881 281.888C186.051 282.203 186.166 282.427 186.225 282.56L186.313 282.76C186.27 282.317 186.249 281.683 186.249 280.856L186.249 278.608L187.265 278.608L187.265 284L186.113 284L184.801 281.76C184.593 281.408 184.403 281.072 184.233 280.752C184.067 280.427 183.953 280.192 183.889 280.048L183.793 279.824C183.851 280.331 183.881 280.973 183.881 281.752L183.881 284L182.873 284Z" fill="white"/>
<path d="M9 341.5H329C333.694 341.5 337.5 345.306 337.5 350C337.5 354.694 333.694 358.5 329 358.5H9C4.30558 358.5 0.5 354.694 0.5 350C0.500002 345.306 4.30558 341.5 9 341.5Z" fill="white"/>
<path d="M9 341.5H329C333.694 341.5 337.5 345.306 337.5 350C337.5 354.694 333.694 358.5 329 358.5H9C4.30558 358.5 0.5 354.694 0.5 350C0.500002 345.306 4.30558 341.5 9 341.5Z" stroke="#CCCCCC"/>
<path d="M7.86805e-07 350C3.52265e-07 345.029 4.02944 341 9 341L39 341C43.9706 341 48 345.029 48 350C48 354.971 43.9706 359 39 359L9 359C4.02944 359 1.22135e-06 354.971 7.86805e-07 350Z" fill="#FF1934"/>
<path d="M15.448 346.688H16.264L16.816 348.6L17.456 350.92C17.5893 350.179 17.7547 349.403 17.952 348.592L18.44 346.608H19.464L18.088 352H16.92L16.432 350.296C16.2987 349.843 16.184 349.443 16.088 349.096C15.9973 348.749 15.936 348.517 15.904 348.4L15.864 348.216C15.7893 348.589 15.6027 349.283 15.304 350.296L14.8 352H13.64L12.2 346.608H13.264L13.768 348.6C13.8533 348.957 13.9387 349.328 14.024 349.712C14.1093 350.096 14.1733 350.389 14.216 350.592L14.28 350.904C14.4507 350.232 14.6587 349.464 14.904 348.6L15.448 346.688ZM22.2561 350.256H21.7601C21.5094 350.256 21.3174 350.309 21.1841 350.416C21.0507 350.517 20.9841 350.648 20.9841 350.808C20.9841 351.149 21.1814 351.32 21.5761 351.32C21.7894 351.32 21.9547 351.259 22.0721 351.136C22.1947 351.008 22.2561 350.843 22.2561 350.64V350.256ZM20.2881 349.04V348.152C20.5921 347.965 21.0294 347.872 21.6001 347.872C22.6987 347.872 23.2481 348.384 23.2481 349.408V352H22.2961V351.512C22.1094 351.859 21.7574 352.032 21.2401 352.032C20.8561 352.032 20.5494 351.92 20.3201 351.696C20.0961 351.472 19.9841 351.189 19.9841 350.848C19.9841 350.464 20.1281 350.163 20.4161 349.944C20.7041 349.725 21.1201 349.616 21.6641 349.616H22.2561V349.368C22.2561 349.144 22.1974 348.973 22.0801 348.856C21.9627 348.739 21.7627 348.68 21.4801 348.68C21.0481 348.68 20.6507 348.8 20.2881 349.04ZM27.7828 352H26.6548L25.1988 349.904V352H24.2388V346.44H25.1988V349.848L26.6308 347.944H27.7508L26.2628 349.88L27.7828 352ZM29.5864 348.664V350.728C29.5864 350.899 29.6318 351.029 29.7224 351.12C29.8131 351.205 29.9384 351.248 30.0984 351.248C30.3011 351.248 30.4878 351.192 30.6584 351.08V351.904C30.4718 351.995 30.2318 352.04 29.9384 352.04C29.0638 352.04 28.6264 351.597 28.6264 350.712V348.664H28.0184V347.944H28.6264V346.968H29.5864V347.944H30.5944V348.664H29.5864ZM33.9617 347.944H34.9297V352H33.9617V351.336C33.7484 351.805 33.3324 352.04 32.7137 352.04C32.303 352.04 31.983 351.923 31.7537 351.688C31.5244 351.453 31.4097 351.12 31.4097 350.688V347.944H32.3697V350.464C32.3697 350.72 32.431 350.915 32.5537 351.048C32.6817 351.181 32.855 351.248 33.0737 351.248C33.351 351.248 33.567 351.155 33.7217 350.968C33.8817 350.781 33.9617 350.499 33.9617 350.12V347.944Z" fill="white"/>
<rect x="56" y="348" width="274" height="4" rx="2" fill="#CCCCCC"/>
<mask id="mask0_1124_4113" style="mask-type:alpha" maskUnits="userSpaceOnUse" x="56" y="348" width="274" height="4">
<rect x="56" y="348" width="274" height="4" rx="2" fill="#CCCCCC"/>
</mask>
<g mask="url(#mask0_1124_4113)">
<rect x="56" y="348" width="274" height="4" rx="2" fill="#FF1934"/>
</g>
<defs>
<filter id="filter0_d_1124_4113" x="5" y="14" width="328" height="56" filterUnits="userSpaceOnUse" color-interpolation-filters="sRGB">
<feFlood flood-opacity="0" result="BackgroundImageFix"/>
<feColorMatrix in="SourceAlpha" type="matrix" values="0 0 0 0 0 0 0 0 0 0 0 0 0 0 0 0 0 0 127 0" result="hardAlpha"/>
<feOffset dy="2"/>
<feGaussianBlur stdDeviation="2"/>
<feComposite in2="hardAlpha" operator="out"/>
<feColorMatrix type="matrix" values="0 0 0 0 0.168627 0 0 0 0 0.168627 0 0 0 0 0.168627 0 0 0 0.24 0"/>
<feBlend mode="normal" in2="BackgroundImageFix" result="effect1_dropShadow_1124_4113"/>
<feBlend mode="normal" in="SourceGraphic" in2="effect1_dropShadow_1124_4113" result="shape"/>
</filter>
<clipPath id="clip0_1124_4113">
<rect width="24" height="24" fill="white" transform="translate(25 32)"/>
</clipPath>
<clipPath id="clip1_1124_4113">
<rect width="64" height="64" fill="white" transform="translate(137 104)"/>
</clipPath>
</defs>
</svg>
