<svg width="338" height="375" viewBox="0 0 338 375" fill="none" xmlns="http://www.w3.org/2000/svg">
<rect width="338" height="375" fill="#D3D3D3"/>
<rect x="26.5" y="16" width="285" height="294" rx="16" fill="white"/>
<g filter="url(#filter0_d_1124_4113)">
<path d="M26.5 32C26.5 23.1634 33.6634 16 42.5 16H295.5C304.337 16 311.5 23.1634 311.5 32V64H26.5V32Z" fill="#FF1934" shape-rendering="crispEdges"/>
<g clip-path="url(#clip0_1124_4113)">
<path d="M54.5 34C48.99 34 44.5 38.49 44.5 44C44.5 46.27 45.24 48.41 46.64 50.18C46.91 50.53 47.42 50.59 47.76 50.31C48.11 50.04 48.17 49.53 47.89 49.19C46.71 47.7 46.09 45.9 46.09 44C46.1 39.37 49.87 35.6 54.5 35.6C59.13 35.6 62.9 39.37 62.9 44C62.9 48.63 59.13 52.4 54.5 52.4C52.82 52.4 51.19 51.9 49.8 50.97C49.43 50.72 48.94 50.82 48.69 51.18C48.44 51.54 48.54 52.04 48.9 52.29C50.56 53.41 52.49 54 54.49 54C60 54 64.49 49.51 64.49 44C64.49 38.49 60.01 34 54.5 34Z" fill="white"/>
<path d="M58.2402 38.14C57.8702 37.9 57.3702 38.01 57.1302 38.38L53.8202 43.57C53.7402 43.7 53.7002 43.85 53.7002 44V48C53.7002 48.44 54.0602 48.8 54.5002 48.8C54.9402 48.8 55.3002 48.44 55.3002 48V44.23L58.4902 39.24C58.7302 38.87 58.6202 38.37 58.2502 38.13L58.2402 38.14Z" fill="white"/>
</g>
<path d="M77.566 46.11H81.052V48H75.41V38.564H77.566V46.11ZM82.2459 48V40.902H84.2899V48H82.2459ZM82.4279 39.684C82.1946 39.4507 82.0779 39.1707 82.0779 38.844C82.0779 38.5173 82.1946 38.2373 82.4279 38.004C82.6613 37.7707 82.9413 37.654 83.2679 37.654C83.5946 37.654 83.8746 37.7707 84.1079 38.004C84.3413 38.2373 84.4579 38.5173 84.4579 38.844C84.4579 39.1707 84.3413 39.4507 84.1079 39.684C83.8746 39.9173 83.5946 40.034 83.2679 40.034C82.9413 40.034 82.6613 39.9173 82.4279 39.684ZM88.0891 40.902V42.106C88.2664 41.714 88.5371 41.406 88.9011 41.182C89.2744 40.9487 89.7177 40.832 90.2311 40.832C90.9591 40.832 91.5284 41.0513 91.9391 41.49C92.3497 41.9193 92.5551 42.554 92.5551 43.394V48H90.5111V43.772C90.5111 43.352 90.4131 43.0347 90.2171 42.82C90.0211 42.596 89.7457 42.484 89.3911 42.484C89.0177 42.484 88.7051 42.6333 88.4531 42.932C88.2104 43.2213 88.0891 43.66 88.0891 44.248V48H86.0451V40.902H88.0891ZM94.2362 48V40.902H96.2802V48H94.2362ZM94.4182 39.684C94.1848 39.4507 94.0682 39.1707 94.0682 38.844C94.0682 38.5173 94.1848 38.2373 94.4182 38.004C94.6515 37.7707 94.9315 37.654 95.2582 37.654C95.5848 37.654 95.8648 37.7707 96.0982 38.004C96.3315 38.2373 96.4482 38.5173 96.4482 38.844C96.4482 39.1707 96.3315 39.4507 96.0982 39.684C95.8648 39.9173 95.5848 40.034 95.2582 40.034C94.9315 40.034 94.6515 39.9173 94.4182 39.684ZM101.395 48L102.207 38.564H104.573L105.889 41.98C106.113 42.5493 106.305 43.072 106.463 43.548C106.622 44.024 106.725 44.36 106.771 44.556L106.841 44.836C106.991 44.22 107.317 43.268 107.821 41.98L109.151 38.564H111.517L112.497 48H110.341L109.991 44.346L109.809 41.588C109.567 42.288 109.231 43.2073 108.801 44.346L107.471 47.902H106.197L104.881 44.346C104.667 43.7673 104.485 43.2493 104.335 42.792C104.186 42.3347 104.088 42.0173 104.041 41.84L103.971 41.588C103.971 42.2507 103.929 43.17 103.845 44.346L103.551 48H101.395ZM117.545 45.088H116.887C116.542 45.088 116.276 45.1627 116.089 45.312C115.903 45.4613 115.809 45.6527 115.809 45.886C115.809 46.362 116.085 46.6 116.635 46.6C116.925 46.6 117.149 46.5113 117.307 46.334C117.466 46.1567 117.545 45.914 117.545 45.606V45.088ZM114.227 43.086V41.252C114.787 40.9347 115.595 40.776 116.649 40.776C117.657 40.776 118.409 40.9953 118.903 41.434C119.398 41.8633 119.645 42.5353 119.645 43.45V48H117.643V47.132C117.345 47.7387 116.757 48.042 115.879 48.042C115.189 48.042 114.647 47.846 114.255 47.454C113.873 47.062 113.681 46.572 113.681 45.984C113.681 45.3027 113.929 44.7753 114.423 44.402C114.927 44.0193 115.669 43.828 116.649 43.828H117.545V43.338C117.545 42.7407 117.149 42.442 116.355 42.442C115.59 42.442 114.881 42.6567 114.227 43.086ZM125.73 41.112V42.862C125.235 42.5727 124.657 42.428 123.994 42.428C123.751 42.428 123.565 42.4793 123.434 42.582C123.303 42.6753 123.238 42.7967 123.238 42.946C123.238 43.03 123.261 43.1093 123.308 43.184C123.355 43.2587 123.429 43.3287 123.532 43.394C123.644 43.4593 123.747 43.52 123.84 43.576C123.943 43.6227 124.078 43.6833 124.246 43.758C124.423 43.8327 124.563 43.898 124.666 43.954C125.095 44.178 125.441 44.4393 125.702 44.738C125.963 45.0273 126.094 45.4007 126.094 45.858C126.094 46.558 125.842 47.0993 125.338 47.482C124.834 47.8647 124.167 48.056 123.336 48.056C122.477 48.056 121.759 47.9113 121.18 47.622V45.802C121.824 46.25 122.505 46.474 123.224 46.474C123.737 46.474 123.994 46.3107 123.994 45.984C123.994 45.9 123.971 45.8207 123.924 45.746C123.877 45.6713 123.798 45.6013 123.686 45.536C123.574 45.4707 123.471 45.4193 123.378 45.382C123.285 45.3353 123.149 45.2747 122.972 45.2C122.795 45.1253 122.659 45.0647 122.566 45.018C121.623 44.57 121.152 43.898 121.152 43.002C121.152 42.3113 121.413 41.7747 121.936 41.392C122.468 41.0093 123.126 40.818 123.91 40.818C124.638 40.818 125.245 40.916 125.73 41.112ZM130.862 45.088H130.204C129.858 45.088 129.592 45.1627 129.406 45.312C129.219 45.4613 129.126 45.6527 129.126 45.886C129.126 46.362 129.401 46.6 129.952 46.6C130.241 46.6 130.465 46.5113 130.624 46.334C130.782 46.1567 130.862 45.914 130.862 45.606V45.088ZM127.544 43.086V41.252C128.104 40.9347 128.911 40.776 129.966 40.776C130.974 40.776 131.725 40.9953 132.22 41.434C132.714 41.8633 132.962 42.5353 132.962 43.45V48H130.96V47.132C130.661 47.7387 130.073 48.042 129.196 48.042C128.505 48.042 127.964 47.846 127.572 47.454C127.189 47.062 126.998 46.572 126.998 45.984C126.998 45.3027 127.245 44.7753 127.74 44.402C128.244 44.0193 128.986 43.828 129.966 43.828H130.862V43.338C130.862 42.7407 130.465 42.442 129.672 42.442C128.906 42.442 128.197 42.6567 127.544 43.086Z" fill="white"/>
</g>
<path d="M119.192 93.984V96C118.436 95.5613 117.652 95.342 116.84 95.342C116.476 95.342 116.196 95.4167 116 95.566C115.813 95.7153 115.72 95.9067 115.72 96.14C115.72 96.3733 115.837 96.5833 116.07 96.77C116.303 96.9473 116.653 97.1387 117.12 97.344C117.409 97.4747 117.647 97.5913 117.834 97.694C118.03 97.7873 118.249 97.9227 118.492 98.1C118.744 98.268 118.94 98.45 119.08 98.646C119.229 98.8327 119.355 99.066 119.458 99.346C119.561 99.626 119.612 99.9293 119.612 100.256C119.612 101.105 119.299 101.796 118.674 102.328C118.049 102.851 117.218 103.112 116.182 103.112C115.071 103.112 114.166 102.916 113.466 102.524V100.354C114.315 100.97 115.221 101.278 116.182 101.278C116.509 101.278 116.779 101.194 116.994 101.026C117.209 100.849 117.316 100.62 117.316 100.34C117.316 100.247 117.302 100.158 117.274 100.074C117.246 99.99 117.195 99.9107 117.12 99.836C117.045 99.7613 116.971 99.7007 116.896 99.654C116.831 99.598 116.728 99.5373 116.588 99.472C116.457 99.3973 116.345 99.3367 116.252 99.29C116.159 99.2433 116.019 99.178 115.832 99.094C115.655 99.01 115.51 98.9447 115.398 98.898C114.791 98.618 114.301 98.2727 113.928 97.862C113.564 97.4513 113.382 96.9053 113.382 96.224C113.382 95.412 113.681 94.7587 114.278 94.264C114.875 93.76 115.701 93.508 116.756 93.508C117.699 93.508 118.511 93.6667 119.192 93.984ZM124.381 100.088H123.723C123.378 100.088 123.112 100.163 122.925 100.312C122.739 100.461 122.645 100.653 122.645 100.886C122.645 101.362 122.921 101.6 123.471 101.6C123.761 101.6 123.985 101.511 124.143 101.334C124.302 101.157 124.381 100.914 124.381 100.606V100.088ZM121.063 98.086V96.252C121.623 95.9347 122.431 95.776 123.485 95.776C124.493 95.776 125.245 95.9953 125.739 96.434C126.234 96.8633 126.481 97.5353 126.481 98.45V103H124.479V102.132C124.181 102.739 123.593 103.042 122.715 103.042C122.025 103.042 121.483 102.846 121.091 102.454C120.709 102.062 120.517 101.572 120.517 100.984C120.517 100.303 120.765 99.7753 121.259 99.402C121.763 99.0193 122.505 98.828 123.485 98.828H124.381V98.338C124.381 97.7407 123.985 97.442 123.191 97.442C122.426 97.442 121.717 97.6567 121.063 98.086ZM131.6 100.088H130.942C130.597 100.088 130.331 100.163 130.144 100.312C129.957 100.461 129.864 100.653 129.864 100.886C129.864 101.362 130.139 101.6 130.69 101.6C130.979 101.6 131.203 101.511 131.362 101.334C131.521 101.157 131.6 100.914 131.6 100.606V100.088ZM128.282 98.086V96.252C128.842 95.9347 129.649 95.776 130.704 95.776C131.712 95.776 132.463 95.9953 132.958 96.434C133.453 96.8633 133.7 97.5353 133.7 98.45V103H131.698V102.132C131.399 102.739 130.811 103.042 129.934 103.042C129.243 103.042 128.702 102.846 128.31 102.454C127.927 102.062 127.736 101.572 127.736 100.984C127.736 100.303 127.983 99.7753 128.478 99.402C128.982 99.0193 129.724 98.828 130.704 98.828H131.6V98.338C131.6 97.7407 131.203 97.442 130.41 97.442C129.645 97.442 128.935 97.6567 128.282 98.086ZM137.671 97.4V100.662C137.671 100.914 137.741 101.105 137.881 101.236C138.03 101.367 138.222 101.432 138.455 101.432C138.828 101.432 139.16 101.339 139.449 101.152V102.846C139.104 102.995 138.637 103.07 138.049 103.07C136.434 103.07 135.627 102.263 135.627 100.648V97.4H134.605V95.902H135.627V94.222H137.671V95.902H139.323V97.4H137.671ZM142.749 95.902V97.106C142.927 96.714 143.197 96.406 143.561 96.182C143.935 95.9487 144.378 95.832 144.891 95.832C145.619 95.832 146.189 96.0513 146.599 96.49C147.01 96.9193 147.215 97.554 147.215 98.394V103H145.171V98.772C145.171 98.352 145.073 98.0347 144.877 97.82C144.681 97.596 144.406 97.484 144.051 97.484C143.678 97.484 143.365 97.6333 143.113 97.932C142.871 98.2213 142.749 98.66 142.749 99.248V103H140.705V95.902H142.749ZM150.8 102.888L148.056 95.902H150.282L151.052 98.114C151.248 98.6833 151.407 99.1733 151.528 99.584C151.659 99.9947 151.738 100.265 151.766 100.396L151.808 100.592C151.911 100.219 152.163 99.3927 152.564 98.114L153.264 95.902H155.364L152.802 102.79C152.065 104.778 150.94 105.772 149.428 105.772C149.139 105.772 148.878 105.749 148.644 105.702V104.078C148.794 104.115 148.952 104.134 149.12 104.134C149.895 104.134 150.455 103.719 150.8 102.888ZM159.792 100.088H159.133C158.788 100.088 158.522 100.163 158.336 100.312C158.149 100.461 158.056 100.653 158.056 100.886C158.056 101.362 158.331 101.6 158.882 101.6C159.171 101.6 159.395 101.511 159.553 101.334C159.712 101.157 159.792 100.914 159.792 100.606V100.088ZM156.474 98.086V96.252C157.034 95.9347 157.841 95.776 158.896 95.776C159.904 95.776 160.655 95.9953 161.15 96.434C161.644 96.8633 161.892 97.5353 161.892 98.45V103H159.89V102.132C159.591 102.739 159.003 103.042 158.126 103.042C157.435 103.042 156.894 102.846 156.502 102.454C156.119 102.062 155.928 101.572 155.928 100.984C155.928 100.303 156.175 99.7753 156.67 99.402C157.174 99.0193 157.916 98.828 158.896 98.828H159.792V98.338C159.792 97.7407 159.395 97.442 158.602 97.442C157.836 97.442 157.127 97.6567 156.474 98.086ZM166.856 103L167.668 93.564H170.034L171.35 96.98C171.574 97.5493 171.766 98.072 171.924 98.548C172.083 99.024 172.186 99.36 172.232 99.556L172.302 99.836C172.452 99.22 172.778 98.268 173.282 96.98L174.612 93.564H176.978L177.958 103H175.802L175.452 99.346L175.27 96.588C175.028 97.288 174.692 98.2073 174.262 99.346L172.932 102.902H171.658L170.342 99.346C170.128 98.7673 169.946 98.2493 169.796 97.792C169.647 97.3347 169.549 97.0173 169.502 96.84L169.432 96.588C169.432 97.2507 169.39 98.17 169.306 99.346L169.012 103H166.856ZM183.594 98.8V98.632C183.529 97.8013 183.165 97.386 182.502 97.386C182.176 97.386 181.886 97.5073 181.634 97.75C181.382 97.9833 181.214 98.3333 181.13 98.8H183.594ZM185.064 100.886V102.594C184.579 102.911 183.837 103.07 182.838 103.07C181.672 103.07 180.762 102.734 180.108 102.062C179.464 101.381 179.142 100.508 179.142 99.444C179.142 98.3147 179.455 97.4327 180.08 96.798C180.715 96.154 181.494 95.832 182.418 95.832C183.37 95.832 184.122 96.112 184.672 96.672C185.223 97.2227 185.498 98.0487 185.498 99.15C185.498 99.3647 185.461 99.7333 185.386 100.256H181.214C181.354 100.648 181.597 100.951 181.942 101.166C182.288 101.381 182.703 101.488 183.188 101.488C183.907 101.488 184.532 101.287 185.064 100.886ZM189.001 95.902V97.106C189.179 96.714 189.449 96.406 189.813 96.182C190.187 95.9487 190.63 95.832 191.143 95.832C191.871 95.832 192.441 96.0513 192.851 96.49C193.262 96.9193 193.467 97.554 193.467 98.394V103H191.423V98.772C191.423 98.352 191.325 98.0347 191.129 97.82C190.933 97.596 190.658 97.484 190.303 97.484C189.93 97.484 189.617 97.6333 189.365 97.932C189.123 98.2213 189.001 98.66 189.001 99.248V103H186.957V95.902H189.001ZM195.148 103V95.902H197.192V103H195.148ZM195.33 94.684C195.097 94.4507 194.98 94.1707 194.98 93.844C194.98 93.5173 195.097 93.2373 195.33 93.004C195.564 92.7707 195.844 92.654 196.17 92.654C196.497 92.654 196.777 92.7707 197.01 93.004C197.244 93.2373 197.36 93.5173 197.36 93.844C197.36 94.1707 197.244 94.4507 197.01 94.684C196.777 94.9173 196.497 95.034 196.17 95.034C195.844 95.034 195.564 94.9173 195.33 94.684ZM205.625 103H203.259L200.991 99.514V103H198.947V93.34H200.991V99.08L203.231 95.902H205.583L203.119 99.304L205.625 103ZM210.131 100.088H209.473C209.128 100.088 208.862 100.163 208.675 100.312C208.489 100.461 208.395 100.653 208.395 100.886C208.395 101.362 208.671 101.6 209.221 101.6C209.511 101.6 209.735 101.511 209.893 101.334C210.052 101.157 210.131 100.914 210.131 100.606V100.088ZM206.813 98.086V96.252C207.373 95.9347 208.181 95.776 209.235 95.776C210.243 95.776 210.995 95.9953 211.489 96.434C211.984 96.8633 212.231 97.5353 212.231 98.45V103H210.229V102.132C209.931 102.739 209.343 103.042 208.465 103.042C207.775 103.042 207.233 102.846 206.841 102.454C206.459 102.062 206.267 101.572 206.267 100.984C206.267 100.303 206.515 99.7753 207.009 99.402C207.513 99.0193 208.255 98.828 209.235 98.828H210.131V98.338C210.131 97.7407 209.735 97.442 208.941 97.442C208.176 97.442 207.467 97.6567 206.813 98.086ZM215.88 93.102V97.106C216.244 96.2567 216.953 95.832 218.008 95.832C218.699 95.832 219.259 96.0513 219.688 96.49C220.127 96.9287 220.346 97.5913 220.346 98.478V103H218.302V98.8C218.302 98.3893 218.199 98.0673 217.994 97.834C217.789 97.6007 217.523 97.484 217.196 97.484C217.056 97.484 216.921 97.5073 216.79 97.554C216.669 97.5913 216.533 97.666 216.384 97.778C216.235 97.8807 216.113 98.0627 216.02 98.324C215.927 98.576 215.88 98.884 215.88 99.248V103H213.836V93.102H215.88ZM222.167 99.696V93.564H224.113V99.696H222.167ZM222.209 102.748C221.967 102.496 221.845 102.193 221.845 101.838C221.845 101.483 221.967 101.185 222.209 100.942C222.461 100.69 222.765 100.564 223.119 100.564C223.474 100.564 223.773 100.69 224.015 100.942C224.267 101.185 224.393 101.483 224.393 101.838C224.393 102.193 224.267 102.496 224.015 102.748C223.773 102.991 223.474 103.112 223.119 103.112C222.765 103.112 222.461 102.991 222.209 102.748Z" fill="#2B2B2B"/>
<path d="M44.26 117.76H45.14C45.6267 117.76 45.9967 117.64 46.25 117.4C46.51 117.16 46.64 116.843 46.64 116.45C46.64 116.037 46.51 115.71 46.25 115.47C45.99 115.23 45.6133 115.11 45.12 115.11H44.26V117.76ZM43.23 114.26H45.16C45.9333 114.26 46.5467 114.467 47 114.88C47.4533 115.287 47.68 115.81 47.68 116.45C47.68 117.09 47.45 117.61 46.99 118.01C46.5367 118.41 45.9467 118.61 45.22 118.61H44.26V121H43.23V114.26ZM51.838 115.93H52.818V121H51.838V120.13C51.5714 120.75 51.0447 121.06 50.258 121.06C49.758 121.06 49.3614 120.913 49.068 120.62C48.7747 120.32 48.628 119.91 48.628 119.39V115.93H49.618V119.15C49.618 119.497 49.7014 119.763 49.868 119.95C50.0414 120.13 50.278 120.22 50.578 120.22C50.958 120.22 51.2614 120.087 51.488 119.82C51.7214 119.553 51.838 119.177 51.838 118.69V115.93ZM55.4659 116.69V119.48C55.4659 119.967 55.6992 120.21 56.1659 120.21C56.4392 120.21 56.6692 120.137 56.8559 119.99V120.87C56.6359 120.99 56.3659 121.05 56.0459 121.05C54.9992 121.05 54.4759 120.52 54.4759 119.46V116.69H53.6859V115.93H54.4759V114.69H55.4659V115.93H56.7959V116.69H55.4659ZM60.6061 118.74H59.8461C59.4728 118.74 59.1894 118.813 58.9961 118.96C58.8094 119.107 58.7161 119.293 58.7161 119.52C58.7161 119.753 58.7894 119.937 58.9361 120.07C59.0828 120.203 59.2961 120.27 59.5761 120.27C59.8961 120.27 60.1461 120.183 60.3261 120.01C60.5128 119.83 60.6061 119.597 60.6061 119.31V118.74ZM58.0561 117.14V116.19C58.4494 115.963 58.9694 115.85 59.6161 115.85C60.9428 115.85 61.6061 116.493 61.6061 117.78V121H60.6361V120.4C60.3761 120.827 59.9194 121.04 59.2661 121.04C58.7861 121.04 58.3994 120.903 58.1061 120.63C57.8194 120.35 57.6761 119.997 57.6761 119.57C57.6761 119.083 57.8594 118.707 58.2261 118.44C58.5928 118.167 59.1061 118.03 59.7661 118.03H60.6061V117.74C60.6061 117.393 60.5228 117.133 60.3561 116.96C60.1894 116.78 59.9128 116.69 59.5261 116.69C58.9861 116.69 58.4961 116.84 58.0561 117.14ZM63.9063 115.93V116.82C64.153 116.193 64.5963 115.88 65.2363 115.88C65.3297 115.88 65.433 115.89 65.5463 115.91V116.87C65.4063 116.81 65.2497 116.78 65.0763 116.78C64.7363 116.78 64.4563 116.93 64.2363 117.23C64.0163 117.53 63.9063 117.887 63.9063 118.3V121H62.9263V115.93H63.9063ZM71.9259 115.93H72.9059V121H71.9259V120.13C71.6593 120.75 71.1326 121.06 70.3459 121.06C69.8459 121.06 69.4493 120.913 69.1559 120.62C68.8626 120.32 68.7159 119.91 68.7159 119.39V115.93H69.7059V119.15C69.7059 119.497 69.7893 119.763 69.9559 119.95C70.1293 120.13 70.3659 120.22 70.6659 120.22C71.0459 120.22 71.3493 120.087 71.5759 119.82C71.8093 119.553 71.9259 119.177 71.9259 118.69V115.93ZM75.2638 115.93V116.8C75.5638 116.173 76.0904 115.86 76.8438 115.86C77.3438 115.86 77.7404 116.013 78.0338 116.32C78.3271 116.627 78.4738 117.043 78.4738 117.57V121H77.4938V117.8C77.4938 117.447 77.4038 117.177 77.2238 116.99C77.0504 116.803 76.8171 116.71 76.5238 116.71C76.1771 116.71 75.8804 116.847 75.6338 117.12C75.3871 117.387 75.2638 117.763 75.2638 118.25V121H74.2838V115.93H75.2638ZM81.0616 116.69V119.48C81.0616 119.967 81.2949 120.21 81.7616 120.21C82.0349 120.21 82.2649 120.137 82.4516 119.99V120.87C82.2316 120.99 81.9616 121.05 81.6416 121.05C80.5949 121.05 80.0716 120.52 80.0716 119.46V116.69H79.2816V115.93H80.0716V114.69H81.0616V115.93H82.3916V116.69H81.0616ZM86.6818 115.93H87.6618V121H86.6818V120.13C86.4151 120.75 85.8885 121.06 85.1018 121.06C84.6018 121.06 84.2051 120.913 83.9118 120.62C83.6185 120.32 83.4718 119.91 83.4718 119.39V115.93H84.4618V119.15C84.4618 119.497 84.5451 119.763 84.7118 119.95C84.8851 120.13 85.1218 120.22 85.4218 120.22C85.8018 120.22 86.1051 120.087 86.3318 119.82C86.5651 119.553 86.6818 119.177 86.6818 118.69V115.93ZM89.0396 121V114H90.0196V121H89.0396ZM91.1896 118.35L93.1796 121H92.0096L90.0596 118.35L91.9696 115.93H93.1196L91.1896 118.35ZM97.4805 115.93V116.74C97.7672 116.153 98.2439 115.86 98.9105 115.86C99.6705 115.86 100.157 116.187 100.371 116.84C100.511 116.527 100.714 116.287 100.981 116.12C101.247 115.947 101.547 115.86 101.881 115.86C102.401 115.86 102.794 116.013 103.061 116.32C103.334 116.627 103.471 117.05 103.471 117.59V121H102.491V117.8C102.491 117.073 102.197 116.71 101.611 116.71C101.317 116.71 101.054 116.84 100.821 117.1C100.594 117.36 100.481 117.743 100.481 118.25V121H99.5005V117.8C99.5005 117.073 99.2039 116.71 98.6105 116.71C98.3239 116.71 98.0639 116.84 97.8305 117.1C97.5972 117.36 97.4805 117.743 97.4805 118.25V121H96.5005V115.93H97.4805ZM107.951 118.1V117.92C107.938 117.54 107.835 117.24 107.641 117.02C107.448 116.793 107.171 116.68 106.811 116.68C106.478 116.68 106.191 116.803 105.951 117.05C105.711 117.29 105.561 117.64 105.501 118.1H107.951ZM108.581 119.85V120.73C108.208 120.943 107.715 121.05 107.101 121.05C106.315 121.05 105.688 120.813 105.221 120.34C104.755 119.867 104.521 119.247 104.521 118.48C104.521 117.667 104.735 117.03 105.161 116.57C105.588 116.103 106.131 115.87 106.791 115.87C107.438 115.87 107.951 116.073 108.331 116.48C108.711 116.88 108.901 117.46 108.901 118.22C108.901 118.427 108.881 118.643 108.841 118.87H105.511C105.578 119.31 105.765 119.647 106.071 119.88C106.378 120.113 106.765 120.23 107.231 120.23C107.771 120.23 108.221 120.103 108.581 119.85ZM111.035 115.93V116.8C111.335 116.173 111.862 115.86 112.615 115.86C113.115 115.86 113.512 116.013 113.805 116.32C114.099 116.627 114.245 117.043 114.245 117.57V121H113.265V117.8C113.265 117.447 113.175 117.177 112.995 116.99C112.822 116.803 112.589 116.71 112.295 116.71C111.949 116.71 111.652 116.847 111.405 117.12C111.159 117.387 111.035 117.763 111.035 118.25V121H110.055V115.93H111.035ZM117.563 120.02C117.91 120.02 118.21 119.887 118.463 119.62C118.723 119.347 118.853 118.967 118.853 118.48C118.853 117.88 118.73 117.437 118.483 117.15C118.243 116.863 117.95 116.72 117.603 116.72C117.21 116.72 116.9 116.877 116.673 117.19C116.446 117.497 116.333 117.903 116.333 118.41C116.333 118.937 116.453 119.337 116.693 119.61C116.94 119.883 117.23 120.02 117.563 120.02ZM118.853 115.93H119.833V120.57C119.833 121.35 119.61 121.937 119.163 122.33C118.723 122.73 118.156 122.93 117.463 122.93C116.81 122.93 116.26 122.82 115.813 122.6V121.61C116.24 121.89 116.756 122.03 117.363 122.03C118.356 122.03 118.853 121.54 118.853 120.56V120.04C118.526 120.587 118.036 120.86 117.383 120.86C116.81 120.86 116.32 120.65 115.913 120.23C115.506 119.803 115.303 119.203 115.303 118.43C115.303 117.683 115.493 117.07 115.873 116.59C116.253 116.103 116.756 115.86 117.383 115.86C118.056 115.86 118.546 116.147 118.853 116.72V115.93ZM124.299 118.1V117.92C124.286 117.54 124.182 117.24 123.989 117.02C123.796 116.793 123.519 116.68 123.159 116.68C122.826 116.68 122.539 116.803 122.299 117.05C122.059 117.29 121.909 117.64 121.849 118.1H124.299ZM124.929 119.85V120.73C124.556 120.943 124.062 121.05 123.449 121.05C122.662 121.05 122.036 120.813 121.569 120.34C121.102 119.867 120.869 119.247 120.869 118.48C120.869 117.667 121.082 117.03 121.509 116.57C121.936 116.103 122.479 115.87 123.139 115.87C123.786 115.87 124.299 116.073 124.679 116.48C125.059 116.88 125.249 117.46 125.249 118.22C125.249 118.427 125.229 118.643 125.189 118.87H121.859C121.926 119.31 122.112 119.647 122.419 119.88C122.726 120.113 123.112 120.23 123.579 120.23C124.119 120.23 124.569 120.103 124.929 119.85ZM127.673 116.69V119.48C127.673 119.967 127.906 120.21 128.373 120.21C128.646 120.21 128.876 120.137 129.063 119.99V120.87C128.843 120.99 128.573 121.05 128.253 121.05C127.206 121.05 126.683 120.52 126.683 119.46V116.69H125.893V115.93H126.683V114.69H127.673V115.93H129.003V116.69H127.673ZM132.813 118.74H132.053C131.68 118.74 131.396 118.813 131.203 118.96C131.016 119.107 130.923 119.293 130.923 119.52C130.923 119.753 130.996 119.937 131.143 120.07C131.29 120.203 131.503 120.27 131.783 120.27C132.103 120.27 132.353 120.183 132.533 120.01C132.72 119.83 132.813 119.597 132.813 119.31V118.74ZM130.263 117.14V116.19C130.656 115.963 131.176 115.85 131.823 115.85C133.15 115.85 133.813 116.493 133.813 117.78V121H132.843V120.4C132.583 120.827 132.126 121.04 131.473 121.04C130.993 121.04 130.606 120.903 130.313 120.63C130.026 120.35 129.883 119.997 129.883 119.57C129.883 119.083 130.066 118.707 130.433 118.44C130.8 118.167 131.313 118.03 131.973 118.03H132.813V117.74C132.813 117.393 132.73 117.133 132.563 116.96C132.396 116.78 132.12 116.69 131.733 116.69C131.193 116.69 130.703 116.84 130.263 117.14ZM136.113 113.93V116.8C136.4 116.173 136.923 115.86 137.683 115.86C138.177 115.86 138.573 116.013 138.873 116.32C139.173 116.627 139.323 117.053 139.323 117.6V121H138.343V117.8C138.343 117.453 138.253 117.187 138.073 117C137.9 116.807 137.67 116.71 137.383 116.71C137.05 116.71 136.753 116.837 136.493 117.09C136.24 117.343 136.113 117.73 136.113 118.25V121H135.133V113.93H136.113ZM143.791 115.93H144.771V121H143.791V120.13C143.525 120.75 142.998 121.06 142.211 121.06C141.711 121.06 141.315 120.913 141.021 120.62C140.728 120.32 140.581 119.91 140.581 119.39V115.93H141.571V119.15C141.571 119.497 141.655 119.763 141.821 119.95C141.995 120.13 142.231 120.22 142.531 120.22C142.911 120.22 143.215 120.087 143.441 119.82C143.675 119.553 143.791 119.177 143.791 118.69V115.93ZM146.189 121V115.93H147.179V121H146.189ZM146.239 114.82C146.126 114.7 146.069 114.553 146.069 114.38C146.069 114.207 146.126 114.06 146.239 113.94C146.359 113.82 146.506 113.76 146.679 113.76C146.852 113.76 146.999 113.82 147.119 113.94C147.239 114.06 147.299 114.207 147.299 114.38C147.299 114.547 147.239 114.69 147.119 114.81C146.999 114.93 146.852 114.99 146.679 114.99C146.506 114.99 146.359 114.933 146.239 114.82ZM45.58 136.21C45.9533 136.21 46.2667 136.053 46.52 135.74C46.7733 135.42 46.9 135.01 46.9 134.51C46.9 133.937 46.7733 133.497 46.52 133.19C46.2667 132.877 45.9433 132.72 45.55 132.72C45.2033 132.72 44.89 132.86 44.61 133.14C44.3367 133.42 44.2 133.85 44.2 134.43C44.2 135.03 44.3333 135.477 44.6 135.77C44.8667 136.063 45.1933 136.21 45.58 136.21ZM44.2 129.93V132.7C44.56 132.14 45.07 131.86 45.73 131.86C46.37 131.86 46.8933 132.1 47.3 132.58C47.7067 133.06 47.91 133.697 47.91 134.49C47.91 135.203 47.7167 135.813 47.33 136.32C46.9433 136.82 46.4133 137.07 45.74 137.07C45.0667 137.07 44.5533 136.79 44.2 136.23V137H43.21V129.93H44.2ZM49.0503 137V131.93H50.0403V137H49.0503ZM49.1003 130.82C48.987 130.7 48.9303 130.553 48.9303 130.38C48.9303 130.207 48.987 130.06 49.1003 129.94C49.2203 129.82 49.367 129.76 49.5403 129.76C49.7136 129.76 49.8603 129.82 49.9803 129.94C50.1003 130.06 50.1603 130.207 50.1603 130.38C50.1603 130.547 50.1003 130.69 49.9803 130.81C49.8603 130.93 49.7136 130.99 49.5403 130.99C49.367 130.99 49.2203 130.933 49.1003 130.82ZM54.1315 134.74H53.3715C52.9982 134.74 52.7148 134.813 52.5215 134.96C52.3348 135.107 52.2415 135.293 52.2415 135.52C52.2415 135.753 52.3148 135.937 52.4615 136.07C52.6082 136.203 52.8215 136.27 53.1015 136.27C53.4215 136.27 53.6715 136.183 53.8515 136.01C54.0382 135.83 54.1315 135.597 54.1315 135.31V134.74ZM51.5815 133.14V132.19C51.9748 131.963 52.4948 131.85 53.1415 131.85C54.4682 131.85 55.1315 132.493 55.1315 133.78V137H54.1615V136.4C53.9015 136.827 53.4448 137.04 52.7915 137.04C52.3115 137.04 51.9248 136.903 51.6315 136.63C51.3448 136.35 51.2015 135.997 51.2015 135.57C51.2015 135.083 51.3848 134.707 51.7515 134.44C52.1182 134.167 52.6315 134.03 53.2915 134.03H54.1315V133.74C54.1315 133.393 54.0482 133.133 53.8815 132.96C53.7148 132.78 53.4382 132.69 53.0515 132.69C52.5115 132.69 52.0215 132.84 51.5815 133.14ZM57.8517 136.89L55.8317 131.93H56.9217L57.5517 133.58L58.3417 135.72C58.4017 135.52 58.6417 134.807 59.0617 133.58L59.6317 131.93H60.6717L58.8417 136.86C58.3551 138.16 57.6117 138.81 56.6117 138.81C56.4317 138.81 56.2784 138.793 56.1517 138.76V137.92C56.2584 137.947 56.3717 137.96 56.4917 137.96C57.1384 137.96 57.5917 137.603 57.8517 136.89ZM64.1608 134.74H63.4008C63.0274 134.74 62.7441 134.813 62.5508 134.96C62.3641 135.107 62.2708 135.293 62.2708 135.52C62.2708 135.753 62.3441 135.937 62.4908 136.07C62.6374 136.203 62.8508 136.27 63.1308 136.27C63.4508 136.27 63.7008 136.183 63.8808 136.01C64.0674 135.83 64.1608 135.597 64.1608 135.31V134.74ZM61.6108 133.14V132.19C62.0041 131.963 62.5241 131.85 63.1708 131.85C64.4974 131.85 65.1608 132.493 65.1608 133.78V137H64.1908V136.4C63.9308 136.827 63.4741 137.04 62.8208 137.04C62.3408 137.04 61.9541 136.903 61.6608 136.63C61.3741 136.35 61.2308 135.997 61.2308 135.57C61.2308 135.083 61.4141 134.707 61.7808 134.44C62.1474 134.167 62.6608 134.03 63.3208 134.03H64.1608V133.74C64.1608 133.393 64.0774 133.133 63.9108 132.96C63.7441 132.78 63.4674 132.69 63.0808 132.69C62.5408 132.69 62.0508 132.84 61.6108 133.14ZM70.012 133.76H70.892C71.3786 133.76 71.7486 133.64 72.002 133.4C72.262 133.16 72.392 132.843 72.392 132.45C72.392 132.037 72.262 131.71 72.002 131.47C71.742 131.23 71.3653 131.11 70.872 131.11H70.012V133.76ZM68.982 130.26H70.912C71.6853 130.26 72.2986 130.467 72.752 130.88C73.2053 131.287 73.432 131.81 73.432 132.45C73.432 133.09 73.202 133.61 72.742 134.01C72.2886 134.41 71.6986 134.61 70.972 134.61H70.012V137H68.982V130.26ZM77.59 134.1V133.92C77.5767 133.54 77.4733 133.24 77.28 133.02C77.0867 132.793 76.81 132.68 76.45 132.68C76.1167 132.68 75.83 132.803 75.59 133.05C75.35 133.29 75.2 133.64 75.14 134.1H77.59ZM78.22 135.85V136.73C77.8467 136.943 77.3533 137.05 76.74 137.05C75.9533 137.05 75.3267 136.813 74.86 136.34C74.3933 135.867 74.16 135.247 74.16 134.48C74.16 133.667 74.3733 133.03 74.8 132.57C75.2267 132.103 75.77 131.87 76.43 131.87C77.0767 131.87 77.59 132.073 77.97 132.48C78.35 132.88 78.54 133.46 78.54 134.22C78.54 134.427 78.52 134.643 78.48 134.87H75.15C75.2167 135.31 75.4033 135.647 75.71 135.88C76.0167 136.113 76.4033 136.23 76.87 136.23C77.41 136.23 77.86 136.103 78.22 135.85ZM80.6739 131.93V132.82C80.9206 132.193 81.3639 131.88 82.0039 131.88C82.0972 131.88 82.2006 131.89 82.3139 131.91V132.87C82.1739 132.81 82.0172 132.78 81.8439 132.78C81.5039 132.78 81.2239 132.93 81.0039 133.23C80.7839 133.53 80.6739 133.887 80.6739 134.3V137H79.6939V131.93H80.6739ZM84.0626 131.93V132.8C84.3626 132.173 84.8892 131.86 85.6426 131.86C86.1426 131.86 86.5392 132.013 86.8326 132.32C87.1259 132.627 87.2726 133.043 87.2726 133.57V137H86.2926V133.8C86.2926 133.447 86.2026 133.177 86.0226 132.99C85.8492 132.803 85.6159 132.71 85.3226 132.71C84.9759 132.71 84.6792 132.847 84.4326 133.12C84.1859 133.387 84.0626 133.763 84.0626 134.25V137H83.0826V131.93H84.0626ZM88.6304 137V131.93H89.6204V137H88.6304ZM88.6804 130.82C88.5671 130.7 88.5104 130.553 88.5104 130.38C88.5104 130.207 88.5671 130.06 88.6804 129.94C88.8004 129.82 88.9471 129.76 89.1204 129.76C89.2937 129.76 89.4404 129.82 89.5604 129.94C89.6804 130.06 89.7404 130.207 89.7404 130.38C89.7404 130.547 89.6804 130.69 89.5604 130.81C89.4404 130.93 89.2937 130.99 89.1204 130.99C88.9471 130.99 88.8004 130.933 88.6804 130.82ZM91.0416 137V130H92.0216V137H91.0416ZM93.1916 134.35L95.1816 137H94.0116L92.0616 134.35L93.9716 131.93H95.1216L93.1916 134.35ZM98.7116 134.74H97.9516C97.5782 134.74 97.2949 134.813 97.1016 134.96C96.9149 135.107 96.8216 135.293 96.8216 135.52C96.8216 135.753 96.8949 135.937 97.0416 136.07C97.1882 136.203 97.4016 136.27 97.6816 136.27C98.0016 136.27 98.2516 136.183 98.4316 136.01C98.6182 135.83 98.7116 135.597 98.7116 135.31V134.74ZM96.1616 133.14V132.19C96.5549 131.963 97.0749 131.85 97.7216 131.85C99.0482 131.85 99.7116 132.493 99.7116 133.78V137H98.7416V136.4C98.4816 136.827 98.0249 137.04 97.3716 137.04C96.8916 137.04 96.5049 136.903 96.2116 136.63C95.9249 136.35 95.7816 135.997 95.7816 135.57C95.7816 135.083 95.9649 134.707 96.3316 134.44C96.6982 134.167 97.2116 134.03 97.8716 134.03H98.7116V133.74C98.7116 133.393 98.6282 133.133 98.4616 132.96C98.2949 132.78 98.0182 132.69 97.6316 132.69C97.0916 132.69 96.6016 132.84 96.1616 133.14ZM102.012 129.93V132.8C102.298 132.173 102.822 131.86 103.582 131.86C104.075 131.86 104.472 132.013 104.772 132.32C105.072 132.627 105.222 133.053 105.222 133.6V137H104.242V133.8C104.242 133.453 104.152 133.187 103.972 133C103.798 132.807 103.568 132.71 103.282 132.71C102.948 132.71 102.652 132.837 102.392 133.09C102.138 133.343 102.012 133.73 102.012 134.25V137H101.032V129.93H102.012ZM109.21 134.74H108.45C108.076 134.74 107.793 134.813 107.6 134.96C107.413 135.107 107.32 135.293 107.32 135.52C107.32 135.753 107.393 135.937 107.54 136.07C107.686 136.203 107.9 136.27 108.18 136.27C108.5 136.27 108.75 136.183 108.93 136.01C109.116 135.83 109.21 135.597 109.21 135.31V134.74ZM106.66 133.14V132.19C107.053 131.963 107.573 131.85 108.22 131.85C109.546 131.85 110.21 132.493 110.21 133.78V137H109.24V136.4C108.98 136.827 108.523 137.04 107.87 137.04C107.39 137.04 107.003 136.903 106.71 136.63C106.423 136.35 106.28 135.997 106.28 135.57C106.28 135.083 106.463 134.707 106.83 134.44C107.196 134.167 107.71 134.03 108.37 134.03H109.21V133.74C109.21 133.393 109.126 133.133 108.96 132.96C108.793 132.78 108.516 132.69 108.13 132.69C107.59 132.69 107.1 132.84 106.66 133.14ZM112.51 131.93V132.8C112.81 132.173 113.337 131.86 114.09 131.86C114.59 131.86 114.987 132.013 115.28 132.32C115.573 132.627 115.72 133.043 115.72 133.57V137H114.74V133.8C114.74 133.447 114.65 133.177 114.47 132.99C114.297 132.803 114.063 132.71 113.77 132.71C113.423 132.71 113.127 132.847 112.88 133.12C112.633 133.387 112.51 133.763 112.51 134.25V137H111.53V131.93H112.51ZM121.029 134.49H123.189L123.079 134.15C122.825 133.363 122.619 132.713 122.459 132.2C122.299 131.68 122.202 131.357 122.169 131.23L122.119 131.04C122.045 131.353 121.719 132.39 121.139 134.15L121.029 134.49ZM123.999 137L123.469 135.35H120.749L120.209 137H119.119L121.449 130.26H122.799L125.099 137H123.999ZM127.08 131.93V132.8C127.38 132.173 127.907 131.86 128.66 131.86C129.16 131.86 129.557 132.013 129.85 132.32C130.143 132.627 130.29 133.043 130.29 133.57V137H129.31V133.8C129.31 133.447 129.22 133.177 129.04 132.99C128.867 132.803 128.633 132.71 128.34 132.71C127.993 132.71 127.697 132.847 127.45 133.12C127.203 133.387 127.08 133.763 127.08 134.25V137H126.1V131.93H127.08ZM133.658 136.21C134.045 136.21 134.371 136.063 134.638 135.77C134.905 135.477 135.038 135.03 135.038 134.43C135.038 133.85 134.898 133.42 134.618 133.14C134.345 132.86 134.035 132.72 133.688 132.72C133.295 132.72 132.971 132.877 132.718 133.19C132.465 133.497 132.338 133.937 132.338 134.51C132.338 135.017 132.461 135.427 132.708 135.74C132.961 136.053 133.278 136.21 133.658 136.21ZM135.038 129.93H136.028V137H135.038V136.23C134.685 136.79 134.168 137.07 133.488 137.07C132.821 137.07 132.295 136.82 131.908 136.32C131.521 135.813 131.328 135.203 131.328 134.49C131.328 133.697 131.531 133.06 131.938 132.58C132.345 132.1 132.868 131.86 133.508 131.86C134.168 131.86 134.678 132.14 135.038 132.7V129.93ZM140.079 134.74H139.319C138.945 134.74 138.662 134.813 138.469 134.96C138.282 135.107 138.189 135.293 138.189 135.52C138.189 135.753 138.262 135.937 138.409 136.07C138.555 136.203 138.769 136.27 139.049 136.27C139.369 136.27 139.619 136.183 139.799 136.01C139.985 135.83 140.079 135.597 140.079 135.31V134.74ZM137.529 133.14V132.19C137.922 131.963 138.442 131.85 139.089 131.85C140.415 131.85 141.079 132.493 141.079 133.78V137H140.109V136.4C139.849 136.827 139.392 137.04 138.739 137.04C138.259 137.04 137.872 136.903 137.579 136.63C137.292 136.35 137.149 135.997 137.149 135.57C137.149 135.083 137.332 134.707 137.699 134.44C138.065 134.167 138.579 134.03 139.239 134.03H140.079V133.74C140.079 133.393 139.995 133.133 139.829 132.96C139.662 132.78 139.385 132.69 138.999 132.69C138.459 132.69 137.969 132.84 137.529 133.14ZM44.26 181.76H45.14C45.6267 181.76 45.9967 181.64 46.25 181.4C46.51 181.16 46.64 180.843 46.64 180.45C46.64 180.037 46.51 179.71 46.25 179.47C45.99 179.23 45.6133 179.11 45.12 179.11H44.26V181.76ZM43.23 178.26H45.16C45.9333 178.26 46.5467 178.467 47 178.88C47.4533 179.287 47.68 179.81 47.68 180.45C47.68 181.09 47.45 181.61 46.99 182.01C46.5367 182.41 45.9467 182.61 45.22 182.61H44.26V185H43.23V178.26ZM51.838 182.1V181.92C51.8247 181.54 51.7214 181.24 51.528 181.02C51.3347 180.793 51.058 180.68 50.698 180.68C50.3647 180.68 50.078 180.803 49.838 181.05C49.598 181.29 49.448 181.64 49.388 182.1H51.838ZM52.468 183.85V184.73C52.0947 184.943 51.6014 185.05 50.988 185.05C50.2014 185.05 49.5747 184.813 49.108 184.34C48.6414 183.867 48.408 183.247 48.408 182.48C48.408 181.667 48.6214 181.03 49.048 180.57C49.4747 180.103 50.018 179.87 50.678 179.87C51.3247 179.87 51.838 180.073 52.218 180.48C52.598 180.88 52.788 181.46 52.788 182.22C52.788 182.427 52.768 182.643 52.728 182.87H49.398C49.4647 183.31 49.6514 183.647 49.958 183.88C50.2647 184.113 50.6514 184.23 51.118 184.23C51.658 184.23 52.108 184.103 52.468 183.85ZM54.922 179.93V180.82C55.1686 180.193 55.612 179.88 56.252 179.88C56.3453 179.88 56.4486 179.89 56.562 179.91V180.87C56.422 180.81 56.2653 180.78 56.092 180.78C55.752 180.78 55.472 180.93 55.252 181.23C55.032 181.53 54.922 181.887 54.922 182.3V185H53.942V179.93H54.922ZM58.3106 179.93V180.8C58.6106 180.173 59.1373 179.86 59.8906 179.86C60.3906 179.86 60.7873 180.013 61.0806 180.32C61.374 180.627 61.5206 181.043 61.5206 181.57V185H60.5406V181.8C60.5406 181.447 60.4506 181.177 60.2706 180.99C60.0973 180.803 59.864 180.71 59.5706 180.71C59.224 180.71 58.9273 180.847 58.6806 181.12C58.434 181.387 58.3106 181.763 58.3106 182.25V185H57.3306V179.93H58.3106ZM62.8784 185V179.93H63.8684V185H62.8784ZM62.9284 178.82C62.8151 178.7 62.7584 178.553 62.7584 178.38C62.7584 178.207 62.8151 178.06 62.9284 177.94C63.0484 177.82 63.1951 177.76 63.3684 177.76C63.5418 177.76 63.6884 177.82 63.8084 177.94C63.9284 178.06 63.9884 178.207 63.9884 178.38C63.9884 178.547 63.9284 178.69 63.8084 178.81C63.6884 178.93 63.5418 178.99 63.3684 178.99C63.1951 178.99 63.0484 178.933 62.9284 178.82ZM65.2896 185V178H66.2696V185H65.2896ZM67.4396 182.35L69.4296 185H68.2596L66.3096 182.35L68.2196 179.93H69.3696L67.4396 182.35ZM72.9596 182.74H72.1996C71.8263 182.74 71.5429 182.813 71.3496 182.96C71.1629 183.107 71.0696 183.293 71.0696 183.52C71.0696 183.753 71.1429 183.937 71.2896 184.07C71.4363 184.203 71.6496 184.27 71.9296 184.27C72.2496 184.27 72.4996 184.183 72.6796 184.01C72.8663 183.83 72.9596 183.597 72.9596 183.31V182.74ZM70.4096 181.14V180.19C70.8029 179.963 71.3229 179.85 71.9696 179.85C73.2963 179.85 73.9596 180.493 73.9596 181.78V185H72.9896V184.4C72.7296 184.827 72.2729 185.04 71.6196 185.04C71.1396 185.04 70.7529 184.903 70.4596 184.63C70.1729 184.35 70.0296 183.997 70.0296 183.57C70.0296 183.083 70.2129 182.707 70.5796 182.44C70.9463 182.167 71.4596 182.03 72.1196 182.03H72.9596V181.74C72.9596 181.393 72.8763 181.133 72.7096 180.96C72.5429 180.78 72.2663 180.69 71.8796 180.69C71.3396 180.69 70.8496 180.84 70.4096 181.14ZM76.2598 177.93V180.8C76.5465 180.173 77.0698 179.86 77.8298 179.86C78.3232 179.86 78.7198 180.013 79.0198 180.32C79.3198 180.627 79.4698 181.053 79.4698 181.6V185H78.4898V181.8C78.4898 181.453 78.3998 181.187 78.2198 181C78.0465 180.807 77.8165 180.71 77.5298 180.71C77.1965 180.71 76.8998 180.837 76.6398 181.09C76.3865 181.343 76.2598 181.73 76.2598 182.25V185H75.2798V177.93H76.2598ZM83.4577 182.74H82.6977C82.3243 182.74 82.041 182.813 81.8477 182.96C81.661 183.107 81.5677 183.293 81.5677 183.52C81.5677 183.753 81.641 183.937 81.7877 184.07C81.9343 184.203 82.1477 184.27 82.4277 184.27C82.7477 184.27 82.9977 184.183 83.1777 184.01C83.3643 183.83 83.4577 183.597 83.4577 183.31V182.74ZM80.9077 181.14V180.19C81.301 179.963 81.821 179.85 82.4677 179.85C83.7943 179.85 84.4577 180.493 84.4577 181.78V185H83.4877V184.4C83.2277 184.827 82.771 185.04 82.1177 185.04C81.6377 185.04 81.251 184.903 80.9577 184.63C80.671 184.35 80.5277 183.997 80.5277 183.57C80.5277 183.083 80.711 182.707 81.0777 182.44C81.4443 182.167 81.9577 182.03 82.6177 182.03H83.4577V181.74C83.4577 181.393 83.3743 181.133 83.2077 180.96C83.041 180.78 82.7643 180.69 82.3777 180.69C81.8377 180.69 81.3477 180.84 80.9077 181.14ZM86.7579 179.93V180.8C87.0579 180.173 87.5846 179.86 88.3379 179.86C88.8379 179.86 89.2346 180.013 89.5279 180.32C89.8212 180.627 89.9679 181.043 89.9679 181.57V185H88.9879V181.8C88.9879 181.447 88.8979 181.177 88.7179 180.99C88.5446 180.803 88.3112 180.71 88.0179 180.71C87.6712 180.71 87.3746 180.847 87.1279 181.12C86.8812 181.387 86.7579 181.763 86.7579 182.25V185H85.7779V179.93H86.7579ZM93.7866 185V179.93H94.7766V185H93.7866ZM93.8366 178.82C93.7233 178.7 93.6666 178.553 93.6666 178.38C93.6666 178.207 93.7233 178.06 93.8366 177.94C93.9566 177.82 94.1033 177.76 94.2766 177.76C94.45 177.76 94.5966 177.82 94.7166 177.94C94.8366 178.06 94.8966 178.207 94.8966 178.38C94.8966 178.547 94.8366 178.69 94.7166 178.81C94.5966 178.93 94.45 178.99 94.2766 178.99C94.1033 178.99 93.9566 178.933 93.8366 178.82ZM97.1778 179.93V180.8C97.4778 180.173 98.0045 179.86 98.7578 179.86C99.2578 179.86 99.6545 180.013 99.9478 180.32C100.241 180.627 100.388 181.043 100.388 181.57V185H99.4078V181.8C99.4078 181.447 99.3178 181.177 99.1378 180.99C98.9645 180.803 98.7311 180.71 98.4378 180.71C98.0911 180.71 97.7945 180.847 97.5478 181.12C97.3011 181.387 97.1778 181.763 97.1778 182.25V185H96.1978V179.93H97.1778ZM102.976 180.69V183.48C102.976 183.967 103.209 184.21 103.676 184.21C103.949 184.21 104.179 184.137 104.366 183.99V184.87C104.146 184.99 103.876 185.05 103.556 185.05C102.509 185.05 101.986 184.52 101.986 183.46V180.69H101.196V179.93H101.986V178.69H102.976V179.93H104.306V180.69H102.976ZM105.486 185V179.93H106.476V185H105.486ZM105.536 178.82C105.423 178.7 105.366 178.553 105.366 178.38C105.366 178.207 105.423 178.06 105.536 177.94C105.656 177.82 105.803 177.76 105.976 177.76C106.149 177.76 106.296 177.82 106.416 177.94C106.536 178.06 106.596 178.207 106.596 178.38C106.596 178.547 106.536 178.69 106.416 178.81C106.296 178.93 106.149 178.99 105.976 178.99C105.803 178.99 105.656 178.933 105.536 178.82ZM108.877 179.93V180.74C109.164 180.153 109.64 179.86 110.307 179.86C111.067 179.86 111.554 180.187 111.767 180.84C111.907 180.527 112.11 180.287 112.377 180.12C112.644 179.947 112.944 179.86 113.277 179.86C113.797 179.86 114.19 180.013 114.457 180.32C114.73 180.627 114.867 181.05 114.867 181.59V185H113.887V181.8C113.887 181.073 113.594 180.71 113.007 180.71C112.714 180.71 112.45 180.84 112.217 181.1C111.99 181.36 111.877 181.743 111.877 182.25V185H110.897V181.8C110.897 181.073 110.6 180.71 110.007 180.71C109.72 180.71 109.46 180.84 109.227 181.1C108.994 181.36 108.877 181.743 108.877 182.25V185H107.897V179.93H108.877ZM44.26 213.76H45.14C45.6267 213.76 45.9967 213.64 46.25 213.4C46.51 213.16 46.64 212.843 46.64 212.45C46.64 212.037 46.51 211.71 46.25 211.47C45.99 211.23 45.6133 211.11 45.12 211.11H44.26V213.76ZM43.23 210.26H45.16C45.9333 210.26 46.5467 210.467 47 210.88C47.4533 211.287 47.68 211.81 47.68 212.45C47.68 213.09 47.45 213.61 46.99 214.01C46.5367 214.41 45.9467 214.61 45.22 214.61H44.26V217H43.23V210.26ZM51.838 214.1V213.92C51.8247 213.54 51.7214 213.24 51.528 213.02C51.3347 212.793 51.058 212.68 50.698 212.68C50.3647 212.68 50.078 212.803 49.838 213.05C49.598 213.29 49.448 213.64 49.388 214.1H51.838ZM52.468 215.85V216.73C52.0947 216.943 51.6014 217.05 50.988 217.05C50.2014 217.05 49.5747 216.813 49.108 216.34C48.6414 215.867 48.408 215.247 48.408 214.48C48.408 213.667 48.6214 213.03 49.048 212.57C49.4747 212.103 50.018 211.87 50.678 211.87C51.3247 211.87 51.838 212.073 52.218 212.48C52.598 212.88 52.788 213.46 52.788 214.22C52.788 214.427 52.768 214.643 52.728 214.87H49.398C49.4647 215.31 49.6514 215.647 49.958 215.88C50.2647 216.113 50.6514 216.23 51.118 216.23C51.658 216.23 52.108 216.103 52.468 215.85ZM54.922 211.93V212.82C55.1686 212.193 55.612 211.88 56.252 211.88C56.3453 211.88 56.4486 211.89 56.562 211.91V212.87C56.422 212.81 56.2653 212.78 56.092 212.78C55.752 212.78 55.472 212.93 55.252 213.23C55.032 213.53 54.922 213.887 54.922 214.3V217H53.942V211.93H54.922ZM58.3106 211.93V212.8C58.6106 212.173 59.1373 211.86 59.8906 211.86C60.3906 211.86 60.7873 212.013 61.0806 212.32C61.374 212.627 61.5206 213.043 61.5206 213.57V217H60.5406V213.8C60.5406 213.447 60.4506 213.177 60.2706 212.99C60.0973 212.803 59.864 212.71 59.5706 212.71C59.224 212.71 58.9273 212.847 58.6806 213.12C58.434 213.387 58.3106 213.763 58.3106 214.25V217H57.3306V211.93H58.3106ZM62.8784 217V211.93H63.8684V217H62.8784ZM62.9284 210.82C62.8151 210.7 62.7584 210.553 62.7584 210.38C62.7584 210.207 62.8151 210.06 62.9284 209.94C63.0484 209.82 63.1951 209.76 63.3684 209.76C63.5418 209.76 63.6884 209.82 63.8084 209.94C63.9284 210.06 63.9884 210.207 63.9884 210.38C63.9884 210.547 63.9284 210.69 63.8084 210.81C63.6884 210.93 63.5418 210.99 63.3684 210.99C63.1951 210.99 63.0484 210.933 62.9284 210.82ZM65.2896 217V210H66.2696V217H65.2896ZM67.4396 214.35L69.4296 217H68.2596L66.3096 214.35L68.2196 211.93H69.3696L67.4396 214.35ZM72.9596 214.74H72.1996C71.8263 214.74 71.5429 214.813 71.3496 214.96C71.1629 215.107 71.0696 215.293 71.0696 215.52C71.0696 215.753 71.1429 215.937 71.2896 216.07C71.4363 216.203 71.6496 216.27 71.9296 216.27C72.2496 216.27 72.4996 216.183 72.6796 216.01C72.8663 215.83 72.9596 215.597 72.9596 215.31V214.74ZM70.4096 213.14V212.19C70.8029 211.963 71.3229 211.85 71.9696 211.85C73.2963 211.85 73.9596 212.493 73.9596 213.78V217H72.9896V216.4C72.7296 216.827 72.2729 217.04 71.6196 217.04C71.1396 217.04 70.7529 216.903 70.4596 216.63C70.1729 216.35 70.0296 215.997 70.0296 215.57C70.0296 215.083 70.2129 214.707 70.5796 214.44C70.9463 214.167 71.4596 214.03 72.1196 214.03H72.9596V213.74C72.9596 213.393 72.8763 213.133 72.7096 212.96C72.5429 212.78 72.2663 212.69 71.8796 212.69C71.3396 212.69 70.8496 212.84 70.4096 213.14ZM76.2598 209.93V212.8C76.5465 212.173 77.0698 211.86 77.8298 211.86C78.3232 211.86 78.7198 212.013 79.0198 212.32C79.3198 212.627 79.4698 213.053 79.4698 213.6V217H78.4898V213.8C78.4898 213.453 78.3998 213.187 78.2198 213C78.0465 212.807 77.8165 212.71 77.5298 212.71C77.1965 212.71 76.8998 212.837 76.6398 213.09C76.3865 213.343 76.2598 213.73 76.2598 214.25V217H75.2798V209.93H76.2598ZM83.4577 214.74H82.6977C82.3243 214.74 82.041 214.813 81.8477 214.96C81.661 215.107 81.5677 215.293 81.5677 215.52C81.5677 215.753 81.641 215.937 81.7877 216.07C81.9343 216.203 82.1477 216.27 82.4277 216.27C82.7477 216.27 82.9977 216.183 83.1777 216.01C83.3643 215.83 83.4577 215.597 83.4577 215.31V214.74ZM80.9077 213.14V212.19C81.301 211.963 81.821 211.85 82.4677 211.85C83.7943 211.85 84.4577 212.493 84.4577 213.78V217H83.4877V216.4C83.2277 216.827 82.771 217.04 82.1177 217.04C81.6377 217.04 81.251 216.903 80.9577 216.63C80.671 216.35 80.5277 215.997 80.5277 215.57C80.5277 215.083 80.711 214.707 81.0777 214.44C81.4443 214.167 81.9577 214.03 82.6177 214.03H83.4577V213.74C83.4577 213.393 83.3743 213.133 83.2077 212.96C83.041 212.78 82.7643 212.69 82.3777 212.69C81.8377 212.69 81.3477 212.84 80.9077 213.14ZM86.7579 211.93V212.8C87.0579 212.173 87.5846 211.86 88.3379 211.86C88.8379 211.86 89.2346 212.013 89.5279 212.32C89.8212 212.627 89.9679 213.043 89.9679 213.57V217H88.9879V213.8C88.9879 213.447 88.8979 213.177 88.7179 212.99C88.5446 212.803 88.3112 212.71 88.0179 212.71C87.6712 212.71 87.3746 212.847 87.1279 213.12C86.8812 213.387 86.7579 213.763 86.7579 214.25V217H85.7779V211.93H86.7579ZM96.1366 216.21C96.51 216.21 96.8233 216.053 97.0766 215.74C97.33 215.42 97.4566 215.01 97.4566 214.51C97.4566 213.937 97.33 213.497 97.0766 213.19C96.8233 212.877 96.5 212.72 96.1066 212.72C95.76 212.72 95.4466 212.86 95.1666 213.14C94.8933 213.42 94.7566 213.85 94.7566 214.43C94.7566 215.03 94.89 215.477 95.1566 215.77C95.4233 216.063 95.75 216.21 96.1366 216.21ZM94.7566 209.93V212.7C95.1166 212.14 95.6266 211.86 96.2866 211.86C96.9266 211.86 97.45 212.1 97.8566 212.58C98.2633 213.06 98.4666 213.697 98.4666 214.49C98.4666 215.203 98.2733 215.813 97.8866 216.32C97.5 216.82 96.97 217.07 96.2966 217.07C95.6233 217.07 95.11 216.79 94.7566 216.23V217H93.7666V209.93H94.7566ZM102.717 214.1V213.92C102.704 213.54 102.6 213.24 102.407 213.02C102.214 212.793 101.937 212.68 101.577 212.68C101.244 212.68 100.957 212.803 100.717 213.05C100.477 213.29 100.327 213.64 100.267 214.1H102.717ZM103.347 215.85V216.73C102.974 216.943 102.48 217.05 101.867 217.05C101.08 217.05 100.454 216.813 99.987 216.34C99.5203 215.867 99.287 215.247 99.287 214.48C99.287 213.667 99.5003 213.03 99.927 212.57C100.354 212.103 100.897 211.87 101.557 211.87C102.204 211.87 102.717 212.073 103.097 212.48C103.477 212.88 103.667 213.46 103.667 214.22C103.667 214.427 103.647 214.643 103.607 214.87H100.277C100.344 215.31 100.53 215.647 100.837 215.88C101.144 216.113 101.53 216.23 101.997 216.23C102.537 216.23 102.987 216.103 103.347 215.85ZM107.711 212.1V212.99C107.384 212.797 106.964 212.7 106.451 212.7C106.218 212.7 106.031 212.753 105.891 212.86C105.758 212.967 105.691 213.107 105.691 213.28C105.691 213.327 105.694 213.373 105.701 213.42C105.714 213.46 105.734 213.503 105.761 213.55C105.788 213.59 105.811 213.627 105.831 213.66C105.858 213.687 105.898 213.717 105.951 213.75C106.004 213.783 106.044 213.813 106.071 213.84C106.104 213.86 106.154 213.887 106.221 213.92C106.294 213.953 106.348 213.98 106.381 214C106.414 214.013 106.471 214.04 106.551 214.08C106.638 214.113 106.698 214.137 106.731 214.15C107.124 214.323 107.431 214.52 107.651 214.74C107.878 214.953 107.991 215.24 107.991 215.6C107.991 216.053 107.831 216.41 107.511 216.67C107.191 216.923 106.758 217.05 106.211 217.05C105.611 217.05 105.111 216.95 104.711 216.75V215.82C105.178 216.107 105.661 216.25 106.161 216.25C106.421 216.25 106.621 216.197 106.761 216.09C106.908 215.983 106.981 215.843 106.981 215.67C106.981 215.523 106.924 215.393 106.811 215.28C106.698 215.16 106.581 215.073 106.461 215.02C106.348 214.96 106.151 214.87 105.871 214.75C105.078 214.423 104.681 213.943 104.681 213.31C104.681 212.863 104.848 212.513 105.181 212.26C105.514 212.007 105.931 211.88 106.431 211.88C106.978 211.88 107.404 211.953 107.711 212.1ZM111.68 214.74H110.92C110.547 214.74 110.264 214.813 110.07 214.96C109.884 215.107 109.79 215.293 109.79 215.52C109.79 215.753 109.864 215.937 110.01 216.07C110.157 216.203 110.37 216.27 110.65 216.27C110.97 216.27 111.22 216.183 111.4 216.01C111.587 215.83 111.68 215.597 111.68 215.31V214.74ZM109.13 213.14V212.19C109.524 211.963 110.044 211.85 110.69 211.85C112.017 211.85 112.68 212.493 112.68 213.78V217H111.71V216.4C111.45 216.827 110.994 217.04 110.34 217.04C109.86 217.04 109.474 216.903 109.18 216.63C108.894 216.35 108.75 215.997 108.75 215.57C108.75 215.083 108.934 214.707 109.3 214.44C109.667 214.167 110.18 214.03 110.84 214.03H111.68V213.74C111.68 213.393 111.597 213.133 111.43 212.96C111.264 212.78 110.987 212.69 110.6 212.69C110.06 212.69 109.57 212.84 109.13 213.14ZM114.981 211.93V212.82C115.227 212.193 115.671 211.88 116.311 211.88C116.404 211.88 116.507 211.89 116.621 211.91V212.87C116.481 212.81 116.324 212.78 116.151 212.78C115.811 212.78 115.531 212.93 115.311 213.23C115.091 213.53 114.981 213.887 114.981 214.3V217H114.001V211.93H114.981Z" fill="#2B2B2B"/>
<path d="M44.26 195.12V197.58H45.19C45.6167 197.58 45.94 197.47 46.16 197.25C46.38 197.023 46.49 196.723 46.49 196.35C46.49 195.53 46.04 195.12 45.14 195.12H44.26ZM46.73 201L45.15 198.44H44.26V201H43.23V194.26H45.11C45.8833 194.26 46.48 194.45 46.9 194.83C47.32 195.203 47.53 195.713 47.53 196.36C47.5233 196.833 47.4033 197.237 47.17 197.57C46.9367 197.897 46.6133 198.133 46.2 198.28L47.96 201H46.73ZM51.2136 200.21C51.6069 200.21 51.9303 200.057 52.1836 199.75C52.4369 199.437 52.5636 199 52.5636 198.44C52.5636 197.913 52.4403 197.497 52.1936 197.19C51.9469 196.877 51.6336 196.72 51.2536 196.72C50.8736 196.72 50.5436 196.86 50.2636 197.14C49.9903 197.413 49.8536 197.85 49.8536 198.45C49.8536 199.037 49.9903 199.477 50.2636 199.77C50.5436 200.063 50.8603 200.21 51.2136 200.21ZM49.8536 195.93V196.71C50.2003 196.143 50.7203 195.86 51.4136 195.86C52.0803 195.86 52.6069 196.103 52.9936 196.59C53.3803 197.07 53.5736 197.683 53.5736 198.43C53.5736 199.197 53.3736 199.83 52.9736 200.33C52.5803 200.823 52.0536 201.07 51.3936 201.07C50.7203 201.07 50.2069 200.79 49.8536 200.23V202.94H48.8736V195.93H49.8536ZM56.8553 197.71C56.8553 196.683 57.0586 195.87 57.4653 195.27C57.8786 194.663 58.442 194.36 59.1553 194.36C59.882 194.36 60.452 194.66 60.8653 195.26C61.2786 195.86 61.4853 196.677 61.4853 197.71C61.4853 198.73 61.282 199.547 60.8753 200.16C60.4753 200.773 59.902 201.08 59.1553 201.08C58.442 201.08 57.8786 200.773 57.4653 200.16C57.0586 199.547 56.8553 198.73 56.8553 197.71ZM58.2253 195.91C57.9786 196.33 57.8553 196.93 57.8553 197.71C57.8553 198.49 57.9753 199.097 58.2153 199.53C58.462 199.957 58.7753 200.17 59.1553 200.17C59.5686 200.17 59.892 199.957 60.1253 199.53C60.3586 199.103 60.4753 198.497 60.4753 197.71C60.4753 196.917 60.352 196.313 60.1053 195.9C59.8653 195.48 59.5486 195.27 59.1553 195.27C58.782 195.27 58.472 195.483 58.2253 195.91ZM61.8145 202.24L62.7745 199.9H63.9845L62.6745 202.24H61.8145ZM64.7557 197.71C64.7557 196.683 64.959 195.87 65.3657 195.27C65.779 194.663 66.3424 194.36 67.0557 194.36C67.7824 194.36 68.3524 194.66 68.7657 195.26C69.179 195.86 69.3857 196.677 69.3857 197.71C69.3857 198.73 69.1824 199.547 68.7757 200.16C68.3757 200.773 67.8024 201.08 67.0557 201.08C66.3424 201.08 65.779 200.773 65.3657 200.16C64.959 199.547 64.7557 198.73 64.7557 197.71ZM66.1257 195.91C65.879 196.33 65.7557 196.93 65.7557 197.71C65.7557 198.49 65.8757 199.097 66.1157 199.53C66.3624 199.957 66.6757 200.17 67.0557 200.17C67.469 200.17 67.7924 199.957 68.0257 199.53C68.259 199.103 68.3757 198.497 68.3757 197.71C68.3757 196.917 68.2524 196.313 68.0057 195.9C67.7657 195.48 67.449 195.27 67.0557 195.27C66.6824 195.27 66.3724 195.483 66.1257 195.91ZM70.2049 197.71C70.2049 196.683 70.4083 195.87 70.8149 195.27C71.2283 194.663 71.7916 194.36 72.5049 194.36C73.2316 194.36 73.8016 194.66 74.2149 195.26C74.6283 195.86 74.8349 196.677 74.8349 197.71C74.8349 198.73 74.6316 199.547 74.2249 200.16C73.8249 200.773 73.2516 201.08 72.5049 201.08C71.7916 201.08 71.2283 200.773 70.8149 200.16C70.4083 199.547 70.2049 198.73 70.2049 197.71ZM71.5749 195.91C71.3283 196.33 71.2049 196.93 71.2049 197.71C71.2049 198.49 71.3249 199.097 71.5649 199.53C71.8116 199.957 72.1249 200.17 72.5049 200.17C72.9183 200.17 73.2416 199.957 73.4749 199.53C73.7083 199.103 73.8249 198.497 73.8249 197.71C73.8249 196.917 73.7016 196.313 73.4549 195.9C73.2149 195.48 72.8983 195.27 72.5049 195.27C72.1316 195.27 71.8216 195.483 71.5749 195.91ZM75.6541 197.71C75.6541 196.683 75.8575 195.87 76.2641 195.27C76.6775 194.663 77.2408 194.36 77.9541 194.36C78.6808 194.36 79.2508 194.66 79.6641 195.26C80.0775 195.86 80.2841 196.677 80.2841 197.71C80.2841 198.73 80.0808 199.547 79.6741 200.16C79.2741 200.773 78.7008 201.08 77.9541 201.08C77.2408 201.08 76.6775 200.773 76.2641 200.16C75.8575 199.547 75.6541 198.73 75.6541 197.71ZM77.0241 195.91C76.7775 196.33 76.6541 196.93 76.6541 197.71C76.6541 198.49 76.7741 199.097 77.0141 199.53C77.2608 199.957 77.5741 200.17 77.9541 200.17C78.3675 200.17 78.6908 199.957 78.9241 199.53C79.1575 199.103 79.2741 198.497 79.2741 197.71C79.2741 196.917 79.1508 196.313 78.9041 195.9C78.6641 195.48 78.3475 195.27 77.9541 195.27C77.5808 195.27 77.2708 195.483 77.0241 195.91ZM80.6134 202.24L81.5734 199.9H82.7834L81.4734 202.24H80.6134ZM83.5545 197.71C83.5545 196.683 83.7579 195.87 84.1645 195.27C84.5779 194.663 85.1412 194.36 85.8545 194.36C86.5812 194.36 87.1512 194.66 87.5645 195.26C87.9779 195.86 88.1845 196.677 88.1845 197.71C88.1845 198.73 87.9812 199.547 87.5745 200.16C87.1745 200.773 86.6012 201.08 85.8545 201.08C85.1412 201.08 84.5779 200.773 84.1645 200.16C83.7579 199.547 83.5545 198.73 83.5545 197.71ZM84.9245 195.91C84.6779 196.33 84.5545 196.93 84.5545 197.71C84.5545 198.49 84.6745 199.097 84.9145 199.53C85.1612 199.957 85.4745 200.17 85.8545 200.17C86.2679 200.17 86.5912 199.957 86.8245 199.53C87.0579 199.103 87.1745 198.497 87.1745 197.71C87.1745 196.917 87.0512 196.313 86.8045 195.9C86.5645 195.48 86.2479 195.27 85.8545 195.27C85.4812 195.27 85.1712 195.483 84.9245 195.91ZM89.0038 197.71C89.0038 196.683 89.2071 195.87 89.6138 195.27C90.0271 194.663 90.5904 194.36 91.3038 194.36C92.0304 194.36 92.6004 194.66 93.0138 195.26C93.4271 195.86 93.6338 196.677 93.6338 197.71C93.6338 198.73 93.4304 199.547 93.0238 200.16C92.6238 200.773 92.0504 201.08 91.3038 201.08C90.5904 201.08 90.0271 200.773 89.6138 200.16C89.2071 199.547 89.0038 198.73 89.0038 197.71ZM90.3738 195.91C90.1271 196.33 90.0038 196.93 90.0038 197.71C90.0038 198.49 90.1238 199.097 90.3638 199.53C90.6104 199.957 90.9238 200.17 91.3038 200.17C91.7171 200.17 92.0404 199.957 92.2738 199.53C92.5071 199.103 92.6238 198.497 92.6238 197.71C92.6238 196.917 92.5004 196.313 92.2538 195.9C92.0138 195.48 91.6971 195.27 91.3038 195.27C90.9304 195.27 90.6204 195.483 90.3738 195.91ZM94.453 197.71C94.453 196.683 94.6563 195.87 95.063 195.27C95.4763 194.663 96.0396 194.36 96.753 194.36C97.4796 194.36 98.0496 194.66 98.463 195.26C98.8763 195.86 99.083 196.677 99.083 197.71C99.083 198.73 98.8796 199.547 98.473 200.16C98.073 200.773 97.4996 201.08 96.753 201.08C96.0396 201.08 95.4763 200.773 95.063 200.16C94.6563 199.547 94.453 198.73 94.453 197.71ZM95.823 195.91C95.5763 196.33 95.453 196.93 95.453 197.71C95.453 198.49 95.573 199.097 95.813 199.53C96.0596 199.957 96.373 200.17 96.753 200.17C97.1663 200.17 97.4896 199.957 97.723 199.53C97.9563 199.103 98.073 198.497 98.073 197.71C98.073 196.917 97.9496 196.313 97.703 195.9C97.463 195.48 97.1463 195.27 96.753 195.27C96.3796 195.27 96.0696 195.483 95.823 195.91ZM44.26 227.12V229.58H45.19C45.6167 229.58 45.94 229.47 46.16 229.25C46.38 229.023 46.49 228.723 46.49 228.35C46.49 227.53 46.04 227.12 45.14 227.12H44.26ZM46.73 233L45.15 230.44H44.26V233H43.23V226.26H45.11C45.8833 226.26 46.48 226.45 46.9 226.83C47.32 227.203 47.53 227.713 47.53 228.36C47.5233 228.833 47.4033 229.237 47.17 229.57C46.9367 229.897 46.6133 230.133 46.2 230.28L47.96 233H46.73ZM51.2136 232.21C51.6069 232.21 51.9303 232.057 52.1836 231.75C52.4369 231.437 52.5636 231 52.5636 230.44C52.5636 229.913 52.4403 229.497 52.1936 229.19C51.9469 228.877 51.6336 228.72 51.2536 228.72C50.8736 228.72 50.5436 228.86 50.2636 229.14C49.9903 229.413 49.8536 229.85 49.8536 230.45C49.8536 231.037 49.9903 231.477 50.2636 231.77C50.5436 232.063 50.8603 232.21 51.2136 232.21ZM49.8536 227.93V228.71C50.2003 228.143 50.7203 227.86 51.4136 227.86C52.0803 227.86 52.6069 228.103 52.9936 228.59C53.3803 229.07 53.5736 229.683 53.5736 230.43C53.5736 231.197 53.3736 231.83 52.9736 232.33C52.5803 232.823 52.0536 233.07 51.3936 233.07C50.7203 233.07 50.2069 232.79 49.8536 232.23V234.94H48.8736V227.93H49.8536ZM56.8553 229.71C56.8553 228.683 57.0586 227.87 57.4653 227.27C57.8786 226.663 58.442 226.36 59.1553 226.36C59.882 226.36 60.452 226.66 60.8653 227.26C61.2786 227.86 61.4853 228.677 61.4853 229.71C61.4853 230.73 61.282 231.547 60.8753 232.16C60.4753 232.773 59.902 233.08 59.1553 233.08C58.442 233.08 57.8786 232.773 57.4653 232.16C57.0586 231.547 56.8553 230.73 56.8553 229.71ZM58.2253 227.91C57.9786 228.33 57.8553 228.93 57.8553 229.71C57.8553 230.49 57.9753 231.097 58.2153 231.53C58.462 231.957 58.7753 232.17 59.1553 232.17C59.5686 232.17 59.892 231.957 60.1253 231.53C60.3586 231.103 60.4753 230.497 60.4753 229.71C60.4753 228.917 60.352 228.313 60.1053 227.9C59.8653 227.48 59.5486 227.27 59.1553 227.27C58.782 227.27 58.472 227.483 58.2253 227.91ZM61.8145 234.24L62.7745 231.9H63.9845L62.6745 234.24H61.8145ZM64.7557 229.71C64.7557 228.683 64.959 227.87 65.3657 227.27C65.779 226.663 66.3424 226.36 67.0557 226.36C67.7824 226.36 68.3524 226.66 68.7657 227.26C69.179 227.86 69.3857 228.677 69.3857 229.71C69.3857 230.73 69.1824 231.547 68.7757 232.16C68.3757 232.773 67.8024 233.08 67.0557 233.08C66.3424 233.08 65.779 232.773 65.3657 232.16C64.959 231.547 64.7557 230.73 64.7557 229.71ZM66.1257 227.91C65.879 228.33 65.7557 228.93 65.7557 229.71C65.7557 230.49 65.8757 231.097 66.1157 231.53C66.3624 231.957 66.6757 232.17 67.0557 232.17C67.469 232.17 67.7924 231.957 68.0257 231.53C68.259 231.103 68.3757 230.497 68.3757 229.71C68.3757 228.917 68.2524 228.313 68.0057 227.9C67.7657 227.48 67.449 227.27 67.0557 227.27C66.6824 227.27 66.3724 227.483 66.1257 227.91ZM70.2049 229.71C70.2049 228.683 70.4083 227.87 70.8149 227.27C71.2283 226.663 71.7916 226.36 72.5049 226.36C73.2316 226.36 73.8016 226.66 74.2149 227.26C74.6283 227.86 74.8349 228.677 74.8349 229.71C74.8349 230.73 74.6316 231.547 74.2249 232.16C73.8249 232.773 73.2516 233.08 72.5049 233.08C71.7916 233.08 71.2283 232.773 70.8149 232.16C70.4083 231.547 70.2049 230.73 70.2049 229.71ZM71.5749 227.91C71.3283 228.33 71.2049 228.93 71.2049 229.71C71.2049 230.49 71.3249 231.097 71.5649 231.53C71.8116 231.957 72.1249 232.17 72.5049 232.17C72.9183 232.17 73.2416 231.957 73.4749 231.53C73.7083 231.103 73.8249 230.497 73.8249 229.71C73.8249 228.917 73.7016 228.313 73.4549 227.9C73.2149 227.48 72.8983 227.27 72.5049 227.27C72.1316 227.27 71.8216 227.483 71.5749 227.91ZM75.6541 229.71C75.6541 228.683 75.8575 227.87 76.2641 227.27C76.6775 226.663 77.2408 226.36 77.9541 226.36C78.6808 226.36 79.2508 226.66 79.6641 227.26C80.0775 227.86 80.2841 228.677 80.2841 229.71C80.2841 230.73 80.0808 231.547 79.6741 232.16C79.2741 232.773 78.7008 233.08 77.9541 233.08C77.2408 233.08 76.6775 232.773 76.2641 232.16C75.8575 231.547 75.6541 230.73 75.6541 229.71ZM77.0241 227.91C76.7775 228.33 76.6541 228.93 76.6541 229.71C76.6541 230.49 76.7741 231.097 77.0141 231.53C77.2608 231.957 77.5741 232.17 77.9541 232.17C78.3675 232.17 78.6908 231.957 78.9241 231.53C79.1575 231.103 79.2741 230.497 79.2741 229.71C79.2741 228.917 79.1508 228.313 78.9041 227.9C78.6641 227.48 78.3475 227.27 77.9541 227.27C77.5808 227.27 77.2708 227.483 77.0241 227.91ZM80.6134 234.24L81.5734 231.9H82.7834L81.4734 234.24H80.6134ZM83.5545 229.71C83.5545 228.683 83.7579 227.87 84.1645 227.27C84.5779 226.663 85.1412 226.36 85.8545 226.36C86.5812 226.36 87.1512 226.66 87.5645 227.26C87.9779 227.86 88.1845 228.677 88.1845 229.71C88.1845 230.73 87.9812 231.547 87.5745 232.16C87.1745 232.773 86.6012 233.08 85.8545 233.08C85.1412 233.08 84.5779 232.773 84.1645 232.16C83.7579 231.547 83.5545 230.73 83.5545 229.71ZM84.9245 227.91C84.6779 228.33 84.5545 228.93 84.5545 229.71C84.5545 230.49 84.6745 231.097 84.9145 231.53C85.1612 231.957 85.4745 232.17 85.8545 232.17C86.2679 232.17 86.5912 231.957 86.8245 231.53C87.0579 231.103 87.1745 230.497 87.1745 229.71C87.1745 228.917 87.0512 228.313 86.8045 227.9C86.5645 227.48 86.2479 227.27 85.8545 227.27C85.4812 227.27 85.1712 227.483 84.9245 227.91ZM89.0038 229.71C89.0038 228.683 89.2071 227.87 89.6138 227.27C90.0271 226.663 90.5904 226.36 91.3038 226.36C92.0304 226.36 92.6004 226.66 93.0138 227.26C93.4271 227.86 93.6338 228.677 93.6338 229.71C93.6338 230.73 93.4304 231.547 93.0238 232.16C92.6238 232.773 92.0504 233.08 91.3038 233.08C90.5904 233.08 90.0271 232.773 89.6138 232.16C89.2071 231.547 89.0038 230.73 89.0038 229.71ZM90.3738 227.91C90.1271 228.33 90.0038 228.93 90.0038 229.71C90.0038 230.49 90.1238 231.097 90.3638 231.53C90.6104 231.957 90.9238 232.17 91.3038 232.17C91.7171 232.17 92.0404 231.957 92.2738 231.53C92.5071 231.103 92.6238 230.497 92.6238 229.71C92.6238 228.917 92.5004 228.313 92.2538 227.9C92.0138 227.48 91.6971 227.27 91.3038 227.27C90.9304 227.27 90.6204 227.483 90.3738 227.91ZM94.453 229.71C94.453 228.683 94.6563 227.87 95.063 227.27C95.4763 226.663 96.0396 226.36 96.753 226.36C97.4796 226.36 98.0496 226.66 98.463 227.26C98.8763 227.86 99.083 228.677 99.083 229.71C99.083 230.73 98.8796 231.547 98.473 232.16C98.073 232.773 97.4996 233.08 96.753 233.08C96.0396 233.08 95.4763 232.773 95.063 232.16C94.6563 231.547 94.453 230.73 94.453 229.71ZM95.823 227.91C95.5763 228.33 95.453 228.93 95.453 229.71C95.453 230.49 95.573 231.097 95.813 231.53C96.0596 231.957 96.373 232.17 96.753 232.17C97.1663 232.17 97.4896 231.957 97.723 231.53C97.9563 231.103 98.073 230.497 98.073 229.71C98.073 228.917 97.9496 228.313 97.703 227.9C97.463 227.48 97.1463 227.27 96.753 227.27C96.3796 227.27 96.0696 227.483 95.823 227.91Z" fill="#FF1934"/>
<rect x="43" y="254" width="120" height="24" rx="8" fill="#FF1934"/>
<path d="M88.0692 262.608L89.0852 262.608L89.0852 268L88.0692 268L88.0692 265.736L85.8532 265.736L85.8532 268L84.8452 268L84.8452 262.608L85.8532 262.608L85.8532 264.864L88.0692 264.864L88.0692 262.608ZM91.2205 267.176L93.4205 267.176L93.4205 268L90.2045 268L90.2045 262.608L93.3885 262.608L93.3885 263.432L91.2205 263.432L91.2205 264.896L93.1485 264.896L93.1485 265.712L91.2205 265.712L91.2205 267.176ZM94.4311 268L94.4311 262.608L95.5751 262.608L96.8711 264.856C97.0844 265.224 97.2738 265.568 97.4391 265.888C97.6098 266.203 97.7244 266.427 97.7831 266.56L97.8711 266.76C97.8284 266.317 97.8071 265.683 97.8071 264.856L97.8071 262.608L98.8231 262.608L98.8231 268L97.6711 268L96.3591 265.76C96.1511 265.408 95.9618 265.072 95.7911 264.752C95.6258 264.427 95.5111 264.192 95.4471 264.048L95.3511 263.824C95.4098 264.331 95.4391 264.973 95.4391 265.752L95.4391 268L94.4311 268ZM103.339 262.608L103.339 263.44L101.971 263.44L101.971 268L100.955 268L100.955 263.44L99.5869 263.44L99.5869 262.608L103.339 262.608ZM104.159 268L104.159 262.608L105.167 262.608L105.167 268L104.159 268ZM106.353 268L106.353 262.608L107.361 262.608L107.361 268L106.353 268ZM108.641 265.312L110.649 268L109.377 268L107.441 265.328L109.305 262.608L110.513 262.608L108.641 265.312ZM112.744 265.952L114.264 265.952L114.192 265.712C114.011 265.136 113.862 264.653 113.744 264.264C113.632 263.869 113.563 263.621 113.536 263.52L113.504 263.36C113.456 263.627 113.227 264.413 112.816 265.72L112.744 265.952ZM114.904 268L114.52 266.776L112.48 266.776L112.096 268L111.04 268L112.864 262.608L114.168 262.608L115.992 268L114.904 268ZM116.767 268L116.767 262.608L117.911 262.608L119.207 264.856C119.42 265.224 119.61 265.568 119.775 265.888C119.946 266.203 120.06 266.427 120.119 266.56L120.207 266.76C120.164 266.317 120.143 265.683 120.143 264.856L120.143 262.608L121.159 262.608L121.159 268L120.007 268L118.695 265.76C118.487 265.408 118.298 265.072 118.127 264.752C117.962 264.427 117.847 264.192 117.783 264.048L117.687 263.824C117.746 264.331 117.775 264.973 117.775 265.752L117.775 268L116.767 268Z" fill="white"/>
<g clip-path="url(#clip1_1124_4113)">
<path d="M295.367 270.133C337.341 270.133 371.367 236.047 371.367 194C371.367 151.953 337.341 117.867 295.367 117.867C253.394 117.867 219.367 151.953 219.367 194C219.367 236.047 253.394 270.133 295.367 270.133Z" fill="white"/>
<path d="M237.162 236.389C245.802 248.308 258.149 257.702 273.212 262.596C288.275 267.49 303.785 267.147 317.781 262.584L295.5 194L237.162 236.389Z" fill="#D9AA16"/>
<path d="M317.788 262.582C331.793 258.047 344.543 249.208 353.852 236.395C363.161 223.582 367.628 208.724 367.613 194.003L295.501 194L317.788 262.582Z" fill="#1699D9"/>
<path d="M367.612 193.997C367.627 179.276 363.16 164.419 353.851 151.606C344.541 138.793 331.792 129.953 317.786 125.418L295.499 194L367.612 193.997Z" fill="#1699D9"/>
<path d="M318.115 125.75C304.119 121.186 288.608 120.843 273.546 125.738C258.483 130.632 246.136 140.026 237.495 151.945L295.834 194.334L318.115 125.75Z" fill="#D9AA16"/>
<path d="M237.158 151.616C228.493 163.517 223.374 178.162 223.374 194C223.374 209.838 228.493 224.483 237.158 236.384L295.5 194L237.158 151.616Z" fill="#1699D9"/>
<path d="M318.261 262.44L296.182 194.501L367.617 194.501C367.617 194.331 367.627 194.17 367.627 194C367.627 193.83 367.617 193.67 367.617 193.499L296.192 193.499L318.261 125.56C317.94 125.45 317.629 125.34 317.309 125.24L295.23 193.189L237.439 151.205C237.239 151.476 237.048 151.746 236.858 152.017L294.639 194L236.858 235.984C237.048 236.254 237.239 236.535 237.439 236.795L295.23 194.812L317.309 262.76C317.629 262.66 317.94 262.54 318.261 262.44Z" fill="white"/>
<g opacity="0.32" style="mix-blend-mode:multiply">
<path d="M367.627 193.874C367.627 154.114 335.387 121.874 295.627 121.874C255.867 121.874 223.627 154.114 223.627 193.874C223.627 233.634 255.867 265.874 295.627 265.874C335.387 265.874 367.627 233.634 367.627 193.874ZM227.627 193.874C227.627 156.314 258.067 125.874 295.627 125.874C333.187 125.874 363.627 156.314 363.627 193.874C363.627 231.434 333.187 261.874 295.627 261.874C258.067 261.874 227.627 231.434 227.627 193.874Z" fill="#2B2B2B"/>
</g>
<path d="M287.515 193.986C287.515 198.404 291.096 201.986 295.515 201.986C299.933 201.986 303.515 198.404 303.515 193.986C303.515 189.568 299.933 185.986 295.515 185.986C291.096 185.986 287.515 189.568 287.515 193.986Z" fill="white"/>
<path d="M280.483 246.547L280.817 245.519C281.066 244.752 280.899 244.274 280.316 244.084C279.72 243.891 279.292 244.193 279.032 244.992L278.714 245.972L280.483 246.547ZM276.032 245.1L277.754 245.66L277.988 244.937C278.128 244.506 278.148 244.155 278.047 243.883C277.946 243.612 277.762 243.433 277.496 243.347C277.248 243.267 277.022 243.295 276.816 243.431C276.613 243.561 276.451 243.81 276.332 244.178L276.032 245.1ZM274.663 245.98L275.402 243.707C275.624 243.023 275.959 242.543 276.406 242.267C276.853 241.992 277.333 241.938 277.847 242.105C278.195 242.218 278.469 242.412 278.667 242.687C278.859 242.959 278.948 243.258 278.933 243.583C279.127 243.267 279.387 243.039 279.712 242.9C280.032 242.758 280.407 242.758 280.838 242.898C281.345 243.063 281.703 243.375 281.911 243.835C282.119 244.295 282.121 244.839 281.917 245.467L281.073 248.063L274.663 245.98ZM282.315 240.909L283.165 238.293L284.144 238.612L282.902 242.435L276.492 240.352L277.722 236.567L278.701 236.885L277.864 239.463L279.604 240.028L280.349 237.736L281.319 238.051L280.574 240.343L282.315 240.909ZM279.55 231.848L280.71 232.225C280.27 232.607 279.963 233.068 279.788 233.607C279.691 233.905 279.681 234.161 279.759 234.376C279.838 234.584 279.983 234.722 280.192 234.79C280.401 234.858 280.604 234.826 280.801 234.694C280.994 234.553 281.232 234.329 281.514 234.021C281.711 233.804 281.879 233.631 282.019 233.502C282.153 233.37 282.326 233.237 282.538 233.102C282.752 232.962 282.981 232.882 283.226 232.863C283.466 232.836 283.722 232.867 283.995 232.955C284.565 233.141 284.955 233.495 285.164 234.019C285.368 234.534 285.362 235.124 285.145 235.79C284.91 236.512 284.579 237.067 284.152 237.454L282.925 237.056C283.496 236.638 283.886 236.106 284.096 235.459C284.191 235.168 284.197 234.91 284.116 234.688C284.027 234.463 283.863 234.311 283.622 234.233C283.508 234.196 283.399 234.185 283.296 234.2C283.193 234.216 283.074 234.279 282.94 234.39C282.808 234.494 282.711 234.578 282.648 234.642C282.587 234.699 282.469 234.825 282.293 235.021C282.241 235.074 282.203 235.114 282.18 235.142C281.996 235.341 281.84 235.501 281.71 235.62C281.574 235.737 281.405 235.857 281.203 235.981C281.002 236.105 280.785 236.178 280.554 236.201C280.324 236.217 280.079 236.183 279.819 236.099C279.274 235.922 278.901 235.58 278.701 235.073C278.503 234.56 278.513 233.971 278.729 233.305C278.925 232.703 279.198 232.217 279.55 231.848ZM284.228 230.07L284.815 228.263L284.502 228.256C283.747 228.249 283.115 228.241 282.607 228.23C282.095 228.21 281.773 228.197 281.642 228.189L281.44 228.166C281.738 228.326 282.585 228.902 283.98 229.895L284.228 230.07ZM287.497 228.294L285.893 228.277L285.105 230.703L286.412 231.632L286.004 232.887L280.299 228.636L280.802 227.086L287.917 227L287.497 228.294ZM283.185 223.12L285.277 223.799L285.537 223.001C285.656 222.633 285.654 222.327 285.53 222.084C285.399 221.838 285.166 221.66 284.83 221.551C284.5 221.444 284.215 221.46 283.973 221.599C283.734 221.731 283.555 221.978 283.438 222.34L283.185 223.12ZM289.292 222.77L286.479 223.465L286.266 224.121L288.606 224.881L288.216 226.079L281.806 223.997L282.449 222.018C282.686 221.289 283.055 220.778 283.557 220.486C284.06 220.187 284.62 220.137 285.235 220.337C285.689 220.492 286.04 220.728 286.287 221.047C286.528 221.363 286.663 221.733 286.694 222.157L289.758 221.334L289.292 222.77Z" fill="white"/>
<path d="M277.714 144.898L278.048 145.925C278.297 146.692 278.714 146.981 279.297 146.792C279.893 146.598 280.061 146.102 279.802 145.303L279.483 144.323L277.714 144.898ZM282.165 143.452L280.444 144.011L280.679 144.734C280.819 145.165 281.009 145.461 281.251 145.62C281.492 145.78 281.746 145.817 282.012 145.731C282.259 145.65 282.426 145.494 282.512 145.263C282.6 145.038 282.584 144.742 282.465 144.374L282.165 143.452ZM282.755 141.935L283.494 144.208C283.717 144.893 283.728 145.478 283.528 145.963C283.328 146.449 282.972 146.775 282.458 146.942C282.109 147.055 281.774 147.059 281.452 146.953C281.137 146.846 280.89 146.656 280.71 146.385C280.739 146.754 280.663 147.091 280.481 147.395C280.306 147.697 280.003 147.918 279.572 148.059C279.065 148.223 278.592 148.181 278.153 147.931C277.714 147.681 277.393 147.242 277.189 146.614L276.345 144.018L282.755 141.935ZM279.546 150.536L280.396 153.151L279.416 153.469L278.174 149.646L284.584 147.563L285.814 151.349L284.835 151.667L283.997 149.09L282.257 149.655L283.001 151.947L282.031 152.262L281.287 149.97L279.546 150.536ZM287.109 156.241L285.949 156.618C286.08 156.05 286.058 155.496 285.883 154.957C285.786 154.659 285.643 154.446 285.454 154.318C285.267 154.197 285.07 154.17 284.86 154.238C284.651 154.306 284.506 154.451 284.424 154.674C284.35 154.901 284.29 155.222 284.242 155.637C284.211 155.928 284.176 156.167 284.139 156.354C284.108 156.54 284.046 156.749 283.954 156.982C283.864 157.222 283.725 157.421 283.538 157.58C283.36 157.743 283.135 157.869 282.862 157.958C282.291 158.143 281.768 158.085 281.292 157.784C280.824 157.488 280.482 157.007 280.265 156.341C280.03 155.618 279.972 154.975 280.09 154.41L281.317 154.012C281.101 154.685 281.098 155.345 281.308 155.991C281.403 156.283 281.549 156.495 281.746 156.627C281.95 156.757 282.172 156.783 282.413 156.705C282.527 156.668 282.621 156.613 282.696 156.54C282.77 156.466 282.829 156.346 282.872 156.177C282.918 156.015 282.947 155.89 282.96 155.802C282.976 155.719 282.997 155.548 283.024 155.287C283.036 155.213 283.042 155.158 283.045 155.122C283.076 154.853 283.11 154.632 283.145 154.459C283.186 154.284 283.252 154.088 283.342 153.869C283.432 153.651 283.564 153.464 283.738 153.309C283.914 153.161 284.133 153.044 284.392 152.96C284.938 152.783 285.44 152.84 285.9 153.133C286.361 153.431 286.7 153.914 286.916 154.579C287.112 155.182 287.176 155.736 287.109 156.241ZM284.369 160.428L284.956 162.235L285.214 162.057C285.829 161.619 286.345 161.255 286.762 160.965C287.188 160.68 287.456 160.501 287.566 160.431L287.744 160.331C287.409 160.377 286.385 160.408 284.673 160.424L284.369 160.428ZM282.769 163.787L284.076 162.858L283.288 160.433L281.684 160.449L281.276 159.194L288.391 159.279L288.895 160.83L283.189 165.081L282.769 163.787ZM289.299 165.439L287.206 166.119L287.466 166.917C287.585 167.285 287.767 167.531 288.011 167.655C288.261 167.777 288.554 167.784 288.89 167.675C289.219 167.567 289.441 167.387 289.555 167.132C289.67 166.885 289.67 166.58 289.552 166.219L289.299 165.439ZM284.564 169.311L286.431 167.096L286.217 166.44L283.878 167.2L283.488 166.002L289.898 163.919L290.541 165.897C290.778 166.626 290.78 167.257 290.546 167.788C290.314 168.326 289.891 168.695 289.276 168.895C288.817 169.037 288.394 169.052 288.007 168.939C287.626 168.824 287.299 168.605 287.026 168.28L285.03 170.748L284.564 169.311Z" fill="white"/>
<path d="M240.946 196.986V190.246H242.206V196.986H240.946ZM243.688 196.986V190.246H245.118L246.738 193.056C247.004 193.516 247.241 193.946 247.448 194.346C247.661 194.739 247.804 195.019 247.878 195.186L247.988 195.436C247.934 194.883 247.908 194.089 247.908 193.056V190.246H249.178V196.986H247.738L246.098 194.186C245.838 193.746 245.601 193.326 245.388 192.926C245.181 192.519 245.038 192.226 244.958 192.046L244.838 191.766C244.911 192.399 244.948 193.203 244.948 194.176V196.986H243.688ZM254.823 190.246V191.286H253.113V196.986H251.843V191.286H250.133V190.246H254.823ZM255.848 196.986V190.246H257.108V196.986H255.848ZM258.47 196.986L259.01 190.246H260.45L261.37 192.696C261.53 193.109 261.68 193.523 261.82 193.936C261.96 194.343 262.06 194.646 262.12 194.846L262.21 195.156C262.417 194.463 262.703 193.643 263.07 192.696L264.01 190.246H265.45L266.11 196.986H264.85L264.61 194.356L264.43 191.996C264.19 192.683 263.903 193.469 263.57 194.356L262.63 196.886H261.77L260.85 194.356L260.06 192.026C260.06 192.353 260.017 193.129 259.93 194.356L259.73 196.986H258.47Z" fill="white"/>
</g>
<g clip-path="url(#clip2_1124_4113)">
<path d="M214.81 205.01L214.81 203.56L230 194.16L214.81 184.77L214.81 183.32L212.12 182.58C211.16 182.32 210.13 182.67 209.55 183.48C207.3 186.59 206 190.24 206 194.16C206 198.08 207.3 201.73 209.55 204.84C210.13 205.65 211.16 206 212.12 205.74L214.81 205L214.81 205.01Z" fill="#D9AA16"/>
<path d="M214.81 183.32L212.7 182.74C212.17 182.6 212.04 183.06 212.53 183.36L214.82 184.77L214.82 183.32L214.81 183.32Z" fill="#B76F09"/>
<path d="M214.81 205.01L212.7 205.59C212.17 205.73 212.04 205.27 212.53 204.97L214.82 203.56L214.82 205.01L214.81 205.01Z" fill="#B76F09"/>
<path d="M208 194.16C208 190.84 209.05 187.63 211.06 184.8L226.2 194.16L211.06 203.52C209.05 200.69 208 197.48 208 194.16Z" fill="white"/>
</g>
<path d="M9 341.5H329C333.694 341.5 337.5 345.306 337.5 350C337.5 354.694 333.694 358.5 329 358.5H9C4.30558 358.5 0.5 354.694 0.5 350C0.500002 345.306 4.30558 341.5 9 341.5Z" fill="white"/>
<path d="M9 341.5H329C333.694 341.5 337.5 345.306 337.5 350C337.5 354.694 333.694 358.5 329 358.5H9C4.30558 358.5 0.5 354.694 0.5 350C0.500002 345.306 4.30558 341.5 9 341.5Z" stroke="#CCCCCC"/>
<path d="M7.86805e-07 350C3.52265e-07 345.029 4.02944 341 9 341L39 341C43.9706 341 48 345.029 48 350C48 354.971 43.9706 359 39 359L9 359C4.02944 359 1.22135e-06 354.971 7.86805e-07 350Z" fill="#FF1934"/>
<path d="M15.448 346.688H16.264L16.816 348.6L17.456 350.92C17.5893 350.179 17.7547 349.403 17.952 348.592L18.44 346.608H19.464L18.088 352H16.92L16.432 350.296C16.2987 349.843 16.184 349.443 16.088 349.096C15.9973 348.749 15.936 348.517 15.904 348.4L15.864 348.216C15.7893 348.589 15.6027 349.283 15.304 350.296L14.8 352H13.64L12.2 346.608H13.264L13.768 348.6C13.8533 348.957 13.9387 349.328 14.024 349.712C14.1093 350.096 14.1733 350.389 14.216 350.592L14.28 350.904C14.4507 350.232 14.6587 349.464 14.904 348.6L15.448 346.688ZM22.2561 350.256H21.7601C21.5094 350.256 21.3174 350.309 21.1841 350.416C21.0507 350.517 20.9841 350.648 20.9841 350.808C20.9841 351.149 21.1814 351.32 21.5761 351.32C21.7894 351.32 21.9547 351.259 22.0721 351.136C22.1947 351.008 22.2561 350.843 22.2561 350.64V350.256ZM20.2881 349.04V348.152C20.5921 347.965 21.0294 347.872 21.6001 347.872C22.6987 347.872 23.2481 348.384 23.2481 349.408V352H22.2961V351.512C22.1094 351.859 21.7574 352.032 21.2401 352.032C20.8561 352.032 20.5494 351.92 20.3201 351.696C20.0961 351.472 19.9841 351.189 19.9841 350.848C19.9841 350.464 20.1281 350.163 20.4161 349.944C20.7041 349.725 21.1201 349.616 21.6641 349.616H22.2561V349.368C22.2561 349.144 22.1974 348.973 22.0801 348.856C21.9627 348.739 21.7627 348.68 21.4801 348.68C21.0481 348.68 20.6507 348.8 20.2881 349.04ZM27.7828 352H26.6548L25.1988 349.904V352H24.2388V346.44H25.1988V349.848L26.6308 347.944H27.7508L26.2628 349.88L27.7828 352ZM29.5864 348.664V350.728C29.5864 350.899 29.6318 351.029 29.7224 351.12C29.8131 351.205 29.9384 351.248 30.0984 351.248C30.3011 351.248 30.4878 351.192 30.6584 351.08V351.904C30.4718 351.995 30.2318 352.04 29.9384 352.04C29.0638 352.04 28.6264 351.597 28.6264 350.712V348.664H28.0184V347.944H28.6264V346.968H29.5864V347.944H30.5944V348.664H29.5864ZM33.9617 347.944H34.9297V352H33.9617V351.336C33.7484 351.805 33.3324 352.04 32.7137 352.04C32.303 352.04 31.983 351.923 31.7537 351.688C31.5244 351.453 31.4097 351.12 31.4097 350.688V347.944H32.3697V350.464C32.3697 350.72 32.431 350.915 32.5537 351.048C32.6817 351.181 32.855 351.248 33.0737 351.248C33.351 351.248 33.567 351.155 33.7217 350.968C33.8817 350.781 33.9617 350.499 33.9617 350.12V347.944Z" fill="white"/>
<rect x="56" y="348" width="274" height="4" rx="2" fill="#CCCCCC"/>
<mask id="mask0_1124_4113" style="mask-type:alpha" maskUnits="userSpaceOnUse" x="56" y="348" width="274" height="4">
<rect x="56" y="348" width="274" height="4" rx="2" fill="#CCCCCC"/>
</mask>
<g mask="url(#mask0_1124_4113)">
<rect x="56" y="348" width="274" height="4" rx="2" fill="#FF1934"/>
</g>
<defs>
<filter id="filter0_d_1124_4113" x="22.5" y="14" width="293" height="56" filterUnits="userSpaceOnUse" color-interpolation-filters="sRGB">
<feFlood flood-opacity="0" result="BackgroundImageFix"/>
<feColorMatrix in="SourceAlpha" type="matrix" values="0 0 0 0 0 0 0 0 0 0 0 0 0 0 0 0 0 0 127 0" result="hardAlpha"/>
<feOffset dy="2"/>
<feGaussianBlur stdDeviation="2"/>
<feComposite in2="hardAlpha" operator="out"/>
<feColorMatrix type="matrix" values="0 0 0 0 0.168627 0 0 0 0 0.168627 0 0 0 0 0.168627 0 0 0 0.24 0"/>
<feBlend mode="normal" in2="BackgroundImageFix" result="effect1_dropShadow_1124_4113"/>
<feBlend mode="normal" in="SourceGraphic" in2="effect1_dropShadow_1124_4113" result="shape"/>
</filter>
<clipPath id="clip0_1124_4113">
<rect width="24" height="24" fill="white" transform="translate(42.5 32)"/>
</clipPath>
<clipPath id="clip1_1124_4113">
<rect width="104" height="152" fill="white" transform="translate(191.5 118)"/>
</clipPath>
<clipPath id="clip2_1124_4113">
<rect width="23.33" height="24" fill="white" transform="translate(230 182.5) rotate(90)"/>
</clipPath>
</defs>
</svg>
