<svg width="338" height="375" viewBox="0 0 338 375" fill="none" xmlns="http://www.w3.org/2000/svg">
<rect width="338" height="375" fill="#D3D3D3"/>
<rect x="26.5" y="16" width="285" height="294" rx="16" fill="white"/>
<g filter="url(#filter0_d_1124_4113)">
<path d="M26.5 32C26.5 23.1634 33.6634 16 42.5 16H295.5C304.337 16 311.5 23.1634 311.5 32V64H26.5V32Z" fill="#FF1934" shape-rendering="crispEdges"/>
<g clip-path="url(#clip0_1124_4113)">
<path d="M54.5 34C48.99 34 44.5 38.49 44.5 44C44.5 46.27 45.24 48.41 46.64 50.18C46.91 50.53 47.42 50.59 47.76 50.31C48.11 50.04 48.17 49.53 47.89 49.19C46.71 47.7 46.09 45.9 46.09 44C46.1 39.37 49.87 35.6 54.5 35.6C59.13 35.6 62.9 39.37 62.9 44C62.9 48.63 59.13 52.4 54.5 52.4C52.82 52.4 51.19 51.9 49.8 50.97C49.43 50.72 48.94 50.82 48.69 51.18C48.44 51.54 48.54 52.04 48.9 52.29C50.56 53.41 52.49 54 54.49 54C60 54 64.49 49.51 64.49 44C64.49 38.49 60.01 34 54.5 34Z" fill="white"/>
<path d="M58.2402 38.14C57.8702 37.9 57.3702 38.01 57.1302 38.38L53.8202 43.57C53.7402 43.7 53.7002 43.85 53.7002 44V48C53.7002 48.44 54.0602 48.8 54.5002 48.8C54.9402 48.8 55.3002 48.44 55.3002 48V44.23L58.4902 39.24C58.7302 38.87 58.6202 38.37 58.2502 38.13L58.2402 38.14Z" fill="white"/>
</g>
<path d="M77.566 46.11H81.052V48H75.41V38.564H77.566V46.11ZM82.2459 48V40.902H84.2899V48H82.2459ZM82.4279 39.684C82.1946 39.4507 82.0779 39.1707 82.0779 38.844C82.0779 38.5173 82.1946 38.2373 82.4279 38.004C82.6613 37.7707 82.9413 37.654 83.2679 37.654C83.5946 37.654 83.8746 37.7707 84.1079 38.004C84.3413 38.2373 84.4579 38.5173 84.4579 38.844C84.4579 39.1707 84.3413 39.4507 84.1079 39.684C83.8746 39.9173 83.5946 40.034 83.2679 40.034C82.9413 40.034 82.6613 39.9173 82.4279 39.684ZM88.0891 40.902V42.106C88.2664 41.714 88.5371 41.406 88.9011 41.182C89.2744 40.9487 89.7177 40.832 90.2311 40.832C90.9591 40.832 91.5284 41.0513 91.9391 41.49C92.3497 41.9193 92.5551 42.554 92.5551 43.394V48H90.5111V43.772C90.5111 43.352 90.4131 43.0347 90.2171 42.82C90.0211 42.596 89.7457 42.484 89.3911 42.484C89.0177 42.484 88.7051 42.6333 88.4531 42.932C88.2104 43.2213 88.0891 43.66 88.0891 44.248V48H86.0451V40.902H88.0891ZM94.2362 48V40.902H96.2802V48H94.2362ZM94.4182 39.684C94.1848 39.4507 94.0682 39.1707 94.0682 38.844C94.0682 38.5173 94.1848 38.2373 94.4182 38.004C94.6515 37.7707 94.9315 37.654 95.2582 37.654C95.5848 37.654 95.8648 37.7707 96.0982 38.004C96.3315 38.2373 96.4482 38.5173 96.4482 38.844C96.4482 39.1707 96.3315 39.4507 96.0982 39.684C95.8648 39.9173 95.5848 40.034 95.2582 40.034C94.9315 40.034 94.6515 39.9173 94.4182 39.684ZM101.395 48L102.207 38.564H104.573L105.889 41.98C106.113 42.5493 106.305 43.072 106.463 43.548C106.622 44.024 106.725 44.36 106.771 44.556L106.841 44.836C106.991 44.22 107.317 43.268 107.821 41.98L109.151 38.564H111.517L112.497 48H110.341L109.991 44.346L109.809 41.588C109.567 42.288 109.231 43.2073 108.801 44.346L107.471 47.902H106.197L104.881 44.346C104.667 43.7673 104.485 43.2493 104.335 42.792C104.186 42.3347 104.088 42.0173 104.041 41.84L103.971 41.588C103.971 42.2507 103.929 43.17 103.845 44.346L103.551 48H101.395ZM117.545 45.088H116.887C116.542 45.088 116.276 45.1627 116.089 45.312C115.903 45.4613 115.809 45.6527 115.809 45.886C115.809 46.362 116.085 46.6 116.635 46.6C116.925 46.6 117.149 46.5113 117.307 46.334C117.466 46.1567 117.545 45.914 117.545 45.606V45.088ZM114.227 43.086V41.252C114.787 40.9347 115.595 40.776 116.649 40.776C117.657 40.776 118.409 40.9953 118.903 41.434C119.398 41.8633 119.645 42.5353 119.645 43.45V48H117.643V47.132C117.345 47.7387 116.757 48.042 115.879 48.042C115.189 48.042 114.647 47.846 114.255 47.454C113.873 47.062 113.681 46.572 113.681 45.984C113.681 45.3027 113.929 44.7753 114.423 44.402C114.927 44.0193 115.669 43.828 116.649 43.828H117.545V43.338C117.545 42.7407 117.149 42.442 116.355 42.442C115.59 42.442 114.881 42.6567 114.227 43.086ZM125.73 41.112V42.862C125.235 42.5727 124.657 42.428 123.994 42.428C123.751 42.428 123.565 42.4793 123.434 42.582C123.303 42.6753 123.238 42.7967 123.238 42.946C123.238 43.03 123.261 43.1093 123.308 43.184C123.355 43.2587 123.429 43.3287 123.532 43.394C123.644 43.4593 123.747 43.52 123.84 43.576C123.943 43.6227 124.078 43.6833 124.246 43.758C124.423 43.8327 124.563 43.898 124.666 43.954C125.095 44.178 125.441 44.4393 125.702 44.738C125.963 45.0273 126.094 45.4007 126.094 45.858C126.094 46.558 125.842 47.0993 125.338 47.482C124.834 47.8647 124.167 48.056 123.336 48.056C122.477 48.056 121.759 47.9113 121.18 47.622V45.802C121.824 46.25 122.505 46.474 123.224 46.474C123.737 46.474 123.994 46.3107 123.994 45.984C123.994 45.9 123.971 45.8207 123.924 45.746C123.877 45.6713 123.798 45.6013 123.686 45.536C123.574 45.4707 123.471 45.4193 123.378 45.382C123.285 45.3353 123.149 45.2747 122.972 45.2C122.795 45.1253 122.659 45.0647 122.566 45.018C121.623 44.57 121.152 43.898 121.152 43.002C121.152 42.3113 121.413 41.7747 121.936 41.392C122.468 41.0093 123.126 40.818 123.91 40.818C124.638 40.818 125.245 40.916 125.73 41.112ZM130.862 45.088H130.204C129.858 45.088 129.592 45.1627 129.406 45.312C129.219 45.4613 129.126 45.6527 129.126 45.886C129.126 46.362 129.401 46.6 129.952 46.6C130.241 46.6 130.465 46.5113 130.624 46.334C130.782 46.1567 130.862 45.914 130.862 45.606V45.088ZM127.544 43.086V41.252C128.104 40.9347 128.911 40.776 129.966 40.776C130.974 40.776 131.725 40.9953 132.22 41.434C132.714 41.8633 132.962 42.5353 132.962 43.45V48H130.96V47.132C130.661 47.7387 130.073 48.042 129.196 48.042C128.505 48.042 127.964 47.846 127.572 47.454C127.189 47.062 126.998 46.572 126.998 45.984C126.998 45.3027 127.245 44.7753 127.74 44.402C128.244 44.0193 128.986 43.828 129.966 43.828H130.862V43.338C130.862 42.7407 130.465 42.442 129.672 42.442C128.906 42.442 128.197 42.6567 127.544 43.086Z" fill="white"/>
</g>
<g clip-path="url(#clip1_1124_4113)">
<path d="M183.374 93.9959L176.976 97.5183L181.54 99.5154L163.14 110.07L174.596 98.2819L170.456 97.657L176.457 89.2746L175.848 82.6079L158.744 84.1699L159.664 94.2461L149.588 95.1668L151.15 112.271L161.118 111.171V121.29H178.293V111.171H188.412V93.9959H183.374Z" fill="#FF1934"/>
<path d="M184.308 126.078L177.493 126.505L182.355 126.748L162.759 128.03L174.959 126.599L170.551 126.522L176.942 125.505L176.293 124.695L158.079 124.885L159.059 126.108L148.328 126.22L149.991 128.297L160.607 128.163V129.392H178.897V128.163H189.672V126.078H184.308Z" fill="#CCCCCC"/>
</g>
<path d="M76.5325 148.49H78.6925L78.5825 148.15C78.3292 147.363 78.1225 146.713 77.9625 146.2C77.8025 145.68 77.7058 145.357 77.6725 145.23L77.6225 145.04C77.5492 145.353 77.2225 146.39 76.6425 148.15L76.5325 148.49ZM79.5025 151L78.9725 149.35H76.2525L75.7125 151H74.6225L76.9525 144.26H78.3025L80.6025 151H79.5025ZM82.5841 145.93V146.8C82.8841 146.173 83.4107 145.86 84.1641 145.86C84.6641 145.86 85.0607 146.013 85.3541 146.32C85.6474 146.627 85.7941 147.043 85.7941 147.57V151H84.8141V147.8C84.8141 147.447 84.7241 147.177 84.5441 146.99C84.3707 146.803 84.1374 146.71 83.8441 146.71C83.4974 146.71 83.2007 146.847 82.9541 147.12C82.7074 147.387 82.5841 147.763 82.5841 148.25V151H81.6041V145.93H82.5841ZM89.1619 150.21C89.5485 150.21 89.8752 150.063 90.1419 149.77C90.4085 149.477 90.5419 149.03 90.5419 148.43C90.5419 147.85 90.4019 147.42 90.1219 147.14C89.8485 146.86 89.5385 146.72 89.1919 146.72C88.7985 146.72 88.4752 146.877 88.2219 147.19C87.9685 147.497 87.8419 147.937 87.8419 148.51C87.8419 149.017 87.9652 149.427 88.2119 149.74C88.4652 150.053 88.7819 150.21 89.1619 150.21ZM90.5419 143.93H91.5319V151H90.5419V150.23C90.1885 150.79 89.6719 151.07 88.9919 151.07C88.3252 151.07 87.7985 150.82 87.4119 150.32C87.0252 149.813 86.8319 149.203 86.8319 148.49C86.8319 147.697 87.0352 147.06 87.4419 146.58C87.8485 146.1 88.3719 145.86 89.0119 145.86C89.6719 145.86 90.1819 146.14 90.5419 146.7V143.93ZM95.5827 148.74H94.8227C94.4493 148.74 94.166 148.813 93.9727 148.96C93.786 149.107 93.6927 149.293 93.6927 149.52C93.6927 149.753 93.766 149.937 93.9127 150.07C94.0593 150.203 94.2727 150.27 94.5527 150.27C94.8727 150.27 95.1227 150.183 95.3027 150.01C95.4893 149.83 95.5827 149.597 95.5827 149.31V148.74ZM93.0327 147.14V146.19C93.426 145.963 93.946 145.85 94.5927 145.85C95.9193 145.85 96.5827 146.493 96.5827 147.78V151H95.6127V150.4C95.3527 150.827 94.896 151.04 94.2427 151.04C93.7627 151.04 93.376 150.903 93.0827 150.63C92.796 150.35 92.6527 149.997 92.6527 149.57C92.6527 149.083 92.836 148.707 93.2027 148.44C93.5693 148.167 94.0827 148.03 94.7427 148.03H95.5827V147.74C95.5827 147.393 95.4993 147.133 95.3327 146.96C95.166 146.78 94.8893 146.69 94.5027 146.69C93.9627 146.69 93.4727 146.84 93.0327 147.14ZM101.344 145.93V146.74C101.63 146.153 102.107 145.86 102.774 145.86C103.534 145.86 104.02 146.187 104.234 146.84C104.374 146.527 104.577 146.287 104.844 146.12C105.11 145.947 105.41 145.86 105.744 145.86C106.264 145.86 106.657 146.013 106.924 146.32C107.197 146.627 107.334 147.05 107.334 147.59V151H106.354V147.8C106.354 147.073 106.06 146.71 105.474 146.71C105.18 146.71 104.917 146.84 104.684 147.1C104.457 147.36 104.344 147.743 104.344 148.25V151H103.364V147.8C103.364 147.073 103.067 146.71 102.474 146.71C102.187 146.71 101.927 146.84 101.694 147.1C101.46 147.36 101.344 147.743 101.344 148.25V151H100.364V145.93H101.344ZM111.815 148.1V147.92C111.801 147.54 111.698 147.24 111.505 147.02C111.311 146.793 111.035 146.68 110.675 146.68C110.341 146.68 110.055 146.803 109.815 147.05C109.575 147.29 109.425 147.64 109.365 148.1H111.815ZM112.445 149.85V150.73C112.071 150.943 111.578 151.05 110.965 151.05C110.178 151.05 109.551 150.813 109.085 150.34C108.618 149.867 108.385 149.247 108.385 148.48C108.385 147.667 108.598 147.03 109.025 146.57C109.451 146.103 109.995 145.87 110.655 145.87C111.301 145.87 111.815 146.073 112.195 146.48C112.575 146.88 112.765 147.46 112.765 148.22C112.765 148.427 112.745 148.643 112.705 148.87H109.375C109.441 149.31 109.628 149.647 109.935 149.88C110.241 150.113 110.628 150.23 111.095 150.23C111.635 150.23 112.085 150.103 112.445 149.85ZM114.899 145.93V146.8C115.199 146.173 115.725 145.86 116.479 145.86C116.979 145.86 117.375 146.013 117.669 146.32C117.962 146.627 118.109 147.043 118.109 147.57V151H117.129V147.8C117.129 147.447 117.039 147.177 116.859 146.99C116.685 146.803 116.452 146.71 116.159 146.71C115.812 146.71 115.515 146.847 115.269 147.12C115.022 147.387 114.899 147.763 114.899 148.25V151H113.919V145.93H114.899ZM121.426 150.02C121.773 150.02 122.073 149.887 122.326 149.62C122.586 149.347 122.716 148.967 122.716 148.48C122.716 147.88 122.593 147.437 122.346 147.15C122.106 146.863 121.813 146.72 121.466 146.72C121.073 146.72 120.763 146.877 120.536 147.19C120.31 147.497 120.196 147.903 120.196 148.41C120.196 148.937 120.316 149.337 120.556 149.61C120.803 149.883 121.093 150.02 121.426 150.02ZM122.716 145.93H123.696V150.57C123.696 151.35 123.473 151.937 123.026 152.33C122.586 152.73 122.02 152.93 121.326 152.93C120.673 152.93 120.123 152.82 119.676 152.6V151.61C120.103 151.89 120.62 152.03 121.226 152.03C122.22 152.03 122.716 151.54 122.716 150.56V150.04C122.39 150.587 121.9 150.86 121.246 150.86C120.673 150.86 120.183 150.65 119.776 150.23C119.37 149.803 119.166 149.203 119.166 148.43C119.166 147.683 119.356 147.07 119.736 146.59C120.116 146.103 120.62 145.86 121.246 145.86C121.92 145.86 122.41 146.147 122.716 146.72V145.93ZM127.682 148.74H126.922C126.549 148.74 126.266 148.813 126.072 148.96C125.886 149.107 125.792 149.293 125.792 149.52C125.792 149.753 125.866 149.937 126.012 150.07C126.159 150.203 126.372 150.27 126.652 150.27C126.972 150.27 127.222 150.183 127.402 150.01C127.589 149.83 127.682 149.597 127.682 149.31V148.74ZM125.132 147.14V146.19C125.526 145.963 126.046 145.85 126.692 145.85C128.019 145.85 128.682 146.493 128.682 147.78V151H127.712V150.4C127.452 150.827 126.996 151.04 126.342 151.04C125.862 151.04 125.476 150.903 125.182 150.63C124.896 150.35 124.752 149.997 124.752 149.57C124.752 149.083 124.936 148.707 125.302 148.44C125.669 148.167 126.182 148.03 126.842 148.03H127.682V147.74C127.682 147.393 127.599 147.133 127.432 146.96C127.266 146.78 126.989 146.69 126.602 146.69C126.062 146.69 125.572 146.84 125.132 147.14ZM130.043 151V143.93H131.033V151H130.043ZM135.124 148.74H134.364C133.99 148.74 133.707 148.813 133.514 148.96C133.327 149.107 133.234 149.293 133.234 149.52C133.234 149.753 133.307 149.937 133.454 150.07C133.6 150.203 133.814 150.27 134.094 150.27C134.414 150.27 134.664 150.183 134.844 150.01C135.03 149.83 135.124 149.597 135.124 149.31V148.74ZM132.574 147.14V146.19C132.967 145.963 133.487 145.85 134.134 145.85C135.46 145.85 136.124 146.493 136.124 147.78V151H135.154V150.4C134.894 150.827 134.437 151.04 133.784 151.04C133.304 151.04 132.917 150.903 132.624 150.63C132.337 150.35 132.194 149.997 132.194 149.57C132.194 149.083 132.377 148.707 132.744 148.44C133.11 148.167 133.624 148.03 134.284 148.03H135.124V147.74C135.124 147.393 135.04 147.133 134.874 146.96C134.707 146.78 134.43 146.69 134.044 146.69C133.504 146.69 133.014 146.84 132.574 147.14ZM138.424 145.93V146.74C138.711 146.153 139.187 145.86 139.854 145.86C140.614 145.86 141.101 146.187 141.314 146.84C141.454 146.527 141.657 146.287 141.924 146.12C142.191 145.947 142.491 145.86 142.824 145.86C143.344 145.86 143.737 146.013 144.004 146.32C144.277 146.627 144.414 147.05 144.414 147.59V151H143.434V147.8C143.434 147.073 143.141 146.71 142.554 146.71C142.261 146.71 141.997 146.84 141.764 147.1C141.537 147.36 141.424 147.743 141.424 148.25V151H140.444V147.8C140.444 147.073 140.147 146.71 139.554 146.71C139.267 146.71 139.007 146.84 138.774 147.1C138.541 147.36 138.424 147.743 138.424 148.25V151H137.444V145.93H138.424ZM145.785 151V145.93H146.775V151H145.785ZM145.835 144.82C145.721 144.7 145.665 144.553 145.665 144.38C145.665 144.207 145.721 144.06 145.835 143.94C145.955 143.82 146.101 143.76 146.275 143.76C146.448 143.76 146.595 143.82 146.715 143.94C146.835 144.06 146.895 144.207 146.895 144.38C146.895 144.547 146.835 144.69 146.715 144.81C146.595 144.93 146.448 144.99 146.275 144.99C146.101 144.99 145.955 144.933 145.835 144.82ZM153.547 146.1V146.99C153.22 146.797 152.8 146.7 152.287 146.7C152.053 146.7 151.867 146.753 151.727 146.86C151.593 146.967 151.527 147.107 151.527 147.28C151.527 147.327 151.53 147.373 151.537 147.42C151.55 147.46 151.57 147.503 151.597 147.55C151.623 147.59 151.647 147.627 151.667 147.66C151.693 147.687 151.733 147.717 151.787 147.75C151.84 147.783 151.88 147.813 151.907 147.84C151.94 147.86 151.99 147.887 152.057 147.92C152.13 147.953 152.183 147.98 152.217 148C152.25 148.013 152.307 148.04 152.387 148.08C152.473 148.113 152.533 148.137 152.567 148.15C152.96 148.323 153.267 148.52 153.487 148.74C153.713 148.953 153.827 149.24 153.827 149.6C153.827 150.053 153.667 150.41 153.347 150.67C153.027 150.923 152.593 151.05 152.047 151.05C151.447 151.05 150.947 150.95 150.547 150.75V149.82C151.013 150.107 151.497 150.25 151.997 150.25C152.257 150.25 152.457 150.197 152.597 150.09C152.743 149.983 152.817 149.843 152.817 149.67C152.817 149.523 152.76 149.393 152.647 149.28C152.533 149.16 152.417 149.073 152.297 149.02C152.183 148.96 151.987 148.87 151.707 148.75C150.913 148.423 150.517 147.943 150.517 147.31C150.517 146.863 150.683 146.513 151.017 146.26C151.35 146.007 151.767 145.88 152.267 145.88C152.813 145.88 153.24 145.953 153.547 146.1ZM157.516 148.74H156.756C156.383 148.74 156.1 148.813 155.906 148.96C155.72 149.107 155.626 149.293 155.626 149.52C155.626 149.753 155.7 149.937 155.846 150.07C155.993 150.203 156.206 150.27 156.486 150.27C156.806 150.27 157.056 150.183 157.236 150.01C157.423 149.83 157.516 149.597 157.516 149.31V148.74ZM154.966 147.14V146.19C155.36 145.963 155.88 145.85 156.526 145.85C157.853 145.85 158.516 146.493 158.516 147.78V151H157.546V150.4C157.286 150.827 156.83 151.04 156.176 151.04C155.696 151.04 155.31 150.903 155.016 150.63C154.73 150.35 154.586 149.997 154.586 149.57C154.586 149.083 154.77 148.707 155.136 148.44C155.503 148.167 156.016 148.03 156.676 148.03H157.516V147.74C157.516 147.393 157.433 147.133 157.266 146.96C157.1 146.78 156.823 146.69 156.436 146.69C155.896 146.69 155.406 146.84 154.966 147.14ZM159.836 151V144H160.816V151H159.836ZM161.986 148.35L163.976 151H162.806L160.856 148.35L162.766 145.93H163.916L161.986 148.35ZM164.876 151V145.93H165.866V151H164.876ZM164.926 144.82C164.813 144.7 164.756 144.553 164.756 144.38C164.756 144.207 164.813 144.06 164.926 143.94C165.046 143.82 165.193 143.76 165.366 143.76C165.54 143.76 165.686 143.82 165.806 143.94C165.926 144.06 165.986 144.207 165.986 144.38C165.986 144.547 165.926 144.69 165.806 144.81C165.686 144.93 165.54 144.99 165.366 144.99C165.193 144.99 165.046 144.933 164.926 144.82ZM168.558 146.69V149.48C168.558 149.967 168.791 150.21 169.258 150.21C169.531 150.21 169.761 150.137 169.948 149.99V150.87C169.728 150.99 169.458 151.05 169.138 151.05C168.091 151.05 167.568 150.52 167.568 149.46V146.69H166.778V145.93H167.568V144.69H168.558V145.93H169.888V146.69H168.558ZM175.539 150.21C175.925 150.21 176.252 150.063 176.519 149.77C176.785 149.477 176.919 149.03 176.919 148.43C176.919 147.85 176.779 147.42 176.499 147.14C176.225 146.86 175.915 146.72 175.569 146.72C175.175 146.72 174.852 146.877 174.599 147.19C174.345 147.497 174.219 147.937 174.219 148.51C174.219 149.017 174.342 149.427 174.589 149.74C174.842 150.053 175.159 150.21 175.539 150.21ZM176.919 143.93H177.909V151H176.919V150.23C176.565 150.79 176.049 151.07 175.369 151.07C174.702 151.07 174.175 150.82 173.789 150.32C173.402 149.813 173.209 149.203 173.209 148.49C173.209 147.697 173.412 147.06 173.819 146.58C174.225 146.1 174.749 145.86 175.389 145.86C176.049 145.86 176.559 146.14 176.919 146.7V143.93ZM181.96 148.74H181.2C180.826 148.74 180.543 148.813 180.35 148.96C180.163 149.107 180.07 149.293 180.07 149.52C180.07 149.753 180.143 149.937 180.29 150.07C180.436 150.203 180.65 150.27 180.93 150.27C181.25 150.27 181.5 150.183 181.68 150.01C181.866 149.83 181.96 149.597 181.96 149.31V148.74ZM179.41 147.14V146.19C179.803 145.963 180.323 145.85 180.97 145.85C182.296 145.85 182.96 146.493 182.96 147.78V151H181.99V150.4C181.73 150.827 181.273 151.04 180.62 151.04C180.14 151.04 179.753 150.903 179.46 150.63C179.173 150.35 179.03 149.997 179.03 149.57C179.03 149.083 179.213 148.707 179.58 148.44C179.946 148.167 180.46 148.03 181.12 148.03H181.96V147.74C181.96 147.393 181.876 147.133 181.71 146.96C181.543 146.78 181.266 146.69 180.88 146.69C180.34 146.69 179.85 146.84 179.41 147.14ZM185.26 145.93V146.8C185.56 146.173 186.087 145.86 186.84 145.86C187.34 145.86 187.737 146.013 188.03 146.32C188.323 146.627 188.47 147.043 188.47 147.57V151H187.49V147.8C187.49 147.447 187.4 147.177 187.22 146.99C187.047 146.803 186.813 146.71 186.52 146.71C186.173 146.71 185.877 146.847 185.63 147.12C185.383 147.387 185.26 147.763 185.26 148.25V151H184.28V145.93H185.26ZM193.229 143.93V146.8C193.515 146.173 194.039 145.86 194.799 145.86C195.292 145.86 195.689 146.013 195.989 146.32C196.289 146.627 196.439 147.053 196.439 147.6V151H195.459V147.8C195.459 147.453 195.369 147.187 195.189 147C195.015 146.807 194.785 146.71 194.499 146.71C194.165 146.71 193.869 146.837 193.609 147.09C193.355 147.343 193.229 147.73 193.229 148.25V151H192.249V143.93H193.229ZM200.426 148.74H199.666C199.293 148.74 199.01 148.813 198.816 148.96C198.63 149.107 198.536 149.293 198.536 149.52C198.536 149.753 198.61 149.937 198.756 150.07C198.903 150.203 199.116 150.27 199.396 150.27C199.716 150.27 199.966 150.183 200.146 150.01C200.333 149.83 200.426 149.597 200.426 149.31V148.74ZM197.876 147.14V146.19C198.27 145.963 198.79 145.85 199.436 145.85C200.763 145.85 201.426 146.493 201.426 147.78V151H200.456V150.4C200.196 150.827 199.74 151.04 199.086 151.04C198.606 151.04 198.22 150.903 197.926 150.63C197.64 150.35 197.496 149.997 197.496 149.57C197.496 149.083 197.68 148.707 198.046 148.44C198.413 148.167 198.926 148.03 199.586 148.03H200.426V147.74C200.426 147.393 200.343 147.133 200.176 146.96C200.01 146.78 199.733 146.69 199.346 146.69C198.806 146.69 198.316 146.84 197.876 147.14ZM203.727 145.93V146.82C203.973 146.193 204.417 145.88 205.057 145.88C205.15 145.88 205.253 145.89 205.367 145.91V146.87C205.227 146.81 205.07 146.78 204.897 146.78C204.557 146.78 204.277 146.93 204.057 147.23C203.837 147.53 203.727 147.887 203.727 148.3V151H202.747V145.93H203.727ZM209.285 145.93H210.265V151H209.285V150.13C209.019 150.75 208.492 151.06 207.705 151.06C207.205 151.06 206.809 150.913 206.515 150.62C206.222 150.32 206.075 149.91 206.075 149.39V145.93H207.065V149.15C207.065 149.497 207.149 149.763 207.315 149.95C207.489 150.13 207.725 150.22 208.025 150.22C208.405 150.22 208.709 150.087 208.935 149.82C209.169 149.553 209.285 149.177 209.285 148.69V145.93ZM214.533 146.1V146.99C214.206 146.797 213.786 146.7 213.273 146.7C213.04 146.7 212.853 146.753 212.713 146.86C212.58 146.967 212.513 147.107 212.513 147.28C212.513 147.327 212.516 147.373 212.523 147.42C212.536 147.46 212.556 147.503 212.583 147.55C212.61 147.59 212.633 147.627 212.653 147.66C212.68 147.687 212.72 147.717 212.773 147.75C212.826 147.783 212.866 147.813 212.893 147.84C212.926 147.86 212.976 147.887 213.043 147.92C213.116 147.953 213.17 147.98 213.203 148C213.236 148.013 213.293 148.04 213.373 148.08C213.46 148.113 213.52 148.137 213.553 148.15C213.946 148.323 214.253 148.52 214.473 148.74C214.7 148.953 214.813 149.24 214.813 149.6C214.813 150.053 214.653 150.41 214.333 150.67C214.013 150.923 213.58 151.05 213.033 151.05C212.433 151.05 211.933 150.95 211.533 150.75V149.82C212 150.107 212.483 150.25 212.983 150.25C213.243 150.25 213.443 150.197 213.583 150.09C213.73 149.983 213.803 149.843 213.803 149.67C213.803 149.523 213.746 149.393 213.633 149.28C213.52 149.16 213.403 149.073 213.283 149.02C213.17 148.96 212.973 148.87 212.693 148.75C211.9 148.423 211.503 147.943 211.503 147.31C211.503 146.863 211.67 146.513 212.003 146.26C212.336 146.007 212.753 145.88 213.253 145.88C213.8 145.88 214.226 145.953 214.533 146.1ZM219.274 145.93V146.74C219.56 146.153 220.037 145.86 220.704 145.86C221.464 145.86 221.95 146.187 222.164 146.84C222.304 146.527 222.507 146.287 222.774 146.12C223.04 145.947 223.34 145.86 223.674 145.86C224.194 145.86 224.587 146.013 224.854 146.32C225.127 146.627 225.264 147.05 225.264 147.59V151H224.284V147.8C224.284 147.073 223.99 146.71 223.404 146.71C223.11 146.71 222.847 146.84 222.614 147.1C222.387 147.36 222.274 147.743 222.274 148.25V151H221.294V147.8C221.294 147.073 220.997 146.71 220.404 146.71C220.117 146.71 219.857 146.84 219.624 147.1C219.39 147.36 219.274 147.743 219.274 148.25V151H218.294V145.93H219.274ZM229.744 148.1V147.92C229.731 147.54 229.628 147.24 229.434 147.02C229.241 146.793 228.964 146.68 228.604 146.68C228.271 146.68 227.984 146.803 227.744 147.05C227.504 147.29 227.354 147.64 227.294 148.1H229.744ZM230.374 149.85V150.73C230.001 150.943 229.508 151.05 228.894 151.05C228.108 151.05 227.481 150.813 227.014 150.34C226.548 149.867 226.314 149.247 226.314 148.48C226.314 147.667 226.528 147.03 226.954 146.57C227.381 146.103 227.924 145.87 228.584 145.87C229.231 145.87 229.744 146.073 230.124 146.48C230.504 146.88 230.694 147.46 230.694 148.22C230.694 148.427 230.674 148.643 230.634 148.87H227.304C227.371 149.31 227.558 149.647 227.864 149.88C228.171 150.113 228.558 150.23 229.024 150.23C229.564 150.23 230.014 150.103 230.374 149.85ZM232.828 145.93V146.74C233.115 146.153 233.592 145.86 234.258 145.86C235.018 145.86 235.505 146.187 235.718 146.84C235.858 146.527 236.062 146.287 236.328 146.12C236.595 145.947 236.895 145.86 237.228 145.86C237.748 145.86 238.142 146.013 238.408 146.32C238.682 146.627 238.818 147.05 238.818 147.59V151H237.838V147.8C237.838 147.073 237.545 146.71 236.958 146.71C236.665 146.71 236.402 146.84 236.168 147.1C235.942 147.36 235.828 147.743 235.828 148.25V151H234.848V147.8C234.848 147.073 234.552 146.71 233.958 146.71C233.672 146.71 233.412 146.84 233.178 147.1C232.945 147.36 232.828 147.743 232.828 148.25V151H231.848V145.93H232.828ZM242.539 150.21C242.912 150.21 243.226 150.053 243.479 149.74C243.732 149.42 243.859 149.01 243.859 148.51C243.859 147.937 243.732 147.497 243.479 147.19C243.226 146.877 242.902 146.72 242.509 146.72C242.162 146.72 241.849 146.86 241.569 147.14C241.296 147.42 241.159 147.85 241.159 148.43C241.159 149.03 241.292 149.477 241.559 149.77C241.826 150.063 242.152 150.21 242.539 150.21ZM241.159 143.93V146.7C241.519 146.14 242.029 145.86 242.689 145.86C243.329 145.86 243.852 146.1 244.259 146.58C244.666 147.06 244.869 147.697 244.869 148.49C244.869 149.203 244.676 149.813 244.289 150.32C243.902 150.82 243.372 151.07 242.699 151.07C242.026 151.07 241.512 150.79 241.159 150.23V151H240.169V143.93H241.159ZM248.639 148.74H247.879C247.506 148.74 247.223 148.813 247.029 148.96C246.843 149.107 246.749 149.293 246.749 149.52C246.749 149.753 246.823 149.937 246.969 150.07C247.116 150.203 247.329 150.27 247.609 150.27C247.929 150.27 248.179 150.183 248.359 150.01C248.546 149.83 248.639 149.597 248.639 149.31V148.74ZM246.089 147.14V146.19C246.483 145.963 247.003 145.85 247.649 145.85C248.976 145.85 249.639 146.493 249.639 147.78V151H248.669V150.4C248.409 150.827 247.953 151.04 247.299 151.04C246.819 151.04 246.433 150.903 246.139 150.63C245.853 150.35 245.709 149.997 245.709 149.57C245.709 149.083 245.893 148.707 246.259 148.44C246.626 148.167 247.139 148.03 247.799 148.03H248.639V147.74C248.639 147.393 248.556 147.133 248.389 146.96C248.223 146.78 247.946 146.69 247.559 146.69C247.019 146.69 246.529 146.84 246.089 147.14ZM252.36 150.89L250.34 145.93H251.43L252.06 147.58L252.85 149.72C252.91 149.52 253.15 148.807 253.57 147.58L254.14 145.93H255.18L253.35 150.86C252.863 152.16 252.12 152.81 251.12 152.81C250.94 152.81 250.786 152.793 250.66 152.76V151.92C250.766 151.947 250.88 151.96 251 151.96C251.646 151.96 252.1 151.603 252.36 150.89ZM258.669 148.74H257.909C257.535 148.74 257.252 148.813 257.059 148.96C256.872 149.107 256.779 149.293 256.779 149.52C256.779 149.753 256.852 149.937 256.999 150.07C257.145 150.203 257.359 150.27 257.639 150.27C257.959 150.27 258.209 150.183 258.389 150.01C258.575 149.83 258.669 149.597 258.669 149.31V148.74ZM256.119 147.14V146.19C256.512 145.963 257.032 145.85 257.679 145.85C259.005 145.85 259.669 146.493 259.669 147.78V151H258.699V150.4C258.439 150.827 257.982 151.04 257.329 151.04C256.849 151.04 256.462 150.903 256.169 150.63C255.882 150.35 255.739 149.997 255.739 149.57C255.739 149.083 255.922 148.707 256.289 148.44C256.655 148.167 257.169 148.03 257.829 148.03H258.669V147.74C258.669 147.393 258.585 147.133 258.419 146.96C258.252 146.78 257.975 146.69 257.589 146.69C257.049 146.69 256.559 146.84 256.119 147.14ZM261.969 145.93V146.82C262.215 146.193 262.659 145.88 263.299 145.88C263.392 145.88 263.495 145.89 263.609 145.91V146.87C263.469 146.81 263.312 146.78 263.139 146.78C262.799 146.78 262.519 146.93 262.299 147.23C262.079 147.53 261.969 147.887 261.969 148.3V151H260.989V145.93H261.969ZM86.4404 166.21C86.8137 166.21 87.127 166.053 87.3804 165.74C87.6337 165.42 87.7604 165.01 87.7604 164.51C87.7604 163.937 87.6337 163.497 87.3804 163.19C87.127 162.877 86.8037 162.72 86.4104 162.72C86.0637 162.72 85.7504 162.86 85.4704 163.14C85.197 163.42 85.0604 163.85 85.0604 164.43C85.0604 165.03 85.1937 165.477 85.4604 165.77C85.727 166.063 86.0537 166.21 86.4404 166.21ZM85.0604 159.93V162.7C85.4204 162.14 85.9304 161.86 86.5904 161.86C87.2304 161.86 87.7537 162.1 88.1604 162.58C88.567 163.06 88.7704 163.697 88.7704 164.49C88.7704 165.203 88.577 165.813 88.1904 166.32C87.8037 166.82 87.2737 167.07 86.6004 167.07C85.927 167.07 85.4137 166.79 85.0604 166.23V167H84.0704V159.93H85.0604ZM89.9107 167V161.93H90.9007V167H89.9107ZM89.9607 160.82C89.8473 160.7 89.7907 160.553 89.7907 160.38C89.7907 160.207 89.8473 160.06 89.9607 159.94C90.0807 159.82 90.2273 159.76 90.4007 159.76C90.574 159.76 90.7207 159.82 90.8407 159.94C90.9607 160.06 91.0207 160.207 91.0207 160.38C91.0207 160.547 90.9607 160.69 90.8407 160.81C90.7207 160.93 90.574 160.99 90.4007 160.99C90.2273 160.99 90.0807 160.933 89.9607 160.82ZM94.9918 164.74H94.2318C93.8585 164.74 93.5752 164.813 93.3818 164.96C93.1952 165.107 93.1018 165.293 93.1018 165.52C93.1018 165.753 93.1752 165.937 93.3218 166.07C93.4685 166.203 93.6818 166.27 93.9618 166.27C94.2818 166.27 94.5318 166.183 94.7118 166.01C94.8985 165.83 94.9918 165.597 94.9918 165.31V164.74ZM92.4418 163.14V162.19C92.8352 161.963 93.3552 161.85 94.0018 161.85C95.3285 161.85 95.9918 162.493 95.9918 163.78V167H95.0218V166.4C94.7618 166.827 94.3052 167.04 93.6518 167.04C93.1718 167.04 92.7852 166.903 92.4918 166.63C92.2052 166.35 92.0618 165.997 92.0618 165.57C92.0618 165.083 92.2452 164.707 92.6118 164.44C92.9785 164.167 93.4918 164.03 94.1518 164.03H94.9918V163.74C94.9918 163.393 94.9085 163.133 94.7418 162.96C94.5752 162.78 94.2985 162.69 93.9118 162.69C93.3718 162.69 92.8818 162.84 92.4418 163.14ZM98.7121 166.89L96.6921 161.93H97.7821L98.4121 163.58L99.2021 165.72C99.2621 165.52 99.5021 164.807 99.9221 163.58L100.492 161.93H101.532L99.7021 166.86C99.2154 168.16 98.4721 168.81 97.4721 168.81C97.2921 168.81 97.1387 168.793 97.0121 168.76V167.92C97.1187 167.947 97.2321 167.96 97.3521 167.96C97.9987 167.96 98.4521 167.603 98.7121 166.89ZM105.021 164.74H104.261C103.888 164.74 103.604 164.813 103.411 164.96C103.224 165.107 103.131 165.293 103.131 165.52C103.131 165.753 103.204 165.937 103.351 166.07C103.498 166.203 103.711 166.27 103.991 166.27C104.311 166.27 104.561 166.183 104.741 166.01C104.928 165.83 105.021 165.597 105.021 165.31V164.74ZM102.471 163.14V162.19C102.864 161.963 103.384 161.85 104.031 161.85C105.358 161.85 106.021 162.493 106.021 163.78V167H105.051V166.4C104.791 166.827 104.334 167.04 103.681 167.04C103.201 167.04 102.814 166.903 102.521 166.63C102.234 166.35 102.091 165.997 102.091 165.57C102.091 165.083 102.274 164.707 102.641 164.44C103.008 164.167 103.521 164.03 104.181 164.03H105.021V163.74C105.021 163.393 104.938 163.133 104.771 162.96C104.604 162.78 104.328 162.69 103.941 162.69C103.401 162.69 102.911 162.84 102.471 163.14ZM110.782 161.93V162.82C111.029 162.193 111.472 161.88 112.112 161.88C112.206 161.88 112.309 161.89 112.422 161.91V162.87C112.282 162.81 112.126 162.78 111.952 162.78C111.612 162.78 111.332 162.93 111.112 163.23C110.892 163.53 110.782 163.887 110.782 164.3V167H109.802V161.93H110.782ZM116.341 161.93H117.321V167H116.341V166.13C116.074 166.75 115.548 167.06 114.761 167.06C114.261 167.06 113.864 166.913 113.571 166.62C113.278 166.32 113.131 165.91 113.131 165.39V161.93H114.121V165.15C114.121 165.497 114.204 165.763 114.371 165.95C114.544 166.13 114.781 166.22 115.081 166.22C115.461 166.22 115.764 166.087 115.991 165.82C116.224 165.553 116.341 165.177 116.341 164.69V161.93ZM119.679 161.93V162.74C119.965 162.153 120.442 161.86 121.109 161.86C121.869 161.86 122.355 162.187 122.569 162.84C122.709 162.527 122.912 162.287 123.179 162.12C123.445 161.947 123.745 161.86 124.079 161.86C124.599 161.86 124.992 162.013 125.259 162.32C125.532 162.627 125.669 163.05 125.669 163.59V167H124.689V163.8C124.689 163.073 124.395 162.71 123.809 162.71C123.515 162.71 123.252 162.84 123.019 163.1C122.792 163.36 122.679 163.743 122.679 164.25V167H121.699V163.8C121.699 163.073 121.402 162.71 120.809 162.71C120.522 162.71 120.262 162.84 120.029 163.1C119.795 163.36 119.679 163.743 119.679 164.25V167H118.699V161.93H119.679ZM129.67 164.74H128.91C128.536 164.74 128.253 164.813 128.06 164.96C127.873 165.107 127.78 165.293 127.78 165.52C127.78 165.753 127.853 165.937 128 166.07C128.146 166.203 128.36 166.27 128.64 166.27C128.96 166.27 129.21 166.183 129.39 166.01C129.576 165.83 129.67 165.597 129.67 165.31V164.74ZM127.12 163.14V162.19C127.513 161.963 128.033 161.85 128.68 161.85C130.006 161.85 130.67 162.493 130.67 163.78V167H129.7V166.4C129.44 166.827 128.983 167.04 128.33 167.04C127.85 167.04 127.463 166.903 127.17 166.63C126.883 166.35 126.74 165.997 126.74 165.57C126.74 165.083 126.923 164.707 127.29 164.44C127.656 164.167 128.17 164.03 128.83 164.03H129.67V163.74C129.67 163.393 129.586 163.133 129.42 162.96C129.253 162.78 128.976 162.69 128.59 162.69C128.05 162.69 127.56 162.84 127.12 163.14ZM132.97 159.93V162.8C133.256 162.173 133.78 161.86 134.54 161.86C135.033 161.86 135.43 162.013 135.73 162.32C136.03 162.627 136.18 163.053 136.18 163.6V167H135.2V163.8C135.2 163.453 135.11 163.187 134.93 163C134.756 162.807 134.526 162.71 134.24 162.71C133.906 162.71 133.61 162.837 133.35 163.09C133.096 163.343 132.97 163.73 132.97 164.25V167H131.99V159.93H132.97ZM142.849 162.1V162.99C142.522 162.797 142.102 162.7 141.589 162.7C141.355 162.7 141.169 162.753 141.029 162.86C140.895 162.967 140.829 163.107 140.829 163.28C140.829 163.327 140.832 163.373 140.839 163.42C140.852 163.46 140.872 163.503 140.899 163.55C140.925 163.59 140.949 163.627 140.969 163.66C140.995 163.687 141.035 163.717 141.089 163.75C141.142 163.783 141.182 163.813 141.209 163.84C141.242 163.86 141.292 163.887 141.359 163.92C141.432 163.953 141.485 163.98 141.519 164C141.552 164.013 141.609 164.04 141.689 164.08C141.775 164.113 141.835 164.137 141.869 164.15C142.262 164.323 142.569 164.52 142.789 164.74C143.015 164.953 143.129 165.24 143.129 165.6C143.129 166.053 142.969 166.41 142.649 166.67C142.329 166.923 141.895 167.05 141.349 167.05C140.749 167.05 140.249 166.95 139.849 166.75V165.82C140.315 166.107 140.799 166.25 141.299 166.25C141.559 166.25 141.759 166.197 141.899 166.09C142.045 165.983 142.119 165.843 142.119 165.67C142.119 165.523 142.062 165.393 141.949 165.28C141.835 165.16 141.719 165.073 141.599 165.02C141.485 164.96 141.289 164.87 141.009 164.75C140.215 164.423 139.819 163.943 139.819 163.31C139.819 162.863 139.985 162.513 140.319 162.26C140.652 162.007 141.069 161.88 141.569 161.88C142.115 161.88 142.542 161.953 142.849 162.1ZM146.818 164.74H146.058C145.685 164.74 145.401 164.813 145.208 164.96C145.021 165.107 144.928 165.293 144.928 165.52C144.928 165.753 145.001 165.937 145.148 166.07C145.295 166.203 145.508 166.27 145.788 166.27C146.108 166.27 146.358 166.183 146.538 166.01C146.725 165.83 146.818 165.597 146.818 165.31V164.74ZM144.268 163.14V162.19C144.661 161.963 145.181 161.85 145.828 161.85C147.155 161.85 147.818 162.493 147.818 163.78V167H146.848V166.4C146.588 166.827 146.131 167.04 145.478 167.04C144.998 167.04 144.611 166.903 144.318 166.63C144.031 166.35 143.888 165.997 143.888 165.57C143.888 165.083 144.071 164.707 144.438 164.44C144.805 164.167 145.318 164.03 145.978 164.03H146.818V163.74C146.818 163.393 146.735 163.133 146.568 162.96C146.401 162.78 146.125 162.69 145.738 162.69C145.198 162.69 144.708 162.84 144.268 163.14ZM149.138 167V160H150.118V167H149.138ZM151.288 164.35L153.278 167H152.108L150.158 164.35L152.068 161.93H153.218L151.288 164.35ZM154.178 167V161.93H155.168V167H154.178ZM154.228 160.82C154.115 160.7 154.058 160.553 154.058 160.38C154.058 160.207 154.115 160.06 154.228 159.94C154.348 159.82 154.495 159.76 154.668 159.76C154.842 159.76 154.988 159.82 155.108 159.94C155.228 160.06 155.288 160.207 155.288 160.38C155.288 160.547 155.228 160.69 155.108 160.81C154.988 160.93 154.842 160.99 154.668 160.99C154.495 160.99 154.348 160.933 154.228 160.82ZM157.859 162.69V165.48C157.859 165.967 158.093 166.21 158.559 166.21C158.833 166.21 159.063 166.137 159.249 165.99V166.87C159.029 166.99 158.759 167.05 158.439 167.05C157.393 167.05 156.869 166.52 156.869 165.46V162.69H156.079V161.93H156.869V160.69H157.859V161.93H159.189V162.69H157.859ZM165.681 162.1V162.99C165.354 162.797 164.934 162.7 164.421 162.7C164.187 162.7 164.001 162.753 163.861 162.86C163.727 162.967 163.661 163.107 163.661 163.28C163.661 163.327 163.664 163.373 163.671 163.42C163.684 163.46 163.704 163.503 163.731 163.55C163.757 163.59 163.781 163.627 163.801 163.66C163.827 163.687 163.867 163.717 163.921 163.75C163.974 163.783 164.014 163.813 164.041 163.84C164.074 163.86 164.124 163.887 164.191 163.92C164.264 163.953 164.317 163.98 164.351 164C164.384 164.013 164.441 164.04 164.521 164.08C164.607 164.113 164.667 164.137 164.701 164.15C165.094 164.323 165.401 164.52 165.621 164.74C165.847 164.953 165.961 165.24 165.961 165.6C165.961 166.053 165.801 166.41 165.481 166.67C165.161 166.923 164.727 167.05 164.181 167.05C163.581 167.05 163.081 166.95 162.681 166.75V165.82C163.147 166.107 163.631 166.25 164.131 166.25C164.391 166.25 164.591 166.197 164.731 166.09C164.877 165.983 164.951 165.843 164.951 165.67C164.951 165.523 164.894 165.393 164.781 165.28C164.667 165.16 164.551 165.073 164.431 165.02C164.317 164.96 164.121 164.87 163.841 164.75C163.047 164.423 162.651 163.943 162.651 163.31C162.651 162.863 162.817 162.513 163.151 162.26C163.484 162.007 163.901 161.88 164.401 161.88C164.947 161.88 165.374 161.953 165.681 162.1ZM170.13 164.1V163.92C170.117 163.54 170.013 163.24 169.82 163.02C169.627 162.793 169.35 162.68 168.99 162.68C168.657 162.68 168.37 162.803 168.13 163.05C167.89 163.29 167.74 163.64 167.68 164.1H170.13ZM170.76 165.85V166.73C170.387 166.943 169.893 167.05 169.28 167.05C168.493 167.05 167.867 166.813 167.4 166.34C166.933 165.867 166.7 165.247 166.7 164.48C166.7 163.667 166.913 163.03 167.34 162.57C167.767 162.103 168.31 161.87 168.97 161.87C169.617 161.87 170.13 162.073 170.51 162.48C170.89 162.88 171.08 163.46 171.08 164.22C171.08 164.427 171.06 164.643 171.02 164.87H167.69C167.757 165.31 167.943 165.647 168.25 165.88C168.557 166.113 168.943 166.23 169.41 166.23C169.95 166.23 170.4 166.103 170.76 165.85ZM174.624 166.21C174.997 166.21 175.311 166.053 175.564 165.74C175.817 165.42 175.944 165.01 175.944 164.51C175.944 163.937 175.817 163.497 175.564 163.19C175.311 162.877 174.987 162.72 174.594 162.72C174.247 162.72 173.934 162.86 173.654 163.14C173.381 163.42 173.244 163.85 173.244 164.43C173.244 165.03 173.377 165.477 173.644 165.77C173.911 166.063 174.237 166.21 174.624 166.21ZM173.244 159.93V162.7C173.604 162.14 174.114 161.86 174.774 161.86C175.414 161.86 175.937 162.1 176.344 162.58C176.751 163.06 176.954 163.697 176.954 164.49C176.954 165.203 176.761 165.813 176.374 166.32C175.987 166.82 175.457 167.07 174.784 167.07C174.111 167.07 173.597 166.79 173.244 166.23V167H172.254V159.93H173.244ZM181.204 164.1V163.92C181.191 163.54 181.088 163.24 180.894 163.02C180.701 162.793 180.424 162.68 180.064 162.68C179.731 162.68 179.444 162.803 179.204 163.05C178.964 163.29 178.814 163.64 178.754 164.1H181.204ZM181.834 165.85V166.73C181.461 166.943 180.968 167.05 180.354 167.05C179.568 167.05 178.941 166.813 178.474 166.34C178.008 165.867 177.774 165.247 177.774 164.48C177.774 163.667 177.988 163.03 178.414 162.57C178.841 162.103 179.384 161.87 180.044 161.87C180.691 161.87 181.204 162.073 181.584 162.48C181.964 162.88 182.154 163.46 182.154 164.22C182.154 164.427 182.134 164.643 182.094 164.87H178.764C178.831 165.31 179.018 165.647 179.324 165.88C179.631 166.113 180.018 166.23 180.484 166.23C181.024 166.23 181.474 166.103 181.834 165.85ZM186.198 162.1V162.99C185.871 162.797 185.451 162.7 184.938 162.7C184.705 162.7 184.518 162.753 184.378 162.86C184.245 162.967 184.178 163.107 184.178 163.28C184.178 163.327 184.181 163.373 184.188 163.42C184.201 163.46 184.221 163.503 184.248 163.55C184.275 163.59 184.298 163.627 184.318 163.66C184.345 163.687 184.385 163.717 184.438 163.75C184.491 163.783 184.531 163.813 184.558 163.84C184.591 163.86 184.641 163.887 184.708 163.92C184.781 163.953 184.835 163.98 184.868 164C184.901 164.013 184.958 164.04 185.038 164.08C185.125 164.113 185.185 164.137 185.218 164.15C185.611 164.323 185.918 164.52 186.138 164.74C186.365 164.953 186.478 165.24 186.478 165.6C186.478 166.053 186.318 166.41 185.998 166.67C185.678 166.923 185.245 167.05 184.698 167.05C184.098 167.05 183.598 166.95 183.198 166.75V165.82C183.665 166.107 184.148 166.25 184.648 166.25C184.908 166.25 185.108 166.197 185.248 166.09C185.395 165.983 185.468 165.843 185.468 165.67C185.468 165.523 185.411 165.393 185.298 165.28C185.185 165.16 185.068 165.073 184.948 165.02C184.835 164.96 184.638 164.87 184.358 164.75C183.565 164.423 183.168 163.943 183.168 163.31C183.168 162.863 183.335 162.513 183.668 162.26C184.001 162.007 184.418 161.88 184.918 161.88C185.465 161.88 185.891 161.953 186.198 162.1ZM190.168 164.74H189.408C189.034 164.74 188.751 164.813 188.558 164.96C188.371 165.107 188.278 165.293 188.278 165.52C188.278 165.753 188.351 165.937 188.498 166.07C188.644 166.203 188.858 166.27 189.138 166.27C189.458 166.27 189.708 166.183 189.888 166.01C190.074 165.83 190.168 165.597 190.168 165.31V164.74ZM187.618 163.14V162.19C188.011 161.963 188.531 161.85 189.178 161.85C190.504 161.85 191.168 162.493 191.168 163.78V167H190.198V166.4C189.938 166.827 189.481 167.04 188.828 167.04C188.348 167.04 187.961 166.903 187.668 166.63C187.381 166.35 187.238 165.997 187.238 165.57C187.238 165.083 187.421 164.707 187.788 164.44C188.154 164.167 188.668 164.03 189.328 164.03H190.168V163.74C190.168 163.393 190.084 163.133 189.918 162.96C189.751 162.78 189.474 162.69 189.088 162.69C188.548 162.69 188.058 162.84 187.618 163.14ZM193.468 161.93V162.82C193.715 162.193 194.158 161.88 194.798 161.88C194.891 161.88 194.995 161.89 195.108 161.91V162.87C194.968 162.81 194.811 162.78 194.638 162.78C194.298 162.78 194.018 162.93 193.798 163.23C193.578 163.53 193.468 163.887 193.468 164.3V167H192.488V161.93H193.468Z" fill="#2B2B2B"/>
<path d="M199.407 161.12V163.58H200.337C200.764 163.58 201.087 163.47 201.307 163.25C201.527 163.023 201.637 162.723 201.637 162.35C201.637 161.53 201.187 161.12 200.287 161.12H199.407ZM201.877 167L200.297 164.44H199.407V167H198.377V160.26H200.257C201.031 160.26 201.627 160.45 202.047 160.83C202.467 161.203 202.677 161.713 202.677 162.36C202.671 162.833 202.551 163.237 202.317 163.57C202.084 163.897 201.761 164.133 201.347 164.28L203.107 167H201.877ZM206.361 166.21C206.754 166.21 207.078 166.057 207.331 165.75C207.584 165.437 207.711 165 207.711 164.44C207.711 163.913 207.588 163.497 207.341 163.19C207.094 162.877 206.781 162.72 206.401 162.72C206.021 162.72 205.691 162.86 205.411 163.14C205.138 163.413 205.001 163.85 205.001 164.45C205.001 165.037 205.138 165.477 205.411 165.77C205.691 166.063 206.008 166.21 206.361 166.21ZM205.001 161.93V162.71C205.348 162.143 205.868 161.86 206.561 161.86C207.228 161.86 207.754 162.103 208.141 162.59C208.528 163.07 208.721 163.683 208.721 164.43C208.721 165.197 208.521 165.83 208.121 166.33C207.728 166.823 207.201 167.07 206.541 167.07C205.868 167.07 205.354 166.79 205.001 166.23V168.94H204.021V161.93H205.001ZM212.003 163.71C212.003 162.683 212.206 161.87 212.613 161.27C213.026 160.663 213.589 160.36 214.303 160.36C215.029 160.36 215.599 160.66 216.013 161.26C216.426 161.86 216.633 162.677 216.633 163.71C216.633 164.73 216.429 165.547 216.023 166.16C215.623 166.773 215.049 167.08 214.303 167.08C213.589 167.08 213.026 166.773 212.613 166.16C212.206 165.547 212.003 164.73 212.003 163.71ZM213.373 161.91C213.126 162.33 213.003 162.93 213.003 163.71C213.003 164.49 213.123 165.097 213.363 165.53C213.609 165.957 213.923 166.17 214.303 166.17C214.716 166.17 215.039 165.957 215.273 165.53C215.506 165.103 215.623 164.497 215.623 163.71C215.623 162.917 215.499 162.313 215.253 161.9C215.013 161.48 214.696 161.27 214.303 161.27C213.929 161.27 213.619 161.483 213.373 161.91ZM216.962 168.24L217.922 165.9H219.132L217.822 168.24H216.962ZM219.903 163.71C219.903 162.683 220.106 161.87 220.513 161.27C220.926 160.663 221.49 160.36 222.203 160.36C222.93 160.36 223.5 160.66 223.913 161.26C224.326 161.86 224.533 162.677 224.533 163.71C224.533 164.73 224.33 165.547 223.923 166.16C223.523 166.773 222.95 167.08 222.203 167.08C221.49 167.08 220.926 166.773 220.513 166.16C220.106 165.547 219.903 164.73 219.903 163.71ZM221.273 161.91C221.026 162.33 220.903 162.93 220.903 163.71C220.903 164.49 221.023 165.097 221.263 165.53C221.51 165.957 221.823 166.17 222.203 166.17C222.616 166.17 222.94 165.957 223.173 165.53C223.406 165.103 223.523 164.497 223.523 163.71C223.523 162.917 223.4 162.313 223.153 161.9C222.913 161.48 222.596 161.27 222.203 161.27C221.83 161.27 221.52 161.483 221.273 161.91ZM225.352 163.71C225.352 162.683 225.556 161.87 225.962 161.27C226.376 160.663 226.939 160.36 227.652 160.36C228.379 160.36 228.949 160.66 229.362 161.26C229.776 161.86 229.982 162.677 229.982 163.71C229.982 164.73 229.779 165.547 229.372 166.16C228.972 166.773 228.399 167.08 227.652 167.08C226.939 167.08 226.376 166.773 225.962 166.16C225.556 165.547 225.352 164.73 225.352 163.71ZM226.722 161.91C226.476 162.33 226.352 162.93 226.352 163.71C226.352 164.49 226.472 165.097 226.712 165.53C226.959 165.957 227.272 166.17 227.652 166.17C228.066 166.17 228.389 165.957 228.622 165.53C228.856 165.103 228.972 164.497 228.972 163.71C228.972 162.917 228.849 162.313 228.602 161.9C228.362 161.48 228.046 161.27 227.652 161.27C227.279 161.27 226.969 161.483 226.722 161.91ZM230.802 163.71C230.802 162.683 231.005 161.87 231.412 161.27C231.825 160.663 232.388 160.36 233.102 160.36C233.828 160.36 234.398 160.66 234.812 161.26C235.225 161.86 235.432 162.677 235.432 163.71C235.432 164.73 235.228 165.547 234.822 166.16C234.422 166.773 233.848 167.08 233.102 167.08C232.388 167.08 231.825 166.773 231.412 166.16C231.005 165.547 230.802 164.73 230.802 163.71ZM232.172 161.91C231.925 162.33 231.802 162.93 231.802 163.71C231.802 164.49 231.922 165.097 232.162 165.53C232.408 165.957 232.722 166.17 233.102 166.17C233.515 166.17 233.838 165.957 234.072 165.53C234.305 165.103 234.422 164.497 234.422 163.71C234.422 162.917 234.298 162.313 234.052 161.9C233.812 161.48 233.495 161.27 233.102 161.27C232.728 161.27 232.418 161.483 232.172 161.91ZM235.761 168.24L236.721 165.9H237.931L236.621 168.24H235.761ZM238.702 163.71C238.702 162.683 238.905 161.87 239.312 161.27C239.725 160.663 240.289 160.36 241.002 160.36C241.729 160.36 242.299 160.66 242.712 161.26C243.125 161.86 243.332 162.677 243.332 163.71C243.332 164.73 243.129 165.547 242.722 166.16C242.322 166.773 241.749 167.08 241.002 167.08C240.289 167.08 239.725 166.773 239.312 166.16C238.905 165.547 238.702 164.73 238.702 163.71ZM240.072 161.91C239.825 162.33 239.702 162.93 239.702 163.71C239.702 164.49 239.822 165.097 240.062 165.53C240.309 165.957 240.622 166.17 241.002 166.17C241.415 166.17 241.739 165.957 241.972 165.53C242.205 165.103 242.322 164.497 242.322 163.71C242.322 162.917 242.199 162.313 241.952 161.9C241.712 161.48 241.395 161.27 241.002 161.27C240.629 161.27 240.319 161.483 240.072 161.91ZM244.151 163.71C244.151 162.683 244.355 161.87 244.761 161.27C245.175 160.663 245.738 160.36 246.451 160.36C247.178 160.36 247.748 160.66 248.161 161.26C248.575 161.86 248.781 162.677 248.781 163.71C248.781 164.73 248.578 165.547 248.171 166.16C247.771 166.773 247.198 167.08 246.451 167.08C245.738 167.08 245.175 166.773 244.761 166.16C244.355 165.547 244.151 164.73 244.151 163.71ZM245.521 161.91C245.275 162.33 245.151 162.93 245.151 163.71C245.151 164.49 245.271 165.097 245.511 165.53C245.758 165.957 246.071 166.17 246.451 166.17C246.865 166.17 247.188 165.957 247.421 165.53C247.655 165.103 247.771 164.497 247.771 163.71C247.771 162.917 247.648 162.313 247.401 161.9C247.161 161.48 246.845 161.27 246.451 161.27C246.078 161.27 245.768 161.483 245.521 161.91ZM249.6 163.71C249.6 162.683 249.804 161.87 250.21 161.27C250.624 160.663 251.187 160.36 251.9 160.36C252.627 160.36 253.197 160.66 253.61 161.26C254.024 161.86 254.23 162.677 254.23 163.71C254.23 164.73 254.027 165.547 253.62 166.16C253.22 166.773 252.647 167.08 251.9 167.08C251.187 167.08 250.624 166.773 250.21 166.16C249.804 165.547 249.6 164.73 249.6 163.71ZM250.97 161.91C250.724 162.33 250.6 162.93 250.6 163.71C250.6 164.49 250.72 165.097 250.96 165.53C251.207 165.957 251.52 166.17 251.9 166.17C252.314 166.17 252.637 165.957 252.87 165.53C253.104 165.103 253.22 164.497 253.22 163.71C253.22 162.917 253.097 162.313 252.85 161.9C252.61 161.48 252.294 161.27 251.9 161.27C251.527 161.27 251.217 161.483 250.97 161.91Z" fill="#FF1934"/>
<path opacity="0.64" d="M60.904 217.635V214.275H61.552V217.619C61.552 218.312 61.376 218.837 61.024 219.195C60.6773 219.552 60.192 219.731 59.568 219.731C58.9547 219.731 58.4747 219.557 58.128 219.211C57.7813 218.859 57.608 218.349 57.608 217.683V214.275H58.256V217.675C58.256 218.171 58.3733 218.536 58.608 218.771C58.848 219.005 59.168 219.123 59.568 219.123C60.4587 219.123 60.904 218.627 60.904 217.635ZM64.9243 217.795H64.2203C63.8789 217.795 63.6229 217.861 63.4523 217.995C63.2816 218.128 63.1963 218.296 63.1963 218.499C63.1963 218.701 63.2629 218.867 63.3963 218.995C63.5296 219.117 63.7243 219.179 63.9803 219.179C64.2683 219.179 64.4976 219.099 64.6683 218.939C64.8389 218.773 64.9243 218.565 64.9243 218.315V217.795ZM62.8283 216.459V215.827C63.1323 215.64 63.5323 215.547 64.0283 215.547C65.0469 215.547 65.5563 216.064 65.5563 217.099V219.667H64.9323V219.187C64.7243 219.533 64.3456 219.707 63.7963 219.707C63.4176 219.707 63.1109 219.595 62.8763 219.371C62.6469 219.147 62.5323 218.864 62.5323 218.523C62.5323 218.133 62.6789 217.832 62.9723 217.619C63.2709 217.4 63.6763 217.291 64.1883 217.291H64.9243V217.083C64.9243 216.763 64.8523 216.523 64.7083 216.363C64.5643 216.197 64.3216 216.115 63.9803 216.115C63.5483 216.115 63.1643 216.229 62.8283 216.459ZM67.3018 215.611V216.315C67.5418 215.808 67.9684 215.555 68.5818 215.555C68.9764 215.555 69.2911 215.675 69.5258 215.915C69.7604 216.155 69.8778 216.475 69.8778 216.875V219.667H69.2458V217.043C69.2458 216.744 69.1684 216.517 69.0138 216.363C68.8644 216.203 68.6671 216.123 68.4218 216.123C68.1178 216.123 67.8538 216.24 67.6298 216.475C67.4111 216.709 67.3018 217.035 67.3018 217.451V219.667H66.6778V215.611H67.3018ZM72.5181 219.003C72.8114 219.003 73.0701 218.891 73.2941 218.667C73.5234 218.437 73.6381 218.099 73.6381 217.651C73.6381 217.133 73.5287 216.749 73.3101 216.499C73.0914 216.248 72.8381 216.123 72.5501 216.123C72.2034 216.123 71.9287 216.261 71.7261 216.539C71.5234 216.811 71.4221 217.168 71.4221 217.611C71.4221 218.064 71.5341 218.411 71.7581 218.651C71.9821 218.885 72.2354 219.003 72.5181 219.003ZM73.6381 215.611H74.2701V219.339C74.2701 219.957 74.0994 220.421 73.7581 220.731C73.4167 221.045 72.9767 221.203 72.4381 221.203C71.9474 221.203 71.5287 221.12 71.1821 220.955V220.323C71.5234 220.52 71.9234 220.619 72.3821 220.619C72.7714 220.619 73.0781 220.515 73.3021 220.307C73.5261 220.099 73.6381 219.773 73.6381 219.331V218.875C73.3714 219.333 72.9741 219.563 72.4461 219.563C71.9821 219.563 71.5847 219.392 71.2541 219.051C70.9287 218.709 70.7661 218.235 70.7661 217.627C70.7661 217.024 70.9181 216.528 71.2221 216.139C71.5261 215.749 71.9234 215.555 72.4141 215.555C72.9687 215.555 73.3767 215.797 73.6381 216.283V215.611ZM80.4618 214.275V214.843H79.0058V219.667H78.3578V214.843H76.9018V214.275H80.4618ZM83.7212 215.611H84.3532V219.667H83.7212V218.963C83.5079 219.464 83.0839 219.715 82.4492 219.715C82.0492 219.715 81.7319 219.597 81.4972 219.363C81.2679 219.123 81.1532 218.803 81.1532 218.403V215.611H81.7852V218.243C81.7852 218.536 81.8599 218.76 82.0092 218.915C82.1585 219.069 82.3612 219.147 82.6172 219.147C82.9532 219.147 83.2199 219.029 83.4172 218.795C83.6199 218.56 83.7212 218.243 83.7212 217.843V215.611ZM86.1455 215.611V216.315C86.3855 215.808 86.8122 215.555 87.4255 215.555C87.8202 215.555 88.1348 215.675 88.3695 215.915C88.6042 216.155 88.7215 216.475 88.7215 216.875V219.667H88.0895V217.043C88.0895 216.744 88.0122 216.517 87.8575 216.363C87.7082 216.203 87.5108 216.123 87.2655 216.123C86.9615 216.123 86.6975 216.24 86.4735 216.475C86.2548 216.709 86.1455 217.035 86.1455 217.451V219.667H85.5215V215.611H86.1455ZM92.0258 217.795H91.3218C90.9805 217.795 90.7245 217.861 90.5538 217.995C90.3831 218.128 90.2978 218.296 90.2978 218.499C90.2978 218.701 90.3645 218.867 90.4978 218.995C90.6311 219.117 90.8258 219.179 91.0818 219.179C91.3698 219.179 91.5991 219.099 91.7698 218.939C91.9405 218.773 92.0258 218.565 92.0258 218.315V217.795ZM89.9298 216.459V215.827C90.2338 215.64 90.6338 215.547 91.1298 215.547C92.1485 215.547 92.6578 216.064 92.6578 217.099V219.667H92.0338V219.187C91.8258 219.533 91.4471 219.707 90.8978 219.707C90.5191 219.707 90.2125 219.595 89.9778 219.371C89.7485 219.147 89.6338 218.864 89.6338 218.523C89.6338 218.133 89.7805 217.832 90.0738 217.619C90.3725 217.4 90.7778 217.291 91.2898 217.291H92.0258V217.083C92.0258 216.763 91.9538 216.523 91.8098 216.363C91.6658 216.197 91.4231 216.115 91.0818 216.115C90.6498 216.115 90.2658 216.229 89.9298 216.459ZM93.8113 219.667V215.611H94.4433V219.667H93.8113ZM93.8273 214.635C93.7526 214.555 93.7153 214.456 93.7153 214.339C93.7153 214.221 93.7526 214.123 93.8273 214.043C93.9073 213.963 94.006 213.923 94.1233 213.923C94.2406 213.923 94.3393 213.963 94.4193 214.043C94.4993 214.123 94.5393 214.221 94.5393 214.339C94.5393 214.456 94.4993 214.555 94.4193 214.635C94.3393 214.709 94.2406 214.747 94.1233 214.747C94.006 214.747 93.9073 214.709 93.8273 214.635Z" fill="#2B2B2B"/>
<path d="M237.334 214.835V216.987H238.15C238.518 216.987 238.798 216.888 238.99 216.691C239.188 216.488 239.286 216.229 239.286 215.915C239.286 215.195 238.884 214.835 238.078 214.835H237.334ZM240.27 219.667H239.494L238.174 217.539H238.11H237.334V219.667H236.686V214.275H238.038C238.662 214.275 239.134 214.421 239.454 214.715C239.78 215.008 239.942 215.413 239.942 215.931C239.932 216.304 239.833 216.621 239.646 216.883C239.46 217.144 239.196 217.328 238.854 217.435L240.27 219.667ZM242.821 219.155C243.162 219.155 243.442 219.021 243.661 218.755C243.88 218.483 243.989 218.099 243.989 217.603C243.989 217.16 243.882 216.803 243.669 216.531C243.456 216.259 243.186 216.123 242.861 216.123C242.536 216.123 242.253 216.243 242.013 216.483C241.778 216.717 241.661 217.104 241.661 217.643C241.661 218.16 241.781 218.541 242.021 218.787C242.261 219.032 242.528 219.155 242.821 219.155ZM241.661 215.611V216.227C241.944 215.773 242.362 215.547 242.917 215.547C243.456 215.547 243.877 215.744 244.181 216.139C244.49 216.528 244.645 217.016 244.645 217.603C244.645 218.227 244.482 218.739 244.157 219.139C243.837 219.533 243.418 219.731 242.901 219.731C242.368 219.731 241.954 219.504 241.661 219.051V221.243H241.037V215.611H241.661ZM247.289 217.035C247.289 216.213 247.455 215.565 247.785 215.091C248.121 214.611 248.561 214.371 249.105 214.371C249.671 214.371 250.119 214.611 250.449 215.091C250.785 215.565 250.953 216.213 250.953 217.035C250.953 217.851 250.793 218.504 250.473 218.995C250.153 219.485 249.697 219.731 249.105 219.731C248.556 219.731 248.116 219.485 247.785 218.995C247.455 218.504 247.289 217.851 247.289 217.035ZM248.281 215.515C248.052 215.872 247.937 216.379 247.937 217.035C247.937 217.691 248.049 218.205 248.273 218.579C248.497 218.947 248.775 219.131 249.105 219.131C249.473 219.131 249.764 218.949 249.977 218.587C250.196 218.224 250.305 217.707 250.305 217.035C250.305 216.368 250.191 215.859 249.961 215.507C249.737 215.149 249.452 214.971 249.105 214.971C248.785 214.971 248.511 215.152 248.281 215.515ZM251.233 220.651L251.977 218.859H252.817L251.785 220.651H251.233ZM253.438 217.035C253.438 216.213 253.603 215.565 253.934 215.091C254.27 214.611 254.71 214.371 255.254 214.371C255.819 214.371 256.267 214.611 256.598 215.091C256.934 215.565 257.102 216.213 257.102 217.035C257.102 217.851 256.942 218.504 256.622 218.995C256.302 219.485 255.846 219.731 255.254 219.731C254.704 219.731 254.264 219.485 253.934 218.995C253.603 218.504 253.438 217.851 253.438 217.035ZM254.43 215.515C254.2 215.872 254.086 216.379 254.086 217.035C254.086 217.691 254.198 218.205 254.422 218.579C254.646 218.947 254.923 219.131 255.254 219.131C255.622 219.131 255.912 218.949 256.126 218.587C256.344 218.224 256.454 217.707 256.454 217.035C256.454 216.368 256.339 215.859 256.11 215.507C255.886 215.149 255.6 214.971 255.254 214.971C254.934 214.971 254.659 215.152 254.43 215.515ZM257.789 217.035C257.789 216.213 257.955 215.565 258.285 215.091C258.621 214.611 259.061 214.371 259.605 214.371C260.171 214.371 260.619 214.611 260.949 215.091C261.285 215.565 261.453 216.213 261.453 217.035C261.453 217.851 261.293 218.504 260.973 218.995C260.653 219.485 260.197 219.731 259.605 219.731C259.056 219.731 258.616 219.485 258.285 218.995C257.955 218.504 257.789 217.851 257.789 217.035ZM258.781 215.515C258.552 215.872 258.437 216.379 258.437 217.035C258.437 217.691 258.549 218.205 258.773 218.579C258.997 218.947 259.275 219.131 259.605 219.131C259.973 219.131 260.264 218.949 260.477 218.587C260.696 218.224 260.805 217.707 260.805 217.035C260.805 216.368 260.691 215.859 260.461 215.507C260.237 215.149 259.952 214.971 259.605 214.971C259.285 214.971 259.011 215.152 258.781 215.515ZM262.141 217.035C262.141 216.213 262.306 215.565 262.637 215.091C262.973 214.611 263.413 214.371 263.957 214.371C264.522 214.371 264.97 214.611 265.301 215.091C265.637 215.565 265.805 216.213 265.805 217.035C265.805 217.851 265.645 218.504 265.325 218.995C265.005 219.485 264.549 219.731 263.957 219.731C263.408 219.731 262.968 219.485 262.637 218.995C262.306 218.504 262.141 217.851 262.141 217.035ZM263.133 215.515C262.904 215.872 262.789 216.379 262.789 217.035C262.789 217.691 262.901 218.205 263.125 218.579C263.349 218.947 263.626 219.131 263.957 219.131C264.325 219.131 264.616 218.949 264.829 218.587C265.048 218.224 265.157 217.707 265.157 217.035C265.157 216.368 265.042 215.859 264.813 215.507C264.589 215.149 264.304 214.971 263.957 214.971C263.637 214.971 263.362 215.152 263.133 215.515ZM266.084 220.651L266.828 218.859H267.668L266.636 220.651H266.084ZM268.289 217.035C268.289 216.213 268.455 215.565 268.785 215.091C269.121 214.611 269.561 214.371 270.105 214.371C270.671 214.371 271.119 214.611 271.449 215.091C271.785 215.565 271.953 216.213 271.953 217.035C271.953 217.851 271.793 218.504 271.473 218.995C271.153 219.485 270.697 219.731 270.105 219.731C269.556 219.731 269.116 219.485 268.785 218.995C268.455 218.504 268.289 217.851 268.289 217.035ZM269.281 215.515C269.052 215.872 268.937 216.379 268.937 217.035C268.937 217.691 269.049 218.205 269.273 218.579C269.497 218.947 269.775 219.131 270.105 219.131C270.473 219.131 270.764 218.949 270.977 218.587C271.196 218.224 271.305 217.707 271.305 217.035C271.305 216.368 271.191 215.859 270.961 215.507C270.737 215.149 270.452 214.971 270.105 214.971C269.785 214.971 269.511 215.152 269.281 215.515ZM272.641 217.035C272.641 216.213 272.806 215.565 273.137 215.091C273.473 214.611 273.913 214.371 274.457 214.371C275.022 214.371 275.47 214.611 275.801 215.091C276.137 215.565 276.305 216.213 276.305 217.035C276.305 217.851 276.145 218.504 275.825 218.995C275.505 219.485 275.049 219.731 274.457 219.731C273.908 219.731 273.468 219.485 273.137 218.995C272.806 218.504 272.641 217.851 272.641 217.035ZM273.633 215.515C273.404 215.872 273.289 216.379 273.289 217.035C273.289 217.691 273.401 218.205 273.625 218.579C273.849 218.947 274.126 219.131 274.457 219.131C274.825 219.131 275.116 218.949 275.329 218.587C275.548 218.224 275.657 217.707 275.657 217.035C275.657 216.368 275.542 215.859 275.313 215.507C275.089 215.149 274.804 214.971 274.457 214.971C274.137 214.971 273.862 215.152 273.633 215.515ZM276.992 217.035C276.992 216.213 277.158 215.565 277.488 215.091C277.824 214.611 278.264 214.371 278.808 214.371C279.374 214.371 279.822 214.611 280.152 215.091C280.488 215.565 280.656 216.213 280.656 217.035C280.656 217.851 280.496 218.504 280.176 218.995C279.856 219.485 279.4 219.731 278.808 219.731C278.259 219.731 277.819 219.485 277.488 218.995C277.158 218.504 276.992 217.851 276.992 217.035ZM277.984 215.515C277.755 215.872 277.64 216.379 277.64 217.035C277.64 217.691 277.752 218.205 277.976 218.579C278.2 218.947 278.478 219.131 278.808 219.131C279.176 219.131 279.467 218.949 279.68 218.587C279.899 218.224 280.008 217.707 280.008 217.035C280.008 216.368 279.894 215.859 279.664 215.507C279.44 215.149 279.155 214.971 278.808 214.971C278.488 214.971 278.214 215.152 277.984 215.515Z" fill="#2B2B2B"/>
<mask id="path-11-inside-1_1124_4113" fill="white">
<path d="M57 228.667H281V250.667H57V228.667Z"/>
</mask>
<path d="M281 249.667H57V251.667H281V249.667Z" fill="#CCCCCC" mask="url(#path-11-inside-1_1124_4113)"/>
<path opacity="0.64" d="M60.704 236.275V236.843H59.248V241.667H58.6V236.843H57.144V236.275H60.704ZM63.6274 239.795H62.9234C62.582 239.795 62.326 239.861 62.1554 239.995C61.9847 240.128 61.8994 240.296 61.8994 240.499C61.8994 240.701 61.966 240.867 62.0994 240.995C62.2327 241.117 62.4274 241.179 62.6834 241.179C62.9714 241.179 63.2007 241.099 63.3714 240.939C63.542 240.773 63.6274 240.565 63.6274 240.315V239.795ZM61.5314 238.459V237.827C61.8354 237.64 62.2354 237.547 62.7314 237.547C63.75 237.547 64.2594 238.064 64.2594 239.099V241.667H63.6354V241.187C63.4274 241.533 63.0487 241.707 62.4994 241.707C62.1207 241.707 61.814 241.595 61.5794 241.371C61.35 241.147 61.2354 240.864 61.2354 240.523C61.2354 240.133 61.382 239.832 61.6754 239.619C61.974 239.4 62.3794 239.291 62.8914 239.291H63.6274V239.083C63.6274 238.763 63.5554 238.523 63.4114 238.363C63.2674 238.197 63.0247 238.115 62.6834 238.115C62.2514 238.115 61.8674 238.229 61.5314 238.459ZM67.2289 241.155C67.5542 241.155 67.8235 241.019 68.0369 240.747C68.2502 240.475 68.3569 240.12 68.3569 239.683C68.3569 239.181 68.2449 238.797 68.0209 238.531C67.8022 238.259 67.5249 238.123 67.1889 238.123C66.9009 238.123 66.6369 238.243 66.3969 238.483C66.1569 238.723 66.0369 239.099 66.0369 239.611C66.0369 240.149 66.1515 240.541 66.3809 240.787C66.6155 241.032 66.8982 241.155 67.2289 241.155ZM66.0369 236.011V238.219C66.3302 237.771 66.7409 237.547 67.2689 237.547C67.7809 237.547 68.1995 237.744 68.5249 238.139C68.8502 238.528 69.0129 239.04 69.0129 239.675C69.0129 240.245 68.8582 240.731 68.5489 241.131C68.2449 241.531 67.8235 241.731 67.2849 241.731C66.7409 241.731 66.3249 241.509 66.0369 241.067V241.667H65.4049V236.011H66.0369ZM72.4634 237.611H73.0954V241.667H72.4634V240.963C72.25 241.464 71.826 241.715 71.1914 241.715C70.7914 241.715 70.474 241.597 70.2394 241.363C70.01 241.123 69.8954 240.803 69.8954 240.403V237.611H70.5274V240.243C70.5274 240.536 70.602 240.76 70.7514 240.915C70.9007 241.069 71.1034 241.147 71.3594 241.147C71.6954 241.147 71.962 241.029 72.1594 240.795C72.362 240.56 72.4634 240.243 72.4634 239.843V237.611ZM74.8877 237.611V238.315C75.1277 237.808 75.5544 237.555 76.1677 237.555C76.5624 237.555 76.877 237.675 77.1117 237.915C77.3464 238.155 77.4637 238.475 77.4637 238.875V241.667H76.8317V239.043C76.8317 238.744 76.7544 238.517 76.5997 238.363C76.4504 238.203 76.253 238.123 76.0077 238.123C75.7037 238.123 75.4397 238.24 75.2157 238.475C74.997 238.709 74.8877 239.035 74.8877 239.451V241.667H74.2637V237.611H74.8877ZM80.104 241.003C80.3973 241.003 80.656 240.891 80.88 240.667C81.1093 240.437 81.224 240.099 81.224 239.651C81.224 239.133 81.1147 238.749 80.896 238.499C80.6773 238.248 80.424 238.123 80.136 238.123C79.7893 238.123 79.5147 238.261 79.312 238.539C79.1093 238.811 79.008 239.168 79.008 239.611C79.008 240.064 79.12 240.411 79.344 240.651C79.568 240.885 79.8213 241.003 80.104 241.003ZM81.224 237.611H81.856V241.339C81.856 241.957 81.6853 242.421 81.344 242.731C81.0027 243.045 80.5627 243.203 80.024 243.203C79.5333 243.203 79.1147 243.12 78.768 242.955V242.323C79.1093 242.52 79.5093 242.619 79.968 242.619C80.3573 242.619 80.664 242.515 80.888 242.307C81.112 242.099 81.224 241.773 81.224 241.331V240.875C80.9573 241.333 80.56 241.563 80.032 241.563C79.568 241.563 79.1707 241.392 78.84 241.051C78.5147 240.709 78.352 240.235 78.352 239.627C78.352 239.024 78.504 238.528 78.808 238.139C79.112 237.749 79.5093 237.555 80 237.555C80.5547 237.555 80.9627 237.797 81.224 238.283V237.611ZM85.1586 239.795H84.4546C84.1133 239.795 83.8573 239.861 83.6866 239.995C83.516 240.128 83.4306 240.296 83.4306 240.499C83.4306 240.701 83.4973 240.867 83.6306 240.995C83.764 241.117 83.9586 241.179 84.2146 241.179C84.5026 241.179 84.732 241.099 84.9026 240.939C85.0733 240.773 85.1586 240.565 85.1586 240.315V239.795ZM83.0626 238.459V237.827C83.3666 237.64 83.7666 237.547 84.2626 237.547C85.2813 237.547 85.7906 238.064 85.7906 239.099V241.667H85.1666V241.187C84.9586 241.533 84.58 241.707 84.0306 241.707C83.652 241.707 83.3453 241.595 83.1106 241.371C82.8813 241.147 82.7666 240.864 82.7666 240.523C82.7666 240.133 82.9133 239.832 83.2066 239.619C83.5053 239.4 83.9106 239.291 84.4226 239.291H85.1586V239.083C85.1586 238.763 85.0866 238.523 84.9426 238.363C84.7986 238.197 84.556 238.115 84.2146 238.115C83.7826 238.115 83.3986 238.229 83.0626 238.459ZM87.5361 237.611V238.315C87.7761 237.808 88.2028 237.555 88.8161 237.555C89.2108 237.555 89.5255 237.675 89.7601 237.915C89.9948 238.155 90.1121 238.475 90.1121 238.875V241.667H89.4801V239.043C89.4801 238.744 89.4028 238.517 89.2481 238.363C89.0988 238.203 88.9015 238.123 88.6561 238.123C88.3521 238.123 88.0881 238.24 87.8641 238.475C87.6455 238.709 87.5361 239.035 87.5361 239.451V241.667H86.9121V237.611H87.5361Z" fill="#2B2B2B"/>
<path d="M237.334 236.835V238.987H238.15C238.518 238.987 238.798 238.888 238.99 238.691C239.188 238.488 239.286 238.229 239.286 237.915C239.286 237.195 238.884 236.835 238.078 236.835H237.334ZM240.27 241.667H239.494L238.174 239.539H238.11H237.334V241.667H236.686V236.275H238.038C238.662 236.275 239.134 236.421 239.454 236.715C239.78 237.008 239.942 237.413 239.942 237.931C239.932 238.304 239.833 238.621 239.646 238.883C239.46 239.144 239.196 239.328 238.854 239.435L240.27 241.667ZM242.821 241.155C243.162 241.155 243.442 241.021 243.661 240.755C243.88 240.483 243.989 240.099 243.989 239.603C243.989 239.16 243.882 238.803 243.669 238.531C243.456 238.259 243.186 238.123 242.861 238.123C242.536 238.123 242.253 238.243 242.013 238.483C241.778 238.717 241.661 239.104 241.661 239.643C241.661 240.16 241.781 240.541 242.021 240.787C242.261 241.032 242.528 241.155 242.821 241.155ZM241.661 237.611V238.227C241.944 237.773 242.362 237.547 242.917 237.547C243.456 237.547 243.877 237.744 244.181 238.139C244.49 238.528 244.645 239.016 244.645 239.603C244.645 240.227 244.482 240.739 244.157 241.139C243.837 241.533 243.418 241.731 242.901 241.731C242.368 241.731 241.954 241.504 241.661 241.051V243.243H241.037V237.611H241.661ZM247.289 239.035C247.289 238.213 247.455 237.565 247.785 237.091C248.121 236.611 248.561 236.371 249.105 236.371C249.671 236.371 250.119 236.611 250.449 237.091C250.785 237.565 250.953 238.213 250.953 239.035C250.953 239.851 250.793 240.504 250.473 240.995C250.153 241.485 249.697 241.731 249.105 241.731C248.556 241.731 248.116 241.485 247.785 240.995C247.455 240.504 247.289 239.851 247.289 239.035ZM248.281 237.515C248.052 237.872 247.937 238.379 247.937 239.035C247.937 239.691 248.049 240.205 248.273 240.579C248.497 240.947 248.775 241.131 249.105 241.131C249.473 241.131 249.764 240.949 249.977 240.587C250.196 240.224 250.305 239.707 250.305 239.035C250.305 238.368 250.191 237.859 249.961 237.507C249.737 237.149 249.452 236.971 249.105 236.971C248.785 236.971 248.511 237.152 248.281 237.515ZM251.233 242.651L251.977 240.859H252.817L251.785 242.651H251.233ZM253.438 239.035C253.438 238.213 253.603 237.565 253.934 237.091C254.27 236.611 254.71 236.371 255.254 236.371C255.819 236.371 256.267 236.611 256.598 237.091C256.934 237.565 257.102 238.213 257.102 239.035C257.102 239.851 256.942 240.504 256.622 240.995C256.302 241.485 255.846 241.731 255.254 241.731C254.704 241.731 254.264 241.485 253.934 240.995C253.603 240.504 253.438 239.851 253.438 239.035ZM254.43 237.515C254.2 237.872 254.086 238.379 254.086 239.035C254.086 239.691 254.198 240.205 254.422 240.579C254.646 240.947 254.923 241.131 255.254 241.131C255.622 241.131 255.912 240.949 256.126 240.587C256.344 240.224 256.454 239.707 256.454 239.035C256.454 238.368 256.339 237.859 256.11 237.507C255.886 237.149 255.6 236.971 255.254 236.971C254.934 236.971 254.659 237.152 254.43 237.515ZM257.789 239.035C257.789 238.213 257.955 237.565 258.285 237.091C258.621 236.611 259.061 236.371 259.605 236.371C260.171 236.371 260.619 236.611 260.949 237.091C261.285 237.565 261.453 238.213 261.453 239.035C261.453 239.851 261.293 240.504 260.973 240.995C260.653 241.485 260.197 241.731 259.605 241.731C259.056 241.731 258.616 241.485 258.285 240.995C257.955 240.504 257.789 239.851 257.789 239.035ZM258.781 237.515C258.552 237.872 258.437 238.379 258.437 239.035C258.437 239.691 258.549 240.205 258.773 240.579C258.997 240.947 259.275 241.131 259.605 241.131C259.973 241.131 260.264 240.949 260.477 240.587C260.696 240.224 260.805 239.707 260.805 239.035C260.805 238.368 260.691 237.859 260.461 237.507C260.237 237.149 259.952 236.971 259.605 236.971C259.285 236.971 259.011 237.152 258.781 237.515ZM262.141 239.035C262.141 238.213 262.306 237.565 262.637 237.091C262.973 236.611 263.413 236.371 263.957 236.371C264.522 236.371 264.97 236.611 265.301 237.091C265.637 237.565 265.805 238.213 265.805 239.035C265.805 239.851 265.645 240.504 265.325 240.995C265.005 241.485 264.549 241.731 263.957 241.731C263.408 241.731 262.968 241.485 262.637 240.995C262.306 240.504 262.141 239.851 262.141 239.035ZM263.133 237.515C262.904 237.872 262.789 238.379 262.789 239.035C262.789 239.691 262.901 240.205 263.125 240.579C263.349 240.947 263.626 241.131 263.957 241.131C264.325 241.131 264.616 240.949 264.829 240.587C265.048 240.224 265.157 239.707 265.157 239.035C265.157 238.368 265.042 237.859 264.813 237.507C264.589 237.149 264.304 236.971 263.957 236.971C263.637 236.971 263.362 237.152 263.133 237.515ZM266.084 242.651L266.828 240.859H267.668L266.636 242.651H266.084ZM268.289 239.035C268.289 238.213 268.455 237.565 268.785 237.091C269.121 236.611 269.561 236.371 270.105 236.371C270.671 236.371 271.119 236.611 271.449 237.091C271.785 237.565 271.953 238.213 271.953 239.035C271.953 239.851 271.793 240.504 271.473 240.995C271.153 241.485 270.697 241.731 270.105 241.731C269.556 241.731 269.116 241.485 268.785 240.995C268.455 240.504 268.289 239.851 268.289 239.035ZM269.281 237.515C269.052 237.872 268.937 238.379 268.937 239.035C268.937 239.691 269.049 240.205 269.273 240.579C269.497 240.947 269.775 241.131 270.105 241.131C270.473 241.131 270.764 240.949 270.977 240.587C271.196 240.224 271.305 239.707 271.305 239.035C271.305 238.368 271.191 237.859 270.961 237.507C270.737 237.149 270.452 236.971 270.105 236.971C269.785 236.971 269.511 237.152 269.281 237.515ZM272.641 239.035C272.641 238.213 272.806 237.565 273.137 237.091C273.473 236.611 273.913 236.371 274.457 236.371C275.022 236.371 275.47 236.611 275.801 237.091C276.137 237.565 276.305 238.213 276.305 239.035C276.305 239.851 276.145 240.504 275.825 240.995C275.505 241.485 275.049 241.731 274.457 241.731C273.908 241.731 273.468 241.485 273.137 240.995C272.806 240.504 272.641 239.851 272.641 239.035ZM273.633 237.515C273.404 237.872 273.289 238.379 273.289 239.035C273.289 239.691 273.401 240.205 273.625 240.579C273.849 240.947 274.126 241.131 274.457 241.131C274.825 241.131 275.116 240.949 275.329 240.587C275.548 240.224 275.657 239.707 275.657 239.035C275.657 238.368 275.542 237.859 275.313 237.507C275.089 237.149 274.804 236.971 274.457 236.971C274.137 236.971 273.862 237.152 273.633 237.515ZM276.992 239.035C276.992 238.213 277.158 237.565 277.488 237.091C277.824 236.611 278.264 236.371 278.808 236.371C279.374 236.371 279.822 236.611 280.152 237.091C280.488 237.565 280.656 238.213 280.656 239.035C280.656 239.851 280.496 240.504 280.176 240.995C279.856 241.485 279.4 241.731 278.808 241.731C278.259 241.731 277.819 241.485 277.488 240.995C277.158 240.504 276.992 239.851 276.992 239.035ZM277.984 237.515C277.755 237.872 277.64 238.379 277.64 239.035C277.64 239.691 277.752 240.205 277.976 240.579C278.2 240.947 278.478 241.131 278.808 241.131C279.176 241.131 279.467 240.949 279.68 240.587C279.899 240.224 280.008 239.707 280.008 239.035C280.008 238.368 279.894 237.859 279.664 237.507C279.44 237.149 279.155 236.971 278.808 236.971C278.488 236.971 278.214 237.152 277.984 237.515Z" fill="#2B2B2B"/>
<rect x="109" y="270" width="120" height="24" rx="8" fill="#FF1934"/>
<path d="M157.959 283.176L158.823 283.176C159.468 283.176 159.791 282.931 159.791 282.44C159.791 281.939 159.455 281.688 158.783 281.688L157.959 281.688L157.959 283.176ZM157.959 279.432L157.959 280.88L158.567 280.88C158.929 280.88 159.201 280.808 159.383 280.664C159.564 280.52 159.655 280.336 159.655 280.112C159.655 279.904 159.577 279.739 159.423 279.616C159.273 279.493 159.044 279.432 158.735 279.432L157.959 279.432ZM156.951 278.608L158.863 278.608C159.439 278.608 159.887 278.744 160.207 279.016C160.527 279.288 160.687 279.64 160.687 280.072C160.687 280.365 160.607 280.621 160.447 280.84C160.287 281.053 160.081 281.195 159.831 281.264C160.119 281.333 160.356 281.475 160.543 281.688C160.729 281.896 160.823 282.181 160.823 282.544C160.823 282.971 160.673 283.32 160.375 283.592C160.076 283.864 159.663 284 159.135 284L156.951 284L156.951 278.608ZM163.053 281.952L164.573 281.952L164.501 281.712C164.32 281.136 164.17 280.653 164.053 280.264C163.941 279.869 163.872 279.621 163.845 279.52L163.813 279.36C163.765 279.627 163.536 280.413 163.125 281.72L163.053 281.952ZM165.213 284L164.829 282.776L162.789 282.776L162.405 284L161.349 284L163.173 278.608L164.477 278.608L166.301 284L165.213 284ZM171.364 278.608L169.508 282L169.508 284L168.5 284L168.5 282.032L166.66 278.608L167.836 278.608L168.196 279.392C168.404 279.845 168.574 280.227 168.708 280.536C168.841 280.84 168.921 281.029 168.948 281.104L168.996 281.224C169.044 281.027 169.318 280.416 169.82 279.392L170.188 278.608L171.364 278.608ZM173.436 281.952L174.956 281.952L174.884 281.712C174.702 281.136 174.553 280.653 174.436 280.264C174.324 279.869 174.254 279.621 174.228 279.52L174.196 279.36C174.148 279.627 173.918 280.413 173.508 281.72L173.436 281.952ZM175.596 284L175.212 282.776L173.172 282.776L172.788 284L171.732 284L173.556 278.608L174.86 278.608L176.684 284L175.596 284ZM178.466 279.44L178.466 281.2L179.138 281.2C179.448 281.2 179.68 281.123 179.834 280.968C179.989 280.808 180.066 280.587 180.066 280.304C180.066 280.027 179.984 279.813 179.818 279.664C179.658 279.515 179.426 279.44 179.122 279.44L178.466 279.44ZM180.242 284L179.018 282.032L178.466 282.032L178.466 284L177.458 284L177.458 278.608L179.122 278.608C179.736 278.608 180.216 278.763 180.562 279.072C180.914 279.381 181.09 279.795 181.09 280.312C181.085 280.696 180.992 281.021 180.81 281.288C180.629 281.549 180.381 281.744 180.066 281.872L181.45 284L180.242 284Z" fill="white"/>
<path d="M9 341.5H329C333.694 341.5 337.5 345.306 337.5 350C337.5 354.694 333.694 358.5 329 358.5H9C4.30558 358.5 0.5 354.694 0.5 350C0.500002 345.306 4.30558 341.5 9 341.5Z" fill="white"/>
<path d="M9 341.5H329C333.694 341.5 337.5 345.306 337.5 350C337.5 354.694 333.694 358.5 329 358.5H9C4.30558 358.5 0.5 354.694 0.5 350C0.500002 345.306 4.30558 341.5 9 341.5Z" stroke="#CCCCCC"/>
<path d="M7.86805e-07 350C3.52265e-07 345.029 4.02944 341 9 341L39 341C43.9706 341 48 345.029 48 350C48 354.971 43.9706 359 39 359L9 359C4.02944 359 1.22135e-06 354.971 7.86805e-07 350Z" fill="#FF1934"/>
<path d="M15.448 346.688H16.264L16.816 348.6L17.456 350.92C17.5893 350.179 17.7547 349.403 17.952 348.592L18.44 346.608H19.464L18.088 352H16.92L16.432 350.296C16.2987 349.843 16.184 349.443 16.088 349.096C15.9973 348.749 15.936 348.517 15.904 348.4L15.864 348.216C15.7893 348.589 15.6027 349.283 15.304 350.296L14.8 352H13.64L12.2 346.608H13.264L13.768 348.6C13.8533 348.957 13.9387 349.328 14.024 349.712C14.1093 350.096 14.1733 350.389 14.216 350.592L14.28 350.904C14.4507 350.232 14.6587 349.464 14.904 348.6L15.448 346.688ZM22.2561 350.256H21.7601C21.5094 350.256 21.3174 350.309 21.1841 350.416C21.0507 350.517 20.9841 350.648 20.9841 350.808C20.9841 351.149 21.1814 351.32 21.5761 351.32C21.7894 351.32 21.9547 351.259 22.0721 351.136C22.1947 351.008 22.2561 350.843 22.2561 350.64V350.256ZM20.2881 349.04V348.152C20.5921 347.965 21.0294 347.872 21.6001 347.872C22.6987 347.872 23.2481 348.384 23.2481 349.408V352H22.2961V351.512C22.1094 351.859 21.7574 352.032 21.2401 352.032C20.8561 352.032 20.5494 351.92 20.3201 351.696C20.0961 351.472 19.9841 351.189 19.9841 350.848C19.9841 350.464 20.1281 350.163 20.4161 349.944C20.7041 349.725 21.1201 349.616 21.6641 349.616H22.2561V349.368C22.2561 349.144 22.1974 348.973 22.0801 348.856C21.9627 348.739 21.7627 348.68 21.4801 348.68C21.0481 348.68 20.6507 348.8 20.2881 349.04ZM27.7828 352H26.6548L25.1988 349.904V352H24.2388V346.44H25.1988V349.848L26.6308 347.944H27.7508L26.2628 349.88L27.7828 352ZM29.5864 348.664V350.728C29.5864 350.899 29.6318 351.029 29.7224 351.12C29.8131 351.205 29.9384 351.248 30.0984 351.248C30.3011 351.248 30.4878 351.192 30.6584 351.08V351.904C30.4718 351.995 30.2318 352.04 29.9384 352.04C29.0638 352.04 28.6264 351.597 28.6264 350.712V348.664H28.0184V347.944H28.6264V346.968H29.5864V347.944H30.5944V348.664H29.5864ZM33.9617 347.944H34.9297V352H33.9617V351.336C33.7484 351.805 33.3324 352.04 32.7137 352.04C32.303 352.04 31.983 351.923 31.7537 351.688C31.5244 351.453 31.4097 351.12 31.4097 350.688V347.944H32.3697V350.464C32.3697 350.72 32.431 350.915 32.5537 351.048C32.6817 351.181 32.855 351.248 33.0737 351.248C33.351 351.248 33.567 351.155 33.7217 350.968C33.8817 350.781 33.9617 350.499 33.9617 350.12V347.944Z" fill="white"/>
<rect x="56" y="348" width="274" height="4" rx="2" fill="#CCCCCC"/>
<mask id="mask0_1124_4113" style="mask-type:alpha" maskUnits="userSpaceOnUse" x="56" y="348" width="274" height="4">
<rect x="56" y="348" width="274" height="4" rx="2" fill="#CCCCCC"/>
</mask>
<g mask="url(#mask0_1124_4113)">
<rect x="56" y="348" width="274" height="4" rx="2" fill="#FF1934"/>
</g>
<defs>
<filter id="filter0_d_1124_4113" x="22.5" y="14" width="293" height="56" filterUnits="userSpaceOnUse" color-interpolation-filters="sRGB">
<feFlood flood-opacity="0" result="BackgroundImageFix"/>
<feColorMatrix in="SourceAlpha" type="matrix" values="0 0 0 0 0 0 0 0 0 0 0 0 0 0 0 0 0 0 127 0" result="hardAlpha"/>
<feOffset dy="2"/>
<feGaussianBlur stdDeviation="2"/>
<feComposite in2="hardAlpha" operator="out"/>
<feColorMatrix type="matrix" values="0 0 0 0 0.168627 0 0 0 0 0.168627 0 0 0 0 0.168627 0 0 0 0.24 0"/>
<feBlend mode="normal" in2="BackgroundImageFix" result="effect1_dropShadow_1124_4113"/>
<feBlend mode="normal" in="SourceGraphic" in2="effect1_dropShadow_1124_4113" result="shape"/>
</filter>
<clipPath id="clip0_1124_4113">
<rect width="24" height="24" fill="white" transform="translate(42.5 32)"/>
</clipPath>
<clipPath id="clip1_1124_4113">
<rect width="68" height="68" fill="white" transform="translate(135 72)"/>
</clipPath>
</defs>
</svg>
