<svg width="338" height="375" viewBox="0 0 338 375" fill="none" xmlns="http://www.w3.org/2000/svg">
<rect width="338" height="375" fill="#D3D3D3"/>
<rect x="26.5" y="59" width="285" height="256" rx="16" fill="white"/>
<g filter="url(#filter0_d_1124_4113)">
<path d="M26.5 75C26.5 66.1634 33.6634 59 42.5 59H295.5C304.337 59 311.5 66.1634 311.5 75V107H26.5V75Z" fill="#FF1934" shape-rendering="crispEdges"/>
<g clip-path="url(#clip0_1124_4113)">
<path d="M64.19 90.57C63.63 90.13 63.02 89.77 62.38 89.5C62.23 89.43 62.17 89.31 62.15 89.21C62.11 89.06 62.15 88.89 62.25 88.77C63.13 87.72 63.65 86.33 63.65 85.06C63.65 82.54 61.6 80.49 59.08 80.49C58.85 80.49 58.61 80.52 58.37 80.56C57.36 79.59 56 79 54.5 79C53 79 51.64 79.6 50.63 80.56C50.38 80.52 50.15 80.49 49.92 80.49C47.4 80.49 45.35 82.54 45.35 85.06C45.35 86.33 45.87 87.72 46.75 88.77C46.85 88.89 46.89 89.06 46.85 89.21C46.83 89.3 46.77 89.43 46.62 89.49C45.98 89.76 45.38 90.12 44.81 90.56C44.46 90.83 44.4 91.33 44.67 91.68C44.83 91.88 45.06 91.99 45.3 91.99C45.47 91.99 45.64 91.94 45.79 91.82C46.25 91.47 46.74 91.17 47.25 90.95C47.83 90.7 48.25 90.19 48.4 89.57C48.55 88.93 48.4 88.24 47.97 87.73C47.34 86.97 46.94 85.94 46.94 85.05C46.94 83.56 48.04 82.34 49.48 82.12C49.11 82.86 48.9 83.7 48.9 84.58C48.9 86.15 49.55 87.86 50.63 89.16C50.8 89.37 50.87 89.65 50.81 89.91C50.78 90.05 50.68 90.3 50.39 90.42C48.75 91.13 47.3 92.26 46.21 93.69C45.94 94.04 46.01 94.54 46.36 94.81C46.51 94.92 46.68 94.97 46.84 94.97C47.08 94.97 47.32 94.86 47.48 94.65C48.4 93.44 49.62 92.48 51.02 91.88C51.7 91.59 52.19 91 52.36 90.27C52.54 89.52 52.36 88.72 51.86 88.12C51.02 87.11 50.5 85.75 50.5 84.56C50.5 83.54 50.9 82.62 51.53 81.91C51.53 81.91 51.54 81.9 51.55 81.89C52.28 81.08 53.33 80.56 54.5 80.56C55.67 80.56 56.72 81.08 57.45 81.88C57.45 81.88 57.46 81.9 57.47 81.91C58.1 82.62 58.5 83.54 58.5 84.56C58.5 85.75 57.98 87.11 57.14 88.12C56.36 89.05 55.43 89.56 54.5 89.56C54.06 89.56 53.7 89.92 53.7 90.36C53.7 90.8 54.06 91.16 54.5 91.16C55.27 91.16 56.03 90.94 56.73 90.53C56.95 91.13 57.38 91.62 57.98 91.87C59.37 92.47 60.59 93.43 61.52 94.64C61.68 94.85 61.92 94.96 62.16 94.96C62.33 94.96 62.5 94.91 62.64 94.8C62.99 94.53 63.06 94.03 62.79 93.68C61.7 92.25 60.26 91.12 58.62 90.41C58.33 90.29 58.23 90.03 58.2 89.9C58.14 89.64 58.2 89.36 58.38 89.15C59.46 87.85 60.11 86.14 60.11 84.57C60.11 83.68 59.9 82.85 59.53 82.11C60.96 82.32 62.07 83.55 62.07 85.04C62.07 85.94 61.68 86.96 61.04 87.72C60.62 88.23 60.46 88.91 60.61 89.56C60.76 90.19 61.18 90.69 61.77 90.94C62.28 91.16 62.77 91.45 63.23 91.81C63.38 91.92 63.55 91.98 63.72 91.98C63.96 91.98 64.2 91.87 64.35 91.67C64.62 91.32 64.56 90.82 64.21 90.55L64.19 90.57Z" fill="white"/>
</g>
<path d="M78.168 87.332H80.436L80.338 86.996C80.0673 86.0813 79.8433 85.302 79.666 84.658C79.498 84.014 79.3953 83.5987 79.358 83.412L79.302 83.132C79.2273 83.6453 78.882 84.9333 78.266 86.996L78.168 87.332ZM81.528 91L80.954 89.068H77.65L77.076 91H74.822L77.972 81.564H80.688L83.838 91H81.528ZM87.05 83.902V85.106C87.2273 84.714 87.498 84.406 87.862 84.182C88.2353 83.9487 88.6787 83.832 89.192 83.832C89.92 83.832 90.4893 84.0513 90.9 84.49C91.3107 84.9193 91.516 85.554 91.516 86.394V91H89.472V86.772C89.472 86.352 89.374 86.0347 89.178 85.82C88.982 85.596 88.7067 85.484 88.352 85.484C87.9787 85.484 87.666 85.6333 87.414 85.932C87.1713 86.2213 87.05 86.66 87.05 87.248V91H85.006V83.902H87.05ZM96.3891 89.376C96.8558 89.376 97.2338 89.194 97.5231 88.83C97.8124 88.466 97.9571 87.9807 97.9571 87.374C97.9571 86.786 97.7984 86.3287 97.4811 86.002C97.1731 85.6753 96.8044 85.512 96.3751 85.512C95.9458 85.512 95.5818 85.6847 95.2831 86.03C94.9938 86.3753 94.8491 86.856 94.8491 87.472C94.8491 88.0413 94.9984 88.5033 95.2971 88.858C95.5958 89.2033 95.9598 89.376 96.3891 89.376ZM97.9571 81.102H100.001V91H97.9571V89.894C97.4811 90.6873 96.7718 91.084 95.8291 91.084C94.9051 91.084 94.1631 90.7247 93.6031 90.006C93.0524 89.2873 92.7771 88.4287 92.7771 87.43C92.7771 86.31 93.0664 85.428 93.6451 84.784C94.2238 84.14 94.9564 83.818 95.8431 83.818C96.7671 83.818 97.4718 84.21 97.9571 84.994V81.102ZM105.2 88.088H104.542C104.196 88.088 103.93 88.1627 103.744 88.312C103.557 88.4613 103.464 88.6527 103.464 88.886C103.464 89.362 103.739 89.6 104.29 89.6C104.579 89.6 104.803 89.5113 104.962 89.334C105.12 89.1567 105.2 88.914 105.2 88.606V88.088ZM101.882 86.086V84.252C102.442 83.9347 103.249 83.776 104.304 83.776C105.312 83.776 106.063 83.9953 106.558 84.434C107.052 84.8633 107.3 85.5353 107.3 86.45V91H105.298V90.132C104.999 90.7387 104.411 91.042 103.534 91.042C102.843 91.042 102.302 90.846 101.91 90.454C101.527 90.062 101.336 89.572 101.336 88.984C101.336 88.3027 101.583 87.7753 102.078 87.402C102.582 87.0193 103.324 86.828 104.304 86.828H105.2V86.338C105.2 85.7407 104.803 85.442 104.01 85.442C103.244 85.442 102.535 85.6567 101.882 86.086ZM116.016 89.376C116.446 89.376 116.81 89.2033 117.108 88.858C117.407 88.5033 117.556 88.0413 117.556 87.472C117.556 86.856 117.407 86.3753 117.108 86.03C116.819 85.6847 116.46 85.512 116.03 85.512C115.601 85.512 115.228 85.6753 114.91 86.002C114.602 86.3287 114.448 86.786 114.448 87.374C114.448 87.9807 114.593 88.466 114.882 88.83C115.172 89.194 115.55 89.376 116.016 89.376ZM114.448 81.102V84.994C114.934 84.21 115.638 83.818 116.562 83.818C117.449 83.818 118.182 84.14 118.76 84.784C119.339 85.428 119.628 86.31 119.628 87.43C119.628 88.4287 119.348 89.2873 118.788 90.006C118.238 90.7247 117.5 91.084 116.576 91.084C115.634 91.084 114.924 90.6873 114.448 89.894V91H112.404V81.102H114.448ZM125.065 86.8V86.632C125 85.8013 124.636 85.386 123.973 85.386C123.646 85.386 123.357 85.5073 123.105 85.75C122.853 85.9833 122.685 86.3333 122.601 86.8H125.065ZM126.535 88.886V90.594C126.05 90.9113 125.308 91.07 124.309 91.07C123.142 91.07 122.232 90.734 121.579 90.062C120.935 89.3807 120.613 88.508 120.613 87.444C120.613 86.3147 120.926 85.4327 121.551 84.798C122.186 84.154 122.965 83.832 123.889 83.832C124.841 83.832 125.592 84.112 126.143 84.672C126.694 85.2227 126.969 86.0487 126.969 87.15C126.969 87.3647 126.932 87.7333 126.857 88.256H122.685C122.825 88.648 123.068 88.9513 123.413 89.166C123.758 89.3807 124.174 89.488 124.659 89.488C125.378 89.488 126.003 89.2873 126.535 88.886ZM130.458 83.902V85.218C130.589 84.8073 130.803 84.4807 131.102 84.238C131.41 83.986 131.765 83.86 132.166 83.86C132.39 83.86 132.567 83.8787 132.698 83.916V85.848C132.474 85.7453 132.217 85.694 131.928 85.694C131.489 85.694 131.135 85.8573 130.864 86.184C130.593 86.5013 130.458 86.926 130.458 87.458V91H128.414L128.428 83.902H130.458ZM137.124 88.088H136.466C136.12 88.088 135.854 88.1627 135.668 88.312C135.481 88.4613 135.388 88.6527 135.388 88.886C135.388 89.362 135.663 89.6 136.214 89.6C136.503 89.6 136.727 89.5113 136.886 89.334C137.044 89.1567 137.124 88.914 137.124 88.606V88.088ZM133.806 86.086V84.252C134.366 83.9347 135.173 83.776 136.228 83.776C137.236 83.776 137.987 83.9953 138.482 84.434C138.976 84.8633 139.224 85.5353 139.224 86.45V91H137.222V90.132C136.923 90.7387 136.335 91.042 135.458 91.042C134.767 91.042 134.226 90.846 133.834 90.454C133.451 90.062 133.26 89.572 133.26 88.984C133.26 88.3027 133.507 87.7753 134.002 87.402C134.506 87.0193 135.248 86.828 136.228 86.828H137.124V86.338C137.124 85.7407 136.727 85.442 135.934 85.442C135.168 85.442 134.459 85.6567 133.806 86.086ZM144.09 89.376C144.557 89.376 144.935 89.194 145.224 88.83C145.514 88.466 145.658 87.9807 145.658 87.374C145.658 86.786 145.5 86.3287 145.182 86.002C144.874 85.6753 144.506 85.512 144.076 85.512C143.647 85.512 143.283 85.6847 142.984 86.03C142.695 86.3753 142.55 86.856 142.55 87.472C142.55 88.0413 142.7 88.5033 142.998 88.858C143.297 89.2033 143.661 89.376 144.09 89.376ZM145.658 81.102H147.702V91H145.658V89.894C145.182 90.6873 144.473 91.084 143.53 91.084C142.606 91.084 141.864 90.7247 141.304 90.006C140.754 89.2873 140.478 88.4287 140.478 87.43C140.478 86.31 140.768 85.428 141.346 84.784C141.925 84.14 142.658 83.818 143.544 83.818C144.468 83.818 145.173 84.21 145.658 84.994V81.102ZM152.901 88.088H152.243C151.898 88.088 151.632 88.1627 151.445 88.312C151.258 88.4613 151.165 88.6527 151.165 88.886C151.165 89.362 151.44 89.6 151.991 89.6C152.28 89.6 152.504 89.5113 152.663 89.334C152.822 89.1567 152.901 88.914 152.901 88.606V88.088ZM149.583 86.086V84.252C150.143 83.9347 150.95 83.776 152.005 83.776C153.013 83.776 153.764 83.9953 154.259 84.434C154.754 84.8633 155.001 85.5353 155.001 86.45V91H152.999V90.132C152.7 90.7387 152.112 91.042 151.235 91.042C150.544 91.042 150.003 90.846 149.611 90.454C149.228 90.062 149.037 89.572 149.037 88.984C149.037 88.3027 149.284 87.7753 149.779 87.402C150.283 87.0193 151.025 86.828 152.005 86.828H152.901V86.338C152.901 85.7407 152.504 85.442 151.711 85.442C150.946 85.442 150.236 85.6567 149.583 86.086ZM163.368 89.376C163.834 89.376 164.212 89.194 164.502 88.83C164.791 88.466 164.936 87.9807 164.936 87.374C164.936 86.786 164.777 86.3287 164.46 86.002C164.152 85.6753 163.783 85.512 163.354 85.512C162.924 85.512 162.56 85.6847 162.262 86.03C161.972 86.3753 161.828 86.856 161.828 87.472C161.828 88.0413 161.977 88.5033 162.276 88.858C162.574 89.2033 162.938 89.376 163.368 89.376ZM164.936 81.102H166.98V91H164.936V89.894C164.46 90.6873 163.75 91.084 162.808 91.084C161.884 91.084 161.142 90.7247 160.582 90.006C160.031 89.2873 159.756 88.4287 159.756 87.43C159.756 86.31 160.045 85.428 160.624 84.784C161.202 84.14 161.935 83.818 162.822 83.818C163.746 83.818 164.45 84.21 164.936 84.994V81.102ZM168.734 91V83.902H170.778V91H168.734ZM168.916 82.684C168.683 82.4507 168.566 82.1707 168.566 81.844C168.566 81.5173 168.683 81.2373 168.916 81.004C169.15 80.7707 169.43 80.654 169.756 80.654C170.083 80.654 170.363 80.7707 170.596 81.004C170.83 81.2373 170.946 81.5173 170.946 81.844C170.946 82.1707 170.83 82.4507 170.596 82.684C170.363 82.9173 170.083 83.034 169.756 83.034C169.43 83.034 169.15 82.9173 168.916 82.684ZM178.259 86.24H178.973C180.112 86.24 180.681 85.722 180.681 84.686C180.681 83.7527 180.154 83.286 179.099 83.286H178.259V86.24ZM176.103 81.564H179.351C180.397 81.564 181.241 81.858 181.885 82.446C182.539 83.034 182.865 83.7807 182.865 84.686C182.865 85.722 182.525 86.5247 181.843 87.094C181.171 87.6633 180.341 87.948 179.351 87.948H178.259V91H176.103V81.564ZM187.436 88.088H186.778C186.433 88.088 186.167 88.1627 185.98 88.312C185.793 88.4613 185.7 88.6527 185.7 88.886C185.7 89.362 185.975 89.6 186.526 89.6C186.815 89.6 187.039 89.5113 187.198 89.334C187.357 89.1567 187.436 88.914 187.436 88.606V88.088ZM184.118 86.086V84.252C184.678 83.9347 185.485 83.776 186.54 83.776C187.548 83.776 188.299 83.9953 188.794 84.434C189.289 84.8633 189.536 85.5353 189.536 86.45V91H187.534V90.132C187.235 90.7387 186.647 91.042 185.77 91.042C185.079 91.042 184.538 90.846 184.146 90.454C183.763 90.062 183.572 89.572 183.572 88.984C183.572 88.3027 183.819 87.7753 184.314 87.402C184.818 87.0193 185.56 86.828 186.54 86.828H187.436V86.338C187.436 85.7407 187.039 85.442 186.246 85.442C185.481 85.442 184.771 85.6567 184.118 86.086ZM194.781 89.376C195.229 89.376 195.593 89.208 195.873 88.872C196.153 88.5267 196.293 88.06 196.293 87.472C196.293 86.828 196.148 86.3427 195.859 86.016C195.579 85.68 195.219 85.512 194.781 85.512C194.351 85.512 193.978 85.6753 193.661 86.002C193.343 86.3287 193.185 86.786 193.185 87.374C193.185 87.9807 193.334 88.466 193.633 88.83C193.931 89.194 194.314 89.376 194.781 89.376ZM193.185 83.902V84.994C193.679 84.21 194.393 83.818 195.327 83.818C196.241 83.818 196.974 84.1447 197.525 84.798C198.085 85.442 198.365 86.3193 198.365 87.43C198.365 88.4847 198.094 89.3573 197.553 90.048C197.021 90.7387 196.279 91.084 195.327 91.084C194.365 91.084 193.651 90.706 193.185 89.95V93.618H191.141V83.902H193.185ZM203.213 88.088H202.555C202.21 88.088 201.944 88.1627 201.757 88.312C201.571 88.4613 201.477 88.6527 201.477 88.886C201.477 89.362 201.753 89.6 202.303 89.6C202.593 89.6 202.817 89.5113 202.975 89.334C203.134 89.1567 203.213 88.914 203.213 88.606V88.088ZM199.895 86.086V84.252C200.455 83.9347 201.263 83.776 202.317 83.776C203.325 83.776 204.077 83.9953 204.571 84.434C205.066 84.8633 205.313 85.5353 205.313 86.45V91H203.311V90.132C203.013 90.7387 202.425 91.042 201.547 91.042C200.857 91.042 200.315 90.846 199.923 90.454C199.541 90.062 199.349 89.572 199.349 88.984C199.349 88.3027 199.597 87.7753 200.091 87.402C200.595 87.0193 201.337 86.828 202.317 86.828H203.213V86.338C203.213 85.7407 202.817 85.442 202.023 85.442C201.258 85.442 200.549 85.6567 199.895 86.086ZM208.962 83.902V85.106C209.139 84.714 209.41 84.406 209.774 84.182C210.147 83.9487 210.591 83.832 211.104 83.832C211.832 83.832 212.401 84.0513 212.812 84.49C213.223 84.9193 213.428 85.554 213.428 86.394V91H211.384V86.772C211.384 86.352 211.286 86.0347 211.09 85.82C210.894 85.596 210.619 85.484 210.264 85.484C209.891 85.484 209.578 85.6333 209.326 85.932C209.083 86.2213 208.962 86.66 208.962 87.248V91H206.918V83.902H208.962ZM220.765 86.24H221.479C222.618 86.24 223.187 85.722 223.187 84.686C223.187 83.7527 222.66 83.286 221.605 83.286H220.765V86.24ZM218.609 81.564H221.857C222.903 81.564 223.747 81.858 224.391 82.446C225.045 83.034 225.371 83.7807 225.371 84.686C225.371 85.722 225.031 86.5247 224.349 87.094C223.677 87.6633 222.847 87.948 221.857 87.948H220.765V91H218.609V81.564ZM230.53 86.8V86.632C230.465 85.8013 230.101 85.386 229.438 85.386C229.111 85.386 228.822 85.5073 228.57 85.75C228.318 85.9833 228.15 86.3333 228.066 86.8H230.53ZM232 88.886V90.594C231.515 90.9113 230.773 91.07 229.774 91.07C228.607 91.07 227.697 90.734 227.044 90.062C226.4 89.3807 226.078 88.508 226.078 87.444C226.078 86.3147 226.391 85.4327 227.016 84.798C227.651 84.154 228.43 83.832 229.354 83.832C230.306 83.832 231.057 84.112 231.608 84.672C232.159 85.2227 232.434 86.0487 232.434 87.15C232.434 87.3647 232.397 87.7333 232.322 88.256H228.15C228.29 88.648 228.533 88.9513 228.878 89.166C229.223 89.3807 229.639 89.488 230.124 89.488C230.843 89.488 231.468 89.2873 232 88.886ZM240.571 91H238.205L235.937 87.514V91H233.893V81.34H235.937V87.08L238.177 83.902H240.529L238.065 87.304L240.571 91ZM245.665 86.8V86.632C245.599 85.8013 245.235 85.386 244.573 85.386C244.246 85.386 243.957 85.5073 243.705 85.75C243.453 85.9833 243.285 86.3333 243.201 86.8H245.665ZM247.135 88.886V90.594C246.649 90.9113 245.907 91.07 244.909 91.07C243.742 91.07 242.832 90.734 242.179 90.062C241.535 89.3807 241.213 88.508 241.213 87.444C241.213 86.3147 241.525 85.4327 242.151 84.798C242.785 84.154 243.565 83.832 244.489 83.832C245.441 83.832 246.192 84.112 246.743 84.672C247.293 85.2227 247.569 86.0487 247.569 87.15C247.569 87.3647 247.531 87.7333 247.457 88.256H243.285C243.425 88.648 243.667 88.9513 244.013 89.166C244.358 89.3807 244.773 89.488 245.259 89.488C245.977 89.488 246.603 89.2873 247.135 88.886ZM251.058 83.902V85.218C251.188 84.8073 251.403 84.4807 251.702 84.238C252.01 83.986 252.364 83.86 252.766 83.86C252.99 83.86 253.167 83.8787 253.298 83.916V85.848C253.074 85.7453 252.817 85.694 252.528 85.694C252.089 85.694 251.734 85.8573 251.464 86.184C251.193 86.5013 251.058 86.926 251.058 87.458V91H249.014L249.028 83.902H251.058ZM252.809 93.548V91.994C253.117 92.134 253.383 92.204 253.607 92.204C254.092 92.204 254.335 91.8913 254.335 91.266V83.902H256.365V91.294C256.365 92.0407 256.155 92.638 255.735 93.086C255.315 93.5433 254.708 93.772 253.915 93.772C253.588 93.772 253.22 93.6973 252.809 93.548ZM254.503 82.684C254.27 82.4507 254.153 82.1707 254.153 81.844C254.153 81.5173 254.27 81.2373 254.503 81.004C254.736 80.7707 255.016 80.654 255.343 80.654C255.67 80.654 255.95 80.7707 256.183 81.004C256.416 81.2373 256.533 81.5173 256.533 81.844C256.533 82.1707 256.416 82.4507 256.183 82.684C255.95 82.9173 255.67 83.034 255.343 83.034C255.016 83.034 254.736 82.9173 254.503 82.684ZM261.565 88.088H260.907C260.562 88.088 260.296 88.1627 260.109 88.312C259.922 88.4613 259.829 88.6527 259.829 88.886C259.829 89.362 260.104 89.6 260.655 89.6C260.944 89.6 261.168 89.5113 261.327 89.334C261.486 89.1567 261.565 88.914 261.565 88.606V88.088ZM258.247 86.086V84.252C258.807 83.9347 259.614 83.776 260.669 83.776C261.677 83.776 262.428 83.9953 262.923 84.434C263.418 84.8633 263.665 85.5353 263.665 86.45V91H261.663V90.132C261.364 90.7387 260.776 91.042 259.899 91.042C259.208 91.042 258.667 90.846 258.275 90.454C257.892 90.062 257.701 89.572 257.701 88.984C257.701 88.3027 257.948 87.7753 258.443 87.402C258.947 87.0193 259.689 86.828 260.669 86.828H261.565V86.338C261.565 85.7407 261.168 85.442 260.375 85.442C259.61 85.442 258.9 85.6567 258.247 86.086ZM268.784 88.088H268.126C267.78 88.088 267.514 88.1627 267.328 88.312C267.141 88.4613 267.048 88.6527 267.048 88.886C267.048 89.362 267.323 89.6 267.874 89.6C268.163 89.6 268.387 89.5113 268.546 89.334C268.704 89.1567 268.784 88.914 268.784 88.606V88.088ZM265.466 86.086V84.252C266.026 83.9347 266.833 83.776 267.888 83.776C268.896 83.776 269.647 83.9953 270.142 84.434C270.636 84.8633 270.884 85.5353 270.884 86.45V91H268.882V90.132C268.583 90.7387 267.995 91.042 267.118 91.042C266.427 91.042 265.886 90.846 265.494 90.454C265.111 90.062 264.92 89.572 264.92 88.984C264.92 88.3027 265.167 87.7753 265.662 87.402C266.166 87.0193 266.908 86.828 267.888 86.828H268.784V86.338C268.784 85.7407 268.387 85.442 267.594 85.442C266.828 85.442 266.119 85.6567 265.466 86.086ZM274.532 83.902V85.106C274.71 84.714 274.98 84.406 275.344 84.182C275.718 83.9487 276.161 83.832 276.674 83.832C277.402 83.832 277.972 84.0513 278.382 84.49C278.793 84.9193 278.998 85.554 278.998 86.394V91H276.954V86.772C276.954 86.352 276.856 86.0347 276.66 85.82C276.464 85.596 276.189 85.484 275.834 85.484C275.461 85.484 275.148 85.6333 274.896 85.932C274.654 86.2213 274.532 86.66 274.532 87.248V91H272.488V83.902H274.532Z" fill="white"/>
</g>
<path d="M46.87 175.53V176.55C46.4233 176.27 45.9167 176.13 45.35 176.13C44.9833 176.13 44.6933 176.213 44.48 176.38C44.2733 176.54 44.17 176.753 44.17 177.02C44.17 177.287 44.2733 177.5 44.48 177.66C44.6867 177.82 45.0033 177.993 45.43 178.18C45.71 178.3 45.9267 178.403 46.08 178.49C46.24 178.577 46.42 178.7 46.62 178.86C46.8267 179.013 46.9767 179.2 47.07 179.42C47.17 179.633 47.22 179.88 47.22 180.16C47.22 180.753 47.01 181.22 46.59 181.56C46.17 181.9 45.6267 182.07 44.96 182.07C44.22 182.07 43.6067 181.927 43.12 181.64V180.57C43.6467 180.963 44.2567 181.16 44.95 181.16C45.3167 181.16 45.6067 181.077 45.82 180.91C46.0333 180.737 46.14 180.5 46.14 180.2C46.14 180.02 46.0767 179.857 45.95 179.71C45.8233 179.557 45.6867 179.443 45.54 179.37C45.3933 179.29 45.1733 179.183 44.88 179.05C44.7067 178.97 44.5833 178.913 44.51 178.88C44.4433 178.847 44.33 178.787 44.17 178.7C44.01 178.613 43.89 178.54 43.81 178.48C43.7367 178.42 43.6433 178.337 43.53 178.23C43.4167 178.123 43.3333 178.017 43.28 177.91C43.2333 177.803 43.1867 177.68 43.14 177.54C43.1 177.393 43.08 177.237 43.08 177.07C43.08 176.497 43.2867 176.043 43.7 175.71C44.12 175.377 44.66 175.21 45.32 175.21C45.9267 175.21 46.4433 175.317 46.87 175.53ZM48.4448 182V176.93H49.4348V182H48.4448ZM48.4948 175.82C48.3815 175.7 48.3248 175.553 48.3248 175.38C48.3248 175.207 48.3815 175.06 48.4948 174.94C48.6148 174.82 48.7615 174.76 48.9348 174.76C49.1082 174.76 49.2548 174.82 49.3748 174.94C49.4948 175.06 49.5548 175.207 49.5548 175.38C49.5548 175.547 49.4948 175.69 49.3748 175.81C49.2548 175.93 49.1082 175.99 48.9348 175.99C48.7615 175.99 48.6148 175.933 48.4948 175.82ZM50.896 182V174.93H51.886V182H50.896ZM55.9772 179.74H55.2172C54.8439 179.74 54.5605 179.813 54.3672 179.96C54.1805 180.107 54.0872 180.293 54.0872 180.52C54.0872 180.753 54.1605 180.937 54.3072 181.07C54.4539 181.203 54.6672 181.27 54.9472 181.27C55.2672 181.27 55.5172 181.183 55.6972 181.01C55.8839 180.83 55.9772 180.597 55.9772 180.31V179.74ZM53.4272 178.14V177.19C53.8205 176.963 54.3405 176.85 54.9872 176.85C56.3139 176.85 56.9772 177.493 56.9772 178.78V182H56.0072V181.4C55.7472 181.827 55.2905 182.04 54.6372 182.04C54.1572 182.04 53.7705 181.903 53.4772 181.63C53.1905 181.35 53.0472 180.997 53.0472 180.57C53.0472 180.083 53.2305 179.707 53.5972 179.44C53.9639 179.167 54.4772 179.03 55.1372 179.03H55.9772V178.74C55.9772 178.393 55.8939 178.133 55.7272 177.96C55.5605 177.78 55.2839 177.69 54.8972 177.69C54.3572 177.69 53.8672 177.84 53.4272 178.14ZM58.2974 182V175H59.2774V182H58.2974ZM60.4474 179.35L62.4374 182H61.2674L59.3174 179.35L61.2274 176.93H62.3774L60.4474 179.35ZM65.9674 179.74H65.2074C64.8341 179.74 64.5508 179.813 64.3574 179.96C64.1708 180.107 64.0774 180.293 64.0774 180.52C64.0774 180.753 64.1508 180.937 64.2974 181.07C64.4441 181.203 64.6574 181.27 64.9374 181.27C65.2574 181.27 65.5074 181.183 65.6874 181.01C65.8741 180.83 65.9674 180.597 65.9674 180.31V179.74ZM63.4174 178.14V177.19C63.8108 176.963 64.3308 176.85 64.9774 176.85C66.3041 176.85 66.9674 177.493 66.9674 178.78V182H65.9974V181.4C65.7374 181.827 65.2808 182.04 64.6274 182.04C64.1474 182.04 63.7608 181.903 63.4674 181.63C63.1808 181.35 63.0374 180.997 63.0374 180.57C63.0374 180.083 63.2208 179.707 63.5874 179.44C63.9541 179.167 64.4674 179.03 65.1274 179.03H65.9674V178.74C65.9674 178.393 65.8841 178.133 65.7174 177.96C65.5508 177.78 65.2741 177.69 64.8874 177.69C64.3474 177.69 63.8574 177.84 63.4174 178.14ZM69.2677 176.93V177.8C69.5677 177.173 70.0943 176.86 70.8477 176.86C71.3477 176.86 71.7443 177.013 72.0377 177.32C72.331 177.627 72.4777 178.043 72.4777 178.57V182H71.4977V178.8C71.4977 178.447 71.4077 178.177 71.2277 177.99C71.0543 177.803 70.821 177.71 70.5277 177.71C70.181 177.71 69.8843 177.847 69.6377 178.12C69.391 178.387 69.2677 178.763 69.2677 179.25V182H68.2877V176.93H69.2677ZM78.5964 181.21C78.9897 181.21 79.3131 181.057 79.5664 180.75C79.8197 180.437 79.9464 180 79.9464 179.44C79.9464 178.913 79.8231 178.497 79.5764 178.19C79.3297 177.877 79.0164 177.72 78.6364 177.72C78.2564 177.72 77.9264 177.86 77.6464 178.14C77.3731 178.413 77.2364 178.85 77.2364 179.45C77.2364 180.037 77.3731 180.477 77.6464 180.77C77.9264 181.063 78.2431 181.21 78.5964 181.21ZM77.2364 176.93V177.71C77.5831 177.143 78.1031 176.86 78.7964 176.86C79.4631 176.86 79.9897 177.103 80.3764 177.59C80.7631 178.07 80.9564 178.683 80.9564 179.43C80.9564 180.197 80.7564 180.83 80.3564 181.33C79.9631 181.823 79.4364 182.07 78.7764 182.07C78.1031 182.07 77.5897 181.79 77.2364 181.23V183.94H76.2564V176.93H77.2364ZM85.2072 176.93H86.1872V182H85.2072V181.13C84.9405 181.75 84.4139 182.06 83.6272 182.06C83.1272 182.06 82.7305 181.913 82.4372 181.62C82.1439 181.32 81.9972 180.91 81.9972 180.39V176.93H82.9872V180.15C82.9872 180.497 83.0705 180.763 83.2372 180.95C83.4105 181.13 83.6472 181.22 83.9472 181.22C84.3272 181.22 84.6305 181.087 84.8572 180.82C85.0905 180.553 85.2072 180.177 85.2072 179.69V176.93ZM88.835 177.69V180.48C88.835 180.967 89.0683 181.21 89.535 181.21C89.8083 181.21 90.0383 181.137 90.225 180.99V181.87C90.005 181.99 89.735 182.05 89.415 182.05C88.3683 182.05 87.845 181.52 87.845 180.46V177.69H87.055V176.93H87.845V175.69H88.835V176.93H90.165V177.69H88.835ZM93.9752 179.74H93.2152C92.8419 179.74 92.5586 179.813 92.3652 179.96C92.1786 180.107 92.0852 180.293 92.0852 180.52C92.0852 180.753 92.1586 180.937 92.3052 181.07C92.4519 181.203 92.6652 181.27 92.9452 181.27C93.2652 181.27 93.5152 181.183 93.6952 181.01C93.8819 180.83 93.9752 180.597 93.9752 180.31V179.74ZM91.4252 178.14V177.19C91.8186 176.963 92.3386 176.85 92.9852 176.85C94.3119 176.85 94.9752 177.493 94.9752 178.78V182H94.0052V181.4C93.7452 181.827 93.2886 182.04 92.6352 182.04C92.1552 182.04 91.7686 181.903 91.4752 181.63C91.1886 181.35 91.0452 180.997 91.0452 180.57C91.0452 180.083 91.2286 179.707 91.5952 179.44C91.9619 179.167 92.4752 179.03 93.1352 179.03H93.9752V178.74C93.9752 178.393 93.8919 178.133 93.7252 177.96C93.5586 177.78 93.2819 177.69 92.8952 177.69C92.3552 177.69 91.8652 177.84 91.4252 178.14ZM97.2755 176.93V177.82C97.5221 177.193 97.9655 176.88 98.6055 176.88C98.6988 176.88 98.8021 176.89 98.9155 176.91V177.87C98.7755 177.81 98.6188 177.78 98.4455 177.78C98.1055 177.78 97.8255 177.93 97.6055 178.23C97.3855 178.53 97.2755 178.887 97.2755 179.3V182H96.2955V176.93H97.2755ZM105.295 176.93H106.275V182H105.295V181.13C105.028 181.75 104.502 182.06 103.715 182.06C103.215 182.06 102.818 181.913 102.525 181.62C102.232 181.32 102.085 180.91 102.085 180.39V176.93H103.075V180.15C103.075 180.497 103.158 180.763 103.325 180.95C103.498 181.13 103.735 181.22 104.035 181.22C104.415 181.22 104.718 181.087 104.945 180.82C105.178 180.553 105.295 180.177 105.295 179.69V176.93ZM108.633 176.93V177.8C108.933 177.173 109.46 176.86 110.213 176.86C110.713 176.86 111.11 177.013 111.403 177.32C111.696 177.627 111.843 178.043 111.843 178.57V182H110.863V178.8C110.863 178.447 110.773 178.177 110.593 177.99C110.42 177.803 110.186 177.71 109.893 177.71C109.546 177.71 109.25 177.847 109.003 178.12C108.756 178.387 108.633 178.763 108.633 179.25V182H107.653V176.93H108.633ZM114.431 177.69V180.48C114.431 180.967 114.664 181.21 115.131 181.21C115.404 181.21 115.634 181.137 115.821 180.99V181.87C115.601 181.99 115.331 182.05 115.011 182.05C113.964 182.05 113.441 181.52 113.441 180.46V177.69H112.651V176.93H113.441V175.69H114.431V176.93H115.761V177.69H114.431ZM120.051 176.93H121.031V182H120.051V181.13C119.784 181.75 119.258 182.06 118.471 182.06C117.971 182.06 117.574 181.913 117.281 181.62C116.988 181.32 116.841 180.91 116.841 180.39V176.93H117.831V180.15C117.831 180.497 117.914 180.763 118.081 180.95C118.254 181.13 118.491 181.22 118.791 181.22C119.171 181.22 119.474 181.087 119.701 180.82C119.934 180.553 120.051 180.177 120.051 179.69V176.93ZM122.409 182V175H123.389V182H122.409ZM124.559 179.35L126.549 182H125.379L123.429 179.35L125.339 176.93H126.489L124.559 179.35ZM130.85 176.93V177.74C131.136 177.153 131.613 176.86 132.28 176.86C133.04 176.86 133.526 177.187 133.74 177.84C133.88 177.527 134.083 177.287 134.35 177.12C134.616 176.947 134.916 176.86 135.25 176.86C135.77 176.86 136.163 177.013 136.43 177.32C136.703 177.627 136.84 178.05 136.84 178.59V182H135.86V178.8C135.86 178.073 135.566 177.71 134.98 177.71C134.686 177.71 134.423 177.84 134.19 178.1C133.963 178.36 133.85 178.743 133.85 179.25V182H132.87V178.8C132.87 178.073 132.573 177.71 131.98 177.71C131.693 177.71 131.433 177.84 131.2 178.1C130.966 178.36 130.85 178.743 130.85 179.25V182H129.87V176.93H130.85ZM141.32 179.1V178.92C141.307 178.54 141.204 178.24 141.01 178.02C140.817 177.793 140.54 177.68 140.18 177.68C139.847 177.68 139.56 177.803 139.32 178.05C139.08 178.29 138.93 178.64 138.87 179.1H141.32ZM141.95 180.85V181.73C141.577 181.943 141.084 182.05 140.47 182.05C139.684 182.05 139.057 181.813 138.59 181.34C138.124 180.867 137.89 180.247 137.89 179.48C137.89 178.667 138.104 178.03 138.53 177.57C138.957 177.103 139.5 176.87 140.16 176.87C140.807 176.87 141.32 177.073 141.7 177.48C142.08 177.88 142.27 178.46 142.27 179.22C142.27 179.427 142.25 179.643 142.21 179.87H138.88C138.947 180.31 139.134 180.647 139.44 180.88C139.747 181.113 140.134 181.23 140.6 181.23C141.14 181.23 141.59 181.103 141.95 180.85ZM143.464 182V174.93H144.454V182H143.464ZM145.916 182V176.93H146.906V182H145.916ZM145.966 175.82C145.852 175.7 145.796 175.553 145.796 175.38C145.796 175.207 145.852 175.06 145.966 174.94C146.086 174.82 146.232 174.76 146.406 174.76C146.579 174.76 146.726 174.82 146.846 174.94C146.966 175.06 147.026 175.207 147.026 175.38C147.026 175.547 146.966 175.69 146.846 175.81C146.726 175.93 146.579 175.99 146.406 175.99C146.232 175.99 146.086 175.933 145.966 175.82ZM149.307 174.93V177.8C149.593 177.173 150.117 176.86 150.877 176.86C151.37 176.86 151.767 177.013 152.067 177.32C152.367 177.627 152.517 178.053 152.517 178.6V182H151.537V178.8C151.537 178.453 151.447 178.187 151.267 178C151.093 177.807 150.863 177.71 150.577 177.71C150.243 177.71 149.947 177.837 149.687 178.09C149.433 178.343 149.307 178.73 149.307 179.25V182H148.327V174.93H149.307ZM156.505 179.74H155.745C155.371 179.74 155.088 179.813 154.895 179.96C154.708 180.107 154.615 180.293 154.615 180.52C154.615 180.753 154.688 180.937 154.835 181.07C154.981 181.203 155.195 181.27 155.475 181.27C155.795 181.27 156.045 181.183 156.225 181.01C156.411 180.83 156.505 180.597 156.505 180.31V179.74ZM153.955 178.14V177.19C154.348 176.963 154.868 176.85 155.515 176.85C156.841 176.85 157.505 177.493 157.505 178.78V182H156.535V181.4C156.275 181.827 155.818 182.04 155.165 182.04C154.685 182.04 154.298 181.903 154.005 181.63C153.718 181.35 153.575 180.997 153.575 180.57C153.575 180.083 153.758 179.707 154.125 179.44C154.491 179.167 155.005 179.03 155.665 179.03H156.505V178.74C156.505 178.393 156.421 178.133 156.255 177.96C156.088 177.78 155.811 177.69 155.425 177.69C154.885 177.69 154.395 177.84 153.955 178.14ZM160.095 177.69V180.48C160.095 180.967 160.328 181.21 160.795 181.21C161.068 181.21 161.298 181.137 161.485 180.99V181.87C161.265 181.99 160.995 182.05 160.675 182.05C159.628 182.05 159.105 181.52 159.105 180.46V177.69H158.315V176.93H159.105V175.69H160.095V176.93H161.425V177.69H160.095ZM43.19 198V191H44.17V198H43.19ZM45.34 195.35L47.33 198H46.16L44.21 195.35L46.12 192.93H47.27L45.34 195.35ZM51.34 195.1V194.92C51.3267 194.54 51.2233 194.24 51.03 194.02C50.8367 193.793 50.56 193.68 50.2 193.68C49.8667 193.68 49.58 193.803 49.34 194.05C49.1 194.29 48.95 194.64 48.89 195.1H51.34ZM51.97 196.85V197.73C51.5967 197.943 51.1033 198.05 50.49 198.05C49.7033 198.05 49.0767 197.813 48.61 197.34C48.1433 196.867 47.91 196.247 47.91 195.48C47.91 194.667 48.1233 194.03 48.55 193.57C48.9767 193.103 49.52 192.87 50.18 192.87C50.8267 192.87 51.34 193.073 51.72 193.48C52.1 193.88 52.29 194.46 52.29 195.22C52.29 195.427 52.27 195.643 52.23 195.87H48.9C48.9667 196.31 49.1533 196.647 49.46 196.88C49.7667 197.113 50.1533 197.23 50.62 197.23C51.16 197.23 51.61 197.103 51.97 196.85ZM56.1139 195.74H55.3539C54.9806 195.74 54.6972 195.813 54.5039 195.96C54.3172 196.107 54.2239 196.293 54.2239 196.52C54.2239 196.753 54.2972 196.937 54.4439 197.07C54.5906 197.203 54.8039 197.27 55.0839 197.27C55.4039 197.27 55.6539 197.183 55.8339 197.01C56.0206 196.83 56.1139 196.597 56.1139 196.31V195.74ZM53.5639 194.14V193.19C53.9572 192.963 54.4772 192.85 55.1239 192.85C56.4506 192.85 57.1139 193.493 57.1139 194.78V198H56.1439V197.4C55.8839 197.827 55.4272 198.04 54.7739 198.04C54.2939 198.04 53.9072 197.903 53.6139 197.63C53.3272 197.35 53.1839 196.997 53.1839 196.57C53.1839 196.083 53.3672 195.707 53.7339 195.44C54.1006 195.167 54.6139 195.03 55.2739 195.03H56.1139V194.74C56.1139 194.393 56.0306 194.133 55.8639 193.96C55.6972 193.78 55.4206 193.69 55.0339 193.69C54.4939 193.69 54.0039 193.84 53.5639 194.14ZM60.4841 197.21C60.8708 197.21 61.1975 197.063 61.4641 196.77C61.7308 196.477 61.8641 196.03 61.8641 195.43C61.8641 194.85 61.7241 194.42 61.4441 194.14C61.1708 193.86 60.8608 193.72 60.5141 193.72C60.1208 193.72 59.7975 193.877 59.5441 194.19C59.2908 194.497 59.1641 194.937 59.1641 195.51C59.1641 196.017 59.2875 196.427 59.5341 196.74C59.7875 197.053 60.1041 197.21 60.4841 197.21ZM61.8641 190.93H62.8541V198H61.8641V197.23C61.5108 197.79 60.9941 198.07 60.3141 198.07C59.6475 198.07 59.1208 197.82 58.7341 197.32C58.3475 196.813 58.1541 196.203 58.1541 195.49C58.1541 194.697 58.3575 194.06 58.7641 193.58C59.1708 193.1 59.6941 192.86 60.3341 192.86C60.9941 192.86 61.5041 193.14 61.8641 193.7V190.93ZM66.9049 195.74H66.1449C65.7716 195.74 65.4883 195.813 65.2949 195.96C65.1083 196.107 65.0149 196.293 65.0149 196.52C65.0149 196.753 65.0883 196.937 65.2349 197.07C65.3816 197.203 65.5949 197.27 65.8749 197.27C66.1949 197.27 66.4449 197.183 66.6249 197.01C66.8116 196.83 66.9049 196.597 66.9049 196.31V195.74ZM64.3549 194.14V193.19C64.7483 192.963 65.2683 192.85 65.9149 192.85C67.2416 192.85 67.9049 193.493 67.9049 194.78V198H66.9349V197.4C66.6749 197.827 66.2183 198.04 65.5649 198.04C65.0849 198.04 64.6983 197.903 64.4049 197.63C64.1183 197.35 63.9749 196.997 63.9749 196.57C63.9749 196.083 64.1583 195.707 64.5249 195.44C64.8916 195.167 65.4049 195.03 66.0649 195.03H66.9049V194.74C66.9049 194.393 66.8216 194.133 66.6549 193.96C66.4883 193.78 66.2116 193.69 65.8249 193.69C65.2849 193.69 64.7949 193.84 64.3549 194.14ZM71.8952 195.74H71.1352C70.7618 195.74 70.4785 195.813 70.2852 195.96C70.0985 196.107 70.0052 196.293 70.0052 196.52C70.0052 196.753 70.0785 196.937 70.2252 197.07C70.3718 197.203 70.5852 197.27 70.8652 197.27C71.1852 197.27 71.4352 197.183 71.6152 197.01C71.8018 196.83 71.8952 196.597 71.8952 196.31V195.74ZM69.3452 194.14V193.19C69.7385 192.963 70.2585 192.85 70.9052 192.85C72.2318 192.85 72.8952 193.493 72.8952 194.78V198H71.9252V197.4C71.6652 197.827 71.2085 198.04 70.5552 198.04C70.0752 198.04 69.6885 197.903 69.3952 197.63C69.1085 197.35 68.9652 196.997 68.9652 196.57C68.9652 196.083 69.1485 195.707 69.5152 195.44C69.8818 195.167 70.3952 195.03 71.0552 195.03H71.8952V194.74C71.8952 194.393 71.8118 194.133 71.6452 193.96C71.4785 193.78 71.2018 193.69 70.8152 193.69C70.2752 193.69 69.7852 193.84 69.3452 194.14ZM75.1954 192.93V193.8C75.4954 193.173 76.0221 192.86 76.7754 192.86C77.2754 192.86 77.6721 193.013 77.9654 193.32C78.2587 193.627 78.4054 194.043 78.4054 194.57V198H77.4254V194.8C77.4254 194.447 77.3354 194.177 77.1554 193.99C76.9821 193.803 76.7487 193.71 76.4554 193.71C76.1087 193.71 75.8121 193.847 75.5654 194.12C75.3187 194.387 75.1954 194.763 75.1954 195.25V198H74.2154V192.93H75.1954ZM82.1841 198V191H83.1641V198H82.1841ZM84.3341 195.35L86.3241 198H85.1541L83.2041 195.35L85.1141 192.93H86.2641L84.3341 195.35ZM89.8541 195.74H89.0941C88.7208 195.74 88.4375 195.813 88.2441 195.96C88.0575 196.107 87.9641 196.293 87.9641 196.52C87.9641 196.753 88.0375 196.937 88.1841 197.07C88.3308 197.203 88.5441 197.27 88.8241 197.27C89.1441 197.27 89.3941 197.183 89.5741 197.01C89.7608 196.83 89.8541 196.597 89.8541 196.31V195.74ZM87.3041 194.14V193.19C87.6975 192.963 88.2175 192.85 88.8641 192.85C90.1908 192.85 90.8541 193.493 90.8541 194.78V198H89.8841V197.4C89.6241 197.827 89.1675 198.04 88.5141 198.04C88.0341 198.04 87.6475 197.903 87.3541 197.63C87.0675 197.35 86.9241 196.997 86.9241 196.57C86.9241 196.083 87.1075 195.707 87.4741 195.44C87.8408 195.167 88.3541 195.03 89.0141 195.03H89.8541V194.74C89.8541 194.393 89.7708 194.133 89.6041 193.96C89.4375 193.78 89.1608 193.69 88.7741 193.69C88.2341 193.69 87.7441 193.84 87.3041 194.14ZM93.1544 192.93V193.82C93.401 193.193 93.8444 192.88 94.4844 192.88C94.5777 192.88 94.681 192.89 94.7944 192.91V193.87C94.6544 193.81 94.4977 193.78 94.3244 193.78C93.9844 193.78 93.7044 193.93 93.4844 194.23C93.2644 194.53 93.1544 194.887 93.1544 195.3V198H92.1744V192.93H93.1544ZM95.603 198V192.93H96.593V198H95.603ZM95.653 191.82C95.5397 191.7 95.483 191.553 95.483 191.38C95.483 191.207 95.5397 191.06 95.653 190.94C95.773 190.82 95.9197 190.76 96.093 190.76C96.2664 190.76 96.413 190.82 96.533 190.94C96.653 191.06 96.713 191.207 96.713 191.38C96.713 191.547 96.653 191.69 96.533 191.81C96.413 191.93 96.2664 191.99 96.093 191.99C95.9197 191.99 95.773 191.933 95.653 191.82ZM101.164 195.1V194.92C101.151 194.54 101.048 194.24 100.854 194.02C100.661 193.793 100.384 193.68 100.024 193.68C99.6909 193.68 99.4042 193.803 99.1642 194.05C98.9242 194.29 98.7742 194.64 98.7142 195.1H101.164ZM101.794 196.85V197.73C101.421 197.943 100.928 198.05 100.314 198.05C99.5276 198.05 98.9009 197.813 98.4342 197.34C97.9676 196.867 97.7342 196.247 97.7342 195.48C97.7342 194.667 97.9476 194.03 98.3742 193.57C98.8009 193.103 99.3442 192.87 100.004 192.87C100.651 192.87 101.164 193.073 101.544 193.48C101.924 193.88 102.114 194.46 102.114 195.22C102.114 195.427 102.094 195.643 102.054 195.87H98.7242C98.7909 196.31 98.9776 196.647 99.2842 196.88C99.5909 197.113 99.9776 197.23 100.444 197.23C100.984 197.23 101.434 197.103 101.794 196.85ZM104.248 192.93V193.82C104.495 193.193 104.938 192.88 105.578 192.88C105.671 192.88 105.775 192.89 105.888 192.91V193.87C105.748 193.81 105.591 193.78 105.418 193.78C105.078 193.78 104.798 193.93 104.578 194.23C104.358 194.53 104.248 194.887 104.248 195.3V198H103.268V192.93H104.248ZM110.648 195.49H112.808L112.698 195.15C112.444 194.363 112.238 193.713 112.078 193.2C111.918 192.68 111.821 192.357 111.788 192.23L111.738 192.04C111.664 192.353 111.338 193.39 110.758 195.15L110.648 195.49ZM113.618 198L113.088 196.35H110.368L109.828 198H108.738L111.068 191.26H112.418L114.718 198H113.618ZM116.699 192.93V193.8C116.999 193.173 117.526 192.86 118.279 192.86C118.779 192.86 119.176 193.013 119.469 193.32C119.763 193.627 119.909 194.043 119.909 194.57V198H118.929V194.8C118.929 194.447 118.839 194.177 118.659 193.99C118.486 193.803 118.253 193.71 117.959 193.71C117.613 193.71 117.316 193.847 117.069 194.12C116.823 194.387 116.699 194.763 116.699 195.25V198H115.719V192.93H116.699ZM123.277 197.21C123.664 197.21 123.99 197.063 124.257 196.77C124.524 196.477 124.657 196.03 124.657 195.43C124.657 194.85 124.517 194.42 124.237 194.14C123.964 193.86 123.654 193.72 123.307 193.72C122.914 193.72 122.59 193.877 122.337 194.19C122.084 194.497 121.957 194.937 121.957 195.51C121.957 196.017 122.08 196.427 122.327 196.74C122.58 197.053 122.897 197.21 123.277 197.21ZM124.657 190.93H125.647V198H124.657V197.23C124.304 197.79 123.787 198.07 123.107 198.07C122.44 198.07 121.914 197.82 121.527 197.32C121.14 196.813 120.947 196.203 120.947 195.49C120.947 194.697 121.15 194.06 121.557 193.58C121.964 193.1 122.487 192.86 123.127 192.86C123.787 192.86 124.297 193.14 124.657 193.7V190.93ZM129.698 195.74H128.938C128.565 195.74 128.281 195.813 128.088 195.96C127.901 196.107 127.808 196.293 127.808 196.52C127.808 196.753 127.881 196.937 128.028 197.07C128.175 197.203 128.388 197.27 128.668 197.27C128.988 197.27 129.238 197.183 129.418 197.01C129.605 196.83 129.698 196.597 129.698 196.31V195.74ZM127.148 194.14V193.19C127.541 192.963 128.061 192.85 128.708 192.85C130.035 192.85 130.698 193.493 130.698 194.78V198H129.728V197.4C129.468 197.827 129.011 198.04 128.358 198.04C127.878 198.04 127.491 197.903 127.198 197.63C126.911 197.35 126.768 196.997 126.768 196.57C126.768 196.083 126.951 195.707 127.318 195.44C127.685 195.167 128.198 195.03 128.858 195.03H129.698V194.74C129.698 194.393 129.615 194.133 129.448 193.96C129.281 193.78 129.005 193.69 128.618 193.69C128.078 193.69 127.588 193.84 127.148 194.14Z" fill="#2B2B2B"/>
<rect x="43" y="219" width="120" height="24" rx="8" fill="#FF1934"/>
<path d="M88.0692 227.608L89.0852 227.608L89.0852 233L88.0692 233L88.0692 230.736L85.8532 230.736L85.8532 233L84.8452 233L84.8452 227.608L85.8532 227.608L85.8532 229.864L88.0692 229.864L88.0692 227.608ZM91.2205 232.176L93.4205 232.176L93.4205 233L90.2045 233L90.2045 227.608L93.3885 227.608L93.3885 228.432L91.2205 228.432L91.2205 229.896L93.1485 229.896L93.1485 230.712L91.2205 230.712L91.2205 232.176ZM94.4311 233L94.4311 227.608L95.5751 227.608L96.8711 229.856C97.0844 230.224 97.2738 230.568 97.4391 230.888C97.6098 231.203 97.7244 231.427 97.7831 231.56L97.8711 231.76C97.8284 231.317 97.8071 230.683 97.8071 229.856L97.8071 227.608L98.8231 227.608L98.8231 233L97.6711 233L96.3591 230.76C96.1511 230.408 95.9618 230.072 95.7911 229.752C95.6258 229.427 95.5111 229.192 95.4471 229.048L95.3511 228.824C95.4098 229.331 95.4391 229.973 95.4391 230.752L95.4391 233L94.4311 233ZM103.339 227.608L103.339 228.44L101.971 228.44L101.971 233L100.955 233L100.955 228.44L99.5869 228.44L99.5869 227.608L103.339 227.608ZM104.159 233L104.159 227.608L105.167 227.608L105.167 233L104.159 233ZM106.353 233L106.353 227.608L107.361 227.608L107.361 233L106.353 233ZM108.641 230.312L110.649 233L109.377 233L107.441 230.328L109.305 227.608L110.513 227.608L108.641 230.312ZM112.744 230.952L114.264 230.952L114.192 230.712C114.011 230.136 113.862 229.653 113.744 229.264C113.632 228.869 113.563 228.621 113.536 228.52L113.504 228.36C113.456 228.627 113.227 229.413 112.816 230.72L112.744 230.952ZM114.904 233L114.52 231.776L112.48 231.776L112.096 233L111.04 233L112.864 227.608L114.168 227.608L115.992 233L114.904 233ZM116.767 233L116.767 227.608L117.911 227.608L119.207 229.856C119.42 230.224 119.61 230.568 119.775 230.888C119.946 231.203 120.06 231.427 120.119 231.56L120.207 231.76C120.164 231.317 120.143 230.683 120.143 229.856L120.143 227.608L121.159 227.608L121.159 233L120.007 233L118.695 230.76C118.487 230.408 118.298 230.072 118.127 229.752C117.962 229.427 117.847 229.192 117.783 229.048L117.687 228.824C117.746 229.331 117.775 229.973 117.775 230.752L117.775 233L116.767 233Z" fill="white"/>
<g clip-path="url(#clip1_1124_4113)">
<path d="M219.367 206.867C219.367 248.841 253.453 282.867 295.5 282.867C337.547 282.867 371.633 248.841 371.633 206.867C371.633 164.894 337.547 130.867 295.5 130.867C253.453 130.867 219.367 164.894 219.367 206.867Z" fill="white"/>
<path d="M253.111 148.662C241.192 157.302 231.798 169.649 226.904 184.712C222.01 199.775 222.353 215.285 226.916 229.281L295.5 207L253.111 148.662Z" fill="#FF1934"/>
<path d="M226.918 229.288C231.453 243.293 240.292 256.043 253.105 265.352C265.918 274.661 280.776 279.128 295.497 279.113L295.5 207.001L226.918 229.288Z" fill="#1699D9"/>
<path d="M295.503 279.112C310.224 279.127 325.081 274.66 337.894 265.351C350.707 256.042 359.547 243.292 364.082 229.286L295.5 206.999L295.503 279.112Z" fill="#1699D9"/>
<path d="M363.75 229.615C368.314 215.619 368.657 200.109 363.762 185.046C358.868 169.983 349.474 157.636 337.555 148.996L295.166 207.334L363.75 229.615Z" fill="#FF1934"/>
<path d="M337.884 148.658C325.983 139.993 311.338 134.874 295.5 134.874C279.662 134.874 265.017 139.993 253.116 148.658L295.5 207L337.884 148.658Z" fill="#1699D9"/>
<path d="M227.06 229.76L294.999 207.681L294.999 279.116C295.169 279.116 295.33 279.126 295.5 279.126C295.67 279.126 295.83 279.116 296.001 279.116L296.001 207.691L363.94 229.76C364.05 229.439 364.16 229.129 364.26 228.808L296.311 206.73L338.295 148.939C338.024 148.738 337.754 148.548 337.483 148.358L295.5 206.139L253.516 148.358C253.246 148.548 252.965 148.738 252.705 148.939L294.688 206.73L226.74 228.808C226.84 229.129 226.96 229.439 227.06 229.76Z" fill="white"/>
<g opacity="0.32" style="mix-blend-mode:multiply">
<path d="M295.626 279.127C335.386 279.127 367.626 246.887 367.626 207.127C367.626 167.367 335.386 135.127 295.626 135.127C255.866 135.127 223.626 167.367 223.626 207.127C223.626 246.887 255.866 279.127 295.626 279.127ZM295.626 139.127C333.186 139.127 363.626 169.567 363.626 207.127C363.626 244.687 333.186 275.127 295.626 275.127C258.066 275.127 227.626 244.687 227.626 207.127C227.626 169.567 258.066 139.127 295.626 139.127Z" fill="#2B2B2B"/>
</g>
<path d="M295.514 199.015C291.096 199.015 287.514 202.596 287.514 207.015C287.514 211.433 291.096 215.015 295.514 215.015C299.932 215.015 303.514 211.433 303.514 207.015C303.514 202.596 299.932 199.015 295.514 199.015Z" fill="white"/>
<path d="M252.849 182.201L252.592 182.992L251.291 182.569L249.882 186.906L248.916 186.592L250.325 182.255L249.024 181.833L249.281 181.041L252.849 182.201ZM254.914 186.06L254.951 185.946C255.022 185.694 255.018 185.474 254.939 185.285C254.866 185.094 254.711 184.959 254.473 184.882C254.255 184.811 254.038 184.83 253.823 184.94C253.615 185.046 253.438 185.244 253.294 185.533L254.914 186.06ZM255.135 187.503L254.878 188.294C254.555 188.374 254.14 188.332 253.632 188.167C253.019 187.967 252.594 187.627 252.357 187.147C252.121 186.666 252.097 186.137 252.284 185.559C252.484 184.945 252.808 184.517 253.256 184.276C253.705 184.035 254.18 183.996 254.682 184.159C255.184 184.322 255.533 184.604 255.728 185.004C255.924 185.404 255.927 185.895 255.737 186.479C255.691 186.621 255.614 186.797 255.506 187.009L253.086 186.223C253.062 186.523 253.129 186.781 253.29 186.995C253.455 187.212 253.695 187.371 254.009 187.473C254.415 187.605 254.79 187.615 255.135 187.503ZM258.033 186.047L257.395 188.01C257.343 188.172 257.345 188.311 257.404 188.425C257.464 188.534 257.57 188.613 257.722 188.663C257.914 188.725 258.109 188.73 258.306 188.676L258.052 189.46C257.846 189.488 257.604 189.457 257.325 189.366C256.493 189.096 256.214 188.54 256.487 187.698L257.12 185.75L256.542 185.562L256.764 184.878L257.343 185.066L257.644 184.137L258.557 184.434L258.256 185.362L259.214 185.674L258.992 186.358L258.033 186.047ZM261.284 188.777L260.812 188.624C260.574 188.546 260.375 188.538 260.215 188.598C260.057 188.653 259.953 188.757 259.904 188.909C259.798 189.234 259.933 189.457 260.308 189.579C260.511 189.645 260.688 189.638 260.837 189.557C260.993 189.473 261.103 189.335 261.165 189.142L261.284 188.777ZM259.788 187.012L260.062 186.168C260.409 186.084 260.854 186.131 261.397 186.307C262.442 186.647 262.806 187.303 262.489 188.277L261.688 190.742L260.783 190.448L260.934 189.984C260.649 190.256 260.261 190.312 259.769 190.152C259.404 190.034 259.147 189.832 258.998 189.548C258.854 189.266 258.835 188.963 258.94 188.638C259.059 188.273 259.289 188.031 259.63 187.912C259.972 187.793 260.401 187.817 260.919 187.985L261.482 188.168L261.558 187.933C261.628 187.719 261.625 187.539 261.549 187.391C261.474 187.243 261.302 187.126 261.033 187.038C260.622 186.905 260.207 186.896 259.788 187.012ZM264.74 190.926C265.014 191.015 265.271 190.984 265.511 190.832C265.752 190.675 265.935 190.406 266.058 190.026C266.182 189.645 266.191 189.323 266.087 189.059C265.983 188.79 265.8 188.613 265.536 188.527C265.272 188.441 265.012 188.466 264.755 188.601C264.498 188.736 264.306 188.999 264.179 189.39C264.052 189.78 264.048 190.113 264.166 190.387C264.285 190.661 264.476 190.84 264.74 190.926ZM264.797 187.488L264.604 188.081C265.018 187.739 265.481 187.651 265.994 187.817C266.496 187.981 266.835 188.29 267.013 188.746C267.195 189.203 267.19 189.726 266.999 190.314C266.811 190.893 266.506 191.323 266.083 191.607C265.667 191.886 265.205 191.944 264.698 191.779C264.181 191.611 263.859 191.274 263.732 190.767L263.071 192.798L262.158 192.502L263.884 187.191L264.797 187.488ZM236.531 197.289L238.198 192.161L239.286 192.514L239.823 195.053C239.913 195.468 239.986 195.854 240.045 196.21C240.11 196.562 240.15 196.81 240.164 196.955L240.186 197.172C240.282 196.738 240.458 196.128 240.714 195.342L241.408 193.204L242.375 193.518L240.708 198.646L239.613 198.29L239.057 195.754C238.968 195.355 238.892 194.977 238.828 194.62C238.772 194.259 238.735 194.001 238.719 193.844L238.697 193.601C238.596 194.101 238.425 194.722 238.185 195.462L237.49 197.6L236.531 197.289ZM243.626 198.635C243.875 198.716 244.114 198.687 244.344 198.549C244.576 198.405 244.743 198.176 244.845 197.862C244.978 197.451 244.995 197.123 244.896 196.877C244.796 196.632 244.622 196.469 244.373 196.388C244.11 196.302 243.868 196.339 243.648 196.497C243.43 196.651 243.264 196.902 243.15 197.252C243.033 197.612 243.022 197.914 243.117 198.158C243.213 198.397 243.383 198.556 243.626 198.635ZM245.473 195.929L246.386 196.226L245.246 199.733C245.048 200.342 244.723 200.741 244.269 200.93C243.818 201.126 243.321 201.135 242.779 200.959C242.272 200.794 241.857 200.559 241.536 200.252L241.838 199.324C242.104 199.68 242.478 199.936 242.959 200.092C243.659 200.32 244.118 200.099 244.336 199.429L244.444 199.094C244.088 199.399 243.661 199.471 243.163 199.309C242.732 199.169 242.413 198.891 242.206 198.476C242.005 198.058 242.003 197.547 242.199 196.943C242.381 196.385 242.674 195.973 243.08 195.707C243.493 195.437 243.938 195.38 244.415 195.535C244.897 195.692 245.189 196.008 245.292 196.485L245.473 195.929ZM248.588 199.372L248.116 199.219C247.878 199.142 247.678 199.133 247.519 199.193C247.361 199.248 247.257 199.352 247.207 199.504C247.102 199.829 247.237 200.052 247.612 200.174C247.815 200.24 247.991 200.233 248.141 200.152C248.297 200.069 248.406 199.93 248.469 199.737L248.588 199.372ZM247.092 197.608L247.366 196.763C247.713 196.68 248.158 196.726 248.7 196.902C249.745 197.242 250.11 197.898 249.793 198.872L248.992 201.337L248.087 201.043L248.238 200.579C247.953 200.851 247.565 200.907 247.073 200.747C246.707 200.629 246.45 200.427 246.301 200.144C246.158 199.861 246.138 199.558 246.244 199.233C246.363 198.868 246.593 198.626 246.934 198.507C247.276 198.388 247.705 198.413 248.222 198.581L248.785 198.764L248.862 198.528C248.931 198.315 248.928 198.134 248.853 197.986C248.778 197.839 248.605 197.721 248.337 197.634C247.926 197.5 247.511 197.491 247.092 197.608ZM252.101 198.083L251.886 198.745C252.257 198.344 252.729 198.237 253.303 198.423C253.688 198.548 253.954 198.764 254.102 199.069C254.249 199.375 254.254 199.741 254.115 200.167L253.282 202.731L252.369 202.435L253.14 200.061C253.223 199.807 253.224 199.597 253.143 199.431C253.064 199.259 252.921 199.14 252.713 199.072C252.475 198.995 252.244 199.024 252.02 199.159C251.799 199.288 251.632 199.526 251.52 199.871L250.847 201.94L249.934 201.644L251.188 197.786L252.101 198.083ZM256.131 202.698C256.38 202.779 256.619 202.75 256.849 202.612C257.081 202.468 257.248 202.239 257.35 201.925C257.483 201.514 257.5 201.186 257.401 200.94C257.301 200.695 257.127 200.532 256.878 200.451C256.614 200.365 256.373 200.402 256.153 200.56C255.935 200.714 255.769 200.965 255.655 201.315C255.538 201.676 255.527 201.977 255.622 202.221C255.718 202.46 255.888 202.619 256.131 202.698ZM257.978 199.992L258.891 200.289L257.751 203.796C257.553 204.405 257.227 204.804 256.774 204.993C256.323 205.189 255.826 205.198 255.284 205.022C254.776 204.857 254.362 204.622 254.041 204.315L254.343 203.387C254.609 203.743 254.982 203.999 255.464 204.155C256.164 204.383 256.623 204.162 256.841 203.492L256.949 203.157C256.592 203.462 256.165 203.534 255.668 203.372C255.237 203.232 254.918 202.954 254.711 202.539C254.51 202.121 254.508 201.61 254.704 201.006C254.885 200.448 255.179 200.036 255.585 199.77C255.998 199.501 256.443 199.443 256.92 199.598C257.402 199.755 257.694 200.071 257.797 200.548L257.978 199.992ZM260.478 204.11C260.726 204.191 260.966 204.162 261.196 204.024C261.427 203.881 261.594 203.652 261.696 203.337C261.83 202.926 261.847 202.598 261.747 202.353C261.647 202.107 261.473 201.944 261.225 201.863C260.961 201.778 260.719 201.814 260.5 201.973C260.281 202.126 260.116 202.378 260.002 202.728C259.885 203.088 259.874 203.39 259.968 203.634C260.065 203.872 260.234 204.031 260.478 204.11ZM262.324 201.405L263.237 201.701L262.098 205.209C261.9 205.817 261.574 206.216 261.12 206.405C260.67 206.601 260.173 206.611 259.63 206.434C259.123 206.269 258.709 206.034 258.388 205.728L258.689 204.8C258.955 205.155 259.329 205.411 259.811 205.568C260.511 205.795 260.97 205.574 261.187 204.905L261.296 204.57C260.939 204.874 260.512 204.946 260.015 204.784C259.584 204.644 259.265 204.367 259.057 203.952C258.857 203.533 258.855 203.022 259.051 202.419C259.232 201.861 259.526 201.449 259.932 201.182C260.345 200.913 260.79 200.855 261.266 201.01C261.748 201.167 262.041 201.484 262.144 201.96L262.324 201.405ZM266.572 202.785L267.493 203.084L266.239 206.941L265.319 206.642L265.524 206.011C265.176 206.391 264.708 206.486 264.119 206.295C263.729 206.168 263.461 205.957 263.315 205.663C263.17 205.369 263.164 205.017 263.297 204.606L264.145 201.996L265.058 202.293L264.279 204.689C264.2 204.933 264.198 205.137 264.274 205.302C264.354 205.468 264.499 205.585 264.707 205.653C264.97 205.738 265.205 205.716 265.409 205.587C265.619 205.459 265.783 205.214 265.9 204.854L266.572 202.785ZM269.398 203.703L269.176 204.388C269.508 203.969 269.91 203.836 270.382 203.989C270.488 204.024 270.572 204.059 270.633 204.096L270.346 204.978C270.246 204.89 270.125 204.822 269.983 204.776C269.735 204.696 269.499 204.731 269.276 204.883C269.052 205.035 268.891 205.263 268.792 205.567L268.145 207.56L267.224 207.261L268.485 203.406L269.398 203.703Z" fill="white"/>
<path d="M255.05 240.807L255.468 240.231C255.8 239.774 255.913 239.325 255.805 238.884C255.692 238.439 255.399 238.045 254.924 237.7C254.506 237.396 254.07 237.274 253.618 237.334C253.164 237.387 252.779 237.631 252.462 238.067L252.053 238.63L255.05 240.807ZM250.76 238.967L251.795 237.543C252.268 236.891 252.856 236.504 253.558 236.381C254.261 236.259 254.918 236.42 255.531 236.865C256.199 237.351 256.595 237.945 256.718 238.647C256.836 239.346 256.649 240.035 256.157 240.712L255.123 242.136L250.76 238.967ZM258.079 235.1L257.788 235.501C257.64 235.704 257.571 235.89 257.579 236.061C257.582 236.228 257.649 236.359 257.778 236.453C258.054 236.654 258.308 236.594 258.54 236.275C258.666 236.102 258.713 235.933 258.683 235.766C258.652 235.591 258.554 235.444 258.39 235.325L258.079 235.1ZM255.939 235.977L255.22 235.455C255.248 235.099 255.429 234.691 255.765 234.229C256.411 233.34 257.148 233.197 257.976 233.799L260.073 235.322L259.514 236.092L259.119 235.805C259.29 236.16 259.223 236.547 258.919 236.965C258.693 237.276 258.422 237.458 258.106 237.512C257.793 237.562 257.499 237.486 257.223 237.286C256.912 237.06 256.753 236.766 256.745 236.405C256.738 236.043 256.894 235.642 257.213 235.202L257.561 234.723L257.361 234.578C257.18 234.446 257.007 234.393 256.843 234.419C256.679 234.445 256.514 234.572 256.348 234.801C256.094 235.15 255.958 235.542 255.939 235.977ZM261.191 232.477C261.36 232.244 261.41 231.99 261.339 231.715C261.265 231.436 261.066 231.18 260.742 230.944C260.418 230.709 260.115 230.601 259.831 230.619C259.544 230.634 259.318 230.754 259.155 230.978C258.992 231.203 258.935 231.458 258.984 231.744C259.034 232.03 259.224 232.294 259.556 232.535C259.889 232.777 260.203 232.884 260.501 232.856C260.798 232.828 261.028 232.701 261.191 232.477ZM257.938 231.36L258.443 231.727C258.246 231.227 258.305 230.76 258.622 230.324C258.932 229.897 259.332 229.669 259.82 229.642C260.311 229.61 260.807 229.775 261.307 230.139C261.799 230.496 262.115 230.92 262.253 231.41C262.391 231.892 262.303 232.349 261.989 232.78C261.67 233.22 261.249 233.422 260.728 233.387L262.456 234.642L261.892 235.419L257.374 232.137L257.938 231.36ZM263.254 227.976L262.963 228.378C262.816 228.58 262.746 228.767 262.754 228.938C262.757 229.105 262.824 229.236 262.953 229.33C263.23 229.531 263.484 229.471 263.716 229.152C263.841 228.979 263.889 228.81 263.858 228.642C263.827 228.468 263.729 228.321 263.565 228.202L263.254 227.976ZM261.114 228.854L260.396 228.332C260.423 227.976 260.605 227.567 260.94 227.106C261.586 226.217 262.323 226.073 263.152 226.675L265.248 228.199L264.689 228.969L264.294 228.682C264.465 229.037 264.398 229.424 264.094 229.842C263.868 230.153 263.598 230.335 263.282 230.389C262.969 230.439 262.674 230.363 262.398 230.162C262.087 229.937 261.928 229.643 261.921 229.282C261.913 228.92 262.069 228.519 262.389 228.079L262.737 227.6L262.536 227.454C262.355 227.323 262.182 227.27 262.018 227.296C261.855 227.322 261.689 227.449 261.523 227.678C261.269 228.027 261.133 228.419 261.114 228.854ZM263.818 224.492L265.488 225.705C265.626 225.805 265.759 225.845 265.885 225.825C266.008 225.802 266.116 225.726 266.21 225.596C266.329 225.432 266.393 225.248 266.403 225.044L267.07 225.529C267.033 225.733 266.929 225.954 266.757 226.191C266.242 226.899 265.627 226.992 264.911 226.472L263.254 225.268L262.897 225.76L262.314 225.337L262.672 224.845L261.882 224.271L262.446 223.495L263.236 224.068L263.828 223.253L264.411 223.676L263.818 224.492ZM264.699 248.268L265.033 247.808C265.249 247.511 265.34 247.237 265.304 246.987C265.268 246.736 265.129 246.524 264.888 246.348C264.65 246.176 264.412 246.114 264.171 246.164C263.927 246.21 263.701 246.376 263.494 246.66L263.146 247.139L264.699 248.268ZM261.887 247.471L262.879 246.105C263.236 245.613 263.655 245.318 264.136 245.219C264.62 245.115 265.071 245.216 265.49 245.52C265.934 245.843 266.177 246.253 266.217 246.75C266.257 247.24 266.109 247.716 265.773 248.178L265.359 248.748L266.842 249.824L266.249 250.64L261.887 247.471ZM268.363 243.715L268.266 243.644C268.049 243.499 267.838 243.435 267.635 243.452C267.43 243.462 267.254 243.568 267.107 243.771C266.972 243.956 266.923 244.168 266.961 244.407C266.998 244.637 267.131 244.866 267.362 245.093L268.363 243.715ZM269.804 243.951L270.477 244.44C270.453 244.772 270.285 245.153 269.971 245.585C269.592 246.107 269.137 246.406 268.607 246.483C268.077 246.559 267.566 246.418 267.074 246.061C266.552 245.682 266.246 245.241 266.155 244.74C266.064 244.239 266.174 243.775 266.484 243.348C266.794 242.921 267.17 242.676 267.611 242.614C268.051 242.552 268.52 242.701 269.016 243.062C269.137 243.149 269.281 243.277 269.449 243.445L267.954 245.504C268.232 245.62 268.498 245.635 268.751 245.549C269.008 245.459 269.234 245.28 269.428 245.012C269.679 244.667 269.804 244.313 269.804 243.951ZM273.411 240.783L272.747 241.696L270.196 241.642L271.892 242.874L271.327 243.65L266.829 240.382L267.394 239.606L270.151 241.609L269.452 239.331L270.11 238.425L270.802 240.767L273.411 240.783ZM273.309 236.908L273.212 236.837C272.994 236.692 272.784 236.628 272.58 236.645C272.376 236.655 272.2 236.761 272.052 236.964C271.917 237.149 271.869 237.361 271.907 237.599C271.943 237.83 272.077 238.059 272.307 238.286L273.309 236.908ZM274.75 237.143L275.423 237.632C275.399 237.965 275.23 238.346 274.917 238.778C274.538 239.3 274.083 239.599 273.553 239.675C273.023 239.752 272.512 239.611 272.02 239.254C271.498 238.875 271.191 238.434 271.1 237.933C271.01 237.432 271.119 236.968 271.43 236.541C271.74 236.114 272.116 235.869 272.556 235.807C272.997 235.745 273.465 235.894 273.962 236.254C274.082 236.342 274.227 236.47 274.395 236.638L272.899 238.696C273.177 238.813 273.443 238.828 273.697 238.742C273.954 238.652 274.179 238.473 274.374 238.205C274.624 237.86 274.75 237.506 274.75 237.143ZM273.556 233.682L274.138 234.106C273.843 233.66 273.84 233.236 274.132 232.835C274.198 232.745 274.258 232.676 274.311 232.629L275.062 233.175C274.947 233.243 274.845 233.337 274.757 233.458C274.604 233.669 274.565 233.904 274.64 234.164C274.716 234.423 274.883 234.646 275.142 234.834L276.837 236.066L276.268 236.85L272.992 234.459L273.556 233.682ZM278.599 236.105L277.984 235.658C278.159 235.554 278.287 235.446 278.368 235.334C278.534 235.105 278.469 234.883 278.171 234.667L274.682 232.132L275.247 231.355L278.748 233.899C279.072 234.134 279.264 234.409 279.325 234.724C279.387 235.039 279.298 235.361 279.06 235.688C278.947 235.844 278.794 235.983 278.599 236.105ZM273.637 231.501C273.508 231.407 273.431 231.282 273.406 231.126C273.381 230.969 273.416 230.826 273.51 230.697C273.607 230.563 273.734 230.484 273.89 230.459C274.047 230.434 274.19 230.469 274.319 230.563C274.453 230.66 274.532 230.787 274.557 230.943C274.582 231.1 274.546 231.245 274.448 231.379C274.354 231.508 274.229 231.585 274.073 231.61C273.916 231.635 273.771 231.599 273.637 231.501ZM274.778 259.752L274.487 260.153C274.339 260.356 274.269 260.543 274.277 260.713C274.281 260.881 274.348 261.011 274.477 261.105C274.753 261.306 275.007 261.247 275.239 260.927C275.365 260.755 275.412 260.585 275.382 260.418C275.35 260.244 275.253 260.097 275.089 259.978L274.778 259.752ZM272.638 260.629L271.919 260.107C271.947 259.752 272.128 259.343 272.464 258.881C273.11 257.993 273.847 257.849 274.675 258.451L276.772 259.975L276.213 260.745L275.818 260.458C275.988 260.813 275.922 261.199 275.618 261.618C275.392 261.928 275.121 262.111 274.805 262.165C274.492 262.214 274.198 262.139 273.922 261.938C273.611 261.712 273.452 261.419 273.444 261.057C273.437 260.696 273.593 260.295 273.912 259.855L274.26 259.376L274.06 259.23C273.878 259.098 273.706 259.045 273.542 259.071C273.378 259.097 273.213 259.225 273.047 259.453C272.793 259.803 272.657 260.195 272.638 260.629ZM277.161 256.472L276.87 256.873C276.722 257.076 276.653 257.262 276.661 257.433C276.664 257.6 276.731 257.731 276.86 257.825C277.136 258.026 277.39 257.966 277.622 257.647C277.748 257.475 277.795 257.305 277.765 257.138C277.734 256.963 277.636 256.816 277.472 256.697L277.161 256.472ZM275.021 257.349L274.302 256.827C274.33 256.471 274.512 256.063 274.847 255.601C275.493 254.712 276.23 254.569 277.058 255.171L279.155 256.694L278.596 257.464L278.201 257.178C278.372 257.532 278.305 257.919 278.001 258.338C277.775 258.648 277.504 258.83 277.188 258.884C276.875 258.934 276.581 258.858 276.305 258.658C275.994 258.432 275.835 258.138 275.827 257.777C275.82 257.415 275.976 257.015 276.296 256.574L276.644 256.095L276.443 255.95C276.262 255.818 276.089 255.765 275.925 255.791C275.761 255.817 275.596 255.944 275.43 256.173C275.176 256.523 275.04 256.915 275.021 257.349ZM277.021 252.732L277.584 253.141C277.317 252.664 277.361 252.182 277.715 251.694C277.954 251.366 278.241 251.179 278.577 251.134C278.914 251.088 279.263 251.197 279.626 251.46L281.807 253.045L281.242 253.822L279.223 252.355C279.007 252.198 278.808 252.132 278.625 252.157C278.437 252.179 278.279 252.279 278.151 252.456C278.004 252.658 277.96 252.887 278.019 253.141C278.074 253.392 278.248 253.624 278.542 253.837L280.302 255.116L279.738 255.893L276.456 253.509L277.021 252.732ZM283.512 249.296L284.02 248.597C284.399 248.075 284.391 247.669 283.994 247.381C283.588 247.086 283.188 247.211 282.793 247.754L282.308 248.421L283.512 249.296ZM280.483 247.095L281.655 247.946L282.012 247.454C282.225 247.161 282.327 246.898 282.317 246.667C282.307 246.436 282.212 246.254 282.03 246.123C281.862 246 281.683 245.966 281.493 246.019C281.306 246.067 281.121 246.217 280.939 246.467L280.483 247.095ZM279.224 247.426L280.348 245.879C280.687 245.413 281.06 245.131 281.468 245.032C281.876 244.933 282.255 245.01 282.605 245.264C282.842 245.437 283.002 245.652 283.085 245.91C283.163 246.165 283.157 246.414 283.066 246.657C283.291 246.465 283.545 246.356 283.827 246.33C284.105 246.302 284.391 246.394 284.684 246.607C285.03 246.858 285.224 247.184 285.269 247.586C285.313 247.987 285.18 248.401 284.87 248.829L283.586 250.595L279.224 247.426ZM286.153 244.096L285.861 244.497C285.714 244.7 285.644 244.887 285.652 245.058C285.656 245.225 285.722 245.356 285.852 245.45C286.128 245.65 286.382 245.591 286.614 245.272C286.739 245.099 286.787 244.929 286.756 244.762C286.725 244.588 286.627 244.441 286.463 244.322L286.153 244.096ZM284.012 244.974L283.294 244.452C283.321 244.096 283.503 243.687 283.838 243.226C284.484 242.337 285.221 242.193 286.05 242.795L288.147 244.319L287.587 245.089L287.192 244.802C287.363 245.157 287.296 245.544 286.992 245.962C286.767 246.273 286.496 246.455 286.18 246.509C285.867 246.558 285.572 246.483 285.296 246.282C284.985 246.057 284.826 245.763 284.819 245.401C284.811 245.04 284.967 244.639 285.287 244.199L285.635 243.72L285.434 243.574C285.253 243.443 285.08 243.39 284.917 243.416C284.753 243.442 284.588 243.569 284.421 243.798C284.168 244.147 284.031 244.539 284.012 244.974ZM286.012 240.357L286.594 240.78C286.298 240.334 286.296 239.911 286.588 239.509C286.654 239.419 286.713 239.35 286.767 239.303L287.518 239.849C287.403 239.917 287.301 240.011 287.213 240.132C287.06 240.343 287.021 240.579 287.096 240.838C287.171 241.097 287.339 241.321 287.598 241.509L289.293 242.741L288.724 243.524L285.448 241.133L286.012 240.357ZM288.582 236.819L289.151 236.036L292.432 238.42L291.863 239.203L291.326 238.813C291.58 239.262 291.526 239.736 291.162 240.237C290.921 240.569 290.638 240.759 290.313 240.806C289.988 240.854 289.651 240.751 289.302 240.497L287.082 238.884L287.646 238.107L289.685 239.588C289.892 239.739 290.085 239.804 290.265 239.783C290.449 239.758 290.604 239.657 290.733 239.48C290.896 239.255 290.947 239.026 290.887 238.791C290.83 238.552 290.649 238.321 290.342 238.098L288.582 236.819Z" fill="white"/>
<path d="M308.354 155.874L308.354 156.586C308.354 157.152 308.527 157.581 308.874 157.874C309.226 158.168 309.695 158.314 310.282 158.314C310.799 158.314 311.223 158.157 311.554 157.842C311.89 157.533 312.058 157.109 312.058 156.57L312.058 155.874L308.354 155.874ZM312.906 154.842L312.906 156.602C312.906 157.408 312.658 158.066 312.162 158.578C311.666 159.09 311.039 159.346 310.282 159.346C309.455 159.346 308.786 159.098 308.274 158.602C307.767 158.106 307.514 157.44 307.514 156.602L307.514 154.842L312.906 154.842ZM309.258 162.273L309.258 161.777C309.258 161.526 309.205 161.334 309.098 161.201C308.997 161.067 308.866 161.001 308.706 161.001C308.365 161.001 308.194 161.198 308.194 161.593C308.194 161.806 308.255 161.971 308.378 162.089C308.506 162.211 308.671 162.273 308.874 162.273L309.258 162.273ZM310.474 160.305L311.362 160.305C311.549 160.609 311.642 161.046 311.642 161.617C311.642 162.715 311.13 163.265 310.106 163.265L307.514 163.265L307.514 162.313L308.002 162.313C307.655 162.126 307.482 161.774 307.482 161.257C307.482 160.873 307.594 160.566 307.818 160.337C308.042 160.113 308.325 160.001 308.666 160.001C309.05 160.001 309.351 160.145 309.57 160.433C309.789 160.721 309.898 161.137 309.898 161.681L309.898 162.273L310.146 162.273C310.37 162.273 310.541 162.214 310.658 162.097C310.775 161.979 310.834 161.779 310.834 161.497C310.834 161.065 310.714 160.667 310.474 160.305ZM308.282 166.223C308.282 166.511 308.391 166.746 308.61 166.927C308.834 167.109 309.146 167.199 309.546 167.199C309.946 167.199 310.255 167.109 310.474 166.927C310.698 166.746 310.81 166.517 310.81 166.239C310.81 165.962 310.706 165.722 310.498 165.519C310.29 165.317 309.981 165.215 309.57 165.215C309.159 165.215 308.842 165.314 308.618 165.511C308.394 165.709 308.282 165.946 308.282 166.223ZM311.57 165.215L310.946 165.215C311.399 165.503 311.626 165.917 311.626 166.455C311.626 166.983 311.437 167.402 311.058 167.711C310.679 168.026 310.181 168.183 309.562 168.183C308.954 168.183 308.45 168.026 308.05 167.711C307.655 167.402 307.458 166.981 307.458 166.447C307.458 165.903 307.679 165.493 308.122 165.215L305.986 165.215L305.986 164.255L311.57 164.255L311.57 165.215ZM309.258 171.077L309.258 170.581C309.258 170.331 309.205 170.139 309.098 170.005C308.997 169.872 308.866 169.805 308.706 169.805C308.365 169.805 308.194 170.003 308.194 170.397C308.194 170.611 308.255 170.776 308.378 170.893C308.506 171.016 308.671 171.077 308.874 171.077L309.258 171.077ZM310.474 169.109L311.362 169.109C311.549 169.413 311.642 169.851 311.642 170.421C311.642 171.52 311.13 172.069 310.106 172.069L307.514 172.069L307.514 171.117L308.002 171.117C307.655 170.931 307.482 170.579 307.482 170.061C307.482 169.677 307.594 169.371 307.818 169.141C308.042 168.917 308.325 168.805 308.666 168.805C309.05 168.805 309.351 168.949 309.57 169.237C309.789 169.525 309.898 169.941 309.898 170.485L309.898 171.077L310.146 171.077C310.37 171.077 310.541 171.019 310.658 170.901C310.775 170.784 310.834 170.584 310.834 170.301C310.834 169.869 310.714 169.472 310.474 169.109ZM310.85 174.228L308.786 174.228C308.615 174.228 308.485 174.273 308.394 174.364C308.309 174.455 308.266 174.58 308.266 174.74C308.266 174.943 308.322 175.129 308.434 175.3L307.61 175.3C307.519 175.113 307.474 174.873 307.474 174.58C307.474 173.705 307.917 173.268 308.802 173.268L310.85 173.268L310.85 172.66L311.57 172.66L311.57 173.268L312.546 173.268L312.546 174.228L311.57 174.228L311.57 175.236L310.85 175.236L310.85 174.228ZM296.162 149.194L296.162 149.762C296.162 150.13 296.25 150.405 296.426 150.586C296.602 150.767 296.839 150.858 297.138 150.858C297.431 150.858 297.661 150.767 297.826 150.586C297.997 150.405 298.082 150.138 298.082 149.786L298.082 149.194L296.162 149.194ZM298.906 148.186L298.906 149.874C298.906 150.482 298.741 150.967 298.41 151.33C298.079 151.698 297.655 151.882 297.138 151.882C296.589 151.882 296.151 151.693 295.826 151.314C295.506 150.941 295.346 150.469 295.346 149.898L295.346 149.194L293.514 149.194L293.514 148.186L298.906 148.186ZM295.874 155.031L295.994 155.031C296.255 155.021 296.463 154.949 296.618 154.815C296.778 154.687 296.858 154.498 296.858 154.247C296.858 154.018 296.773 153.818 296.602 153.647C296.437 153.482 296.194 153.375 295.874 153.327L295.874 155.031ZM294.57 155.687L293.738 155.687C293.562 155.405 293.474 154.997 293.474 154.463C293.474 153.818 293.666 153.309 294.05 152.935C294.434 152.562 294.93 152.375 295.538 152.375C296.183 152.375 296.69 152.551 297.058 152.903C297.426 153.255 297.61 153.695 297.61 154.223C297.61 154.751 297.45 155.17 297.13 155.479C296.81 155.789 296.343 155.943 295.73 155.943C295.581 155.943 295.389 155.925 295.154 155.887L295.154 153.343C294.861 153.413 294.637 153.557 294.482 153.775C294.327 153.999 294.25 154.277 294.25 154.607C294.25 155.034 294.357 155.394 294.57 155.687ZM293.514 160.37L293.514 159.242L295.61 157.786L293.514 157.786L293.514 156.826L299.074 156.826L299.074 157.786L295.666 157.786L297.57 159.218L297.57 160.338L295.634 158.85L293.514 160.37ZM295.874 163.445L295.994 163.445C296.255 163.435 296.463 163.363 296.618 163.229C296.778 163.101 296.858 162.912 296.858 162.661C296.858 162.432 296.773 162.232 296.602 162.061C296.437 161.896 296.194 161.789 295.874 161.741L295.874 163.445ZM294.57 164.101L293.738 164.101C293.562 163.819 293.474 163.411 293.474 162.877C293.474 162.232 293.666 161.723 294.05 161.349C294.434 160.976 294.93 160.789 295.538 160.789C296.183 160.789 296.69 160.965 297.058 161.317C297.426 161.669 297.61 162.109 297.61 162.637C297.61 163.165 297.45 163.584 297.13 163.893C296.81 164.203 296.343 164.357 295.73 164.357C295.581 164.357 295.389 164.339 295.154 164.301L295.154 161.757C294.861 161.827 294.637 161.971 294.482 162.189C294.327 162.413 294.25 162.691 294.25 163.021C294.25 163.448 294.357 163.808 294.57 164.101ZM297.57 166.2L296.85 166.2C297.351 166.386 297.602 166.728 297.602 167.224C297.602 167.336 297.594 167.426 297.578 167.496L296.65 167.496C296.703 167.373 296.73 167.237 296.73 167.088C296.73 166.826 296.623 166.613 296.41 166.448C296.197 166.282 295.93 166.2 295.61 166.2L293.514 166.2L293.514 165.232L297.57 165.24L297.57 166.2ZM292.066 167.204L292.826 167.204C292.746 167.391 292.706 167.553 292.706 167.692C292.706 167.975 292.89 168.116 293.258 168.116L297.57 168.116L297.57 169.076L293.242 169.076C292.842 169.076 292.525 168.967 292.29 168.748C292.055 168.529 291.938 168.217 291.938 167.812C291.938 167.62 291.981 167.417 292.066 167.204ZM298.786 168.012C298.946 168.012 299.082 168.068 299.194 168.18C299.306 168.292 299.362 168.428 299.362 168.588C299.362 168.753 299.306 168.892 299.194 169.004C299.082 169.116 298.946 169.172 298.786 169.172C298.621 169.172 298.482 169.116 298.37 169.004C298.258 168.892 298.202 168.753 298.202 168.588C298.202 168.428 298.258 168.292 298.37 168.18C298.482 168.068 298.621 168.012 298.786 168.012ZM295.258 172.187L295.258 171.691C295.258 171.44 295.205 171.248 295.098 171.115C294.997 170.981 294.866 170.915 294.706 170.915C294.365 170.915 294.194 171.112 294.194 171.507C294.194 171.72 294.255 171.885 294.378 172.003C294.506 172.125 294.671 172.187 294.874 172.187L295.258 172.187ZM296.474 170.219L297.362 170.219C297.549 170.523 297.642 170.96 297.642 171.531C297.642 172.629 297.13 173.179 296.106 173.179L293.514 173.179L293.514 172.227L294.002 172.227C293.655 172.04 293.482 171.688 293.482 171.171C293.482 170.787 293.594 170.48 293.818 170.251C294.042 170.027 294.325 169.915 294.666 169.915C295.05 169.915 295.351 170.059 295.57 170.347C295.789 170.635 295.898 171.051 295.898 171.595L295.898 172.187L296.146 172.187C296.37 172.187 296.541 172.128 296.658 172.011C296.775 171.893 296.834 171.693 296.834 171.411C296.834 170.979 296.714 170.581 296.474 170.219ZM295.258 176.241L295.258 175.745C295.258 175.495 295.205 175.303 295.098 175.169C294.997 175.036 294.866 174.969 294.706 174.969C294.365 174.969 294.194 175.167 294.194 175.561C294.194 175.775 294.255 175.94 294.378 176.057C294.506 176.18 294.671 176.241 294.874 176.241L295.258 176.241ZM296.474 174.273L297.362 174.273C297.549 174.577 297.642 175.015 297.642 175.585C297.642 176.684 297.13 177.233 296.106 177.233L293.514 177.233L293.514 176.281L294.002 176.281C293.655 176.095 293.482 175.743 293.482 175.225C293.482 174.841 293.594 174.535 293.818 174.305C294.042 174.081 294.325 173.969 294.666 173.969C295.05 173.969 295.351 174.113 295.57 174.401C295.789 174.689 295.898 175.105 295.898 175.649L295.898 176.241L296.146 176.241C296.37 176.241 296.541 176.183 296.658 176.065C296.775 175.948 296.834 175.748 296.834 175.465C296.834 175.033 296.714 174.636 296.474 174.273ZM297.57 179.184L296.874 179.184C297.37 179.413 297.618 179.829 297.618 180.432C297.618 180.837 297.495 181.157 297.25 181.392C297.005 181.627 296.658 181.744 296.21 181.744L293.514 181.744L293.514 180.784L296.01 180.784C296.277 180.784 296.477 180.72 296.61 180.592C296.749 180.464 296.818 180.291 296.818 180.072C296.818 179.821 296.719 179.611 296.522 179.44C296.33 179.269 296.053 179.184 295.69 179.184L293.514 179.184L293.514 178.224L297.57 178.224L297.57 179.184ZM280.338 158.428L280.338 159.292C280.338 159.938 280.583 160.26 281.074 160.26C281.575 160.26 281.826 159.924 281.826 159.252L281.826 158.428L280.338 158.428ZM284.082 158.428L282.634 158.428L282.634 159.036C282.634 159.399 282.706 159.671 282.85 159.852C282.994 160.034 283.178 160.124 283.402 160.124C283.61 160.124 283.775 160.047 283.898 159.892C284.021 159.743 284.082 159.514 284.082 159.204L284.082 158.428ZM284.906 157.42L284.906 159.332C284.906 159.908 284.77 160.356 284.498 160.676C284.226 160.996 283.874 161.156 283.442 161.156C283.149 161.156 282.893 161.076 282.674 160.916C282.461 160.756 282.319 160.551 282.25 160.3C282.181 160.588 282.039 160.826 281.826 161.012C281.618 161.199 281.333 161.292 280.97 161.292C280.543 161.292 280.194 161.143 279.922 160.844C279.65 160.546 279.514 160.132 279.514 159.604L279.514 157.42L284.906 157.42ZM281.258 164.187L281.258 163.691C281.258 163.44 281.205 163.248 281.098 163.115C280.997 162.981 280.866 162.915 280.706 162.915C280.365 162.915 280.194 163.112 280.194 163.507C280.194 163.72 280.255 163.885 280.378 164.003C280.506 164.125 280.671 164.187 280.874 164.187L281.258 164.187ZM282.474 162.219L283.362 162.219C283.549 162.523 283.642 162.96 283.642 163.531C283.642 164.629 283.13 165.179 282.106 165.179L279.514 165.179L279.514 164.227L280.002 164.227C279.655 164.04 279.482 163.688 279.482 163.171C279.482 162.787 279.594 162.48 279.818 162.251C280.042 162.027 280.325 161.915 280.666 161.915C281.05 161.915 281.351 162.059 281.57 162.347C281.789 162.635 281.898 163.051 281.898 163.595L281.898 164.187L282.146 164.187C282.37 164.187 282.541 164.128 282.658 164.011C282.775 163.893 282.834 163.693 282.834 163.411C282.834 162.979 282.714 162.581 282.474 162.219ZM283.57 167.129L282.85 167.129C283.351 167.316 283.602 167.657 283.602 168.153C283.602 168.265 283.594 168.356 283.578 168.425L282.65 168.425C282.703 168.303 282.73 168.167 282.73 168.017C282.73 167.756 282.623 167.543 282.41 167.377C282.197 167.212 281.93 167.129 281.61 167.129L279.514 167.129L279.514 166.161L283.57 166.169L283.57 167.129ZM283.57 171.502L283.57 172.47L279.514 172.47L279.514 171.502L280.178 171.502C279.709 171.288 279.474 170.872 279.474 170.254C279.474 169.843 279.591 169.523 279.826 169.294C280.061 169.064 280.394 168.95 280.826 168.95L283.57 168.95L283.57 169.91L281.05 169.91C280.794 169.91 280.599 169.971 280.466 170.094C280.333 170.222 280.266 170.395 280.266 170.614C280.266 170.891 280.359 171.107 280.546 171.262C280.733 171.422 281.015 171.502 281.394 171.502L283.57 171.502Z" fill="white"/>
</g>
<g clip-path="url(#clip2_1124_4113)">
<path d="M214.81 218.01L214.81 216.56L230 207.16L214.81 197.77L214.81 196.32L212.12 195.58C211.16 195.32 210.13 195.67 209.55 196.48C207.3 199.59 206 203.24 206 207.16C206 211.08 207.3 214.73 209.55 217.84C210.13 218.65 211.16 219 212.12 218.74L214.81 218L214.81 218.01Z" fill="#D9AA16"/>
<path d="M214.81 196.32L212.7 195.74C212.17 195.6 212.04 196.06 212.53 196.36L214.82 197.77L214.82 196.32L214.81 196.32Z" fill="#B76F09"/>
<path d="M214.81 218.01L212.7 218.59C212.17 218.73 212.04 218.27 212.53 217.97L214.82 216.56L214.82 218.01L214.81 218.01Z" fill="#B76F09"/>
<path d="M208 207.16C208 203.84 209.05 200.63 211.06 197.8L226.2 207.16L211.06 216.52C209.05 213.69 208 210.48 208 207.16Z" fill="white"/>
</g>
<path d="M9 341.5H329C333.694 341.5 337.5 345.306 337.5 350C337.5 354.694 333.694 358.5 329 358.5H9C4.30558 358.5 0.5 354.694 0.5 350C0.500002 345.306 4.30558 341.5 9 341.5Z" fill="white"/>
<path d="M9 341.5H329C333.694 341.5 337.5 345.306 337.5 350C337.5 354.694 333.694 358.5 329 358.5H9C4.30558 358.5 0.5 354.694 0.5 350C0.500002 345.306 4.30558 341.5 9 341.5Z" stroke="#CCCCCC"/>
<path d="M7.86805e-07 350C3.52265e-07 345.029 4.02944 341 9 341L39 341C43.9706 341 48 345.029 48 350C48 354.971 43.9706 359 39 359L9 359C4.02944 359 1.22135e-06 354.971 7.86805e-07 350Z" fill="#FF1934"/>
<path d="M15.448 346.688H16.264L16.816 348.6L17.456 350.92C17.5893 350.179 17.7547 349.403 17.952 348.592L18.44 346.608H19.464L18.088 352H16.92L16.432 350.296C16.2987 349.843 16.184 349.443 16.088 349.096C15.9973 348.749 15.936 348.517 15.904 348.4L15.864 348.216C15.7893 348.589 15.6027 349.283 15.304 350.296L14.8 352H13.64L12.2 346.608H13.264L13.768 348.6C13.8533 348.957 13.9387 349.328 14.024 349.712C14.1093 350.096 14.1733 350.389 14.216 350.592L14.28 350.904C14.4507 350.232 14.6587 349.464 14.904 348.6L15.448 346.688ZM22.2561 350.256H21.7601C21.5094 350.256 21.3174 350.309 21.1841 350.416C21.0507 350.517 20.9841 350.648 20.9841 350.808C20.9841 351.149 21.1814 351.32 21.5761 351.32C21.7894 351.32 21.9547 351.259 22.0721 351.136C22.1947 351.008 22.2561 350.843 22.2561 350.64V350.256ZM20.2881 349.04V348.152C20.5921 347.965 21.0294 347.872 21.6001 347.872C22.6987 347.872 23.2481 348.384 23.2481 349.408V352H22.2961V351.512C22.1094 351.859 21.7574 352.032 21.2401 352.032C20.8561 352.032 20.5494 351.92 20.3201 351.696C20.0961 351.472 19.9841 351.189 19.9841 350.848C19.9841 350.464 20.1281 350.163 20.4161 349.944C20.7041 349.725 21.1201 349.616 21.6641 349.616H22.2561V349.368C22.2561 349.144 22.1974 348.973 22.0801 348.856C21.9627 348.739 21.7627 348.68 21.4801 348.68C21.0481 348.68 20.6507 348.8 20.2881 349.04ZM27.7828 352H26.6548L25.1988 349.904V352H24.2388V346.44H25.1988V349.848L26.6308 347.944H27.7508L26.2628 349.88L27.7828 352ZM29.5864 348.664V350.728C29.5864 350.899 29.6318 351.029 29.7224 351.12C29.8131 351.205 29.9384 351.248 30.0984 351.248C30.3011 351.248 30.4878 351.192 30.6584 351.08V351.904C30.4718 351.995 30.2318 352.04 29.9384 352.04C29.0638 352.04 28.6264 351.597 28.6264 350.712V348.664H28.0184V347.944H28.6264V346.968H29.5864V347.944H30.5944V348.664H29.5864ZM33.9617 347.944H34.9297V352H33.9617V351.336C33.7484 351.805 33.3324 352.04 32.7137 352.04C32.303 352.04 31.983 351.923 31.7537 351.688C31.5244 351.453 31.4097 351.12 31.4097 350.688V347.944H32.3697V350.464C32.3697 350.72 32.431 350.915 32.5537 351.048C32.6817 351.181 32.855 351.248 33.0737 351.248C33.351 351.248 33.567 351.155 33.7217 350.968C33.8817 350.781 33.9617 350.499 33.9617 350.12V347.944Z" fill="white"/>
<rect x="56" y="348" width="274" height="4" rx="2" fill="#CCCCCC"/>
<mask id="mask0_1124_4113" style="mask-type:alpha" maskUnits="userSpaceOnUse" x="56" y="348" width="274" height="4">
<rect x="56" y="348" width="274" height="4" rx="2" fill="#CCCCCC"/>
</mask>
<g mask="url(#mask0_1124_4113)">
<rect x="56" y="348" width="274" height="4" rx="2" fill="#FF1934"/>
</g>
<defs>
<filter id="filter0_d_1124_4113" x="22.5" y="57" width="293" height="56" filterUnits="userSpaceOnUse" color-interpolation-filters="sRGB">
<feFlood flood-opacity="0" result="BackgroundImageFix"/>
<feColorMatrix in="SourceAlpha" type="matrix" values="0 0 0 0 0 0 0 0 0 0 0 0 0 0 0 0 0 0 127 0" result="hardAlpha"/>
<feOffset dy="2"/>
<feGaussianBlur stdDeviation="2"/>
<feComposite in2="hardAlpha" operator="out"/>
<feColorMatrix type="matrix" values="0 0 0 0 0.168627 0 0 0 0 0.168627 0 0 0 0 0.168627 0 0 0 0.24 0"/>
<feBlend mode="normal" in2="BackgroundImageFix" result="effect1_dropShadow_1124_4113"/>
<feBlend mode="normal" in="SourceGraphic" in2="effect1_dropShadow_1124_4113" result="shape"/>
</filter>
<clipPath id="clip0_1124_4113">
<rect width="24" height="24" fill="white" transform="translate(42.5 75)"/>
</clipPath>
<clipPath id="clip1_1124_4113">
<rect width="104" height="152" fill="white" transform="translate(191.5 131)"/>
</clipPath>
<clipPath id="clip2_1124_4113">
<rect width="23.33" height="24" fill="white" transform="translate(230 195.5) rotate(90)"/>
</clipPath>
</defs>
</svg>
