<svg width="285" height="256" viewBox="0 0 285 256" fill="none" xmlns="http://www.w3.org/2000/svg">
<rect width="285" height="256" fill="#D3D3D3"/>
<rect width="285" height="256" rx="16" fill="white"/>
<g filter="url(#filter0_d_1124_4113)">
<path d="M0 16C0 7.16344 7.16344 0 16 0H269C277.837 0 285 7.16344 285 16V48H0V16Z" fill="#FF1934" shape-rendering="crispEdges"/>
<g clip-path="url(#clip0_1124_4113)">
<path d="M37.69 31.57C37.13 31.13 36.52 30.77 35.88 30.5C35.73 30.43 35.67 30.31 35.65 30.21C35.61 30.06 35.65 29.89 35.75 29.77C36.63 28.72 37.15 27.33 37.15 26.06C37.15 23.54 35.1 21.49 32.58 21.49C32.35 21.49 32.11 21.52 31.87 21.56C30.86 20.59 29.5 20 28 20C26.5 20 25.14 20.6 24.13 21.56C23.88 21.52 23.65 21.49 23.42 21.49C20.9 21.49 18.85 23.54 18.85 26.06C18.85 27.33 19.37 28.72 20.25 29.77C20.35 29.89 20.39 30.06 20.35 30.21C20.33 30.3 20.27 30.43 20.12 30.49C19.48 30.76 18.88 31.12 18.31 31.56C17.96 31.83 17.9 32.33 18.17 32.68C18.33 32.88 18.56 32.99 18.8 32.99C18.97 32.99 19.14 32.94 19.29 32.82C19.75 32.47 20.24 32.17 20.75 31.95C21.33 31.7 21.75 31.19 21.9 30.57C22.05 29.93 21.9 29.24 21.47 28.73C20.84 27.97 20.44 26.94 20.44 26.05C20.44 24.56 21.54 23.34 22.98 23.12C22.61 23.86 22.4 24.7 22.4 25.58C22.4 27.15 23.05 28.86 24.13 30.16C24.3 30.37 24.37 30.65 24.31 30.91C24.28 31.05 24.18 31.3 23.89 31.42C22.25 32.13 20.8 33.26 19.71 34.69C19.44 35.04 19.51 35.54 19.86 35.81C20.01 35.92 20.18 35.97 20.34 35.97C20.58 35.97 20.82 35.86 20.98 35.65C21.9 34.44 23.12 33.48 24.52 32.88C25.2 32.59 25.69 32 25.86 31.27C26.04 30.52 25.86 29.72 25.36 29.12C24.52 28.11 24 26.75 24 25.56C24 24.54 24.4 23.62 25.03 22.91C25.03 22.91 25.04 22.9 25.05 22.89C25.78 22.08 26.83 21.56 28 21.56C29.17 21.56 30.22 22.08 30.95 22.88C30.95 22.88 30.96 22.9 30.97 22.91C31.6 23.62 32 24.54 32 25.56C32 26.75 31.48 28.11 30.64 29.12C29.86 30.05 28.93 30.56 28 30.56C27.56 30.56 27.2 30.92 27.2 31.36C27.2 31.8 27.56 32.16 28 32.16C28.77 32.16 29.53 31.94 30.23 31.53C30.45 32.13 30.88 32.62 31.48 32.87C32.87 33.47 34.09 34.43 35.02 35.64C35.18 35.85 35.42 35.96 35.66 35.96C35.83 35.96 36 35.91 36.14 35.8C36.49 35.53 36.56 35.03 36.29 34.68C35.2 33.25 33.76 32.12 32.12 31.41C31.83 31.29 31.73 31.03 31.7 30.9C31.64 30.64 31.7 30.36 31.88 30.15C32.96 28.85 33.61 27.14 33.61 25.57C33.61 24.68 33.4 23.85 33.03 23.11C34.46 23.32 35.57 24.55 35.57 26.04C35.57 26.94 35.18 27.96 34.54 28.72C34.12 29.23 33.96 29.91 34.11 30.56C34.26 31.19 34.68 31.69 35.27 31.94C35.78 32.16 36.27 32.45 36.73 32.81C36.88 32.92 37.05 32.98 37.22 32.98C37.46 32.98 37.7 32.87 37.85 32.67C38.12 32.32 38.06 31.82 37.71 31.55L37.69 31.57Z" fill="white"/>
</g>
<path d="M51.668 28.332H53.936L53.838 27.996C53.5673 27.0813 53.3433 26.302 53.166 25.658C52.998 25.014 52.8953 24.5987 52.858 24.412L52.802 24.132C52.7273 24.6453 52.382 25.9333 51.766 27.996L51.668 28.332ZM55.028 32L54.454 30.068H51.15L50.576 32H48.322L51.472 22.564H54.188L57.338 32H55.028ZM60.55 24.902V26.106C60.7273 25.714 60.998 25.406 61.362 25.182C61.7353 24.9487 62.1787 24.832 62.692 24.832C63.42 24.832 63.9893 25.0513 64.4 25.49C64.8107 25.9193 65.016 26.554 65.016 27.394V32H62.972V27.772C62.972 27.352 62.874 27.0347 62.678 26.82C62.482 26.596 62.2067 26.484 61.852 26.484C61.4787 26.484 61.166 26.6333 60.914 26.932C60.6713 27.2213 60.55 27.66 60.55 28.248V32H58.506V24.902H60.55ZM69.8891 30.376C70.3558 30.376 70.7338 30.194 71.0231 29.83C71.3124 29.466 71.4571 28.9807 71.4571 28.374C71.4571 27.786 71.2984 27.3287 70.9811 27.002C70.6731 26.6753 70.3044 26.512 69.8751 26.512C69.4458 26.512 69.0818 26.6847 68.7831 27.03C68.4938 27.3753 68.3491 27.856 68.3491 28.472C68.3491 29.0413 68.4984 29.5033 68.7971 29.858C69.0958 30.2033 69.4598 30.376 69.8891 30.376ZM71.4571 22.102H73.5011V32H71.4571V30.894C70.9811 31.6873 70.2718 32.084 69.3291 32.084C68.4051 32.084 67.6631 31.7247 67.1031 31.006C66.5524 30.2873 66.2771 29.4287 66.2771 28.43C66.2771 27.31 66.5664 26.428 67.1451 25.784C67.7238 25.14 68.4564 24.818 69.3431 24.818C70.2671 24.818 70.9718 25.21 71.4571 25.994V22.102ZM78.6997 29.088H78.0417C77.6964 29.088 77.4304 29.1627 77.2437 29.312C77.057 29.4613 76.9637 29.6527 76.9637 29.886C76.9637 30.362 77.239 30.6 77.7897 30.6C78.079 30.6 78.303 30.5113 78.4617 30.334C78.6204 30.1567 78.6997 29.914 78.6997 29.606V29.088ZM75.3817 27.086V25.252C75.9417 24.9347 76.749 24.776 77.8037 24.776C78.8117 24.776 79.563 24.9953 80.0577 25.434C80.5524 25.8633 80.7997 26.5353 80.7997 27.45V32H78.7977V31.132C78.499 31.7387 77.911 32.042 77.0337 32.042C76.343 32.042 75.8017 31.846 75.4097 31.454C75.027 31.062 74.8357 30.572 74.8357 29.984C74.8357 29.3027 75.083 28.7753 75.5777 28.402C76.0817 28.0193 76.8237 27.828 77.8037 27.828H78.6997V27.338C78.6997 26.7407 78.303 26.442 77.5097 26.442C76.7444 26.442 76.035 26.6567 75.3817 27.086ZM89.5165 30.376C89.9458 30.376 90.3098 30.2033 90.6085 29.858C90.9071 29.5033 91.0565 29.0413 91.0565 28.472C91.0565 27.856 90.9071 27.3753 90.6085 27.03C90.3191 26.6847 89.9598 26.512 89.5305 26.512C89.1011 26.512 88.7278 26.6753 88.4105 27.002C88.1025 27.3287 87.9485 27.786 87.9485 28.374C87.9485 28.9807 88.0931 29.466 88.3825 29.83C88.6718 30.194 89.0498 30.376 89.5165 30.376ZM87.9485 22.102V25.994C88.4338 25.21 89.1385 24.818 90.0625 24.818C90.9491 24.818 91.6818 25.14 92.2605 25.784C92.8391 26.428 93.1285 27.31 93.1285 28.43C93.1285 29.4287 92.8485 30.2873 92.2885 31.006C91.7378 31.7247 91.0005 32.084 90.0765 32.084C89.1338 32.084 88.4245 31.6873 87.9485 30.894V32H85.9045V22.102H87.9485ZM98.565 27.8V27.632C98.4997 26.8013 98.1357 26.386 97.473 26.386C97.1464 26.386 96.857 26.5073 96.605 26.75C96.353 26.9833 96.185 27.3333 96.101 27.8H98.565ZM100.035 29.886V31.594C99.5497 31.9113 98.8077 32.07 97.809 32.07C96.6424 32.07 95.7324 31.734 95.079 31.062C94.435 30.3807 94.113 29.508 94.113 28.444C94.113 27.3147 94.4257 26.4327 95.051 25.798C95.6857 25.154 96.465 24.832 97.389 24.832C98.341 24.832 99.0924 25.112 99.643 25.672C100.194 26.2227 100.469 27.0487 100.469 28.15C100.469 28.3647 100.432 28.7333 100.357 29.256H96.185C96.325 29.648 96.5677 29.9513 96.913 30.166C97.2584 30.3807 97.6737 30.488 98.159 30.488C98.8777 30.488 99.503 30.2873 100.035 29.886ZM103.958 24.902V26.218C104.089 25.8073 104.303 25.4807 104.602 25.238C104.91 24.986 105.265 24.86 105.666 24.86C105.89 24.86 106.067 24.8787 106.198 24.916V26.848C105.974 26.7453 105.717 26.694 105.428 26.694C104.989 26.694 104.635 26.8573 104.364 27.184C104.093 27.5013 103.958 27.926 103.958 28.458V32H101.914L101.928 24.902H103.958ZM110.624 29.088H109.966C109.62 29.088 109.354 29.1627 109.168 29.312C108.981 29.4613 108.888 29.6527 108.888 29.886C108.888 30.362 109.163 30.6 109.714 30.6C110.003 30.6 110.227 30.5113 110.386 30.334C110.544 30.1567 110.624 29.914 110.624 29.606V29.088ZM107.306 27.086V25.252C107.866 24.9347 108.673 24.776 109.728 24.776C110.736 24.776 111.487 24.9953 111.982 25.434C112.476 25.8633 112.724 26.5353 112.724 27.45V32H110.722V31.132C110.423 31.7387 109.835 32.042 108.958 32.042C108.267 32.042 107.726 31.846 107.334 31.454C106.951 31.062 106.76 30.572 106.76 29.984C106.76 29.3027 107.007 28.7753 107.502 28.402C108.006 28.0193 108.748 27.828 109.728 27.828H110.624V27.338C110.624 26.7407 110.227 26.442 109.434 26.442C108.668 26.442 107.959 26.6567 107.306 27.086ZM117.59 30.376C118.057 30.376 118.435 30.194 118.724 29.83C119.014 29.466 119.158 28.9807 119.158 28.374C119.158 27.786 119 27.3287 118.682 27.002C118.374 26.6753 118.006 26.512 117.576 26.512C117.147 26.512 116.783 26.6847 116.484 27.03C116.195 27.3753 116.05 27.856 116.05 28.472C116.05 29.0413 116.2 29.5033 116.498 29.858C116.797 30.2033 117.161 30.376 117.59 30.376ZM119.158 22.102H121.202V32H119.158V30.894C118.682 31.6873 117.973 32.084 117.03 32.084C116.106 32.084 115.364 31.7247 114.804 31.006C114.254 30.2873 113.978 29.4287 113.978 28.43C113.978 27.31 114.268 26.428 114.846 25.784C115.425 25.14 116.158 24.818 117.044 24.818C117.968 24.818 118.673 25.21 119.158 25.994V22.102ZM126.401 29.088H125.743C125.398 29.088 125.132 29.1627 124.945 29.312C124.758 29.4613 124.665 29.6527 124.665 29.886C124.665 30.362 124.94 30.6 125.491 30.6C125.78 30.6 126.004 30.5113 126.163 30.334C126.322 30.1567 126.401 29.914 126.401 29.606V29.088ZM123.083 27.086V25.252C123.643 24.9347 124.45 24.776 125.505 24.776C126.513 24.776 127.264 24.9953 127.759 25.434C128.254 25.8633 128.501 26.5353 128.501 27.45V32H126.499V31.132C126.2 31.7387 125.612 32.042 124.735 32.042C124.044 32.042 123.503 31.846 123.111 31.454C122.728 31.062 122.537 30.572 122.537 29.984C122.537 29.3027 122.784 28.7753 123.279 28.402C123.783 28.0193 124.525 27.828 125.505 27.828H126.401V27.338C126.401 26.7407 126.004 26.442 125.211 26.442C124.446 26.442 123.736 26.6567 123.083 27.086ZM136.868 30.376C137.334 30.376 137.712 30.194 138.002 29.83C138.291 29.466 138.436 28.9807 138.436 28.374C138.436 27.786 138.277 27.3287 137.96 27.002C137.652 26.6753 137.283 26.512 136.854 26.512C136.424 26.512 136.06 26.6847 135.762 27.03C135.472 27.3753 135.328 27.856 135.328 28.472C135.328 29.0413 135.477 29.5033 135.776 29.858C136.074 30.2033 136.438 30.376 136.868 30.376ZM138.436 22.102H140.48V32H138.436V30.894C137.96 31.6873 137.25 32.084 136.308 32.084C135.384 32.084 134.642 31.7247 134.082 31.006C133.531 30.2873 133.256 29.4287 133.256 28.43C133.256 27.31 133.545 26.428 134.124 25.784C134.702 25.14 135.435 24.818 136.322 24.818C137.246 24.818 137.95 25.21 138.436 25.994V22.102ZM142.234 32V24.902H144.278V32H142.234ZM142.416 23.684C142.183 23.4507 142.066 23.1707 142.066 22.844C142.066 22.5173 142.183 22.2373 142.416 22.004C142.65 21.7707 142.93 21.654 143.256 21.654C143.583 21.654 143.863 21.7707 144.096 22.004C144.33 22.2373 144.446 22.5173 144.446 22.844C144.446 23.1707 144.33 23.4507 144.096 23.684C143.863 23.9173 143.583 24.034 143.256 24.034C142.93 24.034 142.65 23.9173 142.416 23.684ZM151.759 27.24H152.473C153.612 27.24 154.181 26.722 154.181 25.686C154.181 24.7527 153.654 24.286 152.599 24.286H151.759V27.24ZM149.603 22.564H152.851C153.897 22.564 154.741 22.858 155.385 23.446C156.039 24.034 156.365 24.7807 156.365 25.686C156.365 26.722 156.025 27.5247 155.343 28.094C154.671 28.6633 153.841 28.948 152.851 28.948H151.759V32H149.603V22.564ZM160.936 29.088H160.278C159.933 29.088 159.667 29.1627 159.48 29.312C159.293 29.4613 159.2 29.6527 159.2 29.886C159.2 30.362 159.475 30.6 160.026 30.6C160.315 30.6 160.539 30.5113 160.698 30.334C160.857 30.1567 160.936 29.914 160.936 29.606V29.088ZM157.618 27.086V25.252C158.178 24.9347 158.985 24.776 160.04 24.776C161.048 24.776 161.799 24.9953 162.294 25.434C162.789 25.8633 163.036 26.5353 163.036 27.45V32H161.034V31.132C160.735 31.7387 160.147 32.042 159.27 32.042C158.579 32.042 158.038 31.846 157.646 31.454C157.263 31.062 157.072 30.572 157.072 29.984C157.072 29.3027 157.319 28.7753 157.814 28.402C158.318 28.0193 159.06 27.828 160.04 27.828H160.936V27.338C160.936 26.7407 160.539 26.442 159.746 26.442C158.981 26.442 158.271 26.6567 157.618 27.086ZM168.281 30.376C168.729 30.376 169.093 30.208 169.373 29.872C169.653 29.5267 169.793 29.06 169.793 28.472C169.793 27.828 169.648 27.3427 169.359 27.016C169.079 26.68 168.719 26.512 168.281 26.512C167.851 26.512 167.478 26.6753 167.161 27.002C166.843 27.3287 166.685 27.786 166.685 28.374C166.685 28.9807 166.834 29.466 167.133 29.83C167.431 30.194 167.814 30.376 168.281 30.376ZM166.685 24.902V25.994C167.179 25.21 167.893 24.818 168.827 24.818C169.741 24.818 170.474 25.1447 171.025 25.798C171.585 26.442 171.865 27.3193 171.865 28.43C171.865 29.4847 171.594 30.3573 171.053 31.048C170.521 31.7387 169.779 32.084 168.827 32.084C167.865 32.084 167.151 31.706 166.685 30.95V34.618H164.641V24.902H166.685ZM176.713 29.088H176.055C175.71 29.088 175.444 29.1627 175.257 29.312C175.071 29.4613 174.977 29.6527 174.977 29.886C174.977 30.362 175.253 30.6 175.803 30.6C176.093 30.6 176.317 30.5113 176.475 30.334C176.634 30.1567 176.713 29.914 176.713 29.606V29.088ZM173.395 27.086V25.252C173.955 24.9347 174.763 24.776 175.817 24.776C176.825 24.776 177.577 24.9953 178.071 25.434C178.566 25.8633 178.813 26.5353 178.813 27.45V32H176.811V31.132C176.513 31.7387 175.925 32.042 175.047 32.042C174.357 32.042 173.815 31.846 173.423 31.454C173.041 31.062 172.849 30.572 172.849 29.984C172.849 29.3027 173.097 28.7753 173.591 28.402C174.095 28.0193 174.837 27.828 175.817 27.828H176.713V27.338C176.713 26.7407 176.317 26.442 175.523 26.442C174.758 26.442 174.049 26.6567 173.395 27.086ZM182.462 24.902V26.106C182.639 25.714 182.91 25.406 183.274 25.182C183.647 24.9487 184.091 24.832 184.604 24.832C185.332 24.832 185.901 25.0513 186.312 25.49C186.723 25.9193 186.928 26.554 186.928 27.394V32H184.884V27.772C184.884 27.352 184.786 27.0347 184.59 26.82C184.394 26.596 184.119 26.484 183.764 26.484C183.391 26.484 183.078 26.6333 182.826 26.932C182.583 27.2213 182.462 27.66 182.462 28.248V32H180.418V24.902H182.462ZM194.265 27.24H194.979C196.118 27.24 196.687 26.722 196.687 25.686C196.687 24.7527 196.16 24.286 195.105 24.286H194.265V27.24ZM192.109 22.564H195.357C196.403 22.564 197.247 22.858 197.891 23.446C198.545 24.034 198.871 24.7807 198.871 25.686C198.871 26.722 198.531 27.5247 197.849 28.094C197.177 28.6633 196.347 28.948 195.357 28.948H194.265V32H192.109V22.564ZM204.03 27.8V27.632C203.965 26.8013 203.601 26.386 202.938 26.386C202.611 26.386 202.322 26.5073 202.07 26.75C201.818 26.9833 201.65 27.3333 201.566 27.8H204.03ZM205.5 29.886V31.594C205.015 31.9113 204.273 32.07 203.274 32.07C202.107 32.07 201.197 31.734 200.544 31.062C199.9 30.3807 199.578 29.508 199.578 28.444C199.578 27.3147 199.891 26.4327 200.516 25.798C201.151 25.154 201.93 24.832 202.854 24.832C203.806 24.832 204.557 25.112 205.108 25.672C205.659 26.2227 205.934 27.0487 205.934 28.15C205.934 28.3647 205.897 28.7333 205.822 29.256H201.65C201.79 29.648 202.033 29.9513 202.378 30.166C202.723 30.3807 203.139 30.488 203.624 30.488C204.343 30.488 204.968 30.2873 205.5 29.886ZM214.071 32H211.705L209.437 28.514V32H207.393V22.34H209.437V28.08L211.677 24.902H214.029L211.565 28.304L214.071 32ZM219.165 27.8V27.632C219.099 26.8013 218.735 26.386 218.073 26.386C217.746 26.386 217.457 26.5073 217.205 26.75C216.953 26.9833 216.785 27.3333 216.701 27.8H219.165ZM220.635 29.886V31.594C220.149 31.9113 219.407 32.07 218.409 32.07C217.242 32.07 216.332 31.734 215.679 31.062C215.035 30.3807 214.713 29.508 214.713 28.444C214.713 27.3147 215.025 26.4327 215.651 25.798C216.285 25.154 217.065 24.832 217.989 24.832C218.941 24.832 219.692 25.112 220.243 25.672C220.793 26.2227 221.069 27.0487 221.069 28.15C221.069 28.3647 221.031 28.7333 220.957 29.256H216.785C216.925 29.648 217.167 29.9513 217.513 30.166C217.858 30.3807 218.273 30.488 218.759 30.488C219.477 30.488 220.103 30.2873 220.635 29.886ZM224.558 24.902V26.218C224.688 25.8073 224.903 25.4807 225.202 25.238C225.51 24.986 225.864 24.86 226.266 24.86C226.49 24.86 226.667 24.8787 226.798 24.916V26.848C226.574 26.7453 226.317 26.694 226.028 26.694C225.589 26.694 225.234 26.8573 224.964 27.184C224.693 27.5013 224.558 27.926 224.558 28.458V32H222.514L222.528 24.902H224.558ZM226.309 34.548V32.994C226.617 33.134 226.883 33.204 227.107 33.204C227.592 33.204 227.835 32.8913 227.835 32.266V24.902H229.865V32.294C229.865 33.0407 229.655 33.638 229.235 34.086C228.815 34.5433 228.208 34.772 227.415 34.772C227.088 34.772 226.72 34.6973 226.309 34.548ZM228.003 23.684C227.77 23.4507 227.653 23.1707 227.653 22.844C227.653 22.5173 227.77 22.2373 228.003 22.004C228.236 21.7707 228.516 21.654 228.843 21.654C229.17 21.654 229.45 21.7707 229.683 22.004C229.916 22.2373 230.033 22.5173 230.033 22.844C230.033 23.1707 229.916 23.4507 229.683 23.684C229.45 23.9173 229.17 24.034 228.843 24.034C228.516 24.034 228.236 23.9173 228.003 23.684ZM235.065 29.088H234.407C234.062 29.088 233.796 29.1627 233.609 29.312C233.422 29.4613 233.329 29.6527 233.329 29.886C233.329 30.362 233.604 30.6 234.155 30.6C234.444 30.6 234.668 30.5113 234.827 30.334C234.986 30.1567 235.065 29.914 235.065 29.606V29.088ZM231.747 27.086V25.252C232.307 24.9347 233.114 24.776 234.169 24.776C235.177 24.776 235.928 24.9953 236.423 25.434C236.918 25.8633 237.165 26.5353 237.165 27.45V32H235.163V31.132C234.864 31.7387 234.276 32.042 233.399 32.042C232.708 32.042 232.167 31.846 231.775 31.454C231.392 31.062 231.201 30.572 231.201 29.984C231.201 29.3027 231.448 28.7753 231.943 28.402C232.447 28.0193 233.189 27.828 234.169 27.828H235.065V27.338C235.065 26.7407 234.668 26.442 233.875 26.442C233.11 26.442 232.4 26.6567 231.747 27.086ZM242.284 29.088H241.626C241.28 29.088 241.014 29.1627 240.828 29.312C240.641 29.4613 240.548 29.6527 240.548 29.886C240.548 30.362 240.823 30.6 241.374 30.6C241.663 30.6 241.887 30.5113 242.046 30.334C242.204 30.1567 242.284 29.914 242.284 29.606V29.088ZM238.966 27.086V25.252C239.526 24.9347 240.333 24.776 241.388 24.776C242.396 24.776 243.147 24.9953 243.642 25.434C244.136 25.8633 244.384 26.5353 244.384 27.45V32H242.382V31.132C242.083 31.7387 241.495 32.042 240.618 32.042C239.927 32.042 239.386 31.846 238.994 31.454C238.611 31.062 238.42 30.572 238.42 29.984C238.42 29.3027 238.667 28.7753 239.162 28.402C239.666 28.0193 240.408 27.828 241.388 27.828H242.284V27.338C242.284 26.7407 241.887 26.442 241.094 26.442C240.328 26.442 239.619 26.6567 238.966 27.086ZM248.032 24.902V26.106C248.21 25.714 248.48 25.406 248.844 25.182C249.218 24.9487 249.661 24.832 250.174 24.832C250.902 24.832 251.472 25.0513 251.882 25.49C252.293 25.9193 252.498 26.554 252.498 27.394V32H250.454V27.772C250.454 27.352 250.356 27.0347 250.16 26.82C249.964 26.596 249.689 26.484 249.334 26.484C248.961 26.484 248.648 26.6333 248.396 26.932C248.154 27.2213 248.032 27.66 248.032 28.248V32H245.988V24.902H248.032Z" fill="white"/>
</g>
<g clip-path="url(#clip1_1124_4113)">
<path d="M146.396 84.7998H136.5C134.446 84.7998 132.78 86.4648 132.78 88.5198V92.4811C132.78 93.5723 133.689 94.4498 134.791 94.3986C135.824 94.3511 136.619 93.4611 136.619 92.4273V89.5198C136.619 88.9673 137.066 88.5198 137.619 88.5198H144.222C144.684 87.1598 145.419 85.8973 146.395 84.7998H146.396Z" fill="#B76F09"/>
<path d="M162.347 99.4823C162.291 99.5485 162.232 99.6123 162.174 99.671C162.114 99.731 162.052 99.7873 161.987 99.8423C159.957 101.782 157.3 102.85 154.5 102.85C148.517 102.85 143.65 97.9823 143.65 91.9998C143.65 91.5148 143.684 91.0348 143.747 90.561H126.42C123.376 90.561 120.9 93.0373 120.9 96.081V117.681C120.9 120.725 123.376 123.201 126.42 123.201H158.581C161.625 123.201 164.101 120.725 164.101 117.681V97.0498C163.637 97.9273 163.051 98.7473 162.349 99.4835L162.347 99.4823Z" fill="#BA7303"/>
<path d="M162.347 99.4823C162.291 99.5485 162.232 99.6123 162.174 99.671C162.114 99.731 162.052 99.7873 161.987 99.8423C159.957 101.782 157.3 102.85 154.5 102.85C148.517 102.85 143.65 97.9823 143.65 91.9998C143.65 91.5148 143.684 91.0348 143.747 90.561H126.42C123.376 90.561 120.9 93.0373 120.9 96.081V117.681C120.9 120.725 123.376 123.201 126.42 123.201H158.581C161.625 123.201 164.101 120.725 164.101 117.681V97.0498C163.637 97.9273 163.051 98.7473 162.349 99.4835L162.347 99.4823Z" fill="url(#paint0_linear_1124_4113)" style="mix-blend-mode:multiply"/>
<path d="M162.347 99.4823C162.291 99.5485 162.232 99.6123 162.174 99.671C162.114 99.731 162.052 99.7873 161.987 99.8423C159.957 101.782 157.3 102.85 154.5 102.85C148.517 102.85 143.65 97.9823 143.65 91.9998C143.65 91.5148 143.684 91.0348 143.747 90.561H126.42C123.376 90.561 120.9 93.0373 120.9 96.081V106.897C120.9 109.941 123.376 112.417 126.42 112.417H158.581C161.625 112.417 164.101 109.941 164.101 106.897V97.0498C163.637 97.9273 163.051 98.7473 162.349 99.4835L162.347 99.4823Z" fill="#D9AA16"/>
<path d="M162.347 99.4823C162.291 99.5485 162.232 99.6123 162.174 99.671C162.114 99.731 162.052 99.7873 161.987 99.8423C159.957 101.782 157.3 102.85 154.5 102.85C148.517 102.85 143.65 97.9823 143.65 91.9998C143.65 91.5148 143.684 91.0348 143.747 90.561H126.42C123.376 90.561 120.9 93.0373 120.9 96.081V106.897C120.9 109.941 123.376 112.417 126.42 112.417H158.581C161.625 112.417 164.101 109.941 164.101 106.897V97.0498C163.637 97.9273 163.051 98.7473 162.349 99.4835L162.347 99.4823Z" fill="url(#paint1_linear_1124_4113)" style="mix-blend-mode:multiply"/>
<path d="M142.5 114.216C140.449 114.216 138.78 112.547 138.78 110.496C138.78 109.436 139.639 108.576 140.7 108.576H144.3C145.36 108.576 146.22 109.435 146.22 110.496C146.22 112.547 144.551 114.216 142.5 114.216Z" fill="#B76F09"/>
<path d="M161.415 98.6487C163.076 96.9224 164.1 94.5787 164.1 91.9999C164.1 86.7062 159.794 82.3999 154.5 82.3999C151.928 82.3999 149.59 83.4187 147.864 85.0724C147.811 85.1149 147.759 85.1612 147.71 85.2099C147.66 85.2599 147.615 85.3112 147.571 85.3649C145.919 87.0899 144.899 89.4274 144.899 91.9999C144.899 97.2937 149.205 101.6 154.499 101.6C157.08 101.6 159.424 100.574 161.151 98.9112C161.198 98.8724 161.244 98.8324 161.288 98.7887C161.333 98.7437 161.374 98.6974 161.414 98.6487H161.415ZM160.261 91.9999C160.261 92.8874 160.059 93.7299 159.699 94.4812L152.019 86.8012C152.771 86.4412 153.613 86.2387 154.5 86.2387C157.676 86.2387 160.261 88.8237 160.261 91.9999ZM148.739 91.9999C148.739 91.1124 148.941 90.2699 149.301 89.5187L156.981 97.1987C156.229 97.5587 155.388 97.7612 154.5 97.7612C151.324 97.7612 148.739 95.1762 148.739 91.9999Z" fill="#FF1934"/>
</g>
<path d="M62.7996 155L63.2896 148.26H64.3196L65.2096 150.72L66.2896 153.86C66.6763 152.767 67.0563 151.72 67.4296 150.72L68.3596 148.26H69.3896L69.9796 155H69.1696L68.9396 152.34L68.6996 149.35C68.3463 150.337 67.9829 151.333 67.6096 152.34L66.6696 154.85H65.8996L65.0096 152.34L63.9896 149.41C63.9896 149.67 63.9263 150.647 63.7996 152.34L63.6096 155H62.7996ZM74.1338 152.66H73.2538C72.8272 152.66 72.5072 152.743 72.2938 152.91C72.0805 153.077 71.9738 153.287 71.9738 153.54C71.9738 153.793 72.0572 154 72.2238 154.16C72.3905 154.313 72.6338 154.39 72.9538 154.39C73.3138 154.39 73.6005 154.29 73.8138 154.09C74.0272 153.883 74.1338 153.623 74.1338 153.31V152.66ZM71.5138 150.99V150.2C71.8938 149.967 72.3938 149.85 73.0138 149.85C74.2872 149.85 74.9238 150.497 74.9238 151.79V155H74.1438V154.4C73.8838 154.833 73.4105 155.05 72.7238 155.05C72.2505 155.05 71.8672 154.91 71.5738 154.63C71.2872 154.35 71.1438 153.997 71.1438 153.57C71.1438 153.083 71.3272 152.707 71.6938 152.44C72.0672 152.167 72.5738 152.03 73.2138 152.03H74.1338V151.77C74.1338 151.37 74.0438 151.07 73.8638 150.87C73.6838 150.663 73.3805 150.56 72.9538 150.56C72.4138 150.56 71.9338 150.703 71.5138 150.99ZM79.0557 152.66H78.1757C77.749 152.66 77.429 152.743 77.2157 152.91C77.0024 153.077 76.8957 153.287 76.8957 153.54C76.8957 153.793 76.979 154 77.1457 154.16C77.3124 154.313 77.5557 154.39 77.8757 154.39C78.2357 154.39 78.5224 154.29 78.7357 154.09C78.949 153.883 79.0557 153.623 79.0557 153.31V152.66ZM76.4357 150.99V150.2C76.8157 149.967 77.3157 149.85 77.9357 149.85C79.209 149.85 79.8457 150.497 79.8457 151.79V155H79.0657V154.4C78.8057 154.833 78.3324 155.05 77.6457 155.05C77.1724 155.05 76.789 154.91 76.4957 154.63C76.209 154.35 76.0657 153.997 76.0657 153.57C76.0657 153.083 76.249 152.707 76.6157 152.44C76.989 152.167 77.4957 152.03 78.1357 152.03H79.0557V151.77C79.0557 151.37 78.9657 151.07 78.7857 150.87C78.6057 150.663 78.3024 150.56 77.8757 150.56C77.3357 150.56 76.8557 150.703 76.4357 150.99ZM83.6676 147.93V148.65C83.5076 148.597 83.3542 148.57 83.2076 148.57C82.9942 148.57 82.8176 148.643 82.6776 148.79C82.5442 148.937 82.4776 149.163 82.4776 149.47V149.93H83.5976V150.57H82.4776V155H81.6876V150.57H80.8176V149.93H81.6876V149.46C81.6876 148.967 81.8176 148.577 82.0776 148.29C82.3442 148.003 82.7109 147.86 83.1776 147.86C83.3376 147.86 83.5009 147.883 83.6676 147.93ZM83.7286 156.23L84.6586 153.99H85.7086L84.4186 156.23H83.7286ZM90.5461 152.54H92.9361L92.8061 152.15L91.7561 148.91C91.6761 149.197 91.3161 150.28 90.6761 152.16L90.5461 152.54ZM93.7561 155L93.1661 153.23H90.3161L89.7161 155H88.8461L91.1961 148.26H92.3161L94.6261 155H93.7561ZM96.4905 149.93V150.81C96.7905 150.177 97.3238 149.86 98.0905 149.86C98.5838 149.86 98.9771 150.01 99.2705 150.31C99.5638 150.61 99.7105 151.01 99.7105 151.51V155H98.9205V151.72C98.9205 151.347 98.8238 151.063 98.6305 150.87C98.4438 150.67 98.1971 150.57 97.8905 150.57C97.5105 150.57 97.1805 150.717 96.9005 151.01C96.6271 151.303 96.4905 151.71 96.4905 152.23V155H95.7105V149.93H96.4905ZM103.041 154.36C103.454 154.36 103.804 154.207 104.091 153.9C104.384 153.593 104.531 153.103 104.531 152.43C104.531 151.79 104.381 151.32 104.081 151.02C103.781 150.72 103.451 150.57 103.091 150.57C102.671 150.57 102.321 150.74 102.041 151.08C101.768 151.413 101.631 151.893 101.631 152.52C101.631 153.067 101.764 153.51 102.031 153.85C102.298 154.19 102.634 154.36 103.041 154.36ZM104.531 147.93H105.321V155H104.531V154.25C104.171 154.803 103.651 155.08 102.971 155.08C102.298 155.08 101.768 154.83 101.381 154.33C101.001 153.83 100.811 153.223 100.811 152.51C100.811 151.717 101.014 151.077 101.421 150.59C101.828 150.097 102.351 149.85 102.991 149.85C103.651 149.85 104.164 150.133 104.531 150.7V147.93ZM109.515 152.66H108.635C108.208 152.66 107.888 152.743 107.675 152.91C107.461 153.077 107.355 153.287 107.355 153.54C107.355 153.793 107.438 154 107.605 154.16C107.771 154.313 108.015 154.39 108.335 154.39C108.695 154.39 108.981 154.29 109.195 154.09C109.408 153.883 109.515 153.623 109.515 153.31V152.66ZM106.895 150.99V150.2C107.275 149.967 107.775 149.85 108.395 149.85C109.668 149.85 110.305 150.497 110.305 151.79V155H109.525V154.4C109.265 154.833 108.791 155.05 108.105 155.05C107.631 155.05 107.248 154.91 106.955 154.63C106.668 154.35 106.525 153.997 106.525 153.57C106.525 153.083 106.708 152.707 107.075 152.44C107.448 152.167 107.955 152.03 108.595 152.03H109.515V151.77C109.515 151.37 109.425 151.07 109.245 150.87C109.065 150.663 108.761 150.56 108.335 150.56C107.795 150.56 107.315 150.703 106.895 150.99ZM114.948 149.93V150.75C115.228 150.157 115.704 149.86 116.377 149.86C117.158 149.86 117.651 150.19 117.858 150.85C118.004 150.53 118.208 150.287 118.468 150.12C118.734 149.947 119.031 149.86 119.358 149.86C119.884 149.86 120.281 150.01 120.548 150.31C120.814 150.61 120.948 151.013 120.948 151.52V155H120.158V151.72C120.158 150.953 119.834 150.57 119.188 150.57C118.868 150.57 118.581 150.717 118.328 151.01C118.074 151.297 117.948 151.703 117.948 152.23V155H117.158V151.72C117.158 150.953 116.834 150.57 116.188 150.57C115.868 150.57 115.581 150.717 115.328 151.01C115.074 151.297 114.948 151.703 114.948 152.23V155H114.168V149.93H114.948ZM125.081 152.66H124.201C123.774 152.66 123.454 152.743 123.241 152.91C123.028 153.077 122.921 153.287 122.921 153.54C122.921 153.793 123.004 154 123.171 154.16C123.338 154.313 123.581 154.39 123.901 154.39C124.261 154.39 124.548 154.29 124.761 154.09C124.974 153.883 125.081 153.623 125.081 153.31V152.66ZM122.461 150.99V150.2C122.841 149.967 123.341 149.85 123.961 149.85C125.234 149.85 125.871 150.497 125.871 151.79V155H125.091V154.4C124.831 154.833 124.358 155.05 123.671 155.05C123.198 155.05 122.814 154.91 122.521 154.63C122.234 154.35 122.091 153.997 122.091 153.57C122.091 153.083 122.274 152.707 122.641 152.44C123.014 152.167 123.521 152.03 124.161 152.03H125.081V151.77C125.081 151.37 124.991 151.07 124.811 150.87C124.631 150.663 124.328 150.56 123.901 150.56C123.361 150.56 122.881 150.703 122.461 150.99ZM130.033 150.1V150.85C129.726 150.663 129.306 150.57 128.773 150.57C128.506 150.57 128.293 150.633 128.133 150.76C127.98 150.88 127.903 151.037 127.903 151.23C127.903 151.35 127.926 151.457 127.973 151.55C128.02 151.637 128.11 151.723 128.243 151.81C128.383 151.897 128.483 151.957 128.543 151.99C128.61 152.017 128.75 152.077 128.963 152.17C129.39 152.343 129.723 152.54 129.963 152.76C130.203 152.98 130.323 153.277 130.323 153.65C130.323 154.083 130.17 154.427 129.863 154.68C129.563 154.933 129.15 155.06 128.623 155.06C128.01 155.06 127.513 154.957 127.133 154.75V153.98C127.58 154.247 128.06 154.38 128.573 154.38C128.88 154.38 129.113 154.32 129.273 154.2C129.433 154.08 129.513 153.917 129.513 153.71C129.513 153.47 129.423 153.283 129.243 153.15C129.07 153.017 128.776 152.867 128.363 152.7C127.983 152.553 127.676 152.37 127.443 152.15C127.216 151.93 127.103 151.633 127.103 151.26C127.103 150.84 127.26 150.507 127.573 150.26C127.893 150.007 128.29 149.88 128.763 149.88C129.29 149.88 129.713 149.953 130.033 150.1ZM131.434 155V149.93H132.224V155H131.434ZM131.454 148.71C131.361 148.61 131.314 148.487 131.314 148.34C131.314 148.193 131.361 148.07 131.454 147.97C131.554 147.87 131.677 147.82 131.824 147.82C131.971 147.82 132.094 147.87 132.194 147.97C132.294 148.07 132.344 148.193 132.344 148.34C132.344 148.487 132.294 148.61 132.194 148.71C132.094 148.803 131.971 148.85 131.824 148.85C131.677 148.85 131.554 148.803 131.454 148.71ZM134.508 147.93V150.81C134.808 150.177 135.341 149.86 136.108 149.86C136.595 149.86 136.985 150.01 137.278 150.31C137.578 150.61 137.728 151.017 137.728 151.53V155H136.938V151.72C136.938 151.353 136.841 151.07 136.648 150.87C136.461 150.67 136.215 150.57 135.908 150.57C135.535 150.57 135.208 150.713 134.928 151C134.648 151.287 134.508 151.697 134.508 152.23V155H133.728V147.93H134.508ZM142.66 150.57V153.54C142.66 154.08 142.913 154.35 143.42 154.35C143.68 154.35 143.91 154.273 144.11 154.12V154.87C143.89 154.99 143.643 155.05 143.37 155.05C142.37 155.05 141.87 154.54 141.87 153.52V150.57H141.06V149.93H141.87V148.67H142.66V149.93H144.06V150.57H142.66ZM148.491 152.14V151.94C148.491 151.52 148.378 151.187 148.151 150.94C147.925 150.687 147.611 150.56 147.211 150.56C146.831 150.56 146.508 150.697 146.241 150.97C145.975 151.243 145.818 151.633 145.771 152.14H148.491ZM148.961 154V154.74C148.568 154.947 148.088 155.05 147.521 155.05C146.755 155.05 146.135 154.817 145.661 154.35C145.195 153.877 144.961 153.253 144.961 152.48C144.961 151.673 145.171 151.037 145.591 150.57C146.011 150.103 146.551 149.87 147.211 149.87C147.845 149.87 148.348 150.073 148.721 150.48C149.095 150.887 149.281 151.463 149.281 152.21C149.281 152.423 149.265 152.62 149.231 152.8H145.771C145.831 153.3 146.021 153.683 146.341 153.95C146.661 154.217 147.081 154.35 147.601 154.35C148.168 154.35 148.621 154.233 148.961 154ZM151.576 150.57V153.54C151.576 154.08 151.829 154.35 152.336 154.35C152.596 154.35 152.826 154.273 153.026 154.12V154.87C152.806 154.99 152.559 155.05 152.286 155.05C151.286 155.05 150.786 154.54 150.786 153.52V150.57H149.976V149.93H150.786V148.67H151.576V149.93H152.976V150.57H151.576ZM156.907 152.66H156.027C155.601 152.66 155.281 152.743 155.067 152.91C154.854 153.077 154.747 153.287 154.747 153.54C154.747 153.793 154.831 154 154.997 154.16C155.164 154.313 155.407 154.39 155.727 154.39C156.087 154.39 156.374 154.29 156.587 154.09C156.801 153.883 156.907 153.623 156.907 153.31V152.66ZM154.287 150.99V150.2C154.667 149.967 155.167 149.85 155.787 149.85C157.061 149.85 157.697 150.497 157.697 151.79V155H156.917V154.4C156.657 154.833 156.184 155.05 155.497 155.05C155.024 155.05 154.641 154.91 154.347 154.63C154.061 154.35 153.917 153.997 153.917 153.57C153.917 153.083 154.101 152.707 154.467 152.44C154.841 152.167 155.347 152.03 155.987 152.03H156.907V151.77C156.907 151.37 156.817 151.07 156.637 150.87C156.457 150.663 156.154 150.56 155.727 150.56C155.187 150.56 154.707 150.703 154.287 150.99ZM161.329 154.36C161.756 154.36 162.106 154.193 162.379 153.86C162.652 153.52 162.789 153.04 162.789 152.42C162.789 151.867 162.656 151.42 162.389 151.08C162.122 150.74 161.786 150.57 161.379 150.57C160.972 150.57 160.619 150.72 160.319 151.02C160.026 151.313 159.879 151.797 159.879 152.47C159.879 153.117 160.029 153.593 160.329 153.9C160.629 154.207 160.962 154.36 161.329 154.36ZM159.879 149.93V150.7C160.232 150.133 160.756 149.85 161.449 149.85C162.122 149.85 162.649 150.097 163.029 150.59C163.416 151.077 163.609 151.687 163.609 152.42C163.609 153.2 163.406 153.84 162.999 154.34C162.599 154.833 162.076 155.08 161.429 155.08C160.762 155.08 160.246 154.797 159.879 154.23V156.97H159.099V149.93H159.879Z" fill="#2B2B2B"/>
<path d="M168.334 149.93V150.73C168.621 150.157 169.098 149.87 169.764 149.87C170.504 149.87 170.984 150.19 171.204 150.83C171.338 150.523 171.538 150.287 171.804 150.12C172.071 149.953 172.374 149.87 172.714 149.87C173.228 149.87 173.624 150.027 173.904 150.34C174.184 150.647 174.324 151.087 174.324 151.66V155H173.114V151.89C173.114 151.21 172.854 150.87 172.334 150.87C172.074 150.87 171.841 150.983 171.634 151.21C171.434 151.437 171.334 151.793 171.334 152.28V155H170.124V151.89C170.124 151.21 169.864 150.87 169.344 150.87C169.084 150.87 168.851 150.983 168.644 151.21C168.438 151.437 168.334 151.793 168.334 152.28V155H167.134V149.93H168.334ZM178.612 152.05V151.9C178.599 151.573 178.509 151.313 178.342 151.12C178.182 150.92 177.945 150.82 177.632 150.82C177.345 150.82 177.095 150.927 176.882 151.14C176.675 151.347 176.542 151.65 176.482 152.05H178.612ZM179.432 153.68V154.72C179.079 154.94 178.569 155.05 177.902 155.05C177.095 155.05 176.459 154.81 175.992 154.33C175.525 153.85 175.292 153.23 175.292 152.47C175.292 151.663 175.512 151.03 175.952 150.57C176.392 150.11 176.942 149.88 177.602 149.88C178.262 149.88 178.785 150.08 179.172 150.48C179.559 150.88 179.752 151.463 179.752 152.23C179.752 152.417 179.729 152.657 179.682 152.95H176.502C176.589 153.317 176.769 153.597 177.042 153.79C177.322 153.983 177.669 154.08 178.082 154.08C178.615 154.08 179.065 153.947 179.432 153.68ZM182.055 149.93V150.8C182.342 150.18 182.862 149.87 183.615 149.87C184.122 149.87 184.522 150.023 184.815 150.33C185.108 150.637 185.255 151.07 185.255 151.63V155H184.055V151.88C184.055 151.547 183.975 151.297 183.815 151.13C183.655 150.957 183.438 150.87 183.165 150.87C182.852 150.87 182.588 150.993 182.375 151.24C182.162 151.48 182.055 151.827 182.055 152.28V155H180.855V149.93H182.055ZM188.629 153.86C188.956 153.86 189.229 153.733 189.449 153.48C189.669 153.22 189.779 152.883 189.779 152.47C189.779 151.93 189.673 151.533 189.459 151.28C189.246 151.027 188.976 150.9 188.649 150.9C188.303 150.9 188.029 151.037 187.829 151.31C187.629 151.577 187.529 151.94 187.529 152.4C187.529 152.873 187.633 153.237 187.839 153.49C188.046 153.737 188.309 153.86 188.629 153.86ZM189.779 149.93H190.979V154.54C190.979 155.34 190.746 155.94 190.279 156.34C189.819 156.747 189.233 156.95 188.519 156.95C187.853 156.95 187.269 156.83 186.769 156.59V155.37C187.223 155.69 187.766 155.85 188.399 155.85C189.319 155.85 189.779 155.41 189.779 154.53V154.09C189.473 154.59 188.993 154.84 188.339 154.84C187.773 154.84 187.286 154.633 186.879 154.22C186.479 153.8 186.279 153.193 186.279 152.4C186.279 151.667 186.469 151.063 186.849 150.59C187.236 150.11 187.743 149.87 188.369 149.87C189.003 149.87 189.473 150.133 189.779 150.66V149.93ZM194.812 152.82H194.192C193.879 152.82 193.639 152.887 193.472 153.02C193.306 153.147 193.222 153.31 193.222 153.51C193.222 153.937 193.469 154.15 193.962 154.15C194.229 154.15 194.436 154.073 194.582 153.92C194.736 153.76 194.812 153.553 194.812 153.3V152.82ZM192.352 151.3V150.19C192.732 149.957 193.279 149.84 193.992 149.84C195.366 149.84 196.052 150.48 196.052 151.76V155H194.862V154.39C194.629 154.823 194.189 155.04 193.542 155.04C193.062 155.04 192.679 154.9 192.392 154.62C192.112 154.34 191.972 153.987 191.972 153.56C191.972 153.08 192.152 152.703 192.512 152.43C192.872 152.157 193.392 152.02 194.072 152.02H194.812V151.71C194.812 151.43 194.739 151.217 194.592 151.07C194.446 150.923 194.196 150.85 193.842 150.85C193.302 150.85 192.806 151 192.352 151.3ZM198.491 149.93V150.8C198.777 150.18 199.297 149.87 200.051 149.87C200.557 149.87 200.957 150.023 201.251 150.33C201.544 150.637 201.691 151.07 201.691 151.63V155H200.491V151.88C200.491 151.547 200.411 151.297 200.251 151.13C200.091 150.957 199.874 150.87 199.601 150.87C199.287 150.87 199.024 150.993 198.811 151.24C198.597 151.48 198.491 151.827 198.491 152.28V155H197.291V149.93H198.491ZM205.065 153.86C205.392 153.86 205.665 153.733 205.885 153.48C206.105 153.22 206.215 152.883 206.215 152.47C206.215 151.93 206.108 151.533 205.895 151.28C205.682 151.027 205.412 150.9 205.085 150.9C204.738 150.9 204.465 151.037 204.265 151.31C204.065 151.577 203.965 151.94 203.965 152.4C203.965 152.873 204.068 153.237 204.275 153.49C204.482 153.737 204.745 153.86 205.065 153.86ZM206.215 149.93H207.415V154.54C207.415 155.34 207.182 155.94 206.715 156.34C206.255 156.747 205.668 156.95 204.955 156.95C204.288 156.95 203.705 156.83 203.205 156.59V155.37C203.658 155.69 204.202 155.85 204.835 155.85C205.755 155.85 206.215 155.41 206.215 154.53V154.09C205.908 154.59 205.428 154.84 204.775 154.84C204.208 154.84 203.722 154.633 203.315 154.22C202.915 153.8 202.715 153.193 202.715 152.4C202.715 151.667 202.905 151.063 203.285 150.59C203.672 150.11 204.178 149.87 204.805 149.87C205.438 149.87 205.908 150.133 206.215 150.66V149.93ZM210.778 153.86C211.104 153.86 211.378 153.733 211.598 153.48C211.818 153.22 211.928 152.883 211.928 152.47C211.928 151.93 211.821 151.533 211.608 151.28C211.394 151.027 211.124 150.9 210.798 150.9C210.451 150.9 210.178 151.037 209.978 151.31C209.778 151.577 209.678 151.94 209.678 152.4C209.678 152.873 209.781 153.237 209.988 153.49C210.194 153.737 210.458 153.86 210.778 153.86ZM211.928 149.93H213.128V154.54C213.128 155.34 212.894 155.94 212.428 156.34C211.968 156.747 211.381 156.95 210.668 156.95C210.001 156.95 209.418 156.83 208.918 156.59V155.37C209.371 155.69 209.914 155.85 210.548 155.85C211.468 155.85 211.928 155.41 211.928 154.53V154.09C211.621 154.59 211.141 154.84 210.488 154.84C209.921 154.84 209.434 154.633 209.028 154.22C208.628 153.8 208.428 153.193 208.428 152.4C208.428 151.667 208.618 151.063 208.998 150.59C209.384 150.11 209.891 149.87 210.518 149.87C211.151 149.87 211.621 150.133 211.928 150.66V149.93ZM217.511 149.93H218.721V155H217.511V154.17C217.244 154.757 216.724 155.05 215.951 155.05C215.437 155.05 215.037 154.903 214.751 154.61C214.464 154.317 214.321 153.9 214.321 153.36V149.93H215.521V153.08C215.521 153.4 215.597 153.643 215.751 153.81C215.911 153.977 216.127 154.06 216.401 154.06C216.747 154.06 217.017 153.943 217.211 153.71C217.411 153.477 217.511 153.123 217.511 152.65V149.93ZM221.225 149.93V150.83C221.458 150.203 221.885 149.89 222.505 149.89C222.645 149.89 222.758 149.9 222.845 149.92V151.08C222.692 151.013 222.522 150.98 222.335 150.98C222.008 150.98 221.742 151.113 221.535 151.38C221.328 151.647 221.225 151.98 221.225 152.38V155H220.015L220.025 149.93H221.225Z" fill="#FF1934"/>
<rect x="82.5" y="200" width="120" height="24" rx="8" fill="#FF1934"/>
<path d="M122.49 213.104L124.594 213.104L124.594 214L121.482 214L121.482 208.608L122.49 208.608L122.49 213.104ZM126.725 211.952L128.245 211.952L128.173 211.712C127.992 211.136 127.842 210.653 127.725 210.264C127.613 209.869 127.544 209.621 127.517 209.52L127.485 209.36C127.437 209.627 127.208 210.413 126.797 211.72L126.725 211.952ZM128.885 214L128.501 212.776L126.461 212.776L126.077 214L125.021 214L126.845 208.608L128.149 208.608L129.973 214L128.885 214ZM130.748 214L130.748 208.608L131.892 208.608L133.188 210.856C133.401 211.224 133.59 211.568 133.756 211.888C133.926 212.203 134.041 212.427 134.1 212.56L134.188 212.76C134.145 212.317 134.124 211.683 134.124 210.856L134.124 208.608L135.14 208.608L135.14 214L133.988 214L132.676 211.76C132.468 211.408 132.278 211.072 132.108 210.752C131.942 210.427 131.828 210.192 131.764 210.048L131.668 209.824C131.726 210.331 131.756 210.973 131.756 211.752L131.756 214L130.748 214ZM135.935 213.84L135.935 212.928C136.138 213.056 136.351 213.12 136.575 213.12C136.986 213.12 137.191 212.901 137.191 212.464L137.191 208.616L138.199 208.616L138.199 212.464C138.199 212.971 138.071 213.355 137.815 213.616C137.559 213.877 137.207 214.008 136.759 214.008C136.423 214.008 136.149 213.952 135.935 213.84ZM142.463 211.936L142.463 208.608L143.471 208.608L143.471 211.928C143.471 212.627 143.281 213.16 142.903 213.528C142.529 213.891 142.015 214.072 141.359 214.072C140.719 214.072 140.207 213.893 139.823 213.536C139.444 213.173 139.255 212.656 139.255 211.984L139.255 208.608L140.263 208.608L140.263 211.976C140.263 212.387 140.364 212.685 140.567 212.872C140.769 213.053 141.033 213.144 141.359 213.144C142.095 213.144 142.463 212.741 142.463 211.936ZM147.96 208.608L147.96 209.44L146.592 209.44L146.592 214L145.576 214L145.576 209.44L144.208 209.44L144.208 208.608L147.96 208.608ZM148.716 214L148.716 208.608L149.724 208.608L149.724 214L148.716 214ZM151.004 211.312L153.012 214L151.74 214L149.804 211.328L151.668 208.608L152.876 208.608L151.004 211.312ZM155.108 211.952L156.628 211.952L156.556 211.712C156.374 211.136 156.225 210.653 156.108 210.264C155.996 209.869 155.926 209.621 155.9 209.52L155.868 209.36C155.82 209.627 155.59 210.413 155.18 211.72L155.108 211.952ZM157.268 214L156.884 212.776L154.844 212.776L154.46 214L153.404 214L155.228 208.608L156.532 208.608L158.356 214L157.268 214ZM159.13 214L159.13 208.608L160.274 208.608L161.57 210.856C161.784 211.224 161.973 211.568 162.138 211.888C162.309 212.203 162.424 212.427 162.482 212.56L162.57 212.76C162.528 212.317 162.506 211.683 162.506 210.856L162.506 208.608L163.522 208.608L163.522 214L162.37 214L161.058 211.76C160.85 211.408 160.661 211.072 160.49 210.752C160.325 210.427 160.21 210.192 160.146 210.048L160.05 209.824C160.109 210.331 160.138 210.973 160.138 211.752L160.138 214L159.13 214Z" fill="white"/>
<defs>
<filter id="filter0_d_1124_4113" x="-4" y="-2" width="293" height="56" filterUnits="userSpaceOnUse" color-interpolation-filters="sRGB">
<feFlood flood-opacity="0" result="BackgroundImageFix"/>
<feColorMatrix in="SourceAlpha" type="matrix" values="0 0 0 0 0 0 0 0 0 0 0 0 0 0 0 0 0 0 127 0" result="hardAlpha"/>
<feOffset dy="2"/>
<feGaussianBlur stdDeviation="2"/>
<feComposite in2="hardAlpha" operator="out"/>
<feColorMatrix type="matrix" values="0 0 0 0 0.168627 0 0 0 0 0.168627 0 0 0 0 0.168627 0 0 0 0.24 0"/>
<feBlend mode="normal" in2="BackgroundImageFix" result="effect1_dropShadow_1124_4113"/>
<feBlend mode="normal" in="SourceGraphic" in2="effect1_dropShadow_1124_4113" result="shape"/>
</filter>
<linearGradient id="paint0_linear_1124_4113" x1="142.5" y1="91.316" x2="142.5" y2="121.97" gradientUnits="userSpaceOnUse">
<stop stop-color="#D9AA16"/>
<stop offset="0.58" stop-color="#EFDCA0"/>
<stop offset="1" stop-color="white"/>
</linearGradient>
<linearGradient id="paint1_linear_1124_4113" x1="121.299" y1="112.001" x2="161.644" y2="91.996" gradientUnits="userSpaceOnUse">
<stop stop-color="#D9AA16"/>
<stop offset="1" stop-color="white"/>
</linearGradient>
<clipPath id="clip0_1124_4113">
<rect width="24" height="24" fill="white" transform="translate(16 16)"/>
</clipPath>
<clipPath id="clip1_1124_4113">
<rect width="64" height="64" fill="white" transform="translate(110.5 72)"/>
</clipPath>
</defs>
</svg>
