<svg width="222" height="238" viewBox="0 0 222 238" fill="none" xmlns="http://www.w3.org/2000/svg">
<rect width="222" height="238" fill="#D3D3D3"/>
<rect width="222" height="238" rx="16" fill="white"/>
<path d="M75.06 24.284V28.172H75.048L75.06 28.304C74.324 28.832 73.404 29.096 72.3 29.096C71.02 29.096 69.984 28.724 69.192 27.98C68.408 27.236 68.016 26.224 68.016 24.944C68.016 23.696 68.42 22.688 69.228 21.92C70.044 21.152 71.072 20.768 72.312 20.768C73.232 20.768 74.02 20.94 74.676 21.284V22.832C73.94 22.392 73.16 22.172 72.336 22.172C71.528 22.172 70.876 22.424 70.38 22.928C69.884 23.432 69.636 24.104 69.636 24.944C69.636 25.8 69.876 26.476 70.356 26.972C70.844 27.46 71.512 27.704 72.36 27.704C72.776 27.704 73.18 27.632 73.572 27.488V25.58H72.084V24.284H75.06ZM79.7083 26.384H78.9643C78.5883 26.384 78.3003 26.464 78.1003 26.624C77.9003 26.776 77.8003 26.972 77.8003 27.212C77.8003 27.724 78.0963 27.98 78.6883 27.98C79.0083 27.98 79.2563 27.888 79.4323 27.704C79.6163 27.512 79.7083 27.264 79.7083 26.96V26.384ZM76.7563 24.56V23.228C77.2123 22.948 77.8683 22.808 78.7243 22.808C80.3723 22.808 81.1963 23.576 81.1963 25.112V29H79.7683V28.268C79.4883 28.788 78.9603 29.048 78.1843 29.048C77.6083 29.048 77.1483 28.88 76.8043 28.544C76.4683 28.208 76.3003 27.784 76.3003 27.272C76.3003 26.696 76.5163 26.244 76.9483 25.916C77.3803 25.588 78.0043 25.424 78.8203 25.424H79.7083V25.052C79.7083 24.716 79.6203 24.46 79.4443 24.284C79.2683 24.108 78.9683 24.02 78.5443 24.02C77.8963 24.02 77.3003 24.2 76.7563 24.56ZM84.1223 22.916V23.96C84.4663 23.216 85.0903 22.844 85.9943 22.844C86.6023 22.844 87.0823 23.028 87.4343 23.396C87.7863 23.764 87.9623 24.284 87.9623 24.956V29H86.5223V25.256C86.5223 24.856 86.4263 24.556 86.2343 24.356C86.0423 24.148 85.7823 24.044 85.4543 24.044C85.0783 24.044 84.7623 24.192 84.5063 24.488C84.2503 24.776 84.1223 25.192 84.1223 25.736V29H82.6823V22.916H84.1223ZM91.2195 23.996V27.092C91.2195 27.348 91.2875 27.544 91.4235 27.68C91.5595 27.808 91.7475 27.872 91.9875 27.872C92.2915 27.872 92.5715 27.788 92.8275 27.62V28.856C92.5475 28.992 92.1875 29.06 91.7475 29.06C90.4355 29.06 89.7795 28.396 89.7795 27.068V23.996H88.8675V22.916H89.7795V21.452H91.2195V22.916H92.7315V23.996H91.2195ZM94.0744 29V22.916H95.5144V29H94.0744ZM93.9304 21.092C93.9304 20.852 94.0144 20.648 94.1824 20.48C94.3504 20.312 94.5544 20.228 94.7944 20.228C95.0344 20.228 95.2384 20.312 95.4064 20.48C95.5744 20.648 95.6584 20.852 95.6584 21.092C95.6584 21.34 95.5744 21.548 95.4064 21.716C95.2384 21.884 95.0344 21.968 94.7944 21.968C94.5544 21.968 94.3504 21.884 94.1824 21.716C94.0144 21.548 93.9304 21.34 93.9304 21.092ZM104.908 22.148H101.692V24.536H104.5V25.772H101.692V29H100.168V20.912H104.908V22.148ZM108.7 29.096C107.78 29.096 107.06 28.808 106.54 28.232C106.028 27.656 105.772 26.92 105.772 26.024C105.772 25.096 106.04 24.332 106.576 23.732C107.112 23.124 107.82 22.82 108.7 22.82C109.636 22.82 110.36 23.116 110.872 23.708C111.384 24.292 111.64 25.036 111.64 25.94C111.64 26.86 111.38 27.616 110.86 28.208C110.348 28.8 109.628 29.096 108.7 29.096ZM108.7 23.996C108.244 23.996 107.892 24.184 107.644 24.56C107.404 24.936 107.284 25.408 107.284 25.976C107.284 26.536 107.408 27.004 107.656 27.38C107.904 27.756 108.256 27.944 108.712 27.944C109.184 27.944 109.54 27.76 109.78 27.392C110.02 27.024 110.14 26.556 110.14 25.988C110.14 25.404 110.024 24.928 109.792 24.56C109.56 24.184 109.196 23.996 108.7 23.996ZM114.634 23.996V27.092C114.634 27.348 114.702 27.544 114.838 27.68C114.974 27.808 115.162 27.872 115.402 27.872C115.706 27.872 115.986 27.788 116.242 27.62V28.856C115.962 28.992 115.602 29.06 115.162 29.06C113.85 29.06 113.194 28.396 113.194 27.068V23.996H112.282V22.916H113.194V21.452H114.634V22.916H116.146V23.996H114.634ZM120.032 29.096C119.112 29.096 118.392 28.808 117.872 28.232C117.36 27.656 117.104 26.92 117.104 26.024C117.104 25.096 117.372 24.332 117.908 23.732C118.444 23.124 119.152 22.82 120.032 22.82C120.968 22.82 121.692 23.116 122.204 23.708C122.716 24.292 122.972 25.036 122.972 25.94C122.972 26.86 122.712 27.616 122.192 28.208C121.68 28.8 120.96 29.096 120.032 29.096ZM120.032 23.996C119.576 23.996 119.224 24.184 118.976 24.56C118.736 24.936 118.616 25.408 118.616 25.976C118.616 26.536 118.74 27.004 118.988 27.38C119.236 27.756 119.588 27.944 120.044 27.944C120.516 27.944 120.872 27.76 121.112 27.392C121.352 27.024 121.472 26.556 121.472 25.988C121.472 25.404 121.356 24.928 121.124 24.56C120.892 24.184 120.528 23.996 120.032 23.996ZM128.762 25.028H129.614C130.166 25.028 130.578 24.896 130.85 24.632C131.122 24.368 131.258 24.012 131.258 23.564C131.258 23.124 131.122 22.78 130.85 22.532C130.578 22.276 130.178 22.148 129.65 22.148H128.762V25.028ZM127.25 20.912H129.782C130.694 20.912 131.422 21.16 131.966 21.656C132.518 22.152 132.794 22.788 132.794 23.564C132.794 24.388 132.51 25.044 131.942 25.532C131.382 26.012 130.674 26.252 129.818 26.252H128.762V29H127.25V20.912ZM135.298 22.916V23.996C135.578 23.244 136.09 22.868 136.834 22.868C137.002 22.868 137.138 22.88 137.242 22.904V24.296C137.058 24.216 136.854 24.176 136.63 24.176C136.238 24.176 135.918 24.336 135.67 24.656C135.422 24.976 135.298 25.376 135.298 25.856V29H133.846L133.858 22.916H135.298ZM140.693 29.096C139.773 29.096 139.053 28.808 138.533 28.232C138.021 27.656 137.765 26.92 137.765 26.024C137.765 25.096 138.033 24.332 138.569 23.732C139.105 23.124 139.813 22.82 140.693 22.82C141.629 22.82 142.353 23.116 142.865 23.708C143.377 24.292 143.633 25.036 143.633 25.94C143.633 26.86 143.373 27.616 142.853 28.208C142.341 28.8 141.621 29.096 140.693 29.096ZM140.693 23.996C140.237 23.996 139.885 24.184 139.637 24.56C139.397 24.936 139.277 25.408 139.277 25.976C139.277 26.536 139.401 27.004 139.649 27.38C139.897 27.756 140.249 27.944 140.705 27.944C141.177 27.944 141.533 27.76 141.773 27.392C142.013 27.024 142.133 26.556 142.133 25.988C142.133 25.404 142.017 24.928 141.785 24.56C141.553 24.184 141.189 23.996 140.693 23.996ZM150.082 22.916V29H148.642V23.996H146.782V29H145.342V23.996H144.454V22.916H145.342V22.556C145.342 21.876 145.53 21.344 145.906 20.96C146.282 20.576 146.81 20.384 147.49 20.384C148.178 20.384 148.854 20.54 149.518 20.852V22.064C148.838 21.744 148.222 21.584 147.67 21.584C147.374 21.584 147.15 21.66 146.998 21.812C146.854 21.956 146.782 22.208 146.782 22.568V22.916H150.082ZM151.555 29V20.516H152.995V29H151.555Z" fill="#2B2B2B"/>
<g clip-path="url(#clip0_1124_4113)">
<path d="M152.45 137.6C147 130.45 139.8 124.8 131.6 121.25C130.15 120.65 129.65 119.35 129.5 118.7C129.2 117.4 129.5 116 130.4 114.95C135.8 108.45 139.05 99.9 139.05 92.05C139.05 76.6 126.5 64.05 111.05 64.05C95.6003 64.05 83.0503 76.6 83.0503 92.05C83.0503 99.9 86.3003 108.45 91.7003 114.95C92.5503 116 92.9003 117.4 92.6003 118.7C92.4503 119.4 91.9503 120.65 90.5003 121.25C82.3003 124.8 75.0503 130.45 69.6003 137.6C68.2503 139.35 68.6003 141.85 70.3503 143.2C71.1003 143.75 71.9503 144 72.7503 144C73.9503 144 75.1503 143.45 75.9503 142.4C80.5503 136.35 86.6503 131.55 93.6503 128.55C97.0503 127.1 99.5003 124.15 100.35 120.5C101.25 116.75 100.35 112.75 97.8503 109.75C93.6503 104.7 91.0503 97.9 91.0503 91.95C91.0503 80.9 100 71.95 111.05 71.95C122.1 71.95 131.05 80.9 131.05 91.95C131.05 97.9 128.45 104.7 124.25 109.75C120.35 114.4 115.7 116.95 111.05 116.95C108.85 116.95 107.05 118.75 107.05 120.95C107.05 123.15 108.85 124.95 111.05 124.95C114.9 124.95 118.7 123.85 122.2 121.8C123.3 124.8 125.45 127.25 128.45 128.5C135.4 131.5 141.5 136.3 146.15 142.35C146.95 143.4 148.15 143.95 149.35 143.95C150.2 143.95 151.05 143.7 151.75 143.15C153.5 141.8 153.85 139.3 152.5 137.55L152.45 137.6Z" fill="#2B2B2B"/>
</g>
<rect x="51.5" y="44.5" width="119" height="119" stroke="#CCCCCC"/>
<g filter="url(#filter0_d_1124_4113)">
<rect x="63" y="172" width="96" height="22" rx="8" fill="#FF1934" shape-rendering="crispEdges"/>
<path d="M105.431 182.936L105.431 179.608L106.439 179.608L106.439 182.928C106.439 183.627 106.25 184.16 105.871 184.528C105.498 184.891 104.983 185.072 104.327 185.072C103.687 185.072 103.175 184.893 102.791 184.536C102.413 184.173 102.223 183.656 102.223 182.984L102.223 179.608L103.231 179.608L103.231 182.976C103.231 183.387 103.333 183.685 103.535 183.872C103.738 184.053 104.002 184.144 104.327 184.144C105.063 184.144 105.431 183.741 105.431 182.936ZM109.473 184.232C109.75 184.232 109.982 184.117 110.169 183.888C110.355 183.659 110.449 183.36 110.449 182.992C110.449 182.587 110.353 182.272 110.161 182.048C109.974 181.819 109.742 181.704 109.465 181.704C109.203 181.704 108.971 181.808 108.769 182.016C108.566 182.219 108.465 182.525 108.465 182.936C108.465 183.357 108.561 183.68 108.753 183.904C108.945 184.123 109.185 184.232 109.473 184.232ZM108.465 179.344L108.465 181.56C108.747 181.112 109.153 180.888 109.681 180.888C110.187 180.888 110.603 181.077 110.929 181.456C111.259 181.829 111.425 182.336 111.425 182.976C111.425 183.552 111.267 184.043 110.953 184.448C110.643 184.853 110.222 185.056 109.689 185.056C109.155 185.056 108.747 184.829 108.465 184.376L108.465 185L107.497 185L107.497 179.344L108.465 179.344ZM114.319 183.256L113.823 183.256C113.572 183.256 113.38 183.309 113.247 183.416C113.113 183.517 113.047 183.648 113.047 183.808C113.047 184.149 113.244 184.32 113.639 184.32C113.852 184.32 114.017 184.259 114.135 184.136C114.257 184.008 114.319 183.843 114.319 183.64L114.319 183.256ZM112.351 182.04L112.351 181.152C112.655 180.965 113.092 180.872 113.663 180.872C114.761 180.872 115.311 181.384 115.311 182.408L115.311 185L114.359 185L114.359 184.512C114.172 184.859 113.82 185.032 113.303 185.032C112.919 185.032 112.612 184.92 112.383 184.696C112.159 184.472 112.047 184.189 112.047 183.848C112.047 183.464 112.191 183.163 112.479 182.944C112.767 182.725 113.183 182.616 113.727 182.616L114.319 182.616L114.319 182.368C114.319 182.144 114.26 181.973 114.143 181.856C114.025 181.739 113.825 181.68 113.543 181.68C113.111 181.68 112.713 181.8 112.351 182.04ZM117.261 179.344L117.261 181.632C117.48 181.141 117.893 180.896 118.501 180.896C118.896 180.896 119.213 181.021 119.453 181.272C119.699 181.517 119.821 181.875 119.821 182.344L119.821 185L118.861 185L118.861 182.512C118.861 182.256 118.795 182.056 118.661 181.912C118.533 181.768 118.365 181.696 118.157 181.696C117.928 181.696 117.72 181.784 117.533 181.96C117.352 182.136 117.261 182.424 117.261 182.824L117.261 185L116.301 185L116.301 179.344L117.261 179.344Z" fill="white"/>
</g>
<path d="M85.5 210C85.5 203.373 90.8726 198 97.5 198L124.5 198C131.127 198 136.5 203.373 136.5 210C136.5 216.627 131.127 222 124.5 222L97.5 222C90.8726 222 85.5 216.627 85.5 210Z" fill="white"/>
<path d="M102.579 206.26H103.389V213H102.579V209.95H99.3085V213H98.4985V206.26H99.3085V209.22H102.579V206.26ZM107.614 210.66H106.734C106.308 210.66 105.988 210.743 105.774 210.91C105.561 211.077 105.454 211.287 105.454 211.54C105.454 211.793 105.538 212 105.704 212.16C105.871 212.313 106.114 212.39 106.434 212.39C106.794 212.39 107.081 212.29 107.294 212.09C107.508 211.883 107.614 211.623 107.614 211.31V210.66ZM104.994 208.99V208.2C105.374 207.967 105.874 207.85 106.494 207.85C107.768 207.85 108.404 208.497 108.404 209.79V213H107.624V212.4C107.364 212.833 106.891 213.05 106.204 213.05C105.731 213.05 105.348 212.91 105.054 212.63C104.768 212.35 104.624 211.997 104.624 211.57C104.624 211.083 104.808 210.707 105.174 210.44C105.548 210.167 106.054 210.03 106.694 210.03H107.614V209.77C107.614 209.37 107.524 209.07 107.344 208.87C107.164 208.663 106.861 208.56 106.434 208.56C105.894 208.56 105.414 208.703 104.994 208.99ZM112.036 212.36C112.463 212.36 112.813 212.193 113.086 211.86C113.36 211.52 113.496 211.04 113.496 210.42C113.496 209.867 113.363 209.42 113.096 209.08C112.83 208.74 112.493 208.57 112.086 208.57C111.68 208.57 111.326 208.72 111.026 209.02C110.733 209.313 110.586 209.797 110.586 210.47C110.586 211.117 110.736 211.593 111.036 211.9C111.336 212.207 111.67 212.36 112.036 212.36ZM110.586 207.93V208.7C110.94 208.133 111.463 207.85 112.156 207.85C112.83 207.85 113.356 208.097 113.736 208.59C114.123 209.077 114.316 209.687 114.316 210.42C114.316 211.2 114.113 211.84 113.706 212.34C113.306 212.833 112.783 213.08 112.136 213.08C111.47 213.08 110.953 212.797 110.586 212.23V214.97H109.806V207.93H110.586ZM118.63 207.93H119.42V213H118.63V212.12C118.363 212.747 117.833 213.06 117.04 213.06C116.54 213.06 116.143 212.913 115.85 212.62C115.563 212.32 115.42 211.92 115.42 211.42V207.93H116.21V211.22C116.21 211.587 116.303 211.867 116.49 212.06C116.677 212.253 116.93 212.35 117.25 212.35C117.67 212.35 118.003 212.203 118.25 211.91C118.503 211.617 118.63 211.22 118.63 210.72V207.93ZM123.64 208.1V208.85C123.334 208.663 122.914 208.57 122.38 208.57C122.114 208.57 121.9 208.633 121.74 208.76C121.587 208.88 121.51 209.037 121.51 209.23C121.51 209.35 121.534 209.457 121.58 209.55C121.627 209.637 121.717 209.723 121.85 209.81C121.99 209.897 122.09 209.957 122.15 209.99C122.217 210.017 122.357 210.077 122.57 210.17C122.997 210.343 123.33 210.54 123.57 210.76C123.81 210.98 123.93 211.277 123.93 211.65C123.93 212.083 123.777 212.427 123.47 212.68C123.17 212.933 122.757 213.06 122.23 213.06C121.617 213.06 121.12 212.957 120.74 212.75V211.98C121.187 212.247 121.667 212.38 122.18 212.38C122.487 212.38 122.72 212.32 122.88 212.2C123.04 212.08 123.12 211.917 123.12 211.71C123.12 211.47 123.03 211.283 122.85 211.15C122.677 211.017 122.384 210.867 121.97 210.7C121.59 210.553 121.284 210.37 121.05 210.15C120.824 209.93 120.71 209.633 120.71 209.26C120.71 208.84 120.867 208.507 121.18 208.26C121.5 208.007 121.897 207.88 122.37 207.88C122.897 207.88 123.32 207.953 123.64 208.1Z" fill="#2B2B2B"/>
<defs>
<filter id="filter0_d_1124_4113" x="57" y="166" width="112" height="38" filterUnits="userSpaceOnUse" color-interpolation-filters="sRGB">
<feFlood flood-opacity="0" result="BackgroundImageFix"/>
<feColorMatrix in="SourceAlpha" type="matrix" values="0 0 0 0 0 0 0 0 0 0 0 0 0 0 0 0 0 0 127 0" result="hardAlpha"/>
<feOffset dx="2" dy="2"/>
<feGaussianBlur stdDeviation="4"/>
<feComposite in2="hardAlpha" operator="out"/>
<feColorMatrix type="matrix" values="0 0 0 0 0 0 0 0 0 0 0 0 0 0 0 0 0 0 0.12 0"/>
<feBlend mode="normal" in2="BackgroundImageFix" result="effect1_dropShadow_1124_4113"/>
<feBlend mode="normal" in="SourceGraphic" in2="effect1_dropShadow_1124_4113" result="shape"/>
</filter>
<clipPath id="clip0_1124_4113">
<rect x="51" y="44" width="120" height="120" fill="white"/>
</clipPath>
</defs>
</svg>
