<svg width="576" height="302" viewBox="0 0 576 302" fill="none" xmlns="http://www.w3.org/2000/svg">
<rect width="576" height="302" fill="#D3D3D3"/>
<rect width="576" height="302" rx="16" fill="white"/>
<g filter="url(#filter0_d_1124_4113)">
<path d="M0 16C0 7.16344 7.16344 0 16 0H560C568.837 0 576 7.16344 576 16V48H0V16Z" fill="#FF1934" shape-rendering="crispEdges"/>
<g clip-path="url(#clip0_1124_4113)">
<path d="M36.2904 34.72C35.2004 33.29 33.7604 32.16 32.1204 31.45C31.8304 31.33 31.7304 31.07 31.7004 30.94C31.6404 30.68 31.7004 30.4 31.8804 30.19C32.9604 28.89 33.6104 27.18 33.6104 25.61C33.6104 22.52 31.1004 20.01 28.0104 20.01C24.9204 20.01 22.4104 22.52 22.4104 25.61C22.4104 27.18 23.0604 28.89 24.1404 30.19C24.3104 30.4 24.3804 30.68 24.3204 30.94C24.2904 31.08 24.1904 31.33 23.9004 31.45C22.2604 32.16 20.8104 33.29 19.7204 34.72C19.4504 35.07 19.5204 35.57 19.8704 35.84C20.0204 35.95 20.1904 36 20.3504 36C20.5904 36 20.8304 35.89 20.9904 35.68C21.9104 34.47 23.1304 33.51 24.5304 32.91C25.2104 32.62 25.7004 32.03 25.8704 31.3C26.0504 30.55 25.8704 29.75 25.3704 29.15C24.5304 28.14 24.0104 26.78 24.0104 25.59C24.0104 23.38 25.8004 21.59 28.0104 21.59C30.2204 21.59 32.0104 23.38 32.0104 25.59C32.0104 26.78 31.4904 28.14 30.6504 29.15C29.8704 30.08 28.9404 30.59 28.0104 30.59C27.5704 30.59 27.2104 30.95 27.2104 31.39C27.2104 31.83 27.5704 32.19 28.0104 32.19C28.7804 32.19 29.5404 31.97 30.2404 31.56C30.4604 32.16 30.8904 32.65 31.4904 32.9C32.8804 33.5 34.1004 34.46 35.0304 35.67C35.1904 35.88 35.4304 35.99 35.6704 35.99C35.8404 35.99 36.0104 35.94 36.1504 35.83C36.5004 35.56 36.5704 35.06 36.3004 34.71L36.2904 34.72Z" fill="white"/>
</g>
<path d="M51.066 27.24H51.78C52.9187 27.24 53.488 26.722 53.488 25.686C53.488 24.7527 52.9607 24.286 51.906 24.286H51.066V27.24ZM48.91 22.564H52.158C53.2033 22.564 54.048 22.858 54.692 23.446C55.3453 24.034 55.672 24.7807 55.672 25.686C55.672 26.722 55.3313 27.5247 54.65 28.094C53.978 28.6633 53.1473 28.948 52.158 28.948H51.066V32H48.91V22.564ZM58.7587 24.902V26.218C58.8893 25.8073 59.104 25.4807 59.4027 25.238C59.7107 24.986 60.0653 24.86 60.4667 24.86C60.6907 24.86 60.868 24.8787 60.9987 24.916V26.848C60.7747 26.7453 60.518 26.694 60.2287 26.694C59.79 26.694 59.4353 26.8573 59.1647 27.184C58.894 27.5013 58.7587 27.926 58.7587 28.458V32H56.7147L56.7287 24.902H58.7587ZM65.0463 32.112C63.9356 32.112 63.077 31.7807 62.4703 31.118C61.8636 30.446 61.5603 29.5873 61.5603 28.542C61.5603 27.45 61.8776 26.554 62.5123 25.854C63.147 25.1447 63.9916 24.79 65.0463 24.79C66.1476 24.79 67.0016 25.1307 67.6083 25.812C68.215 26.4933 68.5183 27.3613 68.5183 28.416C68.5183 29.4893 68.2103 30.376 67.5943 31.076C66.9876 31.7667 66.1383 32.112 65.0463 32.112ZM65.0323 26.4C64.5843 26.4 64.2483 26.5913 64.0243 26.974C63.8003 27.3567 63.6883 27.8513 63.6883 28.458C63.6883 29.0647 63.8003 29.564 64.0243 29.956C64.2576 30.3387 64.603 30.53 65.0603 30.53C65.5083 30.53 65.8396 30.3433 66.0543 29.97C66.2783 29.5873 66.3903 29.0927 66.3903 28.486C66.3903 27.0953 65.9376 26.4 65.0323 26.4ZM76.4617 24.902V32H74.4177V26.4H72.3877V32H70.3577V26.4H69.4337V24.902H70.3577V24.636C70.3577 23.7773 70.5957 23.11 71.0717 22.634C71.557 22.158 72.2243 21.92 73.0737 21.92C73.9883 21.92 74.8703 22.116 75.7197 22.508V24.16C74.833 23.7587 74.063 23.558 73.4097 23.558C73.0643 23.558 72.8077 23.6373 72.6397 23.796C72.4717 23.9547 72.3877 24.2347 72.3877 24.636V24.902H76.4617ZM77.9764 32V22.102H80.0204V32H77.9764ZM87.5015 27.24H88.2155C89.3542 27.24 89.9235 26.722 89.9235 25.686C89.9235 24.7527 89.3962 24.286 88.3415 24.286H87.5015V27.24ZM85.3455 22.564H88.5935C89.6389 22.564 90.4835 22.858 91.1275 23.446C91.7809 24.034 92.1075 24.7807 92.1075 25.686C92.1075 26.722 91.7669 27.5247 91.0855 28.094C90.4135 28.6633 89.5829 28.948 88.5935 28.948H87.5015V32H85.3455V22.564ZM97.2662 27.8V27.632C97.2009 26.8013 96.8369 26.386 96.1742 26.386C95.8476 26.386 95.5582 26.5073 95.3062 26.75C95.0542 26.9833 94.8862 27.3333 94.8022 27.8H97.2662ZM98.7362 29.886V31.594C98.2509 31.9113 97.5089 32.07 96.5102 32.07C95.3436 32.07 94.4336 31.734 93.7802 31.062C93.1362 30.3807 92.8142 29.508 92.8142 28.444C92.8142 27.3147 93.1269 26.4327 93.7522 25.798C94.3869 25.154 95.1662 24.832 96.0902 24.832C97.0422 24.832 97.7936 25.112 98.3442 25.672C98.8949 26.2227 99.1702 27.0487 99.1702 28.15C99.1702 28.3647 99.1329 28.7333 99.0582 29.256H94.8862C95.0262 29.648 95.2689 29.9513 95.6142 30.166C95.9596 30.3807 96.3749 30.488 96.8602 30.488C97.5789 30.488 98.2042 30.2873 98.7362 29.886ZM102.673 24.902V26.106C102.85 25.714 103.121 25.406 103.485 25.182C103.858 24.9487 104.302 24.832 104.815 24.832C105.543 24.832 106.112 25.0513 106.523 25.49C106.934 25.9193 107.139 26.554 107.139 27.394V32H105.095V27.772C105.095 27.352 104.997 27.0347 104.801 26.82C104.605 26.596 104.33 26.484 103.975 26.484C103.602 26.484 103.289 26.6333 103.037 26.932C102.794 27.2213 102.673 27.66 102.673 28.248V32H100.629V24.902H102.673ZM111.9 30.138C112.339 30.138 112.679 29.9747 112.922 29.648C113.174 29.312 113.3 28.9107 113.3 28.444C113.3 27.1747 112.838 26.54 111.914 26.54C111.503 26.54 111.181 26.6987 110.948 27.016C110.715 27.3333 110.598 27.772 110.598 28.332C110.598 28.92 110.71 29.368 110.934 29.676C111.158 29.984 111.48 30.138 111.9 30.138ZM113.3 24.902H115.33V31.314C115.33 32.4527 114.989 33.3067 114.308 33.876C113.627 34.4547 112.773 34.744 111.746 34.744C110.747 34.744 109.875 34.5667 109.128 34.212V32.126C109.781 32.6487 110.584 32.91 111.536 32.91C112.152 32.91 112.6 32.7793 112.88 32.518C113.16 32.2567 113.3 31.846 113.3 31.286V30.81C112.889 31.4447 112.236 31.762 111.34 31.762C110.556 31.762 109.879 31.4727 109.31 30.894C108.75 30.3153 108.47 29.4567 108.47 28.318C108.47 27.31 108.741 26.4793 109.282 25.826C109.833 25.1633 110.551 24.832 111.438 24.832C112.278 24.832 112.899 25.168 113.3 25.84V24.902ZM120.09 30.138C120.528 30.138 120.869 29.9747 121.112 29.648C121.364 29.312 121.49 28.9107 121.49 28.444C121.49 27.1747 121.028 26.54 120.104 26.54C119.693 26.54 119.371 26.6987 119.138 27.016C118.904 27.3333 118.788 27.772 118.788 28.332C118.788 28.92 118.9 29.368 119.124 29.676C119.348 29.984 119.67 30.138 120.09 30.138ZM121.49 24.902H123.52V31.314C123.52 32.4527 123.179 33.3067 122.498 33.876C121.816 34.4547 120.962 34.744 119.936 34.744C118.937 34.744 118.064 34.5667 117.318 34.212V32.126C117.971 32.6487 118.774 32.91 119.726 32.91C120.342 32.91 120.79 32.7793 121.07 32.518C121.35 32.2567 121.49 31.846 121.49 31.286V30.81C121.079 31.4447 120.426 31.762 119.53 31.762C118.746 31.762 118.069 31.4727 117.5 30.894C116.94 30.3153 116.66 29.4567 116.66 28.318C116.66 27.31 116.93 26.4793 117.472 25.826C118.022 25.1633 118.741 24.832 119.628 24.832C120.468 24.832 121.088 25.168 121.49 25.84V24.902ZM129.525 24.902H131.569V32H129.525V30.866C129.152 31.6593 128.433 32.056 127.369 32.056C126.641 32.056 126.072 31.8553 125.661 31.454C125.26 31.0433 125.059 30.4413 125.059 29.648V24.902H127.103V29.186C127.103 30.0167 127.467 30.432 128.195 30.432C129.082 30.432 129.525 29.8393 129.525 28.654V24.902ZM135.294 24.902V26.106C135.471 25.714 135.742 25.406 136.106 25.182C136.479 24.9487 136.923 24.832 137.436 24.832C138.164 24.832 138.733 25.0513 139.144 25.49C139.555 25.9193 139.76 26.554 139.76 27.394V32H137.716V27.772C137.716 27.352 137.618 27.0347 137.422 26.82C137.226 26.596 136.951 26.484 136.596 26.484C136.223 26.484 135.91 26.6333 135.658 26.932C135.415 27.2213 135.294 27.66 135.294 28.248V32H133.25V24.902H135.294ZM144.885 29.088H144.227C143.882 29.088 143.616 29.1627 143.429 29.312C143.243 29.4613 143.149 29.6527 143.149 29.886C143.149 30.362 143.425 30.6 143.975 30.6C144.265 30.6 144.489 30.5113 144.647 30.334C144.806 30.1567 144.885 29.914 144.885 29.606V29.088ZM141.567 27.086V25.252C142.127 24.9347 142.935 24.776 143.989 24.776C144.997 24.776 145.749 24.9953 146.243 25.434C146.738 25.8633 146.985 26.5353 146.985 27.45V32H144.983V31.132C144.685 31.7387 144.097 32.042 143.219 32.042C142.529 32.042 141.987 31.846 141.595 31.454C141.213 31.062 141.021 30.572 141.021 29.984C141.021 29.3027 141.269 28.7753 141.763 28.402C142.267 28.0193 143.009 27.828 143.989 27.828H144.885V27.338C144.885 26.7407 144.489 26.442 143.695 26.442C142.93 26.442 142.221 26.6567 141.567 27.086Z" fill="white"/>
<path d="M548 14C548 6.26801 554.268 -5.47967e-07 562 -1.22392e-06C569.732 -1.89987e-06 576 6.26801 576 14C576 21.732 569.732 28 562 28C554.268 28 548 21.732 548 14Z" fill="#FF1934"/>
<g clip-path="url(#clip1_1124_4113)">
<path d="M566.21 9.40998C565.88 9.10998 565.38 9.12998 565.08 9.45998L562 12.82L558.92 9.45998C558.62 9.12998 558.11 9.10998 557.79 9.40998C557.46 9.70998 557.44 10.21 557.74 10.54L560.91 14L557.74 17.46C557.44 17.79 557.46 18.29 557.79 18.59C557.94 18.73 558.14 18.8 558.33 18.8C558.55 18.8 558.76 18.71 558.92 18.54L562 15.18L565.08 18.54C565.24 18.71 565.45 18.8 565.67 18.8C565.86 18.8 566.06 18.73 566.21 18.59C566.54 18.29 566.56 17.79 566.26 17.46L563.09 14L566.26 10.54C566.56 10.21 566.54 9.70998 566.21 9.40998Z" fill="white"/>
<path d="M562 4C556.49 4 552 8.49 552 14C552 19.51 556.49 24 562 24C567.51 24 572 19.51 572 14C572 8.49 567.51 4 562 4ZM562 22.4C557.37 22.4 553.6 18.63 553.6 14C553.6 9.37 557.37 5.6 562 5.6C566.63 5.6 570.4 9.37 570.4 14C570.4 18.63 566.63 22.4 562 22.4Z" fill="white"/>
</g>
</g>
<path d="M32.09 70.29H33.3C34.1333 70.29 34.7633 70.0333 35.19 69.52C35.6167 69 35.83 68.3533 35.83 67.58C35.83 66.8467 35.59 66.23 35.11 65.73C34.6367 65.23 34.02 64.98 33.26 64.98H32.09V70.29ZM31.27 64.26H33.27C34.2633 64.26 35.0767 64.57 35.71 65.19C36.35 65.8033 36.67 66.6 36.67 67.58C36.67 68.5533 36.3733 69.3667 35.78 70.02C35.1933 70.6733 34.37 71 33.31 71H31.27V64.26ZM40.5713 68.66H39.6913C39.2647 68.66 38.9447 68.7433 38.7313 68.91C38.518 69.0767 38.4113 69.2867 38.4113 69.54C38.4113 69.7933 38.4947 70 38.6613 70.16C38.828 70.3133 39.0713 70.39 39.3913 70.39C39.7513 70.39 40.038 70.29 40.2513 70.09C40.4647 69.8833 40.5713 69.6233 40.5713 69.31V68.66ZM37.9513 66.99V66.2C38.3313 65.9667 38.8313 65.85 39.4513 65.85C40.7247 65.85 41.3613 66.4967 41.3613 67.79V71H40.5813V70.4C40.3213 70.8333 39.848 71.05 39.1613 71.05C38.688 71.05 38.3047 70.91 38.0113 70.63C37.7247 70.35 37.5813 69.9967 37.5813 69.57C37.5813 69.0833 37.7647 68.7067 38.1313 68.44C38.5047 68.1667 39.0113 68.03 39.6513 68.03H40.5713V67.77C40.5713 67.37 40.4813 67.07 40.3013 66.87C40.1213 66.6633 39.818 66.56 39.3913 66.56C38.8513 66.56 38.3713 66.7033 37.9513 66.99ZM43.8532 66.57V69.54C43.8532 70.08 44.1065 70.35 44.6132 70.35C44.8732 70.35 45.1032 70.2733 45.3032 70.12V70.87C45.0832 70.99 44.8365 71.05 44.5632 71.05C43.5632 71.05 43.0632 70.54 43.0632 69.52V66.57H42.2532V65.93H43.0632V64.67H43.8532V65.93H45.2532V66.57H43.8532ZM49.1846 68.66H48.3046C47.8779 68.66 47.5579 68.7433 47.3446 68.91C47.1313 69.0767 47.0246 69.2867 47.0246 69.54C47.0246 69.7933 47.1079 70 47.2746 70.16C47.4413 70.3133 47.6846 70.39 48.0046 70.39C48.3646 70.39 48.6513 70.29 48.8646 70.09C49.0779 69.8833 49.1846 69.6233 49.1846 69.31V68.66ZM46.5646 66.99V66.2C46.9446 65.9667 47.4446 65.85 48.0646 65.85C49.3379 65.85 49.9746 66.4967 49.9746 67.79V71H49.1946V70.4C48.9346 70.8333 48.4613 71.05 47.7746 71.05C47.3013 71.05 46.9179 70.91 46.6246 70.63C46.3379 70.35 46.1946 69.9967 46.1946 69.57C46.1946 69.0833 46.3779 68.7067 46.7446 68.44C47.1179 68.1667 47.6246 68.03 48.2646 68.03H49.1846V67.77C49.1846 67.37 49.0946 67.07 48.9146 66.87C48.7346 66.6633 48.4313 66.56 48.0046 66.56C47.4646 66.56 46.9846 66.7033 46.5646 66.99ZM54.6679 67.83H55.7079C56.2146 67.83 56.6112 67.7 56.8979 67.44C57.1846 67.1733 57.3279 66.8367 57.3279 66.43C57.3279 65.9767 57.1812 65.6167 56.8879 65.35C56.5946 65.0833 56.1779 64.95 55.6379 64.95H54.6679V67.83ZM53.8579 64.26H55.6279C56.4079 64.26 57.0212 64.4633 57.4679 64.87C57.9212 65.27 58.1479 65.79 58.1479 66.43C58.1479 67.03 57.9246 67.53 57.4779 67.93C57.0312 68.3233 56.4412 68.52 55.7079 68.52H54.6679V71H53.8579V64.26ZM62.4971 68.14V67.94C62.4971 67.52 62.3838 67.1867 62.1571 66.94C61.9304 66.6867 61.6171 66.56 61.2171 66.56C60.8371 66.56 60.5138 66.6967 60.2471 66.97C59.9804 67.2433 59.8238 67.6333 59.7771 68.14H62.4971ZM62.9671 70V70.74C62.5738 70.9467 62.0938 71.05 61.5271 71.05C60.7604 71.05 60.1404 70.8167 59.6671 70.35C59.2004 69.8767 58.9671 69.2533 58.9671 68.48C58.9671 67.6733 59.1771 67.0367 59.5971 66.57C60.0171 66.1033 60.5571 65.87 61.2171 65.87C61.8504 65.87 62.3538 66.0733 62.7271 66.48C63.1004 66.8867 63.2871 67.4633 63.2871 68.21C63.2871 68.4233 63.2704 68.62 63.2371 68.8H59.7771C59.8371 69.3 60.0271 69.6833 60.3471 69.95C60.6671 70.2167 61.0871 70.35 61.6071 70.35C62.1738 70.35 62.6271 70.2333 62.9671 70ZM65.2717 65.93V66.82C65.5384 66.1933 65.9984 65.88 66.6517 65.88C66.7717 65.88 66.8651 65.8867 66.9317 65.9V66.68C66.7917 66.6333 66.6484 66.61 66.5017 66.61C66.1484 66.61 65.8551 66.7733 65.6217 67.1C65.3884 67.4267 65.2717 67.8033 65.2717 68.23V71H64.4817L64.4917 65.93H65.2717ZM70.5134 66.1V66.85C70.2068 66.6633 69.7868 66.57 69.2534 66.57C68.9868 66.57 68.7734 66.6333 68.6134 66.76C68.4601 66.88 68.3834 67.0367 68.3834 67.23C68.3834 67.35 68.4068 67.4567 68.4534 67.55C68.5001 67.6367 68.5901 67.7233 68.7234 67.81C68.8634 67.8967 68.9634 67.9567 69.0234 67.99C69.0901 68.0167 69.2301 68.0767 69.4434 68.17C69.8701 68.3433 70.2034 68.54 70.4434 68.76C70.6834 68.98 70.8034 69.2767 70.8034 69.65C70.8034 70.0833 70.6501 70.4267 70.3434 70.68C70.0434 70.9333 69.6301 71.06 69.1034 71.06C68.4901 71.06 67.9934 70.9567 67.6134 70.75V69.98C68.0601 70.2467 68.5401 70.38 69.0534 70.38C69.3601 70.38 69.5934 70.32 69.7534 70.2C69.9134 70.08 69.9934 69.9167 69.9934 69.71C69.9934 69.47 69.9034 69.2833 69.7234 69.15C69.5501 69.0167 69.2568 68.8667 68.8434 68.7C68.4634 68.5533 68.1568 68.37 67.9234 68.15C67.6968 67.93 67.5834 67.6333 67.5834 67.26C67.5834 66.84 67.7401 66.5067 68.0534 66.26C68.3734 66.0067 68.7701 65.88 69.2434 65.88C69.7701 65.88 70.1934 65.9533 70.5134 66.1ZM73.9345 71.09C73.2079 71.09 72.6312 70.8467 72.2045 70.36C71.7845 69.8667 71.5745 69.2467 71.5745 68.5C71.5745 67.7467 71.7912 67.12 72.2245 66.62C72.6645 66.1133 73.2345 65.86 73.9345 65.86C74.7012 65.86 75.2912 66.1067 75.7045 66.6C76.1245 67.0933 76.3345 67.72 76.3345 68.48C76.3345 69.2333 76.1212 69.8567 75.6945 70.35C75.2679 70.8433 74.6812 71.09 73.9345 71.09ZM73.9345 66.56C73.4545 66.56 73.0779 66.7467 72.8045 67.12C72.5312 67.4933 72.3945 67.95 72.3945 68.49C72.3945 69.0167 72.5345 69.4667 72.8145 69.84C73.0945 70.2067 73.4679 70.39 73.9345 70.39C74.4412 70.39 74.8312 70.21 75.1045 69.85C75.3779 69.4833 75.5145 69.03 75.5145 68.49C75.5145 67.93 75.3845 67.47 75.1245 67.11C74.8645 66.7433 74.4679 66.56 73.9345 66.56ZM78.2698 65.93V66.81C78.5698 66.1767 79.1031 65.86 79.8698 65.86C80.3631 65.86 80.7564 66.01 81.0498 66.31C81.3431 66.61 81.4898 67.01 81.4898 67.51V71H80.6998V67.72C80.6998 67.3467 80.6031 67.0633 80.4098 66.87C80.2231 66.67 79.9764 66.57 79.6698 66.57C79.2898 66.57 78.9598 66.7167 78.6798 67.01C78.4064 67.3033 78.2698 67.71 78.2698 68.23V71H77.4898V65.93H78.2698ZM85.6202 68.66H84.7402C84.3135 68.66 83.9935 68.7433 83.7802 68.91C83.5668 69.0767 83.4602 69.2867 83.4602 69.54C83.4602 69.7933 83.5435 70 83.7102 70.16C83.8768 70.3133 84.1202 70.39 84.4402 70.39C84.8002 70.39 85.0868 70.29 85.3002 70.09C85.5135 69.8833 85.6202 69.6233 85.6202 69.31V68.66ZM83.0002 66.99V66.2C83.3802 65.9667 83.8802 65.85 84.5002 65.85C85.7735 65.85 86.4102 66.4967 86.4102 67.79V71H85.6302V70.4C85.3702 70.8333 84.8968 71.05 84.2102 71.05C83.7368 71.05 83.3535 70.91 83.0602 70.63C82.7735 70.35 82.6302 69.9967 82.6302 69.57C82.6302 69.0833 82.8135 68.7067 83.1802 68.44C83.5535 68.1667 84.0602 68.03 84.7002 68.03H85.6202V67.77C85.6202 67.37 85.5302 67.07 85.3502 66.87C85.1702 66.6633 84.8668 66.56 84.4402 66.56C83.9002 66.56 83.4202 66.7033 83.0002 66.99ZM87.852 71V63.93H88.642V71H87.852Z" fill="#2B2B2B"/>
<rect width="88" height="24" transform="translate(108 56)" fill="url(#paint0_linear_1124_4113)"/>
<path d="M111.76 65.12V67.58H112.69C113.117 67.58 113.44 67.47 113.66 67.25C113.88 67.0233 113.99 66.7233 113.99 66.35C113.99 65.53 113.54 65.12 112.64 65.12H111.76ZM114.23 71L112.65 68.44H111.76V71H110.73V64.26H112.61C113.383 64.26 113.98 64.45 114.4 64.83C114.82 65.2033 115.03 65.7133 115.03 66.36C115.023 66.8333 114.903 67.2367 114.67 67.57C114.437 67.8967 114.113 68.1333 113.7 68.28L115.46 71H114.23ZM116.414 71V65.93H117.404V71H116.414ZM116.464 64.82C116.35 64.7 116.294 64.5533 116.294 64.38C116.294 64.2067 116.35 64.06 116.464 63.94C116.584 63.82 116.73 63.76 116.904 63.76C117.077 63.76 117.224 63.82 117.344 63.94C117.464 64.06 117.524 64.2067 117.524 64.38C117.524 64.5467 117.464 64.69 117.344 64.81C117.224 64.93 117.077 64.99 116.904 64.99C116.73 64.99 116.584 64.9333 116.464 64.82ZM119.915 71L118.325 65.93H119.365L119.835 67.61C119.988 68.1433 120.118 68.6133 120.225 69.02C120.331 69.4267 120.398 69.7 120.425 69.84L120.465 70.05C120.551 69.63 120.771 68.8133 121.125 67.6L121.615 65.93H122.565L123.065 67.6C123.225 68.1533 123.361 68.6367 123.475 69.05C123.588 69.4567 123.661 69.7267 123.695 69.86L123.735 70.06C123.815 69.6667 124.041 68.8467 124.415 67.6L124.915 65.93H125.905L124.295 71H123.175L122.705 69.34C122.565 68.8333 122.441 68.3867 122.335 68C122.235 67.6067 122.168 67.34 122.135 67.2L122.095 67C122.001 67.4333 121.798 68.2133 121.485 69.34L121.025 71H119.915ZM129.454 68.74H128.694C128.32 68.74 128.037 68.8133 127.844 68.96C127.657 69.1067 127.564 69.2933 127.564 69.52C127.564 69.7533 127.637 69.9367 127.784 70.07C127.93 70.2033 128.144 70.27 128.424 70.27C128.744 70.27 128.994 70.1833 129.174 70.01C129.36 69.83 129.454 69.5967 129.454 69.31V68.74ZM126.904 67.14V66.19C127.297 65.9633 127.817 65.85 128.464 65.85C129.79 65.85 130.454 66.4933 130.454 67.78V71H129.484V70.4C129.224 70.8267 128.767 71.04 128.114 71.04C127.634 71.04 127.247 70.9033 126.954 70.63C126.667 70.35 126.524 69.9967 126.524 69.57C126.524 69.0833 126.707 68.7067 127.074 68.44C127.44 68.1667 127.954 68.03 128.614 68.03H129.454V67.74C129.454 67.3933 129.37 67.1333 129.204 66.96C129.037 66.78 128.76 66.69 128.374 66.69C127.834 66.69 127.344 66.84 126.904 67.14ZM133.174 70.89L131.154 65.93H132.244L132.874 67.58L133.664 69.72C133.724 69.52 133.964 68.8067 134.384 67.58L134.954 65.93H135.994L134.164 70.86C133.677 72.16 132.934 72.81 131.934 72.81C131.754 72.81 131.601 72.7933 131.474 72.76V71.92C131.581 71.9467 131.694 71.96 131.814 71.96C132.461 71.96 132.914 71.6033 133.174 70.89ZM139.483 68.74H138.723C138.35 68.74 138.066 68.8133 137.873 68.96C137.686 69.1067 137.593 69.2933 137.593 69.52C137.593 69.7533 137.666 69.9367 137.813 70.07C137.96 70.2033 138.173 70.27 138.453 70.27C138.773 70.27 139.023 70.1833 139.203 70.01C139.39 69.83 139.483 69.5967 139.483 69.31V68.74ZM136.933 67.14V66.19C137.326 65.9633 137.846 65.85 138.493 65.85C139.82 65.85 140.483 66.4933 140.483 67.78V71H139.513V70.4C139.253 70.8267 138.796 71.04 138.143 71.04C137.663 71.04 137.276 70.9033 136.983 70.63C136.696 70.35 136.553 69.9967 136.553 69.57C136.553 69.0833 136.736 68.7067 137.103 68.44C137.47 68.1667 137.983 68.03 138.643 68.03H139.483V67.74C139.483 67.3933 139.4 67.1333 139.233 66.96C139.066 66.78 138.79 66.69 138.403 66.69C137.863 66.69 137.373 66.84 136.933 67.14ZM143.073 66.69V69.48C143.073 69.9667 143.307 70.21 143.773 70.21C144.047 70.21 144.277 70.1367 144.463 69.99V70.87C144.243 70.99 143.973 71.05 143.653 71.05C142.607 71.05 142.083 70.52 142.083 69.46V66.69H141.293V65.93H142.083V64.69H143.073V65.93H144.403V66.69H143.073ZM149.074 67.76H149.954C150.441 67.76 150.811 67.64 151.064 67.4C151.324 67.16 151.454 66.8433 151.454 66.45C151.454 66.0367 151.324 65.71 151.064 65.47C150.804 65.23 150.428 65.11 149.934 65.11H149.074V67.76ZM148.044 64.26H149.974C150.748 64.26 151.361 64.4667 151.814 64.88C152.268 65.2867 152.494 65.81 152.494 66.45C152.494 67.09 152.264 67.61 151.804 68.01C151.351 68.41 150.761 68.61 150.034 68.61H149.074V71H148.044V64.26ZM156.653 68.1V67.92C156.639 67.54 156.536 67.24 156.343 67.02C156.149 66.7933 155.873 66.68 155.513 66.68C155.179 66.68 154.893 66.8033 154.653 67.05C154.413 67.29 154.263 67.64 154.203 68.1H156.653ZM157.283 69.85V70.73C156.909 70.9433 156.416 71.05 155.803 71.05C155.016 71.05 154.389 70.8133 153.923 70.34C153.456 69.8667 153.223 69.2467 153.223 68.48C153.223 67.6667 153.436 67.03 153.863 66.57C154.289 66.1033 154.833 65.87 155.493 65.87C156.139 65.87 156.653 66.0733 157.033 66.48C157.413 66.88 157.603 67.46 157.603 68.22C157.603 68.4267 157.583 68.6433 157.543 68.87H154.213C154.279 69.31 154.466 69.6467 154.773 69.88C155.079 70.1133 155.466 70.23 155.933 70.23C156.473 70.23 156.923 70.1033 157.283 69.85ZM159.736 65.93V66.82C159.983 66.1933 160.426 65.88 161.066 65.88C161.16 65.88 161.263 65.89 161.376 65.91V66.87C161.236 66.81 161.08 66.78 160.906 66.78C160.566 66.78 160.286 66.93 160.066 67.23C159.846 67.53 159.736 67.8867 159.736 68.3V71H158.756V65.93H159.736ZM163.125 65.93V66.74C163.412 66.1533 163.888 65.86 164.555 65.86C165.315 65.86 165.802 66.1867 166.015 66.84C166.155 66.5267 166.358 66.2867 166.625 66.12C166.892 65.9467 167.192 65.86 167.525 65.86C168.045 65.86 168.438 66.0133 168.705 66.32C168.978 66.6267 169.115 67.05 169.115 67.59V71H168.135V67.8C168.135 67.0733 167.842 66.71 167.255 66.71C166.962 66.71 166.698 66.84 166.465 67.1C166.238 67.36 166.125 67.7433 166.125 68.25V71H165.145V67.8C165.145 67.0733 164.848 66.71 164.255 66.71C163.968 66.71 163.708 66.84 163.475 67.1C163.242 67.36 163.125 67.7433 163.125 68.25V71H162.145V65.93H163.125ZM173.116 68.74H172.356C171.983 68.74 171.699 68.8133 171.506 68.96C171.319 69.1067 171.226 69.2933 171.226 69.52C171.226 69.7533 171.299 69.9367 171.446 70.07C171.593 70.2033 171.806 70.27 172.086 70.27C172.406 70.27 172.656 70.1833 172.836 70.01C173.023 69.83 173.116 69.5967 173.116 69.31V68.74ZM170.566 67.14V66.19C170.959 65.9633 171.479 65.85 172.126 65.85C173.453 65.85 174.116 66.4933 174.116 67.78V71H173.146V70.4C172.886 70.8267 172.429 71.04 171.776 71.04C171.296 71.04 170.909 70.9033 170.616 70.63C170.329 70.35 170.186 69.9967 170.186 69.57C170.186 69.0833 170.369 68.7067 170.736 68.44C171.103 68.1667 171.616 68.03 172.276 68.03H173.116V67.74C173.116 67.3933 173.033 67.1333 172.866 66.96C172.699 66.78 172.423 66.69 172.036 66.69C171.496 66.69 171.006 66.84 170.566 67.14ZM175.476 71V65.93H176.466V71H175.476ZM175.526 64.82C175.413 64.7 175.356 64.5533 175.356 64.38C175.356 64.2067 175.413 64.06 175.526 63.94C175.646 63.82 175.793 63.76 175.966 63.76C176.139 63.76 176.286 63.82 176.406 63.94C176.526 64.06 176.586 64.2067 176.586 64.38C176.586 64.5467 176.526 64.69 176.406 64.81C176.286 64.93 176.139 64.99 175.966 64.99C175.793 64.99 175.646 64.9333 175.526 64.82ZM178.867 65.93V66.8C179.167 66.1733 179.694 65.86 180.447 65.86C180.947 65.86 181.344 66.0133 181.637 66.32C181.931 66.6267 182.077 67.0433 182.077 67.57V71H181.097V67.8C181.097 67.4467 181.007 67.1767 180.827 66.99C180.654 66.8033 180.421 66.71 180.127 66.71C179.781 66.71 179.484 66.8467 179.237 67.12C178.991 67.3867 178.867 67.7633 178.867 68.25V71H177.887V65.93H178.867ZM186.065 68.74H185.305C184.932 68.74 184.648 68.8133 184.455 68.96C184.268 69.1067 184.175 69.2933 184.175 69.52C184.175 69.7533 184.248 69.9367 184.395 70.07C184.542 70.2033 184.755 70.27 185.035 70.27C185.355 70.27 185.605 70.1833 185.785 70.01C185.972 69.83 186.065 69.5967 186.065 69.31V68.74ZM183.515 67.14V66.19C183.908 65.9633 184.428 65.85 185.075 65.85C186.402 65.85 187.065 66.4933 187.065 67.78V71H186.095V70.4C185.835 70.8267 185.378 71.04 184.725 71.04C184.245 71.04 183.858 70.9033 183.565 70.63C183.278 70.35 183.135 69.9967 183.135 69.57C183.135 69.0833 183.318 68.7067 183.685 68.44C184.052 68.1667 184.565 68.03 185.225 68.03H186.065V67.74C186.065 67.3933 185.982 67.1333 185.815 66.96C185.648 66.78 185.372 66.69 184.985 66.69C184.445 66.69 183.955 66.84 183.515 67.14ZM189.365 65.93V66.8C189.665 66.1733 190.192 65.86 190.945 65.86C191.445 65.86 191.842 66.0133 192.135 66.32C192.429 66.6267 192.575 67.0433 192.575 67.57V71H191.595V67.8C191.595 67.4467 191.505 67.1767 191.325 66.99C191.152 66.8033 190.919 66.71 190.625 66.71C190.279 66.71 189.982 66.8467 189.735 67.12C189.489 67.3867 189.365 67.7633 189.365 68.25V71H188.385V65.93H189.365Z" fill="#FF1934"/>
<mask id="path-10-inside-1_1124_4113" fill="white">
<path d="M0 80H576V302H0V80Z"/>
</mask>
<path d="M0 81H576V79H0V81Z" fill="#FF1934" mask="url(#path-10-inside-1_1124_4113)"/>
<g clip-path="url(#clip2_1124_4113)">
<path d="M83.0533 128.96C81.5999 127.053 79.6799 125.547 77.4933 124.6C77.1066 124.44 76.9733 124.093 76.9333 123.92C76.8533 123.573 76.9333 123.2 77.1733 122.92C78.6133 121.187 79.4799 118.907 79.4799 116.813C79.4799 112.693 76.1333 109.347 72.0133 109.347C67.8933 109.347 64.5466 112.693 64.5466 116.813C64.5466 118.907 65.4133 121.187 66.8533 122.92C67.0799 123.2 67.1733 123.573 67.0933 123.92C67.0533 124.107 66.9199 124.44 66.5333 124.6C64.3466 125.547 62.4133 127.053 60.9599 128.96C60.5999 129.427 60.6933 130.093 61.1599 130.453C61.3599 130.6 61.5866 130.667 61.7999 130.667C62.1199 130.667 62.4399 130.52 62.6533 130.24C63.8799 128.627 65.5066 127.347 67.3733 126.547C68.2799 126.16 68.9333 125.373 69.1599 124.4C69.3999 123.4 69.1599 122.333 68.4933 121.533C67.3733 120.187 66.6799 118.373 66.6799 116.787C66.6799 113.84 69.0666 111.453 72.0133 111.453C74.9599 111.453 77.3466 113.84 77.3466 116.787C77.3466 118.373 76.6533 120.187 75.5333 121.533C74.4933 122.773 73.2533 123.453 72.0133 123.453C71.4266 123.453 70.9466 123.933 70.9466 124.52C70.9466 125.107 71.4266 125.587 72.0133 125.587C73.0399 125.587 74.0533 125.293 74.9866 124.747C75.2799 125.547 75.8533 126.2 76.6533 126.533C78.5066 127.333 80.1333 128.613 81.3733 130.227C81.5866 130.507 81.9066 130.653 82.2266 130.653C82.4533 130.653 82.6799 130.587 82.8666 130.44C83.3333 130.08 83.4266 129.413 83.0666 128.947L83.0533 128.96Z" fill="#2B2B2B"/>
</g>
<path d="M99.1034 122.53H100.349C101.339 122.53 102.09 122.227 102.603 121.62C103.117 121.004 103.373 120.183 103.373 119.156C103.373 118.251 103.098 117.509 102.547 116.93C102.006 116.342 101.264 116.048 100.321 116.048H99.1034V122.53ZM97.2974 114.564H100.377C101.787 114.564 102.939 114.998 103.835 115.866C104.731 116.734 105.179 117.831 105.179 119.156C105.179 120.603 104.745 121.774 103.877 122.67C103.009 123.557 101.843 124 100.377 124H97.2974V114.564ZM110.945 119.87V119.66C110.926 119.203 110.8 118.839 110.567 118.568C110.343 118.288 110.011 118.148 109.573 118.148C109.171 118.148 108.821 118.297 108.523 118.596C108.233 118.885 108.047 119.31 107.963 119.87H110.945ZM112.093 122.152V123.608C111.598 123.916 110.884 124.07 109.951 124.07C108.821 124.07 107.93 123.734 107.277 123.062C106.623 122.39 106.297 121.522 106.297 120.458C106.297 119.329 106.605 118.442 107.221 117.798C107.837 117.154 108.607 116.832 109.531 116.832C110.455 116.832 111.187 117.112 111.729 117.672C112.27 118.232 112.541 119.049 112.541 120.122C112.541 120.383 112.508 120.719 112.443 121.13H107.991C108.112 121.643 108.364 122.035 108.747 122.306C109.139 122.577 109.624 122.712 110.203 122.712C110.949 122.712 111.579 122.525 112.093 122.152ZM118.327 117.126V118.61C117.86 118.33 117.277 118.19 116.577 118.19C116.287 118.19 116.059 118.255 115.891 118.386C115.732 118.507 115.653 118.666 115.653 118.862C115.653 118.937 115.662 119.007 115.681 119.072C115.709 119.137 115.751 119.203 115.807 119.268C115.872 119.324 115.933 119.375 115.989 119.422C116.045 119.469 116.124 119.52 116.227 119.576C116.329 119.623 116.418 119.665 116.493 119.702C116.567 119.739 116.67 119.786 116.801 119.842C116.931 119.898 117.034 119.945 117.109 119.982C117.603 120.225 117.995 120.495 118.285 120.794C118.574 121.093 118.719 121.48 118.719 121.956C118.719 122.619 118.481 123.137 118.005 123.51C117.529 123.883 116.894 124.07 116.101 124.07C115.223 124.07 114.514 123.925 113.973 123.636V122.096C114.598 122.516 115.275 122.726 116.003 122.726C116.311 122.726 116.549 122.67 116.717 122.558C116.894 122.437 116.983 122.273 116.983 122.068C116.983 121.947 116.955 121.839 116.899 121.746C116.843 121.643 116.735 121.545 116.577 121.452C116.418 121.359 116.292 121.293 116.199 121.256C116.115 121.209 115.942 121.13 115.681 121.018C115.653 121.009 115.629 120.999 115.611 120.99C115.601 120.981 115.583 120.971 115.555 120.962C115.527 120.953 115.503 120.943 115.485 120.934C114.449 120.467 113.931 119.795 113.931 118.918C113.931 118.265 114.178 117.751 114.673 117.378C115.167 117.005 115.788 116.818 116.535 116.818C117.253 116.818 117.851 116.921 118.327 117.126ZM120.129 124V116.902H121.809V124H120.129ZM119.961 114.774C119.961 114.494 120.059 114.256 120.255 114.06C120.451 113.864 120.689 113.766 120.969 113.766C121.249 113.766 121.487 113.864 121.683 114.06C121.879 114.256 121.977 114.494 121.977 114.774C121.977 115.063 121.879 115.306 121.683 115.502C121.487 115.698 121.249 115.796 120.969 115.796C120.689 115.796 120.451 115.698 120.255 115.502C120.059 115.306 119.961 115.063 119.961 114.774ZM125.74 118.162V121.774C125.74 122.073 125.819 122.301 125.978 122.46C126.137 122.609 126.356 122.684 126.636 122.684C126.991 122.684 127.317 122.586 127.616 122.39V123.832C127.289 123.991 126.869 124.07 126.356 124.07C124.825 124.07 124.06 123.295 124.06 121.746V118.162H122.996V116.902H124.06V115.194H125.74V116.902H127.504V118.162H125.74ZM132.627 120.948H131.759C131.32 120.948 130.984 121.041 130.751 121.228C130.517 121.405 130.401 121.634 130.401 121.914C130.401 122.511 130.746 122.81 131.437 122.81C131.81 122.81 132.099 122.703 132.305 122.488C132.519 122.264 132.627 121.975 132.627 121.62V120.948ZM129.183 118.82V117.266C129.715 116.939 130.48 116.776 131.479 116.776C133.401 116.776 134.363 117.672 134.363 119.464V124H132.697V123.146C132.37 123.753 131.754 124.056 130.849 124.056C130.177 124.056 129.64 123.86 129.239 123.468C128.847 123.076 128.651 122.581 128.651 121.984C128.651 121.312 128.903 120.785 129.407 120.402C129.911 120.019 130.639 119.828 131.591 119.828H132.627V119.394C132.627 119.002 132.524 118.703 132.319 118.498C132.113 118.293 131.763 118.19 131.269 118.19C130.513 118.19 129.817 118.4 129.183 118.82ZM139.639 124V114.564H141.641L143.909 118.498C144.283 119.142 144.614 119.744 144.903 120.304C145.202 120.855 145.403 121.247 145.505 121.48L145.659 121.83C145.585 121.055 145.547 119.945 145.547 118.498V114.564H147.325V124H145.309L143.013 120.08C142.649 119.464 142.318 118.876 142.019 118.316C141.73 117.747 141.529 117.336 141.417 117.084L141.249 116.692C141.352 117.579 141.403 118.703 141.403 120.066V124H139.639ZM153.604 116.902H155.298V124H153.604V122.838C153.231 123.659 152.503 124.07 151.42 124.07C150.701 124.07 150.141 123.865 149.74 123.454C149.339 123.043 149.138 122.46 149.138 121.704V116.902H150.818V121.312C150.818 121.76 150.925 122.101 151.14 122.334C151.364 122.567 151.667 122.684 152.05 122.684C152.535 122.684 152.913 122.521 153.184 122.194C153.464 121.867 153.604 121.373 153.604 120.71V116.902ZM158.804 116.902V118.162C159.131 117.285 159.728 116.846 160.596 116.846C160.792 116.846 160.951 116.86 161.072 116.888V118.512C160.857 118.419 160.619 118.372 160.358 118.372C159.901 118.372 159.527 118.559 159.238 118.932C158.949 119.305 158.804 119.772 158.804 120.332V124H157.11L157.124 116.902H158.804ZM167.366 116.02V119.1H168.542C169.083 119.1 169.489 118.965 169.76 118.694C170.031 118.414 170.166 118.027 170.166 117.532C170.166 117.047 170.021 116.673 169.732 116.412C169.452 116.151 169.046 116.02 168.514 116.02H167.366ZM170.474 124L168.332 120.556H167.366V124H165.602V114.564H168.514C169.587 114.564 170.427 114.835 171.034 115.376C171.65 115.917 171.958 116.641 171.958 117.546C171.949 118.218 171.785 118.787 171.468 119.254C171.151 119.711 170.717 120.052 170.166 120.276L172.588 124H170.474ZM176.814 124.112C175.741 124.112 174.901 123.776 174.294 123.104C173.697 122.432 173.398 121.573 173.398 120.528C173.398 119.445 173.711 118.554 174.336 117.854C174.962 117.145 175.788 116.79 176.814 116.79C177.906 116.79 178.751 117.135 179.348 117.826C179.946 118.507 180.244 119.375 180.244 120.43C180.244 121.503 179.941 122.385 179.334 123.076C178.737 123.767 177.897 124.112 176.814 124.112ZM176.814 118.162C176.282 118.162 175.872 118.381 175.582 118.82C175.302 119.259 175.162 119.809 175.162 120.472C175.162 121.125 175.307 121.671 175.596 122.11C175.886 122.549 176.296 122.768 176.828 122.768C177.379 122.768 177.794 122.553 178.074 122.124C178.354 121.695 178.494 121.149 178.494 120.486C178.494 119.805 178.359 119.249 178.088 118.82C177.818 118.381 177.393 118.162 176.814 118.162ZM185.934 117.126V118.61C185.468 118.33 184.884 118.19 184.184 118.19C183.895 118.19 183.666 118.255 183.498 118.386C183.34 118.507 183.26 118.666 183.26 118.862C183.26 118.937 183.27 119.007 183.288 119.072C183.316 119.137 183.358 119.203 183.414 119.268C183.48 119.324 183.54 119.375 183.596 119.422C183.652 119.469 183.732 119.52 183.834 119.576C183.937 119.623 184.026 119.665 184.1 119.702C184.175 119.739 184.278 119.786 184.408 119.842C184.539 119.898 184.642 119.945 184.716 119.982C185.211 120.225 185.603 120.495 185.892 120.794C186.182 121.093 186.326 121.48 186.326 121.956C186.326 122.619 186.088 123.137 185.612 123.51C185.136 123.883 184.502 124.07 183.708 124.07C182.831 124.07 182.122 123.925 181.58 123.636V122.096C182.206 122.516 182.882 122.726 183.61 122.726C183.918 122.726 184.156 122.67 184.324 122.558C184.502 122.437 184.59 122.273 184.59 122.068C184.59 121.947 184.562 121.839 184.506 121.746C184.45 121.643 184.343 121.545 184.184 121.452C184.026 121.359 183.9 121.293 183.806 121.256C183.722 121.209 183.55 121.13 183.288 121.018C183.26 121.009 183.237 120.999 183.218 120.99C183.209 120.981 183.19 120.971 183.162 120.962C183.134 120.953 183.111 120.943 183.092 120.934C182.056 120.467 181.538 119.795 181.538 118.918C181.538 118.265 181.786 117.751 182.28 117.378C182.775 117.005 183.396 116.818 184.142 116.818C184.861 116.818 185.458 116.921 185.934 117.126ZM189.641 123.86L186.841 116.902H188.703L189.529 119.17C189.781 119.842 189.982 120.407 190.131 120.864C190.29 121.321 190.388 121.611 190.425 121.732L190.467 121.928C190.56 121.601 190.859 120.682 191.363 119.17L192.105 116.902H193.869L191.307 123.804C190.598 125.699 189.515 126.646 188.059 126.646C187.788 126.646 187.555 126.623 187.359 126.576V125.19C187.508 125.227 187.667 125.246 187.835 125.246C188.684 125.246 189.286 124.784 189.641 123.86ZM194.969 124V116.902H196.649V124H194.969ZM194.801 114.774C194.801 114.494 194.899 114.256 195.095 114.06C195.291 113.864 195.529 113.766 195.809 113.766C196.089 113.766 196.327 113.864 196.523 114.06C196.719 114.256 196.817 114.494 196.817 114.774C196.817 115.063 196.719 115.306 196.523 115.502C196.327 115.698 196.089 115.796 195.809 115.796C195.529 115.796 195.291 115.698 195.095 115.502C194.899 115.306 194.801 115.063 194.801 114.774ZM201.588 122.656C202.092 122.656 202.512 122.465 202.848 122.082C203.184 121.69 203.352 121.125 203.352 120.388C203.352 119.669 203.175 119.133 202.82 118.778C202.465 118.414 202.059 118.232 201.602 118.232C201.117 118.232 200.706 118.433 200.37 118.834C200.043 119.226 199.88 119.777 199.88 120.486C199.88 121.13 200.043 121.653 200.37 122.054C200.697 122.455 201.103 122.656 201.588 122.656ZM203.352 114.102H205.032V124H203.352V122.894C202.867 123.697 202.148 124.098 201.196 124.098C200.263 124.098 199.521 123.743 198.97 123.034C198.429 122.325 198.158 121.466 198.158 120.458C198.158 119.338 198.443 118.451 199.012 117.798C199.591 117.135 200.328 116.804 201.224 116.804C202.148 116.804 202.857 117.201 203.352 117.994V114.102ZM206.918 124V116.902H208.598V124H206.918ZM206.75 114.774C206.75 114.494 206.848 114.256 207.044 114.06C207.24 113.864 207.478 113.766 207.758 113.766C208.038 113.766 208.276 113.864 208.472 114.06C208.668 114.256 208.766 114.494 208.766 114.774C208.766 115.063 208.668 115.306 208.472 115.502C208.276 115.698 208.038 115.796 207.758 115.796C207.478 115.796 207.24 115.698 207.044 115.502C206.848 115.306 206.75 115.063 206.75 114.774ZM214.111 120.948H213.243C212.805 120.948 212.469 121.041 212.235 121.228C212.002 121.405 211.885 121.634 211.885 121.914C211.885 122.511 212.231 122.81 212.921 122.81C213.295 122.81 213.584 122.703 213.789 122.488C214.004 122.264 214.111 121.975 214.111 121.62V120.948ZM210.667 118.82V117.266C211.199 116.939 211.965 116.776 212.963 116.776C214.886 116.776 215.847 117.672 215.847 119.464V124H214.181V123.146C213.855 123.753 213.239 124.056 212.333 124.056C211.661 124.056 211.125 123.86 210.723 123.468C210.331 123.076 210.135 122.581 210.135 121.984C210.135 121.312 210.387 120.785 210.891 120.402C211.395 120.019 212.123 119.828 213.075 119.828H214.111V119.394C214.111 119.002 214.009 118.703 213.803 118.498C213.598 118.293 213.248 118.19 212.753 118.19C211.997 118.19 211.302 118.4 210.667 118.82ZM219.261 116.902V118.12C219.662 117.252 220.39 116.818 221.445 116.818C222.154 116.818 222.714 117.033 223.125 117.462C223.536 117.891 223.741 118.498 223.741 119.282V124H222.061V119.632C222.061 119.165 221.949 118.815 221.725 118.582C221.501 118.339 221.198 118.218 220.815 118.218C220.376 118.218 220.008 118.391 219.709 118.736C219.41 119.072 219.261 119.557 219.261 120.192V124H217.581V116.902H219.261ZM229.123 120.948H228.255C227.816 120.948 227.48 121.041 227.247 121.228C227.014 121.405 226.897 121.634 226.897 121.914C226.897 122.511 227.242 122.81 227.933 122.81C228.306 122.81 228.596 122.703 228.801 122.488C229.016 122.264 229.123 121.975 229.123 121.62V120.948ZM225.679 118.82V117.266C226.211 116.939 226.976 116.776 227.975 116.776C229.898 116.776 230.859 117.672 230.859 119.464V124H229.193V123.146C228.866 123.753 228.25 124.056 227.345 124.056C226.673 124.056 226.136 123.86 225.735 123.468C225.343 123.076 225.147 122.581 225.147 121.984C225.147 121.312 225.399 120.785 225.903 120.402C226.407 120.019 227.135 119.828 228.087 119.828H229.123V119.394C229.123 119.002 229.02 118.703 228.815 118.498C228.61 118.293 228.26 118.19 227.765 118.19C227.009 118.19 226.314 118.4 225.679 118.82Z" fill="#2B2B2B"/>
<path opacity="0.64" d="M249.483 160.448H250.707C251.048 160.448 251.309 160.371 251.491 160.216C251.677 160.056 251.771 159.824 251.771 159.52C251.771 159.216 251.667 158.979 251.459 158.808C251.256 158.637 250.965 158.552 250.587 158.552H249.483V160.448ZM249.483 156.16V158H250.347C250.779 158 251.099 157.909 251.307 157.728C251.515 157.547 251.619 157.312 251.619 157.024C251.619 156.773 251.52 156.568 251.323 156.408C251.131 156.243 250.843 156.16 250.459 156.16H249.483ZM248.835 155.608H250.459C251.013 155.608 251.456 155.736 251.787 155.992C252.123 156.248 252.291 156.592 252.291 157.024C252.291 157.333 252.203 157.603 252.027 157.832C251.856 158.056 251.635 158.197 251.363 158.256C251.661 158.304 251.915 158.44 252.123 158.664C252.336 158.883 252.443 159.181 252.443 159.56C252.443 159.992 252.299 160.341 252.011 160.608C251.728 160.869 251.325 161 250.803 161H248.835V155.608ZM255.957 158.712V158.552C255.957 158.216 255.866 157.949 255.685 157.752C255.504 157.549 255.253 157.448 254.933 157.448C254.629 157.448 254.37 157.557 254.157 157.776C253.944 157.995 253.818 158.307 253.781 158.712H255.957ZM256.333 160.2V160.792C256.018 160.957 255.634 161.04 255.181 161.04C254.568 161.04 254.072 160.853 253.693 160.48C253.32 160.101 253.133 159.603 253.133 158.984C253.133 158.339 253.301 157.829 253.637 157.456C253.973 157.083 254.405 156.896 254.933 156.896C255.44 156.896 255.842 157.059 256.141 157.384C256.44 157.709 256.589 158.171 256.589 158.768C256.589 158.939 256.576 159.096 256.549 159.24H253.781C253.829 159.64 253.981 159.947 254.237 160.16C254.493 160.373 254.829 160.48 255.245 160.48C255.698 160.48 256.061 160.387 256.333 160.2ZM257.585 161V155.344H258.217V161H257.585ZM261.94 156.944H262.572V161H261.94V160.296C261.727 160.797 261.303 161.048 260.668 161.048C260.268 161.048 259.951 160.931 259.716 160.696C259.487 160.456 259.372 160.136 259.372 159.736V156.944H260.004V159.576C260.004 159.869 260.079 160.093 260.228 160.248C260.377 160.403 260.58 160.48 260.836 160.48C261.172 160.48 261.439 160.363 261.636 160.128C261.839 159.893 261.94 159.576 261.94 159.176V156.944ZM264.364 156.944V157.6C264.588 157.125 264.97 156.888 265.508 156.888C266.132 156.888 266.527 157.152 266.692 157.68C266.81 157.424 266.972 157.229 267.18 157.096C267.394 156.957 267.631 156.888 267.892 156.888C268.314 156.888 268.631 157.008 268.844 157.248C269.058 157.488 269.164 157.811 269.164 158.216V161H268.532V158.376C268.532 157.763 268.274 157.456 267.756 157.456C267.5 157.456 267.271 157.573 267.068 157.808C266.866 158.037 266.764 158.363 266.764 158.784V161H266.132V158.376C266.132 157.763 265.874 157.456 265.356 157.456C265.1 157.456 264.871 157.573 264.668 157.808C264.466 158.037 264.364 158.363 264.364 158.784V161H263.74V156.944H264.364ZM272.864 156.944V157.6C273.088 157.125 273.47 156.888 274.008 156.888C274.632 156.888 275.027 157.152 275.192 157.68C275.31 157.424 275.472 157.229 275.68 157.096C275.894 156.957 276.131 156.888 276.392 156.888C276.814 156.888 277.131 157.008 277.344 157.248C277.558 157.488 277.664 157.811 277.664 158.216V161H277.032V158.376C277.032 157.763 276.774 157.456 276.256 157.456C276 157.456 275.771 157.573 275.568 157.808C275.366 158.037 275.264 158.363 275.264 158.784V161H274.632V158.376C274.632 157.763 274.374 157.456 273.856 157.456C273.6 157.456 273.371 157.573 273.168 157.808C272.966 158.037 272.864 158.363 272.864 158.784V161H272.24V156.944H272.864ZM281.371 158.712V158.552C281.371 158.216 281.28 157.949 281.099 157.752C280.918 157.549 280.667 157.448 280.347 157.448C280.043 157.448 279.784 157.557 279.571 157.776C279.358 157.995 279.232 158.307 279.195 158.712H281.371ZM281.747 160.2V160.792C281.432 160.957 281.048 161.04 280.595 161.04C279.982 161.04 279.486 160.853 279.107 160.48C278.734 160.101 278.547 159.603 278.547 158.984C278.547 158.339 278.715 157.829 279.051 157.456C279.387 157.083 279.819 156.896 280.347 156.896C280.854 156.896 281.256 157.059 281.555 157.384C281.854 157.709 282.003 158.171 282.003 158.768C282.003 158.939 281.99 159.096 281.963 159.24H279.195C279.243 159.64 279.395 159.947 279.651 160.16C279.907 160.373 280.243 160.48 280.659 160.48C281.112 160.48 281.475 160.387 281.747 160.2ZM283.591 156.944V157.6C283.815 157.125 284.196 156.888 284.735 156.888C285.359 156.888 285.753 157.152 285.919 157.68C286.036 157.424 286.199 157.229 286.407 157.096C286.62 156.957 286.857 156.888 287.119 156.888C287.54 156.888 287.857 157.008 288.071 157.248C288.284 157.488 288.391 157.811 288.391 158.216V161H287.759V158.376C287.759 157.763 287.5 157.456 286.983 157.456C286.727 157.456 286.497 157.573 286.295 157.808C286.092 158.037 285.991 158.363 285.991 158.784V161H285.359V158.376C285.359 157.763 285.1 157.456 284.583 157.456C284.327 157.456 284.097 157.573 283.895 157.808C283.692 158.037 283.591 158.363 283.591 158.784V161H282.967V156.944H283.591ZM289.546 161V156.944H290.178V161H289.546ZM289.562 155.968C289.487 155.888 289.45 155.789 289.45 155.672C289.45 155.555 289.487 155.456 289.562 155.376C289.642 155.296 289.74 155.256 289.858 155.256C289.975 155.256 290.074 155.296 290.154 155.376C290.234 155.456 290.274 155.555 290.274 155.672C290.274 155.789 290.234 155.888 290.154 155.968C290.074 156.043 289.975 156.08 289.858 156.08C289.74 156.08 289.642 156.043 289.562 155.968ZM291.413 161V155.344H292.045V161H291.413ZM293.28 161V156.944H293.912V161H293.28ZM293.296 155.968C293.221 155.888 293.184 155.789 293.184 155.672C293.184 155.555 293.221 155.456 293.296 155.376C293.376 155.296 293.475 155.256 293.592 155.256C293.709 155.256 293.808 155.296 293.888 155.376C293.968 155.456 294.008 155.555 294.008 155.672C294.008 155.789 293.968 155.888 293.888 155.968C293.808 156.043 293.709 156.08 293.592 156.08C293.475 156.08 293.376 156.043 293.296 155.968ZM295.115 161V155.376H295.739V161H295.115ZM296.563 158.872L298.211 161H297.451L295.819 158.872L297.411 156.944H298.163L296.563 158.872ZM298.991 161V156.944H299.623V161H298.991ZM299.007 155.968C298.932 155.888 298.895 155.789 298.895 155.672C298.895 155.555 298.932 155.456 299.007 155.376C299.087 155.296 299.186 155.256 299.303 155.256C299.42 155.256 299.519 155.296 299.599 155.376C299.679 155.456 299.719 155.555 299.719 155.672C299.719 155.789 299.679 155.888 299.599 155.968C299.519 156.043 299.42 156.08 299.303 156.08C299.186 156.08 299.087 156.043 299.007 155.968ZM303.403 156.944V157.656C303.617 157.155 303.985 156.904 304.507 156.904C304.603 156.904 304.678 156.909 304.731 156.92V157.544C304.619 157.507 304.505 157.488 304.387 157.488C304.105 157.488 303.87 157.619 303.683 157.88C303.497 158.141 303.403 158.443 303.403 158.784V161H302.771L302.779 156.944H303.403ZM305.421 161V156.944H306.053V161H305.421ZM305.437 155.968C305.362 155.888 305.325 155.789 305.325 155.672C305.325 155.555 305.362 155.456 305.437 155.376C305.517 155.296 305.615 155.256 305.733 155.256C305.85 155.256 305.949 155.296 306.029 155.376C306.109 155.456 306.149 155.555 306.149 155.672C306.149 155.789 306.109 155.888 306.029 155.968C305.949 156.043 305.85 156.08 305.733 156.08C305.615 156.08 305.517 156.043 305.437 155.968ZM308.12 161L306.872 156.944H307.544L307.936 158.288C308.075 158.757 308.189 159.168 308.28 159.52C308.376 159.867 308.437 160.099 308.464 160.216L308.504 160.384C308.584 160.043 308.779 159.341 309.088 158.28L309.472 156.944H310.144L310.536 158.28L311.136 160.392C311.211 160.077 311.416 159.373 311.752 158.28L312.16 156.944H312.808L311.528 161H310.752L310.368 159.672L309.808 157.648C309.728 157.989 309.547 158.664 309.264 159.672L308.896 161H308.12ZM315.776 159.128H315.072C314.73 159.128 314.474 159.195 314.304 159.328C314.133 159.461 314.048 159.629 314.048 159.832C314.048 160.035 314.114 160.2 314.248 160.328C314.381 160.451 314.576 160.512 314.832 160.512C315.12 160.512 315.349 160.432 315.52 160.272C315.69 160.107 315.776 159.899 315.776 159.648V159.128ZM313.68 157.792V157.16C313.984 156.973 314.384 156.88 314.88 156.88C315.898 156.88 316.408 157.397 316.408 158.432V161H315.784V160.52C315.576 160.867 315.197 161.04 314.648 161.04C314.269 161.04 313.962 160.928 313.728 160.704C313.498 160.48 313.384 160.197 313.384 159.856C313.384 159.467 313.53 159.165 313.824 158.952C314.122 158.733 314.528 158.624 315.04 158.624H315.776V158.416C315.776 158.096 315.704 157.856 315.56 157.696C315.416 157.531 315.173 157.448 314.832 157.448C314.4 157.448 314.016 157.563 313.68 157.792ZM318.649 160.896L317.009 156.944H317.721L318.249 158.28L318.961 160.12C319.004 159.981 319.217 159.368 319.601 158.28L320.073 156.944H320.753L319.289 160.896C319.081 161.445 318.833 161.832 318.545 162.056C318.263 162.28 317.937 162.392 317.569 162.392C317.431 162.392 317.319 162.379 317.233 162.352V161.784C317.313 161.805 317.404 161.816 317.505 161.816C318.044 161.816 318.425 161.509 318.649 160.896ZM323.659 159.128H322.955C322.613 159.128 322.357 159.195 322.187 159.328C322.016 159.461 321.931 159.629 321.931 159.832C321.931 160.035 321.997 160.2 322.131 160.328C322.264 160.451 322.459 160.512 322.715 160.512C323.003 160.512 323.232 160.432 323.403 160.272C323.573 160.107 323.659 159.899 323.659 159.648V159.128ZM321.563 157.792V157.16C321.867 156.973 322.267 156.88 322.763 156.88C323.781 156.88 324.291 157.397 324.291 158.432V161H323.667V160.52C323.459 160.867 323.08 161.04 322.531 161.04C322.152 161.04 321.845 160.928 321.611 160.704C321.381 160.48 321.267 160.197 321.267 159.856C321.267 159.467 321.413 159.165 321.707 158.952C322.005 158.733 322.411 158.624 322.923 158.624H323.659V158.416C323.659 158.096 323.587 157.856 323.443 157.696C323.299 157.531 323.056 157.448 322.715 157.448C322.283 157.448 321.899 157.563 321.563 157.792ZM326.284 157.456V159.832C326.284 160.264 326.487 160.48 326.892 160.48C327.1 160.48 327.284 160.419 327.444 160.296V160.896C327.268 160.992 327.071 161.04 326.852 161.04C326.052 161.04 325.652 160.632 325.652 159.816V157.456H325.004V156.944H325.652V155.936H326.284V156.944H327.404V157.456H326.284Z" fill="#2B2B2B"/>
<g clip-path="url(#clip3_1124_4113)">
<path d="M263.691 236.855V210.513L285.481 220.681L315.988 213.127V235.486L285.481 247.024L263.691 236.855Z" fill="#FF6678"/>
<path d="M263.691 210.513V236.855L285.481 247.024V220.681L263.691 210.513Z" fill="#FF5769"/>
<path d="M263.692 210.513C263.692 210.513 257.106 215.259 254.977 221.845L277.058 233.08C277.058 233.08 281.804 224.365 285.483 220.683L263.694 210.515L263.692 210.513Z" fill="#FF7587"/>
<path d="M315.988 213.127L285.481 220.681C289.839 226.878 289.839 234.434 289.839 234.434L321.022 224.944C320.44 219.715 315.986 213.13 315.986 213.13L315.988 213.127Z" fill="#FF7587"/>
<path d="M263.691 210.513L288.291 205.381L315.988 213.127L285.481 220.681L263.691 210.513Z" fill="#CC5260"/>
<path d="M283.641 202.281L276.669 188.337L273.763 195.309L283.641 202.281Z" fill="#FF7587"/>
<path d="M287.709 198.988V180.976L292.358 186.399L287.709 198.988Z" fill="#FF7587"/>
<path d="M291.195 202.281L297.395 191.63L298.749 198.02L291.195 202.281Z" fill="#FF7587"/>
<path d="M288.291 205.381L263.691 210.513L285.481 220.681L288.291 219.988V205.381Z" fill="#C54956"/>
<path d="M310.413 197.707L310.112 197.468C310.23 197.32 310.344 197.168 310.449 197.015L310.765 197.234C310.653 197.393 310.535 197.552 310.413 197.707Z" fill="#FF6678"/>
<path d="M288.57 216.646L288.265 216.412C288.486 216.124 288.666 215.806 288.804 215.471L289.16 215.617C289.01 215.984 288.812 216.332 288.572 216.646H288.57ZM289.454 214.467L289.072 214.424C289.087 214.284 289.096 214.145 289.096 214.005C289.096 213.939 289.096 213.87 289.089 213.804C289.081 213.651 289.061 213.499 289.033 213.346L289.411 213.276C289.441 213.443 289.463 213.613 289.471 213.782C289.476 213.857 289.478 213.93 289.478 214.005C289.478 214.158 289.469 214.312 289.452 214.467H289.454ZM288.692 212.32C288.531 211.996 288.327 211.694 288.085 211.421L288.372 211.165C288.636 211.464 288.86 211.794 289.036 212.149L288.692 212.32ZM287.265 210.715C287.063 210.584 286.848 210.474 286.629 210.386C286.518 210.341 286.4 210.3 286.282 210.266L286.391 209.899C286.52 209.938 286.646 209.981 286.771 210.03C287.014 210.127 287.25 210.249 287.473 210.393L287.265 210.715ZM280.671 210.32C280.243 210.311 279.863 210.27 279.505 210.195L279.584 209.82C279.919 209.89 280.276 209.929 280.679 209.938L280.671 210.322V210.32ZM281.827 210.279L281.797 209.897C282.109 209.873 282.431 209.839 282.74 209.807L282.927 209.787L282.965 210.169L282.778 210.189C282.467 210.221 282.143 210.255 281.827 210.279ZM285.204 210.077C284.869 210.051 284.515 210.051 284.09 210.075L284.068 209.691C284.511 209.667 284.88 209.667 285.232 209.695L285.204 210.077ZM278.387 209.807C278.037 209.629 277.71 209.397 277.416 209.12L277.68 208.841C277.949 209.094 278.245 209.304 278.56 209.465L278.384 209.807H278.387ZM276.667 208.203C276.461 207.877 276.287 207.521 276.152 207.143L276.513 207.012C276.639 207.364 276.8 207.695 276.991 207.997L276.667 208.203ZM275.864 206.005C275.819 205.709 275.798 205.408 275.798 205.11C275.798 205.018 275.8 204.925 275.804 204.833L276.189 204.85C276.184 204.936 276.182 205.024 276.182 205.11C276.182 205.389 276.204 205.67 276.244 205.947L275.864 206.003V206.005ZM276.35 203.766L275.978 203.67C276.004 203.571 276.032 203.474 276.062 203.378C276.15 203.105 276.257 202.833 276.382 202.569L276.729 202.732C276.611 202.981 276.511 203.238 276.429 203.496C276.401 203.584 276.375 203.674 276.352 203.766H276.35ZM277.281 201.774L276.963 201.558C277.178 201.244 277.423 200.939 277.689 200.647L277.972 200.907C277.717 201.186 277.483 201.478 277.279 201.774H277.281ZM302.649 201.437C302.518 201.437 302.387 201.435 302.26 201.429L302.278 201.045C302.643 201.06 303.02 201.053 303.392 201.023L303.424 201.405C303.166 201.427 302.907 201.437 302.651 201.437H302.649ZM301.106 201.309C300.739 201.248 300.359 201.167 299.974 201.064L300.073 200.692C300.444 200.791 300.814 200.871 301.166 200.929L301.103 201.309H301.106ZM304.57 201.242L304.495 200.866C304.858 200.793 305.221 200.697 305.575 200.583L305.693 200.948C305.326 201.068 304.948 201.167 304.57 201.244V201.242ZM298.873 200.72C298.534 200.6 298.184 200.465 297.802 200.308L297.948 199.954C298.324 200.109 298.667 200.242 299 200.36L298.873 200.723V200.72ZM306.77 200.525L306.612 200.175C306.949 200.021 307.281 199.847 307.599 199.656L307.796 199.984C307.466 200.182 307.12 200.364 306.77 200.525ZM278.775 200.132L278.526 199.84C278.814 199.596 279.123 199.359 279.449 199.138L279.666 199.456C279.353 199.669 279.052 199.896 278.777 200.132H278.775ZM296.75 199.849C296.405 199.692 296.059 199.531 295.716 199.37L295.879 199.022C296.222 199.183 296.566 199.342 296.911 199.499L296.752 199.849H296.75ZM308.754 199.332L308.52 199.027C308.816 198.799 309.099 198.552 309.361 198.295L309.63 198.57C309.355 198.838 309.061 199.093 308.754 199.332ZM294.683 198.894C294.29 198.716 293.962 198.57 293.646 198.439L293.794 198.084C294.112 198.218 294.447 198.363 294.842 198.544L294.683 198.894ZM280.619 198.872L280.434 198.535C280.726 198.374 281.033 198.224 281.342 198.084C281.385 198.065 281.428 198.046 281.471 198.026L281.626 198.379C281.583 198.398 281.542 198.415 281.499 198.434C281.199 198.57 280.902 198.716 280.619 198.872ZM292.595 198.029C292.371 197.949 292.148 197.874 291.936 197.808C291.8 197.765 291.661 197.724 291.523 197.685L291.626 197.316C291.766 197.355 291.91 197.398 292.049 197.44C292.268 197.509 292.496 197.584 292.723 197.668L292.595 198.029ZM282.673 197.971L282.547 197.608C282.907 197.483 283.279 197.37 283.65 197.271L283.749 197.642C283.386 197.737 283.025 197.848 282.673 197.971ZM290.431 197.428C290.066 197.357 289.692 197.297 289.321 197.254L289.366 196.872C289.746 196.917 290.13 196.977 290.506 197.05L290.431 197.428ZM284.843 197.398L284.775 197.02C285.15 196.951 285.535 196.895 285.915 196.854L285.955 197.237C285.584 197.277 285.21 197.331 284.843 197.398ZM288.201 197.164C287.992 197.155 287.78 197.151 287.57 197.151C287.409 197.153 287.239 197.153 287.076 197.159L287.063 196.775C287.23 196.769 287.404 196.766 287.57 196.766C287.784 196.766 288.001 196.771 288.216 196.779L288.198 197.164H288.201Z" fill="#FF6678"/>
<path d="M287.209 217.813L287.028 217.474C287.187 217.39 287.342 217.292 287.49 217.18L287.72 217.489C287.556 217.609 287.385 217.719 287.209 217.813Z" fill="#FF6678"/>
<path d="M311.499 195.68C311.71 195.833 311.759 196.127 311.607 196.337C311.454 196.547 311.04 196.762 310.83 196.612C310.619 196.462 310.69 195.998 310.842 195.788C310.995 195.577 311.289 195.528 311.499 195.68Z" fill="#FF6678"/>
<path d="M311.84 195.206C312.051 195.358 312.072 195.691 311.886 195.951C311.699 196.21 311.229 196.502 311.018 196.35C310.808 196.198 310.935 195.661 311.121 195.401C311.308 195.141 311.63 195.056 311.84 195.206Z" fill="#FF6678"/>
<path d="M311.465 195.73C311.465 195.73 311.515 194.753 310.583 195.094C309.651 195.436 309.555 196.378 311.124 196.206L311.467 195.73H311.465Z" fill="#FF6678"/>
<path d="M311.466 195.73C311.466 195.73 312.376 195.371 312.348 196.365C312.32 197.359 311.457 197.75 311.122 196.206L311.466 195.73Z" fill="#FF6678"/>
</g>
<defs>
<filter id="filter0_d_1124_4113" x="-4" y="-2" width="584" height="56" filterUnits="userSpaceOnUse" color-interpolation-filters="sRGB">
<feFlood flood-opacity="0" result="BackgroundImageFix"/>
<feColorMatrix in="SourceAlpha" type="matrix" values="0 0 0 0 0 0 0 0 0 0 0 0 0 0 0 0 0 0 127 0" result="hardAlpha"/>
<feOffset dy="2"/>
<feGaussianBlur stdDeviation="2"/>
<feComposite in2="hardAlpha" operator="out"/>
<feColorMatrix type="matrix" values="0 0 0 0 0.168627 0 0 0 0 0.168627 0 0 0 0 0.168627 0 0 0 0.24 0"/>
<feBlend mode="normal" in2="BackgroundImageFix" result="effect1_dropShadow_1124_4113"/>
<feBlend mode="normal" in="SourceGraphic" in2="effect1_dropShadow_1124_4113" result="shape"/>
</filter>
<linearGradient id="paint0_linear_1124_4113" x1="44" y1="0" x2="44" y2="24" gradientUnits="userSpaceOnUse">
<stop offset="0.916567" stop-color="#FF1934" stop-opacity="0"/>
<stop offset="0.916667" stop-color="#FF1934"/>
<stop offset="1" stop-color="#FF1934"/>
</linearGradient>
<clipPath id="clip0_1124_4113">
<rect width="24" height="24" fill="white" transform="translate(16 16)"/>
</clipPath>
<clipPath id="clip1_1124_4113">
<rect width="24" height="24" fill="white" transform="translate(550 2)"/>
</clipPath>
<clipPath id="clip2_1124_4113">
<rect width="32" height="32" fill="white" transform="translate(56 104)"/>
</clipPath>
<clipPath id="clip3_1124_4113">
<rect width="96" height="96" fill="white" transform="translate(240 166)"/>
</clipPath>
</defs>
</svg>
