<svg width="262" height="284" viewBox="0 0 262 284" fill="none" xmlns="http://www.w3.org/2000/svg">
<rect width="262" height="284" fill="#D3D3D3"/>
<rect width="262" height="284" rx="16" fill="white"/>
<g filter="url(#filter0_d_1124_4113)">
<path d="M0 16C0 7.16344 7.16344 0 16 0H246C254.837 0 262 7.16344 262 16V48H0V16Z" fill="#FF1934" shape-rendering="crispEdges"/>
<g clip-path="url(#clip0_1124_4113)">
<path d="M34.87 19.2101C32.57 18.8501 30.26 18.9501 27.99 19.5101C25.73 20.1201 23.3 20.2201 20.99 19.8001C20.51 19.7101 20.01 19.8401 19.63 20.1601C19.24 20.4901 19.01 20.9701 19.01 21.4801V28.0901C19.01 29.3801 19.96 30.4701 21.24 30.6601C22.11 30.7901 22.99 30.8601 23.86 30.8601C25.39 30.8601 26.91 30.6601 28.39 30.2601C30.58 29.7301 32.81 29.6601 35.04 30.0601C35.53 30.1501 36.02 30.0101 36.4 29.7001C36.79 29.3801 37.01 28.9001 37.01 28.4001V21.7701C37.01 20.5201 36.12 19.4101 34.88 19.2201L34.87 19.2101ZM35.4 21.7601V22.4401C34.55 22.1801 33.88 21.5301 33.59 20.6901C33.92 20.7201 34.26 20.7401 34.59 20.7901C35.06 20.8601 35.4 21.2901 35.4 21.7701V21.7601ZM20.7 21.3701C21.11 21.4401 21.53 21.4801 21.95 21.5301C21.6 21.9701 21.14 22.2901 20.6 22.4501V21.4801C20.6 21.4301 20.63 21.4001 20.7 21.3701ZM20.6 28.0901V27.4201C21.45 27.6801 22.12 28.3301 22.4 29.1701C22.08 29.1401 21.77 29.1201 21.45 29.0801C20.96 29.0101 20.6 28.5901 20.6 28.1001V28.0901ZM27.99 28.7001C26.91 28.9901 25.81 29.1501 24.71 29.2101C24.37 29.2301 24.04 29.0201 23.93 28.6901C23.49 27.3601 22.44 26.3201 21.11 25.8901C20.79 25.7901 20.6 25.4701 20.6 25.1401V24.7001C20.6 24.3601 20.81 24.0501 21.13 23.9501C22.14 23.6301 22.99 22.9501 23.54 22.0401C23.69 21.7901 23.94 21.6201 24.23 21.6201C25.64 21.5901 27.04 21.4201 28.38 21.0501C29.33 20.8201 30.3 20.6801 31.27 20.6301C31.61 20.6101 31.94 20.8201 32.05 21.1401C32.49 22.4701 33.55 23.5201 34.88 23.9401C35.2 24.0401 35.4 24.3601 35.4 24.6901V25.1301C35.4 25.4701 35.19 25.7801 34.87 25.8801C33.86 26.2001 33.01 26.8701 32.46 27.7901C32.31 28.0401 32.06 28.2001 31.77 28.2101C30.5 28.2301 29.24 28.3901 27.99 28.6901V28.7001ZM35.32 28.4801C34.9 28.4001 34.47 28.3601 34.05 28.3201C34.4 27.8901 34.87 27.5701 35.4 27.4101V28.3901L35.32 28.4801Z" fill="white"/>
<path d="M27.9 21.9001C26.18 22.1201 24.97 23.3601 24.97 24.9201C24.97 25.8201 25.36 26.7101 26.02 27.2901C26.52 27.7301 27.13 27.9601 27.76 27.9601C27.87 27.9601 27.98 27.9601 28.09 27.9401C29.81 27.7201 31.02 26.4801 31.02 24.9201C31.02 24.0201 30.63 23.1301 29.97 22.5501C29.38 22.0301 28.64 21.8001 27.9 21.9001ZM27.9 26.3601C27.52 26.4101 27.25 26.2401 27.08 26.0901C26.76 25.8101 26.57 25.3701 26.57 24.9201C26.57 24.0701 27.36 23.5801 28.1 23.4901C28.14 23.4901 28.19 23.4901 28.23 23.4901C28.54 23.4901 28.77 23.6301 28.92 23.7701C29.24 24.0501 29.43 24.4901 29.43 24.9401C29.43 25.7901 28.64 26.2801 27.9 26.3701V26.3601Z" fill="white"/>
<path d="M35.32 31.07C32.87 30.63 30.41 30.7 27.99 31.29C25.85 31.87 23.65 31.99 21.44 31.66C21.01 31.6 20.6 31.89 20.53 32.33C20.46 32.77 20.76 33.17 21.2 33.24C22.09 33.37 22.97 33.44 23.85 33.44C25.38 33.44 26.9 33.24 28.38 32.84C30.57 32.31 32.8 32.24 35.03 32.64C35.47 32.72 35.88 32.43 35.96 32C36.04 31.56 35.75 31.15 35.32 31.07Z" fill="white"/>
<path d="M34.62 33.52C32.4 33.21 30.17 33.32 27.99 33.85C26.16 34.34 24.28 34.5 22.39 34.33C21.95 34.29 21.56 34.62 21.52 35.05C21.48 35.49 21.8 35.88 22.24 35.92C22.78 35.97 23.31 35.99 23.85 35.99C25.39 35.99 26.91 35.79 28.39 35.39C30.36 34.91 32.39 34.81 34.4 35.09C34.84 35.16 35.24 34.85 35.3 34.41C35.36 33.97 35.06 33.57 34.62 33.51V33.52Z" fill="white"/>
</g>
<path d="M55.196 22.564V24.3H52.9V32H50.73V24.3H48.42V22.564H55.196ZM59.9692 29.088H59.3112C58.9659 29.088 58.6999 29.1627 58.5132 29.312C58.3266 29.4613 58.2332 29.6527 58.2332 29.886C58.2332 30.362 58.5086 30.6 59.0592 30.6C59.3486 30.6 59.5726 30.5113 59.7312 30.334C59.8899 30.1567 59.9692 29.914 59.9692 29.606V29.088ZM56.6512 27.086V25.252C57.2112 24.9347 58.0186 24.776 59.0732 24.776C60.0812 24.776 60.8326 24.9953 61.3272 25.434C61.8219 25.8633 62.0692 26.5353 62.0692 27.45V32H60.0672V31.132C59.7686 31.7387 59.1806 32.042 58.3032 32.042C57.6126 32.042 57.0712 31.846 56.6792 31.454C56.2966 31.062 56.1052 30.572 56.1052 29.984C56.1052 29.3027 56.3526 28.7753 56.8472 28.402C57.3512 28.0193 58.0932 27.828 59.0732 27.828H59.9692V27.338C59.9692 26.7407 59.5726 26.442 58.7792 26.442C58.0139 26.442 57.3046 26.6567 56.6512 27.086ZM67.286 30.376C67.7153 30.376 68.0793 30.2033 68.378 29.858C68.6767 29.5033 68.826 29.0413 68.826 28.472C68.826 27.856 68.6767 27.3753 68.378 27.03C68.0887 26.6847 67.7293 26.512 67.3 26.512C66.8707 26.512 66.4973 26.6753 66.18 27.002C65.872 27.3287 65.718 27.786 65.718 28.374C65.718 28.9807 65.8627 29.466 66.152 29.83C66.4413 30.194 66.8193 30.376 67.286 30.376ZM65.718 22.102V25.994C66.2033 25.21 66.908 24.818 67.832 24.818C68.7187 24.818 69.4513 25.14 70.03 25.784C70.6087 26.428 70.898 27.31 70.898 28.43C70.898 29.4287 70.618 30.2873 70.058 31.006C69.5073 31.7247 68.77 32.084 67.846 32.084C66.9033 32.084 66.194 31.6873 65.718 30.894V32H63.674V22.102H65.718ZM76.6286 24.902H78.6726V32H76.6286V30.866C76.2552 31.6593 75.5366 32.056 74.4726 32.056C73.7446 32.056 73.1752 31.8553 72.7646 31.454C72.3632 31.0433 72.1626 30.4413 72.1626 29.648V24.902H74.2066V29.186C74.2066 30.0167 74.5706 30.432 75.2986 30.432C76.1852 30.432 76.6286 29.8393 76.6286 28.654V24.902ZM82.3977 24.902V26.106C82.575 25.714 82.8457 25.406 83.2097 25.182C83.583 24.9487 84.0263 24.832 84.5397 24.832C85.2677 24.832 85.837 25.0513 86.2477 25.49C86.6583 25.9193 86.8637 26.554 86.8637 27.394V32H84.8197V27.772C84.8197 27.352 84.7217 27.0347 84.5257 26.82C84.3297 26.596 84.0543 26.484 83.6997 26.484C83.3263 26.484 83.0137 26.6333 82.7617 26.932C82.519 27.2213 82.3977 27.66 82.3977 28.248V32H80.3537V24.902H82.3977ZM91.6248 30.138C92.0634 30.138 92.4041 29.9747 92.6468 29.648C92.8988 29.312 93.0248 28.9107 93.0248 28.444C93.0248 27.1747 92.5628 26.54 91.6388 26.54C91.2281 26.54 90.9061 26.6987 90.6728 27.016C90.4394 27.3333 90.3228 27.772 90.3228 28.332C90.3228 28.92 90.4348 29.368 90.6588 29.676C90.8828 29.984 91.2048 30.138 91.6248 30.138ZM93.0248 24.902H95.0548V31.314C95.0548 32.4527 94.7141 33.3067 94.0328 33.876C93.3514 34.4547 92.4974 34.744 91.4708 34.744C90.4721 34.744 89.5994 34.5667 88.8528 34.212V32.126C89.5061 32.6487 90.3088 32.91 91.2608 32.91C91.8768 32.91 92.3248 32.7793 92.6048 32.518C92.8848 32.2567 93.0248 31.846 93.0248 31.286V30.81C92.6141 31.4447 91.9608 31.762 91.0648 31.762C90.2808 31.762 89.6041 31.4727 89.0348 30.894C88.4748 30.3153 88.1948 29.4567 88.1948 28.318C88.1948 27.31 88.4654 26.4793 89.0068 25.826C89.5574 25.1633 90.2761 24.832 91.1628 24.832C92.0028 24.832 92.6234 25.168 93.0248 25.84V24.902ZM100.178 29.088H99.5202C99.1749 29.088 98.9089 29.1627 98.7222 29.312C98.5356 29.4613 98.4422 29.6527 98.4422 29.886C98.4422 30.362 98.7176 30.6 99.2682 30.6C99.5576 30.6 99.7816 30.5113 99.9402 30.334C100.099 30.1567 100.178 29.914 100.178 29.606V29.088ZM96.8602 27.086V25.252C97.4202 24.9347 98.2276 24.776 99.2822 24.776C100.29 24.776 101.042 24.9953 101.536 25.434C102.031 25.8633 102.278 26.5353 102.278 27.45V32H100.276V31.132C99.9776 31.7387 99.3896 32.042 98.5122 32.042C97.8216 32.042 97.2802 31.846 96.8882 31.454C96.5056 31.062 96.3142 30.572 96.3142 29.984C96.3142 29.3027 96.5616 28.7753 97.0562 28.402C97.5602 28.0193 98.3022 27.828 99.2822 27.828H100.178V27.338C100.178 26.7407 99.7816 26.442 98.9882 26.442C98.2229 26.442 97.5136 26.6567 96.8602 27.086ZM105.927 24.902V26.106C106.104 25.714 106.375 25.406 106.739 25.182C107.112 24.9487 107.556 24.832 108.069 24.832C108.797 24.832 109.366 25.0513 109.777 25.49C110.188 25.9193 110.393 26.554 110.393 27.394V32H108.349V27.772C108.349 27.352 108.251 27.0347 108.055 26.82C107.859 26.596 107.584 26.484 107.229 26.484C106.856 26.484 106.543 26.6333 106.291 26.932C106.048 27.2213 105.927 27.66 105.927 28.248V32H103.883V24.902H105.927Z" fill="white"/>
</g>
<g clip-path="url(#clip1_1124_4113)">
<path d="M131 126.07C120.272 126.07 111.544 124.348 111.544 122.23C111.544 120.113 120.272 118.39 131 118.39C141.728 118.39 150.456 120.113 150.456 122.23C150.456 124.348 141.728 126.07 131 126.07Z" fill="#CCCCCC"/>
<path d="M124.331 111.067C122.639 111.067 120.947 110.449 119.598 109.213L110.178 100.58C108.684 99.2121 108.582 96.8901 109.952 95.3964C111.32 93.9007 113.642 93.8021 115.136 95.1705L124.556 103.803L146.865 82.9465C148.361 81.5807 150.682 81.6793 152.049 83.1724C153.419 84.6661 153.316 86.9881 151.823 88.3564L129.063 109.213C127.714 110.449 126.022 111.067 124.331 111.067H124.331Z" fill="#008C1E"/>
<path d="M127.756 123.014C126.933 123.014 126.11 122.954 125.454 122.833L120.871 121.991C120.145 121.857 120.095 121.631 120.761 121.485C121.427 121.339 122.556 121.329 123.283 121.463L127.865 122.305L138.716 120.269C139.444 120.136 140.573 120.146 141.238 120.291C141.904 120.437 141.854 120.664 141.128 120.797L130.057 122.833C129.401 122.954 128.578 123.014 127.756 123.014Z" fill="#F1F1F1"/>
</g>
<path d="M41.3166 144.54H43.7066L43.5766 144.15L42.5266 140.91C42.4466 141.197 42.0866 142.28 41.4466 144.16L41.3166 144.54ZM44.5266 147L43.9366 145.23H41.0866L40.4866 147H39.6166L41.9666 140.26H43.0866L45.3966 147H44.5266ZM47.261 141.93V142.81C47.561 142.177 48.0943 141.86 48.861 141.86C49.3543 141.86 49.7476 142.01 50.041 142.31C50.3343 142.61 50.481 143.01 50.481 143.51V147H49.691V143.72C49.691 143.347 49.5943 143.063 49.401 142.87C49.2143 142.67 48.9676 142.57 48.661 142.57C48.281 142.57 47.951 142.717 47.671 143.01C47.3976 143.303 47.261 143.71 47.261 144.23V147H46.481V141.93H47.261ZM53.8114 146.36C54.2247 146.36 54.5747 146.207 54.8614 145.9C55.1547 145.593 55.3014 145.103 55.3014 144.43C55.3014 143.79 55.1514 143.32 54.8514 143.02C54.5514 142.72 54.2214 142.57 53.8614 142.57C53.4414 142.57 53.0914 142.74 52.8114 143.08C52.538 143.413 52.4014 143.893 52.4014 144.52C52.4014 145.067 52.5347 145.51 52.8014 145.85C53.068 146.19 53.4047 146.36 53.8114 146.36ZM55.3014 139.93H56.0914V147H55.3014V146.25C54.9414 146.803 54.4214 147.08 53.7414 147.08C53.068 147.08 52.538 146.83 52.1514 146.33C51.7714 145.83 51.5814 145.223 51.5814 144.51C51.5814 143.717 51.7847 143.077 52.1914 142.59C52.598 142.097 53.1214 141.85 53.7614 141.85C54.4214 141.85 54.9347 142.133 55.3014 142.7V139.93ZM60.2852 144.66H59.4052C58.9785 144.66 58.6585 144.743 58.4452 144.91C58.2319 145.077 58.1252 145.287 58.1252 145.54C58.1252 145.793 58.2085 146 58.3752 146.16C58.5419 146.313 58.7852 146.39 59.1052 146.39C59.4652 146.39 59.7519 146.29 59.9652 146.09C60.1785 145.883 60.2852 145.623 60.2852 145.31V144.66ZM57.6652 142.99V142.2C58.0452 141.967 58.5452 141.85 59.1652 141.85C60.4385 141.85 61.0752 142.497 61.0752 143.79V147H60.2952V146.4C60.0352 146.833 59.5619 147.05 58.8752 147.05C58.4019 147.05 58.0185 146.91 57.7252 146.63C57.4385 146.35 57.2952 145.997 57.2952 145.57C57.2952 145.083 57.4785 144.707 57.8452 144.44C58.2185 144.167 58.7252 144.03 59.3652 144.03H60.2852V143.77C60.2852 143.37 60.1952 143.07 60.0152 142.87C59.8352 142.663 59.5319 142.56 59.1052 142.56C58.5652 142.56 58.0852 142.703 57.6652 142.99ZM67.2285 146.36C67.6351 146.36 67.9718 146.19 68.2385 145.85C68.5051 145.51 68.6385 145.067 68.6385 144.52C68.6385 143.893 68.4985 143.413 68.2185 143.08C67.9451 142.74 67.5985 142.57 67.1785 142.57C66.8185 142.57 66.4885 142.72 66.1885 143.02C65.8885 143.32 65.7385 143.79 65.7385 144.43C65.7385 145.103 65.8818 145.593 66.1685 145.9C66.4618 146.207 66.8151 146.36 67.2285 146.36ZM65.7385 139.93V142.69C66.1051 142.13 66.6185 141.85 67.2785 141.85C67.9185 141.85 68.4418 142.097 68.8485 142.59C69.2551 143.077 69.4585 143.717 69.4585 144.51C69.4585 145.223 69.2651 145.83 68.8785 146.33C68.4985 146.83 67.9718 147.08 67.2985 147.08C66.6185 147.08 66.0985 146.803 65.7385 146.25V147H64.9485V139.93H65.7385ZM73.8516 144.14V143.94C73.8516 143.52 73.7383 143.187 73.5116 142.94C73.2849 142.687 72.9716 142.56 72.5716 142.56C72.1916 142.56 71.8683 142.697 71.6016 142.97C71.3349 143.243 71.1783 143.633 71.1316 144.14H73.8516ZM74.3216 146V146.74C73.9283 146.947 73.4483 147.05 72.8816 147.05C72.1149 147.05 71.4949 146.817 71.0216 146.35C70.5549 145.877 70.3216 145.253 70.3216 144.48C70.3216 143.673 70.5316 143.037 70.9516 142.57C71.3716 142.103 71.9116 141.87 72.5716 141.87C73.2049 141.87 73.7083 142.073 74.0816 142.48C74.4549 142.887 74.6416 143.463 74.6416 144.21C74.6416 144.423 74.6249 144.62 74.5916 144.8H71.1316C71.1916 145.3 71.3816 145.683 71.7016 145.95C72.0216 146.217 72.4416 146.35 72.9616 146.35C73.5283 146.35 73.9816 146.233 74.3216 146ZM76.6262 141.93V142.82C76.8929 142.193 77.3529 141.88 78.0062 141.88C78.1262 141.88 78.2195 141.887 78.2862 141.9V142.68C78.1462 142.633 78.0029 142.61 77.8562 142.61C77.5029 142.61 77.2095 142.773 76.9762 143.1C76.7429 143.427 76.6262 143.803 76.6262 144.23V147H75.8362L75.8462 141.93H76.6262ZM79.8879 139.93V142.81C80.1879 142.177 80.7213 141.86 81.4879 141.86C81.9746 141.86 82.3646 142.01 82.6579 142.31C82.9579 142.61 83.1079 143.017 83.1079 143.53V147H82.3179V143.72C82.3179 143.353 82.2213 143.07 82.0279 142.87C81.8413 142.67 81.5946 142.57 81.2879 142.57C80.9146 142.57 80.5879 142.713 80.3079 143C80.0279 143.287 79.8879 143.697 79.8879 144.23V147H79.1079V139.93H79.8879ZM87.2383 144.66H86.3583C85.9317 144.66 85.6117 144.743 85.3983 144.91C85.185 145.077 85.0783 145.287 85.0783 145.54C85.0783 145.793 85.1617 146 85.3283 146.16C85.495 146.313 85.7383 146.39 86.0583 146.39C86.4183 146.39 86.705 146.29 86.9183 146.09C87.1317 145.883 87.2383 145.623 87.2383 145.31V144.66ZM84.6183 142.99V142.2C84.9983 141.967 85.4983 141.85 86.1183 141.85C87.3917 141.85 88.0283 142.497 88.0283 143.79V147H87.2483V146.4C86.9883 146.833 86.515 147.05 85.8283 147.05C85.355 147.05 84.9717 146.91 84.6783 146.63C84.3917 146.35 84.2483 145.997 84.2483 145.57C84.2483 145.083 84.4317 144.707 84.7983 144.44C85.1717 144.167 85.6783 144.03 86.3183 144.03H87.2383V143.77C87.2383 143.37 87.1483 143.07 86.9683 142.87C86.7883 142.663 86.485 142.56 86.0583 142.56C85.5183 142.56 85.0383 142.703 84.6183 142.99ZM92.1902 142.1V142.85C91.8835 142.663 91.4635 142.57 90.9302 142.57C90.6635 142.57 90.4502 142.633 90.2902 142.76C90.1369 142.88 90.0602 143.037 90.0602 143.23C90.0602 143.35 90.0835 143.457 90.1302 143.55C90.1769 143.637 90.2669 143.723 90.4002 143.81C90.5402 143.897 90.6402 143.957 90.7002 143.99C90.7669 144.017 90.9069 144.077 91.1202 144.17C91.5469 144.343 91.8802 144.54 92.1202 144.76C92.3602 144.98 92.4802 145.277 92.4802 145.65C92.4802 146.083 92.3269 146.427 92.0202 146.68C91.7202 146.933 91.3069 147.06 90.7802 147.06C90.1669 147.06 89.6702 146.957 89.2902 146.75V145.98C89.7369 146.247 90.2169 146.38 90.7302 146.38C91.0369 146.38 91.2702 146.32 91.4302 146.2C91.5902 146.08 91.6702 145.917 91.6702 145.71C91.6702 145.47 91.5802 145.283 91.4002 145.15C91.2269 145.017 90.9335 144.867 90.5202 144.7C90.1402 144.553 89.8335 144.37 89.6002 144.15C89.3735 143.93 89.2602 143.633 89.2602 143.26C89.2602 142.84 89.4169 142.507 89.7302 142.26C90.0502 142.007 90.4469 141.88 90.9202 141.88C91.4469 141.88 91.8702 141.953 92.1902 142.1ZM93.5913 147V141.93H94.3813V147H93.5913ZM93.6113 140.71C93.518 140.61 93.4713 140.487 93.4713 140.34C93.4713 140.193 93.518 140.07 93.6113 139.97C93.7113 139.87 93.8346 139.82 93.9813 139.82C94.128 139.82 94.2513 139.87 94.3513 139.97C94.4513 140.07 94.5013 140.193 94.5013 140.34C94.5013 140.487 94.4513 140.61 94.3513 140.71C94.2513 140.803 94.128 140.85 93.9813 140.85C93.8346 140.85 93.7113 140.803 93.6113 140.71ZM95.9253 147V139.93H96.7153V147H95.9253ZM103.811 141.93H104.601V147H103.811V146.12C103.544 146.747 103.014 147.06 102.221 147.06C101.721 147.06 101.324 146.913 101.031 146.62C100.744 146.32 100.601 145.92 100.601 145.42V141.93H101.391V145.22C101.391 145.587 101.484 145.867 101.671 146.06C101.857 146.253 102.111 146.35 102.431 146.35C102.851 146.35 103.184 146.203 103.431 145.91C103.684 145.617 103.811 145.22 103.811 144.72V141.93ZM107.151 142.57V145.54C107.151 146.08 107.404 146.35 107.911 146.35C108.171 146.35 108.401 146.273 108.601 146.12V146.87C108.381 146.99 108.134 147.05 107.861 147.05C106.861 147.05 106.361 146.54 106.361 145.52V142.57H105.551V141.93H106.361V140.67H107.151V141.93H108.551V142.57H107.151ZM112.482 144.66H111.602C111.176 144.66 110.856 144.743 110.642 144.91C110.429 145.077 110.322 145.287 110.322 145.54C110.322 145.793 110.406 146 110.572 146.16C110.739 146.313 110.982 146.39 111.302 146.39C111.662 146.39 111.949 146.29 112.162 146.09C112.376 145.883 112.482 145.623 112.482 145.31V144.66ZM109.862 142.99V142.2C110.242 141.967 110.742 141.85 111.362 141.85C112.636 141.85 113.272 142.497 113.272 143.79V147H112.492V146.4C112.232 146.833 111.759 147.05 111.072 147.05C110.599 147.05 110.216 146.91 109.922 146.63C109.636 146.35 109.492 145.997 109.492 145.57C109.492 145.083 109.676 144.707 110.042 144.44C110.416 144.167 110.922 144.03 111.562 144.03H112.482V143.77C112.482 143.37 112.392 143.07 112.212 142.87C112.032 142.663 111.729 142.56 111.302 142.56C110.762 142.56 110.282 142.703 109.862 142.99ZM115.454 141.93V142.81C115.754 142.177 116.288 141.86 117.054 141.86C117.548 141.86 117.941 142.01 118.234 142.31C118.528 142.61 118.674 143.01 118.674 143.51V147H117.884V143.72C117.884 143.347 117.788 143.063 117.594 142.87C117.408 142.67 117.161 142.57 116.854 142.57C116.474 142.57 116.144 142.717 115.864 143.01C115.591 143.303 115.454 143.71 115.454 144.23V147H114.674V141.93H115.454ZM121.975 146.17C122.341 146.17 122.665 146.03 122.945 145.75C123.231 145.463 123.375 145.04 123.375 144.48C123.375 143.833 123.238 143.353 122.965 143.04C122.691 142.727 122.375 142.57 122.015 142.57C121.581 142.57 121.238 142.743 120.985 143.09C120.731 143.43 120.605 143.877 120.605 144.43C120.605 144.997 120.745 145.43 121.025 145.73C121.305 146.023 121.621 146.17 121.975 146.17ZM123.375 141.93H124.165V146.59C124.165 147.363 123.951 147.943 123.525 148.33C123.098 148.723 122.548 148.92 121.875 148.92C121.261 148.92 120.738 148.817 120.305 148.61V147.82C120.731 148.067 121.231 148.19 121.805 148.19C122.291 148.19 122.675 148.06 122.955 147.8C123.235 147.54 123.375 147.133 123.375 146.58V146.01C123.041 146.583 122.545 146.87 121.885 146.87C121.305 146.87 120.808 146.657 120.395 146.23C119.988 145.803 119.785 145.21 119.785 144.45C119.785 143.697 119.975 143.077 120.355 142.59C120.735 142.103 121.231 141.86 121.845 141.86C122.538 141.86 123.048 142.163 123.375 142.77V141.93ZM129.934 146.36C130.348 146.36 130.698 146.207 130.984 145.9C131.278 145.593 131.424 145.103 131.424 144.43C131.424 143.79 131.274 143.32 130.974 143.02C130.674 142.72 130.344 142.57 129.984 142.57C129.564 142.57 129.214 142.74 128.934 143.08C128.661 143.413 128.524 143.893 128.524 144.52C128.524 145.067 128.658 145.51 128.924 145.85C129.191 146.19 129.528 146.36 129.934 146.36ZM131.424 139.93H132.214V147H131.424V146.25C131.064 146.803 130.544 147.08 129.864 147.08C129.191 147.08 128.661 146.83 128.274 146.33C127.894 145.83 127.704 145.223 127.704 144.51C127.704 143.717 127.908 143.077 128.314 142.59C128.721 142.097 129.244 141.85 129.884 141.85C130.544 141.85 131.058 142.133 131.424 142.7V139.93ZM136.908 144.14V143.94C136.908 143.52 136.795 143.187 136.568 142.94C136.342 142.687 136.028 142.56 135.628 142.56C135.248 142.56 134.925 142.697 134.658 142.97C134.392 143.243 134.235 143.633 134.188 144.14H136.908ZM137.378 146V146.74C136.985 146.947 136.505 147.05 135.938 147.05C135.172 147.05 134.552 146.817 134.078 146.35C133.612 145.877 133.378 145.253 133.378 144.48C133.378 143.673 133.588 143.037 134.008 142.57C134.428 142.103 134.968 141.87 135.628 141.87C136.262 141.87 136.765 142.073 137.138 142.48C137.512 142.887 137.698 143.463 137.698 144.21C137.698 144.423 137.682 144.62 137.648 144.8H134.188C134.248 145.3 134.438 145.683 134.758 145.95C135.078 146.217 135.498 146.35 136.018 146.35C136.585 146.35 137.038 146.233 137.378 146ZM139.683 141.93V142.81C139.983 142.177 140.516 141.86 141.283 141.86C141.776 141.86 142.17 142.01 142.463 142.31C142.756 142.61 142.903 143.01 142.903 143.51V147H142.113V143.72C142.113 143.347 142.016 143.063 141.823 142.87C141.636 142.67 141.39 142.57 141.083 142.57C140.703 142.57 140.373 142.717 140.093 143.01C139.82 143.303 139.683 143.71 139.683 144.23V147H138.903V141.93H139.683ZM146.203 146.17C146.57 146.17 146.893 146.03 147.173 145.75C147.46 145.463 147.603 145.04 147.603 144.48C147.603 143.833 147.467 143.353 147.193 143.04C146.92 142.727 146.603 142.57 146.243 142.57C145.81 142.57 145.467 142.743 145.213 143.09C144.96 143.43 144.833 143.877 144.833 144.43C144.833 144.997 144.973 145.43 145.253 145.73C145.533 146.023 145.85 146.17 146.203 146.17ZM147.603 141.93H148.393V146.59C148.393 147.363 148.18 147.943 147.753 148.33C147.327 148.723 146.777 148.92 146.103 148.92C145.49 148.92 144.967 148.817 144.533 148.61V147.82C144.96 148.067 145.46 148.19 146.033 148.19C146.52 148.19 146.903 148.06 147.183 147.8C147.463 147.54 147.603 147.133 147.603 146.58V146.01C147.27 146.583 146.773 146.87 146.113 146.87C145.533 146.87 145.037 146.657 144.623 146.23C144.217 145.803 144.013 145.21 144.013 144.45C144.013 143.697 144.203 143.077 144.583 142.59C144.963 142.103 145.46 141.86 146.073 141.86C146.767 141.86 147.277 142.163 147.603 142.77V141.93ZM152.522 144.66H151.642C151.215 144.66 150.895 144.743 150.682 144.91C150.468 145.077 150.362 145.287 150.362 145.54C150.362 145.793 150.445 146 150.612 146.16C150.778 146.313 151.022 146.39 151.342 146.39C151.702 146.39 151.988 146.29 152.202 146.09C152.415 145.883 152.522 145.623 152.522 145.31V144.66ZM149.902 142.99V142.2C150.282 141.967 150.782 141.85 151.402 141.85C152.675 141.85 153.312 142.497 153.312 143.79V147H152.532V146.4C152.272 146.833 151.798 147.05 151.112 147.05C150.638 147.05 150.255 146.91 149.962 146.63C149.675 146.35 149.532 145.997 149.532 145.57C149.532 145.083 149.715 144.707 150.082 144.44C150.455 144.167 150.962 144.03 151.602 144.03H152.522V143.77C152.522 143.37 152.432 143.07 152.252 142.87C152.072 142.663 151.768 142.56 151.342 142.56C150.802 142.56 150.322 142.703 149.902 142.99ZM155.493 141.93V142.81C155.793 142.177 156.327 141.86 157.093 141.86C157.587 141.86 157.98 142.01 158.273 142.31C158.567 142.61 158.713 143.01 158.713 143.51V147H157.923V143.72C157.923 143.347 157.827 143.063 157.633 142.87C157.447 142.67 157.2 142.57 156.893 142.57C156.513 142.57 156.183 142.717 155.903 143.01C155.63 143.303 155.493 143.71 155.493 144.23V147H154.713V141.93H155.493ZM161.365 148.8V148.1C161.619 148.207 161.845 148.26 162.045 148.26C162.419 148.26 162.605 148.017 162.605 147.53V141.93H163.385V147.55C163.385 147.99 163.269 148.333 163.035 148.58C162.809 148.827 162.492 148.95 162.085 148.95C161.865 148.95 161.625 148.9 161.365 148.8ZM162.615 140.71C162.522 140.61 162.475 140.487 162.475 140.34C162.475 140.193 162.522 140.07 162.615 139.97C162.715 139.87 162.839 139.82 162.985 139.82C163.132 139.82 163.255 139.87 163.355 139.97C163.455 140.07 163.505 140.193 163.505 140.34C163.505 140.487 163.455 140.61 163.355 140.71C163.255 140.803 163.132 140.85 162.985 140.85C162.839 140.85 162.715 140.803 162.615 140.71ZM168.061 144.14V143.94C168.061 143.52 167.947 143.187 167.721 142.94C167.494 142.687 167.181 142.56 166.781 142.56C166.401 142.56 166.077 142.697 165.811 142.97C165.544 143.243 165.387 143.633 165.341 144.14H168.061ZM168.531 146V146.74C168.137 146.947 167.657 147.05 167.091 147.05C166.324 147.05 165.704 146.817 165.231 146.35C164.764 145.877 164.531 145.253 164.531 144.48C164.531 143.673 164.741 143.037 165.161 142.57C165.581 142.103 166.121 141.87 166.781 141.87C167.414 141.87 167.917 142.073 168.291 142.48C168.664 142.887 168.851 143.463 168.851 144.21C168.851 144.423 168.834 144.62 168.801 144.8H165.341C165.401 145.3 165.591 145.683 165.911 145.95C166.231 146.217 166.651 146.35 167.171 146.35C167.737 146.35 168.191 146.233 168.531 146ZM170.835 141.93V142.81C171.135 142.177 171.669 141.86 172.435 141.86C172.929 141.86 173.322 142.01 173.615 142.31C173.909 142.61 174.055 143.01 174.055 143.51V147H173.265V143.72C173.265 143.347 173.169 143.063 172.975 142.87C172.789 142.67 172.542 142.57 172.235 142.57C171.855 142.57 171.525 142.717 171.245 143.01C170.972 143.303 170.835 143.71 170.835 144.23V147H170.055V141.93H170.835ZM175.496 147V141.93H176.286V147H175.496ZM175.516 140.71C175.422 140.61 175.376 140.487 175.376 140.34C175.376 140.193 175.422 140.07 175.516 139.97C175.616 139.87 175.739 139.82 175.886 139.82C176.032 139.82 176.156 139.87 176.256 139.97C176.356 140.07 176.406 140.193 176.406 140.34C176.406 140.487 176.356 140.61 176.256 140.71C176.156 140.803 176.032 140.85 175.886 140.85C175.739 140.85 175.616 140.803 175.516 140.71ZM180.55 142.1V142.85C180.243 142.663 179.823 142.57 179.29 142.57C179.023 142.57 178.81 142.633 178.65 142.76C178.496 142.88 178.42 143.037 178.42 143.23C178.42 143.35 178.443 143.457 178.49 143.55C178.536 143.637 178.626 143.723 178.76 143.81C178.9 143.897 179 143.957 179.06 143.99C179.126 144.017 179.266 144.077 179.48 144.17C179.906 144.343 180.24 144.54 180.48 144.76C180.72 144.98 180.84 145.277 180.84 145.65C180.84 146.083 180.686 146.427 180.38 146.68C180.08 146.933 179.666 147.06 179.14 147.06C178.526 147.06 178.03 146.957 177.65 146.75V145.98C178.096 146.247 178.576 146.38 179.09 146.38C179.396 146.38 179.63 146.32 179.79 146.2C179.95 146.08 180.03 145.917 180.03 145.71C180.03 145.47 179.94 145.283 179.76 145.15C179.586 145.017 179.293 144.867 178.88 144.7C178.5 144.553 178.193 144.37 177.96 144.15C177.733 143.93 177.62 143.633 177.62 143.26C177.62 142.84 177.776 142.507 178.09 142.26C178.41 142.007 178.806 141.88 179.28 141.88C179.806 141.88 180.23 141.953 180.55 142.1ZM186.582 146.36C187.009 146.36 187.359 146.193 187.632 145.86C187.905 145.52 188.042 145.04 188.042 144.42C188.042 143.867 187.909 143.42 187.642 143.08C187.375 142.74 187.039 142.57 186.632 142.57C186.225 142.57 185.872 142.72 185.572 143.02C185.279 143.313 185.132 143.797 185.132 144.47C185.132 145.117 185.282 145.593 185.582 145.9C185.882 146.207 186.215 146.36 186.582 146.36ZM185.132 141.93V142.7C185.485 142.133 186.009 141.85 186.702 141.85C187.375 141.85 187.902 142.097 188.282 142.59C188.669 143.077 188.862 143.687 188.862 144.42C188.862 145.2 188.659 145.84 188.252 146.34C187.852 146.833 187.329 147.08 186.682 147.08C186.015 147.08 185.499 146.797 185.132 146.23V148.97H184.352V141.93H185.132ZM190.066 147V141.93H190.856V147H190.066ZM190.086 140.71C189.993 140.61 189.946 140.487 189.946 140.34C189.946 140.193 189.993 140.07 190.086 139.97C190.186 139.87 190.309 139.82 190.456 139.82C190.603 139.82 190.726 139.87 190.826 139.97C190.926 140.07 190.976 140.193 190.976 140.34C190.976 140.487 190.926 140.61 190.826 140.71C190.726 140.803 190.603 140.85 190.456 140.85C190.309 140.85 190.186 140.803 190.086 140.71ZM193.14 141.93V142.81C193.44 142.177 193.973 141.86 194.74 141.86C195.233 141.86 195.627 142.01 195.92 142.31C196.213 142.61 196.36 143.01 196.36 143.51V147H195.57V143.72C195.57 143.347 195.473 143.063 195.28 142.87C195.093 142.67 194.847 142.57 194.54 142.57C194.16 142.57 193.83 142.717 193.55 143.01C193.277 143.303 193.14 143.71 193.14 144.23V147H192.36V141.93H193.14ZM196.57 148.8V148.1C196.824 148.207 197.05 148.26 197.25 148.26C197.624 148.26 197.81 148.017 197.81 147.53V141.93H198.59V147.55C198.59 147.99 198.474 148.333 198.24 148.58C198.014 148.827 197.697 148.95 197.29 148.95C197.07 148.95 196.83 148.9 196.57 148.8ZM197.82 140.71C197.727 140.61 197.68 140.487 197.68 140.34C197.68 140.193 197.727 140.07 197.82 139.97C197.92 139.87 198.044 139.82 198.19 139.82C198.337 139.82 198.46 139.87 198.56 139.97C198.66 140.07 198.71 140.193 198.71 140.34C198.71 140.487 198.66 140.61 198.56 140.71C198.46 140.803 198.337 140.85 198.19 140.85C198.044 140.85 197.92 140.803 197.82 140.71ZM202.766 144.66H201.886C201.459 144.66 201.139 144.743 200.926 144.91C200.712 145.077 200.606 145.287 200.606 145.54C200.606 145.793 200.689 146 200.856 146.16C201.022 146.313 201.266 146.39 201.586 146.39C201.946 146.39 202.232 146.29 202.446 146.09C202.659 145.883 202.766 145.623 202.766 145.31V144.66ZM200.146 142.99V142.2C200.526 141.967 201.026 141.85 201.646 141.85C202.919 141.85 203.556 142.497 203.556 143.79V147H202.776V146.4C202.516 146.833 202.042 147.05 201.356 147.05C200.882 147.05 200.499 146.91 200.206 146.63C199.919 146.35 199.776 145.997 199.776 145.57C199.776 145.083 199.959 144.707 200.326 144.44C200.699 144.167 201.206 144.03 201.846 144.03H202.766V143.77C202.766 143.37 202.676 143.07 202.496 142.87C202.316 142.663 202.012 142.56 201.586 142.56C201.046 142.56 200.566 142.703 200.146 142.99ZM205.738 141.93V142.75C206.018 142.157 206.494 141.86 207.168 141.86C207.948 141.86 208.441 142.19 208.648 142.85C208.794 142.53 208.998 142.287 209.258 142.12C209.524 141.947 209.821 141.86 210.148 141.86C210.674 141.86 211.071 142.01 211.338 142.31C211.604 142.61 211.738 143.013 211.738 143.52V147H210.948V143.72C210.948 142.953 210.624 142.57 209.978 142.57C209.658 142.57 209.371 142.717 209.118 143.01C208.864 143.297 208.738 143.703 208.738 144.23V147H207.948V143.72C207.948 142.953 207.624 142.57 206.978 142.57C206.658 142.57 206.371 142.717 206.118 143.01C205.864 143.297 205.738 143.703 205.738 144.23V147H204.958V141.93H205.738ZM215.871 144.66H214.991C214.564 144.66 214.244 144.743 214.031 144.91C213.818 145.077 213.711 145.287 213.711 145.54C213.711 145.793 213.794 146 213.961 146.16C214.128 146.313 214.371 146.39 214.691 146.39C215.051 146.39 215.338 146.29 215.551 146.09C215.764 145.883 215.871 145.623 215.871 145.31V144.66ZM213.251 142.99V142.2C213.631 141.967 214.131 141.85 214.751 141.85C216.024 141.85 216.661 142.497 216.661 143.79V147H215.881V146.4C215.621 146.833 215.148 147.05 214.461 147.05C213.988 147.05 213.604 146.91 213.311 146.63C213.024 146.35 212.881 145.997 212.881 145.57C212.881 145.083 213.064 144.707 213.431 144.44C213.804 144.167 214.311 144.03 214.951 144.03H215.871V143.77C215.871 143.37 215.781 143.07 215.601 142.87C215.421 142.663 215.118 142.56 214.691 142.56C214.151 142.56 213.671 142.703 213.251 142.99ZM218.843 141.93V142.81C219.143 142.177 219.676 141.86 220.443 141.86C220.936 141.86 221.33 142.01 221.623 142.31C221.916 142.61 222.063 143.01 222.063 143.51V147H221.273V143.72C221.273 143.347 221.176 143.063 220.983 142.87C220.796 142.67 220.55 142.57 220.243 142.57C219.863 142.57 219.533 142.717 219.253 143.01C218.98 143.303 218.843 143.71 218.843 144.23V147H218.063V141.93H218.843ZM18.3771 192.54H20.7671L20.6371 192.15L19.5871 188.91C19.5071 189.197 19.1471 190.28 18.5071 192.16L18.3771 192.54ZM21.5871 195L20.9971 193.23H18.1471L17.5471 195H16.6771L19.0271 188.26H20.1471L22.4571 195H21.5871ZM24.3215 189.93V190.81C24.6215 190.177 25.1549 189.86 25.9215 189.86C26.4149 189.86 26.8082 190.01 27.1015 190.31C27.3949 190.61 27.5415 191.01 27.5415 191.51V195H26.7515V191.72C26.7515 191.347 26.6549 191.063 26.4615 190.87C26.2749 190.67 26.0282 190.57 25.7215 190.57C25.3415 190.57 25.0115 190.717 24.7315 191.01C24.4582 191.303 24.3215 191.71 24.3215 192.23V195H23.5415V189.93H24.3215ZM30.8719 194.36C31.2852 194.36 31.6352 194.207 31.9219 193.9C32.2152 193.593 32.3619 193.103 32.3619 192.43C32.3619 191.79 32.2119 191.32 31.9119 191.02C31.6119 190.72 31.2819 190.57 30.9219 190.57C30.5019 190.57 30.1519 190.74 29.8719 191.08C29.5986 191.413 29.4619 191.893 29.4619 192.52C29.4619 193.067 29.5952 193.51 29.8619 193.85C30.1286 194.19 30.4652 194.36 30.8719 194.36ZM32.3619 187.93H33.1519V195H32.3619V194.25C32.0019 194.803 31.4819 195.08 30.8019 195.08C30.1286 195.08 29.5986 194.83 29.2119 194.33C28.8319 193.83 28.6419 193.223 28.6419 192.51C28.6419 191.717 28.8452 191.077 29.2519 190.59C29.6586 190.097 30.1819 189.85 30.8219 189.85C31.4819 189.85 31.9952 190.133 32.3619 190.7V187.93ZM37.3457 192.66H36.4657C36.0391 192.66 35.7191 192.743 35.5057 192.91C35.2924 193.077 35.1857 193.287 35.1857 193.54C35.1857 193.793 35.2691 194 35.4357 194.16C35.6024 194.313 35.8457 194.39 36.1657 194.39C36.5257 194.39 36.8124 194.29 37.0257 194.09C37.2391 193.883 37.3457 193.623 37.3457 193.31V192.66ZM34.7257 190.99V190.2C35.1057 189.967 35.6057 189.85 36.2257 189.85C37.4991 189.85 38.1357 190.497 38.1357 191.79V195H37.3557V194.4C37.0957 194.833 36.6224 195.05 35.9357 195.05C35.4624 195.05 35.0791 194.91 34.7857 194.63C34.4991 194.35 34.3557 193.997 34.3557 193.57C34.3557 193.083 34.5391 192.707 34.9057 192.44C35.2791 192.167 35.7857 192.03 36.4257 192.03H37.3457V191.77C37.3457 191.37 37.2557 191.07 37.0757 190.87C36.8957 190.663 36.5924 190.56 36.1657 190.56C35.6257 190.56 35.1457 190.703 34.7257 190.99ZM43.909 194.36C44.3224 194.36 44.6724 194.207 44.959 193.9C45.2524 193.593 45.399 193.103 45.399 192.43C45.399 191.79 45.249 191.32 44.949 191.02C44.649 190.72 44.319 190.57 43.959 190.57C43.539 190.57 43.189 190.74 42.909 191.08C42.6357 191.413 42.499 191.893 42.499 192.52C42.499 193.067 42.6324 193.51 42.899 193.85C43.1657 194.19 43.5024 194.36 43.909 194.36ZM45.399 187.93H46.189V195H45.399V194.25C45.039 194.803 44.519 195.08 43.839 195.08C43.1657 195.08 42.6357 194.83 42.249 194.33C41.869 193.83 41.679 193.223 41.679 192.51C41.679 191.717 41.8824 191.077 42.289 190.59C42.6957 190.097 43.219 189.85 43.859 189.85C44.519 189.85 45.0324 190.133 45.399 190.7V187.93ZM50.3829 192.66H49.5029C49.0762 192.66 48.7562 192.743 48.5429 192.91C48.3295 193.077 48.2229 193.287 48.2229 193.54C48.2229 193.793 48.3062 194 48.4729 194.16C48.6395 194.313 48.8829 194.39 49.2029 194.39C49.5629 194.39 49.8495 194.29 50.0629 194.09C50.2762 193.883 50.3829 193.623 50.3829 193.31V192.66ZM47.7629 190.99V190.2C48.1429 189.967 48.6429 189.85 49.2629 189.85C50.5362 189.85 51.1729 190.497 51.1729 191.79V195H50.3929V194.4C50.1329 194.833 49.6595 195.05 48.9729 195.05C48.4995 195.05 48.1162 194.91 47.8229 194.63C47.5362 194.35 47.3929 193.997 47.3929 193.57C47.3929 193.083 47.5762 192.707 47.9429 192.44C48.3162 192.167 48.8229 192.03 49.4629 192.03H50.3829V191.77C50.3829 191.37 50.2929 191.07 50.1129 190.87C49.9329 190.663 49.6295 190.56 49.2029 190.56C48.6629 190.56 48.1829 190.703 47.7629 190.99ZM54.8047 194.36C55.2314 194.36 55.5814 194.193 55.8547 193.86C56.1281 193.52 56.2647 193.04 56.2647 192.42C56.2647 191.867 56.1314 191.42 55.8647 191.08C55.5981 190.74 55.2614 190.57 54.8547 190.57C54.4481 190.57 54.0947 190.72 53.7947 191.02C53.5014 191.313 53.3547 191.797 53.3547 192.47C53.3547 193.117 53.5047 193.593 53.8047 193.9C54.1047 194.207 54.4381 194.36 54.8047 194.36ZM53.3547 189.93V190.7C53.7081 190.133 54.2314 189.85 54.9247 189.85C55.5981 189.85 56.1247 190.097 56.5047 190.59C56.8914 191.077 57.0847 191.687 57.0847 192.42C57.0847 193.2 56.8814 193.84 56.4747 194.34C56.0747 194.833 55.5514 195.08 54.9047 195.08C54.2381 195.08 53.7214 194.797 53.3547 194.23V196.97H52.5747V189.93H53.3547ZM60.9786 192.66H60.0986C59.6719 192.66 59.3519 192.743 59.1386 192.91C58.9252 193.077 58.8186 193.287 58.8186 193.54C58.8186 193.793 58.9019 194 59.0686 194.16C59.2352 194.313 59.4786 194.39 59.7986 194.39C60.1586 194.39 60.4452 194.29 60.6586 194.09C60.8719 193.883 60.9786 193.623 60.9786 193.31V192.66ZM58.3586 190.99V190.2C58.7386 189.967 59.2386 189.85 59.8586 189.85C61.1319 189.85 61.7686 190.497 61.7686 191.79V195H60.9886V194.4C60.7286 194.833 60.2552 195.05 59.5686 195.05C59.0952 195.05 58.7119 194.91 58.4186 194.63C58.1319 194.35 57.9886 193.997 57.9886 193.57C57.9886 193.083 58.1719 192.707 58.5386 192.44C58.9119 192.167 59.4186 192.03 60.0586 192.03H60.9786V191.77C60.9786 191.37 60.8886 191.07 60.7086 190.87C60.5286 190.663 60.2252 190.56 59.7986 190.56C59.2586 190.56 58.7786 190.703 58.3586 190.99ZM64.2604 190.57V193.54C64.2604 194.08 64.5138 194.35 65.0204 194.35C65.2804 194.35 65.5104 194.273 65.7104 194.12V194.87C65.4904 194.99 65.2438 195.05 64.9704 195.05C63.9704 195.05 63.4704 194.54 63.4704 193.52V190.57H62.6604V189.93H63.4704V188.67H64.2604V189.93H65.6604V190.57H64.2604ZM70.0832 189.93V190.75C70.3632 190.157 70.8399 189.86 71.5132 189.86C72.2932 189.86 72.7866 190.19 72.9932 190.85C73.1399 190.53 73.3432 190.287 73.6032 190.12C73.8699 189.947 74.1666 189.86 74.4932 189.86C75.0199 189.86 75.4166 190.01 75.6832 190.31C75.9499 190.61 76.0832 191.013 76.0832 191.52V195H75.2932V191.72C75.2932 190.953 74.9699 190.57 74.3232 190.57C74.0032 190.57 73.7166 190.717 73.4632 191.01C73.2099 191.297 73.0832 191.703 73.0832 192.23V195H72.2932V191.72C72.2932 190.953 71.9699 190.57 71.3232 190.57C71.0032 190.57 70.7166 190.717 70.4632 191.01C70.2099 191.297 70.0832 191.703 70.0832 192.23V195H69.3032V189.93H70.0832ZM80.7168 192.14V191.94C80.7168 191.52 80.6035 191.187 80.3768 190.94C80.1502 190.687 79.8368 190.56 79.4368 190.56C79.0568 190.56 78.7335 190.697 78.4668 190.97C78.2002 191.243 78.0435 191.633 77.9968 192.14H80.7168ZM81.1868 194V194.74C80.7935 194.947 80.3135 195.05 79.7468 195.05C78.9802 195.05 78.3602 194.817 77.8868 194.35C77.4202 193.877 77.1868 193.253 77.1868 192.48C77.1868 191.673 77.3968 191.037 77.8168 190.57C78.2368 190.103 78.7768 189.87 79.4368 189.87C80.0702 189.87 80.5735 190.073 80.9468 190.48C81.3202 190.887 81.5068 191.463 81.5068 192.21C81.5068 192.423 81.4902 192.62 81.4568 192.8H77.9968C78.0568 193.3 78.2468 193.683 78.5668 193.95C78.8868 194.217 79.3068 194.35 79.8268 194.35C80.3935 194.35 80.8468 194.233 81.1868 194ZM82.7514 195V187.93H83.5414V195H82.7514ZM85.0854 195V189.93H85.8754V195H85.0854ZM85.1054 188.71C85.0121 188.61 84.9654 188.487 84.9654 188.34C84.9654 188.193 85.0121 188.07 85.1054 187.97C85.2054 187.87 85.3288 187.82 85.4754 187.82C85.6221 187.82 85.7454 187.87 85.8454 187.97C85.9454 188.07 85.9954 188.193 85.9954 188.34C85.9954 188.487 85.9454 188.61 85.8454 188.71C85.7454 188.803 85.6221 188.85 85.4754 188.85C85.3288 188.85 85.2054 188.803 85.1054 188.71ZM88.1594 187.93V190.81C88.4594 190.177 88.9927 189.86 89.7594 189.86C90.2461 189.86 90.6361 190.01 90.9294 190.31C91.2294 190.61 91.3794 191.017 91.3794 191.53V195H90.5894V191.72C90.5894 191.353 90.4927 191.07 90.2994 190.87C90.1127 190.67 89.8661 190.57 89.5594 190.57C89.1861 190.57 88.8594 190.713 88.5794 191C88.2994 191.287 88.1594 191.697 88.1594 192.23V195H87.3794V187.93H88.1594ZM95.5098 192.66H94.6298C94.2031 192.66 93.8831 192.743 93.6698 192.91C93.4565 193.077 93.3498 193.287 93.3498 193.54C93.3498 193.793 93.4331 194 93.5998 194.16C93.7665 194.313 94.0098 194.39 94.3298 194.39C94.6898 194.39 94.9765 194.29 95.1898 194.09C95.4031 193.883 95.5098 193.623 95.5098 193.31V192.66ZM92.8898 190.99V190.2C93.2698 189.967 93.7698 189.85 94.3898 189.85C95.6631 189.85 96.2998 190.497 96.2998 191.79V195H95.5198V194.4C95.2598 194.833 94.7865 195.05 94.0998 195.05C93.6265 195.05 93.2431 194.91 92.9498 194.63C92.6631 194.35 92.5198 193.997 92.5198 193.57C92.5198 193.083 92.7031 192.707 93.0698 192.44C93.4431 192.167 93.9498 192.03 94.5898 192.03H95.5098V191.77C95.5098 191.37 95.4198 191.07 95.2398 190.87C95.0598 190.663 94.7565 190.56 94.3298 190.56C93.7898 190.56 93.3098 190.703 92.8898 190.99ZM98.7917 190.57V193.54C98.7917 194.08 99.045 194.35 99.5517 194.35C99.8117 194.35 100.042 194.273 100.242 194.12V194.87C100.022 194.99 99.775 195.05 99.5017 195.05C98.5017 195.05 98.0017 194.54 98.0017 193.52V190.57H97.1917V189.93H98.0017V188.67H98.7917V189.93H100.192V190.57H98.7917ZM104.924 190.57V193.54C104.924 194.08 105.178 194.35 105.684 194.35C105.944 194.35 106.174 194.273 106.374 194.12V194.87C106.154 194.99 105.908 195.05 105.634 195.05C104.634 195.05 104.134 194.54 104.134 193.52V190.57H103.324V189.93H104.134V188.67H104.924V189.93H106.324V190.57H104.924ZM108.306 189.93V190.82C108.573 190.193 109.033 189.88 109.686 189.88C109.806 189.88 109.899 189.887 109.966 189.9V190.68C109.826 190.633 109.683 190.61 109.536 190.61C109.183 190.61 108.889 190.773 108.656 191.1C108.423 191.427 108.306 191.803 108.306 192.23V195H107.516L107.526 189.93H108.306ZM113.518 192.66H112.638C112.211 192.66 111.891 192.743 111.678 192.91C111.464 193.077 111.358 193.287 111.358 193.54C111.358 193.793 111.441 194 111.608 194.16C111.774 194.313 112.018 194.39 112.338 194.39C112.698 194.39 112.984 194.29 113.198 194.09C113.411 193.883 113.518 193.623 113.518 193.31V192.66ZM110.898 190.99V190.2C111.278 189.967 111.778 189.85 112.398 189.85C113.671 189.85 114.308 190.497 114.308 191.79V195H113.528V194.4C113.268 194.833 112.794 195.05 112.108 195.05C111.634 195.05 111.251 194.91 110.958 194.63C110.671 194.35 110.528 193.997 110.528 193.57C110.528 193.083 110.711 192.707 111.078 192.44C111.451 192.167 111.958 192.03 112.598 192.03H113.518V191.77C113.518 191.37 113.428 191.07 113.248 190.87C113.068 190.663 112.764 190.56 112.338 190.56C111.798 190.56 111.318 190.703 110.898 190.99ZM116.489 189.93V190.81C116.789 190.177 117.323 189.86 118.089 189.86C118.583 189.86 118.976 190.01 119.269 190.31C119.563 190.61 119.709 191.01 119.709 191.51V195H118.919V191.72C118.919 191.347 118.823 191.063 118.629 190.87C118.443 190.67 118.196 190.57 117.889 190.57C117.509 190.57 117.179 190.717 116.899 191.01C116.626 191.303 116.489 191.71 116.489 192.23V195H115.709V189.93H116.489ZM123.87 190.1V190.85C123.563 190.663 123.143 190.57 122.61 190.57C122.343 190.57 122.13 190.633 121.97 190.76C121.817 190.88 121.74 191.037 121.74 191.23C121.74 191.35 121.763 191.457 121.81 191.55C121.857 191.637 121.947 191.723 122.08 191.81C122.22 191.897 122.32 191.957 122.38 191.99C122.447 192.017 122.587 192.077 122.8 192.17C123.227 192.343 123.56 192.54 123.8 192.76C124.04 192.98 124.16 193.277 124.16 193.65C124.16 194.083 124.007 194.427 123.7 194.68C123.4 194.933 122.987 195.06 122.46 195.06C121.847 195.06 121.35 194.957 120.97 194.75V193.98C121.417 194.247 121.897 194.38 122.41 194.38C122.717 194.38 122.95 194.32 123.11 194.2C123.27 194.08 123.35 193.917 123.35 193.71C123.35 193.47 123.26 193.283 123.08 193.15C122.907 193.017 122.613 192.867 122.2 192.7C121.82 192.553 121.513 192.37 121.28 192.15C121.053 191.93 120.94 191.633 120.94 191.26C120.94 190.84 121.097 190.507 121.41 190.26C121.73 190.007 122.127 189.88 122.6 189.88C123.127 189.88 123.55 189.953 123.87 190.1ZM127.961 192.66H127.081C126.654 192.66 126.334 192.743 126.121 192.91C125.908 193.077 125.801 193.287 125.801 193.54C125.801 193.793 125.884 194 126.051 194.16C126.218 194.313 126.461 194.39 126.781 194.39C127.141 194.39 127.428 194.29 127.641 194.09C127.854 193.883 127.961 193.623 127.961 193.31V192.66ZM125.341 190.99V190.2C125.721 189.967 126.221 189.85 126.841 189.85C128.114 189.85 128.751 190.497 128.751 191.79V195H127.971V194.4C127.711 194.833 127.238 195.05 126.551 195.05C126.078 195.05 125.694 194.91 125.401 194.63C125.114 194.35 124.971 193.997 124.971 193.57C124.971 193.083 125.154 192.707 125.521 192.44C125.894 192.167 126.401 192.03 127.041 192.03H127.961V191.77C127.961 191.37 127.871 191.07 127.691 190.87C127.511 190.663 127.208 190.56 126.781 190.56C126.241 190.56 125.761 190.703 125.341 190.99ZM130.153 195V187.97H130.933V195H130.153ZM131.963 192.34L134.023 195H133.073L131.033 192.34L133.023 189.93H133.963L131.963 192.34ZM137.718 190.1V190.85C137.411 190.663 136.991 190.57 136.458 190.57C136.191 190.57 135.978 190.633 135.818 190.76C135.664 190.88 135.588 191.037 135.588 191.23C135.588 191.35 135.611 191.457 135.658 191.55C135.704 191.637 135.794 191.723 135.928 191.81C136.068 191.897 136.168 191.957 136.228 191.99C136.294 192.017 136.434 192.077 136.648 192.17C137.074 192.343 137.408 192.54 137.648 192.76C137.888 192.98 138.008 193.277 138.008 193.65C138.008 194.083 137.854 194.427 137.548 194.68C137.248 194.933 136.834 195.06 136.308 195.06C135.694 195.06 135.198 194.957 134.818 194.75V193.98C135.264 194.247 135.744 194.38 136.258 194.38C136.564 194.38 136.798 194.32 136.958 194.2C137.118 194.08 137.198 193.917 137.198 193.71C137.198 193.47 137.108 193.283 136.928 193.15C136.754 193.017 136.461 192.867 136.048 192.7C135.668 192.553 135.361 192.37 135.128 192.15C134.901 191.93 134.788 191.633 134.788 191.26C134.788 190.84 134.944 190.507 135.258 190.26C135.578 190.007 135.974 189.88 136.448 189.88C136.974 189.88 137.398 189.953 137.718 190.1ZM139.119 195V189.93H139.909V195H139.119ZM139.139 188.71C139.045 188.61 138.999 188.487 138.999 188.34C138.999 188.193 139.045 188.07 139.139 187.97C139.239 187.87 139.362 187.82 139.509 187.82C139.655 187.82 139.779 187.87 139.879 187.97C139.979 188.07 140.029 188.193 140.029 188.34C140.029 188.487 139.979 188.61 139.879 188.71C139.779 188.803 139.655 188.85 139.509 188.85C139.362 188.85 139.239 188.803 139.139 188.71ZM147.004 189.93H147.794V195H147.004V194.12C146.737 194.747 146.207 195.06 145.414 195.06C144.914 195.06 144.517 194.913 144.224 194.62C143.937 194.32 143.794 193.92 143.794 193.42V189.93H144.584V193.22C144.584 193.587 144.677 193.867 144.864 194.06C145.051 194.253 145.304 194.35 145.624 194.35C146.044 194.35 146.377 194.203 146.624 193.91C146.877 193.617 147.004 193.22 147.004 192.72V189.93ZM150.344 190.57V193.54C150.344 194.08 150.598 194.35 151.104 194.35C151.364 194.35 151.594 194.273 151.794 194.12V194.87C151.574 194.99 151.328 195.05 151.054 195.05C150.054 195.05 149.554 194.54 149.554 193.52V190.57H148.744V189.93H149.554V188.67H150.344V189.93H151.744V190.57H150.344ZM155.676 192.66H154.796C154.369 192.66 154.049 192.743 153.836 192.91C153.622 193.077 153.516 193.287 153.516 193.54C153.516 193.793 153.599 194 153.766 194.16C153.932 194.313 154.176 194.39 154.496 194.39C154.856 194.39 155.142 194.29 155.356 194.09C155.569 193.883 155.676 193.623 155.676 193.31V192.66ZM153.056 190.99V190.2C153.436 189.967 153.936 189.85 154.556 189.85C155.829 189.85 156.466 190.497 156.466 191.79V195H155.686V194.4C155.426 194.833 154.952 195.05 154.266 195.05C153.792 195.05 153.409 194.91 153.116 194.63C152.829 194.35 152.686 193.997 152.686 193.57C152.686 193.083 152.869 192.707 153.236 192.44C153.609 192.167 154.116 192.03 154.756 192.03H155.676V191.77C155.676 191.37 155.586 191.07 155.406 190.87C155.226 190.663 154.922 190.56 154.496 190.56C153.956 190.56 153.476 190.703 153.056 190.99ZM158.648 189.93V190.81C158.948 190.177 159.481 189.86 160.248 189.86C160.741 189.86 161.134 190.01 161.428 190.31C161.721 190.61 161.868 191.01 161.868 191.51V195H161.078V191.72C161.078 191.347 160.981 191.063 160.788 190.87C160.601 190.67 160.354 190.57 160.048 190.57C159.668 190.57 159.338 190.717 159.058 191.01C158.784 191.303 158.648 191.71 158.648 192.23V195H157.868V189.93H158.648ZM165.168 194.17C165.535 194.17 165.858 194.03 166.138 193.75C166.425 193.463 166.568 193.04 166.568 192.48C166.568 191.833 166.431 191.353 166.158 191.04C165.885 190.727 165.568 190.57 165.208 190.57C164.775 190.57 164.431 190.743 164.178 191.09C163.925 191.43 163.798 191.877 163.798 192.43C163.798 192.997 163.938 193.43 164.218 193.73C164.498 194.023 164.815 194.17 165.168 194.17ZM166.568 189.93H167.358V194.59C167.358 195.363 167.145 195.943 166.718 196.33C166.291 196.723 165.741 196.92 165.068 196.92C164.455 196.92 163.931 196.817 163.498 196.61V195.82C163.925 196.067 164.425 196.19 164.998 196.19C165.485 196.19 165.868 196.06 166.148 195.8C166.428 195.54 166.568 195.133 166.568 194.58V194.01C166.235 194.583 165.738 194.87 165.078 194.87C164.498 194.87 164.001 194.657 163.588 194.23C163.181 193.803 162.978 193.21 162.978 192.45C162.978 191.697 163.168 191.077 163.548 190.59C163.928 190.103 164.425 189.86 165.038 189.86C165.731 189.86 166.241 190.163 166.568 190.77V189.93ZM172.518 192.54H174.908L174.778 192.15L173.728 188.91C173.648 189.197 173.288 190.28 172.648 192.16L172.518 192.54ZM175.728 195L175.138 193.23H172.288L171.688 195H170.818L173.168 188.26H174.288L176.598 195H175.728ZM178.462 189.93V190.81C178.762 190.177 179.295 189.86 180.062 189.86C180.555 189.86 180.949 190.01 181.242 190.31C181.535 190.61 181.682 191.01 181.682 191.51V195H180.892V191.72C180.892 191.347 180.795 191.063 180.602 190.87C180.415 190.67 180.169 190.57 179.862 190.57C179.482 190.57 179.152 190.717 178.872 191.01C178.599 191.303 178.462 191.71 178.462 192.23V195H177.682V189.93H178.462ZM185.013 194.36C185.426 194.36 185.776 194.207 186.063 193.9C186.356 193.593 186.503 193.103 186.503 192.43C186.503 191.79 186.353 191.32 186.053 191.02C185.753 190.72 185.423 190.57 185.063 190.57C184.643 190.57 184.293 190.74 184.013 191.08C183.739 191.413 183.603 191.893 183.603 192.52C183.603 193.067 183.736 193.51 184.003 193.85C184.269 194.19 184.606 194.36 185.013 194.36ZM186.503 187.93H187.293V195H186.503V194.25C186.143 194.803 185.623 195.08 184.943 195.08C184.269 195.08 183.739 194.83 183.353 194.33C182.973 193.83 182.783 193.223 182.783 192.51C182.783 191.717 182.986 191.077 183.393 190.59C183.799 190.097 184.323 189.85 184.963 189.85C185.623 189.85 186.136 190.133 186.503 190.7V187.93ZM191.486 192.66H190.606C190.18 192.66 189.86 192.743 189.646 192.91C189.433 193.077 189.326 193.287 189.326 193.54C189.326 193.793 189.41 194 189.576 194.16C189.743 194.313 189.986 194.39 190.306 194.39C190.666 194.39 190.953 194.29 191.166 194.09C191.38 193.883 191.486 193.623 191.486 193.31V192.66ZM188.866 190.99V190.2C189.246 189.967 189.746 189.85 190.366 189.85C191.64 189.85 192.276 190.497 192.276 191.79V195H191.496V194.4C191.236 194.833 190.763 195.05 190.076 195.05C189.603 195.05 189.22 194.91 188.926 194.63C188.64 194.35 188.496 193.997 188.496 193.57C188.496 193.083 188.68 192.707 189.046 192.44C189.42 192.167 189.926 192.03 190.566 192.03H191.486V191.77C191.486 191.37 191.396 191.07 191.216 190.87C191.036 190.663 190.733 190.56 190.306 190.56C189.766 190.56 189.286 190.703 188.866 190.99ZM198.35 194.36C198.776 194.36 199.126 194.193 199.4 193.86C199.673 193.52 199.81 193.04 199.81 192.42C199.81 191.867 199.676 191.42 199.41 191.08C199.143 190.74 198.806 190.57 198.4 190.57C197.993 190.57 197.64 190.72 197.34 191.02C197.046 191.313 196.9 191.797 196.9 192.47C196.9 193.117 197.05 193.593 197.35 193.9C197.65 194.207 197.983 194.36 198.35 194.36ZM196.9 189.93V190.7C197.253 190.133 197.776 189.85 198.47 189.85C199.143 189.85 199.67 190.097 200.05 190.59C200.436 191.077 200.63 191.687 200.63 192.42C200.63 193.2 200.426 193.84 200.02 194.34C199.62 194.833 199.096 195.08 198.45 195.08C197.783 195.08 197.266 194.797 196.9 194.23V196.97H196.12V189.93H196.9ZM204.523 192.66H203.643C203.217 192.66 202.897 192.743 202.683 192.91C202.47 193.077 202.363 193.287 202.363 193.54C202.363 193.793 202.447 194 202.613 194.16C202.78 194.313 203.023 194.39 203.343 194.39C203.703 194.39 203.99 194.29 204.203 194.09C204.417 193.883 204.523 193.623 204.523 193.31V192.66ZM201.903 190.99V190.2C202.283 189.967 202.783 189.85 203.403 189.85C204.677 189.85 205.313 190.497 205.313 191.79V195H204.533V194.4C204.273 194.833 203.8 195.05 203.113 195.05C202.64 195.05 202.257 194.91 201.963 194.63C201.677 194.35 201.533 193.997 201.533 193.57C201.533 193.083 201.717 192.707 202.083 192.44C202.457 192.167 202.963 192.03 203.603 192.03H204.523V191.77C204.523 191.37 204.433 191.07 204.253 190.87C204.073 190.663 203.77 190.56 203.343 190.56C202.803 190.56 202.323 190.703 201.903 190.99ZM208.645 194.36C209.059 194.36 209.409 194.207 209.695 193.9C209.989 193.593 210.135 193.103 210.135 192.43C210.135 191.79 209.985 191.32 209.685 191.02C209.385 190.72 209.055 190.57 208.695 190.57C208.275 190.57 207.925 190.74 207.645 191.08C207.372 191.413 207.235 191.893 207.235 192.52C207.235 193.067 207.369 193.51 207.635 193.85C207.902 194.19 208.239 194.36 208.645 194.36ZM210.135 187.93H210.925V195H210.135V194.25C209.775 194.803 209.255 195.08 208.575 195.08C207.902 195.08 207.372 194.83 206.985 194.33C206.605 193.83 206.415 193.223 206.415 192.51C206.415 191.717 206.619 191.077 207.025 190.59C207.432 190.097 207.955 189.85 208.595 189.85C209.255 189.85 209.769 190.133 210.135 190.7V187.93ZM215.119 192.66H214.239C213.813 192.66 213.493 192.743 213.279 192.91C213.066 193.077 212.959 193.287 212.959 193.54C212.959 193.793 213.043 194 213.209 194.16C213.376 194.313 213.619 194.39 213.939 194.39C214.299 194.39 214.586 194.29 214.799 194.09C215.013 193.883 215.119 193.623 215.119 193.31V192.66ZM212.499 190.99V190.2C212.879 189.967 213.379 189.85 213.999 189.85C215.273 189.85 215.909 190.497 215.909 191.79V195H215.129V194.4C214.869 194.833 214.396 195.05 213.709 195.05C213.236 195.05 212.853 194.91 212.559 194.63C212.273 194.35 212.129 193.997 212.129 193.57C212.129 193.083 212.313 192.707 212.679 192.44C213.053 192.167 213.559 192.03 214.199 192.03H215.119V191.77C215.119 191.37 215.029 191.07 214.849 190.87C214.669 190.663 214.366 190.56 213.939 190.56C213.399 190.56 212.919 190.703 212.499 190.99ZM220.532 189.93V190.75C220.812 190.157 221.289 189.86 221.962 189.86C222.742 189.86 223.236 190.19 223.442 190.85C223.589 190.53 223.792 190.287 224.052 190.12C224.319 189.947 224.616 189.86 224.942 189.86C225.469 189.86 225.866 190.01 226.132 190.31C226.399 190.61 226.532 191.013 226.532 191.52V195H225.742V191.72C225.742 190.953 225.419 190.57 224.772 190.57C224.452 190.57 224.166 190.717 223.912 191.01C223.659 191.297 223.532 191.703 223.532 192.23V195H222.742V191.72C222.742 190.953 222.419 190.57 221.772 190.57C221.452 190.57 221.166 190.717 220.912 191.01C220.659 191.297 220.532 191.703 220.532 192.23V195H219.752V189.93H220.532ZM231.166 192.14V191.94C231.166 191.52 231.053 191.187 230.826 190.94C230.599 190.687 230.286 190.56 229.886 190.56C229.506 190.56 229.183 190.697 228.916 190.97C228.649 191.243 228.493 191.633 228.446 192.14H231.166ZM231.636 194V194.74C231.243 194.947 230.763 195.05 230.196 195.05C229.429 195.05 228.809 194.817 228.336 194.35C227.869 193.877 227.636 193.253 227.636 192.48C227.636 191.673 227.846 191.037 228.266 190.57C228.686 190.103 229.226 189.87 229.886 189.87C230.519 189.87 231.023 190.073 231.396 190.48C231.769 190.887 231.956 191.463 231.956 192.21C231.956 192.423 231.939 192.62 231.906 192.8H228.446C228.506 193.3 228.696 193.683 229.016 193.95C229.336 194.217 229.756 194.35 230.276 194.35C230.843 194.35 231.296 194.233 231.636 194ZM233.941 189.93V190.81C234.241 190.177 234.774 189.86 235.541 189.86C236.034 189.86 236.427 190.01 236.721 190.31C237.014 190.61 237.161 191.01 237.161 191.51V195H236.371V191.72C236.371 191.347 236.274 191.063 236.081 190.87C235.894 190.67 235.647 190.57 235.341 190.57C234.961 190.57 234.631 190.717 234.351 191.01C234.077 191.303 233.941 191.71 233.941 192.23V195H233.161V189.93H233.941ZM241.711 189.93H242.501V195H241.711V194.12C241.444 194.747 240.914 195.06 240.121 195.06C239.621 195.06 239.224 194.913 238.931 194.62C238.644 194.32 238.501 193.92 238.501 193.42V189.93H239.291V193.22C239.291 193.587 239.384 193.867 239.571 194.06C239.758 194.253 240.011 194.35 240.331 194.35C240.751 194.35 241.084 194.203 241.331 193.91C241.584 193.617 241.711 193.22 241.711 192.72V189.93ZM122.262 208.42V204.26H123.522V208.41C123.522 209.283 123.285 209.95 122.812 210.41C122.345 210.863 121.702 211.09 120.882 211.09C120.082 211.09 119.442 210.867 118.962 210.42C118.488 209.967 118.252 209.32 118.252 208.48V204.26H119.512V208.47C119.512 208.983 119.638 209.357 119.892 209.59C120.145 209.817 120.475 209.93 120.882 209.93C121.802 209.93 122.262 209.427 122.262 208.42ZM126.294 206.83V209.41C126.294 209.623 126.35 209.787 126.464 209.9C126.577 210.007 126.734 210.06 126.934 210.06C127.187 210.06 127.42 209.99 127.634 209.85V210.88C127.4 210.993 127.1 211.05 126.734 211.05C125.64 211.05 125.094 210.497 125.094 209.39V206.83H124.334V205.93H125.094V204.71H126.294V205.93H127.554V206.83H126.294ZM131.213 208.82H130.593C130.279 208.82 130.039 208.887 129.873 209.02C129.706 209.147 129.623 209.31 129.623 209.51C129.623 209.937 129.869 210.15 130.363 210.15C130.629 210.15 130.836 210.073 130.983 209.92C131.136 209.76 131.213 209.553 131.213 209.3V208.82ZM128.753 207.3V206.19C129.133 205.957 129.679 205.84 130.393 205.84C131.766 205.84 132.453 206.48 132.453 207.76V211H131.263V210.39C131.029 210.823 130.589 211.04 129.943 211.04C129.463 211.04 129.079 210.9 128.793 210.62C128.513 210.34 128.373 209.987 128.373 209.56C128.373 209.08 128.553 208.703 128.913 208.43C129.273 208.157 129.793 208.02 130.473 208.02H131.213V207.71C131.213 207.43 131.139 207.217 130.993 207.07C130.846 206.923 130.596 206.85 130.243 206.85C129.703 206.85 129.206 207 128.753 207.3ZM134.891 205.93V206.8C135.178 206.18 135.698 205.87 136.451 205.87C136.958 205.87 137.358 206.023 137.651 206.33C137.944 206.637 138.091 207.07 138.091 207.63V211H136.891V207.88C136.891 207.547 136.811 207.297 136.651 207.13C136.491 206.957 136.274 206.87 136.001 206.87C135.688 206.87 135.424 206.993 135.211 207.24C134.998 207.48 134.891 207.827 134.891 208.28V211H133.691V205.93H134.891ZM141.465 209.86C141.792 209.86 142.065 209.733 142.285 209.48C142.505 209.22 142.615 208.883 142.615 208.47C142.615 207.93 142.509 207.533 142.295 207.28C142.082 207.027 141.812 206.9 141.485 206.9C141.139 206.9 140.865 207.037 140.665 207.31C140.465 207.577 140.365 207.94 140.365 208.4C140.365 208.873 140.469 209.237 140.675 209.49C140.882 209.737 141.145 209.86 141.465 209.86ZM142.615 205.93H143.815V210.54C143.815 211.34 143.582 211.94 143.115 212.34C142.655 212.747 142.069 212.95 141.355 212.95C140.689 212.95 140.105 212.83 139.605 212.59V211.37C140.059 211.69 140.602 211.85 141.235 211.85C142.155 211.85 142.615 211.41 142.615 210.53V210.09C142.309 210.59 141.829 210.84 141.175 210.84C140.609 210.84 140.122 210.633 139.715 210.22C139.315 209.8 139.115 209.193 139.115 208.4C139.115 207.667 139.305 207.063 139.685 206.59C140.072 206.11 140.579 205.87 141.205 205.87C141.839 205.87 142.309 206.133 142.615 206.66V205.93Z" fill="#2B2B2B"/>
<path d="M108.053 159.69H108.763C109.223 159.69 109.566 159.58 109.793 159.36C110.019 159.14 110.133 158.843 110.133 158.47C110.133 158.103 110.019 157.817 109.793 157.61C109.566 157.397 109.233 157.29 108.793 157.29H108.053V159.69ZM106.793 156.26H108.903C109.663 156.26 110.269 156.467 110.723 156.88C111.183 157.293 111.413 157.823 111.413 158.47C111.413 159.157 111.176 159.703 110.703 160.11C110.236 160.51 109.646 160.71 108.933 160.71H108.053V163H106.793V156.26ZM112.349 163V157.93H113.549V163H112.349ZM112.229 156.41C112.229 156.21 112.299 156.04 112.439 155.9C112.579 155.76 112.749 155.69 112.949 155.69C113.149 155.69 113.319 155.76 113.459 155.9C113.599 156.04 113.669 156.21 113.669 156.41C113.669 156.617 113.599 156.79 113.459 156.93C113.319 157.07 113.149 157.14 112.949 157.14C112.749 157.14 112.579 157.07 112.439 156.93C112.299 156.79 112.229 156.617 112.229 156.41ZM116.097 157.93V158.8C116.384 158.18 116.904 157.87 117.657 157.87C118.164 157.87 118.564 158.023 118.857 158.33C119.15 158.637 119.297 159.07 119.297 159.63V163H118.097V159.88C118.097 159.547 118.017 159.297 117.857 159.13C117.697 158.957 117.48 158.87 117.207 158.87C116.894 158.87 116.63 158.993 116.417 159.24C116.204 159.48 116.097 159.827 116.097 160.28V163H114.897V157.93H116.097ZM119.481 164.81V163.86C119.715 163.96 119.918 164.01 120.091 164.01C120.445 164.01 120.621 163.78 120.621 163.32V157.93H121.821V163.34C121.821 163.84 121.685 164.237 121.411 164.53C121.138 164.823 120.748 164.97 120.241 164.97C120.001 164.97 119.748 164.917 119.481 164.81ZM120.491 156.41C120.491 156.21 120.561 156.04 120.701 155.9C120.841 155.76 121.011 155.69 121.211 155.69C121.418 155.69 121.591 155.76 121.731 155.9C121.871 156.04 121.941 156.21 121.941 156.41C121.941 156.617 121.871 156.79 121.731 156.93C121.591 157.07 121.418 157.14 121.211 157.14C121.011 157.14 120.841 157.07 120.701 156.93C120.561 156.79 120.491 156.617 120.491 156.41ZM125.71 160.82H125.09C124.776 160.82 124.536 160.887 124.37 161.02C124.203 161.147 124.12 161.31 124.12 161.51C124.12 161.937 124.366 162.15 124.86 162.15C125.126 162.15 125.333 162.073 125.48 161.92C125.633 161.76 125.71 161.553 125.71 161.3V160.82ZM123.25 159.3V158.19C123.63 157.957 124.176 157.84 124.89 157.84C126.263 157.84 126.95 158.48 126.95 159.76V163H125.76V162.39C125.526 162.823 125.086 163.04 124.44 163.04C123.96 163.04 123.576 162.9 123.29 162.62C123.01 162.34 122.87 161.987 122.87 161.56C122.87 161.08 123.05 160.703 123.41 160.43C123.77 160.157 124.29 160.02 124.97 160.02H125.71V159.71C125.71 159.43 125.636 159.217 125.49 159.07C125.343 158.923 125.093 158.85 124.74 158.85C124.2 158.85 123.703 159 123.25 159.3ZM129.388 157.93V158.73C129.675 158.157 130.151 157.87 130.818 157.87C131.558 157.87 132.038 158.19 132.258 158.83C132.391 158.523 132.591 158.287 132.858 158.12C133.125 157.953 133.428 157.87 133.768 157.87C134.281 157.87 134.678 158.027 134.958 158.34C135.238 158.647 135.378 159.087 135.378 159.66V163H134.168V159.89C134.168 159.21 133.908 158.87 133.388 158.87C133.128 158.87 132.895 158.983 132.688 159.21C132.488 159.437 132.388 159.793 132.388 160.28V163H131.178V159.89C131.178 159.21 130.918 158.87 130.398 158.87C130.138 158.87 129.905 158.983 129.698 159.21C129.491 159.437 129.388 159.793 129.388 160.28V163H128.188V157.93H129.388ZM139.206 160.82H138.586C138.272 160.82 138.032 160.887 137.866 161.02C137.699 161.147 137.616 161.31 137.616 161.51C137.616 161.937 137.862 162.15 138.356 162.15C138.622 162.15 138.829 162.073 138.976 161.92C139.129 161.76 139.206 161.553 139.206 161.3V160.82ZM136.746 159.3V158.19C137.126 157.957 137.672 157.84 138.386 157.84C139.759 157.84 140.446 158.48 140.446 159.76V163H139.256V162.39C139.022 162.823 138.582 163.04 137.936 163.04C137.456 163.04 137.072 162.9 136.786 162.62C136.506 162.34 136.366 161.987 136.366 161.56C136.366 161.08 136.546 160.703 136.906 160.43C137.266 160.157 137.786 160.02 138.466 160.02H139.206V159.71C139.206 159.43 139.132 159.217 138.986 159.07C138.839 158.923 138.589 158.85 138.236 158.85C137.696 158.85 137.199 159 136.746 159.3ZM142.884 157.93V158.8C143.171 158.18 143.691 157.87 144.444 157.87C144.951 157.87 145.351 158.023 145.644 158.33C145.938 158.637 146.084 159.07 146.084 159.63V163H144.884V159.88C144.884 159.547 144.804 159.297 144.644 159.13C144.484 158.957 144.268 158.87 143.994 158.87C143.681 158.87 143.418 158.993 143.204 159.24C142.991 159.48 142.884 159.827 142.884 160.28V163H141.684V157.93H142.884ZM151.579 160.44H153.479L153.389 160.14C153.162 159.42 152.976 158.817 152.829 158.33C152.689 157.837 152.602 157.527 152.569 157.4L152.529 157.2C152.469 157.533 152.182 158.517 151.669 160.15L151.579 160.44ZM154.279 163L153.799 161.47H151.249L150.769 163H149.449L151.729 156.26H153.359L155.639 163H154.279Z" fill="#DA011C"/>
<g filter="url(#filter1_d_1124_4113)">
<rect x="71" y="228" width="120" height="24" rx="8" fill="#FF1934" shape-rendering="crispEdges"/>
<path d="M125.942 239.288C125.942 238.451 126.171 237.779 126.63 237.272C127.094 236.765 127.712 236.512 128.486 236.512C129.27 236.512 129.891 236.765 130.35 237.272C130.808 237.773 131.038 238.445 131.038 239.288C131.038 240.12 130.806 240.789 130.342 241.296C129.883 241.803 129.267 242.056 128.494 242.056C127.72 242.056 127.102 241.803 126.638 241.296C126.174 240.789 125.942 240.12 125.942 239.288ZM127.022 239.288C127.022 239.853 127.155 240.301 127.422 240.632C127.688 240.963 128.046 241.128 128.494 241.128C128.947 241.128 129.304 240.965 129.566 240.64C129.827 240.309 129.958 239.859 129.958 239.288C129.958 238.717 129.827 238.267 129.566 237.936C129.304 237.605 128.944 237.44 128.486 237.44C128.032 237.44 127.675 237.605 127.414 237.936C127.152 238.267 127.022 238.717 127.022 239.288ZM131.939 242L131.939 236.608L132.947 236.608L132.947 242L131.939 242ZM134.227 239.312L136.235 242L134.963 242L133.027 239.328L134.891 236.608L136.099 236.608L134.227 239.312Z" fill="white"/>
</g>
<defs>
<filter id="filter0_d_1124_4113" x="-4" y="-2" width="270" height="56" filterUnits="userSpaceOnUse" color-interpolation-filters="sRGB">
<feFlood flood-opacity="0" result="BackgroundImageFix"/>
<feColorMatrix in="SourceAlpha" type="matrix" values="0 0 0 0 0 0 0 0 0 0 0 0 0 0 0 0 0 0 127 0" result="hardAlpha"/>
<feOffset dy="2"/>
<feGaussianBlur stdDeviation="2"/>
<feComposite in2="hardAlpha" operator="out"/>
<feColorMatrix type="matrix" values="0 0 0 0 0.168627 0 0 0 0 0.168627 0 0 0 0 0.168627 0 0 0 0.24 0"/>
<feBlend mode="normal" in2="BackgroundImageFix" result="effect1_dropShadow_1124_4113"/>
<feBlend mode="normal" in="SourceGraphic" in2="effect1_dropShadow_1124_4113" result="shape"/>
</filter>
<filter id="filter1_d_1124_4113" x="65" y="222" width="136" height="40" filterUnits="userSpaceOnUse" color-interpolation-filters="sRGB">
<feFlood flood-opacity="0" result="BackgroundImageFix"/>
<feColorMatrix in="SourceAlpha" type="matrix" values="0 0 0 0 0 0 0 0 0 0 0 0 0 0 0 0 0 0 127 0" result="hardAlpha"/>
<feOffset dx="2" dy="2"/>
<feGaussianBlur stdDeviation="4"/>
<feComposite in2="hardAlpha" operator="out"/>
<feColorMatrix type="matrix" values="0 0 0 0 0 0 0 0 0 0 0 0 0 0 0 0 0 0 0.12 0"/>
<feBlend mode="normal" in2="BackgroundImageFix" result="effect1_dropShadow_1124_4113"/>
<feBlend mode="normal" in="SourceGraphic" in2="effect1_dropShadow_1124_4113" result="shape"/>
</filter>
<clipPath id="clip0_1124_4113">
<rect width="24" height="24" fill="white" transform="translate(16 16)"/>
</clipPath>
<clipPath id="clip1_1124_4113">
<rect width="64" height="64" fill="white" transform="translate(99 72)"/>
</clipPath>
</defs>
</svg>
