<svg width="338" height="375" viewBox="0 0 338 375" fill="none" xmlns="http://www.w3.org/2000/svg">
<rect width="338" height="375" fill="#D3D3D3"/>
<rect x="9" y="50" width="320" height="265" rx="16" fill="white"/>
<g filter="url(#filter0_d_1124_4113)">
<path d="M9 66C9 57.1634 16.1634 50 25 50H313C321.837 50 329 57.1634 329 66V98H9V66Z" fill="#FF1934" shape-rendering="crispEdges"/>
<g clip-path="url(#clip0_1124_4113)">
<path fill-rule="evenodd" clip-rule="evenodd" d="M27 78C27 72.49 31.49 68 37 68C42.51 68 47 72.49 47 78C47 83.51 42.51 88 37 88C31.49 88 27 83.51 27 78ZM28.6 78C28.6 82.63 32.37 86.4 37 86.4C41.63 86.4 45.4 82.63 45.4 78C45.4 73.37 41.63 69.6 37 69.6C32.37 69.6 28.6 73.37 28.6 78ZM32.2 78C32.2 77.56 32.56 77.2 33 77.2H41C41.44 77.2 41.8 77.56 41.8 78C41.8 78.44 41.44 78.8 41 78.8H33C32.56 78.8 32.2 78.44 32.2 78Z" fill="white"/>
</g>
<path d="M63.034 72.704H64.63L65.554 76.036C65.75 76.736 65.9227 77.3893 66.072 77.996C66.2307 78.5933 66.338 79.018 66.394 79.27L66.478 79.648C66.5993 78.8173 66.8607 77.6087 67.262 76.022L68.13 72.564H70.328L67.808 82H65.4L64.574 79.018C64.378 78.2993 64.2147 77.6927 64.084 77.198C63.9627 76.7033 63.888 76.386 63.86 76.246L63.832 76.036C63.804 76.4187 63.552 77.4127 63.076 79.018L62.208 82H59.8L57.266 72.564H59.534L60.402 76.036C60.5887 76.7827 60.7427 77.4593 60.864 78.066C60.9853 78.6633 61.06 79.0787 61.088 79.312L61.144 79.648C61.3027 78.92 61.62 77.716 62.096 76.036L63.034 72.704ZM74.9438 79.088H74.2858C73.9405 79.088 73.6745 79.1627 73.4878 79.312C73.3012 79.4613 73.2078 79.6527 73.2078 79.886C73.2078 80.362 73.4832 80.6 74.0338 80.6C74.3232 80.6 74.5472 80.5113 74.7058 80.334C74.8645 80.1567 74.9438 79.914 74.9438 79.606V79.088ZM71.6258 77.086V75.252C72.1858 74.9347 72.9932 74.776 74.0478 74.776C75.0558 74.776 75.8072 74.9953 76.3018 75.434C76.7965 75.8633 77.0438 76.5353 77.0438 77.45V82H75.0418V81.132C74.7432 81.7387 74.1552 82.042 73.2778 82.042C72.5872 82.042 72.0458 81.846 71.6538 81.454C71.2712 81.062 71.0798 80.572 71.0798 79.984C71.0798 79.3027 71.3272 78.7753 71.8218 78.402C72.3258 78.0193 73.0678 77.828 74.0478 77.828H74.9438V77.338C74.9438 76.7407 74.5472 76.442 73.7538 76.442C72.9885 76.442 72.2792 76.6567 71.6258 77.086ZM85.3266 82H82.9606L80.6926 78.514V82H78.6486V72.34H80.6926V78.08L82.9326 74.902H85.2846L82.8206 78.304L85.3266 82ZM88.6845 76.4V79.662C88.6845 79.914 88.7545 80.1053 88.8945 80.236C89.0438 80.3667 89.2352 80.432 89.4685 80.432C89.8418 80.432 90.1732 80.3387 90.4625 80.152V81.846C90.1172 81.9953 89.6505 82.07 89.0625 82.07C87.4478 82.07 86.6405 81.2627 86.6405 79.648V76.4H85.6185V74.902H86.6405V73.222H88.6845V74.902H90.3365V76.4H88.6845ZM96.1149 74.902H98.1589V82H96.1149V80.866C95.7416 81.6593 95.0229 82.056 93.9589 82.056C93.2309 82.056 92.6616 81.8553 92.2509 81.454C91.8496 81.0433 91.6489 80.4413 91.6489 79.648V74.902H93.6929V79.186C93.6929 80.0167 94.0569 80.432 94.7849 80.432C95.6716 80.432 96.1149 79.8393 96.1149 78.654V74.902ZM101.884 74.902V76.106C102.061 75.714 102.332 75.406 102.696 75.182C103.069 74.9487 103.513 74.832 104.026 74.832C104.754 74.832 105.323 75.0513 105.734 75.49C106.145 75.9193 106.35 76.554 106.35 77.394V82H104.306V77.772C104.306 77.352 104.208 77.0347 104.012 76.82C103.816 76.596 103.541 76.484 103.186 76.484C102.813 76.484 102.5 76.6333 102.248 76.932C102.005 77.2213 101.884 77.66 101.884 78.248V82H99.84V74.902H101.884ZM109.935 81.888L107.191 74.902H109.417L110.187 77.114C110.383 77.6833 110.542 78.1733 110.663 78.584C110.794 78.9947 110.873 79.2653 110.901 79.396L110.943 79.592C111.046 79.2187 111.298 78.3927 111.699 77.114L112.399 74.902H114.499L111.937 81.79C111.2 83.778 110.075 84.772 108.563 84.772C108.274 84.772 108.012 84.7487 107.779 84.702V83.078C107.928 83.1153 108.087 83.134 108.255 83.134C109.03 83.134 109.59 82.7187 109.935 81.888ZM118.926 79.088H118.268C117.923 79.088 117.657 79.1627 117.47 79.312C117.284 79.4613 117.19 79.6527 117.19 79.886C117.19 80.362 117.466 80.6 118.016 80.6C118.306 80.6 118.53 80.5113 118.688 80.334C118.847 80.1567 118.926 79.914 118.926 79.606V79.088ZM115.608 77.086V75.252C116.168 74.9347 116.976 74.776 118.03 74.776C119.038 74.776 119.79 74.9953 120.284 75.434C120.779 75.8633 121.026 76.5353 121.026 77.45V82H119.024V81.132C118.726 81.7387 118.138 82.042 117.26 82.042C116.57 82.042 116.028 81.846 115.636 81.454C115.254 81.062 115.062 80.572 115.062 79.984C115.062 79.3027 115.31 78.7753 115.804 78.402C116.308 78.0193 117.05 77.828 118.03 77.828H118.926V77.338C118.926 76.7407 118.53 76.442 117.736 76.442C116.971 76.442 116.262 76.6567 115.608 77.086ZM128.357 80.278H129.491C130.555 80.278 131.087 79.914 131.087 79.186C131.087 78.458 130.56 78.094 129.505 78.094H128.357V80.278ZM128.357 74.286V76.4H129.155C129.715 76.4 130.135 76.2973 130.415 76.092C130.704 75.8867 130.849 75.616 130.849 75.28C130.849 74.6173 130.401 74.286 129.505 74.286H128.357ZM126.201 72.564H129.869C130.905 72.564 131.694 72.8113 132.235 73.306C132.776 73.7913 133.047 74.412 133.047 75.168C133.047 75.6627 132.916 76.0967 132.655 76.47C132.394 76.8433 132.053 77.0953 131.633 77.226C132.725 77.5527 133.271 78.29 133.271 79.438C133.271 80.1847 133 80.8007 132.459 81.286C131.927 81.762 131.199 82 130.275 82H126.201V72.564ZM138.71 77.8V77.632C138.644 76.8013 138.28 76.386 137.618 76.386C137.291 76.386 137.002 76.5073 136.75 76.75C136.498 76.9833 136.33 77.3333 136.246 77.8H138.71ZM140.18 79.886V81.594C139.694 81.9113 138.952 82.07 137.954 82.07C136.787 82.07 135.877 81.734 135.224 81.062C134.58 80.3807 134.258 79.508 134.258 78.444C134.258 77.3147 134.57 76.4327 135.196 75.798C135.83 75.154 136.61 74.832 137.534 74.832C138.486 74.832 139.237 75.112 139.788 75.672C140.338 76.2227 140.614 77.0487 140.614 78.15C140.614 78.3647 140.576 78.7333 140.502 79.256H136.33C136.47 79.648 136.712 79.9513 137.058 80.166C137.403 80.3807 137.818 80.488 138.304 80.488C139.022 80.488 139.648 80.2873 140.18 79.886ZM144.102 74.902V76.218C144.233 75.8073 144.448 75.4807 144.746 75.238C145.054 74.986 145.409 74.86 145.81 74.86C146.034 74.86 146.212 74.8787 146.342 74.916V76.848C146.118 76.7453 145.862 76.694 145.572 76.694C145.134 76.694 144.779 76.8573 144.508 77.184C144.238 77.5013 144.102 77.926 144.102 78.458V82H142.058L142.072 74.902H144.102ZM147.324 82V72.102H149.368V82H147.324ZM151.193 82V74.902H153.237V82H151.193ZM151.375 73.684C151.142 73.4507 151.025 73.1707 151.025 72.844C151.025 72.5173 151.142 72.2373 151.375 72.004C151.609 71.7707 151.889 71.654 152.215 71.654C152.542 71.654 152.822 71.7707 153.055 72.004C153.289 72.2373 153.405 72.5173 153.405 72.844C153.405 73.1707 153.289 73.4507 153.055 73.684C152.822 73.9173 152.542 74.034 152.215 74.034C151.889 74.034 151.609 73.9173 151.375 73.684ZM158.604 80.376C159.034 80.376 159.398 80.2033 159.696 79.858C159.995 79.5033 160.144 79.0413 160.144 78.472C160.144 77.856 159.995 77.3753 159.696 77.03C159.407 76.6847 159.048 76.512 158.618 76.512C158.189 76.512 157.816 76.6753 157.498 77.002C157.19 77.3287 157.036 77.786 157.036 78.374C157.036 78.9807 157.181 79.466 157.47 79.83C157.76 80.194 158.138 80.376 158.604 80.376ZM157.036 72.102V75.994C157.522 75.21 158.226 74.818 159.15 74.818C160.037 74.818 160.77 75.14 161.348 75.784C161.927 76.428 162.216 77.31 162.216 78.43C162.216 79.4287 161.936 80.2873 161.376 81.006C160.826 81.7247 160.088 82.084 159.164 82.084C158.222 82.084 157.512 81.6873 157.036 80.894V82H154.992V72.102H157.036ZM167.947 74.902H169.991V82H167.947V80.866C167.574 81.6593 166.855 82.056 165.791 82.056C165.063 82.056 164.494 81.8553 164.083 81.454C163.682 81.0433 163.481 80.4413 163.481 79.648V74.902H165.525V79.186C165.525 80.0167 165.889 80.432 166.617 80.432C167.504 80.432 167.947 79.8393 167.947 78.654V74.902ZM173.702 74.902V76.218C173.833 75.8073 174.047 75.4807 174.346 75.238C174.654 74.986 175.009 74.86 175.41 74.86C175.634 74.86 175.811 74.8787 175.942 74.916V76.848C175.718 76.7453 175.461 76.694 175.172 76.694C174.733 76.694 174.379 76.8573 174.108 77.184C173.837 77.5013 173.702 77.926 173.702 78.458V82H171.658L171.672 74.902H173.702Z" fill="white"/>
</g>
<g clip-path="url(#clip1_1124_4113)">
<path d="M91.0447 153.005L92.5736 152.582L91.6066 152.431L89.6476 152.973C85.1996 152.984 81.46 154.072 80.326 155.552L75.9381 156.766C68.3458 155.592 61.3084 154.84 61.3084 154.84C57.3743 157.554 67.1887 159.396 67.1887 159.396C67.1887 159.396 75.9484 160.528 85.8773 159.732C87.0549 159.914 88.3522 160.016 89.7148 160.016C95.0952 160.016 99.4568 158.439 99.4568 156.494C99.4568 154.712 95.796 153.24 91.0453 153.005H91.0447ZM76.9052 156.917L80.0501 156.047C79.9989 156.193 79.972 156.342 79.972 156.494C79.972 156.84 80.1103 157.174 80.3676 157.489C79.277 157.302 78.1186 157.109 76.9052 156.917Z" fill="#F1F1F1"/>
<path d="M70.4838 122.338L69.5166 123.065L91.6058 152.432L92.573 151.705L70.4838 122.338Z" fill="#D9AA16"/>
<path d="M67.1887 118.963C67.1887 118.963 57.3743 127.815 61.3084 140.857C61.3084 140.857 68.6479 137.087 76.4226 131.239C84.1973 125.391 89.8549 119.384 89.8549 119.384C78.4156 111.989 67.1887 118.963 67.1887 118.963Z" fill="#FF1934"/>
<path d="M63.4365 123.808C61.0416 129.3 62.081 136.354 62.8919 140.003C64.6205 139.044 67.6112 137.316 71.0839 135.009C65.8186 125.037 67.1888 118.963 67.1888 118.963C67.1888 118.963 65.2464 120.715 63.4365 123.808V123.808Z" fill="#D9AA16"/>
<path d="M72.8838 116.701C78.8243 115.923 85.3139 118.878 88.5946 120.668C87.1942 122.064 84.704 124.457 81.5251 127.154C73.4042 119.33 67.1885 118.962 67.1885 118.962C67.1885 118.962 69.4106 117.582 72.8845 116.7L72.8838 116.701Z" fill="#D9AA16"/>
<path d="M89.7142 154.208C95.0947 154.208 99.4563 149.846 99.4563 144.466C99.4563 139.085 95.0947 134.724 89.7142 134.724C84.3338 134.724 79.9722 139.085 79.9722 144.466C79.9722 149.846 84.3338 154.208 89.7142 154.208Z" fill="#D9AA16"/>
<path d="M89.7142 134.724C86.4764 134.724 83.6079 136.304 81.8364 138.734C83.3571 139.204 85.2214 139.921 86.783 140.946C86.783 140.946 88.2985 136.13 93.3532 135.427C92.2287 134.974 91.0006 134.724 89.7142 134.724Z" fill="#FF1934"/>
<path d="M83.0474 151.567C84.7901 153.204 87.135 154.207 89.7142 154.207C94.2262 154.207 98.0208 151.139 99.1286 146.976C93.8314 145.783 86.783 140.945 86.783 140.945C84.4842 144.632 83.4762 148.931 83.0474 151.567V151.567Z" fill="#FF1934"/>
<path d="M86.7832 143.278C88.0708 143.278 89.1147 142.234 89.1147 140.947C89.1147 139.659 88.0708 138.615 86.7832 138.615C85.4955 138.615 84.4517 139.659 84.4517 140.947C84.4517 142.234 85.4955 143.278 86.7832 143.278Z" fill="#F1F1F1"/>
</g>
<path d="M120.73 125V118.26H121.95L123.61 121.08C123.917 121.607 124.193 122.093 124.44 122.54C124.693 122.987 124.867 123.3 124.96 123.48L125.1 123.76C125.06 123.153 125.04 122.263 125.04 121.09V118.26H126.07V125H124.85L123.18 122.19C122.88 121.683 122.603 121.207 122.35 120.76C122.103 120.307 121.93 119.98 121.83 119.78L121.68 119.49C121.733 120.157 121.76 121.053 121.76 122.18V125H120.73ZM127.527 125V119.93H128.517V125H127.527ZM127.577 118.82C127.464 118.7 127.407 118.553 127.407 118.38C127.407 118.207 127.464 118.06 127.577 117.94C127.697 117.82 127.844 117.76 128.017 117.76C128.19 117.76 128.337 117.82 128.457 117.94C128.577 118.06 128.637 118.207 128.637 118.38C128.637 118.547 128.577 118.69 128.457 118.81C128.337 118.93 128.19 118.99 128.017 118.99C127.844 118.99 127.697 118.933 127.577 118.82ZM129.938 125V118H130.918V125H129.938ZM132.088 122.35L134.078 125H132.908L130.958 122.35L132.868 119.93H134.018L132.088 122.35ZM135.918 119.93V120.74C136.205 120.153 136.681 119.86 137.348 119.86C138.108 119.86 138.595 120.187 138.808 120.84C138.948 120.527 139.151 120.287 139.418 120.12C139.685 119.947 139.985 119.86 140.318 119.86C140.838 119.86 141.231 120.013 141.498 120.32C141.771 120.627 141.908 121.05 141.908 121.59V125H140.928V121.8C140.928 121.073 140.635 120.71 140.048 120.71C139.755 120.71 139.491 120.84 139.258 121.1C139.031 121.36 138.918 121.743 138.918 122.25V125H137.938V121.8C137.938 121.073 137.641 120.71 137.048 120.71C136.761 120.71 136.501 120.84 136.268 121.1C136.035 121.36 135.918 121.743 135.918 122.25V125H134.938V119.93H135.918ZM145.909 122.74H145.149C144.775 122.74 144.492 122.813 144.299 122.96C144.112 123.107 144.019 123.293 144.019 123.52C144.019 123.753 144.092 123.937 144.239 124.07C144.385 124.203 144.599 124.27 144.879 124.27C145.199 124.27 145.449 124.183 145.629 124.01C145.815 123.83 145.909 123.597 145.909 123.31V122.74ZM143.359 121.14V120.19C143.752 119.963 144.272 119.85 144.919 119.85C146.245 119.85 146.909 120.493 146.909 121.78V125H145.939V124.4C145.679 124.827 145.222 125.04 144.569 125.04C144.089 125.04 143.702 124.903 143.409 124.63C143.122 124.35 142.979 123.997 142.979 123.57C142.979 123.083 143.162 122.707 143.529 122.44C143.895 122.167 144.409 122.03 145.069 122.03H145.909V121.74C145.909 121.393 145.825 121.133 145.659 120.96C145.492 120.78 145.215 120.69 144.829 120.69C144.289 120.69 143.799 120.84 143.359 121.14ZM149.499 120.69V123.48C149.499 123.967 149.732 124.21 150.199 124.21C150.472 124.21 150.702 124.137 150.889 123.99V124.87C150.669 124.99 150.399 125.05 150.079 125.05C149.032 125.05 148.509 124.52 148.509 123.46V120.69H147.719V119.93H148.509V118.69H149.499V119.93H150.829V120.69H149.499ZM152.009 125V119.93H152.999V125H152.009ZM152.059 118.82C151.946 118.7 151.889 118.553 151.889 118.38C151.889 118.207 151.946 118.06 152.059 117.94C152.179 117.82 152.326 117.76 152.499 117.76C152.673 117.76 152.819 117.82 152.939 117.94C153.059 118.06 153.119 118.207 153.119 118.38C153.119 118.547 153.059 118.69 152.939 118.81C152.819 118.93 152.673 118.99 152.499 118.99C152.326 118.99 152.179 118.933 152.059 118.82ZM157.951 124.09H160.711V125H156.921V118.26H157.951V124.09ZM161.726 125V119.93H162.716V125H161.726ZM161.776 118.82C161.663 118.7 161.606 118.553 161.606 118.38C161.606 118.207 161.663 118.06 161.776 117.94C161.896 117.82 162.043 117.76 162.216 117.76C162.389 117.76 162.536 117.82 162.656 117.94C162.776 118.06 162.836 118.207 162.836 118.38C162.836 118.547 162.776 118.69 162.656 118.81C162.536 118.93 162.389 118.99 162.216 118.99C162.043 118.99 161.896 118.933 161.776 118.82ZM166.527 124.21C166.901 124.21 167.214 124.053 167.467 123.74C167.721 123.42 167.847 123.01 167.847 122.51C167.847 121.937 167.721 121.497 167.467 121.19C167.214 120.877 166.891 120.72 166.497 120.72C166.151 120.72 165.837 120.86 165.557 121.14C165.284 121.42 165.147 121.85 165.147 122.43C165.147 123.03 165.281 123.477 165.547 123.77C165.814 124.063 166.141 124.21 166.527 124.21ZM165.147 117.93V120.7C165.507 120.14 166.017 119.86 166.677 119.86C167.317 119.86 167.841 120.1 168.247 120.58C168.654 121.06 168.857 121.697 168.857 122.49C168.857 123.203 168.664 123.813 168.277 124.32C167.891 124.82 167.361 125.07 166.687 125.07C166.014 125.07 165.501 124.79 165.147 124.23V125H164.157V117.93H165.147ZM173.108 119.93H174.088V125H173.108V124.13C172.841 124.75 172.314 125.06 171.528 125.06C171.028 125.06 170.631 124.913 170.338 124.62C170.044 124.32 169.898 123.91 169.898 123.39V119.93H170.888V123.15C170.888 123.497 170.971 123.763 171.138 123.95C171.311 124.13 171.548 124.22 171.848 124.22C172.228 124.22 172.531 124.087 172.758 123.82C172.991 123.553 173.108 123.177 173.108 122.69V119.93ZM176.445 119.93V120.82C176.692 120.193 177.135 119.88 177.775 119.88C177.869 119.88 177.972 119.89 178.085 119.91V120.87C177.945 120.81 177.789 120.78 177.615 120.78C177.275 120.78 176.995 120.93 176.775 121.23C176.555 121.53 176.445 121.887 176.445 122.3V125H175.465V119.93H176.445ZM181.524 122.74H180.764C180.391 122.74 180.107 122.813 179.914 122.96C179.727 123.107 179.634 123.293 179.634 123.52C179.634 123.753 179.707 123.937 179.854 124.07C180.001 124.203 180.214 124.27 180.494 124.27C180.814 124.27 181.064 124.183 181.244 124.01C181.431 123.83 181.524 123.597 181.524 123.31V122.74ZM178.974 121.14V120.19C179.367 119.963 179.887 119.85 180.534 119.85C181.861 119.85 182.524 120.493 182.524 121.78V125H181.554V124.4C181.294 124.827 180.837 125.04 180.184 125.04C179.704 125.04 179.317 124.903 179.024 124.63C178.737 124.35 178.594 123.997 178.594 123.57C178.594 123.083 178.777 122.707 179.144 122.44C179.511 122.167 180.024 122.03 180.684 122.03H181.524V121.74C181.524 121.393 181.441 121.133 181.274 120.96C181.107 120.78 180.831 120.69 180.444 120.69C179.904 120.69 179.414 120.84 178.974 121.14ZM184.824 119.93V120.8C185.124 120.173 185.651 119.86 186.404 119.86C186.904 119.86 187.301 120.013 187.594 120.32C187.888 120.627 188.034 121.043 188.034 121.57V125H187.054V121.8C187.054 121.447 186.964 121.177 186.784 120.99C186.611 120.803 186.378 120.71 186.084 120.71C185.738 120.71 185.441 120.847 185.194 121.12C184.948 121.387 184.824 121.763 184.824 122.25V125H183.844V119.93H184.824ZM193.343 122.49H195.503L195.393 122.15C195.14 121.363 194.933 120.713 194.773 120.2C194.613 119.68 194.516 119.357 194.483 119.23L194.433 119.04C194.36 119.353 194.033 120.39 193.453 122.15L193.343 122.49ZM196.313 125L195.783 123.35H193.063L192.523 125H191.433L193.763 118.26H195.113L197.413 125H196.313ZM199.395 119.93V120.8C199.695 120.173 200.221 119.86 200.975 119.86C201.475 119.86 201.871 120.013 202.165 120.32C202.458 120.627 202.605 121.043 202.605 121.57V125H201.625V121.8C201.625 121.447 201.535 121.177 201.355 120.99C201.181 120.803 200.948 120.71 200.655 120.71C200.308 120.71 200.011 120.847 199.765 121.12C199.518 121.387 199.395 121.763 199.395 122.25V125H198.415V119.93H199.395ZM205.972 124.21C206.359 124.21 206.686 124.063 206.952 123.77C207.219 123.477 207.352 123.03 207.352 122.43C207.352 121.85 207.212 121.42 206.932 121.14C206.659 120.86 206.349 120.72 206.002 120.72C205.609 120.72 205.286 120.877 205.032 121.19C204.779 121.497 204.652 121.937 204.652 122.51C204.652 123.017 204.776 123.427 205.022 123.74C205.276 124.053 205.592 124.21 205.972 124.21ZM207.352 117.93H208.342V125H207.352V124.23C206.999 124.79 206.482 125.07 205.802 125.07C205.136 125.07 204.609 124.82 204.222 124.32C203.836 123.813 203.642 123.203 203.642 122.49C203.642 121.697 203.846 121.06 204.252 120.58C204.659 120.1 205.182 119.86 205.822 119.86C206.482 119.86 206.992 120.14 207.352 120.7V117.93ZM212.393 122.74H211.633C211.26 122.74 210.977 122.813 210.783 122.96C210.597 123.107 210.503 123.293 210.503 123.52C210.503 123.753 210.577 123.937 210.723 124.07C210.87 124.203 211.083 124.27 211.363 124.27C211.683 124.27 211.933 124.183 212.113 124.01C212.3 123.83 212.393 123.597 212.393 123.31V122.74ZM209.843 121.14V120.19C210.237 119.963 210.757 119.85 211.403 119.85C212.73 119.85 213.393 120.493 213.393 121.78V125H212.423V124.4C212.163 124.827 211.707 125.04 211.053 125.04C210.573 125.04 210.187 124.903 209.893 124.63C209.607 124.35 209.463 123.997 209.463 123.57C209.463 123.083 209.647 122.707 210.013 122.44C210.38 122.167 210.893 122.03 211.553 122.03H212.393V121.74C212.393 121.393 212.31 121.133 212.143 120.96C211.977 120.78 211.7 120.69 211.313 120.69C210.773 120.69 210.283 120.84 209.843 121.14ZM214.853 122.86V118.26H215.813V122.86H214.853ZM214.833 124.89C214.707 124.757 214.643 124.593 214.643 124.4C214.643 124.207 214.707 124.043 214.833 123.91C214.967 123.777 215.13 123.71 215.323 123.71C215.51 123.71 215.67 123.78 215.803 123.92C215.943 124.053 216.013 124.213 216.013 124.4C216.013 124.593 215.947 124.757 215.813 124.89C215.68 125.017 215.517 125.08 215.323 125.08C215.13 125.08 214.967 125.017 214.833 124.89ZM122.22 138.49H124.38L124.27 138.15C124.017 137.363 123.81 136.713 123.65 136.2C123.49 135.68 123.393 135.357 123.36 135.23L123.31 135.04C123.237 135.353 122.91 136.39 122.33 138.15L122.22 138.49ZM125.19 141L124.66 139.35H121.94L121.4 141H120.31L122.64 134.26H123.99L126.29 141H125.19ZM128.272 135.93V136.8C128.572 136.173 129.098 135.86 129.852 135.86C130.352 135.86 130.748 136.013 131.042 136.32C131.335 136.627 131.482 137.043 131.482 137.57V141H130.502V137.8C130.502 137.447 130.412 137.177 130.232 136.99C130.058 136.803 129.825 136.71 129.532 136.71C129.185 136.71 128.888 136.847 128.642 137.12C128.395 137.387 128.272 137.763 128.272 138.25V141H127.292V135.93H128.272ZM134.849 140.21C135.236 140.21 135.563 140.063 135.829 139.77C136.096 139.477 136.229 139.03 136.229 138.43C136.229 137.85 136.089 137.42 135.809 137.14C135.536 136.86 135.226 136.72 134.879 136.72C134.486 136.72 134.163 136.877 133.909 137.19C133.656 137.497 133.529 137.937 133.529 138.51C133.529 139.017 133.653 139.427 133.899 139.74C134.153 140.053 134.469 140.21 134.849 140.21ZM136.229 133.93H137.219V141H136.229V140.23C135.876 140.79 135.359 141.07 134.679 141.07C134.013 141.07 133.486 140.82 133.099 140.32C132.713 139.813 132.519 139.203 132.519 138.49C132.519 137.697 132.723 137.06 133.129 136.58C133.536 136.1 134.059 135.86 134.699 135.86C135.359 135.86 135.869 136.14 136.229 136.7V133.93ZM141.27 138.74H140.51C140.137 138.74 139.853 138.813 139.66 138.96C139.473 139.107 139.38 139.293 139.38 139.52C139.38 139.753 139.453 139.937 139.6 140.07C139.747 140.203 139.96 140.27 140.24 140.27C140.56 140.27 140.81 140.183 140.99 140.01C141.177 139.83 141.27 139.597 141.27 139.31V138.74ZM138.72 137.14V136.19C139.113 135.963 139.633 135.85 140.28 135.85C141.607 135.85 142.27 136.493 142.27 137.78V141H141.3V140.4C141.04 140.827 140.583 141.04 139.93 141.04C139.45 141.04 139.063 140.903 138.77 140.63C138.483 140.35 138.34 139.997 138.34 139.57C138.34 139.083 138.523 138.707 138.89 138.44C139.257 138.167 139.77 138.03 140.43 138.03H141.27V137.74C141.27 137.393 141.187 137.133 141.02 136.96C140.853 136.78 140.577 136.69 140.19 136.69C139.65 136.69 139.16 136.84 138.72 137.14ZM148.391 140.21C148.785 140.21 149.108 140.057 149.361 139.75C149.615 139.437 149.741 139 149.741 138.44C149.741 137.913 149.618 137.497 149.371 137.19C149.125 136.877 148.811 136.72 148.431 136.72C148.051 136.72 147.721 136.86 147.441 137.14C147.168 137.413 147.031 137.85 147.031 138.45C147.031 139.037 147.168 139.477 147.441 139.77C147.721 140.063 148.038 140.21 148.391 140.21ZM147.031 135.93V136.71C147.378 136.143 147.898 135.86 148.591 135.86C149.258 135.86 149.785 136.103 150.171 136.59C150.558 137.07 150.751 137.683 150.751 138.43C150.751 139.197 150.551 139.83 150.151 140.33C149.758 140.823 149.231 141.07 148.571 141.07C147.898 141.07 147.385 140.79 147.031 140.23V142.94H146.051V135.93H147.031ZM155.002 138.1V137.92C154.989 137.54 154.885 137.24 154.692 137.02C154.499 136.793 154.222 136.68 153.862 136.68C153.529 136.68 153.242 136.803 153.002 137.05C152.762 137.29 152.612 137.64 152.552 138.1H155.002ZM155.632 139.85V140.73C155.259 140.943 154.765 141.05 154.152 141.05C153.365 141.05 152.739 140.813 152.272 140.34C151.805 139.867 151.572 139.247 151.572 138.48C151.572 137.667 151.785 137.03 152.212 136.57C152.639 136.103 153.182 135.87 153.842 135.87C154.489 135.87 155.002 136.073 155.382 136.48C155.762 136.88 155.952 137.46 155.952 138.22C155.952 138.427 155.932 138.643 155.892 138.87H152.562C152.629 139.31 152.815 139.647 153.122 139.88C153.429 140.113 153.815 140.23 154.282 140.23C154.822 140.23 155.272 140.103 155.632 139.85ZM158.086 135.93V136.82C158.333 136.193 158.776 135.88 159.416 135.88C159.509 135.88 159.613 135.89 159.726 135.91V136.87C159.586 136.81 159.429 136.78 159.256 136.78C158.916 136.78 158.636 136.93 158.416 137.23C158.196 137.53 158.086 137.887 158.086 138.3V141H157.106V135.93H158.086ZM162.495 140.02C162.841 140.02 163.141 139.887 163.395 139.62C163.655 139.347 163.785 138.967 163.785 138.48C163.785 137.88 163.661 137.437 163.415 137.15C163.175 136.863 162.881 136.72 162.535 136.72C162.141 136.72 161.831 136.877 161.605 137.19C161.378 137.497 161.265 137.903 161.265 138.41C161.265 138.937 161.385 139.337 161.625 139.61C161.871 139.883 162.161 140.02 162.495 140.02ZM163.785 135.93H164.765V140.57C164.765 141.35 164.541 141.937 164.095 142.33C163.655 142.73 163.088 142.93 162.395 142.93C161.741 142.93 161.191 142.82 160.745 142.6V141.61C161.171 141.89 161.688 142.03 162.295 142.03C163.288 142.03 163.785 141.54 163.785 140.56V140.04C163.458 140.587 162.968 140.86 162.315 140.86C161.741 140.86 161.251 140.65 160.845 140.23C160.438 139.803 160.235 139.203 160.235 138.43C160.235 137.683 160.425 137.07 160.805 136.59C161.185 136.103 161.688 135.86 162.315 135.86C162.988 135.86 163.478 136.147 163.785 136.72V135.93ZM166.121 141V135.93H167.111V141H166.121ZM166.171 134.82C166.057 134.7 166.001 134.553 166.001 134.38C166.001 134.207 166.057 134.06 166.171 133.94C166.291 133.82 166.437 133.76 166.611 133.76C166.784 133.76 166.931 133.82 167.051 133.94C167.171 134.06 167.231 134.207 167.231 134.38C167.231 134.547 167.171 134.69 167.051 134.81C166.931 134.93 166.784 134.99 166.611 134.99C166.437 134.99 166.291 134.933 166.171 134.82ZM173.383 140.21C173.756 140.21 174.069 140.053 174.323 139.74C174.576 139.42 174.703 139.01 174.703 138.51C174.703 137.937 174.576 137.497 174.323 137.19C174.069 136.877 173.746 136.72 173.353 136.72C173.006 136.72 172.693 136.86 172.413 137.14C172.139 137.42 172.003 137.85 172.003 138.43C172.003 139.03 172.136 139.477 172.403 139.77C172.669 140.063 172.996 140.21 173.383 140.21ZM172.003 133.93V136.7C172.363 136.14 172.873 135.86 173.533 135.86C174.173 135.86 174.696 136.1 175.103 136.58C175.509 137.06 175.713 137.697 175.713 138.49C175.713 139.203 175.519 139.813 175.133 140.32C174.746 140.82 174.216 141.07 173.543 141.07C172.869 141.07 172.356 140.79 172.003 140.23V141H171.013V133.93H172.003ZM179.963 138.1V137.92C179.95 137.54 179.846 137.24 179.653 137.02C179.46 136.793 179.183 136.68 178.823 136.68C178.49 136.68 178.203 136.803 177.963 137.05C177.723 137.29 177.573 137.64 177.513 138.1H179.963ZM180.593 139.85V140.73C180.22 140.943 179.726 141.05 179.113 141.05C178.326 141.05 177.7 140.813 177.233 140.34C176.766 139.867 176.533 139.247 176.533 138.48C176.533 137.667 176.746 137.03 177.173 136.57C177.6 136.103 178.143 135.87 178.803 135.87C179.45 135.87 179.963 136.073 180.343 136.48C180.723 136.88 180.913 137.46 180.913 138.22C180.913 138.427 180.893 138.643 180.853 138.87H177.523C177.59 139.31 177.776 139.647 178.083 139.88C178.39 140.113 178.776 140.23 179.243 140.23C179.783 140.23 180.233 140.103 180.593 139.85ZM183.047 135.93V136.82C183.294 136.193 183.737 135.88 184.377 135.88C184.47 135.88 184.574 135.89 184.687 135.91V136.87C184.547 136.81 184.39 136.78 184.217 136.78C183.877 136.78 183.597 136.93 183.377 137.23C183.157 137.53 183.047 137.887 183.047 138.3V141H182.067V135.93H183.047ZM185.496 141V133.93H186.486V141H185.496ZM187.947 141V135.93H188.937V141H187.947ZM187.997 134.82C187.883 134.7 187.827 134.553 187.827 134.38C187.827 134.207 187.883 134.06 187.997 133.94C188.117 133.82 188.263 133.76 188.437 133.76C188.61 133.76 188.757 133.82 188.877 133.94C188.997 134.06 189.057 134.207 189.057 134.38C189.057 134.547 188.997 134.69 188.877 134.81C188.757 134.93 188.61 134.99 188.437 134.99C188.263 134.99 188.117 134.933 187.997 134.82ZM192.748 140.21C193.121 140.21 193.435 140.053 193.688 139.74C193.941 139.42 194.068 139.01 194.068 138.51C194.068 137.937 193.941 137.497 193.688 137.19C193.435 136.877 193.111 136.72 192.718 136.72C192.371 136.72 192.058 136.86 191.778 137.14C191.505 137.42 191.368 137.85 191.368 138.43C191.368 139.03 191.501 139.477 191.768 139.77C192.035 140.063 192.361 140.21 192.748 140.21ZM191.368 133.93V136.7C191.728 136.14 192.238 135.86 192.898 135.86C193.538 135.86 194.061 136.1 194.468 136.58C194.875 137.06 195.078 137.697 195.078 138.49C195.078 139.203 194.885 139.813 194.498 140.32C194.111 140.82 193.581 141.07 192.908 141.07C192.235 141.07 191.721 140.79 191.368 140.23V141H190.378V133.93H191.368ZM199.328 135.93H200.308V141H199.328V140.13C199.062 140.75 198.535 141.06 197.748 141.06C197.248 141.06 196.852 140.913 196.558 140.62C196.265 140.32 196.118 139.91 196.118 139.39V135.93H197.108V139.15C197.108 139.497 197.192 139.763 197.358 139.95C197.532 140.13 197.768 140.22 198.068 140.22C198.448 140.22 198.752 140.087 198.978 139.82C199.212 139.553 199.328 139.177 199.328 138.69V135.93ZM202.666 135.93V136.82C202.913 136.193 203.356 135.88 203.996 135.88C204.089 135.88 204.193 135.89 204.306 135.91V136.87C204.166 136.81 204.009 136.78 203.836 136.78C203.496 136.78 203.216 136.93 202.996 137.23C202.776 137.53 202.666 137.887 202.666 138.3V141H201.686V135.93H202.666ZM209.586 140.21C209.972 140.21 210.299 140.063 210.566 139.77C210.832 139.477 210.966 139.03 210.966 138.43C210.966 137.85 210.826 137.42 210.546 137.14C210.272 136.86 209.962 136.72 209.616 136.72C209.222 136.72 208.899 136.877 208.646 137.19C208.392 137.497 208.266 137.937 208.266 138.51C208.266 139.017 208.389 139.427 208.636 139.74C208.889 140.053 209.206 140.21 209.586 140.21ZM210.966 133.93H211.956V141H210.966V140.23C210.612 140.79 210.096 141.07 209.416 141.07C208.749 141.07 208.222 140.82 207.836 140.32C207.449 139.813 207.256 139.203 207.256 138.49C207.256 137.697 207.459 137.06 207.866 136.58C208.272 136.1 208.796 135.86 209.436 135.86C210.096 135.86 210.606 136.14 210.966 136.7V133.93ZM216.006 138.74H215.246C214.873 138.74 214.59 138.813 214.396 138.96C214.21 139.107 214.116 139.293 214.116 139.52C214.116 139.753 214.19 139.937 214.336 140.07C214.483 140.203 214.696 140.27 214.976 140.27C215.296 140.27 215.546 140.183 215.726 140.01C215.913 139.83 216.006 139.597 216.006 139.31V138.74ZM213.456 137.14V136.19C213.85 135.963 214.37 135.85 215.016 135.85C216.343 135.85 217.006 136.493 217.006 137.78V141H216.036V140.4C215.776 140.827 215.32 141.04 214.666 141.04C214.186 141.04 213.8 140.903 213.506 140.63C213.22 140.35 213.076 139.997 213.076 139.57C213.076 139.083 213.26 138.707 213.626 138.44C213.993 138.167 214.506 138.03 215.166 138.03H216.006V137.74C216.006 137.393 215.923 137.133 215.756 136.96C215.59 136.78 215.313 136.69 214.926 136.69C214.386 136.69 213.896 136.84 213.456 137.14ZM219.307 135.93V136.8C219.607 136.173 220.133 135.86 220.887 135.86C221.387 135.86 221.783 136.013 222.077 136.32C222.37 136.627 222.517 137.043 222.517 137.57V141H221.537V137.8C221.537 137.447 221.447 137.177 221.267 136.99C221.093 136.803 220.86 136.71 220.567 136.71C220.22 136.71 219.923 136.847 219.677 137.12C219.43 137.387 219.307 137.763 219.307 138.25V141H218.327V135.93H219.307ZM227.275 135.93V136.74C227.562 136.153 228.039 135.86 228.705 135.86C229.465 135.86 229.952 136.187 230.165 136.84C230.305 136.527 230.509 136.287 230.775 136.12C231.042 135.947 231.342 135.86 231.675 135.86C232.195 135.86 232.589 136.013 232.855 136.32C233.129 136.627 233.265 137.05 233.265 137.59V141H232.285V137.8C232.285 137.073 231.992 136.71 231.405 136.71C231.112 136.71 230.849 136.84 230.615 137.1C230.389 137.36 230.275 137.743 230.275 138.25V141H229.295V137.8C229.295 137.073 228.999 136.71 228.405 136.71C228.119 136.71 227.859 136.84 227.625 137.1C227.392 137.36 227.275 137.743 227.275 138.25V141H226.295V135.93H227.275ZM237.746 138.1V137.92C237.733 137.54 237.63 137.24 237.436 137.02C237.243 136.793 236.966 136.68 236.606 136.68C236.273 136.68 235.986 136.803 235.746 137.05C235.506 137.29 235.356 137.64 235.296 138.1H237.746ZM238.376 139.85V140.73C238.003 140.943 237.51 141.05 236.896 141.05C236.11 141.05 235.483 140.813 235.016 140.34C234.55 139.867 234.316 139.247 234.316 138.48C234.316 137.667 234.53 137.03 234.956 136.57C235.383 136.103 235.926 135.87 236.586 135.87C237.233 135.87 237.746 136.073 238.126 136.48C238.506 136.88 238.696 137.46 238.696 138.22C238.696 138.427 238.676 138.643 238.636 138.87H235.306C235.373 139.31 235.56 139.647 235.866 139.88C236.173 140.113 236.56 140.23 237.026 140.23C237.566 140.23 238.016 140.103 238.376 139.85ZM240.83 135.93V136.8C241.13 136.173 241.657 135.86 242.41 135.86C242.91 135.86 243.307 136.013 243.6 136.32C243.893 136.627 244.04 137.043 244.04 137.57V141H243.06V137.8C243.06 137.447 242.97 137.177 242.79 136.99C242.617 136.803 242.383 136.71 242.09 136.71C241.743 136.71 241.447 136.847 241.2 137.12C240.953 137.387 240.83 137.763 240.83 138.25V141H239.85V135.93H240.83ZM247.358 140.02C247.705 140.02 248.005 139.887 248.258 139.62C248.518 139.347 248.648 138.967 248.648 138.48C248.648 137.88 248.525 137.437 248.278 137.15C248.038 136.863 247.745 136.72 247.398 136.72C247.005 136.72 246.695 136.877 246.468 137.19C246.241 137.497 246.128 137.903 246.128 138.41C246.128 138.937 246.248 139.337 246.488 139.61C246.735 139.883 247.025 140.02 247.358 140.02ZM248.648 135.93H249.628V140.57C249.628 141.35 249.405 141.937 248.958 142.33C248.518 142.73 247.951 142.93 247.258 142.93C246.605 142.93 246.055 142.82 245.608 142.6V141.61C246.035 141.89 246.551 142.03 247.158 142.03C248.151 142.03 248.648 141.54 248.648 140.56V140.04C248.321 140.587 247.831 140.86 247.178 140.86C246.605 140.86 246.115 140.65 245.708 140.23C245.301 139.803 245.098 139.203 245.098 138.43C245.098 137.683 245.288 137.07 245.668 136.59C246.048 136.103 246.551 135.86 247.178 135.86C247.851 135.86 248.341 136.147 248.648 136.72V135.93ZM251.924 133.93V136.8C252.211 136.173 252.734 135.86 253.494 135.86C253.987 135.86 254.384 136.013 254.684 136.32C254.984 136.627 255.134 137.053 255.134 137.6V141H254.154V137.8C254.154 137.453 254.064 137.187 253.884 137C253.711 136.807 253.481 136.71 253.194 136.71C252.861 136.71 252.564 136.837 252.304 137.09C252.051 137.343 251.924 137.73 251.924 138.25V141H250.944V133.93H251.924ZM259.122 138.74H258.362C257.988 138.74 257.705 138.813 257.512 138.96C257.325 139.107 257.232 139.293 257.232 139.52C257.232 139.753 257.305 139.937 257.452 140.07C257.598 140.203 257.812 140.27 258.092 140.27C258.412 140.27 258.662 140.183 258.842 140.01C259.028 139.83 259.122 139.597 259.122 139.31V138.74ZM256.572 137.14V136.19C256.965 135.963 257.485 135.85 258.132 135.85C259.458 135.85 260.122 136.493 260.122 137.78V141H259.152V140.4C258.892 140.827 258.435 141.04 257.782 141.04C257.302 141.04 256.915 140.903 256.622 140.63C256.335 140.35 256.192 139.997 256.192 139.57C256.192 139.083 256.375 138.707 256.742 138.44C257.108 138.167 257.622 138.03 258.282 138.03H259.122V137.74C259.122 137.393 259.038 137.133 258.872 136.96C258.705 136.78 258.428 136.69 258.042 136.69C257.502 136.69 257.012 136.84 256.572 137.14ZM263.832 140.21C264.205 140.21 264.519 140.053 264.772 139.74C265.025 139.42 265.152 139.01 265.152 138.51C265.152 137.937 265.025 137.497 264.772 137.19C264.519 136.877 264.195 136.72 263.802 136.72C263.455 136.72 263.142 136.86 262.862 137.14C262.589 137.42 262.452 137.85 262.452 138.43C262.452 139.03 262.585 139.477 262.852 139.77C263.119 140.063 263.445 140.21 263.832 140.21ZM262.452 133.93V136.7C262.812 136.14 263.322 135.86 263.982 135.86C264.622 135.86 265.145 136.1 265.552 136.58C265.959 137.06 266.162 137.697 266.162 138.49C266.162 139.203 265.969 139.813 265.582 140.32C265.195 140.82 264.665 141.07 263.992 141.07C263.319 141.07 262.805 140.79 262.452 140.23V141H261.462V133.93H262.452ZM267.302 141V135.93H268.292V141H267.302ZM267.352 134.82C267.239 134.7 267.182 134.553 267.182 134.38C267.182 134.207 267.239 134.06 267.352 133.94C267.472 133.82 267.619 133.76 267.792 133.76C267.966 133.76 268.112 133.82 268.232 133.94C268.352 134.06 268.412 134.207 268.412 134.38C268.412 134.547 268.352 134.69 268.232 134.81C268.112 134.93 267.966 134.99 267.792 134.99C267.619 134.99 267.472 134.933 267.352 134.82ZM272.603 136.1V136.99C272.277 136.797 271.857 136.7 271.343 136.7C271.11 136.7 270.923 136.753 270.783 136.86C270.65 136.967 270.583 137.107 270.583 137.28C270.583 137.327 270.587 137.373 270.593 137.42C270.607 137.46 270.627 137.503 270.653 137.55C270.68 137.59 270.703 137.627 270.723 137.66C270.75 137.687 270.79 137.717 270.843 137.75C270.897 137.783 270.937 137.813 270.963 137.84C270.997 137.86 271.047 137.887 271.113 137.92C271.187 137.953 271.24 137.98 271.273 138C271.307 138.013 271.363 138.04 271.443 138.08C271.53 138.113 271.59 138.137 271.623 138.15C272.017 138.323 272.323 138.52 272.543 138.74C272.77 138.953 272.883 139.24 272.883 139.6C272.883 140.053 272.723 140.41 272.403 140.67C272.083 140.923 271.65 141.05 271.103 141.05C270.503 141.05 270.003 140.95 269.603 140.75V139.82C270.07 140.107 270.553 140.25 271.053 140.25C271.313 140.25 271.513 140.197 271.653 140.09C271.8 139.983 271.873 139.843 271.873 139.67C271.873 139.523 271.817 139.393 271.703 139.28C271.59 139.16 271.473 139.073 271.353 139.02C271.24 138.96 271.043 138.87 270.763 138.75C269.97 138.423 269.573 137.943 269.573 137.31C269.573 136.863 269.74 136.513 270.073 136.26C270.407 136.007 270.823 135.88 271.323 135.88C271.87 135.88 272.297 135.953 272.603 136.1ZM273.903 141V134H274.883V141H273.903ZM276.053 138.35L278.043 141H276.873L274.923 138.35L276.833 135.93H277.983L276.053 138.35ZM281.573 138.74H280.813C280.44 138.74 280.156 138.813 279.963 138.96C279.776 139.107 279.683 139.293 279.683 139.52C279.683 139.753 279.756 139.937 279.903 140.07C280.05 140.203 280.263 140.27 280.543 140.27C280.863 140.27 281.113 140.183 281.293 140.01C281.48 139.83 281.573 139.597 281.573 139.31V138.74ZM279.023 137.14V136.19C279.416 135.963 279.936 135.85 280.583 135.85C281.91 135.85 282.573 136.493 282.573 137.78V141H281.603V140.4C281.343 140.827 280.886 141.04 280.233 141.04C279.753 141.04 279.366 140.903 279.073 140.63C278.786 140.35 278.643 139.997 278.643 139.57C278.643 139.083 278.826 138.707 279.193 138.44C279.56 138.167 280.073 138.03 280.733 138.03H281.573V137.74C281.573 137.393 281.49 137.133 281.323 136.96C281.156 136.78 280.88 136.69 280.493 136.69C279.953 136.69 279.463 136.84 279.023 137.14ZM284.873 135.93V136.8C285.173 136.173 285.7 135.86 286.453 135.86C286.953 135.86 287.35 136.013 287.643 136.32C287.936 136.627 288.083 137.043 288.083 137.57V141H287.103V137.8C287.103 137.447 287.013 137.177 286.833 136.99C286.66 136.803 286.426 136.71 286.133 136.71C285.786 136.71 285.49 136.847 285.243 137.12C284.996 137.387 284.873 137.763 284.873 138.25V141H283.893V135.93H284.873ZM123.84 151.93H124.82V157H123.84V156.13C123.573 156.75 123.047 157.06 122.26 157.06C121.76 157.06 121.363 156.913 121.07 156.62C120.777 156.32 120.63 155.91 120.63 155.39V151.93H121.62V155.15C121.62 155.497 121.703 155.763 121.87 155.95C122.043 156.13 122.28 156.22 122.58 156.22C122.96 156.22 123.263 156.087 123.49 155.82C123.723 155.553 123.84 155.177 123.84 154.69V151.93ZM128.868 154.74H128.108C127.734 154.74 127.451 154.813 127.258 154.96C127.071 155.107 126.978 155.293 126.978 155.52C126.978 155.753 127.051 155.937 127.198 156.07C127.344 156.203 127.558 156.27 127.838 156.27C128.158 156.27 128.408 156.183 128.588 156.01C128.774 155.83 128.868 155.597 128.868 155.31V154.74ZM126.318 153.14V152.19C126.711 151.963 127.231 151.85 127.878 151.85C129.204 151.85 129.868 152.493 129.868 153.78V157H128.898V156.4C128.638 156.827 128.181 157.04 127.528 157.04C127.048 157.04 126.661 156.903 126.368 156.63C126.081 156.35 125.938 155.997 125.938 155.57C125.938 155.083 126.121 154.707 126.488 154.44C126.854 154.167 127.368 154.03 128.028 154.03H128.868V153.74C128.868 153.393 128.784 153.133 128.618 152.96C128.451 152.78 128.174 152.69 127.788 152.69C127.248 152.69 126.758 152.84 126.318 153.14ZM132.168 151.93V152.8C132.468 152.173 132.995 151.86 133.748 151.86C134.248 151.86 134.645 152.013 134.938 152.32C135.231 152.627 135.378 153.043 135.378 153.57V157H134.398V153.8C134.398 153.447 134.308 153.177 134.128 152.99C133.955 152.803 133.721 152.71 133.428 152.71C133.081 152.71 132.785 152.847 132.538 153.12C132.291 153.387 132.168 153.763 132.168 154.25V157H131.188V151.93H132.168ZM138.696 156.02C139.043 156.02 139.343 155.887 139.596 155.62C139.856 155.347 139.986 154.967 139.986 154.48C139.986 153.88 139.863 153.437 139.616 153.15C139.376 152.863 139.083 152.72 138.736 152.72C138.343 152.72 138.033 152.877 137.806 153.19C137.579 153.497 137.466 153.903 137.466 154.41C137.466 154.937 137.586 155.337 137.826 155.61C138.073 155.883 138.363 156.02 138.696 156.02ZM139.986 151.93H140.966V156.57C140.966 157.35 140.743 157.937 140.296 158.33C139.856 158.73 139.289 158.93 138.596 158.93C137.943 158.93 137.393 158.82 136.946 158.6V157.61C137.373 157.89 137.889 158.03 138.496 158.03C139.489 158.03 139.986 157.54 139.986 156.56V156.04C139.659 156.587 139.169 156.86 138.516 156.86C137.943 156.86 137.453 156.65 137.046 156.23C136.639 155.803 136.436 155.203 136.436 154.43C136.436 153.683 136.626 153.07 137.006 152.59C137.386 152.103 137.889 151.86 138.516 151.86C139.189 151.86 139.679 152.147 139.986 152.72V151.93ZM146.013 152.69V155.48C146.013 155.967 146.246 156.21 146.713 156.21C146.986 156.21 147.216 156.137 147.403 155.99V156.87C147.183 156.99 146.913 157.05 146.593 157.05C145.546 157.05 145.023 156.52 145.023 155.46V152.69H144.233V151.93H145.023V150.69H146.013V151.93H147.343V152.69H146.013ZM151.633 151.93H152.613V157H151.633V156.13C151.366 156.75 150.84 157.06 150.053 157.06C149.553 157.06 149.156 156.913 148.863 156.62C148.57 156.32 148.423 155.91 148.423 155.39V151.93H149.413V155.15C149.413 155.497 149.496 155.763 149.663 155.95C149.836 156.13 150.073 156.22 150.373 156.22C150.753 156.22 151.056 156.087 151.283 155.82C151.516 155.553 151.633 155.177 151.633 154.69V151.93ZM154.971 151.93V152.8C155.271 152.173 155.797 151.86 156.551 151.86C157.051 151.86 157.447 152.013 157.741 152.32C158.034 152.627 158.181 153.043 158.181 153.57V157H157.201V153.8C157.201 153.447 157.111 153.177 156.931 152.99C156.757 152.803 156.524 152.71 156.231 152.71C155.884 152.71 155.587 152.847 155.341 153.12C155.094 153.387 154.971 153.763 154.971 154.25V157H153.991V151.93H154.971ZM162.169 154.74H161.409C161.035 154.74 160.752 154.813 160.559 154.96C160.372 155.107 160.279 155.293 160.279 155.52C160.279 155.753 160.352 155.937 160.499 156.07C160.645 156.203 160.859 156.27 161.139 156.27C161.459 156.27 161.709 156.183 161.889 156.01C162.075 155.83 162.169 155.597 162.169 155.31V154.74ZM159.619 153.14V152.19C160.012 151.963 160.532 151.85 161.179 151.85C162.505 151.85 163.169 152.493 163.169 153.78V157H162.199V156.4C161.939 156.827 161.482 157.04 160.829 157.04C160.349 157.04 159.962 156.903 159.669 156.63C159.382 156.35 159.239 155.997 159.239 155.57C159.239 155.083 159.422 154.707 159.789 154.44C160.155 154.167 160.669 154.03 161.329 154.03H162.169V153.74C162.169 153.393 162.085 153.133 161.919 152.96C161.752 152.78 161.475 152.69 161.089 152.69C160.549 152.69 160.059 152.84 159.619 153.14ZM164.529 157V151.93H165.519V157H164.529ZM164.579 150.82C164.465 150.7 164.409 150.553 164.409 150.38C164.409 150.207 164.465 150.06 164.579 149.94C164.699 149.82 164.845 149.76 165.019 149.76C165.192 149.76 165.339 149.82 165.459 149.94C165.579 150.06 165.639 150.207 165.639 150.38C165.639 150.547 165.579 150.69 165.459 150.81C165.339 150.93 165.192 150.99 165.019 150.99C164.845 150.99 164.699 150.933 164.579 150.82ZM172.291 152.1V152.99C171.964 152.797 171.544 152.7 171.031 152.7C170.798 152.7 170.611 152.753 170.471 152.86C170.338 152.967 170.271 153.107 170.271 153.28C170.271 153.327 170.274 153.373 170.281 153.42C170.294 153.46 170.314 153.503 170.341 153.55C170.368 153.59 170.391 153.627 170.411 153.66C170.438 153.687 170.478 153.717 170.531 153.75C170.584 153.783 170.624 153.813 170.651 153.84C170.684 153.86 170.734 153.887 170.801 153.92C170.874 153.953 170.928 153.98 170.961 154C170.994 154.013 171.051 154.04 171.131 154.08C171.218 154.113 171.278 154.137 171.311 154.15C171.704 154.323 172.011 154.52 172.231 154.74C172.458 154.953 172.571 155.24 172.571 155.6C172.571 156.053 172.411 156.41 172.091 156.67C171.771 156.923 171.338 157.05 170.791 157.05C170.191 157.05 169.691 156.95 169.291 156.75V155.82C169.758 156.107 170.241 156.25 170.741 156.25C171.001 156.25 171.201 156.197 171.341 156.09C171.488 155.983 171.561 155.843 171.561 155.67C171.561 155.523 171.504 155.393 171.391 155.28C171.278 155.16 171.161 155.073 171.041 155.02C170.928 154.96 170.731 154.87 170.451 154.75C169.658 154.423 169.261 153.943 169.261 153.31C169.261 152.863 169.428 152.513 169.761 152.26C170.094 152.007 170.511 151.88 171.011 151.88C171.558 151.88 171.984 151.953 172.291 152.1ZM176.74 154.1V153.92C176.727 153.54 176.624 153.24 176.43 153.02C176.237 152.793 175.96 152.68 175.6 152.68C175.267 152.68 174.98 152.803 174.74 153.05C174.5 153.29 174.35 153.64 174.29 154.1H176.74ZM177.37 155.85V156.73C176.997 156.943 176.504 157.05 175.89 157.05C175.104 157.05 174.477 156.813 174.01 156.34C173.544 155.867 173.31 155.247 173.31 154.48C173.31 153.667 173.524 153.03 173.95 152.57C174.377 152.103 174.92 151.87 175.58 151.87C176.227 151.87 176.74 152.073 177.12 152.48C177.5 152.88 177.69 153.46 177.69 154.22C177.69 154.427 177.67 154.643 177.63 154.87H174.3C174.367 155.31 174.554 155.647 174.86 155.88C175.167 156.113 175.554 156.23 176.02 156.23C176.56 156.23 177.01 156.103 177.37 155.85ZM181.234 156.21C181.608 156.21 181.921 156.053 182.174 155.74C182.428 155.42 182.554 155.01 182.554 154.51C182.554 153.937 182.428 153.497 182.174 153.19C181.921 152.877 181.598 152.72 181.204 152.72C180.858 152.72 180.544 152.86 180.264 153.14C179.991 153.42 179.854 153.85 179.854 154.43C179.854 155.03 179.988 155.477 180.254 155.77C180.521 156.063 180.848 156.21 181.234 156.21ZM179.854 149.93V152.7C180.214 152.14 180.724 151.86 181.384 151.86C182.024 151.86 182.548 152.1 182.954 152.58C183.361 153.06 183.564 153.697 183.564 154.49C183.564 155.203 183.371 155.813 182.984 156.32C182.598 156.82 182.068 157.07 181.394 157.07C180.721 157.07 180.208 156.79 179.854 156.23V157H178.864V149.93H179.854ZM187.815 154.1V153.92C187.801 153.54 187.698 153.24 187.505 153.02C187.311 152.793 187.035 152.68 186.675 152.68C186.341 152.68 186.055 152.803 185.815 153.05C185.575 153.29 185.425 153.64 185.365 154.1H187.815ZM188.445 155.85V156.73C188.071 156.943 187.578 157.05 186.965 157.05C186.178 157.05 185.551 156.813 185.085 156.34C184.618 155.867 184.385 155.247 184.385 154.48C184.385 153.667 184.598 153.03 185.025 152.57C185.451 152.103 185.995 151.87 186.655 151.87C187.301 151.87 187.815 152.073 188.195 152.48C188.575 152.88 188.765 153.46 188.765 154.22C188.765 154.427 188.745 154.643 188.705 154.87H185.375C185.441 155.31 185.628 155.647 185.935 155.88C186.241 156.113 186.628 156.23 187.095 156.23C187.635 156.23 188.085 156.103 188.445 155.85ZM192.809 152.1V152.99C192.482 152.797 192.062 152.7 191.549 152.7C191.315 152.7 191.129 152.753 190.989 152.86C190.855 152.967 190.789 153.107 190.789 153.28C190.789 153.327 190.792 153.373 190.799 153.42C190.812 153.46 190.832 153.503 190.859 153.55C190.885 153.59 190.909 153.627 190.929 153.66C190.955 153.687 190.995 153.717 191.049 153.75C191.102 153.783 191.142 153.813 191.169 153.84C191.202 153.86 191.252 153.887 191.319 153.92C191.392 153.953 191.445 153.98 191.479 154C191.512 154.013 191.569 154.04 191.649 154.08C191.735 154.113 191.795 154.137 191.829 154.15C192.222 154.323 192.529 154.52 192.749 154.74C192.975 154.953 193.089 155.24 193.089 155.6C193.089 156.053 192.929 156.41 192.609 156.67C192.289 156.923 191.855 157.05 191.309 157.05C190.709 157.05 190.209 156.95 189.809 156.75V155.82C190.275 156.107 190.759 156.25 191.259 156.25C191.519 156.25 191.719 156.197 191.859 156.09C192.005 155.983 192.079 155.843 192.079 155.67C192.079 155.523 192.022 155.393 191.909 155.28C191.795 155.16 191.679 155.073 191.559 155.02C191.445 154.96 191.249 154.87 190.969 154.75C190.175 154.423 189.779 153.943 189.779 153.31C189.779 152.863 189.945 152.513 190.279 152.26C190.612 152.007 191.029 151.88 191.529 151.88C192.075 151.88 192.502 151.953 192.809 152.1ZM196.778 154.74H196.018C195.645 154.74 195.361 154.813 195.168 154.96C194.981 155.107 194.888 155.293 194.888 155.52C194.888 155.753 194.961 155.937 195.108 156.07C195.255 156.203 195.468 156.27 195.748 156.27C196.068 156.27 196.318 156.183 196.498 156.01C196.685 155.83 196.778 155.597 196.778 155.31V154.74ZM194.228 153.14V152.19C194.621 151.963 195.141 151.85 195.788 151.85C197.115 151.85 197.778 152.493 197.778 153.78V157H196.808V156.4C196.548 156.827 196.091 157.04 195.438 157.04C194.958 157.04 194.571 156.903 194.278 156.63C193.991 156.35 193.848 155.997 193.848 155.57C193.848 155.083 194.031 154.707 194.398 154.44C194.765 154.167 195.278 154.03 195.938 154.03H196.778V153.74C196.778 153.393 196.695 153.133 196.528 152.96C196.361 152.78 196.085 152.69 195.698 152.69C195.158 152.69 194.668 152.84 194.228 153.14ZM200.078 151.93V152.82C200.325 152.193 200.768 151.88 201.408 151.88C201.502 151.88 201.605 151.89 201.718 151.91V152.87C201.578 152.81 201.422 152.78 201.248 152.78C200.908 152.78 200.628 152.93 200.408 153.23C200.188 153.53 200.078 153.887 200.078 154.3V157H199.098V151.93H200.078Z" fill="#2B2B2B"/>
<path d="M206.018 151.12V153.58H206.948C207.374 153.58 207.698 153.47 207.918 153.25C208.138 153.023 208.248 152.723 208.248 152.35C208.248 151.53 207.798 151.12 206.898 151.12H206.018ZM208.488 157L206.908 154.44H206.018V157H204.988V150.26H206.868C207.641 150.26 208.238 150.45 208.658 150.83C209.078 151.203 209.288 151.713 209.288 152.36C209.281 152.833 209.161 153.237 208.928 153.57C208.694 153.897 208.371 154.133 207.958 154.28L209.718 157H208.488ZM212.971 156.21C213.365 156.21 213.688 156.057 213.941 155.75C214.195 155.437 214.321 155 214.321 154.44C214.321 153.913 214.198 153.497 213.951 153.19C213.705 152.877 213.391 152.72 213.011 152.72C212.631 152.72 212.301 152.86 212.021 153.14C211.748 153.413 211.611 153.85 211.611 154.45C211.611 155.037 211.748 155.477 212.021 155.77C212.301 156.063 212.618 156.21 212.971 156.21ZM211.611 151.93V152.71C211.958 152.143 212.478 151.86 213.171 151.86C213.838 151.86 214.365 152.103 214.751 152.59C215.138 153.07 215.331 153.683 215.331 154.43C215.331 155.197 215.131 155.83 214.731 156.33C214.338 156.823 213.811 157.07 213.151 157.07C212.478 157.07 211.965 156.79 211.611 156.23V158.94H210.631V151.93H211.611ZM220.003 151.3V153.02C220.25 152.967 220.476 152.94 220.683 152.94C221.363 152.94 221.896 153.12 222.283 153.48C222.67 153.833 222.863 154.313 222.863 154.92C222.863 155.573 222.646 156.097 222.213 156.49C221.786 156.877 221.19 157.07 220.423 157.07C219.736 157.07 219.17 156.957 218.723 156.73V155.78C219.15 156.04 219.663 156.17 220.263 156.17C221.316 156.17 221.843 155.743 221.843 154.89C221.843 154.55 221.723 154.287 221.483 154.1C221.25 153.907 220.933 153.81 220.533 153.81C220.026 153.81 219.526 153.927 219.033 154.16V150.45H222.423V151.3H220.003ZM223.681 153.71C223.681 152.683 223.885 151.87 224.291 151.27C224.705 150.663 225.268 150.36 225.981 150.36C226.708 150.36 227.278 150.66 227.691 151.26C228.105 151.86 228.311 152.677 228.311 153.71C228.311 154.73 228.108 155.547 227.701 156.16C227.301 156.773 226.728 157.08 225.981 157.08C225.268 157.08 224.705 156.773 224.291 156.16C223.885 155.547 223.681 154.73 223.681 153.71ZM225.051 151.91C224.805 152.33 224.681 152.93 224.681 153.71C224.681 154.49 224.801 155.097 225.041 155.53C225.288 155.957 225.601 156.17 225.981 156.17C226.395 156.17 226.718 155.957 226.951 155.53C227.185 155.103 227.301 154.497 227.301 153.71C227.301 152.917 227.178 152.313 226.931 151.9C226.691 151.48 226.375 151.27 225.981 151.27C225.608 151.27 225.298 151.483 225.051 151.91ZM229.131 153.71C229.131 152.683 229.334 151.87 229.741 151.27C230.154 150.663 230.717 150.36 231.431 150.36C232.157 150.36 232.727 150.66 233.141 151.26C233.554 151.86 233.761 152.677 233.761 153.71C233.761 154.73 233.557 155.547 233.151 156.16C232.751 156.773 232.177 157.08 231.431 157.08C230.717 157.08 230.154 156.773 229.741 156.16C229.334 155.547 229.131 154.73 229.131 153.71ZM230.501 151.91C230.254 152.33 230.131 152.93 230.131 153.71C230.131 154.49 230.251 155.097 230.491 155.53C230.737 155.957 231.051 156.17 231.431 156.17C231.844 156.17 232.167 155.957 232.401 155.53C232.634 155.103 232.751 154.497 232.751 153.71C232.751 152.917 232.627 152.313 232.381 151.9C232.141 151.48 231.824 151.27 231.431 151.27C231.057 151.27 230.747 151.483 230.501 151.91ZM234.09 158.24L235.05 155.9H236.26L234.95 158.24H234.09ZM237.031 153.71C237.031 152.683 237.234 151.87 237.641 151.27C238.054 150.663 238.618 150.36 239.331 150.36C240.058 150.36 240.628 150.66 241.041 151.26C241.454 151.86 241.661 152.677 241.661 153.71C241.661 154.73 241.458 155.547 241.051 156.16C240.651 156.773 240.078 157.08 239.331 157.08C238.618 157.08 238.054 156.773 237.641 156.16C237.234 155.547 237.031 154.73 237.031 153.71ZM238.401 151.91C238.154 152.33 238.031 152.93 238.031 153.71C238.031 154.49 238.151 155.097 238.391 155.53C238.638 155.957 238.951 156.17 239.331 156.17C239.744 156.17 240.068 155.957 240.301 155.53C240.534 155.103 240.651 154.497 240.651 153.71C240.651 152.917 240.528 152.313 240.281 151.9C240.041 151.48 239.724 151.27 239.331 151.27C238.958 151.27 238.648 151.483 238.401 151.91ZM242.48 153.71C242.48 152.683 242.684 151.87 243.09 151.27C243.504 150.663 244.067 150.36 244.78 150.36C245.507 150.36 246.077 150.66 246.49 151.26C246.904 151.86 247.11 152.677 247.11 153.71C247.11 154.73 246.907 155.547 246.5 156.16C246.1 156.773 245.527 157.08 244.78 157.08C244.067 157.08 243.504 156.773 243.09 156.16C242.684 155.547 242.48 154.73 242.48 153.71ZM243.85 151.91C243.604 152.33 243.48 152.93 243.48 153.71C243.48 154.49 243.6 155.097 243.84 155.53C244.087 155.957 244.4 156.17 244.78 156.17C245.194 156.17 245.517 155.957 245.75 155.53C245.984 155.103 246.1 154.497 246.1 153.71C246.1 152.917 245.977 152.313 245.73 151.9C245.49 151.48 245.174 151.27 244.78 151.27C244.407 151.27 244.097 151.483 243.85 151.91ZM247.93 153.71C247.93 152.683 248.133 151.87 248.54 151.27C248.953 150.663 249.516 150.36 250.23 150.36C250.956 150.36 251.526 150.66 251.94 151.26C252.353 151.86 252.56 152.677 252.56 153.71C252.56 154.73 252.356 155.547 251.95 156.16C251.55 156.773 250.976 157.08 250.23 157.08C249.516 157.08 248.953 156.773 248.54 156.16C248.133 155.547 247.93 154.73 247.93 153.71ZM249.3 151.91C249.053 152.33 248.93 152.93 248.93 153.71C248.93 154.49 249.05 155.097 249.29 155.53C249.536 155.957 249.85 156.17 250.23 156.17C250.643 156.17 250.966 155.957 251.2 155.53C251.433 155.103 251.55 154.497 251.55 153.71C251.55 152.917 251.426 152.313 251.18 151.9C250.94 151.48 250.623 151.27 250.23 151.27C249.856 151.27 249.546 151.483 249.3 151.91Z" fill="#FF1934"/>
<path opacity="0.64" d="M60.904 211.468V208.108H61.552V211.452C61.552 212.145 61.376 212.671 61.024 213.028C60.6773 213.385 60.192 213.564 59.568 213.564C58.9547 213.564 58.4747 213.391 58.128 213.044C57.7813 212.692 57.608 212.183 57.608 211.516V208.108H58.256V211.508C58.256 212.004 58.3733 212.369 58.608 212.604C58.848 212.839 59.168 212.956 59.568 212.956C60.4587 212.956 60.904 212.46 60.904 211.468ZM64.9243 211.628H64.2203C63.8789 211.628 63.6229 211.695 63.4523 211.828C63.2816 211.961 63.1963 212.129 63.1963 212.332C63.1963 212.535 63.2629 212.7 63.3963 212.828C63.5296 212.951 63.7243 213.012 63.9803 213.012C64.2683 213.012 64.4976 212.932 64.6683 212.772C64.8389 212.607 64.9243 212.399 64.9243 212.148V211.628ZM62.8283 210.292V209.66C63.1323 209.473 63.5323 209.38 64.0283 209.38C65.0469 209.38 65.5563 209.897 65.5563 210.932V213.5H64.9323V213.02C64.7243 213.367 64.3456 213.54 63.7963 213.54C63.4176 213.54 63.1109 213.428 62.8763 213.204C62.6469 212.98 62.5323 212.697 62.5323 212.356C62.5323 211.967 62.6789 211.665 62.9723 211.452C63.2709 211.233 63.6763 211.124 64.1883 211.124H64.9243V210.916C64.9243 210.596 64.8523 210.356 64.7083 210.196C64.5643 210.031 64.3216 209.948 63.9803 209.948C63.5483 209.948 63.1643 210.063 62.8283 210.292ZM67.3018 209.444V210.148C67.5418 209.641 67.9684 209.388 68.5818 209.388C68.9764 209.388 69.2911 209.508 69.5258 209.748C69.7604 209.988 69.8778 210.308 69.8778 210.708V213.5H69.2458V210.876C69.2458 210.577 69.1684 210.351 69.0138 210.196C68.8644 210.036 68.6671 209.956 68.4218 209.956C68.1178 209.956 67.8538 210.073 67.6298 210.308C67.4111 210.543 67.3018 210.868 67.3018 211.284V213.5H66.6778V209.444H67.3018ZM72.5181 212.836C72.8114 212.836 73.0701 212.724 73.2941 212.5C73.5234 212.271 73.6381 211.932 73.6381 211.484C73.6381 210.967 73.5287 210.583 73.3101 210.332C73.0914 210.081 72.8381 209.956 72.5501 209.956C72.2034 209.956 71.9287 210.095 71.7261 210.372C71.5234 210.644 71.4221 211.001 71.4221 211.444C71.4221 211.897 71.5341 212.244 71.7581 212.484C71.9821 212.719 72.2354 212.836 72.5181 212.836ZM73.6381 209.444H74.2701V213.172C74.2701 213.791 74.0994 214.255 73.7581 214.564C73.4167 214.879 72.9767 215.036 72.4381 215.036C71.9474 215.036 71.5287 214.953 71.1821 214.788V214.156C71.5234 214.353 71.9234 214.452 72.3821 214.452C72.7714 214.452 73.0781 214.348 73.3021 214.14C73.5261 213.932 73.6381 213.607 73.6381 213.164V212.708C73.3714 213.167 72.9741 213.396 72.4461 213.396C71.9821 213.396 71.5847 213.225 71.2541 212.884C70.9287 212.543 70.7661 212.068 70.7661 211.46C70.7661 210.857 70.9181 210.361 71.2221 209.972C71.5261 209.583 71.9234 209.388 72.4141 209.388C72.9687 209.388 73.3767 209.631 73.6381 210.116V209.444ZM80.4618 208.108V208.676H79.0058V213.5H78.3578V208.676H76.9018V208.108H80.4618ZM83.7212 209.444H84.3532V213.5H83.7212V212.796C83.5079 213.297 83.0839 213.548 82.4492 213.548C82.0492 213.548 81.7319 213.431 81.4972 213.196C81.2679 212.956 81.1532 212.636 81.1532 212.236V209.444H81.7852V212.076C81.7852 212.369 81.8599 212.593 82.0092 212.748C82.1585 212.903 82.3612 212.98 82.6172 212.98C82.9532 212.98 83.2199 212.863 83.4172 212.628C83.6199 212.393 83.7212 212.076 83.7212 211.676V209.444ZM86.1455 209.444V210.148C86.3855 209.641 86.8122 209.388 87.4255 209.388C87.8202 209.388 88.1348 209.508 88.3695 209.748C88.6042 209.988 88.7215 210.308 88.7215 210.708V213.5H88.0895V210.876C88.0895 210.577 88.0122 210.351 87.8575 210.196C87.7082 210.036 87.5108 209.956 87.2655 209.956C86.9615 209.956 86.6975 210.073 86.4735 210.308C86.2548 210.543 86.1455 210.868 86.1455 211.284V213.5H85.5215V209.444H86.1455ZM92.0258 211.628H91.3218C90.9805 211.628 90.7245 211.695 90.5538 211.828C90.3831 211.961 90.2978 212.129 90.2978 212.332C90.2978 212.535 90.3645 212.7 90.4978 212.828C90.6311 212.951 90.8258 213.012 91.0818 213.012C91.3698 213.012 91.5991 212.932 91.7698 212.772C91.9405 212.607 92.0258 212.399 92.0258 212.148V211.628ZM89.9298 210.292V209.66C90.2338 209.473 90.6338 209.38 91.1298 209.38C92.1485 209.38 92.6578 209.897 92.6578 210.932V213.5H92.0338V213.02C91.8258 213.367 91.4471 213.54 90.8978 213.54C90.5191 213.54 90.2125 213.428 89.9778 213.204C89.7485 212.98 89.6338 212.697 89.6338 212.356C89.6338 211.967 89.7805 211.665 90.0738 211.452C90.3725 211.233 90.7778 211.124 91.2898 211.124H92.0258V210.916C92.0258 210.596 91.9538 210.356 91.8098 210.196C91.6658 210.031 91.4231 209.948 91.0818 209.948C90.6498 209.948 90.2658 210.063 89.9298 210.292ZM93.8113 213.5V209.444H94.4433V213.5H93.8113ZM93.8273 208.468C93.7526 208.388 93.7153 208.289 93.7153 208.172C93.7153 208.055 93.7526 207.956 93.8273 207.876C93.9073 207.796 94.006 207.756 94.1233 207.756C94.2406 207.756 94.3393 207.796 94.4193 207.876C94.4993 207.956 94.5393 208.055 94.5393 208.172C94.5393 208.289 94.4993 208.388 94.4193 208.468C94.3393 208.543 94.2406 208.58 94.1233 208.58C94.006 208.58 93.9073 208.543 93.8273 208.468Z" fill="#2B2B2B"/>
<path d="M245.248 208.668V210.82H246.064C246.432 210.82 246.712 210.721 246.904 210.524C247.102 210.321 247.2 210.063 247.2 209.748C247.2 209.028 246.798 208.668 245.992 208.668H245.248ZM248.184 213.5H247.408L246.088 211.372H246.024H245.248V213.5H244.6V208.108H245.952C246.576 208.108 247.048 208.255 247.368 208.548C247.694 208.841 247.856 209.247 247.856 209.764C247.846 210.137 247.747 210.455 247.56 210.716C247.374 210.977 247.11 211.161 246.768 211.268L248.184 213.5ZM250.735 212.988C251.077 212.988 251.357 212.855 251.575 212.588C251.794 212.316 251.903 211.932 251.903 211.436C251.903 210.993 251.797 210.636 251.583 210.364C251.37 210.092 251.101 209.956 250.775 209.956C250.45 209.956 250.167 210.076 249.927 210.316C249.693 210.551 249.575 210.937 249.575 211.476C249.575 211.993 249.695 212.375 249.935 212.62C250.175 212.865 250.442 212.988 250.735 212.988ZM249.575 209.444V210.06C249.858 209.607 250.277 209.38 250.831 209.38C251.37 209.38 251.791 209.577 252.095 209.972C252.405 210.361 252.559 210.849 252.559 211.436C252.559 212.06 252.397 212.572 252.071 212.972C251.751 213.367 251.333 213.564 250.815 213.564C250.282 213.564 249.869 213.337 249.575 212.884V215.076H248.951V209.444H249.575ZM255.003 209.7V209.02L256.243 208.268H256.835V213.5H256.211V208.956L255.003 209.7ZM257.789 210.868C257.789 210.047 257.955 209.399 258.285 208.924C258.621 208.444 259.061 208.204 259.605 208.204C260.171 208.204 260.619 208.444 260.949 208.924C261.285 209.399 261.453 210.047 261.453 210.868C261.453 211.684 261.293 212.337 260.973 212.828C260.653 213.319 260.197 213.564 259.605 213.564C259.056 213.564 258.616 213.319 258.285 212.828C257.955 212.337 257.789 211.684 257.789 210.868ZM258.781 209.348C258.552 209.705 258.437 210.212 258.437 210.868C258.437 211.524 258.549 212.039 258.773 212.412C258.997 212.78 259.275 212.964 259.605 212.964C259.973 212.964 260.264 212.783 260.477 212.42C260.696 212.057 260.805 211.54 260.805 210.868C260.805 210.201 260.691 209.692 260.461 209.34C260.237 208.983 259.952 208.804 259.605 208.804C259.285 208.804 259.011 208.985 258.781 209.348ZM262.141 210.868C262.141 210.047 262.306 209.399 262.637 208.924C262.973 208.444 263.413 208.204 263.957 208.204C264.522 208.204 264.97 208.444 265.301 208.924C265.637 209.399 265.805 210.047 265.805 210.868C265.805 211.684 265.645 212.337 265.325 212.828C265.005 213.319 264.549 213.564 263.957 213.564C263.408 213.564 262.968 213.319 262.637 212.828C262.306 212.337 262.141 211.684 262.141 210.868ZM263.133 209.348C262.904 209.705 262.789 210.212 262.789 210.868C262.789 211.524 262.901 212.039 263.125 212.412C263.349 212.78 263.626 212.964 263.957 212.964C264.325 212.964 264.616 212.783 264.829 212.42C265.048 212.057 265.157 211.54 265.157 210.868C265.157 210.201 265.042 209.692 264.813 209.34C264.589 208.983 264.304 208.804 263.957 208.804C263.637 208.804 263.362 208.985 263.133 209.348ZM266.084 214.484L266.828 212.692H267.668L266.636 214.484H266.084ZM268.289 210.868C268.289 210.047 268.455 209.399 268.785 208.924C269.121 208.444 269.561 208.204 270.105 208.204C270.671 208.204 271.119 208.444 271.449 208.924C271.785 209.399 271.953 210.047 271.953 210.868C271.953 211.684 271.793 212.337 271.473 212.828C271.153 213.319 270.697 213.564 270.105 213.564C269.556 213.564 269.116 213.319 268.785 212.828C268.455 212.337 268.289 211.684 268.289 210.868ZM269.281 209.348C269.052 209.705 268.937 210.212 268.937 210.868C268.937 211.524 269.049 212.039 269.273 212.412C269.497 212.78 269.775 212.964 270.105 212.964C270.473 212.964 270.764 212.783 270.977 212.42C271.196 212.057 271.305 211.54 271.305 210.868C271.305 210.201 271.191 209.692 270.961 209.34C270.737 208.983 270.452 208.804 270.105 208.804C269.785 208.804 269.511 208.985 269.281 209.348ZM272.641 210.868C272.641 210.047 272.806 209.399 273.137 208.924C273.473 208.444 273.913 208.204 274.457 208.204C275.022 208.204 275.47 208.444 275.801 208.924C276.137 209.399 276.305 210.047 276.305 210.868C276.305 211.684 276.145 212.337 275.825 212.828C275.505 213.319 275.049 213.564 274.457 213.564C273.908 213.564 273.468 213.319 273.137 212.828C272.806 212.337 272.641 211.684 272.641 210.868ZM273.633 209.348C273.404 209.705 273.289 210.212 273.289 210.868C273.289 211.524 273.401 212.039 273.625 212.412C273.849 212.78 274.126 212.964 274.457 212.964C274.825 212.964 275.116 212.783 275.329 212.42C275.548 212.057 275.657 211.54 275.657 210.868C275.657 210.201 275.542 209.692 275.313 209.34C275.089 208.983 274.804 208.804 274.457 208.804C274.137 208.804 273.862 208.985 273.633 209.348ZM276.992 210.868C276.992 210.047 277.158 209.399 277.488 208.924C277.824 208.444 278.264 208.204 278.808 208.204C279.374 208.204 279.822 208.444 280.152 208.924C280.488 209.399 280.656 210.047 280.656 210.868C280.656 211.684 280.496 212.337 280.176 212.828C279.856 213.319 279.4 213.564 278.808 213.564C278.259 213.564 277.819 213.319 277.488 212.828C277.158 212.337 276.992 211.684 276.992 210.868ZM277.984 209.348C277.755 209.705 277.64 210.212 277.64 210.868C277.64 211.524 277.752 212.039 277.976 212.412C278.2 212.78 278.478 212.964 278.808 212.964C279.176 212.964 279.467 212.783 279.68 212.42C279.899 212.057 280.008 211.54 280.008 210.868C280.008 210.201 279.894 209.692 279.664 209.34C279.44 208.983 279.155 208.804 278.808 208.804C278.488 208.804 278.214 208.985 277.984 209.348Z" fill="#2B2B2B"/>
<mask id="path-17-inside-1_1124_4113" fill="white">
<path d="M57 222.5H281V244.5H57V222.5Z"/>
</mask>
<path d="M281 243.5H57V245.5H281V243.5Z" fill="#CCCCCC" mask="url(#path-17-inside-1_1124_4113)"/>
<path opacity="0.64" d="M60.704 230.108V230.676H59.248V235.5H58.6V230.676H57.144V230.108H60.704ZM63.6274 233.628H62.9234C62.582 233.628 62.326 233.695 62.1554 233.828C61.9847 233.961 61.8994 234.129 61.8994 234.332C61.8994 234.535 61.966 234.7 62.0994 234.828C62.2327 234.951 62.4274 235.012 62.6834 235.012C62.9714 235.012 63.2007 234.932 63.3714 234.772C63.542 234.607 63.6274 234.399 63.6274 234.148V233.628ZM61.5314 232.292V231.66C61.8354 231.473 62.2354 231.38 62.7314 231.38C63.75 231.38 64.2594 231.897 64.2594 232.932V235.5H63.6354V235.02C63.4274 235.367 63.0487 235.54 62.4994 235.54C62.1207 235.54 61.814 235.428 61.5794 235.204C61.35 234.98 61.2354 234.697 61.2354 234.356C61.2354 233.967 61.382 233.665 61.6754 233.452C61.974 233.233 62.3794 233.124 62.8914 233.124H63.6274V232.916C63.6274 232.596 63.5554 232.356 63.4114 232.196C63.2674 232.031 63.0247 231.948 62.6834 231.948C62.2514 231.948 61.8674 232.063 61.5314 232.292ZM67.2289 234.988C67.5542 234.988 67.8235 234.852 68.0369 234.58C68.2502 234.308 68.3569 233.953 68.3569 233.516C68.3569 233.015 68.2449 232.631 68.0209 232.364C67.8022 232.092 67.5249 231.956 67.1889 231.956C66.9009 231.956 66.6369 232.076 66.3969 232.316C66.1569 232.556 66.0369 232.932 66.0369 233.444C66.0369 233.983 66.1515 234.375 66.3809 234.62C66.6155 234.865 66.8982 234.988 67.2289 234.988ZM66.0369 229.844V232.052C66.3302 231.604 66.7409 231.38 67.2689 231.38C67.7809 231.38 68.1995 231.577 68.5249 231.972C68.8502 232.361 69.0129 232.873 69.0129 233.508C69.0129 234.079 68.8582 234.564 68.5489 234.964C68.2449 235.364 67.8235 235.564 67.2849 235.564C66.7409 235.564 66.3249 235.343 66.0369 234.9V235.5H65.4049V229.844H66.0369ZM72.4634 231.444H73.0954V235.5H72.4634V234.796C72.25 235.297 71.826 235.548 71.1914 235.548C70.7914 235.548 70.474 235.431 70.2394 235.196C70.01 234.956 69.8954 234.636 69.8954 234.236V231.444H70.5274V234.076C70.5274 234.369 70.602 234.593 70.7514 234.748C70.9007 234.903 71.1034 234.98 71.3594 234.98C71.6954 234.98 71.962 234.863 72.1594 234.628C72.362 234.393 72.4634 234.076 72.4634 233.676V231.444ZM74.8877 231.444V232.148C75.1277 231.641 75.5544 231.388 76.1677 231.388C76.5624 231.388 76.877 231.508 77.1117 231.748C77.3464 231.988 77.4637 232.308 77.4637 232.708V235.5H76.8317V232.876C76.8317 232.577 76.7544 232.351 76.5997 232.196C76.4504 232.036 76.253 231.956 76.0077 231.956C75.7037 231.956 75.4397 232.073 75.2157 232.308C74.997 232.543 74.8877 232.868 74.8877 233.284V235.5H74.2637V231.444H74.8877ZM80.104 234.836C80.3973 234.836 80.656 234.724 80.88 234.5C81.1093 234.271 81.224 233.932 81.224 233.484C81.224 232.967 81.1147 232.583 80.896 232.332C80.6773 232.081 80.424 231.956 80.136 231.956C79.7893 231.956 79.5147 232.095 79.312 232.372C79.1093 232.644 79.008 233.001 79.008 233.444C79.008 233.897 79.12 234.244 79.344 234.484C79.568 234.719 79.8213 234.836 80.104 234.836ZM81.224 231.444H81.856V235.172C81.856 235.791 81.6853 236.255 81.344 236.564C81.0027 236.879 80.5627 237.036 80.024 237.036C79.5333 237.036 79.1147 236.953 78.768 236.788V236.156C79.1093 236.353 79.5093 236.452 79.968 236.452C80.3573 236.452 80.664 236.348 80.888 236.14C81.112 235.932 81.224 235.607 81.224 235.164V234.708C80.9573 235.167 80.56 235.396 80.032 235.396C79.568 235.396 79.1707 235.225 78.84 234.884C78.5147 234.543 78.352 234.068 78.352 233.46C78.352 232.857 78.504 232.361 78.808 231.972C79.112 231.583 79.5093 231.388 80 231.388C80.5547 231.388 80.9627 231.631 81.224 232.116V231.444ZM85.1586 233.628H84.4546C84.1133 233.628 83.8573 233.695 83.6866 233.828C83.516 233.961 83.4306 234.129 83.4306 234.332C83.4306 234.535 83.4973 234.7 83.6306 234.828C83.764 234.951 83.9586 235.012 84.2146 235.012C84.5026 235.012 84.732 234.932 84.9026 234.772C85.0733 234.607 85.1586 234.399 85.1586 234.148V233.628ZM83.0626 232.292V231.66C83.3666 231.473 83.7666 231.38 84.2626 231.38C85.2813 231.38 85.7906 231.897 85.7906 232.932V235.5H85.1666V235.02C84.9586 235.367 84.58 235.54 84.0306 235.54C83.652 235.54 83.3453 235.428 83.1106 235.204C82.8813 234.98 82.7666 234.697 82.7666 234.356C82.7666 233.967 82.9133 233.665 83.2066 233.452C83.5053 233.233 83.9106 233.124 84.4226 233.124H85.1586V232.916C85.1586 232.596 85.0866 232.356 84.9426 232.196C84.7986 232.031 84.556 231.948 84.2146 231.948C83.7826 231.948 83.3986 232.063 83.0626 232.292ZM87.5361 231.444V232.148C87.7761 231.641 88.2028 231.388 88.8161 231.388C89.2108 231.388 89.5255 231.508 89.7601 231.748C89.9948 231.988 90.1121 232.308 90.1121 232.708V235.5H89.4801V232.876C89.4801 232.577 89.4028 232.351 89.2481 232.196C89.0988 232.036 88.9015 231.956 88.6561 231.956C88.3521 231.956 88.0881 232.073 87.8641 232.308C87.6455 232.543 87.5361 232.868 87.5361 233.284V235.5H86.9121V231.444H87.5361Z" fill="#2B2B2B"/>
<path d="M243.514 230.668V232.82H244.33C244.698 232.82 244.978 232.721 245.17 232.524C245.367 232.321 245.466 232.063 245.466 231.748C245.466 231.028 245.063 230.668 244.258 230.668H243.514ZM246.45 235.5H245.674L244.354 233.372H244.29H243.514V235.5H242.866V230.108H244.218C244.842 230.108 245.314 230.255 245.634 230.548C245.959 230.841 246.122 231.247 246.122 231.764C246.111 232.137 246.013 232.455 245.826 232.716C245.639 232.977 245.375 233.161 245.034 233.268L246.45 235.5ZM249.001 234.988C249.342 234.988 249.622 234.855 249.841 234.588C250.059 234.316 250.169 233.932 250.169 233.436C250.169 232.993 250.062 232.636 249.849 232.364C249.635 232.092 249.366 231.956 249.041 231.956C248.715 231.956 248.433 232.076 248.193 232.316C247.958 232.551 247.841 232.937 247.841 233.476C247.841 233.993 247.961 234.375 248.201 234.62C248.441 234.865 248.707 234.988 249.001 234.988ZM247.841 231.444V232.06C248.123 231.607 248.542 231.38 249.097 231.38C249.635 231.38 250.057 231.577 250.361 231.972C250.67 232.361 250.825 232.849 250.825 233.436C250.825 234.06 250.662 234.572 250.337 234.972C250.017 235.367 249.598 235.564 249.081 235.564C248.547 235.564 248.134 235.337 247.841 234.884V237.076H247.217V231.444H247.841ZM254.101 233.676H255.853V230.644L254.101 233.676ZM257.253 233.676V234.228H256.477V235.5H255.853V234.228H253.461V233.676L255.453 230.268H256.477V233.676H257.253ZM257.789 232.868C257.789 232.047 257.955 231.399 258.285 230.924C258.621 230.444 259.061 230.204 259.605 230.204C260.171 230.204 260.619 230.444 260.949 230.924C261.285 231.399 261.453 232.047 261.453 232.868C261.453 233.684 261.293 234.337 260.973 234.828C260.653 235.319 260.197 235.564 259.605 235.564C259.056 235.564 258.616 235.319 258.285 234.828C257.955 234.337 257.789 233.684 257.789 232.868ZM258.781 231.348C258.552 231.705 258.437 232.212 258.437 232.868C258.437 233.524 258.549 234.039 258.773 234.412C258.997 234.78 259.275 234.964 259.605 234.964C259.973 234.964 260.264 234.783 260.477 234.42C260.696 234.057 260.805 233.54 260.805 232.868C260.805 232.201 260.691 231.692 260.461 231.34C260.237 230.983 259.952 230.804 259.605 230.804C259.285 230.804 259.011 230.985 258.781 231.348ZM262.141 232.868C262.141 232.047 262.306 231.399 262.637 230.924C262.973 230.444 263.413 230.204 263.957 230.204C264.522 230.204 264.97 230.444 265.301 230.924C265.637 231.399 265.805 232.047 265.805 232.868C265.805 233.684 265.645 234.337 265.325 234.828C265.005 235.319 264.549 235.564 263.957 235.564C263.408 235.564 262.968 235.319 262.637 234.828C262.306 234.337 262.141 233.684 262.141 232.868ZM263.133 231.348C262.904 231.705 262.789 232.212 262.789 232.868C262.789 233.524 262.901 234.039 263.125 234.412C263.349 234.78 263.626 234.964 263.957 234.964C264.325 234.964 264.616 234.783 264.829 234.42C265.048 234.057 265.157 233.54 265.157 232.868C265.157 232.201 265.042 231.692 264.813 231.34C264.589 230.983 264.304 230.804 263.957 230.804C263.637 230.804 263.362 230.985 263.133 231.348ZM266.084 236.484L266.828 234.692H267.668L266.636 236.484H266.084ZM268.289 232.868C268.289 232.047 268.455 231.399 268.785 230.924C269.121 230.444 269.561 230.204 270.105 230.204C270.671 230.204 271.119 230.444 271.449 230.924C271.785 231.399 271.953 232.047 271.953 232.868C271.953 233.684 271.793 234.337 271.473 234.828C271.153 235.319 270.697 235.564 270.105 235.564C269.556 235.564 269.116 235.319 268.785 234.828C268.455 234.337 268.289 233.684 268.289 232.868ZM269.281 231.348C269.052 231.705 268.937 232.212 268.937 232.868C268.937 233.524 269.049 234.039 269.273 234.412C269.497 234.78 269.775 234.964 270.105 234.964C270.473 234.964 270.764 234.783 270.977 234.42C271.196 234.057 271.305 233.54 271.305 232.868C271.305 232.201 271.191 231.692 270.961 231.34C270.737 230.983 270.452 230.804 270.105 230.804C269.785 230.804 269.511 230.985 269.281 231.348ZM272.641 232.868C272.641 232.047 272.806 231.399 273.137 230.924C273.473 230.444 273.913 230.204 274.457 230.204C275.022 230.204 275.47 230.444 275.801 230.924C276.137 231.399 276.305 232.047 276.305 232.868C276.305 233.684 276.145 234.337 275.825 234.828C275.505 235.319 275.049 235.564 274.457 235.564C273.908 235.564 273.468 235.319 273.137 234.828C272.806 234.337 272.641 233.684 272.641 232.868ZM273.633 231.348C273.404 231.705 273.289 232.212 273.289 232.868C273.289 233.524 273.401 234.039 273.625 234.412C273.849 234.78 274.126 234.964 274.457 234.964C274.825 234.964 275.116 234.783 275.329 234.42C275.548 234.057 275.657 233.54 275.657 232.868C275.657 232.201 275.542 231.692 275.313 231.34C275.089 230.983 274.804 230.804 274.457 230.804C274.137 230.804 273.862 230.985 273.633 231.348ZM276.992 232.868C276.992 232.047 277.158 231.399 277.488 230.924C277.824 230.444 278.264 230.204 278.808 230.204C279.374 230.204 279.822 230.444 280.152 230.924C280.488 231.399 280.656 232.047 280.656 232.868C280.656 233.684 280.496 234.337 280.176 234.828C279.856 235.319 279.4 235.564 278.808 235.564C278.259 235.564 277.819 235.319 277.488 234.828C277.158 234.337 276.992 233.684 276.992 232.868ZM277.984 231.348C277.755 231.705 277.64 232.212 277.64 232.868C277.64 233.524 277.752 234.039 277.976 234.412C278.2 234.78 278.478 234.964 278.808 234.964C279.176 234.964 279.467 234.783 279.68 234.42C279.899 234.057 280.008 233.54 280.008 232.868C280.008 232.201 279.894 231.692 279.664 231.34C279.44 230.983 279.155 230.804 278.808 230.804C278.488 230.804 278.214 230.985 277.984 231.348Z" fill="#2B2B2B"/>
<rect x="109" y="275" width="120" height="24" rx="8" fill="#FF1934"/>
<path d="M157.959 288.176L158.823 288.176C159.468 288.176 159.791 287.931 159.791 287.44C159.791 286.939 159.455 286.688 158.783 286.688L157.959 286.688L157.959 288.176ZM157.959 284.432L157.959 285.88L158.567 285.88C158.929 285.88 159.201 285.808 159.383 285.664C159.564 285.52 159.655 285.336 159.655 285.112C159.655 284.904 159.577 284.739 159.423 284.616C159.273 284.493 159.044 284.432 158.735 284.432L157.959 284.432ZM156.951 283.608L158.863 283.608C159.439 283.608 159.887 283.744 160.207 284.016C160.527 284.288 160.687 284.64 160.687 285.072C160.687 285.365 160.607 285.621 160.447 285.84C160.287 286.053 160.081 286.195 159.831 286.264C160.119 286.333 160.356 286.475 160.543 286.688C160.729 286.896 160.823 287.181 160.823 287.544C160.823 287.971 160.673 288.32 160.375 288.592C160.076 288.864 159.663 289 159.135 289L156.951 289L156.951 283.608ZM163.053 286.952L164.573 286.952L164.501 286.712C164.32 286.136 164.17 285.653 164.053 285.264C163.941 284.869 163.872 284.621 163.845 284.52L163.813 284.36C163.765 284.627 163.536 285.413 163.125 286.72L163.053 286.952ZM165.213 289L164.829 287.776L162.789 287.776L162.405 289L161.349 289L163.173 283.608L164.477 283.608L166.301 289L165.213 289ZM171.364 283.608L169.508 287L169.508 289L168.5 289L168.5 287.032L166.66 283.608L167.836 283.608L168.196 284.392C168.404 284.845 168.574 285.227 168.708 285.536C168.841 285.84 168.921 286.029 168.948 286.104L168.996 286.224C169.044 286.027 169.318 285.416 169.82 284.392L170.188 283.608L171.364 283.608ZM173.436 286.952L174.956 286.952L174.884 286.712C174.702 286.136 174.553 285.653 174.436 285.264C174.324 284.869 174.254 284.621 174.228 284.52L174.196 284.36C174.148 284.627 173.918 285.413 173.508 286.72L173.436 286.952ZM175.596 289L175.212 287.776L173.172 287.776L172.788 289L171.732 289L173.556 283.608L174.86 283.608L176.684 289L175.596 289ZM178.466 284.44L178.466 286.2L179.138 286.2C179.448 286.2 179.68 286.123 179.834 285.968C179.989 285.808 180.066 285.587 180.066 285.304C180.066 285.027 179.984 284.813 179.818 284.664C179.658 284.515 179.426 284.44 179.122 284.44L178.466 284.44ZM180.242 289L179.018 287.032L178.466 287.032L178.466 289L177.458 289L177.458 283.608L179.122 283.608C179.736 283.608 180.216 283.763 180.562 284.072C180.914 284.381 181.09 284.795 181.09 285.312C181.085 285.696 180.992 286.021 180.81 286.288C180.629 286.549 180.381 286.744 180.066 286.872L181.45 289L180.242 289Z" fill="white"/>
<path d="M9 341.5H329C333.694 341.5 337.5 345.306 337.5 350C337.5 354.694 333.694 358.5 329 358.5H9C4.30558 358.5 0.5 354.694 0.5 350C0.500002 345.306 4.30558 341.5 9 341.5Z" fill="white"/>
<path d="M9 341.5H329C333.694 341.5 337.5 345.306 337.5 350C337.5 354.694 333.694 358.5 329 358.5H9C4.30558 358.5 0.5 354.694 0.5 350C0.500002 345.306 4.30558 341.5 9 341.5Z" stroke="#CCCCCC"/>
<path d="M7.86805e-07 350C3.52265e-07 345.029 4.02944 341 9 341L39 341C43.9706 341 48 345.029 48 350C48 354.971 43.9706 359 39 359L9 359C4.02944 359 1.22135e-06 354.971 7.86805e-07 350Z" fill="#FF1934"/>
<path d="M15.448 346.688H16.264L16.816 348.6L17.456 350.92C17.5893 350.179 17.7547 349.403 17.952 348.592L18.44 346.608H19.464L18.088 352H16.92L16.432 350.296C16.2987 349.843 16.184 349.443 16.088 349.096C15.9973 348.749 15.936 348.517 15.904 348.4L15.864 348.216C15.7893 348.589 15.6027 349.283 15.304 350.296L14.8 352H13.64L12.2 346.608H13.264L13.768 348.6C13.8533 348.957 13.9387 349.328 14.024 349.712C14.1093 350.096 14.1733 350.389 14.216 350.592L14.28 350.904C14.4507 350.232 14.6587 349.464 14.904 348.6L15.448 346.688ZM22.2561 350.256H21.7601C21.5094 350.256 21.3174 350.309 21.1841 350.416C21.0507 350.517 20.9841 350.648 20.9841 350.808C20.9841 351.149 21.1814 351.32 21.5761 351.32C21.7894 351.32 21.9547 351.259 22.0721 351.136C22.1947 351.008 22.2561 350.843 22.2561 350.64V350.256ZM20.2881 349.04V348.152C20.5921 347.965 21.0294 347.872 21.6001 347.872C22.6987 347.872 23.2481 348.384 23.2481 349.408V352H22.2961V351.512C22.1094 351.859 21.7574 352.032 21.2401 352.032C20.8561 352.032 20.5494 351.92 20.3201 351.696C20.0961 351.472 19.9841 351.189 19.9841 350.848C19.9841 350.464 20.1281 350.163 20.4161 349.944C20.7041 349.725 21.1201 349.616 21.6641 349.616H22.2561V349.368C22.2561 349.144 22.1974 348.973 22.0801 348.856C21.9627 348.739 21.7627 348.68 21.4801 348.68C21.0481 348.68 20.6507 348.8 20.2881 349.04ZM27.7828 352H26.6548L25.1988 349.904V352H24.2388V346.44H25.1988V349.848L26.6308 347.944H27.7508L26.2628 349.88L27.7828 352ZM29.5864 348.664V350.728C29.5864 350.899 29.6318 351.029 29.7224 351.12C29.8131 351.205 29.9384 351.248 30.0984 351.248C30.3011 351.248 30.4878 351.192 30.6584 351.08V351.904C30.4718 351.995 30.2318 352.04 29.9384 352.04C29.0638 352.04 28.6264 351.597 28.6264 350.712V348.664H28.0184V347.944H28.6264V346.968H29.5864V347.944H30.5944V348.664H29.5864ZM33.9617 347.944H34.9297V352H33.9617V351.336C33.7484 351.805 33.3324 352.04 32.7137 352.04C32.303 352.04 31.983 351.923 31.7537 351.688C31.5244 351.453 31.4097 351.12 31.4097 350.688V347.944H32.3697V350.464C32.3697 350.72 32.431 350.915 32.5537 351.048C32.6817 351.181 32.855 351.248 33.0737 351.248C33.351 351.248 33.567 351.155 33.7217 350.968C33.8817 350.781 33.9617 350.499 33.9617 350.12V347.944Z" fill="white"/>
<rect x="56" y="348" width="274" height="4" rx="2" fill="#CCCCCC"/>
<mask id="mask0_1124_4113" style="mask-type:alpha" maskUnits="userSpaceOnUse" x="56" y="348" width="274" height="4">
<rect x="56" y="348" width="274" height="4" rx="2" fill="#CCCCCC"/>
</mask>
<g mask="url(#mask0_1124_4113)">
<rect x="56" y="348" width="274" height="4" rx="2" fill="#FF1934"/>
</g>
<defs>
<filter id="filter0_d_1124_4113" x="5" y="48" width="328" height="56" filterUnits="userSpaceOnUse" color-interpolation-filters="sRGB">
<feFlood flood-opacity="0" result="BackgroundImageFix"/>
<feColorMatrix in="SourceAlpha" type="matrix" values="0 0 0 0 0 0 0 0 0 0 0 0 0 0 0 0 0 0 127 0" result="hardAlpha"/>
<feOffset dy="2"/>
<feGaussianBlur stdDeviation="2"/>
<feComposite in2="hardAlpha" operator="out"/>
<feColorMatrix type="matrix" values="0 0 0 0 0.168627 0 0 0 0 0.168627 0 0 0 0 0.168627 0 0 0 0.24 0"/>
<feBlend mode="normal" in2="BackgroundImageFix" result="effect1_dropShadow_1124_4113"/>
<feBlend mode="normal" in="SourceGraphic" in2="effect1_dropShadow_1124_4113" result="shape"/>
</filter>
<clipPath id="clip0_1124_4113">
<rect width="24" height="24" fill="white" transform="translate(25 66)"/>
</clipPath>
<clipPath id="clip1_1124_4113">
<rect width="64" height="64" fill="white" transform="translate(48 106)"/>
</clipPath>
</defs>
</svg>
