<svg width="812" height="375" viewBox="0 0 812 375" fill="none" xmlns="http://www.w3.org/2000/svg">
<rect width="812" height="375" fill="#D3D3D3"/>
<rect width="812" height="375" fill="#DA011C"/>
<path fill-rule="evenodd" clip-rule="evenodd" d="M303.8 162.46C303.92 162.285 304.039 162.109 304.158 161.933C305.859 159.432 307.556 156.936 308.793 154.13C310.211 150.917 310.935 147.609 310.781 144.069C310.697 142.131 309.985 140.611 308.494 139.465C306.294 137.774 303.759 137.577 301.157 137.853C298.464 138.139 296.377 139.669 294.523 141.541C292.684 143.399 291.253 145.593 290.047 147.922C289.196 149.567 288.376 151.23 287.557 152.893C287.003 154.017 286.449 155.142 285.885 156.26C285.796 156.436 285.636 156.573 285.477 156.711L285.477 156.711L285.477 156.711C285.404 156.774 285.33 156.837 285.264 156.904C285.233 156.813 285.195 156.722 285.157 156.632L285.157 156.632C285.074 156.436 284.991 156.24 284.988 156.043C284.969 154.728 284.971 153.412 284.974 152.097C284.974 151.658 284.975 151.22 284.975 150.781H284.968C284.968 150.257 284.974 149.733 284.98 149.209L284.98 149.208C284.995 148.021 285.009 146.834 284.95 145.651C284.853 143.741 284.235 141.965 283.152 140.407C282.12 138.922 280.383 138.719 279.219 139.931C278.782 140.387 278.424 140.968 278.166 141.555C277.481 143.115 277.564 144.748 277.648 146.379C277.679 146.979 277.709 147.579 277.702 148.174C277.698 148.476 278.279 148.877 278.666 149.068C279.074 149.268 279.414 148.935 279.563 148.542C279.744 148.061 279.931 147.559 279.97 147.055C280.009 146.531 280.016 146.005 280.023 145.478V145.478V145.478C280.029 144.932 280.036 144.386 280.08 143.843C280.119 143.361 280.292 142.677 280.878 142.755C282.089 143.003 282.422 144.23 282.626 146.449C282.655 151.629 282.648 156.81 282.642 161.991V161.991V161.991V161.991V161.991V161.991V161.991V161.991L282.639 164.212C282.639 164.491 282.606 164.78 282.534 165.049C282.33 165.807 282.121 166.563 281.911 167.32C281.593 168.472 281.274 169.623 280.974 170.78C280.87 171.183 280.765 171.586 280.66 171.989C280.11 174.098 279.56 176.207 279.108 178.339C278.82 179.693 278.72 181.106 278.69 182.497C278.666 183.541 279.081 184.52 279.807 185.288C280.017 185.51 280.375 185.626 280.686 185.698C281.671 185.924 282.229 185.389 282.63 184.528C284.07 181.439 284.69 178.135 284.934 174.765C285.048 173.194 285.015 171.61 284.983 170.028C284.974 169.568 284.964 169.108 284.959 168.649C284.929 166.254 285.396 163.962 286.24 161.745C287.696 157.917 289.582 154.308 291.66 150.806C293.074 148.424 294.81 146.314 297.096 144.763C298.677 143.69 300.411 143.031 302.362 143.272C304.075 143.484 305.555 144.918 305.726 146.643C305.976 149.161 305.953 151.679 305.197 154.121C304.475 156.454 303.398 158.609 301.935 160.554C301.281 161.424 300.487 161.916 299.359 161.839C298.295 161.767 297.218 161.753 296.155 161.834C295.447 161.888 294.683 162.017 294.07 162.353C292.346 163.295 291.083 164.709 290.657 166.724C290.522 167.361 290.499 168.109 290.695 168.715C291.134 170.071 292.206 170.579 293.575 170.073C295.161 169.486 296.709 168.783 298.246 168.069C299.144 167.651 300.005 167.588 300.908 167.971C301.015 168.017 301.124 168.058 301.234 168.098L301.234 168.098C301.447 168.178 301.66 168.257 301.854 168.371C302.393 168.686 302.852 168.607 303.33 168.226C304.943 166.944 305.004 166.342 303.636 164.791C302.977 164.043 302.951 163.779 303.468 162.943C303.534 162.836 303.608 162.733 303.681 162.63C303.721 162.573 303.761 162.516 303.8 162.459V162.46ZM340.075 167.042C339.821 166.02 339.628 164.964 339.571 163.913C339.518 162.916 339.527 161.916 339.537 160.916V160.916C339.542 160.381 339.547 159.846 339.543 159.312C339.54 159.059 339.497 158.792 339.408 158.556C338.986 157.425 338.038 157.058 336.986 156.901C336.483 156.826 336.178 156.647 335.925 156.135C335.036 154.331 333.7 153.171 331.582 153.267C329.813 153.347 328.261 154.069 326.992 155.227C324.212 157.763 322.645 160.946 322.552 164.833C322.515 166.421 322.944 167.822 323.924 169.03C325.895 171.462 328.235 172.321 331.082 170.175C331.713 169.699 332.255 169.1 332.798 168.502L332.798 168.501L332.798 168.501L332.798 168.501L332.798 168.501L332.798 168.501L332.798 168.501L332.799 168.501C333.057 168.216 333.315 167.931 333.583 167.659C333.918 167.319 334.255 166.983 334.624 166.615L334.624 166.614L334.626 166.612L334.626 166.612L334.628 166.61L334.631 166.608L334.633 166.606L334.641 166.598C334.801 166.438 334.967 166.272 335.142 166.097C335.3 166.526 335.449 166.93 335.594 167.318L335.594 167.321C335.852 168.016 336.092 168.663 336.328 169.312C336.876 170.819 337.911 171.492 339.492 171.362C340.904 171.245 341.615 169.815 340.883 168.59C340.817 168.477 340.746 168.365 340.675 168.252C340.43 167.864 340.182 167.471 340.077 167.045L340.075 167.042ZM334.935 161.354C334.127 163.278 332.94 164.963 331.279 166.242C331.103 166.378 330.912 166.492 330.721 166.606C330.654 166.647 330.587 166.687 330.521 166.728C329.207 167.536 327.917 166.63 327.45 165.474C327.277 165.046 327.218 164.569 327.159 164.092V164.092C327.133 163.877 327.106 163.661 327.069 163.45C327.147 160.663 328.331 158.588 330.586 157.119C331.35 156.622 332.094 156.576 332.84 157.166C333.211 157.459 333.605 157.723 333.999 157.985C335.603 159.05 335.582 159.812 334.934 161.354H334.935ZM374.032 162.912C375.146 163.267 376.262 163.649 377.319 164.149H377.318C378.432 164.676 378.753 165.77 378.623 166.916C378.177 170.842 376.296 173.988 373.39 176.5C372.321 177.424 371.024 177.452 369.836 176.786C367.99 175.752 366.764 174.238 366.849 171.917C366.859 171.646 366.856 171.374 366.854 171.103C366.852 170.98 366.851 170.856 366.851 170.733H366.873C366.873 170.535 366.869 170.337 366.865 170.138C366.856 169.656 366.847 169.173 366.892 168.696C366.924 168.359 367.101 167.997 367.312 167.729C367.636 167.317 368.157 167.012 368.604 167.329C368.902 167.541 369.085 168.087 369.117 168.5C369.152 168.96 369.144 169.423 369.136 169.886C369.128 170.39 369.119 170.893 369.167 171.391C369.236 172.113 369.391 172.874 369.709 173.513C370.302 174.706 371.426 174.833 372.303 173.852C373.319 172.715 374.046 171.432 373.959 169.799C373.934 169.323 373.941 168.846 373.948 168.369C373.952 168.144 373.955 167.919 373.955 167.693C373.954 166.659 373.636 166.15 372.651 165.875C371.836 165.647 371.004 165.478 370.173 165.309C369.977 165.269 369.78 165.229 369.584 165.188C369.102 165.088 368.619 164.997 368.135 164.906L368.135 164.906L368.135 164.906L368.135 164.906L368.135 164.906L368.135 164.906L368.134 164.906C367.694 164.823 367.253 164.74 366.813 164.65C365.171 164.314 363.685 162.638 364.379 160.288C365.521 156.419 370.94 153.114 374.144 153.238C375.518 153.29 376.397 154.28 376.477 155.647C376.534 156.606 376.22 157.412 375.7 158.143C375.23 158.805 374.62 158.852 374.068 158.267C373.597 157.767 373.114 157.802 372.625 158.112C371.863 158.594 371.124 159.118 370.396 159.654C369.952 159.979 369.463 160.439 369.693 160.997C369.872 161.434 370.367 161.867 370.816 162.029C371.395 162.238 371.996 162.384 372.597 162.529C373.079 162.645 373.561 162.762 374.032 162.912ZM354.385 153.638C353.782 153.994 353.224 154.468 352.731 154.976C352.117 155.608 351.536 156.274 350.955 156.94L350.955 156.94C350.724 157.204 350.494 157.469 350.261 157.731C349.839 158.206 349.624 158.168 349.273 157.675C348.646 156.796 348.011 155.917 347.306 155.104C346.978 154.725 346.502 154.458 346.056 154.214C345.44 153.88 344.887 154.146 344.41 154.565C343.93 154.988 343.703 155.584 343.934 156.164L344.085 156.544C344.657 157.981 345.233 159.427 345.968 160.776C346.016 160.863 346.061 160.946 346.104 161.024C346.945 162.555 346.963 162.589 345.826 164.163L345.804 164.193L345.804 164.193C345.76 164.253 345.715 164.313 345.679 164.378C345.364 164.93 345.048 165.482 344.732 166.034L344.732 166.034C343.885 167.51 343.039 168.985 342.234 170.484C341.897 171.113 341.666 171.85 341.583 172.562C341.497 173.298 342.242 173.636 342.856 173.203C343.046 173.069 343.231 172.894 343.35 172.694C344.132 171.395 344.901 170.088 345.659 168.775C345.908 168.344 346.15 167.909 346.392 167.473L346.392 167.473L346.393 167.472C346.804 166.731 347.215 165.991 347.661 165.272C348.03 164.676 348.275 164.721 348.766 165.212C349.928 166.372 351.096 167.53 352.281 168.667C352.803 169.167 353.4 169.541 354.164 169.533C354.633 169.528 354.903 169.325 354.751 168.858C354.47 168 354.176 167.137 353.779 166.332C353.276 165.309 352.738 164.304 352.2 163.299L352.199 163.299L352.199 163.299L352.199 163.298C351.929 162.795 351.66 162.292 351.395 161.787C351.038 161.108 351.071 160.438 351.527 159.818C352.003 159.172 352.488 158.534 352.993 157.912C353.492 157.297 353.715 157.31 354.249 157.919C354.617 158.341 355.265 158.45 355.547 158.083C356.195 157.238 356.539 156.246 356.748 155.201C356.748 155.189 356.748 155.177 356.749 155.166C356.749 155.15 356.75 155.134 356.751 155.118L356.751 155.117C356.754 155.056 356.758 154.995 356.745 154.938C356.436 153.507 356.076 152.635 354.385 153.635V153.638ZM321.686 155.646V155.647C321.699 156.157 321.713 156.667 321.797 157.164H321.799C321.934 157.963 322.123 158.751 322.311 159.54L322.311 159.54L322.311 159.54L322.311 159.541L322.311 159.541L322.311 159.541C322.369 159.785 322.428 160.029 322.484 160.273C322.614 160.835 322.305 161.193 321.949 161.522C321.48 161.955 320.915 162.093 320.347 161.813C319.912 161.6 319.517 161.284 319.143 160.967C318.754 160.638 318.482 160.662 318.342 161.166C318.162 161.815 317.998 162.469 317.844 163.081L317.844 163.083C317.777 163.348 317.712 163.605 317.649 163.851C317.715 164.249 317.779 164.63 317.841 165C317.99 165.884 318.127 166.701 318.25 167.521C318.378 168.379 318.5 169.24 318.564 170.104C318.608 170.687 318.245 171.03 317.715 171.184C316.318 171.59 315.211 171.074 314.754 169.645C314.358 168.404 314.092 167.115 313.829 165.833C313.453 164.008 313.021 162.203 312.159 160.551C311.883 160.022 311.451 159.562 311.029 159.135C310.677 158.781 310.654 158.483 310.948 158.117C311.091 157.938 311.229 157.754 311.367 157.569C311.673 157.161 311.978 156.753 312.341 156.409C313.619 155.197 314.907 155.558 315.519 157.235C315.788 157.972 316.066 158.706 316.356 159.434C316.39 159.519 316.462 159.589 316.534 159.658L316.534 159.658C316.568 159.691 316.602 159.724 316.632 159.759C316.668 159.724 316.71 159.69 316.752 159.657L316.752 159.657C316.844 159.584 316.936 159.512 316.959 159.421L317.003 159.252C317.194 158.515 317.386 157.774 317.502 157.022C317.553 156.689 317.542 156.347 317.532 156.004V156.004V156.003V156.003V156.003C317.525 155.795 317.519 155.588 317.526 155.381C317.59 153.58 319.413 152.564 320.905 153.501C321.471 153.856 321.638 154.431 321.667 155.073C321.676 155.264 321.681 155.455 321.686 155.646L321.686 155.646ZM363.361 167.403C362.269 166.438 362.11 165.146 362.087 163.847C362.067 162.676 362.162 161.501 362.258 160.328L362.258 160.328C362.277 160.088 362.297 159.849 362.315 159.61C362.365 158.958 362.473 158.308 362.58 157.66L362.619 157.425C362.698 156.94 362.784 156.456 362.869 155.972L362.869 155.972L362.869 155.972L362.87 155.972C363.022 155.112 363.174 154.252 363.289 153.388C363.381 152.693 363.041 152.402 362.364 152.576C361.856 152.706 361.358 152.948 360.909 153.23C360.763 153.322 360.615 153.413 360.468 153.504L360.468 153.504L360.468 153.504L360.468 153.504C359.334 154.202 358.193 154.905 357.483 156.11L357.472 156.128C357.157 156.663 356.775 157.312 357.152 157.933C357.535 158.564 357.538 159.205 357.537 159.88C357.536 160.519 357.536 161.158 357.536 161.796V161.809L357.537 162.774C357.537 163.022 357.534 163.271 357.531 163.519V163.519V163.52V163.52V163.52V163.52V163.52C357.525 164.083 357.519 164.646 357.544 165.207C357.583 166.03 357.638 166.859 357.779 167.67C357.907 168.407 358.088 169.155 358.381 169.837C358.685 170.542 359.272 171.005 360.06 171.113C361.608 171.324 362.755 170.744 363.554 169.351C363.994 168.586 364.007 167.976 363.361 167.405V167.403ZM362.332 147.573C361.533 147.999 360.843 147.611 360.233 147.072C359.485 146.41 359.231 145.577 359.493 144.594C359.766 143.566 361.398 142.476 362.406 142.637C363.391 142.795 364.324 143.972 364.324 145.245C364.21 146.351 363.335 147.038 362.332 147.573ZM386.918 148.814V148.749C387.545 148.556 387.985 148.106 387.985 147.526C387.985 147.01 387.766 146.591 387.482 146.366C387.105 146.141 386.667 145.98 385.693 145.98C384.845 145.98 384.186 146.044 383.715 146.14V151.422H384.908V149.297H385.474C386.133 149.297 386.447 149.555 386.541 150.134C386.57 150.245 386.596 150.353 386.621 150.455C386.734 150.912 386.821 151.264 386.949 151.422H388.235C388.11 151.228 388.016 150.906 387.858 150.102C387.702 149.394 387.418 149.007 386.917 148.814H386.918ZM385.506 148.427H384.94V146.914C385.066 146.882 385.285 146.849 385.599 146.849C386.352 146.849 386.699 147.172 386.699 147.655C386.699 148.202 386.165 148.427 385.506 148.427ZM380.419 148.653C380.419 145.723 382.775 143.372 385.725 143.372C388.708 143.372 391 145.659 391 148.653C391 151.648 388.676 154 385.725 154C382.775 154 380.419 151.584 380.419 148.653ZM381.47 148.652C381.47 151.163 383.279 153.156 385.76 153.156C388.173 153.156 389.949 151.196 389.949 148.686C389.949 146.177 388.173 144.148 385.726 144.148C383.28 144.148 381.47 146.141 381.47 148.652Z" fill="white"/>
<path d="M408.616 134.944V187.056" stroke="white"/>
<path d="M427.399 154V143.216H429.351L432.007 147.728C432.498 148.571 432.941 149.349 433.335 150.064C433.741 150.779 434.018 151.28 434.167 151.568L434.391 152.016C434.327 151.045 434.295 149.621 434.295 147.744V143.216H435.943V154H433.991L431.319 149.504C430.839 148.693 430.397 147.931 429.991 147.216C429.597 146.491 429.319 145.968 429.159 145.648L428.919 145.184C429.005 146.251 429.047 147.685 429.047 149.488V154H427.399ZM441.266 154.144C440.072 154.144 439.133 153.755 438.45 152.976C437.768 152.197 437.426 151.211 437.426 150.016C437.426 148.8 437.778 147.792 438.482 146.992C439.186 146.181 440.114 145.776 441.266 145.776C442.504 145.776 443.458 146.171 444.13 146.96C444.802 147.739 445.138 148.736 445.138 149.952C445.138 151.168 444.792 152.171 444.098 152.96C443.416 153.749 442.472 154.144 441.266 154.144ZM441.25 147.104C440.557 147.104 440.018 147.381 439.634 147.936C439.25 148.48 439.058 149.157 439.058 149.968C439.058 150.768 439.256 151.445 439.65 152C440.045 152.544 440.584 152.816 441.266 152.816C441.992 152.816 442.541 152.549 442.914 152.016C443.298 151.483 443.49 150.805 443.49 149.984C443.49 149.141 443.309 148.453 442.946 147.92C442.584 147.376 442.018 147.104 441.25 147.104ZM448.314 154L445.77 145.888H447.434L448.186 148.576C448.431 149.429 448.639 150.181 448.81 150.832C448.98 151.483 449.087 151.92 449.13 152.144L449.194 152.48C449.332 151.808 449.684 150.501 450.25 148.56L451.034 145.888H452.554L453.354 148.56C453.61 149.445 453.828 150.219 454.01 150.88C454.191 151.531 454.308 151.963 454.362 152.176L454.426 152.496C454.554 151.867 454.916 150.555 455.514 148.56L456.314 145.888H457.898L455.322 154H453.53L452.778 151.344C452.554 150.533 452.356 149.819 452.186 149.2C452.026 148.571 451.919 148.144 451.866 147.92L451.802 147.6C451.652 148.293 451.327 149.541 450.826 151.344L450.09 154H448.314ZM467.61 149.36V149.072C467.588 148.464 467.423 147.984 467.114 147.632C466.804 147.269 466.362 147.088 465.786 147.088C465.252 147.088 464.794 147.285 464.41 147.68C464.026 148.064 463.786 148.624 463.69 149.36H467.61ZM468.618 152.16V153.568C468.02 153.909 467.231 154.08 466.25 154.08C464.991 154.08 463.988 153.701 463.242 152.944C462.495 152.187 462.122 151.195 462.122 149.968C462.122 148.667 462.463 147.648 463.146 146.912C463.828 146.165 464.698 145.792 465.754 145.792C466.788 145.792 467.61 146.117 468.218 146.768C468.826 147.408 469.13 148.336 469.13 149.552C469.13 149.883 469.098 150.229 469.034 150.592H463.706C463.812 151.296 464.111 151.835 464.602 152.208C465.092 152.581 465.711 152.768 466.458 152.768C467.322 152.768 468.042 152.565 468.618 152.16ZM472.72 154L469.84 145.888H471.488L472.592 149.312C472.848 150.101 473.061 150.784 473.232 151.36C473.413 151.936 473.525 152.315 473.568 152.496L473.632 152.768C473.728 152.245 474.08 151.093 474.688 149.312L475.824 145.888H477.456L474.512 154H472.72ZM483.563 149.36V149.072C483.541 148.464 483.376 147.984 483.067 147.632C482.757 147.269 482.315 147.088 481.739 147.088C481.205 147.088 480.747 147.285 480.363 147.68C479.979 148.064 479.739 148.624 479.643 149.36H483.563ZM484.571 152.16V153.568C483.973 153.909 483.184 154.08 482.203 154.08C480.944 154.08 479.941 153.701 479.195 152.944C478.448 152.187 478.075 151.195 478.075 149.968C478.075 148.667 478.416 147.648 479.099 146.912C479.781 146.165 480.651 145.792 481.707 145.792C482.741 145.792 483.563 146.117 484.171 146.768C484.779 147.408 485.083 148.336 485.083 149.552C485.083 149.883 485.051 150.229 484.987 150.592H479.659C479.765 151.296 480.064 151.835 480.555 152.208C481.045 152.581 481.664 152.768 482.411 152.768C483.275 152.768 483.995 152.565 484.571 152.16ZM488.161 145.888V147.312C488.555 146.309 489.265 145.808 490.289 145.808C490.438 145.808 490.603 145.824 490.785 145.856V147.392C490.561 147.296 490.31 147.248 490.033 147.248C489.489 147.248 489.041 147.488 488.689 147.968C488.337 148.448 488.161 149.019 488.161 149.68V154H486.593V145.888H488.161ZM493.919 153.824L490.687 145.888H492.431L493.439 148.528L494.703 151.952C494.799 151.632 495.183 150.491 495.855 148.528L496.767 145.888H498.431L495.503 153.776C494.724 155.856 493.535 156.896 491.935 156.896C491.647 156.896 491.401 156.869 491.199 156.816V155.472C491.369 155.515 491.551 155.536 491.743 155.536C492.777 155.536 493.503 154.965 493.919 153.824ZM502.797 154.144C501.603 154.144 500.664 153.755 499.981 152.976C499.299 152.197 498.957 151.211 498.957 150.016C498.957 148.8 499.309 147.792 500.013 146.992C500.717 146.181 501.645 145.776 502.797 145.776C504.035 145.776 504.989 146.171 505.661 146.96C506.333 147.739 506.669 148.736 506.669 149.952C506.669 151.168 506.323 152.171 505.629 152.96C504.947 153.749 504.003 154.144 502.797 154.144ZM502.781 147.104C502.088 147.104 501.549 147.381 501.165 147.936C500.781 148.48 500.589 149.157 500.589 149.968C500.589 150.768 500.787 151.445 501.181 152C501.576 152.544 502.115 152.816 502.797 152.816C503.523 152.816 504.072 152.549 504.445 152.016C504.829 151.483 505.021 150.805 505.021 149.984C505.021 149.141 504.84 148.453 504.477 147.92C504.115 147.376 503.549 147.104 502.781 147.104ZM509.668 145.888V147.28C510.148 146.277 510.991 145.776 512.196 145.776C512.996 145.776 513.631 146.021 514.1 146.512C514.57 147.003 514.804 147.669 514.804 148.512V154H513.236V148.88C513.236 148.315 513.092 147.883 512.804 147.584C512.527 147.285 512.154 147.136 511.684 147.136C511.13 147.136 510.655 147.355 510.26 147.792C509.866 148.219 509.668 148.821 509.668 149.6V154H508.1V145.888H509.668ZM521.617 149.36V149.072C521.596 148.464 521.43 147.984 521.121 147.632C520.812 147.269 520.369 147.088 519.793 147.088C519.26 147.088 518.801 147.285 518.417 147.68C518.033 148.064 517.793 148.624 517.697 149.36H521.617ZM522.625 152.16V153.568C522.028 153.909 521.238 154.08 520.257 154.08C518.998 154.08 517.996 153.701 517.249 152.944C516.502 152.187 516.129 151.195 516.129 149.968C516.129 148.667 516.47 147.648 517.153 146.912C517.836 146.165 518.705 145.792 519.761 145.792C520.796 145.792 521.617 146.117 522.225 146.768C522.833 147.408 523.137 148.336 523.137 149.552C523.137 149.883 523.105 150.229 523.041 150.592H517.713C517.82 151.296 518.118 151.835 518.609 152.208C519.1 152.581 519.718 152.768 520.465 152.768C521.329 152.768 522.049 152.565 522.625 152.16ZM428.503 171.984C428.525 172.805 428.775 173.483 429.255 174.016C429.735 174.539 430.407 174.8 431.271 174.8C431.911 174.8 432.509 174.624 433.063 174.272V175.68C432.541 176 431.874 176.16 431.063 176.16C429.794 176.16 428.781 175.76 428.023 174.96C427.266 174.16 426.887 173.163 426.887 171.968C426.887 170.805 427.266 169.813 428.023 168.992C428.791 168.16 429.826 167.744 431.127 167.744C431.831 167.744 432.477 167.893 433.063 168.192V169.632C432.541 169.301 431.949 169.136 431.287 169.136C430.445 169.136 429.767 169.403 429.255 169.936C428.754 170.469 428.503 171.152 428.503 171.984ZM438.803 172.384H437.587C436.989 172.384 436.536 172.501 436.227 172.736C435.928 172.971 435.779 173.269 435.779 173.632C435.779 174.005 435.896 174.299 436.131 174.512C436.365 174.725 436.707 174.832 437.155 174.832C437.667 174.832 438.067 174.693 438.355 174.416C438.653 174.128 438.803 173.755 438.803 173.296V172.384ZM434.723 169.824V168.304C435.352 167.941 436.184 167.76 437.219 167.76C439.341 167.76 440.403 168.789 440.403 170.848V176H438.851V175.04C438.435 175.723 437.704 176.064 436.659 176.064C435.891 176.064 435.272 175.845 434.803 175.408C434.344 174.96 434.115 174.395 434.115 173.712C434.115 172.933 434.408 172.331 434.995 171.904C435.581 171.467 436.403 171.248 437.459 171.248H438.803V170.784C438.803 170.229 438.669 169.813 438.403 169.536C438.136 169.248 437.693 169.104 437.075 169.104C436.211 169.104 435.427 169.344 434.723 169.824ZM443.747 167.888V169.28C444.227 168.277 445.07 167.776 446.275 167.776C447.075 167.776 447.71 168.021 448.179 168.512C448.648 169.003 448.883 169.669 448.883 170.512V176H447.315V170.88C447.315 170.315 447.171 169.883 446.883 169.584C446.606 169.285 446.232 169.136 445.763 169.136C445.208 169.136 444.734 169.355 444.339 169.792C443.944 170.219 443.747 170.821 443.747 171.6V176H442.179V167.888H443.747ZM455.825 167.888V169.184C456.284 168.245 457.046 167.776 458.113 167.776C459.329 167.776 460.108 168.299 460.449 169.344C460.673 168.843 460.998 168.459 461.425 168.192C461.852 167.915 462.332 167.776 462.865 167.776C463.697 167.776 464.326 168.021 464.753 168.512C465.19 169.003 465.409 169.68 465.409 170.544V176H463.841V170.88C463.841 169.717 463.372 169.136 462.433 169.136C461.964 169.136 461.542 169.344 461.169 169.76C460.806 170.176 460.625 170.789 460.625 171.6V176H459.057V170.88C459.057 169.717 458.582 169.136 457.633 169.136C457.174 169.136 456.758 169.344 456.385 169.76C456.012 170.176 455.825 170.789 455.825 171.6V176H454.257V167.888H455.825ZM471.474 172.384H470.258C469.661 172.384 469.208 172.501 468.898 172.736C468.6 172.971 468.45 173.269 468.45 173.632C468.45 174.005 468.568 174.299 468.802 174.512C469.037 174.725 469.378 174.832 469.826 174.832C470.338 174.832 470.738 174.693 471.026 174.416C471.325 174.128 471.474 173.755 471.474 173.296V172.384ZM467.394 169.824V168.304C468.024 167.941 468.856 167.76 469.89 167.76C472.013 167.76 473.074 168.789 473.074 170.848V176H471.522V175.04C471.106 175.723 470.376 176.064 469.33 176.064C468.562 176.064 467.944 175.845 467.474 175.408C467.016 174.96 466.786 174.395 466.786 173.712C466.786 172.933 467.08 172.331 467.666 171.904C468.253 171.467 469.074 171.248 470.13 171.248H471.474V170.784C471.474 170.229 471.341 169.813 471.074 169.536C470.808 169.248 470.365 169.104 469.746 169.104C468.882 169.104 468.098 169.344 467.394 169.824ZM479.475 168.16V169.584C478.952 169.275 478.28 169.12 477.459 169.12C477.085 169.12 476.787 169.205 476.563 169.376C476.349 169.547 476.243 169.771 476.243 170.048C476.243 170.123 476.248 170.197 476.259 170.272C476.28 170.336 476.312 170.405 476.355 170.48C476.397 170.544 476.435 170.603 476.467 170.656C476.509 170.699 476.573 170.747 476.659 170.8C476.744 170.853 476.808 170.901 476.851 170.944C476.904 170.976 476.984 171.019 477.091 171.072C477.208 171.125 477.293 171.168 477.347 171.2C477.4 171.221 477.491 171.264 477.619 171.328C477.757 171.381 477.853 171.419 477.907 171.44C478.536 171.717 479.027 172.032 479.379 172.384C479.741 172.725 479.923 173.184 479.923 173.76C479.923 174.485 479.667 175.056 479.155 175.472C478.643 175.877 477.949 176.08 477.075 176.08C476.115 176.08 475.315 175.92 474.675 175.6V174.112C475.421 174.571 476.195 174.8 476.995 174.8C477.411 174.8 477.731 174.715 477.955 174.544C478.189 174.373 478.307 174.149 478.307 173.872C478.307 173.637 478.216 173.429 478.035 173.248C477.853 173.056 477.667 172.917 477.475 172.832C477.293 172.736 476.979 172.592 476.531 172.4C475.261 171.877 474.627 171.109 474.627 170.096C474.627 169.381 474.893 168.821 475.427 168.416C475.96 168.011 476.627 167.808 477.427 167.808C478.301 167.808 478.984 167.925 479.475 168.16ZM483.25 169.104V173.568C483.25 174.347 483.623 174.736 484.37 174.736C484.807 174.736 485.175 174.619 485.474 174.384V175.792C485.122 175.984 484.69 176.08 484.178 176.08C482.503 176.08 481.666 175.232 481.666 173.536V169.104H480.402V167.888H481.666V165.904H483.25V167.888H485.378V169.104H483.25ZM491.906 171.36V171.072C491.885 170.464 491.72 169.984 491.41 169.632C491.101 169.269 490.658 169.088 490.082 169.088C489.549 169.088 489.09 169.285 488.706 169.68C488.322 170.064 488.082 170.624 487.986 171.36H491.906ZM492.914 174.16V175.568C492.317 175.909 491.528 176.08 490.546 176.08C489.288 176.08 488.285 175.701 487.538 174.944C486.792 174.187 486.418 173.195 486.418 171.968C486.418 170.667 486.76 169.648 487.442 168.912C488.125 168.165 488.994 167.792 490.05 167.792C491.085 167.792 491.906 168.117 492.514 168.768C493.122 169.408 493.426 170.336 493.426 171.552C493.426 171.883 493.394 172.229 493.33 172.592H488.002C488.109 173.296 488.408 173.835 488.898 174.208C489.389 174.581 490.008 174.768 490.754 174.768C491.618 174.768 492.338 174.565 492.914 174.16ZM496.504 167.888V169.312C496.899 168.309 497.608 167.808 498.632 167.808C498.782 167.808 498.947 167.824 499.128 167.856V169.392C498.904 169.296 498.654 169.248 498.376 169.248C497.832 169.248 497.384 169.488 497.032 169.968C496.68 170.448 496.504 171.019 496.504 171.68V176H494.936V167.888H496.504ZM505.192 167.888V169.184C505.65 168.245 506.413 167.776 507.48 167.776C508.696 167.776 509.474 168.299 509.816 169.344C510.04 168.843 510.365 168.459 510.792 168.192C511.218 167.915 511.698 167.776 512.232 167.776C513.064 167.776 513.693 168.021 514.12 168.512C514.557 169.003 514.776 169.68 514.776 170.544V176H513.208V170.88C513.208 169.717 512.738 169.136 511.8 169.136C511.33 169.136 510.909 169.344 510.536 169.76C510.173 170.176 509.992 170.789 509.992 171.6V176H508.424V170.88C508.424 169.717 507.949 169.136 507 169.136C506.541 169.136 506.125 169.344 505.752 169.76C505.378 170.176 505.192 170.789 505.192 171.6V176H503.624V167.888H505.192ZM519.961 176.144C518.766 176.144 517.828 175.755 517.145 174.976C516.462 174.197 516.121 173.211 516.121 172.016C516.121 170.8 516.473 169.792 517.177 168.992C517.881 168.181 518.809 167.776 519.961 167.776C521.198 167.776 522.153 168.171 522.825 168.96C523.497 169.739 523.833 170.736 523.833 171.952C523.833 173.168 523.486 174.171 522.793 174.96C522.11 175.749 521.166 176.144 519.961 176.144ZM519.945 169.104C519.252 169.104 518.713 169.381 518.329 169.936C517.945 170.48 517.753 171.157 517.753 171.968C517.753 172.768 517.95 173.445 518.345 174C518.74 174.544 519.278 174.816 519.961 174.816C520.686 174.816 521.236 174.549 521.609 174.016C521.993 173.483 522.185 172.805 522.185 171.984C522.185 171.141 522.004 170.453 521.641 169.92C521.278 169.376 520.713 169.104 519.945 169.104ZM526.832 167.888V169.28C527.312 168.277 528.155 167.776 529.36 167.776C530.16 167.776 530.795 168.021 531.264 168.512C531.734 169.003 531.968 169.669 531.968 170.512V176H530.4V170.88C530.4 170.315 530.256 169.883 529.968 169.584C529.691 169.285 529.318 169.136 528.848 169.136C528.294 169.136 527.819 169.355 527.424 169.792C527.03 170.219 526.832 170.821 526.832 171.6V176H525.264V167.888H526.832ZM538.781 171.36V171.072C538.759 170.464 538.594 169.984 538.285 169.632C537.975 169.269 537.533 169.088 536.957 169.088C536.423 169.088 535.965 169.285 535.581 169.68C535.197 170.064 534.957 170.624 534.861 171.36H538.781ZM539.789 174.16V175.568C539.191 175.909 538.402 176.08 537.421 176.08C536.162 176.08 535.159 175.701 534.413 174.944C533.666 174.187 533.293 173.195 533.293 171.968C533.293 170.667 533.634 169.648 534.317 168.912C534.999 168.165 535.869 167.792 536.925 167.792C537.959 167.792 538.781 168.117 539.389 168.768C539.997 169.408 540.301 170.336 540.301 171.552C540.301 171.883 540.269 172.229 540.205 172.592H534.877C534.983 173.296 535.282 173.835 535.773 174.208C536.263 174.581 536.882 174.768 537.629 174.768C538.493 174.768 539.213 174.565 539.789 174.16ZM544.051 175.824L540.819 167.888H542.563L543.571 170.528L544.835 173.952C544.931 173.632 545.315 172.491 545.987 170.528L546.899 167.888H548.563L545.635 175.776C544.856 177.856 543.667 178.896 542.067 178.896C541.779 178.896 541.534 178.869 541.331 178.816V177.472C541.502 177.515 541.683 177.536 541.875 177.536C542.91 177.536 543.635 176.965 544.051 175.824Z" fill="white"/>
<rect x="304.529" y="227" width="202.941" height="8" rx="2" fill="white"/>
<mask id="mask0_1124_4113" style="mask-type:alpha" maskUnits="userSpaceOnUse" x="306" y="229" width="200" height="4">
<rect x="306" y="229" width="200" height="4" rx="2" fill="white"/>
</mask>
<g mask="url(#mask0_1124_4113)">
</g>
</svg>
