<svg width="338" height="375" viewBox="0 0 338 375" fill="none" xmlns="http://www.w3.org/2000/svg">
<rect width="338" height="375" fill="#D3D3D3"/>
<rect x="26.5" y="50" width="285" height="265" rx="16" fill="white"/>
<g filter="url(#filter0_d_1124_4113)">
<path d="M26.5 66C26.5 57.1634 33.6634 50 42.5 50H295.5C304.337 50 311.5 57.1634 311.5 66V98H26.5V66Z" fill="#FF1934" shape-rendering="crispEdges"/>
<g clip-path="url(#clip0_1124_4113)">
<path fill-rule="evenodd" clip-rule="evenodd" d="M44.5 78C44.5 72.49 48.99 68 54.5 68C60.01 68 64.5 72.49 64.5 78C64.5 83.51 60.01 88 54.5 88C48.99 88 44.5 83.51 44.5 78ZM46.1 78C46.1 82.63 49.87 86.4 54.5 86.4C59.13 86.4 62.9 82.63 62.9 78C62.9 73.37 59.13 69.6 54.5 69.6C49.87 69.6 46.1 73.37 46.1 78ZM49.7 78C49.7 77.56 50.06 77.2 50.5 77.2H58.5C58.94 77.2 59.3 77.56 59.3 78C59.3 78.44 58.94 78.8 58.5 78.8H50.5C50.06 78.8 49.7 78.44 49.7 78Z" fill="white"/>
</g>
<path d="M78.168 78.332H80.436L80.338 77.996C80.0673 77.0813 79.8433 76.302 79.666 75.658C79.498 75.014 79.3953 74.5987 79.358 74.412L79.302 74.132C79.2273 74.6453 78.882 75.9333 78.266 77.996L78.168 78.332ZM81.528 82L80.954 80.068H77.65L77.076 82H74.822L77.972 72.564H80.688L83.838 82H81.528ZM87.05 74.902V76.106C87.2273 75.714 87.498 75.406 87.862 75.182C88.2353 74.9487 88.6787 74.832 89.192 74.832C89.92 74.832 90.4893 75.0513 90.9 75.49C91.3107 75.9193 91.516 76.554 91.516 77.394V82H89.472V77.772C89.472 77.352 89.374 77.0347 89.178 76.82C88.982 76.596 88.7067 76.484 88.352 76.484C87.9787 76.484 87.666 76.6333 87.414 76.932C87.1713 77.2213 87.05 77.66 87.05 78.248V82H85.006V74.902H87.05ZM96.3891 80.376C96.8558 80.376 97.2338 80.194 97.5231 79.83C97.8124 79.466 97.9571 78.9807 97.9571 78.374C97.9571 77.786 97.7984 77.3287 97.4811 77.002C97.1731 76.6753 96.8044 76.512 96.3751 76.512C95.9458 76.512 95.5818 76.6847 95.2831 77.03C94.9938 77.3753 94.8491 77.856 94.8491 78.472C94.8491 79.0413 94.9984 79.5033 95.2971 79.858C95.5958 80.2033 95.9598 80.376 96.3891 80.376ZM97.9571 72.102H100.001V82H97.9571V80.894C97.4811 81.6873 96.7718 82.084 95.8291 82.084C94.9051 82.084 94.1631 81.7247 93.6031 81.006C93.0524 80.2873 92.7771 79.4287 92.7771 78.43C92.7771 77.31 93.0664 76.428 93.6451 75.784C94.2238 75.14 94.9564 74.818 95.8431 74.818C96.7671 74.818 97.4718 75.21 97.9571 75.994V72.102ZM105.2 79.088H104.542C104.196 79.088 103.93 79.1627 103.744 79.312C103.557 79.4613 103.464 79.6527 103.464 79.886C103.464 80.362 103.739 80.6 104.29 80.6C104.579 80.6 104.803 80.5113 104.962 80.334C105.12 80.1567 105.2 79.914 105.2 79.606V79.088ZM101.882 77.086V75.252C102.442 74.9347 103.249 74.776 104.304 74.776C105.312 74.776 106.063 74.9953 106.558 75.434C107.052 75.8633 107.3 76.5353 107.3 77.45V82H105.298V81.132C104.999 81.7387 104.411 82.042 103.534 82.042C102.843 82.042 102.302 81.846 101.91 81.454C101.527 81.062 101.336 80.572 101.336 79.984C101.336 79.3027 101.583 78.7753 102.078 78.402C102.582 78.0193 103.324 77.828 104.304 77.828H105.2V77.338C105.2 76.7407 104.803 76.442 104.01 76.442C103.244 76.442 102.535 76.6567 101.882 77.086ZM118.76 72.564V74.3H116.464V82H114.294V74.3H111.984V72.564H118.76ZM124.122 77.8V77.632C124.056 76.8013 123.692 76.386 123.03 76.386C122.703 76.386 122.414 76.5073 122.162 76.75C121.91 76.9833 121.742 77.3333 121.658 77.8H124.122ZM125.592 79.886V81.594C125.106 81.9113 124.364 82.07 123.366 82.07C122.199 82.07 121.289 81.734 120.636 81.062C119.992 80.3807 119.67 79.508 119.67 78.444C119.67 77.3147 119.982 76.4327 120.608 75.798C121.242 75.154 122.022 74.832 122.946 74.832C123.898 74.832 124.649 75.112 125.2 75.672C125.75 76.2227 126.026 77.0487 126.026 78.15C126.026 78.3647 125.988 78.7333 125.914 79.256H121.742C121.882 79.648 122.124 79.9513 122.47 80.166C122.815 80.3807 123.23 80.488 123.716 80.488C124.434 80.488 125.06 80.2873 125.592 79.886ZM127.555 82V72.102H129.599V82H127.555ZM134.868 79.088H134.21C133.864 79.088 133.598 79.1627 133.412 79.312C133.225 79.4613 133.132 79.6527 133.132 79.886C133.132 80.362 133.407 80.6 133.958 80.6C134.247 80.6 134.471 80.5113 134.63 80.334C134.788 80.1567 134.868 79.914 134.868 79.606V79.088ZM131.55 77.086V75.252C132.11 74.9347 132.917 74.776 133.972 74.776C134.98 74.776 135.731 74.9953 136.226 75.434C136.72 75.8633 136.968 76.5353 136.968 77.45V82H134.966V81.132C134.667 81.7387 134.079 82.042 133.202 82.042C132.511 82.042 131.97 81.846 131.578 81.454C131.195 81.062 131.004 80.572 131.004 79.984C131.004 79.3027 131.251 78.7753 131.746 78.402C132.25 78.0193 132.992 77.828 133.972 77.828H134.868V77.338C134.868 76.7407 134.471 76.442 133.678 76.442C132.912 76.442 132.203 76.6567 131.55 77.086ZM140.616 72.102V76.106C140.98 75.2567 141.69 74.832 142.744 74.832C143.435 74.832 143.995 75.0513 144.424 75.49C144.863 75.9287 145.082 76.5913 145.082 77.478V82H143.038V77.8C143.038 77.3893 142.936 77.0673 142.73 76.834C142.525 76.6007 142.259 76.484 141.932 76.484C141.792 76.484 141.657 76.5073 141.526 76.554C141.405 76.5913 141.27 76.666 141.12 76.778C140.971 76.8807 140.85 77.0627 140.756 77.324C140.663 77.576 140.616 77.884 140.616 78.248V82H138.572V72.102H140.616ZM156.55 72.564V74.3H154.254V82H152.084V74.3H149.774V72.564H156.55ZM161.911 77.8V77.632C161.845 76.8013 161.481 76.386 160.819 76.386C160.492 76.386 160.203 76.5073 159.951 76.75C159.699 76.9833 159.531 77.3333 159.447 77.8H161.911ZM163.381 79.886V81.594C162.895 81.9113 162.153 82.07 161.155 82.07C159.988 82.07 159.078 81.734 158.425 81.062C157.781 80.3807 157.459 79.508 157.459 78.444C157.459 77.3147 157.771 76.4327 158.397 75.798C159.031 75.154 159.811 74.832 160.735 74.832C161.687 74.832 162.438 75.112 162.989 75.672C163.539 76.2227 163.815 77.0487 163.815 78.15C163.815 78.3647 163.777 78.7333 163.703 79.256H159.531C159.671 79.648 159.913 79.9513 160.259 80.166C160.604 80.3807 161.019 80.488 161.505 80.488C162.223 80.488 162.849 80.2873 163.381 79.886ZM167.304 74.902V76.218C167.434 75.8073 167.649 75.4807 167.948 75.238C168.256 74.986 168.61 74.86 169.012 74.86C169.236 74.86 169.413 74.8787 169.544 74.916V76.848C169.32 76.7453 169.063 76.694 168.774 76.694C168.335 76.694 167.98 76.8573 167.71 77.184C167.439 77.5013 167.304 77.926 167.304 78.458V82H165.26L165.274 74.902H167.304ZM172.821 76.4V79.662C172.821 79.914 172.891 80.1053 173.031 80.236C173.181 80.3667 173.372 80.432 173.605 80.432C173.979 80.432 174.31 80.3387 174.599 80.152V81.846C174.254 81.9953 173.787 82.07 173.199 82.07C171.585 82.07 170.777 81.2627 170.777 79.648V76.4H169.755V74.902H170.777V73.222H172.821V74.902H174.473V76.4H172.821ZM175.926 82V74.902H177.97V82H175.926ZM176.108 73.684C175.874 73.4507 175.758 73.1707 175.758 72.844C175.758 72.5173 175.874 72.2373 176.108 72.004C176.341 71.7707 176.621 71.654 176.948 71.654C177.274 71.654 177.554 71.7707 177.788 72.004C178.021 72.2373 178.138 72.5173 178.138 72.844C178.138 73.1707 178.021 73.4507 177.788 73.684C177.554 73.9173 177.274 74.034 176.948 74.034C176.621 74.034 176.341 73.9173 176.108 73.684ZM183.365 80.376C183.813 80.376 184.177 80.208 184.457 79.872C184.737 79.5267 184.877 79.06 184.877 78.472C184.877 77.828 184.732 77.3427 184.443 77.016C184.163 76.68 183.803 76.512 183.365 76.512C182.935 76.512 182.562 76.6753 182.245 77.002C181.927 77.3287 181.769 77.786 181.769 78.374C181.769 78.9807 181.918 79.466 182.217 79.83C182.515 80.194 182.898 80.376 183.365 80.376ZM181.769 74.902V75.994C182.263 75.21 182.977 74.818 183.911 74.818C184.825 74.818 185.558 75.1447 186.109 75.798C186.669 76.442 186.949 77.3193 186.949 78.43C186.949 79.4847 186.678 80.3573 186.137 81.048C185.605 81.7387 184.863 82.084 183.911 82.084C182.949 82.084 182.235 81.706 181.769 80.95V84.618H179.725V74.902H181.769ZM192.679 74.902H194.723V82H192.679V80.866C192.306 81.6593 191.587 82.056 190.523 82.056C189.795 82.056 189.226 81.8553 188.815 81.454C188.414 81.0433 188.213 80.4413 188.213 79.648V74.902H190.257V79.186C190.257 80.0167 190.621 80.432 191.349 80.432C192.236 80.432 192.679 79.8393 192.679 78.654V74.902Z" fill="white"/>
</g>
<g clip-path="url(#clip1_1124_4113)">
<path d="M188.084 169.188L177.774 142.651C177.07 140.836 175.503 139.578 173.581 139.281C171.658 138.984 169.785 139.712 168.569 141.228L150.735 163.427C149.519 164.943 149.212 166.93 149.917 168.742C150.621 170.555 152.19 171.814 154.111 172.11C155.076 172.259 155.981 171.596 156.13 170.63C156.28 169.665 155.616 168.76 154.651 168.61C153.685 168.461 153.334 167.758 153.218 167.46C153.103 167.162 152.898 166.389 153.496 165.643L171.33 143.444C171.929 142.699 172.727 142.73 173.04 142.779C173.354 142.827 174.125 143.038 174.472 143.931L184.782 170.469C185.129 171.362 184.702 172.038 184.502 172.287C184.301 172.536 183.736 173.099 182.789 172.953L161.213 169.624C160.247 169.474 159.342 170.138 159.193 171.103C159.044 172.069 159.707 172.974 160.672 173.123L182.249 176.452C184.169 176.749 186.045 176.021 187.263 174.506C188.48 172.99 188.787 171.003 188.083 169.188H188.084Z" fill="#FF1934"/>
<path d="M168.28 165.36C167.902 165.638 167.659 166.047 167.588 166.507C167.551 166.748 167.56 166.975 167.614 167.206C167.668 167.438 167.771 167.633 167.898 167.832C168.046 168.034 168.226 168.174 168.409 168.292C168.616 168.413 168.826 168.492 169.068 168.529C169.528 168.6 169.992 168.493 170.37 168.214C170.771 167.941 171.014 167.53 171.088 167.047C171.162 166.564 171.03 166.122 170.772 165.745C170.218 164.988 169.036 164.806 168.28 165.361V165.36Z" fill="#FF1934"/>
<path d="M173.869 150.427C173.743 149.479 173.117 148.558 172.171 148.413C171.226 148.267 170.351 148.956 169.946 149.822C168.347 153.241 169.042 157.337 168.365 161.724C168.219 162.669 168.868 163.554 169.813 163.7C170.758 163.845 171.643 163.197 171.789 162.252C172.466 157.865 174.363 154.169 173.869 150.427Z" fill="#FF1934"/>
<path d="M185.692 182.924L173.836 178.744C173.026 178.458 171.559 178.251 169.909 178.19C168.259 178.129 166.774 178.226 165.935 178.45L153.636 181.732C152.797 181.956 152.779 182.261 153.59 182.546C154.4 182.832 155.869 183.039 157.517 183.1C158.345 183.131 159.025 183.036 159.034 182.888C159.043 182.74 158.377 182.595 157.548 182.564C156.736 182.534 156.34 182.422 156.207 182.375C156.073 182.328 155.808 182.207 156.221 182.097L168.521 178.814C168.934 178.704 169.607 178.715 169.877 178.725C170.147 178.735 170.818 178.774 171.218 178.914L183.074 183.094C183.474 183.235 183.196 183.336 183.058 183.373C182.919 183.41 182.512 183.492 181.7 183.462L163.181 182.773C162.352 182.742 161.673 182.837 161.664 182.985C161.655 183.133 162.321 183.278 163.15 183.309L181.669 183.997C183.318 184.059 184.804 183.961 185.644 183.737C186.484 183.513 186.502 183.209 185.692 182.923V182.924Z" fill="#CCCCCC"/>
<path d="M168.601 182.173C168.317 182.212 168.163 182.274 168.159 182.344C168.157 182.381 168.191 182.416 168.264 182.452C168.337 182.488 168.448 182.519 168.578 182.551C168.726 182.583 168.894 182.606 169.062 182.626C169.251 182.646 169.437 182.66 169.644 182.668C170.038 182.683 170.416 182.67 170.7 182.63C171.003 182.59 171.158 182.529 171.162 182.455C171.165 182.382 171.001 182.312 170.74 182.252C170.183 182.13 169.169 182.093 168.6 182.173H168.601Z" fill="#CCCCCC"/>
<path d="M171.494 179.913C171.275 179.766 170.638 179.619 169.827 179.588C169.015 179.558 168.364 179.658 168.127 179.788C167.197 180.303 168.274 180.941 168.234 181.613C168.226 181.757 168.877 181.899 169.688 181.93C170.499 181.96 171.164 181.867 171.173 181.722C171.212 181.051 172.36 180.495 171.494 179.914L171.494 179.913Z" fill="#CCCCCC"/>
</g>
<path d="M113.622 210.49H115.782L115.672 210.15C115.419 209.363 115.212 208.713 115.052 208.2C114.892 207.68 114.796 207.357 114.762 207.23L114.712 207.04C114.639 207.353 114.312 208.39 113.732 210.15L113.622 210.49ZM116.592 213L116.062 211.35H113.342L112.802 213H111.712L114.042 206.26H115.392L117.692 213H116.592ZM119.674 207.93V208.8C119.974 208.173 120.501 207.86 121.254 207.86C121.754 207.86 122.151 208.013 122.444 208.32C122.737 208.627 122.884 209.043 122.884 209.57V213H121.904V209.8C121.904 209.447 121.814 209.177 121.634 208.99C121.461 208.803 121.227 208.71 120.934 208.71C120.587 208.71 120.291 208.847 120.044 209.12C119.797 209.387 119.674 209.763 119.674 210.25V213H118.694V207.93H119.674ZM126.252 212.21C126.638 212.21 126.965 212.063 127.232 211.77C127.498 211.477 127.632 211.03 127.632 210.43C127.632 209.85 127.492 209.42 127.212 209.14C126.938 208.86 126.628 208.72 126.282 208.72C125.888 208.72 125.565 208.877 125.312 209.19C125.058 209.497 124.932 209.937 124.932 210.51C124.932 211.017 125.055 211.427 125.302 211.74C125.555 212.053 125.872 212.21 126.252 212.21ZM127.632 205.93H128.622V213H127.632V212.23C127.278 212.79 126.762 213.07 126.082 213.07C125.415 213.07 124.888 212.82 124.502 212.32C124.115 211.813 123.922 211.203 123.922 210.49C123.922 209.697 124.125 209.06 124.532 208.58C124.938 208.1 125.462 207.86 126.102 207.86C126.762 207.86 127.272 208.14 127.632 208.7V205.93ZM132.673 210.74H131.913C131.539 210.74 131.256 210.813 131.063 210.96C130.876 211.107 130.782 211.293 130.782 211.52C130.782 211.753 130.856 211.937 131.003 212.07C131.149 212.203 131.363 212.27 131.643 212.27C131.963 212.27 132.213 212.183 132.393 212.01C132.579 211.83 132.673 211.597 132.673 211.31V210.74ZM130.123 209.14V208.19C130.516 207.963 131.036 207.85 131.683 207.85C133.009 207.85 133.673 208.493 133.673 209.78V213H132.703V212.4C132.443 212.827 131.986 213.04 131.333 213.04C130.853 213.04 130.466 212.903 130.173 212.63C129.886 212.35 129.743 211.997 129.743 211.57C129.743 211.083 129.926 210.707 130.293 210.44C130.659 210.167 131.173 210.03 131.833 210.03H132.673V209.74C132.673 209.393 132.589 209.133 132.423 208.96C132.256 208.78 131.979 208.69 131.593 208.69C131.053 208.69 130.562 208.84 130.123 209.14ZM138.724 208.69V211.48C138.724 211.967 138.957 212.21 139.424 212.21C139.697 212.21 139.927 212.137 140.114 211.99V212.87C139.894 212.99 139.624 213.05 139.304 213.05C138.257 213.05 137.734 212.52 137.734 211.46V208.69H136.944V207.93H137.734V206.69H138.724V207.93H140.054V208.69H138.724ZM144.344 210.1V209.92C144.331 209.54 144.227 209.24 144.034 209.02C143.841 208.793 143.564 208.68 143.204 208.68C142.871 208.68 142.584 208.803 142.344 209.05C142.104 209.29 141.954 209.64 141.894 210.1H144.344ZM144.974 211.85V212.73C144.601 212.943 144.107 213.05 143.494 213.05C142.707 213.05 142.081 212.813 141.614 212.34C141.147 211.867 140.914 211.247 140.914 210.48C140.914 209.667 141.127 209.03 141.554 208.57C141.981 208.103 142.524 207.87 143.184 207.87C143.831 207.87 144.344 208.073 144.724 208.48C145.104 208.88 145.294 209.46 145.294 210.22C145.294 210.427 145.274 210.643 145.234 210.87H141.904C141.971 211.31 142.157 211.647 142.464 211.88C142.771 212.113 143.157 212.23 143.624 212.23C144.164 212.23 144.614 212.103 144.974 211.85ZM146.488 213V205.93H147.478V213H146.488ZM151.569 210.74H150.809C150.436 210.74 150.152 210.813 149.959 210.96C149.772 211.107 149.679 211.293 149.679 211.52C149.679 211.753 149.752 211.937 149.899 212.07C150.046 212.203 150.259 212.27 150.539 212.27C150.859 212.27 151.109 212.183 151.289 212.01C151.476 211.83 151.569 211.597 151.569 211.31V210.74ZM149.019 209.14V208.19C149.412 207.963 149.932 207.85 150.579 207.85C151.906 207.85 152.569 208.493 152.569 209.78V213H151.599V212.4C151.339 212.827 150.882 213.04 150.229 213.04C149.749 213.04 149.362 212.903 149.069 212.63C148.782 212.35 148.639 211.997 148.639 211.57C148.639 211.083 148.822 210.707 149.189 210.44C149.556 210.167 150.069 210.03 150.729 210.03H151.569V209.74C151.569 209.393 151.486 209.133 151.319 208.96C151.152 208.78 150.876 208.69 150.489 208.69C149.949 208.69 149.459 208.84 149.019 209.14ZM154.869 205.93V208.8C155.156 208.173 155.679 207.86 156.439 207.86C156.933 207.86 157.329 208.013 157.629 208.32C157.929 208.627 158.079 209.053 158.079 209.6V213H157.099V209.8C157.099 209.453 157.009 209.187 156.829 209C156.656 208.807 156.426 208.71 156.139 208.71C155.806 208.71 155.509 208.837 155.249 209.09C154.996 209.343 154.869 209.73 154.869 210.25V213H153.889V205.93H154.869ZM163.128 208.69V211.48C163.128 211.967 163.361 212.21 163.828 212.21C164.101 212.21 164.331 212.137 164.518 211.99V212.87C164.298 212.99 164.028 213.05 163.708 213.05C162.661 213.05 162.138 212.52 162.138 211.46V208.69H161.348V207.93H162.138V206.69H163.128V207.93H164.458V208.69H163.128ZM168.748 210.1V209.92C168.735 209.54 168.632 209.24 168.438 209.02C168.245 208.793 167.968 208.68 167.608 208.68C167.275 208.68 166.988 208.803 166.748 209.05C166.508 209.29 166.358 209.64 166.298 210.1H168.748ZM169.378 211.85V212.73C169.005 212.943 168.512 213.05 167.898 213.05C167.112 213.05 166.485 212.813 166.018 212.34C165.552 211.867 165.318 211.247 165.318 210.48C165.318 209.667 165.532 209.03 165.958 208.57C166.385 208.103 166.928 207.87 167.588 207.87C168.235 207.87 168.748 208.073 169.128 208.48C169.508 208.88 169.698 209.46 169.698 210.22C169.698 210.427 169.678 210.643 169.638 210.87H166.308C166.375 211.31 166.562 211.647 166.868 211.88C167.175 212.113 167.562 212.23 168.028 212.23C168.568 212.23 169.018 212.103 169.378 211.85ZM171.832 207.93V208.82C172.079 208.193 172.522 207.88 173.162 207.88C173.255 207.88 173.359 207.89 173.472 207.91V208.87C173.332 208.81 173.175 208.78 173.002 208.78C172.662 208.78 172.382 208.93 172.162 209.23C171.942 209.53 171.832 209.887 171.832 210.3V213H170.852V207.93H171.832ZM175.511 208.69V211.48C175.511 211.967 175.744 212.21 176.211 212.21C176.484 212.21 176.714 212.137 176.901 211.99V212.87C176.681 212.99 176.411 213.05 176.091 213.05C175.044 213.05 174.521 212.52 174.521 211.46V208.69H173.731V207.93H174.521V206.69H175.511V207.93H176.841V208.69H175.511ZM178.021 213V207.93H179.011V213H178.021ZM178.071 206.82C177.958 206.7 177.901 206.553 177.901 206.38C177.901 206.207 177.958 206.06 178.071 205.94C178.191 205.82 178.338 205.76 178.511 205.76C178.684 205.76 178.831 205.82 178.951 205.94C179.071 206.06 179.131 206.207 179.131 206.38C179.131 206.547 179.071 206.69 178.951 206.81C178.831 206.93 178.684 206.99 178.511 206.99C178.338 206.99 178.191 206.933 178.071 206.82ZM182.772 212.21C183.166 212.21 183.489 212.057 183.742 211.75C183.996 211.437 184.122 211 184.122 210.44C184.122 209.913 183.999 209.497 183.752 209.19C183.506 208.877 183.192 208.72 182.812 208.72C182.432 208.72 182.102 208.86 181.822 209.14C181.549 209.413 181.412 209.85 181.412 210.45C181.412 211.037 181.549 211.477 181.822 211.77C182.102 212.063 182.419 212.21 182.772 212.21ZM181.412 207.93V208.71C181.759 208.143 182.279 207.86 182.972 207.86C183.639 207.86 184.166 208.103 184.552 208.59C184.939 209.07 185.132 209.683 185.132 210.43C185.132 211.197 184.932 211.83 184.532 212.33C184.139 212.823 183.612 213.07 182.952 213.07C182.279 213.07 181.766 212.79 181.412 212.23V214.94H180.432V207.93H181.412ZM189.383 207.93H190.363V213H189.383V212.13C189.116 212.75 188.59 213.06 187.803 213.06C187.303 213.06 186.906 212.913 186.613 212.62C186.32 212.32 186.173 211.91 186.173 211.39V207.93H187.163V211.15C187.163 211.497 187.246 211.763 187.413 211.95C187.586 212.13 187.823 212.22 188.123 212.22C188.503 212.22 188.806 212.087 189.033 211.82C189.266 211.553 189.383 211.177 189.383 210.69V207.93ZM197.092 208.1V208.99C196.765 208.797 196.345 208.7 195.832 208.7C195.598 208.7 195.412 208.753 195.272 208.86C195.138 208.967 195.072 209.107 195.072 209.28C195.072 209.327 195.075 209.373 195.082 209.42C195.095 209.46 195.115 209.503 195.142 209.55C195.168 209.59 195.192 209.627 195.212 209.66C195.238 209.687 195.278 209.717 195.332 209.75C195.385 209.783 195.425 209.813 195.452 209.84C195.485 209.86 195.535 209.887 195.602 209.92C195.675 209.953 195.728 209.98 195.762 210C195.795 210.013 195.852 210.04 195.932 210.08C196.018 210.113 196.078 210.137 196.112 210.15C196.505 210.323 196.812 210.52 197.032 210.74C197.258 210.953 197.372 211.24 197.372 211.6C197.372 212.053 197.212 212.41 196.892 212.67C196.572 212.923 196.138 213.05 195.592 213.05C194.992 213.05 194.492 212.95 194.092 212.75V211.82C194.558 212.107 195.042 212.25 195.542 212.25C195.802 212.25 196.002 212.197 196.142 212.09C196.288 211.983 196.362 211.843 196.362 211.67C196.362 211.523 196.305 211.393 196.192 211.28C196.078 211.16 195.962 211.073 195.842 211.02C195.728 210.96 195.532 210.87 195.252 210.75C194.458 210.423 194.062 209.943 194.062 209.31C194.062 208.863 194.228 208.513 194.562 208.26C194.895 208.007 195.312 207.88 195.812 207.88C196.358 207.88 196.785 207.953 197.092 208.1ZM201.541 210.1V209.92C201.528 209.54 201.425 209.24 201.231 209.02C201.038 208.793 200.761 208.68 200.401 208.68C200.068 208.68 199.781 208.803 199.541 209.05C199.301 209.29 199.151 209.64 199.091 210.1H201.541ZM202.171 211.85V212.73C201.798 212.943 201.305 213.05 200.691 213.05C199.905 213.05 199.278 212.813 198.811 212.34C198.345 211.867 198.111 211.247 198.111 210.48C198.111 209.667 198.325 209.03 198.751 208.57C199.178 208.103 199.721 207.87 200.381 207.87C201.028 207.87 201.541 208.073 201.921 208.48C202.301 208.88 202.491 209.46 202.491 210.22C202.491 210.427 202.471 210.643 202.431 210.87H199.101C199.168 211.31 199.355 211.647 199.661 211.88C199.968 212.113 200.355 212.23 200.821 212.23C201.361 212.23 201.811 212.103 202.171 211.85ZM206.035 212.21C206.408 212.21 206.722 212.053 206.975 211.74C207.228 211.42 207.355 211.01 207.355 210.51C207.355 209.937 207.228 209.497 206.975 209.19C206.722 208.877 206.398 208.72 206.005 208.72C205.658 208.72 205.345 208.86 205.065 209.14C204.792 209.42 204.655 209.85 204.655 210.43C204.655 211.03 204.788 211.477 205.055 211.77C205.322 212.063 205.648 212.21 206.035 212.21ZM204.655 205.93V208.7C205.015 208.14 205.525 207.86 206.185 207.86C206.825 207.86 207.348 208.1 207.755 208.58C208.162 209.06 208.365 209.697 208.365 210.49C208.365 211.203 208.172 211.813 207.785 212.32C207.398 212.82 206.868 213.07 206.195 213.07C205.522 213.07 205.008 212.79 204.655 212.23V213H203.665V205.93H204.655ZM212.615 210.1V209.92C212.602 209.54 212.499 209.24 212.305 209.02C212.112 208.793 211.835 208.68 211.475 208.68C211.142 208.68 210.855 208.803 210.615 209.05C210.375 209.29 210.225 209.64 210.165 210.1H212.615ZM213.245 211.85V212.73C212.872 212.943 212.379 213.05 211.765 213.05C210.979 213.05 210.352 212.813 209.885 212.34C209.419 211.867 209.185 211.247 209.185 210.48C209.185 209.667 209.399 209.03 209.825 208.57C210.252 208.103 210.795 207.87 211.455 207.87C212.102 207.87 212.615 208.073 212.995 208.48C213.375 208.88 213.565 209.46 213.565 210.22C213.565 210.427 213.545 210.643 213.505 210.87H210.175C210.242 211.31 210.429 211.647 210.735 211.88C211.042 212.113 211.429 212.23 211.895 212.23C212.435 212.23 212.885 212.103 213.245 211.85ZM217.609 208.1V208.99C217.283 208.797 216.863 208.7 216.349 208.7C216.116 208.7 215.929 208.753 215.789 208.86C215.656 208.967 215.589 209.107 215.589 209.28C215.589 209.327 215.593 209.373 215.599 209.42C215.613 209.46 215.633 209.503 215.659 209.55C215.686 209.59 215.709 209.627 215.729 209.66C215.756 209.687 215.796 209.717 215.849 209.75C215.903 209.783 215.943 209.813 215.969 209.84C216.003 209.86 216.053 209.887 216.119 209.92C216.193 209.953 216.246 209.98 216.279 210C216.313 210.013 216.369 210.04 216.449 210.08C216.536 210.113 216.596 210.137 216.629 210.15C217.023 210.323 217.329 210.52 217.549 210.74C217.776 210.953 217.889 211.24 217.889 211.6C217.889 212.053 217.729 212.41 217.409 212.67C217.089 212.923 216.656 213.05 216.109 213.05C215.509 213.05 215.009 212.95 214.609 212.75V211.82C215.076 212.107 215.559 212.25 216.059 212.25C216.319 212.25 216.519 212.197 216.659 212.09C216.806 211.983 216.879 211.843 216.879 211.67C216.879 211.523 216.823 211.393 216.709 211.28C216.596 211.16 216.479 211.073 216.359 211.02C216.246 210.96 216.049 210.87 215.769 210.75C214.976 210.423 214.579 209.943 214.579 209.31C214.579 208.863 214.746 208.513 215.079 208.26C215.413 208.007 215.829 207.88 216.329 207.88C216.876 207.88 217.303 207.953 217.609 208.1ZM221.579 210.74H220.819C220.445 210.74 220.162 210.813 219.969 210.96C219.782 211.107 219.689 211.293 219.689 211.52C219.689 211.753 219.762 211.937 219.909 212.07C220.055 212.203 220.269 212.27 220.549 212.27C220.869 212.27 221.119 212.183 221.299 212.01C221.485 211.83 221.579 211.597 221.579 211.31V210.74ZM219.029 209.14V208.19C219.422 207.963 219.942 207.85 220.589 207.85C221.915 207.85 222.579 208.493 222.579 209.78V213H221.609V212.4C221.349 212.827 220.892 213.04 220.239 213.04C219.759 213.04 219.372 212.903 219.079 212.63C218.792 212.35 218.649 211.997 218.649 211.57C218.649 211.083 218.832 210.707 219.199 210.44C219.565 210.167 220.079 210.03 220.739 210.03H221.579V209.74C221.579 209.393 221.495 209.133 221.329 208.96C221.162 208.78 220.885 208.69 220.499 208.69C219.959 208.69 219.469 208.84 219.029 209.14ZM224.879 207.93V208.82C225.126 208.193 225.569 207.88 226.209 207.88C226.302 207.88 226.406 207.89 226.519 207.91V208.87C226.379 208.81 226.222 208.78 226.049 208.78C225.709 208.78 225.429 208.93 225.209 209.23C224.989 209.53 224.879 209.887 224.879 210.3V213H223.899V207.93H224.879Z" fill="#2B2B2B"/>
<path d="M139.534 223.3V225.5H140.374C140.761 225.5 141.051 225.403 141.244 225.21C141.438 225.01 141.534 224.733 141.534 224.38C141.534 224.033 141.431 223.767 141.224 223.58C141.024 223.393 140.734 223.3 140.354 223.3H139.534ZM141.754 229L140.224 226.54H139.534V229H138.274V222.26H140.354C141.121 222.26 141.721 222.453 142.154 222.84C142.594 223.227 142.814 223.743 142.814 224.39C142.808 224.87 142.691 225.277 142.464 225.61C142.238 225.937 141.928 226.18 141.534 226.34L143.264 229H141.754ZM146.573 228.04C146.933 228.04 147.226 227.903 147.453 227.63C147.68 227.35 147.793 226.96 147.793 226.46C147.793 225.96 147.68 225.573 147.453 225.3C147.226 225.02 146.94 224.88 146.593 224.88C146.246 224.88 145.946 225.01 145.693 225.27C145.44 225.53 145.313 225.917 145.313 226.43C145.313 226.943 145.436 227.34 145.683 227.62C145.93 227.9 146.226 228.04 146.573 228.04ZM145.313 223.93V224.71C145.673 224.143 146.19 223.86 146.863 223.86C147.523 223.86 148.046 224.097 148.433 224.57C148.826 225.043 149.023 225.667 149.023 226.44C149.023 227.2 148.826 227.83 148.433 228.33C148.046 228.823 147.52 229.07 146.853 229.07C146.173 229.07 145.66 228.793 145.313 228.24V230.91H144.113V223.93H145.313ZM153.871 227.97H156.481V229H152.211V228.04C152.991 227.487 153.664 226.897 154.231 226.27C154.798 225.637 155.081 225.067 155.081 224.56C155.081 224.227 154.984 223.967 154.791 223.78C154.598 223.593 154.318 223.5 153.951 223.5C153.398 223.5 152.868 223.707 152.361 224.12V222.95C152.581 222.783 152.854 222.647 153.181 222.54C153.508 222.433 153.834 222.38 154.161 222.38C154.801 222.38 155.321 222.557 155.721 222.91C156.128 223.257 156.331 223.747 156.331 224.38C156.331 225.567 155.511 226.763 153.871 227.97ZM157.241 225.7C157.241 224.667 157.445 223.85 157.851 223.25C158.258 222.643 158.835 222.34 159.581 222.34C160.335 222.34 160.915 222.643 161.321 223.25C161.735 223.85 161.941 224.667 161.941 225.7C161.941 226.727 161.738 227.547 161.331 228.16C160.931 228.773 160.348 229.08 159.581 229.08C158.835 229.08 158.258 228.773 157.851 228.16C157.445 227.547 157.241 226.727 157.241 225.7ZM158.771 224.02C158.571 224.407 158.471 224.967 158.471 225.7C158.471 226.433 158.568 227 158.761 227.4C158.961 227.793 159.235 227.99 159.581 227.99C159.941 227.99 160.218 227.793 160.411 227.4C160.611 227.007 160.711 226.44 160.711 225.7C160.711 224.96 160.608 224.397 160.401 224.01C160.201 223.623 159.928 223.43 159.581 223.43C159.241 223.43 158.971 223.627 158.771 224.02ZM162.25 230.26L163.23 227.79H164.62L163.29 230.26H162.25ZM165.376 225.7C165.376 224.667 165.579 223.85 165.986 223.25C166.393 222.643 166.969 222.34 167.716 222.34C168.469 222.34 169.049 222.643 169.456 223.25C169.869 223.85 170.076 224.667 170.076 225.7C170.076 226.727 169.873 227.547 169.466 228.16C169.066 228.773 168.483 229.08 167.716 229.08C166.969 229.08 166.393 228.773 165.986 228.16C165.579 227.547 165.376 226.727 165.376 225.7ZM166.906 224.02C166.706 224.407 166.606 224.967 166.606 225.7C166.606 226.433 166.703 227 166.896 227.4C167.096 227.793 167.369 227.99 167.716 227.99C168.076 227.99 168.353 227.793 168.546 227.4C168.746 227.007 168.846 226.44 168.846 225.7C168.846 224.96 168.743 224.397 168.536 224.01C168.336 223.623 168.063 223.43 167.716 223.43C167.376 223.43 167.106 223.627 166.906 224.02ZM170.835 225.7C170.835 224.667 171.038 223.85 171.445 223.25C171.852 222.643 172.428 222.34 173.175 222.34C173.928 222.34 174.508 222.643 174.915 223.25C175.328 223.85 175.535 224.667 175.535 225.7C175.535 226.727 175.332 227.547 174.925 228.16C174.525 228.773 173.942 229.08 173.175 229.08C172.428 229.08 171.852 228.773 171.445 228.16C171.038 227.547 170.835 226.727 170.835 225.7ZM172.365 224.02C172.165 224.407 172.065 224.967 172.065 225.7C172.065 226.433 172.162 227 172.355 227.4C172.555 227.793 172.828 227.99 173.175 227.99C173.535 227.99 173.812 227.793 174.005 227.4C174.205 227.007 174.305 226.44 174.305 225.7C174.305 224.96 174.202 224.397 173.995 224.01C173.795 223.623 173.522 223.43 173.175 223.43C172.835 223.43 172.565 223.627 172.365 224.02ZM176.294 225.7C176.294 224.667 176.497 223.85 176.904 223.25C177.311 222.643 177.887 222.34 178.634 222.34C179.387 222.34 179.967 222.643 180.374 223.25C180.787 223.85 180.994 224.667 180.994 225.7C180.994 226.727 180.791 227.547 180.384 228.16C179.984 228.773 179.401 229.08 178.634 229.08C177.887 229.08 177.311 228.773 176.904 228.16C176.497 227.547 176.294 226.727 176.294 225.7ZM177.824 224.02C177.624 224.407 177.524 224.967 177.524 225.7C177.524 226.433 177.621 227 177.814 227.4C178.014 227.793 178.287 227.99 178.634 227.99C178.994 227.99 179.271 227.793 179.464 227.4C179.664 227.007 179.764 226.44 179.764 225.7C179.764 224.96 179.661 224.397 179.454 224.01C179.254 223.623 178.981 223.43 178.634 223.43C178.294 223.43 178.024 223.627 177.824 224.02ZM181.303 230.26L182.283 227.79H183.673L182.343 230.26H181.303ZM184.429 225.7C184.429 224.667 184.632 223.85 185.039 223.25C185.445 222.643 186.022 222.34 186.769 222.34C187.522 222.34 188.102 222.643 188.509 223.25C188.922 223.85 189.129 224.667 189.129 225.7C189.129 226.727 188.925 227.547 188.519 228.16C188.119 228.773 187.535 229.08 186.769 229.08C186.022 229.08 185.445 228.773 185.039 228.16C184.632 227.547 184.429 226.727 184.429 225.7ZM185.959 224.02C185.759 224.407 185.659 224.967 185.659 225.7C185.659 226.433 185.755 227 185.949 227.4C186.149 227.793 186.422 227.99 186.769 227.99C187.129 227.99 187.405 227.793 187.599 227.4C187.799 227.007 187.899 226.44 187.899 225.7C187.899 224.96 187.795 224.397 187.589 224.01C187.389 223.623 187.115 223.43 186.769 223.43C186.429 223.43 186.159 223.627 185.959 224.02ZM189.888 225.7C189.888 224.667 190.091 223.85 190.498 223.25C190.904 222.643 191.481 222.34 192.228 222.34C192.981 222.34 193.561 222.643 193.968 223.25C194.381 223.85 194.588 224.667 194.588 225.7C194.588 226.727 194.384 227.547 193.978 228.16C193.578 228.773 192.994 229.08 192.228 229.08C191.481 229.08 190.904 228.773 190.498 228.16C190.091 227.547 189.888 226.727 189.888 225.7ZM191.418 224.02C191.218 224.407 191.118 224.967 191.118 225.7C191.118 226.433 191.214 227 191.408 227.4C191.608 227.793 191.881 227.99 192.228 227.99C192.588 227.99 192.864 227.793 193.058 227.4C193.258 227.007 193.358 226.44 193.358 225.7C193.358 224.96 193.254 224.397 193.048 224.01C192.848 223.623 192.574 223.43 192.228 223.43C191.888 223.43 191.618 223.627 191.418 224.02ZM195.347 225.7C195.347 224.667 195.55 223.85 195.957 223.25C196.363 222.643 196.94 222.34 197.687 222.34C198.44 222.34 199.02 222.643 199.427 223.25C199.84 223.85 200.047 224.667 200.047 225.7C200.047 226.727 199.843 227.547 199.437 228.16C199.037 228.773 198.453 229.08 197.687 229.08C196.94 229.08 196.363 228.773 195.957 228.16C195.55 227.547 195.347 226.727 195.347 225.7ZM196.877 224.02C196.677 224.407 196.577 224.967 196.577 225.7C196.577 226.433 196.673 227 196.867 227.4C197.067 227.793 197.34 227.99 197.687 227.99C198.047 227.99 198.323 227.793 198.517 227.4C198.717 227.007 198.817 226.44 198.817 225.7C198.817 224.96 198.713 224.397 198.507 224.01C198.307 223.623 198.033 223.43 197.687 223.43C197.347 223.43 197.077 223.627 196.877 224.02Z" fill="#FF1934"/>
<rect x="109" y="275" width="120" height="24" rx="8" fill="#FF1934"/>
<path d="M157.959 288.176L158.823 288.176C159.468 288.176 159.791 287.931 159.791 287.44C159.791 286.939 159.455 286.688 158.783 286.688L157.959 286.688L157.959 288.176ZM157.959 284.432L157.959 285.88L158.567 285.88C158.929 285.88 159.201 285.808 159.383 285.664C159.564 285.52 159.655 285.336 159.655 285.112C159.655 284.904 159.577 284.739 159.423 284.616C159.273 284.493 159.044 284.432 158.735 284.432L157.959 284.432ZM156.951 283.608L158.863 283.608C159.439 283.608 159.887 283.744 160.207 284.016C160.527 284.288 160.687 284.64 160.687 285.072C160.687 285.365 160.607 285.621 160.447 285.84C160.287 286.053 160.081 286.195 159.831 286.264C160.119 286.333 160.356 286.475 160.543 286.688C160.729 286.896 160.823 287.181 160.823 287.544C160.823 287.971 160.673 288.32 160.375 288.592C160.076 288.864 159.663 289 159.135 289L156.951 289L156.951 283.608ZM163.053 286.952L164.573 286.952L164.501 286.712C164.32 286.136 164.17 285.653 164.053 285.264C163.941 284.869 163.872 284.621 163.845 284.52L163.813 284.36C163.765 284.627 163.536 285.413 163.125 286.72L163.053 286.952ZM165.213 289L164.829 287.776L162.789 287.776L162.405 289L161.349 289L163.173 283.608L164.477 283.608L166.301 289L165.213 289ZM171.364 283.608L169.508 287L169.508 289L168.5 289L168.5 287.032L166.66 283.608L167.836 283.608L168.196 284.392C168.404 284.845 168.574 285.227 168.708 285.536C168.841 285.84 168.921 286.029 168.948 286.104L168.996 286.224C169.044 286.027 169.318 285.416 169.82 284.392L170.188 283.608L171.364 283.608ZM173.436 286.952L174.956 286.952L174.884 286.712C174.702 286.136 174.553 285.653 174.436 285.264C174.324 284.869 174.254 284.621 174.228 284.52L174.196 284.36C174.148 284.627 173.918 285.413 173.508 286.72L173.436 286.952ZM175.596 289L175.212 287.776L173.172 287.776L172.788 289L171.732 289L173.556 283.608L174.86 283.608L176.684 289L175.596 289ZM178.466 284.44L178.466 286.2L179.138 286.2C179.448 286.2 179.68 286.123 179.834 285.968C179.989 285.808 180.066 285.587 180.066 285.304C180.066 285.027 179.984 284.813 179.818 284.664C179.658 284.515 179.426 284.44 179.122 284.44L178.466 284.44ZM180.242 289L179.018 287.032L178.466 287.032L178.466 289L177.458 289L177.458 283.608L179.122 283.608C179.736 283.608 180.216 283.763 180.562 284.072C180.914 284.381 181.09 284.795 181.09 285.312C181.085 285.696 180.992 286.021 180.81 286.288C180.629 286.549 180.381 286.744 180.066 286.872L181.45 289L180.242 289Z" fill="white"/>
<path d="M9 341.5H329C333.694 341.5 337.5 345.306 337.5 350C337.5 354.694 333.694 358.5 329 358.5H9C4.30558 358.5 0.5 354.694 0.5 350C0.500002 345.306 4.30558 341.5 9 341.5Z" fill="white"/>
<path d="M9 341.5H329C333.694 341.5 337.5 345.306 337.5 350C337.5 354.694 333.694 358.5 329 358.5H9C4.30558 358.5 0.5 354.694 0.5 350C0.500002 345.306 4.30558 341.5 9 341.5Z" stroke="#CCCCCC"/>
<path d="M7.86805e-07 350C3.52265e-07 345.029 4.02944 341 9 341L39 341C43.9706 341 48 345.029 48 350C48 354.971 43.9706 359 39 359L9 359C4.02944 359 1.22135e-06 354.971 7.86805e-07 350Z" fill="#FF1934"/>
<path d="M15.448 346.688H16.264L16.816 348.6L17.456 350.92C17.5893 350.179 17.7547 349.403 17.952 348.592L18.44 346.608H19.464L18.088 352H16.92L16.432 350.296C16.2987 349.843 16.184 349.443 16.088 349.096C15.9973 348.749 15.936 348.517 15.904 348.4L15.864 348.216C15.7893 348.589 15.6027 349.283 15.304 350.296L14.8 352H13.64L12.2 346.608H13.264L13.768 348.6C13.8533 348.957 13.9387 349.328 14.024 349.712C14.1093 350.096 14.1733 350.389 14.216 350.592L14.28 350.904C14.4507 350.232 14.6587 349.464 14.904 348.6L15.448 346.688ZM22.2561 350.256H21.7601C21.5094 350.256 21.3174 350.309 21.1841 350.416C21.0507 350.517 20.9841 350.648 20.9841 350.808C20.9841 351.149 21.1814 351.32 21.5761 351.32C21.7894 351.32 21.9547 351.259 22.0721 351.136C22.1947 351.008 22.2561 350.843 22.2561 350.64V350.256ZM20.2881 349.04V348.152C20.5921 347.965 21.0294 347.872 21.6001 347.872C22.6987 347.872 23.2481 348.384 23.2481 349.408V352H22.2961V351.512C22.1094 351.859 21.7574 352.032 21.2401 352.032C20.8561 352.032 20.5494 351.92 20.3201 351.696C20.0961 351.472 19.9841 351.189 19.9841 350.848C19.9841 350.464 20.1281 350.163 20.4161 349.944C20.7041 349.725 21.1201 349.616 21.6641 349.616H22.2561V349.368C22.2561 349.144 22.1974 348.973 22.0801 348.856C21.9627 348.739 21.7627 348.68 21.4801 348.68C21.0481 348.68 20.6507 348.8 20.2881 349.04ZM27.7828 352H26.6548L25.1988 349.904V352H24.2388V346.44H25.1988V349.848L26.6308 347.944H27.7508L26.2628 349.88L27.7828 352ZM29.5864 348.664V350.728C29.5864 350.899 29.6318 351.029 29.7224 351.12C29.8131 351.205 29.9384 351.248 30.0984 351.248C30.3011 351.248 30.4878 351.192 30.6584 351.08V351.904C30.4718 351.995 30.2318 352.04 29.9384 352.04C29.0638 352.04 28.6264 351.597 28.6264 350.712V348.664H28.0184V347.944H28.6264V346.968H29.5864V347.944H30.5944V348.664H29.5864ZM33.9617 347.944H34.9297V352H33.9617V351.336C33.7484 351.805 33.3324 352.04 32.7137 352.04C32.303 352.04 31.983 351.923 31.7537 351.688C31.5244 351.453 31.4097 351.12 31.4097 350.688V347.944H32.3697V350.464C32.3697 350.72 32.431 350.915 32.5537 351.048C32.6817 351.181 32.855 351.248 33.0737 351.248C33.351 351.248 33.567 351.155 33.7217 350.968C33.8817 350.781 33.9617 350.499 33.9617 350.12V347.944Z" fill="white"/>
<rect x="56" y="348" width="274" height="4" rx="2" fill="#CCCCCC"/>
<mask id="mask0_1124_4113" style="mask-type:alpha" maskUnits="userSpaceOnUse" x="56" y="348" width="274" height="4">
<rect x="56" y="348" width="274" height="4" rx="2" fill="#CCCCCC"/>
</mask>
<g mask="url(#mask0_1124_4113)">
<rect x="56" y="348" width="274" height="4" rx="2" fill="#FF1934"/>
</g>
<defs>
<filter id="filter0_d_1124_4113" x="22.5" y="48" width="293" height="56" filterUnits="userSpaceOnUse" color-interpolation-filters="sRGB">
<feFlood flood-opacity="0" result="BackgroundImageFix"/>
<feColorMatrix in="SourceAlpha" type="matrix" values="0 0 0 0 0 0 0 0 0 0 0 0 0 0 0 0 0 0 127 0" result="hardAlpha"/>
<feOffset dy="2"/>
<feGaussianBlur stdDeviation="2"/>
<feComposite in2="hardAlpha" operator="out"/>
<feColorMatrix type="matrix" values="0 0 0 0 0.168627 0 0 0 0 0.168627 0 0 0 0 0.168627 0 0 0 0.24 0"/>
<feBlend mode="normal" in2="BackgroundImageFix" result="effect1_dropShadow_1124_4113"/>
<feBlend mode="normal" in="SourceGraphic" in2="effect1_dropShadow_1124_4113" result="shape"/>
</filter>
<clipPath id="clip0_1124_4113">
<rect width="24" height="24" fill="white" transform="translate(42.5 66)"/>
</clipPath>
<clipPath id="clip1_1124_4113">
<rect width="64" height="64" fill="white" transform="translate(137 130)"/>
</clipPath>
</defs>
</svg>
