<svg width="338" height="375" viewBox="0 0 338 375" fill="none" xmlns="http://www.w3.org/2000/svg">
<rect width="338" height="375" fill="#D3D3D3"/>
<rect x="9" y="50" width="320" height="265" rx="16" fill="white"/>
<g filter="url(#filter0_d_1124_4113)">
<path d="M9 66C9 57.1634 16.1634 50 25 50H313C321.837 50 329 57.1634 329 66V98H9V66Z" fill="#FF1934" shape-rendering="crispEdges"/>
<g clip-path="url(#clip0_1124_4113)">
<path fill-rule="evenodd" clip-rule="evenodd" d="M27 78C27 72.49 31.49 68 37 68C42.51 68 47 72.49 47 78C47 83.51 42.51 88 37 88C31.49 88 27 83.51 27 78ZM28.6 78C28.6 82.63 32.37 86.4 37 86.4C41.63 86.4 45.4 82.63 45.4 78C45.4 73.37 41.63 69.6 37 69.6C32.37 69.6 28.6 73.37 28.6 78ZM32.2 78C32.2 77.56 32.56 77.2 33 77.2H41C41.44 77.2 41.8 77.56 41.8 78C41.8 78.44 41.44 78.8 41 78.8H33C32.56 78.8 32.2 78.44 32.2 78Z" fill="white"/>
</g>
<path d="M57.56 77.254C57.56 75.8073 57.9753 74.6407 58.806 73.754C59.646 72.858 60.7613 72.41 62.152 72.41C63.552 72.41 64.6673 72.8533 65.498 73.74C66.3287 74.6267 66.744 75.798 66.744 77.254C66.744 78.7007 66.324 79.872 65.484 80.768C64.6533 81.6547 63.5427 82.098 62.152 82.098C60.752 82.098 59.6367 81.6547 58.806 80.768C57.9753 79.8813 57.56 78.71 57.56 77.254ZM60.486 75.154C60.0753 75.6673 59.87 76.3673 59.87 77.254C59.87 78.1407 60.0753 78.8453 60.486 79.368C60.8967 79.8813 61.452 80.138 62.152 80.138C62.852 80.138 63.4073 79.8813 63.818 79.368C64.2287 78.8453 64.434 78.1407 64.434 77.254C64.434 76.3673 64.2287 75.6673 63.818 75.154C63.4073 74.6313 62.852 74.37 62.152 74.37C61.452 74.37 60.8967 74.6313 60.486 75.154ZM70.1786 74.902V76.218C70.3093 75.8073 70.5239 75.4807 70.8226 75.238C71.1306 74.986 71.4853 74.86 71.8866 74.86C72.1106 74.86 72.2879 74.8787 72.4186 74.916V76.848C72.1946 76.7453 71.9379 76.694 71.6486 76.694C71.2099 76.694 70.8553 76.8573 70.5846 77.184C70.3139 77.5013 70.1786 77.926 70.1786 78.458V82H68.1346L68.1486 74.902H70.1786ZM76.8442 79.088H76.1862C75.8409 79.088 75.5749 79.1627 75.3882 79.312C75.2016 79.4613 75.1082 79.6527 75.1082 79.886C75.1082 80.362 75.3836 80.6 75.9342 80.6C76.2236 80.6 76.4476 80.5113 76.6062 80.334C76.7649 80.1567 76.8442 79.914 76.8442 79.606V79.088ZM73.5262 77.086V75.252C74.0862 74.9347 74.8936 74.776 75.9482 74.776C76.9562 74.776 77.7076 74.9953 78.2022 75.434C78.6969 75.8633 78.9442 76.5353 78.9442 77.45V82H76.9422V81.132C76.6436 81.7387 76.0556 82.042 75.1782 82.042C74.4876 82.042 73.9462 81.846 73.5542 81.454C73.1716 81.062 72.9802 80.572 72.9802 79.984C72.9802 79.3027 73.2276 78.7753 73.7222 78.402C74.2262 78.0193 74.9682 77.828 75.9482 77.828H76.8442V77.338C76.8442 76.7407 76.4476 76.442 75.6542 76.442C74.8889 76.442 74.1796 76.6567 73.5262 77.086ZM82.593 74.902V76.106C82.7703 75.714 83.041 75.406 83.405 75.182C83.7783 74.9487 84.2217 74.832 84.735 74.832C85.463 74.832 86.0323 75.0513 86.443 75.49C86.8537 75.9193 87.059 76.554 87.059 77.394V82H85.015V77.772C85.015 77.352 84.917 77.0347 84.721 76.82C84.525 76.596 84.2497 76.484 83.895 76.484C83.5217 76.484 83.209 76.6333 82.957 76.932C82.7143 77.2213 82.593 77.66 82.593 78.248V82H80.549V74.902H82.593ZM91.8201 80.138C92.2587 80.138 92.5994 79.9747 92.8421 79.648C93.0941 79.312 93.2201 78.9107 93.2201 78.444C93.2201 77.1747 92.7581 76.54 91.8341 76.54C91.4234 76.54 91.1014 76.6987 90.8681 77.016C90.6347 77.3333 90.5181 77.772 90.5181 78.332C90.5181 78.92 90.6301 79.368 90.8541 79.676C91.0781 79.984 91.4001 80.138 91.8201 80.138ZM93.2201 74.902H95.2501V81.314C95.2501 82.4527 94.9094 83.3067 94.2281 83.876C93.5467 84.4547 92.6927 84.744 91.6661 84.744C90.6674 84.744 89.7947 84.5667 89.0481 84.212V82.126C89.7014 82.6487 90.5041 82.91 91.4561 82.91C92.0721 82.91 92.5201 82.7793 92.8001 82.518C93.0801 82.2567 93.2201 81.846 93.2201 81.286V80.81C92.8094 81.4447 92.1561 81.762 91.2601 81.762C90.4761 81.762 89.7994 81.4727 89.2301 80.894C88.6701 80.3153 88.3901 79.4567 88.3901 78.318C88.3901 77.31 88.6607 76.4793 89.2021 75.826C89.7527 75.1633 90.4714 74.832 91.3581 74.832C92.1981 74.832 92.8187 75.168 93.2201 75.84V74.902ZM102.726 76.4V79.662C102.726 79.914 102.796 80.1053 102.936 80.236C103.085 80.3667 103.276 80.432 103.51 80.432C103.883 80.432 104.214 80.3387 104.504 80.152V81.846C104.158 81.9953 103.692 82.07 103.104 82.07C101.489 82.07 100.682 81.2627 100.682 79.648V76.4H99.6595V74.902H100.682V73.222H102.726V74.902H104.378V76.4H102.726ZM110.156 74.902H112.2V82H110.156V80.866C109.783 81.6593 109.064 82.056 108 82.056C107.272 82.056 106.703 81.8553 106.292 81.454C105.891 81.0433 105.69 80.4413 105.69 79.648V74.902H107.734V79.186C107.734 80.0167 108.098 80.432 108.826 80.432C109.713 80.432 110.156 79.8393 110.156 78.654V74.902ZM117.395 79.088H116.737C116.392 79.088 116.126 79.1627 115.939 79.312C115.752 79.4613 115.659 79.6527 115.659 79.886C115.659 80.362 115.934 80.6 116.485 80.6C116.774 80.6 116.998 80.5113 117.157 80.334C117.316 80.1567 117.395 79.914 117.395 79.606V79.088ZM114.077 77.086V75.252C114.637 74.9347 115.444 74.776 116.499 74.776C117.507 74.776 118.258 74.9953 118.753 75.434C119.248 75.8633 119.495 76.5353 119.495 77.45V82H117.493V81.132C117.194 81.7387 116.606 82.042 115.729 82.042C115.038 82.042 114.497 81.846 114.105 81.454C113.722 81.062 113.531 80.572 113.531 79.984C113.531 79.3027 113.778 78.7753 114.273 78.402C114.777 78.0193 115.519 77.828 116.499 77.828H117.395V77.338C117.395 76.7407 116.998 76.442 116.205 76.442C115.44 76.442 114.73 76.6567 114.077 77.086ZM127.428 78.332H129.696L129.598 77.996C129.327 77.0813 129.103 76.302 128.926 75.658C128.758 75.014 128.655 74.5987 128.618 74.412L128.562 74.132C128.487 74.6453 128.142 75.9333 127.526 77.996L127.428 78.332ZM130.788 82L130.214 80.068H126.91L126.336 82H124.082L127.232 72.564H129.948L133.098 82H130.788ZM136.31 74.902V76.106C136.487 75.714 136.758 75.406 137.122 75.182C137.495 74.9487 137.938 74.832 138.452 74.832C139.18 74.832 139.749 75.0513 140.16 75.49C140.57 75.9193 140.776 76.554 140.776 77.394V82H138.732V77.772C138.732 77.352 138.634 77.0347 138.438 76.82C138.242 76.596 137.966 76.484 137.612 76.484C137.238 76.484 136.926 76.6333 136.674 76.932C136.431 77.2213 136.31 77.66 136.31 78.248V82H134.266V74.902H136.31ZM145.649 80.376C146.116 80.376 146.494 80.194 146.783 79.83C147.072 79.466 147.217 78.9807 147.217 78.374C147.217 77.786 147.058 77.3287 146.741 77.002C146.433 76.6753 146.064 76.512 145.635 76.512C145.206 76.512 144.842 76.6847 144.543 77.03C144.254 77.3753 144.109 77.856 144.109 78.472C144.109 79.0413 144.258 79.5033 144.557 79.858C144.856 80.2033 145.22 80.376 145.649 80.376ZM147.217 72.102H149.261V82H147.217V80.894C146.741 81.6873 146.032 82.084 145.089 82.084C144.165 82.084 143.423 81.7247 142.863 81.006C142.312 80.2873 142.037 79.4287 142.037 78.43C142.037 77.31 142.326 76.428 142.905 75.784C143.484 75.14 144.216 74.818 145.103 74.818C146.027 74.818 146.732 75.21 147.217 75.994V72.102ZM154.459 79.088H153.801C153.456 79.088 153.19 79.1627 153.003 79.312C152.817 79.4613 152.723 79.6527 152.723 79.886C152.723 80.362 152.999 80.6 153.549 80.6C153.839 80.6 154.063 80.5113 154.221 80.334C154.38 80.1567 154.459 79.914 154.459 79.606V79.088ZM151.141 77.086V75.252C151.701 74.9347 152.509 74.776 153.563 74.776C154.571 74.776 155.323 74.9953 155.817 75.434C156.312 75.8633 156.559 76.5353 156.559 77.45V82H154.557V81.132C154.259 81.7387 153.671 82.042 152.793 82.042C152.103 82.042 151.561 81.846 151.169 81.454C150.787 81.062 150.595 80.572 150.595 79.984C150.595 79.3027 150.843 78.7753 151.337 78.402C151.841 78.0193 152.583 77.828 153.563 77.828H154.459V77.338C154.459 76.7407 154.063 76.442 153.269 76.442C152.504 76.442 151.795 76.6567 151.141 77.086ZM164.926 80.376C165.393 80.376 165.771 80.194 166.06 79.83C166.35 79.466 166.494 78.9807 166.494 78.374C166.494 77.786 166.336 77.3287 166.018 77.002C165.71 76.6753 165.342 76.512 164.912 76.512C164.483 76.512 164.119 76.6847 163.82 77.03C163.531 77.3753 163.386 77.856 163.386 78.472C163.386 79.0413 163.536 79.5033 163.834 79.858C164.133 80.2033 164.497 80.376 164.926 80.376ZM166.494 72.102H168.538V82H166.494V80.894C166.018 81.6873 165.309 82.084 164.366 82.084C163.442 82.084 162.7 81.7247 162.14 81.006C161.59 80.2873 161.314 79.4287 161.314 78.43C161.314 77.31 161.604 76.428 162.182 75.784C162.761 75.14 163.494 74.818 164.38 74.818C165.304 74.818 166.009 75.21 166.494 75.994V72.102ZM170.293 82V74.902H172.337V82H170.293ZM170.475 73.684C170.241 73.4507 170.125 73.1707 170.125 72.844C170.125 72.5173 170.241 72.2373 170.475 72.004C170.708 71.7707 170.988 71.654 171.315 71.654C171.641 71.654 171.921 71.7707 172.155 72.004C172.388 72.2373 172.505 72.5173 172.505 72.844C172.505 73.1707 172.388 73.4507 172.155 73.684C171.921 73.9173 171.641 74.034 171.315 74.034C170.988 74.034 170.708 73.9173 170.475 73.684ZM176.122 74.902V76.218C176.253 75.8073 176.467 75.4807 176.766 75.238C177.074 74.986 177.429 74.86 177.83 74.86C178.054 74.86 178.231 74.8787 178.362 74.916V76.848C178.138 76.7453 177.881 76.694 177.592 76.694C177.153 76.694 176.799 76.8573 176.528 77.184C176.257 77.5013 176.122 77.926 176.122 78.458V82H174.078L174.092 74.902H176.122ZM182.788 79.088H182.13C181.784 79.088 181.518 79.1627 181.332 79.312C181.145 79.4613 181.052 79.6527 181.052 79.886C181.052 80.362 181.327 80.6 181.878 80.6C182.167 80.6 182.391 80.5113 182.55 80.334C182.708 80.1567 182.788 79.914 182.788 79.606V79.088ZM179.47 77.086V75.252C180.03 74.9347 180.837 74.776 181.892 74.776C182.9 74.776 183.651 74.9953 184.146 75.434C184.64 75.8633 184.888 76.5353 184.888 77.45V82H182.886V81.132C182.587 81.7387 181.999 82.042 181.122 82.042C180.431 82.042 179.89 81.846 179.498 81.454C179.115 81.062 178.924 80.572 178.924 79.984C178.924 79.3027 179.171 78.7753 179.666 78.402C180.17 78.0193 180.912 77.828 181.892 77.828H182.788V77.338C182.788 76.7407 182.391 76.442 181.598 76.442C180.832 76.442 180.123 76.6567 179.47 77.086ZM188.004 82L185.722 74.902H187.836L188.452 77.24C188.602 77.828 188.728 78.36 188.83 78.836C188.933 79.3027 188.994 79.6247 189.012 79.802L189.054 80.068C189.12 79.508 189.348 78.5653 189.74 77.24L190.426 74.902H192.19L192.862 77.24C193.03 77.8373 193.17 78.374 193.282 78.85C193.394 79.3167 193.464 79.6387 193.492 79.816L193.534 80.068C193.6 79.5173 193.819 78.5747 194.192 77.24L194.85 74.902H196.866L194.598 82H192.498L191.882 79.676C191.752 79.172 191.635 78.7007 191.532 78.262C191.439 77.8233 191.378 77.5107 191.35 77.324L191.308 77.044C191.215 77.6693 191.019 78.5467 190.72 79.676L190.104 82H188.004ZM201.286 79.088H200.628C200.282 79.088 200.016 79.1627 199.83 79.312C199.643 79.4613 199.55 79.6527 199.55 79.886C199.55 80.362 199.825 80.6 200.376 80.6C200.665 80.6 200.889 80.5113 201.048 80.334C201.206 80.1567 201.286 79.914 201.286 79.606V79.088ZM197.968 77.086V75.252C198.528 74.9347 199.335 74.776 200.39 74.776C201.398 74.776 202.149 74.9953 202.644 75.434C203.138 75.8633 203.386 76.5353 203.386 77.45V82H201.384V81.132C201.085 81.7387 200.497 82.042 199.62 82.042C198.929 82.042 198.388 81.846 197.996 81.454C197.613 81.062 197.422 80.572 197.422 79.984C197.422 79.3027 197.669 78.7753 198.164 78.402C198.668 78.0193 199.41 77.828 200.39 77.828H201.286V77.338C201.286 76.7407 200.889 76.442 200.096 76.442C199.33 76.442 198.621 76.6567 197.968 77.086ZM207.356 76.4V79.662C207.356 79.914 207.426 80.1053 207.566 80.236C207.716 80.3667 207.907 80.432 208.14 80.432C208.514 80.432 208.845 80.3387 209.134 80.152V81.846C208.789 81.9953 208.322 82.07 207.734 82.07C206.12 82.07 205.312 81.2627 205.312 79.648V76.4H204.29V74.902H205.312V73.222H207.356V74.902H209.008V76.4H207.356ZM217.153 80.376C217.619 80.376 217.997 80.194 218.287 79.83C218.576 79.466 218.721 78.9807 218.721 78.374C218.721 77.786 218.562 77.3287 218.245 77.002C217.937 76.6753 217.568 76.512 217.139 76.512C216.709 76.512 216.345 76.6847 216.047 77.03C215.757 77.3753 215.613 77.856 215.613 78.472C215.613 79.0413 215.762 79.5033 216.061 79.858C216.359 80.2033 216.723 80.376 217.153 80.376ZM218.721 72.102H220.765V82H218.721V80.894C218.245 81.6873 217.535 82.084 216.593 82.084C215.669 82.084 214.927 81.7247 214.367 81.006C213.816 80.2873 213.541 79.4287 213.541 78.43C213.541 77.31 213.83 76.428 214.409 75.784C214.987 75.14 215.72 74.818 216.607 74.818C217.531 74.818 218.235 75.21 218.721 75.994V72.102ZM222.519 82V74.902H224.563V82H222.519ZM222.701 73.684C222.468 73.4507 222.351 73.1707 222.351 72.844C222.351 72.5173 222.468 72.2373 222.701 72.004C222.935 71.7707 223.215 71.654 223.541 71.654C223.868 71.654 224.148 71.7707 224.381 72.004C224.615 72.2373 224.731 72.5173 224.731 72.844C224.731 73.1707 224.615 73.4507 224.381 73.684C224.148 73.9173 223.868 74.034 223.541 74.034C223.215 74.034 222.935 73.9173 222.701 73.684ZM231.849 74.902V76.218C231.979 75.8073 232.194 75.4807 232.493 75.238C232.801 74.986 233.155 74.86 233.557 74.86C233.781 74.86 233.958 74.8787 234.089 74.916V76.848C233.865 76.7453 233.608 76.694 233.319 76.694C232.88 76.694 232.525 76.8573 232.255 77.184C231.984 77.5013 231.849 77.926 231.849 78.458V82H229.805L229.819 74.902H231.849ZM239.396 74.902H241.44V82H239.396V80.866C239.023 81.6593 238.304 82.056 237.24 82.056C236.512 82.056 235.943 81.8553 235.532 81.454C235.131 81.0433 234.93 80.4413 234.93 79.648V74.902H236.974V79.186C236.974 80.0167 237.338 80.432 238.066 80.432C238.953 80.432 239.396 79.8393 239.396 78.654V74.902ZM245.165 74.902V76.008C245.557 75.224 246.225 74.832 247.167 74.832C248.166 74.832 248.829 75.28 249.155 76.176C249.314 75.756 249.58 75.4293 249.953 75.196C250.327 74.9533 250.765 74.832 251.269 74.832C251.969 74.832 252.52 75.056 252.921 75.504C253.332 75.9427 253.537 76.5913 253.537 77.45V82H251.493V77.786C251.493 77.3847 251.414 77.0673 251.255 76.834C251.097 76.6007 250.868 76.484 250.569 76.484C250.252 76.484 249.967 76.6147 249.715 76.876C249.473 77.128 249.351 77.5853 249.351 78.248V82H247.307V77.786C247.307 77.3847 247.228 77.0673 247.069 76.834C246.911 76.6007 246.682 76.484 246.383 76.484C246.066 76.484 245.781 76.6147 245.529 76.876C245.287 77.128 245.165 77.5853 245.165 78.248V82H243.121V74.902H245.165ZM258.667 79.088H258.008C257.663 79.088 257.397 79.1627 257.211 79.312C257.024 79.4613 256.931 79.6527 256.931 79.886C256.931 80.362 257.206 80.6 257.757 80.6C258.046 80.6 258.27 80.5113 258.428 80.334C258.587 80.1567 258.667 79.914 258.667 79.606V79.088ZM255.349 77.086V75.252C255.909 74.9347 256.716 74.776 257.771 74.776C258.779 74.776 259.53 74.9953 260.025 75.434C260.519 75.8633 260.767 76.5353 260.767 77.45V82H258.765V81.132C258.466 81.7387 257.878 82.042 257.001 82.042C256.31 82.042 255.769 81.846 255.377 81.454C254.994 81.062 254.803 80.572 254.803 79.984C254.803 79.3027 255.05 78.7753 255.545 78.402C256.049 78.0193 256.791 77.828 257.771 77.828H258.667V77.338C258.667 76.7407 258.27 76.442 257.477 76.442C256.711 76.442 256.002 76.6567 255.349 77.086ZM264.415 72.102V76.106C264.779 75.2567 265.489 74.832 266.543 74.832C267.234 74.832 267.794 75.0513 268.223 75.49C268.662 75.9287 268.881 76.5913 268.881 77.478V82H266.837V77.8C266.837 77.3893 266.735 77.0673 266.529 76.834C266.324 76.6007 266.058 76.484 265.731 76.484C265.591 76.484 265.456 76.5073 265.325 76.554C265.204 76.5913 265.069 76.666 264.919 76.778C264.77 76.8807 264.649 77.0627 264.555 77.324C264.462 77.576 264.415 77.884 264.415 78.248V82H262.371V72.102H264.415ZM278.472 75.112V76.862C277.978 76.5727 277.399 76.428 276.736 76.428C276.494 76.428 276.307 76.4793 276.176 76.582C276.046 76.6753 275.98 76.7967 275.98 76.946C275.98 77.03 276.004 77.1093 276.05 77.184C276.097 77.2587 276.172 77.3287 276.274 77.394C276.386 77.4593 276.489 77.52 276.582 77.576C276.685 77.6227 276.82 77.6833 276.988 77.758C277.166 77.8327 277.306 77.898 277.408 77.954C277.838 78.178 278.183 78.4393 278.444 78.738C278.706 79.0273 278.836 79.4007 278.836 79.858C278.836 80.558 278.584 81.0993 278.08 81.482C277.576 81.8647 276.909 82.056 276.078 82.056C275.22 82.056 274.501 81.9113 273.922 81.622V79.802C274.566 80.25 275.248 80.474 275.966 80.474C276.48 80.474 276.736 80.3107 276.736 79.984C276.736 79.9 276.713 79.8207 276.666 79.746C276.62 79.6713 276.54 79.6013 276.428 79.536C276.316 79.4707 276.214 79.4193 276.12 79.382C276.027 79.3353 275.892 79.2747 275.714 79.2C275.537 79.1253 275.402 79.0647 275.308 79.018C274.366 78.57 273.894 77.898 273.894 77.002C273.894 76.3113 274.156 75.7747 274.678 75.392C275.21 75.0093 275.868 74.818 276.652 74.818C277.38 74.818 277.987 74.916 278.472 75.112ZM283.604 79.088H282.946C282.601 79.088 282.335 79.1627 282.148 79.312C281.961 79.4613 281.868 79.6527 281.868 79.886C281.868 80.362 282.143 80.6 282.694 80.6C282.983 80.6 283.207 80.5113 283.366 80.334C283.525 80.1567 283.604 79.914 283.604 79.606V79.088ZM280.286 77.086V75.252C280.846 74.9347 281.653 74.776 282.708 74.776C283.716 74.776 284.467 74.9953 284.962 75.434C285.457 75.8633 285.704 76.5353 285.704 77.45V82H283.702V81.132C283.403 81.7387 282.815 82.042 281.938 82.042C281.247 82.042 280.706 81.846 280.314 81.454C279.931 81.062 279.74 80.572 279.74 79.984C279.74 79.3027 279.987 78.7753 280.482 78.402C280.986 78.0193 281.728 77.828 282.708 77.828H283.604V77.338C283.604 76.7407 283.207 76.442 282.414 76.442C281.649 76.442 280.939 76.6567 280.286 77.086ZM293.987 82H291.621L289.353 78.514V82H287.309V72.34H289.353V78.08L291.593 74.902H293.945L291.481 78.304L293.987 82ZM295.049 82V74.902H297.093V82H295.049ZM295.231 73.684C294.997 73.4507 294.881 73.1707 294.881 72.844C294.881 72.5173 294.997 72.2373 295.231 72.004C295.464 71.7707 295.744 71.654 296.071 71.654C296.397 71.654 296.677 71.7707 296.911 72.004C297.144 72.2373 297.261 72.5173 297.261 72.844C297.261 73.1707 297.144 73.4507 296.911 73.684C296.677 73.9173 296.397 74.034 296.071 74.034C295.744 74.034 295.464 73.9173 295.231 73.684ZM301.214 76.4V79.662C301.214 79.914 301.284 80.1053 301.424 80.236C301.573 80.3667 301.764 80.432 301.998 80.432C302.371 80.432 302.702 80.3387 302.992 80.152V81.846C302.646 81.9953 302.18 82.07 301.592 82.07C299.977 82.07 299.17 81.2627 299.17 79.648V76.4H298.148V74.902H299.17V73.222H301.214V74.902H302.866V76.4H301.214Z" fill="white"/>
</g>
<g clip-path="url(#clip1_1124_4113)">
<path d="M94.3749 127.996L87.9761 131.518L92.5409 133.515L74.1401 144.07L85.5961 132.282L81.4569 131.657L87.4579 123.275L86.8486 116.608L69.7446 118.17L70.6646 128.246L60.5884 129.167L62.1503 146.271L72.1185 145.171V155.29H89.2939V145.171H99.4123V127.996H94.3749Z" fill="#FF1934"/>
<path d="M95.3076 160.078L88.4933 160.505L93.3546 160.748L73.7591 162.03L85.959 160.599L81.5512 160.522L87.9418 159.505L87.2931 158.695L69.0786 158.885L70.0585 160.108L59.3281 160.22L60.9914 162.297L71.6069 162.163V163.392H89.8968V162.163H100.672V160.078H95.3076Z" fill="#CCCCCC"/>
</g>
<path d="M124.22 132.49H126.38L126.27 132.15C126.017 131.363 125.81 130.713 125.65 130.2C125.49 129.68 125.393 129.357 125.36 129.23L125.31 129.04C125.237 129.353 124.91 130.39 124.33 132.15L124.22 132.49ZM127.19 135L126.66 133.35H123.94L123.4 135H122.31L124.64 128.26H125.99L128.29 135H127.19ZM130.272 129.93V130.8C130.572 130.173 131.098 129.86 131.852 129.86C132.352 129.86 132.748 130.013 133.042 130.32C133.335 130.627 133.482 131.043 133.482 131.57V135H132.502V131.8C132.502 131.447 132.412 131.177 132.232 130.99C132.058 130.803 131.825 130.71 131.532 130.71C131.185 130.71 130.888 130.847 130.642 131.12C130.395 131.387 130.272 131.763 130.272 132.25V135H129.292V129.93H130.272ZM136.849 134.21C137.236 134.21 137.563 134.063 137.829 133.77C138.096 133.477 138.229 133.03 138.229 132.43C138.229 131.85 138.089 131.42 137.809 131.14C137.536 130.86 137.226 130.72 136.879 130.72C136.486 130.72 136.163 130.877 135.909 131.19C135.656 131.497 135.529 131.937 135.529 132.51C135.529 133.017 135.653 133.427 135.899 133.74C136.153 134.053 136.469 134.21 136.849 134.21ZM138.229 127.93H139.219V135H138.229V134.23C137.876 134.79 137.359 135.07 136.679 135.07C136.013 135.07 135.486 134.82 135.099 134.32C134.713 133.813 134.519 133.203 134.519 132.49C134.519 131.697 134.723 131.06 135.129 130.58C135.536 130.1 136.059 129.86 136.699 129.86C137.359 129.86 137.869 130.14 138.229 130.7V127.93ZM143.27 132.74H142.51C142.137 132.74 141.853 132.813 141.66 132.96C141.473 133.107 141.38 133.293 141.38 133.52C141.38 133.753 141.453 133.937 141.6 134.07C141.747 134.203 141.96 134.27 142.24 134.27C142.56 134.27 142.81 134.183 142.99 134.01C143.177 133.83 143.27 133.597 143.27 133.31V132.74ZM140.72 131.14V130.19C141.113 129.963 141.633 129.85 142.28 129.85C143.607 129.85 144.27 130.493 144.27 131.78V135H143.3V134.4C143.04 134.827 142.583 135.04 141.93 135.04C141.45 135.04 141.063 134.903 140.77 134.63C140.483 134.35 140.34 133.997 140.34 133.57C140.34 133.083 140.523 132.707 140.89 132.44C141.257 132.167 141.77 132.03 142.43 132.03H143.27V131.74C143.27 131.393 143.187 131.133 143.02 130.96C142.853 130.78 142.577 130.69 142.19 130.69C141.65 130.69 141.16 130.84 140.72 131.14ZM149.031 127.93V130.8C149.318 130.173 149.841 129.86 150.601 129.86C151.095 129.86 151.491 130.013 151.791 130.32C152.091 130.627 152.241 131.053 152.241 131.6V135H151.261V131.8C151.261 131.453 151.171 131.187 150.991 131C150.818 130.807 150.588 130.71 150.301 130.71C149.968 130.71 149.671 130.837 149.411 131.09C149.158 131.343 149.031 131.73 149.031 132.25V135H148.051V127.93H149.031ZM156.229 132.74H155.469C155.096 132.74 154.812 132.813 154.619 132.96C154.432 133.107 154.339 133.293 154.339 133.52C154.339 133.753 154.412 133.937 154.559 134.07C154.706 134.203 154.919 134.27 155.199 134.27C155.519 134.27 155.769 134.183 155.949 134.01C156.136 133.83 156.229 133.597 156.229 133.31V132.74ZM153.679 131.14V130.19C154.072 129.963 154.592 129.85 155.239 129.85C156.566 129.85 157.229 130.493 157.229 131.78V135H156.259V134.4C155.999 134.827 155.542 135.04 154.889 135.04C154.409 135.04 154.022 134.903 153.729 134.63C153.442 134.35 153.299 133.997 153.299 133.57C153.299 133.083 153.482 132.707 153.849 132.44C154.216 132.167 154.729 132.03 155.389 132.03H156.229V131.74C156.229 131.393 156.146 131.133 155.979 130.96C155.812 130.78 155.536 130.69 155.149 130.69C154.609 130.69 154.119 130.84 153.679 131.14ZM159.529 129.93V130.82C159.776 130.193 160.219 129.88 160.859 129.88C160.953 129.88 161.056 129.89 161.169 129.91V130.87C161.029 130.81 160.873 130.78 160.699 130.78C160.359 130.78 160.079 130.93 159.859 131.23C159.639 131.53 159.529 131.887 159.529 132.3V135H158.549V129.93H159.529ZM165.088 129.93H166.068V135H165.088V134.13C164.821 134.75 164.295 135.06 163.508 135.06C163.008 135.06 162.611 134.913 162.318 134.62C162.025 134.32 161.878 133.91 161.878 133.39V129.93H162.868V133.15C162.868 133.497 162.951 133.763 163.118 133.95C163.291 134.13 163.528 134.22 163.828 134.22C164.208 134.22 164.511 134.087 164.738 133.82C164.971 133.553 165.088 133.177 165.088 132.69V129.93ZM170.336 130.1V130.99C170.009 130.797 169.589 130.7 169.076 130.7C168.843 130.7 168.656 130.753 168.516 130.86C168.383 130.967 168.316 131.107 168.316 131.28C168.316 131.327 168.319 131.373 168.326 131.42C168.339 131.46 168.359 131.503 168.386 131.55C168.413 131.59 168.436 131.627 168.456 131.66C168.483 131.687 168.523 131.717 168.576 131.75C168.629 131.783 168.669 131.813 168.696 131.84C168.729 131.86 168.779 131.887 168.846 131.92C168.919 131.953 168.973 131.98 169.006 132C169.039 132.013 169.096 132.04 169.176 132.08C169.263 132.113 169.323 132.137 169.356 132.15C169.749 132.323 170.056 132.52 170.276 132.74C170.503 132.953 170.616 133.24 170.616 133.6C170.616 134.053 170.456 134.41 170.136 134.67C169.816 134.923 169.383 135.05 168.836 135.05C168.236 135.05 167.736 134.95 167.336 134.75V133.82C167.803 134.107 168.286 134.25 168.786 134.25C169.046 134.25 169.246 134.197 169.386 134.09C169.533 133.983 169.606 133.843 169.606 133.67C169.606 133.523 169.549 133.393 169.436 133.28C169.323 133.16 169.206 133.073 169.086 133.02C168.973 132.96 168.776 132.87 168.496 132.75C167.703 132.423 167.306 131.943 167.306 131.31C167.306 130.863 167.473 130.513 167.806 130.26C168.139 130.007 168.556 129.88 169.056 129.88C169.603 129.88 170.029 129.953 170.336 130.1ZM175.076 129.93V130.74C175.363 130.153 175.84 129.86 176.506 129.86C177.266 129.86 177.753 130.187 177.966 130.84C178.106 130.527 178.31 130.287 178.576 130.12C178.843 129.947 179.143 129.86 179.476 129.86C179.996 129.86 180.39 130.013 180.656 130.32C180.93 130.627 181.066 131.05 181.066 131.59V135H180.086V131.8C180.086 131.073 179.793 130.71 179.206 130.71C178.913 130.71 178.65 130.84 178.416 131.1C178.19 131.36 178.076 131.743 178.076 132.25V135H177.096V131.8C177.096 131.073 176.8 130.71 176.206 130.71C175.92 130.71 175.66 130.84 175.426 131.1C175.193 131.36 175.076 131.743 175.076 132.25V135H174.096V129.93H175.076ZM185.547 132.1V131.92C185.534 131.54 185.43 131.24 185.237 131.02C185.044 130.793 184.767 130.68 184.407 130.68C184.074 130.68 183.787 130.803 183.547 131.05C183.307 131.29 183.157 131.64 183.097 132.1H185.547ZM186.177 133.85V134.73C185.804 134.943 185.31 135.05 184.697 135.05C183.91 135.05 183.284 134.813 182.817 134.34C182.35 133.867 182.117 133.247 182.117 132.48C182.117 131.667 182.33 131.03 182.757 130.57C183.184 130.103 183.727 129.87 184.387 129.87C185.034 129.87 185.547 130.073 185.927 130.48C186.307 130.88 186.497 131.46 186.497 132.22C186.497 132.427 186.477 132.643 186.437 132.87H183.107C183.174 133.31 183.36 133.647 183.667 133.88C183.974 134.113 184.36 134.23 184.827 134.23C185.367 134.23 185.817 134.103 186.177 133.85ZM188.631 129.93V130.74C188.918 130.153 189.394 129.86 190.061 129.86C190.821 129.86 191.308 130.187 191.521 130.84C191.661 130.527 191.864 130.287 192.131 130.12C192.398 129.947 192.698 129.86 193.031 129.86C193.551 129.86 193.944 130.013 194.211 130.32C194.484 130.627 194.621 131.05 194.621 131.59V135H193.641V131.8C193.641 131.073 193.348 130.71 192.761 130.71C192.468 130.71 192.204 130.84 191.971 131.1C191.744 131.36 191.631 131.743 191.631 132.25V135H190.651V131.8C190.651 131.073 190.354 130.71 189.761 130.71C189.474 130.71 189.214 130.84 188.981 131.1C188.748 131.36 188.631 131.743 188.631 132.25V135H187.651V129.93H188.631ZM198.342 134.21C198.715 134.21 199.028 134.053 199.282 133.74C199.535 133.42 199.662 133.01 199.662 132.51C199.662 131.937 199.535 131.497 199.282 131.19C199.028 130.877 198.705 130.72 198.312 130.72C197.965 130.72 197.652 130.86 197.372 131.14C197.098 131.42 196.962 131.85 196.962 132.43C196.962 133.03 197.095 133.477 197.362 133.77C197.628 134.063 197.955 134.21 198.342 134.21ZM196.962 127.93V130.7C197.322 130.14 197.832 129.86 198.492 129.86C199.132 129.86 199.655 130.1 200.062 130.58C200.468 131.06 200.672 131.697 200.672 132.49C200.672 133.203 200.478 133.813 200.092 134.32C199.705 134.82 199.175 135.07 198.502 135.07C197.828 135.07 197.315 134.79 196.962 134.23V135H195.972V127.93H196.962ZM204.442 132.74H203.682C203.309 132.74 203.025 132.813 202.832 132.96C202.645 133.107 202.552 133.293 202.552 133.52C202.552 133.753 202.625 133.937 202.772 134.07C202.919 134.203 203.132 134.27 203.412 134.27C203.732 134.27 203.982 134.183 204.162 134.01C204.349 133.83 204.442 133.597 204.442 133.31V132.74ZM201.892 131.14V130.19C202.285 129.963 202.805 129.85 203.452 129.85C204.779 129.85 205.442 130.493 205.442 131.78V135H204.472V134.4C204.212 134.827 203.755 135.04 203.102 135.04C202.622 135.04 202.235 134.903 201.942 134.63C201.655 134.35 201.512 133.997 201.512 133.57C201.512 133.083 201.695 132.707 202.062 132.44C202.429 132.167 202.942 132.03 203.602 132.03H204.442V131.74C204.442 131.393 204.359 131.133 204.192 130.96C204.025 130.78 203.749 130.69 203.362 130.69C202.822 130.69 202.332 130.84 201.892 131.14ZM208.162 134.89L206.142 129.93H207.232L207.862 131.58L208.652 133.72C208.712 133.52 208.952 132.807 209.372 131.58L209.942 129.93H210.982L209.152 134.86C208.666 136.16 207.922 136.81 206.922 136.81C206.742 136.81 206.589 136.793 206.462 136.76V135.92C206.569 135.947 206.682 135.96 206.802 135.96C207.449 135.96 207.902 135.603 208.162 134.89ZM214.471 132.74H213.711C213.338 132.74 213.055 132.813 212.861 132.96C212.675 133.107 212.581 133.293 212.581 133.52C212.581 133.753 212.655 133.937 212.801 134.07C212.948 134.203 213.161 134.27 213.441 134.27C213.761 134.27 214.011 134.183 214.191 134.01C214.378 133.83 214.471 133.597 214.471 133.31V132.74ZM211.921 131.14V130.19C212.315 129.963 212.835 129.85 213.481 129.85C214.808 129.85 215.471 130.493 215.471 131.78V135H214.501V134.4C214.241 134.827 213.785 135.04 213.131 135.04C212.651 135.04 212.265 134.903 211.971 134.63C211.685 134.35 211.541 133.997 211.541 133.57C211.541 133.083 211.725 132.707 212.091 132.44C212.458 132.167 212.971 132.03 213.631 132.03H214.471V131.74C214.471 131.393 214.388 131.133 214.221 130.96C214.055 130.78 213.778 130.69 213.391 130.69C212.851 130.69 212.361 130.84 211.921 131.14ZM217.772 129.93V130.82C218.018 130.193 218.462 129.88 219.102 129.88C219.195 129.88 219.298 129.89 219.412 129.91V130.87C219.272 130.81 219.115 130.78 218.942 130.78C218.602 130.78 218.322 130.93 218.102 131.23C217.882 131.53 217.772 131.887 217.772 132.3V135H216.792V129.93H217.772Z" fill="#2B2B2B"/>
<path d="M123.96 145.3V147.5H124.8C125.187 147.5 125.477 147.403 125.67 147.21C125.863 147.01 125.96 146.733 125.96 146.38C125.96 146.033 125.857 145.767 125.65 145.58C125.45 145.393 125.16 145.3 124.78 145.3H123.96ZM126.18 151L124.65 148.54H123.96V151H122.7V144.26H124.78C125.547 144.26 126.147 144.453 126.58 144.84C127.02 145.227 127.24 145.743 127.24 146.39C127.233 146.87 127.117 147.277 126.89 147.61C126.663 147.937 126.353 148.18 125.96 148.34L127.69 151H126.18ZM130.999 150.04C131.359 150.04 131.652 149.903 131.879 149.63C132.105 149.35 132.219 148.96 132.219 148.46C132.219 147.96 132.105 147.573 131.879 147.3C131.652 147.02 131.365 146.88 131.019 146.88C130.672 146.88 130.372 147.01 130.119 147.27C129.865 147.53 129.739 147.917 129.739 148.43C129.739 148.943 129.862 149.34 130.109 149.62C130.355 149.9 130.652 150.04 130.999 150.04ZM129.739 145.93V146.71C130.099 146.143 130.615 145.86 131.289 145.86C131.949 145.86 132.472 146.097 132.859 146.57C133.252 147.043 133.449 147.667 133.449 148.44C133.449 149.2 133.252 149.83 132.859 150.33C132.472 150.823 131.945 151.07 131.279 151.07C130.599 151.07 130.085 150.793 129.739 150.24V152.91H128.539V145.93H129.739ZM137.847 148.5H139.567V145.21L137.847 148.5ZM141.627 148.5V149.53H140.767V151H139.567V149.53H136.657V148.5L138.837 144.45H140.767V148.5H141.627ZM142.224 147.7C142.224 146.667 142.427 145.85 142.834 145.25C143.24 144.643 143.817 144.34 144.564 144.34C145.317 144.34 145.897 144.643 146.304 145.25C146.717 145.85 146.924 146.667 146.924 147.7C146.924 148.727 146.72 149.547 146.314 150.16C145.914 150.773 145.33 151.08 144.564 151.08C143.817 151.08 143.24 150.773 142.834 150.16C142.427 149.547 142.224 148.727 142.224 147.7ZM143.754 146.02C143.554 146.407 143.454 146.967 143.454 147.7C143.454 148.433 143.55 149 143.744 149.4C143.944 149.793 144.217 149.99 144.564 149.99C144.924 149.99 145.2 149.793 145.394 149.4C145.594 149.007 145.694 148.44 145.694 147.7C145.694 146.96 145.59 146.397 145.384 146.01C145.184 145.623 144.91 145.43 144.564 145.43C144.224 145.43 143.954 145.627 143.754 146.02ZM147.683 147.7C147.683 146.667 147.886 145.85 148.293 145.25C148.699 144.643 149.276 144.34 150.023 144.34C150.776 144.34 151.356 144.643 151.763 145.25C152.176 145.85 152.383 146.667 152.383 147.7C152.383 148.727 152.179 149.547 151.773 150.16C151.373 150.773 150.789 151.08 150.023 151.08C149.276 151.08 148.699 150.773 148.293 150.16C147.886 149.547 147.683 148.727 147.683 147.7ZM149.213 146.02C149.013 146.407 148.913 146.967 148.913 147.7C148.913 148.433 149.009 149 149.203 149.4C149.403 149.793 149.676 149.99 150.023 149.99C150.383 149.99 150.659 149.793 150.853 149.4C151.053 149.007 151.153 148.44 151.153 147.7C151.153 146.96 151.049 146.397 150.843 146.01C150.643 145.623 150.369 145.43 150.023 145.43C149.683 145.43 149.413 145.627 149.213 146.02ZM152.692 152.26L153.672 149.79H155.062L153.732 152.26H152.692ZM155.818 147.7C155.818 146.667 156.021 145.85 156.428 145.25C156.834 144.643 157.411 144.34 158.158 144.34C158.911 144.34 159.491 144.643 159.898 145.25C160.311 145.85 160.518 146.667 160.518 147.7C160.518 148.727 160.314 149.547 159.908 150.16C159.508 150.773 158.924 151.08 158.158 151.08C157.411 151.08 156.834 150.773 156.428 150.16C156.021 149.547 155.818 148.727 155.818 147.7ZM157.348 146.02C157.148 146.407 157.048 146.967 157.048 147.7C157.048 148.433 157.144 149 157.338 149.4C157.538 149.793 157.811 149.99 158.158 149.99C158.518 149.99 158.794 149.793 158.988 149.4C159.188 149.007 159.288 148.44 159.288 147.7C159.288 146.96 159.184 146.397 158.978 146.01C158.778 145.623 158.504 145.43 158.158 145.43C157.818 145.43 157.548 145.627 157.348 146.02ZM161.276 147.7C161.276 146.667 161.48 145.85 161.886 145.25C162.293 144.643 162.87 144.34 163.616 144.34C164.37 144.34 164.95 144.643 165.356 145.25C165.77 145.85 165.976 146.667 165.976 147.7C165.976 148.727 165.773 149.547 165.366 150.16C164.966 150.773 164.383 151.08 163.616 151.08C162.87 151.08 162.293 150.773 161.886 150.16C161.48 149.547 161.276 148.727 161.276 147.7ZM162.806 146.02C162.606 146.407 162.506 146.967 162.506 147.7C162.506 148.433 162.603 149 162.796 149.4C162.996 149.793 163.27 149.99 163.616 149.99C163.976 149.99 164.253 149.793 164.446 149.4C164.646 149.007 164.746 148.44 164.746 147.7C164.746 146.96 164.643 146.397 164.436 146.01C164.236 145.623 163.963 145.43 163.616 145.43C163.276 145.43 163.006 145.627 162.806 146.02ZM166.735 147.7C166.735 146.667 166.939 145.85 167.345 145.25C167.752 144.643 168.329 144.34 169.075 144.34C169.829 144.34 170.409 144.643 170.815 145.25C171.229 145.85 171.435 146.667 171.435 147.7C171.435 148.727 171.232 149.547 170.825 150.16C170.425 150.773 169.842 151.08 169.075 151.08C168.329 151.08 167.752 150.773 167.345 150.16C166.939 149.547 166.735 148.727 166.735 147.7ZM168.265 146.02C168.065 146.407 167.965 146.967 167.965 147.7C167.965 148.433 168.062 149 168.255 149.4C168.455 149.793 168.729 149.99 169.075 149.99C169.435 149.99 169.712 149.793 169.905 149.4C170.105 149.007 170.205 148.44 170.205 147.7C170.205 146.96 170.102 146.397 169.895 146.01C169.695 145.623 169.422 145.43 169.075 145.43C168.735 145.43 168.465 145.627 168.265 146.02Z" fill="#FF1934"/>
<path opacity="0.64" d="M60.904 202.468V199.108H61.552V202.452C61.552 203.145 61.376 203.671 61.024 204.028C60.6773 204.385 60.192 204.564 59.568 204.564C58.9547 204.564 58.4747 204.391 58.128 204.044C57.7813 203.692 57.608 203.183 57.608 202.516V199.108H58.256V202.508C58.256 203.004 58.3733 203.369 58.608 203.604C58.848 203.839 59.168 203.956 59.568 203.956C60.4587 203.956 60.904 203.46 60.904 202.468ZM64.9243 202.628H64.2203C63.8789 202.628 63.6229 202.695 63.4523 202.828C63.2816 202.961 63.1963 203.129 63.1963 203.332C63.1963 203.535 63.2629 203.7 63.3963 203.828C63.5296 203.951 63.7243 204.012 63.9803 204.012C64.2683 204.012 64.4976 203.932 64.6683 203.772C64.8389 203.607 64.9243 203.399 64.9243 203.148V202.628ZM62.8283 201.292V200.66C63.1323 200.473 63.5323 200.38 64.0283 200.38C65.0469 200.38 65.5563 200.897 65.5563 201.932V204.5H64.9323V204.02C64.7243 204.367 64.3456 204.54 63.7963 204.54C63.4176 204.54 63.1109 204.428 62.8763 204.204C62.6469 203.98 62.5323 203.697 62.5323 203.356C62.5323 202.967 62.6789 202.665 62.9723 202.452C63.2709 202.233 63.6763 202.124 64.1883 202.124H64.9243V201.916C64.9243 201.596 64.8523 201.356 64.7083 201.196C64.5643 201.031 64.3216 200.948 63.9803 200.948C63.5483 200.948 63.1643 201.063 62.8283 201.292ZM67.3018 200.444V201.148C67.5418 200.641 67.9684 200.388 68.5818 200.388C68.9764 200.388 69.2911 200.508 69.5258 200.748C69.7604 200.988 69.8778 201.308 69.8778 201.708V204.5H69.2458V201.876C69.2458 201.577 69.1684 201.351 69.0138 201.196C68.8644 201.036 68.6671 200.956 68.4218 200.956C68.1178 200.956 67.8538 201.073 67.6298 201.308C67.4111 201.543 67.3018 201.868 67.3018 202.284V204.5H66.6778V200.444H67.3018ZM72.5181 203.836C72.8114 203.836 73.0701 203.724 73.2941 203.5C73.5234 203.271 73.6381 202.932 73.6381 202.484C73.6381 201.967 73.5287 201.583 73.3101 201.332C73.0914 201.081 72.8381 200.956 72.5501 200.956C72.2034 200.956 71.9287 201.095 71.7261 201.372C71.5234 201.644 71.4221 202.001 71.4221 202.444C71.4221 202.897 71.5341 203.244 71.7581 203.484C71.9821 203.719 72.2354 203.836 72.5181 203.836ZM73.6381 200.444H74.2701V204.172C74.2701 204.791 74.0994 205.255 73.7581 205.564C73.4167 205.879 72.9767 206.036 72.4381 206.036C71.9474 206.036 71.5287 205.953 71.1821 205.788V205.156C71.5234 205.353 71.9234 205.452 72.3821 205.452C72.7714 205.452 73.0781 205.348 73.3021 205.14C73.5261 204.932 73.6381 204.607 73.6381 204.164V203.708C73.3714 204.167 72.9741 204.396 72.4461 204.396C71.9821 204.396 71.5847 204.225 71.2541 203.884C70.9287 203.543 70.7661 203.068 70.7661 202.46C70.7661 201.857 70.9181 201.361 71.2221 200.972C71.5261 200.583 71.9234 200.388 72.4141 200.388C72.9687 200.388 73.3767 200.631 73.6381 201.116V200.444ZM80.4618 199.108V199.676H79.0058V204.5H78.3578V199.676H76.9018V199.108H80.4618ZM83.7212 200.444H84.3532V204.5H83.7212V203.796C83.5079 204.297 83.0839 204.548 82.4492 204.548C82.0492 204.548 81.7319 204.431 81.4972 204.196C81.2679 203.956 81.1532 203.636 81.1532 203.236V200.444H81.7852V203.076C81.7852 203.369 81.8599 203.593 82.0092 203.748C82.1585 203.903 82.3612 203.98 82.6172 203.98C82.9532 203.98 83.2199 203.863 83.4172 203.628C83.6199 203.393 83.7212 203.076 83.7212 202.676V200.444ZM86.1455 200.444V201.148C86.3855 200.641 86.8122 200.388 87.4255 200.388C87.8202 200.388 88.1348 200.508 88.3695 200.748C88.6042 200.988 88.7215 201.308 88.7215 201.708V204.5H88.0895V201.876C88.0895 201.577 88.0122 201.351 87.8575 201.196C87.7082 201.036 87.5108 200.956 87.2655 200.956C86.9615 200.956 86.6975 201.073 86.4735 201.308C86.2548 201.543 86.1455 201.868 86.1455 202.284V204.5H85.5215V200.444H86.1455ZM92.0258 202.628H91.3218C90.9805 202.628 90.7245 202.695 90.5538 202.828C90.3831 202.961 90.2978 203.129 90.2978 203.332C90.2978 203.535 90.3645 203.7 90.4978 203.828C90.6311 203.951 90.8258 204.012 91.0818 204.012C91.3698 204.012 91.5991 203.932 91.7698 203.772C91.9405 203.607 92.0258 203.399 92.0258 203.148V202.628ZM89.9298 201.292V200.66C90.2338 200.473 90.6338 200.38 91.1298 200.38C92.1485 200.38 92.6578 200.897 92.6578 201.932V204.5H92.0338V204.02C91.8258 204.367 91.4471 204.54 90.8978 204.54C90.5191 204.54 90.2125 204.428 89.9778 204.204C89.7485 203.98 89.6338 203.697 89.6338 203.356C89.6338 202.967 89.7805 202.665 90.0738 202.452C90.3725 202.233 90.7778 202.124 91.2898 202.124H92.0258V201.916C92.0258 201.596 91.9538 201.356 91.8098 201.196C91.6658 201.031 91.4231 200.948 91.0818 200.948C90.6498 200.948 90.2658 201.063 89.9298 201.292ZM93.8113 204.5V200.444H94.4433V204.5H93.8113ZM93.8273 199.468C93.7526 199.388 93.7153 199.289 93.7153 199.172C93.7153 199.055 93.7526 198.956 93.8273 198.876C93.9073 198.796 94.006 198.756 94.1233 198.756C94.2406 198.756 94.3393 198.796 94.4193 198.876C94.4993 198.956 94.5393 199.055 94.5393 199.172C94.5393 199.289 94.4993 199.388 94.4193 199.468C94.3393 199.543 94.2406 199.58 94.1233 199.58C94.006 199.58 93.9073 199.543 93.8273 199.468Z" fill="#2B2B2B"/>
<path d="M245.248 199.668V201.82H246.064C246.432 201.82 246.712 201.721 246.904 201.524C247.102 201.321 247.2 201.063 247.2 200.748C247.2 200.028 246.798 199.668 245.992 199.668H245.248ZM248.184 204.5H247.408L246.088 202.372H246.024H245.248V204.5H244.6V199.108H245.952C246.576 199.108 247.048 199.255 247.368 199.548C247.694 199.841 247.856 200.247 247.856 200.764C247.846 201.137 247.747 201.455 247.56 201.716C247.374 201.977 247.11 202.161 246.768 202.268L248.184 204.5ZM250.735 203.988C251.077 203.988 251.357 203.855 251.575 203.588C251.794 203.316 251.903 202.932 251.903 202.436C251.903 201.993 251.797 201.636 251.583 201.364C251.37 201.092 251.101 200.956 250.775 200.956C250.45 200.956 250.167 201.076 249.927 201.316C249.693 201.551 249.575 201.937 249.575 202.476C249.575 202.993 249.695 203.375 249.935 203.62C250.175 203.865 250.442 203.988 250.735 203.988ZM249.575 200.444V201.06C249.858 200.607 250.277 200.38 250.831 200.38C251.37 200.38 251.791 200.577 252.095 200.972C252.405 201.361 252.559 201.849 252.559 202.436C252.559 203.06 252.397 203.572 252.071 203.972C251.751 204.367 251.333 204.564 250.815 204.564C250.282 204.564 249.869 204.337 249.575 203.884V206.076H248.951V200.444H249.575ZM255.003 200.7V200.02L256.243 199.268H256.835V204.5H256.211V199.956L255.003 200.7ZM257.789 201.868C257.789 201.047 257.955 200.399 258.285 199.924C258.621 199.444 259.061 199.204 259.605 199.204C260.171 199.204 260.619 199.444 260.949 199.924C261.285 200.399 261.453 201.047 261.453 201.868C261.453 202.684 261.293 203.337 260.973 203.828C260.653 204.319 260.197 204.564 259.605 204.564C259.056 204.564 258.616 204.319 258.285 203.828C257.955 203.337 257.789 202.684 257.789 201.868ZM258.781 200.348C258.552 200.705 258.437 201.212 258.437 201.868C258.437 202.524 258.549 203.039 258.773 203.412C258.997 203.78 259.275 203.964 259.605 203.964C259.973 203.964 260.264 203.783 260.477 203.42C260.696 203.057 260.805 202.54 260.805 201.868C260.805 201.201 260.691 200.692 260.461 200.34C260.237 199.983 259.952 199.804 259.605 199.804C259.285 199.804 259.011 199.985 258.781 200.348ZM262.141 201.868C262.141 201.047 262.306 200.399 262.637 199.924C262.973 199.444 263.413 199.204 263.957 199.204C264.522 199.204 264.97 199.444 265.301 199.924C265.637 200.399 265.805 201.047 265.805 201.868C265.805 202.684 265.645 203.337 265.325 203.828C265.005 204.319 264.549 204.564 263.957 204.564C263.408 204.564 262.968 204.319 262.637 203.828C262.306 203.337 262.141 202.684 262.141 201.868ZM263.133 200.348C262.904 200.705 262.789 201.212 262.789 201.868C262.789 202.524 262.901 203.039 263.125 203.412C263.349 203.78 263.626 203.964 263.957 203.964C264.325 203.964 264.616 203.783 264.829 203.42C265.048 203.057 265.157 202.54 265.157 201.868C265.157 201.201 265.042 200.692 264.813 200.34C264.589 199.983 264.304 199.804 263.957 199.804C263.637 199.804 263.362 199.985 263.133 200.348ZM266.084 205.484L266.828 203.692H267.668L266.636 205.484H266.084ZM268.289 201.868C268.289 201.047 268.455 200.399 268.785 199.924C269.121 199.444 269.561 199.204 270.105 199.204C270.671 199.204 271.119 199.444 271.449 199.924C271.785 200.399 271.953 201.047 271.953 201.868C271.953 202.684 271.793 203.337 271.473 203.828C271.153 204.319 270.697 204.564 270.105 204.564C269.556 204.564 269.116 204.319 268.785 203.828C268.455 203.337 268.289 202.684 268.289 201.868ZM269.281 200.348C269.052 200.705 268.937 201.212 268.937 201.868C268.937 202.524 269.049 203.039 269.273 203.412C269.497 203.78 269.775 203.964 270.105 203.964C270.473 203.964 270.764 203.783 270.977 203.42C271.196 203.057 271.305 202.54 271.305 201.868C271.305 201.201 271.191 200.692 270.961 200.34C270.737 199.983 270.452 199.804 270.105 199.804C269.785 199.804 269.511 199.985 269.281 200.348ZM272.641 201.868C272.641 201.047 272.806 200.399 273.137 199.924C273.473 199.444 273.913 199.204 274.457 199.204C275.022 199.204 275.47 199.444 275.801 199.924C276.137 200.399 276.305 201.047 276.305 201.868C276.305 202.684 276.145 203.337 275.825 203.828C275.505 204.319 275.049 204.564 274.457 204.564C273.908 204.564 273.468 204.319 273.137 203.828C272.806 203.337 272.641 202.684 272.641 201.868ZM273.633 200.348C273.404 200.705 273.289 201.212 273.289 201.868C273.289 202.524 273.401 203.039 273.625 203.412C273.849 203.78 274.126 203.964 274.457 203.964C274.825 203.964 275.116 203.783 275.329 203.42C275.548 203.057 275.657 202.54 275.657 201.868C275.657 201.201 275.542 200.692 275.313 200.34C275.089 199.983 274.804 199.804 274.457 199.804C274.137 199.804 273.862 199.985 273.633 200.348ZM276.992 201.868C276.992 201.047 277.158 200.399 277.488 199.924C277.824 199.444 278.264 199.204 278.808 199.204C279.374 199.204 279.822 199.444 280.152 199.924C280.488 200.399 280.656 201.047 280.656 201.868C280.656 202.684 280.496 203.337 280.176 203.828C279.856 204.319 279.4 204.564 278.808 204.564C278.259 204.564 277.819 204.319 277.488 203.828C277.158 203.337 276.992 202.684 276.992 201.868ZM277.984 200.348C277.755 200.705 277.64 201.212 277.64 201.868C277.64 202.524 277.752 203.039 277.976 203.412C278.2 203.78 278.478 203.964 278.808 203.964C279.176 203.964 279.467 203.783 279.68 203.42C279.899 203.057 280.008 202.54 280.008 201.868C280.008 201.201 279.894 200.692 279.664 200.34C279.44 199.983 279.155 199.804 278.808 199.804C278.488 199.804 278.214 199.985 277.984 200.348Z" fill="#2B2B2B"/>
<path opacity="0.64" d="M60.704 221.108V221.676H59.248V226.5H58.6V221.676H57.144V221.108H60.704ZM63.6274 224.628H62.9234C62.582 224.628 62.326 224.695 62.1554 224.828C61.9847 224.961 61.8994 225.129 61.8994 225.332C61.8994 225.535 61.966 225.7 62.0994 225.828C62.2327 225.951 62.4274 226.012 62.6834 226.012C62.9714 226.012 63.2007 225.932 63.3714 225.772C63.542 225.607 63.6274 225.399 63.6274 225.148V224.628ZM61.5314 223.292V222.66C61.8354 222.473 62.2354 222.38 62.7314 222.38C63.75 222.38 64.2594 222.897 64.2594 223.932V226.5H63.6354V226.02C63.4274 226.367 63.0487 226.54 62.4994 226.54C62.1207 226.54 61.814 226.428 61.5794 226.204C61.35 225.98 61.2354 225.697 61.2354 225.356C61.2354 224.967 61.382 224.665 61.6754 224.452C61.974 224.233 62.3794 224.124 62.8914 224.124H63.6274V223.916C63.6274 223.596 63.5554 223.356 63.4114 223.196C63.2674 223.031 63.0247 222.948 62.6834 222.948C62.2514 222.948 61.8674 223.063 61.5314 223.292ZM67.2289 225.988C67.5542 225.988 67.8235 225.852 68.0369 225.58C68.2502 225.308 68.3569 224.953 68.3569 224.516C68.3569 224.015 68.2449 223.631 68.0209 223.364C67.8022 223.092 67.5249 222.956 67.1889 222.956C66.9009 222.956 66.6369 223.076 66.3969 223.316C66.1569 223.556 66.0369 223.932 66.0369 224.444C66.0369 224.983 66.1515 225.375 66.3809 225.62C66.6155 225.865 66.8982 225.988 67.2289 225.988ZM66.0369 220.844V223.052C66.3302 222.604 66.7409 222.38 67.2689 222.38C67.7809 222.38 68.1995 222.577 68.5249 222.972C68.8502 223.361 69.0129 223.873 69.0129 224.508C69.0129 225.079 68.8582 225.564 68.5489 225.964C68.2449 226.364 67.8235 226.564 67.2849 226.564C66.7409 226.564 66.3249 226.343 66.0369 225.9V226.5H65.4049V220.844H66.0369ZM72.4634 222.444H73.0954V226.5H72.4634V225.796C72.25 226.297 71.826 226.548 71.1914 226.548C70.7914 226.548 70.474 226.431 70.2394 226.196C70.01 225.956 69.8954 225.636 69.8954 225.236V222.444H70.5274V225.076C70.5274 225.369 70.602 225.593 70.7514 225.748C70.9007 225.903 71.1034 225.98 71.3594 225.98C71.6954 225.98 71.962 225.863 72.1594 225.628C72.362 225.393 72.4634 225.076 72.4634 224.676V222.444ZM74.8877 222.444V223.148C75.1277 222.641 75.5544 222.388 76.1677 222.388C76.5624 222.388 76.877 222.508 77.1117 222.748C77.3464 222.988 77.4637 223.308 77.4637 223.708V226.5H76.8317V223.876C76.8317 223.577 76.7544 223.351 76.5997 223.196C76.4504 223.036 76.253 222.956 76.0077 222.956C75.7037 222.956 75.4397 223.073 75.2157 223.308C74.997 223.543 74.8877 223.868 74.8877 224.284V226.5H74.2637V222.444H74.8877ZM80.104 225.836C80.3973 225.836 80.656 225.724 80.88 225.5C81.1093 225.271 81.224 224.932 81.224 224.484C81.224 223.967 81.1147 223.583 80.896 223.332C80.6773 223.081 80.424 222.956 80.136 222.956C79.7893 222.956 79.5147 223.095 79.312 223.372C79.1093 223.644 79.008 224.001 79.008 224.444C79.008 224.897 79.12 225.244 79.344 225.484C79.568 225.719 79.8213 225.836 80.104 225.836ZM81.224 222.444H81.856V226.172C81.856 226.791 81.6853 227.255 81.344 227.564C81.0027 227.879 80.5627 228.036 80.024 228.036C79.5333 228.036 79.1147 227.953 78.768 227.788V227.156C79.1093 227.353 79.5093 227.452 79.968 227.452C80.3573 227.452 80.664 227.348 80.888 227.14C81.112 226.932 81.224 226.607 81.224 226.164V225.708C80.9573 226.167 80.56 226.396 80.032 226.396C79.568 226.396 79.1707 226.225 78.84 225.884C78.5147 225.543 78.352 225.068 78.352 224.46C78.352 223.857 78.504 223.361 78.808 222.972C79.112 222.583 79.5093 222.388 80 222.388C80.5547 222.388 80.9627 222.631 81.224 223.116V222.444ZM85.1586 224.628H84.4546C84.1133 224.628 83.8573 224.695 83.6866 224.828C83.516 224.961 83.4306 225.129 83.4306 225.332C83.4306 225.535 83.4973 225.7 83.6306 225.828C83.764 225.951 83.9586 226.012 84.2146 226.012C84.5026 226.012 84.732 225.932 84.9026 225.772C85.0733 225.607 85.1586 225.399 85.1586 225.148V224.628ZM83.0626 223.292V222.66C83.3666 222.473 83.7666 222.38 84.2626 222.38C85.2813 222.38 85.7906 222.897 85.7906 223.932V226.5H85.1666V226.02C84.9586 226.367 84.58 226.54 84.0306 226.54C83.652 226.54 83.3453 226.428 83.1106 226.204C82.8813 225.98 82.7666 225.697 82.7666 225.356C82.7666 224.967 82.9133 224.665 83.2066 224.452C83.5053 224.233 83.9106 224.124 84.4226 224.124H85.1586V223.916C85.1586 223.596 85.0866 223.356 84.9426 223.196C84.7986 223.031 84.556 222.948 84.2146 222.948C83.7826 222.948 83.3986 223.063 83.0626 223.292ZM87.5361 222.444V223.148C87.7761 222.641 88.2028 222.388 88.8161 222.388C89.2108 222.388 89.5255 222.508 89.7601 222.748C89.9948 222.988 90.1121 223.308 90.1121 223.708V226.5H89.4801V223.876C89.4801 223.577 89.4028 223.351 89.2481 223.196C89.0988 223.036 88.9015 222.956 88.6561 222.956C88.3521 222.956 88.0881 223.073 87.8641 223.308C87.6455 223.543 87.5361 223.868 87.5361 224.284V226.5H86.9121V222.444H87.5361Z" fill="#2B2B2B"/>
<path d="M243.881 221.668V223.82H244.697C245.065 223.82 245.345 223.721 245.537 223.524C245.735 223.321 245.833 223.063 245.833 222.748C245.833 222.028 245.431 221.668 244.625 221.668H243.881ZM246.817 226.5H246.041L244.721 224.372H244.657H243.881V226.5H243.233V221.108H244.585C245.209 221.108 245.681 221.255 246.001 221.548C246.327 221.841 246.489 222.247 246.489 222.764C246.479 223.137 246.38 223.455 246.193 223.716C246.007 223.977 245.743 224.161 245.401 224.268L246.817 226.5ZM249.368 225.988C249.709 225.988 249.989 225.855 250.208 225.588C250.427 225.316 250.536 224.932 250.536 224.436C250.536 223.993 250.429 223.636 250.216 223.364C250.003 223.092 249.733 222.956 249.408 222.956C249.083 222.956 248.8 223.076 248.56 223.316C248.325 223.551 248.208 223.937 248.208 224.476C248.208 224.993 248.328 225.375 248.568 225.62C248.808 225.865 249.075 225.988 249.368 225.988ZM248.208 222.444V223.06C248.491 222.607 248.909 222.38 249.464 222.38C250.003 222.38 250.424 222.577 250.728 222.972C251.037 223.361 251.192 223.849 251.192 224.436C251.192 225.06 251.029 225.572 250.704 225.972C250.384 226.367 249.965 226.564 249.448 226.564C248.915 226.564 248.501 226.337 248.208 225.884V228.076H247.584V222.444H248.208ZM254.668 225.948H257.1V226.5H253.796V225.964C255.45 224.716 256.276 223.676 256.276 222.844C256.276 222.513 256.18 222.26 255.988 222.084C255.796 221.903 255.538 221.812 255.212 221.812C254.791 221.812 254.375 221.969 253.964 222.284V221.652C254.343 221.359 254.778 221.212 255.268 221.212C255.738 221.212 256.132 221.348 256.452 221.62C256.772 221.892 256.932 222.279 256.932 222.78C256.932 223.724 256.178 224.78 254.668 225.948ZM257.789 223.868C257.789 223.047 257.955 222.399 258.285 221.924C258.621 221.444 259.061 221.204 259.605 221.204C260.171 221.204 260.619 221.444 260.949 221.924C261.285 222.399 261.453 223.047 261.453 223.868C261.453 224.684 261.293 225.337 260.973 225.828C260.653 226.319 260.197 226.564 259.605 226.564C259.056 226.564 258.616 226.319 258.285 225.828C257.955 225.337 257.789 224.684 257.789 223.868ZM258.781 222.348C258.552 222.705 258.437 223.212 258.437 223.868C258.437 224.524 258.549 225.039 258.773 225.412C258.997 225.78 259.275 225.964 259.605 225.964C259.973 225.964 260.264 225.783 260.477 225.42C260.696 225.057 260.805 224.54 260.805 223.868C260.805 223.201 260.691 222.692 260.461 222.34C260.237 221.983 259.952 221.804 259.605 221.804C259.285 221.804 259.011 221.985 258.781 222.348ZM262.141 223.868C262.141 223.047 262.306 222.399 262.637 221.924C262.973 221.444 263.413 221.204 263.957 221.204C264.522 221.204 264.97 221.444 265.301 221.924C265.637 222.399 265.805 223.047 265.805 223.868C265.805 224.684 265.645 225.337 265.325 225.828C265.005 226.319 264.549 226.564 263.957 226.564C263.408 226.564 262.968 226.319 262.637 225.828C262.306 225.337 262.141 224.684 262.141 223.868ZM263.133 222.348C262.904 222.705 262.789 223.212 262.789 223.868C262.789 224.524 262.901 225.039 263.125 225.412C263.349 225.78 263.626 225.964 263.957 225.964C264.325 225.964 264.616 225.783 264.829 225.42C265.048 225.057 265.157 224.54 265.157 223.868C265.157 223.201 265.042 222.692 264.813 222.34C264.589 221.983 264.304 221.804 263.957 221.804C263.637 221.804 263.362 221.985 263.133 222.348ZM266.084 227.484L266.828 225.692H267.668L266.636 227.484H266.084ZM268.289 223.868C268.289 223.047 268.455 222.399 268.785 221.924C269.121 221.444 269.561 221.204 270.105 221.204C270.671 221.204 271.119 221.444 271.449 221.924C271.785 222.399 271.953 223.047 271.953 223.868C271.953 224.684 271.793 225.337 271.473 225.828C271.153 226.319 270.697 226.564 270.105 226.564C269.556 226.564 269.116 226.319 268.785 225.828C268.455 225.337 268.289 224.684 268.289 223.868ZM269.281 222.348C269.052 222.705 268.937 223.212 268.937 223.868C268.937 224.524 269.049 225.039 269.273 225.412C269.497 225.78 269.775 225.964 270.105 225.964C270.473 225.964 270.764 225.783 270.977 225.42C271.196 225.057 271.305 224.54 271.305 223.868C271.305 223.201 271.191 222.692 270.961 222.34C270.737 221.983 270.452 221.804 270.105 221.804C269.785 221.804 269.511 221.985 269.281 222.348ZM272.641 223.868C272.641 223.047 272.806 222.399 273.137 221.924C273.473 221.444 273.913 221.204 274.457 221.204C275.022 221.204 275.47 221.444 275.801 221.924C276.137 222.399 276.305 223.047 276.305 223.868C276.305 224.684 276.145 225.337 275.825 225.828C275.505 226.319 275.049 226.564 274.457 226.564C273.908 226.564 273.468 226.319 273.137 225.828C272.806 225.337 272.641 224.684 272.641 223.868ZM273.633 222.348C273.404 222.705 273.289 223.212 273.289 223.868C273.289 224.524 273.401 225.039 273.625 225.412C273.849 225.78 274.126 225.964 274.457 225.964C274.825 225.964 275.116 225.783 275.329 225.42C275.548 225.057 275.657 224.54 275.657 223.868C275.657 223.201 275.542 222.692 275.313 222.34C275.089 221.983 274.804 221.804 274.457 221.804C274.137 221.804 273.862 221.985 273.633 222.348ZM276.992 223.868C276.992 223.047 277.158 222.399 277.488 221.924C277.824 221.444 278.264 221.204 278.808 221.204C279.374 221.204 279.822 221.444 280.152 221.924C280.488 222.399 280.656 223.047 280.656 223.868C280.656 224.684 280.496 225.337 280.176 225.828C279.856 226.319 279.4 226.564 278.808 226.564C278.259 226.564 277.819 226.319 277.488 225.828C277.158 225.337 276.992 224.684 276.992 223.868ZM277.984 222.348C277.755 222.705 277.64 223.212 277.64 223.868C277.64 224.524 277.752 225.039 277.976 225.412C278.2 225.78 278.478 225.964 278.808 225.964C279.176 225.964 279.467 225.783 279.68 225.42C279.899 225.057 280.008 224.54 280.008 223.868C280.008 223.201 279.894 222.692 279.664 222.34C279.44 221.983 279.155 221.804 278.808 221.804C278.488 221.804 278.214 221.985 277.984 222.348Z" fill="#2B2B2B"/>
<mask id="path-12-inside-1_1124_4113" fill="white">
<path d="M57 235.5H281V257.5H57V235.5Z"/>
</mask>
<path d="M281 256.5H57V258.5H281V256.5Z" fill="#CCCCCC" mask="url(#path-12-inside-1_1124_4113)"/>
<path d="M57.616 248.5V243.108H58.264V248.5H57.616ZM59.192 245.836L61.36 248.5H60.52L58.392 245.836L60.448 243.108H61.248L59.192 245.836ZM64.7539 246.212V246.052C64.7539 245.716 64.6633 245.449 64.4819 245.252C64.3006 245.049 64.0499 244.948 63.7299 244.948C63.4259 244.948 63.1673 245.057 62.9539 245.276C62.7406 245.495 62.6153 245.807 62.5779 246.212H64.7539ZM65.1299 247.7V248.292C64.8153 248.457 64.4313 248.54 63.9779 248.54C63.3646 248.54 62.8686 248.353 62.4899 247.98C62.1166 247.601 61.9299 247.103 61.9299 246.484C61.9299 245.839 62.0979 245.329 62.4339 244.956C62.7699 244.583 63.2019 244.396 63.7299 244.396C64.2366 244.396 64.6393 244.559 64.9379 244.884C65.2366 245.209 65.3859 245.671 65.3859 246.268C65.3859 246.439 65.3726 246.596 65.3459 246.74H62.5779C62.6259 247.14 62.7779 247.447 63.0339 247.66C63.2899 247.873 63.6259 247.98 64.0419 247.98C64.4953 247.98 64.8579 247.887 65.1299 247.7ZM66.3496 248.5V242.876H66.9736V248.5H66.3496ZM67.7976 246.372L69.4456 248.5H68.6856L67.0536 246.372L68.6456 244.444H69.3976L67.7976 246.372ZM72.7134 244.444H73.3454V248.5H72.7134V247.796C72.5 248.297 72.076 248.548 71.4414 248.548C71.0414 248.548 70.724 248.431 70.4894 248.196C70.26 247.956 70.1454 247.636 70.1454 247.236V244.444H70.7774V247.076C70.7774 247.369 70.852 247.593 71.0014 247.748C71.1507 247.903 71.3534 247.98 71.6094 247.98C71.9454 247.98 72.212 247.863 72.4094 247.628C72.612 247.393 72.7134 247.076 72.7134 246.676V244.444ZM75.1377 244.444V245.156C75.351 244.655 75.719 244.404 76.2417 244.404C76.3377 244.404 76.4124 244.409 76.4657 244.42V245.044C76.3537 245.007 76.239 244.988 76.1217 244.988C75.839 244.988 75.6044 245.119 75.4177 245.38C75.231 245.641 75.1377 245.943 75.1377 246.284V248.5H74.5057L74.5137 244.444H75.1377ZM79.3071 246.628H78.6031C78.2617 246.628 78.0057 246.695 77.8351 246.828C77.6644 246.961 77.5791 247.129 77.5791 247.332C77.5791 247.535 77.6457 247.7 77.7791 247.828C77.9124 247.951 78.1071 248.012 78.3631 248.012C78.6511 248.012 78.8804 247.932 79.0511 247.772C79.2217 247.607 79.3071 247.399 79.3071 247.148V246.628ZM77.2111 245.292V244.66C77.5151 244.473 77.9151 244.38 78.4111 244.38C79.4297 244.38 79.9391 244.897 79.9391 245.932V248.5H79.3151V248.02C79.1071 248.367 78.7284 248.54 78.1791 248.54C77.8004 248.54 77.4937 248.428 77.2591 248.204C77.0297 247.98 76.9151 247.697 76.9151 247.356C76.9151 246.967 77.0617 246.665 77.3551 246.452C77.6537 246.233 78.0591 246.124 78.5711 246.124H79.3071V245.916C79.3071 245.596 79.2351 245.356 79.0911 245.196C78.9471 245.031 78.7044 244.948 78.3631 244.948C77.9311 244.948 77.5471 245.063 77.2111 245.292ZM81.6846 244.444V245.148C81.9246 244.641 82.3512 244.388 82.9646 244.388C83.3592 244.388 83.6739 244.508 83.9086 244.748C84.1432 244.988 84.2606 245.308 84.2606 245.708V248.5H83.6286V245.876C83.6286 245.577 83.5512 245.351 83.3966 245.196C83.2472 245.036 83.0499 244.956 82.8046 244.956C82.5006 244.956 82.2366 245.073 82.0126 245.308C81.7939 245.543 81.6846 245.868 81.6846 246.284V248.5H81.0606V244.444H81.6846ZM86.9009 247.836C87.1942 247.836 87.4529 247.724 87.6769 247.5C87.9062 247.271 88.0209 246.932 88.0209 246.484C88.0209 245.967 87.9115 245.583 87.6929 245.332C87.4742 245.081 87.2209 244.956 86.9329 244.956C86.5862 244.956 86.3115 245.095 86.1089 245.372C85.9062 245.644 85.8049 246.001 85.8049 246.444C85.8049 246.897 85.9169 247.244 86.1409 247.484C86.3649 247.719 86.6182 247.836 86.9009 247.836ZM88.0209 244.444H88.6529V248.172C88.6529 248.791 88.4822 249.255 88.1409 249.564C87.7995 249.879 87.3595 250.036 86.8209 250.036C86.3302 250.036 85.9115 249.953 85.5649 249.788V249.156C85.9062 249.353 86.3062 249.452 86.7649 249.452C87.1542 249.452 87.4609 249.348 87.6849 249.14C87.9089 248.932 88.0209 248.607 88.0209 248.164V247.708C87.7542 248.167 87.3569 248.396 86.8289 248.396C86.3649 248.396 85.9675 248.225 85.6369 247.884C85.3115 247.543 85.1489 247.068 85.1489 246.46C85.1489 245.857 85.3009 245.361 85.6049 244.972C85.9089 244.583 86.3062 244.388 86.7969 244.388C87.3515 244.388 87.7595 244.631 88.0209 245.116V244.444ZM91.9555 246.628H91.2515C90.9102 246.628 90.6542 246.695 90.4835 246.828C90.3128 246.961 90.2275 247.129 90.2275 247.332C90.2275 247.535 90.2942 247.7 90.4275 247.828C90.5608 247.951 90.7555 248.012 91.0115 248.012C91.2995 248.012 91.5288 247.932 91.6995 247.772C91.8702 247.607 91.9555 247.399 91.9555 247.148V246.628ZM89.8595 245.292V244.66C90.1635 244.473 90.5635 244.38 91.0595 244.38C92.0782 244.38 92.5875 244.897 92.5875 245.932V248.5H91.9635V248.02C91.7555 248.367 91.3768 248.54 90.8275 248.54C90.4488 248.54 90.1422 248.428 89.9075 248.204C89.6782 247.98 89.5635 247.697 89.5635 247.356C89.5635 246.967 89.7102 246.665 90.0035 246.452C90.3022 246.233 90.7075 246.124 91.2195 246.124H91.9555V245.916C91.9555 245.596 91.8835 245.356 91.7395 245.196C91.5955 245.031 91.3528 244.948 91.0115 244.948C90.5795 244.948 90.1955 245.063 89.8595 245.292ZM94.333 244.444V245.148C94.573 244.641 94.9997 244.388 95.613 244.388C96.0077 244.388 96.3223 244.508 96.557 244.748C96.7917 244.988 96.909 245.308 96.909 245.708V248.5H96.277V245.876C96.277 245.577 96.1997 245.351 96.045 245.196C95.8957 245.036 95.6983 244.956 95.453 244.956C95.149 244.956 94.885 245.073 94.661 245.308C94.4423 245.543 94.333 245.868 94.333 246.284V248.5H93.709V244.444H94.333ZM101.102 248.396L99.4624 244.444H100.174L100.702 245.78L101.414 247.62C101.457 247.481 101.67 246.868 102.054 245.78L102.526 244.444H103.206L101.742 248.396C101.534 248.945 101.286 249.332 100.998 249.556C100.716 249.78 100.39 249.892 100.022 249.892C99.8838 249.892 99.7718 249.879 99.6864 249.852V249.284C99.7664 249.305 99.8571 249.316 99.9584 249.316C100.497 249.316 100.878 249.009 101.102 248.396ZM106.112 246.628H105.408C105.066 246.628 104.81 246.695 104.64 246.828C104.469 246.961 104.384 247.129 104.384 247.332C104.384 247.535 104.45 247.7 104.584 247.828C104.717 247.951 104.912 248.012 105.168 248.012C105.456 248.012 105.685 247.932 105.856 247.772C106.026 247.607 106.112 247.399 106.112 247.148V246.628ZM104.016 245.292V244.66C104.32 244.473 104.72 244.38 105.216 244.38C106.234 244.38 106.744 244.897 106.744 245.932V248.5H106.12V248.02C105.912 248.367 105.533 248.54 104.984 248.54C104.605 248.54 104.298 248.428 104.064 248.204C103.834 247.98 103.72 247.697 103.72 247.356C103.72 246.967 103.866 246.665 104.16 246.452C104.458 246.233 104.864 246.124 105.376 246.124H106.112V245.916C106.112 245.596 106.04 245.356 105.896 245.196C105.752 245.031 105.509 244.948 105.168 244.948C104.736 244.948 104.352 245.063 104.016 245.292ZM108.489 244.444V245.148C108.729 244.641 109.156 244.388 109.769 244.388C110.164 244.388 110.479 244.508 110.713 244.748C110.948 244.988 111.065 245.308 111.065 245.708V248.5H110.433V245.876C110.433 245.577 110.356 245.351 110.201 245.196C110.052 245.036 109.855 244.956 109.609 244.956C109.305 244.956 109.041 245.073 108.817 245.308C108.599 245.543 108.489 245.868 108.489 246.284V248.5H107.865V244.444H108.489ZM113.706 247.836C113.999 247.836 114.258 247.724 114.482 247.5C114.711 247.271 114.826 246.932 114.826 246.484C114.826 245.967 114.716 245.583 114.498 245.332C114.279 245.081 114.026 244.956 113.738 244.956C113.391 244.956 113.116 245.095 112.914 245.372C112.711 245.644 112.61 246.001 112.61 246.444C112.61 246.897 112.722 247.244 112.946 247.484C113.17 247.719 113.423 247.836 113.706 247.836ZM114.826 244.444H115.458V248.172C115.458 248.791 115.287 249.255 114.946 249.564C114.604 249.879 114.164 250.036 113.626 250.036C113.135 250.036 112.716 249.953 112.37 249.788V249.156C112.711 249.353 113.111 249.452 113.57 249.452C113.959 249.452 114.266 249.348 114.49 249.14C114.714 248.932 114.826 248.607 114.826 248.164V247.708C114.559 248.167 114.162 248.396 113.634 248.396C113.17 248.396 112.772 248.225 112.442 247.884C112.116 247.543 111.954 247.068 111.954 246.46C111.954 245.857 112.106 245.361 112.41 244.972C112.714 244.583 113.111 244.388 113.602 244.388C114.156 244.388 114.564 244.631 114.826 245.116V244.444ZM119.153 244.444V245.1C119.377 244.625 119.759 244.388 120.297 244.388C120.921 244.388 121.316 244.652 121.481 245.18C121.599 244.924 121.761 244.729 121.969 244.596C122.183 244.457 122.42 244.388 122.681 244.388C123.103 244.388 123.42 244.508 123.633 244.748C123.847 244.988 123.953 245.311 123.953 245.716V248.5H123.321V245.876C123.321 245.263 123.063 244.956 122.545 244.956C122.289 244.956 122.06 245.073 121.857 245.308C121.655 245.537 121.553 245.863 121.553 246.284V248.5H120.921V245.876C120.921 245.263 120.663 244.956 120.145 244.956C119.889 244.956 119.66 245.073 119.457 245.308C119.255 245.537 119.153 245.863 119.153 246.284V248.5H118.529V244.444H119.153ZM127.26 246.628H126.556C126.215 246.628 125.959 246.695 125.788 246.828C125.618 246.961 125.532 247.129 125.532 247.332C125.532 247.535 125.599 247.7 125.732 247.828C125.866 247.951 126.06 248.012 126.316 248.012C126.604 248.012 126.834 247.932 127.004 247.772C127.175 247.607 127.26 247.399 127.26 247.148V246.628ZM125.164 245.292V244.66C125.468 244.473 125.868 244.38 126.364 244.38C127.383 244.38 127.892 244.897 127.892 245.932V248.5H127.268V248.02C127.06 248.367 126.682 248.54 126.132 248.54C125.754 248.54 125.447 248.428 125.212 248.204C124.983 247.98 124.868 247.697 124.868 247.356C124.868 246.967 125.015 246.665 125.308 246.452C125.607 246.233 126.012 246.124 126.524 246.124H127.26V245.916C127.26 245.596 127.188 245.356 127.044 245.196C126.9 245.031 126.658 244.948 126.316 244.948C125.884 244.948 125.5 245.063 125.164 245.292ZM131.222 244.58V245.18C130.976 245.031 130.64 244.956 130.214 244.956C130 244.956 129.83 245.007 129.702 245.108C129.579 245.204 129.518 245.329 129.518 245.484C129.518 245.58 129.536 245.665 129.574 245.74C129.611 245.809 129.683 245.879 129.79 245.948C129.902 246.017 129.982 246.065 130.03 246.092C130.083 246.113 130.195 246.161 130.366 246.236C130.707 246.375 130.974 246.532 131.166 246.708C131.358 246.884 131.454 247.121 131.454 247.42C131.454 247.767 131.331 248.041 131.086 248.244C130.846 248.447 130.515 248.548 130.094 248.548C129.603 248.548 129.206 248.465 128.902 248.3V247.684C129.259 247.897 129.643 248.004 130.054 248.004C130.299 248.004 130.486 247.956 130.614 247.86C130.742 247.764 130.806 247.633 130.806 247.468C130.806 247.276 130.734 247.127 130.59 247.02C130.451 246.913 130.216 246.793 129.886 246.66C129.582 246.543 129.336 246.396 129.15 246.22C128.968 246.044 128.878 245.807 128.878 245.508C128.878 245.172 129.003 244.905 129.254 244.708C129.51 244.505 129.827 244.404 130.206 244.404C130.627 244.404 130.966 244.463 131.222 244.58ZM132.343 248.5V244.444H132.975V248.5H132.343ZM132.359 243.468C132.284 243.388 132.247 243.289 132.247 243.172C132.247 243.055 132.284 242.956 132.359 242.876C132.439 242.796 132.537 242.756 132.655 242.756C132.772 242.756 132.871 242.796 132.951 242.876C133.031 242.956 133.071 243.055 133.071 243.172C133.071 243.289 133.031 243.388 132.951 243.468C132.871 243.543 132.772 243.58 132.655 243.58C132.537 243.58 132.439 243.543 132.359 243.468ZM134.802 242.844V245.148C135.042 244.641 135.468 244.388 136.082 244.388C136.471 244.388 136.783 244.508 137.018 244.748C137.258 244.988 137.378 245.313 137.378 245.724V248.5H136.746V245.876C136.746 245.583 136.668 245.356 136.514 245.196C136.364 245.036 136.167 244.956 135.922 244.956C135.623 244.956 135.362 245.071 135.138 245.3C134.914 245.529 134.802 245.857 134.802 246.284V248.5H134.178V242.844H134.802ZM141.075 242.844V245.148C141.315 244.641 141.742 244.388 142.355 244.388C142.745 244.388 143.057 244.508 143.291 244.748C143.531 244.988 143.651 245.313 143.651 245.724V248.5H143.019V245.876C143.019 245.583 142.942 245.356 142.787 245.196C142.638 245.036 142.441 244.956 142.195 244.956C141.897 244.956 141.635 245.071 141.411 245.3C141.187 245.529 141.075 245.857 141.075 246.284V248.5H140.451V242.844H141.075ZM146.956 246.628H146.252C145.91 246.628 145.654 246.695 145.484 246.828C145.313 246.961 145.228 247.129 145.228 247.332C145.228 247.535 145.294 247.7 145.428 247.828C145.561 247.951 145.756 248.012 146.012 248.012C146.3 248.012 146.529 247.932 146.7 247.772C146.87 247.607 146.956 247.399 146.956 247.148V246.628ZM144.86 245.292V244.66C145.164 244.473 145.564 244.38 146.06 244.38C147.078 244.38 147.588 244.897 147.588 245.932V248.5H146.964V248.02C146.756 248.367 146.377 248.54 145.828 248.54C145.449 248.54 145.142 248.428 144.908 248.204C144.678 247.98 144.564 247.697 144.564 247.356C144.564 246.967 144.71 246.665 145.004 246.452C145.302 246.233 145.708 246.124 146.22 246.124H146.956V245.916C146.956 245.596 146.884 245.356 146.74 245.196C146.596 245.031 146.353 244.948 146.012 244.948C145.58 244.948 145.196 245.063 144.86 245.292ZM149.333 244.444V245.156C149.546 244.655 149.914 244.404 150.437 244.404C150.533 244.404 150.608 244.409 150.661 244.42V245.044C150.549 245.007 150.434 244.988 150.317 244.988C150.034 244.988 149.8 245.119 149.613 245.38C149.426 245.641 149.333 245.943 149.333 246.284V248.5H148.701L148.709 244.444H149.333ZM153.838 244.444H154.47V248.5H153.838V247.796C153.625 248.297 153.201 248.548 152.566 248.548C152.166 248.548 151.849 248.431 151.614 248.196C151.385 247.956 151.27 247.636 151.27 247.236V244.444H151.902V247.076C151.902 247.369 151.977 247.593 152.126 247.748C152.276 247.903 152.478 247.98 152.734 247.98C153.07 247.98 153.337 247.863 153.534 247.628C153.737 247.393 153.838 247.076 153.838 246.676V244.444ZM157.847 244.58V245.18C157.601 245.031 157.265 244.956 156.839 244.956C156.625 244.956 156.455 245.007 156.327 245.108C156.204 245.204 156.143 245.329 156.143 245.484C156.143 245.58 156.161 245.665 156.199 245.74C156.236 245.809 156.308 245.879 156.415 245.948C156.527 246.017 156.607 246.065 156.655 246.092C156.708 246.113 156.82 246.161 156.991 246.236C157.332 246.375 157.599 246.532 157.791 246.708C157.983 246.884 158.079 247.121 158.079 247.42C158.079 247.767 157.956 248.041 157.711 248.244C157.471 248.447 157.14 248.548 156.719 248.548C156.228 248.548 155.831 248.465 155.527 248.3V247.684C155.884 247.897 156.268 248.004 156.679 248.004C156.924 248.004 157.111 247.956 157.239 247.86C157.367 247.764 157.431 247.633 157.431 247.468C157.431 247.276 157.359 247.127 157.215 247.02C157.076 246.913 156.841 246.793 156.511 246.66C156.207 246.543 155.961 246.396 155.775 246.22C155.593 246.044 155.503 245.807 155.503 245.508C155.503 245.172 155.628 244.905 155.879 244.708C156.135 244.505 156.452 244.404 156.831 244.404C157.252 244.404 157.591 244.463 157.847 244.58ZM162.433 247.988C162.763 247.988 163.043 247.865 163.273 247.62C163.507 247.375 163.625 246.983 163.625 246.444C163.625 245.932 163.505 245.556 163.265 245.316C163.025 245.076 162.761 244.956 162.473 244.956C162.137 244.956 161.857 245.092 161.633 245.364C161.414 245.631 161.305 246.015 161.305 246.516C161.305 246.953 161.411 247.308 161.625 247.58C161.838 247.852 162.107 247.988 162.433 247.988ZM163.625 242.844H164.257V248.5H163.625V247.9C163.337 248.343 162.921 248.564 162.377 248.564C161.838 248.564 161.414 248.364 161.105 247.964C160.801 247.564 160.649 247.079 160.649 246.508C160.649 245.873 160.811 245.361 161.137 244.972C161.462 244.577 161.881 244.38 162.393 244.38C162.921 244.38 163.331 244.607 163.625 245.06V242.844ZM165.46 248.5V244.444H166.092V248.5H165.46ZM165.476 243.468C165.401 243.388 165.364 243.289 165.364 243.172C165.364 243.055 165.401 242.956 165.476 242.876C165.556 242.796 165.654 242.756 165.772 242.756C165.889 242.756 165.988 242.796 166.068 242.876C166.148 242.956 166.188 243.055 166.188 243.172C166.188 243.289 166.148 243.388 166.068 243.468C165.988 243.543 165.889 243.58 165.772 243.58C165.654 243.58 165.556 243.543 165.476 243.468ZM171.096 247.988C171.421 247.988 171.691 247.852 171.904 247.58C172.117 247.308 172.224 246.953 172.224 246.516C172.224 246.015 172.112 245.631 171.888 245.364C171.669 245.092 171.392 244.956 171.056 244.956C170.768 244.956 170.504 245.076 170.264 245.316C170.024 245.556 169.904 245.932 169.904 246.444C169.904 246.983 170.019 247.375 170.248 247.62C170.483 247.865 170.765 247.988 171.096 247.988ZM169.904 242.844V245.052C170.197 244.604 170.608 244.38 171.136 244.38C171.648 244.38 172.067 244.577 172.392 244.972C172.717 245.361 172.88 245.873 172.88 246.508C172.88 247.079 172.725 247.564 172.416 247.964C172.112 248.364 171.691 248.564 171.152 248.564C170.608 248.564 170.192 248.343 169.904 247.9V248.5H169.272V242.844H169.904ZM175.995 246.628H175.291C174.949 246.628 174.693 246.695 174.523 246.828C174.352 246.961 174.267 247.129 174.267 247.332C174.267 247.535 174.333 247.7 174.467 247.828C174.6 247.951 174.795 248.012 175.051 248.012C175.339 248.012 175.568 247.932 175.739 247.772C175.909 247.607 175.995 247.399 175.995 247.148V246.628ZM173.899 245.292V244.66C174.203 244.473 174.603 244.38 175.099 244.38C176.117 244.38 176.627 244.897 176.627 245.932V248.5H176.003V248.02C175.795 248.367 175.416 248.54 174.867 248.54C174.488 248.54 174.181 248.428 173.947 248.204C173.717 247.98 173.603 247.697 173.603 247.356C173.603 246.967 173.749 246.665 174.043 246.452C174.341 246.233 174.747 246.124 175.259 246.124H175.995V245.916C175.995 245.596 175.923 245.356 175.779 245.196C175.635 245.031 175.392 244.948 175.051 244.948C174.619 244.948 174.235 245.063 173.899 245.292ZM178.868 248.396L177.228 244.444H177.94L178.468 245.78L179.18 247.62C179.223 247.481 179.436 246.868 179.82 245.78L180.292 244.444H180.972L179.508 248.396C179.3 248.945 179.052 249.332 178.764 249.556C178.481 249.78 178.156 249.892 177.788 249.892C177.649 249.892 177.537 249.879 177.452 249.852V249.284C177.532 249.305 177.623 249.316 177.724 249.316C178.263 249.316 178.644 249.009 178.868 248.396ZM183.877 246.628H183.173C182.832 246.628 182.576 246.695 182.405 246.828C182.235 246.961 182.149 247.129 182.149 247.332C182.149 247.535 182.216 247.7 182.349 247.828C182.483 247.951 182.677 248.012 182.933 248.012C183.221 248.012 183.451 247.932 183.621 247.772C183.792 247.607 183.877 247.399 183.877 247.148V246.628ZM181.781 245.292V244.66C182.085 244.473 182.485 244.38 182.981 244.38C184 244.38 184.509 244.897 184.509 245.932V248.5H183.885V248.02C183.677 248.367 183.299 248.54 182.749 248.54C182.371 248.54 182.064 248.428 181.829 248.204C181.6 247.98 181.485 247.697 181.485 247.356C181.485 246.967 181.632 246.665 181.925 246.452C182.224 246.233 182.629 246.124 183.141 246.124H183.877V245.916C183.877 245.596 183.805 245.356 183.661 245.196C183.517 245.031 183.275 244.948 182.933 244.948C182.501 244.948 182.117 245.063 181.781 245.292ZM186.255 244.444V245.156C186.468 244.655 186.836 244.404 187.359 244.404C187.455 244.404 187.53 244.409 187.583 244.42V245.044C187.471 245.007 187.356 244.988 187.239 244.988C186.956 244.988 186.722 245.119 186.535 245.38C186.348 245.641 186.255 245.943 186.255 246.284V248.5H185.623L185.631 244.444H186.255Z" fill="#FF1934"/>
<path d="M245.248 243.668V245.82H246.064C246.432 245.82 246.712 245.721 246.904 245.524C247.102 245.321 247.2 245.063 247.2 244.748C247.2 244.028 246.798 243.668 245.992 243.668H245.248ZM248.184 248.5H247.408L246.088 246.372H246.024H245.248V248.5H244.6V243.108H245.952C246.576 243.108 247.048 243.255 247.368 243.548C247.694 243.841 247.856 244.247 247.856 244.764C247.846 245.137 247.747 245.455 247.56 245.716C247.374 245.977 247.11 246.161 246.768 246.268L248.184 248.5ZM250.735 247.988C251.077 247.988 251.357 247.855 251.575 247.588C251.794 247.316 251.903 246.932 251.903 246.436C251.903 245.993 251.797 245.636 251.583 245.364C251.37 245.092 251.101 244.956 250.775 244.956C250.45 244.956 250.167 245.076 249.927 245.316C249.693 245.551 249.575 245.937 249.575 246.476C249.575 246.993 249.695 247.375 249.935 247.62C250.175 247.865 250.442 247.988 250.735 247.988ZM249.575 244.444V245.06C249.858 244.607 250.277 244.38 250.831 244.38C251.37 244.38 251.791 244.577 252.095 244.972C252.405 245.361 252.559 245.849 252.559 246.436C252.559 247.06 252.397 247.572 252.071 247.972C251.751 248.367 251.333 248.564 250.815 248.564C250.282 248.564 249.869 248.337 249.575 247.884V250.076H248.951V244.444H249.575ZM255.003 244.7V244.02L256.243 243.268H256.835V248.5H256.211V243.956L255.003 244.7ZM257.789 245.868C257.789 245.047 257.955 244.399 258.285 243.924C258.621 243.444 259.061 243.204 259.605 243.204C260.171 243.204 260.619 243.444 260.949 243.924C261.285 244.399 261.453 245.047 261.453 245.868C261.453 246.684 261.293 247.337 260.973 247.828C260.653 248.319 260.197 248.564 259.605 248.564C259.056 248.564 258.616 248.319 258.285 247.828C257.955 247.337 257.789 246.684 257.789 245.868ZM258.781 244.348C258.552 244.705 258.437 245.212 258.437 245.868C258.437 246.524 258.549 247.039 258.773 247.412C258.997 247.78 259.275 247.964 259.605 247.964C259.973 247.964 260.264 247.783 260.477 247.42C260.696 247.057 260.805 246.54 260.805 245.868C260.805 245.201 260.691 244.692 260.461 244.34C260.237 243.983 259.952 243.804 259.605 243.804C259.285 243.804 259.011 243.985 258.781 244.348ZM262.141 245.868C262.141 245.047 262.306 244.399 262.637 243.924C262.973 243.444 263.413 243.204 263.957 243.204C264.522 243.204 264.97 243.444 265.301 243.924C265.637 244.399 265.805 245.047 265.805 245.868C265.805 246.684 265.645 247.337 265.325 247.828C265.005 248.319 264.549 248.564 263.957 248.564C263.408 248.564 262.968 248.319 262.637 247.828C262.306 247.337 262.141 246.684 262.141 245.868ZM263.133 244.348C262.904 244.705 262.789 245.212 262.789 245.868C262.789 246.524 262.901 247.039 263.125 247.412C263.349 247.78 263.626 247.964 263.957 247.964C264.325 247.964 264.616 247.783 264.829 247.42C265.048 247.057 265.157 246.54 265.157 245.868C265.157 245.201 265.042 244.692 264.813 244.34C264.589 243.983 264.304 243.804 263.957 243.804C263.637 243.804 263.362 243.985 263.133 244.348ZM266.084 249.484L266.828 247.692H267.668L266.636 249.484H266.084ZM268.289 245.868C268.289 245.047 268.455 244.399 268.785 243.924C269.121 243.444 269.561 243.204 270.105 243.204C270.671 243.204 271.119 243.444 271.449 243.924C271.785 244.399 271.953 245.047 271.953 245.868C271.953 246.684 271.793 247.337 271.473 247.828C271.153 248.319 270.697 248.564 270.105 248.564C269.556 248.564 269.116 248.319 268.785 247.828C268.455 247.337 268.289 246.684 268.289 245.868ZM269.281 244.348C269.052 244.705 268.937 245.212 268.937 245.868C268.937 246.524 269.049 247.039 269.273 247.412C269.497 247.78 269.775 247.964 270.105 247.964C270.473 247.964 270.764 247.783 270.977 247.42C271.196 247.057 271.305 246.54 271.305 245.868C271.305 245.201 271.191 244.692 270.961 244.34C270.737 243.983 270.452 243.804 270.105 243.804C269.785 243.804 269.511 243.985 269.281 244.348ZM272.641 245.868C272.641 245.047 272.806 244.399 273.137 243.924C273.473 243.444 273.913 243.204 274.457 243.204C275.022 243.204 275.47 243.444 275.801 243.924C276.137 244.399 276.305 245.047 276.305 245.868C276.305 246.684 276.145 247.337 275.825 247.828C275.505 248.319 275.049 248.564 274.457 248.564C273.908 248.564 273.468 248.319 273.137 247.828C272.806 247.337 272.641 246.684 272.641 245.868ZM273.633 244.348C273.404 244.705 273.289 245.212 273.289 245.868C273.289 246.524 273.401 247.039 273.625 247.412C273.849 247.78 274.126 247.964 274.457 247.964C274.825 247.964 275.116 247.783 275.329 247.42C275.548 247.057 275.657 246.54 275.657 245.868C275.657 245.201 275.542 244.692 275.313 244.34C275.089 243.983 274.804 243.804 274.457 243.804C274.137 243.804 273.862 243.985 273.633 244.348ZM276.992 245.868C276.992 245.047 277.158 244.399 277.488 243.924C277.824 243.444 278.264 243.204 278.808 243.204C279.374 243.204 279.822 243.444 280.152 243.924C280.488 244.399 280.656 245.047 280.656 245.868C280.656 246.684 280.496 247.337 280.176 247.828C279.856 248.319 279.4 248.564 278.808 248.564C278.259 248.564 277.819 248.319 277.488 247.828C277.158 247.337 276.992 246.684 276.992 245.868ZM277.984 244.348C277.755 244.705 277.64 245.212 277.64 245.868C277.64 246.524 277.752 247.039 277.976 247.412C278.2 247.78 278.478 247.964 278.808 247.964C279.176 247.964 279.467 247.783 279.68 247.42C279.899 247.057 280.008 246.54 280.008 245.868C280.008 245.201 279.894 244.692 279.664 244.34C279.44 243.983 279.155 243.804 278.808 243.804C278.488 243.804 278.214 243.985 277.984 244.348Z" fill="#FF1934"/>
<rect x="109" y="275" width="120" height="24" rx="8" fill="#FF1934"/>
<path d="M132.123 286.352L132.691 286.352C133.059 286.352 133.333 286.264 133.515 286.088C133.696 285.912 133.787 285.675 133.787 285.376C133.787 285.083 133.696 284.853 133.515 284.688C133.333 284.517 133.067 284.432 132.715 284.432L132.123 284.432L132.123 286.352ZM131.115 283.608L132.803 283.608C133.411 283.608 133.896 283.773 134.259 284.104C134.627 284.435 134.811 284.859 134.811 285.376C134.811 285.925 134.621 286.363 134.243 286.688C133.869 287.008 133.397 287.168 132.827 287.168L132.123 287.168L132.123 289L131.115 289L131.115 283.608ZM135.56 289L135.56 284.944L136.52 284.944L136.52 289L135.56 289ZM135.464 283.728C135.464 283.568 135.52 283.432 135.632 283.32C135.744 283.208 135.88 283.152 136.04 283.152C136.2 283.152 136.336 283.208 136.448 283.32C136.56 283.432 136.616 283.568 136.616 283.728C136.616 283.893 136.56 284.032 136.448 284.144C136.336 284.256 136.2 284.312 136.04 284.312C135.88 284.312 135.744 284.256 135.632 284.144C135.52 284.032 135.464 283.893 135.464 283.728ZM137.638 289L137.638 283.344L138.598 283.344L138.598 289L137.638 289ZM139.716 289L139.716 284.944L140.676 284.944L140.676 289L139.716 289ZM139.62 283.728C139.62 283.568 139.676 283.432 139.788 283.32C139.9 283.208 140.036 283.152 140.196 283.152C140.356 283.152 140.492 283.208 140.604 283.32C140.716 283.432 140.772 283.568 140.772 283.728C140.772 283.893 140.716 284.032 140.604 284.144C140.492 284.256 140.356 284.312 140.196 284.312C140.036 284.312 139.9 284.256 139.788 284.144C139.676 284.032 139.62 283.893 139.62 283.728ZM142.714 283.344L142.714 285.632C142.933 285.141 143.346 284.896 143.954 284.896C144.349 284.896 144.666 285.021 144.906 285.272C145.152 285.517 145.274 285.875 145.274 286.344L145.274 289L144.314 289L144.314 286.512C144.314 286.256 144.248 286.056 144.114 285.912C143.986 285.768 143.818 285.696 143.61 285.696C143.381 285.696 143.173 285.784 142.986 285.96C142.805 286.136 142.714 286.424 142.714 286.824L142.714 289L141.754 289L141.754 283.344L142.714 283.344ZM149.31 286.352L149.878 286.352C150.246 286.352 150.521 286.264 150.702 286.088C150.884 285.912 150.974 285.675 150.974 285.376C150.974 285.083 150.884 284.853 150.702 284.688C150.521 284.517 150.254 284.432 149.902 284.432L149.31 284.432L149.31 286.352ZM148.302 283.608L149.99 283.608C150.598 283.608 151.084 283.773 151.446 284.104C151.814 284.435 151.998 284.859 151.998 285.376C151.998 285.925 151.809 286.363 151.43 286.688C151.057 287.008 150.585 287.168 150.014 287.168L149.31 287.168L149.31 289L148.302 289L148.302 283.608ZM153.668 284.944L153.668 285.664C153.854 285.163 154.196 284.912 154.692 284.912C154.804 284.912 154.894 284.92 154.964 284.936L154.964 285.864C154.841 285.811 154.705 285.784 154.556 285.784C154.294 285.784 154.081 285.891 153.916 286.104C153.75 286.317 153.668 286.584 153.668 286.904L153.668 289L152.7 289L152.708 284.944L153.668 284.944ZM157.264 289.064C156.65 289.064 156.17 288.872 155.824 288.488C155.482 288.104 155.312 287.613 155.312 287.016C155.312 286.397 155.49 285.888 155.848 285.488C156.205 285.083 156.677 284.88 157.264 284.88C157.888 284.88 158.37 285.077 158.712 285.472C159.053 285.861 159.224 286.357 159.224 286.96C159.224 287.573 159.05 288.077 158.704 288.472C158.362 288.867 157.882 289.064 157.264 289.064ZM157.264 285.664C156.96 285.664 156.725 285.789 156.56 286.04C156.4 286.291 156.32 286.605 156.32 286.984C156.32 287.357 156.402 287.669 156.568 287.92C156.733 288.171 156.968 288.296 157.272 288.296C157.586 288.296 157.824 288.173 157.984 287.928C158.144 287.683 158.224 287.371 158.224 286.992C158.224 286.603 158.146 286.285 157.992 286.04C157.837 285.789 157.594 285.664 157.264 285.664ZM161.795 288.232C162.083 288.232 162.323 288.123 162.515 287.904C162.707 287.68 162.803 287.357 162.803 286.936C162.803 286.525 162.702 286.219 162.499 286.016C162.297 285.808 162.065 285.704 161.803 285.704C161.526 285.704 161.291 285.819 161.099 286.048C160.913 286.272 160.819 286.587 160.819 286.992C160.819 287.36 160.913 287.659 161.099 287.888C161.286 288.117 161.518 288.232 161.795 288.232ZM162.803 283.344L163.763 283.344L163.763 289L162.803 289L162.803 288.368C162.526 288.827 162.115 289.056 161.571 289.056C161.038 289.056 160.614 288.853 160.299 288.448C159.99 288.043 159.835 287.552 159.835 286.976C159.835 286.336 159.998 285.829 160.323 285.456C160.654 285.077 161.075 284.888 161.587 284.888C162.115 284.888 162.521 285.115 162.803 285.568L162.803 283.344ZM167.313 284.944L168.281 284.944L168.281 289L167.313 289L167.313 288.336C167.1 288.805 166.684 289.04 166.065 289.04C165.655 289.04 165.335 288.923 165.105 288.688C164.876 288.453 164.761 288.12 164.761 287.688L164.761 284.944L165.721 284.944L165.721 287.464C165.721 287.72 165.783 287.915 165.905 288.048C166.033 288.181 166.207 288.248 166.425 288.248C166.703 288.248 166.919 288.155 167.073 287.968C167.233 287.781 167.313 287.499 167.313 287.12L167.313 284.944ZM172.869 289L171.741 289L170.285 286.904L170.285 289L169.325 289L169.325 283.44L170.285 283.44L170.285 286.848L171.717 284.944L172.837 284.944L171.349 286.88L172.869 289ZM176.537 286.352L177.105 286.352C177.473 286.352 177.747 286.264 177.929 286.088C178.11 285.912 178.201 285.675 178.201 285.376C178.201 285.083 178.11 284.853 177.929 284.688C177.747 284.517 177.481 284.432 177.129 284.432L176.537 284.432L176.537 286.352ZM175.529 283.608L177.217 283.608C177.825 283.608 178.31 283.773 178.673 284.104C179.041 284.435 179.225 284.859 179.225 285.376C179.225 285.925 179.035 286.363 178.657 286.688C178.283 287.008 177.811 287.168 177.241 287.168L176.537 287.168L176.537 289L175.529 289L175.529 283.608ZM179.974 289L179.974 284.944L180.934 284.944L180.934 289L179.974 289ZM179.878 283.728C179.878 283.568 179.934 283.432 180.046 283.32C180.158 283.208 180.294 283.152 180.454 283.152C180.614 283.152 180.75 283.208 180.862 283.32C180.974 283.432 181.03 283.568 181.03 283.728C181.03 283.893 180.974 284.032 180.862 284.144C180.75 284.256 180.614 284.312 180.454 284.312C180.294 284.312 180.158 284.256 180.046 284.144C179.934 284.032 179.878 283.893 179.878 283.728ZM182.972 284.944L182.972 285.64C183.202 285.144 183.618 284.896 184.22 284.896C184.626 284.896 184.946 285.019 185.18 285.264C185.415 285.509 185.532 285.856 185.532 286.304L185.532 289L184.572 289L184.572 286.504C184.572 286.237 184.508 286.037 184.38 285.904C184.252 285.765 184.079 285.696 183.86 285.696C183.61 285.696 183.399 285.795 183.228 285.992C183.058 286.184 182.972 286.461 182.972 286.824L182.972 289L182.012 289L182.012 284.944L182.972 284.944ZM185.68 290.448L185.68 289.688C185.866 289.768 186.029 289.808 186.168 289.808C186.45 289.808 186.592 289.624 186.592 289.256L186.592 284.944L187.552 284.944L187.552 289.272C187.552 289.672 187.442 289.989 187.224 290.224C187.005 290.459 186.693 290.576 186.288 290.576C186.096 290.576 185.893 290.533 185.68 290.448ZM186.488 283.728C186.488 283.568 186.544 283.432 186.656 283.32C186.768 283.208 186.904 283.152 187.064 283.152C187.229 283.152 187.368 283.208 187.48 283.32C187.592 283.432 187.648 283.568 187.648 283.728C187.648 283.893 187.592 284.032 187.48 284.144C187.368 284.256 187.229 284.312 187.064 284.312C186.904 284.312 186.768 284.256 186.656 284.144C186.544 284.032 186.488 283.893 186.488 283.728ZM190.662 287.256L190.166 287.256C189.916 287.256 189.724 287.309 189.59 287.416C189.457 287.517 189.39 287.648 189.39 287.808C189.39 288.149 189.588 288.32 189.982 288.32C190.196 288.32 190.361 288.259 190.478 288.136C190.601 288.008 190.662 287.843 190.662 287.64L190.662 287.256ZM188.694 286.04L188.694 285.152C188.998 284.965 189.436 284.872 190.006 284.872C191.105 284.872 191.654 285.384 191.654 286.408L191.654 289L190.702 289L190.702 288.512C190.516 288.859 190.164 289.032 189.646 289.032C189.262 289.032 188.956 288.92 188.726 288.696C188.502 288.472 188.39 288.189 188.39 287.848C188.39 287.464 188.534 287.163 188.822 286.944C189.11 286.725 189.526 286.616 190.07 286.616L190.662 286.616L190.662 286.368C190.662 286.144 190.604 285.973 190.486 285.856C190.369 285.739 190.169 285.68 189.886 285.68C189.454 285.68 189.057 285.8 188.694 286.04ZM193.605 284.944L193.605 285.584C193.834 285.125 194.216 284.896 194.749 284.896C195.341 284.896 195.725 285.152 195.901 285.664C196.008 285.419 196.168 285.229 196.381 285.096C196.594 284.963 196.837 284.896 197.109 284.896C197.52 284.896 197.837 285.021 198.061 285.272C198.285 285.517 198.397 285.869 198.397 286.328L198.397 289L197.429 289L197.429 286.512C197.429 285.968 197.221 285.696 196.805 285.696C196.597 285.696 196.41 285.787 196.245 285.968C196.085 286.149 196.005 286.435 196.005 286.824L196.005 289L195.037 289L195.037 286.512C195.037 285.968 194.829 285.696 194.413 285.696C194.205 285.696 194.018 285.787 193.853 285.968C193.688 286.149 193.605 286.435 193.605 286.824L193.605 289L192.645 289L192.645 284.944L193.605 284.944ZM201.459 287.256L200.963 287.256C200.713 287.256 200.521 287.309 200.387 287.416C200.254 287.517 200.187 287.648 200.187 287.808C200.187 288.149 200.385 288.32 200.779 288.32C200.993 288.32 201.158 288.259 201.275 288.136C201.398 288.008 201.459 287.843 201.459 287.64L201.459 287.256ZM199.491 286.04L199.491 285.152C199.795 284.965 200.233 284.872 200.803 284.872C201.902 284.872 202.451 285.384 202.451 286.408L202.451 289L201.499 289L201.499 288.512C201.313 288.859 200.961 289.032 200.443 289.032C200.059 289.032 199.753 288.92 199.523 288.696C199.299 288.472 199.187 288.189 199.187 287.848C199.187 287.464 199.331 287.163 199.619 286.944C199.907 286.725 200.323 286.616 200.867 286.616L201.459 286.616L201.459 286.368C201.459 286.144 201.401 285.973 201.283 285.856C201.166 285.739 200.966 285.68 200.683 285.68C200.251 285.68 199.854 285.8 199.491 286.04ZM204.402 284.944L204.402 285.64C204.631 285.144 205.047 284.896 205.65 284.896C206.055 284.896 206.375 285.019 206.61 285.264C206.845 285.509 206.962 285.856 206.962 286.304L206.962 289L206.002 289L206.002 286.504C206.002 286.237 205.938 286.037 205.81 285.904C205.682 285.765 205.509 285.696 205.29 285.696C205.039 285.696 204.829 285.795 204.658 285.992C204.487 286.184 204.402 286.461 204.402 286.824L204.402 289L203.442 289L203.442 284.944L204.402 284.944Z" fill="white"/>
<path d="M9 341.5H329C333.694 341.5 337.5 345.306 337.5 350C337.5 354.694 333.694 358.5 329 358.5H9C4.30558 358.5 0.5 354.694 0.5 350C0.500002 345.306 4.30558 341.5 9 341.5Z" fill="white"/>
<path d="M9 341.5H329C333.694 341.5 337.5 345.306 337.5 350C337.5 354.694 333.694 358.5 329 358.5H9C4.30558 358.5 0.5 354.694 0.5 350C0.500002 345.306 4.30558 341.5 9 341.5Z" stroke="#CCCCCC"/>
<path d="M7.86805e-07 350C3.52265e-07 345.029 4.02944 341 9 341L39 341C43.9706 341 48 345.029 48 350C48 354.971 43.9706 359 39 359L9 359C4.02944 359 1.22135e-06 354.971 7.86805e-07 350Z" fill="#FF1934"/>
<path d="M15.448 346.688H16.264L16.816 348.6L17.456 350.92C17.5893 350.179 17.7547 349.403 17.952 348.592L18.44 346.608H19.464L18.088 352H16.92L16.432 350.296C16.2987 349.843 16.184 349.443 16.088 349.096C15.9973 348.749 15.936 348.517 15.904 348.4L15.864 348.216C15.7893 348.589 15.6027 349.283 15.304 350.296L14.8 352H13.64L12.2 346.608H13.264L13.768 348.6C13.8533 348.957 13.9387 349.328 14.024 349.712C14.1093 350.096 14.1733 350.389 14.216 350.592L14.28 350.904C14.4507 350.232 14.6587 349.464 14.904 348.6L15.448 346.688ZM22.2561 350.256H21.7601C21.5094 350.256 21.3174 350.309 21.1841 350.416C21.0507 350.517 20.9841 350.648 20.9841 350.808C20.9841 351.149 21.1814 351.32 21.5761 351.32C21.7894 351.32 21.9547 351.259 22.0721 351.136C22.1947 351.008 22.2561 350.843 22.2561 350.64V350.256ZM20.2881 349.04V348.152C20.5921 347.965 21.0294 347.872 21.6001 347.872C22.6987 347.872 23.2481 348.384 23.2481 349.408V352H22.2961V351.512C22.1094 351.859 21.7574 352.032 21.2401 352.032C20.8561 352.032 20.5494 351.92 20.3201 351.696C20.0961 351.472 19.9841 351.189 19.9841 350.848C19.9841 350.464 20.1281 350.163 20.4161 349.944C20.7041 349.725 21.1201 349.616 21.6641 349.616H22.2561V349.368C22.2561 349.144 22.1974 348.973 22.0801 348.856C21.9627 348.739 21.7627 348.68 21.4801 348.68C21.0481 348.68 20.6507 348.8 20.2881 349.04ZM27.7828 352H26.6548L25.1988 349.904V352H24.2388V346.44H25.1988V349.848L26.6308 347.944H27.7508L26.2628 349.88L27.7828 352ZM29.5864 348.664V350.728C29.5864 350.899 29.6318 351.029 29.7224 351.12C29.8131 351.205 29.9384 351.248 30.0984 351.248C30.3011 351.248 30.4878 351.192 30.6584 351.08V351.904C30.4718 351.995 30.2318 352.04 29.9384 352.04C29.0638 352.04 28.6264 351.597 28.6264 350.712V348.664H28.0184V347.944H28.6264V346.968H29.5864V347.944H30.5944V348.664H29.5864ZM33.9617 347.944H34.9297V352H33.9617V351.336C33.7484 351.805 33.3324 352.04 32.7137 352.04C32.303 352.04 31.983 351.923 31.7537 351.688C31.5244 351.453 31.4097 351.12 31.4097 350.688V347.944H32.3697V350.464C32.3697 350.72 32.431 350.915 32.5537 351.048C32.6817 351.181 32.855 351.248 33.0737 351.248C33.351 351.248 33.567 351.155 33.7217 350.968C33.8817 350.781 33.9617 350.499 33.9617 350.12V347.944Z" fill="white"/>
<rect x="56" y="348" width="274" height="4" rx="2" fill="#CCCCCC"/>
<mask id="mask0_1124_4113" style="mask-type:alpha" maskUnits="userSpaceOnUse" x="56" y="348" width="274" height="4">
<rect x="56" y="348" width="274" height="4" rx="2" fill="#CCCCCC"/>
</mask>
<g mask="url(#mask0_1124_4113)">
<rect x="56" y="348" width="274" height="4" rx="2" fill="#FF1934"/>
</g>
<defs>
<filter id="filter0_d_1124_4113" x="5" y="48" width="328" height="56" filterUnits="userSpaceOnUse" color-interpolation-filters="sRGB">
<feFlood flood-opacity="0" result="BackgroundImageFix"/>
<feColorMatrix in="SourceAlpha" type="matrix" values="0 0 0 0 0 0 0 0 0 0 0 0 0 0 0 0 0 0 127 0" result="hardAlpha"/>
<feOffset dy="2"/>
<feGaussianBlur stdDeviation="2"/>
<feComposite in2="hardAlpha" operator="out"/>
<feColorMatrix type="matrix" values="0 0 0 0 0.168627 0 0 0 0 0.168627 0 0 0 0 0.168627 0 0 0 0.24 0"/>
<feBlend mode="normal" in2="BackgroundImageFix" result="effect1_dropShadow_1124_4113"/>
<feBlend mode="normal" in="SourceGraphic" in2="effect1_dropShadow_1124_4113" result="shape"/>
</filter>
<clipPath id="clip0_1124_4113">
<rect width="24" height="24" fill="white" transform="translate(25 66)"/>
</clipPath>
<clipPath id="clip1_1124_4113">
<rect width="68" height="68" fill="white" transform="translate(46 106)"/>
</clipPath>
</defs>
</svg>
