<svg width="338" height="375" viewBox="0 0 338 375" fill="none" xmlns="http://www.w3.org/2000/svg">
<rect width="338" height="375" fill="#D3D3D3"/>
<rect x="9" y="50" width="320" height="265" rx="16" fill="white"/>
<g filter="url(#filter0_d_1124_4113)">
<path d="M9 66C9 57.1634 16.1634 50 25 50H313C321.837 50 329 57.1634 329 66V98H9V66Z" fill="#FF1934" shape-rendering="crispEdges"/>
<g clip-path="url(#clip0_1124_4113)">
<path fill-rule="evenodd" clip-rule="evenodd" d="M27 78C27 72.49 31.49 68 37 68C42.51 68 47 72.49 47 78C47 83.51 42.51 88 37 88C31.49 88 27 83.51 27 78ZM28.6 78C28.6 82.63 32.37 86.4 37 86.4C41.63 86.4 45.4 82.63 45.4 78C45.4 73.37 41.63 69.6 37 69.6C32.37 69.6 28.6 73.37 28.6 78ZM32.2 78C32.2 77.56 32.56 77.2 33 77.2H41C41.44 77.2 41.8 77.56 41.8 78C41.8 78.44 41.44 78.8 41 78.8H33C32.56 78.8 32.2 78.44 32.2 78Z" fill="white"/>
</g>
<path d="M57.56 77.254C57.56 75.8073 57.9753 74.6407 58.806 73.754C59.646 72.858 60.7613 72.41 62.152 72.41C63.552 72.41 64.6673 72.8533 65.498 73.74C66.3287 74.6267 66.744 75.798 66.744 77.254C66.744 78.7007 66.324 79.872 65.484 80.768C64.6533 81.6547 63.5427 82.098 62.152 82.098C60.752 82.098 59.6367 81.6547 58.806 80.768C57.9753 79.8813 57.56 78.71 57.56 77.254ZM60.486 75.154C60.0753 75.6673 59.87 76.3673 59.87 77.254C59.87 78.1407 60.0753 78.8453 60.486 79.368C60.8967 79.8813 61.452 80.138 62.152 80.138C62.852 80.138 63.4073 79.8813 63.818 79.368C64.2287 78.8453 64.434 78.1407 64.434 77.254C64.434 76.3673 64.2287 75.6673 63.818 75.154C63.4073 74.6313 62.852 74.37 62.152 74.37C61.452 74.37 60.8967 74.6313 60.486 75.154ZM70.1786 74.902V76.218C70.3093 75.8073 70.5239 75.4807 70.8226 75.238C71.1306 74.986 71.4853 74.86 71.8866 74.86C72.1106 74.86 72.2879 74.8787 72.4186 74.916V76.848C72.1946 76.7453 71.9379 76.694 71.6486 76.694C71.2099 76.694 70.8553 76.8573 70.5846 77.184C70.3139 77.5013 70.1786 77.926 70.1786 78.458V82H68.1346L68.1486 74.902H70.1786ZM76.8442 79.088H76.1862C75.8409 79.088 75.5749 79.1627 75.3882 79.312C75.2016 79.4613 75.1082 79.6527 75.1082 79.886C75.1082 80.362 75.3836 80.6 75.9342 80.6C76.2236 80.6 76.4476 80.5113 76.6062 80.334C76.7649 80.1567 76.8442 79.914 76.8442 79.606V79.088ZM73.5262 77.086V75.252C74.0862 74.9347 74.8936 74.776 75.9482 74.776C76.9562 74.776 77.7076 74.9953 78.2022 75.434C78.6969 75.8633 78.9442 76.5353 78.9442 77.45V82H76.9422V81.132C76.6436 81.7387 76.0556 82.042 75.1782 82.042C74.4876 82.042 73.9462 81.846 73.5542 81.454C73.1716 81.062 72.9802 80.572 72.9802 79.984C72.9802 79.3027 73.2276 78.7753 73.7222 78.402C74.2262 78.0193 74.9682 77.828 75.9482 77.828H76.8442V77.338C76.8442 76.7407 76.4476 76.442 75.6542 76.442C74.8889 76.442 74.1796 76.6567 73.5262 77.086ZM82.593 74.902V76.106C82.7703 75.714 83.041 75.406 83.405 75.182C83.7783 74.9487 84.2217 74.832 84.735 74.832C85.463 74.832 86.0323 75.0513 86.443 75.49C86.8537 75.9193 87.059 76.554 87.059 77.394V82H85.015V77.772C85.015 77.352 84.917 77.0347 84.721 76.82C84.525 76.596 84.2497 76.484 83.895 76.484C83.5217 76.484 83.209 76.6333 82.957 76.932C82.7143 77.2213 82.593 77.66 82.593 78.248V82H80.549V74.902H82.593ZM91.8201 80.138C92.2587 80.138 92.5994 79.9747 92.8421 79.648C93.0941 79.312 93.2201 78.9107 93.2201 78.444C93.2201 77.1747 92.7581 76.54 91.8341 76.54C91.4234 76.54 91.1014 76.6987 90.8681 77.016C90.6347 77.3333 90.5181 77.772 90.5181 78.332C90.5181 78.92 90.6301 79.368 90.8541 79.676C91.0781 79.984 91.4001 80.138 91.8201 80.138ZM93.2201 74.902H95.2501V81.314C95.2501 82.4527 94.9094 83.3067 94.2281 83.876C93.5467 84.4547 92.6927 84.744 91.6661 84.744C90.6674 84.744 89.7947 84.5667 89.0481 84.212V82.126C89.7014 82.6487 90.5041 82.91 91.4561 82.91C92.0721 82.91 92.5201 82.7793 92.8001 82.518C93.0801 82.2567 93.2201 81.846 93.2201 81.286V80.81C92.8094 81.4447 92.1561 81.762 91.2601 81.762C90.4761 81.762 89.7994 81.4727 89.2301 80.894C88.6701 80.3153 88.3901 79.4567 88.3901 78.318C88.3901 77.31 88.6607 76.4793 89.2021 75.826C89.7527 75.1633 90.4714 74.832 91.3581 74.832C92.1981 74.832 92.8187 75.168 93.2201 75.84V74.902ZM102.726 76.4V79.662C102.726 79.914 102.796 80.1053 102.936 80.236C103.085 80.3667 103.276 80.432 103.51 80.432C103.883 80.432 104.214 80.3387 104.504 80.152V81.846C104.158 81.9953 103.692 82.07 103.104 82.07C101.489 82.07 100.682 81.2627 100.682 79.648V76.4H99.6595V74.902H100.682V73.222H102.726V74.902H104.378V76.4H102.726ZM110.156 74.902H112.2V82H110.156V80.866C109.783 81.6593 109.064 82.056 108 82.056C107.272 82.056 106.703 81.8553 106.292 81.454C105.891 81.0433 105.69 80.4413 105.69 79.648V74.902H107.734V79.186C107.734 80.0167 108.098 80.432 108.826 80.432C109.713 80.432 110.156 79.8393 110.156 78.654V74.902ZM117.395 79.088H116.737C116.392 79.088 116.126 79.1627 115.939 79.312C115.752 79.4613 115.659 79.6527 115.659 79.886C115.659 80.362 115.934 80.6 116.485 80.6C116.774 80.6 116.998 80.5113 117.157 80.334C117.316 80.1567 117.395 79.914 117.395 79.606V79.088ZM114.077 77.086V75.252C114.637 74.9347 115.444 74.776 116.499 74.776C117.507 74.776 118.258 74.9953 118.753 75.434C119.248 75.8633 119.495 76.5353 119.495 77.45V82H117.493V81.132C117.194 81.7387 116.606 82.042 115.729 82.042C115.038 82.042 114.497 81.846 114.105 81.454C113.722 81.062 113.531 80.572 113.531 79.984C113.531 79.3027 113.778 78.7753 114.273 78.402C114.777 78.0193 115.519 77.828 116.499 77.828H117.395V77.338C117.395 76.7407 116.998 76.442 116.205 76.442C115.44 76.442 114.73 76.6567 114.077 77.086ZM127.428 78.332H129.696L129.598 77.996C129.327 77.0813 129.103 76.302 128.926 75.658C128.758 75.014 128.655 74.5987 128.618 74.412L128.562 74.132C128.487 74.6453 128.142 75.9333 127.526 77.996L127.428 78.332ZM130.788 82L130.214 80.068H126.91L126.336 82H124.082L127.232 72.564H129.948L133.098 82H130.788ZM136.31 74.902V76.106C136.487 75.714 136.758 75.406 137.122 75.182C137.495 74.9487 137.938 74.832 138.452 74.832C139.18 74.832 139.749 75.0513 140.16 75.49C140.57 75.9193 140.776 76.554 140.776 77.394V82H138.732V77.772C138.732 77.352 138.634 77.0347 138.438 76.82C138.242 76.596 137.966 76.484 137.612 76.484C137.238 76.484 136.926 76.6333 136.674 76.932C136.431 77.2213 136.31 77.66 136.31 78.248V82H134.266V74.902H136.31ZM145.649 80.376C146.116 80.376 146.494 80.194 146.783 79.83C147.072 79.466 147.217 78.9807 147.217 78.374C147.217 77.786 147.058 77.3287 146.741 77.002C146.433 76.6753 146.064 76.512 145.635 76.512C145.206 76.512 144.842 76.6847 144.543 77.03C144.254 77.3753 144.109 77.856 144.109 78.472C144.109 79.0413 144.258 79.5033 144.557 79.858C144.856 80.2033 145.22 80.376 145.649 80.376ZM147.217 72.102H149.261V82H147.217V80.894C146.741 81.6873 146.032 82.084 145.089 82.084C144.165 82.084 143.423 81.7247 142.863 81.006C142.312 80.2873 142.037 79.4287 142.037 78.43C142.037 77.31 142.326 76.428 142.905 75.784C143.484 75.14 144.216 74.818 145.103 74.818C146.027 74.818 146.732 75.21 147.217 75.994V72.102ZM154.459 79.088H153.801C153.456 79.088 153.19 79.1627 153.003 79.312C152.817 79.4613 152.723 79.6527 152.723 79.886C152.723 80.362 152.999 80.6 153.549 80.6C153.839 80.6 154.063 80.5113 154.221 80.334C154.38 80.1567 154.459 79.914 154.459 79.606V79.088ZM151.141 77.086V75.252C151.701 74.9347 152.509 74.776 153.563 74.776C154.571 74.776 155.323 74.9953 155.817 75.434C156.312 75.8633 156.559 76.5353 156.559 77.45V82H154.557V81.132C154.259 81.7387 153.671 82.042 152.793 82.042C152.103 82.042 151.561 81.846 151.169 81.454C150.787 81.062 150.595 80.572 150.595 79.984C150.595 79.3027 150.843 78.7753 151.337 78.402C151.841 78.0193 152.583 77.828 153.563 77.828H154.459V77.338C154.459 76.7407 154.063 76.442 153.269 76.442C152.504 76.442 151.795 76.6567 151.141 77.086ZM164.926 80.376C165.393 80.376 165.771 80.194 166.06 79.83C166.35 79.466 166.494 78.9807 166.494 78.374C166.494 77.786 166.336 77.3287 166.018 77.002C165.71 76.6753 165.342 76.512 164.912 76.512C164.483 76.512 164.119 76.6847 163.82 77.03C163.531 77.3753 163.386 77.856 163.386 78.472C163.386 79.0413 163.536 79.5033 163.834 79.858C164.133 80.2033 164.497 80.376 164.926 80.376ZM166.494 72.102H168.538V82H166.494V80.894C166.018 81.6873 165.309 82.084 164.366 82.084C163.442 82.084 162.7 81.7247 162.14 81.006C161.59 80.2873 161.314 79.4287 161.314 78.43C161.314 77.31 161.604 76.428 162.182 75.784C162.761 75.14 163.494 74.818 164.38 74.818C165.304 74.818 166.009 75.21 166.494 75.994V72.102ZM170.293 82V74.902H172.337V82H170.293ZM170.475 73.684C170.241 73.4507 170.125 73.1707 170.125 72.844C170.125 72.5173 170.241 72.2373 170.475 72.004C170.708 71.7707 170.988 71.654 171.315 71.654C171.641 71.654 171.921 71.7707 172.155 72.004C172.388 72.2373 172.505 72.5173 172.505 72.844C172.505 73.1707 172.388 73.4507 172.155 73.684C171.921 73.9173 171.641 74.034 171.315 74.034C170.988 74.034 170.708 73.9173 170.475 73.684ZM176.122 74.902V76.218C176.253 75.8073 176.467 75.4807 176.766 75.238C177.074 74.986 177.429 74.86 177.83 74.86C178.054 74.86 178.231 74.8787 178.362 74.916V76.848C178.138 76.7453 177.881 76.694 177.592 76.694C177.153 76.694 176.799 76.8573 176.528 77.184C176.257 77.5013 176.122 77.926 176.122 78.458V82H174.078L174.092 74.902H176.122ZM182.788 79.088H182.13C181.784 79.088 181.518 79.1627 181.332 79.312C181.145 79.4613 181.052 79.6527 181.052 79.886C181.052 80.362 181.327 80.6 181.878 80.6C182.167 80.6 182.391 80.5113 182.55 80.334C182.708 80.1567 182.788 79.914 182.788 79.606V79.088ZM179.47 77.086V75.252C180.03 74.9347 180.837 74.776 181.892 74.776C182.9 74.776 183.651 74.9953 184.146 75.434C184.64 75.8633 184.888 76.5353 184.888 77.45V82H182.886V81.132C182.587 81.7387 181.999 82.042 181.122 82.042C180.431 82.042 179.89 81.846 179.498 81.454C179.115 81.062 178.924 80.572 178.924 79.984C178.924 79.3027 179.171 78.7753 179.666 78.402C180.17 78.0193 180.912 77.828 181.892 77.828H182.788V77.338C182.788 76.7407 182.391 76.442 181.598 76.442C180.832 76.442 180.123 76.6567 179.47 77.086ZM188.004 82L185.722 74.902H187.836L188.452 77.24C188.602 77.828 188.728 78.36 188.83 78.836C188.933 79.3027 188.994 79.6247 189.012 79.802L189.054 80.068C189.12 79.508 189.348 78.5653 189.74 77.24L190.426 74.902H192.19L192.862 77.24C193.03 77.8373 193.17 78.374 193.282 78.85C193.394 79.3167 193.464 79.6387 193.492 79.816L193.534 80.068C193.6 79.5173 193.819 78.5747 194.192 77.24L194.85 74.902H196.866L194.598 82H192.498L191.882 79.676C191.752 79.172 191.635 78.7007 191.532 78.262C191.439 77.8233 191.378 77.5107 191.35 77.324L191.308 77.044C191.215 77.6693 191.019 78.5467 190.72 79.676L190.104 82H188.004ZM201.286 79.088H200.628C200.282 79.088 200.016 79.1627 199.83 79.312C199.643 79.4613 199.55 79.6527 199.55 79.886C199.55 80.362 199.825 80.6 200.376 80.6C200.665 80.6 200.889 80.5113 201.048 80.334C201.206 80.1567 201.286 79.914 201.286 79.606V79.088ZM197.968 77.086V75.252C198.528 74.9347 199.335 74.776 200.39 74.776C201.398 74.776 202.149 74.9953 202.644 75.434C203.138 75.8633 203.386 76.5353 203.386 77.45V82H201.384V81.132C201.085 81.7387 200.497 82.042 199.62 82.042C198.929 82.042 198.388 81.846 197.996 81.454C197.613 81.062 197.422 80.572 197.422 79.984C197.422 79.3027 197.669 78.7753 198.164 78.402C198.668 78.0193 199.41 77.828 200.39 77.828H201.286V77.338C201.286 76.7407 200.889 76.442 200.096 76.442C199.33 76.442 198.621 76.6567 197.968 77.086ZM207.356 76.4V79.662C207.356 79.914 207.426 80.1053 207.566 80.236C207.716 80.3667 207.907 80.432 208.14 80.432C208.514 80.432 208.845 80.3387 209.134 80.152V81.846C208.789 81.9953 208.322 82.07 207.734 82.07C206.12 82.07 205.312 81.2627 205.312 79.648V76.4H204.29V74.902H205.312V73.222H207.356V74.902H209.008V76.4H207.356ZM217.153 80.376C217.619 80.376 217.997 80.194 218.287 79.83C218.576 79.466 218.721 78.9807 218.721 78.374C218.721 77.786 218.562 77.3287 218.245 77.002C217.937 76.6753 217.568 76.512 217.139 76.512C216.709 76.512 216.345 76.6847 216.047 77.03C215.757 77.3753 215.613 77.856 215.613 78.472C215.613 79.0413 215.762 79.5033 216.061 79.858C216.359 80.2033 216.723 80.376 217.153 80.376ZM218.721 72.102H220.765V82H218.721V80.894C218.245 81.6873 217.535 82.084 216.593 82.084C215.669 82.084 214.927 81.7247 214.367 81.006C213.816 80.2873 213.541 79.4287 213.541 78.43C213.541 77.31 213.83 76.428 214.409 75.784C214.987 75.14 215.72 74.818 216.607 74.818C217.531 74.818 218.235 75.21 218.721 75.994V72.102ZM222.519 82V74.902H224.563V82H222.519ZM222.701 73.684C222.468 73.4507 222.351 73.1707 222.351 72.844C222.351 72.5173 222.468 72.2373 222.701 72.004C222.935 71.7707 223.215 71.654 223.541 71.654C223.868 71.654 224.148 71.7707 224.381 72.004C224.615 72.2373 224.731 72.5173 224.731 72.844C224.731 73.1707 224.615 73.4507 224.381 73.684C224.148 73.9173 223.868 74.034 223.541 74.034C223.215 74.034 222.935 73.9173 222.701 73.684ZM231.849 74.902V76.218C231.979 75.8073 232.194 75.4807 232.493 75.238C232.801 74.986 233.155 74.86 233.557 74.86C233.781 74.86 233.958 74.8787 234.089 74.916V76.848C233.865 76.7453 233.608 76.694 233.319 76.694C232.88 76.694 232.525 76.8573 232.255 77.184C231.984 77.5013 231.849 77.926 231.849 78.458V82H229.805L229.819 74.902H231.849ZM239.396 74.902H241.44V82H239.396V80.866C239.023 81.6593 238.304 82.056 237.24 82.056C236.512 82.056 235.943 81.8553 235.532 81.454C235.131 81.0433 234.93 80.4413 234.93 79.648V74.902H236.974V79.186C236.974 80.0167 237.338 80.432 238.066 80.432C238.953 80.432 239.396 79.8393 239.396 78.654V74.902ZM245.165 74.902V76.008C245.557 75.224 246.225 74.832 247.167 74.832C248.166 74.832 248.829 75.28 249.155 76.176C249.314 75.756 249.58 75.4293 249.953 75.196C250.327 74.9533 250.765 74.832 251.269 74.832C251.969 74.832 252.52 75.056 252.921 75.504C253.332 75.9427 253.537 76.5913 253.537 77.45V82H251.493V77.786C251.493 77.3847 251.414 77.0673 251.255 76.834C251.097 76.6007 250.868 76.484 250.569 76.484C250.252 76.484 249.967 76.6147 249.715 76.876C249.473 77.128 249.351 77.5853 249.351 78.248V82H247.307V77.786C247.307 77.3847 247.228 77.0673 247.069 76.834C246.911 76.6007 246.682 76.484 246.383 76.484C246.066 76.484 245.781 76.6147 245.529 76.876C245.287 77.128 245.165 77.5853 245.165 78.248V82H243.121V74.902H245.165ZM258.667 79.088H258.008C257.663 79.088 257.397 79.1627 257.211 79.312C257.024 79.4613 256.931 79.6527 256.931 79.886C256.931 80.362 257.206 80.6 257.757 80.6C258.046 80.6 258.27 80.5113 258.428 80.334C258.587 80.1567 258.667 79.914 258.667 79.606V79.088ZM255.349 77.086V75.252C255.909 74.9347 256.716 74.776 257.771 74.776C258.779 74.776 259.53 74.9953 260.025 75.434C260.519 75.8633 260.767 76.5353 260.767 77.45V82H258.765V81.132C258.466 81.7387 257.878 82.042 257.001 82.042C256.31 82.042 255.769 81.846 255.377 81.454C254.994 81.062 254.803 80.572 254.803 79.984C254.803 79.3027 255.05 78.7753 255.545 78.402C256.049 78.0193 256.791 77.828 257.771 77.828H258.667V77.338C258.667 76.7407 258.27 76.442 257.477 76.442C256.711 76.442 256.002 76.6567 255.349 77.086ZM264.415 72.102V76.106C264.779 75.2567 265.489 74.832 266.543 74.832C267.234 74.832 267.794 75.0513 268.223 75.49C268.662 75.9287 268.881 76.5913 268.881 77.478V82H266.837V77.8C266.837 77.3893 266.735 77.0673 266.529 76.834C266.324 76.6007 266.058 76.484 265.731 76.484C265.591 76.484 265.456 76.5073 265.325 76.554C265.204 76.5913 265.069 76.666 264.919 76.778C264.77 76.8807 264.649 77.0627 264.555 77.324C264.462 77.576 264.415 77.884 264.415 78.248V82H262.371V72.102H264.415ZM278.472 75.112V76.862C277.978 76.5727 277.399 76.428 276.736 76.428C276.494 76.428 276.307 76.4793 276.176 76.582C276.046 76.6753 275.98 76.7967 275.98 76.946C275.98 77.03 276.004 77.1093 276.05 77.184C276.097 77.2587 276.172 77.3287 276.274 77.394C276.386 77.4593 276.489 77.52 276.582 77.576C276.685 77.6227 276.82 77.6833 276.988 77.758C277.166 77.8327 277.306 77.898 277.408 77.954C277.838 78.178 278.183 78.4393 278.444 78.738C278.706 79.0273 278.836 79.4007 278.836 79.858C278.836 80.558 278.584 81.0993 278.08 81.482C277.576 81.8647 276.909 82.056 276.078 82.056C275.22 82.056 274.501 81.9113 273.922 81.622V79.802C274.566 80.25 275.248 80.474 275.966 80.474C276.48 80.474 276.736 80.3107 276.736 79.984C276.736 79.9 276.713 79.8207 276.666 79.746C276.62 79.6713 276.54 79.6013 276.428 79.536C276.316 79.4707 276.214 79.4193 276.12 79.382C276.027 79.3353 275.892 79.2747 275.714 79.2C275.537 79.1253 275.402 79.0647 275.308 79.018C274.366 78.57 273.894 77.898 273.894 77.002C273.894 76.3113 274.156 75.7747 274.678 75.392C275.21 75.0093 275.868 74.818 276.652 74.818C277.38 74.818 277.987 74.916 278.472 75.112ZM283.604 79.088H282.946C282.601 79.088 282.335 79.1627 282.148 79.312C281.961 79.4613 281.868 79.6527 281.868 79.886C281.868 80.362 282.143 80.6 282.694 80.6C282.983 80.6 283.207 80.5113 283.366 80.334C283.525 80.1567 283.604 79.914 283.604 79.606V79.088ZM280.286 77.086V75.252C280.846 74.9347 281.653 74.776 282.708 74.776C283.716 74.776 284.467 74.9953 284.962 75.434C285.457 75.8633 285.704 76.5353 285.704 77.45V82H283.702V81.132C283.403 81.7387 282.815 82.042 281.938 82.042C281.247 82.042 280.706 81.846 280.314 81.454C279.931 81.062 279.74 80.572 279.74 79.984C279.74 79.3027 279.987 78.7753 280.482 78.402C280.986 78.0193 281.728 77.828 282.708 77.828H283.604V77.338C283.604 76.7407 283.207 76.442 282.414 76.442C281.649 76.442 280.939 76.6567 280.286 77.086ZM293.987 82H291.621L289.353 78.514V82H287.309V72.34H289.353V78.08L291.593 74.902H293.945L291.481 78.304L293.987 82ZM295.049 82V74.902H297.093V82H295.049ZM295.231 73.684C294.997 73.4507 294.881 73.1707 294.881 72.844C294.881 72.5173 294.997 72.2373 295.231 72.004C295.464 71.7707 295.744 71.654 296.071 71.654C296.397 71.654 296.677 71.7707 296.911 72.004C297.144 72.2373 297.261 72.5173 297.261 72.844C297.261 73.1707 297.144 73.4507 296.911 73.684C296.677 73.9173 296.397 74.034 296.071 74.034C295.744 74.034 295.464 73.9173 295.231 73.684ZM301.214 76.4V79.662C301.214 79.914 301.284 80.1053 301.424 80.236C301.573 80.3667 301.764 80.432 301.998 80.432C302.371 80.432 302.702 80.3387 302.992 80.152V81.846C302.646 81.9953 302.18 82.07 301.592 82.07C299.977 82.07 299.17 81.2627 299.17 79.648V76.4H298.148V74.902H299.17V73.222H301.214V74.902H302.866V76.4H301.214Z" fill="white"/>
</g>
<g clip-path="url(#clip1_1124_4113)">
<path d="M183.375 151.996L176.976 155.518L181.541 157.515L163.14 168.07L174.596 156.282L170.457 155.657L176.458 147.275L175.849 140.608L158.745 142.17L159.665 152.246L149.588 153.167L151.15 170.271L161.118 169.171V179.29H178.294V169.171H188.412V151.996H183.375Z" fill="#FF1934"/>
<path d="M184.308 184.078L177.493 184.505L182.355 184.748L162.759 186.03L174.959 184.599L170.551 184.522L176.942 183.505L176.293 182.695L158.079 182.885L159.059 184.108L148.328 184.22L149.991 186.297L160.607 186.163V187.392H178.897V186.163H189.672V184.078H184.308Z" fill="#CCCCCC"/>
</g>
<path d="M96.3372 214.49H98.4972L98.3872 214.15C98.1339 213.363 97.9272 212.713 97.7672 212.2C97.6072 211.68 97.5105 211.357 97.4772 211.23L97.4272 211.04C97.3539 211.353 97.0272 212.39 96.4472 214.15L96.3372 214.49ZM99.3072 217L98.7772 215.35H96.0572L95.5172 217H94.4272L96.7572 210.26H98.1072L100.407 217H99.3072ZM102.389 211.93V212.8C102.689 212.173 103.215 211.86 103.969 211.86C104.469 211.86 104.865 212.013 105.159 212.32C105.452 212.627 105.599 213.043 105.599 213.57V217H104.619V213.8C104.619 213.447 104.529 213.177 104.349 212.99C104.175 212.803 103.942 212.71 103.649 212.71C103.302 212.71 103.005 212.847 102.759 213.12C102.512 213.387 102.389 213.763 102.389 214.25V217H101.409V211.93H102.389ZM108.967 216.21C109.353 216.21 109.68 216.063 109.947 215.77C110.213 215.477 110.347 215.03 110.347 214.43C110.347 213.85 110.207 213.42 109.927 213.14C109.653 212.86 109.343 212.72 108.997 212.72C108.603 212.72 108.28 212.877 108.027 213.19C107.773 213.497 107.647 213.937 107.647 214.51C107.647 215.017 107.77 215.427 108.017 215.74C108.27 216.053 108.587 216.21 108.967 216.21ZM110.347 209.93H111.337V217H110.347V216.23C109.993 216.79 109.477 217.07 108.797 217.07C108.13 217.07 107.603 216.82 107.217 216.32C106.83 215.813 106.637 215.203 106.637 214.49C106.637 213.697 106.84 213.06 107.247 212.58C107.653 212.1 108.177 211.86 108.817 211.86C109.477 211.86 109.987 212.14 110.347 212.7V209.93ZM115.387 214.74H114.627C114.254 214.74 113.971 214.813 113.777 214.96C113.591 215.107 113.497 215.293 113.497 215.52C113.497 215.753 113.571 215.937 113.717 216.07C113.864 216.203 114.077 216.27 114.357 216.27C114.677 216.27 114.927 216.183 115.107 216.01C115.294 215.83 115.387 215.597 115.387 215.31V214.74ZM112.837 213.14V212.19C113.231 211.963 113.751 211.85 114.397 211.85C115.724 211.85 116.387 212.493 116.387 213.78V217H115.417V216.4C115.157 216.827 114.701 217.04 114.047 217.04C113.567 217.04 113.181 216.903 112.887 216.63C112.601 216.35 112.457 215.997 112.457 215.57C112.457 215.083 112.641 214.707 113.007 214.44C113.374 214.167 113.887 214.03 114.547 214.03H115.387V213.74C115.387 213.393 115.304 213.133 115.137 212.96C114.971 212.78 114.694 212.69 114.307 212.69C113.767 212.69 113.277 212.84 112.837 213.14ZM121.149 209.93V212.8C121.435 212.173 121.959 211.86 122.719 211.86C123.212 211.86 123.609 212.013 123.909 212.32C124.209 212.627 124.359 213.053 124.359 213.6V217H123.379V213.8C123.379 213.453 123.289 213.187 123.109 213C122.935 212.807 122.705 212.71 122.419 212.71C122.085 212.71 121.789 212.837 121.529 213.09C121.275 213.343 121.149 213.73 121.149 214.25V217H120.169V209.93H121.149ZM128.346 214.74H127.586C127.213 214.74 126.93 214.813 126.736 214.96C126.55 215.107 126.456 215.293 126.456 215.52C126.456 215.753 126.53 215.937 126.676 216.07C126.823 216.203 127.036 216.27 127.316 216.27C127.636 216.27 127.886 216.183 128.066 216.01C128.253 215.83 128.346 215.597 128.346 215.31V214.74ZM125.796 213.14V212.19C126.19 211.963 126.71 211.85 127.356 211.85C128.683 211.85 129.346 212.493 129.346 213.78V217H128.376V216.4C128.116 216.827 127.66 217.04 127.006 217.04C126.526 217.04 126.14 216.903 125.846 216.63C125.56 216.35 125.416 215.997 125.416 215.57C125.416 215.083 125.6 214.707 125.966 214.44C126.333 214.167 126.846 214.03 127.506 214.03H128.346V213.74C128.346 213.393 128.263 213.133 128.096 212.96C127.93 212.78 127.653 212.69 127.266 212.69C126.726 212.69 126.236 212.84 125.796 213.14ZM131.647 211.93V212.82C131.893 212.193 132.337 211.88 132.977 211.88C133.07 211.88 133.173 211.89 133.287 211.91V212.87C133.147 212.81 132.99 212.78 132.817 212.78C132.477 212.78 132.197 212.93 131.977 213.23C131.757 213.53 131.647 213.887 131.647 214.3V217H130.667V211.93H131.647ZM137.205 211.93H138.185V217H137.205V216.13C136.939 216.75 136.412 217.06 135.625 217.06C135.125 217.06 134.729 216.913 134.435 216.62C134.142 216.32 133.995 215.91 133.995 215.39V211.93H134.985V215.15C134.985 215.497 135.069 215.763 135.235 215.95C135.409 216.13 135.645 216.22 135.945 216.22C136.325 216.22 136.629 216.087 136.855 215.82C137.089 215.553 137.205 215.177 137.205 214.69V211.93ZM142.453 212.1V212.99C142.126 212.797 141.706 212.7 141.193 212.7C140.96 212.7 140.773 212.753 140.633 212.86C140.5 212.967 140.433 213.107 140.433 213.28C140.433 213.327 140.436 213.373 140.443 213.42C140.456 213.46 140.476 213.503 140.503 213.55C140.53 213.59 140.553 213.627 140.573 213.66C140.6 213.687 140.64 213.717 140.693 213.75C140.746 213.783 140.786 213.813 140.813 213.84C140.846 213.86 140.896 213.887 140.963 213.92C141.036 213.953 141.09 213.98 141.123 214C141.156 214.013 141.213 214.04 141.293 214.08C141.38 214.113 141.44 214.137 141.473 214.15C141.866 214.323 142.173 214.52 142.393 214.74C142.62 214.953 142.733 215.24 142.733 215.6C142.733 216.053 142.573 216.41 142.253 216.67C141.933 216.923 141.5 217.05 140.953 217.05C140.353 217.05 139.853 216.95 139.453 216.75V215.82C139.92 216.107 140.403 216.25 140.903 216.25C141.163 216.25 141.363 216.197 141.503 216.09C141.65 215.983 141.723 215.843 141.723 215.67C141.723 215.523 141.666 215.393 141.553 215.28C141.44 215.16 141.323 215.073 141.203 215.02C141.09 214.96 140.893 214.87 140.613 214.75C139.82 214.423 139.423 213.943 139.423 213.31C139.423 212.863 139.59 212.513 139.923 212.26C140.256 212.007 140.673 211.88 141.173 211.88C141.72 211.88 142.146 211.953 142.453 212.1ZM147.193 211.93V212.74C147.48 212.153 147.957 211.86 148.623 211.86C149.383 211.86 149.87 212.187 150.083 212.84C150.223 212.527 150.427 212.287 150.693 212.12C150.96 211.947 151.26 211.86 151.593 211.86C152.113 211.86 152.507 212.013 152.773 212.32C153.047 212.627 153.183 213.05 153.183 213.59V217H152.203V213.8C152.203 213.073 151.91 212.71 151.323 212.71C151.03 212.71 150.767 212.84 150.533 213.1C150.307 213.36 150.193 213.743 150.193 214.25V217H149.213V213.8C149.213 213.073 148.917 212.71 148.323 212.71C148.037 212.71 147.777 212.84 147.543 213.1C147.31 213.36 147.193 213.743 147.193 214.25V217H146.213V211.93H147.193ZM157.664 214.1V213.92C157.651 213.54 157.548 213.24 157.354 213.02C157.161 212.793 156.884 212.68 156.524 212.68C156.191 212.68 155.904 212.803 155.664 213.05C155.424 213.29 155.274 213.64 155.214 214.1H157.664ZM158.294 215.85V216.73C157.921 216.943 157.428 217.05 156.814 217.05C156.028 217.05 155.401 216.813 154.934 216.34C154.468 215.867 154.234 215.247 154.234 214.48C154.234 213.667 154.448 213.03 154.874 212.57C155.301 212.103 155.844 211.87 156.504 211.87C157.151 211.87 157.664 212.073 158.044 212.48C158.424 212.88 158.614 213.46 158.614 214.22C158.614 214.427 158.594 214.643 158.554 214.87H155.224C155.291 215.31 155.478 215.647 155.784 215.88C156.091 216.113 156.478 216.23 156.944 216.23C157.484 216.23 157.934 216.103 158.294 215.85ZM160.748 211.93V212.74C161.035 212.153 161.511 211.86 162.178 211.86C162.938 211.86 163.425 212.187 163.638 212.84C163.778 212.527 163.981 212.287 164.248 212.12C164.515 211.947 164.815 211.86 165.148 211.86C165.668 211.86 166.061 212.013 166.328 212.32C166.601 212.627 166.738 213.05 166.738 213.59V217H165.758V213.8C165.758 213.073 165.465 212.71 164.878 212.71C164.585 212.71 164.321 212.84 164.088 213.1C163.861 213.36 163.748 213.743 163.748 214.25V217H162.768V213.8C162.768 213.073 162.471 212.71 161.878 212.71C161.591 212.71 161.331 212.84 161.098 213.1C160.865 213.36 160.748 213.743 160.748 214.25V217H159.768V211.93H160.748ZM170.459 216.21C170.832 216.21 171.146 216.053 171.399 215.74C171.652 215.42 171.779 215.01 171.779 214.51C171.779 213.937 171.652 213.497 171.399 213.19C171.146 212.877 170.822 212.72 170.429 212.72C170.082 212.72 169.769 212.86 169.489 213.14C169.216 213.42 169.079 213.85 169.079 214.43C169.079 215.03 169.212 215.477 169.479 215.77C169.746 216.063 170.072 216.21 170.459 216.21ZM169.079 209.93V212.7C169.439 212.14 169.949 211.86 170.609 211.86C171.249 211.86 171.772 212.1 172.179 212.58C172.586 213.06 172.789 213.697 172.789 214.49C172.789 215.203 172.596 215.813 172.209 216.32C171.822 216.82 171.292 217.07 170.619 217.07C169.946 217.07 169.432 216.79 169.079 216.23V217H168.089V209.93H169.079ZM176.559 214.74H175.799C175.426 214.74 175.143 214.813 174.949 214.96C174.763 215.107 174.669 215.293 174.669 215.52C174.669 215.753 174.743 215.937 174.889 216.07C175.036 216.203 175.249 216.27 175.529 216.27C175.849 216.27 176.099 216.183 176.279 216.01C176.466 215.83 176.559 215.597 176.559 215.31V214.74ZM174.009 213.14V212.19C174.403 211.963 174.923 211.85 175.569 211.85C176.896 211.85 177.559 212.493 177.559 213.78V217H176.589V216.4C176.329 216.827 175.873 217.04 175.219 217.04C174.739 217.04 174.353 216.903 174.059 216.63C173.773 216.35 173.629 215.997 173.629 215.57C173.629 215.083 173.813 214.707 174.179 214.44C174.546 214.167 175.059 214.03 175.719 214.03H176.559V213.74C176.559 213.393 176.476 213.133 176.309 212.96C176.143 212.78 175.866 212.69 175.479 212.69C174.939 212.69 174.449 212.84 174.009 213.14ZM180.279 216.89L178.259 211.93H179.349L179.979 213.58L180.769 215.72C180.829 215.52 181.069 214.807 181.489 213.58L182.059 211.93H183.099L181.269 216.86C180.783 218.16 180.039 218.81 179.039 218.81C178.859 218.81 178.706 218.793 178.579 218.76V217.92C178.686 217.947 178.799 217.96 178.919 217.96C179.566 217.96 180.019 217.603 180.279 216.89ZM186.589 214.74H185.829C185.455 214.74 185.172 214.813 184.979 214.96C184.792 215.107 184.699 215.293 184.699 215.52C184.699 215.753 184.772 215.937 184.919 216.07C185.065 216.203 185.279 216.27 185.559 216.27C185.879 216.27 186.129 216.183 186.309 216.01C186.495 215.83 186.589 215.597 186.589 215.31V214.74ZM184.039 213.14V212.19C184.432 211.963 184.952 211.85 185.599 211.85C186.925 211.85 187.589 212.493 187.589 213.78V217H186.619V216.4C186.359 216.827 185.902 217.04 185.249 217.04C184.769 217.04 184.382 216.903 184.089 216.63C183.802 216.35 183.659 215.997 183.659 215.57C183.659 215.083 183.842 214.707 184.209 214.44C184.575 214.167 185.089 214.03 185.749 214.03H186.589V213.74C186.589 213.393 186.505 213.133 186.339 212.96C186.172 212.78 185.895 212.69 185.509 212.69C184.969 212.69 184.479 212.84 184.039 213.14ZM189.889 211.93V212.82C190.135 212.193 190.579 211.88 191.219 211.88C191.312 211.88 191.415 211.89 191.529 211.91V212.87C191.389 212.81 191.232 212.78 191.059 212.78C190.719 212.78 190.439 212.93 190.219 213.23C189.999 213.53 189.889 213.887 189.889 214.3V217H188.909V211.93H189.889Z" fill="#2B2B2B"/>
<path d="M196.028 211.3V213.5H196.868C197.255 213.5 197.545 213.403 197.738 213.21C197.932 213.01 198.028 212.733 198.028 212.38C198.028 212.033 197.925 211.767 197.718 211.58C197.518 211.393 197.228 211.3 196.848 211.3H196.028ZM198.248 217L196.718 214.54H196.028V217H194.768V210.26H196.848C197.615 210.26 198.215 210.453 198.648 210.84C199.088 211.227 199.308 211.743 199.308 212.39C199.302 212.87 199.185 213.277 198.958 213.61C198.732 213.937 198.422 214.18 198.028 214.34L199.758 217H198.248ZM203.067 216.04C203.427 216.04 203.72 215.903 203.947 215.63C204.174 215.35 204.287 214.96 204.287 214.46C204.287 213.96 204.174 213.573 203.947 213.3C203.72 213.02 203.434 212.88 203.087 212.88C202.74 212.88 202.44 213.01 202.187 213.27C201.934 213.53 201.807 213.917 201.807 214.43C201.807 214.943 201.93 215.34 202.177 215.62C202.424 215.9 202.72 216.04 203.067 216.04ZM201.807 211.93V212.71C202.167 212.143 202.684 211.86 203.357 211.86C204.017 211.86 204.54 212.097 204.927 212.57C205.32 213.043 205.517 213.667 205.517 214.44C205.517 215.2 205.32 215.83 204.927 216.33C204.54 216.823 204.014 217.07 203.347 217.07C202.667 217.07 202.154 216.793 201.807 216.24V218.91H200.607V211.93H201.807ZM209.915 214.5H211.635V211.21L209.915 214.5ZM213.695 214.5V215.53H212.835V217H211.635V215.53H208.725V214.5L210.905 210.45H212.835V214.5H213.695ZM214.292 213.7C214.292 212.667 214.495 211.85 214.902 211.25C215.309 210.643 215.885 210.34 216.632 210.34C217.385 210.34 217.965 210.643 218.372 211.25C218.785 211.85 218.992 212.667 218.992 213.7C218.992 214.727 218.789 215.547 218.382 216.16C217.982 216.773 217.399 217.08 216.632 217.08C215.885 217.08 215.309 216.773 214.902 216.16C214.495 215.547 214.292 214.727 214.292 213.7ZM215.822 212.02C215.622 212.407 215.522 212.967 215.522 213.7C215.522 214.433 215.619 215 215.812 215.4C216.012 215.793 216.285 215.99 216.632 215.99C216.992 215.99 217.269 215.793 217.462 215.4C217.662 215.007 217.762 214.44 217.762 213.7C217.762 212.96 217.659 212.397 217.452 212.01C217.252 211.623 216.979 211.43 216.632 211.43C216.292 211.43 216.022 211.627 215.822 212.02ZM219.751 213.7C219.751 212.667 219.954 211.85 220.361 211.25C220.768 210.643 221.344 210.34 222.091 210.34C222.844 210.34 223.424 210.643 223.831 211.25C224.244 211.85 224.451 212.667 224.451 213.7C224.451 214.727 224.248 215.547 223.841 216.16C223.441 216.773 222.858 217.08 222.091 217.08C221.344 217.08 220.768 216.773 220.361 216.16C219.954 215.547 219.751 214.727 219.751 213.7ZM221.281 212.02C221.081 212.407 220.981 212.967 220.981 213.7C220.981 214.433 221.078 215 221.271 215.4C221.471 215.793 221.744 215.99 222.091 215.99C222.451 215.99 222.728 215.793 222.921 215.4C223.121 215.007 223.221 214.44 223.221 213.7C223.221 212.96 223.118 212.397 222.911 212.01C222.711 211.623 222.438 211.43 222.091 211.43C221.751 211.43 221.481 211.627 221.281 212.02ZM224.76 218.26L225.74 215.79H227.13L225.8 218.26H224.76ZM227.886 213.7C227.886 212.667 228.089 211.85 228.496 211.25C228.903 210.643 229.479 210.34 230.226 210.34C230.979 210.34 231.559 210.643 231.966 211.25C232.379 211.85 232.586 212.667 232.586 213.7C232.586 214.727 232.383 215.547 231.976 216.16C231.576 216.773 230.993 217.08 230.226 217.08C229.479 217.08 228.903 216.773 228.496 216.16C228.089 215.547 227.886 214.727 227.886 213.7ZM229.416 212.02C229.216 212.407 229.116 212.967 229.116 213.7C229.116 214.433 229.213 215 229.406 215.4C229.606 215.793 229.879 215.99 230.226 215.99C230.586 215.99 230.863 215.793 231.056 215.4C231.256 215.007 231.356 214.44 231.356 213.7C231.356 212.96 231.253 212.397 231.046 212.01C230.846 211.623 230.573 211.43 230.226 211.43C229.886 211.43 229.616 211.627 229.416 212.02ZM233.345 213.7C233.345 212.667 233.548 211.85 233.955 211.25C234.362 210.643 234.938 210.34 235.685 210.34C236.438 210.34 237.018 210.643 237.425 211.25C237.838 211.85 238.045 212.667 238.045 213.7C238.045 214.727 237.842 215.547 237.435 216.16C237.035 216.773 236.452 217.08 235.685 217.08C234.938 217.08 234.362 216.773 233.955 216.16C233.548 215.547 233.345 214.727 233.345 213.7ZM234.875 212.02C234.675 212.407 234.575 212.967 234.575 213.7C234.575 214.433 234.672 215 234.865 215.4C235.065 215.793 235.338 215.99 235.685 215.99C236.045 215.99 236.322 215.793 236.515 215.4C236.715 215.007 236.815 214.44 236.815 213.7C236.815 212.96 236.712 212.397 236.505 212.01C236.305 211.623 236.032 211.43 235.685 211.43C235.345 211.43 235.075 211.627 234.875 212.02ZM238.804 213.7C238.804 212.667 239.007 211.85 239.414 211.25C239.82 210.643 240.397 210.34 241.144 210.34C241.897 210.34 242.477 210.643 242.884 211.25C243.297 211.85 243.504 212.667 243.504 213.7C243.504 214.727 243.3 215.547 242.894 216.16C242.494 216.773 241.91 217.08 241.144 217.08C240.397 217.08 239.82 216.773 239.414 216.16C239.007 215.547 238.804 214.727 238.804 213.7ZM240.334 212.02C240.134 212.407 240.034 212.967 240.034 213.7C240.034 214.433 240.13 215 240.324 215.4C240.524 215.793 240.797 215.99 241.144 215.99C241.504 215.99 241.78 215.793 241.974 215.4C242.174 215.007 242.274 214.44 242.274 213.7C242.274 212.96 242.17 212.397 241.964 212.01C241.764 211.623 241.49 211.43 241.144 211.43C240.804 211.43 240.534 211.627 240.334 212.02Z" fill="#FF1934"/>
<rect x="109" y="275" width="120" height="24" rx="8" fill="#FF1934"/>
<path d="M157.959 288.176L158.823 288.176C159.468 288.176 159.791 287.931 159.791 287.44C159.791 286.939 159.455 286.688 158.783 286.688L157.959 286.688L157.959 288.176ZM157.959 284.432L157.959 285.88L158.567 285.88C158.929 285.88 159.201 285.808 159.383 285.664C159.564 285.52 159.655 285.336 159.655 285.112C159.655 284.904 159.577 284.739 159.423 284.616C159.273 284.493 159.044 284.432 158.735 284.432L157.959 284.432ZM156.951 283.608L158.863 283.608C159.439 283.608 159.887 283.744 160.207 284.016C160.527 284.288 160.687 284.64 160.687 285.072C160.687 285.365 160.607 285.621 160.447 285.84C160.287 286.053 160.081 286.195 159.831 286.264C160.119 286.333 160.356 286.475 160.543 286.688C160.729 286.896 160.823 287.181 160.823 287.544C160.823 287.971 160.673 288.32 160.375 288.592C160.076 288.864 159.663 289 159.135 289L156.951 289L156.951 283.608ZM163.053 286.952L164.573 286.952L164.501 286.712C164.32 286.136 164.17 285.653 164.053 285.264C163.941 284.869 163.872 284.621 163.845 284.52L163.813 284.36C163.765 284.627 163.536 285.413 163.125 286.72L163.053 286.952ZM165.213 289L164.829 287.776L162.789 287.776L162.405 289L161.349 289L163.173 283.608L164.477 283.608L166.301 289L165.213 289ZM171.364 283.608L169.508 287L169.508 289L168.5 289L168.5 287.032L166.66 283.608L167.836 283.608L168.196 284.392C168.404 284.845 168.574 285.227 168.708 285.536C168.841 285.84 168.921 286.029 168.948 286.104L168.996 286.224C169.044 286.027 169.318 285.416 169.82 284.392L170.188 283.608L171.364 283.608ZM173.436 286.952L174.956 286.952L174.884 286.712C174.702 286.136 174.553 285.653 174.436 285.264C174.324 284.869 174.254 284.621 174.228 284.52L174.196 284.36C174.148 284.627 173.918 285.413 173.508 286.72L173.436 286.952ZM175.596 289L175.212 287.776L173.172 287.776L172.788 289L171.732 289L173.556 283.608L174.86 283.608L176.684 289L175.596 289ZM178.466 284.44L178.466 286.2L179.138 286.2C179.448 286.2 179.68 286.123 179.834 285.968C179.989 285.808 180.066 285.587 180.066 285.304C180.066 285.027 179.984 284.813 179.818 284.664C179.658 284.515 179.426 284.44 179.122 284.44L178.466 284.44ZM180.242 289L179.018 287.032L178.466 287.032L178.466 289L177.458 289L177.458 283.608L179.122 283.608C179.736 283.608 180.216 283.763 180.562 284.072C180.914 284.381 181.09 284.795 181.09 285.312C181.085 285.696 180.992 286.021 180.81 286.288C180.629 286.549 180.381 286.744 180.066 286.872L181.45 289L180.242 289Z" fill="white"/>
<path d="M9 341.5H329C333.694 341.5 337.5 345.306 337.5 350C337.5 354.694 333.694 358.5 329 358.5H9C4.30558 358.5 0.5 354.694 0.5 350C0.500002 345.306 4.30558 341.5 9 341.5Z" fill="white"/>
<path d="M9 341.5H329C333.694 341.5 337.5 345.306 337.5 350C337.5 354.694 333.694 358.5 329 358.5H9C4.30558 358.5 0.5 354.694 0.5 350C0.500002 345.306 4.30558 341.5 9 341.5Z" stroke="#CCCCCC"/>
<path d="M7.86805e-07 350C3.52265e-07 345.029 4.02944 341 9 341L39 341C43.9706 341 48 345.029 48 350C48 354.971 43.9706 359 39 359L9 359C4.02944 359 1.22135e-06 354.971 7.86805e-07 350Z" fill="#FF1934"/>
<path d="M15.448 346.688H16.264L16.816 348.6L17.456 350.92C17.5893 350.179 17.7547 349.403 17.952 348.592L18.44 346.608H19.464L18.088 352H16.92L16.432 350.296C16.2987 349.843 16.184 349.443 16.088 349.096C15.9973 348.749 15.936 348.517 15.904 348.4L15.864 348.216C15.7893 348.589 15.6027 349.283 15.304 350.296L14.8 352H13.64L12.2 346.608H13.264L13.768 348.6C13.8533 348.957 13.9387 349.328 14.024 349.712C14.1093 350.096 14.1733 350.389 14.216 350.592L14.28 350.904C14.4507 350.232 14.6587 349.464 14.904 348.6L15.448 346.688ZM22.2561 350.256H21.7601C21.5094 350.256 21.3174 350.309 21.1841 350.416C21.0507 350.517 20.9841 350.648 20.9841 350.808C20.9841 351.149 21.1814 351.32 21.5761 351.32C21.7894 351.32 21.9547 351.259 22.0721 351.136C22.1947 351.008 22.2561 350.843 22.2561 350.64V350.256ZM20.2881 349.04V348.152C20.5921 347.965 21.0294 347.872 21.6001 347.872C22.6987 347.872 23.2481 348.384 23.2481 349.408V352H22.2961V351.512C22.1094 351.859 21.7574 352.032 21.2401 352.032C20.8561 352.032 20.5494 351.92 20.3201 351.696C20.0961 351.472 19.9841 351.189 19.9841 350.848C19.9841 350.464 20.1281 350.163 20.4161 349.944C20.7041 349.725 21.1201 349.616 21.6641 349.616H22.2561V349.368C22.2561 349.144 22.1974 348.973 22.0801 348.856C21.9627 348.739 21.7627 348.68 21.4801 348.68C21.0481 348.68 20.6507 348.8 20.2881 349.04ZM27.7828 352H26.6548L25.1988 349.904V352H24.2388V346.44H25.1988V349.848L26.6308 347.944H27.7508L26.2628 349.88L27.7828 352ZM29.5864 348.664V350.728C29.5864 350.899 29.6318 351.029 29.7224 351.12C29.8131 351.205 29.9384 351.248 30.0984 351.248C30.3011 351.248 30.4878 351.192 30.6584 351.08V351.904C30.4718 351.995 30.2318 352.04 29.9384 352.04C29.0638 352.04 28.6264 351.597 28.6264 350.712V348.664H28.0184V347.944H28.6264V346.968H29.5864V347.944H30.5944V348.664H29.5864ZM33.9617 347.944H34.9297V352H33.9617V351.336C33.7484 351.805 33.3324 352.04 32.7137 352.04C32.303 352.04 31.983 351.923 31.7537 351.688C31.5244 351.453 31.4097 351.12 31.4097 350.688V347.944H32.3697V350.464C32.3697 350.72 32.431 350.915 32.5537 351.048C32.6817 351.181 32.855 351.248 33.0737 351.248C33.351 351.248 33.567 351.155 33.7217 350.968C33.8817 350.781 33.9617 350.499 33.9617 350.12V347.944Z" fill="white"/>
<rect x="56" y="348" width="274" height="4" rx="2" fill="#CCCCCC"/>
<mask id="mask0_1124_4113" style="mask-type:alpha" maskUnits="userSpaceOnUse" x="56" y="348" width="274" height="4">
<rect x="56" y="348" width="274" height="4" rx="2" fill="#CCCCCC"/>
</mask>
<g mask="url(#mask0_1124_4113)">
<rect x="56" y="348" width="274" height="4" rx="2" fill="#FF1934"/>
</g>
<defs>
<filter id="filter0_d_1124_4113" x="5" y="48" width="328" height="56" filterUnits="userSpaceOnUse" color-interpolation-filters="sRGB">
<feFlood flood-opacity="0" result="BackgroundImageFix"/>
<feColorMatrix in="SourceAlpha" type="matrix" values="0 0 0 0 0 0 0 0 0 0 0 0 0 0 0 0 0 0 127 0" result="hardAlpha"/>
<feOffset dy="2"/>
<feGaussianBlur stdDeviation="2"/>
<feComposite in2="hardAlpha" operator="out"/>
<feColorMatrix type="matrix" values="0 0 0 0 0.168627 0 0 0 0 0.168627 0 0 0 0 0.168627 0 0 0 0.24 0"/>
<feBlend mode="normal" in2="BackgroundImageFix" result="effect1_dropShadow_1124_4113"/>
<feBlend mode="normal" in="SourceGraphic" in2="effect1_dropShadow_1124_4113" result="shape"/>
</filter>
<clipPath id="clip0_1124_4113">
<rect width="24" height="24" fill="white" transform="translate(25 66)"/>
</clipPath>
<clipPath id="clip1_1124_4113">
<rect width="68" height="68" fill="white" transform="translate(135 130)"/>
</clipPath>
</defs>
</svg>
