<svg width="338" height="375" viewBox="0 0 338 375" fill="none" xmlns="http://www.w3.org/2000/svg">
<rect width="338" height="375" fill="#D3D3D3"/>
<rect x="9" y="50" width="320" height="265" rx="16" fill="white"/>
<g filter="url(#filter0_d_1124_4113)">
<path d="M9 66C9 57.1634 16.1634 50 25 50H313C321.837 50 329 57.1634 329 66V98H9V66Z" fill="#FF1934" shape-rendering="crispEdges"/>
<g clip-path="url(#clip0_1124_4113)">
<path fill-rule="evenodd" clip-rule="evenodd" d="M27 78C27 72.49 31.49 68 37 68C42.51 68 47 72.49 47 78C47 83.51 42.51 88 37 88C31.49 88 27 83.51 27 78ZM28.6 78C28.6 82.63 32.37 86.4 37 86.4C41.63 86.4 45.4 82.63 45.4 78C45.4 73.37 41.63 69.6 37 69.6C32.37 69.6 28.6 73.37 28.6 78ZM32.2 78C32.2 77.56 32.56 77.2 33 77.2H41C41.44 77.2 41.8 77.56 41.8 78C41.8 78.44 41.44 78.8 41 78.8H33C32.56 78.8 32.2 78.44 32.2 78Z" fill="white"/>
</g>
<path d="M57.56 77.254C57.56 75.8073 57.9753 74.6407 58.806 73.754C59.646 72.858 60.7613 72.41 62.152 72.41C63.552 72.41 64.6673 72.8533 65.498 73.74C66.3287 74.6267 66.744 75.798 66.744 77.254C66.744 78.7007 66.324 79.872 65.484 80.768C64.6533 81.6547 63.5427 82.098 62.152 82.098C60.752 82.098 59.6367 81.6547 58.806 80.768C57.9753 79.8813 57.56 78.71 57.56 77.254ZM60.486 75.154C60.0753 75.6673 59.87 76.3673 59.87 77.254C59.87 78.1407 60.0753 78.8453 60.486 79.368C60.8967 79.8813 61.452 80.138 62.152 80.138C62.852 80.138 63.4073 79.8813 63.818 79.368C64.2287 78.8453 64.434 78.1407 64.434 77.254C64.434 76.3673 64.2287 75.6673 63.818 75.154C63.4073 74.6313 62.852 74.37 62.152 74.37C61.452 74.37 60.8967 74.6313 60.486 75.154ZM70.1786 74.902V76.218C70.3093 75.8073 70.5239 75.4807 70.8226 75.238C71.1306 74.986 71.4853 74.86 71.8866 74.86C72.1106 74.86 72.2879 74.8787 72.4186 74.916V76.848C72.1946 76.7453 71.9379 76.694 71.6486 76.694C71.2099 76.694 70.8553 76.8573 70.5846 77.184C70.3139 77.5013 70.1786 77.926 70.1786 78.458V82H68.1346L68.1486 74.902H70.1786ZM76.8442 79.088H76.1862C75.8409 79.088 75.5749 79.1627 75.3882 79.312C75.2016 79.4613 75.1082 79.6527 75.1082 79.886C75.1082 80.362 75.3836 80.6 75.9342 80.6C76.2236 80.6 76.4476 80.5113 76.6062 80.334C76.7649 80.1567 76.8442 79.914 76.8442 79.606V79.088ZM73.5262 77.086V75.252C74.0862 74.9347 74.8936 74.776 75.9482 74.776C76.9562 74.776 77.7076 74.9953 78.2022 75.434C78.6969 75.8633 78.9442 76.5353 78.9442 77.45V82H76.9422V81.132C76.6436 81.7387 76.0556 82.042 75.1782 82.042C74.4876 82.042 73.9462 81.846 73.5542 81.454C73.1716 81.062 72.9802 80.572 72.9802 79.984C72.9802 79.3027 73.2276 78.7753 73.7222 78.402C74.2262 78.0193 74.9682 77.828 75.9482 77.828H76.8442V77.338C76.8442 76.7407 76.4476 76.442 75.6542 76.442C74.8889 76.442 74.1796 76.6567 73.5262 77.086ZM82.593 74.902V76.106C82.7703 75.714 83.041 75.406 83.405 75.182C83.7783 74.9487 84.2217 74.832 84.735 74.832C85.463 74.832 86.0323 75.0513 86.443 75.49C86.8537 75.9193 87.059 76.554 87.059 77.394V82H85.015V77.772C85.015 77.352 84.917 77.0347 84.721 76.82C84.525 76.596 84.2497 76.484 83.895 76.484C83.5217 76.484 83.209 76.6333 82.957 76.932C82.7143 77.2213 82.593 77.66 82.593 78.248V82H80.549V74.902H82.593ZM91.8201 80.138C92.2587 80.138 92.5994 79.9747 92.8421 79.648C93.0941 79.312 93.2201 78.9107 93.2201 78.444C93.2201 77.1747 92.7581 76.54 91.8341 76.54C91.4234 76.54 91.1014 76.6987 90.8681 77.016C90.6347 77.3333 90.5181 77.772 90.5181 78.332C90.5181 78.92 90.6301 79.368 90.8541 79.676C91.0781 79.984 91.4001 80.138 91.8201 80.138ZM93.2201 74.902H95.2501V81.314C95.2501 82.4527 94.9094 83.3067 94.2281 83.876C93.5467 84.4547 92.6927 84.744 91.6661 84.744C90.6674 84.744 89.7947 84.5667 89.0481 84.212V82.126C89.7014 82.6487 90.5041 82.91 91.4561 82.91C92.0721 82.91 92.5201 82.7793 92.8001 82.518C93.0801 82.2567 93.2201 81.846 93.2201 81.286V80.81C92.8094 81.4447 92.1561 81.762 91.2601 81.762C90.4761 81.762 89.7994 81.4727 89.2301 80.894C88.6701 80.3153 88.3901 79.4567 88.3901 78.318C88.3901 77.31 88.6607 76.4793 89.2021 75.826C89.7527 75.1633 90.4714 74.832 91.3581 74.832C92.1981 74.832 92.8187 75.168 93.2201 75.84V74.902ZM102.726 76.4V79.662C102.726 79.914 102.796 80.1053 102.936 80.236C103.085 80.3667 103.276 80.432 103.51 80.432C103.883 80.432 104.214 80.3387 104.504 80.152V81.846C104.158 81.9953 103.692 82.07 103.104 82.07C101.489 82.07 100.682 81.2627 100.682 79.648V76.4H99.6595V74.902H100.682V73.222H102.726V74.902H104.378V76.4H102.726ZM110.156 74.902H112.2V82H110.156V80.866C109.783 81.6593 109.064 82.056 108 82.056C107.272 82.056 106.703 81.8553 106.292 81.454C105.891 81.0433 105.69 80.4413 105.69 79.648V74.902H107.734V79.186C107.734 80.0167 108.098 80.432 108.826 80.432C109.713 80.432 110.156 79.8393 110.156 78.654V74.902ZM117.395 79.088H116.737C116.392 79.088 116.126 79.1627 115.939 79.312C115.752 79.4613 115.659 79.6527 115.659 79.886C115.659 80.362 115.934 80.6 116.485 80.6C116.774 80.6 116.998 80.5113 117.157 80.334C117.316 80.1567 117.395 79.914 117.395 79.606V79.088ZM114.077 77.086V75.252C114.637 74.9347 115.444 74.776 116.499 74.776C117.507 74.776 118.258 74.9953 118.753 75.434C119.248 75.8633 119.495 76.5353 119.495 77.45V82H117.493V81.132C117.194 81.7387 116.606 82.042 115.729 82.042C115.038 82.042 114.497 81.846 114.105 81.454C113.722 81.062 113.531 80.572 113.531 79.984C113.531 79.3027 113.778 78.7753 114.273 78.402C114.777 78.0193 115.519 77.828 116.499 77.828H117.395V77.338C117.395 76.7407 116.998 76.442 116.205 76.442C115.44 76.442 114.73 76.6567 114.077 77.086ZM127.428 78.332H129.696L129.598 77.996C129.327 77.0813 129.103 76.302 128.926 75.658C128.758 75.014 128.655 74.5987 128.618 74.412L128.562 74.132C128.487 74.6453 128.142 75.9333 127.526 77.996L127.428 78.332ZM130.788 82L130.214 80.068H126.91L126.336 82H124.082L127.232 72.564H129.948L133.098 82H130.788ZM136.31 74.902V76.106C136.487 75.714 136.758 75.406 137.122 75.182C137.495 74.9487 137.938 74.832 138.452 74.832C139.18 74.832 139.749 75.0513 140.16 75.49C140.57 75.9193 140.776 76.554 140.776 77.394V82H138.732V77.772C138.732 77.352 138.634 77.0347 138.438 76.82C138.242 76.596 137.966 76.484 137.612 76.484C137.238 76.484 136.926 76.6333 136.674 76.932C136.431 77.2213 136.31 77.66 136.31 78.248V82H134.266V74.902H136.31ZM145.649 80.376C146.116 80.376 146.494 80.194 146.783 79.83C147.072 79.466 147.217 78.9807 147.217 78.374C147.217 77.786 147.058 77.3287 146.741 77.002C146.433 76.6753 146.064 76.512 145.635 76.512C145.206 76.512 144.842 76.6847 144.543 77.03C144.254 77.3753 144.109 77.856 144.109 78.472C144.109 79.0413 144.258 79.5033 144.557 79.858C144.856 80.2033 145.22 80.376 145.649 80.376ZM147.217 72.102H149.261V82H147.217V80.894C146.741 81.6873 146.032 82.084 145.089 82.084C144.165 82.084 143.423 81.7247 142.863 81.006C142.312 80.2873 142.037 79.4287 142.037 78.43C142.037 77.31 142.326 76.428 142.905 75.784C143.484 75.14 144.216 74.818 145.103 74.818C146.027 74.818 146.732 75.21 147.217 75.994V72.102ZM154.459 79.088H153.801C153.456 79.088 153.19 79.1627 153.003 79.312C152.817 79.4613 152.723 79.6527 152.723 79.886C152.723 80.362 152.999 80.6 153.549 80.6C153.839 80.6 154.063 80.5113 154.221 80.334C154.38 80.1567 154.459 79.914 154.459 79.606V79.088ZM151.141 77.086V75.252C151.701 74.9347 152.509 74.776 153.563 74.776C154.571 74.776 155.323 74.9953 155.817 75.434C156.312 75.8633 156.559 76.5353 156.559 77.45V82H154.557V81.132C154.259 81.7387 153.671 82.042 152.793 82.042C152.103 82.042 151.561 81.846 151.169 81.454C150.787 81.062 150.595 80.572 150.595 79.984C150.595 79.3027 150.843 78.7753 151.337 78.402C151.841 78.0193 152.583 77.828 153.563 77.828H154.459V77.338C154.459 76.7407 154.063 76.442 153.269 76.442C152.504 76.442 151.795 76.6567 151.141 77.086ZM164.926 80.376C165.393 80.376 165.771 80.194 166.06 79.83C166.35 79.466 166.494 78.9807 166.494 78.374C166.494 77.786 166.336 77.3287 166.018 77.002C165.71 76.6753 165.342 76.512 164.912 76.512C164.483 76.512 164.119 76.6847 163.82 77.03C163.531 77.3753 163.386 77.856 163.386 78.472C163.386 79.0413 163.536 79.5033 163.834 79.858C164.133 80.2033 164.497 80.376 164.926 80.376ZM166.494 72.102H168.538V82H166.494V80.894C166.018 81.6873 165.309 82.084 164.366 82.084C163.442 82.084 162.7 81.7247 162.14 81.006C161.59 80.2873 161.314 79.4287 161.314 78.43C161.314 77.31 161.604 76.428 162.182 75.784C162.761 75.14 163.494 74.818 164.38 74.818C165.304 74.818 166.009 75.21 166.494 75.994V72.102ZM170.293 82V74.902H172.337V82H170.293ZM170.475 73.684C170.241 73.4507 170.125 73.1707 170.125 72.844C170.125 72.5173 170.241 72.2373 170.475 72.004C170.708 71.7707 170.988 71.654 171.315 71.654C171.641 71.654 171.921 71.7707 172.155 72.004C172.388 72.2373 172.505 72.5173 172.505 72.844C172.505 73.1707 172.388 73.4507 172.155 73.684C171.921 73.9173 171.641 74.034 171.315 74.034C170.988 74.034 170.708 73.9173 170.475 73.684ZM176.122 74.902V76.218C176.253 75.8073 176.467 75.4807 176.766 75.238C177.074 74.986 177.429 74.86 177.83 74.86C178.054 74.86 178.231 74.8787 178.362 74.916V76.848C178.138 76.7453 177.881 76.694 177.592 76.694C177.153 76.694 176.799 76.8573 176.528 77.184C176.257 77.5013 176.122 77.926 176.122 78.458V82H174.078L174.092 74.902H176.122ZM182.788 79.088H182.13C181.784 79.088 181.518 79.1627 181.332 79.312C181.145 79.4613 181.052 79.6527 181.052 79.886C181.052 80.362 181.327 80.6 181.878 80.6C182.167 80.6 182.391 80.5113 182.55 80.334C182.708 80.1567 182.788 79.914 182.788 79.606V79.088ZM179.47 77.086V75.252C180.03 74.9347 180.837 74.776 181.892 74.776C182.9 74.776 183.651 74.9953 184.146 75.434C184.64 75.8633 184.888 76.5353 184.888 77.45V82H182.886V81.132C182.587 81.7387 181.999 82.042 181.122 82.042C180.431 82.042 179.89 81.846 179.498 81.454C179.115 81.062 178.924 80.572 178.924 79.984C178.924 79.3027 179.171 78.7753 179.666 78.402C180.17 78.0193 180.912 77.828 181.892 77.828H182.788V77.338C182.788 76.7407 182.391 76.442 181.598 76.442C180.832 76.442 180.123 76.6567 179.47 77.086ZM188.004 82L185.722 74.902H187.836L188.452 77.24C188.602 77.828 188.728 78.36 188.83 78.836C188.933 79.3027 188.994 79.6247 189.012 79.802L189.054 80.068C189.12 79.508 189.348 78.5653 189.74 77.24L190.426 74.902H192.19L192.862 77.24C193.03 77.8373 193.17 78.374 193.282 78.85C193.394 79.3167 193.464 79.6387 193.492 79.816L193.534 80.068C193.6 79.5173 193.819 78.5747 194.192 77.24L194.85 74.902H196.866L194.598 82H192.498L191.882 79.676C191.752 79.172 191.635 78.7007 191.532 78.262C191.439 77.8233 191.378 77.5107 191.35 77.324L191.308 77.044C191.215 77.6693 191.019 78.5467 190.72 79.676L190.104 82H188.004ZM201.286 79.088H200.628C200.282 79.088 200.016 79.1627 199.83 79.312C199.643 79.4613 199.55 79.6527 199.55 79.886C199.55 80.362 199.825 80.6 200.376 80.6C200.665 80.6 200.889 80.5113 201.048 80.334C201.206 80.1567 201.286 79.914 201.286 79.606V79.088ZM197.968 77.086V75.252C198.528 74.9347 199.335 74.776 200.39 74.776C201.398 74.776 202.149 74.9953 202.644 75.434C203.138 75.8633 203.386 76.5353 203.386 77.45V82H201.384V81.132C201.085 81.7387 200.497 82.042 199.62 82.042C198.929 82.042 198.388 81.846 197.996 81.454C197.613 81.062 197.422 80.572 197.422 79.984C197.422 79.3027 197.669 78.7753 198.164 78.402C198.668 78.0193 199.41 77.828 200.39 77.828H201.286V77.338C201.286 76.7407 200.889 76.442 200.096 76.442C199.33 76.442 198.621 76.6567 197.968 77.086ZM207.356 76.4V79.662C207.356 79.914 207.426 80.1053 207.566 80.236C207.716 80.3667 207.907 80.432 208.14 80.432C208.514 80.432 208.845 80.3387 209.134 80.152V81.846C208.789 81.9953 208.322 82.07 207.734 82.07C206.12 82.07 205.312 81.2627 205.312 79.648V76.4H204.29V74.902H205.312V73.222H207.356V74.902H209.008V76.4H207.356ZM217.153 80.376C217.619 80.376 217.997 80.194 218.287 79.83C218.576 79.466 218.721 78.9807 218.721 78.374C218.721 77.786 218.562 77.3287 218.245 77.002C217.937 76.6753 217.568 76.512 217.139 76.512C216.709 76.512 216.345 76.6847 216.047 77.03C215.757 77.3753 215.613 77.856 215.613 78.472C215.613 79.0413 215.762 79.5033 216.061 79.858C216.359 80.2033 216.723 80.376 217.153 80.376ZM218.721 72.102H220.765V82H218.721V80.894C218.245 81.6873 217.535 82.084 216.593 82.084C215.669 82.084 214.927 81.7247 214.367 81.006C213.816 80.2873 213.541 79.4287 213.541 78.43C213.541 77.31 213.83 76.428 214.409 75.784C214.987 75.14 215.72 74.818 216.607 74.818C217.531 74.818 218.235 75.21 218.721 75.994V72.102ZM222.519 82V74.902H224.563V82H222.519ZM222.701 73.684C222.468 73.4507 222.351 73.1707 222.351 72.844C222.351 72.5173 222.468 72.2373 222.701 72.004C222.935 71.7707 223.215 71.654 223.541 71.654C223.868 71.654 224.148 71.7707 224.381 72.004C224.615 72.2373 224.731 72.5173 224.731 72.844C224.731 73.1707 224.615 73.4507 224.381 73.684C224.148 73.9173 223.868 74.034 223.541 74.034C223.215 74.034 222.935 73.9173 222.701 73.684ZM231.849 74.902V76.218C231.979 75.8073 232.194 75.4807 232.493 75.238C232.801 74.986 233.155 74.86 233.557 74.86C233.781 74.86 233.958 74.8787 234.089 74.916V76.848C233.865 76.7453 233.608 76.694 233.319 76.694C232.88 76.694 232.525 76.8573 232.255 77.184C231.984 77.5013 231.849 77.926 231.849 78.458V82H229.805L229.819 74.902H231.849ZM239.396 74.902H241.44V82H239.396V80.866C239.023 81.6593 238.304 82.056 237.24 82.056C236.512 82.056 235.943 81.8553 235.532 81.454C235.131 81.0433 234.93 80.4413 234.93 79.648V74.902H236.974V79.186C236.974 80.0167 237.338 80.432 238.066 80.432C238.953 80.432 239.396 79.8393 239.396 78.654V74.902ZM245.165 74.902V76.008C245.557 75.224 246.225 74.832 247.167 74.832C248.166 74.832 248.829 75.28 249.155 76.176C249.314 75.756 249.58 75.4293 249.953 75.196C250.327 74.9533 250.765 74.832 251.269 74.832C251.969 74.832 252.52 75.056 252.921 75.504C253.332 75.9427 253.537 76.5913 253.537 77.45V82H251.493V77.786C251.493 77.3847 251.414 77.0673 251.255 76.834C251.097 76.6007 250.868 76.484 250.569 76.484C250.252 76.484 249.967 76.6147 249.715 76.876C249.473 77.128 249.351 77.5853 249.351 78.248V82H247.307V77.786C247.307 77.3847 247.228 77.0673 247.069 76.834C246.911 76.6007 246.682 76.484 246.383 76.484C246.066 76.484 245.781 76.6147 245.529 76.876C245.287 77.128 245.165 77.5853 245.165 78.248V82H243.121V74.902H245.165ZM258.667 79.088H258.008C257.663 79.088 257.397 79.1627 257.211 79.312C257.024 79.4613 256.931 79.6527 256.931 79.886C256.931 80.362 257.206 80.6 257.757 80.6C258.046 80.6 258.27 80.5113 258.428 80.334C258.587 80.1567 258.667 79.914 258.667 79.606V79.088ZM255.349 77.086V75.252C255.909 74.9347 256.716 74.776 257.771 74.776C258.779 74.776 259.53 74.9953 260.025 75.434C260.519 75.8633 260.767 76.5353 260.767 77.45V82H258.765V81.132C258.466 81.7387 257.878 82.042 257.001 82.042C256.31 82.042 255.769 81.846 255.377 81.454C254.994 81.062 254.803 80.572 254.803 79.984C254.803 79.3027 255.05 78.7753 255.545 78.402C256.049 78.0193 256.791 77.828 257.771 77.828H258.667V77.338C258.667 76.7407 258.27 76.442 257.477 76.442C256.711 76.442 256.002 76.6567 255.349 77.086ZM264.415 72.102V76.106C264.779 75.2567 265.489 74.832 266.543 74.832C267.234 74.832 267.794 75.0513 268.223 75.49C268.662 75.9287 268.881 76.5913 268.881 77.478V82H266.837V77.8C266.837 77.3893 266.735 77.0673 266.529 76.834C266.324 76.6007 266.058 76.484 265.731 76.484C265.591 76.484 265.456 76.5073 265.325 76.554C265.204 76.5913 265.069 76.666 264.919 76.778C264.77 76.8807 264.649 77.0627 264.555 77.324C264.462 77.576 264.415 77.884 264.415 78.248V82H262.371V72.102H264.415ZM278.472 75.112V76.862C277.978 76.5727 277.399 76.428 276.736 76.428C276.494 76.428 276.307 76.4793 276.176 76.582C276.046 76.6753 275.98 76.7967 275.98 76.946C275.98 77.03 276.004 77.1093 276.05 77.184C276.097 77.2587 276.172 77.3287 276.274 77.394C276.386 77.4593 276.489 77.52 276.582 77.576C276.685 77.6227 276.82 77.6833 276.988 77.758C277.166 77.8327 277.306 77.898 277.408 77.954C277.838 78.178 278.183 78.4393 278.444 78.738C278.706 79.0273 278.836 79.4007 278.836 79.858C278.836 80.558 278.584 81.0993 278.08 81.482C277.576 81.8647 276.909 82.056 276.078 82.056C275.22 82.056 274.501 81.9113 273.922 81.622V79.802C274.566 80.25 275.248 80.474 275.966 80.474C276.48 80.474 276.736 80.3107 276.736 79.984C276.736 79.9 276.713 79.8207 276.666 79.746C276.62 79.6713 276.54 79.6013 276.428 79.536C276.316 79.4707 276.214 79.4193 276.12 79.382C276.027 79.3353 275.892 79.2747 275.714 79.2C275.537 79.1253 275.402 79.0647 275.308 79.018C274.366 78.57 273.894 77.898 273.894 77.002C273.894 76.3113 274.156 75.7747 274.678 75.392C275.21 75.0093 275.868 74.818 276.652 74.818C277.38 74.818 277.987 74.916 278.472 75.112ZM283.604 79.088H282.946C282.601 79.088 282.335 79.1627 282.148 79.312C281.961 79.4613 281.868 79.6527 281.868 79.886C281.868 80.362 282.143 80.6 282.694 80.6C282.983 80.6 283.207 80.5113 283.366 80.334C283.525 80.1567 283.604 79.914 283.604 79.606V79.088ZM280.286 77.086V75.252C280.846 74.9347 281.653 74.776 282.708 74.776C283.716 74.776 284.467 74.9953 284.962 75.434C285.457 75.8633 285.704 76.5353 285.704 77.45V82H283.702V81.132C283.403 81.7387 282.815 82.042 281.938 82.042C281.247 82.042 280.706 81.846 280.314 81.454C279.931 81.062 279.74 80.572 279.74 79.984C279.74 79.3027 279.987 78.7753 280.482 78.402C280.986 78.0193 281.728 77.828 282.708 77.828H283.604V77.338C283.604 76.7407 283.207 76.442 282.414 76.442C281.649 76.442 280.939 76.6567 280.286 77.086ZM293.987 82H291.621L289.353 78.514V82H287.309V72.34H289.353V78.08L291.593 74.902H293.945L291.481 78.304L293.987 82ZM295.049 82V74.902H297.093V82H295.049ZM295.231 73.684C294.997 73.4507 294.881 73.1707 294.881 72.844C294.881 72.5173 294.997 72.2373 295.231 72.004C295.464 71.7707 295.744 71.654 296.071 71.654C296.397 71.654 296.677 71.7707 296.911 72.004C297.144 72.2373 297.261 72.5173 297.261 72.844C297.261 73.1707 297.144 73.4507 296.911 73.684C296.677 73.9173 296.397 74.034 296.071 74.034C295.744 74.034 295.464 73.9173 295.231 73.684ZM301.214 76.4V79.662C301.214 79.914 301.284 80.1053 301.424 80.236C301.573 80.3667 301.764 80.432 301.998 80.432C302.371 80.432 302.702 80.3387 302.992 80.152V81.846C302.646 81.9953 302.18 82.07 301.592 82.07C299.977 82.07 299.17 81.2627 299.17 79.648V76.4H298.148V74.902H299.17V73.222H301.214V74.902H302.866V76.4H301.214Z" fill="white"/>
</g>
<g clip-path="url(#clip1_1124_4113)">
<path d="M182.953 145.567C177.569 145.097 173.923 143.449 171.713 142.037C170.061 140.982 167.94 140.982 166.289 142.037C164.078 143.449 160.433 145.097 155.048 145.567C153.249 145.724 151.871 147.238 151.906 149.043C152.043 156.159 153.869 172.6 167.412 178.091C168.431 178.504 169.571 178.504 170.59 178.091C184.132 172.6 185.959 156.159 186.096 149.043C186.131 147.237 184.753 145.724 182.954 145.567H182.953Z" fill="#FF6678"/>
<path d="M170.589 178.091C184.132 172.6 185.958 156.159 186.095 149.042C186.13 147.237 184.752 145.724 182.953 145.567C177.568 145.097 173.922 143.449 171.712 142.037C170.886 141.509 169.943 141.245 169 141.245V178.4C169.54 178.4 170.08 178.297 170.589 178.09V178.091Z" fill="#CC5260"/>
<path d="M177.716 156.038H171.753V150.075H166.249V156.038H160.285V161.543H166.249V167.506H171.753V161.543H177.716V156.038Z" fill="#8C0010"/>
<g opacity="0.32" style="mix-blend-mode:multiply">
<path d="M177.716 156.038H171.752V150.075H169V167.506H171.752V161.543H177.716V156.038Z" fill="#CC5260"/>
</g>
<path d="M149.053 142.052L150.184 139.984L151.316 142.052L153.384 143.184L151.316 144.315L150.184 146.384L149.053 144.315L146.984 143.184L149.053 142.052Z" fill="#FF6678"/>
<path d="M177.258 179.858L178.344 177.872L179.431 179.858L181.416 180.944L179.431 182.03L178.344 184.016L177.258 182.03L175.272 180.944L177.258 179.858Z" fill="#FF6678"/>
<path d="M183.988 171.314L185.824 167.957L187.659 171.314L191.016 173.15L187.659 174.986L185.824 178.342L183.988 174.986L180.631 173.15L183.988 171.314Z" fill="#FF6678"/>
</g>
<path d="M87.094 210.49H89.254L89.144 210.15C88.8907 209.363 88.684 208.713 88.524 208.2C88.364 207.68 88.2674 207.357 88.234 207.23L88.184 207.04C88.1107 207.353 87.784 208.39 87.204 210.15L87.094 210.49ZM90.064 213L89.534 211.35H86.814L86.274 213H85.184L87.514 206.26H88.864L91.164 213H90.064ZM93.1456 207.93V208.8C93.4456 208.173 93.9723 207.86 94.7256 207.86C95.2256 207.86 95.6223 208.013 95.9156 208.32C96.2089 208.627 96.3556 209.043 96.3556 209.57V213H95.3756V209.8C95.3756 209.447 95.2856 209.177 95.1056 208.99C94.9323 208.803 94.6989 208.71 94.4056 208.71C94.0589 208.71 93.7623 208.847 93.5156 209.12C93.2689 209.387 93.1456 209.763 93.1456 210.25V213H92.1656V207.93H93.1456ZM99.7234 212.21C100.11 212.21 100.437 212.063 100.703 211.77C100.97 211.477 101.103 211.03 101.103 210.43C101.103 209.85 100.963 209.42 100.683 209.14C100.41 208.86 100.1 208.72 99.7534 208.72C99.3601 208.72 99.0367 208.877 98.7834 209.19C98.5301 209.497 98.4034 209.937 98.4034 210.51C98.4034 211.017 98.5267 211.427 98.7734 211.74C99.0267 212.053 99.3434 212.21 99.7234 212.21ZM101.103 205.93H102.093V213H101.103V212.23C100.75 212.79 100.233 213.07 99.5534 213.07C98.8867 213.07 98.3601 212.82 97.9734 212.32C97.5867 211.813 97.3934 211.203 97.3934 210.49C97.3934 209.697 97.5967 209.06 98.0034 208.58C98.4101 208.1 98.9334 207.86 99.5734 207.86C100.233 207.86 100.743 208.14 101.103 208.7V205.93ZM106.144 210.74H105.384C105.011 210.74 104.728 210.813 104.534 210.96C104.348 211.107 104.254 211.293 104.254 211.52C104.254 211.753 104.328 211.937 104.474 212.07C104.621 212.203 104.834 212.27 105.114 212.27C105.434 212.27 105.684 212.183 105.864 212.01C106.051 211.83 106.144 211.597 106.144 211.31V210.74ZM103.594 209.14V208.19C103.988 207.963 104.508 207.85 105.154 207.85C106.481 207.85 107.144 208.493 107.144 209.78V213H106.174V212.4C105.914 212.827 105.458 213.04 104.804 213.04C104.324 213.04 103.938 212.903 103.644 212.63C103.358 212.35 103.214 211.997 103.214 211.57C103.214 211.083 103.398 210.707 103.764 210.44C104.131 210.167 104.644 210.03 105.304 210.03H106.144V209.74C106.144 209.393 106.061 209.133 105.894 208.96C105.728 208.78 105.451 208.69 105.064 208.69C104.524 208.69 104.034 208.84 103.594 209.14ZM111.905 207.93V208.74C112.192 208.153 112.669 207.86 113.335 207.86C114.095 207.86 114.582 208.187 114.795 208.84C114.935 208.527 115.139 208.287 115.405 208.12C115.672 207.947 115.972 207.86 116.305 207.86C116.825 207.86 117.219 208.013 117.485 208.32C117.759 208.627 117.895 209.05 117.895 209.59V213H116.915V209.8C116.915 209.073 116.622 208.71 116.035 208.71C115.742 208.71 115.479 208.84 115.245 209.1C115.019 209.36 114.905 209.743 114.905 210.25V213H113.925V209.8C113.925 209.073 113.629 208.71 113.035 208.71C112.749 208.71 112.489 208.84 112.255 209.1C112.022 209.36 111.905 209.743 111.905 210.25V213H110.925V207.93H111.905ZM122.376 210.1V209.92C122.363 209.54 122.259 209.24 122.066 209.02C121.873 208.793 121.596 208.68 121.236 208.68C120.903 208.68 120.616 208.803 120.376 209.05C120.136 209.29 119.986 209.64 119.926 210.1H122.376ZM123.006 211.85V212.73C122.633 212.943 122.139 213.05 121.526 213.05C120.739 213.05 120.113 212.813 119.646 212.34C119.179 211.867 118.946 211.247 118.946 210.48C118.946 209.667 119.159 209.03 119.586 208.57C120.013 208.103 120.556 207.87 121.216 207.87C121.863 207.87 122.376 208.073 122.756 208.48C123.136 208.88 123.326 209.46 123.326 210.22C123.326 210.427 123.306 210.643 123.266 210.87H119.936C120.003 211.31 120.189 211.647 120.496 211.88C120.803 212.113 121.189 212.23 121.656 212.23C122.196 212.23 122.646 212.103 123.006 211.85ZM125.46 207.93V208.74C125.747 208.153 126.223 207.86 126.89 207.86C127.65 207.86 128.137 208.187 128.35 208.84C128.49 208.527 128.693 208.287 128.96 208.12C129.227 207.947 129.527 207.86 129.86 207.86C130.38 207.86 130.773 208.013 131.04 208.32C131.313 208.627 131.45 209.05 131.45 209.59V213H130.47V209.8C130.47 209.073 130.177 208.71 129.59 208.71C129.297 208.71 129.033 208.84 128.8 209.1C128.573 209.36 128.46 209.743 128.46 210.25V213H127.48V209.8C127.48 209.073 127.183 208.71 126.59 208.71C126.303 208.71 126.043 208.84 125.81 209.1C125.577 209.36 125.46 209.743 125.46 210.25V213H124.48V207.93H125.46ZM132.821 213V207.93H133.811V213H132.821ZM132.871 206.82C132.757 206.7 132.701 206.553 132.701 206.38C132.701 206.207 132.757 206.06 132.871 205.94C132.991 205.82 133.137 205.76 133.311 205.76C133.484 205.76 133.631 205.82 133.751 205.94C133.871 206.06 133.931 206.207 133.931 206.38C133.931 206.547 133.871 206.69 133.751 206.81C133.631 206.93 133.484 206.99 133.311 206.99C133.137 206.99 132.991 206.933 132.871 206.82ZM135.272 213V205.93H136.262V213H135.272ZM137.723 213V207.93H138.713V213H137.723ZM137.773 206.82C137.66 206.7 137.603 206.553 137.603 206.38C137.603 206.207 137.66 206.06 137.773 205.94C137.893 205.82 138.04 205.76 138.213 205.76C138.386 205.76 138.533 205.82 138.653 205.94C138.773 206.06 138.833 206.207 138.833 206.38C138.833 206.547 138.773 206.69 138.653 206.81C138.533 206.93 138.386 206.99 138.213 206.99C138.04 206.99 137.893 206.933 137.773 206.82ZM140.134 213V206H141.114V213H140.134ZM142.284 210.35L144.274 213H143.104L141.154 210.35L143.064 207.93H144.214L142.284 210.35ZM145.174 213V207.93H146.164V213H145.174ZM145.224 206.82C145.111 206.7 145.054 206.553 145.054 206.38C145.054 206.207 145.111 206.06 145.224 205.94C145.344 205.82 145.491 205.76 145.664 205.76C145.838 205.76 145.984 205.82 146.104 205.94C146.224 206.06 146.284 206.207 146.284 206.38C146.284 206.547 146.224 206.69 146.104 206.81C145.984 206.93 145.838 206.99 145.664 206.99C145.491 206.99 145.344 206.933 145.224 206.82ZM151.576 210.49H153.736L153.626 210.15C153.373 209.363 153.166 208.713 153.006 208.2C152.846 207.68 152.75 207.357 152.716 207.23L152.666 207.04C152.593 207.353 152.266 208.39 151.686 210.15L151.576 210.49ZM154.546 213L154.016 211.35H151.296L150.756 213H149.666L151.996 206.26H153.346L155.646 213H154.546ZM159.538 208.1V208.99C159.211 208.797 158.791 208.7 158.278 208.7C158.045 208.7 157.858 208.753 157.718 208.86C157.585 208.967 157.518 209.107 157.518 209.28C157.518 209.327 157.521 209.373 157.528 209.42C157.541 209.46 157.561 209.503 157.588 209.55C157.615 209.59 157.638 209.627 157.658 209.66C157.685 209.687 157.725 209.717 157.778 209.75C157.831 209.783 157.871 209.813 157.898 209.84C157.931 209.86 157.981 209.887 158.048 209.92C158.121 209.953 158.175 209.98 158.208 210C158.241 210.013 158.298 210.04 158.378 210.08C158.465 210.113 158.525 210.137 158.558 210.15C158.951 210.323 159.258 210.52 159.478 210.74C159.705 210.953 159.818 211.24 159.818 211.6C159.818 212.053 159.658 212.41 159.338 212.67C159.018 212.923 158.585 213.05 158.038 213.05C157.438 213.05 156.938 212.95 156.538 212.75V211.82C157.005 212.107 157.488 212.25 157.988 212.25C158.248 212.25 158.448 212.197 158.588 212.09C158.735 211.983 158.808 211.843 158.808 211.67C158.808 211.523 158.751 211.393 158.638 211.28C158.525 211.16 158.408 211.073 158.288 211.02C158.175 210.96 157.978 210.87 157.698 210.75C156.905 210.423 156.508 209.943 156.508 209.31C156.508 208.863 156.675 208.513 157.008 208.26C157.341 208.007 157.758 207.88 158.258 207.88C158.805 207.88 159.231 207.953 159.538 208.1ZM163.987 207.93H164.967V213H163.987V212.13C163.721 212.75 163.194 213.06 162.407 213.06C161.907 213.06 161.511 212.913 161.217 212.62C160.924 212.32 160.777 211.91 160.777 211.39V207.93H161.767V211.15C161.767 211.497 161.851 211.763 162.017 211.95C162.191 212.13 162.427 212.22 162.727 212.22C163.107 212.22 163.411 212.087 163.637 211.82C163.871 211.553 163.987 211.177 163.987 210.69V207.93ZM167.325 207.93V208.82C167.572 208.193 168.015 207.88 168.655 207.88C168.749 207.88 168.852 207.89 168.965 207.91V208.87C168.825 208.81 168.669 208.78 168.495 208.78C168.155 208.78 167.875 208.93 167.655 209.23C167.435 209.53 167.325 209.887 167.325 210.3V213H166.345V207.93H167.325ZM172.404 210.74H171.644C171.271 210.74 170.987 210.813 170.794 210.96C170.607 211.107 170.514 211.293 170.514 211.52C170.514 211.753 170.587 211.937 170.734 212.07C170.881 212.203 171.094 212.27 171.374 212.27C171.694 212.27 171.944 212.183 172.124 212.01C172.311 211.83 172.404 211.597 172.404 211.31V210.74ZM169.854 209.14V208.19C170.247 207.963 170.767 207.85 171.414 207.85C172.741 207.85 173.404 208.493 173.404 209.78V213H172.434V212.4C172.174 212.827 171.717 213.04 171.064 213.04C170.584 213.04 170.197 212.903 169.904 212.63C169.617 212.35 169.474 211.997 169.474 211.57C169.474 211.083 169.657 210.707 170.024 210.44C170.391 210.167 170.904 210.03 171.564 210.03H172.404V209.74C172.404 209.393 172.321 209.133 172.154 208.96C171.987 208.78 171.711 208.69 171.324 208.69C170.784 208.69 170.294 208.84 169.854 209.14ZM175.704 207.93V208.8C176.004 208.173 176.531 207.86 177.284 207.86C177.784 207.86 178.181 208.013 178.474 208.32C178.768 208.627 178.914 209.043 178.914 209.57V213H177.934V209.8C177.934 209.447 177.844 209.177 177.664 208.99C177.491 208.803 177.258 208.71 176.964 208.71C176.618 208.71 176.321 208.847 176.074 209.12C175.828 209.387 175.704 209.763 175.704 210.25V213H174.724V207.93H175.704ZM183.122 208.1V208.99C182.795 208.797 182.375 208.7 181.862 208.7C181.629 208.7 181.442 208.753 181.302 208.86C181.169 208.967 181.102 209.107 181.102 209.28C181.102 209.327 181.105 209.373 181.112 209.42C181.125 209.46 181.145 209.503 181.172 209.55C181.199 209.59 181.222 209.627 181.242 209.66C181.269 209.687 181.309 209.717 181.362 209.75C181.415 209.783 181.455 209.813 181.482 209.84C181.515 209.86 181.565 209.887 181.632 209.92C181.705 209.953 181.759 209.98 181.792 210C181.825 210.013 181.882 210.04 181.962 210.08C182.049 210.113 182.109 210.137 182.142 210.15C182.535 210.323 182.842 210.52 183.062 210.74C183.289 210.953 183.402 211.24 183.402 211.6C183.402 212.053 183.242 212.41 182.922 212.67C182.602 212.923 182.169 213.05 181.622 213.05C181.022 213.05 180.522 212.95 180.122 212.75V211.82C180.589 212.107 181.072 212.25 181.572 212.25C181.832 212.25 182.032 212.197 182.172 212.09C182.319 211.983 182.392 211.843 182.392 211.67C182.392 211.523 182.335 211.393 182.222 211.28C182.109 211.16 181.992 211.073 181.872 211.02C181.759 210.96 181.562 210.87 181.282 210.75C180.489 210.423 180.092 209.943 180.092 209.31C180.092 208.863 180.259 208.513 180.592 208.26C180.925 208.007 181.342 207.88 181.842 207.88C182.389 207.88 182.815 207.953 183.122 208.1ZM184.461 213V207.93H185.451V213H184.461ZM184.511 206.82C184.398 206.7 184.341 206.553 184.341 206.38C184.341 206.207 184.398 206.06 184.511 205.94C184.631 205.82 184.778 205.76 184.951 205.76C185.125 205.76 185.271 205.82 185.391 205.94C185.511 206.06 185.571 206.207 185.571 206.38C185.571 206.547 185.511 206.69 185.391 206.81C185.271 206.93 185.125 206.99 184.951 206.99C184.778 206.99 184.631 206.933 184.511 206.82ZM190.404 209.76H191.284C191.77 209.76 192.14 209.64 192.394 209.4C192.654 209.16 192.784 208.843 192.784 208.45C192.784 208.037 192.654 207.71 192.394 207.47C192.134 207.23 191.757 207.11 191.264 207.11H190.404V209.76ZM189.374 206.26H191.304C192.077 206.26 192.69 206.467 193.144 206.88C193.597 207.287 193.824 207.81 193.824 208.45C193.824 209.09 193.594 209.61 193.134 210.01C192.68 210.41 192.09 210.61 191.364 210.61H190.404V213H189.374V206.26ZM194.872 213V205.93H195.862V213H194.872ZM199.953 210.74H199.193C198.819 210.74 198.536 210.813 198.343 210.96C198.156 211.107 198.063 211.293 198.063 211.52C198.063 211.753 198.136 211.937 198.283 212.07C198.429 212.203 198.643 212.27 198.923 212.27C199.243 212.27 199.493 212.183 199.673 212.01C199.859 211.83 199.953 211.597 199.953 211.31V210.74ZM197.403 209.14V208.19C197.796 207.963 198.316 207.85 198.963 207.85C200.289 207.85 200.953 208.493 200.953 209.78V213H199.983V212.4C199.723 212.827 199.266 213.04 198.613 213.04C198.133 213.04 197.746 212.903 197.453 212.63C197.166 212.35 197.023 211.997 197.023 211.57C197.023 211.083 197.206 210.707 197.573 210.44C197.939 210.167 198.453 210.03 199.113 210.03H199.953V209.74C199.953 209.393 199.869 209.133 199.703 208.96C199.536 208.78 199.259 208.69 198.873 208.69C198.333 208.69 197.843 208.84 197.403 209.14ZM203.543 208.69V211.48C203.543 211.967 203.776 212.21 204.243 212.21C204.516 212.21 204.746 212.137 204.933 211.99V212.87C204.713 212.99 204.443 213.05 204.123 213.05C203.076 213.05 202.553 212.52 202.553 211.46V208.69H201.763V207.93H202.553V206.69H203.543V207.93H204.873V208.69H203.543ZM206.053 213V207.93H207.043V213H206.053ZM206.103 206.82C205.99 206.7 205.933 206.553 205.933 206.38C205.933 206.207 205.99 206.06 206.103 205.94C206.223 205.82 206.37 205.76 206.543 205.76C206.717 205.76 206.863 205.82 206.983 205.94C207.103 206.06 207.163 206.207 207.163 206.38C207.163 206.547 207.103 206.69 206.983 206.81C206.863 206.93 206.717 206.99 206.543 206.99C206.37 206.99 206.223 206.933 206.103 206.82ZM209.444 207.93V208.8C209.744 208.173 210.271 207.86 211.024 207.86C211.524 207.86 211.921 208.013 212.214 208.32C212.508 208.627 212.654 209.043 212.654 209.57V213H211.674V209.8C211.674 209.447 211.584 209.177 211.404 208.99C211.231 208.803 210.998 208.71 210.704 208.71C210.358 208.71 210.061 208.847 209.814 209.12C209.568 209.387 209.444 209.763 209.444 210.25V213H208.464V207.93H209.444ZM217.122 207.93H218.102V213H217.122V212.13C216.856 212.75 216.329 213.06 215.542 213.06C215.042 213.06 214.646 212.913 214.352 212.62C214.059 212.32 213.912 211.91 213.912 211.39V207.93H214.902V211.15C214.902 211.497 214.986 211.763 215.152 211.95C215.326 212.13 215.562 212.22 215.862 212.22C216.242 212.22 216.546 212.087 216.772 211.82C217.006 211.553 217.122 211.177 217.122 210.69V207.93ZM220.46 207.93V208.74C220.747 208.153 221.223 207.86 221.89 207.86C222.65 207.86 223.137 208.187 223.35 208.84C223.49 208.527 223.693 208.287 223.96 208.12C224.227 207.947 224.527 207.86 224.86 207.86C225.38 207.86 225.773 208.013 226.04 208.32C226.313 208.627 226.45 209.05 226.45 209.59V213H225.47V209.8C225.47 209.073 225.177 208.71 224.59 208.71C224.297 208.71 224.033 208.84 223.8 209.1C223.573 209.36 223.46 209.743 223.46 210.25V213H222.48V209.8C222.48 209.073 222.183 208.71 221.59 208.71C221.303 208.71 221.043 208.84 220.81 209.1C220.577 209.36 220.46 209.743 220.46 210.25V213H219.48V207.93H220.46ZM227.011 214.24L227.971 211.9H229.181L227.871 214.24H227.011ZM234.093 212.89L232.073 207.93H233.163L233.793 209.58L234.583 211.72C234.643 211.52 234.883 210.807 235.303 209.58L235.873 207.93H236.913L235.083 212.86C234.596 214.16 233.853 214.81 232.853 214.81C232.673 214.81 232.52 214.793 232.393 214.76V213.92C232.5 213.947 232.613 213.96 232.733 213.96C233.38 213.96 233.833 213.603 234.093 212.89ZM240.402 210.74H239.642C239.269 210.74 238.985 210.813 238.792 210.96C238.605 211.107 238.512 211.293 238.512 211.52C238.512 211.753 238.585 211.937 238.732 212.07C238.879 212.203 239.092 212.27 239.372 212.27C239.692 212.27 239.942 212.183 240.122 212.01C240.309 211.83 240.402 211.597 240.402 211.31V210.74ZM237.852 209.14V208.19C238.245 207.963 238.765 207.85 239.412 207.85C240.739 207.85 241.402 208.493 241.402 209.78V213H240.432V212.4C240.172 212.827 239.715 213.04 239.062 213.04C238.582 213.04 238.195 212.903 237.902 212.63C237.615 212.35 237.472 211.997 237.472 211.57C237.472 211.083 237.655 210.707 238.022 210.44C238.389 210.167 238.902 210.03 239.562 210.03H240.402V209.74C240.402 209.393 240.319 209.133 240.152 208.96C239.985 208.78 239.709 208.69 239.322 208.69C238.782 208.69 238.292 208.84 237.852 209.14ZM243.702 207.93V208.8C244.002 208.173 244.529 207.86 245.282 207.86C245.782 207.86 246.179 208.013 246.472 208.32C246.766 208.627 246.912 209.043 246.912 209.57V213H245.932V209.8C245.932 209.447 245.842 209.177 245.662 208.99C245.489 208.803 245.256 208.71 244.962 208.71C244.616 208.71 244.319 208.847 244.072 209.12C243.826 209.387 243.702 209.763 243.702 210.25V213H242.722V207.93H243.702ZM250.23 212.02C250.577 212.02 250.877 211.887 251.13 211.62C251.39 211.347 251.52 210.967 251.52 210.48C251.52 209.88 251.397 209.437 251.15 209.15C250.91 208.863 250.617 208.72 250.27 208.72C249.877 208.72 249.567 208.877 249.34 209.19C249.113 209.497 249 209.903 249 210.41C249 210.937 249.12 211.337 249.36 211.61C249.607 211.883 249.897 212.02 250.23 212.02ZM251.52 207.93H252.5V212.57C252.5 213.35 252.277 213.937 251.83 214.33C251.39 214.73 250.823 214.93 250.13 214.93C249.477 214.93 248.927 214.82 248.48 214.6V213.61C248.907 213.89 249.423 214.03 250.03 214.03C251.023 214.03 251.52 213.54 251.52 212.56V212.04C251.193 212.587 250.703 212.86 250.05 212.86C249.477 212.86 248.987 212.65 248.58 212.23C248.173 211.803 247.97 211.203 247.97 210.43C247.97 209.683 248.16 209.07 248.54 208.59C248.92 208.103 249.423 207.86 250.05 207.86C250.723 207.86 251.213 208.147 251.52 208.72V207.93ZM92.0165 228.21C92.3899 228.21 92.7032 228.053 92.9565 227.74C93.2099 227.42 93.3365 227.01 93.3365 226.51C93.3365 225.937 93.2099 225.497 92.9565 225.19C92.7032 224.877 92.3799 224.72 91.9865 224.72C91.6399 224.72 91.3265 224.86 91.0465 225.14C90.7732 225.42 90.6365 225.85 90.6365 226.43C90.6365 227.03 90.7699 227.477 91.0365 227.77C91.3032 228.063 91.6299 228.21 92.0165 228.21ZM90.6365 221.93V224.7C90.9965 224.14 91.5065 223.86 92.1665 223.86C92.8065 223.86 93.3299 224.1 93.7365 224.58C94.1432 225.06 94.3465 225.697 94.3465 226.49C94.3465 227.203 94.1532 227.813 93.7665 228.32C93.3799 228.82 92.8499 229.07 92.1765 229.07C91.5032 229.07 90.9899 228.79 90.6365 228.23V229H89.6465V221.93H90.6365ZM95.4868 229V223.93H96.4768V229H95.4868ZM95.5368 222.82C95.4235 222.7 95.3668 222.553 95.3668 222.38C95.3668 222.207 95.4235 222.06 95.5368 221.94C95.6568 221.82 95.8035 221.76 95.9768 221.76C96.1502 221.76 96.2968 221.82 96.4168 221.94C96.5368 222.06 96.5968 222.207 96.5968 222.38C96.5968 222.547 96.5368 222.69 96.4168 222.81C96.2968 222.93 96.1502 222.99 95.9768 222.99C95.8035 222.99 95.6568 222.933 95.5368 222.82ZM100.788 224.1V224.99C100.461 224.797 100.041 224.7 99.528 224.7C99.2947 224.7 99.108 224.753 98.968 224.86C98.8347 224.967 98.768 225.107 98.768 225.28C98.768 225.327 98.7713 225.373 98.778 225.42C98.7913 225.46 98.8113 225.503 98.838 225.55C98.8647 225.59 98.888 225.627 98.908 225.66C98.9347 225.687 98.9747 225.717 99.028 225.75C99.0813 225.783 99.1213 225.813 99.148 225.84C99.1813 225.86 99.2313 225.887 99.298 225.92C99.3713 225.953 99.4247 225.98 99.458 226C99.4913 226.013 99.548 226.04 99.628 226.08C99.7147 226.113 99.7747 226.137 99.808 226.15C100.201 226.323 100.508 226.52 100.728 226.74C100.955 226.953 101.068 227.24 101.068 227.6C101.068 228.053 100.908 228.41 100.588 228.67C100.268 228.923 99.8347 229.05 99.288 229.05C98.688 229.05 98.188 228.95 97.788 228.75V227.82C98.2547 228.107 98.738 228.25 99.238 228.25C99.498 228.25 99.698 228.197 99.838 228.09C99.9847 227.983 100.058 227.843 100.058 227.67C100.058 227.523 100.001 227.393 99.888 227.28C99.7747 227.16 99.658 227.073 99.538 227.02C99.4247 226.96 99.228 226.87 98.948 226.75C98.1547 226.423 97.758 225.943 97.758 225.31C97.758 224.863 97.9247 224.513 98.258 224.26C98.5913 224.007 99.008 223.88 99.508 223.88C100.055 223.88 100.481 223.953 100.788 224.1ZM104.757 226.74H103.997C103.624 226.74 103.341 226.813 103.147 226.96C102.961 227.107 102.867 227.293 102.867 227.52C102.867 227.753 102.941 227.937 103.087 228.07C103.234 228.203 103.447 228.27 103.727 228.27C104.047 228.27 104.297 228.183 104.477 228.01C104.664 227.83 104.757 227.597 104.757 227.31V226.74ZM102.207 225.14V224.19C102.601 223.963 103.121 223.85 103.767 223.85C105.094 223.85 105.757 224.493 105.757 225.78V229H104.787V228.4C104.527 228.827 104.071 229.04 103.417 229.04C102.937 229.04 102.551 228.903 102.257 228.63C101.971 228.35 101.827 227.997 101.827 227.57C101.827 227.083 102.011 226.707 102.377 226.44C102.744 226.167 103.257 226.03 103.917 226.03H104.757V225.74C104.757 225.393 104.674 225.133 104.507 224.96C104.341 224.78 104.064 224.69 103.677 224.69C103.137 224.69 102.647 224.84 102.207 225.14ZM110.519 223.93V224.74C110.805 224.153 111.282 223.86 111.949 223.86C112.709 223.86 113.195 224.187 113.409 224.84C113.549 224.527 113.752 224.287 114.019 224.12C114.285 223.947 114.585 223.86 114.919 223.86C115.439 223.86 115.832 224.013 116.099 224.32C116.372 224.627 116.509 225.05 116.509 225.59V229H115.529V225.8C115.529 225.073 115.235 224.71 114.649 224.71C114.355 224.71 114.092 224.84 113.859 225.1C113.632 225.36 113.519 225.743 113.519 226.25V229H112.539V225.8C112.539 225.073 112.242 224.71 111.649 224.71C111.362 224.71 111.102 224.84 110.869 225.1C110.635 225.36 110.519 225.743 110.519 226.25V229H109.539V223.93H110.519ZM120.989 226.1V225.92C120.976 225.54 120.873 225.24 120.679 225.02C120.486 224.793 120.209 224.68 119.849 224.68C119.516 224.68 119.229 224.803 118.989 225.05C118.749 225.29 118.599 225.64 118.539 226.1H120.989ZM121.619 227.85V228.73C121.246 228.943 120.753 229.05 120.139 229.05C119.353 229.05 118.726 228.813 118.259 228.34C117.793 227.867 117.559 227.247 117.559 226.48C117.559 225.667 117.773 225.03 118.199 224.57C118.626 224.103 119.169 223.87 119.829 223.87C120.476 223.87 120.989 224.073 121.369 224.48C121.749 224.88 121.939 225.46 121.939 226.22C121.939 226.427 121.919 226.643 121.879 226.87H118.549C118.616 227.31 118.803 227.647 119.109 227.88C119.416 228.113 119.803 228.23 120.269 228.23C120.809 228.23 121.259 228.103 121.619 227.85ZM124.073 223.93V224.74C124.36 224.153 124.837 223.86 125.503 223.86C126.263 223.86 126.75 224.187 126.963 224.84C127.103 224.527 127.307 224.287 127.573 224.12C127.84 223.947 128.14 223.86 128.473 223.86C128.993 223.86 129.387 224.013 129.653 224.32C129.927 224.627 130.063 225.05 130.063 225.59V229H129.083V225.8C129.083 225.073 128.79 224.71 128.203 224.71C127.91 224.71 127.647 224.84 127.413 225.1C127.187 225.36 127.073 225.743 127.073 226.25V229H126.093V225.8C126.093 225.073 125.797 224.71 125.203 224.71C124.917 224.71 124.657 224.84 124.423 225.1C124.19 225.36 124.073 225.743 124.073 226.25V229H123.093V223.93H124.073ZM133.784 228.21C134.157 228.21 134.471 228.053 134.724 227.74C134.977 227.42 135.104 227.01 135.104 226.51C135.104 225.937 134.977 225.497 134.724 225.19C134.471 224.877 134.147 224.72 133.754 224.72C133.407 224.72 133.094 224.86 132.814 225.14C132.541 225.42 132.404 225.85 132.404 226.43C132.404 227.03 132.537 227.477 132.804 227.77C133.071 228.063 133.397 228.21 133.784 228.21ZM132.404 221.93V224.7C132.764 224.14 133.274 223.86 133.934 223.86C134.574 223.86 135.097 224.1 135.504 224.58C135.911 225.06 136.114 225.697 136.114 226.49C136.114 227.203 135.921 227.813 135.534 228.32C135.147 228.82 134.617 229.07 133.944 229.07C133.271 229.07 132.757 228.79 132.404 228.23V229H131.414V221.93H132.404ZM137.254 229V223.93H138.244V229H137.254ZM137.304 222.82C137.191 222.7 137.134 222.553 137.134 222.38C137.134 222.207 137.191 222.06 137.304 221.94C137.424 221.82 137.571 221.76 137.744 221.76C137.918 221.76 138.064 221.82 138.184 221.94C138.304 222.06 138.364 222.207 138.364 222.38C138.364 222.547 138.304 222.69 138.184 222.81C138.064 222.93 137.918 222.99 137.744 222.99C137.571 222.99 137.424 222.933 137.304 222.82ZM142.336 226.74H141.576C141.202 226.74 140.919 226.813 140.726 226.96C140.539 227.107 140.446 227.293 140.446 227.52C140.446 227.753 140.519 227.937 140.666 228.07C140.812 228.203 141.026 228.27 141.306 228.27C141.626 228.27 141.876 228.183 142.056 228.01C142.242 227.83 142.336 227.597 142.336 227.31V226.74ZM139.786 225.14V224.19C140.179 223.963 140.699 223.85 141.346 223.85C142.672 223.85 143.336 224.493 143.336 225.78V229H142.366V228.4C142.106 228.827 141.649 229.04 140.996 229.04C140.516 229.04 140.129 228.903 139.836 228.63C139.549 228.35 139.406 227.997 139.406 227.57C139.406 227.083 139.589 226.707 139.956 226.44C140.322 226.167 140.836 226.03 141.496 226.03H142.336V225.74C142.336 225.393 142.252 225.133 142.086 224.96C141.919 224.78 141.642 224.69 141.256 224.69C140.716 224.69 140.226 224.84 139.786 225.14ZM146.056 228.89L144.036 223.93H145.126L145.756 225.58L146.546 227.72C146.606 227.52 146.846 226.807 147.266 225.58L147.836 223.93H148.876L147.046 228.86C146.559 230.16 145.816 230.81 144.816 230.81C144.636 230.81 144.482 230.793 144.356 230.76V229.92C144.462 229.947 144.576 229.96 144.696 229.96C145.342 229.96 145.796 229.603 146.056 228.89ZM152.365 226.74H151.605C151.232 226.74 150.948 226.813 150.755 226.96C150.568 227.107 150.475 227.293 150.475 227.52C150.475 227.753 150.548 227.937 150.695 228.07C150.842 228.203 151.055 228.27 151.335 228.27C151.655 228.27 151.905 228.183 152.085 228.01C152.272 227.83 152.365 227.597 152.365 227.31V226.74ZM149.815 225.14V224.19C150.208 223.963 150.728 223.85 151.375 223.85C152.702 223.85 153.365 224.493 153.365 225.78V229H152.395V228.4C152.135 228.827 151.678 229.04 151.025 229.04C150.545 229.04 150.158 228.903 149.865 228.63C149.578 228.35 149.435 227.997 149.435 227.57C149.435 227.083 149.618 226.707 149.985 226.44C150.352 226.167 150.865 226.03 151.525 226.03H152.365V225.74C152.365 225.393 152.282 225.133 152.115 224.96C151.948 224.78 151.672 224.69 151.285 224.69C150.745 224.69 150.255 224.84 149.815 225.14ZM154.725 229V223.93H155.715V229H154.725ZM154.775 222.82C154.662 222.7 154.605 222.553 154.605 222.38C154.605 222.207 154.662 222.06 154.775 221.94C154.895 221.82 155.042 221.76 155.215 221.76C155.388 221.76 155.535 221.82 155.655 221.94C155.775 222.06 155.835 222.207 155.835 222.38C155.835 222.547 155.775 222.69 155.655 222.81C155.535 222.93 155.388 222.99 155.215 222.99C155.042 222.99 154.895 222.933 154.775 222.82ZM160.577 223.93V224.82C160.824 224.193 161.267 223.88 161.907 223.88C162.001 223.88 162.104 223.89 162.217 223.91V224.87C162.077 224.81 161.921 224.78 161.747 224.78C161.407 224.78 161.127 224.93 160.907 225.23C160.687 225.53 160.577 225.887 160.577 226.3V229H159.597V223.93H160.577ZM166.136 223.93H167.116V229H166.136V228.13C165.869 228.75 165.343 229.06 164.556 229.06C164.056 229.06 163.659 228.913 163.366 228.62C163.073 228.32 162.926 227.91 162.926 227.39V223.93H163.916V227.15C163.916 227.497 163.999 227.763 164.166 227.95C164.339 228.13 164.576 228.22 164.876 228.22C165.256 228.22 165.559 228.087 165.786 227.82C166.019 227.553 166.136 227.177 166.136 226.69V223.93ZM169.474 223.93V224.74C169.76 224.153 170.237 223.86 170.904 223.86C171.664 223.86 172.15 224.187 172.364 224.84C172.504 224.527 172.707 224.287 172.974 224.12C173.24 223.947 173.54 223.86 173.874 223.86C174.394 223.86 174.787 224.013 175.054 224.32C175.327 224.627 175.464 225.05 175.464 225.59V229H174.484V225.8C174.484 225.073 174.19 224.71 173.604 224.71C173.31 224.71 173.047 224.84 172.814 225.1C172.587 225.36 172.474 225.743 172.474 226.25V229H171.494V225.8C171.494 225.073 171.197 224.71 170.604 224.71C170.317 224.71 170.057 224.84 169.824 225.1C169.59 225.36 169.474 225.743 169.474 226.25V229H168.494V223.93H169.474ZM179.464 226.74H178.704C178.331 226.74 178.048 226.813 177.854 226.96C177.668 227.107 177.574 227.293 177.574 227.52C177.574 227.753 177.648 227.937 177.794 228.07C177.941 228.203 178.154 228.27 178.434 228.27C178.754 228.27 179.004 228.183 179.184 228.01C179.371 227.83 179.464 227.597 179.464 227.31V226.74ZM176.914 225.14V224.19C177.308 223.963 177.828 223.85 178.474 223.85C179.801 223.85 180.464 224.493 180.464 225.78V229H179.494V228.4C179.234 228.827 178.778 229.04 178.124 229.04C177.644 229.04 177.258 228.903 176.964 228.63C176.678 228.35 176.534 227.997 176.534 227.57C176.534 227.083 176.718 226.707 177.084 226.44C177.451 226.167 177.964 226.03 178.624 226.03H179.464V225.74C179.464 225.393 179.381 225.133 179.214 224.96C179.048 224.78 178.771 224.69 178.384 224.69C177.844 224.69 177.354 224.84 176.914 225.14ZM182.765 221.93V224.8C183.051 224.173 183.575 223.86 184.335 223.86C184.828 223.86 185.225 224.013 185.525 224.32C185.825 224.627 185.975 225.053 185.975 225.6V229H184.995V225.8C184.995 225.453 184.905 225.187 184.725 225C184.551 224.807 184.321 224.71 184.035 224.71C183.701 224.71 183.405 224.837 183.145 225.09C182.891 225.343 182.765 225.73 182.765 226.25V229H181.785V221.93H182.765ZM192.643 224.1V224.99C192.317 224.797 191.897 224.7 191.383 224.7C191.15 224.7 190.963 224.753 190.823 224.86C190.69 224.967 190.623 225.107 190.623 225.28C190.623 225.327 190.627 225.373 190.633 225.42C190.647 225.46 190.667 225.503 190.693 225.55C190.72 225.59 190.743 225.627 190.763 225.66C190.79 225.687 190.83 225.717 190.883 225.75C190.937 225.783 190.977 225.813 191.003 225.84C191.037 225.86 191.087 225.887 191.153 225.92C191.227 225.953 191.28 225.98 191.313 226C191.347 226.013 191.403 226.04 191.483 226.08C191.57 226.113 191.63 226.137 191.663 226.15C192.057 226.323 192.363 226.52 192.583 226.74C192.81 226.953 192.923 227.24 192.923 227.6C192.923 228.053 192.763 228.41 192.443 228.67C192.123 228.923 191.69 229.05 191.143 229.05C190.543 229.05 190.043 228.95 189.643 228.75V227.82C190.11 228.107 190.593 228.25 191.093 228.25C191.353 228.25 191.553 228.197 191.693 228.09C191.84 227.983 191.913 227.843 191.913 227.67C191.913 227.523 191.857 227.393 191.743 227.28C191.63 227.16 191.513 227.073 191.393 227.02C191.28 226.96 191.083 226.87 190.803 226.75C190.01 226.423 189.613 225.943 189.613 225.31C189.613 224.863 189.78 224.513 190.113 224.26C190.447 224.007 190.863 223.88 191.363 223.88C191.91 223.88 192.337 223.953 192.643 224.1ZM196.613 226.74H195.853C195.48 226.74 195.196 226.813 195.003 226.96C194.816 227.107 194.723 227.293 194.723 227.52C194.723 227.753 194.796 227.937 194.943 228.07C195.09 228.203 195.303 228.27 195.583 228.27C195.903 228.27 196.153 228.183 196.333 228.01C196.52 227.83 196.613 227.597 196.613 227.31V226.74ZM194.063 225.14V224.19C194.456 223.963 194.976 223.85 195.623 223.85C196.95 223.85 197.613 224.493 197.613 225.78V229H196.643V228.4C196.383 228.827 195.926 229.04 195.273 229.04C194.793 229.04 194.406 228.903 194.113 228.63C193.826 228.35 193.683 227.997 193.683 227.57C193.683 227.083 193.866 226.707 194.233 226.44C194.6 226.167 195.113 226.03 195.773 226.03H196.613V225.74C196.613 225.393 196.53 225.133 196.363 224.96C196.196 224.78 195.92 224.69 195.533 224.69C194.993 224.69 194.503 224.84 194.063 225.14ZM198.933 229V222H199.913V229H198.933ZM201.083 226.35L203.073 229H201.903L199.953 226.35L201.863 223.93H203.013L201.083 226.35ZM203.973 229V223.93H204.963V229H203.973ZM204.023 222.82C203.91 222.7 203.853 222.553 203.853 222.38C203.853 222.207 203.91 222.06 204.023 221.94C204.143 221.82 204.29 221.76 204.463 221.76C204.636 221.76 204.783 221.82 204.903 221.94C205.023 222.06 205.083 222.207 205.083 222.38C205.083 222.547 205.023 222.69 204.903 222.81C204.783 222.93 204.636 222.99 204.463 222.99C204.29 222.99 204.143 222.933 204.023 222.82ZM207.654 224.69V227.48C207.654 227.967 207.888 228.21 208.354 228.21C208.628 228.21 208.858 228.137 209.044 227.99V228.87C208.824 228.99 208.554 229.05 208.234 229.05C207.188 229.05 206.664 228.52 206.664 227.46V224.69H205.874V223.93H206.664V222.69H207.654V223.93H208.984V224.69H207.654ZM212.586 229V222H213.566V229H212.586ZM214.736 226.35L216.726 229H215.556L213.606 226.35L215.516 223.93H216.666L214.736 226.35ZM220.736 226.1V225.92C220.722 225.54 220.619 225.24 220.426 225.02C220.232 224.793 219.956 224.68 219.596 224.68C219.262 224.68 218.976 224.803 218.736 225.05C218.496 225.29 218.346 225.64 218.286 226.1H220.736ZM221.366 227.85V228.73C220.992 228.943 220.499 229.05 219.886 229.05C219.099 229.05 218.472 228.813 218.006 228.34C217.539 227.867 217.306 227.247 217.306 226.48C217.306 225.667 217.519 225.03 217.946 224.57C218.372 224.103 218.916 223.87 219.576 223.87C220.222 223.87 220.736 224.073 221.116 224.48C221.496 224.88 221.686 225.46 221.686 226.22C221.686 226.427 221.666 226.643 221.626 226.87H218.296C218.362 227.31 218.549 227.647 218.856 227.88C219.162 228.113 219.549 228.23 220.016 228.23C220.556 228.23 221.006 228.103 221.366 227.85ZM222.879 229V221.93H223.869V229H222.879ZM228.441 223.93H229.421V229H228.441V228.13C228.174 228.75 227.647 229.06 226.861 229.06C226.361 229.06 225.964 228.913 225.671 228.62C225.377 228.32 225.231 227.91 225.231 227.39V223.93H226.221V227.15C226.221 227.497 226.304 227.763 226.471 227.95C226.644 228.13 226.881 228.22 227.181 228.22C227.561 228.22 227.864 228.087 228.091 227.82C228.324 227.553 228.441 227.177 228.441 226.69V223.93ZM233.468 226.74H232.708C232.335 226.74 232.052 226.813 231.858 226.96C231.672 227.107 231.578 227.293 231.578 227.52C231.578 227.753 231.652 227.937 231.798 228.07C231.945 228.203 232.158 228.27 232.438 228.27C232.758 228.27 233.008 228.183 233.188 228.01C233.375 227.83 233.468 227.597 233.468 227.31V226.74ZM230.918 225.14V224.19C231.312 223.963 231.832 223.85 232.478 223.85C233.805 223.85 234.468 224.493 234.468 225.78V229H233.498V228.4C233.238 228.827 232.782 229.04 232.128 229.04C231.648 229.04 231.262 228.903 230.968 228.63C230.682 228.35 230.538 227.997 230.538 227.57C230.538 227.083 230.722 226.707 231.088 226.44C231.455 226.167 231.968 226.03 232.628 226.03H233.468V225.74C233.468 225.393 233.385 225.133 233.218 224.96C233.052 224.78 232.775 224.69 232.388 224.69C231.848 224.69 231.358 224.84 230.918 225.14ZM236.769 223.93V224.82C237.015 224.193 237.459 223.88 238.099 223.88C238.192 223.88 238.295 223.89 238.409 223.91V224.87C238.269 224.81 238.112 224.78 237.939 224.78C237.599 224.78 237.319 224.93 237.099 225.23C236.879 225.53 236.769 225.887 236.769 226.3V229H235.789V223.93H236.769ZM241.177 228.02C241.524 228.02 241.824 227.887 242.077 227.62C242.337 227.347 242.467 226.967 242.467 226.48C242.467 225.88 242.344 225.437 242.097 225.15C241.857 224.863 241.564 224.72 241.217 224.72C240.824 224.72 240.514 224.877 240.287 225.19C240.061 225.497 239.947 225.903 239.947 226.41C239.947 226.937 240.067 227.337 240.307 227.61C240.554 227.883 240.844 228.02 241.177 228.02ZM242.467 223.93H243.447V228.57C243.447 229.35 243.224 229.937 242.777 230.33C242.337 230.73 241.771 230.93 241.077 230.93C240.424 230.93 239.874 230.82 239.427 230.6V229.61C239.854 229.89 240.371 230.03 240.977 230.03C241.971 230.03 242.467 229.54 242.467 228.56V228.04C242.141 228.587 241.651 228.86 240.997 228.86C240.424 228.86 239.934 228.65 239.527 228.23C239.121 227.803 238.917 227.203 238.917 226.43C238.917 225.683 239.107 225.07 239.487 224.59C239.867 224.103 240.371 223.86 240.997 223.86C241.671 223.86 242.161 224.147 242.467 224.72V223.93ZM247.433 226.74H246.673C246.3 226.74 246.017 226.813 245.823 226.96C245.637 227.107 245.543 227.293 245.543 227.52C245.543 227.753 245.617 227.937 245.763 228.07C245.91 228.203 246.123 228.27 246.403 228.27C246.723 228.27 246.973 228.183 247.153 228.01C247.34 227.83 247.433 227.597 247.433 227.31V226.74ZM244.883 225.14V224.19C245.277 223.963 245.797 223.85 246.443 223.85C247.77 223.85 248.433 224.493 248.433 225.78V229H247.463V228.4C247.203 228.827 246.747 229.04 246.093 229.04C245.613 229.04 245.227 228.903 244.933 228.63C244.647 228.35 244.503 227.997 244.503 227.57C244.503 227.083 244.687 226.707 245.053 226.44C245.42 226.167 245.933 226.03 246.593 226.03H247.433V225.74C247.433 225.393 247.35 225.133 247.183 224.96C247.017 224.78 246.74 224.69 246.353 224.69C245.813 224.69 245.323 224.84 244.883 225.14ZM158.803 242.49H160.963L160.853 242.15C160.6 241.363 160.393 240.713 160.233 240.2C160.073 239.68 159.976 239.357 159.943 239.23L159.893 239.04C159.82 239.353 159.493 240.39 158.913 242.15L158.803 242.49ZM161.773 245L161.243 243.35H158.523L157.983 245H156.893L159.223 238.26H160.573L162.873 245H161.773ZM164.855 239.93V240.8C165.155 240.173 165.681 239.86 166.435 239.86C166.935 239.86 167.331 240.013 167.625 240.32C167.918 240.627 168.065 241.043 168.065 241.57V245H167.085V241.8C167.085 241.447 166.995 241.177 166.815 240.99C166.641 240.803 166.408 240.71 166.115 240.71C165.768 240.71 165.471 240.847 165.225 241.12C164.978 241.387 164.855 241.763 164.855 242.25V245H163.875V239.93H164.855ZM171.432 244.21C171.819 244.21 172.146 244.063 172.412 243.77C172.679 243.477 172.812 243.03 172.812 242.43C172.812 241.85 172.672 241.42 172.392 241.14C172.119 240.86 171.809 240.72 171.462 240.72C171.069 240.72 170.746 240.877 170.492 241.19C170.239 241.497 170.112 241.937 170.112 242.51C170.112 243.017 170.236 243.427 170.482 243.74C170.736 244.053 171.052 244.21 171.432 244.21ZM172.812 237.93H173.802V245H172.812V244.23C172.459 244.79 171.942 245.07 171.262 245.07C170.596 245.07 170.069 244.82 169.682 244.32C169.296 243.813 169.102 243.203 169.102 242.49C169.102 241.697 169.306 241.06 169.712 240.58C170.119 240.1 170.642 239.86 171.282 239.86C171.942 239.86 172.452 240.14 172.812 240.7V237.93ZM177.853 242.74H177.093C176.72 242.74 176.436 242.813 176.243 242.96C176.056 243.107 175.963 243.293 175.963 243.52C175.963 243.753 176.036 243.937 176.183 244.07C176.33 244.203 176.543 244.27 176.823 244.27C177.143 244.27 177.393 244.183 177.573 244.01C177.76 243.83 177.853 243.597 177.853 243.31V242.74ZM175.303 241.14V240.19C175.696 239.963 176.216 239.85 176.863 239.85C178.19 239.85 178.853 240.493 178.853 241.78V245H177.883V244.4C177.623 244.827 177.166 245.04 176.513 245.04C176.033 245.04 175.646 244.903 175.353 244.63C175.066 244.35 174.923 243.997 174.923 243.57C174.923 243.083 175.106 242.707 175.473 242.44C175.84 242.167 176.353 242.03 177.013 242.03H177.853V241.74C177.853 241.393 177.77 241.133 177.603 240.96C177.436 240.78 177.16 240.69 176.773 240.69C176.233 240.69 175.743 240.84 175.303 241.14ZM179.963 244.88C179.837 244.747 179.773 244.587 179.773 244.4C179.773 244.213 179.837 244.057 179.963 243.93C180.097 243.797 180.26 243.73 180.453 243.73C180.64 243.73 180.797 243.797 180.923 243.93C181.057 244.057 181.123 244.213 181.123 244.4C181.123 244.587 181.057 244.747 180.923 244.88C180.797 245.013 180.64 245.08 180.453 245.08C180.26 245.08 180.097 245.013 179.963 244.88Z" fill="#2B2B2B"/>
<rect x="109" y="275" width="120" height="24" rx="8" fill="#FF1934"/>
<path d="M155.22 285.856L155.22 288.448L155.212 288.448L155.22 288.536C154.729 288.888 154.116 289.064 153.38 289.064C152.526 289.064 151.836 288.816 151.308 288.32C150.785 287.824 150.524 287.149 150.524 286.296C150.524 285.464 150.793 284.792 151.332 284.28C151.876 283.768 152.561 283.512 153.388 283.512C154.001 283.512 154.526 283.627 154.964 283.856L154.964 284.888C154.473 284.595 153.953 284.448 153.404 284.448C152.865 284.448 152.43 284.616 152.1 284.952C151.769 285.288 151.604 285.736 151.604 286.296C151.604 286.867 151.764 287.317 152.084 287.648C152.409 287.973 152.854 288.136 153.42 288.136C153.697 288.136 153.966 288.088 154.228 287.992L154.228 286.72L153.236 286.72L153.236 285.856L155.22 285.856ZM159.463 286.936L159.463 283.608L160.471 283.608L160.471 286.928C160.471 287.627 160.281 288.16 159.903 288.528C159.529 288.891 159.015 289.072 158.359 289.072C157.719 289.072 157.207 288.893 156.823 288.536C156.444 288.173 156.255 287.656 156.255 286.984L156.255 283.608L157.263 283.608L157.263 286.976C157.263 287.387 157.364 287.685 157.567 287.872C157.769 288.053 158.033 288.144 158.359 288.144C159.095 288.144 159.463 287.741 159.463 286.936ZM161.56 289L161.56 283.608L162.704 283.608L164 285.856C164.213 286.224 164.403 286.568 164.568 286.888C164.739 287.203 164.853 287.427 164.912 287.56L165 287.76C164.957 287.317 164.936 286.683 164.936 285.856L164.936 283.608L165.952 283.608L165.952 289L164.8 289L163.488 286.76C163.28 286.408 163.091 286.072 162.92 285.752C162.755 285.427 162.64 285.192 162.576 285.048L162.48 284.824C162.539 285.331 162.568 285.973 162.568 286.752L162.568 289L161.56 289ZM168.436 286.952L169.956 286.952L169.884 286.712C169.702 286.136 169.553 285.653 169.436 285.264C169.324 284.869 169.254 284.621 169.228 284.52L169.196 284.36C169.148 284.627 168.918 285.413 168.508 286.72L168.436 286.952ZM170.596 289L170.212 287.776L168.172 287.776L167.788 289L166.732 289L168.556 283.608L169.86 283.608L171.684 289L170.596 289ZM172.458 289L172.458 283.608L173.466 283.608L173.466 289L172.458 289ZM174.746 286.312L176.754 289L175.482 289L173.546 286.328L175.41 283.608L176.618 283.608L174.746 286.312ZM178.85 286.952L180.37 286.952L180.298 286.712C180.117 286.136 179.967 285.653 179.85 285.264C179.738 284.869 179.669 284.621 179.642 284.52L179.61 284.36C179.562 284.627 179.333 285.413 178.922 286.72L178.85 286.952ZM181.01 289L180.626 287.776L178.586 287.776L178.202 289L177.146 289L178.97 283.608L180.274 283.608L182.098 289L181.01 289ZM182.873 289L182.873 283.608L184.017 283.608L185.313 285.856C185.526 286.224 185.715 286.568 185.881 286.888C186.051 287.203 186.166 287.427 186.225 287.56L186.313 287.76C186.27 287.317 186.249 286.683 186.249 285.856L186.249 283.608L187.265 283.608L187.265 289L186.113 289L184.801 286.76C184.593 286.408 184.403 286.072 184.233 285.752C184.067 285.427 183.953 285.192 183.889 285.048L183.793 284.824C183.851 285.331 183.881 285.973 183.881 286.752L183.881 289L182.873 289Z" fill="white"/>
<path d="M9 341.5H329C333.694 341.5 337.5 345.306 337.5 350C337.5 354.694 333.694 358.5 329 358.5H9C4.30558 358.5 0.5 354.694 0.5 350C0.500002 345.306 4.30558 341.5 9 341.5Z" fill="white"/>
<path d="M9 341.5H329C333.694 341.5 337.5 345.306 337.5 350C337.5 354.694 333.694 358.5 329 358.5H9C4.30558 358.5 0.5 354.694 0.5 350C0.500002 345.306 4.30558 341.5 9 341.5Z" stroke="#CCCCCC"/>
<path d="M7.86805e-07 350C3.52265e-07 345.029 4.02944 341 9 341L39 341C43.9706 341 48 345.029 48 350C48 354.971 43.9706 359 39 359L9 359C4.02944 359 1.22135e-06 354.971 7.86805e-07 350Z" fill="#FF1934"/>
<path d="M15.448 346.688H16.264L16.816 348.6L17.456 350.92C17.5893 350.179 17.7547 349.403 17.952 348.592L18.44 346.608H19.464L18.088 352H16.92L16.432 350.296C16.2987 349.843 16.184 349.443 16.088 349.096C15.9973 348.749 15.936 348.517 15.904 348.4L15.864 348.216C15.7893 348.589 15.6027 349.283 15.304 350.296L14.8 352H13.64L12.2 346.608H13.264L13.768 348.6C13.8533 348.957 13.9387 349.328 14.024 349.712C14.1093 350.096 14.1733 350.389 14.216 350.592L14.28 350.904C14.4507 350.232 14.6587 349.464 14.904 348.6L15.448 346.688ZM22.2561 350.256H21.7601C21.5094 350.256 21.3174 350.309 21.1841 350.416C21.0507 350.517 20.9841 350.648 20.9841 350.808C20.9841 351.149 21.1814 351.32 21.5761 351.32C21.7894 351.32 21.9547 351.259 22.0721 351.136C22.1947 351.008 22.2561 350.843 22.2561 350.64V350.256ZM20.2881 349.04V348.152C20.5921 347.965 21.0294 347.872 21.6001 347.872C22.6987 347.872 23.2481 348.384 23.2481 349.408V352H22.2961V351.512C22.1094 351.859 21.7574 352.032 21.2401 352.032C20.8561 352.032 20.5494 351.92 20.3201 351.696C20.0961 351.472 19.9841 351.189 19.9841 350.848C19.9841 350.464 20.1281 350.163 20.4161 349.944C20.7041 349.725 21.1201 349.616 21.6641 349.616H22.2561V349.368C22.2561 349.144 22.1974 348.973 22.0801 348.856C21.9627 348.739 21.7627 348.68 21.4801 348.68C21.0481 348.68 20.6507 348.8 20.2881 349.04ZM27.7828 352H26.6548L25.1988 349.904V352H24.2388V346.44H25.1988V349.848L26.6308 347.944H27.7508L26.2628 349.88L27.7828 352ZM29.5864 348.664V350.728C29.5864 350.899 29.6318 351.029 29.7224 351.12C29.8131 351.205 29.9384 351.248 30.0984 351.248C30.3011 351.248 30.4878 351.192 30.6584 351.08V351.904C30.4718 351.995 30.2318 352.04 29.9384 352.04C29.0638 352.04 28.6264 351.597 28.6264 350.712V348.664H28.0184V347.944H28.6264V346.968H29.5864V347.944H30.5944V348.664H29.5864ZM33.9617 347.944H34.9297V352H33.9617V351.336C33.7484 351.805 33.3324 352.04 32.7137 352.04C32.303 352.04 31.983 351.923 31.7537 351.688C31.5244 351.453 31.4097 351.12 31.4097 350.688V347.944H32.3697V350.464C32.3697 350.72 32.431 350.915 32.5537 351.048C32.6817 351.181 32.855 351.248 33.0737 351.248C33.351 351.248 33.567 351.155 33.7217 350.968C33.8817 350.781 33.9617 350.499 33.9617 350.12V347.944Z" fill="white"/>
<rect x="56" y="348" width="274" height="4" rx="2" fill="#CCCCCC"/>
<mask id="mask0_1124_4113" style="mask-type:alpha" maskUnits="userSpaceOnUse" x="56" y="348" width="274" height="4">
<rect x="56" y="348" width="274" height="4" rx="2" fill="#CCCCCC"/>
</mask>
<g mask="url(#mask0_1124_4113)">
<rect x="56" y="348" width="274" height="4" rx="2" fill="#FF1934"/>
</g>
<defs>
<filter id="filter0_d_1124_4113" x="5" y="48" width="328" height="56" filterUnits="userSpaceOnUse" color-interpolation-filters="sRGB">
<feFlood flood-opacity="0" result="BackgroundImageFix"/>
<feColorMatrix in="SourceAlpha" type="matrix" values="0 0 0 0 0 0 0 0 0 0 0 0 0 0 0 0 0 0 127 0" result="hardAlpha"/>
<feOffset dy="2"/>
<feGaussianBlur stdDeviation="2"/>
<feComposite in2="hardAlpha" operator="out"/>
<feColorMatrix type="matrix" values="0 0 0 0 0.168627 0 0 0 0 0.168627 0 0 0 0 0.168627 0 0 0 0.24 0"/>
<feBlend mode="normal" in2="BackgroundImageFix" result="effect1_dropShadow_1124_4113"/>
<feBlend mode="normal" in="SourceGraphic" in2="effect1_dropShadow_1124_4113" result="shape"/>
</filter>
<clipPath id="clip0_1124_4113">
<rect width="24" height="24" fill="white" transform="translate(25 66)"/>
</clipPath>
<clipPath id="clip1_1124_4113">
<rect width="64" height="64" fill="white" transform="translate(137 130)"/>
</clipPath>
</defs>
</svg>
