<svg width="338" height="375" viewBox="0 0 338 375" fill="none" xmlns="http://www.w3.org/2000/svg">
<rect width="338" height="375" fill="#D3D3D3"/>
<rect x="9" y="50" width="320" height="265" rx="16" fill="white"/>
<g filter="url(#filter0_d_1124_4113)">
<path d="M9 66C9 57.1634 16.1634 50 25 50H313C321.837 50 329 57.1634 329 66V98H9V66Z" fill="#FF1934" shape-rendering="crispEdges"/>
<g clip-path="url(#clip0_1124_4113)">
<path fill-rule="evenodd" clip-rule="evenodd" d="M27 78C27 72.49 31.49 68 37 68C42.51 68 47 72.49 47 78C47 83.51 42.51 88 37 88C31.49 88 27 83.51 27 78ZM28.6 78C28.6 82.63 32.37 86.4 37 86.4C41.63 86.4 45.4 82.63 45.4 78C45.4 73.37 41.63 69.6 37 69.6C32.37 69.6 28.6 73.37 28.6 78ZM32.2 78C32.2 77.56 32.56 77.2 33 77.2H41C41.44 77.2 41.8 77.56 41.8 78C41.8 78.44 41.44 78.8 41 78.8H33C32.56 78.8 32.2 78.44 32.2 78Z" fill="white"/>
</g>
<path d="M57.56 77.254C57.56 75.8073 57.9753 74.6407 58.806 73.754C59.646 72.858 60.7613 72.41 62.152 72.41C63.552 72.41 64.6673 72.8533 65.498 73.74C66.3287 74.6267 66.744 75.798 66.744 77.254C66.744 78.7007 66.324 79.872 65.484 80.768C64.6533 81.6547 63.5427 82.098 62.152 82.098C60.752 82.098 59.6367 81.6547 58.806 80.768C57.9753 79.8813 57.56 78.71 57.56 77.254ZM60.486 75.154C60.0753 75.6673 59.87 76.3673 59.87 77.254C59.87 78.1407 60.0753 78.8453 60.486 79.368C60.8967 79.8813 61.452 80.138 62.152 80.138C62.852 80.138 63.4073 79.8813 63.818 79.368C64.2287 78.8453 64.434 78.1407 64.434 77.254C64.434 76.3673 64.2287 75.6673 63.818 75.154C63.4073 74.6313 62.852 74.37 62.152 74.37C61.452 74.37 60.8967 74.6313 60.486 75.154ZM70.1786 74.902V76.218C70.3093 75.8073 70.5239 75.4807 70.8226 75.238C71.1306 74.986 71.4853 74.86 71.8866 74.86C72.1106 74.86 72.2879 74.8787 72.4186 74.916V76.848C72.1946 76.7453 71.9379 76.694 71.6486 76.694C71.2099 76.694 70.8553 76.8573 70.5846 77.184C70.3139 77.5013 70.1786 77.926 70.1786 78.458V82H68.1346L68.1486 74.902H70.1786ZM76.8442 79.088H76.1862C75.8409 79.088 75.5749 79.1627 75.3882 79.312C75.2016 79.4613 75.1082 79.6527 75.1082 79.886C75.1082 80.362 75.3836 80.6 75.9342 80.6C76.2236 80.6 76.4476 80.5113 76.6062 80.334C76.7649 80.1567 76.8442 79.914 76.8442 79.606V79.088ZM73.5262 77.086V75.252C74.0862 74.9347 74.8936 74.776 75.9482 74.776C76.9562 74.776 77.7076 74.9953 78.2022 75.434C78.6969 75.8633 78.9442 76.5353 78.9442 77.45V82H76.9422V81.132C76.6436 81.7387 76.0556 82.042 75.1782 82.042C74.4876 82.042 73.9462 81.846 73.5542 81.454C73.1716 81.062 72.9802 80.572 72.9802 79.984C72.9802 79.3027 73.2276 78.7753 73.7222 78.402C74.2262 78.0193 74.9682 77.828 75.9482 77.828H76.8442V77.338C76.8442 76.7407 76.4476 76.442 75.6542 76.442C74.8889 76.442 74.1796 76.6567 73.5262 77.086ZM82.593 74.902V76.106C82.7703 75.714 83.041 75.406 83.405 75.182C83.7783 74.9487 84.2217 74.832 84.735 74.832C85.463 74.832 86.0323 75.0513 86.443 75.49C86.8537 75.9193 87.059 76.554 87.059 77.394V82H85.015V77.772C85.015 77.352 84.917 77.0347 84.721 76.82C84.525 76.596 84.2497 76.484 83.895 76.484C83.5217 76.484 83.209 76.6333 82.957 76.932C82.7143 77.2213 82.593 77.66 82.593 78.248V82H80.549V74.902H82.593ZM91.8201 80.138C92.2587 80.138 92.5994 79.9747 92.8421 79.648C93.0941 79.312 93.2201 78.9107 93.2201 78.444C93.2201 77.1747 92.7581 76.54 91.8341 76.54C91.4234 76.54 91.1014 76.6987 90.8681 77.016C90.6347 77.3333 90.5181 77.772 90.5181 78.332C90.5181 78.92 90.6301 79.368 90.8541 79.676C91.0781 79.984 91.4001 80.138 91.8201 80.138ZM93.2201 74.902H95.2501V81.314C95.2501 82.4527 94.9094 83.3067 94.2281 83.876C93.5467 84.4547 92.6927 84.744 91.6661 84.744C90.6674 84.744 89.7947 84.5667 89.0481 84.212V82.126C89.7014 82.6487 90.5041 82.91 91.4561 82.91C92.0721 82.91 92.5201 82.7793 92.8001 82.518C93.0801 82.2567 93.2201 81.846 93.2201 81.286V80.81C92.8094 81.4447 92.1561 81.762 91.2601 81.762C90.4761 81.762 89.7994 81.4727 89.2301 80.894C88.6701 80.3153 88.3901 79.4567 88.3901 78.318C88.3901 77.31 88.6607 76.4793 89.2021 75.826C89.7527 75.1633 90.4714 74.832 91.3581 74.832C92.1981 74.832 92.8187 75.168 93.2201 75.84V74.902ZM102.726 76.4V79.662C102.726 79.914 102.796 80.1053 102.936 80.236C103.085 80.3667 103.276 80.432 103.51 80.432C103.883 80.432 104.214 80.3387 104.504 80.152V81.846C104.158 81.9953 103.692 82.07 103.104 82.07C101.489 82.07 100.682 81.2627 100.682 79.648V76.4H99.6595V74.902H100.682V73.222H102.726V74.902H104.378V76.4H102.726ZM110.156 74.902H112.2V82H110.156V80.866C109.783 81.6593 109.064 82.056 108 82.056C107.272 82.056 106.703 81.8553 106.292 81.454C105.891 81.0433 105.69 80.4413 105.69 79.648V74.902H107.734V79.186C107.734 80.0167 108.098 80.432 108.826 80.432C109.713 80.432 110.156 79.8393 110.156 78.654V74.902ZM117.395 79.088H116.737C116.392 79.088 116.126 79.1627 115.939 79.312C115.752 79.4613 115.659 79.6527 115.659 79.886C115.659 80.362 115.934 80.6 116.485 80.6C116.774 80.6 116.998 80.5113 117.157 80.334C117.316 80.1567 117.395 79.914 117.395 79.606V79.088ZM114.077 77.086V75.252C114.637 74.9347 115.444 74.776 116.499 74.776C117.507 74.776 118.258 74.9953 118.753 75.434C119.248 75.8633 119.495 76.5353 119.495 77.45V82H117.493V81.132C117.194 81.7387 116.606 82.042 115.729 82.042C115.038 82.042 114.497 81.846 114.105 81.454C113.722 81.062 113.531 80.572 113.531 79.984C113.531 79.3027 113.778 78.7753 114.273 78.402C114.777 78.0193 115.519 77.828 116.499 77.828H117.395V77.338C117.395 76.7407 116.998 76.442 116.205 76.442C115.44 76.442 114.73 76.6567 114.077 77.086ZM127.428 78.332H129.696L129.598 77.996C129.327 77.0813 129.103 76.302 128.926 75.658C128.758 75.014 128.655 74.5987 128.618 74.412L128.562 74.132C128.487 74.6453 128.142 75.9333 127.526 77.996L127.428 78.332ZM130.788 82L130.214 80.068H126.91L126.336 82H124.082L127.232 72.564H129.948L133.098 82H130.788ZM136.31 74.902V76.106C136.487 75.714 136.758 75.406 137.122 75.182C137.495 74.9487 137.938 74.832 138.452 74.832C139.18 74.832 139.749 75.0513 140.16 75.49C140.57 75.9193 140.776 76.554 140.776 77.394V82H138.732V77.772C138.732 77.352 138.634 77.0347 138.438 76.82C138.242 76.596 137.966 76.484 137.612 76.484C137.238 76.484 136.926 76.6333 136.674 76.932C136.431 77.2213 136.31 77.66 136.31 78.248V82H134.266V74.902H136.31ZM145.649 80.376C146.116 80.376 146.494 80.194 146.783 79.83C147.072 79.466 147.217 78.9807 147.217 78.374C147.217 77.786 147.058 77.3287 146.741 77.002C146.433 76.6753 146.064 76.512 145.635 76.512C145.206 76.512 144.842 76.6847 144.543 77.03C144.254 77.3753 144.109 77.856 144.109 78.472C144.109 79.0413 144.258 79.5033 144.557 79.858C144.856 80.2033 145.22 80.376 145.649 80.376ZM147.217 72.102H149.261V82H147.217V80.894C146.741 81.6873 146.032 82.084 145.089 82.084C144.165 82.084 143.423 81.7247 142.863 81.006C142.312 80.2873 142.037 79.4287 142.037 78.43C142.037 77.31 142.326 76.428 142.905 75.784C143.484 75.14 144.216 74.818 145.103 74.818C146.027 74.818 146.732 75.21 147.217 75.994V72.102ZM154.459 79.088H153.801C153.456 79.088 153.19 79.1627 153.003 79.312C152.817 79.4613 152.723 79.6527 152.723 79.886C152.723 80.362 152.999 80.6 153.549 80.6C153.839 80.6 154.063 80.5113 154.221 80.334C154.38 80.1567 154.459 79.914 154.459 79.606V79.088ZM151.141 77.086V75.252C151.701 74.9347 152.509 74.776 153.563 74.776C154.571 74.776 155.323 74.9953 155.817 75.434C156.312 75.8633 156.559 76.5353 156.559 77.45V82H154.557V81.132C154.259 81.7387 153.671 82.042 152.793 82.042C152.103 82.042 151.561 81.846 151.169 81.454C150.787 81.062 150.595 80.572 150.595 79.984C150.595 79.3027 150.843 78.7753 151.337 78.402C151.841 78.0193 152.583 77.828 153.563 77.828H154.459V77.338C154.459 76.7407 154.063 76.442 153.269 76.442C152.504 76.442 151.795 76.6567 151.141 77.086ZM164.926 80.376C165.393 80.376 165.771 80.194 166.06 79.83C166.35 79.466 166.494 78.9807 166.494 78.374C166.494 77.786 166.336 77.3287 166.018 77.002C165.71 76.6753 165.342 76.512 164.912 76.512C164.483 76.512 164.119 76.6847 163.82 77.03C163.531 77.3753 163.386 77.856 163.386 78.472C163.386 79.0413 163.536 79.5033 163.834 79.858C164.133 80.2033 164.497 80.376 164.926 80.376ZM166.494 72.102H168.538V82H166.494V80.894C166.018 81.6873 165.309 82.084 164.366 82.084C163.442 82.084 162.7 81.7247 162.14 81.006C161.59 80.2873 161.314 79.4287 161.314 78.43C161.314 77.31 161.604 76.428 162.182 75.784C162.761 75.14 163.494 74.818 164.38 74.818C165.304 74.818 166.009 75.21 166.494 75.994V72.102ZM170.293 82V74.902H172.337V82H170.293ZM170.475 73.684C170.241 73.4507 170.125 73.1707 170.125 72.844C170.125 72.5173 170.241 72.2373 170.475 72.004C170.708 71.7707 170.988 71.654 171.315 71.654C171.641 71.654 171.921 71.7707 172.155 72.004C172.388 72.2373 172.505 72.5173 172.505 72.844C172.505 73.1707 172.388 73.4507 172.155 73.684C171.921 73.9173 171.641 74.034 171.315 74.034C170.988 74.034 170.708 73.9173 170.475 73.684ZM176.122 74.902V76.218C176.253 75.8073 176.467 75.4807 176.766 75.238C177.074 74.986 177.429 74.86 177.83 74.86C178.054 74.86 178.231 74.8787 178.362 74.916V76.848C178.138 76.7453 177.881 76.694 177.592 76.694C177.153 76.694 176.799 76.8573 176.528 77.184C176.257 77.5013 176.122 77.926 176.122 78.458V82H174.078L174.092 74.902H176.122ZM182.788 79.088H182.13C181.784 79.088 181.518 79.1627 181.332 79.312C181.145 79.4613 181.052 79.6527 181.052 79.886C181.052 80.362 181.327 80.6 181.878 80.6C182.167 80.6 182.391 80.5113 182.55 80.334C182.708 80.1567 182.788 79.914 182.788 79.606V79.088ZM179.47 77.086V75.252C180.03 74.9347 180.837 74.776 181.892 74.776C182.9 74.776 183.651 74.9953 184.146 75.434C184.64 75.8633 184.888 76.5353 184.888 77.45V82H182.886V81.132C182.587 81.7387 181.999 82.042 181.122 82.042C180.431 82.042 179.89 81.846 179.498 81.454C179.115 81.062 178.924 80.572 178.924 79.984C178.924 79.3027 179.171 78.7753 179.666 78.402C180.17 78.0193 180.912 77.828 181.892 77.828H182.788V77.338C182.788 76.7407 182.391 76.442 181.598 76.442C180.832 76.442 180.123 76.6567 179.47 77.086ZM188.004 82L185.722 74.902H187.836L188.452 77.24C188.602 77.828 188.728 78.36 188.83 78.836C188.933 79.3027 188.994 79.6247 189.012 79.802L189.054 80.068C189.12 79.508 189.348 78.5653 189.74 77.24L190.426 74.902H192.19L192.862 77.24C193.03 77.8373 193.17 78.374 193.282 78.85C193.394 79.3167 193.464 79.6387 193.492 79.816L193.534 80.068C193.6 79.5173 193.819 78.5747 194.192 77.24L194.85 74.902H196.866L194.598 82H192.498L191.882 79.676C191.752 79.172 191.635 78.7007 191.532 78.262C191.439 77.8233 191.378 77.5107 191.35 77.324L191.308 77.044C191.215 77.6693 191.019 78.5467 190.72 79.676L190.104 82H188.004ZM201.286 79.088H200.628C200.282 79.088 200.016 79.1627 199.83 79.312C199.643 79.4613 199.55 79.6527 199.55 79.886C199.55 80.362 199.825 80.6 200.376 80.6C200.665 80.6 200.889 80.5113 201.048 80.334C201.206 80.1567 201.286 79.914 201.286 79.606V79.088ZM197.968 77.086V75.252C198.528 74.9347 199.335 74.776 200.39 74.776C201.398 74.776 202.149 74.9953 202.644 75.434C203.138 75.8633 203.386 76.5353 203.386 77.45V82H201.384V81.132C201.085 81.7387 200.497 82.042 199.62 82.042C198.929 82.042 198.388 81.846 197.996 81.454C197.613 81.062 197.422 80.572 197.422 79.984C197.422 79.3027 197.669 78.7753 198.164 78.402C198.668 78.0193 199.41 77.828 200.39 77.828H201.286V77.338C201.286 76.7407 200.889 76.442 200.096 76.442C199.33 76.442 198.621 76.6567 197.968 77.086ZM207.356 76.4V79.662C207.356 79.914 207.426 80.1053 207.566 80.236C207.716 80.3667 207.907 80.432 208.14 80.432C208.514 80.432 208.845 80.3387 209.134 80.152V81.846C208.789 81.9953 208.322 82.07 207.734 82.07C206.12 82.07 205.312 81.2627 205.312 79.648V76.4H204.29V74.902H205.312V73.222H207.356V74.902H209.008V76.4H207.356ZM217.153 80.376C217.619 80.376 217.997 80.194 218.287 79.83C218.576 79.466 218.721 78.9807 218.721 78.374C218.721 77.786 218.562 77.3287 218.245 77.002C217.937 76.6753 217.568 76.512 217.139 76.512C216.709 76.512 216.345 76.6847 216.047 77.03C215.757 77.3753 215.613 77.856 215.613 78.472C215.613 79.0413 215.762 79.5033 216.061 79.858C216.359 80.2033 216.723 80.376 217.153 80.376ZM218.721 72.102H220.765V82H218.721V80.894C218.245 81.6873 217.535 82.084 216.593 82.084C215.669 82.084 214.927 81.7247 214.367 81.006C213.816 80.2873 213.541 79.4287 213.541 78.43C213.541 77.31 213.83 76.428 214.409 75.784C214.987 75.14 215.72 74.818 216.607 74.818C217.531 74.818 218.235 75.21 218.721 75.994V72.102ZM222.519 82V74.902H224.563V82H222.519ZM222.701 73.684C222.468 73.4507 222.351 73.1707 222.351 72.844C222.351 72.5173 222.468 72.2373 222.701 72.004C222.935 71.7707 223.215 71.654 223.541 71.654C223.868 71.654 224.148 71.7707 224.381 72.004C224.615 72.2373 224.731 72.5173 224.731 72.844C224.731 73.1707 224.615 73.4507 224.381 73.684C224.148 73.9173 223.868 74.034 223.541 74.034C223.215 74.034 222.935 73.9173 222.701 73.684ZM231.849 74.902V76.218C231.979 75.8073 232.194 75.4807 232.493 75.238C232.801 74.986 233.155 74.86 233.557 74.86C233.781 74.86 233.958 74.8787 234.089 74.916V76.848C233.865 76.7453 233.608 76.694 233.319 76.694C232.88 76.694 232.525 76.8573 232.255 77.184C231.984 77.5013 231.849 77.926 231.849 78.458V82H229.805L229.819 74.902H231.849ZM239.396 74.902H241.44V82H239.396V80.866C239.023 81.6593 238.304 82.056 237.24 82.056C236.512 82.056 235.943 81.8553 235.532 81.454C235.131 81.0433 234.93 80.4413 234.93 79.648V74.902H236.974V79.186C236.974 80.0167 237.338 80.432 238.066 80.432C238.953 80.432 239.396 79.8393 239.396 78.654V74.902ZM245.165 74.902V76.008C245.557 75.224 246.225 74.832 247.167 74.832C248.166 74.832 248.829 75.28 249.155 76.176C249.314 75.756 249.58 75.4293 249.953 75.196C250.327 74.9533 250.765 74.832 251.269 74.832C251.969 74.832 252.52 75.056 252.921 75.504C253.332 75.9427 253.537 76.5913 253.537 77.45V82H251.493V77.786C251.493 77.3847 251.414 77.0673 251.255 76.834C251.097 76.6007 250.868 76.484 250.569 76.484C250.252 76.484 249.967 76.6147 249.715 76.876C249.473 77.128 249.351 77.5853 249.351 78.248V82H247.307V77.786C247.307 77.3847 247.228 77.0673 247.069 76.834C246.911 76.6007 246.682 76.484 246.383 76.484C246.066 76.484 245.781 76.6147 245.529 76.876C245.287 77.128 245.165 77.5853 245.165 78.248V82H243.121V74.902H245.165ZM258.667 79.088H258.008C257.663 79.088 257.397 79.1627 257.211 79.312C257.024 79.4613 256.931 79.6527 256.931 79.886C256.931 80.362 257.206 80.6 257.757 80.6C258.046 80.6 258.27 80.5113 258.428 80.334C258.587 80.1567 258.667 79.914 258.667 79.606V79.088ZM255.349 77.086V75.252C255.909 74.9347 256.716 74.776 257.771 74.776C258.779 74.776 259.53 74.9953 260.025 75.434C260.519 75.8633 260.767 76.5353 260.767 77.45V82H258.765V81.132C258.466 81.7387 257.878 82.042 257.001 82.042C256.31 82.042 255.769 81.846 255.377 81.454C254.994 81.062 254.803 80.572 254.803 79.984C254.803 79.3027 255.05 78.7753 255.545 78.402C256.049 78.0193 256.791 77.828 257.771 77.828H258.667V77.338C258.667 76.7407 258.27 76.442 257.477 76.442C256.711 76.442 256.002 76.6567 255.349 77.086ZM264.415 72.102V76.106C264.779 75.2567 265.489 74.832 266.543 74.832C267.234 74.832 267.794 75.0513 268.223 75.49C268.662 75.9287 268.881 76.5913 268.881 77.478V82H266.837V77.8C266.837 77.3893 266.735 77.0673 266.529 76.834C266.324 76.6007 266.058 76.484 265.731 76.484C265.591 76.484 265.456 76.5073 265.325 76.554C265.204 76.5913 265.069 76.666 264.919 76.778C264.77 76.8807 264.649 77.0627 264.555 77.324C264.462 77.576 264.415 77.884 264.415 78.248V82H262.371V72.102H264.415ZM278.472 75.112V76.862C277.978 76.5727 277.399 76.428 276.736 76.428C276.494 76.428 276.307 76.4793 276.176 76.582C276.046 76.6753 275.98 76.7967 275.98 76.946C275.98 77.03 276.004 77.1093 276.05 77.184C276.097 77.2587 276.172 77.3287 276.274 77.394C276.386 77.4593 276.489 77.52 276.582 77.576C276.685 77.6227 276.82 77.6833 276.988 77.758C277.166 77.8327 277.306 77.898 277.408 77.954C277.838 78.178 278.183 78.4393 278.444 78.738C278.706 79.0273 278.836 79.4007 278.836 79.858C278.836 80.558 278.584 81.0993 278.08 81.482C277.576 81.8647 276.909 82.056 276.078 82.056C275.22 82.056 274.501 81.9113 273.922 81.622V79.802C274.566 80.25 275.248 80.474 275.966 80.474C276.48 80.474 276.736 80.3107 276.736 79.984C276.736 79.9 276.713 79.8207 276.666 79.746C276.62 79.6713 276.54 79.6013 276.428 79.536C276.316 79.4707 276.214 79.4193 276.12 79.382C276.027 79.3353 275.892 79.2747 275.714 79.2C275.537 79.1253 275.402 79.0647 275.308 79.018C274.366 78.57 273.894 77.898 273.894 77.002C273.894 76.3113 274.156 75.7747 274.678 75.392C275.21 75.0093 275.868 74.818 276.652 74.818C277.38 74.818 277.987 74.916 278.472 75.112ZM283.604 79.088H282.946C282.601 79.088 282.335 79.1627 282.148 79.312C281.961 79.4613 281.868 79.6527 281.868 79.886C281.868 80.362 282.143 80.6 282.694 80.6C282.983 80.6 283.207 80.5113 283.366 80.334C283.525 80.1567 283.604 79.914 283.604 79.606V79.088ZM280.286 77.086V75.252C280.846 74.9347 281.653 74.776 282.708 74.776C283.716 74.776 284.467 74.9953 284.962 75.434C285.457 75.8633 285.704 76.5353 285.704 77.45V82H283.702V81.132C283.403 81.7387 282.815 82.042 281.938 82.042C281.247 82.042 280.706 81.846 280.314 81.454C279.931 81.062 279.74 80.572 279.74 79.984C279.74 79.3027 279.987 78.7753 280.482 78.402C280.986 78.0193 281.728 77.828 282.708 77.828H283.604V77.338C283.604 76.7407 283.207 76.442 282.414 76.442C281.649 76.442 280.939 76.6567 280.286 77.086ZM293.987 82H291.621L289.353 78.514V82H287.309V72.34H289.353V78.08L291.593 74.902H293.945L291.481 78.304L293.987 82ZM295.049 82V74.902H297.093V82H295.049ZM295.231 73.684C294.997 73.4507 294.881 73.1707 294.881 72.844C294.881 72.5173 294.997 72.2373 295.231 72.004C295.464 71.7707 295.744 71.654 296.071 71.654C296.397 71.654 296.677 71.7707 296.911 72.004C297.144 72.2373 297.261 72.5173 297.261 72.844C297.261 73.1707 297.144 73.4507 296.911 73.684C296.677 73.9173 296.397 74.034 296.071 74.034C295.744 74.034 295.464 73.9173 295.231 73.684ZM301.214 76.4V79.662C301.214 79.914 301.284 80.1053 301.424 80.236C301.573 80.3667 301.764 80.432 301.998 80.432C302.371 80.432 302.702 80.3387 302.992 80.152V81.846C302.646 81.9953 302.18 82.07 301.592 82.07C299.977 82.07 299.17 81.2627 299.17 79.648V76.4H298.148V74.902H299.17V73.222H301.214V74.902H302.866V76.4H301.214Z" fill="white"/>
</g>
<g clip-path="url(#clip1_1124_4113)">
<path d="M94.3749 127.996L87.9761 131.518L92.5409 133.515L74.1401 144.07L85.5961 132.282L81.4569 131.657L87.4579 123.275L86.8486 116.608L69.7446 118.17L70.6646 128.246L60.5884 129.167L62.1503 146.271L72.1185 145.171V155.29H89.2939V145.171H99.4123V127.996H94.3749Z" fill="#FF1934"/>
<path d="M95.3076 160.078L88.4933 160.505L93.3546 160.748L73.7591 162.03L85.959 160.599L81.5512 160.522L87.9418 159.505L87.2931 158.695L69.0786 158.885L70.0585 160.108L59.3281 160.22L60.9914 162.297L71.6069 162.163V163.392H89.8968V162.163H100.672V160.078H95.3076Z" fill="#CCCCCC"/>
</g>
<path d="M124.22 132.49H126.38L126.27 132.15C126.017 131.363 125.81 130.713 125.65 130.2C125.49 129.68 125.393 129.357 125.36 129.23L125.31 129.04C125.237 129.353 124.91 130.39 124.33 132.15L124.22 132.49ZM127.19 135L126.66 133.35H123.94L123.4 135H122.31L124.64 128.26H125.99L128.29 135H127.19ZM130.272 129.93V130.8C130.572 130.173 131.098 129.86 131.852 129.86C132.352 129.86 132.748 130.013 133.042 130.32C133.335 130.627 133.482 131.043 133.482 131.57V135H132.502V131.8C132.502 131.447 132.412 131.177 132.232 130.99C132.058 130.803 131.825 130.71 131.532 130.71C131.185 130.71 130.888 130.847 130.642 131.12C130.395 131.387 130.272 131.763 130.272 132.25V135H129.292V129.93H130.272ZM136.849 134.21C137.236 134.21 137.563 134.063 137.829 133.77C138.096 133.477 138.229 133.03 138.229 132.43C138.229 131.85 138.089 131.42 137.809 131.14C137.536 130.86 137.226 130.72 136.879 130.72C136.486 130.72 136.163 130.877 135.909 131.19C135.656 131.497 135.529 131.937 135.529 132.51C135.529 133.017 135.653 133.427 135.899 133.74C136.153 134.053 136.469 134.21 136.849 134.21ZM138.229 127.93H139.219V135H138.229V134.23C137.876 134.79 137.359 135.07 136.679 135.07C136.013 135.07 135.486 134.82 135.099 134.32C134.713 133.813 134.519 133.203 134.519 132.49C134.519 131.697 134.723 131.06 135.129 130.58C135.536 130.1 136.059 129.86 136.699 129.86C137.359 129.86 137.869 130.14 138.229 130.7V127.93ZM143.27 132.74H142.51C142.137 132.74 141.853 132.813 141.66 132.96C141.473 133.107 141.38 133.293 141.38 133.52C141.38 133.753 141.453 133.937 141.6 134.07C141.747 134.203 141.96 134.27 142.24 134.27C142.56 134.27 142.81 134.183 142.99 134.01C143.177 133.83 143.27 133.597 143.27 133.31V132.74ZM140.72 131.14V130.19C141.113 129.963 141.633 129.85 142.28 129.85C143.607 129.85 144.27 130.493 144.27 131.78V135H143.3V134.4C143.04 134.827 142.583 135.04 141.93 135.04C141.45 135.04 141.063 134.903 140.77 134.63C140.483 134.35 140.34 133.997 140.34 133.57C140.34 133.083 140.523 132.707 140.89 132.44C141.257 132.167 141.77 132.03 142.43 132.03H143.27V131.74C143.27 131.393 143.187 131.133 143.02 130.96C142.853 130.78 142.577 130.69 142.19 130.69C141.65 130.69 141.16 130.84 140.72 131.14ZM149.031 127.93V130.8C149.318 130.173 149.841 129.86 150.601 129.86C151.095 129.86 151.491 130.013 151.791 130.32C152.091 130.627 152.241 131.053 152.241 131.6V135H151.261V131.8C151.261 131.453 151.171 131.187 150.991 131C150.818 130.807 150.588 130.71 150.301 130.71C149.968 130.71 149.671 130.837 149.411 131.09C149.158 131.343 149.031 131.73 149.031 132.25V135H148.051V127.93H149.031ZM156.229 132.74H155.469C155.096 132.74 154.812 132.813 154.619 132.96C154.432 133.107 154.339 133.293 154.339 133.52C154.339 133.753 154.412 133.937 154.559 134.07C154.706 134.203 154.919 134.27 155.199 134.27C155.519 134.27 155.769 134.183 155.949 134.01C156.136 133.83 156.229 133.597 156.229 133.31V132.74ZM153.679 131.14V130.19C154.072 129.963 154.592 129.85 155.239 129.85C156.566 129.85 157.229 130.493 157.229 131.78V135H156.259V134.4C155.999 134.827 155.542 135.04 154.889 135.04C154.409 135.04 154.022 134.903 153.729 134.63C153.442 134.35 153.299 133.997 153.299 133.57C153.299 133.083 153.482 132.707 153.849 132.44C154.216 132.167 154.729 132.03 155.389 132.03H156.229V131.74C156.229 131.393 156.146 131.133 155.979 130.96C155.812 130.78 155.536 130.69 155.149 130.69C154.609 130.69 154.119 130.84 153.679 131.14ZM159.529 129.93V130.82C159.776 130.193 160.219 129.88 160.859 129.88C160.953 129.88 161.056 129.89 161.169 129.91V130.87C161.029 130.81 160.873 130.78 160.699 130.78C160.359 130.78 160.079 130.93 159.859 131.23C159.639 131.53 159.529 131.887 159.529 132.3V135H158.549V129.93H159.529ZM165.088 129.93H166.068V135H165.088V134.13C164.821 134.75 164.295 135.06 163.508 135.06C163.008 135.06 162.611 134.913 162.318 134.62C162.025 134.32 161.878 133.91 161.878 133.39V129.93H162.868V133.15C162.868 133.497 162.951 133.763 163.118 133.95C163.291 134.13 163.528 134.22 163.828 134.22C164.208 134.22 164.511 134.087 164.738 133.82C164.971 133.553 165.088 133.177 165.088 132.69V129.93ZM170.336 130.1V130.99C170.009 130.797 169.589 130.7 169.076 130.7C168.843 130.7 168.656 130.753 168.516 130.86C168.383 130.967 168.316 131.107 168.316 131.28C168.316 131.327 168.319 131.373 168.326 131.42C168.339 131.46 168.359 131.503 168.386 131.55C168.413 131.59 168.436 131.627 168.456 131.66C168.483 131.687 168.523 131.717 168.576 131.75C168.629 131.783 168.669 131.813 168.696 131.84C168.729 131.86 168.779 131.887 168.846 131.92C168.919 131.953 168.973 131.98 169.006 132C169.039 132.013 169.096 132.04 169.176 132.08C169.263 132.113 169.323 132.137 169.356 132.15C169.749 132.323 170.056 132.52 170.276 132.74C170.503 132.953 170.616 133.24 170.616 133.6C170.616 134.053 170.456 134.41 170.136 134.67C169.816 134.923 169.383 135.05 168.836 135.05C168.236 135.05 167.736 134.95 167.336 134.75V133.82C167.803 134.107 168.286 134.25 168.786 134.25C169.046 134.25 169.246 134.197 169.386 134.09C169.533 133.983 169.606 133.843 169.606 133.67C169.606 133.523 169.549 133.393 169.436 133.28C169.323 133.16 169.206 133.073 169.086 133.02C168.973 132.96 168.776 132.87 168.496 132.75C167.703 132.423 167.306 131.943 167.306 131.31C167.306 130.863 167.473 130.513 167.806 130.26C168.139 130.007 168.556 129.88 169.056 129.88C169.603 129.88 170.029 129.953 170.336 130.1ZM175.076 129.93V130.74C175.363 130.153 175.84 129.86 176.506 129.86C177.266 129.86 177.753 130.187 177.966 130.84C178.106 130.527 178.31 130.287 178.576 130.12C178.843 129.947 179.143 129.86 179.476 129.86C179.996 129.86 180.39 130.013 180.656 130.32C180.93 130.627 181.066 131.05 181.066 131.59V135H180.086V131.8C180.086 131.073 179.793 130.71 179.206 130.71C178.913 130.71 178.65 130.84 178.416 131.1C178.19 131.36 178.076 131.743 178.076 132.25V135H177.096V131.8C177.096 131.073 176.8 130.71 176.206 130.71C175.92 130.71 175.66 130.84 175.426 131.1C175.193 131.36 175.076 131.743 175.076 132.25V135H174.096V129.93H175.076ZM185.547 132.1V131.92C185.534 131.54 185.43 131.24 185.237 131.02C185.044 130.793 184.767 130.68 184.407 130.68C184.074 130.68 183.787 130.803 183.547 131.05C183.307 131.29 183.157 131.64 183.097 132.1H185.547ZM186.177 133.85V134.73C185.804 134.943 185.31 135.05 184.697 135.05C183.91 135.05 183.284 134.813 182.817 134.34C182.35 133.867 182.117 133.247 182.117 132.48C182.117 131.667 182.33 131.03 182.757 130.57C183.184 130.103 183.727 129.87 184.387 129.87C185.034 129.87 185.547 130.073 185.927 130.48C186.307 130.88 186.497 131.46 186.497 132.22C186.497 132.427 186.477 132.643 186.437 132.87H183.107C183.174 133.31 183.36 133.647 183.667 133.88C183.974 134.113 184.36 134.23 184.827 134.23C185.367 134.23 185.817 134.103 186.177 133.85ZM188.631 129.93V130.74C188.918 130.153 189.394 129.86 190.061 129.86C190.821 129.86 191.308 130.187 191.521 130.84C191.661 130.527 191.864 130.287 192.131 130.12C192.398 129.947 192.698 129.86 193.031 129.86C193.551 129.86 193.944 130.013 194.211 130.32C194.484 130.627 194.621 131.05 194.621 131.59V135H193.641V131.8C193.641 131.073 193.348 130.71 192.761 130.71C192.468 130.71 192.204 130.84 191.971 131.1C191.744 131.36 191.631 131.743 191.631 132.25V135H190.651V131.8C190.651 131.073 190.354 130.71 189.761 130.71C189.474 130.71 189.214 130.84 188.981 131.1C188.748 131.36 188.631 131.743 188.631 132.25V135H187.651V129.93H188.631ZM198.342 134.21C198.715 134.21 199.028 134.053 199.282 133.74C199.535 133.42 199.662 133.01 199.662 132.51C199.662 131.937 199.535 131.497 199.282 131.19C199.028 130.877 198.705 130.72 198.312 130.72C197.965 130.72 197.652 130.86 197.372 131.14C197.098 131.42 196.962 131.85 196.962 132.43C196.962 133.03 197.095 133.477 197.362 133.77C197.628 134.063 197.955 134.21 198.342 134.21ZM196.962 127.93V130.7C197.322 130.14 197.832 129.86 198.492 129.86C199.132 129.86 199.655 130.1 200.062 130.58C200.468 131.06 200.672 131.697 200.672 132.49C200.672 133.203 200.478 133.813 200.092 134.32C199.705 134.82 199.175 135.07 198.502 135.07C197.828 135.07 197.315 134.79 196.962 134.23V135H195.972V127.93H196.962ZM204.442 132.74H203.682C203.309 132.74 203.025 132.813 202.832 132.96C202.645 133.107 202.552 133.293 202.552 133.52C202.552 133.753 202.625 133.937 202.772 134.07C202.919 134.203 203.132 134.27 203.412 134.27C203.732 134.27 203.982 134.183 204.162 134.01C204.349 133.83 204.442 133.597 204.442 133.31V132.74ZM201.892 131.14V130.19C202.285 129.963 202.805 129.85 203.452 129.85C204.779 129.85 205.442 130.493 205.442 131.78V135H204.472V134.4C204.212 134.827 203.755 135.04 203.102 135.04C202.622 135.04 202.235 134.903 201.942 134.63C201.655 134.35 201.512 133.997 201.512 133.57C201.512 133.083 201.695 132.707 202.062 132.44C202.429 132.167 202.942 132.03 203.602 132.03H204.442V131.74C204.442 131.393 204.359 131.133 204.192 130.96C204.025 130.78 203.749 130.69 203.362 130.69C202.822 130.69 202.332 130.84 201.892 131.14ZM208.162 134.89L206.142 129.93H207.232L207.862 131.58L208.652 133.72C208.712 133.52 208.952 132.807 209.372 131.58L209.942 129.93H210.982L209.152 134.86C208.666 136.16 207.922 136.81 206.922 136.81C206.742 136.81 206.589 136.793 206.462 136.76V135.92C206.569 135.947 206.682 135.96 206.802 135.96C207.449 135.96 207.902 135.603 208.162 134.89ZM214.471 132.74H213.711C213.338 132.74 213.055 132.813 212.861 132.96C212.675 133.107 212.581 133.293 212.581 133.52C212.581 133.753 212.655 133.937 212.801 134.07C212.948 134.203 213.161 134.27 213.441 134.27C213.761 134.27 214.011 134.183 214.191 134.01C214.378 133.83 214.471 133.597 214.471 133.31V132.74ZM211.921 131.14V130.19C212.315 129.963 212.835 129.85 213.481 129.85C214.808 129.85 215.471 130.493 215.471 131.78V135H214.501V134.4C214.241 134.827 213.785 135.04 213.131 135.04C212.651 135.04 212.265 134.903 211.971 134.63C211.685 134.35 211.541 133.997 211.541 133.57C211.541 133.083 211.725 132.707 212.091 132.44C212.458 132.167 212.971 132.03 213.631 132.03H214.471V131.74C214.471 131.393 214.388 131.133 214.221 130.96C214.055 130.78 213.778 130.69 213.391 130.69C212.851 130.69 212.361 130.84 211.921 131.14ZM217.772 129.93V130.82C218.018 130.193 218.462 129.88 219.102 129.88C219.195 129.88 219.298 129.89 219.412 129.91V130.87C219.272 130.81 219.115 130.78 218.942 130.78C218.602 130.78 218.322 130.93 218.102 131.23C217.882 131.53 217.772 131.887 217.772 132.3V135H216.792V129.93H217.772Z" fill="#2B2B2B"/>
<path d="M123.96 145.3V147.5H124.8C125.187 147.5 125.477 147.403 125.67 147.21C125.863 147.01 125.96 146.733 125.96 146.38C125.96 146.033 125.857 145.767 125.65 145.58C125.45 145.393 125.16 145.3 124.78 145.3H123.96ZM126.18 151L124.65 148.54H123.96V151H122.7V144.26H124.78C125.547 144.26 126.147 144.453 126.58 144.84C127.02 145.227 127.24 145.743 127.24 146.39C127.233 146.87 127.117 147.277 126.89 147.61C126.663 147.937 126.353 148.18 125.96 148.34L127.69 151H126.18ZM130.999 150.04C131.359 150.04 131.652 149.903 131.879 149.63C132.105 149.35 132.219 148.96 132.219 148.46C132.219 147.96 132.105 147.573 131.879 147.3C131.652 147.02 131.365 146.88 131.019 146.88C130.672 146.88 130.372 147.01 130.119 147.27C129.865 147.53 129.739 147.917 129.739 148.43C129.739 148.943 129.862 149.34 130.109 149.62C130.355 149.9 130.652 150.04 130.999 150.04ZM129.739 145.93V146.71C130.099 146.143 130.615 145.86 131.289 145.86C131.949 145.86 132.472 146.097 132.859 146.57C133.252 147.043 133.449 147.667 133.449 148.44C133.449 149.2 133.252 149.83 132.859 150.33C132.472 150.823 131.945 151.07 131.279 151.07C130.599 151.07 130.085 150.793 129.739 150.24V152.91H128.539V145.93H129.739ZM137.847 148.5H139.567V145.21L137.847 148.5ZM141.627 148.5V149.53H140.767V151H139.567V149.53H136.657V148.5L138.837 144.45H140.767V148.5H141.627ZM142.224 147.7C142.224 146.667 142.427 145.85 142.834 145.25C143.24 144.643 143.817 144.34 144.564 144.34C145.317 144.34 145.897 144.643 146.304 145.25C146.717 145.85 146.924 146.667 146.924 147.7C146.924 148.727 146.72 149.547 146.314 150.16C145.914 150.773 145.33 151.08 144.564 151.08C143.817 151.08 143.24 150.773 142.834 150.16C142.427 149.547 142.224 148.727 142.224 147.7ZM143.754 146.02C143.554 146.407 143.454 146.967 143.454 147.7C143.454 148.433 143.55 149 143.744 149.4C143.944 149.793 144.217 149.99 144.564 149.99C144.924 149.99 145.2 149.793 145.394 149.4C145.594 149.007 145.694 148.44 145.694 147.7C145.694 146.96 145.59 146.397 145.384 146.01C145.184 145.623 144.91 145.43 144.564 145.43C144.224 145.43 143.954 145.627 143.754 146.02ZM147.683 147.7C147.683 146.667 147.886 145.85 148.293 145.25C148.699 144.643 149.276 144.34 150.023 144.34C150.776 144.34 151.356 144.643 151.763 145.25C152.176 145.85 152.383 146.667 152.383 147.7C152.383 148.727 152.179 149.547 151.773 150.16C151.373 150.773 150.789 151.08 150.023 151.08C149.276 151.08 148.699 150.773 148.293 150.16C147.886 149.547 147.683 148.727 147.683 147.7ZM149.213 146.02C149.013 146.407 148.913 146.967 148.913 147.7C148.913 148.433 149.009 149 149.203 149.4C149.403 149.793 149.676 149.99 150.023 149.99C150.383 149.99 150.659 149.793 150.853 149.4C151.053 149.007 151.153 148.44 151.153 147.7C151.153 146.96 151.049 146.397 150.843 146.01C150.643 145.623 150.369 145.43 150.023 145.43C149.683 145.43 149.413 145.627 149.213 146.02ZM152.692 152.26L153.672 149.79H155.062L153.732 152.26H152.692ZM155.818 147.7C155.818 146.667 156.021 145.85 156.428 145.25C156.834 144.643 157.411 144.34 158.158 144.34C158.911 144.34 159.491 144.643 159.898 145.25C160.311 145.85 160.518 146.667 160.518 147.7C160.518 148.727 160.314 149.547 159.908 150.16C159.508 150.773 158.924 151.08 158.158 151.08C157.411 151.08 156.834 150.773 156.428 150.16C156.021 149.547 155.818 148.727 155.818 147.7ZM157.348 146.02C157.148 146.407 157.048 146.967 157.048 147.7C157.048 148.433 157.144 149 157.338 149.4C157.538 149.793 157.811 149.99 158.158 149.99C158.518 149.99 158.794 149.793 158.988 149.4C159.188 149.007 159.288 148.44 159.288 147.7C159.288 146.96 159.184 146.397 158.978 146.01C158.778 145.623 158.504 145.43 158.158 145.43C157.818 145.43 157.548 145.627 157.348 146.02ZM161.276 147.7C161.276 146.667 161.48 145.85 161.886 145.25C162.293 144.643 162.87 144.34 163.616 144.34C164.37 144.34 164.95 144.643 165.356 145.25C165.77 145.85 165.976 146.667 165.976 147.7C165.976 148.727 165.773 149.547 165.366 150.16C164.966 150.773 164.383 151.08 163.616 151.08C162.87 151.08 162.293 150.773 161.886 150.16C161.48 149.547 161.276 148.727 161.276 147.7ZM162.806 146.02C162.606 146.407 162.506 146.967 162.506 147.7C162.506 148.433 162.603 149 162.796 149.4C162.996 149.793 163.27 149.99 163.616 149.99C163.976 149.99 164.253 149.793 164.446 149.4C164.646 149.007 164.746 148.44 164.746 147.7C164.746 146.96 164.643 146.397 164.436 146.01C164.236 145.623 163.963 145.43 163.616 145.43C163.276 145.43 163.006 145.627 162.806 146.02ZM166.735 147.7C166.735 146.667 166.939 145.85 167.345 145.25C167.752 144.643 168.329 144.34 169.075 144.34C169.829 144.34 170.409 144.643 170.815 145.25C171.229 145.85 171.435 146.667 171.435 147.7C171.435 148.727 171.232 149.547 170.825 150.16C170.425 150.773 169.842 151.08 169.075 151.08C168.329 151.08 167.752 150.773 167.345 150.16C166.939 149.547 166.735 148.727 166.735 147.7ZM168.265 146.02C168.065 146.407 167.965 146.967 167.965 147.7C167.965 148.433 168.062 149 168.255 149.4C168.455 149.793 168.729 149.99 169.075 149.99C169.435 149.99 169.712 149.793 169.905 149.4C170.105 149.007 170.205 148.44 170.205 147.7C170.205 146.96 170.102 146.397 169.895 146.01C169.695 145.623 169.422 145.43 169.075 145.43C168.735 145.43 168.465 145.627 168.265 146.02Z" fill="#FF1934"/>
<path opacity="0.64" d="M60.904 213.468V210.108H61.552V213.452C61.552 214.145 61.376 214.671 61.024 215.028C60.6773 215.385 60.192 215.564 59.568 215.564C58.9547 215.564 58.4747 215.391 58.128 215.044C57.7813 214.692 57.608 214.183 57.608 213.516V210.108H58.256V213.508C58.256 214.004 58.3733 214.369 58.608 214.604C58.848 214.839 59.168 214.956 59.568 214.956C60.4587 214.956 60.904 214.46 60.904 213.468ZM64.9243 213.628H64.2203C63.8789 213.628 63.6229 213.695 63.4523 213.828C63.2816 213.961 63.1963 214.129 63.1963 214.332C63.1963 214.535 63.2629 214.7 63.3963 214.828C63.5296 214.951 63.7243 215.012 63.9803 215.012C64.2683 215.012 64.4976 214.932 64.6683 214.772C64.8389 214.607 64.9243 214.399 64.9243 214.148V213.628ZM62.8283 212.292V211.66C63.1323 211.473 63.5323 211.38 64.0283 211.38C65.0469 211.38 65.5563 211.897 65.5563 212.932V215.5H64.9323V215.02C64.7243 215.367 64.3456 215.54 63.7963 215.54C63.4176 215.54 63.1109 215.428 62.8763 215.204C62.6469 214.98 62.5323 214.697 62.5323 214.356C62.5323 213.967 62.6789 213.665 62.9723 213.452C63.2709 213.233 63.6763 213.124 64.1883 213.124H64.9243V212.916C64.9243 212.596 64.8523 212.356 64.7083 212.196C64.5643 212.031 64.3216 211.948 63.9803 211.948C63.5483 211.948 63.1643 212.063 62.8283 212.292ZM67.3018 211.444V212.148C67.5418 211.641 67.9684 211.388 68.5818 211.388C68.9764 211.388 69.2911 211.508 69.5258 211.748C69.7604 211.988 69.8778 212.308 69.8778 212.708V215.5H69.2458V212.876C69.2458 212.577 69.1684 212.351 69.0138 212.196C68.8644 212.036 68.6671 211.956 68.4218 211.956C68.1178 211.956 67.8538 212.073 67.6298 212.308C67.4111 212.543 67.3018 212.868 67.3018 213.284V215.5H66.6778V211.444H67.3018ZM72.5181 214.836C72.8114 214.836 73.0701 214.724 73.2941 214.5C73.5234 214.271 73.6381 213.932 73.6381 213.484C73.6381 212.967 73.5287 212.583 73.3101 212.332C73.0914 212.081 72.8381 211.956 72.5501 211.956C72.2034 211.956 71.9287 212.095 71.7261 212.372C71.5234 212.644 71.4221 213.001 71.4221 213.444C71.4221 213.897 71.5341 214.244 71.7581 214.484C71.9821 214.719 72.2354 214.836 72.5181 214.836ZM73.6381 211.444H74.2701V215.172C74.2701 215.791 74.0994 216.255 73.7581 216.564C73.4167 216.879 72.9767 217.036 72.4381 217.036C71.9474 217.036 71.5287 216.953 71.1821 216.788V216.156C71.5234 216.353 71.9234 216.452 72.3821 216.452C72.7714 216.452 73.0781 216.348 73.3021 216.14C73.5261 215.932 73.6381 215.607 73.6381 215.164V214.708C73.3714 215.167 72.9741 215.396 72.4461 215.396C71.9821 215.396 71.5847 215.225 71.2541 214.884C70.9287 214.543 70.7661 214.068 70.7661 213.46C70.7661 212.857 70.9181 212.361 71.2221 211.972C71.5261 211.583 71.9234 211.388 72.4141 211.388C72.9687 211.388 73.3767 211.631 73.6381 212.116V211.444ZM80.4618 210.108V210.676H79.0058V215.5H78.3578V210.676H76.9018V210.108H80.4618ZM83.7212 211.444H84.3532V215.5H83.7212V214.796C83.5079 215.297 83.0839 215.548 82.4492 215.548C82.0492 215.548 81.7319 215.431 81.4972 215.196C81.2679 214.956 81.1532 214.636 81.1532 214.236V211.444H81.7852V214.076C81.7852 214.369 81.8599 214.593 82.0092 214.748C82.1585 214.903 82.3612 214.98 82.6172 214.98C82.9532 214.98 83.2199 214.863 83.4172 214.628C83.6199 214.393 83.7212 214.076 83.7212 213.676V211.444ZM86.1455 211.444V212.148C86.3855 211.641 86.8122 211.388 87.4255 211.388C87.8202 211.388 88.1348 211.508 88.3695 211.748C88.6042 211.988 88.7215 212.308 88.7215 212.708V215.5H88.0895V212.876C88.0895 212.577 88.0122 212.351 87.8575 212.196C87.7082 212.036 87.5108 211.956 87.2655 211.956C86.9615 211.956 86.6975 212.073 86.4735 212.308C86.2548 212.543 86.1455 212.868 86.1455 213.284V215.5H85.5215V211.444H86.1455ZM92.0258 213.628H91.3218C90.9805 213.628 90.7245 213.695 90.5538 213.828C90.3831 213.961 90.2978 214.129 90.2978 214.332C90.2978 214.535 90.3645 214.7 90.4978 214.828C90.6311 214.951 90.8258 215.012 91.0818 215.012C91.3698 215.012 91.5991 214.932 91.7698 214.772C91.9405 214.607 92.0258 214.399 92.0258 214.148V213.628ZM89.9298 212.292V211.66C90.2338 211.473 90.6338 211.38 91.1298 211.38C92.1485 211.38 92.6578 211.897 92.6578 212.932V215.5H92.0338V215.02C91.8258 215.367 91.4471 215.54 90.8978 215.54C90.5191 215.54 90.2125 215.428 89.9778 215.204C89.7485 214.98 89.6338 214.697 89.6338 214.356C89.6338 213.967 89.7805 213.665 90.0738 213.452C90.3725 213.233 90.7778 213.124 91.2898 213.124H92.0258V212.916C92.0258 212.596 91.9538 212.356 91.8098 212.196C91.6658 212.031 91.4231 211.948 91.0818 211.948C90.6498 211.948 90.2658 212.063 89.9298 212.292ZM93.8113 215.5V211.444H94.4433V215.5H93.8113ZM93.8273 210.468C93.7526 210.388 93.7153 210.289 93.7153 210.172C93.7153 210.055 93.7526 209.956 93.8273 209.876C93.9073 209.796 94.006 209.756 94.1233 209.756C94.2406 209.756 94.3393 209.796 94.4193 209.876C94.4993 209.956 94.5393 210.055 94.5393 210.172C94.5393 210.289 94.4993 210.388 94.4193 210.468C94.3393 210.543 94.2406 210.58 94.1233 210.58C94.006 210.58 93.9073 210.543 93.8273 210.468Z" fill="#2B2B2B"/>
<path d="M245.248 210.668V212.82H246.064C246.432 212.82 246.712 212.721 246.904 212.524C247.102 212.321 247.2 212.063 247.2 211.748C247.2 211.028 246.798 210.668 245.992 210.668H245.248ZM248.184 215.5H247.408L246.088 213.372H246.024H245.248V215.5H244.6V210.108H245.952C246.576 210.108 247.048 210.255 247.368 210.548C247.694 210.841 247.856 211.247 247.856 211.764C247.846 212.137 247.747 212.455 247.56 212.716C247.374 212.977 247.11 213.161 246.768 213.268L248.184 215.5ZM250.735 214.988C251.077 214.988 251.357 214.855 251.575 214.588C251.794 214.316 251.903 213.932 251.903 213.436C251.903 212.993 251.797 212.636 251.583 212.364C251.37 212.092 251.101 211.956 250.775 211.956C250.45 211.956 250.167 212.076 249.927 212.316C249.693 212.551 249.575 212.937 249.575 213.476C249.575 213.993 249.695 214.375 249.935 214.62C250.175 214.865 250.442 214.988 250.735 214.988ZM249.575 211.444V212.06C249.858 211.607 250.277 211.38 250.831 211.38C251.37 211.38 251.791 211.577 252.095 211.972C252.405 212.361 252.559 212.849 252.559 213.436C252.559 214.06 252.397 214.572 252.071 214.972C251.751 215.367 251.333 215.564 250.815 215.564C250.282 215.564 249.869 215.337 249.575 214.884V217.076H248.951V211.444H249.575ZM255.003 211.7V211.02L256.243 210.268H256.835V215.5H256.211V210.956L255.003 211.7ZM257.789 212.868C257.789 212.047 257.955 211.399 258.285 210.924C258.621 210.444 259.061 210.204 259.605 210.204C260.171 210.204 260.619 210.444 260.949 210.924C261.285 211.399 261.453 212.047 261.453 212.868C261.453 213.684 261.293 214.337 260.973 214.828C260.653 215.319 260.197 215.564 259.605 215.564C259.056 215.564 258.616 215.319 258.285 214.828C257.955 214.337 257.789 213.684 257.789 212.868ZM258.781 211.348C258.552 211.705 258.437 212.212 258.437 212.868C258.437 213.524 258.549 214.039 258.773 214.412C258.997 214.78 259.275 214.964 259.605 214.964C259.973 214.964 260.264 214.783 260.477 214.42C260.696 214.057 260.805 213.54 260.805 212.868C260.805 212.201 260.691 211.692 260.461 211.34C260.237 210.983 259.952 210.804 259.605 210.804C259.285 210.804 259.011 210.985 258.781 211.348ZM262.141 212.868C262.141 212.047 262.306 211.399 262.637 210.924C262.973 210.444 263.413 210.204 263.957 210.204C264.522 210.204 264.97 210.444 265.301 210.924C265.637 211.399 265.805 212.047 265.805 212.868C265.805 213.684 265.645 214.337 265.325 214.828C265.005 215.319 264.549 215.564 263.957 215.564C263.408 215.564 262.968 215.319 262.637 214.828C262.306 214.337 262.141 213.684 262.141 212.868ZM263.133 211.348C262.904 211.705 262.789 212.212 262.789 212.868C262.789 213.524 262.901 214.039 263.125 214.412C263.349 214.78 263.626 214.964 263.957 214.964C264.325 214.964 264.616 214.783 264.829 214.42C265.048 214.057 265.157 213.54 265.157 212.868C265.157 212.201 265.042 211.692 264.813 211.34C264.589 210.983 264.304 210.804 263.957 210.804C263.637 210.804 263.362 210.985 263.133 211.348ZM266.084 216.484L266.828 214.692H267.668L266.636 216.484H266.084ZM268.289 212.868C268.289 212.047 268.455 211.399 268.785 210.924C269.121 210.444 269.561 210.204 270.105 210.204C270.671 210.204 271.119 210.444 271.449 210.924C271.785 211.399 271.953 212.047 271.953 212.868C271.953 213.684 271.793 214.337 271.473 214.828C271.153 215.319 270.697 215.564 270.105 215.564C269.556 215.564 269.116 215.319 268.785 214.828C268.455 214.337 268.289 213.684 268.289 212.868ZM269.281 211.348C269.052 211.705 268.937 212.212 268.937 212.868C268.937 213.524 269.049 214.039 269.273 214.412C269.497 214.78 269.775 214.964 270.105 214.964C270.473 214.964 270.764 214.783 270.977 214.42C271.196 214.057 271.305 213.54 271.305 212.868C271.305 212.201 271.191 211.692 270.961 211.34C270.737 210.983 270.452 210.804 270.105 210.804C269.785 210.804 269.511 210.985 269.281 211.348ZM272.641 212.868C272.641 212.047 272.806 211.399 273.137 210.924C273.473 210.444 273.913 210.204 274.457 210.204C275.022 210.204 275.47 210.444 275.801 210.924C276.137 211.399 276.305 212.047 276.305 212.868C276.305 213.684 276.145 214.337 275.825 214.828C275.505 215.319 275.049 215.564 274.457 215.564C273.908 215.564 273.468 215.319 273.137 214.828C272.806 214.337 272.641 213.684 272.641 212.868ZM273.633 211.348C273.404 211.705 273.289 212.212 273.289 212.868C273.289 213.524 273.401 214.039 273.625 214.412C273.849 214.78 274.126 214.964 274.457 214.964C274.825 214.964 275.116 214.783 275.329 214.42C275.548 214.057 275.657 213.54 275.657 212.868C275.657 212.201 275.542 211.692 275.313 211.34C275.089 210.983 274.804 210.804 274.457 210.804C274.137 210.804 273.862 210.985 273.633 211.348ZM276.992 212.868C276.992 212.047 277.158 211.399 277.488 210.924C277.824 210.444 278.264 210.204 278.808 210.204C279.374 210.204 279.822 210.444 280.152 210.924C280.488 211.399 280.656 212.047 280.656 212.868C280.656 213.684 280.496 214.337 280.176 214.828C279.856 215.319 279.4 215.564 278.808 215.564C278.259 215.564 277.819 215.319 277.488 214.828C277.158 214.337 276.992 213.684 276.992 212.868ZM277.984 211.348C277.755 211.705 277.64 212.212 277.64 212.868C277.64 213.524 277.752 214.039 277.976 214.412C278.2 214.78 278.478 214.964 278.808 214.964C279.176 214.964 279.467 214.783 279.68 214.42C279.899 214.057 280.008 213.54 280.008 212.868C280.008 212.201 279.894 211.692 279.664 211.34C279.44 210.983 279.155 210.804 278.808 210.804C278.488 210.804 278.214 210.985 277.984 211.348Z" fill="#2B2B2B"/>
<mask id="path-10-inside-1_1124_4113" fill="white">
<path d="M57 224.5H281V246.5H57V224.5Z"/>
</mask>
<path d="M281 245.5H57V247.5H281V245.5Z" fill="#CCCCCC" mask="url(#path-10-inside-1_1124_4113)"/>
<path opacity="0.64" d="M60.704 232.108V232.676H59.248V237.5H58.6V232.676H57.144V232.108H60.704ZM63.6274 235.628H62.9234C62.582 235.628 62.326 235.695 62.1554 235.828C61.9847 235.961 61.8994 236.129 61.8994 236.332C61.8994 236.535 61.966 236.7 62.0994 236.828C62.2327 236.951 62.4274 237.012 62.6834 237.012C62.9714 237.012 63.2007 236.932 63.3714 236.772C63.542 236.607 63.6274 236.399 63.6274 236.148V235.628ZM61.5314 234.292V233.66C61.8354 233.473 62.2354 233.38 62.7314 233.38C63.75 233.38 64.2594 233.897 64.2594 234.932V237.5H63.6354V237.02C63.4274 237.367 63.0487 237.54 62.4994 237.54C62.1207 237.54 61.814 237.428 61.5794 237.204C61.35 236.98 61.2354 236.697 61.2354 236.356C61.2354 235.967 61.382 235.665 61.6754 235.452C61.974 235.233 62.3794 235.124 62.8914 235.124H63.6274V234.916C63.6274 234.596 63.5554 234.356 63.4114 234.196C63.2674 234.031 63.0247 233.948 62.6834 233.948C62.2514 233.948 61.8674 234.063 61.5314 234.292ZM67.2289 236.988C67.5542 236.988 67.8235 236.852 68.0369 236.58C68.2502 236.308 68.3569 235.953 68.3569 235.516C68.3569 235.015 68.2449 234.631 68.0209 234.364C67.8022 234.092 67.5249 233.956 67.1889 233.956C66.9009 233.956 66.6369 234.076 66.3969 234.316C66.1569 234.556 66.0369 234.932 66.0369 235.444C66.0369 235.983 66.1515 236.375 66.3809 236.62C66.6155 236.865 66.8982 236.988 67.2289 236.988ZM66.0369 231.844V234.052C66.3302 233.604 66.7409 233.38 67.2689 233.38C67.7809 233.38 68.1995 233.577 68.5249 233.972C68.8502 234.361 69.0129 234.873 69.0129 235.508C69.0129 236.079 68.8582 236.564 68.5489 236.964C68.2449 237.364 67.8235 237.564 67.2849 237.564C66.7409 237.564 66.3249 237.343 66.0369 236.9V237.5H65.4049V231.844H66.0369ZM72.4634 233.444H73.0954V237.5H72.4634V236.796C72.25 237.297 71.826 237.548 71.1914 237.548C70.7914 237.548 70.474 237.431 70.2394 237.196C70.01 236.956 69.8954 236.636 69.8954 236.236V233.444H70.5274V236.076C70.5274 236.369 70.602 236.593 70.7514 236.748C70.9007 236.903 71.1034 236.98 71.3594 236.98C71.6954 236.98 71.962 236.863 72.1594 236.628C72.362 236.393 72.4634 236.076 72.4634 235.676V233.444ZM74.8877 233.444V234.148C75.1277 233.641 75.5544 233.388 76.1677 233.388C76.5624 233.388 76.877 233.508 77.1117 233.748C77.3464 233.988 77.4637 234.308 77.4637 234.708V237.5H76.8317V234.876C76.8317 234.577 76.7544 234.351 76.5997 234.196C76.4504 234.036 76.253 233.956 76.0077 233.956C75.7037 233.956 75.4397 234.073 75.2157 234.308C74.997 234.543 74.8877 234.868 74.8877 235.284V237.5H74.2637V233.444H74.8877ZM80.104 236.836C80.3973 236.836 80.656 236.724 80.88 236.5C81.1093 236.271 81.224 235.932 81.224 235.484C81.224 234.967 81.1147 234.583 80.896 234.332C80.6773 234.081 80.424 233.956 80.136 233.956C79.7893 233.956 79.5147 234.095 79.312 234.372C79.1093 234.644 79.008 235.001 79.008 235.444C79.008 235.897 79.12 236.244 79.344 236.484C79.568 236.719 79.8213 236.836 80.104 236.836ZM81.224 233.444H81.856V237.172C81.856 237.791 81.6853 238.255 81.344 238.564C81.0027 238.879 80.5627 239.036 80.024 239.036C79.5333 239.036 79.1147 238.953 78.768 238.788V238.156C79.1093 238.353 79.5093 238.452 79.968 238.452C80.3573 238.452 80.664 238.348 80.888 238.14C81.112 237.932 81.224 237.607 81.224 237.164V236.708C80.9573 237.167 80.56 237.396 80.032 237.396C79.568 237.396 79.1707 237.225 78.84 236.884C78.5147 236.543 78.352 236.068 78.352 235.46C78.352 234.857 78.504 234.361 78.808 233.972C79.112 233.583 79.5093 233.388 80 233.388C80.5547 233.388 80.9627 233.631 81.224 234.116V233.444ZM85.1586 235.628H84.4546C84.1133 235.628 83.8573 235.695 83.6866 235.828C83.516 235.961 83.4306 236.129 83.4306 236.332C83.4306 236.535 83.4973 236.7 83.6306 236.828C83.764 236.951 83.9586 237.012 84.2146 237.012C84.5026 237.012 84.732 236.932 84.9026 236.772C85.0733 236.607 85.1586 236.399 85.1586 236.148V235.628ZM83.0626 234.292V233.66C83.3666 233.473 83.7666 233.38 84.2626 233.38C85.2813 233.38 85.7906 233.897 85.7906 234.932V237.5H85.1666V237.02C84.9586 237.367 84.58 237.54 84.0306 237.54C83.652 237.54 83.3453 237.428 83.1106 237.204C82.8813 236.98 82.7666 236.697 82.7666 236.356C82.7666 235.967 82.9133 235.665 83.2066 235.452C83.5053 235.233 83.9106 235.124 84.4226 235.124H85.1586V234.916C85.1586 234.596 85.0866 234.356 84.9426 234.196C84.7986 234.031 84.556 233.948 84.2146 233.948C83.7826 233.948 83.3986 234.063 83.0626 234.292ZM87.5361 233.444V234.148C87.7761 233.641 88.2028 233.388 88.8161 233.388C89.2108 233.388 89.5255 233.508 89.7601 233.748C89.9948 233.988 90.1121 234.308 90.1121 234.708V237.5H89.4801V234.876C89.4801 234.577 89.4028 234.351 89.2481 234.196C89.0988 234.036 88.9015 233.956 88.6561 233.956C88.3521 233.956 88.0881 234.073 87.8641 234.308C87.6455 234.543 87.5361 234.868 87.5361 235.284V237.5H86.9121V233.444H87.5361Z" fill="#2B2B2B"/>
<path d="M244.108 232.668V234.82H244.924C245.292 234.82 245.572 234.721 245.764 234.524C245.961 234.321 246.06 234.063 246.06 233.748C246.06 233.028 245.657 232.668 244.852 232.668H244.108ZM247.044 237.5H246.268L244.948 235.372H244.884H244.108V237.5H243.46V232.108H244.812C245.436 232.108 245.908 232.255 246.228 232.548C246.553 232.841 246.716 233.247 246.716 233.764C246.705 234.137 246.606 234.455 246.42 234.716C246.233 234.977 245.969 235.161 245.628 235.268L247.044 237.5ZM249.595 236.988C249.936 236.988 250.216 236.855 250.435 236.588C250.653 236.316 250.763 235.932 250.763 235.436C250.763 234.993 250.656 234.636 250.443 234.364C250.229 234.092 249.96 233.956 249.635 233.956C249.309 233.956 249.027 234.076 248.787 234.316C248.552 234.551 248.435 234.937 248.435 235.476C248.435 235.993 248.555 236.375 248.795 236.62C249.035 236.865 249.301 236.988 249.595 236.988ZM248.435 233.444V234.06C248.717 233.607 249.136 233.38 249.691 233.38C250.229 233.38 250.651 233.577 250.955 233.972C251.264 234.361 251.419 234.849 251.419 235.436C251.419 236.06 251.256 236.572 250.931 236.972C250.611 237.367 250.192 237.564 249.675 237.564C249.141 237.564 248.728 237.337 248.435 236.884V239.076H247.811V233.444H248.435ZM254.183 233.124V232.508C254.492 232.311 254.849 232.212 255.255 232.212C255.772 232.212 256.172 232.345 256.455 232.612C256.743 232.873 256.887 233.199 256.887 233.588C256.887 233.871 256.815 234.124 256.671 234.348C256.532 234.572 256.324 234.74 256.047 234.852C256.351 234.921 256.591 235.063 256.767 235.276C256.948 235.484 257.039 235.745 257.039 236.06C257.039 236.487 256.889 236.841 256.591 237.124C256.292 237.407 255.871 237.548 255.327 237.548C254.825 237.548 254.391 237.46 254.023 237.284V236.652C254.417 236.86 254.847 236.964 255.311 236.964C255.652 236.964 255.916 236.876 256.103 236.7C256.295 236.524 256.391 236.295 256.391 236.012C256.391 235.729 256.284 235.513 256.071 235.364C255.863 235.209 255.561 235.132 255.167 235.132H254.831V234.58H255.167C255.465 234.58 255.716 234.497 255.919 234.332C256.127 234.161 256.231 233.935 256.231 233.652C256.231 233.369 256.143 233.156 255.967 233.012C255.791 232.868 255.548 232.796 255.239 232.796C254.871 232.796 254.519 232.905 254.183 233.124ZM257.789 234.868C257.789 234.047 257.955 233.399 258.285 232.924C258.621 232.444 259.061 232.204 259.605 232.204C260.171 232.204 260.619 232.444 260.949 232.924C261.285 233.399 261.453 234.047 261.453 234.868C261.453 235.684 261.293 236.337 260.973 236.828C260.653 237.319 260.197 237.564 259.605 237.564C259.056 237.564 258.616 237.319 258.285 236.828C257.955 236.337 257.789 235.684 257.789 234.868ZM258.781 233.348C258.552 233.705 258.437 234.212 258.437 234.868C258.437 235.524 258.549 236.039 258.773 236.412C258.997 236.78 259.275 236.964 259.605 236.964C259.973 236.964 260.264 236.783 260.477 236.42C260.696 236.057 260.805 235.54 260.805 234.868C260.805 234.201 260.691 233.692 260.461 233.34C260.237 232.983 259.952 232.804 259.605 232.804C259.285 232.804 259.011 232.985 258.781 233.348ZM262.141 234.868C262.141 234.047 262.306 233.399 262.637 232.924C262.973 232.444 263.413 232.204 263.957 232.204C264.522 232.204 264.97 232.444 265.301 232.924C265.637 233.399 265.805 234.047 265.805 234.868C265.805 235.684 265.645 236.337 265.325 236.828C265.005 237.319 264.549 237.564 263.957 237.564C263.408 237.564 262.968 237.319 262.637 236.828C262.306 236.337 262.141 235.684 262.141 234.868ZM263.133 233.348C262.904 233.705 262.789 234.212 262.789 234.868C262.789 235.524 262.901 236.039 263.125 236.412C263.349 236.78 263.626 236.964 263.957 236.964C264.325 236.964 264.616 236.783 264.829 236.42C265.048 236.057 265.157 235.54 265.157 234.868C265.157 234.201 265.042 233.692 264.813 233.34C264.589 232.983 264.304 232.804 263.957 232.804C263.637 232.804 263.362 232.985 263.133 233.348ZM266.084 238.484L266.828 236.692H267.668L266.636 238.484H266.084ZM268.289 234.868C268.289 234.047 268.455 233.399 268.785 232.924C269.121 232.444 269.561 232.204 270.105 232.204C270.671 232.204 271.119 232.444 271.449 232.924C271.785 233.399 271.953 234.047 271.953 234.868C271.953 235.684 271.793 236.337 271.473 236.828C271.153 237.319 270.697 237.564 270.105 237.564C269.556 237.564 269.116 237.319 268.785 236.828C268.455 236.337 268.289 235.684 268.289 234.868ZM269.281 233.348C269.052 233.705 268.937 234.212 268.937 234.868C268.937 235.524 269.049 236.039 269.273 236.412C269.497 236.78 269.775 236.964 270.105 236.964C270.473 236.964 270.764 236.783 270.977 236.42C271.196 236.057 271.305 235.54 271.305 234.868C271.305 234.201 271.191 233.692 270.961 233.34C270.737 232.983 270.452 232.804 270.105 232.804C269.785 232.804 269.511 232.985 269.281 233.348ZM272.641 234.868C272.641 234.047 272.806 233.399 273.137 232.924C273.473 232.444 273.913 232.204 274.457 232.204C275.022 232.204 275.47 232.444 275.801 232.924C276.137 233.399 276.305 234.047 276.305 234.868C276.305 235.684 276.145 236.337 275.825 236.828C275.505 237.319 275.049 237.564 274.457 237.564C273.908 237.564 273.468 237.319 273.137 236.828C272.806 236.337 272.641 235.684 272.641 234.868ZM273.633 233.348C273.404 233.705 273.289 234.212 273.289 234.868C273.289 235.524 273.401 236.039 273.625 236.412C273.849 236.78 274.126 236.964 274.457 236.964C274.825 236.964 275.116 236.783 275.329 236.42C275.548 236.057 275.657 235.54 275.657 234.868C275.657 234.201 275.542 233.692 275.313 233.34C275.089 232.983 274.804 232.804 274.457 232.804C274.137 232.804 273.862 232.985 273.633 233.348ZM276.992 234.868C276.992 234.047 277.158 233.399 277.488 232.924C277.824 232.444 278.264 232.204 278.808 232.204C279.374 232.204 279.822 232.444 280.152 232.924C280.488 233.399 280.656 234.047 280.656 234.868C280.656 235.684 280.496 236.337 280.176 236.828C279.856 237.319 279.4 237.564 278.808 237.564C278.259 237.564 277.819 237.319 277.488 236.828C277.158 236.337 276.992 235.684 276.992 234.868ZM277.984 233.348C277.755 233.705 277.64 234.212 277.64 234.868C277.64 235.524 277.752 236.039 277.976 236.412C278.2 236.78 278.478 236.964 278.808 236.964C279.176 236.964 279.467 236.783 279.68 236.42C279.899 236.057 280.008 235.54 280.008 234.868C280.008 234.201 279.894 233.692 279.664 233.34C279.44 232.983 279.155 232.804 278.808 232.804C278.488 232.804 278.214 232.985 277.984 233.348Z" fill="#2B2B2B"/>
<rect x="109" y="275" width="120" height="24" rx="8" fill="#FF1934"/>
<path d="M157.959 288.176L158.823 288.176C159.468 288.176 159.791 287.931 159.791 287.44C159.791 286.939 159.455 286.688 158.783 286.688L157.959 286.688L157.959 288.176ZM157.959 284.432L157.959 285.88L158.567 285.88C158.929 285.88 159.201 285.808 159.383 285.664C159.564 285.52 159.655 285.336 159.655 285.112C159.655 284.904 159.577 284.739 159.423 284.616C159.273 284.493 159.044 284.432 158.735 284.432L157.959 284.432ZM156.951 283.608L158.863 283.608C159.439 283.608 159.887 283.744 160.207 284.016C160.527 284.288 160.687 284.64 160.687 285.072C160.687 285.365 160.607 285.621 160.447 285.84C160.287 286.053 160.081 286.195 159.831 286.264C160.119 286.333 160.356 286.475 160.543 286.688C160.729 286.896 160.823 287.181 160.823 287.544C160.823 287.971 160.673 288.32 160.375 288.592C160.076 288.864 159.663 289 159.135 289L156.951 289L156.951 283.608ZM163.053 286.952L164.573 286.952L164.501 286.712C164.32 286.136 164.17 285.653 164.053 285.264C163.941 284.869 163.872 284.621 163.845 284.52L163.813 284.36C163.765 284.627 163.536 285.413 163.125 286.72L163.053 286.952ZM165.213 289L164.829 287.776L162.789 287.776L162.405 289L161.349 289L163.173 283.608L164.477 283.608L166.301 289L165.213 289ZM171.364 283.608L169.508 287L169.508 289L168.5 289L168.5 287.032L166.66 283.608L167.836 283.608L168.196 284.392C168.404 284.845 168.574 285.227 168.708 285.536C168.841 285.84 168.921 286.029 168.948 286.104L168.996 286.224C169.044 286.027 169.318 285.416 169.82 284.392L170.188 283.608L171.364 283.608ZM173.436 286.952L174.956 286.952L174.884 286.712C174.702 286.136 174.553 285.653 174.436 285.264C174.324 284.869 174.254 284.621 174.228 284.52L174.196 284.36C174.148 284.627 173.918 285.413 173.508 286.72L173.436 286.952ZM175.596 289L175.212 287.776L173.172 287.776L172.788 289L171.732 289L173.556 283.608L174.86 283.608L176.684 289L175.596 289ZM178.466 284.44L178.466 286.2L179.138 286.2C179.448 286.2 179.68 286.123 179.834 285.968C179.989 285.808 180.066 285.587 180.066 285.304C180.066 285.027 179.984 284.813 179.818 284.664C179.658 284.515 179.426 284.44 179.122 284.44L178.466 284.44ZM180.242 289L179.018 287.032L178.466 287.032L178.466 289L177.458 289L177.458 283.608L179.122 283.608C179.736 283.608 180.216 283.763 180.562 284.072C180.914 284.381 181.09 284.795 181.09 285.312C181.085 285.696 180.992 286.021 180.81 286.288C180.629 286.549 180.381 286.744 180.066 286.872L181.45 289L180.242 289Z" fill="white"/>
<path d="M9 341.5H329C333.694 341.5 337.5 345.306 337.5 350C337.5 354.694 333.694 358.5 329 358.5H9C4.30558 358.5 0.5 354.694 0.5 350C0.500002 345.306 4.30558 341.5 9 341.5Z" fill="white"/>
<path d="M9 341.5H329C333.694 341.5 337.5 345.306 337.5 350C337.5 354.694 333.694 358.5 329 358.5H9C4.30558 358.5 0.5 354.694 0.5 350C0.500002 345.306 4.30558 341.5 9 341.5Z" stroke="#CCCCCC"/>
<path d="M7.86805e-07 350C3.52265e-07 345.029 4.02944 341 9 341L39 341C43.9706 341 48 345.029 48 350C48 354.971 43.9706 359 39 359L9 359C4.02944 359 1.22135e-06 354.971 7.86805e-07 350Z" fill="#FF1934"/>
<path d="M15.448 346.688H16.264L16.816 348.6L17.456 350.92C17.5893 350.179 17.7547 349.403 17.952 348.592L18.44 346.608H19.464L18.088 352H16.92L16.432 350.296C16.2987 349.843 16.184 349.443 16.088 349.096C15.9973 348.749 15.936 348.517 15.904 348.4L15.864 348.216C15.7893 348.589 15.6027 349.283 15.304 350.296L14.8 352H13.64L12.2 346.608H13.264L13.768 348.6C13.8533 348.957 13.9387 349.328 14.024 349.712C14.1093 350.096 14.1733 350.389 14.216 350.592L14.28 350.904C14.4507 350.232 14.6587 349.464 14.904 348.6L15.448 346.688ZM22.2561 350.256H21.7601C21.5094 350.256 21.3174 350.309 21.1841 350.416C21.0507 350.517 20.9841 350.648 20.9841 350.808C20.9841 351.149 21.1814 351.32 21.5761 351.32C21.7894 351.32 21.9547 351.259 22.0721 351.136C22.1947 351.008 22.2561 350.843 22.2561 350.64V350.256ZM20.2881 349.04V348.152C20.5921 347.965 21.0294 347.872 21.6001 347.872C22.6987 347.872 23.2481 348.384 23.2481 349.408V352H22.2961V351.512C22.1094 351.859 21.7574 352.032 21.2401 352.032C20.8561 352.032 20.5494 351.92 20.3201 351.696C20.0961 351.472 19.9841 351.189 19.9841 350.848C19.9841 350.464 20.1281 350.163 20.4161 349.944C20.7041 349.725 21.1201 349.616 21.6641 349.616H22.2561V349.368C22.2561 349.144 22.1974 348.973 22.0801 348.856C21.9627 348.739 21.7627 348.68 21.4801 348.68C21.0481 348.68 20.6507 348.8 20.2881 349.04ZM27.7828 352H26.6548L25.1988 349.904V352H24.2388V346.44H25.1988V349.848L26.6308 347.944H27.7508L26.2628 349.88L27.7828 352ZM29.5864 348.664V350.728C29.5864 350.899 29.6318 351.029 29.7224 351.12C29.8131 351.205 29.9384 351.248 30.0984 351.248C30.3011 351.248 30.4878 351.192 30.6584 351.08V351.904C30.4718 351.995 30.2318 352.04 29.9384 352.04C29.0638 352.04 28.6264 351.597 28.6264 350.712V348.664H28.0184V347.944H28.6264V346.968H29.5864V347.944H30.5944V348.664H29.5864ZM33.9617 347.944H34.9297V352H33.9617V351.336C33.7484 351.805 33.3324 352.04 32.7137 352.04C32.303 352.04 31.983 351.923 31.7537 351.688C31.5244 351.453 31.4097 351.12 31.4097 350.688V347.944H32.3697V350.464C32.3697 350.72 32.431 350.915 32.5537 351.048C32.6817 351.181 32.855 351.248 33.0737 351.248C33.351 351.248 33.567 351.155 33.7217 350.968C33.8817 350.781 33.9617 350.499 33.9617 350.12V347.944Z" fill="white"/>
<rect x="56" y="348" width="274" height="4" rx="2" fill="#CCCCCC"/>
<mask id="mask0_1124_4113" style="mask-type:alpha" maskUnits="userSpaceOnUse" x="56" y="348" width="274" height="4">
<rect x="56" y="348" width="274" height="4" rx="2" fill="#CCCCCC"/>
</mask>
<g mask="url(#mask0_1124_4113)">
<rect x="56" y="348" width="274" height="4" rx="2" fill="#FF1934"/>
</g>
<defs>
<filter id="filter0_d_1124_4113" x="5" y="48" width="328" height="56" filterUnits="userSpaceOnUse" color-interpolation-filters="sRGB">
<feFlood flood-opacity="0" result="BackgroundImageFix"/>
<feColorMatrix in="SourceAlpha" type="matrix" values="0 0 0 0 0 0 0 0 0 0 0 0 0 0 0 0 0 0 127 0" result="hardAlpha"/>
<feOffset dy="2"/>
<feGaussianBlur stdDeviation="2"/>
<feComposite in2="hardAlpha" operator="out"/>
<feColorMatrix type="matrix" values="0 0 0 0 0.168627 0 0 0 0 0.168627 0 0 0 0 0.168627 0 0 0 0.24 0"/>
<feBlend mode="normal" in2="BackgroundImageFix" result="effect1_dropShadow_1124_4113"/>
<feBlend mode="normal" in="SourceGraphic" in2="effect1_dropShadow_1124_4113" result="shape"/>
</filter>
<clipPath id="clip0_1124_4113">
<rect width="24" height="24" fill="white" transform="translate(25 66)"/>
</clipPath>
<clipPath id="clip1_1124_4113">
<rect width="68" height="68" fill="white" transform="translate(46 106)"/>
</clipPath>
</defs>
</svg>
